<?xml version="1.0" encoding="UTF-8" standalone="no"?>
<!DOCTYPE svg PUBLIC "-//W3C//DTD SVG 1.1//EN"
 "http://www.w3.org/Graphics/SVG/1.1/DTD/svg11.dtd">
<!-- Generated by graphviz version 2.38.0 (20140413.2041)
 -->
<!-- Title: Test_RunAllTests Pages: 1 -->
<svg width="1392pt" height="751pt"
 viewBox="0.00 0.00 1392.00 750.50" xmlns="http://www.w3.org/2000/svg" xmlns:xlink="http://www.w3.org/1999/xlink">
<g id="graph0" class="graph" transform="scale(1 1) rotate(0) translate(4 746.5)">
<title>Test_RunAllTests</title>
<polygon fill="white" stroke="none" points="-4,4 -4,-746.5 1388,-746.5 1388,4 -4,4"/>
<!-- Node1 -->
<g id="node1" class="node"><title>Node1</title>
<polygon fill="#bfbfbf" stroke="black" points="0,-552 0,-571 95,-571 95,-552 0,-552"/>
<text text-anchor="middle" x="47.5" y="-559" font-family="Helvetica,sans-Serif" font-size="10.00">Test_RunAllTests</text>
</g>
<!-- Node2 -->
<g id="node2" class="node"><title>Node2</title>
<g id="a_node2"><a xlink:href="chainparams_8cpp.html#ace5c5b706d71a324a417dd2db394fd4a" target="_top" xlink:title="Return the currently selected parameters. ">
<polygon fill="white" stroke="black" points="178,-723 178,-742 229,-742 229,-723 178,-723"/>
<text text-anchor="middle" x="203.5" y="-730" font-family="Helvetica,sans-Serif" font-size="10.00">Params</text>
</a>
</g>
</g>
<!-- Node1&#45;&gt;Node2 -->
<g id="edge1" class="edge"><title>Node1&#45;&gt;Node2</title>
<path fill="none" stroke="midnightblue" d="M50.8343,-571.065C57.9032,-597.941 81.6818,-674.697 131,-713.5 141.41,-721.69 155.035,-726.365 167.596,-729.028"/>
<polygon fill="midnightblue" stroke="midnightblue" points="167.348,-732.538 177.804,-730.824 168.562,-725.644 167.348,-732.538"/>
</g>
<!-- Node3 -->
<g id="node3" class="node"><title>Node3</title>
<g id="a_node3"><a xlink:href="_benchmark_8cpp.html#abea6adf7c4f25b79783331a450f41e26" target="_top" xlink:title="GetTestModulus">
<polygon fill="white" stroke="black" points="335.5,-628 335.5,-647 425.5,-647 425.5,-628 335.5,-628"/>
<text text-anchor="middle" x="380.5" y="-635" font-family="Helvetica,sans-Serif" font-size="10.00">GetTestModulus</text>
</a>
</g>
</g>
<!-- Node1&#45;&gt;Node3 -->
<g id="edge2" class="edge"><title>Node1&#45;&gt;Node3</title>
<path fill="none" stroke="midnightblue" d="M95.292,-566.466C141.716,-572.055 214.607,-582.628 276,-599.5 292.554,-604.049 295.911,-607.513 312,-613.5 321.879,-617.176 332.615,-621.049 342.557,-624.585"/>
<polygon fill="midnightblue" stroke="midnightblue" points="341.58,-627.951 352.174,-627.989 343.915,-621.352 341.58,-627.951"/>
</g>
<!-- Node4 -->
<g id="node4" class="node"><title>Node4</title>
<g id="a_node4"><a xlink:href="_benchmark_8cpp.html#a48226d1e1fcd18e30f9ddfbad107150f" target="_top" xlink:title="LogTestResult">
<polygon fill="white" stroke="black" points="163,-647 163,-666 244,-666 244,-647 163,-647"/>
<text text-anchor="middle" x="203.5" y="-654" font-family="Helvetica,sans-Serif" font-size="10.00">LogTestResult</text>
</a>
</g>
</g>
<!-- Node1&#45;&gt;Node4 -->
<g id="edge3" class="edge"><title>Node1&#45;&gt;Node4</title>
<path fill="none" stroke="midnightblue" d="M56.0773,-571.009C69.4578,-587.153 98.907,-619.881 131,-637.5 137.887,-641.281 145.566,-644.34 153.264,-646.806"/>
<polygon fill="midnightblue" stroke="midnightblue" points="152.388,-650.196 162.967,-649.622 154.339,-643.474 152.388,-650.196"/>
</g>
<!-- Node5 -->
<g id="node5" class="node"><title>Node5</title>
<g id="a_node5"><a xlink:href="_benchmark_8cpp.html#a412b49834222050972c1f0f14e793646" target="_top" xlink:title="Test_GenRSAModulus">
<polygon fill="white" stroke="black" points="144,-609 144,-628 263,-628 263,-609 144,-609"/>
<text text-anchor="middle" x="203.5" y="-616" font-family="Helvetica,sans-Serif" font-size="10.00">Test_GenRSAModulus</text>
</a>
</g>
</g>
<!-- Node1&#45;&gt;Node5 -->
<g id="edge4" class="edge"><title>Node1&#45;&gt;Node5</title>
<path fill="none" stroke="midnightblue" d="M71.4798,-571.098C87.9557,-577.879 110.729,-587.05 131,-594.5 141.338,-598.299 152.602,-602.193 163.067,-605.709"/>
<polygon fill="midnightblue" stroke="midnightblue" points="162.206,-609.111 172.8,-608.949 164.417,-602.469 162.206,-609.111"/>
</g>
<!-- Node6 -->
<g id="node6" class="node"><title>Node6</title>
<g id="a_node6"><a xlink:href="_benchmark_8cpp.html#a8a015b45c383fc7458a6317780a6c1bf" target="_top" xlink:title="Test_CalcParamSizes">
<polygon fill="white" stroke="black" points="146,-685 146,-704 261,-704 261,-685 146,-685"/>
<text text-anchor="middle" x="203.5" y="-692" font-family="Helvetica,sans-Serif" font-size="10.00">Test_CalcParamSizes</text>
</a>
</g>
</g>
<!-- Node1&#45;&gt;Node6 -->
<g id="edge6" class="edge"><title>Node1&#45;&gt;Node6</title>
<path fill="none" stroke="midnightblue" d="M52.6835,-571.174C62.7509,-593.273 90.5281,-647.69 131,-675.5 133.893,-677.488 136.983,-679.268 140.195,-680.862"/>
<polygon fill="midnightblue" stroke="midnightblue" points="138.94,-684.132 149.509,-684.878 141.712,-677.704 138.94,-684.132"/>
</g>
<!-- Node8 -->
<g id="node8" class="node"><title>Node8</title>
<g id="a_node8"><a xlink:href="_benchmark_8cpp.html#a6047d42efd0ce75ebd8486a5604c31a8" target="_top" xlink:title="Test_GenerateGroupParams">
<polygon fill="white" stroke="black" points="131,-533 131,-552 276,-552 276,-533 131,-533"/>
<text text-anchor="middle" x="203.5" y="-540" font-family="Helvetica,sans-Serif" font-size="10.00">Test_GenerateGroupParams</text>
</a>
</g>
</g>
<!-- Node1&#45;&gt;Node8 -->
<g id="edge8" class="edge"><title>Node1&#45;&gt;Node8</title>
<path fill="none" stroke="midnightblue" d="M95.123,-555.748C103.292,-554.74 112.004,-553.665 120.798,-552.58"/>
<polygon fill="midnightblue" stroke="midnightblue" points="121.241,-556.052 130.737,-551.354 120.384,-549.105 121.241,-556.052"/>
</g>
<!-- Node21 -->
<g id="node21" class="node"><title>Node21</title>
<g id="a_node21"><a xlink:href="_benchmark_8cpp.html#a11ed377b48c45c1a71fb9fead2494516" target="_top" xlink:title="Test_ParamGen">
<polygon fill="white" stroke="black" points="158.5,-464 158.5,-483 248.5,-483 248.5,-464 158.5,-464"/>
<text text-anchor="middle" x="203.5" y="-471" font-family="Helvetica,sans-Serif" font-size="10.00">Test_ParamGen</text>
</a>
</g>
</g>
<!-- Node1&#45;&gt;Node21 -->
<g id="edge26" class="edge"><title>Node1&#45;&gt;Node21</title>
<path fill="none" stroke="midnightblue" d="M65.2739,-551.915C92.2356,-536.508 145.389,-506.135 177.046,-488.045"/>
<polygon fill="midnightblue" stroke="midnightblue" points="178.801,-491.074 185.747,-483.073 175.328,-484.996 178.801,-491.074"/>
</g>
<!-- Node25 -->
<g id="node25" class="node"><title>Node25</title>
<g id="a_node25"><a xlink:href="_benchmark_8cpp.html#a5ff6a5df003f416b1260dfdbfd7693be" target="_top" xlink:title="Test_MintCoin">
<polygon fill="white" stroke="black" points="340,-312 340,-331 421,-331 421,-312 340,-312"/>
<text text-anchor="middle" x="380.5" y="-319" font-family="Helvetica,sans-Serif" font-size="10.00">Test_MintCoin</text>
</a>
</g>
</g>
<!-- Node1&#45;&gt;Node25 -->
<g id="edge31" class="edge"><title>Node1&#45;&gt;Node25</title>
<path fill="none" stroke="midnightblue" d="M54.4062,-551.764C66.8106,-531.846 97.2305,-485.699 131,-454.5 201.535,-389.334 223.484,-373.737 312,-336.5 317.737,-334.087 323.918,-332.036 330.129,-330.299"/>
<polygon fill="midnightblue" stroke="midnightblue" points="331.027,-333.682 339.853,-327.822 329.299,-326.899 331.027,-333.682"/>
</g>
<!-- Node26 -->
<g id="node26" class="node"><title>Node26</title>
<g id="a_node26"><a xlink:href="_benchmark_8cpp.html#a8223c6bd6d6bbaa0b3973dca9eaebd65" target="_top" xlink:title="Test_Accumulator">
<polygon fill="white" stroke="black" points="155,-94 155,-113 252,-113 252,-94 155,-94"/>
<text text-anchor="middle" x="203.5" y="-101" font-family="Helvetica,sans-Serif" font-size="10.00">Test_Accumulator</text>
</a>
</g>
</g>
<!-- Node1&#45;&gt;Node26 -->
<g id="edge35" class="edge"><title>Node1&#45;&gt;Node26</title>
<path fill="none" stroke="midnightblue" d="M50.6341,-551.852C59.0377,-514.375 91.3355,-375.066 131,-264.5 149.938,-211.71 178.433,-151.937 193.075,-122.273"/>
<polygon fill="midnightblue" stroke="midnightblue" points="196.319,-123.609 197.638,-113.097 190.052,-120.492 196.319,-123.609"/>
</g>
<!-- Node31 -->
<g id="node31" class="node"><title>Node31</title>
<g id="a_node31"><a xlink:href="_benchmark_8cpp.html#ad4c256613fa000fd3d3ec247021a6522" target="_top" xlink:title="Test_MintAndSpend">
<polygon fill="white" stroke="black" points="150,-274 150,-293 257,-293 257,-274 150,-274"/>
<text text-anchor="middle" x="203.5" y="-281" font-family="Helvetica,sans-Serif" font-size="10.00">Test_MintAndSpend</text>
</a>
</g>
</g>
<!-- Node1&#45;&gt;Node31 -->
<g id="edge41" class="edge"><title>Node1&#45;&gt;Node31</title>
<path fill="none" stroke="midnightblue" d="M51.2738,-551.945C60.0713,-522.497 89.2518,-431.106 131,-364.5 146.27,-340.138 168.887,-315.911 184.579,-300.391"/>
<polygon fill="midnightblue" stroke="midnightblue" points="187.339,-302.59 192.078,-293.114 182.464,-297.566 187.339,-302.59"/>
</g>
<!-- Node5&#45;&gt;Node3 -->
<g id="edge5" class="edge"><title>Node5&#45;&gt;Node3</title>
<path fill="none" stroke="midnightblue" d="M263.259,-624.88C283.299,-627.055 305.602,-629.477 325.269,-631.612"/>
<polygon fill="midnightblue" stroke="midnightblue" points="324.969,-635.1 335.288,-632.7 325.724,-628.141 324.969,-635.1"/>
</g>
<!-- Node7 -->
<g id="node7" class="node"><title>Node7</title>
<g id="a_node7"><a xlink:href="namespacelibzerocoin.html#af84d8d406285f665c4e8c60443a57c97" target="_top" xlink:title="Calculate field/group parameter sizes based on a security level. ">
<polygon fill="white" stroke="black" points="312,-679.5 312,-709.5 449,-709.5 449,-679.5 312,-679.5"/>
<text text-anchor="start" x="320" y="-697.5" font-family="Helvetica,sans-Serif" font-size="10.00">libzerocoin::calculateGroup</text>
<text text-anchor="middle" x="380.5" y="-686.5" font-family="Helvetica,sans-Serif" font-size="10.00">ParamLengths</text>
</a>
</g>
</g>
<!-- Node6&#45;&gt;Node7 -->
<g id="edge7" class="edge"><title>Node6&#45;&gt;Node7</title>
<path fill="none" stroke="midnightblue" d="M261.317,-694.5C274.201,-694.5 288.101,-694.5 301.686,-694.5"/>
<polygon fill="midnightblue" stroke="midnightblue" points="301.991,-698 311.991,-694.5 301.991,-691 301.991,-698"/>
</g>
<!-- Node8&#45;&gt;Node3 -->
<g id="edge24" class="edge"><title>Node8&#45;&gt;Node3</title>
<path fill="none" stroke="midnightblue" d="M246.585,-552.038C256.789,-555.551 267.265,-560.257 276,-566.5 297.407,-581.799 290.729,-598.011 312,-613.5 317.674,-617.632 324.127,-621.109 330.74,-624.018"/>
<polygon fill="midnightblue" stroke="midnightblue" points="329.885,-627.444 340.471,-627.885 332.47,-620.939 329.885,-627.444"/>
</g>
<!-- Node9 -->
<g id="node9" class="node"><title>Node9</title>
<g id="a_node9"><a xlink:href="namespacelibzerocoin.html#a104c1a4d313174893b0de7595bfa7baa" target="_top" xlink:title="Deterministically compute a set of group parameters using NIST procedures. ">
<polygon fill="white" stroke="black" points="316.5,-540.5 316.5,-570.5 444.5,-570.5 444.5,-540.5 316.5,-540.5"/>
<text text-anchor="start" x="324.5" y="-558.5" font-family="Helvetica,sans-Serif" font-size="10.00">libzerocoin::deriveInteger</text>
<text text-anchor="middle" x="380.5" y="-547.5" font-family="Helvetica,sans-Serif" font-size="10.00">GroupParams</text>
</a>
</g>
</g>
<!-- Node8&#45;&gt;Node9 -->
<g id="edge9" class="edge"><title>Node8&#45;&gt;Node9</title>
<path fill="none" stroke="midnightblue" d="M276.184,-547.825C286.062,-548.559 296.218,-549.313 306.126,-550.049"/>
<polygon fill="midnightblue" stroke="midnightblue" points="306.108,-553.558 316.339,-550.808 306.626,-546.577 306.108,-553.558"/>
</g>
<!-- Node16 -->
<g id="node16" class="node"><title>Node16</title>
<g id="a_node16"><a xlink:href="classlibzerocoin_1_1_integer_group_params.html#a2cdf226388cc4594b1df1572af5e8e1d" target="_top" xlink:title="libzerocoin::IntegerGroup\lParams::g">
<polygon fill="white" stroke="black" points="495.5,-403.5 495.5,-433.5 624.5,-433.5 624.5,-403.5 495.5,-403.5"/>
<text text-anchor="start" x="503.5" y="-421.5" font-family="Helvetica,sans-Serif" font-size="10.00">libzerocoin::IntegerGroup</text>
<text text-anchor="middle" x="560" y="-410.5" font-family="Helvetica,sans-Serif" font-size="10.00">Params::g</text>
</a>
</g>
</g>
<!-- Node8&#45;&gt;Node16 -->
<g id="edge25" class="edge"><title>Node8&#45;&gt;Node16</title>
<path fill="none" stroke="midnightblue" d="M276.244,-533.536C326.789,-525.068 394.834,-509.217 449,-480.5 467.914,-470.473 466.816,-459.797 485,-448.5 491.315,-444.577 498.231,-440.981 505.219,-437.748"/>
<polygon fill="midnightblue" stroke="midnightblue" points="506.995,-440.791 514.744,-433.566 504.181,-434.381 506.995,-440.791"/>
</g>
<!-- Node20 -->
<g id="node20" class="node"><title>Node20</title>
<g id="a_node20"><a xlink:href="namespacelibzerocoin.html#a42d9c5db1be9bd308b0729f8018bfb62" target="_top" xlink:title="Format a seed string by hashing several values. ">
<polygon fill="white" stroke="black" points="878.5,-590 878.5,-609 1011.5,-609 1011.5,-590 878.5,-590"/>
<text text-anchor="middle" x="945" y="-597" font-family="Helvetica,sans-Serif" font-size="10.00">libzerocoin::calculateSeed</text>
</a>
</g>
</g>
<!-- Node8&#45;&gt;Node20 -->
<g id="edge22" class="edge"><title>Node8&#45;&gt;Node20</title>
<path fill="none" stroke="midnightblue" d="M230.984,-552.08C260.098,-562.536 303.846,-578.003 312,-579.5 510.027,-615.854 748.694,-610.384 868.13,-604.358"/>
<polygon fill="midnightblue" stroke="midnightblue" points="868.461,-607.845 878.265,-603.83 868.097,-600.855 868.461,-607.845"/>
</g>
<!-- Node10 -->
<g id="node10" class="node"><title>Node10</title>
<g id="a_node10"><a xlink:href="namespacelibzerocoin.html#a133fd00db4441ee2c63f1c6be324c867" target="_top" xlink:title="Deterministically compute a group description using NIST procedures. ">
<polygon fill="white" stroke="black" points="491.5,-540.5 491.5,-570.5 628.5,-570.5 628.5,-540.5 491.5,-540.5"/>
<text text-anchor="start" x="499.5" y="-558.5" font-family="Helvetica,sans-Serif" font-size="10.00">libzerocoin::calculateGroup</text>
<text text-anchor="middle" x="560" y="-547.5" font-family="Helvetica,sans-Serif" font-size="10.00">ModulusAndOrder</text>
</a>
</g>
</g>
<!-- Node9&#45;&gt;Node10 -->
<g id="edge10" class="edge"><title>Node9&#45;&gt;Node10</title>
<path fill="none" stroke="midnightblue" d="M444.58,-555.5C456.413,-555.5 468.912,-555.5 481.131,-555.5"/>
<polygon fill="midnightblue" stroke="midnightblue" points="481.309,-559 491.309,-555.5 481.309,-552 481.309,-559"/>
</g>
<!-- Node9&#45;&gt;Node16 -->
<g id="edge17" class="edge"><title>Node9&#45;&gt;Node16</title>
<path fill="none" stroke="midnightblue" d="M427.52,-540.428C435.32,-536.44 442.867,-531.517 449,-525.5 475.967,-499.044 457.599,-474.507 485,-448.5 489.022,-444.683 493.594,-441.326 498.445,-438.379"/>
<polygon fill="midnightblue" stroke="midnightblue" points="500.303,-441.353 507.422,-433.506 496.963,-435.201 500.303,-441.353"/>
</g>
<!-- Node17 -->
<g id="node17" class="node"><title>Node17</title>
<g id="a_node17"><a xlink:href="namespacelibzerocoin.html#a75a628181a2a566d229108b51bf0cf57" target="_top" xlink:title="Deterministically compute a generator for a given group. ">
<polygon fill="white" stroke="black" points="876.5,-272.5 876.5,-302.5 1013.5,-302.5 1013.5,-272.5 876.5,-272.5"/>
<text text-anchor="start" x="884.5" y="-290.5" font-family="Helvetica,sans-Serif" font-size="10.00">libzerocoin::calculateGroup</text>
<text text-anchor="middle" x="945" y="-279.5" font-family="Helvetica,sans-Serif" font-size="10.00">Generator</text>
</a>
</g>
</g>
<!-- Node9&#45;&gt;Node17 -->
<g id="edge18" class="edge"><title>Node9&#45;&gt;Node17</title>
<path fill="none" stroke="midnightblue" d="M412.508,-540.343C424.374,-533.961 437.751,-526.035 449,-517.5 467.026,-503.823 465.362,-492.741 485,-481.5 544.782,-447.28 569.042,-462.359 635,-442.5 726.786,-414.864 755.134,-418.921 839,-372.5 870.158,-355.254 901.295,-328.562 921.473,-309.697"/>
<polygon fill="midnightblue" stroke="midnightblue" points="924.064,-312.064 928.904,-302.639 919.243,-306.988 924.064,-312.064"/>
</g>
<!-- Node19 -->
<g id="node19" class="node"><title>Node19</title>
<g id="a_node19"><a xlink:href="classlibzerocoin_1_1_integer_group_params.html#a5e7c9d164b62a40be2a791e6f015f755" target="_top" xlink:title="libzerocoin::IntegerGroup\lParams::h">
<polygon fill="white" stroke="black" points="495.5,-491.5 495.5,-521.5 624.5,-521.5 624.5,-491.5 495.5,-491.5"/>
<text text-anchor="start" x="503.5" y="-509.5" font-family="Helvetica,sans-Serif" font-size="10.00">libzerocoin::IntegerGroup</text>
<text text-anchor="middle" x="560" y="-498.5" font-family="Helvetica,sans-Serif" font-size="10.00">Params::h</text>
</a>
</g>
</g>
<!-- Node9&#45;&gt;Node19 -->
<g id="edge21" class="edge"><title>Node9&#45;&gt;Node19</title>
<path fill="none" stroke="midnightblue" d="M436.204,-540.399C454.68,-535.298 475.477,-529.557 494.631,-524.27"/>
<polygon fill="midnightblue" stroke="midnightblue" points="495.768,-527.586 504.476,-521.552 493.906,-520.839 495.768,-527.586"/>
</g>
<!-- Node11 -->
<g id="node11" class="node"><title>Node11</title>
<g id="a_node11"><a xlink:href="namespacelibzerocoin.html#a1393d4b16af3b390446af86aea45c7ae" target="_top" xlink:title="Deterministically compute a random prime number. ">
<polygon fill="white" stroke="black" points="681.5,-540.5 681.5,-570.5 828.5,-570.5 828.5,-540.5 681.5,-540.5"/>
<text text-anchor="start" x="689.5" y="-558.5" font-family="Helvetica,sans-Serif" font-size="10.00">libzerocoin::generateRandom</text>
<text text-anchor="middle" x="755" y="-547.5" font-family="Helvetica,sans-Serif" font-size="10.00">Prime</text>
</a>
</g>
</g>
<!-- Node10&#45;&gt;Node11 -->
<g id="edge11" class="edge"><title>Node10&#45;&gt;Node11</title>
<path fill="none" stroke="midnightblue" d="M628.502,-555.5C642.235,-555.5 656.832,-555.5 671.03,-555.5"/>
<polygon fill="midnightblue" stroke="midnightblue" points="671.28,-559 681.28,-555.5 671.28,-552 671.28,-559"/>
</g>
<!-- Node12 -->
<g id="node12" class="node"><title>Node12</title>
<g id="a_node12"><a xlink:href="namespacelibzerocoin.html#a7ce8281b4f89cff21bd6ce8fc3088585" target="_top" xlink:title="libzerocoin::generateInteger\lFromSeed">
<polygon fill="white" stroke="black" points="875,-491.5 875,-521.5 1015,-521.5 1015,-491.5 875,-491.5"/>
<text text-anchor="start" x="883" y="-509.5" font-family="Helvetica,sans-Serif" font-size="10.00">libzerocoin::generateInteger</text>
<text text-anchor="middle" x="945" y="-498.5" font-family="Helvetica,sans-Serif" font-size="10.00">FromSeed</text>
</a>
</g>
</g>
<!-- Node10&#45;&gt;Node12 -->
<g id="edge16" class="edge"><title>Node10&#45;&gt;Node12</title>
<path fill="none" stroke="midnightblue" d="M620.373,-540.456C636.695,-536.745 654.458,-533.095 671,-530.5 735.802,-520.336 809.983,-514.159 864.647,-510.622"/>
<polygon fill="midnightblue" stroke="midnightblue" points="865.206,-514.094 874.966,-509.971 864.765,-507.108 865.206,-514.094"/>
</g>
<!-- Node11&#45;&gt;Node12 -->
<g id="edge12" class="edge"><title>Node11&#45;&gt;Node12</title>
<path fill="none" stroke="midnightblue" d="M813.684,-540.465C833.534,-535.292 855.937,-529.452 876.499,-524.093"/>
<polygon fill="midnightblue" stroke="midnightblue" points="877.631,-527.415 886.425,-521.506 875.866,-520.642 877.631,-527.415"/>
</g>
<!-- Node15 -->
<g id="node15" class="node"><title>Node15</title>
<g id="a_node15"><a xlink:href="namespacelibzerocoin.html#aeda115c7208be9405f951779ec131494" target="_top" xlink:title="Determines whether a uint32_t is a prime through trial division. ">
<polygon fill="white" stroke="black" points="881.5,-540.5 881.5,-570.5 1008.5,-570.5 1008.5,-540.5 881.5,-540.5"/>
<text text-anchor="start" x="889.5" y="-558.5" font-family="Helvetica,sans-Serif" font-size="10.00">libzerocoin::primalityTest</text>
<text text-anchor="middle" x="945" y="-547.5" font-family="Helvetica,sans-Serif" font-size="10.00">ByTrialDivision</text>
</a>
</g>
</g>
<!-- Node11&#45;&gt;Node15 -->
<g id="edge15" class="edge"><title>Node11&#45;&gt;Node15</title>
<path fill="none" stroke="midnightblue" d="M828.686,-555.5C842.654,-555.5 857.285,-555.5 871.256,-555.5"/>
<polygon fill="midnightblue" stroke="midnightblue" points="871.293,-559 881.293,-555.5 871.293,-552 871.293,-559"/>
</g>
<!-- Node13 -->
<g id="node13" class="node"><title>Node13</title>
<g id="a_node13"><a xlink:href="namespacelibzerocoin.html#a2ab9735f14a3fdcdf18e0fd410a6e701" target="_top" xlink:title="libzerocoin::calculateHash">
<polygon fill="white" stroke="black" points="1073.5,-398 1073.5,-417 1206.5,-417 1206.5,-398 1073.5,-398"/>
<text text-anchor="middle" x="1140" y="-405" font-family="Helvetica,sans-Serif" font-size="10.00">libzerocoin::calculateHash</text>
</a>
</g>
</g>
<!-- Node12&#45;&gt;Node13 -->
<g id="edge13" class="edge"><title>Node12&#45;&gt;Node13</title>
<path fill="none" stroke="midnightblue" d="M975.313,-491.464C1012.19,-472.546 1075.07,-440.294 1111.21,-421.753"/>
<polygon fill="midnightblue" stroke="midnightblue" points="1112.93,-424.808 1120.23,-417.13 1109.73,-418.58 1112.93,-424.808"/>
</g>
<!-- Node14 -->
<g id="node14" class="node"><title>Node14</title>
<g id="a_node14"><a xlink:href="class_c_hash_writer.html#ae94a937211502eabf19477630090093a" target="_top" xlink:title="CHashWriter::GetHash">
<polygon fill="white" stroke="black" points="1265,-256 1265,-275 1384,-275 1384,-256 1265,-256"/>
<text text-anchor="middle" x="1324.5" y="-263" font-family="Helvetica,sans-Serif" font-size="10.00">CHashWriter::GetHash</text>
</a>
</g>
</g>
<!-- Node13&#45;&gt;Node14 -->
<g id="edge14" class="edge"><title>Node13&#45;&gt;Node14</title>
<path fill="none" stroke="midnightblue" d="M1153.26,-397.962C1184.02,-374.028 1264.74,-311.223 1302.92,-281.513"/>
<polygon fill="midnightblue" stroke="midnightblue" points="1305.07,-284.275 1310.81,-275.372 1300.77,-278.75 1305.07,-284.275"/>
</g>
<!-- Node18 -->
<g id="node18" class="node"><title>Node18</title>
<g id="a_node18"><a xlink:href="namespacelibzerocoin.html#a49d954a2ad7e4abe50ae454c900d915a" target="_top" xlink:title="Format a seed string by hashing several values. ">
<polygon fill="white" stroke="black" points="1051,-275 1051,-294 1229,-294 1229,-275 1051,-275"/>
<text text-anchor="middle" x="1140" y="-282" font-family="Helvetica,sans-Serif" font-size="10.00">libzerocoin::calculateGeneratorSeed</text>
</a>
</g>
</g>
<!-- Node17&#45;&gt;Node18 -->
<g id="edge19" class="edge"><title>Node17&#45;&gt;Node18</title>
<path fill="none" stroke="midnightblue" d="M1013.5,-286.451C1022.36,-286.313 1031.58,-286.17 1040.82,-286.026"/>
<polygon fill="midnightblue" stroke="midnightblue" points="1040.9,-289.525 1050.84,-285.87 1040.79,-282.526 1040.9,-289.525"/>
</g>
<!-- Node18&#45;&gt;Node14 -->
<g id="edge20" class="edge"><title>Node18&#45;&gt;Node14</title>
<path fill="none" stroke="midnightblue" d="M1229.04,-275.334C1237.66,-274.437 1246.32,-273.535 1254.71,-272.662"/>
<polygon fill="midnightblue" stroke="midnightblue" points="1255.2,-276.13 1264.78,-271.613 1254.47,-269.168 1255.2,-276.13"/>
</g>
<!-- Node20&#45;&gt;Node14 -->
<g id="edge23" class="edge"><title>Node20&#45;&gt;Node14</title>
<path fill="none" stroke="midnightblue" d="M987.353,-589.984C996.673,-587.168 1006.36,-583.689 1015,-579.5 1120.21,-528.496 1150.12,-512.807 1229,-426.5 1269.86,-381.791 1301.42,-316.563 1315.49,-284.597"/>
<polygon fill="midnightblue" stroke="midnightblue" points="1318.83,-285.678 1319.58,-275.109 1312.4,-282.909 1318.83,-285.678"/>
</g>
<!-- Node21&#45;&gt;Node3 -->
<g id="edge28" class="edge"><title>Node21&#45;&gt;Node3</title>
<path fill="none" stroke="midnightblue" d="M222.108,-483.157C237.533,-492.2 259.935,-506.797 276,-523.5 296.511,-544.825 292.576,-557.18 312,-579.5 325.776,-595.329 343.933,-610.687 357.945,-621.619"/>
<polygon fill="midnightblue" stroke="midnightblue" points="355.987,-624.527 366.058,-627.818 360.237,-618.965 355.987,-624.527"/>
</g>
<!-- Node22 -->
<g id="node22" class="node"><title>Node22</title>
<g id="a_node22"><a xlink:href="class_timer.html#adcc2a315e6a05332a9f6eeef3fad706b" target="_top" xlink:title="Timer::start">
<polygon fill="white" stroke="black" points="526.5,-289 526.5,-308 593.5,-308 593.5,-289 526.5,-289"/>
<text text-anchor="middle" x="560" y="-296" font-family="Helvetica,sans-Serif" font-size="10.00">Timer::start</text>
</a>
</g>
</g>
<!-- Node21&#45;&gt;Node22 -->
<g id="edge27" class="edge"><title>Node21&#45;&gt;Node22</title>
<path fill="none" stroke="midnightblue" d="M211.949,-463.799C227.949,-443.668 267.761,-397.257 312,-373.5 367.177,-343.869 391.373,-365.031 449,-340.5 466.47,-333.063 467.586,-325.067 485,-317.5 494.864,-313.214 505.904,-309.736 516.384,-306.986"/>
<polygon fill="midnightblue" stroke="midnightblue" points="517.331,-310.357 526.205,-304.569 515.658,-303.56 517.331,-310.357"/>
</g>
<!-- Node23 -->
<g id="node23" class="node"><title>Node23</title>
<g id="a_node23"><a xlink:href="class_timer.html#a2e08b7392107f224dc5bbc8e1dcfa124" target="_top" xlink:title="Timer::stop">
<polygon fill="white" stroke="black" points="526.5,-365 526.5,-384 593.5,-384 593.5,-365 526.5,-365"/>
<text text-anchor="middle" x="560" y="-372" font-family="Helvetica,sans-Serif" font-size="10.00">Timer::stop</text>
</a>
</g>
</g>
<!-- Node21&#45;&gt;Node23 -->
<g id="edge29" class="edge"><title>Node21&#45;&gt;Node23</title>
<path fill="none" stroke="midnightblue" d="M248.712,-480.094C300.643,-485.511 387.498,-487.093 449,-449.5 474.245,-434.069 461.012,-410.821 485,-393.5 494.139,-386.901 505.365,-382.59 516.286,-379.774"/>
<polygon fill="midnightblue" stroke="midnightblue" points="517.154,-383.166 526.16,-377.586 515.64,-376.332 517.154,-383.166"/>
</g>
<!-- Node24 -->
<g id="node24" class="node"><title>Node24</title>
<g id="a_node24"><a xlink:href="class_timer.html#a5c57119ca6ae8138b1b4b576685b4ab5" target="_top" xlink:title="Timer::duration">
<polygon fill="white" stroke="black" points="518,-327 518,-346 602,-346 602,-327 518,-327"/>
<text text-anchor="middle" x="560" y="-334" font-family="Helvetica,sans-Serif" font-size="10.00">Timer::duration</text>
</a>
</g>
</g>
<!-- Node21&#45;&gt;Node24 -->
<g id="edge30" class="edge"><title>Node21&#45;&gt;Node24</title>
<path fill="none" stroke="midnightblue" d="M229.756,-463.896C274.417,-446.752 370.067,-409.313 449,-373.5 465.29,-366.109 468.242,-361.76 485,-355.5 492.339,-352.759 500.23,-350.271 508.028,-348.066"/>
<polygon fill="midnightblue" stroke="midnightblue" points="509.066,-351.411 517.808,-345.426 507.241,-344.653 509.066,-351.411"/>
</g>
<!-- Node25&#45;&gt;Node22 -->
<g id="edge32" class="edge"><title>Node25&#45;&gt;Node22</title>
<path fill="none" stroke="midnightblue" d="M421.334,-316.338C449.555,-312.682 487.371,-307.782 516.228,-304.042"/>
<polygon fill="midnightblue" stroke="midnightblue" points="516.952,-307.478 526.42,-302.722 516.053,-300.536 516.952,-307.478"/>
</g>
<!-- Node25&#45;&gt;Node23 -->
<g id="edge33" class="edge"><title>Node25&#45;&gt;Node23</title>
<path fill="none" stroke="midnightblue" d="M409.021,-331.09C429.787,-338.193 459.04,-347.912 485,-355.5 495.227,-358.489 506.322,-361.473 516.733,-364.161"/>
<polygon fill="midnightblue" stroke="midnightblue" points="515.9,-367.56 526.454,-366.638 517.628,-360.777 515.9,-367.56"/>
</g>
<!-- Node25&#45;&gt;Node24 -->
<g id="edge34" class="edge"><title>Node25&#45;&gt;Node24</title>
<path fill="none" stroke="midnightblue" d="M421.334,-324.866C446.803,-327.019 480.086,-329.831 507.547,-332.152"/>
<polygon fill="midnightblue" stroke="midnightblue" points="507.498,-335.66 517.758,-333.015 508.088,-328.685 507.498,-335.66"/>
</g>
<!-- Node27 -->
<g id="node27" class="node"><title>Node27</title>
<g id="a_node27"><a xlink:href="classlibzerocoin_1_1_private_coin.html#a11f0047e01af467bba8d9fde58f88798" target="_top" xlink:title="libzerocoin::PrivateCoin\l::getPublicCoin">
<polygon fill="white" stroke="black" points="319.5,-137.5 319.5,-167.5 441.5,-167.5 441.5,-137.5 319.5,-137.5"/>
<text text-anchor="start" x="327.5" y="-155.5" font-family="Helvetica,sans-Serif" font-size="10.00">libzerocoin::PrivateCoin</text>
<text text-anchor="middle" x="380.5" y="-144.5" font-family="Helvetica,sans-Serif" font-size="10.00">::getPublicCoin</text>
</a>
</g>
</g>
<!-- Node26&#45;&gt;Node27 -->
<g id="edge36" class="edge"><title>Node26&#45;&gt;Node27</title>
<path fill="none" stroke="midnightblue" d="M238.657,-113.064C260.619,-119.213 289.831,-127.393 315.957,-134.708"/>
<polygon fill="midnightblue" stroke="midnightblue" points="315.223,-138.137 325.797,-137.463 317.111,-131.396 315.223,-138.137"/>
</g>
<!-- Node28 -->
<g id="node28" class="node"><title>Node28</title>
<g id="a_node28"><a xlink:href="classlibzerocoin_1_1_accumulator.html#ab50983cc6294ddfa7e23a85a75f5fc2e" target="_top" xlink:title="Get the accumulator result. ">
<polygon fill="white" stroke="black" points="692.5,-44.5 692.5,-74.5 817.5,-74.5 817.5,-44.5 692.5,-44.5"/>
<text text-anchor="start" x="700.5" y="-62.5" font-family="Helvetica,sans-Serif" font-size="10.00">libzerocoin::Accumulator</text>
<text text-anchor="middle" x="755" y="-51.5" font-family="Helvetica,sans-Serif" font-size="10.00">::getValue</text>
</a>
</g>
</g>
<!-- Node26&#45;&gt;Node28 -->
<g id="edge37" class="edge"><title>Node26&#45;&gt;Node28</title>
<path fill="none" stroke="midnightblue" d="M238.092,-93.9946C259.142,-88.4622 286.94,-81.9224 312,-78.5 441.568,-60.8052 594.298,-58.2429 682.07,-58.5115"/>
<polygon fill="midnightblue" stroke="midnightblue" points="682.17,-62.0119 692.185,-58.556 682.201,-55.012 682.17,-62.0119"/>
</g>
<!-- Node29 -->
<g id="node29" class="node"><title>Node29</title>
<g id="a_node29"><a xlink:href="classlibzerocoin_1_1_accumulator_witness.html#a479f3a94be8a7976eefb6a9b86840b1a" target="_top" xlink:title="libzerocoin::Accumulator\lWitness::getValue">
<polygon fill="white" stroke="black" points="318,-0.5 318,-30.5 443,-30.5 443,-0.5 318,-0.5"/>
<text text-anchor="start" x="326" y="-18.5" font-family="Helvetica,sans-Serif" font-size="10.00">libzerocoin::Accumulator</text>
<text text-anchor="middle" x="380.5" y="-7.5" font-family="Helvetica,sans-Serif" font-size="10.00">Witness::getValue</text>
</a>
</g>
</g>
<!-- Node26&#45;&gt;Node29 -->
<g id="edge38" class="edge"><title>Node26&#45;&gt;Node29</title>
<path fill="none" stroke="midnightblue" d="M221.419,-93.8503C242.42,-81.9936 279.45,-61.4849 312,-45.5 319.365,-41.883 327.265,-38.2 334.973,-34.7099"/>
<polygon fill="midnightblue" stroke="midnightblue" points="336.533,-37.8463 344.23,-30.5658 333.673,-31.4572 336.533,-37.8463"/>
</g>
<!-- Node30 -->
<g id="node30" class="node"><title>Node30</title>
<g id="a_node30"><a xlink:href="classlibzerocoin_1_1_accumulator_witness.html#a62539f46936225e0af0cdb072c3e04dc" target="_top" xlink:title="Checks that this is a witness to the accumulation of coin. ">
<polygon fill="white" stroke="black" points="318,-88.5 318,-118.5 443,-118.5 443,-88.5 318,-88.5"/>
<text text-anchor="start" x="326" y="-106.5" font-family="Helvetica,sans-Serif" font-size="10.00">libzerocoin::Accumulator</text>
<text text-anchor="middle" x="380.5" y="-95.5" font-family="Helvetica,sans-Serif" font-size="10.00">Witness::VerifyWitness</text>
</a>
</g>
</g>
<!-- Node26&#45;&gt;Node30 -->
<g id="edge40" class="edge"><title>Node26&#45;&gt;Node30</title>
<path fill="none" stroke="midnightblue" d="M252.32,-103.5C269.397,-103.5 289.033,-103.5 307.686,-103.5"/>
<polygon fill="midnightblue" stroke="midnightblue" points="307.925,-107 317.925,-103.5 307.925,-100 307.925,-107"/>
</g>
<!-- Node29&#45;&gt;Node28 -->
<g id="edge39" class="edge"><title>Node29&#45;&gt;Node28</title>
<path fill="none" stroke="midnightblue" d="M443.011,-22.7657C508.794,-30.536 613,-42.8449 682.417,-51.0446"/>
<polygon fill="midnightblue" stroke="midnightblue" points="682.056,-54.5262 692.398,-52.2235 682.877,-47.5745 682.056,-54.5262"/>
</g>
<!-- Node31&#45;&gt;Node22 -->
<g id="edge43" class="edge"><title>Node31&#45;&gt;Node22</title>
<path fill="none" stroke="midnightblue" d="M257.166,-274.858C306.82,-268.039 383.223,-260.975 449,-269.5 452.541,-269.959 487.2,-279.158 516.68,-287.073"/>
<polygon fill="midnightblue" stroke="midnightblue" points="515.861,-290.478 526.427,-289.694 517.679,-283.718 515.861,-290.478"/>
</g>
<!-- Node31&#45;&gt;Node23 -->
<g id="edge45" class="edge"><title>Node31&#45;&gt;Node23</title>
<path fill="none" stroke="midnightblue" d="M218.728,-293.154C238.649,-306.164 276.417,-329.017 312,-340.5 381.226,-362.84 466.001,-370.502 516.081,-373.129"/>
<polygon fill="midnightblue" stroke="midnightblue" points="516.067,-376.632 526.223,-373.617 516.403,-369.64 516.067,-376.632"/>
</g>
<!-- Node31&#45;&gt;Node24 -->
<g id="edge46" class="edge"><title>Node31&#45;&gt;Node24</title>
<path fill="none" stroke="midnightblue" d="M257.236,-282.814C307.267,-283.28 384.218,-286.909 449,-302.5 465.852,-306.556 468.563,-311.997 485,-317.5 492.429,-319.987 500.369,-322.338 508.188,-324.483"/>
<polygon fill="midnightblue" stroke="midnightblue" points="507.418,-327.9 517.981,-327.085 509.215,-321.134 507.418,-327.9"/>
</g>
<!-- Node31&#45;&gt;Node25 -->
<g id="edge42" class="edge"><title>Node31&#45;&gt;Node25</title>
<path fill="none" stroke="midnightblue" d="M248.66,-293.089C273.421,-298.466 304.376,-305.187 329.96,-310.743"/>
<polygon fill="midnightblue" stroke="midnightblue" points="329.323,-314.186 339.838,-312.888 330.808,-307.345 329.323,-314.186"/>
</g>
<!-- Node31&#45;&gt;Node27 -->
<g id="edge44" class="edge"><title>Node31&#45;&gt;Node27</title>
<path fill="none" stroke="midnightblue" d="M211.761,-273.792C227.706,-253.104 267.891,-204.298 312,-176.5 314.599,-174.862 317.326,-173.316 320.13,-171.861"/>
<polygon fill="midnightblue" stroke="midnightblue" points="321.757,-174.963 329.293,-167.516 318.758,-168.638 321.757,-174.963"/>
</g>
<!-- Node32 -->
<g id="node32" class="node"><title>Node32</title>
<g id="a_node32"><a xlink:href="classlibzerocoin_1_1_coin_spend.html#a9048dabc1be9ef65aeefb41e92e2f53c" target="_top" xlink:title="libzerocoin::CoinSpend\l::Verify">
<polygon fill="white" stroke="black" points="321,-186.5 321,-216.5 440,-216.5 440,-186.5 321,-186.5"/>
<text text-anchor="start" x="329" y="-204.5" font-family="Helvetica,sans-Serif" font-size="10.00">libzerocoin::CoinSpend</text>
<text text-anchor="middle" x="380.5" y="-193.5" font-family="Helvetica,sans-Serif" font-size="10.00">::Verify</text>
</a>
</g>
</g>
<!-- Node31&#45;&gt;Node32 -->
<g id="edge47" class="edge"><title>Node31&#45;&gt;Node32</title>
<path fill="none" stroke="midnightblue" d="M223.83,-273.917C245.281,-263.337 280.969,-245.896 312,-231.5 319.692,-227.931 327.914,-224.205 335.879,-220.64"/>
<polygon fill="midnightblue" stroke="midnightblue" points="337.354,-223.814 345.064,-216.548 334.505,-217.42 337.354,-223.814"/>
</g>
<!-- Node33 -->
<g id="node33" class="node"><title>Node33</title>
<g id="a_node33"><a xlink:href="classlibzerocoin_1_1_commitment_proof_of_knowledge.html#a846cfaed719d7d1513e899f4af124948" target="_top" xlink:title="Verifies the proof. ">
<polygon fill="white" stroke="black" points="485,-141.5 485,-171.5 635,-171.5 635,-141.5 485,-141.5"/>
<text text-anchor="start" x="493" y="-159.5" font-family="Helvetica,sans-Serif" font-size="10.00">libzerocoin::CommitmentProof</text>
<text text-anchor="middle" x="560" y="-148.5" font-family="Helvetica,sans-Serif" font-size="10.00">OfKnowledge::Verify</text>
</a>
</g>
</g>
<!-- Node32&#45;&gt;Node33 -->
<g id="edge48" class="edge"><title>Node32&#45;&gt;Node33</title>
<path fill="none" stroke="midnightblue" d="M440.112,-186.641C455.917,-182.634 473.169,-178.26 489.506,-174.118"/>
<polygon fill="midnightblue" stroke="midnightblue" points="490.706,-177.425 499.539,-171.575 488.986,-170.639 490.706,-177.425"/>
</g>
<!-- Node35 -->
<g id="node35" class="node"><title>Node35</title>
<g id="a_node35"><a xlink:href="classlibzerocoin_1_1_accumulator_proof_of_knowledge.html#a65468d15a28daaa82e6d6275459c95ab" target="_top" xlink:title="Verifies that a commitment c is accumulated in accumulated a. ">
<polygon fill="white" stroke="black" points="494,-92.5 494,-122.5 626,-122.5 626,-92.5 494,-92.5"/>
<text text-anchor="start" x="502" y="-110.5" font-family="Helvetica,sans-Serif" font-size="10.00">libzerocoin::Accumulator</text>
<text text-anchor="middle" x="560" y="-99.5" font-family="Helvetica,sans-Serif" font-size="10.00">ProofOfKnowledge::Verify</text>
</a>
</g>
</g>
<!-- Node32&#45;&gt;Node35 -->
<g id="edge51" class="edge"><title>Node32&#45;&gt;Node35</title>
<path fill="none" stroke="midnightblue" d="M431.74,-186.422C437.818,-183.594 443.732,-180.304 449,-176.5 469.765,-161.506 463.931,-146.064 485,-131.5 487.139,-130.022 489.374,-128.63 491.68,-127.32"/>
<polygon fill="midnightblue" stroke="midnightblue" points="493.527,-130.308 500.864,-122.665 490.362,-124.064 493.527,-130.308"/>
</g>
<!-- Node36 -->
<g id="node36" class="node"><title>Node36</title>
<g id="a_node36"><a xlink:href="classlibzerocoin_1_1_serial_number_signature_of_knowledge.html#a570a8d439385cc3b18701c4a252ff104" target="_top" xlink:title="Verifies the Signature of knowledge. ">
<polygon fill="white" stroke="black" points="485,-239.5 485,-269.5 635,-269.5 635,-239.5 485,-239.5"/>
<text text-anchor="start" x="493" y="-257.5" font-family="Helvetica,sans-Serif" font-size="10.00">libzerocoin::SerialNumber</text>
<text text-anchor="middle" x="560" y="-246.5" font-family="Helvetica,sans-Serif" font-size="10.00">SignatureOfKnowledge::Verify</text>
</a>
</g>
</g>
<!-- Node32&#45;&gt;Node36 -->
<g id="edge54" class="edge"><title>Node32&#45;&gt;Node36</title>
<path fill="none" stroke="midnightblue" d="M431.89,-216.546C452.688,-222.756 476.966,-230.005 498.7,-236.495"/>
<polygon fill="midnightblue" stroke="midnightblue" points="497.901,-239.909 508.484,-239.416 499.904,-233.202 497.901,-239.909"/>
</g>
<!-- Node39 -->
<g id="node39" class="node"><title>Node39</title>
<g id="a_node39"><a xlink:href="classlibzerocoin_1_1_accumulator.html#aa12b4aae357d55d3f4c3ba75856a6071" target="_top" xlink:title="libzerocoin::Accumulator\l::getDenomination">
<polygon fill="white" stroke="black" points="497.5,-190.5 497.5,-220.5 622.5,-220.5 622.5,-190.5 497.5,-190.5"/>
<text text-anchor="start" x="505.5" y="-208.5" font-family="Helvetica,sans-Serif" font-size="10.00">libzerocoin::Accumulator</text>
<text text-anchor="middle" x="560" y="-197.5" font-family="Helvetica,sans-Serif" font-size="10.00">::getDenomination</text>
</a>
</g>
</g>
<!-- Node32&#45;&gt;Node39 -->
<g id="edge59" class="edge"><title>Node32&#45;&gt;Node39</title>
<path fill="none" stroke="midnightblue" d="M440.112,-202.821C455.188,-203.161 471.581,-203.53 487.24,-203.883"/>
<polygon fill="midnightblue" stroke="midnightblue" points="487.327,-207.386 497.404,-204.112 487.485,-200.387 487.327,-207.386"/>
</g>
<!-- Node34 -->
<g id="node34" class="node"><title>Node34</title>
<g id="a_node34"><a xlink:href="classlibzerocoin_1_1_commitment_proof_of_knowledge.html#a928e409111b60d5fe222ea1559a9cb73" target="_top" xlink:title="libzerocoin::CommitmentProof\lOfKnowledge::calculateChallenge">
<polygon fill="white" stroke="black" points="1056.5,-172.5 1056.5,-202.5 1223.5,-202.5 1223.5,-172.5 1056.5,-172.5"/>
<text text-anchor="start" x="1064.5" y="-190.5" font-family="Helvetica,sans-Serif" font-size="10.00">libzerocoin::CommitmentProof</text>
<text text-anchor="middle" x="1140" y="-179.5" font-family="Helvetica,sans-Serif" font-size="10.00">OfKnowledge::calculateChallenge</text>
</a>
</g>
</g>
<!-- Node33&#45;&gt;Node34 -->
<g id="edge49" class="edge"><title>Node33&#45;&gt;Node34</title>
<path fill="none" stroke="midnightblue" d="M635.085,-160.473C740.057,-166.103 931.996,-176.398 1046.29,-182.527"/>
<polygon fill="midnightblue" stroke="midnightblue" points="1046.24,-186.03 1056.42,-183.071 1046.62,-179.04 1046.24,-186.03"/>
</g>
<!-- Node34&#45;&gt;Node14 -->
<g id="edge50" class="edge"><title>Node34&#45;&gt;Node14</title>
<path fill="none" stroke="midnightblue" d="M1176.19,-202.539C1209.6,-216.822 1259.4,-238.104 1291.66,-251.893"/>
<polygon fill="midnightblue" stroke="midnightblue" points="1290.51,-255.204 1301.08,-255.916 1293.26,-248.768 1290.51,-255.204"/>
</g>
<!-- Node35&#45;&gt;Node14 -->
<g id="edge52" class="edge"><title>Node35&#45;&gt;Node14</title>
<path fill="none" stroke="midnightblue" d="M626.291,-97.8519C750.766,-82.5859 1027.55,-63.8754 1229,-162.5 1267.48,-181.341 1297.83,-223.188 1312.97,-247.344"/>
<polygon fill="midnightblue" stroke="midnightblue" points="1309.99,-249.195 1318.17,-255.934 1315.98,-245.568 1309.99,-249.195"/>
</g>
<!-- Node35&#45;&gt;Node28 -->
<g id="edge53" class="edge"><title>Node35&#45;&gt;Node28</title>
<path fill="none" stroke="midnightblue" d="M621.537,-92.4442C641.297,-87.5297 663.406,-82.0313 683.814,-76.9557"/>
<polygon fill="midnightblue" stroke="midnightblue" points="684.818,-80.3125 693.678,-74.5024 683.129,-73.5194 684.818,-80.3125"/>
</g>
<!-- Node36&#45;&gt;Node14 -->
<g id="edge58" class="edge"><title>Node36&#45;&gt;Node14</title>
<path fill="none" stroke="midnightblue" d="M635.152,-255.57C782.746,-257.699 1111.38,-262.44 1254.58,-264.506"/>
<polygon fill="midnightblue" stroke="midnightblue" points="1254.92,-268.011 1264.97,-264.656 1255.03,-261.012 1254.92,-268.011"/>
</g>
<!-- Node37 -->
<g id="node37" class="node"><title>Node37</title>
<g id="a_node37"><a xlink:href="namespacelibzerocoin.html#a860d36a6fac4250ebf4c5dad71602091" target="_top" xlink:title="Deterministically derives coin commitment group generators g &amp; h from a serial number (and group modu...">
<polygon fill="white" stroke="black" points="681.5,-272.5 681.5,-302.5 828.5,-302.5 828.5,-272.5 681.5,-272.5"/>
<text text-anchor="start" x="689.5" y="-290.5" font-family="Helvetica,sans-Serif" font-size="10.00">libzerocoin::deriveGenerators</text>
<text text-anchor="middle" x="755" y="-279.5" font-family="Helvetica,sans-Serif" font-size="10.00">FromSerialNumber</text>
</a>
</g>
</g>
<!-- Node36&#45;&gt;Node37 -->
<g id="edge55" class="edge"><title>Node36&#45;&gt;Node37</title>
<path fill="none" stroke="midnightblue" d="M635.067,-267.164C646.943,-269.195 659.299,-271.308 671.36,-273.37"/>
<polygon fill="midnightblue" stroke="midnightblue" points="670.958,-276.852 681.404,-275.087 672.137,-269.952 670.958,-276.852"/>
</g>
<!-- Node38 -->
<g id="node38" class="node"><title>Node38</title>
<g id="a_node38"><a xlink:href="classlibzerocoin_1_1_serial_number_signature_of_knowledge.html#acff43e9b20208f24d0dfa870fc5a78c2" target="_top" xlink:title="libzerocoin::SerialNumber\lSignatureOfKnowledge::challenge\lCalculation">
<polygon fill="white" stroke="black" points="671,-322 671,-363 839,-363 839,-322 671,-322"/>
<text text-anchor="start" x="679" y="-351" font-family="Helvetica,sans-Serif" font-size="10.00">libzerocoin::SerialNumber</text>
<text text-anchor="start" x="679" y="-340" font-family="Helvetica,sans-Serif" font-size="10.00">SignatureOfKnowledge::challenge</text>
<text text-anchor="middle" x="755" y="-329" font-family="Helvetica,sans-Serif" font-size="10.00">Calculation</text>
</a>
</g>
</g>
<!-- Node36&#45;&gt;Node38 -->
<g id="edge57" class="edge"><title>Node36&#45;&gt;Node38</title>
<path fill="none" stroke="midnightblue" d="M614.293,-269.606C621.457,-272.464 628.551,-275.754 635,-279.5 653.511,-290.252 652.661,-300.456 671,-311.5 674.558,-313.643 678.288,-315.678 682.116,-317.605"/>
<polygon fill="midnightblue" stroke="midnightblue" points="680.651,-320.784 691.186,-321.904 683.649,-314.458 680.651,-320.784"/>
</g>
<!-- Node37&#45;&gt;Node17 -->
<g id="edge56" class="edge"><title>Node37&#45;&gt;Node17</title>
<path fill="none" stroke="midnightblue" d="M828.686,-287.5C840.956,-287.5 853.737,-287.5 866.133,-287.5"/>
<polygon fill="midnightblue" stroke="midnightblue" points="866.435,-291 876.435,-287.5 866.435,-284 866.435,-291"/>
</g>
</g>
</svg>
