<?xml version="1.0" encoding="UTF-8" standalone="no"?>
<!DOCTYPE svg PUBLIC "-//W3C//DTD SVG 1.1//EN"
 "http://www.w3.org/Graphics/SVG/1.1/DTD/svg11.dtd">
<!-- Generated by graphviz version 2.38.0 (20140413.2041)
 -->
<!-- Title: src/zerocoin/SerialNumberSignatureOfKnowledge.cpp Pages: 1 -->
<svg width="1508pt" height="498pt"
 viewBox="0.00 0.00 1508.00 498.00" xmlns="http://www.w3.org/2000/svg" xmlns:xlink="http://www.w3.org/1999/xlink">
<g id="graph0" class="graph" transform="scale(1 1) rotate(0) translate(4 494)">
<title>src/zerocoin/SerialNumberSignatureOfKnowledge.cpp</title>
<polygon fill="white" stroke="none" points="-4,4 -4,-494 1504,-494 1504,4 -4,4"/>
<!-- Node1 -->
<g id="node1" class="node"><title>Node1</title>
<polygon fill="#bfbfbf" stroke="black" points="942,-459.5 942,-489.5 1080,-489.5 1080,-459.5 942,-459.5"/>
<text text-anchor="start" x="950" y="-477.5" font-family="Helvetica,sans-Serif" font-size="10.00">src/zerocoin/SerialNumber</text>
<text text-anchor="middle" x="1011" y="-466.5" font-family="Helvetica,sans-Serif" font-size="10.00">SignatureOfKnowledge.cpp</text>
</g>
<!-- Node2 -->
<g id="node2" class="node"><title>Node2</title>
<g id="a_node2"><a xlink:href="_zerocoin_8h.html" target="_top" xlink:title="Exceptions and constants for Zerocoin. ">
<polygon fill="white" stroke="black" points="979,-403.5 979,-422.5 1043,-422.5 1043,-403.5 979,-403.5"/>
<text text-anchor="middle" x="1011" y="-410.5" font-family="Helvetica,sans-Serif" font-size="10.00">Zerocoin.h</text>
</a>
</g>
</g>
<!-- Node1&#45;&gt;Node2 -->
<g id="edge1" class="edge"><title>Node1&#45;&gt;Node2</title>
<path fill="none" stroke="midnightblue" d="M1011,-459.399C1011,-451.466 1011,-441.458 1011,-432.858"/>
<polygon fill="midnightblue" stroke="midnightblue" points="1014.5,-432.658 1011,-422.658 1007.5,-432.658 1014.5,-432.658"/>
</g>
<!-- Node3 -->
<g id="node3" class="node"><title>Node3</title>
<polygon fill="white" stroke="#bfbfbf" points="1265.5,-123.5 1265.5,-142.5 1324.5,-142.5 1324.5,-123.5 1265.5,-123.5"/>
<text text-anchor="middle" x="1295" y="-130.5" font-family="Helvetica,sans-Serif" font-size="10.00">stdexcept</text>
</g>
<!-- Node2&#45;&gt;Node3 -->
<g id="edge2" class="edge"><title>Node2&#45;&gt;Node3</title>
<path fill="none" stroke="midnightblue" d="M1043.31,-409.027C1131.19,-400.057 1368,-369.611 1368,-302 1368,-302 1368,-302 1368,-244 1368,-204.776 1335.38,-168.836 1313.75,-149.318"/>
<polygon fill="midnightblue" stroke="midnightblue" points="1315.93,-146.581 1306.09,-142.67 1311.35,-151.868 1315.93,-146.581"/>
</g>
<!-- Node4 -->
<g id="node4" class="node"><title>Node4</title>
<g id="a_node4"><a xlink:href="serialize_8h.html" target="_top" xlink:title="serialize.h">
<polygon fill="white" stroke="black" points="508,-123.5 508,-142.5 570,-142.5 570,-123.5 508,-123.5"/>
<text text-anchor="middle" x="539" y="-130.5" font-family="Helvetica,sans-Serif" font-size="10.00">serialize.h</text>
</a>
</g>
</g>
<!-- Node2&#45;&gt;Node4 -->
<g id="edge3" class="edge"><title>Node2&#45;&gt;Node4</title>
<path fill="none" stroke="midnightblue" d="M978.799,-411.214C907.612,-408.904 731.851,-400.038 589,-367 506.538,-347.929 410,-386.638 410,-302 410,-302 410,-302 410,-244 410,-194.346 466.022,-162.365 504.229,-146.328"/>
<polygon fill="midnightblue" stroke="midnightblue" points="505.542,-149.572 513.514,-142.593 502.93,-143.078 505.542,-149.572"/>
</g>
<!-- Node22 -->
<g id="node22" class="node"><title>Node22</title>
<g id="a_node22"><a xlink:href="bignum_8h.html" target="_top" xlink:title="bignum.h">
<polygon fill="white" stroke="black" points="1064,-179.5 1064,-198.5 1122,-198.5 1122,-179.5 1064,-179.5"/>
<text text-anchor="middle" x="1093" y="-186.5" font-family="Helvetica,sans-Serif" font-size="10.00">bignum.h</text>
</a>
</g>
</g>
<!-- Node2&#45;&gt;Node22 -->
<g id="edge24" class="edge"><title>Node2&#45;&gt;Node22</title>
<path fill="none" stroke="midnightblue" d="M1043.04,-408.619C1097.2,-402.409 1203.99,-387.88 1235,-367 1259.74,-350.339 1263.41,-339.569 1272,-311 1291.86,-244.917 1190.75,-211.327 1132.27,-197.654"/>
<polygon fill="midnightblue" stroke="midnightblue" points="1132.76,-194.177 1122.23,-195.404 1131.22,-201.007 1132.76,-194.177"/>
</g>
<!-- Node27 -->
<g id="node27" class="node"><title>Node27</title>
<g id="a_node27"><a xlink:href="hash_8h.html" target="_top" xlink:title="hash.h">
<polygon fill="white" stroke="black" points="699.5,-179.5 699.5,-198.5 746.5,-198.5 746.5,-179.5 699.5,-179.5"/>
<text text-anchor="middle" x="723" y="-186.5" font-family="Helvetica,sans-Serif" font-size="10.00">hash.h</text>
</a>
</g>
</g>
<!-- Node2&#45;&gt;Node27 -->
<g id="edge37" class="edge"><title>Node2&#45;&gt;Node27</title>
<path fill="none" stroke="midnightblue" d="M978.879,-410.449C898.944,-406.234 692.997,-393.094 630,-367 592.87,-351.62 583.205,-343.083 559,-311 537.746,-282.828 514.159,-262.72 536,-235 554.724,-211.236 640.632,-198.568 689.234,-193.194"/>
<polygon fill="midnightblue" stroke="midnightblue" points="689.713,-196.663 699.288,-192.127 688.975,-189.702 689.713,-196.663"/>
</g>
<!-- Node30 -->
<g id="node30" class="node"><title>Node30</title>
<g id="a_node30"><a xlink:href="_params_8h.html" target="_top" xlink:title="Parameter classes for Zerocoin. ">
<polygon fill="white" stroke="black" points="814.5,-179.5 814.5,-198.5 873.5,-198.5 873.5,-179.5 814.5,-179.5"/>
<text text-anchor="middle" x="844" y="-186.5" font-family="Helvetica,sans-Serif" font-size="10.00">Params.h</text>
</a>
</g>
</g>
<!-- Node2&#45;&gt;Node30 -->
<g id="edge44" class="edge"><title>Node2&#45;&gt;Node30</title>
<path fill="none" stroke="midnightblue" d="M978.58,-412.935C917.65,-413.555 782.925,-409.484 680,-367 607.303,-336.993 575.218,-326.745 543,-255 539.359,-246.891 537.198,-241.734 543,-235 551.468,-225.171 724.158,-203.932 804.067,-194.579"/>
<polygon fill="midnightblue" stroke="midnightblue" points="804.718,-198.027 814.246,-193.393 803.908,-191.074 804.718,-198.027"/>
</g>
<!-- Node31 -->
<g id="node31" class="node"><title>Node31</title>
<g id="a_node31"><a xlink:href="_coin_8h.html" target="_top" xlink:title="PublicCoin and PrivateCoin classes for the Zerocoin library. ">
<polygon fill="white" stroke="black" points="1024.5,-235.5 1024.5,-254.5 1069.5,-254.5 1069.5,-235.5 1024.5,-235.5"/>
<text text-anchor="middle" x="1047" y="-242.5" font-family="Helvetica,sans-Serif" font-size="10.00">Coin.h</text>
</a>
</g>
</g>
<!-- Node2&#45;&gt;Node31 -->
<g id="edge45" class="edge"><title>Node2&#45;&gt;Node31</title>
<path fill="none" stroke="midnightblue" d="M1043.25,-408.299C1094.26,-400.515 1192.17,-377.289 1235,-311 1288.81,-227.709 1299.2,-308.963 1079.64,-255.021"/>
<polygon fill="midnightblue" stroke="midnightblue" points="1080.24,-251.565 1069.69,-252.525 1078.54,-258.354 1080.24,-251.565"/>
</g>
<!-- Node32 -->
<g id="node32" class="node"><title>Node32</title>
<g id="a_node32"><a xlink:href="_commitment_8h.html" target="_top" xlink:title="Commitment and CommitmentProof classes for the Zerocoin library. ">
<polygon fill="white" stroke="black" points="552,-235.5 552,-254.5 634,-254.5 634,-235.5 552,-235.5"/>
<text text-anchor="middle" x="593" y="-242.5" font-family="Helvetica,sans-Serif" font-size="10.00">Commitment.h</text>
</a>
</g>
</g>
<!-- Node2&#45;&gt;Node32 -->
<g id="edge48" class="edge"><title>Node2&#45;&gt;Node32</title>
<path fill="none" stroke="midnightblue" d="M978.966,-412.066C907.611,-410.576 733.435,-397.663 626,-311 611.4,-299.223 602.644,-279.294 597.859,-264.601"/>
<polygon fill="midnightblue" stroke="midnightblue" points="601.104,-263.226 594.943,-254.607 594.384,-265.187 601.104,-263.226"/>
</g>
<!-- Node33 -->
<g id="node33" class="node"><title>Node33</title>
<g id="a_node33"><a xlink:href="_accumulator_8h.html" target="_top" xlink:title="Accumulator and AccumulatorWitness classes for the Zerocoin library. ">
<polygon fill="white" stroke="black" points="1088,-235.5 1088,-254.5 1168,-254.5 1168,-235.5 1088,-235.5"/>
<text text-anchor="middle" x="1128" y="-242.5" font-family="Helvetica,sans-Serif" font-size="10.00">Accumulator.h</text>
</a>
</g>
</g>
<!-- Node2&#45;&gt;Node33 -->
<g id="edge51" class="edge"><title>Node2&#45;&gt;Node33</title>
<path fill="none" stroke="midnightblue" d="M1043.01,-411.549C1101.47,-408.693 1222.56,-392.761 1256,-311 1270.69,-275.09 1220.18,-258.818 1178.34,-251.579"/>
<polygon fill="midnightblue" stroke="midnightblue" points="1178.64,-248.082 1168.21,-249.967 1177.54,-254.995 1178.64,-248.082"/>
</g>
<!-- Node34 -->
<g id="node34" class="node"><title>Node34</title>
<g id="a_node34"><a xlink:href="_accumulator_proof_of_knowledge_8h.html" target="_top" xlink:title="AccumulatorProofOfKnowledge class for the Zerocoin library. ">
<polygon fill="white" stroke="black" points="1062,-291.5 1062,-310.5 1226,-310.5 1226,-291.5 1062,-291.5"/>
<text text-anchor="middle" x="1144" y="-298.5" font-family="Helvetica,sans-Serif" font-size="10.00">AccumulatorProofOfKnowledge.h</text>
</a>
</g>
</g>
<!-- Node2&#45;&gt;Node34 -->
<g id="edge52" class="edge"><title>Node2&#45;&gt;Node34</title>
<path fill="none" stroke="midnightblue" d="M1021.44,-403.368C1043.97,-384.733 1097.41,-340.532 1125.7,-317.134"/>
<polygon fill="midnightblue" stroke="midnightblue" points="1128.14,-319.662 1133.61,-310.591 1123.68,-314.268 1128.14,-319.662"/>
</g>
<!-- Node35 -->
<g id="node35" class="node"><title>Node35</title>
<g id="a_node35"><a xlink:href="_coin_spend_8h.html" target="_top" xlink:title="CoinSpend class for the Zerocoin library. ">
<polygon fill="white" stroke="black" points="902,-347.5 902,-366.5 976,-366.5 976,-347.5 902,-347.5"/>
<text text-anchor="middle" x="939" y="-354.5" font-family="Helvetica,sans-Serif" font-size="10.00">CoinSpend.h</text>
</a>
</g>
</g>
<!-- Node2&#45;&gt;Node35 -->
<g id="edge53" class="edge"><title>Node2&#45;&gt;Node35</title>
<path fill="none" stroke="midnightblue" d="M999.432,-403.324C988.58,-395.185 972.119,-382.839 959.117,-373.087"/>
<polygon fill="midnightblue" stroke="midnightblue" points="960.879,-370.034 950.779,-366.834 956.679,-375.634 960.879,-370.034"/>
</g>
<!-- Node36 -->
<g id="node36" class="node"><title>Node36</title>
<g id="a_node36"><a xlink:href="_serial_number_signature_of_knowledge_8h.html" target="_top" xlink:title="SerialNumberSignatureOfKnowledge class for the Zerocoin library. ">
<polygon fill="white" stroke="black" points="664.5,-291.5 664.5,-310.5 853.5,-310.5 853.5,-291.5 664.5,-291.5"/>
<text text-anchor="middle" x="759" y="-298.5" font-family="Helvetica,sans-Serif" font-size="10.00">SerialNumberSignatureOfKnowledge.h</text>
</a>
</g>
</g>
<!-- Node2&#45;&gt;Node36 -->
<g id="edge75" class="edge"><title>Node2&#45;&gt;Node36</title>
<path fill="none" stroke="midnightblue" d="M986.797,-403.471C962.769,-394.841 925,-380.831 893,-367 854.74,-350.463 811.531,-328.978 784.776,-315.335"/>
<polygon fill="midnightblue" stroke="midnightblue" points="786.199,-312.131 775.703,-310.687 783.007,-318.361 786.199,-312.131"/>
</g>
<!-- Node40 -->
<g id="node40" class="node"><title>Node40</title>
<g id="a_node40"><a xlink:href="_param_generation_8h.html" target="_top" xlink:title="Parameter generation routines for Zerocoin. ">
<polygon fill="white" stroke="black" points="1396,-347.5 1396,-366.5 1500,-366.5 1500,-347.5 1396,-347.5"/>
<text text-anchor="middle" x="1448" y="-354.5" font-family="Helvetica,sans-Serif" font-size="10.00">ParamGeneration.h</text>
</a>
</g>
</g>
<!-- Node2&#45;&gt;Node40 -->
<g id="edge76" class="edge"><title>Node2&#45;&gt;Node40</title>
<path fill="none" stroke="midnightblue" d="M1043.28,-408.248C1107.71,-400.723 1256.84,-383.123 1382,-367 1383.26,-366.838 1384.53,-366.673 1385.81,-366.506"/>
<polygon fill="midnightblue" stroke="midnightblue" points="1386.31,-369.971 1395.77,-365.195 1385.4,-363.03 1386.31,-369.971"/>
</g>
<!-- Node5 -->
<g id="node5" class="node"><title>Node5</title>
<g id="a_node5"><a xlink:href="allocators_8h.html" target="_top" xlink:title="allocators.h">
<polygon fill="white" stroke="black" points="149,-62 149,-81 217,-81 217,-62 149,-62"/>
<text text-anchor="middle" x="183" y="-69" font-family="Helvetica,sans-Serif" font-size="10.00">allocators.h</text>
</a>
</g>
</g>
<!-- Node4&#45;&gt;Node5 -->
<g id="edge4" class="edge"><title>Node4&#45;&gt;Node5</title>
<path fill="none" stroke="midnightblue" d="M507.682,-128.976C451.697,-123.228 330.955,-109.27 231,-87 226.89,-86.0842 222.619,-84.9967 218.395,-83.8352"/>
<polygon fill="midnightblue" stroke="midnightblue" points="219.3,-80.4537 208.721,-81.0364 217.355,-87.1779 219.3,-80.4537"/>
</g>
<!-- Node6 -->
<g id="node6" class="node"><title>Node6</title>
<polygon fill="white" stroke="#bfbfbf" points="0,-0.5 0,-19.5 36,-19.5 36,-0.5 0,-0.5"/>
<text text-anchor="middle" x="18" y="-7.5" font-family="Helvetica,sans-Serif" font-size="10.00">map</text>
</g>
<!-- Node4&#45;&gt;Node6 -->
<g id="edge15" class="edge"><title>Node4&#45;&gt;Node6</title>
<path fill="none" stroke="midnightblue" d="M507.937,-130.273C426.434,-125.459 208.063,-110.673 140,-87 99.842,-73.0329 59.0969,-43.9921 36.3349,-26.1294"/>
<polygon fill="midnightblue" stroke="midnightblue" points="38.2584,-23.1858 28.2645,-19.6683 33.8835,-28.6504 38.2584,-23.1858"/>
</g>
<!-- Node7 -->
<g id="node7" class="node"><title>Node7</title>
<polygon fill="white" stroke="#bfbfbf" points="864.5,-0.5 864.5,-19.5 905.5,-19.5 905.5,-0.5 864.5,-0.5"/>
<text text-anchor="middle" x="885" y="-7.5" font-family="Helvetica,sans-Serif" font-size="10.00">string</text>
</g>
<!-- Node4&#45;&gt;Node7 -->
<g id="edge18" class="edge"><title>Node4&#45;&gt;Node7</title>
<path fill="none" stroke="midnightblue" d="M570.385,-124.638C573.291,-124.047 576.195,-123.49 579,-123 642.318,-111.932 817.901,-129.639 866,-87 882.029,-72.7903 885.527,-47.2982 885.845,-29.7849"/>
<polygon fill="midnightblue" stroke="midnightblue" points="889.343,-29.5742 885.695,-19.6271 882.343,-29.6777 889.343,-29.5742"/>
</g>
<!-- Node8 -->
<g id="node8" class="node"><title>Node8</title>
<polygon fill="white" stroke="#bfbfbf" points="435.5,-0.5 435.5,-19.5 484.5,-19.5 484.5,-0.5 435.5,-0.5"/>
<text text-anchor="middle" x="460" y="-7.5" font-family="Helvetica,sans-Serif" font-size="10.00">string.h</text>
</g>
<!-- Node4&#45;&gt;Node8 -->
<g id="edge19" class="edge"><title>Node4&#45;&gt;Node8</title>
<path fill="none" stroke="midnightblue" d="M507.824,-131.738C442.559,-130.458 295.012,-123.499 264,-87 255.079,-76.5004 255.379,-66.7472 264,-56 308.168,-0.939082 350.535,-34.2693 424.93,-19.9333"/>
<polygon fill="midnightblue" stroke="midnightblue" points="426.124,-23.255 435.147,-17.7018 424.63,-16.4162 426.124,-23.255"/>
</g>
<!-- Node12 -->
<g id="node12" class="node"><title>Node12</title>
<polygon fill="white" stroke="#bfbfbf" points="273,-62 273,-81 331,-81 331,-62 273,-62"/>
<text text-anchor="middle" x="302" y="-69" font-family="Helvetica,sans-Serif" font-size="10.00">algorithm</text>
</g>
<!-- Node4&#45;&gt;Node12 -->
<g id="edge11" class="edge"><title>Node4&#45;&gt;Node12</title>
<path fill="none" stroke="midnightblue" d="M507.965,-126.402C468.51,-118.962 398.489,-104.674 340,-87 337.427,-86.2226 334.779,-85.3558 332.136,-84.4434"/>
<polygon fill="midnightblue" stroke="midnightblue" points="333.316,-81.1482 322.722,-81.0175 330.922,-87.7262 333.316,-81.1482"/>
</g>
<!-- Node13 -->
<g id="node13" class="node"><title>Node13</title>
<polygon fill="white" stroke="#bfbfbf" points="349,-62 349,-81 401,-81 401,-62 349,-62"/>
<text text-anchor="middle" x="375" y="-69" font-family="Helvetica,sans-Serif" font-size="10.00">assert.h</text>
</g>
<!-- Node4&#45;&gt;Node13 -->
<g id="edge12" class="edge"><title>Node4&#45;&gt;Node13</title>
<path fill="none" stroke="midnightblue" d="M513.144,-123.465C486.987,-114.717 445.462,-100.518 410,-87 408.352,-86.3718 406.666,-85.7162 404.966,-85.0457"/>
<polygon fill="midnightblue" stroke="midnightblue" points="405.863,-81.633 395.28,-81.1316 403.24,-88.1232 405.863,-81.633"/>
</g>
<!-- Node14 -->
<g id="node14" class="node"><title>Node14</title>
<polygon fill="white" stroke="#bfbfbf" points="419.5,-62 419.5,-81 458.5,-81 458.5,-62 419.5,-62"/>
<text text-anchor="middle" x="439" y="-69" font-family="Helvetica,sans-Serif" font-size="10.00">limits</text>
</g>
<!-- Node4&#45;&gt;Node14 -->
<g id="edge13" class="edge"><title>Node4&#45;&gt;Node14</title>
<path fill="none" stroke="midnightblue" d="M524.672,-123.475C508.336,-113.755 481.398,-97.7266 462.088,-86.2372"/>
<polygon fill="midnightblue" stroke="midnightblue" points="463.685,-83.1146 453.301,-81.0091 460.105,-89.1303 463.685,-83.1146"/>
</g>
<!-- Node15 -->
<g id="node15" class="node"><title>Node15</title>
<polygon fill="white" stroke="#bfbfbf" points="476.5,-62 476.5,-81 505.5,-81 505.5,-62 476.5,-62"/>
<text text-anchor="middle" x="491" y="-69" font-family="Helvetica,sans-Serif" font-size="10.00">ios</text>
</g>
<!-- Node4&#45;&gt;Node15 -->
<g id="edge14" class="edge"><title>Node4&#45;&gt;Node15</title>
<path fill="none" stroke="midnightblue" d="M532.123,-123.475C524.851,-114.462 513.205,-100.025 504.159,-88.8118"/>
<polygon fill="midnightblue" stroke="midnightblue" points="506.867,-86.5946 497.864,-81.0091 501.419,-90.9898 506.867,-86.5946"/>
</g>
<!-- Node16 -->
<g id="node16" class="node"><title>Node16</title>
<polygon fill="white" stroke="#bfbfbf" points="524,-62 524,-81 554,-81 554,-62 524,-62"/>
<text text-anchor="middle" x="539" y="-69" font-family="Helvetica,sans-Serif" font-size="10.00">set</text>
</g>
<!-- Node4&#45;&gt;Node16 -->
<g id="edge16" class="edge"><title>Node4&#45;&gt;Node16</title>
<path fill="none" stroke="midnightblue" d="M539,-123.475C539,-115.08 539,-101.981 539,-91.1631"/>
<polygon fill="midnightblue" stroke="midnightblue" points="542.5,-91.0091 539,-81.0091 535.5,-91.0091 542.5,-91.0091"/>
</g>
<!-- Node17 -->
<g id="node17" class="node"><title>Node17</title>
<polygon fill="white" stroke="#bfbfbf" points="1013.5,-62 1013.5,-81 1062.5,-81 1062.5,-62 1013.5,-62"/>
<text text-anchor="middle" x="1038" y="-69" font-family="Helvetica,sans-Serif" font-size="10.00">stdint.h</text>
</g>
<!-- Node4&#45;&gt;Node17 -->
<g id="edge17" class="edge"><title>Node4&#45;&gt;Node17</title>
<path fill="none" stroke="midnightblue" d="M570.369,-124.542C573.278,-123.971 576.188,-123.445 579,-123 749.617,-95.9847 795.089,-112.087 966,-87 978.294,-85.1954 991.662,-82.6634 1003.5,-80.2195"/>
<polygon fill="midnightblue" stroke="midnightblue" points="1004.39,-83.6088 1013.45,-78.1148 1002.95,-76.7603 1004.39,-83.6088"/>
</g>
<!-- Node18 -->
<g id="node18" class="node"><title>Node18</title>
<polygon fill="white" stroke="#bfbfbf" points="572.5,-62 572.5,-81 611.5,-81 611.5,-62 572.5,-62"/>
<text text-anchor="middle" x="592" y="-69" font-family="Helvetica,sans-Serif" font-size="10.00">utility</text>
</g>
<!-- Node4&#45;&gt;Node18 -->
<g id="edge20" class="edge"><title>Node4&#45;&gt;Node18</title>
<path fill="none" stroke="midnightblue" d="M546.594,-123.475C554.701,-114.373 567.735,-99.741 577.763,-88.483"/>
<polygon fill="midnightblue" stroke="midnightblue" points="580.383,-90.8043 584.42,-81.0091 575.156,-86.1483 580.383,-90.8043"/>
</g>
<!-- Node19 -->
<g id="node19" class="node"><title>Node19</title>
<polygon fill="white" stroke="#bfbfbf" points="913,-62 913,-81 957,-81 957,-62 913,-62"/>
<text text-anchor="middle" x="935" y="-69" font-family="Helvetica,sans-Serif" font-size="10.00">vector</text>
</g>
<!-- Node4&#45;&gt;Node19 -->
<g id="edge21" class="edge"><title>Node4&#45;&gt;Node19</title>
<path fill="none" stroke="midnightblue" d="M570.379,-124.599C573.285,-124.017 576.192,-123.472 579,-123 720.136,-99.2563 760.24,-122.057 899,-87 901.664,-86.3269 904.393,-85.5003 907.098,-84.5862"/>
<polygon fill="midnightblue" stroke="midnightblue" points="908.502,-87.7981 916.636,-81.01 906.044,-81.2437 908.502,-87.7981"/>
</g>
<!-- Node20 -->
<g id="node20" class="node"><title>Node20</title>
<polygon fill="white" stroke="#bfbfbf" points="629.5,-62 629.5,-81 738.5,-81 738.5,-62 629.5,-62"/>
<text text-anchor="middle" x="684" y="-69" font-family="Helvetica,sans-Serif" font-size="10.00">boost/tuple/tuple.hpp</text>
</g>
<!-- Node4&#45;&gt;Node20 -->
<g id="edge22" class="edge"><title>Node4&#45;&gt;Node20</title>
<path fill="none" stroke="midnightblue" d="M559.775,-123.475C584.432,-113.357 625.745,-96.4046 653.902,-84.8507"/>
<polygon fill="midnightblue" stroke="midnightblue" points="655.341,-88.0434 663.264,-81.0091 652.683,-81.5674 655.341,-88.0434"/>
</g>
<!-- Node21 -->
<g id="node21" class="node"><title>Node21</title>
<polygon fill="white" stroke="#bfbfbf" points="757,-56.5 757,-86.5 857,-86.5 857,-56.5 757,-56.5"/>
<text text-anchor="start" x="765" y="-74.5" font-family="Helvetica,sans-Serif" font-size="10.00">boost/type_traits/is</text>
<text text-anchor="middle" x="807" y="-63.5" font-family="Helvetica,sans-Serif" font-size="10.00">_fundamental.hpp</text>
</g>
<!-- Node4&#45;&gt;Node21 -->
<g id="edge23" class="edge"><title>Node4&#45;&gt;Node21</title>
<path fill="none" stroke="midnightblue" d="M570.002,-124.992C573.041,-124.314 576.08,-123.641 579,-123 653.584,-106.619 672.548,-103.97 747,-87 747.101,-86.9769 747.203,-86.9538 747.304,-86.9307"/>
<polygon fill="midnightblue" stroke="midnightblue" points="747.979,-90.367 756.933,-84.7027 746.401,-83.5472 747.979,-90.367"/>
</g>
<!-- Node5&#45;&gt;Node6 -->
<g id="edge5" class="edge"><title>Node5&#45;&gt;Node6</title>
<path fill="none" stroke="midnightblue" d="M159.36,-61.9751C129.287,-51.1308 77.4436,-32.4357 45.5942,-20.9506"/>
<polygon fill="midnightblue" stroke="midnightblue" points="46.6033,-17.594 36.0089,-17.4941 44.2287,-24.1789 46.6033,-17.594"/>
</g>
<!-- Node5&#45;&gt;Node7 -->
<g id="edge6" class="edge"><title>Node5&#45;&gt;Node7</title>
<path fill="none" stroke="midnightblue" d="M217.168,-63.564C231.571,-60.8536 248.549,-57.9373 264,-56 489.456,-27.7306 763.357,-15.5457 854.137,-12.091"/>
<polygon fill="midnightblue" stroke="midnightblue" points="854.422,-15.5829 864.284,-11.7124 854.161,-8.58773 854.422,-15.5829"/>
</g>
<!-- Node5&#45;&gt;Node8 -->
<g id="edge7" class="edge"><title>Node5&#45;&gt;Node8</title>
<path fill="none" stroke="midnightblue" d="M209.264,-61.9933C216.283,-59.8774 223.894,-57.7237 231,-56 313.637,-35.9557 338.286,-39.035 425.395,-19.9794"/>
<polygon fill="midnightblue" stroke="midnightblue" points="426.169,-23.3928 435.171,-17.806 424.65,-16.5596 426.169,-23.3928"/>
</g>
<!-- Node9 -->
<g id="node9" class="node"><title>Node9</title>
<polygon fill="white" stroke="#bfbfbf" points="54,-0.5 54,-19.5 176,-19.5 176,-0.5 54,-0.5"/>
<text text-anchor="middle" x="115" y="-7.5" font-family="Helvetica,sans-Serif" font-size="10.00">boost/thread/mutex.hpp</text>
</g>
<!-- Node5&#45;&gt;Node9 -->
<g id="edge8" class="edge"><title>Node5&#45;&gt;Node9</title>
<path fill="none" stroke="midnightblue" d="M173.257,-61.9751C162.653,-52.6966 145.481,-37.6706 132.521,-26.331"/>
<polygon fill="midnightblue" stroke="midnightblue" points="134.555,-23.4601 124.725,-19.5091 129.946,-28.7282 134.555,-23.4601"/>
</g>
<!-- Node10 -->
<g id="node10" class="node"><title>Node10</title>
<polygon fill="white" stroke="#bfbfbf" points="194,-0.5 194,-19.5 310,-19.5 310,-0.5 194,-0.5"/>
<text text-anchor="middle" x="252" y="-7.5" font-family="Helvetica,sans-Serif" font-size="10.00">boost/thread/once.hpp</text>
</g>
<!-- Node5&#45;&gt;Node10 -->
<g id="edge9" class="edge"><title>Node5&#45;&gt;Node10</title>
<path fill="none" stroke="midnightblue" d="M192.886,-61.9751C203.646,-52.6966 221.071,-37.6706 234.221,-26.331"/>
<polygon fill="midnightblue" stroke="midnightblue" points="236.845,-28.6902 242.132,-19.5091 232.273,-23.389 236.845,-28.6902"/>
</g>
<!-- Node11 -->
<g id="node11" class="node"><title>Node11</title>
<polygon fill="white" stroke="#bfbfbf" points="328.5,-0.5 328.5,-19.5 417.5,-19.5 417.5,-0.5 328.5,-0.5"/>
<text text-anchor="middle" x="373" y="-7.5" font-family="Helvetica,sans-Serif" font-size="10.00">openssl/crypto.h</text>
</g>
<!-- Node5&#45;&gt;Node11 -->
<g id="edge10" class="edge"><title>Node5&#45;&gt;Node11</title>
<path fill="none" stroke="midnightblue" d="M210.222,-61.9751C243.237,-51.6362 299.04,-34.1611 335.953,-22.6017"/>
<polygon fill="midnightblue" stroke="midnightblue" points="337.331,-25.8377 345.828,-19.5091 335.239,-19.1576 337.331,-25.8377"/>
</g>
<!-- Node22&#45;&gt;Node3 -->
<g id="edge33" class="edge"><title>Node22&#45;&gt;Node3</title>
<path fill="none" stroke="midnightblue" d="M1122.37,-180.148C1157.5,-170.757 1216.45,-154.998 1255.54,-144.55"/>
<polygon fill="midnightblue" stroke="midnightblue" points="1256.51,-147.913 1265.26,-141.95 1254.7,-141.151 1256.51,-147.913"/>
</g>
<!-- Node22&#45;&gt;Node4 -->
<g id="edge25" class="edge"><title>Node22&#45;&gt;Node4</title>
<path fill="none" stroke="midnightblue" d="M1063.7,-180.739C1060.44,-180.081 1057.16,-179.482 1054,-179 847.97,-147.604 790.184,-173.484 580.464,-143.004"/>
<polygon fill="midnightblue" stroke="midnightblue" points="580.766,-139.511 570.361,-141.51 579.742,-146.436 580.766,-139.511"/>
</g>
<!-- Node22&#45;&gt;Node17 -->
<g id="edge34" class="edge"><title>Node22&#45;&gt;Node17</title>
<path fill="none" stroke="midnightblue" d="M1108.44,-179.384C1127.98,-167.323 1157.55,-144.469 1144,-123 1128.48,-98.4153 1097.35,-85.5495 1072.82,-78.9756"/>
<polygon fill="midnightblue" stroke="midnightblue" points="1073.33,-75.4954 1062.78,-76.5276 1071.67,-82.2963 1073.33,-75.4954"/>
</g>
<!-- Node22&#45;&gt;Node19 -->
<g id="edge35" class="edge"><title>Node22&#45;&gt;Node19</title>
<path fill="none" stroke="midnightblue" d="M1064.88,-179.431C1035.13,-169.966 990.651,-154.54 977,-143 960.38,-128.951 948.641,-106.567 941.875,-90.7975"/>
<polygon fill="midnightblue" stroke="midnightblue" points="944.962,-89.0941 937.986,-81.1201 938.467,-91.704 944.962,-89.0941"/>
</g>
<!-- Node23 -->
<g id="node23" class="node"><title>Node23</title>
<g id="a_node23"><a xlink:href="uint256_8h.html" target="_top" xlink:title="uint256.h">
<polygon fill="white" stroke="black" points="986,-123.5 986,-142.5 1044,-142.5 1044,-123.5 986,-123.5"/>
<text text-anchor="middle" x="1015" y="-130.5" font-family="Helvetica,sans-Serif" font-size="10.00">uint256.h</text>
</a>
</g>
</g>
<!-- Node22&#45;&gt;Node23 -->
<g id="edge26" class="edge"><title>Node22&#45;&gt;Node23</title>
<path fill="none" stroke="midnightblue" d="M1080.47,-179.324C1068.41,-170.979 1049.97,-158.212 1035.73,-148.352"/>
<polygon fill="midnightblue" stroke="midnightblue" points="1037.72,-145.469 1027.5,-142.655 1033.73,-151.224 1037.72,-145.469"/>
</g>
<!-- Node25 -->
<g id="node25" class="node"><title>Node25</title>
<g id="a_node25"><a xlink:href="version_8h.html" target="_top" xlink:title="version.h">
<polygon fill="white" stroke="black" points="834.5,-123.5 834.5,-142.5 891.5,-142.5 891.5,-123.5 834.5,-123.5"/>
<text text-anchor="middle" x="863" y="-130.5" font-family="Helvetica,sans-Serif" font-size="10.00">version.h</text>
</a>
</g>
</g>
<!-- Node22&#45;&gt;Node25 -->
<g id="edge32" class="edge"><title>Node22&#45;&gt;Node25</title>
<path fill="none" stroke="midnightblue" d="M1063.87,-181.161C1022.63,-171.478 947.149,-153.757 901.38,-143.011"/>
<polygon fill="midnightblue" stroke="midnightblue" points="902.068,-139.577 891.533,-140.699 900.468,-146.392 902.068,-139.577"/>
</g>
<!-- Node26 -->
<g id="node26" class="node"><title>Node26</title>
<polygon fill="white" stroke="#bfbfbf" points="1062.5,-123.5 1062.5,-142.5 1135.5,-142.5 1135.5,-123.5 1062.5,-123.5"/>
<text text-anchor="middle" x="1099" y="-130.5" font-family="Helvetica,sans-Serif" font-size="10.00">openssl/bn.h</text>
</g>
<!-- Node22&#45;&gt;Node26 -->
<g id="edge36" class="edge"><title>Node22&#45;&gt;Node26</title>
<path fill="none" stroke="midnightblue" d="M1093.99,-179.083C1094.79,-171.927 1095.93,-161.635 1096.92,-152.691"/>
<polygon fill="midnightblue" stroke="midnightblue" points="1100.4,-153.076 1098.03,-142.751 1093.44,-152.303 1100.4,-153.076"/>
</g>
<!-- Node23&#45;&gt;Node7 -->
<g id="edge29" class="edge"><title>Node23&#45;&gt;Node7</title>
<path fill="none" stroke="midnightblue" d="M1032.5,-123.465C1045.79,-115.917 1063.08,-103.533 1071,-87 1076.95,-74.5756 1079.52,-66.8274 1071,-56 1051.99,-31.8483 963.316,-19.1024 915.594,-13.8905"/>
<polygon fill="midnightblue" stroke="midnightblue" points="915.827,-10.3959 905.517,-12.8356 915.098,-17.3578 915.827,-10.3959"/>
</g>
<!-- Node23&#45;&gt;Node8 -->
<g id="edge30" class="edge"><title>Node23&#45;&gt;Node8</title>
<path fill="none" stroke="midnightblue" d="M1012.18,-123.047C1006.46,-106.543 991.8,-71.5854 966,-56 925.819,-31.7273 602.477,-16.7027 494.766,-12.3325"/>
<polygon fill="midnightblue" stroke="midnightblue" points="494.874,-8.83412 484.742,-11.9314 494.594,-15.8285 494.874,-8.83412"/>
</g>
<!-- Node23&#45;&gt;Node17 -->
<g id="edge27" class="edge"><title>Node23&#45;&gt;Node17</title>
<path fill="none" stroke="midnightblue" d="M1018.3,-123.475C1021.61,-114.904 1026.82,-101.427 1031.05,-90.483"/>
<polygon fill="midnightblue" stroke="midnightblue" points="1034.37,-91.5984 1034.71,-81.0091 1027.84,-89.0745 1034.37,-91.5984"/>
</g>
<!-- Node23&#45;&gt;Node19 -->
<g id="edge31" class="edge"><title>Node23&#45;&gt;Node19</title>
<path fill="none" stroke="midnightblue" d="M1003.54,-123.475C990.825,-114.02 970.087,-98.5961 954.747,-87.1871"/>
<polygon fill="midnightblue" stroke="midnightblue" points="956.554,-84.1686 946.441,-81.0091 952.376,-89.7854 956.554,-84.1686"/>
</g>
<!-- Node24 -->
<g id="node24" class="node"><title>Node24</title>
<polygon fill="white" stroke="#bfbfbf" points="1119,-62 1119,-81 1165,-81 1165,-62 1119,-62"/>
<text text-anchor="middle" x="1142" y="-69" font-family="Helvetica,sans-Serif" font-size="10.00">stdio.h</text>
</g>
<!-- Node23&#45;&gt;Node24 -->
<g id="edge28" class="edge"><title>Node23&#45;&gt;Node24</title>
<path fill="none" stroke="midnightblue" d="M1033.2,-123.475C1054.51,-113.49 1090.03,-96.8476 1114.66,-85.3075"/>
<polygon fill="midnightblue" stroke="midnightblue" points="1116.27,-88.4211 1123.84,-81.0091 1113.3,-82.0822 1116.27,-88.4211"/>
</g>
<!-- Node27&#45;&gt;Node4 -->
<g id="edge38" class="edge"><title>Node27&#45;&gt;Node4</title>
<path fill="none" stroke="midnightblue" d="M699.322,-181.051C668.625,-172.042 614.679,-156.21 577.918,-145.422"/>
<polygon fill="midnightblue" stroke="midnightblue" points="578.62,-141.98 568.04,-142.522 576.649,-148.697 578.62,-141.98"/>
</g>
<!-- Node27&#45;&gt;Node19 -->
<g id="edge41" class="edge"><title>Node27&#45;&gt;Node19</title>
<path fill="none" stroke="midnightblue" d="M735.229,-179.43C754.045,-166.424 791.441,-141.284 825,-123 851.2,-108.725 882.176,-94.7498 904.57,-85.1332"/>
<polygon fill="midnightblue" stroke="midnightblue" points="906.072,-88.2979 913.905,-81.1635 903.332,-81.8562 906.072,-88.2979"/>
</g>
<!-- Node27&#45;&gt;Node23 -->
<g id="edge39" class="edge"><title>Node27&#45;&gt;Node23</title>
<path fill="none" stroke="midnightblue" d="M746.896,-183.581C797.111,-174.294 914.02,-152.674 975.538,-141.298"/>
<polygon fill="midnightblue" stroke="midnightblue" points="976.439,-144.691 985.635,-139.43 975.166,-137.807 976.439,-144.691"/>
</g>
<!-- Node27&#45;&gt;Node25 -->
<g id="edge40" class="edge"><title>Node27&#45;&gt;Node25</title>
<path fill="none" stroke="midnightblue" d="M745.183,-179.444C768.428,-170.478 805.149,-156.314 831.415,-146.183"/>
<polygon fill="midnightblue" stroke="midnightblue" points="832.85,-149.381 840.92,-142.516 830.331,-142.85 832.85,-149.381"/>
</g>
<!-- Node28 -->
<g id="node28" class="node"><title>Node28</title>
<polygon fill="white" stroke="#bfbfbf" points="684.5,-123.5 684.5,-142.5 777.5,-142.5 777.5,-123.5 684.5,-123.5"/>
<text text-anchor="middle" x="731" y="-130.5" font-family="Helvetica,sans-Serif" font-size="10.00">openssl/ripemd.h</text>
</g>
<!-- Node27&#45;&gt;Node28 -->
<g id="edge42" class="edge"><title>Node27&#45;&gt;Node28</title>
<path fill="none" stroke="midnightblue" d="M724.321,-179.083C725.381,-171.927 726.906,-161.635 728.231,-152.691"/>
<polygon fill="midnightblue" stroke="midnightblue" points="731.7,-153.156 729.704,-142.751 724.776,-152.13 731.7,-153.156"/>
</g>
<!-- Node29 -->
<g id="node29" class="node"><title>Node29</title>
<polygon fill="white" stroke="#bfbfbf" points="588,-123.5 588,-142.5 666,-142.5 666,-123.5 588,-123.5"/>
<text text-anchor="middle" x="627" y="-130.5" font-family="Helvetica,sans-Serif" font-size="10.00">openssl/sha.h</text>
</g>
<!-- Node27&#45;&gt;Node29 -->
<g id="edge43" class="edge"><title>Node27&#45;&gt;Node29</title>
<path fill="none" stroke="midnightblue" d="M707.576,-179.324C692.46,-170.822 669.185,-157.729 651.529,-147.797"/>
<polygon fill="midnightblue" stroke="midnightblue" points="652.817,-144.507 642.386,-142.655 649.386,-150.608 652.817,-144.507"/>
</g>
<!-- Node31&#45;&gt;Node22 -->
<g id="edge46" class="edge"><title>Node31&#45;&gt;Node22</title>
<path fill="none" stroke="midnightblue" d="M1054.6,-235.083C1061.23,-227.298 1071.02,-215.801 1079.06,-206.367"/>
<polygon fill="midnightblue" stroke="midnightblue" points="1081.73,-208.633 1085.55,-198.751 1076.4,-204.094 1081.73,-208.633"/>
</g>
<!-- Node31&#45;&gt;Node30 -->
<g id="edge47" class="edge"><title>Node31&#45;&gt;Node30</title>
<path fill="none" stroke="midnightblue" d="M1024.5,-238.015C990.549,-228.984 925.739,-211.743 883.722,-200.566"/>
<polygon fill="midnightblue" stroke="midnightblue" points="884.388,-197.122 873.824,-197.933 882.588,-203.887 884.388,-197.122"/>
</g>
<!-- Node32&#45;&gt;Node4 -->
<g id="edge50" class="edge"><title>Node32&#45;&gt;Node4</title>
<path fill="none" stroke="midnightblue" d="M588.763,-235.368C579.93,-217.376 559.397,-175.55 547.653,-151.627"/>
<polygon fill="midnightblue" stroke="midnightblue" points="550.766,-150.026 543.218,-142.591 544.483,-153.11 550.766,-150.026"/>
</g>
<!-- Node32&#45;&gt;Node30 -->
<g id="edge49" class="edge"><title>Node32&#45;&gt;Node30</title>
<path fill="none" stroke="midnightblue" d="M632.772,-235.444C679.778,-225.331 757.519,-208.606 804.435,-198.512"/>
<polygon fill="midnightblue" stroke="midnightblue" points="805.2,-201.928 814.24,-196.403 803.727,-195.084 805.2,-201.928"/>
</g>
<!-- Node35&#45;&gt;Node4 -->
<g id="edge74" class="edge"><title>Node35&#45;&gt;Node4</title>
<path fill="none" stroke="midnightblue" d="M901.993,-355.971C842.019,-354.776 720.757,-347.553 626,-311 584.482,-294.984 564.535,-293.942 543,-255 525.094,-222.621 529.923,-177.556 534.686,-152.563"/>
<polygon fill="midnightblue" stroke="midnightblue" points="538.146,-153.118 536.788,-142.61 531.297,-151.671 538.146,-153.118"/>
</g>
<!-- Node35&#45;&gt;Node22 -->
<g id="edge57" class="edge"><title>Node35&#45;&gt;Node22</title>
<path fill="none" stroke="midnightblue" d="M954.931,-347.38C971.338,-338.449 997.601,-324.003 1020,-311 1034.83,-302.39 1037.3,-297.894 1053,-291 1105.55,-267.93 1142.54,-300.888 1177,-255 1193.99,-232.382 1160.45,-213.531 1130.85,-202.054"/>
<polygon fill="midnightblue" stroke="midnightblue" points="1132.04,-198.762 1121.44,-198.592 1129.62,-205.331 1132.04,-198.762"/>
</g>
<!-- Node35&#45;&gt;Node30 -->
<g id="edge54" class="edge"><title>Node35&#45;&gt;Node30</title>
<path fill="none" stroke="midnightblue" d="M933.892,-347.075C918.809,-320.719 874.262,-242.878 854.107,-207.661"/>
<polygon fill="midnightblue" stroke="midnightblue" points="856.908,-205.509 848.903,-198.568 850.833,-208.986 856.908,-205.509"/>
</g>
<!-- Node35&#45;&gt;Node31 -->
<g id="edge55" class="edge"><title>Node35&#45;&gt;Node31</title>
<path fill="none" stroke="midnightblue" d="M943.383,-347.257C950.306,-334.026 964.772,-308.596 982,-291 993.899,-278.847 1009.51,-267.915 1022.45,-259.87"/>
<polygon fill="midnightblue" stroke="midnightblue" points="1024.54,-262.697 1031.31,-254.546 1020.93,-256.697 1024.54,-262.697"/>
</g>
<!-- Node35&#45;&gt;Node32 -->
<g id="edge56" class="edge"><title>Node35&#45;&gt;Node32</title>
<path fill="none" stroke="midnightblue" d="M901.799,-353.076C834.889,-347.332 697.274,-333.174 655,-311 633.728,-299.842 615.608,-278.58 604.549,-263.412"/>
<polygon fill="midnightblue" stroke="midnightblue" points="607.202,-261.098 598.61,-254.9 601.462,-265.104 607.202,-261.098"/>
</g>
<!-- Node35&#45;&gt;Node33 -->
<g id="edge58" class="edge"><title>Node35&#45;&gt;Node33</title>
<path fill="none" stroke="midnightblue" d="M947.847,-347.485C962.106,-334.102 991.468,-307.929 1020,-291 1042.87,-277.427 1070.61,-265.966 1092.24,-258.007"/>
<polygon fill="midnightblue" stroke="midnightblue" points="1093.48,-261.279 1101.71,-254.602 1091.12,-254.692 1093.48,-261.279"/>
</g>
<!-- Node35&#45;&gt;Node34 -->
<g id="edge59" class="edge"><title>Node35&#45;&gt;Node34</title>
<path fill="none" stroke="midnightblue" d="M971.483,-347.444C1006.72,-338.162 1063.1,-323.309 1101.76,-313.127"/>
<polygon fill="midnightblue" stroke="midnightblue" points="1102.89,-316.448 1111.67,-310.516 1101.11,-309.679 1102.89,-316.448"/>
</g>
<!-- Node35&#45;&gt;Node36 -->
<g id="edge60" class="edge"><title>Node35&#45;&gt;Node36</title>
<path fill="none" stroke="midnightblue" d="M910.478,-347.444C879.934,-338.28 831.292,-323.688 797.397,-313.519"/>
<polygon fill="midnightblue" stroke="midnightblue" points="797.972,-310.038 787.388,-310.516 795.961,-316.742 797.972,-310.038"/>
</g>
<!-- Node39 -->
<g id="node39" class="node"><title>Node39</title>
<g id="a_node39"><a xlink:href="_spend_meta_data_8h.html" target="_top" xlink:title="SpendMetaData class for the Zerocoin library. ">
<polygon fill="white" stroke="black" points="948.5,-179.5 948.5,-198.5 1045.5,-198.5 1045.5,-179.5 948.5,-179.5"/>
<text text-anchor="middle" x="997" y="-186.5" font-family="Helvetica,sans-Serif" font-size="10.00">SpendMetaData.h</text>
</a>
</g>
</g>
<!-- Node35&#45;&gt;Node39 -->
<g id="edge71" class="edge"><title>Node35&#45;&gt;Node39</title>
<path fill="none" stroke="midnightblue" d="M942.118,-347.075C951.288,-320.832 978.291,-243.545 990.67,-208.117"/>
<polygon fill="midnightblue" stroke="midnightblue" points="994.012,-209.163 994.006,-198.568 987.404,-206.854 994.012,-209.163"/>
</g>
<!-- Node36&#45;&gt;Node4 -->
<g id="edge68" class="edge"><title>Node36&#45;&gt;Node4</title>
<path fill="none" stroke="midnightblue" d="M747.482,-291.309C711.841,-264.416 603.081,-182.352 558.437,-148.666"/>
<polygon fill="midnightblue" stroke="midnightblue" points="560.495,-145.834 550.404,-142.605 556.279,-151.422 560.495,-145.834"/>
</g>
<!-- Node36&#45;&gt;Node19 -->
<g id="edge62" class="edge"><title>Node36&#45;&gt;Node19</title>
<path fill="none" stroke="midnightblue" d="M782.876,-291.348C801.337,-283.807 826.741,-271.489 845,-255 896.085,-208.867 921.544,-127.239 930.792,-90.8709"/>
<polygon fill="midnightblue" stroke="midnightblue" points="934.199,-91.6697 933.152,-81.1268 927.396,-90.0218 934.199,-91.6697"/>
</g>
<!-- Node36&#45;&gt;Node22 -->
<g id="edge67" class="edge"><title>Node36&#45;&gt;Node22</title>
<path fill="none" stroke="midnightblue" d="M798.366,-291.496C834.127,-283.39 888.14,-270.191 934,-255 980.746,-239.515 1033.34,-216.962 1064.79,-202.902"/>
<polygon fill="midnightblue" stroke="midnightblue" points="1066.54,-205.952 1074.22,-198.656 1063.67,-199.569 1066.54,-205.952"/>
</g>
<!-- Node36&#45;&gt;Node27 -->
<g id="edge70" class="edge"><title>Node36&#45;&gt;Node27</title>
<path fill="none" stroke="midnightblue" d="M747.734,-291.427C738.034,-283.275 724.721,-270.046 719,-255 713.35,-240.139 715.114,-221.991 717.852,-208.652"/>
<polygon fill="midnightblue" stroke="midnightblue" points="721.297,-209.297 720.239,-198.755 714.492,-207.655 721.297,-209.297"/>
</g>
<!-- Node36&#45;&gt;Node30 -->
<g id="edge64" class="edge"><title>Node36&#45;&gt;Node30</title>
<path fill="none" stroke="midnightblue" d="M778.189,-291.443C793.033,-283.882 813.016,-271.492 825,-255 834.827,-241.476 839.599,-222.923 841.9,-209.1"/>
<polygon fill="midnightblue" stroke="midnightblue" points="845.419,-209.197 843.308,-198.815 838.484,-208.247 845.419,-209.197"/>
</g>
<!-- Node36&#45;&gt;Node31 -->
<g id="edge65" class="edge"><title>Node36&#45;&gt;Node31</title>
<path fill="none" stroke="midnightblue" d="M812.067,-291.455C862.996,-283.027 941.992,-269.353 1010,-255 1011.46,-254.693 1012.94,-254.37 1014.44,-254.037"/>
<polygon fill="midnightblue" stroke="midnightblue" points="1015.4,-257.407 1024.35,-251.741 1013.82,-250.588 1015.4,-257.407"/>
</g>
<!-- Node36&#45;&gt;Node32 -->
<g id="edge66" class="edge"><title>Node36&#45;&gt;Node32</title>
<path fill="none" stroke="midnightblue" d="M732.697,-291.444C704.649,-282.32 660.056,-267.813 628.816,-257.651"/>
<polygon fill="midnightblue" stroke="midnightblue" points="629.772,-254.282 619.18,-254.516 627.607,-260.938 629.772,-254.282"/>
</g>
<!-- Node36&#45;&gt;Node33 -->
<g id="edge69" class="edge"><title>Node36&#45;&gt;Node33</title>
<path fill="none" stroke="midnightblue" d="M824.786,-291.462C889.363,-282.905 990.608,-269.024 1078,-255 1078.1,-254.984 1078.2,-254.968 1078.3,-254.951"/>
<polygon fill="midnightblue" stroke="midnightblue" points="1078.62,-258.448 1087.91,-253.355 1077.47,-251.542 1078.62,-258.448"/>
</g>
<!-- Node37 -->
<g id="node37" class="node"><title>Node37</title>
<polygon fill="white" stroke="#bfbfbf" points="728.5,-235.5 728.5,-254.5 757.5,-254.5 757.5,-235.5 728.5,-235.5"/>
<text text-anchor="middle" x="743" y="-242.5" font-family="Helvetica,sans-Serif" font-size="10.00">list</text>
</g>
<!-- Node36&#45;&gt;Node37 -->
<g id="edge61" class="edge"><title>Node36&#45;&gt;Node37</title>
<path fill="none" stroke="midnightblue" d="M756.358,-291.083C754.214,-283.849 751.121,-273.409 748.451,-264.397"/>
<polygon fill="midnightblue" stroke="midnightblue" points="751.79,-263.345 745.593,-254.751 745.078,-265.333 751.79,-263.345"/>
</g>
<!-- Node38 -->
<g id="node38" class="node"><title>Node38</title>
<polygon fill="white" stroke="#bfbfbf" points="776,-235.5 776,-254.5 816,-254.5 816,-235.5 776,-235.5"/>
<text text-anchor="middle" x="796" y="-242.5" font-family="Helvetica,sans-Serif" font-size="10.00">bitset</text>
</g>
<!-- Node36&#45;&gt;Node38 -->
<g id="edge63" class="edge"><title>Node36&#45;&gt;Node38</title>
<path fill="none" stroke="midnightblue" d="M765.11,-291.083C770.282,-283.534 777.846,-272.495 784.194,-263.23"/>
<polygon fill="midnightblue" stroke="midnightblue" points="787.239,-264.979 790.004,-254.751 781.464,-261.022 787.239,-264.979"/>
</g>
<!-- Node39&#45;&gt;Node4 -->
<g id="edge73" class="edge"><title>Node39&#45;&gt;Node4</title>
<path fill="none" stroke="midnightblue" d="M948.343,-183.466C857.713,-174.91 665.257,-156.188 580.416,-143.031"/>
<polygon fill="midnightblue" stroke="midnightblue" points="580.806,-139.549 570.376,-141.415 579.693,-146.46 580.806,-139.549"/>
</g>
<!-- Node39&#45;&gt;Node23 -->
<g id="edge72" class="edge"><title>Node39&#45;&gt;Node23</title>
<path fill="none" stroke="midnightblue" d="M999.972,-179.083C1002.38,-171.849 1005.86,-161.409 1008.87,-152.397"/>
<polygon fill="midnightblue" stroke="midnightblue" points="1012.24,-153.345 1012.08,-142.751 1005.6,-151.131 1012.24,-153.345"/>
</g>
</g>
</svg>
