<?xml version="1.0" encoding="UTF-8" standalone="no"?>
<!DOCTYPE svg PUBLIC "-//W3C//DTD SVG 1.1//EN"
 "http://www.w3.org/Graphics/SVG/1.1/DTD/svg11.dtd">
<!-- Generated by graphviz version 2.38.0 (20140413.2041)
 -->
<!-- Title: main Pages: 1 -->
<svg width="1291pt" height="302pt"
 viewBox="0.00 0.00 1291.00 302.00" xmlns="http://www.w3.org/2000/svg" xmlns:xlink="http://www.w3.org/1999/xlink">
<g id="graph0" class="graph" transform="scale(1 1) rotate(0) translate(4 298)">
<title>main</title>
<polygon fill="white" stroke="none" points="-4,4 -4,-298 1287,-298 1287,4 -4,4"/>
<!-- Node1 -->
<g id="node1" class="node"><title>Node1</title>
<polygon fill="#bfbfbf" stroke="black" points="0,-181.5 0,-200.5 38,-200.5 38,-181.5 0,-181.5"/>
<text text-anchor="middle" x="19" y="-188.5" font-family="Helvetica,sans-Serif" font-size="10.00">main</text>
</g>
<!-- Node2 -->
<g id="node2" class="node"><title>Node2</title>
<g id="a_node2"><a xlink:href="_tutorial_8cpp.html#a297c1339eda300b5818bf669440b3a7d" target="_top" xlink:title="ZerocoinTutorial">
<polygon fill="white" stroke="black" points="74,-181.5 74,-200.5 163,-200.5 163,-181.5 74,-181.5"/>
<text text-anchor="middle" x="118.5" y="-188.5" font-family="Helvetica,sans-Serif" font-size="10.00">ZerocoinTutorial</text>
</a>
</g>
</g>
<!-- Node1&#45;&gt;Node2 -->
<g id="edge1" class="edge"><title>Node1&#45;&gt;Node2</title>
<path fill="none" stroke="midnightblue" d="M38.339,-191C45.6334,-191 54.4403,-191 63.4918,-191"/>
<polygon fill="midnightblue" stroke="midnightblue" points="63.7477,-194.5 73.7477,-191 63.7476,-187.5 63.7477,-194.5"/>
</g>
<!-- Node3 -->
<g id="node3" class="node"><title>Node3</title>
<g id="a_node3"><a xlink:href="chainparams_8cpp.html#ace5c5b706d71a324a417dd2db394fd4a" target="_top" xlink:title="Return the currently selected parameters. ">
<polygon fill="white" stroke="black" points="234.5,-274.5 234.5,-293.5 285.5,-293.5 285.5,-274.5 234.5,-274.5"/>
<text text-anchor="middle" x="260" y="-281.5" font-family="Helvetica,sans-Serif" font-size="10.00">Params</text>
</a>
</g>
</g>
<!-- Node2&#45;&gt;Node3 -->
<g id="edge2" class="edge"><title>Node2&#45;&gt;Node3</title>
<path fill="none" stroke="midnightblue" d="M127.287,-200.608C140.466,-216.271 168.706,-247.326 199,-265 206.801,-269.551 215.819,-273.144 224.456,-275.923"/>
<polygon fill="midnightblue" stroke="midnightblue" points="223.742,-279.361 234.323,-278.82 225.714,-272.645 223.742,-279.361"/>
</g>
<!-- Node4 -->
<g id="node4" class="node"><title>Node4</title>
<g id="a_node4"><a xlink:href="classlibzerocoin_1_1_private_coin.html#a11f0047e01af467bba8d9fde58f88798" target="_top" xlink:title="libzerocoin::PrivateCoin\l::getPublicCoin">
<polygon fill="white" stroke="black" points="199,-225 199,-255 321,-255 321,-225 199,-225"/>
<text text-anchor="start" x="207" y="-243" font-family="Helvetica,sans-Serif" font-size="10.00">libzerocoin::PrivateCoin</text>
<text text-anchor="middle" x="260" y="-232" font-family="Helvetica,sans-Serif" font-size="10.00">::getPublicCoin</text>
</a>
</g>
</g>
<!-- Node2&#45;&gt;Node4 -->
<g id="edge3" class="edge"><title>Node2&#45;&gt;Node4</title>
<path fill="none" stroke="midnightblue" d="M146.728,-200.564C163.772,-206.551 186.294,-214.462 206.69,-221.626"/>
<polygon fill="midnightblue" stroke="midnightblue" points="205.596,-224.951 216.191,-224.963 207.916,-218.347 205.596,-224.951"/>
</g>
<!-- Node5 -->
<g id="node5" class="node"><title>Node5</title>
<g id="a_node5"><a xlink:href="classlibzerocoin_1_1_public_coin.html#a922faf6b42eb84049660305623463e81" target="_top" xlink:title="Checks that a coin prime and in the appropriate range given the parameters. ">
<polygon fill="white" stroke="black" points="201,-176 201,-206 319,-206 319,-176 201,-176"/>
<text text-anchor="start" x="209" y="-194" font-family="Helvetica,sans-Serif" font-size="10.00">libzerocoin::PublicCoin</text>
<text text-anchor="middle" x="260" y="-183" font-family="Helvetica,sans-Serif" font-size="10.00">::validate</text>
</a>
</g>
</g>
<!-- Node2&#45;&gt;Node5 -->
<g id="edge4" class="edge"><title>Node2&#45;&gt;Node5</title>
<path fill="none" stroke="midnightblue" d="M163.256,-191C171.999,-191 181.378,-191 190.722,-191"/>
<polygon fill="midnightblue" stroke="midnightblue" points="190.816,-194.5 200.816,-191 190.816,-187.5 190.816,-194.5"/>
</g>
<!-- Node6 -->
<g id="node6" class="node"><title>Node6</title>
<g id="a_node6"><a xlink:href="classlibzerocoin_1_1_coin_spend.html#a9048dabc1be9ef65aeefb41e92e2f53c" target="_top" xlink:title="libzerocoin::CoinSpend\l::Verify">
<polygon fill="white" stroke="black" points="200.5,-127 200.5,-157 319.5,-157 319.5,-127 200.5,-127"/>
<text text-anchor="start" x="208.5" y="-145" font-family="Helvetica,sans-Serif" font-size="10.00">libzerocoin::CoinSpend</text>
<text text-anchor="middle" x="260" y="-134" font-family="Helvetica,sans-Serif" font-size="10.00">::Verify</text>
</a>
</g>
</g>
<!-- Node2&#45;&gt;Node6 -->
<g id="edge5" class="edge"><title>Node2&#45;&gt;Node6</title>
<path fill="none" stroke="midnightblue" d="M146.728,-181.436C163.772,-175.449 186.294,-167.538 206.69,-160.374"/>
<polygon fill="midnightblue" stroke="midnightblue" points="207.916,-163.653 216.191,-157.037 205.596,-157.049 207.916,-163.653"/>
</g>
<!-- Node18 -->
<g id="node18" class="node"><title>Node18</title>
<g id="a_node18"><a xlink:href="classlibzerocoin_1_1_coin_spend.html#a5e01eaa6d2671008bccde190a3c935d9" target="_top" xlink:title="Returns the serial number of the coin spend by this proof. ">
<polygon fill="white" stroke="black" points="200.5,-78 200.5,-108 319.5,-108 319.5,-78 200.5,-78"/>
<text text-anchor="start" x="208.5" y="-96" font-family="Helvetica,sans-Serif" font-size="10.00">libzerocoin::CoinSpend</text>
<text text-anchor="middle" x="260" y="-85" font-family="Helvetica,sans-Serif" font-size="10.00">::getCoinSerialNumber</text>
</a>
</g>
</g>
<!-- Node2&#45;&gt;Node18 -->
<g id="edge20" class="edge"><title>Node2&#45;&gt;Node18</title>
<path fill="none" stroke="midnightblue" d="M127.935,-181.332C141.59,-166.158 169.95,-136.571 199,-118 201.942,-116.12 205.048,-114.329 208.238,-112.633"/>
<polygon fill="midnightblue" stroke="midnightblue" points="209.965,-115.683 217.375,-108.111 206.86,-109.409 209.965,-115.683"/>
</g>
<!-- Node7 -->
<g id="node7" class="node"><title>Node7</title>
<g id="a_node7"><a xlink:href="classlibzerocoin_1_1_commitment_proof_of_knowledge.html#a846cfaed719d7d1513e899f4af124948" target="_top" xlink:title="Verifies the proof. ">
<polygon fill="white" stroke="black" points="357,-218 357,-248 507,-248 507,-218 357,-218"/>
<text text-anchor="start" x="365" y="-236" font-family="Helvetica,sans-Serif" font-size="10.00">libzerocoin::CommitmentProof</text>
<text text-anchor="middle" x="432" y="-225" font-family="Helvetica,sans-Serif" font-size="10.00">OfKnowledge::Verify</text>
</a>
</g>
</g>
<!-- Node6&#45;&gt;Node7 -->
<g id="edge6" class="edge"><title>Node6&#45;&gt;Node7</title>
<path fill="none" stroke="midnightblue" d="M300.241,-157.064C307.265,-160.122 314.433,-163.486 321,-167 337.954,-176.074 340.628,-180.914 357,-191 369.027,-198.409 382.394,-206.143 394.422,-212.926"/>
<polygon fill="midnightblue" stroke="midnightblue" points="392.879,-216.073 403.315,-217.906 396.3,-209.966 392.879,-216.073"/>
</g>
<!-- Node10 -->
<g id="node10" class="node"><title>Node10</title>
<g id="a_node10"><a xlink:href="classlibzerocoin_1_1_accumulator_proof_of_knowledge.html#a65468d15a28daaa82e6d6275459c95ab" target="_top" xlink:title="Verifies that a commitment c is accumulated in accumulated a. ">
<polygon fill="white" stroke="black" points="366,-151 366,-181 498,-181 498,-151 366,-151"/>
<text text-anchor="start" x="374" y="-169" font-family="Helvetica,sans-Serif" font-size="10.00">libzerocoin::Accumulator</text>
<text text-anchor="middle" x="432" y="-158" font-family="Helvetica,sans-Serif" font-size="10.00">ProofOfKnowledge::Verify</text>
</a>
</g>
</g>
<!-- Node6&#45;&gt;Node10 -->
<g id="edge9" class="edge"><title>Node6&#45;&gt;Node10</title>
<path fill="none" stroke="midnightblue" d="M319.504,-150.259C331.21,-151.912 343.66,-153.67 355.837,-155.389"/>
<polygon fill="midnightblue" stroke="midnightblue" points="355.589,-158.888 365.98,-156.821 356.567,-151.957 355.589,-158.888"/>
</g>
<!-- Node12 -->
<g id="node12" class="node"><title>Node12</title>
<g id="a_node12"><a xlink:href="classlibzerocoin_1_1_serial_number_signature_of_knowledge.html#a570a8d439385cc3b18701c4a252ff104" target="_top" xlink:title="Verifies the Signature of knowledge. ">
<polygon fill="white" stroke="black" points="357,-102 357,-132 507,-132 507,-102 357,-102"/>
<text text-anchor="start" x="365" y="-120" font-family="Helvetica,sans-Serif" font-size="10.00">libzerocoin::SerialNumber</text>
<text text-anchor="middle" x="432" y="-109" font-family="Helvetica,sans-Serif" font-size="10.00">SignatureOfKnowledge::Verify</text>
</a>
</g>
</g>
<!-- Node6&#45;&gt;Node12 -->
<g id="edge12" class="edge"><title>Node6&#45;&gt;Node12</title>
<path fill="none" stroke="midnightblue" d="M319.504,-133.396C328.321,-132.1 337.56,-130.741 346.787,-129.384"/>
<polygon fill="midnightblue" stroke="midnightblue" points="347.389,-132.833 356.774,-127.916 346.371,-125.908 347.389,-132.833"/>
</g>
<!-- Node17 -->
<g id="node17" class="node"><title>Node17</title>
<g id="a_node17"><a xlink:href="classlibzerocoin_1_1_accumulator.html#aa12b4aae357d55d3f4c3ba75856a6071" target="_top" xlink:title="libzerocoin::Accumulator\l::getDenomination">
<polygon fill="white" stroke="black" points="369.5,-53 369.5,-83 494.5,-83 494.5,-53 369.5,-53"/>
<text text-anchor="start" x="377.5" y="-71" font-family="Helvetica,sans-Serif" font-size="10.00">libzerocoin::Accumulator</text>
<text text-anchor="middle" x="432" y="-60" font-family="Helvetica,sans-Serif" font-size="10.00">::getDenomination</text>
</a>
</g>
</g>
<!-- Node6&#45;&gt;Node17 -->
<g id="edge19" class="edge"><title>Node6&#45;&gt;Node17</title>
<path fill="none" stroke="midnightblue" d="M302.234,-126.947C308.628,-124.203 315.073,-121.19 321,-118 338.153,-108.768 339.601,-101.759 357,-93 361.315,-90.8277 365.862,-88.7758 370.493,-86.853"/>
<polygon fill="midnightblue" stroke="midnightblue" points="372.042,-90.0048 380.069,-83.09 369.482,-83.4898 372.042,-90.0048"/>
</g>
<!-- Node8 -->
<g id="node8" class="node"><title>Node8</title>
<g id="a_node8"><a xlink:href="classlibzerocoin_1_1_commitment_proof_of_knowledge.html#a928e409111b60d5fe222ea1559a9cb73" target="_top" xlink:title="libzerocoin::CommitmentProof\lOfKnowledge::calculateChallenge">
<polygon fill="white" stroke="black" points="747,-237 747,-267 914,-267 914,-237 747,-237"/>
<text text-anchor="start" x="755" y="-255" font-family="Helvetica,sans-Serif" font-size="10.00">libzerocoin::CommitmentProof</text>
<text text-anchor="middle" x="830.5" y="-244" font-family="Helvetica,sans-Serif" font-size="10.00">OfKnowledge::calculateChallenge</text>
</a>
</g>
</g>
<!-- Node7&#45;&gt;Node8 -->
<g id="edge7" class="edge"><title>Node7&#45;&gt;Node8</title>
<path fill="none" stroke="midnightblue" d="M507.113,-236.551C572.059,-239.664 666.745,-244.201 736.711,-247.554"/>
<polygon fill="midnightblue" stroke="midnightblue" points="736.692,-251.057 746.848,-248.039 737.027,-244.065 736.692,-251.057"/>
</g>
<!-- Node9 -->
<g id="node9" class="node"><title>Node9</title>
<g id="a_node9"><a xlink:href="class_c_hash_writer.html#ae94a937211502eabf19477630090093a" target="_top" xlink:title="CHashWriter::GetHash">
<polygon fill="white" stroke="black" points="1164,-154.5 1164,-173.5 1283,-173.5 1283,-154.5 1164,-154.5"/>
<text text-anchor="middle" x="1223.5" y="-161.5" font-family="Helvetica,sans-Serif" font-size="10.00">CHashWriter::GetHash</text>
</a>
</g>
</g>
<!-- Node8&#45;&gt;Node9 -->
<g id="edge8" class="edge"><title>Node8&#45;&gt;Node9</title>
<path fill="none" stroke="midnightblue" d="M914.115,-253.434C974.779,-252.164 1058.39,-245.505 1128,-222 1156.06,-212.526 1184.52,-193.496 1202.76,-179.814"/>
<polygon fill="midnightblue" stroke="midnightblue" points="1205.06,-182.463 1210.86,-173.593 1200.79,-176.914 1205.06,-182.463"/>
</g>
<!-- Node10&#45;&gt;Node9 -->
<g id="edge10" class="edge"><title>Node10&#45;&gt;Node9</title>
<path fill="none" stroke="midnightblue" d="M493.741,-181.032C509.667,-184.331 526.892,-187.334 543,-189 765.427,-212.005 1030.72,-187.278 1153.67,-172.86"/>
<polygon fill="midnightblue" stroke="midnightblue" points="1154.17,-176.325 1163.69,-171.67 1153.35,-169.373 1154.17,-176.325"/>
</g>
<!-- Node11 -->
<g id="node11" class="node"><title>Node11</title>
<g id="a_node11"><a xlink:href="classlibzerocoin_1_1_accumulator.html#ab50983cc6294ddfa7e23a85a75f5fc2e" target="_top" xlink:title="Get the accumulator result. ">
<polygon fill="white" stroke="black" points="564.5,-149 564.5,-179 689.5,-179 689.5,-149 564.5,-149"/>
<text text-anchor="start" x="572.5" y="-167" font-family="Helvetica,sans-Serif" font-size="10.00">libzerocoin::Accumulator</text>
<text text-anchor="middle" x="627" y="-156" font-family="Helvetica,sans-Serif" font-size="10.00">::getValue</text>
</a>
</g>
</g>
<!-- Node10&#45;&gt;Node11 -->
<g id="edge11" class="edge"><title>Node10&#45;&gt;Node11</title>
<path fill="none" stroke="midnightblue" d="M498.072,-165.326C516.17,-165.138 535.923,-164.933 554.374,-164.742"/>
<polygon fill="midnightblue" stroke="midnightblue" points="554.508,-168.241 564.471,-164.638 554.436,-161.242 554.508,-168.241"/>
</g>
<!-- Node12&#45;&gt;Node9 -->
<g id="edge18" class="edge"><title>Node12&#45;&gt;Node9</title>
<path fill="none" stroke="midnightblue" d="M507.274,-121.422C659.655,-130.493 1005.7,-151.094 1153.49,-159.892"/>
<polygon fill="midnightblue" stroke="midnightblue" points="1153.6,-163.404 1163.79,-160.505 1154.01,-156.417 1153.6,-163.404"/>
</g>
<!-- Node13 -->
<g id="node13" class="node"><title>Node13</title>
<g id="a_node13"><a xlink:href="namespacelibzerocoin.html#a860d36a6fac4250ebf4c5dad71602091" target="_top" xlink:title="Deterministically derives coin commitment group generators g &amp; h from a serial number (and group modu...">
<polygon fill="white" stroke="black" points="553.5,-61 553.5,-91 700.5,-91 700.5,-61 553.5,-61"/>
<text text-anchor="start" x="561.5" y="-79" font-family="Helvetica,sans-Serif" font-size="10.00">libzerocoin::deriveGenerators</text>
<text text-anchor="middle" x="627" y="-68" font-family="Helvetica,sans-Serif" font-size="10.00">FromSerialNumber</text>
</a>
</g>
</g>
<!-- Node12&#45;&gt;Node13 -->
<g id="edge13" class="edge"><title>Node12&#45;&gt;Node13</title>
<path fill="none" stroke="midnightblue" d="M503.77,-101.966C517.275,-99.097 531.505,-96.074 545.293,-93.1449"/>
<polygon fill="midnightblue" stroke="midnightblue" points="546.184,-96.5339 555.238,-91.0323 544.729,-89.6867 546.184,-96.5339"/>
</g>
<!-- Node16 -->
<g id="node16" class="node"><title>Node16</title>
<g id="a_node16"><a xlink:href="classlibzerocoin_1_1_serial_number_signature_of_knowledge.html#acff43e9b20208f24d0dfa870fc5a78c2" target="_top" xlink:title="libzerocoin::SerialNumber\lSignatureOfKnowledge::challenge\lCalculation">
<polygon fill="white" stroke="black" points="543,-0.5 543,-41.5 711,-41.5 711,-0.5 543,-0.5"/>
<text text-anchor="start" x="551" y="-29.5" font-family="Helvetica,sans-Serif" font-size="10.00">libzerocoin::SerialNumber</text>
<text text-anchor="start" x="551" y="-18.5" font-family="Helvetica,sans-Serif" font-size="10.00">SignatureOfKnowledge::challenge</text>
<text text-anchor="middle" x="627" y="-7.5" font-family="Helvetica,sans-Serif" font-size="10.00">Calculation</text>
</a>
</g>
</g>
<!-- Node12&#45;&gt;Node16 -->
<g id="edge17" class="edge"><title>Node12&#45;&gt;Node16</title>
<path fill="none" stroke="midnightblue" d="M490.637,-101.834C496.377,-99.2981 501.943,-96.3708 507,-93 527.458,-79.3646 522.771,-64.9732 543,-51 545.364,-49.3672 547.827,-47.8126 550.361,-46.3336"/>
<polygon fill="midnightblue" stroke="midnightblue" points="552.052,-49.3982 559.216,-41.5921 548.748,-43.2273 552.052,-49.3982"/>
</g>
<!-- Node14 -->
<g id="node14" class="node"><title>Node14</title>
<g id="a_node14"><a xlink:href="namespacelibzerocoin.html#a75a628181a2a566d229108b51bf0cf57" target="_top" xlink:title="Deterministically compute a generator for a given group. ">
<polygon fill="white" stroke="black" points="762,-61 762,-91 899,-91 899,-61 762,-61"/>
<text text-anchor="start" x="770" y="-79" font-family="Helvetica,sans-Serif" font-size="10.00">libzerocoin::calculateGroup</text>
<text text-anchor="middle" x="830.5" y="-68" font-family="Helvetica,sans-Serif" font-size="10.00">Generator</text>
</a>
</g>
</g>
<!-- Node13&#45;&gt;Node14 -->
<g id="edge14" class="edge"><title>Node13&#45;&gt;Node14</title>
<path fill="none" stroke="midnightblue" d="M700.746,-76C717.27,-76 734.885,-76 751.613,-76"/>
<polygon fill="midnightblue" stroke="midnightblue" points="751.895,-79.5001 761.895,-76 751.895,-72.5001 751.895,-79.5001"/>
</g>
<!-- Node15 -->
<g id="node15" class="node"><title>Node15</title>
<g id="a_node15"><a xlink:href="namespacelibzerocoin.html#a49d954a2ad7e4abe50ae454c900d915a" target="_top" xlink:title="Format a seed string by hashing several values. ">
<polygon fill="white" stroke="black" points="950,-69.5 950,-88.5 1128,-88.5 1128,-69.5 950,-69.5"/>
<text text-anchor="middle" x="1039" y="-76.5" font-family="Helvetica,sans-Serif" font-size="10.00">libzerocoin::calculateGeneratorSeed</text>
</a>
</g>
</g>
<!-- Node14&#45;&gt;Node15 -->
<g id="edge15" class="edge"><title>Node14&#45;&gt;Node15</title>
<path fill="none" stroke="midnightblue" d="M899.116,-76.9823C912.178,-77.1721 926.107,-77.3744 939.913,-77.575"/>
<polygon fill="midnightblue" stroke="midnightblue" points="939.88,-81.0748 949.929,-77.7205 939.981,-74.0755 939.88,-81.0748"/>
</g>
<!-- Node15&#45;&gt;Node9 -->
<g id="edge16" class="edge"><title>Node15&#45;&gt;Node9</title>
<path fill="none" stroke="midnightblue" d="M1078.46,-88.5173C1094.15,-92.9829 1112.27,-98.898 1128,-106 1154.39,-117.913 1182.38,-135.845 1200.99,-148.614"/>
<polygon fill="midnightblue" stroke="midnightblue" points="1199.12,-151.575 1209.33,-154.418 1203.12,-145.831 1199.12,-151.575"/>
</g>
</g>
</svg>
