<?xml version="1.0" encoding="UTF-8" standalone="no"?>
<!DOCTYPE svg PUBLIC "-//W3C//DTD SVG 1.1//EN"
 "http://www.w3.org/Graphics/SVG/1.1/DTD/svg11.dtd">
<!-- Generated by graphviz version 2.38.0 (20140413.2041)
 -->
<!-- Title: src/qt/addressbookpage.h Pages: 1 -->
<svg width="963pt" height="84pt"
 viewBox="0.00 0.00 963.00 84.00" xmlns="http://www.w3.org/2000/svg" xmlns:xlink="http://www.w3.org/1999/xlink">
<g id="graph0" class="graph" transform="scale(1 1) rotate(0) translate(4 80)">
<title>src/qt/addressbookpage.h</title>
<polygon fill="white" stroke="none" points="-4,4 -4,-80 959,-80 959,4 -4,4"/>
<!-- Node1 -->
<g id="node1" class="node"><title>Node1</title>
<polygon fill="#bfbfbf" stroke="black" points="430,-56.5 430,-75.5 562,-75.5 562,-56.5 430,-56.5"/>
<text text-anchor="middle" x="496" y="-63.5" font-family="Helvetica,sans-Serif" font-size="10.00">src/qt/addressbookpage.h</text>
</g>
<!-- Node2 -->
<g id="node2" class="node"><title>Node2</title>
<g id="a_node2"><a xlink:href="addressbookpage_8cpp.html" target="_top" xlink:title="src/qt/addressbookpage.cpp">
<polygon fill="white" stroke="black" points="0,-0.5 0,-19.5 142,-19.5 142,-0.5 0,-0.5"/>
<text text-anchor="middle" x="71" y="-7.5" font-family="Helvetica,sans-Serif" font-size="10.00">src/qt/addressbookpage.cpp</text>
</a>
</g>
</g>
<!-- Node1&#45;&gt;Node2 -->
<g id="edge1" class="edge"><title>Node1&#45;&gt;Node2</title>
<path fill="none" stroke="midnightblue" d="M419.553,-55.2867C339.332,-45.0939 214.471,-29.2292 137.991,-19.5118"/>
<polygon fill="midnightblue" stroke="midnightblue" points="419.232,-58.774 429.594,-56.5625 420.115,-51.8299 419.232,-58.774"/>
</g>
<!-- Node3 -->
<g id="node3" class="node"><title>Node3</title>
<g id="a_node3"><a xlink:href="moc__addressbookpage_8cpp.html" target="_top" xlink:title="src/qt/moc_addressbookpage.cpp">
<polygon fill="white" stroke="black" points="160.5,-0.5 160.5,-19.5 327.5,-19.5 327.5,-0.5 160.5,-0.5"/>
<text text-anchor="middle" x="244" y="-7.5" font-family="Helvetica,sans-Serif" font-size="10.00">src/qt/moc_addressbookpage.cpp</text>
</a>
</g>
</g>
<!-- Node1&#45;&gt;Node3 -->
<g id="edge2" class="edge"><title>Node1&#45;&gt;Node3</title>
<path fill="none" stroke="midnightblue" d="M446.279,-54.3456C398.656,-44.1405 327.72,-28.94 283.743,-19.5164"/>
<polygon fill="midnightblue" stroke="midnightblue" points="445.558,-57.7705 456.07,-56.4435 447.025,-50.9259 445.558,-57.7705"/>
</g>
<!-- Node4 -->
<g id="node4" class="node"><title>Node4</title>
<g id="a_node4"><a xlink:href="receivecoinsdialog_8cpp.html" target="_top" xlink:title="src/qt/receivecoinsdialog.cpp">
<polygon fill="white" stroke="black" points="345.5,-0.5 345.5,-19.5 490.5,-19.5 490.5,-0.5 345.5,-0.5"/>
<text text-anchor="middle" x="418" y="-7.5" font-family="Helvetica,sans-Serif" font-size="10.00">src/qt/receivecoinsdialog.cpp</text>
</a>
</g>
</g>
<!-- Node1&#45;&gt;Node4 -->
<g id="edge3" class="edge"><title>Node1&#45;&gt;Node4</title>
<path fill="none" stroke="midnightblue" d="M475.232,-50.6221C460.983,-40.7574 442.544,-27.9919 430.501,-19.6545"/>
<polygon fill="midnightblue" stroke="midnightblue" points="473.254,-53.5095 483.468,-56.324 477.238,-47.7541 473.254,-53.5095"/>
</g>
<!-- Node5 -->
<g id="node5" class="node"><title>Node5</title>
<g id="a_node5"><a xlink:href="sendcoinsentry_8cpp.html" target="_top" xlink:title="src/qt/sendcoinsentry.cpp">
<polygon fill="white" stroke="black" points="509,-0.5 509,-19.5 639,-19.5 639,-0.5 509,-0.5"/>
<text text-anchor="middle" x="574" y="-7.5" font-family="Helvetica,sans-Serif" font-size="10.00">src/qt/sendcoinsentry.cpp</text>
</a>
</g>
</g>
<!-- Node1&#45;&gt;Node5 -->
<g id="edge4" class="edge"><title>Node1&#45;&gt;Node5</title>
<path fill="none" stroke="midnightblue" d="M516.768,-50.6221C531.017,-40.7574 549.456,-27.9919 561.499,-19.6545"/>
<polygon fill="midnightblue" stroke="midnightblue" points="514.762,-47.7541 508.532,-56.324 518.746,-53.5095 514.762,-47.7541"/>
</g>
<!-- Node6 -->
<g id="node6" class="node"><title>Node6</title>
<g id="a_node6"><a xlink:href="signverifymessagedialog_8cpp.html" target="_top" xlink:title="src/qt/signverifymessagedialog.cpp">
<polygon fill="white" stroke="black" points="657,-0.5 657,-19.5 829,-19.5 829,-0.5 657,-0.5"/>
<text text-anchor="middle" x="743" y="-7.5" font-family="Helvetica,sans-Serif" font-size="10.00">src/qt/signverifymessagedialog.cpp</text>
</a>
</g>
</g>
<!-- Node1&#45;&gt;Node6 -->
<g id="edge5" class="edge"><title>Node1&#45;&gt;Node6</title>
<path fill="none" stroke="midnightblue" d="M545.027,-54.2815C591.704,-44.0769 661.031,-28.9203 704.045,-19.5164"/>
<polygon fill="midnightblue" stroke="midnightblue" points="544.16,-50.8884 535.138,-56.4435 545.655,-57.7269 544.16,-50.8884"/>
</g>
<!-- Node7 -->
<g id="node7" class="node"><title>Node7</title>
<g id="a_node7"><a xlink:href="walletview_8cpp.html" target="_top" xlink:title="src/qt/walletview.cpp">
<polygon fill="white" stroke="black" points="847,-0.5 847,-19.5 955,-19.5 955,-0.5 847,-0.5"/>
<text text-anchor="middle" x="901" y="-7.5" font-family="Helvetica,sans-Serif" font-size="10.00">src/qt/walletview.cpp</text>
</a>
</g>
</g>
<!-- Node1&#45;&gt;Node7 -->
<g id="edge6" class="edge"><title>Node1&#45;&gt;Node7</title>
<path fill="none" stroke="midnightblue" d="M572.195,-55.2198C641.524,-46.2625 746.672,-32.5314 838,-20 840.846,-19.6095 843.764,-19.2055 846.709,-18.7947"/>
<polygon fill="midnightblue" stroke="midnightblue" points="571.701,-51.7544 562.231,-56.506 572.597,-58.6968 571.701,-51.7544"/>
</g>
</g>
</svg>
