<?xml version="1.0" encoding="UTF-8" standalone="no"?>
<!DOCTYPE svg PUBLIC "-//W3C//DTD SVG 1.1//EN"
 "http://www.w3.org/Graphics/SVG/1.1/DTD/svg11.dtd">
<!-- Generated by graphviz version 2.38.0 (20140413.2041)
 -->
<!-- Title: src/qt/addresstablemodel.h Pages: 1 -->
<svg width="1748pt" height="84pt"
 viewBox="0.00 0.00 1747.50 84.00" xmlns="http://www.w3.org/2000/svg" xmlns:xlink="http://www.w3.org/1999/xlink">
<g id="graph0" class="graph" transform="scale(1 1) rotate(0) translate(4 80)">
<title>src/qt/addresstablemodel.h</title>
<polygon fill="white" stroke="none" points="-4,4 -4,-80 1743.5,-80 1743.5,4 -4,4"/>
<!-- Node1 -->
<g id="node1" class="node"><title>Node1</title>
<polygon fill="#bfbfbf" stroke="black" points="836.5,-56.5 836.5,-75.5 973.5,-75.5 973.5,-56.5 836.5,-56.5"/>
<text text-anchor="middle" x="905" y="-63.5" font-family="Helvetica,sans-Serif" font-size="10.00">src/qt/addresstablemodel.h</text>
</g>
<!-- Node2 -->
<g id="node2" class="node"><title>Node2</title>
<g id="a_node2"><a xlink:href="addressbookpage_8cpp.html" target="_top" xlink:title="src/qt/addressbookpage.cpp">
<polygon fill="white" stroke="black" points="0,-0.5 0,-19.5 142,-19.5 142,-0.5 0,-0.5"/>
<text text-anchor="middle" x="71" y="-7.5" font-family="Helvetica,sans-Serif" font-size="10.00">src/qt/addressbookpage.cpp</text>
</a>
</g>
</g>
<!-- Node1&#45;&gt;Node2 -->
<g id="edge1" class="edge"><title>Node1&#45;&gt;Node2</title>
<path fill="none" stroke="midnightblue" d="M826.286,-61.6627C689.02,-55.539 397.004,-41.1641 151,-20 148.076,-19.7484 145.093,-19.4776 142.081,-19.1923"/>
<polygon fill="midnightblue" stroke="midnightblue" points="826.152,-65.1601 836.298,-62.1069 826.463,-58.167 826.152,-65.1601"/>
</g>
<!-- Node3 -->
<g id="node3" class="node"><title>Node3</title>
<g id="a_node3"><a xlink:href="addresstablemodel_8cpp.html" target="_top" xlink:title="src/qt/addresstablemodel.cpp">
<polygon fill="white" stroke="black" points="160.5,-0.5 160.5,-19.5 307.5,-19.5 307.5,-0.5 160.5,-0.5"/>
<text text-anchor="middle" x="234" y="-7.5" font-family="Helvetica,sans-Serif" font-size="10.00">src/qt/addresstablemodel.cpp</text>
</a>
</g>
</g>
<!-- Node1&#45;&gt;Node3 -->
<g id="edge2" class="edge"><title>Node1&#45;&gt;Node3</title>
<path fill="none" stroke="midnightblue" d="M825.861,-59.7415C712.885,-52.0532 498.904,-36.8186 317,-20 313.969,-19.7198 310.877,-19.425 307.754,-19.1198"/>
<polygon fill="midnightblue" stroke="midnightblue" points="825.928,-63.254 836.142,-60.4393 826.402,-56.2701 825.928,-63.254"/>
</g>
<!-- Node4 -->
<g id="node4" class="node"><title>Node4</title>
<g id="a_node4"><a xlink:href="coincontroldialog_8cpp.html" target="_top" xlink:title="src/qt/coincontroldialog.cpp">
<polygon fill="white" stroke="black" points="326,-0.5 326,-19.5 464,-19.5 464,-0.5 326,-0.5"/>
<text text-anchor="middle" x="395" y="-7.5" font-family="Helvetica,sans-Serif" font-size="10.00">src/qt/coincontroldialog.cpp</text>
</a>
</g>
</g>
<!-- Node1&#45;&gt;Node4 -->
<g id="edge3" class="edge"><title>Node1&#45;&gt;Node4</title>
<path fill="none" stroke="midnightblue" d="M826.122,-57.0485C739.495,-48.254 596.292,-33.5341 473,-20 470.154,-19.6876 467.251,-19.366 464.318,-19.0386"/>
<polygon fill="midnightblue" stroke="midnightblue" points="825.839,-60.5376 836.141,-58.0648 826.545,-53.5734 825.839,-60.5376"/>
</g>
<!-- Node5 -->
<g id="node5" class="node"><title>Node5</title>
<g id="a_node5"><a xlink:href="editaddressdialog_8cpp.html" target="_top" xlink:title="src/qt/editaddressdialog.cpp">
<polygon fill="white" stroke="black" points="482.5,-0.5 482.5,-19.5 623.5,-19.5 623.5,-0.5 482.5,-0.5"/>
<text text-anchor="middle" x="553" y="-7.5" font-family="Helvetica,sans-Serif" font-size="10.00">src/qt/editaddressdialog.cpp</text>
</a>
</g>
</g>
<!-- Node1&#45;&gt;Node5 -->
<g id="edge4" class="edge"><title>Node1&#45;&gt;Node5</title>
<path fill="none" stroke="midnightblue" d="M839.271,-54.9166C772.772,-44.715 671.099,-29.1174 608.514,-19.5164"/>
<polygon fill="midnightblue" stroke="midnightblue" points="838.809,-58.3866 849.225,-56.4435 839.871,-51.4676 838.809,-58.3866"/>
</g>
<!-- Node6 -->
<g id="node6" class="node"><title>Node6</title>
<g id="a_node6"><a xlink:href="moc__addresstablemodel_8cpp.html" target="_top" xlink:title="src/qt/moc_addresstablemodel.cpp">
<polygon fill="white" stroke="black" points="642,-0.5 642,-19.5 814,-19.5 814,-0.5 642,-0.5"/>
<text text-anchor="middle" x="728" y="-7.5" font-family="Helvetica,sans-Serif" font-size="10.00">src/qt/moc_addresstablemodel.cpp</text>
</a>
</g>
</g>
<!-- Node1&#45;&gt;Node6 -->
<g id="edge5" class="edge"><title>Node1&#45;&gt;Node6</title>
<path fill="none" stroke="midnightblue" d="M867.097,-53.4363C833.725,-43.2551 785.899,-28.664 755.915,-19.5164"/>
<polygon fill="midnightblue" stroke="midnightblue" points="866.368,-56.8731 876.954,-56.4435 868.41,-50.1777 866.368,-56.8731"/>
</g>
<!-- Node7 -->
<g id="node7" class="node"><title>Node7</title>
<g id="a_node7"><a xlink:href="receivecoinsdialog_8cpp.html" target="_top" xlink:title="src/qt/receivecoinsdialog.cpp">
<polygon fill="white" stroke="black" points="832.5,-0.5 832.5,-19.5 977.5,-19.5 977.5,-0.5 832.5,-0.5"/>
<text text-anchor="middle" x="905" y="-7.5" font-family="Helvetica,sans-Serif" font-size="10.00">src/qt/receivecoinsdialog.cpp</text>
</a>
</g>
</g>
<!-- Node1&#45;&gt;Node7 -->
<g id="edge6" class="edge"><title>Node1&#45;&gt;Node7</title>
<path fill="none" stroke="midnightblue" d="M905,-45.8045C905,-36.9102 905,-26.7798 905,-19.7511"/>
<polygon fill="midnightblue" stroke="midnightblue" points="901.5,-46.083 905,-56.083 908.5,-46.083 901.5,-46.083"/>
</g>
<!-- Node8 -->
<g id="node8" class="node"><title>Node8</title>
<g id="a_node8"><a xlink:href="sendcoinsdialog_8cpp.html" target="_top" xlink:title="src/qt/sendcoinsdialog.cpp">
<polygon fill="white" stroke="black" points="996,-0.5 996,-19.5 1130,-19.5 1130,-0.5 996,-0.5"/>
<text text-anchor="middle" x="1063" y="-7.5" font-family="Helvetica,sans-Serif" font-size="10.00">src/qt/sendcoinsdialog.cpp</text>
</a>
</g>
</g>
<!-- Node1&#45;&gt;Node8 -->
<g id="edge7" class="edge"><title>Node1&#45;&gt;Node8</title>
<path fill="none" stroke="midnightblue" d="M939.608,-53.172C969.359,-43.0039 1011.55,-28.5852 1038.08,-19.5164"/>
<polygon fill="midnightblue" stroke="midnightblue" points="938.366,-49.8975 930.036,-56.4435 940.63,-56.5213 938.366,-49.8975"/>
</g>
<!-- Node9 -->
<g id="node9" class="node"><title>Node9</title>
<g id="a_node9"><a xlink:href="sendcoinsentry_8cpp.html" target="_top" xlink:title="src/qt/sendcoinsentry.cpp">
<polygon fill="white" stroke="black" points="1148,-0.5 1148,-19.5 1278,-19.5 1278,-0.5 1148,-0.5"/>
<text text-anchor="middle" x="1213" y="-7.5" font-family="Helvetica,sans-Serif" font-size="10.00">src/qt/sendcoinsentry.cpp</text>
</a>
</g>
</g>
<!-- Node1&#45;&gt;Node9 -->
<g id="edge8" class="edge"><title>Node1&#45;&gt;Node9</title>
<path fill="none" stroke="midnightblue" d="M963.952,-54.6642C1022.16,-44.4592 1110.11,-29.0386 1164.42,-19.5164"/>
<polygon fill="midnightblue" stroke="midnightblue" points="963.049,-51.2691 953.804,-56.4435 964.258,-58.164 963.049,-51.2691"/>
</g>
<!-- Node10 -->
<g id="node10" class="node"><title>Node10</title>
<g id="a_node10"><a xlink:href="transactiontablemodel_8cpp.html" target="_top" xlink:title="src/qt/transactiontablemodel.cpp">
<polygon fill="white" stroke="black" points="1296,-0.5 1296,-19.5 1456,-19.5 1456,-0.5 1296,-0.5"/>
<text text-anchor="middle" x="1376" y="-7.5" font-family="Helvetica,sans-Serif" font-size="10.00">src/qt/transactiontablemodel.cpp</text>
</a>
</g>
</g>
<!-- Node1&#45;&gt;Node10 -->
<g id="edge9" class="edge"><title>Node1&#45;&gt;Node10</title>
<path fill="none" stroke="midnightblue" d="M983.729,-55.9737C1072.27,-45.8222 1214.99,-29.4599 1301.68,-19.5204"/>
<polygon fill="midnightblue" stroke="midnightblue" points="983.276,-52.5027 973.739,-57.119 984.073,-59.4571 983.276,-52.5027"/>
</g>
<!-- Node11 -->
<g id="node11" class="node"><title>Node11</title>
<g id="a_node11"><a xlink:href="transactionview_8cpp.html" target="_top" xlink:title="src/qt/transactionview.cpp">
<polygon fill="white" stroke="black" points="1474,-0.5 1474,-19.5 1606,-19.5 1606,-0.5 1474,-0.5"/>
<text text-anchor="middle" x="1540" y="-7.5" font-family="Helvetica,sans-Serif" font-size="10.00">src/qt/transactionview.cpp</text>
</a>
</g>
</g>
<!-- Node1&#45;&gt;Node11 -->
<g id="edge10" class="edge"><title>Node1&#45;&gt;Node11</title>
<path fill="none" stroke="midnightblue" d="M983.816,-59.6459C1092.29,-52.0536 1293.65,-37.1586 1465,-20 1467.87,-19.7125 1470.8,-19.408 1473.76,-19.0914"/>
<polygon fill="midnightblue" stroke="midnightblue" points="983.345,-56.1702 973.613,-60.3577 983.832,-63.1532 983.345,-56.1702"/>
</g>
<!-- Node12 -->
<g id="node12" class="node"><title>Node12</title>
<g id="a_node12"><a xlink:href="walletmodel_8cpp.html" target="_top" xlink:title="src/qt/walletmodel.cpp">
<polygon fill="white" stroke="black" points="1624.5,-0.5 1624.5,-19.5 1739.5,-19.5 1739.5,-0.5 1624.5,-0.5"/>
<text text-anchor="middle" x="1682" y="-7.5" font-family="Helvetica,sans-Serif" font-size="10.00">src/qt/walletmodel.cpp</text>
</a>
</g>
</g>
<!-- Node1&#45;&gt;Node12 -->
<g id="edge11" class="edge"><title>Node1&#45;&gt;Node12</title>
<path fill="none" stroke="midnightblue" d="M984.021,-61.8059C1115.28,-56.0939 1386.43,-42.5675 1615,-20 1618.04,-19.7002 1621.15,-19.3684 1624.29,-19.0143"/>
<polygon fill="midnightblue" stroke="midnightblue" points="983.509,-58.3247 973.669,-62.2528 983.811,-65.3182 983.509,-58.3247"/>
</g>
</g>
</svg>
