<?xml version="1.0" encoding="UTF-8" standalone="no"?>
<!DOCTYPE svg PUBLIC "-//W3C//DTD SVG 1.1//EN"
 "http://www.w3.org/Graphics/SVG/1.1/DTD/svg11.dtd">
<!-- Generated by graphviz version 2.38.0 (20140413.2041)
 -->
<!-- Title: src/alert.h Pages: 1 -->
<svg width="398pt" height="84pt"
 viewBox="0.00 0.00 398.00 84.00" xmlns="http://www.w3.org/2000/svg" xmlns:xlink="http://www.w3.org/1999/xlink">
<g id="graph0" class="graph" transform="scale(1 1) rotate(0) translate(4 80)">
<title>src/alert.h</title>
<polygon fill="white" stroke="none" points="-4,4 -4,-80 394,-80 394,4 -4,4"/>
<!-- Node1 -->
<g id="node1" class="node"><title>Node1</title>
<polygon fill="#bfbfbf" stroke="black" points="150.5,-56.5 150.5,-75.5 210.5,-75.5 210.5,-56.5 150.5,-56.5"/>
<text text-anchor="middle" x="180.5" y="-63.5" font-family="Helvetica,sans-Serif" font-size="10.00">src/alert.h</text>
</g>
<!-- Node2 -->
<g id="node2" class="node"><title>Node2</title>
<g id="a_node2"><a xlink:href="alert_8cpp.html" target="_top" xlink:title="src/alert.cpp">
<polygon fill="white" stroke="black" points="0,-0.5 0,-19.5 71,-19.5 71,-0.5 0,-0.5"/>
<text text-anchor="middle" x="35.5" y="-7.5" font-family="Helvetica,sans-Serif" font-size="10.00">src/alert.cpp</text>
</a>
</g>
</g>
<!-- Node1&#45;&gt;Node2 -->
<g id="edge1" class="edge"><title>Node1&#45;&gt;Node2</title>
<path fill="none" stroke="midnightblue" d="M148.025,-52.9058C120.764,-42.7536 82.5076,-28.5063 58.3682,-19.5164"/>
<polygon fill="midnightblue" stroke="midnightblue" points="146.932,-56.2334 157.524,-56.4435 149.375,-49.6736 146.932,-56.2334"/>
</g>
<!-- Node3 -->
<g id="node3" class="node"><title>Node3</title>
<g id="a_node3"><a xlink:href="main_8cpp.html" target="_top" xlink:title="src/main.cpp">
<polygon fill="white" stroke="black" points="89,-0.5 89,-19.5 162,-19.5 162,-0.5 89,-0.5"/>
<text text-anchor="middle" x="125.5" y="-7.5" font-family="Helvetica,sans-Serif" font-size="10.00">src/main.cpp</text>
</a>
</g>
</g>
<!-- Node1&#45;&gt;Node3 -->
<g id="edge2" class="edge"><title>Node1&#45;&gt;Node3</title>
<path fill="none" stroke="midnightblue" d="M164.206,-49.0024C154.459,-39.4329 142.447,-27.6389 134.413,-19.7511"/>
<polygon fill="midnightblue" stroke="midnightblue" points="161.83,-51.5746 171.418,-56.083 166.734,-46.5796 161.83,-51.5746"/>
</g>
<!-- Node4 -->
<g id="node4" class="node"><title>Node4</title>
<g id="a_node4"><a xlink:href="clientmodel_8cpp.html" target="_top" xlink:title="src/qt/clientmodel.cpp">
<polygon fill="white" stroke="black" points="180,-0.5 180,-19.5 293,-19.5 293,-0.5 180,-0.5"/>
<text text-anchor="middle" x="236.5" y="-7.5" font-family="Helvetica,sans-Serif" font-size="10.00">src/qt/clientmodel.cpp</text>
</a>
</g>
</g>
<!-- Node1&#45;&gt;Node4 -->
<g id="edge3" class="edge"><title>Node1&#45;&gt;Node4</title>
<path fill="none" stroke="midnightblue" d="M196.83,-49.2533C206.765,-39.6731 219.088,-27.7906 227.339,-19.8339"/>
<polygon fill="midnightblue" stroke="midnightblue" points="194.266,-46.8631 189.497,-56.324 199.125,-51.902 194.266,-46.8631"/>
</g>
<!-- Node5 -->
<g id="node5" class="node"><title>Node5</title>
<g id="a_node5"><a xlink:href="rpcnet_8cpp.html" target="_top" xlink:title="src/rpcnet.cpp">
<polygon fill="white" stroke="black" points="311,-0.5 311,-19.5 390,-19.5 390,-0.5 311,-0.5"/>
<text text-anchor="middle" x="350.5" y="-7.5" font-family="Helvetica,sans-Serif" font-size="10.00">src/rpcnet.cpp</text>
</a>
</g>
</g>
<!-- Node1&#45;&gt;Node5 -->
<g id="edge4" class="edge"><title>Node1&#45;&gt;Node5</title>
<path fill="none" stroke="midnightblue" d="M217.319,-53.3044C249.352,-43.1294 295.015,-28.6246 323.689,-19.5164"/>
<polygon fill="midnightblue" stroke="midnightblue" points="215.908,-50.0803 207.437,-56.4435 218.027,-56.7518 215.908,-50.0803"/>
</g>
</g>
</svg>
