<?xml version="1.0" encoding="UTF-8" standalone="no"?>
<!DOCTYPE svg PUBLIC "-//W3C//DTD SVG 1.1//EN"
 "http://www.w3.org/Graphics/SVG/1.1/DTD/svg11.dtd">
<!-- Generated by graphviz version 2.38.0 (20140413.2041)
 -->
<!-- Title: src/allocators.h Pages: 1 -->
<svg width="553pt" height="84pt"
 viewBox="0.00 0.00 552.50 84.00" xmlns="http://www.w3.org/2000/svg" xmlns:xlink="http://www.w3.org/1999/xlink">
<g id="graph0" class="graph" transform="scale(1 1) rotate(0) translate(4 80)">
<title>src/allocators.h</title>
<polygon fill="white" stroke="none" points="-4,4 -4,-80 548.5,-80 548.5,4 -4,4"/>
<!-- Node1 -->
<g id="node1" class="node"><title>Node1</title>
<polygon fill="#bfbfbf" stroke="black" points="148,-56.5 148,-75.5 232,-75.5 232,-56.5 148,-56.5"/>
<text text-anchor="middle" x="190" y="-63.5" font-family="Helvetica,sans-Serif" font-size="10.00">src/allocators.h</text>
</g>
<!-- Node2 -->
<g id="node2" class="node"><title>Node2</title>
<polygon fill="white" stroke="#bfbfbf" points="0,-0.5 0,-19.5 36,-19.5 36,-0.5 0,-0.5"/>
<text text-anchor="middle" x="18" y="-7.5" font-family="Helvetica,sans-Serif" font-size="10.00">map</text>
</g>
<!-- Node1&#45;&gt;Node2 -->
<g id="edge1" class="edge"><title>Node1&#45;&gt;Node2</title>
<path fill="none" stroke="midnightblue" d="M161.877,-56.462C134.567,-48.1291 91.6988,-34.9407 46.0594,-20.2972"/>
<polygon fill="midnightblue" stroke="midnightblue" points="46.8744,-16.8828 36.283,-17.1516 44.7303,-23.5463 46.8744,-16.8828"/>
</g>
<!-- Node3 -->
<g id="node3" class="node"><title>Node3</title>
<polygon fill="white" stroke="#bfbfbf" points="54.5,-0.5 54.5,-19.5 95.5,-19.5 95.5,-0.5 54.5,-0.5"/>
<text text-anchor="middle" x="75" y="-7.5" font-family="Helvetica,sans-Serif" font-size="10.00">string</text>
</g>
<!-- Node1&#45;&gt;Node3 -->
<g id="edge2" class="edge"><title>Node1&#45;&gt;Node3</title>
<path fill="none" stroke="midnightblue" d="M171.778,-56.4435C153.104,-47.6751 123.844,-33.9355 102.383,-23.8579"/>
<polygon fill="midnightblue" stroke="midnightblue" points="103.676,-20.5988 93.1368,-19.5164 100.701,-26.935 103.676,-20.5988"/>
</g>
<!-- Node4 -->
<g id="node4" class="node"><title>Node4</title>
<polygon fill="white" stroke="#bfbfbf" points="113.5,-0.5 113.5,-19.5 162.5,-19.5 162.5,-0.5 113.5,-0.5"/>
<text text-anchor="middle" x="138" y="-7.5" font-family="Helvetica,sans-Serif" font-size="10.00">string.h</text>
</g>
<!-- Node1&#45;&gt;Node4 -->
<g id="edge3" class="edge"><title>Node1&#45;&gt;Node4</title>
<path fill="none" stroke="midnightblue" d="M181.413,-56.083C173.841,-48.2195 162.622,-36.5688 153.486,-27.0813"/>
<polygon fill="midnightblue" stroke="midnightblue" points="155.885,-24.5266 146.427,-19.7511 150.842,-29.3821 155.885,-24.5266"/>
</g>
<!-- Node5 -->
<g id="node5" class="node"><title>Node5</title>
<polygon fill="white" stroke="#bfbfbf" points="181,-0.5 181,-19.5 303,-19.5 303,-0.5 181,-0.5"/>
<text text-anchor="middle" x="242" y="-7.5" font-family="Helvetica,sans-Serif" font-size="10.00">boost/thread/mutex.hpp</text>
</g>
<!-- Node1&#45;&gt;Node5 -->
<g id="edge4" class="edge"><title>Node1&#45;&gt;Node5</title>
<path fill="none" stroke="midnightblue" d="M198.587,-56.083C206.159,-48.2195 217.378,-36.5688 226.514,-27.0813"/>
<polygon fill="midnightblue" stroke="midnightblue" points="229.158,-29.3821 233.573,-19.7511 224.115,-24.5266 229.158,-29.3821"/>
</g>
<!-- Node6 -->
<g id="node6" class="node"><title>Node6</title>
<polygon fill="white" stroke="#bfbfbf" points="321,-0.5 321,-19.5 437,-19.5 437,-0.5 321,-0.5"/>
<text text-anchor="middle" x="379" y="-7.5" font-family="Helvetica,sans-Serif" font-size="10.00">boost/thread/once.hpp</text>
</g>
<!-- Node1&#45;&gt;Node6 -->
<g id="edge5" class="edge"><title>Node1&#45;&gt;Node6</title>
<path fill="none" stroke="midnightblue" d="M219.948,-56.4435C252.158,-47.2406 303.534,-32.5617 339.142,-22.3879"/>
<polygon fill="midnightblue" stroke="midnightblue" points="340.539,-25.629 349.192,-19.5164 338.616,-18.8984 340.539,-25.629"/>
</g>
<!-- Node7 -->
<g id="node7" class="node"><title>Node7</title>
<polygon fill="white" stroke="#bfbfbf" points="455.5,-0.5 455.5,-19.5 544.5,-19.5 544.5,-0.5 455.5,-0.5"/>
<text text-anchor="middle" x="500" y="-7.5" font-family="Helvetica,sans-Serif" font-size="10.00">openssl/crypto.h</text>
</g>
<!-- Node1&#45;&gt;Node7 -->
<g id="edge6" class="edge"><title>Node1&#45;&gt;Node7</title>
<path fill="none" stroke="midnightblue" d="M232.131,-57.6611C287.373,-48.0383 384.391,-31.1383 445.266,-20.5344"/>
<polygon fill="midnightblue" stroke="midnightblue" points="446.201,-23.9241 455.452,-18.7599 445,-17.028 446.201,-23.9241"/>
</g>
</g>
</svg>
