<?xml version="1.0" encoding="UTF-8" standalone="no"?>
<!DOCTYPE svg PUBLIC "-//W3C//DTD SVG 1.1//EN"
 "http://www.w3.org/Graphics/SVG/1.1/DTD/svg11.dtd">
<!-- Generated by graphviz version 2.38.0 (20140413.2041)
 -->
<!-- Title: UnlockObject Pages: 1 -->
<svg width="353pt" height="104pt"
 viewBox="0.00 0.00 353.00 104.00" xmlns="http://www.w3.org/2000/svg" xmlns:xlink="http://www.w3.org/1999/xlink">
<g id="graph0" class="graph" transform="scale(1 1) rotate(0) translate(4 100)">
<title>UnlockObject</title>
<polygon fill="white" stroke="none" points="-4,4 -4,-100 349,-100 349,4 -4,4"/>
<!-- Node1 -->
<g id="node1" class="node"><title>Node1</title>
<polygon fill="#bfbfbf" stroke="black" points="0,-38.5 0,-57.5 76,-57.5 76,-38.5 0,-38.5"/>
<text text-anchor="middle" x="38" y="-45.5" font-family="Helvetica,sans-Serif" font-size="10.00">UnlockObject</text>
</g>
<!-- Node2 -->
<g id="node2" class="node"><title>Node2</title>
<g id="a_node2"><a xlink:href="class_c_key.html#abb0091d4390dcece3c56ea4c1fdd6036" target="_top" xlink:title="CKey::Derive">
<polygon fill="white" stroke="black" points="128,-76.5 128,-95.5 203,-95.5 203,-76.5 128,-76.5"/>
<text text-anchor="middle" x="165.5" y="-83.5" font-family="Helvetica,sans-Serif" font-size="10.00">CKey::Derive</text>
</a>
</g>
</g>
<!-- Node1&#45;&gt;Node2 -->
<g id="edge1" class="edge"><title>Node1&#45;&gt;Node2</title>
<path fill="none" stroke="midnightblue" d="M80.3995,-60.5353C97.4723,-65.7048 116.939,-71.5991 132.841,-76.4141"/>
<polygon fill="midnightblue" stroke="midnightblue" points="81.2541,-57.1372 70.6689,-57.589 79.2255,-63.8368 81.2541,-57.1372"/>
</g>
<!-- Node4 -->
<g id="node4" class="node"><title>Node4</title>
<g id="a_node4"><a xlink:href="struct_c_ext_key.html#a8cd6ecafdd649082601d7eebbec79688" target="_top" xlink:title="CExtKey::SetMaster">
<polygon fill="white" stroke="black" points="112,-38.5 112,-57.5 219,-57.5 219,-38.5 112,-38.5"/>
<text text-anchor="middle" x="165.5" y="-45.5" font-family="Helvetica,sans-Serif" font-size="10.00">CExtKey::SetMaster</text>
</a>
</g>
</g>
<!-- Node1&#45;&gt;Node4 -->
<g id="edge3" class="edge"><title>Node1&#45;&gt;Node4</title>
<path fill="none" stroke="midnightblue" d="M86.5175,-48C94.7672,-48 103.391,-48 111.77,-48"/>
<polygon fill="midnightblue" stroke="midnightblue" points="86.3144,-44.5001 76.3143,-48 86.3143,-51.5001 86.3144,-44.5001"/>
</g>
<!-- Node5 -->
<g id="node5" class="node"><title>Node5</title>
<g id="a_node5"><a xlink:href="class_c_key.html#a57d5b254748cef054c40f99c1c339147" target="_top" xlink:title="CKey::~CKey">
<polygon fill="white" stroke="black" points="127,-0.5 127,-19.5 204,-19.5 204,-0.5 127,-0.5"/>
<text text-anchor="middle" x="165.5" y="-7.5" font-family="Helvetica,sans-Serif" font-size="10.00">CKey::~CKey</text>
</a>
</g>
</g>
<!-- Node1&#45;&gt;Node5 -->
<g id="edge4" class="edge"><title>Node1&#45;&gt;Node5</title>
<path fill="none" stroke="midnightblue" d="M80.3995,-35.4647C97.4723,-30.2952 116.939,-24.4009 132.841,-19.5859"/>
<polygon fill="midnightblue" stroke="midnightblue" points="79.2255,-32.1632 70.6689,-38.411 81.2541,-38.8628 79.2255,-32.1632"/>
</g>
<!-- Node3 -->
<g id="node3" class="node"><title>Node3</title>
<g id="a_node3"><a xlink:href="struct_c_ext_key.html#a2fa3a39434ae09efbbd4058d1d081aa2" target="_top" xlink:title="CExtKey::Derive">
<polygon fill="white" stroke="black" points="255,-76.5 255,-95.5 345,-95.5 345,-76.5 255,-76.5"/>
<text text-anchor="middle" x="300" y="-83.5" font-family="Helvetica,sans-Serif" font-size="10.00">CExtKey::Derive</text>
</a>
</g>
</g>
<!-- Node2&#45;&gt;Node3 -->
<g id="edge2" class="edge"><title>Node2&#45;&gt;Node3</title>
<path fill="none" stroke="midnightblue" d="M213.082,-86C226.55,-86 241.211,-86 254.545,-86"/>
<polygon fill="midnightblue" stroke="midnightblue" points="213.057,-82.5001 203.057,-86 213.057,-89.5001 213.057,-82.5001"/>
</g>
</g>
</svg>
