<?xml version="1.0" encoding="UTF-8" standalone="no"?>
<!DOCTYPE svg PUBLIC "-//W3C//DTD SVG 1.1//EN"
 "http://www.w3.org/Graphics/SVG/1.1/DTD/svg11.dtd">
<!-- Generated by graphviz version 2.38.0 (20140413.2041)
 -->
<!-- Title: DecodeBase58Check Pages: 1 -->
<svg width="242pt" height="104pt"
 viewBox="0.00 0.00 242.00 104.00" xmlns="http://www.w3.org/2000/svg" xmlns:xlink="http://www.w3.org/1999/xlink">
<g id="graph0" class="graph" transform="scale(1 1) rotate(0) translate(4 100)">
<title>DecodeBase58Check</title>
<polygon fill="white" stroke="none" points="-4,4 -4,-100 238,-100 238,4 -4,4"/>
<!-- Node1 -->
<g id="node1" class="node"><title>Node1</title>
<polygon fill="#bfbfbf" stroke="black" points="0,-38.5 0,-57.5 113,-57.5 113,-38.5 0,-38.5"/>
<text text-anchor="middle" x="56.5" y="-45.5" font-family="Helvetica,sans-Serif" font-size="10.00">DecodeBase58Check</text>
</g>
<!-- Node2 -->
<g id="node2" class="node"><title>Node2</title>
<g id="a_node2"><a xlink:href="base58_8cpp.html#a0f74d1d6e7e982cad4b0e538acea4538" target="_top" xlink:title="Decode a base58&#45;encoded string (psz) into a byte vector (vchRet). ">
<polygon fill="white" stroke="black" points="149,-76.5 149,-95.5 234,-95.5 234,-76.5 149,-76.5"/>
<text text-anchor="middle" x="191.5" y="-83.5" font-family="Helvetica,sans-Serif" font-size="10.00">DecodeBase58</text>
</a>
</g>
</g>
<!-- Node1&#45;&gt;Node2 -->
<g id="edge1" class="edge"><title>Node1&#45;&gt;Node2</title>
<path fill="none" stroke="midnightblue" d="M91.0615,-57.589C108.073,-62.4494 128.932,-68.4091 147.145,-73.6127"/>
<polygon fill="midnightblue" stroke="midnightblue" points="146.372,-77.0321 156.949,-76.4141 148.296,-70.3014 146.372,-77.0321"/>
</g>
<!-- Node3 -->
<g id="node3" class="node"><title>Node3</title>
<g id="a_node3"><a xlink:href="hash_8h.html#ab3f6c437460137530d86e09c2c102e99" target="_top" xlink:title="Hash">
<polygon fill="white" stroke="black" points="171.5,-38.5 171.5,-57.5 211.5,-57.5 211.5,-38.5 171.5,-38.5"/>
<text text-anchor="middle" x="191.5" y="-45.5" font-family="Helvetica,sans-Serif" font-size="10.00">Hash</text>
</a>
</g>
</g>
<!-- Node1&#45;&gt;Node3 -->
<g id="edge2" class="edge"><title>Node1&#45;&gt;Node3</title>
<path fill="none" stroke="midnightblue" d="M113.133,-48C129.697,-48 147.184,-48 161.335,-48"/>
<polygon fill="midnightblue" stroke="midnightblue" points="161.436,-51.5001 171.436,-48 161.435,-44.5001 161.436,-51.5001"/>
</g>
<!-- Node4 -->
<g id="node4" class="node"><title>Node4</title>
<g id="a_node4"><a xlink:href="classbase__uint.html#a76539ef6be800bc02e4038f457a4f74a" target="_top" xlink:title="base_uint::end">
<polygon fill="white" stroke="black" points="150.5,-0.5 150.5,-19.5 232.5,-19.5 232.5,-0.5 150.5,-0.5"/>
<text text-anchor="middle" x="191.5" y="-7.5" font-family="Helvetica,sans-Serif" font-size="10.00">base_uint::end</text>
</a>
</g>
</g>
<!-- Node1&#45;&gt;Node4 -->
<g id="edge3" class="edge"><title>Node1&#45;&gt;Node4</title>
<path fill="none" stroke="midnightblue" d="M91.0615,-38.411C108.073,-33.5506 128.932,-27.5909 147.145,-22.3873"/>
<polygon fill="midnightblue" stroke="midnightblue" points="148.296,-25.6986 156.949,-19.5859 146.372,-18.9679 148.296,-25.6986"/>
</g>
</g>
</svg>
