<?xml version="1.0" encoding="UTF-8" standalone="no"?>
<!DOCTYPE svg PUBLIC "-//W3C//DTD SVG 1.1//EN"
 "http://www.w3.org/Graphics/SVG/1.1/DTD/svg11.dtd">
<!-- Generated by graphviz version 2.38.0 (20140413.2041)
 -->
<!-- Title: EncodeBase58Check Pages: 1 -->
<svg width="1139pt" height="665pt"
 viewBox="0.00 0.00 1139.00 665.00" xmlns="http://www.w3.org/2000/svg" xmlns:xlink="http://www.w3.org/1999/xlink">
<g id="graph0" class="graph" transform="scale(1 1) rotate(0) translate(4 661)">
<title>EncodeBase58Check</title>
<polygon fill="white" stroke="none" points="-4,4 -4,-661 1135,-661 1135,4 -4,4"/>
<!-- Node1 -->
<g id="node1" class="node"><title>Node1</title>
<polygon fill="#bfbfbf" stroke="black" points="0,-327 0,-346 113,-346 113,-327 0,-327"/>
<text text-anchor="middle" x="56.5" y="-334" font-family="Helvetica,sans-Serif" font-size="10.00">EncodeBase58Check</text>
</g>
<!-- Node2 -->
<g id="node2" class="node"><title>Node2</title>
<g id="a_node2"><a xlink:href="class_c_base58_data.html#a9a47b10dadff15b8d6a6d0e63ce3ae32" target="_top" xlink:title="CBase58Data::ToString">
<polygon fill="white" stroke="black" points="149,-327 149,-346 271,-346 271,-327 149,-327"/>
<text text-anchor="middle" x="210" y="-334" font-family="Helvetica,sans-Serif" font-size="10.00">CBase58Data::ToString</text>
</a>
</g>
</g>
<!-- Node1&#45;&gt;Node2 -->
<g id="edge1" class="edge"><title>Node1&#45;&gt;Node2</title>
<path fill="none" stroke="midnightblue" d="M123.302,-336.5C131.798,-336.5 140.463,-336.5 148.861,-336.5"/>
<polygon fill="midnightblue" stroke="midnightblue" points="123.053,-333 113.053,-336.5 123.053,-340 123.053,-333"/>
</g>
<!-- Node3 -->
<g id="node3" class="node"><title>Node3</title>
<g id="a_node3"><a xlink:href="class_address_table_priv.html#af093c98444e8f734e08cfc2ce5b9b116" target="_top" xlink:title="AddressTablePriv::refresh\lAddressTable">
<polygon fill="white" stroke="black" points="307,-607.5 307,-637.5 439,-637.5 439,-607.5 307,-607.5"/>
<text text-anchor="start" x="315" y="-625.5" font-family="Helvetica,sans-Serif" font-size="10.00">AddressTablePriv::refresh</text>
<text text-anchor="middle" x="373" y="-614.5" font-family="Helvetica,sans-Serif" font-size="10.00">AddressTable</text>
</a>
</g>
</g>
<!-- Node2&#45;&gt;Node3 -->
<g id="edge2" class="edge"><title>Node2&#45;&gt;Node3</title>
<path fill="none" stroke="midnightblue" d="M213.435,-356.009C220.147,-402.246 242.876,-519.897 307,-590.5 313.258,-597.39 321.329,-602.971 329.642,-607.423"/>
<polygon fill="midnightblue" stroke="midnightblue" points="216.902,-355.532 212.087,-346.095 209.966,-356.475 216.902,-355.532"/>
</g>
<!-- Node5 -->
<g id="node5" class="node"><title>Node5</title>
<g id="a_node5"><a xlink:href="class_coin_control_dialog.html#aadea33050e5c1efd5eae8d2fcfa721f9" target="_top" xlink:title="CoinControlDialog::\lupdateView">
<polygon fill="white" stroke="black" points="480,-559.5 480,-589.5 583,-589.5 583,-559.5 480,-559.5"/>
<text text-anchor="start" x="488" y="-577.5" font-family="Helvetica,sans-Serif" font-size="10.00">CoinControlDialog::</text>
<text text-anchor="middle" x="531.5" y="-566.5" font-family="Helvetica,sans-Serif" font-size="10.00">updateView</text>
</a>
</g>
</g>
<!-- Node2&#45;&gt;Node5 -->
<g id="edge4" class="edge"><title>Node2&#45;&gt;Node5</title>
<path fill="none" stroke="midnightblue" d="M212.941,-356.273C218.474,-400.806 238.648,-508.862 307,-557.5 357.254,-593.26 430.955,-591.256 479.805,-584.542"/>
<polygon fill="midnightblue" stroke="midnightblue" points="216.4,-355.715 211.806,-346.168 209.444,-356.496 216.4,-355.715"/>
</g>
<!-- Node12 -->
<g id="node12" class="node"><title>Node12</title>
<g id="a_node12"><a xlink:href="class_transaction_record.html#a9f5db4465fa5fdcc3f9af525096bcdb9" target="_top" xlink:title="TransactionRecord::\ldecomposeTransaction">
<polygon fill="white" stroke="black" points="313,-479.5 313,-509.5 433,-509.5 433,-479.5 313,-479.5"/>
<text text-anchor="start" x="321" y="-497.5" font-family="Helvetica,sans-Serif" font-size="10.00">TransactionRecord::</text>
<text text-anchor="middle" x="373" y="-486.5" font-family="Helvetica,sans-Serif" font-size="10.00">decomposeTransaction</text>
</a>
</g>
</g>
<!-- Node2&#45;&gt;Node12 -->
<g id="edge12" class="edge"><title>Node2&#45;&gt;Node12</title>
<path fill="none" stroke="midnightblue" d="M220.21,-355.633C234.849,-384.177 266.012,-437.926 307,-469.5 311.981,-473.337 317.62,-476.646 323.445,-479.485"/>
<polygon fill="midnightblue" stroke="midnightblue" points="223.173,-353.731 215.577,-346.345 216.909,-356.856 223.173,-353.731"/>
</g>
<!-- Node18 -->
<g id="node18" class="node"><title>Node18</title>
<g id="a_node18"><a xlink:href="class_wallet_model.html#aadf8de5a584594abdb299b463bd7578f" target="_top" xlink:title="WalletModel::listCoins">
<polygon fill="white" stroke="black" points="315.5,-529 315.5,-548 430.5,-548 430.5,-529 315.5,-529"/>
<text text-anchor="middle" x="373" y="-536" font-family="Helvetica,sans-Serif" font-size="10.00">WalletModel::listCoins</text>
</a>
</g>
</g>
<!-- Node2&#45;&gt;Node18 -->
<g id="edge18" class="edge"><title>Node2&#45;&gt;Node18</title>
<path fill="none" stroke="midnightblue" d="M215.841,-356.306C226.057,-393.872 253.413,-475.63 307,-519.5 311.731,-523.373 317.221,-526.456 322.968,-528.911"/>
<polygon fill="midnightblue" stroke="midnightblue" points="219.108,-354.96 213.211,-346.157 212.332,-356.716 219.108,-354.96"/>
</g>
<!-- Node19 -->
<g id="node19" class="node"><title>Node19</title>
<g id="a_node19"><a xlink:href="rpcdump_8cpp.html#a4010fb238298e15c540d3e5ecd60f858" target="_top" xlink:title="dumpprivkey">
<polygon fill="white" stroke="black" points="336.5,-441 336.5,-460 409.5,-460 409.5,-441 336.5,-441"/>
<text text-anchor="middle" x="373" y="-448" font-family="Helvetica,sans-Serif" font-size="10.00">dumpprivkey</text>
</a>
</g>
</g>
<!-- Node2&#45;&gt;Node19 -->
<g id="edge20" class="edge"><title>Node2&#45;&gt;Node19</title>
<path fill="none" stroke="midnightblue" d="M224.181,-354.09C241.083,-375.439 272.373,-411.106 307,-431.5 315.915,-436.751 326.381,-440.637 336.279,-443.476"/>
<polygon fill="midnightblue" stroke="midnightblue" points="226.932,-351.925 218.044,-346.159 221.396,-356.209 226.932,-351.925"/>
</g>
<!-- Node20 -->
<g id="node20" class="node"><title>Node20</title>
<g id="a_node20"><a xlink:href="rpcdump_8cpp.html#a831ddf746d4f2500ba6f6c07f63445cd" target="_top" xlink:title="dumpwallet">
<polygon fill="white" stroke="black" points="339.5,-403 339.5,-422 406.5,-422 406.5,-403 339.5,-403"/>
<text text-anchor="middle" x="373" y="-410" font-family="Helvetica,sans-Serif" font-size="10.00">dumpwallet</text>
</a>
</g>
</g>
<!-- Node2&#45;&gt;Node20 -->
<g id="edge21" class="edge"><title>Node2&#45;&gt;Node20</title>
<path fill="none" stroke="midnightblue" d="M233.21,-351.88C252.137,-364.441 280.419,-381.944 307,-393.5 317.243,-397.953 328.835,-401.718 339.364,-404.691"/>
<polygon fill="midnightblue" stroke="midnightblue" points="234.968,-348.844 224.719,-346.159 231.056,-354.649 234.968,-348.844"/>
</g>
<!-- Node21 -->
<g id="node21" class="node"><title>Node21</title>
<g id="a_node21"><a xlink:href="rpcmisc_8cpp.html#aea4124dcc1390de557db6128da0697f4" target="_top" xlink:title="validateaddress">
<polygon fill="white" stroke="black" points="329.5,-365 329.5,-384 416.5,-384 416.5,-365 329.5,-365"/>
<text text-anchor="middle" x="373" y="-372" font-family="Helvetica,sans-Serif" font-size="10.00">validateaddress</text>
</a>
</g>
</g>
<!-- Node2&#45;&gt;Node21 -->
<g id="edge22" class="edge"><title>Node2&#45;&gt;Node21</title>
<path fill="none" stroke="midnightblue" d="M261.402,-348.396C284.032,-353.737 310.37,-359.954 331.665,-364.98"/>
<polygon fill="midnightblue" stroke="midnightblue" points="262.164,-344.98 251.627,-346.089 260.556,-351.793 262.164,-344.98"/>
</g>
<!-- Node22 -->
<g id="node22" class="node"><title>Node22</title>
<g id="a_node22"><a xlink:href="rpcmisc_8cpp.html#a10f145bcadd06025abb3b065e2fa7a84" target="_top" xlink:title="createmultisig">
<polygon fill="white" stroke="black" points="334,-327 334,-346 412,-346 412,-327 334,-327"/>
<text text-anchor="middle" x="373" y="-334" font-family="Helvetica,sans-Serif" font-size="10.00">createmultisig</text>
</a>
</g>
</g>
<!-- Node2&#45;&gt;Node22 -->
<g id="edge23" class="edge"><title>Node2&#45;&gt;Node22</title>
<path fill="none" stroke="midnightblue" d="M281.563,-336.5C299.485,-336.5 318.074,-336.5 333.703,-336.5"/>
<polygon fill="midnightblue" stroke="midnightblue" points="281.409,-333 271.409,-336.5 281.408,-340 281.409,-333"/>
</g>
<!-- Node23 -->
<g id="node23" class="node"><title>Node23</title>
<g id="a_node23"><a xlink:href="rpcwallet_8cpp.html#aead824d845d670fbd8f187ebd4f9a535" target="_top" xlink:title="getnewaddress">
<polygon fill="white" stroke="black" points="331,-289 331,-308 415,-308 415,-289 331,-289"/>
<text text-anchor="middle" x="373" y="-296" font-family="Helvetica,sans-Serif" font-size="10.00">getnewaddress</text>
</a>
</g>
</g>
<!-- Node2&#45;&gt;Node23 -->
<g id="edge24" class="edge"><title>Node2&#45;&gt;Node23</title>
<path fill="none" stroke="midnightblue" d="M261.402,-324.604C284.032,-319.263 310.37,-313.046 331.665,-308.02"/>
<polygon fill="midnightblue" stroke="midnightblue" points="260.556,-321.207 251.627,-326.911 262.164,-328.02 260.556,-321.207"/>
</g>
<!-- Node24 -->
<g id="node24" class="node"><title>Node24</title>
<g id="a_node24"><a xlink:href="rpcwallet_8cpp.html#a92145bcb3cfb45eb47dca18f1c94c434" target="_top" xlink:title="getaccountaddress">
<polygon fill="white" stroke="black" points="322.5,-251 322.5,-270 423.5,-270 423.5,-251 322.5,-251"/>
<text text-anchor="middle" x="373" y="-258" font-family="Helvetica,sans-Serif" font-size="10.00">getaccountaddress</text>
</a>
</g>
</g>
<!-- Node2&#45;&gt;Node24 -->
<g id="edge25" class="edge"><title>Node2&#45;&gt;Node24</title>
<path fill="none" stroke="midnightblue" d="M233.21,-321.12C252.137,-308.559 280.419,-291.056 307,-279.5 315.302,-275.891 324.491,-272.734 333.281,-270.083"/>
<polygon fill="midnightblue" stroke="midnightblue" points="231.056,-318.351 224.719,-326.841 234.968,-324.156 231.056,-318.351"/>
</g>
<!-- Node25 -->
<g id="node25" class="node"><title>Node25</title>
<g id="a_node25"><a xlink:href="rpcwallet_8cpp.html#ae71809202b4dcc13d2034c5c72af34da" target="_top" xlink:title="getrawchangeaddress">
<polygon fill="white" stroke="black" points="315.5,-213 315.5,-232 430.5,-232 430.5,-213 315.5,-213"/>
<text text-anchor="middle" x="373" y="-220" font-family="Helvetica,sans-Serif" font-size="10.00">getrawchangeaddress</text>
</a>
</g>
</g>
<!-- Node2&#45;&gt;Node25 -->
<g id="edge26" class="edge"><title>Node2&#45;&gt;Node25</title>
<path fill="none" stroke="midnightblue" d="M224.181,-318.91C241.083,-297.561 272.373,-261.894 307,-241.5 313.483,-237.681 320.788,-234.585 328.097,-232.087"/>
<polygon fill="midnightblue" stroke="midnightblue" points="221.396,-316.791 218.044,-326.841 226.932,-321.075 221.396,-316.791"/>
</g>
<!-- Node26 -->
<g id="node26" class="node"><title>Node26</title>
<g id="a_node26"><a xlink:href="rpcwallet_8cpp.html#af7f6462458033e5fcd024bc4fecf2da8" target="_top" xlink:title="getaddressesbyaccount">
<polygon fill="white" stroke="black" points="312,-175 312,-194 434,-194 434,-175 312,-175"/>
<text text-anchor="middle" x="373" y="-182" font-family="Helvetica,sans-Serif" font-size="10.00">getaddressesbyaccount</text>
</a>
</g>
</g>
<!-- Node2&#45;&gt;Node26 -->
<g id="edge27" class="edge"><title>Node2&#45;&gt;Node26</title>
<path fill="none" stroke="midnightblue" d="M219.681,-317.357C233.81,-288.357 264.533,-233.497 307,-203.5 312.474,-199.634 318.732,-196.547 325.155,-194.085"/>
<polygon fill="midnightblue" stroke="midnightblue" points="216.338,-316.241 215.235,-326.778 222.668,-319.228 216.338,-316.241"/>
</g>
<!-- Node27 -->
<g id="node27" class="node"><title>Node27</title>
<g id="a_node27"><a xlink:href="rpcwallet_8cpp.html#a01e8a83cbd4209f10c71719383d7ca2d" target="_top" xlink:title="addmultisigaddress">
<polygon fill="white" stroke="black" points="321.5,-137 321.5,-156 424.5,-156 424.5,-137 321.5,-137"/>
<text text-anchor="middle" x="373" y="-144" font-family="Helvetica,sans-Serif" font-size="10.00">addmultisigaddress</text>
</a>
</g>
</g>
<!-- Node2&#45;&gt;Node27 -->
<g id="edge28" class="edge"><title>Node2&#45;&gt;Node27</title>
<path fill="none" stroke="midnightblue" d="M216.542,-316.976C227.65,-281.414 256.045,-206.02 307,-165.5 311.877,-161.622 317.521,-158.535 323.405,-156.078"/>
<polygon fill="midnightblue" stroke="midnightblue" points="213.161,-316.067 213.644,-326.651 219.866,-318.076 213.161,-316.067"/>
</g>
<!-- Node28 -->
<g id="node28" class="node"><title>Node28</title>
<g id="a_node28"><a xlink:href="rpcwallet_8cpp.html#a0cc958f67a8d6d0002cb4fee19eddb5c" target="_top" xlink:title="ListReceived">
<polygon fill="white" stroke="black" points="336,-99 336,-118 410,-118 410,-99 336,-99"/>
<text text-anchor="middle" x="373" y="-106" font-family="Helvetica,sans-Serif" font-size="10.00">ListReceived</text>
</a>
</g>
</g>
<!-- Node2&#45;&gt;Node28 -->
<g id="edge29" class="edge"><title>Node2&#45;&gt;Node28</title>
<path fill="none" stroke="midnightblue" d="M214.353,-317.046C222.493,-275.801 247.205,-179.135 307,-127.5 315.098,-120.508 325.651,-116.085 335.892,-113.29"/>
<polygon fill="midnightblue" stroke="midnightblue" points="210.905,-316.444 212.518,-326.916 217.787,-317.724 210.905,-316.444"/>
</g>
<!-- Node31 -->
<g id="node31" class="node"><title>Node31</title>
<g id="a_node31"><a xlink:href="class_c_wallet.html#ac6542da8493cbb958068b7a01c05b631" target="_top" xlink:title="CWallet::DelAddressBook">
<polygon fill="white" stroke="black" points="307,-55 307,-74 439,-74 439,-55 307,-55"/>
<text text-anchor="middle" x="373" y="-62" font-family="Helvetica,sans-Serif" font-size="10.00">CWallet::DelAddressBook</text>
</a>
</g>
</g>
<!-- Node2&#45;&gt;Node31 -->
<g id="edge32" class="edge"><title>Node2&#45;&gt;Node31</title>
<path fill="none" stroke="midnightblue" d="M213.235,-316.848C219.48,-270.836 241.206,-155.063 307,-89.5 313.852,-82.6726 322.768,-77.6709 331.791,-74.0206"/>
<polygon fill="midnightblue" stroke="midnightblue" points="209.738,-316.611 211.964,-326.969 216.683,-317.484 209.738,-316.611"/>
</g>
<!-- Node4 -->
<g id="node4" class="node"><title>Node4</title>
<g id="a_node4"><a xlink:href="class_address_table_model.html#a273787011f7e387cc68b8282539fb9ef" target="_top" xlink:title="AddressTableModel::\lAddressTableModel">
<polygon fill="white" stroke="black" points="476,-608.5 476,-638.5 587,-638.5 587,-608.5 476,-608.5"/>
<text text-anchor="start" x="484" y="-626.5" font-family="Helvetica,sans-Serif" font-size="10.00">AddressTableModel::</text>
<text text-anchor="middle" x="531.5" y="-615.5" font-family="Helvetica,sans-Serif" font-size="10.00">AddressTableModel</text>
</a>
</g>
</g>
<!-- Node3&#45;&gt;Node4 -->
<g id="edge3" class="edge"><title>Node3&#45;&gt;Node4</title>
<path fill="none" stroke="midnightblue" d="M449.143,-622.98C458.161,-623.038 467.234,-623.096 475.882,-623.151"/>
<polygon fill="midnightblue" stroke="midnightblue" points="449.033,-619.479 439.01,-622.915 448.988,-626.479 449.033,-619.479"/>
</g>
<!-- Node6 -->
<g id="node6" class="node"><title>Node6</title>
<g id="a_node6"><a xlink:href="class_coin_control_dialog.html#a4c34a48574814089c54f763a22f5317a" target="_top" xlink:title="CoinControlDialog::\lsetModel">
<polygon fill="white" stroke="black" points="636,-626.5 636,-656.5 739,-656.5 739,-626.5 636,-626.5"/>
<text text-anchor="start" x="644" y="-644.5" font-family="Helvetica,sans-Serif" font-size="10.00">CoinControlDialog::</text>
<text text-anchor="middle" x="687.5" y="-633.5" font-family="Helvetica,sans-Serif" font-size="10.00">setModel</text>
</a>
</g>
</g>
<!-- Node5&#45;&gt;Node6 -->
<g id="edge5" class="edge"><title>Node5&#45;&gt;Node6</title>
<path fill="none" stroke="midnightblue" d="M576.054,-593.917C580.102,-595.783 584.134,-597.664 588,-599.5 604.158,-607.175 607.631,-610.285 624,-617.5 630.913,-620.547 638.345,-623.594 645.587,-626.445"/>
<polygon fill="midnightblue" stroke="midnightblue" points="577.198,-590.592 566.647,-589.62 574.289,-596.959 577.198,-590.592"/>
</g>
<!-- Node9 -->
<g id="node9" class="node"><title>Node9</title>
<g id="a_node9"><a xlink:href="class_coin_control_dialog.html#a1990d478f3ffba666c358a4f1bd395ec" target="_top" xlink:title="CoinControlDialog::\lradioTreeMode">
<polygon fill="white" stroke="black" points="636,-577.5 636,-607.5 739,-607.5 739,-577.5 636,-577.5"/>
<text text-anchor="start" x="644" y="-595.5" font-family="Helvetica,sans-Serif" font-size="10.00">CoinControlDialog::</text>
<text text-anchor="middle" x="687.5" y="-584.5" font-family="Helvetica,sans-Serif" font-size="10.00">radioTreeMode</text>
</a>
</g>
</g>
<!-- Node5&#45;&gt;Node9 -->
<g id="edge8" class="edge"><title>Node5&#45;&gt;Node9</title>
<path fill="none" stroke="midnightblue" d="M593.45,-581.624C607.538,-583.271 622.377,-585.005 635.964,-586.593"/>
<polygon fill="midnightblue" stroke="midnightblue" points="593.691,-578.128 583.352,-580.444 592.878,-585.081 593.691,-578.128"/>
</g>
<!-- Node11 -->
<g id="node11" class="node"><title>Node11</title>
<g id="a_node11"><a xlink:href="class_coin_control_dialog.html#a775c6d290cb63667a434b09072094533" target="_top" xlink:title="CoinControlDialog::\lradioListMode">
<polygon fill="white" stroke="black" points="636,-528.5 636,-558.5 739,-558.5 739,-528.5 636,-528.5"/>
<text text-anchor="start" x="644" y="-546.5" font-family="Helvetica,sans-Serif" font-size="10.00">CoinControlDialog::</text>
<text text-anchor="middle" x="687.5" y="-535.5" font-family="Helvetica,sans-Serif" font-size="10.00">radioListMode</text>
</a>
</g>
</g>
<!-- Node5&#45;&gt;Node11 -->
<g id="edge10" class="edge"><title>Node5&#45;&gt;Node11</title>
<path fill="none" stroke="midnightblue" d="M593.45,-562.231C607.538,-559.395 622.377,-556.408 635.964,-553.673"/>
<polygon fill="midnightblue" stroke="midnightblue" points="592.465,-558.859 583.352,-564.264 593.846,-565.721 592.465,-558.859"/>
</g>
<!-- Node7 -->
<g id="node7" class="node"><title>Node7</title>
<g id="a_node7"><a xlink:href="class_send_coins_dialog.html#a59d757d9e4bea5b380eb480fd79cfb49" target="_top" xlink:title="SendCoinsDialog::coinControl\lButtonClicked">
<polygon fill="white" stroke="black" points="792,-626.5 792,-656.5 942,-656.5 942,-626.5 792,-626.5"/>
<text text-anchor="start" x="800" y="-644.5" font-family="Helvetica,sans-Serif" font-size="10.00">SendCoinsDialog::coinControl</text>
<text text-anchor="middle" x="867" y="-633.5" font-family="Helvetica,sans-Serif" font-size="10.00">ButtonClicked</text>
</a>
</g>
</g>
<!-- Node6&#45;&gt;Node7 -->
<g id="edge6" class="edge"><title>Node6&#45;&gt;Node7</title>
<path fill="none" stroke="midnightblue" d="M749.591,-641.5C763.243,-641.5 777.866,-641.5 791.977,-641.5"/>
<polygon fill="midnightblue" stroke="midnightblue" points="749.364,-638 739.364,-641.5 749.364,-645 749.364,-638"/>
</g>
<!-- Node8 -->
<g id="node8" class="node"><title>Node8</title>
<g id="a_node8"><a xlink:href="class_send_coins_dialog.html#a0df5bc29d1df68eda44826651afc595f" target="_top" xlink:title="SendCoinsDialog::SendCoins\lDialog">
<polygon fill="white" stroke="black" points="983,-626.5 983,-656.5 1131,-656.5 1131,-626.5 983,-626.5"/>
<text text-anchor="start" x="991" y="-644.5" font-family="Helvetica,sans-Serif" font-size="10.00">SendCoinsDialog::SendCoins</text>
<text text-anchor="middle" x="1057" y="-633.5" font-family="Helvetica,sans-Serif" font-size="10.00">Dialog</text>
</a>
</g>
</g>
<!-- Node7&#45;&gt;Node8 -->
<g id="edge7" class="edge"><title>Node7&#45;&gt;Node8</title>
<path fill="none" stroke="midnightblue" d="M952.217,-641.5C962.472,-641.5 972.885,-641.5 982.958,-641.5"/>
<polygon fill="midnightblue" stroke="midnightblue" points="952.033,-638 942.033,-641.5 952.033,-645 952.033,-638"/>
</g>
<!-- Node10 -->
<g id="node10" class="node"><title>Node10</title>
<g id="a_node10"><a xlink:href="class_coin_control_dialog.html#a0945e59c25f956fdab199dbaf252eff5" target="_top" xlink:title="CoinControlDialog::\lCoinControlDialog">
<polygon fill="white" stroke="black" points="815.5,-552.5 815.5,-582.5 918.5,-582.5 918.5,-552.5 815.5,-552.5"/>
<text text-anchor="start" x="823.5" y="-570.5" font-family="Helvetica,sans-Serif" font-size="10.00">CoinControlDialog::</text>
<text text-anchor="middle" x="867" y="-559.5" font-family="Helvetica,sans-Serif" font-size="10.00">CoinControlDialog</text>
</a>
</g>
</g>
<!-- Node9&#45;&gt;Node10 -->
<g id="edge9" class="edge"><title>Node9&#45;&gt;Node10</title>
<path fill="none" stroke="midnightblue" d="M749.384,-583.925C770.906,-580.893 794.862,-577.519 815.435,-574.622"/>
<polygon fill="midnightblue" stroke="midnightblue" points="748.778,-580.475 739.364,-585.336 749.755,-587.407 748.778,-580.475"/>
</g>
<!-- Node11&#45;&gt;Node10 -->
<g id="edge11" class="edge"><title>Node11&#45;&gt;Node10</title>
<path fill="none" stroke="midnightblue" d="M749.384,-551.732C770.906,-554.642 794.862,-557.881 815.435,-560.663"/>
<polygon fill="midnightblue" stroke="midnightblue" points="749.743,-548.249 739.364,-550.377 748.805,-555.186 749.743,-548.249"/>
</g>
<!-- Node13 -->
<g id="node13" class="node"><title>Node13</title>
<g id="a_node13"><a xlink:href="class_transaction_table_priv.html#a1f81da5d7cfb2aac03a5e18e6bc91792" target="_top" xlink:title="TransactionTablePriv\l::refreshWallet">
<polygon fill="white" stroke="black" points="476,-479.5 476,-509.5 587,-509.5 587,-479.5 476,-479.5"/>
<text text-anchor="start" x="484" y="-497.5" font-family="Helvetica,sans-Serif" font-size="10.00">TransactionTablePriv</text>
<text text-anchor="middle" x="531.5" y="-486.5" font-family="Helvetica,sans-Serif" font-size="10.00">::refreshWallet</text>
</a>
</g>
</g>
<!-- Node12&#45;&gt;Node13 -->
<g id="edge13" class="edge"><title>Node12&#45;&gt;Node13</title>
<path fill="none" stroke="midnightblue" d="M443.48,-494.5C454.339,-494.5 465.426,-494.5 475.891,-494.5"/>
<polygon fill="midnightblue" stroke="midnightblue" points="443.166,-491 433.166,-494.5 443.166,-498 443.166,-491"/>
</g>
<!-- Node15 -->
<g id="node15" class="node"><title>Node15</title>
<g id="a_node15"><a xlink:href="class_transaction_table_priv.html#a27eb6d3e1f7717dd2cad80c5ce48f404" target="_top" xlink:title="TransactionTablePriv\l::updateWallet">
<polygon fill="white" stroke="black" points="476,-430.5 476,-460.5 587,-460.5 587,-430.5 476,-430.5"/>
<text text-anchor="start" x="484" y="-448.5" font-family="Helvetica,sans-Serif" font-size="10.00">TransactionTablePriv</text>
<text text-anchor="middle" x="531.5" y="-437.5" font-family="Helvetica,sans-Serif" font-size="10.00">::updateWallet</text>
</a>
</g>
</g>
<!-- Node12&#45;&gt;Node15 -->
<g id="edge15" class="edge"><title>Node12&#45;&gt;Node15</title>
<path fill="none" stroke="midnightblue" d="M431.85,-476.387C448.488,-471.178 466.449,-465.554 482.427,-460.552"/>
<polygon fill="midnightblue" stroke="midnightblue" points="430.73,-473.07 422.232,-479.399 432.821,-479.751 430.73,-473.07"/>
</g>
<!-- Node14 -->
<g id="node14" class="node"><title>Node14</title>
<g id="a_node14"><a xlink:href="class_transaction_table_model.html#a6c10b7cab9804eee6df9e049a978dc62" target="_top" xlink:title="TransactionTableModel\l::TransactionTableModel">
<polygon fill="white" stroke="black" points="624,-479.5 624,-509.5 751,-509.5 751,-479.5 624,-479.5"/>
<text text-anchor="start" x="632" y="-497.5" font-family="Helvetica,sans-Serif" font-size="10.00">TransactionTableModel</text>
<text text-anchor="middle" x="687.5" y="-486.5" font-family="Helvetica,sans-Serif" font-size="10.00">::TransactionTableModel</text>
</a>
</g>
</g>
<!-- Node13&#45;&gt;Node14 -->
<g id="edge14" class="edge"><title>Node13&#45;&gt;Node14</title>
<path fill="none" stroke="midnightblue" d="M597.376,-494.5C606.129,-494.5 615.095,-494.5 623.809,-494.5"/>
<polygon fill="midnightblue" stroke="midnightblue" points="597.228,-491 587.228,-494.5 597.228,-498 597.228,-491"/>
</g>
<!-- Node16 -->
<g id="node16" class="node"><title>Node16</title>
<g id="a_node16"><a xlink:href="class_transaction_table_model.html#abb93b1812f27622f67aed0302bc90ee6" target="_top" xlink:title="TransactionTableModel\l::updateTransaction">
<polygon fill="white" stroke="black" points="627,-430.5 627,-460.5 748,-460.5 748,-430.5 627,-430.5"/>
<text text-anchor="start" x="635" y="-448.5" font-family="Helvetica,sans-Serif" font-size="10.00">TransactionTableModel</text>
<text text-anchor="middle" x="687.5" y="-437.5" font-family="Helvetica,sans-Serif" font-size="10.00">::updateTransaction</text>
</a>
</g>
</g>
<!-- Node15&#45;&gt;Node16 -->
<g id="edge16" class="edge"><title>Node15&#45;&gt;Node16</title>
<path fill="none" stroke="midnightblue" d="M597.345,-445.5C607.174,-445.5 617.274,-445.5 626.982,-445.5"/>
<polygon fill="midnightblue" stroke="midnightblue" points="597.228,-442 587.228,-445.5 597.228,-449 597.228,-442"/>
</g>
<!-- Node17 -->
<g id="node17" class="node"><title>Node17</title>
<g id="a_node17"><a xlink:href="class_wallet_model.html#ad63ff7c16477dc5795c95b56593f2e9f" target="_top" xlink:title="WalletModel::updateTransaction">
<polygon fill="white" stroke="black" points="787,-436 787,-455 947,-455 947,-436 787,-436"/>
<text text-anchor="middle" x="867" y="-443" font-family="Helvetica,sans-Serif" font-size="10.00">WalletModel::updateTransaction</text>
</a>
</g>
</g>
<!-- Node16&#45;&gt;Node17 -->
<g id="edge17" class="edge"><title>Node16&#45;&gt;Node17</title>
<path fill="none" stroke="midnightblue" d="M758.13,-445.5C767.501,-445.5 777.171,-445.5 786.695,-445.5"/>
<polygon fill="midnightblue" stroke="midnightblue" points="758.099,-442 748.099,-445.5 758.099,-449 758.099,-442"/>
</g>
<!-- Node18&#45;&gt;Node5 -->
<g id="edge19" class="edge"><title>Node18&#45;&gt;Node5</title>
<path fill="none" stroke="midnightblue" d="M425.539,-550.356C442.99,-554.37 462.454,-558.847 479.836,-562.846"/>
<polygon fill="midnightblue" stroke="midnightblue" points="426.058,-546.884 415.528,-548.053 424.489,-553.706 426.058,-546.884"/>
</g>
<!-- Node29 -->
<g id="node29" class="node"><title>Node29</title>
<g id="a_node29"><a xlink:href="rpcwallet_8cpp.html#a34b36ceb4a7e36e0dab24cf675c49da5" target="_top" xlink:title="listreceivedbyaddress">
<polygon fill="white" stroke="black" points="475,-137 475,-156 588,-156 588,-137 475,-137"/>
<text text-anchor="middle" x="531.5" y="-144" font-family="Helvetica,sans-Serif" font-size="10.00">listreceivedbyaddress</text>
</a>
</g>
</g>
<!-- Node28&#45;&gt;Node29 -->
<g id="edge30" class="edge"><title>Node28&#45;&gt;Node29</title>
<path fill="none" stroke="midnightblue" d="M420.308,-119.744C442.821,-125.21 469.592,-131.711 491.109,-136.936"/>
<polygon fill="midnightblue" stroke="midnightblue" points="420.841,-116.272 410.298,-117.313 419.189,-123.074 420.841,-116.272"/>
</g>
<!-- Node30 -->
<g id="node30" class="node"><title>Node30</title>
<g id="a_node30"><a xlink:href="rpcwallet_8cpp.html#ab7e240a25a3d2d30ffb65bdfdfa082eb" target="_top" xlink:title="listreceivedbyaccount">
<polygon fill="white" stroke="black" points="475.5,-99 475.5,-118 587.5,-118 587.5,-99 475.5,-99"/>
<text text-anchor="middle" x="531.5" y="-106" font-family="Helvetica,sans-Serif" font-size="10.00">listreceivedbyaccount</text>
</a>
</g>
</g>
<!-- Node28&#45;&gt;Node30 -->
<g id="edge31" class="edge"><title>Node28&#45;&gt;Node30</title>
<path fill="none" stroke="midnightblue" d="M420.653,-108.5C437.853,-108.5 457.501,-108.5 475.379,-108.5"/>
<polygon fill="midnightblue" stroke="midnightblue" points="420.298,-105 410.298,-108.5 420.298,-112 420.298,-105"/>
</g>
<!-- Node32 -->
<g id="node32" class="node"><title>Node32</title>
<g id="a_node32"><a xlink:href="class_address_table_model.html#a5c6bd467fd1fc499d126fe2b7380ce5c" target="_top" xlink:title="AddressTableModel::\lsetData">
<polygon fill="white" stroke="black" points="476,-49.5 476,-79.5 587,-79.5 587,-49.5 476,-49.5"/>
<text text-anchor="start" x="484" y="-67.5" font-family="Helvetica,sans-Serif" font-size="10.00">AddressTableModel::</text>
<text text-anchor="middle" x="531.5" y="-56.5" font-family="Helvetica,sans-Serif" font-size="10.00">setData</text>
</a>
</g>
</g>
<!-- Node31&#45;&gt;Node32 -->
<g id="edge33" class="edge"><title>Node31&#45;&gt;Node32</title>
<path fill="none" stroke="midnightblue" d="M449.143,-64.5C458.161,-64.5 467.234,-64.5 475.882,-64.5"/>
<polygon fill="midnightblue" stroke="midnightblue" points="449.011,-61.0001 439.01,-64.5 449.01,-68.0001 449.011,-61.0001"/>
</g>
<!-- Node33 -->
<g id="node33" class="node"><title>Node33</title>
<g id="a_node33"><a xlink:href="class_address_table_model.html#a682e6e3374d65543e49769906c8916e5" target="_top" xlink:title="AddressTableModel::\lremoveRows">
<polygon fill="white" stroke="black" points="476,-0.5 476,-30.5 587,-30.5 587,-0.5 476,-0.5"/>
<text text-anchor="start" x="484" y="-18.5" font-family="Helvetica,sans-Serif" font-size="10.00">AddressTableModel::</text>
<text text-anchor="middle" x="531.5" y="-7.5" font-family="Helvetica,sans-Serif" font-size="10.00">removeRows</text>
</a>
</g>
</g>
<!-- Node31&#45;&gt;Node33 -->
<g id="edge34" class="edge"><title>Node31&#45;&gt;Node33</title>
<path fill="none" stroke="midnightblue" d="M414.343,-51.8687C435.145,-45.3554 460.661,-37.3666 482.474,-30.537"/>
<polygon fill="midnightblue" stroke="midnightblue" points="413.044,-48.6078 404.546,-54.936 415.135,-55.2881 413.044,-48.6078"/>
</g>
</g>
</svg>
