<?xml version="1.0" encoding="UTF-8" standalone="no"?>
<!DOCTYPE svg PUBLIC "-//W3C//DTD SVG 1.1//EN"
 "http://www.w3.org/Graphics/SVG/1.1/DTD/svg11.dtd">
<!-- Generated by graphviz version 2.38.0 (20140413.2041)
 -->
<!-- Title: RegTest Pages: 1 -->
<svg width="235pt" height="66pt"
 viewBox="0.00 0.00 235.00 66.00" xmlns="http://www.w3.org/2000/svg" xmlns:xlink="http://www.w3.org/1999/xlink">
<g id="graph0" class="graph" transform="scale(1 1) rotate(0) translate(4 62)">
<title>RegTest</title>
<polygon fill="white" stroke="none" points="-4,4 -4,-62 231,-62 231,4 -4,4"/>
<!-- Node1 -->
<g id="node1" class="node"><title>Node1</title>
<polygon fill="#bfbfbf" stroke="black" points="0,-19.5 0,-38.5 54,-38.5 54,-19.5 0,-19.5"/>
<text text-anchor="middle" x="27" y="-26.5" font-family="Helvetica,sans-Serif" font-size="10.00">RegTest</text>
</g>
<!-- Node2 -->
<g id="node2" class="node"><title>Node2</title>
<g id="a_node2"><a xlink:href="chainparams_8h.html#ace5c5b706d71a324a417dd2db394fd4a" target="_top" xlink:title="Return the currently selected parameters. ">
<polygon fill="white" stroke="black" points="133,-38.5 133,-57.5 184,-57.5 184,-38.5 133,-38.5"/>
<text text-anchor="middle" x="158.5" y="-45.5" font-family="Helvetica,sans-Serif" font-size="10.00">Params</text>
</a>
</g>
</g>
<!-- Node1&#45;&gt;Node2 -->
<g id="edge1" class="edge"><title>Node1&#45;&gt;Node2</title>
<path fill="none" stroke="midnightblue" d="M54.2063,-32.8449C73.8955,-35.7337 101.061,-39.7193 122.591,-42.8783"/>
<polygon fill="midnightblue" stroke="midnightblue" points="122.249,-46.3654 132.651,-44.3542 123.265,-39.4395 122.249,-46.3654"/>
</g>
<!-- Node3 -->
<g id="node3" class="node"><title>Node3</title>
<g id="a_node3"><a xlink:href="class_c_chain_params.html#a90dc493ec0c0325c98c3ac06eb99862b" target="_top" xlink:title="CChainParams::NetworkID">
<polygon fill="white" stroke="black" points="90,-0.5 90,-19.5 227,-19.5 227,-0.5 90,-0.5"/>
<text text-anchor="middle" x="158.5" y="-7.5" font-family="Helvetica,sans-Serif" font-size="10.00">CChainParams::NetworkID</text>
</a>
</g>
</g>
<!-- Node1&#45;&gt;Node3 -->
<g id="edge2" class="edge"><title>Node1&#45;&gt;Node3</title>
<path fill="none" stroke="midnightblue" d="M54.2063,-25.1551C62.5762,-23.927 72.2971,-22.5008 82.3619,-21.0241"/>
<polygon fill="midnightblue" stroke="midnightblue" points="83.118,-24.4507 92.504,-19.5361 82.1018,-17.5249 83.118,-24.4507"/>
</g>
</g>
</svg>
