<?xml version="1.0" encoding="UTF-8" standalone="no"?>
<!DOCTYPE svg PUBLIC "-//W3C//DTD SVG 1.1//EN"
 "http://www.w3.org/Graphics/SVG/1.1/DTD/svg11.dtd">
<!-- Generated by graphviz version 2.38.0 (20140413.2041)
 -->
<!-- Title: CNetAddr::GetGroup Pages: 1 -->
<svg width="307pt" height="66pt"
 viewBox="0.00 0.00 307.00 66.00" xmlns="http://www.w3.org/2000/svg" xmlns:xlink="http://www.w3.org/1999/xlink">
<g id="graph0" class="graph" transform="scale(1 1) rotate(0) translate(4 62)">
<title>CNetAddr::GetGroup</title>
<polygon fill="white" stroke="none" points="-4,4 -4,-62 303,-62 303,4 -4,4"/>
<!-- Node1 -->
<g id="node1" class="node"><title>Node1</title>
<polygon fill="#bfbfbf" stroke="black" points="0,-19.5 0,-38.5 110,-38.5 110,-19.5 0,-19.5"/>
<text text-anchor="middle" x="55" y="-26.5" font-family="Helvetica,sans-Serif" font-size="10.00">CNetAddr::GetGroup</text>
</g>
<!-- Node2 -->
<g id="node2" class="node"><title>Node2</title>
<g id="a_node2"><a xlink:href="glibc__compat_8cpp.html#a0f46826ab0466591e136db24394923cf" target="_top" xlink:title="memcpy">
<polygon fill="white" stroke="black" points="146,-38.5 146,-57.5 200,-57.5 200,-38.5 146,-38.5"/>
<text text-anchor="middle" x="173" y="-45.5" font-family="Helvetica,sans-Serif" font-size="10.00">memcpy</text>
</a>
</g>
</g>
<!-- Node1&#45;&gt;Node2 -->
<g id="edge1" class="edge"><title>Node1&#45;&gt;Node2</title>
<path fill="none" stroke="midnightblue" d="M110.264,-37.8881C118.971,-39.3142 127.79,-40.7587 135.933,-42.0925"/>
<polygon fill="midnightblue" stroke="midnightblue" points="135.392,-45.5504 145.826,-43.7129 136.523,-38.6424 135.392,-45.5504"/>
</g>
<!-- Node4 -->
<g id="node4" class="node"><title>Node4</title>
<g id="a_node4"><a xlink:href="net_8cpp.html#a16fa1bd4d34c4c29c90903fc3cdf7517" target="_top" xlink:title="check whether a given address is potentially local ">
<polygon fill="white" stroke="black" points="149,-0.5 149,-19.5 197,-19.5 197,-0.5 149,-0.5"/>
<text text-anchor="middle" x="173" y="-7.5" font-family="Helvetica,sans-Serif" font-size="10.00">IsLocal</text>
</a>
</g>
</g>
<!-- Node1&#45;&gt;Node4 -->
<g id="edge3" class="edge"><title>Node1&#45;&gt;Node4</title>
<path fill="none" stroke="midnightblue" d="M110.264,-20.1119C120.012,-18.5153 129.901,-16.8956 138.824,-15.4341"/>
<polygon fill="midnightblue" stroke="midnightblue" points="139.485,-18.8724 148.788,-13.8019 138.354,-11.9644 139.485,-18.8724"/>
</g>
<!-- Node3 -->
<g id="node3" class="node"><title>Node3</title>
<g id="a_node3"><a xlink:href="glibc__compat_8cpp.html#a9778d49e9029dd75bc53ecbbf9f5e9a1" target="_top" xlink:title="memmove">
<polygon fill="white" stroke="black" points="236,-38.5 236,-57.5 299,-57.5 299,-38.5 236,-38.5"/>
<text text-anchor="middle" x="267.5" y="-45.5" font-family="Helvetica,sans-Serif" font-size="10.00">memmove</text>
</a>
</g>
</g>
<!-- Node2&#45;&gt;Node3 -->
<g id="edge2" class="edge"><title>Node2&#45;&gt;Node3</title>
<path fill="none" stroke="midnightblue" d="M200.259,-48C208.244,-48 217.214,-48 225.912,-48"/>
<polygon fill="midnightblue" stroke="midnightblue" points="225.924,-51.5001 235.924,-48 225.924,-44.5001 225.924,-51.5001"/>
</g>
</g>
</svg>
