<?xml version="1.0" encoding="UTF-8" standalone="no"?>
<!DOCTYPE svg PUBLIC "-//W3C//DTD SVG 1.1//EN"
 "http://www.w3.org/Graphics/SVG/1.1/DTD/svg11.dtd">
<!-- Generated by graphviz version 2.38.0 (20140413.2041)
 -->
<!-- Title: payments::PaymentDetails::SerializeWithCachedSizes Pages: 1 -->
<svg width="318pt" height="725pt"
 viewBox="0.00 0.00 318.00 725.00" xmlns="http://www.w3.org/2000/svg" xmlns:xlink="http://www.w3.org/1999/xlink">
<g id="graph0" class="graph" transform="scale(1 1) rotate(0) translate(4 721)">
<title>payments::PaymentDetails::SerializeWithCachedSizes</title>
<polygon fill="white" stroke="none" points="-4,4 -4,-721 314,-721 314,4 -4,4"/>
<!-- Node1 -->
<g id="node1" class="node"><title>Node1</title>
<polygon fill="#bfbfbf" stroke="black" points="0,-343.5 0,-373.5 139,-373.5 139,-343.5 0,-343.5"/>
<text text-anchor="start" x="8" y="-361.5" font-family="Helvetica,sans-Serif" font-size="10.00">payments::PaymentDetails</text>
<text text-anchor="middle" x="69.5" y="-350.5" font-family="Helvetica,sans-Serif" font-size="10.00">::SerializeWithCachedSizes</text>
</g>
<!-- Node2 -->
<g id="node2" class="node"><title>Node2</title>
<g id="a_node2"><a xlink:href="classpayments_1_1_payment_details.html#a37753487290845bfa96db5d9a1b682e4" target="_top" xlink:title="payments::PaymentDetails\l::has_network">
<polygon fill="white" stroke="black" points="175,-686.5 175,-716.5 310,-716.5 310,-686.5 175,-686.5"/>
<text text-anchor="start" x="183" y="-704.5" font-family="Helvetica,sans-Serif" font-size="10.00">payments::PaymentDetails</text>
<text text-anchor="middle" x="242.5" y="-693.5" font-family="Helvetica,sans-Serif" font-size="10.00">::has_network</text>
</a>
</g>
</g>
<!-- Node1&#45;&gt;Node2 -->
<g id="edge1" class="edge"><title>Node1&#45;&gt;Node2</title>
<path fill="none" stroke="midnightblue" d="M70.9673,-373.508C73.3388,-423.699 87.7306,-587.592 175,-677.5 175.938,-678.466 176.917,-679.393 177.933,-680.284"/>
<polygon fill="midnightblue" stroke="midnightblue" points="176.201,-683.352 186.347,-686.405 180.32,-677.692 176.201,-683.352"/>
</g>
<!-- Node3 -->
<g id="node3" class="node"><title>Node3</title>
<g id="a_node3"><a xlink:href="classpayments_1_1_payment_details.html#a9f117e48e544ab304d9a32b75ffb971e" target="_top" xlink:title="payments::PaymentDetails\l::network">
<polygon fill="white" stroke="black" points="175,-637.5 175,-667.5 310,-667.5 310,-637.5 175,-637.5"/>
<text text-anchor="start" x="183" y="-655.5" font-family="Helvetica,sans-Serif" font-size="10.00">payments::PaymentDetails</text>
<text text-anchor="middle" x="242.5" y="-644.5" font-family="Helvetica,sans-Serif" font-size="10.00">::network</text>
</a>
</g>
</g>
<!-- Node1&#45;&gt;Node3 -->
<g id="edge2" class="edge"><title>Node1&#45;&gt;Node3</title>
<path fill="none" stroke="midnightblue" d="M72.0208,-373.724C77.3442,-419.018 99.1525,-554.372 175,-628.5 176.097,-629.572 177.246,-630.597 178.438,-631.577"/>
<polygon fill="midnightblue" stroke="midnightblue" points="176.647,-634.593 186.862,-637.404 180.629,-628.836 176.647,-634.593"/>
</g>
<!-- Node4 -->
<g id="node4" class="node"><title>Node4</title>
<g id="a_node4"><a xlink:href="classpayments_1_1_payment_details.html#adafb0db0ce50e68c794846568be749ee" target="_top" xlink:title="payments::PaymentDetails\l::outputs_size">
<polygon fill="white" stroke="black" points="175,-588.5 175,-618.5 310,-618.5 310,-588.5 175,-588.5"/>
<text text-anchor="start" x="183" y="-606.5" font-family="Helvetica,sans-Serif" font-size="10.00">payments::PaymentDetails</text>
<text text-anchor="middle" x="242.5" y="-595.5" font-family="Helvetica,sans-Serif" font-size="10.00">::outputs_size</text>
</a>
</g>
</g>
<!-- Node1&#45;&gt;Node4 -->
<g id="edge3" class="edge"><title>Node1&#45;&gt;Node4</title>
<path fill="none" stroke="midnightblue" d="M73.4979,-373.769C82.0616,-413.427 110.303,-520.695 175,-579.5 176.311,-580.692 177.686,-581.826 179.113,-582.904"/>
<polygon fill="midnightblue" stroke="midnightblue" points="177.479,-586.015 187.78,-588.495 181.274,-580.133 177.479,-586.015"/>
</g>
<!-- Node5 -->
<g id="node5" class="node"><title>Node5</title>
<g id="a_node5"><a xlink:href="classpayments_1_1_payment_details.html#afaced71badc7a2140224f8eb93757a45" target="_top" xlink:title="payments::PaymentDetails\l::outputs">
<polygon fill="white" stroke="black" points="175,-539.5 175,-569.5 310,-569.5 310,-539.5 175,-539.5"/>
<text text-anchor="start" x="183" y="-557.5" font-family="Helvetica,sans-Serif" font-size="10.00">payments::PaymentDetails</text>
<text text-anchor="middle" x="242.5" y="-546.5" font-family="Helvetica,sans-Serif" font-size="10.00">::outputs</text>
</a>
</g>
</g>
<!-- Node1&#45;&gt;Node5 -->
<g id="edge4" class="edge"><title>Node1&#45;&gt;Node5</title>
<path fill="none" stroke="midnightblue" d="M75.7305,-373.737C87.8877,-406.963 121.18,-486.477 175,-530.5 176.568,-531.782 178.209,-532.999 179.909,-534.153"/>
<polygon fill="midnightblue" stroke="midnightblue" points="178.429,-537.344 188.819,-539.418 181.99,-531.317 178.429,-537.344"/>
</g>
<!-- Node6 -->
<g id="node6" class="node"><title>Node6</title>
<g id="a_node6"><a xlink:href="classpayments_1_1_payment_details.html#a7927ac14544092a44e5ec4c6512b6416" target="_top" xlink:title="payments::PaymentDetails\l::has_time">
<polygon fill="white" stroke="black" points="175,-490.5 175,-520.5 310,-520.5 310,-490.5 175,-490.5"/>
<text text-anchor="start" x="183" y="-508.5" font-family="Helvetica,sans-Serif" font-size="10.00">payments::PaymentDetails</text>
<text text-anchor="middle" x="242.5" y="-497.5" font-family="Helvetica,sans-Serif" font-size="10.00">::has_time</text>
</a>
</g>
</g>
<!-- Node1&#45;&gt;Node6 -->
<g id="edge5" class="edge"><title>Node1&#45;&gt;Node6</title>
<path fill="none" stroke="midnightblue" d="M79.5404,-373.57C95.6474,-399.215 131.715,-451.476 175,-481.5 177.118,-482.969 179.336,-484.359 181.623,-485.672"/>
<polygon fill="midnightblue" stroke="midnightblue" points="180.232,-488.893 190.724,-490.365 183.441,-482.671 180.232,-488.893"/>
</g>
<!-- Node7 -->
<g id="node7" class="node"><title>Node7</title>
<g id="a_node7"><a xlink:href="classpayments_1_1_payment_details.html#ab34efd40f31cf8fb93f7489bc67da366" target="_top" xlink:title="payments::PaymentDetails\l::time">
<polygon fill="white" stroke="black" points="175,-441.5 175,-471.5 310,-471.5 310,-441.5 175,-441.5"/>
<text text-anchor="start" x="183" y="-459.5" font-family="Helvetica,sans-Serif" font-size="10.00">payments::PaymentDetails</text>
<text text-anchor="middle" x="242.5" y="-448.5" font-family="Helvetica,sans-Serif" font-size="10.00">::time</text>
</a>
</g>
</g>
<!-- Node1&#45;&gt;Node7 -->
<g id="edge6" class="edge"><title>Node1&#45;&gt;Node7</title>
<path fill="none" stroke="midnightblue" d="M88.767,-373.763C108.885,-390.001 142.683,-415.624 175,-432.5 178.295,-434.22 181.74,-435.87 185.255,-437.441"/>
<polygon fill="midnightblue" stroke="midnightblue" points="184.09,-440.748 194.664,-441.41 186.811,-434.298 184.09,-440.748"/>
</g>
<!-- Node8 -->
<g id="node8" class="node"><title>Node8</title>
<g id="a_node8"><a xlink:href="classpayments_1_1_payment_details.html#aee82d7d53cb601722ed98d8fa571a069" target="_top" xlink:title="payments::PaymentDetails\l::has_expires">
<polygon fill="white" stroke="black" points="175,-392.5 175,-422.5 310,-422.5 310,-392.5 175,-392.5"/>
<text text-anchor="start" x="183" y="-410.5" font-family="Helvetica,sans-Serif" font-size="10.00">payments::PaymentDetails</text>
<text text-anchor="middle" x="242.5" y="-399.5" font-family="Helvetica,sans-Serif" font-size="10.00">::has_expires</text>
</a>
</g>
</g>
<!-- Node1&#45;&gt;Node8 -->
<g id="edge7" class="edge"><title>Node1&#45;&gt;Node8</title>
<path fill="none" stroke="midnightblue" d="M123.201,-373.601C140.919,-378.679 160.852,-384.39 179.234,-389.658"/>
<polygon fill="midnightblue" stroke="midnightblue" points="178.396,-393.058 188.973,-392.448 180.324,-386.329 178.396,-393.058"/>
</g>
<!-- Node9 -->
<g id="node9" class="node"><title>Node9</title>
<g id="a_node9"><a xlink:href="classpayments_1_1_payment_details.html#a617ce3167849229803ea36ee167e542d" target="_top" xlink:title="payments::PaymentDetails\l::expires">
<polygon fill="white" stroke="black" points="175,-343.5 175,-373.5 310,-373.5 310,-343.5 175,-343.5"/>
<text text-anchor="start" x="183" y="-361.5" font-family="Helvetica,sans-Serif" font-size="10.00">payments::PaymentDetails</text>
<text text-anchor="middle" x="242.5" y="-350.5" font-family="Helvetica,sans-Serif" font-size="10.00">::expires</text>
</a>
</g>
</g>
<!-- Node1&#45;&gt;Node9 -->
<g id="edge8" class="edge"><title>Node1&#45;&gt;Node9</title>
<path fill="none" stroke="midnightblue" d="M139.067,-358.5C147.549,-358.5 156.262,-358.5 164.854,-358.5"/>
<polygon fill="midnightblue" stroke="midnightblue" points="164.865,-362 174.865,-358.5 164.865,-355 164.865,-362"/>
</g>
<!-- Node10 -->
<g id="node10" class="node"><title>Node10</title>
<g id="a_node10"><a xlink:href="classpayments_1_1_payment_details.html#a5761b562e4f230a0c6970d572049c2a7" target="_top" xlink:title="payments::PaymentDetails\l::has_memo">
<polygon fill="white" stroke="black" points="175,-294.5 175,-324.5 310,-324.5 310,-294.5 175,-294.5"/>
<text text-anchor="start" x="183" y="-312.5" font-family="Helvetica,sans-Serif" font-size="10.00">payments::PaymentDetails</text>
<text text-anchor="middle" x="242.5" y="-301.5" font-family="Helvetica,sans-Serif" font-size="10.00">::has_memo</text>
</a>
</g>
</g>
<!-- Node1&#45;&gt;Node10 -->
<g id="edge9" class="edge"><title>Node1&#45;&gt;Node10</title>
<path fill="none" stroke="midnightblue" d="M123.201,-343.399C140.919,-338.321 160.852,-332.61 179.234,-327.342"/>
<polygon fill="midnightblue" stroke="midnightblue" points="180.324,-330.671 188.973,-324.552 178.396,-323.942 180.324,-330.671"/>
</g>
<!-- Node11 -->
<g id="node11" class="node"><title>Node11</title>
<g id="a_node11"><a xlink:href="classpayments_1_1_payment_details.html#a978562af43036ce6590a157d0f39e58b" target="_top" xlink:title="payments::PaymentDetails\l::memo">
<polygon fill="white" stroke="black" points="175,-245.5 175,-275.5 310,-275.5 310,-245.5 175,-245.5"/>
<text text-anchor="start" x="183" y="-263.5" font-family="Helvetica,sans-Serif" font-size="10.00">payments::PaymentDetails</text>
<text text-anchor="middle" x="242.5" y="-252.5" font-family="Helvetica,sans-Serif" font-size="10.00">::memo</text>
</a>
</g>
</g>
<!-- Node1&#45;&gt;Node11 -->
<g id="edge10" class="edge"><title>Node1&#45;&gt;Node11</title>
<path fill="none" stroke="midnightblue" d="M89.2164,-343.252C109.444,-327.306 143.082,-302.307 175,-285.5 178.975,-283.407 183.165,-281.403 187.428,-279.506"/>
<polygon fill="midnightblue" stroke="midnightblue" points="188.979,-282.651 196.823,-275.53 186.25,-276.204 188.979,-282.651"/>
</g>
<!-- Node12 -->
<g id="node12" class="node"><title>Node12</title>
<g id="a_node12"><a xlink:href="classpayments_1_1_payment_details.html#a3ae4b2d07c7e300ff7df1fba6861d17e" target="_top" xlink:title="payments::PaymentDetails\l::has_payment_url">
<polygon fill="white" stroke="black" points="175,-196.5 175,-226.5 310,-226.5 310,-196.5 175,-196.5"/>
<text text-anchor="start" x="183" y="-214.5" font-family="Helvetica,sans-Serif" font-size="10.00">payments::PaymentDetails</text>
<text text-anchor="middle" x="242.5" y="-203.5" font-family="Helvetica,sans-Serif" font-size="10.00">::has_payment_url</text>
</a>
</g>
</g>
<!-- Node1&#45;&gt;Node12 -->
<g id="edge11" class="edge"><title>Node1&#45;&gt;Node12</title>
<path fill="none" stroke="midnightblue" d="M79.8733,-343.21C96.2148,-317.726 132.286,-266.421 175,-236.5 177.677,-234.625 180.512,-232.87 183.445,-231.23"/>
<polygon fill="midnightblue" stroke="midnightblue" points="185.134,-234.298 192.471,-226.654 181.969,-228.055 185.134,-234.298"/>
</g>
<!-- Node13 -->
<g id="node13" class="node"><title>Node13</title>
<g id="a_node13"><a xlink:href="classpayments_1_1_payment_details.html#abf568d7f349cf822d99e69d1424c5099" target="_top" xlink:title="payments::PaymentDetails\l::payment_url">
<polygon fill="white" stroke="black" points="175,-147.5 175,-177.5 310,-177.5 310,-147.5 175,-147.5"/>
<text text-anchor="start" x="183" y="-165.5" font-family="Helvetica,sans-Serif" font-size="10.00">payments::PaymentDetails</text>
<text text-anchor="middle" x="242.5" y="-154.5" font-family="Helvetica,sans-Serif" font-size="10.00">::payment_url</text>
</a>
</g>
</g>
<!-- Node1&#45;&gt;Node13 -->
<g id="edge12" class="edge"><title>Node1&#45;&gt;Node13</title>
<path fill="none" stroke="midnightblue" d="M75.7992,-343.405C88.0936,-310.477 121.642,-231.621 175,-187.5 177.038,-185.815 179.2,-184.237 181.453,-182.76"/>
<polygon fill="midnightblue" stroke="midnightblue" points="183.589,-185.569 190.512,-177.549 180.099,-179.501 183.589,-185.569"/>
</g>
<!-- Node14 -->
<g id="node14" class="node"><title>Node14</title>
<g id="a_node14"><a xlink:href="classpayments_1_1_payment_details.html#a12744e044be922a0e243b87d2fadf2d9" target="_top" xlink:title="payments::PaymentDetails\l::has_merchant_data">
<polygon fill="white" stroke="black" points="175,-98.5 175,-128.5 310,-128.5 310,-98.5 175,-98.5"/>
<text text-anchor="start" x="183" y="-116.5" font-family="Helvetica,sans-Serif" font-size="10.00">payments::PaymentDetails</text>
<text text-anchor="middle" x="242.5" y="-105.5" font-family="Helvetica,sans-Serif" font-size="10.00">::has_merchant_data</text>
</a>
</g>
</g>
<!-- Node1&#45;&gt;Node14 -->
<g id="edge13" class="edge"><title>Node1&#45;&gt;Node14</title>
<path fill="none" stroke="midnightblue" d="M73.5639,-343.348C82.2869,-303.985 110.879,-197.457 175,-138.5 176.697,-136.94 178.5,-135.474 180.385,-134.098"/>
<polygon fill="midnightblue" stroke="midnightblue" points="182.5,-136.903 189.101,-128.616 178.773,-130.978 182.5,-136.903"/>
</g>
<!-- Node15 -->
<g id="node15" class="node"><title>Node15</title>
<g id="a_node15"><a xlink:href="classpayments_1_1_payment_details.html#ab38d62eca2f03cf3a9ade74790c269b2" target="_top" xlink:title="payments::PaymentDetails\l::merchant_data">
<polygon fill="white" stroke="black" points="175,-49.5 175,-79.5 310,-79.5 310,-49.5 175,-49.5"/>
<text text-anchor="start" x="183" y="-67.5" font-family="Helvetica,sans-Serif" font-size="10.00">payments::PaymentDetails</text>
<text text-anchor="middle" x="242.5" y="-56.5" font-family="Helvetica,sans-Serif" font-size="10.00">::merchant_data</text>
</a>
</g>
</g>
<!-- Node1&#45;&gt;Node15 -->
<g id="edge14" class="edge"><title>Node1&#45;&gt;Node15</title>
<path fill="none" stroke="midnightblue" d="M72.0847,-343.378C77.5863,-298.377 99.841,-163.841 175,-89.5 176.447,-88.0688 177.984,-86.7183 179.592,-85.444"/>
<polygon fill="midnightblue" stroke="midnightblue" points="181.81,-88.1705 188.156,-79.6865 177.905,-82.3612 181.81,-88.1705"/>
</g>
<!-- Node16 -->
<g id="node16" class="node"><title>Node16</title>
<g id="a_node16"><a xlink:href="classpayments_1_1_payment_details.html#a3f0a8a9f8bf6aa0630a737d4cc2c13d6" target="_top" xlink:title="payments::PaymentDetails\l::unknown_fields">
<polygon fill="white" stroke="black" points="175,-0.5 175,-30.5 310,-30.5 310,-0.5 175,-0.5"/>
<text text-anchor="start" x="183" y="-18.5" font-family="Helvetica,sans-Serif" font-size="10.00">payments::PaymentDetails</text>
<text text-anchor="middle" x="242.5" y="-7.5" font-family="Helvetica,sans-Serif" font-size="10.00">::unknown_fields</text>
</a>
</g>
</g>
<!-- Node1&#45;&gt;Node16 -->
<g id="edge15" class="edge"><title>Node1&#45;&gt;Node16</title>
<path fill="none" stroke="midnightblue" d="M71.047,-343.233C73.665,-292.928 88.7322,-130.478 175,-40.5 176.376,-39.0644 177.843,-37.7104 179.384,-36.4335"/>
<polygon fill="midnightblue" stroke="midnightblue" points="181.434,-39.2707 187.621,-30.6702 177.421,-33.5351 181.434,-39.2707"/>
</g>
</g>
</svg>
