<?xml version="1.0" encoding="UTF-8" standalone="no"?>
<!DOCTYPE svg PUBLIC "-//W3C//DTD SVG 1.1//EN"
 "http://www.w3.org/Graphics/SVG/1.1/DTD/svg11.dtd">
<!-- Generated by graphviz version 2.38.0 (20140413.2041)
 -->
<!-- Title: Ui::SendCoinsEntry Pages: 1 -->
<svg width="287pt" height="298pt"
 viewBox="0.00 0.00 286.50 298.00" xmlns="http://www.w3.org/2000/svg" xmlns:xlink="http://www.w3.org/1999/xlink">
<g id="graph0" class="graph" transform="scale(1 1) rotate(0) translate(4 294)">
<title>Ui::SendCoinsEntry</title>
<polygon fill="white" stroke="none" points="-4,4 -4,-294 282.5,-294 282.5,4 -4,4"/>
<!-- Node1 -->
<g id="node1" class="node"><title>Node1</title>
<polygon fill="#bfbfbf" stroke="black" points="116.5,-0.5 116.5,-19.5 220.5,-19.5 220.5,-0.5 116.5,-0.5"/>
<text text-anchor="middle" x="168.5" y="-7.5" font-family="Helvetica,sans-Serif" font-size="10.00">Ui::SendCoinsEntry</text>
</g>
<!-- Node2 -->
<g id="node2" class="node"><title>Node2</title>
<g id="a_node2"><a xlink:href="class_ui___send_coins_entry.html" target="_top" xlink:title="Ui_SendCoinsEntry">
<polygon fill="white" stroke="black" points="116.5,-57.5 116.5,-76.5 220.5,-76.5 220.5,-57.5 116.5,-57.5"/>
<text text-anchor="middle" x="168.5" y="-64.5" font-family="Helvetica,sans-Serif" font-size="10.00">Ui_SendCoinsEntry</text>
</a>
</g>
</g>
<!-- Node2&#45;&gt;Node1 -->
<g id="edge1" class="edge"><title>Node2&#45;&gt;Node1</title>
<path fill="none" stroke="midnightblue" d="M168.5,-47.1166C168.5,-37.8173 168.5,-27.0557 168.5,-19.7149"/>
<polygon fill="midnightblue" stroke="midnightblue" points="165,-47.4062 168.5,-57.4062 172,-47.4063 165,-47.4062"/>
</g>
<!-- Node3 -->
<g id="node3" class="node"><title>Node3</title>
<g id="a_node3"><a xlink:href="class_anoncoin_amount_field.html" target="_top" xlink:title="Widget for entering anoncoin amounts. ">
<polygon fill="white" stroke="black" points="44.5,-146.5 44.5,-165.5 158.5,-165.5 158.5,-146.5 44.5,-146.5"/>
<text text-anchor="middle" x="101.5" y="-153.5" font-family="Helvetica,sans-Serif" font-size="10.00">AnoncoinAmountField</text>
</a>
</g>
</g>
<!-- Node3&#45;&gt;Node2 -->
<g id="edge2" class="edge"><title>Node3&#45;&gt;Node2</title>
<path fill="none" stroke="#9a32cd" stroke-dasharray="5,2" d="M103.381,-136.288C105.498,-123.492 109.988,-106.779 119.5,-95 126.029,-86.9143 135.661,-80.8709 144.66,-76.5752"/>
<polygon fill="#9a32cd" stroke="#9a32cd" points="99.8982,-135.932 102.066,-146.302 106.839,-136.844 99.8982,-135.932"/>
<text text-anchor="middle" x="153" y="-120" font-family="Helvetica,sans-Serif" font-size="10.00"> payAmount_is</text>
<text text-anchor="middle" x="153" y="-109" font-family="Helvetica,sans-Serif" font-size="10.00">payAmount</text>
<text text-anchor="middle" x="153" y="-98" font-family="Helvetica,sans-Serif" font-size="10.00">payAmount_s</text>
</g>
<!-- Node4 -->
<g id="node4" class="node"><title>Node4</title>
<polygon fill="white" stroke="#bfbfbf" points="0,-213.5 0,-232.5 55,-232.5 55,-213.5 0,-213.5"/>
<text text-anchor="middle" x="27.5" y="-220.5" font-family="Helvetica,sans-Serif" font-size="10.00">QWidget</text>
</g>
<!-- Node4&#45;&gt;Node3 -->
<g id="edge3" class="edge"><title>Node4&#45;&gt;Node3</title>
<path fill="none" stroke="midnightblue" d="M45.3097,-206.356C59.8577,-193.578 79.8789,-175.992 91.6781,-165.627"/>
<polygon fill="midnightblue" stroke="midnightblue" points="42.6834,-204.005 37.48,-213.234 47.303,-209.264 42.6834,-204.005"/>
</g>
<!-- Node5 -->
<g id="node5" class="node"><title>Node5</title>
<g id="a_node5"><a xlink:href="class_q_value_combo_box.html" target="_top" xlink:title="QValueComboBox">
<polygon fill="white" stroke="black" points="73,-213.5 73,-232.5 172,-232.5 172,-213.5 73,-213.5"/>
<text text-anchor="middle" x="122.5" y="-220.5" font-family="Helvetica,sans-Serif" font-size="10.00">QValueComboBox</text>
</a>
</g>
</g>
<!-- Node5&#45;&gt;Node3 -->
<g id="edge4" class="edge"><title>Node5&#45;&gt;Node3</title>
<path fill="none" stroke="#9a32cd" stroke-dasharray="5,2" d="M116.495,-203.415C112.481,-190.988 107.385,-175.217 104.287,-165.627"/>
<polygon fill="#9a32cd" stroke="#9a32cd" points="113.263,-204.794 119.668,-213.234 119.924,-202.642 113.263,-204.794"/>
<text text-anchor="middle" x="123" y="-187" font-family="Helvetica,sans-Serif" font-size="10.00"> unit</text>
</g>
<!-- Node6 -->
<g id="node6" class="node"><title>Node6</title>
<polygon fill="white" stroke="#bfbfbf" points="85.5,-270.5 85.5,-289.5 159.5,-289.5 159.5,-270.5 85.5,-270.5"/>
<text text-anchor="middle" x="122.5" y="-277.5" font-family="Helvetica,sans-Serif" font-size="10.00">QComboBox</text>
</g>
<!-- Node6&#45;&gt;Node5 -->
<g id="edge5" class="edge"><title>Node6&#45;&gt;Node5</title>
<path fill="none" stroke="midnightblue" d="M122.5,-260.117C122.5,-250.817 122.5,-240.056 122.5,-232.715"/>
<polygon fill="midnightblue" stroke="midnightblue" points="119,-260.406 122.5,-270.406 126,-260.406 119,-260.406"/>
</g>
<!-- Node7 -->
<g id="node7" class="node"><title>Node7</title>
<g id="a_node7"><a xlink:href="class_q_validated_line_edit.html" target="_top" xlink:title="Line edit that can be marked as &quot;invalid&quot; to show input validation feedback. ">
<polygon fill="white" stroke="black" points="176.5,-146.5 176.5,-165.5 278.5,-165.5 278.5,-146.5 176.5,-146.5"/>
<text text-anchor="middle" x="227.5" y="-153.5" font-family="Helvetica,sans-Serif" font-size="10.00">QValidatedLineEdit</text>
</a>
</g>
</g>
<!-- Node7&#45;&gt;Node2 -->
<g id="edge6" class="edge"><title>Node7&#45;&gt;Node2</title>
<path fill="none" stroke="#9a32cd" stroke-dasharray="5,2" d="M217.537,-137.512C210.401,-125.331 200.349,-108.851 190.5,-95 186.015,-88.6926 180.515,-81.9426 176.136,-76.7694"/>
<polygon fill="#9a32cd" stroke="#9a32cd" points="214.54,-139.321 222.575,-146.227 220.6,-135.817 214.54,-139.321"/>
<text text-anchor="middle" x="227" y="-109" font-family="Helvetica,sans-Serif" font-size="10.00"> payTo</text>
</g>
<!-- Node8 -->
<g id="node8" class="node"><title>Node8</title>
<polygon fill="white" stroke="#bfbfbf" points="197.5,-213.5 197.5,-232.5 257.5,-232.5 257.5,-213.5 197.5,-213.5"/>
<text text-anchor="middle" x="227.5" y="-220.5" font-family="Helvetica,sans-Serif" font-size="10.00">QLineEdit</text>
</g>
<!-- Node8&#45;&gt;Node7 -->
<g id="edge7" class="edge"><title>Node8&#45;&gt;Node7</title>
<path fill="none" stroke="midnightblue" d="M227.5,-203.037C227.5,-190.67 227.5,-175.12 227.5,-165.627"/>
<polygon fill="midnightblue" stroke="midnightblue" points="224,-203.234 227.5,-213.234 231,-203.234 224,-203.234"/>
</g>
</g>
</svg>
