<?xml version="1.0" encoding="UTF-8" standalone="no"?>
<!DOCTYPE svg PUBLIC "-//W3C//DTD SVG 1.1//EN"
 "http://www.w3.org/Graphics/SVG/1.1/DTD/svg11.dtd">
<!-- Generated by graphviz version 2.38.0 (20140413.2041)
 -->
<!-- Title: CPubKey::GetHash Pages: 1 -->
<svg width="1346pt" height="411pt"
 viewBox="0.00 0.00 1346.00 411.00" xmlns="http://www.w3.org/2000/svg" xmlns:xlink="http://www.w3.org/1999/xlink">
<g id="graph0" class="graph" transform="scale(1 1) rotate(0) translate(4 407)">
<title>CPubKey::GetHash</title>
<polygon fill="white" stroke="none" points="-4,4 -4,-407 1342,-407 1342,4 -4,4"/>
<!-- Node1 -->
<g id="node1" class="node"><title>Node1</title>
<polygon fill="#bfbfbf" stroke="black" points="0,-149.5 0,-168.5 104,-168.5 104,-149.5 0,-149.5"/>
<text text-anchor="middle" x="52" y="-156.5" font-family="Helvetica,sans-Serif" font-size="10.00">CPubKey::GetHash</text>
</g>
<!-- Node2 -->
<g id="node2" class="node"><title>Node2</title>
<g id="a_node2"><a xlink:href="class_c_crypto_key_store.html#a81bd70e18aa75f566526620a74f9cd88" target="_top" xlink:title="CCryptoKeyStore::Unlock">
<polygon fill="white" stroke="black" points="160,-288.5 160,-307.5 290,-307.5 290,-288.5 160,-288.5"/>
<text text-anchor="middle" x="225" y="-295.5" font-family="Helvetica,sans-Serif" font-size="10.00">CCryptoKeyStore::Unlock</text>
</a>
</g>
</g>
<!-- Node1&#45;&gt;Node2 -->
<g id="edge1" class="edge"><title>Node1&#45;&gt;Node2</title>
<path fill="none" stroke="midnightblue" d="M72.551,-174.892C108.291,-203.944 183.157,-264.8 212.164,-288.379"/>
<polygon fill="midnightblue" stroke="midnightblue" points="74.721,-172.146 64.7535,-168.554 70.3056,-177.578 74.721,-172.146"/>
</g>
<!-- Node10 -->
<g id="node10" class="node"><title>Node10</title>
<g id="a_node10"><a xlink:href="class_c_crypto_key_store.html#a340109b8673267676a34664a76ed3274" target="_top" xlink:title="CCryptoKeyStore::AddKeyPubKey">
<polygon fill="white" stroke="black" points="140,-174.5 140,-193.5 310,-193.5 310,-174.5 140,-174.5"/>
<text text-anchor="middle" x="225" y="-181.5" font-family="Helvetica,sans-Serif" font-size="10.00">CCryptoKeyStore::AddKeyPubKey</text>
</a>
</g>
</g>
<!-- Node1&#45;&gt;Node10 -->
<g id="edge10" class="edge"><title>Node1&#45;&gt;Node10</title>
<path fill="none" stroke="midnightblue" d="M114.56,-168C128.916,-170.099 144.252,-172.341 158.761,-174.462"/>
<polygon fill="midnightblue" stroke="midnightblue" points="114.707,-164.484 104.306,-166.501 113.694,-171.411 114.707,-164.484"/>
</g>
<!-- Node24 -->
<g id="node24" class="node"><title>Node24</title>
<g id="a_node24"><a xlink:href="class_c_crypto_key_store.html#a58cfb3c490318ef82de8fc9be6637269" target="_top" xlink:title="CCryptoKeyStore::GetKey">
<polygon fill="white" stroke="black" points="158.5,-100.5 158.5,-119.5 291.5,-119.5 291.5,-100.5 158.5,-100.5"/>
<text text-anchor="middle" x="225" y="-107.5" font-family="Helvetica,sans-Serif" font-size="10.00">CCryptoKeyStore::GetKey</text>
</a>
</g>
</g>
<!-- Node1&#45;&gt;Node24 -->
<g id="edge25" class="edge"><title>Node1&#45;&gt;Node24</title>
<path fill="none" stroke="midnightblue" d="M96.3432,-146.58C125.653,-138.181 163.778,-127.257 190.708,-119.54"/>
<polygon fill="midnightblue" stroke="midnightblue" points="95.0254,-143.317 86.3765,-149.436 96.9537,-150.046 95.0254,-143.317"/>
</g>
<!-- Node29 -->
<g id="node29" class="node"><title>Node29</title>
<g id="a_node29"><a xlink:href="class_c_crypto_key_store.html#a8c0f6b63fb04193df16243c4459b7c61" target="_top" xlink:title="CCryptoKeyStore::EncryptKeys">
<polygon fill="white" stroke="black" points="147,-62.5 147,-81.5 303,-81.5 303,-62.5 147,-62.5"/>
<text text-anchor="middle" x="225" y="-69.5" font-family="Helvetica,sans-Serif" font-size="10.00">CCryptoKeyStore::EncryptKeys</text>
</a>
</g>
</g>
<!-- Node1&#45;&gt;Node29 -->
<g id="edge30" class="edge"><title>Node1&#45;&gt;Node29</title>
<path fill="none" stroke="midnightblue" d="M69.4168,-142.479C85.8653,-126.878 112.612,-103.992 140,-91 148.105,-87.1551 157.026,-84.0687 165.933,-81.5966"/>
<polygon fill="midnightblue" stroke="midnightblue" points="66.9466,-139.999 62.2117,-149.477 71.8237,-145.02 66.9466,-139.999"/>
</g>
<!-- Node3 -->
<g id="node3" class="node"><title>Node3</title>
<g id="a_node3"><a xlink:href="class_c_wallet.html#a002c61a2b74f2c46063340c568e6cc1b" target="_top" xlink:title="CWallet::Unlock">
<polygon fill="white" stroke="black" points="388.5,-345.5 388.5,-364.5 476.5,-364.5 476.5,-345.5 388.5,-345.5"/>
<text text-anchor="middle" x="432.5" y="-352.5" font-family="Helvetica,sans-Serif" font-size="10.00">CWallet::Unlock</text>
</a>
</g>
</g>
<!-- Node2&#45;&gt;Node3 -->
<g id="edge2" class="edge"><title>Node2&#45;&gt;Node3</title>
<path fill="none" stroke="midnightblue" d="M270.166,-310.25C308.133,-320.781 362.128,-335.758 396.992,-345.428"/>
<polygon fill="midnightblue" stroke="midnightblue" points="270.968,-306.841 260.396,-307.541 269.097,-313.586 270.968,-306.841"/>
</g>
<!-- Node7 -->
<g id="node7" class="node"><title>Node7</title>
<g id="a_node7"><a xlink:href="class_c_wallet.html#a4abcec3066e7c462f4564c159fc15031" target="_top" xlink:title="CWallet::ChangeWalletPassphrase">
<polygon fill="white" stroke="black" points="346,-288.5 346,-307.5 519,-307.5 519,-288.5 346,-288.5"/>
<text text-anchor="middle" x="432.5" y="-295.5" font-family="Helvetica,sans-Serif" font-size="10.00">CWallet::ChangeWalletPassphrase</text>
</a>
</g>
</g>
<!-- Node2&#45;&gt;Node7 -->
<g id="edge6" class="edge"><title>Node2&#45;&gt;Node7</title>
<path fill="none" stroke="midnightblue" d="M300.283,-298C315.105,-298 330.785,-298 345.95,-298"/>
<polygon fill="midnightblue" stroke="midnightblue" points="300.176,-294.5 290.176,-298 300.176,-301.5 300.176,-294.5"/>
</g>
<!-- Node4 -->
<g id="node4" class="node"><title>Node4</title>
<g id="a_node4"><a xlink:href="class_wallet_model.html#a6d7ebdcf0d28d058c658eb44a6c4a6c6" target="_top" xlink:title="WalletModel::setWalletLocked">
<polygon fill="white" stroke="black" points="561.5,-383.5 561.5,-402.5 711.5,-402.5 711.5,-383.5 561.5,-383.5"/>
<text text-anchor="middle" x="636.5" y="-390.5" font-family="Helvetica,sans-Serif" font-size="10.00">WalletModel::setWalletLocked</text>
</a>
</g>
</g>
<!-- Node3&#45;&gt;Node4 -->
<g id="edge3" class="edge"><title>Node3&#45;&gt;Node4</title>
<path fill="none" stroke="midnightblue" d="M486.806,-365.028C517.117,-370.73 554.867,-377.832 584.746,-383.452"/>
<polygon fill="midnightblue" stroke="midnightblue" points="487.309,-361.561 476.834,-363.152 486.015,-368.44 487.309,-361.561"/>
</g>
<!-- Node6 -->
<g id="node6" class="node"><title>Node6</title>
<g id="a_node6"><a xlink:href="rpcwallet_8cpp.html#a733f7c70e7c18783935e6de9643c0086" target="_top" xlink:title="walletpassphrase">
<polygon fill="white" stroke="black" points="589.5,-345.5 589.5,-364.5 683.5,-364.5 683.5,-345.5 589.5,-345.5"/>
<text text-anchor="middle" x="636.5" y="-352.5" font-family="Helvetica,sans-Serif" font-size="10.00">walletpassphrase</text>
</a>
</g>
</g>
<!-- Node3&#45;&gt;Node6 -->
<g id="edge5" class="edge"><title>Node3&#45;&gt;Node6</title>
<path fill="none" stroke="midnightblue" d="M486.882,-355C518.787,-355 558.914,-355 589.428,-355"/>
<polygon fill="midnightblue" stroke="midnightblue" points="486.834,-351.5 476.834,-355 486.834,-358.5 486.834,-351.5"/>
</g>
<!-- Node5 -->
<g id="node5" class="node"><title>Node5</title>
<g id="a_node5"><a xlink:href="class_ask_passphrase_dialog.html#ac2f176af3693b73870d26ef0bfc6cbb9" target="_top" xlink:title="AskPassphraseDialog\l::accept">
<polygon fill="white" stroke="black" points="757.5,-340 757.5,-370 871.5,-370 871.5,-340 757.5,-340"/>
<text text-anchor="start" x="765.5" y="-358" font-family="Helvetica,sans-Serif" font-size="10.00">AskPassphraseDialog</text>
<text text-anchor="middle" x="814.5" y="-347" font-family="Helvetica,sans-Serif" font-size="10.00">::accept</text>
</a>
</g>
</g>
<!-- Node4&#45;&gt;Node5 -->
<g id="edge4" class="edge"><title>Node4&#45;&gt;Node5</title>
<path fill="none" stroke="midnightblue" d="M691.866,-381.262C712.677,-376.769 736.443,-371.637 757.412,-367.11"/>
<polygon fill="midnightblue" stroke="midnightblue" points="690.948,-377.879 681.912,-383.411 692.426,-384.722 690.948,-377.879"/>
</g>
<!-- Node8 -->
<g id="node8" class="node"><title>Node8</title>
<g id="a_node8"><a xlink:href="class_wallet_model.html#a67ebff3f267b5c9973c0465184c085a4" target="_top" xlink:title="WalletModel::changePassphrase">
<polygon fill="white" stroke="black" points="555,-307.5 555,-326.5 718,-326.5 718,-307.5 555,-307.5"/>
<text text-anchor="middle" x="636.5" y="-314.5" font-family="Helvetica,sans-Serif" font-size="10.00">WalletModel::changePassphrase</text>
</a>
</g>
</g>
<!-- Node7&#45;&gt;Node8 -->
<g id="edge7" class="edge"><title>Node7&#45;&gt;Node8</title>
<path fill="none" stroke="midnightblue" d="M529.2,-307.001C537.779,-307.808 546.41,-308.62 554.843,-309.413"/>
<polygon fill="midnightblue" stroke="midnightblue" points="529.45,-303.51 519.166,-306.058 528.794,-310.479 529.45,-303.51"/>
</g>
<!-- Node9 -->
<g id="node9" class="node"><title>Node9</title>
<g id="a_node9"><a xlink:href="rpcwallet_8cpp.html#a84ad884957e24688433be32a9ca70933" target="_top" xlink:title="walletpassphrasechange">
<polygon fill="white" stroke="black" points="573,-269.5 573,-288.5 700,-288.5 700,-269.5 573,-269.5"/>
<text text-anchor="middle" x="636.5" y="-276.5" font-family="Helvetica,sans-Serif" font-size="10.00">walletpassphrasechange</text>
</a>
</g>
</g>
<!-- Node7&#45;&gt;Node9 -->
<g id="edge9" class="edge"><title>Node7&#45;&gt;Node9</title>
<path fill="none" stroke="midnightblue" d="M529.383,-288.981C544.196,-287.588 559.157,-286.181 572.987,-284.88"/>
<polygon fill="midnightblue" stroke="midnightblue" points="528.794,-285.521 519.166,-289.942 529.45,-292.49 528.794,-285.521"/>
</g>
<!-- Node8&#45;&gt;Node5 -->
<g id="edge8" class="edge"><title>Node8&#45;&gt;Node5</title>
<path fill="none" stroke="midnightblue" d="M691.866,-328.738C712.677,-333.231 736.443,-338.363 757.412,-342.89"/>
<polygon fill="midnightblue" stroke="midnightblue" points="692.426,-325.278 681.912,-326.589 690.948,-332.121 692.426,-325.278"/>
</g>
<!-- Node11 -->
<g id="node11" class="node"><title>Node11</title>
<g id="a_node11"><a xlink:href="class_c_wallet.html#a3240da36cd717146296969227a3e0bd5" target="_top" xlink:title="CWallet::AddKeyPubKey">
<polygon fill="white" stroke="black" points="369,-212.5 369,-231.5 496,-231.5 496,-212.5 369,-212.5"/>
<text text-anchor="middle" x="432.5" y="-219.5" font-family="Helvetica,sans-Serif" font-size="10.00">CWallet::AddKeyPubKey</text>
</a>
</g>
</g>
<!-- Node10&#45;&gt;Node11 -->
<g id="edge11" class="edge"><title>Node10&#45;&gt;Node11</title>
<path fill="none" stroke="midnightblue" d="M287.748,-195.418C317.151,-200.855 351.913,-207.283 379.888,-212.456"/>
<polygon fill="midnightblue" stroke="midnightblue" points="288.061,-191.917 277.591,-193.54 286.788,-198.8 288.061,-191.917"/>
</g>
<!-- Node14 -->
<g id="node14" class="node"><title>Node14</title>
<g id="a_node14"><a xlink:href="class_c_wallet.html#a439bab81d7989f91a4f0909960516eea" target="_top" xlink:title="CWallet::LoadKey">
<polygon fill="white" stroke="black" points="384,-174.5 384,-193.5 481,-193.5 481,-174.5 384,-174.5"/>
<text text-anchor="middle" x="432.5" y="-181.5" font-family="Helvetica,sans-Serif" font-size="10.00">CWallet::LoadKey</text>
</a>
</g>
</g>
<!-- Node10&#45;&gt;Node14 -->
<g id="edge14" class="edge"><title>Node10&#45;&gt;Node14</title>
<path fill="none" stroke="midnightblue" d="M320.269,-184C342.347,-184 364.949,-184 383.964,-184"/>
<polygon fill="midnightblue" stroke="midnightblue" points="320.178,-180.5 310.178,-184 320.178,-187.5 320.178,-180.5"/>
</g>
<!-- Node12 -->
<g id="node12" class="node"><title>Node12</title>
<g id="a_node12"><a xlink:href="rpcdump_8cpp.html#a3a6fdb974fce01220a895393d444e981" target="_top" xlink:title="importprivkey">
<polygon fill="white" stroke="black" points="598.5,-231.5 598.5,-250.5 674.5,-250.5 674.5,-231.5 598.5,-231.5"/>
<text text-anchor="middle" x="636.5" y="-238.5" font-family="Helvetica,sans-Serif" font-size="10.00">importprivkey</text>
</a>
</g>
</g>
<!-- Node11&#45;&gt;Node12 -->
<g id="edge12" class="edge"><title>Node11&#45;&gt;Node12</title>
<path fill="none" stroke="midnightblue" d="M506.014,-228.821C537.243,-231.758 572.429,-235.068 598.232,-237.495"/>
<polygon fill="midnightblue" stroke="midnightblue" points="506.315,-225.334 496.031,-227.882 505.659,-232.303 506.315,-225.334"/>
</g>
<!-- Node13 -->
<g id="node13" class="node"><title>Node13</title>
<g id="a_node13"><a xlink:href="rpcdump_8cpp.html#a2566d5c9dd1938b74e70398cdb3ac5c1" target="_top" xlink:title="importwallet">
<polygon fill="white" stroke="black" points="601.5,-193.5 601.5,-212.5 671.5,-212.5 671.5,-193.5 601.5,-193.5"/>
<text text-anchor="middle" x="636.5" y="-200.5" font-family="Helvetica,sans-Serif" font-size="10.00">importwallet</text>
</a>
</g>
</g>
<!-- Node11&#45;&gt;Node13 -->
<g id="edge13" class="edge"><title>Node11&#45;&gt;Node13</title>
<path fill="none" stroke="midnightblue" d="M506.4,-215.143C538.851,-212.091 575.507,-208.643 601.446,-206.203"/>
<polygon fill="midnightblue" stroke="midnightblue" points="505.659,-211.697 496.031,-216.118 506.315,-218.666 505.659,-211.697"/>
</g>
<!-- Node15 -->
<g id="node15" class="node"><title>Node15</title>
<g id="a_node15"><a xlink:href="walletdb_8cpp.html#ad1f171cf096f5479805a06fc20480343" target="_top" xlink:title="ReadKeyValue">
<polygon fill="white" stroke="black" points="595,-155.5 595,-174.5 678,-174.5 678,-155.5 595,-155.5"/>
<text text-anchor="middle" x="636.5" y="-162.5" font-family="Helvetica,sans-Serif" font-size="10.00">ReadKeyValue</text>
</a>
</g>
</g>
<!-- Node14&#45;&gt;Node15 -->
<g id="edge15" class="edge"><title>Node14&#45;&gt;Node15</title>
<path fill="none" stroke="midnightblue" d="M491.113,-178.581C524.187,-175.47 564.925,-171.638 594.687,-168.839"/>
<polygon fill="midnightblue" stroke="midnightblue" points="490.744,-175.1 481.115,-179.521 491.399,-182.069 490.744,-175.1"/>
</g>
<!-- Node16 -->
<g id="node16" class="node"><title>Node16</title>
<g id="a_node16"><a xlink:href="class_c_wallet_d_b.html#a14f26e53502d1a60dd2b034f830acf03" target="_top" xlink:title="CWalletDB::LoadWallet">
<polygon fill="white" stroke="black" points="754,-174.5 754,-193.5 875,-193.5 875,-174.5 754,-174.5"/>
<text text-anchor="middle" x="814.5" y="-181.5" font-family="Helvetica,sans-Serif" font-size="10.00">CWalletDB::LoadWallet</text>
</a>
</g>
</g>
<!-- Node15&#45;&gt;Node16 -->
<g id="edge16" class="edge"><title>Node15&#45;&gt;Node16</title>
<path fill="none" stroke="midnightblue" d="M688.387,-170.494C708.859,-172.703 732.61,-175.268 753.884,-177.564"/>
<polygon fill="midnightblue" stroke="midnightblue" points="688.638,-167 678.32,-169.407 687.887,-173.96 688.638,-167"/>
</g>
<!-- Node22 -->
<g id="node22" class="node"><title>Node22</title>
<g id="a_node22"><a xlink:href="class_c_wallet_d_b.html#a3ebeb12f37d9c66512e2bc2903a6854a" target="_top" xlink:title="CWalletDB::Recover">
<polygon fill="white" stroke="black" points="760.5,-136.5 760.5,-155.5 868.5,-155.5 868.5,-136.5 760.5,-136.5"/>
<text text-anchor="middle" x="814.5" y="-143.5" font-family="Helvetica,sans-Serif" font-size="10.00">CWalletDB::Recover</text>
</a>
</g>
</g>
<!-- Node15&#45;&gt;Node22 -->
<g id="edge22" class="edge"><title>Node15&#45;&gt;Node22</title>
<path fill="none" stroke="midnightblue" d="M688.366,-159.509C710.899,-157.076 737.41,-154.214 760.217,-151.752"/>
<polygon fill="midnightblue" stroke="midnightblue" points="687.887,-156.04 678.32,-160.593 688.638,-163 687.887,-156.04"/>
</g>
<!-- Node17 -->
<g id="node17" class="node"><title>Node17</title>
<g id="a_node17"><a xlink:href="class_c_wallet.html#a5d7b244b8ed0cbe24233ee0b6ca3cae0" target="_top" xlink:title="CWallet::LoadWallet">
<polygon fill="white" stroke="black" points="911.5,-174.5 911.5,-193.5 1018.5,-193.5 1018.5,-174.5 911.5,-174.5"/>
<text text-anchor="middle" x="965" y="-181.5" font-family="Helvetica,sans-Serif" font-size="10.00">CWallet::LoadWallet</text>
</a>
</g>
</g>
<!-- Node16&#45;&gt;Node17 -->
<g id="edge17" class="edge"><title>Node16&#45;&gt;Node17</title>
<path fill="none" stroke="midnightblue" d="M885.218,-184C893.941,-184 902.748,-184 911.154,-184"/>
<polygon fill="midnightblue" stroke="midnightblue" points="885.045,-180.5 875.045,-184 885.045,-187.5 885.045,-180.5"/>
</g>
<!-- Node18 -->
<g id="node18" class="node"><title>Node18</title>
<g id="a_node18"><a xlink:href="init_8h.html#a1a4c1bfbf6ba1db77e988b89b9cadfd3" target="_top" xlink:title="Initialize anoncoin. ">
<polygon fill="white" stroke="black" points="1055,-155.5 1055,-174.5 1108,-174.5 1108,-155.5 1055,-155.5"/>
<text text-anchor="middle" x="1081.5" y="-162.5" font-family="Helvetica,sans-Serif" font-size="10.00">AppInit2</text>
</a>
</g>
</g>
<!-- Node17&#45;&gt;Node18 -->
<g id="edge18" class="edge"><title>Node17&#45;&gt;Node18</title>
<path fill="none" stroke="midnightblue" d="M1028.6,-173.612C1037.83,-172.08 1046.88,-170.579 1054.76,-169.271"/>
<polygon fill="midnightblue" stroke="midnightblue" points="1027.85,-170.189 1018.56,-175.279 1029,-177.094 1027.85,-170.189"/>
</g>
<!-- Node19 -->
<g id="node19" class="node"><title>Node19</title>
<g id="a_node19"><a xlink:href="anoncoind_8cpp.html#ac59316b767e6984e1285f0531275286b" target="_top" xlink:title="AppInit">
<polygon fill="white" stroke="black" points="1180,-174.5 1180,-193.5 1228,-193.5 1228,-174.5 1180,-174.5"/>
<text text-anchor="middle" x="1204" y="-181.5" font-family="Helvetica,sans-Serif" font-size="10.00">AppInit</text>
</a>
</g>
</g>
<!-- Node18&#45;&gt;Node19 -->
<g id="edge19" class="edge"><title>Node18&#45;&gt;Node19</title>
<path fill="none" stroke="midnightblue" d="M1118.05,-170.605C1138.04,-173.758 1162.42,-177.602 1179.93,-180.362"/>
<polygon fill="midnightblue" stroke="midnightblue" points="1118.48,-167.13 1108.05,-169.029 1117.39,-174.044 1118.48,-167.13"/>
</g>
<!-- Node21 -->
<g id="node21" class="node"><title>Node21</title>
<g id="a_node21"><a xlink:href="class_anoncoin_coin.html#a9510881824d283404ac43414dbb74586" target="_top" xlink:title="AnoncoinCoin::initialize">
<polygon fill="white" stroke="black" points="1144,-136.5 1144,-155.5 1264,-155.5 1264,-136.5 1144,-136.5"/>
<text text-anchor="middle" x="1204" y="-143.5" font-family="Helvetica,sans-Serif" font-size="10.00">AnoncoinCoin::initialize</text>
</a>
</g>
</g>
<!-- Node18&#45;&gt;Node21 -->
<g id="edge21" class="edge"><title>Node18&#45;&gt;Node21</title>
<path fill="none" stroke="midnightblue" d="M1118.19,-159.373C1126.25,-158.102 1135.02,-156.719 1143.76,-155.34"/>
<polygon fill="midnightblue" stroke="midnightblue" points="1117.39,-155.956 1108.05,-160.971 1118.48,-162.87 1117.39,-155.956"/>
</g>
<!-- Node20 -->
<g id="node20" class="node"><title>Node20</title>
<g id="a_node20"><a xlink:href="anoncoind_8cpp.html#a0ddf1224851353fc92bfbff6f499fa97" target="_top" xlink:title="main">
<polygon fill="white" stroke="black" points="1300,-174.5 1300,-193.5 1338,-193.5 1338,-174.5 1300,-174.5"/>
<text text-anchor="middle" x="1319" y="-181.5" font-family="Helvetica,sans-Serif" font-size="10.00">main</text>
</a>
</g>
</g>
<!-- Node19&#45;&gt;Node20 -->
<g id="edge20" class="edge"><title>Node19&#45;&gt;Node20</title>
<path fill="none" stroke="midnightblue" d="M1238.15,-184C1258.25,-184 1283.13,-184 1299.73,-184"/>
<polygon fill="midnightblue" stroke="midnightblue" points="1238.14,-180.5 1228.14,-184 1238.14,-187.5 1238.14,-180.5"/>
</g>
<!-- Node22&#45;&gt;Node18 -->
<g id="edge23" class="edge"><title>Node22&#45;&gt;Node18</title>
<path fill="none" stroke="midnightblue" d="M879.042,-150.556C935.367,-154.594 1014.74,-160.285 1054.97,-163.17"/>
<polygon fill="midnightblue" stroke="midnightblue" points="879.033,-147.046 868.808,-149.822 878.532,-154.028 879.033,-147.046"/>
</g>
<!-- Node23 -->
<g id="node23" class="node"><title>Node23</title>
<g id="a_node23"><a xlink:href="class_c_wallet_d_b.html#a44388f1c3ee63191dcb78b1001e9390c" target="_top" xlink:title="CWalletDB::Recover">
<polygon fill="white" stroke="black" points="911,-98.5 911,-117.5 1019,-117.5 1019,-98.5 911,-98.5"/>
<text text-anchor="middle" x="965" y="-105.5" font-family="Helvetica,sans-Serif" font-size="10.00">CWalletDB::Recover</text>
</a>
</g>
</g>
<!-- Node22&#45;&gt;Node23 -->
<g id="edge24" class="edge"><title>Node22&#45;&gt;Node23</title>
<path fill="none" stroke="midnightblue" d="M862.833,-133.888C883.515,-128.596 907.419,-122.479 926.797,-117.52"/>
<polygon fill="midnightblue" stroke="midnightblue" points="861.793,-130.541 852.973,-136.411 863.528,-137.323 861.793,-130.541"/>
</g>
<!-- Node25 -->
<g id="node25" class="node"><title>Node25</title>
<g id="a_node25"><a xlink:href="class_sign_verify_message_dialog.html#a2ef91b4ace68d63ab1c1d3cc6c13b5f9" target="_top" xlink:title="SignVerifyMessageDialog\l::on_signMessageButton\l_SM_clicked">
<polygon fill="white" stroke="black" points="367,-114.5 367,-155.5 498,-155.5 498,-114.5 367,-114.5"/>
<text text-anchor="start" x="375" y="-143.5" font-family="Helvetica,sans-Serif" font-size="10.00">SignVerifyMessageDialog</text>
<text text-anchor="start" x="375" y="-132.5" font-family="Helvetica,sans-Serif" font-size="10.00">::on_signMessageButton</text>
<text text-anchor="middle" x="432.5" y="-121.5" font-family="Helvetica,sans-Serif" font-size="10.00">_SM_clicked</text>
</a>
</g>
</g>
<!-- Node24&#45;&gt;Node25 -->
<g id="edge26" class="edge"><title>Node24&#45;&gt;Node25</title>
<path fill="none" stroke="midnightblue" d="M301.623,-119.2C323.051,-121.807 346.174,-124.62 366.887,-127.14"/>
<polygon fill="midnightblue" stroke="midnightblue" points="301.936,-115.712 291.586,-117.979 301.091,-122.661 301.936,-115.712"/>
</g>
<!-- Node26 -->
<g id="node26" class="node"><title>Node26</title>
<g id="a_node26"><a xlink:href="rpcdump_8cpp.html#a4010fb238298e15c540d3e5ecd60f858" target="_top" xlink:title="dumpprivkey">
<polygon fill="white" stroke="black" points="396,-76.5 396,-95.5 469,-95.5 469,-76.5 396,-76.5"/>
<text text-anchor="middle" x="432.5" y="-83.5" font-family="Helvetica,sans-Serif" font-size="10.00">dumpprivkey</text>
</a>
</g>
</g>
<!-- Node24&#45;&gt;Node26 -->
<g id="edge27" class="edge"><title>Node24&#45;&gt;Node26</title>
<path fill="none" stroke="midnightblue" d="M301.872,-101.139C334.012,-97.3855 369.926,-93.1911 395.787,-90.1708"/>
<polygon fill="midnightblue" stroke="midnightblue" points="301.113,-97.7038 291.586,-102.34 301.925,-104.657 301.113,-97.7038"/>
</g>
<!-- Node27 -->
<g id="node27" class="node"><title>Node27</title>
<g id="a_node27"><a xlink:href="rpcdump_8cpp.html#a831ddf746d4f2500ba6f6c07f63445cd" target="_top" xlink:title="dumpwallet">
<polygon fill="white" stroke="black" points="399,-38.5 399,-57.5 466,-57.5 466,-38.5 399,-38.5"/>
<text text-anchor="middle" x="432.5" y="-45.5" font-family="Helvetica,sans-Serif" font-size="10.00">dumpwallet</text>
</a>
</g>
</g>
<!-- Node24&#45;&gt;Node27 -->
<g id="edge28" class="edge"><title>Node24&#45;&gt;Node27</title>
<path fill="none" stroke="midnightblue" d="M291.568,-97.6454C297.898,-95.7182 304.139,-93.5143 310,-91 327.672,-83.4192 328.313,-74.5474 346,-67 362.783,-59.8383 382.618,-55.2158 398.957,-52.3258"/>
<polygon fill="midnightblue" stroke="midnightblue" points="290.268,-94.3752 281.589,-100.451 292.163,-101.114 290.268,-94.3752"/>
</g>
<!-- Node28 -->
<g id="node28" class="node"><title>Node28</title>
<g id="a_node28"><a xlink:href="rpcwallet_8cpp.html#a315b42a2c859c4b50a54c1b05984928c" target="_top" xlink:title="signmessage">
<polygon fill="white" stroke="black" points="395,-0.5 395,-19.5 470,-19.5 470,-0.5 395,-0.5"/>
<text text-anchor="middle" x="432.5" y="-7.5" font-family="Helvetica,sans-Serif" font-size="10.00">signmessage</text>
</a>
</g>
</g>
<!-- Node24&#45;&gt;Node28 -->
<g id="edge29" class="edge"><title>Node24&#45;&gt;Node28</title>
<path fill="none" stroke="midnightblue" d="M300.911,-96.6447C304.092,-94.9732 307.142,-93.0996 310,-91 335.679,-72.1353 320.285,-47.8162 346,-29 359.99,-18.7636 378.475,-13.8762 394.677,-11.6038"/>
<polygon fill="midnightblue" stroke="midnightblue" points="299.314,-93.526 291.649,-100.84 302.202,-99.9025 299.314,-93.526"/>
</g>
</g>
</svg>
