<?xml version="1.0" encoding="UTF-8" standalone="no"?>
<!DOCTYPE svg PUBLIC "-//W3C//DTD SVG 1.1//EN"
 "http://www.w3.org/Graphics/SVG/1.1/DTD/svg11.dtd">
<!-- Generated by graphviz version 2.38.0 (20140413.2041)
 -->
<!-- Title: CWallet::UnlockCoin Pages: 1 -->
<svg width="557pt" height="72pt"
 viewBox="0.00 0.00 557.00 71.50" xmlns="http://www.w3.org/2000/svg" xmlns:xlink="http://www.w3.org/1999/xlink">
<g id="graph0" class="graph" transform="scale(1 1) rotate(0) translate(4 67.5)">
<title>CWallet::UnlockCoin</title>
<polygon fill="white" stroke="none" points="-4,4 -4,-67.5 553,-67.5 553,4 -4,4"/>
<!-- Node1 -->
<g id="node1" class="node"><title>Node1</title>
<polygon fill="#bfbfbf" stroke="black" points="0,-19.5 0,-38.5 108,-38.5 108,-19.5 0,-19.5"/>
<text text-anchor="middle" x="54" y="-26.5" font-family="Helvetica,sans-Serif" font-size="10.00">CWallet::UnlockCoin</text>
</g>
<!-- Node2 -->
<g id="node2" class="node"><title>Node2</title>
<g id="a_node2"><a xlink:href="class_wallet_model.html#a0a5514bd400327df0f7d63341d8fabf4" target="_top" xlink:title="WalletModel::unlockCoin">
<polygon fill="white" stroke="black" points="144,-38.5 144,-57.5 271,-57.5 271,-38.5 144,-38.5"/>
<text text-anchor="middle" x="207.5" y="-45.5" font-family="Helvetica,sans-Serif" font-size="10.00">WalletModel::unlockCoin</text>
</a>
</g>
</g>
<!-- Node1&#45;&gt;Node2 -->
<g id="edge1" class="edge"><title>Node1&#45;&gt;Node2</title>
<path fill="none" stroke="midnightblue" d="M118.547,-36.9696C126.962,-38.0249 135.584,-39.1062 143.981,-40.1594"/>
<polygon fill="midnightblue" stroke="midnightblue" points="118.771,-33.4704 108.413,-35.6987 117.9,-40.4159 118.771,-33.4704"/>
</g>
<!-- Node5 -->
<g id="node5" class="node"><title>Node5</title>
<g id="a_node5"><a xlink:href="rpcwallet_8cpp.html#a039075982abdf78052b40886b5b3e2cf" target="_top" xlink:title="lockunspent">
<polygon fill="white" stroke="black" points="172.5,-0.5 172.5,-19.5 242.5,-19.5 242.5,-0.5 172.5,-0.5"/>
<text text-anchor="middle" x="207.5" y="-7.5" font-family="Helvetica,sans-Serif" font-size="10.00">lockunspent</text>
</a>
</g>
</g>
<!-- Node1&#45;&gt;Node5 -->
<g id="edge4" class="edge"><title>Node1&#45;&gt;Node5</title>
<path fill="none" stroke="midnightblue" d="M118.557,-21.0292C137.053,-18.7096 156.544,-16.2651 172.464,-14.2686"/>
<polygon fill="midnightblue" stroke="midnightblue" points="117.9,-17.5841 108.413,-22.3013 118.771,-24.5296 117.9,-17.5841"/>
</g>
<!-- Node3 -->
<g id="node3" class="node"><title>Node3</title>
<g id="a_node3"><a xlink:href="class_coin_control_dialog.html#a3097ebdc8972660aae30f49f2ccd1d8c" target="_top" xlink:title="CoinControlDialog::\lunlockCoin">
<polygon fill="white" stroke="black" points="307,-33 307,-63 410,-63 410,-33 307,-33"/>
<text text-anchor="start" x="315" y="-51" font-family="Helvetica,sans-Serif" font-size="10.00">CoinControlDialog::</text>
<text text-anchor="middle" x="358.5" y="-40" font-family="Helvetica,sans-Serif" font-size="10.00">unlockCoin</text>
</a>
</g>
</g>
<!-- Node2&#45;&gt;Node3 -->
<g id="edge2" class="edge"><title>Node2&#45;&gt;Node3</title>
<path fill="none" stroke="midnightblue" d="M281.536,-48C289.997,-48 298.483,-48 306.558,-48"/>
<polygon fill="midnightblue" stroke="midnightblue" points="281.258,-44.5001 271.258,-48 281.258,-51.5001 281.258,-44.5001"/>
</g>
<!-- Node4 -->
<g id="node4" class="node"><title>Node4</title>
<g id="a_node4"><a xlink:href="class_coin_control_dialog.html#a0945e59c25f956fdab199dbaf252eff5" target="_top" xlink:title="CoinControlDialog::\lCoinControlDialog">
<polygon fill="white" stroke="black" points="446,-33 446,-63 549,-63 549,-33 446,-33"/>
<text text-anchor="start" x="454" y="-51" font-family="Helvetica,sans-Serif" font-size="10.00">CoinControlDialog::</text>
<text text-anchor="middle" x="497.5" y="-40" font-family="Helvetica,sans-Serif" font-size="10.00">CoinControlDialog</text>
</a>
</g>
</g>
<!-- Node3&#45;&gt;Node4 -->
<g id="edge3" class="edge"><title>Node3&#45;&gt;Node4</title>
<path fill="none" stroke="midnightblue" d="M420.32,-48C428.772,-48 437.382,-48 445.626,-48"/>
<polygon fill="midnightblue" stroke="midnightblue" points="420.125,-44.5001 410.125,-48 420.124,-51.5001 420.125,-44.5001"/>
</g>
</g>
</svg>
