<?xml version="1.0" encoding="UTF-8" standalone="no"?>
<!DOCTYPE svg PUBLIC "-//W3C//DTD SVG 1.1//EN"
 "http://www.w3.org/Graphics/SVG/1.1/DTD/svg11.dtd">
<!-- Generated by graphviz version 2.38.0 (20140413.2041)
 -->
<!-- Title: TransactionRecord::formatSubTxId Pages: 1 -->
<svg width="1304pt" height="127pt"
 viewBox="0.00 0.00 1304.00 126.50" xmlns="http://www.w3.org/2000/svg" xmlns:xlink="http://www.w3.org/1999/xlink">
<g id="graph0" class="graph" transform="scale(1 1) rotate(0) translate(4 122.5)">
<title>TransactionRecord::formatSubTxId</title>
<polygon fill="white" stroke="none" points="-4,4 -4,-122.5 1300,-122.5 1300,4 -4,4"/>
<!-- Node1 -->
<g id="node1" class="node"><title>Node1</title>
<polygon fill="#bfbfbf" stroke="black" points="0,-40 0,-70 107,-70 107,-40 0,-40"/>
<text text-anchor="start" x="8" y="-58" font-family="Helvetica,sans-Serif" font-size="10.00">TransactionRecord::</text>
<text text-anchor="middle" x="53.5" y="-47" font-family="Helvetica,sans-Serif" font-size="10.00">formatSubTxId</text>
</g>
<!-- Node2 -->
<g id="node2" class="node"><title>Node2</title>
<g id="a_node2"><a xlink:href="class_transaction_desc.html#ab7c9dbb2048aae121dd9d75df86e64f4" target="_top" xlink:title="TransactionDesc::toHTML">
<polygon fill="white" stroke="black" points="143,-66.5 143,-85.5 276,-85.5 276,-66.5 143,-66.5"/>
<text text-anchor="middle" x="209.5" y="-73.5" font-family="Helvetica,sans-Serif" font-size="10.00">TransactionDesc::toHTML</text>
</a>
</g>
</g>
<!-- Node1&#45;&gt;Node2 -->
<g id="edge1" class="edge"><title>Node1&#45;&gt;Node2</title>
<path fill="none" stroke="midnightblue" d="M117.216,-63.5522C125.656,-64.7032 134.334,-65.8865 142.824,-67.0441"/>
<polygon fill="midnightblue" stroke="midnightblue" points="117.449,-60.0516 107.067,-62.1683 116.503,-66.9874 117.449,-60.0516"/>
</g>
<!-- Node14 -->
<g id="node14" class="node"><title>Node14</title>
<g id="a_node14"><a xlink:href="class_transaction_record.html#a8f3795b100c3c4653249d2c96a898c0d" target="_top" xlink:title="Return the unique identifier for this transaction (part) ">
<polygon fill="white" stroke="black" points="314,-15 314,-45 421,-45 421,-15 314,-15"/>
<text text-anchor="start" x="322" y="-33" font-family="Helvetica,sans-Serif" font-size="10.00">TransactionRecord::</text>
<text text-anchor="middle" x="367.5" y="-22" font-family="Helvetica,sans-Serif" font-size="10.00">getTxID</text>
</a>
</g>
</g>
<!-- Node1&#45;&gt;Node14 -->
<g id="edge13" class="edge"><title>Node1&#45;&gt;Node14</title>
<path fill="none" stroke="midnightblue" d="M117.173,-49.9781C174.931,-45.3501 259.678,-38.5594 313.971,-34.209"/>
<polygon fill="midnightblue" stroke="midnightblue" points="116.762,-46.4997 107.074,-50.7874 117.321,-53.4774 116.762,-46.4997"/>
</g>
<!-- Node3 -->
<g id="node3" class="node"><title>Node3</title>
<g id="a_node3"><a xlink:href="class_transaction_table_priv.html#ab08d44e16bf6dd95b5b83959b3013780" target="_top" xlink:title="TransactionTablePriv\l::describe">
<polygon fill="white" stroke="black" points="312,-64 312,-94 423,-94 423,-64 312,-64"/>
<text text-anchor="start" x="320" y="-82" font-family="Helvetica,sans-Serif" font-size="10.00">TransactionTablePriv</text>
<text text-anchor="middle" x="367.5" y="-71" font-family="Helvetica,sans-Serif" font-size="10.00">::describe</text>
</a>
</g>
</g>
<!-- Node2&#45;&gt;Node3 -->
<g id="edge2" class="edge"><title>Node2&#45;&gt;Node3</title>
<path fill="none" stroke="midnightblue" d="M286.249,-77.4567C294.84,-77.6219 303.468,-77.7878 311.714,-77.9464"/>
<polygon fill="midnightblue" stroke="midnightblue" points="286.271,-73.9566 276.206,-77.2636 286.137,-80.9553 286.271,-73.9566"/>
</g>
<!-- Node4 -->
<g id="node4" class="node"><title>Node4</title>
<g id="a_node4"><a xlink:href="class_transaction_table_model.html#a416d0751ab9a95ecd87d3f7bed4f0b06" target="_top" xlink:title="TransactionTableModel\l::data">
<polygon fill="white" stroke="black" points="459,-39 459,-69 580,-69 580,-39 459,-39"/>
<text text-anchor="start" x="467" y="-57" font-family="Helvetica,sans-Serif" font-size="10.00">TransactionTableModel</text>
<text text-anchor="middle" x="519.5" y="-46" font-family="Helvetica,sans-Serif" font-size="10.00">::data</text>
</a>
</g>
</g>
<!-- Node3&#45;&gt;Node4 -->
<g id="edge3" class="edge"><title>Node3&#45;&gt;Node4</title>
<path fill="none" stroke="midnightblue" d="M433.043,-68.2428C441.629,-66.8119 450.401,-65.3499 458.897,-63.9338"/>
<polygon fill="midnightblue" stroke="midnightblue" points="432.366,-64.8073 423.078,-69.9037 433.517,-71.712 432.366,-64.8073"/>
</g>
<!-- Node5 -->
<g id="node5" class="node"><title>Node5</title>
<g id="a_node5"><a xlink:href="class_transaction_table_model.html#aaaf3cea9a5373fff771ce81d2f26de6e" target="_top" xlink:title="TransactionTableModel\l::index">
<polygon fill="white" stroke="black" points="616,-39 616,-69 737,-69 737,-39 616,-39"/>
<text text-anchor="start" x="624" y="-57" font-family="Helvetica,sans-Serif" font-size="10.00">TransactionTableModel</text>
<text text-anchor="middle" x="676.5" y="-46" font-family="Helvetica,sans-Serif" font-size="10.00">::index</text>
</a>
</g>
</g>
<!-- Node4&#45;&gt;Node5 -->
<g id="edge4" class="edge"><title>Node4&#45;&gt;Node5</title>
<path fill="none" stroke="midnightblue" d="M590.661,-54C599.122,-54 607.7,-54 615.988,-54"/>
<polygon fill="midnightblue" stroke="midnightblue" points="590.427,-50.5001 580.427,-54 590.427,-57.5001 590.427,-50.5001"/>
</g>
<!-- Node6 -->
<g id="node6" class="node"><title>Node6</title>
<g id="a_node6"><a xlink:href="class_transaction_table_model.html#a5899d9eda6465bfb16d2846b6459567e" target="_top" xlink:title="TransactionTableModel\l::updateConfirmations">
<polygon fill="white" stroke="black" points="802,-88 802,-118 923,-118 923,-88 802,-88"/>
<text text-anchor="start" x="810" y="-106" font-family="Helvetica,sans-Serif" font-size="10.00">TransactionTableModel</text>
<text text-anchor="middle" x="862.5" y="-95" font-family="Helvetica,sans-Serif" font-size="10.00">::updateConfirmations</text>
</a>
</g>
</g>
<!-- Node5&#45;&gt;Node6 -->
<g id="edge5" class="edge"><title>Node5&#45;&gt;Node6</title>
<path fill="none" stroke="midnightblue" d="M743.676,-71.6229C763.806,-76.9837 785.732,-82.8225 805.15,-87.9938"/>
<polygon fill="midnightblue" stroke="midnightblue" points="744.52,-68.2259 733.957,-69.0346 742.719,-74.9902 744.52,-68.2259"/>
</g>
<!-- Node9 -->
<g id="node9" class="node"><title>Node9</title>
<g id="a_node9"><a xlink:href="class_transaction_table_model.html#a8b73ff7d72ec2dd69790bc61bbe8575e" target="_top" xlink:title="TransactionTableModel\l::updateDisplayUnit">
<polygon fill="white" stroke="black" points="802,-39 802,-69 923,-69 923,-39 802,-39"/>
<text text-anchor="start" x="810" y="-57" font-family="Helvetica,sans-Serif" font-size="10.00">TransactionTableModel</text>
<text text-anchor="middle" x="862.5" y="-46" font-family="Helvetica,sans-Serif" font-size="10.00">::updateDisplayUnit</text>
</a>
</g>
</g>
<!-- Node5&#45;&gt;Node9 -->
<g id="edge8" class="edge"><title>Node5&#45;&gt;Node9</title>
<path fill="none" stroke="midnightblue" d="M747.343,-54C765.267,-54 784.383,-54 801.746,-54"/>
<polygon fill="midnightblue" stroke="midnightblue" points="747.24,-50.5001 737.24,-54 747.239,-57.5001 747.24,-50.5001"/>
</g>
<!-- Node11 -->
<g id="node11" class="node"><title>Node11</title>
<g id="a_node11"><a xlink:href="class_wallet_view.html#addde7d2260658ee06f47f9c095a8cb2a" target="_top" xlink:title="Show incoming transaction notification for new transactions. ">
<polygon fill="white" stroke="black" points="773,-0.5 773,-19.5 952,-19.5 952,-0.5 773,-0.5"/>
<text text-anchor="middle" x="862.5" y="-7.5" font-family="Helvetica,sans-Serif" font-size="10.00">WalletView::processNewTransaction</text>
</a>
</g>
</g>
<!-- Node5&#45;&gt;Node11 -->
<g id="edge10" class="edge"><title>Node5&#45;&gt;Node11</title>
<path fill="none" stroke="midnightblue" d="M743.097,-36.417C753.096,-33.8559 763.309,-31.3075 773,-29 786.606,-25.7604 801.448,-22.4768 815.022,-19.5715"/>
<polygon fill="midnightblue" stroke="midnightblue" points="742.003,-33.0844 733.196,-38.9738 743.754,-39.862 742.003,-33.0844"/>
</g>
<!-- Node7 -->
<g id="node7" class="node"><title>Node7</title>
<g id="a_node7"><a xlink:href="class_wallet_model.html#a51469b2d95cfd4bc0a14ee456fca7b95" target="_top" xlink:title="WalletModel::pollBalance\lChanged">
<polygon fill="white" stroke="black" points="993.5,-88 993.5,-118 1122.5,-118 1122.5,-88 993.5,-88"/>
<text text-anchor="start" x="1001.5" y="-106" font-family="Helvetica,sans-Serif" font-size="10.00">WalletModel::pollBalance</text>
<text text-anchor="middle" x="1058" y="-95" font-family="Helvetica,sans-Serif" font-size="10.00">Changed</text>
</a>
</g>
</g>
<!-- Node6&#45;&gt;Node7 -->
<g id="edge6" class="edge"><title>Node6&#45;&gt;Node7</title>
<path fill="none" stroke="midnightblue" d="M933.21,-103C952.791,-103 973.979,-103 993.197,-103"/>
<polygon fill="midnightblue" stroke="midnightblue" points="933.135,-99.5001 923.135,-103 933.135,-106.5 933.135,-99.5001"/>
</g>
<!-- Node8 -->
<g id="node8" class="node"><title>Node8</title>
<g id="a_node8"><a xlink:href="class_wallet_model.html#af50d9654d2f20e4e4f0789dcb64ad6b1" target="_top" xlink:title="WalletModel::WalletModel">
<polygon fill="white" stroke="black" points="1164,-93.5 1164,-112.5 1296,-112.5 1296,-93.5 1164,-93.5"/>
<text text-anchor="middle" x="1230" y="-100.5" font-family="Helvetica,sans-Serif" font-size="10.00">WalletModel::WalletModel</text>
</a>
</g>
</g>
<!-- Node7&#45;&gt;Node8 -->
<g id="edge7" class="edge"><title>Node7&#45;&gt;Node8</title>
<path fill="none" stroke="midnightblue" d="M1132.94,-103C1143.18,-103 1153.65,-103 1163.72,-103"/>
<polygon fill="midnightblue" stroke="midnightblue" points="1132.79,-99.5001 1122.79,-103 1132.79,-106.5 1132.79,-99.5001"/>
</g>
<!-- Node10 -->
<g id="node10" class="node"><title>Node10</title>
<g id="a_node10"><a xlink:href="class_transaction_table_model.html#a6c10b7cab9804eee6df9e049a978dc62" target="_top" xlink:title="TransactionTableModel\l::TransactionTableModel">
<polygon fill="white" stroke="black" points="994.5,-39 994.5,-69 1121.5,-69 1121.5,-39 994.5,-39"/>
<text text-anchor="start" x="1002.5" y="-57" font-family="Helvetica,sans-Serif" font-size="10.00">TransactionTableModel</text>
<text text-anchor="middle" x="1058" y="-46" font-family="Helvetica,sans-Serif" font-size="10.00">::TransactionTableModel</text>
</a>
</g>
</g>
<!-- Node9&#45;&gt;Node10 -->
<g id="edge9" class="edge"><title>Node9&#45;&gt;Node10</title>
<path fill="none" stroke="midnightblue" d="M933.363,-54C953.247,-54 974.776,-54 994.211,-54"/>
<polygon fill="midnightblue" stroke="midnightblue" points="933.135,-50.5001 923.135,-54 933.135,-57.5001 933.135,-50.5001"/>
</g>
<!-- Node12 -->
<g id="node12" class="node"><title>Node12</title>
<g id="a_node12"><a xlink:href="class_wallet_view.html#a0a37ff693a4f9c1e5ddc23f9cd3913be" target="_top" xlink:title="Set the wallet model. ">
<polygon fill="white" stroke="black" points="988,-0.5 988,-19.5 1128,-19.5 1128,-0.5 988,-0.5"/>
<text text-anchor="middle" x="1058" y="-7.5" font-family="Helvetica,sans-Serif" font-size="10.00">WalletView::setWalletModel</text>
</a>
</g>
</g>
<!-- Node11&#45;&gt;Node12 -->
<g id="edge11" class="edge"><title>Node11&#45;&gt;Node12</title>
<path fill="none" stroke="midnightblue" d="M962.222,-10C970.903,-10 979.563,-10 987.922,-10"/>
<polygon fill="midnightblue" stroke="midnightblue" points="962.039,-6.5001 952.039,-10 962.039,-13.5001 962.039,-6.5001"/>
</g>
<!-- Node13 -->
<g id="node13" class="node"><title>Node13</title>
<g id="a_node13"><a xlink:href="class_wallet_frame.html#aa199c3f27654199d84c365cf86167d86" target="_top" xlink:title="WalletFrame::addWallet">
<polygon fill="white" stroke="black" points="1168.5,-0.5 1168.5,-19.5 1291.5,-19.5 1291.5,-0.5 1168.5,-0.5"/>
<text text-anchor="middle" x="1230" y="-7.5" font-family="Helvetica,sans-Serif" font-size="10.00">WalletFrame::addWallet</text>
</a>
</g>
</g>
<!-- Node12&#45;&gt;Node13 -->
<g id="edge12" class="edge"><title>Node12&#45;&gt;Node13</title>
<path fill="none" stroke="midnightblue" d="M1138.22,-10C1148.36,-10 1158.6,-10 1168.38,-10"/>
<polygon fill="midnightblue" stroke="midnightblue" points="1138.15,-6.5001 1128.15,-10 1138.15,-13.5001 1138.15,-6.5001"/>
</g>
<!-- Node14&#45;&gt;Node4 -->
<g id="edge14" class="edge"><title>Node14&#45;&gt;Node4</title>
<path fill="none" stroke="midnightblue" d="M431.509,-40.0815C440.594,-41.535 449.919,-43.027 458.933,-44.4693"/>
<polygon fill="midnightblue" stroke="midnightblue" points="431.812,-36.5854 421.384,-38.4615 430.706,-43.4975 431.812,-36.5854"/>
</g>
</g>
</svg>
