<?xml version="1.0" encoding="UTF-8" standalone="no"?>
<!DOCTYPE svg PUBLIC "-//W3C//DTD SVG 1.1//EN"
 "http://www.w3.org/Graphics/SVG/1.1/DTD/svg11.dtd">
<!-- Generated by graphviz version 2.38.0 (20140413.2041)
 -->
<!-- Title: CAddrMan::Add Pages: 1 -->
<svg width="930pt" height="434pt"
 viewBox="0.00 0.00 930.00 434.24" xmlns="http://www.w3.org/2000/svg" xmlns:xlink="http://www.w3.org/1999/xlink">
<g id="graph0" class="graph" transform="scale(1 1) rotate(0) translate(4 430.239)">
<title>CAddrMan::Add</title>
<polygon fill="white" stroke="none" points="-4,4 -4,-430.239 926,-430.239 926,4 -4,4"/>
<!-- Node1 -->
<g id="node1" class="node"><title>Node1</title>
<polygon fill="#bfbfbf" stroke="black" points="0,-204.5 0,-223.5 88,-223.5 88,-204.5 0,-204.5"/>
<text text-anchor="middle" x="44" y="-211.5" font-family="Helvetica,sans-Serif" font-size="10.00">CAddrMan::Add</text>
</g>
<!-- Node2 -->
<g id="node2" class="node"><title>Node2</title>
<g id="a_node2"><a xlink:href="class_c_addr_man.html#a0c2677ae50ce0d680f0105b285d1f5d0" target="_top" xlink:title="CAddrMan::Check">
<polygon fill="white" stroke="black" points="139,-294.5 139,-313.5 237,-313.5 237,-294.5 139,-294.5"/>
<text text-anchor="middle" x="188" y="-301.5" font-family="Helvetica,sans-Serif" font-size="10.00">CAddrMan::Check</text>
</a>
</g>
</g>
<!-- Node1&#45;&gt;Node2 -->
<g id="edge1" class="edge"><title>Node1&#45;&gt;Node2</title>
<path fill="none" stroke="midnightblue" d="M53.2147,-223.741C66.5549,-238.962 94.4292,-268.362 124,-285 127.914,-287.202 132.112,-289.176 136.413,-290.94"/>
<polygon fill="midnightblue" stroke="midnightblue" points="135.335,-294.273 145.927,-294.473 137.771,-287.711 135.335,-294.273"/>
</g>
<!-- Node3 -->
<g id="node3" class="node"><title>Node3</title>
<g id="a_node3"><a xlink:href="class_c_addr_man.html#a9dd6df8b1904548a86054d19d4a90724" target="_top" xlink:title="CAddrMan::Add_">
<polygon fill="white" stroke="black" points="141.5,-256.5 141.5,-275.5 234.5,-275.5 234.5,-256.5 141.5,-256.5"/>
<text text-anchor="middle" x="188" y="-263.5" font-family="Helvetica,sans-Serif" font-size="10.00">CAddrMan::Add_</text>
</a>
</g>
</g>
<!-- Node1&#45;&gt;Node3 -->
<g id="edge2" class="edge"><title>Node1&#45;&gt;Node3</title>
<path fill="none" stroke="midnightblue" d="M71.045,-223.538C93.5225,-231.769 126.212,-243.74 151.157,-252.874"/>
<polygon fill="midnightblue" stroke="midnightblue" points="150.045,-256.195 160.639,-256.347 152.453,-249.621 150.045,-256.195"/>
</g>
<!-- Node18 -->
<g id="node18" class="node"><title>Node18</title>
<g id="a_node18"><a xlink:href="class_c_service.html#a39b82301356b0dfc2a92befc727b77be" target="_top" xlink:title="CService::ToStringIPPort">
<polygon fill="white" stroke="black" points="124,-152.5 124,-171.5 252,-171.5 252,-152.5 124,-152.5"/>
<text text-anchor="middle" x="188" y="-159.5" font-family="Helvetica,sans-Serif" font-size="10.00">CService::ToStringIPPort</text>
</a>
</g>
</g>
<!-- Node1&#45;&gt;Node18 -->
<g id="edge18" class="edge"><title>Node1&#45;&gt;Node18</title>
<path fill="none" stroke="midnightblue" d="M71.045,-204.462C93.5225,-196.231 126.212,-184.26 151.157,-175.126"/>
<polygon fill="midnightblue" stroke="midnightblue" points="152.453,-178.379 160.639,-171.653 150.045,-171.805 152.453,-178.379"/>
</g>
<!-- Node29 -->
<g id="node29" class="node"><title>Node29</title>
<g id="a_node29"><a xlink:href="class_c_net_addr.html#aae906cecdba331389f249a64693895b6" target="_top" xlink:title="CNetAddr::ToString">
<polygon fill="white" stroke="black" points="136,-114.5 136,-133.5 240,-133.5 240,-114.5 136,-114.5"/>
<text text-anchor="middle" x="188" y="-121.5" font-family="Helvetica,sans-Serif" font-size="10.00">CNetAddr::ToString</text>
</a>
</g>
</g>
<!-- Node1&#45;&gt;Node29 -->
<g id="edge32" class="edge"><title>Node1&#45;&gt;Node29</title>
<path fill="none" stroke="midnightblue" d="M53.2147,-204.259C66.5549,-189.038 94.4292,-159.638 124,-143 127.914,-140.798 132.112,-138.824 136.413,-137.06"/>
<polygon fill="midnightblue" stroke="midnightblue" points="137.771,-140.289 145.927,-133.527 135.335,-133.727 137.771,-140.289"/>
</g>
<!-- Node4 -->
<g id="node4" class="node"><title>Node4</title>
<g id="a_node4"><a xlink:href="class_c_net_addr.html#a35131b2792434d1c9a860c583b610ab6" target="_top" xlink:title="CNetAddr::IsRoutable">
<polygon fill="white" stroke="black" points="298,-399.5 298,-418.5 412,-418.5 412,-399.5 298,-399.5"/>
<text text-anchor="middle" x="355" y="-406.5" font-family="Helvetica,sans-Serif" font-size="10.00">CNetAddr::IsRoutable</text>
</a>
</g>
</g>
<!-- Node3&#45;&gt;Node4 -->
<g id="edge3" class="edge"><title>Node3&#45;&gt;Node4</title>
<path fill="none" stroke="midnightblue" d="M234.61,-274.42C240.949,-277.045 246.994,-280.487 252,-285 282.776,-312.744 260.603,-339.914 288,-371 296.674,-380.842 308.538,-388.763 319.817,-394.773"/>
<polygon fill="midnightblue" stroke="midnightblue" points="318.558,-398.056 329.071,-399.374 321.674,-391.788 318.558,-398.056"/>
</g>
<!-- Node6 -->
<g id="node6" class="node"><title>Node6</title>
<g id="a_node6"><a xlink:href="util_8cpp.html#a09f81b9c7650f898cf3cf305b87547e6" target="_top" xlink:title="GetAdjustedTime">
<polygon fill="white" stroke="black" points="308,-342.5 308,-361.5 402,-361.5 402,-342.5 308,-342.5"/>
<text text-anchor="middle" x="355" y="-349.5" font-family="Helvetica,sans-Serif" font-size="10.00">GetAdjustedTime</text>
</a>
</g>
</g>
<!-- Node3&#45;&gt;Node6 -->
<g id="edge5" class="edge"><title>Node3&#45;&gt;Node6</title>
<path fill="none" stroke="midnightblue" d="M229.244,-275.605C237.012,-278.157 244.927,-281.268 252,-285 270.171,-294.588 271.046,-302.395 288,-314 300.346,-322.451 314.673,-330.855 326.817,-337.603"/>
<polygon fill="midnightblue" stroke="midnightblue" points="325.157,-340.685 335.609,-342.414 328.517,-334.544 325.157,-340.685"/>
</g>
<!-- Node9 -->
<g id="node9" class="node"><title>Node9</title>
<g id="a_node9"><a xlink:href="util_8cpp.html#a0e44e088732172da6662db2d5e37d4b2" target="_top" xlink:title="GetRandInt">
<polygon fill="white" stroke="black" points="321,-285.5 321,-304.5 389,-304.5 389,-285.5 321,-285.5"/>
<text text-anchor="middle" x="355" y="-292.5" font-family="Helvetica,sans-Serif" font-size="10.00">GetRandInt</text>
</a>
</g>
</g>
<!-- Node3&#45;&gt;Node9 -->
<g id="edge8" class="edge"><title>Node3&#45;&gt;Node9</title>
<path fill="none" stroke="midnightblue" d="M234.524,-274.001C258.371,-278.193 287.416,-283.297 310.897,-287.424"/>
<polygon fill="midnightblue" stroke="midnightblue" points="310.466,-290.902 320.921,-289.186 311.677,-284.008 310.466,-290.902"/>
</g>
<!-- Node11 -->
<g id="node11" class="node"><title>Node11</title>
<g id="a_node11"><a xlink:href="class_c_addr_info.html#ae53c2174bdbc070bb1777cfabecaddda" target="_top" xlink:title="CAddrInfo::GetNewBucket">
<polygon fill="white" stroke="black" points="288,-228.5 288,-247.5 422,-247.5 422,-228.5 288,-228.5"/>
<text text-anchor="middle" x="355" y="-235.5" font-family="Helvetica,sans-Serif" font-size="10.00">CAddrInfo::GetNewBucket</text>
</a>
</g>
</g>
<!-- Node3&#45;&gt;Node11 -->
<g id="edge10" class="edge"><title>Node3&#45;&gt;Node11</title>
<path fill="none" stroke="midnightblue" d="M234.524,-258.275C250.87,-255.501 269.659,-252.312 287.423,-249.298"/>
<polygon fill="midnightblue" stroke="midnightblue" points="288.465,-252.671 297.738,-247.547 287.294,-245.77 288.465,-252.671"/>
</g>
<!-- Node5 -->
<g id="node5" class="node"><title>Node5</title>
<g id="a_node5"><a xlink:href="net_8cpp.html#a16fa1bd4d34c4c29c90903fc3cdf7517" target="_top" xlink:title="check whether a given address is potentially local ">
<polygon fill="white" stroke="black" points="650.5,-304.5 650.5,-323.5 698.5,-323.5 698.5,-304.5 650.5,-304.5"/>
<text text-anchor="middle" x="674.5" y="-311.5" font-family="Helvetica,sans-Serif" font-size="10.00">IsLocal</text>
</a>
</g>
</g>
<!-- Node4&#45;&gt;Node5 -->
<g id="edge4" class="edge"><title>Node4&#45;&gt;Node5</title>
<path fill="none" stroke="midnightblue" d="M399.204,-418.547C445.79,-426.711 521.175,-433.641 580,-409 617.144,-393.441 646.995,-355.136 662.304,-332.199"/>
<polygon fill="midnightblue" stroke="midnightblue" points="665.31,-333.995 667.784,-323.694 659.426,-330.204 665.31,-333.995"/>
</g>
<!-- Node7 -->
<g id="node7" class="node"><title>Node7</title>
<g id="a_node7"><a xlink:href="util_8cpp.html#a46fac5fba8ba905b5f9acb364f5d8c6f" target="_top" xlink:title="GetTime">
<polygon fill="white" stroke="black" points="491.5,-380.5 491.5,-399.5 546.5,-399.5 546.5,-380.5 491.5,-380.5"/>
<text text-anchor="middle" x="519" y="-387.5" font-family="Helvetica,sans-Serif" font-size="10.00">GetTime</text>
</a>
</g>
</g>
<!-- Node6&#45;&gt;Node7 -->
<g id="edge6" class="edge"><title>Node6&#45;&gt;Node7</title>
<path fill="none" stroke="midnightblue" d="M396.879,-361.589C422.912,-367.695 456.342,-375.537 481.484,-381.434"/>
<polygon fill="midnightblue" stroke="midnightblue" points="480.827,-384.875 491.362,-383.752 482.426,-378.06 480.827,-384.875"/>
</g>
<!-- Node8 -->
<g id="node8" class="node"><title>Node8</title>
<g id="a_node8"><a xlink:href="util_8cpp.html#a50ca5344c75631267633f15cfe5e983e" target="_top" xlink:title="GetTimeOffset">
<polygon fill="white" stroke="black" points="478,-342.5 478,-361.5 560,-361.5 560,-342.5 478,-342.5"/>
<text text-anchor="middle" x="519" y="-349.5" font-family="Helvetica,sans-Serif" font-size="10.00">GetTimeOffset</text>
</a>
</g>
</g>
<!-- Node6&#45;&gt;Node8 -->
<g id="edge7" class="edge"><title>Node6&#45;&gt;Node8</title>
<path fill="none" stroke="midnightblue" d="M402.423,-352C422.819,-352 446.815,-352 467.642,-352"/>
<polygon fill="midnightblue" stroke="midnightblue" points="467.894,-355.5 477.894,-352 467.894,-348.5 467.894,-355.5"/>
</g>
<!-- Node10 -->
<g id="node10" class="node"><title>Node10</title>
<g id="a_node10"><a xlink:href="util_8cpp.html#a27d9149d522b1fa87d84e5e9ca902aef" target="_top" xlink:title="GetRand">
<polygon fill="white" stroke="black" points="490.5,-304.5 490.5,-323.5 547.5,-323.5 547.5,-304.5 490.5,-304.5"/>
<text text-anchor="middle" x="519" y="-311.5" font-family="Helvetica,sans-Serif" font-size="10.00">GetRand</text>
</a>
</g>
</g>
<!-- Node9&#45;&gt;Node10 -->
<g id="edge9" class="edge"><title>Node9&#45;&gt;Node10</title>
<path fill="none" stroke="midnightblue" d="M389.174,-298.891C415.605,-301.991 452.62,-306.332 480.195,-309.566"/>
<polygon fill="midnightblue" stroke="midnightblue" points="479.919,-313.058 490.259,-310.746 480.735,-306.105 479.919,-313.058"/>
</g>
<!-- Node12 -->
<g id="node12" class="node"><title>Node12</title>
<g id="a_node12"><a xlink:href="class_c_net_addr.html#af196f306433562cb088dc83fd314a267" target="_top" xlink:title="CNetAddr::GetGroup">
<polygon fill="white" stroke="black" points="464,-266.5 464,-285.5 574,-285.5 574,-266.5 464,-266.5"/>
<text text-anchor="middle" x="519" y="-273.5" font-family="Helvetica,sans-Serif" font-size="10.00">CNetAddr::GetGroup</text>
</a>
</g>
</g>
<!-- Node11&#45;&gt;Node12 -->
<g id="edge11" class="edge"><title>Node11&#45;&gt;Node12</title>
<path fill="none" stroke="midnightblue" d="M396.879,-247.589C418.353,-252.626 444.86,-258.844 467.597,-264.177"/>
<polygon fill="midnightblue" stroke="midnightblue" points="466.879,-267.604 477.415,-266.48 468.478,-260.789 466.879,-267.604"/>
</g>
<!-- Node15 -->
<g id="node15" class="node"><title>Node15</title>
<g id="a_node15"><a xlink:href="hash_8h.html#ab3f6c437460137530d86e09c2c102e99" target="_top" xlink:title="Hash">
<polygon fill="white" stroke="black" points="499,-228.5 499,-247.5 539,-247.5 539,-228.5 499,-228.5"/>
<text text-anchor="middle" x="519" y="-235.5" font-family="Helvetica,sans-Serif" font-size="10.00">Hash</text>
</a>
</g>
</g>
<!-- Node11&#45;&gt;Node15 -->
<g id="edge15" class="edge"><title>Node11&#45;&gt;Node15</title>
<path fill="none" stroke="midnightblue" d="M422.359,-238C445.441,-238 470.164,-238 488.69,-238"/>
<polygon fill="midnightblue" stroke="midnightblue" points="488.823,-241.5 498.823,-238 488.823,-234.5 488.823,-241.5"/>
</g>
<!-- Node16 -->
<g id="node16" class="node"><title>Node16</title>
<g id="a_node16"><a xlink:href="class_c_data_stream.html#a5b9e70188c662f4e9496066472af213e" target="_top" xlink:title="CDataStream::begin">
<polygon fill="white" stroke="black" points="465.5,-190.5 465.5,-209.5 572.5,-209.5 572.5,-190.5 465.5,-190.5"/>
<text text-anchor="middle" x="519" y="-197.5" font-family="Helvetica,sans-Serif" font-size="10.00">CDataStream::begin</text>
</a>
</g>
</g>
<!-- Node11&#45;&gt;Node16 -->
<g id="edge16" class="edge"><title>Node11&#45;&gt;Node16</title>
<path fill="none" stroke="midnightblue" d="M396.879,-228.411C418.353,-223.374 444.86,-217.156 467.597,-211.823"/>
<polygon fill="midnightblue" stroke="midnightblue" points="468.478,-215.211 477.415,-209.52 466.879,-208.396 468.478,-215.211"/>
</g>
<!-- Node17 -->
<g id="node17" class="node"><title>Node17</title>
<g id="a_node17"><a xlink:href="class_c_data_stream.html#a1c22182691412ed9e0a30b719d388f31" target="_top" xlink:title="CDataStream::end">
<polygon fill="white" stroke="black" points="469.5,-152.5 469.5,-171.5 568.5,-171.5 568.5,-152.5 469.5,-152.5"/>
<text text-anchor="middle" x="519" y="-159.5" font-family="Helvetica,sans-Serif" font-size="10.00">CDataStream::end</text>
</a>
</g>
</g>
<!-- Node11&#45;&gt;Node17 -->
<g id="edge17" class="edge"><title>Node11&#45;&gt;Node17</title>
<path fill="none" stroke="midnightblue" d="M401.379,-228.421C408.555,-225.936 415.684,-222.841 422,-219 441.878,-206.912 438.283,-193.349 458,-181 461.342,-178.907 464.935,-177.026 468.641,-175.339"/>
<polygon fill="midnightblue" stroke="midnightblue" points="470.058,-178.541 478.008,-171.537 467.425,-172.055 470.058,-178.541"/>
</g>
<!-- Node12&#45;&gt;Node5 -->
<g id="edge14" class="edge"><title>Node12&#45;&gt;Node5</title>
<path fill="none" stroke="midnightblue" d="M558.735,-285.589C583.913,-291.822 616.395,-299.863 640.373,-305.799"/>
<polygon fill="midnightblue" stroke="midnightblue" points="639.534,-309.197 650.082,-308.203 641.216,-302.402 639.534,-309.197"/>
</g>
<!-- Node13 -->
<g id="node13" class="node"><title>Node13</title>
<g id="a_node13"><a xlink:href="glibc__compat_8cpp.html#a0f46826ab0466591e136db24394923cf" target="_top" xlink:title="memcpy">
<polygon fill="white" stroke="black" points="769,-76.5 769,-95.5 823,-95.5 823,-76.5 769,-76.5"/>
<text text-anchor="middle" x="796" y="-83.5" font-family="Helvetica,sans-Serif" font-size="10.00">memcpy</text>
</a>
</g>
</g>
<!-- Node12&#45;&gt;Node13 -->
<g id="edge12" class="edge"><title>Node12&#45;&gt;Node13</title>
<path fill="none" stroke="midnightblue" d="M556.947,-266.436C564.755,-263.83 572.804,-260.687 580,-257 662.912,-214.516 744.474,-137.303 778.472,-103.097"/>
<polygon fill="midnightblue" stroke="midnightblue" points="781.191,-105.324 785.708,-95.7398 776.2,-100.416 781.191,-105.324"/>
</g>
<!-- Node14 -->
<g id="node14" class="node"><title>Node14</title>
<g id="a_node14"><a xlink:href="glibc__compat_8cpp.html#a9778d49e9029dd75bc53ecbbf9f5e9a1" target="_top" xlink:title="memmove">
<polygon fill="white" stroke="black" points="859,-76.5 859,-95.5 922,-95.5 922,-76.5 859,-76.5"/>
<text text-anchor="middle" x="890.5" y="-83.5" font-family="Helvetica,sans-Serif" font-size="10.00">memmove</text>
</a>
</g>
</g>
<!-- Node13&#45;&gt;Node14 -->
<g id="edge13" class="edge"><title>Node13&#45;&gt;Node14</title>
<path fill="none" stroke="midnightblue" d="M823.259,-86C831.244,-86 840.214,-86 848.912,-86"/>
<polygon fill="midnightblue" stroke="midnightblue" points="848.924,-89.5001 858.924,-86 848.924,-82.5001 848.924,-89.5001"/>
</g>
<!-- Node19 -->
<g id="node19" class="node"><title>Node19</title>
<g id="a_node19"><a xlink:href="util_8cpp.html#a24f685720bf40370e5bd2a192ad50cd8" target="_top" xlink:title="Return string argument or default value. ">
<polygon fill="white" stroke="black" points="331,-190.5 331,-209.5 379,-209.5 379,-190.5 331,-190.5"/>
<text text-anchor="middle" x="355" y="-197.5" font-family="Helvetica,sans-Serif" font-size="10.00">GetArg</text>
</a>
</g>
</g>
<!-- Node18&#45;&gt;Node19 -->
<g id="edge19" class="edge"><title>Node18&#45;&gt;Node19</title>
<path fill="none" stroke="midnightblue" d="M230.636,-171.589C258.618,-178.033 294.989,-186.41 320.976,-192.394"/>
<polygon fill="midnightblue" stroke="midnightblue" points="320.201,-195.808 330.731,-194.641 321.772,-188.986 320.201,-195.808"/>
</g>
<!-- Node20 -->
<g id="node20" class="node"><title>Node20</title>
<g id="a_node20"><a xlink:href="class_c_service.html#a1e0f0b98239a9097044695a9e439bb46" target="_top" xlink:title="CService::ToStringPort">
<polygon fill="white" stroke="black" points="295.5,-152.5 295.5,-171.5 414.5,-171.5 414.5,-152.5 295.5,-152.5"/>
<text text-anchor="middle" x="355" y="-159.5" font-family="Helvetica,sans-Serif" font-size="10.00">CService::ToStringPort</text>
</a>
</g>
</g>
<!-- Node18&#45;&gt;Node20 -->
<g id="edge20" class="edge"><title>Node18&#45;&gt;Node20</title>
<path fill="none" stroke="midnightblue" d="M252.321,-162C263.065,-162 274.268,-162 285.146,-162"/>
<polygon fill="midnightblue" stroke="midnightblue" points="285.45,-165.5 295.45,-162 285.45,-158.5 285.45,-165.5"/>
</g>
<!-- Node21 -->
<g id="node21" class="node"><title>Node21</title>
<g id="a_node21"><a xlink:href="class_c_net_addr.html#a16ff4478f02f06f5a9a038a24d5da2f9" target="_top" xlink:title="CNetAddr::IsIPv4">
<polygon fill="white" stroke="black" points="627.5,-114.5 627.5,-133.5 721.5,-133.5 721.5,-114.5 627.5,-114.5"/>
<text text-anchor="middle" x="674.5" y="-121.5" font-family="Helvetica,sans-Serif" font-size="10.00">CNetAddr::IsIPv4</text>
</a>
</g>
</g>
<!-- Node18&#45;&gt;Node21 -->
<g id="edge21" class="edge"><title>Node18&#45;&gt;Node21</title>
<path fill="none" stroke="midnightblue" d="M231.677,-152.451C249.062,-148.916 269.407,-145.231 288,-143 404.441,-129.027 541.851,-125.279 617.133,-124.306"/>
<polygon fill="midnightblue" stroke="midnightblue" points="617.377,-127.804 627.335,-124.187 617.295,-120.804 617.377,-127.804"/>
</g>
<!-- Node22 -->
<g id="node22" class="node"><title>Node22</title>
<g id="a_node22"><a xlink:href="class_c_net_addr.html#a3fba9e0b18f531c0ed15794a30e8165d" target="_top" xlink:title="CNetAddr::IsTor">
<polygon fill="white" stroke="black" points="310.5,-76.5 310.5,-95.5 399.5,-95.5 399.5,-76.5 310.5,-76.5"/>
<text text-anchor="middle" x="355" y="-83.5" font-family="Helvetica,sans-Serif" font-size="10.00">CNetAddr::IsTor</text>
</a>
</g>
</g>
<!-- Node18&#45;&gt;Node22 -->
<g id="edge22" class="edge"><title>Node18&#45;&gt;Node22</title>
<path fill="none" stroke="midnightblue" d="M230.435,-152.414C237.862,-149.892 245.348,-146.786 252,-143 270.864,-132.264 269.443,-121.259 288,-110 294.966,-105.773 302.793,-102.118 310.556,-99.0237"/>
<polygon fill="midnightblue" stroke="midnightblue" points="311.786,-102.301 319.932,-95.5267 309.339,-95.742 311.786,-102.301"/>
</g>
<!-- Node23 -->
<g id="node23" class="node"><title>Node23</title>
<g id="a_node23"><a xlink:href="class_c_net_addr.html#a7ec845c27b63853fb0db08a4d154266f" target="_top" xlink:title="CNetAddr::ToStringIP">
<polygon fill="white" stroke="black" points="298.5,-38.5 298.5,-57.5 411.5,-57.5 411.5,-38.5 298.5,-38.5"/>
<text text-anchor="middle" x="355" y="-45.5" font-family="Helvetica,sans-Serif" font-size="10.00">CNetAddr::ToStringIP</text>
</a>
</g>
</g>
<!-- Node18&#45;&gt;Node23 -->
<g id="edge23" class="edge"><title>Node18&#45;&gt;Node23</title>
<path fill="none" stroke="midnightblue" d="M236.681,-152.416C242.225,-149.96 247.498,-146.875 252,-143 280.328,-118.618 259.519,-91.2025 288,-67 289.988,-65.311 292.117,-63.7719 294.351,-62.3695"/>
<polygon fill="midnightblue" stroke="midnightblue" points="296.176,-65.3641 303.395,-57.6093 292.916,-59.1697 296.176,-65.3641"/>
</g>
<!-- Node24 -->
<g id="node24" class="node"><title>Node24</title>
<g id="a_node24"><a xlink:href="util_8cpp.html#a71aa75e646de8a10971f887bc71d9a75" target="_top" xlink:title="EncodeBase32">
<polygon fill="white" stroke="black" points="477,-76.5 477,-95.5 561,-95.5 561,-76.5 477,-76.5"/>
<text text-anchor="middle" x="519" y="-83.5" font-family="Helvetica,sans-Serif" font-size="10.00">EncodeBase32</text>
</a>
</g>
</g>
<!-- Node23&#45;&gt;Node24 -->
<g id="edge24" class="edge"><title>Node23&#45;&gt;Node24</title>
<path fill="none" stroke="midnightblue" d="M396.879,-57.589C418.353,-62.6261 444.86,-68.8438 467.597,-74.1771"/>
<polygon fill="midnightblue" stroke="midnightblue" points="466.879,-77.6037 477.415,-76.4799 468.478,-70.7887 466.879,-77.6037"/>
</g>
<!-- Node25 -->
<g id="node25" class="node"><title>Node25</title>
<g id="a_node25"><a xlink:href="class_c_service.html#ab0f791c174511056236119cc1580faeb" target="_top" xlink:title="CService::GetSockAddr">
<polygon fill="white" stroke="black" points="458,-38.5 458,-57.5 580,-57.5 580,-38.5 458,-38.5"/>
<text text-anchor="middle" x="519" y="-45.5" font-family="Helvetica,sans-Serif" font-size="10.00">CService::GetSockAddr</text>
</a>
</g>
</g>
<!-- Node23&#45;&gt;Node25 -->
<g id="edge25" class="edge"><title>Node23&#45;&gt;Node25</title>
<path fill="none" stroke="midnightblue" d="M411.751,-48C423.406,-48 435.836,-48 447.935,-48"/>
<polygon fill="midnightblue" stroke="midnightblue" points="447.996,-51.5001 457.995,-48 447.995,-44.5001 447.996,-51.5001"/>
</g>
<!-- Node25&#45;&gt;Node21 -->
<g id="edge26" class="edge"><title>Node25&#45;&gt;Node21</title>
<path fill="none" stroke="midnightblue" d="M559.992,-57.5369C566.94,-60.0551 573.888,-63.1721 580,-67 599.717,-79.3488 596.361,-92.5285 616,-105 619.159,-107.006 622.551,-108.822 626.051,-110.461"/>
<polygon fill="midnightblue" stroke="midnightblue" points="624.901,-113.774 635.477,-114.398 627.599,-107.314 624.901,-113.774"/>
</g>
<!-- Node26 -->
<g id="node26" class="node"><title>Node26</title>
<g id="a_node26"><a xlink:href="class_c_net_addr.html#aa2e2c78db01a6a27d6a2740f2ba43e90" target="_top" xlink:title="CNetAddr::GetInAddr">
<polygon fill="white" stroke="black" points="618.5,-76.5 618.5,-95.5 730.5,-95.5 730.5,-76.5 618.5,-76.5"/>
<text text-anchor="middle" x="674.5" y="-83.5" font-family="Helvetica,sans-Serif" font-size="10.00">CNetAddr::GetInAddr</text>
</a>
</g>
</g>
<!-- Node25&#45;&gt;Node26 -->
<g id="edge27" class="edge"><title>Node25&#45;&gt;Node26</title>
<path fill="none" stroke="midnightblue" d="M558.735,-57.589C578.899,-62.5809 603.748,-68.7324 625.161,-74.0334"/>
<polygon fill="midnightblue" stroke="midnightblue" points="624.496,-77.4743 635.044,-76.4799 626.178,-70.6794 624.496,-77.4743"/>
</g>
<!-- Node27 -->
<g id="node27" class="node"><title>Node27</title>
<g id="a_node27"><a xlink:href="class_c_net_addr.html#a0edb022cd6a186de8099799415409d57" target="_top" xlink:title="CNetAddr::IsIPv6">
<polygon fill="white" stroke="black" points="627.5,-38.5 627.5,-57.5 721.5,-57.5 721.5,-38.5 627.5,-38.5"/>
<text text-anchor="middle" x="674.5" y="-45.5" font-family="Helvetica,sans-Serif" font-size="10.00">CNetAddr::IsIPv6</text>
</a>
</g>
</g>
<!-- Node25&#45;&gt;Node27 -->
<g id="edge29" class="edge"><title>Node25&#45;&gt;Node27</title>
<path fill="none" stroke="midnightblue" d="M580.227,-48C592.31,-48 604.966,-48 616.92,-48"/>
<polygon fill="midnightblue" stroke="midnightblue" points="617.212,-51.5001 627.212,-48 617.212,-44.5001 617.212,-51.5001"/>
</g>
<!-- Node28 -->
<g id="node28" class="node"><title>Node28</title>
<g id="a_node28"><a xlink:href="class_c_net_addr.html#add7811be50f5fe60c4fa65b461dea98c" target="_top" xlink:title="CNetAddr::GetIn6Addr">
<polygon fill="white" stroke="black" points="616,-0.5 616,-19.5 733,-19.5 733,-0.5 616,-0.5"/>
<text text-anchor="middle" x="674.5" y="-7.5" font-family="Helvetica,sans-Serif" font-size="10.00">CNetAddr::GetIn6Addr</text>
</a>
</g>
</g>
<!-- Node25&#45;&gt;Node28 -->
<g id="edge30" class="edge"><title>Node25&#45;&gt;Node28</title>
<path fill="none" stroke="midnightblue" d="M558.735,-38.411C578.899,-33.4191 603.748,-27.2676 625.161,-21.9666"/>
<polygon fill="midnightblue" stroke="midnightblue" points="626.178,-25.3206 635.044,-19.5201 624.496,-18.5257 626.178,-25.3206"/>
</g>
<!-- Node26&#45;&gt;Node13 -->
<g id="edge28" class="edge"><title>Node26&#45;&gt;Node13</title>
<path fill="none" stroke="midnightblue" d="M730.703,-86C740.285,-86 750.024,-86 758.926,-86"/>
<polygon fill="midnightblue" stroke="midnightblue" points="758.933,-89.5001 768.933,-86 758.933,-82.5001 758.933,-89.5001"/>
</g>
<!-- Node28&#45;&gt;Node13 -->
<g id="edge31" class="edge"><title>Node28&#45;&gt;Node13</title>
<path fill="none" stroke="midnightblue" d="M712.102,-19.5013C719.276,-22.0727 726.564,-25.2182 733,-29 750.993,-39.5734 768.196,-56.0758 779.896,-68.6087"/>
<polygon fill="midnightblue" stroke="midnightblue" points="777.436,-71.1065 786.743,-76.1693 782.625,-66.4076 777.436,-71.1065"/>
</g>
</g>
</svg>
