<?xml version="1.0" encoding="UTF-8" standalone="no"?>
<!DOCTYPE svg PUBLIC "-//W3C//DTD SVG 1.1//EN"
 "http://www.w3.org/Graphics/SVG/1.1/DTD/svg11.dtd">
<!-- Generated by graphviz version 2.38.0 (20140413.2041)
 -->
<!-- Title: CBufferedFile::Fill Pages: 1 -->
<svg width="447pt" height="66pt"
 viewBox="0.00 0.00 447.00 66.00" xmlns="http://www.w3.org/2000/svg" xmlns:xlink="http://www.w3.org/1999/xlink">
<g id="graph0" class="graph" transform="scale(1 1) rotate(0) translate(4 62)">
<title>CBufferedFile::Fill</title>
<polygon fill="white" stroke="none" points="-4,4 -4,-62 443,-62 443,4 -4,4"/>
<!-- Node1 -->
<g id="node1" class="node"><title>Node1</title>
<polygon fill="#bfbfbf" stroke="black" points="0,-38.5 0,-57.5 96,-57.5 96,-38.5 0,-38.5"/>
<text text-anchor="middle" x="48" y="-45.5" font-family="Helvetica,sans-Serif" font-size="10.00">CBufferedFile::Fill</text>
</g>
<!-- Node2 -->
<g id="node2" class="node"><title>Node2</title>
<g id="a_node2"><a xlink:href="class_c_buffered_file.html#a20c6d2a4dbc69a8e5c7ba766d04b3d85" target="_top" xlink:title="CBufferedFile::read">
<polygon fill="white" stroke="black" points="139.5,-38.5 139.5,-57.5 242.5,-57.5 242.5,-38.5 139.5,-38.5"/>
<text text-anchor="middle" x="191" y="-45.5" font-family="Helvetica,sans-Serif" font-size="10.00">CBufferedFile::read</text>
</a>
</g>
</g>
<!-- Node1&#45;&gt;Node2 -->
<g id="edge1" class="edge"><title>Node1&#45;&gt;Node2</title>
<path fill="none" stroke="midnightblue" d="M96.3432,-41.5846C106.771,-41.2728 117.96,-41.1789 128.845,-41.303"/>
<polygon fill="midnightblue" stroke="midnightblue" points="129.093,-44.8079 139.155,-41.4888 129.22,-37.8091 129.093,-44.8079"/>
</g>
<!-- Node5 -->
<g id="node5" class="node"><title>Node5</title>
<g id="a_node5"><a xlink:href="class_c_buffered_file.html#aed68dc09a9d8ed05454f57d0fadb66e1" target="_top" xlink:title="CBufferedFile::setstate">
<polygon fill="white" stroke="black" points="132,-0.5 132,-19.5 250,-19.5 250,-0.5 132,-0.5"/>
<text text-anchor="middle" x="191" y="-7.5" font-family="Helvetica,sans-Serif" font-size="10.00">CBufferedFile::setstate</text>
</a>
</g>
</g>
<!-- Node1&#45;&gt;Node5 -->
<g id="edge5" class="edge"><title>Node1&#45;&gt;Node5</title>
<path fill="none" stroke="midnightblue" d="M84.5803,-38.411C102.782,-33.5056 125.138,-27.4804 144.572,-22.2429"/>
<polygon fill="midnightblue" stroke="midnightblue" points="145.686,-25.5676 154.431,-19.5859 143.865,-18.8088 145.686,-25.5676"/>
</g>
<!-- Node2&#45;&gt;Node1 -->
<g id="edge2" class="edge"><title>Node2&#45;&gt;Node1</title>
<path fill="none" stroke="midnightblue" d="M139.155,-54.5112C128.571,-54.7747 117.345,-54.8201 106.539,-54.6476"/>
<polygon fill="midnightblue" stroke="midnightblue" points="106.42,-51.1441 96.3432,-54.4154 106.261,-58.1422 106.42,-51.1441"/>
</g>
<!-- Node3 -->
<g id="node3" class="node"><title>Node3</title>
<g id="a_node3"><a xlink:href="glibc__compat_8cpp.html#a0f46826ab0466591e136db24394923cf" target="_top" xlink:title="memcpy">
<polygon fill="white" stroke="black" points="286,-38.5 286,-57.5 340,-57.5 340,-38.5 286,-38.5"/>
<text text-anchor="middle" x="313" y="-45.5" font-family="Helvetica,sans-Serif" font-size="10.00">memcpy</text>
</a>
</g>
</g>
<!-- Node2&#45;&gt;Node3 -->
<g id="edge3" class="edge"><title>Node2&#45;&gt;Node3</title>
<path fill="none" stroke="midnightblue" d="M242.543,-48C253.688,-48 265.28,-48 275.728,-48"/>
<polygon fill="midnightblue" stroke="midnightblue" points="275.735,-51.5001 285.735,-48 275.735,-44.5001 275.735,-51.5001"/>
</g>
<!-- Node4 -->
<g id="node4" class="node"><title>Node4</title>
<g id="a_node4"><a xlink:href="glibc__compat_8cpp.html#a9778d49e9029dd75bc53ecbbf9f5e9a1" target="_top" xlink:title="memmove">
<polygon fill="white" stroke="black" points="376,-38.5 376,-57.5 439,-57.5 439,-38.5 376,-38.5"/>
<text text-anchor="middle" x="407.5" y="-45.5" font-family="Helvetica,sans-Serif" font-size="10.00">memmove</text>
</a>
</g>
</g>
<!-- Node3&#45;&gt;Node4 -->
<g id="edge4" class="edge"><title>Node3&#45;&gt;Node4</title>
<path fill="none" stroke="midnightblue" d="M340.259,-48C348.244,-48 357.214,-48 365.912,-48"/>
<polygon fill="midnightblue" stroke="midnightblue" points="365.924,-51.5001 375.924,-48 365.924,-44.5001 365.924,-51.5001"/>
</g>
</g>
</svg>
