<?xml version="1.0" encoding="UTF-8" standalone="no"?>
<!DOCTYPE svg PUBLIC "-//W3C//DTD SVG 1.1//EN"
 "http://www.w3.org/Graphics/SVG/1.1/DTD/svg11.dtd">
<!-- Generated by graphviz version 2.38.0 (20140413.2041)
 -->
<!-- Title: AnoncoinGUI::createMenuBar Pages: 1 -->
<svg width="359pt" height="28pt"
 viewBox="0.00 0.00 359.00 28.00" xmlns="http://www.w3.org/2000/svg" xmlns:xlink="http://www.w3.org/1999/xlink">
<g id="graph0" class="graph" transform="scale(1 1) rotate(0) translate(4 24)">
<title>AnoncoinGUI::createMenuBar</title>
<polygon fill="white" stroke="none" points="-4,4 -4,-24 355,-24 355,4 -4,4"/>
<!-- Node1 -->
<g id="node1" class="node"><title>Node1</title>
<polygon fill="#bfbfbf" stroke="black" points="0,-0.5 0,-19.5 150,-19.5 150,-0.5 0,-0.5"/>
<text text-anchor="middle" x="75" y="-7.5" font-family="Helvetica,sans-Serif" font-size="10.00">AnoncoinGUI::createMenuBar</text>
</g>
<!-- Node2 -->
<g id="node2" class="node"><title>Node2</title>
<g id="a_node2"><a xlink:href="rpcserver_8cpp.html#a64b7a85139e261640892b6ac1a2a23aa" target="_top" xlink:title="help">
<polygon fill="white" stroke="black" points="186,-0.5 186,-19.5 221,-19.5 221,-0.5 186,-0.5"/>
<text text-anchor="middle" x="203.5" y="-7.5" font-family="Helvetica,sans-Serif" font-size="10.00">help</text>
</a>
</g>
</g>
<!-- Node1&#45;&gt;Node2 -->
<g id="edge1" class="edge"><title>Node1&#45;&gt;Node2</title>
<path fill="none" stroke="midnightblue" d="M150.317,-10C159.383,-10 168.135,-10 175.798,-10"/>
<polygon fill="midnightblue" stroke="midnightblue" points="175.824,-13.5001 185.824,-10 175.824,-6.5001 175.824,-13.5001"/>
</g>
<!-- Node3 -->
<g id="node3" class="node"><title>Node3</title>
<g id="a_node3"><a xlink:href="class_c_r_p_c_table.html#a220ae5b4ce013c79d097bfe96a94e2f0" target="_top" xlink:title="Note: This interface may still be subject to change. ">
<polygon fill="white" stroke="black" points="257,-0.5 257,-19.5 351,-19.5 351,-0.5 257,-0.5"/>
<text text-anchor="middle" x="304" y="-7.5" font-family="Helvetica,sans-Serif" font-size="10.00">CRPCTable::help</text>
</a>
</g>
</g>
<!-- Node2&#45;&gt;Node3 -->
<g id="edge2" class="edge"><title>Node2&#45;&gt;Node3</title>
<path fill="none" stroke="midnightblue" d="M221.209,-10C228.465,-10 237.426,-10 246.728,-10"/>
<polygon fill="midnightblue" stroke="midnightblue" points="246.891,-13.5001 256.891,-10 246.891,-6.5001 246.891,-13.5001"/>
</g>
</g>
</svg>
