<?xml version="1.0" encoding="UTF-8" standalone="no"?>
<!DOCTYPE svg PUBLIC "-//W3C//DTD SVG 1.1//EN"
 "http://www.w3.org/Graphics/SVG/1.1/DTD/svg11.dtd">
<!-- Generated by graphviz version 2.38.0 (20140413.2041)
 -->
<!-- Title: CDataStream::GetSerializeSize Pages: 1 -->
<svg width="1868pt" height="546pt"
 viewBox="0.00 0.00 1868.00 546.00" xmlns="http://www.w3.org/2000/svg" xmlns:xlink="http://www.w3.org/1999/xlink">
<g id="graph0" class="graph" transform="scale(1 1) rotate(0) translate(4 542)">
<title>CDataStream::GetSerializeSize</title>
<polygon fill="white" stroke="none" points="-4,4 -4,-542 1864,-542 1864,4 -4,4"/>
<!-- Node1 -->
<g id="node1" class="node"><title>Node1</title>
<polygon fill="#bfbfbf" stroke="black" points="0,-161.5 0,-180.5 157,-180.5 157,-161.5 0,-161.5"/>
<text text-anchor="middle" x="78.5" y="-168.5" font-family="Helvetica,sans-Serif" font-size="10.00">CDataStream::GetSerializeSize</text>
</g>
<!-- Node2 -->
<g id="node2" class="node"><title>Node2</title>
<g id="a_node2"><a xlink:href="class_c_level_d_b_batch.html#ab459da1abafa27e834de9a4cc25b6f2d" target="_top" xlink:title="CLevelDBBatch::Write">
<polygon fill="white" stroke="black" points="201,-190.5 201,-209.5 317,-209.5 317,-190.5 201,-190.5"/>
<text text-anchor="middle" x="259" y="-197.5" font-family="Helvetica,sans-Serif" font-size="10.00">CLevelDBBatch::Write</text>
</a>
</g>
</g>
<!-- Node1&#45;&gt;Node2 -->
<g id="edge1" class="edge"><title>Node1&#45;&gt;Node2</title>
<path fill="none" stroke="midnightblue" d="M148.505,-182.211C165.844,-185.028 184.258,-188.02 200.94,-190.73"/>
<polygon fill="midnightblue" stroke="midnightblue" points="148.874,-178.725 138.442,-180.576 147.752,-185.634 148.874,-178.725"/>
</g>
<!-- Node29 -->
<g id="node29" class="node"><title>Node29</title>
<g id="a_node29"><a xlink:href="class_c_level_d_b_batch.html#a22bf093d560b4ce3333e8f4a947faa7f" target="_top" xlink:title="CLevelDBBatch::Erase">
<polygon fill="white" stroke="black" points="199.5,-373.5 199.5,-392.5 318.5,-392.5 318.5,-373.5 199.5,-373.5"/>
<text text-anchor="middle" x="259" y="-380.5" font-family="Helvetica,sans-Serif" font-size="10.00">CLevelDBBatch::Erase</text>
</a>
</g>
</g>
<!-- Node1&#45;&gt;Node29 -->
<g id="edge39" class="edge"><title>Node1&#45;&gt;Node29</title>
<path fill="none" stroke="midnightblue" d="M94.2529,-188.522C130.298,-231.331 221.926,-340.156 249.819,-373.283"/>
<polygon fill="midnightblue" stroke="midnightblue" points="96.7518,-186.055 87.6336,-180.66 91.3971,-190.564 96.7518,-186.055"/>
</g>
<!-- Node31 -->
<g id="node31" class="node"><title>Node31</title>
<g id="a_node31"><a xlink:href="class_c_level_d_b_wrapper.html#aa3451a451298c7f8a66986ccd95474e2" target="_top" xlink:title="CLevelDBWrapper::Read">
<polygon fill="white" stroke="black" points="377.5,-124.5 377.5,-143.5 506.5,-143.5 506.5,-124.5 377.5,-124.5"/>
<text text-anchor="middle" x="442" y="-131.5" font-family="Helvetica,sans-Serif" font-size="10.00">CLevelDBWrapper::Read</text>
</a>
</g>
</g>
<!-- Node1&#45;&gt;Node31 -->
<g id="edge42" class="edge"><title>Node1&#45;&gt;Node31</title>
<path fill="none" stroke="midnightblue" d="M167.274,-162.016C232.198,-155.371 319.113,-146.475 377.428,-140.507"/>
<polygon fill="midnightblue" stroke="midnightblue" points="166.642,-158.562 157.051,-163.063 167.355,-165.526 166.642,-158.562"/>
</g>
<!-- Node41 -->
<g id="node41" class="node"><title>Node41</title>
<g id="a_node41"><a xlink:href="class_c_level_d_b_wrapper.html#a916e029b612f3bb0e3110742121e73eb" target="_top" xlink:title="CLevelDBWrapper::Exists">
<polygon fill="white" stroke="black" points="193,-86.5 193,-105.5 325,-105.5 325,-86.5 193,-86.5"/>
<text text-anchor="middle" x="259" y="-93.5" font-family="Helvetica,sans-Serif" font-size="10.00">CLevelDBWrapper::Exists</text>
</a>
</g>
</g>
<!-- Node1&#45;&gt;Node41 -->
<g id="edge55" class="edge"><title>Node1&#45;&gt;Node41</title>
<path fill="none" stroke="midnightblue" d="M111.931,-157.374C147.549,-142.408 203.836,-118.758 235.118,-105.614"/>
<polygon fill="midnightblue" stroke="midnightblue" points="110.334,-154.248 102.47,-161.349 113.045,-160.702 110.334,-154.248"/>
</g>
<!-- Node3 -->
<g id="node3" class="node"><title>Node3</title>
<g id="a_node3"><a xlink:href="class_c_level_d_b_wrapper.html#a740caa1aefbafc888838ea7f70dc31f4" target="_top" xlink:title="CLevelDBWrapper::Write">
<polygon fill="white" stroke="black" points="377.5,-360.5 377.5,-379.5 506.5,-379.5 506.5,-360.5 377.5,-360.5"/>
<text text-anchor="middle" x="442" y="-367.5" font-family="Helvetica,sans-Serif" font-size="10.00">CLevelDBWrapper::Write</text>
</a>
</g>
</g>
<!-- Node2&#45;&gt;Node3 -->
<g id="edge2" class="edge"><title>Node2&#45;&gt;Node3</title>
<path fill="none" stroke="midnightblue" d="M277.892,-216.804C315.433,-252.064 401.388,-332.795 430.862,-360.479"/>
<polygon fill="midnightblue" stroke="midnightblue" points="279.935,-213.922 270.25,-209.627 275.143,-219.024 279.935,-213.922"/>
</g>
<!-- Node28 -->
<g id="node28" class="node"><title>Node28</title>
<g id="a_node28"><a xlink:href="class_c_block_tree_d_b.html#a1e03745f9675ad352a1483a0aa7ef308" target="_top" xlink:title="CBlockTreeDB::WriteTxIndex">
<polygon fill="white" stroke="black" points="368.5,-190.5 368.5,-209.5 515.5,-209.5 515.5,-190.5 368.5,-190.5"/>
<text text-anchor="middle" x="442" y="-197.5" font-family="Helvetica,sans-Serif" font-size="10.00">CBlockTreeDB::WriteTxIndex</text>
</a>
</g>
</g>
<!-- Node2&#45;&gt;Node28 -->
<g id="edge37" class="edge"><title>Node2&#45;&gt;Node28</title>
<path fill="none" stroke="midnightblue" d="M327.363,-200C340.774,-200 354.913,-200 368.488,-200"/>
<polygon fill="midnightblue" stroke="midnightblue" points="327.27,-196.5 317.27,-200 327.269,-203.5 327.27,-196.5"/>
</g>
<!-- Node4 -->
<g id="node4" class="node"><title>Node4</title>
<g id="a_node4"><a xlink:href="class_c_block_tree_d_b.html#a608a04a08445d95e477cb66889c679d0" target="_top" xlink:title="CBlockTreeDB::WriteBlock\lIndex">
<polygon fill="white" stroke="black" points="583,-355 583,-385 719,-385 719,-355 583,-355"/>
<text text-anchor="start" x="591" y="-373" font-family="Helvetica,sans-Serif" font-size="10.00">CBlockTreeDB::WriteBlock</text>
<text text-anchor="middle" x="651" y="-362" font-family="Helvetica,sans-Serif" font-size="10.00">Index</text>
</a>
</g>
</g>
<!-- Node3&#45;&gt;Node4 -->
<g id="edge3" class="edge"><title>Node3&#45;&gt;Node4</title>
<path fill="none" stroke="midnightblue" d="M516.584,-370C538.115,-370 561.535,-370 582.657,-370"/>
<polygon fill="midnightblue" stroke="midnightblue" points="516.514,-366.5 506.514,-370 516.514,-373.5 516.514,-366.5"/>
</g>
<!-- Node21 -->
<g id="node21" class="node"><title>Node21</title>
<g id="a_node21"><a xlink:href="class_c_block_tree_d_b.html#ae4512620e5a65258449b8c9ba38f74b5" target="_top" xlink:title="CBlockTreeDB::WriteBestInvalidWork">
<polygon fill="white" stroke="black" points="559,-404.5 559,-423.5 743,-423.5 743,-404.5 559,-404.5"/>
<text text-anchor="middle" x="651" y="-411.5" font-family="Helvetica,sans-Serif" font-size="10.00">CBlockTreeDB::WriteBestInvalidWork</text>
</a>
</g>
</g>
<!-- Node3&#45;&gt;Node21 -->
<g id="edge23" class="edge"><title>Node3&#45;&gt;Node21</title>
<path fill="none" stroke="midnightblue" d="M498.005,-381.692C531.491,-388.81 573.726,-397.787 605.172,-404.471"/>
<polygon fill="midnightblue" stroke="midnightblue" points="498.425,-378.203 487.916,-379.547 496.97,-385.05 498.425,-378.203"/>
</g>
<!-- Node22 -->
<g id="node22" class="node"><title>Node22</title>
<g id="a_node22"><a xlink:href="class_c_block_tree_d_b.html#ae248032ee1f1303dea54a0b36ad84755" target="_top" xlink:title="CBlockTreeDB::WriteBlock\lFileInfo">
<polygon fill="white" stroke="black" points="583,-267 583,-297 719,-297 719,-267 583,-267"/>
<text text-anchor="start" x="591" y="-285" font-family="Helvetica,sans-Serif" font-size="10.00">CBlockTreeDB::WriteBlock</text>
<text text-anchor="middle" x="651" y="-274" font-family="Helvetica,sans-Serif" font-size="10.00">FileInfo</text>
</a>
</g>
</g>
<!-- Node3&#45;&gt;Node22 -->
<g id="edge24" class="edge"><title>Node3&#45;&gt;Node22</title>
<path fill="none" stroke="midnightblue" d="M466.51,-355.138C489.408,-341.176 525.555,-320.468 559,-307 568.119,-303.328 577.962,-300.004 587.689,-297.066"/>
<polygon fill="midnightblue" stroke="midnightblue" points="464.513,-352.258 457.842,-360.489 468.19,-358.214 464.513,-352.258"/>
</g>
<!-- Node25 -->
<g id="node25" class="node"><title>Node25</title>
<g id="a_node25"><a xlink:href="class_c_block_tree_d_b.html#ae1f4ea54edf05a056d2da00ea90a9394" target="_top" xlink:title="CBlockTreeDB::WriteLastBlockFile">
<polygon fill="white" stroke="black" points="565.5,-316.5 565.5,-335.5 736.5,-335.5 736.5,-316.5 565.5,-316.5"/>
<text text-anchor="middle" x="651" y="-323.5" font-family="Helvetica,sans-Serif" font-size="10.00">CBlockTreeDB::WriteLastBlockFile</text>
</a>
</g>
</g>
<!-- Node3&#45;&gt;Node25 -->
<g id="edge30" class="edge"><title>Node3&#45;&gt;Node25</title>
<path fill="none" stroke="midnightblue" d="M496.747,-358.341C516.336,-354.112 538.664,-349.314 559,-345 573.683,-341.885 589.707,-338.526 604.161,-335.511"/>
<polygon fill="midnightblue" stroke="midnightblue" points="495.812,-354.962 486.777,-360.496 497.291,-361.804 495.812,-354.962"/>
</g>
<!-- Node26 -->
<g id="node26" class="node"><title>Node26</title>
<g id="a_node26"><a xlink:href="class_c_block_tree_d_b.html#a8fa5d150b98f4fd1aa8cf503eddfccef" target="_top" xlink:title="CBlockTreeDB::WriteReindexing">
<polygon fill="white" stroke="black" points="1114,-471.5 1114,-490.5 1276,-490.5 1276,-471.5 1114,-471.5"/>
<text text-anchor="middle" x="1195" y="-478.5" font-family="Helvetica,sans-Serif" font-size="10.00">CBlockTreeDB::WriteReindexing</text>
</a>
</g>
</g>
<!-- Node3&#45;&gt;Node26 -->
<g id="edge32" class="edge"><title>Node3&#45;&gt;Node26</title>
<path fill="none" stroke="midnightblue" d="M458.806,-386.747C479.539,-407.418 518.114,-441.599 559,-456 757.759,-526.008 1013.41,-505.467 1130.42,-490.523"/>
<polygon fill="midnightblue" stroke="midnightblue" points="461.263,-384.253 451.766,-379.555 456.26,-389.15 461.263,-384.253"/>
</g>
<!-- Node27 -->
<g id="node27" class="node"><title>Node27</title>
<g id="a_node27"><a xlink:href="class_c_block_tree_d_b.html#af2f65b70ac5d8a198d4f29a7e909c08a" target="_top" xlink:title="CBlockTreeDB::WriteFlag">
<polygon fill="white" stroke="black" points="779,-433.5 779,-452.5 910,-452.5 910,-433.5 779,-433.5"/>
<text text-anchor="middle" x="844.5" y="-440.5" font-family="Helvetica,sans-Serif" font-size="10.00">CBlockTreeDB::WriteFlag</text>
</a>
</g>
</g>
<!-- Node3&#45;&gt;Node27 -->
<g id="edge35" class="edge"><title>Node3&#45;&gt;Node27</title>
<path fill="none" stroke="midnightblue" d="M464.063,-385.372C486.373,-400.674 523.245,-423.246 559,-433 632.428,-453.032 720.467,-452.582 778.966,-449.043"/>
<polygon fill="midnightblue" stroke="midnightblue" points="465.909,-382.391 455.712,-379.513 461.888,-388.122 465.909,-382.391"/>
</g>
<!-- Node5 -->
<g id="node5" class="node"><title>Node5</title>
<g id="a_node5"><a xlink:href="main_8h.html#ae478a2e37bd5c3ac735f30cc12cc7f8b" target="_top" xlink:title="ConnectBlock">
<polygon fill="white" stroke="black" points="973,-193.5 973,-212.5 1051,-212.5 1051,-193.5 973,-193.5"/>
<text text-anchor="middle" x="1012" y="-200.5" font-family="Helvetica,sans-Serif" font-size="10.00">ConnectBlock</text>
</a>
</g>
</g>
<!-- Node4&#45;&gt;Node5 -->
<g id="edge4" class="edge"><title>Node4&#45;&gt;Node5</title>
<path fill="none" stroke="midnightblue" d="M729.247,-374.95C783.294,-374.954 855.313,-367.761 910,-336 923.288,-328.283 983.833,-242.137 1004.25,-212.752"/>
<polygon fill="midnightblue" stroke="midnightblue" points="729.06,-371.449 719.031,-374.865 729.001,-378.448 729.06,-371.449"/>
</g>
<!-- Node14 -->
<g id="node14" class="node"><title>Node14</title>
<g id="a_node14"><a xlink:href="main_8h.html#afeae84b261095307379e43eed39ea7c6" target="_top" xlink:title="AddToBlockIndex">
<polygon fill="white" stroke="black" points="797,-383.5 797,-402.5 892,-402.5 892,-383.5 797,-383.5"/>
<text text-anchor="middle" x="844.5" y="-390.5" font-family="Helvetica,sans-Serif" font-size="10.00">AddToBlockIndex</text>
</a>
</g>
</g>
<!-- Node4&#45;&gt;Node14 -->
<g id="edge13" class="edge"><title>Node4&#45;&gt;Node14</title>
<path fill="none" stroke="midnightblue" d="M729.297,-379.284C752.194,-382.034 776.554,-384.96 796.869,-387.399"/>
<polygon fill="midnightblue" stroke="midnightblue" points="729.593,-375.794 719.246,-378.077 728.758,-382.744 729.593,-375.794"/>
</g>
<!-- Node6 -->
<g id="node6" class="node"><title>Node6</title>
<g id="a_node6"><a xlink:href="main_8h.html#abfcd613b1eaa02bc626b1c3cb098fc4a" target="_top" xlink:title="Verify consistency of the block and coin databases. ">
<polygon fill="white" stroke="black" points="1167,-155.5 1167,-174.5 1223,-174.5 1223,-155.5 1167,-155.5"/>
<text text-anchor="middle" x="1195" y="-162.5" font-family="Helvetica,sans-Serif" font-size="10.00">VerifyDB</text>
</a>
</g>
</g>
<!-- Node5&#45;&gt;Node6 -->
<g id="edge5" class="edge"><title>Node5&#45;&gt;Node6</title>
<path fill="none" stroke="midnightblue" d="M1061.51,-192.815C1095.27,-185.727 1139.05,-176.537 1166.84,-170.702"/>
<polygon fill="midnightblue" stroke="midnightblue" points="1060.45,-189.461 1051.39,-194.941 1061.89,-196.312 1060.45,-189.461"/>
</g>
<!-- Node12 -->
<g id="node12" class="node"><title>Node12</title>
<g id="a_node12"><a xlink:href="miner_8h.html#af441d1c1899839f4e3cc0ee1367914a5" target="_top" xlink:title="Generate a new block, without valid proof&#45;of&#45;work. ">
<polygon fill="white" stroke="black" points="1149.5,-193.5 1149.5,-212.5 1240.5,-212.5 1240.5,-193.5 1149.5,-193.5"/>
<text text-anchor="middle" x="1195" y="-200.5" font-family="Helvetica,sans-Serif" font-size="10.00">CreateNewBlock</text>
</a>
</g>
</g>
<!-- Node5&#45;&gt;Node12 -->
<g id="edge11" class="edge"><title>Node5&#45;&gt;Node12</title>
<path fill="none" stroke="midnightblue" d="M1061.5,-203C1088.79,-203 1122.64,-203 1149.29,-203"/>
<polygon fill="midnightblue" stroke="midnightblue" points="1061.39,-199.5 1051.39,-203 1061.39,-206.5 1061.39,-199.5"/>
</g>
<!-- Node7 -->
<g id="node7" class="node"><title>Node7</title>
<g id="a_node7"><a xlink:href="init_8h.html#a1a4c1bfbf6ba1db77e988b89b9cadfd3" target="_top" xlink:title="Initialize anoncoin. ">
<polygon fill="white" stroke="black" points="1577,-398.5 1577,-417.5 1630,-417.5 1630,-398.5 1577,-398.5"/>
<text text-anchor="middle" x="1603.5" y="-405.5" font-family="Helvetica,sans-Serif" font-size="10.00">AppInit2</text>
</a>
</g>
</g>
<!-- Node6&#45;&gt;Node7 -->
<g id="edge6" class="edge"><title>Node6&#45;&gt;Node7</title>
<path fill="none" stroke="midnightblue" d="M1233.32,-171.475C1290.13,-181.779 1395.18,-202.718 1428,-222 1509.7,-269.994 1576.75,-367.723 1596.55,-398.499"/>
<polygon fill="midnightblue" stroke="midnightblue" points="1233.76,-167.999 1223.3,-169.678 1232.53,-174.889 1233.76,-167.999"/>
</g>
<!-- Node11 -->
<g id="node11" class="node"><title>Node11</title>
<g id="a_node11"><a xlink:href="rpcblockchain_8cpp.html#a0b1dd8862fc7292c243ad9489f96a3c8" target="_top" xlink:title="verifychain">
<polygon fill="white" stroke="black" points="1338,-155.5 1338,-174.5 1402,-174.5 1402,-155.5 1338,-155.5"/>
<text text-anchor="middle" x="1370" y="-162.5" font-family="Helvetica,sans-Serif" font-size="10.00">verifychain</text>
</a>
</g>
</g>
<!-- Node6&#45;&gt;Node11 -->
<g id="edge10" class="edge"><title>Node6&#45;&gt;Node11</title>
<path fill="none" stroke="midnightblue" d="M1233.07,-165C1264.26,-165 1308.35,-165 1337.77,-165"/>
<polygon fill="midnightblue" stroke="midnightblue" points="1233.03,-161.5 1223.03,-165 1233.03,-168.5 1233.03,-161.5"/>
</g>
<!-- Node8 -->
<g id="node8" class="node"><title>Node8</title>
<g id="a_node8"><a xlink:href="anoncoind_8cpp.html#ac59316b767e6984e1285f0531275286b" target="_top" xlink:title="AppInit">
<polygon fill="white" stroke="black" points="1702,-417.5 1702,-436.5 1750,-436.5 1750,-417.5 1702,-417.5"/>
<text text-anchor="middle" x="1726" y="-424.5" font-family="Helvetica,sans-Serif" font-size="10.00">AppInit</text>
</a>
</g>
</g>
<!-- Node7&#45;&gt;Node8 -->
<g id="edge7" class="edge"><title>Node7&#45;&gt;Node8</title>
<path fill="none" stroke="midnightblue" d="M1640.05,-413.605C1660.04,-416.758 1684.42,-420.602 1701.93,-423.362"/>
<polygon fill="midnightblue" stroke="midnightblue" points="1640.48,-410.13 1630.05,-412.029 1639.39,-417.044 1640.48,-410.13"/>
</g>
<!-- Node10 -->
<g id="node10" class="node"><title>Node10</title>
<g id="a_node10"><a xlink:href="class_anoncoin_coin.html#a9510881824d283404ac43414dbb74586" target="_top" xlink:title="AnoncoinCoin::initialize">
<polygon fill="white" stroke="black" points="1666,-379.5 1666,-398.5 1786,-398.5 1786,-379.5 1666,-379.5"/>
<text text-anchor="middle" x="1726" y="-386.5" font-family="Helvetica,sans-Serif" font-size="10.00">AnoncoinCoin::initialize</text>
</a>
</g>
</g>
<!-- Node7&#45;&gt;Node10 -->
<g id="edge9" class="edge"><title>Node7&#45;&gt;Node10</title>
<path fill="none" stroke="midnightblue" d="M1640.19,-402.373C1648.25,-401.102 1657.02,-399.719 1665.76,-398.34"/>
<polygon fill="midnightblue" stroke="midnightblue" points="1639.39,-398.956 1630.05,-403.971 1640.48,-405.87 1639.39,-398.956"/>
</g>
<!-- Node9 -->
<g id="node9" class="node"><title>Node9</title>
<g id="a_node9"><a xlink:href="anoncoind_8cpp.html#a0ddf1224851353fc92bfbff6f499fa97" target="_top" xlink:title="main">
<polygon fill="white" stroke="black" points="1822,-417.5 1822,-436.5 1860,-436.5 1860,-417.5 1822,-417.5"/>
<text text-anchor="middle" x="1841" y="-424.5" font-family="Helvetica,sans-Serif" font-size="10.00">main</text>
</a>
</g>
</g>
<!-- Node8&#45;&gt;Node9 -->
<g id="edge8" class="edge"><title>Node8&#45;&gt;Node9</title>
<path fill="none" stroke="midnightblue" d="M1760.15,-427C1780.25,-427 1805.13,-427 1821.73,-427"/>
<polygon fill="midnightblue" stroke="midnightblue" points="1760.14,-423.5 1750.14,-427 1760.14,-430.5 1760.14,-423.5"/>
</g>
<!-- Node13 -->
<g id="node13" class="node"><title>Node13</title>
<g id="a_node13"><a xlink:href="rpcmining_8cpp.html#a27347eecedd59156c914fcb5ce488f9a" target="_top" xlink:title="getblocktemplate">
<polygon fill="white" stroke="black" points="1324,-231.5 1324,-250.5 1416,-250.5 1416,-231.5 1324,-231.5"/>
<text text-anchor="middle" x="1370" y="-238.5" font-family="Helvetica,sans-Serif" font-size="10.00">getblocktemplate</text>
</a>
</g>
</g>
<!-- Node12&#45;&gt;Node13 -->
<g id="edge12" class="edge"><title>Node12&#45;&gt;Node13</title>
<path fill="none" stroke="midnightblue" d="M1249.51,-214.753C1273.97,-220.126 1302.57,-226.409 1325.66,-231.48"/>
<polygon fill="midnightblue" stroke="midnightblue" points="1250.17,-211.316 1239.66,-212.589 1248.67,-218.153 1250.17,-211.316"/>
</g>
<!-- Node15 -->
<g id="node15" class="node"><title>Node15</title>
<g id="a_node15"><a xlink:href="main_8h.html#aae69635467b9737d6c5b44d8ccff5c82" target="_top" xlink:title="AcceptBlock">
<polygon fill="white" stroke="black" points="976,-307.5 976,-326.5 1048,-326.5 1048,-307.5 976,-307.5"/>
<text text-anchor="middle" x="1012" y="-314.5" font-family="Helvetica,sans-Serif" font-size="10.00">AcceptBlock</text>
</a>
</g>
</g>
<!-- Node14&#45;&gt;Node15 -->
<g id="edge14" class="edge"><title>Node14&#45;&gt;Node15</title>
<path fill="none" stroke="midnightblue" d="M882.875,-379.954C891.843,-376.588 901.331,-372.828 910,-369 940.129,-355.695 973.93,-337.62 993.791,-326.661"/>
<polygon fill="midnightblue" stroke="midnightblue" points="881.587,-376.698 873.411,-383.437 884.005,-383.268 881.587,-376.698"/>
</g>
<!-- Node20 -->
<g id="node20" class="node"><title>Node20</title>
<g id="a_node20"><a xlink:href="main_8h.html#a92e5e1fcbd56cc44c27d39b64da8a79a" target="_top" xlink:title="Initialize a new block tree database + block data on disk. ">
<polygon fill="white" stroke="black" points="972.5,-383.5 972.5,-402.5 1051.5,-402.5 1051.5,-383.5 972.5,-383.5"/>
<text text-anchor="middle" x="1012" y="-390.5" font-family="Helvetica,sans-Serif" font-size="10.00">InitBlockIndex</text>
</a>
</g>
</g>
<!-- Node14&#45;&gt;Node20 -->
<g id="edge20" class="edge"><title>Node14&#45;&gt;Node20</title>
<path fill="none" stroke="midnightblue" d="M902.093,-393C925.247,-393 951.447,-393 972.345,-393"/>
<polygon fill="midnightblue" stroke="midnightblue" points="902.041,-389.5 892.041,-393 902.041,-396.5 902.041,-389.5"/>
</g>
<!-- Node16 -->
<g id="node16" class="node"><title>Node16</title>
<g id="a_node16"><a xlink:href="main_8h.html#a87a59e710c26c4a10de57b5acb1e2e92" target="_top" xlink:title="Process an incoming block. ">
<polygon fill="white" stroke="black" points="1156.5,-307.5 1156.5,-326.5 1233.5,-326.5 1233.5,-307.5 1156.5,-307.5"/>
<text text-anchor="middle" x="1195" y="-314.5" font-family="Helvetica,sans-Serif" font-size="10.00">ProcessBlock</text>
</a>
</g>
</g>
<!-- Node15&#45;&gt;Node16 -->
<g id="edge15" class="edge"><title>Node15&#45;&gt;Node16</title>
<path fill="none" stroke="midnightblue" d="M1058.59,-317C1088.76,-317 1127.85,-317 1156.26,-317"/>
<polygon fill="midnightblue" stroke="midnightblue" points="1058.33,-313.5 1048.33,-317 1058.33,-320.5 1058.33,-313.5"/>
</g>
<!-- Node17 -->
<g id="node17" class="node"><title>Node17</title>
<g id="a_node17"><a xlink:href="main_8h.html#a8641eccb4e5d174838adeea9b234a691" target="_top" xlink:title="Import blocks from an external file. ">
<polygon fill="white" stroke="black" points="1312,-271.5 1312,-290.5 1428,-290.5 1428,-271.5 1312,-271.5"/>
<text text-anchor="middle" x="1370" y="-278.5" font-family="Helvetica,sans-Serif" font-size="10.00">LoadExternalBlockFile</text>
</a>
</g>
</g>
<!-- Node16&#45;&gt;Node17 -->
<g id="edge16" class="edge"><title>Node16&#45;&gt;Node17</title>
<path fill="none" stroke="midnightblue" d="M1243.47,-307.121C1268.33,-301.949 1298.63,-295.644 1323.23,-290.525"/>
<polygon fill="midnightblue" stroke="midnightblue" points="1242.62,-303.725 1233.54,-309.189 1244.04,-310.578 1242.62,-303.725"/>
</g>
<!-- Node19 -->
<g id="node19" class="node"><title>Node19</title>
<g id="a_node19"><a xlink:href="rpcmining_8cpp.html#a6fc1aa077add8cb1c74207056616134d" target="_top" xlink:title="submitblock">
<polygon fill="white" stroke="black" points="1335.5,-309.5 1335.5,-328.5 1404.5,-328.5 1404.5,-309.5 1335.5,-309.5"/>
<text text-anchor="middle" x="1370" y="-316.5" font-family="Helvetica,sans-Serif" font-size="10.00">submitblock</text>
</a>
</g>
</g>
<!-- Node16&#45;&gt;Node19 -->
<g id="edge19" class="edge"><title>Node16&#45;&gt;Node19</title>
<path fill="none" stroke="midnightblue" d="M1243.88,-317.554C1272.94,-317.889 1309.31,-318.31 1335.34,-318.611"/>
<polygon fill="midnightblue" stroke="midnightblue" points="1243.58,-314.05 1233.54,-317.434 1243.5,-321.049 1243.58,-314.05"/>
</g>
<!-- Node18 -->
<g id="node18" class="node"><title>Node18</title>
<g id="a_node18"><a xlink:href="init_8cpp.html#a0189c34248cd89bbbe20d4d6045bd7c9" target="_top" xlink:title="ThreadImport">
<polygon fill="white" stroke="black" points="1464,-370.5 1464,-389.5 1541,-389.5 1541,-370.5 1464,-370.5"/>
<text text-anchor="middle" x="1502.5" y="-377.5" font-family="Helvetica,sans-Serif" font-size="10.00">ThreadImport</text>
</a>
</g>
</g>
<!-- Node17&#45;&gt;Node18 -->
<g id="edge17" class="edge"><title>Node17&#45;&gt;Node18</title>
<path fill="none" stroke="midnightblue" d="M1418.07,-294.512C1421.53,-296.157 1424.88,-297.982 1428,-300 1457.92,-319.378 1483.72,-353.748 1495.18,-370.411"/>
<polygon fill="midnightblue" stroke="midnightblue" points="1419.31,-291.237 1408.74,-290.565 1416.59,-297.684 1419.31,-291.237"/>
</g>
<!-- Node18&#45;&gt;Node7 -->
<g id="edge18" class="edge"><title>Node18&#45;&gt;Node7</title>
<path fill="none" stroke="midnightblue" d="M1546.96,-392.292C1557.22,-395.192 1567.82,-398.192 1576.98,-400.784"/>
<polygon fill="midnightblue" stroke="midnightblue" points="1547.87,-388.911 1537.29,-389.558 1545.96,-395.647 1547.87,-388.911"/>
</g>
<!-- Node20&#45;&gt;Node7 -->
<g id="edge22" class="edge"><title>Node20&#45;&gt;Node7</title>
<path fill="none" stroke="midnightblue" d="M1061.79,-398.71C1078.34,-400.412 1096.95,-402.071 1114,-403 1290.79,-412.638 1504.07,-409.882 1576.79,-408.537"/>
<polygon fill="midnightblue" stroke="midnightblue" points="1062.1,-395.223 1051.79,-397.65 1061.36,-402.184 1062.1,-395.223"/>
</g>
<!-- Node20&#45;&gt;Node18 -->
<g id="edge21" class="edge"><title>Node20&#45;&gt;Node18</title>
<path fill="none" stroke="midnightblue" d="M1061.91,-391.698C1159.44,-389.103 1376.24,-383.333 1463.77,-381.004"/>
<polygon fill="midnightblue" stroke="midnightblue" points="1061.64,-388.204 1051.74,-391.969 1061.83,-395.202 1061.64,-388.204"/>
</g>
<!-- Node23 -->
<g id="node23" class="node"><title>Node23</title>
<g id="a_node23"><a xlink:href="main_8cpp.html#a92fa926dca5dee9f673536d85f067ee7" target="_top" xlink:title="FindBlockPos">
<polygon fill="white" stroke="black" points="805.5,-307.5 805.5,-326.5 883.5,-326.5 883.5,-307.5 805.5,-307.5"/>
<text text-anchor="middle" x="844.5" y="-314.5" font-family="Helvetica,sans-Serif" font-size="10.00">FindBlockPos</text>
</a>
</g>
</g>
<!-- Node22&#45;&gt;Node23 -->
<g id="edge25" class="edge"><title>Node22&#45;&gt;Node23</title>
<path fill="none" stroke="midnightblue" d="M729.191,-296.108C755.432,-300.904 783.606,-306.053 805.417,-310.04"/>
<polygon fill="midnightblue" stroke="midnightblue" points="729.713,-292.645 719.246,-294.29 728.454,-299.531 729.713,-292.645"/>
</g>
<!-- Node24 -->
<g id="node24" class="node"><title>Node24</title>
<g id="a_node24"><a xlink:href="main_8cpp.html#a16dd07301ce5269712d7936840c0217f" target="_top" xlink:title="FindUndoPos">
<polygon fill="white" stroke="black" points="806,-269.5 806,-288.5 883,-288.5 883,-269.5 806,-269.5"/>
<text text-anchor="middle" x="844.5" y="-276.5" font-family="Helvetica,sans-Serif" font-size="10.00">FindUndoPos</text>
</a>
</g>
</g>
<!-- Node22&#45;&gt;Node24 -->
<g id="edge28" class="edge"><title>Node22&#45;&gt;Node24</title>
<path fill="none" stroke="midnightblue" d="M729.266,-280.79C755.706,-280.375 784.101,-279.931 805.966,-279.588"/>
<polygon fill="midnightblue" stroke="midnightblue" points="729.19,-277.29 719.246,-280.947 729.3,-284.289 729.19,-277.29"/>
</g>
<!-- Node23&#45;&gt;Node15 -->
<g id="edge26" class="edge"><title>Node23&#45;&gt;Node15</title>
<path fill="none" stroke="midnightblue" d="M894.013,-317C920.265,-317 952.099,-317 975.927,-317"/>
<polygon fill="midnightblue" stroke="midnightblue" points="893.885,-313.5 883.885,-317 893.885,-320.5 893.885,-313.5"/>
</g>
<!-- Node23&#45;&gt;Node20 -->
<g id="edge27" class="edge"><title>Node23&#45;&gt;Node20</title>
<path fill="none" stroke="midnightblue" d="M875.686,-330.862C908.879,-346.105 961.327,-370.19 990.21,-383.453"/>
<polygon fill="midnightblue" stroke="midnightblue" points="877.009,-327.618 866.461,-326.625 874.088,-333.979 877.009,-327.618"/>
</g>
<!-- Node24&#45;&gt;Node5 -->
<g id="edge29" class="edge"><title>Node24&#45;&gt;Node5</title>
<path fill="none" stroke="midnightblue" d="M875.686,-265.138C908.879,-249.895 961.327,-225.81 990.21,-212.547"/>
<polygon fill="midnightblue" stroke="midnightblue" points="874.088,-262.021 866.461,-269.375 877.009,-268.382 874.088,-262.021"/>
</g>
<!-- Node25&#45;&gt;Node23 -->
<g id="edge31" class="edge"><title>Node25&#45;&gt;Node23</title>
<path fill="none" stroke="midnightblue" d="M746.736,-321.548C767.528,-320.571 788.383,-319.59 805.379,-318.792"/>
<polygon fill="midnightblue" stroke="midnightblue" points="746.377,-318.061 736.552,-322.026 746.705,-325.053 746.377,-318.061"/>
</g>
<!-- Node26&#45;&gt;Node7 -->
<g id="edge34" class="edge"><title>Node26&#45;&gt;Node7</title>
<path fill="none" stroke="midnightblue" d="M1286.56,-485.743C1357.79,-486.52 1458.46,-480.985 1541,-451 1561.08,-443.705 1580.67,-428.109 1592.16,-417.842"/>
<polygon fill="midnightblue" stroke="midnightblue" points="1286.32,-482.239 1276.27,-485.585 1286.21,-489.239 1286.32,-482.239"/>
</g>
<!-- Node26&#45;&gt;Node18 -->
<g id="edge33" class="edge"><title>Node26&#45;&gt;Node18</title>
<path fill="none" stroke="midnightblue" d="M1234.54,-468.258C1296.61,-447.737 1417.34,-407.823 1472.61,-389.55"/>
<polygon fill="midnightblue" stroke="midnightblue" points="1233.14,-465.036 1224.74,-471.498 1235.33,-471.682 1233.14,-465.036"/>
</g>
<!-- Node27&#45;&gt;Node20 -->
<g id="edge36" class="edge"><title>Node27&#45;&gt;Node20</title>
<path fill="none" stroke="midnightblue" d="M886.747,-430.539C915.4,-421.882 953.011,-410.519 979.317,-402.572"/>
<polygon fill="midnightblue" stroke="midnightblue" points="885.579,-427.235 877.019,-433.478 887.604,-433.936 885.579,-427.235"/>
</g>
<!-- Node28&#45;&gt;Node5 -->
<g id="edge38" class="edge"><title>Node28&#45;&gt;Node5</title>
<path fill="none" stroke="midnightblue" d="M525.775,-200.437C650.497,-201.096 881.69,-202.317 972.734,-202.798"/>
<polygon fill="midnightblue" stroke="midnightblue" points="525.533,-196.936 515.515,-200.383 525.496,-203.936 525.533,-196.936"/>
</g>
<!-- Node30 -->
<g id="node30" class="node"><title>Node30</title>
<g id="a_node30"><a xlink:href="class_c_level_d_b_wrapper.html#a9f67e2880ba191fdc9439ba34e315d72" target="_top" xlink:title="CLevelDBWrapper::Erase">
<polygon fill="white" stroke="black" points="946,-518.5 946,-537.5 1078,-537.5 1078,-518.5 946,-518.5"/>
<text text-anchor="middle" x="1012" y="-525.5" font-family="Helvetica,sans-Serif" font-size="10.00">CLevelDBWrapper::Erase</text>
</a>
</g>
</g>
<!-- Node29&#45;&gt;Node30 -->
<g id="edge40" class="edge"><title>Node29&#45;&gt;Node30</title>
<path fill="none" stroke="midnightblue" d="M290.462,-396.614C343.744,-419.807 457.837,-466.723 559,-490 654.853,-512.056 680.993,-505.702 779,-514 835.29,-518.766 899.398,-522.506 945.938,-524.917"/>
<polygon fill="midnightblue" stroke="midnightblue" points="291.801,-393.38 281.237,-392.571 288.991,-399.791 291.801,-393.38"/>
</g>
<!-- Node30&#45;&gt;Node26 -->
<g id="edge41" class="edge"><title>Node30&#45;&gt;Node26</title>
<path fill="none" stroke="midnightblue" d="M1059.55,-515.911C1089.89,-508.034 1128.93,-497.897 1157.12,-490.578"/>
<polygon fill="midnightblue" stroke="midnightblue" points="1058.43,-512.588 1049.63,-518.489 1060.19,-519.363 1058.43,-512.588"/>
</g>
<!-- Node32 -->
<g id="node32" class="node"><title>Node32</title>
<g id="a_node32"><a xlink:href="class_c_coins_view_d_b.html#a6abb3db74d1ec815b2cb8a8672b848bb" target="_top" xlink:title="CCoinsViewDB::GetCoins">
<polygon fill="white" stroke="black" points="585,-76.5 585,-95.5 717,-95.5 717,-76.5 585,-76.5"/>
<text text-anchor="middle" x="651" y="-83.5" font-family="Helvetica,sans-Serif" font-size="10.00">CCoinsViewDB::GetCoins</text>
</a>
</g>
</g>
<!-- Node31&#45;&gt;Node32 -->
<g id="edge43" class="edge"><title>Node31&#45;&gt;Node32</title>
<path fill="none" stroke="midnightblue" d="M494.371,-122.103C503.904,-119.809 513.766,-117.378 523,-115 539.081,-110.858 542.864,-108.921 559,-105 572.644,-101.684 587.524,-98.4279 601.225,-95.5734"/>
<polygon fill="midnightblue" stroke="midnightblue" points="493.509,-118.71 484.595,-124.436 495.134,-125.519 493.509,-118.71"/>
</g>
<!-- Node33 -->
<g id="node33" class="node"><title>Node33</title>
<g id="a_node33"><a xlink:href="class_c_coins_view_d_b.html#a5a4569b8b1675539eedf1bf14a9c7fc0" target="_top" xlink:title="CCoinsViewDB::GetBestBlock">
<polygon fill="white" stroke="black" points="575.5,-38.5 575.5,-57.5 726.5,-57.5 726.5,-38.5 575.5,-38.5"/>
<text text-anchor="middle" x="651" y="-45.5" font-family="Helvetica,sans-Serif" font-size="10.00">CCoinsViewDB::GetBestBlock</text>
</a>
</g>
</g>
<!-- Node31&#45;&gt;Node33 -->
<g id="edge44" class="edge"><title>Node31&#45;&gt;Node33</title>
<path fill="none" stroke="midnightblue" d="M512.953,-120.581C516.454,-118.931 519.829,-117.079 523,-115 545.302,-100.381 536.5,-81.313 559,-67 565.128,-63.1019 571.913,-59.9871 578.936,-57.5007"/>
<polygon fill="midnightblue" stroke="midnightblue" points="511.358,-117.452 503.441,-124.493 514.021,-123.926 511.358,-117.452"/>
</g>
<!-- Node35 -->
<g id="node35" class="node"><title>Node35</title>
<g id="a_node35"><a xlink:href="class_c_block_tree_d_b.html#a6f951198dc53fbe9194626ff82638656" target="_top" xlink:title="CBlockTreeDB::ReadBlockFileInfo">
<polygon fill="white" stroke="black" points="566.5,-228.5 566.5,-247.5 735.5,-247.5 735.5,-228.5 566.5,-228.5"/>
<text text-anchor="middle" x="651" y="-235.5" font-family="Helvetica,sans-Serif" font-size="10.00">CBlockTreeDB::ReadBlockFileInfo</text>
</a>
</g>
</g>
<!-- Node31&#45;&gt;Node35 -->
<g id="edge46" class="edge"><title>Node31&#45;&gt;Node35</title>
<path fill="none" stroke="midnightblue" d="M471.136,-148.136C513.945,-169.644 594.318,-210.025 630.943,-228.426"/>
<polygon fill="midnightblue" stroke="midnightblue" points="472.61,-144.96 462.103,-143.598 469.467,-151.215 472.61,-144.96"/>
</g>
<!-- Node36 -->
<g id="node36" class="node"><title>Node36</title>
<g id="a_node36"><a xlink:href="class_c_block_tree_d_b.html#adb1276fe2f0e0c4c106660948c581711" target="_top" xlink:title="CBlockTreeDB::ReadLastBlockFile">
<polygon fill="white" stroke="black" points="565,-0.5 565,-19.5 737,-19.5 737,-0.5 565,-0.5"/>
<text text-anchor="middle" x="651" y="-7.5" font-family="Helvetica,sans-Serif" font-size="10.00">CBlockTreeDB::ReadLastBlockFile</text>
</a>
</g>
</g>
<!-- Node31&#45;&gt;Node36 -->
<g id="edge50" class="edge"><title>Node31&#45;&gt;Node36</title>
<path fill="none" stroke="midnightblue" d="M515.833,-120.182C518.353,-118.627 520.755,-116.905 523,-115 554.591,-88.187 527.045,-55.3785 559,-29 563.605,-25.1985 568.78,-22.0989 574.264,-19.5778"/>
<polygon fill="midnightblue" stroke="midnightblue" points="514.121,-117.127 506.87,-124.853 517.356,-123.335 514.121,-117.127"/>
</g>
<!-- Node37 -->
<g id="node37" class="node"><title>Node37</title>
<g id="a_node37"><a xlink:href="class_c_block_tree_d_b.html#a74383427266d627e84c2d0c8e21e03c7" target="_top" xlink:title="CBlockTreeDB::ReadTxIndex">
<polygon fill="white" stroke="black" points="577,-152.5 577,-171.5 725,-171.5 725,-152.5 577,-152.5"/>
<text text-anchor="middle" x="651" y="-159.5" font-family="Helvetica,sans-Serif" font-size="10.00">CBlockTreeDB::ReadTxIndex</text>
</a>
</g>
</g>
<!-- Node31&#45;&gt;Node37 -->
<g id="edge51" class="edge"><title>Node31&#45;&gt;Node37</title>
<path fill="none" stroke="midnightblue" d="M516.462,-143.937C537.044,-146.721 559.36,-149.74 579.751,-152.498"/>
<polygon fill="midnightblue" stroke="midnightblue" points="516.893,-140.463 506.514,-142.591 515.954,-147.4 516.893,-140.463"/>
</g>
<!-- Node40 -->
<g id="node40" class="node"><title>Node40</title>
<g id="a_node40"><a xlink:href="class_c_block_tree_d_b.html#acd779c4653fd9a87fffe95d53ce7c6d3" target="_top" xlink:title="CBlockTreeDB::ReadFlag">
<polygon fill="white" stroke="black" points="585,-114.5 585,-133.5 717,-133.5 717,-114.5 585,-114.5"/>
<text text-anchor="middle" x="651" y="-121.5" font-family="Helvetica,sans-Serif" font-size="10.00">CBlockTreeDB::ReadFlag</text>
</a>
</g>
</g>
<!-- Node31&#45;&gt;Node40 -->
<g id="edge54" class="edge"><title>Node31&#45;&gt;Node40</title>
<path fill="none" stroke="midnightblue" d="M516.586,-130.445C538.853,-129.369 563.141,-128.196 584.819,-127.149"/>
<polygon fill="midnightblue" stroke="midnightblue" points="516.333,-126.953 506.514,-130.932 516.671,-133.945 516.333,-126.953"/>
</g>
<!-- Node34 -->
<g id="node34" class="node"><title>Node34</title>
<g id="a_node34"><a xlink:href="class_c_coins_view_d_b.html#abf52d3ea526344e4b4ba9e4c08e60178" target="_top" xlink:title="CCoinsViewDB::GetStats">
<polygon fill="white" stroke="black" points="780,-38.5 780,-57.5 909,-57.5 909,-38.5 780,-38.5"/>
<text text-anchor="middle" x="844.5" y="-45.5" font-family="Helvetica,sans-Serif" font-size="10.00">CCoinsViewDB::GetStats</text>
</a>
</g>
</g>
<!-- Node33&#45;&gt;Node34 -->
<g id="edge45" class="edge"><title>Node33&#45;&gt;Node34</title>
<path fill="none" stroke="midnightblue" d="M736.601,-48C751.171,-48 766.089,-48 779.983,-48"/>
<polygon fill="midnightblue" stroke="midnightblue" points="736.587,-44.5001 726.587,-48 736.587,-51.5001 736.587,-44.5001"/>
</g>
<!-- Node35&#45;&gt;Node17 -->
<g id="edge49" class="edge"><title>Node35&#45;&gt;Node17</title>
<path fill="none" stroke="midnightblue" d="M745.815,-243.626C896.537,-252.665 1188.18,-270.156 1311.61,-277.558"/>
<polygon fill="midnightblue" stroke="midnightblue" points="745.844,-240.122 735.652,-243.017 745.425,-247.109 745.844,-240.122"/>
</g>
<!-- Node35&#45;&gt;Node23 -->
<g id="edge47" class="edge"><title>Node35&#45;&gt;Node23</title>
<path fill="none" stroke="midnightblue" d="M730.798,-250.997C735.032,-252.753 739.131,-254.743 743,-257 763.947,-269.218 758.563,-284.948 779,-298 786.969,-303.089 796.353,-306.86 805.457,-309.638"/>
<polygon fill="midnightblue" stroke="midnightblue" points="731.943,-247.689 721.349,-247.516 729.523,-254.258 731.943,-247.689"/>
</g>
<!-- Node35&#45;&gt;Node24 -->
<g id="edge48" class="edge"><title>Node35&#45;&gt;Node24</title>
<path fill="none" stroke="midnightblue" d="M708.252,-249.656C719.752,-252.064 731.77,-254.598 743,-257 763.785,-261.445 786.962,-266.511 805.817,-270.661"/>
<polygon fill="midnightblue" stroke="midnightblue" points="708.817,-246.199 698.312,-247.579 707.385,-253.051 708.817,-246.199"/>
</g>
<!-- Node38 -->
<g id="node38" class="node"><title>Node38</title>
<g id="a_node38"><a xlink:href="main_8h.html#a74cc9659a06d35436a25b7ae56a15bcb" target="_top" xlink:title="Retrieve a transaction (from memory pool, or from disk, if possible) ">
<polygon fill="white" stroke="black" points="802,-152.5 802,-171.5 887,-171.5 887,-152.5 802,-152.5"/>
<text text-anchor="middle" x="844.5" y="-159.5" font-family="Helvetica,sans-Serif" font-size="10.00">GetTransaction</text>
</a>
</g>
</g>
<!-- Node37&#45;&gt;Node38 -->
<g id="edge52" class="edge"><title>Node37&#45;&gt;Node38</title>
<path fill="none" stroke="midnightblue" d="M735.362,-162C758.396,-162 782.402,-162 801.928,-162"/>
<polygon fill="midnightblue" stroke="midnightblue" points="735.218,-158.5 725.218,-162 735.218,-165.5 735.218,-158.5"/>
</g>
<!-- Node39 -->
<g id="node39" class="node"><title>Node39</title>
<g id="a_node39"><a xlink:href="rpcrawtransaction_8cpp.html#a12e1b8a05d99d1544e5343c2282cc55a" target="_top" xlink:title="getrawtransaction">
<polygon fill="white" stroke="black" points="964.5,-152.5 964.5,-171.5 1059.5,-171.5 1059.5,-152.5 964.5,-152.5"/>
<text text-anchor="middle" x="1012" y="-159.5" font-family="Helvetica,sans-Serif" font-size="10.00">getrawtransaction</text>
</a>
</g>
</g>
<!-- Node38&#45;&gt;Node39 -->
<g id="edge53" class="edge"><title>Node38&#45;&gt;Node39</title>
<path fill="none" stroke="midnightblue" d="M897.478,-162C918.874,-162 943.471,-162 964.286,-162"/>
<polygon fill="midnightblue" stroke="midnightblue" points="897.263,-158.5 887.263,-162 897.263,-165.5 897.263,-158.5"/>
</g>
<!-- Node42 -->
<g id="node42" class="node"><title>Node42</title>
<g id="a_node42"><a xlink:href="class_c_coins_view_d_b.html#aff808ef194c5d137bc268757bea4e326" target="_top" xlink:title="CCoinsViewDB::HaveCoins">
<polygon fill="white" stroke="black" points="372.5,-86.5 372.5,-105.5 511.5,-105.5 511.5,-86.5 372.5,-86.5"/>
<text text-anchor="middle" x="442" y="-93.5" font-family="Helvetica,sans-Serif" font-size="10.00">CCoinsViewDB::HaveCoins</text>
</a>
</g>
</g>
<!-- Node41&#45;&gt;Node42 -->
<g id="edge56" class="edge"><title>Node41&#45;&gt;Node42</title>
<path fill="none" stroke="midnightblue" d="M335.264,-96C347.507,-96 360.134,-96 372.212,-96"/>
<polygon fill="midnightblue" stroke="midnightblue" points="335.089,-92.5001 325.089,-96 335.089,-99.5001 335.089,-92.5001"/>
</g>
<!-- Node43 -->
<g id="node43" class="node"><title>Node43</title>
<g id="a_node43"><a xlink:href="class_c_block_tree_d_b.html#a1abf6fc392048428aa24a12b7942824b" target="_top" xlink:title="CBlockTreeDB::ReadReindexing">
<polygon fill="white" stroke="black" points="361,-48.5 361,-67.5 523,-67.5 523,-48.5 361,-48.5"/>
<text text-anchor="middle" x="442" y="-55.5" font-family="Helvetica,sans-Serif" font-size="10.00">CBlockTreeDB::ReadReindexing</text>
</a>
</g>
</g>
<!-- Node41&#45;&gt;Node43 -->
<g id="edge57" class="edge"><title>Node41&#45;&gt;Node43</title>
<path fill="none" stroke="midnightblue" d="M315.638,-84.319C341.307,-78.9301 371.391,-72.6139 395.654,-67.5201"/>
<polygon fill="midnightblue" stroke="midnightblue" points="314.741,-80.9309 305.674,-86.411 316.18,-87.7816 314.741,-80.9309"/>
</g>
</g>
</svg>
