<?xml version="1.0" encoding="UTF-8" standalone="no"?>
<!DOCTYPE svg PUBLIC "-//W3C//DTD SVG 1.1//EN"
 "http://www.w3.org/Graphics/SVG/1.1/DTD/svg11.dtd">
<!-- Generated by graphviz version 2.38.0 (20140413.2041)
 -->
<!-- Title: CKeyStore::AddKey Pages: 1 -->
<svg width="289pt" height="66pt"
 viewBox="0.00 0.00 289.00 66.00" xmlns="http://www.w3.org/2000/svg" xmlns:xlink="http://www.w3.org/1999/xlink">
<g id="graph0" class="graph" transform="scale(1 1) rotate(0) translate(4 62)">
<title>CKeyStore::AddKey</title>
<polygon fill="white" stroke="none" points="-4,4 -4,-62 285,-62 285,4 -4,4"/>
<!-- Node1 -->
<g id="node1" class="node"><title>Node1</title>
<polygon fill="#bfbfbf" stroke="black" points="0,-19.5 0,-38.5 105,-38.5 105,-19.5 0,-19.5"/>
<text text-anchor="middle" x="52.5" y="-26.5" font-family="Helvetica,sans-Serif" font-size="10.00">CKeyStore::AddKey</text>
</g>
<!-- Node2 -->
<g id="node2" class="node"><title>Node2</title>
<g id="a_node2"><a xlink:href="class_c_key_store.html#a1956e4f5860ded321d6f697047d8236a" target="_top" xlink:title="CKeyStore::AddKeyPubKey">
<polygon fill="white" stroke="black" points="141,-38.5 141,-57.5 281,-57.5 281,-38.5 141,-38.5"/>
<text text-anchor="middle" x="211" y="-45.5" font-family="Helvetica,sans-Serif" font-size="10.00">CKeyStore::AddKeyPubKey</text>
</a>
</g>
</g>
<!-- Node1&#45;&gt;Node2 -->
<g id="edge1" class="edge"><title>Node1&#45;&gt;Node2</title>
<path fill="none" stroke="midnightblue" d="M105.178,-35.274C113.369,-36.2684 122.001,-37.3164 130.65,-38.3665"/>
<polygon fill="midnightblue" stroke="midnightblue" points="130.438,-41.8664 140.787,-39.5972 131.282,-34.9174 130.438,-41.8664"/>
</g>
<!-- Node3 -->
<g id="node3" class="node"><title>Node3</title>
<g id="a_node3"><a xlink:href="class_c_key.html#ae4b61da6ec62f676fe6362ac5fc26aca" target="_top" xlink:title="CKey::GetPubKey">
<polygon fill="white" stroke="black" points="162,-0.5 162,-19.5 260,-19.5 260,-0.5 162,-0.5"/>
<text text-anchor="middle" x="211" y="-7.5" font-family="Helvetica,sans-Serif" font-size="10.00">CKey::GetPubKey</text>
</a>
</g>
</g>
<!-- Node1&#45;&gt;Node3 -->
<g id="edge2" class="edge"><title>Node1&#45;&gt;Node3</title>
<path fill="none" stroke="midnightblue" d="M105.178,-22.726C120.007,-20.9256 136.282,-18.9498 151.491,-17.1033"/>
<polygon fill="midnightblue" stroke="midnightblue" points="152.315,-20.5291 161.82,-15.8493 151.471,-13.5801 152.315,-20.5291"/>
</g>
</g>
</svg>
