<?xml version="1.0" encoding="UTF-8" standalone="no"?>
<!DOCTYPE svg PUBLIC "-//W3C//DTD SVG 1.1//EN"
 "http://www.w3.org/Graphics/SVG/1.1/DTD/svg11.dtd">
<!-- Generated by graphviz version 2.38.0 (20140413.2041)
 -->
<!-- Title: CBasicKeyStore::GetKey Pages: 1 -->
<svg width="472pt" height="164pt"
 viewBox="0.00 0.00 472.00 164.00" xmlns="http://www.w3.org/2000/svg" xmlns:xlink="http://www.w3.org/1999/xlink">
<g id="graph0" class="graph" transform="scale(1 1) rotate(0) translate(4 160)">
<title>CBasicKeyStore::GetKey</title>
<polygon fill="white" stroke="none" points="-4,4 -4,-160 468,-160 468,4 -4,4"/>
<!-- Node1 -->
<g id="node1" class="node"><title>Node1</title>
<polygon fill="#bfbfbf" stroke="black" points="0,-57.5 0,-76.5 128,-76.5 128,-57.5 0,-57.5"/>
<text text-anchor="middle" x="64" y="-64.5" font-family="Helvetica,sans-Serif" font-size="10.00">CBasicKeyStore::GetKey</text>
</g>
<!-- Node2 -->
<g id="node2" class="node"><title>Node2</title>
<g id="a_node2"><a xlink:href="class_c_crypto_key_store.html#a58cfb3c490318ef82de8fc9be6637269" target="_top" xlink:title="CCryptoKeyStore::GetKey">
<polygon fill="white" stroke="black" points="164,-57.5 164,-76.5 297,-76.5 297,-57.5 164,-57.5"/>
<text text-anchor="middle" x="230.5" y="-64.5" font-family="Helvetica,sans-Serif" font-size="10.00">CCryptoKeyStore::GetKey</text>
</a>
</g>
</g>
<!-- Node1&#45;&gt;Node2 -->
<g id="edge1" class="edge"><title>Node1&#45;&gt;Node2</title>
<path fill="none" stroke="midnightblue" d="M138.377,-67C146.851,-67 155.451,-67 163.813,-67"/>
<polygon fill="midnightblue" stroke="midnightblue" points="138.13,-63.5001 128.13,-67 138.13,-70.5001 138.13,-63.5001"/>
</g>
<!-- Node3 -->
<g id="node3" class="node"><title>Node3</title>
<g id="a_node3"><a xlink:href="class_sign_verify_message_dialog.html#a2ef91b4ace68d63ab1c1d3cc6c13b5f9" target="_top" xlink:title="SignVerifyMessageDialog\l::on_signMessageButton\l_SM_clicked">
<polygon fill="white" stroke="black" points="333,-114.5 333,-155.5 464,-155.5 464,-114.5 333,-114.5"/>
<text text-anchor="start" x="341" y="-143.5" font-family="Helvetica,sans-Serif" font-size="10.00">SignVerifyMessageDialog</text>
<text text-anchor="start" x="341" y="-132.5" font-family="Helvetica,sans-Serif" font-size="10.00">::on_signMessageButton</text>
<text text-anchor="middle" x="398.5" y="-121.5" font-family="Helvetica,sans-Serif" font-size="10.00">_SM_clicked</text>
</a>
</g>
</g>
<!-- Node2&#45;&gt;Node3 -->
<g id="edge2" class="edge"><title>Node2&#45;&gt;Node3</title>
<path fill="none" stroke="midnightblue" d="M264.49,-80.5139C288.119,-90.1935 320.372,-103.405 347.199,-114.395"/>
<polygon fill="midnightblue" stroke="midnightblue" points="265.512,-77.1504 254.932,-76.5985 262.859,-83.628 265.512,-77.1504"/>
</g>
<!-- Node4 -->
<g id="node4" class="node"><title>Node4</title>
<g id="a_node4"><a xlink:href="rpcdump_8cpp.html#a4010fb238298e15c540d3e5ecd60f858" target="_top" xlink:title="dumpprivkey">
<polygon fill="white" stroke="black" points="362,-76.5 362,-95.5 435,-95.5 435,-76.5 362,-76.5"/>
<text text-anchor="middle" x="398.5" y="-83.5" font-family="Helvetica,sans-Serif" font-size="10.00">dumpprivkey</text>
</a>
</g>
</g>
<!-- Node2&#45;&gt;Node4 -->
<g id="edge3" class="edge"><title>Node2&#45;&gt;Node4</title>
<path fill="none" stroke="midnightblue" d="M307.047,-75.6469C326.188,-77.8377 345.862,-80.0896 361.953,-81.9313"/>
<polygon fill="midnightblue" stroke="midnightblue" points="307.441,-72.1692 297.108,-74.5093 306.645,-79.1238 307.441,-72.1692"/>
</g>
<!-- Node5 -->
<g id="node5" class="node"><title>Node5</title>
<g id="a_node5"><a xlink:href="rpcdump_8cpp.html#a831ddf746d4f2500ba6f6c07f63445cd" target="_top" xlink:title="dumpwallet">
<polygon fill="white" stroke="black" points="365,-38.5 365,-57.5 432,-57.5 432,-38.5 365,-38.5"/>
<text text-anchor="middle" x="398.5" y="-45.5" font-family="Helvetica,sans-Serif" font-size="10.00">dumpwallet</text>
</a>
</g>
</g>
<!-- Node2&#45;&gt;Node5 -->
<g id="edge4" class="edge"><title>Node2&#45;&gt;Node5</title>
<path fill="none" stroke="midnightblue" d="M307.263,-58.3284C327.441,-56.0188 348.195,-53.6434 364.704,-51.7538"/>
<polygon fill="midnightblue" stroke="midnightblue" points="306.645,-54.8762 297.108,-59.4907 307.441,-61.8308 306.645,-54.8762"/>
</g>
<!-- Node6 -->
<g id="node6" class="node"><title>Node6</title>
<g id="a_node6"><a xlink:href="rpcwallet_8cpp.html#a315b42a2c859c4b50a54c1b05984928c" target="_top" xlink:title="signmessage">
<polygon fill="white" stroke="black" points="361,-0.5 361,-19.5 436,-19.5 436,-0.5 361,-0.5"/>
<text text-anchor="middle" x="398.5" y="-7.5" font-family="Helvetica,sans-Serif" font-size="10.00">signmessage</text>
</a>
</g>
</g>
<!-- Node2&#45;&gt;Node6 -->
<g id="edge5" class="edge"><title>Node2&#45;&gt;Node6</title>
<path fill="none" stroke="midnightblue" d="M264.97,-53.7794C284.654,-46.1775 310.099,-36.649 333,-29 342.854,-25.7086 353.653,-22.4093 363.548,-19.5055"/>
<polygon fill="midnightblue" stroke="midnightblue" points="263.579,-50.5647 255.526,-57.4491 266.114,-57.0894 263.579,-50.5647"/>
</g>
</g>
</svg>
