<?xml version="1.0" encoding="UTF-8" standalone="no"?>
<!DOCTYPE svg PUBLIC "-//W3C//DTD SVG 1.1//EN"
 "http://www.w3.org/Graphics/SVG/1.1/DTD/svg11.dtd">
<!-- Generated by graphviz version 2.38.0 (20140413.2041)
 -->
<!-- Title: PaymentRequestPlus::getPKIType Pages: 1 -->
<svg width="477pt" height="88pt"
 viewBox="0.00 0.00 477.00 88.00" xmlns="http://www.w3.org/2000/svg" xmlns:xlink="http://www.w3.org/1999/xlink">
<g id="graph0" class="graph" transform="scale(1 1) rotate(0) translate(4 84)">
<title>PaymentRequestPlus::getPKIType</title>
<polygon fill="white" stroke="none" points="-4,4 -4,-84 473,-84 473,4 -4,4"/>
<!-- Node1 -->
<g id="node1" class="node"><title>Node1</title>
<polygon fill="#bfbfbf" stroke="black" points="0,-24.5 0,-54.5 113,-54.5 113,-24.5 0,-24.5"/>
<text text-anchor="start" x="8" y="-42.5" font-family="Helvetica,sans-Serif" font-size="10.00">PaymentRequestPlus</text>
<text text-anchor="middle" x="56.5" y="-31.5" font-family="Helvetica,sans-Serif" font-size="10.00">::getPKIType</text>
</g>
<!-- Node2 -->
<g id="node2" class="node"><title>Node2</title>
<g id="a_node2"><a xlink:href="class_payment_request_plus.html#a62ae278689d852e4a73cdef627763944" target="_top" xlink:title="PaymentRequestPlus\l::IsInitialized">
<polygon fill="white" stroke="black" points="163.5,-49.5 163.5,-79.5 276.5,-79.5 276.5,-49.5 163.5,-49.5"/>
<text text-anchor="start" x="171.5" y="-67.5" font-family="Helvetica,sans-Serif" font-size="10.00">PaymentRequestPlus</text>
<text text-anchor="middle" x="220" y="-56.5" font-family="Helvetica,sans-Serif" font-size="10.00">::IsInitialized</text>
</a>
</g>
</g>
<!-- Node1&#45;&gt;Node2 -->
<g id="edge1" class="edge"><title>Node1&#45;&gt;Node2</title>
<path fill="none" stroke="midnightblue" d="M113.079,-48.1036C126.021,-50.107 139.922,-52.2588 153.257,-54.323"/>
<polygon fill="midnightblue" stroke="midnightblue" points="152.901,-57.8095 163.318,-55.8806 153.972,-50.8919 152.901,-57.8095"/>
</g>
<!-- Node4 -->
<g id="node4" class="node"><title>Node4</title>
<g id="a_node4"><a xlink:href="classpayments_1_1_payment_request.html#a42d70acf5e751d9304f1e4246587b648" target="_top" xlink:title="payments::PaymentRequest\l::pki_type">
<polygon fill="white" stroke="black" points="149,-0.5 149,-30.5 291,-30.5 291,-0.5 149,-0.5"/>
<text text-anchor="start" x="157" y="-18.5" font-family="Helvetica,sans-Serif" font-size="10.00">payments::PaymentRequest</text>
<text text-anchor="middle" x="220" y="-7.5" font-family="Helvetica,sans-Serif" font-size="10.00">::pki_type</text>
</a>
</g>
</g>
<!-- Node1&#45;&gt;Node4 -->
<g id="edge3" class="edge"><title>Node1&#45;&gt;Node4</title>
<path fill="none" stroke="midnightblue" d="M113.079,-31.2406C121.342,-30.0126 129.996,-28.7266 138.644,-27.4414"/>
<polygon fill="midnightblue" stroke="midnightblue" points="139.392,-30.8688 148.769,-25.9368 138.363,-23.9448 139.392,-30.8688"/>
</g>
<!-- Node3 -->
<g id="node3" class="node"><title>Node3</title>
<g id="a_node3"><a xlink:href="classpayments_1_1_payment_request.html#a823854558ba54ec4b6258d9132affc15" target="_top" xlink:title="payments::PaymentRequest\l::IsInitialized">
<polygon fill="white" stroke="black" points="327,-49.5 327,-79.5 469,-79.5 469,-49.5 327,-49.5"/>
<text text-anchor="start" x="335" y="-67.5" font-family="Helvetica,sans-Serif" font-size="10.00">payments::PaymentRequest</text>
<text text-anchor="middle" x="398" y="-56.5" font-family="Helvetica,sans-Serif" font-size="10.00">::IsInitialized</text>
</a>
</g>
</g>
<!-- Node2&#45;&gt;Node3 -->
<g id="edge2" class="edge"><title>Node2&#45;&gt;Node3</title>
<path fill="none" stroke="midnightblue" d="M276.688,-64.5C289.367,-64.5 303.086,-64.5 316.567,-64.5"/>
<polygon fill="midnightblue" stroke="midnightblue" points="316.808,-68.0001 326.808,-64.5 316.808,-61.0001 316.808,-68.0001"/>
</g>
</g>
</svg>
