<?xml version="1.0" encoding="UTF-8" standalone="no"?>
<!DOCTYPE svg PUBLIC "-//W3C//DTD SVG 1.1//EN"
 "http://www.w3.org/Graphics/SVG/1.1/DTD/svg11.dtd">
<!-- Generated by graphviz version 2.38.0 (20140413.2041)
 -->
<!-- Title: CTxInUndo::Serialize Pages: 1 -->
<svg width="300pt" height="116pt"
 viewBox="0.00 0.00 300.00 116.00" xmlns="http://www.w3.org/2000/svg" xmlns:xlink="http://www.w3.org/1999/xlink">
<g id="graph0" class="graph" transform="scale(1 1) rotate(0) translate(4 112)">
<title>CTxInUndo::Serialize</title>
<polygon fill="white" stroke="none" points="-4,4 -4,-112 296,-112 296,4 -4,4"/>
<!-- Node1 -->
<g id="node1" class="node"><title>Node1</title>
<polygon fill="#bfbfbf" stroke="black" points="0,-44.5 0,-63.5 111,-63.5 111,-44.5 0,-44.5"/>
<text text-anchor="middle" x="55.5" y="-51.5" font-family="Helvetica,sans-Serif" font-size="10.00">CTxInUndo::Serialize</text>
</g>
<!-- Node2 -->
<g id="node2" class="node"><title>Node2</title>
<g id="a_node2"><a xlink:href="serialize_8h.html#a57a07500f5e1eb9589dc8d57bbd73a18" target="_top" xlink:title="Serialize">
<polygon fill="white" stroke="black" points="192,-88.5 192,-107.5 247,-107.5 247,-88.5 192,-88.5"/>
<text text-anchor="middle" x="219.5" y="-95.5" font-family="Helvetica,sans-Serif" font-size="10.00">Serialize</text>
</a>
</g>
</g>
<!-- Node1&#45;&gt;Node2 -->
<g id="edge1" class="edge"><title>Node1&#45;&gt;Node2</title>
<path fill="none" stroke="midnightblue" d="M90.8578,-63.5763C107.757,-68.2647 128.435,-73.9693 147,-79 158.39,-82.0864 170.813,-85.4046 182.062,-88.3908"/>
<polygon fill="midnightblue" stroke="midnightblue" points="181.435,-91.8455 191.998,-91.0237 183.228,-85.079 181.435,-91.8455"/>
</g>
<!-- Node3 -->
<g id="node3" class="node"><title>Node3</title>
<g id="a_node3"><a xlink:href="class_c_tx_out_compressor.html#a38ef1033989cd003de65598620d15cea" target="_top" xlink:title="CTxOutCompressor::CTxOut\lCompressor">
<polygon fill="white" stroke="black" points="147,-39 147,-69 292,-69 292,-39 147,-39"/>
<text text-anchor="start" x="155" y="-57" font-family="Helvetica,sans-Serif" font-size="10.00">CTxOutCompressor::CTxOut</text>
<text text-anchor="middle" x="219.5" y="-46" font-family="Helvetica,sans-Serif" font-size="10.00">Compressor</text>
</a>
</g>
</g>
<!-- Node1&#45;&gt;Node3 -->
<g id="edge2" class="edge"><title>Node1&#45;&gt;Node3</title>
<path fill="none" stroke="midnightblue" d="M111.346,-54C119.527,-54 128.106,-54 136.698,-54"/>
<polygon fill="midnightblue" stroke="midnightblue" points="136.767,-57.5001 146.766,-54 136.766,-50.5001 136.767,-57.5001"/>
</g>
<!-- Node4 -->
<g id="node4" class="node"><title>Node4</title>
<g id="a_node4"><a xlink:href="serialize_8h.html#abd1caa7e45d4ba31b7dfdda9949c3b05" target="_top" xlink:title="REF">
<polygon fill="white" stroke="black" points="201.5,-0.5 201.5,-19.5 237.5,-19.5 237.5,-0.5 201.5,-0.5"/>
<text text-anchor="middle" x="219.5" y="-7.5" font-family="Helvetica,sans-Serif" font-size="10.00">REF</text>
</a>
</g>
</g>
<!-- Node1&#45;&gt;Node4 -->
<g id="edge3" class="edge"><title>Node1&#45;&gt;Node4</title>
<path fill="none" stroke="midnightblue" d="M91.6516,-44.4527C121.687,-36.2948 164.264,-24.7307 191.634,-17.2969"/>
<polygon fill="midnightblue" stroke="midnightblue" points="192.588,-20.6646 201.321,-14.6658 190.754,-13.9093 192.588,-20.6646"/>
</g>
</g>
</svg>
