<?xml version="1.0" encoding="UTF-8" standalone="no"?>
<!DOCTYPE svg PUBLIC "-//W3C//DTD SVG 1.1//EN"
 "http://www.w3.org/Graphics/SVG/1.1/DTD/svg11.dtd">
<!-- Generated by graphviz version 2.38.0 (20140413.2041)
 -->
<!-- Title: CWallet::LoadDestData Pages: 1 -->
<svg width="868pt" height="104pt"
 viewBox="0.00 0.00 868.00 104.00" xmlns="http://www.w3.org/2000/svg" xmlns:xlink="http://www.w3.org/1999/xlink">
<g id="graph0" class="graph" transform="scale(1 1) rotate(0) translate(4 100)">
<title>CWallet::LoadDestData</title>
<polygon fill="white" stroke="none" points="-4,4 -4,-100 864,-100 864,4 -4,4"/>
<!-- Node1 -->
<g id="node1" class="node"><title>Node1</title>
<polygon fill="#bfbfbf" stroke="black" points="0,-57.5 0,-76.5 121,-76.5 121,-57.5 0,-57.5"/>
<text text-anchor="middle" x="60.5" y="-64.5" font-family="Helvetica,sans-Serif" font-size="10.00">CWallet::LoadDestData</text>
</g>
<!-- Node2 -->
<g id="node2" class="node"><title>Node2</title>
<g id="a_node2"><a xlink:href="walletdb_8cpp.html#ad1f171cf096f5479805a06fc20480343" target="_top" xlink:title="ReadKeyValue">
<polygon fill="white" stroke="black" points="157,-57.5 157,-76.5 240,-76.5 240,-57.5 157,-57.5"/>
<text text-anchor="middle" x="198.5" y="-64.5" font-family="Helvetica,sans-Serif" font-size="10.00">ReadKeyValue</text>
</a>
</g>
</g>
<!-- Node1&#45;&gt;Node2 -->
<g id="edge1" class="edge"><title>Node1&#45;&gt;Node2</title>
<path fill="none" stroke="midnightblue" d="M131.318,-67C139.991,-67 148.626,-67 156.655,-67"/>
<polygon fill="midnightblue" stroke="midnightblue" points="131.152,-63.5001 121.152,-67 131.152,-70.5001 131.152,-63.5001"/>
</g>
<!-- Node3 -->
<g id="node3" class="node"><title>Node3</title>
<g id="a_node3"><a xlink:href="class_c_wallet_d_b.html#a14f26e53502d1a60dd2b034f830acf03" target="_top" xlink:title="CWalletDB::LoadWallet">
<polygon fill="white" stroke="black" points="276,-76.5 276,-95.5 397,-95.5 397,-76.5 276,-76.5"/>
<text text-anchor="middle" x="336.5" y="-83.5" font-family="Helvetica,sans-Serif" font-size="10.00">CWalletDB::LoadWallet</text>
</a>
</g>
</g>
<!-- Node2&#45;&gt;Node3 -->
<g id="edge2" class="edge"><title>Node2&#45;&gt;Node3</title>
<path fill="none" stroke="midnightblue" d="M250.265,-74.0922C258.612,-75.2583 267.33,-76.4762 275.869,-77.6691"/>
<polygon fill="midnightblue" stroke="midnightblue" points="250.693,-70.618 240.304,-72.7006 249.724,-77.5507 250.693,-70.618"/>
</g>
<!-- Node9 -->
<g id="node9" class="node"><title>Node9</title>
<g id="a_node9"><a xlink:href="class_c_wallet_d_b.html#a3ebeb12f37d9c66512e2bc2903a6854a" target="_top" xlink:title="CWalletDB::Recover">
<polygon fill="white" stroke="black" points="282.5,-38.5 282.5,-57.5 390.5,-57.5 390.5,-38.5 282.5,-38.5"/>
<text text-anchor="middle" x="336.5" y="-45.5" font-family="Helvetica,sans-Serif" font-size="10.00">CWalletDB::Recover</text>
</a>
</g>
</g>
<!-- Node2&#45;&gt;Node9 -->
<g id="edge8" class="edge"><title>Node2&#45;&gt;Node9</title>
<path fill="none" stroke="midnightblue" d="M250.429,-59.885C260.779,-58.4389 271.694,-56.914 282.127,-55.4565"/>
<polygon fill="midnightblue" stroke="midnightblue" points="249.724,-56.4493 240.304,-61.2994 250.693,-63.382 249.724,-56.4493"/>
</g>
<!-- Node4 -->
<g id="node4" class="node"><title>Node4</title>
<g id="a_node4"><a xlink:href="class_c_wallet.html#a5d7b244b8ed0cbe24233ee0b6ca3cae0" target="_top" xlink:title="CWallet::LoadWallet">
<polygon fill="white" stroke="black" points="433.5,-76.5 433.5,-95.5 540.5,-95.5 540.5,-76.5 433.5,-76.5"/>
<text text-anchor="middle" x="487" y="-83.5" font-family="Helvetica,sans-Serif" font-size="10.00">CWallet::LoadWallet</text>
</a>
</g>
</g>
<!-- Node3&#45;&gt;Node4 -->
<g id="edge3" class="edge"><title>Node3&#45;&gt;Node4</title>
<path fill="none" stroke="midnightblue" d="M407.218,-86C415.941,-86 424.748,-86 433.154,-86"/>
<polygon fill="midnightblue" stroke="midnightblue" points="407.045,-82.5001 397.045,-86 407.045,-89.5001 407.045,-82.5001"/>
</g>
<!-- Node5 -->
<g id="node5" class="node"><title>Node5</title>
<g id="a_node5"><a xlink:href="init_8h.html#a1a4c1bfbf6ba1db77e988b89b9cadfd3" target="_top" xlink:title="Initialize anoncoin. ">
<polygon fill="white" stroke="black" points="577,-57.5 577,-76.5 630,-76.5 630,-57.5 577,-57.5"/>
<text text-anchor="middle" x="603.5" y="-64.5" font-family="Helvetica,sans-Serif" font-size="10.00">AppInit2</text>
</a>
</g>
</g>
<!-- Node4&#45;&gt;Node5 -->
<g id="edge4" class="edge"><title>Node4&#45;&gt;Node5</title>
<path fill="none" stroke="midnightblue" d="M550.602,-75.6119C559.833,-74.0801 568.876,-72.5794 576.762,-71.271"/>
<polygon fill="midnightblue" stroke="midnightblue" points="549.851,-72.1886 540.558,-77.2785 550.996,-79.0942 549.851,-72.1886"/>
</g>
<!-- Node6 -->
<g id="node6" class="node"><title>Node6</title>
<g id="a_node6"><a xlink:href="anoncoind_8cpp.html#ac59316b767e6984e1285f0531275286b" target="_top" xlink:title="AppInit">
<polygon fill="white" stroke="black" points="702,-76.5 702,-95.5 750,-95.5 750,-76.5 702,-76.5"/>
<text text-anchor="middle" x="726" y="-83.5" font-family="Helvetica,sans-Serif" font-size="10.00">AppInit</text>
</a>
</g>
</g>
<!-- Node5&#45;&gt;Node6 -->
<g id="edge5" class="edge"><title>Node5&#45;&gt;Node6</title>
<path fill="none" stroke="midnightblue" d="M640.05,-72.6053C660.041,-75.7576 684.421,-79.6017 701.927,-82.3619"/>
<polygon fill="midnightblue" stroke="midnightblue" points="640.478,-69.1297 630.055,-71.0294 639.388,-76.0443 640.478,-69.1297"/>
</g>
<!-- Node8 -->
<g id="node8" class="node"><title>Node8</title>
<g id="a_node8"><a xlink:href="class_anoncoin_coin.html#a9510881824d283404ac43414dbb74586" target="_top" xlink:title="AnoncoinCoin::initialize">
<polygon fill="white" stroke="black" points="666,-38.5 666,-57.5 786,-57.5 786,-38.5 666,-38.5"/>
<text text-anchor="middle" x="726" y="-45.5" font-family="Helvetica,sans-Serif" font-size="10.00">AnoncoinCoin::initialize</text>
</a>
</g>
</g>
<!-- Node5&#45;&gt;Node8 -->
<g id="edge7" class="edge"><title>Node5&#45;&gt;Node8</title>
<path fill="none" stroke="midnightblue" d="M640.186,-61.3732C648.249,-60.1018 657.021,-58.7186 665.765,-57.34"/>
<polygon fill="midnightblue" stroke="midnightblue" points="639.388,-57.9557 630.055,-62.9706 640.478,-64.8703 639.388,-57.9557"/>
</g>
<!-- Node7 -->
<g id="node7" class="node"><title>Node7</title>
<g id="a_node7"><a xlink:href="anoncoind_8cpp.html#a0ddf1224851353fc92bfbff6f499fa97" target="_top" xlink:title="main">
<polygon fill="white" stroke="black" points="822,-76.5 822,-95.5 860,-95.5 860,-76.5 822,-76.5"/>
<text text-anchor="middle" x="841" y="-83.5" font-family="Helvetica,sans-Serif" font-size="10.00">main</text>
</a>
</g>
</g>
<!-- Node6&#45;&gt;Node7 -->
<g id="edge6" class="edge"><title>Node6&#45;&gt;Node7</title>
<path fill="none" stroke="midnightblue" d="M760.146,-86C780.247,-86 805.134,-86 821.731,-86"/>
<polygon fill="midnightblue" stroke="midnightblue" points="760.14,-82.5001 750.14,-86 760.14,-89.5001 760.14,-82.5001"/>
</g>
<!-- Node9&#45;&gt;Node5 -->
<g id="edge9" class="edge"><title>Node9&#45;&gt;Node5</title>
<path fill="none" stroke="midnightblue" d="M401.042,-52.5559C457.367,-56.5942 536.739,-62.2851 576.973,-65.1698"/>
<polygon fill="midnightblue" stroke="midnightblue" points="401.033,-49.0463 390.808,-51.8221 400.532,-56.0284 401.033,-49.0463"/>
</g>
<!-- Node10 -->
<g id="node10" class="node"><title>Node10</title>
<g id="a_node10"><a xlink:href="class_c_wallet_d_b.html#a44388f1c3ee63191dcb78b1001e9390c" target="_top" xlink:title="CWalletDB::Recover">
<polygon fill="white" stroke="black" points="433,-0.5 433,-19.5 541,-19.5 541,-0.5 433,-0.5"/>
<text text-anchor="middle" x="487" y="-7.5" font-family="Helvetica,sans-Serif" font-size="10.00">CWalletDB::Recover</text>
</a>
</g>
</g>
<!-- Node9&#45;&gt;Node10 -->
<g id="edge10" class="edge"><title>Node9&#45;&gt;Node10</title>
<path fill="none" stroke="midnightblue" d="M384.833,-35.8879C405.515,-30.5956 429.419,-24.4787 448.797,-19.5201"/>
<polygon fill="midnightblue" stroke="midnightblue" points="383.793,-32.5411 374.973,-38.411 385.528,-39.3226 383.793,-32.5411"/>
</g>
</g>
</svg>
