<?xml version="1.0" encoding="UTF-8" standalone="no"?>
<!DOCTYPE svg PUBLIC "-//W3C//DTD SVG 1.1//EN"
 "http://www.w3.org/Graphics/SVG/1.1/DTD/svg11.dtd">
<!-- Generated by graphviz version 2.38.0 (20140413.2041)
 -->
<!-- Title: PeerTableModel::refresh Pages: 1 -->
<svg width="1408pt" height="218pt"
 viewBox="0.00 0.00 1408.00 218.00" xmlns="http://www.w3.org/2000/svg" xmlns:xlink="http://www.w3.org/1999/xlink">
<g id="graph0" class="graph" transform="scale(1 1) rotate(0) translate(4 214)">
<title>PeerTableModel::refresh</title>
<polygon fill="white" stroke="none" points="-4,4 -4,-214 1404,-214 1404,4 -4,4"/>
<!-- Node1 -->
<g id="node1" class="node"><title>Node1</title>
<polygon fill="#bfbfbf" stroke="black" points="0,-133.5 0,-152.5 127,-152.5 127,-133.5 0,-133.5"/>
<text text-anchor="middle" x="63.5" y="-140.5" font-family="Helvetica,sans-Serif" font-size="10.00">PeerTableModel::refresh</text>
</g>
<!-- Node2 -->
<g id="node2" class="node"><title>Node2</title>
<g id="a_node2"><a xlink:href="class_peer_table_priv.html#a304d99874f6cd0c67ed207546a5ca904" target="_top" xlink:title="Pull a full list of peers from vNodes into our cache. ">
<polygon fill="white" stroke="black" points="163,-133.5 163,-152.5 306,-152.5 306,-133.5 163,-133.5"/>
<text text-anchor="middle" x="234.5" y="-140.5" font-family="Helvetica,sans-Serif" font-size="10.00">PeerTablePriv::refreshPeers</text>
</a>
</g>
</g>
<!-- Node1&#45;&gt;Node2 -->
<g id="edge1" class="edge"><title>Node1&#45;&gt;Node2</title>
<path fill="none" stroke="midnightblue" d="M127.429,-143C135.636,-143 144.133,-143 152.582,-143"/>
<polygon fill="midnightblue" stroke="midnightblue" points="152.842,-146.5 162.842,-143 152.842,-139.5 152.842,-146.5"/>
</g>
<!-- Node3 -->
<g id="node3" class="node"><title>Node3</title>
<g id="a_node3"><a xlink:href="class_c_node.html#aaa77188d9df85b80e3f8a30292acf6a9" target="_top" xlink:title="CNode::copyStats">
<polygon fill="white" stroke="black" points="345,-152.5 345,-171.5 442,-171.5 442,-152.5 345,-152.5"/>
<text text-anchor="middle" x="393.5" y="-159.5" font-family="Helvetica,sans-Serif" font-size="10.00">CNode::copyStats</text>
</a>
</g>
</g>
<!-- Node2&#45;&gt;Node3 -->
<g id="edge2" class="edge"><title>Node2&#45;&gt;Node3</title>
<path fill="none" stroke="midnightblue" d="M306.192,-151.555C315.654,-152.7 325.268,-153.864 334.478,-154.978"/>
<polygon fill="midnightblue" stroke="midnightblue" points="334.327,-158.485 344.675,-156.212 335.168,-151.536 334.327,-158.485"/>
</g>
<!-- Node20 -->
<g id="node20" class="node"><title>Node20</title>
<g id="a_node20"><a xlink:href="main_8cpp.html#af0793c7c14e94d2d642f4ac89067a429" target="_top" xlink:title="Get statistics from node state. ">
<polygon fill="white" stroke="black" points="342,-114.5 342,-133.5 445,-133.5 445,-114.5 342,-114.5"/>
<text text-anchor="middle" x="393.5" y="-121.5" font-family="Helvetica,sans-Serif" font-size="10.00">GetNodeStateStats</text>
</a>
</g>
</g>
<!-- Node2&#45;&gt;Node20 -->
<g id="edge21" class="edge"><title>Node2&#45;&gt;Node20</title>
<path fill="none" stroke="midnightblue" d="M306.192,-134.445C314.756,-133.409 323.445,-132.357 331.846,-131.34"/>
<polygon fill="midnightblue" stroke="midnightblue" points="332.416,-134.797 341.923,-130.121 331.575,-127.848 332.416,-134.797"/>
</g>
<!-- Node4 -->
<g id="node4" class="node"><title>Node4</title>
<g id="a_node4"><a xlink:href="util_8h.html#a0c5a06b50cd805b1923552114494c029" target="_top" xlink:title="GetTimeMicros">
<polygon fill="white" stroke="black" points="489,-190.5 489,-209.5 573,-209.5 573,-190.5 489,-190.5"/>
<text text-anchor="middle" x="531" y="-197.5" font-family="Helvetica,sans-Serif" font-size="10.00">GetTimeMicros</text>
</a>
</g>
</g>
<!-- Node3&#45;&gt;Node4 -->
<g id="edge3" class="edge"><title>Node3&#45;&gt;Node4</title>
<path fill="none" stroke="midnightblue" d="M428.692,-171.589C446.104,-176.472 467.471,-182.464 486.087,-187.685"/>
<polygon fill="midnightblue" stroke="midnightblue" points="485.245,-191.084 495.819,-190.414 487.135,-184.344 485.245,-191.084"/>
</g>
<!-- Node5 -->
<g id="node5" class="node"><title>Node5</title>
<g id="a_node5"><a xlink:href="class_c_net_addr.html#a52a1b506f07e5450057e12a8b5a7fbcd" target="_top" xlink:title="CNetAddr::IsValid">
<polygon fill="white" stroke="black" points="483,-152.5 483,-171.5 579,-171.5 579,-152.5 483,-152.5"/>
<text text-anchor="middle" x="531" y="-159.5" font-family="Helvetica,sans-Serif" font-size="10.00">CNetAddr::IsValid</text>
</a>
</g>
</g>
<!-- Node3&#45;&gt;Node5 -->
<g id="edge4" class="edge"><title>Node3&#45;&gt;Node5</title>
<path fill="none" stroke="midnightblue" d="M442.272,-162C451.999,-162 462.329,-162 472.357,-162"/>
<polygon fill="midnightblue" stroke="midnightblue" points="472.659,-165.5 482.659,-162 472.659,-158.5 472.659,-165.5"/>
</g>
<!-- Node6 -->
<g id="node6" class="node"><title>Node6</title>
<g id="a_node6"><a xlink:href="class_c_service.html#a336f9848fe9364e260c76499be0351a5" target="_top" xlink:title="CService::ToString">
<polygon fill="white" stroke="black" points="481,-114.5 481,-133.5 581,-133.5 581,-114.5 481,-114.5"/>
<text text-anchor="middle" x="531" y="-121.5" font-family="Helvetica,sans-Serif" font-size="10.00">CService::ToString</text>
</a>
</g>
</g>
<!-- Node3&#45;&gt;Node6 -->
<g id="edge5" class="edge"><title>Node3&#45;&gt;Node6</title>
<path fill="none" stroke="midnightblue" d="M428.692,-152.411C446.104,-147.528 467.471,-141.536 486.087,-136.315"/>
<polygon fill="midnightblue" stroke="midnightblue" points="487.135,-139.656 495.819,-133.586 485.245,-132.916 487.135,-139.656"/>
</g>
<!-- Node7 -->
<g id="node7" class="node"><title>Node7</title>
<g id="a_node7"><a xlink:href="class_c_service.html#a39b82301356b0dfc2a92befc727b77be" target="_top" xlink:title="CService::ToStringIPPort">
<polygon fill="white" stroke="black" points="617,-114.5 617,-133.5 745,-133.5 745,-114.5 617,-114.5"/>
<text text-anchor="middle" x="681" y="-121.5" font-family="Helvetica,sans-Serif" font-size="10.00">CService::ToStringIPPort</text>
</a>
</g>
</g>
<!-- Node6&#45;&gt;Node7 -->
<g id="edge6" class="edge"><title>Node6&#45;&gt;Node7</title>
<path fill="none" stroke="midnightblue" d="M581.282,-124C589.502,-124 598.181,-124 606.845,-124"/>
<polygon fill="midnightblue" stroke="midnightblue" points="606.98,-127.5 616.98,-124 606.98,-120.5 606.98,-127.5"/>
</g>
<!-- Node8 -->
<g id="node8" class="node"><title>Node8</title>
<g id="a_node8"><a xlink:href="util_8cpp.html#a24f685720bf40370e5bd2a192ad50cd8" target="_top" xlink:title="Return string argument or default value. ">
<polygon fill="white" stroke="black" points="816.5,-190.5 816.5,-209.5 864.5,-209.5 864.5,-190.5 816.5,-190.5"/>
<text text-anchor="middle" x="840.5" y="-197.5" font-family="Helvetica,sans-Serif" font-size="10.00">GetArg</text>
</a>
</g>
</g>
<!-- Node7&#45;&gt;Node8 -->
<g id="edge7" class="edge"><title>Node7&#45;&gt;Node8</title>
<path fill="none" stroke="midnightblue" d="M696.584,-133.696C715.458,-145.933 749.646,-167.065 781,-181 789.136,-184.616 798.177,-187.892 806.672,-190.666"/>
<polygon fill="midnightblue" stroke="midnightblue" points="805.716,-194.034 816.305,-193.682 807.807,-187.354 805.716,-194.034"/>
</g>
<!-- Node9 -->
<g id="node9" class="node"><title>Node9</title>
<g id="a_node9"><a xlink:href="class_c_service.html#a1e0f0b98239a9097044695a9e439bb46" target="_top" xlink:title="CService::ToStringPort">
<polygon fill="white" stroke="black" points="781,-152.5 781,-171.5 900,-171.5 900,-152.5 781,-152.5"/>
<text text-anchor="middle" x="840.5" y="-159.5" font-family="Helvetica,sans-Serif" font-size="10.00">CService::ToStringPort</text>
</a>
</g>
</g>
<!-- Node7&#45;&gt;Node9 -->
<g id="edge8" class="edge"><title>Node7&#45;&gt;Node9</title>
<path fill="none" stroke="midnightblue" d="M721.744,-133.589C742.528,-138.604 768.161,-144.788 790.199,-150.105"/>
<polygon fill="midnightblue" stroke="midnightblue" points="789.5,-153.537 800.042,-152.48 791.142,-146.732 789.5,-153.537"/>
</g>
<!-- Node10 -->
<g id="node10" class="node"><title>Node10</title>
<g id="a_node10"><a xlink:href="class_c_net_addr.html#a16ff4478f02f06f5a9a038a24d5da2f9" target="_top" xlink:title="CNetAddr::IsIPv4">
<polygon fill="white" stroke="black" points="1105.5,-114.5 1105.5,-133.5 1199.5,-133.5 1199.5,-114.5 1105.5,-114.5"/>
<text text-anchor="middle" x="1152.5" y="-121.5" font-family="Helvetica,sans-Serif" font-size="10.00">CNetAddr::IsIPv4</text>
</a>
</g>
</g>
<!-- Node7&#45;&gt;Node10 -->
<g id="edge9" class="edge"><title>Node7&#45;&gt;Node10</title>
<path fill="none" stroke="midnightblue" d="M745.319,-124C837.533,-124 1007.35,-124 1095.34,-124"/>
<polygon fill="midnightblue" stroke="midnightblue" points="1095.4,-127.5 1105.4,-124 1095.4,-120.5 1095.4,-127.5"/>
</g>
<!-- Node11 -->
<g id="node11" class="node"><title>Node11</title>
<g id="a_node11"><a xlink:href="class_c_net_addr.html#a3fba9e0b18f531c0ed15794a30e8165d" target="_top" xlink:title="CNetAddr::IsTor">
<polygon fill="white" stroke="black" points="796,-76.5 796,-95.5 885,-95.5 885,-76.5 796,-76.5"/>
<text text-anchor="middle" x="840.5" y="-83.5" font-family="Helvetica,sans-Serif" font-size="10.00">CNetAddr::IsTor</text>
</a>
</g>
</g>
<!-- Node7&#45;&gt;Node11 -->
<g id="edge10" class="edge"><title>Node7&#45;&gt;Node11</title>
<path fill="none" stroke="midnightblue" d="M721.744,-114.411C742.528,-109.396 768.161,-103.212 790.199,-97.8947"/>
<polygon fill="midnightblue" stroke="midnightblue" points="791.142,-101.268 800.042,-95.5201 789.5,-94.4632 791.142,-101.268"/>
</g>
<!-- Node12 -->
<g id="node12" class="node"><title>Node12</title>
<g id="a_node12"><a xlink:href="class_c_net_addr.html#a7ec845c27b63853fb0db08a4d154266f" target="_top" xlink:title="CNetAddr::ToStringIP">
<polygon fill="white" stroke="black" points="784,-38.5 784,-57.5 897,-57.5 897,-38.5 784,-38.5"/>
<text text-anchor="middle" x="840.5" y="-45.5" font-family="Helvetica,sans-Serif" font-size="10.00">CNetAddr::ToStringIP</text>
</a>
</g>
</g>
<!-- Node7&#45;&gt;Node12 -->
<g id="edge11" class="edge"><title>Node7&#45;&gt;Node12</title>
<path fill="none" stroke="midnightblue" d="M696.584,-114.304C715.458,-102.067 749.646,-80.9348 781,-67 785.817,-64.8593 790.951,-62.8378 796.1,-60.9691"/>
<polygon fill="midnightblue" stroke="midnightblue" points="797.633,-64.1429 805.944,-57.5725 795.35,-57.5257 797.633,-64.1429"/>
</g>
<!-- Node13 -->
<g id="node13" class="node"><title>Node13</title>
<g id="a_node13"><a xlink:href="util_8cpp.html#a71aa75e646de8a10971f887bc71d9a75" target="_top" xlink:title="EncodeBase32">
<polygon fill="white" stroke="black" points="955,-76.5 955,-95.5 1039,-95.5 1039,-76.5 955,-76.5"/>
<text text-anchor="middle" x="997" y="-83.5" font-family="Helvetica,sans-Serif" font-size="10.00">EncodeBase32</text>
</a>
</g>
</g>
<!-- Node12&#45;&gt;Node13 -->
<g id="edge12" class="edge"><title>Node12&#45;&gt;Node13</title>
<path fill="none" stroke="midnightblue" d="M880.487,-57.589C900.783,-62.5809 925.793,-68.7324 947.346,-74.0334"/>
<polygon fill="midnightblue" stroke="midnightblue" points="946.747,-77.4902 957.293,-76.4799 948.419,-70.6928 946.747,-77.4902"/>
</g>
<!-- Node14 -->
<g id="node14" class="node"><title>Node14</title>
<g id="a_node14"><a xlink:href="class_c_service.html#ab0f791c174511056236119cc1580faeb" target="_top" xlink:title="CService::GetSockAddr">
<polygon fill="white" stroke="black" points="936,-38.5 936,-57.5 1058,-57.5 1058,-38.5 936,-38.5"/>
<text text-anchor="middle" x="997" y="-45.5" font-family="Helvetica,sans-Serif" font-size="10.00">CService::GetSockAddr</text>
</a>
</g>
</g>
<!-- Node12&#45;&gt;Node14 -->
<g id="edge13" class="edge"><title>Node12&#45;&gt;Node14</title>
<path fill="none" stroke="midnightblue" d="M897.278,-48C906.482,-48 916.128,-48 925.633,-48"/>
<polygon fill="midnightblue" stroke="midnightblue" points="925.865,-51.5001 935.865,-48 925.865,-44.5001 925.865,-51.5001"/>
</g>
<!-- Node14&#45;&gt;Node10 -->
<g id="edge14" class="edge"><title>Node14&#45;&gt;Node10</title>
<path fill="none" stroke="midnightblue" d="M1037.99,-57.5369C1044.94,-60.0551 1051.89,-63.1721 1058,-67 1077.72,-79.3488 1074.36,-92.5285 1094,-105 1097.16,-107.006 1100.55,-108.822 1104.05,-110.461"/>
<polygon fill="midnightblue" stroke="midnightblue" points="1102.9,-113.774 1113.48,-114.398 1105.6,-107.314 1102.9,-113.774"/>
</g>
<!-- Node15 -->
<g id="node15" class="node"><title>Node15</title>
<g id="a_node15"><a xlink:href="class_c_net_addr.html#aa2e2c78db01a6a27d6a2740f2ba43e90" target="_top" xlink:title="CNetAddr::GetInAddr">
<polygon fill="white" stroke="black" points="1096.5,-76.5 1096.5,-95.5 1208.5,-95.5 1208.5,-76.5 1096.5,-76.5"/>
<text text-anchor="middle" x="1152.5" y="-83.5" font-family="Helvetica,sans-Serif" font-size="10.00">CNetAddr::GetInAddr</text>
</a>
</g>
</g>
<!-- Node14&#45;&gt;Node15 -->
<g id="edge15" class="edge"><title>Node14&#45;&gt;Node15</title>
<path fill="none" stroke="midnightblue" d="M1036.73,-57.589C1056.9,-62.5809 1081.75,-68.7324 1103.16,-74.0334"/>
<polygon fill="midnightblue" stroke="midnightblue" points="1102.5,-77.4743 1113.04,-76.4799 1104.18,-70.6794 1102.5,-77.4743"/>
</g>
<!-- Node18 -->
<g id="node18" class="node"><title>Node18</title>
<g id="a_node18"><a xlink:href="class_c_net_addr.html#a0edb022cd6a186de8099799415409d57" target="_top" xlink:title="CNetAddr::IsIPv6">
<polygon fill="white" stroke="black" points="1105.5,-38.5 1105.5,-57.5 1199.5,-57.5 1199.5,-38.5 1105.5,-38.5"/>
<text text-anchor="middle" x="1152.5" y="-45.5" font-family="Helvetica,sans-Serif" font-size="10.00">CNetAddr::IsIPv6</text>
</a>
</g>
</g>
<!-- Node14&#45;&gt;Node18 -->
<g id="edge18" class="edge"><title>Node14&#45;&gt;Node18</title>
<path fill="none" stroke="midnightblue" d="M1058.23,-48C1070.31,-48 1082.97,-48 1094.92,-48"/>
<polygon fill="midnightblue" stroke="midnightblue" points="1095.21,-51.5001 1105.21,-48 1095.21,-44.5001 1095.21,-51.5001"/>
</g>
<!-- Node19 -->
<g id="node19" class="node"><title>Node19</title>
<g id="a_node19"><a xlink:href="class_c_net_addr.html#add7811be50f5fe60c4fa65b461dea98c" target="_top" xlink:title="CNetAddr::GetIn6Addr">
<polygon fill="white" stroke="black" points="1094,-0.5 1094,-19.5 1211,-19.5 1211,-0.5 1094,-0.5"/>
<text text-anchor="middle" x="1152.5" y="-7.5" font-family="Helvetica,sans-Serif" font-size="10.00">CNetAddr::GetIn6Addr</text>
</a>
</g>
</g>
<!-- Node14&#45;&gt;Node19 -->
<g id="edge19" class="edge"><title>Node14&#45;&gt;Node19</title>
<path fill="none" stroke="midnightblue" d="M1036.73,-38.411C1056.9,-33.4191 1081.75,-27.2676 1103.16,-21.9666"/>
<polygon fill="midnightblue" stroke="midnightblue" points="1104.18,-25.3206 1113.04,-19.5201 1102.5,-18.5257 1104.18,-25.3206"/>
</g>
<!-- Node16 -->
<g id="node16" class="node"><title>Node16</title>
<g id="a_node16"><a xlink:href="glibc__compat_8cpp.html#a0f46826ab0466591e136db24394923cf" target="_top" xlink:title="memcpy">
<polygon fill="white" stroke="black" points="1247,-38.5 1247,-57.5 1301,-57.5 1301,-38.5 1247,-38.5"/>
<text text-anchor="middle" x="1274" y="-45.5" font-family="Helvetica,sans-Serif" font-size="10.00">memcpy</text>
</a>
</g>
</g>
<!-- Node15&#45;&gt;Node16 -->
<g id="edge16" class="edge"><title>Node15&#45;&gt;Node16</title>
<path fill="none" stroke="midnightblue" d="M1183.65,-76.411C1199.95,-71.228 1220.18,-64.795 1237.27,-59.3617"/>
<polygon fill="midnightblue" stroke="midnightblue" points="1238.44,-62.6611 1246.91,-56.2952 1236.32,-55.9903 1238.44,-62.6611"/>
</g>
<!-- Node17 -->
<g id="node17" class="node"><title>Node17</title>
<g id="a_node17"><a xlink:href="glibc__compat_8cpp.html#a9778d49e9029dd75bc53ecbbf9f5e9a1" target="_top" xlink:title="memmove">
<polygon fill="white" stroke="black" points="1337,-38.5 1337,-57.5 1400,-57.5 1400,-38.5 1337,-38.5"/>
<text text-anchor="middle" x="1368.5" y="-45.5" font-family="Helvetica,sans-Serif" font-size="10.00">memmove</text>
</a>
</g>
</g>
<!-- Node16&#45;&gt;Node17 -->
<g id="edge17" class="edge"><title>Node16&#45;&gt;Node17</title>
<path fill="none" stroke="midnightblue" d="M1301.26,-48C1309.24,-48 1318.21,-48 1326.91,-48"/>
<polygon fill="midnightblue" stroke="midnightblue" points="1326.92,-51.5001 1336.92,-48 1326.92,-44.5001 1326.92,-51.5001"/>
</g>
<!-- Node19&#45;&gt;Node16 -->
<g id="edge20" class="edge"><title>Node19&#45;&gt;Node16</title>
<path fill="none" stroke="midnightblue" d="M1183.65,-19.589C1199.95,-24.772 1220.18,-31.205 1237.27,-36.6383"/>
<polygon fill="midnightblue" stroke="midnightblue" points="1236.32,-40.0097 1246.91,-39.7048 1238.44,-33.3389 1236.32,-40.0097"/>
</g>
</g>
</svg>
