<?xml version="1.0" encoding="UTF-8" standalone="no"?>
<!DOCTYPE svg PUBLIC "-//W3C//DTD SVG 1.1//EN"
 "http://www.w3.org/Graphics/SVG/1.1/DTD/svg11.dtd">
<!-- Generated by graphviz version 2.38.0 (20140413.2041)
 -->
<!-- Title: CAnoncoinSecret::IsValid Pages: 1 -->
<svg width="492pt" height="142pt"
 viewBox="0.00 0.00 492.00 142.00" xmlns="http://www.w3.org/2000/svg" xmlns:xlink="http://www.w3.org/1999/xlink">
<g id="graph0" class="graph" transform="scale(1 1) rotate(0) translate(4 138)">
<title>CAnoncoinSecret::IsValid</title>
<polygon fill="white" stroke="none" points="-4,4 -4,-138 488,-138 488,4 -4,4"/>
<!-- Node1 -->
<g id="node1" class="node"><title>Node1</title>
<polygon fill="#bfbfbf" stroke="black" points="0,-57.5 0,-76.5 130,-76.5 130,-57.5 0,-57.5"/>
<text text-anchor="middle" x="65" y="-64.5" font-family="Helvetica,sans-Serif" font-size="10.00">CAnoncoinSecret::IsValid</text>
</g>
<!-- Node2 -->
<g id="node2" class="node"><title>Node2</title>
<g id="a_node2"><a xlink:href="class_c_anoncoin_secret.html#ab4f90b6c75c03136d82261688007a634" target="_top" xlink:title="CAnoncoinSecret::SetString">
<polygon fill="white" stroke="black" points="166,-57.5 166,-76.5 307,-76.5 307,-57.5 166,-57.5"/>
<text text-anchor="middle" x="236.5" y="-64.5" font-family="Helvetica,sans-Serif" font-size="10.00">CAnoncoinSecret::SetString</text>
</a>
</g>
</g>
<!-- Node1&#45;&gt;Node2 -->
<g id="edge1" class="edge"><title>Node1&#45;&gt;Node2</title>
<path fill="none" stroke="midnightblue" d="M140.36,-67C148.864,-67 157.51,-67 165.948,-67"/>
<polygon fill="midnightblue" stroke="midnightblue" points="140.081,-63.5001 130.081,-67 140.081,-70.5001 140.081,-63.5001"/>
</g>
<!-- Node3 -->
<g id="node3" class="node"><title>Node3</title>
<g id="a_node3"><a xlink:href="class_c_anoncoin_secret.html#a6d2ed0374974412bdf0016e6063d0328" target="_top" xlink:title="CAnoncoinSecret::SetString">
<polygon fill="white" stroke="black" points="343,-114.5 343,-133.5 484,-133.5 484,-114.5 343,-114.5"/>
<text text-anchor="middle" x="413.5" y="-121.5" font-family="Helvetica,sans-Serif" font-size="10.00">CAnoncoinSecret::SetString</text>
</a>
</g>
</g>
<!-- Node2&#45;&gt;Node3 -->
<g id="edge2" class="edge"><title>Node2&#45;&gt;Node3</title>
<path fill="none" stroke="midnightblue" d="M271.998,-80.2031C292.492,-87.8517 319.073,-97.4331 343,-105 353.495,-108.319 364.988,-111.601 375.551,-114.48"/>
<polygon fill="midnightblue" stroke="midnightblue" points="273.056,-76.8619 262.464,-76.621 270.594,-83.4146 273.056,-76.8619"/>
</g>
<!-- Node4 -->
<g id="node4" class="node"><title>Node4</title>
<g id="a_node4"><a xlink:href="rpcdump_8cpp.html#a3a6fdb974fce01220a895393d444e981" target="_top" xlink:title="importprivkey">
<polygon fill="white" stroke="black" points="375.5,-76.5 375.5,-95.5 451.5,-95.5 451.5,-76.5 375.5,-76.5"/>
<text text-anchor="middle" x="413.5" y="-83.5" font-family="Helvetica,sans-Serif" font-size="10.00">importprivkey</text>
</a>
</g>
</g>
<!-- Node2&#45;&gt;Node4 -->
<g id="edge3" class="edge"><title>Node2&#45;&gt;Node4</title>
<path fill="none" stroke="midnightblue" d="M317.341,-75.6684C337.546,-77.8622 358.301,-80.1155 375.25,-81.9557"/>
<polygon fill="midnightblue" stroke="midnightblue" points="317.487,-72.1638 307.167,-74.5639 316.731,-79.1229 317.487,-72.1638"/>
</g>
<!-- Node5 -->
<g id="node5" class="node"><title>Node5</title>
<g id="a_node5"><a xlink:href="rpcdump_8cpp.html#a2566d5c9dd1938b74e70398cdb3ac5c1" target="_top" xlink:title="importwallet">
<polygon fill="white" stroke="black" points="378.5,-38.5 378.5,-57.5 448.5,-57.5 448.5,-38.5 378.5,-38.5"/>
<text text-anchor="middle" x="413.5" y="-45.5" font-family="Helvetica,sans-Serif" font-size="10.00">importwallet</text>
</a>
</g>
</g>
<!-- Node2&#45;&gt;Node5 -->
<g id="edge4" class="edge"><title>Node2&#45;&gt;Node5</title>
<path fill="none" stroke="midnightblue" d="M317.263,-58.34C338.655,-56.0175 360.668,-53.6275 378.134,-51.7311"/>
<polygon fill="midnightblue" stroke="midnightblue" points="316.731,-54.8771 307.167,-59.4361 317.487,-61.8362 316.731,-54.8771"/>
</g>
<!-- Node6 -->
<g id="node6" class="node"><title>Node6</title>
<g id="a_node6"><a xlink:href="rpcrawtransaction_8cpp.html#aa0d151e35c0ad5ec82df451a833aeadb" target="_top" xlink:title="signrawtransaction">
<polygon fill="white" stroke="black" points="363.5,-0.5 363.5,-19.5 463.5,-19.5 463.5,-0.5 363.5,-0.5"/>
<text text-anchor="middle" x="413.5" y="-7.5" font-family="Helvetica,sans-Serif" font-size="10.00">signrawtransaction</text>
</a>
</g>
</g>
<!-- Node2&#45;&gt;Node6 -->
<g id="edge5" class="edge"><title>Node2&#45;&gt;Node6</title>
<path fill="none" stroke="midnightblue" d="M271.998,-53.7969C292.492,-46.1483 319.073,-36.5669 343,-29 353.495,-25.6809 364.988,-22.3986 375.551,-19.5199"/>
<polygon fill="midnightblue" stroke="midnightblue" points="270.594,-50.5854 262.464,-57.379 273.056,-57.1381 270.594,-50.5854"/>
</g>
</g>
</svg>
