<?xml version="1.0" encoding="UTF-8" standalone="no"?>
<!DOCTYPE svg PUBLIC "-//W3C//DTD SVG 1.1//EN"
 "http://www.w3.org/Graphics/SVG/1.1/DTD/svg11.dtd">
<!-- Generated by graphviz version 2.38.0 (20140413.2041)
 -->
<!-- Title: libzerocoin::PublicCoin::getValue Pages: 1 -->
<svg width="448pt" height="88pt"
 viewBox="0.00 0.00 448.00 88.00" xmlns="http://www.w3.org/2000/svg" xmlns:xlink="http://www.w3.org/1999/xlink">
<g id="graph0" class="graph" transform="scale(1 1) rotate(0) translate(4 84)">
<title>libzerocoin::PublicCoin::getValue</title>
<polygon fill="white" stroke="none" points="-4,4 -4,-84 444,-84 444,4 -4,4"/>
<!-- Node1 -->
<g id="node1" class="node"><title>Node1</title>
<polygon fill="#bfbfbf" stroke="black" points="0,-24.5 0,-54.5 118,-54.5 118,-24.5 0,-24.5"/>
<text text-anchor="start" x="8" y="-42.5" font-family="Helvetica,sans-Serif" font-size="10.00">libzerocoin::PublicCoin</text>
<text text-anchor="middle" x="59" y="-31.5" font-family="Helvetica,sans-Serif" font-size="10.00">::getValue</text>
</g>
<!-- Node2 -->
<g id="node2" class="node"><title>Node2</title>
<g id="a_node2"><a xlink:href="classlibzerocoin_1_1_accumulator.html#aa58ff4676bd84dea150ae40abd489024" target="_top" xlink:title="Accumulate a coin into the accumulator. ">
<polygon fill="white" stroke="black" points="154,-49.5 154,-79.5 279,-79.5 279,-49.5 154,-49.5"/>
<text text-anchor="start" x="162" y="-67.5" font-family="Helvetica,sans-Serif" font-size="10.00">libzerocoin::Accumulator</text>
<text text-anchor="middle" x="216.5" y="-56.5" font-family="Helvetica,sans-Serif" font-size="10.00">::accumulate</text>
</a>
</g>
</g>
<!-- Node1&#45;&gt;Node2 -->
<g id="edge1" class="edge"><title>Node1&#45;&gt;Node2</title>
<path fill="none" stroke="midnightblue" d="M128.283,-50.478C136.831,-51.8522 145.534,-53.2514 153.97,-54.6077"/>
<polygon fill="midnightblue" stroke="midnightblue" points="128.774,-47.012 118.345,-48.8802 127.662,-53.9232 128.774,-47.012"/>
</g>
<!-- Node4 -->
<g id="node4" class="node"><title>Node4</title>
<g id="a_node4"><a xlink:href="classlibzerocoin_1_1_coin_spend.html#af1cb3e584e21c86129fd28bebca472a7" target="_top" xlink:title="Generates a proof spending a zerocoin. ">
<polygon fill="white" stroke="black" points="157,-0.5 157,-30.5 276,-30.5 276,-0.5 157,-0.5"/>
<text text-anchor="start" x="165" y="-18.5" font-family="Helvetica,sans-Serif" font-size="10.00">libzerocoin::CoinSpend</text>
<text text-anchor="middle" x="216.5" y="-7.5" font-family="Helvetica,sans-Serif" font-size="10.00">::CoinSpend</text>
</a>
</g>
</g>
<!-- Node1&#45;&gt;Node4 -->
<g id="edge3" class="edge"><title>Node1&#45;&gt;Node4</title>
<path fill="none" stroke="midnightblue" d="M128.498,-28.928C137.946,-27.4698 147.579,-25.983 156.828,-24.5555"/>
<polygon fill="midnightblue" stroke="midnightblue" points="127.694,-25.5105 118.345,-30.495 128.762,-32.4286 127.694,-25.5105"/>
</g>
<!-- Node3 -->
<g id="node3" class="node"><title>Node3</title>
<g id="a_node3"><a xlink:href="classlibzerocoin_1_1_accumulator.html#a03bec513778240e9ddfcd2103524fd33" target="_top" xlink:title="Used to set the accumulator value. ">
<polygon fill="white" stroke="black" points="315,-49.5 315,-79.5 440,-79.5 440,-49.5 315,-49.5"/>
<text text-anchor="start" x="323" y="-67.5" font-family="Helvetica,sans-Serif" font-size="10.00">libzerocoin::Accumulator</text>
<text text-anchor="middle" x="377.5" y="-56.5" font-family="Helvetica,sans-Serif" font-size="10.00">::operator+=</text>
</a>
</g>
</g>
<!-- Node2&#45;&gt;Node3 -->
<g id="edge2" class="edge"><title>Node2&#45;&gt;Node3</title>
<path fill="none" stroke="midnightblue" d="M289.592,-64.5C297.99,-64.5 306.499,-64.5 314.74,-64.5"/>
<polygon fill="midnightblue" stroke="midnightblue" points="289.429,-61.0001 279.429,-64.5 289.429,-68.0001 289.429,-61.0001"/>
</g>
</g>
</svg>
