<?xml version="1.0" encoding="UTF-8" standalone="no"?>
<!DOCTYPE svg PUBLIC "-//W3C//DTD SVG 1.1//EN"
 "http://www.w3.org/Graphics/SVG/1.1/DTD/svg11.dtd">
<!-- Generated by graphviz version 2.38.0 (20140413.2041)
 -->
<!-- Title: CLevelDBWrapper::NewIterator Pages: 1 -->
<svg width="381pt" height="66pt"
 viewBox="0.00 0.00 381.00 66.00" xmlns="http://www.w3.org/2000/svg" xmlns:xlink="http://www.w3.org/1999/xlink">
<g id="graph0" class="graph" transform="scale(1 1) rotate(0) translate(4 62)">
<title>CLevelDBWrapper::NewIterator</title>
<polygon fill="white" stroke="none" points="-4,4 -4,-62 377,-62 377,4 -4,4"/>
<!-- Node1 -->
<g id="node1" class="node"><title>Node1</title>
<polygon fill="#bfbfbf" stroke="black" points="0,-19.5 0,-38.5 157,-38.5 157,-19.5 0,-19.5"/>
<text text-anchor="middle" x="78.5" y="-26.5" font-family="Helvetica,sans-Serif" font-size="10.00">CLevelDBWrapper::NewIterator</text>
</g>
<!-- Node2 -->
<g id="node2" class="node"><title>Node2</title>
<g id="a_node2"><a xlink:href="class_c_coins_view_d_b.html#abf52d3ea526344e4b4ba9e4c08e60178" target="_top" xlink:title="CCoinsViewDB::GetStats">
<polygon fill="white" stroke="black" points="218.5,-38.5 218.5,-57.5 347.5,-57.5 347.5,-38.5 218.5,-38.5"/>
<text text-anchor="middle" x="283" y="-45.5" font-family="Helvetica,sans-Serif" font-size="10.00">CCoinsViewDB::GetStats</text>
</a>
</g>
</g>
<!-- Node1&#45;&gt;Node2 -->
<g id="edge1" class="edge"><title>Node1&#45;&gt;Node2</title>
<path fill="none" stroke="midnightblue" d="M167.24,-37.2324C184.401,-38.8425 202.089,-40.5021 218.284,-42.0217"/>
<polygon fill="midnightblue" stroke="midnightblue" points="167.496,-33.7411 157.213,-36.2916 166.842,-40.7105 167.496,-33.7411"/>
</g>
<!-- Node3 -->
<g id="node3" class="node"><title>Node3</title>
<g id="a_node3"><a xlink:href="class_c_block_tree_d_b.html#a12be19bb1d7253eeb40e1aa88b032346" target="_top" xlink:title="CBlockTreeDB::LoadBlockIndexGuts">
<polygon fill="white" stroke="black" points="193,-0.5 193,-19.5 373,-19.5 373,-0.5 193,-0.5"/>
<text text-anchor="middle" x="283" y="-7.5" font-family="Helvetica,sans-Serif" font-size="10.00">CBlockTreeDB::LoadBlockIndexGuts</text>
</a>
</g>
</g>
<!-- Node1&#45;&gt;Node3 -->
<g id="edge2" class="edge"><title>Node1&#45;&gt;Node3</title>
<path fill="none" stroke="midnightblue" d="M167.365,-20.7559C175.752,-19.9689 184.264,-19.1703 192.665,-18.3821"/>
<polygon fill="midnightblue" stroke="midnightblue" points="166.842,-17.2895 157.213,-21.7084 167.496,-24.2589 166.842,-17.2895"/>
</g>
</g>
</svg>
