<?xml version="1.0" encoding="UTF-8" standalone="no"?>
<!DOCTYPE svg PUBLIC "-//W3C//DTD SVG 1.1//EN"
 "http://www.w3.org/Graphics/SVG/1.1/DTD/svg11.dtd">
<!-- Generated by graphviz version 2.38.0 (20140413.2041)
 -->
<!-- Title: AnoncoinUnits::parse Pages: 1 -->
<svg width="946pt" height="262pt"
 viewBox="0.00 0.00 946.00 261.50" xmlns="http://www.w3.org/2000/svg" xmlns:xlink="http://www.w3.org/1999/xlink">
<g id="graph0" class="graph" transform="scale(1 1) rotate(0) translate(4 257.5)">
<title>AnoncoinUnits::parse</title>
<polygon fill="white" stroke="none" points="-4,4 -4,-257.5 942,-257.5 942,4 -4,4"/>
<!-- Node1 -->
<g id="node1" class="node"><title>Node1</title>
<polygon fill="#bfbfbf" stroke="black" points="0,-136.5 0,-155.5 112,-155.5 112,-136.5 0,-136.5"/>
<text text-anchor="middle" x="56" y="-143.5" font-family="Helvetica,sans-Serif" font-size="10.00">AnoncoinUnits::parse</text>
</g>
<!-- Node2 -->
<g id="node2" class="node"><title>Node2</title>
<g id="a_node2"><a xlink:href="class_anoncoin_amount_field.html#ae0766727d1352a21980231772200c0ad" target="_top" xlink:title="Perform input validation, mark field as invalid if entered value is not valid. ">
<polygon fill="white" stroke="black" points="160,-212 160,-242 274,-242 274,-212 160,-212"/>
<text text-anchor="start" x="168" y="-230" font-family="Helvetica,sans-Serif" font-size="10.00">AnoncoinAmountField</text>
<text text-anchor="middle" x="217" y="-219" font-family="Helvetica,sans-Serif" font-size="10.00">::validate</text>
</a>
</g>
</g>
<!-- Node1&#45;&gt;Node2 -->
<g id="edge1" class="edge"><title>Node1&#45;&gt;Node2</title>
<path fill="none" stroke="midnightblue" d="M84.8683,-160.197C113.306,-174.684 157.276,-197.084 186.344,-211.892"/>
<polygon fill="midnightblue" stroke="midnightblue" points="86.3629,-157.031 75.8638,-155.61 83.1854,-163.268 86.3629,-157.031"/>
</g>
<!-- Node5 -->
<g id="node5" class="node"><title>Node5</title>
<g id="a_node5"><a xlink:href="class_anoncoin_amount_field.html#a90dac4b003496dcb510858d50e29ec90" target="_top" xlink:title="AnoncoinAmountField\l::value">
<polygon fill="white" stroke="black" points="160,-153 160,-183 274,-183 274,-153 160,-153"/>
<text text-anchor="start" x="168" y="-171" font-family="Helvetica,sans-Serif" font-size="10.00">AnoncoinAmountField</text>
<text text-anchor="middle" x="217" y="-160" font-family="Helvetica,sans-Serif" font-size="10.00">::value</text>
</a>
</g>
</g>
<!-- Node1&#45;&gt;Node5 -->
<g id="edge4" class="edge"><title>Node1&#45;&gt;Node5</title>
<path fill="none" stroke="midnightblue" d="M122.083,-155.005C134.613,-156.739 147.638,-158.541 159.855,-160.232"/>
<polygon fill="midnightblue" stroke="midnightblue" points="122.55,-151.536 112.164,-153.633 121.59,-158.47 122.55,-151.536"/>
</g>
<!-- Node6 -->
<g id="node6" class="node"><title>Node6</title>
<g id="a_node6"><a xlink:href="namespace_g_u_i_util.html#a80503cefefdc17af8e975682342066c4" target="_top" xlink:title="GUIUtil::parseAnoncoinURI">
<polygon fill="white" stroke="black" points="148,-114.5 148,-133.5 286,-133.5 286,-114.5 148,-114.5"/>
<text text-anchor="middle" x="217" y="-121.5" font-family="Helvetica,sans-Serif" font-size="10.00">GUIUtil::parseAnoncoinURI</text>
</a>
</g>
</g>
<!-- Node1&#45;&gt;Node6 -->
<g id="edge5" class="edge"><title>Node1&#45;&gt;Node6</title>
<path fill="none" stroke="midnightblue" d="M122.282,-136.967C130.687,-135.804 139.311,-134.611 147.762,-133.442"/>
<polygon fill="midnightblue" stroke="midnightblue" points="121.59,-133.53 112.164,-138.367 122.55,-140.464 121.59,-133.53"/>
</g>
<!-- Node18 -->
<g id="node18" class="node"><title>Node18</title>
<g id="a_node18"><a xlink:href="class_transaction_view.html#a0075048c06bb54da5c5e5d2691198984" target="_top" xlink:title="TransactionView::changed\lAmount">
<polygon fill="white" stroke="black" points="150,-30 150,-60 284,-60 284,-30 150,-30"/>
<text text-anchor="start" x="158" y="-48" font-family="Helvetica,sans-Serif" font-size="10.00">TransactionView::changed</text>
<text text-anchor="middle" x="217" y="-37" font-family="Helvetica,sans-Serif" font-size="10.00">Amount</text>
</a>
</g>
</g>
<!-- Node1&#45;&gt;Node18 -->
<g id="edge17" class="edge"><title>Node1&#45;&gt;Node18</title>
<path fill="none" stroke="midnightblue" d="M80.5308,-131.053C110.541,-111.99 162.145,-79.2098 192.257,-60.0823"/>
<polygon fill="midnightblue" stroke="midnightblue" points="78.5227,-128.182 71.9583,-136.498 82.276,-134.091 78.5227,-128.182"/>
</g>
<!-- Node3 -->
<g id="node3" class="node"><title>Node3</title>
<g id="a_node3"><a xlink:href="class_send_coins_entry.html#ab77df95fe77e9a001190cd4dabe0dfec" target="_top" xlink:title="SendCoinsEntry::validate">
<polygon fill="white" stroke="black" points="355,-228.5 355,-247.5 484,-247.5 484,-228.5 355,-228.5"/>
<text text-anchor="middle" x="419.5" y="-235.5" font-family="Helvetica,sans-Serif" font-size="10.00">SendCoinsEntry::validate</text>
</a>
</g>
</g>
<!-- Node2&#45;&gt;Node3 -->
<g id="edge2" class="edge"><title>Node2&#45;&gt;Node3</title>
<path fill="none" stroke="midnightblue" d="M284.359,-230.641C307.096,-231.888 332.469,-233.28 354.976,-234.515"/>
<polygon fill="midnightblue" stroke="midnightblue" points="284.294,-227.132 274.117,-230.079 283.91,-234.121 284.294,-227.132"/>
</g>
<!-- Node4 -->
<g id="node4" class="node"><title>Node4</title>
<g id="a_node4"><a xlink:href="class_send_coins_dialog.html#a2cab7cf9ea5040b9e2189297f7d3c764" target="_top" xlink:title="SendCoinsDialog::on\l_sendButton_clicked">
<polygon fill="white" stroke="black" points="592.5,-223 592.5,-253 702.5,-253 702.5,-223 592.5,-223"/>
<text text-anchor="start" x="600.5" y="-241" font-family="Helvetica,sans-Serif" font-size="10.00">SendCoinsDialog::on</text>
<text text-anchor="middle" x="647.5" y="-230" font-family="Helvetica,sans-Serif" font-size="10.00">_sendButton_clicked</text>
</a>
</g>
</g>
<!-- Node3&#45;&gt;Node4 -->
<g id="edge3" class="edge"><title>Node3&#45;&gt;Node4</title>
<path fill="none" stroke="midnightblue" d="M494.236,-238C526.159,-238 562.856,-238 592.225,-238"/>
<polygon fill="midnightblue" stroke="midnightblue" points="494.055,-234.5 484.055,-238 494.055,-241.5 494.055,-234.5"/>
</g>
<!-- Node7 -->
<g id="node7" class="node"><title>Node7</title>
<g id="a_node7"><a xlink:href="namespace_g_u_i_util.html#a0944cc05abd2679bd41e0dee8e95377f" target="_top" xlink:title="GUIUtil::parseAnoncoinURI">
<polygon fill="white" stroke="black" points="350.5,-190.5 350.5,-209.5 488.5,-209.5 488.5,-190.5 350.5,-190.5"/>
<text text-anchor="middle" x="419.5" y="-197.5" font-family="Helvetica,sans-Serif" font-size="10.00">GUIUtil::parseAnoncoinURI</text>
</a>
</g>
</g>
<!-- Node6&#45;&gt;Node7 -->
<g id="edge6" class="edge"><title>Node6&#45;&gt;Node7</title>
<path fill="none" stroke="midnightblue" d="M274.559,-137.183C278.54,-138.898 282.398,-140.829 286,-143 305.925,-155.01 301.622,-169.777 322,-181 330.75,-185.819 340.54,-189.427 350.438,-192.127"/>
<polygon fill="midnightblue" stroke="midnightblue" points="275.701,-133.872 265.11,-133.559 273.194,-140.408 275.701,-133.872"/>
</g>
<!-- Node8 -->
<g id="node8" class="node"><title>Node8</title>
<g id="a_node8"><a xlink:href="class_open_u_r_i_dialog.html#a3c0c5b376623e9570cc17e23778c239c" target="_top" xlink:title="OpenURIDialog::accept">
<polygon fill="white" stroke="black" points="358.5,-152.5 358.5,-171.5 480.5,-171.5 480.5,-152.5 358.5,-152.5"/>
<text text-anchor="middle" x="419.5" y="-159.5" font-family="Helvetica,sans-Serif" font-size="10.00">OpenURIDialog::accept</text>
</a>
</g>
</g>
<!-- Node6&#45;&gt;Node8 -->
<g id="edge7" class="edge"><title>Node6&#45;&gt;Node8</title>
<path fill="none" stroke="midnightblue" d="M278.246,-135.418C306.934,-140.855 340.85,-147.283 368.143,-152.456"/>
<polygon fill="midnightblue" stroke="midnightblue" points="278.813,-131.963 268.336,-133.54 277.509,-138.841 278.813,-131.963"/>
</g>
<!-- Node9 -->
<g id="node9" class="node"><title>Node9</title>
<g id="a_node9"><a xlink:href="class_payment_server.html#a5ed254902d978ed1e482055754d0f4a4" target="_top" xlink:title="PaymentServer::ipcParseCommandLine">
<polygon fill="white" stroke="black" points="322,-114.5 322,-133.5 517,-133.5 517,-114.5 322,-114.5"/>
<text text-anchor="middle" x="419.5" y="-121.5" font-family="Helvetica,sans-Serif" font-size="10.00">PaymentServer::ipcParseCommandLine</text>
</a>
</g>
</g>
<!-- Node6&#45;&gt;Node9 -->
<g id="edge8" class="edge"><title>Node6&#45;&gt;Node9</title>
<path fill="none" stroke="midnightblue" d="M296.243,-124C304.611,-124 313.194,-124 321.743,-124"/>
<polygon fill="midnightblue" stroke="midnightblue" points="296.16,-120.5 286.16,-124 296.16,-127.5 296.16,-120.5"/>
</g>
<!-- Node11 -->
<g id="node11" class="node"><title>Node11</title>
<g id="a_node11"><a xlink:href="class_payment_server.html#adf4f844b3ce7f053690fd9260210640d" target="_top" xlink:title="PaymentServer::handleURIOrFile">
<polygon fill="white" stroke="black" points="337,-76.5 337,-95.5 502,-95.5 502,-76.5 337,-76.5"/>
<text text-anchor="middle" x="419.5" y="-83.5" font-family="Helvetica,sans-Serif" font-size="10.00">PaymentServer::handleURIOrFile</text>
</a>
</g>
</g>
<!-- Node6&#45;&gt;Node11 -->
<g id="edge10" class="edge"><title>Node6&#45;&gt;Node11</title>
<path fill="none" stroke="midnightblue" d="M278.246,-112.582C306.934,-107.145 340.85,-100.717 368.143,-95.5439"/>
<polygon fill="midnightblue" stroke="midnightblue" points="277.509,-109.159 268.336,-114.46 278.813,-116.037 277.509,-109.159"/>
</g>
<!-- Node17 -->
<g id="node17" class="node"><title>Node17</title>
<g id="a_node17"><a xlink:href="class_u_r_i_tests.html#a8a53ef232349a4a68182ab62dcf8cfd8" target="_top" xlink:title="URITests::uriTests">
<polygon fill="white" stroke="black" points="370,-38.5 370,-57.5 469,-57.5 469,-38.5 370,-38.5"/>
<text text-anchor="middle" x="419.5" y="-45.5" font-family="Helvetica,sans-Serif" font-size="10.00">URITests::uriTests</text>
</a>
</g>
</g>
<!-- Node6&#45;&gt;Node17 -->
<g id="edge16" class="edge"><title>Node6&#45;&gt;Node17</title>
<path fill="none" stroke="midnightblue" d="M240.728,-108.864C261.175,-95.9124 292.458,-77.7131 322,-67 337.089,-61.5282 354.108,-57.513 369.605,-54.6225"/>
<polygon fill="midnightblue" stroke="midnightblue" points="238.649,-106.039 232.141,-114.399 242.442,-111.923 238.649,-106.039"/>
</g>
<!-- Node10 -->
<g id="node10" class="node"><title>Node10</title>
<g id="a_node10"><a xlink:href="anoncoin_8cpp.html#a0ddf1224851353fc92bfbff6f499fa97" target="_top" xlink:title="main">
<polygon fill="white" stroke="black" points="628.5,-133.5 628.5,-152.5 666.5,-152.5 666.5,-133.5 628.5,-133.5"/>
<text text-anchor="middle" x="647.5" y="-140.5" font-family="Helvetica,sans-Serif" font-size="10.00">main</text>
</a>
</g>
</g>
<!-- Node9&#45;&gt;Node10 -->
<g id="edge9" class="edge"><title>Node9&#45;&gt;Node10</title>
<path fill="none" stroke="midnightblue" d="M527.695,-133.012C566.497,-136.274 606.215,-139.613 628.482,-141.485"/>
<polygon fill="midnightblue" stroke="midnightblue" points="527.586,-129.491 517.328,-132.14 526.999,-136.466 527.586,-129.491"/>
</g>
<!-- Node12 -->
<g id="node12" class="node"><title>Node12</title>
<g id="a_node12"><a xlink:href="class_payment_server.html#af795e3c318556c833792e530b279efc9" target="_top" xlink:title="PaymentServer::eventFilter">
<polygon fill="white" stroke="black" points="578.5,-95.5 578.5,-114.5 716.5,-114.5 716.5,-95.5 578.5,-95.5"/>
<text text-anchor="middle" x="647.5" y="-102.5" font-family="Helvetica,sans-Serif" font-size="10.00">PaymentServer::eventFilter</text>
</a>
</g>
</g>
<!-- Node11&#45;&gt;Node12 -->
<g id="edge11" class="edge"><title>Node11&#45;&gt;Node12</title>
<path fill="none" stroke="midnightblue" d="M512.171,-93.7069C534.311,-95.5682 557.585,-97.5249 578.424,-99.2768"/>
<polygon fill="midnightblue" stroke="midnightblue" points="512.349,-90.2096 502.091,-92.8594 511.763,-97.185 512.349,-90.2096"/>
</g>
<!-- Node13 -->
<g id="node13" class="node"><title>Node13</title>
<g id="a_node13"><a xlink:href="class_payment_server.html#abb6c65fabbf97ba95381997ca9cd6993" target="_top" xlink:title="PaymentServer::uiReady">
<polygon fill="white" stroke="black" points="583.5,-57.5 583.5,-76.5 711.5,-76.5 711.5,-57.5 583.5,-57.5"/>
<text text-anchor="middle" x="647.5" y="-64.5" font-family="Helvetica,sans-Serif" font-size="10.00">PaymentServer::uiReady</text>
</a>
</g>
</g>
<!-- Node11&#45;&gt;Node13 -->
<g id="edge12" class="edge"><title>Node11&#45;&gt;Node13</title>
<path fill="none" stroke="midnightblue" d="M512.25,-78.2865C536.172,-76.2754 561.412,-74.1534 583.471,-72.2989"/>
<polygon fill="midnightblue" stroke="midnightblue" points="511.763,-74.815 502.091,-79.1406 512.349,-81.7904 511.763,-74.815"/>
</g>
<!-- Node15 -->
<g id="node15" class="node"><title>Node15</title>
<g id="a_node15"><a xlink:href="class_payment_server.html#a6ee6e29e1255605582459463d195a651" target="_top" xlink:title="PaymentServer::handleURIConnection">
<polygon fill="white" stroke="black" points="553,-16.5 553,-35.5 742,-35.5 742,-16.5 553,-16.5"/>
<text text-anchor="middle" x="647.5" y="-23.5" font-family="Helvetica,sans-Serif" font-size="10.00">PaymentServer::handleURIConnection</text>
</a>
</g>
</g>
<!-- Node11&#45;&gt;Node15 -->
<g id="edge14" class="edge"><title>Node11&#45;&gt;Node15</title>
<path fill="none" stroke="midnightblue" d="M492.981,-74.1195C501.177,-72.0733 509.332,-69.7125 517,-67 534.056,-60.9664 536.058,-54.3454 553,-48 566.43,-42.97 581.389,-38.8367 595.333,-35.5654"/>
<polygon fill="midnightblue" stroke="midnightblue" points="491.931,-70.7709 482.994,-76.4619 493.529,-77.5859 491.931,-70.7709"/>
</g>
<!-- Node14 -->
<g id="node14" class="node"><title>Node14</title>
<g id="a_node14"><a xlink:href="class_payment_server_tests.html#a82c8a7437bfc26c28619b954a5ee8cad" target="_top" xlink:title="PaymentServerTests\l::paymentServerTests">
<polygon fill="white" stroke="black" points="801,-54 801,-84 915,-84 915,-54 801,-54"/>
<text text-anchor="start" x="809" y="-72" font-family="Helvetica,sans-Serif" font-size="10.00">PaymentServerTests</text>
<text text-anchor="middle" x="858" y="-61" font-family="Helvetica,sans-Serif" font-size="10.00">::paymentServerTests</text>
</a>
</g>
</g>
<!-- Node13&#45;&gt;Node14 -->
<g id="edge13" class="edge"><title>Node13&#45;&gt;Node14</title>
<path fill="none" stroke="midnightblue" d="M721.792,-67.703C747.745,-67.952 776.513,-68.2279 800.818,-68.4611"/>
<polygon fill="midnightblue" stroke="midnightblue" points="721.656,-64.2017 711.623,-67.6055 721.589,-71.2013 721.656,-64.2017"/>
</g>
<!-- Node16 -->
<g id="node16" class="node"><title>Node16</title>
<g id="a_node16"><a xlink:href="class_payment_server.html#a4a66f55c11f4757b121179d5d6988ab2" target="_top" xlink:title="PaymentServer::PaymentServer">
<polygon fill="white" stroke="black" points="778,-15.5 778,-34.5 938,-34.5 938,-15.5 778,-15.5"/>
<text text-anchor="middle" x="858" y="-22.5" font-family="Helvetica,sans-Serif" font-size="10.00">PaymentServer::PaymentServer</text>
</a>
</g>
</g>
<!-- Node15&#45;&gt;Node16 -->
<g id="edge15" class="edge"><title>Node15&#45;&gt;Node16</title>
<path fill="none" stroke="midnightblue" d="M752.155,-25.5029C760.754,-25.4616 769.359,-25.4203 777.735,-25.3802"/>
<polygon fill="midnightblue" stroke="midnightblue" points="752.06,-22.0032 742.077,-25.5512 752.094,-29.0031 752.06,-22.0032"/>
</g>
<!-- Node19 -->
<g id="node19" class="node"><title>Node19</title>
<g id="a_node19"><a xlink:href="class_transaction_view.html#a0c5e8b90206b4e8b8bf68dd7e319798f" target="_top" xlink:title="TransactionView::TransactionView">
<polygon fill="white" stroke="black" points="334.5,-0.5 334.5,-19.5 504.5,-19.5 504.5,-0.5 334.5,-0.5"/>
<text text-anchor="middle" x="419.5" y="-7.5" font-family="Helvetica,sans-Serif" font-size="10.00">TransactionView::TransactionView</text>
</a>
</g>
</g>
<!-- Node18&#45;&gt;Node19 -->
<g id="edge18" class="edge"><title>Node18&#45;&gt;Node19</title>
<path fill="none" stroke="midnightblue" d="M294.062,-31.7224C317.359,-27.6556 342.509,-23.2652 364.061,-19.5031"/>
<polygon fill="midnightblue" stroke="midnightblue" points="293.456,-28.2751 284.207,-33.4427 294.66,-35.1708 293.456,-28.2751"/>
</g>
</g>
</svg>
