<?xml version="1.0" encoding="UTF-8" standalone="no"?>
<!DOCTYPE svg PUBLIC "-//W3C//DTD SVG 1.1//EN"
 "http://www.w3.org/Graphics/SVG/1.1/DTD/svg11.dtd">
<!-- Generated by graphviz version 2.38.0 (20140413.2041)
 -->
<!-- Title: WalletView::incomingTransaction Pages: 1 -->
<svg width="726pt" height="66pt"
 viewBox="0.00 0.00 726.00 66.00" xmlns="http://www.w3.org/2000/svg" xmlns:xlink="http://www.w3.org/1999/xlink">
<g id="graph0" class="graph" transform="scale(1 1) rotate(0) translate(4 62)">
<title>WalletView::incomingTransaction</title>
<polygon fill="white" stroke="none" points="-4,4 -4,-62 722,-62 722,4 -4,4"/>
<!-- Node1 -->
<g id="node1" class="node"><title>Node1</title>
<polygon fill="#bfbfbf" stroke="black" points="0,-19.5 0,-38.5 164,-38.5 164,-19.5 0,-19.5"/>
<text text-anchor="middle" x="82" y="-26.5" font-family="Helvetica,sans-Serif" font-size="10.00">WalletView::incomingTransaction</text>
</g>
<!-- Node2 -->
<g id="node2" class="node"><title>Node2</title>
<g id="a_node2"><a xlink:href="class_wallet_view.html#a99d6a88bea0aef8db23e249c7ffb24d0" target="_top" xlink:title="WalletView::setAnoncoinGUI">
<polygon fill="white" stroke="black" points="415,-38.5 415,-57.5 559,-57.5 559,-38.5 415,-38.5"/>
<text text-anchor="middle" x="487" y="-45.5" font-family="Helvetica,sans-Serif" font-size="10.00">WalletView::setAnoncoinGUI</text>
</a>
</g>
</g>
<!-- Node1&#45;&gt;Node2 -->
<g id="edge1" class="edge"><title>Node1&#45;&gt;Node2</title>
<path fill="none" stroke="midnightblue" d="M174.163,-33.298C247.057,-36.7347 347.804,-41.4846 414.839,-44.645"/>
<polygon fill="midnightblue" stroke="midnightblue" points="174.222,-29.797 164.068,-32.8221 173.892,-36.7892 174.222,-29.797"/>
</g>
<!-- Node4 -->
<g id="node4" class="node"><title>Node4</title>
<g id="a_node4"><a xlink:href="class_wallet_view.html#addde7d2260658ee06f47f9c095a8cb2a" target="_top" xlink:title="Show incoming transaction notification for new transactions. ">
<polygon fill="white" stroke="black" points="200,-0.5 200,-19.5 379,-19.5 379,-0.5 200,-0.5"/>
<text text-anchor="middle" x="289.5" y="-7.5" font-family="Helvetica,sans-Serif" font-size="10.00">WalletView::processNewTransaction</text>
</a>
</g>
</g>
<!-- Node1&#45;&gt;Node4 -->
<g id="edge3" class="edge"><title>Node1&#45;&gt;Node4</title>
<path fill="none" stroke="midnightblue" d="M174.419,-20.5476C182.835,-19.7695 191.354,-18.9818 199.747,-18.2059"/>
<polygon fill="midnightblue" stroke="midnightblue" points="173.854,-17.0848 164.219,-21.4907 174.499,-24.0551 173.854,-17.0848"/>
</g>
<!-- Node3 -->
<g id="node3" class="node"><title>Node3</title>
<g id="a_node3"><a xlink:href="class_wallet_frame.html#aa199c3f27654199d84c365cf86167d86" target="_top" xlink:title="WalletFrame::addWallet">
<polygon fill="white" stroke="black" points="595,-19.5 595,-38.5 718,-38.5 718,-19.5 595,-19.5"/>
<text text-anchor="middle" x="656.5" y="-26.5" font-family="Helvetica,sans-Serif" font-size="10.00">WalletFrame::addWallet</text>
</a>
</g>
</g>
<!-- Node2&#45;&gt;Node3 -->
<g id="edge2" class="edge"><title>Node2&#45;&gt;Node3</title>
<path fill="none" stroke="midnightblue" d="M569.178,-38.7918C577.851,-37.8079 586.562,-36.8199 594.936,-35.8699"/>
<polygon fill="midnightblue" stroke="midnightblue" points="568.577,-35.3374 559.035,-39.9423 569.366,-42.2928 568.577,-35.3374"/>
</g>
<!-- Node5 -->
<g id="node5" class="node"><title>Node5</title>
<g id="a_node5"><a xlink:href="class_wallet_view.html#a0a37ff693a4f9c1e5ddc23f9cd3913be" target="_top" xlink:title="Set the wallet model. ">
<polygon fill="white" stroke="black" points="417,-0.5 417,-19.5 557,-19.5 557,-0.5 417,-0.5"/>
<text text-anchor="middle" x="487" y="-7.5" font-family="Helvetica,sans-Serif" font-size="10.00">WalletView::setWalletModel</text>
</a>
</g>
</g>
<!-- Node4&#45;&gt;Node5 -->
<g id="edge4" class="edge"><title>Node4&#45;&gt;Node5</title>
<path fill="none" stroke="midnightblue" d="M389.189,-10C398.499,-10 407.798,-10 416.747,-10"/>
<polygon fill="midnightblue" stroke="midnightblue" points="389.098,-6.5001 379.098,-10 389.098,-13.5001 389.098,-6.5001"/>
</g>
<!-- Node5&#45;&gt;Node3 -->
<g id="edge5" class="edge"><title>Node5&#45;&gt;Node3</title>
<path fill="none" stroke="midnightblue" d="M567.151,-18.9783C576.466,-20.0349 585.856,-21.1001 594.86,-22.1215"/>
<polygon fill="midnightblue" stroke="midnightblue" points="567.427,-15.4872 557.096,-17.8377 566.637,-22.4426 567.427,-15.4872"/>
</g>
</g>
</svg>
