<?xml version="1.0" encoding="UTF-8" standalone="no"?>
<!DOCTYPE svg PUBLIC "-//W3C//DTD SVG 1.1//EN"
 "http://www.w3.org/Graphics/SVG/1.1/DTD/svg11.dtd">
<!-- Generated by graphviz version 2.38.0 (20140413.2041)
 -->
<!-- Title: CWalletTx::IsTrusted Pages: 1 -->
<svg width="552pt" height="132pt"
 viewBox="0.00 0.00 552.00 132.00" xmlns="http://www.w3.org/2000/svg" xmlns:xlink="http://www.w3.org/1999/xlink">
<g id="graph0" class="graph" transform="scale(1 1) rotate(0) translate(4 128)">
<title>CWalletTx::IsTrusted</title>
<polygon fill="white" stroke="none" points="-4,4 -4,-128 548,-128 548,4 -4,4"/>
<!-- Node1 -->
<g id="node1" class="node"><title>Node1</title>
<polygon fill="#bfbfbf" stroke="black" points="0,-38.5 0,-57.5 110,-57.5 110,-38.5 0,-38.5"/>
<text text-anchor="middle" x="55" y="-45.5" font-family="Helvetica,sans-Serif" font-size="10.00">CWalletTx::IsTrusted</text>
</g>
<!-- Node2 -->
<g id="node2" class="node"><title>Node2</title>
<g id="a_node2"><a xlink:href="main_8cpp.html#adc332cd7ac94e639bb4239618341be19" target="_top" xlink:title="IsFinalTx">
<polygon fill="white" stroke="black" points="173.5,-76.5 173.5,-95.5 230.5,-95.5 230.5,-76.5 173.5,-76.5"/>
<text text-anchor="middle" x="202" y="-83.5" font-family="Helvetica,sans-Serif" font-size="10.00">IsFinalTx</text>
</a>
</g>
</g>
<!-- Node1&#45;&gt;Node2 -->
<g id="edge1" class="edge"><title>Node1&#45;&gt;Node2</title>
<path fill="none" stroke="midnightblue" d="M92.5896,-57.589C114.173,-63.2453 141.436,-70.3902 163.223,-76.0998"/>
<polygon fill="midnightblue" stroke="midnightblue" points="162.557,-79.5434 173.118,-78.6929 164.332,-72.7721 162.557,-79.5434"/>
</g>
<!-- Node7 -->
<g id="node7" class="node"><title>Node7</title>
<g id="a_node7"><a xlink:href="class_c_wallet.html#abdffee587c00bc1ebea53ea26f3efa61" target="_top" xlink:title="CWallet::GetWalletTx">
<polygon fill="white" stroke="black" points="146,-38.5 146,-57.5 258,-57.5 258,-38.5 146,-38.5"/>
<text text-anchor="middle" x="202" y="-45.5" font-family="Helvetica,sans-Serif" font-size="10.00">CWallet::GetWalletTx</text>
</a>
</g>
</g>
<!-- Node1&#45;&gt;Node7 -->
<g id="edge6" class="edge"><title>Node1&#45;&gt;Node7</title>
<path fill="none" stroke="midnightblue" d="M110.405,-48C118.632,-48 127.191,-48 135.62,-48"/>
<polygon fill="midnightblue" stroke="midnightblue" points="135.807,-51.5001 145.807,-48 135.807,-44.5001 135.807,-51.5001"/>
</g>
<!-- Node8 -->
<g id="node8" class="node"><title>Node8</title>
<g id="a_node8"><a xlink:href="class_c_wallet.html#ab7cc8fd8859fecc6ed768dacb5642c5e" target="_top" xlink:title="CWallet::IsMine">
<polygon fill="white" stroke="black" points="158.5,-0.5 158.5,-19.5 245.5,-19.5 245.5,-0.5 158.5,-0.5"/>
<text text-anchor="middle" x="202" y="-7.5" font-family="Helvetica,sans-Serif" font-size="10.00">CWallet::IsMine</text>
</a>
</g>
</g>
<!-- Node1&#45;&gt;Node8 -->
<g id="edge7" class="edge"><title>Node1&#45;&gt;Node8</title>
<path fill="none" stroke="midnightblue" d="M92.5896,-38.411C111.465,-33.4642 134.686,-27.3789 154.788,-22.1108"/>
<polygon fill="midnightblue" stroke="midnightblue" points="155.887,-25.4409 164.673,-19.5201 154.113,-18.6695 155.887,-25.4409"/>
</g>
<!-- Node3 -->
<g id="node3" class="node"><title>Node3</title>
<g id="a_node3"><a xlink:href="class_c_chain.html#a0c4ffb8501acfb8a7e1c0f5e6322ada3" target="_top" xlink:title="Return the maximal height in the chain. ">
<polygon fill="white" stroke="black" points="299,-104.5 299,-123.5 383,-123.5 383,-104.5 299,-104.5"/>
<text text-anchor="middle" x="341" y="-111.5" font-family="Helvetica,sans-Serif" font-size="10.00">CChain::Height</text>
</a>
</g>
</g>
<!-- Node2&#45;&gt;Node3 -->
<g id="edge2" class="edge"><title>Node2&#45;&gt;Node3</title>
<path fill="none" stroke="midnightblue" d="M230.724,-91.6662C247.369,-95.0682 269.065,-99.5024 288.734,-103.522"/>
<polygon fill="midnightblue" stroke="midnightblue" points="288.298,-107.006 298.797,-105.579 289.7,-100.147 288.298,-107.006"/>
</g>
<!-- Node4 -->
<g id="node4" class="node"><title>Node4</title>
<g id="a_node4"><a xlink:href="util_8cpp.html#a09f81b9c7650f898cf3cf305b87547e6" target="_top" xlink:title="GetAdjustedTime">
<polygon fill="white" stroke="black" points="294,-66.5 294,-85.5 388,-85.5 388,-66.5 294,-66.5"/>
<text text-anchor="middle" x="341" y="-73.5" font-family="Helvetica,sans-Serif" font-size="10.00">GetAdjustedTime</text>
</a>
</g>
</g>
<!-- Node2&#45;&gt;Node4 -->
<g id="edge3" class="edge"><title>Node2&#45;&gt;Node4</title>
<path fill="none" stroke="midnightblue" d="M230.724,-83.9764C246.029,-82.8592 265.604,-81.4303 283.947,-80.0914"/>
<polygon fill="midnightblue" stroke="midnightblue" points="284.257,-83.5782 293.976,-79.3594 283.748,-76.5968 284.257,-83.5782"/>
</g>
<!-- Node5 -->
<g id="node5" class="node"><title>Node5</title>
<g id="a_node5"><a xlink:href="util_8cpp.html#a46fac5fba8ba905b5f9acb364f5d8c6f" target="_top" xlink:title="GetTime">
<polygon fill="white" stroke="black" points="456.5,-90.5 456.5,-109.5 511.5,-109.5 511.5,-90.5 456.5,-90.5"/>
<text text-anchor="middle" x="484" y="-97.5" font-family="Helvetica,sans-Serif" font-size="10.00">GetTime</text>
</a>
</g>
</g>
<!-- Node4&#45;&gt;Node5 -->
<g id="edge4" class="edge"><title>Node4&#45;&gt;Node5</title>
<path fill="none" stroke="midnightblue" d="M388.169,-83.8585C407.102,-87.0812 428.703,-90.758 446.503,-93.7877"/>
<polygon fill="midnightblue" stroke="midnightblue" points="446.049,-97.2607 456.495,-95.4884 447.224,-90.36 446.049,-97.2607"/>
</g>
<!-- Node6 -->
<g id="node6" class="node"><title>Node6</title>
<g id="a_node6"><a xlink:href="util_8cpp.html#a50ca5344c75631267633f15cfe5e983e" target="_top" xlink:title="GetTimeOffset">
<polygon fill="white" stroke="black" points="443,-52.5 443,-71.5 525,-71.5 525,-52.5 443,-52.5"/>
<text text-anchor="middle" x="484" y="-59.5" font-family="Helvetica,sans-Serif" font-size="10.00">GetTimeOffset</text>
</a>
</g>
</g>
<!-- Node4&#45;&gt;Node6 -->
<g id="edge5" class="edge"><title>Node4&#45;&gt;Node6</title>
<path fill="none" stroke="midnightblue" d="M388.169,-71.4159C402.387,-70.0041 418.11,-68.4429 432.598,-67.0044"/>
<polygon fill="midnightblue" stroke="midnightblue" points="433.285,-70.4536 442.89,-65.9826 432.593,-63.4878 433.285,-70.4536"/>
</g>
<!-- Node9 -->
<g id="node9" class="node"><title>Node9</title>
<g id="a_node9"><a xlink:href="script_8cpp.html#adc59cf67d903c1ba1ef225561b85bfce" target="_top" xlink:title="IsMine">
<polygon fill="white" stroke="black" points="318,-0.5 318,-19.5 364,-19.5 364,-0.5 318,-0.5"/>
<text text-anchor="middle" x="341" y="-7.5" font-family="Helvetica,sans-Serif" font-size="10.00">IsMine</text>
</a>
</g>
</g>
<!-- Node8&#45;&gt;Node9 -->
<g id="edge8" class="edge"><title>Node8&#45;&gt;Node9</title>
<path fill="none" stroke="midnightblue" d="M245.597,-10C265.651,-10 289.179,-10 307.73,-10"/>
<polygon fill="midnightblue" stroke="midnightblue" points="307.741,-13.5001 317.741,-10 307.741,-6.5001 307.741,-13.5001"/>
</g>
<!-- Node9&#45;&gt;Node9 -->
<g id="edge10" class="edge"><title>Node9&#45;&gt;Node9</title>
<path fill="none" stroke="midnightblue" d="M319.73,-19.7571C309.383,-28.5653 316.473,-38 341,-38 356.713,-38 365.269,-34.128 366.67,-29.0292"/>
<polygon fill="midnightblue" stroke="midnightblue" points="369.719,-27.2911 362.27,-19.7571 363.395,-30.292 369.719,-27.2911"/>
</g>
<!-- Node10 -->
<g id="node10" class="node"><title>Node10</title>
<g id="a_node10"><a xlink:href="class_c_script.html#ad1b5a9077241aa06116040c4f1b7c31e" target="_top" xlink:title="CScript::SetDestination">
<polygon fill="white" stroke="black" points="424,-0.5 424,-19.5 544,-19.5 544,-0.5 424,-0.5"/>
<text text-anchor="middle" x="484" y="-7.5" font-family="Helvetica,sans-Serif" font-size="10.00">CScript::SetDestination</text>
</a>
</g>
</g>
<!-- Node9&#45;&gt;Node10 -->
<g id="edge9" class="edge"><title>Node9&#45;&gt;Node10</title>
<path fill="none" stroke="midnightblue" d="M364.031,-10C377.496,-10 395.534,-10 413.485,-10"/>
<polygon fill="midnightblue" stroke="midnightblue" points="413.714,-13.5001 423.714,-10 413.714,-6.5001 413.714,-13.5001"/>
</g>
</g>
</svg>
