<?xml version="1.0" encoding="UTF-8" standalone="no"?>
<!DOCTYPE svg PUBLIC "-//W3C//DTD SVG 1.1//EN"
 "http://www.w3.org/Graphics/SVG/1.1/DTD/svg11.dtd">
<!-- Generated by graphviz version 2.38.0 (20140413.2041)
 -->
<!-- Title: payments::PaymentDetails::operator= Pages: 1 -->
<svg width="656pt" height="235pt"
 viewBox="0.00 0.00 656.00 235.00" xmlns="http://www.w3.org/2000/svg" xmlns:xlink="http://www.w3.org/1999/xlink">
<g id="graph0" class="graph" transform="scale(1 1) rotate(0) translate(4 231)">
<title>payments::PaymentDetails::operator=</title>
<polygon fill="white" stroke="none" points="-4,4 -4,-231 652,-231 652,4 -4,4"/>
<!-- Node1 -->
<g id="node1" class="node"><title>Node1</title>
<polygon fill="#bfbfbf" stroke="black" points="0,-73.5 0,-103.5 135,-103.5 135,-73.5 0,-73.5"/>
<text text-anchor="start" x="8" y="-91.5" font-family="Helvetica,sans-Serif" font-size="10.00">payments::PaymentDetails</text>
<text text-anchor="middle" x="67.5" y="-80.5" font-family="Helvetica,sans-Serif" font-size="10.00">::operator=</text>
</g>
<!-- Node2 -->
<g id="node2" class="node"><title>Node2</title>
<g id="a_node2"><a xlink:href="classpayments_1_1_payment_details.html#a5f4260c7fd163e421fe34ca6db8a4fea" target="_top" xlink:title="payments::PaymentDetails\l::CopyFrom">
<polygon fill="white" stroke="black" points="171,-73.5 171,-103.5 306,-103.5 306,-73.5 171,-73.5"/>
<text text-anchor="start" x="179" y="-91.5" font-family="Helvetica,sans-Serif" font-size="10.00">payments::PaymentDetails</text>
<text text-anchor="middle" x="238.5" y="-80.5" font-family="Helvetica,sans-Serif" font-size="10.00">::CopyFrom</text>
</a>
</g>
</g>
<!-- Node1&#45;&gt;Node2 -->
<g id="edge1" class="edge"><title>Node1&#45;&gt;Node2</title>
<path fill="none" stroke="midnightblue" d="M135.293,-88.5C143.624,-88.5 152.194,-88.5 160.661,-88.5"/>
<polygon fill="midnightblue" stroke="midnightblue" points="160.915,-92.0001 170.915,-88.5 160.915,-85.0001 160.915,-92.0001"/>
</g>
<!-- Node3 -->
<g id="node3" class="node"><title>Node3</title>
<g id="a_node3"><a xlink:href="classpayments_1_1_payment_details.html#ab13e5d93ed8610ff6625bb01bc9ba6bd" target="_top" xlink:title="payments::PaymentDetails\l::Clear">
<polygon fill="white" stroke="black" points="342,-98.5 342,-128.5 477,-128.5 477,-98.5 342,-98.5"/>
<text text-anchor="start" x="350" y="-116.5" font-family="Helvetica,sans-Serif" font-size="10.00">payments::PaymentDetails</text>
<text text-anchor="middle" x="409.5" y="-105.5" font-family="Helvetica,sans-Serif" font-size="10.00">::Clear</text>
</a>
</g>
</g>
<!-- Node2&#45;&gt;Node3 -->
<g id="edge2" class="edge"><title>Node2&#45;&gt;Node3</title>
<path fill="none" stroke="midnightblue" d="M306.293,-98.3807C314.715,-99.6265 323.383,-100.909 331.941,-102.175"/>
<polygon fill="midnightblue" stroke="midnightblue" points="331.511,-105.649 341.915,-103.65 332.535,-98.7244 331.511,-105.649"/>
</g>
<!-- Node9 -->
<g id="node9" class="node"><title>Node9</title>
<g id="a_node9"><a xlink:href="classpayments_1_1_payment_details.html#a8d815cbdd5fdc9f248743960a89c1915" target="_top" xlink:title="payments::PaymentDetails\l::MergeFrom">
<polygon fill="white" stroke="black" points="342,-49.5 342,-79.5 477,-79.5 477,-49.5 342,-49.5"/>
<text text-anchor="start" x="350" y="-67.5" font-family="Helvetica,sans-Serif" font-size="10.00">payments::PaymentDetails</text>
<text text-anchor="middle" x="409.5" y="-56.5" font-family="Helvetica,sans-Serif" font-size="10.00">::MergeFrom</text>
</a>
</g>
</g>
<!-- Node2&#45;&gt;Node9 -->
<g id="edge8" class="edge"><title>Node2&#45;&gt;Node9</title>
<path fill="none" stroke="midnightblue" d="M306.293,-79.0146C314.715,-77.8186 323.383,-76.5877 331.941,-75.3723"/>
<polygon fill="midnightblue" stroke="midnightblue" points="332.507,-78.8272 341.915,-73.9558 331.522,-71.8967 332.507,-78.8272"/>
</g>
<!-- Node4 -->
<g id="node4" class="node"><title>Node4</title>
<g id="a_node4"><a xlink:href="classpayments_1_1_payment_details.html#a37753487290845bfa96db5d9a1b682e4" target="_top" xlink:title="payments::PaymentDetails\l::has_network">
<polygon fill="white" stroke="black" points="513,-196.5 513,-226.5 648,-226.5 648,-196.5 513,-196.5"/>
<text text-anchor="start" x="521" y="-214.5" font-family="Helvetica,sans-Serif" font-size="10.00">payments::PaymentDetails</text>
<text text-anchor="middle" x="580.5" y="-203.5" font-family="Helvetica,sans-Serif" font-size="10.00">::has_network</text>
</a>
</g>
</g>
<!-- Node3&#45;&gt;Node4 -->
<g id="edge3" class="edge"><title>Node3&#45;&gt;Node4</title>
<path fill="none" stroke="midnightblue" d="M428.367,-128.79C448.056,-145.05 481.17,-170.692 513,-187.5 516.287,-189.235 519.726,-190.896 523.237,-192.476"/>
<polygon fill="midnightblue" stroke="midnightblue" points="522.064,-195.78 532.637,-196.462 524.797,-189.336 522.064,-195.78"/>
</g>
<!-- Node5 -->
<g id="node5" class="node"><title>Node5</title>
<g id="a_node5"><a xlink:href="classpayments_1_1_payment_details.html#a5761b562e4f230a0c6970d572049c2a7" target="_top" xlink:title="payments::PaymentDetails\l::has_memo">
<polygon fill="white" stroke="black" points="513,-147.5 513,-177.5 648,-177.5 648,-147.5 513,-147.5"/>
<text text-anchor="start" x="521" y="-165.5" font-family="Helvetica,sans-Serif" font-size="10.00">payments::PaymentDetails</text>
<text text-anchor="middle" x="580.5" y="-154.5" font-family="Helvetica,sans-Serif" font-size="10.00">::has_memo</text>
</a>
</g>
</g>
<!-- Node3&#45;&gt;Node5 -->
<g id="edge4" class="edge"><title>Node3&#45;&gt;Node5</title>
<path fill="none" stroke="midnightblue" d="M462.585,-128.601C480.095,-133.679 499.795,-139.39 517.962,-144.658"/>
<polygon fill="midnightblue" stroke="midnightblue" points="517.008,-148.025 527.587,-147.448 518.958,-141.302 517.008,-148.025"/>
</g>
<!-- Node6 -->
<g id="node6" class="node"><title>Node6</title>
<g id="a_node6"><a xlink:href="classpayments_1_1_payment_details.html#a3ae4b2d07c7e300ff7df1fba6861d17e" target="_top" xlink:title="payments::PaymentDetails\l::has_payment_url">
<polygon fill="white" stroke="black" points="513,-98.5 513,-128.5 648,-128.5 648,-98.5 513,-98.5"/>
<text text-anchor="start" x="521" y="-116.5" font-family="Helvetica,sans-Serif" font-size="10.00">payments::PaymentDetails</text>
<text text-anchor="middle" x="580.5" y="-105.5" font-family="Helvetica,sans-Serif" font-size="10.00">::has_payment_url</text>
</a>
</g>
</g>
<!-- Node3&#45;&gt;Node6 -->
<g id="edge5" class="edge"><title>Node3&#45;&gt;Node6</title>
<path fill="none" stroke="midnightblue" d="M477.293,-113.5C485.624,-113.5 494.194,-113.5 502.661,-113.5"/>
<polygon fill="midnightblue" stroke="midnightblue" points="502.915,-117 512.915,-113.5 502.915,-110 502.915,-117"/>
</g>
<!-- Node7 -->
<g id="node7" class="node"><title>Node7</title>
<g id="a_node7"><a xlink:href="classpayments_1_1_payment_details.html#a12744e044be922a0e243b87d2fadf2d9" target="_top" xlink:title="payments::PaymentDetails\l::has_merchant_data">
<polygon fill="white" stroke="black" points="513,-49.5 513,-79.5 648,-79.5 648,-49.5 513,-49.5"/>
<text text-anchor="start" x="521" y="-67.5" font-family="Helvetica,sans-Serif" font-size="10.00">payments::PaymentDetails</text>
<text text-anchor="middle" x="580.5" y="-56.5" font-family="Helvetica,sans-Serif" font-size="10.00">::has_merchant_data</text>
</a>
</g>
</g>
<!-- Node3&#45;&gt;Node7 -->
<g id="edge6" class="edge"><title>Node3&#45;&gt;Node7</title>
<path fill="none" stroke="midnightblue" d="M462.585,-98.3986C480.095,-93.3215 499.795,-87.6098 517.962,-82.3423"/>
<polygon fill="midnightblue" stroke="midnightblue" points="518.958,-85.6979 527.587,-79.5516 517.008,-78.9748 518.958,-85.6979"/>
</g>
<!-- Node8 -->
<g id="node8" class="node"><title>Node8</title>
<g id="a_node8"><a xlink:href="classpayments_1_1_payment_details.html#a5d58007a4d15c0c696680e01a090aded" target="_top" xlink:title="payments::PaymentDetails\l::mutable_unknown_fields">
<polygon fill="white" stroke="black" points="513,-0.5 513,-30.5 648,-30.5 648,-0.5 513,-0.5"/>
<text text-anchor="start" x="521" y="-18.5" font-family="Helvetica,sans-Serif" font-size="10.00">payments::PaymentDetails</text>
<text text-anchor="middle" x="580.5" y="-7.5" font-family="Helvetica,sans-Serif" font-size="10.00">::mutable_unknown_fields</text>
</a>
</g>
</g>
<!-- Node3&#45;&gt;Node8 -->
<g id="edge7" class="edge"><title>Node3&#45;&gt;Node8</title>
<path fill="none" stroke="midnightblue" d="M462.2,-98.3691C467.433,-95.8198 472.477,-92.8798 477,-89.5 498.647,-73.3236 491.461,-56.8194 513,-40.5 515.429,-38.66 518.008,-36.9423 520.686,-35.3405"/>
<polygon fill="midnightblue" stroke="midnightblue" points="522.35,-38.4192 529.512,-30.6109 519.044,-32.2493 522.35,-38.4192"/>
</g>
</g>
</svg>
