<?xml version="1.0" encoding="UTF-8" standalone="no"?>
<!DOCTYPE svg PUBLIC "-//W3C//DTD SVG 1.1//EN"
 "http://www.w3.org/Graphics/SVG/1.1/DTD/svg11.dtd">
<!-- Generated by graphviz version 2.38.0 (20140413.2041)
 -->
<!-- Title: mruset::count Pages: 1 -->
<svg width="1157pt" height="161pt"
 viewBox="0.00 0.00 1157.00 161.00" xmlns="http://www.w3.org/2000/svg" xmlns:xlink="http://www.w3.org/1999/xlink">
<g id="graph0" class="graph" transform="scale(1 1) rotate(0) translate(4 157)">
<title>mruset::count</title>
<polygon fill="white" stroke="none" points="-4,4 -4,-157 1153,-157 1153,4 -4,4"/>
<!-- Node1 -->
<g id="node1" class="node"><title>Node1</title>
<polygon fill="#bfbfbf" stroke="black" points="0,-80.5 0,-99.5 77,-99.5 77,-80.5 0,-80.5"/>
<text text-anchor="middle" x="38.5" y="-87.5" font-family="Helvetica,sans-Serif" font-size="10.00">mruset::count</text>
</g>
<!-- Node2 -->
<g id="node2" class="node"><title>Node2</title>
<g id="a_node2"><a xlink:href="main_8h.html#a711a5bdb30c9c9bbdc83011b1cbbe2f3" target="_top" xlink:title="Send queued protocol messages to be sent to a give node. ">
<polygon fill="white" stroke="black" points="270.5,-99.5 270.5,-118.5 355.5,-118.5 355.5,-99.5 270.5,-99.5"/>
<text text-anchor="middle" x="313" y="-106.5" font-family="Helvetica,sans-Serif" font-size="10.00">SendMessages</text>
</a>
</g>
</g>
<!-- Node1&#45;&gt;Node2 -->
<g id="edge1" class="edge"><title>Node1&#45;&gt;Node2</title>
<path fill="none" stroke="midnightblue" d="M78.909,-102.141C89.8413,-104.972 101.789,-107.574 113,-109 166.979,-115.864 229.863,-114.282 270.263,-112.049"/>
<polygon fill="midnightblue" stroke="midnightblue" points="79.7727,-98.749 69.2048,-99.5044 77.9372,-105.504 79.7727,-98.749"/>
</g>
<!-- Node11 -->
<g id="node11" class="node"><title>Node11</title>
<g id="a_node11"><a xlink:href="class_c_node.html#a06950a5ce265a1d4df1aad7f28e6fde8" target="_top" xlink:title="CNode::PushAddress">
<polygon fill="white" stroke="black" points="115,-80.5 115,-99.5 228,-99.5 228,-80.5 115,-80.5"/>
<text text-anchor="middle" x="171.5" y="-87.5" font-family="Helvetica,sans-Serif" font-size="10.00">CNode::PushAddress</text>
</a>
</g>
</g>
<!-- Node1&#45;&gt;Node11 -->
<g id="edge11" class="edge"><title>Node1&#45;&gt;Node11</title>
<path fill="none" stroke="midnightblue" d="M87.2998,-90C96.2653,-90 105.709,-90 114.888,-90"/>
<polygon fill="midnightblue" stroke="midnightblue" points="87.0394,-86.5001 77.0393,-90 87.0393,-93.5001 87.0394,-86.5001"/>
</g>
<!-- Node12 -->
<g id="node12" class="node"><title>Node12</title>
<g id="a_node12"><a xlink:href="class_c_node.html#a7cef2333aa8776127a7e7fcab659eb6a" target="_top" xlink:title="CNode::PushInventory">
<polygon fill="white" stroke="black" points="113,-42.5 113,-61.5 230,-61.5 230,-42.5 113,-42.5"/>
<text text-anchor="middle" x="171.5" y="-49.5" font-family="Helvetica,sans-Serif" font-size="10.00">CNode::PushInventory</text>
</a>
</g>
</g>
<!-- Node1&#45;&gt;Node12 -->
<g id="edge13" class="edge"><title>Node1&#45;&gt;Node12</title>
<path fill="none" stroke="midnightblue" d="M82.2148,-77.6094C100.155,-72.4055 120.7,-66.4459 137.454,-61.5859"/>
<polygon fill="midnightblue" stroke="midnightblue" points="81.1858,-74.2636 72.5568,-80.411 83.136,-80.9864 81.1858,-74.2636"/>
</g>
<!-- Node3 -->
<g id="node3" class="node"><title>Node3</title>
<g id="a_node3"><a xlink:href="main_8h.html#ab02615ff65f91d69f8d786ec900baa8a" target="_top" xlink:title="Register with a network node to receive its signals. ">
<polygon fill="white" stroke="black" points="711.5,-76.5 711.5,-95.5 821.5,-95.5 821.5,-76.5 711.5,-76.5"/>
<text text-anchor="middle" x="766.5" y="-83.5" font-family="Helvetica,sans-Serif" font-size="10.00">RegisterNodeSignals</text>
</a>
</g>
</g>
<!-- Node2&#45;&gt;Node3 -->
<g id="edge2" class="edge"><title>Node2&#45;&gt;Node3</title>
<path fill="none" stroke="midnightblue" d="M365.734,-106.365C451.872,-101.977 623.861,-93.2153 711.487,-88.7515"/>
<polygon fill="midnightblue" stroke="midnightblue" points="365.476,-102.873 355.667,-106.877 365.832,-109.864 365.476,-102.873"/>
</g>
<!-- Node8 -->
<g id="node8" class="node"><title>Node8</title>
<g id="a_node8"><a xlink:href="main_8h.html#a3ef0cc6e9d9d6435ee2a5569244d6ebd" target="_top" xlink:title="Unregister a network node. ">
<polygon fill="white" stroke="black" points="396,-114.5 396,-133.5 515,-133.5 515,-114.5 396,-114.5"/>
<text text-anchor="middle" x="455.5" y="-121.5" font-family="Helvetica,sans-Serif" font-size="10.00">UnregisterNodeSignals</text>
</a>
</g>
</g>
<!-- Node2&#45;&gt;Node8 -->
<g id="edge7" class="edge"><title>Node2&#45;&gt;Node8</title>
<path fill="none" stroke="midnightblue" d="M365.793,-114.529C375.621,-115.579 385.968,-116.683 395.987,-117.753"/>
<polygon fill="midnightblue" stroke="midnightblue" points="366.089,-111.041 355.774,-113.46 365.346,-118.002 366.089,-111.041"/>
</g>
<!-- Node4 -->
<g id="node4" class="node"><title>Node4</title>
<g id="a_node4"><a xlink:href="init_8h.html#a1a4c1bfbf6ba1db77e988b89b9cadfd3" target="_top" xlink:title="Initialize anoncoin. ">
<polygon fill="white" stroke="black" points="866,-76.5 866,-95.5 919,-95.5 919,-76.5 866,-76.5"/>
<text text-anchor="middle" x="892.5" y="-83.5" font-family="Helvetica,sans-Serif" font-size="10.00">AppInit2</text>
</a>
</g>
</g>
<!-- Node3&#45;&gt;Node4 -->
<g id="edge3" class="edge"><title>Node3&#45;&gt;Node4</title>
<path fill="none" stroke="midnightblue" d="M831.69,-86C843.806,-86 855.811,-86 865.849,-86"/>
<polygon fill="midnightblue" stroke="midnightblue" points="831.528,-82.5001 821.527,-86 831.527,-89.5001 831.528,-82.5001"/>
</g>
<!-- Node5 -->
<g id="node5" class="node"><title>Node5</title>
<g id="a_node5"><a xlink:href="anoncoind_8cpp.html#ac59316b767e6984e1285f0531275286b" target="_top" xlink:title="AppInit">
<polygon fill="white" stroke="black" points="991,-133.5 991,-152.5 1039,-152.5 1039,-133.5 991,-133.5"/>
<text text-anchor="middle" x="1015" y="-140.5" font-family="Helvetica,sans-Serif" font-size="10.00">AppInit</text>
</a>
</g>
</g>
<!-- Node4&#45;&gt;Node5 -->
<g id="edge4" class="edge"><title>Node4&#45;&gt;Node5</title>
<path fill="none" stroke="midnightblue" d="M922.879,-99.8971C944.865,-110.297 974.366,-124.252 993.765,-133.428"/>
<polygon fill="midnightblue" stroke="midnightblue" points="924.205,-96.6527 913.669,-95.5405 921.212,-102.98 924.205,-96.6527"/>
</g>
<!-- Node7 -->
<g id="node7" class="node"><title>Node7</title>
<g id="a_node7"><a xlink:href="class_anoncoin_coin.html#a9510881824d283404ac43414dbb74586" target="_top" xlink:title="AnoncoinCoin::initialize">
<polygon fill="white" stroke="black" points="955,-76.5 955,-95.5 1075,-95.5 1075,-76.5 955,-76.5"/>
<text text-anchor="middle" x="1015" y="-83.5" font-family="Helvetica,sans-Serif" font-size="10.00">AnoncoinCoin::initialize</text>
</a>
</g>
</g>
<!-- Node4&#45;&gt;Node7 -->
<g id="edge6" class="edge"><title>Node4&#45;&gt;Node7</title>
<path fill="none" stroke="midnightblue" d="M929.186,-86C937.249,-86 946.021,-86 954.765,-86"/>
<polygon fill="midnightblue" stroke="midnightblue" points="929.055,-82.5001 919.055,-86 929.055,-89.5001 929.055,-82.5001"/>
</g>
<!-- Node6 -->
<g id="node6" class="node"><title>Node6</title>
<g id="a_node6"><a xlink:href="anoncoind_8cpp.html#a0ddf1224851353fc92bfbff6f499fa97" target="_top" xlink:title="main">
<polygon fill="white" stroke="black" points="1111,-133.5 1111,-152.5 1149,-152.5 1149,-133.5 1111,-133.5"/>
<text text-anchor="middle" x="1130" y="-140.5" font-family="Helvetica,sans-Serif" font-size="10.00">main</text>
</a>
</g>
</g>
<!-- Node5&#45;&gt;Node6 -->
<g id="edge5" class="edge"><title>Node5&#45;&gt;Node6</title>
<path fill="none" stroke="midnightblue" d="M1049.15,-143C1069.25,-143 1094.13,-143 1110.73,-143"/>
<polygon fill="midnightblue" stroke="midnightblue" points="1049.14,-139.5 1039.14,-143 1049.14,-146.5 1049.14,-139.5"/>
</g>
<!-- Node9 -->
<g id="node9" class="node"><title>Node9</title>
<g id="a_node9"><a xlink:href="init_8h.html#ac5f038c2b480cf9ef5e19e3eba8dbaf9" target="_top" xlink:title="Shutdown">
<polygon fill="white" stroke="black" points="578.5,-114.5 578.5,-133.5 639.5,-133.5 639.5,-114.5 578.5,-114.5"/>
<text text-anchor="middle" x="609" y="-121.5" font-family="Helvetica,sans-Serif" font-size="10.00">Shutdown</text>
</a>
</g>
</g>
<!-- Node8&#45;&gt;Node9 -->
<g id="edge8" class="edge"><title>Node8&#45;&gt;Node9</title>
<path fill="none" stroke="midnightblue" d="M525.079,-124C543.791,-124 563.092,-124 578.359,-124"/>
<polygon fill="midnightblue" stroke="midnightblue" points="525.074,-120.5 515.074,-124 525.074,-127.5 525.074,-120.5"/>
</g>
<!-- Node9&#45;&gt;Node5 -->
<g id="edge9" class="edge"><title>Node9&#45;&gt;Node5</title>
<path fill="none" stroke="midnightblue" d="M649.334,-133.864C665.8,-137.515 685.213,-141.202 703,-143 810.17,-153.836 939.177,-147.783 990.901,-144.583"/>
<polygon fill="midnightblue" stroke="midnightblue" points="650.032,-130.434 639.503,-131.613 648.469,-137.257 650.032,-130.434"/>
</g>
<!-- Node10 -->
<g id="node10" class="node"><title>Node10</title>
<g id="a_node10"><a xlink:href="class_anoncoin_coin.html#ac33fbca9335d356d9d6102a0122f2a5b" target="_top" xlink:title="AnoncoinCoin::shutdown">
<polygon fill="white" stroke="black" points="703,-114.5 703,-133.5 830,-133.5 830,-114.5 703,-114.5"/>
<text text-anchor="middle" x="766.5" y="-121.5" font-family="Helvetica,sans-Serif" font-size="10.00">AnoncoinCoin::shutdown</text>
</a>
</g>
</g>
<!-- Node9&#45;&gt;Node10 -->
<g id="edge10" class="edge"><title>Node9&#45;&gt;Node10</title>
<path fill="none" stroke="midnightblue" d="M649.758,-124C665.892,-124 684.92,-124 702.836,-124"/>
<polygon fill="midnightblue" stroke="midnightblue" points="649.614,-120.5 639.614,-124 649.614,-127.5 649.614,-120.5"/>
</g>
<!-- Node11&#45;&gt;Node2 -->
<g id="edge12" class="edge"><title>Node11&#45;&gt;Node2</title>
<path fill="none" stroke="midnightblue" d="M238.074,-98.9312C249.083,-100.431 260.231,-101.949 270.415,-103.336"/>
<polygon fill="midnightblue" stroke="midnightblue" points="238.416,-95.4455 228.035,-97.5639 237.471,-102.382 238.416,-95.4455"/>
</g>
<!-- Node13 -->
<g id="node13" class="node"><title>Node13</title>
<g id="a_node13"><a xlink:href="main_8h.html#aae69635467b9737d6c5b44d8ccff5c82" target="_top" xlink:title="AcceptBlock">
<polygon fill="white" stroke="black" points="277,-14.5 277,-33.5 349,-33.5 349,-14.5 277,-14.5"/>
<text text-anchor="middle" x="313" y="-21.5" font-family="Helvetica,sans-Serif" font-size="10.00">AcceptBlock</text>
</a>
</g>
</g>
<!-- Node12&#45;&gt;Node13 -->
<g id="edge14" class="edge"><title>Node12&#45;&gt;Node13</title>
<path fill="none" stroke="midnightblue" d="M230.351,-40.3883C246.162,-37.2148 262.813,-33.8726 276.925,-31.0402"/>
<polygon fill="midnightblue" stroke="midnightblue" points="229.233,-37.0427 220.118,-42.4423 230.611,-43.9059 229.233,-37.0427"/>
</g>
<!-- Node18 -->
<g id="node18" class="node"><title>Node18</title>
<g id="a_node18"><a xlink:href="net_8h.html#aa7eea5ebcc85b5a7a0ae3716608bfffe" target="_top" xlink:title="RelayTransaction">
<polygon fill="white" stroke="black" points="266,-52.5 266,-71.5 360,-71.5 360,-52.5 266,-52.5"/>
<text text-anchor="middle" x="313" y="-59.5" font-family="Helvetica,sans-Serif" font-size="10.00">RelayTransaction</text>
</a>
</g>
</g>
<!-- Node12&#45;&gt;Node18 -->
<g id="edge20" class="edge"><title>Node12&#45;&gt;Node18</title>
<path fill="none" stroke="midnightblue" d="M240.134,-56.8483C248.773,-57.4676 257.454,-58.0899 265.648,-58.6773"/>
<polygon fill="midnightblue" stroke="midnightblue" points="240.27,-53.3492 230.045,-56.1251 239.77,-60.3313 240.27,-53.3492"/>
</g>
<!-- Node14 -->
<g id="node14" class="node"><title>Node14</title>
<g id="a_node14"><a xlink:href="main_8h.html#a87a59e710c26c4a10de57b5acb1e2e92" target="_top" xlink:title="Process an incoming block. ">
<polygon fill="white" stroke="black" points="417,-14.5 417,-33.5 494,-33.5 494,-14.5 417,-14.5"/>
<text text-anchor="middle" x="455.5" y="-21.5" font-family="Helvetica,sans-Serif" font-size="10.00">ProcessBlock</text>
</a>
</g>
</g>
<!-- Node13&#45;&gt;Node14 -->
<g id="edge15" class="edge"><title>Node13&#45;&gt;Node14</title>
<path fill="none" stroke="midnightblue" d="M359.129,-24C377.771,-24 399.131,-24 416.905,-24"/>
<polygon fill="midnightblue" stroke="midnightblue" points="359.092,-20.5001 349.092,-24 359.092,-27.5001 359.092,-20.5001"/>
</g>
<!-- Node15 -->
<g id="node15" class="node"><title>Node15</title>
<g id="a_node15"><a xlink:href="main_8h.html#a8641eccb4e5d174838adeea9b234a691" target="_top" xlink:title="Import blocks from an external file. ">
<polygon fill="white" stroke="black" points="551,-38.5 551,-57.5 667,-57.5 667,-38.5 551,-38.5"/>
<text text-anchor="middle" x="609" y="-45.5" font-family="Helvetica,sans-Serif" font-size="10.00">LoadExternalBlockFile</text>
</a>
</g>
</g>
<!-- Node14&#45;&gt;Node15 -->
<g id="edge16" class="edge"><title>Node14&#45;&gt;Node15</title>
<path fill="none" stroke="midnightblue" d="M504.284,-31.5698C519.081,-33.9138 535.534,-36.5202 550.896,-38.9537"/>
<polygon fill="midnightblue" stroke="midnightblue" points="504.764,-28.1021 494.339,-29.9943 503.668,-35.0159 504.764,-28.1021"/>
</g>
<!-- Node17 -->
<g id="node17" class="node"><title>Node17</title>
<g id="a_node17"><a xlink:href="rpcmining_8cpp.html#a6fc1aa077add8cb1c74207056616134d" target="_top" xlink:title="submitblock">
<polygon fill="white" stroke="black" points="574.5,-0.5 574.5,-19.5 643.5,-19.5 643.5,-0.5 574.5,-0.5"/>
<text text-anchor="middle" x="609" y="-7.5" font-family="Helvetica,sans-Serif" font-size="10.00">submitblock</text>
</a>
</g>
</g>
<!-- Node14&#45;&gt;Node17 -->
<g id="edge19" class="edge"><title>Node14&#45;&gt;Node17</title>
<path fill="none" stroke="midnightblue" d="M504.46,-19.5681C527.156,-17.4707 553.717,-15.0163 574.254,-13.1185"/>
<polygon fill="midnightblue" stroke="midnightblue" points="503.975,-16.0979 494.339,-20.5033 504.619,-23.0682 503.975,-16.0979"/>
</g>
<!-- Node16 -->
<g id="node16" class="node"><title>Node16</title>
<g id="a_node16"><a xlink:href="init_8cpp.html#a0189c34248cd89bbbe20d4d6045bd7c9" target="_top" xlink:title="ThreadImport">
<polygon fill="white" stroke="black" points="728,-38.5 728,-57.5 805,-57.5 805,-38.5 728,-38.5"/>
<text text-anchor="middle" x="766.5" y="-45.5" font-family="Helvetica,sans-Serif" font-size="10.00">ThreadImport</text>
</a>
</g>
</g>
<!-- Node15&#45;&gt;Node16 -->
<g id="edge17" class="edge"><title>Node15&#45;&gt;Node16</title>
<path fill="none" stroke="midnightblue" d="M677.14,-48C694.515,-48 712.61,-48 727.867,-48"/>
<polygon fill="midnightblue" stroke="midnightblue" points="677.02,-44.5001 667.019,-48 677.019,-51.5001 677.02,-44.5001"/>
</g>
<!-- Node16&#45;&gt;Node4 -->
<g id="edge18" class="edge"><title>Node16&#45;&gt;Node4</title>
<path fill="none" stroke="midnightblue" d="M809.033,-60.5973C816.033,-62.7288 823.225,-64.9236 830,-67 841.753,-70.6019 854.761,-74.6164 865.775,-78.024"/>
<polygon fill="midnightblue" stroke="midnightblue" points="809.569,-57.1021 798.983,-57.5406 807.532,-63.7992 809.569,-57.1021"/>
</g>
</g>
</svg>
