<?xml version="1.0" encoding="UTF-8" standalone="no"?>
<!DOCTYPE svg PUBLIC "-//W3C//DTD SVG 1.1//EN"
 "http://www.w3.org/Graphics/SVG/1.1/DTD/svg11.dtd">
<!-- Generated by graphviz version 2.38.0 (20140413.2041)
 -->
<!-- Title: SendCoinsDialog::setBalance Pages: 1 -->
<svg width="884pt" height="47pt"
 viewBox="0.00 0.00 884.00 47.00" xmlns="http://www.w3.org/2000/svg" xmlns:xlink="http://www.w3.org/1999/xlink">
<g id="graph0" class="graph" transform="scale(1 1) rotate(0) translate(4 43)">
<title>SendCoinsDialog::setBalance</title>
<polygon fill="white" stroke="none" points="-4,4 -4,-43 880,-43 880,4 -4,4"/>
<!-- Node1 -->
<g id="node1" class="node"><title>Node1</title>
<polygon fill="#bfbfbf" stroke="black" points="0,-19.5 0,-38.5 149,-38.5 149,-19.5 0,-19.5"/>
<text text-anchor="middle" x="74.5" y="-26.5" font-family="Helvetica,sans-Serif" font-size="10.00">SendCoinsDialog::setBalance</text>
</g>
<!-- Node2 -->
<g id="node2" class="node"><title>Node2</title>
<g id="a_node2"><a xlink:href="class_send_coins_dialog.html#a73a6c1b1850a334ee652ac167713a2aa" target="_top" xlink:title="SendCoinsDialog::setModel">
<polygon fill="white" stroke="black" points="401,-19.5 401,-38.5 541,-38.5 541,-19.5 401,-19.5"/>
<text text-anchor="middle" x="471" y="-26.5" font-family="Helvetica,sans-Serif" font-size="10.00">SendCoinsDialog::setModel</text>
</a>
</g>
</g>
<!-- Node1&#45;&gt;Node2 -->
<g id="edge1" class="edge"><title>Node1&#45;&gt;Node2</title>
<path fill="none" stroke="midnightblue" d="M159.62,-29C231.521,-29 333.72,-29 400.918,-29"/>
<polygon fill="midnightblue" stroke="midnightblue" points="159.24,-25.5001 149.24,-29 159.24,-32.5001 159.24,-25.5001"/>
</g>
<!-- Node5 -->
<g id="node5" class="node"><title>Node5</title>
<g id="a_node5"><a xlink:href="class_send_coins_dialog.html#a74815ad8502b126200b6fd2e59e9f042" target="_top" xlink:title="SendCoinsDialog::updateDisplayUnit">
<polygon fill="white" stroke="black" points="185,-0.5 185,-19.5 365,-19.5 365,-0.5 185,-0.5"/>
<text text-anchor="middle" x="275" y="-7.5" font-family="Helvetica,sans-Serif" font-size="10.00">SendCoinsDialog::updateDisplayUnit</text>
</a>
</g>
</g>
<!-- Node1&#45;&gt;Node5 -->
<g id="edge4" class="edge"><title>Node1&#45;&gt;Node5</title>
<path fill="none" stroke="midnightblue" d="M159.287,-20.9801C167.688,-20.176 176.24,-19.3574 184.695,-18.5481"/>
<polygon fill="midnightblue" stroke="midnightblue" points="158.753,-17.5151 149.132,-21.9521 159.42,-24.4833 158.753,-17.5151"/>
</g>
<!-- Node3 -->
<g id="node3" class="node"><title>Node3</title>
<g id="a_node3"><a xlink:href="class_wallet_view.html#a0a37ff693a4f9c1e5ddc23f9cd3913be" target="_top" xlink:title="Set the wallet model. ">
<polygon fill="white" stroke="black" points="577,-19.5 577,-38.5 717,-38.5 717,-19.5 577,-19.5"/>
<text text-anchor="middle" x="647" y="-26.5" font-family="Helvetica,sans-Serif" font-size="10.00">WalletView::setWalletModel</text>
</a>
</g>
</g>
<!-- Node2&#45;&gt;Node3 -->
<g id="edge2" class="edge"><title>Node2&#45;&gt;Node3</title>
<path fill="none" stroke="midnightblue" d="M551.035,-29C559.625,-29 568.319,-29 576.779,-29"/>
<polygon fill="midnightblue" stroke="midnightblue" points="551.019,-25.5001 541.019,-29 551.019,-32.5001 551.019,-25.5001"/>
</g>
<!-- Node4 -->
<g id="node4" class="node"><title>Node4</title>
<g id="a_node4"><a xlink:href="class_wallet_frame.html#aa199c3f27654199d84c365cf86167d86" target="_top" xlink:title="WalletFrame::addWallet">
<polygon fill="white" stroke="black" points="753,-19.5 753,-38.5 876,-38.5 876,-19.5 753,-19.5"/>
<text text-anchor="middle" x="814.5" y="-26.5" font-family="Helvetica,sans-Serif" font-size="10.00">WalletFrame::addWallet</text>
</a>
</g>
</g>
<!-- Node3&#45;&gt;Node4 -->
<g id="edge3" class="edge"><title>Node3&#45;&gt;Node4</title>
<path fill="none" stroke="midnightblue" d="M727.311,-29C735.938,-29 744.616,-29 752.968,-29"/>
<polygon fill="midnightblue" stroke="midnightblue" points="727.228,-25.5001 717.228,-29 727.228,-32.5001 727.228,-25.5001"/>
</g>
<!-- Node5&#45;&gt;Node2 -->
<g id="edge5" class="edge"><title>Node5&#45;&gt;Node2</title>
<path fill="none" stroke="midnightblue" d="M375.243,-19.7196C383.929,-20.5704 392.592,-21.4188 400.952,-22.2376"/>
<polygon fill="midnightblue" stroke="midnightblue" points="375.344,-16.213 365.051,-18.7215 374.662,-23.1796 375.344,-16.213"/>
</g>
</g>
</svg>
