<?xml version="1.0" encoding="UTF-8" standalone="no"?>
<!DOCTYPE svg PUBLIC "-//W3C//DTD SVG 1.1//EN"
 "http://www.w3.org/Graphics/SVG/1.1/DTD/svg11.dtd">
<!-- Generated by graphviz version 2.38.0 (20140413.2041)
 -->
<!-- Title: payments::PaymentDetails::memo Pages: 1 -->
<svg width="1126pt" height="370pt"
 viewBox="0.00 0.00 1126.00 369.50" xmlns="http://www.w3.org/2000/svg" xmlns:xlink="http://www.w3.org/1999/xlink">
<g id="graph0" class="graph" transform="scale(1 1) rotate(0) translate(4 365.5)">
<title>payments::PaymentDetails::memo</title>
<polygon fill="white" stroke="none" points="-4,4 -4,-365.5 1122,-365.5 1122,4 -4,4"/>
<!-- Node1 -->
<g id="node1" class="node"><title>Node1</title>
<polygon fill="#bfbfbf" stroke="black" points="0,-184 0,-214 135,-214 135,-184 0,-184"/>
<text text-anchor="start" x="8" y="-202" font-family="Helvetica,sans-Serif" font-size="10.00">payments::PaymentDetails</text>
<text text-anchor="middle" x="67.5" y="-191" font-family="Helvetica,sans-Serif" font-size="10.00">::memo</text>
</g>
<!-- Node2 -->
<g id="node2" class="node"><title>Node2</title>
<g id="a_node2"><a xlink:href="classpayments_1_1_payment_details.html#a02041f288b52f004c61e49365ca33e6c" target="_top" xlink:title="payments::PaymentDetails\l::MergePartialFromCodedStream">
<polygon fill="white" stroke="black" points="176.5,-331 176.5,-361 340.5,-361 340.5,-331 176.5,-331"/>
<text text-anchor="start" x="184.5" y="-349" font-family="Helvetica,sans-Serif" font-size="10.00">payments::PaymentDetails</text>
<text text-anchor="middle" x="258.5" y="-338" font-family="Helvetica,sans-Serif" font-size="10.00">::MergePartialFromCodedStream</text>
</a>
</g>
</g>
<!-- Node1&#45;&gt;Node2 -->
<g id="edge1" class="edge"><title>Node1&#45;&gt;Node2</title>
<path fill="none" stroke="midnightblue" d="M82.0495,-222.735C99.2015,-250.642 131.348,-296.396 171,-322 176.368,-325.466 182.235,-328.438 188.304,-330.984"/>
<polygon fill="midnightblue" stroke="midnightblue" points="84.9623,-220.786 76.8184,-214.009 78.9586,-224.386 84.9623,-220.786"/>
</g>
<!-- Node3 -->
<g id="node3" class="node"><title>Node3</title>
<g id="a_node3"><a xlink:href="classpayments_1_1_payment_details.html#af820f0ae3d6b878dafc86eb33a579a22" target="_top" xlink:title="payments::PaymentDetails\l::SerializeWithCachedSizes">
<polygon fill="white" stroke="black" points="189,-282 189,-312 328,-312 328,-282 189,-282"/>
<text text-anchor="start" x="197" y="-300" font-family="Helvetica,sans-Serif" font-size="10.00">payments::PaymentDetails</text>
<text text-anchor="middle" x="258.5" y="-289" font-family="Helvetica,sans-Serif" font-size="10.00">::SerializeWithCachedSizes</text>
</a>
</g>
</g>
<!-- Node1&#45;&gt;Node3 -->
<g id="edge2" class="edge"><title>Node1&#45;&gt;Node3</title>
<path fill="none" stroke="midnightblue" d="M93.3193,-220.813C113.141,-237.23 142.266,-259.192 171,-273 178.023,-276.375 185.603,-279.347 193.254,-281.946"/>
<polygon fill="midnightblue" stroke="midnightblue" points="95.3239,-217.925 85.422,-214.156 90.8124,-223.277 95.3239,-217.925"/>
</g>
<!-- Node4 -->
<g id="node4" class="node"><title>Node4</title>
<g id="a_node4"><a xlink:href="classpayments_1_1_payment_details.html#ad4def794c2ed0154ec9449d8414d74ff" target="_top" xlink:title="payments::PaymentDetails\l::SerializeWithCachedSizesToArray">
<polygon fill="white" stroke="black" points="171,-233 171,-263 346,-263 346,-233 171,-233"/>
<text text-anchor="start" x="179" y="-251" font-family="Helvetica,sans-Serif" font-size="10.00">payments::PaymentDetails</text>
<text text-anchor="middle" x="258.5" y="-240" font-family="Helvetica,sans-Serif" font-size="10.00">::SerializeWithCachedSizesToArray</text>
</a>
</g>
</g>
<!-- Node1&#45;&gt;Node4 -->
<g id="edge3" class="edge"><title>Node1&#45;&gt;Node4</title>
<path fill="none" stroke="midnightblue" d="M136.192,-216.55C156.947,-221.931 179.582,-227.799 199.619,-232.994"/>
<polygon fill="midnightblue" stroke="midnightblue" points="137.049,-213.156 126.491,-214.035 135.292,-219.932 137.049,-213.156"/>
</g>
<!-- Node5 -->
<g id="node5" class="node"><title>Node5</title>
<g id="a_node5"><a xlink:href="classpayments_1_1_payment_details.html#a5fea922191658ae9bf2d30331f184657" target="_top" xlink:title="payments::PaymentDetails\l::ByteSize">
<polygon fill="white" stroke="black" points="191,-184 191,-214 326,-214 326,-184 191,-184"/>
<text text-anchor="start" x="199" y="-202" font-family="Helvetica,sans-Serif" font-size="10.00">payments::PaymentDetails</text>
<text text-anchor="middle" x="258.5" y="-191" font-family="Helvetica,sans-Serif" font-size="10.00">::ByteSize</text>
</a>
</g>
</g>
<!-- Node1&#45;&gt;Node5 -->
<g id="edge4" class="edge"><title>Node1&#45;&gt;Node5</title>
<path fill="none" stroke="midnightblue" d="M145.435,-199C160.484,-199 176.149,-199 190.83,-199"/>
<polygon fill="midnightblue" stroke="midnightblue" points="145.134,-195.5 135.134,-199 145.134,-202.5 145.134,-195.5"/>
</g>
<!-- Node6 -->
<g id="node6" class="node"><title>Node6</title>
<g id="a_node6"><a xlink:href="classpayments_1_1_payment_details.html#a4eeba6a02bd9b15645f0447ff211a2c2" target="_top" xlink:title="payments::PaymentDetails\l::MergeFrom">
<polygon fill="white" stroke="black" points="191,-135 191,-165 326,-165 326,-135 191,-135"/>
<text text-anchor="start" x="199" y="-153" font-family="Helvetica,sans-Serif" font-size="10.00">payments::PaymentDetails</text>
<text text-anchor="middle" x="258.5" y="-142" font-family="Helvetica,sans-Serif" font-size="10.00">::MergeFrom</text>
</a>
</g>
</g>
<!-- Node1&#45;&gt;Node6 -->
<g id="edge5" class="edge"><title>Node1&#45;&gt;Node6</title>
<path fill="none" stroke="midnightblue" d="M136.192,-181.45C156.947,-176.069 179.582,-170.201 199.619,-165.006"/>
<polygon fill="midnightblue" stroke="midnightblue" points="135.292,-178.068 126.491,-183.965 137.049,-184.844 135.292,-178.068"/>
</g>
<!-- Node7 -->
<g id="node7" class="node"><title>Node7</title>
<g id="a_node7"><a xlink:href="classpayments_1_1_payment_details.html#afc8c098e3b6d5c2e77051bcf656e5fe1" target="_top" xlink:title="payments::PaymentDetails\l::set_allocated_memo">
<polygon fill="white" stroke="black" points="191,-86 191,-116 326,-116 326,-86 191,-86"/>
<text text-anchor="start" x="199" y="-104" font-family="Helvetica,sans-Serif" font-size="10.00">payments::PaymentDetails</text>
<text text-anchor="middle" x="258.5" y="-93" font-family="Helvetica,sans-Serif" font-size="10.00">::set_allocated_memo</text>
</a>
</g>
</g>
<!-- Node1&#45;&gt;Node7 -->
<g id="edge6" class="edge"><title>Node1&#45;&gt;Node7</title>
<path fill="none" stroke="midnightblue" d="M93.3193,-177.187C113.141,-160.77 142.266,-138.808 171,-125 178.023,-121.625 185.603,-118.653 193.254,-116.054"/>
<polygon fill="midnightblue" stroke="midnightblue" points="90.8124,-174.723 85.422,-183.844 95.3239,-180.075 90.8124,-174.723"/>
</g>
<!-- Node8 -->
<g id="node8" class="node"><title>Node8</title>
<g id="a_node8"><a xlink:href="class_payment_server.html#abe96a7c90755b8e1975e380b5a8228bd" target="_top" xlink:title="PaymentServer::processPayment\lRequest">
<polygon fill="white" stroke="black" points="176,-37 176,-67 341,-67 341,-37 176,-37"/>
<text text-anchor="start" x="184" y="-55" font-family="Helvetica,sans-Serif" font-size="10.00">PaymentServer::processPayment</text>
<text text-anchor="middle" x="258.5" y="-44" font-family="Helvetica,sans-Serif" font-size="10.00">Request</text>
</a>
</g>
</g>
<!-- Node1&#45;&gt;Node8 -->
<g id="edge7" class="edge"><title>Node1&#45;&gt;Node8</title>
<path fill="none" stroke="midnightblue" d="M82.0495,-175.265C99.2015,-147.358 131.348,-101.604 171,-76 176.368,-72.5339 182.235,-69.5624 188.304,-67.016"/>
<polygon fill="midnightblue" stroke="midnightblue" points="78.9586,-173.614 76.8184,-183.991 84.9623,-177.214 78.9586,-173.614"/>
</g>
<!-- Node9 -->
<g id="node9" class="node"><title>Node9</title>
<g id="a_node9"><a xlink:href="class_payment_server.html#adf4f844b3ce7f053690fd9260210640d" target="_top" xlink:title="PaymentServer::handleURIOrFile">
<polygon fill="white" stroke="black" points="382,-68.5 382,-87.5 547,-87.5 547,-68.5 382,-68.5"/>
<text text-anchor="middle" x="464.5" y="-75.5" font-family="Helvetica,sans-Serif" font-size="10.00">PaymentServer::handleURIOrFile</text>
</a>
</g>
</g>
<!-- Node8&#45;&gt;Node9 -->
<g id="edge8" class="edge"><title>Node8&#45;&gt;Node9</title>
<path fill="none" stroke="midnightblue" d="M351.054,-63.6687C363.66,-65.2753 376.481,-66.9093 388.736,-68.4712"/>
<polygon fill="midnightblue" stroke="midnightblue" points="351.368,-60.1804 341.006,-62.388 350.483,-67.1243 351.368,-60.1804"/>
</g>
<!-- Node15 -->
<g id="node15" class="node"><title>Node15</title>
<g id="a_node15"><a xlink:href="class_payment_server.html#a5b8e2e6380142fb7ad631400bcfc6f28" target="_top" xlink:title="PaymentServer::netRequest\lFinished">
<polygon fill="white" stroke="black" points="393.5,-11 393.5,-41 535.5,-41 535.5,-11 393.5,-11"/>
<text text-anchor="start" x="401.5" y="-29" font-family="Helvetica,sans-Serif" font-size="10.00">PaymentServer::netRequest</text>
<text text-anchor="middle" x="464.5" y="-18" font-family="Helvetica,sans-Serif" font-size="10.00">Finished</text>
</a>
</g>
</g>
<!-- Node8&#45;&gt;Node15 -->
<g id="edge14" class="edge"><title>Node8&#45;&gt;Node15</title>
<path fill="none" stroke="midnightblue" d="M351.228,-40.3091C365.353,-38.5089 379.744,-36.6748 393.301,-34.9469"/>
<polygon fill="midnightblue" stroke="midnightblue" points="350.483,-36.8757 341.006,-41.612 351.368,-43.8196 350.483,-36.8757"/>
</g>
<!-- Node10 -->
<g id="node10" class="node"><title>Node10</title>
<g id="a_node10"><a xlink:href="class_payment_server.html#af795e3c318556c833792e530b279efc9" target="_top" xlink:title="PaymentServer::eventFilter">
<polygon fill="white" stroke="black" points="608.5,-76.5 608.5,-95.5 746.5,-95.5 746.5,-76.5 608.5,-76.5"/>
<text text-anchor="middle" x="677.5" y="-83.5" font-family="Helvetica,sans-Serif" font-size="10.00">PaymentServer::eventFilter</text>
</a>
</g>
</g>
<!-- Node9&#45;&gt;Node10 -->
<g id="edge9" class="edge"><title>Node9&#45;&gt;Node10</title>
<path fill="none" stroke="midnightblue" d="M557.153,-81.475C574.387,-82.1284 592.123,-82.8009 608.478,-83.421"/>
<polygon fill="midnightblue" stroke="midnightblue" points="557.204,-77.9745 547.078,-81.093 556.938,-84.9695 557.204,-77.9745"/>
</g>
<!-- Node11 -->
<g id="node11" class="node"><title>Node11</title>
<g id="a_node11"><a xlink:href="class_payment_server.html#abb6c65fabbf97ba95381997ca9cd6993" target="_top" xlink:title="PaymentServer::uiReady">
<polygon fill="white" stroke="black" points="824,-19.5 824,-38.5 952,-38.5 952,-19.5 824,-19.5"/>
<text text-anchor="middle" x="888" y="-26.5" font-family="Helvetica,sans-Serif" font-size="10.00">PaymentServer::uiReady</text>
</a>
</g>
</g>
<!-- Node9&#45;&gt;Node11 -->
<g id="edge10" class="edge"><title>Node9&#45;&gt;Node11</title>
<path fill="none" stroke="midnightblue" d="M557.175,-67.3427C637.855,-57.9635 753.189,-44.5558 823.918,-36.3334"/>
<polygon fill="midnightblue" stroke="midnightblue" points="556.548,-63.8919 547.019,-68.5233 557.356,-70.845 556.548,-63.8919"/>
</g>
<!-- Node13 -->
<g id="node13" class="node"><title>Node13</title>
<g id="a_node13"><a xlink:href="class_payment_server.html#a6ee6e29e1255605582459463d195a651" target="_top" xlink:title="PaymentServer::handleURIConnection">
<polygon fill="white" stroke="black" points="583,-114.5 583,-133.5 772,-133.5 772,-114.5 583,-114.5"/>
<text text-anchor="middle" x="677.5" y="-121.5" font-family="Helvetica,sans-Serif" font-size="10.00">PaymentServer::handleURIConnection</text>
</a>
</g>
</g>
<!-- Node9&#45;&gt;Node13 -->
<g id="edge12" class="edge"><title>Node9&#45;&gt;Node13</title>
<path fill="none" stroke="midnightblue" d="M515.84,-89.8629C536.609,-94.6801 560.937,-100.224 583,-105 597.732,-108.189 613.805,-111.512 628.405,-114.47"/>
<polygon fill="midnightblue" stroke="midnightblue" points="516.489,-86.4205 505.956,-87.563 514.903,-93.2384 516.489,-86.4205"/>
</g>
<!-- Node12 -->
<g id="node12" class="node"><title>Node12</title>
<g id="a_node12"><a xlink:href="class_payment_server_tests.html#a82c8a7437bfc26c28619b954a5ee8cad" target="_top" xlink:title="PaymentServerTests\l::paymentServerTests">
<polygon fill="white" stroke="black" points="1004,-14 1004,-44 1118,-44 1118,-14 1004,-14"/>
<text text-anchor="start" x="1012" y="-32" font-family="Helvetica,sans-Serif" font-size="10.00">PaymentServerTests</text>
<text text-anchor="middle" x="1061" y="-21" font-family="Helvetica,sans-Serif" font-size="10.00">::paymentServerTests</text>
</a>
</g>
</g>
<!-- Node11&#45;&gt;Node12 -->
<g id="edge11" class="edge"><title>Node11&#45;&gt;Node12</title>
<path fill="none" stroke="midnightblue" d="M962.233,-29C976.165,-29 990.541,-29 1003.84,-29"/>
<polygon fill="midnightblue" stroke="midnightblue" points="962.188,-25.5001 952.188,-29 962.188,-32.5001 962.188,-25.5001"/>
</g>
<!-- Node14 -->
<g id="node14" class="node"><title>Node14</title>
<g id="a_node14"><a xlink:href="class_payment_server.html#a4a66f55c11f4757b121179d5d6988ab2" target="_top" xlink:title="PaymentServer::PaymentServer">
<polygon fill="white" stroke="black" points="808,-114.5 808,-133.5 968,-133.5 968,-114.5 808,-114.5"/>
<text text-anchor="middle" x="888" y="-121.5" font-family="Helvetica,sans-Serif" font-size="10.00">PaymentServer::PaymentServer</text>
</a>
</g>
</g>
<!-- Node13&#45;&gt;Node14 -->
<g id="edge13" class="edge"><title>Node13&#45;&gt;Node14</title>
<path fill="none" stroke="midnightblue" d="M782.155,-124C790.754,-124 799.359,-124 807.735,-124"/>
<polygon fill="midnightblue" stroke="midnightblue" points="782.077,-120.5 772.077,-124 782.077,-127.5 782.077,-120.5"/>
</g>
<!-- Node16 -->
<g id="node16" class="node"><title>Node16</title>
<g id="a_node16"><a xlink:href="class_payment_server.html#a2f94f2c3e12d03199870e17008535302" target="_top" xlink:title="PaymentServer::initNetManager">
<polygon fill="white" stroke="black" points="598,-0.5 598,-19.5 757,-19.5 757,-0.5 598,-0.5"/>
<text text-anchor="middle" x="677.5" y="-7.5" font-family="Helvetica,sans-Serif" font-size="10.00">PaymentServer::initNetManager</text>
</a>
</g>
</g>
<!-- Node15&#45;&gt;Node16 -->
<g id="edge15" class="edge"><title>Node15&#45;&gt;Node16</title>
<path fill="none" stroke="midnightblue" d="M546.172,-19.8827C563.109,-18.5984 580.951,-17.2454 597.814,-15.9667"/>
<polygon fill="midnightblue" stroke="midnightblue" points="545.467,-16.426 535.76,-20.6722 545.996,-23.406 545.467,-16.426"/>
</g>
<!-- Node16&#45;&gt;Node11 -->
<g id="edge16" class="edge"><title>Node16&#45;&gt;Node11</title>
<path fill="none" stroke="midnightblue" d="M767.203,-18.0833C786.231,-19.8172 805.966,-21.6156 823.795,-23.2403"/>
<polygon fill="midnightblue" stroke="midnightblue" points="767.304,-14.5781 757.028,-17.156 766.669,-21.5492 767.304,-14.5781"/>
</g>
</g>
</svg>
