<?xml version="1.0" encoding="UTF-8" standalone="no"?>
<!DOCTYPE svg PUBLIC "-//W3C//DTD SVG 1.1//EN"
 "http://www.w3.org/Graphics/SVG/1.1/DTD/svg11.dtd">
<!-- Generated by graphviz version 2.38.0 (20140413.2041)
 -->
<!-- Title: CNetAddr::IsRoutable Pages: 1 -->
<svg width="1038pt" height="275pt"
 viewBox="0.00 0.00 1038.00 275.00" xmlns="http://www.w3.org/2000/svg" xmlns:xlink="http://www.w3.org/1999/xlink">
<g id="graph0" class="graph" transform="scale(1 1) rotate(0) translate(4 271)">
<title>CNetAddr::IsRoutable</title>
<polygon fill="white" stroke="none" points="-4,4 -4,-271 1034,-271 1034,4 -4,4"/>
<!-- Node1 -->
<g id="node1" class="node"><title>Node1</title>
<polygon fill="#bfbfbf" stroke="black" points="0,-152.5 0,-171.5 114,-171.5 114,-152.5 0,-152.5"/>
<text text-anchor="middle" x="57" y="-159.5" font-family="Helvetica,sans-Serif" font-size="10.00">CNetAddr::IsRoutable</text>
</g>
<!-- Node2 -->
<g id="node2" class="node"><title>Node2</title>
<g id="a_node2"><a xlink:href="class_c_addr_man.html#a9dd6df8b1904548a86054d19d4a90724" target="_top" xlink:title="CAddrMan::Add_">
<polygon fill="white" stroke="black" points="152.5,-228.5 152.5,-247.5 245.5,-247.5 245.5,-228.5 152.5,-228.5"/>
<text text-anchor="middle" x="199" y="-235.5" font-family="Helvetica,sans-Serif" font-size="10.00">CAddrMan::Add_</text>
</a>
</g>
</g>
<!-- Node1&#45;&gt;Node2 -->
<g id="edge1" class="edge"><title>Node1&#45;&gt;Node2</title>
<path fill="none" stroke="midnightblue" d="M83.3838,-176.807C101.752,-187.408 127.243,-201.889 150,-214 159.212,-218.902 169.551,-224.109 178.267,-228.415"/>
<polygon fill="midnightblue" stroke="midnightblue" points="84.8874,-173.633 74.4798,-171.649 81.379,-179.69 84.8874,-173.633"/>
</g>
<!-- Node11 -->
<g id="node11" class="node"><title>Node11</title>
<g id="a_node11"><a xlink:href="main_8h.html#a711a5bdb30c9c9bbdc83011b1cbbe2f3" target="_top" xlink:title="Send queued protocol messages to be sent to a give node. ">
<polygon fill="white" stroke="black" points="434,-171.5 434,-190.5 519,-190.5 519,-171.5 434,-171.5"/>
<text text-anchor="middle" x="476.5" y="-178.5" font-family="Helvetica,sans-Serif" font-size="10.00">SendMessages</text>
</a>
</g>
</g>
<!-- Node1&#45;&gt;Node11 -->
<g id="edge11" class="edge"><title>Node1&#45;&gt;Node11</title>
<path fill="none" stroke="midnightblue" d="M105.404,-173.712C119.648,-176.709 135.377,-179.506 150,-181 251.473,-191.369 371.671,-187.116 433.743,-183.706"/>
<polygon fill="midnightblue" stroke="midnightblue" points="105.848,-170.226 95.3311,-171.509 104.353,-177.065 105.848,-170.226"/>
</g>
<!-- Node16 -->
<g id="node16" class="node"><title>Node16</title>
<g id="a_node16"><a xlink:href="net_8h.html#a337d6af198a6b0d75f830e56da9b91e9" target="_top" xlink:title="AddLocal">
<polygon fill="white" stroke="black" points="170,-76.5 170,-95.5 228,-95.5 228,-76.5 170,-76.5"/>
<text text-anchor="middle" x="199" y="-83.5" font-family="Helvetica,sans-Serif" font-size="10.00">AddLocal</text>
</a>
</g>
</g>
<!-- Node1&#45;&gt;Node16 -->
<g id="edge18" class="edge"><title>Node1&#45;&gt;Node16</title>
<path fill="none" stroke="midnightblue" d="M84.6279,-147.545C112.753,-132.277 156.295,-108.64 180.413,-95.5473"/>
<polygon fill="midnightblue" stroke="midnightblue" points="82.8498,-144.528 75.7311,-152.375 86.1895,-150.68 82.8498,-144.528"/>
</g>
<!-- Node19 -->
<g id="node19" class="node"><title>Node19</title>
<g id="a_node19"><a xlink:href="net_8cpp.html#a0c8010ad96acff7cca6aca684ec42b71" target="_top" xlink:title="BindListenPort">
<polygon fill="white" stroke="black" points="289,-0.5 289,-19.5 371,-19.5 371,-0.5 289,-0.5"/>
<text text-anchor="middle" x="330" y="-7.5" font-family="Helvetica,sans-Serif" font-size="10.00">BindListenPort</text>
</a>
</g>
</g>
<!-- Node1&#45;&gt;Node19 -->
<g id="edge26" class="edge"><title>Node1&#45;&gt;Node19</title>
<path fill="none" stroke="midnightblue" d="M70.7619,-144.236C86.9221,-122.967 116.703,-87.6381 150,-67 193.522,-40.0245 250.986,-24.6976 288.922,-16.8775"/>
<polygon fill="midnightblue" stroke="midnightblue" points="67.8475,-142.29 64.6995,-152.406 73.469,-146.461 67.8475,-142.29"/>
</g>
<!-- Node20 -->
<g id="node20" class="node"><title>Node20</title>
<g id="a_node20"><a xlink:href="net_8cpp.html#a23ad330fb37fb9d5b1d6ab43f33b1443" target="_top" xlink:title="GetMyExternalIP2">
<polygon fill="white" stroke="black" points="150,-152.5 150,-171.5 248,-171.5 248,-152.5 150,-152.5"/>
<text text-anchor="middle" x="199" y="-159.5" font-family="Helvetica,sans-Serif" font-size="10.00">GetMyExternalIP2</text>
</a>
</g>
</g>
<!-- Node1&#45;&gt;Node20 -->
<g id="edge23" class="edge"><title>Node1&#45;&gt;Node20</title>
<path fill="none" stroke="midnightblue" d="M124.249,-162C132.921,-162 141.669,-162 149.961,-162"/>
<polygon fill="midnightblue" stroke="midnightblue" points="124.137,-158.5 114.137,-162 124.137,-165.5 124.137,-158.5"/>
</g>
<!-- Node3 -->
<g id="node3" class="node"><title>Node3</title>
<g id="a_node3"><a xlink:href="class_c_addr_man.html#a03fcc7109b5f014760dc50a81f68c5ec" target="_top" xlink:title="CAddrMan::Add">
<polygon fill="white" stroke="black" points="286,-228.5 286,-247.5 374,-247.5 374,-228.5 286,-228.5"/>
<text text-anchor="middle" x="330" y="-235.5" font-family="Helvetica,sans-Serif" font-size="10.00">CAddrMan::Add</text>
</a>
</g>
</g>
<!-- Node2&#45;&gt;Node3 -->
<g id="edge2" class="edge"><title>Node2&#45;&gt;Node3</title>
<path fill="none" stroke="midnightblue" d="M256.107,-238C266.089,-238 276.344,-238 285.894,-238"/>
<polygon fill="midnightblue" stroke="midnightblue" points="255.844,-234.5 245.844,-238 255.844,-241.5 255.844,-234.5"/>
</g>
<!-- Node4 -->
<g id="node4" class="node"><title>Node4</title>
<g id="a_node4"><a xlink:href="net_8cpp.html#ab2d8883b5524ec7b80d3b9535e73a3ed" target="_top" xlink:title="Process DNS seed data from chainparams. ">
<polygon fill="white" stroke="black" points="412,-209.5 412,-228.5 541,-228.5 541,-209.5 412,-209.5"/>
<text text-anchor="middle" x="476.5" y="-216.5" font-family="Helvetica,sans-Serif" font-size="10.00">ThreadDNSAddressSeed</text>
</a>
</g>
</g>
<!-- Node3&#45;&gt;Node4 -->
<g id="edge3" class="edge"><title>Node3&#45;&gt;Node4</title>
<path fill="none" stroke="midnightblue" d="M384.282,-230.994C393.262,-229.813 402.663,-228.577 411.874,-227.366"/>
<polygon fill="midnightblue" stroke="midnightblue" points="383.813,-227.525 374.355,-232.299 384.726,-234.466 383.813,-227.525"/>
</g>
<!-- Node10 -->
<g id="node10" class="node"><title>Node10</title>
<g id="a_node10"><a xlink:href="net_8cpp.html#a3b4720330e61127963a43df26b80f804" target="_top" xlink:title="ThreadOpenConnections">
<polygon fill="white" stroke="black" points="412.5,-247.5 412.5,-266.5 540.5,-266.5 540.5,-247.5 412.5,-247.5"/>
<text text-anchor="middle" x="476.5" y="-254.5" font-family="Helvetica,sans-Serif" font-size="10.00">ThreadOpenConnections</text>
</a>
</g>
</g>
<!-- Node3&#45;&gt;Node10 -->
<g id="edge9" class="edge"><title>Node3&#45;&gt;Node10</title>
<path fill="none" stroke="midnightblue" d="M384.425,-245.025C393.536,-246.223 403.076,-247.477 412.409,-248.704"/>
<polygon fill="midnightblue" stroke="midnightblue" points="384.726,-241.534 374.355,-243.701 383.813,-248.475 384.726,-241.534"/>
</g>
<!-- Node5 -->
<g id="node5" class="node"><title>Node5</title>
<g id="a_node5"><a xlink:href="net_8h.html#a9396d8054e8f74959e9391871aaddde0" target="_top" xlink:title="StartNode">
<polygon fill="white" stroke="black" points="605.5,-209.5 605.5,-228.5 667.5,-228.5 667.5,-209.5 605.5,-209.5"/>
<text text-anchor="middle" x="636.5" y="-216.5" font-family="Helvetica,sans-Serif" font-size="10.00">StartNode</text>
</a>
</g>
</g>
<!-- Node4&#45;&gt;Node5 -->
<g id="edge4" class="edge"><title>Node4&#45;&gt;Node5</title>
<path fill="none" stroke="midnightblue" d="M551.497,-219C570.51,-219 589.911,-219 605.271,-219"/>
<polygon fill="midnightblue" stroke="midnightblue" points="551.309,-215.5 541.309,-219 551.309,-222.5 551.309,-215.5"/>
</g>
<!-- Node6 -->
<g id="node6" class="node"><title>Node6</title>
<g id="a_node6"><a xlink:href="init_8h.html#a1a4c1bfbf6ba1db77e988b89b9cadfd3" target="_top" xlink:title="Initialize anoncoin. ">
<polygon fill="white" stroke="black" points="736,-171.5 736,-190.5 789,-190.5 789,-171.5 736,-171.5"/>
<text text-anchor="middle" x="762.5" y="-178.5" font-family="Helvetica,sans-Serif" font-size="10.00">AppInit2</text>
</a>
</g>
</g>
<!-- Node5&#45;&gt;Node6 -->
<g id="edge5" class="edge"><title>Node5&#45;&gt;Node6</title>
<path fill="none" stroke="midnightblue" d="M677.232,-206.824C696.477,-200.926 719.022,-194.017 735.948,-188.83"/>
<polygon fill="midnightblue" stroke="midnightblue" points="676.053,-203.525 667.517,-209.801 678.104,-210.218 676.053,-203.525"/>
</g>
<!-- Node7 -->
<g id="node7" class="node"><title>Node7</title>
<g id="a_node7"><a xlink:href="anoncoind_8cpp.html#ac59316b767e6984e1285f0531275286b" target="_top" xlink:title="AppInit">
<polygon fill="white" stroke="black" points="868.5,-152.5 868.5,-171.5 916.5,-171.5 916.5,-152.5 868.5,-152.5"/>
<text text-anchor="middle" x="892.5" y="-159.5" font-family="Helvetica,sans-Serif" font-size="10.00">AppInit</text>
</a>
</g>
</g>
<!-- Node6&#45;&gt;Node7 -->
<g id="edge6" class="edge"><title>Node6&#45;&gt;Node7</title>
<path fill="none" stroke="midnightblue" d="M799.087,-175.718C821.128,-172.446 848.81,-168.337 868.104,-165.473"/>
<polygon fill="midnightblue" stroke="midnightblue" points="798.473,-172.27 789.095,-177.201 799.501,-179.194 798.473,-172.27"/>
</g>
<!-- Node9 -->
<g id="node9" class="node"><title>Node9</title>
<g id="a_node9"><a xlink:href="class_anoncoin_coin.html#a9510881824d283404ac43414dbb74586" target="_top" xlink:title="AnoncoinCoin::initialize">
<polygon fill="white" stroke="black" points="832.5,-190.5 832.5,-209.5 952.5,-209.5 952.5,-190.5 832.5,-190.5"/>
<text text-anchor="middle" x="892.5" y="-197.5" font-family="Helvetica,sans-Serif" font-size="10.00">AnoncoinCoin::initialize</text>
</a>
</g>
</g>
<!-- Node6&#45;&gt;Node9 -->
<g id="edge8" class="edge"><title>Node6&#45;&gt;Node9</title>
<path fill="none" stroke="midnightblue" d="M799.301,-186.314C809.572,-187.839 821.054,-189.543 832.335,-191.218"/>
<polygon fill="midnightblue" stroke="midnightblue" points="799.501,-182.806 789.095,-184.799 798.473,-189.73 799.501,-182.806"/>
</g>
<!-- Node8 -->
<g id="node8" class="node"><title>Node8</title>
<g id="a_node8"><a xlink:href="anoncoind_8cpp.html#a0ddf1224851353fc92bfbff6f499fa97" target="_top" xlink:title="main">
<polygon fill="white" stroke="black" points="992,-152.5 992,-171.5 1030,-171.5 1030,-152.5 992,-152.5"/>
<text text-anchor="middle" x="1011" y="-159.5" font-family="Helvetica,sans-Serif" font-size="10.00">main</text>
</a>
</g>
</g>
<!-- Node7&#45;&gt;Node8 -->
<g id="edge7" class="edge"><title>Node7&#45;&gt;Node8</title>
<path fill="none" stroke="midnightblue" d="M926.731,-162C947.947,-162 974.631,-162 991.99,-162"/>
<polygon fill="midnightblue" stroke="midnightblue" points="926.517,-158.5 916.517,-162 926.517,-165.5 926.517,-158.5"/>
</g>
<!-- Node10&#45;&gt;Node5 -->
<g id="edge10" class="edge"><title>Node10&#45;&gt;Node5</title>
<path fill="none" stroke="midnightblue" d="M527.293,-245.024C552.923,-238.86 583.326,-231.548 605.369,-226.247"/>
<polygon fill="midnightblue" stroke="midnightblue" points="526.274,-241.67 517.37,-247.411 527.911,-248.476 526.274,-241.67"/>
</g>
<!-- Node12 -->
<g id="node12" class="node"><title>Node12</title>
<g id="a_node12"><a xlink:href="main_8h.html#ab02615ff65f91d69f8d786ec900baa8a" target="_top" xlink:title="Register with a network node to receive its signals. ">
<polygon fill="white" stroke="black" points="581.5,-171.5 581.5,-190.5 691.5,-190.5 691.5,-171.5 581.5,-171.5"/>
<text text-anchor="middle" x="636.5" y="-178.5" font-family="Helvetica,sans-Serif" font-size="10.00">RegisterNodeSignals</text>
</a>
</g>
</g>
<!-- Node11&#45;&gt;Node12 -->
<g id="edge12" class="edge"><title>Node11&#45;&gt;Node12</title>
<path fill="none" stroke="midnightblue" d="M529.171,-181C545.927,-181 564.552,-181 581.474,-181"/>
<polygon fill="midnightblue" stroke="midnightblue" points="529.013,-177.5 519.013,-181 529.013,-184.5 529.013,-177.5"/>
</g>
<!-- Node13 -->
<g id="node13" class="node"><title>Node13</title>
<g id="a_node13"><a xlink:href="main_8h.html#a3ef0cc6e9d9d6435ee2a5569244d6ebd" target="_top" xlink:title="Unregister a network node. ">
<polygon fill="white" stroke="black" points="577,-133.5 577,-152.5 696,-152.5 696,-133.5 577,-133.5"/>
<text text-anchor="middle" x="636.5" y="-140.5" font-family="Helvetica,sans-Serif" font-size="10.00">UnregisterNodeSignals</text>
</a>
</g>
</g>
<!-- Node11&#45;&gt;Node13 -->
<g id="edge14" class="edge"><title>Node11&#45;&gt;Node13</title>
<path fill="none" stroke="midnightblue" d="M527.262,-169.032C549.403,-163.707 575.112,-157.524 595.917,-152.52"/>
<polygon fill="midnightblue" stroke="midnightblue" points="526.274,-165.67 517.37,-171.411 527.911,-172.476 526.274,-165.67"/>
</g>
<!-- Node12&#45;&gt;Node6 -->
<g id="edge13" class="edge"><title>Node12&#45;&gt;Node6</title>
<path fill="none" stroke="midnightblue" d="M701.69,-181C713.806,-181 725.811,-181 735.849,-181"/>
<polygon fill="midnightblue" stroke="midnightblue" points="701.528,-177.5 691.527,-181 701.527,-184.5 701.528,-177.5"/>
</g>
<!-- Node14 -->
<g id="node14" class="node"><title>Node14</title>
<g id="a_node14"><a xlink:href="init_8h.html#ac5f038c2b480cf9ef5e19e3eba8dbaf9" target="_top" xlink:title="Shutdown">
<polygon fill="white" stroke="black" points="732,-133.5 732,-152.5 793,-152.5 793,-133.5 732,-133.5"/>
<text text-anchor="middle" x="762.5" y="-140.5" font-family="Helvetica,sans-Serif" font-size="10.00">Shutdown</text>
</a>
</g>
</g>
<!-- Node13&#45;&gt;Node14 -->
<g id="edge15" class="edge"><title>Node13&#45;&gt;Node14</title>
<path fill="none" stroke="midnightblue" d="M706.398,-143C715.364,-143 724.136,-143 731.95,-143"/>
<polygon fill="midnightblue" stroke="midnightblue" points="706.232,-139.5 696.232,-143 706.232,-146.5 706.232,-139.5"/>
</g>
<!-- Node14&#45;&gt;Node7 -->
<g id="edge16" class="edge"><title>Node14&#45;&gt;Node7</title>
<path fill="none" stroke="midnightblue" d="M803.288,-148.906C824.659,-152.078 850.255,-155.878 868.357,-158.565"/>
<polygon fill="midnightblue" stroke="midnightblue" points="803.593,-145.413 793.188,-147.407 802.565,-152.337 803.593,-145.413"/>
</g>
<!-- Node15 -->
<g id="node15" class="node"><title>Node15</title>
<g id="a_node15"><a xlink:href="class_anoncoin_coin.html#ac33fbca9335d356d9d6102a0122f2a5b" target="_top" xlink:title="AnoncoinCoin::shutdown">
<polygon fill="white" stroke="black" points="829,-114.5 829,-133.5 956,-133.5 956,-114.5 829,-114.5"/>
<text text-anchor="middle" x="892.5" y="-121.5" font-family="Helvetica,sans-Serif" font-size="10.00">AnoncoinCoin::shutdown</text>
</a>
</g>
</g>
<!-- Node14&#45;&gt;Node15 -->
<g id="edge17" class="edge"><title>Node14&#45;&gt;Node15</title>
<path fill="none" stroke="midnightblue" d="M803.157,-137.113C811.329,-135.9 820.123,-134.595 828.883,-133.295"/>
<polygon fill="midnightblue" stroke="midnightblue" points="802.565,-133.663 793.188,-138.593 803.593,-140.587 802.565,-133.663"/>
</g>
<!-- Node16&#45;&gt;Node6 -->
<g id="edge19" class="edge"><title>Node16&#45;&gt;Node6</title>
<path fill="none" stroke="midnightblue" d="M238.235,-80.0251C324.712,-68.3442 539.935,-49.6791 696,-124 717.004,-134.003 714.092,-147.15 732,-162 736.033,-165.344 740.685,-168.586 745.086,-171.416"/>
<polygon fill="midnightblue" stroke="midnightblue" points="237.519,-76.5912 228.1,-81.443 238.489,-83.5237 237.519,-76.5912"/>
</g>
<!-- Node17 -->
<g id="node17" class="node"><title>Node17</title>
<g id="a_node17"><a xlink:href="net_8h.html#abda4e8f87772f9a9d9d8f52a93791ffc" target="_top" xlink:title="AddLocal">
<polygon fill="white" stroke="black" points="301,-38.5 301,-57.5 359,-57.5 359,-38.5 301,-38.5"/>
<text text-anchor="middle" x="330" y="-45.5" font-family="Helvetica,sans-Serif" font-size="10.00">AddLocal</text>
</a>
</g>
</g>
<!-- Node16&#45;&gt;Node17 -->
<g id="edge20" class="edge"><title>Node16&#45;&gt;Node17</title>
<path fill="none" stroke="midnightblue" d="M238.085,-74.7812C258.164,-68.8665 282.371,-61.7358 300.756,-56.3198"/>
<polygon fill="midnightblue" stroke="midnightblue" points="236.913,-71.4776 228.31,-77.6607 238.891,-78.1923 236.913,-71.4776"/>
</g>
<!-- Node18 -->
<g id="node18" class="node"><title>Node18</title>
<g id="a_node18"><a xlink:href="net_8cpp.html#a1148dd8edf6d69bebabe041ba6da6158" target="_top" xlink:title="ThreadGetMyExternalIP">
<polygon fill="white" stroke="black" points="414.5,-133.5 414.5,-152.5 538.5,-152.5 538.5,-133.5 414.5,-133.5"/>
<text text-anchor="middle" x="476.5" y="-140.5" font-family="Helvetica,sans-Serif" font-size="10.00">ThreadGetMyExternalIP</text>
</a>
</g>
</g>
<!-- Node16&#45;&gt;Node18 -->
<g id="edge21" class="edge"><title>Node16&#45;&gt;Node18</title>
<path fill="none" stroke="midnightblue" d="M238.262,-93.9162C288.252,-104.259 375.713,-122.354 429.33,-133.448"/>
<polygon fill="midnightblue" stroke="midnightblue" points="238.69,-90.4309 228.189,-91.8321 237.272,-97.2857 238.69,-90.4309"/>
</g>
<!-- Node16&#45;&gt;Node19 -->
<g id="edge22" class="edge"><title>Node16&#45;&gt;Node19</title>
<path fill="none" stroke="midnightblue" d="M220.976,-70.0587C237.54,-57.8979 261.528,-41.214 284,-29 290.259,-25.5982 297.255,-22.3832 303.831,-19.5987"/>
<polygon fill="midnightblue" stroke="midnightblue" points="218.53,-67.516 212.594,-76.2922 222.707,-73.1329 218.53,-67.516"/>
</g>
<!-- Node21 -->
<g id="node21" class="node"><title>Node21</title>
<g id="a_node21"><a xlink:href="net_8h.html#a27ffa42cb391e77b144781a73ed18368" target="_top" xlink:title="GetMyExternalIP">
<polygon fill="white" stroke="black" points="284,-152.5 284,-171.5 376,-171.5 376,-152.5 284,-152.5"/>
<text text-anchor="middle" x="330" y="-159.5" font-family="Helvetica,sans-Serif" font-size="10.00">GetMyExternalIP</text>
</a>
</g>
</g>
<!-- Node20&#45;&gt;Node21 -->
<g id="edge24" class="edge"><title>Node20&#45;&gt;Node21</title>
<path fill="none" stroke="midnightblue" d="M258.095,-162C266.757,-162 275.575,-162 283.916,-162"/>
<polygon fill="midnightblue" stroke="midnightblue" points="258.035,-158.5 248.035,-162 258.035,-165.5 258.035,-158.5"/>
</g>
<!-- Node21&#45;&gt;Node18 -->
<g id="edge25" class="edge"><title>Node21&#45;&gt;Node18</title>
<path fill="none" stroke="midnightblue" d="M386.466,-154.707C395.622,-153.503 405.159,-152.249 414.443,-151.028"/>
<polygon fill="midnightblue" stroke="midnightblue" points="385.783,-151.267 376.324,-156.04 386.695,-158.207 385.783,-151.267"/>
</g>
</g>
</svg>
