<?xml version="1.0" encoding="UTF-8" standalone="no"?>
<!DOCTYPE svg PUBLIC "-//W3C//DTD SVG 1.1//EN"
 "http://www.w3.org/Graphics/SVG/1.1/DTD/svg11.dtd">
<!-- Generated by graphviz version 2.38.0 (20140413.2041)
 -->
<!-- Title: AnoncoinAmountField::text Pages: 1 -->
<svg width="583pt" height="88pt"
 viewBox="0.00 0.00 583.00 88.00" xmlns="http://www.w3.org/2000/svg" xmlns:xlink="http://www.w3.org/1999/xlink">
<g id="graph0" class="graph" transform="scale(1 1) rotate(0) translate(4 84)">
<title>AnoncoinAmountField::text</title>
<polygon fill="white" stroke="none" points="-4,4 -4,-84 579,-84 579,4 -4,4"/>
<!-- Node1 -->
<g id="node1" class="node"><title>Node1</title>
<polygon fill="#bfbfbf" stroke="black" points="0,-24.5 0,-54.5 114,-54.5 114,-24.5 0,-24.5"/>
<text text-anchor="start" x="8" y="-42.5" font-family="Helvetica,sans-Serif" font-size="10.00">AnoncoinAmountField</text>
<text text-anchor="middle" x="57" y="-31.5" font-family="Helvetica,sans-Serif" font-size="10.00">::text</text>
</g>
<!-- Node2 -->
<g id="node2" class="node"><title>Node2</title>
<g id="a_node2"><a xlink:href="class_anoncoin_amount_field.html#ae0766727d1352a21980231772200c0ad" target="_top" xlink:title="Perform input validation, mark field as invalid if entered value is not valid. ">
<polygon fill="white" stroke="black" points="150,-49.5 150,-79.5 264,-79.5 264,-49.5 150,-49.5"/>
<text text-anchor="start" x="158" y="-67.5" font-family="Helvetica,sans-Serif" font-size="10.00">AnoncoinAmountField</text>
<text text-anchor="middle" x="207" y="-56.5" font-family="Helvetica,sans-Serif" font-size="10.00">::validate</text>
</a>
</g>
</g>
<!-- Node1&#45;&gt;Node2 -->
<g id="edge1" class="edge"><title>Node1&#45;&gt;Node2</title>
<path fill="none" stroke="midnightblue" d="M124.28,-50.696C132.796,-52.1344 141.449,-53.5961 149.782,-55.0037"/>
<polygon fill="midnightblue" stroke="midnightblue" points="124.818,-47.2373 114.375,-49.0227 123.652,-54.1395 124.818,-47.2373"/>
</g>
<!-- Node5 -->
<g id="node5" class="node"><title>Node5</title>
<g id="a_node5"><a xlink:href="class_anoncoin_amount_field.html#a90dac4b003496dcb510858d50e29ec90" target="_top" xlink:title="AnoncoinAmountField\l::value">
<polygon fill="white" stroke="black" points="150,-0.5 150,-30.5 264,-30.5 264,-0.5 150,-0.5"/>
<text text-anchor="start" x="158" y="-18.5" font-family="Helvetica,sans-Serif" font-size="10.00">AnoncoinAmountField</text>
<text text-anchor="middle" x="207" y="-7.5" font-family="Helvetica,sans-Serif" font-size="10.00">::value</text>
</a>
</g>
</g>
<!-- Node1&#45;&gt;Node5 -->
<g id="edge4" class="edge"><title>Node1&#45;&gt;Node5</title>
<path fill="none" stroke="midnightblue" d="M124.28,-28.7519C132.796,-27.371 141.449,-25.9678 149.782,-24.6164"/>
<polygon fill="midnightblue" stroke="midnightblue" points="123.685,-25.3025 114.375,-30.3582 124.806,-32.2122 123.685,-25.3025"/>
</g>
<!-- Node3 -->
<g id="node3" class="node"><title>Node3</title>
<g id="a_node3"><a xlink:href="class_send_coins_entry.html#ab77df95fe77e9a001190cd4dabe0dfec" target="_top" xlink:title="SendCoinsEntry::validate">
<polygon fill="white" stroke="black" points="300,-55 300,-74 429,-74 429,-55 300,-55"/>
<text text-anchor="middle" x="364.5" y="-62" font-family="Helvetica,sans-Serif" font-size="10.00">SendCoinsEntry::validate</text>
</a>
</g>
</g>
<!-- Node2&#45;&gt;Node3 -->
<g id="edge2" class="edge"><title>Node2&#45;&gt;Node3</title>
<path fill="none" stroke="midnightblue" d="M274.319,-64.5C282.762,-64.5 291.389,-64.5 299.79,-64.5"/>
<polygon fill="midnightblue" stroke="midnightblue" points="274.139,-61.0001 264.139,-64.5 274.139,-68.0001 274.139,-61.0001"/>
</g>
<!-- Node4 -->
<g id="node4" class="node"><title>Node4</title>
<g id="a_node4"><a xlink:href="class_send_coins_dialog.html#a2cab7cf9ea5040b9e2189297f7d3c764" target="_top" xlink:title="SendCoinsDialog::on\l_sendButton_clicked">
<polygon fill="white" stroke="black" points="465,-49.5 465,-79.5 575,-79.5 575,-49.5 465,-49.5"/>
<text text-anchor="start" x="473" y="-67.5" font-family="Helvetica,sans-Serif" font-size="10.00">SendCoinsDialog::on</text>
<text text-anchor="middle" x="520" y="-56.5" font-family="Helvetica,sans-Serif" font-size="10.00">_sendButton_clicked</text>
</a>
</g>
</g>
<!-- Node3&#45;&gt;Node4 -->
<g id="edge3" class="edge"><title>Node3&#45;&gt;Node4</title>
<path fill="none" stroke="midnightblue" d="M439.347,-64.5C447.978,-64.5 456.658,-64.5 464.949,-64.5"/>
<polygon fill="midnightblue" stroke="midnightblue" points="439.264,-61.0001 429.264,-64.5 439.264,-68.0001 439.264,-61.0001"/>
</g>
</g>
</svg>
