<?xml version="1.0" encoding="UTF-8" standalone="no"?>
<!DOCTYPE svg PUBLIC "-//W3C//DTD SVG 1.1//EN"
 "http://www.w3.org/Graphics/SVG/1.1/DTD/svg11.dtd">
<!-- Generated by graphviz version 2.38.0 (20140413.2041)
 -->
<!-- Title: AnoncoinUnits::decimals Pages: 1 -->
<svg width="1097pt" height="1018pt"
 viewBox="0.00 0.00 1097.00 1017.50" xmlns="http://www.w3.org/2000/svg" xmlns:xlink="http://www.w3.org/1999/xlink">
<g id="graph0" class="graph" transform="scale(1 1) rotate(0) translate(4 1013.5)">
<title>AnoncoinUnits::decimals</title>
<polygon fill="white" stroke="none" points="-4,4 -4,-1013.5 1093,-1013.5 1093,4 -4,4"/>
<!-- Node1 -->
<g id="node1" class="node"><title>Node1</title>
<polygon fill="#bfbfbf" stroke="black" points="0,-751.5 0,-770.5 126,-770.5 126,-751.5 0,-751.5"/>
<text text-anchor="middle" x="63" y="-758.5" font-family="Helvetica,sans-Serif" font-size="10.00">AnoncoinUnits::decimals</text>
</g>
<!-- Node2 -->
<g id="node2" class="node"><title>Node2</title>
<g id="a_node2"><a xlink:href="class_anoncoin_amount_field.html#a57a80569ce0ee2a8aee65d040a559dd4" target="_top" xlink:title="AnoncoinAmountField\l::unitChanged">
<polygon fill="white" stroke="black" points="527.5,-881 527.5,-911 641.5,-911 641.5,-881 527.5,-881"/>
<text text-anchor="start" x="535.5" y="-899" font-family="Helvetica,sans-Serif" font-size="10.00">AnoncoinAmountField</text>
<text text-anchor="middle" x="584.5" y="-888" font-family="Helvetica,sans-Serif" font-size="10.00">::unitChanged</text>
</a>
</g>
</g>
<!-- Node1&#45;&gt;Node2 -->
<g id="edge1" class="edge"><title>Node1&#45;&gt;Node2</title>
<path fill="none" stroke="midnightblue" d="M88.2514,-775.825C131.553,-801.449 225.817,-853.438 313,-876 385.371,-894.729 472.005,-897.92 527.382,-897.643"/>
<polygon fill="midnightblue" stroke="midnightblue" points="89.9448,-772.76 79.5657,-770.632 86.3529,-778.768 89.9448,-772.76"/>
</g>
<!-- Node6 -->
<g id="node6" class="node"><title>Node6</title>
<g id="a_node6"><a xlink:href="class_anoncoin_units.html#acbdb244b3fc381599233882de4284e34" target="_top" xlink:title="Format as string. ">
<polygon fill="white" stroke="black" points="162,-751.5 162,-770.5 277,-770.5 277,-751.5 162,-751.5"/>
<text text-anchor="middle" x="219.5" y="-758.5" font-family="Helvetica,sans-Serif" font-size="10.00">AnoncoinUnits::format</text>
</a>
</g>
</g>
<!-- Node1&#45;&gt;Node6 -->
<g id="edge5" class="edge"><title>Node1&#45;&gt;Node6</title>
<path fill="none" stroke="midnightblue" d="M136.655,-761C145.118,-761 153.655,-761 161.857,-761"/>
<polygon fill="midnightblue" stroke="midnightblue" points="136.396,-757.5 126.396,-761 136.396,-764.5 136.396,-757.5"/>
</g>
<!-- Node40 -->
<g id="node40" class="node"><title>Node40</title>
<g id="a_node40"><a xlink:href="class_anoncoin_units.html#a66092d654e5411fd7e43e94ba786a919" target="_top" xlink:title="Parse string to coin amount. ">
<polygon fill="white" stroke="black" points="333.5,-127.5 333.5,-146.5 445.5,-146.5 445.5,-127.5 333.5,-127.5"/>
<text text-anchor="middle" x="389.5" y="-134.5" font-family="Helvetica,sans-Serif" font-size="10.00">AnoncoinUnits::parse</text>
</a>
</g>
</g>
<!-- Node1&#45;&gt;Node40 -->
<g id="edge45" class="edge"><title>Node1&#45;&gt;Node40</title>
<path fill="none" stroke="midnightblue" d="M73.4693,-742.577C106.381,-678.573 218.919,-459.952 313,-280 339.274,-229.744 371.092,-169.764 383.346,-146.696"/>
<polygon fill="midnightblue" stroke="midnightblue" points="70.3455,-740.998 68.8859,-751.492 76.571,-744.199 70.3455,-740.998"/>
</g>
<!-- Node3 -->
<g id="node3" class="node"><title>Node3</title>
<g id="a_node3"><a xlink:href="class_anoncoin_amount_field.html#a4b2c8c4c44291ec9e60bc0a85b645e5f" target="_top" xlink:title="AnoncoinAmountField\l::AnoncoinAmountField">
<polygon fill="white" stroke="black" points="740.5,-881 740.5,-911 860.5,-911 860.5,-881 740.5,-881"/>
<text text-anchor="start" x="748.5" y="-899" font-family="Helvetica,sans-Serif" font-size="10.00">AnoncoinAmountField</text>
<text text-anchor="middle" x="800.5" y="-888" font-family="Helvetica,sans-Serif" font-size="10.00">::AnoncoinAmountField</text>
</a>
</g>
</g>
<!-- Node2&#45;&gt;Node3 -->
<g id="edge2" class="edge"><title>Node2&#45;&gt;Node3</title>
<path fill="none" stroke="midnightblue" d="M651.918,-896C680.174,-896 712.864,-896 740.284,-896"/>
<polygon fill="midnightblue" stroke="midnightblue" points="651.726,-892.5 641.726,-896 651.726,-899.5 651.726,-892.5"/>
</g>
<!-- Node4 -->
<g id="node4" class="node"><title>Node4</title>
<g id="a_node4"><a xlink:href="class_anoncoin_amount_field.html#a168a4f11d296a1a9b17dc164f5f5f11e" target="_top" xlink:title="Set single step in satoshis. ">
<polygon fill="white" stroke="black" points="743.5,-930 743.5,-960 857.5,-960 857.5,-930 743.5,-930"/>
<text text-anchor="start" x="751.5" y="-948" font-family="Helvetica,sans-Serif" font-size="10.00">AnoncoinAmountField</text>
<text text-anchor="middle" x="800.5" y="-937" font-family="Helvetica,sans-Serif" font-size="10.00">::setSingleStep</text>
</a>
</g>
</g>
<!-- Node2&#45;&gt;Node4 -->
<g id="edge3" class="edge"><title>Node2&#45;&gt;Node4</title>
<path fill="none" stroke="midnightblue" d="M651.49,-911.11C680.879,-917.839 715.13,-925.682 743.278,-932.127"/>
<polygon fill="midnightblue" stroke="midnightblue" points="652.255,-907.695 641.726,-908.874 650.693,-914.518 652.255,-907.695"/>
</g>
<!-- Node5 -->
<g id="node5" class="node"><title>Node5</title>
<g id="a_node5"><a xlink:href="class_options_dialog.html#a8131b615e29560144ffb368b9b07060a" target="_top" xlink:title="OptionsDialog::OptionsDialog">
<polygon fill="white" stroke="black" points="937.5,-935.5 937.5,-954.5 1085.5,-954.5 1085.5,-935.5 937.5,-935.5"/>
<text text-anchor="middle" x="1011.5" y="-942.5" font-family="Helvetica,sans-Serif" font-size="10.00">OptionsDialog::OptionsDialog</text>
</a>
</g>
</g>
<!-- Node4&#45;&gt;Node5 -->
<g id="edge4" class="edge"><title>Node4&#45;&gt;Node5</title>
<path fill="none" stroke="midnightblue" d="M867.513,-945C889.741,-945 914.669,-945 937.409,-945"/>
<polygon fill="midnightblue" stroke="midnightblue" points="867.508,-941.5 857.508,-945 867.508,-948.5 867.508,-941.5"/>
</g>
<!-- Node7 -->
<g id="node7" class="node"><title>Node7</title>
<g id="a_node7"><a xlink:href="class_anoncoin_amount_field.html#adcb07ed5c03e94809a1eb9bd00b8b98f" target="_top" xlink:title="AnoncoinAmountField\l::setValue">
<polygon fill="white" stroke="black" points="332.5,-837 332.5,-867 446.5,-867 446.5,-837 332.5,-837"/>
<text text-anchor="start" x="340.5" y="-855" font-family="Helvetica,sans-Serif" font-size="10.00">AnoncoinAmountField</text>
<text text-anchor="middle" x="389.5" y="-844" font-family="Helvetica,sans-Serif" font-size="10.00">::setValue</text>
</a>
</g>
</g>
<!-- Node6&#45;&gt;Node7 -->
<g id="edge6" class="edge"><title>Node6&#45;&gt;Node7</title>
<path fill="none" stroke="midnightblue" d="M243.475,-776.31C261.901,-788.305 288.623,-805.07 313,-818 325.572,-824.669 339.712,-831.264 352.326,-836.846"/>
<polygon fill="midnightblue" stroke="midnightblue" points="245.177,-773.241 234.897,-770.68 241.337,-779.093 245.177,-773.241"/>
</g>
<!-- Node10 -->
<g id="node10" class="node"><title>Node10</title>
<g id="a_node10"><a xlink:href="class_anoncoin_units.html#a07b2ad9cac3728231143e4d78c059e14" target="_top" xlink:title="Format as string (with unit) ">
<polygon fill="white" stroke="black" points="313,-491.5 313,-510.5 466,-510.5 466,-491.5 313,-491.5"/>
<text text-anchor="middle" x="389.5" y="-498.5" font-family="Helvetica,sans-Serif" font-size="10.00">AnoncoinUnits::formatWithUnit</text>
</a>
</g>
</g>
<!-- Node6&#45;&gt;Node10 -->
<g id="edge10" class="edge"><title>Node6&#45;&gt;Node10</title>
<path fill="none" stroke="midnightblue" d="M232.27,-742.784C265.189,-691.838 357.415,-549.107 382.265,-510.649"/>
<polygon fill="midnightblue" stroke="midnightblue" points="229.166,-741.139 226.678,-751.438 235.045,-744.938 229.166,-741.139"/>
</g>
<!-- Node30 -->
<g id="node30" class="node"><title>Node30</title>
<g id="a_node30"><a xlink:href="class_coin_control_dialog.html#aadea33050e5c1efd5eae8d2fcfa721f9" target="_top" xlink:title="CoinControlDialog::\lupdateView">
<polygon fill="white" stroke="black" points="338,-713 338,-743 441,-743 441,-713 338,-713"/>
<text text-anchor="start" x="346" y="-731" font-family="Helvetica,sans-Serif" font-size="10.00">CoinControlDialog::</text>
<text text-anchor="middle" x="389.5" y="-720" font-family="Helvetica,sans-Serif" font-size="10.00">updateView</text>
</a>
</g>
</g>
<!-- Node6&#45;&gt;Node30 -->
<g id="edge33" class="edge"><title>Node6&#45;&gt;Node30</title>
<path fill="none" stroke="midnightblue" d="M278.945,-749.52C298.175,-745.742 319.381,-741.577 337.972,-737.925"/>
<polygon fill="midnightblue" stroke="midnightblue" points="278.23,-746.093 269.093,-751.455 279.58,-752.962 278.23,-746.093"/>
</g>
<!-- Node33 -->
<g id="node33" class="node"><title>Node33</title>
<g id="a_node33"><a xlink:href="namespace_g_u_i_util.html#a87288c8a7c8e7ca91358dfba17fd402b" target="_top" xlink:title="GUIUtil::formatAnoncoinURI">
<polygon fill="white" stroke="black" points="318.5,-289.5 318.5,-308.5 460.5,-308.5 460.5,-289.5 318.5,-289.5"/>
<text text-anchor="middle" x="389.5" y="-296.5" font-family="Helvetica,sans-Serif" font-size="10.00">GUIUtil::formatAnoncoinURI</text>
</a>
</g>
</g>
<!-- Node6&#45;&gt;Node33 -->
<g id="edge37" class="edge"><title>Node6&#45;&gt;Node33</title>
<path fill="none" stroke="midnightblue" d="M226.445,-741.483C240.484,-695.77 277.208,-578.338 313,-482 337.896,-414.989 372.178,-336.062 384.158,-308.821"/>
<polygon fill="midnightblue" stroke="midnightblue" points="223.028,-740.689 223.448,-751.276 229.721,-742.738 223.028,-740.689"/>
</g>
<!-- Node35 -->
<g id="node35" class="node"><title>Node35</title>
<g id="a_node35"><a xlink:href="class_recent_requests_table_model.html#a899a483b2d6fd33a034d2781c5d638b7" target="_top" xlink:title="RecentRequestsTableModel\l::data">
<polygon fill="white" stroke="black" points="318,-930 318,-960 461,-960 461,-930 318,-930"/>
<text text-anchor="start" x="326" y="-948" font-family="Helvetica,sans-Serif" font-size="10.00">RecentRequestsTableModel</text>
<text text-anchor="middle" x="389.5" y="-937" font-family="Helvetica,sans-Serif" font-size="10.00">::data</text>
</a>
</g>
</g>
<!-- Node6&#45;&gt;Node35 -->
<g id="edge40" class="edge"><title>Node6&#45;&gt;Node35</title>
<path fill="none" stroke="midnightblue" d="M233.525,-778.868C250.75,-802.092 282.5,-843.513 313,-876 331.474,-895.677 354.627,-916.313 370.39,-929.832"/>
<polygon fill="midnightblue" stroke="midnightblue" points="236.218,-776.623 227.47,-770.646 230.581,-780.773 236.218,-776.623"/>
</g>
<!-- Node38 -->
<g id="node38" class="node"><title>Node38</title>
<g id="a_node38"><a xlink:href="class_transaction_table_model.html#abcec6af1000e66d990e3d07bcc9b8617" target="_top" xlink:title="TransactionTableModel\l::formatTxAmount">
<polygon fill="white" stroke="black" points="329,-779 329,-809 450,-809 450,-779 329,-779"/>
<text text-anchor="start" x="337" y="-797" font-family="Helvetica,sans-Serif" font-size="10.00">TransactionTableModel</text>
<text text-anchor="middle" x="389.5" y="-786" font-family="Helvetica,sans-Serif" font-size="10.00">::formatTxAmount</text>
</a>
</g>
</g>
<!-- Node6&#45;&gt;Node38 -->
<g id="edge43" class="edge"><title>Node6&#45;&gt;Node38</title>
<path fill="none" stroke="midnightblue" d="M278.966,-772.484C295.153,-775.664 312.737,-779.118 328.983,-782.309"/>
<polygon fill="midnightblue" stroke="midnightblue" points="279.58,-769.038 269.093,-770.545 278.23,-775.907 279.58,-769.038"/>
</g>
<!-- Node7&#45;&gt;Node2 -->
<g id="edge7" class="edge"><title>Node7&#45;&gt;Node2</title>
<path fill="none" stroke="midnightblue" d="M456.603,-867.07C479.599,-872.313 505.158,-878.14 527.277,-883.182"/>
<polygon fill="midnightblue" stroke="midnightblue" points="457.111,-863.596 446.583,-864.786 455.555,-870.421 457.111,-863.596"/>
</g>
<!-- Node8 -->
<g id="node8" class="node"><title>Node8</title>
<g id="a_node8"><a xlink:href="class_send_coins_entry.html#a513dd22231d0d7c2550c5533e9518cf5" target="_top" xlink:title="SendCoinsEntry::setValue">
<polygon fill="white" stroke="black" points="518,-842.5 518,-861.5 651,-861.5 651,-842.5 518,-842.5"/>
<text text-anchor="middle" x="584.5" y="-849.5" font-family="Helvetica,sans-Serif" font-size="10.00">SendCoinsEntry::setValue</text>
</a>
</g>
</g>
<!-- Node7&#45;&gt;Node8 -->
<g id="edge8" class="edge"><title>Node7&#45;&gt;Node8</title>
<path fill="none" stroke="midnightblue" d="M456.707,-852C476.432,-852 498.037,-852 517.734,-852"/>
<polygon fill="midnightblue" stroke="midnightblue" points="456.583,-848.5 446.583,-852 456.583,-855.5 456.583,-848.5"/>
</g>
<!-- Node9 -->
<g id="node9" class="node"><title>Node9</title>
<g id="a_node9"><a xlink:href="class_send_coins_dialog.html#a4440d15ced5d217baaad33a17d56b409" target="_top" xlink:title="SendCoinsDialog::pasteEntry">
<polygon fill="white" stroke="red" points="727,-842.5 727,-861.5 874,-861.5 874,-842.5 727,-842.5"/>
<text text-anchor="middle" x="800.5" y="-849.5" font-family="Helvetica,sans-Serif" font-size="10.00">SendCoinsDialog::pasteEntry</text>
</a>
</g>
</g>
<!-- Node8&#45;&gt;Node9 -->
<g id="edge9" class="edge"><title>Node8&#45;&gt;Node9</title>
<path fill="none" stroke="midnightblue" d="M661.446,-852C682.724,-852 705.795,-852 726.875,-852"/>
<polygon fill="midnightblue" stroke="midnightblue" points="661.161,-848.5 651.161,-852 661.161,-855.5 661.161,-848.5"/>
</g>
<!-- Node11 -->
<g id="node11" class="node"><title>Node11</title>
<g id="a_node11"><a xlink:href="class_coin_control_dialog.html#a4fc60e89b097952ff22dc0f9c58c87d9" target="_top" xlink:title="CoinControlDialog::\lupdateLabels">
<polygon fill="white" stroke="black" points="533,-530 533,-560 636,-560 636,-530 533,-530"/>
<text text-anchor="start" x="541" y="-548" font-family="Helvetica,sans-Serif" font-size="10.00">CoinControlDialog::</text>
<text text-anchor="middle" x="584.5" y="-537" font-family="Helvetica,sans-Serif" font-size="10.00">updateLabels</text>
</a>
</g>
</g>
<!-- Node10&#45;&gt;Node11 -->
<g id="edge11" class="edge"><title>Node10&#45;&gt;Node11</title>
<path fill="none" stroke="midnightblue" d="M442.395,-512.831C470.439,-519.224 504.927,-527.087 532.788,-533.439"/>
<polygon fill="midnightblue" stroke="midnightblue" points="442.906,-509.358 432.378,-510.547 441.35,-516.183 442.906,-509.358"/>
</g>
<!-- Node17 -->
<g id="node17" class="node"><title>Node17</title>
<g id="a_node17"><a xlink:href="class_send_coins_dialog.html#a2cab7cf9ea5040b9e2189297f7d3c764" target="_top" xlink:title="SendCoinsDialog::on\l_sendButton_clicked">
<polygon fill="white" stroke="black" points="956.5,-360 956.5,-390 1066.5,-390 1066.5,-360 956.5,-360"/>
<text text-anchor="start" x="964.5" y="-378" font-family="Helvetica,sans-Serif" font-size="10.00">SendCoinsDialog::on</text>
<text text-anchor="middle" x="1011.5" y="-367" font-family="Helvetica,sans-Serif" font-size="10.00">_sendButton_clicked</text>
</a>
</g>
</g>
<!-- Node10&#45;&gt;Node17 -->
<g id="edge29" class="edge"><title>Node10&#45;&gt;Node17</title>
<path fill="none" stroke="midnightblue" d="M404.246,-483.32C423.338,-460.293 460.275,-420.979 502,-404 657.002,-340.925 860.727,-355.259 956.429,-367.022"/>
<polygon fill="midnightblue" stroke="midnightblue" points="401.389,-481.288 397.831,-491.268 406.835,-485.685 401.389,-481.288"/>
</g>
<!-- Node18 -->
<g id="node18" class="node"><title>Node18</title>
<g id="a_node18"><a xlink:href="class_tx_view_delegate.html#affeec94c01339a5eeb31b648c41baf02" target="_top" xlink:title="TxViewDelegate::paint">
<polygon fill="white" stroke="black" points="526,-579.5 526,-598.5 643,-598.5 643,-579.5 526,-579.5"/>
<text text-anchor="middle" x="584.5" y="-586.5" font-family="Helvetica,sans-Serif" font-size="10.00">TxViewDelegate::paint</text>
</a>
</g>
</g>
<!-- Node10&#45;&gt;Node18 -->
<g id="edge18" class="edge"><title>Node10&#45;&gt;Node18</title>
<path fill="none" stroke="midnightblue" d="M411.308,-516.397C432.954,-531.747 468.328,-554.996 502,-569 512.089,-573.196 523.262,-576.65 534.017,-579.437"/>
<polygon fill="midnightblue" stroke="midnightblue" points="413.344,-513.55 403.183,-510.548 409.254,-519.231 413.344,-513.55"/>
</g>
<!-- Node19 -->
<g id="node19" class="node"><title>Node19</title>
<g id="a_node19"><a xlink:href="class_overview_page.html#a2d7f91310a24a1612a9e1182e7b8788f" target="_top" xlink:title="OverviewPage::setBalance">
<polygon fill="white" stroke="black" points="516,-617.5 516,-636.5 653,-636.5 653,-617.5 516,-617.5"/>
<text text-anchor="middle" x="584.5" y="-624.5" font-family="Helvetica,sans-Serif" font-size="10.00">OverviewPage::setBalance</text>
</a>
</g>
</g>
<!-- Node10&#45;&gt;Node19 -->
<g id="edge19" class="edge"><title>Node10&#45;&gt;Node19</title>
<path fill="none" stroke="midnightblue" d="M403.8,-518.717C422.835,-542.765 460.201,-585.332 502,-608 509.152,-611.879 517.075,-614.97 525.089,-617.432"/>
<polygon fill="midnightblue" stroke="midnightblue" points="406.532,-516.529 397.641,-510.766 400.998,-520.815 406.532,-516.529"/>
</g>
<!-- Node22 -->
<g id="node22" class="node"><title>Node22</title>
<g id="a_node22"><a xlink:href="class_payment_server.html#abe96a7c90755b8e1975e380b5a8228bd" target="_top" xlink:title="PaymentServer::processPayment\lRequest">
<polygon fill="white" stroke="black" points="502,-442 502,-472 667,-472 667,-442 502,-442"/>
<text text-anchor="start" x="510" y="-460" font-family="Helvetica,sans-Serif" font-size="10.00">PaymentServer::processPayment</text>
<text text-anchor="middle" x="584.5" y="-449" font-family="Helvetica,sans-Serif" font-size="10.00">Request</text>
</a>
</g>
</g>
<!-- Node10&#45;&gt;Node22 -->
<g id="edge23" class="edge"><title>Node10&#45;&gt;Node22</title>
<path fill="none" stroke="midnightblue" d="M442.317,-489.187C465.406,-483.923 492.874,-477.661 517.418,-472.065"/>
<polygon fill="midnightblue" stroke="midnightblue" points="441.35,-485.817 432.378,-491.453 442.906,-492.642 441.35,-485.817"/>
</g>
<!-- Node25 -->
<g id="node25" class="node"><title>Node25</title>
<g id="a_node25"><a xlink:href="class_receive_request_dialog.html#a8e1c0ee2fbacf42b4dc7ea05986c86c9" target="_top" xlink:title="ReceiveRequestDialog\l::update">
<polygon fill="white" stroke="black" points="525.5,-284 525.5,-314 643.5,-314 643.5,-284 525.5,-284"/>
<text text-anchor="start" x="533.5" y="-302" font-family="Helvetica,sans-Serif" font-size="10.00">ReceiveRequestDialog</text>
<text text-anchor="middle" x="584.5" y="-291" font-family="Helvetica,sans-Serif" font-size="10.00">::update</text>
</a>
</g>
</g>
<!-- Node10&#45;&gt;Node25 -->
<g id="edge26" class="edge"><title>Node10&#45;&gt;Node25</title>
<path fill="none" stroke="midnightblue" d="M402.807,-482.757C422.106,-454.848 461.485,-400.624 502,-361 520.175,-343.224 543.476,-325.962 560.504,-314.185"/>
<polygon fill="midnightblue" stroke="midnightblue" points="399.82,-480.925 397.06,-491.154 405.597,-484.879 399.82,-480.925"/>
</g>
<!-- Node28 -->
<g id="node28" class="node"><title>Node28</title>
<g id="a_node28"><a xlink:href="class_send_coins_dialog.html#aa30d6c807c69320433f490fe6047383b" target="_top" xlink:title="SendCoinsDialog::setBalance">
<polygon fill="white" stroke="red" points="726,-403.5 726,-422.5 875,-422.5 875,-403.5 726,-403.5"/>
<text text-anchor="middle" x="800.5" y="-410.5" font-family="Helvetica,sans-Serif" font-size="10.00">SendCoinsDialog::setBalance</text>
</a>
</g>
</g>
<!-- Node10&#45;&gt;Node28 -->
<g id="edge30" class="edge"><title>Node10&#45;&gt;Node28</title>
<path fill="none" stroke="midnightblue" d="M409.434,-485.177C430.522,-468.586 466.357,-443.377 502,-432 575.586,-408.512 664.489,-405.954 725.838,-407.904"/>
<polygon fill="midnightblue" stroke="midnightblue" points="407.192,-482.489 401.596,-491.485 411.58,-487.942 407.192,-482.489"/>
</g>
<!-- Node29 -->
<g id="node29" class="node"><title>Node29</title>
<g id="a_node29"><a xlink:href="class_transaction_desc.html#ab7c9dbb2048aae121dd9d75df86e64f4" target="_top" xlink:title="TransactionDesc::toHTML">
<polygon fill="white" stroke="red" points="518,-491.5 518,-510.5 651,-510.5 651,-491.5 518,-491.5"/>
<text text-anchor="middle" x="584.5" y="-498.5" font-family="Helvetica,sans-Serif" font-size="10.00">TransactionDesc::toHTML</text>
</a>
</g>
</g>
<!-- Node10&#45;&gt;Node29 -->
<g id="edge32" class="edge"><title>Node10&#45;&gt;Node29</title>
<path fill="none" stroke="midnightblue" d="M476.274,-501C490.17,-501 504.367,-501 517.693,-501"/>
<polygon fill="midnightblue" stroke="midnightblue" points="476.225,-497.5 466.225,-501 476.225,-504.5 476.225,-497.5"/>
</g>
<!-- Node12 -->
<g id="node12" class="node"><title>Node12</title>
<g id="a_node12"><a xlink:href="class_coin_control_dialog.html#a4c34a48574814089c54f763a22f5317a" target="_top" xlink:title="CoinControlDialog::\lsetModel">
<polygon fill="white" stroke="red" points="749,-677 749,-707 852,-707 852,-677 749,-677"/>
<text text-anchor="start" x="757" y="-695" font-family="Helvetica,sans-Serif" font-size="10.00">CoinControlDialog::</text>
<text text-anchor="middle" x="800.5" y="-684" font-family="Helvetica,sans-Serif" font-size="10.00">setModel</text>
</a>
</g>
</g>
<!-- Node11&#45;&gt;Node12 -->
<g id="edge12" class="edge"><title>Node11&#45;&gt;Node12</title>
<path fill="none" stroke="midnightblue" d="M645.902,-556.488C653.64,-559.889 660.955,-564.294 667,-570 700.441,-601.564 668.871,-636.182 703,-667 715.588,-678.367 732.68,-684.694 748.983,-688.175"/>
<polygon fill="midnightblue" stroke="midnightblue" points="646.903,-553.123 636.312,-552.818 644.401,-559.661 646.903,-553.123"/>
</g>
<!-- Node13 -->
<g id="node13" class="node"><title>Node13</title>
<g id="a_node13"><a xlink:href="class_coin_control_dialog.html#ae106a71c5b87ac8bea8c52e7c4f4a129" target="_top" xlink:title="CoinControlDialog::\lbuttonSelectAllClicked">
<polygon fill="white" stroke="red" points="742.5,-589 742.5,-619 858.5,-619 858.5,-589 742.5,-589"/>
<text text-anchor="start" x="750.5" y="-607" font-family="Helvetica,sans-Serif" font-size="10.00">CoinControlDialog::</text>
<text text-anchor="middle" x="800.5" y="-596" font-family="Helvetica,sans-Serif" font-size="10.00">buttonSelectAllClicked</text>
</a>
</g>
</g>
<!-- Node11&#45;&gt;Node13 -->
<g id="edge13" class="edge"><title>Node11&#45;&gt;Node13</title>
<path fill="none" stroke="midnightblue" d="M645.713,-562.776C664.074,-568.102 684.338,-573.884 703,-579 715.685,-582.478 729.343,-586.094 742.279,-589.46"/>
<polygon fill="midnightblue" stroke="midnightblue" points="646.598,-559.389 636.018,-559.956 644.642,-566.11 646.598,-559.389"/>
</g>
<!-- Node14 -->
<g id="node14" class="node"><title>Node14</title>
<g id="a_node14"><a xlink:href="class_coin_control_dialog.html#ac3c37dabd83f71d9c96bf5567fe85234" target="_top" xlink:title="CoinControlDialog::\lviewItemChanged">
<polygon fill="white" stroke="red" points="749,-540 749,-570 852,-570 852,-540 749,-540"/>
<text text-anchor="start" x="757" y="-558" font-family="Helvetica,sans-Serif" font-size="10.00">CoinControlDialog::</text>
<text text-anchor="middle" x="800.5" y="-547" font-family="Helvetica,sans-Serif" font-size="10.00">viewItemChanged</text>
</a>
</g>
</g>
<!-- Node11&#45;&gt;Node14 -->
<g id="edge14" class="edge"><title>Node11&#45;&gt;Node14</title>
<path fill="none" stroke="midnightblue" d="M646.456,-547.848C678.811,-549.36 718.107,-551.197 748.779,-552.63"/>
<polygon fill="midnightblue" stroke="midnightblue" points="646.368,-544.341 636.215,-547.37 646.041,-551.333 646.368,-544.341"/>
</g>
<!-- Node15 -->
<g id="node15" class="node"><title>Node15</title>
<g id="a_node15"><a xlink:href="class_send_coins_dialog.html#ae4f429aabcaf309aa314b90049be2a74" target="_top" xlink:title="SendCoinsDialog::coinControl\lUpdateLabels">
<polygon fill="white" stroke="red" points="725.5,-491 725.5,-521 875.5,-521 875.5,-491 725.5,-491"/>
<text text-anchor="start" x="733.5" y="-509" font-family="Helvetica,sans-Serif" font-size="10.00">SendCoinsDialog::coinControl</text>
<text text-anchor="middle" x="800.5" y="-498" font-family="Helvetica,sans-Serif" font-size="10.00">UpdateLabels</text>
</a>
</g>
</g>
<!-- Node11&#45;&gt;Node15 -->
<g id="edge15" class="edge"><title>Node11&#45;&gt;Node15</title>
<path fill="none" stroke="midnightblue" d="M646.136,-533.95C670.739,-529.466 699.398,-524.243 725.237,-519.534"/>
<polygon fill="midnightblue" stroke="midnightblue" points="645.425,-530.521 636.215,-535.758 646.681,-537.408 645.425,-530.521"/>
</g>
<!-- Node16 -->
<g id="node16" class="node"><title>Node16</title>
<g id="a_node16"><a xlink:href="class_send_coins_dialog.html#a73a6c1b1850a334ee652ac167713a2aa" target="_top" xlink:title="SendCoinsDialog::setModel">
<polygon fill="white" stroke="red" points="941.5,-453.5 941.5,-472.5 1081.5,-472.5 1081.5,-453.5 941.5,-453.5"/>
<text text-anchor="middle" x="1011.5" y="-460.5" font-family="Helvetica,sans-Serif" font-size="10.00">SendCoinsDialog::setModel</text>
</a>
</g>
</g>
<!-- Node15&#45;&gt;Node16 -->
<g id="edge16" class="edge"><title>Node15&#45;&gt;Node16</title>
<path fill="none" stroke="midnightblue" d="M884.49,-488.925C911.629,-483.342 940.79,-477.342 964.217,-472.522"/>
<polygon fill="midnightblue" stroke="midnightblue" points="883.688,-485.517 874.598,-490.961 885.098,-492.374 883.688,-485.517"/>
</g>
<!-- Node15&#45;&gt;Node17 -->
<g id="edge17" class="edge"><title>Node15&#45;&gt;Node17</title>
<path fill="none" stroke="midnightblue" d="M885.009,-487.541C889.506,-485.574 893.868,-483.4 898,-481 917.839,-469.475 917.473,-459.914 934,-444 953.841,-424.895 977.494,-403.806 993.193,-390.034"/>
<polygon fill="midnightblue" stroke="midnightblue" points="883.608,-484.332 875.624,-491.297 886.209,-490.831 883.608,-484.332"/>
</g>
<!-- Node20 -->
<g id="node20" class="node"><title>Node20</title>
<g id="a_node20"><a xlink:href="class_overview_page.html#a2ed52a3a87e9c74fee38fa873c9bc71f" target="_top" xlink:title="OverviewPage::setWalletModel">
<polygon fill="white" stroke="red" points="934,-682.5 934,-701.5 1089,-701.5 1089,-682.5 934,-682.5"/>
<text text-anchor="middle" x="1011.5" y="-689.5" font-family="Helvetica,sans-Serif" font-size="10.00">OverviewPage::setWalletModel</text>
</a>
</g>
</g>
<!-- Node19&#45;&gt;Node20 -->
<g id="edge20" class="edge"><title>Node19&#45;&gt;Node20</title>
<path fill="none" stroke="midnightblue" d="M659.684,-641.079C662.24,-642.564 664.691,-644.199 667,-646 694.586,-667.516 673.137,-697.777 703,-716 796.248,-772.901 936.147,-723.876 989.134,-701.612"/>
<polygon fill="midnightblue" stroke="midnightblue" points="661.157,-637.903 650.644,-636.592 658.045,-644.173 661.157,-637.903"/>
</g>
<!-- Node21 -->
<g id="node21" class="node"><title>Node21</title>
<g id="a_node21"><a xlink:href="class_overview_page.html#a03f19b9afd9af4b72d9bba7b0c7cf900" target="_top" xlink:title="OverviewPage::updateDisplayUnit">
<polygon fill="white" stroke="black" points="716.5,-638.5 716.5,-657.5 884.5,-657.5 884.5,-638.5 716.5,-638.5"/>
<text text-anchor="middle" x="800.5" y="-645.5" font-family="Helvetica,sans-Serif" font-size="10.00">OverviewPage::updateDisplayUnit</text>
</a>
</g>
</g>
<!-- Node19&#45;&gt;Node21 -->
<g id="edge21" class="edge"><title>Node19&#45;&gt;Node21</title>
<path fill="none" stroke="midnightblue" d="M663.253,-634.63C680.551,-636.327 698.954,-638.133 716.456,-639.851"/>
<polygon fill="midnightblue" stroke="midnightblue" points="663.505,-631.138 653.211,-633.645 662.821,-638.105 663.505,-631.138"/>
</g>
<!-- Node21&#45;&gt;Node20 -->
<g id="edge22" class="edge"><title>Node21&#45;&gt;Node20</title>
<path fill="none" stroke="midnightblue" d="M861.211,-659.522C873.394,-661.938 886.119,-664.511 898,-667 921.499,-671.924 947.687,-677.724 968.88,-682.498"/>
<polygon fill="midnightblue" stroke="midnightblue" points="861.623,-656.036 851.135,-657.533 860.268,-662.903 861.623,-656.036"/>
</g>
<!-- Node23 -->
<g id="node23" class="node"><title>Node23</title>
<g id="a_node23"><a xlink:href="class_payment_server.html#adf4f844b3ce7f053690fd9260210640d" target="_top" xlink:title="PaymentServer::handleURIOrFile">
<polygon fill="white" stroke="red" points="718,-327.5 718,-346.5 883,-346.5 883,-327.5 718,-327.5"/>
<text text-anchor="middle" x="800.5" y="-334.5" font-family="Helvetica,sans-Serif" font-size="10.00">PaymentServer::handleURIOrFile</text>
</a>
</g>
</g>
<!-- Node22&#45;&gt;Node23 -->
<g id="edge24" class="edge"><title>Node22&#45;&gt;Node23</title>
<path fill="none" stroke="midnightblue" d="M621.481,-436.824C668.18,-410.638 747.785,-365.999 782.487,-346.54"/>
<polygon fill="midnightblue" stroke="midnightblue" points="619.614,-433.858 612.603,-441.802 623.037,-439.964 619.614,-433.858"/>
</g>
<!-- Node24 -->
<g id="node24" class="node"><title>Node24</title>
<g id="a_node24"><a xlink:href="class_payment_server.html#a5b8e2e6380142fb7ad631400bcfc6f28" target="_top" xlink:title="PaymentServer::netRequest\lFinished">
<polygon fill="white" stroke="red" points="729.5,-442 729.5,-472 871.5,-472 871.5,-442 729.5,-442"/>
<text text-anchor="start" x="737.5" y="-460" font-family="Helvetica,sans-Serif" font-size="10.00">PaymentServer::netRequest</text>
<text text-anchor="middle" x="800.5" y="-449" font-family="Helvetica,sans-Serif" font-size="10.00">Finished</text>
</a>
</g>
</g>
<!-- Node22&#45;&gt;Node24 -->
<g id="edge25" class="edge"><title>Node22&#45;&gt;Node24</title>
<path fill="none" stroke="midnightblue" d="M677.223,-457C694.696,-457 712.723,-457 729.389,-457"/>
<polygon fill="midnightblue" stroke="midnightblue" points="677.015,-453.5 667.015,-457 677.015,-460.5 677.015,-453.5"/>
</g>
<!-- Node26 -->
<g id="node26" class="node"><title>Node26</title>
<g id="a_node26"><a xlink:href="class_receive_request_dialog.html#ad57b3bf409346660842360836fd8569d" target="_top" xlink:title="ReceiveRequestDialog\l::setModel">
<polygon fill="white" stroke="red" points="741.5,-229 741.5,-259 859.5,-259 859.5,-229 741.5,-229"/>
<text text-anchor="start" x="749.5" y="-247" font-family="Helvetica,sans-Serif" font-size="10.00">ReceiveRequestDialog</text>
<text text-anchor="middle" x="800.5" y="-236" font-family="Helvetica,sans-Serif" font-size="10.00">::setModel</text>
</a>
</g>
</g>
<!-- Node25&#45;&gt;Node26 -->
<g id="edge27" class="edge"><title>Node25&#45;&gt;Node26</title>
<path fill="none" stroke="midnightblue" d="M651.636,-281.375C668.382,-276.961 686.343,-272.268 703,-268 715.375,-264.829 728.66,-261.486 741.293,-258.335"/>
<polygon fill="midnightblue" stroke="midnightblue" points="650.711,-278 641.936,-283.937 652.498,-284.768 650.711,-278"/>
</g>
<!-- Node27 -->
<g id="node27" class="node"><title>Node27</title>
<g id="a_node27"><a xlink:href="class_receive_request_dialog.html#a43344270ef71e68ad9c7a931cc0ca9ed" target="_top" xlink:title="ReceiveRequestDialog\l::setInfo">
<polygon fill="white" stroke="red" points="741.5,-278 741.5,-308 859.5,-308 859.5,-278 741.5,-278"/>
<text text-anchor="start" x="749.5" y="-296" font-family="Helvetica,sans-Serif" font-size="10.00">ReceiveRequestDialog</text>
<text text-anchor="middle" x="800.5" y="-285" font-family="Helvetica,sans-Serif" font-size="10.00">::setInfo</text>
</a>
</g>
</g>
<!-- Node25&#45;&gt;Node27 -->
<g id="edge28" class="edge"><title>Node25&#45;&gt;Node27</title>
<path fill="none" stroke="midnightblue" d="M653.865,-297.083C682.027,-296.294 714.313,-295.388 741.318,-294.631"/>
<polygon fill="midnightblue" stroke="midnightblue" points="653.592,-293.589 643.694,-297.368 653.788,-300.587 653.592,-293.589"/>
</g>
<!-- Node28&#45;&gt;Node16 -->
<g id="edge31" class="edge"><title>Node28&#45;&gt;Node16</title>
<path fill="none" stroke="midnightblue" d="M863.673,-424.533C875.121,-426.857 886.946,-429.393 898,-432 925.211,-438.418 955.776,-446.925 978.172,-453.404"/>
<polygon fill="midnightblue" stroke="midnightblue" points="864.23,-421.075 853.738,-422.548 862.858,-427.939 864.23,-421.075"/>
</g>
<!-- Node30&#45;&gt;Node12 -->
<g id="edge34" class="edge"><title>Node30&#45;&gt;Node12</title>
<path fill="none" stroke="midnightblue" d="M451.354,-739.959C507.746,-749.056 593.724,-757.864 667,-744 704.15,-736.971 744.222,-719.77 770.454,-707.066"/>
<polygon fill="midnightblue" stroke="midnightblue" points="451.618,-736.455 441.178,-738.263 450.467,-743.36 451.618,-736.455"/>
</g>
<!-- Node31 -->
<g id="node31" class="node"><title>Node31</title>
<g id="a_node31"><a xlink:href="class_coin_control_dialog.html#a1990d478f3ffba666c358a4f1bd395ec" target="_top" xlink:title="CoinControlDialog::\lradioTreeMode">
<polygon fill="white" stroke="red" points="533,-705 533,-735 636,-735 636,-705 533,-705"/>
<text text-anchor="start" x="541" y="-723" font-family="Helvetica,sans-Serif" font-size="10.00">CoinControlDialog::</text>
<text text-anchor="middle" x="584.5" y="-712" font-family="Helvetica,sans-Serif" font-size="10.00">radioTreeMode</text>
</a>
</g>
</g>
<!-- Node30&#45;&gt;Node31 -->
<g id="edge35" class="edge"><title>Node30&#45;&gt;Node31</title>
<path fill="none" stroke="midnightblue" d="M451.401,-725.476C477.592,-724.39 507.851,-723.136 532.795,-722.102"/>
<polygon fill="midnightblue" stroke="midnightblue" points="451.055,-721.987 441.208,-725.898 451.345,-728.981 451.055,-721.987"/>
</g>
<!-- Node32 -->
<g id="node32" class="node"><title>Node32</title>
<g id="a_node32"><a xlink:href="class_coin_control_dialog.html#a775c6d290cb63667a434b09072094533" target="_top" xlink:title="CoinControlDialog::\lradioListMode">
<polygon fill="white" stroke="red" points="533,-656 533,-686 636,-686 636,-656 533,-656"/>
<text text-anchor="start" x="541" y="-674" font-family="Helvetica,sans-Serif" font-size="10.00">CoinControlDialog::</text>
<text text-anchor="middle" x="584.5" y="-663" font-family="Helvetica,sans-Serif" font-size="10.00">radioListMode</text>
</a>
</g>
</g>
<!-- Node30&#45;&gt;Node32 -->
<g id="edge36" class="edge"><title>Node30&#45;&gt;Node32</title>
<path fill="none" stroke="midnightblue" d="M450.618,-710.191C467.26,-705.265 485.329,-699.922 502,-695 511.903,-692.077 522.483,-688.957 532.631,-685.968"/>
<polygon fill="midnightblue" stroke="midnightblue" points="449.601,-706.842 441.005,-713.036 451.588,-713.554 449.601,-706.842"/>
</g>
<!-- Node33&#45;&gt;Node25 -->
<g id="edge38" class="edge"><title>Node33&#45;&gt;Node25</title>
<path fill="none" stroke="midnightblue" d="M470.793,-299C489.099,-299 508.206,-299 525.376,-299"/>
<polygon fill="midnightblue" stroke="midnightblue" points="470.723,-295.5 460.723,-299 470.723,-302.5 470.723,-295.5"/>
</g>
<!-- Node34 -->
<g id="node34" class="node"><title>Node34</title>
<g id="a_node34"><a xlink:href="class_receive_request_dialog.html#aa1287ed7ecc2a35f3dbf0e9938f4b096" target="_top" xlink:title="ReceiveRequestDialog\l::on_btnCopyURI_clicked">
<polygon fill="white" stroke="black" points="520,-235 520,-265 649,-265 649,-235 520,-235"/>
<text text-anchor="start" x="528" y="-253" font-family="Helvetica,sans-Serif" font-size="10.00">ReceiveRequestDialog</text>
<text text-anchor="middle" x="584.5" y="-242" font-family="Helvetica,sans-Serif" font-size="10.00">::on_btnCopyURI_clicked</text>
</a>
</g>
</g>
<!-- Node33&#45;&gt;Node34 -->
<g id="edge39" class="edge"><title>Node33&#45;&gt;Node34</title>
<path fill="none" stroke="midnightblue" d="M438.166,-286.898C464.186,-280.292 496.639,-272.053 524.273,-265.037"/>
<polygon fill="midnightblue" stroke="midnightblue" points="437.002,-283.583 428.171,-289.436 438.724,-290.367 437.002,-283.583"/>
</g>
<!-- Node36 -->
<g id="node36" class="node"><title>Node36</title>
<g id="a_node36"><a xlink:href="class_receive_coins_dialog.html#adcf53aced7dfa041a55278b4807a20a2" target="_top" xlink:title="ReceiveCoinsDialog\l::copyColumnToClipboard">
<polygon fill="white" stroke="red" points="518.5,-930 518.5,-960 650.5,-960 650.5,-930 518.5,-930"/>
<text text-anchor="start" x="526.5" y="-948" font-family="Helvetica,sans-Serif" font-size="10.00">ReceiveCoinsDialog</text>
<text text-anchor="middle" x="584.5" y="-937" font-family="Helvetica,sans-Serif" font-size="10.00">::copyColumnToClipboard</text>
</a>
</g>
</g>
<!-- Node35&#45;&gt;Node36 -->
<g id="edge41" class="edge"><title>Node35&#45;&gt;Node36</title>
<path fill="none" stroke="midnightblue" d="M471.478,-945C487.162,-945 503.408,-945 518.499,-945"/>
<polygon fill="midnightblue" stroke="midnightblue" points="471.27,-941.5 461.27,-945 471.27,-948.5 471.27,-941.5"/>
</g>
<!-- Node37 -->
<g id="node37" class="node"><title>Node37</title>
<g id="a_node37"><a xlink:href="class_recent_requests_table_model.html#aad0b9435284ed1f4b67852b34d7694a9" target="_top" xlink:title="RecentRequestsTableModel\l::addNewRequest">
<polygon fill="white" stroke="black" points="513,-979 513,-1009 656,-1009 656,-979 513,-979"/>
<text text-anchor="start" x="521" y="-997" font-family="Helvetica,sans-Serif" font-size="10.00">RecentRequestsTableModel</text>
<text text-anchor="middle" x="584.5" y="-986" font-family="Helvetica,sans-Serif" font-size="10.00">::addNewRequest</text>
</a>
</g>
</g>
<!-- Node35&#45;&gt;Node37 -->
<g id="edge42" class="edge"><title>Node35&#45;&gt;Node37</title>
<path fill="none" stroke="midnightblue" d="M459.625,-962.55C480.819,-967.931 503.933,-973.799 524.394,-978.994"/>
<polygon fill="midnightblue" stroke="midnightblue" points="460.272,-959.103 449.718,-960.035 458.549,-965.888 460.272,-959.103"/>
</g>
<!-- Node39 -->
<g id="node39" class="node"><title>Node39</title>
<g id="a_node39"><a xlink:href="class_transaction_table_model.html#a416d0751ab9a95ecd87d3f7bed4f0b06" target="_top" xlink:title="TransactionTableModel\l::data">
<polygon fill="white" stroke="red" points="524,-793 524,-823 645,-823 645,-793 524,-793"/>
<text text-anchor="start" x="532" y="-811" font-family="Helvetica,sans-Serif" font-size="10.00">TransactionTableModel</text>
<text text-anchor="middle" x="584.5" y="-800" font-family="Helvetica,sans-Serif" font-size="10.00">::data</text>
</a>
</g>
</g>
<!-- Node38&#45;&gt;Node39 -->
<g id="edge44" class="edge"><title>Node38&#45;&gt;Node39</title>
<path fill="none" stroke="midnightblue" d="M460.281,-799.062C481.057,-800.569 503.627,-802.206 523.705,-803.663"/>
<polygon fill="midnightblue" stroke="midnightblue" points="460.472,-795.567 450.245,-798.334 459.965,-802.548 460.472,-795.567"/>
</g>
<!-- Node41 -->
<g id="node41" class="node"><title>Node41</title>
<g id="a_node41"><a xlink:href="class_anoncoin_amount_field.html#ae0766727d1352a21980231772200c0ad" target="_top" xlink:title="Perform input validation, mark field as invalid if entered value is not valid. ">
<polygon fill="white" stroke="black" points="527.5,-179 527.5,-209 641.5,-209 641.5,-179 527.5,-179"/>
<text text-anchor="start" x="535.5" y="-197" font-family="Helvetica,sans-Serif" font-size="10.00">AnoncoinAmountField</text>
<text text-anchor="middle" x="584.5" y="-186" font-family="Helvetica,sans-Serif" font-size="10.00">::validate</text>
</a>
</g>
</g>
<!-- Node40&#45;&gt;Node41 -->
<g id="edge46" class="edge"><title>Node40&#45;&gt;Node41</title>
<path fill="none" stroke="midnightblue" d="M432.751,-149.478C462.127,-158.154 501.439,-169.764 532.552,-178.953"/>
<polygon fill="midnightblue" stroke="midnightblue" points="433.386,-146.016 422.804,-146.541 431.403,-152.73 433.386,-146.016"/>
</g>
<!-- Node43 -->
<g id="node43" class="node"><title>Node43</title>
<g id="a_node43"><a xlink:href="class_anoncoin_amount_field.html#a90dac4b003496dcb510858d50e29ec90" target="_top" xlink:title="AnoncoinAmountField\l::value">
<polygon fill="white" stroke="black" points="527.5,-29 527.5,-59 641.5,-59 641.5,-29 527.5,-29"/>
<text text-anchor="start" x="535.5" y="-47" font-family="Helvetica,sans-Serif" font-size="10.00">AnoncoinAmountField</text>
<text text-anchor="middle" x="584.5" y="-36" font-family="Helvetica,sans-Serif" font-size="10.00">::value</text>
</a>
</g>
</g>
<!-- Node40&#45;&gt;Node43 -->
<g id="edge49" class="edge"><title>Node40&#45;&gt;Node43</title>
<path fill="none" stroke="midnightblue" d="M411.766,-121.426C433.522,-106.087 468.755,-82.8572 502,-68 509.945,-64.4493 518.557,-61.2605 527.106,-58.4553"/>
<polygon fill="midnightblue" stroke="midnightblue" points="409.683,-118.613 403.582,-127.274 413.753,-124.308 409.683,-118.613"/>
</g>
<!-- Node44 -->
<g id="node44" class="node"><title>Node44</title>
<g id="a_node44"><a xlink:href="namespace_g_u_i_util.html#a80503cefefdc17af8e975682342066c4" target="_top" xlink:title="GUIUtil::parseAnoncoinURI">
<polygon fill="white" stroke="black" points="515.5,-127.5 515.5,-146.5 653.5,-146.5 653.5,-127.5 515.5,-127.5"/>
<text text-anchor="middle" x="584.5" y="-134.5" font-family="Helvetica,sans-Serif" font-size="10.00">GUIUtil::parseAnoncoinURI</text>
</a>
</g>
</g>
<!-- Node40&#45;&gt;Node44 -->
<g id="edge50" class="edge"><title>Node40&#45;&gt;Node44</title>
<path fill="none" stroke="midnightblue" d="M455.698,-137C474.894,-137 495.944,-137 515.322,-137"/>
<polygon fill="midnightblue" stroke="midnightblue" points="455.548,-133.5 445.548,-137 455.548,-140.5 455.548,-133.5"/>
</g>
<!-- Node49 -->
<g id="node49" class="node"><title>Node49</title>
<g id="a_node49"><a xlink:href="class_transaction_view.html#a0075048c06bb54da5c5e5d2691198984" target="_top" xlink:title="TransactionView::changed\lAmount">
<polygon fill="white" stroke="black" points="517.5,-78 517.5,-108 651.5,-108 651.5,-78 517.5,-78"/>
<text text-anchor="start" x="525.5" y="-96" font-family="Helvetica,sans-Serif" font-size="10.00">TransactionView::changed</text>
<text text-anchor="middle" x="584.5" y="-85" font-family="Helvetica,sans-Serif" font-size="10.00">Amount</text>
</a>
</g>
</g>
<!-- Node40&#45;&gt;Node49 -->
<g id="edge56" class="edge"><title>Node40&#45;&gt;Node49</title>
<path fill="none" stroke="midnightblue" d="M442.317,-125.187C465.406,-119.923 492.874,-113.661 517.418,-108.065"/>
<polygon fill="midnightblue" stroke="midnightblue" points="441.35,-121.817 432.378,-127.453 442.906,-128.642 441.35,-121.817"/>
</g>
<!-- Node42 -->
<g id="node42" class="node"><title>Node42</title>
<g id="a_node42"><a xlink:href="class_send_coins_entry.html#ab77df95fe77e9a001190cd4dabe0dfec" target="_top" xlink:title="SendCoinsEntry::validate">
<polygon fill="white" stroke="black" points="736,-190.5 736,-209.5 865,-209.5 865,-190.5 736,-190.5"/>
<text text-anchor="middle" x="800.5" y="-197.5" font-family="Helvetica,sans-Serif" font-size="10.00">SendCoinsEntry::validate</text>
</a>
</g>
</g>
<!-- Node41&#45;&gt;Node42 -->
<g id="edge47" class="edge"><title>Node41&#45;&gt;Node42</title>
<path fill="none" stroke="midnightblue" d="M651.762,-195.858C678.501,-196.607 709.23,-197.469 735.714,-198.212"/>
<polygon fill="midnightblue" stroke="midnightblue" points="651.82,-192.358 641.726,-195.576 651.624,-199.355 651.82,-192.358"/>
</g>
<!-- Node42&#45;&gt;Node17 -->
<g id="edge48" class="edge"><title>Node42&#45;&gt;Node17</title>
<path fill="none" stroke="midnightblue" d="M874.816,-208.281C882.999,-210.967 890.923,-214.462 898,-219 953.373,-254.509 990.144,-327.747 1004.15,-359.619"/>
<polygon fill="midnightblue" stroke="midnightblue" points="875.703,-204.894 865.125,-205.486 873.763,-211.62 875.703,-204.894"/>
</g>
<!-- Node44&#45;&gt;Node23 -->
<g id="edge54" class="edge"><title>Node44&#45;&gt;Node23</title>
<path fill="none" stroke="midnightblue" d="M641.088,-150.49C650.813,-155.007 660.031,-161.016 667,-169 711.517,-220 654.319,-269.959 703,-317 707.306,-321.161 712.239,-324.559 717.546,-327.323"/>
<polygon fill="midnightblue" stroke="midnightblue" points="642.244,-147.181 631.665,-146.6 639.573,-153.651 642.244,-147.181"/>
</g>
<!-- Node45 -->
<g id="node45" class="node"><title>Node45</title>
<g id="a_node45"><a xlink:href="namespace_g_u_i_util.html#a0944cc05abd2679bd41e0dee8e95377f" target="_top" xlink:title="GUIUtil::parseAnoncoinURI">
<polygon fill="white" stroke="black" points="731.5,-114.5 731.5,-133.5 869.5,-133.5 869.5,-114.5 731.5,-114.5"/>
<text text-anchor="middle" x="800.5" y="-121.5" font-family="Helvetica,sans-Serif" font-size="10.00">GUIUtil::parseAnoncoinURI</text>
</a>
</g>
</g>
<!-- Node44&#45;&gt;Node45 -->
<g id="edge51" class="edge"><title>Node44&#45;&gt;Node45</title>
<path fill="none" stroke="midnightblue" d="M663.561,-132.258C685.755,-130.91 709.745,-129.452 731.305,-128.143"/>
<polygon fill="midnightblue" stroke="midnightblue" points="663.274,-128.769 653.505,-132.869 663.699,-135.756 663.274,-128.769"/>
</g>
<!-- Node46 -->
<g id="node46" class="node"><title>Node46</title>
<g id="a_node46"><a xlink:href="class_open_u_r_i_dialog.html#a3c0c5b376623e9570cc17e23778c239c" target="_top" xlink:title="OpenURIDialog::accept">
<polygon fill="white" stroke="black" points="739.5,-76.5 739.5,-95.5 861.5,-95.5 861.5,-76.5 739.5,-76.5"/>
<text text-anchor="middle" x="800.5" y="-83.5" font-family="Helvetica,sans-Serif" font-size="10.00">OpenURIDialog::accept</text>
</a>
</g>
</g>
<!-- Node44&#45;&gt;Node46 -->
<g id="edge52" class="edge"><title>Node44&#45;&gt;Node46</title>
<path fill="none" stroke="midnightblue" d="M636.97,-125.041C646.97,-122.528 657.342,-119.79 667,-117 683.203,-112.32 686.693,-109.304 703,-105 716.373,-101.47 730.944,-98.2718 744.617,-95.5486"/>
<polygon fill="midnightblue" stroke="midnightblue" points="636.002,-121.675 627.134,-127.472 637.681,-128.47 636.002,-121.675"/>
</g>
<!-- Node47 -->
<g id="node47" class="node"><title>Node47</title>
<g id="a_node47"><a xlink:href="class_payment_server.html#a5ed254902d978ed1e482055754d0f4a4" target="_top" xlink:title="PaymentServer::ipcParseCommandLine">
<polygon fill="white" stroke="red" points="703,-38.5 703,-57.5 898,-57.5 898,-38.5 703,-38.5"/>
<text text-anchor="middle" x="800.5" y="-45.5" font-family="Helvetica,sans-Serif" font-size="10.00">PaymentServer::ipcParseCommandLine</text>
</a>
</g>
</g>
<!-- Node44&#45;&gt;Node47 -->
<g id="edge53" class="edge"><title>Node44&#45;&gt;Node47</title>
<path fill="none" stroke="midnightblue" d="M655.175,-123.597C659.318,-121.683 663.3,-119.497 667,-117 689.697,-101.681 679.955,-81.7903 703,-67 709.035,-63.1264 715.688,-60.0125 722.593,-57.5131"/>
<polygon fill="midnightblue" stroke="midnightblue" points="653.842,-120.361 645.893,-127.366 656.475,-126.846 653.842,-120.361"/>
</g>
<!-- Node48 -->
<g id="node48" class="node"><title>Node48</title>
<g id="a_node48"><a xlink:href="class_u_r_i_tests.html#a8a53ef232349a4a68182ab62dcf8cfd8" target="_top" xlink:title="URITests::uriTests">
<polygon fill="white" stroke="black" points="751,-152.5 751,-171.5 850,-171.5 850,-152.5 751,-152.5"/>
<text text-anchor="middle" x="800.5" y="-159.5" font-family="Helvetica,sans-Serif" font-size="10.00">URITests::uriTests</text>
</a>
</g>
</g>
<!-- Node44&#45;&gt;Node48 -->
<g id="edge55" class="edge"><title>Node44&#45;&gt;Node48</title>
<path fill="none" stroke="midnightblue" d="M663.655,-146.13C692.759,-149.53 724.939,-153.29 750.671,-156.296"/>
<polygon fill="midnightblue" stroke="midnightblue" points="663.844,-142.629 653.505,-144.945 663.031,-149.581 663.844,-142.629"/>
</g>
<!-- Node50 -->
<g id="node50" class="node"><title>Node50</title>
<g id="a_node50"><a xlink:href="class_transaction_view.html#a0c5e8b90206b4e8b8bf68dd7e319798f" target="_top" xlink:title="TransactionView::TransactionView">
<polygon fill="white" stroke="black" points="715.5,-0.5 715.5,-19.5 885.5,-19.5 885.5,-0.5 715.5,-0.5"/>
<text text-anchor="middle" x="800.5" y="-7.5" font-family="Helvetica,sans-Serif" font-size="10.00">TransactionView::TransactionView</text>
</a>
</g>
</g>
<!-- Node49&#45;&gt;Node50 -->
<g id="edge57" class="edge"><title>Node49&#45;&gt;Node50</title>
<path fill="none" stroke="midnightblue" d="M656.435,-73.8427C660.096,-72.0553 663.643,-70.1117 667,-68 686.967,-55.4397 682.412,-40.5134 703,-29 709.93,-25.1247 717.526,-22.0303 725.318,-19.561"/>
<polygon fill="midnightblue" stroke="midnightblue" points="654.862,-70.7117 647.145,-77.9712 657.705,-77.1085 654.862,-70.7117"/>
</g>
</g>
</svg>
