<?xml version="1.0" encoding="UTF-8" standalone="no"?>
<!DOCTYPE svg PUBLIC "-//W3C//DTD SVG 1.1//EN"
 "http://www.w3.org/Graphics/SVG/1.1/DTD/svg11.dtd">
<!-- Generated by graphviz version 2.38.0 (20140413.2041)
 -->
<!-- Title: GUIUtil::TableViewLastColumnResizingFixer::disconnectViewHeadersSignals Pages: 1 -->
<svg width="1258pt" height="136pt"
 viewBox="0.00 0.00 1258.00 136.34" xmlns="http://www.w3.org/2000/svg" xmlns:xlink="http://www.w3.org/1999/xlink">
<g id="graph0" class="graph" transform="scale(1 1) rotate(0) translate(4 132.345)">
<title>GUIUtil::TableViewLastColumnResizingFixer::disconnectViewHeadersSignals</title>
<polygon fill="white" stroke="none" points="-4,4 -4,-132.345 1254,-132.345 1254,4 -4,4"/>
<!-- Node1 -->
<g id="node1" class="node"><title>Node1</title>
<polygon fill="#bfbfbf" stroke="black" points="0,-11 0,-52 190,-52 190,-11 0,-11"/>
<text text-anchor="start" x="8" y="-40" font-family="Helvetica,sans-Serif" font-size="10.00">GUIUtil::TableViewLastColumn</text>
<text text-anchor="start" x="8" y="-29" font-family="Helvetica,sans-Serif" font-size="10.00">ResizingFixer::disconnectViewHeaders</text>
<text text-anchor="middle" x="95" y="-18" font-family="Helvetica,sans-Serif" font-size="10.00">Signals</text>
</g>
<!-- Node2 -->
<g id="node2" class="node"><title>Node2</title>
<g id="a_node2"><a xlink:href="class_g_u_i_util_1_1_table_view_last_column_resizing_fixer.html#ac5622cca5767d788033fff5d54629d7f" target="_top" xlink:title="GUIUtil::TableViewLastColumn\lResizingFixer::adjustTableColumnsWidth">
<polygon fill="white" stroke="black" points="226,-60.5 226,-90.5 425,-90.5 425,-60.5 226,-60.5"/>
<text text-anchor="start" x="234" y="-78.5" font-family="Helvetica,sans-Serif" font-size="10.00">GUIUtil::TableViewLastColumn</text>
<text text-anchor="middle" x="325.5" y="-67.5" font-family="Helvetica,sans-Serif" font-size="10.00">ResizingFixer::adjustTableColumnsWidth</text>
</a>
</g>
</g>
<!-- Node1&#45;&gt;Node2 -->
<g id="edge1" class="edge"><title>Node1&#45;&gt;Node2</title>
<path fill="none" stroke="midnightblue" d="M200.391,-51.6016C215.882,-54.5844 231.615,-57.6141 246.442,-60.4692"/>
<polygon fill="midnightblue" stroke="midnightblue" points="200.74,-48.1046 190.259,-49.6505 199.417,-54.9783 200.74,-48.1046"/>
</g>
<!-- Node5 -->
<g id="node5" class="node"><title>Node5</title>
<g id="a_node5"><a xlink:href="class_g_u_i_util_1_1_table_view_last_column_resizing_fixer.html#a89971ed347cf9d25e02cfb7d9c7e3ca6" target="_top" xlink:title="GUIUtil::TableViewLastColumn\lResizingFixer::stretchColumnWidth">
<polygon fill="white" stroke="black" points="885,-53.5 885,-83.5 1058,-83.5 1058,-53.5 885,-53.5"/>
<text text-anchor="start" x="893" y="-71.5" font-family="Helvetica,sans-Serif" font-size="10.00">GUIUtil::TableViewLastColumn</text>
<text text-anchor="middle" x="971.5" y="-60.5" font-family="Helvetica,sans-Serif" font-size="10.00">ResizingFixer::stretchColumnWidth</text>
</a>
</g>
</g>
<!-- Node1&#45;&gt;Node5 -->
<g id="edge12" class="edge"><title>Node1&#45;&gt;Node5</title>
<path fill="none" stroke="midnightblue" d="M134.078,-57.7031C158.997,-73.2162 192.956,-91.3796 226,-99.5 470.032,-159.469 772.38,-110.582 904.041,-83.5084"/>
<polygon fill="midnightblue" stroke="midnightblue" points="135.639,-54.5483 125.324,-52.1311 131.881,-60.4535 135.639,-54.5483"/>
</g>
<!-- Node8 -->
<g id="node8" class="node"><title>Node8</title>
<g id="a_node8"><a xlink:href="class_g_u_i_util_1_1_table_view_last_column_resizing_fixer.html#a93f3b32cf06688099875a1c9d2df57f2" target="_top" xlink:title="GUIUtil::TableViewLastColumn\lResizingFixer::on_geometriesChanged">
<polygon fill="white" stroke="black" points="877,-0.5 877,-30.5 1066,-30.5 1066,-0.5 877,-0.5"/>
<text text-anchor="start" x="885" y="-18.5" font-family="Helvetica,sans-Serif" font-size="10.00">GUIUtil::TableViewLastColumn</text>
<text text-anchor="middle" x="971.5" y="-7.5" font-family="Helvetica,sans-Serif" font-size="10.00">ResizingFixer::on_geometriesChanged</text>
</a>
</g>
</g>
<!-- Node1&#45;&gt;Node8 -->
<g id="edge13" class="edge"><title>Node1&#45;&gt;Node8</title>
<path fill="none" stroke="midnightblue" d="M200.215,-17.0643C273.194,-11.1764 373.003,-5.78877 461,-3.5 629.832,0.891279 672.122,-1.54415 841,-3.5 852.581,-3.63412 864.743,-3.83569 876.784,-4.14542"/>
<polygon fill="midnightblue" stroke="midnightblue" points="199.778,-13.5884 190.1,-17.8982 200.353,-20.5647 199.778,-13.5884"/>
</g>
<!-- Node3 -->
<g id="node3" class="node"><title>Node3</title>
<g id="a_node3"><a xlink:href="class_g_u_i_util_1_1_table_view_last_column_resizing_fixer.html#a31422ff98c30c95c01dba5bbb8ccbcae" target="_top" xlink:title="GUIUtil::TableViewLastColumn\lResizingFixer::on_sectionResized">
<polygon fill="white" stroke="black" points="461,-22.5 461,-52.5 628,-52.5 628,-22.5 461,-22.5"/>
<text text-anchor="start" x="469" y="-40.5" font-family="Helvetica,sans-Serif" font-size="10.00">GUIUtil::TableViewLastColumn</text>
<text text-anchor="middle" x="544.5" y="-29.5" font-family="Helvetica,sans-Serif" font-size="10.00">ResizingFixer::on_sectionResized</text>
</a>
</g>
</g>
<!-- Node2&#45;&gt;Node3 -->
<g id="edge2" class="edge"><title>Node2&#45;&gt;Node3</title>
<path fill="none" stroke="midnightblue" d="M422.463,-58.6954C435.26,-56.4544 448.294,-54.1721 460.838,-51.9754"/>
<polygon fill="midnightblue" stroke="midnightblue" points="421.511,-55.3089 412.264,-60.4814 422.718,-62.2039 421.511,-55.3089"/>
</g>
<!-- Node3&#45;&gt;Node1 -->
<g id="edge11" class="edge"><title>Node3&#45;&gt;Node1</title>
<path fill="none" stroke="midnightblue" d="M450.749,-36.2564C374.441,-35.2333 266.754,-33.7894 190.083,-32.7615"/>
<polygon fill="midnightblue" stroke="midnightblue" points="450.785,-39.7571 460.832,-36.3916 450.879,-32.7577 450.785,-39.7571"/>
</g>
<!-- Node4 -->
<g id="node4" class="node"><title>Node4</title>
<g id="a_node4"><a xlink:href="class_g_u_i_util_1_1_table_view_last_column_resizing_fixer.html#ab01fe3dbf021a9306ec74afda41d6f45" target="_top" xlink:title="GUIUtil::TableViewLastColumn\lResizingFixer::connectViewHeaders\lSignals">
<polygon fill="white" stroke="black" points="664,-22 664,-63 841,-63 841,-22 664,-22"/>
<text text-anchor="start" x="672" y="-51" font-family="Helvetica,sans-Serif" font-size="10.00">GUIUtil::TableViewLastColumn</text>
<text text-anchor="start" x="672" y="-40" font-family="Helvetica,sans-Serif" font-size="10.00">ResizingFixer::connectViewHeaders</text>
<text text-anchor="middle" x="752.5" y="-29" font-family="Helvetica,sans-Serif" font-size="10.00">Signals</text>
</a>
</g>
</g>
<!-- Node3&#45;&gt;Node4 -->
<g id="edge3" class="edge"><title>Node3&#45;&gt;Node4</title>
<path fill="none" stroke="midnightblue" d="M638.37,-39.7541C646.839,-39.9597 655.401,-40.1675 663.822,-40.3719"/>
<polygon fill="midnightblue" stroke="midnightblue" points="638.183,-36.2487 628.101,-39.5049 638.013,-43.2466 638.183,-36.2487"/>
</g>
<!-- Node4&#45;&gt;Node2 -->
<g id="edge4" class="edge"><title>Node4&#45;&gt;Node2</title>
<path fill="none" stroke="midnightblue" d="M653.746,-58.5158C645.054,-59.6438 636.378,-60.6634 628,-61.5 560.478,-68.2425 484.117,-71.746 425.138,-73.5621"/>
<polygon fill="midnightblue" stroke="midnightblue" points="654.495,-61.9468 663.939,-57.1464 653.562,-55.0091 654.495,-61.9468"/>
</g>
<!-- Node4&#45;&gt;Node5 -->
<g id="edge5" class="edge"><title>Node4&#45;&gt;Node5</title>
<path fill="none" stroke="midnightblue" d="M851.297,-54.2176C862.421,-55.5505 873.697,-56.9015 884.651,-58.2139"/>
<polygon fill="midnightblue" stroke="midnightblue" points="851.482,-50.7148 841.137,-53.0003 850.649,-57.6651 851.482,-50.7148"/>
</g>
<!-- Node4&#45;&gt;Node8 -->
<g id="edge8" class="edge"><title>Node4&#45;&gt;Node8</title>
<path fill="none" stroke="midnightblue" d="M851.129,-23.6328C859.688,-22.5201 868.338,-21.4527 876.864,-20.4572"/>
<polygon fill="midnightblue" stroke="midnightblue" points="850.59,-20.1736 841.137,-24.9581 851.51,-27.1128 850.59,-20.1736"/>
</g>
<!-- Node6 -->
<g id="node6" class="node"><title>Node6</title>
<g id="a_node6"><a xlink:href="class_receive_coins_dialog.html#a8ebec2144a935622b4a33c57601a8868" target="_top" xlink:title="ReceiveCoinsDialog\l::resizeEvent">
<polygon fill="white" stroke="black" points="1122.5,-75.5 1122.5,-105.5 1229.5,-105.5 1229.5,-75.5 1122.5,-75.5"/>
<text text-anchor="start" x="1130.5" y="-93.5" font-family="Helvetica,sans-Serif" font-size="10.00">ReceiveCoinsDialog</text>
<text text-anchor="middle" x="1176" y="-82.5" font-family="Helvetica,sans-Serif" font-size="10.00">::resizeEvent</text>
</a>
</g>
</g>
<!-- Node5&#45;&gt;Node6 -->
<g id="edge6" class="edge"><title>Node5&#45;&gt;Node6</title>
<path fill="none" stroke="midnightblue" d="M1068.1,-78.8867C1086.76,-80.9136 1105.68,-82.9684 1122.3,-84.7746"/>
<polygon fill="midnightblue" stroke="midnightblue" points="1068.4,-75.3987 1058.08,-77.7981 1067.65,-82.3578 1068.4,-75.3987"/>
</g>
<!-- Node7 -->
<g id="node7" class="node"><title>Node7</title>
<g id="a_node7"><a xlink:href="class_transaction_view.html#a6bcc05526bc111b4299d32d882f633b8" target="_top" xlink:title="TransactionView::resizeEvent">
<polygon fill="white" stroke="black" points="1102,-37 1102,-56 1250,-56 1250,-37 1102,-37"/>
<text text-anchor="middle" x="1176" y="-44" font-family="Helvetica,sans-Serif" font-size="10.00">TransactionView::resizeEvent</text>
</a>
</g>
</g>
<!-- Node5&#45;&gt;Node7 -->
<g id="edge7" class="edge"><title>Node5&#45;&gt;Node7</title>
<path fill="none" stroke="midnightblue" d="M1068.04,-58.12C1079.42,-56.884 1090.89,-55.6375 1101.89,-54.4433"/>
<polygon fill="midnightblue" stroke="midnightblue" points="1067.65,-54.6422 1058.08,-59.2019 1068.4,-61.6013 1067.65,-54.6422"/>
</g>
<!-- Node8&#45;&gt;Node1 -->
<g id="edge10" class="edge"><title>Node8&#45;&gt;Node1</title>
<path fill="none" stroke="midnightblue" d="M866.611,-21.8544C857.948,-21.7276 849.324,-21.5964 841,-21.5 672.122,-19.5442 629.832,-17.1087 461,-21.5 368.864,-23.8964 263.779,-29.69 190.1,-32.6104"/>
<polygon fill="midnightblue" stroke="midnightblue" points="866.736,-25.3565 876.784,-21.9989 866.835,-18.3572 866.736,-25.3565"/>
</g>
<!-- Node8&#45;&gt;Node4 -->
<g id="edge9" class="edge"><title>Node8&#45;&gt;Node4</title>
<path fill="none" stroke="midnightblue" d="M890.928,-31.9328C874.727,-34.198 857.599,-36.3644 841.137,-38.2337"/>
<polygon fill="midnightblue" stroke="midnightblue" points="891.476,-35.3902 900.88,-30.5114 890.486,-28.4605 891.476,-35.3902"/>
</g>
</g>
</svg>
