<?xml version="1.0" encoding="UTF-8" standalone="no"?>
<!DOCTYPE svg PUBLIC "-//W3C//DTD SVG 1.1//EN"
 "http://www.w3.org/Graphics/SVG/1.1/DTD/svg11.dtd">
<!-- Generated by graphviz version 2.38.0 (20140413.2041)
 -->
<!-- Title: CReserveKey::KeepKey Pages: 1 -->
<svg width="618pt" height="85pt"
 viewBox="0.00 0.00 618.00 85.00" xmlns="http://www.w3.org/2000/svg" xmlns:xlink="http://www.w3.org/1999/xlink">
<g id="graph0" class="graph" transform="scale(1 1) rotate(0) translate(4 81)">
<title>CReserveKey::KeepKey</title>
<polygon fill="white" stroke="none" points="-4,4 -4,-81 614,-81 614,4 -4,4"/>
<!-- Node1 -->
<g id="node1" class="node"><title>Node1</title>
<polygon fill="#bfbfbf" stroke="black" points="0,-38.5 0,-57.5 124,-57.5 124,-38.5 0,-38.5"/>
<text text-anchor="middle" x="62" y="-45.5" font-family="Helvetica,sans-Serif" font-size="10.00">CReserveKey::KeepKey</text>
</g>
<!-- Node2 -->
<g id="node2" class="node"><title>Node2</title>
<g id="a_node2"><a xlink:href="rpcwallet_8cpp.html#ae71809202b4dcc13d2034c5c72af34da" target="_top" xlink:title="getrawchangeaddress">
<polygon fill="white" stroke="black" points="174.5,-57.5 174.5,-76.5 289.5,-76.5 289.5,-57.5 174.5,-57.5"/>
<text text-anchor="middle" x="232" y="-64.5" font-family="Helvetica,sans-Serif" font-size="10.00">getrawchangeaddress</text>
</a>
</g>
</g>
<!-- Node1&#45;&gt;Node2 -->
<g id="edge1" class="edge"><title>Node1&#45;&gt;Node2</title>
<path fill="none" stroke="midnightblue" d="M134.265,-56.0597C147.665,-57.5753 161.509,-59.1408 174.387,-60.5974"/>
<polygon fill="midnightblue" stroke="midnightblue" points="134.457,-52.5592 124.127,-54.9132 133.67,-59.5149 134.457,-52.5592"/>
</g>
<!-- Node3 -->
<g id="node3" class="node"><title>Node3</title>
<g id="a_node3"><a xlink:href="class_c_wallet.html#ac30e619488120651a6753195b77f3ad8" target="_top" xlink:title="CWallet::CommitTransaction">
<polygon fill="white" stroke="black" points="160,-19.5 160,-38.5 304,-38.5 304,-19.5 160,-19.5"/>
<text text-anchor="middle" x="232" y="-26.5" font-family="Helvetica,sans-Serif" font-size="10.00">CWallet::CommitTransaction</text>
</a>
</g>
</g>
<!-- Node1&#45;&gt;Node3 -->
<g id="edge2" class="edge"><title>Node1&#45;&gt;Node3</title>
<path fill="none" stroke="midnightblue" d="M134.071,-39.9622C142.633,-38.9939 151.378,-38.0049 159.939,-37.0366"/>
<polygon fill="midnightblue" stroke="midnightblue" points="133.67,-36.4851 124.127,-41.0868 134.457,-43.4408 133.67,-36.4851"/>
</g>
<!-- Node4 -->
<g id="node4" class="node"><title>Node4</title>
<g id="a_node4"><a xlink:href="class_wallet_model.html#a53443aca544c824550f21e5f87e4ec39" target="_top" xlink:title="WalletModel::sendCoins">
<polygon fill="white" stroke="black" points="340,-38.5 340,-57.5 464,-57.5 464,-38.5 340,-38.5"/>
<text text-anchor="middle" x="402" y="-45.5" font-family="Helvetica,sans-Serif" font-size="10.00">WalletModel::sendCoins</text>
</a>
</g>
</g>
<!-- Node3&#45;&gt;Node4 -->
<g id="edge3" class="edge"><title>Node3&#45;&gt;Node4</title>
<path fill="none" stroke="midnightblue" d="M314.344,-38.1996C322.978,-39.1761 331.65,-40.1568 339.994,-41.1005"/>
<polygon fill="midnightblue" stroke="midnightblue" points="314.577,-34.7038 304.247,-37.0577 313.79,-41.6594 314.577,-34.7038"/>
</g>
<!-- Node6 -->
<g id="node6" class="node"><title>Node6</title>
<g id="a_node6"><a xlink:href="rpcwallet_8cpp.html#adeb5f23f20fb4e589dab23cadf75c92d" target="_top" xlink:title="sendmany">
<polygon fill="white" stroke="black" points="370.5,-0.5 370.5,-19.5 433.5,-19.5 433.5,-0.5 370.5,-0.5"/>
<text text-anchor="middle" x="402" y="-7.5" font-family="Helvetica,sans-Serif" font-size="10.00">sendmany</text>
</a>
</g>
</g>
<!-- Node3&#45;&gt;Node6 -->
<g id="edge5" class="edge"><title>Node3&#45;&gt;Node6</title>
<path fill="none" stroke="midnightblue" d="M314.312,-19.804C334.247,-17.5494 354.384,-15.272 370.226,-13.4804"/>
<polygon fill="midnightblue" stroke="midnightblue" points="313.79,-16.3406 304.247,-20.9423 314.577,-23.2962 313.79,-16.3406"/>
</g>
<!-- Node5 -->
<g id="node5" class="node"><title>Node5</title>
<g id="a_node5"><a xlink:href="class_send_coins_dialog.html#a2cab7cf9ea5040b9e2189297f7d3c764" target="_top" xlink:title="SendCoinsDialog::on\l_sendButton_clicked">
<polygon fill="white" stroke="black" points="500,-33 500,-63 610,-63 610,-33 500,-33"/>
<text text-anchor="start" x="508" y="-51" font-family="Helvetica,sans-Serif" font-size="10.00">SendCoinsDialog::on</text>
<text text-anchor="middle" x="555" y="-40" font-family="Helvetica,sans-Serif" font-size="10.00">_sendButton_clicked</text>
</a>
</g>
</g>
<!-- Node4&#45;&gt;Node5 -->
<g id="edge4" class="edge"><title>Node4&#45;&gt;Node5</title>
<path fill="none" stroke="midnightblue" d="M474.424,-48C482.997,-48 491.642,-48 499.912,-48"/>
<polygon fill="midnightblue" stroke="midnightblue" points="474.418,-44.5001 464.417,-48 474.417,-51.5001 474.418,-44.5001"/>
</g>
</g>
</svg>
