<?xml version="1.0" encoding="UTF-8" standalone="no"?>
<!DOCTYPE svg PUBLIC "-//W3C//DTD SVG 1.1//EN"
 "http://www.w3.org/Graphics/SVG/1.1/DTD/svg11.dtd">
<!-- Generated by graphviz version 2.38.0 (20140413.2041)
 -->
<!-- Title: SSLIOStreamDevice::handshake Pages: 1 -->
<svg width="292pt" height="78pt"
 viewBox="0.00 0.00 292.00 77.50" xmlns="http://www.w3.org/2000/svg" xmlns:xlink="http://www.w3.org/1999/xlink">
<g id="graph0" class="graph" transform="scale(1 1) rotate(0) translate(4 73.5)">
<title>SSLIOStreamDevice::handshake</title>
<polygon fill="white" stroke="none" points="-4,4 -4,-73.5 288,-73.5 288,4 -4,4"/>
<!-- Node1 -->
<g id="node1" class="node"><title>Node1</title>
<polygon fill="#bfbfbf" stroke="black" points="0,-22.5 0,-52.5 114,-52.5 114,-22.5 0,-22.5"/>
<text text-anchor="start" x="8" y="-40.5" font-family="Helvetica,sans-Serif" font-size="10.00">SSLIOStreamDevice::</text>
<text text-anchor="middle" x="57" y="-29.5" font-family="Helvetica,sans-Serif" font-size="10.00">handshake</text>
</g>
<!-- Node2 -->
<g id="node2" class="node"><title>Node2</title>
<g id="a_node2"><a xlink:href="class_s_s_l_i_o_stream_device.html#a8beb626f163adac311a5ec507c3e495a" target="_top" xlink:title="SSLIOStreamDevice::read">
<polygon fill="white" stroke="black" points="150,-50 150,-69 284,-69 284,-50 150,-50"/>
<text text-anchor="middle" x="217" y="-57" font-family="Helvetica,sans-Serif" font-size="10.00">SSLIOStreamDevice::read</text>
</a>
</g>
</g>
<!-- Node1&#45;&gt;Node2 -->
<g id="edge1" class="edge"><title>Node1&#45;&gt;Node2</title>
<path fill="none" stroke="midnightblue" d="M124.301,-46.7317C132.725,-47.9047 141.347,-49.1053 149.77,-50.2781"/>
<polygon fill="midnightblue" stroke="midnightblue" points="124.537,-43.2309 114.15,-45.3183 123.572,-50.1641 124.537,-43.2309"/>
</g>
<!-- Node3 -->
<g id="node3" class="node"><title>Node3</title>
<g id="a_node3"><a xlink:href="class_s_s_l_i_o_stream_device.html#aa4bfad893484ffdf9dbcdce97c462ad0" target="_top" xlink:title="SSLIOStreamDevice::\lwrite">
<polygon fill="white" stroke="black" points="160,-0.5 160,-30.5 274,-30.5 274,-0.5 160,-0.5"/>
<text text-anchor="start" x="168" y="-18.5" font-family="Helvetica,sans-Serif" font-size="10.00">SSLIOStreamDevice::</text>
<text text-anchor="middle" x="217" y="-7.5" font-family="Helvetica,sans-Serif" font-size="10.00">write</text>
</a>
</g>
</g>
<!-- Node1&#45;&gt;Node3 -->
<g id="edge2" class="edge"><title>Node1&#45;&gt;Node3</title>
<path fill="none" stroke="midnightblue" d="M124.371,-28.2585C136.146,-26.6189 148.305,-24.9259 159.765,-23.3302"/>
<polygon fill="midnightblue" stroke="midnightblue" points="123.572,-24.8359 114.15,-29.6817 124.537,-31.7691 123.572,-24.8359"/>
</g>
</g>
</svg>
