<?xml version="1.0" encoding="UTF-8" standalone="no"?>
<!DOCTYPE svg PUBLIC "-//W3C//DTD SVG 1.1//EN"
 "http://www.w3.org/Graphics/SVG/1.1/DTD/svg11.dtd">
<!-- Generated by graphviz version 2.38.0 (20140413.2041)
 -->
<!-- Title: WalletModel::listLockedCoins Pages: 1 -->
<svg width="804pt" height="137pt"
 viewBox="0.00 0.00 804.00 137.00" xmlns="http://www.w3.org/2000/svg" xmlns:xlink="http://www.w3.org/1999/xlink">
<g id="graph0" class="graph" transform="scale(1 1) rotate(0) translate(4 133)">
<title>WalletModel::listLockedCoins</title>
<polygon fill="white" stroke="none" points="-4,4 -4,-133 800,-133 800,4 -4,4"/>
<!-- Node1 -->
<g id="node1" class="node"><title>Node1</title>
<polygon fill="#bfbfbf" stroke="black" points="0,-55 0,-74 147,-74 147,-55 0,-55"/>
<text text-anchor="middle" x="73.5" y="-62" font-family="Helvetica,sans-Serif" font-size="10.00">WalletModel::listLockedCoins</text>
</g>
<!-- Node2 -->
<g id="node2" class="node"><title>Node2</title>
<g id="a_node2"><a xlink:href="class_coin_control_dialog.html#acedbd41abf3490c556afbebde2ba6b49" target="_top" xlink:title="CoinControlDialog::\lupdateLabelLocked">
<polygon fill="white" stroke="black" points="183,-49.5 183,-79.5 287,-79.5 287,-49.5 183,-49.5"/>
<text text-anchor="start" x="191" y="-67.5" font-family="Helvetica,sans-Serif" font-size="10.00">CoinControlDialog::</text>
<text text-anchor="middle" x="235" y="-56.5" font-family="Helvetica,sans-Serif" font-size="10.00">updateLabelLocked</text>
</a>
</g>
</g>
<!-- Node1&#45;&gt;Node2 -->
<g id="edge1" class="edge"><title>Node1&#45;&gt;Node2</title>
<path fill="none" stroke="midnightblue" d="M157.396,-64.5C166.042,-64.5 174.638,-64.5 182.777,-64.5"/>
<polygon fill="midnightblue" stroke="midnightblue" points="157.249,-61.0001 147.249,-64.5 157.249,-68.0001 157.249,-61.0001"/>
</g>
<!-- Node3 -->
<g id="node3" class="node"><title>Node3</title>
<g id="a_node3"><a xlink:href="class_coin_control_dialog.html#a4c34a48574814089c54f763a22f5317a" target="_top" xlink:title="CoinControlDialog::\lsetModel">
<polygon fill="white" stroke="black" points="323,-98.5 323,-128.5 426,-128.5 426,-98.5 323,-98.5"/>
<text text-anchor="start" x="331" y="-116.5" font-family="Helvetica,sans-Serif" font-size="10.00">CoinControlDialog::</text>
<text text-anchor="middle" x="374.5" y="-105.5" font-family="Helvetica,sans-Serif" font-size="10.00">setModel</text>
</a>
</g>
</g>
<!-- Node2&#45;&gt;Node3 -->
<g id="edge2" class="edge"><title>Node2&#45;&gt;Node3</title>
<path fill="none" stroke="midnightblue" d="M288.013,-83.0355C302.213,-88.0959 317.427,-93.5177 331.027,-98.3641"/>
<polygon fill="midnightblue" stroke="midnightblue" points="288.971,-79.6614 278.376,-79.6014 286.621,-86.2553 288.971,-79.6614"/>
</g>
<!-- Node6 -->
<g id="node6" class="node"><title>Node6</title>
<g id="a_node6"><a xlink:href="class_coin_control_dialog.html#a92d82e9a08d81b99fda6546d83f63a19" target="_top" xlink:title="CoinControlDialog::\llockCoin">
<polygon fill="white" stroke="black" points="323,-49.5 323,-79.5 426,-79.5 426,-49.5 323,-49.5"/>
<text text-anchor="start" x="331" y="-67.5" font-family="Helvetica,sans-Serif" font-size="10.00">CoinControlDialog::</text>
<text text-anchor="middle" x="374.5" y="-56.5" font-family="Helvetica,sans-Serif" font-size="10.00">lockCoin</text>
</a>
</g>
</g>
<!-- Node2&#45;&gt;Node6 -->
<g id="edge5" class="edge"><title>Node2&#45;&gt;Node6</title>
<path fill="none" stroke="midnightblue" d="M297.409,-64.5C305.868,-64.5 314.476,-64.5 322.715,-64.5"/>
<polygon fill="midnightblue" stroke="midnightblue" points="297.2,-61.0001 287.2,-64.5 297.2,-68.0001 297.2,-61.0001"/>
</g>
<!-- Node8 -->
<g id="node8" class="node"><title>Node8</title>
<g id="a_node8"><a xlink:href="class_coin_control_dialog.html#a3097ebdc8972660aae30f49f2ccd1d8c" target="_top" xlink:title="CoinControlDialog::\lunlockCoin">
<polygon fill="white" stroke="black" points="323,-0.5 323,-30.5 426,-30.5 426,-0.5 323,-0.5"/>
<text text-anchor="start" x="331" y="-18.5" font-family="Helvetica,sans-Serif" font-size="10.00">CoinControlDialog::</text>
<text text-anchor="middle" x="374.5" y="-7.5" font-family="Helvetica,sans-Serif" font-size="10.00">unlockCoin</text>
</a>
</g>
</g>
<!-- Node2&#45;&gt;Node8 -->
<g id="edge7" class="edge"><title>Node2&#45;&gt;Node8</title>
<path fill="none" stroke="midnightblue" d="M288.013,-45.9645C302.213,-40.9041 317.427,-35.4823 331.027,-30.6359"/>
<polygon fill="midnightblue" stroke="midnightblue" points="286.621,-42.7447 278.376,-49.3986 288.971,-49.3386 286.621,-42.7447"/>
</g>
<!-- Node4 -->
<g id="node4" class="node"><title>Node4</title>
<g id="a_node4"><a xlink:href="class_send_coins_dialog.html#a59d757d9e4bea5b380eb480fd79cfb49" target="_top" xlink:title="SendCoinsDialog::coinControl\lButtonClicked">
<polygon fill="white" stroke="black" points="462,-98.5 462,-128.5 612,-128.5 612,-98.5 462,-98.5"/>
<text text-anchor="start" x="470" y="-116.5" font-family="Helvetica,sans-Serif" font-size="10.00">SendCoinsDialog::coinControl</text>
<text text-anchor="middle" x="537" y="-105.5" font-family="Helvetica,sans-Serif" font-size="10.00">ButtonClicked</text>
</a>
</g>
</g>
<!-- Node3&#45;&gt;Node4 -->
<g id="edge3" class="edge"><title>Node3&#45;&gt;Node4</title>
<path fill="none" stroke="midnightblue" d="M436.555,-113.5C444.808,-113.5 453.348,-113.5 461.799,-113.5"/>
<polygon fill="midnightblue" stroke="midnightblue" points="436.283,-110 426.283,-113.5 436.283,-117 436.283,-110"/>
</g>
<!-- Node5 -->
<g id="node5" class="node"><title>Node5</title>
<g id="a_node5"><a xlink:href="class_send_coins_dialog.html#a0df5bc29d1df68eda44826651afc595f" target="_top" xlink:title="SendCoinsDialog::SendCoins\lDialog">
<polygon fill="white" stroke="black" points="648,-98.5 648,-128.5 796,-128.5 796,-98.5 648,-98.5"/>
<text text-anchor="start" x="656" y="-116.5" font-family="Helvetica,sans-Serif" font-size="10.00">SendCoinsDialog::SendCoins</text>
<text text-anchor="middle" x="722" y="-105.5" font-family="Helvetica,sans-Serif" font-size="10.00">Dialog</text>
</a>
</g>
</g>
<!-- Node4&#45;&gt;Node5 -->
<g id="edge4" class="edge"><title>Node4&#45;&gt;Node5</title>
<path fill="none" stroke="midnightblue" d="M622.193,-113.5C630.782,-113.5 639.457,-113.5 647.913,-113.5"/>
<polygon fill="midnightblue" stroke="midnightblue" points="622.169,-110 612.169,-113.5 622.169,-117 622.169,-110"/>
</g>
<!-- Node7 -->
<g id="node7" class="node"><title>Node7</title>
<g id="a_node7"><a xlink:href="class_coin_control_dialog.html#a0945e59c25f956fdab199dbaf252eff5" target="_top" xlink:title="CoinControlDialog::\lCoinControlDialog">
<polygon fill="white" stroke="black" points="485.5,-25.5 485.5,-55.5 588.5,-55.5 588.5,-25.5 485.5,-25.5"/>
<text text-anchor="start" x="493.5" y="-43.5" font-family="Helvetica,sans-Serif" font-size="10.00">CoinControlDialog::</text>
<text text-anchor="middle" x="537" y="-32.5" font-family="Helvetica,sans-Serif" font-size="10.00">CoinControlDialog</text>
</a>
</g>
</g>
<!-- Node6&#45;&gt;Node7 -->
<g id="edge6" class="edge"><title>Node6&#45;&gt;Node7</title>
<path fill="none" stroke="midnightblue" d="M436.188,-55.4252C452.371,-53.0052 469.685,-50.4163 485.272,-48.0855"/>
<polygon fill="midnightblue" stroke="midnightblue" points="435.656,-51.9658 426.283,-56.9062 436.691,-58.8888 435.656,-51.9658"/>
</g>
<!-- Node8&#45;&gt;Node7 -->
<g id="edge8" class="edge"><title>Node8&#45;&gt;Node7</title>
<path fill="none" stroke="midnightblue" d="M436.188,-24.953C452.371,-27.4737 469.685,-30.1705 485.272,-32.5984"/>
<polygon fill="midnightblue" stroke="midnightblue" points="436.703,-21.491 426.283,-23.4102 435.625,-28.4076 436.703,-21.491"/>
</g>
</g>
</svg>
