<?xml version="1.0" encoding="UTF-8" standalone="no"?>
<!DOCTYPE svg PUBLIC "-//W3C//DTD SVG 1.1//EN"
 "http://www.w3.org/Graphics/SVG/1.1/DTD/svg11.dtd">
<!-- Generated by graphviz version 2.38.0 (20140413.2041)
 -->
<!-- Title: I2POptionsWidget::ShowCurrentI2PAddress Pages: 1 -->
<svg width="357pt" height="39pt"
 viewBox="0.00 0.00 357.00 39.00" xmlns="http://www.w3.org/2000/svg" xmlns:xlink="http://www.w3.org/1999/xlink">
<g id="graph0" class="graph" transform="scale(1 1) rotate(0) translate(4 35)">
<title>I2POptionsWidget::ShowCurrentI2PAddress</title>
<polygon fill="white" stroke="none" points="-4,4 -4,-35 353,-35 353,4 -4,4"/>
<!-- Node1 -->
<g id="node1" class="node"><title>Node1</title>
<polygon fill="#bfbfbf" stroke="black" points="0,-0.5 0,-30.5 161,-30.5 161,-0.5 0,-0.5"/>
<text text-anchor="start" x="8" y="-18.5" font-family="Helvetica,sans-Serif" font-size="10.00">I2POptionsWidget::ShowCurrent</text>
<text text-anchor="middle" x="80.5" y="-7.5" font-family="Helvetica,sans-Serif" font-size="10.00">I2PAddress</text>
</g>
<!-- Node2 -->
<g id="node2" class="node"><title>Node2</title>
<g id="a_node2"><a xlink:href="class_i2_p_options_widget.html#acc81cb498f44f4b877c0c35bc4a308e5" target="_top" xlink:title="I2POptionsWidget::I2POptions\lWidget">
<polygon fill="white" stroke="black" points="197,-0.5 197,-30.5 349,-30.5 349,-0.5 197,-0.5"/>
<text text-anchor="start" x="205" y="-18.5" font-family="Helvetica,sans-Serif" font-size="10.00">I2POptionsWidget::I2POptions</text>
<text text-anchor="middle" x="273" y="-7.5" font-family="Helvetica,sans-Serif" font-size="10.00">Widget</text>
</a>
</g>
</g>
<!-- Node1&#45;&gt;Node2 -->
<g id="edge1" class="edge"><title>Node1&#45;&gt;Node2</title>
<path fill="none" stroke="midnightblue" d="M171.226,-15.5C179.816,-15.5 188.467,-15.5 196.897,-15.5"/>
<polygon fill="midnightblue" stroke="midnightblue" points="171.185,-12.0001 161.185,-15.5 171.185,-19.0001 171.185,-12.0001"/>
</g>
</g>
</svg>
