<?xml version="1.0" encoding="UTF-8" standalone="no"?>
<!DOCTYPE svg PUBLIC "-//W3C//DTD SVG 1.1//EN"
 "http://www.w3.org/Graphics/SVG/1.1/DTD/svg11.dtd">
<!-- Generated by graphviz version 2.38.0 (20140413.2041)
 -->
<!-- Title: payments::X509Certificates::certificate_size Pages: 1 -->
<svg width="1740pt" height="283pt"
 viewBox="0.00 0.00 1740.00 282.50" xmlns="http://www.w3.org/2000/svg" xmlns:xlink="http://www.w3.org/1999/xlink">
<g id="graph0" class="graph" transform="scale(1 1) rotate(0) translate(4 278.5)">
<title>payments::X509Certificates::certificate_size</title>
<polygon fill="white" stroke="none" points="-4,4 -4,-278.5 1736,-278.5 1736,4 -4,4"/>
<!-- Node1 -->
<g id="node1" class="node"><title>Node1</title>
<polygon fill="#bfbfbf" stroke="black" points="0,-167.5 0,-197.5 139,-197.5 139,-167.5 0,-167.5"/>
<text text-anchor="start" x="8" y="-185.5" font-family="Helvetica,sans-Serif" font-size="10.00">payments::X509Certificates</text>
<text text-anchor="middle" x="69.5" y="-174.5" font-family="Helvetica,sans-Serif" font-size="10.00">::certificate_size</text>
</g>
<!-- Node2 -->
<g id="node2" class="node"><title>Node2</title>
<g id="a_node2"><a xlink:href="classpayments_1_1_x509_certificates.html#a2713e53b67637603f0b3ad946a7a34f2" target="_top" xlink:title="payments::X509Certificates\l::SerializeWithCachedSizes">
<polygon fill="white" stroke="black" points="193,-241.5 193,-271.5 332,-271.5 332,-241.5 193,-241.5"/>
<text text-anchor="start" x="201" y="-259.5" font-family="Helvetica,sans-Serif" font-size="10.00">payments::X509Certificates</text>
<text text-anchor="middle" x="262.5" y="-248.5" font-family="Helvetica,sans-Serif" font-size="10.00">::SerializeWithCachedSizes</text>
</a>
</g>
</g>
<!-- Node1&#45;&gt;Node2 -->
<g id="edge1" class="edge"><title>Node1&#45;&gt;Node2</title>
<path fill="none" stroke="midnightblue" d="M107.669,-202.249C127.325,-212.186 152.075,-223.911 175,-232.5 183.611,-235.726 192.847,-238.74 201.963,-241.468"/>
<polygon fill="midnightblue" stroke="midnightblue" points="109.238,-199.12 98.7409,-197.681 106.05,-205.352 109.238,-199.12"/>
</g>
<!-- Node3 -->
<g id="node3" class="node"><title>Node3</title>
<g id="a_node3"><a xlink:href="classpayments_1_1_x509_certificates.html#abc054c65b15e56c052f19437f4202efb" target="_top" xlink:title="payments::X509Certificates\l::SerializeWithCachedSizesToArray">
<polygon fill="white" stroke="black" points="175,-192.5 175,-222.5 350,-222.5 350,-192.5 175,-192.5"/>
<text text-anchor="start" x="183" y="-210.5" font-family="Helvetica,sans-Serif" font-size="10.00">payments::X509Certificates</text>
<text text-anchor="middle" x="262.5" y="-199.5" font-family="Helvetica,sans-Serif" font-size="10.00">::SerializeWithCachedSizesToArray</text>
</a>
</g>
</g>
<!-- Node1&#45;&gt;Node3 -->
<g id="edge2" class="edge"><title>Node1&#45;&gt;Node3</title>
<path fill="none" stroke="midnightblue" d="M149.327,-192.818C157.727,-193.917 166.306,-195.04 174.791,-196.151"/>
<polygon fill="midnightblue" stroke="midnightblue" points="149.555,-189.318 139.186,-191.49 148.647,-196.259 149.555,-189.318"/>
</g>
<!-- Node4 -->
<g id="node4" class="node"><title>Node4</title>
<g id="a_node4"><a xlink:href="classpayments_1_1_x509_certificates.html#a58cb476e6568a3ecf630fdecee2b7330" target="_top" xlink:title="payments::X509Certificates\l::ByteSize">
<polygon fill="white" stroke="black" points="193,-143.5 193,-173.5 332,-173.5 332,-143.5 193,-143.5"/>
<text text-anchor="start" x="201" y="-161.5" font-family="Helvetica,sans-Serif" font-size="10.00">payments::X509Certificates</text>
<text text-anchor="middle" x="262.5" y="-150.5" font-family="Helvetica,sans-Serif" font-size="10.00">::ByteSize</text>
</a>
</g>
</g>
<!-- Node1&#45;&gt;Node4 -->
<g id="edge3" class="edge"><title>Node1&#45;&gt;Node4</title>
<path fill="none" stroke="midnightblue" d="M149.111,-172.622C163.596,-170.802 178.617,-168.915 192.782,-167.135"/>
<polygon fill="midnightblue" stroke="midnightblue" points="148.671,-169.15 139.186,-173.869 149.544,-176.095 148.671,-169.15"/>
</g>
<!-- Node5 -->
<g id="node5" class="node"><title>Node5</title>
<g id="a_node5"><a xlink:href="class_payment_request_plus.html#ae5d361b6e34549a83f3cb7885b20b120" target="_top" xlink:title="PaymentRequestPlus\l::getMerchant">
<polygon fill="white" stroke="black" points="206,-94.5 206,-124.5 319,-124.5 319,-94.5 206,-94.5"/>
<text text-anchor="start" x="214" y="-112.5" font-family="Helvetica,sans-Serif" font-size="10.00">PaymentRequestPlus</text>
<text text-anchor="middle" x="262.5" y="-101.5" font-family="Helvetica,sans-Serif" font-size="10.00">::getMerchant</text>
</a>
</g>
</g>
<!-- Node1&#45;&gt;Node5 -->
<g id="edge4" class="edge"><title>Node1&#45;&gt;Node5</title>
<path fill="none" stroke="midnightblue" d="M108.397,-162.849C127.952,-153.195 152.392,-141.87 175,-133.5 184.792,-129.875 195.384,-126.503 205.686,-123.501"/>
<polygon fill="midnightblue" stroke="midnightblue" points="106.601,-159.834 99.219,-167.434 109.729,-166.096 106.601,-159.834"/>
</g>
<!-- Node6 -->
<g id="node6" class="node"><title>Node6</title>
<g id="a_node6"><a xlink:href="class_payment_server.html#abe96a7c90755b8e1975e380b5a8228bd" target="_top" xlink:title="PaymentServer::processPayment\lRequest">
<polygon fill="white" stroke="black" points="386,-138.5 386,-168.5 551,-168.5 551,-138.5 386,-138.5"/>
<text text-anchor="start" x="394" y="-156.5" font-family="Helvetica,sans-Serif" font-size="10.00">PaymentServer::processPayment</text>
<text text-anchor="middle" x="468.5" y="-145.5" font-family="Helvetica,sans-Serif" font-size="10.00">Request</text>
</a>
</g>
</g>
<!-- Node5&#45;&gt;Node6 -->
<g id="edge5" class="edge"><title>Node5&#45;&gt;Node6</title>
<path fill="none" stroke="midnightblue" d="M329.095,-123.648C350.968,-128.366 375.411,-133.638 397.598,-138.423"/>
<polygon fill="midnightblue" stroke="midnightblue" points="329.757,-120.21 319.244,-121.523 328.281,-127.053 329.757,-120.21"/>
</g>
<!-- Node10 -->
<g id="node10" class="node"><title>Node10</title>
<g id="a_node10"><a xlink:href="class_payment_server_tests.html#a82c8a7437bfc26c28619b954a5ee8cad" target="_top" xlink:title="PaymentServerTests\l::paymentServerTests">
<polygon fill="white" stroke="black" points="1241.5,-137.5 1241.5,-167.5 1355.5,-167.5 1355.5,-137.5 1241.5,-137.5"/>
<text text-anchor="start" x="1249.5" y="-155.5" font-family="Helvetica,sans-Serif" font-size="10.00">PaymentServerTests</text>
<text text-anchor="middle" x="1298.5" y="-144.5" font-family="Helvetica,sans-Serif" font-size="10.00">::paymentServerTests</text>
</a>
</g>
</g>
<!-- Node5&#45;&gt;Node10 -->
<g id="edge15" class="edge"><title>Node5&#45;&gt;Node10</title>
<path fill="none" stroke="midnightblue" d="M329.62,-109.5C409.802,-109.5 549.058,-109.5 668.5,-109.5 668.5,-109.5 668.5,-109.5 883.5,-109.5 1012.13,-109.5 1162.03,-130.289 1241.44,-142.957"/>
<polygon fill="midnightblue" stroke="midnightblue" points="329.184,-106 319.184,-109.5 329.184,-113 329.184,-106"/>
</g>
<!-- Node15 -->
<g id="node15" class="node"><title>Node15</title>
<g id="a_node15"><a xlink:href="class_transaction_desc.html#ab7c9dbb2048aae121dd9d75df86e64f4" target="_top" xlink:title="TransactionDesc::toHTML">
<polygon fill="white" stroke="black" points="402,-59 402,-78 535,-78 535,-59 402,-59"/>
<text text-anchor="middle" x="468.5" y="-66" font-family="Helvetica,sans-Serif" font-size="10.00">TransactionDesc::toHTML</text>
</a>
</g>
</g>
<!-- Node5&#45;&gt;Node15 -->
<g id="edge16" class="edge"><title>Node5&#45;&gt;Node15</title>
<path fill="none" stroke="midnightblue" d="M329.092,-96.3172C358.717,-90.3633 393.057,-83.4615 420.121,-78.0222"/>
<polygon fill="midnightblue" stroke="midnightblue" points="328.358,-92.8947 319.244,-98.2966 329.738,-99.7575 328.358,-92.8947"/>
</g>
<!-- Node7 -->
<g id="node7" class="node"><title>Node7</title>
<g id="a_node7"><a xlink:href="class_payment_server.html#adf4f844b3ce7f053690fd9260210640d" target="_top" xlink:title="PaymentServer::handleURIOrFile">
<polygon fill="white" stroke="black" points="587,-202 587,-221 752,-221 752,-202 587,-202"/>
<text text-anchor="middle" x="669.5" y="-209" font-family="Helvetica,sans-Serif" font-size="10.00">PaymentServer::handleURIOrFile</text>
</a>
</g>
</g>
<!-- Node6&#45;&gt;Node7 -->
<g id="edge6" class="edge"><title>Node6&#45;&gt;Node7</title>
<path fill="none" stroke="midnightblue" d="M531.002,-171.425C565.533,-181.489 607.249,-193.648 635.61,-201.914"/>
<polygon fill="midnightblue" stroke="midnightblue" points="531.586,-167.95 521.006,-168.512 529.627,-174.67 531.586,-167.95"/>
</g>
<!-- Node13 -->
<g id="node13" class="node"><title>Node13</title>
<g id="a_node13"><a xlink:href="class_payment_server.html#a5b8e2e6380142fb7ad631400bcfc6f28" target="_top" xlink:title="PaymentServer::netRequest\lFinished">
<polygon fill="white" stroke="black" points="598.5,-138.5 598.5,-168.5 740.5,-168.5 740.5,-138.5 598.5,-138.5"/>
<text text-anchor="start" x="606.5" y="-156.5" font-family="Helvetica,sans-Serif" font-size="10.00">PaymentServer::netRequest</text>
<text text-anchor="middle" x="669.5" y="-145.5" font-family="Helvetica,sans-Serif" font-size="10.00">Finished</text>
</a>
</g>
</g>
<!-- Node6&#45;&gt;Node13 -->
<g id="edge12" class="edge"><title>Node6&#45;&gt;Node13</title>
<path fill="none" stroke="midnightblue" d="M561.371,-153.5C573.764,-153.5 586.315,-153.5 598.25,-153.5"/>
<polygon fill="midnightblue" stroke="midnightblue" points="561.015,-150 551.015,-153.5 561.015,-157 561.015,-150"/>
</g>
<!-- Node8 -->
<g id="node8" class="node"><title>Node8</title>
<g id="a_node8"><a xlink:href="class_payment_server.html#af795e3c318556c833792e530b279efc9" target="_top" xlink:title="PaymentServer::eventFilter">
<polygon fill="white" stroke="black" points="813.5,-255 813.5,-274 951.5,-274 951.5,-255 813.5,-255"/>
<text text-anchor="middle" x="882.5" y="-262" font-family="Helvetica,sans-Serif" font-size="10.00">PaymentServer::eventFilter</text>
</a>
</g>
</g>
<!-- Node7&#45;&gt;Node8 -->
<g id="edge7" class="edge"><title>Node7&#45;&gt;Node8</title>
<path fill="none" stroke="midnightblue" d="M710.829,-224.048C733.404,-230.85 762.132,-239.14 788,-245.5 801.833,-248.901 816.924,-252.161 830.867,-254.991"/>
<polygon fill="midnightblue" stroke="midnightblue" points="711.825,-220.693 701.24,-221.137 709.792,-227.391 711.825,-220.693"/>
</g>
<!-- Node9 -->
<g id="node9" class="node"><title>Node9</title>
<g id="a_node9"><a xlink:href="class_payment_server.html#abb6c65fabbf97ba95381997ca9cd6993" target="_top" xlink:title="PaymentServer::uiReady">
<polygon fill="white" stroke="black" points="1029,-143 1029,-162 1157,-162 1157,-143 1029,-143"/>
<text text-anchor="middle" x="1093" y="-150" font-family="Helvetica,sans-Serif" font-size="10.00">PaymentServer::uiReady</text>
</a>
</g>
</g>
<!-- Node7&#45;&gt;Node9 -->
<g id="edge8" class="edge"><title>Node7&#45;&gt;Node9</title>
<path fill="none" stroke="midnightblue" d="M751.524,-200.635C813.331,-192.289 900.566,-180.386 977,-169.5 993.784,-167.11 1011.93,-164.458 1028.75,-161.973"/>
<polygon fill="midnightblue" stroke="midnightblue" points="750.886,-197.189 741.444,-201.995 751.822,-204.126 750.886,-197.189"/>
</g>
<!-- Node11 -->
<g id="node11" class="node"><title>Node11</title>
<g id="a_node11"><a xlink:href="class_payment_server.html#a6ee6e29e1255605582459463d195a651" target="_top" xlink:title="PaymentServer::handleURIConnection">
<polygon fill="white" stroke="black" points="788,-217 788,-236 977,-236 977,-217 788,-217"/>
<text text-anchor="middle" x="882.5" y="-224" font-family="Helvetica,sans-Serif" font-size="10.00">PaymentServer::handleURIConnection</text>
</a>
</g>
</g>
<!-- Node7&#45;&gt;Node11 -->
<g id="edge10" class="edge"><title>Node7&#45;&gt;Node11</title>
<path fill="none" stroke="midnightblue" d="M762.324,-218.028C770.785,-218.629 779.365,-219.239 787.842,-219.842"/>
<polygon fill="midnightblue" stroke="midnightblue" points="762.301,-214.517 752.078,-217.299 761.805,-221.5 762.301,-214.517"/>
</g>
<!-- Node9&#45;&gt;Node10 -->
<g id="edge9" class="edge"><title>Node9&#45;&gt;Node10</title>
<path fill="none" stroke="midnightblue" d="M1167.51,-152.5C1191.79,-152.5 1218.39,-152.5 1241.16,-152.5"/>
<polygon fill="midnightblue" stroke="midnightblue" points="1167.27,-149 1157.27,-152.5 1167.27,-156 1167.27,-149"/>
</g>
<!-- Node12 -->
<g id="node12" class="node"><title>Node12</title>
<g id="a_node12"><a xlink:href="class_payment_server.html#a4a66f55c11f4757b121179d5d6988ab2" target="_top" xlink:title="PaymentServer::PaymentServer">
<polygon fill="white" stroke="black" points="1013,-217 1013,-236 1173,-236 1173,-217 1013,-217"/>
<text text-anchor="middle" x="1093" y="-224" font-family="Helvetica,sans-Serif" font-size="10.00">PaymentServer::PaymentServer</text>
</a>
</g>
</g>
<!-- Node11&#45;&gt;Node12 -->
<g id="edge11" class="edge"><title>Node11&#45;&gt;Node12</title>
<path fill="none" stroke="midnightblue" d="M987.155,-226.5C995.754,-226.5 1004.36,-226.5 1012.73,-226.5"/>
<polygon fill="midnightblue" stroke="midnightblue" points="987.077,-223 977.077,-226.5 987.077,-230 987.077,-223"/>
</g>
<!-- Node14 -->
<g id="node14" class="node"><title>Node14</title>
<g id="a_node14"><a xlink:href="class_payment_server.html#a2f94f2c3e12d03199870e17008535302" target="_top" xlink:title="PaymentServer::initNetManager">
<polygon fill="white" stroke="black" points="803,-141 803,-160 962,-160 962,-141 803,-141"/>
<text text-anchor="middle" x="882.5" y="-148" font-family="Helvetica,sans-Serif" font-size="10.00">PaymentServer::initNetManager</text>
</a>
</g>
</g>
<!-- Node13&#45;&gt;Node14 -->
<g id="edge13" class="edge"><title>Node13&#45;&gt;Node14</title>
<path fill="none" stroke="midnightblue" d="M751.172,-152.353C768.109,-152.112 785.951,-151.859 802.814,-151.619"/>
<polygon fill="midnightblue" stroke="midnightblue" points="750.709,-148.859 740.76,-152.501 750.809,-155.858 750.709,-148.859"/>
</g>
<!-- Node14&#45;&gt;Node9 -->
<g id="edge14" class="edge"><title>Node14&#45;&gt;Node9</title>
<path fill="none" stroke="midnightblue" d="M972.203,-151.351C991.231,-151.533 1010.97,-151.723 1028.79,-151.894"/>
<polygon fill="midnightblue" stroke="midnightblue" points="972.061,-147.849 962.028,-151.253 971.994,-154.849 972.061,-147.849"/>
</g>
<!-- Node16 -->
<g id="node16" class="node"><title>Node16</title>
<g id="a_node16"><a xlink:href="class_transaction_table_priv.html#ab08d44e16bf6dd95b5b83959b3013780" target="_top" xlink:title="TransactionTablePriv\l::describe">
<polygon fill="white" stroke="black" points="614,-49.5 614,-79.5 725,-79.5 725,-49.5 614,-49.5"/>
<text text-anchor="start" x="622" y="-67.5" font-family="Helvetica,sans-Serif" font-size="10.00">TransactionTablePriv</text>
<text text-anchor="middle" x="669.5" y="-56.5" font-family="Helvetica,sans-Serif" font-size="10.00">::describe</text>
</a>
</g>
</g>
<!-- Node15&#45;&gt;Node16 -->
<g id="edge17" class="edge"><title>Node15&#45;&gt;Node16</title>
<path fill="none" stroke="midnightblue" d="M545.213,-66.9781C568.041,-66.5193 592.643,-66.0248 613.821,-65.5991"/>
<polygon fill="midnightblue" stroke="midnightblue" points="545.139,-63.4788 535.212,-67.1792 545.28,-70.4774 545.139,-63.4788"/>
</g>
<!-- Node17 -->
<g id="node17" class="node"><title>Node17</title>
<g id="a_node17"><a xlink:href="class_transaction_table_model.html#a416d0751ab9a95ecd87d3f7bed4f0b06" target="_top" xlink:title="TransactionTableModel\l::data">
<polygon fill="white" stroke="black" points="822,-48.5 822,-78.5 943,-78.5 943,-48.5 822,-48.5"/>
<text text-anchor="start" x="830" y="-66.5" font-family="Helvetica,sans-Serif" font-size="10.00">TransactionTableModel</text>
<text text-anchor="middle" x="882.5" y="-55.5" font-family="Helvetica,sans-Serif" font-size="10.00">::data</text>
</a>
</g>
</g>
<!-- Node16&#45;&gt;Node17 -->
<g id="edge18" class="edge"><title>Node16&#45;&gt;Node17</title>
<path fill="none" stroke="midnightblue" d="M735.448,-64.1922C763.025,-64.0615 794.963,-63.9101 821.926,-63.7823"/>
<polygon fill="midnightblue" stroke="midnightblue" points="735.095,-60.6937 725.112,-64.2412 735.129,-67.6936 735.095,-60.6937"/>
</g>
<!-- Node18 -->
<g id="node18" class="node"><title>Node18</title>
<g id="a_node18"><a xlink:href="class_transaction_table_model.html#aaaf3cea9a5373fff771ce81d2f26de6e" target="_top" xlink:title="TransactionTableModel\l::index">
<polygon fill="white" stroke="black" points="1032.5,-45.5 1032.5,-75.5 1153.5,-75.5 1153.5,-45.5 1032.5,-45.5"/>
<text text-anchor="start" x="1040.5" y="-63.5" font-family="Helvetica,sans-Serif" font-size="10.00">TransactionTableModel</text>
<text text-anchor="middle" x="1093" y="-52.5" font-family="Helvetica,sans-Serif" font-size="10.00">::index</text>
</a>
</g>
</g>
<!-- Node17&#45;&gt;Node18 -->
<g id="edge19" class="edge"><title>Node17&#45;&gt;Node18</title>
<path fill="none" stroke="midnightblue" d="M953.262,-62.4962C978.865,-62.1278 1007.6,-61.7144 1032.24,-61.3598"/>
<polygon fill="midnightblue" stroke="midnightblue" points="953.196,-58.9967 943.248,-62.6403 953.297,-65.996 953.196,-58.9967"/>
</g>
<!-- Node19 -->
<g id="node19" class="node"><title>Node19</title>
<g id="a_node19"><a xlink:href="class_transaction_table_model.html#a5899d9eda6465bfb16d2846b6459567e" target="_top" xlink:title="TransactionTableModel\l::updateConfirmations">
<polygon fill="white" stroke="black" points="1238,-0.5 1238,-30.5 1359,-30.5 1359,-0.5 1238,-0.5"/>
<text text-anchor="start" x="1246" y="-18.5" font-family="Helvetica,sans-Serif" font-size="10.00">TransactionTableModel</text>
<text text-anchor="middle" x="1298.5" y="-7.5" font-family="Helvetica,sans-Serif" font-size="10.00">::updateConfirmations</text>
</a>
</g>
</g>
<!-- Node18&#45;&gt;Node19 -->
<g id="edge20" class="edge"><title>Node18&#45;&gt;Node19</title>
<path fill="none" stroke="midnightblue" d="M1163.5,-45.132C1187.66,-39.7894 1214.52,-33.8485 1237.82,-28.6972"/>
<polygon fill="midnightblue" stroke="midnightblue" points="1162.69,-41.7259 1153.68,-47.3026 1164.2,-48.5608 1162.69,-41.7259"/>
</g>
<!-- Node22 -->
<g id="node22" class="node"><title>Node22</title>
<g id="a_node22"><a xlink:href="class_transaction_table_model.html#a8b73ff7d72ec2dd69790bc61bbe8575e" target="_top" xlink:title="TransactionTableModel\l::updateDisplayUnit">
<polygon fill="white" stroke="black" points="1238,-88.5 1238,-118.5 1359,-118.5 1359,-88.5 1238,-88.5"/>
<text text-anchor="start" x="1246" y="-106.5" font-family="Helvetica,sans-Serif" font-size="10.00">TransactionTableModel</text>
<text text-anchor="middle" x="1298.5" y="-95.5" font-family="Helvetica,sans-Serif" font-size="10.00">::updateDisplayUnit</text>
</a>
</g>
</g>
<!-- Node18&#45;&gt;Node22 -->
<g id="edge23" class="edge"><title>Node18&#45;&gt;Node22</title>
<path fill="none" stroke="midnightblue" d="M1163.5,-75.185C1187.66,-80.2901 1214.52,-85.967 1237.82,-90.8894"/>
<polygon fill="midnightblue" stroke="midnightblue" points="1164.19,-71.7539 1153.68,-73.1109 1162.74,-78.6027 1164.19,-71.7539"/>
</g>
<!-- Node24 -->
<g id="node24" class="node"><title>Node24</title>
<g id="a_node24"><a xlink:href="class_wallet_view.html#addde7d2260658ee06f47f9c095a8cb2a" target="_top" xlink:title="Show incoming transaction notification for new transactions. ">
<polygon fill="white" stroke="black" points="1209,-50 1209,-69 1388,-69 1388,-50 1209,-50"/>
<text text-anchor="middle" x="1298.5" y="-57" font-family="Helvetica,sans-Serif" font-size="10.00">WalletView::processNewTransaction</text>
</a>
</g>
</g>
<!-- Node18&#45;&gt;Node24 -->
<g id="edge25" class="edge"><title>Node18&#45;&gt;Node24</title>
<path fill="none" stroke="midnightblue" d="M1163.99,-60.1561C1178.4,-60.0853 1193.75,-60.0098 1208.72,-59.9362"/>
<polygon fill="midnightblue" stroke="midnightblue" points="1163.66,-56.6575 1153.68,-60.2067 1163.7,-63.6574 1163.66,-56.6575"/>
</g>
<!-- Node20 -->
<g id="node20" class="node"><title>Node20</title>
<g id="a_node20"><a xlink:href="class_wallet_model.html#a51469b2d95cfd4bc0a14ee456fca7b95" target="_top" xlink:title="WalletModel::pollBalance\lChanged">
<polygon fill="white" stroke="black" points="1429.5,-0.5 1429.5,-30.5 1558.5,-30.5 1558.5,-0.5 1429.5,-0.5"/>
<text text-anchor="start" x="1437.5" y="-18.5" font-family="Helvetica,sans-Serif" font-size="10.00">WalletModel::pollBalance</text>
<text text-anchor="middle" x="1494" y="-7.5" font-family="Helvetica,sans-Serif" font-size="10.00">Changed</text>
</a>
</g>
</g>
<!-- Node19&#45;&gt;Node20 -->
<g id="edge21" class="edge"><title>Node19&#45;&gt;Node20</title>
<path fill="none" stroke="midnightblue" d="M1369.21,-15.5C1388.79,-15.5 1409.98,-15.5 1429.2,-15.5"/>
<polygon fill="midnightblue" stroke="midnightblue" points="1369.14,-12.0001 1359.14,-15.5 1369.14,-19.0001 1369.14,-12.0001"/>
</g>
<!-- Node21 -->
<g id="node21" class="node"><title>Node21</title>
<g id="a_node21"><a xlink:href="class_wallet_model.html#af50d9654d2f20e4e4f0789dcb64ad6b1" target="_top" xlink:title="WalletModel::WalletModel">
<polygon fill="white" stroke="black" points="1600,-6 1600,-25 1732,-25 1732,-6 1600,-6"/>
<text text-anchor="middle" x="1666" y="-13" font-family="Helvetica,sans-Serif" font-size="10.00">WalletModel::WalletModel</text>
</a>
</g>
</g>
<!-- Node20&#45;&gt;Node21 -->
<g id="edge22" class="edge"><title>Node20&#45;&gt;Node21</title>
<path fill="none" stroke="midnightblue" d="M1568.94,-15.5C1579.18,-15.5 1589.65,-15.5 1599.72,-15.5"/>
<polygon fill="midnightblue" stroke="midnightblue" points="1568.79,-12.0001 1558.79,-15.5 1568.79,-19.0001 1568.79,-12.0001"/>
</g>
<!-- Node23 -->
<g id="node23" class="node"><title>Node23</title>
<g id="a_node23"><a xlink:href="class_transaction_table_model.html#a6c10b7cab9804eee6df9e049a978dc62" target="_top" xlink:title="TransactionTableModel\l::TransactionTableModel">
<polygon fill="white" stroke="black" points="1430.5,-88.5 1430.5,-118.5 1557.5,-118.5 1557.5,-88.5 1430.5,-88.5"/>
<text text-anchor="start" x="1438.5" y="-106.5" font-family="Helvetica,sans-Serif" font-size="10.00">TransactionTableModel</text>
<text text-anchor="middle" x="1494" y="-95.5" font-family="Helvetica,sans-Serif" font-size="10.00">::TransactionTableModel</text>
</a>
</g>
</g>
<!-- Node22&#45;&gt;Node23 -->
<g id="edge24" class="edge"><title>Node22&#45;&gt;Node23</title>
<path fill="none" stroke="midnightblue" d="M1369.36,-103.5C1389.25,-103.5 1410.78,-103.5 1430.21,-103.5"/>
<polygon fill="midnightblue" stroke="midnightblue" points="1369.14,-100 1359.14,-103.5 1369.14,-107 1369.14,-100"/>
</g>
<!-- Node25 -->
<g id="node25" class="node"><title>Node25</title>
<g id="a_node25"><a xlink:href="class_wallet_view.html#a0a37ff693a4f9c1e5ddc23f9cd3913be" target="_top" xlink:title="Set the wallet model. ">
<polygon fill="white" stroke="black" points="1424,-50 1424,-69 1564,-69 1564,-50 1424,-50"/>
<text text-anchor="middle" x="1494" y="-57" font-family="Helvetica,sans-Serif" font-size="10.00">WalletView::setWalletModel</text>
</a>
</g>
</g>
<!-- Node24&#45;&gt;Node25 -->
<g id="edge26" class="edge"><title>Node24&#45;&gt;Node25</title>
<path fill="none" stroke="midnightblue" d="M1398.22,-59.5C1406.9,-59.5 1415.56,-59.5 1423.92,-59.5"/>
<polygon fill="midnightblue" stroke="midnightblue" points="1398.04,-56.0001 1388.04,-59.5 1398.04,-63.0001 1398.04,-56.0001"/>
</g>
<!-- Node26 -->
<g id="node26" class="node"><title>Node26</title>
<g id="a_node26"><a xlink:href="class_wallet_frame.html#aa199c3f27654199d84c365cf86167d86" target="_top" xlink:title="WalletFrame::addWallet">
<polygon fill="white" stroke="black" points="1604.5,-50 1604.5,-69 1727.5,-69 1727.5,-50 1604.5,-50"/>
<text text-anchor="middle" x="1666" y="-57" font-family="Helvetica,sans-Serif" font-size="10.00">WalletFrame::addWallet</text>
</a>
</g>
</g>
<!-- Node25&#45;&gt;Node26 -->
<g id="edge27" class="edge"><title>Node25&#45;&gt;Node26</title>
<path fill="none" stroke="midnightblue" d="M1574.22,-59.5C1584.36,-59.5 1594.6,-59.5 1604.38,-59.5"/>
<polygon fill="midnightblue" stroke="midnightblue" points="1574.15,-56.0001 1564.15,-59.5 1574.15,-63.0001 1574.15,-56.0001"/>
</g>
</g>
</svg>
