<?xml version="1.0" encoding="UTF-8" standalone="no"?>
<!DOCTYPE svg PUBLIC "-//W3C//DTD SVG 1.1//EN"
 "http://www.w3.org/Graphics/SVG/1.1/DTD/svg11.dtd">
<!-- Generated by graphviz version 2.38.0 (20140413.2041)
 -->
<!-- Title: CInv::print Pages: 1 -->
<svg width="466pt" height="66pt"
 viewBox="0.00 0.00 466.00 66.00" xmlns="http://www.w3.org/2000/svg" xmlns:xlink="http://www.w3.org/1999/xlink">
<g id="graph0" class="graph" transform="scale(1 1) rotate(0) translate(4 62)">
<title>CInv::print</title>
<polygon fill="white" stroke="none" points="-4,4 -4,-62 462,-62 462,4 -4,4"/>
<!-- Node1 -->
<g id="node1" class="node"><title>Node1</title>
<polygon fill="#bfbfbf" stroke="black" points="0,-19.5 0,-38.5 62,-38.5 62,-19.5 0,-19.5"/>
<text text-anchor="middle" x="31" y="-26.5" font-family="Helvetica,sans-Serif" font-size="10.00">CInv::print</text>
</g>
<!-- Node2 -->
<g id="node2" class="node"><title>Node2</title>
<g id="a_node2"><a xlink:href="class_c_inv.html#a87a826a842d549c2747ced0c1a90bc18" target="_top" xlink:title="CInv::ToString">
<polygon fill="white" stroke="black" points="98,-19.5 98,-38.5 178,-38.5 178,-19.5 98,-19.5"/>
<text text-anchor="middle" x="138" y="-26.5" font-family="Helvetica,sans-Serif" font-size="10.00">CInv::ToString</text>
</a>
</g>
</g>
<!-- Node1&#45;&gt;Node2 -->
<g id="edge1" class="edge"><title>Node1&#45;&gt;Node2</title>
<path fill="none" stroke="midnightblue" d="M62.0888,-29C70.1032,-29 78.9753,-29 87.7274,-29"/>
<polygon fill="midnightblue" stroke="midnightblue" points="87.8879,-32.5001 97.8879,-29 87.8878,-25.5001 87.8879,-32.5001"/>
</g>
<!-- Node3 -->
<g id="node3" class="node"><title>Node3</title>
<g id="a_node3"><a xlink:href="class_c_inv.html#a393dc4726f105b25090a6ee4952e71b5" target="_top" xlink:title="CInv::GetCommand">
<polygon fill="white" stroke="black" points="214,-38.5 214,-57.5 319,-57.5 319,-38.5 214,-38.5"/>
<text text-anchor="middle" x="266.5" y="-45.5" font-family="Helvetica,sans-Serif" font-size="10.00">CInv::GetCommand</text>
</a>
</g>
</g>
<!-- Node2&#45;&gt;Node3 -->
<g id="edge2" class="edge"><title>Node2&#45;&gt;Node3</title>
<path fill="none" stroke="midnightblue" d="M178.332,-34.9076C186.36,-36.1133 194.991,-37.4097 203.589,-38.701"/>
<polygon fill="midnightblue" stroke="midnightblue" points="203.219,-42.1848 213.628,-40.209 204.259,-35.2624 203.219,-42.1848"/>
</g>
<!-- Node5 -->
<g id="node5" class="node"><title>Node5</title>
<g id="a_node5"><a xlink:href="classbase__uint.html#ac3080a72402cadf28dbc9f9b69cc60be" target="_top" xlink:title="base_uint::ToString">
<polygon fill="white" stroke="black" points="215,-0.5 215,-19.5 318,-19.5 318,-0.5 215,-0.5"/>
<text text-anchor="middle" x="266.5" y="-7.5" font-family="Helvetica,sans-Serif" font-size="10.00">base_uint::ToString</text>
</a>
</g>
</g>
<!-- Node2&#45;&gt;Node5 -->
<g id="edge4" class="edge"><title>Node2&#45;&gt;Node5</title>
<path fill="none" stroke="midnightblue" d="M178.332,-23.0924C186.658,-21.8419 195.632,-20.4939 204.546,-19.1551"/>
<polygon fill="midnightblue" stroke="midnightblue" points="205.177,-22.5997 214.546,-17.6532 204.137,-15.6774 205.177,-22.5997"/>
</g>
<!-- Node4 -->
<g id="node4" class="node"><title>Node4</title>
<g id="a_node4"><a xlink:href="class_c_inv.html#a9259d1e8d828c6b6ea729d36d16cd84f" target="_top" xlink:title="CInv::IsKnownType">
<polygon fill="white" stroke="black" points="355,-38.5 355,-57.5 458,-57.5 458,-38.5 355,-38.5"/>
<text text-anchor="middle" x="406.5" y="-45.5" font-family="Helvetica,sans-Serif" font-size="10.00">CInv::IsKnownType</text>
</a>
</g>
</g>
<!-- Node3&#45;&gt;Node4 -->
<g id="edge3" class="edge"><title>Node3&#45;&gt;Node4</title>
<path fill="none" stroke="midnightblue" d="M319.279,-48C327.543,-48 336.16,-48 344.612,-48"/>
<polygon fill="midnightblue" stroke="midnightblue" points="344.806,-51.5001 354.806,-48 344.806,-44.5001 344.806,-51.5001"/>
</g>
<!-- Node6 -->
<g id="node6" class="node"><title>Node6</title>
<g id="a_node6"><a xlink:href="classbase__uint.html#ac9929c28600796a9acf75881bb750576" target="_top" xlink:title="base_uint::GetHex">
<polygon fill="white" stroke="black" points="357,-0.5 357,-19.5 456,-19.5 456,-0.5 357,-0.5"/>
<text text-anchor="middle" x="406.5" y="-7.5" font-family="Helvetica,sans-Serif" font-size="10.00">base_uint::GetHex</text>
</a>
</g>
</g>
<!-- Node5&#45;&gt;Node6 -->
<g id="edge5" class="edge"><title>Node5&#45;&gt;Node6</title>
<path fill="none" stroke="midnightblue" d="M318.103,-10C327.367,-10 337.109,-10 346.591,-10"/>
<polygon fill="midnightblue" stroke="midnightblue" points="346.743,-13.5001 356.743,-10 346.743,-6.5001 346.743,-13.5001"/>
</g>
</g>
</svg>
