<?xml version="1.0" encoding="UTF-8" standalone="no"?>
<!DOCTYPE svg PUBLIC "-//W3C//DTD SVG 1.1//EN"
 "http://www.w3.org/Graphics/SVG/1.1/DTD/svg11.dtd">
<!-- Generated by graphviz version 2.38.0 (20140413.2041)
 -->
<!-- Title: CBlockIndex::ToString Pages: 1 -->
<svg width="493pt" height="104pt"
 viewBox="0.00 0.00 493.00 104.00" xmlns="http://www.w3.org/2000/svg" xmlns:xlink="http://www.w3.org/1999/xlink">
<g id="graph0" class="graph" transform="scale(1 1) rotate(0) translate(4 100)">
<title>CBlockIndex::ToString</title>
<polygon fill="white" stroke="none" points="-4,4 -4,-100 489,-100 489,4 -4,4"/>
<!-- Node1 -->
<g id="node1" class="node"><title>Node1</title>
<polygon fill="#bfbfbf" stroke="black" points="0,-38.5 0,-57.5 116,-57.5 116,-38.5 0,-38.5"/>
<text text-anchor="middle" x="58" y="-45.5" font-family="Helvetica,sans-Serif" font-size="10.00">CBlockIndex::ToString</text>
</g>
<!-- Node2 -->
<g id="node2" class="node"><title>Node2</title>
<g id="a_node2"><a xlink:href="class_c_block_index.html#acc4e2df90c9b837bc27a2dd8d42c2412" target="_top" xlink:title="CBlockIndex::print">
<polygon fill="white" stroke="black" points="193,-76.5 193,-95.5 291,-95.5 291,-76.5 193,-76.5"/>
<text text-anchor="middle" x="242" y="-83.5" font-family="Helvetica,sans-Serif" font-size="10.00">CBlockIndex::print</text>
</a>
</g>
</g>
<!-- Node1&#45;&gt;Node2 -->
<g id="edge1" class="edge"><title>Node1&#45;&gt;Node2</title>
<path fill="none" stroke="midnightblue" d="M114.946,-59.681C140.756,-65.0699 171.007,-71.3861 195.404,-76.4799"/>
<polygon fill="midnightblue" stroke="midnightblue" points="115.431,-56.2068 104.926,-57.589 114,-63.059 115.431,-56.2068"/>
</g>
<!-- Node3 -->
<g id="node3" class="node"><title>Node3</title>
<g id="a_node3"><a xlink:href="class_c_disk_block_index.html#a86ef9d71fb72868699145b73f3e3e583" target="_top" xlink:title="CDiskBlockIndex::ToString">
<polygon fill="white" stroke="black" points="174.5,-38.5 174.5,-57.5 309.5,-57.5 309.5,-38.5 174.5,-38.5"/>
<text text-anchor="middle" x="242" y="-45.5" font-family="Helvetica,sans-Serif" font-size="10.00">CDiskBlockIndex::ToString</text>
</a>
</g>
</g>
<!-- Node1&#45;&gt;Node3 -->
<g id="edge2" class="edge"><title>Node1&#45;&gt;Node3</title>
<path fill="none" stroke="midnightblue" d="M126.222,-48C141.9,-48 158.591,-48 174.248,-48"/>
<polygon fill="midnightblue" stroke="midnightblue" points="126.087,-44.5001 116.087,-48 126.087,-51.5001 126.087,-44.5001"/>
</g>
<!-- Node5 -->
<g id="node5" class="node"><title>Node5</title>
<g id="a_node5"><a xlink:href="class_c_block_tree_d_b.html#a12be19bb1d7253eeb40e1aa88b032346" target="_top" xlink:title="CBlockTreeDB::LoadBlockIndexGuts">
<polygon fill="white" stroke="black" points="152,-0.5 152,-19.5 332,-19.5 332,-0.5 152,-0.5"/>
<text text-anchor="middle" x="242" y="-7.5" font-family="Helvetica,sans-Serif" font-size="10.00">CBlockTreeDB::LoadBlockIndexGuts</text>
</a>
</g>
</g>
<!-- Node1&#45;&gt;Node5 -->
<g id="edge4" class="edge"><title>Node1&#45;&gt;Node5</title>
<path fill="none" stroke="midnightblue" d="M114.946,-36.319C140.756,-30.9301 171.007,-24.6139 195.404,-19.5201"/>
<polygon fill="midnightblue" stroke="midnightblue" points="114,-32.941 104.926,-38.411 115.431,-39.7932 114,-32.941"/>
</g>
<!-- Node4 -->
<g id="node4" class="node"><title>Node4</title>
<g id="a_node4"><a xlink:href="class_c_disk_block_index.html#ac169e2e109a04bc671ff238679135c85" target="_top" xlink:title="CDiskBlockIndex::print">
<polygon fill="white" stroke="black" points="368,-38.5 368,-57.5 485,-57.5 485,-38.5 368,-38.5"/>
<text text-anchor="middle" x="426.5" y="-45.5" font-family="Helvetica,sans-Serif" font-size="10.00">CDiskBlockIndex::print</text>
</a>
</g>
</g>
<!-- Node3&#45;&gt;Node4 -->
<g id="edge3" class="edge"><title>Node3&#45;&gt;Node4</title>
<path fill="none" stroke="midnightblue" d="M320.054,-48C336.031,-48 352.604,-48 367.748,-48"/>
<polygon fill="midnightblue" stroke="midnightblue" points="319.661,-44.5001 309.661,-48 319.661,-51.5001 319.661,-44.5001"/>
</g>
</g>
</svg>
