<?xml version="1.0" encoding="UTF-8" standalone="no"?>
<!DOCTYPE svg PUBLIC "-//W3C//DTD SVG 1.1//EN"
 "http://www.w3.org/Graphics/SVG/1.1/DTD/svg11.dtd">
<!-- Generated by graphviz version 2.38.0 (20140413.2041)
 -->
<!-- Title: CCoinControl::UnSelect Pages: 1 -->
<svg width="1578pt" height="407pt"
 viewBox="0.00 0.00 1578.00 407.00" xmlns="http://www.w3.org/2000/svg" xmlns:xlink="http://www.w3.org/1999/xlink">
<g id="graph0" class="graph" transform="scale(1 1) rotate(0) translate(4 403)">
<title>CCoinControl::UnSelect</title>
<polygon fill="white" stroke="none" points="-4,4 -4,-403 1574,-403 1574,4 -4,4"/>
<!-- Node1 -->
<g id="node1" class="node"><title>Node1</title>
<polygon fill="#bfbfbf" stroke="black" points="0,-131 0,-150 123,-150 123,-131 0,-131"/>
<text text-anchor="middle" x="61.5" y="-138" font-family="Helvetica,sans-Serif" font-size="10.00">CCoinControl::UnSelect</text>
</g>
<!-- Node2 -->
<g id="node2" class="node"><title>Node2</title>
<g id="a_node2"><a xlink:href="class_coin_control_dialog.html#ac3c37dabd83f71d9c96bf5567fe85234" target="_top" xlink:title="CoinControlDialog::\lviewItemChanged">
<polygon fill="white" stroke="black" points="321.5,-147.5 321.5,-177.5 424.5,-177.5 424.5,-147.5 321.5,-147.5"/>
<text text-anchor="start" x="329.5" y="-165.5" font-family="Helvetica,sans-Serif" font-size="10.00">CoinControlDialog::</text>
<text text-anchor="middle" x="373" y="-154.5" font-family="Helvetica,sans-Serif" font-size="10.00">viewItemChanged</text>
</a>
</g>
</g>
<!-- Node1&#45;&gt;Node2 -->
<g id="edge1" class="edge"><title>Node1&#45;&gt;Node2</title>
<path fill="none" stroke="midnightblue" d="M133.349,-145.536C190.643,-149.609 269.928,-155.244 321.093,-158.881"/>
<polygon fill="midnightblue" stroke="midnightblue" points="133.501,-142.038 123.278,-144.82 133.005,-149.021 133.501,-142.038"/>
</g>
<!-- Node4 -->
<g id="node4" class="node"><title>Node4</title>
<g id="a_node4"><a xlink:href="class_coin_control_dialog.html#a4fc60e89b097952ff22dc0f9c58c87d9" target="_top" xlink:title="CoinControlDialog::\lupdateLabels">
<polygon fill="white" stroke="black" points="159,-169.5 159,-199.5 262,-199.5 262,-169.5 159,-169.5"/>
<text text-anchor="start" x="167" y="-187.5" font-family="Helvetica,sans-Serif" font-size="10.00">CoinControlDialog::</text>
<text text-anchor="middle" x="210.5" y="-176.5" font-family="Helvetica,sans-Serif" font-size="10.00">updateLabels</text>
</a>
</g>
</g>
<!-- Node1&#45;&gt;Node4 -->
<g id="edge3" class="edge"><title>Node1&#45;&gt;Node4</title>
<path fill="none" stroke="midnightblue" d="M104.112,-152.955C121.238,-158.081 141.228,-164.065 159.168,-169.435"/>
<polygon fill="midnightblue" stroke="midnightblue" points="104.981,-149.562 94.3968,-150.047 102.973,-156.268 104.981,-149.562"/>
</g>
<!-- Node27 -->
<g id="node27" class="node"><title>Node27</title>
<g id="a_node27"><a xlink:href="class_coin_control_dialog.html#aadea33050e5c1efd5eae8d2fcfa721f9" target="_top" xlink:title="CoinControlDialog::\lupdateView">
<polygon fill="white" stroke="black" points="159,-76.5 159,-106.5 262,-106.5 262,-76.5 159,-76.5"/>
<text text-anchor="start" x="167" y="-94.5" font-family="Helvetica,sans-Serif" font-size="10.00">CoinControlDialog::</text>
<text text-anchor="middle" x="210.5" y="-83.5" font-family="Helvetica,sans-Serif" font-size="10.00">updateView</text>
</a>
</g>
</g>
<!-- Node1&#45;&gt;Node27 -->
<g id="edge38" class="edge"><title>Node1&#45;&gt;Node27</title>
<path fill="none" stroke="midnightblue" d="M100.928,-127.691C120.369,-121.21 144.086,-113.305 164.389,-106.537"/>
<polygon fill="midnightblue" stroke="midnightblue" points="99.5721,-124.453 91.192,-130.936 101.786,-131.094 99.5721,-124.453"/>
</g>
<!-- Node3 -->
<g id="node3" class="node"><title>Node3</title>
<g id="a_node3"><a xlink:href="class_coin_control_dialog.html#a0945e59c25f956fdab199dbaf252eff5" target="_top" xlink:title="CoinControlDialog::\lCoinControlDialog">
<polygon fill="white" stroke="black" points="508.5,-49.5 508.5,-79.5 611.5,-79.5 611.5,-49.5 508.5,-49.5"/>
<text text-anchor="start" x="516.5" y="-67.5" font-family="Helvetica,sans-Serif" font-size="10.00">CoinControlDialog::</text>
<text text-anchor="middle" x="560" y="-56.5" font-family="Helvetica,sans-Serif" font-size="10.00">CoinControlDialog</text>
</a>
</g>
</g>
<!-- Node2&#45;&gt;Node3 -->
<g id="edge2" class="edge"><title>Node2&#45;&gt;Node3</title>
<path fill="none" stroke="midnightblue" d="M433.794,-145.979C438.805,-143.514 443.622,-140.702 448,-137.5 469.812,-121.547 462.06,-104.277 484,-88.5 491.326,-83.2321 499.859,-79.0853 508.49,-75.8316"/>
<polygon fill="midnightblue" stroke="midnightblue" points="432.337,-142.797 424.616,-150.052 435.177,-149.195 432.337,-142.797"/>
</g>
<!-- Node4&#45;&gt;Node2 -->
<g id="edge9" class="edge"><title>Node4&#45;&gt;Node2</title>
<path fill="none" stroke="midnightblue" d="M272.646,-176.119C288.698,-173.918 305.832,-171.57 321.272,-169.453"/>
<polygon fill="midnightblue" stroke="midnightblue" points="271.715,-172.713 262.283,-177.539 272.666,-179.649 271.715,-172.713"/>
</g>
<!-- Node5 -->
<g id="node5" class="node"><title>Node5</title>
<g id="a_node5"><a xlink:href="class_coin_control_dialog.html#a4c34a48574814089c54f763a22f5317a" target="_top" xlink:title="CoinControlDialog::\lsetModel">
<polygon fill="white" stroke="black" points="321.5,-98.5 321.5,-128.5 424.5,-128.5 424.5,-98.5 321.5,-98.5"/>
<text text-anchor="start" x="329.5" y="-116.5" font-family="Helvetica,sans-Serif" font-size="10.00">CoinControlDialog::</text>
<text text-anchor="middle" x="373" y="-105.5" font-family="Helvetica,sans-Serif" font-size="10.00">setModel</text>
</a>
</g>
</g>
<!-- Node4&#45;&gt;Node5 -->
<g id="edge4" class="edge"><title>Node4&#45;&gt;Node5</title>
<path fill="none" stroke="midnightblue" d="M245.077,-164.38C260.811,-155.444 280.015,-145.224 298,-137.5 305.446,-134.302 313.466,-131.285 321.383,-128.539"/>
<polygon fill="midnightblue" stroke="midnightblue" points="243.168,-161.44 236.25,-169.464 246.662,-167.506 243.168,-161.44"/>
</g>
<!-- Node8 -->
<g id="node8" class="node"><title>Node8</title>
<g id="a_node8"><a xlink:href="class_coin_control_dialog.html#ae106a71c5b87ac8bea8c52e7c4f4a129" target="_top" xlink:title="CoinControlDialog::\lbuttonSelectAllClicked">
<polygon fill="white" stroke="black" points="315,-196.5 315,-226.5 431,-226.5 431,-196.5 315,-196.5"/>
<text text-anchor="start" x="323" y="-214.5" font-family="Helvetica,sans-Serif" font-size="10.00">CoinControlDialog::</text>
<text text-anchor="middle" x="373" y="-203.5" font-family="Helvetica,sans-Serif" font-size="10.00">buttonSelectAllClicked</text>
</a>
</g>
</g>
<!-- Node4&#45;&gt;Node8 -->
<g id="edge7" class="edge"><title>Node4&#45;&gt;Node8</title>
<path fill="none" stroke="midnightblue" d="M272.277,-194.724C286.242,-197.073 301.044,-199.563 314.849,-201.886"/>
<polygon fill="midnightblue" stroke="midnightblue" points="272.725,-191.25 262.283,-193.043 271.564,-198.153 272.725,-191.25"/>
</g>
<!-- Node9 -->
<g id="node9" class="node"><title>Node9</title>
<g id="a_node9"><a xlink:href="class_send_coins_dialog.html#ae4f429aabcaf309aa314b90049be2a74" target="_top" xlink:title="SendCoinsDialog::coinControl\lUpdateLabels">
<polygon fill="white" stroke="black" points="298,-245.5 298,-275.5 448,-275.5 448,-245.5 298,-245.5"/>
<text text-anchor="start" x="306" y="-263.5" font-family="Helvetica,sans-Serif" font-size="10.00">SendCoinsDialog::coinControl</text>
<text text-anchor="middle" x="373" y="-252.5" font-family="Helvetica,sans-Serif" font-size="10.00">UpdateLabels</text>
</a>
</g>
</g>
<!-- Node4&#45;&gt;Node9 -->
<g id="edge10" class="edge"><title>Node4&#45;&gt;Node9</title>
<path fill="none" stroke="midnightblue" d="M242.769,-205.063C258.846,-215.08 279.008,-226.807 298,-235.5 305.768,-239.056 314.194,-242.375 322.484,-245.36"/>
<polygon fill="midnightblue" stroke="midnightblue" points="244.615,-202.088 234.292,-199.704 240.874,-208.005 244.615,-202.088"/>
</g>
<!-- Node6 -->
<g id="node6" class="node"><title>Node6</title>
<g id="a_node6"><a xlink:href="class_send_coins_dialog.html#a59d757d9e4bea5b380eb480fd79cfb49" target="_top" xlink:title="SendCoinsDialog::coinControl\lButtonClicked">
<polygon fill="white" stroke="black" points="485,-98.5 485,-128.5 635,-128.5 635,-98.5 485,-98.5"/>
<text text-anchor="start" x="493" y="-116.5" font-family="Helvetica,sans-Serif" font-size="10.00">SendCoinsDialog::coinControl</text>
<text text-anchor="middle" x="560" y="-105.5" font-family="Helvetica,sans-Serif" font-size="10.00">ButtonClicked</text>
</a>
</g>
</g>
<!-- Node5&#45;&gt;Node6 -->
<g id="edge5" class="edge"><title>Node5&#45;&gt;Node6</title>
<path fill="none" stroke="midnightblue" d="M434.841,-113.5C450.851,-113.5 468.298,-113.5 484.919,-113.5"/>
<polygon fill="midnightblue" stroke="midnightblue" points="434.552,-110 424.552,-113.5 434.552,-117 434.552,-110"/>
</g>
<!-- Node7 -->
<g id="node7" class="node"><title>Node7</title>
<g id="a_node7"><a xlink:href="class_send_coins_dialog.html#a0df5bc29d1df68eda44826651afc595f" target="_top" xlink:title="SendCoinsDialog::SendCoins\lDialog">
<polygon fill="white" stroke="black" points="1050.5,-128.5 1050.5,-158.5 1198.5,-158.5 1198.5,-128.5 1050.5,-128.5"/>
<text text-anchor="start" x="1058.5" y="-146.5" font-family="Helvetica,sans-Serif" font-size="10.00">SendCoinsDialog::SendCoins</text>
<text text-anchor="middle" x="1124.5" y="-135.5" font-family="Helvetica,sans-Serif" font-size="10.00">Dialog</text>
</a>
</g>
</g>
<!-- Node6&#45;&gt;Node7 -->
<g id="edge6" class="edge"><title>Node6&#45;&gt;Node7</title>
<path fill="none" stroke="midnightblue" d="M627.107,-96.1567C715.405,-76.1498 875.612,-50.9854 1004,-92.5 1022.78,-98.5723 1022.3,-109.77 1040,-118.5 1047.6,-122.248 1055.87,-125.553 1064.15,-128.429"/>
<polygon fill="midnightblue" stroke="midnightblue" points="626.178,-92.779 617.224,-98.4427 627.756,-99.5989 626.178,-92.779"/>
</g>
<!-- Node8&#45;&gt;Node3 -->
<g id="edge8" class="edge"><title>Node8&#45;&gt;Node3</title>
<path fill="none" stroke="midnightblue" d="M440.089,-192.947C442.912,-191.007 445.572,-188.866 448,-186.5 481.238,-154.123 450.502,-120.609 484,-88.5 490.81,-81.9724 499.397,-77.2201 508.31,-73.7603"/>
<polygon fill="midnightblue" stroke="midnightblue" points="438.042,-190.09 431.199,-198.179 441.593,-196.123 438.042,-190.09"/>
</g>
<!-- Node9&#45;&gt;Node6 -->
<g id="edge37" class="edge"><title>Node9&#45;&gt;Node6</title>
<path fill="none" stroke="midnightblue" d="M441.47,-240.24C443.746,-238.767 445.933,-237.19 448,-235.5 472.671,-215.334 463.204,-197.642 484,-173.5 499.127,-155.939 519.938,-139.759 535.801,-128.638"/>
<polygon fill="midnightblue" stroke="midnightblue" points="439.297,-237.448 432.315,-245.417 442.743,-243.541 439.297,-237.448"/>
</g>
<!-- Node10 -->
<g id="node10" class="node"><title>Node10</title>
<g id="a_node10"><a xlink:href="class_send_coins_dialog.html#a73a6c1b1850a334ee652ac167713a2aa" target="_top" xlink:title="SendCoinsDialog::setModel">
<polygon fill="white" stroke="black" points="672,-352 672,-371 812,-371 812,-352 672,-352"/>
<text text-anchor="middle" x="742" y="-359" font-family="Helvetica,sans-Serif" font-size="10.00">SendCoinsDialog::setModel</text>
</a>
</g>
</g>
<!-- Node9&#45;&gt;Node10 -->
<g id="edge11" class="edge"><title>Node9&#45;&gt;Node10</title>
<path fill="none" stroke="midnightblue" d="M407.819,-280.589C429.041,-292.38 457.345,-306.655 484,-315.5 545.842,-336.02 619.267,-347.999 671.767,-354.559"/>
<polygon fill="midnightblue" stroke="midnightblue" points="409.32,-277.417 398.892,-275.543 405.876,-283.511 409.32,-277.417"/>
</g>
<!-- Node13 -->
<g id="node13" class="node"><title>Node13</title>
<g id="a_node13"><a xlink:href="class_send_coins_dialog.html#a2cab7cf9ea5040b9e2189297f7d3c764" target="_top" xlink:title="SendCoinsDialog::on\l_sendButton_clicked">
<polygon fill="white" stroke="black" points="1260.5,-248.5 1260.5,-278.5 1370.5,-278.5 1370.5,-248.5 1260.5,-248.5"/>
<text text-anchor="start" x="1268.5" y="-266.5" font-family="Helvetica,sans-Serif" font-size="10.00">SendCoinsDialog::on</text>
<text text-anchor="middle" x="1315.5" y="-255.5" font-family="Helvetica,sans-Serif" font-size="10.00">_sendButton_clicked</text>
</a>
</g>
</g>
<!-- Node9&#45;&gt;Node13 -->
<g id="edge14" class="edge"><title>Node9&#45;&gt;Node13</title>
<path fill="none" stroke="midnightblue" d="M458.455,-275.335C532.649,-287.073 643.642,-301.5 741,-301.5 741,-301.5 741,-301.5 927,-301.5 1052.62,-301.5 1084.33,-297.878 1209,-282.5 1225.81,-280.427 1244,-277.427 1260.46,-274.421"/>
<polygon fill="midnightblue" stroke="midnightblue" points="458.663,-271.824 448.236,-273.698 457.556,-278.736 458.663,-271.824"/>
</g>
<!-- Node14 -->
<g id="node14" class="node"><title>Node14</title>
<g id="a_node14"><a xlink:href="class_send_coins_dialog.html#a3d680a76b967641115c6ff2fa83fb62a" target="_top" xlink:title="SendCoinsDialog::addEntry">
<polygon fill="white" stroke="black" points="672.5,-178 672.5,-197 811.5,-197 811.5,-178 672.5,-178"/>
<text text-anchor="middle" x="742" y="-185" font-family="Helvetica,sans-Serif" font-size="10.00">SendCoinsDialog::addEntry</text>
</a>
</g>
</g>
<!-- Node9&#45;&gt;Node14 -->
<g id="edge15" class="edge"><title>Node9&#45;&gt;Node14</title>
<path fill="none" stroke="midnightblue" d="M435.716,-241.533C439.948,-239.661 444.083,-237.65 448,-235.5 466.011,-225.615 464.889,-214.044 484,-206.5 544.446,-182.64 619.034,-179.739 672.258,-181.694"/>
<polygon fill="midnightblue" stroke="midnightblue" points="434.248,-238.352 426.344,-245.408 436.923,-244.821 434.248,-238.352"/>
</g>
<!-- Node25 -->
<g id="node25" class="node"><title>Node25</title>
<g id="a_node25"><a xlink:href="class_send_coins_dialog.html#a3b834c739f7d02d8086a2bf58525c5f0" target="_top" xlink:title="SendCoinsDialog::updateTabs\lAndLabels">
<polygon fill="white" stroke="black" points="484,-216.5 484,-246.5 636,-246.5 636,-216.5 484,-216.5"/>
<text text-anchor="start" x="492" y="-234.5" font-family="Helvetica,sans-Serif" font-size="10.00">SendCoinsDialog::updateTabs</text>
<text text-anchor="middle" x="560" y="-223.5" font-family="Helvetica,sans-Serif" font-size="10.00">AndLabels</text>
</a>
</g>
</g>
<!-- Node9&#45;&gt;Node25 -->
<g id="edge30" class="edge"><title>Node9&#45;&gt;Node25</title>
<path fill="none" stroke="midnightblue" d="M458.184,-247.304C466.758,-245.96 475.429,-244.6 483.897,-243.273"/>
<polygon fill="midnightblue" stroke="midnightblue" points="457.518,-243.865 448.181,-248.872 458.602,-250.781 457.518,-243.865"/>
</g>
<!-- Node26 -->
<g id="node26" class="node"><title>Node26</title>
<g id="a_node26"><a xlink:href="class_send_coins_dialog.html#af13ddd00abec4f060632d887b5e838a3" target="_top" xlink:title="SendCoinsDialog::coinControl\lFeatureChanged">
<polygon fill="white" stroke="black" points="485,-368.5 485,-398.5 635,-398.5 635,-368.5 485,-368.5"/>
<text text-anchor="start" x="493" y="-386.5" font-family="Helvetica,sans-Serif" font-size="10.00">SendCoinsDialog::coinControl</text>
<text text-anchor="middle" x="560" y="-375.5" font-family="Helvetica,sans-Serif" font-size="10.00">FeatureChanged</text>
</a>
</g>
</g>
<!-- Node9&#45;&gt;Node26 -->
<g id="edge35" class="edge"><title>Node9&#45;&gt;Node26</title>
<path fill="none" stroke="midnightblue" d="M395.992,-282.841C417.09,-303.319 450.593,-333.421 484,-353.5 493.496,-359.207 504.273,-364.249 514.637,-368.492"/>
<polygon fill="midnightblue" stroke="midnightblue" points="398.386,-280.287 388.803,-275.769 393.477,-285.277 398.386,-280.287"/>
</g>
<!-- Node11 -->
<g id="node11" class="node"><title>Node11</title>
<g id="a_node11"><a xlink:href="class_wallet_view.html#a0a37ff693a4f9c1e5ddc23f9cd3913be" target="_top" xlink:title="Set the wallet model. ">
<polygon fill="white" stroke="black" points="856,-352 856,-371 996,-371 996,-352 856,-352"/>
<text text-anchor="middle" x="926" y="-359" font-family="Helvetica,sans-Serif" font-size="10.00">WalletView::setWalletModel</text>
</a>
</g>
</g>
<!-- Node10&#45;&gt;Node11 -->
<g id="edge12" class="edge"><title>Node10&#45;&gt;Node11</title>
<path fill="none" stroke="midnightblue" d="M822.285,-361.5C833.508,-361.5 844.973,-361.5 855.981,-361.5"/>
<polygon fill="midnightblue" stroke="midnightblue" points="822.066,-358 812.066,-361.5 822.066,-365 822.066,-358"/>
</g>
<!-- Node12 -->
<g id="node12" class="node"><title>Node12</title>
<g id="a_node12"><a xlink:href="class_wallet_frame.html#aa199c3f27654199d84c365cf86167d86" target="_top" xlink:title="WalletFrame::addWallet">
<polygon fill="white" stroke="black" points="1063,-352 1063,-371 1186,-371 1186,-352 1063,-352"/>
<text text-anchor="middle" x="1124.5" y="-359" font-family="Helvetica,sans-Serif" font-size="10.00">WalletFrame::addWallet</text>
</a>
</g>
</g>
<!-- Node11&#45;&gt;Node12 -->
<g id="edge13" class="edge"><title>Node11&#45;&gt;Node12</title>
<path fill="none" stroke="midnightblue" d="M1006.09,-361.5C1025,-361.5 1044.91,-361.5 1062.84,-361.5"/>
<polygon fill="midnightblue" stroke="midnightblue" points="1006,-358 996.002,-361.5 1006,-365 1006,-358"/>
</g>
<!-- Node14&#45;&gt;Node7 -->
<g id="edge16" class="edge"><title>Node14&#45;&gt;Node7</title>
<path fill="none" stroke="midnightblue" d="M800.352,-176.174C815.78,-173.387 832.49,-170.603 848,-168.5 916.293,-159.241 994.589,-152.507 1050.21,-148.376"/>
<polygon fill="midnightblue" stroke="midnightblue" points="799.626,-172.749 790.424,-177.999 800.892,-179.634 799.626,-172.749"/>
</g>
<!-- Node15 -->
<g id="node15" class="node"><title>Node15</title>
<g id="a_node15"><a xlink:href="class_send_coins_dialog.html#a127bddff45f49ff5e6e263efe218ae26" target="_top" xlink:title="SendCoinsDialog::clear">
<polygon fill="white" stroke="black" points="865.5,-254 865.5,-273 986.5,-273 986.5,-254 865.5,-254"/>
<text text-anchor="middle" x="926" y="-261" font-family="Helvetica,sans-Serif" font-size="10.00">SendCoinsDialog::clear</text>
</a>
</g>
</g>
<!-- Node14&#45;&gt;Node15 -->
<g id="edge17" class="edge"><title>Node14&#45;&gt;Node15</title>
<path fill="none" stroke="midnightblue" d="M766.451,-202.5C787.198,-215.208 818.648,-233.128 848,-244.5 857.501,-248.181 867.943,-251.322 877.988,-253.926"/>
<polygon fill="midnightblue" stroke="midnightblue" points="768.058,-199.378 757.718,-197.07 764.362,-205.322 768.058,-199.378"/>
</g>
<!-- Node18 -->
<g id="node18" class="node"><title>Node18</title>
<g id="a_node18"><a xlink:href="class_send_coins_dialog.html#aabd82a79bd2358493f36425f1d62136b" target="_top" xlink:title="SendCoinsDialog::removeEntry">
<polygon fill="white" stroke="black" points="848,-216 848,-235 1004,-235 1004,-216 848,-216"/>
<text text-anchor="middle" x="926" y="-223" font-family="Helvetica,sans-Serif" font-size="10.00">SendCoinsDialog::removeEntry</text>
</a>
</g>
</g>
<!-- Node14&#45;&gt;Node18 -->
<g id="edge22" class="edge"><title>Node14&#45;&gt;Node18</title>
<path fill="none" stroke="midnightblue" d="M821.733,-197.243C850.785,-203.048 881.537,-210.141 901.85,-215.985"/>
<polygon fill="midnightblue" stroke="midnightblue" points="822.033,-193.736 811.547,-195.248 820.688,-200.605 822.033,-193.736"/>
</g>
<!-- Node19 -->
<g id="node19" class="node"><title>Node19</title>
<g id="a_node19"><a xlink:href="class_send_coins_dialog.html#a920b2dbf121ca3cfac2adc56e96295f8" target="_top" xlink:title="SendCoinsDialog::setAddress">
<polygon fill="white" stroke="black" points="851.5,-178 851.5,-197 1000.5,-197 1000.5,-178 851.5,-178"/>
<text text-anchor="middle" x="926" y="-185" font-family="Helvetica,sans-Serif" font-size="10.00">SendCoinsDialog::setAddress</text>
</a>
</g>
</g>
<!-- Node14&#45;&gt;Node19 -->
<g id="edge24" class="edge"><title>Node14&#45;&gt;Node19</title>
<path fill="none" stroke="midnightblue" d="M821.711,-187.5C831.551,-187.5 841.586,-187.5 851.345,-187.5"/>
<polygon fill="midnightblue" stroke="midnightblue" points="821.547,-184 811.547,-187.5 821.547,-191 821.547,-184"/>
</g>
<!-- Node21 -->
<g id="node21" class="node"><title>Node21</title>
<g id="a_node21"><a xlink:href="class_send_coins_dialog.html#a4440d15ced5d217baaad33a17d56b409" target="_top" xlink:title="SendCoinsDialog::pasteEntry">
<polygon fill="white" stroke="black" points="852.5,-102 852.5,-121 999.5,-121 999.5,-102 852.5,-102"/>
<text text-anchor="middle" x="926" y="-109" font-family="Helvetica,sans-Serif" font-size="10.00">SendCoinsDialog::pasteEntry</text>
</a>
</g>
</g>
<!-- Node14&#45;&gt;Node21 -->
<g id="edge26" class="edge"><title>Node14&#45;&gt;Node21</title>
<path fill="none" stroke="midnightblue" d="M768.99,-173.192C789.925,-162.021 820.325,-146.585 848,-135.5 861.518,-130.085 876.761,-125.109 890.096,-121.109"/>
<polygon fill="midnightblue" stroke="midnightblue" points="767.223,-170.168 760.081,-177.994 770.544,-176.33 767.223,-170.168"/>
</g>
<!-- Node15&#45;&gt;Node7 -->
<g id="edge18" class="edge"><title>Node15&#45;&gt;Node7</title>
<path fill="none" stroke="midnightblue" d="M995.792,-250.122C998.685,-248.457 1001.44,-246.591 1004,-244.5 1032.94,-220.848 1011.65,-192.853 1040,-168.5 1044.48,-164.655 1049.53,-161.401 1054.87,-158.647"/>
<polygon fill="midnightblue" stroke="midnightblue" points="994.207,-247.001 986.759,-254.536 997.28,-253.29 994.207,-247.001"/>
</g>
<!-- Node16 -->
<g id="node16" class="node"><title>Node16</title>
<g id="a_node16"><a xlink:href="class_send_coins_dialog.html#a4879553d77d29f522ac92ac04580f4ad" target="_top" xlink:title="SendCoinsDialog::reject">
<polygon fill="white" stroke="black" points="1062.5,-254 1062.5,-273 1186.5,-273 1186.5,-254 1062.5,-254"/>
<text text-anchor="middle" x="1124.5" y="-261" font-family="Helvetica,sans-Serif" font-size="10.00">SendCoinsDialog::reject</text>
</a>
</g>
</g>
<!-- Node15&#45;&gt;Node16 -->
<g id="edge19" class="edge"><title>Node15&#45;&gt;Node16</title>
<path fill="none" stroke="midnightblue" d="M996.76,-263.5C1018.16,-263.5 1041.54,-263.5 1062.33,-263.5"/>
<polygon fill="midnightblue" stroke="midnightblue" points="996.757,-260 986.757,-263.5 996.757,-267 996.757,-260"/>
</g>
<!-- Node17 -->
<g id="node17" class="node"><title>Node17</title>
<g id="a_node17"><a xlink:href="class_send_coins_dialog.html#af2185c3d29e43d37c30669f0def46060" target="_top" xlink:title="SendCoinsDialog::accept">
<polygon fill="white" stroke="black" points="1060,-216 1060,-235 1189,-235 1189,-216 1060,-216"/>
<text text-anchor="middle" x="1124.5" y="-223" font-family="Helvetica,sans-Serif" font-size="10.00">SendCoinsDialog::accept</text>
</a>
</g>
</g>
<!-- Node15&#45;&gt;Node17 -->
<g id="edge20" class="edge"><title>Node15&#45;&gt;Node17</title>
<path fill="none" stroke="midnightblue" d="M986.412,-252.011C1014.45,-246.589 1047.52,-240.194 1074.15,-235.044"/>
<polygon fill="midnightblue" stroke="midnightblue" points="985.485,-248.625 976.332,-253.96 986.814,-255.498 985.485,-248.625"/>
</g>
<!-- Node17&#45;&gt;Node13 -->
<g id="edge21" class="edge"><title>Node17&#45;&gt;Node13</title>
<path fill="none" stroke="midnightblue" d="M1183.12,-237.084C1207.72,-242.031 1236.28,-247.773 1260.47,-252.638"/>
<polygon fill="midnightblue" stroke="midnightblue" points="1183.69,-233.629 1173.19,-235.089 1182.31,-240.492 1183.69,-233.629"/>
</g>
<!-- Node18&#45;&gt;Node14 -->
<g id="edge23" class="edge"><title>Node18&#45;&gt;Node14</title>
<path fill="none" stroke="midnightblue" d="M837.638,-214.005C811.383,-208.592 784.724,-202.345 766.421,-197.092"/>
<polygon fill="midnightblue" stroke="midnightblue" points="837.166,-217.48 847.662,-216.034 838.556,-210.619 837.166,-217.48"/>
</g>
<!-- Node20 -->
<g id="node20" class="node"><title>Node20</title>
<g id="a_node20"><a xlink:href="class_wallet_view.html#a2a70c2b00b097dd7b83b6915bb037ea3" target="_top" xlink:title="Switch to send coins page. ">
<polygon fill="white" stroke="black" points="1043,-178 1043,-197 1206,-197 1206,-178 1043,-178"/>
<text text-anchor="middle" x="1124.5" y="-185" font-family="Helvetica,sans-Serif" font-size="10.00">WalletView::gotoSendCoinsPage</text>
</a>
</g>
</g>
<!-- Node19&#45;&gt;Node20 -->
<g id="edge25" class="edge"><title>Node19&#45;&gt;Node20</title>
<path fill="none" stroke="midnightblue" d="M1010.8,-187.5C1021.4,-187.5 1032.22,-187.5 1042.77,-187.5"/>
<polygon fill="midnightblue" stroke="midnightblue" points="1010.73,-184 1000.73,-187.5 1010.73,-191 1010.73,-184"/>
</g>
<!-- Node22 -->
<g id="node22" class="node"><title>Node22</title>
<g id="a_node22"><a xlink:href="class_send_coins_dialog.html#a82ed6a3badadaa523415e1924ebd292a" target="_top" xlink:title="SendCoinsDialog::handlePayment\lRequest">
<polygon fill="white" stroke="black" points="1040,-79.5 1040,-109.5 1209,-109.5 1209,-79.5 1040,-79.5"/>
<text text-anchor="start" x="1048" y="-97.5" font-family="Helvetica,sans-Serif" font-size="10.00">SendCoinsDialog::handlePayment</text>
<text text-anchor="middle" x="1124.5" y="-86.5" font-family="Helvetica,sans-Serif" font-size="10.00">Request</text>
</a>
</g>
</g>
<!-- Node21&#45;&gt;Node22 -->
<g id="edge27" class="edge"><title>Node21&#45;&gt;Node22</title>
<path fill="none" stroke="midnightblue" d="M1009.87,-104.33C1019.81,-103.471 1029.96,-102.592 1039.91,-101.732"/>
<polygon fill="midnightblue" stroke="midnightblue" points="1009.27,-100.869 999.611,-105.218 1009.88,-107.843 1009.27,-100.869"/>
</g>
<!-- Node23 -->
<g id="node23" class="node"><title>Node23</title>
<g id="a_node23"><a xlink:href="class_wallet_view.html#a0ae21d91a9d7755026ce2a6846cef68d" target="_top" xlink:title="WalletView::handlePayment\lRequest">
<polygon fill="white" stroke="black" points="1245,-79.5 1245,-109.5 1386,-109.5 1386,-79.5 1245,-79.5"/>
<text text-anchor="start" x="1253" y="-97.5" font-family="Helvetica,sans-Serif" font-size="10.00">WalletView::handlePayment</text>
<text text-anchor="middle" x="1315.5" y="-86.5" font-family="Helvetica,sans-Serif" font-size="10.00">Request</text>
</a>
</g>
</g>
<!-- Node22&#45;&gt;Node23 -->
<g id="edge28" class="edge"><title>Node22&#45;&gt;Node23</title>
<path fill="none" stroke="midnightblue" d="M1219.34,-94.5C1227.98,-94.5 1236.62,-94.5 1244.99,-94.5"/>
<polygon fill="midnightblue" stroke="midnightblue" points="1219.22,-91.0001 1209.22,-94.5 1219.22,-98.0001 1219.22,-91.0001"/>
</g>
<!-- Node24 -->
<g id="node24" class="node"><title>Node24</title>
<g id="a_node24"><a xlink:href="class_wallet_frame.html#aa8c5b10f2240df164795619ca41c619c" target="_top" xlink:title="WalletFrame::handlePayment\lRequest">
<polygon fill="white" stroke="black" points="1422,-79.5 1422,-109.5 1570,-109.5 1570,-79.5 1422,-79.5"/>
<text text-anchor="start" x="1430" y="-97.5" font-family="Helvetica,sans-Serif" font-size="10.00">WalletFrame::handlePayment</text>
<text text-anchor="middle" x="1496" y="-86.5" font-family="Helvetica,sans-Serif" font-size="10.00">Request</text>
</a>
</g>
</g>
<!-- Node23&#45;&gt;Node24 -->
<g id="edge29" class="edge"><title>Node23&#45;&gt;Node24</title>
<path fill="none" stroke="midnightblue" d="M1396.03,-94.5C1404.62,-94.5 1413.33,-94.5 1421.83,-94.5"/>
<polygon fill="midnightblue" stroke="midnightblue" points="1396.02,-91.0001 1386.02,-94.5 1396.02,-98.0001 1396.02,-91.0001"/>
</g>
<!-- Node25&#45;&gt;Node14 -->
<g id="edge32" class="edge"><title>Node25&#45;&gt;Node14</title>
<path fill="none" stroke="midnightblue" d="M632.167,-214.104C655.993,-208.279 681.663,-202.005 702.086,-197.012"/>
<polygon fill="midnightblue" stroke="midnightblue" points="631.325,-210.706 622.442,-216.481 632.987,-217.506 631.325,-210.706"/>
</g>
<!-- Node25&#45;&gt;Node15 -->
<g id="edge31" class="edge"><title>Node25&#45;&gt;Node15</title>
<path fill="none" stroke="midnightblue" d="M646.359,-240.098C655.018,-240.929 663.683,-241.743 672,-242.5 738.169,-248.524 814.14,-254.736 865.424,-258.825"/>
<polygon fill="midnightblue" stroke="midnightblue" points="646.508,-236.596 636.217,-239.118 645.834,-243.564 646.508,-236.596"/>
</g>
<!-- Node25&#45;&gt;Node18 -->
<g id="edge33" class="edge"><title>Node25&#45;&gt;Node18</title>
<path fill="none" stroke="midnightblue" d="M646.787,-230.086C707.731,-229.081 788.875,-227.744 847.795,-226.773"/>
<polygon fill="midnightblue" stroke="midnightblue" points="646.362,-226.592 636.421,-230.257 646.477,-233.591 646.362,-226.592"/>
</g>
<!-- Node25&#45;&gt;Node21 -->
<g id="edge34" class="edge"><title>Node25&#45;&gt;Node21</title>
<path fill="none" stroke="midnightblue" d="M591.424,-210.971C613.074,-197.192 643.3,-179.596 672,-168.5 732.998,-144.917 806.224,-129.746 858.166,-121.033"/>
<polygon fill="midnightblue" stroke="midnightblue" points="589.488,-208.054 582.989,-216.422 593.288,-213.933 589.488,-208.054"/>
</g>
<!-- Node26&#45;&gt;Node10 -->
<g id="edge36" class="edge"><title>Node26&#45;&gt;Node10</title>
<path fill="none" stroke="midnightblue" d="M645.252,-373.203C654.153,-372.115 663.13,-371.017 671.832,-369.954"/>
<polygon fill="midnightblue" stroke="midnightblue" points="644.754,-369.737 635.252,-374.425 645.603,-376.686 644.754,-369.737"/>
</g>
<!-- Node27&#45;&gt;Node5 -->
<g id="edge39" class="edge"><title>Node27&#45;&gt;Node5</title>
<path fill="none" stroke="midnightblue" d="M272.646,-99.8814C288.698,-102.082 305.832,-104.43 321.272,-106.547"/>
<polygon fill="midnightblue" stroke="midnightblue" points="272.666,-96.3515 262.283,-98.4609 271.715,-103.287 272.666,-96.3515"/>
</g>
<!-- Node28 -->
<g id="node28" class="node"><title>Node28</title>
<g id="a_node28"><a xlink:href="class_coin_control_dialog.html#a1990d478f3ffba666c358a4f1bd395ec" target="_top" xlink:title="CoinControlDialog::\lradioTreeMode">
<polygon fill="white" stroke="black" points="321.5,-49.5 321.5,-79.5 424.5,-79.5 424.5,-49.5 321.5,-49.5"/>
<text text-anchor="start" x="329.5" y="-67.5" font-family="Helvetica,sans-Serif" font-size="10.00">CoinControlDialog::</text>
<text text-anchor="middle" x="373" y="-56.5" font-family="Helvetica,sans-Serif" font-size="10.00">radioTreeMode</text>
</a>
</g>
</g>
<!-- Node27&#45;&gt;Node28 -->
<g id="edge40" class="edge"><title>Node27&#45;&gt;Node28</title>
<path fill="none" stroke="midnightblue" d="M272.188,-81.2908C288.371,-78.5684 305.685,-75.6558 321.272,-73.0337"/>
<polygon fill="midnightblue" stroke="midnightblue" points="271.564,-77.8465 262.283,-82.957 272.725,-84.7495 271.564,-77.8465"/>
</g>
<!-- Node29 -->
<g id="node29" class="node"><title>Node29</title>
<g id="a_node29"><a xlink:href="class_coin_control_dialog.html#a775c6d290cb63667a434b09072094533" target="_top" xlink:title="CoinControlDialog::\lradioListMode">
<polygon fill="white" stroke="black" points="321.5,-0.5 321.5,-30.5 424.5,-30.5 424.5,-0.5 321.5,-0.5"/>
<text text-anchor="start" x="329.5" y="-18.5" font-family="Helvetica,sans-Serif" font-size="10.00">CoinControlDialog::</text>
<text text-anchor="middle" x="373" y="-7.5" font-family="Helvetica,sans-Serif" font-size="10.00">radioListMode</text>
</a>
</g>
</g>
<!-- Node27&#45;&gt;Node29 -->
<g id="edge42" class="edge"><title>Node27&#45;&gt;Node29</title>
<path fill="none" stroke="midnightblue" d="M241.998,-70.8296C258.158,-60.4868 278.626,-48.3254 298,-39.5 305.375,-36.1407 313.357,-33.0377 321.258,-30.2554"/>
<polygon fill="midnightblue" stroke="midnightblue" points="239.974,-67.9707 233.498,-76.3558 243.79,-73.8395 239.974,-67.9707"/>
</g>
<!-- Node28&#45;&gt;Node3 -->
<g id="edge41" class="edge"><title>Node28&#45;&gt;Node3</title>
<path fill="none" stroke="midnightblue" d="M434.861,-64.5C458.604,-64.5 485.51,-64.5 508.188,-64.5"/>
<polygon fill="midnightblue" stroke="midnightblue" points="434.552,-61.0001 424.552,-64.5 434.552,-68.0001 434.552,-61.0001"/>
</g>
<!-- Node29&#45;&gt;Node3 -->
<g id="edge43" class="edge"><title>Node29&#45;&gt;Node3</title>
<path fill="none" stroke="midnightblue" d="M434.223,-31.451C458.121,-37.7808 485.306,-44.9812 508.188,-51.0417"/>
<polygon fill="midnightblue" stroke="midnightblue" points="435.115,-28.0666 424.552,-28.8895 433.323,-34.8332 435.115,-28.0666"/>
</g>
</g>
</svg>
