<?xml version="1.0" encoding="UTF-8" standalone="no"?>
<!DOCTYPE svg PUBLIC "-//W3C//DTD SVG 1.1//EN"
 "http://www.w3.org/Graphics/SVG/1.1/DTD/svg11.dtd">
<!-- Generated by graphviz version 2.38.0 (20140413.2041)
 -->
<!-- Title: I2POptionsWidget::setMapper Pages: 1 -->
<svg width="1025pt" height="28pt"
 viewBox="0.00 0.00 1025.00 28.00" xmlns="http://www.w3.org/2000/svg" xmlns:xlink="http://www.w3.org/1999/xlink">
<g id="graph0" class="graph" transform="scale(1 1) rotate(0) translate(4 24)">
<title>I2POptionsWidget::setMapper</title>
<polygon fill="white" stroke="none" points="-4,4 -4,-24 1021,-24 1021,4 -4,4"/>
<!-- Node1 -->
<g id="node1" class="node"><title>Node1</title>
<polygon fill="#bfbfbf" stroke="black" points="0,-0.5 0,-19.5 150,-19.5 150,-0.5 0,-0.5"/>
<text text-anchor="middle" x="75" y="-7.5" font-family="Helvetica,sans-Serif" font-size="10.00">I2POptionsWidget::setMapper</text>
</g>
<!-- Node2 -->
<g id="node2" class="node"><title>Node2</title>
<g id="a_node2"><a xlink:href="class_options_dialog.html#a2088ec5bbb90ec27675f441e750e55b8" target="_top" xlink:title="OptionsDialog::setMapper">
<polygon fill="white" stroke="black" points="186,-0.5 186,-19.5 318,-19.5 318,-0.5 186,-0.5"/>
<text text-anchor="middle" x="252" y="-7.5" font-family="Helvetica,sans-Serif" font-size="10.00">OptionsDialog::setMapper</text>
</a>
</g>
</g>
<!-- Node1&#45;&gt;Node2 -->
<g id="edge1" class="edge"><title>Node1&#45;&gt;Node2</title>
<path fill="none" stroke="midnightblue" d="M160.257,-10C168.844,-10 177.472,-10 185.811,-10"/>
<polygon fill="midnightblue" stroke="midnightblue" points="160.216,-6.5001 150.216,-10 160.216,-13.5001 160.216,-6.5001"/>
</g>
<!-- Node3 -->
<g id="node3" class="node"><title>Node3</title>
<g id="a_node3"><a xlink:href="class_options_dialog.html#a11e902a52cb7472497d14e70cd9399d9" target="_top" xlink:title="OptionsDialog::setModel">
<polygon fill="white" stroke="black" points="354,-0.5 354,-19.5 479,-19.5 479,-0.5 354,-0.5"/>
<text text-anchor="middle" x="416.5" y="-7.5" font-family="Helvetica,sans-Serif" font-size="10.00">OptionsDialog::setModel</text>
</a>
</g>
</g>
<!-- Node2&#45;&gt;Node3 -->
<g id="edge2" class="edge"><title>Node2&#45;&gt;Node3</title>
<path fill="none" stroke="midnightblue" d="M328.435,-10C336.914,-10 345.479,-10 353.756,-10"/>
<polygon fill="midnightblue" stroke="midnightblue" points="328.159,-6.5001 318.159,-10 328.159,-13.5001 328.159,-6.5001"/>
</g>
<!-- Node4 -->
<g id="node4" class="node"><title>Node4</title>
<g id="a_node4"><a xlink:href="class_anoncoin_g_u_i.html#a1afb9a47588132239cfba7be0adc2542" target="_top" xlink:title="Show configuration dialog. ">
<polygon fill="white" stroke="black" points="515,-0.5 515,-19.5 662,-19.5 662,-0.5 515,-0.5"/>
<text text-anchor="middle" x="588.5" y="-7.5" font-family="Helvetica,sans-Serif" font-size="10.00">AnoncoinGUI::optionsClicked</text>
</a>
</g>
</g>
<!-- Node3&#45;&gt;Node4 -->
<g id="edge3" class="edge"><title>Node3&#45;&gt;Node4</title>
<path fill="none" stroke="midnightblue" d="M489.447,-10C497.809,-10 506.344,-10 514.718,-10"/>
<polygon fill="midnightblue" stroke="midnightblue" points="489.355,-6.5001 479.355,-10 489.355,-13.5001 489.355,-6.5001"/>
</g>
<!-- Node5 -->
<g id="node5" class="node"><title>Node5</title>
<g id="a_node5"><a xlink:href="class_anoncoin_g_u_i.html#a8aa41c17fd6005652003d93330dbf7fb" target="_top" xlink:title="Create the main UI actions. ">
<polygon fill="white" stroke="black" points="698,-0.5 698,-19.5 840,-19.5 840,-0.5 698,-0.5"/>
<text text-anchor="middle" x="769" y="-7.5" font-family="Helvetica,sans-Serif" font-size="10.00">AnoncoinGUI::createActions</text>
</a>
</g>
</g>
<!-- Node4&#45;&gt;Node5 -->
<g id="edge4" class="edge"><title>Node4&#45;&gt;Node5</title>
<path fill="none" stroke="midnightblue" d="M672.114,-10C680.691,-10 689.35,-10 697.772,-10"/>
<polygon fill="midnightblue" stroke="midnightblue" points="672.103,-6.5001 662.103,-10 672.103,-13.5001 672.103,-6.5001"/>
</g>
<!-- Node6 -->
<g id="node6" class="node"><title>Node6</title>
<g id="a_node6"><a xlink:href="class_anoncoin_g_u_i.html#a82d1cf09f42a7c169b3e9c8d3e54a3d0" target="_top" xlink:title="AnoncoinGUI::AnoncoinGUI">
<polygon fill="white" stroke="black" points="876,-0.5 876,-19.5 1017,-19.5 1017,-0.5 876,-0.5"/>
<text text-anchor="middle" x="946.5" y="-7.5" font-family="Helvetica,sans-Serif" font-size="10.00">AnoncoinGUI::AnoncoinGUI</text>
</a>
</g>
</g>
<!-- Node5&#45;&gt;Node6 -->
<g id="edge5" class="edge"><title>Node5&#45;&gt;Node6</title>
<path fill="none" stroke="midnightblue" d="M850.391,-10C858.868,-10 867.437,-10 875.779,-10"/>
<polygon fill="midnightblue" stroke="midnightblue" points="850.119,-6.5001 840.119,-10 850.119,-13.5001 850.119,-6.5001"/>
</g>
</g>
</svg>
