<?xml version="1.0" encoding="UTF-8" standalone="no"?>
<!DOCTYPE svg PUBLIC "-//W3C//DTD SVG 1.1//EN"
 "http://www.w3.org/Graphics/SVG/1.1/DTD/svg11.dtd">
<!-- Generated by graphviz version 2.38.0 (20140413.2041)
 -->
<!-- Title: TransactionTableModel::data Pages: 1 -->
<svg width="845pt" height="127pt"
 viewBox="0.00 0.00 845.00 126.50" xmlns="http://www.w3.org/2000/svg" xmlns:xlink="http://www.w3.org/1999/xlink">
<g id="graph0" class="graph" transform="scale(1 1) rotate(0) translate(4 122.5)">
<title>TransactionTableModel::data</title>
<polygon fill="white" stroke="none" points="-4,4 -4,-122.5 841,-122.5 841,4 -4,4"/>
<!-- Node1 -->
<g id="node1" class="node"><title>Node1</title>
<polygon fill="#bfbfbf" stroke="black" points="0,-39 0,-69 121,-69 121,-39 0,-39"/>
<text text-anchor="start" x="8" y="-57" font-family="Helvetica,sans-Serif" font-size="10.00">TransactionTableModel</text>
<text text-anchor="middle" x="60.5" y="-46" font-family="Helvetica,sans-Serif" font-size="10.00">::data</text>
</g>
<!-- Node2 -->
<g id="node2" class="node"><title>Node2</title>
<g id="a_node2"><a xlink:href="class_transaction_table_model.html#aaaf3cea9a5373fff771ce81d2f26de6e" target="_top" xlink:title="TransactionTableModel\l::index">
<polygon fill="white" stroke="black" points="157,-39 157,-69 278,-69 278,-39 157,-39"/>
<text text-anchor="start" x="165" y="-57" font-family="Helvetica,sans-Serif" font-size="10.00">TransactionTableModel</text>
<text text-anchor="middle" x="217.5" y="-46" font-family="Helvetica,sans-Serif" font-size="10.00">::index</text>
</a>
</g>
</g>
<!-- Node1&#45;&gt;Node2 -->
<g id="edge1" class="edge"><title>Node1&#45;&gt;Node2</title>
<path fill="none" stroke="midnightblue" d="M131.661,-54C140.122,-54 148.7,-54 156.988,-54"/>
<polygon fill="midnightblue" stroke="midnightblue" points="131.427,-50.5001 121.427,-54 131.427,-57.5001 131.427,-50.5001"/>
</g>
<!-- Node3 -->
<g id="node3" class="node"><title>Node3</title>
<g id="a_node3"><a xlink:href="class_transaction_table_model.html#a5899d9eda6465bfb16d2846b6459567e" target="_top" xlink:title="TransactionTableModel\l::updateConfirmations">
<polygon fill="white" stroke="black" points="343,-88 343,-118 464,-118 464,-88 343,-88"/>
<text text-anchor="start" x="351" y="-106" font-family="Helvetica,sans-Serif" font-size="10.00">TransactionTableModel</text>
<text text-anchor="middle" x="403.5" y="-95" font-family="Helvetica,sans-Serif" font-size="10.00">::updateConfirmations</text>
</a>
</g>
</g>
<!-- Node2&#45;&gt;Node3 -->
<g id="edge2" class="edge"><title>Node2&#45;&gt;Node3</title>
<path fill="none" stroke="midnightblue" d="M284.676,-71.6229C304.806,-76.9837 326.732,-82.8225 346.15,-87.9938"/>
<polygon fill="midnightblue" stroke="midnightblue" points="285.52,-68.2259 274.957,-69.0346 283.719,-74.9902 285.52,-68.2259"/>
</g>
<!-- Node6 -->
<g id="node6" class="node"><title>Node6</title>
<g id="a_node6"><a xlink:href="class_transaction_table_model.html#a8b73ff7d72ec2dd69790bc61bbe8575e" target="_top" xlink:title="TransactionTableModel\l::updateDisplayUnit">
<polygon fill="white" stroke="black" points="343,-39 343,-69 464,-69 464,-39 343,-39"/>
<text text-anchor="start" x="351" y="-57" font-family="Helvetica,sans-Serif" font-size="10.00">TransactionTableModel</text>
<text text-anchor="middle" x="403.5" y="-46" font-family="Helvetica,sans-Serif" font-size="10.00">::updateDisplayUnit</text>
</a>
</g>
</g>
<!-- Node2&#45;&gt;Node6 -->
<g id="edge5" class="edge"><title>Node2&#45;&gt;Node6</title>
<path fill="none" stroke="midnightblue" d="M288.343,-54C306.267,-54 325.383,-54 342.746,-54"/>
<polygon fill="midnightblue" stroke="midnightblue" points="288.24,-50.5001 278.24,-54 288.239,-57.5001 288.24,-50.5001"/>
</g>
<!-- Node8 -->
<g id="node8" class="node"><title>Node8</title>
<g id="a_node8"><a xlink:href="class_wallet_view.html#addde7d2260658ee06f47f9c095a8cb2a" target="_top" xlink:title="Show incoming transaction notification for new transactions. ">
<polygon fill="white" stroke="black" points="314,-0.5 314,-19.5 493,-19.5 493,-0.5 314,-0.5"/>
<text text-anchor="middle" x="403.5" y="-7.5" font-family="Helvetica,sans-Serif" font-size="10.00">WalletView::processNewTransaction</text>
</a>
</g>
</g>
<!-- Node2&#45;&gt;Node8 -->
<g id="edge7" class="edge"><title>Node2&#45;&gt;Node8</title>
<path fill="none" stroke="midnightblue" d="M284.097,-36.417C294.096,-33.8559 304.309,-31.3075 314,-29 327.606,-25.7604 342.448,-22.4768 356.022,-19.5715"/>
<polygon fill="midnightblue" stroke="midnightblue" points="283.003,-33.0844 274.196,-38.9738 284.754,-39.862 283.003,-33.0844"/>
</g>
<!-- Node4 -->
<g id="node4" class="node"><title>Node4</title>
<g id="a_node4"><a xlink:href="class_wallet_model.html#a51469b2d95cfd4bc0a14ee456fca7b95" target="_top" xlink:title="WalletModel::pollBalance\lChanged">
<polygon fill="white" stroke="black" points="534.5,-88 534.5,-118 663.5,-118 663.5,-88 534.5,-88"/>
<text text-anchor="start" x="542.5" y="-106" font-family="Helvetica,sans-Serif" font-size="10.00">WalletModel::pollBalance</text>
<text text-anchor="middle" x="599" y="-95" font-family="Helvetica,sans-Serif" font-size="10.00">Changed</text>
</a>
</g>
</g>
<!-- Node3&#45;&gt;Node4 -->
<g id="edge3" class="edge"><title>Node3&#45;&gt;Node4</title>
<path fill="none" stroke="midnightblue" d="M474.21,-103C493.791,-103 514.979,-103 534.197,-103"/>
<polygon fill="midnightblue" stroke="midnightblue" points="474.135,-99.5001 464.135,-103 474.135,-106.5 474.135,-99.5001"/>
</g>
<!-- Node5 -->
<g id="node5" class="node"><title>Node5</title>
<g id="a_node5"><a xlink:href="class_wallet_model.html#af50d9654d2f20e4e4f0789dcb64ad6b1" target="_top" xlink:title="WalletModel::WalletModel">
<polygon fill="white" stroke="black" points="705,-93.5 705,-112.5 837,-112.5 837,-93.5 705,-93.5"/>
<text text-anchor="middle" x="771" y="-100.5" font-family="Helvetica,sans-Serif" font-size="10.00">WalletModel::WalletModel</text>
</a>
</g>
</g>
<!-- Node4&#45;&gt;Node5 -->
<g id="edge4" class="edge"><title>Node4&#45;&gt;Node5</title>
<path fill="none" stroke="midnightblue" d="M673.937,-103C684.184,-103 694.65,-103 704.724,-103"/>
<polygon fill="midnightblue" stroke="midnightblue" points="673.785,-99.5001 663.785,-103 673.785,-106.5 673.785,-99.5001"/>
</g>
<!-- Node7 -->
<g id="node7" class="node"><title>Node7</title>
<g id="a_node7"><a xlink:href="class_transaction_table_model.html#a6c10b7cab9804eee6df9e049a978dc62" target="_top" xlink:title="TransactionTableModel\l::TransactionTableModel">
<polygon fill="white" stroke="black" points="535.5,-39 535.5,-69 662.5,-69 662.5,-39 535.5,-39"/>
<text text-anchor="start" x="543.5" y="-57" font-family="Helvetica,sans-Serif" font-size="10.00">TransactionTableModel</text>
<text text-anchor="middle" x="599" y="-46" font-family="Helvetica,sans-Serif" font-size="10.00">::TransactionTableModel</text>
</a>
</g>
</g>
<!-- Node6&#45;&gt;Node7 -->
<g id="edge6" class="edge"><title>Node6&#45;&gt;Node7</title>
<path fill="none" stroke="midnightblue" d="M474.363,-54C494.247,-54 515.776,-54 535.211,-54"/>
<polygon fill="midnightblue" stroke="midnightblue" points="474.135,-50.5001 464.135,-54 474.135,-57.5001 474.135,-50.5001"/>
</g>
<!-- Node9 -->
<g id="node9" class="node"><title>Node9</title>
<g id="a_node9"><a xlink:href="class_wallet_view.html#a0a37ff693a4f9c1e5ddc23f9cd3913be" target="_top" xlink:title="Set the wallet model. ">
<polygon fill="white" stroke="black" points="529,-0.5 529,-19.5 669,-19.5 669,-0.5 529,-0.5"/>
<text text-anchor="middle" x="599" y="-7.5" font-family="Helvetica,sans-Serif" font-size="10.00">WalletView::setWalletModel</text>
</a>
</g>
</g>
<!-- Node8&#45;&gt;Node9 -->
<g id="edge8" class="edge"><title>Node8&#45;&gt;Node9</title>
<path fill="none" stroke="midnightblue" d="M503.222,-10C511.903,-10 520.563,-10 528.922,-10"/>
<polygon fill="midnightblue" stroke="midnightblue" points="503.039,-6.5001 493.039,-10 503.039,-13.5001 503.039,-6.5001"/>
</g>
<!-- Node10 -->
<g id="node10" class="node"><title>Node10</title>
<g id="a_node10"><a xlink:href="class_wallet_frame.html#aa199c3f27654199d84c365cf86167d86" target="_top" xlink:title="WalletFrame::addWallet">
<polygon fill="white" stroke="black" points="709.5,-0.5 709.5,-19.5 832.5,-19.5 832.5,-0.5 709.5,-0.5"/>
<text text-anchor="middle" x="771" y="-7.5" font-family="Helvetica,sans-Serif" font-size="10.00">WalletFrame::addWallet</text>
</a>
</g>
</g>
<!-- Node9&#45;&gt;Node10 -->
<g id="edge9" class="edge"><title>Node9&#45;&gt;Node10</title>
<path fill="none" stroke="midnightblue" d="M679.222,-10C689.357,-10 699.601,-10 709.376,-10"/>
<polygon fill="midnightblue" stroke="midnightblue" points="679.146,-6.5001 669.146,-10 679.145,-13.5001 679.146,-6.5001"/>
</g>
</g>
</svg>
