<?xml version="1.0" encoding="UTF-8" standalone="no"?>
<!DOCTYPE svg PUBLIC "-//W3C//DTD SVG 1.1//EN"
 "http://www.w3.org/Graphics/SVG/1.1/DTD/svg11.dtd">
<!-- Generated by graphviz version 2.38.0 (20140413.2041)
 -->
<!-- Title: AnoncoinAmountField::setValid Pages: 1 -->
<svg width="621pt" height="200pt"
 viewBox="0.00 0.00 621.00 200.00" xmlns="http://www.w3.org/2000/svg" xmlns:xlink="http://www.w3.org/1999/xlink">
<g id="graph0" class="graph" transform="scale(1 1) rotate(0) translate(4 196)">
<title>AnoncoinAmountField::setValid</title>
<polygon fill="white" stroke="none" points="-4,4 -4,-196 617,-196 617,4 -4,4"/>
<!-- Node1 -->
<g id="node1" class="node"><title>Node1</title>
<polygon fill="#bfbfbf" stroke="black" points="0,-95.5 0,-125.5 114,-125.5 114,-95.5 0,-95.5"/>
<text text-anchor="start" x="8" y="-113.5" font-family="Helvetica,sans-Serif" font-size="10.00">AnoncoinAmountField</text>
<text text-anchor="middle" x="57" y="-102.5" font-family="Helvetica,sans-Serif" font-size="10.00">::setValid</text>
</g>
<!-- Node2 -->
<g id="node2" class="node"><title>Node2</title>
<g id="a_node2"><a xlink:href="class_anoncoin_amount_field.html#ae0766727d1352a21980231772200c0ad" target="_top" xlink:title="Perform input validation, mark field as invalid if entered value is not valid. ">
<polygon fill="white" stroke="black" points="150,-161.5 150,-191.5 264,-191.5 264,-161.5 150,-161.5"/>
<text text-anchor="start" x="158" y="-179.5" font-family="Helvetica,sans-Serif" font-size="10.00">AnoncoinAmountField</text>
<text text-anchor="middle" x="207" y="-168.5" font-family="Helvetica,sans-Serif" font-size="10.00">::validate</text>
</a>
</g>
</g>
<!-- Node1&#45;&gt;Node2 -->
<g id="edge1" class="edge"><title>Node1&#45;&gt;Node2</title>
<path fill="none" stroke="midnightblue" d="M101.326,-129.821C123.932,-139.902 151.177,-152.052 172.204,-161.429"/>
<polygon fill="midnightblue" stroke="midnightblue" points="102.513,-126.518 91.9542,-125.642 99.6617,-132.911 102.513,-126.518"/>
</g>
<!-- Node3 -->
<g id="node3" class="node"><title>Node3</title>
<g id="a_node3"><a xlink:href="class_send_coins_entry.html#ab77df95fe77e9a001190cd4dabe0dfec" target="_top" xlink:title="SendCoinsEntry::validate">
<polygon fill="white" stroke="black" points="300,-145 300,-164 429,-164 429,-145 300,-145"/>
<text text-anchor="middle" x="364.5" y="-152" font-family="Helvetica,sans-Serif" font-size="10.00">SendCoinsEntry::validate</text>
</a>
</g>
</g>
<!-- Node1&#45;&gt;Node3 -->
<g id="edge9" class="edge"><title>Node1&#45;&gt;Node3</title>
<path fill="none" stroke="midnightblue" d="M124.176,-120.031C176.288,-127.537 248.471,-137.933 299.905,-145.341"/>
<polygon fill="midnightblue" stroke="midnightblue" points="124.43,-116.532 114.033,-118.57 123.432,-123.46 124.43,-116.532"/>
</g>
<!-- Node5 -->
<g id="node5" class="node"><title>Node5</title>
<g id="a_node5"><a xlink:href="class_anoncoin_amount_field.html#a4432a1ceb1445fcf35b5bc3054f88c38" target="_top" xlink:title="Intercept focus&#45;in event and &#39;,&#39; key presses. ">
<polygon fill="white" stroke="black" points="150,-73.5 150,-103.5 264,-103.5 264,-73.5 150,-73.5"/>
<text text-anchor="start" x="158" y="-91.5" font-family="Helvetica,sans-Serif" font-size="10.00">AnoncoinAmountField</text>
<text text-anchor="middle" x="207" y="-80.5" font-family="Helvetica,sans-Serif" font-size="10.00">::eventFilter</text>
</a>
</g>
</g>
<!-- Node1&#45;&gt;Node5 -->
<g id="edge4" class="edge"><title>Node1&#45;&gt;Node5</title>
<path fill="none" stroke="midnightblue" d="M124.28,-100.648C132.796,-99.3817 141.449,-98.0955 149.782,-96.8567"/>
<polygon fill="midnightblue" stroke="midnightblue" points="123.751,-97.1876 114.375,-102.12 124.781,-104.112 123.751,-97.1876"/>
</g>
<!-- Node6 -->
<g id="node6" class="node"><title>Node6</title>
<g id="a_node6"><a xlink:href="class_anoncoin_amount_field.html#a57a80569ce0ee2a8aee65d040a559dd4" target="_top" xlink:title="AnoncoinAmountField\l::unitChanged">
<polygon fill="white" stroke="black" points="150,-24.5 150,-54.5 264,-54.5 264,-24.5 150,-24.5"/>
<text text-anchor="start" x="158" y="-42.5" font-family="Helvetica,sans-Serif" font-size="10.00">AnoncoinAmountField</text>
<text text-anchor="middle" x="207" y="-31.5" font-family="Helvetica,sans-Serif" font-size="10.00">::unitChanged</text>
</a>
</g>
</g>
<!-- Node1&#45;&gt;Node6 -->
<g id="edge5" class="edge"><title>Node1&#45;&gt;Node6</title>
<path fill="none" stroke="midnightblue" d="M95.2196,-90.7648C111.853,-82.1326 131.778,-72.0475 150,-63.5 156.416,-60.4904 163.31,-57.4122 169.991,-54.5075"/>
<polygon fill="midnightblue" stroke="midnightblue" points="93.5966,-87.6638 86.3492,-95.392 96.8342,-93.8701 93.5966,-87.6638"/>
</g>
<!-- Node2&#45;&gt;Node3 -->
<g id="edge2" class="edge"><title>Node2&#45;&gt;Node3</title>
<path fill="none" stroke="midnightblue" d="M274.041,-167.157C282.572,-165.95 291.297,-164.715 299.79,-163.514"/>
<polygon fill="midnightblue" stroke="midnightblue" points="273.55,-163.691 264.139,-168.557 274.531,-170.622 273.55,-163.691"/>
</g>
<!-- Node4 -->
<g id="node4" class="node"><title>Node4</title>
<g id="a_node4"><a xlink:href="class_send_coins_dialog.html#a2cab7cf9ea5040b9e2189297f7d3c764" target="_top" xlink:title="SendCoinsDialog::on\l_sendButton_clicked">
<polygon fill="white" stroke="black" points="484,-139.5 484,-169.5 594,-169.5 594,-139.5 484,-139.5"/>
<text text-anchor="start" x="492" y="-157.5" font-family="Helvetica,sans-Serif" font-size="10.00">SendCoinsDialog::on</text>
<text text-anchor="middle" x="539" y="-146.5" font-family="Helvetica,sans-Serif" font-size="10.00">_sendButton_clicked</text>
</a>
</g>
</g>
<!-- Node3&#45;&gt;Node4 -->
<g id="edge3" class="edge"><title>Node3&#45;&gt;Node4</title>
<path fill="none" stroke="midnightblue" d="M439.463,-154.5C454.373,-154.5 469.784,-154.5 483.863,-154.5"/>
<polygon fill="midnightblue" stroke="midnightblue" points="439.243,-151 429.243,-154.5 439.242,-158 439.243,-151"/>
</g>
<!-- Node7 -->
<g id="node7" class="node"><title>Node7</title>
<g id="a_node7"><a xlink:href="class_anoncoin_amount_field.html#a4b2c8c4c44291ec9e60bc0a85b645e5f" target="_top" xlink:title="AnoncoinAmountField\l::AnoncoinAmountField">
<polygon fill="white" stroke="black" points="304.5,-49.5 304.5,-79.5 424.5,-79.5 424.5,-49.5 304.5,-49.5"/>
<text text-anchor="start" x="312.5" y="-67.5" font-family="Helvetica,sans-Serif" font-size="10.00">AnoncoinAmountField</text>
<text text-anchor="middle" x="364.5" y="-56.5" font-family="Helvetica,sans-Serif" font-size="10.00">::AnoncoinAmountField</text>
</a>
</g>
</g>
<!-- Node6&#45;&gt;Node7 -->
<g id="edge6" class="edge"><title>Node6&#45;&gt;Node7</title>
<path fill="none" stroke="midnightblue" d="M274.066,-50.1215C284.107,-51.7358 294.414,-53.3929 304.296,-54.9817"/>
<polygon fill="midnightblue" stroke="midnightblue" points="274.568,-46.6574 264.139,-48.5256 273.457,-53.5686 274.568,-46.6574"/>
</g>
<!-- Node8 -->
<g id="node8" class="node"><title>Node8</title>
<g id="a_node8"><a xlink:href="class_anoncoin_amount_field.html#a168a4f11d296a1a9b17dc164f5f5f11e" target="_top" xlink:title="Set single step in satoshis. ">
<polygon fill="white" stroke="black" points="307.5,-0.5 307.5,-30.5 421.5,-30.5 421.5,-0.5 307.5,-0.5"/>
<text text-anchor="start" x="315.5" y="-18.5" font-family="Helvetica,sans-Serif" font-size="10.00">AnoncoinAmountField</text>
<text text-anchor="middle" x="364.5" y="-7.5" font-family="Helvetica,sans-Serif" font-size="10.00">::setSingleStep</text>
</a>
</g>
</g>
<!-- Node6&#45;&gt;Node8 -->
<g id="edge7" class="edge"><title>Node6&#45;&gt;Node8</title>
<path fill="none" stroke="midnightblue" d="M274.191,-29.284C285.264,-27.575 296.656,-25.8167 307.443,-24.1518"/>
<polygon fill="midnightblue" stroke="midnightblue" points="273.488,-25.851 264.139,-30.8354 274.556,-32.7691 273.488,-25.851"/>
</g>
<!-- Node9 -->
<g id="node9" class="node"><title>Node9</title>
<g id="a_node9"><a xlink:href="class_options_dialog.html#a8131b615e29560144ffb368b9b07060a" target="_top" xlink:title="OptionsDialog::OptionsDialog">
<polygon fill="white" stroke="black" points="465,-6 465,-25 613,-25 613,-6 465,-6"/>
<text text-anchor="middle" x="539" y="-13" font-family="Helvetica,sans-Serif" font-size="10.00">OptionsDialog::OptionsDialog</text>
</a>
</g>
</g>
<!-- Node8&#45;&gt;Node9 -->
<g id="edge8" class="edge"><title>Node8&#45;&gt;Node9</title>
<path fill="none" stroke="midnightblue" d="M431.77,-15.5C442.644,-15.5 453.967,-15.5 464.994,-15.5"/>
<polygon fill="midnightblue" stroke="midnightblue" points="431.506,-12.0001 421.506,-15.5 431.506,-19.0001 431.506,-12.0001"/>
</g>
</g>
</svg>
