<?xml version="1.0" encoding="UTF-8" standalone="no"?>
<!DOCTYPE svg PUBLIC "-//W3C//DTD SVG 1.1//EN"
 "http://www.w3.org/Graphics/SVG/1.1/DTD/svg11.dtd">
<!-- Generated by graphviz version 2.38.0 (20140413.2041)
 -->
<!-- Title: Ui_RPCConsole::retranslateUi Pages: 1 -->
<svg width="499pt" height="28pt"
 viewBox="0.00 0.00 499.00 28.00" xmlns="http://www.w3.org/2000/svg" xmlns:xlink="http://www.w3.org/1999/xlink">
<g id="graph0" class="graph" transform="scale(1 1) rotate(0) translate(4 24)">
<title>Ui_RPCConsole::retranslateUi</title>
<polygon fill="white" stroke="none" points="-4,4 -4,-24 495,-24 495,4 -4,4"/>
<!-- Node1 -->
<g id="node1" class="node"><title>Node1</title>
<polygon fill="#bfbfbf" stroke="black" points="0,-0.5 0,-19.5 152,-19.5 152,-0.5 0,-0.5"/>
<text text-anchor="middle" x="76" y="-7.5" font-family="Helvetica,sans-Serif" font-size="10.00">Ui_RPCConsole::retranslateUi</text>
</g>
<!-- Node2 -->
<g id="node2" class="node"><title>Node2</title>
<g id="a_node2"><a xlink:href="class_ui___r_p_c_console.html#a07d3a25190f5cad02fa8782b7f58e7d3" target="_top" xlink:title="Ui_RPCConsole::setupUi">
<polygon fill="white" stroke="black" points="188,-0.5 188,-19.5 317,-19.5 317,-0.5 188,-0.5"/>
<text text-anchor="middle" x="252.5" y="-7.5" font-family="Helvetica,sans-Serif" font-size="10.00">Ui_RPCConsole::setupUi</text>
</a>
</g>
</g>
<!-- Node1&#45;&gt;Node2 -->
<g id="edge1" class="edge"><title>Node1&#45;&gt;Node2</title>
<path fill="none" stroke="midnightblue" d="M162.124,-10C170.763,-10 179.429,-10 187.784,-10"/>
<polygon fill="midnightblue" stroke="midnightblue" points="162.016,-6.5001 152.016,-10 162.016,-13.5001 162.016,-6.5001"/>
</g>
<!-- Node3 -->
<g id="node3" class="node"><title>Node3</title>
<g id="a_node3"><a xlink:href="class_r_p_c_console.html#aeac546e68f8c2cafa79a0294dd78f2ad" target="_top" xlink:title="RPCConsole::RPCConsole">
<polygon fill="white" stroke="black" points="353,-0.5 353,-19.5 491,-19.5 491,-0.5 353,-0.5"/>
<text text-anchor="middle" x="422" y="-7.5" font-family="Helvetica,sans-Serif" font-size="10.00">RPCConsole::RPCConsole</text>
</a>
</g>
</g>
<!-- Node2&#45;&gt;Node3 -->
<g id="edge2" class="edge"><title>Node2&#45;&gt;Node3</title>
<path fill="none" stroke="midnightblue" d="M327.518,-10C335.966,-10 344.549,-10 352.915,-10"/>
<polygon fill="midnightblue" stroke="midnightblue" points="327.302,-6.5001 317.302,-10 327.302,-13.5001 327.302,-6.5001"/>
</g>
</g>
</svg>
