<?xml version="1.0" encoding="UTF-8" standalone="no"?>
<!DOCTYPE svg PUBLIC "-//W3C//DTD SVG 1.1//EN"
 "http://www.w3.org/Graphics/SVG/1.1/DTD/svg11.dtd">
<!-- Generated by graphviz version 2.38.0 (20140413.2041)
 -->
<!-- Title: PaymentServer::reportSslErrors Pages: 1 -->
<svg width="648pt" height="39pt"
 viewBox="0.00 0.00 648.00 39.00" xmlns="http://www.w3.org/2000/svg" xmlns:xlink="http://www.w3.org/1999/xlink">
<g id="graph0" class="graph" transform="scale(1 1) rotate(0) translate(4 35)">
<title>PaymentServer::reportSslErrors</title>
<polygon fill="white" stroke="none" points="-4,4 -4,-35 644,-35 644,4 -4,4"/>
<!-- Node1 -->
<g id="node1" class="node"><title>Node1</title>
<polygon fill="#bfbfbf" stroke="black" points="0,-0.5 0,-30.5 131,-30.5 131,-0.5 0,-0.5"/>
<text text-anchor="start" x="8" y="-18.5" font-family="Helvetica,sans-Serif" font-size="10.00">PaymentServer::reportSsl</text>
<text text-anchor="middle" x="65.5" y="-7.5" font-family="Helvetica,sans-Serif" font-size="10.00">Errors</text>
</g>
<!-- Node2 -->
<g id="node2" class="node"><title>Node2</title>
<g id="a_node2"><a xlink:href="class_payment_server.html#a2f94f2c3e12d03199870e17008535302" target="_top" xlink:title="PaymentServer::initNetManager">
<polygon fill="white" stroke="black" points="167,-6 167,-25 326,-25 326,-6 167,-6"/>
<text text-anchor="middle" x="246.5" y="-13" font-family="Helvetica,sans-Serif" font-size="10.00">PaymentServer::initNetManager</text>
</a>
</g>
</g>
<!-- Node1&#45;&gt;Node2 -->
<g id="edge1" class="edge"><title>Node1&#45;&gt;Node2</title>
<path fill="none" stroke="midnightblue" d="M141.328,-15.5C149.784,-15.5 158.42,-15.5 166.923,-15.5"/>
<polygon fill="midnightblue" stroke="midnightblue" points="141.123,-12.0001 131.123,-15.5 141.123,-19.0001 141.123,-12.0001"/>
</g>
<!-- Node3 -->
<g id="node3" class="node"><title>Node3</title>
<g id="a_node3"><a xlink:href="class_payment_server.html#abb6c65fabbf97ba95381997ca9cd6993" target="_top" xlink:title="PaymentServer::uiReady">
<polygon fill="white" stroke="black" points="362,-6 362,-25 490,-25 490,-6 362,-6"/>
<text text-anchor="middle" x="426" y="-13" font-family="Helvetica,sans-Serif" font-size="10.00">PaymentServer::uiReady</text>
</a>
</g>
</g>
<!-- Node2&#45;&gt;Node3 -->
<g id="edge2" class="edge"><title>Node2&#45;&gt;Node3</title>
<path fill="none" stroke="midnightblue" d="M336.262,-15.5C344.91,-15.5 353.558,-15.5 361.877,-15.5"/>
<polygon fill="midnightblue" stroke="midnightblue" points="336.129,-12.0001 326.129,-15.5 336.129,-19.0001 336.129,-12.0001"/>
</g>
<!-- Node4 -->
<g id="node4" class="node"><title>Node4</title>
<g id="a_node4"><a xlink:href="class_payment_server_tests.html#a82c8a7437bfc26c28619b954a5ee8cad" target="_top" xlink:title="PaymentServerTests\l::paymentServerTests">
<polygon fill="white" stroke="black" points="526,-0.5 526,-30.5 640,-30.5 640,-0.5 526,-0.5"/>
<text text-anchor="start" x="534" y="-18.5" font-family="Helvetica,sans-Serif" font-size="10.00">PaymentServerTests</text>
<text text-anchor="middle" x="583" y="-7.5" font-family="Helvetica,sans-Serif" font-size="10.00">::paymentServerTests</text>
</a>
</g>
</g>
<!-- Node3&#45;&gt;Node4 -->
<g id="edge3" class="edge"><title>Node3&#45;&gt;Node4</title>
<path fill="none" stroke="midnightblue" d="M500.172,-15.5C508.85,-15.5 517.601,-15.5 525.987,-15.5"/>
<polygon fill="midnightblue" stroke="midnightblue" points="500.044,-12.0001 490.044,-15.5 500.044,-19.0001 500.044,-12.0001"/>
</g>
</g>
</svg>
