<?xml version="1.0" encoding="UTF-8" standalone="no"?>
<!DOCTYPE svg PUBLIC "-//W3C//DTD SVG 1.1//EN"
 "http://www.w3.org/Graphics/SVG/1.1/DTD/svg11.dtd">
<!-- Generated by graphviz version 2.38.0 (20140413.2041)
 -->
<!-- Title: CDataStream::empty Pages: 1 -->
<svg width="888pt" height="142pt"
 viewBox="0.00 0.00 888.00 142.00" xmlns="http://www.w3.org/2000/svg" xmlns:xlink="http://www.w3.org/1999/xlink">
<g id="graph0" class="graph" transform="scale(1 1) rotate(0) translate(4 138)">
<title>CDataStream::empty</title>
<polygon fill="white" stroke="none" points="-4,4 -4,-138 884,-138 884,4 -4,4"/>
<!-- Node1 -->
<g id="node1" class="node"><title>Node1</title>
<polygon fill="#bfbfbf" stroke="black" points="0,-76.5 0,-95.5 110,-95.5 110,-76.5 0,-76.5"/>
<text text-anchor="middle" x="55" y="-83.5" font-family="Helvetica,sans-Serif" font-size="10.00">CDataStream::empty</text>
</g>
<!-- Node2 -->
<g id="node2" class="node"><title>Node2</title>
<g id="a_node2"><a xlink:href="net_8cpp.html#aa1111c12121e039bbd8eedb556e4514a" target="_top" xlink:title="Main Thread that handling socket&#39;s &amp; their housekeeping... ">
<polygon fill="white" stroke="black" points="146,-114.5 146,-133.5 260,-133.5 260,-114.5 146,-114.5"/>
<text text-anchor="middle" x="203" y="-121.5" font-family="Helvetica,sans-Serif" font-size="10.00">ThreadSocketHandler</text>
</a>
</g>
</g>
<!-- Node1&#45;&gt;Node2 -->
<g id="edge1" class="edge"><title>Node1&#45;&gt;Node2</title>
<path fill="none" stroke="midnightblue" d="M102.536,-98.1121C122.87,-103.404 146.371,-109.521 165.423,-114.48"/>
<polygon fill="midnightblue" stroke="midnightblue" points="103.401,-94.7207 92.842,-95.589 101.638,-101.495 103.401,-94.7207"/>
</g>
<!-- Node8 -->
<g id="node8" class="node"><title>Node8</title>
<g id="a_node8"><a xlink:href="rpcrawtransaction_8cpp.html#aa0d151e35c0ad5ec82df451a833aeadb" target="_top" xlink:title="signrawtransaction">
<polygon fill="white" stroke="black" points="153,-76.5 153,-95.5 253,-95.5 253,-76.5 153,-76.5"/>
<text text-anchor="middle" x="203" y="-83.5" font-family="Helvetica,sans-Serif" font-size="10.00">signrawtransaction</text>
</a>
</g>
</g>
<!-- Node1&#45;&gt;Node8 -->
<g id="edge7" class="edge"><title>Node1&#45;&gt;Node8</title>
<path fill="none" stroke="midnightblue" d="M120.636,-86C131.462,-86 142.536,-86 152.889,-86"/>
<polygon fill="midnightblue" stroke="midnightblue" points="120.365,-82.5001 110.365,-86 120.365,-89.5001 120.365,-82.5001"/>
</g>
<!-- Node9 -->
<g id="node9" class="node"><title>Node9</title>
<g id="a_node9"><a xlink:href="walletdb_8cpp.html#ad1f171cf096f5479805a06fc20480343" target="_top" xlink:title="ReadKeyValue">
<polygon fill="white" stroke="black" points="161.5,-38.5 161.5,-57.5 244.5,-57.5 244.5,-38.5 161.5,-38.5"/>
<text text-anchor="middle" x="203" y="-45.5" font-family="Helvetica,sans-Serif" font-size="10.00">ReadKeyValue</text>
</a>
</g>
</g>
<!-- Node1&#45;&gt;Node9 -->
<g id="edge8" class="edge"><title>Node1&#45;&gt;Node9</title>
<path fill="none" stroke="midnightblue" d="M102.536,-73.8879C122.87,-68.5956 146.371,-62.4787 165.423,-57.5201"/>
<polygon fill="midnightblue" stroke="midnightblue" points="101.638,-70.5049 92.842,-76.411 103.401,-77.2793 101.638,-70.5049"/>
</g>
<!-- Node3 -->
<g id="node3" class="node"><title>Node3</title>
<g id="a_node3"><a xlink:href="net_8h.html#a9396d8054e8f74959e9391871aaddde0" target="_top" xlink:title="StartNode">
<polygon fill="white" stroke="black" points="476,-114.5 476,-133.5 538,-133.5 538,-114.5 476,-114.5"/>
<text text-anchor="middle" x="507" y="-121.5" font-family="Helvetica,sans-Serif" font-size="10.00">StartNode</text>
</a>
</g>
</g>
<!-- Node2&#45;&gt;Node3 -->
<g id="edge2" class="edge"><title>Node2&#45;&gt;Node3</title>
<path fill="none" stroke="midnightblue" d="M270.097,-124C334.099,-124 428.248,-124 475.941,-124"/>
<polygon fill="midnightblue" stroke="midnightblue" points="270.096,-120.5 260.096,-124 270.096,-127.5 270.096,-120.5"/>
</g>
<!-- Node4 -->
<g id="node4" class="node"><title>Node4</title>
<g id="a_node4"><a xlink:href="init_8h.html#a1a4c1bfbf6ba1db77e988b89b9cadfd3" target="_top" xlink:title="Initialize anoncoin. ">
<polygon fill="white" stroke="black" points="597,-76.5 597,-95.5 650,-95.5 650,-76.5 597,-76.5"/>
<text text-anchor="middle" x="623.5" y="-83.5" font-family="Helvetica,sans-Serif" font-size="10.00">AppInit2</text>
</a>
</g>
</g>
<!-- Node3&#45;&gt;Node4 -->
<g id="edge3" class="edge"><title>Node3&#45;&gt;Node4</title>
<path fill="none" stroke="midnightblue" d="M546.797,-111.124C563.268,-105.658 582.021,-99.434 596.742,-94.5487"/>
<polygon fill="midnightblue" stroke="midnightblue" points="545.282,-107.939 536.893,-114.411 547.487,-114.583 545.282,-107.939"/>
</g>
<!-- Node5 -->
<g id="node5" class="node"><title>Node5</title>
<g id="a_node5"><a xlink:href="anoncoind_8cpp.html#ac59316b767e6984e1285f0531275286b" target="_top" xlink:title="AppInit">
<polygon fill="white" stroke="black" points="722,-95.5 722,-114.5 770,-114.5 770,-95.5 722,-95.5"/>
<text text-anchor="middle" x="746" y="-102.5" font-family="Helvetica,sans-Serif" font-size="10.00">AppInit</text>
</a>
</g>
</g>
<!-- Node4&#45;&gt;Node5 -->
<g id="edge4" class="edge"><title>Node4&#45;&gt;Node5</title>
<path fill="none" stroke="midnightblue" d="M660.05,-91.6053C680.041,-94.7576 704.421,-98.6017 721.927,-101.362"/>
<polygon fill="midnightblue" stroke="midnightblue" points="660.478,-88.1297 650.055,-90.0294 659.388,-95.0443 660.478,-88.1297"/>
</g>
<!-- Node7 -->
<g id="node7" class="node"><title>Node7</title>
<g id="a_node7"><a xlink:href="class_anoncoin_coin.html#a9510881824d283404ac43414dbb74586" target="_top" xlink:title="AnoncoinCoin::initialize">
<polygon fill="white" stroke="black" points="686,-57.5 686,-76.5 806,-76.5 806,-57.5 686,-57.5"/>
<text text-anchor="middle" x="746" y="-64.5" font-family="Helvetica,sans-Serif" font-size="10.00">AnoncoinCoin::initialize</text>
</a>
</g>
</g>
<!-- Node4&#45;&gt;Node7 -->
<g id="edge6" class="edge"><title>Node4&#45;&gt;Node7</title>
<path fill="none" stroke="midnightblue" d="M660.186,-80.3732C668.249,-79.1018 677.021,-77.7186 685.765,-76.34"/>
<polygon fill="midnightblue" stroke="midnightblue" points="659.388,-76.9557 650.055,-81.9706 660.478,-83.8703 659.388,-76.9557"/>
</g>
<!-- Node6 -->
<g id="node6" class="node"><title>Node6</title>
<g id="a_node6"><a xlink:href="anoncoind_8cpp.html#a0ddf1224851353fc92bfbff6f499fa97" target="_top" xlink:title="main">
<polygon fill="white" stroke="black" points="842,-95.5 842,-114.5 880,-114.5 880,-95.5 842,-95.5"/>
<text text-anchor="middle" x="861" y="-102.5" font-family="Helvetica,sans-Serif" font-size="10.00">main</text>
</a>
</g>
</g>
<!-- Node5&#45;&gt;Node6 -->
<g id="edge5" class="edge"><title>Node5&#45;&gt;Node6</title>
<path fill="none" stroke="midnightblue" d="M780.146,-105C800.247,-105 825.134,-105 841.731,-105"/>
<polygon fill="midnightblue" stroke="midnightblue" points="780.14,-101.5 770.14,-105 780.14,-108.5 780.14,-101.5"/>
</g>
<!-- Node10 -->
<g id="node10" class="node"><title>Node10</title>
<g id="a_node10"><a xlink:href="class_c_wallet_d_b.html#a14f26e53502d1a60dd2b034f830acf03" target="_top" xlink:title="CWalletDB::LoadWallet">
<polygon fill="white" stroke="black" points="296,-76.5 296,-95.5 417,-95.5 417,-76.5 296,-76.5"/>
<text text-anchor="middle" x="356.5" y="-83.5" font-family="Helvetica,sans-Serif" font-size="10.00">CWalletDB::LoadWallet</text>
</a>
</g>
</g>
<!-- Node9&#45;&gt;Node10 -->
<g id="edge9" class="edge"><title>Node9&#45;&gt;Node10</title>
<path fill="none" stroke="midnightblue" d="M252.002,-60.04C273.167,-65.3488 297.686,-71.4988 317.545,-76.4799"/>
<polygon fill="midnightblue" stroke="midnightblue" points="252.781,-56.6271 242.23,-57.589 251.078,-63.4168 252.781,-56.6271"/>
</g>
<!-- Node12 -->
<g id="node12" class="node"><title>Node12</title>
<g id="a_node12"><a xlink:href="class_c_wallet_d_b.html#a3ebeb12f37d9c66512e2bc2903a6854a" target="_top" xlink:title="CWalletDB::Recover">
<polygon fill="white" stroke="black" points="302.5,-38.5 302.5,-57.5 410.5,-57.5 410.5,-38.5 302.5,-38.5"/>
<text text-anchor="middle" x="356.5" y="-45.5" font-family="Helvetica,sans-Serif" font-size="10.00">CWalletDB::Recover</text>
</a>
</g>
</g>
<!-- Node9&#45;&gt;Node12 -->
<g id="edge12" class="edge"><title>Node9&#45;&gt;Node12</title>
<path fill="none" stroke="midnightblue" d="M254.87,-48C270.106,-48 286.852,-48 302.237,-48"/>
<polygon fill="midnightblue" stroke="midnightblue" points="254.599,-44.5001 244.599,-48 254.599,-51.5001 254.599,-44.5001"/>
</g>
<!-- Node11 -->
<g id="node11" class="node"><title>Node11</title>
<g id="a_node11"><a xlink:href="class_c_wallet.html#a5d7b244b8ed0cbe24233ee0b6ca3cae0" target="_top" xlink:title="CWallet::LoadWallet">
<polygon fill="white" stroke="black" points="453.5,-76.5 453.5,-95.5 560.5,-95.5 560.5,-76.5 453.5,-76.5"/>
<text text-anchor="middle" x="507" y="-83.5" font-family="Helvetica,sans-Serif" font-size="10.00">CWallet::LoadWallet</text>
</a>
</g>
</g>
<!-- Node10&#45;&gt;Node11 -->
<g id="edge10" class="edge"><title>Node10&#45;&gt;Node11</title>
<path fill="none" stroke="midnightblue" d="M427.218,-86C435.941,-86 444.748,-86 453.154,-86"/>
<polygon fill="midnightblue" stroke="midnightblue" points="427.045,-82.5001 417.045,-86 427.045,-89.5001 427.045,-82.5001"/>
</g>
<!-- Node11&#45;&gt;Node4 -->
<g id="edge11" class="edge"><title>Node11&#45;&gt;Node4</title>
<path fill="none" stroke="midnightblue" d="M570.602,-86C579.833,-86 588.876,-86 596.762,-86"/>
<polygon fill="midnightblue" stroke="midnightblue" points="570.558,-82.5001 560.558,-86 570.558,-89.5001 570.558,-82.5001"/>
</g>
<!-- Node12&#45;&gt;Node4 -->
<g id="edge13" class="edge"><title>Node12&#45;&gt;Node4</title>
<path fill="none" stroke="midnightblue" d="M420.625,-50.5297C461.058,-52.9755 514.48,-57.7457 561,-67 572.947,-69.3766 585.869,-73.1739 596.771,-76.7512"/>
<polygon fill="midnightblue" stroke="midnightblue" points="420.822,-47.0353 410.637,-49.9567 420.42,-54.0238 420.822,-47.0353"/>
</g>
<!-- Node13 -->
<g id="node13" class="node"><title>Node13</title>
<g id="a_node13"><a xlink:href="class_c_wallet_d_b.html#a44388f1c3ee63191dcb78b1001e9390c" target="_top" xlink:title="CWalletDB::Recover">
<polygon fill="white" stroke="black" points="453,-0.5 453,-19.5 561,-19.5 561,-0.5 453,-0.5"/>
<text text-anchor="middle" x="507" y="-7.5" font-family="Helvetica,sans-Serif" font-size="10.00">CWalletDB::Recover</text>
</a>
</g>
</g>
<!-- Node12&#45;&gt;Node13 -->
<g id="edge14" class="edge"><title>Node12&#45;&gt;Node13</title>
<path fill="none" stroke="midnightblue" d="M404.833,-35.8879C425.515,-30.5956 449.419,-24.4787 468.797,-19.5201"/>
<polygon fill="midnightblue" stroke="midnightblue" points="403.793,-32.5411 394.973,-38.411 405.528,-39.3226 403.793,-32.5411"/>
</g>
</g>
</svg>
