<?xml version="1.0" encoding="UTF-8" standalone="no"?>
<!DOCTYPE svg PUBLIC "-//W3C//DTD SVG 1.1//EN"
 "http://www.w3.org/Graphics/SVG/1.1/DTD/svg11.dtd">
<!-- Generated by graphviz version 2.38.0 (20140413.2041)
 -->
<!-- Title: payments::PaymentRequest::SerializeWithCachedSizesToArray Pages: 1 -->
<svg width="373pt" height="541pt"
 viewBox="0.00 0.00 373.00 541.00" xmlns="http://www.w3.org/2000/svg" xmlns:xlink="http://www.w3.org/1999/xlink">
<g id="graph0" class="graph" transform="scale(1 1) rotate(0) translate(4 537)">
<title>payments::PaymentRequest::SerializeWithCachedSizesToArray</title>
<polygon fill="white" stroke="none" points="-4,4 -4,-537 369,-537 369,4 -4,4"/>
<!-- Node1 -->
<g id="node1" class="node"><title>Node1</title>
<polygon fill="#bfbfbf" stroke="black" points="0,-257.5 0,-287.5 175,-287.5 175,-257.5 0,-257.5"/>
<text text-anchor="start" x="8" y="-275.5" font-family="Helvetica,sans-Serif" font-size="10.00">payments::PaymentRequest</text>
<text text-anchor="middle" x="87.5" y="-264.5" font-family="Helvetica,sans-Serif" font-size="10.00">::SerializeWithCachedSizesToArray</text>
</g>
<!-- Node2 -->
<g id="node2" class="node"><title>Node2</title>
<g id="a_node2"><a xlink:href="classpayments_1_1_payment_request.html#a28c7a6ff3f78f22bf400ee22ea9ec86b" target="_top" xlink:title="payments::PaymentRequest\l::has_payment_details_version">
<polygon fill="white" stroke="black" points="211,-502.5 211,-532.5 365,-532.5 365,-502.5 211,-502.5"/>
<text text-anchor="start" x="219" y="-520.5" font-family="Helvetica,sans-Serif" font-size="10.00">payments::PaymentRequest</text>
<text text-anchor="middle" x="288" y="-509.5" font-family="Helvetica,sans-Serif" font-size="10.00">::has_payment_details_version</text>
</a>
</g>
</g>
<!-- Node1&#45;&gt;Node2 -->
<g id="edge1" class="edge"><title>Node1&#45;&gt;Node2</title>
<path fill="none" stroke="midnightblue" d="M92.602,-287.662C104.17,-327.531 140.863,-436.169 211,-493.5 212.567,-494.781 214.203,-495.993 215.894,-497.142"/>
<polygon fill="midnightblue" stroke="midnightblue" points="214.367,-500.304 224.76,-502.363 217.92,-494.273 214.367,-500.304"/>
</g>
<!-- Node3 -->
<g id="node3" class="node"><title>Node3</title>
<g id="a_node3"><a xlink:href="classpayments_1_1_payment_request.html#ae3325b49f6423d3c761233e6a942e7ee" target="_top" xlink:title="payments::PaymentRequest\l::payment_details_version">
<polygon fill="white" stroke="black" points="217,-453.5 217,-483.5 359,-483.5 359,-453.5 217,-453.5"/>
<text text-anchor="start" x="225" y="-471.5" font-family="Helvetica,sans-Serif" font-size="10.00">payments::PaymentRequest</text>
<text text-anchor="middle" x="288" y="-460.5" font-family="Helvetica,sans-Serif" font-size="10.00">::payment_details_version</text>
</a>
</g>
</g>
<!-- Node1&#45;&gt;Node3 -->
<g id="edge2" class="edge"><title>Node1&#45;&gt;Node3</title>
<path fill="none" stroke="midnightblue" d="M95.1243,-287.649C110.499,-321.053 151.856,-401.476 211,-444.5 213.056,-445.996 215.208,-447.4 217.433,-448.719"/>
<polygon fill="midnightblue" stroke="midnightblue" points="215.838,-451.835 226.318,-453.393 219.097,-445.64 215.838,-451.835"/>
</g>
<!-- Node4 -->
<g id="node4" class="node"><title>Node4</title>
<g id="a_node4"><a xlink:href="classpayments_1_1_payment_request.html#a468d0df13c43608b8df88dff36a89cb5" target="_top" xlink:title="payments::PaymentRequest\l::has_pki_type">
<polygon fill="white" stroke="black" points="217,-404.5 217,-434.5 359,-434.5 359,-404.5 217,-404.5"/>
<text text-anchor="start" x="225" y="-422.5" font-family="Helvetica,sans-Serif" font-size="10.00">payments::PaymentRequest</text>
<text text-anchor="middle" x="288" y="-411.5" font-family="Helvetica,sans-Serif" font-size="10.00">::has_pki_type</text>
</a>
</g>
</g>
<!-- Node1&#45;&gt;Node4 -->
<g id="edge3" class="edge"><title>Node1&#45;&gt;Node4</title>
<path fill="none" stroke="midnightblue" d="M99.5925,-287.691C119.221,-313.518 162.598,-366.046 211,-395.5 213.778,-397.19 216.686,-398.773 219.677,-400.252"/>
<polygon fill="midnightblue" stroke="midnightblue" points="218.298,-403.47 228.853,-404.39 221.176,-397.088 218.298,-403.47"/>
</g>
<!-- Node5 -->
<g id="node5" class="node"><title>Node5</title>
<g id="a_node5"><a xlink:href="classpayments_1_1_payment_request.html#a42d70acf5e751d9304f1e4246587b648" target="_top" xlink:title="payments::PaymentRequest\l::pki_type">
<polygon fill="white" stroke="black" points="217,-355.5 217,-385.5 359,-385.5 359,-355.5 217,-355.5"/>
<text text-anchor="start" x="225" y="-373.5" font-family="Helvetica,sans-Serif" font-size="10.00">payments::PaymentRequest</text>
<text text-anchor="middle" x="288" y="-362.5" font-family="Helvetica,sans-Serif" font-size="10.00">::pki_type</text>
</a>
</g>
</g>
<!-- Node1&#45;&gt;Node5 -->
<g id="edge4" class="edge"><title>Node1&#45;&gt;Node5</title>
<path fill="none" stroke="midnightblue" d="M109.772,-287.501C133.553,-303.751 173.644,-329.609 211,-346.5 215.155,-348.379 219.499,-350.171 223.915,-351.869"/>
<polygon fill="midnightblue" stroke="midnightblue" points="223.059,-355.282 233.653,-355.43 225.464,-348.708 223.059,-355.282"/>
</g>
<!-- Node6 -->
<g id="node6" class="node"><title>Node6</title>
<g id="a_node6"><a xlink:href="classpayments_1_1_payment_request.html#ac0c246fd8bc59b43274866909e2f7d0e" target="_top" xlink:title="payments::PaymentRequest\l::has_pki_data">
<polygon fill="white" stroke="black" points="217,-306.5 217,-336.5 359,-336.5 359,-306.5 217,-306.5"/>
<text text-anchor="start" x="225" y="-324.5" font-family="Helvetica,sans-Serif" font-size="10.00">payments::PaymentRequest</text>
<text text-anchor="middle" x="288" y="-313.5" font-family="Helvetica,sans-Serif" font-size="10.00">::has_pki_data</text>
</a>
</g>
</g>
<!-- Node1&#45;&gt;Node6 -->
<g id="edge5" class="edge"><title>Node1&#45;&gt;Node6</title>
<path fill="none" stroke="midnightblue" d="M149.406,-287.535C170.555,-292.755 194.449,-298.654 216.32,-304.053"/>
<polygon fill="midnightblue" stroke="midnightblue" points="215.662,-307.495 226.21,-306.494 217.34,-300.699 215.662,-307.495"/>
</g>
<!-- Node7 -->
<g id="node7" class="node"><title>Node7</title>
<g id="a_node7"><a xlink:href="classpayments_1_1_payment_request.html#ac8f305ba3185f34458c9abe869119c6a" target="_top" xlink:title="payments::PaymentRequest\l::pki_data">
<polygon fill="white" stroke="black" points="217,-257.5 217,-287.5 359,-287.5 359,-257.5 217,-257.5"/>
<text text-anchor="start" x="225" y="-275.5" font-family="Helvetica,sans-Serif" font-size="10.00">payments::PaymentRequest</text>
<text text-anchor="middle" x="288" y="-264.5" font-family="Helvetica,sans-Serif" font-size="10.00">::pki_data</text>
</a>
</g>
</g>
<!-- Node1&#45;&gt;Node7 -->
<g id="edge6" class="edge"><title>Node1&#45;&gt;Node7</title>
<path fill="none" stroke="midnightblue" d="M175.276,-272.5C185.682,-272.5 196.275,-272.5 206.585,-272.5"/>
<polygon fill="midnightblue" stroke="midnightblue" points="206.784,-276 216.784,-272.5 206.784,-269 206.784,-276"/>
</g>
<!-- Node8 -->
<g id="node8" class="node"><title>Node8</title>
<g id="a_node8"><a xlink:href="classpayments_1_1_payment_request.html#a2ca7d37905f9d20151a760381a6047d0" target="_top" xlink:title="payments::PaymentRequest\l::has_serialized_payment\l_details">
<polygon fill="white" stroke="black" points="217,-197 217,-238 359,-238 359,-197 217,-197"/>
<text text-anchor="start" x="225" y="-226" font-family="Helvetica,sans-Serif" font-size="10.00">payments::PaymentRequest</text>
<text text-anchor="start" x="225" y="-215" font-family="Helvetica,sans-Serif" font-size="10.00">::has_serialized_payment</text>
<text text-anchor="middle" x="288" y="-204" font-family="Helvetica,sans-Serif" font-size="10.00">_details</text>
</a>
</g>
</g>
<!-- Node1&#45;&gt;Node8 -->
<g id="edge7" class="edge"><title>Node1&#45;&gt;Node8</title>
<path fill="none" stroke="midnightblue" d="M142.741,-257.471C162.55,-251.982 185.394,-245.653 206.977,-239.673"/>
<polygon fill="midnightblue" stroke="midnightblue" points="208.087,-242.997 216.789,-236.954 206.218,-236.251 208.087,-242.997"/>
</g>
<!-- Node9 -->
<g id="node9" class="node"><title>Node9</title>
<g id="a_node9"><a xlink:href="classpayments_1_1_payment_request.html#a409c3294565d64b32604eec63343a097" target="_top" xlink:title="payments::PaymentRequest\l::serialized_payment_details">
<polygon fill="white" stroke="black" points="216.5,-147.5 216.5,-177.5 359.5,-177.5 359.5,-147.5 216.5,-147.5"/>
<text text-anchor="start" x="224.5" y="-165.5" font-family="Helvetica,sans-Serif" font-size="10.00">payments::PaymentRequest</text>
<text text-anchor="middle" x="288" y="-154.5" font-family="Helvetica,sans-Serif" font-size="10.00">::serialized_payment_details</text>
</a>
</g>
</g>
<!-- Node1&#45;&gt;Node9 -->
<g id="edge8" class="edge"><title>Node1&#45;&gt;Node9</title>
<path fill="none" stroke="midnightblue" d="M106.54,-257.464C129.549,-238.899 171.148,-207.354 211,-187.5 215.355,-185.33 219.942,-183.286 224.615,-181.374"/>
<polygon fill="midnightblue" stroke="midnightblue" points="226.216,-184.507 234.281,-177.636 223.692,-177.978 226.216,-184.507"/>
</g>
<!-- Node10 -->
<g id="node10" class="node"><title>Node10</title>
<g id="a_node10"><a xlink:href="classpayments_1_1_payment_request.html#a0121113b95563ae0541c9ba54949d925" target="_top" xlink:title="payments::PaymentRequest\l::has_signature">
<polygon fill="white" stroke="black" points="217,-98.5 217,-128.5 359,-128.5 359,-98.5 217,-98.5"/>
<text text-anchor="start" x="225" y="-116.5" font-family="Helvetica,sans-Serif" font-size="10.00">payments::PaymentRequest</text>
<text text-anchor="middle" x="288" y="-105.5" font-family="Helvetica,sans-Serif" font-size="10.00">::has_signature</text>
</a>
</g>
</g>
<!-- Node1&#45;&gt;Node10 -->
<g id="edge9" class="edge"><title>Node1&#45;&gt;Node10</title>
<path fill="none" stroke="midnightblue" d="M98.4042,-257.293C117.137,-229.692 160.445,-171.19 211,-138.5 214.16,-136.457 217.503,-134.566 220.954,-132.818"/>
<polygon fill="midnightblue" stroke="midnightblue" points="222.671,-135.88 230.291,-128.519 219.743,-129.522 222.671,-135.88"/>
</g>
<!-- Node11 -->
<g id="node11" class="node"><title>Node11</title>
<g id="a_node11"><a xlink:href="classpayments_1_1_payment_request.html#a55eab9735c9b7675d42eef66336958fc" target="_top" xlink:title="payments::PaymentRequest\l::signature">
<polygon fill="white" stroke="black" points="217,-49.5 217,-79.5 359,-79.5 359,-49.5 217,-49.5"/>
<text text-anchor="start" x="225" y="-67.5" font-family="Helvetica,sans-Serif" font-size="10.00">payments::PaymentRequest</text>
<text text-anchor="middle" x="288" y="-56.5" font-family="Helvetica,sans-Serif" font-size="10.00">::signature</text>
</a>
</g>
</g>
<!-- Node1&#45;&gt;Node11 -->
<g id="edge10" class="edge"><title>Node1&#45;&gt;Node11</title>
<path fill="none" stroke="midnightblue" d="M94.4493,-257.483C108.981,-222.71 149.641,-136.082 211,-89.5 213.465,-87.6286 216.077,-85.8936 218.791,-84.2854"/>
<polygon fill="midnightblue" stroke="midnightblue" points="220.533,-87.3234 227.753,-79.5692 217.274,-81.1288 220.533,-87.3234"/>
</g>
<!-- Node12 -->
<g id="node12" class="node"><title>Node12</title>
<g id="a_node12"><a xlink:href="classpayments_1_1_payment_request.html#af648c888996d2322aea79dcddf286b63" target="_top" xlink:title="payments::PaymentRequest\l::unknown_fields">
<polygon fill="white" stroke="black" points="217,-0.5 217,-30.5 359,-30.5 359,-0.5 217,-0.5"/>
<text text-anchor="start" x="225" y="-18.5" font-family="Helvetica,sans-Serif" font-size="10.00">payments::PaymentRequest</text>
<text text-anchor="middle" x="288" y="-7.5" font-family="Helvetica,sans-Serif" font-size="10.00">::unknown_fields</text>
</a>
</g>
</g>
<!-- Node1&#45;&gt;Node12 -->
<g id="edge11" class="edge"><title>Node1&#45;&gt;Node12</title>
<path fill="none" stroke="midnightblue" d="M92.25,-257.241C103.162,-216.029 138.798,-101.487 211,-40.5 212.996,-38.8138 215.109,-37.2405 217.312,-35.7725"/>
<polygon fill="midnightblue" stroke="midnightblue" points="219.299,-38.6658 226.189,-30.6167 215.783,-32.6127 219.299,-38.6658"/>
</g>
</g>
</svg>
