<?xml version="1.0" encoding="UTF-8" standalone="no"?>
<!DOCTYPE svg PUBLIC "-//W3C//DTD SVG 1.1//EN"
 "http://www.w3.org/Graphics/SVG/1.1/DTD/svg11.dtd">
<!-- Generated by graphviz version 2.38.0 (20140413.2041)
 -->
<!-- Title: SendCoinsDialog::removeEntry Pages: 1 -->
<svg width="1480pt" height="769pt"
 viewBox="0.00 0.00 1480.00 769.00" xmlns="http://www.w3.org/2000/svg" xmlns:xlink="http://www.w3.org/1999/xlink">
<g id="graph0" class="graph" transform="scale(1 1) rotate(0) translate(4 765)">
<title>SendCoinsDialog::removeEntry</title>
<polygon fill="white" stroke="none" points="-4,4 -4,-765 1476,-765 1476,4 -4,4"/>
<!-- Node1 -->
<g id="node1" class="node"><title>Node1</title>
<polygon fill="#bfbfbf" stroke="black" points="0,-494 0,-513 156,-513 156,-494 0,-494"/>
<text text-anchor="middle" x="78" y="-501" font-family="Helvetica,sans-Serif" font-size="10.00">SendCoinsDialog::removeEntry</text>
</g>
<!-- Node2 -->
<g id="node2" class="node"><title>Node2</title>
<g id="a_node2"><a xlink:href="class_send_coins_dialog.html#a3d680a76b967641115c6ff2fa83fb62a" target="_top" xlink:title="SendCoinsDialog::addEntry">
<polygon fill="white" stroke="black" points="192,-494 192,-513 331,-513 331,-494 192,-494"/>
<text text-anchor="middle" x="261.5" y="-501" font-family="Helvetica,sans-Serif" font-size="10.00">SendCoinsDialog::addEntry</text>
</a>
</g>
</g>
<!-- Node1&#45;&gt;Node2 -->
<g id="edge1" class="edge"><title>Node1&#45;&gt;Node2</title>
<path fill="none" stroke="midnightblue" d="M156.236,-496.817C164.673,-496.733 173.269,-496.728 181.724,-496.803"/>
<polygon fill="midnightblue" stroke="midnightblue" points="181.904,-500.305 191.948,-496.933 181.993,-493.306 181.904,-500.305"/>
</g>
<!-- Node46 -->
<g id="node46" class="node"><title>Node46</title>
<g id="a_node46"><a xlink:href="class_send_coins_dialog.html#a3b834c739f7d02d8086a2bf58525c5f0" target="_top" xlink:title="SendCoinsDialog::updateTabs\lAndLabels">
<polygon fill="white" stroke="black" points="367,-419.5 367,-449.5 519,-449.5 519,-419.5 367,-419.5"/>
<text text-anchor="start" x="375" y="-437.5" font-family="Helvetica,sans-Serif" font-size="10.00">SendCoinsDialog::updateTabs</text>
<text text-anchor="middle" x="443" y="-426.5" font-family="Helvetica,sans-Serif" font-size="10.00">AndLabels</text>
</a>
</g>
</g>
<!-- Node1&#45;&gt;Node46 -->
<g id="edge60" class="edge"><title>Node1&#45;&gt;Node46</title>
<path fill="none" stroke="midnightblue" d="M129.092,-493.978C187.764,-482.826 285.922,-464.168 356.669,-450.72"/>
<polygon fill="midnightblue" stroke="midnightblue" points="357.73,-454.081 366.9,-448.775 356.422,-447.204 357.73,-454.081"/>
</g>
<!-- Node2&#45;&gt;Node1 -->
<g id="edge15" class="edge"><title>Node2&#45;&gt;Node1</title>
<path fill="none" stroke="midnightblue" d="M191.948,-510.067C183.566,-510.208 174.915,-510.267 166.305,-510.246"/>
<polygon fill="midnightblue" stroke="midnightblue" points="166.257,-506.745 156.236,-510.183 166.214,-513.745 166.257,-506.745"/>
</g>
<!-- Node3 -->
<g id="node3" class="node"><title>Node3</title>
<g id="a_node3"><a xlink:href="class_send_coins_entry.html#a831f8f9a63acd77b7d66d5393e12310b" target="_top" xlink:title="SendCoinsEntry::setModel">
<polygon fill="white" stroke="black" points="375.5,-565 375.5,-584 510.5,-584 510.5,-565 375.5,-565"/>
<text text-anchor="middle" x="443" y="-572" font-family="Helvetica,sans-Serif" font-size="10.00">SendCoinsEntry::setModel</text>
</a>
</g>
</g>
<!-- Node2&#45;&gt;Node3 -->
<g id="edge2" class="edge"><title>Node2&#45;&gt;Node3</title>
<path fill="none" stroke="midnightblue" d="M286.708,-513.075C318.11,-525.496 373.05,-547.227 408.457,-561.232"/>
<polygon fill="midnightblue" stroke="midnightblue" points="407.303,-564.54 417.889,-564.963 409.878,-558.03 407.303,-564.54"/>
</g>
<!-- Node10 -->
<g id="node10" class="node"><title>Node10</title>
<g id="a_node10"><a xlink:href="class_send_coins_entry.html#abff66fcd456c82144e7a2c410f5082ac" target="_top" xlink:title="SendCoinsEntry::clear">
<polygon fill="white" stroke="black" points="574,-528 574,-547 690,-547 690,-528 574,-528"/>
<text text-anchor="middle" x="632" y="-535" font-family="Helvetica,sans-Serif" font-size="10.00">SendCoinsEntry::clear</text>
</a>
</g>
</g>
<!-- Node2&#45;&gt;Node10 -->
<g id="edge58" class="edge"><title>Node2&#45;&gt;Node10</title>
<path fill="none" stroke="midnightblue" d="M331.38,-509.855C397.819,-515.985 497.748,-525.205 563.663,-531.287"/>
<polygon fill="midnightblue" stroke="midnightblue" points="563.66,-534.802 573.94,-532.235 564.304,-527.831 563.66,-534.802"/>
</g>
<!-- Node14 -->
<g id="node14" class="node"><title>Node14</title>
<g id="a_node14"><a xlink:href="class_send_coins_dialog.html#ae4f429aabcaf309aa314b90049be2a74" target="_top" xlink:title="SendCoinsDialog::coinControl\lUpdateLabels">
<polygon fill="white" stroke="black" points="557,-418.5 557,-448.5 707,-448.5 707,-418.5 557,-418.5"/>
<text text-anchor="start" x="565" y="-436.5" font-family="Helvetica,sans-Serif" font-size="10.00">SendCoinsDialog::coinControl</text>
<text text-anchor="middle" x="632" y="-425.5" font-family="Helvetica,sans-Serif" font-size="10.00">UpdateLabels</text>
</a>
</g>
</g>
<!-- Node2&#45;&gt;Node14 -->
<g id="edge16" class="edge"><title>Node2&#45;&gt;Node14</title>
<path fill="none" stroke="midnightblue" d="M321.22,-493.987C373.302,-485.361 451.381,-471.971 519,-458.5 531.026,-456.104 543.743,-453.415 556.123,-450.713"/>
<polygon fill="midnightblue" stroke="midnightblue" points="556.947,-454.116 565.961,-448.548 555.442,-447.279 556.947,-454.116"/>
</g>
<!-- Node2&#45;&gt;Node46 -->
<g id="edge53" class="edge"><title>Node2&#45;&gt;Node46</title>
<path fill="none" stroke="midnightblue" d="M287.459,-493.906C314.755,-483.413 359.173,-466.339 393.4,-453.182"/>
<polygon fill="midnightblue" stroke="midnightblue" points="394.682,-456.439 402.761,-449.584 392.171,-449.905 394.682,-456.439"/>
</g>
<!-- Node50 -->
<g id="node50" class="node"><title>Node50</title>
<g id="a_node50"><a xlink:href="class_send_coins_entry.html#a0dcb8720f234165b37f8b45b035320cc" target="_top" xlink:title="SendCoinsEntry::setFocus">
<polygon fill="white" stroke="black" points="375.5,-603 375.5,-622 510.5,-622 510.5,-603 375.5,-603"/>
<text text-anchor="middle" x="443" y="-610" font-family="Helvetica,sans-Serif" font-size="10.00">SendCoinsEntry::setFocus</text>
</a>
</g>
</g>
<!-- Node2&#45;&gt;Node50 -->
<g id="edge59" class="edge"><title>Node2&#45;&gt;Node50</title>
<path fill="none" stroke="midnightblue" d="M270.668,-513.009C287.026,-531.434 325.789,-572.069 367,-593.5 371.502,-595.841 376.309,-597.906 381.233,-599.723"/>
<polygon fill="midnightblue" stroke="midnightblue" points="380.202,-603.069 390.796,-602.923 382.423,-596.431 380.202,-603.069"/>
</g>
<!-- Node4 -->
<g id="node4" class="node"><title>Node4</title>
<g id="a_node4"><a xlink:href="class_wallet_model.html#a96d53e56b3f8f07537ea2523f7a7d300" target="_top" xlink:title="WalletModel::getOptionsModel">
<polygon fill="white" stroke="black" points="956,-643 956,-662 1109,-662 1109,-643 956,-643"/>
<text text-anchor="middle" x="1032.5" y="-650" font-family="Helvetica,sans-Serif" font-size="10.00">WalletModel::getOptionsModel</text>
</a>
</g>
</g>
<!-- Node3&#45;&gt;Node4 -->
<g id="edge3" class="edge"><title>Node3&#45;&gt;Node4</title>
<path fill="none" stroke="midnightblue" d="M490.724,-584.023C500.254,-586.605 510.086,-589.749 519,-593.5 536.283,-600.773 537.21,-609.575 555,-615.5 686.156,-659.182 848.415,-661.679 945.745,-658.096"/>
<polygon fill="midnightblue" stroke="midnightblue" points="945.977,-661.589 955.83,-657.694 945.698,-654.595 945.977,-661.589"/>
</g>
<!-- Node5 -->
<g id="node5" class="node"><title>Node5</title>
<g id="a_node5"><a xlink:href="class_send_coins_entry.html#a6ff4bd5b370545bcfd6214e866ee33f3" target="_top" xlink:title="SendCoinsEntry::updateDisplayUnit">
<polygon fill="white" stroke="black" points="745,-605 745,-624 920,-624 920,-605 745,-605"/>
<text text-anchor="middle" x="832.5" y="-612" font-family="Helvetica,sans-Serif" font-size="10.00">SendCoinsEntry::updateDisplayUnit</text>
</a>
</g>
</g>
<!-- Node3&#45;&gt;Node5 -->
<g id="edge4" class="edge"><title>Node3&#45;&gt;Node5</title>
<path fill="none" stroke="midnightblue" d="M490.548,-584.022C510.344,-587.776 533.727,-591.822 555,-594.5 614.44,-601.983 681.449,-606.918 734.612,-610.013"/>
<polygon fill="midnightblue" stroke="midnightblue" points="734.53,-613.514 744.713,-610.589 734.928,-606.525 734.53,-613.514"/>
</g>
<!-- Node9 -->
<g id="node9" class="node"><title>Node9</title>
<g id="a_node9"><a xlink:href="class_send_coins_entry.html#aa749b51119d0504f204bbf7c90744e2e" target="_top" xlink:title="SendCoinsEntry::deleteClicked">
<polygon fill="white" stroke="black" points="555,-566 555,-585 709,-585 709,-566 555,-566"/>
<text text-anchor="middle" x="632" y="-573" font-family="Helvetica,sans-Serif" font-size="10.00">SendCoinsEntry::deleteClicked</text>
</a>
</g>
</g>
<!-- Node3&#45;&gt;Node9 -->
<g id="edge9" class="edge"><title>Node3&#45;&gt;Node9</title>
<path fill="none" stroke="midnightblue" d="M510.719,-574.857C521.641,-574.915 533.095,-574.976 544.413,-575.037"/>
<polygon fill="midnightblue" stroke="midnightblue" points="544.732,-578.539 554.75,-575.092 544.769,-571.539 544.732,-578.539"/>
</g>
<!-- Node3&#45;&gt;Node10 -->
<g id="edge10" class="edge"><title>Node3&#45;&gt;Node10</title>
<path fill="none" stroke="midnightblue" d="M492.157,-564.972C516.71,-560.114 546.766,-554.167 572.627,-549.05"/>
<polygon fill="midnightblue" stroke="midnightblue" points="573.551,-552.435 582.681,-547.06 572.192,-545.568 573.551,-552.435"/>
</g>
<!-- Node5&#45;&gt;Node4 -->
<g id="edge5" class="edge"><title>Node5&#45;&gt;Node4</title>
<path fill="none" stroke="midnightblue" d="M883.208,-624.04C910.041,-629.19 943.359,-635.584 971.613,-641.006"/>
<polygon fill="midnightblue" stroke="midnightblue" points="971.291,-644.509 981.771,-642.956 972.61,-637.634 971.291,-644.509"/>
</g>
<!-- Node6 -->
<g id="node6" class="node"><title>Node6</title>
<g id="a_node6"><a xlink:href="class_anoncoin_amount_field.html#a44252e1921be1026e68adfbdc99d5ca4" target="_top" xlink:title="Change unit used to display amount. ">
<polygon fill="white" stroke="black" points="975.5,-730.5 975.5,-760.5 1089.5,-760.5 1089.5,-730.5 975.5,-730.5"/>
<text text-anchor="start" x="983.5" y="-748.5" font-family="Helvetica,sans-Serif" font-size="10.00">AnoncoinAmountField</text>
<text text-anchor="middle" x="1032.5" y="-737.5" font-family="Helvetica,sans-Serif" font-size="10.00">::setDisplayUnit</text>
</a>
</g>
</g>
<!-- Node5&#45;&gt;Node6 -->
<g id="edge6" class="edge"><title>Node5&#45;&gt;Node6</title>
<path fill="none" stroke="midnightblue" d="M842.058,-624.123C860.779,-644.629 907.579,-692.998 956,-720.5 959.714,-722.61 963.634,-724.575 967.654,-726.399"/>
<polygon fill="midnightblue" stroke="midnightblue" points="966.595,-729.75 977.17,-730.402 969.31,-723.298 966.595,-729.75"/>
</g>
<!-- Node8 -->
<g id="node8" class="node"><title>Node8</title>
<g id="a_node8"><a xlink:href="class_options_model.html#a3b6e4d4ef42be3aaba315b8cd14f468e" target="_top" xlink:title="OptionsModel::getDisplayUnit">
<polygon fill="white" stroke="black" points="958.5,-605 958.5,-624 1106.5,-624 1106.5,-605 958.5,-605"/>
<text text-anchor="middle" x="1032.5" y="-612" font-family="Helvetica,sans-Serif" font-size="10.00">OptionsModel::getDisplayUnit</text>
</a>
</g>
</g>
<!-- Node5&#45;&gt;Node8 -->
<g id="edge8" class="edge"><title>Node5&#45;&gt;Node8</title>
<path fill="none" stroke="midnightblue" d="M920.058,-614.5C929.457,-614.5 939.009,-614.5 948.366,-614.5"/>
<polygon fill="midnightblue" stroke="midnightblue" points="948.427,-618 958.427,-614.5 948.427,-611 948.427,-618"/>
</g>
<!-- Node7 -->
<g id="node7" class="node"><title>Node7</title>
<g id="a_node7"><a xlink:href="class_q_value_combo_box.html#af192c68c0c82f33000d8c1be8c013d2d" target="_top" xlink:title="QValueComboBox::setValue">
<polygon fill="white" stroke="black" points="1148.5,-736 1148.5,-755 1292.5,-755 1292.5,-736 1148.5,-736"/>
<text text-anchor="middle" x="1220.5" y="-743" font-family="Helvetica,sans-Serif" font-size="10.00">QValueComboBox::setValue</text>
</a>
</g>
</g>
<!-- Node6&#45;&gt;Node7 -->
<g id="edge7" class="edge"><title>Node6&#45;&gt;Node7</title>
<path fill="none" stroke="midnightblue" d="M1089.56,-745.5C1104.88,-745.5 1121.81,-745.5 1138.23,-745.5"/>
<polygon fill="midnightblue" stroke="midnightblue" points="1138.38,-749 1148.38,-745.5 1138.38,-742 1138.38,-749"/>
</g>
<!-- Node10&#45;&gt;Node5 -->
<g id="edge14" class="edge"><title>Node10&#45;&gt;Node5</title>
<path fill="none" stroke="midnightblue" d="M687.24,-547.005C694.825,-549.479 702.306,-552.59 709,-556.5 729.088,-568.235 724.809,-582.944 745,-594.5 749.766,-597.228 754.88,-599.583 760.154,-601.618"/>
<polygon fill="midnightblue" stroke="midnightblue" points="759.183,-604.985 769.778,-604.944 761.47,-598.369 759.183,-604.985"/>
</g>
<!-- Node11 -->
<g id="node11" class="node"><title>Node11</title>
<g id="a_node11"><a xlink:href="class_q_validated_line_edit.html#aee2a648f6f4904f21e55871afbddefa9" target="_top" xlink:title="QValidatedLineEdit\l::clear">
<polygon fill="white" stroke="black" points="781.5,-506.5 781.5,-536.5 883.5,-536.5 883.5,-506.5 781.5,-506.5"/>
<text text-anchor="start" x="789.5" y="-524.5" font-family="Helvetica,sans-Serif" font-size="10.00">QValidatedLineEdit</text>
<text text-anchor="middle" x="832.5" y="-513.5" font-family="Helvetica,sans-Serif" font-size="10.00">::clear</text>
</a>
</g>
</g>
<!-- Node10&#45;&gt;Node11 -->
<g id="edge11" class="edge"><title>Node10&#45;&gt;Node11</title>
<path fill="none" stroke="midnightblue" d="M690.148,-532.894C715.628,-530.84 745.653,-528.42 771.462,-526.339"/>
<polygon fill="midnightblue" stroke="midnightblue" points="771.81,-529.823 781.496,-525.531 771.247,-522.845 771.81,-529.823"/>
</g>
<!-- Node13 -->
<g id="node13" class="node"><title>Node13</title>
<g id="a_node13"><a xlink:href="class_anoncoin_amount_field.html#a2fbc8a8cb0a623e6e773a0913bf5a828" target="_top" xlink:title="Make field empty and ready for new input. ">
<polygon fill="white" stroke="black" points="775.5,-555.5 775.5,-585.5 889.5,-585.5 889.5,-555.5 775.5,-555.5"/>
<text text-anchor="start" x="783.5" y="-573.5" font-family="Helvetica,sans-Serif" font-size="10.00">AnoncoinAmountField</text>
<text text-anchor="middle" x="832.5" y="-562.5" font-family="Helvetica,sans-Serif" font-size="10.00">::clear</text>
</a>
</g>
</g>
<!-- Node10&#45;&gt;Node13 -->
<g id="edge13" class="edge"><title>Node10&#45;&gt;Node13</title>
<path fill="none" stroke="midnightblue" d="M690.148,-547.001C713.703,-550.917 741.143,-555.478 765.545,-559.535"/>
<polygon fill="midnightblue" stroke="midnightblue" points="765.001,-562.993 775.44,-561.18 766.149,-556.087 765.001,-562.993"/>
</g>
<!-- Node12 -->
<g id="node12" class="node"><title>Node12</title>
<g id="a_node12"><a xlink:href="class_q_validated_line_edit.html#ad9984e2e463cc7fbf28fe334498a1df5" target="_top" xlink:title="QValidatedLineEdit\l::setValid">
<polygon fill="white" stroke="black" points="981.5,-681.5 981.5,-711.5 1083.5,-711.5 1083.5,-681.5 981.5,-681.5"/>
<text text-anchor="start" x="989.5" y="-699.5" font-family="Helvetica,sans-Serif" font-size="10.00">QValidatedLineEdit</text>
<text text-anchor="middle" x="1032.5" y="-688.5" font-family="Helvetica,sans-Serif" font-size="10.00">::setValid</text>
</a>
</g>
</g>
<!-- Node11&#45;&gt;Node12 -->
<g id="edge12" class="edge"><title>Node11&#45;&gt;Node12</title>
<path fill="none" stroke="midnightblue" d="M883.786,-526.461C897.002,-529.985 910.265,-535.84 920,-545.5 961.34,-586.525 915.68,-629.473 956,-671.5 960.517,-676.208 965.938,-680.029 971.776,-683.132"/>
<polygon fill="midnightblue" stroke="midnightblue" points="970.673,-686.475 981.224,-687.438 973.576,-680.106 970.673,-686.475"/>
</g>
<!-- Node14&#45;&gt;Node4 -->
<g id="edge17" class="edge"><title>Node14&#45;&gt;Node4</title>
<path fill="none" stroke="midnightblue" d="M702.532,-448.534C787.152,-466.863 919.001,-495.541 920,-496.5 965.417,-540.097 911.252,-589.216 956,-633.5 957.441,-634.926 958.972,-636.25 960.579,-637.48"/>
<polygon fill="midnightblue" stroke="midnightblue" points="958.831,-640.515 969.161,-642.869 962.554,-634.587 958.831,-640.515"/>
</g>
<!-- Node15 -->
<g id="node15" class="node"><title>Node15</title>
<g id="a_node15"><a xlink:href="class_options_model.html#ace6c871068f613aee277e37bfdc988c0" target="_top" xlink:title="OptionsModel::getCoinControl\lFeatures">
<polygon fill="white" stroke="black" points="757.5,-418.5 757.5,-448.5 907.5,-448.5 907.5,-418.5 757.5,-418.5"/>
<text text-anchor="start" x="765.5" y="-436.5" font-family="Helvetica,sans-Serif" font-size="10.00">OptionsModel::getCoinControl</text>
<text text-anchor="middle" x="832.5" y="-425.5" font-family="Helvetica,sans-Serif" font-size="10.00">Features</text>
</a>
</g>
</g>
<!-- Node14&#45;&gt;Node15 -->
<g id="edge18" class="edge"><title>Node14&#45;&gt;Node15</title>
<path fill="none" stroke="midnightblue" d="M707.196,-433.5C720.271,-433.5 733.967,-433.5 747.292,-433.5"/>
<polygon fill="midnightblue" stroke="midnightblue" points="747.394,-437 757.394,-433.5 747.394,-430 747.394,-437"/>
</g>
<!-- Node16 -->
<g id="node16" class="node"><title>Node16</title>
<g id="a_node16"><a xlink:href="class_send_coins_entry.html#af36fb0ed9e2e07079c1a982b31e793c8" target="_top" xlink:title="SendCoinsEntry::getValue">
<polygon fill="white" stroke="black" points="765.5,-258 765.5,-277 899.5,-277 899.5,-258 765.5,-258"/>
<text text-anchor="middle" x="832.5" y="-265" font-family="Helvetica,sans-Serif" font-size="10.00">SendCoinsEntry::getValue</text>
</a>
</g>
</g>
<!-- Node14&#45;&gt;Node16 -->
<g id="edge19" class="edge"><title>Node14&#45;&gt;Node16</title>
<path fill="none" stroke="midnightblue" d="M650.966,-418.476C688.23,-387.313 773.657,-315.873 812.112,-283.713"/>
<polygon fill="midnightblue" stroke="midnightblue" points="814.564,-286.225 819.99,-277.125 810.074,-280.856 814.564,-286.225"/>
</g>
<!-- Node19 -->
<g id="node19" class="node"><title>Node19</title>
<g id="a_node19"><a xlink:href="class_coin_control_dialog.html#a4fc60e89b097952ff22dc0f9c58c87d9" target="_top" xlink:title="CoinControlDialog::\lupdateLabels">
<polygon fill="white" stroke="black" points="781,-364.5 781,-394.5 884,-394.5 884,-364.5 781,-364.5"/>
<text text-anchor="start" x="789" y="-382.5" font-family="Helvetica,sans-Serif" font-size="10.00">CoinControlDialog::</text>
<text text-anchor="middle" x="832.5" y="-371.5" font-family="Helvetica,sans-Serif" font-size="10.00">updateLabels</text>
</a>
</g>
</g>
<!-- Node14&#45;&gt;Node19 -->
<g id="edge22" class="edge"><title>Node14&#45;&gt;Node19</title>
<path fill="none" stroke="midnightblue" d="M688.293,-418.458C714.029,-411.457 744.705,-403.112 771.052,-395.944"/>
<polygon fill="midnightblue" stroke="midnightblue" points="772.188,-399.263 780.919,-393.26 770.35,-392.508 772.188,-399.263"/>
</g>
<!-- Node17 -->
<g id="node17" class="node"><title>Node17</title>
<g id="a_node17"><a xlink:href="class_payment_request_plus.html#a62ae278689d852e4a73cdef627763944" target="_top" xlink:title="PaymentRequestPlus\l::IsInitialized">
<polygon fill="white" stroke="black" points="976,-49.5 976,-79.5 1089,-79.5 1089,-49.5 976,-49.5"/>
<text text-anchor="start" x="984" y="-67.5" font-family="Helvetica,sans-Serif" font-size="10.00">PaymentRequestPlus</text>
<text text-anchor="middle" x="1032.5" y="-56.5" font-family="Helvetica,sans-Serif" font-size="10.00">::IsInitialized</text>
</a>
</g>
</g>
<!-- Node16&#45;&gt;Node17 -->
<g id="edge20" class="edge"><title>Node16&#45;&gt;Node17</title>
<path fill="none" stroke="midnightblue" d="M837.476,-257.764C850.127,-227.982 892.396,-137.243 956,-89.5 959.354,-86.9822 962.975,-84.71 966.753,-82.6605"/>
<polygon fill="midnightblue" stroke="midnightblue" points="968.33,-85.7857 975.799,-78.2716 965.274,-79.4878 968.33,-85.7857"/>
</g>
<!-- Node18 -->
<g id="node18" class="node"><title>Node18</title>
<g id="a_node18"><a xlink:href="classpayments_1_1_payment_request.html#a823854558ba54ec4b6258d9132affc15" target="_top" xlink:title="payments::PaymentRequest\l::IsInitialized">
<polygon fill="white" stroke="black" points="1149.5,-49.5 1149.5,-79.5 1291.5,-79.5 1291.5,-49.5 1149.5,-49.5"/>
<text text-anchor="start" x="1157.5" y="-67.5" font-family="Helvetica,sans-Serif" font-size="10.00">payments::PaymentRequest</text>
<text text-anchor="middle" x="1220.5" y="-56.5" font-family="Helvetica,sans-Serif" font-size="10.00">::IsInitialized</text>
</a>
</g>
</g>
<!-- Node17&#45;&gt;Node18 -->
<g id="edge21" class="edge"><title>Node17&#45;&gt;Node18</title>
<path fill="none" stroke="midnightblue" d="M1089.05,-64.5C1104.74,-64.5 1122.14,-64.5 1138.98,-64.5"/>
<polygon fill="midnightblue" stroke="midnightblue" points="1139.38,-68.0001 1149.38,-64.5 1139.38,-61.0001 1139.38,-68.0001"/>
</g>
<!-- Node19&#45;&gt;Node4 -->
<g id="edge48" class="edge"><title>Node19&#45;&gt;Node4</title>
<path fill="none" stroke="midnightblue" d="M884.27,-386.692C897.655,-390.964 910.887,-397.745 920,-408.5 985.472,-485.762 887.605,-558.813 956,-633.5 957.192,-634.802 958.46,-636.021 959.791,-637.161"/>
<polygon fill="midnightblue" stroke="midnightblue" points="957.828,-640.059 968.043,-642.872 961.812,-634.303 957.828,-640.059"/>
</g>
<!-- Node19&#45;&gt;Node8 -->
<g id="edge49" class="edge"><title>Node19&#45;&gt;Node8</title>
<path fill="none" stroke="midnightblue" d="M884.055,-386.877C897.435,-391.153 910.718,-397.89 920,-408.5 975.729,-472.2 897.862,-533.99 956,-595.5 957.245,-596.817 958.566,-598.048 959.953,-599.199"/>
<polygon fill="midnightblue" stroke="midnightblue" points="958.273,-602.286 968.528,-604.946 962.17,-596.471 958.273,-602.286"/>
</g>
<!-- Node20 -->
<g id="node20" class="node"><title>Node20</title>
<g id="a_node20"><a xlink:href="class_c_tx_out.html#a89bf5bc4987ccd09e9a675d980e18602" target="_top" xlink:title="CTxOut::IsDust">
<polygon fill="white" stroke="black" points="990,-365 990,-384 1075,-384 1075,-365 990,-365"/>
<text text-anchor="middle" x="1032.5" y="-372" font-family="Helvetica,sans-Serif" font-size="10.00">CTxOut::IsDust</text>
</a>
</g>
</g>
<!-- Node19&#45;&gt;Node20 -->
<g id="edge23" class="edge"><title>Node19&#45;&gt;Node20</title>
<path fill="none" stroke="midnightblue" d="M884.233,-378.219C913.546,-377.479 950.335,-376.55 979.809,-375.805"/>
<polygon fill="midnightblue" stroke="midnightblue" points="979.997,-379.302 989.905,-375.55 979.82,-372.304 979.997,-379.302"/>
</g>
<!-- Node21 -->
<g id="node21" class="node"><title>Node21</title>
<g id="a_node21"><a xlink:href="class_c_coin_control.html#a176b3a32b5f623fe25b8e61ca561422e" target="_top" xlink:title="CCoinControl::ListSelected">
<polygon fill="white" stroke="black" points="964,-327 964,-346 1101,-346 1101,-327 964,-327"/>
<text text-anchor="middle" x="1032.5" y="-334" font-family="Helvetica,sans-Serif" font-size="10.00">CCoinControl::ListSelected</text>
</a>
</g>
</g>
<!-- Node19&#45;&gt;Node21 -->
<g id="edge24" class="edge"><title>Node19&#45;&gt;Node21</title>
<path fill="none" stroke="midnightblue" d="M884.233,-368.482C912.829,-362.272 948.538,-354.517 977.632,-348.199"/>
<polygon fill="midnightblue" stroke="midnightblue" points="978.595,-351.571 987.624,-346.029 977.109,-344.731 978.595,-351.571"/>
</g>
<!-- Node22 -->
<g id="node22" class="node"><title>Node22</title>
<g id="a_node22"><a xlink:href="class_wallet_model.html#a5237ea4d9724807a05e2944e5ce6f181" target="_top" xlink:title="WalletModel::getOutputs">
<polygon fill="white" stroke="black" points="969.5,-289 969.5,-308 1095.5,-308 1095.5,-289 969.5,-289"/>
<text text-anchor="middle" x="1032.5" y="-296" font-family="Helvetica,sans-Serif" font-size="10.00">WalletModel::getOutputs</text>
</a>
</g>
</g>
<!-- Node19&#45;&gt;Node22 -->
<g id="edge25" class="edge"><title>Node19&#45;&gt;Node22</title>
<path fill="none" stroke="midnightblue" d="M859.028,-364.467C883.298,-350.69 921.167,-330.513 956,-317.5 962.703,-314.996 969.862,-312.715 977.002,-310.672"/>
<polygon fill="midnightblue" stroke="midnightblue" points="977.954,-314.04 986.682,-308.035 976.114,-307.287 977.954,-314.04"/>
</g>
<!-- Node23 -->
<g id="node23" class="node"><title>Node23</title>
<g id="a_node23"><a xlink:href="class_c_transaction.html#a3f8666d2a275c40da14bd5eaf47dc004" target="_top" xlink:title="CTransaction::GetHash">
<polygon fill="white" stroke="black" points="972,-251 972,-270 1093,-270 1093,-251 972,-251"/>
<text text-anchor="middle" x="1032.5" y="-258" font-family="Helvetica,sans-Serif" font-size="10.00">CTransaction::GetHash</text>
</a>
</g>
</g>
<!-- Node19&#45;&gt;Node23 -->
<g id="edge26" class="edge"><title>Node19&#45;&gt;Node23</title>
<path fill="none" stroke="midnightblue" d="M847.804,-364.158C869.22,-342.111 911.843,-301.685 956,-279.5 960.637,-277.17 965.581,-275.112 970.635,-273.297"/>
<polygon fill="midnightblue" stroke="midnightblue" points="972.021,-276.526 980.441,-270.096 969.849,-269.872 972.021,-276.526"/>
</g>
<!-- Node26 -->
<g id="node26" class="node"><title>Node26</title>
<g id="a_node26"><a xlink:href="class_wallet_model.html#a67bf10b70291b9f6e69757003fd9058f" target="_top" xlink:title="WalletModel::isSpent">
<polygon fill="white" stroke="black" points="977.5,-213 977.5,-232 1087.5,-232 1087.5,-213 977.5,-213"/>
<text text-anchor="middle" x="1032.5" y="-220" font-family="Helvetica,sans-Serif" font-size="10.00">WalletModel::isSpent</text>
</a>
</g>
</g>
<!-- Node19&#45;&gt;Node26 -->
<g id="edge29" class="edge"><title>Node19&#45;&gt;Node26</title>
<path fill="none" stroke="midnightblue" d="M848.245,-364.353C865.755,-346.205 895.654,-314.712 920,-286.5 936.733,-267.109 934.455,-255.349 956,-241.5 959.747,-239.092 963.78,-236.988 967.964,-235.152"/>
<polygon fill="midnightblue" stroke="midnightblue" points="969.243,-238.41 977.311,-231.542 966.721,-231.88 969.243,-238.41"/>
</g>
<!-- Node28 -->
<g id="node28" class="node"><title>Node28</title>
<g id="a_node28"><a xlink:href="class_c_coin_control.html#a28843122428b30c81814e54b9a0bcaa6" target="_top" xlink:title="CCoinControl::UnSelect">
<polygon fill="white" stroke="black" points="971,-175 971,-194 1094,-194 1094,-175 971,-175"/>
<text text-anchor="middle" x="1032.5" y="-182" font-family="Helvetica,sans-Serif" font-size="10.00">CCoinControl::UnSelect</text>
</a>
</g>
</g>
<!-- Node19&#45;&gt;Node28 -->
<g id="edge31" class="edge"><title>Node19&#45;&gt;Node28</title>
<path fill="none" stroke="midnightblue" d="M850.627,-364.457C869.542,-347.143 899.964,-317.133 920,-286.5 942.01,-252.849 925.351,-229.528 956,-203.5 957.983,-201.816 960.095,-200.277 962.305,-198.873"/>
<polygon fill="midnightblue" stroke="midnightblue" points="964.083,-201.891 971.251,-194.089 960.782,-195.718 964.083,-201.891"/>
</g>
<!-- Node29 -->
<g id="node29" class="node"><title>Node29</title>
<g id="a_node29"><a xlink:href="script_8cpp.html#a951f7e601746ae076afdf3169ecca2fc" target="_top" xlink:title="ExtractDestination">
<polygon fill="white" stroke="black" points="983.5,-99 983.5,-118 1081.5,-118 1081.5,-99 983.5,-99"/>
<text text-anchor="middle" x="1032.5" y="-106" font-family="Helvetica,sans-Serif" font-size="10.00">ExtractDestination</text>
</a>
</g>
</g>
<!-- Node19&#45;&gt;Node29 -->
<g id="edge32" class="edge"><title>Node19&#45;&gt;Node29</title>
<path fill="none" stroke="midnightblue" d="M852.398,-364.466C872.281,-347.608 903,-318.417 920,-286.5 953.044,-224.462 908.277,-184.106 956,-132.5 961.008,-127.085 967.23,-122.885 973.939,-119.63"/>
<polygon fill="midnightblue" stroke="midnightblue" points="975.417,-122.806 983.32,-115.75 972.742,-116.338 975.417,-122.806"/>
</g>
<!-- Node36 -->
<g id="node36" class="node"><title>Node36</title>
<g id="a_node36"><a xlink:href="class_wallet_model.html#a25601217a489e196e947e47c2189c311" target="_top" xlink:title="WalletModel::getPubKey">
<polygon fill="white" stroke="black" points="969.5,-567 969.5,-586 1095.5,-586 1095.5,-567 969.5,-567"/>
<text text-anchor="middle" x="1032.5" y="-574" font-family="Helvetica,sans-Serif" font-size="10.00">WalletModel::getPubKey</text>
</a>
</g>
</g>
<!-- Node19&#45;&gt;Node36 -->
<g id="edge39" class="edge"><title>Node19&#45;&gt;Node36</title>
<path fill="none" stroke="midnightblue" d="M884.182,-387.313C897.404,-391.6 910.571,-398.235 920,-408.5 965.794,-458.356 908.621,-508.147 956,-556.5 957.827,-558.364 959.806,-560.062 961.904,-561.606"/>
<polygon fill="midnightblue" stroke="midnightblue" points="960.151,-564.637 970.515,-566.837 963.786,-558.654 960.151,-564.637"/>
</g>
<!-- Node38 -->
<g id="node38" class="node"><title>Node38</title>
<g id="a_node38"><a xlink:href="class_c_pub_key.html#a397e437d9d0a008e2641892147b0931a" target="_top" xlink:title="CPubKey::IsCompressed">
<polygon fill="white" stroke="black" points="1156,-175 1156,-194 1285,-194 1285,-175 1156,-175"/>
<text text-anchor="middle" x="1220.5" y="-182" font-family="Helvetica,sans-Serif" font-size="10.00">CPubKey::IsCompressed</text>
</a>
</g>
</g>
<!-- Node19&#45;&gt;Node38 -->
<g id="edge41" class="edge"><title>Node19&#45;&gt;Node38</title>
<path fill="none" stroke="midnightblue" d="M852.033,-364.265C871.604,-347.234 902.057,-317.897 920,-286.5 947.839,-237.786 911.024,-199.043 956,-165.5 988.261,-141.44 1100.12,-159.295 1167.28,-172.906"/>
<polygon fill="midnightblue" stroke="midnightblue" points="1166.75,-176.371 1177.25,-174.962 1168.17,-169.515 1166.75,-176.371"/>
</g>
<!-- Node39 -->
<g id="node39" class="node"><title>Node39</title>
<g id="a_node39"><a xlink:href="class_coin_control_dialog.html#a7285f91e6d9b510084966f4229146bcd" target="_top" xlink:title="CoinControlDialog::\lgetPriorityLabel">
<polygon fill="white" stroke="black" points="981,-517.5 981,-547.5 1084,-547.5 1084,-517.5 981,-517.5"/>
<text text-anchor="start" x="989" y="-535.5" font-family="Helvetica,sans-Serif" font-size="10.00">CoinControlDialog::</text>
<text text-anchor="middle" x="1032.5" y="-524.5" font-family="Helvetica,sans-Serif" font-size="10.00">getPriorityLabel</text>
</a>
</g>
</g>
<!-- Node19&#45;&gt;Node39 -->
<g id="edge43" class="edge"><title>Node19&#45;&gt;Node39</title>
<path fill="none" stroke="midnightblue" d="M884.264,-388.41C897.178,-392.708 910.167,-399.074 920,-408.5 952.295,-439.458 924.564,-470.67 956,-502.5 960.553,-507.11 965.903,-511.032 971.617,-514.363"/>
<polygon fill="midnightblue" stroke="midnightblue" points="970.344,-517.645 980.835,-519.127 973.558,-511.427 970.344,-517.645"/>
</g>
<!-- Node40 -->
<g id="node40" class="node"><title>Node40</title>
<g id="a_node40"><a xlink:href="main_8h.html#ae6c67bac023a01f1ae29b7f2f4505bba" target="_top" xlink:title="AllowFree">
<polygon fill="white" stroke="black" points="1190,-501 1190,-520 1251,-520 1251,-501 1190,-501"/>
<text text-anchor="middle" x="1220.5" y="-508" font-family="Helvetica,sans-Serif" font-size="10.00">AllowFree</text>
</a>
</g>
</g>
<!-- Node19&#45;&gt;Node40 -->
<g id="edge47" class="edge"><title>Node19&#45;&gt;Node40</title>
<path fill="none" stroke="midnightblue" d="M884.169,-389.845C896.792,-394.128 909.659,-400.128 920,-408.5 944.467,-428.308 929.947,-451.829 956,-469.5 991.75,-493.748 1115.4,-504.431 1179.8,-508.441"/>
<polygon fill="midnightblue" stroke="midnightblue" points="1179.79,-511.946 1189.98,-509.05 1180.2,-504.959 1179.79,-511.946"/>
</g>
<!-- Node41 -->
<g id="node41" class="node"><title>Node41</title>
<g id="a_node41"><a xlink:href="main_8cpp.html#a95215e52b78d3270b416dc7b83a306fe" target="_top" xlink:title="GetMinFee">
<polygon fill="white" stroke="black" points="999.5,-441 999.5,-460 1065.5,-460 1065.5,-441 999.5,-441"/>
<text text-anchor="middle" x="1032.5" y="-448" font-family="Helvetica,sans-Serif" font-size="10.00">GetMinFee</text>
</a>
</g>
</g>
<!-- Node19&#45;&gt;Node41 -->
<g id="edge45" class="edge"><title>Node19&#45;&gt;Node41</title>
<path fill="none" stroke="midnightblue" d="M884.182,-394.179C896.152,-398.275 908.711,-403.102 920,-408.5 937.129,-416.69 938.568,-423.975 956,-431.5 966.451,-436.012 978.197,-439.611 989.255,-442.41"/>
<polygon fill="midnightblue" stroke="midnightblue" points="988.621,-445.857 999.159,-444.759 990.237,-439.046 988.621,-445.857"/>
</g>
<!-- Node43 -->
<g id="node43" class="node"><title>Node43</title>
<g id="a_node43"><a xlink:href="class_anoncoin_units.html#a07b2ad9cac3728231143e4d78c059e14" target="_top" xlink:title="Format as string (with unit) ">
<polygon fill="white" stroke="black" points="956,-403 956,-422 1109,-422 1109,-403 956,-403"/>
<text text-anchor="middle" x="1032.5" y="-410" font-family="Helvetica,sans-Serif" font-size="10.00">AnoncoinUnits::formatWithUnit</text>
</a>
</g>
</g>
<!-- Node19&#45;&gt;Node43 -->
<g id="edge50" class="edge"><title>Node19&#45;&gt;Node43</title>
<path fill="none" stroke="midnightblue" d="M884.233,-387.955C908.617,-392.019 938.173,-396.945 964.389,-401.315"/>
<polygon fill="midnightblue" stroke="midnightblue" points="963.816,-404.767 974.255,-402.959 964.967,-397.863 963.816,-404.767"/>
</g>
<!-- Node24 -->
<g id="node24" class="node"><title>Node24</title>
<g id="a_node24"><a xlink:href="hash_8h.html#a6de694e43f17c62025c6883965b65e63" target="_top" xlink:title="SerializeHash">
<polygon fill="white" stroke="black" points="1181.5,-251 1181.5,-270 1259.5,-270 1259.5,-251 1181.5,-251"/>
<text text-anchor="middle" x="1220.5" y="-258" font-family="Helvetica,sans-Serif" font-size="10.00">SerializeHash</text>
</a>
</g>
</g>
<!-- Node23&#45;&gt;Node24 -->
<g id="edge27" class="edge"><title>Node23&#45;&gt;Node24</title>
<path fill="none" stroke="midnightblue" d="M1093.12,-260.5C1118.3,-260.5 1147.24,-260.5 1171.06,-260.5"/>
<polygon fill="midnightblue" stroke="midnightblue" points="1171.28,-264 1181.28,-260.5 1171.28,-257 1171.28,-264"/>
</g>
<!-- Node25 -->
<g id="node25" class="node"><title>Node25</title>
<g id="a_node25"><a xlink:href="class_c_hash_writer.html#ae94a937211502eabf19477630090093a" target="_top" xlink:title="CHashWriter::GetHash">
<polygon fill="white" stroke="black" points="1342.5,-251 1342.5,-270 1461.5,-270 1461.5,-251 1342.5,-251"/>
<text text-anchor="middle" x="1402" y="-258" font-family="Helvetica,sans-Serif" font-size="10.00">CHashWriter::GetHash</text>
</a>
</g>
</g>
<!-- Node24&#45;&gt;Node25 -->
<g id="edge28" class="edge"><title>Node24&#45;&gt;Node25</title>
<path fill="none" stroke="midnightblue" d="M1259.57,-260.5C1280.73,-260.5 1307.71,-260.5 1332.43,-260.5"/>
<polygon fill="midnightblue" stroke="midnightblue" points="1332.49,-264 1342.49,-260.5 1332.49,-257 1332.49,-264"/>
</g>
<!-- Node27 -->
<g id="node27" class="node"><title>Node27</title>
<g id="a_node27"><a xlink:href="class_c_wallet.html#a7d77e683a0f10403fe2b67385895d497" target="_top" xlink:title="CWallet::IsSpent">
<polygon fill="white" stroke="black" points="1175,-213 1175,-232 1266,-232 1266,-213 1175,-213"/>
<text text-anchor="middle" x="1220.5" y="-220" font-family="Helvetica,sans-Serif" font-size="10.00">CWallet::IsSpent</text>
</a>
</g>
</g>
<!-- Node26&#45;&gt;Node27 -->
<g id="edge30" class="edge"><title>Node26&#45;&gt;Node27</title>
<path fill="none" stroke="midnightblue" d="M1087.55,-222.5C1111.76,-222.5 1140.28,-222.5 1164.59,-222.5"/>
<polygon fill="midnightblue" stroke="midnightblue" points="1164.73,-226 1174.73,-222.5 1164.73,-219 1164.73,-226"/>
</g>
<!-- Node30 -->
<g id="node30" class="node"><title>Node30</title>
<g id="a_node30"><a xlink:href="script_8cpp.html#a6ee6be50bff44464e905680c6fcee6dc" target="_top" xlink:title="Solver">
<polygon fill="white" stroke="red" points="1198,-99 1198,-118 1243,-118 1243,-99 1198,-99"/>
<text text-anchor="middle" x="1220.5" y="-106" font-family="Helvetica,sans-Serif" font-size="10.00">Solver</text>
</a>
</g>
</g>
<!-- Node29&#45;&gt;Node30 -->
<g id="edge33" class="edge"><title>Node29&#45;&gt;Node30</title>
<path fill="none" stroke="midnightblue" d="M1081.88,-108.5C1115.24,-108.5 1158.64,-108.5 1187.7,-108.5"/>
<polygon fill="midnightblue" stroke="midnightblue" points="1187.72,-112 1197.72,-108.5 1187.72,-105 1187.72,-112"/>
</g>
<!-- Node34 -->
<g id="node34" class="node"><title>Node34</title>
<g id="a_node34"><a xlink:href="class_c_pub_key.html#a9c1908fef34fd9e1c4b5e0ffd5d3834e" target="_top" xlink:title="CPubKey::GetID">
<polygon fill="white" stroke="red" points="1175.5,-137 1175.5,-156 1265.5,-156 1265.5,-137 1175.5,-137"/>
<text text-anchor="middle" x="1220.5" y="-144" font-family="Helvetica,sans-Serif" font-size="10.00">CPubKey::GetID</text>
</a>
</g>
</g>
<!-- Node29&#45;&gt;Node34 -->
<g id="edge37" class="edge"><title>Node29&#45;&gt;Node34</title>
<path fill="none" stroke="midnightblue" d="M1080.44,-118.089C1106.3,-123.372 1138.52,-129.955 1165.43,-135.453"/>
<polygon fill="midnightblue" stroke="midnightblue" points="1164.96,-138.929 1175.46,-137.502 1166.36,-132.071 1164.96,-138.929"/>
</g>
<!-- Node31 -->
<g id="node31" class="node"><title>Node31</title>
<g id="a_node31"><a xlink:href="util_8cpp.html#a64d956f1dda7f9a80ab5d594532b906d" target="_top" xlink:title="Return boolean argument or default value. ">
<polygon fill="white" stroke="red" points="1368,-137 1368,-156 1436,-156 1436,-137 1368,-137"/>
<text text-anchor="middle" x="1402" y="-144" font-family="Helvetica,sans-Serif" font-size="10.00">GetBoolArg</text>
</a>
</g>
</g>
<!-- Node30&#45;&gt;Node31 -->
<g id="edge34" class="edge"><title>Node30&#45;&gt;Node31</title>
<path fill="none" stroke="midnightblue" d="M1243.15,-113.084C1271.53,-119.092 1321.96,-129.767 1358.18,-137.436"/>
<polygon fill="midnightblue" stroke="midnightblue" points="1357.49,-140.866 1368,-139.513 1358.94,-134.018 1357.49,-140.866"/>
</g>
<!-- Node32 -->
<g id="node32" class="node"><title>Node32</title>
<g id="a_node32"><a xlink:href="class_c_script.html#acba6d6d35776de4ce3a632446f44805f" target="_top" xlink:title="CScript::IsPayToScriptHash">
<polygon fill="white" stroke="black" points="1332,-99 1332,-118 1472,-118 1472,-99 1332,-99"/>
<text text-anchor="middle" x="1402" y="-106" font-family="Helvetica,sans-Serif" font-size="10.00">CScript::IsPayToScriptHash</text>
</a>
</g>
</g>
<!-- Node30&#45;&gt;Node32 -->
<g id="edge35" class="edge"><title>Node30&#45;&gt;Node32</title>
<path fill="none" stroke="midnightblue" d="M1243.15,-108.5C1262.75,-108.5 1292.87,-108.5 1321.56,-108.5"/>
<polygon fill="midnightblue" stroke="midnightblue" points="1321.63,-112 1331.63,-108.5 1321.63,-105 1321.63,-112"/>
</g>
<!-- Node33 -->
<g id="node33" class="node"><title>Node33</title>
<g id="a_node33"><a xlink:href="class_c_script.html#a94635ed93d8d244ec3acfa83f9ecfe5f" target="_top" xlink:title="CScript::GetOp">
<polygon fill="white" stroke="red" points="1360,-61 1360,-80 1444,-80 1444,-61 1360,-61"/>
<text text-anchor="middle" x="1402" y="-68" font-family="Helvetica,sans-Serif" font-size="10.00">CScript::GetOp</text>
</a>
</g>
</g>
<!-- Node30&#45;&gt;Node33 -->
<g id="edge36" class="edge"><title>Node30&#45;&gt;Node33</title>
<path fill="none" stroke="midnightblue" d="M1243.15,-103.916C1269.38,-98.3647 1314.42,-88.8295 1349.69,-81.3621"/>
<polygon fill="midnightblue" stroke="midnightblue" points="1350.77,-84.7123 1359.82,-79.217 1349.32,-77.8641 1350.77,-84.7123"/>
</g>
<!-- Node35 -->
<g id="node35" class="node"><title>Node35</title>
<g id="a_node35"><a xlink:href="class_c_pub_key.html#a9d7129b65b6dee792b4f3923cd64ed59" target="_top" xlink:title="CPubKey::size">
<polygon fill="white" stroke="red" points="1361,-175 1361,-194 1443,-194 1443,-175 1361,-175"/>
<text text-anchor="middle" x="1402" y="-182" font-family="Helvetica,sans-Serif" font-size="10.00">CPubKey::size</text>
</a>
</g>
</g>
<!-- Node34&#45;&gt;Node35 -->
<g id="edge38" class="edge"><title>Node34&#45;&gt;Node35</title>
<path fill="none" stroke="midnightblue" d="M1265.87,-155.893C1291.65,-161.35 1324.2,-168.242 1350.9,-173.893"/>
<polygon fill="midnightblue" stroke="midnightblue" points="1350.31,-177.346 1360.81,-175.993 1351.76,-170.497 1350.31,-177.346"/>
</g>
<!-- Node37 -->
<g id="node37" class="node"><title>Node37</title>
<g id="a_node37"><a xlink:href="class_c_crypto_key_store.html#abd897aff07ec5679235b14cb4485dc37" target="_top" xlink:title="CCryptoKeyStore::GetPubKey">
<polygon fill="white" stroke="red" points="1145,-567 1145,-586 1296,-586 1296,-567 1145,-567"/>
<text text-anchor="middle" x="1220.5" y="-574" font-family="Helvetica,sans-Serif" font-size="10.00">CCryptoKeyStore::GetPubKey</text>
</a>
</g>
</g>
<!-- Node36&#45;&gt;Node37 -->
<g id="edge40" class="edge"><title>Node36&#45;&gt;Node37</title>
<path fill="none" stroke="midnightblue" d="M1095.69,-576.5C1108.23,-576.5 1121.61,-576.5 1134.77,-576.5"/>
<polygon fill="midnightblue" stroke="midnightblue" points="1134.78,-580 1144.78,-576.5 1134.78,-573 1134.78,-580"/>
</g>
<!-- Node38&#45;&gt;Node35 -->
<g id="edge42" class="edge"><title>Node38&#45;&gt;Node35</title>
<path fill="none" stroke="midnightblue" d="M1285.04,-184.5C1306.61,-184.5 1330.39,-184.5 1350.77,-184.5"/>
<polygon fill="midnightblue" stroke="midnightblue" points="1350.79,-188 1360.79,-184.5 1350.79,-181 1350.79,-188"/>
</g>
<!-- Node39&#45;&gt;Node40 -->
<g id="edge44" class="edge"><title>Node39&#45;&gt;Node40</title>
<path fill="none" stroke="midnightblue" d="M1084.33,-526.488C1114.37,-522.935 1151.86,-518.5 1179.74,-515.203"/>
<polygon fill="midnightblue" stroke="midnightblue" points="1180.39,-518.65 1189.91,-514 1179.57,-511.699 1180.39,-518.65"/>
</g>
<!-- Node42 -->
<g id="node42" class="node"><title>Node42</title>
<g id="a_node42"><a xlink:href="core_8h.html#ad1d9a769fa327ea042e0c9fadeb4836b" target="_top" xlink:title="MoneyRange">
<polygon fill="white" stroke="black" points="1182.5,-441 1182.5,-460 1258.5,-460 1258.5,-441 1182.5,-441"/>
<text text-anchor="middle" x="1220.5" y="-448" font-family="Helvetica,sans-Serif" font-size="10.00">MoneyRange</text>
</a>
</g>
</g>
<!-- Node41&#45;&gt;Node42 -->
<g id="edge46" class="edge"><title>Node41&#45;&gt;Node42</title>
<path fill="none" stroke="midnightblue" d="M1065.9,-450.5C1095.2,-450.5 1138.72,-450.5 1171.96,-450.5"/>
<polygon fill="midnightblue" stroke="midnightblue" points="1172.36,-454 1182.36,-450.5 1172.36,-447 1172.36,-454"/>
</g>
<!-- Node44 -->
<g id="node44" class="node"><title>Node44</title>
<g id="a_node44"><a xlink:href="class_anoncoin_units.html#acbdb244b3fc381599233882de4284e34" target="_top" xlink:title="Format as string. ">
<polygon fill="white" stroke="red" points="1163,-403 1163,-422 1278,-422 1278,-403 1163,-403"/>
<text text-anchor="middle" x="1220.5" y="-410" font-family="Helvetica,sans-Serif" font-size="10.00">AnoncoinUnits::format</text>
</a>
</g>
</g>
<!-- Node43&#45;&gt;Node44 -->
<g id="edge51" class="edge"><title>Node43&#45;&gt;Node44</title>
<path fill="none" stroke="midnightblue" d="M1109.15,-412.5C1123.56,-412.5 1138.54,-412.5 1152.65,-412.5"/>
<polygon fill="midnightblue" stroke="midnightblue" points="1152.75,-416 1162.75,-412.5 1152.75,-409 1152.75,-416"/>
</g>
<!-- Node45 -->
<g id="node45" class="node"><title>Node45</title>
<g id="a_node45"><a xlink:href="class_anoncoin_units.html#ad83d732db7699510db372a5c17590fba" target="_top" xlink:title="Short name. ">
<polygon fill="white" stroke="black" points="1164.5,-365 1164.5,-384 1276.5,-384 1276.5,-365 1164.5,-365"/>
<text text-anchor="middle" x="1220.5" y="-372" font-family="Helvetica,sans-Serif" font-size="10.00">AnoncoinUnits::name</text>
</a>
</g>
</g>
<!-- Node43&#45;&gt;Node45 -->
<g id="edge52" class="edge"><title>Node43&#45;&gt;Node45</title>
<path fill="none" stroke="midnightblue" d="M1080.44,-402.911C1105.53,-397.784 1136.62,-391.433 1163.03,-386.037"/>
<polygon fill="midnightblue" stroke="midnightblue" points="1163.8,-389.451 1172.9,-384.02 1162.4,-382.593 1163.8,-389.451"/>
</g>
<!-- Node46&#45;&gt;Node14 -->
<g id="edge57" class="edge"><title>Node46&#45;&gt;Node14</title>
<path fill="none" stroke="midnightblue" d="M519.252,-434.098C528.248,-434.049 537.478,-434 546.593,-433.951"/>
<polygon fill="midnightblue" stroke="midnightblue" points="546.834,-437.45 556.815,-433.897 546.796,-430.45 546.834,-437.45"/>
</g>
<!-- Node47 -->
<g id="node47" class="node"><title>Node47</title>
<g id="a_node47"><a xlink:href="class_send_coins_dialog.html#a689658987f2af0896f25bf37bb945d91" target="_top" xlink:title="Set up the tab chain manually, as Qt messes up the tab chain by default in some cases (issue https://...">
<polygon fill="white" stroke="black" points="561.5,-320.5 561.5,-350.5 702.5,-350.5 702.5,-320.5 561.5,-320.5"/>
<text text-anchor="start" x="569.5" y="-338.5" font-family="Helvetica,sans-Serif" font-size="10.00">SendCoinsDialog::setupTab</text>
<text text-anchor="middle" x="632" y="-327.5" font-family="Helvetica,sans-Serif" font-size="10.00">Chain</text>
</a>
</g>
</g>
<!-- Node46&#45;&gt;Node47 -->
<g id="edge54" class="edge"><title>Node46&#45;&gt;Node47</title>
<path fill="none" stroke="midnightblue" d="M472.401,-419.464C504.759,-402.333 557.768,-374.27 593.5,-355.353"/>
<polygon fill="midnightblue" stroke="midnightblue" points="595.438,-358.287 602.638,-350.515 592.163,-352.101 595.438,-358.287"/>
</g>
<!-- Node48 -->
<g id="node48" class="node"><title>Node48</title>
<g id="a_node48"><a xlink:href="class_send_coins_entry.html#aa431a0bf53174b3a012fe224e472bc13" target="_top" xlink:title="Set up the tab chain manually, as Qt messes up the tab chain by default in some cases (issue https://...">
<polygon fill="white" stroke="black" points="764.5,-73.5 764.5,-103.5 900.5,-103.5 900.5,-73.5 764.5,-73.5"/>
<text text-anchor="start" x="772.5" y="-91.5" font-family="Helvetica,sans-Serif" font-size="10.00">SendCoinsEntry::setupTab</text>
<text text-anchor="middle" x="832.5" y="-80.5" font-family="Helvetica,sans-Serif" font-size="10.00">Chain</text>
</a>
</g>
</g>
<!-- Node47&#45;&gt;Node48 -->
<g id="edge55" class="edge"><title>Node47&#45;&gt;Node48</title>
<path fill="none" stroke="midnightblue" d="M645.118,-320.421C678.618,-278.736 772.649,-161.73 812.87,-111.682"/>
<polygon fill="midnightblue" stroke="midnightblue" points="815.752,-113.683 819.288,-103.696 810.296,-109.298 815.752,-113.683"/>
</g>
<!-- Node49 -->
<g id="node49" class="node"><title>Node49</title>
<g id="a_node49"><a xlink:href="class_anoncoin_amount_field.html#a60f0158e3040a7def415231681d5a20f" target="_top" xlink:title="Qt messes up the tab chain by default in some cases (issue https://bugreports.qt&#45;project.org/browse/QTBUG&#45;10907), in these cases we have to set it up manually. ">
<polygon fill="white" stroke="black" points="975.5,-0.5 975.5,-30.5 1089.5,-30.5 1089.5,-0.5 975.5,-0.5"/>
<text text-anchor="start" x="983.5" y="-18.5" font-family="Helvetica,sans-Serif" font-size="10.00">AnoncoinAmountField</text>
<text text-anchor="middle" x="1032.5" y="-7.5" font-family="Helvetica,sans-Serif" font-size="10.00">::setupTabChain</text>
</a>
</g>
</g>
<!-- Node48&#45;&gt;Node49 -->
<g id="edge56" class="edge"><title>Node48&#45;&gt;Node49</title>
<path fill="none" stroke="midnightblue" d="M869.151,-73.443C893.453,-63.3763 926.459,-50.0875 956,-39.5 961.391,-37.5677 967.026,-35.629 972.683,-33.7371"/>
<polygon fill="midnightblue" stroke="midnightblue" points="973.782,-37.0603 982.185,-30.6069 971.592,-30.4118 973.782,-37.0603"/>
</g>
</g>
</svg>
