<?xml version="1.0" encoding="UTF-8" standalone="no"?>
<!DOCTYPE svg PUBLIC "-//W3C//DTD SVG 1.1//EN"
 "http://www.w3.org/Graphics/SVG/1.1/DTD/svg11.dtd">
<!-- Generated by graphviz version 2.38.0 (20140413.2041)
 -->
<!-- Title: WalletModel::changePassphrase Pages: 1 -->
<svg width="1137pt" height="332pt"
 viewBox="0.00 0.00 1137.00 332.00" xmlns="http://www.w3.org/2000/svg" xmlns:xlink="http://www.w3.org/1999/xlink">
<g id="graph0" class="graph" transform="scale(1 1) rotate(0) translate(4 328)">
<title>WalletModel::changePassphrase</title>
<polygon fill="white" stroke="none" points="-4,4 -4,-328 1133,-328 1133,4 -4,4"/>
<!-- Node1 -->
<g id="node1" class="node"><title>Node1</title>
<polygon fill="#bfbfbf" stroke="black" points="0,-180.5 0,-199.5 163,-199.5 163,-180.5 0,-180.5"/>
<text text-anchor="middle" x="81.5" y="-187.5" font-family="Helvetica,sans-Serif" font-size="10.00">WalletModel::changePassphrase</text>
</g>
<!-- Node2 -->
<g id="node2" class="node"><title>Node2</title>
<g id="a_node2"><a xlink:href="class_c_crypto_key_store.html#ab73ebcbfa6e0aaf271d0fff9369a6685" target="_top" xlink:title="CCryptoKeyStore::Lock">
<polygon fill="white" stroke="black" points="225,-228.5 225,-247.5 346,-247.5 346,-228.5 225,-228.5"/>
<text text-anchor="middle" x="285.5" y="-235.5" font-family="Helvetica,sans-Serif" font-size="10.00">CCryptoKeyStore::Lock</text>
</a>
</g>
</g>
<!-- Node1&#45;&gt;Node2 -->
<g id="edge1" class="edge"><title>Node1&#45;&gt;Node2</title>
<path fill="none" stroke="midnightblue" d="M122.892,-199.598C154.958,-207.218 199.957,-217.911 234.332,-226.079"/>
<polygon fill="midnightblue" stroke="midnightblue" points="233.64,-229.512 244.178,-228.418 235.258,-222.701 233.64,-229.512"/>
</g>
<!-- Node4 -->
<g id="node4" class="node"><title>Node4</title>
<g id="a_node4"><a xlink:href="class_c_wallet.html#a4abcec3066e7c462f4564c159fc15031" target="_top" xlink:title="CWallet::ChangeWalletPassphrase">
<polygon fill="white" stroke="black" points="199,-133.5 199,-152.5 372,-152.5 372,-133.5 199,-133.5"/>
<text text-anchor="middle" x="285.5" y="-140.5" font-family="Helvetica,sans-Serif" font-size="10.00">CWallet::ChangeWalletPassphrase</text>
</a>
</g>
</g>
<!-- Node1&#45;&gt;Node4 -->
<g id="edge3" class="edge"><title>Node1&#45;&gt;Node4</title>
<path fill="none" stroke="midnightblue" d="M123.378,-180.489C155.17,-173.092 199.459,-162.787 233.558,-154.853"/>
<polygon fill="midnightblue" stroke="midnightblue" points="234.39,-158.253 243.337,-152.578 232.804,-151.435 234.39,-158.253"/>
</g>
<!-- Node3 -->
<g id="node3" class="node"><title>Node3</title>
<g id="a_node3"><a xlink:href="class_c_crypto_key_store.html#af202f587051735be5a39344d9e333720" target="_top" xlink:title="CCryptoKeyStore::SetCrypted">
<polygon fill="white" stroke="black" points="614,-304.5 614,-323.5 764,-323.5 764,-304.5 614,-304.5"/>
<text text-anchor="middle" x="689" y="-311.5" font-family="Helvetica,sans-Serif" font-size="10.00">CCryptoKeyStore::SetCrypted</text>
</a>
</g>
</g>
<!-- Node2&#45;&gt;Node3 -->
<g id="edge2" class="edge"><title>Node2&#45;&gt;Node3</title>
<path fill="none" stroke="midnightblue" d="M336.944,-247.548C410.817,-261.532 548.229,-287.543 627.454,-302.539"/>
<polygon fill="midnightblue" stroke="midnightblue" points="627.286,-306.07 637.763,-304.491 628.588,-299.192 627.286,-306.07"/>
</g>
<!-- Node5 -->
<g id="node5" class="node"><title>Node5</title>
<g id="a_node5"><a xlink:href="class_c_crypter.html#a5368279e4a1549d3c1d15d8aa2179708" target="_top" xlink:title="CCrypter::SetKeyFromPassphrase">
<polygon fill="white" stroke="black" points="408,-38.5 408,-57.5 578,-57.5 578,-38.5 408,-38.5"/>
<text text-anchor="middle" x="493" y="-45.5" font-family="Helvetica,sans-Serif" font-size="10.00">CCrypter::SetKeyFromPassphrase</text>
</a>
</g>
</g>
<!-- Node4&#45;&gt;Node5 -->
<g id="edge4" class="edge"><title>Node4&#45;&gt;Node5</title>
<path fill="none" stroke="midnightblue" d="M300.116,-133.5C321.978,-118.609 366.658,-89.6535 408,-72 418.359,-67.5767 429.777,-63.6999 440.768,-60.425"/>
<polygon fill="midnightblue" stroke="midnightblue" points="442.044,-63.7003 450.698,-57.5881 440.122,-56.9695 442.044,-63.7003"/>
</g>
<!-- Node6 -->
<g id="node6" class="node"><title>Node6</title>
<g id="a_node6"><a xlink:href="class_c_crypter.html#a4dbabed4975d4435d22c76deac43df7f" target="_top" xlink:title="CCrypter::Decrypt">
<polygon fill="white" stroke="black" points="800,-76.5 800,-95.5 897,-95.5 897,-76.5 800,-76.5"/>
<text text-anchor="middle" x="848.5" y="-83.5" font-family="Helvetica,sans-Serif" font-size="10.00">CCrypter::Decrypt</text>
</a>
</g>
</g>
<!-- Node4&#45;&gt;Node6 -->
<g id="edge5" class="edge"><title>Node4&#45;&gt;Node6</title>
<path fill="none" stroke="midnightblue" d="M342.652,-133.461C363.175,-130.175 386.601,-126.657 408,-124 544.435,-107.057 705.635,-95.1908 789.782,-89.6123"/>
<polygon fill="midnightblue" stroke="midnightblue" points="790.152,-93.0956 799.901,-88.9472 789.693,-86.1106 790.152,-93.0956"/>
</g>
<!-- Node7 -->
<g id="node7" class="node"><title>Node7</title>
<g id="a_node7"><a xlink:href="class_c_crypto_key_store.html#a81bd70e18aa75f566526620a74f9cd88" target="_top" xlink:title="CCryptoKeyStore::Unlock">
<polygon fill="white" stroke="black" points="428,-181.5 428,-200.5 558,-200.5 558,-181.5 428,-181.5"/>
<text text-anchor="middle" x="493" y="-188.5" font-family="Helvetica,sans-Serif" font-size="10.00">CCryptoKeyStore::Unlock</text>
</a>
</g>
</g>
<!-- Node4&#45;&gt;Node7 -->
<g id="edge6" class="edge"><title>Node4&#45;&gt;Node7</title>
<path fill="none" stroke="midnightblue" d="M327.592,-152.598C360.213,-160.218 405.993,-170.911 440.962,-179.079"/>
<polygon fill="midnightblue" stroke="midnightblue" points="440.445,-182.552 450.979,-181.418 442.037,-175.736 440.445,-182.552"/>
</g>
<!-- Node20 -->
<g id="node20" class="node"><title>Node20</title>
<g id="a_node20"><a xlink:href="util_8h.html#a139d0fe6387b9e230a9b8bb12d9b43b9" target="_top" xlink:title="GetTimeMillis">
<polygon fill="white" stroke="black" points="454.5,-0.5 454.5,-19.5 531.5,-19.5 531.5,-0.5 454.5,-0.5"/>
<text text-anchor="middle" x="493" y="-7.5" font-family="Helvetica,sans-Serif" font-size="10.00">GetTimeMillis</text>
</a>
</g>
</g>
<!-- Node4&#45;&gt;Node20 -->
<g id="edge24" class="edge"><title>Node4&#45;&gt;Node20</title>
<path fill="none" stroke="midnightblue" d="M293.804,-133.25C311.033,-110.991 356.647,-56.2594 408,-29 419.04,-23.1398 431.826,-19.0808 444.042,-16.2716"/>
<polygon fill="midnightblue" stroke="midnightblue" points="445.031,-19.6414 454.118,-14.1937 443.617,-12.7857 445.031,-19.6414"/>
</g>
<!-- Node21 -->
<g id="node21" class="node"><title>Node21</title>
<g id="a_node21"><a xlink:href="class_c_crypter.html#a124fcd3021569a660ce2daa3391c8ea4" target="_top" xlink:title="CCrypter::Encrypt">
<polygon fill="white" stroke="black" points="445,-219.5 445,-238.5 541,-238.5 541,-219.5 445,-219.5"/>
<text text-anchor="middle" x="493" y="-226.5" font-family="Helvetica,sans-Serif" font-size="10.00">CCrypter::Encrypt</text>
</a>
</g>
</g>
<!-- Node4&#45;&gt;Node21 -->
<g id="edge25" class="edge"><title>Node4&#45;&gt;Node21</title>
<path fill="none" stroke="midnightblue" d="M300.815,-152.654C322.898,-167.132 367.019,-194.425 408,-210 416.519,-213.238 425.743,-216.011 434.854,-218.357"/>
<polygon fill="midnightblue" stroke="midnightblue" points="434.114,-221.779 444.657,-220.737 435.765,-214.976 434.114,-221.779"/>
</g>
<!-- Node22 -->
<g id="node22" class="node"><title>Node22</title>
<g id="a_node22"><a xlink:href="class_c_wallet_d_b.html#a507690da431ef61244941ad39c308aeb" target="_top" xlink:title="CWalletDB::WriteMasterKey">
<polygon fill="white" stroke="black" points="422,-133.5 422,-152.5 564,-152.5 564,-133.5 422,-133.5"/>
<text text-anchor="middle" x="493" y="-140.5" font-family="Helvetica,sans-Serif" font-size="10.00">CWalletDB::WriteMasterKey</text>
</a>
</g>
</g>
<!-- Node4&#45;&gt;Node22 -->
<g id="edge26" class="edge"><title>Node4&#45;&gt;Node22</title>
<path fill="none" stroke="midnightblue" d="M372.162,-143C385.197,-143 398.61,-143 411.529,-143"/>
<polygon fill="midnightblue" stroke="midnightblue" points="411.767,-146.5 421.767,-143 411.767,-139.5 411.767,-146.5"/>
</g>
<!-- Node7&#45;&gt;Node3 -->
<g id="edge7" class="edge"><title>Node7&#45;&gt;Node3</title>
<path fill="none" stroke="midnightblue" d="M558.072,-198.629C565.297,-201.413 572.15,-205.109 578,-210 609.476,-236.314 582.907,-268.234 614,-295 615.979,-296.704 618.091,-298.258 620.305,-299.675"/>
<polygon fill="midnightblue" stroke="midnightblue" points="618.809,-302.844 629.275,-304.491 622.12,-296.677 618.809,-302.844"/>
</g>
<!-- Node8 -->
<g id="node8" class="node"><title>Node8</title>
<g id="a_node8"><a xlink:href="crypter_8cpp.html#aded00aa7498a7485a00e77a20856b3e4" target="_top" xlink:title="DecryptSecret">
<polygon fill="white" stroke="black" points="649,-152.5 649,-171.5 729,-171.5 729,-152.5 649,-152.5"/>
<text text-anchor="middle" x="689" y="-159.5" font-family="Helvetica,sans-Serif" font-size="10.00">DecryptSecret</text>
</a>
</g>
</g>
<!-- Node7&#45;&gt;Node8 -->
<g id="edge8" class="edge"><title>Node7&#45;&gt;Node8</title>
<path fill="none" stroke="midnightblue" d="M557.792,-181.464C584.075,-177.535 614.059,-173.053 638.623,-169.381"/>
<polygon fill="midnightblue" stroke="midnightblue" points="639.42,-172.801 648.792,-167.861 638.385,-165.878 639.42,-172.801"/>
</g>
<!-- Node12 -->
<g id="node12" class="node"><title>Node12</title>
<g id="a_node12"><a xlink:href="class_c_pub_key.html#a85b5eaf92b26cb4a230586050285c3f4" target="_top" xlink:title="CPubKey::GetHash">
<polygon fill="white" stroke="black" points="637,-266.5 637,-285.5 741,-285.5 741,-266.5 637,-266.5"/>
<text text-anchor="middle" x="689" y="-273.5" font-family="Helvetica,sans-Serif" font-size="10.00">CPubKey::GetHash</text>
</a>
</g>
</g>
<!-- Node7&#45;&gt;Node12 -->
<g id="edge14" class="edge"><title>Node7&#45;&gt;Node12</title>
<path fill="none" stroke="midnightblue" d="M558.28,-200.579C565.227,-203.041 571.957,-206.128 578,-210 600.155,-224.195 592.052,-242.487 614,-257 618.073,-259.693 622.505,-262.005 627.108,-263.989"/>
<polygon fill="midnightblue" stroke="midnightblue" points="626.145,-267.366 636.737,-267.618 628.614,-260.816 626.145,-267.366"/>
</g>
<!-- Node16 -->
<g id="node16" class="node"><title>Node16</title>
<g id="a_node16"><a xlink:href="class_c_key.html#aaa13d5f08456bba094210c5eeabf64c8" target="_top" xlink:title="CKey::Set">
<polygon fill="white" stroke="black" points="658,-190.5 658,-209.5 720,-209.5 720,-190.5 658,-190.5"/>
<text text-anchor="middle" x="689" y="-197.5" font-family="Helvetica,sans-Serif" font-size="10.00">CKey::Set</text>
</a>
</g>
</g>
<!-- Node7&#45;&gt;Node16 -->
<g id="edge18" class="edge"><title>Node7&#45;&gt;Node16</title>
<path fill="none" stroke="midnightblue" d="M558.061,-193.972C587.646,-195.344 621.871,-196.932 647.767,-198.134"/>
<polygon fill="midnightblue" stroke="midnightblue" points="647.811,-201.639 657.963,-198.607 648.136,-194.647 647.811,-201.639"/>
</g>
<!-- Node18 -->
<g id="node18" class="node"><title>Node18</title>
<g id="a_node18"><a xlink:href="class_c_pub_key.html#a397e437d9d0a008e2641892147b0931a" target="_top" xlink:title="CPubKey::IsCompressed">
<polygon fill="white" stroke="black" points="624.5,-228.5 624.5,-247.5 753.5,-247.5 753.5,-228.5 624.5,-228.5"/>
<text text-anchor="middle" x="689" y="-235.5" font-family="Helvetica,sans-Serif" font-size="10.00">CPubKey::IsCompressed</text>
</a>
</g>
</g>
<!-- Node7&#45;&gt;Node18 -->
<g id="edge21" class="edge"><title>Node7&#45;&gt;Node18</title>
<path fill="none" stroke="midnightblue" d="M537.216,-200.542C550.332,-203.501 564.771,-206.821 578,-210 590.083,-212.904 616.96,-219.743 641.12,-225.934"/>
<polygon fill="midnightblue" stroke="midnightblue" points="640.35,-229.35 650.906,-228.445 642.09,-222.57 640.35,-229.35"/>
</g>
<!-- Node19 -->
<g id="node19" class="node"><title>Node19</title>
<g id="a_node19"><a xlink:href="class_c_key.html#ae4b61da6ec62f676fe6362ac5fc26aca" target="_top" xlink:title="CKey::GetPubKey">
<polygon fill="white" stroke="black" points="640,-114.5 640,-133.5 738,-133.5 738,-114.5 640,-114.5"/>
<text text-anchor="middle" x="689" y="-121.5" font-family="Helvetica,sans-Serif" font-size="10.00">CKey::GetPubKey</text>
</a>
</g>
</g>
<!-- Node7&#45;&gt;Node19 -->
<g id="edge23" class="edge"><title>Node7&#45;&gt;Node19</title>
<path fill="none" stroke="midnightblue" d="M525.55,-181.377C541.495,-176.195 561.014,-169.363 578,-162 594.599,-154.805 597.123,-149.516 614,-143 620.318,-140.56 627.06,-138.338 633.805,-136.344"/>
<polygon fill="midnightblue" stroke="midnightblue" points="634.958,-139.656 643.641,-133.585 633.067,-132.916 634.958,-139.656"/>
</g>
<!-- Node8&#45;&gt;Node6 -->
<g id="edge13" class="edge"><title>Node8&#45;&gt;Node6</title>
<path fill="none" stroke="midnightblue" d="M729.371,-155.663C740.97,-152.814 753.388,-148.751 764,-143 783.083,-132.658 782.146,-122.343 800,-110 805.063,-106.499 810.709,-103.195 816.29,-100.223"/>
<polygon fill="midnightblue" stroke="midnightblue" points="818.167,-103.195 825.508,-95.5562 815.005,-96.9499 818.167,-103.195"/>
</g>
<!-- Node9 -->
<g id="node9" class="node"><title>Node9</title>
<g id="a_node9"><a xlink:href="glibc__compat_8cpp.html#a0f46826ab0466591e136db24394923cf" target="_top" xlink:title="memcpy">
<polygon fill="white" stroke="black" points="954.5,-152.5 954.5,-171.5 1008.5,-171.5 1008.5,-152.5 954.5,-152.5"/>
<text text-anchor="middle" x="981.5" y="-159.5" font-family="Helvetica,sans-Serif" font-size="10.00">memcpy</text>
</a>
</g>
</g>
<!-- Node8&#45;&gt;Node9 -->
<g id="edge9" class="edge"><title>Node8&#45;&gt;Node9</title>
<path fill="none" stroke="midnightblue" d="M729.245,-153.542C750.142,-149.466 776.346,-145.028 800,-143 842.954,-139.318 854.158,-138.187 897,-143 912.845,-144.78 930.069,-148.403 944.736,-152.013"/>
<polygon fill="midnightblue" stroke="midnightblue" points="943.878,-155.406 954.433,-154.487 945.609,-148.624 943.878,-155.406"/>
</g>
<!-- Node11 -->
<g id="node11" class="node"><title>Node11</title>
<g id="a_node11"><a xlink:href="class_c_crypter.html#a0d948dd4796e2420e1dd9c1ddbf7974e" target="_top" xlink:title="CCrypter::SetKey">
<polygon fill="white" stroke="black" points="801.5,-152.5 801.5,-171.5 895.5,-171.5 895.5,-152.5 801.5,-152.5"/>
<text text-anchor="middle" x="848.5" y="-159.5" font-family="Helvetica,sans-Serif" font-size="10.00">CCrypter::SetKey</text>
</a>
</g>
</g>
<!-- Node8&#45;&gt;Node11 -->
<g id="edge11" class="edge"><title>Node8&#45;&gt;Node11</title>
<path fill="none" stroke="midnightblue" d="M729.338,-162C748.044,-162 770.749,-162 791.237,-162"/>
<polygon fill="midnightblue" stroke="midnightblue" points="791.402,-165.5 801.402,-162 791.402,-158.5 791.402,-165.5"/>
</g>
<!-- Node10 -->
<g id="node10" class="node"><title>Node10</title>
<g id="a_node10"><a xlink:href="glibc__compat_8cpp.html#a9778d49e9029dd75bc53ecbbf9f5e9a1" target="_top" xlink:title="memmove">
<polygon fill="white" stroke="black" points="1066,-152.5 1066,-171.5 1129,-171.5 1129,-152.5 1066,-152.5"/>
<text text-anchor="middle" x="1097.5" y="-159.5" font-family="Helvetica,sans-Serif" font-size="10.00">memmove</text>
</a>
</g>
</g>
<!-- Node9&#45;&gt;Node10 -->
<g id="edge10" class="edge"><title>Node9&#45;&gt;Node10</title>
<path fill="none" stroke="midnightblue" d="M1008.65,-162C1022.43,-162 1039.66,-162 1055.19,-162"/>
<polygon fill="midnightblue" stroke="midnightblue" points="1055.61,-165.5 1065.61,-162 1055.61,-158.5 1055.61,-165.5"/>
</g>
<!-- Node11&#45;&gt;Node9 -->
<g id="edge12" class="edge"><title>Node11&#45;&gt;Node9</title>
<path fill="none" stroke="midnightblue" d="M895.686,-162C911.453,-162 928.86,-162 943.781,-162"/>
<polygon fill="midnightblue" stroke="midnightblue" points="944.147,-165.5 954.147,-162 944.147,-158.5 944.147,-165.5"/>
</g>
<!-- Node13 -->
<g id="node13" class="node"><title>Node13</title>
<g id="a_node13"><a xlink:href="hash_8h.html#ab3f6c437460137530d86e09c2c102e99" target="_top" xlink:title="Hash">
<polygon fill="white" stroke="black" points="828.5,-304.5 828.5,-323.5 868.5,-323.5 868.5,-304.5 828.5,-304.5"/>
<text text-anchor="middle" x="848.5" y="-311.5" font-family="Helvetica,sans-Serif" font-size="10.00">Hash</text>
</a>
</g>
</g>
<!-- Node12&#45;&gt;Node13 -->
<g id="edge15" class="edge"><title>Node12&#45;&gt;Node13</title>
<path fill="none" stroke="midnightblue" d="M729.744,-285.589C757.333,-292.245 793.468,-300.964 818.396,-306.978"/>
<polygon fill="midnightblue" stroke="midnightblue" points="817.793,-310.433 828.335,-309.376 819.435,-303.628 817.793,-310.433"/>
</g>
<!-- Node14 -->
<g id="node14" class="node"><title>Node14</title>
<g id="a_node14"><a xlink:href="class_c_pub_key.html#a9d7129b65b6dee792b4f3923cd64ed59" target="_top" xlink:title="CPubKey::size">
<polygon fill="white" stroke="black" points="807.5,-266.5 807.5,-285.5 889.5,-285.5 889.5,-266.5 807.5,-266.5"/>
<text text-anchor="middle" x="848.5" y="-273.5" font-family="Helvetica,sans-Serif" font-size="10.00">CPubKey::size</text>
</a>
</g>
</g>
<!-- Node12&#45;&gt;Node14 -->
<g id="edge16" class="edge"><title>Node12&#45;&gt;Node14</title>
<path fill="none" stroke="midnightblue" d="M741.136,-276C759.081,-276 779.217,-276 797.102,-276"/>
<polygon fill="midnightblue" stroke="midnightblue" points="797.338,-279.5 807.338,-276 797.338,-272.5 797.338,-279.5"/>
</g>
<!-- Node15 -->
<g id="node15" class="node"><title>Node15</title>
<g id="a_node15"><a xlink:href="class_c_pub_key.html#a7dc71b3f037c84268dc22de97d7b65fb" target="_top" xlink:title="CPubKey::GetLen">
<polygon fill="white" stroke="black" points="933,-266.5 933,-285.5 1030,-285.5 1030,-266.5 933,-266.5"/>
<text text-anchor="middle" x="981.5" y="-273.5" font-family="Helvetica,sans-Serif" font-size="10.00">CPubKey::GetLen</text>
</a>
</g>
</g>
<!-- Node14&#45;&gt;Node15 -->
<g id="edge17" class="edge"><title>Node14&#45;&gt;Node15</title>
<path fill="none" stroke="midnightblue" d="M889.516,-276C900.001,-276 911.518,-276 922.728,-276"/>
<polygon fill="midnightblue" stroke="midnightblue" points="922.899,-279.5 932.899,-276 922.899,-272.5 922.899,-279.5"/>
</g>
<!-- Node16&#45;&gt;Node9 -->
<g id="edge20" class="edge"><title>Node16&#45;&gt;Node9</title>
<path fill="none" stroke="midnightblue" d="M720.323,-198.475C760.799,-196.153 834.628,-190.914 897,-181 912.596,-178.521 929.625,-174.828 944.213,-171.356"/>
<polygon fill="midnightblue" stroke="midnightblue" points="945.461,-174.654 954.348,-168.886 943.804,-167.853 945.461,-174.654"/>
</g>
<!-- Node17 -->
<g id="node17" class="node"><title>Node17</title>
<g id="a_node17"><a xlink:href="class_c_key.html#acec869bc75fa8f4d619ab025d367a97c" target="_top" xlink:title="CKey::Check">
<polygon fill="white" stroke="black" points="811,-228.5 811,-247.5 886,-247.5 886,-228.5 811,-228.5"/>
<text text-anchor="middle" x="848.5" y="-235.5" font-family="Helvetica,sans-Serif" font-size="10.00">CKey::Check</text>
</a>
</g>
</g>
<!-- Node16&#45;&gt;Node17 -->
<g id="edge19" class="edge"><title>Node16&#45;&gt;Node17</title>
<path fill="none" stroke="midnightblue" d="M720.368,-207.327C743.174,-212.829 774.819,-220.464 800.832,-226.74"/>
<polygon fill="midnightblue" stroke="midnightblue" points="800.317,-230.217 810.859,-229.16 801.959,-223.412 800.317,-230.217"/>
</g>
<!-- Node18&#45;&gt;Node14 -->
<g id="edge22" class="edge"><title>Node18&#45;&gt;Node14</title>
<path fill="none" stroke="midnightblue" d="M729.744,-247.589C750.528,-252.604 776.161,-258.788 798.199,-264.105"/>
<polygon fill="midnightblue" stroke="midnightblue" points="797.5,-267.537 808.042,-266.48 799.142,-260.732 797.5,-267.537"/>
</g>
</g>
</svg>
