<?xml version="1.0" encoding="UTF-8" standalone="no"?>
<!DOCTYPE svg PUBLIC "-//W3C//DTD SVG 1.1//EN"
 "http://www.w3.org/Graphics/SVG/1.1/DTD/svg11.dtd">
<!-- Generated by graphviz version 2.38.0 (20140413.2041)
 -->
<!-- Title: Ui::RPCConsole Pages: 1 -->
<svg width="476pt" height="343pt"
 viewBox="0.00 0.00 475.50 343.00" xmlns="http://www.w3.org/2000/svg" xmlns:xlink="http://www.w3.org/1999/xlink">
<g id="graph0" class="graph" transform="scale(1 1) rotate(0) translate(4 339)">
<title>Ui::RPCConsole</title>
<polygon fill="white" stroke="none" points="-4,4 -4,-339 471.5,-339 471.5,4 -4,4"/>
<!-- Node1 -->
<g id="node1" class="node"><title>Node1</title>
<polygon fill="#bfbfbf" stroke="black" points="7,-0.5 7,-19.5 96,-19.5 96,-0.5 7,-0.5"/>
<text text-anchor="middle" x="51.5" y="-7.5" font-family="Helvetica,sans-Serif" font-size="10.00">Ui::RPCConsole</text>
</g>
<!-- Node2 -->
<g id="node2" class="node"><title>Node2</title>
<g id="a_node2"><a xlink:href="class_ui___r_p_c_console.html" target="_top" xlink:title="Ui_RPCConsole">
<polygon fill="white" stroke="black" points="7,-57.5 7,-76.5 96,-76.5 96,-57.5 7,-57.5"/>
<text text-anchor="middle" x="51.5" y="-64.5" font-family="Helvetica,sans-Serif" font-size="10.00">Ui_RPCConsole</text>
</a>
</g>
</g>
<!-- Node2&#45;&gt;Node1 -->
<g id="edge1" class="edge"><title>Node2&#45;&gt;Node1</title>
<path fill="none" stroke="midnightblue" d="M51.5,-47.1166C51.5,-37.8173 51.5,-27.0557 51.5,-19.7149"/>
<polygon fill="midnightblue" stroke="midnightblue" points="48.0001,-47.4062 51.5,-57.4062 55.0001,-47.4063 48.0001,-47.4062"/>
</g>
<!-- Node3 -->
<g id="node3" class="node"><title>Node3</title>
<g id="a_node3"><a xlink:href="class_traffic_graph_widget.html" target="_top" xlink:title="TrafficGraphWidget">
<polygon fill="white" stroke="black" points="0,-124.5 0,-143.5 103,-143.5 103,-124.5 0,-124.5"/>
<text text-anchor="middle" x="51.5" y="-131.5" font-family="Helvetica,sans-Serif" font-size="10.00">TrafficGraphWidget</text>
</a>
</g>
</g>
<!-- Node3&#45;&gt;Node2 -->
<g id="edge2" class="edge"><title>Node3&#45;&gt;Node2</title>
<path fill="none" stroke="#9a32cd" stroke-dasharray="5,2" d="M51.5,-114.037C51.5,-101.67 51.5,-86.1198 51.5,-76.6273"/>
<polygon fill="#9a32cd" stroke="#9a32cd" points="48.0001,-114.234 51.5,-124.234 55.0001,-114.234 48.0001,-114.234"/>
<text text-anchor="middle" x="79.5" y="-98" font-family="Helvetica,sans-Serif" font-size="10.00"> trafficGraph</text>
</g>
<!-- Node4 -->
<g id="node4" class="node"><title>Node4</title>
<polygon fill="white" stroke="#bfbfbf" points="7,-191.5 7,-210.5 62,-210.5 62,-191.5 7,-191.5"/>
<text text-anchor="middle" x="34.5" y="-198.5" font-family="Helvetica,sans-Serif" font-size="10.00">QWidget</text>
</g>
<!-- Node4&#45;&gt;Node3 -->
<g id="edge3" class="edge"><title>Node4&#45;&gt;Node3</title>
<path fill="none" stroke="midnightblue" d="M39.3608,-181.415C42.6107,-168.988 46.7356,-153.217 49.2436,-143.627"/>
<polygon fill="midnightblue" stroke="midnightblue" points="35.9369,-180.674 36.7927,-191.234 42.7092,-182.445 35.9369,-180.674"/>
</g>
<!-- Node5 -->
<g id="node5" class="node"><title>Node5</title>
<g id="a_node5"><a xlink:href="class_client_model.html" target="_top" xlink:title="Model for Anoncoin network client. ">
<polygon fill="white" stroke="black" points="110,-191.5 110,-210.5 179,-210.5 179,-191.5 110,-191.5"/>
<text text-anchor="middle" x="144.5" y="-198.5" font-family="Helvetica,sans-Serif" font-size="10.00">ClientModel</text>
</a>
</g>
</g>
<!-- Node5&#45;&gt;Node3 -->
<g id="edge4" class="edge"><title>Node5&#45;&gt;Node3</title>
<path fill="none" stroke="#9a32cd" stroke-dasharray="5,2" d="M100.112,-190.883C88.7857,-186.879 77.3306,-181.157 68.5,-173 60.0055,-165.154 55.4885,-152.272 53.2953,-143.713"/>
<polygon fill="#9a32cd" stroke="#9a32cd" points="99.3735,-194.319 109.963,-193.976 101.471,-187.641 99.3735,-194.319"/>
<text text-anchor="middle" x="95.5" y="-165" font-family="Helvetica,sans-Serif" font-size="10.00"> clientModel</text>
</g>
<!-- Node7 -->
<g id="node7" class="node"><title>Node7</title>
<g id="a_node7"><a xlink:href="class_peer_table_model.html" target="_top" xlink:title="Qt model providing information about connected peers, similar to the &quot;getpeerinfo&quot; RPC call...">
<polygon fill="white" stroke="black" points="221.5,-124.5 221.5,-143.5 311.5,-143.5 311.5,-124.5 221.5,-124.5"/>
<text text-anchor="middle" x="266.5" y="-131.5" font-family="Helvetica,sans-Serif" font-size="10.00">PeerTableModel</text>
</a>
</g>
</g>
<!-- Node5&#45;&gt;Node7 -->
<g id="edge9" class="edge"><title>Node5&#45;&gt;Node7</title>
<path fill="none" stroke="#9a32cd" stroke-dasharray="5,2" d="M138.045,-181.578C136.857,-174.772 137.136,-167.407 141.5,-162 151.539,-149.561 189.835,-142.572 221.423,-138.839"/>
<polygon fill="#9a32cd" stroke="#9a32cd" points="134.732,-182.73 140.745,-191.453 141.484,-180.884 134.732,-182.73"/>
<text text-anchor="middle" x="168.5" y="-165" font-family="Helvetica,sans-Serif" font-size="10.00"> clientModel</text>
</g>
<!-- Node6 -->
<g id="node6" class="node"><title>Node6</title>
<polygon fill="white" stroke="#bfbfbf" points="89,-258.5 89,-277.5 142,-277.5 142,-258.5 89,-258.5"/>
<text text-anchor="middle" x="115.5" y="-265.5" font-family="Helvetica,sans-Serif" font-size="10.00">QObject</text>
</g>
<!-- Node6&#45;&gt;Node5 -->
<g id="edge5" class="edge"><title>Node6&#45;&gt;Node5</title>
<path fill="none" stroke="midnightblue" d="M123.624,-248.79C129.194,-236.308 136.329,-220.314 140.651,-210.627"/>
<polygon fill="midnightblue" stroke="midnightblue" points="120.289,-247.675 119.411,-258.234 126.682,-250.528 120.289,-247.675"/>
</g>
<!-- Node7&#45;&gt;Node5 -->
<g id="edge6" class="edge"><title>Node7&#45;&gt;Node5</title>
<path fill="none" stroke="#9a32cd" stroke-dasharray="5,2" d="M242.152,-148.619C234.564,-152.883 226.175,-157.62 218.5,-162 210.025,-166.836 208.107,-168.403 199.5,-173 187.49,-179.415 173.74,-186.165 162.993,-191.311"/>
<polygon fill="#9a32cd" stroke="#9a32cd" points="243.899,-151.652 250.908,-143.706 240.474,-145.547 243.899,-151.652"/>
<text text-anchor="middle" x="256.5" y="-165" font-family="Helvetica,sans-Serif" font-size="10.00"> peerTableModel</text>
</g>
<!-- Node8 -->
<g id="node8" class="node"><title>Node8</title>
<polygon fill="white" stroke="#bfbfbf" points="256,-191.5 256,-210.5 369,-210.5 369,-191.5 256,-191.5"/>
<text text-anchor="middle" x="312.5" y="-198.5" font-family="Helvetica,sans-Serif" font-size="10.00">QAbstractTableModel</text>
</g>
<!-- Node8&#45;&gt;Node7 -->
<g id="edge7" class="edge"><title>Node8&#45;&gt;Node7</title>
<path fill="none" stroke="midnightblue" d="M307.732,-181.266C305.551,-174.806 302.534,-167.753 298.5,-162 293.493,-154.858 286.148,-148.479 279.758,-143.717"/>
<polygon fill="midnightblue" stroke="midnightblue" points="304.483,-182.626 310.642,-191.246 311.203,-180.666 304.483,-182.626"/>
</g>
<!-- Node9 -->
<g id="node9" class="node"><title>Node9</title>
<g id="a_node9"><a xlink:href="class_peer_table_priv.html" target="_top" xlink:title="PeerTablePriv">
<polygon fill="white" stroke="black" points="387.5,-191.5 387.5,-210.5 467.5,-210.5 467.5,-191.5 387.5,-191.5"/>
<text text-anchor="middle" x="427.5" y="-198.5" font-family="Helvetica,sans-Serif" font-size="10.00">PeerTablePriv</text>
</a>
</g>
</g>
<!-- Node9&#45;&gt;Node7 -->
<g id="edge8" class="edge"><title>Node9&#45;&gt;Node7</title>
<path fill="none" stroke="#9a32cd" stroke-dasharray="5,2" d="M396.796,-187.604C364.83,-174.698 315.61,-154.827 287.712,-143.564"/>
<polygon fill="#9a32cd" stroke="#9a32cd" points="395.537,-190.87 406.12,-191.369 398.158,-184.379 395.537,-190.87"/>
<text text-anchor="middle" x="367" y="-165" font-family="Helvetica,sans-Serif" font-size="10.00"> priv</text>
</g>
<!-- Node10 -->
<g id="node10" class="node"><title>Node10</title>
<g id="a_node10"><a xlink:href="class_options_model.html" target="_top" xlink:title="Interface from Qt to configuration data structure for Anoncoin client. ">
<polygon fill="white" stroke="black" points="160.5,-258.5 160.5,-277.5 238.5,-277.5 238.5,-258.5 160.5,-258.5"/>
<text text-anchor="middle" x="199.5" y="-265.5" font-family="Helvetica,sans-Serif" font-size="10.00">OptionsModel</text>
</a>
</g>
</g>
<!-- Node10&#45;&gt;Node5 -->
<g id="edge10" class="edge"><title>Node10&#45;&gt;Node5</title>
<path fill="none" stroke="#9a32cd" stroke-dasharray="5,2" d="M185.344,-250.27C174.621,-237.597 160.324,-220.701 151.8,-210.627"/>
<polygon fill="#9a32cd" stroke="#9a32cd" points="182.951,-252.861 192.082,-258.234 188.295,-248.339 182.951,-252.861"/>
<text text-anchor="middle" x="207" y="-232" font-family="Helvetica,sans-Serif" font-size="10.00"> optionsModel</text>
</g>
<!-- Node11 -->
<g id="node11" class="node"><title>Node11</title>
<polygon fill="white" stroke="#bfbfbf" points="147.5,-315.5 147.5,-334.5 251.5,-334.5 251.5,-315.5 147.5,-315.5"/>
<text text-anchor="middle" x="199.5" y="-322.5" font-family="Helvetica,sans-Serif" font-size="10.00">QAbstractListModel</text>
</g>
<!-- Node11&#45;&gt;Node10 -->
<g id="edge11" class="edge"><title>Node11&#45;&gt;Node10</title>
<path fill="none" stroke="midnightblue" d="M199.5,-305.117C199.5,-295.817 199.5,-285.056 199.5,-277.715"/>
<polygon fill="midnightblue" stroke="midnightblue" points="196,-305.406 199.5,-315.406 203,-305.406 196,-305.406"/>
</g>
</g>
</svg>
