<?xml version="1.0" encoding="UTF-8" standalone="no"?>
<!DOCTYPE svg PUBLIC "-//W3C//DTD SVG 1.1//EN"
 "http://www.w3.org/Graphics/SVG/1.1/DTD/svg11.dtd">
<!-- Generated by graphviz version 2.38.0 (20140413.2041)
 -->
<!-- Title: WalletModel::isSpent Pages: 1 -->
<svg width="1565pt" height="380pt"
 viewBox="0.00 0.00 1565.00 379.50" xmlns="http://www.w3.org/2000/svg" xmlns:xlink="http://www.w3.org/1999/xlink">
<g id="graph0" class="graph" transform="scale(1 1) rotate(0) translate(4 375.5)">
<title>WalletModel::isSpent</title>
<polygon fill="white" stroke="none" points="-4,4 -4,-375.5 1561,-375.5 1561,4 -4,4"/>
<!-- Node1 -->
<g id="node1" class="node"><title>Node1</title>
<polygon fill="#bfbfbf" stroke="black" points="0,-272.5 0,-291.5 110,-291.5 110,-272.5 0,-272.5"/>
<text text-anchor="middle" x="55" y="-279.5" font-family="Helvetica,sans-Serif" font-size="10.00">WalletModel::isSpent</text>
</g>
<!-- Node2 -->
<g id="node2" class="node"><title>Node2</title>
<g id="a_node2"><a xlink:href="class_coin_control_dialog.html#a4fc60e89b097952ff22dc0f9c58c87d9" target="_top" xlink:title="CoinControlDialog::\lupdateLabels">
<polygon fill="white" stroke="black" points="146,-267 146,-297 249,-297 249,-267 146,-267"/>
<text text-anchor="start" x="154" y="-285" font-family="Helvetica,sans-Serif" font-size="10.00">CoinControlDialog::</text>
<text text-anchor="middle" x="197.5" y="-274" font-family="Helvetica,sans-Serif" font-size="10.00">updateLabels</text>
</a>
</g>
</g>
<!-- Node1&#45;&gt;Node2 -->
<g id="edge1" class="edge"><title>Node1&#45;&gt;Node2</title>
<path fill="none" stroke="midnightblue" d="M120.486,-282C128.891,-282 137.407,-282 145.548,-282"/>
<polygon fill="midnightblue" stroke="midnightblue" points="120.321,-278.5 110.321,-282 120.321,-285.5 120.321,-278.5"/>
</g>
<!-- Node3 -->
<g id="node3" class="node"><title>Node3</title>
<g id="a_node3"><a xlink:href="class_coin_control_dialog.html#a4c34a48574814089c54f763a22f5317a" target="_top" xlink:title="CoinControlDialog::\lsetModel">
<polygon fill="white" stroke="black" points="308.5,-243 308.5,-273 411.5,-273 411.5,-243 308.5,-243"/>
<text text-anchor="start" x="316.5" y="-261" font-family="Helvetica,sans-Serif" font-size="10.00">CoinControlDialog::</text>
<text text-anchor="middle" x="360" y="-250" font-family="Helvetica,sans-Serif" font-size="10.00">setModel</text>
</a>
</g>
</g>
<!-- Node2&#45;&gt;Node3 -->
<g id="edge2" class="edge"><title>Node2&#45;&gt;Node3</title>
<path fill="none" stroke="midnightblue" d="M259.188,-272.925C275.371,-270.505 292.685,-267.916 308.272,-265.586"/>
<polygon fill="midnightblue" stroke="midnightblue" points="258.656,-269.466 249.283,-274.406 259.691,-276.389 258.656,-269.466"/>
</g>
<!-- Node6 -->
<g id="node6" class="node"><title>Node6</title>
<g id="a_node6"><a xlink:href="class_coin_control_dialog.html#ae106a71c5b87ac8bea8c52e7c4f4a129" target="_top" xlink:title="CoinControlDialog::\lbuttonSelectAllClicked">
<polygon fill="white" stroke="black" points="302,-341 302,-371 418,-371 418,-341 302,-341"/>
<text text-anchor="start" x="310" y="-359" font-family="Helvetica,sans-Serif" font-size="10.00">CoinControlDialog::</text>
<text text-anchor="middle" x="360" y="-348" font-family="Helvetica,sans-Serif" font-size="10.00">buttonSelectAllClicked</text>
</a>
</g>
</g>
<!-- Node2&#45;&gt;Node6 -->
<g id="edge5" class="edge"><title>Node2&#45;&gt;Node6</title>
<path fill="none" stroke="midnightblue" d="M231.337,-302.553C247.185,-311.962 266.693,-322.811 285,-331 292.922,-334.544 301.509,-337.878 309.931,-340.886"/>
<polygon fill="midnightblue" stroke="midnightblue" points="232.838,-299.372 222.465,-297.211 229.227,-305.368 232.838,-299.372"/>
</g>
<!-- Node8 -->
<g id="node8" class="node"><title>Node8</title>
<g id="a_node8"><a xlink:href="class_coin_control_dialog.html#ac3c37dabd83f71d9c96bf5567fe85234" target="_top" xlink:title="CoinControlDialog::\lviewItemChanged">
<polygon fill="white" stroke="black" points="308.5,-292 308.5,-322 411.5,-322 411.5,-292 308.5,-292"/>
<text text-anchor="start" x="316.5" y="-310" font-family="Helvetica,sans-Serif" font-size="10.00">CoinControlDialog::</text>
<text text-anchor="middle" x="360" y="-299" font-family="Helvetica,sans-Serif" font-size="10.00">viewItemChanged</text>
</a>
</g>
</g>
<!-- Node2&#45;&gt;Node8 -->
<g id="edge7" class="edge"><title>Node2&#45;&gt;Node8</title>
<path fill="none" stroke="midnightblue" d="M259.188,-291.453C275.371,-293.974 292.685,-296.671 308.272,-299.098"/>
<polygon fill="midnightblue" stroke="midnightblue" points="259.703,-287.991 249.283,-289.91 258.625,-294.908 259.703,-287.991"/>
</g>
<!-- Node9 -->
<g id="node9" class="node"><title>Node9</title>
<g id="a_node9"><a xlink:href="class_send_coins_dialog.html#ae4f429aabcaf309aa314b90049be2a74" target="_top" xlink:title="SendCoinsDialog::coinControl\lUpdateLabels">
<polygon fill="white" stroke="black" points="285,-171 285,-201 435,-201 435,-171 285,-171"/>
<text text-anchor="start" x="293" y="-189" font-family="Helvetica,sans-Serif" font-size="10.00">SendCoinsDialog::coinControl</text>
<text text-anchor="middle" x="360" y="-178" font-family="Helvetica,sans-Serif" font-size="10.00">UpdateLabels</text>
</a>
</g>
</g>
<!-- Node2&#45;&gt;Node9 -->
<g id="edge9" class="edge"><title>Node2&#45;&gt;Node9</title>
<path fill="none" stroke="midnightblue" d="M232.87,-261.442C263.131,-243.342 306.499,-217.403 333.687,-201.14"/>
<polygon fill="midnightblue" stroke="midnightblue" points="230.717,-258.652 223.932,-266.789 234.31,-264.659 230.717,-258.652"/>
</g>
<!-- Node4 -->
<g id="node4" class="node"><title>Node4</title>
<g id="a_node4"><a xlink:href="class_send_coins_dialog.html#a59d757d9e4bea5b380eb480fd79cfb49" target="_top" xlink:title="SendCoinsDialog::coinControl\lButtonClicked">
<polygon fill="white" stroke="black" points="472,-257 472,-287 622,-287 622,-257 472,-257"/>
<text text-anchor="start" x="480" y="-275" font-family="Helvetica,sans-Serif" font-size="10.00">SendCoinsDialog::coinControl</text>
<text text-anchor="middle" x="547" y="-264" font-family="Helvetica,sans-Serif" font-size="10.00">ButtonClicked</text>
</a>
</g>
</g>
<!-- Node3&#45;&gt;Node4 -->
<g id="edge3" class="edge"><title>Node3&#45;&gt;Node4</title>
<path fill="none" stroke="midnightblue" d="M421.841,-262.604C437.851,-263.816 455.298,-265.136 471.919,-266.394"/>
<polygon fill="midnightblue" stroke="midnightblue" points="421.788,-259.09 411.552,-261.826 421.259,-266.07 421.788,-259.09"/>
</g>
<!-- Node5 -->
<g id="node5" class="node"><title>Node5</title>
<g id="a_node5"><a xlink:href="class_send_coins_dialog.html#a0df5bc29d1df68eda44826651afc595f" target="_top" xlink:title="SendCoinsDialog::SendCoins\lDialog">
<polygon fill="white" stroke="black" points="1037.5,-203 1037.5,-233 1185.5,-233 1185.5,-203 1037.5,-203"/>
<text text-anchor="start" x="1045.5" y="-221" font-family="Helvetica,sans-Serif" font-size="10.00">SendCoinsDialog::SendCoins</text>
<text text-anchor="middle" x="1111.5" y="-210" font-family="Helvetica,sans-Serif" font-size="10.00">Dialog</text>
</a>
</g>
</g>
<!-- Node4&#45;&gt;Node5 -->
<g id="edge4" class="edge"><title>Node4&#45;&gt;Node5</title>
<path fill="none" stroke="midnightblue" d="M632.161,-264.616C721.303,-256.701 866.128,-243.57 991,-231 1005.95,-229.495 1021.94,-227.808 1037.21,-226.161"/>
<polygon fill="midnightblue" stroke="midnightblue" points="631.758,-261.138 622.107,-265.508 632.377,-268.111 631.758,-261.138"/>
</g>
<!-- Node7 -->
<g id="node7" class="node"><title>Node7</title>
<g id="a_node7"><a xlink:href="class_coin_control_dialog.html#a0945e59c25f956fdab199dbaf252eff5" target="_top" xlink:title="CoinControlDialog::\lCoinControlDialog">
<polygon fill="white" stroke="black" points="495.5,-323 495.5,-353 598.5,-353 598.5,-323 495.5,-323"/>
<text text-anchor="start" x="503.5" y="-341" font-family="Helvetica,sans-Serif" font-size="10.00">CoinControlDialog::</text>
<text text-anchor="middle" x="547" y="-330" font-family="Helvetica,sans-Serif" font-size="10.00">CoinControlDialog</text>
</a>
</g>
</g>
<!-- Node6&#45;&gt;Node7 -->
<g id="edge6" class="edge"><title>Node6&#45;&gt;Node7</title>
<path fill="none" stroke="midnightblue" d="M428.062,-349.475C450.299,-347.311 474.663,-344.941 495.443,-342.919"/>
<polygon fill="midnightblue" stroke="midnightblue" points="427.63,-346 418.016,-350.453 428.308,-352.968 427.63,-346"/>
</g>
<!-- Node8&#45;&gt;Node7 -->
<g id="edge8" class="edge"><title>Node8&#45;&gt;Node7</title>
<path fill="none" stroke="midnightblue" d="M421.542,-317.145C445.363,-321.137 472.408,-325.668 495.188,-329.486"/>
<polygon fill="midnightblue" stroke="midnightblue" points="421.993,-313.672 411.552,-315.471 420.836,-320.575 421.993,-313.672"/>
</g>
<!-- Node9&#45;&gt;Node4 -->
<g id="edge36" class="edge"><title>Node9&#45;&gt;Node4</title>
<path fill="none" stroke="midnightblue" d="M398.11,-205.949C419.245,-217.042 446.348,-230.822 471,-242 482.367,-247.154 494.896,-252.351 506.404,-256.937"/>
<polygon fill="midnightblue" stroke="midnightblue" points="399.624,-202.79 389.146,-201.217 396.356,-208.981 399.624,-202.79"/>
</g>
<!-- Node10 -->
<g id="node10" class="node"><title>Node10</title>
<g id="a_node10"><a xlink:href="class_send_coins_dialog.html#a73a6c1b1850a334ee652ac167713a2aa" target="_top" xlink:title="SendCoinsDialog::setModel">
<polygon fill="white" stroke="black" points="659,-31.5 659,-50.5 799,-50.5 799,-31.5 659,-31.5"/>
<text text-anchor="middle" x="729" y="-38.5" font-family="Helvetica,sans-Serif" font-size="10.00">SendCoinsDialog::setModel</text>
</a>
</g>
</g>
<!-- Node9&#45;&gt;Node10 -->
<g id="edge10" class="edge"><title>Node9&#45;&gt;Node10</title>
<path fill="none" stroke="midnightblue" d="M389.48,-165.092C411.003,-150.063 441.743,-130.202 471,-117 510.76,-99.0591 630.143,-66.6292 691.185,-50.5587"/>
<polygon fill="midnightblue" stroke="midnightblue" points="387.276,-162.364 381.137,-170.998 391.321,-168.077 387.276,-162.364"/>
</g>
<!-- Node13 -->
<g id="node13" class="node"><title>Node13</title>
<g id="a_node13"><a xlink:href="class_send_coins_dialog.html#a2cab7cf9ea5040b9e2189297f7d3c764" target="_top" xlink:title="SendCoinsDialog::on\l_sendButton_clicked">
<polygon fill="white" stroke="black" points="1247.5,-216 1247.5,-246 1357.5,-246 1357.5,-216 1247.5,-216"/>
<text text-anchor="start" x="1255.5" y="-234" font-family="Helvetica,sans-Serif" font-size="10.00">SendCoinsDialog::on</text>
<text text-anchor="middle" x="1302.5" y="-223" font-family="Helvetica,sans-Serif" font-size="10.00">_sendButton_clicked</text>
</a>
</g>
</g>
<!-- Node9&#45;&gt;Node13 -->
<g id="edge13" class="edge"><title>Node9&#45;&gt;Node13</title>
<path fill="none" stroke="midnightblue" d="M445.248,-196.091C571.465,-210.527 817.238,-235.996 1027,-242 1102.08,-244.149 1120.99,-245.9 1196,-242 1212.74,-241.13 1230.9,-239.488 1247.37,-237.734"/>
<polygon fill="midnightblue" stroke="midnightblue" points="445.594,-192.608 435.26,-194.943 444.795,-199.562 445.594,-192.608"/>
</g>
<!-- Node14 -->
<g id="node14" class="node"><title>Node14</title>
<g id="a_node14"><a xlink:href="class_send_coins_dialog.html#a3d680a76b967641115c6ff2fa83fb62a" target="_top" xlink:title="SendCoinsDialog::addEntry">
<polygon fill="white" stroke="black" points="659.5,-145.5 659.5,-164.5 798.5,-164.5 798.5,-145.5 659.5,-145.5"/>
<text text-anchor="middle" x="729" y="-152.5" font-family="Helvetica,sans-Serif" font-size="10.00">SendCoinsDialog::addEntry</text>
</a>
</g>
</g>
<!-- Node9&#45;&gt;Node14 -->
<g id="edge14" class="edge"><title>Node9&#45;&gt;Node14</title>
<path fill="none" stroke="midnightblue" d="M445.084,-180.187C496.496,-176.482 563.583,-171.379 623,-166 634.774,-164.934 647.28,-163.707 659.403,-162.468"/>
<polygon fill="midnightblue" stroke="midnightblue" points="444.741,-176.702 435.017,-180.909 445.242,-183.684 444.741,-176.702"/>
</g>
<!-- Node25 -->
<g id="node25" class="node"><title>Node25</title>
<g id="a_node25"><a xlink:href="class_send_coins_dialog.html#a3b834c739f7d02d8086a2bf58525c5f0" target="_top" xlink:title="SendCoinsDialog::updateTabs\lAndLabels">
<polygon fill="white" stroke="black" points="471,-127 471,-157 623,-157 623,-127 471,-127"/>
<text text-anchor="start" x="479" y="-145" font-family="Helvetica,sans-Serif" font-size="10.00">SendCoinsDialog::updateTabs</text>
<text text-anchor="middle" x="547" y="-134" font-family="Helvetica,sans-Serif" font-size="10.00">AndLabels</text>
</a>
</g>
</g>
<!-- Node9&#45;&gt;Node25 -->
<g id="edge29" class="edge"><title>Node9&#45;&gt;Node25</title>
<path fill="none" stroke="midnightblue" d="M434.062,-168.623C450.184,-164.789 467.13,-160.758 482.822,-157.026"/>
<polygon fill="midnightblue" stroke="midnightblue" points="433.068,-165.262 424.149,-170.981 434.688,-172.072 433.068,-165.262"/>
</g>
<!-- Node26 -->
<g id="node26" class="node"><title>Node26</title>
<g id="a_node26"><a xlink:href="class_send_coins_dialog.html#af13ddd00abec4f060632d887b5e838a3" target="_top" xlink:title="SendCoinsDialog::coinControl\lFeatureChanged">
<polygon fill="white" stroke="black" points="472,-29 472,-59 622,-59 622,-29 472,-29"/>
<text text-anchor="start" x="480" y="-47" font-family="Helvetica,sans-Serif" font-size="10.00">SendCoinsDialog::coinControl</text>
<text text-anchor="middle" x="547" y="-36" font-family="Helvetica,sans-Serif" font-size="10.00">FeatureChanged</text>
</a>
</g>
</g>
<!-- Node9&#45;&gt;Node26 -->
<g id="edge34" class="edge"><title>Node9&#45;&gt;Node26</title>
<path fill="none" stroke="midnightblue" d="M380.805,-163.423C401.632,-140.615 436.163,-105.36 471,-81 483.018,-72.5966 497.227,-65.0648 510.028,-59.0248"/>
<polygon fill="midnightblue" stroke="midnightblue" points="378.13,-161.163 374.031,-170.933 383.328,-165.851 378.13,-161.163"/>
</g>
<!-- Node11 -->
<g id="node11" class="node"><title>Node11</title>
<g id="a_node11"><a xlink:href="class_wallet_view.html#a0a37ff693a4f9c1e5ddc23f9cd3913be" target="_top" xlink:title="Set the wallet model. ">
<polygon fill="white" stroke="black" points="843,-6.5 843,-25.5 983,-25.5 983,-6.5 843,-6.5"/>
<text text-anchor="middle" x="913" y="-13.5" font-family="Helvetica,sans-Serif" font-size="10.00">WalletView::setWalletModel</text>
</a>
</g>
</g>
<!-- Node10&#45;&gt;Node11 -->
<g id="edge11" class="edge"><title>Node10&#45;&gt;Node11</title>
<path fill="none" stroke="midnightblue" d="M809.285,-30.1092C820.508,-28.5676 831.973,-26.9927 842.981,-25.4806"/>
<polygon fill="midnightblue" stroke="midnightblue" points="808.497,-26.6846 799.066,-31.5129 809.449,-33.6194 808.497,-26.6846"/>
</g>
<!-- Node12 -->
<g id="node12" class="node"><title>Node12</title>
<g id="a_node12"><a xlink:href="class_wallet_frame.html#aa199c3f27654199d84c365cf86167d86" target="_top" xlink:title="WalletFrame::addWallet">
<polygon fill="white" stroke="black" points="1050,-0.5 1050,-19.5 1173,-19.5 1173,-0.5 1050,-0.5"/>
<text text-anchor="middle" x="1111.5" y="-7.5" font-family="Helvetica,sans-Serif" font-size="10.00">WalletFrame::addWallet</text>
</a>
</g>
</g>
<!-- Node11&#45;&gt;Node12 -->
<g id="edge12" class="edge"><title>Node11&#45;&gt;Node12</title>
<path fill="none" stroke="midnightblue" d="M993.089,-13.5851C1012,-13.0075 1031.91,-12.3998 1049.84,-11.8522"/>
<polygon fill="midnightblue" stroke="midnightblue" points="992.891,-10.0894 983.002,-13.8931 993.104,-17.0861 992.891,-10.0894"/>
</g>
<!-- Node14&#45;&gt;Node5 -->
<g id="edge15" class="edge"><title>Node14&#45;&gt;Node5</title>
<path fill="none" stroke="midnightblue" d="M808.741,-165.177C860.638,-172.2 930.026,-182.194 991,-193 1007.7,-195.959 1025.63,-199.51 1042.39,-202.994"/>
<polygon fill="midnightblue" stroke="midnightblue" points="808.98,-161.677 798.602,-163.812 808.046,-168.615 808.98,-161.677"/>
</g>
<!-- Node15 -->
<g id="node15" class="node"><title>Node15</title>
<g id="a_node15"><a xlink:href="class_send_coins_dialog.html#a127bddff45f49ff5e6e263efe218ae26" target="_top" xlink:title="SendCoinsDialog::clear">
<polygon fill="white" stroke="black" points="852.5,-126.5 852.5,-145.5 973.5,-145.5 973.5,-126.5 852.5,-126.5"/>
<text text-anchor="middle" x="913" y="-133.5" font-family="Helvetica,sans-Serif" font-size="10.00">SendCoinsDialog::clear</text>
</a>
</g>
</g>
<!-- Node14&#45;&gt;Node15 -->
<g id="edge16" class="edge"><title>Node14&#45;&gt;Node15</title>
<path fill="none" stroke="midnightblue" d="M808.631,-146.791C823.327,-145.257 838.461,-143.677 852.462,-142.216"/>
<polygon fill="midnightblue" stroke="midnightblue" points="808.13,-143.325 798.547,-147.844 808.856,-150.287 808.13,-143.325"/>
</g>
<!-- Node18 -->
<g id="node18" class="node"><title>Node18</title>
<g id="a_node18"><a xlink:href="class_send_coins_dialog.html#aabd82a79bd2358493f36425f1d62136b" target="_top" xlink:title="SendCoinsDialog::removeEntry">
<polygon fill="white" stroke="black" points="835,-202.5 835,-221.5 991,-221.5 991,-202.5 835,-202.5"/>
<text text-anchor="middle" x="913" y="-209.5" font-family="Helvetica,sans-Serif" font-size="10.00">SendCoinsDialog::removeEntry</text>
</a>
</g>
</g>
<!-- Node14&#45;&gt;Node18 -->
<g id="edge21" class="edge"><title>Node14&#45;&gt;Node18</title>
<path fill="none" stroke="midnightblue" d="M797.836,-167.499C810.199,-171.229 822.985,-175.239 835,-179 858.385,-186.319 885.781,-194.847 900.776,-202.386"/>
<polygon fill="midnightblue" stroke="midnightblue" points="798.617,-164.08 788.034,-164.578 796.618,-170.788 798.617,-164.08"/>
</g>
<!-- Node19 -->
<g id="node19" class="node"><title>Node19</title>
<g id="a_node19"><a xlink:href="class_send_coins_dialog.html#a920b2dbf121ca3cfac2adc56e96295f8" target="_top" xlink:title="SendCoinsDialog::setAddress">
<polygon fill="white" stroke="black" points="838.5,-88.5 838.5,-107.5 987.5,-107.5 987.5,-88.5 838.5,-88.5"/>
<text text-anchor="middle" x="913" y="-95.5" font-family="Helvetica,sans-Serif" font-size="10.00">SendCoinsDialog::setAddress</text>
</a>
</g>
</g>
<!-- Node14&#45;&gt;Node19 -->
<g id="edge23" class="edge"><title>Node14&#45;&gt;Node19</title>
<path fill="none" stroke="midnightblue" d="M763.854,-141.721C784.28,-133.967 810.927,-124.304 835,-117 846.2,-113.602 858.451,-110.366 869.82,-107.559"/>
<polygon fill="midnightblue" stroke="midnightblue" points="762.451,-138.51 754.365,-145.355 764.955,-145.047 762.451,-138.51"/>
</g>
<!-- Node21 -->
<g id="node21" class="node"><title>Node21</title>
<g id="a_node21"><a xlink:href="class_send_coins_dialog.html#a4440d15ced5d217baaad33a17d56b409" target="_top" xlink:title="SendCoinsDialog::pasteEntry">
<polygon fill="white" stroke="black" points="839.5,-50.5 839.5,-69.5 986.5,-69.5 986.5,-50.5 839.5,-50.5"/>
<text text-anchor="middle" x="913" y="-57.5" font-family="Helvetica,sans-Serif" font-size="10.00">SendCoinsDialog::pasteEntry</text>
</a>
</g>
</g>
<!-- Node14&#45;&gt;Node21 -->
<g id="edge25" class="edge"><title>Node14&#45;&gt;Node21</title>
<path fill="none" stroke="midnightblue" d="M748.1,-138.506C767.998,-121.227 801.596,-94.4908 835,-79 843.244,-75.1768 852.355,-72.0621 861.339,-69.5446"/>
<polygon fill="midnightblue" stroke="midnightblue" points="745.623,-136.024 740.452,-145.271 750.261,-141.267 745.623,-136.024"/>
</g>
<!-- Node15&#45;&gt;Node5 -->
<g id="edge17" class="edge"><title>Node15&#45;&gt;Node5</title>
<path fill="none" stroke="midnightblue" d="M965.886,-148.718C974.553,-151.804 983.24,-155.536 991,-160 1009.81,-170.823 1008.13,-182.283 1027,-193 1033.71,-196.811 1041.06,-200.095 1048.53,-202.912"/>
<polygon fill="midnightblue" stroke="midnightblue" points="966.753,-145.319 956.16,-145.503 964.556,-151.965 966.753,-145.319"/>
</g>
<!-- Node16 -->
<g id="node16" class="node"><title>Node16</title>
<g id="a_node16"><a xlink:href="class_send_coins_dialog.html#a4879553d77d29f522ac92ac04580f4ad" target="_top" xlink:title="SendCoinsDialog::reject">
<polygon fill="white" stroke="black" points="1049.5,-126.5 1049.5,-145.5 1173.5,-145.5 1173.5,-126.5 1049.5,-126.5"/>
<text text-anchor="middle" x="1111.5" y="-133.5" font-family="Helvetica,sans-Serif" font-size="10.00">SendCoinsDialog::reject</text>
</a>
</g>
</g>
<!-- Node15&#45;&gt;Node16 -->
<g id="edge18" class="edge"><title>Node15&#45;&gt;Node16</title>
<path fill="none" stroke="midnightblue" d="M983.76,-136C1005.16,-136 1028.54,-136 1049.33,-136"/>
<polygon fill="midnightblue" stroke="midnightblue" points="983.757,-132.5 973.757,-136 983.757,-139.5 983.757,-132.5"/>
</g>
<!-- Node17 -->
<g id="node17" class="node"><title>Node17</title>
<g id="a_node17"><a xlink:href="class_send_coins_dialog.html#af2185c3d29e43d37c30669f0def46060" target="_top" xlink:title="SendCoinsDialog::accept">
<polygon fill="white" stroke="black" points="1047,-164.5 1047,-183.5 1176,-183.5 1176,-164.5 1047,-164.5"/>
<text text-anchor="middle" x="1111.5" y="-171.5" font-family="Helvetica,sans-Serif" font-size="10.00">SendCoinsDialog::accept</text>
</a>
</g>
</g>
<!-- Node15&#45;&gt;Node17 -->
<g id="edge19" class="edge"><title>Node15&#45;&gt;Node17</title>
<path fill="none" stroke="midnightblue" d="M973.412,-147.489C1001.45,-152.911 1034.52,-159.306 1061.15,-164.456"/>
<polygon fill="midnightblue" stroke="midnightblue" points="973.814,-144.002 963.332,-145.54 972.485,-150.875 973.814,-144.002"/>
</g>
<!-- Node17&#45;&gt;Node13 -->
<g id="edge20" class="edge"><title>Node17&#45;&gt;Node13</title>
<path fill="none" stroke="midnightblue" d="M1168.91,-185.849C1178.01,-188.044 1187.3,-190.455 1196,-193 1218.61,-199.617 1243.41,-208.468 1263.29,-215.963"/>
<polygon fill="midnightblue" stroke="midnightblue" points="1169.67,-182.433 1159.13,-183.555 1168.07,-189.247 1169.67,-182.433"/>
</g>
<!-- Node18&#45;&gt;Node14 -->
<g id="edge22" class="edge"><title>Node18&#45;&gt;Node14</title>
<path fill="none" stroke="midnightblue" d="M842.938,-199.479C840.257,-198.645 837.604,-197.815 835,-197 801.446,-186.498 761.883,-174.045 742.283,-164.529"/>
<polygon fill="midnightblue" stroke="midnightblue" points="842.134,-202.893 852.721,-202.496 844.197,-196.204 842.134,-202.893"/>
</g>
<!-- Node20 -->
<g id="node20" class="node"><title>Node20</title>
<g id="a_node20"><a xlink:href="class_wallet_view.html#a2a70c2b00b097dd7b83b6915bb037ea3" target="_top" xlink:title="Switch to send coins page. ">
<polygon fill="white" stroke="black" points="1030,-88.5 1030,-107.5 1193,-107.5 1193,-88.5 1030,-88.5"/>
<text text-anchor="middle" x="1111.5" y="-95.5" font-family="Helvetica,sans-Serif" font-size="10.00">WalletView::gotoSendCoinsPage</text>
</a>
</g>
</g>
<!-- Node19&#45;&gt;Node20 -->
<g id="edge24" class="edge"><title>Node19&#45;&gt;Node20</title>
<path fill="none" stroke="midnightblue" d="M997.801,-98C1008.4,-98 1019.22,-98 1029.77,-98"/>
<polygon fill="midnightblue" stroke="midnightblue" points="997.728,-94.5001 987.728,-98 997.728,-101.5 997.728,-94.5001"/>
</g>
<!-- Node22 -->
<g id="node22" class="node"><title>Node22</title>
<g id="a_node22"><a xlink:href="class_send_coins_dialog.html#a82ed6a3badadaa523415e1924ebd292a" target="_top" xlink:title="SendCoinsDialog::handlePayment\lRequest">
<polygon fill="white" stroke="black" points="1027,-39 1027,-69 1196,-69 1196,-39 1027,-39"/>
<text text-anchor="start" x="1035" y="-57" font-family="Helvetica,sans-Serif" font-size="10.00">SendCoinsDialog::handlePayment</text>
<text text-anchor="middle" x="1111.5" y="-46" font-family="Helvetica,sans-Serif" font-size="10.00">Request</text>
</a>
</g>
</g>
<!-- Node21&#45;&gt;Node22 -->
<g id="edge26" class="edge"><title>Node21&#45;&gt;Node22</title>
<path fill="none" stroke="midnightblue" d="M996.871,-57.4696C1006.81,-57.1662 1016.96,-56.8562 1026.91,-56.5524"/>
<polygon fill="midnightblue" stroke="midnightblue" points="996.5,-53.9792 986.611,-57.7829 996.713,-60.9759 996.5,-53.9792"/>
</g>
<!-- Node23 -->
<g id="node23" class="node"><title>Node23</title>
<g id="a_node23"><a xlink:href="class_wallet_view.html#a0ae21d91a9d7755026ce2a6846cef68d" target="_top" xlink:title="WalletView::handlePayment\lRequest">
<polygon fill="white" stroke="black" points="1232,-39 1232,-69 1373,-69 1373,-39 1232,-39"/>
<text text-anchor="start" x="1240" y="-57" font-family="Helvetica,sans-Serif" font-size="10.00">WalletView::handlePayment</text>
<text text-anchor="middle" x="1302.5" y="-46" font-family="Helvetica,sans-Serif" font-size="10.00">Request</text>
</a>
</g>
</g>
<!-- Node22&#45;&gt;Node23 -->
<g id="edge27" class="edge"><title>Node22&#45;&gt;Node23</title>
<path fill="none" stroke="midnightblue" d="M1206.34,-54C1214.98,-54 1223.62,-54 1231.99,-54"/>
<polygon fill="midnightblue" stroke="midnightblue" points="1206.22,-50.5001 1196.22,-54 1206.22,-57.5001 1206.22,-50.5001"/>
</g>
<!-- Node24 -->
<g id="node24" class="node"><title>Node24</title>
<g id="a_node24"><a xlink:href="class_wallet_frame.html#aa8c5b10f2240df164795619ca41c619c" target="_top" xlink:title="WalletFrame::handlePayment\lRequest">
<polygon fill="white" stroke="black" points="1409,-39 1409,-69 1557,-69 1557,-39 1409,-39"/>
<text text-anchor="start" x="1417" y="-57" font-family="Helvetica,sans-Serif" font-size="10.00">WalletFrame::handlePayment</text>
<text text-anchor="middle" x="1483" y="-46" font-family="Helvetica,sans-Serif" font-size="10.00">Request</text>
</a>
</g>
</g>
<!-- Node23&#45;&gt;Node24 -->
<g id="edge28" class="edge"><title>Node23&#45;&gt;Node24</title>
<path fill="none" stroke="midnightblue" d="M1383.03,-54C1391.62,-54 1400.33,-54 1408.83,-54"/>
<polygon fill="midnightblue" stroke="midnightblue" points="1383.02,-50.5001 1373.02,-54 1383.02,-57.5001 1383.02,-50.5001"/>
</g>
<!-- Node25&#45;&gt;Node14 -->
<g id="edge31" class="edge"><title>Node25&#45;&gt;Node14</title>
<path fill="none" stroke="midnightblue" d="M633.274,-148.159C642.039,-148.792 650.864,-149.429 659.415,-150.047"/>
<polygon fill="midnightblue" stroke="midnightblue" points="633.259,-144.649 623.033,-147.419 632.755,-151.63 633.259,-144.649"/>
</g>
<!-- Node25&#45;&gt;Node15 -->
<g id="edge30" class="edge"><title>Node25&#45;&gt;Node15</title>
<path fill="none" stroke="midnightblue" d="M633.353,-136.92C642.014,-136.544 650.68,-136.225 659,-136 725.191,-134.212 801.158,-134.53 852.435,-135.094"/>
<polygon fill="midnightblue" stroke="midnightblue" points="633.04,-133.43 623.21,-137.384 633.36,-140.423 633.04,-133.43"/>
</g>
<!-- Node25&#45;&gt;Node18 -->
<g id="edge32" class="edge"><title>Node25&#45;&gt;Node18</title>
<path fill="none" stroke="midnightblue" d="M604.844,-159.944C622.116,-164.974 641.228,-170.121 659,-174 717.474,-186.762 784.488,-196.617 834.849,-203.09"/>
<polygon fill="midnightblue" stroke="midnightblue" points="605.493,-156.487 594.911,-157.007 603.508,-163.199 605.493,-156.487"/>
</g>
<!-- Node25&#45;&gt;Node21 -->
<g id="edge33" class="edge"><title>Node25&#45;&gt;Node21</title>
<path fill="none" stroke="midnightblue" d="M624.588,-124.747C699.205,-107.937 809.899,-83.0009 869.803,-69.506"/>
<polygon fill="midnightblue" stroke="midnightblue" points="623.75,-121.348 614.763,-126.96 625.288,-128.177 623.75,-121.348"/>
</g>
<!-- Node26&#45;&gt;Node10 -->
<g id="edge35" class="edge"><title>Node26&#45;&gt;Node10</title>
<path fill="none" stroke="midnightblue" d="M632.252,-42.5958C641.153,-42.4475 650.13,-42.2978 658.832,-42.1528"/>
<polygon fill="midnightblue" stroke="midnightblue" points="632.192,-39.0962 622.252,-42.7625 632.309,-46.0952 632.192,-39.0962"/>
</g>
</g>
</svg>
