<?xml version="1.0" encoding="UTF-8" standalone="no"?>
<!DOCTYPE svg PUBLIC "-//W3C//DTD SVG 1.1//EN"
 "http://www.w3.org/Graphics/SVG/1.1/DTD/svg11.dtd">
<!-- Generated by graphviz version 2.38.0 (20140413.2041)
 -->
<!-- Title: Ui_SignVerifyMessageDialog::retranslateUi Pages: 1 -->
<svg width="509pt" height="39pt"
 viewBox="0.00 0.00 509.00 39.00" xmlns="http://www.w3.org/2000/svg" xmlns:xlink="http://www.w3.org/1999/xlink">
<g id="graph0" class="graph" transform="scale(1 1) rotate(0) translate(4 35)">
<title>Ui_SignVerifyMessageDialog::retranslateUi</title>
<polygon fill="white" stroke="none" points="-4,4 -4,-35 505,-35 505,4 -4,4"/>
<!-- Node1 -->
<g id="node1" class="node"><title>Node1</title>
<polygon fill="#bfbfbf" stroke="black" points="0,-0.5 0,-30.5 146,-30.5 146,-0.5 0,-0.5"/>
<text text-anchor="start" x="8" y="-18.5" font-family="Helvetica,sans-Serif" font-size="10.00">Ui_SignVerifyMessageDialog</text>
<text text-anchor="middle" x="73" y="-7.5" font-family="Helvetica,sans-Serif" font-size="10.00">::retranslateUi</text>
</g>
<!-- Node2 -->
<g id="node2" class="node"><title>Node2</title>
<g id="a_node2"><a xlink:href="class_ui___sign_verify_message_dialog.html#ab2c5ab3f80600be42656f693b73e75b0" target="_top" xlink:title="Ui_SignVerifyMessageDialog\l::setupUi">
<polygon fill="white" stroke="black" points="182,-0.5 182,-30.5 328,-30.5 328,-0.5 182,-0.5"/>
<text text-anchor="start" x="190" y="-18.5" font-family="Helvetica,sans-Serif" font-size="10.00">Ui_SignVerifyMessageDialog</text>
<text text-anchor="middle" x="255" y="-7.5" font-family="Helvetica,sans-Serif" font-size="10.00">::setupUi</text>
</a>
</g>
</g>
<!-- Node1&#45;&gt;Node2 -->
<g id="edge1" class="edge"><title>Node1&#45;&gt;Node2</title>
<path fill="none" stroke="midnightblue" d="M156.439,-15.5C164.906,-15.5 173.464,-15.5 181.808,-15.5"/>
<polygon fill="midnightblue" stroke="midnightblue" points="156.176,-12.0001 146.176,-15.5 156.176,-19.0001 156.176,-12.0001"/>
</g>
<!-- Node3 -->
<g id="node3" class="node"><title>Node3</title>
<g id="a_node3"><a xlink:href="class_sign_verify_message_dialog.html#a04d74fa38e87dc6213237567a6528f28" target="_top" xlink:title="SignVerifyMessageDialog\l::SignVerifyMessageDialog">
<polygon fill="white" stroke="black" points="364,-0.5 364,-30.5 501,-30.5 501,-0.5 364,-0.5"/>
<text text-anchor="start" x="372" y="-18.5" font-family="Helvetica,sans-Serif" font-size="10.00">SignVerifyMessageDialog</text>
<text text-anchor="middle" x="432.5" y="-7.5" font-family="Helvetica,sans-Serif" font-size="10.00">::SignVerifyMessageDialog</text>
</a>
</g>
</g>
<!-- Node2&#45;&gt;Node3 -->
<g id="edge2" class="edge"><title>Node2&#45;&gt;Node3</title>
<path fill="none" stroke="midnightblue" d="M338.186,-15.5C346.787,-15.5 355.459,-15.5 363.871,-15.5"/>
<polygon fill="midnightblue" stroke="midnightblue" points="338.142,-12.0001 328.142,-15.5 338.142,-19.0001 338.142,-12.0001"/>
</g>
</g>
</svg>
