<?xml version="1.0" encoding="UTF-8" standalone="no"?>
<!DOCTYPE svg PUBLIC "-//W3C//DTD SVG 1.1//EN"
 "http://www.w3.org/Graphics/SVG/1.1/DTD/svg11.dtd">
<!-- Generated by graphviz version 2.38.0 (20140413.2041)
 -->
<!-- Title: PaymentServer::readPaymentRequest Pages: 1 -->
<svg width="664pt" height="247pt"
 viewBox="0.00 0.00 664.00 247.00" xmlns="http://www.w3.org/2000/svg" xmlns:xlink="http://www.w3.org/1999/xlink">
<g id="graph0" class="graph" transform="scale(1 1) rotate(0) translate(4 243)">
<title>PaymentServer::readPaymentRequest</title>
<polygon fill="white" stroke="none" points="-4,4 -4,-243 660,-243 660,4 -4,4"/>
<!-- Node1 -->
<g id="node1" class="node"><title>Node1</title>
<polygon fill="#bfbfbf" stroke="black" points="0,-153.5 0,-183.5 150,-183.5 150,-153.5 0,-153.5"/>
<text text-anchor="start" x="8" y="-171.5" font-family="Helvetica,sans-Serif" font-size="10.00">PaymentServer::readPayment</text>
<text text-anchor="middle" x="75" y="-160.5" font-family="Helvetica,sans-Serif" font-size="10.00">Request</text>
</g>
<!-- Node2 -->
<g id="node2" class="node"><title>Node2</title>
<g id="a_node2"><a xlink:href="class_payment_request_plus.html#aaa495c136209bac976cc195705a6c509" target="_top" xlink:title="PaymentRequestPlus\l::parse">
<polygon fill="white" stroke="black" points="186,-153.5 186,-183.5 299,-183.5 299,-153.5 186,-153.5"/>
<text text-anchor="start" x="194" y="-171.5" font-family="Helvetica,sans-Serif" font-size="10.00">PaymentRequestPlus</text>
<text text-anchor="middle" x="242.5" y="-160.5" font-family="Helvetica,sans-Serif" font-size="10.00">::parse</text>
</a>
</g>
</g>
<!-- Node1&#45;&gt;Node2 -->
<g id="edge1" class="edge"><title>Node1&#45;&gt;Node2</title>
<path fill="none" stroke="midnightblue" d="M150.037,-168.5C158.603,-168.5 167.295,-168.5 175.74,-168.5"/>
<polygon fill="midnightblue" stroke="midnightblue" points="175.895,-172 185.894,-168.5 175.894,-165 175.895,-172"/>
</g>
<!-- Node3 -->
<g id="node3" class="node"><title>Node3</title>
<g id="a_node3"><a xlink:href="classpayments_1_1_payment_request.html#ae3325b49f6423d3c761233e6a942e7ee" target="_top" xlink:title="payments::PaymentRequest\l::payment_details_version">
<polygon fill="white" stroke="black" points="335.5,-202.5 335.5,-232.5 477.5,-232.5 477.5,-202.5 335.5,-202.5"/>
<text text-anchor="start" x="343.5" y="-220.5" font-family="Helvetica,sans-Serif" font-size="10.00">payments::PaymentRequest</text>
<text text-anchor="middle" x="406.5" y="-209.5" font-family="Helvetica,sans-Serif" font-size="10.00">::payment_details_version</text>
</a>
</g>
</g>
<!-- Node2&#45;&gt;Node3 -->
<g id="edge2" class="edge"><title>Node2&#45;&gt;Node3</title>
<path fill="none" stroke="midnightblue" d="M293.427,-183.601C309.981,-188.608 328.575,-194.232 345.788,-199.439"/>
<polygon fill="midnightblue" stroke="midnightblue" points="345.153,-202.903 355.738,-202.448 347.179,-196.203 345.153,-202.903"/>
</g>
<!-- Node4 -->
<g id="node4" class="node"><title>Node4</title>
<g id="a_node4"><a xlink:href="classpayments_1_1_payment_request.html#a409c3294565d64b32604eec63343a097" target="_top" xlink:title="payments::PaymentRequest\l::serialized_payment_details">
<polygon fill="white" stroke="black" points="335,-153.5 335,-183.5 478,-183.5 478,-153.5 335,-153.5"/>
<text text-anchor="start" x="343" y="-171.5" font-family="Helvetica,sans-Serif" font-size="10.00">payments::PaymentRequest</text>
<text text-anchor="middle" x="406.5" y="-160.5" font-family="Helvetica,sans-Serif" font-size="10.00">::serialized_payment_details</text>
</a>
</g>
</g>
<!-- Node2&#45;&gt;Node4 -->
<g id="edge3" class="edge"><title>Node2&#45;&gt;Node4</title>
<path fill="none" stroke="midnightblue" d="M299.251,-168.5C307.474,-168.5 316.083,-168.5 324.689,-168.5"/>
<polygon fill="midnightblue" stroke="midnightblue" points="324.767,-172 334.767,-168.5 324.767,-165 324.767,-172"/>
</g>
<!-- Node5 -->
<g id="node5" class="node"><title>Node5</title>
<g id="a_node5"><a xlink:href="classpayments_1_1_payment_request.html#a222f0b2cebe5bef9bbdd27e41b41ab4c" target="_top" xlink:title="payments::PaymentRequest\l::Clear">
<polygon fill="white" stroke="black" points="335.5,-104.5 335.5,-134.5 477.5,-134.5 477.5,-104.5 335.5,-104.5"/>
<text text-anchor="start" x="343.5" y="-122.5" font-family="Helvetica,sans-Serif" font-size="10.00">payments::PaymentRequest</text>
<text text-anchor="middle" x="406.5" y="-111.5" font-family="Helvetica,sans-Serif" font-size="10.00">::Clear</text>
</a>
</g>
</g>
<!-- Node2&#45;&gt;Node5 -->
<g id="edge4" class="edge"><title>Node2&#45;&gt;Node5</title>
<path fill="none" stroke="midnightblue" d="M293.427,-153.399C309.981,-148.392 328.575,-142.768 345.788,-137.561"/>
<polygon fill="midnightblue" stroke="midnightblue" points="347.179,-140.797 355.738,-134.552 345.153,-134.097 347.179,-140.797"/>
</g>
<!-- Node6 -->
<g id="node6" class="node"><title>Node6</title>
<g id="a_node6"><a xlink:href="classpayments_1_1_payment_request.html#a468d0df13c43608b8df88dff36a89cb5" target="_top" xlink:title="payments::PaymentRequest\l::has_pki_type">
<polygon fill="white" stroke="black" points="514,-208.5 514,-238.5 656,-238.5 656,-208.5 514,-208.5"/>
<text text-anchor="start" x="522" y="-226.5" font-family="Helvetica,sans-Serif" font-size="10.00">payments::PaymentRequest</text>
<text text-anchor="middle" x="585" y="-215.5" font-family="Helvetica,sans-Serif" font-size="10.00">::has_pki_type</text>
</a>
</g>
</g>
<!-- Node5&#45;&gt;Node6 -->
<g id="edge5" class="edge"><title>Node5&#45;&gt;Node6</title>
<path fill="none" stroke="midnightblue" d="M461.787,-134.565C467.557,-137.363 473.099,-140.649 478,-144.5 500.972,-162.551 490.934,-181.57 514,-199.5 515.772,-200.877 517.628,-202.178 519.548,-203.407"/>
<polygon fill="midnightblue" stroke="midnightblue" points="517.889,-206.489 528.32,-208.345 521.322,-200.39 517.889,-206.489"/>
</g>
<!-- Node7 -->
<g id="node7" class="node"><title>Node7</title>
<g id="a_node7"><a xlink:href="classpayments_1_1_payment_request.html#ac0c246fd8bc59b43274866909e2f7d0e" target="_top" xlink:title="payments::PaymentRequest\l::has_pki_data">
<polygon fill="white" stroke="black" points="514,-159.5 514,-189.5 656,-189.5 656,-159.5 514,-159.5"/>
<text text-anchor="start" x="522" y="-177.5" font-family="Helvetica,sans-Serif" font-size="10.00">payments::PaymentRequest</text>
<text text-anchor="middle" x="585" y="-166.5" font-family="Helvetica,sans-Serif" font-size="10.00">::has_pki_data</text>
</a>
</g>
</g>
<!-- Node5&#45;&gt;Node7 -->
<g id="edge6" class="edge"><title>Node5&#45;&gt;Node7</title>
<path fill="none" stroke="midnightblue" d="M455.729,-134.529C477.521,-141.319 503.442,-149.397 526.261,-156.508"/>
<polygon fill="midnightblue" stroke="midnightblue" points="525.24,-159.856 535.829,-159.489 527.323,-153.173 525.24,-159.856"/>
</g>
<!-- Node8 -->
<g id="node8" class="node"><title>Node8</title>
<g id="a_node8"><a xlink:href="classpayments_1_1_payment_request.html#a2ca7d37905f9d20151a760381a6047d0" target="_top" xlink:title="payments::PaymentRequest\l::has_serialized_payment\l_details">
<polygon fill="white" stroke="black" points="514,-99 514,-140 656,-140 656,-99 514,-99"/>
<text text-anchor="start" x="522" y="-128" font-family="Helvetica,sans-Serif" font-size="10.00">payments::PaymentRequest</text>
<text text-anchor="start" x="522" y="-117" font-family="Helvetica,sans-Serif" font-size="10.00">::has_serialized_payment</text>
<text text-anchor="middle" x="585" y="-106" font-family="Helvetica,sans-Serif" font-size="10.00">_details</text>
</a>
</g>
</g>
<!-- Node5&#45;&gt;Node8 -->
<g id="edge7" class="edge"><title>Node5&#45;&gt;Node8</title>
<path fill="none" stroke="midnightblue" d="M477.511,-119.5C486.089,-119.5 494.907,-119.5 503.622,-119.5"/>
<polygon fill="midnightblue" stroke="midnightblue" points="503.785,-123 513.785,-119.5 503.785,-116 503.785,-123"/>
</g>
<!-- Node9 -->
<g id="node9" class="node"><title>Node9</title>
<g id="a_node9"><a xlink:href="classpayments_1_1_payment_request.html#a0121113b95563ae0541c9ba54949d925" target="_top" xlink:title="payments::PaymentRequest\l::has_signature">
<polygon fill="white" stroke="black" points="514,-49.5 514,-79.5 656,-79.5 656,-49.5 514,-49.5"/>
<text text-anchor="start" x="522" y="-67.5" font-family="Helvetica,sans-Serif" font-size="10.00">payments::PaymentRequest</text>
<text text-anchor="middle" x="585" y="-56.5" font-family="Helvetica,sans-Serif" font-size="10.00">::has_signature</text>
</a>
</g>
</g>
<!-- Node5&#45;&gt;Node9 -->
<g id="edge8" class="edge"><title>Node5&#45;&gt;Node9</title>
<path fill="none" stroke="midnightblue" d="M455.729,-104.471C477.521,-97.6805 503.442,-89.6029 526.261,-82.4924"/>
<polygon fill="midnightblue" stroke="midnightblue" points="527.323,-85.8275 535.829,-79.5108 525.24,-79.1444 527.323,-85.8275"/>
</g>
<!-- Node10 -->
<g id="node10" class="node"><title>Node10</title>
<g id="a_node10"><a xlink:href="classpayments_1_1_payment_request.html#a0685727be1f02889f11f825436cac5b3" target="_top" xlink:title="payments::PaymentRequest\l::mutable_unknown_fields">
<polygon fill="white" stroke="black" points="514,-0.5 514,-30.5 656,-30.5 656,-0.5 514,-0.5"/>
<text text-anchor="start" x="522" y="-18.5" font-family="Helvetica,sans-Serif" font-size="10.00">payments::PaymentRequest</text>
<text text-anchor="middle" x="585" y="-7.5" font-family="Helvetica,sans-Serif" font-size="10.00">::mutable_unknown_fields</text>
</a>
</g>
</g>
<!-- Node5&#45;&gt;Node10 -->
<g id="edge9" class="edge"><title>Node5&#45;&gt;Node10</title>
<path fill="none" stroke="midnightblue" d="M424.509,-104.373C444.681,-87.0508 479.887,-58.723 514,-40.5 517.948,-38.3909 522.112,-36.3943 526.36,-34.5186"/>
<polygon fill="midnightblue" stroke="midnightblue" points="527.859,-37.6857 535.743,-30.6083 525.166,-31.2243 527.859,-37.6857"/>
</g>
</g>
</svg>
