<?xml version="1.0" encoding="UTF-8" standalone="no"?>
<!DOCTYPE svg PUBLIC "-//W3C//DTD SVG 1.1//EN"
 "http://www.w3.org/Graphics/SVG/1.1/DTD/svg11.dtd">
<!-- Generated by graphviz version 2.38.0 (20140413.2041)
 -->
<!-- Title: libzerocoin::AccumulatorProofOfKnowledge::Verify Pages: 1 -->
<svg width="643pt" height="66pt"
 viewBox="0.00 0.00 643.00 66.00" xmlns="http://www.w3.org/2000/svg" xmlns:xlink="http://www.w3.org/1999/xlink">
<g id="graph0" class="graph" transform="scale(1 1) rotate(0) translate(4 62)">
<title>libzerocoin::AccumulatorProofOfKnowledge::Verify</title>
<polygon fill="white" stroke="none" points="-4,4 -4,-62 639,-62 639,4 -4,4"/>
<!-- Node1 -->
<g id="node1" class="node"><title>Node1</title>
<polygon fill="#bfbfbf" stroke="black" points="0,-14 0,-44 132,-44 132,-14 0,-14"/>
<text text-anchor="start" x="8" y="-32" font-family="Helvetica,sans-Serif" font-size="10.00">libzerocoin::Accumulator</text>
<text text-anchor="middle" x="66" y="-21" font-family="Helvetica,sans-Serif" font-size="10.00">ProofOfKnowledge::Verify</text>
</g>
<!-- Node2 -->
<g id="node2" class="node"><title>Node2</title>
<g id="a_node2"><a xlink:href="classlibzerocoin_1_1_coin_spend.html#a9048dabc1be9ef65aeefb41e92e2f53c" target="_top" xlink:title="libzerocoin::CoinSpend\l::Verify">
<polygon fill="white" stroke="black" points="168,-14 168,-44 287,-44 287,-14 168,-14"/>
<text text-anchor="start" x="176" y="-32" font-family="Helvetica,sans-Serif" font-size="10.00">libzerocoin::CoinSpend</text>
<text text-anchor="middle" x="227.5" y="-21" font-family="Helvetica,sans-Serif" font-size="10.00">::Verify</text>
</a>
</g>
</g>
<!-- Node1&#45;&gt;Node2 -->
<g id="edge1" class="edge"><title>Node1&#45;&gt;Node2</title>
<path fill="none" stroke="midnightblue" d="M142.359,-29C150.945,-29 159.599,-29 167.921,-29"/>
<polygon fill="midnightblue" stroke="midnightblue" points="142.335,-25.5001 132.335,-29 142.335,-32.5001 142.335,-25.5001"/>
</g>
<!-- Node3 -->
<g id="node3" class="node"><title>Node3</title>
<g id="a_node3"><a xlink:href="_benchmark_8cpp.html#ad4c256613fa000fd3d3ec247021a6522" target="_top" xlink:title="Test_MintAndSpend">
<polygon fill="white" stroke="black" points="323,-38.5 323,-57.5 430,-57.5 430,-38.5 323,-38.5"/>
<text text-anchor="middle" x="376.5" y="-45.5" font-family="Helvetica,sans-Serif" font-size="10.00">Test_MintAndSpend</text>
</a>
</g>
</g>
<!-- Node2&#45;&gt;Node3 -->
<g id="edge2" class="edge"><title>Node2&#45;&gt;Node3</title>
<path fill="none" stroke="midnightblue" d="M297.119,-37.8691C305.781,-38.9887 314.534,-40.12 322.893,-41.2005"/>
<polygon fill="midnightblue" stroke="midnightblue" points="297.387,-34.3747 287.021,-36.5639 296.489,-41.317 297.387,-34.3747"/>
</g>
<!-- Node6 -->
<g id="node6" class="node"><title>Node6</title>
<g id="a_node6"><a xlink:href="_tutorial_8cpp.html#a297c1339eda300b5818bf669440b3a7d" target="_top" xlink:title="ZerocoinTutorial">
<polygon fill="white" stroke="black" points="332,-0.5 332,-19.5 421,-19.5 421,-0.5 332,-0.5"/>
<text text-anchor="middle" x="376.5" y="-7.5" font-family="Helvetica,sans-Serif" font-size="10.00">ZerocoinTutorial</text>
</a>
</g>
</g>
<!-- Node2&#45;&gt;Node6 -->
<g id="edge5" class="edge"><title>Node2&#45;&gt;Node6</title>
<path fill="none" stroke="midnightblue" d="M297.245,-20.1146C308.96,-18.6004 320.838,-17.0652 331.68,-15.6638"/>
<polygon fill="midnightblue" stroke="midnightblue" points="296.489,-16.683 287.021,-21.4361 297.387,-23.6253 296.489,-16.683"/>
</g>
<!-- Node4 -->
<g id="node4" class="node"><title>Node4</title>
<g id="a_node4"><a xlink:href="_benchmark_8cpp.html#a270b3d0914e20b5c58ab92bc2823c1d1" target="_top" xlink:title="Test_RunAllTests">
<polygon fill="white" stroke="black" points="466,-38.5 466,-57.5 561,-57.5 561,-38.5 466,-38.5"/>
<text text-anchor="middle" x="513.5" y="-45.5" font-family="Helvetica,sans-Serif" font-size="10.00">Test_RunAllTests</text>
</a>
</g>
</g>
<!-- Node3&#45;&gt;Node4 -->
<g id="edge3" class="edge"><title>Node3&#45;&gt;Node4</title>
<path fill="none" stroke="midnightblue" d="M440.194,-48C448.88,-48 457.673,-48 465.993,-48"/>
<polygon fill="midnightblue" stroke="midnightblue" points="440.081,-44.5001 430.081,-48 440.081,-51.5001 440.081,-44.5001"/>
</g>
<!-- Node5 -->
<g id="node5" class="node"><title>Node5</title>
<g id="a_node5"><a xlink:href="_benchmark_8cpp.html#a3c04138a5bfe5d72780bb7e82a18e627" target="_top" xlink:title="main">
<polygon fill="white" stroke="black" points="597,-38.5 597,-57.5 635,-57.5 635,-38.5 597,-38.5"/>
<text text-anchor="middle" x="616" y="-45.5" font-family="Helvetica,sans-Serif" font-size="10.00">main</text>
</a>
</g>
</g>
<!-- Node4&#45;&gt;Node5 -->
<g id="edge4" class="edge"><title>Node4&#45;&gt;Node5</title>
<path fill="none" stroke="midnightblue" d="M571.352,-48C580.636,-48 589.614,-48 596.989,-48"/>
<polygon fill="midnightblue" stroke="midnightblue" points="571.219,-44.5001 561.219,-48 571.219,-51.5001 571.219,-44.5001"/>
</g>
<!-- Node7 -->
<g id="node7" class="node"><title>Node7</title>
<g id="a_node7"><a xlink:href="_tutorial_8cpp.html#a3c04138a5bfe5d72780bb7e82a18e627" target="_top" xlink:title="main">
<polygon fill="white" stroke="black" points="494.5,-0.5 494.5,-19.5 532.5,-19.5 532.5,-0.5 494.5,-0.5"/>
<text text-anchor="middle" x="513.5" y="-7.5" font-family="Helvetica,sans-Serif" font-size="10.00">main</text>
</a>
</g>
</g>
<!-- Node6&#45;&gt;Node7 -->
<g id="edge6" class="edge"><title>Node6&#45;&gt;Node7</title>
<path fill="none" stroke="midnightblue" d="M431.429,-10C453.807,-10 478.261,-10 494.395,-10"/>
<polygon fill="midnightblue" stroke="midnightblue" points="431.331,-6.5001 421.331,-10 431.331,-13.5001 431.331,-6.5001"/>
</g>
</g>
</svg>
