<?xml version="1.0" encoding="UTF-8" standalone="no"?>
<!DOCTYPE svg PUBLIC "-//W3C//DTD SVG 1.1//EN"
 "http://www.w3.org/Graphics/SVG/1.1/DTD/svg11.dtd">
<!-- Generated by graphviz version 2.38.0 (20140413.2041)
 -->
<!-- Title: Ui_SendCoinsEntry Pages: 1 -->
<svg width="287pt" height="241pt"
 viewBox="0.00 0.00 286.50 241.00" xmlns="http://www.w3.org/2000/svg" xmlns:xlink="http://www.w3.org/1999/xlink">
<g id="graph0" class="graph" transform="scale(1 1) rotate(0) translate(4 237)">
<title>Ui_SendCoinsEntry</title>
<polygon fill="white" stroke="none" points="-4,4 -4,-237 282.5,-237 282.5,4 -4,4"/>
<!-- Node1 -->
<g id="node1" class="node"><title>Node1</title>
<polygon fill="#bfbfbf" stroke="black" points="116.5,-0.5 116.5,-19.5 220.5,-19.5 220.5,-0.5 116.5,-0.5"/>
<text text-anchor="middle" x="168.5" y="-7.5" font-family="Helvetica,sans-Serif" font-size="10.00">Ui_SendCoinsEntry</text>
</g>
<!-- Node2 -->
<g id="node2" class="node"><title>Node2</title>
<g id="a_node2"><a xlink:href="class_anoncoin_amount_field.html" target="_top" xlink:title="Widget for entering anoncoin amounts. ">
<polygon fill="white" stroke="black" points="44.5,-89.5 44.5,-108.5 158.5,-108.5 158.5,-89.5 44.5,-89.5"/>
<text text-anchor="middle" x="101.5" y="-96.5" font-family="Helvetica,sans-Serif" font-size="10.00">AnoncoinAmountField</text>
</a>
</g>
</g>
<!-- Node2&#45;&gt;Node1 -->
<g id="edge1" class="edge"><title>Node2&#45;&gt;Node1</title>
<path fill="none" stroke="#9a32cd" stroke-dasharray="5,2" d="M103.381,-79.2877C105.498,-66.4916 109.988,-49.7794 119.5,-38 126.029,-29.9143 135.661,-23.8709 144.66,-19.5752"/>
<polygon fill="#9a32cd" stroke="#9a32cd" points="99.8982,-78.9316 102.066,-89.3024 106.839,-79.8436 99.8982,-78.9316"/>
<text text-anchor="middle" x="153" y="-63" font-family="Helvetica,sans-Serif" font-size="10.00"> payAmount_is</text>
<text text-anchor="middle" x="153" y="-52" font-family="Helvetica,sans-Serif" font-size="10.00">payAmount</text>
<text text-anchor="middle" x="153" y="-41" font-family="Helvetica,sans-Serif" font-size="10.00">payAmount_s</text>
</g>
<!-- Node3 -->
<g id="node3" class="node"><title>Node3</title>
<polygon fill="white" stroke="#bfbfbf" points="0,-156.5 0,-175.5 55,-175.5 55,-156.5 0,-156.5"/>
<text text-anchor="middle" x="27.5" y="-163.5" font-family="Helvetica,sans-Serif" font-size="10.00">QWidget</text>
</g>
<!-- Node3&#45;&gt;Node2 -->
<g id="edge2" class="edge"><title>Node3&#45;&gt;Node2</title>
<path fill="none" stroke="midnightblue" d="M45.3097,-149.356C59.8577,-136.578 79.8789,-118.992 91.6781,-108.627"/>
<polygon fill="midnightblue" stroke="midnightblue" points="42.6834,-147.005 37.48,-156.234 47.303,-152.264 42.6834,-147.005"/>
</g>
<!-- Node4 -->
<g id="node4" class="node"><title>Node4</title>
<g id="a_node4"><a xlink:href="class_q_value_combo_box.html" target="_top" xlink:title="QValueComboBox">
<polygon fill="white" stroke="black" points="73,-156.5 73,-175.5 172,-175.5 172,-156.5 73,-156.5"/>
<text text-anchor="middle" x="122.5" y="-163.5" font-family="Helvetica,sans-Serif" font-size="10.00">QValueComboBox</text>
</a>
</g>
</g>
<!-- Node4&#45;&gt;Node2 -->
<g id="edge3" class="edge"><title>Node4&#45;&gt;Node2</title>
<path fill="none" stroke="#9a32cd" stroke-dasharray="5,2" d="M116.495,-146.415C112.481,-133.988 107.385,-118.217 104.287,-108.627"/>
<polygon fill="#9a32cd" stroke="#9a32cd" points="113.263,-147.794 119.668,-156.234 119.924,-145.642 113.263,-147.794"/>
<text text-anchor="middle" x="123" y="-130" font-family="Helvetica,sans-Serif" font-size="10.00"> unit</text>
</g>
<!-- Node5 -->
<g id="node5" class="node"><title>Node5</title>
<polygon fill="white" stroke="#bfbfbf" points="85.5,-213.5 85.5,-232.5 159.5,-232.5 159.5,-213.5 85.5,-213.5"/>
<text text-anchor="middle" x="122.5" y="-220.5" font-family="Helvetica,sans-Serif" font-size="10.00">QComboBox</text>
</g>
<!-- Node5&#45;&gt;Node4 -->
<g id="edge4" class="edge"><title>Node5&#45;&gt;Node4</title>
<path fill="none" stroke="midnightblue" d="M122.5,-203.117C122.5,-193.817 122.5,-183.056 122.5,-175.715"/>
<polygon fill="midnightblue" stroke="midnightblue" points="119,-203.406 122.5,-213.406 126,-203.406 119,-203.406"/>
</g>
<!-- Node6 -->
<g id="node6" class="node"><title>Node6</title>
<g id="a_node6"><a xlink:href="class_q_validated_line_edit.html" target="_top" xlink:title="Line edit that can be marked as &quot;invalid&quot; to show input validation feedback. ">
<polygon fill="white" stroke="black" points="176.5,-89.5 176.5,-108.5 278.5,-108.5 278.5,-89.5 176.5,-89.5"/>
<text text-anchor="middle" x="227.5" y="-96.5" font-family="Helvetica,sans-Serif" font-size="10.00">QValidatedLineEdit</text>
</a>
</g>
</g>
<!-- Node6&#45;&gt;Node1 -->
<g id="edge5" class="edge"><title>Node6&#45;&gt;Node1</title>
<path fill="none" stroke="#9a32cd" stroke-dasharray="5,2" d="M217.537,-80.5118C210.401,-68.331 200.349,-51.8506 190.5,-38 186.015,-31.6926 180.515,-24.9426 176.136,-19.7694"/>
<polygon fill="#9a32cd" stroke="#9a32cd" points="214.54,-82.321 222.575,-89.2265 220.6,-78.8174 214.54,-82.321"/>
<text text-anchor="middle" x="227" y="-52" font-family="Helvetica,sans-Serif" font-size="10.00"> payTo</text>
</g>
<!-- Node7 -->
<g id="node7" class="node"><title>Node7</title>
<polygon fill="white" stroke="#bfbfbf" points="197.5,-156.5 197.5,-175.5 257.5,-175.5 257.5,-156.5 197.5,-156.5"/>
<text text-anchor="middle" x="227.5" y="-163.5" font-family="Helvetica,sans-Serif" font-size="10.00">QLineEdit</text>
</g>
<!-- Node7&#45;&gt;Node6 -->
<g id="edge6" class="edge"><title>Node7&#45;&gt;Node6</title>
<path fill="none" stroke="midnightblue" d="M227.5,-146.037C227.5,-133.67 227.5,-118.12 227.5,-108.627"/>
<polygon fill="midnightblue" stroke="midnightblue" points="224,-146.234 227.5,-156.234 231,-146.234 224,-146.234"/>
</g>
</g>
</svg>
