<?xml version="1.0" encoding="UTF-8" standalone="no"?>
<!DOCTYPE svg PUBLIC "-//W3C//DTD SVG 1.1//EN"
 "http://www.w3.org/Graphics/SVG/1.1/DTD/svg11.dtd">
<!-- Generated by graphviz version 2.38.0 (20140413.2041)
 -->
<!-- Title: CNetAddr::ToStringIP Pages: 1 -->
<svg width="621pt" height="142pt"
 viewBox="0.00 0.00 621.00 142.00" xmlns="http://www.w3.org/2000/svg" xmlns:xlink="http://www.w3.org/1999/xlink">
<g id="graph0" class="graph" transform="scale(1 1) rotate(0) translate(4 138)">
<title>CNetAddr::ToStringIP</title>
<polygon fill="white" stroke="none" points="-4,4 -4,-138 617,-138 617,4 -4,4"/>
<!-- Node1 -->
<g id="node1" class="node"><title>Node1</title>
<polygon fill="#bfbfbf" stroke="black" points="0,-76.5 0,-95.5 113,-95.5 113,-76.5 0,-76.5"/>
<text text-anchor="middle" x="56.5" y="-83.5" font-family="Helvetica,sans-Serif" font-size="10.00">CNetAddr::ToStringIP</text>
</g>
<!-- Node2 -->
<g id="node2" class="node"><title>Node2</title>
<g id="a_node2"><a xlink:href="util_8cpp.html#a71aa75e646de8a10971f887bc71d9a75" target="_top" xlink:title="EncodeBase32">
<polygon fill="white" stroke="black" points="168,-95.5 168,-114.5 252,-114.5 252,-95.5 168,-95.5"/>
<text text-anchor="middle" x="210" y="-102.5" font-family="Helvetica,sans-Serif" font-size="10.00">EncodeBase32</text>
</a>
</g>
</g>
<!-- Node1&#45;&gt;Node2 -->
<g id="edge1" class="edge"><title>Node1&#45;&gt;Node2</title>
<path fill="none" stroke="midnightblue" d="M113.053,-92.967C127.595,-94.7908 143.209,-96.749 157.528,-98.5448"/>
<polygon fill="midnightblue" stroke="midnightblue" points="157.335,-102.048 167.693,-99.8195 158.206,-95.1023 157.335,-102.048"/>
</g>
<!-- Node3 -->
<g id="node3" class="node"><title>Node3</title>
<g id="a_node3"><a xlink:href="class_c_service.html#ab0f791c174511056236119cc1580faeb" target="_top" xlink:title="CService::GetSockAddr">
<polygon fill="white" stroke="black" points="149,-57.5 149,-76.5 271,-76.5 271,-57.5 149,-57.5"/>
<text text-anchor="middle" x="210" y="-64.5" font-family="Helvetica,sans-Serif" font-size="10.00">CService::GetSockAddr</text>
</a>
</g>
</g>
<!-- Node1&#45;&gt;Node3 -->
<g id="edge2" class="edge"><title>Node1&#45;&gt;Node3</title>
<path fill="none" stroke="midnightblue" d="M113.053,-79.033C121.429,-77.9825 130.161,-76.8874 138.796,-75.8045"/>
<polygon fill="midnightblue" stroke="midnightblue" points="139.375,-79.2594 148.861,-74.5421 138.504,-72.3138 139.375,-79.2594"/>
</g>
<!-- Node4 -->
<g id="node4" class="node"><title>Node4</title>
<g id="a_node4"><a xlink:href="class_c_net_addr.html#a16ff4478f02f06f5a9a038a24d5da2f9" target="_top" xlink:title="CNetAddr::IsIPv4">
<polygon fill="white" stroke="black" points="318.5,-114.5 318.5,-133.5 412.5,-133.5 412.5,-114.5 318.5,-114.5"/>
<text text-anchor="middle" x="365.5" y="-121.5" font-family="Helvetica,sans-Serif" font-size="10.00">CNetAddr::IsIPv4</text>
</a>
</g>
</g>
<!-- Node3&#45;&gt;Node4 -->
<g id="edge3" class="edge"><title>Node3&#45;&gt;Node4</title>
<path fill="none" stroke="midnightblue" d="M244.706,-76.509C253.385,-79.2731 262.633,-82.5006 271,-86 287.691,-92.981 290.353,-97.9151 307,-105 312.079,-107.162 317.493,-109.236 322.891,-111.167"/>
<polygon fill="midnightblue" stroke="midnightblue" points="321.92,-114.534 332.514,-114.478 324.197,-107.915 321.92,-114.534"/>
</g>
<!-- Node5 -->
<g id="node5" class="node"><title>Node5</title>
<g id="a_node5"><a xlink:href="class_c_net_addr.html#aa2e2c78db01a6a27d6a2740f2ba43e90" target="_top" xlink:title="CNetAddr::GetInAddr">
<polygon fill="white" stroke="black" points="309.5,-76.5 309.5,-95.5 421.5,-95.5 421.5,-76.5 309.5,-76.5"/>
<text text-anchor="middle" x="365.5" y="-83.5" font-family="Helvetica,sans-Serif" font-size="10.00">CNetAddr::GetInAddr</text>
</a>
</g>
</g>
<!-- Node3&#45;&gt;Node5 -->
<g id="edge4" class="edge"><title>Node3&#45;&gt;Node5</title>
<path fill="none" stroke="midnightblue" d="M271.227,-74.4548C280.479,-75.6 290.067,-76.7869 299.419,-77.9444"/>
<polygon fill="midnightblue" stroke="midnightblue" points="299.093,-81.4306 309.447,-79.1856 299.953,-74.4837 299.093,-81.4306"/>
</g>
<!-- Node8 -->
<g id="node8" class="node"><title>Node8</title>
<g id="a_node8"><a xlink:href="class_c_net_addr.html#a0edb022cd6a186de8099799415409d57" target="_top" xlink:title="CNetAddr::IsIPv6">
<polygon fill="white" stroke="black" points="318.5,-38.5 318.5,-57.5 412.5,-57.5 412.5,-38.5 318.5,-38.5"/>
<text text-anchor="middle" x="365.5" y="-45.5" font-family="Helvetica,sans-Serif" font-size="10.00">CNetAddr::IsIPv6</text>
</a>
</g>
</g>
<!-- Node3&#45;&gt;Node8 -->
<g id="edge7" class="edge"><title>Node3&#45;&gt;Node8</title>
<path fill="none" stroke="midnightblue" d="M271.227,-59.5452C283.432,-58.0345 296.222,-56.4513 308.282,-54.9585"/>
<polygon fill="midnightblue" stroke="midnightblue" points="308.718,-58.4314 318.212,-53.7294 307.858,-51.4844 308.718,-58.4314"/>
</g>
<!-- Node9 -->
<g id="node9" class="node"><title>Node9</title>
<g id="a_node9"><a xlink:href="class_c_net_addr.html#add7811be50f5fe60c4fa65b461dea98c" target="_top" xlink:title="CNetAddr::GetIn6Addr">
<polygon fill="white" stroke="black" points="307,-0.5 307,-19.5 424,-19.5 424,-0.5 307,-0.5"/>
<text text-anchor="middle" x="365.5" y="-7.5" font-family="Helvetica,sans-Serif" font-size="10.00">CNetAddr::GetIn6Addr</text>
</a>
</g>
</g>
<!-- Node3&#45;&gt;Node9 -->
<g id="edge8" class="edge"><title>Node3&#45;&gt;Node9</title>
<path fill="none" stroke="midnightblue" d="M234.135,-57.4076C253.491,-49.4871 281.893,-38.1086 307,-29 312.698,-26.9327 318.746,-24.8329 324.698,-22.82"/>
<polygon fill="midnightblue" stroke="midnightblue" points="326.165,-26.0202 334.544,-19.5356 323.95,-19.38 326.165,-26.0202"/>
</g>
<!-- Node6 -->
<g id="node6" class="node"><title>Node6</title>
<g id="a_node6"><a xlink:href="glibc__compat_8cpp.html#a0f46826ab0466591e136db24394923cf" target="_top" xlink:title="memcpy">
<polygon fill="white" stroke="black" points="460,-38.5 460,-57.5 514,-57.5 514,-38.5 460,-38.5"/>
<text text-anchor="middle" x="487" y="-45.5" font-family="Helvetica,sans-Serif" font-size="10.00">memcpy</text>
</a>
</g>
</g>
<!-- Node5&#45;&gt;Node6 -->
<g id="edge5" class="edge"><title>Node5&#45;&gt;Node6</title>
<path fill="none" stroke="midnightblue" d="M396.655,-76.411C412.954,-71.228 433.184,-64.795 450.27,-59.3617"/>
<polygon fill="midnightblue" stroke="midnightblue" points="451.445,-62.6611 459.914,-56.2952 449.323,-55.9903 451.445,-62.6611"/>
</g>
<!-- Node7 -->
<g id="node7" class="node"><title>Node7</title>
<g id="a_node7"><a xlink:href="glibc__compat_8cpp.html#a9778d49e9029dd75bc53ecbbf9f5e9a1" target="_top" xlink:title="memmove">
<polygon fill="white" stroke="black" points="550,-38.5 550,-57.5 613,-57.5 613,-38.5 550,-38.5"/>
<text text-anchor="middle" x="581.5" y="-45.5" font-family="Helvetica,sans-Serif" font-size="10.00">memmove</text>
</a>
</g>
</g>
<!-- Node6&#45;&gt;Node7 -->
<g id="edge6" class="edge"><title>Node6&#45;&gt;Node7</title>
<path fill="none" stroke="midnightblue" d="M514.259,-48C522.244,-48 531.214,-48 539.912,-48"/>
<polygon fill="midnightblue" stroke="midnightblue" points="539.924,-51.5001 549.924,-48 539.924,-44.5001 539.924,-51.5001"/>
</g>
<!-- Node9&#45;&gt;Node6 -->
<g id="edge9" class="edge"><title>Node9&#45;&gt;Node6</title>
<path fill="none" stroke="midnightblue" d="M396.655,-19.589C412.954,-24.772 433.184,-31.205 450.27,-36.6383"/>
<polygon fill="midnightblue" stroke="midnightblue" points="449.323,-40.0097 459.914,-39.7048 451.445,-33.3389 449.323,-40.0097"/>
</g>
</g>
</svg>
