<?xml version="1.0" encoding="UTF-8" standalone="no"?>
<!DOCTYPE svg PUBLIC "-//W3C//DTD SVG 1.1//EN"
 "http://www.w3.org/Graphics/SVG/1.1/DTD/svg11.dtd">
<!-- Generated by graphviz version 2.38.0 (20140413.2041)
 -->
<!-- Title: CKey::Derive Pages: 1 -->
<svg width="553pt" height="370pt"
 viewBox="0.00 0.00 553.00 370.00" xmlns="http://www.w3.org/2000/svg" xmlns:xlink="http://www.w3.org/1999/xlink">
<g id="graph0" class="graph" transform="scale(1 1) rotate(0) translate(4 366)">
<title>CKey::Derive</title>
<polygon fill="white" stroke="none" points="-4,4 -4,-366 549,-366 549,4 -4,4"/>
<!-- Node1 -->
<g id="node1" class="node"><title>Node1</title>
<polygon fill="#bfbfbf" stroke="black" points="0,-171.5 0,-190.5 75,-190.5 75,-171.5 0,-171.5"/>
<text text-anchor="middle" x="37.5" y="-178.5" font-family="Helvetica,sans-Serif" font-size="10.00">CKey::Derive</text>
</g>
<!-- Node2 -->
<g id="node2" class="node"><title>Node2</title>
<g id="a_node2"><a xlink:href="class_c_key.html#a62094263b7422a45b45ac508396f19eb" target="_top" xlink:title="CKey::IsValid">
<polygon fill="white" stroke="black" points="128,-342.5 128,-361.5 205,-361.5 205,-342.5 128,-342.5"/>
<text text-anchor="middle" x="166.5" y="-349.5" font-family="Helvetica,sans-Serif" font-size="10.00">CKey::IsValid</text>
</a>
</g>
</g>
<!-- Node1&#45;&gt;Node2 -->
<g id="edge1" class="edge"><title>Node1&#45;&gt;Node2</title>
<path fill="none" stroke="midnightblue" d="M40.4138,-190.747C46.1541,-217.438 65.7078,-292.419 111,-333 113.35,-335.105 115.946,-336.98 118.692,-338.649"/>
<polygon fill="midnightblue" stroke="midnightblue" points="117.357,-341.897 127.857,-343.311 120.531,-335.658 117.357,-341.897"/>
</g>
<!-- Node3 -->
<g id="node3" class="node"><title>Node3</title>
<g id="a_node3"><a xlink:href="class_c_key.html#abdc7d807f7a1b27ff3ad9dd5164a2273" target="_top" xlink:title="CKey::IsCompressed">
<polygon fill="white" stroke="black" points="111,-304.5 111,-323.5 222,-323.5 222,-304.5 111,-304.5"/>
<text text-anchor="middle" x="166.5" y="-311.5" font-family="Helvetica,sans-Serif" font-size="10.00">CKey::IsCompressed</text>
</a>
</g>
</g>
<!-- Node1&#45;&gt;Node3 -->
<g id="edge2" class="edge"><title>Node1&#45;&gt;Node3</title>
<path fill="none" stroke="midnightblue" d="M42.1111,-190.797C50.6618,-212.677 74.228,-265.873 111,-295 113.283,-296.808 115.75,-298.451 118.329,-299.942"/>
<polygon fill="midnightblue" stroke="midnightblue" points="116.917,-303.148 127.432,-304.449 120.024,-296.875 116.917,-303.148"/>
</g>
<!-- Node4 -->
<g id="node4" class="node"><title>Node4</title>
<g id="a_node4"><a xlink:href="allocators_8h.html#ab73cc3988a03bed966c0c2bb191a8d2a" target="_top" xlink:title="LockObject">
<polygon fill="white" stroke="black" points="133,-228.5 133,-247.5 200,-247.5 200,-228.5 133,-228.5"/>
<text text-anchor="middle" x="166.5" y="-235.5" font-family="Helvetica,sans-Serif" font-size="10.00">LockObject</text>
</a>
</g>
</g>
<!-- Node1&#45;&gt;Node4 -->
<g id="edge3" class="edge"><title>Node1&#45;&gt;Node4</title>
<path fill="none" stroke="midnightblue" d="M55.1486,-190.626C69.6261,-198.777 91.3123,-210.464 111,-219 115.762,-221.065 120.828,-223.072 125.88,-224.96"/>
<polygon fill="midnightblue" stroke="midnightblue" points="124.901,-228.327 135.495,-228.428 127.276,-221.742 124.901,-228.327"/>
</g>
<!-- Node8 -->
<g id="node8" class="node"><title>Node8</title>
<g id="a_node8"><a xlink:href="class_c_key.html#ae4b61da6ec62f676fe6362ac5fc26aca" target="_top" xlink:title="CKey::GetPubKey">
<polygon fill="white" stroke="black" points="117.5,-190.5 117.5,-209.5 215.5,-209.5 215.5,-190.5 117.5,-190.5"/>
<text text-anchor="middle" x="166.5" y="-197.5" font-family="Helvetica,sans-Serif" font-size="10.00">CKey::GetPubKey</text>
</a>
</g>
</g>
<!-- Node1&#45;&gt;Node8 -->
<g id="edge7" class="edge"><title>Node1&#45;&gt;Node8</title>
<path fill="none" stroke="midnightblue" d="M75.2337,-186.496C85.3295,-188.006 96.5302,-189.682 107.51,-191.324"/>
<polygon fill="midnightblue" stroke="midnightblue" points="107.085,-194.8 117.492,-192.818 108.12,-187.877 107.085,-194.8"/>
</g>
<!-- Node9 -->
<g id="node9" class="node"><title>Node9</title>
<g id="a_node9"><a xlink:href="class_c_pub_key.html#add9987e0d25aff11181f5ad70413994b" target="_top" xlink:title="CPubKey::begin">
<polygon fill="white" stroke="black" points="122,-152.5 122,-171.5 211,-171.5 211,-152.5 122,-152.5"/>
<text text-anchor="middle" x="166.5" y="-159.5" font-family="Helvetica,sans-Serif" font-size="10.00">CPubKey::begin</text>
</a>
</g>
</g>
<!-- Node1&#45;&gt;Node9 -->
<g id="edge8" class="edge"><title>Node1&#45;&gt;Node9</title>
<path fill="none" stroke="midnightblue" d="M75.2337,-175.504C86.5657,-173.809 99.2898,-171.905 111.53,-170.074"/>
<polygon fill="midnightblue" stroke="midnightblue" points="112.286,-173.5 121.658,-168.559 111.25,-166.577 112.286,-173.5"/>
</g>
<!-- Node10 -->
<g id="node10" class="node"><title>Node10</title>
<g id="a_node10"><a xlink:href="class_c_pub_key.html#aa559d2a4f2cbdec84c02a4adc18fa657" target="_top" xlink:title="CPubKey::end">
<polygon fill="white" stroke="black" points="126,-114.5 126,-133.5 207,-133.5 207,-114.5 126,-114.5"/>
<text text-anchor="middle" x="166.5" y="-121.5" font-family="Helvetica,sans-Serif" font-size="10.00">CPubKey::end</text>
</a>
</g>
</g>
<!-- Node1&#45;&gt;Node10 -->
<g id="edge9" class="edge"><title>Node1&#45;&gt;Node10</title>
<path fill="none" stroke="midnightblue" d="M55.1486,-171.374C69.6261,-163.223 91.3123,-151.536 111,-143 115.762,-140.935 120.828,-138.928 125.88,-137.04"/>
<polygon fill="midnightblue" stroke="midnightblue" points="127.276,-140.258 135.495,-133.572 124.901,-133.673 127.276,-140.258"/>
</g>
<!-- Node13 -->
<g id="node13" class="node"><title>Node13</title>
<g id="a_node13"><a xlink:href="class_c_key.html#aabd29e0d5faf30032cc8519a1ce62a5a" target="_top" xlink:title="CKey::begin">
<polygon fill="white" stroke="black" points="131,-76.5 131,-95.5 202,-95.5 202,-76.5 131,-76.5"/>
<text text-anchor="middle" x="166.5" y="-83.5" font-family="Helvetica,sans-Serif" font-size="10.00">CKey::begin</text>
</a>
</g>
</g>
<!-- Node1&#45;&gt;Node13 -->
<g id="edge12" class="edge"><title>Node1&#45;&gt;Node13</title>
<path fill="none" stroke="midnightblue" d="M45.2136,-171.437C56.8613,-155.506 82.332,-123.465 111,-105 114.317,-102.864 117.903,-100.935 121.597,-99.2005"/>
<polygon fill="midnightblue" stroke="midnightblue" points="123.049,-102.387 130.908,-95.2821 120.334,-95.9348 123.049,-102.387"/>
</g>
<!-- Node14 -->
<g id="node14" class="node"><title>Node14</title>
<g id="a_node14"><a xlink:href="class_c_key.html#a651d1e10b4085da5e4c4a764f3a384df" target="_top" xlink:title="CKey::end">
<polygon fill="white" stroke="black" points="135,-38.5 135,-57.5 198,-57.5 198,-38.5 135,-38.5"/>
<text text-anchor="middle" x="166.5" y="-45.5" font-family="Helvetica,sans-Serif" font-size="10.00">CKey::end</text>
</a>
</g>
</g>
<!-- Node1&#45;&gt;Node14 -->
<g id="edge13" class="edge"><title>Node1&#45;&gt;Node14</title>
<path fill="none" stroke="midnightblue" d="M42.1111,-171.203C50.6618,-149.323 74.228,-96.1268 111,-67 115.32,-63.5781 120.3,-60.7495 125.456,-58.4173"/>
<polygon fill="midnightblue" stroke="midnightblue" points="126.797,-61.6508 134.823,-54.7344 124.236,-55.1362 126.797,-61.6508"/>
</g>
<!-- Node16 -->
<g id="node16" class="node"><title>Node16</title>
<g id="a_node16"><a xlink:href="glibc__compat_8cpp.html#a0f46826ab0466591e136db24394923cf" target="_top" xlink:title="memcpy">
<polygon fill="white" stroke="black" points="139.5,-0.5 139.5,-19.5 193.5,-19.5 193.5,-0.5 139.5,-0.5"/>
<text text-anchor="middle" x="166.5" y="-7.5" font-family="Helvetica,sans-Serif" font-size="10.00">memcpy</text>
</a>
</g>
</g>
<!-- Node1&#45;&gt;Node16 -->
<g id="edge15" class="edge"><title>Node1&#45;&gt;Node16</title>
<path fill="none" stroke="midnightblue" d="M40.4138,-171.253C46.1541,-144.562 65.7078,-69.5812 111,-29 116.315,-24.2378 122.891,-20.6548 129.614,-17.9635"/>
<polygon fill="midnightblue" stroke="midnightblue" points="131.099,-21.1557 139.442,-14.6248 128.847,-14.5277 131.099,-21.1557"/>
</g>
<!-- Node18 -->
<g id="node18" class="node"><title>Node18</title>
<g id="a_node18"><a xlink:href="allocators_8h.html#a49577b8da0ecffd2fbc222896283004c" target="_top" xlink:title="UnlockObject">
<polygon fill="white" stroke="black" points="128.5,-266.5 128.5,-285.5 204.5,-285.5 204.5,-266.5 128.5,-266.5"/>
<text text-anchor="middle" x="166.5" y="-273.5" font-family="Helvetica,sans-Serif" font-size="10.00">UnlockObject</text>
</a>
</g>
</g>
<!-- Node1&#45;&gt;Node18 -->
<g id="edge17" class="edge"><title>Node1&#45;&gt;Node18</title>
<path fill="none" stroke="midnightblue" d="M45.2136,-190.563C56.8613,-206.494 82.332,-238.535 111,-257 114.133,-259.018 117.505,-260.85 120.982,-262.509"/>
<polygon fill="midnightblue" stroke="midnightblue" points="119.764,-265.794 130.335,-266.5 122.511,-259.356 119.764,-265.794"/>
</g>
<!-- Node5 -->
<g id="node5" class="node"><title>Node5</title>
<g id="a_node5"><a xlink:href="class_locked_page_manager.html#ac9b1d42d240dba4714a35fff970b6dde" target="_top" xlink:title="LockedPageManager::\lInstance">
<polygon fill="white" stroke="black" points="266.5,-242 266.5,-272 383.5,-272 383.5,-242 266.5,-242"/>
<text text-anchor="start" x="274.5" y="-260" font-family="Helvetica,sans-Serif" font-size="10.00">LockedPageManager::</text>
<text text-anchor="middle" x="325" y="-249" font-family="Helvetica,sans-Serif" font-size="10.00">Instance</text>
</a>
</g>
</g>
<!-- Node4&#45;&gt;Node5 -->
<g id="edge4" class="edge"><title>Node4&#45;&gt;Node5</title>
<path fill="none" stroke="midnightblue" d="M200.308,-241.983C216.565,-243.957 236.827,-246.417 256.217,-248.771"/>
<polygon fill="midnightblue" stroke="midnightblue" points="255.902,-252.258 266.251,-249.989 256.745,-245.309 255.902,-252.258"/>
</g>
<!-- Node7 -->
<g id="node7" class="node"><title>Node7</title>
<g id="a_node7"><a xlink:href="class_locked_page_manager_base.html#ae24ac08899505b892d451404133fa494" target="_top" xlink:title="LockedPageManagerBase\l::LockRange">
<polygon fill="white" stroke="black" points="258,-193 258,-223 392,-223 392,-193 258,-193"/>
<text text-anchor="start" x="266" y="-211" font-family="Helvetica,sans-Serif" font-size="10.00">LockedPageManagerBase</text>
<text text-anchor="middle" x="325" y="-200" font-family="Helvetica,sans-Serif" font-size="10.00">::LockRange</text>
</a>
</g>
</g>
<!-- Node4&#45;&gt;Node7 -->
<g id="edge6" class="edge"><title>Node4&#45;&gt;Node7</title>
<path fill="none" stroke="midnightblue" d="M200.308,-231.711C214.244,-229.04 231.123,-225.804 247.872,-222.593"/>
<polygon fill="midnightblue" stroke="midnightblue" points="248.533,-226.03 257.695,-220.71 247.215,-219.155 248.533,-226.03"/>
</g>
<!-- Node6 -->
<g id="node6" class="node"><title>Node6</title>
<g id="a_node6"><a xlink:href="class_locked_page_manager.html#a3933ba60669b1c1b0ef03222637257e7" target="_top" xlink:title="LockedPageManager::\lCreateInstance">
<polygon fill="white" stroke="black" points="428,-242 428,-272 545,-272 545,-242 428,-242"/>
<text text-anchor="start" x="436" y="-260" font-family="Helvetica,sans-Serif" font-size="10.00">LockedPageManager::</text>
<text text-anchor="middle" x="486.5" y="-249" font-family="Helvetica,sans-Serif" font-size="10.00">CreateInstance</text>
</a>
</g>
</g>
<!-- Node5&#45;&gt;Node6 -->
<g id="edge5" class="edge"><title>Node5&#45;&gt;Node6</title>
<path fill="none" stroke="midnightblue" d="M383.583,-257C394.582,-257 406.193,-257 417.482,-257"/>
<polygon fill="midnightblue" stroke="midnightblue" points="417.734,-260.5 427.734,-257 417.734,-253.5 417.734,-260.5"/>
</g>
<!-- Node11 -->
<g id="node11" class="node"><title>Node11</title>
<g id="a_node11"><a xlink:href="class_c_pub_key.html#a9d7129b65b6dee792b4f3923cd64ed59" target="_top" xlink:title="CPubKey::size">
<polygon fill="white" stroke="black" points="284,-114.5 284,-133.5 366,-133.5 366,-114.5 284,-114.5"/>
<text text-anchor="middle" x="325" y="-121.5" font-family="Helvetica,sans-Serif" font-size="10.00">CPubKey::size</text>
</a>
</g>
</g>
<!-- Node10&#45;&gt;Node11 -->
<g id="edge10" class="edge"><title>Node10&#45;&gt;Node11</title>
<path fill="none" stroke="midnightblue" d="M207.396,-124C227.553,-124 252.221,-124 273.668,-124"/>
<polygon fill="midnightblue" stroke="midnightblue" points="273.905,-127.5 283.905,-124 273.905,-120.5 273.905,-127.5"/>
</g>
<!-- Node12 -->
<g id="node12" class="node"><title>Node12</title>
<g id="a_node12"><a xlink:href="class_c_pub_key.html#a7dc71b3f037c84268dc22de97d7b65fb" target="_top" xlink:title="CPubKey::GetLen">
<polygon fill="white" stroke="black" points="438,-114.5 438,-133.5 535,-133.5 535,-114.5 438,-114.5"/>
<text text-anchor="middle" x="486.5" y="-121.5" font-family="Helvetica,sans-Serif" font-size="10.00">CPubKey::GetLen</text>
</a>
</g>
</g>
<!-- Node11&#45;&gt;Node12 -->
<g id="edge11" class="edge"><title>Node11&#45;&gt;Node12</title>
<path fill="none" stroke="midnightblue" d="M366.249,-124C384.88,-124 407.36,-124 427.757,-124"/>
<polygon fill="midnightblue" stroke="midnightblue" points="427.888,-127.5 437.888,-124 427.888,-120.5 427.888,-127.5"/>
</g>
<!-- Node15 -->
<g id="node15" class="node"><title>Node15</title>
<g id="a_node15"><a xlink:href="class_c_key.html#a6329a38926a8af8112d06da96afbfe39" target="_top" xlink:title="CKey::size">
<polygon fill="white" stroke="black" points="293,-38.5 293,-57.5 357,-57.5 357,-38.5 293,-38.5"/>
<text text-anchor="middle" x="325" y="-45.5" font-family="Helvetica,sans-Serif" font-size="10.00">CKey::size</text>
</a>
</g>
</g>
<!-- Node14&#45;&gt;Node15 -->
<g id="edge14" class="edge"><title>Node14&#45;&gt;Node15</title>
<path fill="none" stroke="midnightblue" d="M198.046,-48C222.233,-48 256.254,-48 282.841,-48"/>
<polygon fill="midnightblue" stroke="midnightblue" points="282.996,-51.5001 292.996,-48 282.996,-44.5001 282.996,-51.5001"/>
</g>
<!-- Node17 -->
<g id="node17" class="node"><title>Node17</title>
<g id="a_node17"><a xlink:href="glibc__compat_8cpp.html#a9778d49e9029dd75bc53ecbbf9f5e9a1" target="_top" xlink:title="memmove">
<polygon fill="white" stroke="black" points="293.5,-0.5 293.5,-19.5 356.5,-19.5 356.5,-0.5 293.5,-0.5"/>
<text text-anchor="middle" x="325" y="-7.5" font-family="Helvetica,sans-Serif" font-size="10.00">memmove</text>
</a>
</g>
</g>
<!-- Node16&#45;&gt;Node17 -->
<g id="edge16" class="edge"><title>Node16&#45;&gt;Node17</title>
<path fill="none" stroke="midnightblue" d="M193.695,-10C218.076,-10 254.799,-10 283.052,-10"/>
<polygon fill="midnightblue" stroke="midnightblue" points="283.422,-13.5001 293.422,-10 283.422,-6.5001 283.422,-13.5001"/>
</g>
<!-- Node18&#45;&gt;Node5 -->
<g id="edge18" class="edge"><title>Node18&#45;&gt;Node5</title>
<path fill="none" stroke="midnightblue" d="M204.588,-271.497C220.002,-269.626 238.396,-267.393 256.073,-265.247"/>
<polygon fill="midnightblue" stroke="midnightblue" points="256.866,-268.676 266.371,-263.996 256.022,-261.727 256.866,-268.676"/>
</g>
<!-- Node19 -->
<g id="node19" class="node"><title>Node19</title>
<g id="a_node19"><a xlink:href="class_locked_page_manager_base.html#a34bcf7b9120295ed178fe9545ed229af" target="_top" xlink:title="LockedPageManagerBase\l::UnlockRange">
<polygon fill="white" stroke="black" points="258,-291 258,-321 392,-321 392,-291 258,-291"/>
<text text-anchor="start" x="266" y="-309" font-family="Helvetica,sans-Serif" font-size="10.00">LockedPageManagerBase</text>
<text text-anchor="middle" x="325" y="-298" font-family="Helvetica,sans-Serif" font-size="10.00">::UnlockRange</text>
</a>
</g>
</g>
<!-- Node18&#45;&gt;Node19 -->
<g id="edge19" class="edge"><title>Node18&#45;&gt;Node19</title>
<path fill="none" stroke="midnightblue" d="M204.588,-283.11C217.638,-285.611 232.823,-288.522 247.902,-291.412"/>
<polygon fill="midnightblue" stroke="midnightblue" points="247.292,-294.859 257.772,-293.304 248.609,-287.984 247.292,-294.859"/>
</g>
</g>
</svg>
