<?xml version="1.0" encoding="UTF-8" standalone="no"?>
<!DOCTYPE svg PUBLIC "-//W3C//DTD SVG 1.1//EN"
 "http://www.w3.org/Graphics/SVG/1.1/DTD/svg11.dtd">
<!-- Generated by graphviz version 2.38.0 (20140413.2041)
 -->
<!-- Title: GUIUtil::TableViewLastColumnResizingFixer::adjustTableColumnsWidth Pages: 1 -->
<svg width="1467pt" height="131pt"
 viewBox="0.00 0.00 1467.00 131.25" xmlns="http://www.w3.org/2000/svg" xmlns:xlink="http://www.w3.org/1999/xlink">
<g id="graph0" class="graph" transform="scale(1 1) rotate(0) translate(4 127.249)">
<title>GUIUtil::TableViewLastColumnResizingFixer::adjustTableColumnsWidth</title>
<polygon fill="white" stroke="none" points="-4,4 -4,-127.249 1463,-127.249 1463,4 -4,4"/>
<!-- Node1 -->
<g id="node1" class="node"><title>Node1</title>
<polygon fill="#bfbfbf" stroke="black" points="0,-13.7487 0,-43.7487 199,-43.7487 199,-13.7487 0,-13.7487"/>
<text text-anchor="start" x="8" y="-31.7487" font-family="Helvetica,sans-Serif" font-size="10.00">GUIUtil::TableViewLastColumn</text>
<text text-anchor="middle" x="99.5" y="-20.7487" font-family="Helvetica,sans-Serif" font-size="10.00">ResizingFixer::adjustTableColumnsWidth</text>
</g>
<!-- Node2 -->
<g id="node2" class="node"><title>Node2</title>
<g id="a_node2"><a xlink:href="class_g_u_i_util_1_1_table_view_last_column_resizing_fixer.html#a31422ff98c30c95c01dba5bbb8ccbcae" target="_top" xlink:title="GUIUtil::TableViewLastColumn\lResizingFixer::on_sectionResized">
<polygon fill="white" stroke="black" points="235,-13.7487 235,-43.7487 402,-43.7487 402,-13.7487 235,-13.7487"/>
<text text-anchor="start" x="243" y="-31.7487" font-family="Helvetica,sans-Serif" font-size="10.00">GUIUtil::TableViewLastColumn</text>
<text text-anchor="middle" x="318.5" y="-20.7487" font-family="Helvetica,sans-Serif" font-size="10.00">ResizingFixer::on_sectionResized</text>
</a>
</g>
</g>
<!-- Node1&#45;&gt;Node2 -->
<g id="edge1" class="edge"><title>Node1&#45;&gt;Node2</title>
<path fill="none" stroke="midnightblue" d="M209.291,-28.7487C217.933,-28.7487 226.573,-28.7487 234.991,-28.7487"/>
<polygon fill="midnightblue" stroke="midnightblue" points="209.158,-25.2488 199.158,-28.7487 209.158,-32.2488 209.158,-25.2488"/>
</g>
<!-- Node3 -->
<g id="node3" class="node"><title>Node3</title>
<g id="a_node3"><a xlink:href="class_g_u_i_util_1_1_table_view_last_column_resizing_fixer.html#ab01fe3dbf021a9306ec74afda41d6f45" target="_top" xlink:title="GUIUtil::TableViewLastColumn\lResizingFixer::connectViewHeaders\lSignals">
<polygon fill="white" stroke="black" points="438,-51.2487 438,-92.2487 615,-92.2487 615,-51.2487 438,-51.2487"/>
<text text-anchor="start" x="446" y="-80.2487" font-family="Helvetica,sans-Serif" font-size="10.00">GUIUtil::TableViewLastColumn</text>
<text text-anchor="start" x="446" y="-69.2487" font-family="Helvetica,sans-Serif" font-size="10.00">ResizingFixer::connectViewHeaders</text>
<text text-anchor="middle" x="526.5" y="-58.2487" font-family="Helvetica,sans-Serif" font-size="10.00">Signals</text>
</a>
</g>
</g>
<!-- Node2&#45;&gt;Node3 -->
<g id="edge2" class="edge"><title>Node2&#45;&gt;Node3</title>
<path fill="none" stroke="midnightblue" d="M401.494,-45.8639C413.462,-48.3621 425.825,-50.9428 437.899,-53.4631"/>
<polygon fill="midnightblue" stroke="midnightblue" points="402.053,-42.4053 391.549,-43.788 400.623,-49.2576 402.053,-42.4053"/>
</g>
<!-- Node8 -->
<g id="node8" class="node"><title>Node8</title>
<g id="a_node8"><a xlink:href="class_g_u_i_util_1_1_table_view_last_column_resizing_fixer.html#ae36cd142d60656073928ba6bd05a6661" target="_top" xlink:title="GUIUtil::TableViewLastColumn\lResizingFixer::disconnectViewHeaders\lSignals">
<polygon fill="white" stroke="black" points="876,-41.2487 876,-82.2487 1066,-82.2487 1066,-41.2487 876,-41.2487"/>
<text text-anchor="start" x="884" y="-70.2487" font-family="Helvetica,sans-Serif" font-size="10.00">GUIUtil::TableViewLastColumn</text>
<text text-anchor="start" x="884" y="-59.2487" font-family="Helvetica,sans-Serif" font-size="10.00">ResizingFixer::disconnectViewHeaders</text>
<text text-anchor="middle" x="971" y="-48.2487" font-family="Helvetica,sans-Serif" font-size="10.00">Signals</text>
</a>
</g>
</g>
<!-- Node2&#45;&gt;Node8 -->
<g id="edge13" class="edge"><title>Node2&#45;&gt;Node8</title>
<path fill="none" stroke="midnightblue" d="M412.351,-27.5017C516.62,-26.9299 690.781,-28.4616 840,-41.7487 851.6,-42.7816 863.737,-44.1967 875.738,-45.8008"/>
<polygon fill="midnightblue" stroke="midnightblue" points="412.148,-24.0028 402.17,-27.5655 412.192,-31.0027 412.148,-24.0028"/>
</g>
<!-- Node3&#45;&gt;Node1 -->
<g id="edge3" class="edge"><title>Node3&#45;&gt;Node1</title>
<path fill="none" stroke="midnightblue" d="M427.871,-68.0757C371.38,-65.2735 299.015,-60.529 235,-52.7487 215.81,-50.4163 195.206,-47.1366 176.035,-43.749"/>
<polygon fill="midnightblue" stroke="midnightblue" points="427.712,-71.572 437.869,-68.5597 428.05,-64.5802 427.712,-71.572"/>
</g>
<!-- Node4 -->
<g id="node4" class="node"><title>Node4</title>
<g id="a_node4"><a xlink:href="class_g_u_i_util_1_1_table_view_last_column_resizing_fixer.html#a89971ed347cf9d25e02cfb7d9c7e3ca6" target="_top" xlink:title="GUIUtil::TableViewLastColumn\lResizingFixer::stretchColumnWidth">
<polygon fill="white" stroke="black" points="1102,-70.7487 1102,-100.749 1275,-100.749 1275,-70.7487 1102,-70.7487"/>
<text text-anchor="start" x="1110" y="-88.7487" font-family="Helvetica,sans-Serif" font-size="10.00">GUIUtil::TableViewLastColumn</text>
<text text-anchor="middle" x="1188.5" y="-77.7487" font-family="Helvetica,sans-Serif" font-size="10.00">ResizingFixer::stretchColumnWidth</text>
</a>
</g>
</g>
<!-- Node3&#45;&gt;Node4 -->
<g id="edge4" class="edge"><title>Node3&#45;&gt;Node4</title>
<path fill="none" stroke="midnightblue" d="M625.442,-89.0795C634.064,-90.1591 642.675,-91.0789 651,-91.7487 809.77,-104.521 995.81,-97.5535 1101.85,-91.5182"/>
<polygon fill="midnightblue" stroke="midnightblue" points="625.703,-85.5837 615.331,-87.7442 624.786,-92.5235 625.703,-85.5837"/>
</g>
<!-- Node7 -->
<g id="node7" class="node"><title>Node7</title>
<g id="a_node7"><a xlink:href="class_g_u_i_util_1_1_table_view_last_column_resizing_fixer.html#a93f3b32cf06688099875a1c9d2df57f2" target="_top" xlink:title="GUIUtil::TableViewLastColumn\lResizingFixer::on_geometriesChanged">
<polygon fill="white" stroke="black" points="651,-51.7487 651,-81.7487 840,-81.7487 840,-51.7487 651,-51.7487"/>
<text text-anchor="start" x="659" y="-69.7487" font-family="Helvetica,sans-Serif" font-size="10.00">GUIUtil::TableViewLastColumn</text>
<text text-anchor="middle" x="745.5" y="-58.7487" font-family="Helvetica,sans-Serif" font-size="10.00">ResizingFixer::on_geometriesChanged</text>
</a>
</g>
</g>
<!-- Node3&#45;&gt;Node7 -->
<g id="edge7" class="edge"><title>Node3&#45;&gt;Node7</title>
<path fill="none" stroke="midnightblue" d="M625.408,-62.7714C633.876,-62.5303 642.431,-62.3425 650.864,-62.2128"/>
<polygon fill="midnightblue" stroke="midnightblue" points="625.023,-59.2816 615.137,-63.0916 625.241,-66.2782 625.023,-59.2816"/>
</g>
<!-- Node5 -->
<g id="node5" class="node"><title>Node5</title>
<g id="a_node5"><a xlink:href="class_receive_coins_dialog.html#a8ebec2144a935622b4a33c57601a8868" target="_top" xlink:title="ReceiveCoinsDialog\l::resizeEvent">
<polygon fill="white" stroke="black" points="1331.5,-92.7487 1331.5,-122.749 1438.5,-122.749 1438.5,-92.7487 1331.5,-92.7487"/>
<text text-anchor="start" x="1339.5" y="-110.749" font-family="Helvetica,sans-Serif" font-size="10.00">ReceiveCoinsDialog</text>
<text text-anchor="middle" x="1385" y="-99.7487" font-family="Helvetica,sans-Serif" font-size="10.00">::resizeEvent</text>
</a>
</g>
</g>
<!-- Node4&#45;&gt;Node5 -->
<g id="edge5" class="edge"><title>Node4&#45;&gt;Node5</title>
<path fill="none" stroke="midnightblue" d="M1285.46,-96.6032C1301.28,-98.3924 1317.15,-100.187 1331.38,-101.797"/>
<polygon fill="midnightblue" stroke="midnightblue" points="1285.42,-93.0764 1275.09,-95.4302 1284.64,-100.032 1285.42,-93.0764"/>
</g>
<!-- Node6 -->
<g id="node6" class="node"><title>Node6</title>
<g id="a_node6"><a xlink:href="class_transaction_view.html#a6bcc05526bc111b4299d32d882f633b8" target="_top" xlink:title="TransactionView::resizeEvent">
<polygon fill="white" stroke="black" points="1311,-54.2487 1311,-73.2487 1459,-73.2487 1459,-54.2487 1311,-54.2487"/>
<text text-anchor="middle" x="1385" y="-61.2487" font-family="Helvetica,sans-Serif" font-size="10.00">TransactionView::resizeEvent</text>
</a>
</g>
</g>
<!-- Node4&#45;&gt;Node6 -->
<g id="edge6" class="edge"><title>Node4&#45;&gt;Node6</title>
<path fill="none" stroke="midnightblue" d="M1285.19,-74.9246C1293.82,-73.949 1302.46,-72.9716 1310.85,-72.023"/>
<polygon fill="midnightblue" stroke="midnightblue" points="1284.64,-71.4653 1275.09,-76.0671 1285.42,-78.4209 1284.64,-71.4653"/>
</g>
<!-- Node7&#45;&gt;Node3 -->
<g id="edge8" class="edge"><title>Node7&#45;&gt;Node3</title>
<path fill="none" stroke="midnightblue" d="M640.811,-75.8819C632.221,-76.1009 623.591,-76.2644 615.137,-76.3672"/>
<polygon fill="midnightblue" stroke="midnightblue" points="640.966,-79.3791 650.864,-75.5996 640.769,-72.3818 640.966,-79.3791"/>
</g>
<!-- Node7&#45;&gt;Node8 -->
<g id="edge9" class="edge"><title>Node7&#45;&gt;Node8</title>
<path fill="none" stroke="midnightblue" d="M850.52,-57.686C858.922,-57.4667 867.383,-57.2973 875.711,-57.1818"/>
<polygon fill="midnightblue" stroke="midnightblue" points="850.209,-54.1934 840.313,-57.9779 850.409,-61.1905 850.209,-54.1934"/>
</g>
<!-- Node8&#45;&gt;Node1 -->
<g id="edge10" class="edge"><title>Node8&#45;&gt;Node1</title>
<path fill="none" stroke="midnightblue" d="M892.155,-38.6738C875.104,-34.3836 857.051,-30.4177 840,-27.7487 822.391,-24.9922 395.374,11.0294 235,-3.74868 213.005,-5.77546 189.24,-9.62899 167.895,-13.7145"/>
<polygon fill="midnightblue" stroke="midnightblue" points="891.507,-42.1211 902.064,-41.23 893.255,-35.343 891.507,-42.1211"/>
</g>
<!-- Node8&#45;&gt;Node4 -->
<g id="edge11" class="edge"><title>Node8&#45;&gt;Node4</title>
<path fill="none" stroke="midnightblue" d="M1076.28,-73.3624C1084.89,-74.3207 1093.52,-75.2822 1101.96,-76.2225"/>
<polygon fill="midnightblue" stroke="midnightblue" points="1076.53,-69.869 1066.21,-72.2405 1075.76,-76.8259 1076.53,-69.869"/>
</g>
<!-- Node8&#45;&gt;Node7 -->
<g id="edge12" class="edge"><title>Node8&#45;&gt;Node7</title>
<path fill="none" stroke="midnightblue" d="M865.499,-70.8239C857.095,-71.0412 848.636,-71.2087 840.313,-71.3221"/>
<polygon fill="midnightblue" stroke="midnightblue" points="865.814,-74.3164 875.711,-70.5343 865.615,-67.3193 865.814,-74.3164"/>
</g>
</g>
</svg>
