<?xml version="1.0" encoding="UTF-8" standalone="no"?>
<!DOCTYPE svg PUBLIC "-//W3C//DTD SVG 1.1//EN"
 "http://www.w3.org/Graphics/SVG/1.1/DTD/svg11.dtd">
<!-- Generated by graphviz version 2.38.0 (20140413.2041)
 -->
<!-- Title: ClientModel::ClientModel Pages: 1 -->
<svg width="673pt" height="116pt"
 viewBox="0.00 0.00 673.00 115.50" xmlns="http://www.w3.org/2000/svg" xmlns:xlink="http://www.w3.org/1999/xlink">
<g id="graph0" class="graph" transform="scale(1 1) rotate(0) translate(4 111.5)">
<title>ClientModel::ClientModel</title>
<polygon fill="white" stroke="none" points="-4,4 -4,-111.5 669,-111.5 669,4 -4,4"/>
<!-- Node1 -->
<g id="node1" class="node"><title>Node1</title>
<polygon fill="#bfbfbf" stroke="black" points="0,-28 0,-47 128,-47 128,-28 0,-28"/>
<text text-anchor="middle" x="64" y="-35" font-family="Helvetica,sans-Serif" font-size="10.00">ClientModel::ClientModel</text>
</g>
<!-- Node2 -->
<g id="node2" class="node"><title>Node2</title>
<g id="a_node2"><a xlink:href="class_client_model.html#a82d434ebd032c00736e043ce2d36ac5e" target="_top" xlink:title="From: https://qt&#45;project.org/doc/qt&#45;5&#45;snapshot/signalsandslots.html A slot is a function that is call...">
<polygon fill="white" stroke="black" points="164,-50 164,-69 295,-69 295,-50 164,-50"/>
<text text-anchor="middle" x="229.5" y="-57" font-family="Helvetica,sans-Serif" font-size="10.00">ClientModel::updateTimer</text>
</a>
</g>
</g>
<!-- Node1&#45;&gt;Node2 -->
<g id="edge1" class="edge"><title>Node1&#45;&gt;Node2</title>
<path fill="none" stroke="midnightblue" d="M128.213,-46.0058C136.61,-47.1356 145.282,-48.3024 153.849,-49.4552"/>
<polygon fill="midnightblue" stroke="midnightblue" points="153.457,-52.934 163.835,-50.7988 154.391,-45.9965 153.457,-52.934"/>
</g>
<!-- Node9 -->
<g id="node9" class="node"><title>Node9</title>
<g id="a_node9"><a xlink:href="class_client_model.html#af999175eeba51c30f7597efbe59640ca" target="_top" xlink:title="ClientModel::subscribeTo\lCoreSignals">
<polygon fill="white" stroke="black" points="165,-0.5 165,-30.5 294,-30.5 294,-0.5 165,-0.5"/>
<text text-anchor="start" x="173" y="-18.5" font-family="Helvetica,sans-Serif" font-size="10.00">ClientModel::subscribeTo</text>
<text text-anchor="middle" x="229.5" y="-7.5" font-family="Helvetica,sans-Serif" font-size="10.00">CoreSignals</text>
</a>
</g>
</g>
<!-- Node1&#45;&gt;Node9 -->
<g id="edge8" class="edge"><title>Node1&#45;&gt;Node9</title>
<path fill="none" stroke="midnightblue" d="M128.213,-28.9942C136.962,-27.817 146.01,-26.5996 154.927,-25.3998"/>
<polygon fill="midnightblue" stroke="midnightblue" points="155.472,-28.8581 164.915,-24.0557 154.538,-21.9206 155.472,-28.8581"/>
</g>
<!-- Node3 -->
<g id="node3" class="node"><title>Node3</title>
<g id="a_node3"><a xlink:href="class_client_model.html#a9c298b0c2eb9c8e9ff18c6ff37725b0a" target="_top" xlink:title="ClientModel::getNumBlocks">
<polygon fill="white" stroke="black" points="341,-88 341,-107 480,-107 480,-88 341,-88"/>
<text text-anchor="middle" x="410.5" y="-95" font-family="Helvetica,sans-Serif" font-size="10.00">ClientModel::getNumBlocks</text>
</a>
</g>
</g>
<!-- Node2&#45;&gt;Node3 -->
<g id="edge2" class="edge"><title>Node2&#45;&gt;Node3</title>
<path fill="none" stroke="midnightblue" d="M275.669,-69.089C299.716,-74.1939 329.474,-80.5113 354.819,-85.8918"/>
<polygon fill="midnightblue" stroke="midnightblue" points="354.147,-89.3269 364.656,-87.9799 355.6,-82.4795 354.147,-89.3269"/>
</g>
<!-- Node5 -->
<g id="node5" class="node"><title>Node5</title>
<g id="a_node5"><a xlink:href="class_client_model.html#a175c96ffc4d793777316e36c501a7f94" target="_top" xlink:title="ClientModel::getTotalBytesRecv">
<polygon fill="white" stroke="black" points="331,-50 331,-69 490,-69 490,-50 331,-50"/>
<text text-anchor="middle" x="410.5" y="-57" font-family="Helvetica,sans-Serif" font-size="10.00">ClientModel::getTotalBytesRecv</text>
</a>
</g>
</g>
<!-- Node2&#45;&gt;Node5 -->
<g id="edge4" class="edge"><title>Node2&#45;&gt;Node5</title>
<path fill="none" stroke="midnightblue" d="M295.123,-59.5C303.472,-59.5 312.135,-59.5 320.789,-59.5"/>
<polygon fill="midnightblue" stroke="midnightblue" points="320.923,-63.0001 330.923,-59.5 320.923,-56.0001 320.923,-63.0001"/>
</g>
<!-- Node7 -->
<g id="node7" class="node"><title>Node7</title>
<g id="a_node7"><a xlink:href="class_client_model.html#a4229224bf8a2df52e44438a449da6ba3" target="_top" xlink:title="ClientModel::getTotalBytesSent">
<polygon fill="white" stroke="black" points="332,-12 332,-31 489,-31 489,-12 332,-12"/>
<text text-anchor="middle" x="410.5" y="-19" font-family="Helvetica,sans-Serif" font-size="10.00">ClientModel::getTotalBytesSent</text>
</a>
</g>
</g>
<!-- Node2&#45;&gt;Node7 -->
<g id="edge6" class="edge"><title>Node2&#45;&gt;Node7</title>
<path fill="none" stroke="midnightblue" d="M275.669,-49.911C299.716,-44.8061 329.474,-38.4887 354.819,-33.1082"/>
<polygon fill="midnightblue" stroke="midnightblue" points="355.6,-36.5205 364.656,-31.0201 354.147,-29.6731 355.6,-36.5205"/>
</g>
<!-- Node4 -->
<g id="node4" class="node"><title>Node4</title>
<g id="a_node4"><a xlink:href="class_c_chain.html#a0c4ffb8501acfb8a7e1c0f5e6322ada3" target="_top" xlink:title="Return the maximal height in the chain. ">
<polygon fill="white" stroke="black" points="553.5,-88 553.5,-107 637.5,-107 637.5,-88 553.5,-88"/>
<text text-anchor="middle" x="595.5" y="-95" font-family="Helvetica,sans-Serif" font-size="10.00">CChain::Height</text>
</a>
</g>
</g>
<!-- Node3&#45;&gt;Node4 -->
<g id="edge3" class="edge"><title>Node3&#45;&gt;Node4</title>
<path fill="none" stroke="midnightblue" d="M480.163,-97.5C501.054,-97.5 523.641,-97.5 543.178,-97.5"/>
<polygon fill="midnightblue" stroke="midnightblue" points="543.389,-101 553.389,-97.5 543.389,-94.0001 543.389,-101"/>
</g>
<!-- Node6 -->
<g id="node6" class="node"><title>Node6</title>
<g id="a_node6"><a xlink:href="class_c_node.html#a1988b63b48fdc9b72014bdf9588b0168" target="_top" xlink:title="CNode::GetTotalBytesRecv">
<polygon fill="white" stroke="black" points="526,-50 526,-69 665,-69 665,-50 526,-50"/>
<text text-anchor="middle" x="595.5" y="-57" font-family="Helvetica,sans-Serif" font-size="10.00">CNode::GetTotalBytesRecv</text>
</a>
</g>
</g>
<!-- Node5&#45;&gt;Node6 -->
<g id="edge5" class="edge"><title>Node5&#45;&gt;Node6</title>
<path fill="none" stroke="midnightblue" d="M490.171,-59.5C498.642,-59.5 507.262,-59.5 515.735,-59.5"/>
<polygon fill="midnightblue" stroke="midnightblue" points="515.975,-63.0001 525.975,-59.5 515.975,-56.0001 515.975,-63.0001"/>
</g>
<!-- Node8 -->
<g id="node8" class="node"><title>Node8</title>
<g id="a_node8"><a xlink:href="class_c_node.html#af318a64e7ddad50d1e1b6fc123a5f0b9" target="_top" xlink:title="CNode::GetTotalBytesSent">
<polygon fill="white" stroke="black" points="527,-12 527,-31 664,-31 664,-12 527,-12"/>
<text text-anchor="middle" x="595.5" y="-19" font-family="Helvetica,sans-Serif" font-size="10.00">CNode::GetTotalBytesSent</text>
</a>
</g>
</g>
<!-- Node7&#45;&gt;Node8 -->
<g id="edge7" class="edge"><title>Node7&#45;&gt;Node8</title>
<path fill="none" stroke="midnightblue" d="M489.108,-21.5C498.239,-21.5 507.558,-21.5 516.691,-21.5"/>
<polygon fill="midnightblue" stroke="midnightblue" points="516.904,-25.0001 526.904,-21.5 516.904,-18.0001 516.904,-25.0001"/>
</g>
</g>
</svg>
