<?xml version="1.0" encoding="UTF-8" standalone="no"?>
<!DOCTYPE svg PUBLIC "-//W3C//DTD SVG 1.1//EN"
 "http://www.w3.org/Graphics/SVG/1.1/DTD/svg11.dtd">
<!-- Generated by graphviz version 2.38.0 (20140413.2041)
 -->
<!-- Title: CAddrInfo::GetNewBucket Pages: 1 -->
<svg width="477pt" height="161pt"
 viewBox="0.00 0.00 477.00 161.00" xmlns="http://www.w3.org/2000/svg" xmlns:xlink="http://www.w3.org/1999/xlink">
<g id="graph0" class="graph" transform="scale(1 1) rotate(0) translate(4 157)">
<title>CAddrInfo::GetNewBucket</title>
<polygon fill="white" stroke="none" points="-4,4 -4,-157 473,-157 473,4 -4,4"/>
<!-- Node1 -->
<g id="node1" class="node"><title>Node1</title>
<polygon fill="#bfbfbf" stroke="black" points="0,-57.5 0,-76.5 134,-76.5 134,-57.5 0,-57.5"/>
<text text-anchor="middle" x="67" y="-64.5" font-family="Helvetica,sans-Serif" font-size="10.00">CAddrInfo::GetNewBucket</text>
</g>
<!-- Node2 -->
<g id="node2" class="node"><title>Node2</title>
<g id="a_node2"><a xlink:href="class_c_net_addr.html#af196f306433562cb088dc83fd314a267" target="_top" xlink:title="CNetAddr::GetGroup">
<polygon fill="white" stroke="black" points="170,-114.5 170,-133.5 280,-133.5 280,-114.5 170,-114.5"/>
<text text-anchor="middle" x="225" y="-121.5" font-family="Helvetica,sans-Serif" font-size="10.00">CNetAddr::GetGroup</text>
</a>
</g>
</g>
<!-- Node1&#45;&gt;Node2 -->
<g id="edge1" class="edge"><title>Node1&#45;&gt;Node2</title>
<path fill="none" stroke="midnightblue" d="M93.5227,-76.6559C114.126,-84.4151 143.881,-95.5406 170,-105 175.507,-106.995 181.341,-109.078 187.059,-111.103"/>
<polygon fill="midnightblue" stroke="midnightblue" points="185.899,-114.405 196.494,-114.431 188.228,-107.804 185.899,-114.405"/>
</g>
<!-- Node6 -->
<g id="node6" class="node"><title>Node6</title>
<g id="a_node6"><a xlink:href="hash_8h.html#ab3f6c437460137530d86e09c2c102e99" target="_top" xlink:title="Hash">
<polygon fill="white" stroke="black" points="205,-76.5 205,-95.5 245,-95.5 245,-76.5 205,-76.5"/>
<text text-anchor="middle" x="225" y="-83.5" font-family="Helvetica,sans-Serif" font-size="10.00">Hash</text>
</a>
</g>
</g>
<!-- Node1&#45;&gt;Node6 -->
<g id="edge5" class="edge"><title>Node1&#45;&gt;Node6</title>
<path fill="none" stroke="midnightblue" d="M134.158,-75.0577C155.139,-77.6131 177.291,-80.3111 194.349,-82.3886"/>
<polygon fill="midnightblue" stroke="midnightblue" points="194.409,-85.9218 204.759,-83.6565 195.255,-78.9731 194.409,-85.9218"/>
</g>
<!-- Node7 -->
<g id="node7" class="node"><title>Node7</title>
<g id="a_node7"><a xlink:href="class_c_data_stream.html#a5b9e70188c662f4e9496066472af213e" target="_top" xlink:title="CDataStream::begin">
<polygon fill="white" stroke="black" points="171.5,-38.5 171.5,-57.5 278.5,-57.5 278.5,-38.5 171.5,-38.5"/>
<text text-anchor="middle" x="225" y="-45.5" font-family="Helvetica,sans-Serif" font-size="10.00">CDataStream::begin</text>
</a>
</g>
</g>
<!-- Node1&#45;&gt;Node7 -->
<g id="edge6" class="edge"><title>Node1&#45;&gt;Node7</title>
<path fill="none" stroke="midnightblue" d="M134.158,-58.9423C143.208,-57.84 152.477,-56.7112 161.46,-55.6171"/>
<polygon fill="midnightblue" stroke="midnightblue" points="161.95,-59.0833 171.454,-54.3998 161.104,-52.1346 161.95,-59.0833"/>
</g>
<!-- Node8 -->
<g id="node8" class="node"><title>Node8</title>
<g id="a_node8"><a xlink:href="class_c_data_stream.html#a1c22182691412ed9e0a30b719d388f31" target="_top" xlink:title="CDataStream::end">
<polygon fill="white" stroke="black" points="175.5,-0.5 175.5,-19.5 274.5,-19.5 274.5,-0.5 175.5,-0.5"/>
<text text-anchor="middle" x="225" y="-7.5" font-family="Helvetica,sans-Serif" font-size="10.00">CDataStream::end</text>
</a>
</g>
</g>
<!-- Node1&#45;&gt;Node8 -->
<g id="edge7" class="edge"><title>Node1&#45;&gt;Node8</title>
<path fill="none" stroke="midnightblue" d="M93.5227,-57.3441C114.126,-49.5849 143.881,-38.4594 170,-29 175.507,-27.0054 181.341,-24.9222 187.059,-22.8968"/>
<polygon fill="midnightblue" stroke="midnightblue" points="188.228,-26.1959 196.494,-19.5688 185.899,-19.5945 188.228,-26.1959"/>
</g>
<!-- Node3 -->
<g id="node3" class="node"><title>Node3</title>
<g id="a_node3"><a xlink:href="glibc__compat_8cpp.html#a0f46826ab0466591e136db24394923cf" target="_top" xlink:title="memcpy">
<polygon fill="white" stroke="black" points="316,-133.5 316,-152.5 370,-152.5 370,-133.5 316,-133.5"/>
<text text-anchor="middle" x="343" y="-140.5" font-family="Helvetica,sans-Serif" font-size="10.00">memcpy</text>
</a>
</g>
</g>
<!-- Node2&#45;&gt;Node3 -->
<g id="edge2" class="edge"><title>Node2&#45;&gt;Node3</title>
<path fill="none" stroke="midnightblue" d="M280.264,-132.888C288.971,-134.314 297.79,-135.759 305.933,-137.092"/>
<polygon fill="midnightblue" stroke="midnightblue" points="305.392,-140.55 315.826,-138.713 306.523,-133.642 305.392,-140.55"/>
</g>
<!-- Node5 -->
<g id="node5" class="node"><title>Node5</title>
<g id="a_node5"><a xlink:href="net_8cpp.html#a16fa1bd4d34c4c29c90903fc3cdf7517" target="_top" xlink:title="check whether a given address is potentially local ">
<polygon fill="white" stroke="black" points="319,-95.5 319,-114.5 367,-114.5 367,-95.5 319,-95.5"/>
<text text-anchor="middle" x="343" y="-102.5" font-family="Helvetica,sans-Serif" font-size="10.00">IsLocal</text>
</a>
</g>
</g>
<!-- Node2&#45;&gt;Node5 -->
<g id="edge4" class="edge"><title>Node2&#45;&gt;Node5</title>
<path fill="none" stroke="midnightblue" d="M280.264,-115.112C290.012,-113.515 299.901,-111.896 308.824,-110.434"/>
<polygon fill="midnightblue" stroke="midnightblue" points="309.485,-113.872 318.788,-108.802 308.354,-106.964 309.485,-113.872"/>
</g>
<!-- Node4 -->
<g id="node4" class="node"><title>Node4</title>
<g id="a_node4"><a xlink:href="glibc__compat_8cpp.html#a9778d49e9029dd75bc53ecbbf9f5e9a1" target="_top" xlink:title="memmove">
<polygon fill="white" stroke="black" points="406,-133.5 406,-152.5 469,-152.5 469,-133.5 406,-133.5"/>
<text text-anchor="middle" x="437.5" y="-140.5" font-family="Helvetica,sans-Serif" font-size="10.00">memmove</text>
</a>
</g>
</g>
<!-- Node3&#45;&gt;Node4 -->
<g id="edge3" class="edge"><title>Node3&#45;&gt;Node4</title>
<path fill="none" stroke="midnightblue" d="M370.259,-143C378.244,-143 387.214,-143 395.912,-143"/>
<polygon fill="midnightblue" stroke="midnightblue" points="395.924,-146.5 405.924,-143 395.924,-139.5 395.924,-146.5"/>
</g>
</g>
</svg>
