<?xml version="1.0" encoding="UTF-8" standalone="no"?>
<!DOCTYPE svg PUBLIC "-//W3C//DTD SVG 1.1//EN"
 "http://www.w3.org/Graphics/SVG/1.1/DTD/svg11.dtd">
<!-- Generated by graphviz version 2.38.0 (20140413.2041)
 -->
<!-- Title: Ui_Intro::retranslateUi Pages: 1 -->
<svg width="347pt" height="28pt"
 viewBox="0.00 0.00 347.00 28.00" xmlns="http://www.w3.org/2000/svg" xmlns:xlink="http://www.w3.org/1999/xlink">
<g id="graph0" class="graph" transform="scale(1 1) rotate(0) translate(4 24)">
<title>Ui_Intro::retranslateUi</title>
<polygon fill="white" stroke="none" points="-4,4 -4,-24 343,-24 343,4 -4,4"/>
<!-- Node1 -->
<g id="node1" class="node"><title>Node1</title>
<polygon fill="#bfbfbf" stroke="black" points="0,-0.5 0,-19.5 114,-19.5 114,-0.5 0,-0.5"/>
<text text-anchor="middle" x="57" y="-7.5" font-family="Helvetica,sans-Serif" font-size="10.00">Ui_Intro::retranslateUi</text>
</g>
<!-- Node2 -->
<g id="node2" class="node"><title>Node2</title>
<g id="a_node2"><a xlink:href="class_ui___intro.html#a7b2c7bf108bc1e4bd6c76452b18ab44a" target="_top" xlink:title="Ui_Intro::setupUi">
<polygon fill="white" stroke="black" points="150,-0.5 150,-19.5 241,-19.5 241,-0.5 150,-0.5"/>
<text text-anchor="middle" x="195.5" y="-7.5" font-family="Helvetica,sans-Serif" font-size="10.00">Ui_Intro::setupUi</text>
</a>
</g>
</g>
<!-- Node1&#45;&gt;Node2 -->
<g id="edge1" class="edge"><title>Node1&#45;&gt;Node2</title>
<path fill="none" stroke="midnightblue" d="M124.431,-10C133.098,-10 141.805,-10 149.991,-10"/>
<polygon fill="midnightblue" stroke="midnightblue" points="124.308,-6.5001 114.308,-10 124.308,-13.5001 124.308,-6.5001"/>
</g>
<!-- Node3 -->
<g id="node3" class="node"><title>Node3</title>
<g id="a_node3"><a xlink:href="class_intro.html#a82415c2693757f51e4e93ccc8abd720e" target="_top" xlink:title="Intro::Intro">
<polygon fill="white" stroke="black" points="277,-0.5 277,-19.5 339,-19.5 339,-0.5 277,-0.5"/>
<text text-anchor="middle" x="308" y="-7.5" font-family="Helvetica,sans-Serif" font-size="10.00">Intro::Intro</text>
</a>
</g>
</g>
<!-- Node2&#45;&gt;Node3 -->
<g id="edge2" class="edge"><title>Node2&#45;&gt;Node3</title>
<path fill="none" stroke="midnightblue" d="M251.345,-10C260.101,-10 268.87,-10 276.773,-10"/>
<polygon fill="midnightblue" stroke="midnightblue" points="251.126,-6.5001 241.126,-10 251.126,-13.5001 251.126,-6.5001"/>
</g>
</g>
</svg>
