<?xml version="1.0" encoding="UTF-8" standalone="no"?>
<!DOCTYPE svg PUBLIC "-//W3C//DTD SVG 1.1//EN"
 "http://www.w3.org/Graphics/SVG/1.1/DTD/svg11.dtd">
<!-- Generated by graphviz version 2.38.0 (20140413.2041)
 -->
<!-- Title: WalletModel::validateAddress Pages: 1 -->
<svg width="671pt" height="156pt"
 viewBox="0.00 0.00 671.00 155.50" xmlns="http://www.w3.org/2000/svg" xmlns:xlink="http://www.w3.org/1999/xlink">
<g id="graph0" class="graph" transform="scale(1 1) rotate(0) translate(4 151.5)">
<title>WalletModel::validateAddress</title>
<polygon fill="white" stroke="none" points="-4,4 -4,-151.5 667,-151.5 667,4 -4,4"/>
<!-- Node1 -->
<g id="node1" class="node"><title>Node1</title>
<polygon fill="#bfbfbf" stroke="black" points="0,-38.5 0,-57.5 148,-57.5 148,-38.5 0,-38.5"/>
<text text-anchor="middle" x="74" y="-45.5" font-family="Helvetica,sans-Serif" font-size="10.00">WalletModel::validateAddress</text>
</g>
<!-- Node2 -->
<g id="node2" class="node"><title>Node2</title>
<g id="a_node2"><a xlink:href="class_address_table_model.html#aa72edd2a093a6e9318639d69d3a23488" target="_top" xlink:title="AddressTableModel::\laddRow">
<polygon fill="white" stroke="black" points="210.5,-77 210.5,-107 321.5,-107 321.5,-77 210.5,-77"/>
<text text-anchor="start" x="218.5" y="-95" font-family="Helvetica,sans-Serif" font-size="10.00">AddressTableModel::</text>
<text text-anchor="middle" x="266" y="-84" font-family="Helvetica,sans-Serif" font-size="10.00">addRow</text>
</a>
</g>
</g>
<!-- Node1&#45;&gt;Node2 -->
<g id="edge1" class="edge"><title>Node1&#45;&gt;Node2</title>
<path fill="none" stroke="midnightblue" d="M126.241,-59.8663C152.189,-65.8753 183.71,-73.175 210.148,-79.2974"/>
<polygon fill="midnightblue" stroke="midnightblue" points="126.759,-56.3937 116.227,-57.5473 125.18,-63.2133 126.759,-56.3937"/>
</g>
<!-- Node7 -->
<g id="node7" class="node"><title>Node7</title>
<g id="a_node7"><a xlink:href="class_send_coins_entry.html#ab77df95fe77e9a001190cd4dabe0dfec" target="_top" xlink:title="SendCoinsEntry::validate">
<polygon fill="white" stroke="black" points="201.5,-38.5 201.5,-57.5 330.5,-57.5 330.5,-38.5 201.5,-38.5"/>
<text text-anchor="middle" x="266" y="-45.5" font-family="Helvetica,sans-Serif" font-size="10.00">SendCoinsEntry::validate</text>
</a>
</g>
</g>
<!-- Node1&#45;&gt;Node7 -->
<g id="edge6" class="edge"><title>Node1&#45;&gt;Node7</title>
<path fill="none" stroke="midnightblue" d="M158.579,-48C172.962,-48 187.7,-48 201.448,-48"/>
<polygon fill="midnightblue" stroke="midnightblue" points="158.187,-44.5001 148.187,-48 158.187,-51.5001 158.187,-44.5001"/>
</g>
<!-- Node9 -->
<g id="node9" class="node"><title>Node9</title>
<g id="a_node9"><a xlink:href="class_wallet_model.html#a8abc851901c7c7343ebfb5a8e5fc0154" target="_top" xlink:title="WalletModel::prepareTransaction">
<polygon fill="white" stroke="black" points="184,-0.5 184,-19.5 348,-19.5 348,-0.5 184,-0.5"/>
<text text-anchor="middle" x="266" y="-7.5" font-family="Helvetica,sans-Serif" font-size="10.00">WalletModel::prepareTransaction</text>
</a>
</g>
</g>
<!-- Node1&#45;&gt;Node9 -->
<g id="edge8" class="edge"><title>Node1&#45;&gt;Node9</title>
<path fill="none" stroke="midnightblue" d="M133.048,-36.3905C160.07,-30.986 191.818,-24.6365 217.4,-19.5201"/>
<polygon fill="midnightblue" stroke="midnightblue" points="132.064,-33.0177 122.945,-38.411 133.437,-39.8818 132.064,-33.0177"/>
</g>
<!-- Node3 -->
<g id="node3" class="node"><title>Node3</title>
<g id="a_node3"><a xlink:href="class_edit_address_dialog.html#a8494a551799cd1f4c253e557424c206c" target="_top" xlink:title="EditAddressDialog::\lsaveCurrentRow">
<polygon fill="white" stroke="black" points="400,-117 400,-147 504,-147 504,-117 400,-117"/>
<text text-anchor="start" x="408" y="-135" font-family="Helvetica,sans-Serif" font-size="10.00">EditAddressDialog::</text>
<text text-anchor="middle" x="452" y="-124" font-family="Helvetica,sans-Serif" font-size="10.00">saveCurrentRow</text>
</a>
</g>
</g>
<!-- Node2&#45;&gt;Node3 -->
<g id="edge2" class="edge"><title>Node2&#45;&gt;Node3</title>
<path fill="none" stroke="midnightblue" d="M331.491,-106.02C353.928,-110.897 378.77,-116.298 399.965,-120.905"/>
<polygon fill="midnightblue" stroke="midnightblue" points="332.223,-102.597 321.708,-103.893 330.736,-109.438 332.223,-102.597"/>
</g>
<!-- Node5 -->
<g id="node5" class="node"><title>Node5</title>
<g id="a_node5"><a xlink:href="class_receive_coins_dialog.html#a9db8de31f6889288cb22c061aa51e0cd" target="_top" xlink:title="ReceiveCoinsDialog\l::on_receiveButton_clicked">
<polygon fill="white" stroke="black" points="384,-68 384,-98 520,-98 520,-68 384,-68"/>
<text text-anchor="start" x="392" y="-86" font-family="Helvetica,sans-Serif" font-size="10.00">ReceiveCoinsDialog</text>
<text text-anchor="middle" x="452" y="-75" font-family="Helvetica,sans-Serif" font-size="10.00">::on_receiveButton_clicked</text>
</a>
</g>
</g>
<!-- Node2&#45;&gt;Node5 -->
<g id="edge4" class="edge"><title>Node2&#45;&gt;Node5</title>
<path fill="none" stroke="midnightblue" d="M331.974,-88.8219C348.772,-88.0003 366.889,-87.1141 383.799,-86.287"/>
<polygon fill="midnightblue" stroke="midnightblue" points="331.525,-85.3396 321.708,-89.3241 331.867,-92.3313 331.525,-85.3396"/>
</g>
<!-- Node4 -->
<g id="node4" class="node"><title>Node4</title>
<g id="a_node4"><a xlink:href="class_edit_address_dialog.html#ac52b71129806bccf6533d0e9441393b6" target="_top" xlink:title="EditAddressDialog::\laccept">
<polygon fill="white" stroke="black" points="557.5,-117 557.5,-147 661.5,-147 661.5,-117 557.5,-117"/>
<text text-anchor="start" x="565.5" y="-135" font-family="Helvetica,sans-Serif" font-size="10.00">EditAddressDialog::</text>
<text text-anchor="middle" x="609.5" y="-124" font-family="Helvetica,sans-Serif" font-size="10.00">accept</text>
</a>
</g>
</g>
<!-- Node3&#45;&gt;Node4 -->
<g id="edge3" class="edge"><title>Node3&#45;&gt;Node4</title>
<path fill="none" stroke="midnightblue" d="M514.543,-132C528.769,-132 543.752,-132 557.472,-132"/>
<polygon fill="midnightblue" stroke="midnightblue" points="514.348,-128.5 504.347,-132 514.347,-135.5 514.348,-128.5"/>
</g>
<!-- Node6 -->
<g id="node6" class="node"><title>Node6</title>
<g id="a_node6"><a xlink:href="class_receive_coins_dialog.html#abcf17b510c473bf3e94ef12f7f5cfc10" target="_top" xlink:title="ReceiveCoinsDialog\l::keyPressEvent">
<polygon fill="white" stroke="black" points="556,-68 556,-98 663,-98 663,-68 556,-68"/>
<text text-anchor="start" x="564" y="-86" font-family="Helvetica,sans-Serif" font-size="10.00">ReceiveCoinsDialog</text>
<text text-anchor="middle" x="609.5" y="-75" font-family="Helvetica,sans-Serif" font-size="10.00">::keyPressEvent</text>
</a>
</g>
</g>
<!-- Node5&#45;&gt;Node6 -->
<g id="edge5" class="edge"><title>Node5&#45;&gt;Node6</title>
<path fill="none" stroke="midnightblue" d="M530.326,-83C538.89,-83 547.462,-83 555.624,-83"/>
<polygon fill="midnightblue" stroke="midnightblue" points="530.3,-79.5001 520.3,-83 530.3,-86.5001 530.3,-79.5001"/>
</g>
<!-- Node8 -->
<g id="node8" class="node"><title>Node8</title>
<g id="a_node8"><a xlink:href="class_send_coins_dialog.html#a2cab7cf9ea5040b9e2189297f7d3c764" target="_top" xlink:title="SendCoinsDialog::on\l_sendButton_clicked">
<polygon fill="white" stroke="black" points="397,-11 397,-41 507,-41 507,-11 397,-11"/>
<text text-anchor="start" x="405" y="-29" font-family="Helvetica,sans-Serif" font-size="10.00">SendCoinsDialog::on</text>
<text text-anchor="middle" x="452" y="-18" font-family="Helvetica,sans-Serif" font-size="10.00">_sendButton_clicked</text>
</a>
</g>
</g>
<!-- Node7&#45;&gt;Node8 -->
<g id="edge7" class="edge"><title>Node7&#45;&gt;Node8</title>
<path fill="none" stroke="midnightblue" d="M340.597,-39.2004C359.403,-36.9518 379.279,-34.5753 396.905,-32.4678"/>
<polygon fill="midnightblue" stroke="midnightblue" points="340.094,-35.7355 330.58,-40.398 340.925,-42.686 340.094,-35.7355"/>
</g>
<!-- Node9&#45;&gt;Node8 -->
<g id="edge9" class="edge"><title>Node9&#45;&gt;Node8</title>
<path fill="none" stroke="midnightblue" d="M358.312,-17.9402C371.511,-19.0879 384.729,-20.2373 396.878,-21.2938"/>
<polygon fill="midnightblue" stroke="midnightblue" points="358.506,-14.444 348.241,-17.0644 357.9,-21.4176 358.506,-14.444"/>
</g>
</g>
</svg>
