<?xml version="1.0" encoding="UTF-8" standalone="no"?>
<!DOCTYPE svg PUBLIC "-//W3C//DTD SVG 1.1//EN"
 "http://www.w3.org/Graphics/SVG/1.1/DTD/svg11.dtd">
<!-- Generated by graphviz version 2.38.0 (20140413.2041)
 -->
<!-- Title: AnoncoinGUI::trayIconActivated Pages: 1 -->
<svg width="994pt" height="88pt"
 viewBox="0.00 0.00 994.00 88.00" xmlns="http://www.w3.org/2000/svg" xmlns:xlink="http://www.w3.org/1999/xlink">
<g id="graph0" class="graph" transform="scale(1 1) rotate(0) translate(4 84)">
<title>AnoncoinGUI::trayIconActivated</title>
<polygon fill="white" stroke="none" points="-4,4 -4,-84 990,-84 990,4 -4,4"/>
<!-- Node1 -->
<g id="node1" class="node"><title>Node1</title>
<polygon fill="#bfbfbf" stroke="black" points="0,-30 0,-49 158,-49 158,-30 0,-30"/>
<text text-anchor="middle" x="79" y="-37" font-family="Helvetica,sans-Serif" font-size="10.00">AnoncoinGUI::trayIconActivated</text>
</g>
<!-- Node2 -->
<g id="node2" class="node"><title>Node2</title>
<g id="a_node2"><a xlink:href="class_anoncoin_g_u_i.html#a8e42c1b5f78aeab21118e07265874abe" target="_top" xlink:title="Create system tray menu (or setup the dock menu) ">
<polygon fill="white" stroke="black" points="194,-30 194,-49 367,-49 367,-30 194,-30"/>
<text text-anchor="middle" x="280.5" y="-37" font-family="Helvetica,sans-Serif" font-size="10.00">AnoncoinGUI::createTrayIconMenu</text>
</a>
</g>
</g>
<!-- Node1&#45;&gt;Node2 -->
<g id="edge1" class="edge"><title>Node1&#45;&gt;Node2</title>
<path fill="none" stroke="midnightblue" d="M168.491,-39.5C176.924,-39.5 185.466,-39.5 193.871,-39.5"/>
<polygon fill="midnightblue" stroke="midnightblue" points="168.275,-36.0001 158.275,-39.5 168.275,-43.0001 168.275,-36.0001"/>
</g>
<!-- Node3 -->
<g id="node3" class="node"><title>Node3</title>
<g id="a_node3"><a xlink:href="class_anoncoin_g_u_i.html#ab6dbbc9dae6aee55656d615c1aff5399" target="_top" xlink:title="Set the client model. ">
<polygon fill="white" stroke="black" points="403,-30 403,-49 551,-49 551,-30 403,-30"/>
<text text-anchor="middle" x="477" y="-37" font-family="Helvetica,sans-Serif" font-size="10.00">AnoncoinGUI::setClientModel</text>
</a>
</g>
</g>
<!-- Node2&#45;&gt;Node3 -->
<g id="edge2" class="edge"><title>Node2&#45;&gt;Node3</title>
<path fill="none" stroke="midnightblue" d="M377.195,-39.5C385.82,-39.5 394.461,-39.5 402.847,-39.5"/>
<polygon fill="midnightblue" stroke="midnightblue" points="377.094,-36.0001 367.094,-39.5 377.094,-43.0001 377.094,-36.0001"/>
</g>
<!-- Node4 -->
<g id="node4" class="node"><title>Node4</title>
<g id="a_node4"><a xlink:href="class_anoncoin_application.html#a931ed67447cc07f1e0f32327b122af01" target="_top" xlink:title="Request core shutdown. ">
<polygon fill="white" stroke="black" points="587,-49.5 587,-79.5 694,-79.5 694,-49.5 587,-49.5"/>
<text text-anchor="start" x="595" y="-67.5" font-family="Helvetica,sans-Serif" font-size="10.00">AnoncoinApplication</text>
<text text-anchor="middle" x="640.5" y="-56.5" font-family="Helvetica,sans-Serif" font-size="10.00">::requestShutdown</text>
</a>
</g>
</g>
<!-- Node3&#45;&gt;Node4 -->
<g id="edge3" class="edge"><title>Node3&#45;&gt;Node4</title>
<path fill="none" stroke="midnightblue" d="M549.501,-50.5682C562.06,-52.5123 574.921,-54.5033 586.848,-56.3496"/>
<polygon fill="midnightblue" stroke="midnightblue" points="549.935,-47.0938 539.517,-49.0227 548.864,-54.0114 549.935,-47.0938"/>
</g>
<!-- Node6 -->
<g id="node6" class="node"><title>Node6</title>
<g id="a_node6"><a xlink:href="class_anoncoin_application.html#a565d432edd9d4fc30ce60bfd8d5699e3" target="_top" xlink:title="AnoncoinApplication\l::initializeResult">
<polygon fill="white" stroke="black" points="587,-0.5 587,-30.5 694,-30.5 694,-0.5 587,-0.5"/>
<text text-anchor="start" x="595" y="-18.5" font-family="Helvetica,sans-Serif" font-size="10.00">AnoncoinApplication</text>
<text text-anchor="middle" x="640.5" y="-7.5" font-family="Helvetica,sans-Serif" font-size="10.00">::initializeResult</text>
</a>
</g>
</g>
<!-- Node3&#45;&gt;Node6 -->
<g id="edge5" class="edge"><title>Node3&#45;&gt;Node6</title>
<path fill="none" stroke="midnightblue" d="M552.431,-28.439C564.047,-26.7128 575.838,-24.9606 586.835,-23.3263"/>
<polygon fill="midnightblue" stroke="midnightblue" points="551.67,-25.0136 542.293,-29.9456 552.699,-31.9376 551.67,-25.0136"/>
</g>
<!-- Node5 -->
<g id="node5" class="node"><title>Node5</title>
<g id="a_node5"><a xlink:href="anoncoin_8cpp.html#a0ddf1224851353fc92bfbff6f499fa97" target="_top" xlink:title="main">
<polygon fill="white" stroke="black" points="764.5,-55 764.5,-74 802.5,-74 802.5,-55 764.5,-55"/>
<text text-anchor="middle" x="783.5" y="-62" font-family="Helvetica,sans-Serif" font-size="10.00">main</text>
</a>
</g>
</g>
<!-- Node4&#45;&gt;Node5 -->
<g id="edge4" class="edge"><title>Node4&#45;&gt;Node5</title>
<path fill="none" stroke="midnightblue" d="M704.295,-64.5C726.187,-64.5 749.082,-64.5 764.4,-64.5"/>
<polygon fill="midnightblue" stroke="midnightblue" points="704.003,-61.0001 694.003,-64.5 704.003,-68.0001 704.003,-61.0001"/>
</g>
<!-- Node7 -->
<g id="node7" class="node"><title>Node7</title>
<g id="a_node7"><a xlink:href="class_anoncoin_application.html#a757849a7d52cb0559592ba4194f4872c" target="_top" xlink:title="AnoncoinApplication\l::startThread">
<polygon fill="white" stroke="black" points="730,-0.5 730,-30.5 837,-30.5 837,-0.5 730,-0.5"/>
<text text-anchor="start" x="738" y="-18.5" font-family="Helvetica,sans-Serif" font-size="10.00">AnoncoinApplication</text>
<text text-anchor="middle" x="783.5" y="-7.5" font-family="Helvetica,sans-Serif" font-size="10.00">::startThread</text>
</a>
</g>
</g>
<!-- Node6&#45;&gt;Node7 -->
<g id="edge6" class="edge"><title>Node6&#45;&gt;Node7</title>
<path fill="none" stroke="midnightblue" d="M704.05,-15.5C712.7,-15.5 721.51,-15.5 729.953,-15.5"/>
<polygon fill="midnightblue" stroke="midnightblue" points="704.003,-12.0001 694.003,-15.5 704.003,-19.0001 704.003,-12.0001"/>
</g>
<!-- Node8 -->
<g id="node8" class="node"><title>Node8</title>
<g id="a_node8"><a xlink:href="class_anoncoin_application.html#a4e345b36dac09420eac7edc10fa4ffcf" target="_top" xlink:title="AnoncoinApplication\l::AnoncoinApplication">
<polygon fill="white" stroke="black" points="873,-0.5 873,-30.5 986,-30.5 986,-0.5 873,-0.5"/>
<text text-anchor="start" x="881" y="-18.5" font-family="Helvetica,sans-Serif" font-size="10.00">AnoncoinApplication</text>
<text text-anchor="middle" x="929.5" y="-7.5" font-family="Helvetica,sans-Serif" font-size="10.00">::AnoncoinApplication</text>
</a>
</g>
</g>
<!-- Node7&#45;&gt;Node8 -->
<g id="edge7" class="edge"><title>Node7&#45;&gt;Node8</title>
<path fill="none" stroke="midnightblue" d="M847.473,-15.5C855.905,-15.5 864.505,-15.5 872.8,-15.5"/>
<polygon fill="midnightblue" stroke="midnightblue" points="847.303,-12.0001 837.303,-15.5 847.303,-19.0001 847.303,-12.0001"/>
</g>
</g>
</svg>
