<?xml version="1.0" encoding="UTF-8" standalone="no"?>
<!DOCTYPE svg PUBLIC "-//W3C//DTD SVG 1.1//EN"
 "http://www.w3.org/Graphics/SVG/1.1/DTD/svg11.dtd">
<!-- Generated by graphviz version 2.38.0 (20140413.2041)
 -->
<!-- Title: AddressTableModel::removeRows Pages: 1 -->
<svg width="738pt" height="217pt"
 viewBox="0.00 0.00 738.00 217.00" xmlns="http://www.w3.org/2000/svg" xmlns:xlink="http://www.w3.org/1999/xlink">
<g id="graph0" class="graph" transform="scale(1 1) rotate(0) translate(4 213)">
<title>AddressTableModel::removeRows</title>
<polygon fill="white" stroke="none" points="-4,4 -4,-213 734,-213 734,4 -4,4"/>
<!-- Node1 -->
<g id="node1" class="node"><title>Node1</title>
<polygon fill="#bfbfbf" stroke="black" points="0,-90 0,-120 111,-120 111,-90 0,-90"/>
<text text-anchor="start" x="8" y="-108" font-family="Helvetica,sans-Serif" font-size="10.00">AddressTableModel::</text>
<text text-anchor="middle" x="55.5" y="-97" font-family="Helvetica,sans-Serif" font-size="10.00">removeRows</text>
</g>
<!-- Node2 -->
<g id="node2" class="node"><title>Node2</title>
<g id="a_node2"><a xlink:href="class_address_table_priv.html#af311eb7d0189a74a508d7ad0f563f307" target="_top" xlink:title="AddressTablePriv::index">
<polygon fill="white" stroke="black" points="150.5,-114.5 150.5,-133.5 275.5,-133.5 275.5,-114.5 150.5,-114.5"/>
<text text-anchor="middle" x="213" y="-121.5" font-family="Helvetica,sans-Serif" font-size="10.00">AddressTablePriv::index</text>
</a>
</g>
</g>
<!-- Node1&#45;&gt;Node2 -->
<g id="edge1" class="edge"><title>Node1&#45;&gt;Node2</title>
<path fill="none" stroke="midnightblue" d="M111.323,-111.699C120.669,-112.841 130.499,-114.042 140.205,-115.228"/>
<polygon fill="midnightblue" stroke="midnightblue" points="139.898,-118.716 150.249,-116.455 140.747,-111.768 139.898,-118.716"/>
</g>
<!-- Node3 -->
<g id="node3" class="node"><title>Node3</title>
<g id="a_node3"><a xlink:href="class_c_wallet.html#ac6542da8493cbb958068b7a01c05b631" target="_top" xlink:title="CWallet::DelAddressBook">
<polygon fill="white" stroke="black" points="147,-76.5 147,-95.5 279,-95.5 279,-76.5 147,-76.5"/>
<text text-anchor="middle" x="213" y="-83.5" font-family="Helvetica,sans-Serif" font-size="10.00">CWallet::DelAddressBook</text>
</a>
</g>
</g>
<!-- Node1&#45;&gt;Node3 -->
<g id="edge2" class="edge"><title>Node1&#45;&gt;Node3</title>
<path fill="none" stroke="midnightblue" d="M111.323,-98.3013C119.557,-97.2953 128.166,-96.2434 136.736,-95.1963"/>
<polygon fill="midnightblue" stroke="midnightblue" points="137.25,-98.6595 146.752,-93.9724 136.401,-91.7112 137.25,-98.6595"/>
</g>
<!-- Node4 -->
<g id="node4" class="node"><title>Node4</title>
<g id="a_node4"><a xlink:href="class_c_base58_data.html#a9a47b10dadff15b8d6a6d0e63ce3ae32" target="_top" xlink:title="CBase58Data::ToString">
<polygon fill="white" stroke="black" points="323.5,-170.5 323.5,-189.5 445.5,-189.5 445.5,-170.5 323.5,-170.5"/>
<text text-anchor="middle" x="384.5" y="-177.5" font-family="Helvetica,sans-Serif" font-size="10.00">CBase58Data::ToString</text>
</a>
</g>
</g>
<!-- Node3&#45;&gt;Node4 -->
<g id="edge3" class="edge"><title>Node3&#45;&gt;Node4</title>
<path fill="none" stroke="midnightblue" d="M261.71,-95.5856C267.867,-98.0434 273.821,-101.128 279,-105 302.699,-122.715 291.18,-143.449 315,-161 317.633,-162.94 320.455,-164.682 323.398,-166.246"/>
<polygon fill="midnightblue" stroke="midnightblue" points="321.977,-169.445 332.526,-170.425 324.891,-163.08 321.977,-169.445"/>
</g>
<!-- Node8 -->
<g id="node8" class="node"><title>Node8</title>
<g id="a_node8"><a xlink:href="class_c_wallet_d_b.html#a0403a98efe565020f8804eefbc808d90" target="_top" xlink:title="Erase destination data tuple from wallet database. ">
<polygon fill="white" stroke="black" points="315,-132.5 315,-151.5 454,-151.5 454,-132.5 315,-132.5"/>
<text text-anchor="middle" x="384.5" y="-139.5" font-family="Helvetica,sans-Serif" font-size="10.00">CWalletDB::EraseDestData</text>
</a>
</g>
</g>
<!-- Node3&#45;&gt;Node8 -->
<g id="edge7" class="edge"><title>Node3&#45;&gt;Node8</title>
<path fill="none" stroke="midnightblue" d="M250.828,-95.519C260.132,-98.2625 270.026,-101.478 279,-105 295.652,-111.536 298.303,-116.579 315,-123 321.047,-125.326 327.495,-127.496 333.925,-129.478"/>
<polygon fill="midnightblue" stroke="midnightblue" points="333.373,-132.964 343.954,-132.431 335.35,-126.249 333.373,-132.964"/>
</g>
<!-- Node9 -->
<g id="node9" class="node"><title>Node9</title>
<g id="a_node9"><a xlink:href="script_8cpp.html#adc59cf67d903c1ba1ef225561b85bfce" target="_top" xlink:title="IsMine">
<polygon fill="white" stroke="black" points="361.5,-76.5 361.5,-95.5 407.5,-95.5 407.5,-76.5 361.5,-76.5"/>
<text text-anchor="middle" x="384.5" y="-83.5" font-family="Helvetica,sans-Serif" font-size="10.00">IsMine</text>
</a>
</g>
</g>
<!-- Node3&#45;&gt;Node9 -->
<g id="edge8" class="edge"><title>Node3&#45;&gt;Node9</title>
<path fill="none" stroke="midnightblue" d="M279.048,-86C303.853,-86 331.041,-86 351.459,-86"/>
<polygon fill="midnightblue" stroke="midnightblue" points="351.471,-89.5001 361.471,-86 351.471,-82.5001 351.471,-89.5001"/>
</g>
<!-- Node11 -->
<g id="node11" class="node"><title>Node11</title>
<g id="a_node11"><a xlink:href="class_c_wallet_d_b.html#adaba27cee112077ade5b2e795382cec6" target="_top" xlink:title="CWalletDB::ErasePurpose">
<polygon fill="white" stroke="black" points="317.5,-38.5 317.5,-57.5 451.5,-57.5 451.5,-38.5 317.5,-38.5"/>
<text text-anchor="middle" x="384.5" y="-45.5" font-family="Helvetica,sans-Serif" font-size="10.00">CWalletDB::ErasePurpose</text>
</a>
</g>
</g>
<!-- Node3&#45;&gt;Node11 -->
<g id="edge11" class="edge"><title>Node3&#45;&gt;Node11</title>
<path fill="none" stroke="midnightblue" d="M256.772,-76.411C279.341,-71.3513 307.223,-65.1004 331.083,-59.7512"/>
<polygon fill="midnightblue" stroke="midnightblue" points="332.043,-63.1229 341.036,-57.5201 330.512,-56.2925 332.043,-63.1229"/>
</g>
<!-- Node12 -->
<g id="node12" class="node"><title>Node12</title>
<g id="a_node12"><a xlink:href="class_c_wallet_d_b.html#a319209fcf90ea860b668b92c44a3fa7a" target="_top" xlink:title="CWalletDB::EraseName">
<polygon fill="white" stroke="black" points="322.5,-0.5 322.5,-19.5 446.5,-19.5 446.5,-0.5 322.5,-0.5"/>
<text text-anchor="middle" x="384.5" y="-7.5" font-family="Helvetica,sans-Serif" font-size="10.00">CWalletDB::EraseName</text>
</a>
</g>
</g>
<!-- Node3&#45;&gt;Node12 -->
<g id="edge12" class="edge"><title>Node3&#45;&gt;Node12</title>
<path fill="none" stroke="midnightblue" d="M228.485,-76.3234C247.601,-63.9107 282.626,-42.3902 315,-29 320.763,-26.6165 326.919,-24.4336 333.09,-22.4651"/>
<polygon fill="midnightblue" stroke="midnightblue" points="334.182,-25.7915 342.743,-19.5501 332.158,-19.0903 334.182,-25.7915"/>
</g>
<!-- Node5 -->
<g id="node5" class="node"><title>Node5</title>
<g id="a_node5"><a xlink:href="base58_8cpp.html#ace9a5807ee51604f33044339f073ec76" target="_top" xlink:title="Encode a byte vector into a base58&#45;encoded string, including checksum. ">
<polygon fill="white" stroke="black" points="493.5,-170.5 493.5,-189.5 606.5,-189.5 606.5,-170.5 493.5,-170.5"/>
<text text-anchor="middle" x="550" y="-177.5" font-family="Helvetica,sans-Serif" font-size="10.00">EncodeBase58Check</text>
</a>
</g>
</g>
<!-- Node4&#45;&gt;Node5 -->
<g id="edge4" class="edge"><title>Node4&#45;&gt;Node5</title>
<path fill="none" stroke="midnightblue" d="M445.917,-180C458.069,-180 470.898,-180 483.223,-180"/>
<polygon fill="midnightblue" stroke="midnightblue" points="483.432,-183.5 493.432,-180 483.432,-176.5 483.432,-183.5"/>
</g>
<!-- Node6 -->
<g id="node6" class="node"><title>Node6</title>
<g id="a_node6"><a xlink:href="hash_8h.html#ab3f6c437460137530d86e09c2c102e99" target="_top" xlink:title="Hash">
<polygon fill="white" stroke="black" points="668,-189.5 668,-208.5 708,-208.5 708,-189.5 668,-189.5"/>
<text text-anchor="middle" x="688" y="-196.5" font-family="Helvetica,sans-Serif" font-size="10.00">Hash</text>
</a>
</g>
</g>
<!-- Node5&#45;&gt;Node6 -->
<g id="edge5" class="edge"><title>Node5&#45;&gt;Node6</title>
<path fill="none" stroke="midnightblue" d="M606.709,-187.783C624.181,-190.224 642.774,-192.821 657.663,-194.901"/>
<polygon fill="midnightblue" stroke="midnightblue" points="657.392,-198.398 667.78,-196.315 658.361,-191.465 657.392,-198.398"/>
</g>
<!-- Node7 -->
<g id="node7" class="node"><title>Node7</title>
<g id="a_node7"><a xlink:href="base58_8cpp.html#a8d6f0e9d5df175b4966dcede31dc90ad" target="_top" xlink:title="Encode a byte sequence as a base58&#45;encoded string. ">
<polygon fill="white" stroke="black" points="646,-151.5 646,-170.5 730,-170.5 730,-151.5 646,-151.5"/>
<text text-anchor="middle" x="688" y="-158.5" font-family="Helvetica,sans-Serif" font-size="10.00">EncodeBase58</text>
</a>
</g>
</g>
<!-- Node5&#45;&gt;Node7 -->
<g id="edge6" class="edge"><title>Node5&#45;&gt;Node7</title>
<path fill="none" stroke="midnightblue" d="M606.709,-172.217C616.298,-170.878 626.224,-169.491 635.69,-168.168"/>
<polygon fill="midnightblue" stroke="midnightblue" points="636.325,-171.614 645.744,-166.764 635.356,-164.681 636.325,-171.614"/>
</g>
<!-- Node9&#45;&gt;Node9 -->
<g id="edge10" class="edge"><title>Node9&#45;&gt;Node9</title>
<path fill="none" stroke="midnightblue" d="M361.438,-94.3125C346.062,-103.5 353.75,-114 384.5,-114 407.562,-114 417.652,-108.094 414.77,-101.265"/>
<polygon fill="midnightblue" stroke="midnightblue" points="417.19,-98.7362 407.562,-94.3125 412.33,-103.774 417.19,-98.7362"/>
</g>
<!-- Node10 -->
<g id="node10" class="node"><title>Node10</title>
<g id="a_node10"><a xlink:href="class_c_script.html#ad1b5a9077241aa06116040c4f1b7c31e" target="_top" xlink:title="CScript::SetDestination">
<polygon fill="white" stroke="black" points="490,-76.5 490,-95.5 610,-95.5 610,-76.5 490,-76.5"/>
<text text-anchor="middle" x="550" y="-83.5" font-family="Helvetica,sans-Serif" font-size="10.00">CScript::SetDestination</text>
</a>
</g>
</g>
<!-- Node9&#45;&gt;Node10 -->
<g id="edge9" class="edge"><title>Node9&#45;&gt;Node10</title>
<path fill="none" stroke="midnightblue" d="M407.55,-86C426.095,-86 453.653,-86 479.53,-86"/>
<polygon fill="midnightblue" stroke="midnightblue" points="479.722,-89.5001 489.722,-86 479.722,-82.5001 479.722,-89.5001"/>
</g>
</g>
</svg>
