<?xml version="1.0" encoding="UTF-8" standalone="no"?>
<!DOCTYPE svg PUBLIC "-//W3C//DTD SVG 1.1//EN"
 "http://www.w3.org/Graphics/SVG/1.1/DTD/svg11.dtd">
<!-- Generated by graphviz version 2.38.0 (20140413.2041)
 -->
<!-- Title: SendCoinsEntry::on_addressBookButton_clicked Pages: 1 -->
<svg width="1030pt" height="156pt"
 viewBox="0.00 0.00 1030.00 156.00" xmlns="http://www.w3.org/2000/svg" xmlns:xlink="http://www.w3.org/1999/xlink">
<g id="graph0" class="graph" transform="scale(1 1) rotate(0) translate(4 152)">
<title>SendCoinsEntry::on_addressBookButton_clicked</title>
<polygon fill="white" stroke="none" points="-4,4 -4,-152 1026,-152 1026,4 -4,4"/>
<!-- Node1 -->
<g id="node1" class="node"><title>Node1</title>
<polygon fill="#bfbfbf" stroke="black" points="0,-49.5 0,-79.5 145,-79.5 145,-49.5 0,-49.5"/>
<text text-anchor="start" x="8" y="-67.5" font-family="Helvetica,sans-Serif" font-size="10.00">SendCoinsEntry::on</text>
<text text-anchor="middle" x="72.5" y="-56.5" font-family="Helvetica,sans-Serif" font-size="10.00">_addressBookButton_clicked</text>
</g>
<!-- Node2 -->
<g id="node2" class="node"><title>Node2</title>
<g id="a_node2"><a xlink:href="class_address_book_page.html#a1282cda9cb0300ee04c472ec4c9949f3" target="_top" xlink:title="AddressBookPage::setModel">
<polygon fill="white" stroke="black" points="185,-99 185,-118 330,-118 330,-99 185,-99"/>
<text text-anchor="middle" x="257.5" y="-106" font-family="Helvetica,sans-Serif" font-size="10.00">AddressBookPage::setModel</text>
</a>
</g>
</g>
<!-- Node1&#45;&gt;Node2 -->
<g id="edge1" class="edge"><title>Node1&#45;&gt;Node2</title>
<path fill="none" stroke="midnightblue" d="M135.966,-79.5192C159.222,-85.1108 185.269,-91.3735 207.184,-96.6426"/>
<polygon fill="midnightblue" stroke="midnightblue" points="206.396,-100.053 216.937,-98.9876 208.032,-93.2467 206.396,-100.053"/>
</g>
<!-- Node9 -->
<g id="node9" class="node"><title>Node9</title>
<g id="a_node9"><a xlink:href="class_wallet_model.html#a89ed202e2dbc04aaa70d72872b95b351" target="_top" xlink:title="WalletModel::getAddressTable\lModel">
<polygon fill="white" stroke="black" points="181,-49.5 181,-79.5 334,-79.5 334,-49.5 181,-49.5"/>
<text text-anchor="start" x="189" y="-67.5" font-family="Helvetica,sans-Serif" font-size="10.00">WalletModel::getAddressTable</text>
<text text-anchor="middle" x="257.5" y="-56.5" font-family="Helvetica,sans-Serif" font-size="10.00">Model</text>
</a>
</g>
</g>
<!-- Node1&#45;&gt;Node9 -->
<g id="edge8" class="edge"><title>Node1&#45;&gt;Node9</title>
<path fill="none" stroke="midnightblue" d="M145.039,-64.5C153.469,-64.5 162.137,-64.5 170.737,-64.5"/>
<polygon fill="midnightblue" stroke="midnightblue" points="170.783,-68.0001 180.783,-64.5 170.783,-61.0001 170.783,-68.0001"/>
</g>
<!-- Node10 -->
<g id="node10" class="node"><title>Node10</title>
<g id="a_node10"><a xlink:href="class_address_book_page.html#a204f9ff847c26eb900fac7a3d0a6ab4f" target="_top" xlink:title="AddressBookPage::getReturn\lValue">
<polygon fill="white" stroke="black" points="183,-0.5 183,-30.5 332,-30.5 332,-0.5 183,-0.5"/>
<text text-anchor="start" x="191" y="-18.5" font-family="Helvetica,sans-Serif" font-size="10.00">AddressBookPage::getReturn</text>
<text text-anchor="middle" x="257.5" y="-7.5" font-family="Helvetica,sans-Serif" font-size="10.00">Value</text>
</a>
</g>
</g>
<!-- Node1&#45;&gt;Node10 -->
<g id="edge9" class="edge"><title>Node1&#45;&gt;Node10</title>
<path fill="none" stroke="midnightblue" d="M129.899,-49.3986C149.035,-44.2747 170.586,-38.5044 190.408,-33.1968"/>
<polygon fill="midnightblue" stroke="midnightblue" points="191.533,-36.519 200.287,-30.5516 189.722,-29.7572 191.533,-36.519"/>
</g>
<!-- Node3 -->
<g id="node3" class="node"><title>Node3</title>
<g id="a_node3"><a xlink:href="class_address_book_page.html#a9df2b5984c8b4ab2c4b5eade1aab8f3e" target="_top" xlink:title="Set button states based on selected tab and selection. ">
<polygon fill="white" stroke="black" points="373.5,-117.5 373.5,-147.5 517.5,-147.5 517.5,-117.5 373.5,-117.5"/>
<text text-anchor="start" x="381.5" y="-135.5" font-family="Helvetica,sans-Serif" font-size="10.00">AddressBookPage::selection</text>
<text text-anchor="middle" x="445.5" y="-124.5" font-family="Helvetica,sans-Serif" font-size="10.00">Changed</text>
</a>
</g>
</g>
<!-- Node2&#45;&gt;Node3 -->
<g id="edge2" class="edge"><title>Node2&#45;&gt;Node3</title>
<path fill="none" stroke="midnightblue" d="M330.146,-117.745C340.959,-119.14 352.179,-120.588 363.177,-122.007"/>
<polygon fill="midnightblue" stroke="midnightblue" points="362.832,-125.491 373.197,-123.3 363.728,-118.549 362.832,-125.491"/>
</g>
<!-- Node4 -->
<g id="node4" class="node"><title>Node4</title>
<g id="a_node4"><a xlink:href="class_address_book_page.html#ab62ba5d31e2d64c4d901da58d6b32a59" target="_top" xlink:title="New entry/entries were added to address table. ">
<polygon fill="white" stroke="black" points="370,-68.5 370,-98.5 521,-98.5 521,-68.5 370,-68.5"/>
<text text-anchor="start" x="378" y="-86.5" font-family="Helvetica,sans-Serif" font-size="10.00">AddressBookPage::selectNew</text>
<text text-anchor="middle" x="445.5" y="-75.5" font-family="Helvetica,sans-Serif" font-size="10.00">Address</text>
</a>
</g>
</g>
<!-- Node2&#45;&gt;Node4 -->
<g id="edge3" class="edge"><title>Node2&#45;&gt;Node4</title>
<path fill="none" stroke="midnightblue" d="M329.349,-98.9773C339.282,-97.6422 349.572,-96.2591 359.731,-94.8937"/>
<polygon fill="midnightblue" stroke="midnightblue" points="360.383,-98.3376 369.827,-93.5366 359.45,-91.4 360.383,-98.3376"/>
</g>
<!-- Node5 -->
<g id="node5" class="node"><title>Node5</title>
<g id="a_node5"><a xlink:href="class_address_table_model.html#a84f095bae13574410fceba53f8184abc" target="_top" xlink:title="AddressTableModel::\lindex">
<polygon fill="white" stroke="black" points="557,-68.5 557,-98.5 668,-98.5 668,-68.5 557,-68.5"/>
<text text-anchor="start" x="565" y="-86.5" font-family="Helvetica,sans-Serif" font-size="10.00">AddressTableModel::</text>
<text text-anchor="middle" x="612.5" y="-75.5" font-family="Helvetica,sans-Serif" font-size="10.00">index</text>
</a>
</g>
</g>
<!-- Node4&#45;&gt;Node5 -->
<g id="edge4" class="edge"><title>Node4&#45;&gt;Node5</title>
<path fill="none" stroke="midnightblue" d="M521.276,-83.5C529.762,-83.5 538.359,-83.5 546.702,-83.5"/>
<polygon fill="midnightblue" stroke="midnightblue" points="546.729,-87.0001 556.729,-83.5 546.729,-80.0001 546.729,-87.0001"/>
</g>
<!-- Node6 -->
<g id="node6" class="node"><title>Node6</title>
<g id="a_node6"><a xlink:href="class_address_table_model.html#a5ff6e3e2dab8b80428c4f59c4f1bc95a" target="_top" xlink:title="AddressTableModel::data">
<polygon fill="white" stroke="black" points="704,-93 704,-112 834,-112 834,-93 704,-93"/>
<text text-anchor="middle" x="769" y="-100" font-family="Helvetica,sans-Serif" font-size="10.00">AddressTableModel::data</text>
</a>
</g>
</g>
<!-- Node5&#45;&gt;Node6 -->
<g id="edge5" class="edge"><title>Node5&#45;&gt;Node6</title>
<path fill="none" stroke="midnightblue" d="M668.406,-90.2522C676.635,-91.2642 685.234,-92.3216 693.783,-93.373"/>
<polygon fill="midnightblue" stroke="midnightblue" points="693.419,-96.8545 703.771,-94.6013 694.273,-89.9068 693.419,-96.8545"/>
</g>
<!-- Node8 -->
<g id="node8" class="node"><title>Node8</title>
<g id="a_node8"><a xlink:href="class_address_table_priv.html#af311eb7d0189a74a508d7ad0f563f307" target="_top" xlink:title="AddressTablePriv::index">
<polygon fill="white" stroke="black" points="706.5,-55 706.5,-74 831.5,-74 831.5,-55 706.5,-55"/>
<text text-anchor="middle" x="769" y="-62" font-family="Helvetica,sans-Serif" font-size="10.00">AddressTablePriv::index</text>
</a>
</g>
</g>
<!-- Node5&#45;&gt;Node8 -->
<g id="edge7" class="edge"><title>Node5&#45;&gt;Node8</title>
<path fill="none" stroke="midnightblue" d="M668.406,-76.7478C677.451,-75.6355 686.943,-74.4682 696.324,-73.3145"/>
<polygon fill="midnightblue" stroke="midnightblue" points="696.937,-76.7656 706.435,-72.0712 696.082,-69.818 696.937,-76.7656"/>
</g>
<!-- Node7 -->
<g id="node7" class="node"><title>Node7</title>
<g id="a_node7"><a xlink:href="namespace_g_u_i_util.html#ad284d2b3b4732d897cf6f1d751065e98" target="_top" xlink:title="GUIUtil::anoncoinAddressFont">
<polygon fill="white" stroke="black" points="870,-93 870,-112 1022,-112 1022,-93 870,-93"/>
<text text-anchor="middle" x="946" y="-100" font-family="Helvetica,sans-Serif" font-size="10.00">GUIUtil::anoncoinAddressFont</text>
</a>
</g>
</g>
<!-- Node6&#45;&gt;Node7 -->
<g id="edge6" class="edge"><title>Node6&#45;&gt;Node7</title>
<path fill="none" stroke="midnightblue" d="M834.17,-102.5C842.513,-102.5 851.162,-102.5 859.781,-102.5"/>
<polygon fill="midnightblue" stroke="midnightblue" points="859.866,-106 869.866,-102.5 859.866,-99.0001 859.866,-106"/>
</g>
</g>
</svg>
