<?xml version="1.0" encoding="UTF-8" standalone="no"?>
<!DOCTYPE svg PUBLIC "-//W3C//DTD SVG 1.1//EN"
 "http://www.w3.org/Graphics/SVG/1.1/DTD/svg11.dtd">
<!-- Generated by graphviz version 2.38.0 (20140413.2041)
 -->
<!-- Title: CCoinsViewMemPool::GetCoins Pages: 1 -->
<svg width="281pt" height="66pt"
 viewBox="0.00 0.00 281.00 66.00" xmlns="http://www.w3.org/2000/svg" xmlns:xlink="http://www.w3.org/1999/xlink">
<g id="graph0" class="graph" transform="scale(1 1) rotate(0) translate(4 62)">
<title>CCoinsViewMemPool::GetCoins</title>
<polygon fill="white" stroke="none" points="-4,4 -4,-62 277,-62 277,4 -4,4"/>
<!-- Node1 -->
<g id="node1" class="node"><title>Node1</title>
<polygon fill="#bfbfbf" stroke="black" points="0,-14 0,-44 119,-44 119,-14 0,-14"/>
<text text-anchor="start" x="8" y="-32" font-family="Helvetica,sans-Serif" font-size="10.00">CCoinsViewMemPool::</text>
<text text-anchor="middle" x="59.5" y="-21" font-family="Helvetica,sans-Serif" font-size="10.00">GetCoins</text>
</g>
<!-- Node2 -->
<g id="node2" class="node"><title>Node2</title>
<g id="a_node2"><a xlink:href="class_c_coins_view.html#a7fe9216505bc5f3d78f2938bc7b29e26" target="_top" xlink:title="CCoinsView::GetCoins">
<polygon fill="white" stroke="black" points="155,-38.5 155,-57.5 273,-57.5 273,-38.5 155,-38.5"/>
<text text-anchor="middle" x="214" y="-45.5" font-family="Helvetica,sans-Serif" font-size="10.00">CCoinsView::GetCoins</text>
</a>
</g>
</g>
<!-- Node1&#45;&gt;Node2 -->
<g id="edge1" class="edge"><title>Node1&#45;&gt;Node2</title>
<path fill="none" stroke="midnightblue" d="M119.024,-36.2916C127.476,-37.3446 136.236,-38.436 144.856,-39.5099"/>
<polygon fill="midnightblue" stroke="midnightblue" points="144.528,-42.996 154.884,-40.7593 145.394,-36.0497 144.528,-42.996"/>
</g>
<!-- Node3 -->
<g id="node3" class="node"><title>Node3</title>
<g id="a_node3"><a xlink:href="class_c_tx_mem_pool.html#a8c19232d17e668c6690721b0f5088960" target="_top" xlink:title="CTxMemPool::lookup">
<polygon fill="white" stroke="black" points="158,-0.5 158,-19.5 270,-19.5 270,-0.5 158,-0.5"/>
<text text-anchor="middle" x="214" y="-7.5" font-family="Helvetica,sans-Serif" font-size="10.00">CTxMemPool::lookup</text>
</a>
</g>
</g>
<!-- Node1&#45;&gt;Node3 -->
<g id="edge2" class="edge"><title>Node1&#45;&gt;Node3</title>
<path fill="none" stroke="midnightblue" d="M119.024,-21.7084C128.4,-20.5403 138.155,-19.325 147.677,-18.1386"/>
<polygon fill="midnightblue" stroke="midnightblue" points="148.4,-21.5757 157.89,-16.8662 147.534,-14.6294 148.4,-21.5757"/>
</g>
</g>
</svg>
