<?xml version="1.0" encoding="UTF-8" standalone="no"?>
<!DOCTYPE svg PUBLIC "-//W3C//DTD SVG 1.1//EN"
 "http://www.w3.org/Graphics/SVG/1.1/DTD/svg11.dtd">
<!-- Generated by graphviz version 2.38.0 (20140413.2041)
 -->
<!-- Title: ReceiveRequestDialog Pages: 1 -->
<svg width="709pt" height="286pt"
 viewBox="0.00 0.00 708.50 286.00" xmlns="http://www.w3.org/2000/svg" xmlns:xlink="http://www.w3.org/1999/xlink">
<g id="graph0" class="graph" transform="scale(1 1) rotate(0) translate(4 282)">
<title>ReceiveRequestDialog</title>
<polygon fill="white" stroke="none" points="-4,4 -4,-282 704.5,-282 704.5,4 -4,4"/>
<!-- Node1 -->
<g id="node1" class="node"><title>Node1</title>
<polygon fill="#bfbfbf" stroke="black" points="383.5,-0.5 383.5,-19.5 501.5,-19.5 501.5,-0.5 383.5,-0.5"/>
<text text-anchor="middle" x="442.5" y="-7.5" font-family="Helvetica,sans-Serif" font-size="10.00">ReceiveRequestDialog</text>
</g>
<!-- Node2 -->
<g id="node2" class="node"><title>Node2</title>
<polygon fill="white" stroke="#bfbfbf" points="249,-67.5 249,-86.5 302,-86.5 302,-67.5 249,-67.5"/>
<text text-anchor="middle" x="275.5" y="-74.5" font-family="Helvetica,sans-Serif" font-size="10.00">QDialog</text>
</g>
<!-- Node2&#45;&gt;Node1 -->
<g id="edge1" class="edge"><title>Node2&#45;&gt;Node1</title>
<path fill="none" stroke="midnightblue" d="M307.348,-63.6041C340.506,-50.6984 391.559,-30.8272 420.498,-19.5637"/>
<polygon fill="midnightblue" stroke="midnightblue" points="305.726,-60.4796 297.676,-67.3685 308.265,-67.0029 305.726,-60.4796"/>
</g>
<!-- Node3 -->
<g id="node3" class="node"><title>Node3</title>
<g id="a_node3"><a xlink:href="class_send_coins_recipient.html" target="_top" xlink:title="SendCoinsRecipient">
<polygon fill="white" stroke="black" points="320,-67.5 320,-86.5 427,-86.5 427,-67.5 320,-67.5"/>
<text text-anchor="middle" x="373.5" y="-74.5" font-family="Helvetica,sans-Serif" font-size="10.00">SendCoinsRecipient</text>
</a>
</g>
</g>
<!-- Node3&#45;&gt;Node1 -->
<g id="edge2" class="edge"><title>Node3&#45;&gt;Node1</title>
<path fill="none" stroke="#9a32cd" stroke-dasharray="5,2" d="M390.106,-60.3564C403.671,-47.5777 422.34,-29.9915 433.342,-19.6273"/>
<polygon fill="#9a32cd" stroke="#9a32cd" points="387.685,-57.8292 382.806,-67.2338 392.485,-62.9245 387.685,-57.8292"/>
<text text-anchor="middle" x="422" y="-41" font-family="Helvetica,sans-Serif" font-size="10.00"> info</text>
</g>
<!-- Node4 -->
<g id="node4" class="node"><title>Node4</title>
<g id="a_node4"><a xlink:href="class_payment_request_plus.html" target="_top" xlink:title="PaymentRequestPlus">
<polygon fill="white" stroke="black" points="268,-134.5 268,-153.5 381,-153.5 381,-134.5 268,-134.5"/>
<text text-anchor="middle" x="324.5" y="-141.5" font-family="Helvetica,sans-Serif" font-size="10.00">PaymentRequestPlus</text>
</a>
</g>
</g>
<!-- Node4&#45;&gt;Node3 -->
<g id="edge3" class="edge"><title>Node4&#45;&gt;Node3</title>
<path fill="none" stroke="#9a32cd" stroke-dasharray="5,2" d="M337.388,-125.904C346.91,-113.273 359.475,-96.6041 366.996,-86.6273"/>
<polygon fill="#9a32cd" stroke="#9a32cd" points="334.333,-124.142 331.108,-134.234 339.923,-128.355 334.333,-124.142"/>
<text text-anchor="middle" x="392" y="-108" font-family="Helvetica,sans-Serif" font-size="10.00"> paymentRequest</text>
</g>
<!-- Node5 -->
<g id="node5" class="node"><title>Node5</title>
<g id="a_node5"><a xlink:href="classpayments_1_1_payment_details.html" target="_top" xlink:title="payments::PaymentDetails">
<polygon fill="white" stroke="black" points="0,-201.5 0,-220.5 135,-220.5 135,-201.5 0,-201.5"/>
<text text-anchor="middle" x="67.5" y="-208.5" font-family="Helvetica,sans-Serif" font-size="10.00">payments::PaymentDetails</text>
</a>
</g>
</g>
<!-- Node5&#45;&gt;Node4 -->
<g id="edge4" class="edge"><title>Node5&#45;&gt;Node4</title>
<path fill="none" stroke="#9a32cd" stroke-dasharray="5,2" d="M111.372,-198.904C162.093,-186.076 244.489,-165.236 290.562,-153.583"/>
<polygon fill="#9a32cd" stroke="#9a32cd" points="110.199,-195.59 101.363,-201.436 111.915,-202.377 110.199,-195.59"/>
<text text-anchor="middle" x="227.5" y="-175" font-family="Helvetica,sans-Serif" font-size="10.00"> details</text>
</g>
<!-- Node5&#45;&gt;Node5 -->
<g id="edge6" class="edge"><title>Node5&#45;&gt;Node5</title>
<path fill="none" stroke="#9a32cd" stroke-dasharray="5,2" d="M145.497,-214.629C150.187,-213.765 153,-212.555 153,-211 153,-208.512 145.798,-206.908 135.233,-206.189"/>
<polygon fill="#9a32cd" stroke="#9a32cd" points="144.767,-211.19 135.233,-215.811 145.568,-218.144 144.767,-211.19"/>
<text text-anchor="middle" x="194" y="-208.5" font-family="Helvetica,sans-Serif" font-size="10.00"> default_instance_</text>
</g>
<!-- Node6 -->
<g id="node6" class="node"><title>Node6</title>
<polygon fill="white" stroke="#bfbfbf" points="139,-258.5 139,-277.5 196,-277.5 196,-258.5 139,-258.5"/>
<text text-anchor="middle" x="167.5" y="-265.5" font-family="Helvetica,sans-Serif" font-size="10.00">Message</text>
</g>
<!-- Node6&#45;&gt;Node5 -->
<g id="edge5" class="edge"><title>Node6&#45;&gt;Node5</title>
<path fill="none" stroke="midnightblue" d="M143.019,-253.535C124.294,-243.236 99.0447,-229.35 83.0153,-220.533"/>
<polygon fill="midnightblue" stroke="midnightblue" points="141.426,-256.654 151.875,-258.406 144.8,-250.52 141.426,-256.654"/>
</g>
<!-- Node7 -->
<g id="node7" class="node"><title>Node7</title>
<g id="a_node7"><a xlink:href="classpayments_1_1_payment_request.html" target="_top" xlink:title="payments::PaymentRequest">
<polygon fill="white" stroke="black" points="253.5,-201.5 253.5,-220.5 395.5,-220.5 395.5,-201.5 253.5,-201.5"/>
<text text-anchor="middle" x="324.5" y="-208.5" font-family="Helvetica,sans-Serif" font-size="10.00">payments::PaymentRequest</text>
</a>
</g>
</g>
<!-- Node6&#45;&gt;Node7 -->
<g id="edge8" class="edge"><title>Node6&#45;&gt;Node7</title>
<path fill="none" stroke="midnightblue" d="M201.586,-255.059C231.315,-244.644 273.711,-229.792 300.141,-220.533"/>
<polygon fill="midnightblue" stroke="midnightblue" points="200.312,-251.797 192.031,-258.406 202.626,-258.403 200.312,-251.797"/>
</g>
<!-- Node7&#45;&gt;Node4 -->
<g id="edge7" class="edge"><title>Node7&#45;&gt;Node4</title>
<path fill="none" stroke="#9a32cd" stroke-dasharray="5,2" d="M324.5,-191.037C324.5,-178.67 324.5,-163.12 324.5,-153.627"/>
<polygon fill="#9a32cd" stroke="#9a32cd" points="321,-191.234 324.5,-201.234 328,-191.234 321,-191.234"/>
<text text-anchor="middle" x="364" y="-175" font-family="Helvetica,sans-Serif" font-size="10.00"> paymentRequest</text>
</g>
<!-- Node7&#45;&gt;Node7 -->
<g id="edge9" class="edge"><title>Node7&#45;&gt;Node7</title>
<path fill="none" stroke="#9a32cd" stroke-dasharray="5,2" d="M406.009,-214.572C410.699,-213.712 413.5,-212.521 413.5,-211 413.5,-208.566 406.329,-206.979 395.726,-206.237"/>
<polygon fill="#9a32cd" stroke="#9a32cd" points="405.257,-211.135 395.726,-215.763 406.062,-218.089 405.257,-211.135"/>
<text text-anchor="middle" x="454.5" y="-208.5" font-family="Helvetica,sans-Serif" font-size="10.00"> default_instance_</text>
</g>
<!-- Node8 -->
<g id="node8" class="node"><title>Node8</title>
<g id="a_node8"><a xlink:href="class_ui_1_1_receive_request_dialog.html" target="_top" xlink:title="Ui::ReceiveRequestDialog">
<polygon fill="white" stroke="black" points="445,-67.5 445,-86.5 578,-86.5 578,-67.5 445,-67.5"/>
<text text-anchor="middle" x="511.5" y="-74.5" font-family="Helvetica,sans-Serif" font-size="10.00">Ui::ReceiveRequestDialog</text>
</a>
</g>
</g>
<!-- Node8&#45;&gt;Node1 -->
<g id="edge10" class="edge"><title>Node8&#45;&gt;Node1</title>
<path fill="none" stroke="#9a32cd" stroke-dasharray="5,2" d="M494.894,-60.3564C481.329,-47.5777 462.66,-29.9915 451.658,-19.6273"/>
<polygon fill="#9a32cd" stroke="#9a32cd" points="492.515,-62.9245 502.194,-67.2338 497.315,-57.8292 492.515,-62.9245"/>
<text text-anchor="middle" x="487" y="-41" font-family="Helvetica,sans-Serif" font-size="10.00"> ui</text>
</g>
<!-- Node9 -->
<g id="node9" class="node"><title>Node9</title>
<g id="a_node9"><a xlink:href="class_ui___receive_request_dialog.html" target="_top" xlink:title="Ui_ReceiveRequestDialog">
<polygon fill="white" stroke="black" points="445,-134.5 445,-153.5 578,-153.5 578,-134.5 445,-134.5"/>
<text text-anchor="middle" x="511.5" y="-141.5" font-family="Helvetica,sans-Serif" font-size="10.00">Ui_ReceiveRequestDialog</text>
</a>
</g>
</g>
<!-- Node9&#45;&gt;Node8 -->
<g id="edge11" class="edge"><title>Node9&#45;&gt;Node8</title>
<path fill="none" stroke="midnightblue" d="M511.5,-124.037C511.5,-111.67 511.5,-96.1198 511.5,-86.6273"/>
<polygon fill="midnightblue" stroke="midnightblue" points="508,-124.234 511.5,-134.234 515,-124.234 508,-124.234"/>
</g>
<!-- Node10 -->
<g id="node10" class="node"><title>Node10</title>
<g id="a_node10"><a xlink:href="class_q_r_image_widget.html" target="_top" xlink:title="QRImageWidget">
<polygon fill="white" stroke="black" points="513.5,-201.5 513.5,-220.5 603.5,-220.5 603.5,-201.5 513.5,-201.5"/>
<text text-anchor="middle" x="558.5" y="-208.5" font-family="Helvetica,sans-Serif" font-size="10.00">QRImageWidget</text>
</a>
</g>
</g>
<!-- Node10&#45;&gt;Node9 -->
<g id="edge12" class="edge"><title>Node10&#45;&gt;Node9</title>
<path fill="none" stroke="#9a32cd" stroke-dasharray="5,2" d="M546.138,-192.904C537.005,-180.273 524.952,-163.604 517.738,-153.627"/>
<polygon fill="#9a32cd" stroke="#9a32cd" points="543.466,-195.181 552.161,-201.234 549.138,-191.079 543.466,-195.181"/>
<text text-anchor="middle" x="564.5" y="-175" font-family="Helvetica,sans-Serif" font-size="10.00"> lblQRCode</text>
</g>
<!-- Node11 -->
<g id="node11" class="node"><title>Node11</title>
<polygon fill="white" stroke="#bfbfbf" points="534,-258.5 534,-277.5 583,-277.5 583,-258.5 534,-258.5"/>
<text text-anchor="middle" x="558.5" y="-265.5" font-family="Helvetica,sans-Serif" font-size="10.00">QLabel</text>
</g>
<!-- Node11&#45;&gt;Node10 -->
<g id="edge13" class="edge"><title>Node11&#45;&gt;Node10</title>
<path fill="none" stroke="midnightblue" d="M558.5,-248.117C558.5,-238.817 558.5,-228.056 558.5,-220.715"/>
<polygon fill="midnightblue" stroke="midnightblue" points="555,-248.406 558.5,-258.406 562,-248.406 555,-248.406"/>
</g>
<!-- Node12 -->
<g id="node12" class="node"><title>Node12</title>
<g id="a_node12"><a xlink:href="class_options_model.html" target="_top" xlink:title="Interface from Qt to configuration data structure for Anoncoin client. ">
<polygon fill="white" stroke="black" points="603.5,-67.5 603.5,-86.5 681.5,-86.5 681.5,-67.5 603.5,-67.5"/>
<text text-anchor="middle" x="642.5" y="-74.5" font-family="Helvetica,sans-Serif" font-size="10.00">OptionsModel</text>
</a>
</g>
</g>
<!-- Node12&#45;&gt;Node1 -->
<g id="edge14" class="edge"><title>Node12&#45;&gt;Node1</title>
<path fill="none" stroke="#9a32cd" stroke-dasharray="5,2" d="M606.394,-64.2654C566.765,-51.3862 504.104,-31.0214 468.85,-19.5637"/>
<polygon fill="#9a32cd" stroke="#9a32cd" points="605.349,-67.6062 615.942,-67.3685 607.513,-60.949 605.349,-67.6062"/>
<text text-anchor="middle" x="570" y="-41" font-family="Helvetica,sans-Serif" font-size="10.00"> model</text>
</g>
<!-- Node13 -->
<g id="node13" class="node"><title>Node13</title>
<polygon fill="white" stroke="#bfbfbf" points="596.5,-134.5 596.5,-153.5 700.5,-153.5 700.5,-134.5 596.5,-134.5"/>
<text text-anchor="middle" x="648.5" y="-141.5" font-family="Helvetica,sans-Serif" font-size="10.00">QAbstractListModel</text>
</g>
<!-- Node13&#45;&gt;Node12 -->
<g id="edge15" class="edge"><title>Node13&#45;&gt;Node12</title>
<path fill="none" stroke="midnightblue" d="M646.75,-124.037C645.608,-111.67 644.173,-96.1198 643.296,-86.6273"/>
<polygon fill="midnightblue" stroke="midnightblue" points="643.286,-124.598 647.691,-134.234 650.257,-123.954 643.286,-124.598"/>
</g>
</g>
</svg>
