<?xml version="1.0" encoding="UTF-8" standalone="no"?>
<!DOCTYPE svg PUBLIC "-//W3C//DTD SVG 1.1//EN"
 "http://www.w3.org/Graphics/SVG/1.1/DTD/svg11.dtd">
<!-- Generated by graphviz version 2.38.0 (20140413.2041)
 -->
<!-- Title: PeerTableModel::PeerTableModel Pages: 1 -->
<svg width="1586pt" height="218pt"
 viewBox="0.00 0.00 1586.00 218.00" xmlns="http://www.w3.org/2000/svg" xmlns:xlink="http://www.w3.org/1999/xlink">
<g id="graph0" class="graph" transform="scale(1 1) rotate(0) translate(4 214)">
<title>PeerTableModel::PeerTableModel</title>
<polygon fill="white" stroke="none" points="-4,4 -4,-214 1582,-214 1582,4 -4,4"/>
<!-- Node1 -->
<g id="node1" class="node"><title>Node1</title>
<polygon fill="#bfbfbf" stroke="black" points="0,-128 0,-158 142,-158 142,-128 0,-128"/>
<text text-anchor="start" x="8" y="-146" font-family="Helvetica,sans-Serif" font-size="10.00">PeerTableModel::PeerTable</text>
<text text-anchor="middle" x="71" y="-135" font-family="Helvetica,sans-Serif" font-size="10.00">Model</text>
</g>
<!-- Node2 -->
<g id="node2" class="node"><title>Node2</title>
<g id="a_node2"><a xlink:href="class_peer_table_model.html#abae14b3fd8a38a60f752f67a57b5b0b3" target="_top" xlink:title="PeerTableModel::refresh">
<polygon fill="white" stroke="black" points="178,-133.5 178,-152.5 305,-152.5 305,-133.5 178,-133.5"/>
<text text-anchor="middle" x="241.5" y="-140.5" font-family="Helvetica,sans-Serif" font-size="10.00">PeerTableModel::refresh</text>
</a>
</g>
</g>
<!-- Node1&#45;&gt;Node2 -->
<g id="edge1" class="edge"><title>Node1&#45;&gt;Node2</title>
<path fill="none" stroke="midnightblue" d="M142.483,-143C150.818,-143 159.337,-143 167.703,-143"/>
<polygon fill="midnightblue" stroke="midnightblue" points="167.809,-146.5 177.809,-143 167.809,-139.5 167.809,-146.5"/>
</g>
<!-- Node3 -->
<g id="node3" class="node"><title>Node3</title>
<g id="a_node3"><a xlink:href="class_peer_table_priv.html#a304d99874f6cd0c67ed207546a5ca904" target="_top" xlink:title="Pull a full list of peers from vNodes into our cache. ">
<polygon fill="white" stroke="black" points="341,-133.5 341,-152.5 484,-152.5 484,-133.5 341,-133.5"/>
<text text-anchor="middle" x="412.5" y="-140.5" font-family="Helvetica,sans-Serif" font-size="10.00">PeerTablePriv::refreshPeers</text>
</a>
</g>
</g>
<!-- Node2&#45;&gt;Node3 -->
<g id="edge2" class="edge"><title>Node2&#45;&gt;Node3</title>
<path fill="none" stroke="midnightblue" d="M305.429,-143C313.636,-143 322.133,-143 330.582,-143"/>
<polygon fill="midnightblue" stroke="midnightblue" points="330.842,-146.5 340.842,-143 330.842,-139.5 330.842,-146.5"/>
</g>
<!-- Node4 -->
<g id="node4" class="node"><title>Node4</title>
<g id="a_node4"><a xlink:href="class_c_node.html#aaa77188d9df85b80e3f8a30292acf6a9" target="_top" xlink:title="CNode::copyStats">
<polygon fill="white" stroke="black" points="523,-152.5 523,-171.5 620,-171.5 620,-152.5 523,-152.5"/>
<text text-anchor="middle" x="571.5" y="-159.5" font-family="Helvetica,sans-Serif" font-size="10.00">CNode::copyStats</text>
</a>
</g>
</g>
<!-- Node3&#45;&gt;Node4 -->
<g id="edge3" class="edge"><title>Node3&#45;&gt;Node4</title>
<path fill="none" stroke="midnightblue" d="M484.192,-151.555C493.654,-152.7 503.268,-153.864 512.478,-154.978"/>
<polygon fill="midnightblue" stroke="midnightblue" points="512.327,-158.485 522.675,-156.212 513.168,-151.536 512.327,-158.485"/>
</g>
<!-- Node21 -->
<g id="node21" class="node"><title>Node21</title>
<g id="a_node21"><a xlink:href="main_8cpp.html#af0793c7c14e94d2d642f4ac89067a429" target="_top" xlink:title="Get statistics from node state. ">
<polygon fill="white" stroke="black" points="520,-114.5 520,-133.5 623,-133.5 623,-114.5 520,-114.5"/>
<text text-anchor="middle" x="571.5" y="-121.5" font-family="Helvetica,sans-Serif" font-size="10.00">GetNodeStateStats</text>
</a>
</g>
</g>
<!-- Node3&#45;&gt;Node21 -->
<g id="edge22" class="edge"><title>Node3&#45;&gt;Node21</title>
<path fill="none" stroke="midnightblue" d="M484.192,-134.445C492.756,-133.409 501.445,-132.357 509.846,-131.34"/>
<polygon fill="midnightblue" stroke="midnightblue" points="510.416,-134.797 519.923,-130.121 509.575,-127.848 510.416,-134.797"/>
</g>
<!-- Node5 -->
<g id="node5" class="node"><title>Node5</title>
<g id="a_node5"><a xlink:href="util_8h.html#a0c5a06b50cd805b1923552114494c029" target="_top" xlink:title="GetTimeMicros">
<polygon fill="white" stroke="black" points="667,-190.5 667,-209.5 751,-209.5 751,-190.5 667,-190.5"/>
<text text-anchor="middle" x="709" y="-197.5" font-family="Helvetica,sans-Serif" font-size="10.00">GetTimeMicros</text>
</a>
</g>
</g>
<!-- Node4&#45;&gt;Node5 -->
<g id="edge4" class="edge"><title>Node4&#45;&gt;Node5</title>
<path fill="none" stroke="midnightblue" d="M606.692,-171.589C624.104,-176.472 645.471,-182.464 664.087,-187.685"/>
<polygon fill="midnightblue" stroke="midnightblue" points="663.245,-191.084 673.819,-190.414 665.135,-184.344 663.245,-191.084"/>
</g>
<!-- Node6 -->
<g id="node6" class="node"><title>Node6</title>
<g id="a_node6"><a xlink:href="class_c_net_addr.html#a52a1b506f07e5450057e12a8b5a7fbcd" target="_top" xlink:title="CNetAddr::IsValid">
<polygon fill="white" stroke="black" points="661,-152.5 661,-171.5 757,-171.5 757,-152.5 661,-152.5"/>
<text text-anchor="middle" x="709" y="-159.5" font-family="Helvetica,sans-Serif" font-size="10.00">CNetAddr::IsValid</text>
</a>
</g>
</g>
<!-- Node4&#45;&gt;Node6 -->
<g id="edge5" class="edge"><title>Node4&#45;&gt;Node6</title>
<path fill="none" stroke="midnightblue" d="M620.272,-162C629.999,-162 640.329,-162 650.357,-162"/>
<polygon fill="midnightblue" stroke="midnightblue" points="650.659,-165.5 660.659,-162 650.659,-158.5 650.659,-165.5"/>
</g>
<!-- Node7 -->
<g id="node7" class="node"><title>Node7</title>
<g id="a_node7"><a xlink:href="class_c_service.html#a336f9848fe9364e260c76499be0351a5" target="_top" xlink:title="CService::ToString">
<polygon fill="white" stroke="black" points="659,-114.5 659,-133.5 759,-133.5 759,-114.5 659,-114.5"/>
<text text-anchor="middle" x="709" y="-121.5" font-family="Helvetica,sans-Serif" font-size="10.00">CService::ToString</text>
</a>
</g>
</g>
<!-- Node4&#45;&gt;Node7 -->
<g id="edge6" class="edge"><title>Node4&#45;&gt;Node7</title>
<path fill="none" stroke="midnightblue" d="M606.692,-152.411C624.104,-147.528 645.471,-141.536 664.087,-136.315"/>
<polygon fill="midnightblue" stroke="midnightblue" points="665.135,-139.656 673.819,-133.586 663.245,-132.916 665.135,-139.656"/>
</g>
<!-- Node8 -->
<g id="node8" class="node"><title>Node8</title>
<g id="a_node8"><a xlink:href="class_c_service.html#a39b82301356b0dfc2a92befc727b77be" target="_top" xlink:title="CService::ToStringIPPort">
<polygon fill="white" stroke="black" points="795,-114.5 795,-133.5 923,-133.5 923,-114.5 795,-114.5"/>
<text text-anchor="middle" x="859" y="-121.5" font-family="Helvetica,sans-Serif" font-size="10.00">CService::ToStringIPPort</text>
</a>
</g>
</g>
<!-- Node7&#45;&gt;Node8 -->
<g id="edge7" class="edge"><title>Node7&#45;&gt;Node8</title>
<path fill="none" stroke="midnightblue" d="M759.282,-124C767.502,-124 776.181,-124 784.845,-124"/>
<polygon fill="midnightblue" stroke="midnightblue" points="784.98,-127.5 794.98,-124 784.98,-120.5 784.98,-127.5"/>
</g>
<!-- Node9 -->
<g id="node9" class="node"><title>Node9</title>
<g id="a_node9"><a xlink:href="util_8cpp.html#a24f685720bf40370e5bd2a192ad50cd8" target="_top" xlink:title="Return string argument or default value. ">
<polygon fill="white" stroke="black" points="994.5,-190.5 994.5,-209.5 1042.5,-209.5 1042.5,-190.5 994.5,-190.5"/>
<text text-anchor="middle" x="1018.5" y="-197.5" font-family="Helvetica,sans-Serif" font-size="10.00">GetArg</text>
</a>
</g>
</g>
<!-- Node8&#45;&gt;Node9 -->
<g id="edge8" class="edge"><title>Node8&#45;&gt;Node9</title>
<path fill="none" stroke="midnightblue" d="M874.584,-133.696C893.458,-145.933 927.646,-167.065 959,-181 967.136,-184.616 976.177,-187.892 984.672,-190.666"/>
<polygon fill="midnightblue" stroke="midnightblue" points="983.716,-194.034 994.305,-193.682 985.807,-187.354 983.716,-194.034"/>
</g>
<!-- Node10 -->
<g id="node10" class="node"><title>Node10</title>
<g id="a_node10"><a xlink:href="class_c_service.html#a1e0f0b98239a9097044695a9e439bb46" target="_top" xlink:title="CService::ToStringPort">
<polygon fill="white" stroke="black" points="959,-152.5 959,-171.5 1078,-171.5 1078,-152.5 959,-152.5"/>
<text text-anchor="middle" x="1018.5" y="-159.5" font-family="Helvetica,sans-Serif" font-size="10.00">CService::ToStringPort</text>
</a>
</g>
</g>
<!-- Node8&#45;&gt;Node10 -->
<g id="edge9" class="edge"><title>Node8&#45;&gt;Node10</title>
<path fill="none" stroke="midnightblue" d="M899.744,-133.589C920.528,-138.604 946.161,-144.788 968.199,-150.105"/>
<polygon fill="midnightblue" stroke="midnightblue" points="967.5,-153.537 978.042,-152.48 969.142,-146.732 967.5,-153.537"/>
</g>
<!-- Node11 -->
<g id="node11" class="node"><title>Node11</title>
<g id="a_node11"><a xlink:href="class_c_net_addr.html#a16ff4478f02f06f5a9a038a24d5da2f9" target="_top" xlink:title="CNetAddr::IsIPv4">
<polygon fill="white" stroke="black" points="1283.5,-114.5 1283.5,-133.5 1377.5,-133.5 1377.5,-114.5 1283.5,-114.5"/>
<text text-anchor="middle" x="1330.5" y="-121.5" font-family="Helvetica,sans-Serif" font-size="10.00">CNetAddr::IsIPv4</text>
</a>
</g>
</g>
<!-- Node8&#45;&gt;Node11 -->
<g id="edge10" class="edge"><title>Node8&#45;&gt;Node11</title>
<path fill="none" stroke="midnightblue" d="M923.319,-124C1015.53,-124 1185.35,-124 1273.34,-124"/>
<polygon fill="midnightblue" stroke="midnightblue" points="1273.4,-127.5 1283.4,-124 1273.4,-120.5 1273.4,-127.5"/>
</g>
<!-- Node12 -->
<g id="node12" class="node"><title>Node12</title>
<g id="a_node12"><a xlink:href="class_c_net_addr.html#a3fba9e0b18f531c0ed15794a30e8165d" target="_top" xlink:title="CNetAddr::IsTor">
<polygon fill="white" stroke="black" points="974,-76.5 974,-95.5 1063,-95.5 1063,-76.5 974,-76.5"/>
<text text-anchor="middle" x="1018.5" y="-83.5" font-family="Helvetica,sans-Serif" font-size="10.00">CNetAddr::IsTor</text>
</a>
</g>
</g>
<!-- Node8&#45;&gt;Node12 -->
<g id="edge11" class="edge"><title>Node8&#45;&gt;Node12</title>
<path fill="none" stroke="midnightblue" d="M899.744,-114.411C920.528,-109.396 946.161,-103.212 968.199,-97.8947"/>
<polygon fill="midnightblue" stroke="midnightblue" points="969.142,-101.268 978.042,-95.5201 967.5,-94.4632 969.142,-101.268"/>
</g>
<!-- Node13 -->
<g id="node13" class="node"><title>Node13</title>
<g id="a_node13"><a xlink:href="class_c_net_addr.html#a7ec845c27b63853fb0db08a4d154266f" target="_top" xlink:title="CNetAddr::ToStringIP">
<polygon fill="white" stroke="black" points="962,-38.5 962,-57.5 1075,-57.5 1075,-38.5 962,-38.5"/>
<text text-anchor="middle" x="1018.5" y="-45.5" font-family="Helvetica,sans-Serif" font-size="10.00">CNetAddr::ToStringIP</text>
</a>
</g>
</g>
<!-- Node8&#45;&gt;Node13 -->
<g id="edge12" class="edge"><title>Node8&#45;&gt;Node13</title>
<path fill="none" stroke="midnightblue" d="M874.584,-114.304C893.458,-102.067 927.646,-80.9348 959,-67 963.817,-64.8593 968.951,-62.8378 974.1,-60.9691"/>
<polygon fill="midnightblue" stroke="midnightblue" points="975.633,-64.1429 983.944,-57.5725 973.35,-57.5257 975.633,-64.1429"/>
</g>
<!-- Node14 -->
<g id="node14" class="node"><title>Node14</title>
<g id="a_node14"><a xlink:href="util_8cpp.html#a71aa75e646de8a10971f887bc71d9a75" target="_top" xlink:title="EncodeBase32">
<polygon fill="white" stroke="black" points="1133,-76.5 1133,-95.5 1217,-95.5 1217,-76.5 1133,-76.5"/>
<text text-anchor="middle" x="1175" y="-83.5" font-family="Helvetica,sans-Serif" font-size="10.00">EncodeBase32</text>
</a>
</g>
</g>
<!-- Node13&#45;&gt;Node14 -->
<g id="edge13" class="edge"><title>Node13&#45;&gt;Node14</title>
<path fill="none" stroke="midnightblue" d="M1058.49,-57.589C1078.78,-62.5809 1103.79,-68.7324 1125.35,-74.0334"/>
<polygon fill="midnightblue" stroke="midnightblue" points="1124.75,-77.4902 1135.29,-76.4799 1126.42,-70.6928 1124.75,-77.4902"/>
</g>
<!-- Node15 -->
<g id="node15" class="node"><title>Node15</title>
<g id="a_node15"><a xlink:href="class_c_service.html#ab0f791c174511056236119cc1580faeb" target="_top" xlink:title="CService::GetSockAddr">
<polygon fill="white" stroke="black" points="1114,-38.5 1114,-57.5 1236,-57.5 1236,-38.5 1114,-38.5"/>
<text text-anchor="middle" x="1175" y="-45.5" font-family="Helvetica,sans-Serif" font-size="10.00">CService::GetSockAddr</text>
</a>
</g>
</g>
<!-- Node13&#45;&gt;Node15 -->
<g id="edge14" class="edge"><title>Node13&#45;&gt;Node15</title>
<path fill="none" stroke="midnightblue" d="M1075.28,-48C1084.48,-48 1094.13,-48 1103.63,-48"/>
<polygon fill="midnightblue" stroke="midnightblue" points="1103.87,-51.5001 1113.87,-48 1103.87,-44.5001 1103.87,-51.5001"/>
</g>
<!-- Node15&#45;&gt;Node11 -->
<g id="edge15" class="edge"><title>Node15&#45;&gt;Node11</title>
<path fill="none" stroke="midnightblue" d="M1215.99,-57.5369C1222.94,-60.0551 1229.89,-63.1721 1236,-67 1255.72,-79.3488 1252.36,-92.5285 1272,-105 1275.16,-107.006 1278.55,-108.822 1282.05,-110.461"/>
<polygon fill="midnightblue" stroke="midnightblue" points="1280.9,-113.774 1291.48,-114.398 1283.6,-107.314 1280.9,-113.774"/>
</g>
<!-- Node16 -->
<g id="node16" class="node"><title>Node16</title>
<g id="a_node16"><a xlink:href="class_c_net_addr.html#aa2e2c78db01a6a27d6a2740f2ba43e90" target="_top" xlink:title="CNetAddr::GetInAddr">
<polygon fill="white" stroke="black" points="1274.5,-76.5 1274.5,-95.5 1386.5,-95.5 1386.5,-76.5 1274.5,-76.5"/>
<text text-anchor="middle" x="1330.5" y="-83.5" font-family="Helvetica,sans-Serif" font-size="10.00">CNetAddr::GetInAddr</text>
</a>
</g>
</g>
<!-- Node15&#45;&gt;Node16 -->
<g id="edge16" class="edge"><title>Node15&#45;&gt;Node16</title>
<path fill="none" stroke="midnightblue" d="M1214.73,-57.589C1234.9,-62.5809 1259.75,-68.7324 1281.16,-74.0334"/>
<polygon fill="midnightblue" stroke="midnightblue" points="1280.5,-77.4743 1291.04,-76.4799 1282.18,-70.6794 1280.5,-77.4743"/>
</g>
<!-- Node19 -->
<g id="node19" class="node"><title>Node19</title>
<g id="a_node19"><a xlink:href="class_c_net_addr.html#a0edb022cd6a186de8099799415409d57" target="_top" xlink:title="CNetAddr::IsIPv6">
<polygon fill="white" stroke="black" points="1283.5,-38.5 1283.5,-57.5 1377.5,-57.5 1377.5,-38.5 1283.5,-38.5"/>
<text text-anchor="middle" x="1330.5" y="-45.5" font-family="Helvetica,sans-Serif" font-size="10.00">CNetAddr::IsIPv6</text>
</a>
</g>
</g>
<!-- Node15&#45;&gt;Node19 -->
<g id="edge19" class="edge"><title>Node15&#45;&gt;Node19</title>
<path fill="none" stroke="midnightblue" d="M1236.23,-48C1248.31,-48 1260.97,-48 1272.92,-48"/>
<polygon fill="midnightblue" stroke="midnightblue" points="1273.21,-51.5001 1283.21,-48 1273.21,-44.5001 1273.21,-51.5001"/>
</g>
<!-- Node20 -->
<g id="node20" class="node"><title>Node20</title>
<g id="a_node20"><a xlink:href="class_c_net_addr.html#add7811be50f5fe60c4fa65b461dea98c" target="_top" xlink:title="CNetAddr::GetIn6Addr">
<polygon fill="white" stroke="black" points="1272,-0.5 1272,-19.5 1389,-19.5 1389,-0.5 1272,-0.5"/>
<text text-anchor="middle" x="1330.5" y="-7.5" font-family="Helvetica,sans-Serif" font-size="10.00">CNetAddr::GetIn6Addr</text>
</a>
</g>
</g>
<!-- Node15&#45;&gt;Node20 -->
<g id="edge20" class="edge"><title>Node15&#45;&gt;Node20</title>
<path fill="none" stroke="midnightblue" d="M1214.73,-38.411C1234.9,-33.4191 1259.75,-27.2676 1281.16,-21.9666"/>
<polygon fill="midnightblue" stroke="midnightblue" points="1282.18,-25.3206 1291.04,-19.5201 1280.5,-18.5257 1282.18,-25.3206"/>
</g>
<!-- Node17 -->
<g id="node17" class="node"><title>Node17</title>
<g id="a_node17"><a xlink:href="glibc__compat_8cpp.html#a0f46826ab0466591e136db24394923cf" target="_top" xlink:title="memcpy">
<polygon fill="white" stroke="black" points="1425,-38.5 1425,-57.5 1479,-57.5 1479,-38.5 1425,-38.5"/>
<text text-anchor="middle" x="1452" y="-45.5" font-family="Helvetica,sans-Serif" font-size="10.00">memcpy</text>
</a>
</g>
</g>
<!-- Node16&#45;&gt;Node17 -->
<g id="edge17" class="edge"><title>Node16&#45;&gt;Node17</title>
<path fill="none" stroke="midnightblue" d="M1361.65,-76.411C1377.95,-71.228 1398.18,-64.795 1415.27,-59.3617"/>
<polygon fill="midnightblue" stroke="midnightblue" points="1416.44,-62.6611 1424.91,-56.2952 1414.32,-55.9903 1416.44,-62.6611"/>
</g>
<!-- Node18 -->
<g id="node18" class="node"><title>Node18</title>
<g id="a_node18"><a xlink:href="glibc__compat_8cpp.html#a9778d49e9029dd75bc53ecbbf9f5e9a1" target="_top" xlink:title="memmove">
<polygon fill="white" stroke="black" points="1515,-38.5 1515,-57.5 1578,-57.5 1578,-38.5 1515,-38.5"/>
<text text-anchor="middle" x="1546.5" y="-45.5" font-family="Helvetica,sans-Serif" font-size="10.00">memmove</text>
</a>
</g>
</g>
<!-- Node17&#45;&gt;Node18 -->
<g id="edge18" class="edge"><title>Node17&#45;&gt;Node18</title>
<path fill="none" stroke="midnightblue" d="M1479.26,-48C1487.24,-48 1496.21,-48 1504.91,-48"/>
<polygon fill="midnightblue" stroke="midnightblue" points="1504.92,-51.5001 1514.92,-48 1504.92,-44.5001 1504.92,-51.5001"/>
</g>
<!-- Node20&#45;&gt;Node17 -->
<g id="edge21" class="edge"><title>Node20&#45;&gt;Node17</title>
<path fill="none" stroke="midnightblue" d="M1361.65,-19.589C1377.95,-24.772 1398.18,-31.205 1415.27,-36.6383"/>
<polygon fill="midnightblue" stroke="midnightblue" points="1414.32,-40.0097 1424.91,-39.7048 1416.44,-33.3389 1414.32,-40.0097"/>
</g>
</g>
</svg>
