<?xml version="1.0" encoding="UTF-8" standalone="no"?>
<!DOCTYPE svg PUBLIC "-//W3C//DTD SVG 1.1//EN"
 "http://www.w3.org/Graphics/SVG/1.1/DTD/svg11.dtd">
<!-- Generated by graphviz version 2.38.0 (20140413.2041)
 -->
<!-- Title: libzerocoin::SerialNumberSignatureOfKnowledge::Verify Pages: 1 -->
<svg width="904pt" height="138pt"
 viewBox="0.00 0.00 904.00 137.50" xmlns="http://www.w3.org/2000/svg" xmlns:xlink="http://www.w3.org/1999/xlink">
<g id="graph0" class="graph" transform="scale(1 1) rotate(0) translate(4 133.5)">
<title>libzerocoin::SerialNumberSignatureOfKnowledge::Verify</title>
<polygon fill="white" stroke="none" points="-4,4 -4,-133.5 900,-133.5 900,4 -4,4"/>
<!-- Node1 -->
<g id="node1" class="node"><title>Node1</title>
<polygon fill="#bfbfbf" stroke="black" points="0,-55 0,-85 150,-85 150,-55 0,-55"/>
<text text-anchor="start" x="8" y="-73" font-family="Helvetica,sans-Serif" font-size="10.00">libzerocoin::SerialNumber</text>
<text text-anchor="middle" x="75" y="-62" font-family="Helvetica,sans-Serif" font-size="10.00">SignatureOfKnowledge::Verify</text>
</g>
<!-- Node2 -->
<g id="node2" class="node"><title>Node2</title>
<g id="a_node2"><a xlink:href="namespacelibzerocoin.html#a860d36a6fac4250ebf4c5dad71602091" target="_top" xlink:title="Deterministically derives coin commitment group generators g &amp; h from a serial number (and group modu...">
<polygon fill="white" stroke="black" points="196.5,-99 196.5,-129 343.5,-129 343.5,-99 196.5,-99"/>
<text text-anchor="start" x="204.5" y="-117" font-family="Helvetica,sans-Serif" font-size="10.00">libzerocoin::deriveGenerators</text>
<text text-anchor="middle" x="270" y="-106" font-family="Helvetica,sans-Serif" font-size="10.00">FromSerialNumber</text>
</a>
</g>
</g>
<!-- Node1&#45;&gt;Node2 -->
<g id="edge1" class="edge"><title>Node1&#45;&gt;Node2</title>
<path fill="none" stroke="midnightblue" d="M141.88,-85.0192C158.402,-88.786 176.261,-92.8574 193.223,-96.7244"/>
<polygon fill="midnightblue" stroke="midnightblue" points="192.562,-100.163 203.09,-98.9738 194.118,-93.3385 192.562,-100.163"/>
</g>
<!-- Node5 -->
<g id="node5" class="node"><title>Node5</title>
<g id="a_node5"><a xlink:href="class_c_hash_writer.html#ae94a937211502eabf19477630090093a" target="_top" xlink:title="CHashWriter::GetHash">
<polygon fill="white" stroke="black" points="777,-80.5 777,-99.5 896,-99.5 896,-80.5 777,-80.5"/>
<text text-anchor="middle" x="836.5" y="-87.5" font-family="Helvetica,sans-Serif" font-size="10.00">CHashWriter::GetHash</text>
</a>
</g>
</g>
<!-- Node1&#45;&gt;Node5 -->
<g id="edge6" class="edge"><title>Node1&#45;&gt;Node5</title>
<path fill="none" stroke="midnightblue" d="M150.207,-71.9541C297.232,-75.8257 623.633,-84.4209 766.396,-88.1803"/>
<polygon fill="midnightblue" stroke="midnightblue" points="766.675,-91.6887 776.764,-88.4533 766.859,-84.6912 766.675,-91.6887"/>
</g>
<!-- Node6 -->
<g id="node6" class="node"><title>Node6</title>
<g id="a_node6"><a xlink:href="classlibzerocoin_1_1_serial_number_signature_of_knowledge.html#acff43e9b20208f24d0dfa870fc5a78c2" target="_top" xlink:title="libzerocoin::SerialNumber\lSignatureOfKnowledge::challenge\lCalculation">
<polygon fill="white" stroke="black" points="186,-0.5 186,-41.5 354,-41.5 354,-0.5 186,-0.5"/>
<text text-anchor="start" x="194" y="-29.5" font-family="Helvetica,sans-Serif" font-size="10.00">libzerocoin::SerialNumber</text>
<text text-anchor="start" x="194" y="-18.5" font-family="Helvetica,sans-Serif" font-size="10.00">SignatureOfKnowledge::challenge</text>
<text text-anchor="middle" x="270" y="-7.5" font-family="Helvetica,sans-Serif" font-size="10.00">Calculation</text>
</a>
</g>
</g>
<!-- Node1&#45;&gt;Node6 -->
<g id="edge5" class="edge"><title>Node1&#45;&gt;Node6</title>
<path fill="none" stroke="midnightblue" d="M135.218,-54.9654C148.813,-51.5139 163.574,-47.7662 178.162,-44.0625"/>
<polygon fill="midnightblue" stroke="midnightblue" points="179.386,-47.3629 188.217,-41.5097 177.663,-40.5781 179.386,-47.3629"/>
</g>
<!-- Node3 -->
<g id="node3" class="node"><title>Node3</title>
<g id="a_node3"><a xlink:href="namespacelibzerocoin.html#a75a628181a2a566d229108b51bf0cf57" target="_top" xlink:title="Deterministically compute a generator for a given group. ">
<polygon fill="white" stroke="black" points="390,-99 390,-129 527,-129 527,-99 390,-99"/>
<text text-anchor="start" x="398" y="-117" font-family="Helvetica,sans-Serif" font-size="10.00">libzerocoin::calculateGroup</text>
<text text-anchor="middle" x="458.5" y="-106" font-family="Helvetica,sans-Serif" font-size="10.00">Generator</text>
</a>
</g>
</g>
<!-- Node2&#45;&gt;Node3 -->
<g id="edge2" class="edge"><title>Node2&#45;&gt;Node3</title>
<path fill="none" stroke="midnightblue" d="M343.64,-114C355.426,-114 367.676,-114 379.582,-114"/>
<polygon fill="midnightblue" stroke="midnightblue" points="379.936,-117.5 389.936,-114 379.936,-110.5 379.936,-117.5"/>
</g>
<!-- Node4 -->
<g id="node4" class="node"><title>Node4</title>
<g id="a_node4"><a xlink:href="namespacelibzerocoin.html#a49d954a2ad7e4abe50ae454c900d915a" target="_top" xlink:title="Format a seed string by hashing several values. ">
<polygon fill="white" stroke="black" points="563,-101.5 563,-120.5 741,-120.5 741,-101.5 563,-101.5"/>
<text text-anchor="middle" x="652" y="-108.5" font-family="Helvetica,sans-Serif" font-size="10.00">libzerocoin::calculateGeneratorSeed</text>
</a>
</g>
</g>
<!-- Node3&#45;&gt;Node4 -->
<g id="edge3" class="edge"><title>Node3&#45;&gt;Node4</title>
<path fill="none" stroke="midnightblue" d="M527.016,-112.942C535.375,-112.811 544.049,-112.675 552.751,-112.539"/>
<polygon fill="midnightblue" stroke="midnightblue" points="553.017,-116.036 562.961,-112.379 552.908,-109.036 553.017,-116.036"/>
</g>
<!-- Node4&#45;&gt;Node5 -->
<g id="edge4" class="edge"><title>Node4&#45;&gt;Node5</title>
<path fill="none" stroke="midnightblue" d="M735.706,-101.483C746.104,-100.287 756.651,-99.073 766.801,-97.9051"/>
<polygon fill="midnightblue" stroke="midnightblue" points="767.264,-101.375 776.798,-96.7547 766.464,-94.4209 767.264,-101.375"/>
</g>
</g>
</svg>
