<?xml version="1.0" encoding="UTF-8" standalone="no"?>
<!DOCTYPE svg PUBLIC "-//W3C//DTD SVG 1.1//EN"
 "http://www.w3.org/Graphics/SVG/1.1/DTD/svg11.dtd">
<!-- Generated by graphviz version 2.38.0 (20140413.2041)
 -->
<!-- Title: CWalletDB::ReorderTransactions Pages: 1 -->
<svg width="598pt" height="28pt"
 viewBox="0.00 0.00 598.00 28.00" xmlns="http://www.w3.org/2000/svg" xmlns:xlink="http://www.w3.org/1999/xlink">
<g id="graph0" class="graph" transform="scale(1 1) rotate(0) translate(4 24)">
<title>CWalletDB::ReorderTransactions</title>
<polygon fill="white" stroke="none" points="-4,4 -4,-24 594,-24 594,4 -4,4"/>
<!-- Node1 -->
<g id="node1" class="node"><title>Node1</title>
<polygon fill="#bfbfbf" stroke="black" points="0,-0.5 0,-19.5 164,-19.5 164,-0.5 0,-0.5"/>
<text text-anchor="middle" x="82" y="-7.5" font-family="Helvetica,sans-Serif" font-size="10.00">CWalletDB::ReorderTransactions</text>
</g>
<!-- Node2 -->
<g id="node2" class="node"><title>Node2</title>
<g id="a_node2"><a xlink:href="class_c_transaction.html#a3f8666d2a275c40da14bd5eaf47dc004" target="_top" xlink:title="CTransaction::GetHash">
<polygon fill="white" stroke="black" points="200,-0.5 200,-19.5 321,-19.5 321,-0.5 200,-0.5"/>
<text text-anchor="middle" x="260.5" y="-7.5" font-family="Helvetica,sans-Serif" font-size="10.00">CTransaction::GetHash</text>
</a>
</g>
</g>
<!-- Node1&#45;&gt;Node2 -->
<g id="edge1" class="edge"><title>Node1&#45;&gt;Node2</title>
<path fill="none" stroke="midnightblue" d="M164.018,-10C172.587,-10 181.247,-10 189.673,-10"/>
<polygon fill="midnightblue" stroke="midnightblue" points="189.812,-13.5001 199.812,-10 189.812,-6.5001 189.812,-13.5001"/>
</g>
<!-- Node3 -->
<g id="node3" class="node"><title>Node3</title>
<g id="a_node3"><a xlink:href="hash_8h.html#a6de694e43f17c62025c6883965b65e63" target="_top" xlink:title="SerializeHash">
<polygon fill="white" stroke="black" points="357,-0.5 357,-19.5 435,-19.5 435,-0.5 357,-0.5"/>
<text text-anchor="middle" x="396" y="-7.5" font-family="Helvetica,sans-Serif" font-size="10.00">SerializeHash</text>
</a>
</g>
</g>
<!-- Node2&#45;&gt;Node3 -->
<g id="edge2" class="edge"><title>Node2&#45;&gt;Node3</title>
<path fill="none" stroke="midnightblue" d="M321.222,-10C329.715,-10 338.362,-10 346.604,-10"/>
<polygon fill="midnightblue" stroke="midnightblue" points="346.786,-13.5001 356.786,-10 346.786,-6.5001 346.786,-13.5001"/>
</g>
<!-- Node4 -->
<g id="node4" class="node"><title>Node4</title>
<g id="a_node4"><a xlink:href="class_c_hash_writer.html#ae94a937211502eabf19477630090093a" target="_top" xlink:title="CHashWriter::GetHash">
<polygon fill="white" stroke="black" points="471,-0.5 471,-19.5 590,-19.5 590,-0.5 471,-0.5"/>
<text text-anchor="middle" x="530.5" y="-7.5" font-family="Helvetica,sans-Serif" font-size="10.00">CHashWriter::GetHash</text>
</a>
</g>
</g>
<!-- Node3&#45;&gt;Node4 -->
<g id="edge3" class="edge"><title>Node3&#45;&gt;Node4</title>
<path fill="none" stroke="midnightblue" d="M435.324,-10C443.235,-10 451.796,-10 460.421,-10"/>
<polygon fill="midnightblue" stroke="midnightblue" points="460.54,-13.5001 470.54,-10 460.54,-6.5001 460.54,-13.5001"/>
</g>
</g>
</svg>
