<?xml version="1.0" encoding="UTF-8" standalone="no"?>
<!DOCTYPE svg PUBLIC "-//W3C//DTD SVG 1.1//EN"
 "http://www.w3.org/Graphics/SVG/1.1/DTD/svg11.dtd">
<!-- Generated by graphviz version 2.38.0 (20140413.2041)
 -->
<!-- Title: AnoncoinGUI::optionsClicked Pages: 1 -->
<svg width="510pt" height="28pt"
 viewBox="0.00 0.00 510.00 28.00" xmlns="http://www.w3.org/2000/svg" xmlns:xlink="http://www.w3.org/1999/xlink">
<g id="graph0" class="graph" transform="scale(1 1) rotate(0) translate(4 24)">
<title>AnoncoinGUI::optionsClicked</title>
<polygon fill="white" stroke="none" points="-4,4 -4,-24 506,-24 506,4 -4,4"/>
<!-- Node1 -->
<g id="node1" class="node"><title>Node1</title>
<polygon fill="#bfbfbf" stroke="black" points="0,-0.5 0,-19.5 147,-19.5 147,-0.5 0,-0.5"/>
<text text-anchor="middle" x="73.5" y="-7.5" font-family="Helvetica,sans-Serif" font-size="10.00">AnoncoinGUI::optionsClicked</text>
</g>
<!-- Node2 -->
<g id="node2" class="node"><title>Node2</title>
<g id="a_node2"><a xlink:href="class_anoncoin_g_u_i.html#a8aa41c17fd6005652003d93330dbf7fb" target="_top" xlink:title="Create the main UI actions. ">
<polygon fill="white" stroke="black" points="183,-0.5 183,-19.5 325,-19.5 325,-0.5 183,-0.5"/>
<text text-anchor="middle" x="254" y="-7.5" font-family="Helvetica,sans-Serif" font-size="10.00">AnoncoinGUI::createActions</text>
</a>
</g>
</g>
<!-- Node1&#45;&gt;Node2 -->
<g id="edge1" class="edge"><title>Node1&#45;&gt;Node2</title>
<path fill="none" stroke="midnightblue" d="M157.114,-10C165.691,-10 174.35,-10 182.772,-10"/>
<polygon fill="midnightblue" stroke="midnightblue" points="157.103,-6.5001 147.103,-10 157.103,-13.5001 157.103,-6.5001"/>
</g>
<!-- Node3 -->
<g id="node3" class="node"><title>Node3</title>
<g id="a_node3"><a xlink:href="class_anoncoin_g_u_i.html#a82d1cf09f42a7c169b3e9c8d3e54a3d0" target="_top" xlink:title="AnoncoinGUI::AnoncoinGUI">
<polygon fill="white" stroke="black" points="361,-0.5 361,-19.5 502,-19.5 502,-0.5 361,-0.5"/>
<text text-anchor="middle" x="431.5" y="-7.5" font-family="Helvetica,sans-Serif" font-size="10.00">AnoncoinGUI::AnoncoinGUI</text>
</a>
</g>
</g>
<!-- Node2&#45;&gt;Node3 -->
<g id="edge2" class="edge"><title>Node2&#45;&gt;Node3</title>
<path fill="none" stroke="midnightblue" d="M335.391,-10C343.868,-10 352.437,-10 360.779,-10"/>
<polygon fill="midnightblue" stroke="midnightblue" points="335.119,-6.5001 325.119,-10 335.119,-13.5001 335.119,-6.5001"/>
</g>
</g>
</svg>
