<?xml version="1.0" encoding="UTF-8" standalone="no"?>
<!DOCTYPE svg PUBLIC "-//W3C//DTD SVG 1.1//EN"
 "http://www.w3.org/Graphics/SVG/1.1/DTD/svg11.dtd">
<!-- Generated by graphviz version 2.38.0 (20140413.2041)
 -->
<!-- Title: payments::Payment::set_allocated_merchant_data Pages: 1 -->
<svg width="324pt" height="137pt"
 viewBox="0.00 0.00 324.00 137.00" xmlns="http://www.w3.org/2000/svg" xmlns:xlink="http://www.w3.org/1999/xlink">
<g id="graph0" class="graph" transform="scale(1 1) rotate(0) translate(4 133)">
<title>payments::Payment::set_allocated_merchant_data</title>
<polygon fill="white" stroke="none" points="-4,4 -4,-133 320,-133 320,4 -4,4"/>
<!-- Node1 -->
<g id="node1" class="node"><title>Node1</title>
<polygon fill="#bfbfbf" stroke="black" points="0,-49.5 0,-79.5 148,-79.5 148,-49.5 0,-49.5"/>
<text text-anchor="start" x="8" y="-67.5" font-family="Helvetica,sans-Serif" font-size="10.00">payments::Payment::</text>
<text text-anchor="middle" x="74" y="-56.5" font-family="Helvetica,sans-Serif" font-size="10.00">set_allocated_merchant_data</text>
</g>
<!-- Node2 -->
<g id="node2" class="node"><title>Node2</title>
<g id="a_node2"><a xlink:href="classpayments_1_1_payment.html#a2e2e674f9faf3b6fa99295ddf31302e8" target="_top" xlink:title="payments::Payment::\lset_has_merchant_data">
<polygon fill="white" stroke="black" points="188,-98.5 188,-128.5 312,-128.5 312,-98.5 188,-98.5"/>
<text text-anchor="start" x="196" y="-116.5" font-family="Helvetica,sans-Serif" font-size="10.00">payments::Payment::</text>
<text text-anchor="middle" x="250" y="-105.5" font-family="Helvetica,sans-Serif" font-size="10.00">set_has_merchant_data</text>
</a>
</g>
</g>
<!-- Node1&#45;&gt;Node2 -->
<g id="edge1" class="edge"><title>Node1&#45;&gt;Node2</title>
<path fill="none" stroke="midnightblue" d="M128.626,-79.6014C146.737,-84.7019 167.124,-90.4429 185.9,-95.7305"/>
<polygon fill="midnightblue" stroke="midnightblue" points="184.977,-99.1067 195.552,-98.4484 186.875,-92.3687 184.977,-99.1067"/>
</g>
<!-- Node3 -->
<g id="node3" class="node"><title>Node3</title>
<g id="a_node3"><a xlink:href="classpayments_1_1_payment.html#a306c3f432a874efc400f8ab9866deea6" target="_top" xlink:title="payments::Payment::\lmerchant_data">
<polygon fill="white" stroke="black" points="195,-49.5 195,-79.5 305,-79.5 305,-49.5 195,-49.5"/>
<text text-anchor="start" x="203" y="-67.5" font-family="Helvetica,sans-Serif" font-size="10.00">payments::Payment::</text>
<text text-anchor="middle" x="250" y="-56.5" font-family="Helvetica,sans-Serif" font-size="10.00">merchant_data</text>
</a>
</g>
</g>
<!-- Node1&#45;&gt;Node3 -->
<g id="edge2" class="edge"><title>Node1&#45;&gt;Node3</title>
<path fill="none" stroke="midnightblue" d="M148.035,-64.5C160.192,-64.5 172.722,-64.5 184.642,-64.5"/>
<polygon fill="midnightblue" stroke="midnightblue" points="184.936,-68.0001 194.936,-64.5 184.936,-61.0001 184.936,-68.0001"/>
</g>
<!-- Node4 -->
<g id="node4" class="node"><title>Node4</title>
<g id="a_node4"><a xlink:href="classpayments_1_1_payment.html#a140ad684882078b402874c5286397cb6" target="_top" xlink:title="payments::Payment::\lclear_has_merchant_data">
<polygon fill="white" stroke="black" points="184,-0.5 184,-30.5 316,-30.5 316,-0.5 184,-0.5"/>
<text text-anchor="start" x="192" y="-18.5" font-family="Helvetica,sans-Serif" font-size="10.00">payments::Payment::</text>
<text text-anchor="middle" x="250" y="-7.5" font-family="Helvetica,sans-Serif" font-size="10.00">clear_has_merchant_data</text>
</a>
</g>
</g>
<!-- Node1&#45;&gt;Node4 -->
<g id="edge3" class="edge"><title>Node1&#45;&gt;Node4</title>
<path fill="none" stroke="midnightblue" d="M128.626,-49.3986C146.737,-44.2981 167.124,-38.5571 185.9,-33.2695"/>
<polygon fill="midnightblue" stroke="midnightblue" points="186.875,-36.6313 195.552,-30.5516 184.977,-29.8933 186.875,-36.6313"/>
</g>
</g>
</svg>
