<?xml version="1.0" encoding="UTF-8" standalone="no"?>
<!DOCTYPE svg PUBLIC "-//W3C//DTD SVG 1.1//EN"
 "http://www.w3.org/Graphics/SVG/1.1/DTD/svg11.dtd">
<!-- Generated by graphviz version 2.38.0 (20140413.2041)
 -->
<!-- Title: CWallet::GetUnconfirmedWatchOnlyBalance Pages: 1 -->
<svg width="913pt" height="150pt"
 viewBox="0.00 0.00 913.00 149.50" xmlns="http://www.w3.org/2000/svg" xmlns:xlink="http://www.w3.org/1999/xlink">
<g id="graph0" class="graph" transform="scale(1 1) rotate(0) translate(4 145.5)">
<title>CWallet::GetUnconfirmedWatchOnlyBalance</title>
<polygon fill="white" stroke="none" points="-4,4 -4,-145.5 909,-145.5 909,4 -4,4"/>
<!-- Node1 -->
<g id="node1" class="node"><title>Node1</title>
<polygon fill="#bfbfbf" stroke="black" points="0,-78.5 0,-108.5 158,-108.5 158,-78.5 0,-78.5"/>
<text text-anchor="start" x="8" y="-96.5" font-family="Helvetica,sans-Serif" font-size="10.00">CWallet::GetUnconfirmedWatch</text>
<text text-anchor="middle" x="79" y="-85.5" font-family="Helvetica,sans-Serif" font-size="10.00">OnlyBalance</text>
</g>
<!-- Node2 -->
<g id="node2" class="node"><title>Node2</title>
<g id="a_node2"><a xlink:href="class_wallet_model.html#abc134f63b276b9f66900a8d0a69a06ad" target="_top" xlink:title="WalletModel::getWatchUnconfirmed\lBalance">
<polygon fill="white" stroke="black" points="194,-78.5 194,-108.5 370,-108.5 370,-78.5 194,-78.5"/>
<text text-anchor="start" x="202" y="-96.5" font-family="Helvetica,sans-Serif" font-size="10.00">WalletModel::getWatchUnconfirmed</text>
<text text-anchor="middle" x="282" y="-85.5" font-family="Helvetica,sans-Serif" font-size="10.00">Balance</text>
</a>
</g>
</g>
<!-- Node1&#45;&gt;Node2 -->
<g id="edge1" class="edge"><title>Node1&#45;&gt;Node2</title>
<path fill="none" stroke="midnightblue" d="M168.509,-93.5C176.949,-93.5 185.504,-93.5 193.93,-93.5"/>
<polygon fill="midnightblue" stroke="midnightblue" points="168.287,-90.0001 158.287,-93.5 168.287,-97.0001 168.287,-90.0001"/>
</g>
<!-- Node3 -->
<g id="node3" class="node"><title>Node3</title>
<g id="a_node3"><a xlink:href="class_overview_page.html#a2ed52a3a87e9c74fee38fa873c9bc71f" target="_top" xlink:title="OverviewPage::setWalletModel">
<polygon fill="white" stroke="black" points="406,-122 406,-141 561,-141 561,-122 406,-122"/>
<text text-anchor="middle" x="483.5" y="-129" font-family="Helvetica,sans-Serif" font-size="10.00">OverviewPage::setWalletModel</text>
</a>
</g>
</g>
<!-- Node2&#45;&gt;Node3 -->
<g id="edge2" class="edge"><title>Node2&#45;&gt;Node3</title>
<path fill="none" stroke="midnightblue" d="M371.71,-110.397C392.601,-114.376 414.147,-118.48 432.62,-121.999"/>
<polygon fill="midnightblue" stroke="midnightblue" points="372.326,-106.952 361.848,-108.519 371.016,-113.828 372.326,-106.952"/>
</g>
<!-- Node6 -->
<g id="node6" class="node"><title>Node6</title>
<g id="a_node6"><a xlink:href="class_send_coins_dialog.html#a73a6c1b1850a334ee652ac167713a2aa" target="_top" xlink:title="SendCoinsDialog::setModel">
<polygon fill="white" stroke="black" points="413.5,-84 413.5,-103 553.5,-103 553.5,-84 413.5,-84"/>
<text text-anchor="middle" x="483.5" y="-91" font-family="Helvetica,sans-Serif" font-size="10.00">SendCoinsDialog::setModel</text>
</a>
</g>
</g>
<!-- Node2&#45;&gt;Node6 -->
<g id="edge5" class="edge"><title>Node2&#45;&gt;Node6</title>
<path fill="none" stroke="midnightblue" d="M380.43,-93.5C391.584,-93.5 402.776,-93.5 413.449,-93.5"/>
<polygon fill="midnightblue" stroke="midnightblue" points="380.213,-90.0001 370.213,-93.5 380.213,-97.0001 380.213,-90.0001"/>
</g>
<!-- Node7 -->
<g id="node7" class="node"><title>Node7</title>
<g id="a_node7"><a xlink:href="class_wallet_model.html#adcc4eb8cd71cb4de223621866bb7fb7d" target="_top" xlink:title="WalletModel::checkBalance\lChanged">
<polygon fill="white" stroke="black" points="414,-34.5 414,-64.5 553,-64.5 553,-34.5 414,-34.5"/>
<text text-anchor="start" x="422" y="-52.5" font-family="Helvetica,sans-Serif" font-size="10.00">WalletModel::checkBalance</text>
<text text-anchor="middle" x="483.5" y="-41.5" font-family="Helvetica,sans-Serif" font-size="10.00">Changed</text>
</a>
</g>
</g>
<!-- Node2&#45;&gt;Node7 -->
<g id="edge7" class="edge"><title>Node2&#45;&gt;Node7</title>
<path fill="none" stroke="midnightblue" d="M361.297,-76.2316C378.829,-72.3648 397.289,-68.2934 414.37,-64.5262"/>
<polygon fill="midnightblue" stroke="midnightblue" points="360.11,-72.9091 351.099,-78.4808 361.618,-79.7448 360.11,-72.9091"/>
</g>
<!-- Node4 -->
<g id="node4" class="node"><title>Node4</title>
<g id="a_node4"><a xlink:href="class_wallet_view.html#a0a37ff693a4f9c1e5ddc23f9cd3913be" target="_top" xlink:title="Set the wallet model. ">
<polygon fill="white" stroke="black" points="597,-113 597,-132 737,-132 737,-113 597,-113"/>
<text text-anchor="middle" x="667" y="-120" font-family="Helvetica,sans-Serif" font-size="10.00">WalletView::setWalletModel</text>
</a>
</g>
</g>
<!-- Node3&#45;&gt;Node4 -->
<g id="edge3" class="edge"><title>Node3&#45;&gt;Node4</title>
<path fill="none" stroke="midnightblue" d="M571.227,-127.199C579.795,-126.775 588.411,-126.347 596.769,-125.933"/>
<polygon fill="midnightblue" stroke="midnightblue" points="571.024,-123.705 561.209,-127.696 571.37,-130.697 571.024,-123.705"/>
</g>
<!-- Node5 -->
<g id="node5" class="node"><title>Node5</title>
<g id="a_node5"><a xlink:href="class_wallet_frame.html#aa199c3f27654199d84c365cf86167d86" target="_top" xlink:title="WalletFrame::addWallet">
<polygon fill="white" stroke="black" points="777.5,-113 777.5,-132 900.5,-132 900.5,-113 777.5,-113"/>
<text text-anchor="middle" x="839" y="-120" font-family="Helvetica,sans-Serif" font-size="10.00">WalletFrame::addWallet</text>
</a>
</g>
</g>
<!-- Node4&#45;&gt;Node5 -->
<g id="edge4" class="edge"><title>Node4&#45;&gt;Node5</title>
<path fill="none" stroke="midnightblue" d="M747.222,-122.5C757.357,-122.5 767.601,-122.5 777.376,-122.5"/>
<polygon fill="midnightblue" stroke="midnightblue" points="747.146,-119 737.146,-122.5 747.145,-126 747.146,-119"/>
</g>
<!-- Node6&#45;&gt;Node4 -->
<g id="edge6" class="edge"><title>Node6&#45;&gt;Node4</title>
<path fill="none" stroke="midnightblue" d="M554.16,-104.63C571.351,-107.377 589.611,-110.295 606.283,-112.958"/>
<polygon fill="midnightblue" stroke="midnightblue" points="554.608,-101.158 544.181,-103.036 553.504,-108.07 554.608,-101.158"/>
</g>
<!-- Node8 -->
<g id="node8" class="node"><title>Node8</title>
<g id="a_node8"><a xlink:href="class_wallet_model.html#a51469b2d95cfd4bc0a14ee456fca7b95" target="_top" xlink:title="WalletModel::pollBalance\lChanged">
<polygon fill="white" stroke="black" points="602.5,-44.5 602.5,-74.5 731.5,-74.5 731.5,-44.5 602.5,-44.5"/>
<text text-anchor="start" x="610.5" y="-62.5" font-family="Helvetica,sans-Serif" font-size="10.00">WalletModel::pollBalance</text>
<text text-anchor="middle" x="667" y="-51.5" font-family="Helvetica,sans-Serif" font-size="10.00">Changed</text>
</a>
</g>
</g>
<!-- Node7&#45;&gt;Node8 -->
<g id="edge8" class="edge"><title>Node7&#45;&gt;Node8</title>
<path fill="none" stroke="midnightblue" d="M563.457,-53.8503C576.464,-54.5669 589.8,-55.3016 602.371,-55.9943"/>
<polygon fill="midnightblue" stroke="midnightblue" points="563.295,-50.3361 553.117,-53.2806 562.91,-57.3255 563.295,-50.3361"/>
</g>
<!-- Node10 -->
<g id="node10" class="node"><title>Node10</title>
<g id="a_node10"><a xlink:href="class_wallet_model.html#a53443aca544c824550f21e5f87e4ec39" target="_top" xlink:title="WalletModel::sendCoins">
<polygon fill="white" stroke="black" points="605,-6 605,-25 729,-25 729,-6 605,-6"/>
<text text-anchor="middle" x="667" y="-13" font-family="Helvetica,sans-Serif" font-size="10.00">WalletModel::sendCoins</text>
</a>
</g>
</g>
<!-- Node7&#45;&gt;Node10 -->
<g id="edge10" class="edge"><title>Node7&#45;&gt;Node10</title>
<path fill="none" stroke="midnightblue" d="M563.356,-34.728C580.9,-31.4417 599.046,-28.0424 615.112,-25.0327"/>
<polygon fill="midnightblue" stroke="midnightblue" points="562.302,-31.3646 553.117,-36.6461 563.591,-38.2449 562.302,-31.3646"/>
</g>
<!-- Node9 -->
<g id="node9" class="node"><title>Node9</title>
<g id="a_node9"><a xlink:href="class_wallet_model.html#af50d9654d2f20e4e4f0789dcb64ad6b1" target="_top" xlink:title="WalletModel::WalletModel">
<polygon fill="white" stroke="black" points="773,-50 773,-69 905,-69 905,-50 773,-50"/>
<text text-anchor="middle" x="839" y="-57" font-family="Helvetica,sans-Serif" font-size="10.00">WalletModel::WalletModel</text>
</a>
</g>
</g>
<!-- Node8&#45;&gt;Node9 -->
<g id="edge9" class="edge"><title>Node8&#45;&gt;Node9</title>
<path fill="none" stroke="midnightblue" d="M741.937,-59.5C752.184,-59.5 762.65,-59.5 772.724,-59.5"/>
<polygon fill="midnightblue" stroke="midnightblue" points="741.785,-56.0001 731.785,-59.5 741.785,-63.0001 741.785,-56.0001"/>
</g>
<!-- Node11 -->
<g id="node11" class="node"><title>Node11</title>
<g id="a_node11"><a xlink:href="class_send_coins_dialog.html#a2cab7cf9ea5040b9e2189297f7d3c764" target="_top" xlink:title="SendCoinsDialog::on\l_sendButton_clicked">
<polygon fill="white" stroke="black" points="784,-0.5 784,-30.5 894,-30.5 894,-0.5 784,-0.5"/>
<text text-anchor="start" x="792" y="-18.5" font-family="Helvetica,sans-Serif" font-size="10.00">SendCoinsDialog::on</text>
<text text-anchor="middle" x="839" y="-7.5" font-family="Helvetica,sans-Serif" font-size="10.00">_sendButton_clicked</text>
</a>
</g>
</g>
<!-- Node10&#45;&gt;Node11 -->
<g id="edge11" class="edge"><title>Node10&#45;&gt;Node11</title>
<path fill="none" stroke="midnightblue" d="M739.513,-15.5C754.321,-15.5 769.689,-15.5 783.758,-15.5"/>
<polygon fill="midnightblue" stroke="midnightblue" points="739.374,-12.0001 729.374,-15.5 739.374,-19.0001 739.374,-12.0001"/>
</g>
</g>
</svg>
