<?xml version="1.0" encoding="UTF-8" standalone="no"?>
<!DOCTYPE svg PUBLIC "-//W3C//DTD SVG 1.1//EN"
 "http://www.w3.org/Graphics/SVG/1.1/DTD/svg11.dtd">
<!-- Generated by graphviz version 2.38.0 (20140413.2041)
 -->
<!-- Title: payments::Payment::mutable_unknown_fields Pages: 1 -->
<svg width="621pt" height="137pt"
 viewBox="0.00 0.00 621.00 137.00" xmlns="http://www.w3.org/2000/svg" xmlns:xlink="http://www.w3.org/1999/xlink">
<g id="graph0" class="graph" transform="scale(1 1) rotate(0) translate(4 133)">
<title>payments::Payment::mutable_unknown_fields</title>
<polygon fill="white" stroke="none" points="-4,4 -4,-133 617,-133 617,4 -4,4"/>
<!-- Node1 -->
<g id="node1" class="node"><title>Node1</title>
<polygon fill="#bfbfbf" stroke="black" points="0,-49.5 0,-79.5 127,-79.5 127,-49.5 0,-49.5"/>
<text text-anchor="start" x="8" y="-67.5" font-family="Helvetica,sans-Serif" font-size="10.00">payments::Payment::</text>
<text text-anchor="middle" x="63.5" y="-56.5" font-family="Helvetica,sans-Serif" font-size="10.00">mutable_unknown_fields</text>
</g>
<!-- Node2 -->
<g id="node2" class="node"><title>Node2</title>
<g id="a_node2"><a xlink:href="classpayments_1_1_payment.html#ae705efe14adff0df980d46dd35fd036b" target="_top" xlink:title="payments::Payment::\lClear">
<polygon fill="white" stroke="black" points="187,-98.5 187,-128.5 297,-128.5 297,-98.5 187,-98.5"/>
<text text-anchor="start" x="195" y="-116.5" font-family="Helvetica,sans-Serif" font-size="10.00">payments::Payment::</text>
<text text-anchor="middle" x="242" y="-105.5" font-family="Helvetica,sans-Serif" font-size="10.00">Clear</text>
</a>
</g>
</g>
<!-- Node1&#45;&gt;Node2 -->
<g id="edge1" class="edge"><title>Node1&#45;&gt;Node2</title>
<path fill="none" stroke="midnightblue" d="M128.693,-82.3212C147.75,-87.6118 168.427,-93.3522 186.784,-98.4484"/>
<polygon fill="midnightblue" stroke="midnightblue" points="129.468,-78.9041 118.896,-79.6014 127.595,-85.649 129.468,-78.9041"/>
</g>
<!-- Node5 -->
<g id="node5" class="node"><title>Node5</title>
<g id="a_node5"><a xlink:href="classpayments_1_1_payment.html#a84d56e8815e7d5ab73220b4a659a96cf" target="_top" xlink:title="payments::Payment::\lMergePartialFromCodedStream">
<polygon fill="white" stroke="black" points="163,-49.5 163,-79.5 321,-79.5 321,-49.5 163,-49.5"/>
<text text-anchor="start" x="171" y="-67.5" font-family="Helvetica,sans-Serif" font-size="10.00">payments::Payment::</text>
<text text-anchor="middle" x="242" y="-56.5" font-family="Helvetica,sans-Serif" font-size="10.00">MergePartialFromCodedStream</text>
</a>
</g>
</g>
<!-- Node1&#45;&gt;Node5 -->
<g id="edge4" class="edge"><title>Node1&#45;&gt;Node5</title>
<path fill="none" stroke="midnightblue" d="M137.329,-64.5C145.708,-64.5 154.278,-64.5 162.725,-64.5"/>
<polygon fill="midnightblue" stroke="midnightblue" points="137.224,-61.0001 127.224,-64.5 137.224,-68.0001 137.224,-61.0001"/>
</g>
<!-- Node6 -->
<g id="node6" class="node"><title>Node6</title>
<g id="a_node6"><a xlink:href="classpayments_1_1_payment.html#add8835f7e95ca2804b395b98fbea2e80" target="_top" xlink:title="payments::Payment::\lMergeFrom">
<polygon fill="white" stroke="black" points="187,-0.5 187,-30.5 297,-30.5 297,-0.5 187,-0.5"/>
<text text-anchor="start" x="195" y="-18.5" font-family="Helvetica,sans-Serif" font-size="10.00">payments::Payment::</text>
<text text-anchor="middle" x="242" y="-7.5" font-family="Helvetica,sans-Serif" font-size="10.00">MergeFrom</text>
</a>
</g>
</g>
<!-- Node1&#45;&gt;Node6 -->
<g id="edge5" class="edge"><title>Node1&#45;&gt;Node6</title>
<path fill="none" stroke="midnightblue" d="M128.693,-46.6788C147.75,-41.3882 168.427,-35.6478 186.784,-30.5516"/>
<polygon fill="midnightblue" stroke="midnightblue" points="127.595,-43.351 118.896,-49.3986 129.468,-50.0959 127.595,-43.351"/>
</g>
<!-- Node3 -->
<g id="node3" class="node"><title>Node3</title>
<g id="a_node3"><a xlink:href="classpayments_1_1_payment.html#a5036760f7c0826218232ce0de195ae0b" target="_top" xlink:title="payments::Payment::\lCopyFrom">
<polygon fill="white" stroke="black" points="357,-98.5 357,-128.5 467,-128.5 467,-98.5 357,-98.5"/>
<text text-anchor="start" x="365" y="-116.5" font-family="Helvetica,sans-Serif" font-size="10.00">payments::Payment::</text>
<text text-anchor="middle" x="412" y="-105.5" font-family="Helvetica,sans-Serif" font-size="10.00">CopyFrom</text>
</a>
</g>
</g>
<!-- Node2&#45;&gt;Node3 -->
<g id="edge2" class="edge"><title>Node2&#45;&gt;Node3</title>
<path fill="none" stroke="midnightblue" d="M307.11,-113.5C323.476,-113.5 340.912,-113.5 356.733,-113.5"/>
<polygon fill="midnightblue" stroke="midnightblue" points="307.081,-110 297.081,-113.5 307.081,-117 307.081,-110"/>
</g>
<!-- Node4 -->
<g id="node4" class="node"><title>Node4</title>
<g id="a_node4"><a xlink:href="classpayments_1_1_payment.html#a8e5bbe83ae3320215fff8293bd10340b" target="_top" xlink:title="payments::Payment::\loperator=">
<polygon fill="white" stroke="black" points="503,-98.5 503,-128.5 613,-128.5 613,-98.5 503,-98.5"/>
<text text-anchor="start" x="511" y="-116.5" font-family="Helvetica,sans-Serif" font-size="10.00">payments::Payment::</text>
<text text-anchor="middle" x="558" y="-105.5" font-family="Helvetica,sans-Serif" font-size="10.00">operator=</text>
</a>
</g>
</g>
<!-- Node3&#45;&gt;Node4 -->
<g id="edge3" class="edge"><title>Node3&#45;&gt;Node4</title>
<path fill="none" stroke="midnightblue" d="M477.27,-113.5C485.75,-113.5 494.375,-113.5 502.667,-113.5"/>
<polygon fill="midnightblue" stroke="midnightblue" points="477.03,-110 467.03,-113.5 477.03,-117 477.03,-110"/>
</g>
</g>
</svg>
