<?xml version="1.0" encoding="UTF-8" standalone="no"?>
<!DOCTYPE svg PUBLIC "-//W3C//DTD SVG 1.1//EN"
 "http://www.w3.org/Graphics/SVG/1.1/DTD/svg11.dtd">
<!-- Generated by graphviz version 2.38.0 (20140413.2041)
 -->
<!-- Title: payments::Output::script Pages: 1 -->
<svg width="1306pt" height="310pt"
 viewBox="0.00 0.00 1306.00 310.00" xmlns="http://www.w3.org/2000/svg" xmlns:xlink="http://www.w3.org/1999/xlink">
<g id="graph0" class="graph" transform="scale(1 1) rotate(0) translate(4 306)">
<title>payments::Output::script</title>
<polygon fill="white" stroke="none" points="-4,4 -4,-306 1302,-306 1302,4 -4,4"/>
<!-- Node1 -->
<g id="node1" class="node"><title>Node1</title>
<polygon fill="#bfbfbf" stroke="black" points="0,-146 0,-165 125,-165 125,-146 0,-146"/>
<text text-anchor="middle" x="62.5" y="-153" font-family="Helvetica,sans-Serif" font-size="10.00">payments::Output::script</text>
</g>
<!-- Node2 -->
<g id="node2" class="node"><title>Node2</title>
<g id="a_node2"><a xlink:href="classpayments_1_1_output.html#aeb7bbba39eba33291922c69cf118fdfb" target="_top" xlink:title="payments::Output::Serialize\lWithCachedSizes">
<polygon fill="white" stroke="black" points="173.5,-271.5 173.5,-301.5 312.5,-301.5 312.5,-271.5 173.5,-271.5"/>
<text text-anchor="start" x="181.5" y="-289.5" font-family="Helvetica,sans-Serif" font-size="10.00">payments::Output::Serialize</text>
<text text-anchor="middle" x="243" y="-278.5" font-family="Helvetica,sans-Serif" font-size="10.00">WithCachedSizes</text>
</a>
</g>
</g>
<!-- Node1&#45;&gt;Node2 -->
<g id="edge1" class="edge"><title>Node1&#45;&gt;Node2</title>
<path fill="none" stroke="midnightblue" d="M75.2233,-173.564C91.6093,-197.395 123.591,-239.05 161,-262.5 166.468,-265.928 172.449,-268.886 178.605,-271.435"/>
<polygon fill="midnightblue" stroke="midnightblue" points="78.0235,-171.456 69.5461,-165.101 72.2103,-175.355 78.0235,-171.456"/>
</g>
<!-- Node3 -->
<g id="node3" class="node"><title>Node3</title>
<g id="a_node3"><a xlink:href="classpayments_1_1_output.html#af7de4ad0f580ce367f1f06c8125c1da0" target="_top" xlink:title="payments::Output::Serialize\lWithCachedSizesToArray">
<polygon fill="white" stroke="black" points="173.5,-222.5 173.5,-252.5 312.5,-252.5 312.5,-222.5 173.5,-222.5"/>
<text text-anchor="start" x="181.5" y="-240.5" font-family="Helvetica,sans-Serif" font-size="10.00">payments::Output::Serialize</text>
<text text-anchor="middle" x="243" y="-229.5" font-family="Helvetica,sans-Serif" font-size="10.00">WithCachedSizesToArray</text>
</a>
</g>
</g>
<!-- Node1&#45;&gt;Node3 -->
<g id="edge2" class="edge"><title>Node1&#45;&gt;Node3</title>
<path fill="none" stroke="midnightblue" d="M85.8759,-170.584C105.148,-183.079 134.038,-200.647 161,-212.5 169.218,-216.113 178.119,-219.424 186.91,-222.371"/>
<polygon fill="midnightblue" stroke="midnightblue" points="87.7679,-167.639 77.4888,-165.072 83.9233,-173.489 87.7679,-167.639"/>
</g>
<!-- Node4 -->
<g id="node4" class="node"><title>Node4</title>
<g id="a_node4"><a xlink:href="classpayments_1_1_output.html#a04597d4ce8a4c6a1d495a90db46f1e5b" target="_top" xlink:title="payments::Output::ByteSize">
<polygon fill="white" stroke="black" points="173,-184 173,-203 313,-203 313,-184 173,-184"/>
<text text-anchor="middle" x="243" y="-191" font-family="Helvetica,sans-Serif" font-size="10.00">payments::Output::ByteSize</text>
</a>
</g>
</g>
<!-- Node1&#45;&gt;Node4 -->
<g id="edge3" class="edge"><title>Node1&#45;&gt;Node4</title>
<path fill="none" stroke="midnightblue" d="M118.37,-167.181C143.684,-172.57 173.353,-178.886 197.281,-183.98"/>
<polygon fill="midnightblue" stroke="midnightblue" points="119.053,-163.748 108.543,-165.089 117.595,-170.595 119.053,-163.748"/>
</g>
<!-- Node5 -->
<g id="node5" class="node"><title>Node5</title>
<g id="a_node5"><a xlink:href="classpayments_1_1_output.html#af202416ff7c832a97ada570047e7e7cf" target="_top" xlink:title="payments::Output::MergeFrom">
<polygon fill="white" stroke="black" points="166.5,-146 166.5,-165 319.5,-165 319.5,-146 166.5,-146"/>
<text text-anchor="middle" x="243" y="-153" font-family="Helvetica,sans-Serif" font-size="10.00">payments::Output::MergeFrom</text>
</a>
</g>
</g>
<!-- Node1&#45;&gt;Node5 -->
<g id="edge4" class="edge"><title>Node1&#45;&gt;Node5</title>
<path fill="none" stroke="midnightblue" d="M135.305,-155.5C145.557,-155.5 156.13,-155.5 166.452,-155.5"/>
<polygon fill="midnightblue" stroke="midnightblue" points="135.18,-152 125.18,-155.5 135.179,-159 135.18,-152"/>
</g>
<!-- Node6 -->
<g id="node6" class="node"><title>Node6</title>
<g id="a_node6"><a xlink:href="classpayments_1_1_output.html#a2ccf6b84cbe7f8a6d837bbc89ea87101" target="_top" xlink:title="payments::Output::set\l_allocated_script">
<polygon fill="white" stroke="black" points="186,-96.5 186,-126.5 300,-126.5 300,-96.5 186,-96.5"/>
<text text-anchor="start" x="194" y="-114.5" font-family="Helvetica,sans-Serif" font-size="10.00">payments::Output::set</text>
<text text-anchor="middle" x="243" y="-103.5" font-family="Helvetica,sans-Serif" font-size="10.00">_allocated_script</text>
</a>
</g>
</g>
<!-- Node1&#45;&gt;Node6 -->
<g id="edge5" class="edge"><title>Node1&#45;&gt;Node6</title>
<path fill="none" stroke="midnightblue" d="M112.017,-143.541C134.785,-137.928 162.055,-131.206 185.724,-125.372"/>
<polygon fill="midnightblue" stroke="midnightblue" points="111.104,-140.161 102.232,-145.953 112.779,-146.958 111.104,-140.161"/>
</g>
<!-- Node7 -->
<g id="node7" class="node"><title>Node7</title>
<g id="a_node7"><a xlink:href="class_payment_request_plus.html#a30ec9429606dfdcb7c818c2f443db872" target="_top" xlink:title="PaymentRequestPlus\l::getPayTo">
<polygon fill="white" stroke="black" points="186.5,-47.5 186.5,-77.5 299.5,-77.5 299.5,-47.5 186.5,-47.5"/>
<text text-anchor="start" x="194.5" y="-65.5" font-family="Helvetica,sans-Serif" font-size="10.00">PaymentRequestPlus</text>
<text text-anchor="middle" x="243" y="-54.5" font-family="Helvetica,sans-Serif" font-size="10.00">::getPayTo</text>
</a>
</g>
</g>
<!-- Node1&#45;&gt;Node7 -->
<g id="edge6" class="edge"><title>Node1&#45;&gt;Node7</title>
<path fill="none" stroke="midnightblue" d="M82.2191,-139.401C101.028,-123.941 131.396,-100.872 161,-86.5 168.916,-82.6567 177.572,-79.2966 186.184,-76.4043"/>
<polygon fill="midnightblue" stroke="midnightblue" points="79.861,-136.811 74.435,-145.911 84.3515,-142.181 79.861,-136.811"/>
</g>
<!-- Node17 -->
<g id="node17" class="node"><title>Node17</title>
<g id="a_node17"><a xlink:href="class_wallet_model.html#a8abc851901c7c7343ebfb5a8e5fc0154" target="_top" xlink:title="WalletModel::prepareTransaction">
<polygon fill="white" stroke="black" points="161,-8 161,-27 325,-27 325,-8 161,-8"/>
<text text-anchor="middle" x="243" y="-15" font-family="Helvetica,sans-Serif" font-size="10.00">WalletModel::prepareTransaction</text>
</a>
</g>
</g>
<!-- Node1&#45;&gt;Node17 -->
<g id="edge17" class="edge"><title>Node1&#45;&gt;Node17</title>
<path fill="none" stroke="midnightblue" d="M73.6953,-136.818C89.0632,-110.481 120.7,-62.8309 161,-37.5 167.99,-33.1063 175.883,-29.6776 183.93,-27.0021"/>
<polygon fill="midnightblue" stroke="midnightblue" points="70.5035,-135.351 68.6179,-145.777 76.5935,-138.803 70.5035,-135.351"/>
</g>
<!-- Node8 -->
<g id="node8" class="node"><title>Node8</title>
<g id="a_node8"><a xlink:href="class_payment_server.html#abe96a7c90755b8e1975e380b5a8228bd" target="_top" xlink:title="PaymentServer::processPayment\lRequest">
<polygon fill="white" stroke="black" points="361,-49.5 361,-79.5 526,-79.5 526,-49.5 361,-49.5"/>
<text text-anchor="start" x="369" y="-67.5" font-family="Helvetica,sans-Serif" font-size="10.00">PaymentServer::processPayment</text>
<text text-anchor="middle" x="443.5" y="-56.5" font-family="Helvetica,sans-Serif" font-size="10.00">Request</text>
</a>
</g>
</g>
<!-- Node7&#45;&gt;Node8 -->
<g id="edge7" class="edge"><title>Node7&#45;&gt;Node8</title>
<path fill="none" stroke="midnightblue" d="M309.593,-63.1609C326.031,-63.3265 343.867,-63.5062 360.976,-63.6786"/>
<polygon fill="midnightblue" stroke="midnightblue" points="309.592,-59.6608 299.557,-63.0598 309.521,-66.6604 309.592,-59.6608"/>
</g>
<!-- Node9 -->
<g id="node9" class="node"><title>Node9</title>
<g id="a_node9"><a xlink:href="class_payment_server.html#adf4f844b3ce7f053690fd9260210640d" target="_top" xlink:title="PaymentServer::handleURIOrFile">
<polygon fill="white" stroke="black" points="562,-93 562,-112 727,-112 727,-93 562,-93"/>
<text text-anchor="middle" x="644.5" y="-100" font-family="Helvetica,sans-Serif" font-size="10.00">PaymentServer::handleURIOrFile</text>
</a>
</g>
</g>
<!-- Node8&#45;&gt;Node9 -->
<g id="edge8" class="edge"><title>Node8&#45;&gt;Node9</title>
<path fill="none" stroke="midnightblue" d="M532.987,-81.3971C553.827,-85.3764 575.318,-89.4804 593.745,-92.9991"/>
<polygon fill="midnightblue" stroke="midnightblue" points="533.629,-77.9565 523.15,-79.5186 532.316,-84.8322 533.629,-77.9565"/>
</g>
<!-- Node15 -->
<g id="node15" class="node"><title>Node15</title>
<g id="a_node15"><a xlink:href="class_payment_server.html#a5b8e2e6380142fb7ad631400bcfc6f28" target="_top" xlink:title="PaymentServer::netRequest\lFinished">
<polygon fill="white" stroke="black" points="573.5,-27.5 573.5,-57.5 715.5,-57.5 715.5,-27.5 573.5,-27.5"/>
<text text-anchor="start" x="581.5" y="-45.5" font-family="Helvetica,sans-Serif" font-size="10.00">PaymentServer::netRequest</text>
<text text-anchor="middle" x="644.5" y="-34.5" font-family="Helvetica,sans-Serif" font-size="10.00">Finished</text>
</a>
</g>
</g>
<!-- Node8&#45;&gt;Node15 -->
<g id="edge14" class="edge"><title>Node8&#45;&gt;Node15</title>
<path fill="none" stroke="midnightblue" d="M535.999,-54.3845C548.512,-53.0011 561.196,-51.599 573.25,-50.2663"/>
<polygon fill="midnightblue" stroke="midnightblue" points="535.57,-50.9106 526.015,-55.4883 536.339,-57.8682 535.57,-50.9106"/>
</g>
<!-- Node10 -->
<g id="node10" class="node"><title>Node10</title>
<g id="a_node10"><a xlink:href="class_payment_server.html#af795e3c318556c833792e530b279efc9" target="_top" xlink:title="PaymentServer::eventFilter">
<polygon fill="white" stroke="black" points="788.5,-101 788.5,-120 926.5,-120 926.5,-101 788.5,-101"/>
<text text-anchor="middle" x="857.5" y="-108" font-family="Helvetica,sans-Serif" font-size="10.00">PaymentServer::eventFilter</text>
</a>
</g>
</g>
<!-- Node9&#45;&gt;Node10 -->
<g id="edge9" class="edge"><title>Node9&#45;&gt;Node10</title>
<path fill="none" stroke="midnightblue" d="M737.153,-105.975C754.387,-106.628 772.123,-107.301 788.478,-107.921"/>
<polygon fill="midnightblue" stroke="midnightblue" points="737.204,-102.474 727.078,-105.593 736.938,-109.469 737.204,-102.474"/>
</g>
<!-- Node11 -->
<g id="node11" class="node"><title>Node11</title>
<g id="a_node11"><a xlink:href="class_payment_server.html#abb6c65fabbf97ba95381997ca9cd6993" target="_top" xlink:title="PaymentServer::uiReady">
<polygon fill="white" stroke="black" points="1004,-44 1004,-63 1132,-63 1132,-44 1004,-44"/>
<text text-anchor="middle" x="1068" y="-51" font-family="Helvetica,sans-Serif" font-size="10.00">PaymentServer::uiReady</text>
</a>
</g>
</g>
<!-- Node9&#45;&gt;Node11 -->
<g id="edge10" class="edge"><title>Node9&#45;&gt;Node11</title>
<path fill="none" stroke="midnightblue" d="M737.175,-91.8427C817.855,-82.4635 933.189,-69.0558 1003.92,-60.8334"/>
<polygon fill="midnightblue" stroke="midnightblue" points="736.548,-88.3919 727.019,-93.0233 737.356,-95.345 736.548,-88.3919"/>
</g>
<!-- Node13 -->
<g id="node13" class="node"><title>Node13</title>
<g id="a_node13"><a xlink:href="class_payment_server.html#a6ee6e29e1255605582459463d195a651" target="_top" xlink:title="PaymentServer::handleURIConnection">
<polygon fill="white" stroke="black" points="763,-139 763,-158 952,-158 952,-139 763,-139"/>
<text text-anchor="middle" x="857.5" y="-146" font-family="Helvetica,sans-Serif" font-size="10.00">PaymentServer::handleURIConnection</text>
</a>
</g>
</g>
<!-- Node9&#45;&gt;Node13 -->
<g id="edge12" class="edge"><title>Node9&#45;&gt;Node13</title>
<path fill="none" stroke="midnightblue" d="M695.84,-114.363C716.609,-119.18 740.937,-124.724 763,-129.5 777.732,-132.689 793.805,-136.012 808.405,-138.97"/>
<polygon fill="midnightblue" stroke="midnightblue" points="696.489,-110.921 685.956,-112.063 694.903,-117.738 696.489,-110.921"/>
</g>
<!-- Node12 -->
<g id="node12" class="node"><title>Node12</title>
<g id="a_node12"><a xlink:href="class_payment_server_tests.html#a82c8a7437bfc26c28619b954a5ee8cad" target="_top" xlink:title="PaymentServerTests\l::paymentServerTests">
<polygon fill="white" stroke="black" points="1184,-38.5 1184,-68.5 1298,-68.5 1298,-38.5 1184,-38.5"/>
<text text-anchor="start" x="1192" y="-56.5" font-family="Helvetica,sans-Serif" font-size="10.00">PaymentServerTests</text>
<text text-anchor="middle" x="1241" y="-45.5" font-family="Helvetica,sans-Serif" font-size="10.00">::paymentServerTests</text>
</a>
</g>
</g>
<!-- Node11&#45;&gt;Node12 -->
<g id="edge11" class="edge"><title>Node11&#45;&gt;Node12</title>
<path fill="none" stroke="midnightblue" d="M1142.23,-53.5C1156.17,-53.5 1170.54,-53.5 1183.84,-53.5"/>
<polygon fill="midnightblue" stroke="midnightblue" points="1142.19,-50.0001 1132.19,-53.5 1142.19,-57.0001 1142.19,-50.0001"/>
</g>
<!-- Node14 -->
<g id="node14" class="node"><title>Node14</title>
<g id="a_node14"><a xlink:href="class_payment_server.html#a4a66f55c11f4757b121179d5d6988ab2" target="_top" xlink:title="PaymentServer::PaymentServer">
<polygon fill="white" stroke="black" points="988,-139 988,-158 1148,-158 1148,-139 988,-139"/>
<text text-anchor="middle" x="1068" y="-146" font-family="Helvetica,sans-Serif" font-size="10.00">PaymentServer::PaymentServer</text>
</a>
</g>
</g>
<!-- Node13&#45;&gt;Node14 -->
<g id="edge13" class="edge"><title>Node13&#45;&gt;Node14</title>
<path fill="none" stroke="midnightblue" d="M962.155,-148.5C970.754,-148.5 979.359,-148.5 987.735,-148.5"/>
<polygon fill="midnightblue" stroke="midnightblue" points="962.077,-145 952.077,-148.5 962.077,-152 962.077,-145"/>
</g>
<!-- Node16 -->
<g id="node16" class="node"><title>Node16</title>
<g id="a_node16"><a xlink:href="class_payment_server.html#a2f94f2c3e12d03199870e17008535302" target="_top" xlink:title="PaymentServer::initNetManager">
<polygon fill="white" stroke="black" points="778,-25 778,-44 937,-44 937,-25 778,-25"/>
<text text-anchor="middle" x="857.5" y="-32" font-family="Helvetica,sans-Serif" font-size="10.00">PaymentServer::initNetManager</text>
</a>
</g>
</g>
<!-- Node15&#45;&gt;Node16 -->
<g id="edge15" class="edge"><title>Node15&#45;&gt;Node16</title>
<path fill="none" stroke="midnightblue" d="M726.172,-39.4414C743.109,-38.7992 760.951,-38.1227 777.814,-37.4833"/>
<polygon fill="midnightblue" stroke="midnightblue" points="725.62,-35.9597 715.76,-39.8361 725.885,-42.9546 725.62,-35.9597"/>
</g>
<!-- Node16&#45;&gt;Node11 -->
<g id="edge16" class="edge"><title>Node16&#45;&gt;Node11</title>
<path fill="none" stroke="midnightblue" d="M947.203,-42.5833C966.231,-44.3172 985.966,-46.1156 1003.79,-47.7403"/>
<polygon fill="midnightblue" stroke="midnightblue" points="947.304,-39.0781 937.028,-41.656 946.669,-46.0492 947.304,-39.0781"/>
</g>
<!-- Node18 -->
<g id="node18" class="node"><title>Node18</title>
<g id="a_node18"><a xlink:href="class_send_coins_dialog.html#a2cab7cf9ea5040b9e2189297f7d3c764" target="_top" xlink:title="SendCoinsDialog::on\l_sendButton_clicked">
<polygon fill="white" stroke="black" points="388.5,-0.5 388.5,-30.5 498.5,-30.5 498.5,-0.5 388.5,-0.5"/>
<text text-anchor="start" x="396.5" y="-18.5" font-family="Helvetica,sans-Serif" font-size="10.00">SendCoinsDialog::on</text>
<text text-anchor="middle" x="443.5" y="-7.5" font-family="Helvetica,sans-Serif" font-size="10.00">_sendButton_clicked</text>
</a>
</g>
</g>
<!-- Node17&#45;&gt;Node18 -->
<g id="edge18" class="edge"><title>Node17&#45;&gt;Node18</title>
<path fill="none" stroke="midnightblue" d="M335.093,-16.5822C353.315,-16.3986 371.906,-16.2113 388.387,-16.0452"/>
<polygon fill="midnightblue" stroke="midnightblue" points="334.988,-13.083 325.024,-16.6836 335.059,-20.0826 334.988,-13.083"/>
</g>
</g>
</svg>
