<?xml version="1.0" encoding="UTF-8" standalone="no"?>
<!DOCTYPE svg PUBLIC "-//W3C//DTD SVG 1.1//EN"
 "http://www.w3.org/Graphics/SVG/1.1/DTD/svg11.dtd">
<!-- Generated by graphviz version 2.38.0 (20140413.2041)
 -->
<!-- Title: WalletView::gotoVerifyMessageTab Pages: 1 -->
<svg width="349pt" height="137pt"
 viewBox="0.00 0.00 349.00 137.00" xmlns="http://www.w3.org/2000/svg" xmlns:xlink="http://www.w3.org/1999/xlink">
<g id="graph0" class="graph" transform="scale(1 1) rotate(0) translate(4 133)">
<title>WalletView::gotoVerifyMessageTab</title>
<polygon fill="white" stroke="none" points="-4,4 -4,-133 345,-133 345,4 -4,4"/>
<!-- Node1 -->
<g id="node1" class="node"><title>Node1</title>
<polygon fill="#bfbfbf" stroke="black" points="0,-55 0,-74 174,-74 174,-55 0,-55"/>
<text text-anchor="middle" x="87" y="-62" font-family="Helvetica,sans-Serif" font-size="10.00">WalletView::gotoVerifyMessageTab</text>
</g>
<!-- Node2 -->
<g id="node2" class="node"><title>Node2</title>
<g id="a_node2"><a xlink:href="class_sign_verify_message_dialog.html#ad1479ca27c2fd7d6fd1160c41660ea84" target="_top" xlink:title="SignVerifyMessageDialog\l::setModel">
<polygon fill="white" stroke="black" points="210,-98.5 210,-128.5 341,-128.5 341,-98.5 210,-98.5"/>
<text text-anchor="start" x="218" y="-116.5" font-family="Helvetica,sans-Serif" font-size="10.00">SignVerifyMessageDialog</text>
<text text-anchor="middle" x="275.5" y="-105.5" font-family="Helvetica,sans-Serif" font-size="10.00">::setModel</text>
</a>
</g>
</g>
<!-- Node1&#45;&gt;Node2 -->
<g id="edge1" class="edge"><title>Node1&#45;&gt;Node2</title>
<path fill="none" stroke="midnightblue" d="M124.402,-74.064C148.013,-80.2676 179.488,-88.5371 207.516,-95.901"/>
<polygon fill="midnightblue" stroke="midnightblue" points="206.706,-99.307 217.267,-98.463 208.485,-92.5367 206.706,-99.307"/>
</g>
<!-- Node3 -->
<g id="node3" class="node"><title>Node3</title>
<g id="a_node3"><a xlink:href="class_sign_verify_message_dialog.html#a6db3c37d3f5a3c070daed2c731cc79d5" target="_top" xlink:title="SignVerifyMessageDialog\l::showTab_VM">
<polygon fill="white" stroke="black" points="210,-49.5 210,-79.5 341,-79.5 341,-49.5 210,-49.5"/>
<text text-anchor="start" x="218" y="-67.5" font-family="Helvetica,sans-Serif" font-size="10.00">SignVerifyMessageDialog</text>
<text text-anchor="middle" x="275.5" y="-56.5" font-family="Helvetica,sans-Serif" font-size="10.00">::showTab_VM</text>
</a>
</g>
</g>
<!-- Node1&#45;&gt;Node3 -->
<g id="edge2" class="edge"><title>Node1&#45;&gt;Node3</title>
<path fill="none" stroke="midnightblue" d="M174.153,-64.5C182.703,-64.5 191.332,-64.5 199.752,-64.5"/>
<polygon fill="midnightblue" stroke="midnightblue" points="199.899,-68.0001 209.899,-64.5 199.899,-61.0001 199.899,-68.0001"/>
</g>
<!-- Node4 -->
<g id="node4" class="node"><title>Node4</title>
<g id="a_node4"><a xlink:href="class_sign_verify_message_dialog.html#af30557fd4bc0aa57940d0f20e34c04ec" target="_top" xlink:title="SignVerifyMessageDialog\l::setAddress_VM">
<polygon fill="white" stroke="black" points="210,-0.5 210,-30.5 341,-30.5 341,-0.5 210,-0.5"/>
<text text-anchor="start" x="218" y="-18.5" font-family="Helvetica,sans-Serif" font-size="10.00">SignVerifyMessageDialog</text>
<text text-anchor="middle" x="275.5" y="-7.5" font-family="Helvetica,sans-Serif" font-size="10.00">::setAddress_VM</text>
</a>
</g>
</g>
<!-- Node1&#45;&gt;Node4 -->
<g id="edge3" class="edge"><title>Node1&#45;&gt;Node4</title>
<path fill="none" stroke="midnightblue" d="M124.402,-54.936C148.013,-48.7324 179.488,-40.4629 207.516,-33.099"/>
<polygon fill="midnightblue" stroke="midnightblue" points="208.485,-36.4633 217.267,-30.537 206.706,-29.693 208.485,-36.4633"/>
</g>
</g>
</svg>
