<?xml version="1.0" encoding="UTF-8" standalone="no"?>
<!DOCTYPE svg PUBLIC "-//W3C//DTD SVG 1.1//EN"
 "http://www.w3.org/Graphics/SVG/1.1/DTD/svg11.dtd">
<!-- Generated by graphviz version 2.38.0 (20140413.2041)
 -->
<!-- Title: RPCConsole Pages: 1 -->
<svg width="535pt" height="410pt"
 viewBox="0.00 0.00 535.00 410.00" xmlns="http://www.w3.org/2000/svg" xmlns:xlink="http://www.w3.org/1999/xlink">
<g id="graph0" class="graph" transform="scale(1 1) rotate(0) translate(4 406)">
<title>RPCConsole</title>
<polygon fill="white" stroke="none" points="-4,4 -4,-406 531,-406 531,4 -4,4"/>
<!-- Node1 -->
<g id="node1" class="node"><title>Node1</title>
<polygon fill="#bfbfbf" stroke="black" points="319,-0.5 319,-19.5 393,-19.5 393,-0.5 319,-0.5"/>
<text text-anchor="middle" x="356" y="-7.5" font-family="Helvetica,sans-Serif" font-size="10.00">RPCConsole</text>
</g>
<!-- Node2 -->
<g id="node2" class="node"><title>Node2</title>
<polygon fill="white" stroke="#bfbfbf" points="274.5,-67.5 274.5,-86.5 327.5,-86.5 327.5,-67.5 274.5,-67.5"/>
<text text-anchor="middle" x="301" y="-74.5" font-family="Helvetica,sans-Serif" font-size="10.00">QDialog</text>
</g>
<!-- Node2&#45;&gt;Node1 -->
<g id="edge1" class="edge"><title>Node2&#45;&gt;Node1</title>
<path fill="none" stroke="midnightblue" d="M315.156,-59.2705C325.879,-46.5972 340.176,-29.701 348.7,-19.6273"/>
<polygon fill="midnightblue" stroke="midnightblue" points="312.205,-57.3391 308.418,-67.2338 317.549,-61.8607 312.205,-57.3391"/>
</g>
<!-- Node3 -->
<g id="node3" class="node"><title>Node3</title>
<g id="a_node3"><a xlink:href="class_client_model.html" target="_top" xlink:title="Model for Anoncoin network client. ">
<polygon fill="white" stroke="black" points="275.5,-258.5 275.5,-277.5 344.5,-277.5 344.5,-258.5 275.5,-258.5"/>
<text text-anchor="middle" x="310" y="-265.5" font-family="Helvetica,sans-Serif" font-size="10.00">ClientModel</text>
</a>
</g>
</g>
<!-- Node3&#45;&gt;Node1 -->
<g id="edge2" class="edge"><title>Node3&#45;&gt;Node1</title>
<path fill="none" stroke="#9a32cd" stroke-dasharray="5,2" d="M331.298,-251.736C335.23,-248.212 339.027,-244.241 342,-240 352.332,-225.263 356,-219.999 356,-202 356,-202 356,-202 356,-76 356,-55.9132 356,-32.3347 356,-19.8314"/>
<polygon fill="#9a32cd" stroke="#9a32cd" points="328.802,-249.255 323.258,-258.283 333.223,-254.683 328.802,-249.255"/>
<text text-anchor="middle" x="383" y="-131.5" font-family="Helvetica,sans-Serif" font-size="10.00"> clientModel</text>
</g>
<!-- Node5 -->
<g id="node5" class="node"><title>Node5</title>
<g id="a_node5"><a xlink:href="class_peer_table_model.html" target="_top" xlink:title="Qt model providing information about connected peers, similar to the &quot;getpeerinfo&quot; RPC call...">
<polygon fill="white" stroke="black" points="126,-191.5 126,-210.5 216,-210.5 216,-191.5 126,-191.5"/>
<text text-anchor="middle" x="171" y="-198.5" font-family="Helvetica,sans-Serif" font-size="10.00">PeerTableModel</text>
</a>
</g>
</g>
<!-- Node3&#45;&gt;Node5 -->
<g id="edge7" class="edge"><title>Node3&#45;&gt;Node5</title>
<path fill="none" stroke="#9a32cd" stroke-dasharray="5,2" d="M265.054,-261.893C234.269,-257.555 196.934,-250.367 185,-240 176.402,-232.53 173.079,-219.297 171.799,-210.586"/>
<polygon fill="#9a32cd" stroke="#9a32cd" points="264.819,-265.393 275.196,-263.255 265.751,-258.455 264.819,-265.393"/>
<text text-anchor="middle" x="212" y="-232" font-family="Helvetica,sans-Serif" font-size="10.00"> clientModel</text>
</g>
<!-- Node12 -->
<g id="node12" class="node"><title>Node12</title>
<g id="a_node12"><a xlink:href="class_traffic_graph_widget.html" target="_top" xlink:title="TrafficGraphWidget">
<polygon fill="white" stroke="black" points="417.5,-191.5 417.5,-210.5 520.5,-210.5 520.5,-191.5 417.5,-191.5"/>
<text text-anchor="middle" x="469" y="-198.5" font-family="Helvetica,sans-Serif" font-size="10.00">TrafficGraphWidget</text>
</a>
</g>
</g>
<!-- Node3&#45;&gt;Node12 -->
<g id="edge14" class="edge"><title>Node3&#45;&gt;Node12</title>
<path fill="none" stroke="#9a32cd" stroke-dasharray="5,2" d="M340.731,-254.437C372.31,-241.527 420.618,-221.779 448.052,-210.564"/>
<polygon fill="#9a32cd" stroke="#9a32cd" points="339.046,-251.345 331.114,-258.369 341.695,-257.824 339.046,-251.345"/>
<text text-anchor="middle" x="426" y="-232" font-family="Helvetica,sans-Serif" font-size="10.00"> clientModel</text>
</g>
<!-- Node4 -->
<g id="node4" class="node"><title>Node4</title>
<polygon fill="white" stroke="#bfbfbf" points="254.5,-325.5 254.5,-344.5 307.5,-344.5 307.5,-325.5 254.5,-325.5"/>
<text text-anchor="middle" x="281" y="-332.5" font-family="Helvetica,sans-Serif" font-size="10.00">QObject</text>
</g>
<!-- Node4&#45;&gt;Node3 -->
<g id="edge3" class="edge"><title>Node4&#45;&gt;Node3</title>
<path fill="none" stroke="midnightblue" d="M289.124,-315.79C294.694,-303.308 301.829,-287.314 306.151,-277.627"/>
<polygon fill="midnightblue" stroke="midnightblue" points="285.789,-314.675 284.911,-325.234 292.182,-317.528 285.789,-314.675"/>
</g>
<!-- Node5&#45;&gt;Node3 -->
<g id="edge4" class="edge"><title>Node5&#45;&gt;Node3</title>
<path fill="none" stroke="#9a32cd" stroke-dasharray="5,2" d="M206.293,-213.978C218.125,-218.324 231.284,-223.522 243,-229 262.14,-237.949 283.176,-250.326 296.476,-258.492"/>
<polygon fill="#9a32cd" stroke="#9a32cd" points="207.321,-210.628 196.726,-210.54 204.953,-217.216 207.321,-210.628"/>
<text text-anchor="middle" x="301" y="-232" font-family="Helvetica,sans-Serif" font-size="10.00"> peerTableModel</text>
</g>
<!-- Node6 -->
<g id="node6" class="node"><title>Node6</title>
<polygon fill="white" stroke="#bfbfbf" points="98.5,-258.5 98.5,-277.5 211.5,-277.5 211.5,-258.5 98.5,-258.5"/>
<text text-anchor="middle" x="155" y="-265.5" font-family="Helvetica,sans-Serif" font-size="10.00">QAbstractTableModel</text>
</g>
<!-- Node6&#45;&gt;Node5 -->
<g id="edge5" class="edge"><title>Node6&#45;&gt;Node5</title>
<path fill="none" stroke="midnightblue" d="M159.575,-248.415C162.634,-235.988 166.516,-220.217 168.876,-210.627"/>
<polygon fill="midnightblue" stroke="midnightblue" points="156.15,-247.687 157.158,-258.234 162.947,-249.36 156.15,-247.687"/>
</g>
<!-- Node7 -->
<g id="node7" class="node"><title>Node7</title>
<g id="a_node7"><a xlink:href="class_peer_table_priv.html" target="_top" xlink:title="PeerTablePriv">
<polygon fill="white" stroke="black" points="0,-258.5 0,-277.5 80,-277.5 80,-258.5 0,-258.5"/>
<text text-anchor="middle" x="40" y="-265.5" font-family="Helvetica,sans-Serif" font-size="10.00">PeerTablePriv</text>
</a>
</g>
</g>
<!-- Node7&#45;&gt;Node5 -->
<g id="edge6" class="edge"><title>Node7&#45;&gt;Node5</title>
<path fill="none" stroke="#9a32cd" stroke-dasharray="5,2" d="M66.6557,-253.774C92.6018,-240.9 131.28,-221.709 153.532,-210.667"/>
<polygon fill="#9a32cd" stroke="#9a32cd" points="64.798,-250.788 57.3958,-258.369 67.9094,-257.059 64.798,-250.788"/>
<text text-anchor="middle" x="123.5" y="-232" font-family="Helvetica,sans-Serif" font-size="10.00"> priv</text>
</g>
<!-- Node8 -->
<g id="node8" class="node"><title>Node8</title>
<g id="a_node8"><a xlink:href="class_options_model.html" target="_top" xlink:title="Interface from Qt to configuration data structure for Anoncoin client. ">
<polygon fill="white" stroke="black" points="326,-325.5 326,-344.5 404,-344.5 404,-325.5 326,-325.5"/>
<text text-anchor="middle" x="365" y="-332.5" font-family="Helvetica,sans-Serif" font-size="10.00">OptionsModel</text>
</a>
</g>
</g>
<!-- Node8&#45;&gt;Node3 -->
<g id="edge8" class="edge"><title>Node8&#45;&gt;Node3</title>
<path fill="none" stroke="#9a32cd" stroke-dasharray="5,2" d="M350.844,-317.27C340.121,-304.597 325.824,-287.701 317.3,-277.627"/>
<polygon fill="#9a32cd" stroke="#9a32cd" points="348.451,-319.861 357.582,-325.234 353.795,-315.339 348.451,-319.861"/>
<text text-anchor="middle" x="371.5" y="-299" font-family="Helvetica,sans-Serif" font-size="10.00"> optionsModel</text>
</g>
<!-- Node9 -->
<g id="node9" class="node"><title>Node9</title>
<polygon fill="white" stroke="#bfbfbf" points="313,-382.5 313,-401.5 417,-401.5 417,-382.5 313,-382.5"/>
<text text-anchor="middle" x="365" y="-389.5" font-family="Helvetica,sans-Serif" font-size="10.00">QAbstractListModel</text>
</g>
<!-- Node9&#45;&gt;Node8 -->
<g id="edge9" class="edge"><title>Node9&#45;&gt;Node8</title>
<path fill="none" stroke="midnightblue" d="M365,-372.117C365,-362.817 365,-352.056 365,-344.715"/>
<polygon fill="midnightblue" stroke="midnightblue" points="361.5,-372.406 365,-382.406 368.5,-372.406 361.5,-372.406"/>
</g>
<!-- Node10 -->
<g id="node10" class="node"><title>Node10</title>
<g id="a_node10"><a xlink:href="class_ui_1_1_r_p_c_console.html" target="_top" xlink:title="Ui::RPCConsole">
<polygon fill="white" stroke="black" points="395.5,-67.5 395.5,-86.5 484.5,-86.5 484.5,-67.5 395.5,-67.5"/>
<text text-anchor="middle" x="440" y="-74.5" font-family="Helvetica,sans-Serif" font-size="10.00">Ui::RPCConsole</text>
</a>
</g>
</g>
<!-- Node10&#45;&gt;Node1 -->
<g id="edge10" class="edge"><title>Node10&#45;&gt;Node1</title>
<path fill="none" stroke="#9a32cd" stroke-dasharray="5,2" d="M420.703,-61.0678C404.122,-48.2376 380.793,-30.1853 367.149,-19.6273"/>
<polygon fill="#9a32cd" stroke="#9a32cd" points="418.621,-63.882 428.671,-67.2338 422.905,-58.3459 418.621,-63.882"/>
<text text-anchor="middle" x="408.5" y="-41" font-family="Helvetica,sans-Serif" font-size="10.00"> ui</text>
</g>
<!-- Node11 -->
<g id="node11" class="node"><title>Node11</title>
<g id="a_node11"><a xlink:href="class_ui___r_p_c_console.html" target="_top" xlink:title="Ui_RPCConsole">
<polygon fill="white" stroke="black" points="428.5,-124.5 428.5,-143.5 517.5,-143.5 517.5,-124.5 428.5,-124.5"/>
<text text-anchor="middle" x="473" y="-131.5" font-family="Helvetica,sans-Serif" font-size="10.00">Ui_RPCConsole</text>
</a>
</g>
</g>
<!-- Node11&#45;&gt;Node10 -->
<g id="edge11" class="edge"><title>Node11&#45;&gt;Node10</title>
<path fill="none" stroke="midnightblue" d="M462.581,-115.635C456.806,-106.01 449.875,-94.459 445.229,-86.7149"/>
<polygon fill="midnightblue" stroke="midnightblue" points="459.698,-117.632 467.844,-124.406 465.7,-114.031 459.698,-117.632"/>
</g>
<!-- Node12&#45;&gt;Node11 -->
<g id="edge12" class="edge"><title>Node12&#45;&gt;Node11</title>
<path fill="none" stroke="#9a32cd" stroke-dasharray="5,2" d="M470.167,-181.037C470.928,-168.67 471.885,-153.12 472.469,-143.627"/>
<polygon fill="#9a32cd" stroke="#9a32cd" points="466.66,-181.038 469.539,-191.234 473.647,-181.468 466.66,-181.038"/>
<text text-anchor="middle" x="499" y="-165" font-family="Helvetica,sans-Serif" font-size="10.00"> trafficGraph</text>
</g>
<!-- Node13 -->
<g id="node13" class="node"><title>Node13</title>
<polygon fill="white" stroke="#bfbfbf" points="441.5,-258.5 441.5,-277.5 496.5,-277.5 496.5,-258.5 441.5,-258.5"/>
<text text-anchor="middle" x="469" y="-265.5" font-family="Helvetica,sans-Serif" font-size="10.00">QWidget</text>
</g>
<!-- Node13&#45;&gt;Node12 -->
<g id="edge13" class="edge"><title>Node13&#45;&gt;Node12</title>
<path fill="none" stroke="midnightblue" d="M469,-248.037C469,-235.67 469,-220.12 469,-210.627"/>
<polygon fill="midnightblue" stroke="midnightblue" points="465.5,-248.234 469,-258.234 472.5,-248.234 465.5,-248.234"/>
</g>
</g>
</svg>
