<?xml version="1.0" encoding="UTF-8" standalone="no"?>
<!DOCTYPE svg PUBLIC "-//W3C//DTD SVG 1.1//EN"
 "http://www.w3.org/Graphics/SVG/1.1/DTD/svg11.dtd">
<!-- Generated by graphviz version 2.38.0 (20140413.2041)
 -->
<!-- Title: CCrypter::Decrypt Pages: 1 -->
<svg width="948pt" height="278pt"
 viewBox="0.00 0.00 948.00 278.00" xmlns="http://www.w3.org/2000/svg" xmlns:xlink="http://www.w3.org/1999/xlink">
<g id="graph0" class="graph" transform="scale(1 1) rotate(0) translate(4 274)">
<title>CCrypter::Decrypt</title>
<polygon fill="white" stroke="none" points="-4,4 -4,-274 944,-274 944,4 -4,4"/>
<!-- Node1 -->
<g id="node1" class="node"><title>Node1</title>
<polygon fill="#bfbfbf" stroke="black" points="0,-174.5 0,-193.5 97,-193.5 97,-174.5 0,-174.5"/>
<text text-anchor="middle" x="48.5" y="-181.5" font-family="Helvetica,sans-Serif" font-size="10.00">CCrypter::Decrypt</text>
</g>
<!-- Node2 -->
<g id="node2" class="node"><title>Node2</title>
<g id="a_node2"><a xlink:href="crypter_8h.html#aded00aa7498a7485a00e77a20856b3e4" target="_top" xlink:title="DecryptSecret">
<polygon fill="white" stroke="black" points="133,-174.5 133,-193.5 213,-193.5 213,-174.5 133,-174.5"/>
<text text-anchor="middle" x="173" y="-181.5" font-family="Helvetica,sans-Serif" font-size="10.00">DecryptSecret</text>
</a>
</g>
</g>
<!-- Node1&#45;&gt;Node2 -->
<g id="edge1" class="edge"><title>Node1&#45;&gt;Node2</title>
<path fill="none" stroke="midnightblue" d="M107.315,-184C115.992,-184 124.762,-184 132.925,-184"/>
<polygon fill="midnightblue" stroke="midnightblue" points="107.213,-180.5 97.2125,-184 107.212,-187.5 107.213,-180.5"/>
</g>
<!-- Node4 -->
<g id="node4" class="node"><title>Node4</title>
<g id="a_node4"><a xlink:href="class_c_wallet.html#a002c61a2b74f2c46063340c568e6cc1b" target="_top" xlink:title="CWallet::Unlock">
<polygon fill="white" stroke="black" points="460.5,-212.5 460.5,-231.5 548.5,-231.5 548.5,-212.5 460.5,-212.5"/>
<text text-anchor="middle" x="504.5" y="-219.5" font-family="Helvetica,sans-Serif" font-size="10.00">CWallet::Unlock</text>
</a>
</g>
</g>
<!-- Node1&#45;&gt;Node4 -->
<g id="edge16" class="edge"><title>Node1&#45;&gt;Node4</title>
<path fill="none" stroke="midnightblue" d="M95.0132,-195.851C107.269,-198.631 120.574,-201.281 133,-203 250.71,-219.286 391.195,-221.966 460.486,-222.193"/>
<polygon fill="midnightblue" stroke="midnightblue" points="95.5431,-192.38 85.0079,-193.502 93.9434,-199.195 95.5431,-192.38"/>
</g>
<!-- Node8 -->
<g id="node8" class="node"><title>Node8</title>
<g id="a_node8"><a xlink:href="class_c_wallet.html#a4abcec3066e7c462f4564c159fc15031" target="_top" xlink:title="CWallet::ChangeWalletPassphrase">
<polygon fill="white" stroke="black" points="418,-174.5 418,-193.5 591,-193.5 591,-174.5 418,-174.5"/>
<text text-anchor="middle" x="504.5" y="-181.5" font-family="Helvetica,sans-Serif" font-size="10.00">CWallet::ChangeWalletPassphrase</text>
</a>
</g>
</g>
<!-- Node1&#45;&gt;Node8 -->
<g id="edge17" class="edge"><title>Node1&#45;&gt;Node8</title>
<path fill="none" stroke="midnightblue" d="M93.2237,-172.116C105.95,-169.185 119.943,-166.467 133,-165 242.975,-152.646 271.666,-156.425 382,-165 405.84,-166.853 432.076,-170.721 454.048,-174.487"/>
<polygon fill="midnightblue" stroke="midnightblue" points="92.2365,-168.754 83.3306,-174.492 93.8715,-175.56 92.2365,-168.754"/>
</g>
<!-- Node3 -->
<g id="node3" class="node"><title>Node3</title>
<g id="a_node3"><a xlink:href="class_c_crypto_key_store.html#a81bd70e18aa75f566526620a74f9cd88" target="_top" xlink:title="CCryptoKeyStore::Unlock">
<polygon fill="white" stroke="black" points="250.5,-174.5 250.5,-193.5 380.5,-193.5 380.5,-174.5 250.5,-174.5"/>
<text text-anchor="middle" x="315.5" y="-181.5" font-family="Helvetica,sans-Serif" font-size="10.00">CCryptoKeyStore::Unlock</text>
</a>
</g>
</g>
<!-- Node2&#45;&gt;Node3 -->
<g id="edge2" class="edge"><title>Node2&#45;&gt;Node3</title>
<path fill="none" stroke="midnightblue" d="M223.161,-184C231.92,-184 241.161,-184 250.267,-184"/>
<polygon fill="midnightblue" stroke="midnightblue" points="223.137,-180.5 213.137,-184 223.137,-187.5 223.137,-180.5"/>
</g>
<!-- Node11 -->
<g id="node11" class="node"><title>Node11</title>
<g id="a_node11"><a xlink:href="class_c_crypto_key_store.html#a58cfb3c490318ef82de8fc9be6637269" target="_top" xlink:title="CCryptoKeyStore::GetKey">
<polygon fill="white" stroke="black" points="249,-98.5 249,-117.5 382,-117.5 382,-98.5 249,-98.5"/>
<text text-anchor="middle" x="315.5" y="-105.5" font-family="Helvetica,sans-Serif" font-size="10.00">CCryptoKeyStore::GetKey</text>
</a>
</g>
</g>
<!-- Node2&#45;&gt;Node11 -->
<g id="edge11" class="edge"><title>Node2&#45;&gt;Node11</title>
<path fill="none" stroke="midnightblue" d="M200.723,-169.545C228.949,-154.277 272.646,-130.64 296.85,-117.547"/>
<polygon fill="midnightblue" stroke="midnightblue" points="198.925,-166.538 191.794,-174.375 202.255,-172.695 198.925,-166.538"/>
</g>
<!-- Node3&#45;&gt;Node4 -->
<g id="edge3" class="edge"><title>Node3&#45;&gt;Node4</title>
<path fill="none" stroke="midnightblue" d="M373.729,-195.629C401.672,-201.308 434.731,-208.026 460.488,-213.26"/>
<polygon fill="midnightblue" stroke="midnightblue" points="374.185,-192.151 363.688,-193.589 372.791,-199.01 374.185,-192.151"/>
</g>
<!-- Node3&#45;&gt;Node8 -->
<g id="edge7" class="edge"><title>Node3&#45;&gt;Node8</title>
<path fill="none" stroke="midnightblue" d="M390.823,-184C399.647,-184 408.71,-184 417.678,-184"/>
<polygon fill="midnightblue" stroke="midnightblue" points="390.593,-180.5 380.593,-184 390.593,-187.5 390.593,-180.5"/>
</g>
<!-- Node5 -->
<g id="node5" class="node"><title>Node5</title>
<g id="a_node5"><a xlink:href="class_wallet_model.html#a6d7ebdcf0d28d058c658eb44a6c4a6c6" target="_top" xlink:title="WalletModel::setWalletLocked">
<polygon fill="white" stroke="black" points="633.5,-250.5 633.5,-269.5 783.5,-269.5 783.5,-250.5 633.5,-250.5"/>
<text text-anchor="middle" x="708.5" y="-257.5" font-family="Helvetica,sans-Serif" font-size="10.00">WalletModel::setWalletLocked</text>
</a>
</g>
</g>
<!-- Node4&#45;&gt;Node5 -->
<g id="edge4" class="edge"><title>Node4&#45;&gt;Node5</title>
<path fill="none" stroke="midnightblue" d="M558.806,-232.028C589.117,-237.73 626.867,-244.832 656.746,-250.452"/>
<polygon fill="midnightblue" stroke="midnightblue" points="559.309,-228.561 548.834,-230.152 558.015,-235.44 559.309,-228.561"/>
</g>
<!-- Node7 -->
<g id="node7" class="node"><title>Node7</title>
<g id="a_node7"><a xlink:href="rpcwallet_8cpp.html#a733f7c70e7c18783935e6de9643c0086" target="_top" xlink:title="walletpassphrase">
<polygon fill="white" stroke="black" points="661.5,-212.5 661.5,-231.5 755.5,-231.5 755.5,-212.5 661.5,-212.5"/>
<text text-anchor="middle" x="708.5" y="-219.5" font-family="Helvetica,sans-Serif" font-size="10.00">walletpassphrase</text>
</a>
</g>
</g>
<!-- Node4&#45;&gt;Node7 -->
<g id="edge6" class="edge"><title>Node4&#45;&gt;Node7</title>
<path fill="none" stroke="midnightblue" d="M558.882,-222C590.787,-222 630.914,-222 661.428,-222"/>
<polygon fill="midnightblue" stroke="midnightblue" points="558.834,-218.5 548.834,-222 558.834,-225.5 558.834,-218.5"/>
</g>
<!-- Node6 -->
<g id="node6" class="node"><title>Node6</title>
<g id="a_node6"><a xlink:href="class_ask_passphrase_dialog.html#ac2f176af3693b73870d26ef0bfc6cbb9" target="_top" xlink:title="AskPassphraseDialog\l::accept">
<polygon fill="white" stroke="black" points="826,-207 826,-237 940,-237 940,-207 826,-207"/>
<text text-anchor="start" x="834" y="-225" font-family="Helvetica,sans-Serif" font-size="10.00">AskPassphraseDialog</text>
<text text-anchor="middle" x="883" y="-214" font-family="Helvetica,sans-Serif" font-size="10.00">::accept</text>
</a>
</g>
</g>
<!-- Node5&#45;&gt;Node6 -->
<g id="edge5" class="edge"><title>Node5&#45;&gt;Node6</title>
<path fill="none" stroke="midnightblue" d="M762.88,-248.241C782.833,-243.846 805.545,-238.842 825.748,-234.392"/>
<polygon fill="midnightblue" stroke="midnightblue" points="762.042,-244.842 753.029,-250.411 763.548,-251.678 762.042,-244.842"/>
</g>
<!-- Node9 -->
<g id="node9" class="node"><title>Node9</title>
<g id="a_node9"><a xlink:href="class_wallet_model.html#a67ebff3f267b5c9973c0465184c085a4" target="_top" xlink:title="WalletModel::changePassphrase">
<polygon fill="white" stroke="black" points="627,-174.5 627,-193.5 790,-193.5 790,-174.5 627,-174.5"/>
<text text-anchor="middle" x="708.5" y="-181.5" font-family="Helvetica,sans-Serif" font-size="10.00">WalletModel::changePassphrase</text>
</a>
</g>
</g>
<!-- Node8&#45;&gt;Node9 -->
<g id="edge8" class="edge"><title>Node8&#45;&gt;Node9</title>
<path fill="none" stroke="midnightblue" d="M601.2,-184C609.779,-184 618.41,-184 626.843,-184"/>
<polygon fill="midnightblue" stroke="midnightblue" points="601.166,-180.5 591.166,-184 601.166,-187.5 601.166,-180.5"/>
</g>
<!-- Node10 -->
<g id="node10" class="node"><title>Node10</title>
<g id="a_node10"><a xlink:href="rpcwallet_8cpp.html#a84ad884957e24688433be32a9ca70933" target="_top" xlink:title="walletpassphrasechange">
<polygon fill="white" stroke="black" points="645,-136.5 645,-155.5 772,-155.5 772,-136.5 645,-136.5"/>
<text text-anchor="middle" x="708.5" y="-143.5" font-family="Helvetica,sans-Serif" font-size="10.00">walletpassphrasechange</text>
</a>
</g>
</g>
<!-- Node8&#45;&gt;Node10 -->
<g id="edge10" class="edge"><title>Node8&#45;&gt;Node10</title>
<path fill="none" stroke="midnightblue" d="M566.196,-172.582C595.099,-167.145 629.269,-160.717 656.767,-155.544"/>
<polygon fill="midnightblue" stroke="midnightblue" points="565.393,-169.172 556.212,-174.46 566.687,-176.051 565.393,-169.172"/>
</g>
<!-- Node9&#45;&gt;Node6 -->
<g id="edge9" class="edge"><title>Node9&#45;&gt;Node6</title>
<path fill="none" stroke="midnightblue" d="M762.88,-195.759C782.833,-200.154 805.545,-205.158 825.748,-209.608"/>
<polygon fill="midnightblue" stroke="midnightblue" points="763.548,-192.322 753.029,-193.589 762.042,-199.158 763.548,-192.322"/>
</g>
<!-- Node12 -->
<g id="node12" class="node"><title>Node12</title>
<g id="a_node12"><a xlink:href="class_sign_verify_message_dialog.html#a2ef91b4ace68d63ab1c1d3cc6c13b5f9" target="_top" xlink:title="SignVerifyMessageDialog\l::on_signMessageButton\l_SM_clicked">
<polygon fill="white" stroke="black" points="439,-0.5 439,-41.5 570,-41.5 570,-0.5 439,-0.5"/>
<text text-anchor="start" x="447" y="-29.5" font-family="Helvetica,sans-Serif" font-size="10.00">SignVerifyMessageDialog</text>
<text text-anchor="start" x="447" y="-18.5" font-family="Helvetica,sans-Serif" font-size="10.00">::on_signMessageButton</text>
<text text-anchor="middle" x="504.5" y="-7.5" font-family="Helvetica,sans-Serif" font-size="10.00">_SM_clicked</text>
</a>
</g>
</g>
<!-- Node11&#45;&gt;Node12 -->
<g id="edge12" class="edge"><title>Node11&#45;&gt;Node12</title>
<path fill="none" stroke="midnightblue" d="M340.077,-93.204C360.268,-80.9162 390.372,-63.4897 418,-51 425.31,-47.6952 433.102,-44.5165 440.892,-41.5448"/>
<polygon fill="midnightblue" stroke="midnightblue" points="338.228,-90.2324 331.543,-98.452 341.895,-96.1953 338.228,-90.2324"/>
</g>
<!-- Node13 -->
<g id="node13" class="node"><title>Node13</title>
<g id="a_node13"><a xlink:href="rpcdump_8cpp.html#a4010fb238298e15c540d3e5ecd60f858" target="_top" xlink:title="dumpprivkey">
<polygon fill="white" stroke="black" points="468,-136.5 468,-155.5 541,-155.5 541,-136.5 468,-136.5"/>
<text text-anchor="middle" x="504.5" y="-143.5" font-family="Helvetica,sans-Serif" font-size="10.00">dumpprivkey</text>
</a>
</g>
</g>
<!-- Node11&#45;&gt;Node13 -->
<g id="edge13" class="edge"><title>Node11&#45;&gt;Node13</title>
<path fill="none" stroke="midnightblue" d="M373.828,-119.649C404.49,-125.88 441.288,-133.358 467.838,-138.753"/>
<polygon fill="midnightblue" stroke="midnightblue" points="374.185,-116.151 363.688,-117.589 372.791,-123.01 374.185,-116.151"/>
</g>
<!-- Node14 -->
<g id="node14" class="node"><title>Node14</title>
<g id="a_node14"><a xlink:href="rpcdump_8cpp.html#a831ddf746d4f2500ba6f6c07f63445cd" target="_top" xlink:title="dumpwallet">
<polygon fill="white" stroke="black" points="471,-98.5 471,-117.5 538,-117.5 538,-98.5 471,-98.5"/>
<text text-anchor="middle" x="504.5" y="-105.5" font-family="Helvetica,sans-Serif" font-size="10.00">dumpwallet</text>
</a>
</g>
</g>
<!-- Node11&#45;&gt;Node14 -->
<g id="edge14" class="edge"><title>Node11&#45;&gt;Node14</title>
<path fill="none" stroke="midnightblue" d="M392.501,-108C419.782,-108 449.124,-108 470.785,-108"/>
<polygon fill="midnightblue" stroke="midnightblue" points="392.166,-104.5 382.166,-108 392.166,-111.5 392.166,-104.5"/>
</g>
<!-- Node15 -->
<g id="node15" class="node"><title>Node15</title>
<g id="a_node15"><a xlink:href="rpcwallet_8cpp.html#a315b42a2c859c4b50a54c1b05984928c" target="_top" xlink:title="signmessage">
<polygon fill="white" stroke="black" points="467,-60.5 467,-79.5 542,-79.5 542,-60.5 467,-60.5"/>
<text text-anchor="middle" x="504.5" y="-67.5" font-family="Helvetica,sans-Serif" font-size="10.00">signmessage</text>
</a>
</g>
</g>
<!-- Node11&#45;&gt;Node15 -->
<g id="edge15" class="edge"><title>Node11&#45;&gt;Node15</title>
<path fill="none" stroke="midnightblue" d="M373.723,-96.3717C404.064,-90.2063 440.436,-82.8151 466.945,-77.4283"/>
<polygon fill="midnightblue" stroke="midnightblue" points="372.791,-92.9896 363.688,-98.411 374.185,-99.8494 372.791,-92.9896"/>
</g>
</g>
</svg>
