<?xml version="1.0" encoding="UTF-8" standalone="no"?>
<!DOCTYPE svg PUBLIC "-//W3C//DTD SVG 1.1//EN"
 "http://www.w3.org/Graphics/SVG/1.1/DTD/svg11.dtd">
<!-- Generated by graphviz version 2.38.0 (20140413.2041)
 -->
<!-- Title: payments::PaymentDetails::set_has_payment_url Pages: 1 -->
<svg width="521pt" height="137pt"
 viewBox="0.00 0.00 521.00 137.00" xmlns="http://www.w3.org/2000/svg" xmlns:xlink="http://www.w3.org/1999/xlink">
<g id="graph0" class="graph" transform="scale(1 1) rotate(0) translate(4 133)">
<title>payments::PaymentDetails::set_has_payment_url</title>
<polygon fill="white" stroke="none" points="-4,4 -4,-133 517,-133 517,4 -4,4"/>
<!-- Node1 -->
<g id="node1" class="node"><title>Node1</title>
<polygon fill="#bfbfbf" stroke="black" points="0,-49.5 0,-79.5 135,-79.5 135,-49.5 0,-49.5"/>
<text text-anchor="start" x="8" y="-67.5" font-family="Helvetica,sans-Serif" font-size="10.00">payments::PaymentDetails</text>
<text text-anchor="middle" x="67.5" y="-56.5" font-family="Helvetica,sans-Serif" font-size="10.00">::set_has_payment_url</text>
</g>
<!-- Node2 -->
<g id="node2" class="node"><title>Node2</title>
<g id="a_node2"><a xlink:href="classpayments_1_1_payment_details.html#ac9adcd1e7af5e4d9557400b7cfcc6779" target="_top" xlink:title="payments::PaymentDetails\l::set_payment_url">
<polygon fill="white" stroke="black" points="174.5,-98.5 174.5,-128.5 309.5,-128.5 309.5,-98.5 174.5,-98.5"/>
<text text-anchor="start" x="182.5" y="-116.5" font-family="Helvetica,sans-Serif" font-size="10.00">payments::PaymentDetails</text>
<text text-anchor="middle" x="242" y="-105.5" font-family="Helvetica,sans-Serif" font-size="10.00">::set_payment_url</text>
</a>
</g>
</g>
<!-- Node1&#45;&gt;Node2 -->
<g id="edge1" class="edge"><title>Node1&#45;&gt;Node2</title>
<path fill="none" stroke="midnightblue" d="M131.494,-82.3941C150.048,-87.6644 170.154,-93.3755 188.012,-98.4484"/>
<polygon fill="midnightblue" stroke="midnightblue" points="132.239,-78.9672 121.663,-79.6014 130.326,-85.7008 132.239,-78.9672"/>
</g>
<!-- Node4 -->
<g id="node4" class="node"><title>Node4</title>
<g id="a_node4"><a xlink:href="classpayments_1_1_payment_details.html#a9d8b1eee3ff974b8a78a90468336c5de" target="_top" xlink:title="payments::PaymentDetails\l::mutable_payment_url">
<polygon fill="white" stroke="black" points="174.5,-49.5 174.5,-79.5 309.5,-79.5 309.5,-49.5 174.5,-49.5"/>
<text text-anchor="start" x="182.5" y="-67.5" font-family="Helvetica,sans-Serif" font-size="10.00">payments::PaymentDetails</text>
<text text-anchor="middle" x="242" y="-56.5" font-family="Helvetica,sans-Serif" font-size="10.00">::mutable_payment_url</text>
</a>
</g>
</g>
<!-- Node1&#45;&gt;Node4 -->
<g id="edge3" class="edge"><title>Node1&#45;&gt;Node4</title>
<path fill="none" stroke="midnightblue" d="M145.267,-64.5C155.011,-64.5 164.919,-64.5 174.484,-64.5"/>
<polygon fill="midnightblue" stroke="midnightblue" points="145.193,-61.0001 135.193,-64.5 145.193,-68.0001 145.193,-61.0001"/>
</g>
<!-- Node6 -->
<g id="node6" class="node"><title>Node6</title>
<g id="a_node6"><a xlink:href="classpayments_1_1_payment_details.html#ad5a62f10a12fedc9e44ed5db1b23e95a" target="_top" xlink:title="payments::PaymentDetails\l::set_allocated_payment_url">
<polygon fill="white" stroke="black" points="171,-0.5 171,-30.5 313,-30.5 313,-0.5 171,-0.5"/>
<text text-anchor="start" x="179" y="-18.5" font-family="Helvetica,sans-Serif" font-size="10.00">payments::PaymentDetails</text>
<text text-anchor="middle" x="242" y="-7.5" font-family="Helvetica,sans-Serif" font-size="10.00">::set_allocated_payment_url</text>
</a>
</g>
</g>
<!-- Node1&#45;&gt;Node6 -->
<g id="edge5" class="edge"><title>Node1&#45;&gt;Node6</title>
<path fill="none" stroke="midnightblue" d="M131.494,-46.6059C150.048,-41.3356 170.154,-35.6245 188.012,-30.5516"/>
<polygon fill="midnightblue" stroke="midnightblue" points="130.326,-43.2992 121.663,-49.3986 132.239,-50.0328 130.326,-43.2992"/>
</g>
<!-- Node3 -->
<g id="node3" class="node"><title>Node3</title>
<g id="a_node3"><a xlink:href="classpayments_1_1_payment_details.html#a4eeba6a02bd9b15645f0447ff211a2c2" target="_top" xlink:title="payments::PaymentDetails\l::MergeFrom">
<polygon fill="white" stroke="black" points="363.5,-98.5 363.5,-128.5 498.5,-128.5 498.5,-98.5 363.5,-98.5"/>
<text text-anchor="start" x="371.5" y="-116.5" font-family="Helvetica,sans-Serif" font-size="10.00">payments::PaymentDetails</text>
<text text-anchor="middle" x="431" y="-105.5" font-family="Helvetica,sans-Serif" font-size="10.00">::MergeFrom</text>
</a>
</g>
</g>
<!-- Node2&#45;&gt;Node3 -->
<g id="edge2" class="edge"><title>Node2&#45;&gt;Node3</title>
<path fill="none" stroke="midnightblue" d="M320.056,-113.5C334.409,-113.5 349.296,-113.5 363.306,-113.5"/>
<polygon fill="midnightblue" stroke="midnightblue" points="319.719,-110 309.719,-113.5 319.719,-117 319.719,-110"/>
</g>
<!-- Node5 -->
<g id="node5" class="node"><title>Node5</title>
<g id="a_node5"><a xlink:href="classpayments_1_1_payment_details.html#a02041f288b52f004c61e49365ca33e6c" target="_top" xlink:title="payments::PaymentDetails\l::MergePartialFromCodedStream">
<polygon fill="white" stroke="black" points="349,-49.5 349,-79.5 513,-79.5 513,-49.5 349,-49.5"/>
<text text-anchor="start" x="357" y="-67.5" font-family="Helvetica,sans-Serif" font-size="10.00">payments::PaymentDetails</text>
<text text-anchor="middle" x="431" y="-56.5" font-family="Helvetica,sans-Serif" font-size="10.00">::MergePartialFromCodedStream</text>
</a>
</g>
</g>
<!-- Node4&#45;&gt;Node5 -->
<g id="edge4" class="edge"><title>Node4&#45;&gt;Node5</title>
<path fill="none" stroke="midnightblue" d="M319.966,-64.5C329.512,-64.5 339.296,-64.5 348.903,-64.5"/>
<polygon fill="midnightblue" stroke="midnightblue" points="319.719,-61.0001 309.719,-64.5 319.719,-68.0001 319.719,-61.0001"/>
</g>
</g>
</svg>
