<?xml version="1.0" encoding="UTF-8" standalone="no"?>
<!DOCTYPE svg PUBLIC "-//W3C//DTD SVG 1.1//EN"
 "http://www.w3.org/Graphics/SVG/1.1/DTD/svg11.dtd">
<!-- Generated by graphviz version 2.38.0 (20140413.2041)
 -->
<!-- Title: CNetAddr::ToStringIP Pages: 1 -->
<svg width="1559pt" height="635pt"
 viewBox="0.00 0.00 1559.00 634.50" xmlns="http://www.w3.org/2000/svg" xmlns:xlink="http://www.w3.org/1999/xlink">
<g id="graph0" class="graph" transform="scale(1 1) rotate(0) translate(4 630.5)">
<title>CNetAddr::ToStringIP</title>
<polygon fill="white" stroke="none" points="-4,4 -4,-630.5 1555,-630.5 1555,4 -4,4"/>
<!-- Node1 -->
<g id="node1" class="node"><title>Node1</title>
<polygon fill="#bfbfbf" stroke="black" points="0,-404 0,-423 113,-423 113,-404 0,-404"/>
<text text-anchor="middle" x="56.5" y="-411" font-family="Helvetica,sans-Serif" font-size="10.00">CNetAddr::ToStringIP</text>
</g>
<!-- Node2 -->
<g id="node2" class="node"><title>Node2</title>
<g id="a_node2"><a xlink:href="net_8cpp.html#a1148dd8edf6d69bebabe041ba6da6158" target="_top" xlink:title="ThreadGetMyExternalIP">
<polygon fill="white" stroke="black" points="898.5,-455 898.5,-474 1022.5,-474 1022.5,-455 898.5,-455"/>
<text text-anchor="middle" x="960.5" y="-462" font-family="Helvetica,sans-Serif" font-size="10.00">ThreadGetMyExternalIP</text>
</a>
</g>
</g>
<!-- Node1&#45;&gt;Node2 -->
<g id="edge1" class="edge"><title>Node1&#45;&gt;Node2</title>
<path fill="none" stroke="midnightblue" d="M108.486,-425.183C178.76,-440.239 309.526,-464.5 422.5,-464.5 422.5,-464.5 422.5,-464.5 604,-464.5 707.379,-464.5 827.668,-464.5 898.482,-464.5"/>
<polygon fill="midnightblue" stroke="midnightblue" points="109.081,-421.731 98.5661,-423.033 107.597,-428.572 109.081,-421.731"/>
</g>
<!-- Node3 -->
<g id="node3" class="node"><title>Node3</title>
<g id="a_node3"><a xlink:href="netbase_8h.html#a1647b6ef2c58fd2f57f9243d3f17093d" target="_top" xlink:title="ConnectSocket">
<polygon fill="white" stroke="black" points="186.5,-512 186.5,-531 270.5,-531 270.5,-512 186.5,-512"/>
<text text-anchor="middle" x="228.5" y="-519" font-family="Helvetica,sans-Serif" font-size="10.00">ConnectSocket</text>
</a>
</g>
</g>
<!-- Node1&#45;&gt;Node3 -->
<g id="edge2" class="edge"><title>Node1&#45;&gt;Node3</title>
<path fill="none" stroke="midnightblue" d="M78.065,-429.155C96.3063,-442.786 123.878,-462.771 149,-478.5 168.756,-490.869 192.311,-503.506 208.431,-511.85"/>
<polygon fill="midnightblue" stroke="midnightblue" points="80.0065,-426.236 69.9113,-423.021 75.7981,-431.829 80.0065,-426.236"/>
</g>
<!-- Node17 -->
<g id="node17" class="node"><title>Node17</title>
<g id="a_node17"><a xlink:href="class_c_service.html#a39b82301356b0dfc2a92befc727b77be" target="_top" xlink:title="CService::ToStringIPPort">
<polygon fill="white" stroke="black" points="164.5,-354 164.5,-373 292.5,-373 292.5,-354 164.5,-354"/>
<text text-anchor="middle" x="228.5" y="-361" font-family="Helvetica,sans-Serif" font-size="10.00">CService::ToStringIPPort</text>
</a>
</g>
</g>
<!-- Node1&#45;&gt;Node17 -->
<g id="edge19" class="edge"><title>Node1&#45;&gt;Node17</title>
<path fill="none" stroke="midnightblue" d="M99.4834,-401.152C128.963,-392.482 167.816,-381.054 194.956,-373.072"/>
<polygon fill="midnightblue" stroke="midnightblue" points="98.4819,-397.798 89.8758,-403.978 100.457,-404.514 98.4819,-397.798"/>
</g>
<!-- Node42 -->
<g id="node42" class="node"><title>Node42</title>
<g id="a_node42"><a xlink:href="class_options_model.html#ae7c7840b9a004e838ad73438d4df08ac" target="_top" xlink:title="OptionsModel::getProxySettings">
<polygon fill="white" stroke="black" points="149,-171 149,-190 308,-190 308,-171 149,-171"/>
<text text-anchor="middle" x="228.5" y="-178" font-family="Helvetica,sans-Serif" font-size="10.00">OptionsModel::getProxySettings</text>
</a>
</g>
</g>
<!-- Node1&#45;&gt;Node42 -->
<g id="edge55" class="edge"><title>Node1&#45;&gt;Node42</title>
<path fill="none" stroke="midnightblue" d="M70.59,-395.559C104.509,-349.07 194.41,-225.852 220.381,-190.257"/>
<polygon fill="midnightblue" stroke="midnightblue" points="67.6549,-393.644 64.5883,-403.785 73.3098,-397.769 67.6549,-393.644"/>
</g>
<!-- Node4 -->
<g id="node4" class="node"><title>Node4</title>
<g id="a_node4"><a xlink:href="net_8cpp.html#a23ad330fb37fb9d5b1d6ab43f33b1443" target="_top" xlink:title="GetMyExternalIP2">
<polygon fill="white" stroke="black" points="554,-493 554,-512 652,-512 652,-493 554,-493"/>
<text text-anchor="middle" x="603" y="-500" font-family="Helvetica,sans-Serif" font-size="10.00">GetMyExternalIP2</text>
</a>
</g>
</g>
<!-- Node3&#45;&gt;Node4 -->
<g id="edge3" class="edge"><title>Node3&#45;&gt;Node4</title>
<path fill="none" stroke="midnightblue" d="M281,-518.873C353.167,-515.192 483.418,-508.548 553.778,-504.96"/>
<polygon fill="midnightblue" stroke="midnightblue" points="280.596,-515.389 270.787,-519.394 280.953,-522.38 280.596,-515.389"/>
</g>
<!-- Node6 -->
<g id="node6" class="node"><title>Node6</title>
<g id="a_node6"><a xlink:href="net_8h.html#a718dfaec68eabf5a2a3ebb476bf4fe67" target="_top" xlink:title="ConnectNode">
<polygon fill="white" stroke="black" points="564,-569 564,-588 642,-588 642,-569 564,-569"/>
<text text-anchor="middle" x="603" y="-576" font-family="Helvetica,sans-Serif" font-size="10.00">ConnectNode</text>
</a>
</g>
</g>
<!-- Node3&#45;&gt;Node6 -->
<g id="edge6" class="edge"><title>Node3&#45;&gt;Node6</title>
<path fill="none" stroke="midnightblue" d="M281.041,-527.856C336.112,-534.835 425.909,-546.756 503,-559.5 523.03,-562.811 545.234,-567.023 563.53,-570.639"/>
<polygon fill="midnightblue" stroke="midnightblue" points="281.198,-524.348 270.839,-526.569 280.322,-531.293 281.198,-524.348"/>
</g>
<!-- Node16 -->
<g id="node16" class="node"><title>Node16</title>
<g id="a_node16"><a xlink:href="netbase_8h.html#a6b06ed45e08d73e435c656a4dfcb0a95" target="_top" xlink:title="ConnectSocketByName">
<polygon fill="white" stroke="black" points="362,-569 362,-588 485,-588 485,-569 362,-569"/>
<text text-anchor="middle" x="423.5" y="-576" font-family="Helvetica,sans-Serif" font-size="10.00">ConnectSocketByName</text>
</a>
</g>
</g>
<!-- Node3&#45;&gt;Node16 -->
<g id="edge17" class="edge"><title>Node3&#45;&gt;Node16</title>
<path fill="none" stroke="midnightblue" d="M271.435,-533.885C307.068,-544.409 357.487,-559.299 390.091,-568.928"/>
<polygon fill="midnightblue" stroke="midnightblue" points="272.386,-530.516 261.804,-531.041 270.403,-537.23 272.386,-530.516"/>
</g>
<!-- Node5 -->
<g id="node5" class="node"><title>Node5</title>
<g id="a_node5"><a xlink:href="net_8h.html#a27ffa42cb391e77b144781a73ed18368" target="_top" xlink:title="GetMyExternalIP">
<polygon fill="white" stroke="black" points="728.5,-493 728.5,-512 820.5,-512 820.5,-493 728.5,-493"/>
<text text-anchor="middle" x="774.5" y="-500" font-family="Helvetica,sans-Serif" font-size="10.00">GetMyExternalIP</text>
</a>
</g>
</g>
<!-- Node4&#45;&gt;Node5 -->
<g id="edge4" class="edge"><title>Node4&#45;&gt;Node5</title>
<path fill="none" stroke="midnightblue" d="M662.2,-502.5C683.881,-502.5 708.14,-502.5 728.463,-502.5"/>
<polygon fill="midnightblue" stroke="midnightblue" points="662.119,-499 652.119,-502.5 662.118,-506 662.119,-499"/>
</g>
<!-- Node5&#45;&gt;Node2 -->
<g id="edge5" class="edge"><title>Node5&#45;&gt;Node2</title>
<path fill="none" stroke="midnightblue" d="M830.38,-491.166C856.816,-485.706 888.165,-479.232 913.354,-474.03"/>
<polygon fill="midnightblue" stroke="midnightblue" points="829.597,-487.754 820.511,-493.204 831.013,-494.609 829.597,-487.754"/>
</g>
<!-- Node7 -->
<g id="node7" class="node"><title>Node7</title>
<g id="a_node7"><a xlink:href="net_8cpp.html#aa19cb8e6cf23a990e585f2bbf9ece276" target="_top" xlink:title="OpenNetworkConnection">
<polygon fill="white" stroke="black" points="710.5,-607 710.5,-626 838.5,-626 838.5,-607 710.5,-607"/>
<text text-anchor="middle" x="774.5" y="-614" font-family="Helvetica,sans-Serif" font-size="10.00">OpenNetworkConnection</text>
</a>
</g>
</g>
<!-- Node6&#45;&gt;Node7 -->
<g id="edge7" class="edge"><title>Node6&#45;&gt;Node7</title>
<path fill="none" stroke="midnightblue" d="M652.007,-589.263C676.918,-594.847 707.082,-601.61 731.122,-606.999"/>
<polygon fill="midnightblue" stroke="midnightblue" points="652.563,-585.8 642.039,-587.028 651.031,-592.631 652.563,-585.8"/>
</g>
<!-- Node15 -->
<g id="node15" class="node"><title>Node15</title>
<g id="a_node15"><a xlink:href="rpcnet_8cpp.html#ab455bfd729ba34d3bb55b716e62405a3" target="_top" xlink:title="addnode">
<polygon fill="white" stroke="black" points="747,-569 747,-588 802,-588 802,-569 747,-569"/>
<text text-anchor="middle" x="774.5" y="-576" font-family="Helvetica,sans-Serif" font-size="10.00">addnode</text>
</a>
</g>
</g>
<!-- Node6&#45;&gt;Node15 -->
<g id="edge16" class="edge"><title>Node6&#45;&gt;Node15</title>
<path fill="none" stroke="midnightblue" d="M652.131,-578.5C682.879,-578.5 721.59,-578.5 746.914,-578.5"/>
<polygon fill="midnightblue" stroke="midnightblue" points="652.039,-575 642.039,-578.5 652.039,-582 652.039,-575"/>
</g>
<!-- Node8 -->
<g id="node8" class="node"><title>Node8</title>
<g id="a_node8"><a xlink:href="net_8cpp.html#a3b4720330e61127963a43df26b80f804" target="_top" xlink:title="ThreadOpenConnections">
<polygon fill="white" stroke="black" points="896.5,-550 896.5,-569 1024.5,-569 1024.5,-550 896.5,-550"/>
<text text-anchor="middle" x="960.5" y="-557" font-family="Helvetica,sans-Serif" font-size="10.00">ThreadOpenConnections</text>
</a>
</g>
</g>
<!-- Node7&#45;&gt;Node8 -->
<g id="edge8" class="edge"><title>Node7&#45;&gt;Node8</title>
<path fill="none" stroke="midnightblue" d="M822.416,-604.277C830.312,-602.099 838.406,-599.792 846,-597.5 875.84,-588.493 909.678,-576.994 932.585,-569.017"/>
<polygon fill="midnightblue" stroke="midnightblue" points="821.304,-600.952 812.573,-606.955 823.141,-607.707 821.304,-600.952"/>
</g>
<!-- Node14 -->
<g id="node14" class="node"><title>Node14</title>
<g id="a_node14"><a xlink:href="net_8cpp.html#a2d1ca95557ae336582b886a251e7fe94" target="_top" xlink:title="ThreadOpenAddedConnections">
<polygon fill="white" stroke="black" points="882,-597 882,-616 1039,-616 1039,-597 882,-597"/>
<text text-anchor="middle" x="960.5" y="-604" font-family="Helvetica,sans-Serif" font-size="10.00">ThreadOpenAddedConnections</text>
</a>
</g>
</g>
<!-- Node7&#45;&gt;Node14 -->
<g id="edge14" class="edge"><title>Node7&#45;&gt;Node14</title>
<path fill="none" stroke="midnightblue" d="M848.846,-612.514C859.707,-611.924 870.93,-611.314 881.875,-610.719"/>
<polygon fill="midnightblue" stroke="midnightblue" points="848.36,-609.035 838.565,-613.073 848.74,-616.025 848.36,-609.035"/>
</g>
<!-- Node9 -->
<g id="node9" class="node"><title>Node9</title>
<g id="a_node9"><a xlink:href="net_8h.html#a9396d8054e8f74959e9391871aaddde0" target="_top" xlink:title="StartNode">
<polygon fill="white" stroke="black" points="1115,-512 1115,-531 1177,-531 1177,-512 1115,-512"/>
<text text-anchor="middle" x="1146" y="-519" font-family="Helvetica,sans-Serif" font-size="10.00">StartNode</text>
</a>
</g>
</g>
<!-- Node8&#45;&gt;Node9 -->
<g id="edge9" class="edge"><title>Node8&#45;&gt;Node9</title>
<path fill="none" stroke="midnightblue" d="M1017.92,-547.816C1049.88,-541.198 1088.59,-533.181 1114.83,-527.748"/>
<polygon fill="midnightblue" stroke="midnightblue" points="1016.89,-544.456 1007.8,-549.911 1018.31,-551.31 1016.89,-544.456"/>
</g>
<!-- Node10 -->
<g id="node10" class="node"><title>Node10</title>
<g id="a_node10"><a xlink:href="init_8h.html#a1a4c1bfbf6ba1db77e988b89b9cadfd3" target="_top" xlink:title="Initialize anoncoin. ">
<polygon fill="white" stroke="black" points="1257,-290 1257,-309 1310,-309 1310,-290 1257,-290"/>
<text text-anchor="middle" x="1283.5" y="-297" font-family="Helvetica,sans-Serif" font-size="10.00">AppInit2</text>
</a>
</g>
</g>
<!-- Node9&#45;&gt;Node10 -->
<g id="edge10" class="edge"><title>Node9&#45;&gt;Node10</title>
<path fill="none" stroke="midnightblue" d="M1158.15,-503.235C1185.65,-458.171 1256.02,-342.89 1276.7,-309.004"/>
<polygon fill="midnightblue" stroke="midnightblue" points="1155.04,-501.602 1152.82,-511.961 1161.02,-505.249 1155.04,-501.602"/>
</g>
<!-- Node11 -->
<g id="node11" class="node"><title>Node11</title>
<g id="a_node11"><a xlink:href="anoncoind_8cpp.html#ac59316b767e6984e1285f0531275286b" target="_top" xlink:title="AppInit">
<polygon fill="white" stroke="black" points="1389.5,-227 1389.5,-246 1437.5,-246 1437.5,-227 1389.5,-227"/>
<text text-anchor="middle" x="1413.5" y="-234" font-family="Helvetica,sans-Serif" font-size="10.00">AppInit</text>
</a>
</g>
</g>
<!-- Node10&#45;&gt;Node11 -->
<g id="edge11" class="edge"><title>Node10&#45;&gt;Node11</title>
<path fill="none" stroke="midnightblue" d="M1313.03,-285.457C1337.32,-273.504 1371.56,-256.648 1392.88,-246.158"/>
<polygon fill="midnightblue" stroke="midnightblue" points="1311.37,-282.375 1303.94,-289.932 1314.46,-288.656 1311.37,-282.375"/>
</g>
<!-- Node13 -->
<g id="node13" class="node"><title>Node13</title>
<g id="a_node13"><a xlink:href="class_anoncoin_coin.html#a9510881824d283404ac43414dbb74586" target="_top" xlink:title="AnoncoinCoin::initialize">
<polygon fill="white" stroke="black" points="1353.5,-290 1353.5,-309 1473.5,-309 1473.5,-290 1353.5,-290"/>
<text text-anchor="middle" x="1413.5" y="-297" font-family="Helvetica,sans-Serif" font-size="10.00">AnoncoinCoin::initialize</text>
</a>
</g>
</g>
<!-- Node10&#45;&gt;Node13 -->
<g id="edge13" class="edge"><title>Node10&#45;&gt;Node13</title>
<path fill="none" stroke="midnightblue" d="M1320.3,-299.5C1330.57,-299.5 1342.05,-299.5 1353.34,-299.5"/>
<polygon fill="midnightblue" stroke="midnightblue" points="1320.1,-296 1310.1,-299.5 1320.1,-303 1320.1,-296"/>
</g>
<!-- Node12 -->
<g id="node12" class="node"><title>Node12</title>
<g id="a_node12"><a xlink:href="anoncoind_8cpp.html#a0ddf1224851353fc92bfbff6f499fa97" target="_top" xlink:title="main">
<polygon fill="white" stroke="black" points="1513,-227 1513,-246 1551,-246 1551,-227 1513,-227"/>
<text text-anchor="middle" x="1532" y="-234" font-family="Helvetica,sans-Serif" font-size="10.00">main</text>
</a>
</g>
</g>
<!-- Node11&#45;&gt;Node12 -->
<g id="edge12" class="edge"><title>Node11&#45;&gt;Node12</title>
<path fill="none" stroke="midnightblue" d="M1447.73,-236.5C1468.95,-236.5 1495.63,-236.5 1512.99,-236.5"/>
<polygon fill="midnightblue" stroke="midnightblue" points="1447.52,-233 1437.52,-236.5 1447.52,-240 1447.52,-233"/>
</g>
<!-- Node14&#45;&gt;Node9 -->
<g id="edge15" class="edge"><title>Node14&#45;&gt;Node9</title>
<path fill="none" stroke="midnightblue" d="M1000.62,-593.627C1013.04,-589.204 1026.73,-583.978 1039,-578.5 1071.81,-563.844 1108.38,-543.151 1128.85,-531.15"/>
<polygon fill="midnightblue" stroke="midnightblue" points="999.264,-590.392 990.975,-596.991 1001.57,-597.001 999.264,-590.392"/>
</g>
<!-- Node16&#45;&gt;Node6 -->
<g id="edge18" class="edge"><title>Node16&#45;&gt;Node6</title>
<path fill="none" stroke="midnightblue" d="M495.346,-578.5C518.755,-578.5 543.9,-578.5 563.891,-578.5"/>
<polygon fill="midnightblue" stroke="midnightblue" points="495.089,-575 485.089,-578.5 495.089,-582 495.089,-575"/>
</g>
<!-- Node18 -->
<g id="node18" class="node"><title>Node18</title>
<g id="a_node18"><a xlink:href="class_c_addr_man.html#a03fcc7109b5f014760dc50a81f68c5ec" target="_top" xlink:title="CAddrMan::Add">
<polygon fill="white" stroke="black" points="730.5,-531 730.5,-550 818.5,-550 818.5,-531 730.5,-531"/>
<text text-anchor="middle" x="774.5" y="-538" font-family="Helvetica,sans-Serif" font-size="10.00">CAddrMan::Add</text>
</a>
</g>
</g>
<!-- Node17&#45;&gt;Node18 -->
<g id="edge20" class="edge"><title>Node17&#45;&gt;Node18</title>
<path fill="none" stroke="midnightblue" d="M251.747,-378.789C300.926,-411.673 423.68,-488.784 539,-521.5 603.836,-539.894 682.51,-542.47 730.251,-541.977"/>
<polygon fill="midnightblue" stroke="midnightblue" points="253.424,-375.698 243.177,-373.006 249.509,-381.501 253.424,-375.698"/>
</g>
<!-- Node20 -->
<g id="node20" class="node"><title>Node20</title>
<g id="a_node20"><a xlink:href="class_c_node.html#a51556705550511146245b9fb2fec09c1" target="_top" xlink:title="CNode::CNode">
<polygon fill="white" stroke="black" points="732.5,-66 732.5,-85 816.5,-85 816.5,-66 732.5,-66"/>
<text text-anchor="middle" x="774.5" y="-73" font-family="Helvetica,sans-Serif" font-size="10.00">CNode::CNode</text>
</a>
</g>
</g>
<!-- Node17&#45;&gt;Node20 -->
<g id="edge24" class="edge"><title>Node17&#45;&gt;Node20</title>
<path fill="none" stroke="midnightblue" d="M241.255,-345.243C277.539,-290.818 394.112,-129.917 539,-72.5 603.158,-47.0751 685.159,-56.6335 733.249,-65.9956"/>
<polygon fill="midnightblue" stroke="midnightblue" points="238.167,-343.57 235.599,-353.849 244.016,-347.414 238.167,-343.57"/>
</g>
<!-- Node21 -->
<g id="node21" class="node"><title>Node21</title>
<g id="a_node21"><a xlink:href="class_c_service.html#a336f9848fe9364e260c76499be0351a5" target="_top" xlink:title="CService::ToString">
<polygon fill="white" stroke="black" points="373.5,-284 373.5,-303 473.5,-303 473.5,-284 373.5,-284"/>
<text text-anchor="middle" x="423.5" y="-291" font-family="Helvetica,sans-Serif" font-size="10.00">CService::ToString</text>
</a>
</g>
</g>
<!-- Node17&#45;&gt;Node21 -->
<g id="edge25" class="edge"><title>Node17&#45;&gt;Node21</title>
<path fill="none" stroke="midnightblue" d="M265.566,-350.419C303.489,-336.665 362.252,-315.352 396.079,-303.083"/>
<polygon fill="midnightblue" stroke="midnightblue" points="264.139,-347.214 255.931,-353.914 266.525,-353.794 264.139,-347.214"/>
</g>
<!-- Node41 -->
<g id="node41" class="node"><title>Node41</title>
<g id="a_node41"><a xlink:href="rpcmisc_8cpp.html#a70335b93783d51e48d276a1e08bd721a" target="_top" xlink:title="getinfo">
<polygon fill="white" stroke="black" points="400,-354 400,-373 447,-373 447,-354 400,-354"/>
<text text-anchor="middle" x="423.5" y="-361" font-family="Helvetica,sans-Serif" font-size="10.00">getinfo</text>
</a>
</g>
</g>
<!-- Node17&#45;&gt;Node41 -->
<g id="edge54" class="edge"><title>Node17&#45;&gt;Node41</title>
<path fill="none" stroke="midnightblue" d="M302.751,-363.5C337.185,-363.5 375.818,-363.5 399.656,-363.5"/>
<polygon fill="midnightblue" stroke="midnightblue" points="302.695,-360 292.695,-363.5 302.695,-367 302.695,-360"/>
</g>
<!-- Node18&#45;&gt;Node8 -->
<g id="edge23" class="edge"><title>Node18&#45;&gt;Node8</title>
<path fill="none" stroke="midnightblue" d="M828.728,-545.996C849.879,-548.18 874.375,-550.71 896.409,-552.985"/>
<polygon fill="midnightblue" stroke="midnightblue" points="828.946,-542.5 818.64,-544.955 828.227,-549.463 828.946,-542.5"/>
</g>
<!-- Node19 -->
<g id="node19" class="node"><title>Node19</title>
<g id="a_node19"><a xlink:href="net_8cpp.html#ab2d8883b5524ec7b80d3b9535e73a3ed" target="_top" xlink:title="Process DNS seed data from chainparams. ">
<polygon fill="white" stroke="black" points="896,-512 896,-531 1025,-531 1025,-512 896,-512"/>
<text text-anchor="middle" x="960.5" y="-519" font-family="Helvetica,sans-Serif" font-size="10.00">ThreadDNSAddressSeed</text>
</a>
</g>
</g>
<!-- Node18&#45;&gt;Node19 -->
<g id="edge21" class="edge"><title>Node18&#45;&gt;Node19</title>
<path fill="none" stroke="midnightblue" d="M828.633,-535.013C849.58,-532.85 873.819,-530.347 895.702,-528.088"/>
<polygon fill="midnightblue" stroke="midnightblue" points="828.227,-531.537 818.64,-536.045 828.946,-538.5 828.227,-531.537"/>
</g>
<!-- Node19&#45;&gt;Node9 -->
<g id="edge22" class="edge"><title>Node19&#45;&gt;Node9</title>
<path fill="none" stroke="midnightblue" d="M1035.29,-521.5C1063.12,-521.5 1093.25,-521.5 1114.88,-521.5"/>
<polygon fill="midnightblue" stroke="midnightblue" points="1035.16,-518 1025.16,-521.5 1035.16,-525 1035.16,-518"/>
</g>
<!-- Node21&#45;&gt;Node4 -->
<g id="edge40" class="edge"><title>Node21&#45;&gt;Node4</title>
<path fill="none" stroke="midnightblue" d="M453.783,-307.96C469.735,-316.886 489.013,-329.493 503,-344.5 525.516,-368.658 521.722,-381.357 539,-409.5 558.182,-440.745 583.167,-476.254 595.087,-492.914"/>
<polygon fill="midnightblue" stroke="midnightblue" points="455.304,-304.804 444.84,-303.141 451.983,-310.966 455.304,-304.804"/>
</g>
<!-- Node21&#45;&gt;Node6 -->
<g id="edge41" class="edge"><title>Node21&#45;&gt;Node6</title>
<path fill="none" stroke="midnightblue" d="M457.984,-307.658C473.979,-316.088 491.992,-328.328 503,-344.5 548.172,-410.862 499.251,-451.754 539,-521.5 550.612,-541.875 572.103,-558.929 586.721,-568.927"/>
<polygon fill="midnightblue" stroke="midnightblue" points="459.381,-304.444 448.867,-303.135 456.269,-310.715 459.381,-304.444"/>
</g>
<!-- Node22 -->
<g id="node22" class="node"><title>Node22</title>
<g id="a_node22"><a xlink:href="class_c_addr_man.html#a33ec6a4584cf4b17af821e6e35216459" target="_top" xlink:title="CAddrMan::Good_">
<polygon fill="white" stroke="black" points="553,-196 553,-215 653,-215 653,-196 553,-196"/>
<text text-anchor="middle" x="603" y="-203" font-family="Helvetica,sans-Serif" font-size="10.00">CAddrMan::Good_</text>
</a>
</g>
</g>
<!-- Node21&#45;&gt;Node22 -->
<g id="edge26" class="edge"><title>Node21&#45;&gt;Node22</title>
<path fill="none" stroke="midnightblue" d="M446.425,-278.011C468.834,-262.738 505.066,-239.558 539,-224.5 547.145,-220.886 556.175,-217.71 564.795,-215.041"/>
<polygon fill="midnightblue" stroke="midnightblue" points="444.234,-275.27 437.992,-283.831 448.211,-281.031 444.234,-275.27"/>
</g>
<!-- Node24 -->
<g id="node24" class="node"><title>Node24</title>
<g id="a_node24"><a xlink:href="main_8h.html#a711a5bdb30c9c9bbdc83011b1cbbe2f3" target="_top" xlink:title="Send queued protocol messages to be sent to a give node. ">
<polygon fill="white" stroke="black" points="918,-126 918,-145 1003,-145 1003,-126 918,-126"/>
<text text-anchor="middle" x="960.5" y="-133" font-family="Helvetica,sans-Serif" font-size="10.00">SendMessages</text>
</a>
</g>
</g>
<!-- Node21&#45;&gt;Node24 -->
<g id="edge28" class="edge"><title>Node21&#45;&gt;Node24</title>
<path fill="none" stroke="midnightblue" d="M432.899,-274.294C448.41,-241.524 484.976,-175.715 539,-148.5 664.892,-85.0807 839.964,-109.897 918.508,-125.952"/>
<polygon fill="midnightblue" stroke="midnightblue" points="429.582,-273.132 428.607,-283.682 435.948,-276.043 429.582,-273.132"/>
</g>
<!-- Node29 -->
<g id="node29" class="node"><title>Node29</title>
<g id="a_node29"><a xlink:href="net_8h.html#a337d6af198a6b0d75f830e56da9b91e9" target="_top" xlink:title="AddLocal">
<polygon fill="white" stroke="black" points="574,-348 574,-367 632,-367 632,-348 574,-348"/>
<text text-anchor="middle" x="603" y="-355" font-family="Helvetica,sans-Serif" font-size="10.00">AddLocal</text>
</a>
</g>
</g>
<!-- Node21&#45;&gt;Node29 -->
<g id="edge35" class="edge"><title>Node21&#45;&gt;Node29</title>
<path fill="none" stroke="midnightblue" d="M460.661,-306.538C494.753,-318.831 545.038,-336.962 575.535,-347.958"/>
<polygon fill="midnightblue" stroke="midnightblue" points="461.668,-303.181 451.074,-303.081 459.294,-309.766 461.668,-303.181"/>
</g>
<!-- Node31 -->
<g id="node31" class="node"><title>Node31</title>
<g id="a_node31"><a xlink:href="net_8cpp.html#a0c8010ad96acff7cca6aca684ec42b71" target="_top" xlink:title="BindListenPort">
<polygon fill="white" stroke="black" points="733.5,-265 733.5,-284 815.5,-284 815.5,-265 733.5,-265"/>
<text text-anchor="middle" x="774.5" y="-272" font-family="Helvetica,sans-Serif" font-size="10.00">BindListenPort</text>
</a>
</g>
</g>
<!-- Node21&#45;&gt;Node31 -->
<g id="edge51" class="edge"><title>Node21&#45;&gt;Node31</title>
<path fill="none" stroke="midnightblue" d="M484.079,-300.123C533.305,-304.421 604.927,-307.967 667,-300.5 692.888,-297.386 721.569,-290.158 742.639,-284.112"/>
<polygon fill="midnightblue" stroke="midnightblue" points="484.202,-296.62 473.926,-299.198 483.567,-303.591 484.202,-296.62"/>
</g>
<!-- Node32 -->
<g id="node32" class="node"><title>Node32</title>
<g id="a_node32"><a xlink:href="class_c_node.html#a4dbfe4f6c1fd162aaa905e4bd201d536" target="_top" xlink:title="CNode::PushVersion">
<polygon fill="white" stroke="black" points="548,-82 548,-101 658,-101 658,-82 548,-82"/>
<text text-anchor="middle" x="603" y="-89" font-family="Helvetica,sans-Serif" font-size="10.00">CNode::PushVersion</text>
</a>
</g>
</g>
<!-- Node21&#45;&gt;Node32 -->
<g id="edge42" class="edge"><title>Node21&#45;&gt;Node32</title>
<path fill="none" stroke="midnightblue" d="M431.895,-274.557C446.833,-238.623 483.941,-160.168 539,-115.5 546.635,-109.306 556.043,-104.593 565.237,-101.055"/>
<polygon fill="midnightblue" stroke="midnightblue" points="428.628,-273.299 428.123,-283.882 435.118,-275.924 428.628,-273.299"/>
</g>
<!-- Node33 -->
<g id="node33" class="node"><title>Node33</title>
<g id="a_node33"><a xlink:href="class_c_node.html#aaa77188d9df85b80e3f8a30292acf6a9" target="_top" xlink:title="CNode::copyStats">
<polygon fill="white" stroke="black" points="554.5,-158 554.5,-177 651.5,-177 651.5,-158 554.5,-158"/>
<text text-anchor="middle" x="603" y="-165" font-family="Helvetica,sans-Serif" font-size="10.00">CNode::copyStats</text>
</a>
</g>
</g>
<!-- Node21&#45;&gt;Node33 -->
<g id="edge44" class="edge"><title>Node21&#45;&gt;Node33</title>
<path fill="none" stroke="midnightblue" d="M438.479,-276.176C458.401,-252.587 497.207,-210.553 539,-186.5 545.634,-182.682 553.111,-179.561 560.535,-177.034"/>
<polygon fill="midnightblue" stroke="midnightblue" points="435.71,-274.033 432.022,-283.965 441.099,-278.5 435.71,-274.033"/>
</g>
<!-- Node38 -->
<g id="node38" class="node"><title>Node38</title>
<g id="a_node38"><a xlink:href="net_8cpp.html#aa1111c12121e039bbd8eedb556e4514a" target="_top" xlink:title="Main Thread that handling socket&#39;s &amp; their housekeeping... ">
<polygon fill="white" stroke="black" points="903.5,-398 903.5,-417 1017.5,-417 1017.5,-398 903.5,-398"/>
<text text-anchor="middle" x="960.5" y="-405" font-family="Helvetica,sans-Serif" font-size="10.00">ThreadSocketHandler</text>
</a>
</g>
</g>
<!-- Node21&#45;&gt;Node38 -->
<g id="edge49" class="edge"><title>Node21&#45;&gt;Node38</title>
<path fill="none" stroke="midnightblue" d="M449.577,-308.449C465.321,-318.158 485.822,-331.403 503,-344.5 520.024,-357.479 519.284,-368.161 539,-376.5 660.861,-428.039 820.266,-422.253 903.449,-414.399"/>
<polygon fill="midnightblue" stroke="midnightblue" points="451.279,-305.388 440.919,-303.169 447.635,-311.364 451.279,-305.388"/>
</g>
<!-- Node39 -->
<g id="node39" class="node"><title>Node39</title>
<g id="a_node39"><a xlink:href="class_c_service.html#af357cab44f469efb9e7b8fe0afd615f9" target="_top" xlink:title="CService::print">
<polygon fill="white" stroke="black" points="562,-272 562,-291 644,-291 644,-272 562,-272"/>
<text text-anchor="middle" x="603" y="-279" font-family="Helvetica,sans-Serif" font-size="10.00">CService::print</text>
</a>
</g>
</g>
<!-- Node21&#45;&gt;Node39 -->
<g id="edge52" class="edge"><title>Node21&#45;&gt;Node39</title>
<path fill="none" stroke="midnightblue" d="M483.921,-289.483C509.521,-287.752 538.789,-285.773 561.781,-284.219"/>
<polygon fill="midnightblue" stroke="midnightblue" points="483.685,-285.991 473.944,-290.157 484.157,-292.975 483.685,-285.991"/>
</g>
<!-- Node40 -->
<g id="node40" class="node"><title>Node40</title>
<g id="a_node40"><a xlink:href="rpcnet_8cpp.html#a2a6994d3b180c8e9ce81e0da65a41bb3" target="_top" xlink:title="getaddednodeinfo">
<polygon fill="white" stroke="black" points="554.5,-234 554.5,-253 651.5,-253 651.5,-234 554.5,-234"/>
<text text-anchor="middle" x="603" y="-241" font-family="Helvetica,sans-Serif" font-size="10.00">getaddednodeinfo</text>
</a>
</g>
</g>
<!-- Node21&#45;&gt;Node40 -->
<g id="edge53" class="edge"><title>Node21&#45;&gt;Node40</title>
<path fill="none" stroke="midnightblue" d="M467.935,-281.265C498.763,-272.581 539.56,-261.089 568.02,-253.072"/>
<polygon fill="midnightblue" stroke="midnightblue" points="466.981,-277.897 458.304,-283.978 468.879,-284.635 466.981,-277.897"/>
</g>
<!-- Node23 -->
<g id="node23" class="node"><title>Node23</title>
<g id="a_node23"><a xlink:href="class_c_addr_man.html#a993e80e74701d7bc6bb49880c387b847" target="_top" xlink:title="CAddrMan::Good">
<polygon fill="white" stroke="black" points="727.5,-196 727.5,-215 821.5,-215 821.5,-196 727.5,-196"/>
<text text-anchor="middle" x="774.5" y="-203" font-family="Helvetica,sans-Serif" font-size="10.00">CAddrMan::Good</text>
</a>
</g>
</g>
<!-- Node22&#45;&gt;Node23 -->
<g id="edge27" class="edge"><title>Node22&#45;&gt;Node23</title>
<path fill="none" stroke="midnightblue" d="M663.165,-205.5C684.253,-205.5 707.673,-205.5 727.491,-205.5"/>
<polygon fill="midnightblue" stroke="midnightblue" points="663.026,-202 653.026,-205.5 663.026,-209 663.026,-202"/>
</g>
<!-- Node25 -->
<g id="node25" class="node"><title>Node25</title>
<g id="a_node25"><a xlink:href="main_8h.html#ab02615ff65f91d69f8d786ec900baa8a" target="_top" xlink:title="Register with a network node to receive its signals. ">
<polygon fill="white" stroke="black" points="1091,-164 1091,-183 1201,-183 1201,-164 1091,-164"/>
<text text-anchor="middle" x="1146" y="-171" font-family="Helvetica,sans-Serif" font-size="10.00">RegisterNodeSignals</text>
</a>
</g>
</g>
<!-- Node24&#45;&gt;Node25 -->
<g id="edge29" class="edge"><title>Node24&#45;&gt;Node25</title>
<path fill="none" stroke="midnightblue" d="M1013.18,-146.201C1040.17,-151.79 1072.91,-158.572 1099.02,-163.978"/>
<polygon fill="midnightblue" stroke="midnightblue" points="1013.64,-142.723 1003.14,-144.123 1012.22,-149.578 1013.64,-142.723"/>
</g>
<!-- Node26 -->
<g id="node26" class="node"><title>Node26</title>
<g id="a_node26"><a xlink:href="main_8h.html#a3ef0cc6e9d9d6435ee2a5569244d6ebd" target="_top" xlink:title="Unregister a network node. ">
<polygon fill="white" stroke="black" points="1086.5,-126 1086.5,-145 1205.5,-145 1205.5,-126 1086.5,-126"/>
<text text-anchor="middle" x="1146" y="-133" font-family="Helvetica,sans-Serif" font-size="10.00">UnregisterNodeSignals</text>
</a>
</g>
</g>
<!-- Node24&#45;&gt;Node26 -->
<g id="edge31" class="edge"><title>Node24&#45;&gt;Node26</title>
<path fill="none" stroke="midnightblue" d="M1013.3,-135.5C1036.09,-135.5 1062.97,-135.5 1086.48,-135.5"/>
<polygon fill="midnightblue" stroke="midnightblue" points="1013.14,-132 1003.14,-135.5 1013.14,-139 1013.14,-132"/>
</g>
<!-- Node25&#45;&gt;Node10 -->
<g id="edge30" class="edge"><title>Node25&#45;&gt;Node10</title>
<path fill="none" stroke="midnightblue" d="M1209.07,-187.434C1211.85,-188.951 1214.51,-190.634 1217,-192.5 1251.68,-218.498 1272.02,-268.733 1279.36,-289.815"/>
<polygon fill="midnightblue" stroke="midnightblue" points="1210.43,-184.202 1199.89,-183.128 1207.46,-190.541 1210.43,-184.202"/>
</g>
<!-- Node27 -->
<g id="node27" class="node"><title>Node27</title>
<g id="a_node27"><a xlink:href="init_8h.html#ac5f038c2b480cf9ef5e19e3eba8dbaf9" target="_top" xlink:title="Shutdown">
<polygon fill="white" stroke="black" points="1253,-139 1253,-158 1314,-158 1314,-139 1253,-139"/>
<text text-anchor="middle" x="1283.5" y="-146" font-family="Helvetica,sans-Serif" font-size="10.00">Shutdown</text>
</a>
</g>
</g>
<!-- Node26&#45;&gt;Node27 -->
<g id="edge32" class="edge"><title>Node26&#45;&gt;Node27</title>
<path fill="none" stroke="midnightblue" d="M1215.64,-142.085C1228.74,-143.342 1241.79,-144.595 1252.85,-145.655"/>
<polygon fill="midnightblue" stroke="midnightblue" points="1215.93,-138.597 1205.64,-141.126 1215.26,-145.565 1215.93,-138.597"/>
</g>
<!-- Node27&#45;&gt;Node11 -->
<g id="edge33" class="edge"><title>Node27&#45;&gt;Node11</title>
<path fill="none" stroke="midnightblue" d="M1306.97,-163.95C1333.45,-182.155 1376.62,-211.834 1398.64,-226.97"/>
<polygon fill="midnightblue" stroke="midnightblue" points="1308.91,-161.035 1298.69,-158.254 1304.94,-166.803 1308.91,-161.035"/>
</g>
<!-- Node28 -->
<g id="node28" class="node"><title>Node28</title>
<g id="a_node28"><a xlink:href="class_anoncoin_coin.html#ac33fbca9335d356d9d6102a0122f2a5b" target="_top" xlink:title="AnoncoinCoin::shutdown">
<polygon fill="white" stroke="black" points="1350,-139 1350,-158 1477,-158 1477,-139 1350,-139"/>
<text text-anchor="middle" x="1413.5" y="-146" font-family="Helvetica,sans-Serif" font-size="10.00">AnoncoinCoin::shutdown</text>
</a>
</g>
</g>
<!-- Node27&#45;&gt;Node28 -->
<g id="edge34" class="edge"><title>Node27&#45;&gt;Node28</title>
<path fill="none" stroke="midnightblue" d="M1324.43,-148.5C1332.52,-148.5 1341.22,-148.5 1349.88,-148.5"/>
<polygon fill="midnightblue" stroke="midnightblue" points="1324.19,-145 1314.19,-148.5 1324.19,-152 1324.19,-145"/>
</g>
<!-- Node29&#45;&gt;Node2 -->
<g id="edge38" class="edge"><title>Node29&#45;&gt;Node2</title>
<path fill="none" stroke="midnightblue" d="M641.999,-368.937C712.493,-390.155 862.299,-435.244 927.767,-454.949"/>
<polygon fill="midnightblue" stroke="midnightblue" points="642.777,-365.516 632.193,-365.986 640.76,-372.219 642.777,-365.516"/>
</g>
<!-- Node29&#45;&gt;Node10 -->
<g id="edge36" class="edge"><title>Node29&#45;&gt;Node10</title>
<path fill="none" stroke="midnightblue" d="M641.964,-345.61C660.233,-340.384 682.56,-334.715 703,-331.5 915.015,-298.156 1175.4,-298.146 1256.89,-299.083"/>
<polygon fill="midnightblue" stroke="midnightblue" points="640.883,-342.279 632.27,-348.449 642.851,-348.997 640.883,-342.279"/>
</g>
<!-- Node30 -->
<g id="node30" class="node"><title>Node30</title>
<g id="a_node30"><a xlink:href="net_8h.html#abda4e8f87772f9a9d9d8f52a93791ffc" target="_top" xlink:title="AddLocal">
<polygon fill="white" stroke="black" points="745.5,-341 745.5,-360 803.5,-360 803.5,-341 745.5,-341"/>
<text text-anchor="middle" x="774.5" y="-348" font-family="Helvetica,sans-Serif" font-size="10.00">AddLocal</text>
</a>
</g>
</g>
<!-- Node29&#45;&gt;Node30 -->
<g id="edge37" class="edge"><title>Node29&#45;&gt;Node30</title>
<path fill="none" stroke="midnightblue" d="M642.477,-355.911C673.767,-354.619 717.193,-352.825 745.32,-351.664"/>
<polygon fill="midnightblue" stroke="midnightblue" points="642.218,-352.419 632.37,-356.328 642.506,-359.413 642.218,-352.419"/>
</g>
<!-- Node29&#45;&gt;Node31 -->
<g id="edge39" class="edge"><title>Node29&#45;&gt;Node31</title>
<path fill="none" stroke="midnightblue" d="M641.699,-346.006C650.341,-342.604 659.256,-338.438 667,-333.5 685.816,-321.502 683.972,-310.159 703,-298.5 712.922,-292.421 724.581,-287.649 735.53,-284.018"/>
<polygon fill="midnightblue" stroke="midnightblue" points="640.312,-342.787 632.136,-349.525 642.729,-349.357 640.312,-342.787"/>
</g>
<!-- Node32&#45;&gt;Node20 -->
<g id="edge43" class="edge"><title>Node32&#45;&gt;Node20</title>
<path fill="none" stroke="midnightblue" d="M668.141,-85.4454C689.63,-83.4169 713.001,-81.2108 732.259,-79.3929"/>
<polygon fill="midnightblue" stroke="midnightblue" points="667.724,-81.9691 658.097,-86.3935 668.382,-88.9382 667.724,-81.9691"/>
</g>
<!-- Node34 -->
<g id="node34" class="node"><title>Node34</title>
<g id="a_node34"><a xlink:href="class_peer_table_priv.html#a304d99874f6cd0c67ed207546a5ca904" target="_top" xlink:title="Pull a full list of peers from vNodes into our cache. ">
<polygon fill="white" stroke="black" points="703,-158 703,-177 846,-177 846,-158 703,-158"/>
<text text-anchor="middle" x="774.5" y="-165" font-family="Helvetica,sans-Serif" font-size="10.00">PeerTablePriv::refreshPeers</text>
</a>
</g>
</g>
<!-- Node33&#45;&gt;Node34 -->
<g id="edge45" class="edge"><title>Node33&#45;&gt;Node34</title>
<path fill="none" stroke="midnightblue" d="M661.965,-167.5C675.096,-167.5 689.184,-167.5 702.777,-167.5"/>
<polygon fill="midnightblue" stroke="midnightblue" points="661.666,-164 651.666,-167.5 661.666,-171 661.666,-164"/>
</g>
<!-- Node35 -->
<g id="node35" class="node"><title>Node35</title>
<g id="a_node35"><a xlink:href="class_peer_table_model.html#abae14b3fd8a38a60f752f67a57b5b0b3" target="_top" xlink:title="PeerTableModel::refresh">
<polygon fill="white" stroke="black" points="897,-202 897,-221 1024,-221 1024,-202 897,-202"/>
<text text-anchor="middle" x="960.5" y="-209" font-family="Helvetica,sans-Serif" font-size="10.00">PeerTableModel::refresh</text>
</a>
</g>
</g>
<!-- Node34&#45;&gt;Node35 -->
<g id="edge46" class="edge"><title>Node34&#45;&gt;Node35</title>
<path fill="none" stroke="midnightblue" d="M825.165,-179.376C854.805,-186.464 891.942,-195.345 919.653,-201.971"/>
<polygon fill="midnightblue" stroke="midnightblue" points="825.965,-175.969 815.425,-177.047 824.337,-182.777 825.965,-175.969"/>
</g>
<!-- Node36 -->
<g id="node36" class="node"><title>Node36</title>
<g id="a_node36"><a xlink:href="class_peer_table_model.html#a94e40794eeb946475a4a747c1fe1a2c2" target="_top" xlink:title="PeerTableModel::PeerTable\lModel">
<polygon fill="white" stroke="black" points="1075,-240.5 1075,-270.5 1217,-270.5 1217,-240.5 1075,-240.5"/>
<text text-anchor="start" x="1083" y="-258.5" font-family="Helvetica,sans-Serif" font-size="10.00">PeerTableModel::PeerTable</text>
<text text-anchor="middle" x="1146" y="-247.5" font-family="Helvetica,sans-Serif" font-size="10.00">Model</text>
</a>
</g>
</g>
<!-- Node35&#45;&gt;Node36 -->
<g id="edge47" class="edge"><title>Node35&#45;&gt;Node36</title>
<path fill="none" stroke="midnightblue" d="M1011.06,-223.384C1032.95,-228.633 1058.94,-234.864 1082.17,-240.435"/>
<polygon fill="midnightblue" stroke="midnightblue" points="1011.86,-219.976 1001.32,-221.047 1010.22,-226.783 1011.86,-219.976"/>
</g>
<!-- Node37 -->
<g id="node37" class="node"><title>Node37</title>
<g id="a_node37"><a xlink:href="class_peer_table_model.html#ac2211cda0ce659ac4c324c6ff24e1e5f" target="_top" xlink:title="PeerTableModel::sort">
<polygon fill="white" stroke="black" points="1090,-202 1090,-221 1202,-221 1202,-202 1090,-202"/>
<text text-anchor="middle" x="1146" y="-209" font-family="Helvetica,sans-Serif" font-size="10.00">PeerTableModel::sort</text>
</a>
</g>
</g>
<!-- Node35&#45;&gt;Node37 -->
<g id="edge48" class="edge"><title>Node35&#45;&gt;Node37</title>
<path fill="none" stroke="midnightblue" d="M1034.26,-211.5C1052.73,-211.5 1072.27,-211.5 1089.71,-211.5"/>
<polygon fill="midnightblue" stroke="midnightblue" points="1034.14,-208 1024.14,-211.5 1034.14,-215 1034.14,-208"/>
</g>
<!-- Node38&#45;&gt;Node9 -->
<g id="edge50" class="edge"><title>Node38&#45;&gt;Node9</title>
<path fill="none" stroke="midnightblue" d="M992.837,-421.412C1007.2,-428.154 1024.27,-436.689 1039,-445.5 1074.76,-466.884 1113.87,-496.79 1133.05,-511.921"/>
<polygon fill="midnightblue" stroke="midnightblue" points="993.935,-418.064 983.389,-417.05 991.001,-424.42 993.935,-418.064"/>
</g>
<!-- Node43 -->
<g id="node43" class="node"><title>Node43</title>
<g id="a_node43"><a xlink:href="class_payment_server.html#a2f94f2c3e12d03199870e17008535302" target="_top" xlink:title="PaymentServer::initNetManager">
<polygon fill="white" stroke="black" points="344,-6 344,-25 503,-25 503,-6 344,-6"/>
<text text-anchor="middle" x="423.5" y="-13" font-family="Helvetica,sans-Serif" font-size="10.00">PaymentServer::initNetManager</text>
</a>
</g>
</g>
<!-- Node42&#45;&gt;Node43 -->
<g id="edge56" class="edge"><title>Node42&#45;&gt;Node43</title>
<path fill="none" stroke="midnightblue" d="M239.596,-161.976C256.962,-131.836 295.358,-72.2609 344,-39.5 353.338,-33.2108 364.388,-28.5176 375.205,-25.0344"/>
<polygon fill="midnightblue" stroke="midnightblue" points="236.379,-160.556 234.528,-170.988 242.48,-163.987 236.379,-160.556"/>
</g>
<!-- Node44 -->
<g id="node44" class="node"><title>Node44</title>
<g id="a_node44"><a xlink:href="class_payment_server.html#abb6c65fabbf97ba95381997ca9cd6993" target="_top" xlink:title="PaymentServer::uiReady">
<polygon fill="white" stroke="black" points="539,-6 539,-25 667,-25 667,-6 539,-6"/>
<text text-anchor="middle" x="603" y="-13" font-family="Helvetica,sans-Serif" font-size="10.00">PaymentServer::uiReady</text>
</a>
</g>
</g>
<!-- Node43&#45;&gt;Node44 -->
<g id="edge57" class="edge"><title>Node43&#45;&gt;Node44</title>
<path fill="none" stroke="midnightblue" d="M513.262,-15.5C521.91,-15.5 530.558,-15.5 538.877,-15.5"/>
<polygon fill="midnightblue" stroke="midnightblue" points="513.129,-12.0001 503.129,-15.5 513.129,-19.0001 513.129,-12.0001"/>
</g>
<!-- Node45 -->
<g id="node45" class="node"><title>Node45</title>
<g id="a_node45"><a xlink:href="class_payment_server_tests.html#a82c8a7437bfc26c28619b954a5ee8cad" target="_top" xlink:title="PaymentServerTests\l::paymentServerTests">
<polygon fill="white" stroke="black" points="717.5,-0.5 717.5,-30.5 831.5,-30.5 831.5,-0.5 717.5,-0.5"/>
<text text-anchor="start" x="725.5" y="-18.5" font-family="Helvetica,sans-Serif" font-size="10.00">PaymentServerTests</text>
<text text-anchor="middle" x="774.5" y="-7.5" font-family="Helvetica,sans-Serif" font-size="10.00">::paymentServerTests</text>
</a>
</g>
</g>
<!-- Node44&#45;&gt;Node45 -->
<g id="edge58" class="edge"><title>Node44&#45;&gt;Node45</title>
<path fill="none" stroke="midnightblue" d="M677.275,-15.5C690.689,-15.5 704.495,-15.5 717.313,-15.5"/>
<polygon fill="midnightblue" stroke="midnightblue" points="677.116,-12.0001 667.116,-15.5 677.116,-19.0001 677.116,-12.0001"/>
</g>
</g>
</svg>
