<?xml version="1.0" encoding="UTF-8" standalone="no"?>
<!DOCTYPE svg PUBLIC "-//W3C//DTD SVG 1.1//EN"
 "http://www.w3.org/Graphics/SVG/1.1/DTD/svg11.dtd">
<!-- Generated by graphviz version 2.38.0 (20140413.2041)
 -->
<!-- Title: ClientModel::getOptionsModel Pages: 1 -->
<svg width="846pt" height="200pt"
 viewBox="0.00 0.00 846.00 199.50" xmlns="http://www.w3.org/2000/svg" xmlns:xlink="http://www.w3.org/1999/xlink">
<g id="graph0" class="graph" transform="scale(1 1) rotate(0) translate(4 195.5)">
<title>ClientModel::getOptionsModel</title>
<polygon fill="white" stroke="none" points="-4,4 -4,-195.5 842,-195.5 842,4 -4,4"/>
<!-- Node1 -->
<g id="node1" class="node"><title>Node1</title>
<polygon fill="#bfbfbf" stroke="black" points="0,-57.5 0,-76.5 150,-76.5 150,-57.5 0,-57.5"/>
<text text-anchor="middle" x="75" y="-64.5" font-family="Helvetica,sans-Serif" font-size="10.00">ClientModel::getOptionsModel</text>
</g>
<!-- Node2 -->
<g id="node2" class="node"><title>Node2</title>
<g id="a_node2"><a xlink:href="class_anoncoin_g_u_i.html#ab6dbbc9dae6aee55656d615c1aff5399" target="_top" xlink:title="Set the client model. ">
<polygon fill="white" stroke="black" points="186,-117.5 186,-136.5 334,-136.5 334,-117.5 186,-117.5"/>
<text text-anchor="middle" x="260" y="-124.5" font-family="Helvetica,sans-Serif" font-size="10.00">AnoncoinGUI::setClientModel</text>
</a>
</g>
</g>
<!-- Node1&#45;&gt;Node2 -->
<g id="edge1" class="edge"><title>Node1&#45;&gt;Node2</title>
<path fill="none" stroke="midnightblue" d="M112.23,-79.9231C133.622,-87.4516 161.271,-97.0059 186,-105 199.099,-109.234 213.603,-113.659 226.208,-117.421"/>
<polygon fill="midnightblue" stroke="midnightblue" points="113.168,-76.5428 102.573,-76.513 110.837,-83.1433 113.168,-76.5428"/>
</g>
<!-- Node8 -->
<g id="node8" class="node"><title>Node8</title>
<g id="a_node8"><a xlink:href="class_anoncoin_g_u_i.html#a1afb9a47588132239cfba7be0adc2542" target="_top" xlink:title="Show configuration dialog. ">
<polygon fill="white" stroke="black" points="186.5,-76.5 186.5,-95.5 333.5,-95.5 333.5,-76.5 186.5,-76.5"/>
<text text-anchor="middle" x="260" y="-83.5" font-family="Helvetica,sans-Serif" font-size="10.00">AnoncoinGUI::optionsClicked</text>
</a>
</g>
</g>
<!-- Node1&#45;&gt;Node8 -->
<g id="edge7" class="edge"><title>Node1&#45;&gt;Node8</title>
<path fill="none" stroke="midnightblue" d="M160.278,-75.7502C168.939,-76.6494 177.687,-77.5577 186.209,-78.4425"/>
<polygon fill="midnightblue" stroke="midnightblue" points="160.477,-72.2521 150.169,-74.7006 159.754,-79.2147 160.477,-72.2521"/>
</g>
<!-- Node11 -->
<g id="node11" class="node"><title>Node11</title>
<g id="a_node11"><a xlink:href="class_anoncoin_g_u_i.html#a909338e8f5714760df19d93178bb47ec" target="_top" xlink:title="AnoncoinGUI::changeEvent">
<polygon fill="white" stroke="black" points="190,-38.5 190,-57.5 330,-57.5 330,-38.5 190,-38.5"/>
<text text-anchor="middle" x="260" y="-45.5" font-family="Helvetica,sans-Serif" font-size="10.00">AnoncoinGUI::changeEvent</text>
</a>
</g>
</g>
<!-- Node1&#45;&gt;Node11 -->
<g id="edge10" class="edge"><title>Node1&#45;&gt;Node11</title>
<path fill="none" stroke="midnightblue" d="M160.363,-58.241C170.202,-57.2195 180.151,-56.1865 189.752,-55.1896"/>
<polygon fill="midnightblue" stroke="midnightblue" points="159.754,-54.7853 150.169,-59.2994 160.477,-61.7479 159.754,-54.7853"/>
</g>
<!-- Node12 -->
<g id="node12" class="node"><title>Node12</title>
<g id="a_node12"><a xlink:href="class_anoncoin_g_u_i.html#a96cfc52a0e34ed63ba43865eac12f43a" target="_top" xlink:title="AnoncoinGUI::closeEvent">
<polygon fill="white" stroke="black" points="195,-0.5 195,-19.5 325,-19.5 325,-0.5 195,-0.5"/>
<text text-anchor="middle" x="260" y="-7.5" font-family="Helvetica,sans-Serif" font-size="10.00">AnoncoinGUI::closeEvent</text>
</a>
</g>
</g>
<!-- Node1&#45;&gt;Node12 -->
<g id="edge11" class="edge"><title>Node1&#45;&gt;Node12</title>
<path fill="none" stroke="midnightblue" d="M111.691,-53.8798C133.103,-46.2068 160.956,-36.5723 186,-29 196.906,-25.7025 208.83,-22.4519 219.821,-19.5971"/>
<polygon fill="midnightblue" stroke="midnightblue" points="110.258,-50.6759 102.039,-57.3618 112.633,-57.2606 110.258,-50.6759"/>
</g>
<!-- Node3 -->
<g id="node3" class="node"><title>Node3</title>
<g id="a_node3"><a xlink:href="class_anoncoin_application.html#a931ed67447cc07f1e0f32327b122af01" target="_top" xlink:title="Request core shutdown. ">
<polygon fill="white" stroke="black" points="387.5,-161 387.5,-191 494.5,-191 494.5,-161 387.5,-161"/>
<text text-anchor="start" x="395.5" y="-179" font-family="Helvetica,sans-Serif" font-size="10.00">AnoncoinApplication</text>
<text text-anchor="middle" x="441" y="-168" font-family="Helvetica,sans-Serif" font-size="10.00">::requestShutdown</text>
</a>
</g>
</g>
<!-- Node2&#45;&gt;Node3 -->
<g id="edge2" class="edge"><title>Node2&#45;&gt;Node3</title>
<path fill="none" stroke="midnightblue" d="M305.769,-139.255C330.468,-146.016 361.283,-154.452 387.158,-161.535"/>
<polygon fill="midnightblue" stroke="midnightblue" points="306.507,-135.829 295.938,-136.564 304.659,-142.58 306.507,-135.829"/>
</g>
<!-- Node5 -->
<g id="node5" class="node"><title>Node5</title>
<g id="a_node5"><a xlink:href="class_anoncoin_application.html#a565d432edd9d4fc30ce60bfd8d5699e3" target="_top" xlink:title="AnoncoinApplication\l::initializeResult">
<polygon fill="white" stroke="black" points="387.5,-112 387.5,-142 494.5,-142 494.5,-112 387.5,-112"/>
<text text-anchor="start" x="395.5" y="-130" font-family="Helvetica,sans-Serif" font-size="10.00">AnoncoinApplication</text>
<text text-anchor="middle" x="441" y="-119" font-family="Helvetica,sans-Serif" font-size="10.00">::initializeResult</text>
</a>
</g>
</g>
<!-- Node2&#45;&gt;Node5 -->
<g id="edge4" class="edge"><title>Node2&#45;&gt;Node5</title>
<path fill="none" stroke="midnightblue" d="M344.2,-127C358.922,-127 373.872,-127 387.447,-127"/>
<polygon fill="midnightblue" stroke="midnightblue" points="344.064,-123.5 334.064,-127 344.064,-130.5 344.064,-123.5"/>
</g>
<!-- Node4 -->
<g id="node4" class="node"><title>Node4</title>
<g id="a_node4"><a xlink:href="anoncoin_8cpp.html#a0ddf1224851353fc92bfbff6f499fa97" target="_top" xlink:title="main">
<polygon fill="white" stroke="black" points="599.5,-166.5 599.5,-185.5 637.5,-185.5 637.5,-166.5 599.5,-166.5"/>
<text text-anchor="middle" x="618.5" y="-173.5" font-family="Helvetica,sans-Serif" font-size="10.00">main</text>
</a>
</g>
</g>
<!-- Node3&#45;&gt;Node4 -->
<g id="edge3" class="edge"><title>Node3&#45;&gt;Node4</title>
<path fill="none" stroke="midnightblue" d="M504.87,-176C538.406,-176 577.227,-176 599.42,-176"/>
<polygon fill="midnightblue" stroke="midnightblue" points="504.656,-172.5 494.656,-176 504.656,-179.5 504.656,-172.5"/>
</g>
<!-- Node6 -->
<g id="node6" class="node"><title>Node6</title>
<g id="a_node6"><a xlink:href="class_anoncoin_application.html#a757849a7d52cb0559592ba4194f4872c" target="_top" xlink:title="AnoncoinApplication\l::startThread">
<polygon fill="white" stroke="black" points="565,-112 565,-142 672,-142 672,-112 565,-112"/>
<text text-anchor="start" x="573" y="-130" font-family="Helvetica,sans-Serif" font-size="10.00">AnoncoinApplication</text>
<text text-anchor="middle" x="618.5" y="-119" font-family="Helvetica,sans-Serif" font-size="10.00">::startThread</text>
</a>
</g>
</g>
<!-- Node5&#45;&gt;Node6 -->
<g id="edge5" class="edge"><title>Node5&#45;&gt;Node6</title>
<path fill="none" stroke="midnightblue" d="M504.761,-127C524.45,-127 545.969,-127 564.881,-127"/>
<polygon fill="midnightblue" stroke="midnightblue" points="504.656,-123.5 494.656,-127 504.656,-130.5 504.656,-123.5"/>
</g>
<!-- Node7 -->
<g id="node7" class="node"><title>Node7</title>
<g id="a_node7"><a xlink:href="class_anoncoin_application.html#a4e345b36dac09420eac7edc10fa4ffcf" target="_top" xlink:title="AnoncoinApplication\l::AnoncoinApplication">
<polygon fill="white" stroke="black" points="725,-112 725,-142 838,-142 838,-112 725,-112"/>
<text text-anchor="start" x="733" y="-130" font-family="Helvetica,sans-Serif" font-size="10.00">AnoncoinApplication</text>
<text text-anchor="middle" x="781.5" y="-119" font-family="Helvetica,sans-Serif" font-size="10.00">::AnoncoinApplication</text>
</a>
</g>
</g>
<!-- Node6&#45;&gt;Node7 -->
<g id="edge6" class="edge"><title>Node6&#45;&gt;Node7</title>
<path fill="none" stroke="midnightblue" d="M682.291,-127C696.345,-127 711.157,-127 724.896,-127"/>
<polygon fill="midnightblue" stroke="midnightblue" points="682.217,-123.5 672.217,-127 682.217,-130.5 682.217,-123.5"/>
</g>
<!-- Node9 -->
<g id="node9" class="node"><title>Node9</title>
<g id="a_node9"><a xlink:href="class_anoncoin_g_u_i.html#a8aa41c17fd6005652003d93330dbf7fb" target="_top" xlink:title="Create the main UI actions. ">
<polygon fill="white" stroke="black" points="370,-73.5 370,-92.5 512,-92.5 512,-73.5 370,-73.5"/>
<text text-anchor="middle" x="441" y="-80.5" font-family="Helvetica,sans-Serif" font-size="10.00">AnoncoinGUI::createActions</text>
</a>
</g>
</g>
<!-- Node8&#45;&gt;Node9 -->
<g id="edge8" class="edge"><title>Node8&#45;&gt;Node9</title>
<path fill="none" stroke="midnightblue" d="M343.768,-84.6128C352.524,-84.4661 361.367,-84.3179 369.959,-84.1739"/>
<polygon fill="midnightblue" stroke="midnightblue" points="343.488,-81.1169 333.548,-84.7841 343.605,-88.1159 343.488,-81.1169"/>
</g>
<!-- Node10 -->
<g id="node10" class="node"><title>Node10</title>
<g id="a_node10"><a xlink:href="class_anoncoin_g_u_i.html#a82d1cf09f42a7c169b3e9c8d3e54a3d0" target="_top" xlink:title="AnoncoinGUI::AnoncoinGUI">
<polygon fill="white" stroke="black" points="548,-73.5 548,-92.5 689,-92.5 689,-73.5 548,-73.5"/>
<text text-anchor="middle" x="618.5" y="-80.5" font-family="Helvetica,sans-Serif" font-size="10.00">AnoncoinGUI::AnoncoinGUI</text>
</a>
</g>
</g>
<!-- Node9&#45;&gt;Node10 -->
<g id="edge9" class="edge"><title>Node9&#45;&gt;Node10</title>
<path fill="none" stroke="midnightblue" d="M522.391,-83C530.868,-83 539.437,-83 547.779,-83"/>
<polygon fill="midnightblue" stroke="midnightblue" points="522.119,-79.5001 512.119,-83 522.119,-86.5001 522.119,-79.5001"/>
</g>
</g>
</svg>
