<?xml version="1.0" encoding="UTF-8" standalone="no"?>
<!DOCTYPE svg PUBLIC "-//W3C//DTD SVG 1.1//EN"
 "http://www.w3.org/Graphics/SVG/1.1/DTD/svg11.dtd">
<!-- Generated by graphviz version 2.38.0 (20140413.2041)
 -->
<!-- Title: CNode::PushVersion Pages: 1 -->
<svg width="1073pt" height="294pt"
 viewBox="0.00 0.00 1073.00 294.00" xmlns="http://www.w3.org/2000/svg" xmlns:xlink="http://www.w3.org/1999/xlink">
<g id="graph0" class="graph" transform="scale(1 1) rotate(0) translate(4 290)">
<title>CNode::PushVersion</title>
<polygon fill="white" stroke="none" points="-4,4 -4,-290 1069,-290 1069,4 -4,4"/>
<!-- Node1 -->
<g id="node1" class="node"><title>Node1</title>
<polygon fill="#bfbfbf" stroke="black" points="0,-171.5 0,-190.5 110,-190.5 110,-171.5 0,-171.5"/>
<text text-anchor="middle" x="55" y="-178.5" font-family="Helvetica,sans-Serif" font-size="10.00">CNode::PushVersion</text>
</g>
<!-- Node2 -->
<g id="node2" class="node"><title>Node2</title>
<g id="a_node2"><a xlink:href="util_8cpp.html#a09f81b9c7650f898cf3cf305b87547e6" target="_top" xlink:title="GetAdjustedTime">
<polygon fill="white" stroke="black" points="299,-228.5 299,-247.5 393,-247.5 393,-228.5 299,-228.5"/>
<text text-anchor="middle" x="346" y="-235.5" font-family="Helvetica,sans-Serif" font-size="10.00">GetAdjustedTime</text>
</a>
</g>
</g>
<!-- Node1&#45;&gt;Node2 -->
<g id="edge1" class="edge"><title>Node1&#45;&gt;Node2</title>
<path fill="none" stroke="midnightblue" d="M74.0466,-190.558C91.8245,-199.502 120.018,-212.439 146,-219 193.206,-230.921 248.435,-235.482 288.717,-237.17"/>
<polygon fill="midnightblue" stroke="midnightblue" points="288.759,-240.674 298.882,-237.549 289.019,-233.679 288.759,-240.674"/>
</g>
<!-- Node3 -->
<g id="node3" class="node"><title>Node3</title>
<g id="a_node3"><a xlink:href="util_8cpp.html#a46fac5fba8ba905b5f9acb364f5d8c6f" target="_top" xlink:title="GetTime">
<polygon fill="white" stroke="black" points="478,-266.5 478,-285.5 533,-285.5 533,-266.5 478,-266.5"/>
<text text-anchor="middle" x="505.5" y="-273.5" font-family="Helvetica,sans-Serif" font-size="10.00">GetTime</text>
</a>
</g>
</g>
<!-- Node1&#45;&gt;Node3 -->
<g id="edge4" class="edge"><title>Node1&#45;&gt;Node3</title>
<path fill="none" stroke="midnightblue" d="M67.0095,-190.67C83.1161,-204.212 114.611,-228.46 146,-240 257.507,-280.996 400.884,-280.977 467.467,-278.236"/>
<polygon fill="midnightblue" stroke="midnightblue" points="468.025,-281.714 477.855,-277.76 467.705,-274.722 468.025,-281.714"/>
</g>
<!-- Node5 -->
<g id="node5" class="node"><title>Node5</title>
<g id="a_node5"><a xlink:href="netbase_8cpp.html#aef250c1632d217d8f3b752ddeacc0368" target="_top" xlink:title="IsProxy">
<polygon fill="white" stroke="black" points="171,-190.5 171,-209.5 221,-209.5 221,-190.5 171,-190.5"/>
<text text-anchor="middle" x="196" y="-197.5" font-family="Helvetica,sans-Serif" font-size="10.00">IsProxy</text>
</a>
</g>
</g>
<!-- Node1&#45;&gt;Node5 -->
<g id="edge5" class="edge"><title>Node1&#45;&gt;Node5</title>
<path fill="none" stroke="midnightblue" d="M110.139,-188.4C127.233,-190.737 145.633,-193.252 160.914,-195.341"/>
<polygon fill="midnightblue" stroke="midnightblue" points="160.56,-198.825 170.942,-196.711 161.508,-191.889 160.56,-198.825"/>
</g>
<!-- Node6 -->
<g id="node6" class="node"><title>Node6</title>
<g id="a_node6"><a xlink:href="net_8cpp.html#a66f5f0bc1dad5cfe429157d5637a93dc" target="_top" xlink:title="GetLocalAddress">
<polygon fill="white" stroke="black" points="149.5,-152.5 149.5,-171.5 242.5,-171.5 242.5,-152.5 149.5,-152.5"/>
<text text-anchor="middle" x="196" y="-159.5" font-family="Helvetica,sans-Serif" font-size="10.00">GetLocalAddress</text>
</a>
</g>
</g>
<!-- Node1&#45;&gt;Node6 -->
<g id="edge6" class="edge"><title>Node1&#45;&gt;Node6</title>
<path fill="none" stroke="midnightblue" d="M110.139,-173.6C119.656,-172.299 129.577,-170.943 139.139,-169.636"/>
<polygon fill="midnightblue" stroke="midnightblue" points="139.905,-173.064 149.339,-168.241 138.957,-166.128 139.905,-173.064"/>
</g>
<!-- Node8 -->
<g id="node8" class="node"><title>Node8</title>
<g id="a_node8"><a xlink:href="class_c_service.html#a336f9848fe9364e260c76499be0351a5" target="_top" xlink:title="CService::ToString">
<polygon fill="white" stroke="black" points="146,-114.5 146,-133.5 246,-133.5 246,-114.5 146,-114.5"/>
<text text-anchor="middle" x="196" y="-121.5" font-family="Helvetica,sans-Serif" font-size="10.00">CService::ToString</text>
</a>
</g>
</g>
<!-- Node1&#45;&gt;Node8 -->
<g id="edge9" class="edge"><title>Node1&#45;&gt;Node8</title>
<path fill="none" stroke="midnightblue" d="M78.1159,-171.447C96.2879,-163.649 122.733,-152.42 146,-143 150.741,-141.08 155.756,-139.09 160.697,-137.153"/>
<polygon fill="midnightblue" stroke="midnightblue" points="161.968,-140.414 170.016,-133.524 159.428,-133.891 161.968,-140.414"/>
</g>
<!-- Node22 -->
<g id="node22" class="node"><title>Node22</title>
<g id="a_node22"><a xlink:href="clientversion_8cpp.html#a7e6809cdbfc7f83b46f83caea740894d" target="_top" xlink:title="Format the subversion field according to BIP 14 spec (https://github.com/bitcoin/bips/blob/master/bip...">
<polygon fill="white" stroke="black" points="146,-76.5 146,-95.5 246,-95.5 246,-76.5 146,-76.5"/>
<text text-anchor="middle" x="196" y="-83.5" font-family="Helvetica,sans-Serif" font-size="10.00">FormatSubVersion</text>
</a>
</g>
</g>
<!-- Node1&#45;&gt;Node22 -->
<g id="edge25" class="edge"><title>Node1&#45;&gt;Node22</title>
<path fill="none" stroke="midnightblue" d="M65.17,-171.415C80.6003,-155.736 113.288,-124.413 146,-105 149.251,-103.071 152.734,-101.268 156.288,-99.6015"/>
<polygon fill="midnightblue" stroke="midnightblue" points="157.958,-102.693 165.751,-95.5155 155.183,-96.2662 157.958,-102.693"/>
</g>
<!-- Node2&#45;&gt;Node3 -->
<g id="edge2" class="edge"><title>Node2&#45;&gt;Node3</title>
<path fill="none" stroke="midnightblue" d="M386.744,-247.589C411.622,-253.591 443.449,-261.27 467.741,-267.131"/>
<polygon fill="midnightblue" stroke="midnightblue" points="467.106,-270.578 477.648,-269.522 468.748,-263.774 467.106,-270.578"/>
</g>
<!-- Node4 -->
<g id="node4" class="node"><title>Node4</title>
<g id="a_node4"><a xlink:href="util_8cpp.html#a50ca5344c75631267633f15cfe5e983e" target="_top" xlink:title="GetTimeOffset">
<polygon fill="white" stroke="black" points="464.5,-228.5 464.5,-247.5 546.5,-247.5 546.5,-228.5 464.5,-228.5"/>
<text text-anchor="middle" x="505.5" y="-235.5" font-family="Helvetica,sans-Serif" font-size="10.00">GetTimeOffset</text>
</a>
</g>
</g>
<!-- Node2&#45;&gt;Node4 -->
<g id="edge3" class="edge"><title>Node2&#45;&gt;Node4</title>
<path fill="none" stroke="midnightblue" d="M393.403,-238C412.478,-238 434.618,-238 454.09,-238"/>
<polygon fill="midnightblue" stroke="midnightblue" points="454.298,-241.5 464.298,-238 454.298,-234.5 454.298,-241.5"/>
</g>
<!-- Node6&#45;&gt;Node2 -->
<g id="edge8" class="edge"><title>Node6&#45;&gt;Node2</title>
<path fill="none" stroke="midnightblue" d="M223.761,-171.529C231.069,-174.359 238.921,-177.614 246,-181 272.566,-193.707 301.62,-210.849 321.339,-223.007"/>
<polygon fill="midnightblue" stroke="midnightblue" points="319.618,-226.059 329.958,-228.371 323.317,-220.116 319.618,-226.059"/>
</g>
<!-- Node7 -->
<g id="node7" class="node"><title>Node7</title>
<g id="a_node7"><a xlink:href="net_8cpp.html#a51605827c953a7843f9b165eada26857" target="_top" xlink:title="GetLocal">
<polygon fill="white" stroke="black" points="317.5,-152.5 317.5,-171.5 374.5,-171.5 374.5,-152.5 317.5,-152.5"/>
<text text-anchor="middle" x="346" y="-159.5" font-family="Helvetica,sans-Serif" font-size="10.00">GetLocal</text>
</a>
</g>
</g>
<!-- Node6&#45;&gt;Node7 -->
<g id="edge7" class="edge"><title>Node6&#45;&gt;Node7</title>
<path fill="none" stroke="midnightblue" d="M242.613,-162C263.347,-162 287.586,-162 307.274,-162"/>
<polygon fill="midnightblue" stroke="midnightblue" points="307.401,-165.5 317.401,-162 307.401,-158.5 307.401,-165.5"/>
</g>
<!-- Node9 -->
<g id="node9" class="node"><title>Node9</title>
<g id="a_node9"><a xlink:href="class_c_service.html#a39b82301356b0dfc2a92befc727b77be" target="_top" xlink:title="CService::ToStringIPPort">
<polygon fill="white" stroke="black" points="282,-114.5 282,-133.5 410,-133.5 410,-114.5 282,-114.5"/>
<text text-anchor="middle" x="346" y="-121.5" font-family="Helvetica,sans-Serif" font-size="10.00">CService::ToStringIPPort</text>
</a>
</g>
</g>
<!-- Node8&#45;&gt;Node9 -->
<g id="edge10" class="edge"><title>Node8&#45;&gt;Node9</title>
<path fill="none" stroke="midnightblue" d="M246.282,-124C254.502,-124 263.181,-124 271.845,-124"/>
<polygon fill="midnightblue" stroke="midnightblue" points="271.98,-127.5 281.98,-124 271.98,-120.5 271.98,-127.5"/>
</g>
<!-- Node10 -->
<g id="node10" class="node"><title>Node10</title>
<g id="a_node10"><a xlink:href="util_8cpp.html#a24f685720bf40370e5bd2a192ad50cd8" target="_top" xlink:title="Return string argument or default value. ">
<polygon fill="white" stroke="black" points="481.5,-190.5 481.5,-209.5 529.5,-209.5 529.5,-190.5 481.5,-190.5"/>
<text text-anchor="middle" x="505.5" y="-197.5" font-family="Helvetica,sans-Serif" font-size="10.00">GetArg</text>
</a>
</g>
</g>
<!-- Node9&#45;&gt;Node10 -->
<g id="edge11" class="edge"><title>Node9&#45;&gt;Node10</title>
<path fill="none" stroke="midnightblue" d="M389.655,-133.554C396.728,-136.055 403.777,-139.162 410,-143 429.801,-155.213 426.329,-168.579 446,-181 453.807,-185.93 463.013,-189.697 471.783,-192.524"/>
<polygon fill="midnightblue" stroke="midnightblue" points="470.822,-195.889 481.402,-195.329 472.781,-189.169 470.822,-195.889"/>
</g>
<!-- Node11 -->
<g id="node11" class="node"><title>Node11</title>
<g id="a_node11"><a xlink:href="class_c_service.html#a1e0f0b98239a9097044695a9e439bb46" target="_top" xlink:title="CService::ToStringPort">
<polygon fill="white" stroke="black" points="446,-152.5 446,-171.5 565,-171.5 565,-152.5 446,-152.5"/>
<text text-anchor="middle" x="505.5" y="-159.5" font-family="Helvetica,sans-Serif" font-size="10.00">CService::ToStringPort</text>
</a>
</g>
</g>
<!-- Node9&#45;&gt;Node11 -->
<g id="edge12" class="edge"><title>Node9&#45;&gt;Node11</title>
<path fill="none" stroke="midnightblue" d="M386.744,-133.589C407.528,-138.604 433.161,-144.788 455.199,-150.105"/>
<polygon fill="midnightblue" stroke="midnightblue" points="454.5,-153.537 465.042,-152.48 456.142,-146.732 454.5,-153.537"/>
</g>
<!-- Node12 -->
<g id="node12" class="node"><title>Node12</title>
<g id="a_node12"><a xlink:href="class_c_net_addr.html#a16ff4478f02f06f5a9a038a24d5da2f9" target="_top" xlink:title="CNetAddr::IsIPv4">
<polygon fill="white" stroke="black" points="770.5,-114.5 770.5,-133.5 864.5,-133.5 864.5,-114.5 770.5,-114.5"/>
<text text-anchor="middle" x="817.5" y="-121.5" font-family="Helvetica,sans-Serif" font-size="10.00">CNetAddr::IsIPv4</text>
</a>
</g>
</g>
<!-- Node9&#45;&gt;Node12 -->
<g id="edge13" class="edge"><title>Node9&#45;&gt;Node12</title>
<path fill="none" stroke="midnightblue" d="M410.319,-124C502.533,-124 672.345,-124 760.339,-124"/>
<polygon fill="midnightblue" stroke="midnightblue" points="760.396,-127.5 770.396,-124 760.396,-120.5 760.396,-127.5"/>
</g>
<!-- Node13 -->
<g id="node13" class="node"><title>Node13</title>
<g id="a_node13"><a xlink:href="class_c_net_addr.html#a3fba9e0b18f531c0ed15794a30e8165d" target="_top" xlink:title="CNetAddr::IsTor">
<polygon fill="white" stroke="black" points="461,-76.5 461,-95.5 550,-95.5 550,-76.5 461,-76.5"/>
<text text-anchor="middle" x="505.5" y="-83.5" font-family="Helvetica,sans-Serif" font-size="10.00">CNetAddr::IsTor</text>
</a>
</g>
</g>
<!-- Node9&#45;&gt;Node13 -->
<g id="edge14" class="edge"><title>Node9&#45;&gt;Node13</title>
<path fill="none" stroke="midnightblue" d="M386.744,-114.411C407.528,-109.396 433.161,-103.212 455.199,-97.8947"/>
<polygon fill="midnightblue" stroke="midnightblue" points="456.142,-101.268 465.042,-95.5201 454.5,-94.4632 456.142,-101.268"/>
</g>
<!-- Node14 -->
<g id="node14" class="node"><title>Node14</title>
<g id="a_node14"><a xlink:href="class_c_net_addr.html#a7ec845c27b63853fb0db08a4d154266f" target="_top" xlink:title="CNetAddr::ToStringIP">
<polygon fill="white" stroke="black" points="449,-38.5 449,-57.5 562,-57.5 562,-38.5 449,-38.5"/>
<text text-anchor="middle" x="505.5" y="-45.5" font-family="Helvetica,sans-Serif" font-size="10.00">CNetAddr::ToStringIP</text>
</a>
</g>
</g>
<!-- Node9&#45;&gt;Node14 -->
<g id="edge15" class="edge"><title>Node9&#45;&gt;Node14</title>
<path fill="none" stroke="midnightblue" d="M361.584,-114.304C380.458,-102.067 414.646,-80.9348 446,-67 450.817,-64.8593 455.951,-62.8378 461.1,-60.9691"/>
<polygon fill="midnightblue" stroke="midnightblue" points="462.633,-64.1429 470.944,-57.5725 460.35,-57.5257 462.633,-64.1429"/>
</g>
<!-- Node15 -->
<g id="node15" class="node"><title>Node15</title>
<g id="a_node15"><a xlink:href="util_8cpp.html#a71aa75e646de8a10971f887bc71d9a75" target="_top" xlink:title="EncodeBase32">
<polygon fill="white" stroke="black" points="620,-76.5 620,-95.5 704,-95.5 704,-76.5 620,-76.5"/>
<text text-anchor="middle" x="662" y="-83.5" font-family="Helvetica,sans-Serif" font-size="10.00">EncodeBase32</text>
</a>
</g>
</g>
<!-- Node14&#45;&gt;Node15 -->
<g id="edge16" class="edge"><title>Node14&#45;&gt;Node15</title>
<path fill="none" stroke="midnightblue" d="M545.487,-57.589C565.783,-62.5809 590.793,-68.7324 612.346,-74.0334"/>
<polygon fill="midnightblue" stroke="midnightblue" points="611.747,-77.4902 622.293,-76.4799 613.419,-70.6928 611.747,-77.4902"/>
</g>
<!-- Node16 -->
<g id="node16" class="node"><title>Node16</title>
<g id="a_node16"><a xlink:href="class_c_service.html#ab0f791c174511056236119cc1580faeb" target="_top" xlink:title="CService::GetSockAddr">
<polygon fill="white" stroke="black" points="601,-38.5 601,-57.5 723,-57.5 723,-38.5 601,-38.5"/>
<text text-anchor="middle" x="662" y="-45.5" font-family="Helvetica,sans-Serif" font-size="10.00">CService::GetSockAddr</text>
</a>
</g>
</g>
<!-- Node14&#45;&gt;Node16 -->
<g id="edge17" class="edge"><title>Node14&#45;&gt;Node16</title>
<path fill="none" stroke="midnightblue" d="M562.278,-48C571.482,-48 581.128,-48 590.633,-48"/>
<polygon fill="midnightblue" stroke="midnightblue" points="590.865,-51.5001 600.865,-48 590.865,-44.5001 590.865,-51.5001"/>
</g>
<!-- Node16&#45;&gt;Node12 -->
<g id="edge18" class="edge"><title>Node16&#45;&gt;Node12</title>
<path fill="none" stroke="midnightblue" d="M702.992,-57.5369C709.94,-60.0551 716.888,-63.1721 723,-67 742.717,-79.3488 739.361,-92.5285 759,-105 762.159,-107.006 765.551,-108.822 769.051,-110.461"/>
<polygon fill="midnightblue" stroke="midnightblue" points="767.901,-113.774 778.477,-114.398 770.599,-107.314 767.901,-113.774"/>
</g>
<!-- Node17 -->
<g id="node17" class="node"><title>Node17</title>
<g id="a_node17"><a xlink:href="class_c_net_addr.html#aa2e2c78db01a6a27d6a2740f2ba43e90" target="_top" xlink:title="CNetAddr::GetInAddr">
<polygon fill="white" stroke="black" points="761.5,-76.5 761.5,-95.5 873.5,-95.5 873.5,-76.5 761.5,-76.5"/>
<text text-anchor="middle" x="817.5" y="-83.5" font-family="Helvetica,sans-Serif" font-size="10.00">CNetAddr::GetInAddr</text>
</a>
</g>
</g>
<!-- Node16&#45;&gt;Node17 -->
<g id="edge19" class="edge"><title>Node16&#45;&gt;Node17</title>
<path fill="none" stroke="midnightblue" d="M701.735,-57.589C721.899,-62.5809 746.748,-68.7324 768.161,-74.0334"/>
<polygon fill="midnightblue" stroke="midnightblue" points="767.496,-77.4743 778.044,-76.4799 769.178,-70.6794 767.496,-77.4743"/>
</g>
<!-- Node20 -->
<g id="node20" class="node"><title>Node20</title>
<g id="a_node20"><a xlink:href="class_c_net_addr.html#a0edb022cd6a186de8099799415409d57" target="_top" xlink:title="CNetAddr::IsIPv6">
<polygon fill="white" stroke="black" points="770.5,-38.5 770.5,-57.5 864.5,-57.5 864.5,-38.5 770.5,-38.5"/>
<text text-anchor="middle" x="817.5" y="-45.5" font-family="Helvetica,sans-Serif" font-size="10.00">CNetAddr::IsIPv6</text>
</a>
</g>
</g>
<!-- Node16&#45;&gt;Node20 -->
<g id="edge22" class="edge"><title>Node16&#45;&gt;Node20</title>
<path fill="none" stroke="midnightblue" d="M723.227,-48C735.31,-48 747.966,-48 759.92,-48"/>
<polygon fill="midnightblue" stroke="midnightblue" points="760.212,-51.5001 770.212,-48 760.212,-44.5001 760.212,-51.5001"/>
</g>
<!-- Node21 -->
<g id="node21" class="node"><title>Node21</title>
<g id="a_node21"><a xlink:href="class_c_net_addr.html#add7811be50f5fe60c4fa65b461dea98c" target="_top" xlink:title="CNetAddr::GetIn6Addr">
<polygon fill="white" stroke="black" points="759,-0.5 759,-19.5 876,-19.5 876,-0.5 759,-0.5"/>
<text text-anchor="middle" x="817.5" y="-7.5" font-family="Helvetica,sans-Serif" font-size="10.00">CNetAddr::GetIn6Addr</text>
</a>
</g>
</g>
<!-- Node16&#45;&gt;Node21 -->
<g id="edge23" class="edge"><title>Node16&#45;&gt;Node21</title>
<path fill="none" stroke="midnightblue" d="M701.735,-38.411C721.899,-33.4191 746.748,-27.2676 768.161,-21.9666"/>
<polygon fill="midnightblue" stroke="midnightblue" points="769.178,-25.3206 778.044,-19.5201 767.496,-18.5257 769.178,-25.3206"/>
</g>
<!-- Node18 -->
<g id="node18" class="node"><title>Node18</title>
<g id="a_node18"><a xlink:href="glibc__compat_8cpp.html#a0f46826ab0466591e136db24394923cf" target="_top" xlink:title="memcpy">
<polygon fill="white" stroke="black" points="912,-38.5 912,-57.5 966,-57.5 966,-38.5 912,-38.5"/>
<text text-anchor="middle" x="939" y="-45.5" font-family="Helvetica,sans-Serif" font-size="10.00">memcpy</text>
</a>
</g>
</g>
<!-- Node17&#45;&gt;Node18 -->
<g id="edge20" class="edge"><title>Node17&#45;&gt;Node18</title>
<path fill="none" stroke="midnightblue" d="M848.655,-76.411C864.954,-71.228 885.184,-64.795 902.27,-59.3617"/>
<polygon fill="midnightblue" stroke="midnightblue" points="903.445,-62.6611 911.914,-56.2952 901.323,-55.9903 903.445,-62.6611"/>
</g>
<!-- Node19 -->
<g id="node19" class="node"><title>Node19</title>
<g id="a_node19"><a xlink:href="glibc__compat_8cpp.html#a9778d49e9029dd75bc53ecbbf9f5e9a1" target="_top" xlink:title="memmove">
<polygon fill="white" stroke="black" points="1002,-38.5 1002,-57.5 1065,-57.5 1065,-38.5 1002,-38.5"/>
<text text-anchor="middle" x="1033.5" y="-45.5" font-family="Helvetica,sans-Serif" font-size="10.00">memmove</text>
</a>
</g>
</g>
<!-- Node18&#45;&gt;Node19 -->
<g id="edge21" class="edge"><title>Node18&#45;&gt;Node19</title>
<path fill="none" stroke="midnightblue" d="M966.259,-48C974.244,-48 983.214,-48 991.912,-48"/>
<polygon fill="midnightblue" stroke="midnightblue" points="991.924,-51.5001 1001.92,-48 991.924,-44.5001 991.924,-51.5001"/>
</g>
<!-- Node21&#45;&gt;Node18 -->
<g id="edge24" class="edge"><title>Node21&#45;&gt;Node18</title>
<path fill="none" stroke="midnightblue" d="M848.655,-19.589C864.954,-24.772 885.184,-31.205 902.27,-36.6383"/>
<polygon fill="midnightblue" stroke="midnightblue" points="901.323,-40.0097 911.914,-39.7048 903.445,-33.3389 901.323,-40.0097"/>
</g>
</g>
</svg>
