<?xml version="1.0" encoding="UTF-8" standalone="no"?>
<!DOCTYPE svg PUBLIC "-//W3C//DTD SVG 1.1//EN"
 "http://www.w3.org/Graphics/SVG/1.1/DTD/svg11.dtd">
<!-- Generated by graphviz version 2.38.0 (20140413.2041)
 -->
<!-- Title: CAddrMan::Add Pages: 1 -->
<svg width="741pt" height="277pt"
 viewBox="0.00 0.00 741.00 276.95" xmlns="http://www.w3.org/2000/svg" xmlns:xlink="http://www.w3.org/1999/xlink">
<g id="graph0" class="graph" transform="scale(1 1) rotate(0) translate(4 272.947)">
<title>CAddrMan::Add</title>
<polygon fill="white" stroke="none" points="-4,4 -4,-272.947 737,-272.947 737,4 -4,4"/>
<!-- Node1 -->
<g id="node1" class="node"><title>Node1</title>
<polygon fill="#bfbfbf" stroke="black" points="0,-171.5 0,-190.5 88,-190.5 88,-171.5 0,-171.5"/>
<text text-anchor="middle" x="44" y="-178.5" font-family="Helvetica,sans-Serif" font-size="10.00">CAddrMan::Add</text>
</g>
<!-- Node2 -->
<g id="node2" class="node"><title>Node2</title>
<g id="a_node2"><a xlink:href="class_c_addr_man.html#a0c2677ae50ce0d680f0105b285d1f5d0" target="_top" xlink:title="CAddrMan::Check">
<polygon fill="white" stroke="black" points="127,-209.5 127,-228.5 225,-228.5 225,-209.5 127,-209.5"/>
<text text-anchor="middle" x="176" y="-216.5" font-family="Helvetica,sans-Serif" font-size="10.00">CAddrMan::Check</text>
</a>
</g>
</g>
<!-- Node1&#45;&gt;Node2 -->
<g id="edge1" class="edge"><title>Node1&#45;&gt;Node2</title>
<path fill="none" stroke="midnightblue" d="M77.8045,-190.589C94.2783,-195.404 114.443,-201.299 132.127,-206.468"/>
<polygon fill="midnightblue" stroke="midnightblue" points="131.626,-209.968 142.206,-209.414 133.59,-203.249 131.626,-209.968"/>
</g>
<!-- Node3 -->
<g id="node3" class="node"><title>Node3</title>
<g id="a_node3"><a xlink:href="class_c_addr_man.html#a9dd6df8b1904548a86054d19d4a90724" target="_top" xlink:title="CAddrMan::Add_">
<polygon fill="white" stroke="black" points="129.5,-171.5 129.5,-190.5 222.5,-190.5 222.5,-171.5 129.5,-171.5"/>
<text text-anchor="middle" x="176" y="-178.5" font-family="Helvetica,sans-Serif" font-size="10.00">CAddrMan::Add_</text>
</a>
</g>
</g>
<!-- Node1&#45;&gt;Node3 -->
<g id="edge2" class="edge"><title>Node1&#45;&gt;Node3</title>
<path fill="none" stroke="midnightblue" d="M88.2881,-181C98.1486,-181 108.762,-181 119.066,-181"/>
<polygon fill="midnightblue" stroke="midnightblue" points="119.227,-184.5 129.227,-181 119.227,-177.5 119.227,-184.5"/>
</g>
<!-- Node18 -->
<g id="node18" class="node"><title>Node18</title>
<g id="a_node18"><a xlink:href="class_c_net_addr.html#aae906cecdba331389f249a64693895b6" target="_top" xlink:title="CNetAddr::ToString">
<polygon fill="white" stroke="black" points="124,-133.5 124,-152.5 228,-152.5 228,-133.5 124,-133.5"/>
<text text-anchor="middle" x="176" y="-140.5" font-family="Helvetica,sans-Serif" font-size="10.00">CNetAddr::ToString</text>
</a>
</g>
</g>
<!-- Node1&#45;&gt;Node18 -->
<g id="edge18" class="edge"><title>Node1&#45;&gt;Node18</title>
<path fill="none" stroke="midnightblue" d="M77.8045,-171.411C94.2783,-166.596 114.443,-160.701 132.127,-155.532"/>
<polygon fill="midnightblue" stroke="midnightblue" points="133.59,-158.751 142.206,-152.586 131.626,-152.032 133.59,-158.751"/>
</g>
<!-- Node4 -->
<g id="node4" class="node"><title>Node4</title>
<g id="a_node4"><a xlink:href="class_c_net_addr.html#a35131b2792434d1c9a860c583b610ab6" target="_top" xlink:title="CNetAddr::IsRoutable">
<polygon fill="white" stroke="black" points="274,-247.5 274,-266.5 388,-266.5 388,-247.5 274,-247.5"/>
<text text-anchor="middle" x="331" y="-254.5" font-family="Helvetica,sans-Serif" font-size="10.00">CNetAddr::IsRoutable</text>
</a>
</g>
</g>
<!-- Node3&#45;&gt;Node4 -->
<g id="edge3" class="edge"><title>Node3&#45;&gt;Node4</title>
<path fill="none" stroke="midnightblue" d="M205.109,-190.595C212.639,-193.402 220.71,-196.629 228,-200 242.857,-206.87 279.518,-227.73 304.588,-242.212"/>
<polygon fill="midnightblue" stroke="midnightblue" points="303.151,-245.424 313.559,-247.407 306.659,-239.367 303.151,-245.424"/>
</g>
<!-- Node6 -->
<g id="node6" class="node"><title>Node6</title>
<g id="a_node6"><a xlink:href="util_8cpp.html#a09f81b9c7650f898cf3cf305b87547e6" target="_top" xlink:title="GetAdjustedTime">
<polygon fill="white" stroke="black" points="284,-190.5 284,-209.5 378,-209.5 378,-190.5 284,-190.5"/>
<text text-anchor="middle" x="331" y="-197.5" font-family="Helvetica,sans-Serif" font-size="10.00">GetAdjustedTime</text>
</a>
</g>
</g>
<!-- Node3&#45;&gt;Node6 -->
<g id="edge5" class="edge"><title>Node3&#45;&gt;Node6</title>
<path fill="none" stroke="midnightblue" d="M222.905,-186.701C238.869,-188.683 256.96,-190.93 273.669,-193.005"/>
<polygon fill="midnightblue" stroke="midnightblue" points="273.508,-196.511 283.863,-194.271 274.371,-189.565 273.508,-196.511"/>
</g>
<!-- Node9 -->
<g id="node9" class="node"><title>Node9</title>
<g id="a_node9"><a xlink:href="util_8cpp.html#a0e44e088732172da6662db2d5e37d4b2" target="_top" xlink:title="GetRandInt">
<polygon fill="white" stroke="black" points="297,-152.5 297,-171.5 365,-171.5 365,-152.5 297,-152.5"/>
<text text-anchor="middle" x="331" y="-159.5" font-family="Helvetica,sans-Serif" font-size="10.00">GetRandInt</text>
</a>
</g>
</g>
<!-- Node3&#45;&gt;Node9 -->
<g id="edge8" class="edge"><title>Node3&#45;&gt;Node9</title>
<path fill="none" stroke="midnightblue" d="M222.905,-175.299C243.143,-172.786 266.802,-169.848 286.727,-167.374"/>
<polygon fill="midnightblue" stroke="midnightblue" points="287.276,-170.833 296.769,-166.127 286.414,-163.886 287.276,-170.833"/>
</g>
<!-- Node11 -->
<g id="node11" class="node"><title>Node11</title>
<g id="a_node11"><a xlink:href="class_c_addr_info.html#ae53c2174bdbc070bb1777cfabecaddda" target="_top" xlink:title="CAddrInfo::GetNewBucket">
<polygon fill="white" stroke="black" points="264,-76.5 264,-95.5 398,-95.5 398,-76.5 264,-76.5"/>
<text text-anchor="middle" x="331" y="-83.5" font-family="Helvetica,sans-Serif" font-size="10.00">CAddrInfo::GetNewBucket</text>
</a>
</g>
</g>
<!-- Node3&#45;&gt;Node11 -->
<g id="edge10" class="edge"><title>Node3&#45;&gt;Node11</title>
<path fill="none" stroke="midnightblue" d="M207.025,-171.429C214.077,-168.744 221.444,-165.569 228,-162 259.426,-144.893 291.931,-118.997 311.56,-102.29"/>
<polygon fill="midnightblue" stroke="midnightblue" points="314.102,-104.719 319.384,-95.5347 309.527,-99.4211 314.102,-104.719"/>
</g>
<!-- Node5 -->
<g id="node5" class="node"><title>Node5</title>
<g id="a_node5"><a xlink:href="net_8cpp.html#a16fa1bd4d34c4c29c90903fc3cdf7517" target="_top" xlink:title="check whether a given address is potentially local ">
<polygon fill="white" stroke="black" points="583,-209.5 583,-228.5 631,-228.5 631,-209.5 583,-209.5"/>
<text text-anchor="middle" x="607" y="-216.5" font-family="Helvetica,sans-Serif" font-size="10.00">IsLocal</text>
</a>
</g>
</g>
<!-- Node4&#45;&gt;Node5 -->
<g id="edge4" class="edge"><title>Node4&#45;&gt;Node5</title>
<path fill="none" stroke="midnightblue" d="M388.037,-265.171C431.445,-269.564 492.636,-271.488 544,-257 559.492,-252.63 574.932,-243.187 586.528,-234.808"/>
<polygon fill="midnightblue" stroke="midnightblue" points="588.724,-237.536 594.584,-228.71 584.499,-231.955 588.724,-237.536"/>
</g>
<!-- Node7 -->
<g id="node7" class="node"><title>Node7</title>
<g id="a_node7"><a xlink:href="util_8cpp.html#a46fac5fba8ba905b5f9acb364f5d8c6f" target="_top" xlink:title="GetTime">
<polygon fill="white" stroke="black" points="461.5,-228.5 461.5,-247.5 516.5,-247.5 516.5,-228.5 461.5,-228.5"/>
<text text-anchor="middle" x="489" y="-235.5" font-family="Helvetica,sans-Serif" font-size="10.00">GetTime</text>
</a>
</g>
</g>
<!-- Node6&#45;&gt;Node7 -->
<g id="edge6" class="edge"><title>Node6&#45;&gt;Node7</title>
<path fill="none" stroke="midnightblue" d="M371.365,-209.589C396.007,-215.591 427.53,-223.27 451.591,-229.131"/>
<polygon fill="midnightblue" stroke="midnightblue" points="450.86,-232.555 461.404,-231.522 452.517,-225.754 450.86,-232.555"/>
</g>
<!-- Node8 -->
<g id="node8" class="node"><title>Node8</title>
<g id="a_node8"><a xlink:href="util_8cpp.html#a50ca5344c75631267633f15cfe5e983e" target="_top" xlink:title="GetTimeOffset">
<polygon fill="white" stroke="black" points="448,-190.5 448,-209.5 530,-209.5 530,-190.5 448,-190.5"/>
<text text-anchor="middle" x="489" y="-197.5" font-family="Helvetica,sans-Serif" font-size="10.00">GetTimeOffset</text>
</a>
</g>
</g>
<!-- Node6&#45;&gt;Node8 -->
<g id="edge7" class="edge"><title>Node6&#45;&gt;Node8</title>
<path fill="none" stroke="midnightblue" d="M378.383,-200C397.111,-200 418.767,-200 437.859,-200"/>
<polygon fill="midnightblue" stroke="midnightblue" points="437.872,-203.5 447.872,-200 437.872,-196.5 437.872,-203.5"/>
</g>
<!-- Node10 -->
<g id="node10" class="node"><title>Node10</title>
<g id="a_node10"><a xlink:href="util_8cpp.html#a27d9149d522b1fa87d84e5e9ca902aef" target="_top" xlink:title="GetRand">
<polygon fill="white" stroke="black" points="460.5,-152.5 460.5,-171.5 517.5,-171.5 517.5,-152.5 460.5,-152.5"/>
<text text-anchor="middle" x="489" y="-159.5" font-family="Helvetica,sans-Serif" font-size="10.00">GetRand</text>
</a>
</g>
</g>
<!-- Node9&#45;&gt;Node10 -->
<g id="edge9" class="edge"><title>Node9&#45;&gt;Node10</title>
<path fill="none" stroke="midnightblue" d="M365.084,-162C390.002,-162 424.199,-162 450.197,-162"/>
<polygon fill="midnightblue" stroke="midnightblue" points="450.43,-165.5 460.43,-162 450.43,-158.5 450.43,-165.5"/>
</g>
<!-- Node12 -->
<g id="node12" class="node"><title>Node12</title>
<g id="a_node12"><a xlink:href="class_c_net_addr.html#af196f306433562cb088dc83fd314a267" target="_top" xlink:title="CNetAddr::GetGroup">
<polygon fill="white" stroke="black" points="434,-114.5 434,-133.5 544,-133.5 544,-114.5 434,-114.5"/>
<text text-anchor="middle" x="489" y="-121.5" font-family="Helvetica,sans-Serif" font-size="10.00">CNetAddr::GetGroup</text>
</a>
</g>
</g>
<!-- Node11&#45;&gt;Node12 -->
<g id="edge11" class="edge"><title>Node11&#45;&gt;Node12</title>
<path fill="none" stroke="midnightblue" d="M371.365,-95.589C391.951,-100.604 417.34,-106.788 439.169,-112.105"/>
<polygon fill="midnightblue" stroke="midnightblue" points="438.373,-115.514 448.918,-114.48 440.03,-108.713 438.373,-115.514"/>
</g>
<!-- Node15 -->
<g id="node15" class="node"><title>Node15</title>
<g id="a_node15"><a xlink:href="hash_8h.html#ab3f6c437460137530d86e09c2c102e99" target="_top" xlink:title="Hash">
<polygon fill="white" stroke="black" points="469,-76.5 469,-95.5 509,-95.5 509,-76.5 469,-76.5"/>
<text text-anchor="middle" x="489" y="-83.5" font-family="Helvetica,sans-Serif" font-size="10.00">Hash</text>
</a>
</g>
</g>
<!-- Node11&#45;&gt;Node15 -->
<g id="edge15" class="edge"><title>Node11&#45;&gt;Node15</title>
<path fill="none" stroke="midnightblue" d="M398.158,-86C419.139,-86 441.291,-86 458.349,-86"/>
<polygon fill="midnightblue" stroke="midnightblue" points="458.759,-89.5001 468.759,-86 458.759,-82.5001 458.759,-89.5001"/>
</g>
<!-- Node16 -->
<g id="node16" class="node"><title>Node16</title>
<g id="a_node16"><a xlink:href="class_c_data_stream.html#a5b9e70188c662f4e9496066472af213e" target="_top" xlink:title="CDataStream::begin">
<polygon fill="white" stroke="black" points="435.5,-38.5 435.5,-57.5 542.5,-57.5 542.5,-38.5 435.5,-38.5"/>
<text text-anchor="middle" x="489" y="-45.5" font-family="Helvetica,sans-Serif" font-size="10.00">CDataStream::begin</text>
</a>
</g>
</g>
<!-- Node11&#45;&gt;Node16 -->
<g id="edge16" class="edge"><title>Node11&#45;&gt;Node16</title>
<path fill="none" stroke="midnightblue" d="M371.365,-76.411C391.951,-71.3965 417.34,-65.2119 439.169,-59.8947"/>
<polygon fill="midnightblue" stroke="midnightblue" points="440.03,-63.2874 448.918,-57.5201 438.373,-56.4863 440.03,-63.2874"/>
</g>
<!-- Node17 -->
<g id="node17" class="node"><title>Node17</title>
<g id="a_node17"><a xlink:href="class_c_data_stream.html#a1c22182691412ed9e0a30b719d388f31" target="_top" xlink:title="CDataStream::end">
<polygon fill="white" stroke="black" points="439.5,-0.5 439.5,-19.5 538.5,-19.5 538.5,-0.5 439.5,-0.5"/>
<text text-anchor="middle" x="489" y="-7.5" font-family="Helvetica,sans-Serif" font-size="10.00">CDataStream::end</text>
</a>
</g>
</g>
<!-- Node11&#45;&gt;Node17 -->
<g id="edge17" class="edge"><title>Node11&#45;&gt;Node17</title>
<path fill="none" stroke="midnightblue" d="M347.126,-76.4628C366.677,-64.3922 402.013,-43.4368 434,-29 438.637,-26.9073 443.578,-24.8918 448.517,-23.0064"/>
<polygon fill="midnightblue" stroke="midnightblue" points="449.747,-26.2833 457.931,-19.5547 447.337,-19.7111 449.747,-26.2833"/>
</g>
<!-- Node12&#45;&gt;Node5 -->
<g id="edge14" class="edge"><title>Node12&#45;&gt;Node5</title>
<path fill="none" stroke="midnightblue" d="M525.93,-133.518C532.256,-136.047 538.551,-139.172 544,-143 565.984,-158.444 584.421,-183.721 595.332,-200.843"/>
<polygon fill="midnightblue" stroke="midnightblue" points="592.375,-202.716 600.594,-209.402 598.338,-199.05 592.375,-202.716"/>
</g>
<!-- Node13 -->
<g id="node13" class="node"><title>Node13</title>
<g id="a_node13"><a xlink:href="glibc__compat_8cpp.html#a0f46826ab0466591e136db24394923cf" target="_top" xlink:title="memcpy">
<polygon fill="white" stroke="black" points="580,-114.5 580,-133.5 634,-133.5 634,-114.5 580,-114.5"/>
<text text-anchor="middle" x="607" y="-121.5" font-family="Helvetica,sans-Serif" font-size="10.00">memcpy</text>
</a>
</g>
</g>
<!-- Node12&#45;&gt;Node13 -->
<g id="edge12" class="edge"><title>Node12&#45;&gt;Node13</title>
<path fill="none" stroke="midnightblue" d="M544.264,-124C552.874,-124 561.594,-124 569.661,-124"/>
<polygon fill="midnightblue" stroke="midnightblue" points="569.826,-127.5 579.826,-124 569.826,-120.5 569.826,-127.5"/>
</g>
<!-- Node14 -->
<g id="node14" class="node"><title>Node14</title>
<g id="a_node14"><a xlink:href="glibc__compat_8cpp.html#a9778d49e9029dd75bc53ecbbf9f5e9a1" target="_top" xlink:title="memmove">
<polygon fill="white" stroke="black" points="670,-114.5 670,-133.5 733,-133.5 733,-114.5 670,-114.5"/>
<text text-anchor="middle" x="701.5" y="-121.5" font-family="Helvetica,sans-Serif" font-size="10.00">memmove</text>
</a>
</g>
</g>
<!-- Node13&#45;&gt;Node14 -->
<g id="edge13" class="edge"><title>Node13&#45;&gt;Node14</title>
<path fill="none" stroke="midnightblue" d="M634.259,-124C642.244,-124 651.214,-124 659.912,-124"/>
<polygon fill="midnightblue" stroke="midnightblue" points="659.924,-127.5 669.924,-124 659.924,-120.5 659.924,-127.5"/>
</g>
</g>
</svg>
