<?xml version="1.0" encoding="UTF-8" standalone="no"?>
<!DOCTYPE svg PUBLIC "-//W3C//DTD SVG 1.1//EN"
 "http://www.w3.org/Graphics/SVG/1.1/DTD/svg11.dtd">
<!-- Generated by graphviz version 2.38.0 (20140413.2041)
 -->
<!-- Title: payments::Payment::CopyFrom Pages: 1 -->
<svg width="427pt" height="137pt"
 viewBox="0.00 0.00 427.00 137.00" xmlns="http://www.w3.org/2000/svg" xmlns:xlink="http://www.w3.org/1999/xlink">
<g id="graph0" class="graph" transform="scale(1 1) rotate(0) translate(4 133)">
<title>payments::Payment::CopyFrom</title>
<polygon fill="white" stroke="none" points="-4,4 -4,-133 423,-133 423,4 -4,4"/>
<!-- Node1 -->
<g id="node1" class="node"><title>Node1</title>
<polygon fill="#bfbfbf" stroke="black" points="0,-24.5 0,-54.5 110,-54.5 110,-24.5 0,-24.5"/>
<text text-anchor="start" x="8" y="-42.5" font-family="Helvetica,sans-Serif" font-size="10.00">payments::Payment::</text>
<text text-anchor="middle" x="55" y="-31.5" font-family="Helvetica,sans-Serif" font-size="10.00">CopyFrom</text>
</g>
<!-- Node2 -->
<g id="node2" class="node"><title>Node2</title>
<g id="a_node2"><a xlink:href="classpayments_1_1_payment.html#ae705efe14adff0df980d46dd35fd036b" target="_top" xlink:title="payments::Payment::\lClear">
<polygon fill="white" stroke="black" points="146,-49.5 146,-79.5 256,-79.5 256,-49.5 146,-49.5"/>
<text text-anchor="start" x="154" y="-67.5" font-family="Helvetica,sans-Serif" font-size="10.00">payments::Payment::</text>
<text text-anchor="middle" x="201" y="-56.5" font-family="Helvetica,sans-Serif" font-size="10.00">Clear</text>
</a>
</g>
</g>
<!-- Node1&#45;&gt;Node2 -->
<g id="edge1" class="edge"><title>Node1&#45;&gt;Node2</title>
<path fill="none" stroke="midnightblue" d="M110.03,-48.8802C118.405,-50.3341 127.126,-51.8482 135.7,-53.3367"/>
<polygon fill="midnightblue" stroke="midnightblue" points="135.216,-56.805 145.667,-55.0672 136.413,-49.9082 135.216,-56.805"/>
</g>
<!-- Node6 -->
<g id="node6" class="node"><title>Node6</title>
<g id="a_node6"><a xlink:href="classpayments_1_1_payment.html#a74b885ecfb880a8b15d3932390303329" target="_top" xlink:title="payments::Payment::\lMergeFrom">
<polygon fill="white" stroke="black" points="146,-0.5 146,-30.5 256,-30.5 256,-0.5 146,-0.5"/>
<text text-anchor="start" x="154" y="-18.5" font-family="Helvetica,sans-Serif" font-size="10.00">payments::Payment::</text>
<text text-anchor="middle" x="201" y="-7.5" font-family="Helvetica,sans-Serif" font-size="10.00">MergeFrom</text>
</a>
</g>
</g>
<!-- Node1&#45;&gt;Node6 -->
<g id="edge5" class="edge"><title>Node1&#45;&gt;Node6</title>
<path fill="none" stroke="midnightblue" d="M110.03,-30.495C118.405,-29.0992 127.126,-27.6457 135.7,-26.2167"/>
<polygon fill="midnightblue" stroke="midnightblue" points="136.379,-29.6519 145.667,-24.5555 135.228,-22.7472 136.379,-29.6519"/>
</g>
<!-- Node3 -->
<g id="node3" class="node"><title>Node3</title>
<g id="a_node3"><a xlink:href="classpayments_1_1_payment.html#aa3701100f4d4a3c80e265c3a53e04939" target="_top" xlink:title="payments::Payment::\lhas_merchant_data">
<polygon fill="white" stroke="black" points="300.5,-98.5 300.5,-128.5 410.5,-128.5 410.5,-98.5 300.5,-98.5"/>
<text text-anchor="start" x="308.5" y="-116.5" font-family="Helvetica,sans-Serif" font-size="10.00">payments::Payment::</text>
<text text-anchor="middle" x="355.5" y="-105.5" font-family="Helvetica,sans-Serif" font-size="10.00">has_merchant_data</text>
</a>
</g>
</g>
<!-- Node2&#45;&gt;Node3 -->
<g id="edge2" class="edge"><title>Node2&#45;&gt;Node3</title>
<path fill="none" stroke="midnightblue" d="M248.999,-79.6014C264.436,-84.5615 281.759,-90.1274 297.835,-95.2929"/>
<polygon fill="midnightblue" stroke="midnightblue" points="297.064,-98.7215 307.656,-98.4484 299.206,-92.0571 297.064,-98.7215"/>
</g>
<!-- Node4 -->
<g id="node4" class="node"><title>Node4</title>
<g id="a_node4"><a xlink:href="classpayments_1_1_payment.html#a8852f9537d84d2ed4809d1571e9e0005" target="_top" xlink:title="payments::Payment::\lhas_memo">
<polygon fill="white" stroke="black" points="300.5,-49.5 300.5,-79.5 410.5,-79.5 410.5,-49.5 300.5,-49.5"/>
<text text-anchor="start" x="308.5" y="-67.5" font-family="Helvetica,sans-Serif" font-size="10.00">payments::Payment::</text>
<text text-anchor="middle" x="355.5" y="-56.5" font-family="Helvetica,sans-Serif" font-size="10.00">has_memo</text>
</a>
</g>
</g>
<!-- Node2&#45;&gt;Node4 -->
<g id="edge3" class="edge"><title>Node2&#45;&gt;Node4</title>
<path fill="none" stroke="midnightblue" d="M256.195,-64.5C267.207,-64.5 278.89,-64.5 290.212,-64.5"/>
<polygon fill="midnightblue" stroke="midnightblue" points="290.479,-68.0001 300.479,-64.5 290.479,-61.0001 290.479,-68.0001"/>
</g>
<!-- Node5 -->
<g id="node5" class="node"><title>Node5</title>
<g id="a_node5"><a xlink:href="classpayments_1_1_payment.html#a51ffab88d861e5e99355b99dac5667c7" target="_top" xlink:title="payments::Payment::\lmutable_unknown_fields">
<polygon fill="white" stroke="black" points="292,-0.5 292,-30.5 419,-30.5 419,-0.5 292,-0.5"/>
<text text-anchor="start" x="300" y="-18.5" font-family="Helvetica,sans-Serif" font-size="10.00">payments::Payment::</text>
<text text-anchor="middle" x="355.5" y="-7.5" font-family="Helvetica,sans-Serif" font-size="10.00">mutable_unknown_fields</text>
</a>
</g>
</g>
<!-- Node2&#45;&gt;Node5 -->
<g id="edge4" class="edge"><title>Node2&#45;&gt;Node5</title>
<path fill="none" stroke="midnightblue" d="M248.999,-49.3986C264.436,-44.4385 281.759,-38.8726 297.835,-33.7071"/>
<polygon fill="midnightblue" stroke="midnightblue" points="299.206,-36.9429 307.656,-30.5516 297.064,-30.2785 299.206,-36.9429"/>
</g>
</g>
</svg>
