<?xml version="1.0" encoding="UTF-8" standalone="no"?>
<!DOCTYPE svg PUBLIC "-//W3C//DTD SVG 1.1//EN"
 "http://www.w3.org/Graphics/SVG/1.1/DTD/svg11.dtd">
<!-- Generated by graphviz version 2.38.0 (20140413.2041)
 -->
<!-- Title: AnoncoinCoin::runawayException Pages: 1 -->
<svg width="529pt" height="66pt"
 viewBox="0.00 0.00 529.00 66.00" xmlns="http://www.w3.org/2000/svg" xmlns:xlink="http://www.w3.org/1999/xlink">
<g id="graph0" class="graph" transform="scale(1 1) rotate(0) translate(4 62)">
<title>AnoncoinCoin::runawayException</title>
<polygon fill="white" stroke="none" points="-4,4 -4,-62 525,-62 525,4 -4,4"/>
<!-- Node1 -->
<g id="node1" class="node"><title>Node1</title>
<polygon fill="#bfbfbf" stroke="black" points="0,-19.5 0,-38.5 166,-38.5 166,-19.5 0,-19.5"/>
<text text-anchor="middle" x="83" y="-26.5" font-family="Helvetica,sans-Serif" font-size="10.00">AnoncoinCoin::runawayException</text>
</g>
<!-- Node2 -->
<g id="node2" class="node"><title>Node2</title>
<g id="a_node2"><a xlink:href="class_anoncoin_coin.html#a19cc3b8135a5d63b023cb1f033277f55" target="_top" xlink:title="Pass fatal exception message to UI thread. ">
<polygon fill="white" stroke="black" points="202,-14 202,-44 358,-44 358,-14 202,-14"/>
<text text-anchor="start" x="210" y="-32" font-family="Helvetica,sans-Serif" font-size="10.00">AnoncoinCoin::handleRunaway</text>
<text text-anchor="middle" x="280" y="-21" font-family="Helvetica,sans-Serif" font-size="10.00">Exception</text>
</a>
</g>
</g>
<!-- Node1&#45;&gt;Node2 -->
<g id="edge1" class="edge"><title>Node1&#45;&gt;Node2</title>
<path fill="none" stroke="midnightblue" d="M176.202,-29C184.815,-29 193.484,-29 201.937,-29"/>
<polygon fill="midnightblue" stroke="midnightblue" points="176.132,-25.5001 166.132,-29 176.132,-32.5001 176.132,-25.5001"/>
</g>
<!-- Node3 -->
<g id="node3" class="node"><title>Node3</title>
<g id="a_node3"><a xlink:href="class_anoncoin_coin.html#a9510881824d283404ac43414dbb74586" target="_top" xlink:title="AnoncoinCoin::initialize">
<polygon fill="white" stroke="black" points="397.5,-38.5 397.5,-57.5 517.5,-57.5 517.5,-38.5 397.5,-38.5"/>
<text text-anchor="middle" x="457.5" y="-45.5" font-family="Helvetica,sans-Serif" font-size="10.00">AnoncoinCoin::initialize</text>
</a>
</g>
</g>
<!-- Node2&#45;&gt;Node3 -->
<g id="edge2" class="edge"><title>Node2&#45;&gt;Node3</title>
<path fill="none" stroke="midnightblue" d="M368.447,-38.4671C378.27,-39.5306 388.098,-40.5946 397.439,-41.6059"/>
<polygon fill="midnightblue" stroke="midnightblue" points="368.551,-34.9581 358.232,-37.3613 367.797,-41.9174 368.551,-34.9581"/>
</g>
<!-- Node4 -->
<g id="node4" class="node"><title>Node4</title>
<g id="a_node4"><a xlink:href="class_anoncoin_coin.html#ac33fbca9335d356d9d6102a0122f2a5b" target="_top" xlink:title="AnoncoinCoin::shutdown">
<polygon fill="white" stroke="black" points="394,-0.5 394,-19.5 521,-19.5 521,-0.5 394,-0.5"/>
<text text-anchor="middle" x="457.5" y="-7.5" font-family="Helvetica,sans-Serif" font-size="10.00">AnoncoinCoin::shutdown</text>
</a>
</g>
</g>
<!-- Node2&#45;&gt;Node4 -->
<g id="edge3" class="edge"><title>Node2&#45;&gt;Node4</title>
<path fill="none" stroke="midnightblue" d="M368.362,-19.542C377.01,-18.6058 385.663,-17.669 393.985,-16.768"/>
<polygon fill="midnightblue" stroke="midnightblue" points="367.797,-16.0826 358.232,-20.6387 368.551,-23.0419 367.797,-16.0826"/>
</g>
</g>
</svg>
