<?xml version="1.0" encoding="UTF-8" standalone="no"?>
<!DOCTYPE svg PUBLIC "-//W3C//DTD SVG 1.1//EN"
 "http://www.w3.org/Graphics/SVG/1.1/DTD/svg11.dtd">
<!-- Generated by graphviz version 2.38.0 (20140413.2041)
 -->
<!-- Title: CNode::copyStats Pages: 1 -->
<svg width="625pt" height="78pt"
 viewBox="0.00 0.00 625.00 77.50" xmlns="http://www.w3.org/2000/svg" xmlns:xlink="http://www.w3.org/1999/xlink">
<g id="graph0" class="graph" transform="scale(1 1) rotate(0) translate(4 73.5)">
<title>CNode::copyStats</title>
<polygon fill="white" stroke="none" points="-4,4 -4,-73.5 621,-73.5 621,4 -4,4"/>
<!-- Node1 -->
<g id="node1" class="node"><title>Node1</title>
<polygon fill="#bfbfbf" stroke="black" points="0,-22.5 0,-41.5 97,-41.5 97,-22.5 0,-22.5"/>
<text text-anchor="middle" x="48.5" y="-29.5" font-family="Helvetica,sans-Serif" font-size="10.00">CNode::copyStats</text>
</g>
<!-- Node2 -->
<g id="node2" class="node"><title>Node2</title>
<g id="a_node2"><a xlink:href="class_peer_table_priv.html#a304d99874f6cd0c67ed207546a5ca904" target="_top" xlink:title="Pull a full list of peers from vNodes into our cache. ">
<polygon fill="white" stroke="black" points="133,-22.5 133,-41.5 276,-41.5 276,-22.5 133,-22.5"/>
<text text-anchor="middle" x="204.5" y="-29.5" font-family="Helvetica,sans-Serif" font-size="10.00">PeerTablePriv::refreshPeers</text>
</a>
</g>
</g>
<!-- Node1&#45;&gt;Node2 -->
<g id="edge1" class="edge"><title>Node1&#45;&gt;Node2</title>
<path fill="none" stroke="midnightblue" d="M107.594,-32C115.81,-32 124.331,-32 132.752,-32"/>
<polygon fill="midnightblue" stroke="midnightblue" points="107.382,-28.5001 97.3824,-32 107.382,-35.5001 107.382,-28.5001"/>
</g>
<!-- Node3 -->
<g id="node3" class="node"><title>Node3</title>
<g id="a_node3"><a xlink:href="class_peer_table_model.html#abae14b3fd8a38a60f752f67a57b5b0b3" target="_top" xlink:title="PeerTableModel::refresh">
<polygon fill="white" stroke="black" points="312,-22.5 312,-41.5 439,-41.5 439,-22.5 312,-22.5"/>
<text text-anchor="middle" x="375.5" y="-29.5" font-family="Helvetica,sans-Serif" font-size="10.00">PeerTableModel::refresh</text>
</a>
</g>
</g>
<!-- Node2&#45;&gt;Node3 -->
<g id="edge2" class="edge"><title>Node2&#45;&gt;Node3</title>
<path fill="none" stroke="midnightblue" d="M286.256,-32C294.868,-32 303.532,-32 311.89,-32"/>
<polygon fill="midnightblue" stroke="midnightblue" points="286.192,-28.5001 276.192,-32 286.192,-35.5001 286.192,-28.5001"/>
</g>
<!-- Node4 -->
<g id="node4" class="node"><title>Node4</title>
<g id="a_node4"><a xlink:href="class_peer_table_model.html#a94e40794eeb946475a4a747c1fe1a2c2" target="_top" xlink:title="PeerTableModel::PeerTable\lModel">
<polygon fill="white" stroke="black" points="475,-39 475,-69 617,-69 617,-39 475,-39"/>
<text text-anchor="start" x="483" y="-57" font-family="Helvetica,sans-Serif" font-size="10.00">PeerTableModel::PeerTable</text>
<text text-anchor="middle" x="546" y="-46" font-family="Helvetica,sans-Serif" font-size="10.00">Model</text>
</a>
</g>
</g>
<!-- Node3&#45;&gt;Node4 -->
<g id="edge3" class="edge"><title>Node3&#45;&gt;Node4</title>
<path fill="none" stroke="midnightblue" d="M449.428,-41.5217C457.859,-42.6225 466.444,-43.7434 474.837,-44.8393"/>
<polygon fill="midnightblue" stroke="midnightblue" points="449.612,-38.0162 439.243,-40.192 448.706,-44.9573 449.612,-38.0162"/>
</g>
<!-- Node5 -->
<g id="node5" class="node"><title>Node5</title>
<g id="a_node5"><a xlink:href="class_peer_table_model.html#ac2211cda0ce659ac4c324c6ff24e1e5f" target="_top" xlink:title="PeerTableModel::sort">
<polygon fill="white" stroke="black" points="490,-0.5 490,-19.5 602,-19.5 602,-0.5 490,-0.5"/>
<text text-anchor="middle" x="546" y="-7.5" font-family="Helvetica,sans-Serif" font-size="10.00">PeerTableModel::sort</text>
</a>
</g>
</g>
<!-- Node3&#45;&gt;Node5 -->
<g id="edge4" class="edge"><title>Node3&#45;&gt;Node5</title>
<path fill="none" stroke="midnightblue" d="M449.517,-22.4666C463.085,-20.6952 477.048,-18.8721 489.965,-17.1855"/>
<polygon fill="midnightblue" stroke="midnightblue" points="448.706,-19.0427 439.243,-23.808 449.612,-25.9838 448.706,-19.0427"/>
</g>
</g>
</svg>
