<?xml version="1.0" encoding="UTF-8" standalone="no"?>
<!DOCTYPE svg PUBLIC "-//W3C//DTD SVG 1.1//EN"
 "http://www.w3.org/Graphics/SVG/1.1/DTD/svg11.dtd">
<!-- Generated by graphviz version 2.38.0 (20140413.2041)
 -->
<!-- Title: RPCConsole::RPCConsole Pages: 1 -->
<svg width="1049pt" height="205pt"
 viewBox="0.00 0.00 1049.00 205.00" xmlns="http://www.w3.org/2000/svg" xmlns:xlink="http://www.w3.org/1999/xlink">
<g id="graph0" class="graph" transform="scale(1 1) rotate(0) translate(4 201)">
<title>RPCConsole::RPCConsole</title>
<polygon fill="white" stroke="none" points="-4,4 -4,-201 1045,-201 1045,4 -4,4"/>
<!-- Node1 -->
<g id="node1" class="node"><title>Node1</title>
<polygon fill="#bfbfbf" stroke="black" points="0,-101.5 0,-120.5 138,-120.5 138,-101.5 0,-101.5"/>
<text text-anchor="middle" x="69" y="-108.5" font-family="Helvetica,sans-Serif" font-size="10.00">RPCConsole::RPCConsole</text>
</g>
<!-- Node2 -->
<g id="node2" class="node"><title>Node2</title>
<g id="a_node2"><a xlink:href="class_ui___r_p_c_console.html#a07d3a25190f5cad02fa8782b7f58e7d3" target="_top" xlink:title="Ui_RPCConsole::setupUi">
<polygon fill="white" stroke="black" points="192,-177.5 192,-196.5 321,-196.5 321,-177.5 192,-177.5"/>
<text text-anchor="middle" x="256.5" y="-184.5" font-family="Helvetica,sans-Serif" font-size="10.00">Ui_RPCConsole::setupUi</text>
</a>
</g>
</g>
<!-- Node1&#45;&gt;Node2 -->
<g id="edge1" class="edge"><title>Node1&#45;&gt;Node2</title>
<path fill="none" stroke="midnightblue" d="M84.5385,-120.643C104.103,-133.221 140.344,-155.132 174,-168 180.717,-170.568 187.884,-172.854 195.075,-174.87"/>
<polygon fill="midnightblue" stroke="midnightblue" points="194.295,-178.284 204.857,-177.453 196.082,-171.516 194.295,-178.284"/>
</g>
<!-- Node4 -->
<g id="node4" class="node"><title>Node4</title>
<g id="a_node4"><a xlink:href="namespace_g_u_i_util.html#a9fd50f13c602e4e01b0d1d70d54ee89a" target="_top" xlink:title="Restore window size and position. ">
<polygon fill="white" stroke="black" points="174,-139.5 174,-158.5 339,-158.5 339,-139.5 174,-139.5"/>
<text text-anchor="middle" x="256.5" y="-146.5" font-family="Helvetica,sans-Serif" font-size="10.00">GUIUtil::restoreWindowGeometry</text>
</a>
</g>
</g>
<!-- Node1&#45;&gt;Node4 -->
<g id="edge3" class="edge"><title>Node1&#45;&gt;Node4</title>
<path fill="none" stroke="midnightblue" d="M116.809,-120.589C141.84,-125.716 172.841,-132.067 199.182,-137.463"/>
<polygon fill="midnightblue" stroke="midnightblue" points="198.528,-140.902 209.027,-139.48 199.933,-134.044 198.528,-140.902"/>
</g>
<!-- Node5 -->
<g id="node5" class="node"><title>Node5</title>
<g id="a_node5"><a xlink:href="class_r_p_c_console.html#aad0fc48b238137c8f6d322b2a484c81a" target="_top" xlink:title="RPCConsole::clear">
<polygon fill="white" stroke="black" points="205.5,-101.5 205.5,-120.5 307.5,-120.5 307.5,-101.5 205.5,-101.5"/>
<text text-anchor="middle" x="256.5" y="-108.5" font-family="Helvetica,sans-Serif" font-size="10.00">RPCConsole::clear</text>
</a>
</g>
</g>
<!-- Node1&#45;&gt;Node5 -->
<g id="edge4" class="edge"><title>Node1&#45;&gt;Node5</title>
<path fill="none" stroke="midnightblue" d="M138.02,-111C156.778,-111 176.991,-111 195.274,-111"/>
<polygon fill="midnightblue" stroke="midnightblue" points="195.5,-114.5 205.5,-111 195.5,-107.5 195.5,-114.5"/>
</g>
<!-- Node9 -->
<g id="node9" class="node"><title>Node9</title>
<g id="a_node9"><a xlink:href="class_r_p_c_console.html#ac6250045ef6f8bd5e5fece3e478e141d" target="_top" xlink:title="RPCConsole::startExecutor">
<polygon fill="white" stroke="black" points="187,-63.5 187,-82.5 326,-82.5 326,-63.5 187,-63.5"/>
<text text-anchor="middle" x="256.5" y="-70.5" font-family="Helvetica,sans-Serif" font-size="10.00">RPCConsole::startExecutor</text>
</a>
</g>
</g>
<!-- Node1&#45;&gt;Node9 -->
<g id="edge8" class="edge"><title>Node1&#45;&gt;Node9</title>
<path fill="none" stroke="midnightblue" d="M116.809,-101.411C141.84,-96.2835 172.841,-89.9328 199.182,-84.5368"/>
<polygon fill="midnightblue" stroke="midnightblue" points="199.933,-87.9558 209.027,-82.5201 198.528,-81.0982 199.933,-87.9558"/>
</g>
<!-- Node10 -->
<g id="node10" class="node"><title>Node10</title>
<g id="a_node10"><a xlink:href="class_r_p_c_console.html#a465807980e78650ce2238a298bab4400" target="_top" xlink:title="RPCConsole::setTrafficGraph\lRange">
<polygon fill="white" stroke="black" points="182,-14 182,-44 331,-44 331,-14 182,-14"/>
<text text-anchor="start" x="190" y="-32" font-family="Helvetica,sans-Serif" font-size="10.00">RPCConsole::setTrafficGraph</text>
<text text-anchor="middle" x="256.5" y="-21" font-family="Helvetica,sans-Serif" font-size="10.00">Range</text>
</a>
</g>
</g>
<!-- Node1&#45;&gt;Node10 -->
<g id="edge10" class="edge"><title>Node1&#45;&gt;Node10</title>
<path fill="none" stroke="midnightblue" d="M85.0166,-101.491C104.811,-89.2595 140.995,-67.9348 174,-54 179.503,-51.6767 185.296,-49.4645 191.152,-47.3863"/>
<polygon fill="midnightblue" stroke="midnightblue" points="192.69,-50.5598 201.025,-44.0191 190.43,-43.9345 192.69,-50.5598"/>
</g>
<!-- Node3 -->
<g id="node3" class="node"><title>Node3</title>
<g id="a_node3"><a xlink:href="class_ui___r_p_c_console.html#ac6303c05e86e53b9f14c8b6d29deb4f5" target="_top" xlink:title="Ui_RPCConsole::retranslateUi">
<polygon fill="white" stroke="black" points="375,-177.5 375,-196.5 527,-196.5 527,-177.5 375,-177.5"/>
<text text-anchor="middle" x="451" y="-184.5" font-family="Helvetica,sans-Serif" font-size="10.00">Ui_RPCConsole::retranslateUi</text>
</a>
</g>
</g>
<!-- Node2&#45;&gt;Node3 -->
<g id="edge2" class="edge"><title>Node2&#45;&gt;Node3</title>
<path fill="none" stroke="midnightblue" d="M321.065,-187C335.035,-187 350.047,-187 364.715,-187"/>
<polygon fill="midnightblue" stroke="midnightblue" points="364.798,-190.5 374.798,-187 364.798,-183.5 364.798,-190.5"/>
</g>
<!-- Node6 -->
<g id="node6" class="node"><title>Node6</title>
<g id="a_node6"><a xlink:href="rpcconsole_8cpp.html#a2e32342d4d52b2cb14b9430673f4e23d" target="_top" xlink:title="ICON_SIZE">
<polygon fill="white" stroke="black" points="416.5,-101.5 416.5,-120.5 485.5,-120.5 485.5,-101.5 416.5,-101.5"/>
<text text-anchor="middle" x="451" y="-108.5" font-family="Helvetica,sans-Serif" font-size="10.00">ICON_SIZE</text>
</a>
</g>
</g>
<!-- Node5&#45;&gt;Node6 -->
<g id="edge5" class="edge"><title>Node5&#45;&gt;Node6</title>
<path fill="none" stroke="midnightblue" d="M307.575,-111C338.034,-111 376.579,-111 405.886,-111"/>
<polygon fill="midnightblue" stroke="midnightblue" points="406.234,-114.5 416.234,-111 406.234,-107.5 406.234,-114.5"/>
</g>
<!-- Node7 -->
<g id="node7" class="node"><title>Node7</title>
<g id="a_node7"><a xlink:href="class_r_p_c_console.html#ad7a93a587a78b0080a930bd325460b20" target="_top" xlink:title="RPCConsole::message">
<polygon fill="white" stroke="black" points="391,-63.5 391,-82.5 511,-82.5 511,-63.5 391,-63.5"/>
<text text-anchor="middle" x="451" y="-70.5" font-family="Helvetica,sans-Serif" font-size="10.00">RPCConsole::message</text>
</a>
</g>
</g>
<!-- Node5&#45;&gt;Node7 -->
<g id="edge6" class="edge"><title>Node5&#45;&gt;Node7</title>
<path fill="none" stroke="midnightblue" d="M306.076,-101.411C332.165,-96.261 364.506,-89.8768 391.918,-84.4656"/>
<polygon fill="midnightblue" stroke="midnightblue" points="392.641,-87.8905 401.773,-82.5201 391.285,-81.023 392.641,-87.8905"/>
</g>
<!-- Node8 -->
<g id="node8" class="node"><title>Node8</title>
<g id="a_node8"><a xlink:href="namespace_g_u_i_util.html#a2d4b7f2c11ebc4b97af10bc20d19b1b2" target="_top" xlink:title="GUIUtil::HtmlEscape">
<polygon fill="white" stroke="black" points="563,-63.5 563,-82.5 671,-82.5 671,-63.5 563,-63.5"/>
<text text-anchor="middle" x="617" y="-70.5" font-family="Helvetica,sans-Serif" font-size="10.00">GUIUtil::HtmlEscape</text>
</a>
</g>
</g>
<!-- Node7&#45;&gt;Node8 -->
<g id="edge7" class="edge"><title>Node7&#45;&gt;Node8</title>
<path fill="none" stroke="midnightblue" d="M511.208,-73C524.661,-73 539.002,-73 552.621,-73"/>
<polygon fill="midnightblue" stroke="midnightblue" points="552.867,-76.5001 562.867,-73 552.867,-69.5001 552.867,-76.5001"/>
</g>
<!-- Node9&#45;&gt;Node7 -->
<g id="edge9" class="edge"><title>Node9&#45;&gt;Node7</title>
<path fill="none" stroke="midnightblue" d="M326.182,-73C343.873,-73 362.921,-73 380.646,-73"/>
<polygon fill="midnightblue" stroke="midnightblue" points="380.909,-76.5001 390.909,-73 380.909,-69.5001 380.909,-76.5001"/>
</g>
<!-- Node11 -->
<g id="node11" class="node"><title>Node11</title>
<g id="a_node11"><a xlink:href="class_traffic_graph_widget.html#aa08cb5ae735e58a79bdff42b933ec4c4" target="_top" xlink:title="TrafficGraphWidget\l::setGraphRangeMins">
<polygon fill="white" stroke="black" points="394,-14 394,-44 508,-44 508,-14 394,-14"/>
<text text-anchor="start" x="402" y="-32" font-family="Helvetica,sans-Serif" font-size="10.00">TrafficGraphWidget</text>
<text text-anchor="middle" x="451" y="-21" font-family="Helvetica,sans-Serif" font-size="10.00">::setGraphRangeMins</text>
</a>
</g>
</g>
<!-- Node10&#45;&gt;Node11 -->
<g id="edge11" class="edge"><title>Node10&#45;&gt;Node11</title>
<path fill="none" stroke="midnightblue" d="M331.1,-29C348.328,-29 366.582,-29 383.48,-29"/>
<polygon fill="midnightblue" stroke="midnightblue" points="383.806,-32.5001 393.806,-29 383.806,-25.5001 383.806,-32.5001"/>
</g>
<!-- Node12 -->
<g id="node12" class="node"><title>Node12</title>
<g id="a_node12"><a xlink:href="class_traffic_graph_widget.html#a71c23db2649ab8781fa9a294e540b7ee" target="_top" xlink:title="TrafficGraphWidget\l::clear">
<polygon fill="white" stroke="black" points="565.5,-14 565.5,-44 668.5,-44 668.5,-14 565.5,-14"/>
<text text-anchor="start" x="573.5" y="-32" font-family="Helvetica,sans-Serif" font-size="10.00">TrafficGraphWidget</text>
<text text-anchor="middle" x="617" y="-21" font-family="Helvetica,sans-Serif" font-size="10.00">::clear</text>
</a>
</g>
</g>
<!-- Node11&#45;&gt;Node12 -->
<g id="edge12" class="edge"><title>Node11&#45;&gt;Node12</title>
<path fill="none" stroke="midnightblue" d="M508.439,-29C523.496,-29 539.83,-29 555.114,-29"/>
<polygon fill="midnightblue" stroke="midnightblue" points="555.498,-32.5001 565.498,-29 555.498,-25.5001 555.498,-32.5001"/>
</g>
<!-- Node13 -->
<g id="node13" class="node"><title>Node13</title>
<g id="a_node13"><a xlink:href="class_client_model.html#a175c96ffc4d793777316e36c501a7f94" target="_top" xlink:title="ClientModel::getTotalBytesRecv">
<polygon fill="white" stroke="black" points="707,-38.5 707,-57.5 866,-57.5 866,-38.5 707,-38.5"/>
<text text-anchor="middle" x="786.5" y="-45.5" font-family="Helvetica,sans-Serif" font-size="10.00">ClientModel::getTotalBytesRecv</text>
</a>
</g>
</g>
<!-- Node12&#45;&gt;Node13 -->
<g id="edge13" class="edge"><title>Node12&#45;&gt;Node13</title>
<path fill="none" stroke="midnightblue" d="M668.71,-34.7522C677.643,-35.7655 687.173,-36.8465 696.791,-37.9375"/>
<polygon fill="midnightblue" stroke="midnightblue" points="696.493,-41.4261 706.824,-39.0756 697.282,-34.4707 696.493,-41.4261"/>
</g>
<!-- Node15 -->
<g id="node15" class="node"><title>Node15</title>
<g id="a_node15"><a xlink:href="class_client_model.html#a4229224bf8a2df52e44438a449da6ba3" target="_top" xlink:title="ClientModel::getTotalBytesSent">
<polygon fill="white" stroke="black" points="708,-0.5 708,-19.5 865,-19.5 865,-0.5 708,-0.5"/>
<text text-anchor="middle" x="786.5" y="-7.5" font-family="Helvetica,sans-Serif" font-size="10.00">ClientModel::getTotalBytesSent</text>
</a>
</g>
</g>
<!-- Node12&#45;&gt;Node15 -->
<g id="edge15" class="edge"><title>Node12&#45;&gt;Node15</title>
<path fill="none" stroke="midnightblue" d="M668.71,-23.2478C677.954,-22.1993 687.837,-21.0782 697.795,-19.9486"/>
<polygon fill="midnightblue" stroke="midnightblue" points="698.215,-23.4235 707.757,-18.8186 697.426,-16.4681 698.215,-23.4235"/>
</g>
<!-- Node14 -->
<g id="node14" class="node"><title>Node14</title>
<g id="a_node14"><a xlink:href="class_c_node.html#a1988b63b48fdc9b72014bdf9588b0168" target="_top" xlink:title="CNode::GetTotalBytesRecv">
<polygon fill="white" stroke="black" points="902,-38.5 902,-57.5 1041,-57.5 1041,-38.5 902,-38.5"/>
<text text-anchor="middle" x="971.5" y="-45.5" font-family="Helvetica,sans-Serif" font-size="10.00">CNode::GetTotalBytesRecv</text>
</a>
</g>
</g>
<!-- Node13&#45;&gt;Node14 -->
<g id="edge14" class="edge"><title>Node13&#45;&gt;Node14</title>
<path fill="none" stroke="midnightblue" d="M866.171,-48C874.642,-48 883.262,-48 891.735,-48"/>
<polygon fill="midnightblue" stroke="midnightblue" points="891.975,-51.5001 901.975,-48 891.975,-44.5001 891.975,-51.5001"/>
</g>
<!-- Node16 -->
<g id="node16" class="node"><title>Node16</title>
<g id="a_node16"><a xlink:href="class_c_node.html#af318a64e7ddad50d1e1b6fc123a5f0b9" target="_top" xlink:title="CNode::GetTotalBytesSent">
<polygon fill="white" stroke="black" points="903,-0.5 903,-19.5 1040,-19.5 1040,-0.5 903,-0.5"/>
<text text-anchor="middle" x="971.5" y="-7.5" font-family="Helvetica,sans-Serif" font-size="10.00">CNode::GetTotalBytesSent</text>
</a>
</g>
</g>
<!-- Node15&#45;&gt;Node16 -->
<g id="edge16" class="edge"><title>Node15&#45;&gt;Node16</title>
<path fill="none" stroke="midnightblue" d="M865.108,-10C874.239,-10 883.558,-10 892.691,-10"/>
<polygon fill="midnightblue" stroke="midnightblue" points="892.904,-13.5001 902.904,-10 892.904,-6.5001 892.904,-13.5001"/>
</g>
</g>
</svg>
