<?xml version="1.0" encoding="UTF-8" standalone="no"?>
<!DOCTYPE svg PUBLIC "-//W3C//DTD SVG 1.1//EN"
 "http://www.w3.org/Graphics/SVG/1.1/DTD/svg11.dtd">
<!-- Generated by graphviz version 2.38.0 (20140413.2041)
 -->
<!-- Title: RPCConsole::message Pages: 1 -->
<svg width="477pt" height="116pt"
 viewBox="0.00 0.00 477.00 116.00" xmlns="http://www.w3.org/2000/svg" xmlns:xlink="http://www.w3.org/1999/xlink">
<g id="graph0" class="graph" transform="scale(1 1) rotate(0) translate(4 112)">
<title>RPCConsole::message</title>
<polygon fill="white" stroke="none" points="-4,4 -4,-112 473,-112 473,4 -4,4"/>
<!-- Node1 -->
<g id="node1" class="node"><title>Node1</title>
<polygon fill="#bfbfbf" stroke="black" points="0,-44.5 0,-63.5 120,-63.5 120,-44.5 0,-44.5"/>
<text text-anchor="middle" x="60" y="-51.5" font-family="Helvetica,sans-Serif" font-size="10.00">RPCConsole::message</text>
</g>
<!-- Node2 -->
<g id="node2" class="node"><title>Node2</title>
<g id="a_node2"><a xlink:href="class_r_p_c_console.html#aad0fc48b238137c8f6d322b2a484c81a" target="_top" xlink:title="RPCConsole::clear">
<polygon fill="white" stroke="black" points="174.5,-88.5 174.5,-107.5 276.5,-107.5 276.5,-88.5 174.5,-88.5"/>
<text text-anchor="middle" x="225.5" y="-95.5" font-family="Helvetica,sans-Serif" font-size="10.00">RPCConsole::clear</text>
</a>
</g>
</g>
<!-- Node1&#45;&gt;Node2 -->
<g id="edge1" class="edge"><title>Node1&#45;&gt;Node2</title>
<path fill="none" stroke="midnightblue" d="M106.166,-66.1547C132.329,-73.1955 164.79,-81.9312 189.092,-88.4713"/>
<polygon fill="midnightblue" stroke="midnightblue" points="107.043,-62.7663 96.4771,-63.5473 105.224,-69.5259 107.043,-62.7663"/>
</g>
<!-- Node4 -->
<g id="node4" class="node"><title>Node4</title>
<g id="a_node4"><a xlink:href="class_r_p_c_console.html#a2ab27700348f83acaee6ceb7c22225f8" target="_top" xlink:title="RPCConsole::on_lineEdit\l_returnPressed">
<polygon fill="white" stroke="black" points="161,-39 161,-69 290,-69 290,-39 161,-39"/>
<text text-anchor="start" x="169" y="-57" font-family="Helvetica,sans-Serif" font-size="10.00">RPCConsole::on_lineEdit</text>
<text text-anchor="middle" x="225.5" y="-46" font-family="Helvetica,sans-Serif" font-size="10.00">_returnPressed</text>
</a>
</g>
</g>
<!-- Node1&#45;&gt;Node4 -->
<g id="edge3" class="edge"><title>Node1&#45;&gt;Node4</title>
<path fill="none" stroke="midnightblue" d="M130.113,-54C140.312,-54 150.781,-54 160.862,-54"/>
<polygon fill="midnightblue" stroke="midnightblue" points="130.027,-50.5001 120.027,-54 130.027,-57.5001 130.027,-50.5001"/>
</g>
<!-- Node5 -->
<g id="node5" class="node"><title>Node5</title>
<g id="a_node5"><a xlink:href="class_r_p_c_console.html#ac6250045ef6f8bd5e5fece3e478e141d" target="_top" xlink:title="RPCConsole::startExecutor">
<polygon fill="white" stroke="black" points="156,-0.5 156,-19.5 295,-19.5 295,-0.5 156,-0.5"/>
<text text-anchor="middle" x="225.5" y="-7.5" font-family="Helvetica,sans-Serif" font-size="10.00">RPCConsole::startExecutor</text>
</a>
</g>
</g>
<!-- Node1&#45;&gt;Node5 -->
<g id="edge4" class="edge"><title>Node1&#45;&gt;Node5</title>
<path fill="none" stroke="midnightblue" d="M106.166,-41.8453C132.329,-34.8045 164.79,-26.0688 189.092,-19.5287"/>
<polygon fill="midnightblue" stroke="midnightblue" points="105.224,-38.4741 96.4771,-44.4527 107.043,-45.2337 105.224,-38.4741"/>
</g>
<!-- Node3 -->
<g id="node3" class="node"><title>Node3</title>
<g id="a_node3"><a xlink:href="class_r_p_c_console.html#aeac546e68f8c2cafa79a0294dd78f2ad" target="_top" xlink:title="RPCConsole::RPCConsole">
<polygon fill="white" stroke="black" points="331,-44.5 331,-63.5 469,-63.5 469,-44.5 331,-44.5"/>
<text text-anchor="middle" x="400" y="-51.5" font-family="Helvetica,sans-Serif" font-size="10.00">RPCConsole::RPCConsole</text>
</a>
</g>
</g>
<!-- Node2&#45;&gt;Node3 -->
<g id="edge2" class="edge"><title>Node2&#45;&gt;Node3</title>
<path fill="none" stroke="midnightblue" d="M273.788,-85.9383C301.453,-78.8815 335.89,-70.0976 361.643,-63.5287"/>
<polygon fill="midnightblue" stroke="midnightblue" points="272.755,-82.5896 263.93,-88.4527 274.485,-89.3724 272.755,-82.5896"/>
</g>
<!-- Node5&#45;&gt;Node3 -->
<g id="edge5" class="edge"><title>Node5&#45;&gt;Node3</title>
<path fill="none" stroke="midnightblue" d="M273.788,-22.0617C301.453,-29.1185 335.89,-37.9024 361.643,-44.4713"/>
<polygon fill="midnightblue" stroke="midnightblue" points="274.485,-18.6276 263.93,-19.5473 272.755,-25.4104 274.485,-18.6276"/>
</g>
</g>
</svg>
