<?xml version="1.0" encoding="UTF-8" standalone="no"?>
<!DOCTYPE svg PUBLIC "-//W3C//DTD SVG 1.1//EN"
 "http://www.w3.org/Graphics/SVG/1.1/DTD/svg11.dtd">
<!-- Generated by graphviz version 2.38.0 (20140413.2041)
 -->
<!-- Title: AnoncoinUnits::amountDigits Pages: 1 -->
<svg width="643pt" height="88pt"
 viewBox="0.00 0.00 643.00 88.00" xmlns="http://www.w3.org/2000/svg" xmlns:xlink="http://www.w3.org/1999/xlink">
<g id="graph0" class="graph" transform="scale(1 1) rotate(0) translate(4 84)">
<title>AnoncoinUnits::amountDigits</title>
<polygon fill="white" stroke="none" points="-4,4 -4,-84 639,-84 639,4 -4,4"/>
<!-- Node1 -->
<g id="node1" class="node"><title>Node1</title>
<polygon fill="#bfbfbf" stroke="black" points="0,-30 0,-49 145,-49 145,-30 0,-30"/>
<text text-anchor="middle" x="72.5" y="-37" font-family="Helvetica,sans-Serif" font-size="10.00">AnoncoinUnits::amountDigits</text>
</g>
<!-- Node2 -->
<g id="node2" class="node"><title>Node2</title>
<g id="a_node2"><a xlink:href="class_anoncoin_amount_field.html#a57a80569ce0ee2a8aee65d040a559dd4" target="_top" xlink:title="AnoncoinAmountField\l::unitChanged">
<polygon fill="white" stroke="black" points="181,-24.5 181,-54.5 295,-54.5 295,-24.5 181,-24.5"/>
<text text-anchor="start" x="189" y="-42.5" font-family="Helvetica,sans-Serif" font-size="10.00">AnoncoinAmountField</text>
<text text-anchor="middle" x="238" y="-31.5" font-family="Helvetica,sans-Serif" font-size="10.00">::unitChanged</text>
</a>
</g>
</g>
<!-- Node1&#45;&gt;Node2 -->
<g id="edge1" class="edge"><title>Node1&#45;&gt;Node2</title>
<path fill="none" stroke="midnightblue" d="M155.249,-39.5C163.817,-39.5 172.385,-39.5 180.577,-39.5"/>
<polygon fill="midnightblue" stroke="midnightblue" points="155.214,-36.0001 145.213,-39.5 155.213,-43.0001 155.214,-36.0001"/>
</g>
<!-- Node3 -->
<g id="node3" class="node"><title>Node3</title>
<g id="a_node3"><a xlink:href="class_anoncoin_amount_field.html#a4b2c8c4c44291ec9e60bc0a85b645e5f" target="_top" xlink:title="AnoncoinAmountField\l::AnoncoinAmountField">
<polygon fill="white" stroke="black" points="331,-49.5 331,-79.5 451,-79.5 451,-49.5 331,-49.5"/>
<text text-anchor="start" x="339" y="-67.5" font-family="Helvetica,sans-Serif" font-size="10.00">AnoncoinAmountField</text>
<text text-anchor="middle" x="391" y="-56.5" font-family="Helvetica,sans-Serif" font-size="10.00">::AnoncoinAmountField</text>
</a>
</g>
</g>
<!-- Node2&#45;&gt;Node3 -->
<g id="edge2" class="edge"><title>Node2&#45;&gt;Node3</title>
<path fill="none" stroke="midnightblue" d="M305.19,-50.4586C313.763,-51.878 322.5,-53.3244 330.947,-54.723"/>
<polygon fill="midnightblue" stroke="midnightblue" points="305.664,-46.9896 295.227,-48.8091 304.521,-53.8955 305.664,-46.9896"/>
</g>
<!-- Node4 -->
<g id="node4" class="node"><title>Node4</title>
<g id="a_node4"><a xlink:href="class_anoncoin_amount_field.html#a168a4f11d296a1a9b17dc164f5f5f11e" target="_top" xlink:title="Set single step in satoshis. ">
<polygon fill="white" stroke="black" points="334,-0.5 334,-30.5 448,-30.5 448,-0.5 334,-0.5"/>
<text text-anchor="start" x="342" y="-18.5" font-family="Helvetica,sans-Serif" font-size="10.00">AnoncoinAmountField</text>
<text text-anchor="middle" x="391" y="-7.5" font-family="Helvetica,sans-Serif" font-size="10.00">::setSingleStep</text>
</a>
</g>
</g>
<!-- Node2&#45;&gt;Node4 -->
<g id="edge3" class="edge"><title>Node2&#45;&gt;Node4</title>
<path fill="none" stroke="midnightblue" d="M305.147,-28.9865C314.764,-27.458 324.587,-25.8968 333.978,-24.4042"/>
<polygon fill="midnightblue" stroke="midnightblue" points="304.553,-25.5369 295.227,-30.5633 305.652,-32.4501 304.553,-25.5369"/>
</g>
<!-- Node5 -->
<g id="node5" class="node"><title>Node5</title>
<g id="a_node5"><a xlink:href="class_options_dialog.html#a8131b615e29560144ffb368b9b07060a" target="_top" xlink:title="OptionsDialog::OptionsDialog">
<polygon fill="white" stroke="black" points="487,-6 487,-25 635,-25 635,-6 487,-6"/>
<text text-anchor="middle" x="561" y="-13" font-family="Helvetica,sans-Serif" font-size="10.00">OptionsDialog::OptionsDialog</text>
</a>
</g>
</g>
<!-- Node4&#45;&gt;Node5 -->
<g id="edge4" class="edge"><title>Node4&#45;&gt;Node5</title>
<path fill="none" stroke="midnightblue" d="M458.67,-15.5C467.89,-15.5 477.402,-15.5 486.734,-15.5"/>
<polygon fill="midnightblue" stroke="midnightblue" points="458.409,-12.0001 448.409,-15.5 458.409,-19.0001 458.409,-12.0001"/>
</g>
</g>
</svg>
