<?xml version="1.0" encoding="UTF-8" standalone="no"?>
<!DOCTYPE svg PUBLIC "-//W3C//DTD SVG 1.1//EN"
 "http://www.w3.org/Graphics/SVG/1.1/DTD/svg11.dtd">
<!-- Generated by graphviz version 2.38.0 (20140413.2041)
 -->
<!-- Title: SendCoinsDialog::setBalance Pages: 1 -->
<svg width="659pt" height="123pt"
 viewBox="0.00 0.00 659.00 123.00" xmlns="http://www.w3.org/2000/svg" xmlns:xlink="http://www.w3.org/1999/xlink">
<g id="graph0" class="graph" transform="scale(1 1) rotate(0) translate(4 119)">
<title>SendCoinsDialog::setBalance</title>
<polygon fill="white" stroke="none" points="-4,4 -4,-119 655,-119 655,4 -4,4"/>
<!-- Node1 -->
<g id="node1" class="node"><title>Node1</title>
<polygon fill="#bfbfbf" stroke="black" points="0,-38.5 0,-57.5 149,-57.5 149,-38.5 0,-38.5"/>
<text text-anchor="middle" x="74.5" y="-45.5" font-family="Helvetica,sans-Serif" font-size="10.00">SendCoinsDialog::setBalance</text>
</g>
<!-- Node2 -->
<g id="node2" class="node"><title>Node2</title>
<g id="a_node2"><a xlink:href="class_wallet_model.html#a96d53e56b3f8f07537ea2523f7a7d300" target="_top" xlink:title="WalletModel::getOptionsModel">
<polygon fill="white" stroke="black" points="185,-76.5 185,-95.5 338,-95.5 338,-76.5 185,-76.5"/>
<text text-anchor="middle" x="261.5" y="-83.5" font-family="Helvetica,sans-Serif" font-size="10.00">WalletModel::getOptionsModel</text>
</a>
</g>
</g>
<!-- Node1&#45;&gt;Node2 -->
<g id="edge1" class="edge"><title>Node1&#45;&gt;Node2</title>
<path fill="none" stroke="midnightblue" d="M122.183,-57.589C147.146,-62.7165 178.064,-69.0672 204.334,-74.4632"/>
<polygon fill="midnightblue" stroke="midnightblue" points="203.653,-77.8962 214.152,-76.4799 205.061,-71.0394 203.653,-77.8962"/>
</g>
<!-- Node3 -->
<g id="node3" class="node"><title>Node3</title>
<g id="a_node3"><a xlink:href="class_anoncoin_units.html#a07b2ad9cac3728231143e4d78c059e14" target="_top" xlink:title="Format as string (with unit) ">
<polygon fill="white" stroke="black" points="185,-38.5 185,-57.5 338,-57.5 338,-38.5 185,-38.5"/>
<text text-anchor="middle" x="261.5" y="-45.5" font-family="Helvetica,sans-Serif" font-size="10.00">AnoncoinUnits::formatWithUnit</text>
</a>
</g>
</g>
<!-- Node1&#45;&gt;Node3 -->
<g id="edge2" class="edge"><title>Node1&#45;&gt;Node3</title>
<path fill="none" stroke="midnightblue" d="M149.148,-48C157.622,-48 166.316,-48 174.929,-48"/>
<polygon fill="midnightblue" stroke="midnightblue" points="174.986,-51.5001 184.986,-48 174.986,-44.5001 174.986,-51.5001"/>
</g>
<!-- Node9 -->
<g id="node9" class="node"><title>Node9</title>
<g id="a_node9"><a xlink:href="class_options_model.html#a3b6e4d4ef42be3aaba315b8cd14f468e" target="_top" xlink:title="OptionsModel::getDisplayUnit">
<polygon fill="white" stroke="black" points="187.5,-0.5 187.5,-19.5 335.5,-19.5 335.5,-0.5 187.5,-0.5"/>
<text text-anchor="middle" x="261.5" y="-7.5" font-family="Helvetica,sans-Serif" font-size="10.00">OptionsModel::getDisplayUnit</text>
</a>
</g>
</g>
<!-- Node1&#45;&gt;Node9 -->
<g id="edge8" class="edge"><title>Node1&#45;&gt;Node9</title>
<path fill="none" stroke="midnightblue" d="M122.183,-38.411C147.146,-33.2835 178.064,-26.9328 204.334,-21.5368"/>
<polygon fill="midnightblue" stroke="midnightblue" points="205.061,-24.9606 214.152,-19.5201 203.653,-18.1038 205.061,-24.9606"/>
</g>
<!-- Node4 -->
<g id="node4" class="node"><title>Node4</title>
<g id="a_node4"><a xlink:href="class_anoncoin_units.html#acbdb244b3fc381599233882de4284e34" target="_top" xlink:title="Format as string. ">
<polygon fill="white" stroke="black" points="374,-57.5 374,-76.5 489,-76.5 489,-57.5 374,-57.5"/>
<text text-anchor="middle" x="431.5" y="-64.5" font-family="Helvetica,sans-Serif" font-size="10.00">AnoncoinUnits::format</text>
</a>
</g>
</g>
<!-- Node3&#45;&gt;Node4 -->
<g id="edge3" class="edge"><title>Node3&#45;&gt;Node4</title>
<path fill="none" stroke="midnightblue" d="M338.145,-56.5551C346.69,-57.5215 355.351,-58.501 363.77,-59.4532"/>
<polygon fill="midnightblue" stroke="midnightblue" points="363.565,-62.9523 373.895,-60.5983 364.352,-55.9966 363.565,-62.9523"/>
</g>
<!-- Node8 -->
<g id="node8" class="node"><title>Node8</title>
<g id="a_node8"><a xlink:href="class_anoncoin_units.html#ad83d732db7699510db372a5c17590fba" target="_top" xlink:title="Short name. ">
<polygon fill="white" stroke="black" points="375.5,-19.5 375.5,-38.5 487.5,-38.5 487.5,-19.5 375.5,-19.5"/>
<text text-anchor="middle" x="431.5" y="-26.5" font-family="Helvetica,sans-Serif" font-size="10.00">AnoncoinUnits::name</text>
</a>
</g>
</g>
<!-- Node3&#45;&gt;Node8 -->
<g id="edge7" class="edge"><title>Node3&#45;&gt;Node8</title>
<path fill="none" stroke="midnightblue" d="M338.145,-39.4449C347.257,-38.4144 356.502,-37.3689 365.444,-36.3575"/>
<polygon fill="midnightblue" stroke="midnightblue" points="365.845,-39.8345 375.389,-35.2328 365.059,-32.8789 365.845,-39.8345"/>
</g>
<!-- Node5 -->
<g id="node5" class="node"><title>Node5</title>
<g id="a_node5"><a xlink:href="class_anoncoin_units.html#aa51b639723ccb854bc42c7bd4bcd8890" target="_top" xlink:title="Is unit ID valid? ">
<polygon fill="white" stroke="black" points="534.5,-95.5 534.5,-114.5 641.5,-114.5 641.5,-95.5 534.5,-95.5"/>
<text text-anchor="middle" x="588" y="-102.5" font-family="Helvetica,sans-Serif" font-size="10.00">AnoncoinUnits::valid</text>
</a>
</g>
</g>
<!-- Node4&#45;&gt;Node5 -->
<g id="edge4" class="edge"><title>Node4&#45;&gt;Node5</title>
<path fill="none" stroke="midnightblue" d="M471.487,-76.589C491.783,-81.5809 516.793,-87.7324 538.346,-93.0334"/>
<polygon fill="midnightblue" stroke="midnightblue" points="537.747,-96.4902 548.293,-95.4799 539.419,-89.6928 537.747,-96.4902"/>
</g>
<!-- Node6 -->
<g id="node6" class="node"><title>Node6</title>
<g id="a_node6"><a xlink:href="class_anoncoin_units.html#aa3bdc0febcf7e6f42ab07179d9946f57" target="_top" xlink:title="Number of Satoshis (1e&#45;8) per unit. ">
<polygon fill="white" stroke="black" points="532,-57.5 532,-76.5 644,-76.5 644,-57.5 532,-57.5"/>
<text text-anchor="middle" x="588" y="-64.5" font-family="Helvetica,sans-Serif" font-size="10.00">AnoncoinUnits::factor</text>
</a>
</g>
</g>
<!-- Node4&#45;&gt;Node6 -->
<g id="edge5" class="edge"><title>Node4&#45;&gt;Node6</title>
<path fill="none" stroke="midnightblue" d="M489.153,-67C499.726,-67 510.854,-67 521.663,-67"/>
<polygon fill="midnightblue" stroke="midnightblue" points="521.9,-70.5001 531.9,-67 521.9,-63.5001 521.9,-70.5001"/>
</g>
<!-- Node7 -->
<g id="node7" class="node"><title>Node7</title>
<g id="a_node7"><a xlink:href="class_anoncoin_units.html#a5653b325d94d65dc30cf75aec3718112" target="_top" xlink:title="Number of decimals left. ">
<polygon fill="white" stroke="black" points="525,-19.5 525,-38.5 651,-38.5 651,-19.5 525,-19.5"/>
<text text-anchor="middle" x="588" y="-26.5" font-family="Helvetica,sans-Serif" font-size="10.00">AnoncoinUnits::decimals</text>
</a>
</g>
</g>
<!-- Node4&#45;&gt;Node7 -->
<g id="edge6" class="edge"><title>Node4&#45;&gt;Node7</title>
<path fill="none" stroke="midnightblue" d="M471.487,-57.411C491.783,-52.4191 516.793,-46.2676 538.346,-40.9666"/>
<polygon fill="midnightblue" stroke="midnightblue" points="539.419,-44.3072 548.293,-38.5201 537.747,-37.5098 539.419,-44.3072"/>
</g>
</g>
</svg>
