<?xml version="1.0" encoding="UTF-8" standalone="no"?>
<!DOCTYPE svg PUBLIC "-//W3C//DTD SVG 1.1//EN"
 "http://www.w3.org/Graphics/SVG/1.1/DTD/svg11.dtd">
<!-- Generated by graphviz version 2.38.0 (20140413.2041)
 -->
<!-- Title: GUIUtil::TableViewLastColumnResizingFixer::on_geometriesChanged Pages: 1 -->
<svg width="1272pt" height="293pt"
 viewBox="0.00 0.00 1272.00 292.54" xmlns="http://www.w3.org/2000/svg" xmlns:xlink="http://www.w3.org/1999/xlink">
<g id="graph0" class="graph" transform="scale(1 1) rotate(0) translate(4 288.537)">
<title>GUIUtil::TableViewLastColumnResizingFixer::on_geometriesChanged</title>
<polygon fill="white" stroke="none" points="-4,4 -4,-288.537 1268,-288.537 1268,4 -4,4"/>
<!-- Node1 -->
<g id="node1" class="node"><title>Node1</title>
<polygon fill="#bfbfbf" stroke="black" points="0,-82.5369 0,-112.537 189,-112.537 189,-82.5369 0,-82.5369"/>
<text text-anchor="start" x="8" y="-100.537" font-family="Helvetica,sans-Serif" font-size="10.00">GUIUtil::TableViewLastColumn</text>
<text text-anchor="middle" x="94.5" y="-89.5369" font-family="Helvetica,sans-Serif" font-size="10.00">ResizingFixer::on_geometriesChanged</text>
</g>
<!-- Node2 -->
<g id="node2" class="node"><title>Node2</title>
<g id="a_node2"><a xlink:href="class_g_u_i_util_1_1_table_view_last_column_resizing_fixer.html#a9abbf570cbaad95acfd772ddf712cbbb" target="_top" xlink:title="GUIUtil::TableViewLastColumn\lResizingFixer::getColumnsWidth">
<polygon fill="white" stroke="black" points="1102,-199.537 1102,-229.537 1264,-229.537 1264,-199.537 1102,-199.537"/>
<text text-anchor="start" x="1110" y="-217.537" font-family="Helvetica,sans-Serif" font-size="10.00">GUIUtil::TableViewLastColumn</text>
<text text-anchor="middle" x="1183" y="-206.537" font-family="Helvetica,sans-Serif" font-size="10.00">ResizingFixer::getColumnsWidth</text>
</a>
</g>
</g>
<!-- Node1&#45;&gt;Node2 -->
<g id="edge1" class="edge"><title>Node1&#45;&gt;Node2</title>
<path fill="none" stroke="midnightblue" d="M137.143,-82.4342C214.251,-55.8625 384.953,-3.53689 533.5,-3.53689 533.5,-3.53689 533.5,-3.53689 754.5,-3.53689 894.86,-3.53689 946.557,18.1812 1066,-55.5369 1118.63,-88.0165 1154.82,-154.041 1171.51,-189.947"/>
<polygon fill="midnightblue" stroke="midnightblue" points="1168.4,-191.549 1175.7,-199.222 1174.78,-188.668 1168.4,-191.549"/>
</g>
<!-- Node3 -->
<g id="node3" class="node"><title>Node3</title>
<g id="a_node3"><a xlink:href="class_g_u_i_util_1_1_table_view_last_column_resizing_fixer.html#ae36cd142d60656073928ba6bd05a6661" target="_top" xlink:title="GUIUtil::TableViewLastColumn\lResizingFixer::disconnectViewHeaders\lSignals">
<polygon fill="white" stroke="black" points="225,-140.037 225,-181.037 415,-181.037 415,-140.037 225,-140.037"/>
<text text-anchor="start" x="233" y="-169.037" font-family="Helvetica,sans-Serif" font-size="10.00">GUIUtil::TableViewLastColumn</text>
<text text-anchor="start" x="233" y="-158.037" font-family="Helvetica,sans-Serif" font-size="10.00">ResizingFixer::disconnectViewHeaders</text>
<text text-anchor="middle" x="320" y="-147.037" font-family="Helvetica,sans-Serif" font-size="10.00">Signals</text>
</a>
</g>
</g>
<!-- Node1&#45;&gt;Node3 -->
<g id="edge2" class="edge"><title>Node1&#45;&gt;Node3</title>
<path fill="none" stroke="midnightblue" d="M171.791,-112.603C199.488,-119.908 230.426,-128.734 256.765,-136.871"/>
<polygon fill="midnightblue" stroke="midnightblue" points="256.029,-140.308 266.618,-139.952 258.118,-133.627 256.029,-140.308"/>
</g>
<!-- Node6 -->
<g id="node6" class="node"><title>Node6</title>
<g id="a_node6"><a xlink:href="class_g_u_i_util_1_1_table_view_last_column_resizing_fixer.html#a284107daa657b2d34a196b886538c02c" target="_top" xlink:title="GUIUtil::TableViewLastColumn\lResizingFixer::resizeColumn">
<polygon fill="white" stroke="black" points="900.5,-155.537 900.5,-185.537 1054.5,-185.537 1054.5,-155.537 900.5,-155.537"/>
<text text-anchor="start" x="908.5" y="-173.537" font-family="Helvetica,sans-Serif" font-size="10.00">GUIUtil::TableViewLastColumn</text>
<text text-anchor="middle" x="977.5" y="-162.537" font-family="Helvetica,sans-Serif" font-size="10.00">ResizingFixer::resizeColumn</text>
</a>
</g>
</g>
<!-- Node1&#45;&gt;Node6 -->
<g id="edge16" class="edge"><title>Node1&#45;&gt;Node6</title>
<path fill="none" stroke="midnightblue" d="M189.365,-105.315C361.23,-119.555 724.041,-149.618 890.156,-163.382"/>
<polygon fill="midnightblue" stroke="midnightblue" points="890.073,-166.887 900.328,-164.225 890.651,-159.911 890.073,-166.887"/>
</g>
<!-- Node7 -->
<g id="node7" class="node"><title>Node7</title>
<g id="a_node7"><a xlink:href="class_g_u_i_util_1_1_table_view_last_column_resizing_fixer.html#ad0c6ff117107634ae8d37f056d27e711" target="_top" xlink:title="GUIUtil::TableViewLastColumn\lResizingFixer::getAvailableWidth\lForColumn">
<polygon fill="white" stroke="black" points="896,-243.037 896,-284.037 1059,-284.037 1059,-243.037 896,-243.037"/>
<text text-anchor="start" x="904" y="-272.037" font-family="Helvetica,sans-Serif" font-size="10.00">GUIUtil::TableViewLastColumn</text>
<text text-anchor="start" x="904" y="-261.037" font-family="Helvetica,sans-Serif" font-size="10.00">ResizingFixer::getAvailableWidth</text>
<text text-anchor="middle" x="977.5" y="-250.037" font-family="Helvetica,sans-Serif" font-size="10.00">ForColumn</text>
</a>
</g>
</g>
<!-- Node1&#45;&gt;Node7 -->
<g id="edge17" class="edge"><title>Node1&#45;&gt;Node7</title>
<path fill="none" stroke="midnightblue" d="M111.609,-112.816C134.754,-133.847 179.645,-171.29 225,-190.537 447.716,-285.049 739.922,-281.225 885.647,-271.733"/>
<polygon fill="midnightblue" stroke="midnightblue" points="886.141,-275.207 895.883,-271.041 885.669,-268.223 886.141,-275.207"/>
</g>
<!-- Node8 -->
<g id="node8" class="node"><title>Node8</title>
<g id="a_node8"><a xlink:href="class_g_u_i_util_1_1_table_view_last_column_resizing_fixer.html#ab01fe3dbf021a9306ec74afda41d6f45" target="_top" xlink:title="GUIUtil::TableViewLastColumn\lResizingFixer::connectViewHeaders\lSignals">
<polygon fill="white" stroke="black" points="889,-65.0369 889,-106.037 1066,-106.037 1066,-65.0369 889,-65.0369"/>
<text text-anchor="start" x="897" y="-94.0369" font-family="Helvetica,sans-Serif" font-size="10.00">GUIUtil::TableViewLastColumn</text>
<text text-anchor="start" x="897" y="-83.0369" font-family="Helvetica,sans-Serif" font-size="10.00">ResizingFixer::connectViewHeaders</text>
<text text-anchor="middle" x="977.5" y="-72.0369" font-family="Helvetica,sans-Serif" font-size="10.00">Signals</text>
</a>
</g>
</g>
<!-- Node1&#45;&gt;Node8 -->
<g id="edge18" class="edge"><title>Node1&#45;&gt;Node8</title>
<path fill="none" stroke="midnightblue" d="M146.758,-82.5161C170.512,-78.878 199.145,-75.9304 225,-74.5369 459.256,-61.9112 735.183,-68.0083 878.675,-75.8744"/>
<polygon fill="midnightblue" stroke="midnightblue" points="878.594,-79.3753 888.775,-76.4436 878.988,-72.3864 878.594,-79.3753"/>
</g>
<!-- Node3&#45;&gt;Node1 -->
<g id="edge15" class="edge"><title>Node3&#45;&gt;Node1</title>
<path fill="none" stroke="midnightblue" d="M224.927,-140.694C195.697,-132.707 164.812,-123.623 140.546,-115.775"/>
<polygon fill="midnightblue" stroke="midnightblue" points="141.507,-112.407 130.914,-112.608 139.32,-119.057 141.507,-112.407"/>
</g>
<!-- Node4 -->
<g id="node4" class="node"><title>Node4</title>
<g id="a_node4"><a xlink:href="class_g_u_i_util_1_1_table_view_last_column_resizing_fixer.html#a31422ff98c30c95c01dba5bbb8ccbcae" target="_top" xlink:title="GUIUtil::TableViewLastColumn\lResizingFixer::on_sectionResized">
<polygon fill="white" stroke="black" points="451,-158.537 451,-188.537 618,-188.537 618,-158.537 451,-158.537"/>
<text text-anchor="start" x="459" y="-176.537" font-family="Helvetica,sans-Serif" font-size="10.00">GUIUtil::TableViewLastColumn</text>
<text text-anchor="middle" x="534.5" y="-165.537" font-family="Helvetica,sans-Serif" font-size="10.00">ResizingFixer::on_sectionResized</text>
</a>
</g>
</g>
<!-- Node3&#45;&gt;Node4 -->
<g id="edge3" class="edge"><title>Node3&#45;&gt;Node4</title>
<path fill="none" stroke="midnightblue" d="M415.134,-166.296C423.579,-166.812 432.127,-167.335 440.562,-167.851"/>
<polygon fill="midnightblue" stroke="midnightblue" points="440.584,-171.359 450.779,-168.476 441.012,-164.372 440.584,-171.359"/>
</g>
<!-- Node5 -->
<g id="node5" class="node"><title>Node5</title>
<g id="a_node5"><a xlink:href="class_g_u_i_util_1_1_table_view_last_column_resizing_fixer.html#ac5622cca5767d788033fff5d54629d7f" target="_top" xlink:title="GUIUtil::TableViewLastColumn\lResizingFixer::adjustTableColumnsWidth">
<polygon fill="white" stroke="black" points="654,-202.537 654,-232.537 853,-232.537 853,-202.537 654,-202.537"/>
<text text-anchor="start" x="662" y="-220.537" font-family="Helvetica,sans-Serif" font-size="10.00">GUIUtil::TableViewLastColumn</text>
<text text-anchor="middle" x="753.5" y="-209.537" font-family="Helvetica,sans-Serif" font-size="10.00">ResizingFixer::adjustTableColumnsWidth</text>
</a>
</g>
</g>
<!-- Node4&#45;&gt;Node5 -->
<g id="edge4" class="edge"><title>Node4&#45;&gt;Node5</title>
<path fill="none" stroke="midnightblue" d="M609.572,-188.556C628.497,-192.393 648.98,-196.547 668.368,-200.478"/>
<polygon fill="midnightblue" stroke="midnightblue" points="667.897,-203.954 678.393,-202.511 669.288,-197.093 667.897,-203.954"/>
</g>
<!-- Node4&#45;&gt;Node6 -->
<g id="edge14" class="edge"><title>Node4&#45;&gt;Node6</title>
<path fill="none" stroke="midnightblue" d="M618.19,-172.974C695.763,-172.447 811.319,-171.661 890.081,-171.125"/>
<polygon fill="midnightblue" stroke="midnightblue" points="890.485,-174.622 900.46,-171.054 890.437,-167.622 890.485,-174.622"/>
</g>
<!-- Node4&#45;&gt;Node7 -->
<g id="edge13" class="edge"><title>Node4&#45;&gt;Node7</title>
<path fill="none" stroke="midnightblue" d="M555.169,-188.603C577.681,-204.908 616.321,-230.107 654,-241.537 729.699,-264.501 819.812,-268.846 885.515,-268.114"/>
<polygon fill="midnightblue" stroke="midnightblue" points="885.899,-271.608 895.844,-267.955 885.791,-264.609 885.899,-271.608"/>
</g>
<!-- Node5&#45;&gt;Node2 -->
<g id="edge12" class="edge"><title>Node5&#45;&gt;Node2</title>
<path fill="none" stroke="midnightblue" d="M853.114,-216.845C925.032,-216.34 1021.74,-215.662 1091.65,-215.171"/>
<polygon fill="midnightblue" stroke="midnightblue" points="1091.79,-218.67 1101.76,-215.1 1091.74,-211.67 1091.79,-218.67"/>
</g>
<!-- Node5&#45;&gt;Node3 -->
<g id="edge5" class="edge"><title>Node5&#45;&gt;Node3</title>
<path fill="none" stroke="midnightblue" d="M653.773,-216.23C594.597,-214.149 518.064,-209.17 451,-197.537 431.902,-194.224 411.594,-189.197 392.845,-183.907"/>
<polygon fill="midnightblue" stroke="midnightblue" points="393.776,-180.532 383.198,-181.124 391.836,-187.258 393.776,-180.532"/>
</g>
<!-- Node5&#45;&gt;Node6 -->
<g id="edge6" class="edge"><title>Node5&#45;&gt;Node6</title>
<path fill="none" stroke="midnightblue" d="M825.353,-202.537C847.681,-197.809 872.514,-192.552 895.494,-187.687"/>
<polygon fill="midnightblue" stroke="midnightblue" points="896.501,-191.051 905.559,-185.556 895.051,-184.203 896.501,-191.051"/>
</g>
<!-- Node5&#45;&gt;Node7 -->
<g id="edge7" class="edge"><title>Node5&#45;&gt;Node7</title>
<path fill="none" stroke="midnightblue" d="M827.191,-232.599C846.014,-236.499 866.512,-240.747 886.12,-244.81"/>
<polygon fill="midnightblue" stroke="midnightblue" points="885.468,-248.249 895.97,-246.851 886.888,-241.394 885.468,-248.249"/>
</g>
<!-- Node5&#45;&gt;Node8 -->
<g id="edge9" class="edge"><title>Node5&#45;&gt;Node8</title>
<path fill="none" stroke="midnightblue" d="M779.966,-202.395C817.337,-180.175 887.527,-138.44 933.122,-111.329"/>
<polygon fill="midnightblue" stroke="midnightblue" points="935.09,-114.231 941.896,-106.112 931.512,-108.214 935.09,-114.231"/>
</g>
<!-- Node7&#45;&gt;Node2 -->
<g id="edge8" class="edge"><title>Node7&#45;&gt;Node2</title>
<path fill="none" stroke="midnightblue" d="M1059.22,-244.1C1075.85,-240.095 1093.27,-235.902 1109.59,-231.973"/>
<polygon fill="midnightblue" stroke="midnightblue" points="1110.69,-235.309 1119.59,-229.565 1109.05,-228.503 1110.69,-235.309"/>
</g>
<!-- Node8&#45;&gt;Node1 -->
<g id="edge11" class="edge"><title>Node8&#45;&gt;Node1</title>
<path fill="none" stroke="midnightblue" d="M888.775,-87.7465C748.451,-86.3117 464.878,-79.6082 225,-92.5369 216.642,-92.9874 207.993,-93.6003 199.312,-94.292"/>
<polygon fill="midnightblue" stroke="midnightblue" points="198.801,-90.8223 189.123,-95.1353 199.378,-97.7985 198.801,-90.8223"/>
</g>
<!-- Node8&#45;&gt;Node4 -->
<g id="edge10" class="edge"><title>Node8&#45;&gt;Node4</title>
<path fill="none" stroke="midnightblue" d="M888.998,-102.998C811.206,-118.521 698.155,-141.08 620.981,-156.479"/>
<polygon fill="midnightblue" stroke="midnightblue" points="619.931,-153.12 610.81,-158.509 621.301,-159.985 619.931,-153.12"/>
</g>
</g>
</svg>
