<?xml version="1.0" encoding="UTF-8" standalone="no"?>
<!DOCTYPE svg PUBLIC "-//W3C//DTD SVG 1.1//EN"
 "http://www.w3.org/Graphics/SVG/1.1/DTD/svg11.dtd">
<!-- Generated by graphviz version 2.38.0 (20140413.2041)
 -->
<!-- Title: payments::PaymentDetails::Clear Pages: 1 -->
<svg width="314pt" height="235pt"
 viewBox="0.00 0.00 314.00 235.00" xmlns="http://www.w3.org/2000/svg" xmlns:xlink="http://www.w3.org/1999/xlink">
<g id="graph0" class="graph" transform="scale(1 1) rotate(0) translate(4 231)">
<title>payments::PaymentDetails::Clear</title>
<polygon fill="white" stroke="none" points="-4,4 -4,-231 310,-231 310,4 -4,4"/>
<!-- Node1 -->
<g id="node1" class="node"><title>Node1</title>
<polygon fill="#bfbfbf" stroke="black" points="0,-98.5 0,-128.5 135,-128.5 135,-98.5 0,-98.5"/>
<text text-anchor="start" x="8" y="-116.5" font-family="Helvetica,sans-Serif" font-size="10.00">payments::PaymentDetails</text>
<text text-anchor="middle" x="67.5" y="-105.5" font-family="Helvetica,sans-Serif" font-size="10.00">::Clear</text>
</g>
<!-- Node2 -->
<g id="node2" class="node"><title>Node2</title>
<g id="a_node2"><a xlink:href="classpayments_1_1_payment_details.html#a37753487290845bfa96db5d9a1b682e4" target="_top" xlink:title="payments::PaymentDetails\l::has_network">
<polygon fill="white" stroke="black" points="171,-196.5 171,-226.5 306,-226.5 306,-196.5 171,-196.5"/>
<text text-anchor="start" x="179" y="-214.5" font-family="Helvetica,sans-Serif" font-size="10.00">payments::PaymentDetails</text>
<text text-anchor="middle" x="238.5" y="-203.5" font-family="Helvetica,sans-Serif" font-size="10.00">::has_network</text>
</a>
</g>
</g>
<!-- Node1&#45;&gt;Node2 -->
<g id="edge1" class="edge"><title>Node1&#45;&gt;Node2</title>
<path fill="none" stroke="midnightblue" d="M86.3665,-128.79C106.056,-145.05 139.17,-170.692 171,-187.5 174.287,-189.235 177.726,-190.896 181.237,-192.476"/>
<polygon fill="midnightblue" stroke="midnightblue" points="180.064,-195.78 190.637,-196.462 182.797,-189.336 180.064,-195.78"/>
</g>
<!-- Node3 -->
<g id="node3" class="node"><title>Node3</title>
<g id="a_node3"><a xlink:href="classpayments_1_1_payment_details.html#a5761b562e4f230a0c6970d572049c2a7" target="_top" xlink:title="payments::PaymentDetails\l::has_memo">
<polygon fill="white" stroke="black" points="171,-147.5 171,-177.5 306,-177.5 306,-147.5 171,-147.5"/>
<text text-anchor="start" x="179" y="-165.5" font-family="Helvetica,sans-Serif" font-size="10.00">payments::PaymentDetails</text>
<text text-anchor="middle" x="238.5" y="-154.5" font-family="Helvetica,sans-Serif" font-size="10.00">::has_memo</text>
</a>
</g>
</g>
<!-- Node1&#45;&gt;Node3 -->
<g id="edge2" class="edge"><title>Node1&#45;&gt;Node3</title>
<path fill="none" stroke="midnightblue" d="M120.585,-128.601C138.095,-133.679 157.795,-139.39 175.962,-144.658"/>
<polygon fill="midnightblue" stroke="midnightblue" points="175.008,-148.025 185.587,-147.448 176.958,-141.302 175.008,-148.025"/>
</g>
<!-- Node4 -->
<g id="node4" class="node"><title>Node4</title>
<g id="a_node4"><a xlink:href="classpayments_1_1_payment_details.html#a3ae4b2d07c7e300ff7df1fba6861d17e" target="_top" xlink:title="payments::PaymentDetails\l::has_payment_url">
<polygon fill="white" stroke="black" points="171,-98.5 171,-128.5 306,-128.5 306,-98.5 171,-98.5"/>
<text text-anchor="start" x="179" y="-116.5" font-family="Helvetica,sans-Serif" font-size="10.00">payments::PaymentDetails</text>
<text text-anchor="middle" x="238.5" y="-105.5" font-family="Helvetica,sans-Serif" font-size="10.00">::has_payment_url</text>
</a>
</g>
</g>
<!-- Node1&#45;&gt;Node4 -->
<g id="edge3" class="edge"><title>Node1&#45;&gt;Node4</title>
<path fill="none" stroke="midnightblue" d="M135.293,-113.5C143.624,-113.5 152.194,-113.5 160.661,-113.5"/>
<polygon fill="midnightblue" stroke="midnightblue" points="160.915,-117 170.915,-113.5 160.915,-110 160.915,-117"/>
</g>
<!-- Node5 -->
<g id="node5" class="node"><title>Node5</title>
<g id="a_node5"><a xlink:href="classpayments_1_1_payment_details.html#a12744e044be922a0e243b87d2fadf2d9" target="_top" xlink:title="payments::PaymentDetails\l::has_merchant_data">
<polygon fill="white" stroke="black" points="171,-49.5 171,-79.5 306,-79.5 306,-49.5 171,-49.5"/>
<text text-anchor="start" x="179" y="-67.5" font-family="Helvetica,sans-Serif" font-size="10.00">payments::PaymentDetails</text>
<text text-anchor="middle" x="238.5" y="-56.5" font-family="Helvetica,sans-Serif" font-size="10.00">::has_merchant_data</text>
</a>
</g>
</g>
<!-- Node1&#45;&gt;Node5 -->
<g id="edge4" class="edge"><title>Node1&#45;&gt;Node5</title>
<path fill="none" stroke="midnightblue" d="M120.585,-98.3986C138.095,-93.3215 157.795,-87.6098 175.962,-82.3423"/>
<polygon fill="midnightblue" stroke="midnightblue" points="176.958,-85.6979 185.587,-79.5516 175.008,-78.9748 176.958,-85.6979"/>
</g>
<!-- Node6 -->
<g id="node6" class="node"><title>Node6</title>
<g id="a_node6"><a xlink:href="classpayments_1_1_payment_details.html#a5d58007a4d15c0c696680e01a090aded" target="_top" xlink:title="payments::PaymentDetails\l::mutable_unknown_fields">
<polygon fill="white" stroke="black" points="171,-0.5 171,-30.5 306,-30.5 306,-0.5 171,-0.5"/>
<text text-anchor="start" x="179" y="-18.5" font-family="Helvetica,sans-Serif" font-size="10.00">payments::PaymentDetails</text>
<text text-anchor="middle" x="238.5" y="-7.5" font-family="Helvetica,sans-Serif" font-size="10.00">::mutable_unknown_fields</text>
</a>
</g>
</g>
<!-- Node1&#45;&gt;Node6 -->
<g id="edge5" class="edge"><title>Node1&#45;&gt;Node6</title>
<path fill="none" stroke="midnightblue" d="M86.8084,-98.2233C106.607,-82.254 139.567,-57.235 171,-40.5 174.902,-38.4224 179.016,-36.4365 183.204,-34.5573"/>
<polygon fill="midnightblue" stroke="midnightblue" points="184.615,-37.7608 192.442,-30.6198 181.87,-31.3214 184.615,-37.7608"/>
</g>
</g>
</svg>
