<?xml version="1.0" encoding="UTF-8" standalone="no"?>
<!DOCTYPE svg PUBLIC "-//W3C//DTD SVG 1.1//EN"
 "http://www.w3.org/Graphics/SVG/1.1/DTD/svg11.dtd">
<!-- Generated by graphviz version 2.38.0 (20140413.2041)
 -->
<!-- Title: UnitDisplayStatusBarControl::UnitDisplayStatusBarControl Pages: 1 -->
<svg width="699pt" height="176pt"
 viewBox="0.00 0.00 699.00 176.00" xmlns="http://www.w3.org/2000/svg" xmlns:xlink="http://www.w3.org/1999/xlink">
<g id="graph0" class="graph" transform="scale(1 1) rotate(0) translate(4 172)">
<title>UnitDisplayStatusBarControl::UnitDisplayStatusBarControl</title>
<polygon fill="white" stroke="none" points="-4,4 -4,-172 695,-172 695,4 -4,4"/>
<!-- Node1 -->
<g id="node1" class="node"><title>Node1</title>
<polygon fill="#bfbfbf" stroke="black" points="0,-71.5 0,-101.5 149,-101.5 149,-71.5 0,-71.5"/>
<text text-anchor="start" x="8" y="-89.5" font-family="Helvetica,sans-Serif" font-size="10.00">UnitDisplayStatusBarControl</text>
<text text-anchor="middle" x="74.5" y="-78.5" font-family="Helvetica,sans-Serif" font-size="10.00">::UnitDisplayStatusBarControl</text>
</g>
<!-- Node2 -->
<g id="node2" class="node"><title>Node2</title>
<g id="a_node2"><a xlink:href="class_unit_display_status_bar_control.html#a3d131e977c2e9095d05d362d456a0e47" target="_top" xlink:title="Creates context menu, its actions, and wires up all the relevant signals for mouse events...">
<polygon fill="white" stroke="black" points="185,-71.5 185,-101.5 328,-101.5 328,-71.5 185,-71.5"/>
<text text-anchor="start" x="193" y="-89.5" font-family="Helvetica,sans-Serif" font-size="10.00">UnitDisplayStatusBarControl</text>
<text text-anchor="middle" x="256.5" y="-78.5" font-family="Helvetica,sans-Serif" font-size="10.00">::createContextMenu</text>
</a>
</g>
</g>
<!-- Node1&#45;&gt;Node2 -->
<g id="edge1" class="edge"><title>Node1&#45;&gt;Node2</title>
<path fill="none" stroke="midnightblue" d="M149.232,-86.5C157.584,-86.5 166.129,-86.5 174.567,-86.5"/>
<polygon fill="midnightblue" stroke="midnightblue" points="174.786,-90.0001 184.786,-86.5 174.786,-83.0001 174.786,-90.0001"/>
</g>
<!-- Node3 -->
<g id="node3" class="node"><title>Node3</title>
<g id="a_node3"><a xlink:href="class_anoncoin_units.html#a1bb6101ca39bc95a54d4401f40d5f151" target="_top" xlink:title="Get list of units, for drop&#45;down box. ">
<polygon fill="white" stroke="black" points="372.5,-137.5 372.5,-167.5 498.5,-167.5 498.5,-137.5 372.5,-137.5"/>
<text text-anchor="start" x="380.5" y="-155.5" font-family="Helvetica,sans-Serif" font-size="10.00">AnoncoinUnits::available</text>
<text text-anchor="middle" x="435.5" y="-144.5" font-family="Helvetica,sans-Serif" font-size="10.00">Units</text>
</a>
</g>
</g>
<!-- Node2&#45;&gt;Node3 -->
<g id="edge2" class="edge"><title>Node2&#45;&gt;Node3</title>
<path fill="none" stroke="midnightblue" d="M295.857,-101.551C316.079,-109.414 341.329,-119.118 364,-127.5 369.835,-129.657 375.955,-131.883 382.049,-134.075"/>
<polygon fill="midnightblue" stroke="midnightblue" points="380.965,-137.405 391.56,-137.479 383.324,-130.814 380.965,-137.405"/>
</g>
<!-- Node4 -->
<g id="node4" class="node"><title>Node4</title>
<g id="a_node4"><a xlink:href="class_anoncoin_units.html#ad83d732db7699510db372a5c17590fba" target="_top" xlink:title="Short name. ">
<polygon fill="white" stroke="black" points="379.5,-99 379.5,-118 491.5,-118 491.5,-99 379.5,-99"/>
<text text-anchor="middle" x="435.5" y="-106" font-family="Helvetica,sans-Serif" font-size="10.00">AnoncoinUnits::name</text>
</a>
</g>
</g>
<!-- Node2&#45;&gt;Node4 -->
<g id="edge3" class="edge"><title>Node2&#45;&gt;Node4</title>
<path fill="none" stroke="midnightblue" d="M328.218,-95.2898C341.8,-96.9779 355.964,-98.7385 369.36,-100.403"/>
<polygon fill="midnightblue" stroke="midnightblue" points="369.076,-103.895 379.431,-101.655 369.939,-96.9484 369.076,-103.895"/>
</g>
<!-- Node5 -->
<g id="node5" class="node"><title>Node5</title>
<g id="a_node5"><a xlink:href="class_unit_display_status_bar_control.html#a8989bed2d30e0e376046356adc216a12" target="_top" xlink:title="Tells underlying optionsModel to update its current display unit. ">
<polygon fill="white" stroke="black" points="364,-49.5 364,-79.5 507,-79.5 507,-49.5 364,-49.5"/>
<text text-anchor="start" x="372" y="-67.5" font-family="Helvetica,sans-Serif" font-size="10.00">UnitDisplayStatusBarControl</text>
<text text-anchor="middle" x="435.5" y="-56.5" font-family="Helvetica,sans-Serif" font-size="10.00">::onMenuSelection</text>
</a>
</g>
</g>
<!-- Node2&#45;&gt;Node5 -->
<g id="edge4" class="edge"><title>Node2&#45;&gt;Node5</title>
<path fill="none" stroke="midnightblue" d="M328.218,-77.7102C336.662,-76.6607 345.331,-75.5832 353.9,-74.5181"/>
<polygon fill="midnightblue" stroke="midnightblue" points="354.402,-77.9827 363.894,-73.2759 353.539,-71.0361 354.402,-77.9827"/>
</g>
<!-- Node7 -->
<g id="node7" class="node"><title>Node7</title>
<g id="a_node7"><a xlink:href="class_unit_display_status_bar_control.html#ae9eeb30020311515b4b8d85a460fb596" target="_top" xlink:title="Shows context menu with Display Unit options by the mouse coordinates. ">
<polygon fill="white" stroke="black" points="364,-0.5 364,-30.5 507,-30.5 507,-0.5 364,-0.5"/>
<text text-anchor="start" x="372" y="-18.5" font-family="Helvetica,sans-Serif" font-size="10.00">UnitDisplayStatusBarControl</text>
<text text-anchor="middle" x="435.5" y="-7.5" font-family="Helvetica,sans-Serif" font-size="10.00">::onDisplayUnitsClicked</text>
</a>
</g>
</g>
<!-- Node2&#45;&gt;Node7 -->
<g id="edge6" class="edge"><title>Node2&#45;&gt;Node7</title>
<path fill="none" stroke="midnightblue" d="M290.838,-71.4185C311.713,-62.1452 339.255,-50.219 364,-40.5 369.498,-38.3406 375.268,-36.1594 381.039,-34.0322"/>
<polygon fill="midnightblue" stroke="midnightblue" points="382.504,-37.2237 390.706,-30.5168 380.112,-30.6452 382.504,-37.2237"/>
</g>
<!-- Node6 -->
<g id="node6" class="node"><title>Node6</title>
<g id="a_node6"><a xlink:href="class_options_model.html#a42efacc748130848acc20247a7ed4617" target="_top" xlink:title="Updates current unit in memory, settings and emits displayUnitChanged(newUnit) signal. ">
<polygon fill="white" stroke="black" points="543,-55 543,-74 691,-74 691,-55 543,-55"/>
<text text-anchor="middle" x="617" y="-62" font-family="Helvetica,sans-Serif" font-size="10.00">OptionsModel::setDisplayUnit</text>
</a>
</g>
</g>
<!-- Node5&#45;&gt;Node6 -->
<g id="edge5" class="edge"><title>Node5&#45;&gt;Node6</title>
<path fill="none" stroke="midnightblue" d="M507.185,-64.5C515.486,-64.5 524.014,-64.5 532.468,-64.5"/>
<polygon fill="midnightblue" stroke="midnightblue" points="532.723,-68.0001 542.723,-64.5 532.723,-61.0001 532.723,-68.0001"/>
</g>
</g>
</svg>
