<?xml version="1.0" encoding="UTF-8" standalone="no"?>
<!DOCTYPE svg PUBLIC "-//W3C//DTD SVG 1.1//EN"
 "http://www.w3.org/Graphics/SVG/1.1/DTD/svg11.dtd">
<!-- Generated by graphviz version 2.38.0 (20140413.2041)
 -->
<!-- Title: COutPoint::IsNull Pages: 1 -->
<svg width="1346pt" height="427pt"
 viewBox="0.00 0.00 1346.00 427.00" xmlns="http://www.w3.org/2000/svg" xmlns:xlink="http://www.w3.org/1999/xlink">
<g id="graph0" class="graph" transform="scale(1 1) rotate(0) translate(4 423)">
<title>COutPoint::IsNull</title>
<polygon fill="white" stroke="none" points="-4,4 -4,-423 1342,-423 1342,4 -4,4"/>
<!-- Node1 -->
<g id="node1" class="node"><title>Node1</title>
<polygon fill="#bfbfbf" stroke="black" points="0,-265.5 0,-284.5 93,-284.5 93,-265.5 0,-265.5"/>
<text text-anchor="middle" x="46.5" y="-272.5" font-family="Helvetica,sans-Serif" font-size="10.00">COutPoint::IsNull</text>
</g>
<!-- Node2 -->
<g id="node2" class="node"><title>Node2</title>
<g id="a_node2"><a xlink:href="class_c_tx_in.html#aeac9b3abd4b2d81e9ec4401d1383778d" target="_top" xlink:title="CTxIn::ToString">
<polygon fill="white" stroke="black" points="134,-298.5 134,-317.5 221,-317.5 221,-298.5 134,-298.5"/>
<text text-anchor="middle" x="177.5" y="-305.5" font-family="Helvetica,sans-Serif" font-size="10.00">CTxIn::ToString</text>
</a>
</g>
</g>
<!-- Node1&#45;&gt;Node2 -->
<g id="edge1" class="edge"><title>Node1&#45;&gt;Node2</title>
<path fill="none" stroke="midnightblue" d="M94.7275,-287.081C109.407,-290.837 125.374,-294.921 139.272,-298.476"/>
<polygon fill="midnightblue" stroke="midnightblue" points="95.3676,-283.633 84.8121,-284.545 93.6327,-290.414 95.3676,-283.633"/>
</g>
<!-- Node4 -->
<g id="node4" class="node"><title>Node4</title>
<g id="a_node4"><a xlink:href="main_8h.html#a3d8c4ba3a0c2b7a05cab21c95a886fbe" target="_top" xlink:title="CheckTransaction">
<polygon fill="white" stroke="black" points="129,-232.5 129,-251.5 226,-251.5 226,-232.5 129,-232.5"/>
<text text-anchor="middle" x="177.5" y="-239.5" font-family="Helvetica,sans-Serif" font-size="10.00">CheckTransaction</text>
</a>
</g>
</g>
<!-- Node1&#45;&gt;Node4 -->
<g id="edge3" class="edge"><title>Node1&#45;&gt;Node4</title>
<path fill="none" stroke="midnightblue" d="M94.7275,-262.919C109.407,-259.163 125.374,-255.079 139.272,-251.524"/>
<polygon fill="midnightblue" stroke="midnightblue" points="93.6327,-259.586 84.8121,-265.455 95.3676,-266.367 93.6327,-259.586"/>
</g>
<!-- Node3 -->
<g id="node3" class="node"><title>Node3</title>
<g id="a_node3"><a xlink:href="class_c_tx_in.html#ac32956acf9a396463cb56d249068d2b1" target="_top" xlink:title="CTxIn::print">
<polygon fill="white" stroke="black" points="285.5,-313.5 285.5,-332.5 353.5,-332.5 353.5,-313.5 285.5,-313.5"/>
<text text-anchor="middle" x="319.5" y="-320.5" font-family="Helvetica,sans-Serif" font-size="10.00">CTxIn::print</text>
</a>
</g>
</g>
<!-- Node2&#45;&gt;Node3 -->
<g id="edge2" class="edge"><title>Node2&#45;&gt;Node3</title>
<path fill="none" stroke="midnightblue" d="M231.406,-313.669C249.505,-315.608 269.229,-317.721 285.322,-319.445"/>
<polygon fill="midnightblue" stroke="midnightblue" points="231.581,-310.167 221.265,-312.582 230.836,-317.128 231.581,-310.167"/>
</g>
<!-- Node5 -->
<g id="node5" class="node"><title>Node5</title>
<g id="a_node5"><a xlink:href="main_8h.html#a1032f75235456abfa96b63e34e7ee2cc" target="_top" xlink:title="(try to) add transaction to memory pool ">
<polygon fill="white" stroke="black" points="262,-95.5 262,-114.5 377,-114.5 377,-95.5 262,-95.5"/>
<text text-anchor="middle" x="319.5" y="-102.5" font-family="Helvetica,sans-Serif" font-size="10.00">AcceptToMemoryPool</text>
</a>
</g>
</g>
<!-- Node4&#45;&gt;Node5 -->
<g id="edge4" class="edge"><title>Node4&#45;&gt;Node5</title>
<path fill="none" stroke="midnightblue" d="M195.737,-225.132C225.333,-196.17 284.903,-137.877 308.523,-114.763"/>
<polygon fill="midnightblue" stroke="midnightblue" points="193.268,-222.652 188.568,-232.147 198.164,-227.655 193.268,-222.652"/>
</g>
<!-- Node18 -->
<g id="node18" class="node"><title>Node18</title>
<g id="a_node18"><a xlink:href="main_8h.html#afbaa5058f820d623e6a36f39da4fe484" target="_top" xlink:title="CheckBlock">
<polygon fill="white" stroke="black" points="285,-275.5 285,-294.5 354,-294.5 354,-275.5 285,-275.5"/>
<text text-anchor="middle" x="319.5" y="-282.5" font-family="Helvetica,sans-Serif" font-size="10.00">CheckBlock</text>
</a>
</g>
</g>
<!-- Node4&#45;&gt;Node18 -->
<g id="edge17" class="edge"><title>Node4&#45;&gt;Node18</title>
<path fill="none" stroke="midnightblue" d="M219.218,-254.506C241.008,-261.199 267.415,-269.31 287.516,-275.484"/>
<polygon fill="midnightblue" stroke="midnightblue" points="220.157,-251.133 209.571,-251.543 218.102,-257.825 220.157,-251.133"/>
</g>
<!-- Node28 -->
<g id="node28" class="node"><title>Node28</title>
<g id="a_node28"><a xlink:href="walletdb_8cpp.html#ad1f171cf096f5479805a06fc20480343" target="_top" xlink:title="ReadKeyValue">
<polygon fill="white" stroke="black" points="456,-209.5 456,-228.5 539,-228.5 539,-209.5 456,-209.5"/>
<text text-anchor="middle" x="497.5" y="-216.5" font-family="Helvetica,sans-Serif" font-size="10.00">ReadKeyValue</text>
</a>
</g>
</g>
<!-- Node4&#45;&gt;Node28 -->
<g id="edge30" class="edge"><title>Node4&#45;&gt;Node28</title>
<path fill="none" stroke="midnightblue" d="M236.345,-237.816C299.772,-233.229 399.923,-225.985 455.649,-221.955"/>
<polygon fill="midnightblue" stroke="midnightblue" points="235.829,-234.344 226.108,-238.557 236.334,-241.326 235.829,-234.344"/>
</g>
<!-- Node6 -->
<g id="node6" class="node"><title>Node6</title>
<g id="a_node6"><a xlink:href="class_c_merkle_tx.html#a032705bde1c536cd1b14f01f914e12f0" target="_top" xlink:title="CMerkleTx::AcceptToMemoryPool">
<polygon fill="white" stroke="black" points="413,-95.5 413,-114.5 582,-114.5 582,-95.5 413,-95.5"/>
<text text-anchor="middle" x="497.5" y="-102.5" font-family="Helvetica,sans-Serif" font-size="10.00">CMerkleTx::AcceptToMemoryPool</text>
</a>
</g>
</g>
<!-- Node5&#45;&gt;Node6 -->
<g id="edge5" class="edge"><title>Node5&#45;&gt;Node6</title>
<path fill="none" stroke="midnightblue" d="M387.182,-105C395.531,-105 404.151,-105 412.718,-105"/>
<polygon fill="midnightblue" stroke="midnightblue" points="387.156,-101.5 377.156,-105 387.156,-108.5 387.156,-101.5"/>
</g>
<!-- Node17 -->
<g id="node17" class="node"><title>Node17</title>
<g id="a_node17"><a xlink:href="rpcrawtransaction_8cpp.html#ad5aad44f890060f42efb49acf349511e" target="_top" xlink:title="sendrawtransaction">
<polygon fill="white" stroke="black" points="446,-57.5 446,-76.5 549,-76.5 549,-57.5 446,-57.5"/>
<text text-anchor="middle" x="497.5" y="-64.5" font-family="Helvetica,sans-Serif" font-size="10.00">sendrawtransaction</text>
</a>
</g>
</g>
<!-- Node5&#45;&gt;Node17 -->
<g id="edge16" class="edge"><title>Node5&#45;&gt;Node17</title>
<path fill="none" stroke="midnightblue" d="M374.933,-93.2474C399.819,-87.8742 428.919,-81.5914 452.407,-76.5201"/>
<polygon fill="midnightblue" stroke="midnightblue" points="373.948,-89.8793 364.912,-95.411 375.426,-96.7216 373.948,-89.8793"/>
</g>
<!-- Node7 -->
<g id="node7" class="node"><title>Node7</title>
<g id="a_node7"><a xlink:href="class_c_wallet.html#a796c23450c8482e10e0c75ae5c1fa8ed" target="_top" xlink:title="CWallet::ReacceptWalletTransactions">
<polygon fill="white" stroke="black" points="618,-95.5 618,-114.5 802,-114.5 802,-95.5 618,-95.5"/>
<text text-anchor="middle" x="710" y="-102.5" font-family="Helvetica,sans-Serif" font-size="10.00">CWallet::ReacceptWalletTransactions</text>
</a>
</g>
</g>
<!-- Node6&#45;&gt;Node7 -->
<g id="edge6" class="edge"><title>Node6&#45;&gt;Node7</title>
<path fill="none" stroke="midnightblue" d="M592.519,-105C600.948,-105 609.475,-105 617.879,-105"/>
<polygon fill="midnightblue" stroke="midnightblue" points="592.3,-101.5 582.3,-105 592.3,-108.5 592.3,-101.5"/>
</g>
<!-- Node13 -->
<g id="node13" class="node"><title>Node13</title>
<g id="a_node13"><a xlink:href="class_c_wallet.html#ac30e619488120651a6753195b77f3ad8" target="_top" xlink:title="CWallet::CommitTransaction">
<polygon fill="white" stroke="black" points="638,-38.5 638,-57.5 782,-57.5 782,-38.5 638,-38.5"/>
<text text-anchor="middle" x="710" y="-45.5" font-family="Helvetica,sans-Serif" font-size="10.00">CWallet::CommitTransaction</text>
</a>
</g>
</g>
<!-- Node6&#45;&gt;Node13 -->
<g id="edge12" class="edge"><title>Node6&#45;&gt;Node13</title>
<path fill="none" stroke="midnightblue" d="M552.838,-93.1909C562.575,-90.9168 572.609,-88.4703 582,-86 615.497,-77.1882 653.502,-65.6037 679.138,-57.5522"/>
<polygon fill="midnightblue" stroke="midnightblue" points="551.797,-89.8389 542.836,-95.4921 553.366,-96.6606 551.797,-89.8389"/>
</g>
<!-- Node8 -->
<g id="node8" class="node"><title>Node8</title>
<g id="a_node8"><a xlink:href="init_8h.html#a1a4c1bfbf6ba1db77e988b89b9cadfd3" target="_top" xlink:title="Initialize anoncoin. ">
<polygon fill="white" stroke="black" points="1026.5,-228.5 1026.5,-247.5 1079.5,-247.5 1079.5,-228.5 1026.5,-228.5"/>
<text text-anchor="middle" x="1053" y="-235.5" font-family="Helvetica,sans-Serif" font-size="10.00">AppInit2</text>
</a>
</g>
</g>
<!-- Node7&#45;&gt;Node8 -->
<g id="edge7" class="edge"><title>Node7&#45;&gt;Node8</title>
<path fill="none" stroke="midnightblue" d="M812.296,-105.336C860.002,-109.15 916.32,-119.141 962,-143 1001.67,-163.721 1033.58,-208.808 1046.18,-228.49"/>
<polygon fill="midnightblue" stroke="midnightblue" points="812.479,-101.84 802.253,-104.613 811.976,-108.822 812.479,-101.84"/>
</g>
<!-- Node12 -->
<g id="node12" class="node"><title>Node12</title>
<g id="a_node12"><a xlink:href="rpcdump_8cpp.html#a457bc572859c8265c72a0afd1a6db56c" target="_top" xlink:title="importaddress">
<polygon fill="white" stroke="black" points="860,-76.5 860,-95.5 940,-95.5 940,-76.5 860,-76.5"/>
<text text-anchor="middle" x="900" y="-83.5" font-family="Helvetica,sans-Serif" font-size="10.00">importaddress</text>
</a>
</g>
</g>
<!-- Node7&#45;&gt;Node12 -->
<g id="edge11" class="edge"><title>Node7&#45;&gt;Node12</title>
<path fill="none" stroke="midnightblue" d="M812.662,-94.7256C829.353,-93.0387 845.72,-91.3846 859.639,-89.978"/>
<polygon fill="midnightblue" stroke="midnightblue" points="811.844,-91.2904 802.246,-95.7783 812.548,-98.2549 811.844,-91.2904"/>
</g>
<!-- Node9 -->
<g id="node9" class="node"><title>Node9</title>
<g id="a_node9"><a xlink:href="anoncoind_8cpp.html#ac59316b767e6984e1285f0531275286b" target="_top" xlink:title="AppInit">
<polygon fill="white" stroke="black" points="1180,-247.5 1180,-266.5 1228,-266.5 1228,-247.5 1180,-247.5"/>
<text text-anchor="middle" x="1204" y="-254.5" font-family="Helvetica,sans-Serif" font-size="10.00">AppInit</text>
</a>
</g>
</g>
<!-- Node8&#45;&gt;Node9 -->
<g id="edge8" class="edge"><title>Node8&#45;&gt;Node9</title>
<path fill="none" stroke="midnightblue" d="M1089.76,-242.56C1117.65,-246.117 1155.58,-250.953 1179.68,-254.026"/>
<polygon fill="midnightblue" stroke="midnightblue" points="1089.98,-239.059 1079.61,-241.266 1089.09,-246.003 1089.98,-239.059"/>
</g>
<!-- Node11 -->
<g id="node11" class="node"><title>Node11</title>
<g id="a_node11"><a xlink:href="class_anoncoin_coin.html#a9510881824d283404ac43414dbb74586" target="_top" xlink:title="AnoncoinCoin::initialize">
<polygon fill="white" stroke="black" points="1144,-209.5 1144,-228.5 1264,-228.5 1264,-209.5 1144,-209.5"/>
<text text-anchor="middle" x="1204" y="-216.5" font-family="Helvetica,sans-Serif" font-size="10.00">AnoncoinCoin::initialize</text>
</a>
</g>
</g>
<!-- Node8&#45;&gt;Node11 -->
<g id="edge10" class="edge"><title>Node8&#45;&gt;Node11</title>
<path fill="none" stroke="midnightblue" d="M1089.71,-233.447C1105.88,-231.384 1125.44,-228.89 1143.73,-226.558"/>
<polygon fill="midnightblue" stroke="midnightblue" points="1089.09,-229.997 1079.61,-234.734 1089.98,-236.941 1089.09,-229.997"/>
</g>
<!-- Node10 -->
<g id="node10" class="node"><title>Node10</title>
<g id="a_node10"><a xlink:href="anoncoind_8cpp.html#a0ddf1224851353fc92bfbff6f499fa97" target="_top" xlink:title="main">
<polygon fill="white" stroke="black" points="1300,-247.5 1300,-266.5 1338,-266.5 1338,-247.5 1300,-247.5"/>
<text text-anchor="middle" x="1319" y="-254.5" font-family="Helvetica,sans-Serif" font-size="10.00">main</text>
</a>
</g>
</g>
<!-- Node9&#45;&gt;Node10 -->
<g id="edge9" class="edge"><title>Node9&#45;&gt;Node10</title>
<path fill="none" stroke="midnightblue" d="M1238.15,-257C1258.25,-257 1283.13,-257 1299.73,-257"/>
<polygon fill="midnightblue" stroke="midnightblue" points="1238.14,-253.5 1228.14,-257 1238.14,-260.5 1238.14,-253.5"/>
</g>
<!-- Node14 -->
<g id="node14" class="node"><title>Node14</title>
<g id="a_node14"><a xlink:href="class_wallet_model.html#a53443aca544c824550f21e5f87e4ec39" target="_top" xlink:title="WalletModel::sendCoins">
<polygon fill="white" stroke="black" points="838,-38.5 838,-57.5 962,-57.5 962,-38.5 838,-38.5"/>
<text text-anchor="middle" x="900" y="-45.5" font-family="Helvetica,sans-Serif" font-size="10.00">WalletModel::sendCoins</text>
</a>
</g>
</g>
<!-- Node13&#45;&gt;Node14 -->
<g id="edge13" class="edge"><title>Node13&#45;&gt;Node14</title>
<path fill="none" stroke="midnightblue" d="M792.099,-48C807.484,-48 823.338,-48 837.972,-48"/>
<polygon fill="midnightblue" stroke="midnightblue" points="792.075,-44.5001 782.075,-48 792.075,-51.5001 792.075,-44.5001"/>
</g>
<!-- Node16 -->
<g id="node16" class="node"><title>Node16</title>
<g id="a_node16"><a xlink:href="rpcwallet_8cpp.html#adeb5f23f20fb4e589dab23cadf75c92d" target="_top" xlink:title="sendmany">
<polygon fill="white" stroke="black" points="868.5,-0.5 868.5,-19.5 931.5,-19.5 931.5,-0.5 868.5,-0.5"/>
<text text-anchor="middle" x="900" y="-7.5" font-family="Helvetica,sans-Serif" font-size="10.00">sendmany</text>
</a>
</g>
</g>
<!-- Node13&#45;&gt;Node16 -->
<g id="edge15" class="edge"><title>Node13&#45;&gt;Node16</title>
<path fill="none" stroke="midnightblue" d="M768.411,-36.3957C801.345,-29.7388 841.38,-21.6467 868.37,-16.1913"/>
<polygon fill="midnightblue" stroke="midnightblue" points="767.549,-32.9991 758.44,-38.411 768.936,-39.8603 767.549,-32.9991"/>
</g>
<!-- Node15 -->
<g id="node15" class="node"><title>Node15</title>
<g id="a_node15"><a xlink:href="class_send_coins_dialog.html#a2cab7cf9ea5040b9e2189297f7d3c764" target="_top" xlink:title="SendCoinsDialog::on\l_sendButton_clicked">
<polygon fill="white" stroke="black" points="998,-33 998,-63 1108,-63 1108,-33 998,-33"/>
<text text-anchor="start" x="1006" y="-51" font-family="Helvetica,sans-Serif" font-size="10.00">SendCoinsDialog::on</text>
<text text-anchor="middle" x="1053" y="-40" font-family="Helvetica,sans-Serif" font-size="10.00">_sendButton_clicked</text>
</a>
</g>
</g>
<!-- Node14&#45;&gt;Node15 -->
<g id="edge14" class="edge"><title>Node14&#45;&gt;Node15</title>
<path fill="none" stroke="midnightblue" d="M972.424,-48C980.997,-48 989.642,-48 997.912,-48"/>
<polygon fill="midnightblue" stroke="midnightblue" points="972.418,-44.5001 962.417,-48 972.417,-51.5001 972.418,-44.5001"/>
</g>
<!-- Node19 -->
<g id="node19" class="node"><title>Node19</title>
<g id="a_node19"><a xlink:href="main_8h.html#ae478a2e37bd5c3ac735f30cc12cc7f8b" target="_top" xlink:title="ConnectBlock">
<polygon fill="white" stroke="black" points="458.5,-323.5 458.5,-342.5 536.5,-342.5 536.5,-323.5 458.5,-323.5"/>
<text text-anchor="middle" x="497.5" y="-330.5" font-family="Helvetica,sans-Serif" font-size="10.00">ConnectBlock</text>
</a>
</g>
</g>
<!-- Node18&#45;&gt;Node19 -->
<g id="edge18" class="edge"><title>Node18&#45;&gt;Node19</title>
<path fill="none" stroke="midnightblue" d="M363.833,-296.818C393.935,-305.028 433.526,-315.825 461.601,-323.482"/>
<polygon fill="midnightblue" stroke="midnightblue" points="364.587,-293.396 354.019,-294.141 362.745,-300.149 364.587,-293.396"/>
</g>
<!-- Node20 -->
<g id="node20" class="node"><title>Node20</title>
<g id="a_node20"><a xlink:href="main_8h.html#abfcd613b1eaa02bc626b1c3cb098fc4a" target="_top" xlink:title="Verify consistency of the block and coin databases. ">
<polygon fill="white" stroke="black" points="682,-361.5 682,-380.5 738,-380.5 738,-361.5 682,-361.5"/>
<text text-anchor="middle" x="710" y="-368.5" font-family="Helvetica,sans-Serif" font-size="10.00">VerifyDB</text>
</a>
</g>
</g>
<!-- Node18&#45;&gt;Node20 -->
<g id="edge29" class="edge"><title>Node18&#45;&gt;Node20</title>
<path fill="none" stroke="midnightblue" d="M363.416,-296.304C368.216,-298.463 372.86,-301.008 377,-304 398.612,-319.621 389.543,-339.316 413,-352 501.328,-399.762 626.838,-385.786 681.636,-376.413"/>
<polygon fill="midnightblue" stroke="midnightblue" points="364.672,-293.037 354.086,-292.613 362.097,-299.547 364.672,-293.037"/>
</g>
<!-- Node24 -->
<g id="node24" class="node"><title>Node24</title>
<g id="a_node24"><a xlink:href="main_8h.html#a87a59e710c26c4a10de57b5acb1e2e92" target="_top" xlink:title="Process an incoming block. ">
<polygon fill="white" stroke="black" points="459,-275.5 459,-294.5 536,-294.5 536,-275.5 459,-275.5"/>
<text text-anchor="middle" x="497.5" y="-282.5" font-family="Helvetica,sans-Serif" font-size="10.00">ProcessBlock</text>
</a>
</g>
</g>
<!-- Node18&#45;&gt;Node24 -->
<g id="edge24" class="edge"><title>Node18&#45;&gt;Node24</title>
<path fill="none" stroke="midnightblue" d="M364.299,-285C393.364,-285 431.118,-285 458.835,-285"/>
<polygon fill="midnightblue" stroke="midnightblue" points="364.019,-281.5 354.019,-285 364.018,-288.5 364.019,-281.5"/>
</g>
<!-- Node19&#45;&gt;Node20 -->
<g id="edge19" class="edge"><title>Node19&#45;&gt;Node20</title>
<path fill="none" stroke="midnightblue" d="M546.605,-341.684C588.498,-349.247 647.725,-359.939 681.866,-366.102"/>
<polygon fill="midnightblue" stroke="midnightblue" points="547.083,-338.214 536.62,-339.882 545.839,-345.102 547.083,-338.214"/>
</g>
<!-- Node22 -->
<g id="node22" class="node"><title>Node22</title>
<g id="a_node22"><a xlink:href="miner_8h.html#af441d1c1899839f4e3cc0ee1367914a5" target="_top" xlink:title="Generate a new block, without valid proof&#45;of&#45;work. ">
<polygon fill="white" stroke="black" points="664.5,-323.5 664.5,-342.5 755.5,-342.5 755.5,-323.5 664.5,-323.5"/>
<text text-anchor="middle" x="710" y="-330.5" font-family="Helvetica,sans-Serif" font-size="10.00">CreateNewBlock</text>
</a>
</g>
</g>
<!-- Node19&#45;&gt;Node22 -->
<g id="edge22" class="edge"><title>Node19&#45;&gt;Node22</title>
<path fill="none" stroke="midnightblue" d="M546.704,-333C582.054,-333 629.707,-333 664.225,-333"/>
<polygon fill="midnightblue" stroke="midnightblue" points="546.62,-329.5 536.62,-333 546.62,-336.5 546.62,-329.5"/>
</g>
<!-- Node20&#45;&gt;Node8 -->
<g id="edge20" class="edge"><title>Node20&#45;&gt;Node8</title>
<path fill="none" stroke="midnightblue" d="M748.199,-377.039C799.563,-383.494 893.605,-388.396 962,-352 1007.19,-327.953 1037.3,-270.36 1047.84,-247.543"/>
<polygon fill="midnightblue" stroke="midnightblue" points="748.59,-373.56 738.212,-375.695 747.656,-380.497 748.59,-373.56"/>
</g>
<!-- Node21 -->
<g id="node21" class="node"><title>Node21</title>
<g id="a_node21"><a xlink:href="rpcblockchain_8cpp.html#a0b1dd8862fc7292c243ad9489f96a3c8" target="_top" xlink:title="verifychain">
<polygon fill="white" stroke="black" points="868,-399.5 868,-418.5 932,-418.5 932,-399.5 868,-399.5"/>
<text text-anchor="middle" x="900" y="-406.5" font-family="Helvetica,sans-Serif" font-size="10.00">verifychain</text>
</a>
</g>
</g>
<!-- Node20&#45;&gt;Node21 -->
<g id="edge21" class="edge"><title>Node20&#45;&gt;Node21</title>
<path fill="none" stroke="midnightblue" d="M748.175,-378.514C783.174,-385.588 834.996,-396.063 867.872,-402.708"/>
<polygon fill="midnightblue" stroke="midnightblue" points="748.832,-375.076 738.337,-376.526 747.445,-381.937 748.832,-375.076"/>
</g>
<!-- Node23 -->
<g id="node23" class="node"><title>Node23</title>
<g id="a_node23"><a xlink:href="rpcmining_8cpp.html#a27347eecedd59156c914fcb5ce488f9a" target="_top" xlink:title="getblocktemplate">
<polygon fill="white" stroke="black" points="854,-323.5 854,-342.5 946,-342.5 946,-323.5 854,-323.5"/>
<text text-anchor="middle" x="900" y="-330.5" font-family="Helvetica,sans-Serif" font-size="10.00">getblocktemplate</text>
</a>
</g>
</g>
<!-- Node22&#45;&gt;Node23 -->
<g id="edge23" class="edge"><title>Node22&#45;&gt;Node23</title>
<path fill="none" stroke="midnightblue" d="M765.585,-333C793.579,-333 827.267,-333 853.788,-333"/>
<polygon fill="midnightblue" stroke="midnightblue" points="765.553,-329.5 755.553,-333 765.553,-336.5 765.553,-329.5"/>
</g>
<!-- Node25 -->
<g id="node25" class="node"><title>Node25</title>
<g id="a_node25"><a xlink:href="main_8h.html#a8641eccb4e5d174838adeea9b234a691" target="_top" xlink:title="Import blocks from an external file. ">
<polygon fill="white" stroke="black" points="652,-247.5 652,-266.5 768,-266.5 768,-247.5 652,-247.5"/>
<text text-anchor="middle" x="710" y="-254.5" font-family="Helvetica,sans-Serif" font-size="10.00">LoadExternalBlockFile</text>
</a>
</g>
</g>
<!-- Node24&#45;&gt;Node25 -->
<g id="edge25" class="edge"><title>Node24&#45;&gt;Node25</title>
<path fill="none" stroke="midnightblue" d="M546.36,-278.634C577.697,-274.465 618.812,-268.996 651.862,-264.6"/>
<polygon fill="midnightblue" stroke="midnightblue" points="545.584,-275.206 536.133,-279.994 546.507,-282.145 545.584,-275.206"/>
</g>
<!-- Node27 -->
<g id="node27" class="node"><title>Node27</title>
<g id="a_node27"><a xlink:href="rpcmining_8cpp.html#a6fc1aa077add8cb1c74207056616134d" target="_top" xlink:title="submitblock">
<polygon fill="white" stroke="black" points="675.5,-285.5 675.5,-304.5 744.5,-304.5 744.5,-285.5 675.5,-285.5"/>
<text text-anchor="middle" x="710" y="-292.5" font-family="Helvetica,sans-Serif" font-size="10.00">submitblock</text>
</a>
</g>
</g>
<!-- Node24&#45;&gt;Node27 -->
<g id="edge28" class="edge"><title>Node24&#45;&gt;Node27</title>
<path fill="none" stroke="midnightblue" d="M546.273,-287.269C585.567,-289.136 640.278,-291.735 675.169,-293.393"/>
<polygon fill="midnightblue" stroke="midnightblue" points="546.288,-283.766 536.133,-286.788 545.956,-290.758 546.288,-283.766"/>
</g>
<!-- Node26 -->
<g id="node26" class="node"><title>Node26</title>
<g id="a_node26"><a xlink:href="init_8cpp.html#a0189c34248cd89bbbe20d4d6045bd7c9" target="_top" xlink:title="ThreadImport">
<polygon fill="white" stroke="black" points="861.5,-266.5 861.5,-285.5 938.5,-285.5 938.5,-266.5 861.5,-266.5"/>
<text text-anchor="middle" x="900" y="-273.5" font-family="Helvetica,sans-Serif" font-size="10.00">ThreadImport</text>
</a>
</g>
</g>
<!-- Node25&#45;&gt;Node26 -->
<g id="edge26" class="edge"><title>Node25&#45;&gt;Node26</title>
<path fill="none" stroke="midnightblue" d="M778.293,-263.801C806.244,-266.626 837.629,-269.798 861.39,-272.199"/>
<polygon fill="midnightblue" stroke="midnightblue" points="778.473,-260.301 768.172,-262.778 777.769,-267.266 778.473,-260.301"/>
</g>
<!-- Node26&#45;&gt;Node8 -->
<g id="edge27" class="edge"><title>Node26&#45;&gt;Node8</title>
<path fill="none" stroke="midnightblue" d="M948.627,-264.014C974.265,-257.562 1004.89,-249.855 1026.12,-244.512"/>
<polygon fill="midnightblue" stroke="midnightblue" points="947.558,-260.674 938.714,-266.509 949.266,-267.463 947.558,-260.674"/>
</g>
<!-- Node29 -->
<g id="node29" class="node"><title>Node29</title>
<g id="a_node29"><a xlink:href="class_c_wallet_d_b.html#a14f26e53502d1a60dd2b034f830acf03" target="_top" xlink:title="CWalletDB::LoadWallet">
<polygon fill="white" stroke="black" points="649.5,-209.5 649.5,-228.5 770.5,-228.5 770.5,-209.5 649.5,-209.5"/>
<text text-anchor="middle" x="710" y="-216.5" font-family="Helvetica,sans-Serif" font-size="10.00">CWalletDB::LoadWallet</text>
</a>
</g>
</g>
<!-- Node28&#45;&gt;Node29 -->
<g id="edge31" class="edge"><title>Node28&#45;&gt;Node29</title>
<path fill="none" stroke="midnightblue" d="M549.382,-219C579.524,-219 617.867,-219 649.418,-219"/>
<polygon fill="midnightblue" stroke="midnightblue" points="549.087,-215.5 539.087,-219 549.086,-222.5 549.087,-215.5"/>
</g>
<!-- Node31 -->
<g id="node31" class="node"><title>Node31</title>
<g id="a_node31"><a xlink:href="class_c_wallet_d_b.html#a3ebeb12f37d9c66512e2bc2903a6854a" target="_top" xlink:title="CWalletDB::Recover">
<polygon fill="white" stroke="black" points="656,-171.5 656,-190.5 764,-190.5 764,-171.5 656,-171.5"/>
<text text-anchor="middle" x="710" y="-178.5" font-family="Helvetica,sans-Serif" font-size="10.00">CWalletDB::Recover</text>
</a>
</g>
</g>
<!-- Node28&#45;&gt;Node31 -->
<g id="edge34" class="edge"><title>Node28&#45;&gt;Node31</title>
<path fill="none" stroke="midnightblue" d="M549.232,-209.842C581.582,-204.002 623.422,-196.449 656.171,-190.537"/>
<polygon fill="midnightblue" stroke="midnightblue" points="548.306,-206.452 539.087,-211.673 549.549,-213.341 548.306,-206.452"/>
</g>
<!-- Node30 -->
<g id="node30" class="node"><title>Node30</title>
<g id="a_node30"><a xlink:href="class_c_wallet.html#a5d7b244b8ed0cbe24233ee0b6ca3cae0" target="_top" xlink:title="CWallet::LoadWallet">
<polygon fill="white" stroke="black" points="846.5,-228.5 846.5,-247.5 953.5,-247.5 953.5,-228.5 846.5,-228.5"/>
<text text-anchor="middle" x="900" y="-235.5" font-family="Helvetica,sans-Serif" font-size="10.00">CWallet::LoadWallet</text>
</a>
</g>
</g>
<!-- Node29&#45;&gt;Node30 -->
<g id="edge32" class="edge"><title>Node29&#45;&gt;Node30</title>
<path fill="none" stroke="midnightblue" d="M780.887,-226.063C802.573,-228.255 826.094,-230.632 846.396,-232.684"/>
<polygon fill="midnightblue" stroke="midnightblue" points="781.044,-222.561 770.743,-225.038 780.34,-229.526 781.044,-222.561"/>
</g>
<!-- Node30&#45;&gt;Node8 -->
<g id="edge33" class="edge"><title>Node30&#45;&gt;Node8</title>
<path fill="none" stroke="midnightblue" d="M964.026,-238C985.811,-238 1009.02,-238 1026.13,-238"/>
<polygon fill="midnightblue" stroke="midnightblue" points="963.813,-234.5 953.812,-238 963.812,-241.5 963.813,-234.5"/>
</g>
<!-- Node31&#45;&gt;Node8 -->
<g id="edge35" class="edge"><title>Node31&#45;&gt;Node8</title>
<path fill="none" stroke="midnightblue" d="M774.214,-189.539C825.07,-196.657 898.301,-207.464 962,-219 983.842,-222.956 1008.5,-228.217 1026.47,-232.2"/>
<polygon fill="midnightblue" stroke="midnightblue" points="774.419,-186.034 764.032,-188.121 773.454,-192.967 774.419,-186.034"/>
</g>
<!-- Node32 -->
<g id="node32" class="node"><title>Node32</title>
<g id="a_node32"><a xlink:href="class_c_wallet_d_b.html#a44388f1c3ee63191dcb78b1001e9390c" target="_top" xlink:title="CWalletDB::Recover">
<polygon fill="white" stroke="black" points="846,-152.5 846,-171.5 954,-171.5 954,-152.5 846,-152.5"/>
<text text-anchor="middle" x="900" y="-159.5" font-family="Helvetica,sans-Serif" font-size="10.00">CWalletDB::Recover</text>
</a>
</g>
</g>
<!-- Node31&#45;&gt;Node32 -->
<g id="edge36" class="edge"><title>Node31&#45;&gt;Node32</title>
<path fill="none" stroke="midnightblue" d="M774.215,-174.611C797.419,-172.266 823.437,-169.637 845.686,-167.388"/>
<polygon fill="midnightblue" stroke="midnightblue" points="773.717,-171.144 764.119,-175.632 774.421,-178.108 773.717,-171.144"/>
</g>
</g>
</svg>
