<?xml version="1.0" encoding="UTF-8" standalone="no"?>
<!DOCTYPE svg PUBLIC "-//W3C//DTD SVG 1.1//EN"
 "http://www.w3.org/Graphics/SVG/1.1/DTD/svg11.dtd">
<!-- Generated by graphviz version 2.38.0 (20140413.2041)
 -->
<!-- Title: ReceiveCoinsDialog::setModel Pages: 1 -->
<svg width="685pt" height="237pt"
 viewBox="0.00 0.00 685.00 236.50" xmlns="http://www.w3.org/2000/svg" xmlns:xlink="http://www.w3.org/1999/xlink">
<g id="graph0" class="graph" transform="scale(1 1) rotate(0) translate(4 232.5)">
<title>ReceiveCoinsDialog::setModel</title>
<polygon fill="white" stroke="none" points="-4,4 -4,-232.5 681,-232.5 681,4 -4,4"/>
<!-- Node1 -->
<g id="node1" class="node"><title>Node1</title>
<polygon fill="#bfbfbf" stroke="black" points="0,-105 0,-135 107,-135 107,-105 0,-105"/>
<text text-anchor="start" x="8" y="-123" font-family="Helvetica,sans-Serif" font-size="10.00">ReceiveCoinsDialog</text>
<text text-anchor="middle" x="53.5" y="-112" font-family="Helvetica,sans-Serif" font-size="10.00">::setModel</text>
</g>
<!-- Node2 -->
<g id="node2" class="node"><title>Node2</title>
<g id="a_node2"><a xlink:href="class_wallet_model.html#a96d53e56b3f8f07537ea2523f7a7d300" target="_top" xlink:title="WalletModel::getOptionsModel">
<polygon fill="white" stroke="black" points="344,-110.5 344,-129.5 497,-129.5 497,-110.5 344,-110.5"/>
<text text-anchor="middle" x="420.5" y="-117.5" font-family="Helvetica,sans-Serif" font-size="10.00">WalletModel::getOptionsModel</text>
</a>
</g>
</g>
<!-- Node1&#45;&gt;Node2 -->
<g id="edge1" class="edge"><title>Node1&#45;&gt;Node2</title>
<path fill="none" stroke="midnightblue" d="M107.184,-120C166.457,-120 263.608,-120 333.832,-120"/>
<polygon fill="midnightblue" stroke="midnightblue" points="333.99,-123.5 343.99,-120 333.99,-116.5 333.99,-123.5"/>
</g>
<!-- Node3 -->
<g id="node3" class="node"><title>Node3</title>
<g id="a_node3"><a xlink:href="class_wallet_model.html#ab13ca64220a1652d63e1e042d3be578f" target="_top" xlink:title="WalletModel::getRecentRequests\lTableModel">
<polygon fill="white" stroke="black" points="143,-149 143,-179 308,-179 308,-149 143,-149"/>
<text text-anchor="start" x="151" y="-167" font-family="Helvetica,sans-Serif" font-size="10.00">WalletModel::getRecentRequests</text>
<text text-anchor="middle" x="225.5" y="-156" font-family="Helvetica,sans-Serif" font-size="10.00">TableModel</text>
</a>
</g>
</g>
<!-- Node1&#45;&gt;Node3 -->
<g id="edge2" class="edge"><title>Node1&#45;&gt;Node3</title>
<path fill="none" stroke="midnightblue" d="M107.357,-133.681C122.855,-137.692 140.024,-142.136 156.332,-146.357"/>
<polygon fill="midnightblue" stroke="midnightblue" points="155.794,-149.833 166.352,-148.95 157.548,-143.056 155.794,-149.833"/>
</g>
<!-- Node4 -->
<g id="node4" class="node"><title>Node4</title>
<g id="a_node4"><a xlink:href="class_recent_requests_table_model.html#a63ba78741b7115af25908f88d138c201" target="_top" xlink:title="RecentRequestsTableModel\l::sort">
<polygon fill="white" stroke="black" points="154,-198 154,-228 297,-228 297,-198 154,-198"/>
<text text-anchor="start" x="162" y="-216" font-family="Helvetica,sans-Serif" font-size="10.00">RecentRequestsTableModel</text>
<text text-anchor="middle" x="225.5" y="-205" font-family="Helvetica,sans-Serif" font-size="10.00">::sort</text>
</a>
</g>
</g>
<!-- Node1&#45;&gt;Node4 -->
<g id="edge3" class="edge"><title>Node1&#45;&gt;Node4</title>
<path fill="none" stroke="midnightblue" d="M70.1769,-135.247C86.9404,-150.783 114.922,-174.585 143,-189 146.691,-190.895 150.554,-192.663 154.507,-194.309"/>
<polygon fill="midnightblue" stroke="midnightblue" points="153.268,-197.582 163.858,-197.932 155.798,-191.055 153.268,-197.582"/>
</g>
<!-- Node6 -->
<g id="node6" class="node"><title>Node6</title>
<g id="a_node6"><a xlink:href="class_receive_coins_dialog.html#a19eca7743c5326eee821bb8c0af234bb" target="_top" xlink:title="ReceiveCoinsDialog\l::updateDisplayUnit">
<polygon fill="white" stroke="black" points="172,-61 172,-91 279,-91 279,-61 172,-61"/>
<text text-anchor="start" x="180" y="-79" font-family="Helvetica,sans-Serif" font-size="10.00">ReceiveCoinsDialog</text>
<text text-anchor="middle" x="225.5" y="-68" font-family="Helvetica,sans-Serif" font-size="10.00">::updateDisplayUnit</text>
</a>
</g>
</g>
<!-- Node1&#45;&gt;Node6 -->
<g id="edge5" class="edge"><title>Node1&#45;&gt;Node6</title>
<path fill="none" stroke="midnightblue" d="M107.357,-106.319C124.71,-101.828 144.158,-96.7944 162.147,-92.1385"/>
<polygon fill="midnightblue" stroke="midnightblue" points="163.164,-95.4907 171.968,-89.5966 161.41,-88.714 163.164,-95.4907"/>
</g>
<!-- Node10 -->
<g id="node10" class="node"><title>Node10</title>
<g id="a_node10"><a xlink:href="class_receive_coins_dialog.html#a7f6250ef737d2700d392612813f1d03c" target="_top" xlink:title="ReceiveCoinsDialog\l::recentRequestsView\l_selectionChanged">
<polygon fill="white" stroke="black" points="168.5,-0.5 168.5,-41.5 282.5,-41.5 282.5,-0.5 168.5,-0.5"/>
<text text-anchor="start" x="176.5" y="-29.5" font-family="Helvetica,sans-Serif" font-size="10.00">ReceiveCoinsDialog</text>
<text text-anchor="start" x="176.5" y="-18.5" font-family="Helvetica,sans-Serif" font-size="10.00">::recentRequestsView</text>
<text text-anchor="middle" x="225.5" y="-7.5" font-family="Helvetica,sans-Serif" font-size="10.00">_selectionChanged</text>
</a>
</g>
</g>
<!-- Node1&#45;&gt;Node10 -->
<g id="edge10" class="edge"><title>Node1&#45;&gt;Node10</title>
<path fill="none" stroke="midnightblue" d="M70.6912,-104.844C87.6498,-89.6043 115.586,-66.2431 143,-51 148.065,-48.1837 153.446,-45.5367 158.935,-43.0718"/>
<polygon fill="midnightblue" stroke="midnightblue" points="160.416,-46.2454 168.236,-39.0977 157.665,-39.8084 160.416,-46.2454"/>
</g>
<!-- Node5 -->
<g id="node5" class="node"><title>Node5</title>
<g id="a_node5"><a xlink:href="class_recent_requests_table_model.html#a24e3351b43bdf7213a95f906a4c3387a" target="_top" xlink:title="RecentRequestsTableModel\l::index">
<polygon fill="white" stroke="black" points="349,-198 349,-228 492,-228 492,-198 349,-198"/>
<text text-anchor="start" x="357" y="-216" font-family="Helvetica,sans-Serif" font-size="10.00">RecentRequestsTableModel</text>
<text text-anchor="middle" x="420.5" y="-205" font-family="Helvetica,sans-Serif" font-size="10.00">::index</text>
</a>
</g>
</g>
<!-- Node4&#45;&gt;Node5 -->
<g id="edge4" class="edge"><title>Node4&#45;&gt;Node5</title>
<path fill="none" stroke="midnightblue" d="M297.27,-213C310.644,-213 324.729,-213 338.392,-213"/>
<polygon fill="midnightblue" stroke="midnightblue" points="338.738,-216.5 348.738,-213 338.738,-209.5 338.738,-216.5"/>
</g>
<!-- Node6&#45;&gt;Node2 -->
<g id="edge6" class="edge"><title>Node6&#45;&gt;Node2</title>
<path fill="none" stroke="midnightblue" d="M279.238,-88.0232C306.772,-94.3004 340.337,-101.953 367.728,-108.197"/>
<polygon fill="midnightblue" stroke="midnightblue" points="366.99,-111.619 377.518,-110.429 368.546,-104.794 366.99,-111.619"/>
</g>
<!-- Node7 -->
<g id="node7" class="node"><title>Node7</title>
<g id="a_node7"><a xlink:href="class_anoncoin_amount_field.html#a44252e1921be1026e68adfbdc99d5ca4" target="_top" xlink:title="Change unit used to display amount. ">
<polygon fill="white" stroke="black" points="363.5,-61 363.5,-91 477.5,-91 477.5,-61 363.5,-61"/>
<text text-anchor="start" x="371.5" y="-79" font-family="Helvetica,sans-Serif" font-size="10.00">AnoncoinAmountField</text>
<text text-anchor="middle" x="420.5" y="-68" font-family="Helvetica,sans-Serif" font-size="10.00">::setDisplayUnit</text>
</a>
</g>
</g>
<!-- Node6&#45;&gt;Node7 -->
<g id="edge7" class="edge"><title>Node6&#45;&gt;Node7</title>
<path fill="none" stroke="midnightblue" d="M279.238,-76C302.09,-76 329.096,-76 353.279,-76"/>
<polygon fill="midnightblue" stroke="midnightblue" points="353.45,-79.5001 363.45,-76 353.45,-72.5001 353.45,-79.5001"/>
</g>
<!-- Node9 -->
<g id="node9" class="node"><title>Node9</title>
<g id="a_node9"><a xlink:href="class_options_model.html#a3b6e4d4ef42be3aaba315b8cd14f468e" target="_top" xlink:title="OptionsModel::getDisplayUnit">
<polygon fill="white" stroke="black" points="346.5,-22.5 346.5,-41.5 494.5,-41.5 494.5,-22.5 346.5,-22.5"/>
<text text-anchor="middle" x="420.5" y="-29.5" font-family="Helvetica,sans-Serif" font-size="10.00">OptionsModel::getDisplayUnit</text>
</a>
</g>
</g>
<!-- Node6&#45;&gt;Node9 -->
<g id="edge9" class="edge"><title>Node6&#45;&gt;Node9</title>
<path fill="none" stroke="midnightblue" d="M279.238,-63.9768C306.772,-57.6996 340.337,-50.0475 367.728,-43.8029"/>
<polygon fill="midnightblue" stroke="midnightblue" points="368.546,-47.2064 377.518,-41.5711 366.99,-40.3815 368.546,-47.2064"/>
</g>
<!-- Node8 -->
<g id="node8" class="node"><title>Node8</title>
<g id="a_node8"><a xlink:href="class_q_value_combo_box.html#af192c68c0c82f33000d8c1be8c013d2d" target="_top" xlink:title="QValueComboBox::setValue">
<polygon fill="white" stroke="black" points="533,-66.5 533,-85.5 677,-85.5 677,-66.5 533,-66.5"/>
<text text-anchor="middle" x="605" y="-73.5" font-family="Helvetica,sans-Serif" font-size="10.00">QValueComboBox::setValue</text>
</a>
</g>
</g>
<!-- Node7&#45;&gt;Node8 -->
<g id="edge8" class="edge"><title>Node7&#45;&gt;Node8</title>
<path fill="none" stroke="midnightblue" d="M477.745,-76C491.871,-76 507.316,-76 522.405,-76"/>
<polygon fill="midnightblue" stroke="midnightblue" points="522.773,-79.5001 532.773,-76 522.773,-72.5001 522.773,-79.5001"/>
</g>
</g>
</svg>
