<?xml version="1.0" encoding="UTF-8" standalone="no"?>
<!DOCTYPE svg PUBLIC "-//W3C//DTD SVG 1.1//EN"
 "http://www.w3.org/Graphics/SVG/1.1/DTD/svg11.dtd">
<!-- Generated by graphviz version 2.38.0 (20140413.2041)
 -->
<!-- Title: CNode::Ban Pages: 1 -->
<svg width="689pt" height="104pt"
 viewBox="0.00 0.00 689.00 104.00" xmlns="http://www.w3.org/2000/svg" xmlns:xlink="http://www.w3.org/1999/xlink">
<g id="graph0" class="graph" transform="scale(1 1) rotate(0) translate(4 100)">
<title>CNode::Ban</title>
<polygon fill="white" stroke="none" points="-4,4 -4,-100 685,-100 685,4 -4,4"/>
<!-- Node1 -->
<g id="node1" class="node"><title>Node1</title>
<polygon fill="#bfbfbf" stroke="black" points="0,-38.5 0,-57.5 71,-57.5 71,-38.5 0,-38.5"/>
<text text-anchor="middle" x="35.5" y="-45.5" font-family="Helvetica,sans-Serif" font-size="10.00">CNode::Ban</text>
</g>
<!-- Node2 -->
<g id="node2" class="node"><title>Node2</title>
<g id="a_node2"><a xlink:href="main_8h.html#a711a5bdb30c9c9bbdc83011b1cbbe2f3" target="_top" xlink:title="Send queued protocol messages to be sent to a give node. ">
<polygon fill="white" stroke="black" points="107,-38.5 107,-57.5 192,-57.5 192,-38.5 107,-38.5"/>
<text text-anchor="middle" x="149.5" y="-45.5" font-family="Helvetica,sans-Serif" font-size="10.00">SendMessages</text>
</a>
</g>
</g>
<!-- Node1&#45;&gt;Node2 -->
<g id="edge1" class="edge"><title>Node1&#45;&gt;Node2</title>
<path fill="none" stroke="midnightblue" d="M81.1178,-48C89.5909,-48 98.427,-48 106.805,-48"/>
<polygon fill="midnightblue" stroke="midnightblue" points="81.0176,-44.5001 71.0176,-48 81.0175,-51.5001 81.0176,-44.5001"/>
</g>
<!-- Node3 -->
<g id="node3" class="node"><title>Node3</title>
<g id="a_node3"><a xlink:href="main_8h.html#ab02615ff65f91d69f8d786ec900baa8a" target="_top" xlink:title="Register with a network node to receive its signals. ">
<polygon fill="white" stroke="black" points="232.5,-57.5 232.5,-76.5 342.5,-76.5 342.5,-57.5 232.5,-57.5"/>
<text text-anchor="middle" x="287.5" y="-64.5" font-family="Helvetica,sans-Serif" font-size="10.00">RegisterNodeSignals</text>
</a>
</g>
</g>
<!-- Node2&#45;&gt;Node3 -->
<g id="edge2" class="edge"><title>Node2&#45;&gt;Node3</title>
<path fill="none" stroke="midnightblue" d="M202.082,-55.2064C211.921,-56.5809 222.248,-58.0236 232.169,-59.4096"/>
<polygon fill="midnightblue" stroke="midnightblue" points="202.432,-51.7212 192.043,-53.8039 201.463,-58.6539 202.432,-51.7212"/>
</g>
<!-- Node8 -->
<g id="node8" class="node"><title>Node8</title>
<g id="a_node8"><a xlink:href="main_8h.html#a3ef0cc6e9d9d6435ee2a5569244d6ebd" target="_top" xlink:title="Unregister a network node. ">
<polygon fill="white" stroke="black" points="228,-19.5 228,-38.5 347,-38.5 347,-19.5 228,-19.5"/>
<text text-anchor="middle" x="287.5" y="-26.5" font-family="Helvetica,sans-Serif" font-size="10.00">UnregisterNodeSignals</text>
</a>
</g>
</g>
<!-- Node2&#45;&gt;Node8 -->
<g id="edge7" class="edge"><title>Node2&#45;&gt;Node8</title>
<path fill="none" stroke="midnightblue" d="M202.048,-40.7984C210.424,-39.6282 219.155,-38.4085 227.689,-37.2163"/>
<polygon fill="midnightblue" stroke="midnightblue" points="201.463,-37.3461 192.043,-42.1961 202.432,-44.2788 201.463,-37.3461"/>
</g>
<!-- Node4 -->
<g id="node4" class="node"><title>Node4</title>
<g id="a_node4"><a xlink:href="init_8h.html#a1a4c1bfbf6ba1db77e988b89b9cadfd3" target="_top" xlink:title="Initialize anoncoin. ">
<polygon fill="white" stroke="black" points="387,-57.5 387,-76.5 440,-76.5 440,-57.5 387,-57.5"/>
<text text-anchor="middle" x="413.5" y="-64.5" font-family="Helvetica,sans-Serif" font-size="10.00">AppInit2</text>
</a>
</g>
</g>
<!-- Node3&#45;&gt;Node4 -->
<g id="edge3" class="edge"><title>Node3&#45;&gt;Node4</title>
<path fill="none" stroke="midnightblue" d="M352.69,-67C364.806,-67 376.811,-67 386.849,-67"/>
<polygon fill="midnightblue" stroke="midnightblue" points="352.528,-63.5001 342.527,-67 352.527,-70.5001 352.528,-63.5001"/>
</g>
<!-- Node5 -->
<g id="node5" class="node"><title>Node5</title>
<g id="a_node5"><a xlink:href="anoncoind_8cpp.html#ac59316b767e6984e1285f0531275286b" target="_top" xlink:title="AppInit">
<polygon fill="white" stroke="black" points="519.5,-38.5 519.5,-57.5 567.5,-57.5 567.5,-38.5 519.5,-38.5"/>
<text text-anchor="middle" x="543.5" y="-45.5" font-family="Helvetica,sans-Serif" font-size="10.00">AppInit</text>
</a>
</g>
</g>
<!-- Node4&#45;&gt;Node5 -->
<g id="edge4" class="edge"><title>Node4&#45;&gt;Node5</title>
<path fill="none" stroke="midnightblue" d="M450.087,-61.7176C472.128,-58.4459 499.81,-54.3368 519.104,-51.4728"/>
<polygon fill="midnightblue" stroke="midnightblue" points="449.473,-58.2703 440.095,-63.2007 450.501,-65.1944 449.473,-58.2703"/>
</g>
<!-- Node7 -->
<g id="node7" class="node"><title>Node7</title>
<g id="a_node7"><a xlink:href="class_anoncoin_coin.html#a9510881824d283404ac43414dbb74586" target="_top" xlink:title="AnoncoinCoin::initialize">
<polygon fill="white" stroke="black" points="483.5,-76.5 483.5,-95.5 603.5,-95.5 603.5,-76.5 483.5,-76.5"/>
<text text-anchor="middle" x="543.5" y="-83.5" font-family="Helvetica,sans-Serif" font-size="10.00">AnoncoinCoin::initialize</text>
</a>
</g>
</g>
<!-- Node4&#45;&gt;Node7 -->
<g id="edge6" class="edge"><title>Node4&#45;&gt;Node7</title>
<path fill="none" stroke="midnightblue" d="M450.301,-72.3142C460.572,-73.8388 472.054,-75.5432 483.335,-77.2177"/>
<polygon fill="midnightblue" stroke="midnightblue" points="450.501,-68.8056 440.095,-70.7993 449.473,-75.7297 450.501,-68.8056"/>
</g>
<!-- Node6 -->
<g id="node6" class="node"><title>Node6</title>
<g id="a_node6"><a xlink:href="anoncoind_8cpp.html#a0ddf1224851353fc92bfbff6f499fa97" target="_top" xlink:title="main">
<polygon fill="white" stroke="black" points="643,-38.5 643,-57.5 681,-57.5 681,-38.5 643,-38.5"/>
<text text-anchor="middle" x="662" y="-45.5" font-family="Helvetica,sans-Serif" font-size="10.00">main</text>
</a>
</g>
</g>
<!-- Node5&#45;&gt;Node6 -->
<g id="edge5" class="edge"><title>Node5&#45;&gt;Node6</title>
<path fill="none" stroke="midnightblue" d="M577.731,-48C598.947,-48 625.631,-48 642.99,-48"/>
<polygon fill="midnightblue" stroke="midnightblue" points="577.517,-44.5001 567.517,-48 577.517,-51.5001 577.517,-44.5001"/>
</g>
<!-- Node9 -->
<g id="node9" class="node"><title>Node9</title>
<g id="a_node9"><a xlink:href="init_8h.html#ac5f038c2b480cf9ef5e19e3eba8dbaf9" target="_top" xlink:title="Shutdown">
<polygon fill="white" stroke="black" points="383,-19.5 383,-38.5 444,-38.5 444,-19.5 383,-19.5"/>
<text text-anchor="middle" x="413.5" y="-26.5" font-family="Helvetica,sans-Serif" font-size="10.00">Shutdown</text>
</a>
</g>
</g>
<!-- Node8&#45;&gt;Node9 -->
<g id="edge8" class="edge"><title>Node8&#45;&gt;Node9</title>
<path fill="none" stroke="midnightblue" d="M357.398,-29C366.364,-29 375.136,-29 382.95,-29"/>
<polygon fill="midnightblue" stroke="midnightblue" points="357.232,-25.5001 347.232,-29 357.232,-32.5001 357.232,-25.5001"/>
</g>
<!-- Node9&#45;&gt;Node5 -->
<g id="edge9" class="edge"><title>Node9&#45;&gt;Node5</title>
<path fill="none" stroke="midnightblue" d="M454.288,-34.906C475.659,-38.0783 501.255,-41.8777 519.357,-44.5647"/>
<polygon fill="midnightblue" stroke="midnightblue" points="454.593,-31.413 444.188,-33.4067 453.565,-38.3372 454.593,-31.413"/>
</g>
<!-- Node10 -->
<g id="node10" class="node"><title>Node10</title>
<g id="a_node10"><a xlink:href="class_anoncoin_coin.html#ac33fbca9335d356d9d6102a0122f2a5b" target="_top" xlink:title="AnoncoinCoin::shutdown">
<polygon fill="white" stroke="black" points="480,-0.5 480,-19.5 607,-19.5 607,-0.5 480,-0.5"/>
<text text-anchor="middle" x="543.5" y="-7.5" font-family="Helvetica,sans-Serif" font-size="10.00">AnoncoinCoin::shutdown</text>
</a>
</g>
</g>
<!-- Node9&#45;&gt;Node10 -->
<g id="edge10" class="edge"><title>Node9&#45;&gt;Node10</title>
<path fill="none" stroke="midnightblue" d="M454.157,-23.1135C462.329,-21.9004 471.123,-20.595 479.883,-19.2948"/>
<polygon fill="midnightblue" stroke="midnightblue" points="453.565,-19.6628 444.188,-24.5933 454.593,-26.587 453.565,-19.6628"/>
</g>
</g>
</svg>
