<?xml version="1.0" encoding="UTF-8" standalone="no"?>
<!DOCTYPE svg PUBLIC "-//W3C//DTD SVG 1.1//EN"
 "http://www.w3.org/Graphics/SVG/1.1/DTD/svg11.dtd">
<!-- Generated by graphviz version 2.38.0 (20140413.2041)
 -->
<!-- Title: Ui_SendCoinsEntry::retranslateUi Pages: 1 -->
<svg width="441pt" height="39pt"
 viewBox="0.00 0.00 441.00 39.00" xmlns="http://www.w3.org/2000/svg" xmlns:xlink="http://www.w3.org/1999/xlink">
<g id="graph0" class="graph" transform="scale(1 1) rotate(0) translate(4 35)">
<title>Ui_SendCoinsEntry::retranslateUi</title>
<polygon fill="white" stroke="none" points="-4,4 -4,-35 437,-35 437,4 -4,4"/>
<!-- Node1 -->
<g id="node1" class="node"><title>Node1</title>
<polygon fill="#bfbfbf" stroke="black" points="0,-0.5 0,-30.5 109,-30.5 109,-0.5 0,-0.5"/>
<text text-anchor="start" x="8" y="-18.5" font-family="Helvetica,sans-Serif" font-size="10.00">Ui_SendCoinsEntry::</text>
<text text-anchor="middle" x="54.5" y="-7.5" font-family="Helvetica,sans-Serif" font-size="10.00">retranslateUi</text>
</g>
<!-- Node2 -->
<g id="node2" class="node"><title>Node2</title>
<g id="a_node2"><a xlink:href="class_ui___send_coins_entry.html#a95119ab3cfd1ffa2f9ace382c097b148" target="_top" xlink:title="Ui_SendCoinsEntry::\lsetupUi">
<polygon fill="white" stroke="black" points="145,-0.5 145,-30.5 254,-30.5 254,-0.5 145,-0.5"/>
<text text-anchor="start" x="153" y="-18.5" font-family="Helvetica,sans-Serif" font-size="10.00">Ui_SendCoinsEntry::</text>
<text text-anchor="middle" x="199.5" y="-7.5" font-family="Helvetica,sans-Serif" font-size="10.00">setupUi</text>
</a>
</g>
</g>
<!-- Node1&#45;&gt;Node2 -->
<g id="edge1" class="edge"><title>Node1&#45;&gt;Node2</title>
<path fill="none" stroke="midnightblue" d="M119.324,-15.5C127.745,-15.5 136.31,-15.5 144.545,-15.5"/>
<polygon fill="midnightblue" stroke="midnightblue" points="119.155,-12.0001 109.155,-15.5 119.155,-19.0001 119.155,-12.0001"/>
</g>
<!-- Node3 -->
<g id="node3" class="node"><title>Node3</title>
<g id="a_node3"><a xlink:href="class_send_coins_entry.html#a1c385963cf2dd2eb618720908988d037" target="_top" xlink:title="SendCoinsEntry::SendCoins\lEntry">
<polygon fill="white" stroke="black" points="290,-0.5 290,-30.5 433,-30.5 433,-0.5 290,-0.5"/>
<text text-anchor="start" x="298" y="-18.5" font-family="Helvetica,sans-Serif" font-size="10.00">SendCoinsEntry::SendCoins</text>
<text text-anchor="middle" x="361.5" y="-7.5" font-family="Helvetica,sans-Serif" font-size="10.00">Entry</text>
</a>
</g>
</g>
<!-- Node2&#45;&gt;Node3 -->
<g id="edge2" class="edge"><title>Node2&#45;&gt;Node3</title>
<path fill="none" stroke="midnightblue" d="M264.318,-15.5C272.717,-15.5 281.365,-15.5 289.869,-15.5"/>
<polygon fill="midnightblue" stroke="midnightblue" points="264.223,-12.0001 254.223,-15.5 264.223,-19.0001 264.223,-12.0001"/>
</g>
</g>
</svg>
