<?xml version="1.0" encoding="UTF-8" standalone="no"?>
<!DOCTYPE svg PUBLIC "-//W3C//DTD SVG 1.1//EN"
 "http://www.w3.org/Graphics/SVG/1.1/DTD/svg11.dtd">
<!-- Generated by graphviz version 2.38.0 (20140413.2041)
 -->
<!-- Title: CBufferedFile::Seek Pages: 1 -->
<svg width="698pt" height="66pt"
 viewBox="0.00 0.00 698.00 66.00" xmlns="http://www.w3.org/2000/svg" xmlns:xlink="http://www.w3.org/1999/xlink">
<g id="graph0" class="graph" transform="scale(1 1) rotate(0) translate(4 62)">
<title>CBufferedFile::Seek</title>
<polygon fill="white" stroke="none" points="-4,4 -4,-62 694,-62 694,4 -4,4"/>
<!-- Node1 -->
<g id="node1" class="node"><title>Node1</title>
<polygon fill="#bfbfbf" stroke="black" points="0,-19.5 0,-38.5 106,-38.5 106,-19.5 0,-19.5"/>
<text text-anchor="middle" x="53" y="-26.5" font-family="Helvetica,sans-Serif" font-size="10.00">CBufferedFile::Seek</text>
</g>
<!-- Node2 -->
<g id="node2" class="node"><title>Node2</title>
<g id="a_node2"><a xlink:href="main_8h.html#a8641eccb4e5d174838adeea9b234a691" target="_top" xlink:title="Import blocks from an external file. ">
<polygon fill="white" stroke="black" points="142,-19.5 142,-38.5 258,-38.5 258,-19.5 142,-19.5"/>
<text text-anchor="middle" x="200" y="-26.5" font-family="Helvetica,sans-Serif" font-size="10.00">LoadExternalBlockFile</text>
</a>
</g>
</g>
<!-- Node1&#45;&gt;Node2 -->
<g id="edge1" class="edge"><title>Node1&#45;&gt;Node2</title>
<path fill="none" stroke="midnightblue" d="M116.491,-29C124.906,-29 133.505,-29 141.822,-29"/>
<polygon fill="midnightblue" stroke="midnightblue" points="116.348,-25.5001 106.348,-29 116.348,-32.5001 116.348,-25.5001"/>
</g>
<!-- Node3 -->
<g id="node3" class="node"><title>Node3</title>
<g id="a_node3"><a xlink:href="init_8cpp.html#a0189c34248cd89bbbe20d4d6045bd7c9" target="_top" xlink:title="ThreadImport">
<polygon fill="white" stroke="black" points="294,-19.5 294,-38.5 371,-38.5 371,-19.5 294,-19.5"/>
<text text-anchor="middle" x="332.5" y="-26.5" font-family="Helvetica,sans-Serif" font-size="10.00">ThreadImport</text>
</a>
</g>
</g>
<!-- Node2&#45;&gt;Node3 -->
<g id="edge2" class="edge"><title>Node2&#45;&gt;Node3</title>
<path fill="none" stroke="midnightblue" d="M268.46,-29C277.177,-29 285.842,-29 293.831,-29"/>
<polygon fill="midnightblue" stroke="midnightblue" points="268.239,-25.5001 258.239,-29 268.239,-32.5001 268.239,-25.5001"/>
</g>
<!-- Node4 -->
<g id="node4" class="node"><title>Node4</title>
<g id="a_node4"><a xlink:href="init_8h.html#a1a4c1bfbf6ba1db77e988b89b9cadfd3" target="_top" xlink:title="Initialize anoncoin. ">
<polygon fill="white" stroke="black" points="407,-19.5 407,-38.5 460,-38.5 460,-19.5 407,-19.5"/>
<text text-anchor="middle" x="433.5" y="-26.5" font-family="Helvetica,sans-Serif" font-size="10.00">AppInit2</text>
</a>
</g>
</g>
<!-- Node3&#45;&gt;Node4 -->
<g id="edge3" class="edge"><title>Node3&#45;&gt;Node4</title>
<path fill="none" stroke="midnightblue" d="M381.424,-29C390.208,-29 399.057,-29 406.865,-29"/>
<polygon fill="midnightblue" stroke="midnightblue" points="381.21,-25.5001 371.21,-29 381.21,-32.5001 381.21,-25.5001"/>
</g>
<!-- Node5 -->
<g id="node5" class="node"><title>Node5</title>
<g id="a_node5"><a xlink:href="anoncoind_8cpp.html#ac59316b767e6984e1285f0531275286b" target="_top" xlink:title="AppInit">
<polygon fill="white" stroke="black" points="532,-38.5 532,-57.5 580,-57.5 580,-38.5 532,-38.5"/>
<text text-anchor="middle" x="556" y="-45.5" font-family="Helvetica,sans-Serif" font-size="10.00">AppInit</text>
</a>
</g>
</g>
<!-- Node4&#45;&gt;Node5 -->
<g id="edge4" class="edge"><title>Node4&#45;&gt;Node5</title>
<path fill="none" stroke="midnightblue" d="M470.05,-34.6053C490.041,-37.7576 514.421,-41.6017 531.927,-44.3619"/>
<polygon fill="midnightblue" stroke="midnightblue" points="470.478,-31.1297 460.055,-33.0294 469.388,-38.0443 470.478,-31.1297"/>
</g>
<!-- Node7 -->
<g id="node7" class="node"><title>Node7</title>
<g id="a_node7"><a xlink:href="class_anoncoin_coin.html#a9510881824d283404ac43414dbb74586" target="_top" xlink:title="AnoncoinCoin::initialize">
<polygon fill="white" stroke="black" points="496,-0.5 496,-19.5 616,-19.5 616,-0.5 496,-0.5"/>
<text text-anchor="middle" x="556" y="-7.5" font-family="Helvetica,sans-Serif" font-size="10.00">AnoncoinCoin::initialize</text>
</a>
</g>
</g>
<!-- Node4&#45;&gt;Node7 -->
<g id="edge6" class="edge"><title>Node4&#45;&gt;Node7</title>
<path fill="none" stroke="midnightblue" d="M470.186,-23.3732C478.249,-22.1018 487.021,-20.7186 495.765,-19.34"/>
<polygon fill="midnightblue" stroke="midnightblue" points="469.388,-19.9557 460.055,-24.9706 470.478,-26.8703 469.388,-19.9557"/>
</g>
<!-- Node6 -->
<g id="node6" class="node"><title>Node6</title>
<g id="a_node6"><a xlink:href="anoncoind_8cpp.html#a0ddf1224851353fc92bfbff6f499fa97" target="_top" xlink:title="main">
<polygon fill="white" stroke="black" points="652,-38.5 652,-57.5 690,-57.5 690,-38.5 652,-38.5"/>
<text text-anchor="middle" x="671" y="-45.5" font-family="Helvetica,sans-Serif" font-size="10.00">main</text>
</a>
</g>
</g>
<!-- Node5&#45;&gt;Node6 -->
<g id="edge5" class="edge"><title>Node5&#45;&gt;Node6</title>
<path fill="none" stroke="midnightblue" d="M590.146,-48C610.247,-48 635.134,-48 651.731,-48"/>
<polygon fill="midnightblue" stroke="midnightblue" points="590.14,-44.5001 580.14,-48 590.14,-51.5001 590.14,-44.5001"/>
</g>
</g>
</svg>
