<?xml version="1.0" encoding="UTF-8" standalone="no"?>
<!DOCTYPE svg PUBLIC "-//W3C//DTD SVG 1.1//EN"
 "http://www.w3.org/Graphics/SVG/1.1/DTD/svg11.dtd">
<!-- Generated by graphviz version 2.38.0 (20140413.2041)
 -->
<!-- Title: CCoinsViewDB::GetBestBlock Pages: 1 -->
<svg width="643pt" height="142pt"
 viewBox="0.00 0.00 643.00 142.00" xmlns="http://www.w3.org/2000/svg" xmlns:xlink="http://www.w3.org/1999/xlink">
<g id="graph0" class="graph" transform="scale(1 1) rotate(0) translate(4 138)">
<title>CCoinsViewDB::GetBestBlock</title>
<polygon fill="white" stroke="none" points="-4,4 -4,-138 639,-138 639,4 -4,4"/>
<!-- Node1 -->
<g id="node1" class="node"><title>Node1</title>
<polygon fill="#bfbfbf" stroke="black" points="0,-57.5 0,-76.5 151,-76.5 151,-57.5 0,-57.5"/>
<text text-anchor="middle" x="75.5" y="-64.5" font-family="Helvetica,sans-Serif" font-size="10.00">CCoinsViewDB::GetBestBlock</text>
</g>
<!-- Node2 -->
<g id="node2" class="node"><title>Node2</title>
<g id="a_node2"><a xlink:href="class_c_level_d_b_wrapper.html#aa3451a451298c7f8a66986ccd95474e2" target="_top" xlink:title="CLevelDBWrapper::Read">
<polygon fill="white" stroke="black" points="187,-57.5 187,-76.5 316,-76.5 316,-57.5 187,-57.5"/>
<text text-anchor="middle" x="251.5" y="-64.5" font-family="Helvetica,sans-Serif" font-size="10.00">CLevelDBWrapper::Read</text>
</a>
</g>
</g>
<!-- Node1&#45;&gt;Node2 -->
<g id="edge1" class="edge"><title>Node1&#45;&gt;Node2</title>
<path fill="none" stroke="midnightblue" d="M151.049,-67C159.508,-67 168.128,-67 176.579,-67"/>
<polygon fill="midnightblue" stroke="midnightblue" points="176.782,-70.5001 186.782,-67 176.782,-63.5001 176.782,-70.5001"/>
</g>
<!-- Node3 -->
<g id="node3" class="node"><title>Node3</title>
<g id="a_node3"><a xlink:href="class_c_data_stream.html#a5542e71bd7af2ab7cd7be0f381d39cb5" target="_top" xlink:title="CDataStream::reserve">
<polygon fill="white" stroke="black" points="372.5,-114.5 372.5,-133.5 488.5,-133.5 488.5,-114.5 372.5,-114.5"/>
<text text-anchor="middle" x="430.5" y="-121.5" font-family="Helvetica,sans-Serif" font-size="10.00">CDataStream::reserve</text>
</a>
</g>
</g>
<!-- Node2&#45;&gt;Node3 -->
<g id="edge2" class="edge"><title>Node2&#45;&gt;Node3</title>
<path fill="none" stroke="midnightblue" d="M275.138,-76.5716C295.123,-84.7978 325.171,-96.6237 352,-105 359.984,-107.493 368.513,-109.866 376.885,-112.039"/>
<polygon fill="midnightblue" stroke="midnightblue" points="376.047,-115.437 386.6,-114.491 377.76,-108.65 376.047,-115.437"/>
</g>
<!-- Node4 -->
<g id="node4" class="node"><title>Node4</title>
<g id="a_node4"><a xlink:href="class_c_data_stream.html#aaf2b9e953793ce5a4fc438a7ecb00dc2" target="_top" xlink:title="CDataStream::GetSerializeSize">
<polygon fill="white" stroke="black" points="352,-76.5 352,-95.5 509,-95.5 509,-76.5 352,-76.5"/>
<text text-anchor="middle" x="430.5" y="-83.5" font-family="Helvetica,sans-Serif" font-size="10.00">CDataStream::GetSerializeSize</text>
</a>
</g>
</g>
<!-- Node2&#45;&gt;Node4 -->
<g id="edge3" class="edge"><title>Node2&#45;&gt;Node4</title>
<path fill="none" stroke="midnightblue" d="M316.401,-73.8594C324.657,-74.7457 333.223,-75.6652 341.78,-76.5837"/>
<polygon fill="midnightblue" stroke="midnightblue" points="341.484,-80.072 351.801,-77.6594 342.232,-73.112 341.484,-80.072"/>
</g>
<!-- Node6 -->
<g id="node6" class="node"><title>Node6</title>
<g id="a_node6"><a xlink:href="class_c_data_stream.html#ac6567f6d600d644d9855b52bb59049cd" target="_top" xlink:title="CDataStream::size">
<polygon fill="white" stroke="black" points="380.5,-38.5 380.5,-57.5 480.5,-57.5 480.5,-38.5 380.5,-38.5"/>
<text text-anchor="middle" x="430.5" y="-45.5" font-family="Helvetica,sans-Serif" font-size="10.00">CDataStream::size</text>
</a>
</g>
</g>
<!-- Node2&#45;&gt;Node6 -->
<g id="edge5" class="edge"><title>Node2&#45;&gt;Node6</title>
<path fill="none" stroke="midnightblue" d="M316.401,-60.1406C334.032,-58.2479 353.079,-56.2034 370.424,-54.3415"/>
<polygon fill="midnightblue" stroke="midnightblue" points="370.847,-57.8163 380.416,-53.2689 370.1,-50.8563 370.847,-57.8163"/>
</g>
<!-- Node7 -->
<g id="node7" class="node"><title>Node7</title>
<g id="a_node7"><a xlink:href="leveldbwrapper_8h.html#aea36eb5fddb6266b14ea8cb15e183486" target="_top" xlink:title="HandleError">
<polygon fill="white" stroke="black" points="395.5,-0.5 395.5,-19.5 465.5,-19.5 465.5,-0.5 395.5,-0.5"/>
<text text-anchor="middle" x="430.5" y="-7.5" font-family="Helvetica,sans-Serif" font-size="10.00">HandleError</text>
</a>
</g>
</g>
<!-- Node2&#45;&gt;Node7 -->
<g id="edge6" class="edge"><title>Node2&#45;&gt;Node7</title>
<path fill="none" stroke="midnightblue" d="M275.138,-57.4284C295.123,-49.2022 325.171,-37.3763 352,-29 362.732,-25.6494 374.448,-22.5137 385.446,-19.7934"/>
<polygon fill="midnightblue" stroke="midnightblue" points="386.395,-23.165 395.295,-17.4177 384.754,-16.3602 386.395,-23.165"/>
</g>
<!-- Node5 -->
<g id="node5" class="node"><title>Node5</title>
<g id="a_node5"><a xlink:href="serialize_8h.html#a48239e478ae730373d1984fe304ca025" target="_top" xlink:title="GetSerializeSize">
<polygon fill="white" stroke="black" points="545,-76.5 545,-95.5 635,-95.5 635,-76.5 545,-76.5"/>
<text text-anchor="middle" x="590" y="-83.5" font-family="Helvetica,sans-Serif" font-size="10.00">GetSerializeSize</text>
</a>
</g>
</g>
<!-- Node4&#45;&gt;Node5 -->
<g id="edge4" class="edge"><title>Node4&#45;&gt;Node5</title>
<path fill="none" stroke="midnightblue" d="M509.327,-86C517.937,-86 526.561,-86 534.789,-86"/>
<polygon fill="midnightblue" stroke="midnightblue" points="534.967,-89.5001 544.967,-86 534.967,-82.5001 534.967,-89.5001"/>
</g>
</g>
</svg>
