<?xml version="1.0" encoding="UTF-8" standalone="no"?>
<!DOCTYPE svg PUBLIC "-//W3C//DTD SVG 1.1//EN"
 "http://www.w3.org/Graphics/SVG/1.1/DTD/svg11.dtd">
<!-- Generated by graphviz version 2.38.0 (20140413.2041)
 -->
<!-- Title: SAM::StreamSession::destGenerate Pages: 1 -->
<svg width="519pt" height="163pt"
 viewBox="0.00 0.00 519.00 162.76" xmlns="http://www.w3.org/2000/svg" xmlns:xlink="http://www.w3.org/1999/xlink">
<g id="graph0" class="graph" transform="scale(1 1) rotate(0) translate(4 158.756)">
<title>SAM::StreamSession::destGenerate</title>
<polygon fill="white" stroke="none" points="-4,4 -4,-158.756 515,-158.756 515,4 -4,4"/>
<!-- Node1 -->
<g id="node1" class="node"><title>Node1</title>
<polygon fill="#bfbfbf" stroke="black" points="0,-71 0,-101 112,-101 112,-71 0,-71"/>
<text text-anchor="start" x="8" y="-89" font-family="Helvetica,sans-Serif" font-size="10.00">SAM::StreamSession</text>
<text text-anchor="middle" x="56" y="-78" font-family="Helvetica,sans-Serif" font-size="10.00">::destGenerate</text>
</g>
<!-- Node2 -->
<g id="node2" class="node"><title>Node2</title>
<g id="a_node2"><a xlink:href="class_s_a_m_1_1_socket.html#a1455a6eec384bbdeda6382f33b49843b" target="_top" xlink:title="SAM::Socket::isOk">
<polygon fill="white" stroke="black" points="372.5,-114.5 372.5,-133.5 472.5,-133.5 472.5,-114.5 372.5,-114.5"/>
<text text-anchor="middle" x="422.5" y="-121.5" font-family="Helvetica,sans-Serif" font-size="10.00">SAM::Socket::isOk</text>
</a>
</g>
</g>
<!-- Node1&#45;&gt;Node2 -->
<g id="edge1" class="edge"><title>Node1&#45;&gt;Node2</title>
<path fill="none" stroke="midnightblue" d="M74.3512,-101.088C91.6622,-115.06 119.691,-134.866 148,-143 226.862,-165.659 323.535,-149.185 378.271,-136.007"/>
<polygon fill="midnightblue" stroke="midnightblue" points="379.454,-139.32 388.315,-133.512 377.766,-132.526 379.454,-139.32"/>
</g>
<!-- Node3 -->
<g id="node3" class="node"><title>Node3</title>
<g id="a_node3"><a xlink:href="class_s_a_m_1_1_socket.html#ae19e83b3127dc1560f164a05b1acd763" target="_top" xlink:title="SAM::Socket::write">
<polygon fill="white" stroke="black" points="172.5,-76.5 172.5,-95.5 273.5,-95.5 273.5,-76.5 172.5,-76.5"/>
<text text-anchor="middle" x="223" y="-83.5" font-family="Helvetica,sans-Serif" font-size="10.00">SAM::Socket::write</text>
</a>
</g>
</g>
<!-- Node1&#45;&gt;Node3 -->
<g id="edge2" class="edge"><title>Node1&#45;&gt;Node3</title>
<path fill="none" stroke="midnightblue" d="M112.402,-86C128.299,-86 145.707,-86 161.874,-86"/>
<polygon fill="midnightblue" stroke="midnightblue" points="162.291,-89.5001 172.291,-86 162.291,-82.5001 162.291,-89.5001"/>
</g>
<!-- Node5 -->
<g id="node5" class="node"><title>Node5</title>
<g id="a_node5"><a xlink:href="class_s_a_m_1_1_message.html#a6c454eb827a3ba8d5b6cb842b5ff23b7" target="_top" xlink:title="SAM::Message::destGenerate">
<polygon fill="white" stroke="black" points="148,-38.5 148,-57.5 298,-57.5 298,-38.5 148,-38.5"/>
<text text-anchor="middle" x="223" y="-45.5" font-family="Helvetica,sans-Serif" font-size="10.00">SAM::Message::destGenerate</text>
</a>
</g>
</g>
<!-- Node1&#45;&gt;Node5 -->
<g id="edge5" class="edge"><title>Node1&#45;&gt;Node5</title>
<path fill="none" stroke="midnightblue" d="M112.402,-73.2408C131.202,-68.9111 152.114,-64.0949 170.59,-59.8398"/>
<polygon fill="midnightblue" stroke="midnightblue" points="171.615,-63.1954 180.575,-57.5403 170.044,-56.374 171.615,-63.1954"/>
</g>
<!-- Node7 -->
<g id="node7" class="node"><title>Node7</title>
<g id="a_node7"><a xlink:href="class_s_a_m_1_1_socket.html#a3455043c16c8ca5c64855e6ea3ff15e1" target="_top" xlink:title="SAM::Socket::read">
<polygon fill="white" stroke="black" points="173,-114.5 173,-133.5 273,-133.5 273,-114.5 173,-114.5"/>
<text text-anchor="middle" x="223" y="-121.5" font-family="Helvetica,sans-Serif" font-size="10.00">SAM::Socket::read</text>
</a>
</g>
</g>
<!-- Node1&#45;&gt;Node7 -->
<g id="edge7" class="edge"><title>Node1&#45;&gt;Node7</title>
<path fill="none" stroke="midnightblue" d="M112.402,-98.7592C131.202,-103.089 152.114,-107.905 170.59,-112.16"/>
<polygon fill="midnightblue" stroke="midnightblue" points="170.044,-115.626 180.575,-114.46 171.615,-108.805 170.044,-115.626"/>
</g>
<!-- Node8 -->
<g id="node8" class="node"><title>Node8</title>
<g id="a_node8"><a xlink:href="class_s_a_m_1_1_message.html#a134481a97dd531c7e5e11aeff965ea6c" target="_top" xlink:title="SAM::Message::getValue">
<polygon fill="white" stroke="black" points="158.5,-0.5 158.5,-19.5 287.5,-19.5 287.5,-0.5 158.5,-0.5"/>
<text text-anchor="middle" x="223" y="-7.5" font-family="Helvetica,sans-Serif" font-size="10.00">SAM::Message::getValue</text>
</a>
</g>
</g>
<!-- Node1&#45;&gt;Node8 -->
<g id="edge10" class="edge"><title>Node1&#45;&gt;Node8</title>
<path fill="none" stroke="midnightblue" d="M76.961,-70.9555C94.7627,-58.1758 121.962,-40.1767 148,-29 153.679,-26.5623 159.742,-24.3826 165.862,-22.4476"/>
<polygon fill="midnightblue" stroke="midnightblue" points="166.878,-25.7968 175.477,-19.6066 164.895,-19.0837 166.878,-25.7968"/>
</g>
<!-- Node3&#45;&gt;Node2 -->
<g id="edge3" class="edge"><title>Node3&#45;&gt;Node2</title>
<path fill="none" stroke="midnightblue" d="M273.583,-95.54C300.449,-100.709 333.834,-107.133 362.085,-112.568"/>
<polygon fill="midnightblue" stroke="midnightblue" points="361.758,-116.07 372.239,-114.522 363.081,-109.196 361.758,-116.07"/>
</g>
<!-- Node4 -->
<g id="node4" class="node"><title>Node4</title>
<g id="a_node4"><a xlink:href="class_s_a_m_1_1_socket.html#a4255f1f63449dfc32d012089ea73f5e7" target="_top" xlink:title="SAM::Socket::close">
<polygon fill="white" stroke="black" points="371,-76.5 371,-95.5 474,-95.5 474,-76.5 371,-76.5"/>
<text text-anchor="middle" x="422.5" y="-83.5" font-family="Helvetica,sans-Serif" font-size="10.00">SAM::Socket::close</text>
</a>
</g>
</g>
<!-- Node3&#45;&gt;Node4 -->
<g id="edge4" class="edge"><title>Node3&#45;&gt;Node4</title>
<path fill="none" stroke="midnightblue" d="M273.583,-86C300.042,-86 332.824,-86 360.797,-86"/>
<polygon fill="midnightblue" stroke="midnightblue" points="360.865,-89.5001 370.865,-86 360.865,-82.5001 360.865,-89.5001"/>
</g>
<!-- Node6 -->
<g id="node6" class="node"><title>Node6</title>
<g id="a_node6"><a xlink:href="class_s_a_m_1_1_message.html#a2e50d96be91972360cdeed02071ec8b3" target="_top" xlink:title="SAM::Message::createSAMRequest">
<polygon fill="white" stroke="black" points="334,-38.5 334,-57.5 511,-57.5 511,-38.5 334,-38.5"/>
<text text-anchor="middle" x="422.5" y="-45.5" font-family="Helvetica,sans-Serif" font-size="10.00">SAM::Message::createSAMRequest</text>
</a>
</g>
</g>
<!-- Node5&#45;&gt;Node6 -->
<g id="edge6" class="edge"><title>Node5&#45;&gt;Node6</title>
<path fill="none" stroke="midnightblue" d="M298.104,-48C306.443,-48 315.032,-48 323.613,-48"/>
<polygon fill="midnightblue" stroke="midnightblue" points="323.667,-51.5001 333.667,-48 323.667,-44.5001 323.667,-51.5001"/>
</g>
<!-- Node7&#45;&gt;Node2 -->
<g id="edge8" class="edge"><title>Node7&#45;&gt;Node2</title>
<path fill="none" stroke="midnightblue" d="M273.074,-124C300.037,-124 333.681,-124 362.117,-124"/>
<polygon fill="midnightblue" stroke="midnightblue" points="362.336,-127.5 372.336,-124 362.336,-120.5 362.336,-127.5"/>
</g>
<!-- Node7&#45;&gt;Node4 -->
<g id="edge9" class="edge"><title>Node7&#45;&gt;Node4</title>
<path fill="none" stroke="midnightblue" d="M273.074,-114.558C300.053,-109.367 333.721,-102.889 362.168,-97.4157"/>
<polygon fill="midnightblue" stroke="midnightblue" points="362.834,-100.852 371.993,-95.5254 361.512,-93.9779 362.834,-100.852"/>
</g>
</g>
</svg>
