<?xml version="1.0" encoding="UTF-8" standalone="no"?>
<!DOCTYPE svg PUBLIC "-//W3C//DTD SVG 1.1//EN"
 "http://www.w3.org/Graphics/SVG/1.1/DTD/svg11.dtd">
<!-- Generated by graphviz version 2.38.0 (20140413.2041)
 -->
<!-- Title: payments::Payment::transactions Pages: 1 -->
<svg width="508pt" height="149pt"
 viewBox="0.00 0.00 508.00 149.00" xmlns="http://www.w3.org/2000/svg" xmlns:xlink="http://www.w3.org/1999/xlink">
<g id="graph0" class="graph" transform="scale(1 1) rotate(0) translate(4 145)">
<title>payments::Payment::transactions</title>
<polygon fill="white" stroke="none" points="-4,4 -4,-145 504,-145 504,4 -4,4"/>
<!-- Node1 -->
<g id="node1" class="node"><title>Node1</title>
<polygon fill="#bfbfbf" stroke="black" points="0,-55.5 0,-85.5 110,-85.5 110,-55.5 0,-55.5"/>
<text text-anchor="start" x="8" y="-73.5" font-family="Helvetica,sans-Serif" font-size="10.00">payments::Payment::</text>
<text text-anchor="middle" x="55" y="-62.5" font-family="Helvetica,sans-Serif" font-size="10.00">transactions</text>
</g>
<!-- Node2 -->
<g id="node2" class="node"><title>Node2</title>
<g id="a_node2"><a xlink:href="classpayments_1_1_payment.html#a03f027ae665b71e8352219d8639e052e" target="_top" xlink:title="payments::Payment::\lSerializeWithCachedSizes">
<polygon fill="white" stroke="black" points="151.5,-110.5 151.5,-140.5 285.5,-140.5 285.5,-110.5 151.5,-110.5"/>
<text text-anchor="start" x="159.5" y="-128.5" font-family="Helvetica,sans-Serif" font-size="10.00">payments::Payment::</text>
<text text-anchor="middle" x="218.5" y="-117.5" font-family="Helvetica,sans-Serif" font-size="10.00">SerializeWithCachedSizes</text>
</a>
</g>
</g>
<!-- Node1&#45;&gt;Node2 -->
<g id="edge1" class="edge"><title>Node1&#45;&gt;Node2</title>
<path fill="none" stroke="midnightblue" d="M109.729,-88.7977C130.407,-95.8398 153.757,-103.792 173.423,-110.489"/>
<polygon fill="midnightblue" stroke="midnightblue" points="110.725,-85.4397 100.131,-85.529 108.468,-92.066 110.725,-85.4397"/>
</g>
<!-- Node3 -->
<g id="node3" class="node"><title>Node3</title>
<g id="a_node3"><a xlink:href="classpayments_1_1_payment.html#a78474e70bb668bc4c49e13a934ee3116" target="_top" xlink:title="payments::Payment::\lSerializeWithCachedSizesTo\lArray">
<polygon fill="white" stroke="black" points="146,-50 146,-91 291,-91 291,-50 146,-50"/>
<text text-anchor="start" x="154" y="-79" font-family="Helvetica,sans-Serif" font-size="10.00">payments::Payment::</text>
<text text-anchor="start" x="154" y="-68" font-family="Helvetica,sans-Serif" font-size="10.00">SerializeWithCachedSizesTo</text>
<text text-anchor="middle" x="218.5" y="-57" font-family="Helvetica,sans-Serif" font-size="10.00">Array</text>
</a>
</g>
</g>
<!-- Node1&#45;&gt;Node3 -->
<g id="edge2" class="edge"><title>Node1&#45;&gt;Node3</title>
<path fill="none" stroke="midnightblue" d="M120.334,-70.5C128.743,-70.5 137.4,-70.5 145.919,-70.5"/>
<polygon fill="midnightblue" stroke="midnightblue" points="120.226,-67.0001 110.226,-70.5 120.226,-74.0001 120.226,-67.0001"/>
</g>
<!-- Node4 -->
<g id="node4" class="node"><title>Node4</title>
<g id="a_node4"><a xlink:href="classpayments_1_1_payment.html#aad929aa08270759e3298e71e2a66aaed" target="_top" xlink:title="payments::Payment::\lByteSize">
<polygon fill="white" stroke="black" points="163.5,-0.5 163.5,-30.5 273.5,-30.5 273.5,-0.5 163.5,-0.5"/>
<text text-anchor="start" x="171.5" y="-18.5" font-family="Helvetica,sans-Serif" font-size="10.00">payments::Payment::</text>
<text text-anchor="middle" x="218.5" y="-7.5" font-family="Helvetica,sans-Serif" font-size="10.00">ByteSize</text>
</a>
</g>
</g>
<!-- Node1&#45;&gt;Node4 -->
<g id="edge3" class="edge"><title>Node1&#45;&gt;Node4</title>
<path fill="none" stroke="midnightblue" d="M109.729,-52.2023C130.407,-45.1602 153.757,-37.2081 173.423,-30.5108"/>
<polygon fill="midnightblue" stroke="midnightblue" points="108.468,-48.934 100.131,-55.471 110.725,-55.5603 108.468,-48.934"/>
</g>
<!-- Node5 -->
<g id="node5" class="node"><title>Node5</title>
<g id="a_node5"><a xlink:href="class_payment_server.html#ab846f9e8778e5cc878b644133e8628f1" target="_top" xlink:title="PaymentServer::fetchPaymentACK">
<polygon fill="white" stroke="black" points="327,-6 327,-25 500,-25 500,-6 327,-6"/>
<text text-anchor="middle" x="413.5" y="-13" font-family="Helvetica,sans-Serif" font-size="10.00">PaymentServer::fetchPaymentACK</text>
</a>
</g>
</g>
<!-- Node4&#45;&gt;Node5 -->
<g id="edge4" class="edge"><title>Node4&#45;&gt;Node5</title>
<path fill="none" stroke="midnightblue" d="M283.81,-15.5C297.548,-15.5 312.269,-15.5 326.669,-15.5"/>
<polygon fill="midnightblue" stroke="midnightblue" points="283.518,-12.0001 273.518,-15.5 283.518,-19.0001 283.518,-12.0001"/>
</g>
</g>
</svg>
