<?xml version="1.0" encoding="UTF-8" standalone="no"?>
<!DOCTYPE svg PUBLIC "-//W3C//DTD SVG 1.1//EN"
 "http://www.w3.org/Graphics/SVG/1.1/DTD/svg11.dtd">
<!-- Generated by graphviz version 2.38.0 (20140413.2041)
 -->
<!-- Title: CBlockTreeDB::WriteFlag Pages: 1 -->
<svg width="686pt" height="66pt"
 viewBox="0.00 0.00 686.00 66.00" xmlns="http://www.w3.org/2000/svg" xmlns:xlink="http://www.w3.org/1999/xlink">
<g id="graph0" class="graph" transform="scale(1 1) rotate(0) translate(4 62)">
<title>CBlockTreeDB::WriteFlag</title>
<polygon fill="white" stroke="none" points="-4,4 -4,-62 682,-62 682,4 -4,4"/>
<!-- Node1 -->
<g id="node1" class="node"><title>Node1</title>
<polygon fill="#bfbfbf" stroke="black" points="0,-19.5 0,-38.5 131,-38.5 131,-19.5 0,-19.5"/>
<text text-anchor="middle" x="65.5" y="-26.5" font-family="Helvetica,sans-Serif" font-size="10.00">CBlockTreeDB::WriteFlag</text>
</g>
<!-- Node2 -->
<g id="node2" class="node"><title>Node2</title>
<g id="a_node2"><a xlink:href="main_8h.html#a92e5e1fcbd56cc44c27d39b64da8a79a" target="_top" xlink:title="Initialize a new block tree database + block data on disk. ">
<polygon fill="white" stroke="black" points="167,-19.5 167,-38.5 246,-38.5 246,-19.5 167,-19.5"/>
<text text-anchor="middle" x="206.5" y="-26.5" font-family="Helvetica,sans-Serif" font-size="10.00">InitBlockIndex</text>
</a>
</g>
</g>
<!-- Node1&#45;&gt;Node2 -->
<g id="edge1" class="edge"><title>Node1&#45;&gt;Node2</title>
<path fill="none" stroke="midnightblue" d="M141.134,-29C149.992,-29 158.738,-29 166.792,-29"/>
<polygon fill="midnightblue" stroke="midnightblue" points="141.117,-25.5001 131.117,-29 141.117,-32.5001 141.117,-25.5001"/>
</g>
<!-- Node3 -->
<g id="node3" class="node"><title>Node3</title>
<g id="a_node3"><a xlink:href="init_8cpp.html#a0189c34248cd89bbbe20d4d6045bd7c9" target="_top" xlink:title="ThreadImport">
<polygon fill="white" stroke="black" points="282,-38.5 282,-57.5 359,-57.5 359,-38.5 282,-38.5"/>
<text text-anchor="middle" x="320.5" y="-45.5" font-family="Helvetica,sans-Serif" font-size="10.00">ThreadImport</text>
</a>
</g>
</g>
<!-- Node2&#45;&gt;Node3 -->
<g id="edge2" class="edge"><title>Node2&#45;&gt;Node3</title>
<path fill="none" stroke="midnightblue" d="M255.971,-37.2228C264.564,-38.6805 273.398,-40.179 281.643,-41.5778"/>
<polygon fill="midnightblue" stroke="midnightblue" points="256.489,-33.7606 246.044,-35.5387 255.318,-40.662 256.489,-33.7606"/>
</g>
<!-- Node4 -->
<g id="node4" class="node"><title>Node4</title>
<g id="a_node4"><a xlink:href="init_8h.html#a1a4c1bfbf6ba1db77e988b89b9cadfd3" target="_top" xlink:title="Initialize anoncoin. ">
<polygon fill="white" stroke="black" points="395,-19.5 395,-38.5 448,-38.5 448,-19.5 395,-19.5"/>
<text text-anchor="middle" x="421.5" y="-26.5" font-family="Helvetica,sans-Serif" font-size="10.00">AppInit2</text>
</a>
</g>
</g>
<!-- Node2&#45;&gt;Node4 -->
<g id="edge7" class="edge"><title>Node2&#45;&gt;Node4</title>
<path fill="none" stroke="midnightblue" d="M256.081,-29C299.254,-29 360.677,-29 394.92,-29"/>
<polygon fill="midnightblue" stroke="midnightblue" points="256.073,-25.5001 246.073,-29 256.073,-32.5001 256.073,-25.5001"/>
</g>
<!-- Node3&#45;&gt;Node4 -->
<g id="edge3" class="edge"><title>Node3&#45;&gt;Node4</title>
<path fill="none" stroke="midnightblue" d="M369.138,-38.8574C378.015,-37.1537 386.972,-35.4346 394.865,-33.9198"/>
<polygon fill="midnightblue" stroke="midnightblue" points="368.371,-35.4406 359.21,-40.7627 369.691,-42.3151 368.371,-35.4406"/>
</g>
<!-- Node5 -->
<g id="node5" class="node"><title>Node5</title>
<g id="a_node5"><a xlink:href="anoncoind_8cpp.html#ac59316b767e6984e1285f0531275286b" target="_top" xlink:title="AppInit">
<polygon fill="white" stroke="black" points="520,-38.5 520,-57.5 568,-57.5 568,-38.5 520,-38.5"/>
<text text-anchor="middle" x="544" y="-45.5" font-family="Helvetica,sans-Serif" font-size="10.00">AppInit</text>
</a>
</g>
</g>
<!-- Node4&#45;&gt;Node5 -->
<g id="edge4" class="edge"><title>Node4&#45;&gt;Node5</title>
<path fill="none" stroke="midnightblue" d="M458.05,-34.6053C478.041,-37.7576 502.421,-41.6017 519.927,-44.3619"/>
<polygon fill="midnightblue" stroke="midnightblue" points="458.478,-31.1297 448.055,-33.0294 457.388,-38.0443 458.478,-31.1297"/>
</g>
<!-- Node7 -->
<g id="node7" class="node"><title>Node7</title>
<g id="a_node7"><a xlink:href="class_anoncoin_coin.html#a9510881824d283404ac43414dbb74586" target="_top" xlink:title="AnoncoinCoin::initialize">
<polygon fill="white" stroke="black" points="484,-0.5 484,-19.5 604,-19.5 604,-0.5 484,-0.5"/>
<text text-anchor="middle" x="544" y="-7.5" font-family="Helvetica,sans-Serif" font-size="10.00">AnoncoinCoin::initialize</text>
</a>
</g>
</g>
<!-- Node4&#45;&gt;Node7 -->
<g id="edge6" class="edge"><title>Node4&#45;&gt;Node7</title>
<path fill="none" stroke="midnightblue" d="M458.186,-23.3732C466.249,-22.1018 475.021,-20.7186 483.765,-19.34"/>
<polygon fill="midnightblue" stroke="midnightblue" points="457.388,-19.9557 448.055,-24.9706 458.478,-26.8703 457.388,-19.9557"/>
</g>
<!-- Node6 -->
<g id="node6" class="node"><title>Node6</title>
<g id="a_node6"><a xlink:href="anoncoind_8cpp.html#a0ddf1224851353fc92bfbff6f499fa97" target="_top" xlink:title="main">
<polygon fill="white" stroke="black" points="640,-38.5 640,-57.5 678,-57.5 678,-38.5 640,-38.5"/>
<text text-anchor="middle" x="659" y="-45.5" font-family="Helvetica,sans-Serif" font-size="10.00">main</text>
</a>
</g>
</g>
<!-- Node5&#45;&gt;Node6 -->
<g id="edge5" class="edge"><title>Node5&#45;&gt;Node6</title>
<path fill="none" stroke="midnightblue" d="M578.146,-48C598.247,-48 623.134,-48 639.731,-48"/>
<polygon fill="midnightblue" stroke="midnightblue" points="578.14,-44.5001 568.14,-48 578.14,-51.5001 578.14,-44.5001"/>
</g>
</g>
</svg>
