<?xml version="1.0" encoding="UTF-8" standalone="no"?>
<!DOCTYPE svg PUBLIC "-//W3C//DTD SVG 1.1//EN"
 "http://www.w3.org/Graphics/SVG/1.1/DTD/svg11.dtd">
<!-- Generated by graphviz version 2.38.0 (20140413.2041)
 -->
<!-- Title: TransactionView::copyTxID Pages: 1 -->
<svg width="448pt" height="28pt"
 viewBox="0.00 0.00 448.00 28.00" xmlns="http://www.w3.org/2000/svg" xmlns:xlink="http://www.w3.org/1999/xlink">
<g id="graph0" class="graph" transform="scale(1 1) rotate(0) translate(4 24)">
<title>TransactionView::copyTxID</title>
<polygon fill="white" stroke="none" points="-4,4 -4,-24 444,-24 444,4 -4,4"/>
<!-- Node1 -->
<g id="node1" class="node"><title>Node1</title>
<polygon fill="#bfbfbf" stroke="black" points="0,-0.5 0,-19.5 138,-19.5 138,-0.5 0,-0.5"/>
<text text-anchor="middle" x="69" y="-7.5" font-family="Helvetica,sans-Serif" font-size="10.00">TransactionView::copyTxID</text>
</g>
<!-- Node2 -->
<g id="node2" class="node"><title>Node2</title>
<g id="a_node2"><a xlink:href="namespace_g_u_i_util.html#ae231227ad96528c828e1c846f253f642" target="_top" xlink:title="Copy a field of the currently selected entry of a view to the clipboard. ">
<polygon fill="white" stroke="black" points="174,-0.5 174,-19.5 294,-19.5 294,-0.5 174,-0.5"/>
<text text-anchor="middle" x="234" y="-7.5" font-family="Helvetica,sans-Serif" font-size="10.00">GUIUtil::copyEntryData</text>
</a>
</g>
</g>
<!-- Node1&#45;&gt;Node2 -->
<g id="edge1" class="edge"><title>Node1&#45;&gt;Node2</title>
<path fill="none" stroke="midnightblue" d="M138.182,-10C146.617,-10 155.248,-10 163.699,-10"/>
<polygon fill="midnightblue" stroke="midnightblue" points="163.894,-13.5001 173.894,-10 163.894,-6.5001 163.894,-13.5001"/>
</g>
<!-- Node3 -->
<g id="node3" class="node"><title>Node3</title>
<g id="a_node3"><a xlink:href="namespace_g_u_i_util.html#aef655b19f129179ca32f11a4d0da1a07" target="_top" xlink:title="GUIUtil::setClipboard">
<polygon fill="white" stroke="black" points="330,-0.5 330,-19.5 440,-19.5 440,-0.5 330,-0.5"/>
<text text-anchor="middle" x="385" y="-7.5" font-family="Helvetica,sans-Serif" font-size="10.00">GUIUtil::setClipboard</text>
</a>
</g>
</g>
<!-- Node2&#45;&gt;Node3 -->
<g id="edge2" class="edge"><title>Node2&#45;&gt;Node3</title>
<path fill="none" stroke="midnightblue" d="M294.317,-10C302.625,-10 311.196,-10 319.593,-10"/>
<polygon fill="midnightblue" stroke="midnightblue" points="319.72,-13.5001 329.72,-10 319.72,-6.5001 319.72,-13.5001"/>
</g>
</g>
</svg>
