<?xml version="1.0" encoding="UTF-8" standalone="no"?>
<!DOCTYPE svg PUBLIC "-//W3C//DTD SVG 1.1//EN"
 "http://www.w3.org/Graphics/SVG/1.1/DTD/svg11.dtd">
<!-- Generated by graphviz version 2.38.0 (20140413.2041)
 -->
<!-- Title: CAddrMan::Add_ Pages: 1 -->
<svg width="807pt" height="66pt"
 viewBox="0.00 0.00 807.00 66.00" xmlns="http://www.w3.org/2000/svg" xmlns:xlink="http://www.w3.org/1999/xlink">
<g id="graph0" class="graph" transform="scale(1 1) rotate(0) translate(4 62)">
<title>CAddrMan::Add_</title>
<polygon fill="white" stroke="none" points="-4,4 -4,-62 803,-62 803,4 -4,4"/>
<!-- Node1 -->
<g id="node1" class="node"><title>Node1</title>
<polygon fill="#bfbfbf" stroke="black" points="0,-19.5 0,-38.5 93,-38.5 93,-19.5 0,-19.5"/>
<text text-anchor="middle" x="46.5" y="-26.5" font-family="Helvetica,sans-Serif" font-size="10.00">CAddrMan::Add_</text>
</g>
<!-- Node2 -->
<g id="node2" class="node"><title>Node2</title>
<g id="a_node2"><a xlink:href="class_c_addr_man.html#a03fcc7109b5f014760dc50a81f68c5ec" target="_top" xlink:title="CAddrMan::Add">
<polygon fill="white" stroke="black" points="129,-19.5 129,-38.5 217,-38.5 217,-19.5 129,-19.5"/>
<text text-anchor="middle" x="173" y="-26.5" font-family="Helvetica,sans-Serif" font-size="10.00">CAddrMan::Add</text>
</a>
</g>
</g>
<!-- Node1&#45;&gt;Node2 -->
<g id="edge1" class="edge"><title>Node1&#45;&gt;Node2</title>
<path fill="none" stroke="midnightblue" d="M103.429,-29C111.955,-29 120.641,-29 128.838,-29"/>
<polygon fill="midnightblue" stroke="midnightblue" points="103.152,-25.5001 93.1523,-29 103.152,-32.5001 103.152,-25.5001"/>
</g>
<!-- Node3 -->
<g id="node3" class="node"><title>Node3</title>
<g id="a_node3"><a xlink:href="net_8cpp.html#ab2d8883b5524ec7b80d3b9535e73a3ed" target="_top" xlink:title="Process DNS seed data from chainparams. ">
<polygon fill="white" stroke="black" points="253,-38.5 253,-57.5 382,-57.5 382,-38.5 253,-38.5"/>
<text text-anchor="middle" x="317.5" y="-45.5" font-family="Helvetica,sans-Serif" font-size="10.00">ThreadDNSAddressSeed</text>
</a>
</g>
</g>
<!-- Node2&#45;&gt;Node3 -->
<g id="edge2" class="edge"><title>Node2&#45;&gt;Node3</title>
<path fill="none" stroke="midnightblue" d="M227.118,-36.0823C235.469,-37.1958 244.176,-38.3567 252.737,-39.4982"/>
<polygon fill="midnightblue" stroke="midnightblue" points="227.516,-32.6046 217.141,-34.7522 226.591,-39.5432 227.516,-32.6046"/>
</g>
<!-- Node9 -->
<g id="node9" class="node"><title>Node9</title>
<g id="a_node9"><a xlink:href="net_8cpp.html#a3b4720330e61127963a43df26b80f804" target="_top" xlink:title="ThreadOpenConnections">
<polygon fill="white" stroke="black" points="253.5,-0.5 253.5,-19.5 381.5,-19.5 381.5,-0.5 253.5,-0.5"/>
<text text-anchor="middle" x="317.5" y="-7.5" font-family="Helvetica,sans-Serif" font-size="10.00">ThreadOpenConnections</text>
</a>
</g>
</g>
<!-- Node2&#45;&gt;Node9 -->
<g id="edge8" class="edge"><title>Node2&#45;&gt;Node9</title>
<path fill="none" stroke="midnightblue" d="M227.266,-21.8978C235.743,-20.7675 244.584,-19.5888 253.264,-18.4315"/>
<polygon fill="midnightblue" stroke="midnightblue" points="226.591,-18.4568 217.141,-23.2478 227.516,-25.3954 226.591,-18.4568"/>
</g>
<!-- Node4 -->
<g id="node4" class="node"><title>Node4</title>
<g id="a_node4"><a xlink:href="net_8h.html#a9396d8054e8f74959e9391871aaddde0" target="_top" xlink:title="StartNode">
<polygon fill="white" stroke="black" points="418,-19.5 418,-38.5 480,-38.5 480,-19.5 418,-19.5"/>
<text text-anchor="middle" x="449" y="-26.5" font-family="Helvetica,sans-Serif" font-size="10.00">StartNode</text>
</a>
</g>
</g>
<!-- Node3&#45;&gt;Node4 -->
<g id="edge3" class="edge"><title>Node3&#45;&gt;Node4</title>
<path fill="none" stroke="midnightblue" d="M392.266,-37.1771C401.206,-35.8656 409.911,-34.5884 417.683,-33.4481"/>
<polygon fill="midnightblue" stroke="midnightblue" points="391.498,-33.7523 382.112,-38.667 392.514,-40.6782 391.498,-33.7523"/>
</g>
<!-- Node5 -->
<g id="node5" class="node"><title>Node5</title>
<g id="a_node5"><a xlink:href="init_8h.html#a1a4c1bfbf6ba1db77e988b89b9cadfd3" target="_top" xlink:title="Initialize anoncoin. ">
<polygon fill="white" stroke="black" points="516,-19.5 516,-38.5 569,-38.5 569,-19.5 516,-19.5"/>
<text text-anchor="middle" x="542.5" y="-26.5" font-family="Helvetica,sans-Serif" font-size="10.00">AppInit2</text>
</a>
</g>
</g>
<!-- Node4&#45;&gt;Node5 -->
<g id="edge4" class="edge"><title>Node4&#45;&gt;Node5</title>
<path fill="none" stroke="midnightblue" d="M490.243,-29C498.959,-29 507.944,-29 515.91,-29"/>
<polygon fill="midnightblue" stroke="midnightblue" points="490.214,-25.5001 480.214,-29 490.214,-32.5001 490.214,-25.5001"/>
</g>
<!-- Node6 -->
<g id="node6" class="node"><title>Node6</title>
<g id="a_node6"><a xlink:href="anoncoind_8cpp.html#ac59316b767e6984e1285f0531275286b" target="_top" xlink:title="AppInit">
<polygon fill="white" stroke="black" points="641,-38.5 641,-57.5 689,-57.5 689,-38.5 641,-38.5"/>
<text text-anchor="middle" x="665" y="-45.5" font-family="Helvetica,sans-Serif" font-size="10.00">AppInit</text>
</a>
</g>
</g>
<!-- Node5&#45;&gt;Node6 -->
<g id="edge5" class="edge"><title>Node5&#45;&gt;Node6</title>
<path fill="none" stroke="midnightblue" d="M579.05,-34.6053C599.041,-37.7576 623.421,-41.6017 640.927,-44.3619"/>
<polygon fill="midnightblue" stroke="midnightblue" points="579.478,-31.1297 569.055,-33.0294 578.388,-38.0443 579.478,-31.1297"/>
</g>
<!-- Node8 -->
<g id="node8" class="node"><title>Node8</title>
<g id="a_node8"><a xlink:href="class_anoncoin_coin.html#a9510881824d283404ac43414dbb74586" target="_top" xlink:title="AnoncoinCoin::initialize">
<polygon fill="white" stroke="black" points="605,-0.5 605,-19.5 725,-19.5 725,-0.5 605,-0.5"/>
<text text-anchor="middle" x="665" y="-7.5" font-family="Helvetica,sans-Serif" font-size="10.00">AnoncoinCoin::initialize</text>
</a>
</g>
</g>
<!-- Node5&#45;&gt;Node8 -->
<g id="edge7" class="edge"><title>Node5&#45;&gt;Node8</title>
<path fill="none" stroke="midnightblue" d="M579.186,-23.3732C587.249,-22.1018 596.021,-20.7186 604.765,-19.34"/>
<polygon fill="midnightblue" stroke="midnightblue" points="578.388,-19.9557 569.055,-24.9706 579.478,-26.8703 578.388,-19.9557"/>
</g>
<!-- Node7 -->
<g id="node7" class="node"><title>Node7</title>
<g id="a_node7"><a xlink:href="anoncoind_8cpp.html#a0ddf1224851353fc92bfbff6f499fa97" target="_top" xlink:title="main">
<polygon fill="white" stroke="black" points="761,-38.5 761,-57.5 799,-57.5 799,-38.5 761,-38.5"/>
<text text-anchor="middle" x="780" y="-45.5" font-family="Helvetica,sans-Serif" font-size="10.00">main</text>
</a>
</g>
</g>
<!-- Node6&#45;&gt;Node7 -->
<g id="edge6" class="edge"><title>Node6&#45;&gt;Node7</title>
<path fill="none" stroke="midnightblue" d="M699.146,-48C719.247,-48 744.134,-48 760.731,-48"/>
<polygon fill="midnightblue" stroke="midnightblue" points="699.14,-44.5001 689.14,-48 699.14,-51.5001 699.14,-44.5001"/>
</g>
<!-- Node9&#45;&gt;Node4 -->
<g id="edge9" class="edge"><title>Node9&#45;&gt;Node4</title>
<path fill="none" stroke="midnightblue" d="M391.741,-20.7458C400.914,-22.0916 409.855,-23.4035 417.812,-24.5708"/>
<polygon fill="midnightblue" stroke="midnightblue" points="392.135,-17.2662 381.733,-19.2774 391.119,-24.192 392.135,-17.2662"/>
</g>
</g>
</svg>
