<?xml version="1.0" encoding="UTF-8" standalone="no"?>
<!DOCTYPE svg PUBLIC "-//W3C//DTD SVG 1.1//EN"
 "http://www.w3.org/Graphics/SVG/1.1/DTD/svg11.dtd">
<!-- Generated by graphviz version 2.38.0 (20140413.2041)
 -->
<!-- Title: CBloomFilter::insert Pages: 1 -->
<svg width="456pt" height="66pt"
 viewBox="0.00 0.00 456.00 66.00" xmlns="http://www.w3.org/2000/svg" xmlns:xlink="http://www.w3.org/1999/xlink">
<g id="graph0" class="graph" transform="scale(1 1) rotate(0) translate(4 62)">
<title>CBloomFilter::insert</title>
<polygon fill="white" stroke="none" points="-4,4 -4,-62 452,-62 452,4 -4,4"/>
<!-- Node1 -->
<g id="node1" class="node"><title>Node1</title>
<polygon fill="#bfbfbf" stroke="black" points="0,-19.5 0,-38.5 104,-38.5 104,-19.5 0,-19.5"/>
<text text-anchor="middle" x="52" y="-26.5" font-family="Helvetica,sans-Serif" font-size="10.00">CBloomFilter::insert</text>
</g>
<!-- Node2 -->
<g id="node2" class="node"><title>Node2</title>
<g id="a_node2"><a xlink:href="class_c_bloom_filter.html#a544848eeef17b19bf51fbfe9b5f2d87e" target="_top" xlink:title="CBloomFilter::IsRelevant\lAndUpdate">
<polygon fill="white" stroke="black" points="140,-14 140,-44 267,-44 267,-14 140,-14"/>
<text text-anchor="start" x="148" y="-32" font-family="Helvetica,sans-Serif" font-size="10.00">CBloomFilter::IsRelevant</text>
<text text-anchor="middle" x="203.5" y="-21" font-family="Helvetica,sans-Serif" font-size="10.00">AndUpdate</text>
</a>
</g>
</g>
<!-- Node1&#45;&gt;Node2 -->
<g id="edge1" class="edge"><title>Node1&#45;&gt;Node2</title>
<path fill="none" stroke="midnightblue" d="M114.187,-29C122.634,-29 131.321,-29 139.796,-29"/>
<polygon fill="midnightblue" stroke="midnightblue" points="114.031,-25.5001 104.031,-29 114.031,-32.5001 114.031,-25.5001"/>
</g>
<!-- Node3 -->
<g id="node3" class="node"><title>Node3</title>
<g id="a_node3"><a xlink:href="class_c_merkle_block.html#a5d08ce7034216ca25b0f9eab6bf8c389" target="_top" xlink:title="CMerkleBlock::CMerkleBlock">
<polygon fill="white" stroke="black" points="303,-38.5 303,-57.5 448,-57.5 448,-38.5 303,-38.5"/>
<text text-anchor="middle" x="375.5" y="-45.5" font-family="Helvetica,sans-Serif" font-size="10.00">CMerkleBlock::CMerkleBlock</text>
</a>
</g>
</g>
<!-- Node2&#45;&gt;Node3 -->
<g id="edge2" class="edge"><title>Node2&#45;&gt;Node3</title>
<path fill="none" stroke="midnightblue" d="M277.45,-37.1532C285.839,-38.0908 294.388,-39.0463 302.761,-39.9821"/>
<polygon fill="midnightblue" stroke="midnightblue" points="277.646,-33.6534 267.319,-36.0209 276.868,-40.6101 277.646,-33.6534"/>
</g>
<!-- Node4 -->
<g id="node4" class="node"><title>Node4</title>
<g id="a_node4"><a xlink:href="net_8h.html#aa7eea5ebcc85b5a7a0ae3716608bfffe" target="_top" xlink:title="RelayTransaction">
<polygon fill="white" stroke="black" points="328.5,-0.5 328.5,-19.5 422.5,-19.5 422.5,-0.5 328.5,-0.5"/>
<text text-anchor="middle" x="375.5" y="-7.5" font-family="Helvetica,sans-Serif" font-size="10.00">RelayTransaction</text>
</a>
</g>
</g>
<!-- Node2&#45;&gt;Node4 -->
<g id="edge3" class="edge"><title>Node2&#45;&gt;Node4</title>
<path fill="none" stroke="midnightblue" d="M277.404,-20.8519C294.706,-18.9182 312.69,-16.9082 328.41,-15.1513"/>
<polygon fill="midnightblue" stroke="midnightblue" points="276.868,-17.3899 267.319,-21.9791 277.646,-24.3466 276.868,-17.3899"/>
</g>
</g>
</svg>
