<?xml version="1.0" encoding="UTF-8" standalone="no"?>
<!DOCTYPE svg PUBLIC "-//W3C//DTD SVG 1.1//EN"
 "http://www.w3.org/Graphics/SVG/1.1/DTD/svg11.dtd">
<!-- Generated by graphviz version 2.38.0 (20140413.2041)
 -->
<!-- Title: COutput Pages: 1 -->
<svg width="1130pt" height="256pt"
 viewBox="0.00 0.00 1130.00 256.00" xmlns="http://www.w3.org/2000/svg" xmlns:xlink="http://www.w3.org/1999/xlink">
<g id="graph0" class="graph" transform="scale(1 1) rotate(0) translate(4 252)">
<title>COutput</title>
<polygon fill="white" stroke="none" points="-4,4 -4,-252 1126,-252 1126,4 -4,4"/>
<!-- Node1 -->
<g id="node1" class="node"><title>Node1</title>
<polygon fill="#bfbfbf" stroke="black" points="1068,-155.5 1068,-174.5 1122,-174.5 1122,-155.5 1068,-155.5"/>
<text text-anchor="middle" x="1095" y="-162.5" font-family="Helvetica,sans-Serif" font-size="10.00">COutput</text>
</g>
<!-- Node2 -->
<g id="node2" class="node"><title>Node2</title>
<g id="a_node2"><a xlink:href="class_c_wallet_tx.html" target="_top" xlink:title="A transaction with a bunch of additional info that only the owner cares about. ">
<polygon fill="white" stroke="black" points="958,-155.5 958,-174.5 1021,-174.5 1021,-155.5 958,-155.5"/>
<text text-anchor="middle" x="989.5" y="-162.5" font-family="Helvetica,sans-Serif" font-size="10.00">CWalletTx</text>
</a>
</g>
</g>
<!-- Node2&#45;&gt;Node1 -->
<g id="edge1" class="edge"><title>Node2&#45;&gt;Node1</title>
<path fill="none" stroke="#9a32cd" stroke-dasharray="5,2" d="M1031.3,-165C1043.56,-165 1056.67,-165 1067.72,-165"/>
<polygon fill="#9a32cd" stroke="#9a32cd" points="1031.27,-161.5 1021.27,-165 1031.27,-168.5 1031.27,-161.5"/>
<text text-anchor="middle" x="1044.5" y="-168" font-family="Helvetica,sans-Serif" font-size="10.00"> tx</text>
</g>
<!-- Node3 -->
<g id="node3" class="node"><title>Node3</title>
<g id="a_node3"><a xlink:href="class_c_merkle_tx.html" target="_top" xlink:title="A transaction with a merkle branch linking it to the block chain. ">
<polygon fill="white" stroke="black" points="823,-190.5 823,-209.5 888,-209.5 888,-190.5 823,-190.5"/>
<text text-anchor="middle" x="855.5" y="-197.5" font-family="Helvetica,sans-Serif" font-size="10.00">CMerkleTx</text>
</a>
</g>
</g>
<!-- Node3&#45;&gt;Node2 -->
<g id="edge2" class="edge"><title>Node3&#45;&gt;Node2</title>
<path fill="none" stroke="midnightblue" d="M897.877,-189.029C917.194,-183.907 939.796,-177.914 957.596,-173.194"/>
<polygon fill="midnightblue" stroke="midnightblue" points="896.886,-185.671 888.117,-191.617 898.68,-192.437 896.886,-185.671"/>
</g>
<!-- Node4 -->
<g id="node4" class="node"><title>Node4</title>
<g id="a_node4"><a xlink:href="class_c_transaction.html" target="_top" xlink:title="The basic transaction that is broadcasted on the network and contained in blocks. ...">
<polygon fill="white" stroke="black" points="609,-228.5 609,-247.5 685,-247.5 685,-228.5 609,-228.5"/>
<text text-anchor="middle" x="647" y="-235.5" font-family="Helvetica,sans-Serif" font-size="10.00">CTransaction</text>
</a>
</g>
</g>
<!-- Node4&#45;&gt;Node3 -->
<g id="edge3" class="edge"><title>Node4&#45;&gt;Node3</title>
<path fill="none" stroke="midnightblue" d="M695.281,-232.934C726.62,-229.121 768.527,-223.15 805,-215 811.748,-213.492 818.915,-211.534 825.638,-209.534"/>
<polygon fill="midnightblue" stroke="midnightblue" points="694.599,-229.49 685.081,-234.145 695.424,-236.442 694.599,-229.49"/>
</g>
<!-- Node5 -->
<g id="node5" class="node"><title>Node5</title>
<g id="a_node5"><a xlink:href="classuint256.html" target="_top" xlink:title="256&#45;bit unsigned integer ">
<polygon fill="white" stroke="black" points="622.5,-190.5 622.5,-209.5 671.5,-209.5 671.5,-190.5 622.5,-190.5"/>
<text text-anchor="middle" x="647" y="-197.5" font-family="Helvetica,sans-Serif" font-size="10.00">uint256</text>
</a>
</g>
</g>
<!-- Node5&#45;&gt;Node3 -->
<g id="edge4" class="edge"><title>Node5&#45;&gt;Node3</title>
<path fill="none" stroke="#9a32cd" stroke-dasharray="5,2" d="M682.007,-200C721.043,-200 784.572,-200 822.669,-200"/>
<polygon fill="#9a32cd" stroke="#9a32cd" points="681.688,-196.5 671.688,-200 681.688,-203.5 681.688,-196.5"/>
<text text-anchor="middle" x="758.5" y="-203" font-family="Helvetica,sans-Serif" font-size="10.00"> hashBlock</text>
</g>
<!-- Node6 -->
<g id="node6" class="node"><title>Node6</title>
<g id="a_node6"><a xlink:href="classbase__uint.html" target="_top" xlink:title="Base class without constructors for uint256 and uint160. ">
<polygon fill="white" stroke="black" points="480,-191.5 480,-210.5 557,-210.5 557,-191.5 480,-191.5"/>
<text text-anchor="middle" x="518.5" y="-198.5" font-family="Helvetica,sans-Serif" font-size="10.00">base_uint256</text>
</a>
</g>
</g>
<!-- Node6&#45;&gt;Node5 -->
<g id="edge5" class="edge"><title>Node6&#45;&gt;Node5</title>
<path fill="none" stroke="midnightblue" d="M567.303,-200.622C586.087,-200.474 606.807,-200.31 622.27,-200.188"/>
<polygon fill="midnightblue" stroke="midnightblue" points="567.084,-197.124 557.112,-200.703 567.139,-204.123 567.084,-197.124"/>
</g>
<!-- Node7 -->
<g id="node7" class="node"><title>Node7</title>
<g id="a_node7"><a xlink:href="class_c_wallet.html" target="_top" xlink:title="A CWallet is an extension of a keystore, which also maintains a set of transactions and balances...">
<polygon fill="white" stroke="black" points="829.5,-87.5 829.5,-106.5 881.5,-106.5 881.5,-87.5 829.5,-87.5"/>
<text text-anchor="middle" x="855.5" y="-94.5" font-family="Helvetica,sans-Serif" font-size="10.00">CWallet</text>
</a>
</g>
</g>
<!-- Node7&#45;&gt;Node2 -->
<g id="edge6" class="edge"><title>Node7&#45;&gt;Node2</title>
<path fill="none" stroke="#9a32cd" stroke-dasharray="5,2" d="M884.033,-111.184C909.805,-124.46 947.6,-143.93 969.962,-155.45"/>
<polygon fill="#9a32cd" stroke="#9a32cd" points="885.625,-108.067 875.132,-106.599 882.419,-114.29 885.625,-108.067"/>
<text text-anchor="middle" x="923" y="-142" font-family="Helvetica,sans-Serif" font-size="10.00"> pwallet</text>
</g>
<!-- Node8 -->
<g id="node8" class="node"><title>Node8</title>
<g id="a_node8"><a xlink:href="class_c_crypto_key_store.html" target="_top" xlink:title="Keystore which keeps the private keys encrypted. ">
<polygon fill="white" stroke="black" points="600,-114.5 600,-133.5 694,-133.5 694,-114.5 600,-114.5"/>
<text text-anchor="middle" x="647" y="-121.5" font-family="Helvetica,sans-Serif" font-size="10.00">CCryptoKeyStore</text>
</a>
</g>
</g>
<!-- Node8&#45;&gt;Node7 -->
<g id="edge7" class="edge"><title>Node8&#45;&gt;Node7</title>
<path fill="none" stroke="midnightblue" d="M704.303,-117.018C734.226,-113.26 771.627,-108.485 805,-104 812.914,-102.936 821.532,-101.733 829.327,-100.628"/>
<polygon fill="midnightblue" stroke="midnightblue" points="703.537,-113.587 694.05,-118.303 704.407,-120.532 703.537,-113.587"/>
</g>
<!-- Node9 -->
<g id="node9" class="node"><title>Node9</title>
<g id="a_node9"><a xlink:href="class_c_basic_key_store.html" target="_top" xlink:title="Basic key store, that keeps keys in an address&#45;&gt;secret map. ">
<polygon fill="white" stroke="black" points="474,-106.5 474,-125.5 563,-125.5 563,-106.5 474,-106.5"/>
<text text-anchor="middle" x="518.5" y="-113.5" font-family="Helvetica,sans-Serif" font-size="10.00">CBasicKeyStore</text>
</a>
</g>
</g>
<!-- Node9&#45;&gt;Node8 -->
<g id="edge8" class="edge"><title>Node9&#45;&gt;Node8</title>
<path fill="none" stroke="midnightblue" d="M573.246,-119.399C582.08,-119.958 591.167,-120.532 599.796,-121.078"/>
<polygon fill="midnightblue" stroke="midnightblue" points="573.235,-115.891 563.034,-118.753 572.793,-122.877 573.235,-115.891"/>
</g>
<!-- Node10 -->
<g id="node10" class="node"><title>Node10</title>
<g id="a_node10"><a xlink:href="class_c_key_store.html" target="_top" xlink:title="A virtual base class for key stores. ">
<polygon fill="white" stroke="black" points="372,-112.5 372,-131.5 437,-131.5 437,-112.5 372,-112.5"/>
<text text-anchor="middle" x="404.5" y="-119.5" font-family="Helvetica,sans-Serif" font-size="10.00">CKeyStore</text>
</a>
</g>
</g>
<!-- Node10&#45;&gt;Node9 -->
<g id="edge9" class="edge"><title>Node10&#45;&gt;Node9</title>
<path fill="none" stroke="midnightblue" d="M447.52,-119.749C456.144,-119.287 465.24,-118.8 473.917,-118.335"/>
<polygon fill="midnightblue" stroke="midnightblue" points="447.094,-116.267 437.295,-120.297 447.468,-123.257 447.094,-116.267"/>
</g>
<!-- Node11 -->
<g id="node11" class="node"><title>Node11</title>
<polygon fill="white" stroke="#bfbfbf" points="157,-130 157,-160 276,-160 276,-130 157,-130"/>
<text text-anchor="start" x="165" y="-148" font-family="Helvetica,sans-Serif" font-size="10.00">AnnotatedMixin&lt; boost</text>
<text text-anchor="middle" x="216.5" y="-137" font-family="Helvetica,sans-Serif" font-size="10.00">::recursive_mutex &gt;</text>
</g>
<!-- Node11&#45;&gt;Node7 -->
<g id="edge14" class="edge"><title>Node11&#45;&gt;Node7</title>
<path fill="none" stroke="#9a32cd" stroke-dasharray="5,2" d="M286.139,-154.282C321.186,-158.256 364.543,-162 403.5,-162 403.5,-162 403.5,-162 648,-162 719.898,-162 737.801,-148.567 805,-123 816.613,-118.582 828.988,-112.082 838.46,-106.686"/>
<polygon fill="#9a32cd" stroke="#9a32cd" points="286.353,-150.783 276.015,-153.102 285.542,-157.736 286.353,-150.783"/>
<text text-anchor="middle" x="518.5" y="-165" font-family="Helvetica,sans-Serif" font-size="10.00"> cs_wallet</text>
</g>
<!-- Node11&#45;&gt;Node10 -->
<g id="edge10" class="edge"><title>Node11&#45;&gt;Node10</title>
<path fill="none" stroke="#9a32cd" stroke-dasharray="5,2" d="M286.323,-136.49C315.704,-132.857 348.543,-128.796 371.965,-125.9"/>
<polygon fill="#9a32cd" stroke="#9a32cd" points="285.591,-133.053 276.096,-137.754 286.45,-140 285.591,-133.053"/>
<text text-anchor="middle" x="324" y="-137" font-family="Helvetica,sans-Serif" font-size="10.00"> cs_KeyStore</text>
</g>
<!-- Node12 -->
<g id="node12" class="node"><title>Node12</title>
<polygon fill="white" stroke="#bfbfbf" points="0,-135.5 0,-154.5 120,-154.5 120,-135.5 0,-135.5"/>
<text text-anchor="middle" x="60" y="-142.5" font-family="Helvetica,sans-Serif" font-size="10.00">boost::recursive_mutex</text>
</g>
<!-- Node12&#45;&gt;Node11 -->
<g id="edge11" class="edge"><title>Node12&#45;&gt;Node11</title>
<path fill="none" stroke="midnightblue" d="M130.533,-145C139.334,-145 148.269,-145 156.877,-145"/>
<polygon fill="midnightblue" stroke="midnightblue" points="130.292,-141.5 120.292,-145 130.292,-148.5 130.292,-141.5"/>
</g>
<!-- Node13 -->
<g id="node13" class="node"><title>Node13</title>
<g id="a_node13"><a xlink:href="class_c_wallet_interface.html" target="_top" xlink:title="CWalletInterface">
<polygon fill="white" stroke="black" points="602,-76.5 602,-95.5 692,-95.5 692,-76.5 602,-76.5"/>
<text text-anchor="middle" x="647" y="-83.5" font-family="Helvetica,sans-Serif" font-size="10.00">CWalletInterface</text>
</a>
</g>
</g>
<!-- Node13&#45;&gt;Node7 -->
<g id="edge12" class="edge"><title>Node13&#45;&gt;Node7</title>
<path fill="none" stroke="midnightblue" d="M702.182,-88.8862C743.283,-91.0756 797.901,-93.985 829.327,-95.6591"/>
<polygon fill="midnightblue" stroke="midnightblue" points="702.218,-85.3833 692.046,-88.3463 701.846,-92.3734 702.218,-85.3833"/>
</g>
<!-- Node14 -->
<g id="node14" class="node"><title>Node14</title>
<g id="a_node14"><a xlink:href="class_c_pub_key.html" target="_top" xlink:title="An encapsulated public key. ">
<polygon fill="white" stroke="black" points="617.5,-38.5 617.5,-57.5 676.5,-57.5 676.5,-38.5 617.5,-38.5"/>
<text text-anchor="middle" x="647" y="-45.5" font-family="Helvetica,sans-Serif" font-size="10.00">CPubKey</text>
</a>
</g>
</g>
<!-- Node14&#45;&gt;Node7 -->
<g id="edge13" class="edge"><title>Node14&#45;&gt;Node7</title>
<path fill="none" stroke="#9a32cd" stroke-dasharray="5,2" d="M686.941,-51.4854C719.128,-55.0661 765.749,-61.8778 805,-74 816.046,-77.4114 827.806,-82.7949 837.09,-87.496"/>
<polygon fill="#9a32cd" stroke="#9a32cd" points="686.923,-47.964 676.61,-50.3919 686.186,-54.9251 686.923,-47.964"/>
<text text-anchor="middle" x="758.5" y="-77" font-family="Helvetica,sans-Serif" font-size="10.00"> vchDefaultKey</text>
</g>
<!-- Node15 -->
<g id="node15" class="node"><title>Node15</title>
<g id="a_node15"><a xlink:href="class_c_wallet_d_b.html" target="_top" xlink:title="Access to the wallet database (wallet.dat) ">
<polygon fill="white" stroke="black" points="614.5,-0.5 614.5,-19.5 679.5,-19.5 679.5,-0.5 614.5,-0.5"/>
<text text-anchor="middle" x="647" y="-7.5" font-family="Helvetica,sans-Serif" font-size="10.00">CWalletDB</text>
</a>
</g>
</g>
<!-- Node15&#45;&gt;Node7 -->
<g id="edge15" class="edge"><title>Node15&#45;&gt;Node7</title>
<path fill="none" stroke="#9a32cd" stroke-dasharray="5,2" d="M689.902,-10.2142C723.13,-12.0855 769.691,-18.6201 805,-39 825.408,-50.7794 841.367,-74.2187 849.198,-87.4085"/>
<polygon fill="#9a32cd" stroke="#9a32cd" points="689.758,-6.70455 679.613,-9.7589 689.448,-13.6977 689.758,-6.70455"/>
<text text-anchor="middle" x="758.5" y="-42" font-family="Helvetica,sans-Serif" font-size="10.00"> pwalletdbEncryption</text>
</g>
<!-- Node16 -->
<g id="node16" class="node"><title>Node16</title>
<g id="a_node16"><a xlink:href="class_c_d_b.html" target="_top" xlink:title="RAII class that provides access to a Berkeley database. ">
<polygon fill="white" stroke="black" points="499.5,-0.5 499.5,-19.5 537.5,-19.5 537.5,-0.5 499.5,-0.5"/>
<text text-anchor="middle" x="518.5" y="-7.5" font-family="Helvetica,sans-Serif" font-size="10.00">CDB</text>
</a>
</g>
</g>
<!-- Node16&#45;&gt;Node15 -->
<g id="edge16" class="edge"><title>Node16&#45;&gt;Node15</title>
<path fill="none" stroke="midnightblue" d="M547.811,-10C567.511,-10 593.799,-10 614.216,-10"/>
<polygon fill="midnightblue" stroke="midnightblue" points="547.624,-6.5001 537.624,-10 547.624,-13.5001 547.624,-6.5001"/>
</g>
</g>
</svg>
