<?xml version="1.0" encoding="UTF-8" standalone="no"?>
<!DOCTYPE svg PUBLIC "-//W3C//DTD SVG 1.1//EN"
 "http://www.w3.org/Graphics/SVG/1.1/DTD/svg11.dtd">
<!-- Generated by graphviz version 2.38.0 (20140413.2041)
 -->
<!-- Title: CScript::Find Pages: 1 -->
<svg width="517pt" height="28pt"
 viewBox="0.00 0.00 517.00 28.00" xmlns="http://www.w3.org/2000/svg" xmlns:xlink="http://www.w3.org/1999/xlink">
<g id="graph0" class="graph" transform="scale(1 1) rotate(0) translate(4 24)">
<title>CScript::Find</title>
<polygon fill="white" stroke="none" points="-4,4 -4,-24 513,-24 513,4 -4,4"/>
<!-- Node1 -->
<g id="node1" class="node"><title>Node1</title>
<polygon fill="#bfbfbf" stroke="black" points="0,-0.5 0,-19.5 74,-19.5 74,-0.5 0,-0.5"/>
<text text-anchor="middle" x="37" y="-7.5" font-family="Helvetica,sans-Serif" font-size="10.00">CScript::Find</text>
</g>
<!-- Node2 -->
<g id="node2" class="node"><title>Node2</title>
<g id="a_node2"><a xlink:href="class_c_script.html#a94635ed93d8d244ec3acfa83f9ecfe5f" target="_top" xlink:title="CScript::GetOp">
<polygon fill="white" stroke="black" points="110,-0.5 110,-19.5 194,-19.5 194,-0.5 110,-0.5"/>
<text text-anchor="middle" x="152" y="-7.5" font-family="Helvetica,sans-Serif" font-size="10.00">CScript::GetOp</text>
</a>
</g>
</g>
<!-- Node1&#45;&gt;Node2 -->
<g id="edge1" class="edge"><title>Node1&#45;&gt;Node2</title>
<path fill="none" stroke="midnightblue" d="M74.0646,-10C82.2353,-10 91.0649,-10 99.7291,-10"/>
<polygon fill="midnightblue" stroke="midnightblue" points="99.7748,-13.5001 109.775,-10 99.7747,-6.5001 99.7748,-13.5001"/>
</g>
<!-- Node3 -->
<g id="node3" class="node"><title>Node3</title>
<g id="a_node3"><a xlink:href="class_c_script.html#a93ec95275ccce9b701c8f53c57cd7975" target="_top" xlink:title="CScript::GetOp2">
<polygon fill="white" stroke="black" points="230,-0.5 230,-19.5 320,-19.5 320,-0.5 230,-0.5"/>
<text text-anchor="middle" x="275" y="-7.5" font-family="Helvetica,sans-Serif" font-size="10.00">CScript::GetOp2</text>
</a>
</g>
</g>
<!-- Node2&#45;&gt;Node3 -->
<g id="edge2" class="edge"><title>Node2&#45;&gt;Node3</title>
<path fill="none" stroke="midnightblue" d="M194.303,-10C202.48,-10 211.179,-10 219.711,-10"/>
<polygon fill="midnightblue" stroke="midnightblue" points="219.99,-13.5001 229.99,-10 219.99,-6.5001 219.99,-13.5001"/>
</g>
<!-- Node4 -->
<g id="node4" class="node"><title>Node4</title>
<g id="a_node4"><a xlink:href="glibc__compat_8cpp.html#a0f46826ab0466591e136db24394923cf" target="_top" xlink:title="memcpy">
<polygon fill="white" stroke="black" points="356,-0.5 356,-19.5 410,-19.5 410,-0.5 356,-0.5"/>
<text text-anchor="middle" x="383" y="-7.5" font-family="Helvetica,sans-Serif" font-size="10.00">memcpy</text>
</a>
</g>
</g>
<!-- Node3&#45;&gt;Node4 -->
<g id="edge3" class="edge"><title>Node3&#45;&gt;Node4</title>
<path fill="none" stroke="midnightblue" d="M320.033,-10C328.592,-10 337.472,-10 345.745,-10"/>
<polygon fill="midnightblue" stroke="midnightblue" points="345.831,-13.5001 355.831,-10 345.831,-6.5001 345.831,-13.5001"/>
</g>
<!-- Node5 -->
<g id="node5" class="node"><title>Node5</title>
<g id="a_node5"><a xlink:href="glibc__compat_8cpp.html#a9778d49e9029dd75bc53ecbbf9f5e9a1" target="_top" xlink:title="memmove">
<polygon fill="white" stroke="black" points="446,-0.5 446,-19.5 509,-19.5 509,-0.5 446,-0.5"/>
<text text-anchor="middle" x="477.5" y="-7.5" font-family="Helvetica,sans-Serif" font-size="10.00">memmove</text>
</a>
</g>
</g>
<!-- Node4&#45;&gt;Node5 -->
<g id="edge4" class="edge"><title>Node4&#45;&gt;Node5</title>
<path fill="none" stroke="midnightblue" d="M410.259,-10C418.244,-10 427.214,-10 435.912,-10"/>
<polygon fill="midnightblue" stroke="midnightblue" points="435.924,-13.5001 445.924,-10 435.924,-6.5001 435.924,-13.5001"/>
</g>
</g>
</svg>
