<?xml version="1.0" encoding="UTF-8" standalone="no"?>
<!DOCTYPE svg PUBLIC "-//W3C//DTD SVG 1.1//EN"
 "http://www.w3.org/Graphics/SVG/1.1/DTD/svg11.dtd">
<!-- Generated by graphviz version 2.38.0 (20140413.2041)
 -->
<!-- Title: CPubKey::Set Pages: 1 -->
<svg width="236pt" height="116pt"
 viewBox="0.00 0.00 236.00 115.50" xmlns="http://www.w3.org/2000/svg" xmlns:xlink="http://www.w3.org/1999/xlink">
<g id="graph0" class="graph" transform="scale(1 1) rotate(0) translate(4 111.5)">
<title>CPubKey::Set</title>
<polygon fill="white" stroke="none" points="-4,4 -4,-111.5 232,-111.5 232,4 -4,4"/>
<!-- Node1 -->
<g id="node1" class="node"><title>Node1</title>
<polygon fill="#bfbfbf" stroke="black" points="0,-50 0,-69 79,-69 79,-50 0,-50"/>
<text text-anchor="middle" x="39.5" y="-57" font-family="Helvetica,sans-Serif" font-size="10.00">CPubKey::Set</text>
</g>
<!-- Node2 -->
<g id="node2" class="node"><title>Node2</title>
<g id="a_node2"><a xlink:href="struct_c_ext_pub_key.html#aa3ca44410ecfa765962d3b97aef61ab5" target="_top" xlink:title="CExtPubKey::Decode">
<polygon fill="white" stroke="black" points="115,-88 115,-107 228,-107 228,-88 115,-88"/>
<text text-anchor="middle" x="171.5" y="-95" font-family="Helvetica,sans-Serif" font-size="10.00">CExtPubKey::Decode</text>
</a>
</g>
</g>
<!-- Node1&#45;&gt;Node2 -->
<g id="edge1" class="edge"><title>Node1&#45;&gt;Node2</title>
<path fill="none" stroke="midnightblue" d="M83.3839,-72.0353C101.069,-77.2048 121.234,-83.0991 137.706,-87.9141"/>
<polygon fill="midnightblue" stroke="midnightblue" points="83.8848,-68.5353 73.3045,-69.089 81.9208,-75.2542 83.8848,-68.5353"/>
</g>
<!-- Node3 -->
<g id="node3" class="node"><title>Node3</title>
<g id="a_node3"><a xlink:href="class_c_pub_key.html#a8c7527b40c96bfb8f48b669764301df8" target="_top" xlink:title="CPubKey::CPubKey">
<polygon fill="white" stroke="black" points="118,-50 118,-69 225,-69 225,-50 118,-50"/>
<text text-anchor="middle" x="171.5" y="-57" font-family="Helvetica,sans-Serif" font-size="10.00">CPubKey::CPubKey</text>
</a>
</g>
</g>
<!-- Node1&#45;&gt;Node3 -->
<g id="edge2" class="edge"><title>Node1&#45;&gt;Node3</title>
<path fill="none" stroke="midnightblue" d="M89.3849,-59.5C98.6628,-59.5 108.408,-59.5 117.798,-59.5"/>
<polygon fill="midnightblue" stroke="midnightblue" points="89.1523,-56.0001 79.1523,-59.5 89.1523,-63.0001 89.1523,-56.0001"/>
</g>
<!-- Node4 -->
<g id="node4" class="node"><title>Node4</title>
<g id="a_node4"><a xlink:href="class_c_script_compressor.html#a4cec58b09c4ab7873b5884ed690ed0f9" target="_top" xlink:title="CScriptCompressor::\lIsToPubKey">
<polygon fill="white" stroke="black" points="117,-0.5 117,-30.5 226,-30.5 226,-0.5 117,-0.5"/>
<text text-anchor="start" x="125" y="-18.5" font-family="Helvetica,sans-Serif" font-size="10.00">CScriptCompressor::</text>
<text text-anchor="middle" x="171.5" y="-7.5" font-family="Helvetica,sans-Serif" font-size="10.00">IsToPubKey</text>
</a>
</g>
</g>
<!-- Node1&#45;&gt;Node4 -->
<g id="edge3" class="edge"><title>Node1&#45;&gt;Node4</title>
<path fill="none" stroke="midnightblue" d="M78.5794,-46.6116C93.4346,-41.5837 110.569,-35.7845 125.989,-30.5654"/>
<polygon fill="midnightblue" stroke="midnightblue" points="77.0581,-43.4314 68.7081,-49.9527 79.3023,-50.0619 77.0581,-43.4314"/>
</g>
</g>
</svg>
