<?xml version="1.0" encoding="UTF-8" standalone="no"?>
<!DOCTYPE svg PUBLIC "-//W3C//DTD SVG 1.1//EN"
 "http://www.w3.org/Graphics/SVG/1.1/DTD/svg11.dtd">
<!-- Generated by graphviz version 2.38.0 (20140413.2041)
 -->
<!-- Title: CBasicKeyStore::HaveWatchOnly Pages: 1 -->
<svg width="343pt" height="66pt"
 viewBox="0.00 0.00 343.00 66.00" xmlns="http://www.w3.org/2000/svg" xmlns:xlink="http://www.w3.org/1999/xlink">
<g id="graph0" class="graph" transform="scale(1 1) rotate(0) translate(4 62)">
<title>CBasicKeyStore::HaveWatchOnly</title>
<polygon fill="white" stroke="none" points="-4,4 -4,-62 339,-62 339,4 -4,4"/>
<!-- Node1 -->
<g id="node1" class="node"><title>Node1</title>
<polygon fill="#bfbfbf" stroke="black" points="0,-19.5 0,-38.5 167,-38.5 167,-19.5 0,-19.5"/>
<text text-anchor="middle" x="83.5" y="-26.5" font-family="Helvetica,sans-Serif" font-size="10.00">CBasicKeyStore::HaveWatchOnly</text>
</g>
<!-- Node2 -->
<g id="node2" class="node"><title>Node2</title>
<g id="a_node2"><a xlink:href="class_wallet_model.html#af50d9654d2f20e4e4f0789dcb64ad6b1" target="_top" xlink:title="WalletModel::WalletModel">
<polygon fill="white" stroke="black" points="203,-38.5 203,-57.5 335,-57.5 335,-38.5 203,-38.5"/>
<text text-anchor="middle" x="269" y="-45.5" font-family="Helvetica,sans-Serif" font-size="10.00">WalletModel::WalletModel</text>
</a>
</g>
</g>
<!-- Node1&#45;&gt;Node2 -->
<g id="edge1" class="edge"><title>Node1&#45;&gt;Node2</title>
<path fill="none" stroke="midnightblue" d="M177.269,-38.6055C185.922,-39.5014 194.562,-40.3961 202.883,-41.2576"/>
<polygon fill="midnightblue" stroke="midnightblue" points="177.432,-35.1037 167.124,-37.5551 176.711,-42.0665 177.432,-35.1037"/>
</g>
<!-- Node3 -->
<g id="node3" class="node"><title>Node3</title>
<g id="a_node3"><a xlink:href="rpcdump_8cpp.html#a457bc572859c8265c72a0afd1a6db56c" target="_top" xlink:title="importaddress">
<polygon fill="white" stroke="black" points="229,-0.5 229,-19.5 309,-19.5 309,-0.5 229,-0.5"/>
<text text-anchor="middle" x="269" y="-7.5" font-family="Helvetica,sans-Serif" font-size="10.00">importaddress</text>
</a>
</g>
</g>
<!-- Node1&#45;&gt;Node3 -->
<g id="edge2" class="edge"><title>Node1&#45;&gt;Node3</title>
<path fill="none" stroke="midnightblue" d="M177.233,-19.3982C195.452,-17.5118 213.62,-15.6306 228.861,-14.0525"/>
<polygon fill="midnightblue" stroke="midnightblue" points="176.711,-15.9335 167.124,-20.4449 177.432,-22.8963 176.711,-15.9335"/>
</g>
</g>
</svg>
