<?xml version="1.0" encoding="UTF-8" standalone="no"?>
<!DOCTYPE svg PUBLIC "-//W3C//DTD SVG 1.1//EN"
 "http://www.w3.org/Graphics/SVG/1.1/DTD/svg11.dtd">
<!-- Generated by graphviz version 2.38.0 (20140413.2041)
 -->
<!-- Title: OptionsModel::getCoinControlFeatures Pages: 1 -->
<svg width="1476pt" height="378pt"
 viewBox="0.00 0.00 1476.00 377.51" xmlns="http://www.w3.org/2000/svg" xmlns:xlink="http://www.w3.org/1999/xlink">
<g id="graph0" class="graph" transform="scale(1 1) rotate(0) translate(4 373.511)">
<title>OptionsModel::getCoinControlFeatures</title>
<polygon fill="white" stroke="none" points="-4,4 -4,-373.511 1472,-373.511 1472,4 -4,4"/>
<!-- Node1 -->
<g id="node1" class="node"><title>Node1</title>
<polygon fill="#bfbfbf" stroke="black" points="0,-316.511 0,-346.511 150,-346.511 150,-316.511 0,-316.511"/>
<text text-anchor="start" x="8" y="-334.511" font-family="Helvetica,sans-Serif" font-size="10.00">OptionsModel::getCoinControl</text>
<text text-anchor="middle" x="75" y="-323.511" font-family="Helvetica,sans-Serif" font-size="10.00">Features</text>
</g>
<!-- Node2 -->
<g id="node2" class="node"><title>Node2</title>
<g id="a_node2"><a xlink:href="class_send_coins_dialog.html#a73a6c1b1850a334ee652ac167713a2aa" target="_top" xlink:title="SendCoinsDialog::setModel">
<polygon fill="white" stroke="black" points="565,-246.011 565,-265.011 705,-265.011 705,-246.011 565,-246.011"/>
<text text-anchor="middle" x="635" y="-253.011" font-family="Helvetica,sans-Serif" font-size="10.00">SendCoinsDialog::setModel</text>
</a>
</g>
</g>
<!-- Node1&#45;&gt;Node2 -->
<g id="edge1" class="edge"><title>Node1&#45;&gt;Node2</title>
<path fill="none" stroke="midnightblue" d="M160.201,-320.043C270.664,-304.998 462.451,-278.877 564.865,-264.928"/>
<polygon fill="midnightblue" stroke="midnightblue" points="159.534,-316.602 150.098,-321.419 160.479,-323.538 159.534,-316.602"/>
</g>
<!-- Node5 -->
<g id="node5" class="node"><title>Node5</title>
<g id="a_node5"><a xlink:href="class_send_coins_dialog.html#a2cab7cf9ea5040b9e2189297f7d3c764" target="_top" xlink:title="SendCoinsDialog::on\l_sendButton_clicked">
<polygon fill="white" stroke="black" points="1158.5,-278.511 1158.5,-308.511 1268.5,-308.511 1268.5,-278.511 1158.5,-278.511"/>
<text text-anchor="start" x="1166.5" y="-296.511" font-family="Helvetica,sans-Serif" font-size="10.00">SendCoinsDialog::on</text>
<text text-anchor="middle" x="1213.5" y="-285.511" font-family="Helvetica,sans-Serif" font-size="10.00">_sendButton_clicked</text>
</a>
</g>
</g>
<!-- Node1&#45;&gt;Node5 -->
<g id="edge4" class="edge"><title>Node1&#45;&gt;Node5</title>
<path fill="none" stroke="midnightblue" d="M160.365,-345.107C235.398,-356.014 348.214,-369.511 447,-369.511 447,-369.511 447,-369.511 825,-369.511 950.457,-369.511 1094.56,-330.675 1166.55,-308.527"/>
<polygon fill="midnightblue" stroke="midnightblue" points="160.436,-341.58 150.033,-343.587 159.417,-348.506 160.436,-341.58"/>
</g>
<!-- Node6 -->
<g id="node6" class="node"><title>Node6</title>
<g id="a_node6"><a xlink:href="class_send_coins_dialog.html#ae4f429aabcaf309aa314b90049be2a74" target="_top" xlink:title="SendCoinsDialog::coinControl\lUpdateLabels">
<polygon fill="white" stroke="black" points="186,-196.511 186,-226.511 336,-226.511 336,-196.511 186,-196.511"/>
<text text-anchor="start" x="194" y="-214.511" font-family="Helvetica,sans-Serif" font-size="10.00">SendCoinsDialog::coinControl</text>
<text text-anchor="middle" x="261" y="-203.511" font-family="Helvetica,sans-Serif" font-size="10.00">UpdateLabels</text>
</a>
</g>
</g>
<!-- Node1&#45;&gt;Node6 -->
<g id="edge5" class="edge"><title>Node1&#45;&gt;Node6</title>
<path fill="none" stroke="midnightblue" d="M108.146,-310.547C144.958,-286.539 204.361,-247.798 236.885,-226.586"/>
<polygon fill="midnightblue" stroke="midnightblue" points="105.768,-307.919 99.3037,-316.313 109.592,-313.782 105.768,-307.919"/>
</g>
<!-- Node3 -->
<g id="node3" class="node"><title>Node3</title>
<g id="a_node3"><a xlink:href="class_wallet_view.html#a0a37ff693a4f9c1e5ddc23f9cd3913be" target="_top" xlink:title="Set the wallet model. ">
<polygon fill="white" stroke="black" points="754,-246.011 754,-265.011 894,-265.011 894,-246.011 754,-246.011"/>
<text text-anchor="middle" x="824" y="-253.011" font-family="Helvetica,sans-Serif" font-size="10.00">WalletView::setWalletModel</text>
</a>
</g>
</g>
<!-- Node2&#45;&gt;Node3 -->
<g id="edge2" class="edge"><title>Node2&#45;&gt;Node3</title>
<path fill="none" stroke="midnightblue" d="M715.29,-255.511C728.117,-255.511 741.31,-255.511 753.871,-255.511"/>
<polygon fill="midnightblue" stroke="midnightblue" points="715.101,-252.012 705.101,-255.511 715.101,-259.012 715.101,-252.012"/>
</g>
<!-- Node4 -->
<g id="node4" class="node"><title>Node4</title>
<g id="a_node4"><a xlink:href="class_wallet_frame.html#aa199c3f27654199d84c365cf86167d86" target="_top" xlink:title="WalletFrame::addWallet">
<polygon fill="white" stroke="black" points="961,-246.011 961,-265.011 1084,-265.011 1084,-246.011 961,-246.011"/>
<text text-anchor="middle" x="1022.5" y="-253.011" font-family="Helvetica,sans-Serif" font-size="10.00">WalletFrame::addWallet</text>
</a>
</g>
</g>
<!-- Node3&#45;&gt;Node4 -->
<g id="edge3" class="edge"><title>Node3&#45;&gt;Node4</title>
<path fill="none" stroke="midnightblue" d="M904.089,-255.511C923.005,-255.511 942.907,-255.511 960.841,-255.511"/>
<polygon fill="midnightblue" stroke="midnightblue" points="904.002,-252.012 894.002,-255.511 904.002,-259.012 904.002,-252.012"/>
</g>
<!-- Node6&#45;&gt;Node2 -->
<g id="edge6" class="edge"><title>Node6&#45;&gt;Node2</title>
<path fill="none" stroke="midnightblue" d="M333.743,-228.663C346.433,-231.268 359.563,-233.689 372,-235.511 436.996,-245.036 511.77,-250.173 564.757,-252.846"/>
<polygon fill="midnightblue" stroke="midnightblue" points="334.188,-225.18 323.682,-226.543 332.745,-232.03 334.188,-225.18"/>
</g>
<!-- Node6&#45;&gt;Node5 -->
<g id="edge7" class="edge"><title>Node6&#45;&gt;Node5</title>
<path fill="none" stroke="midnightblue" d="M301.141,-230.802C321.766,-240.211 347.755,-250.898 372,-257.511 485.395,-288.445 516.461,-293.511 634,-293.511 634,-293.511 634,-293.511 825,-293.511 943.907,-293.511 1083.34,-293.511 1158.27,-293.511"/>
<polygon fill="midnightblue" stroke="midnightblue" points="302.611,-227.626 292.067,-226.589 299.663,-233.975 302.611,-227.626"/>
</g>
<!-- Node7 -->
<g id="node7" class="node"><title>Node7</title>
<g id="a_node7"><a xlink:href="class_send_coins_dialog.html#a3d680a76b967641115c6ff2fa83fb62a" target="_top" xlink:title="SendCoinsDialog::addEntry">
<polygon fill="white" stroke="black" points="565.5,-118.011 565.5,-137.011 704.5,-137.011 704.5,-118.011 565.5,-118.011"/>
<text text-anchor="middle" x="635" y="-125.011" font-family="Helvetica,sans-Serif" font-size="10.00">SendCoinsDialog::addEntry</text>
</a>
</g>
</g>
<!-- Node6&#45;&gt;Node7 -->
<g id="edge8" class="edge"><title>Node6&#45;&gt;Node7</title>
<path fill="none" stroke="midnightblue" d="M285.675,-189.8C306.64,-172.082 338.966,-148.282 372,-137.511 435.185,-116.911 511.516,-116.555 565.448,-120.053"/>
<polygon fill="midnightblue" stroke="midnightblue" points="283.219,-187.297 277.952,-196.49 287.802,-192.588 283.219,-187.297"/>
</g>
<!-- Node19 -->
<g id="node19" class="node"><title>Node19</title>
<g id="a_node19"><a xlink:href="class_send_coins_dialog.html#a3b834c739f7d02d8086a2bf58525c5f0" target="_top" xlink:title="SendCoinsDialog::updateTabs\lAndLabels">
<polygon fill="white" stroke="black" points="372,-147.511 372,-177.511 524,-177.511 524,-147.511 372,-147.511"/>
<text text-anchor="start" x="380" y="-165.511" font-family="Helvetica,sans-Serif" font-size="10.00">SendCoinsDialog::updateTabs</text>
<text text-anchor="middle" x="448" y="-154.511" font-family="Helvetica,sans-Serif" font-size="10.00">AndLabels</text>
</a>
</g>
</g>
<!-- Node6&#45;&gt;Node19 -->
<g id="edge23" class="edge"><title>Node6&#45;&gt;Node19</title>
<path fill="none" stroke="midnightblue" d="M328.535,-193.889C348.775,-188.528 370.82,-182.689 390.344,-177.518"/>
<polygon fill="midnightblue" stroke="midnightblue" points="327.534,-190.533 318.763,-196.477 329.326,-197.3 327.534,-190.533"/>
</g>
<!-- Node20 -->
<g id="node20" class="node"><title>Node20</title>
<g id="a_node20"><a xlink:href="class_send_coins_dialog.html#af13ddd00abec4f060632d887b5e838a3" target="_top" xlink:title="SendCoinsDialog::coinControl\lFeatureChanged">
<polygon fill="white" stroke="black" points="373,-196.511 373,-226.511 523,-226.511 523,-196.511 373,-196.511"/>
<text text-anchor="start" x="381" y="-214.511" font-family="Helvetica,sans-Serif" font-size="10.00">SendCoinsDialog::coinControl</text>
<text text-anchor="middle" x="448" y="-203.511" font-family="Helvetica,sans-Serif" font-size="10.00">FeatureChanged</text>
</a>
</g>
</g>
<!-- Node6&#45;&gt;Node20 -->
<g id="edge28" class="edge"><title>Node6&#45;&gt;Node20</title>
<path fill="none" stroke="midnightblue" d="M346.442,-211.511C355.238,-211.511 364.132,-211.511 372.803,-211.511"/>
<polygon fill="midnightblue" stroke="midnightblue" points="346.181,-208.012 336.181,-211.511 346.181,-215.012 346.181,-208.012"/>
</g>
<!-- Node21 -->
<g id="node21" class="node"><title>Node21</title>
<g id="a_node21"><a xlink:href="class_send_coins_dialog.html#a59d757d9e4bea5b380eb480fd79cfb49" target="_top" xlink:title="SendCoinsDialog::coinControl\lButtonClicked">
<polygon fill="white" stroke="black" points="560,-6.51149 560,-36.5115 710,-36.5115 710,-6.51149 560,-6.51149"/>
<text text-anchor="start" x="568" y="-24.5115" font-family="Helvetica,sans-Serif" font-size="10.00">SendCoinsDialog::coinControl</text>
<text text-anchor="middle" x="635" y="-13.5115" font-family="Helvetica,sans-Serif" font-size="10.00">ButtonClicked</text>
</a>
</g>
</g>
<!-- Node6&#45;&gt;Node21 -->
<g id="edge30" class="edge"><title>Node6&#45;&gt;Node21</title>
<path fill="none" stroke="midnightblue" d="M282.566,-188.938C303.326,-167.298 337.211,-134.983 372,-114.511 435.438,-77.1813 516.27,-51.3243 571.26,-36.5184"/>
<polygon fill="midnightblue" stroke="midnightblue" points="279.854,-186.712 275.534,-196.386 284.944,-191.517 279.854,-186.712"/>
</g>
<!-- Node8 -->
<g id="node8" class="node"><title>Node8</title>
<g id="a_node8"><a xlink:href="class_send_coins_dialog.html#a0df5bc29d1df68eda44826651afc595f" target="_top" xlink:title="SendCoinsDialog::SendCoins\lDialog">
<polygon fill="white" stroke="black" points="948.5,-118.511 948.5,-148.511 1096.5,-148.511 1096.5,-118.511 948.5,-118.511"/>
<text text-anchor="start" x="956.5" y="-136.511" font-family="Helvetica,sans-Serif" font-size="10.00">SendCoinsDialog::SendCoins</text>
<text text-anchor="middle" x="1022.5" y="-125.511" font-family="Helvetica,sans-Serif" font-size="10.00">Dialog</text>
</a>
</g>
</g>
<!-- Node7&#45;&gt;Node8 -->
<g id="edge9" class="edge"><title>Node7&#45;&gt;Node8</title>
<path fill="none" stroke="midnightblue" d="M715.211,-128.744C783.613,-129.809 881.658,-131.335 948.259,-132.372"/>
<polygon fill="midnightblue" stroke="midnightblue" points="714.973,-125.24 704.92,-128.584 714.864,-132.239 714.973,-125.24"/>
</g>
<!-- Node9 -->
<g id="node9" class="node"><title>Node9</title>
<g id="a_node9"><a xlink:href="class_send_coins_dialog.html#a127bddff45f49ff5e6e263efe218ae26" target="_top" xlink:title="SendCoinsDialog::clear">
<polygon fill="white" stroke="black" points="763.5,-194.011 763.5,-213.011 884.5,-213.011 884.5,-194.011 763.5,-194.011"/>
<text text-anchor="middle" x="824" y="-201.011" font-family="Helvetica,sans-Serif" font-size="10.00">SendCoinsDialog::clear</text>
</a>
</g>
</g>
<!-- Node7&#45;&gt;Node9 -->
<g id="edge10" class="edge"><title>Node7&#45;&gt;Node9</title>
<path fill="none" stroke="midnightblue" d="M660.373,-142.277C682.168,-154.955 715.313,-172.961 746,-184.511 755.794,-188.198 766.559,-191.37 776.855,-194.008"/>
<polygon fill="midnightblue" stroke="midnightblue" points="661.88,-139.102 651.488,-137.037 658.324,-145.132 661.88,-139.102"/>
</g>
<!-- Node12 -->
<g id="node12" class="node"><title>Node12</title>
<g id="a_node12"><a xlink:href="class_send_coins_dialog.html#aabd82a79bd2358493f36425f1d62136b" target="_top" xlink:title="SendCoinsDialog::removeEntry">
<polygon fill="white" stroke="black" points="746,-156.011 746,-175.011 902,-175.011 902,-156.011 746,-156.011"/>
<text text-anchor="middle" x="824" y="-163.011" font-family="Helvetica,sans-Serif" font-size="10.00">SendCoinsDialog::removeEntry</text>
</a>
</g>
</g>
<!-- Node7&#45;&gt;Node12 -->
<g id="edge15" class="edge"><title>Node7&#45;&gt;Node12</title>
<path fill="none" stroke="midnightblue" d="M714.79,-136.847C745.224,-142.72 777.79,-150.001 799.153,-155.98"/>
<polygon fill="midnightblue" stroke="midnightblue" points="715.046,-133.334 704.57,-134.913 713.745,-140.212 715.046,-133.334"/>
</g>
<!-- Node13 -->
<g id="node13" class="node"><title>Node13</title>
<g id="a_node13"><a xlink:href="class_send_coins_dialog.html#a920b2dbf121ca3cfac2adc56e96295f8" target="_top" xlink:title="SendCoinsDialog::setAddress">
<polygon fill="white" stroke="black" points="749.5,-80.0115 749.5,-99.0115 898.5,-99.0115 898.5,-80.0115 749.5,-80.0115"/>
<text text-anchor="middle" x="824" y="-87.0115" font-family="Helvetica,sans-Serif" font-size="10.00">SendCoinsDialog::setAddress</text>
</a>
</g>
</g>
<!-- Node7&#45;&gt;Node13 -->
<g id="edge17" class="edge"><title>Node7&#45;&gt;Node13</title>
<path fill="none" stroke="midnightblue" d="M693.131,-115.902C719.727,-110.498 750.973,-104.148 776.151,-99.0315"/>
<polygon fill="midnightblue" stroke="midnightblue" points="692.291,-112.501 683.188,-117.922 693.685,-119.361 692.291,-112.501"/>
</g>
<!-- Node15 -->
<g id="node15" class="node"><title>Node15</title>
<g id="a_node15"><a xlink:href="class_send_coins_dialog.html#a4440d15ced5d217baaad33a17d56b409" target="_top" xlink:title="SendCoinsDialog::pasteEntry">
<polygon fill="white" stroke="black" points="750.5,-42.0115 750.5,-61.0115 897.5,-61.0115 897.5,-42.0115 750.5,-42.0115"/>
<text text-anchor="middle" x="824" y="-49.0115" font-family="Helvetica,sans-Serif" font-size="10.00">SendCoinsDialog::pasteEntry</text>
</a>
</g>
</g>
<!-- Node7&#45;&gt;Node15 -->
<g id="edge19" class="edge"><title>Node7&#45;&gt;Node15</title>
<path fill="none" stroke="midnightblue" d="M670.87,-114.113C683.464,-108.839 697.62,-102.397 710,-95.5115 727.024,-86.0433 728.249,-78.5337 746,-70.5115 754.407,-66.7123 763.687,-63.6003 772.808,-61.0761"/>
<polygon fill="midnightblue" stroke="midnightblue" points="669.529,-110.88 661.599,-117.906 672.18,-117.358 669.529,-110.88"/>
</g>
<!-- Node9&#45;&gt;Node8 -->
<g id="edge11" class="edge"><title>Node9&#45;&gt;Node8</title>
<path fill="none" stroke="midnightblue" d="M884.73,-190.97C890.66,-189.075 896.511,-186.93 902,-184.511 919.598,-176.759 920.688,-168.882 938,-160.511 947.327,-156.002 957.591,-151.983 967.635,-148.512"/>
<polygon fill="midnightblue" stroke="midnightblue" points="883.322,-187.737 874.725,-193.928 885.307,-194.45 883.322,-187.737"/>
</g>
<!-- Node10 -->
<g id="node10" class="node"><title>Node10</title>
<g id="a_node10"><a xlink:href="class_send_coins_dialog.html#a4879553d77d29f522ac92ac04580f4ad" target="_top" xlink:title="SendCoinsDialog::reject">
<polygon fill="white" stroke="black" points="960.5,-170.011 960.5,-189.011 1084.5,-189.011 1084.5,-170.011 960.5,-170.011"/>
<text text-anchor="middle" x="1022.5" y="-177.011" font-family="Helvetica,sans-Serif" font-size="10.00">SendCoinsDialog::reject</text>
</a>
</g>
</g>
<!-- Node9&#45;&gt;Node10 -->
<g id="edge12" class="edge"><title>Node9&#45;&gt;Node10</title>
<path fill="none" stroke="midnightblue" d="M894.76,-194.991C916.165,-192.377 939.545,-189.521 960.33,-186.983"/>
<polygon fill="midnightblue" stroke="midnightblue" points="894.259,-191.526 884.757,-196.213 895.107,-198.475 894.259,-191.526"/>
</g>
<!-- Node11 -->
<g id="node11" class="node"><title>Node11</title>
<g id="a_node11"><a xlink:href="class_send_coins_dialog.html#af2185c3d29e43d37c30669f0def46060" target="_top" xlink:title="SendCoinsDialog::accept">
<polygon fill="white" stroke="black" points="958,-208.011 958,-227.011 1087,-227.011 1087,-208.011 958,-208.011"/>
<text text-anchor="middle" x="1022.5" y="-215.011" font-family="Helvetica,sans-Serif" font-size="10.00">SendCoinsDialog::accept</text>
</a>
</g>
</g>
<!-- Node9&#45;&gt;Node11 -->
<g id="edge13" class="edge"><title>Node9&#45;&gt;Node11</title>
<path fill="none" stroke="midnightblue" d="M894.986,-208.498C915.51,-209.96 937.833,-211.55 957.934,-212.983"/>
<polygon fill="midnightblue" stroke="midnightblue" points="894.98,-204.989 884.757,-207.769 894.483,-211.971 894.98,-204.989"/>
</g>
<!-- Node11&#45;&gt;Node5 -->
<g id="edge14" class="edge"><title>Node11&#45;&gt;Node5</title>
<path fill="none" stroke="midnightblue" d="M1085.7,-229.685C1092.97,-231.688 1100.21,-233.958 1107,-236.511 1136.62,-247.645 1168.26,-265.652 1189.08,-278.446"/>
<polygon fill="midnightblue" stroke="midnightblue" points="1086.37,-226.243 1075.81,-227.119 1084.61,-233.019 1086.37,-226.243"/>
</g>
<!-- Node12&#45;&gt;Node7 -->
<g id="edge16" class="edge"><title>Node12&#45;&gt;Node7</title>
<path fill="none" stroke="midnightblue" d="M735.483,-154.465C707.789,-148.951 679.392,-142.502 660.064,-137.104"/>
<polygon fill="midnightblue" stroke="midnightblue" points="735.151,-157.966 745.637,-156.45 736.494,-151.096 735.151,-157.966"/>
</g>
<!-- Node14 -->
<g id="node14" class="node"><title>Node14</title>
<g id="a_node14"><a xlink:href="class_wallet_view.html#a2a70c2b00b097dd7b83b6915bb037ea3" target="_top" xlink:title="Switch to send coins page. ">
<polygon fill="white" stroke="black" points="941,-80.0115 941,-99.0115 1104,-99.0115 1104,-80.0115 941,-80.0115"/>
<text text-anchor="middle" x="1022.5" y="-87.0115" font-family="Helvetica,sans-Serif" font-size="10.00">WalletView::gotoSendCoinsPage</text>
</a>
</g>
</g>
<!-- Node13&#45;&gt;Node14 -->
<g id="edge18" class="edge"><title>Node13&#45;&gt;Node14</title>
<path fill="none" stroke="midnightblue" d="M908.801,-89.5115C919.398,-89.5115 930.224,-89.5115 940.772,-89.5115"/>
<polygon fill="midnightblue" stroke="midnightblue" points="908.728,-86.0116 898.728,-89.5115 908.728,-93.0116 908.728,-86.0116"/>
</g>
<!-- Node16 -->
<g id="node16" class="node"><title>Node16</title>
<g id="a_node16"><a xlink:href="class_send_coins_dialog.html#a82ed6a3badadaa523415e1924ebd292a" target="_top" xlink:title="SendCoinsDialog::handlePayment\lRequest">
<polygon fill="white" stroke="black" points="938,-30.5115 938,-60.5115 1107,-60.5115 1107,-30.5115 938,-30.5115"/>
<text text-anchor="start" x="946" y="-48.5115" font-family="Helvetica,sans-Serif" font-size="10.00">SendCoinsDialog::handlePayment</text>
<text text-anchor="middle" x="1022.5" y="-37.5115" font-family="Helvetica,sans-Serif" font-size="10.00">Request</text>
</a>
</g>
</g>
<!-- Node15&#45;&gt;Node16 -->
<g id="edge20" class="edge"><title>Node15&#45;&gt;Node16</title>
<path fill="none" stroke="midnightblue" d="M907.871,-48.9811C917.808,-48.6777 927.961,-48.3677 937.908,-48.0639"/>
<polygon fill="midnightblue" stroke="midnightblue" points="907.5,-45.4907 897.611,-49.2944 907.713,-52.4874 907.5,-45.4907"/>
</g>
<!-- Node17 -->
<g id="node17" class="node"><title>Node17</title>
<g id="a_node17"><a xlink:href="class_wallet_view.html#a0ae21d91a9d7755026ce2a6846cef68d" target="_top" xlink:title="WalletView::handlePayment\lRequest">
<polygon fill="white" stroke="black" points="1143,-30.5115 1143,-60.5115 1284,-60.5115 1284,-30.5115 1143,-30.5115"/>
<text text-anchor="start" x="1151" y="-48.5115" font-family="Helvetica,sans-Serif" font-size="10.00">WalletView::handlePayment</text>
<text text-anchor="middle" x="1213.5" y="-37.5115" font-family="Helvetica,sans-Serif" font-size="10.00">Request</text>
</a>
</g>
</g>
<!-- Node16&#45;&gt;Node17 -->
<g id="edge21" class="edge"><title>Node16&#45;&gt;Node17</title>
<path fill="none" stroke="midnightblue" d="M1117.34,-45.5115C1125.98,-45.5115 1134.62,-45.5115 1142.99,-45.5115"/>
<polygon fill="midnightblue" stroke="midnightblue" points="1117.22,-42.0116 1107.22,-45.5115 1117.22,-49.0116 1117.22,-42.0116"/>
</g>
<!-- Node18 -->
<g id="node18" class="node"><title>Node18</title>
<g id="a_node18"><a xlink:href="class_wallet_frame.html#aa8c5b10f2240df164795619ca41c619c" target="_top" xlink:title="WalletFrame::handlePayment\lRequest">
<polygon fill="white" stroke="black" points="1320,-30.5115 1320,-60.5115 1468,-60.5115 1468,-30.5115 1320,-30.5115"/>
<text text-anchor="start" x="1328" y="-48.5115" font-family="Helvetica,sans-Serif" font-size="10.00">WalletFrame::handlePayment</text>
<text text-anchor="middle" x="1394" y="-37.5115" font-family="Helvetica,sans-Serif" font-size="10.00">Request</text>
</a>
</g>
</g>
<!-- Node17&#45;&gt;Node18 -->
<g id="edge22" class="edge"><title>Node17&#45;&gt;Node18</title>
<path fill="none" stroke="midnightblue" d="M1294.03,-45.5115C1302.62,-45.5115 1311.33,-45.5115 1319.83,-45.5115"/>
<polygon fill="midnightblue" stroke="midnightblue" points="1294.02,-42.0116 1284.02,-45.5115 1294.02,-49.0116 1294.02,-42.0116"/>
</g>
<!-- Node19&#45;&gt;Node7 -->
<g id="edge25" class="edge"><title>Node19&#45;&gt;Node7</title>
<path fill="none" stroke="midnightblue" d="M534.167,-146.399C551.109,-143.194 568.382,-139.926 583.692,-137.029"/>
<polygon fill="midnightblue" stroke="midnightblue" points="533.422,-142.978 524.247,-148.276 534.723,-149.856 533.422,-142.978"/>
</g>
<!-- Node19&#45;&gt;Node9 -->
<g id="edge24" class="edge"><title>Node19&#45;&gt;Node9</title>
<path fill="none" stroke="midnightblue" d="M534.317,-175.235C542.985,-176.4 551.663,-177.515 560,-178.511 629.678,-186.84 710.011,-194.143 763.374,-198.672"/>
<polygon fill="midnightblue" stroke="midnightblue" points="534.55,-171.734 524.168,-173.849 533.602,-178.67 534.55,-171.734"/>
</g>
<!-- Node19&#45;&gt;Node12 -->
<g id="edge26" class="edge"><title>Node19&#45;&gt;Node12</title>
<path fill="none" stroke="midnightblue" d="M534.257,-163.195C597.964,-163.706 684.321,-164.399 745.959,-164.894"/>
<polygon fill="midnightblue" stroke="midnightblue" points="534.262,-159.695 524.235,-163.115 534.206,-166.695 534.262,-159.695"/>
</g>
<!-- Node19&#45;&gt;Node15 -->
<g id="edge27" class="edge"><title>Node19&#45;&gt;Node15</title>
<path fill="none" stroke="midnightblue" d="M484.599,-142.481C505.927,-131.175 533.89,-117.545 560,-108.511 626.007,-85.6734 704.613,-70.0703 758.591,-61.0407"/>
<polygon fill="midnightblue" stroke="midnightblue" points="482.743,-139.506 475.594,-147.325 486.059,-145.67 482.743,-139.506"/>
</g>
<!-- Node20&#45;&gt;Node2 -->
<g id="edge29" class="edge"><title>Node20&#45;&gt;Node2</title>
<path fill="none" stroke="midnightblue" d="M522.144,-228.908C546.632,-234.732 573.015,-241.007 594.005,-245.999"/>
<polygon fill="midnightblue" stroke="midnightblue" points="522.688,-225.44 512.149,-226.531 521.068,-232.25 522.688,-225.44"/>
</g>
<!-- Node21&#45;&gt;Node8 -->
<g id="edge31" class="edge"><title>Node21&#45;&gt;Node8</title>
<path fill="none" stroke="midnightblue" d="M711.652,-4.98089C768.667,3.11212 846.287,4.37967 902,-32.5115 933.163,-53.1464 909.648,-84.1583 938,-108.511 942.477,-112.357 947.528,-115.611 952.873,-118.364"/>
<polygon fill="midnightblue" stroke="midnightblue" points="710.975,-1.54348 701.614,-6.50567 712.026,-8.46409 710.975,-1.54348"/>
</g>
</g>
</svg>
