<?xml version="1.0" encoding="UTF-8" standalone="no"?>
<!DOCTYPE svg PUBLIC "-//W3C//DTD SVG 1.1//EN"
 "http://www.w3.org/Graphics/SVG/1.1/DTD/svg11.dtd">
<!-- Generated by graphviz version 2.38.0 (20140413.2041)
 -->
<!-- Title: payments::PaymentDetails::payment_url Pages: 1 -->
<svg width="354pt" height="323pt"
 viewBox="0.00 0.00 354.00 322.50" xmlns="http://www.w3.org/2000/svg" xmlns:xlink="http://www.w3.org/1999/xlink">
<g id="graph0" class="graph" transform="scale(1 1) rotate(0) translate(4 318.5)">
<title>payments::PaymentDetails::payment_url</title>
<polygon fill="white" stroke="none" points="-4,4 -4,-318.5 350,-318.5 350,4 -4,4"/>
<!-- Node1 -->
<g id="node1" class="node"><title>Node1</title>
<polygon fill="#bfbfbf" stroke="black" points="0,-137 0,-167 135,-167 135,-137 0,-137"/>
<text text-anchor="start" x="8" y="-155" font-family="Helvetica,sans-Serif" font-size="10.00">payments::PaymentDetails</text>
<text text-anchor="middle" x="67.5" y="-144" font-family="Helvetica,sans-Serif" font-size="10.00">::payment_url</text>
</g>
<!-- Node2 -->
<g id="node2" class="node"><title>Node2</title>
<g id="a_node2"><a xlink:href="classpayments_1_1_payment_details.html#a02041f288b52f004c61e49365ca33e6c" target="_top" xlink:title="payments::PaymentDetails\l::MergePartialFromCodedStream">
<polygon fill="white" stroke="black" points="176.5,-284 176.5,-314 340.5,-314 340.5,-284 176.5,-284"/>
<text text-anchor="start" x="184.5" y="-302" font-family="Helvetica,sans-Serif" font-size="10.00">payments::PaymentDetails</text>
<text text-anchor="middle" x="258.5" y="-291" font-family="Helvetica,sans-Serif" font-size="10.00">::MergePartialFromCodedStream</text>
</a>
</g>
</g>
<!-- Node1&#45;&gt;Node2 -->
<g id="edge1" class="edge"><title>Node1&#45;&gt;Node2</title>
<path fill="none" stroke="midnightblue" d="M82.0495,-175.735C99.2015,-203.642 131.348,-249.396 171,-275 176.368,-278.466 182.235,-281.438 188.304,-283.984"/>
<polygon fill="midnightblue" stroke="midnightblue" points="84.9623,-173.786 76.8184,-167.009 78.9586,-177.386 84.9623,-173.786"/>
</g>
<!-- Node3 -->
<g id="node3" class="node"><title>Node3</title>
<g id="a_node3"><a xlink:href="classpayments_1_1_payment_details.html#af820f0ae3d6b878dafc86eb33a579a22" target="_top" xlink:title="payments::PaymentDetails\l::SerializeWithCachedSizes">
<polygon fill="white" stroke="black" points="189,-235 189,-265 328,-265 328,-235 189,-235"/>
<text text-anchor="start" x="197" y="-253" font-family="Helvetica,sans-Serif" font-size="10.00">payments::PaymentDetails</text>
<text text-anchor="middle" x="258.5" y="-242" font-family="Helvetica,sans-Serif" font-size="10.00">::SerializeWithCachedSizes</text>
</a>
</g>
</g>
<!-- Node1&#45;&gt;Node3 -->
<g id="edge2" class="edge"><title>Node1&#45;&gt;Node3</title>
<path fill="none" stroke="midnightblue" d="M93.3193,-173.813C113.141,-190.23 142.266,-212.192 171,-226 178.023,-229.375 185.603,-232.347 193.254,-234.946"/>
<polygon fill="midnightblue" stroke="midnightblue" points="95.3239,-170.925 85.422,-167.156 90.8124,-176.277 95.3239,-170.925"/>
</g>
<!-- Node4 -->
<g id="node4" class="node"><title>Node4</title>
<g id="a_node4"><a xlink:href="classpayments_1_1_payment_details.html#ad4def794c2ed0154ec9449d8414d74ff" target="_top" xlink:title="payments::PaymentDetails\l::SerializeWithCachedSizesToArray">
<polygon fill="white" stroke="black" points="171,-186 171,-216 346,-216 346,-186 171,-186"/>
<text text-anchor="start" x="179" y="-204" font-family="Helvetica,sans-Serif" font-size="10.00">payments::PaymentDetails</text>
<text text-anchor="middle" x="258.5" y="-193" font-family="Helvetica,sans-Serif" font-size="10.00">::SerializeWithCachedSizesToArray</text>
</a>
</g>
</g>
<!-- Node1&#45;&gt;Node4 -->
<g id="edge3" class="edge"><title>Node1&#45;&gt;Node4</title>
<path fill="none" stroke="midnightblue" d="M136.192,-169.55C156.947,-174.931 179.582,-180.799 199.619,-185.994"/>
<polygon fill="midnightblue" stroke="midnightblue" points="137.049,-166.156 126.491,-167.035 135.292,-172.932 137.049,-166.156"/>
</g>
<!-- Node5 -->
<g id="node5" class="node"><title>Node5</title>
<g id="a_node5"><a xlink:href="classpayments_1_1_payment_details.html#a5fea922191658ae9bf2d30331f184657" target="_top" xlink:title="payments::PaymentDetails\l::ByteSize">
<polygon fill="white" stroke="black" points="191,-137 191,-167 326,-167 326,-137 191,-137"/>
<text text-anchor="start" x="199" y="-155" font-family="Helvetica,sans-Serif" font-size="10.00">payments::PaymentDetails</text>
<text text-anchor="middle" x="258.5" y="-144" font-family="Helvetica,sans-Serif" font-size="10.00">::ByteSize</text>
</a>
</g>
</g>
<!-- Node1&#45;&gt;Node5 -->
<g id="edge4" class="edge"><title>Node1&#45;&gt;Node5</title>
<path fill="none" stroke="midnightblue" d="M145.435,-152C160.484,-152 176.149,-152 190.83,-152"/>
<polygon fill="midnightblue" stroke="midnightblue" points="145.134,-148.5 135.134,-152 145.134,-155.5 145.134,-148.5"/>
</g>
<!-- Node6 -->
<g id="node6" class="node"><title>Node6</title>
<g id="a_node6"><a xlink:href="classpayments_1_1_payment_details.html#a4eeba6a02bd9b15645f0447ff211a2c2" target="_top" xlink:title="payments::PaymentDetails\l::MergeFrom">
<polygon fill="white" stroke="black" points="191,-88 191,-118 326,-118 326,-88 191,-88"/>
<text text-anchor="start" x="199" y="-106" font-family="Helvetica,sans-Serif" font-size="10.00">payments::PaymentDetails</text>
<text text-anchor="middle" x="258.5" y="-95" font-family="Helvetica,sans-Serif" font-size="10.00">::MergeFrom</text>
</a>
</g>
</g>
<!-- Node1&#45;&gt;Node6 -->
<g id="edge5" class="edge"><title>Node1&#45;&gt;Node6</title>
<path fill="none" stroke="midnightblue" d="M136.192,-134.45C156.947,-129.069 179.582,-123.201 199.619,-118.006"/>
<polygon fill="midnightblue" stroke="midnightblue" points="135.292,-131.068 126.491,-136.965 137.049,-137.844 135.292,-131.068"/>
</g>
<!-- Node7 -->
<g id="node7" class="node"><title>Node7</title>
<g id="a_node7"><a xlink:href="classpayments_1_1_payment_details.html#ad5a62f10a12fedc9e44ed5db1b23e95a" target="_top" xlink:title="payments::PaymentDetails\l::set_allocated_payment_url">
<polygon fill="white" stroke="black" points="187.5,-39 187.5,-69 329.5,-69 329.5,-39 187.5,-39"/>
<text text-anchor="start" x="195.5" y="-57" font-family="Helvetica,sans-Serif" font-size="10.00">payments::PaymentDetails</text>
<text text-anchor="middle" x="258.5" y="-46" font-family="Helvetica,sans-Serif" font-size="10.00">::set_allocated_payment_url</text>
</a>
</g>
</g>
<!-- Node1&#45;&gt;Node7 -->
<g id="edge6" class="edge"><title>Node1&#45;&gt;Node7</title>
<path fill="none" stroke="midnightblue" d="M93.7703,-130.293C113.632,-114.185 142.6,-92.7225 171,-79 178.741,-75.2595 187.149,-71.9723 195.579,-69.1163"/>
<polygon fill="midnightblue" stroke="midnightblue" points="91.3315,-127.768 85.8436,-136.83 95.7853,-133.168 91.3315,-127.768"/>
</g>
<!-- Node8 -->
<g id="node8" class="node"><title>Node8</title>
<g id="a_node8"><a xlink:href="class_payment_server.html#ab846f9e8778e5cc878b644133e8628f1" target="_top" xlink:title="PaymentServer::fetchPaymentACK">
<polygon fill="white" stroke="black" points="172,-0.5 172,-19.5 345,-19.5 345,-0.5 172,-0.5"/>
<text text-anchor="middle" x="258.5" y="-7.5" font-family="Helvetica,sans-Serif" font-size="10.00">PaymentServer::fetchPaymentACK</text>
</a>
</g>
</g>
<!-- Node1&#45;&gt;Node8 -->
<g id="edge7" class="edge"><title>Node1&#45;&gt;Node8</title>
<path fill="none" stroke="midnightblue" d="M81.9123,-128.167C98.9298,-100.2 130.944,-54.5381 171,-30 178.097,-25.6521 186.049,-22.2486 194.18,-19.5845"/>
<polygon fill="midnightblue" stroke="midnightblue" points="78.8141,-126.53 76.7262,-136.917 84.8358,-130.099 78.8141,-126.53"/>
</g>
</g>
</svg>
