<?xml version="1.0" encoding="UTF-8" standalone="no"?>
<!DOCTYPE svg PUBLIC "-//W3C//DTD SVG 1.1//EN"
 "http://www.w3.org/Graphics/SVG/1.1/DTD/svg11.dtd">
<!-- Generated by graphviz version 2.38.0 (20140413.2041)
 -->
<!-- Title: payments::PaymentACK::SerializeWithCachedSizes Pages: 1 -->
<svg width="308pt" height="235pt"
 viewBox="0.00 0.00 308.00 235.00" xmlns="http://www.w3.org/2000/svg" xmlns:xlink="http://www.w3.org/1999/xlink">
<g id="graph0" class="graph" transform="scale(1 1) rotate(0) translate(4 231)">
<title>payments::PaymentACK::SerializeWithCachedSizes</title>
<polygon fill="white" stroke="none" points="-4,4 -4,-231 304,-231 304,4 -4,4"/>
<!-- Node1 -->
<g id="node1" class="node"><title>Node1</title>
<polygon fill="#bfbfbf" stroke="black" points="0,-98.5 0,-128.5 139,-128.5 139,-98.5 0,-98.5"/>
<text text-anchor="start" x="8" y="-116.5" font-family="Helvetica,sans-Serif" font-size="10.00">payments::PaymentACK</text>
<text text-anchor="middle" x="69.5" y="-105.5" font-family="Helvetica,sans-Serif" font-size="10.00">::SerializeWithCachedSizes</text>
</g>
<!-- Node2 -->
<g id="node2" class="node"><title>Node2</title>
<g id="a_node2"><a xlink:href="classpayments_1_1_payment_a_c_k.html#af6a6cc35e2ad9ea4d171a0a12d84bd53" target="_top" xlink:title="payments::PaymentACK\l::has_payment">
<polygon fill="white" stroke="black" points="175,-196.5 175,-226.5 300,-226.5 300,-196.5 175,-196.5"/>
<text text-anchor="start" x="183" y="-214.5" font-family="Helvetica,sans-Serif" font-size="10.00">payments::PaymentACK</text>
<text text-anchor="middle" x="237.5" y="-203.5" font-family="Helvetica,sans-Serif" font-size="10.00">::has_payment</text>
</a>
</g>
</g>
<!-- Node1&#45;&gt;Node2 -->
<g id="edge1" class="edge"><title>Node1&#45;&gt;Node2</title>
<path fill="none" stroke="midnightblue" d="M88.8521,-128.603C109.043,-144.703 142.903,-170.21 175,-187.5 178.07,-189.154 181.278,-190.753 184.549,-192.288"/>
<polygon fill="midnightblue" stroke="midnightblue" points="183.311,-195.568 193.87,-196.434 186.156,-189.172 183.311,-195.568"/>
</g>
<!-- Node3 -->
<g id="node3" class="node"><title>Node3</title>
<g id="a_node3"><a xlink:href="classpayments_1_1_payment_a_c_k.html#a0e41879b6b50ff2126661548f8062e1b" target="_top" xlink:title="payments::PaymentACK\l::payment">
<polygon fill="white" stroke="black" points="175,-147.5 175,-177.5 300,-177.5 300,-147.5 175,-147.5"/>
<text text-anchor="start" x="183" y="-165.5" font-family="Helvetica,sans-Serif" font-size="10.00">payments::PaymentACK</text>
<text text-anchor="middle" x="237.5" y="-154.5" font-family="Helvetica,sans-Serif" font-size="10.00">::payment</text>
</a>
</g>
</g>
<!-- Node1&#45;&gt;Node3 -->
<g id="edge2" class="edge"><title>Node1&#45;&gt;Node3</title>
<path fill="none" stroke="midnightblue" d="M121.66,-128.601C138.781,-133.655 158.032,-139.338 175.808,-144.585"/>
<polygon fill="midnightblue" stroke="midnightblue" points="174.927,-147.974 185.509,-147.448 176.909,-141.26 174.927,-147.974"/>
</g>
<!-- Node4 -->
<g id="node4" class="node"><title>Node4</title>
<g id="a_node4"><a xlink:href="classpayments_1_1_payment_a_c_k.html#ae90e5fa95495ff3c145ff405bfb88346" target="_top" xlink:title="payments::PaymentACK\l::has_memo">
<polygon fill="white" stroke="black" points="175,-98.5 175,-128.5 300,-128.5 300,-98.5 175,-98.5"/>
<text text-anchor="start" x="183" y="-116.5" font-family="Helvetica,sans-Serif" font-size="10.00">payments::PaymentACK</text>
<text text-anchor="middle" x="237.5" y="-105.5" font-family="Helvetica,sans-Serif" font-size="10.00">::has_memo</text>
</a>
</g>
</g>
<!-- Node1&#45;&gt;Node4 -->
<g id="edge3" class="edge"><title>Node1&#45;&gt;Node4</title>
<path fill="none" stroke="midnightblue" d="M139.457,-113.5C147.816,-113.5 156.372,-113.5 164.77,-113.5"/>
<polygon fill="midnightblue" stroke="midnightblue" points="164.913,-117 174.913,-113.5 164.913,-110 164.913,-117"/>
</g>
<!-- Node5 -->
<g id="node5" class="node"><title>Node5</title>
<g id="a_node5"><a xlink:href="classpayments_1_1_payment_a_c_k.html#af5473059f2e5d45e26ee2605f0d7ce97" target="_top" xlink:title="payments::PaymentACK\l::memo">
<polygon fill="white" stroke="black" points="175,-49.5 175,-79.5 300,-79.5 300,-49.5 175,-49.5"/>
<text text-anchor="start" x="183" y="-67.5" font-family="Helvetica,sans-Serif" font-size="10.00">payments::PaymentACK</text>
<text text-anchor="middle" x="237.5" y="-56.5" font-family="Helvetica,sans-Serif" font-size="10.00">::memo</text>
</a>
</g>
</g>
<!-- Node1&#45;&gt;Node5 -->
<g id="edge4" class="edge"><title>Node1&#45;&gt;Node5</title>
<path fill="none" stroke="midnightblue" d="M121.66,-98.3986C138.781,-93.3449 158.032,-87.6624 175.808,-82.4152"/>
<polygon fill="midnightblue" stroke="midnightblue" points="176.909,-85.7395 185.509,-79.5516 174.927,-79.0259 176.909,-85.7395"/>
</g>
<!-- Node6 -->
<g id="node6" class="node"><title>Node6</title>
<g id="a_node6"><a xlink:href="classpayments_1_1_payment_a_c_k.html#a2ba21e5e73c6b46659b575ed600698c0" target="_top" xlink:title="payments::PaymentACK\l::unknown_fields">
<polygon fill="white" stroke="black" points="175,-0.5 175,-30.5 300,-30.5 300,-0.5 175,-0.5"/>
<text text-anchor="start" x="183" y="-18.5" font-family="Helvetica,sans-Serif" font-size="10.00">payments::PaymentACK</text>
<text text-anchor="middle" x="237.5" y="-7.5" font-family="Helvetica,sans-Serif" font-size="10.00">::unknown_fields</text>
</a>
</g>
</g>
<!-- Node1&#45;&gt;Node6 -->
<g id="edge5" class="edge"><title>Node1&#45;&gt;Node6</title>
<path fill="none" stroke="midnightblue" d="M89.3057,-98.4188C109.608,-82.6128 143.307,-57.7288 175,-40.5 178.702,-38.4873 182.602,-36.5396 186.566,-34.6794"/>
<polygon fill="midnightblue" stroke="midnightblue" points="188.179,-37.7921 195.873,-30.5081 185.316,-31.4043 188.179,-37.7921"/>
</g>
</g>
</svg>
