<?xml version="1.0" encoding="UTF-8" standalone="no"?>
<!DOCTYPE svg PUBLIC "-//W3C//DTD SVG 1.1//EN"
 "http://www.w3.org/Graphics/SVG/1.1/DTD/svg11.dtd">
<!-- Generated by graphviz version 2.38.0 (20140413.2041)
 -->
<!-- Title: RPCConsole::setTrafficGraphRange Pages: 1 -->
<svg width="360pt" height="78pt"
 viewBox="0.00 0.00 360.00 77.50" xmlns="http://www.w3.org/2000/svg" xmlns:xlink="http://www.w3.org/1999/xlink">
<g id="graph0" class="graph" transform="scale(1 1) rotate(0) translate(4 73.5)">
<title>RPCConsole::setTrafficGraphRange</title>
<polygon fill="white" stroke="none" points="-4,4 -4,-73.5 356,-73.5 356,4 -4,4"/>
<!-- Node1 -->
<g id="node1" class="node"><title>Node1</title>
<polygon fill="#bfbfbf" stroke="black" points="0,-22.5 0,-52.5 149,-52.5 149,-22.5 0,-22.5"/>
<text text-anchor="start" x="8" y="-40.5" font-family="Helvetica,sans-Serif" font-size="10.00">RPCConsole::setTrafficGraph</text>
<text text-anchor="middle" x="74.5" y="-29.5" font-family="Helvetica,sans-Serif" font-size="10.00">Range</text>
</g>
<!-- Node2 -->
<g id="node2" class="node"><title>Node2</title>
<g id="a_node2"><a xlink:href="class_r_p_c_console.html#aeac546e68f8c2cafa79a0294dd78f2ad" target="_top" xlink:title="RPCConsole::RPCConsole">
<polygon fill="white" stroke="black" points="199.5,-50 199.5,-69 337.5,-69 337.5,-50 199.5,-50"/>
<text text-anchor="middle" x="268.5" y="-57" font-family="Helvetica,sans-Serif" font-size="10.00">RPCConsole::RPCConsole</text>
</a>
</g>
</g>
<!-- Node1&#45;&gt;Node2 -->
<g id="edge1" class="edge"><title>Node1&#45;&gt;Node2</title>
<path fill="none" stroke="midnightblue" d="M159.334,-47.106C172.712,-48.6389 186.411,-50.2086 199.369,-51.6933"/>
<polygon fill="midnightblue" stroke="midnightblue" points="159.517,-43.6041 149.183,-45.9429 158.72,-50.5586 159.517,-43.6041"/>
</g>
<!-- Node3 -->
<g id="node3" class="node"><title>Node3</title>
<g id="a_node3"><a xlink:href="class_r_p_c_console.html#a9eab099b48f3135fb4a98591fd48e88b" target="_top" xlink:title="change the time range of the network traffic graph ">
<polygon fill="white" stroke="black" points="185,-0.5 185,-30.5 352,-30.5 352,-0.5 185,-0.5"/>
<text text-anchor="start" x="193" y="-18.5" font-family="Helvetica,sans-Serif" font-size="10.00">RPCConsole::on_sldGraphRange</text>
<text text-anchor="middle" x="268.5" y="-7.5" font-family="Helvetica,sans-Serif" font-size="10.00">_valueChanged</text>
</a>
</g>
</g>
<!-- Node1&#45;&gt;Node3 -->
<g id="edge2" class="edge"><title>Node1&#45;&gt;Node3</title>
<path fill="none" stroke="midnightblue" d="M159.369,-27.89C167.786,-26.9256 176.329,-25.9467 184.734,-24.9836"/>
<polygon fill="midnightblue" stroke="midnightblue" points="158.72,-24.4414 149.183,-29.0571 159.517,-31.3959 158.72,-24.4414"/>
</g>
</g>
</svg>
