<?xml version="1.0" encoding="UTF-8" standalone="no"?>
<!DOCTYPE svg PUBLIC "-//W3C//DTD SVG 1.1//EN"
 "http://www.w3.org/Graphics/SVG/1.1/DTD/svg11.dtd">
<!-- Generated by graphviz version 2.38.0 (20140413.2041)
 -->
<!-- Title: CNode::EndMessage Pages: 1 -->
<svg width="1191pt" height="142pt"
 viewBox="0.00 0.00 1191.00 142.00" xmlns="http://www.w3.org/2000/svg" xmlns:xlink="http://www.w3.org/1999/xlink">
<g id="graph0" class="graph" transform="scale(1 1) rotate(0) translate(4 138)">
<title>CNode::EndMessage</title>
<polygon fill="white" stroke="none" points="-4,4 -4,-138 1187,-138 1187,4 -4,4"/>
<!-- Node1 -->
<g id="node1" class="node"><title>Node1</title>
<polygon fill="#bfbfbf" stroke="black" points="0,-57.5 0,-76.5 112,-76.5 112,-57.5 0,-57.5"/>
<text text-anchor="middle" x="56" y="-64.5" font-family="Helvetica,sans-Serif" font-size="10.00">CNode::EndMessage</text>
</g>
<!-- Node2 -->
<g id="node2" class="node"><title>Node2</title>
<g id="a_node2"><a xlink:href="class_c_node.html#a204fda3d33404cb37698c085b1583ab2" target="_top" xlink:title="CNode::PushMessage">
<polygon fill="white" stroke="black" points="148,-57.5 148,-76.5 265,-76.5 265,-57.5 148,-57.5"/>
<text text-anchor="middle" x="206.5" y="-64.5" font-family="Helvetica,sans-Serif" font-size="10.00">CNode::PushMessage</text>
</a>
</g>
</g>
<!-- Node1&#45;&gt;Node2 -->
<g id="edge1" class="edge"><title>Node1&#45;&gt;Node2</title>
<path fill="none" stroke="midnightblue" d="M122.442,-67C130.846,-67 139.403,-67 147.674,-67"/>
<polygon fill="midnightblue" stroke="midnightblue" points="122.296,-63.5001 112.296,-67 122.296,-70.5001 122.296,-63.5001"/>
</g>
<!-- Node3 -->
<g id="node3" class="node"><title>Node3</title>
<g id="a_node3"><a xlink:href="class_c_alert.html#ae89d673f6f1285eefcc343b3c029dab5" target="_top" xlink:title="CAlert::RelayTo">
<polygon fill="white" stroke="black" points="301,-114.5 301,-133.5 388,-133.5 388,-114.5 301,-114.5"/>
<text text-anchor="middle" x="344.5" y="-121.5" font-family="Helvetica,sans-Serif" font-size="10.00">CAlert::RelayTo</text>
</a>
</g>
</g>
<!-- Node2&#45;&gt;Node3 -->
<g id="edge2" class="edge"><title>Node2&#45;&gt;Node3</title>
<path fill="none" stroke="midnightblue" d="M239.661,-80.4793C264.574,-90.9208 298.473,-105.129 320.662,-114.428"/>
<polygon fill="midnightblue" stroke="midnightblue" points="240.839,-77.178 230.263,-76.5405 238.133,-83.6339 240.839,-77.178"/>
</g>
<!-- Node4 -->
<g id="node4" class="node"><title>Node4</title>
<g id="a_node4"><a xlink:href="main_8h.html#a28098619373dbab927d25bca3cea8a4a" target="_top" xlink:title="PushGetBlocks">
<polygon fill="white" stroke="black" points="302,-76.5 302,-95.5 387,-95.5 387,-76.5 302,-76.5"/>
<text text-anchor="middle" x="344.5" y="-83.5" font-family="Helvetica,sans-Serif" font-size="10.00">PushGetBlocks</text>
</a>
</g>
</g>
<!-- Node2&#45;&gt;Node4 -->
<g id="edge3" class="edge"><title>Node2&#45;&gt;Node4</title>
<path fill="none" stroke="midnightblue" d="M275.342,-76.4779C284.377,-77.7402 293.416,-79.003 301.821,-80.1771"/>
<polygon fill="midnightblue" stroke="midnightblue" points="275.564,-72.9751 265.176,-75.0577 274.596,-79.9078 275.564,-72.9751"/>
</g>
<!-- Node13 -->
<g id="node13" class="node"><title>Node13</title>
<g id="a_node13"><a xlink:href="main_8h.html#a711a5bdb30c9c9bbdc83011b1cbbe2f3" target="_top" xlink:title="Send queued protocol messages to be sent to a give node. ">
<polygon fill="white" stroke="black" points="430.5,-38.5 430.5,-57.5 515.5,-57.5 515.5,-38.5 430.5,-38.5"/>
<text text-anchor="middle" x="473" y="-45.5" font-family="Helvetica,sans-Serif" font-size="10.00">SendMessages</text>
</a>
</g>
</g>
<!-- Node2&#45;&gt;Node13 -->
<g id="edge22" class="edge"><title>Node2&#45;&gt;Node13</title>
<path fill="none" stroke="midnightblue" d="M275.415,-62.1214C324.369,-58.6049 388.871,-53.9715 430.395,-50.9887"/>
<polygon fill="midnightblue" stroke="midnightblue" points="274.942,-58.6463 265.219,-62.8538 275.444,-65.6283 274.942,-58.6463"/>
</g>
<!-- Node18 -->
<g id="node18" class="node"><title>Node18</title>
<g id="a_node18"><a xlink:href="main_8h.html#a196f9318f02448b85b28d612698934fd" target="_top" xlink:title="Process protocol messages received from a given node. ">
<polygon fill="white" stroke="black" points="424,-0.5 424,-19.5 522,-19.5 522,-0.5 424,-0.5"/>
<text text-anchor="middle" x="473" y="-7.5" font-family="Helvetica,sans-Serif" font-size="10.00">ProcessMessages</text>
</a>
</g>
</g>
<!-- Node2&#45;&gt;Node18 -->
<g id="edge19" class="edge"><title>Node2&#45;&gt;Node18</title>
<path fill="none" stroke="midnightblue" d="M261.561,-55.3497C310.543,-44.7941 381.852,-29.427 427.584,-19.5716"/>
<polygon fill="midnightblue" stroke="midnightblue" points="260.81,-51.9313 251.771,-57.4595 262.284,-58.7742 260.81,-51.9313"/>
</g>
<!-- Node5 -->
<g id="node5" class="node"><title>Node5</title>
<g id="a_node5"><a xlink:href="main_8h.html#a87a59e710c26c4a10de57b5acb1e2e92" target="_top" xlink:title="Process an incoming block. ">
<polygon fill="white" stroke="black" points="434.5,-76.5 434.5,-95.5 511.5,-95.5 511.5,-76.5 434.5,-76.5"/>
<text text-anchor="middle" x="473" y="-83.5" font-family="Helvetica,sans-Serif" font-size="10.00">ProcessBlock</text>
</a>
</g>
</g>
<!-- Node4&#45;&gt;Node5 -->
<g id="edge4" class="edge"><title>Node4&#45;&gt;Node5</title>
<path fill="none" stroke="midnightblue" d="M397.413,-86C409.703,-86 422.582,-86 434.114,-86"/>
<polygon fill="midnightblue" stroke="midnightblue" points="397.271,-82.5001 387.271,-86 397.271,-89.5001 397.271,-82.5001"/>
</g>
<!-- Node4&#45;&gt;Node13 -->
<g id="edge12" class="edge"><title>Node4&#45;&gt;Node13</title>
<path fill="none" stroke="midnightblue" d="M387.229,-73.4647C404.438,-68.2952 424.06,-62.4009 440.089,-57.5859"/>
<polygon fill="midnightblue" stroke="midnightblue" points="385.992,-70.1819 377.421,-76.411 388.005,-76.886 385.992,-70.1819"/>
</g>
<!-- Node6 -->
<g id="node6" class="node"><title>Node6</title>
<g id="a_node6"><a xlink:href="main_8h.html#a8641eccb4e5d174838adeea9b234a691" target="_top" xlink:title="Import blocks from an external file. ">
<polygon fill="white" stroke="black" points="559.5,-76.5 559.5,-95.5 675.5,-95.5 675.5,-76.5 559.5,-76.5"/>
<text text-anchor="middle" x="617.5" y="-83.5" font-family="Helvetica,sans-Serif" font-size="10.00">LoadExternalBlockFile</text>
</a>
</g>
</g>
<!-- Node5&#45;&gt;Node6 -->
<g id="edge5" class="edge"><title>Node5&#45;&gt;Node6</title>
<path fill="none" stroke="midnightblue" d="M522.066,-86C534.066,-86 547.051,-86 559.44,-86"/>
<polygon fill="midnightblue" stroke="midnightblue" points="521.813,-82.5001 511.813,-86 521.813,-89.5001 521.813,-82.5001"/>
</g>
<!-- Node12 -->
<g id="node12" class="node"><title>Node12</title>
<g id="a_node12"><a xlink:href="rpcmining_8cpp.html#a6fc1aa077add8cb1c74207056616134d" target="_top" xlink:title="submitblock">
<polygon fill="white" stroke="black" points="583,-114.5 583,-133.5 652,-133.5 652,-114.5 583,-114.5"/>
<text text-anchor="middle" x="617.5" y="-121.5" font-family="Helvetica,sans-Serif" font-size="10.00">submitblock</text>
</a>
</g>
</g>
<!-- Node5&#45;&gt;Node12 -->
<g id="edge11" class="edge"><title>Node5&#45;&gt;Node12</title>
<path fill="none" stroke="midnightblue" d="M519.68,-98.1813C540.082,-103.622 563.708,-109.922 582.515,-114.937"/>
<polygon fill="midnightblue" stroke="midnightblue" points="520.523,-94.7839 509.959,-95.589 518.719,-101.548 520.523,-94.7839"/>
</g>
<!-- Node7 -->
<g id="node7" class="node"><title>Node7</title>
<g id="a_node7"><a xlink:href="init_8cpp.html#a0189c34248cd89bbbe20d4d6045bd7c9" target="_top" xlink:title="ThreadImport">
<polygon fill="white" stroke="black" points="713,-76.5 713,-95.5 790,-95.5 790,-76.5 713,-76.5"/>
<text text-anchor="middle" x="751.5" y="-83.5" font-family="Helvetica,sans-Serif" font-size="10.00">ThreadImport</text>
</a>
</g>
</g>
<!-- Node6&#45;&gt;Node7 -->
<g id="edge6" class="edge"><title>Node6&#45;&gt;Node7</title>
<path fill="none" stroke="midnightblue" d="M685.681,-86C694.965,-86 704.218,-86 712.704,-86"/>
<polygon fill="midnightblue" stroke="midnightblue" points="685.629,-82.5001 675.629,-86 685.629,-89.5001 685.629,-82.5001"/>
</g>
<!-- Node8 -->
<g id="node8" class="node"><title>Node8</title>
<g id="a_node8"><a xlink:href="init_8h.html#a1a4c1bfbf6ba1db77e988b89b9cadfd3" target="_top" xlink:title="Initialize anoncoin. ">
<polygon fill="white" stroke="black" points="863,-57.5 863,-76.5 916,-76.5 916,-57.5 863,-57.5"/>
<text text-anchor="middle" x="889.5" y="-64.5" font-family="Helvetica,sans-Serif" font-size="10.00">AppInit2</text>
</a>
</g>
</g>
<!-- Node7&#45;&gt;Node8 -->
<g id="edge7" class="edge"><title>Node7&#45;&gt;Node8</title>
<path fill="none" stroke="midnightblue" d="M800.086,-79.352C821.137,-76.411 845.066,-73.068 862.716,-70.6022"/>
<polygon fill="midnightblue" stroke="midnightblue" points="799.442,-75.9078 790.023,-80.7579 800.411,-82.8405 799.442,-75.9078"/>
</g>
<!-- Node9 -->
<g id="node9" class="node"><title>Node9</title>
<g id="a_node9"><a xlink:href="anoncoind_8cpp.html#ac59316b767e6984e1285f0531275286b" target="_top" xlink:title="AppInit">
<polygon fill="white" stroke="black" points="1025,-0.5 1025,-19.5 1073,-19.5 1073,-0.5 1025,-0.5"/>
<text text-anchor="middle" x="1049" y="-7.5" font-family="Helvetica,sans-Serif" font-size="10.00">AppInit</text>
</a>
</g>
</g>
<!-- Node8&#45;&gt;Node9 -->
<g id="edge8" class="edge"><title>Node8&#45;&gt;Node9</title>
<path fill="none" stroke="midnightblue" d="M925.915,-56.8085C934.806,-54.0926 944.293,-51.0586 953,-48 978.139,-39.169 1006.43,-27.6406 1025.56,-19.6077"/>
<polygon fill="midnightblue" stroke="midnightblue" points="924.775,-53.4964 916.203,-59.724 926.787,-60.2008 924.775,-53.4964"/>
</g>
<!-- Node11 -->
<g id="node11" class="node"><title>Node11</title>
<g id="a_node11"><a xlink:href="class_anoncoin_coin.html#a9510881824d283404ac43414dbb74586" target="_top" xlink:title="AnoncoinCoin::initialize">
<polygon fill="white" stroke="black" points="989,-57.5 989,-76.5 1109,-76.5 1109,-57.5 989,-57.5"/>
<text text-anchor="middle" x="1049" y="-64.5" font-family="Helvetica,sans-Serif" font-size="10.00">AnoncoinCoin::initialize</text>
</a>
</g>
</g>
<!-- Node8&#45;&gt;Node11 -->
<g id="edge10" class="edge"><title>Node8&#45;&gt;Node11</title>
<path fill="none" stroke="midnightblue" d="M926.213,-67C944.75,-67 967.877,-67 988.984,-67"/>
<polygon fill="midnightblue" stroke="midnightblue" points="926.156,-63.5001 916.156,-67 926.156,-70.5001 926.156,-63.5001"/>
</g>
<!-- Node10 -->
<g id="node10" class="node"><title>Node10</title>
<g id="a_node10"><a xlink:href="anoncoind_8cpp.html#a0ddf1224851353fc92bfbff6f499fa97" target="_top" xlink:title="main">
<polygon fill="white" stroke="black" points="1145,-0.5 1145,-19.5 1183,-19.5 1183,-0.5 1145,-0.5"/>
<text text-anchor="middle" x="1164" y="-7.5" font-family="Helvetica,sans-Serif" font-size="10.00">main</text>
</a>
</g>
</g>
<!-- Node9&#45;&gt;Node10 -->
<g id="edge9" class="edge"><title>Node9&#45;&gt;Node10</title>
<path fill="none" stroke="midnightblue" d="M1083.15,-10C1103.25,-10 1128.13,-10 1144.73,-10"/>
<polygon fill="midnightblue" stroke="midnightblue" points="1083.14,-6.5001 1073.14,-10 1083.14,-13.5001 1083.14,-6.5001"/>
</g>
<!-- Node14 -->
<g id="node14" class="node"><title>Node14</title>
<g id="a_node14"><a xlink:href="main_8h.html#ab02615ff65f91d69f8d786ec900baa8a" target="_top" xlink:title="Register with a network node to receive its signals. ">
<polygon fill="white" stroke="black" points="562.5,-38.5 562.5,-57.5 672.5,-57.5 672.5,-38.5 562.5,-38.5"/>
<text text-anchor="middle" x="617.5" y="-45.5" font-family="Helvetica,sans-Serif" font-size="10.00">RegisterNodeSignals</text>
</a>
</g>
</g>
<!-- Node13&#45;&gt;Node14 -->
<g id="edge13" class="edge"><title>Node13&#45;&gt;Node14</title>
<path fill="none" stroke="midnightblue" d="M525.814,-48C537.708,-48 550.385,-48 562.374,-48"/>
<polygon fill="midnightblue" stroke="midnightblue" points="525.6,-44.5001 515.6,-48 525.6,-51.5001 525.6,-44.5001"/>
</g>
<!-- Node15 -->
<g id="node15" class="node"><title>Node15</title>
<g id="a_node15"><a xlink:href="main_8h.html#a3ef0cc6e9d9d6435ee2a5569244d6ebd" target="_top" xlink:title="Unregister a network node. ">
<polygon fill="white" stroke="black" points="558,-0.5 558,-19.5 677,-19.5 677,-0.5 558,-0.5"/>
<text text-anchor="middle" x="617.5" y="-7.5" font-family="Helvetica,sans-Serif" font-size="10.00">UnregisterNodeSignals</text>
</a>
</g>
</g>
<!-- Node13&#45;&gt;Node15 -->
<g id="edge15" class="edge"><title>Node13&#45;&gt;Node15</title>
<path fill="none" stroke="midnightblue" d="M519.653,-35.8258C539.358,-30.5713 562.075,-24.5134 580.553,-19.5859"/>
<polygon fill="midnightblue" stroke="midnightblue" points="518.719,-32.4525 509.959,-38.411 520.523,-39.2161 518.719,-32.4525"/>
</g>
<!-- Node14&#45;&gt;Node8 -->
<g id="edge14" class="edge"><title>Node14&#45;&gt;Node8</title>
<path fill="none" stroke="midnightblue" d="M682.912,-52.5327C740.481,-56.5839 821.88,-62.3119 862.84,-65.1943"/>
<polygon fill="midnightblue" stroke="midnightblue" points="683.035,-49.0328 672.814,-51.8221 682.543,-56.0155 683.035,-49.0328"/>
</g>
<!-- Node16 -->
<g id="node16" class="node"><title>Node16</title>
<g id="a_node16"><a xlink:href="init_8h.html#ac5f038c2b480cf9ef5e19e3eba8dbaf9" target="_top" xlink:title="Shutdown">
<polygon fill="white" stroke="black" points="721,-0.5 721,-19.5 782,-19.5 782,-0.5 721,-0.5"/>
<text text-anchor="middle" x="751.5" y="-7.5" font-family="Helvetica,sans-Serif" font-size="10.00">Shutdown</text>
</a>
</g>
</g>
<!-- Node15&#45;&gt;Node16 -->
<g id="edge16" class="edge"><title>Node15&#45;&gt;Node16</title>
<path fill="none" stroke="midnightblue" d="M687.504,-10C699.275,-10 710.917,-10 720.931,-10"/>
<polygon fill="midnightblue" stroke="midnightblue" points="687.166,-6.5001 677.166,-10 687.166,-13.5001 687.166,-6.5001"/>
</g>
<!-- Node16&#45;&gt;Node9 -->
<g id="edge17" class="edge"><title>Node16&#45;&gt;Node9</title>
<path fill="none" stroke="midnightblue" d="M792.456,-10C855.045,-10 974.247,-10 1024.61,-10"/>
<polygon fill="midnightblue" stroke="midnightblue" points="792.187,-6.5001 782.187,-10 792.187,-13.5001 792.187,-6.5001"/>
</g>
<!-- Node17 -->
<g id="node17" class="node"><title>Node17</title>
<g id="a_node17"><a xlink:href="class_anoncoin_coin.html#ac33fbca9335d356d9d6102a0122f2a5b" target="_top" xlink:title="AnoncoinCoin::shutdown">
<polygon fill="white" stroke="black" points="826,-19.5 826,-38.5 953,-38.5 953,-19.5 826,-19.5"/>
<text text-anchor="middle" x="889.5" y="-26.5" font-family="Helvetica,sans-Serif" font-size="10.00">AnoncoinCoin::shutdown</text>
</a>
</g>
</g>
<!-- Node16&#45;&gt;Node17 -->
<g id="edge18" class="edge"><title>Node16&#45;&gt;Node17</title>
<path fill="none" stroke="midnightblue" d="M792.145,-15.5386C802.698,-17.013 814.362,-18.6425 825.823,-20.2436"/>
<polygon fill="midnightblue" stroke="midnightblue" points="792.398,-12.0401 782.01,-14.1227 791.429,-18.9728 792.398,-12.0401"/>
</g>
<!-- Node18&#45;&gt;Node14 -->
<g id="edge20" class="edge"><title>Node18&#45;&gt;Node14</title>
<path fill="none" stroke="midnightblue" d="M519.653,-22.1742C539.358,-27.4287 562.075,-33.4866 580.553,-38.4141"/>
<polygon fill="midnightblue" stroke="midnightblue" points="520.523,-18.7839 509.959,-19.589 518.719,-25.5475 520.523,-18.7839"/>
</g>
<!-- Node18&#45;&gt;Node15 -->
<g id="edge21" class="edge"><title>Node18&#45;&gt;Node15</title>
<path fill="none" stroke="midnightblue" d="M532.377,-10C540.812,-10 549.497,-10 557.936,-10"/>
<polygon fill="midnightblue" stroke="midnightblue" points="532.244,-6.5001 522.244,-10 532.244,-13.5001 532.244,-6.5001"/>
</g>
</g>
</svg>
