<?xml version="1.0" encoding="UTF-8" standalone="no"?>
<!DOCTYPE svg PUBLIC "-//W3C//DTD SVG 1.1//EN"
 "http://www.w3.org/Graphics/SVG/1.1/DTD/svg11.dtd">
<!-- Generated by graphviz version 2.38.0 (20140413.2041)
 -->
<!-- Title: CNode::PushAddress Pages: 1 -->
<svg width="253pt" height="66pt"
 viewBox="0.00 0.00 253.00 66.00" xmlns="http://www.w3.org/2000/svg" xmlns:xlink="http://www.w3.org/1999/xlink">
<g id="graph0" class="graph" transform="scale(1 1) rotate(0) translate(4 62)">
<title>CNode::PushAddress</title>
<polygon fill="white" stroke="none" points="-4,4 -4,-62 249,-62 249,4 -4,4"/>
<!-- Node1 -->
<g id="node1" class="node"><title>Node1</title>
<polygon fill="#bfbfbf" stroke="black" points="0,-19.5 0,-38.5 113,-38.5 113,-19.5 0,-19.5"/>
<text text-anchor="middle" x="56.5" y="-26.5" font-family="Helvetica,sans-Serif" font-size="10.00">CNode::PushAddress</text>
</g>
<!-- Node2 -->
<g id="node2" class="node"><title>Node2</title>
<g id="a_node2"><a xlink:href="class_c_net_addr.html#a52a1b506f07e5450057e12a8b5a7fbcd" target="_top" xlink:title="CNetAddr::IsValid">
<polygon fill="white" stroke="black" points="149,-38.5 149,-57.5 245,-57.5 245,-38.5 149,-38.5"/>
<text text-anchor="middle" x="197" y="-45.5" font-family="Helvetica,sans-Serif" font-size="10.00">CNetAddr::IsValid</text>
</a>
</g>
</g>
<!-- Node1&#45;&gt;Node2 -->
<g id="edge1" class="edge"><title>Node1&#45;&gt;Node2</title>
<path fill="none" stroke="midnightblue" d="M113.035,-36.6185C121.582,-37.791 130.418,-39.0032 138.996,-40.18"/>
<polygon fill="midnightblue" stroke="midnightblue" points="138.531,-43.6489 148.914,-41.5405 139.482,-36.7138 138.531,-43.6489"/>
</g>
<!-- Node3 -->
<g id="node3" class="node"><title>Node3</title>
<g id="a_node3"><a xlink:href="classmruset.html#abf122b956abffbf3ce190c80d215660c" target="_top" xlink:title="mruset::count">
<polygon fill="white" stroke="black" points="158.5,-0.5 158.5,-19.5 235.5,-19.5 235.5,-0.5 158.5,-0.5"/>
<text text-anchor="middle" x="197" y="-7.5" font-family="Helvetica,sans-Serif" font-size="10.00">mruset::count</text>
</a>
</g>
</g>
<!-- Node1&#45;&gt;Node3 -->
<g id="edge2" class="edge"><title>Node1&#45;&gt;Node3</title>
<path fill="none" stroke="midnightblue" d="M113.035,-21.3815C124.674,-19.7848 136.852,-18.1142 148.18,-16.5601"/>
<polygon fill="midnightblue" stroke="midnightblue" points="148.874,-19.9978 158.306,-15.171 147.923,-13.0627 148.874,-19.9978"/>
</g>
</g>
</svg>
