<?xml version="1.0" encoding="UTF-8" standalone="no"?>
<!DOCTYPE svg PUBLIC "-//W3C//DTD SVG 1.1//EN"
 "http://www.w3.org/Graphics/SVG/1.1/DTD/svg11.dtd">
<!-- Generated by graphviz version 2.38.0 (20140413.2041)
 -->
<!-- Title: Ui::EditAddressDialog Pages: 1 -->
<svg width="122pt" height="209pt"
 viewBox="0.00 0.00 122.00 209.00" xmlns="http://www.w3.org/2000/svg" xmlns:xlink="http://www.w3.org/1999/xlink">
<g id="graph0" class="graph" transform="scale(1 1) rotate(0) translate(4 205)">
<title>Ui::EditAddressDialog</title>
<polygon fill="white" stroke="none" points="-4,4 -4,-205 118,-205 118,4 -4,4"/>
<!-- Node1 -->
<g id="node1" class="node"><title>Node1</title>
<polygon fill="#bfbfbf" stroke="black" points="0,-0.5 0,-19.5 114,-19.5 114,-0.5 0,-0.5"/>
<text text-anchor="middle" x="57" y="-7.5" font-family="Helvetica,sans-Serif" font-size="10.00">Ui::EditAddressDialog</text>
</g>
<!-- Node2 -->
<g id="node2" class="node"><title>Node2</title>
<g id="a_node2"><a xlink:href="class_ui___edit_address_dialog.html" target="_top" xlink:title="Ui_EditAddressDialog">
<polygon fill="white" stroke="black" points="0,-57.5 0,-76.5 114,-76.5 114,-57.5 0,-57.5"/>
<text text-anchor="middle" x="57" y="-64.5" font-family="Helvetica,sans-Serif" font-size="10.00">Ui_EditAddressDialog</text>
</a>
</g>
</g>
<!-- Node2&#45;&gt;Node1 -->
<g id="edge1" class="edge"><title>Node2&#45;&gt;Node1</title>
<path fill="none" stroke="midnightblue" d="M57,-47.1166C57,-37.8173 57,-27.0557 57,-19.7149"/>
<polygon fill="midnightblue" stroke="midnightblue" points="53.5001,-47.4062 57,-57.4062 60.5001,-47.4063 53.5001,-47.4062"/>
</g>
<!-- Node3 -->
<g id="node3" class="node"><title>Node3</title>
<g id="a_node3"><a xlink:href="class_q_validated_line_edit.html" target="_top" xlink:title="Line edit that can be marked as &quot;invalid&quot; to show input validation feedback. ">
<polygon fill="white" stroke="black" points="6,-124.5 6,-143.5 108,-143.5 108,-124.5 6,-124.5"/>
<text text-anchor="middle" x="57" y="-131.5" font-family="Helvetica,sans-Serif" font-size="10.00">QValidatedLineEdit</text>
</a>
</g>
</g>
<!-- Node3&#45;&gt;Node2 -->
<g id="edge2" class="edge"><title>Node3&#45;&gt;Node2</title>
<path fill="none" stroke="#9a32cd" stroke-dasharray="5,2" d="M57,-114.037C57,-101.67 57,-86.1198 57,-76.6273"/>
<polygon fill="#9a32cd" stroke="#9a32cd" points="53.5001,-114.234 57,-124.234 60.5001,-114.234 53.5001,-114.234"/>
<text text-anchor="middle" x="85" y="-98" font-family="Helvetica,sans-Serif" font-size="10.00"> addressEdit</text>
</g>
<!-- Node4 -->
<g id="node4" class="node"><title>Node4</title>
<polygon fill="white" stroke="#bfbfbf" points="27,-181.5 27,-200.5 87,-200.5 87,-181.5 27,-181.5"/>
<text text-anchor="middle" x="57" y="-188.5" font-family="Helvetica,sans-Serif" font-size="10.00">QLineEdit</text>
</g>
<!-- Node4&#45;&gt;Node3 -->
<g id="edge3" class="edge"><title>Node4&#45;&gt;Node3</title>
<path fill="none" stroke="midnightblue" d="M57,-171.117C57,-161.817 57,-151.056 57,-143.715"/>
<polygon fill="midnightblue" stroke="midnightblue" points="53.5001,-171.406 57,-181.406 60.5001,-171.406 53.5001,-171.406"/>
</g>
</g>
</svg>
