<?xml version="1.0" encoding="UTF-8" standalone="no"?>
<!DOCTYPE svg PUBLIC "-//W3C//DTD SVG 1.1//EN"
 "http://www.w3.org/Graphics/SVG/1.1/DTD/svg11.dtd">
<!-- Generated by graphviz version 2.38.0 (20140413.2041)
 -->
<!-- Title: CDBEnv::TxnBegin Pages: 1 -->
<svg width="629pt" height="104pt"
 viewBox="0.00 0.00 629.00 104.00" xmlns="http://www.w3.org/2000/svg" xmlns:xlink="http://www.w3.org/1999/xlink">
<g id="graph0" class="graph" transform="scale(1 1) rotate(0) translate(4 100)">
<title>CDBEnv::TxnBegin</title>
<polygon fill="white" stroke="none" points="-4,4 -4,-100 625,-100 625,4 -4,4"/>
<!-- Node1 -->
<g id="node1" class="node"><title>Node1</title>
<polygon fill="#bfbfbf" stroke="black" points="0,-57.5 0,-76.5 103,-76.5 103,-57.5 0,-57.5"/>
<text text-anchor="middle" x="51.5" y="-64.5" font-family="Helvetica,sans-Serif" font-size="10.00">CDBEnv::TxnBegin</text>
</g>
<!-- Node2 -->
<g id="node2" class="node"><title>Node2</title>
<g id="a_node2"><a xlink:href="class_c_d_b.html#a6f817da7947e1498e44034b7a1c8ac10" target="_top" xlink:title="CDB::TxnBegin">
<polygon fill="white" stroke="black" points="150.5,-76.5 150.5,-95.5 235.5,-95.5 235.5,-76.5 150.5,-76.5"/>
<text text-anchor="middle" x="193" y="-83.5" font-family="Helvetica,sans-Serif" font-size="10.00">CDB::TxnBegin</text>
</a>
</g>
</g>
<!-- Node1&#45;&gt;Node2 -->
<g id="edge1" class="edge"><title>Node1&#45;&gt;Node2</title>
<path fill="none" stroke="midnightblue" d="M113.166,-75.2628C125.666,-76.9653 138.563,-78.7218 150.212,-80.3084"/>
<polygon fill="midnightblue" stroke="midnightblue" points="113.638,-71.7948 103.257,-73.9132 112.693,-78.7308 113.638,-71.7948"/>
</g>
<!-- Node4 -->
<g id="node4" class="node"><title>Node4</title>
<g id="a_node4"><a xlink:href="class_c_wallet_d_b.html#a3ebeb12f37d9c66512e2bc2903a6854a" target="_top" xlink:title="CWalletDB::Recover">
<polygon fill="white" stroke="black" points="139,-38.5 139,-57.5 247,-57.5 247,-38.5 139,-38.5"/>
<text text-anchor="middle" x="193" y="-45.5" font-family="Helvetica,sans-Serif" font-size="10.00">CWalletDB::Recover</text>
</a>
</g>
</g>
<!-- Node1&#45;&gt;Node4 -->
<g id="edge3" class="edge"><title>Node1&#45;&gt;Node4</title>
<path fill="none" stroke="midnightblue" d="M113.41,-58.704C121.832,-57.557 130.429,-56.3861 138.698,-55.2597"/>
<polygon fill="midnightblue" stroke="midnightblue" points="112.693,-55.2692 103.257,-60.0868 113.638,-62.2052 112.693,-55.2692"/>
</g>
<!-- Node3 -->
<g id="node3" class="node"><title>Node3</title>
<g id="a_node3"><a xlink:href="rpcwallet_8cpp.html#a7dcb5aa63b46944bc4874719c8e1db15" target="_top" xlink:title="movecmd">
<polygon fill="white" stroke="black" points="307,-76.5 307,-95.5 367,-95.5 367,-76.5 307,-76.5"/>
<text text-anchor="middle" x="337" y="-83.5" font-family="Helvetica,sans-Serif" font-size="10.00">movecmd</text>
</a>
</g>
</g>
<!-- Node2&#45;&gt;Node3 -->
<g id="edge2" class="edge"><title>Node2&#45;&gt;Node3</title>
<path fill="none" stroke="midnightblue" d="M245.965,-86C266.402,-86 289.111,-86 306.61,-86"/>
<polygon fill="midnightblue" stroke="midnightblue" points="245.837,-82.5001 235.837,-86 245.837,-89.5001 245.837,-82.5001"/>
</g>
<!-- Node5 -->
<g id="node5" class="node"><title>Node5</title>
<g id="a_node5"><a xlink:href="init_8h.html#a1a4c1bfbf6ba1db77e988b89b9cadfd3" target="_top" xlink:title="Initialize anoncoin. ">
<polygon fill="white" stroke="black" points="310.5,-38.5 310.5,-57.5 363.5,-57.5 363.5,-38.5 310.5,-38.5"/>
<text text-anchor="middle" x="337" y="-45.5" font-family="Helvetica,sans-Serif" font-size="10.00">AppInit2</text>
</a>
</g>
</g>
<!-- Node4&#45;&gt;Node5 -->
<g id="edge4" class="edge"><title>Node4&#45;&gt;Node5</title>
<path fill="none" stroke="midnightblue" d="M257.525,-48C276.154,-48 295.478,-48 310.289,-48"/>
<polygon fill="midnightblue" stroke="midnightblue" points="257.28,-44.5001 247.28,-48 257.28,-51.5001 257.28,-44.5001"/>
</g>
<!-- Node9 -->
<g id="node9" class="node"><title>Node9</title>
<g id="a_node9"><a xlink:href="class_c_wallet_d_b.html#a44388f1c3ee63191dcb78b1001e9390c" target="_top" xlink:title="CWalletDB::Recover">
<polygon fill="white" stroke="black" points="283,-0.5 283,-19.5 391,-19.5 391,-0.5 283,-0.5"/>
<text text-anchor="middle" x="337" y="-7.5" font-family="Helvetica,sans-Serif" font-size="10.00">CWalletDB::Recover</text>
</a>
</g>
</g>
<!-- Node4&#45;&gt;Node9 -->
<g id="edge8" class="edge"><title>Node4&#45;&gt;Node9</title>
<path fill="none" stroke="midnightblue" d="M239.493,-35.8258C259.128,-30.5713 281.766,-24.5134 300.179,-19.5859"/>
<polygon fill="midnightblue" stroke="midnightblue" points="238.588,-32.4448 229.833,-38.411 240.397,-39.2069 238.588,-32.4448"/>
</g>
<!-- Node6 -->
<g id="node6" class="node"><title>Node6</title>
<g id="a_node6"><a xlink:href="anoncoind_8cpp.html#ac59316b767e6984e1285f0531275286b" target="_top" xlink:title="AppInit">
<polygon fill="white" stroke="black" points="463,-57.5 463,-76.5 511,-76.5 511,-57.5 463,-57.5"/>
<text text-anchor="middle" x="487" y="-64.5" font-family="Helvetica,sans-Serif" font-size="10.00">AppInit</text>
</a>
</g>
</g>
<!-- Node5&#45;&gt;Node6 -->
<g id="edge5" class="edge"><title>Node5&#45;&gt;Node6</title>
<path fill="none" stroke="midnightblue" d="M373.871,-52.6051C401.585,-56.1629 439.115,-60.981 462.946,-64.0404"/>
<polygon fill="midnightblue" stroke="midnightblue" points="374.144,-49.1115 363.78,-51.3095 373.253,-56.0545 374.144,-49.1115"/>
</g>
<!-- Node8 -->
<g id="node8" class="node"><title>Node8</title>
<g id="a_node8"><a xlink:href="class_anoncoin_coin.html#a9510881824d283404ac43414dbb74586" target="_top" xlink:title="AnoncoinCoin::initialize">
<polygon fill="white" stroke="black" points="427,-19.5 427,-38.5 547,-38.5 547,-19.5 427,-19.5"/>
<text text-anchor="middle" x="487" y="-26.5" font-family="Helvetica,sans-Serif" font-size="10.00">AnoncoinCoin::initialize</text>
</a>
</g>
</g>
<!-- Node5&#45;&gt;Node8 -->
<g id="edge7" class="edge"><title>Node5&#45;&gt;Node8</title>
<path fill="none" stroke="midnightblue" d="M373.718,-43.4146C389.626,-41.3724 408.791,-38.912 426.749,-36.6066"/>
<polygon fill="midnightblue" stroke="midnightblue" points="373.253,-39.9455 363.78,-44.6905 374.144,-46.8885 373.253,-39.9455"/>
</g>
<!-- Node7 -->
<g id="node7" class="node"><title>Node7</title>
<g id="a_node7"><a xlink:href="anoncoind_8cpp.html#a0ddf1224851353fc92bfbff6f499fa97" target="_top" xlink:title="main">
<polygon fill="white" stroke="black" points="583,-57.5 583,-76.5 621,-76.5 621,-57.5 583,-57.5"/>
<text text-anchor="middle" x="602" y="-64.5" font-family="Helvetica,sans-Serif" font-size="10.00">main</text>
</a>
</g>
</g>
<!-- Node6&#45;&gt;Node7 -->
<g id="edge6" class="edge"><title>Node6&#45;&gt;Node7</title>
<path fill="none" stroke="midnightblue" d="M521.146,-67C541.247,-67 566.134,-67 582.731,-67"/>
<polygon fill="midnightblue" stroke="midnightblue" points="521.14,-63.5001 511.14,-67 521.14,-70.5001 521.14,-63.5001"/>
</g>
</g>
</svg>
