<?xml version="1.0" encoding="UTF-8" standalone="no"?>
<!DOCTYPE svg PUBLIC "-//W3C//DTD SVG 1.1//EN"
 "http://www.w3.org/Graphics/SVG/1.1/DTD/svg11.dtd">
<!-- Generated by graphviz version 2.38.0 (20140413.2041)
 -->
<!-- Title: CLevelDBBatch::Erase Pages: 1 -->
<svg width="925pt" height="66pt"
 viewBox="0.00 0.00 925.00 66.00" xmlns="http://www.w3.org/2000/svg" xmlns:xlink="http://www.w3.org/1999/xlink">
<g id="graph0" class="graph" transform="scale(1 1) rotate(0) translate(4 62)">
<title>CLevelDBBatch::Erase</title>
<polygon fill="white" stroke="none" points="-4,4 -4,-62 921,-62 921,4 -4,4"/>
<!-- Node1 -->
<g id="node1" class="node"><title>Node1</title>
<polygon fill="#bfbfbf" stroke="black" points="0,-19.5 0,-38.5 119,-38.5 119,-19.5 0,-19.5"/>
<text text-anchor="middle" x="59.5" y="-26.5" font-family="Helvetica,sans-Serif" font-size="10.00">CLevelDBBatch::Erase</text>
</g>
<!-- Node2 -->
<g id="node2" class="node"><title>Node2</title>
<g id="a_node2"><a xlink:href="class_c_level_d_b_wrapper.html#a9f67e2880ba191fdc9439ba34e315d72" target="_top" xlink:title="CLevelDBWrapper::Erase">
<polygon fill="white" stroke="black" points="155,-19.5 155,-38.5 287,-38.5 287,-19.5 155,-19.5"/>
<text text-anchor="middle" x="221" y="-26.5" font-family="Helvetica,sans-Serif" font-size="10.00">CLevelDBWrapper::Erase</text>
</a>
</g>
</g>
<!-- Node1&#45;&gt;Node2 -->
<g id="edge1" class="edge"><title>Node1&#45;&gt;Node2</title>
<path fill="none" stroke="midnightblue" d="M129.574,-29C137.969,-29 146.525,-29 154.861,-29"/>
<polygon fill="midnightblue" stroke="midnightblue" points="129.439,-25.5001 119.439,-29 129.439,-32.5001 129.439,-25.5001"/>
</g>
<!-- Node3 -->
<g id="node3" class="node"><title>Node3</title>
<g id="a_node3"><a xlink:href="class_c_block_tree_d_b.html#a8fa5d150b98f4fd1aa8cf503eddfccef" target="_top" xlink:title="CBlockTreeDB::WriteReindexing">
<polygon fill="white" stroke="black" points="323,-19.5 323,-38.5 485,-38.5 485,-19.5 323,-19.5"/>
<text text-anchor="middle" x="404" y="-26.5" font-family="Helvetica,sans-Serif" font-size="10.00">CBlockTreeDB::WriteReindexing</text>
</a>
</g>
</g>
<!-- Node2&#45;&gt;Node3 -->
<g id="edge2" class="edge"><title>Node2&#45;&gt;Node3</title>
<path fill="none" stroke="midnightblue" d="M297.239,-29C305.65,-29 314.243,-29 322.714,-29"/>
<polygon fill="midnightblue" stroke="midnightblue" points="297.089,-25.5001 287.089,-29 297.089,-32.5001 297.089,-25.5001"/>
</g>
<!-- Node4 -->
<g id="node4" class="node"><title>Node4</title>
<g id="a_node4"><a xlink:href="init_8cpp.html#a0189c34248cd89bbbe20d4d6045bd7c9" target="_top" xlink:title="ThreadImport">
<polygon fill="white" stroke="black" points="521,-38.5 521,-57.5 598,-57.5 598,-38.5 521,-38.5"/>
<text text-anchor="middle" x="559.5" y="-45.5" font-family="Helvetica,sans-Serif" font-size="10.00">ThreadImport</text>
</a>
</g>
</g>
<!-- Node3&#45;&gt;Node4 -->
<g id="edge3" class="edge"><title>Node3&#45;&gt;Node4</title>
<path fill="none" stroke="midnightblue" d="M492.249,-39.7996C502.244,-41.0367 511.996,-42.2438 520.811,-43.335"/>
<polygon fill="midnightblue" stroke="midnightblue" points="492.554,-36.3107 482.2,-38.5557 491.694,-43.2577 492.554,-36.3107"/>
</g>
<!-- Node5 -->
<g id="node5" class="node"><title>Node5</title>
<g id="a_node5"><a xlink:href="init_8h.html#a1a4c1bfbf6ba1db77e988b89b9cadfd3" target="_top" xlink:title="Initialize anoncoin. ">
<polygon fill="white" stroke="black" points="634,-19.5 634,-38.5 687,-38.5 687,-19.5 634,-19.5"/>
<text text-anchor="middle" x="660.5" y="-26.5" font-family="Helvetica,sans-Serif" font-size="10.00">AppInit2</text>
</a>
</g>
</g>
<!-- Node3&#45;&gt;Node5 -->
<g id="edge8" class="edge"><title>Node3&#45;&gt;Node5</title>
<path fill="none" stroke="midnightblue" d="M495.201,-29C544.314,-29 601.493,-29 633.799,-29"/>
<polygon fill="midnightblue" stroke="midnightblue" points="495.176,-25.5001 485.176,-29 495.176,-32.5001 495.176,-25.5001"/>
</g>
<!-- Node4&#45;&gt;Node5 -->
<g id="edge4" class="edge"><title>Node4&#45;&gt;Node5</title>
<path fill="none" stroke="midnightblue" d="M608.138,-38.8574C617.015,-37.1537 625.972,-35.4346 633.865,-33.9198"/>
<polygon fill="midnightblue" stroke="midnightblue" points="607.371,-35.4406 598.21,-40.7627 608.691,-42.3151 607.371,-35.4406"/>
</g>
<!-- Node6 -->
<g id="node6" class="node"><title>Node6</title>
<g id="a_node6"><a xlink:href="anoncoind_8cpp.html#ac59316b767e6984e1285f0531275286b" target="_top" xlink:title="AppInit">
<polygon fill="white" stroke="black" points="759,-38.5 759,-57.5 807,-57.5 807,-38.5 759,-38.5"/>
<text text-anchor="middle" x="783" y="-45.5" font-family="Helvetica,sans-Serif" font-size="10.00">AppInit</text>
</a>
</g>
</g>
<!-- Node5&#45;&gt;Node6 -->
<g id="edge5" class="edge"><title>Node5&#45;&gt;Node6</title>
<path fill="none" stroke="midnightblue" d="M697.05,-34.6053C717.041,-37.7576 741.421,-41.6017 758.927,-44.3619"/>
<polygon fill="midnightblue" stroke="midnightblue" points="697.478,-31.1297 687.055,-33.0294 696.388,-38.0443 697.478,-31.1297"/>
</g>
<!-- Node8 -->
<g id="node8" class="node"><title>Node8</title>
<g id="a_node8"><a xlink:href="class_anoncoin_coin.html#a9510881824d283404ac43414dbb74586" target="_top" xlink:title="AnoncoinCoin::initialize">
<polygon fill="white" stroke="black" points="723,-0.5 723,-19.5 843,-19.5 843,-0.5 723,-0.5"/>
<text text-anchor="middle" x="783" y="-7.5" font-family="Helvetica,sans-Serif" font-size="10.00">AnoncoinCoin::initialize</text>
</a>
</g>
</g>
<!-- Node5&#45;&gt;Node8 -->
<g id="edge7" class="edge"><title>Node5&#45;&gt;Node8</title>
<path fill="none" stroke="midnightblue" d="M697.186,-23.3732C705.249,-22.1018 714.021,-20.7186 722.765,-19.34"/>
<polygon fill="midnightblue" stroke="midnightblue" points="696.388,-19.9557 687.055,-24.9706 697.478,-26.8703 696.388,-19.9557"/>
</g>
<!-- Node7 -->
<g id="node7" class="node"><title>Node7</title>
<g id="a_node7"><a xlink:href="anoncoind_8cpp.html#a0ddf1224851353fc92bfbff6f499fa97" target="_top" xlink:title="main">
<polygon fill="white" stroke="black" points="879,-38.5 879,-57.5 917,-57.5 917,-38.5 879,-38.5"/>
<text text-anchor="middle" x="898" y="-45.5" font-family="Helvetica,sans-Serif" font-size="10.00">main</text>
</a>
</g>
</g>
<!-- Node6&#45;&gt;Node7 -->
<g id="edge6" class="edge"><title>Node6&#45;&gt;Node7</title>
<path fill="none" stroke="midnightblue" d="M817.146,-48C837.247,-48 862.134,-48 878.731,-48"/>
<polygon fill="midnightblue" stroke="midnightblue" points="817.14,-44.5001 807.14,-48 817.14,-51.5001 817.14,-44.5001"/>
</g>
</g>
</svg>
