<?xml version="1.0" encoding="UTF-8" standalone="no"?>
<!DOCTYPE svg PUBLIC "-//W3C//DTD SVG 1.1//EN"
 "http://www.w3.org/Graphics/SVG/1.1/DTD/svg11.dtd">
<!-- Generated by graphviz version 2.38.0 (20140413.2041)
 -->
<!-- Title: AnoncoinUnits::getAmountColumnTitle Pages: 1 -->
<svg width="656pt" height="100pt"
 viewBox="0.00 0.00 656.00 99.50" xmlns="http://www.w3.org/2000/svg" xmlns:xlink="http://www.w3.org/1999/xlink">
<g id="graph0" class="graph" transform="scale(1 1) rotate(0) translate(4 95.5)">
<title>AnoncoinUnits::getAmountColumnTitle</title>
<polygon fill="white" stroke="none" points="-4,4 -4,-95.5 652,-95.5 652,4 -4,4"/>
<!-- Node1 -->
<g id="node1" class="node"><title>Node1</title>
<polygon fill="#bfbfbf" stroke="black" points="0,-39 0,-69 135,-69 135,-39 0,-39"/>
<text text-anchor="start" x="8" y="-57" font-family="Helvetica,sans-Serif" font-size="10.00">AnoncoinUnits::getAmount</text>
<text text-anchor="middle" x="67.5" y="-46" font-family="Helvetica,sans-Serif" font-size="10.00">ColumnTitle</text>
</g>
<!-- Node2 -->
<g id="node2" class="node"><title>Node2</title>
<g id="a_node2"><a xlink:href="class_transaction_table_model.html#a6c10b7cab9804eee6df9e049a978dc62" target="_top" xlink:title="TransactionTableModel\l::TransactionTableModel">
<polygon fill="white" stroke="black" points="521,-61 521,-91 648,-91 648,-61 521,-61"/>
<text text-anchor="start" x="529" y="-79" font-family="Helvetica,sans-Serif" font-size="10.00">TransactionTableModel</text>
<text text-anchor="middle" x="584.5" y="-68" font-family="Helvetica,sans-Serif" font-size="10.00">::TransactionTableModel</text>
</a>
</g>
</g>
<!-- Node1&#45;&gt;Node2 -->
<g id="edge1" class="edge"><title>Node1&#45;&gt;Node2</title>
<path fill="none" stroke="midnightblue" d="M132.382,-71.3406C145.084,-74.1118 158.393,-76.5438 171,-78 294.254,-92.2372 439.607,-86.2881 520.698,-80.9546"/>
<polygon fill="midnightblue" stroke="midnightblue" points="132.877,-67.8638 122.349,-69.0575 131.323,-74.6893 132.877,-67.8638"/>
</g>
<!-- Node3 -->
<g id="node3" class="node"><title>Node3</title>
<g id="a_node3"><a xlink:href="class_transaction_table_model.html#acbb6e7531f507369ad18b656ad7b3f10" target="_top" xlink:title="Updates the column title to &quot;Amount (DisplayUnit)&quot; and emits headerDataChanged() signal for table hea...">
<polygon fill="white" stroke="black" points="179.5,-39 179.5,-69 319.5,-69 319.5,-39 179.5,-39"/>
<text text-anchor="start" x="187.5" y="-57" font-family="Helvetica,sans-Serif" font-size="10.00">TransactionTableModel</text>
<text text-anchor="middle" x="249.5" y="-46" font-family="Helvetica,sans-Serif" font-size="10.00">::updateAmountColumnTitle</text>
</a>
</g>
</g>
<!-- Node1&#45;&gt;Node3 -->
<g id="edge2" class="edge"><title>Node1&#45;&gt;Node3</title>
<path fill="none" stroke="midnightblue" d="M145.275,-54C156.559,-54 168.125,-54 179.245,-54"/>
<polygon fill="midnightblue" stroke="midnightblue" points="145.014,-50.5001 135.014,-54 145.014,-57.5001 145.014,-50.5001"/>
</g>
<!-- Node5 -->
<g id="node5" class="node"><title>Node5</title>
<g id="a_node5"><a xlink:href="class_transaction_view.html#a5983022ff1e5395f87de3c5728eff8da" target="_top" xlink:title="TransactionView::exportClicked">
<polygon fill="white" stroke="black" points="171,-0.5 171,-19.5 328,-19.5 328,-0.5 171,-0.5"/>
<text text-anchor="middle" x="249.5" y="-7.5" font-family="Helvetica,sans-Serif" font-size="10.00">TransactionView::exportClicked</text>
</a>
</g>
</g>
<!-- Node1&#45;&gt;Node5 -->
<g id="edge5" class="edge"><title>Node1&#45;&gt;Node5</title>
<path fill="none" stroke="midnightblue" d="M139.667,-36.6036C163.493,-30.7794 189.163,-24.5046 209.586,-19.5124"/>
<polygon fill="midnightblue" stroke="midnightblue" points="138.825,-33.2063 129.942,-38.9808 140.487,-40.0061 138.825,-33.2063"/>
</g>
<!-- Node4 -->
<g id="node4" class="node"><title>Node4</title>
<g id="a_node4"><a xlink:href="class_transaction_table_model.html#a8b73ff7d72ec2dd69790bc61bbe8575e" target="_top" xlink:title="TransactionTableModel\l::updateDisplayUnit">
<polygon fill="white" stroke="black" points="364,-39 364,-69 485,-69 485,-39 364,-39"/>
<text text-anchor="start" x="372" y="-57" font-family="Helvetica,sans-Serif" font-size="10.00">TransactionTableModel</text>
<text text-anchor="middle" x="424.5" y="-46" font-family="Helvetica,sans-Serif" font-size="10.00">::updateDisplayUnit</text>
</a>
</g>
</g>
<!-- Node3&#45;&gt;Node4 -->
<g id="edge3" class="edge"><title>Node3&#45;&gt;Node4</title>
<path fill="none" stroke="midnightblue" d="M330.203,-54C341.527,-54 353.008,-54 363.863,-54"/>
<polygon fill="midnightblue" stroke="midnightblue" points="329.869,-50.5001 319.869,-54 329.869,-57.5001 329.869,-50.5001"/>
</g>
<!-- Node4&#45;&gt;Node2 -->
<g id="edge4" class="edge"><title>Node4&#45;&gt;Node2</title>
<path fill="none" stroke="midnightblue" d="M495.156,-63.6989C503.687,-64.8868 512.366,-66.0953 520.786,-67.2677"/>
<polygon fill="midnightblue" stroke="midnightblue" points="495.62,-60.2299 485.233,-62.3173 494.655,-67.163 495.62,-60.2299"/>
</g>
</g>
</svg>
