<?xml version="1.0" encoding="UTF-8" standalone="no"?>
<!DOCTYPE svg PUBLIC "-//W3C//DTD SVG 1.1//EN"
 "http://www.w3.org/Graphics/SVG/1.1/DTD/svg11.dtd">
<!-- Generated by graphviz version 2.38.0 (20140413.2041)
 -->
<!-- Title: AddressTableModel::emitDataChanged Pages: 1 -->
<svg width="620pt" height="66pt"
 viewBox="0.00 0.00 620.00 66.00" xmlns="http://www.w3.org/2000/svg" xmlns:xlink="http://www.w3.org/1999/xlink">
<g id="graph0" class="graph" transform="scale(1 1) rotate(0) translate(4 62)">
<title>AddressTableModel::emitDataChanged</title>
<polygon fill="white" stroke="none" points="-4,4 -4,-62 616,-62 616,4 -4,4"/>
<!-- Node1 -->
<g id="node1" class="node"><title>Node1</title>
<polygon fill="#bfbfbf" stroke="black" points="0,-14 0,-44 111,-44 111,-14 0,-14"/>
<text text-anchor="start" x="8" y="-32" font-family="Helvetica,sans-Serif" font-size="10.00">AddressTableModel::</text>
<text text-anchor="middle" x="55.5" y="-21" font-family="Helvetica,sans-Serif" font-size="10.00">emitDataChanged</text>
</g>
<!-- Node2 -->
<g id="node2" class="node"><title>Node2</title>
<g id="a_node2"><a xlink:href="class_address_table_model.html#a84f095bae13574410fceba53f8184abc" target="_top" xlink:title="AddressTableModel::\lindex">
<polygon fill="white" stroke="black" points="147,-14 147,-44 258,-44 258,-14 147,-14"/>
<text text-anchor="start" x="155" y="-32" font-family="Helvetica,sans-Serif" font-size="10.00">AddressTableModel::</text>
<text text-anchor="middle" x="202.5" y="-21" font-family="Helvetica,sans-Serif" font-size="10.00">index</text>
</a>
</g>
</g>
<!-- Node1&#45;&gt;Node2 -->
<g id="edge1" class="edge"><title>Node1&#45;&gt;Node2</title>
<path fill="none" stroke="midnightblue" d="M111.318,-29C119.529,-29 128.061,-29 136.459,-29"/>
<polygon fill="midnightblue" stroke="midnightblue" points="136.604,-32.5001 146.604,-29 136.604,-25.5001 136.604,-32.5001"/>
</g>
<!-- Node3 -->
<g id="node3" class="node"><title>Node3</title>
<g id="a_node3"><a xlink:href="class_address_table_model.html#a5ff6e3e2dab8b80428c4f59c4f1bc95a" target="_top" xlink:title="AddressTableModel::data">
<polygon fill="white" stroke="black" points="294,-38.5 294,-57.5 424,-57.5 424,-38.5 294,-38.5"/>
<text text-anchor="middle" x="359" y="-45.5" font-family="Helvetica,sans-Serif" font-size="10.00">AddressTableModel::data</text>
</a>
</g>
</g>
<!-- Node2&#45;&gt;Node3 -->
<g id="edge2" class="edge"><title>Node2&#45;&gt;Node3</title>
<path fill="none" stroke="midnightblue" d="M258.406,-35.7522C266.635,-36.7642 275.234,-37.8216 283.783,-38.873"/>
<polygon fill="midnightblue" stroke="midnightblue" points="283.419,-42.3545 293.771,-40.1013 284.273,-35.4068 283.419,-42.3545"/>
</g>
<!-- Node5 -->
<g id="node5" class="node"><title>Node5</title>
<g id="a_node5"><a xlink:href="class_address_table_priv.html#af311eb7d0189a74a508d7ad0f563f307" target="_top" xlink:title="AddressTablePriv::index">
<polygon fill="white" stroke="black" points="296.5,-0.5 296.5,-19.5 421.5,-19.5 421.5,-0.5 296.5,-0.5"/>
<text text-anchor="middle" x="359" y="-7.5" font-family="Helvetica,sans-Serif" font-size="10.00">AddressTablePriv::index</text>
</a>
</g>
</g>
<!-- Node2&#45;&gt;Node5 -->
<g id="edge4" class="edge"><title>Node2&#45;&gt;Node5</title>
<path fill="none" stroke="midnightblue" d="M258.406,-22.2478C267.451,-21.1355 276.943,-19.9682 286.324,-18.8145"/>
<polygon fill="midnightblue" stroke="midnightblue" points="286.937,-22.2656 296.435,-17.5712 286.082,-15.318 286.937,-22.2656"/>
</g>
<!-- Node4 -->
<g id="node4" class="node"><title>Node4</title>
<g id="a_node4"><a xlink:href="namespace_g_u_i_util.html#ad284d2b3b4732d897cf6f1d751065e98" target="_top" xlink:title="GUIUtil::anoncoinAddressFont">
<polygon fill="white" stroke="black" points="460,-38.5 460,-57.5 612,-57.5 612,-38.5 460,-38.5"/>
<text text-anchor="middle" x="536" y="-45.5" font-family="Helvetica,sans-Serif" font-size="10.00">GUIUtil::anoncoinAddressFont</text>
</a>
</g>
</g>
<!-- Node3&#45;&gt;Node4 -->
<g id="edge3" class="edge"><title>Node3&#45;&gt;Node4</title>
<path fill="none" stroke="midnightblue" d="M424.17,-48C432.513,-48 441.162,-48 449.781,-48"/>
<polygon fill="midnightblue" stroke="midnightblue" points="449.866,-51.5001 459.866,-48 449.866,-44.5001 449.866,-51.5001"/>
</g>
</g>
</svg>
