<?xml version="1.0" encoding="UTF-8" standalone="no"?>
<!DOCTYPE svg PUBLIC "-//W3C//DTD SVG 1.1//EN"
 "http://www.w3.org/Graphics/SVG/1.1/DTD/svg11.dtd">
<!-- Generated by graphviz version 2.38.0 (20140413.2041)
 -->
<!-- Title: CBase58Data::SetString Pages: 1 -->
<svg width="503pt" height="173pt"
 viewBox="0.00 0.00 503.00 173.00" xmlns="http://www.w3.org/2000/svg" xmlns:xlink="http://www.w3.org/1999/xlink">
<g id="graph0" class="graph" transform="scale(1 1) rotate(0) translate(4 169)">
<title>CBase58Data::SetString</title>
<polygon fill="white" stroke="none" points="-4,4 -4,-169 499,-169 499,4 -4,4"/>
<!-- Node1 -->
<g id="node1" class="node"><title>Node1</title>
<polygon fill="#bfbfbf" stroke="black" points="0,-66.5 0,-85.5 125,-85.5 125,-66.5 0,-66.5"/>
<text text-anchor="middle" x="62.5" y="-73.5" font-family="Helvetica,sans-Serif" font-size="10.00">CBase58Data::SetString</text>
</g>
<!-- Node2 -->
<g id="node2" class="node"><title>Node2</title>
<g id="a_node2"><a xlink:href="class_c_base58_data.html#a8e0cba75a3e0a5b21defaf1471d8659c" target="_top" xlink:title="CBase58Data::SetString">
<polygon fill="white" stroke="black" points="177,-126.5 177,-145.5 302,-145.5 302,-126.5 177,-126.5"/>
<text text-anchor="middle" x="239.5" y="-133.5" font-family="Helvetica,sans-Serif" font-size="10.00">CBase58Data::SetString</text>
</a>
</g>
</g>
<!-- Node1&#45;&gt;Node2 -->
<g id="edge1" class="edge"><title>Node1&#45;&gt;Node2</title>
<path fill="none" stroke="midnightblue" d="M93.0373,-89.8567C112.135,-98.4554 137.69,-109.295 161,-117 171.654,-120.522 183.325,-123.717 194.303,-126.44"/>
<polygon fill="midnightblue" stroke="midnightblue" points="94.236,-86.5567 83.6851,-85.5929 91.3321,-92.926 94.236,-86.5567"/>
</g>
<!-- Node3 -->
<g id="node3" class="node"><title>Node3</title>
<g id="a_node3"><a xlink:href="class_c_anoncoin_secret.html#ab4f90b6c75c03136d82261688007a634" target="_top" xlink:title="CAnoncoinSecret::SetString">
<polygon fill="white" stroke="black" points="169,-88.5 169,-107.5 310,-107.5 310,-88.5 169,-88.5"/>
<text text-anchor="middle" x="239.5" y="-95.5" font-family="Helvetica,sans-Serif" font-size="10.00">CAnoncoinSecret::SetString</text>
</a>
</g>
</g>
<!-- Node1&#45;&gt;Node3 -->
<g id="edge2" class="edge"><title>Node1&#45;&gt;Node3</title>
<path fill="none" stroke="midnightblue" d="M135.233,-85.0178C146.288,-86.4077 157.691,-87.8412 168.704,-89.2256"/>
<polygon fill="midnightblue" stroke="midnightblue" points="135.557,-81.5311 125.198,-83.7564 134.684,-88.4765 135.557,-81.5311"/>
</g>
<!-- Node8 -->
<g id="node8" class="node"><title>Node8</title>
<g id="a_node8"><a xlink:href="class_c_anoncoin_address.html#a817db86186854684593183e09a2f69ee" target="_top" xlink:title="CAnoncoinAddress::CAnoncoin\lAddress">
<polygon fill="white" stroke="black" points="161,-39 161,-69 318,-69 318,-39 161,-39"/>
<text text-anchor="start" x="169" y="-57" font-family="Helvetica,sans-Serif" font-size="10.00">CAnoncoinAddress::CAnoncoin</text>
<text text-anchor="middle" x="239.5" y="-46" font-family="Helvetica,sans-Serif" font-size="10.00">Address</text>
</a>
</g>
</g>
<!-- Node1&#45;&gt;Node8 -->
<g id="edge7" class="edge"><title>Node1&#45;&gt;Node8</title>
<path fill="none" stroke="midnightblue" d="M135.325,-66.9706C143.726,-65.9145 152.326,-64.8333 160.802,-63.7677"/>
<polygon fill="midnightblue" stroke="midnightblue" points="134.684,-63.5235 125.198,-68.2436 135.557,-70.4689 134.684,-63.5235"/>
</g>
<!-- Node9 -->
<g id="node9" class="node"><title>Node9</title>
<g id="a_node9"><a xlink:href="rpcdump_8cpp.html#a4010fb238298e15c540d3e5ecd60f858" target="_top" xlink:title="dumpprivkey">
<polygon fill="white" stroke="black" points="203,-0.5 203,-19.5 276,-19.5 276,-0.5 203,-0.5"/>
<text text-anchor="middle" x="239.5" y="-7.5" font-family="Helvetica,sans-Serif" font-size="10.00">dumpprivkey</text>
</a>
</g>
</g>
<!-- Node1&#45;&gt;Node9 -->
<g id="edge8" class="edge"><title>Node1&#45;&gt;Node9</title>
<path fill="none" stroke="midnightblue" d="M89.6903,-61.5225C108.96,-51.333 136.037,-37.9655 161,-29 174.429,-24.177 189.598,-20.1592 202.932,-17.0795"/>
<polygon fill="midnightblue" stroke="midnightblue" points="87.7966,-58.5665 80.6395,-66.3784 91.1061,-64.7348 87.7966,-58.5665"/>
</g>
<!-- Node4 -->
<g id="node4" class="node"><title>Node4</title>
<g id="a_node4"><a xlink:href="class_c_anoncoin_secret.html#a6d2ed0374974412bdf0016e6063d0328" target="_top" xlink:title="CAnoncoinSecret::SetString">
<polygon fill="white" stroke="black" points="354,-145.5 354,-164.5 495,-164.5 495,-145.5 354,-145.5"/>
<text text-anchor="middle" x="424.5" y="-152.5" font-family="Helvetica,sans-Serif" font-size="10.00">CAnoncoinSecret::SetString</text>
</a>
</g>
</g>
<!-- Node3&#45;&gt;Node4 -->
<g id="edge3" class="edge"><title>Node3&#45;&gt;Node4</title>
<path fill="none" stroke="midnightblue" d="M297.059,-110.145C304.191,-112.178 311.322,-114.463 318,-117 334.913,-123.424 337.174,-129.353 354,-136 363.074,-139.585 373.071,-142.749 382.586,-145.416"/>
<polygon fill="midnightblue" stroke="midnightblue" points="297.942,-106.759 287.376,-107.53 296.117,-113.516 297.942,-106.759"/>
</g>
<!-- Node5 -->
<g id="node5" class="node"><title>Node5</title>
<g id="a_node5"><a xlink:href="rpcdump_8cpp.html#a3a6fdb974fce01220a895393d444e981" target="_top" xlink:title="importprivkey">
<polygon fill="white" stroke="black" points="386.5,-107.5 386.5,-126.5 462.5,-126.5 462.5,-107.5 386.5,-107.5"/>
<text text-anchor="middle" x="424.5" y="-114.5" font-family="Helvetica,sans-Serif" font-size="10.00">importprivkey</text>
</a>
</g>
</g>
<!-- Node3&#45;&gt;Node5 -->
<g id="edge4" class="edge"><title>Node3&#45;&gt;Node5</title>
<path fill="none" stroke="midnightblue" d="M320.31,-106.286C343.259,-108.669 367.205,-111.155 386.247,-113.132"/>
<polygon fill="midnightblue" stroke="midnightblue" points="320.515,-102.789 310.206,-105.237 319.792,-109.751 320.515,-102.789"/>
</g>
<!-- Node6 -->
<g id="node6" class="node"><title>Node6</title>
<g id="a_node6"><a xlink:href="rpcdump_8cpp.html#a2566d5c9dd1938b74e70398cdb3ac5c1" target="_top" xlink:title="importwallet">
<polygon fill="white" stroke="black" points="389.5,-69.5 389.5,-88.5 459.5,-88.5 459.5,-69.5 389.5,-69.5"/>
<text text-anchor="middle" x="424.5" y="-76.5" font-family="Helvetica,sans-Serif" font-size="10.00">importwallet</text>
</a>
</g>
</g>
<!-- Node3&#45;&gt;Node6 -->
<g id="edge5" class="edge"><title>Node3&#45;&gt;Node6</title>
<path fill="none" stroke="midnightblue" d="M320.464,-89.6977C344.602,-87.1916 369.827,-84.5726 389.277,-82.5532"/>
<polygon fill="midnightblue" stroke="midnightblue" points="319.792,-86.2486 310.206,-90.7627 320.515,-93.2112 319.792,-86.2486"/>
</g>
<!-- Node7 -->
<g id="node7" class="node"><title>Node7</title>
<g id="a_node7"><a xlink:href="rpcrawtransaction_8cpp.html#aa0d151e35c0ad5ec82df451a833aeadb" target="_top" xlink:title="signrawtransaction">
<polygon fill="white" stroke="black" points="374.5,-31.5 374.5,-50.5 474.5,-50.5 474.5,-31.5 374.5,-31.5"/>
<text text-anchor="middle" x="424.5" y="-38.5" font-family="Helvetica,sans-Serif" font-size="10.00">signrawtransaction</text>
</a>
</g>
</g>
<!-- Node3&#45;&gt;Node7 -->
<g id="edge6" class="edge"><title>Node3&#45;&gt;Node7</title>
<path fill="none" stroke="midnightblue" d="M297.059,-85.8548C304.191,-83.822 311.322,-81.5365 318,-79 334.913,-72.5757 337.174,-66.6474 354,-60 363.074,-56.4151 373.071,-53.2509 382.586,-50.5838"/>
<polygon fill="midnightblue" stroke="midnightblue" points="296.117,-82.4836 287.376,-88.4698 297.942,-89.2414 296.117,-82.4836"/>
</g>
</g>
</svg>
