<?xml version="1.0" encoding="UTF-8" standalone="no"?>
<!DOCTYPE svg PUBLIC "-//W3C//DTD SVG 1.1//EN"
 "http://www.w3.org/Graphics/SVG/1.1/DTD/svg11.dtd">
<!-- Generated by graphviz version 2.38.0 (20140413.2041)
 -->
<!-- Title: CBlockTreeDB::ReadBlockFileInfo Pages: 1 -->
<svg width="661pt" height="142pt"
 viewBox="0.00 0.00 661.00 142.00" xmlns="http://www.w3.org/2000/svg" xmlns:xlink="http://www.w3.org/1999/xlink">
<g id="graph0" class="graph" transform="scale(1 1) rotate(0) translate(4 138)">
<title>CBlockTreeDB::ReadBlockFileInfo</title>
<polygon fill="white" stroke="none" points="-4,4 -4,-138 657,-138 657,4 -4,4"/>
<!-- Node1 -->
<g id="node1" class="node"><title>Node1</title>
<polygon fill="#bfbfbf" stroke="black" points="0,-57.5 0,-76.5 169,-76.5 169,-57.5 0,-57.5"/>
<text text-anchor="middle" x="84.5" y="-64.5" font-family="Helvetica,sans-Serif" font-size="10.00">CBlockTreeDB::ReadBlockFileInfo</text>
</g>
<!-- Node2 -->
<g id="node2" class="node"><title>Node2</title>
<g id="a_node2"><a xlink:href="class_c_level_d_b_wrapper.html#aa3451a451298c7f8a66986ccd95474e2" target="_top" xlink:title="CLevelDBWrapper::Read">
<polygon fill="white" stroke="black" points="205,-57.5 205,-76.5 334,-76.5 334,-57.5 205,-57.5"/>
<text text-anchor="middle" x="269.5" y="-64.5" font-family="Helvetica,sans-Serif" font-size="10.00">CLevelDBWrapper::Read</text>
</a>
</g>
</g>
<!-- Node1&#45;&gt;Node2 -->
<g id="edge1" class="edge"><title>Node1&#45;&gt;Node2</title>
<path fill="none" stroke="midnightblue" d="M169.234,-67C177.732,-67 186.319,-67 194.701,-67"/>
<polygon fill="midnightblue" stroke="midnightblue" points="194.802,-70.5001 204.802,-67 194.802,-63.5001 194.802,-70.5001"/>
</g>
<!-- Node3 -->
<g id="node3" class="node"><title>Node3</title>
<g id="a_node3"><a xlink:href="class_c_data_stream.html#a5542e71bd7af2ab7cd7be0f381d39cb5" target="_top" xlink:title="CDataStream::reserve">
<polygon fill="white" stroke="black" points="390.5,-114.5 390.5,-133.5 506.5,-133.5 506.5,-114.5 390.5,-114.5"/>
<text text-anchor="middle" x="448.5" y="-121.5" font-family="Helvetica,sans-Serif" font-size="10.00">CDataStream::reserve</text>
</a>
</g>
</g>
<!-- Node2&#45;&gt;Node3 -->
<g id="edge2" class="edge"><title>Node2&#45;&gt;Node3</title>
<path fill="none" stroke="midnightblue" d="M293.138,-76.5716C313.123,-84.7978 343.171,-96.6237 370,-105 377.984,-107.493 386.513,-109.866 394.885,-112.039"/>
<polygon fill="midnightblue" stroke="midnightblue" points="394.047,-115.437 404.6,-114.491 395.76,-108.65 394.047,-115.437"/>
</g>
<!-- Node4 -->
<g id="node4" class="node"><title>Node4</title>
<g id="a_node4"><a xlink:href="class_c_data_stream.html#aaf2b9e953793ce5a4fc438a7ecb00dc2" target="_top" xlink:title="CDataStream::GetSerializeSize">
<polygon fill="white" stroke="black" points="370,-76.5 370,-95.5 527,-95.5 527,-76.5 370,-76.5"/>
<text text-anchor="middle" x="448.5" y="-83.5" font-family="Helvetica,sans-Serif" font-size="10.00">CDataStream::GetSerializeSize</text>
</a>
</g>
</g>
<!-- Node2&#45;&gt;Node4 -->
<g id="edge3" class="edge"><title>Node2&#45;&gt;Node4</title>
<path fill="none" stroke="midnightblue" d="M334.401,-73.8594C342.657,-74.7457 351.223,-75.6652 359.78,-76.5837"/>
<polygon fill="midnightblue" stroke="midnightblue" points="359.484,-80.072 369.801,-77.6594 360.232,-73.112 359.484,-80.072"/>
</g>
<!-- Node6 -->
<g id="node6" class="node"><title>Node6</title>
<g id="a_node6"><a xlink:href="class_c_data_stream.html#ac6567f6d600d644d9855b52bb59049cd" target="_top" xlink:title="CDataStream::size">
<polygon fill="white" stroke="black" points="398.5,-38.5 398.5,-57.5 498.5,-57.5 498.5,-38.5 398.5,-38.5"/>
<text text-anchor="middle" x="448.5" y="-45.5" font-family="Helvetica,sans-Serif" font-size="10.00">CDataStream::size</text>
</a>
</g>
</g>
<!-- Node2&#45;&gt;Node6 -->
<g id="edge5" class="edge"><title>Node2&#45;&gt;Node6</title>
<path fill="none" stroke="midnightblue" d="M334.401,-60.1406C352.032,-58.2479 371.079,-56.2034 388.424,-54.3415"/>
<polygon fill="midnightblue" stroke="midnightblue" points="388.847,-57.8163 398.416,-53.2689 388.1,-50.8563 388.847,-57.8163"/>
</g>
<!-- Node7 -->
<g id="node7" class="node"><title>Node7</title>
<g id="a_node7"><a xlink:href="leveldbwrapper_8h.html#aea36eb5fddb6266b14ea8cb15e183486" target="_top" xlink:title="HandleError">
<polygon fill="white" stroke="black" points="413.5,-0.5 413.5,-19.5 483.5,-19.5 483.5,-0.5 413.5,-0.5"/>
<text text-anchor="middle" x="448.5" y="-7.5" font-family="Helvetica,sans-Serif" font-size="10.00">HandleError</text>
</a>
</g>
</g>
<!-- Node2&#45;&gt;Node7 -->
<g id="edge6" class="edge"><title>Node2&#45;&gt;Node7</title>
<path fill="none" stroke="midnightblue" d="M293.138,-57.4284C313.123,-49.2022 343.171,-37.3763 370,-29 380.732,-25.6494 392.448,-22.5137 403.446,-19.7934"/>
<polygon fill="midnightblue" stroke="midnightblue" points="404.395,-23.165 413.295,-17.4177 402.754,-16.3602 404.395,-23.165"/>
</g>
<!-- Node5 -->
<g id="node5" class="node"><title>Node5</title>
<g id="a_node5"><a xlink:href="serialize_8h.html#a48239e478ae730373d1984fe304ca025" target="_top" xlink:title="GetSerializeSize">
<polygon fill="white" stroke="black" points="563,-76.5 563,-95.5 653,-95.5 653,-76.5 563,-76.5"/>
<text text-anchor="middle" x="608" y="-83.5" font-family="Helvetica,sans-Serif" font-size="10.00">GetSerializeSize</text>
</a>
</g>
</g>
<!-- Node4&#45;&gt;Node5 -->
<g id="edge4" class="edge"><title>Node4&#45;&gt;Node5</title>
<path fill="none" stroke="midnightblue" d="M527.327,-86C535.937,-86 544.561,-86 552.789,-86"/>
<polygon fill="midnightblue" stroke="midnightblue" points="552.967,-89.5001 562.967,-86 552.967,-82.5001 552.967,-89.5001"/>
</g>
</g>
</svg>
