<?xml version="1.0" encoding="UTF-8" standalone="no"?>
<!DOCTYPE svg PUBLIC "-//W3C//DTD SVG 1.1//EN"
 "http://www.w3.org/Graphics/SVG/1.1/DTD/svg11.dtd">
<!-- Generated by graphviz version 2.38.0 (20140413.2041)
 -->
<!-- Title: CWallet::ChangeWalletPassphrase Pages: 1 -->
<svg width="530pt" height="72pt"
 viewBox="0.00 0.00 530.00 71.50" xmlns="http://www.w3.org/2000/svg" xmlns:xlink="http://www.w3.org/1999/xlink">
<g id="graph0" class="graph" transform="scale(1 1) rotate(0) translate(4 67.5)">
<title>CWallet::ChangeWalletPassphrase</title>
<polygon fill="white" stroke="none" points="-4,4 -4,-67.5 526,-67.5 526,4 -4,4"/>
<!-- Node1 -->
<g id="node1" class="node"><title>Node1</title>
<polygon fill="#bfbfbf" stroke="black" points="0,-19.5 0,-38.5 173,-38.5 173,-19.5 0,-19.5"/>
<text text-anchor="middle" x="86.5" y="-26.5" font-family="Helvetica,sans-Serif" font-size="10.00">CWallet::ChangeWalletPassphrase</text>
</g>
<!-- Node2 -->
<g id="node2" class="node"><title>Node2</title>
<g id="a_node2"><a xlink:href="class_wallet_model.html#a67ebff3f267b5c9973c0465184c085a4" target="_top" xlink:title="WalletModel::changePassphrase">
<polygon fill="white" stroke="black" points="209,-38.5 209,-57.5 372,-57.5 372,-38.5 209,-38.5"/>
<text text-anchor="middle" x="290.5" y="-45.5" font-family="Helvetica,sans-Serif" font-size="10.00">WalletModel::changePassphrase</text>
</a>
</g>
</g>
<!-- Node1&#45;&gt;Node2 -->
<g id="edge1" class="edge"><title>Node1&#45;&gt;Node2</title>
<path fill="none" stroke="midnightblue" d="M183.2,-38.0014C191.779,-38.8084 200.41,-39.6202 208.843,-40.4135"/>
<polygon fill="midnightblue" stroke="midnightblue" points="183.45,-34.5096 173.166,-37.0577 182.794,-41.4789 183.45,-34.5096"/>
</g>
<!-- Node4 -->
<g id="node4" class="node"><title>Node4</title>
<g id="a_node4"><a xlink:href="rpcwallet_8cpp.html#a84ad884957e24688433be32a9ca70933" target="_top" xlink:title="walletpassphrasechange">
<polygon fill="white" stroke="black" points="227,-0.5 227,-19.5 354,-19.5 354,-0.5 227,-0.5"/>
<text text-anchor="middle" x="290.5" y="-7.5" font-family="Helvetica,sans-Serif" font-size="10.00">walletpassphrasechange</text>
</a>
</g>
</g>
<!-- Node1&#45;&gt;Node4 -->
<g id="edge3" class="edge"><title>Node1&#45;&gt;Node4</title>
<path fill="none" stroke="midnightblue" d="M183.383,-19.9813C198.196,-18.588 213.157,-17.1807 226.987,-15.88"/>
<polygon fill="midnightblue" stroke="midnightblue" points="182.794,-16.5211 173.166,-20.9423 183.45,-23.4904 182.794,-16.5211"/>
</g>
<!-- Node3 -->
<g id="node3" class="node"><title>Node3</title>
<g id="a_node3"><a xlink:href="class_ask_passphrase_dialog.html#ac2f176af3693b73870d26ef0bfc6cbb9" target="_top" xlink:title="AskPassphraseDialog\l::accept">
<polygon fill="white" stroke="black" points="408,-33 408,-63 522,-63 522,-33 408,-33"/>
<text text-anchor="start" x="416" y="-51" font-family="Helvetica,sans-Serif" font-size="10.00">AskPassphraseDialog</text>
<text text-anchor="middle" x="465" y="-40" font-family="Helvetica,sans-Serif" font-size="10.00">::accept</text>
</a>
</g>
</g>
<!-- Node2&#45;&gt;Node3 -->
<g id="edge2" class="edge"><title>Node2&#45;&gt;Node3</title>
<path fill="none" stroke="midnightblue" d="M382.418,-48C391.12,-48 399.758,-48 407.977,-48"/>
<polygon fill="midnightblue" stroke="midnightblue" points="382.194,-44.5001 372.194,-48 382.194,-51.5001 382.194,-44.5001"/>
</g>
</g>
</svg>
