<?xml version="1.0" encoding="UTF-8" standalone="no"?>
<!DOCTYPE svg PUBLIC "-//W3C//DTD SVG 1.1//EN"
 "http://www.w3.org/Graphics/SVG/1.1/DTD/svg11.dtd">
<!-- Generated by graphviz version 2.38.0 (20140413.2041)
 -->
<!-- Title: TransactionDescDialog::TransactionDescDialog Pages: 1 -->
<svg width="475pt" height="39pt"
 viewBox="0.00 0.00 475.00 39.00" xmlns="http://www.w3.org/2000/svg" xmlns:xlink="http://www.w3.org/1999/xlink">
<g id="graph0" class="graph" transform="scale(1 1) rotate(0) translate(4 35)">
<title>TransactionDescDialog::TransactionDescDialog</title>
<polygon fill="white" stroke="none" points="-4,4 -4,-35 471,-35 471,4 -4,4"/>
<!-- Node1 -->
<g id="node1" class="node"><title>Node1</title>
<polygon fill="#bfbfbf" stroke="black" points="0,-0.5 0,-30.5 125,-30.5 125,-0.5 0,-0.5"/>
<text text-anchor="start" x="8" y="-18.5" font-family="Helvetica,sans-Serif" font-size="10.00">TransactionDescDialog</text>
<text text-anchor="middle" x="62.5" y="-7.5" font-family="Helvetica,sans-Serif" font-size="10.00">::TransactionDescDialog</text>
</g>
<!-- Node2 -->
<g id="node2" class="node"><title>Node2</title>
<g id="a_node2"><a xlink:href="class_ui___transaction_desc_dialog.html#a6027533efeadcaadee6df13bc1f32a50" target="_top" xlink:title="Ui_TransactionDescDialog\l::setupUi">
<polygon fill="white" stroke="black" points="161,-0.5 161,-30.5 296,-30.5 296,-0.5 161,-0.5"/>
<text text-anchor="start" x="169" y="-18.5" font-family="Helvetica,sans-Serif" font-size="10.00">Ui_TransactionDescDialog</text>
<text text-anchor="middle" x="228.5" y="-7.5" font-family="Helvetica,sans-Serif" font-size="10.00">::setupUi</text>
</a>
</g>
</g>
<!-- Node1&#45;&gt;Node2 -->
<g id="edge1" class="edge"><title>Node1&#45;&gt;Node2</title>
<path fill="none" stroke="midnightblue" d="M125.034,-15.5C133.461,-15.5 142.197,-15.5 150.852,-15.5"/>
<polygon fill="midnightblue" stroke="midnightblue" points="150.953,-19.0001 160.953,-15.5 150.953,-12.0001 150.953,-19.0001"/>
</g>
<!-- Node3 -->
<g id="node3" class="node"><title>Node3</title>
<g id="a_node3"><a xlink:href="class_ui___transaction_desc_dialog.html#a86e31bdb827295e01cf0809405053ee9" target="_top" xlink:title="Ui_TransactionDescDialog\l::retranslateUi">
<polygon fill="white" stroke="black" points="332,-0.5 332,-30.5 467,-30.5 467,-0.5 332,-0.5"/>
<text text-anchor="start" x="340" y="-18.5" font-family="Helvetica,sans-Serif" font-size="10.00">Ui_TransactionDescDialog</text>
<text text-anchor="middle" x="399.5" y="-7.5" font-family="Helvetica,sans-Serif" font-size="10.00">::retranslateUi</text>
</a>
</g>
</g>
<!-- Node2&#45;&gt;Node3 -->
<g id="edge2" class="edge"><title>Node2&#45;&gt;Node3</title>
<path fill="none" stroke="midnightblue" d="M296.293,-15.5C304.624,-15.5 313.194,-15.5 321.661,-15.5"/>
<polygon fill="midnightblue" stroke="midnightblue" points="321.915,-19.0001 331.915,-15.5 321.915,-12.0001 321.915,-19.0001"/>
</g>
</g>
</svg>
