<?xml version="1.0" encoding="UTF-8" standalone="no"?>
<!DOCTYPE svg PUBLIC "-//W3C//DTD SVG 1.1//EN"
 "http://www.w3.org/Graphics/SVG/1.1/DTD/svg11.dtd">
<!-- Generated by graphviz version 2.38.0 (20140413.2041)
 -->
<!-- Title: PeerTableModel Pages: 1 -->
<svg width="415pt" height="162pt"
 viewBox="0.00 0.00 414.50 162.00" xmlns="http://www.w3.org/2000/svg" xmlns:xlink="http://www.w3.org/1999/xlink">
<g id="graph0" class="graph" transform="scale(1 1) rotate(0) translate(4 158)">
<title>PeerTableModel</title>
<polygon fill="white" stroke="none" points="-4,4 -4,-158 410.5,-158 410.5,4 -4,4"/>
<!-- Node1 -->
<g id="node1" class="node"><title>Node1</title>
<polygon fill="#bfbfbf" stroke="black" points="221.5,-67.5 221.5,-86.5 311.5,-86.5 311.5,-67.5 221.5,-67.5"/>
<text text-anchor="middle" x="266.5" y="-74.5" font-family="Helvetica,sans-Serif" font-size="10.00">PeerTableModel</text>
</g>
<!-- Node4 -->
<g id="node4" class="node"><title>Node4</title>
<g id="a_node4"><a xlink:href="class_client_model.html" target="_top" xlink:title="Model for Anoncoin network client. ">
<polygon fill="white" stroke="black" points="93,-0.5 93,-19.5 162,-19.5 162,-0.5 93,-0.5"/>
<text text-anchor="middle" x="127.5" y="-7.5" font-family="Helvetica,sans-Serif" font-size="10.00">ClientModel</text>
</a>
</g>
</g>
<!-- Node1&#45;&gt;Node4 -->
<g id="edge5" class="edge"><title>Node1&#45;&gt;Node4</title>
<path fill="none" stroke="#9a32cd" stroke-dasharray="5,2" d="M211.235,-66.0593C196.447,-62.05 180.868,-56.5305 167.5,-49 153.98,-41.3841 141.553,-28.1899 134.25,-19.5273"/>
<polygon fill="#9a32cd" stroke="#9a32cd" points="210.758,-69.5485 221.31,-68.5999 212.47,-62.761 210.758,-69.5485"/>
<text text-anchor="middle" x="205.5" y="-41" font-family="Helvetica,sans-Serif" font-size="10.00"> peerTableModel</text>
</g>
<!-- Node2 -->
<g id="node2" class="node"><title>Node2</title>
<polygon fill="white" stroke="#bfbfbf" points="195,-134.5 195,-153.5 308,-153.5 308,-134.5 195,-134.5"/>
<text text-anchor="middle" x="251.5" y="-141.5" font-family="Helvetica,sans-Serif" font-size="10.00">QAbstractTableModel</text>
</g>
<!-- Node2&#45;&gt;Node1 -->
<g id="edge1" class="edge"><title>Node2&#45;&gt;Node1</title>
<path fill="none" stroke="midnightblue" d="M255.789,-124.415C258.657,-111.988 262.296,-96.2166 264.509,-86.6273"/>
<polygon fill="midnightblue" stroke="midnightblue" points="252.361,-123.703 253.523,-134.234 259.182,-125.277 252.361,-123.703"/>
</g>
<!-- Node3 -->
<g id="node3" class="node"><title>Node3</title>
<g id="a_node3"><a xlink:href="class_peer_table_priv.html" target="_top" xlink:title="PeerTablePriv">
<polygon fill="white" stroke="black" points="326.5,-134.5 326.5,-153.5 406.5,-153.5 406.5,-134.5 326.5,-134.5"/>
<text text-anchor="middle" x="366.5" y="-141.5" font-family="Helvetica,sans-Serif" font-size="10.00">PeerTablePriv</text>
</a>
</g>
</g>
<!-- Node3&#45;&gt;Node1 -->
<g id="edge2" class="edge"><title>Node3&#45;&gt;Node1</title>
<path fill="none" stroke="#9a32cd" stroke-dasharray="5,2" d="M344.606,-128.769C324.812,-115.903 296.314,-97.379 279.773,-86.6273"/>
<polygon fill="#9a32cd" stroke="#9a32cd" points="342.722,-131.718 353.014,-134.234 346.537,-125.849 342.722,-131.718"/>
<text text-anchor="middle" x="332" y="-108" font-family="Helvetica,sans-Serif" font-size="10.00"> priv</text>
</g>
<!-- Node4&#45;&gt;Node1 -->
<g id="edge3" class="edge"><title>Node4&#45;&gt;Node1</title>
<path fill="none" stroke="#9a32cd" stroke-dasharray="5,2" d="M172.262,-11.9575C196.709,-14.5665 226.241,-21.3559 247.5,-38 256.909,-45.366 262.018,-58.6266 264.502,-67.3717"/>
<polygon fill="#9a32cd" stroke="#9a32cd" points="172.401,-8.45644 162.136,-11.0787 171.796,-15.4302 172.401,-8.45644"/>
<text text-anchor="middle" x="283.5" y="-41" font-family="Helvetica,sans-Serif" font-size="10.00"> clientModel</text>
</g>
<!-- Node5 -->
<g id="node5" class="node"><title>Node5</title>
<polygon fill="white" stroke="#bfbfbf" points="0,-67.5 0,-86.5 53,-86.5 53,-67.5 0,-67.5"/>
<text text-anchor="middle" x="26.5" y="-74.5" font-family="Helvetica,sans-Serif" font-size="10.00">QObject</text>
</g>
<!-- Node5&#45;&gt;Node4 -->
<g id="edge4" class="edge"><title>Node5&#45;&gt;Node4</title>
<path fill="none" stroke="midnightblue" d="M46.4307,-61.3177C56.4952,-54.0732 68.9848,-45.3374 80.5,-38 90.6582,-31.5272 102.408,-24.7772 111.619,-19.6454"/>
<polygon fill="midnightblue" stroke="midnightblue" points="44.3291,-58.5183 38.2959,-67.2276 48.4435,-64.1816 44.3291,-58.5183"/>
</g>
<!-- Node6 -->
<g id="node6" class="node"><title>Node6</title>
<g id="a_node6"><a xlink:href="class_options_model.html" target="_top" xlink:title="Interface from Qt to configuration data structure for Anoncoin client. ">
<polygon fill="white" stroke="black" points="71.5,-67.5 71.5,-86.5 149.5,-86.5 149.5,-67.5 71.5,-67.5"/>
<text text-anchor="middle" x="110.5" y="-74.5" font-family="Helvetica,sans-Serif" font-size="10.00">OptionsModel</text>
</a>
</g>
</g>
<!-- Node6&#45;&gt;Node4 -->
<g id="edge6" class="edge"><title>Node6&#45;&gt;Node4</title>
<path fill="none" stroke="#9a32cd" stroke-dasharray="5,2" d="M91.1975,-60.32C85.3133,-53.6022 81.3659,-45.5724 85.5,-38 89.903,-29.9351 97.8606,-23.9199 105.674,-19.6396"/>
<polygon fill="#9a32cd" stroke="#9a32cd" points="89.0028,-63.0663 98.6266,-67.4974 93.8666,-58.032 89.0028,-63.0663"/>
<text text-anchor="middle" x="117" y="-41" font-family="Helvetica,sans-Serif" font-size="10.00"> optionsModel</text>
</g>
<!-- Node7 -->
<g id="node7" class="node"><title>Node7</title>
<polygon fill="white" stroke="#bfbfbf" points="58.5,-134.5 58.5,-153.5 162.5,-153.5 162.5,-134.5 58.5,-134.5"/>
<text text-anchor="middle" x="110.5" y="-141.5" font-family="Helvetica,sans-Serif" font-size="10.00">QAbstractListModel</text>
</g>
<!-- Node7&#45;&gt;Node6 -->
<g id="edge7" class="edge"><title>Node7&#45;&gt;Node6</title>
<path fill="none" stroke="midnightblue" d="M110.5,-124.037C110.5,-111.67 110.5,-96.1198 110.5,-86.6273"/>
<polygon fill="midnightblue" stroke="midnightblue" points="107,-124.234 110.5,-134.234 114,-124.234 107,-124.234"/>
</g>
</g>
</svg>
