<?xml version="1.0" encoding="UTF-8" standalone="no"?>
<!DOCTYPE svg PUBLIC "-//W3C//DTD SVG 1.1//EN"
 "http://www.w3.org/Graphics/SVG/1.1/DTD/svg11.dtd">
<!-- Generated by graphviz version 2.38.0 (20140413.2041)
 -->
<!-- Title: WalletModel::updateAddressBook Pages: 1 -->
<svg width="1138pt" height="66pt"
 viewBox="0.00 0.00 1138.00 66.00" xmlns="http://www.w3.org/2000/svg" xmlns:xlink="http://www.w3.org/1999/xlink">
<g id="graph0" class="graph" transform="scale(1 1) rotate(0) translate(4 62)">
<title>WalletModel::updateAddressBook</title>
<polygon fill="white" stroke="none" points="-4,4 -4,-62 1134,-62 1134,4 -4,4"/>
<!-- Node1 -->
<g id="node1" class="node"><title>Node1</title>
<polygon fill="#bfbfbf" stroke="black" points="0,-19.5 0,-38.5 167,-38.5 167,-19.5 0,-19.5"/>
<text text-anchor="middle" x="83.5" y="-26.5" font-family="Helvetica,sans-Serif" font-size="10.00">WalletModel::updateAddressBook</text>
</g>
<!-- Node2 -->
<g id="node2" class="node"><title>Node2</title>
<g id="a_node2"><a xlink:href="class_address_table_model.html#aa2f39463431a15741ed4d78ef592dfe5" target="_top" xlink:title="AddressTableModel::\lupdateEntry">
<polygon fill="white" stroke="black" points="203,-14 203,-44 314,-44 314,-14 203,-14"/>
<text text-anchor="start" x="211" y="-32" font-family="Helvetica,sans-Serif" font-size="10.00">AddressTableModel::</text>
<text text-anchor="middle" x="258.5" y="-21" font-family="Helvetica,sans-Serif" font-size="10.00">updateEntry</text>
</a>
</g>
</g>
<!-- Node1&#45;&gt;Node2 -->
<g id="edge1" class="edge"><title>Node1&#45;&gt;Node2</title>
<path fill="none" stroke="midnightblue" d="M167.2,-29C175.629,-29 184.107,-29 192.312,-29"/>
<polygon fill="midnightblue" stroke="midnightblue" points="192.534,-32.5001 202.534,-29 192.534,-25.5001 192.534,-32.5001"/>
</g>
<!-- Node3 -->
<g id="node3" class="node"><title>Node3</title>
<g id="a_node3"><a xlink:href="class_address_table_priv.html#a6f4b10febc3055afde7200c0dbc8ccef" target="_top" xlink:title="AddressTablePriv::update\lEntry">
<polygon fill="white" stroke="black" points="350,-14 350,-44 482,-44 482,-14 350,-14"/>
<text text-anchor="start" x="358" y="-32" font-family="Helvetica,sans-Serif" font-size="10.00">AddressTablePriv::update</text>
<text text-anchor="middle" x="416" y="-21" font-family="Helvetica,sans-Serif" font-size="10.00">Entry</text>
</a>
</g>
</g>
<!-- Node2&#45;&gt;Node3 -->
<g id="edge2" class="edge"><title>Node2&#45;&gt;Node3</title>
<path fill="none" stroke="midnightblue" d="M314.323,-29C322.557,-29 331.166,-29 339.736,-29"/>
<polygon fill="midnightblue" stroke="midnightblue" points="339.752,-32.5001 349.752,-29 339.752,-25.5001 339.752,-32.5001"/>
</g>
<!-- Node4 -->
<g id="node4" class="node"><title>Node4</title>
<g id="a_node4"><a xlink:href="class_address_table_model.html#a42cbcc82a8752c4af3b75fd62e8c7a40" target="_top" xlink:title="Notify listeners that data changed. ">
<polygon fill="white" stroke="black" points="518,-14 518,-44 629,-44 629,-14 518,-14"/>
<text text-anchor="start" x="526" y="-32" font-family="Helvetica,sans-Serif" font-size="10.00">AddressTableModel::</text>
<text text-anchor="middle" x="573.5" y="-21" font-family="Helvetica,sans-Serif" font-size="10.00">emitDataChanged</text>
</a>
</g>
</g>
<!-- Node3&#45;&gt;Node4 -->
<g id="edge3" class="edge"><title>Node3&#45;&gt;Node4</title>
<path fill="none" stroke="midnightblue" d="M482.045,-29C490.447,-29 499.052,-29 507.454,-29"/>
<polygon fill="midnightblue" stroke="midnightblue" points="507.574,-32.5001 517.574,-29 507.574,-25.5001 507.574,-32.5001"/>
</g>
<!-- Node5 -->
<g id="node5" class="node"><title>Node5</title>
<g id="a_node5"><a xlink:href="class_address_table_model.html#a84f095bae13574410fceba53f8184abc" target="_top" xlink:title="AddressTableModel::\lindex">
<polygon fill="white" stroke="black" points="665,-14 665,-44 776,-44 776,-14 665,-14"/>
<text text-anchor="start" x="673" y="-32" font-family="Helvetica,sans-Serif" font-size="10.00">AddressTableModel::</text>
<text text-anchor="middle" x="720.5" y="-21" font-family="Helvetica,sans-Serif" font-size="10.00">index</text>
</a>
</g>
</g>
<!-- Node4&#45;&gt;Node5 -->
<g id="edge4" class="edge"><title>Node4&#45;&gt;Node5</title>
<path fill="none" stroke="midnightblue" d="M629.318,-29C637.529,-29 646.061,-29 654.459,-29"/>
<polygon fill="midnightblue" stroke="midnightblue" points="654.604,-32.5001 664.604,-29 654.604,-25.5001 654.604,-32.5001"/>
</g>
<!-- Node6 -->
<g id="node6" class="node"><title>Node6</title>
<g id="a_node6"><a xlink:href="class_address_table_model.html#a5ff6e3e2dab8b80428c4f59c4f1bc95a" target="_top" xlink:title="AddressTableModel::data">
<polygon fill="white" stroke="black" points="812,-38.5 812,-57.5 942,-57.5 942,-38.5 812,-38.5"/>
<text text-anchor="middle" x="877" y="-45.5" font-family="Helvetica,sans-Serif" font-size="10.00">AddressTableModel::data</text>
</a>
</g>
</g>
<!-- Node5&#45;&gt;Node6 -->
<g id="edge5" class="edge"><title>Node5&#45;&gt;Node6</title>
<path fill="none" stroke="midnightblue" d="M776.406,-35.7522C784.635,-36.7642 793.234,-37.8216 801.783,-38.873"/>
<polygon fill="midnightblue" stroke="midnightblue" points="801.419,-42.3545 811.771,-40.1013 802.273,-35.4068 801.419,-42.3545"/>
</g>
<!-- Node8 -->
<g id="node8" class="node"><title>Node8</title>
<g id="a_node8"><a xlink:href="class_address_table_priv.html#af311eb7d0189a74a508d7ad0f563f307" target="_top" xlink:title="AddressTablePriv::index">
<polygon fill="white" stroke="black" points="814.5,-0.5 814.5,-19.5 939.5,-19.5 939.5,-0.5 814.5,-0.5"/>
<text text-anchor="middle" x="877" y="-7.5" font-family="Helvetica,sans-Serif" font-size="10.00">AddressTablePriv::index</text>
</a>
</g>
</g>
<!-- Node5&#45;&gt;Node8 -->
<g id="edge7" class="edge"><title>Node5&#45;&gt;Node8</title>
<path fill="none" stroke="midnightblue" d="M776.406,-22.2478C785.451,-21.1355 794.943,-19.9682 804.324,-18.8145"/>
<polygon fill="midnightblue" stroke="midnightblue" points="804.937,-22.2656 814.435,-17.5712 804.082,-15.318 804.937,-22.2656"/>
</g>
<!-- Node7 -->
<g id="node7" class="node"><title>Node7</title>
<g id="a_node7"><a xlink:href="namespace_g_u_i_util.html#ad284d2b3b4732d897cf6f1d751065e98" target="_top" xlink:title="GUIUtil::anoncoinAddressFont">
<polygon fill="white" stroke="black" points="978,-38.5 978,-57.5 1130,-57.5 1130,-38.5 978,-38.5"/>
<text text-anchor="middle" x="1054" y="-45.5" font-family="Helvetica,sans-Serif" font-size="10.00">GUIUtil::anoncoinAddressFont</text>
</a>
</g>
</g>
<!-- Node6&#45;&gt;Node7 -->
<g id="edge6" class="edge"><title>Node6&#45;&gt;Node7</title>
<path fill="none" stroke="midnightblue" d="M942.17,-48C950.513,-48 959.162,-48 967.781,-48"/>
<polygon fill="midnightblue" stroke="midnightblue" points="967.866,-51.5001 977.866,-48 967.866,-44.5001 967.866,-51.5001"/>
</g>
</g>
</svg>
