<?xml version="1.0" encoding="UTF-8" standalone="no"?>
<!DOCTYPE svg PUBLIC "-//W3C//DTD SVG 1.1//EN"
 "http://www.w3.org/Graphics/SVG/1.1/DTD/svg11.dtd">
<!-- Generated by graphviz version 2.38.0 (20140413.2041)
 -->
<!-- Title: AnoncoinAmountField Pages: 1 -->
<svg width="180pt" height="152pt"
 viewBox="0.00 0.00 180.00 152.00" xmlns="http://www.w3.org/2000/svg" xmlns:xlink="http://www.w3.org/1999/xlink">
<g id="graph0" class="graph" transform="scale(1 1) rotate(0) translate(4 148)">
<title>AnoncoinAmountField</title>
<polygon fill="white" stroke="none" points="-4,4 -4,-148 176,-148 176,4 -4,4"/>
<!-- Node1 -->
<g id="node1" class="node"><title>Node1</title>
<polygon fill="#bfbfbf" stroke="black" points="2.5,-0.5 2.5,-19.5 116.5,-19.5 116.5,-0.5 2.5,-0.5"/>
<text text-anchor="middle" x="59.5" y="-7.5" font-family="Helvetica,sans-Serif" font-size="10.00">AnoncoinAmountField</text>
</g>
<!-- Node2 -->
<g id="node2" class="node"><title>Node2</title>
<polygon fill="white" stroke="#bfbfbf" points="0,-67.5 0,-86.5 55,-86.5 55,-67.5 0,-67.5"/>
<text text-anchor="middle" x="27.5" y="-74.5" font-family="Helvetica,sans-Serif" font-size="10.00">QWidget</text>
</g>
<!-- Node2&#45;&gt;Node1 -->
<g id="edge1" class="edge"><title>Node2&#45;&gt;Node1</title>
<path fill="none" stroke="midnightblue" d="M36.2811,-58.1635C42.4523,-45.6281 50.4364,-29.4104 55.2527,-19.6273"/>
<polygon fill="midnightblue" stroke="midnightblue" points="33.0925,-56.7162 31.8157,-67.2338 39.3727,-59.808 33.0925,-56.7162"/>
</g>
<!-- Node3 -->
<g id="node3" class="node"><title>Node3</title>
<g id="a_node3"><a xlink:href="class_q_value_combo_box.html" target="_top" xlink:title="QValueComboBox">
<polygon fill="white" stroke="black" points="73,-67.5 73,-86.5 172,-86.5 172,-67.5 73,-67.5"/>
<text text-anchor="middle" x="122.5" y="-74.5" font-family="Helvetica,sans-Serif" font-size="10.00">QValueComboBox</text>
</a>
</g>
</g>
<!-- Node3&#45;&gt;Node1 -->
<g id="edge2" class="edge"><title>Node3&#45;&gt;Node1</title>
<path fill="none" stroke="#9a32cd" stroke-dasharray="5,2" d="M106.989,-59.9968C94.6342,-47.2496 77.8133,-29.8947 67.8618,-19.6273"/>
<polygon fill="#9a32cd" stroke="#9a32cd" points="104.531,-62.489 114.004,-67.2338 109.557,-57.6172 104.531,-62.489"/>
<text text-anchor="middle" x="104" y="-41" font-family="Helvetica,sans-Serif" font-size="10.00"> unit</text>
</g>
<!-- Node4 -->
<g id="node4" class="node"><title>Node4</title>
<polygon fill="white" stroke="#bfbfbf" points="85.5,-124.5 85.5,-143.5 159.5,-143.5 159.5,-124.5 85.5,-124.5"/>
<text text-anchor="middle" x="122.5" y="-131.5" font-family="Helvetica,sans-Serif" font-size="10.00">QComboBox</text>
</g>
<!-- Node4&#45;&gt;Node3 -->
<g id="edge3" class="edge"><title>Node4&#45;&gt;Node3</title>
<path fill="none" stroke="midnightblue" d="M122.5,-114.117C122.5,-104.817 122.5,-94.0557 122.5,-86.7149"/>
<polygon fill="midnightblue" stroke="midnightblue" points="119,-114.406 122.5,-124.406 126,-114.406 119,-114.406"/>
</g>
</g>
</svg>
