<?xml version="1.0" encoding="UTF-8" standalone="no"?>
<!DOCTYPE svg PUBLIC "-//W3C//DTD SVG 1.1//EN"
 "http://www.w3.org/Graphics/SVG/1.1/DTD/svg11.dtd">
<!-- Generated by graphviz version 2.38.0 (20140413.2041)
 -->
<!-- Title: SendCoinsDialog::clear Pages: 1 -->
<svg width="1637pt" height="770pt"
 viewBox="0.00 0.00 1637.00 770.00" xmlns="http://www.w3.org/2000/svg" xmlns:xlink="http://www.w3.org/1999/xlink">
<g id="graph0" class="graph" transform="scale(1 1) rotate(0) translate(4 766)">
<title>SendCoinsDialog::clear</title>
<polygon fill="white" stroke="none" points="-4,4 -4,-766 1633,-766 1633,4 -4,4"/>
<!-- Node1 -->
<g id="node1" class="node"><title>Node1</title>
<polygon fill="#bfbfbf" stroke="black" points="0,-263 0,-282 121,-282 121,-263 0,-263"/>
<text text-anchor="middle" x="60.5" y="-270" font-family="Helvetica,sans-Serif" font-size="10.00">SendCoinsDialog::clear</text>
</g>
<!-- Node2 -->
<g id="node2" class="node"><title>Node2</title>
<g id="a_node2"><a xlink:href="class_send_coins_dialog.html#a3d680a76b967641115c6ff2fa83fb62a" target="_top" xlink:title="SendCoinsDialog::addEntry">
<polygon fill="white" stroke="black" points="157,-206 157,-225 296,-225 296,-206 157,-206"/>
<text text-anchor="middle" x="226.5" y="-213" font-family="Helvetica,sans-Serif" font-size="10.00">SendCoinsDialog::addEntry</text>
</a>
</g>
</g>
<!-- Node1&#45;&gt;Node2 -->
<g id="edge1" class="edge"><title>Node1&#45;&gt;Node2</title>
<path fill="none" stroke="midnightblue" d="M88.9499,-262.959C116.149,-253.506 158.002,-238.96 188.203,-228.463"/>
<polygon fill="midnightblue" stroke="midnightblue" points="189.664,-231.661 197.961,-225.072 187.366,-225.049 189.664,-231.661"/>
</g>
<!-- Node15 -->
<g id="node15" class="node"><title>Node15</title>
<g id="a_node15"><a xlink:href="class_send_coins_dialog.html#a3b834c739f7d02d8086a2bf58525c5f0" target="_top" xlink:title="SendCoinsDialog::updateTabs\lAndLabels">
<polygon fill="white" stroke="black" points="524,-274.5 524,-304.5 676,-304.5 676,-274.5 524,-274.5"/>
<text text-anchor="start" x="532" y="-292.5" font-family="Helvetica,sans-Serif" font-size="10.00">SendCoinsDialog::updateTabs</text>
<text text-anchor="middle" x="600" y="-281.5" font-family="Helvetica,sans-Serif" font-size="10.00">AndLabels</text>
</a>
</g>
</g>
<!-- Node1&#45;&gt;Node15 -->
<g id="edge61" class="edge"><title>Node1&#45;&gt;Node15</title>
<path fill="none" stroke="midnightblue" d="M121.068,-277.889C175.835,-282.558 259.31,-288.95 332,-291.5 401.291,-293.931 418.669,-292.125 488,-291.5 496.312,-291.425 504.973,-291.319 513.63,-291.194"/>
<polygon fill="midnightblue" stroke="midnightblue" points="513.824,-294.691 523.77,-291.039 513.717,-287.692 513.824,-294.691"/>
</g>
<!-- Node3 -->
<g id="node3" class="node"><title>Node3</title>
<g id="a_node3"><a xlink:href="class_send_coins_entry.html#a831f8f9a63acd77b7d66d5393e12310b" target="_top" xlink:title="SendCoinsEntry::setModel">
<polygon fill="white" stroke="black" points="532.5,-88 532.5,-107 667.5,-107 667.5,-88 532.5,-88"/>
<text text-anchor="middle" x="600" y="-95" font-family="Helvetica,sans-Serif" font-size="10.00">SendCoinsEntry::setModel</text>
</a>
</g>
</g>
<!-- Node2&#45;&gt;Node3 -->
<g id="edge2" class="edge"><title>Node2&#45;&gt;Node3</title>
<path fill="none" stroke="midnightblue" d="M238.188,-205.919C256.162,-190.37 294.198,-159.841 332,-144.5 393.278,-119.632 467.72,-107.904 522.418,-102.383"/>
<polygon fill="midnightblue" stroke="midnightblue" points="522.776,-105.864 532.394,-101.422 522.105,-98.8967 522.776,-105.864"/>
</g>
<!-- Node10 -->
<g id="node10" class="node"><title>Node10</title>
<g id="a_node10"><a xlink:href="class_send_coins_entry.html#abff66fcd456c82144e7a2c410f5082ac" target="_top" xlink:title="SendCoinsEntry::clear">
<polygon fill="white" stroke="black" points="731,-132 731,-151 847,-151 847,-132 731,-132"/>
<text text-anchor="middle" x="789" y="-139" font-family="Helvetica,sans-Serif" font-size="10.00">SendCoinsEntry::clear</text>
</a>
</g>
</g>
<!-- Node2&#45;&gt;Node10 -->
<g id="edge59" class="edge"><title>Node2&#45;&gt;Node10</title>
<path fill="none" stroke="midnightblue" d="M296.228,-206.426C404.548,-192.125 613.659,-164.517 720.936,-150.354"/>
<polygon fill="midnightblue" stroke="midnightblue" points="721.537,-153.805 730.993,-149.026 720.621,-146.865 721.537,-153.805"/>
</g>
<!-- Node14 -->
<g id="node14" class="node"><title>Node14</title>
<g id="a_node14"><a xlink:href="class_send_coins_dialog.html#aabd82a79bd2358493f36425f1d62136b" target="_top" xlink:title="SendCoinsDialog::removeEntry">
<polygon fill="white" stroke="black" points="332,-263 332,-282 488,-282 488,-263 332,-263"/>
<text text-anchor="middle" x="410" y="-270" font-family="Helvetica,sans-Serif" font-size="10.00">SendCoinsDialog::removeEntry</text>
</a>
</g>
</g>
<!-- Node2&#45;&gt;Node14 -->
<g id="edge15" class="edge"><title>Node2&#45;&gt;Node14</title>
<path fill="none" stroke="midnightblue" d="M284.98,-225.012C300.259,-229.518 316.751,-234.716 332,-239.5 351.179,-245.517 373.061,-252.333 388.584,-258.746"/>
<polygon fill="midnightblue" stroke="midnightblue" points="387.219,-261.97 397.774,-262.89 390.097,-255.589 387.219,-261.97"/>
</g>
<!-- Node2&#45;&gt;Node15 -->
<g id="edge58" class="edge"><title>Node2&#45;&gt;Node15</title>
<path fill="none" stroke="midnightblue" d="M296.103,-222.306C348.978,-228.32 423.685,-238.493 488,-253.5 508.161,-258.204 529.913,-264.889 548.773,-271.224"/>
<polygon fill="midnightblue" stroke="midnightblue" points="547.754,-274.574 558.349,-274.492 550.015,-267.949 547.754,-274.574"/>
</g>
<!-- Node19 -->
<g id="node19" class="node"><title>Node19</title>
<g id="a_node19"><a xlink:href="class_send_coins_dialog.html#ae4f429aabcaf309aa314b90049be2a74" target="_top" xlink:title="SendCoinsDialog::coinControl\lUpdateLabels">
<polygon fill="white" stroke="black" points="714,-274.5 714,-304.5 864,-304.5 864,-274.5 714,-274.5"/>
<text text-anchor="start" x="722" y="-292.5" font-family="Helvetica,sans-Serif" font-size="10.00">SendCoinsDialog::coinControl</text>
<text text-anchor="middle" x="789" y="-281.5" font-family="Helvetica,sans-Serif" font-size="10.00">UpdateLabels</text>
</a>
</g>
</g>
<!-- Node2&#45;&gt;Node19 -->
<g id="edge57" class="edge"><title>Node2&#45;&gt;Node19</title>
<path fill="none" stroke="midnightblue" d="M296.056,-213.749C348.746,-213.27 423.234,-214.474 488,-222.5 571.154,-232.805 665.156,-255.672 725.42,-271.816"/>
<polygon fill="midnightblue" stroke="midnightblue" points="724.597,-275.219 735.164,-274.446 726.422,-268.461 724.597,-275.219"/>
</g>
<!-- Node50 -->
<g id="node50" class="node"><title>Node50</title>
<g id="a_node50"><a xlink:href="class_send_coins_entry.html#a0dcb8720f234165b37f8b45b035320cc" target="_top" xlink:title="SendCoinsEntry::setFocus">
<polygon fill="white" stroke="black" points="342.5,-73 342.5,-92 477.5,-92 477.5,-73 342.5,-73"/>
<text text-anchor="middle" x="410" y="-80" font-family="Helvetica,sans-Serif" font-size="10.00">SendCoinsEntry::setFocus</text>
</a>
</g>
</g>
<!-- Node2&#45;&gt;Node50 -->
<g id="edge60" class="edge"><title>Node2&#45;&gt;Node50</title>
<path fill="none" stroke="midnightblue" d="M234.138,-205.779C249.102,-184.593 287.643,-133.959 332,-106.5 339.188,-102.05 347.268,-98.3644 355.42,-95.3298"/>
<polygon fill="midnightblue" stroke="midnightblue" points="356.646,-98.6096 364.974,-92.0597 354.379,-91.9868 356.646,-98.6096"/>
</g>
<!-- Node4 -->
<g id="node4" class="node"><title>Node4</title>
<g id="a_node4"><a xlink:href="class_wallet_model.html#a96d53e56b3f8f07537ea2523f7a7d300" target="_top" xlink:title="WalletModel::getOptionsModel">
<polygon fill="white" stroke="black" points="1113,-50 1113,-69 1266,-69 1266,-50 1113,-50"/>
<text text-anchor="middle" x="1189.5" y="-57" font-family="Helvetica,sans-Serif" font-size="10.00">WalletModel::getOptionsModel</text>
</a>
</g>
</g>
<!-- Node3&#45;&gt;Node4 -->
<g id="edge3" class="edge"><title>Node3&#45;&gt;Node4</title>
<path fill="none" stroke="midnightblue" d="M667.536,-93.1964C774.522,-86.2764 984.716,-72.6809 1102.79,-65.044"/>
<polygon fill="midnightblue" stroke="midnightblue" points="1103.12,-68.53 1112.87,-64.3917 1102.67,-61.5446 1103.12,-68.53"/>
</g>
<!-- Node5 -->
<g id="node5" class="node"><title>Node5</title>
<g id="a_node5"><a xlink:href="class_send_coins_entry.html#a6ff4bd5b370545bcfd6214e866ee33f3" target="_top" xlink:title="SendCoinsEntry::updateDisplayUnit">
<polygon fill="white" stroke="black" points="902,-88 902,-107 1077,-107 1077,-88 902,-88"/>
<text text-anchor="middle" x="989.5" y="-95" font-family="Helvetica,sans-Serif" font-size="10.00">SendCoinsEntry::updateDisplayUnit</text>
</a>
</g>
</g>
<!-- Node3&#45;&gt;Node5 -->
<g id="edge4" class="edge"><title>Node3&#45;&gt;Node5</title>
<path fill="none" stroke="midnightblue" d="M667.614,-97.5C729.282,-97.5 821.715,-97.5 891.559,-97.5"/>
<polygon fill="midnightblue" stroke="midnightblue" points="891.694,-101 901.694,-97.5 891.694,-94.0001 891.694,-101"/>
</g>
<!-- Node9 -->
<g id="node9" class="node"><title>Node9</title>
<g id="a_node9"><a xlink:href="class_send_coins_entry.html#aa749b51119d0504f204bbf7c90744e2e" target="_top" xlink:title="SendCoinsEntry::deleteClicked">
<polygon fill="white" stroke="black" points="712,-12 712,-31 866,-31 866,-12 712,-12"/>
<text text-anchor="middle" x="789" y="-19" font-family="Helvetica,sans-Serif" font-size="10.00">SendCoinsEntry::deleteClicked</text>
</a>
</g>
</g>
<!-- Node3&#45;&gt;Node9 -->
<g id="edge9" class="edge"><title>Node3&#45;&gt;Node9</title>
<path fill="none" stroke="midnightblue" d="M619.524,-87.8973C641.298,-76.8284 678.694,-58.4947 712,-45.5 722.461,-41.4184 733.928,-37.5127 744.711,-34.0816"/>
<polygon fill="midnightblue" stroke="midnightblue" points="745.866,-37.3877 754.373,-31.0725 743.784,-30.7043 745.866,-37.3877"/>
</g>
<!-- Node3&#45;&gt;Node10 -->
<g id="edge10" class="edge"><title>Node3&#45;&gt;Node10</title>
<path fill="none" stroke="midnightblue" d="M641.576,-107.047C669.757,-113.678 707.501,-122.559 737.61,-129.643"/>
<polygon fill="midnightblue" stroke="midnightblue" points="736.967,-133.088 747.503,-131.971 738.57,-126.274 736.967,-133.088"/>
</g>
<!-- Node5&#45;&gt;Node4 -->
<g id="edge5" class="edge"><title>Node5&#45;&gt;Node4</title>
<path fill="none" stroke="midnightblue" d="M1040.21,-87.96C1067.04,-82.8104 1100.36,-76.416 1128.61,-70.9935"/>
<polygon fill="midnightblue" stroke="midnightblue" points="1129.61,-74.366 1138.77,-69.0439 1128.29,-67.4915 1129.61,-74.366"/>
</g>
<!-- Node6 -->
<g id="node6" class="node"><title>Node6</title>
<g id="a_node6"><a xlink:href="class_anoncoin_amount_field.html#a44252e1921be1026e68adfbdc99d5ca4" target="_top" xlink:title="Change unit used to display amount. ">
<polygon fill="white" stroke="black" points="1132.5,-0.5 1132.5,-30.5 1246.5,-30.5 1246.5,-0.5 1132.5,-0.5"/>
<text text-anchor="start" x="1140.5" y="-18.5" font-family="Helvetica,sans-Serif" font-size="10.00">AnoncoinAmountField</text>
<text text-anchor="middle" x="1189.5" y="-7.5" font-family="Helvetica,sans-Serif" font-size="10.00">::setDisplayUnit</text>
</a>
</g>
</g>
<!-- Node5&#45;&gt;Node6 -->
<g id="edge6" class="edge"><title>Node5&#45;&gt;Node6</title>
<path fill="none" stroke="midnightblue" d="M1009.3,-87.9216C1033.09,-75.9934 1075.5,-55.3765 1113,-40.5 1118.73,-38.2281 1124.75,-35.9885 1130.8,-33.8392"/>
<polygon fill="midnightblue" stroke="midnightblue" points="1131.98,-37.1347 1140.27,-30.5441 1129.68,-30.5231 1131.98,-37.1347"/>
</g>
<!-- Node8 -->
<g id="node8" class="node"><title>Node8</title>
<g id="a_node8"><a xlink:href="class_options_model.html#a3b6e4d4ef42be3aaba315b8cd14f468e" target="_top" xlink:title="OptionsModel::getDisplayUnit">
<polygon fill="white" stroke="black" points="1115.5,-138 1115.5,-157 1263.5,-157 1263.5,-138 1115.5,-138"/>
<text text-anchor="middle" x="1189.5" y="-145" font-family="Helvetica,sans-Serif" font-size="10.00">OptionsModel::getDisplayUnit</text>
</a>
</g>
</g>
<!-- Node5&#45;&gt;Node8 -->
<g id="edge8" class="edge"><title>Node5&#45;&gt;Node8</title>
<path fill="none" stroke="midnightblue" d="M1038.31,-107.057C1050.96,-109.842 1064.55,-113.068 1077,-116.5 1093.26,-120.982 1096.81,-123.772 1113,-128.5 1121.21,-130.897 1129.97,-133.269 1138.51,-135.482"/>
<polygon fill="midnightblue" stroke="midnightblue" points="1137.83,-138.921 1148.38,-138 1139.56,-132.138 1137.83,-138.921"/>
</g>
<!-- Node7 -->
<g id="node7" class="node"><title>Node7</title>
<g id="a_node7"><a xlink:href="class_q_value_combo_box.html#af192c68c0c82f33000d8c1be8c013d2d" target="_top" xlink:title="QValueComboBox::setValue">
<polygon fill="white" stroke="black" points="1305.5,-6 1305.5,-25 1449.5,-25 1449.5,-6 1305.5,-6"/>
<text text-anchor="middle" x="1377.5" y="-13" font-family="Helvetica,sans-Serif" font-size="10.00">QValueComboBox::setValue</text>
</a>
</g>
</g>
<!-- Node6&#45;&gt;Node7 -->
<g id="edge7" class="edge"><title>Node6&#45;&gt;Node7</title>
<path fill="none" stroke="midnightblue" d="M1246.56,-15.5C1261.88,-15.5 1278.81,-15.5 1295.23,-15.5"/>
<polygon fill="midnightblue" stroke="midnightblue" points="1295.38,-19.0001 1305.38,-15.5 1295.38,-12.0001 1295.38,-19.0001"/>
</g>
<!-- Node10&#45;&gt;Node5 -->
<g id="edge14" class="edge"><title>Node10&#45;&gt;Node5</title>
<path fill="none" stroke="midnightblue" d="M832.539,-131.969C853.458,-127.291 879.047,-121.583 902,-116.5 912.689,-114.133 924.123,-111.613 935.062,-109.208"/>
<polygon fill="midnightblue" stroke="midnightblue" points="935.917,-112.604 944.933,-107.04 934.414,-105.767 935.917,-112.604"/>
</g>
<!-- Node11 -->
<g id="node11" class="node"><title>Node11</title>
<g id="a_node11"><a xlink:href="class_q_validated_line_edit.html#aee2a648f6f4904f21e55871afbddefa9" target="_top" xlink:title="QValidatedLineEdit\l::clear">
<polygon fill="white" stroke="black" points="938.5,-175.5 938.5,-205.5 1040.5,-205.5 1040.5,-175.5 938.5,-175.5"/>
<text text-anchor="start" x="946.5" y="-193.5" font-family="Helvetica,sans-Serif" font-size="10.00">QValidatedLineEdit</text>
<text text-anchor="middle" x="989.5" y="-182.5" font-family="Helvetica,sans-Serif" font-size="10.00">::clear</text>
</a>
</g>
</g>
<!-- Node10&#45;&gt;Node11 -->
<g id="edge11" class="edge"><title>Node10&#45;&gt;Node11</title>
<path fill="none" stroke="midnightblue" d="M828.744,-151.064C857.067,-158.056 896.02,-167.671 928.372,-175.657"/>
<polygon fill="midnightblue" stroke="midnightblue" points="927.633,-179.08 938.181,-178.079 929.311,-172.284 927.633,-179.08"/>
</g>
<!-- Node13 -->
<g id="node13" class="node"><title>Node13</title>
<g id="a_node13"><a xlink:href="class_anoncoin_amount_field.html#a2fbc8a8cb0a623e6e773a0913bf5a828" target="_top" xlink:title="Make field empty and ready for new input. ">
<polygon fill="white" stroke="black" points="932.5,-126.5 932.5,-156.5 1046.5,-156.5 1046.5,-126.5 932.5,-126.5"/>
<text text-anchor="start" x="940.5" y="-144.5" font-family="Helvetica,sans-Serif" font-size="10.00">AnoncoinAmountField</text>
<text text-anchor="middle" x="989.5" y="-133.5" font-family="Helvetica,sans-Serif" font-size="10.00">::clear</text>
</a>
</g>
</g>
<!-- Node10&#45;&gt;Node13 -->
<g id="edge13" class="edge"><title>Node10&#45;&gt;Node13</title>
<path fill="none" stroke="midnightblue" d="M847.148,-141.5C870.599,-141.5 897.899,-141.5 922.219,-141.5"/>
<polygon fill="midnightblue" stroke="midnightblue" points="922.44,-145 932.44,-141.5 922.44,-138 922.44,-145"/>
</g>
<!-- Node12 -->
<g id="node12" class="node"><title>Node12</title>
<g id="a_node12"><a xlink:href="class_q_validated_line_edit.html#ad9984e2e463cc7fbf28fe334498a1df5" target="_top" xlink:title="QValidatedLineEdit\l::setValid">
<polygon fill="white" stroke="black" points="1138.5,-88.5 1138.5,-118.5 1240.5,-118.5 1240.5,-88.5 1138.5,-88.5"/>
<text text-anchor="start" x="1146.5" y="-106.5" font-family="Helvetica,sans-Serif" font-size="10.00">QValidatedLineEdit</text>
<text text-anchor="middle" x="1189.5" y="-95.5" font-family="Helvetica,sans-Serif" font-size="10.00">::setValid</text>
</a>
</g>
</g>
<!-- Node11&#45;&gt;Node12 -->
<g id="edge12" class="edge"><title>Node11&#45;&gt;Node12</title>
<path fill="none" stroke="midnightblue" d="M1040.88,-181.439C1053.24,-177.917 1066.05,-173.087 1077,-166.5 1096.94,-154.508 1093.36,-140.978 1113,-128.5 1117.93,-125.369 1123.29,-122.59 1128.8,-120.133"/>
<polygon fill="midnightblue" stroke="midnightblue" points="1130.25,-123.322 1138.18,-116.295 1127.6,-116.843 1130.25,-123.322"/>
</g>
<!-- Node14&#45;&gt;Node2 -->
<g id="edge16" class="edge"><title>Node14&#45;&gt;Node2</title>
<path fill="none" stroke="midnightblue" d="M349.301,-262.877C343.454,-261.089 337.611,-259.26 332,-257.5 303.296,-248.494 270.182,-238.024 249.058,-229.213"/>
<polygon fill="midnightblue" stroke="midnightblue" points="250.28,-225.925 239.722,-225.034 247.42,-232.314 250.28,-225.925"/>
</g>
<!-- Node14&#45;&gt;Node15 -->
<g id="edge17" class="edge"><title>Node14&#45;&gt;Node15</title>
<path fill="none" stroke="midnightblue" d="M488.009,-279.464C496.537,-280.235 505.257,-281.023 513.877,-281.803"/>
<polygon fill="midnightblue" stroke="midnightblue" points="513.658,-285.297 523.932,-282.712 514.288,-278.326 513.658,-285.297"/>
</g>
<!-- Node16 -->
<g id="node16" class="node"><title>Node16</title>
<g id="a_node16"><a xlink:href="class_send_coins_dialog.html#a689658987f2af0896f25bf37bb945d91" target="_top" xlink:title="Set up the tab chain manually, as Qt messes up the tab chain by default in some cases (issue https://...">
<polygon fill="white" stroke="black" points="718.5,-540.5 718.5,-570.5 859.5,-570.5 859.5,-540.5 718.5,-540.5"/>
<text text-anchor="start" x="726.5" y="-558.5" font-family="Helvetica,sans-Serif" font-size="10.00">SendCoinsDialog::setupTab</text>
<text text-anchor="middle" x="789" y="-547.5" font-family="Helvetica,sans-Serif" font-size="10.00">Chain</text>
</a>
</g>
</g>
<!-- Node15&#45;&gt;Node16 -->
<g id="edge18" class="edge"><title>Node15&#45;&gt;Node16</title>
<path fill="none" stroke="midnightblue" d="M611.59,-304.563C642.695,-348.809 733.954,-478.621 771.537,-532.081"/>
<polygon fill="midnightblue" stroke="midnightblue" points="768.68,-534.104 777.295,-540.272 774.407,-530.078 768.68,-534.104"/>
</g>
<!-- Node15&#45;&gt;Node19 -->
<g id="edge21" class="edge"><title>Node15&#45;&gt;Node19</title>
<path fill="none" stroke="midnightblue" d="M676.252,-289.5C685.248,-289.5 694.478,-289.5 703.593,-289.5"/>
<polygon fill="midnightblue" stroke="midnightblue" points="703.815,-293 713.815,-289.5 703.815,-286 703.815,-293"/>
</g>
<!-- Node17 -->
<g id="node17" class="node"><title>Node17</title>
<g id="a_node17"><a xlink:href="class_send_coins_entry.html#aa431a0bf53174b3a012fe224e472bc13" target="_top" xlink:title="Set up the tab chain manually, as Qt messes up the tab chain by default in some cases (issue https://...">
<polygon fill="white" stroke="black" points="921.5,-672.5 921.5,-702.5 1057.5,-702.5 1057.5,-672.5 921.5,-672.5"/>
<text text-anchor="start" x="929.5" y="-690.5" font-family="Helvetica,sans-Serif" font-size="10.00">SendCoinsEntry::setupTab</text>
<text text-anchor="middle" x="989.5" y="-679.5" font-family="Helvetica,sans-Serif" font-size="10.00">Chain</text>
</a>
</g>
</g>
<!-- Node16&#45;&gt;Node17 -->
<g id="edge19" class="edge"><title>Node16&#45;&gt;Node17</title>
<path fill="none" stroke="midnightblue" d="M812.77,-570.642C848.348,-594.301 917.194,-640.082 957.341,-666.779"/>
<polygon fill="midnightblue" stroke="midnightblue" points="955.425,-669.709 965.69,-672.332 959.301,-663.88 955.425,-669.709"/>
</g>
<!-- Node18 -->
<g id="node18" class="node"><title>Node18</title>
<g id="a_node18"><a xlink:href="class_anoncoin_amount_field.html#a60f0158e3040a7def415231681d5a20f" target="_top" xlink:title="Qt messes up the tab chain by default in some cases (issue https://bugreports.qt&#45;project.org/browse/QTBUG&#45;10907), in these cases we have to set it up manually. ">
<polygon fill="white" stroke="black" points="1132.5,-731.5 1132.5,-761.5 1246.5,-761.5 1246.5,-731.5 1132.5,-731.5"/>
<text text-anchor="start" x="1140.5" y="-749.5" font-family="Helvetica,sans-Serif" font-size="10.00">AnoncoinAmountField</text>
<text text-anchor="middle" x="1189.5" y="-738.5" font-family="Helvetica,sans-Serif" font-size="10.00">::setupTabChain</text>
</a>
</g>
</g>
<!-- Node17&#45;&gt;Node18 -->
<g id="edge20" class="edge"><title>Node17&#45;&gt;Node18</title>
<path fill="none" stroke="midnightblue" d="M1040.98,-702.541C1067.62,-710.481 1100.5,-720.279 1128.45,-728.607"/>
<polygon fill="midnightblue" stroke="midnightblue" points="1127.53,-731.985 1138.12,-731.487 1129.53,-725.277 1127.53,-731.985"/>
</g>
<!-- Node19&#45;&gt;Node4 -->
<g id="edge22" class="edge"><title>Node19&#45;&gt;Node4</title>
<path fill="none" stroke="midnightblue" d="M855.267,-274.43C937.461,-255.196 1069.01,-223.452 1077,-215.5 1121.62,-171.086 1068.25,-122.784 1113,-78.5 1114.44,-77.0739 1115.97,-75.7496 1117.58,-74.5203"/>
<polygon fill="midnightblue" stroke="midnightblue" points="1119.55,-77.413 1126.16,-69.1311 1115.83,-71.4849 1119.55,-77.413"/>
</g>
<!-- Node20 -->
<g id="node20" class="node"><title>Node20</title>
<g id="a_node20"><a xlink:href="class_options_model.html#ace6c871068f613aee277e37bfdc988c0" target="_top" xlink:title="OptionsModel::getCoinControl\lFeatures">
<polygon fill="white" stroke="black" points="914.5,-274.5 914.5,-304.5 1064.5,-304.5 1064.5,-274.5 914.5,-274.5"/>
<text text-anchor="start" x="922.5" y="-292.5" font-family="Helvetica,sans-Serif" font-size="10.00">OptionsModel::getCoinControl</text>
<text text-anchor="middle" x="989.5" y="-281.5" font-family="Helvetica,sans-Serif" font-size="10.00">Features</text>
</a>
</g>
</g>
<!-- Node19&#45;&gt;Node20 -->
<g id="edge23" class="edge"><title>Node19&#45;&gt;Node20</title>
<path fill="none" stroke="midnightblue" d="M864.196,-289.5C877.271,-289.5 890.967,-289.5 904.292,-289.5"/>
<polygon fill="midnightblue" stroke="midnightblue" points="904.394,-293 914.394,-289.5 904.394,-286 904.394,-293"/>
</g>
<!-- Node21 -->
<g id="node21" class="node"><title>Node21</title>
<g id="a_node21"><a xlink:href="class_send_coins_entry.html#af36fb0ed9e2e07079c1a982b31e793c8" target="_top" xlink:title="SendCoinsEntry::getValue">
<polygon fill="white" stroke="black" points="922.5,-480 922.5,-499 1056.5,-499 1056.5,-480 922.5,-480"/>
<text text-anchor="middle" x="989.5" y="-487" font-family="Helvetica,sans-Serif" font-size="10.00">SendCoinsEntry::getValue</text>
</a>
</g>
</g>
<!-- Node19&#45;&gt;Node21 -->
<g id="edge24" class="edge"><title>Node19&#45;&gt;Node21</title>
<path fill="none" stroke="midnightblue" d="M804.92,-304.533C841.115,-341.002 933.411,-433.994 971.581,-472.453"/>
<polygon fill="midnightblue" stroke="midnightblue" points="969.337,-475.16 978.865,-479.792 974.305,-470.229 969.337,-475.16"/>
</g>
<!-- Node24 -->
<g id="node24" class="node"><title>Node24</title>
<g id="a_node24"><a xlink:href="class_coin_control_dialog.html#a4fc60e89b097952ff22dc0f9c58c87d9" target="_top" xlink:title="CoinControlDialog::\lupdateLabels">
<polygon fill="white" stroke="black" points="938,-353.5 938,-383.5 1041,-383.5 1041,-353.5 938,-353.5"/>
<text text-anchor="start" x="946" y="-371.5" font-family="Helvetica,sans-Serif" font-size="10.00">CoinControlDialog::</text>
<text text-anchor="middle" x="989.5" y="-360.5" font-family="Helvetica,sans-Serif" font-size="10.00">updateLabels</text>
</a>
</g>
</g>
<!-- Node19&#45;&gt;Node24 -->
<g id="edge27" class="edge"><title>Node19&#45;&gt;Node24</title>
<path fill="none" stroke="midnightblue" d="M827.804,-304.545C859.986,-317.353 906.379,-335.817 941.052,-349.617"/>
<polygon fill="midnightblue" stroke="midnightblue" points="939.914,-352.931 950.5,-353.376 942.503,-346.427 939.914,-352.931"/>
</g>
<!-- Node22 -->
<g id="node22" class="node"><title>Node22</title>
<g id="a_node22"><a xlink:href="class_payment_request_plus.html#a62ae278689d852e4a73cdef627763944" target="_top" xlink:title="PaymentRequestPlus\l::IsInitialized">
<polygon fill="white" stroke="black" points="1133,-682.5 1133,-712.5 1246,-712.5 1246,-682.5 1133,-682.5"/>
<text text-anchor="start" x="1141" y="-700.5" font-family="Helvetica,sans-Serif" font-size="10.00">PaymentRequestPlus</text>
<text text-anchor="middle" x="1189.5" y="-689.5" font-family="Helvetica,sans-Serif" font-size="10.00">::IsInitialized</text>
</a>
</g>
</g>
<!-- Node21&#45;&gt;Node22 -->
<g id="edge25" class="edge"><title>Node21&#45;&gt;Node22</title>
<path fill="none" stroke="midnightblue" d="M994.222,-499.082C1006.42,-529.25 1048.19,-623.196 1113,-672.5 1116.34,-675.039 1119.95,-677.328 1123.72,-679.39"/>
<polygon fill="midnightblue" stroke="midnightblue" points="1122.22,-682.556 1132.74,-683.8 1125.3,-676.266 1122.22,-682.556"/>
</g>
<!-- Node23 -->
<g id="node23" class="node"><title>Node23</title>
<g id="a_node23"><a xlink:href="classpayments_1_1_payment_request.html#a823854558ba54ec4b6258d9132affc15" target="_top" xlink:title="payments::PaymentRequest\l::IsInitialized">
<polygon fill="white" stroke="black" points="1306.5,-682.5 1306.5,-712.5 1448.5,-712.5 1448.5,-682.5 1306.5,-682.5"/>
<text text-anchor="start" x="1314.5" y="-700.5" font-family="Helvetica,sans-Serif" font-size="10.00">payments::PaymentRequest</text>
<text text-anchor="middle" x="1377.5" y="-689.5" font-family="Helvetica,sans-Serif" font-size="10.00">::IsInitialized</text>
</a>
</g>
</g>
<!-- Node22&#45;&gt;Node23 -->
<g id="edge26" class="edge"><title>Node22&#45;&gt;Node23</title>
<path fill="none" stroke="midnightblue" d="M1246.05,-697.5C1261.74,-697.5 1279.14,-697.5 1295.98,-697.5"/>
<polygon fill="midnightblue" stroke="midnightblue" points="1296.38,-701 1306.38,-697.5 1296.38,-694 1296.38,-701"/>
</g>
<!-- Node24&#45;&gt;Node4 -->
<g id="edge52" class="edge"><title>Node24&#45;&gt;Node4</title>
<path fill="none" stroke="midnightblue" d="M1029.24,-353.331C1046.57,-344.569 1065.61,-331.802 1077,-314.5 1135.33,-225.869 1041.63,-157.009 1113,-78.5 1114.19,-77.1936 1115.45,-75.971 1116.78,-74.8272"/>
<polygon fill="midnightblue" stroke="midnightblue" points="1118.8,-77.6834 1125.01,-69.1005 1114.8,-71.9365 1118.8,-77.6834"/>
</g>
<!-- Node24&#45;&gt;Node8 -->
<g id="edge53" class="edge"><title>Node24&#45;&gt;Node8</title>
<path fill="none" stroke="midnightblue" d="M1027.65,-353.286C1045.03,-344.392 1064.59,-331.527 1077,-314.5 1115.59,-261.53 1068.1,-219.238 1113,-171.5 1116.62,-167.654 1120.85,-164.422 1125.43,-161.706"/>
<polygon fill="midnightblue" stroke="midnightblue" points="1127.23,-164.716 1134.59,-157.093 1124.08,-158.463 1127.23,-164.716"/>
</g>
<!-- Node25 -->
<g id="node25" class="node"><title>Node25</title>
<g id="a_node25"><a xlink:href="class_c_tx_out.html#a89bf5bc4987ccd09e9a675d980e18602" target="_top" xlink:title="CTxOut::IsDust">
<polygon fill="white" stroke="black" points="1147,-568 1147,-587 1232,-587 1232,-568 1147,-568"/>
<text text-anchor="middle" x="1189.5" y="-575" font-family="Helvetica,sans-Serif" font-size="10.00">CTxOut::IsDust</text>
</a>
</g>
</g>
<!-- Node24&#45;&gt;Node25 -->
<g id="edge28" class="edge"><title>Node24&#45;&gt;Node25</title>
<path fill="none" stroke="midnightblue" d="M1005.96,-383.544C1024.72,-402.455 1056.39,-436.565 1077,-470.5 1098.94,-506.617 1081.08,-530.811 1113,-558.5 1119.83,-564.42 1128.23,-568.544 1136.93,-571.406"/>
<polygon fill="midnightblue" stroke="midnightblue" points="1136.24,-574.845 1146.81,-574.13 1138.1,-568.097 1136.24,-574.845"/>
</g>
<!-- Node26 -->
<g id="node26" class="node"><title>Node26</title>
<g id="a_node26"><a xlink:href="class_c_coin_control.html#a176b3a32b5f623fe25b8e61ca561422e" target="_top" xlink:title="CCoinControl::ListSelected">
<polygon fill="white" stroke="black" points="1121,-530 1121,-549 1258,-549 1258,-530 1121,-530"/>
<text text-anchor="middle" x="1189.5" y="-537" font-family="Helvetica,sans-Serif" font-size="10.00">CCoinControl::ListSelected</text>
</a>
</g>
</g>
<!-- Node24&#45;&gt;Node26 -->
<g id="edge29" class="edge"><title>Node24&#45;&gt;Node26</title>
<path fill="none" stroke="midnightblue" d="M1004.08,-383.735C1021.45,-403.401 1052.26,-438.858 1077,-470.5 1093.87,-492.07 1090.35,-505.114 1113,-520.5 1115.94,-522.497 1119.07,-524.284 1122.33,-525.884"/>
<polygon fill="midnightblue" stroke="midnightblue" points="1121.19,-529.205 1131.77,-529.913 1123.94,-522.768 1121.19,-529.205"/>
</g>
<!-- Node27 -->
<g id="node27" class="node"><title>Node27</title>
<g id="a_node27"><a xlink:href="class_wallet_model.html#a5237ea4d9724807a05e2944e5ce6f181" target="_top" xlink:title="WalletModel::getOutputs">
<polygon fill="white" stroke="black" points="1126.5,-492 1126.5,-511 1252.5,-511 1252.5,-492 1126.5,-492"/>
<text text-anchor="middle" x="1189.5" y="-499" font-family="Helvetica,sans-Serif" font-size="10.00">WalletModel::getOutputs</text>
</a>
</g>
</g>
<!-- Node24&#45;&gt;Node27 -->
<g id="edge30" class="edge"><title>Node24&#45;&gt;Node27</title>
<path fill="none" stroke="midnightblue" d="M1002.32,-383.62C1022.37,-408.204 1065.53,-456.688 1113,-482.5 1117.23,-484.8 1121.75,-486.828 1126.38,-488.615"/>
<polygon fill="midnightblue" stroke="midnightblue" points="1125.43,-491.989 1136.03,-491.954 1127.72,-485.375 1125.43,-491.989"/>
</g>
<!-- Node28 -->
<g id="node28" class="node"><title>Node28</title>
<g id="a_node28"><a xlink:href="class_c_transaction.html#a3f8666d2a275c40da14bd5eaf47dc004" target="_top" xlink:title="CTransaction::GetHash">
<polygon fill="white" stroke="black" points="1129,-454 1129,-473 1250,-473 1250,-454 1129,-454"/>
<text text-anchor="middle" x="1189.5" y="-461" font-family="Helvetica,sans-Serif" font-size="10.00">CTransaction::GetHash</text>
</a>
</g>
</g>
<!-- Node24&#45;&gt;Node28 -->
<g id="edge31" class="edge"><title>Node24&#45;&gt;Node28</title>
<path fill="none" stroke="midnightblue" d="M1010.67,-383.756C1034.11,-400.816 1074.52,-428.189 1113,-444.5 1118.8,-446.958 1124.99,-449.15 1131.23,-451.093"/>
<polygon fill="midnightblue" stroke="midnightblue" points="1130.46,-454.514 1141.04,-453.941 1132.42,-447.792 1130.46,-454.514"/>
</g>
<!-- Node31 -->
<g id="node31" class="node"><title>Node31</title>
<g id="a_node31"><a xlink:href="class_wallet_model.html#a67bf10b70291b9f6e69757003fd9058f" target="_top" xlink:title="WalletModel::isSpent">
<polygon fill="white" stroke="black" points="1134.5,-416 1134.5,-435 1244.5,-435 1244.5,-416 1134.5,-416"/>
<text text-anchor="middle" x="1189.5" y="-423" font-family="Helvetica,sans-Serif" font-size="10.00">WalletModel::isSpent</text>
</a>
</g>
</g>
<!-- Node24&#45;&gt;Node31 -->
<g id="edge34" class="edge"><title>Node24&#45;&gt;Node31</title>
<path fill="none" stroke="midnightblue" d="M1036.86,-383.531C1059.7,-390.77 1087.7,-399.399 1113,-406.5 1121.41,-408.862 1130.4,-411.243 1139.12,-413.483"/>
<polygon fill="midnightblue" stroke="midnightblue" points="1138.26,-416.876 1148.82,-415.943 1139.98,-410.091 1138.26,-416.876"/>
</g>
<!-- Node33 -->
<g id="node33" class="node"><title>Node33</title>
<g id="a_node33"><a xlink:href="class_c_coin_control.html#a28843122428b30c81814e54b9a0bcaa6" target="_top" xlink:title="CCoinControl::UnSelect">
<polygon fill="white" stroke="black" points="1128,-378 1128,-397 1251,-397 1251,-378 1128,-378"/>
<text text-anchor="middle" x="1189.5" y="-385" font-family="Helvetica,sans-Serif" font-size="10.00">CCoinControl::UnSelect</text>
</a>
</g>
</g>
<!-- Node24&#45;&gt;Node33 -->
<g id="edge36" class="edge"><title>Node24&#45;&gt;Node33</title>
<path fill="none" stroke="midnightblue" d="M1041.23,-373.368C1064.39,-375.591 1092.22,-378.261 1117.42,-380.68"/>
<polygon fill="midnightblue" stroke="midnightblue" points="1117.38,-384.192 1127.67,-381.663 1118.05,-377.224 1117.38,-384.192"/>
</g>
<!-- Node34 -->
<g id="node34" class="node"><title>Node34</title>
<g id="a_node34"><a xlink:href="script_8cpp.html#a951f7e601746ae076afdf3169ecca2fc" target="_top" xlink:title="ExtractDestination">
<polygon fill="white" stroke="black" points="1140.5,-302 1140.5,-321 1238.5,-321 1238.5,-302 1140.5,-302"/>
<text text-anchor="middle" x="1189.5" y="-309" font-family="Helvetica,sans-Serif" font-size="10.00">ExtractDestination</text>
</a>
</g>
</g>
<!-- Node24&#45;&gt;Node34 -->
<g id="edge37" class="edge"><title>Node24&#45;&gt;Node34</title>
<path fill="none" stroke="midnightblue" d="M1041.23,-353.895C1073.45,-344.619 1114.71,-332.744 1145.35,-323.922"/>
<polygon fill="midnightblue" stroke="midnightblue" points="1146.66,-327.186 1155.31,-321.056 1144.73,-320.459 1146.66,-327.186"/>
</g>
<!-- Node40 -->
<g id="node40" class="node"><title>Node40</title>
<g id="a_node40"><a xlink:href="class_wallet_model.html#a25601217a489e196e947e47c2189c311" target="_top" xlink:title="WalletModel::getPubKey">
<polygon fill="white" stroke="black" points="1126.5,-264 1126.5,-283 1252.5,-283 1252.5,-264 1126.5,-264"/>
<text text-anchor="middle" x="1189.5" y="-271" font-family="Helvetica,sans-Serif" font-size="10.00">WalletModel::getPubKey</text>
</a>
</g>
</g>
<!-- Node24&#45;&gt;Node40 -->
<g id="edge43" class="edge"><title>Node24&#45;&gt;Node40</title>
<path fill="none" stroke="midnightblue" d="M1014.63,-353.399C1049.57,-331.555 1110.38,-293.611 1113,-292.5 1118.8,-290.042 1124.99,-287.85 1131.23,-285.907"/>
<polygon fill="midnightblue" stroke="midnightblue" points="1132.42,-289.208 1141.04,-283.059 1130.46,-282.486 1132.42,-289.208"/>
</g>
<!-- Node42 -->
<g id="node42" class="node"><title>Node42</title>
<g id="a_node42"><a xlink:href="class_c_pub_key.html#a397e437d9d0a008e2641892147b0931a" target="_top" xlink:title="CPubKey::IsCompressed">
<polygon fill="white" stroke="black" points="1313,-359 1313,-378 1442,-378 1442,-359 1313,-359"/>
<text text-anchor="middle" x="1377.5" y="-366" font-family="Helvetica,sans-Serif" font-size="10.00">CPubKey::IsCompressed</text>
</a>
</g>
</g>
<!-- Node24&#45;&gt;Node42 -->
<g id="edge45" class="edge"><title>Node24&#45;&gt;Node42</title>
<path fill="none" stroke="midnightblue" d="M1041.36,-368.5C1108.17,-368.5 1225.97,-368.5 1302.61,-368.5"/>
<polygon fill="midnightblue" stroke="midnightblue" points="1302.68,-372 1312.68,-368.5 1302.68,-365 1302.68,-372"/>
</g>
<!-- Node43 -->
<g id="node43" class="node"><title>Node43</title>
<g id="a_node43"><a xlink:href="class_coin_control_dialog.html#a7285f91e6d9b510084966f4229146bcd" target="_top" xlink:title="CoinControlDialog::\lgetPriorityLabel">
<polygon fill="white" stroke="black" points="1138,-214.5 1138,-244.5 1241,-244.5 1241,-214.5 1138,-214.5"/>
<text text-anchor="start" x="1146" y="-232.5" font-family="Helvetica,sans-Serif" font-size="10.00">CoinControlDialog::</text>
<text text-anchor="middle" x="1189.5" y="-221.5" font-family="Helvetica,sans-Serif" font-size="10.00">getPriorityLabel</text>
</a>
</g>
</g>
<!-- Node24&#45;&gt;Node43 -->
<g id="edge47" class="edge"><title>Node24&#45;&gt;Node43</title>
<path fill="none" stroke="midnightblue" d="M1022.25,-353.401C1039.83,-343.953 1061.24,-330.538 1077,-314.5 1098.79,-292.317 1088.72,-273.935 1113,-254.5 1117.63,-250.796 1122.82,-247.632 1128.27,-244.93"/>
<polygon fill="midnightblue" stroke="midnightblue" points="1129.88,-248.045 1137.62,-240.805 1127.05,-241.641 1129.88,-248.045"/>
</g>
<!-- Node44 -->
<g id="node44" class="node"><title>Node44</title>
<g id="a_node44"><a xlink:href="main_8h.html#ae6c67bac023a01f1ae29b7f2f4505bba" target="_top" xlink:title="AllowFree">
<polygon fill="white" stroke="black" points="1347,-191 1347,-210 1408,-210 1408,-191 1347,-191"/>
<text text-anchor="middle" x="1377.5" y="-198" font-family="Helvetica,sans-Serif" font-size="10.00">AllowFree</text>
</a>
</g>
</g>
<!-- Node24&#45;&gt;Node44 -->
<g id="edge51" class="edge"><title>Node24&#45;&gt;Node44</title>
<path fill="none" stroke="midnightblue" d="M1026.25,-353.341C1043.72,-344.33 1063.77,-331.345 1077,-314.5 1108.52,-274.38 1071.94,-235.779 1113,-205.5 1178.87,-156.929 1281.33,-173.79 1337.09,-188.36"/>
<polygon fill="midnightblue" stroke="midnightblue" points="1336.37,-191.792 1346.94,-191.038 1338.21,-185.037 1336.37,-191.792"/>
</g>
<!-- Node45 -->
<g id="node45" class="node"><title>Node45</title>
<g id="a_node45"><a xlink:href="main_8cpp.html#a95215e52b78d3270b416dc7b83a306fe" target="_top" xlink:title="GetMinFee">
<polygon fill="white" stroke="black" points="1156.5,-644 1156.5,-663 1222.5,-663 1222.5,-644 1156.5,-644"/>
<text text-anchor="middle" x="1189.5" y="-651" font-family="Helvetica,sans-Serif" font-size="10.00">GetMinFee</text>
</a>
</g>
</g>
<!-- Node24&#45;&gt;Node45 -->
<g id="edge49" class="edge"><title>Node24&#45;&gt;Node45</title>
<path fill="none" stroke="midnightblue" d="M1007.65,-383.65C1027.47,-402.146 1059.59,-435.334 1077,-470.5 1110.11,-537.377 1061.04,-580.935 1113,-634.5 1121.75,-643.52 1134.1,-648.494 1146.28,-651.172"/>
<polygon fill="midnightblue" stroke="midnightblue" points="1145.95,-654.665 1156.4,-652.919 1147.14,-647.767 1145.95,-654.665"/>
</g>
<!-- Node47 -->
<g id="node47" class="node"><title>Node47</title>
<g id="a_node47"><a xlink:href="class_anoncoin_units.html#a07b2ad9cac3728231143e4d78c059e14" target="_top" xlink:title="Format as string (with unit) ">
<polygon fill="white" stroke="black" points="1113,-606 1113,-625 1266,-625 1266,-606 1113,-606"/>
<text text-anchor="middle" x="1189.5" y="-613" font-family="Helvetica,sans-Serif" font-size="10.00">AnoncoinUnits::formatWithUnit</text>
</a>
</g>
</g>
<!-- Node24&#45;&gt;Node47 -->
<g id="edge54" class="edge"><title>Node24&#45;&gt;Node47</title>
<path fill="none" stroke="midnightblue" d="M1006.93,-383.513C1026.35,-402.131 1058.39,-435.688 1077,-470.5 1104.45,-521.865 1071.17,-555.977 1113,-596.5 1114.49,-597.946 1116.08,-599.287 1117.74,-600.53"/>
<polygon fill="midnightblue" stroke="midnightblue" points="1116.26,-603.725 1126.61,-605.965 1119.91,-597.756 1116.26,-603.725"/>
</g>
<!-- Node29 -->
<g id="node29" class="node"><title>Node29</title>
<g id="a_node29"><a xlink:href="hash_8h.html#a6de694e43f17c62025c6883965b65e63" target="_top" xlink:title="SerializeHash">
<polygon fill="white" stroke="black" points="1338.5,-454 1338.5,-473 1416.5,-473 1416.5,-454 1338.5,-454"/>
<text text-anchor="middle" x="1377.5" y="-461" font-family="Helvetica,sans-Serif" font-size="10.00">SerializeHash</text>
</a>
</g>
</g>
<!-- Node28&#45;&gt;Node29 -->
<g id="edge32" class="edge"><title>Node28&#45;&gt;Node29</title>
<path fill="none" stroke="midnightblue" d="M1250.12,-463.5C1275.3,-463.5 1304.24,-463.5 1328.06,-463.5"/>
<polygon fill="midnightblue" stroke="midnightblue" points="1328.28,-467 1338.28,-463.5 1328.28,-460 1328.28,-467"/>
</g>
<!-- Node30 -->
<g id="node30" class="node"><title>Node30</title>
<g id="a_node30"><a xlink:href="class_c_hash_writer.html#ae94a937211502eabf19477630090093a" target="_top" xlink:title="CHashWriter::GetHash">
<polygon fill="white" stroke="black" points="1499.5,-454 1499.5,-473 1618.5,-473 1618.5,-454 1499.5,-454"/>
<text text-anchor="middle" x="1559" y="-461" font-family="Helvetica,sans-Serif" font-size="10.00">CHashWriter::GetHash</text>
</a>
</g>
</g>
<!-- Node29&#45;&gt;Node30 -->
<g id="edge33" class="edge"><title>Node29&#45;&gt;Node30</title>
<path fill="none" stroke="midnightblue" d="M1416.57,-463.5C1437.73,-463.5 1464.71,-463.5 1489.43,-463.5"/>
<polygon fill="midnightblue" stroke="midnightblue" points="1489.49,-467 1499.49,-463.5 1489.49,-460 1489.49,-467"/>
</g>
<!-- Node32 -->
<g id="node32" class="node"><title>Node32</title>
<g id="a_node32"><a xlink:href="class_c_wallet.html#a7d77e683a0f10403fe2b67385895d497" target="_top" xlink:title="CWallet::IsSpent">
<polygon fill="white" stroke="black" points="1332,-416 1332,-435 1423,-435 1423,-416 1332,-416"/>
<text text-anchor="middle" x="1377.5" y="-423" font-family="Helvetica,sans-Serif" font-size="10.00">CWallet::IsSpent</text>
</a>
</g>
</g>
<!-- Node31&#45;&gt;Node32 -->
<g id="edge35" class="edge"><title>Node31&#45;&gt;Node32</title>
<path fill="none" stroke="midnightblue" d="M1244.55,-425.5C1268.76,-425.5 1297.28,-425.5 1321.59,-425.5"/>
<polygon fill="midnightblue" stroke="midnightblue" points="1321.73,-429 1331.73,-425.5 1321.73,-422 1321.73,-429"/>
</g>
<!-- Node35 -->
<g id="node35" class="node"><title>Node35</title>
<g id="a_node35"><a xlink:href="script_8cpp.html#a6ee6be50bff44464e905680c6fcee6dc" target="_top" xlink:title="Solver">
<polygon fill="white" stroke="red" points="1355,-283 1355,-302 1400,-302 1400,-283 1355,-283"/>
<text text-anchor="middle" x="1377.5" y="-290" font-family="Helvetica,sans-Serif" font-size="10.00">Solver</text>
</a>
</g>
</g>
<!-- Node34&#45;&gt;Node35 -->
<g id="edge38" class="edge"><title>Node34&#45;&gt;Node35</title>
<path fill="none" stroke="midnightblue" d="M1238.88,-306.558C1272.24,-303.15 1315.64,-298.716 1344.7,-295.748"/>
<polygon fill="midnightblue" stroke="midnightblue" points="1345.12,-299.223 1354.72,-294.725 1344.41,-292.26 1345.12,-299.223"/>
</g>
<!-- Node38 -->
<g id="node38" class="node"><title>Node38</title>
<g id="a_node38"><a xlink:href="class_c_pub_key.html#a9c1908fef34fd9e1c4b5e0ffd5d3834e" target="_top" xlink:title="CPubKey::GetID">
<polygon fill="white" stroke="red" points="1332.5,-321 1332.5,-340 1422.5,-340 1422.5,-321 1332.5,-321"/>
<text text-anchor="middle" x="1377.5" y="-328" font-family="Helvetica,sans-Serif" font-size="10.00">CPubKey::GetID</text>
</a>
</g>
</g>
<!-- Node34&#45;&gt;Node38 -->
<g id="edge41" class="edge"><title>Node34&#45;&gt;Node38</title>
<path fill="none" stroke="midnightblue" d="M1238.88,-316.442C1264.45,-319.054 1295.9,-322.267 1322.28,-324.962"/>
<polygon fill="midnightblue" stroke="midnightblue" points="1322.19,-328.47 1332.5,-326.005 1322.9,-321.507 1322.19,-328.47"/>
</g>
<!-- Node36 -->
<g id="node36" class="node"><title>Node36</title>
<g id="a_node36"><a xlink:href="util_8cpp.html#a64d956f1dda7f9a80ab5d594532b906d" target="_top" xlink:title="Return boolean argument or default value. ">
<polygon fill="white" stroke="red" points="1525,-292 1525,-311 1593,-311 1593,-292 1525,-292"/>
<text text-anchor="middle" x="1559" y="-299" font-family="Helvetica,sans-Serif" font-size="10.00">GetBoolArg</text>
</a>
</g>
</g>
<!-- Node35&#45;&gt;Node36 -->
<g id="edge39" class="edge"><title>Node35&#45;&gt;Node36</title>
<path fill="none" stroke="midnightblue" d="M1400.15,-293.586C1428.41,-295.003 1478.53,-297.515 1514.72,-299.33"/>
<polygon fill="midnightblue" stroke="midnightblue" points="1514.83,-302.84 1525,-299.845 1515.18,-295.849 1514.83,-302.84"/>
</g>
<!-- Node37 -->
<g id="node37" class="node"><title>Node37</title>
<g id="a_node37"><a xlink:href="class_c_script.html#acba6d6d35776de4ce3a632446f44805f" target="_top" xlink:title="CScript::IsPayToScriptHash">
<polygon fill="white" stroke="black" points="1489,-254 1489,-273 1629,-273 1629,-254 1489,-254"/>
<text text-anchor="middle" x="1559" y="-261" font-family="Helvetica,sans-Serif" font-size="10.00">CScript::IsPayToScriptHash</text>
</a>
</g>
</g>
<!-- Node35&#45;&gt;Node37 -->
<g id="edge40" class="edge"><title>Node35&#45;&gt;Node37</title>
<path fill="none" stroke="midnightblue" d="M1400.15,-289.002C1422.11,-285.454 1457.27,-279.774 1488.83,-274.675"/>
<polygon fill="midnightblue" stroke="midnightblue" points="1489.62,-278.093 1498.93,-273.043 1488.5,-271.182 1489.62,-278.093"/>
</g>
<!-- Node39 -->
<g id="node39" class="node"><title>Node39</title>
<g id="a_node39"><a xlink:href="class_c_pub_key.html#a9d7129b65b6dee792b4f3923cd64ed59" target="_top" xlink:title="CPubKey::size">
<polygon fill="white" stroke="red" points="1518,-349 1518,-368 1600,-368 1600,-349 1518,-349"/>
<text text-anchor="middle" x="1559" y="-356" font-family="Helvetica,sans-Serif" font-size="10.00">CPubKey::size</text>
</a>
</g>
</g>
<!-- Node38&#45;&gt;Node39 -->
<g id="edge42" class="edge"><title>Node38&#45;&gt;Node39</title>
<path fill="none" stroke="midnightblue" d="M1422.87,-337.421C1448.65,-341.442 1481.2,-346.52 1507.9,-350.684"/>
<polygon fill="midnightblue" stroke="midnightblue" points="1507.39,-354.148 1517.81,-352.232 1508.47,-347.232 1507.39,-354.148"/>
</g>
<!-- Node41 -->
<g id="node41" class="node"><title>Node41</title>
<g id="a_node41"><a xlink:href="class_c_crypto_key_store.html#abd897aff07ec5679235b14cb4485dc37" target="_top" xlink:title="CCryptoKeyStore::GetPubKey">
<polygon fill="white" stroke="red" points="1302,-245 1302,-264 1453,-264 1453,-245 1302,-245"/>
<text text-anchor="middle" x="1377.5" y="-252" font-family="Helvetica,sans-Serif" font-size="10.00">CCryptoKeyStore::GetPubKey</text>
</a>
</g>
</g>
<!-- Node40&#45;&gt;Node41 -->
<g id="edge44" class="edge"><title>Node40&#45;&gt;Node41</title>
<path fill="none" stroke="midnightblue" d="M1252.69,-267.147C1265.23,-265.866 1278.61,-264.499 1291.77,-263.155"/>
<polygon fill="midnightblue" stroke="midnightblue" points="1292.18,-266.631 1301.78,-262.133 1291.47,-259.668 1292.18,-266.631"/>
</g>
<!-- Node42&#45;&gt;Node39 -->
<g id="edge46" class="edge"><title>Node42&#45;&gt;Node39</title>
<path fill="none" stroke="midnightblue" d="M1442.04,-364.96C1463.61,-363.759 1487.39,-362.434 1507.77,-361.298"/>
<polygon fill="midnightblue" stroke="midnightblue" points="1508,-364.791 1517.79,-360.74 1507.61,-357.802 1508,-364.791"/>
</g>
<!-- Node43&#45;&gt;Node44 -->
<g id="edge48" class="edge"><title>Node43&#45;&gt;Node44</title>
<path fill="none" stroke="midnightblue" d="M1241.33,-221.576C1271.37,-216.891 1308.86,-211.046 1336.74,-206.7"/>
<polygon fill="midnightblue" stroke="midnightblue" points="1337.57,-210.112 1346.91,-205.113 1336.49,-203.196 1337.57,-210.112"/>
</g>
<!-- Node46 -->
<g id="node46" class="node"><title>Node46</title>
<g id="a_node46"><a xlink:href="core_8h.html#ad1d9a769fa327ea042e0c9fadeb4836b" target="_top" xlink:title="MoneyRange">
<polygon fill="white" stroke="black" points="1339.5,-644 1339.5,-663 1415.5,-663 1415.5,-644 1339.5,-644"/>
<text text-anchor="middle" x="1377.5" y="-651" font-family="Helvetica,sans-Serif" font-size="10.00">MoneyRange</text>
</a>
</g>
</g>
<!-- Node45&#45;&gt;Node46 -->
<g id="edge50" class="edge"><title>Node45&#45;&gt;Node46</title>
<path fill="none" stroke="midnightblue" d="M1222.9,-653.5C1252.2,-653.5 1295.72,-653.5 1328.96,-653.5"/>
<polygon fill="midnightblue" stroke="midnightblue" points="1329.36,-657 1339.36,-653.5 1329.36,-650 1329.36,-657"/>
</g>
<!-- Node48 -->
<g id="node48" class="node"><title>Node48</title>
<g id="a_node48"><a xlink:href="class_anoncoin_units.html#acbdb244b3fc381599233882de4284e34" target="_top" xlink:title="Format as string. ">
<polygon fill="white" stroke="red" points="1320,-606 1320,-625 1435,-625 1435,-606 1320,-606"/>
<text text-anchor="middle" x="1377.5" y="-613" font-family="Helvetica,sans-Serif" font-size="10.00">AnoncoinUnits::format</text>
</a>
</g>
</g>
<!-- Node47&#45;&gt;Node48 -->
<g id="edge55" class="edge"><title>Node47&#45;&gt;Node48</title>
<path fill="none" stroke="midnightblue" d="M1266.15,-615.5C1280.56,-615.5 1295.54,-615.5 1309.65,-615.5"/>
<polygon fill="midnightblue" stroke="midnightblue" points="1309.75,-619 1319.75,-615.5 1309.75,-612 1309.75,-619"/>
</g>
<!-- Node49 -->
<g id="node49" class="node"><title>Node49</title>
<g id="a_node49"><a xlink:href="class_anoncoin_units.html#ad83d732db7699510db372a5c17590fba" target="_top" xlink:title="Short name. ">
<polygon fill="white" stroke="black" points="1321.5,-568 1321.5,-587 1433.5,-587 1433.5,-568 1321.5,-568"/>
<text text-anchor="middle" x="1377.5" y="-575" font-family="Helvetica,sans-Serif" font-size="10.00">AnoncoinUnits::name</text>
</a>
</g>
</g>
<!-- Node47&#45;&gt;Node49 -->
<g id="edge56" class="edge"><title>Node47&#45;&gt;Node49</title>
<path fill="none" stroke="midnightblue" d="M1237.44,-605.911C1262.53,-600.784 1293.62,-594.433 1320.03,-589.037"/>
<polygon fill="midnightblue" stroke="midnightblue" points="1320.8,-592.451 1329.9,-587.02 1319.4,-585.593 1320.8,-592.451"/>
</g>
</g>
</svg>
