<?xml version="1.0" encoding="UTF-8" standalone="no"?>
<!DOCTYPE svg PUBLIC "-//W3C//DTD SVG 1.1//EN"
 "http://www.w3.org/Graphics/SVG/1.1/DTD/svg11.dtd">
<!-- Generated by graphviz version 2.38.0 (20140413.2041)
 -->
<!-- Title: WalletView::unlockWallet Pages: 1 -->
<svg width="471pt" height="66pt"
 viewBox="0.00 0.00 471.00 66.00" xmlns="http://www.w3.org/2000/svg" xmlns:xlink="http://www.w3.org/1999/xlink">
<g id="graph0" class="graph" transform="scale(1 1) rotate(0) translate(4 62)">
<title>WalletView::unlockWallet</title>
<polygon fill="white" stroke="none" points="-4,4 -4,-62 467,-62 467,4 -4,4"/>
<!-- Node1 -->
<g id="node1" class="node"><title>Node1</title>
<polygon fill="#bfbfbf" stroke="black" points="0,-19.5 0,-38.5 128,-38.5 128,-19.5 0,-19.5"/>
<text text-anchor="middle" x="64" y="-26.5" font-family="Helvetica,sans-Serif" font-size="10.00">WalletView::unlockWallet</text>
</g>
<!-- Node2 -->
<g id="node2" class="node"><title>Node2</title>
<g id="a_node2"><a xlink:href="class_wallet_frame.html#a31b6e87c87b383ef53225b6c2b37f057" target="_top" xlink:title="Ask for passphrase to unlock wallet temporarily. ">
<polygon fill="white" stroke="black" points="166.5,-38.5 166.5,-57.5 301.5,-57.5 301.5,-38.5 166.5,-38.5"/>
<text text-anchor="middle" x="234" y="-45.5" font-family="Helvetica,sans-Serif" font-size="10.00">WalletFrame::unlockWallet</text>
</a>
</g>
</g>
<!-- Node1&#45;&gt;Node2 -->
<g id="edge1" class="edge"><title>Node1&#45;&gt;Node2</title>
<path fill="none" stroke="midnightblue" d="M138.094,-37.2666C147.451,-38.3249 156.992,-39.4039 166.242,-40.45"/>
<polygon fill="midnightblue" stroke="midnightblue" points="138.365,-33.775 128.035,-36.129 137.578,-40.7307 138.365,-33.775"/>
</g>
<!-- Node3 -->
<g id="node3" class="node"><title>Node3</title>
<g id="a_node3"><a xlink:href="class_wallet_view.html#a0a37ff693a4f9c1e5ddc23f9cd3913be" target="_top" xlink:title="Set the wallet model. ">
<polygon fill="white" stroke="black" points="164,-0.5 164,-19.5 304,-19.5 304,-0.5 164,-0.5"/>
<text text-anchor="middle" x="234" y="-7.5" font-family="Helvetica,sans-Serif" font-size="10.00">WalletView::setWalletModel</text>
</a>
</g>
</g>
<!-- Node1&#45;&gt;Node3 -->
<g id="edge2" class="edge"><title>Node1&#45;&gt;Node3</title>
<path fill="none" stroke="midnightblue" d="M138.05,-20.7384C146.66,-19.7646 155.428,-18.7731 163.98,-17.8058"/>
<polygon fill="midnightblue" stroke="midnightblue" points="137.578,-17.2693 128.035,-21.871 138.365,-24.225 137.578,-17.2693"/>
</g>
<!-- Node4 -->
<g id="node4" class="node"><title>Node4</title>
<g id="a_node4"><a xlink:href="class_wallet_frame.html#aa199c3f27654199d84c365cf86167d86" target="_top" xlink:title="WalletFrame::addWallet">
<polygon fill="white" stroke="black" points="340,-0.5 340,-19.5 463,-19.5 463,-0.5 340,-0.5"/>
<text text-anchor="middle" x="401.5" y="-7.5" font-family="Helvetica,sans-Serif" font-size="10.00">WalletFrame::addWallet</text>
</a>
</g>
</g>
<!-- Node3&#45;&gt;Node4 -->
<g id="edge3" class="edge"><title>Node3&#45;&gt;Node4</title>
<path fill="none" stroke="midnightblue" d="M314.311,-10C322.938,-10 331.616,-10 339.968,-10"/>
<polygon fill="midnightblue" stroke="midnightblue" points="314.228,-6.5001 304.228,-10 314.228,-13.5001 314.228,-6.5001"/>
</g>
</g>
</svg>
