<?xml version="1.0" encoding="UTF-8" standalone="no"?>
<!DOCTYPE svg PUBLIC "-//W3C//DTD SVG 1.1//EN"
 "http://www.w3.org/Graphics/SVG/1.1/DTD/svg11.dtd">
<!-- Generated by graphviz version 2.38.0 (20140413.2041)
 -->
<!-- Title: WalletView::message Pages: 1 -->
<svg width="475pt" height="142pt"
 viewBox="0.00 0.00 475.00 142.00" xmlns="http://www.w3.org/2000/svg" xmlns:xlink="http://www.w3.org/1999/xlink">
<g id="graph0" class="graph" transform="scale(1 1) rotate(0) translate(4 138)">
<title>WalletView::message</title>
<polygon fill="white" stroke="none" points="-4,4 -4,-138 471,-138 471,4 -4,4"/>
<!-- Node1 -->
<g id="node1" class="node"><title>Node1</title>
<polygon fill="#bfbfbf" stroke="black" points="0,-57.5 0,-76.5 112,-76.5 112,-57.5 0,-57.5"/>
<text text-anchor="middle" x="56" y="-64.5" font-family="Helvetica,sans-Serif" font-size="10.00">WalletView::message</text>
</g>
<!-- Node2 -->
<g id="node2" class="node"><title>Node2</title>
<g id="a_node2"><a xlink:href="class_wallet_view.html#a015da635646a47196bbcd819f7e01e7c" target="_top" xlink:title="WalletView::WalletView">
<polygon fill="white" stroke="black" points="159.5,-114.5 159.5,-133.5 280.5,-133.5 280.5,-114.5 159.5,-114.5"/>
<text text-anchor="middle" x="220" y="-121.5" font-family="Helvetica,sans-Serif" font-size="10.00">WalletView::WalletView</text>
</a>
</g>
</g>
<!-- Node1&#45;&gt;Node2 -->
<g id="edge1" class="edge"><title>Node1&#45;&gt;Node2</title>
<path fill="none" stroke="midnightblue" d="M86.8402,-80.6517C104.419,-88.3922 127.217,-97.9155 148,-105 158.145,-108.458 169.277,-111.693 179.656,-114.478"/>
<polygon fill="midnightblue" stroke="midnightblue" points="88.2164,-77.4332 77.6575,-76.5617 85.3683,-83.8276 88.2164,-77.4332"/>
</g>
<!-- Node3 -->
<g id="node3" class="node"><title>Node3</title>
<g id="a_node3"><a xlink:href="class_wallet_view.html#a99d6a88bea0aef8db23e249c7ffb24d0" target="_top" xlink:title="WalletView::setAnoncoinGUI">
<polygon fill="white" stroke="black" points="148,-76.5 148,-95.5 292,-95.5 292,-76.5 148,-76.5"/>
<text text-anchor="middle" x="220" y="-83.5" font-family="Helvetica,sans-Serif" font-size="10.00">WalletView::setAnoncoinGUI</text>
</a>
</g>
</g>
<!-- Node1&#45;&gt;Node3 -->
<g id="edge2" class="edge"><title>Node1&#45;&gt;Node3</title>
<path fill="none" stroke="midnightblue" d="M122.4,-74.6704C130.798,-75.6553 139.428,-76.6674 147.91,-77.6623"/>
<polygon fill="midnightblue" stroke="midnightblue" points="122.638,-71.1743 112.298,-73.4856 121.822,-78.1267 122.638,-71.1743"/>
</g>
<!-- Node5 -->
<g id="node5" class="node"><title>Node5</title>
<g id="a_node5"><a xlink:href="class_wallet_view.html#a0a37ff693a4f9c1e5ddc23f9cd3913be" target="_top" xlink:title="Set the wallet model. ">
<polygon fill="white" stroke="black" points="150,-38.5 150,-57.5 290,-57.5 290,-38.5 150,-38.5"/>
<text text-anchor="middle" x="220" y="-45.5" font-family="Helvetica,sans-Serif" font-size="10.00">WalletView::setWalletModel</text>
</a>
</g>
</g>
<!-- Node1&#45;&gt;Node5 -->
<g id="edge4" class="edge"><title>Node1&#45;&gt;Node5</title>
<path fill="none" stroke="midnightblue" d="M122.389,-59.3309C131.452,-58.268 140.785,-57.1734 149.912,-56.1029"/>
<polygon fill="midnightblue" stroke="midnightblue" points="121.822,-55.8733 112.298,-60.5144 122.638,-62.8257 121.822,-55.8733"/>
</g>
<!-- Node6 -->
<g id="node6" class="node"><title>Node6</title>
<g id="a_node6"><a xlink:href="class_wallet_view.html#a9800d793b552076b4207276d9e08c8b6" target="_top" xlink:title="Backup the wallet. ">
<polygon fill="white" stroke="black" points="154,-0.5 154,-19.5 286,-19.5 286,-0.5 154,-0.5"/>
<text text-anchor="middle" x="220" y="-7.5" font-family="Helvetica,sans-Serif" font-size="10.00">WalletView::backupWallet</text>
</a>
</g>
</g>
<!-- Node1&#45;&gt;Node6 -->
<g id="edge6" class="edge"><title>Node1&#45;&gt;Node6</title>
<path fill="none" stroke="midnightblue" d="M86.8402,-53.3483C104.419,-45.6078 127.217,-36.0845 148,-29 158.145,-25.5417 169.277,-22.3073 179.656,-19.5221"/>
<polygon fill="midnightblue" stroke="midnightblue" points="85.3683,-50.1724 77.6575,-57.4383 88.2164,-56.5668 85.3683,-50.1724"/>
</g>
<!-- Node4 -->
<g id="node4" class="node"><title>Node4</title>
<g id="a_node4"><a xlink:href="class_wallet_frame.html#aa199c3f27654199d84c365cf86167d86" target="_top" xlink:title="WalletFrame::addWallet">
<polygon fill="white" stroke="black" points="336,-57.5 336,-76.5 459,-76.5 459,-57.5 336,-57.5"/>
<text text-anchor="middle" x="397.5" y="-64.5" font-family="Helvetica,sans-Serif" font-size="10.00">WalletFrame::addWallet</text>
</a>
</g>
</g>
<!-- Node3&#45;&gt;Node4 -->
<g id="edge3" class="edge"><title>Node3&#45;&gt;Node4</title>
<path fill="none" stroke="midnightblue" d="M302.088,-77.2212C313.487,-75.9872 325.036,-74.7368 335.961,-73.554"/>
<polygon fill="midnightblue" stroke="midnightblue" points="301.695,-73.7433 292.13,-78.2994 302.448,-80.7026 301.695,-73.7433"/>
</g>
<!-- Node5&#45;&gt;Node4 -->
<g id="edge5" class="edge"><title>Node5&#45;&gt;Node4</title>
<path fill="none" stroke="midnightblue" d="M300.148,-56.5687C312.182,-57.8715 324.434,-59.198 335.987,-60.4487"/>
<polygon fill="midnightblue" stroke="midnightblue" points="300.429,-53.0788 290.11,-55.482 299.675,-60.0381 300.429,-53.0788"/>
</g>
<!-- Node7 -->
<g id="node7" class="node"><title>Node7</title>
<g id="a_node7"><a xlink:href="class_wallet_frame.html#a76aa3543635fedea052661a4cd44b81d" target="_top" xlink:title="Backup the wallet. ">
<polygon fill="white" stroke="black" points="328,-0.5 328,-19.5 467,-19.5 467,-0.5 328,-0.5"/>
<text text-anchor="middle" x="397.5" y="-7.5" font-family="Helvetica,sans-Serif" font-size="10.00">WalletFrame::backupWallet</text>
</a>
</g>
</g>
<!-- Node6&#45;&gt;Node7 -->
<g id="edge7" class="edge"><title>Node6&#45;&gt;Node7</title>
<path fill="none" stroke="midnightblue" d="M296.63,-10C307.01,-10 317.621,-10 327.866,-10"/>
<polygon fill="midnightblue" stroke="midnightblue" points="296.35,-6.5001 286.35,-10 296.35,-13.5001 296.35,-6.5001"/>
</g>
</g>
</svg>
