<?xml version="1.0" encoding="UTF-8" standalone="no"?>
<!DOCTYPE svg PUBLIC "-//W3C//DTD SVG 1.1//EN"
 "http://www.w3.org/Graphics/SVG/1.1/DTD/svg11.dtd">
<!-- Generated by graphviz version 2.38.0 (20140413.2041)
 -->
<!-- Title: payments::X509Certificates::certificate Pages: 1 -->
<svg width="1678pt" height="283pt"
 viewBox="0.00 0.00 1678.00 282.50" xmlns="http://www.w3.org/2000/svg" xmlns:xlink="http://www.w3.org/1999/xlink">
<g id="graph0" class="graph" transform="scale(1 1) rotate(0) translate(4 278.5)">
<title>payments::X509Certificates::certificate</title>
<polygon fill="white" stroke="none" points="-4,4 -4,-278.5 1674,-278.5 1674,4 -4,4"/>
<!-- Node1 -->
<g id="node1" class="node"><title>Node1</title>
<polygon fill="#bfbfbf" stroke="black" points="0,-94.5 0,-124.5 139,-124.5 139,-94.5 0,-94.5"/>
<text text-anchor="start" x="8" y="-112.5" font-family="Helvetica,sans-Serif" font-size="10.00">payments::X509Certificates</text>
<text text-anchor="middle" x="69.5" y="-101.5" font-family="Helvetica,sans-Serif" font-size="10.00">::certificate</text>
</g>
<!-- Node2 -->
<g id="node2" class="node"><title>Node2</title>
<g id="a_node2"><a xlink:href="class_payment_request_plus.html#ae5d361b6e34549a83f3cb7885b20b120" target="_top" xlink:title="PaymentRequestPlus\l::getMerchant">
<polygon fill="white" stroke="black" points="175,-94.5 175,-124.5 288,-124.5 288,-94.5 175,-94.5"/>
<text text-anchor="start" x="183" y="-112.5" font-family="Helvetica,sans-Serif" font-size="10.00">PaymentRequestPlus</text>
<text text-anchor="middle" x="231.5" y="-101.5" font-family="Helvetica,sans-Serif" font-size="10.00">::getMerchant</text>
</a>
</g>
</g>
<!-- Node1&#45;&gt;Node2 -->
<g id="edge1" class="edge"><title>Node1&#45;&gt;Node2</title>
<path fill="none" stroke="midnightblue" d="M149.344,-109.5C157.941,-109.5 166.557,-109.5 174.792,-109.5"/>
<polygon fill="midnightblue" stroke="midnightblue" points="149.283,-106 139.283,-109.5 149.283,-113 149.283,-106"/>
</g>
<!-- Node3 -->
<g id="node3" class="node"><title>Node3</title>
<g id="a_node3"><a xlink:href="class_payment_server.html#abe96a7c90755b8e1975e380b5a8228bd" target="_top" xlink:title="PaymentServer::processPayment\lRequest">
<polygon fill="white" stroke="black" points="324,-138.5 324,-168.5 489,-168.5 489,-138.5 324,-138.5"/>
<text text-anchor="start" x="332" y="-156.5" font-family="Helvetica,sans-Serif" font-size="10.00">PaymentServer::processPayment</text>
<text text-anchor="middle" x="406.5" y="-145.5" font-family="Helvetica,sans-Serif" font-size="10.00">Request</text>
</a>
</g>
</g>
<!-- Node2&#45;&gt;Node3 -->
<g id="edge2" class="edge"><title>Node2&#45;&gt;Node3</title>
<path fill="none" stroke="midnightblue" d="M297.938,-126.143C313.836,-130.187 330.745,-134.487 346.334,-138.452"/>
<polygon fill="midnightblue" stroke="midnightblue" points="298.745,-122.737 288.191,-123.664 297.019,-129.521 298.745,-122.737"/>
</g>
<!-- Node7 -->
<g id="node7" class="node"><title>Node7</title>
<g id="a_node7"><a xlink:href="class_payment_server_tests.html#a82c8a7437bfc26c28619b954a5ee8cad" target="_top" xlink:title="PaymentServerTests\l::paymentServerTests">
<polygon fill="white" stroke="black" points="1179.5,-137.5 1179.5,-167.5 1293.5,-167.5 1293.5,-137.5 1179.5,-137.5"/>
<text text-anchor="start" x="1187.5" y="-155.5" font-family="Helvetica,sans-Serif" font-size="10.00">PaymentServerTests</text>
<text text-anchor="middle" x="1236.5" y="-144.5" font-family="Helvetica,sans-Serif" font-size="10.00">::paymentServerTests</text>
</a>
</g>
</g>
<!-- Node2&#45;&gt;Node7 -->
<g id="edge12" class="edge"><title>Node2&#45;&gt;Node7</title>
<path fill="none" stroke="midnightblue" d="M298.46,-109.5C373.181,-109.5 498.596,-109.5 606.5,-109.5 606.5,-109.5 606.5,-109.5 821.5,-109.5 950.126,-109.5 1100.03,-130.289 1179.44,-142.957"/>
<polygon fill="midnightblue" stroke="midnightblue" points="298.26,-106 288.26,-109.5 298.26,-113 298.26,-106"/>
</g>
<!-- Node12 -->
<g id="node12" class="node"><title>Node12</title>
<g id="a_node12"><a xlink:href="class_transaction_desc.html#ab7c9dbb2048aae121dd9d75df86e64f4" target="_top" xlink:title="TransactionDesc::toHTML">
<polygon fill="white" stroke="black" points="340,-59 340,-78 473,-78 473,-59 340,-59"/>
<text text-anchor="middle" x="406.5" y="-66" font-family="Helvetica,sans-Serif" font-size="10.00">TransactionDesc::toHTML</text>
</a>
</g>
</g>
<!-- Node2&#45;&gt;Node12 -->
<g id="edge13" class="edge"><title>Node2&#45;&gt;Node12</title>
<path fill="none" stroke="midnightblue" d="M298.07,-93.9604C320.671,-88.6039 345.302,-82.7667 365.27,-78.0343"/>
<polygon fill="midnightblue" stroke="midnightblue" points="297.114,-90.5899 288.191,-96.3017 298.728,-97.4012 297.114,-90.5899"/>
</g>
<!-- Node4 -->
<g id="node4" class="node"><title>Node4</title>
<g id="a_node4"><a xlink:href="class_payment_server.html#adf4f844b3ce7f053690fd9260210640d" target="_top" xlink:title="PaymentServer::handleURIOrFile">
<polygon fill="white" stroke="black" points="525,-202 525,-221 690,-221 690,-202 525,-202"/>
<text text-anchor="middle" x="607.5" y="-209" font-family="Helvetica,sans-Serif" font-size="10.00">PaymentServer::handleURIOrFile</text>
</a>
</g>
</g>
<!-- Node3&#45;&gt;Node4 -->
<g id="edge3" class="edge"><title>Node3&#45;&gt;Node4</title>
<path fill="none" stroke="midnightblue" d="M469.002,-171.425C503.533,-181.489 545.249,-193.648 573.61,-201.914"/>
<polygon fill="midnightblue" stroke="midnightblue" points="469.586,-167.95 459.006,-168.512 467.627,-174.67 469.586,-167.95"/>
</g>
<!-- Node10 -->
<g id="node10" class="node"><title>Node10</title>
<g id="a_node10"><a xlink:href="class_payment_server.html#a5b8e2e6380142fb7ad631400bcfc6f28" target="_top" xlink:title="PaymentServer::netRequest\lFinished">
<polygon fill="white" stroke="black" points="536.5,-138.5 536.5,-168.5 678.5,-168.5 678.5,-138.5 536.5,-138.5"/>
<text text-anchor="start" x="544.5" y="-156.5" font-family="Helvetica,sans-Serif" font-size="10.00">PaymentServer::netRequest</text>
<text text-anchor="middle" x="607.5" y="-145.5" font-family="Helvetica,sans-Serif" font-size="10.00">Finished</text>
</a>
</g>
</g>
<!-- Node3&#45;&gt;Node10 -->
<g id="edge9" class="edge"><title>Node3&#45;&gt;Node10</title>
<path fill="none" stroke="midnightblue" d="M499.371,-153.5C511.764,-153.5 524.315,-153.5 536.25,-153.5"/>
<polygon fill="midnightblue" stroke="midnightblue" points="499.015,-150 489.015,-153.5 499.015,-157 499.015,-150"/>
</g>
<!-- Node5 -->
<g id="node5" class="node"><title>Node5</title>
<g id="a_node5"><a xlink:href="class_payment_server.html#af795e3c318556c833792e530b279efc9" target="_top" xlink:title="PaymentServer::eventFilter">
<polygon fill="white" stroke="black" points="751.5,-255 751.5,-274 889.5,-274 889.5,-255 751.5,-255"/>
<text text-anchor="middle" x="820.5" y="-262" font-family="Helvetica,sans-Serif" font-size="10.00">PaymentServer::eventFilter</text>
</a>
</g>
</g>
<!-- Node4&#45;&gt;Node5 -->
<g id="edge4" class="edge"><title>Node4&#45;&gt;Node5</title>
<path fill="none" stroke="midnightblue" d="M648.829,-224.048C671.404,-230.85 700.132,-239.14 726,-245.5 739.833,-248.901 754.924,-252.161 768.867,-254.991"/>
<polygon fill="midnightblue" stroke="midnightblue" points="649.825,-220.693 639.24,-221.137 647.792,-227.391 649.825,-220.693"/>
</g>
<!-- Node6 -->
<g id="node6" class="node"><title>Node6</title>
<g id="a_node6"><a xlink:href="class_payment_server.html#abb6c65fabbf97ba95381997ca9cd6993" target="_top" xlink:title="PaymentServer::uiReady">
<polygon fill="white" stroke="black" points="967,-143 967,-162 1095,-162 1095,-143 967,-143"/>
<text text-anchor="middle" x="1031" y="-150" font-family="Helvetica,sans-Serif" font-size="10.00">PaymentServer::uiReady</text>
</a>
</g>
</g>
<!-- Node4&#45;&gt;Node6 -->
<g id="edge5" class="edge"><title>Node4&#45;&gt;Node6</title>
<path fill="none" stroke="midnightblue" d="M689.524,-200.635C751.331,-192.289 838.566,-180.386 915,-169.5 931.784,-167.11 949.935,-164.458 966.749,-161.973"/>
<polygon fill="midnightblue" stroke="midnightblue" points="688.886,-197.189 679.444,-201.995 689.822,-204.126 688.886,-197.189"/>
</g>
<!-- Node8 -->
<g id="node8" class="node"><title>Node8</title>
<g id="a_node8"><a xlink:href="class_payment_server.html#a6ee6e29e1255605582459463d195a651" target="_top" xlink:title="PaymentServer::handleURIConnection">
<polygon fill="white" stroke="black" points="726,-217 726,-236 915,-236 915,-217 726,-217"/>
<text text-anchor="middle" x="820.5" y="-224" font-family="Helvetica,sans-Serif" font-size="10.00">PaymentServer::handleURIConnection</text>
</a>
</g>
</g>
<!-- Node4&#45;&gt;Node8 -->
<g id="edge7" class="edge"><title>Node4&#45;&gt;Node8</title>
<path fill="none" stroke="midnightblue" d="M700.324,-218.028C708.785,-218.629 717.365,-219.239 725.842,-219.842"/>
<polygon fill="midnightblue" stroke="midnightblue" points="700.301,-214.517 690.078,-217.299 699.805,-221.5 700.301,-214.517"/>
</g>
<!-- Node6&#45;&gt;Node7 -->
<g id="edge6" class="edge"><title>Node6&#45;&gt;Node7</title>
<path fill="none" stroke="midnightblue" d="M1105.51,-152.5C1129.79,-152.5 1156.39,-152.5 1179.16,-152.5"/>
<polygon fill="midnightblue" stroke="midnightblue" points="1105.27,-149 1095.27,-152.5 1105.27,-156 1105.27,-149"/>
</g>
<!-- Node9 -->
<g id="node9" class="node"><title>Node9</title>
<g id="a_node9"><a xlink:href="class_payment_server.html#a4a66f55c11f4757b121179d5d6988ab2" target="_top" xlink:title="PaymentServer::PaymentServer">
<polygon fill="white" stroke="black" points="951,-217 951,-236 1111,-236 1111,-217 951,-217"/>
<text text-anchor="middle" x="1031" y="-224" font-family="Helvetica,sans-Serif" font-size="10.00">PaymentServer::PaymentServer</text>
</a>
</g>
</g>
<!-- Node8&#45;&gt;Node9 -->
<g id="edge8" class="edge"><title>Node8&#45;&gt;Node9</title>
<path fill="none" stroke="midnightblue" d="M925.155,-226.5C933.754,-226.5 942.359,-226.5 950.735,-226.5"/>
<polygon fill="midnightblue" stroke="midnightblue" points="925.077,-223 915.077,-226.5 925.077,-230 925.077,-223"/>
</g>
<!-- Node11 -->
<g id="node11" class="node"><title>Node11</title>
<g id="a_node11"><a xlink:href="class_payment_server.html#a2f94f2c3e12d03199870e17008535302" target="_top" xlink:title="PaymentServer::initNetManager">
<polygon fill="white" stroke="black" points="741,-141 741,-160 900,-160 900,-141 741,-141"/>
<text text-anchor="middle" x="820.5" y="-148" font-family="Helvetica,sans-Serif" font-size="10.00">PaymentServer::initNetManager</text>
</a>
</g>
</g>
<!-- Node10&#45;&gt;Node11 -->
<g id="edge10" class="edge"><title>Node10&#45;&gt;Node11</title>
<path fill="none" stroke="midnightblue" d="M689.172,-152.353C706.109,-152.112 723.951,-151.859 740.814,-151.619"/>
<polygon fill="midnightblue" stroke="midnightblue" points="688.709,-148.859 678.76,-152.501 688.809,-155.858 688.709,-148.859"/>
</g>
<!-- Node11&#45;&gt;Node6 -->
<g id="edge11" class="edge"><title>Node11&#45;&gt;Node6</title>
<path fill="none" stroke="midnightblue" d="M910.203,-151.351C929.231,-151.533 948.966,-151.723 966.795,-151.894"/>
<polygon fill="midnightblue" stroke="midnightblue" points="910.061,-147.849 900.028,-151.253 909.994,-154.849 910.061,-147.849"/>
</g>
<!-- Node13 -->
<g id="node13" class="node"><title>Node13</title>
<g id="a_node13"><a xlink:href="class_transaction_table_priv.html#ab08d44e16bf6dd95b5b83959b3013780" target="_top" xlink:title="TransactionTablePriv\l::describe">
<polygon fill="white" stroke="black" points="552,-49.5 552,-79.5 663,-79.5 663,-49.5 552,-49.5"/>
<text text-anchor="start" x="560" y="-67.5" font-family="Helvetica,sans-Serif" font-size="10.00">TransactionTablePriv</text>
<text text-anchor="middle" x="607.5" y="-56.5" font-family="Helvetica,sans-Serif" font-size="10.00">::describe</text>
</a>
</g>
</g>
<!-- Node12&#45;&gt;Node13 -->
<g id="edge14" class="edge"><title>Node12&#45;&gt;Node13</title>
<path fill="none" stroke="midnightblue" d="M483.213,-66.9781C506.041,-66.5193 530.643,-66.0248 551.821,-65.5991"/>
<polygon fill="midnightblue" stroke="midnightblue" points="483.139,-63.4788 473.212,-67.1792 483.28,-70.4774 483.139,-63.4788"/>
</g>
<!-- Node14 -->
<g id="node14" class="node"><title>Node14</title>
<g id="a_node14"><a xlink:href="class_transaction_table_model.html#a416d0751ab9a95ecd87d3f7bed4f0b06" target="_top" xlink:title="TransactionTableModel\l::data">
<polygon fill="white" stroke="black" points="760,-48.5 760,-78.5 881,-78.5 881,-48.5 760,-48.5"/>
<text text-anchor="start" x="768" y="-66.5" font-family="Helvetica,sans-Serif" font-size="10.00">TransactionTableModel</text>
<text text-anchor="middle" x="820.5" y="-55.5" font-family="Helvetica,sans-Serif" font-size="10.00">::data</text>
</a>
</g>
</g>
<!-- Node13&#45;&gt;Node14 -->
<g id="edge15" class="edge"><title>Node13&#45;&gt;Node14</title>
<path fill="none" stroke="midnightblue" d="M673.448,-64.1922C701.025,-64.0615 732.963,-63.9101 759.926,-63.7823"/>
<polygon fill="midnightblue" stroke="midnightblue" points="673.095,-60.6937 663.112,-64.2412 673.129,-67.6936 673.095,-60.6937"/>
</g>
<!-- Node15 -->
<g id="node15" class="node"><title>Node15</title>
<g id="a_node15"><a xlink:href="class_transaction_table_model.html#aaaf3cea9a5373fff771ce81d2f26de6e" target="_top" xlink:title="TransactionTableModel\l::index">
<polygon fill="white" stroke="black" points="970.5,-45.5 970.5,-75.5 1091.5,-75.5 1091.5,-45.5 970.5,-45.5"/>
<text text-anchor="start" x="978.5" y="-63.5" font-family="Helvetica,sans-Serif" font-size="10.00">TransactionTableModel</text>
<text text-anchor="middle" x="1031" y="-52.5" font-family="Helvetica,sans-Serif" font-size="10.00">::index</text>
</a>
</g>
</g>
<!-- Node14&#45;&gt;Node15 -->
<g id="edge16" class="edge"><title>Node14&#45;&gt;Node15</title>
<path fill="none" stroke="midnightblue" d="M891.262,-62.4962C916.865,-62.1278 945.597,-61.7144 970.244,-61.3598"/>
<polygon fill="midnightblue" stroke="midnightblue" points="891.196,-58.9967 881.248,-62.6403 891.297,-65.996 891.196,-58.9967"/>
</g>
<!-- Node16 -->
<g id="node16" class="node"><title>Node16</title>
<g id="a_node16"><a xlink:href="class_transaction_table_model.html#a5899d9eda6465bfb16d2846b6459567e" target="_top" xlink:title="TransactionTableModel\l::updateConfirmations">
<polygon fill="white" stroke="black" points="1176,-0.5 1176,-30.5 1297,-30.5 1297,-0.5 1176,-0.5"/>
<text text-anchor="start" x="1184" y="-18.5" font-family="Helvetica,sans-Serif" font-size="10.00">TransactionTableModel</text>
<text text-anchor="middle" x="1236.5" y="-7.5" font-family="Helvetica,sans-Serif" font-size="10.00">::updateConfirmations</text>
</a>
</g>
</g>
<!-- Node15&#45;&gt;Node16 -->
<g id="edge17" class="edge"><title>Node15&#45;&gt;Node16</title>
<path fill="none" stroke="midnightblue" d="M1101.5,-45.132C1125.66,-39.7894 1152.52,-33.8485 1175.82,-28.6972"/>
<polygon fill="midnightblue" stroke="midnightblue" points="1100.69,-41.7259 1091.68,-47.3026 1102.2,-48.5608 1100.69,-41.7259"/>
</g>
<!-- Node19 -->
<g id="node19" class="node"><title>Node19</title>
<g id="a_node19"><a xlink:href="class_transaction_table_model.html#a8b73ff7d72ec2dd69790bc61bbe8575e" target="_top" xlink:title="TransactionTableModel\l::updateDisplayUnit">
<polygon fill="white" stroke="black" points="1176,-88.5 1176,-118.5 1297,-118.5 1297,-88.5 1176,-88.5"/>
<text text-anchor="start" x="1184" y="-106.5" font-family="Helvetica,sans-Serif" font-size="10.00">TransactionTableModel</text>
<text text-anchor="middle" x="1236.5" y="-95.5" font-family="Helvetica,sans-Serif" font-size="10.00">::updateDisplayUnit</text>
</a>
</g>
</g>
<!-- Node15&#45;&gt;Node19 -->
<g id="edge20" class="edge"><title>Node15&#45;&gt;Node19</title>
<path fill="none" stroke="midnightblue" d="M1101.5,-75.185C1125.66,-80.2901 1152.52,-85.967 1175.82,-90.8894"/>
<polygon fill="midnightblue" stroke="midnightblue" points="1102.19,-71.7539 1091.68,-73.1109 1100.74,-78.6027 1102.19,-71.7539"/>
</g>
<!-- Node21 -->
<g id="node21" class="node"><title>Node21</title>
<g id="a_node21"><a xlink:href="class_wallet_view.html#addde7d2260658ee06f47f9c095a8cb2a" target="_top" xlink:title="Show incoming transaction notification for new transactions. ">
<polygon fill="white" stroke="black" points="1147,-50 1147,-69 1326,-69 1326,-50 1147,-50"/>
<text text-anchor="middle" x="1236.5" y="-57" font-family="Helvetica,sans-Serif" font-size="10.00">WalletView::processNewTransaction</text>
</a>
</g>
</g>
<!-- Node15&#45;&gt;Node21 -->
<g id="edge22" class="edge"><title>Node15&#45;&gt;Node21</title>
<path fill="none" stroke="midnightblue" d="M1101.99,-60.1561C1116.4,-60.0853 1131.75,-60.0098 1146.72,-59.9362"/>
<polygon fill="midnightblue" stroke="midnightblue" points="1101.66,-56.6575 1091.68,-60.2067 1101.7,-63.6574 1101.66,-56.6575"/>
</g>
<!-- Node17 -->
<g id="node17" class="node"><title>Node17</title>
<g id="a_node17"><a xlink:href="class_wallet_model.html#a51469b2d95cfd4bc0a14ee456fca7b95" target="_top" xlink:title="WalletModel::pollBalance\lChanged">
<polygon fill="white" stroke="black" points="1367.5,-0.5 1367.5,-30.5 1496.5,-30.5 1496.5,-0.5 1367.5,-0.5"/>
<text text-anchor="start" x="1375.5" y="-18.5" font-family="Helvetica,sans-Serif" font-size="10.00">WalletModel::pollBalance</text>
<text text-anchor="middle" x="1432" y="-7.5" font-family="Helvetica,sans-Serif" font-size="10.00">Changed</text>
</a>
</g>
</g>
<!-- Node16&#45;&gt;Node17 -->
<g id="edge18" class="edge"><title>Node16&#45;&gt;Node17</title>
<path fill="none" stroke="midnightblue" d="M1307.21,-15.5C1326.79,-15.5 1347.98,-15.5 1367.2,-15.5"/>
<polygon fill="midnightblue" stroke="midnightblue" points="1307.14,-12.0001 1297.14,-15.5 1307.14,-19.0001 1307.14,-12.0001"/>
</g>
<!-- Node18 -->
<g id="node18" class="node"><title>Node18</title>
<g id="a_node18"><a xlink:href="class_wallet_model.html#af50d9654d2f20e4e4f0789dcb64ad6b1" target="_top" xlink:title="WalletModel::WalletModel">
<polygon fill="white" stroke="black" points="1538,-6 1538,-25 1670,-25 1670,-6 1538,-6"/>
<text text-anchor="middle" x="1604" y="-13" font-family="Helvetica,sans-Serif" font-size="10.00">WalletModel::WalletModel</text>
</a>
</g>
</g>
<!-- Node17&#45;&gt;Node18 -->
<g id="edge19" class="edge"><title>Node17&#45;&gt;Node18</title>
<path fill="none" stroke="midnightblue" d="M1506.94,-15.5C1517.18,-15.5 1527.65,-15.5 1537.72,-15.5"/>
<polygon fill="midnightblue" stroke="midnightblue" points="1506.79,-12.0001 1496.79,-15.5 1506.79,-19.0001 1506.79,-12.0001"/>
</g>
<!-- Node20 -->
<g id="node20" class="node"><title>Node20</title>
<g id="a_node20"><a xlink:href="class_transaction_table_model.html#a6c10b7cab9804eee6df9e049a978dc62" target="_top" xlink:title="TransactionTableModel\l::TransactionTableModel">
<polygon fill="white" stroke="black" points="1368.5,-88.5 1368.5,-118.5 1495.5,-118.5 1495.5,-88.5 1368.5,-88.5"/>
<text text-anchor="start" x="1376.5" y="-106.5" font-family="Helvetica,sans-Serif" font-size="10.00">TransactionTableModel</text>
<text text-anchor="middle" x="1432" y="-95.5" font-family="Helvetica,sans-Serif" font-size="10.00">::TransactionTableModel</text>
</a>
</g>
</g>
<!-- Node19&#45;&gt;Node20 -->
<g id="edge21" class="edge"><title>Node19&#45;&gt;Node20</title>
<path fill="none" stroke="midnightblue" d="M1307.36,-103.5C1327.25,-103.5 1348.78,-103.5 1368.21,-103.5"/>
<polygon fill="midnightblue" stroke="midnightblue" points="1307.14,-100 1297.14,-103.5 1307.14,-107 1307.14,-100"/>
</g>
<!-- Node22 -->
<g id="node22" class="node"><title>Node22</title>
<g id="a_node22"><a xlink:href="class_wallet_view.html#a0a37ff693a4f9c1e5ddc23f9cd3913be" target="_top" xlink:title="Set the wallet model. ">
<polygon fill="white" stroke="black" points="1362,-50 1362,-69 1502,-69 1502,-50 1362,-50"/>
<text text-anchor="middle" x="1432" y="-57" font-family="Helvetica,sans-Serif" font-size="10.00">WalletView::setWalletModel</text>
</a>
</g>
</g>
<!-- Node21&#45;&gt;Node22 -->
<g id="edge23" class="edge"><title>Node21&#45;&gt;Node22</title>
<path fill="none" stroke="midnightblue" d="M1336.22,-59.5C1344.9,-59.5 1353.56,-59.5 1361.92,-59.5"/>
<polygon fill="midnightblue" stroke="midnightblue" points="1336.04,-56.0001 1326.04,-59.5 1336.04,-63.0001 1336.04,-56.0001"/>
</g>
<!-- Node23 -->
<g id="node23" class="node"><title>Node23</title>
<g id="a_node23"><a xlink:href="class_wallet_frame.html#aa199c3f27654199d84c365cf86167d86" target="_top" xlink:title="WalletFrame::addWallet">
<polygon fill="white" stroke="black" points="1542.5,-50 1542.5,-69 1665.5,-69 1665.5,-50 1542.5,-50"/>
<text text-anchor="middle" x="1604" y="-57" font-family="Helvetica,sans-Serif" font-size="10.00">WalletFrame::addWallet</text>
</a>
</g>
</g>
<!-- Node22&#45;&gt;Node23 -->
<g id="edge24" class="edge"><title>Node22&#45;&gt;Node23</title>
<path fill="none" stroke="midnightblue" d="M1512.22,-59.5C1522.36,-59.5 1532.6,-59.5 1542.38,-59.5"/>
<polygon fill="midnightblue" stroke="midnightblue" points="1512.15,-56.0001 1502.15,-59.5 1512.15,-63.0001 1512.15,-56.0001"/>
</g>
</g>
</svg>
