<?xml version="1.0" encoding="UTF-8" standalone="no"?>
<!DOCTYPE svg PUBLIC "-//W3C//DTD SVG 1.1//EN"
 "http://www.w3.org/Graphics/SVG/1.1/DTD/svg11.dtd">
<!-- Generated by graphviz version 2.38.0 (20140413.2041)
 -->
<!-- Title: TransactionView::resizeEvent Pages: 1 -->
<svg width="1864pt" height="352pt"
 viewBox="0.00 0.00 1864.00 352.00" xmlns="http://www.w3.org/2000/svg" xmlns:xlink="http://www.w3.org/1999/xlink">
<g id="graph0" class="graph" transform="scale(1 1) rotate(0) translate(4 348)">
<title>TransactionView::resizeEvent</title>
<polygon fill="white" stroke="none" points="-4,4 -4,-348 1860,-348 1860,4 -4,4"/>
<!-- Node1 -->
<g id="node1" class="node"><title>Node1</title>
<polygon fill="#bfbfbf" stroke="black" points="0,-86.5 0,-105.5 148,-105.5 148,-86.5 0,-86.5"/>
<text text-anchor="middle" x="74" y="-93.5" font-family="Helvetica,sans-Serif" font-size="10.00">TransactionView::resizeEvent</text>
</g>
<!-- Node2 -->
<g id="node2" class="node"><title>Node2</title>
<g id="a_node2"><a xlink:href="class_g_u_i_util_1_1_table_view_last_column_resizing_fixer.html#a89971ed347cf9d25e02cfb7d9c7e3ca6" target="_top" xlink:title="GUIUtil::TableViewLastColumn\lResizingFixer::stretchColumnWidth">
<polygon fill="white" stroke="black" points="184,-81 184,-111 357,-111 357,-81 184,-81"/>
<text text-anchor="start" x="192" y="-99" font-family="Helvetica,sans-Serif" font-size="10.00">GUIUtil::TableViewLastColumn</text>
<text text-anchor="middle" x="270.5" y="-88" font-family="Helvetica,sans-Serif" font-size="10.00">ResizingFixer::stretchColumnWidth</text>
</a>
</g>
</g>
<!-- Node1&#45;&gt;Node2 -->
<g id="edge1" class="edge"><title>Node1&#45;&gt;Node2</title>
<path fill="none" stroke="midnightblue" d="M148.255,-96C156.614,-96 165.225,-96 173.82,-96"/>
<polygon fill="midnightblue" stroke="midnightblue" points="173.887,-99.5001 183.887,-96 173.886,-92.5001 173.887,-99.5001"/>
</g>
<!-- Node3 -->
<g id="node3" class="node"><title>Node3</title>
<g id="a_node3"><a xlink:href="class_g_u_i_util_1_1_table_view_last_column_resizing_fixer.html#ae36cd142d60656073928ba6bd05a6661" target="_top" xlink:title="GUIUtil::TableViewLastColumn\lResizingFixer::disconnectViewHeaders\lSignals">
<polygon fill="white" stroke="black" points="393,-134.5 393,-175.5 583,-175.5 583,-134.5 393,-134.5"/>
<text text-anchor="start" x="401" y="-163.5" font-family="Helvetica,sans-Serif" font-size="10.00">GUIUtil::TableViewLastColumn</text>
<text text-anchor="start" x="401" y="-152.5" font-family="Helvetica,sans-Serif" font-size="10.00">ResizingFixer::disconnectViewHeaders</text>
<text text-anchor="middle" x="488" y="-141.5" font-family="Helvetica,sans-Serif" font-size="10.00">Signals</text>
</a>
</g>
</g>
<!-- Node2&#45;&gt;Node3 -->
<g id="edge2" class="edge"><title>Node2&#45;&gt;Node3</title>
<path fill="none" stroke="midnightblue" d="M326.437,-111.041C349.437,-117.338 376.702,-124.802 402.174,-131.776"/>
<polygon fill="midnightblue" stroke="midnightblue" points="401.267,-135.157 411.837,-134.422 403.116,-128.405 401.267,-135.157"/>
</g>
<!-- Node6 -->
<g id="node6" class="node"><title>Node6</title>
<g id="a_node6"><a xlink:href="class_g_u_i_util_1_1_table_view_last_column_resizing_fixer.html#a284107daa657b2d34a196b886538c02c" target="_top" xlink:title="GUIUtil::TableViewLastColumn\lResizingFixer::resizeColumn">
<polygon fill="white" stroke="black" points="1499.5,-83 1499.5,-113 1653.5,-113 1653.5,-83 1499.5,-83"/>
<text text-anchor="start" x="1507.5" y="-101" font-family="Helvetica,sans-Serif" font-size="10.00">GUIUtil::TableViewLastColumn</text>
<text text-anchor="middle" x="1576.5" y="-90" font-family="Helvetica,sans-Serif" font-size="10.00">ResizingFixer::resizeColumn</text>
</a>
</g>
</g>
<!-- Node2&#45;&gt;Node6 -->
<g id="edge21" class="edge"><title>Node2&#45;&gt;Node6</title>
<path fill="none" stroke="midnightblue" d="M307.641,-80.9666C331.524,-71.5193 363.71,-59.7046 393,-52 527.471,-16.6281 562.455,-0 701.5,-0 701.5,-0 701.5,-0 1146.5,-0 1287.53,-0 1448.25,-50.9601 1526.92,-79.3846"/>
<polygon fill="midnightblue" stroke="midnightblue" points="1525.96,-82.7608 1536.55,-82.9023 1528.36,-76.1853 1525.96,-82.7608"/>
</g>
<!-- Node7 -->
<g id="node7" class="node"><title>Node7</title>
<g id="a_node7"><a xlink:href="class_g_u_i_util_1_1_table_view_last_column_resizing_fixer.html#ad0c6ff117107634ae8d37f056d27e711" target="_top" xlink:title="GUIUtil::TableViewLastColumn\lResizingFixer::getAvailableWidth\lForColumn">
<polygon fill="white" stroke="black" points="1495,-247.5 1495,-288.5 1658,-288.5 1658,-247.5 1495,-247.5"/>
<text text-anchor="start" x="1503" y="-276.5" font-family="Helvetica,sans-Serif" font-size="10.00">GUIUtil::TableViewLastColumn</text>
<text text-anchor="start" x="1503" y="-265.5" font-family="Helvetica,sans-Serif" font-size="10.00">ResizingFixer::getAvailableWidth</text>
<text text-anchor="middle" x="1576.5" y="-254.5" font-family="Helvetica,sans-Serif" font-size="10.00">ForColumn</text>
</a>
</g>
</g>
<!-- Node2&#45;&gt;Node7 -->
<g id="edge22" class="edge"><title>Node2&#45;&gt;Node7</title>
<path fill="none" stroke="midnightblue" d="M285.033,-111.14C334.732,-164.985 514.061,-344 701.5,-344 701.5,-344 701.5,-344 1146.5,-344 1269.1,-344 1408.42,-313.535 1494.15,-291.181"/>
<polygon fill="midnightblue" stroke="midnightblue" points="1495.3,-294.498 1504.08,-288.567 1493.51,-287.729 1495.3,-294.498"/>
</g>
<!-- Node9 -->
<g id="node9" class="node"><title>Node9</title>
<g id="a_node9"><a xlink:href="class_g_u_i_util_1_1_table_view_last_column_resizing_fixer.html#ab01fe3dbf021a9306ec74afda41d6f45" target="_top" xlink:title="GUIUtil::TableViewLastColumn\lResizingFixer::connectViewHeaders\lSignals">
<polygon fill="white" stroke="black" points="1057,-142.5 1057,-183.5 1234,-183.5 1234,-142.5 1057,-142.5"/>
<text text-anchor="start" x="1065" y="-171.5" font-family="Helvetica,sans-Serif" font-size="10.00">GUIUtil::TableViewLastColumn</text>
<text text-anchor="start" x="1065" y="-160.5" font-family="Helvetica,sans-Serif" font-size="10.00">ResizingFixer::connectViewHeaders</text>
<text text-anchor="middle" x="1145.5" y="-149.5" font-family="Helvetica,sans-Serif" font-size="10.00">Signals</text>
</a>
</g>
</g>
<!-- Node2&#45;&gt;Node9 -->
<g id="edge23" class="edge"><title>Node2&#45;&gt;Node9</title>
<path fill="none" stroke="midnightblue" d="M357.283,-83.0843C527.442,-58.8395 901.56,-12.7711 1021,-57 1062.54,-72.3834 1099.52,-108.681 1121.95,-134.507"/>
<polygon fill="midnightblue" stroke="midnightblue" points="1119.29,-136.787 1128.43,-142.151 1124.63,-132.26 1119.29,-136.787"/>
</g>
<!-- Node4 -->
<g id="node4" class="node"><title>Node4</title>
<g id="a_node4"><a xlink:href="class_g_u_i_util_1_1_table_view_last_column_resizing_fixer.html#a31422ff98c30c95c01dba5bbb8ccbcae" target="_top" xlink:title="GUIUtil::TableViewLastColumn\lResizingFixer::on_sectionResized">
<polygon fill="white" stroke="black" points="619,-140 619,-170 786,-170 786,-140 619,-140"/>
<text text-anchor="start" x="627" y="-158" font-family="Helvetica,sans-Serif" font-size="10.00">GUIUtil::TableViewLastColumn</text>
<text text-anchor="middle" x="702.5" y="-147" font-family="Helvetica,sans-Serif" font-size="10.00">ResizingFixer::on_sectionResized</text>
</a>
</g>
</g>
<!-- Node3&#45;&gt;Node4 -->
<g id="edge3" class="edge"><title>Node3&#45;&gt;Node4</title>
<path fill="none" stroke="midnightblue" d="M583.134,-155C591.579,-155 600.127,-155 608.562,-155"/>
<polygon fill="midnightblue" stroke="midnightblue" points="608.779,-158.5 618.779,-155 608.779,-151.5 608.779,-158.5"/>
</g>
<!-- Node10 -->
<g id="node10" class="node"><title>Node10</title>
<g id="a_node10"><a xlink:href="class_g_u_i_util_1_1_table_view_last_column_resizing_fixer.html#a93f3b32cf06688099875a1c9d2df57f2" target="_top" xlink:title="GUIUtil::TableViewLastColumn\lResizingFixer::on_geometriesChanged">
<polygon fill="white" stroke="black" points="1270,-176 1270,-206 1459,-206 1459,-176 1270,-176"/>
<text text-anchor="start" x="1278" y="-194" font-family="Helvetica,sans-Serif" font-size="10.00">GUIUtil::TableViewLastColumn</text>
<text text-anchor="middle" x="1364.5" y="-183" font-family="Helvetica,sans-Serif" font-size="10.00">ResizingFixer::on_geometriesChanged</text>
</a>
</g>
</g>
<!-- Node3&#45;&gt;Node10 -->
<g id="edge20" class="edge"><title>Node3&#45;&gt;Node10</title>
<path fill="none" stroke="midnightblue" d="M583.189,-165.183C595.202,-167.041 607.362,-168.747 619,-170 846.496,-194.494 1115.31,-190.854 1259.56,-189.249"/>
<polygon fill="midnightblue" stroke="midnightblue" points="1259.77,-192.747 1269.73,-189.138 1259.69,-185.748 1259.77,-192.747"/>
</g>
<!-- Node5 -->
<g id="node5" class="node"><title>Node5</title>
<g id="a_node5"><a xlink:href="class_g_u_i_util_1_1_table_view_last_column_resizing_fixer.html#ac5622cca5767d788033fff5d54629d7f" target="_top" xlink:title="GUIUtil::TableViewLastColumn\lResizingFixer::adjustTableColumnsWidth">
<polygon fill="white" stroke="black" points="822,-67 822,-97 1021,-97 1021,-67 822,-67"/>
<text text-anchor="start" x="830" y="-85" font-family="Helvetica,sans-Serif" font-size="10.00">GUIUtil::TableViewLastColumn</text>
<text text-anchor="middle" x="921.5" y="-74" font-family="Helvetica,sans-Serif" font-size="10.00">ResizingFixer::adjustTableColumnsWidth</text>
</a>
</g>
</g>
<!-- Node4&#45;&gt;Node5 -->
<g id="edge4" class="edge"><title>Node4&#45;&gt;Node5</title>
<path fill="none" stroke="midnightblue" d="M743.359,-139.946C766.263,-131.444 795.633,-120.793 822,-112 834.043,-107.984 846.984,-103.888 859.399,-100.064"/>
<polygon fill="midnightblue" stroke="midnightblue" points="860.675,-103.334 869.215,-97.0635 858.629,-96.64 860.675,-103.334"/>
</g>
<!-- Node4&#45;&gt;Node6 -->
<g id="edge19" class="edge"><title>Node4&#45;&gt;Node6</title>
<path fill="none" stroke="midnightblue" d="M786.322,-149.586C951.719,-138.775 1321.43,-114.608 1489.45,-103.625"/>
<polygon fill="midnightblue" stroke="midnightblue" points="1489.74,-107.114 1499.49,-102.969 1489.28,-100.128 1489.74,-107.114"/>
</g>
<!-- Node4&#45;&gt;Node7 -->
<g id="edge18" class="edge"><title>Node4&#45;&gt;Node7</title>
<path fill="none" stroke="midnightblue" d="M768.204,-170.066C838.994,-186.407 955.874,-212.972 1057,-234 1151.39,-253.626 1174.03,-265.848 1270,-275 1353.62,-282.975 1375.04,-277.52 1459,-275 1467.37,-274.749 1476.07,-274.396 1484.79,-273.982"/>
<polygon fill="midnightblue" stroke="midnightblue" points="1485.18,-277.466 1495,-273.469 1484.83,-270.475 1485.18,-277.466"/>
</g>
<!-- Node5&#45;&gt;Node3 -->
<g id="edge5" class="edge"><title>Node5&#45;&gt;Node3</title>
<path fill="none" stroke="midnightblue" d="M821.921,-96.8769C762.963,-105.978 686.603,-118.122 619,-130 610.53,-131.488 601.759,-133.076 592.955,-134.701"/>
<polygon fill="midnightblue" stroke="midnightblue" points="592.208,-131.28 583.016,-136.55 593.488,-138.162 592.208,-131.28"/>
</g>
<!-- Node5&#45;&gt;Node6 -->
<g id="edge6" class="edge"><title>Node5&#45;&gt;Node6</title>
<path fill="none" stroke="midnightblue" d="M1021.32,-84.4214C1148.64,-87.5409 1367.93,-92.9141 1488.97,-95.8799"/>
<polygon fill="midnightblue" stroke="midnightblue" points="1489.22,-99.3869 1499.3,-96.133 1489.39,-92.389 1489.22,-99.3869"/>
</g>
<!-- Node5&#45;&gt;Node7 -->
<g id="edge7" class="edge"><title>Node5&#45;&gt;Node7</title>
<path fill="none" stroke="midnightblue" d="M935.62,-97.2454C957.839,-121.936 1005.51,-170.202 1057,-193 1197.39,-255.158 1378.08,-267.953 1484.88,-269.458"/>
<polygon fill="midnightblue" stroke="midnightblue" points="1484.94,-272.958 1494.98,-269.569 1485.02,-265.959 1484.94,-272.958"/>
</g>
<!-- Node8 -->
<g id="node8" class="node"><title>Node8</title>
<g id="a_node8"><a xlink:href="class_g_u_i_util_1_1_table_view_last_column_resizing_fixer.html#a9abbf570cbaad95acfd772ddf712cbbb" target="_top" xlink:title="GUIUtil::TableViewLastColumn\lResizingFixer::getColumnsWidth">
<polygon fill="white" stroke="black" points="1694,-176 1694,-206 1856,-206 1856,-176 1694,-176"/>
<text text-anchor="start" x="1702" y="-194" font-family="Helvetica,sans-Serif" font-size="10.00">GUIUtil::TableViewLastColumn</text>
<text text-anchor="middle" x="1775" y="-183" font-family="Helvetica,sans-Serif" font-size="10.00">ResizingFixer::getColumnsWidth</text>
</a>
</g>
</g>
<!-- Node5&#45;&gt;Node8 -->
<g id="edge17" class="edge"><title>Node5&#45;&gt;Node8</title>
<path fill="none" stroke="midnightblue" d="M977.924,-66.9562C1104.46,-35.5983 1421.87,25.9921 1658,-73 1703.42,-92.042 1740.03,-138.503 1759.26,-167.117"/>
<polygon fill="midnightblue" stroke="midnightblue" points="1756.48,-169.265 1764.88,-175.723 1762.34,-165.436 1756.48,-169.265"/>
</g>
<!-- Node5&#45;&gt;Node9 -->
<g id="edge9" class="edge"><title>Node5&#45;&gt;Node9</title>
<path fill="none" stroke="midnightblue" d="M963.736,-97.0456C995.851,-108.763 1041.07,-125.261 1078.24,-138.825"/>
<polygon fill="midnightblue" stroke="midnightblue" points="1077.41,-142.246 1088,-142.386 1079.81,-135.67 1077.41,-142.246"/>
</g>
<!-- Node7&#45;&gt;Node8 -->
<g id="edge8" class="edge"><title>Node7&#45;&gt;Node8</title>
<path fill="none" stroke="midnightblue" d="M1629.9,-247.467C1659.73,-235.779 1696.82,-221.244 1725.9,-209.847"/>
<polygon fill="midnightblue" stroke="midnightblue" points="1727.4,-213.019 1735.44,-206.112 1724.85,-206.501 1727.4,-213.019"/>
</g>
<!-- Node9&#45;&gt;Node4 -->
<g id="edge10" class="edge"><title>Node9&#45;&gt;Node4</title>
<path fill="none" stroke="midnightblue" d="M1056.91,-161.411C981.562,-160.044 873.179,-158.078 796.343,-156.684"/>
<polygon fill="midnightblue" stroke="midnightblue" points="796.252,-153.182 786.19,-156.5 796.125,-160.181 796.252,-153.182"/>
</g>
<!-- Node9&#45;&gt;Node10 -->
<g id="edge11" class="edge"><title>Node9&#45;&gt;Node10</title>
<path fill="none" stroke="midnightblue" d="M1234.14,-167.67C1251.18,-169.684 1268.94,-172.02 1285.65,-174.45"/>
<polygon fill="midnightblue" stroke="midnightblue" points="1285.49,-177.965 1295.9,-175.973 1286.52,-171.041 1285.49,-177.965"/>
</g>
<!-- Node10&#45;&gt;Node3 -->
<g id="edge13" class="edge"><title>Node10&#45;&gt;Node3</title>
<path fill="none" stroke="midnightblue" d="M1269.73,-200.749C1128.24,-208.663 851.956,-213.082 619,-188 597.919,-185.73 575.124,-181.973 554.596,-177.675"/>
<polygon fill="midnightblue" stroke="midnightblue" points="555.235,-174.232 544.719,-175.526 553.746,-181.072 555.235,-174.232"/>
</g>
<!-- Node10&#45;&gt;Node6 -->
<g id="edge14" class="edge"><title>Node10&#45;&gt;Node6</title>
<path fill="none" stroke="midnightblue" d="M1399.71,-175.851C1435.71,-159.908 1492.49,-134.762 1531.73,-117.383"/>
<polygon fill="midnightblue" stroke="midnightblue" points="1533.58,-120.392 1541.31,-113.143 1530.75,-113.992 1533.58,-120.392"/>
</g>
<!-- Node10&#45;&gt;Node7 -->
<g id="edge15" class="edge"><title>Node10&#45;&gt;Node7</title>
<path fill="none" stroke="midnightblue" d="M1406.49,-206.029C1435.82,-216.784 1475.93,-231.491 1509.72,-243.879"/>
<polygon fill="midnightblue" stroke="midnightblue" points="1508.93,-247.317 1519.52,-247.474 1511.34,-240.745 1508.93,-247.317"/>
</g>
<!-- Node10&#45;&gt;Node8 -->
<g id="edge12" class="edge"><title>Node10&#45;&gt;Node8</title>
<path fill="none" stroke="midnightblue" d="M1459.22,-191C1526.66,-191 1617.1,-191 1683.74,-191"/>
<polygon fill="midnightblue" stroke="midnightblue" points="1683.81,-194.5 1693.81,-191 1683.81,-187.5 1683.81,-194.5"/>
</g>
<!-- Node10&#45;&gt;Node9 -->
<g id="edge16" class="edge"><title>Node10&#45;&gt;Node9</title>
<path fill="none" stroke="midnightblue" d="M1269.86,-185.611C1261.34,-184.577 1252.69,-183.469 1244.13,-182.317"/>
<polygon fill="midnightblue" stroke="midnightblue" points="1244.52,-178.838 1234.14,-180.946 1243.57,-185.773 1244.52,-178.838"/>
</g>
</g>
</svg>
