<?xml version="1.0" encoding="UTF-8" standalone="no"?>
<!DOCTYPE svg PUBLIC "-//W3C//DTD SVG 1.1//EN"
 "http://www.w3.org/Graphics/SVG/1.1/DTD/svg11.dtd">
<!-- Generated by graphviz version 2.38.0 (20140413.2041)
 -->
<!-- Title: Ui_AddressBookPage::setupUi Pages: 1 -->
<svg width="300pt" height="39pt"
 viewBox="0.00 0.00 300.00 39.00" xmlns="http://www.w3.org/2000/svg" xmlns:xlink="http://www.w3.org/1999/xlink">
<g id="graph0" class="graph" transform="scale(1 1) rotate(0) translate(4 35)">
<title>Ui_AddressBookPage::setupUi</title>
<polygon fill="white" stroke="none" points="-4,4 -4,-35 296,-35 296,4 -4,4"/>
<!-- Node1 -->
<g id="node1" class="node"><title>Node1</title>
<polygon fill="#bfbfbf" stroke="black" points="0,-0.5 0,-30.5 114,-30.5 114,-0.5 0,-0.5"/>
<text text-anchor="start" x="8" y="-18.5" font-family="Helvetica,sans-Serif" font-size="10.00">Ui_AddressBookPage</text>
<text text-anchor="middle" x="57" y="-7.5" font-family="Helvetica,sans-Serif" font-size="10.00">::setupUi</text>
</g>
<!-- Node2 -->
<g id="node2" class="node"><title>Node2</title>
<g id="a_node2"><a xlink:href="class_address_book_page.html#a493ad5adf2b6064b97bc2ba6eb41587e" target="_top" xlink:title="AddressBookPage::Address\lBookPage">
<polygon fill="white" stroke="black" points="150,-0.5 150,-30.5 292,-30.5 292,-0.5 150,-0.5"/>
<text text-anchor="start" x="158" y="-18.5" font-family="Helvetica,sans-Serif" font-size="10.00">AddressBookPage::Address</text>
<text text-anchor="middle" x="221" y="-7.5" font-family="Helvetica,sans-Serif" font-size="10.00">BookPage</text>
</a>
</g>
</g>
<!-- Node1&#45;&gt;Node2 -->
<g id="edge1" class="edge"><title>Node1&#45;&gt;Node2</title>
<path fill="none" stroke="midnightblue" d="M124.35,-15.5C132.777,-15.5 141.423,-15.5 149.907,-15.5"/>
<polygon fill="midnightblue" stroke="midnightblue" points="124.205,-12.0001 114.205,-15.5 124.205,-19.0001 124.205,-12.0001"/>
</g>
</g>
</svg>
