<?xml version="1.0" encoding="UTF-8" standalone="no"?>
<!DOCTYPE svg PUBLIC "-//W3C//DTD SVG 1.1//EN"
 "http://www.w3.org/Graphics/SVG/1.1/DTD/svg11.dtd">
<!-- Generated by graphviz version 2.38.0 (20140413.2041)
 -->
<!-- Title: AnoncoinApplication::startThread Pages: 1 -->
<svg width="1271pt" height="1200pt"
 viewBox="0.00 0.00 1271.00 1200.00" xmlns="http://www.w3.org/2000/svg" xmlns:xlink="http://www.w3.org/1999/xlink">
<g id="graph0" class="graph" transform="scale(1 1) rotate(0) translate(4 1196)">
<title>AnoncoinApplication::startThread</title>
<polygon fill="white" stroke="none" points="-4,4 -4,-1196 1267,-1196 1267,4 -4,4"/>
<!-- Node1 -->
<g id="node1" class="node"><title>Node1</title>
<polygon fill="#bfbfbf" stroke="black" points="0,-716 0,-746 107,-746 107,-716 0,-716"/>
<text text-anchor="start" x="8" y="-734" font-family="Helvetica,sans-Serif" font-size="10.00">AnoncoinApplication</text>
<text text-anchor="middle" x="53.5" y="-723" font-family="Helvetica,sans-Serif" font-size="10.00">::startThread</text>
</g>
<!-- Node2 -->
<g id="node2" class="node"><title>Node2</title>
<g id="a_node2"><a xlink:href="class_anoncoin_application.html#a565d432edd9d4fc30ce60bfd8d5699e3" target="_top" xlink:title="AnoncoinApplication\l::initializeResult">
<polygon fill="white" stroke="black" points="158.5,-765 158.5,-795 265.5,-795 265.5,-765 158.5,-765"/>
<text text-anchor="start" x="166.5" y="-783" font-family="Helvetica,sans-Serif" font-size="10.00">AnoncoinApplication</text>
<text text-anchor="middle" x="212" y="-772" font-family="Helvetica,sans-Serif" font-size="10.00">::initializeResult</text>
</a>
</g>
</g>
<!-- Node1&#45;&gt;Node2 -->
<g id="edge1" class="edge"><title>Node1&#45;&gt;Node2</title>
<path fill="none" stroke="midnightblue" d="M102.732,-746.101C118.723,-751.108 136.686,-756.732 153.315,-761.939"/>
<polygon fill="midnightblue" stroke="midnightblue" points="152.338,-765.301 162.927,-764.948 154.43,-758.62 152.338,-765.301"/>
</g>
<!-- Node49 -->
<g id="node49" class="node"><title>Node49</title>
<g id="a_node49"><a xlink:href="class_anoncoin_application.html#a9de56b3ab0e2e04334f2a867cc9ab438" target="_top" xlink:title="AnoncoinApplication\l::shutdownResult">
<polygon fill="white" stroke="black" points="158.5,-716 158.5,-746 265.5,-746 265.5,-716 158.5,-716"/>
<text text-anchor="start" x="166.5" y="-734" font-family="Helvetica,sans-Serif" font-size="10.00">AnoncoinApplication</text>
<text text-anchor="middle" x="212" y="-723" font-family="Helvetica,sans-Serif" font-size="10.00">::shutdownResult</text>
</a>
</g>
</g>
<!-- Node1&#45;&gt;Node49 -->
<g id="edge60" class="edge"><title>Node1&#45;&gt;Node49</title>
<path fill="none" stroke="midnightblue" d="M107.048,-731C120.209,-731 134.462,-731 148.072,-731"/>
<polygon fill="midnightblue" stroke="midnightblue" points="148.325,-734.5 158.325,-731 148.325,-727.5 148.325,-734.5"/>
</g>
<!-- Node50 -->
<g id="node50" class="node"><title>Node50</title>
<g id="a_node50"><a xlink:href="class_anoncoin_application.html#a30ced094a4342baf2ff8eab0a2e1d073" target="_top" xlink:title="Handle runaway exceptions. Shows a message box with the problem and quits the program. ">
<polygon fill="white" stroke="black" points="143,-667 143,-697 281,-697 281,-667 143,-667"/>
<text text-anchor="start" x="151" y="-685" font-family="Helvetica,sans-Serif" font-size="10.00">AnoncoinApplication</text>
<text text-anchor="middle" x="212" y="-674" font-family="Helvetica,sans-Serif" font-size="10.00">::handleRunawayException</text>
</a>
</g>
</g>
<!-- Node1&#45;&gt;Node50 -->
<g id="edge61" class="edge"><title>Node1&#45;&gt;Node50</title>
<path fill="none" stroke="midnightblue" d="M102.732,-715.899C118.723,-710.892 136.686,-705.268 153.315,-700.061"/>
<polygon fill="midnightblue" stroke="midnightblue" points="154.43,-703.38 162.927,-697.052 152.338,-696.699 154.43,-703.38"/>
</g>
<!-- Node3 -->
<g id="node3" class="node"><title>Node3</title>
<g id="a_node3"><a xlink:href="class_payment_server.html#a7371f1dd4896d83274f8784b42f288eb" target="_top" xlink:title="PaymentServer::LoadRootCAs">
<polygon fill="white" stroke="black" points="317,-1134.5 317,-1153.5 470,-1153.5 470,-1134.5 317,-1134.5"/>
<text text-anchor="middle" x="393.5" y="-1141.5" font-family="Helvetica,sans-Serif" font-size="10.00">PaymentServer::LoadRootCAs</text>
</a>
</g>
</g>
<!-- Node2&#45;&gt;Node3 -->
<g id="edge2" class="edge"><title>Node2&#45;&gt;Node3</title>
<path fill="none" stroke="midnightblue" d="M220.484,-795.177C249.082,-853.169 351.43,-1060.72 383.095,-1124.93"/>
<polygon fill="midnightblue" stroke="midnightblue" points="380.139,-1126.85 387.701,-1134.27 386.418,-1123.75 380.139,-1126.85"/>
</g>
<!-- Node6 -->
<g id="node6" class="node"><title>Node6</title>
<g id="a_node6"><a xlink:href="class_anoncoin_g_u_i.html#ab6dbbc9dae6aee55656d615c1aff5399" target="_top" xlink:title="Set the client model. ">
<polygon fill="white" stroke="black" points="319.5,-770.5 319.5,-789.5 467.5,-789.5 467.5,-770.5 319.5,-770.5"/>
<text text-anchor="middle" x="393.5" y="-777.5" font-family="Helvetica,sans-Serif" font-size="10.00">AnoncoinGUI::setClientModel</text>
</a>
</g>
</g>
<!-- Node2&#45;&gt;Node6 -->
<g id="edge5" class="edge"><title>Node2&#45;&gt;Node6</title>
<path fill="none" stroke="midnightblue" d="M265.885,-780C279.497,-780 294.478,-780 309.225,-780"/>
<polygon fill="midnightblue" stroke="midnightblue" points="309.377,-783.5 319.377,-780 309.377,-776.5 309.377,-783.5"/>
</g>
<!-- Node47 -->
<g id="node47" class="node"><title>Node47</title>
<g id="a_node47"><a xlink:href="util_8cpp.html#a64d956f1dda7f9a80ab5d594532b906d" target="_top" xlink:title="Return boolean argument or default value. ">
<polygon fill="white" stroke="black" points="359.5,-533.5 359.5,-552.5 427.5,-552.5 427.5,-533.5 359.5,-533.5"/>
<text text-anchor="middle" x="393.5" y="-540.5" font-family="Helvetica,sans-Serif" font-size="10.00">GetBoolArg</text>
</a>
</g>
</g>
<!-- Node2&#45;&gt;Node47 -->
<g id="edge58" class="edge"><title>Node2&#45;&gt;Node47</title>
<path fill="none" stroke="midnightblue" d="M265.73,-766.008C271.229,-763.238 276.458,-759.935 281,-756 343.551,-701.808 376.096,-603.783 387.591,-562.336"/>
<polygon fill="midnightblue" stroke="midnightblue" points="390.979,-563.216 390.175,-552.652 384.215,-561.411 390.979,-563.216"/>
</g>
<!-- Node4 -->
<g id="node4" class="node"><title>Node4</title>
<g id="a_node4"><a xlink:href="class_payment_server.html#af11d0f7f06d94bc3b713ee6fac9af921" target="_top" xlink:title="PaymentServer::freeCertStore">
<polygon fill="white" stroke="black" points="517,-1172.5 517,-1191.5 668,-1191.5 668,-1172.5 517,-1172.5"/>
<text text-anchor="middle" x="592.5" y="-1179.5" font-family="Helvetica,sans-Serif" font-size="10.00">PaymentServer::freeCertStore</text>
</a>
</g>
</g>
<!-- Node3&#45;&gt;Node4 -->
<g id="edge3" class="edge"><title>Node3&#45;&gt;Node4</title>
<path fill="none" stroke="midnightblue" d="M443.957,-1153.54C470.654,-1158.69 503.804,-1165.08 531.915,-1170.51"/>
<polygon fill="midnightblue" stroke="midnightblue" points="531.541,-1174 542.023,-1172.46 532.866,-1167.13 531.541,-1174"/>
</g>
<!-- Node5 -->
<g id="node5" class="node"><title>Node5</title>
<g id="a_node5"><a xlink:href="util_8cpp.html#a24f685720bf40370e5bd2a192ad50cd8" target="_top" xlink:title="Return string argument or default value. ">
<polygon fill="white" stroke="black" points="568.5,-1134.5 568.5,-1153.5 616.5,-1153.5 616.5,-1134.5 568.5,-1134.5"/>
<text text-anchor="middle" x="592.5" y="-1141.5" font-family="Helvetica,sans-Serif" font-size="10.00">GetArg</text>
</a>
</g>
</g>
<!-- Node3&#45;&gt;Node5 -->
<g id="edge4" class="edge"><title>Node3&#45;&gt;Node5</title>
<path fill="none" stroke="midnightblue" d="M470.102,-1144C500.537,-1144 534.06,-1144 558.153,-1144"/>
<polygon fill="midnightblue" stroke="midnightblue" points="558.189,-1147.5 568.189,-1144 558.189,-1140.5 558.189,-1147.5"/>
</g>
<!-- Node7 -->
<g id="node7" class="node"><title>Node7</title>
<g id="a_node7"><a xlink:href="class_anoncoin_g_u_i.html#a8e42c1b5f78aeab21118e07265874abe" target="_top" xlink:title="Create system tray menu (or setup the dock menu) ">
<polygon fill="white" stroke="black" points="506,-962.5 506,-981.5 679,-981.5 679,-962.5 506,-962.5"/>
<text text-anchor="middle" x="592.5" y="-969.5" font-family="Helvetica,sans-Serif" font-size="10.00">AnoncoinGUI::createTrayIconMenu</text>
</a>
</g>
</g>
<!-- Node6&#45;&gt;Node7 -->
<g id="edge6" class="edge"><title>Node6&#45;&gt;Node7</title>
<path fill="none" stroke="midnightblue" d="M404.269,-789.521C435.713,-820.167 534.563,-916.508 574.506,-955.437"/>
<polygon fill="midnightblue" stroke="midnightblue" points="572.068,-957.948 581.672,-962.421 576.953,-952.935 572.068,-957.948"/>
</g>
<!-- Node13 -->
<g id="node13" class="node"><title>Node13</title>
<g id="a_node13"><a xlink:href="class_anoncoin_g_u_i.html#a6966c734e76c020c4b9df350854e726f" target="_top" xlink:title="Set number of connections shown in the UI. ">
<polygon fill="white" stroke="black" points="506.5,-827.5 506.5,-846.5 678.5,-846.5 678.5,-827.5 506.5,-827.5"/>
<text text-anchor="middle" x="592.5" y="-834.5" font-family="Helvetica,sans-Serif" font-size="10.00">AnoncoinGUI::setNumConnections</text>
</a>
</g>
</g>
<!-- Node6&#45;&gt;Node13 -->
<g id="edge13" class="edge"><title>Node6&#45;&gt;Node13</title>
<path fill="none" stroke="midnightblue" d="M419.935,-789.561C442.374,-797.78 476.071,-809.602 506,-818 515.127,-820.561 524.88,-823.002 534.412,-825.228"/>
<polygon fill="midnightblue" stroke="midnightblue" points="533.702,-828.656 544.23,-827.468 535.258,-821.832 533.702,-828.656"/>
</g>
<!-- Node14 -->
<g id="node14" class="node"><title>Node14</title>
<g id="a_node14"><a xlink:href="class_client_model.html#ab893445b458943e3112770b026195067" target="_top" xlink:title="Return number of connections, default is in&#45; and outbound (total) ">
<polygon fill="white" stroke="black" points="921,-549.5 921,-568.5 1086,-568.5 1086,-549.5 921,-549.5"/>
<text text-anchor="middle" x="1003.5" y="-556.5" font-family="Helvetica,sans-Serif" font-size="10.00">ClientModel::getNumConnections</text>
</a>
</g>
</g>
<!-- Node6&#45;&gt;Node14 -->
<g id="edge14" class="edge"><title>Node6&#45;&gt;Node14</title>
<path fill="none" stroke="midnightblue" d="M401.821,-770.432C418.264,-749.55 460.277,-699.486 506,-671 631.567,-592.769 805.254,-568.96 910.413,-561.85"/>
<polygon fill="midnightblue" stroke="midnightblue" points="910.93,-565.324 920.686,-561.193 910.483,-558.338 910.93,-565.324"/>
</g>
<!-- Node15 -->
<g id="node15" class="node"><title>Node15</title>
<g id="a_node15"><a xlink:href="class_anoncoin_g_u_i.html#a65993507b442bd334614ea6eb46dec91" target="_top" xlink:title="Set number of blocks shown in the UI. ">
<polygon fill="white" stroke="black" points="520,-789.5 520,-808.5 665,-808.5 665,-789.5 520,-789.5"/>
<text text-anchor="middle" x="592.5" y="-796.5" font-family="Helvetica,sans-Serif" font-size="10.00">AnoncoinGUI::setNumBlocks</text>
</a>
</g>
</g>
<!-- Node6&#45;&gt;Node15 -->
<g id="edge15" class="edge"><title>Node6&#45;&gt;Node15</title>
<path fill="none" stroke="midnightblue" d="M467.576,-787.048C481.321,-788.374 495.776,-789.768 509.766,-791.117"/>
<polygon fill="midnightblue" stroke="midnightblue" points="509.564,-794.614 519.854,-792.09 510.236,-787.646 509.564,-794.614"/>
</g>
<!-- Node23 -->
<g id="node23" class="node"><title>Node23</title>
<g id="a_node23"><a xlink:href="class_client_model.html#a9c298b0c2eb9c8e9ff18c6ff37725b0a" target="_top" xlink:title="ClientModel::getNumBlocks">
<polygon fill="white" stroke="black" points="730.5,-644.5 730.5,-663.5 869.5,-663.5 869.5,-644.5 730.5,-644.5"/>
<text text-anchor="middle" x="800" y="-651.5" font-family="Helvetica,sans-Serif" font-size="10.00">ClientModel::getNumBlocks</text>
</a>
</g>
</g>
<!-- Node6&#45;&gt;Node23 -->
<g id="edge25" class="edge"><title>Node6&#45;&gt;Node23</title>
<path fill="none" stroke="midnightblue" d="M410.198,-770.431C431.296,-757.935 470.286,-736.115 506,-723 580.546,-695.626 669.831,-676.437 730.09,-665.362"/>
<polygon fill="midnightblue" stroke="midnightblue" points="731.033,-668.749 740.249,-663.522 729.785,-661.861 731.033,-668.749"/>
</g>
<!-- Node25 -->
<g id="node25" class="node"><title>Node25</title>
<g id="a_node25"><a xlink:href="class_anoncoin_g_u_i.html#acad2df2e1c6e25865af8d8cd2f70960b" target="_top" xlink:title="Notify the user of an event from the core network or transaction handling code. ">
<polygon fill="white" stroke="black" points="531.5,-732.5 531.5,-751.5 653.5,-751.5 653.5,-732.5 531.5,-732.5"/>
<text text-anchor="middle" x="592.5" y="-739.5" font-family="Helvetica,sans-Serif" font-size="10.00">AnoncoinGUI::message</text>
</a>
</g>
</g>
<!-- Node6&#45;&gt;Node25 -->
<g id="edge27" class="edge"><title>Node6&#45;&gt;Node25</title>
<path fill="none" stroke="midnightblue" d="M443.957,-770.46C470.654,-765.31 503.804,-758.916 531.915,-753.494"/>
<polygon fill="midnightblue" stroke="midnightblue" points="532.866,-756.875 542.023,-751.544 531.541,-750.001 532.866,-756.875"/>
</g>
<!-- Node28 -->
<g id="node28" class="node"><title>Node28</title>
<g id="a_node28"><a xlink:href="class_r_p_c_console.html#a355349a33664a07628e9ca22a60f5fa7" target="_top" xlink:title="RPCConsole::setClientModel">
<polygon fill="white" stroke="black" points="519.5,-372.5 519.5,-391.5 665.5,-391.5 665.5,-372.5 519.5,-372.5"/>
<text text-anchor="middle" x="592.5" y="-379.5" font-family="Helvetica,sans-Serif" font-size="10.00">RPCConsole::setClientModel</text>
</a>
</g>
</g>
<!-- Node6&#45;&gt;Node28 -->
<g id="edge30" class="edge"><title>Node6&#45;&gt;Node28</title>
<path fill="none" stroke="midnightblue" d="M399.37,-770.162C425.291,-717.793 547.19,-471.52 582.123,-400.945"/>
<polygon fill="midnightblue" stroke="midnightblue" points="585.325,-402.366 586.624,-391.851 579.051,-399.26 585.325,-402.366"/>
</g>
<!-- Node42 -->
<g id="node42" class="node"><title>Node42</title>
<g id="a_node42"><a xlink:href="class_wallet_frame.html#a72f3a61b1d882a894c65fbf1adc1a954" target="_top" xlink:title="WalletFrame::setClientModel">
<polygon fill="white" stroke="black" points="520,-334.5 520,-353.5 665,-353.5 665,-334.5 520,-334.5"/>
<text text-anchor="middle" x="592.5" y="-341.5" font-family="Helvetica,sans-Serif" font-size="10.00">WalletFrame::setClientModel</text>
</a>
</g>
</g>
<!-- Node6&#45;&gt;Node42 -->
<g id="edge53" class="edge"><title>Node6&#45;&gt;Node42</title>
<path fill="none" stroke="midnightblue" d="M398.518,-770.173C410.827,-739.738 448.484,-644.141 470,-562 492.775,-475.053 443.719,-427.804 506,-363 507.627,-361.308 509.368,-359.75 511.204,-358.318"/>
<polygon fill="midnightblue" stroke="midnightblue" points="513.273,-361.149 519.803,-352.805 509.495,-355.256 513.273,-361.149"/>
</g>
<!-- Node43 -->
<g id="node43" class="node"><title>Node43</title>
<g id="a_node43"><a xlink:href="class_unit_display_status_bar_control.html#ac8d2a43f66f3f71c7d6926dbd5927066" target="_top" xlink:title="Lets the control know about the Options Model (and its signals) ">
<polygon fill="white" stroke="black" points="521,-1085 521,-1115 664,-1115 664,-1085 521,-1085"/>
<text text-anchor="start" x="529" y="-1103" font-family="Helvetica,sans-Serif" font-size="10.00">UnitDisplayStatusBarControl</text>
<text text-anchor="middle" x="592.5" y="-1092" font-family="Helvetica,sans-Serif" font-size="10.00">::setOptionsModel</text>
</a>
</g>
</g>
<!-- Node6&#45;&gt;Node43 -->
<g id="edge54" class="edge"><title>Node6&#45;&gt;Node43</title>
<path fill="none" stroke="midnightblue" d="M397.147,-789.876C406.947,-825.146 443.846,-947.139 506,-1029 520.84,-1048.54 542.038,-1066.19 559.614,-1079.01"/>
<polygon fill="midnightblue" stroke="midnightblue" points="557.728,-1081.96 567.908,-1084.9 561.781,-1076.25 557.728,-1081.96"/>
</g>
<!-- Node46 -->
<g id="node46" class="node"><title>Node46</title>
<g id="a_node46"><a xlink:href="class_client_model.html#ae8da1e2eabfbbcc49a7eed821908bdb6" target="_top" xlink:title="ClientModel::getOptionsModel">
<polygon fill="white" stroke="black" points="517.5,-1000.5 517.5,-1019.5 667.5,-1019.5 667.5,-1000.5 517.5,-1000.5"/>
<text text-anchor="middle" x="592.5" y="-1007.5" font-family="Helvetica,sans-Serif" font-size="10.00">ClientModel::getOptionsModel</text>
</a>
</g>
</g>
<!-- Node6&#45;&gt;Node46 -->
<g id="edge57" class="edge"><title>Node6&#45;&gt;Node46</title>
<path fill="none" stroke="midnightblue" d="M396.604,-789.869C404.386,-823.824 434.846,-936.721 506,-991 508.46,-992.876 511.068,-994.574 513.786,-996.11"/>
<polygon fill="midnightblue" stroke="midnightblue" points="512.27,-999.265 522.794,-1000.49 515.329,-992.968 512.27,-999.265"/>
</g>
<!-- Node8 -->
<g id="node8" class="node"><title>Node8</title>
<g id="a_node8"><a xlink:href="class_anoncoin_g_u_i.html#af7f83198c1e3a09007333a54add093df" target="_top" xlink:title="Handle tray icon clicked. ">
<polygon fill="white" stroke="black" points="721,-1022.5 721,-1041.5 879,-1041.5 879,-1022.5 721,-1022.5"/>
<text text-anchor="middle" x="800" y="-1029.5" font-family="Helvetica,sans-Serif" font-size="10.00">AnoncoinGUI::trayIconActivated</text>
</a>
</g>
</g>
<!-- Node7&#45;&gt;Node8 -->
<g id="edge7" class="edge"><title>Node7&#45;&gt;Node8</title>
<path fill="none" stroke="midnightblue" d="M645.104,-981.522C656.405,-984.145 668.211,-987.305 679,-991 695.74,-996.732 698.438,-1001.77 715,-1008 726.423,-1012.3 738.965,-1016.26 750.793,-1019.68"/>
<polygon fill="midnightblue" stroke="midnightblue" points="749.946,-1023.08 760.52,-1022.42 751.843,-1016.34 749.946,-1023.08"/>
</g>
<!-- Node9 -->
<g id="node9" class="node"><title>Node9</title>
<g id="a_node9"><a xlink:href="class_mac_dock_icon_handler.html#afd3ef7126d0b6ef02eaf85e5455fe6f4" target="_top" xlink:title="MacDockIconHandler\l::instance">
<polygon fill="white" stroke="black" points="744,-1061 744,-1091 856,-1091 856,-1061 744,-1061"/>
<text text-anchor="start" x="752" y="-1079" font-family="Helvetica,sans-Serif" font-size="10.00">MacDockIconHandler</text>
<text text-anchor="middle" x="800" y="-1068" font-family="Helvetica,sans-Serif" font-size="10.00">::instance</text>
</a>
</g>
</g>
<!-- Node7&#45;&gt;Node9 -->
<g id="edge8" class="edge"><title>Node7&#45;&gt;Node9</title>
<path fill="none" stroke="midnightblue" d="M661.557,-981.632C667.761,-984.102 673.696,-987.177 679,-991 704.228,-1009.18 690.429,-1031.94 715,-1051 720.785,-1055.49 727.364,-1059.17 734.234,-1062.2"/>
<polygon fill="midnightblue" stroke="midnightblue" points="733.146,-1065.53 743.734,-1065.92 735.703,-1059.01 733.146,-1065.53"/>
</g>
<!-- Node11 -->
<g id="node11" class="node"><title>Node11</title>
<g id="a_node11"><a xlink:href="class_mac_dock_icon_handler.html#a4d2d18c7d56286ea745e349497941293" target="_top" xlink:title="MacDockIconHandler\l::setMainWindow">
<polygon fill="white" stroke="black" points="1136.5,-1010 1136.5,-1040 1248.5,-1040 1248.5,-1010 1136.5,-1010"/>
<text text-anchor="start" x="1144.5" y="-1028" font-family="Helvetica,sans-Serif" font-size="10.00">MacDockIconHandler</text>
<text text-anchor="middle" x="1192.5" y="-1017" font-family="Helvetica,sans-Serif" font-size="10.00">::setMainWindow</text>
</a>
</g>
</g>
<!-- Node7&#45;&gt;Node11 -->
<g id="edge11" class="edge"><title>Node7&#45;&gt;Node11</title>
<path fill="none" stroke="midnightblue" d="M679.179,-979.594C799.943,-990.297 1017.58,-1009.59 1126.18,-1019.21"/>
<polygon fill="midnightblue" stroke="midnightblue" points="1126.07,-1022.71 1136.34,-1020.11 1126.69,-1015.74 1126.07,-1022.71"/>
</g>
<!-- Node12 -->
<g id="node12" class="node"><title>Node12</title>
<g id="a_node12"><a xlink:href="class_mac_dock_icon_handler.html#a8aff3dc6410687e432f8d9314eba0ab9" target="_top" xlink:title="MacDockIconHandler\l::dockMenu">
<polygon fill="white" stroke="black" points="744,-935 744,-965 856,-965 856,-935 744,-935"/>
<text text-anchor="start" x="752" y="-953" font-family="Helvetica,sans-Serif" font-size="10.00">MacDockIconHandler</text>
<text text-anchor="middle" x="800" y="-942" font-family="Helvetica,sans-Serif" font-size="10.00">::dockMenu</text>
</a>
</g>
</g>
<!-- Node7&#45;&gt;Node12 -->
<g id="edge12" class="edge"><title>Node7&#45;&gt;Node12</title>
<path fill="none" stroke="midnightblue" d="M679.162,-962.829C697.483,-960.868 716.549,-958.827 733.942,-956.965"/>
<polygon fill="midnightblue" stroke="midnightblue" points="734.401,-960.436 743.971,-955.891 733.656,-953.476 734.401,-960.436"/>
</g>
<!-- Node10 -->
<g id="node10" class="node"><title>Node10</title>
<g id="a_node10"><a xlink:href="class_mac_dock_icon_handler.html#ab44913b8dabec96186b74bc6f6896c46" target="_top" xlink:title="MacDockIconHandler\l::MacDockIconHandler">
<polygon fill="white" stroke="red" points="944.5,-1042 944.5,-1072 1062.5,-1072 1062.5,-1042 944.5,-1042"/>
<text text-anchor="start" x="952.5" y="-1060" font-family="Helvetica,sans-Serif" font-size="10.00">MacDockIconHandler</text>
<text text-anchor="middle" x="1003.5" y="-1049" font-family="Helvetica,sans-Serif" font-size="10.00">::MacDockIconHandler</text>
</a>
</g>
</g>
<!-- Node9&#45;&gt;Node10 -->
<g id="edge9" class="edge"><title>Node9&#45;&gt;Node10</title>
<path fill="none" stroke="midnightblue" d="M856.061,-1070.81C880.235,-1068.53 908.862,-1065.83 934.363,-1063.42"/>
<polygon fill="midnightblue" stroke="midnightblue" points="934.709,-1066.91 944.336,-1062.48 934.052,-1059.94 934.709,-1066.91"/>
</g>
<!-- Node10&#45;&gt;Node11 -->
<g id="edge10" class="edge"><title>Node10&#45;&gt;Node11</title>
<path fill="none" stroke="midnightblue" d="M1062.64,-1047.05C1082.82,-1043.6 1105.58,-1039.7 1126.29,-1036.16"/>
<polygon fill="midnightblue" stroke="midnightblue" points="1127,-1039.59 1136.27,-1034.45 1125.82,-1032.69 1127,-1039.59"/>
</g>
<!-- Node16 -->
<g id="node16" class="node"><title>Node16</title>
<g id="a_node16"><a xlink:href="class_client_model.html#acd447f61bfd57267a31a0aa88c176ee6" target="_top" xlink:title="Return true if core is importing blocks. ">
<polygon fill="white" stroke="black" points="727.5,-770.5 727.5,-789.5 872.5,-789.5 872.5,-770.5 727.5,-770.5"/>
<text text-anchor="middle" x="800" y="-777.5" font-family="Helvetica,sans-Serif" font-size="10.00">ClientModel::getBlockSource</text>
</a>
</g>
</g>
<!-- Node15&#45;&gt;Node16 -->
<g id="edge16" class="edge"><title>Node15&#45;&gt;Node16</title>
<path fill="none" stroke="midnightblue" d="M665.085,-792.381C681.934,-790.824 700.017,-789.152 717.274,-787.556"/>
<polygon fill="midnightblue" stroke="midnightblue" points="717.688,-791.033 727.323,-786.627 717.044,-784.063 717.688,-791.033"/>
</g>
<!-- Node17 -->
<g id="node17" class="node"><title>Node17</title>
<g id="a_node17"><a xlink:href="class_client_model.html#a3dd65362947749364c48ff53a37820db" target="_top" xlink:title="ClientModel::getLastBlockDate">
<polygon fill="white" stroke="black" points="927,-606.5 927,-625.5 1080,-625.5 1080,-606.5 927,-606.5"/>
<text text-anchor="middle" x="1003.5" y="-613.5" font-family="Helvetica,sans-Serif" font-size="10.00">ClientModel::getLastBlockDate</text>
</a>
</g>
</g>
<!-- Node15&#45;&gt;Node17 -->
<g id="edge18" class="edge"><title>Node15&#45;&gt;Node17</title>
<path fill="none" stroke="midnightblue" d="M662.084,-808.524C737.373,-817.366 851.973,-825.563 885,-799 943.15,-752.23 868.575,-688.108 921,-635 922.416,-633.565 923.918,-632.23 925.493,-630.989"/>
<polygon fill="midnightblue" stroke="midnightblue" points="927.426,-633.907 933.906,-625.525 923.613,-628.036 927.426,-633.907"/>
</g>
<!-- Node21 -->
<g id="node21" class="node"><title>Node21</title>
<g id="a_node21"><a xlink:href="class_wallet_frame.html#aeda920e4141c99d457814f20fa89dde6" target="_top" xlink:title="WalletFrame::showOutOfSync\lWarning">
<polygon fill="white" stroke="black" points="724.5,-847 724.5,-877 875.5,-877 875.5,-847 724.5,-847"/>
<text text-anchor="start" x="732.5" y="-865" font-family="Helvetica,sans-Serif" font-size="10.00">WalletFrame::showOutOfSync</text>
<text text-anchor="middle" x="800" y="-854" font-family="Helvetica,sans-Serif" font-size="10.00">Warning</text>
</a>
</g>
</g>
<!-- Node15&#45;&gt;Node21 -->
<g id="edge22" class="edge"><title>Node15&#45;&gt;Node21</title>
<path fill="none" stroke="midnightblue" d="M642.665,-808.582C654.645,-811.285 667.36,-814.466 679,-818 695.427,-822.988 698.915,-826.001 715,-832 725.22,-835.811 736.175,-839.797 746.688,-843.571"/>
<polygon fill="midnightblue" stroke="midnightblue" points="745.589,-846.895 756.183,-846.968 747.946,-840.304 745.589,-846.895"/>
</g>
<!-- Node22 -->
<g id="node22" class="node"><title>Node22</title>
<g id="a_node22"><a xlink:href="class_client_model.html#ac91e6c5bd6d70a0ae96ad2a29f97edf5" target="_top" xlink:title="ClientModel::getVerification\lProgress">
<polygon fill="white" stroke="red" points="934.5,-787 934.5,-817 1072.5,-817 1072.5,-787 934.5,-787"/>
<text text-anchor="start" x="942.5" y="-805" font-family="Helvetica,sans-Serif" font-size="10.00">ClientModel::getVerification</text>
<text text-anchor="middle" x="1003.5" y="-794" font-family="Helvetica,sans-Serif" font-size="10.00">Progress</text>
</a>
</g>
</g>
<!-- Node15&#45;&gt;Node22 -->
<g id="edge23" class="edge"><title>Node15&#45;&gt;Node22</title>
<path fill="none" stroke="midnightblue" d="M662.656,-808.665C668.498,-811.14 674.053,-814.206 679,-818 706.446,-839.051 685.421,-869.069 715,-887 779.611,-926.166 813.118,-910.274 885,-887 922.973,-874.705 958.975,-845.041 980.885,-824.235"/>
<polygon fill="midnightblue" stroke="midnightblue" points="983.574,-826.503 988.297,-817.02 978.691,-821.487 983.574,-826.503"/>
</g>
<!-- Node16&#45;&gt;Node14 -->
<g id="edge17" class="edge"><title>Node16&#45;&gt;Node14</title>
<path fill="none" stroke="midnightblue" d="M872.078,-770.481C876.818,-767.938 881.206,-764.818 885,-761 937.599,-708.065 874.35,-655.246 921,-597 929.71,-586.125 942.253,-578.214 954.897,-572.522"/>
<polygon fill="midnightblue" stroke="midnightblue" points="956.59,-575.611 964.525,-568.589 953.944,-569.131 956.59,-575.611"/>
</g>
<!-- Node18 -->
<g id="node18" class="node"><title>Node18</title>
<g id="a_node18"><a xlink:href="class_c_chain.html#a7482d06d8e8143f46326cf9c12c06daf" target="_top" xlink:title="Returns the index entry for the tip of this chain, or NULL if none. ">
<polygon fill="white" stroke="black" points="1158,-718.5 1158,-737.5 1227,-737.5 1227,-718.5 1158,-718.5"/>
<text text-anchor="middle" x="1192.5" y="-725.5" font-family="Helvetica,sans-Serif" font-size="10.00">CChain::Tip</text>
</a>
</g>
</g>
<!-- Node17&#45;&gt;Node18 -->
<g id="edge19" class="edge"><title>Node17&#45;&gt;Node18</title>
<path fill="none" stroke="midnightblue" d="M1061.9,-625.59C1070.23,-628.054 1078.51,-631.14 1086,-635 1123.36,-654.252 1158.18,-689.666 1176.98,-710.8"/>
<polygon fill="midnightblue" stroke="midnightblue" points="1174.39,-713.147 1183.59,-718.39 1179.67,-708.55 1174.39,-713.147"/>
</g>
<!-- Node19 -->
<g id="node19" class="node"><title>Node19</title>
<g id="a_node19"><a xlink:href="class_c_block_index.html#ab63b774ae798f5f9e54b400ac8b5ef4b" target="_top" xlink:title="CBlockIndex::GetBlockTime">
<polygon fill="white" stroke="black" points="1122,-606.5 1122,-625.5 1263,-625.5 1263,-606.5 1122,-606.5"/>
<text text-anchor="middle" x="1192.5" y="-613.5" font-family="Helvetica,sans-Serif" font-size="10.00">CBlockIndex::GetBlockTime</text>
</a>
</g>
</g>
<!-- Node17&#45;&gt;Node19 -->
<g id="edge20" class="edge"><title>Node17&#45;&gt;Node19</title>
<path fill="none" stroke="midnightblue" d="M1080.02,-616C1090.36,-616 1101,-616 1111.42,-616"/>
<polygon fill="midnightblue" stroke="midnightblue" points="1111.74,-619.5 1121.74,-616 1111.74,-612.5 1111.74,-619.5"/>
</g>
<!-- Node20 -->
<g id="node20" class="node"><title>Node20</title>
<g id="a_node20"><a xlink:href="chainparams_8cpp.html#ace5c5b706d71a324a417dd2db394fd4a" target="_top" xlink:title="Return the currently selected parameters. ">
<polygon fill="white" stroke="black" points="1167,-511.5 1167,-530.5 1218,-530.5 1218,-511.5 1167,-511.5"/>
<text text-anchor="middle" x="1192.5" y="-518.5" font-family="Helvetica,sans-Serif" font-size="10.00">Params</text>
</a>
</g>
</g>
<!-- Node17&#45;&gt;Node20 -->
<g id="edge21" class="edge"><title>Node17&#45;&gt;Node20</title>
<path fill="none" stroke="midnightblue" d="M1025.77,-606.498C1042.31,-599.008 1065.77,-588.168 1086,-578 1113.54,-564.153 1144.52,-547.253 1165.75,-535.465"/>
<polygon fill="midnightblue" stroke="midnightblue" points="1167.46,-538.52 1174.49,-530.594 1164.05,-532.406 1167.46,-538.52"/>
</g>
<!-- Node22&#45;&gt;Node18 -->
<g id="edge24" class="edge"><title>Node22&#45;&gt;Node18</title>
<path fill="none" stroke="midnightblue" d="M1042.79,-786.846C1076.69,-773.434 1125.66,-754.055 1158.02,-741.25"/>
<polygon fill="midnightblue" stroke="midnightblue" points="1159.48,-744.435 1167.49,-737.501 1156.9,-737.926 1159.48,-744.435"/>
</g>
<!-- Node24 -->
<g id="node24" class="node"><title>Node24</title>
<g id="a_node24"><a xlink:href="class_c_chain.html#a0c4ffb8501acfb8a7e1c0f5e6322ada3" target="_top" xlink:title="Return the maximal height in the chain. ">
<polygon fill="white" stroke="black" points="961.5,-644.5 961.5,-663.5 1045.5,-663.5 1045.5,-644.5 961.5,-644.5"/>
<text text-anchor="middle" x="1003.5" y="-651.5" font-family="Helvetica,sans-Serif" font-size="10.00">CChain::Height</text>
</a>
</g>
</g>
<!-- Node23&#45;&gt;Node24 -->
<g id="edge26" class="edge"><title>Node23&#45;&gt;Node24</title>
<path fill="none" stroke="midnightblue" d="M869.781,-654C896.417,-654 926.378,-654 951.084,-654"/>
<polygon fill="midnightblue" stroke="midnightblue" points="951.326,-657.5 961.326,-654 951.326,-650.5 951.326,-657.5"/>
</g>
<!-- Node26 -->
<g id="node26" class="node"><title>Node26</title>
<g id="a_node26"><a xlink:href="class_anoncoin_g_u_i.html#a4c87902dc6d0585e0c06f31c54e03223" target="_top" xlink:title="Show window if hidden, unminimize when minimized, rise when obscured or show if hidden and fToggleHid...">
<polygon fill="white" stroke="red" points="728.5,-683 728.5,-713 871.5,-713 871.5,-683 728.5,-683"/>
<text text-anchor="start" x="736.5" y="-701" font-family="Helvetica,sans-Serif" font-size="10.00">AnoncoinGUI::showNormalIf</text>
<text text-anchor="middle" x="800" y="-690" font-family="Helvetica,sans-Serif" font-size="10.00">Minimized</text>
</a>
</g>
</g>
<!-- Node25&#45;&gt;Node26 -->
<g id="edge28" class="edge"><title>Node25&#45;&gt;Node26</title>
<path fill="none" stroke="midnightblue" d="M638.09,-732.453C661.64,-727.41 691.268,-721.067 718.662,-715.201"/>
<polygon fill="midnightblue" stroke="midnightblue" points="719.592,-718.582 728.638,-713.065 718.127,-711.737 719.592,-718.582"/>
</g>
<!-- Node27 -->
<g id="node27" class="node"><title>Node27</title>
<g id="a_node27"><a xlink:href="class_notificator.html#ae08e1e7e85ddc4690f307649021f7fdc" target="_top" xlink:title="Show notification message. ">
<polygon fill="white" stroke="red" points="754.5,-732.5 754.5,-751.5 845.5,-751.5 845.5,-732.5 754.5,-732.5"/>
<text text-anchor="middle" x="800" y="-739.5" font-family="Helvetica,sans-Serif" font-size="10.00">Notificator::notify</text>
</a>
</g>
</g>
<!-- Node25&#45;&gt;Node27 -->
<g id="edge29" class="edge"><title>Node25&#45;&gt;Node27</title>
<path fill="none" stroke="midnightblue" d="M653.768,-742C682.333,-742 716.213,-742 744.063,-742"/>
<polygon fill="midnightblue" stroke="midnightblue" points="744.418,-745.5 754.417,-742 744.417,-738.5 744.418,-745.5"/>
</g>
<!-- Node28&#45;&gt;Node14 -->
<g id="edge36" class="edge"><title>Node28&#45;&gt;Node14</title>
<path fill="none" stroke="midnightblue" d="M602.606,-391.507C621.628,-410.801 667.744,-454.692 715,-478 784.895,-512.475 810.106,-499.442 885,-521 911.921,-528.749 941.971,-538.487 964.943,-546.165"/>
<polygon fill="midnightblue" stroke="midnightblue" points="964.049,-549.557 974.643,-549.426 966.279,-542.922 964.049,-549.557"/>
</g>
<!-- Node28&#45;&gt;Node20 -->
<g id="edge52" class="edge"><title>Node28&#45;&gt;Node20</title>
<path fill="none" stroke="midnightblue" d="M618.82,-391.558C643.207,-400.521 681.26,-413.875 715,-423 878.462,-467.21 1078.16,-502.283 1157.07,-515.412"/>
<polygon fill="midnightblue" stroke="midnightblue" points="1156.52,-518.868 1166.95,-517.047 1157.66,-511.962 1156.52,-518.868"/>
</g>
<!-- Node28&#45;&gt;Node23 -->
<g id="edge39" class="edge"><title>Node28&#45;&gt;Node23</title>
<path fill="none" stroke="midnightblue" d="M595.059,-391.639C601.689,-429.366 631.161,-568.2 715,-635 717.098,-636.671 719.314,-638.202 721.621,-639.603"/>
<polygon fill="midnightblue" stroke="midnightblue" points="720.426,-642.924 730.919,-644.389 723.63,-636.7 720.426,-642.924"/>
</g>
<!-- Node29 -->
<g id="node29" class="node"><title>Node29</title>
<g id="a_node29"><a xlink:href="class_traffic_graph_widget.html#a8f627aaf6171695d94a0e83b239fe1ac" target="_top" xlink:title="TrafficGraphWidget\l::setClientModel">
<polygon fill="white" stroke="black" points="748.5,-367 748.5,-397 851.5,-397 851.5,-367 748.5,-367"/>
<text text-anchor="start" x="756.5" y="-385" font-family="Helvetica,sans-Serif" font-size="10.00">TrafficGraphWidget</text>
<text text-anchor="middle" x="800" y="-374" font-family="Helvetica,sans-Serif" font-size="10.00">::setClientModel</text>
</a>
</g>
</g>
<!-- Node28&#45;&gt;Node29 -->
<g id="edge31" class="edge"><title>Node28&#45;&gt;Node29</title>
<path fill="none" stroke="midnightblue" d="M665.663,-382C689.331,-382 715.382,-382 738.129,-382"/>
<polygon fill="midnightblue" stroke="midnightblue" points="738.328,-385.5 748.328,-382 738.328,-378.5 738.328,-385.5"/>
</g>
<!-- Node30 -->
<g id="node30" class="node"><title>Node30</title>
<g id="a_node30"><a xlink:href="class_client_model.html#a175c96ffc4d793777316e36c501a7f94" target="_top" xlink:title="ClientModel::getTotalBytesRecv">
<polygon fill="white" stroke="red" points="924,-394.5 924,-413.5 1083,-413.5 1083,-394.5 924,-394.5"/>
<text text-anchor="middle" x="1003.5" y="-401.5" font-family="Helvetica,sans-Serif" font-size="10.00">ClientModel::getTotalBytesRecv</text>
</a>
</g>
</g>
<!-- Node28&#45;&gt;Node30 -->
<g id="edge41" class="edge"><title>Node28&#45;&gt;Node30</title>
<path fill="none" stroke="midnightblue" d="M629.887,-391.502C653.87,-397.264 686.076,-404.055 715,-407 781.405,-413.761 856.881,-412.64 913.832,-410.027"/>
<polygon fill="midnightblue" stroke="midnightblue" points="914.065,-413.52 923.884,-409.542 913.727,-406.528 914.065,-413.52"/>
</g>
<!-- Node31 -->
<g id="node31" class="node"><title>Node31</title>
<g id="a_node31"><a xlink:href="class_client_model.html#a4229224bf8a2df52e44438a449da6ba3" target="_top" xlink:title="ClientModel::getTotalBytesSent">
<polygon fill="white" stroke="red" points="925,-342.5 925,-361.5 1082,-361.5 1082,-342.5 925,-342.5"/>
<text text-anchor="middle" x="1003.5" y="-349.5" font-family="Helvetica,sans-Serif" font-size="10.00">ClientModel::getTotalBytesSent</text>
</a>
</g>
</g>
<!-- Node28&#45;&gt;Node31 -->
<g id="edge42" class="edge"><title>Node28&#45;&gt;Node31</title>
<path fill="none" stroke="midnightblue" d="M632.631,-372.47C656.314,-367.153 687.211,-361.011 715,-358 781.722,-350.77 857.647,-349.478 914.711,-349.883"/>
<polygon fill="midnightblue" stroke="midnightblue" points="914.749,-353.383 924.78,-349.973 914.812,-346.383 914.749,-353.383"/>
</g>
<!-- Node32 -->
<g id="node32" class="node"><title>Node32</title>
<g id="a_node32"><a xlink:href="class_r_p_c_console.html#aa4546cb7812dd35704de8bf09a6ceb60" target="_top" xlink:title="Set number of connections shown in the UI. ">
<polygon fill="white" stroke="black" points="715,-530.5 715,-549.5 885,-549.5 885,-530.5 715,-530.5"/>
<text text-anchor="middle" x="800" y="-537.5" font-family="Helvetica,sans-Serif" font-size="10.00">RPCConsole::setNumConnections</text>
</a>
</g>
</g>
<!-- Node28&#45;&gt;Node32 -->
<g id="edge34" class="edge"><title>Node28&#45;&gt;Node32</title>
<path fill="none" stroke="midnightblue" d="M599.536,-391.788C615.306,-416.528 660.33,-482.007 715,-516 722.221,-520.49 730.308,-524.164 738.535,-527.165"/>
<polygon fill="midnightblue" stroke="midnightblue" points="737.62,-530.549 748.213,-530.387 739.831,-523.907 737.62,-530.549"/>
</g>
<!-- Node33 -->
<g id="node33" class="node"><title>Node33</title>
<g id="a_node33"><a xlink:href="class_r_p_c_console.html#a98b7e85774a91d77c3b01276bd41bc51" target="_top" xlink:title="Set number of blocks shown in the UI. ">
<polygon fill="white" stroke="black" points="728,-606.5 728,-625.5 872,-625.5 872,-606.5 728,-606.5"/>
<text text-anchor="middle" x="800" y="-613.5" font-family="Helvetica,sans-Serif" font-size="10.00">RPCConsole::setNumBlocks</text>
</a>
</g>
</g>
<!-- Node28&#45;&gt;Node33 -->
<g id="edge37" class="edge"><title>Node28&#45;&gt;Node33</title>
<path fill="none" stroke="midnightblue" d="M598.484,-391.744C613.298,-420.058 659.505,-503.802 715,-559 731.869,-575.778 754.306,-590.712 771.748,-601.081"/>
<polygon fill="midnightblue" stroke="midnightblue" points="770.448,-604.373 780.856,-606.354 773.956,-598.315 770.448,-604.373"/>
</g>
<!-- Node34 -->
<g id="node34" class="node"><title>Node34</title>
<g id="a_node34"><a xlink:href="class_r_p_c_console.html#a41bc6977fc2aab06f408da81dfd2034f" target="_top" xlink:title="update traffic statistics ">
<polygon fill="white" stroke="red" points="731,-279 731,-309 869,-309 869,-279 731,-279"/>
<text text-anchor="start" x="739" y="-297" font-family="Helvetica,sans-Serif" font-size="10.00">RPCConsole::updateTraffic</text>
<text text-anchor="middle" x="800" y="-286" font-family="Helvetica,sans-Serif" font-size="10.00">Stats</text>
</a>
</g>
</g>
<!-- Node28&#45;&gt;Node34 -->
<g id="edge40" class="edge"><title>Node28&#45;&gt;Node34</title>
<path fill="none" stroke="midnightblue" d="M657.24,-372.401C664.841,-369.947 672.278,-366.867 679,-363 699.447,-351.238 695.323,-337.01 715,-324 721.216,-319.89 728.064,-316.265 735.086,-313.088"/>
<polygon fill="midnightblue" stroke="midnightblue" points="736.868,-316.135 744.727,-309.029 734.152,-309.683 736.868,-316.135"/>
</g>
<!-- Node35 -->
<g id="node35" class="node"><title>Node35</title>
<g id="a_node35"><a xlink:href="class_client_model.html#a643fc112ce94f50ac7187ecdf3c75360" target="_top" xlink:title="ClientModel::getPeerTable\lModel">
<polygon fill="white" stroke="black" points="936,-197 936,-227 1071,-227 1071,-197 936,-197"/>
<text text-anchor="start" x="944" y="-215" font-family="Helvetica,sans-Serif" font-size="10.00">ClientModel::getPeerTable</text>
<text text-anchor="middle" x="1003.5" y="-204" font-family="Helvetica,sans-Serif" font-size="10.00">Model</text>
</a>
</g>
</g>
<!-- Node28&#45;&gt;Node35 -->
<g id="edge43" class="edge"><title>Node28&#45;&gt;Node35</title>
<path fill="none" stroke="midnightblue" d="M665.626,-372.391C670.5,-369.868 675.038,-366.778 679,-363 723.009,-321.036 667.918,-269.485 715,-231 746.118,-205.564 851.448,-204.574 925.564,-207.363"/>
<polygon fill="midnightblue" stroke="midnightblue" points="925.669,-210.87 935.803,-207.779 925.954,-203.876 925.669,-210.87"/>
</g>
<!-- Node36 -->
<g id="node36" class="node"><title>Node36</title>
<g id="a_node36"><a xlink:href="class_r_p_c_console.html#a2487fa6a90cddcbb17ae4bb13ecc5359" target="_top" xlink:title="Handle selection of peer in peers list. ">
<polygon fill="white" stroke="red" points="730.5,-240.5 730.5,-259.5 869.5,-259.5 869.5,-240.5 730.5,-240.5"/>
<text text-anchor="middle" x="800" y="-247.5" font-family="Helvetica,sans-Serif" font-size="10.00">RPCConsole::peerSelected</text>
</a>
</g>
</g>
<!-- Node28&#45;&gt;Node36 -->
<g id="edge44" class="edge"><title>Node28&#45;&gt;Node36</title>
<path fill="none" stroke="midnightblue" d="M664.39,-372.343C669.665,-369.847 674.625,-366.775 679,-363 712.872,-333.776 681.183,-298.288 715,-269 716.978,-267.287 719.078,-265.719 721.274,-264.285"/>
<polygon fill="midnightblue" stroke="midnightblue" points="723.094,-267.279 730.167,-259.391 719.719,-261.146 723.094,-267.279"/>
</g>
<!-- Node37 -->
<g id="node37" class="node"><title>Node37</title>
<g id="a_node37"><a xlink:href="class_r_p_c_console.html#af952ebc6484c8f7d1262fa0bceed41bf" target="_top" xlink:title="Handle updated peer information. ">
<polygon fill="white" stroke="red" points="715,-0.5 715,-19.5 885,-19.5 885,-0.5 715,-0.5"/>
<text text-anchor="middle" x="800" y="-7.5" font-family="Helvetica,sans-Serif" font-size="10.00">RPCConsole::peerLayoutChanged</text>
</a>
</g>
</g>
<!-- Node28&#45;&gt;Node37 -->
<g id="edge46" class="edge"><title>Node28&#45;&gt;Node37</title>
<path fill="none" stroke="midnightblue" d="M665.527,-373.501C670.555,-370.754 675.148,-367.307 679,-363 778.538,-251.717 615.672,-140.471 715,-29 716.057,-27.8139 717.171,-26.6936 718.335,-25.6356"/>
<polygon fill="midnightblue" stroke="midnightblue" points="720.683,-28.2542 726.681,-19.521 716.546,-22.6074 720.683,-28.2542"/>
</g>
<!-- Node38 -->
<g id="node38" class="node"><title>Node38</title>
<g id="a_node38"><a xlink:href="class_client_model.html#a1c93d11fd03ef9aabf9b694e73698710" target="_top" xlink:title="ClientModel::formatFullVersion">
<polygon fill="white" stroke="red" points="723.5,-164.5 723.5,-183.5 876.5,-183.5 876.5,-164.5 723.5,-164.5"/>
<text text-anchor="middle" x="800" y="-171.5" font-family="Helvetica,sans-Serif" font-size="10.00">ClientModel::formatFullVersion</text>
</a>
</g>
</g>
<!-- Node28&#45;&gt;Node38 -->
<g id="edge48" class="edge"><title>Node28&#45;&gt;Node38</title>
<path fill="none" stroke="midnightblue" d="M665.844,-372.614C670.669,-370.041 675.137,-366.878 679,-363 731.972,-309.823 663.637,-252.732 715,-198 718.605,-194.159 722.778,-190.918 727.299,-188.185"/>
<polygon fill="midnightblue" stroke="midnightblue" points="729.065,-191.213 736.363,-183.533 725.868,-184.985 729.065,-191.213"/>
</g>
<!-- Node39 -->
<g id="node39" class="node"><title>Node39</title>
<g id="a_node39"><a xlink:href="class_client_model.html#a6c7619b3dbe33ce32456ec1f7a17f454" target="_top" xlink:title="ClientModel::clientName">
<polygon fill="white" stroke="black" points="737.5,-126.5 737.5,-145.5 862.5,-145.5 862.5,-126.5 737.5,-126.5"/>
<text text-anchor="middle" x="800" y="-133.5" font-family="Helvetica,sans-Serif" font-size="10.00">ClientModel::clientName</text>
</a>
</g>
</g>
<!-- Node28&#45;&gt;Node39 -->
<g id="edge49" class="edge"><title>Node28&#45;&gt;Node39</title>
<path fill="none" stroke="midnightblue" d="M665.633,-373.014C670.57,-370.363 675.117,-367.071 679,-363 743.753,-295.11 650.375,-223.012 715,-155 718.703,-151.103 723.022,-147.926 727.712,-145.343"/>
<polygon fill="midnightblue" stroke="midnightblue" points="729.461,-148.394 737.124,-141.077 726.571,-142.018 729.461,-148.394"/>
</g>
<!-- Node40 -->
<g id="node40" class="node"><title>Node40</title>
<g id="a_node40"><a xlink:href="class_client_model.html#a8b7886e6acbb255dab6cbc297bb67a22" target="_top" xlink:title="ClientModel::formatBuildDate">
<polygon fill="white" stroke="black" points="726.5,-88.5 726.5,-107.5 873.5,-107.5 873.5,-88.5 726.5,-88.5"/>
<text text-anchor="middle" x="800" y="-95.5" font-family="Helvetica,sans-Serif" font-size="10.00">ClientModel::formatBuildDate</text>
</a>
</g>
</g>
<!-- Node28&#45;&gt;Node40 -->
<g id="edge50" class="edge"><title>Node28&#45;&gt;Node40</title>
<path fill="none" stroke="midnightblue" d="M665.75,-373.125C670.662,-370.449 675.17,-367.122 679,-363 754.216,-282.054 639.937,-198.088 715,-117 716.079,-115.834 717.213,-114.732 718.396,-113.691"/>
<polygon fill="midnightblue" stroke="midnightblue" points="720.734,-116.324 726.842,-107.667 716.669,-110.625 720.734,-116.324"/>
</g>
<!-- Node41 -->
<g id="node41" class="node"><title>Node41</title>
<g id="a_node41"><a xlink:href="class_client_model.html#a9a6238dec8eb12b7d742ce1879a92ec8" target="_top" xlink:title="ClientModel::formatClient\lStartupTime">
<polygon fill="white" stroke="black" points="735.5,-39 735.5,-69 864.5,-69 864.5,-39 735.5,-39"/>
<text text-anchor="start" x="743.5" y="-57" font-family="Helvetica,sans-Serif" font-size="10.00">ClientModel::formatClient</text>
<text text-anchor="middle" x="800" y="-46" font-family="Helvetica,sans-Serif" font-size="10.00">StartupTime</text>
</a>
</g>
</g>
<!-- Node28&#45;&gt;Node41 -->
<g id="edge51" class="edge"><title>Node28&#45;&gt;Node41</title>
<path fill="none" stroke="midnightblue" d="M665.837,-373.205C670.73,-370.511 675.21,-367.158 679,-363 764.707,-268.966 632.665,-176 715,-79 718.274,-75.143 722.114,-71.8661 726.319,-69.0838"/>
<polygon fill="midnightblue" stroke="midnightblue" points="728.355,-71.9565 735.396,-64.0399 724.955,-65.8377 728.355,-71.9565"/>
</g>
<!-- Node29&#45;&gt;Node30 -->
<g id="edge32" class="edge"><title>Node29&#45;&gt;Node30</title>
<path fill="none" stroke="midnightblue" d="M851.587,-387.523C870.407,-389.578 892.361,-391.975 913.604,-394.294"/>
<polygon fill="midnightblue" stroke="midnightblue" points="913.306,-397.782 923.627,-395.389 914.066,-390.824 913.306,-397.782"/>
</g>
<!-- Node29&#45;&gt;Node31 -->
<g id="edge33" class="edge"><title>Node29&#45;&gt;Node31</title>
<path fill="none" stroke="midnightblue" d="M851.587,-374.468C874.846,-371.006 902.894,-366.83 928.467,-363.022"/>
<polygon fill="midnightblue" stroke="midnightblue" points="929.127,-366.463 938.503,-361.528 928.097,-359.539 929.127,-366.463"/>
</g>
<!-- Node32&#45;&gt;Node14 -->
<g id="edge35" class="edge"><title>Node32&#45;&gt;Node14</title>
<path fill="none" stroke="midnightblue" d="M885.287,-547.948C893.644,-548.736 902.156,-549.538 910.585,-550.333"/>
<polygon fill="midnightblue" stroke="midnightblue" points="910.526,-553.843 920.81,-551.297 911.183,-546.874 910.526,-553.843"/>
</g>
<!-- Node33&#45;&gt;Node17 -->
<g id="edge38" class="edge"><title>Node33&#45;&gt;Node17</title>
<path fill="none" stroke="midnightblue" d="M872.041,-616C886.495,-616 901.845,-616 916.746,-616"/>
<polygon fill="midnightblue" stroke="midnightblue" points="916.975,-619.5 926.975,-616 916.975,-612.5 916.975,-619.5"/>
</g>
<!-- Node36&#45;&gt;Node35 -->
<g id="edge45" class="edge"><title>Node36&#45;&gt;Node35</title>
<path fill="none" stroke="midnightblue" d="M851.587,-240.46C874.026,-236.228 900.922,-231.156 925.753,-226.473"/>
<polygon fill="midnightblue" stroke="midnightblue" points="926.703,-229.856 935.882,-224.563 925.406,-222.977 926.703,-229.856"/>
</g>
<!-- Node37&#45;&gt;Node35 -->
<g id="edge47" class="edge"><title>Node37&#45;&gt;Node35</title>
<path fill="none" stroke="midnightblue" d="M866.896,-19.576C873.321,-22.048 879.49,-25.1388 885,-29 942.457,-69.263 978.411,-147.496 993.805,-187.362"/>
<polygon fill="midnightblue" stroke="midnightblue" points="990.574,-188.713 997.358,-196.85 997.129,-186.258 990.574,-188.713"/>
</g>
<!-- Node44 -->
<g id="node44" class="node"><title>Node44</title>
<g id="a_node44"><a xlink:href="class_unit_display_status_bar_control.html#a380947f855d0a7ca8c457ad463c359bb" target="_top" xlink:title="When Display Units are changed on OptionsModel it will refresh the display text of the control on the...">
<polygon fill="white" stroke="red" points="728.5,-1110 728.5,-1140 871.5,-1140 871.5,-1110 728.5,-1110"/>
<text text-anchor="start" x="736.5" y="-1128" font-family="Helvetica,sans-Serif" font-size="10.00">UnitDisplayStatusBarControl</text>
<text text-anchor="middle" x="800" y="-1117" font-family="Helvetica,sans-Serif" font-size="10.00">::updateDisplayUnit</text>
</a>
</g>
</g>
<!-- Node43&#45;&gt;Node44 -->
<g id="edge55" class="edge"><title>Node43&#45;&gt;Node44</title>
<path fill="none" stroke="midnightblue" d="M664.221,-1108.6C681.594,-1110.72 700.324,-1113 718.134,-1115.16"/>
<polygon fill="midnightblue" stroke="midnightblue" points="718.147,-1118.69 728.496,-1116.42 718.992,-1111.74 718.147,-1118.69"/>
</g>
<!-- Node45 -->
<g id="node45" class="node"><title>Node45</title>
<g id="a_node45"><a xlink:href="class_options_model.html#a3b6e4d4ef42be3aaba315b8cd14f468e" target="_top" xlink:title="OptionsModel::getDisplayUnit">
<polygon fill="white" stroke="black" points="726,-1159.5 726,-1178.5 874,-1178.5 874,-1159.5 726,-1159.5"/>
<text text-anchor="middle" x="800" y="-1166.5" font-family="Helvetica,sans-Serif" font-size="10.00">OptionsModel::getDisplayUnit</text>
</a>
</g>
</g>
<!-- Node43&#45;&gt;Node45 -->
<g id="edge56" class="edge"><title>Node43&#45;&gt;Node45</title>
<path fill="none" stroke="midnightblue" d="M654.207,-1115.1C662.699,-1117.97 671.186,-1121.27 679,-1125 696.576,-1133.4 697.172,-1142.15 715,-1150 720.747,-1152.53 726.87,-1154.74 733.09,-1156.67"/>
<polygon fill="midnightblue" stroke="midnightblue" points="732.327,-1160.09 742.904,-1159.48 734.25,-1153.36 732.327,-1160.09"/>
</g>
<!-- Node48 -->
<g id="node48" class="node"><title>Node48</title>
<g id="a_node48"><a xlink:href="util_8h.html#aa5ce96ec36f4413f820cec9c1831c070" target="_top" xlink:title="atoi">
<polygon fill="white" stroke="black" points="576,-296.5 576,-315.5 609,-315.5 609,-296.5 576,-296.5"/>
<text text-anchor="middle" x="592.5" y="-303.5" font-family="Helvetica,sans-Serif" font-size="10.00">atoi</text>
</a>
</g>
</g>
<!-- Node47&#45;&gt;Node48 -->
<g id="edge59" class="edge"><title>Node47&#45;&gt;Node48</title>
<path fill="none" stroke="midnightblue" d="M396.394,-533.293C403.652,-498.833 433.032,-381.438 506,-325 523.093,-311.78 547.556,-307.382 565.939,-306.086"/>
<polygon fill="midnightblue" stroke="midnightblue" points="566.125,-309.581 575.959,-305.638 565.812,-302.588 566.125,-309.581"/>
</g>
</g>
</svg>
