<?xml version="1.0" encoding="UTF-8" standalone="no"?>
<!DOCTYPE svg PUBLIC "-//W3C//DTD SVG 1.1//EN"
 "http://www.w3.org/Graphics/SVG/1.1/DTD/svg11.dtd">
<!-- Generated by graphviz version 2.38.0 (20140413.2041)
 -->
<!-- Title: AnoncoinApplication Pages: 1 -->
<svg width="1570pt" height="516pt"
 viewBox="0.00 0.00 1570.00 516.00" xmlns="http://www.w3.org/2000/svg" xmlns:xlink="http://www.w3.org/1999/xlink">
<g id="graph0" class="graph" transform="scale(1 1) rotate(0) translate(4 512)">
<title>AnoncoinApplication</title>
<polygon fill="white" stroke="none" points="-4,4 -4,-512 1566,-512 1566,4 -4,4"/>
<!-- Node1 -->
<g id="node1" class="node"><title>Node1</title>
<polygon fill="#bfbfbf" stroke="black" points="1455,-105.5 1455,-124.5 1562,-124.5 1562,-105.5 1455,-105.5"/>
<text text-anchor="middle" x="1508.5" y="-112.5" font-family="Helvetica,sans-Serif" font-size="10.00">AnoncoinApplication</text>
</g>
<!-- Node2 -->
<g id="node2" class="node"><title>Node2</title>
<polygon fill="white" stroke="#bfbfbf" points="1286.5,-0.5 1286.5,-19.5 1359.5,-19.5 1359.5,-0.5 1286.5,-0.5"/>
<text text-anchor="middle" x="1323" y="-7.5" font-family="Helvetica,sans-Serif" font-size="10.00">QApplication</text>
</g>
<!-- Node2&#45;&gt;Node1 -->
<g id="edge1" class="edge"><title>Node2&#45;&gt;Node1</title>
<path fill="none" stroke="midnightblue" d="M1369.65,-12.9851C1391.26,-16.0207 1416.71,-22.0571 1437,-34 1467.69,-52.0606 1491.83,-88.2605 1502.11,-105.479"/>
<polygon fill="midnightblue" stroke="midnightblue" points="1370.07,-9.50971 1359.71,-11.7572 1369.21,-16.4569 1370.07,-9.50971"/>
</g>
<!-- Node3 -->
<g id="node3" class="node"><title>Node3</title>
<g id="a_node3"><a xlink:href="class_client_model.html" target="_top" xlink:title="Model for Anoncoin network client. ">
<polygon fill="white" stroke="black" points="355,-243.5 355,-262.5 424,-262.5 424,-243.5 355,-243.5"/>
<text text-anchor="middle" x="389.5" y="-250.5" font-family="Helvetica,sans-Serif" font-size="10.00">ClientModel</text>
</a>
</g>
</g>
<!-- Node3&#45;&gt;Node1 -->
<g id="edge2" class="edge"><title>Node3&#45;&gt;Node1</title>
<path fill="none" stroke="#9a32cd" stroke-dasharray="5,2" d="M429.713,-240.651C444.956,-236.304 462.654,-231.807 479,-229 746.74,-183.02 816.841,-183 1088.5,-183 1088.5,-183 1088.5,-183 1324,-183 1390.25,-183 1462.04,-143.545 1492.49,-124.743"/>
<polygon fill="#9a32cd" stroke="#9a32cd" points="428.704,-237.299 420.09,-243.466 430.67,-244.017 428.704,-237.299"/>
<text text-anchor="middle" x="1021.5" y="-187" font-family="Helvetica,sans-Serif" font-size="10.00"> clientModel</text>
</g>
<!-- Node5 -->
<g id="node5" class="node"><title>Node5</title>
<g id="a_node5"><a xlink:href="class_peer_table_model.html" target="_top" xlink:title="Qt model providing information about connected peers, similar to the &quot;getpeerinfo&quot; RPC call...">
<polygon fill="white" stroke="black" points="579.5,-118.5 579.5,-137.5 669.5,-137.5 669.5,-118.5 579.5,-118.5"/>
<text text-anchor="middle" x="624.5" y="-125.5" font-family="Helvetica,sans-Serif" font-size="10.00">PeerTableModel</text>
</a>
</g>
</g>
<!-- Node3&#45;&gt;Node5 -->
<g id="edge7" class="edge"><title>Node3&#45;&gt;Node5</title>
<path fill="none" stroke="#9a32cd" stroke-dasharray="5,2" d="M407.243,-235.669C424.007,-219.223 451.239,-194.872 479,-180 510.108,-163.335 521.815,-169.007 555,-157 571.151,-151.156 589.009,-143.557 602.441,-137.604"/>
<polygon fill="#9a32cd" stroke="#9a32cd" points="404.483,-233.48 399.898,-243.031 409.438,-238.424 404.483,-233.48"/>
<text text-anchor="middle" x="517" y="-183" font-family="Helvetica,sans-Serif" font-size="10.00"> clientModel</text>
</g>
<!-- Node10 -->
<g id="node10" class="node"><title>Node10</title>
<g id="a_node10"><a xlink:href="class_anoncoin_g_u_i.html" target="_top" xlink:title="Anoncoin GUI main class. ">
<polygon fill="white" stroke="black" points="1285,-373.5 1285,-392.5 1361,-392.5 1361,-373.5 1285,-373.5"/>
<text text-anchor="middle" x="1323" y="-380.5" font-family="Helvetica,sans-Serif" font-size="10.00">AnoncoinGUI</text>
</a>
</g>
</g>
<!-- Node3&#45;&gt;Node10 -->
<g id="edge13" class="edge"><title>Node3&#45;&gt;Node10</title>
<path fill="none" stroke="#9a32cd" stroke-dasharray="5,2" d="M405.153,-270.264C421.47,-288.486 449.461,-316.888 479,-334 573.956,-389.007 611.262,-383 721,-383 721,-383 721,-383 1155,-383 1199.65,-383 1251.01,-383 1284.86,-383"/>
<polygon fill="#9a32cd" stroke="#9a32cd" points="407.735,-267.901 398.513,-262.686 402.47,-272.514 407.735,-267.901"/>
<text text-anchor="middle" x="917" y="-386" font-family="Helvetica,sans-Serif" font-size="10.00"> clientModel</text>
</g>
<!-- Node12 -->
<g id="node12" class="node"><title>Node12</title>
<g id="a_node12"><a xlink:href="class_r_p_c_console.html" target="_top" xlink:title="Local Anoncoin RPC console. ">
<polygon fill="white" stroke="black" points="1117,-314.5 1117,-333.5 1191,-333.5 1191,-314.5 1117,-314.5"/>
<text text-anchor="middle" x="1154" y="-321.5" font-family="Helvetica,sans-Serif" font-size="10.00">RPCConsole</text>
</a>
</g>
</g>
<!-- Node3&#45;&gt;Node12 -->
<g id="edge16" class="edge"><title>Node3&#45;&gt;Node12</title>
<path fill="none" stroke="#9a32cd" stroke-dasharray="5,2" d="M434.318,-250.191C542.926,-244.316 832.646,-235.314 1066,-288 1090.87,-293.616 1117.74,-305.756 1134.93,-314.383"/>
<polygon fill="#9a32cd" stroke="#9a32cd" points="433.868,-246.71 424.08,-250.765 434.26,-253.699 433.868,-246.71"/>
<text text-anchor="middle" x="812.5" y="-260" font-family="Helvetica,sans-Serif" font-size="10.00"> clientModel</text>
</g>
<!-- Node16 -->
<g id="node16" class="node"><title>Node16</title>
<g id="a_node16"><a xlink:href="class_traffic_graph_widget.html" target="_top" xlink:title="TrafficGraphWidget">
<polygon fill="white" stroke="black" points="573,-335.5 573,-354.5 676,-354.5 676,-335.5 573,-335.5"/>
<text text-anchor="middle" x="624.5" y="-342.5" font-family="Helvetica,sans-Serif" font-size="10.00">TrafficGraphWidget</text>
</a>
</g>
</g>
<!-- Node3&#45;&gt;Node16 -->
<g id="edge21" class="edge"><title>Node3&#45;&gt;Node16</title>
<path fill="none" stroke="#9a32cd" stroke-dasharray="5,2" d="M422.33,-266.6C439.131,-273.704 460.124,-282.464 479,-290 520.258,-306.471 568.563,-324.633 597.561,-335.415"/>
<polygon fill="#9a32cd" stroke="#9a32cd" points="423.543,-263.312 412.97,-262.63 420.81,-269.757 423.543,-263.312"/>
<text text-anchor="middle" x="517" y="-322" font-family="Helvetica,sans-Serif" font-size="10.00"> clientModel</text>
</g>
<!-- Node18 -->
<g id="node18" class="node"><title>Node18</title>
<g id="a_node18"><a xlink:href="class_wallet_frame.html" target="_top" xlink:title="WalletFrame">
<polygon fill="white" stroke="black" points="1472,-305.5 1472,-324.5 1545,-324.5 1545,-305.5 1472,-305.5"/>
<text text-anchor="middle" x="1508.5" y="-312.5" font-family="Helvetica,sans-Serif" font-size="10.00">WalletFrame</text>
</a>
</g>
</g>
<!-- Node3&#45;&gt;Node18 -->
<g id="edge24" class="edge"><title>Node3&#45;&gt;Node18</title>
<path fill="none" stroke="#9a32cd" stroke-dasharray="5,2" d="M434.438,-246.061C481.185,-239.29 557.368,-230 623.5,-230 623.5,-230 623.5,-230 1324,-230 1394.92,-230 1468.17,-282.923 1495.92,-305.249"/>
<polygon fill="#9a32cd" stroke="#9a32cd" points="433.735,-242.627 424.353,-247.549 434.757,-249.552 433.735,-242.627"/>
<text text-anchor="middle" x="1021.5" y="-233" font-family="Helvetica,sans-Serif" font-size="10.00"> clientModel</text>
</g>
<!-- Node4 -->
<g id="node4" class="node"><title>Node4</title>
<polygon fill="white" stroke="#bfbfbf" points="153.5,-459.5 153.5,-478.5 206.5,-478.5 206.5,-459.5 153.5,-459.5"/>
<text text-anchor="middle" x="180" y="-466.5" font-family="Helvetica,sans-Serif" font-size="10.00">QObject</text>
</g>
<!-- Node4&#45;&gt;Node3 -->
<g id="edge3" class="edge"><title>Node4&#45;&gt;Node3</title>
<path fill="none" stroke="midnightblue" d="M216.368,-458.033C242.365,-448.425 277.025,-432.173 300,-408 313.43,-393.869 308.887,-385.234 318,-368 339.347,-327.631 369.078,-282.037 382.035,-262.6"/>
<polygon fill="midnightblue" stroke="midnightblue" points="215.131,-454.758 206.871,-461.393 217.465,-461.357 215.131,-454.758"/>
</g>
<!-- Node20 -->
<g id="node20" class="node"><title>Node20</title>
<g id="a_node20"><a xlink:href="class_notificator.html" target="_top" xlink:title="Cross&#45;platform desktop notification client. ">
<polygon fill="white" stroke="black" points="486,-485.5 486,-504.5 548,-504.5 548,-485.5 486,-485.5"/>
<text text-anchor="middle" x="517" y="-492.5" font-family="Helvetica,sans-Serif" font-size="10.00">Notificator</text>
</a>
</g>
</g>
<!-- Node4&#45;&gt;Node20 -->
<g id="edge27" class="edge"><title>Node4&#45;&gt;Node20</title>
<path fill="none" stroke="midnightblue" d="M216.709,-471.771C283.027,-476.919 424.073,-487.865 485.9,-492.664"/>
<polygon fill="midnightblue" stroke="midnightblue" points="216.972,-468.281 206.731,-470.997 216.43,-475.26 216.972,-468.281"/>
</g>
<!-- Node5&#45;&gt;Node3 -->
<g id="edge4" class="edge"><title>Node5&#45;&gt;Node3</title>
<path fill="none" stroke="#9a32cd" stroke-dasharray="5,2" d="M569.028,-125.417C540.631,-126.31 506.24,-131.053 479,-146 436.731,-169.193 406.491,-221.454 395.284,-243.209"/>
<polygon fill="#9a32cd" stroke="#9a32cd" points="569.253,-128.914 579.195,-125.251 569.139,-121.915 569.253,-128.914"/>
<text text-anchor="middle" x="517" y="-149" font-family="Helvetica,sans-Serif" font-size="10.00"> peerTableModel</text>
</g>
<!-- Node6 -->
<g id="node6" class="node"><title>Node6</title>
<polygon fill="white" stroke="#bfbfbf" points="333,-114.5 333,-133.5 446,-133.5 446,-114.5 333,-114.5"/>
<text text-anchor="middle" x="389.5" y="-121.5" font-family="Helvetica,sans-Serif" font-size="10.00">QAbstractTableModel</text>
</g>
<!-- Node6&#45;&gt;Node5 -->
<g id="edge5" class="edge"><title>Node6&#45;&gt;Node5</title>
<path fill="none" stroke="midnightblue" d="M456.456,-124.545C486.516,-124.86 522.56,-125.329 555,-126 562.851,-126.162 571.206,-126.374 579.285,-126.598"/>
<polygon fill="midnightblue" stroke="midnightblue" points="456.123,-121.042 446.089,-124.441 456.053,-128.042 456.123,-121.042"/>
</g>
<!-- Node7 -->
<g id="node7" class="node"><title>Node7</title>
<g id="a_node7"><a xlink:href="class_peer_table_priv.html" target="_top" xlink:title="PeerTablePriv">
<polygon fill="white" stroke="black" points="349.5,-76.5 349.5,-95.5 429.5,-95.5 429.5,-76.5 349.5,-76.5"/>
<text text-anchor="middle" x="389.5" y="-83.5" font-family="Helvetica,sans-Serif" font-size="10.00">PeerTablePriv</text>
</a>
</g>
</g>
<!-- Node7&#45;&gt;Node5 -->
<g id="edge6" class="edge"><title>Node7&#45;&gt;Node5</title>
<path fill="none" stroke="#9a32cd" stroke-dasharray="5,2" d="M439.839,-91.731C472.643,-95.901 516.594,-102.178 555,-110 566.567,-112.356 579.091,-115.476 590.229,-118.456"/>
<polygon fill="#9a32cd" stroke="#9a32cd" points="439.957,-88.2187 429.601,-90.4518 439.09,-95.1647 439.957,-88.2187"/>
<text text-anchor="middle" x="517" y="-113" font-family="Helvetica,sans-Serif" font-size="10.00"> priv</text>
</g>
<!-- Node8 -->
<g id="node8" class="node"><title>Node8</title>
<g id="a_node8"><a xlink:href="class_options_model.html" target="_top" xlink:title="Interface from Qt to configuration data structure for Anoncoin client. ">
<polygon fill="white" stroke="black" points="141,-243.5 141,-262.5 219,-262.5 219,-243.5 141,-243.5"/>
<text text-anchor="middle" x="180" y="-250.5" font-family="Helvetica,sans-Serif" font-size="10.00">OptionsModel</text>
</a>
</g>
</g>
<!-- Node8&#45;&gt;Node1 -->
<g id="edge10" class="edge"><title>Node8&#45;&gt;Node1</title>
<path fill="none" stroke="#9a32cd" stroke-dasharray="5,2" d="M189.716,-233.69C207.885,-195.687 253.537,-111.064 318,-67 344.791,-48.6873 356.049,-48 388.5,-48 388.5,-48 388.5,-48 1324,-48 1390.13,-48 1461.99,-86.8744 1492.47,-105.401"/>
<polygon fill="#9a32cd" stroke="#9a32cd" points="186.383,-232.558 185.328,-243.1 192.727,-235.516 186.383,-232.558"/>
<text text-anchor="middle" x="917" y="-51" font-family="Helvetica,sans-Serif" font-size="10.00"> optionsModel</text>
</g>
<!-- Node8&#45;&gt;Node3 -->
<g id="edge8" class="edge"><title>Node8&#45;&gt;Node3</title>
<path fill="none" stroke="#9a32cd" stroke-dasharray="5,2" d="M229.508,-253C267.999,-253 320.811,-253 354.801,-253"/>
<polygon fill="#9a32cd" stroke="#9a32cd" points="229.059,-249.5 219.059,-253 229.059,-256.5 229.059,-249.5"/>
<text text-anchor="middle" x="268.5" y="-256" font-family="Helvetica,sans-Serif" font-size="10.00"> optionsModel</text>
</g>
<!-- Node21 -->
<g id="node21" class="node"><title>Node21</title>
<g id="a_node21"><a xlink:href="class_unit_display_status_bar_control.html" target="_top" xlink:title="UnitDisplayStatusBarControl">
<polygon fill="white" stroke="black" points="318,-415.5 318,-434.5 461,-434.5 461,-415.5 318,-415.5"/>
<text text-anchor="middle" x="389.5" y="-422.5" font-family="Helvetica,sans-Serif" font-size="10.00">UnitDisplayStatusBarControl</text>
</a>
</g>
</g>
<!-- Node8&#45;&gt;Node21 -->
<g id="edge30" class="edge"><title>Node8&#45;&gt;Node21</title>
<path fill="none" stroke="#9a32cd" stroke-dasharray="5,2" d="M192.314,-271.486C213.087,-303.826 260.493,-370.593 318,-406 324.261,-409.855 331.303,-412.938 338.452,-415.402"/>
<polygon fill="#9a32cd" stroke="#9a32cd" points="195.029,-269.227 186.741,-262.627 189.104,-272.955 195.029,-269.227"/>
<text text-anchor="middle" x="268.5" y="-396" font-family="Helvetica,sans-Serif" font-size="10.00"> optionsModel</text>
</g>
<!-- Node9 -->
<g id="node9" class="node"><title>Node9</title>
<polygon fill="white" stroke="#bfbfbf" points="0,-243.5 0,-262.5 104,-262.5 104,-243.5 0,-243.5"/>
<text text-anchor="middle" x="52" y="-250.5" font-family="Helvetica,sans-Serif" font-size="10.00">QAbstractListModel</text>
</g>
<!-- Node9&#45;&gt;Node8 -->
<g id="edge9" class="edge"><title>Node9&#45;&gt;Node8</title>
<path fill="none" stroke="midnightblue" d="M114.408,-253C123.457,-253 132.55,-253 140.939,-253"/>
<polygon fill="midnightblue" stroke="midnightblue" points="114.249,-249.5 104.249,-253 114.249,-256.5 114.249,-249.5"/>
</g>
<!-- Node10&#45;&gt;Node1 -->
<g id="edge11" class="edge"><title>Node10&#45;&gt;Node1</title>
<path fill="none" stroke="#9a32cd" stroke-dasharray="5,2" d="M1336.37,-364.927C1371.98,-312.932 1473.84,-164.162 1500.86,-124.704"/>
<polygon fill="#9a32cd" stroke="#9a32cd" points="1333.29,-363.233 1330.53,-373.462 1339.07,-367.188 1333.29,-363.233"/>
<text text-anchor="middle" x="1408" y="-300" font-family="Helvetica,sans-Serif" font-size="10.00"> window</text>
</g>
<!-- Node10&#45;&gt;Node18 -->
<g id="edge25" class="edge"><title>Node10&#45;&gt;Node18</title>
<path fill="none" stroke="#9a32cd" stroke-dasharray="5,2" d="M1371.31,-377.938C1392,-374.68 1416.24,-369.416 1437,-361 1459.48,-351.884 1482.45,-335.249 1495.82,-324.679"/>
<polygon fill="#9a32cd" stroke="#9a32cd" points="1370.55,-374.512 1361.16,-379.423 1371.56,-381.439 1370.55,-374.512"/>
<text text-anchor="middle" x="1408" y="-380" font-family="Helvetica,sans-Serif" font-size="10.00"> gui</text>
</g>
<!-- Node11 -->
<g id="node11" class="node"><title>Node11</title>
<polygon fill="white" stroke="#bfbfbf" points="1113,-449.5 1113,-468.5 1195,-468.5 1195,-449.5 1113,-449.5"/>
<text text-anchor="middle" x="1154" y="-456.5" font-family="Helvetica,sans-Serif" font-size="10.00">QMainWindow</text>
</g>
<!-- Node11&#45;&gt;Node10 -->
<g id="edge12" class="edge"><title>Node11&#45;&gt;Node10</title>
<path fill="none" stroke="midnightblue" d="M1205.08,-454.215C1225.18,-450.809 1248.03,-444.978 1267,-435 1287,-424.478 1304.96,-404.621 1314.58,-392.723"/>
<polygon fill="midnightblue" stroke="midnightblue" points="1204.51,-450.762 1195.16,-455.743 1205.57,-457.68 1204.51,-450.762"/>
</g>
<!-- Node12&#45;&gt;Node10 -->
<g id="edge14" class="edge"><title>Node12&#45;&gt;Node10</title>
<path fill="none" stroke="#9a32cd" stroke-dasharray="5,2" d="M1200.45,-336.32C1220.99,-342.264 1245.43,-349.865 1267,-358 1279.07,-362.553 1292.24,-368.502 1302.66,-373.455"/>
<polygon fill="#9a32cd" stroke="#9a32cd" points="1201.29,-332.92 1190.71,-333.541 1199.37,-339.651 1201.29,-332.92"/>
<text text-anchor="middle" x="1240" y="-361" font-family="Helvetica,sans-Serif" font-size="10.00"> rpcConsole</text>
</g>
<!-- Node13 -->
<g id="node13" class="node"><title>Node13</title>
<polygon fill="white" stroke="#bfbfbf" points="995,-297.5 995,-316.5 1048,-316.5 1048,-297.5 995,-297.5"/>
<text text-anchor="middle" x="1021.5" y="-304.5" font-family="Helvetica,sans-Serif" font-size="10.00">QDialog</text>
</g>
<!-- Node13&#45;&gt;Node12 -->
<g id="edge15" class="edge"><title>Node13&#45;&gt;Node12</title>
<path fill="none" stroke="midnightblue" d="M1058.24,-311.655C1076.47,-314.031 1098.61,-316.915 1116.9,-319.297"/>
<polygon fill="midnightblue" stroke="midnightblue" points="1058.65,-308.18 1048.28,-310.359 1057.75,-315.121 1058.65,-308.18"/>
</g>
<!-- Node14 -->
<g id="node14" class="node"><title>Node14</title>
<g id="a_node14"><a xlink:href="class_ui_1_1_r_p_c_console.html" target="_top" xlink:title="Ui::RPCConsole">
<polygon fill="white" stroke="black" points="977,-335.5 977,-354.5 1066,-354.5 1066,-335.5 977,-335.5"/>
<text text-anchor="middle" x="1021.5" y="-342.5" font-family="Helvetica,sans-Serif" font-size="10.00">Ui::RPCConsole</text>
</a>
</g>
</g>
<!-- Node14&#45;&gt;Node12 -->
<g id="edge17" class="edge"><title>Node14&#45;&gt;Node12</title>
<path fill="none" stroke="#9a32cd" stroke-dasharray="5,2" d="M1076.55,-336.303C1090.15,-334.114 1104.42,-331.818 1116.9,-329.81"/>
<polygon fill="#9a32cd" stroke="#9a32cd" points="1075.63,-332.905 1066.32,-337.949 1076.75,-339.816 1075.63,-332.905"/>
<text text-anchor="middle" x="1089.5" y="-338" font-family="Helvetica,sans-Serif" font-size="10.00"> ui</text>
</g>
<!-- Node15 -->
<g id="node15" class="node"><title>Node15</title>
<g id="a_node15"><a xlink:href="class_ui___r_p_c_console.html" target="_top" xlink:title="Ui_RPCConsole">
<polygon fill="white" stroke="black" points="768,-335.5 768,-354.5 857,-354.5 857,-335.5 768,-335.5"/>
<text text-anchor="middle" x="812.5" y="-342.5" font-family="Helvetica,sans-Serif" font-size="10.00">Ui_RPCConsole</text>
</a>
</g>
</g>
<!-- Node15&#45;&gt;Node14 -->
<g id="edge18" class="edge"><title>Node15&#45;&gt;Node14</title>
<path fill="none" stroke="midnightblue" d="M867.403,-345C901.5,-345 945.001,-345 976.913,-345"/>
<polygon fill="midnightblue" stroke="midnightblue" points="867.146,-341.5 857.146,-345 867.146,-348.5 867.146,-341.5"/>
</g>
<!-- Node16&#45;&gt;Node15 -->
<g id="edge19" class="edge"><title>Node16&#45;&gt;Node15</title>
<path fill="none" stroke="#9a32cd" stroke-dasharray="5,2" d="M686.326,-345C712.989,-345 743.677,-345 767.994,-345"/>
<polygon fill="#9a32cd" stroke="#9a32cd" points="686.325,-341.5 676.325,-345 686.325,-348.5 686.325,-341.5"/>
<text text-anchor="middle" x="722" y="-348" font-family="Helvetica,sans-Serif" font-size="10.00"> trafficGraph</text>
</g>
<!-- Node17 -->
<g id="node17" class="node"><title>Node17</title>
<polygon fill="white" stroke="#bfbfbf" points="362,-377.5 362,-396.5 417,-396.5 417,-377.5 362,-377.5"/>
<text text-anchor="middle" x="389.5" y="-384.5" font-family="Helvetica,sans-Serif" font-size="10.00">QWidget</text>
</g>
<!-- Node17&#45;&gt;Node16 -->
<g id="edge20" class="edge"><title>Node17&#45;&gt;Node16</title>
<path fill="none" stroke="midnightblue" d="M427.139,-380.396C466.292,-373.338 528.646,-362.098 572.565,-354.181"/>
<polygon fill="midnightblue" stroke="midnightblue" points="426.449,-376.964 417.228,-382.182 427.69,-383.852 426.449,-376.964"/>
</g>
<!-- Node18&#45;&gt;Node10 -->
<g id="edge22" class="edge"><title>Node18&#45;&gt;Node10</title>
<path fill="none" stroke="#9a32cd" stroke-dasharray="5,2" d="M1462.02,-324.173C1436.97,-330.017 1405.64,-338.638 1379,-350 1364.05,-356.379 1348.26,-366.215 1337.45,-373.491"/>
<polygon fill="#9a32cd" stroke="#9a32cd" points="1463.01,-327.538 1471.99,-321.916 1461.47,-320.71 1463.01,-327.538"/>
<text text-anchor="middle" x="1408" y="-353" font-family="Helvetica,sans-Serif" font-size="10.00"> walletFrame</text>
</g>
<!-- Node19 -->
<g id="node19" class="node"><title>Node19</title>
<polygon fill="white" stroke="#bfbfbf" points="1296.5,-272.5 1296.5,-291.5 1349.5,-291.5 1349.5,-272.5 1296.5,-272.5"/>
<text text-anchor="middle" x="1323" y="-279.5" font-family="Helvetica,sans-Serif" font-size="10.00">QFrame</text>
</g>
<!-- Node19&#45;&gt;Node18 -->
<g id="edge23" class="edge"><title>Node19&#45;&gt;Node18</title>
<path fill="none" stroke="midnightblue" d="M1359.79,-285.14C1382.11,-287.419 1411.38,-290.985 1437,-296 1449.81,-298.508 1463.73,-302.073 1475.78,-305.439"/>
<polygon fill="midnightblue" stroke="midnightblue" points="1360.04,-281.648 1349.74,-284.154 1359.35,-288.615 1360.04,-281.648"/>
</g>
<!-- Node20&#45;&gt;Node10 -->
<g id="edge26" class="edge"><title>Node20&#45;&gt;Node10</title>
<path fill="none" stroke="#9a32cd" stroke-dasharray="5,2" d="M558.389,-495.632C599.355,-496.218 664.585,-497 721,-497 721,-497 721,-497 1155,-497 1207.86,-497 1224.52,-488.453 1267,-457 1290.93,-439.283 1309.12,-408.247 1317.28,-392.599"/>
<polygon fill="#9a32cd" stroke="#9a32cd" points="558.315,-492.131 548.265,-495.484 558.212,-499.13 558.315,-492.131"/>
<text text-anchor="middle" x="917" y="-500" font-family="Helvetica,sans-Serif" font-size="10.00"> notificator</text>
</g>
<!-- Node21&#45;&gt;Node10 -->
<g id="edge28" class="edge"><title>Node21&#45;&gt;Node10</title>
<path fill="none" stroke="#9a32cd" stroke-dasharray="5,2" d="M471.354,-422.93C516.18,-421.954 572.923,-421 623.5,-421 623.5,-421 623.5,-421 1155,-421 1206.14,-421 1263.95,-403.846 1296.38,-392.589"/>
<polygon fill="#9a32cd" stroke="#9a32cd" points="471.024,-419.436 461.105,-423.158 471.18,-426.435 471.024,-419.436"/>
<text text-anchor="middle" x="917" y="-424" font-family="Helvetica,sans-Serif" font-size="10.00"> unitDisplayControl</text>
</g>
<!-- Node22 -->
<g id="node22" class="node"><title>Node22</title>
<polygon fill="white" stroke="#bfbfbf" points="155.5,-415.5 155.5,-434.5 204.5,-434.5 204.5,-415.5 155.5,-415.5"/>
<text text-anchor="middle" x="180" y="-422.5" font-family="Helvetica,sans-Serif" font-size="10.00">QLabel</text>
</g>
<!-- Node22&#45;&gt;Node21 -->
<g id="edge29" class="edge"><title>Node22&#45;&gt;Node21</title>
<path fill="none" stroke="midnightblue" d="M215.155,-425C242.888,-425 282.933,-425 317.548,-425"/>
<polygon fill="midnightblue" stroke="midnightblue" points="214.803,-421.5 204.803,-425 214.803,-428.5 214.803,-421.5"/>
</g>
</g>
</svg>
