<?xml version="1.0" encoding="UTF-8" standalone="no"?>
<!DOCTYPE svg PUBLIC "-//W3C//DTD SVG 1.1//EN"
 "http://www.w3.org/Graphics/SVG/1.1/DTD/svg11.dtd">
<!-- Generated by graphviz version 2.38.0 (20140413.2041)
 -->
<!-- Title: SignVerifyMessageDialog::showTab_SM Pages: 1 -->
<svg width="556pt" height="39pt"
 viewBox="0.00 0.00 556.00 39.00" xmlns="http://www.w3.org/2000/svg" xmlns:xlink="http://www.w3.org/1999/xlink">
<g id="graph0" class="graph" transform="scale(1 1) rotate(0) translate(4 35)">
<title>SignVerifyMessageDialog::showTab_SM</title>
<polygon fill="white" stroke="none" points="-4,4 -4,-35 552,-35 552,4 -4,4"/>
<!-- Node1 -->
<g id="node1" class="node"><title>Node1</title>
<polygon fill="#bfbfbf" stroke="black" points="0,-0.5 0,-30.5 131,-30.5 131,-0.5 0,-0.5"/>
<text text-anchor="start" x="8" y="-18.5" font-family="Helvetica,sans-Serif" font-size="10.00">SignVerifyMessageDialog</text>
<text text-anchor="middle" x="65.5" y="-7.5" font-family="Helvetica,sans-Serif" font-size="10.00">::showTab_SM</text>
</g>
<!-- Node2 -->
<g id="node2" class="node"><title>Node2</title>
<g id="a_node2"><a xlink:href="class_wallet_view.html#a6443ddcb872a1743a61102a3dcd2d560" target="_top" xlink:title="Show Sign/Verify Message dialog and switch to sign message tab. ">
<polygon fill="white" stroke="black" points="167,-6 167,-25 336,-25 336,-6 167,-6"/>
<text text-anchor="middle" x="251.5" y="-13" font-family="Helvetica,sans-Serif" font-size="10.00">WalletView::gotoSignMessageTab</text>
</a>
</g>
</g>
<!-- Node1&#45;&gt;Node2 -->
<g id="edge1" class="edge"><title>Node1&#45;&gt;Node2</title>
<path fill="none" stroke="midnightblue" d="M141.31,-15.5C149.768,-15.5 158.428,-15.5 166.988,-15.5"/>
<polygon fill="midnightblue" stroke="midnightblue" points="141.113,-12.0001 131.113,-15.5 141.113,-19.0001 141.113,-12.0001"/>
</g>
<!-- Node3 -->
<g id="node3" class="node"><title>Node3</title>
<g id="a_node3"><a xlink:href="class_wallet_frame.html#a386b4f2e20af7d13a688662cd3f9e1fc" target="_top" xlink:title="Show Sign/Verify Message dialog and switch to sign message tab. ">
<polygon fill="white" stroke="black" points="372,-6 372,-25 548,-25 548,-6 372,-6"/>
<text text-anchor="middle" x="460" y="-13" font-family="Helvetica,sans-Serif" font-size="10.00">WalletFrame::gotoSignMessageTab</text>
</a>
</g>
</g>
<!-- Node2&#45;&gt;Node3 -->
<g id="edge2" class="edge"><title>Node2&#45;&gt;Node3</title>
<path fill="none" stroke="midnightblue" d="M346.446,-15.5C354.898,-15.5 363.433,-15.5 371.823,-15.5"/>
<polygon fill="midnightblue" stroke="midnightblue" points="346.194,-12.0001 336.194,-15.5 346.194,-19.0001 346.194,-12.0001"/>
</g>
</g>
</svg>
