<?xml version="1.0" encoding="UTF-8" standalone="no"?>
<!DOCTYPE svg PUBLIC "-//W3C//DTD SVG 1.1//EN"
 "http://www.w3.org/Graphics/SVG/1.1/DTD/svg11.dtd">
<!-- Generated by graphviz version 2.38.0 (20140413.2041)
 -->
<!-- Title: CWallet::SendMoneyToDestination Pages: 1 -->
<svg width="336pt" height="66pt"
 viewBox="0.00 0.00 336.00 66.00" xmlns="http://www.w3.org/2000/svg" xmlns:xlink="http://www.w3.org/1999/xlink">
<g id="graph0" class="graph" transform="scale(1 1) rotate(0) translate(4 62)">
<title>CWallet::SendMoneyToDestination</title>
<polygon fill="white" stroke="none" points="-4,4 -4,-62 332,-62 332,4 -4,4"/>
<!-- Node1 -->
<g id="node1" class="node"><title>Node1</title>
<polygon fill="#bfbfbf" stroke="black" points="0,-19.5 0,-38.5 172,-38.5 172,-19.5 0,-19.5"/>
<text text-anchor="middle" x="86" y="-26.5" font-family="Helvetica,sans-Serif" font-size="10.00">CWallet::SendMoneyToDestination</text>
</g>
<!-- Node2 -->
<g id="node2" class="node"><title>Node2</title>
<g id="a_node2"><a xlink:href="ui__interface_8h.html#aad133bb6103b53cebf03fd01e2f11ba1" target="_top" xlink:title="Translation function: Call Translate signal on UI interface, which returns a boost::optional result...">
<polygon fill="white" stroke="black" points="253.5,-38.5 253.5,-57.5 282.5,-57.5 282.5,-38.5 253.5,-38.5"/>
<text text-anchor="middle" x="268" y="-45.5" font-family="Helvetica,sans-Serif" font-size="10.00">_</text>
</a>
</g>
</g>
<!-- Node1&#45;&gt;Node2 -->
<g id="edge1" class="edge"><title>Node1&#45;&gt;Node2</title>
<path fill="none" stroke="midnightblue" d="M172.256,-37.9992C198.415,-40.7605 225.111,-43.5783 243.469,-45.5162"/>
<polygon fill="midnightblue" stroke="midnightblue" points="243.183,-49.0053 253.495,-46.5745 243.918,-42.044 243.183,-49.0053"/>
</g>
<!-- Node3 -->
<g id="node3" class="node"><title>Node3</title>
<g id="a_node3"><a xlink:href="class_c_script.html#ad1b5a9077241aa06116040c4f1b7c31e" target="_top" xlink:title="CScript::SetDestination">
<polygon fill="white" stroke="black" points="208,-0.5 208,-19.5 328,-19.5 328,-0.5 208,-0.5"/>
<text text-anchor="middle" x="268" y="-7.5" font-family="Helvetica,sans-Serif" font-size="10.00">CScript::SetDestination</text>
</a>
</g>
</g>
<!-- Node1&#45;&gt;Node3 -->
<g id="edge2" class="edge"><title>Node1&#45;&gt;Node3</title>
<path fill="none" stroke="midnightblue" d="M172.256,-20.0008C180.848,-19.0938 189.498,-18.1808 197.891,-17.2948"/>
<polygon fill="midnightblue" stroke="midnightblue" points="198.403,-20.7603 207.98,-16.2298 197.668,-13.799 198.403,-20.7603"/>
</g>
</g>
</svg>
