<?xml version="1.0" encoding="UTF-8" standalone="no"?>
<!DOCTYPE svg PUBLIC "-//W3C//DTD SVG 1.1//EN"
 "http://www.w3.org/Graphics/SVG/1.1/DTD/svg11.dtd">
<!-- Generated by graphviz version 2.38.0 (20140413.2041)
 -->
<!-- Title: GUIUtil::TableViewLastColumnResizingFixer::connectViewHeadersSignals Pages: 1 -->
<svg width="1471pt" height="242pt"
 viewBox="0.00 0.00 1471.00 241.74" xmlns="http://www.w3.org/2000/svg" xmlns:xlink="http://www.w3.org/1999/xlink">
<g id="graph0" class="graph" transform="scale(1 1) rotate(0) translate(4 237.737)">
<title>GUIUtil::TableViewLastColumnResizingFixer::connectViewHeadersSignals</title>
<polygon fill="white" stroke="none" points="-4,4 -4,-237.737 1467,-237.737 1467,4 -4,4"/>
<!-- Node1 -->
<g id="node1" class="node"><title>Node1</title>
<polygon fill="#bfbfbf" stroke="black" points="0,-25.6955 0,-66.6955 177,-66.6955 177,-25.6955 0,-25.6955"/>
<text text-anchor="start" x="8" y="-54.6955" font-family="Helvetica,sans-Serif" font-size="10.00">GUIUtil::TableViewLastColumn</text>
<text text-anchor="start" x="8" y="-43.6955" font-family="Helvetica,sans-Serif" font-size="10.00">ResizingFixer::connectViewHeaders</text>
<text text-anchor="middle" x="88.5" y="-32.6955" font-family="Helvetica,sans-Serif" font-size="10.00">Signals</text>
</g>
<!-- Node2 -->
<g id="node2" class="node"><title>Node2</title>
<g id="a_node2"><a xlink:href="class_g_u_i_util_1_1_table_view_last_column_resizing_fixer.html#a31422ff98c30c95c01dba5bbb8ccbcae" target="_top" xlink:title="GUIUtil::TableViewLastColumn\lResizingFixer::on_sectionResized">
<polygon fill="white" stroke="black" points="213,-85.1955 213,-115.196 380,-115.196 380,-85.1955 213,-85.1955"/>
<text text-anchor="start" x="221" y="-103.196" font-family="Helvetica,sans-Serif" font-size="10.00">GUIUtil::TableViewLastColumn</text>
<text text-anchor="middle" x="296.5" y="-92.1955" font-family="Helvetica,sans-Serif" font-size="10.00">ResizingFixer::on_sectionResized</text>
</a>
</g>
</g>
<!-- Node1&#45;&gt;Node2 -->
<g id="edge1" class="edge"><title>Node1&#45;&gt;Node2</title>
<path fill="none" stroke="midnightblue" d="M167.967,-66.7647C187.816,-71.9678 208.956,-77.5093 228.199,-82.5534"/>
<polygon fill="midnightblue" stroke="midnightblue" points="227.511,-85.9913 238.072,-85.1415 229.286,-79.2201 227.511,-85.9913"/>
</g>
<!-- Node5 -->
<g id="node5" class="node"><title>Node5</title>
<g id="a_node5"><a xlink:href="class_g_u_i_util_1_1_table_view_last_column_resizing_fixer.html#a93f3b32cf06688099875a1c9d2df57f2" target="_top" xlink:title="GUIUtil::TableViewLastColumn\lResizingFixer::on_geometriesChanged">
<polygon fill="white" stroke="black" points="877,-36.1955 877,-66.1955 1066,-66.1955 1066,-36.1955 877,-36.1955"/>
<text text-anchor="start" x="885" y="-54.1955" font-family="Helvetica,sans-Serif" font-size="10.00">GUIUtil::TableViewLastColumn</text>
<text text-anchor="middle" x="971.5" y="-43.1955" font-family="Helvetica,sans-Serif" font-size="10.00">ResizingFixer::on_geometriesChanged</text>
</a>
</g>
</g>
<!-- Node1&#45;&gt;Node5 -->
<g id="edge18" class="edge"><title>Node1&#45;&gt;Node5</title>
<path fill="none" stroke="midnightblue" d="M177.193,-29.3226C317.767,-9.83287 602.035,15.1221 841,-12.1955 872.78,-15.8285 908.107,-24.3214 933.826,-32.7752"/>
<polygon fill="midnightblue" stroke="midnightblue" points="932.934,-36.1701 943.529,-36.1282 935.221,-29.554 932.934,-36.1701"/>
</g>
<!-- Node3 -->
<g id="node3" class="node"><title>Node3</title>
<g id="a_node3"><a xlink:href="class_g_u_i_util_1_1_table_view_last_column_resizing_fixer.html#ac5622cca5767d788033fff5d54629d7f" target="_top" xlink:title="GUIUtil::TableViewLastColumn\lResizingFixer::adjustTableColumnsWidth">
<polygon fill="white" stroke="black" points="416,-167.196 416,-197.196 615,-197.196 615,-167.196 416,-167.196"/>
<text text-anchor="start" x="424" y="-185.196" font-family="Helvetica,sans-Serif" font-size="10.00">GUIUtil::TableViewLastColumn</text>
<text text-anchor="middle" x="515.5" y="-174.196" font-family="Helvetica,sans-Serif" font-size="10.00">ResizingFixer::adjustTableColumnsWidth</text>
</a>
</g>
</g>
<!-- Node2&#45;&gt;Node3 -->
<g id="edge2" class="edge"><title>Node2&#45;&gt;Node3</title>
<path fill="none" stroke="midnightblue" d="M329.27,-115.357C352.894,-126.331 386.082,-141.119 416,-152.196 427.263,-156.366 439.399,-160.413 451.174,-164.115"/>
<polygon fill="midnightblue" stroke="midnightblue" points="450.365,-167.529 460.953,-167.139 452.433,-160.841 450.365,-167.529"/>
</g>
<!-- Node7 -->
<g id="node7" class="node"><title>Node7</title>
<g id="a_node7"><a xlink:href="class_g_u_i_util_1_1_table_view_last_column_resizing_fixer.html#a284107daa657b2d34a196b886538c02c" target="_top" xlink:title="GUIUtil::TableViewLastColumn\lResizingFixer::resizeColumn">
<polygon fill="white" stroke="black" points="1106.5,-83.1955 1106.5,-113.196 1260.5,-113.196 1260.5,-83.1955 1106.5,-83.1955"/>
<text text-anchor="start" x="1114.5" y="-101.196" font-family="Helvetica,sans-Serif" font-size="10.00">GUIUtil::TableViewLastColumn</text>
<text text-anchor="middle" x="1183.5" y="-90.1955" font-family="Helvetica,sans-Serif" font-size="10.00">ResizingFixer::resizeColumn</text>
</a>
</g>
</g>
<!-- Node2&#45;&gt;Node7 -->
<g id="edge17" class="edge"><title>Node2&#45;&gt;Node7</title>
<path fill="none" stroke="midnightblue" d="M380.361,-100.008C547.957,-99.6295 925.7,-98.7759 1096.16,-98.3907"/>
<polygon fill="midnightblue" stroke="midnightblue" points="1096.35,-101.89 1106.34,-98.3676 1096.34,-94.8904 1096.35,-101.89"/>
</g>
<!-- Node8 -->
<g id="node8" class="node"><title>Node8</title>
<g id="a_node8"><a xlink:href="class_g_u_i_util_1_1_table_view_last_column_resizing_fixer.html#ad0c6ff117107634ae8d37f056d27e711" target="_top" xlink:title="GUIUtil::TableViewLastColumn\lResizingFixer::getAvailableWidth\lForColumn">
<polygon fill="white" stroke="black" points="1102,-132.696 1102,-173.696 1265,-173.696 1265,-132.696 1102,-132.696"/>
<text text-anchor="start" x="1110" y="-161.696" font-family="Helvetica,sans-Serif" font-size="10.00">GUIUtil::TableViewLastColumn</text>
<text text-anchor="start" x="1110" y="-150.696" font-family="Helvetica,sans-Serif" font-size="10.00">ResizingFixer::getAvailableWidth</text>
<text text-anchor="middle" x="1183.5" y="-139.696" font-family="Helvetica,sans-Serif" font-size="10.00">ForColumn</text>
</a>
</g>
</g>
<!-- Node2&#45;&gt;Node8 -->
<g id="edge16" class="edge"><title>Node2&#45;&gt;Node8</title>
<path fill="none" stroke="midnightblue" d="M380.303,-110.692C392.267,-112.001 404.44,-113.22 416,-114.196 659.763,-134.773 948.119,-145.894 1091.73,-150.539"/>
<polygon fill="midnightblue" stroke="midnightblue" points="1091.71,-154.04 1101.82,-150.862 1091.94,-147.044 1091.71,-154.04"/>
</g>
<!-- Node3&#45;&gt;Node1 -->
<g id="edge14" class="edge"><title>Node3&#45;&gt;Node1</title>
<path fill="none" stroke="midnightblue" d="M415.836,-172.633C355.655,-164.522 278.056,-149.93 213,-124.196 180.867,-111.485 147.951,-90.2056 124.189,-73.0814"/>
<polygon fill="midnightblue" stroke="midnightblue" points="126.003,-70.0712 115.868,-66.984 121.865,-75.7177 126.003,-70.0712"/>
</g>
<!-- Node4 -->
<g id="node4" class="node"><title>Node4</title>
<g id="a_node4"><a xlink:href="class_g_u_i_util_1_1_table_view_last_column_resizing_fixer.html#ae36cd142d60656073928ba6bd05a6661" target="_top" xlink:title="GUIUtil::TableViewLastColumn\lResizingFixer::disconnectViewHeaders\lSignals">
<polygon fill="white" stroke="black" points="651,-30.6955 651,-71.6955 841,-71.6955 841,-30.6955 651,-30.6955"/>
<text text-anchor="start" x="659" y="-59.6955" font-family="Helvetica,sans-Serif" font-size="10.00">GUIUtil::TableViewLastColumn</text>
<text text-anchor="start" x="659" y="-48.6955" font-family="Helvetica,sans-Serif" font-size="10.00">ResizingFixer::disconnectViewHeaders</text>
<text text-anchor="middle" x="746" y="-37.6955" font-family="Helvetica,sans-Serif" font-size="10.00">Signals</text>
</a>
</g>
</g>
<!-- Node3&#45;&gt;Node4 -->
<g id="edge3" class="edge"><title>Node3&#45;&gt;Node4</title>
<path fill="none" stroke="midnightblue" d="M542.712,-167.168C581.147,-145.133 653.309,-103.762 700.242,-76.8553"/>
<polygon fill="midnightblue" stroke="midnightblue" points="702.052,-79.8523 708.987,-71.8422 698.57,-73.7795 702.052,-79.8523"/>
</g>
<!-- Node6 -->
<g id="node6" class="node"><title>Node6</title>
<g id="a_node6"><a xlink:href="class_g_u_i_util_1_1_table_view_last_column_resizing_fixer.html#a9abbf570cbaad95acfd772ddf712cbbb" target="_top" xlink:title="GUIUtil::TableViewLastColumn\lResizingFixer::getColumnsWidth">
<polygon fill="white" stroke="black" points="1301,-138.196 1301,-168.196 1463,-168.196 1463,-138.196 1301,-138.196"/>
<text text-anchor="start" x="1309" y="-156.196" font-family="Helvetica,sans-Serif" font-size="10.00">GUIUtil::TableViewLastColumn</text>
<text text-anchor="middle" x="1382" y="-145.196" font-family="Helvetica,sans-Serif" font-size="10.00">ResizingFixer::getColumnsWidth</text>
</a>
</g>
</g>
<!-- Node3&#45;&gt;Node6 -->
<g id="edge15" class="edge"><title>Node3&#45;&gt;Node6</title>
<path fill="none" stroke="midnightblue" d="M565.48,-197.222C590.752,-204.203 622.237,-211.719 651,-215.196 922.284,-247.989 997.128,-237.187 1265,-183.196 1282.3,-179.708 1300.88,-175.237 1317.98,-170.817"/>
<polygon fill="midnightblue" stroke="midnightblue" points="1319.07,-174.149 1327.86,-168.229 1317.3,-167.378 1319.07,-174.149"/>
</g>
<!-- Node3&#45;&gt;Node7 -->
<g id="edge12" class="edge"><title>Node3&#45;&gt;Node7</title>
<path fill="none" stroke="midnightblue" d="M615.319,-170.37C725.36,-157.108 908.487,-134.757 1066,-114.196 1075.79,-112.917 1086.04,-111.551 1096.23,-110.175"/>
<polygon fill="midnightblue" stroke="midnightblue" points="1096.94,-113.611 1106.38,-108.799 1096,-106.674 1096.94,-113.611"/>
</g>
<!-- Node3&#45;&gt;Node8 -->
<g id="edge13" class="edge"><title>Node3&#45;&gt;Node8</title>
<path fill="none" stroke="midnightblue" d="M615.212,-193.531C725.738,-203.935 909.842,-214.397 1066,-190.196 1083.79,-187.438 1102.59,-182.444 1119.77,-176.999"/>
<polygon fill="midnightblue" stroke="midnightblue" points="1121.26,-180.192 1129.68,-173.754 1119.08,-173.54 1121.26,-180.192"/>
</g>
<!-- Node4&#45;&gt;Node2 -->
<g id="edge4" class="edge"><title>Node4&#45;&gt;Node2</title>
<path fill="none" stroke="midnightblue" d="M650.661,-60.938C584.871,-67.8041 495.058,-77.3205 416,-86.1955 407.64,-87.134 398.95,-88.1271 390.246,-89.1338"/>
<polygon fill="midnightblue" stroke="midnightblue" points="389.569,-85.6887 380.04,-90.3193 390.377,-92.642 389.569,-85.6887"/>
</g>
<!-- Node4&#45;&gt;Node5 -->
<g id="edge5" class="edge"><title>Node4&#45;&gt;Node5</title>
<path fill="none" stroke="midnightblue" d="M841.136,-44.5206C849.625,-44.4477 858.253,-44.4279 866.818,-44.4612"/>
<polygon fill="midnightblue" stroke="midnightblue" points="866.808,-47.9611 876.83,-44.5247 866.853,-40.9613 866.808,-47.9611"/>
</g>
<!-- Node5&#45;&gt;Node1 -->
<g id="edge11" class="edge"><title>Node5&#45;&gt;Node1</title>
<path fill="none" stroke="midnightblue" d="M878.63,-36.1288C866.062,-33.7243 853.267,-31.5978 841,-30.1955 607.635,-3.51814 331.067,-26.6918 187.312,-39.694"/>
<polygon fill="midnightblue" stroke="midnightblue" points="186.836,-36.2227 177.193,-40.6118 187.468,-43.1941 186.836,-36.2227"/>
</g>
<!-- Node5&#45;&gt;Node4 -->
<g id="edge7" class="edge"><title>Node5&#45;&gt;Node4</title>
<path fill="none" stroke="midnightblue" d="M876.83,-57.8664C868.346,-57.9413 859.72,-57.963 851.153,-57.9317"/>
<polygon fill="midnightblue" stroke="midnightblue" points="851.158,-54.4317 841.136,-57.8705 851.115,-61.4316 851.158,-54.4317"/>
</g>
<!-- Node5&#45;&gt;Node6 -->
<g id="edge6" class="edge"><title>Node5&#45;&gt;Node6</title>
<path fill="none" stroke="midnightblue" d="M1066.29,-45.9328C1124.97,-45.608 1201.25,-50.6885 1265,-73.1955 1300.75,-85.8174 1335.72,-112.474 1357.76,-131.548"/>
<polygon fill="midnightblue" stroke="midnightblue" points="1355.47,-134.188 1365.27,-138.192 1360.1,-128.945 1355.47,-134.188"/>
</g>
<!-- Node5&#45;&gt;Node7 -->
<g id="edge8" class="edge"><title>Node5&#45;&gt;Node7</title>
<path fill="none" stroke="midnightblue" d="M1039.52,-66.1959C1060.55,-70.9019 1083.92,-76.1334 1105.58,-80.98"/>
<polygon fill="midnightblue" stroke="midnightblue" points="1104.87,-84.4079 1115.39,-83.1765 1106.4,-77.5769 1104.87,-84.4079"/>
</g>
<!-- Node5&#45;&gt;Node8 -->
<g id="edge9" class="edge"><title>Node5&#45;&gt;Node8</title>
<path fill="none" stroke="midnightblue" d="M997.776,-66.3741C1023.51,-81.5078 1064.79,-104.924 1102,-122.196 1106.72,-124.386 1111.64,-126.552 1116.62,-128.661"/>
<polygon fill="midnightblue" stroke="midnightblue" points="1115.65,-132.049 1126.23,-132.637 1118.33,-125.581 1115.65,-132.049"/>
</g>
<!-- Node8&#45;&gt;Node6 -->
<g id="edge10" class="edge"><title>Node8&#45;&gt;Node6</title>
<path fill="none" stroke="midnightblue" d="M1265.27,-153.196C1273.63,-153.196 1282.16,-153.196 1290.61,-153.196"/>
<polygon fill="midnightblue" stroke="midnightblue" points="1290.86,-156.696 1300.86,-153.196 1290.86,-149.696 1290.86,-156.696"/>
</g>
</g>
</svg>
