<?xml version="1.0" encoding="UTF-8" standalone="no"?>
<!DOCTYPE svg PUBLIC "-//W3C//DTD SVG 1.1//EN"
 "http://www.w3.org/Graphics/SVG/1.1/DTD/svg11.dtd">
<!-- Generated by graphviz version 2.38.0 (20140413.2041)
 -->
<!-- Title: CMerkleTx::AcceptToMemoryPool Pages: 1 -->
<svg width="787pt" height="164pt"
 viewBox="0.00 0.00 787.00 164.00" xmlns="http://www.w3.org/2000/svg" xmlns:xlink="http://www.w3.org/1999/xlink">
<g id="graph0" class="graph" transform="scale(1 1) rotate(0) translate(4 160)">
<title>CMerkleTx::AcceptToMemoryPool</title>
<polygon fill="white" stroke="none" points="-4,4 -4,-160 783,-160 783,4 -4,4"/>
<!-- Node1 -->
<g id="node1" class="node"><title>Node1</title>
<polygon fill="#bfbfbf" stroke="black" points="0,-57.5 0,-76.5 169,-76.5 169,-57.5 0,-57.5"/>
<text text-anchor="middle" x="84.5" y="-64.5" font-family="Helvetica,sans-Serif" font-size="10.00">CMerkleTx::AcceptToMemoryPool</text>
</g>
<!-- Node2 -->
<g id="node2" class="node"><title>Node2</title>
<g id="a_node2"><a xlink:href="class_c_wallet.html#a796c23450c8482e10e0c75ae5c1fa8ed" target="_top" xlink:title="CWallet::ReacceptWalletTransactions">
<polygon fill="white" stroke="black" points="205,-76.5 205,-95.5 389,-95.5 389,-76.5 205,-76.5"/>
<text text-anchor="middle" x="297" y="-83.5" font-family="Helvetica,sans-Serif" font-size="10.00">CWallet::ReacceptWalletTransactions</text>
</a>
</g>
</g>
<!-- Node1&#45;&gt;Node2 -->
<g id="edge1" class="edge"><title>Node1&#45;&gt;Node2</title>
<path fill="none" stroke="midnightblue" d="M179.519,-75.4863C187.948,-76.2471 196.475,-77.0167 204.879,-77.7753"/>
<polygon fill="midnightblue" stroke="midnightblue" points="179.574,-71.9771 169.3,-74.5639 178.945,-78.9488 179.574,-71.9771"/>
</g>
<!-- Node8 -->
<g id="node8" class="node"><title>Node8</title>
<g id="a_node8"><a xlink:href="class_c_wallet.html#ac30e619488120651a6753195b77f3ad8" target="_top" xlink:title="CWallet::CommitTransaction">
<polygon fill="white" stroke="black" points="225,-38.5 225,-57.5 369,-57.5 369,-38.5 225,-38.5"/>
<text text-anchor="middle" x="297" y="-45.5" font-family="Helvetica,sans-Serif" font-size="10.00">CWallet::CommitTransaction</text>
</a>
</g>
</g>
<!-- Node1&#45;&gt;Node8 -->
<g id="edge7" class="edge"><title>Node1&#45;&gt;Node8</title>
<path fill="none" stroke="midnightblue" d="M179.263,-58.5368C194.516,-57.1601 210.095,-55.7539 224.698,-54.4358"/>
<polygon fill="midnightblue" stroke="midnightblue" points="178.945,-55.0512 169.3,-59.4361 179.574,-62.0229 178.945,-55.0512"/>
</g>
<!-- Node3 -->
<g id="node3" class="node"><title>Node3</title>
<g id="a_node3"><a xlink:href="init_8h.html#a1a4c1bfbf6ba1db77e988b89b9cadfd3" target="_top" xlink:title="Initialize anoncoin. ">
<polygon fill="white" stroke="black" points="460.5,-114.5 460.5,-133.5 513.5,-133.5 513.5,-114.5 460.5,-114.5"/>
<text text-anchor="middle" x="487" y="-121.5" font-family="Helvetica,sans-Serif" font-size="10.00">AppInit2</text>
</a>
</g>
</g>
<!-- Node2&#45;&gt;Node3 -->
<g id="edge2" class="edge"><title>Node2&#45;&gt;Node3</title>
<path fill="none" stroke="midnightblue" d="M355.541,-97.6307C390.515,-104.7 433.458,-113.38 460.284,-118.802"/>
<polygon fill="midnightblue" stroke="midnightblue" points="355.936,-94.1397 345.44,-95.589 354.549,-101.001 355.936,-94.1397"/>
</g>
<!-- Node7 -->
<g id="node7" class="node"><title>Node7</title>
<g id="a_node7"><a xlink:href="rpcdump_8cpp.html#a457bc572859c8265c72a0afd1a6db56c" target="_top" xlink:title="importaddress">
<polygon fill="white" stroke="black" points="447,-76.5 447,-95.5 527,-95.5 527,-76.5 447,-76.5"/>
<text text-anchor="middle" x="487" y="-83.5" font-family="Helvetica,sans-Serif" font-size="10.00">importaddress</text>
</a>
</g>
</g>
<!-- Node2&#45;&gt;Node7 -->
<g id="edge6" class="edge"><title>Node2&#45;&gt;Node7</title>
<path fill="none" stroke="midnightblue" d="M399.662,-86C416.353,-86 432.72,-86 446.639,-86"/>
<polygon fill="midnightblue" stroke="midnightblue" points="399.246,-82.5001 389.246,-86 399.246,-89.5001 399.246,-82.5001"/>
</g>
<!-- Node4 -->
<g id="node4" class="node"><title>Node4</title>
<g id="a_node4"><a xlink:href="anoncoind_8cpp.html#ac59316b767e6984e1285f0531275286b" target="_top" xlink:title="AppInit">
<polygon fill="white" stroke="black" points="621,-136.5 621,-155.5 669,-155.5 669,-136.5 621,-136.5"/>
<text text-anchor="middle" x="645" y="-143.5" font-family="Helvetica,sans-Serif" font-size="10.00">AppInit</text>
</a>
</g>
</g>
<!-- Node3&#45;&gt;Node4 -->
<g id="edge3" class="edge"><title>Node3&#45;&gt;Node4</title>
<path fill="none" stroke="midnightblue" d="M523.761,-129.043C553.551,-133.244 595.112,-139.106 620.751,-142.721"/>
<polygon fill="midnightblue" stroke="midnightblue" points="524.151,-125.564 513.76,-127.633 523.173,-132.495 524.151,-125.564"/>
</g>
<!-- Node6 -->
<g id="node6" class="node"><title>Node6</title>
<g id="a_node6"><a xlink:href="class_anoncoin_coin.html#a9510881824d283404ac43414dbb74586" target="_top" xlink:title="AnoncoinCoin::initialize">
<polygon fill="white" stroke="black" points="585,-98.5 585,-117.5 705,-117.5 705,-98.5 585,-98.5"/>
<text text-anchor="middle" x="645" y="-105.5" font-family="Helvetica,sans-Serif" font-size="10.00">AnoncoinCoin::initialize</text>
</a>
</g>
</g>
<!-- Node3&#45;&gt;Node6 -->
<g id="edge5" class="edge"><title>Node3&#45;&gt;Node6</title>
<path fill="none" stroke="midnightblue" d="M523.85,-120.323C541.911,-118.471 564.281,-116.176 584.804,-114.071"/>
<polygon fill="midnightblue" stroke="midnightblue" points="523.351,-116.856 513.76,-121.358 524.065,-123.819 523.351,-116.856"/>
</g>
<!-- Node5 -->
<g id="node5" class="node"><title>Node5</title>
<g id="a_node5"><a xlink:href="anoncoind_8cpp.html#a0ddf1224851353fc92bfbff6f499fa97" target="_top" xlink:title="main">
<polygon fill="white" stroke="black" points="741,-136.5 741,-155.5 779,-155.5 779,-136.5 741,-136.5"/>
<text text-anchor="middle" x="760" y="-143.5" font-family="Helvetica,sans-Serif" font-size="10.00">main</text>
</a>
</g>
</g>
<!-- Node4&#45;&gt;Node5 -->
<g id="edge4" class="edge"><title>Node4&#45;&gt;Node5</title>
<path fill="none" stroke="midnightblue" d="M679.146,-146C699.247,-146 724.134,-146 740.731,-146"/>
<polygon fill="midnightblue" stroke="midnightblue" points="679.14,-142.5 669.14,-146 679.14,-149.5 679.14,-142.5"/>
</g>
<!-- Node9 -->
<g id="node9" class="node"><title>Node9</title>
<g id="a_node9"><a xlink:href="class_wallet_model.html#a53443aca544c824550f21e5f87e4ec39" target="_top" xlink:title="WalletModel::sendCoins">
<polygon fill="white" stroke="black" points="425,-38.5 425,-57.5 549,-57.5 549,-38.5 425,-38.5"/>
<text text-anchor="middle" x="487" y="-45.5" font-family="Helvetica,sans-Serif" font-size="10.00">WalletModel::sendCoins</text>
</a>
</g>
</g>
<!-- Node8&#45;&gt;Node9 -->
<g id="edge8" class="edge"><title>Node8&#45;&gt;Node9</title>
<path fill="none" stroke="midnightblue" d="M379.099,-48C394.484,-48 410.338,-48 424.972,-48"/>
<polygon fill="midnightblue" stroke="midnightblue" points="379.075,-44.5001 369.075,-48 379.075,-51.5001 379.075,-44.5001"/>
</g>
<!-- Node11 -->
<g id="node11" class="node"><title>Node11</title>
<g id="a_node11"><a xlink:href="rpcwallet_8cpp.html#adeb5f23f20fb4e589dab23cadf75c92d" target="_top" xlink:title="sendmany">
<polygon fill="white" stroke="black" points="455.5,-0.5 455.5,-19.5 518.5,-19.5 518.5,-0.5 455.5,-0.5"/>
<text text-anchor="middle" x="487" y="-7.5" font-family="Helvetica,sans-Serif" font-size="10.00">sendmany</text>
</a>
</g>
</g>
<!-- Node8&#45;&gt;Node11 -->
<g id="edge10" class="edge"><title>Node8&#45;&gt;Node11</title>
<path fill="none" stroke="midnightblue" d="M355.411,-36.3957C388.345,-29.7388 428.38,-21.6467 455.37,-16.1913"/>
<polygon fill="midnightblue" stroke="midnightblue" points="354.549,-32.9991 345.44,-38.411 355.936,-39.8603 354.549,-32.9991"/>
</g>
<!-- Node10 -->
<g id="node10" class="node"><title>Node10</title>
<g id="a_node10"><a xlink:href="class_send_coins_dialog.html#a2cab7cf9ea5040b9e2189297f7d3c764" target="_top" xlink:title="SendCoinsDialog::on\l_sendButton_clicked">
<polygon fill="white" stroke="black" points="590,-33 590,-63 700,-63 700,-33 590,-33"/>
<text text-anchor="start" x="598" y="-51" font-family="Helvetica,sans-Serif" font-size="10.00">SendCoinsDialog::on</text>
<text text-anchor="middle" x="645" y="-40" font-family="Helvetica,sans-Serif" font-size="10.00">_sendButton_clicked</text>
</a>
</g>
</g>
<!-- Node9&#45;&gt;Node10 -->
<g id="edge9" class="edge"><title>Node9&#45;&gt;Node10</title>
<path fill="none" stroke="midnightblue" d="M559.363,-48C569.595,-48 579.981,-48 589.809,-48"/>
<polygon fill="midnightblue" stroke="midnightblue" points="559.208,-44.5001 549.208,-48 559.208,-51.5001 559.208,-44.5001"/>
</g>
</g>
</svg>
