<?xml version="1.0" encoding="UTF-8" standalone="no"?>
<!DOCTYPE svg PUBLIC "-//W3C//DTD SVG 1.1//EN"
 "http://www.w3.org/Graphics/SVG/1.1/DTD/svg11.dtd">
<!-- Generated by graphviz version 2.38.0 (20140413.2041)
 -->
<!-- Title: PeerTablePriv::index Pages: 1 -->
<svg width="1316pt" height="96pt"
 viewBox="0.00 0.00 1316.00 95.50" xmlns="http://www.w3.org/2000/svg" xmlns:xlink="http://www.w3.org/1999/xlink">
<g id="graph0" class="graph" transform="scale(1 1) rotate(0) translate(4 91.5)">
<title>PeerTablePriv::index</title>
<polygon fill="white" stroke="none" points="-4,4 -4,-91.5 1312,-91.5 1312,4 -4,4"/>
<!-- Node1 -->
<g id="node1" class="node"><title>Node1</title>
<polygon fill="#bfbfbf" stroke="black" points="0,-49 0,-68 109,-68 109,-49 0,-49"/>
<text text-anchor="middle" x="54.5" y="-56" font-family="Helvetica,sans-Serif" font-size="10.00">PeerTablePriv::index</text>
</g>
<!-- Node2 -->
<g id="node2" class="node"><title>Node2</title>
<g id="a_node2"><a xlink:href="class_peer_table_model.html#addd566b4bd58315a6db0fbd7e8c6b70a" target="_top" xlink:title="PeerTableModel::index">
<polygon fill="white" stroke="black" points="163.5,-68 163.5,-87 282.5,-87 282.5,-68 163.5,-68"/>
<text text-anchor="middle" x="223" y="-75" font-family="Helvetica,sans-Serif" font-size="10.00">PeerTableModel::index</text>
</a>
</g>
</g>
<!-- Node1&#45;&gt;Node2 -->
<g id="edge1" class="edge"><title>Node1&#45;&gt;Node2</title>
<path fill="none" stroke="midnightblue" d="M119.434,-65.7958C133.865,-67.4425 149.114,-69.1827 163.317,-70.8034"/>
<polygon fill="midnightblue" stroke="midnightblue" points="119.431,-62.2727 109.098,-64.6163 118.637,-69.2276 119.431,-62.2727"/>
</g>
<!-- Node3 -->
<g id="node3" class="node"><title>Node3</title>
<g id="a_node3"><a xlink:href="class_peer_table_model.html#a98084d3299642316c71c5de3d36b9859" target="_top" xlink:title="PeerTableModel::getNodeStats">
<polygon fill="white" stroke="black" points="145,-30 145,-49 301,-49 301,-30 145,-30"/>
<text text-anchor="middle" x="223" y="-37" font-family="Helvetica,sans-Serif" font-size="10.00">PeerTableModel::getNodeStats</text>
</a>
</g>
</g>
<!-- Node1&#45;&gt;Node3 -->
<g id="edge2" class="edge"><title>Node1&#45;&gt;Node3</title>
<path fill="none" stroke="midnightblue" d="M119.18,-51.2332C127.581,-50.2746 136.263,-49.2838 144.858,-48.303"/>
<polygon fill="midnightblue" stroke="midnightblue" points="118.637,-47.7724 109.098,-52.3837 119.431,-54.7273 118.637,-47.7724"/>
</g>
<!-- Node4 -->
<g id="node4" class="node"><title>Node4</title>
<g id="a_node4"><a xlink:href="class_r_p_c_console.html#a2487fa6a90cddcbb17ae4bb13ecc5359" target="_top" xlink:title="Handle selection of peer in peers list. ">
<polygon fill="white" stroke="black" points="352.5,-49 352.5,-68 491.5,-68 491.5,-49 352.5,-49"/>
<text text-anchor="middle" x="422" y="-56" font-family="Helvetica,sans-Serif" font-size="10.00">RPCConsole::peerSelected</text>
</a>
</g>
</g>
<!-- Node3&#45;&gt;Node4 -->
<g id="edge3" class="edge"><title>Node3&#45;&gt;Node4</title>
<path fill="none" stroke="midnightblue" d="M311.025,-47.8933C324.873,-49.2289 339.028,-50.5941 352.375,-51.8813"/>
<polygon fill="midnightblue" stroke="midnightblue" points="311.302,-44.4038 301.012,-46.9275 310.63,-51.3715 311.302,-44.4038"/>
</g>
<!-- Node12 -->
<g id="node12" class="node"><title>Node12</title>
<g id="a_node12"><a xlink:href="class_r_p_c_console.html#af952ebc6484c8f7d1262fa0bceed41bf" target="_top" xlink:title="Handle updated peer information. ">
<polygon fill="white" stroke="black" points="337,-11 337,-30 507,-30 507,-11 337,-11"/>
<text text-anchor="middle" x="422" y="-18" font-family="Helvetica,sans-Serif" font-size="10.00">RPCConsole::peerLayoutChanged</text>
</a>
</g>
</g>
<!-- Node3&#45;&gt;Node12 -->
<g id="edge11" class="edge"><title>Node3&#45;&gt;Node12</title>
<path fill="none" stroke="midnightblue" d="M311.023,-31.107C319.61,-30.2787 328.316,-29.4391 336.873,-28.6137"/>
<polygon fill="midnightblue" stroke="midnightblue" points="310.63,-27.6285 301.012,-32.0725 311.302,-34.5962 310.63,-27.6285"/>
</g>
<!-- Node5 -->
<g id="node5" class="node"><title>Node5</title>
<g id="a_node5"><a xlink:href="class_r_p_c_console.html#a355349a33664a07628e9ca22a60f5fa7" target="_top" xlink:title="RPCConsole::setClientModel">
<polygon fill="white" stroke="black" points="543,-30 543,-49 689,-49 689,-30 543,-30"/>
<text text-anchor="middle" x="616" y="-37" font-family="Helvetica,sans-Serif" font-size="10.00">RPCConsole::setClientModel</text>
</a>
</g>
</g>
<!-- Node4&#45;&gt;Node5 -->
<g id="edge4" class="edge"><title>Node4&#45;&gt;Node5</title>
<path fill="none" stroke="midnightblue" d="M501.806,-50.7015C515.426,-49.3537 529.523,-47.9587 542.952,-46.6297"/>
<polygon fill="midnightblue" stroke="midnightblue" points="501.11,-47.2532 491.503,-51.721 501.799,-54.2192 501.11,-47.2532"/>
</g>
<!-- Node6 -->
<g id="node6" class="node"><title>Node6</title>
<g id="a_node6"><a xlink:href="class_anoncoin_g_u_i.html#ab6dbbc9dae6aee55656d615c1aff5399" target="_top" xlink:title="Set the client model. ">
<polygon fill="white" stroke="black" points="725,-30 725,-49 873,-49 873,-30 725,-30"/>
<text text-anchor="middle" x="799" y="-37" font-family="Helvetica,sans-Serif" font-size="10.00">AnoncoinGUI::setClientModel</text>
</a>
</g>
</g>
<!-- Node5&#45;&gt;Node6 -->
<g id="edge5" class="edge"><title>Node5&#45;&gt;Node6</title>
<path fill="none" stroke="midnightblue" d="M699.318,-39.5C707.786,-39.5 716.35,-39.5 724.712,-39.5"/>
<polygon fill="midnightblue" stroke="midnightblue" points="699.056,-36.0001 689.056,-39.5 699.056,-43.0001 699.056,-36.0001"/>
</g>
<!-- Node7 -->
<g id="node7" class="node"><title>Node7</title>
<g id="a_node7"><a xlink:href="class_anoncoin_application.html#a931ed67447cc07f1e0f32327b122af01" target="_top" xlink:title="Request core shutdown. ">
<polygon fill="white" stroke="black" points="909,-49.5 909,-79.5 1016,-79.5 1016,-49.5 909,-49.5"/>
<text text-anchor="start" x="917" y="-67.5" font-family="Helvetica,sans-Serif" font-size="10.00">AnoncoinApplication</text>
<text text-anchor="middle" x="962.5" y="-56.5" font-family="Helvetica,sans-Serif" font-size="10.00">::requestShutdown</text>
</a>
</g>
</g>
<!-- Node6&#45;&gt;Node7 -->
<g id="edge6" class="edge"><title>Node6&#45;&gt;Node7</title>
<path fill="none" stroke="midnightblue" d="M871.501,-50.5682C884.06,-52.5123 896.921,-54.5033 908.848,-56.3496"/>
<polygon fill="midnightblue" stroke="midnightblue" points="871.935,-47.0938 861.517,-49.0227 870.864,-54.0114 871.935,-47.0938"/>
</g>
<!-- Node9 -->
<g id="node9" class="node"><title>Node9</title>
<g id="a_node9"><a xlink:href="class_anoncoin_application.html#a565d432edd9d4fc30ce60bfd8d5699e3" target="_top" xlink:title="AnoncoinApplication\l::initializeResult">
<polygon fill="white" stroke="black" points="909,-0.5 909,-30.5 1016,-30.5 1016,-0.5 909,-0.5"/>
<text text-anchor="start" x="917" y="-18.5" font-family="Helvetica,sans-Serif" font-size="10.00">AnoncoinApplication</text>
<text text-anchor="middle" x="962.5" y="-7.5" font-family="Helvetica,sans-Serif" font-size="10.00">::initializeResult</text>
</a>
</g>
</g>
<!-- Node6&#45;&gt;Node9 -->
<g id="edge8" class="edge"><title>Node6&#45;&gt;Node9</title>
<path fill="none" stroke="midnightblue" d="M874.431,-28.439C886.047,-26.7128 897.838,-24.9606 908.835,-23.3263"/>
<polygon fill="midnightblue" stroke="midnightblue" points="873.67,-25.0136 864.293,-29.9456 874.699,-31.9376 873.67,-25.0136"/>
</g>
<!-- Node8 -->
<g id="node8" class="node"><title>Node8</title>
<g id="a_node8"><a xlink:href="anoncoin_8cpp.html#a0ddf1224851353fc92bfbff6f499fa97" target="_top" xlink:title="main">
<polygon fill="white" stroke="black" points="1086.5,-55 1086.5,-74 1124.5,-74 1124.5,-55 1086.5,-55"/>
<text text-anchor="middle" x="1105.5" y="-62" font-family="Helvetica,sans-Serif" font-size="10.00">main</text>
</a>
</g>
</g>
<!-- Node7&#45;&gt;Node8 -->
<g id="edge7" class="edge"><title>Node7&#45;&gt;Node8</title>
<path fill="none" stroke="midnightblue" d="M1026.29,-64.5C1048.19,-64.5 1071.08,-64.5 1086.4,-64.5"/>
<polygon fill="midnightblue" stroke="midnightblue" points="1026,-61.0001 1016,-64.5 1026,-68.0001 1026,-61.0001"/>
</g>
<!-- Node10 -->
<g id="node10" class="node"><title>Node10</title>
<g id="a_node10"><a xlink:href="class_anoncoin_application.html#a757849a7d52cb0559592ba4194f4872c" target="_top" xlink:title="AnoncoinApplication\l::startThread">
<polygon fill="white" stroke="black" points="1052,-0.5 1052,-30.5 1159,-30.5 1159,-0.5 1052,-0.5"/>
<text text-anchor="start" x="1060" y="-18.5" font-family="Helvetica,sans-Serif" font-size="10.00">AnoncoinApplication</text>
<text text-anchor="middle" x="1105.5" y="-7.5" font-family="Helvetica,sans-Serif" font-size="10.00">::startThread</text>
</a>
</g>
</g>
<!-- Node9&#45;&gt;Node10 -->
<g id="edge9" class="edge"><title>Node9&#45;&gt;Node10</title>
<path fill="none" stroke="midnightblue" d="M1026.05,-15.5C1034.7,-15.5 1043.51,-15.5 1051.95,-15.5"/>
<polygon fill="midnightblue" stroke="midnightblue" points="1026,-12.0001 1016,-15.5 1026,-19.0001 1026,-12.0001"/>
</g>
<!-- Node11 -->
<g id="node11" class="node"><title>Node11</title>
<g id="a_node11"><a xlink:href="class_anoncoin_application.html#a4e345b36dac09420eac7edc10fa4ffcf" target="_top" xlink:title="AnoncoinApplication\l::AnoncoinApplication">
<polygon fill="white" stroke="black" points="1195,-0.5 1195,-30.5 1308,-30.5 1308,-0.5 1195,-0.5"/>
<text text-anchor="start" x="1203" y="-18.5" font-family="Helvetica,sans-Serif" font-size="10.00">AnoncoinApplication</text>
<text text-anchor="middle" x="1251.5" y="-7.5" font-family="Helvetica,sans-Serif" font-size="10.00">::AnoncoinApplication</text>
</a>
</g>
</g>
<!-- Node10&#45;&gt;Node11 -->
<g id="edge10" class="edge"><title>Node10&#45;&gt;Node11</title>
<path fill="none" stroke="midnightblue" d="M1169.47,-15.5C1177.9,-15.5 1186.5,-15.5 1194.8,-15.5"/>
<polygon fill="midnightblue" stroke="midnightblue" points="1169.3,-12.0001 1159.3,-15.5 1169.3,-19.0001 1169.3,-12.0001"/>
</g>
<!-- Node12&#45;&gt;Node5 -->
<g id="edge12" class="edge"><title>Node12&#45;&gt;Node5</title>
<path fill="none" stroke="midnightblue" d="M517.287,-29.8305C525.889,-30.6818 534.51,-31.5348 542.872,-32.3624"/>
<polygon fill="midnightblue" stroke="midnightblue" points="517.51,-26.3356 507.214,-28.8337 516.821,-33.3015 517.51,-26.3356"/>
</g>
</g>
</svg>
