<?xml version="1.0" encoding="UTF-8" standalone="no"?>
<!DOCTYPE svg PUBLIC "-//W3C//DTD SVG 1.1//EN"
 "http://www.w3.org/Graphics/SVG/1.1/DTD/svg11.dtd">
<!-- Generated by graphviz version 2.38.0 (20140413.2041)
 -->
<!-- Title: libzerocoin::SerialNumberSignatureOfKnowledge::Verify Pages: 1 -->
<svg width="661pt" height="66pt"
 viewBox="0.00 0.00 661.00 66.00" xmlns="http://www.w3.org/2000/svg" xmlns:xlink="http://www.w3.org/1999/xlink">
<g id="graph0" class="graph" transform="scale(1 1) rotate(0) translate(4 62)">
<title>libzerocoin::SerialNumberSignatureOfKnowledge::Verify</title>
<polygon fill="white" stroke="none" points="-4,4 -4,-62 657,-62 657,4 -4,4"/>
<!-- Node1 -->
<g id="node1" class="node"><title>Node1</title>
<polygon fill="#bfbfbf" stroke="black" points="0,-14 0,-44 150,-44 150,-14 0,-14"/>
<text text-anchor="start" x="8" y="-32" font-family="Helvetica,sans-Serif" font-size="10.00">libzerocoin::SerialNumber</text>
<text text-anchor="middle" x="75" y="-21" font-family="Helvetica,sans-Serif" font-size="10.00">SignatureOfKnowledge::Verify</text>
</g>
<!-- Node2 -->
<g id="node2" class="node"><title>Node2</title>
<g id="a_node2"><a xlink:href="classlibzerocoin_1_1_coin_spend.html#a9048dabc1be9ef65aeefb41e92e2f53c" target="_top" xlink:title="libzerocoin::CoinSpend\l::Verify">
<polygon fill="white" stroke="black" points="186,-14 186,-44 305,-44 305,-14 186,-14"/>
<text text-anchor="start" x="194" y="-32" font-family="Helvetica,sans-Serif" font-size="10.00">libzerocoin::CoinSpend</text>
<text text-anchor="middle" x="245.5" y="-21" font-family="Helvetica,sans-Serif" font-size="10.00">::Verify</text>
</a>
</g>
</g>
<!-- Node1&#45;&gt;Node2 -->
<g id="edge1" class="edge"><title>Node1&#45;&gt;Node2</title>
<path fill="none" stroke="midnightblue" d="M160.481,-29C169.088,-29 177.691,-29 185.933,-29"/>
<polygon fill="midnightblue" stroke="midnightblue" points="160.397,-25.5001 150.397,-29 160.397,-32.5001 160.397,-25.5001"/>
</g>
<!-- Node3 -->
<g id="node3" class="node"><title>Node3</title>
<g id="a_node3"><a xlink:href="_benchmark_8cpp.html#ad4c256613fa000fd3d3ec247021a6522" target="_top" xlink:title="Test_MintAndSpend">
<polygon fill="white" stroke="black" points="341,-38.5 341,-57.5 448,-57.5 448,-38.5 341,-38.5"/>
<text text-anchor="middle" x="394.5" y="-45.5" font-family="Helvetica,sans-Serif" font-size="10.00">Test_MintAndSpend</text>
</a>
</g>
</g>
<!-- Node2&#45;&gt;Node3 -->
<g id="edge2" class="edge"><title>Node2&#45;&gt;Node3</title>
<path fill="none" stroke="midnightblue" d="M315.119,-37.8691C323.781,-38.9887 332.534,-40.12 340.893,-41.2005"/>
<polygon fill="midnightblue" stroke="midnightblue" points="315.387,-34.3747 305.021,-36.5639 314.489,-41.317 315.387,-34.3747"/>
</g>
<!-- Node6 -->
<g id="node6" class="node"><title>Node6</title>
<g id="a_node6"><a xlink:href="_tutorial_8cpp.html#a297c1339eda300b5818bf669440b3a7d" target="_top" xlink:title="ZerocoinTutorial">
<polygon fill="white" stroke="black" points="350,-0.5 350,-19.5 439,-19.5 439,-0.5 350,-0.5"/>
<text text-anchor="middle" x="394.5" y="-7.5" font-family="Helvetica,sans-Serif" font-size="10.00">ZerocoinTutorial</text>
</a>
</g>
</g>
<!-- Node2&#45;&gt;Node6 -->
<g id="edge5" class="edge"><title>Node2&#45;&gt;Node6</title>
<path fill="none" stroke="midnightblue" d="M315.245,-20.1146C326.96,-18.6004 338.838,-17.0652 349.68,-15.6638"/>
<polygon fill="midnightblue" stroke="midnightblue" points="314.489,-16.683 305.021,-21.4361 315.387,-23.6253 314.489,-16.683"/>
</g>
<!-- Node4 -->
<g id="node4" class="node"><title>Node4</title>
<g id="a_node4"><a xlink:href="_benchmark_8cpp.html#a270b3d0914e20b5c58ab92bc2823c1d1" target="_top" xlink:title="Test_RunAllTests">
<polygon fill="white" stroke="black" points="484,-38.5 484,-57.5 579,-57.5 579,-38.5 484,-38.5"/>
<text text-anchor="middle" x="531.5" y="-45.5" font-family="Helvetica,sans-Serif" font-size="10.00">Test_RunAllTests</text>
</a>
</g>
</g>
<!-- Node3&#45;&gt;Node4 -->
<g id="edge3" class="edge"><title>Node3&#45;&gt;Node4</title>
<path fill="none" stroke="midnightblue" d="M458.194,-48C466.88,-48 475.673,-48 483.993,-48"/>
<polygon fill="midnightblue" stroke="midnightblue" points="458.081,-44.5001 448.081,-48 458.081,-51.5001 458.081,-44.5001"/>
</g>
<!-- Node5 -->
<g id="node5" class="node"><title>Node5</title>
<g id="a_node5"><a xlink:href="_benchmark_8cpp.html#a3c04138a5bfe5d72780bb7e82a18e627" target="_top" xlink:title="main">
<polygon fill="white" stroke="black" points="615,-38.5 615,-57.5 653,-57.5 653,-38.5 615,-38.5"/>
<text text-anchor="middle" x="634" y="-45.5" font-family="Helvetica,sans-Serif" font-size="10.00">main</text>
</a>
</g>
</g>
<!-- Node4&#45;&gt;Node5 -->
<g id="edge4" class="edge"><title>Node4&#45;&gt;Node5</title>
<path fill="none" stroke="midnightblue" d="M589.352,-48C598.636,-48 607.614,-48 614.989,-48"/>
<polygon fill="midnightblue" stroke="midnightblue" points="589.219,-44.5001 579.219,-48 589.219,-51.5001 589.219,-44.5001"/>
</g>
<!-- Node7 -->
<g id="node7" class="node"><title>Node7</title>
<g id="a_node7"><a xlink:href="_tutorial_8cpp.html#a3c04138a5bfe5d72780bb7e82a18e627" target="_top" xlink:title="main">
<polygon fill="white" stroke="black" points="512.5,-0.5 512.5,-19.5 550.5,-19.5 550.5,-0.5 512.5,-0.5"/>
<text text-anchor="middle" x="531.5" y="-7.5" font-family="Helvetica,sans-Serif" font-size="10.00">main</text>
</a>
</g>
</g>
<!-- Node6&#45;&gt;Node7 -->
<g id="edge6" class="edge"><title>Node6&#45;&gt;Node7</title>
<path fill="none" stroke="midnightblue" d="M449.429,-10C471.807,-10 496.261,-10 512.395,-10"/>
<polygon fill="midnightblue" stroke="midnightblue" points="449.331,-6.5001 439.331,-10 449.331,-13.5001 449.331,-6.5001"/>
</g>
</g>
</svg>
