<?xml version="1.0" encoding="UTF-8" standalone="no"?>
<!DOCTYPE svg PUBLIC "-//W3C//DTD SVG 1.1//EN"
 "http://www.w3.org/Graphics/SVG/1.1/DTD/svg11.dtd">
<!-- Generated by graphviz version 2.38.0 (20140413.2041)
 -->
<!-- Title: WalletModel::getWatchImmatureBalance Pages: 1 -->
<svg width="945pt" height="84pt"
 viewBox="0.00 0.00 945.00 84.00" xmlns="http://www.w3.org/2000/svg" xmlns:xlink="http://www.w3.org/1999/xlink">
<g id="graph0" class="graph" transform="scale(1 1) rotate(0) translate(4 80)">
<title>WalletModel::getWatchImmatureBalance</title>
<polygon fill="white" stroke="none" points="-4,4 -4,-80 941,-80 941,4 -4,4"/>
<!-- Node1 -->
<g id="node1" class="node"><title>Node1</title>
<polygon fill="#bfbfbf" stroke="black" points="0,-23 0,-53 162,-53 162,-23 0,-23"/>
<text text-anchor="start" x="8" y="-41" font-family="Helvetica,sans-Serif" font-size="10.00">WalletModel::getWatchImmature</text>
<text text-anchor="middle" x="81" y="-30" font-family="Helvetica,sans-Serif" font-size="10.00">Balance</text>
</g>
<!-- Node2 -->
<g id="node2" class="node"><title>Node2</title>
<g id="a_node2"><a xlink:href="class_c_wallet.html#a2454a9b5d34e4831eff3a16f9a160598" target="_top" xlink:title="CWallet::GetImmatureWatch\lOnlyBalance">
<polygon fill="white" stroke="black" points="198,-23 198,-53 342,-53 342,-23 198,-23"/>
<text text-anchor="start" x="206" y="-41" font-family="Helvetica,sans-Serif" font-size="10.00">CWallet::GetImmatureWatch</text>
<text text-anchor="middle" x="270" y="-30" font-family="Helvetica,sans-Serif" font-size="10.00">OnlyBalance</text>
</a>
</g>
</g>
<!-- Node1&#45;&gt;Node2 -->
<g id="edge1" class="edge"><title>Node1&#45;&gt;Node2</title>
<path fill="none" stroke="midnightblue" d="M162.119,-38C170.576,-38 179.182,-38 187.653,-38"/>
<polygon fill="midnightblue" stroke="midnightblue" points="187.899,-41.5001 197.899,-38 187.899,-34.5001 187.899,-41.5001"/>
</g>
<!-- Node3 -->
<g id="node3" class="node"><title>Node3</title>
<g id="a_node3"><a xlink:href="class_c_wallet_tx.html#a9a9a89a9c03e4dfe9aff4e9b3c41d5b1" target="_top" xlink:title="CWalletTx::GetImmatureWatch\lOnlyCredit">
<polygon fill="white" stroke="black" points="378,-23 378,-53 533,-53 533,-23 378,-23"/>
<text text-anchor="start" x="386" y="-41" font-family="Helvetica,sans-Serif" font-size="10.00">CWalletTx::GetImmatureWatch</text>
<text text-anchor="middle" x="455.5" y="-30" font-family="Helvetica,sans-Serif" font-size="10.00">OnlyCredit</text>
</a>
</g>
</g>
<!-- Node2&#45;&gt;Node3 -->
<g id="edge2" class="edge"><title>Node2&#45;&gt;Node3</title>
<path fill="none" stroke="midnightblue" d="M342.209,-38C350.608,-38 359.25,-38 367.832,-38"/>
<polygon fill="midnightblue" stroke="midnightblue" points="367.861,-41.5001 377.861,-38 367.861,-34.5001 367.861,-41.5001"/>
</g>
<!-- Node4 -->
<g id="node4" class="node"><title>Node4</title>
<g id="a_node4"><a xlink:href="class_c_wallet.html#a9ec15c32442fcceb95425d8b36492544" target="_top" xlink:title="CWallet::GetCredit">
<polygon fill="white" stroke="black" points="569,-28.5 569,-47.5 669,-47.5 669,-28.5 569,-28.5"/>
<text text-anchor="middle" x="619" y="-35.5" font-family="Helvetica,sans-Serif" font-size="10.00">CWallet::GetCredit</text>
</a>
</g>
</g>
<!-- Node3&#45;&gt;Node4 -->
<g id="edge3" class="edge"><title>Node3&#45;&gt;Node4</title>
<path fill="none" stroke="midnightblue" d="M533.466,-38C541.92,-38 550.43,-38 558.623,-38"/>
<polygon fill="midnightblue" stroke="midnightblue" points="558.805,-41.5001 568.805,-38 558.804,-34.5001 558.805,-41.5001"/>
</g>
<!-- Node5 -->
<g id="node5" class="node"><title>Node5</title>
<g id="a_node5"><a xlink:href="core_8h.html#ad1d9a769fa327ea042e0c9fadeb4836b" target="_top" xlink:title="MoneyRange">
<polygon fill="white" stroke="black" points="705,-56.5 705,-75.5 781,-75.5 781,-56.5 705,-56.5"/>
<text text-anchor="middle" x="743" y="-63.5" font-family="Helvetica,sans-Serif" font-size="10.00">MoneyRange</text>
</a>
</g>
</g>
<!-- Node4&#45;&gt;Node5 -->
<g id="edge4" class="edge"><title>Node4&#45;&gt;Node5</title>
<path fill="none" stroke="midnightblue" d="M661.644,-47.5577C672.32,-50.0078 683.878,-52.6605 694.811,-55.1698"/>
<polygon fill="midnightblue" stroke="midnightblue" points="694.104,-58.5983 704.633,-57.424 695.669,-51.7757 694.104,-58.5983"/>
</g>
<!-- Node6 -->
<g id="node6" class="node"><title>Node6</title>
<g id="a_node6"><a xlink:href="script_8cpp.html#adc59cf67d903c1ba1ef225561b85bfce" target="_top" xlink:title="IsMine">
<polygon fill="white" stroke="black" points="720,-0.5 720,-19.5 766,-19.5 766,-0.5 720,-0.5"/>
<text text-anchor="middle" x="743" y="-7.5" font-family="Helvetica,sans-Serif" font-size="10.00">IsMine</text>
</a>
</g>
</g>
<!-- Node4&#45;&gt;Node6 -->
<g id="edge5" class="edge"><title>Node4&#45;&gt;Node6</title>
<path fill="none" stroke="midnightblue" d="M661.644,-28.4423C677.308,-24.8473 694.872,-20.8163 709.574,-17.4419"/>
<polygon fill="midnightblue" stroke="midnightblue" points="710.743,-20.7649 719.706,-15.1165 709.177,-13.9422 710.743,-20.7649"/>
</g>
<!-- Node6&#45;&gt;Node6 -->
<g id="edge7" class="edge"><title>Node6&#45;&gt;Node6</title>
<path fill="none" stroke="midnightblue" d="M723.888,-19.7571C714.59,-28.5653 720.961,-38 743,-38 757.119,-38 764.807,-34.128 766.065,-29.0292"/>
<polygon fill="midnightblue" stroke="midnightblue" points="769.254,-27.5831 762.112,-19.7571 762.815,-30.3286 769.254,-27.5831"/>
</g>
<!-- Node7 -->
<g id="node7" class="node"><title>Node7</title>
<g id="a_node7"><a xlink:href="class_c_script.html#ad1b5a9077241aa06116040c4f1b7c31e" target="_top" xlink:title="CScript::SetDestination">
<polygon fill="white" stroke="black" points="817,-0.5 817,-19.5 937,-19.5 937,-0.5 817,-0.5"/>
<text text-anchor="middle" x="877" y="-7.5" font-family="Helvetica,sans-Serif" font-size="10.00">CScript::SetDestination</text>
</a>
</g>
</g>
<!-- Node6&#45;&gt;Node7 -->
<g id="edge6" class="edge"><title>Node6&#45;&gt;Node7</title>
<path fill="none" stroke="midnightblue" d="M766.094,-10C777.424,-10 791.913,-10 806.627,-10"/>
<polygon fill="midnightblue" stroke="midnightblue" points="806.813,-13.5001 816.813,-10 806.813,-6.5001 806.813,-13.5001"/>
</g>
</g>
</svg>
