<?xml version="1.0" encoding="UTF-8" standalone="no"?>
<!DOCTYPE svg PUBLIC "-//W3C//DTD SVG 1.1//EN"
 "http://www.w3.org/Graphics/SVG/1.1/DTD/svg11.dtd">
<!-- Generated by graphviz version 2.38.0 (20140413.2041)
 -->
<!-- Title: WalletFrame::setClientModel Pages: 1 -->
<svg width="772pt" height="88pt"
 viewBox="0.00 0.00 772.00 88.00" xmlns="http://www.w3.org/2000/svg" xmlns:xlink="http://www.w3.org/1999/xlink">
<g id="graph0" class="graph" transform="scale(1 1) rotate(0) translate(4 84)">
<title>WalletFrame::setClientModel</title>
<polygon fill="white" stroke="none" points="-4,4 -4,-84 768,-84 768,4 -4,4"/>
<!-- Node1 -->
<g id="node1" class="node"><title>Node1</title>
<polygon fill="#bfbfbf" stroke="black" points="0,-30 0,-49 145,-49 145,-30 0,-30"/>
<text text-anchor="middle" x="72.5" y="-37" font-family="Helvetica,sans-Serif" font-size="10.00">WalletFrame::setClientModel</text>
</g>
<!-- Node2 -->
<g id="node2" class="node"><title>Node2</title>
<g id="a_node2"><a xlink:href="class_anoncoin_g_u_i.html#ab6dbbc9dae6aee55656d615c1aff5399" target="_top" xlink:title="Set the client model. ">
<polygon fill="white" stroke="black" points="181,-30 181,-49 329,-49 329,-30 181,-30"/>
<text text-anchor="middle" x="255" y="-37" font-family="Helvetica,sans-Serif" font-size="10.00">AnoncoinGUI::setClientModel</text>
</a>
</g>
</g>
<!-- Node1&#45;&gt;Node2 -->
<g id="edge1" class="edge"><title>Node1&#45;&gt;Node2</title>
<path fill="none" stroke="midnightblue" d="M155.344,-39.5C163.802,-39.5 172.359,-39.5 180.714,-39.5"/>
<polygon fill="midnightblue" stroke="midnightblue" points="155.098,-36.0001 145.098,-39.5 155.098,-43.0001 155.098,-36.0001"/>
</g>
<!-- Node3 -->
<g id="node3" class="node"><title>Node3</title>
<g id="a_node3"><a xlink:href="class_anoncoin_application.html#a931ed67447cc07f1e0f32327b122af01" target="_top" xlink:title="Request core shutdown. ">
<polygon fill="white" stroke="black" points="365,-49.5 365,-79.5 472,-79.5 472,-49.5 365,-49.5"/>
<text text-anchor="start" x="373" y="-67.5" font-family="Helvetica,sans-Serif" font-size="10.00">AnoncoinApplication</text>
<text text-anchor="middle" x="418.5" y="-56.5" font-family="Helvetica,sans-Serif" font-size="10.00">::requestShutdown</text>
</a>
</g>
</g>
<!-- Node2&#45;&gt;Node3 -->
<g id="edge2" class="edge"><title>Node2&#45;&gt;Node3</title>
<path fill="none" stroke="midnightblue" d="M327.501,-50.5682C340.06,-52.5123 352.921,-54.5033 364.848,-56.3496"/>
<polygon fill="midnightblue" stroke="midnightblue" points="327.935,-47.0938 317.517,-49.0227 326.864,-54.0114 327.935,-47.0938"/>
</g>
<!-- Node5 -->
<g id="node5" class="node"><title>Node5</title>
<g id="a_node5"><a xlink:href="class_anoncoin_application.html#a565d432edd9d4fc30ce60bfd8d5699e3" target="_top" xlink:title="AnoncoinApplication\l::initializeResult">
<polygon fill="white" stroke="black" points="365,-0.5 365,-30.5 472,-30.5 472,-0.5 365,-0.5"/>
<text text-anchor="start" x="373" y="-18.5" font-family="Helvetica,sans-Serif" font-size="10.00">AnoncoinApplication</text>
<text text-anchor="middle" x="418.5" y="-7.5" font-family="Helvetica,sans-Serif" font-size="10.00">::initializeResult</text>
</a>
</g>
</g>
<!-- Node2&#45;&gt;Node5 -->
<g id="edge4" class="edge"><title>Node2&#45;&gt;Node5</title>
<path fill="none" stroke="midnightblue" d="M330.431,-28.439C342.047,-26.7128 353.838,-24.9606 364.835,-23.3263"/>
<polygon fill="midnightblue" stroke="midnightblue" points="329.67,-25.0136 320.293,-29.9456 330.699,-31.9376 329.67,-25.0136"/>
</g>
<!-- Node4 -->
<g id="node4" class="node"><title>Node4</title>
<g id="a_node4"><a xlink:href="anoncoin_8cpp.html#a0ddf1224851353fc92bfbff6f499fa97" target="_top" xlink:title="main">
<polygon fill="white" stroke="black" points="542.5,-55 542.5,-74 580.5,-74 580.5,-55 542.5,-55"/>
<text text-anchor="middle" x="561.5" y="-62" font-family="Helvetica,sans-Serif" font-size="10.00">main</text>
</a>
</g>
</g>
<!-- Node3&#45;&gt;Node4 -->
<g id="edge3" class="edge"><title>Node3&#45;&gt;Node4</title>
<path fill="none" stroke="midnightblue" d="M482.295,-64.5C504.187,-64.5 527.082,-64.5 542.4,-64.5"/>
<polygon fill="midnightblue" stroke="midnightblue" points="482.003,-61.0001 472.003,-64.5 482.003,-68.0001 482.003,-61.0001"/>
</g>
<!-- Node6 -->
<g id="node6" class="node"><title>Node6</title>
<g id="a_node6"><a xlink:href="class_anoncoin_application.html#a757849a7d52cb0559592ba4194f4872c" target="_top" xlink:title="AnoncoinApplication\l::startThread">
<polygon fill="white" stroke="black" points="508,-0.5 508,-30.5 615,-30.5 615,-0.5 508,-0.5"/>
<text text-anchor="start" x="516" y="-18.5" font-family="Helvetica,sans-Serif" font-size="10.00">AnoncoinApplication</text>
<text text-anchor="middle" x="561.5" y="-7.5" font-family="Helvetica,sans-Serif" font-size="10.00">::startThread</text>
</a>
</g>
</g>
<!-- Node5&#45;&gt;Node6 -->
<g id="edge5" class="edge"><title>Node5&#45;&gt;Node6</title>
<path fill="none" stroke="midnightblue" d="M482.05,-15.5C490.7,-15.5 499.51,-15.5 507.953,-15.5"/>
<polygon fill="midnightblue" stroke="midnightblue" points="482.003,-12.0001 472.003,-15.5 482.003,-19.0001 482.003,-12.0001"/>
</g>
<!-- Node7 -->
<g id="node7" class="node"><title>Node7</title>
<g id="a_node7"><a xlink:href="class_anoncoin_application.html#a4e345b36dac09420eac7edc10fa4ffcf" target="_top" xlink:title="AnoncoinApplication\l::AnoncoinApplication">
<polygon fill="white" stroke="black" points="651,-0.5 651,-30.5 764,-30.5 764,-0.5 651,-0.5"/>
<text text-anchor="start" x="659" y="-18.5" font-family="Helvetica,sans-Serif" font-size="10.00">AnoncoinApplication</text>
<text text-anchor="middle" x="707.5" y="-7.5" font-family="Helvetica,sans-Serif" font-size="10.00">::AnoncoinApplication</text>
</a>
</g>
</g>
<!-- Node6&#45;&gt;Node7 -->
<g id="edge6" class="edge"><title>Node6&#45;&gt;Node7</title>
<path fill="none" stroke="midnightblue" d="M625.473,-15.5C633.905,-15.5 642.505,-15.5 650.8,-15.5"/>
<polygon fill="midnightblue" stroke="midnightblue" points="625.303,-12.0001 615.303,-15.5 625.303,-19.0001 625.303,-12.0001"/>
</g>
</g>
</svg>
