<?xml version="1.0" encoding="UTF-8" standalone="no"?>
<!DOCTYPE svg PUBLIC "-//W3C//DTD SVG 1.1//EN"
 "http://www.w3.org/Graphics/SVG/1.1/DTD/svg11.dtd">
<!-- Generated by graphviz version 2.38.0 (20140413.2041)
 -->
<!-- Title: Intro::setDataDirectory Pages: 1 -->
<svg width="628pt" height="66pt"
 viewBox="0.00 0.00 628.00 66.00" xmlns="http://www.w3.org/2000/svg" xmlns:xlink="http://www.w3.org/1999/xlink">
<g id="graph0" class="graph" transform="scale(1 1) rotate(0) translate(4 62)">
<title>Intro::setDataDirectory</title>
<polygon fill="white" stroke="none" points="-4,4 -4,-62 624,-62 624,4 -4,4"/>
<!-- Node1 -->
<g id="node1" class="node"><title>Node1</title>
<polygon fill="#bfbfbf" stroke="black" points="0,-19.5 0,-38.5 117,-38.5 117,-19.5 0,-19.5"/>
<text text-anchor="middle" x="58.5" y="-26.5" font-family="Helvetica,sans-Serif" font-size="10.00">Intro::setDataDirectory</text>
</g>
<!-- Node2 -->
<g id="node2" class="node"><title>Node2</title>
<g id="a_node2"><a xlink:href="class_intro.html#aad225845533fc7f451648dc7c9643e6a" target="_top" xlink:title="Determine default data directory for operating system. ">
<polygon fill="white" stroke="black" points="153,-19.5 153,-38.5 302,-38.5 302,-19.5 153,-19.5"/>
<text text-anchor="middle" x="227.5" y="-26.5" font-family="Helvetica,sans-Serif" font-size="10.00">Intro::getDefaultDataDirectory</text>
</a>
</g>
</g>
<!-- Node1&#45;&gt;Node2 -->
<g id="edge1" class="edge"><title>Node1&#45;&gt;Node2</title>
<path fill="none" stroke="midnightblue" d="M117.44,-29C125.633,-29 134.189,-29 142.749,-29"/>
<polygon fill="midnightblue" stroke="midnightblue" points="142.778,-32.5001 152.778,-29 142.778,-25.5001 142.778,-32.5001"/>
</g>
<!-- Node3 -->
<g id="node3" class="node"><title>Node3</title>
<g id="a_node3"><a xlink:href="namespace_g_u_i_util.html#a8bbd2bea6cbc55658e8496603d1fd564" target="_top" xlink:title="GUIUtil::boostPathToQString">
<polygon fill="white" stroke="black" points="338,-38.5 338,-57.5 483,-57.5 483,-38.5 338,-38.5"/>
<text text-anchor="middle" x="410.5" y="-45.5" font-family="Helvetica,sans-Serif" font-size="10.00">GUIUtil::boostPathToQString</text>
</a>
</g>
</g>
<!-- Node2&#45;&gt;Node3 -->
<g id="edge2" class="edge"><title>Node2&#45;&gt;Node3</title>
<path fill="none" stroke="midnightblue" d="M302.12,-36.728C310.631,-37.6215 319.35,-38.5367 327.959,-39.4405"/>
<polygon fill="midnightblue" stroke="midnightblue" points="327.686,-42.9309 337.996,-40.4941 328.417,-35.9692 327.686,-42.9309"/>
</g>
<!-- Node4 -->
<g id="node4" class="node"><title>Node4</title>
<g id="a_node4"><a xlink:href="util_8cpp.html#ab272995de020a3bcbf743be630e485c6" target="_top" xlink:title="GetDefaultDataDir">
<polygon fill="white" stroke="black" points="361.5,-0.5 361.5,-19.5 459.5,-19.5 459.5,-0.5 361.5,-0.5"/>
<text text-anchor="middle" x="410.5" y="-7.5" font-family="Helvetica,sans-Serif" font-size="10.00">GetDefaultDataDir</text>
</a>
</g>
</g>
<!-- Node2&#45;&gt;Node4 -->
<g id="edge3" class="edge"><title>Node2&#45;&gt;Node4</title>
<path fill="none" stroke="midnightblue" d="M302.12,-21.272C318.498,-19.5527 335.641,-17.7531 351.299,-16.1094"/>
<polygon fill="midnightblue" stroke="midnightblue" points="351.772,-19.5792 361.352,-15.0542 351.041,-12.6174 351.772,-19.5792"/>
</g>
<!-- Node5 -->
<g id="node5" class="node"><title>Node5</title>
<g id="a_node5"><a xlink:href="util_8cpp.html#a4458ca67cacd593b21c8e1386d192064" target="_top" xlink:title="TryCreateDirectory">
<polygon fill="white" stroke="black" points="519,-0.5 519,-19.5 620,-19.5 620,-0.5 519,-0.5"/>
<text text-anchor="middle" x="569.5" y="-7.5" font-family="Helvetica,sans-Serif" font-size="10.00">TryCreateDirectory</text>
</a>
</g>
</g>
<!-- Node4&#45;&gt;Node5 -->
<g id="edge4" class="edge"><title>Node4&#45;&gt;Node5</title>
<path fill="none" stroke="midnightblue" d="M459.886,-10C475.259,-10 492.448,-10 508.536,-10"/>
<polygon fill="midnightblue" stroke="midnightblue" points="508.919,-13.5001 518.919,-10 508.918,-6.5001 508.919,-13.5001"/>
</g>
</g>
</svg>
