<?xml version="1.0" encoding="UTF-8" standalone="no"?>
<!DOCTYPE svg PUBLIC "-//W3C//DTD SVG 1.1//EN"
 "http://www.w3.org/Graphics/SVG/1.1/DTD/svg11.dtd">
<!-- Generated by graphviz version 2.38.0 (20140413.2041)
 -->
<!-- Title: WalletModel::getImmatureBalance Pages: 1 -->
<svg width="676pt" height="150pt"
 viewBox="0.00 0.00 676.00 149.50" xmlns="http://www.w3.org/2000/svg" xmlns:xlink="http://www.w3.org/1999/xlink">
<g id="graph0" class="graph" transform="scale(1 1) rotate(0) translate(4 145.5)">
<title>WalletModel::getImmatureBalance</title>
<polygon fill="white" stroke="none" points="-4,4 -4,-145.5 672,-145.5 672,4 -4,4"/>
<!-- Node1 -->
<g id="node1" class="node"><title>Node1</title>
<polygon fill="#bfbfbf" stroke="black" points="0,-78.5 0,-108.5 133,-108.5 133,-78.5 0,-78.5"/>
<text text-anchor="start" x="8" y="-96.5" font-family="Helvetica,sans-Serif" font-size="10.00">WalletModel::getImmature</text>
<text text-anchor="middle" x="66.5" y="-85.5" font-family="Helvetica,sans-Serif" font-size="10.00">Balance</text>
</g>
<!-- Node2 -->
<g id="node2" class="node"><title>Node2</title>
<g id="a_node2"><a xlink:href="class_overview_page.html#a2ed52a3a87e9c74fee38fa873c9bc71f" target="_top" xlink:title="OverviewPage::setWalletModel">
<polygon fill="white" stroke="black" points="169,-122 169,-141 324,-141 324,-122 169,-122"/>
<text text-anchor="middle" x="246.5" y="-129" font-family="Helvetica,sans-Serif" font-size="10.00">OverviewPage::setWalletModel</text>
</a>
</g>
</g>
<!-- Node1&#45;&gt;Node2 -->
<g id="edge1" class="edge"><title>Node1&#45;&gt;Node2</title>
<path fill="none" stroke="midnightblue" d="M142.939,-109.605C162.697,-113.823 183.368,-118.236 200.933,-121.986"/>
<polygon fill="midnightblue" stroke="midnightblue" points="143.533,-106.153 133.022,-107.488 142.071,-112.999 143.533,-106.153"/>
</g>
<!-- Node5 -->
<g id="node5" class="node"><title>Node5</title>
<g id="a_node5"><a xlink:href="class_send_coins_dialog.html#a73a6c1b1850a334ee652ac167713a2aa" target="_top" xlink:title="SendCoinsDialog::setModel">
<polygon fill="white" stroke="black" points="176.5,-84 176.5,-103 316.5,-103 316.5,-84 176.5,-84"/>
<text text-anchor="middle" x="246.5" y="-91" font-family="Helvetica,sans-Serif" font-size="10.00">SendCoinsDialog::setModel</text>
</a>
</g>
</g>
<!-- Node1&#45;&gt;Node5 -->
<g id="edge4" class="edge"><title>Node1&#45;&gt;Node5</title>
<path fill="none" stroke="midnightblue" d="M143.039,-93.5C154.053,-93.5 165.35,-93.5 176.232,-93.5"/>
<polygon fill="midnightblue" stroke="midnightblue" points="143.022,-90.0001 133.022,-93.5 143.022,-97.0001 143.022,-90.0001"/>
</g>
<!-- Node6 -->
<g id="node6" class="node"><title>Node6</title>
<g id="a_node6"><a xlink:href="class_wallet_model.html#adcc4eb8cd71cb4de223621866bb7fb7d" target="_top" xlink:title="WalletModel::checkBalance\lChanged">
<polygon fill="white" stroke="black" points="177,-34.5 177,-64.5 316,-64.5 316,-34.5 177,-34.5"/>
<text text-anchor="start" x="185" y="-52.5" font-family="Helvetica,sans-Serif" font-size="10.00">WalletModel::checkBalance</text>
<text text-anchor="middle" x="246.5" y="-41.5" font-family="Helvetica,sans-Serif" font-size="10.00">Changed</text>
</a>
</g>
</g>
<!-- Node1&#45;&gt;Node6 -->
<g id="edge6" class="edge"><title>Node1&#45;&gt;Node6</title>
<path fill="none" stroke="midnightblue" d="M138.237,-76.0145C153.617,-72.2127 169.757,-68.223 184.712,-64.5262"/>
<polygon fill="midnightblue" stroke="midnightblue" points="137.128,-72.6833 128.26,-78.4808 138.807,-79.4787 137.128,-72.6833"/>
</g>
<!-- Node3 -->
<g id="node3" class="node"><title>Node3</title>
<g id="a_node3"><a xlink:href="class_wallet_view.html#a0a37ff693a4f9c1e5ddc23f9cd3913be" target="_top" xlink:title="Set the wallet model. ">
<polygon fill="white" stroke="black" points="360,-113 360,-132 500,-132 500,-113 360,-113"/>
<text text-anchor="middle" x="430" y="-120" font-family="Helvetica,sans-Serif" font-size="10.00">WalletView::setWalletModel</text>
</a>
</g>
</g>
<!-- Node2&#45;&gt;Node3 -->
<g id="edge2" class="edge"><title>Node2&#45;&gt;Node3</title>
<path fill="none" stroke="midnightblue" d="M334.227,-127.199C342.795,-126.775 351.411,-126.347 359.769,-125.933"/>
<polygon fill="midnightblue" stroke="midnightblue" points="334.024,-123.705 324.209,-127.696 334.37,-130.697 334.024,-123.705"/>
</g>
<!-- Node4 -->
<g id="node4" class="node"><title>Node4</title>
<g id="a_node4"><a xlink:href="class_wallet_frame.html#aa199c3f27654199d84c365cf86167d86" target="_top" xlink:title="WalletFrame::addWallet">
<polygon fill="white" stroke="black" points="540.5,-113 540.5,-132 663.5,-132 663.5,-113 540.5,-113"/>
<text text-anchor="middle" x="602" y="-120" font-family="Helvetica,sans-Serif" font-size="10.00">WalletFrame::addWallet</text>
</a>
</g>
</g>
<!-- Node3&#45;&gt;Node4 -->
<g id="edge3" class="edge"><title>Node3&#45;&gt;Node4</title>
<path fill="none" stroke="midnightblue" d="M510.222,-122.5C520.357,-122.5 530.601,-122.5 540.376,-122.5"/>
<polygon fill="midnightblue" stroke="midnightblue" points="510.146,-119 500.146,-122.5 510.145,-126 510.146,-119"/>
</g>
<!-- Node5&#45;&gt;Node3 -->
<g id="edge5" class="edge"><title>Node5&#45;&gt;Node3</title>
<path fill="none" stroke="midnightblue" d="M317.16,-104.63C334.351,-107.377 352.611,-110.295 369.283,-112.958"/>
<polygon fill="midnightblue" stroke="midnightblue" points="317.608,-101.158 307.181,-103.036 316.504,-108.07 317.608,-101.158"/>
</g>
<!-- Node7 -->
<g id="node7" class="node"><title>Node7</title>
<g id="a_node7"><a xlink:href="class_wallet_model.html#a51469b2d95cfd4bc0a14ee456fca7b95" target="_top" xlink:title="WalletModel::pollBalance\lChanged">
<polygon fill="white" stroke="black" points="365.5,-44.5 365.5,-74.5 494.5,-74.5 494.5,-44.5 365.5,-44.5"/>
<text text-anchor="start" x="373.5" y="-62.5" font-family="Helvetica,sans-Serif" font-size="10.00">WalletModel::pollBalance</text>
<text text-anchor="middle" x="430" y="-51.5" font-family="Helvetica,sans-Serif" font-size="10.00">Changed</text>
</a>
</g>
</g>
<!-- Node6&#45;&gt;Node7 -->
<g id="edge7" class="edge"><title>Node6&#45;&gt;Node7</title>
<path fill="none" stroke="midnightblue" d="M326.457,-53.8503C339.464,-54.5669 352.8,-55.3016 365.371,-55.9943"/>
<polygon fill="midnightblue" stroke="midnightblue" points="326.295,-50.3361 316.117,-53.2806 325.91,-57.3255 326.295,-50.3361"/>
</g>
<!-- Node9 -->
<g id="node9" class="node"><title>Node9</title>
<g id="a_node9"><a xlink:href="class_wallet_model.html#a53443aca544c824550f21e5f87e4ec39" target="_top" xlink:title="WalletModel::sendCoins">
<polygon fill="white" stroke="black" points="368,-6 368,-25 492,-25 492,-6 368,-6"/>
<text text-anchor="middle" x="430" y="-13" font-family="Helvetica,sans-Serif" font-size="10.00">WalletModel::sendCoins</text>
</a>
</g>
</g>
<!-- Node6&#45;&gt;Node9 -->
<g id="edge9" class="edge"><title>Node6&#45;&gt;Node9</title>
<path fill="none" stroke="midnightblue" d="M326.356,-34.728C343.9,-31.4417 362.046,-28.0424 378.112,-25.0327"/>
<polygon fill="midnightblue" stroke="midnightblue" points="325.302,-31.3646 316.117,-36.6461 326.591,-38.2449 325.302,-31.3646"/>
</g>
<!-- Node8 -->
<g id="node8" class="node"><title>Node8</title>
<g id="a_node8"><a xlink:href="class_wallet_model.html#af50d9654d2f20e4e4f0789dcb64ad6b1" target="_top" xlink:title="WalletModel::WalletModel">
<polygon fill="white" stroke="black" points="536,-50 536,-69 668,-69 668,-50 536,-50"/>
<text text-anchor="middle" x="602" y="-57" font-family="Helvetica,sans-Serif" font-size="10.00">WalletModel::WalletModel</text>
</a>
</g>
</g>
<!-- Node7&#45;&gt;Node8 -->
<g id="edge8" class="edge"><title>Node7&#45;&gt;Node8</title>
<path fill="none" stroke="midnightblue" d="M504.937,-59.5C515.184,-59.5 525.65,-59.5 535.724,-59.5"/>
<polygon fill="midnightblue" stroke="midnightblue" points="504.785,-56.0001 494.785,-59.5 504.785,-63.0001 504.785,-56.0001"/>
</g>
<!-- Node10 -->
<g id="node10" class="node"><title>Node10</title>
<g id="a_node10"><a xlink:href="class_send_coins_dialog.html#a2cab7cf9ea5040b9e2189297f7d3c764" target="_top" xlink:title="SendCoinsDialog::on\l_sendButton_clicked">
<polygon fill="white" stroke="black" points="547,-0.5 547,-30.5 657,-30.5 657,-0.5 547,-0.5"/>
<text text-anchor="start" x="555" y="-18.5" font-family="Helvetica,sans-Serif" font-size="10.00">SendCoinsDialog::on</text>
<text text-anchor="middle" x="602" y="-7.5" font-family="Helvetica,sans-Serif" font-size="10.00">_sendButton_clicked</text>
</a>
</g>
</g>
<!-- Node9&#45;&gt;Node10 -->
<g id="edge10" class="edge"><title>Node9&#45;&gt;Node10</title>
<path fill="none" stroke="midnightblue" d="M502.513,-15.5C517.321,-15.5 532.689,-15.5 546.758,-15.5"/>
<polygon fill="midnightblue" stroke="midnightblue" points="502.374,-12.0001 492.374,-15.5 502.374,-19.0001 502.374,-12.0001"/>
</g>
</g>
</svg>
