<?xml version="1.0" encoding="UTF-8" standalone="no"?>
<!DOCTYPE svg PUBLIC "-//W3C//DTD SVG 1.1//EN"
 "http://www.w3.org/Graphics/SVG/1.1/DTD/svg11.dtd">
<!-- Generated by graphviz version 2.38.0 (20140413.2041)
 -->
<!-- Title: WalletModel::UnlockContext Pages: 1 -->
<svg width="1615pt" height="452pt"
 viewBox="0.00 0.00 1615.00 452.27" xmlns="http://www.w3.org/2000/svg" xmlns:xlink="http://www.w3.org/1999/xlink">
<g id="graph0" class="graph" transform="scale(1 1) rotate(0) translate(4 448.266)">
<title>WalletModel::UnlockContext</title>
<polygon fill="white" stroke="none" points="-4,4 -4,-448.266 1611,-448.266 1611,4 -4,4"/>
<!-- Node1 -->
<g id="node1" class="node"><title>Node1</title>
<polygon fill="#bfbfbf" stroke="black" points="1285.5,-117.766 1285.5,-136.766 1427.5,-136.766 1427.5,-117.766 1285.5,-117.766"/>
<text text-anchor="middle" x="1356.5" y="-124.766" font-family="Helvetica,sans-Serif" font-size="10.00">WalletModel::UnlockContext</text>
</g>
<!-- Node2 -->
<g id="node2" class="node"><title>Node2</title>
<g id="a_node2"><a xlink:href="class_wallet_model.html" target="_top" xlink:title="Interface to Anoncoin wallet from Qt view code. ">
<polygon fill="white" stroke="black" points="1030.5,-151.766 1030.5,-170.766 1102.5,-170.766 1102.5,-151.766 1030.5,-151.766"/>
<text text-anchor="middle" x="1066.5" y="-158.766" font-family="Helvetica,sans-Serif" font-size="10.00">WalletModel</text>
</a>
</g>
</g>
<!-- Node2&#45;&gt;Node1 -->
<g id="edge1" class="edge"><title>Node2&#45;&gt;Node1</title>
<path fill="none" stroke="#9a32cd" stroke-dasharray="5,2" d="M1092.35,-146.975C1106.18,-139.835 1124.01,-131.947 1141,-128.266 1188.31,-118.016 1242.89,-117.918 1285.15,-120.305"/>
<polygon fill="#9a32cd" stroke="#9a32cd" points="1090.62,-143.929 1083.46,-151.739 1093.93,-150.098 1090.62,-143.929"/>
<text text-anchor="middle" x="1204" y="-131.266" font-family="Helvetica,sans-Serif" font-size="10.00"> wallet</text>
</g>
<!-- Node4 -->
<g id="node4" class="node"><title>Node4</title>
<g id="a_node4"><a xlink:href="class_transaction_table_model.html" target="_top" xlink:title="UI model for the transaction table of a wallet. ">
<polygon fill="white" stroke="black" points="1296,-49.7658 1296,-68.7658 1417,-68.7658 1417,-49.7658 1296,-49.7658"/>
<text text-anchor="middle" x="1356.5" y="-56.7658" font-family="Helvetica,sans-Serif" font-size="10.00">TransactionTableModel</text>
</a>
</g>
</g>
<!-- Node2&#45;&gt;Node4 -->
<g id="edge18" class="edge"><title>Node2&#45;&gt;Node4</title>
<path fill="none" stroke="#9a32cd" stroke-dasharray="5,2" d="M1074.71,-142.321C1085.14,-117.946 1107,-76.6734 1141,-59.2658 1197.85,-30.1602 1274.8,-40.0515 1319.4,-49.7525"/>
<polygon fill="#9a32cd" stroke="#9a32cd" points="1071.45,-141.032 1070.93,-151.615 1077.94,-143.665 1071.45,-141.032"/>
<text text-anchor="middle" x="1204" y="-62.2658" font-family="Helvetica,sans-Serif" font-size="10.00"> walletModel</text>
</g>
<!-- Node17 -->
<g id="node17" class="node"><title>Node17</title>
<g id="a_node17"><a xlink:href="class_address_table_model.html" target="_top" xlink:title="Qt model of the address book in the core. ">
<polygon fill="white" stroke="black" points="1304,-329.766 1304,-348.766 1409,-348.766 1409,-329.766 1304,-329.766"/>
<text text-anchor="middle" x="1356.5" y="-336.766" font-family="Helvetica,sans-Serif" font-size="10.00">AddressTableModel</text>
</a>
</g>
</g>
<!-- Node2&#45;&gt;Node17 -->
<g id="edge25" class="edge"><title>Node2&#45;&gt;Node17</title>
<path fill="none" stroke="#9a32cd" stroke-dasharray="5,2" d="M1091.88,-175.871C1106,-184.072 1124.24,-194.24 1141,-202.266 1195.49,-228.365 1216.4,-220.267 1267,-253.266 1301.1,-275.5 1333.33,-312.103 1347.69,-329.498"/>
<polygon fill="#9a32cd" stroke="#9a32cd" points="1093.65,-172.851 1083.26,-170.807 1090.11,-178.888 1093.65,-172.851"/>
<text text-anchor="middle" x="1204" y="-256.266" font-family="Helvetica,sans-Serif" font-size="10.00"> walletModel</text>
</g>
<!-- Node19 -->
<g id="node19" class="node"><title>Node19</title>
<g id="a_node19"><a xlink:href="class_recent_requests_table_model.html" target="_top" xlink:title="Model for list of recently generated payment requests / anoncoin: URIs. ">
<polygon fill="white" stroke="black" points="1285,-185.766 1285,-204.766 1428,-204.766 1428,-185.766 1285,-185.766"/>
<text text-anchor="middle" x="1356.5" y="-192.766" font-family="Helvetica,sans-Serif" font-size="10.00">RecentRequestsTableModel</text>
</a>
</g>
</g>
<!-- Node2&#45;&gt;Node19 -->
<g id="edge29" class="edge"><title>Node2&#45;&gt;Node19</title>
<path fill="none" stroke="#9a32cd" stroke-dasharray="5,2" d="M1112.98,-156.104C1153.72,-152.646 1214.89,-150.335 1267,-160.266 1292.32,-165.091 1319.64,-177.032 1337.13,-185.625"/>
<polygon fill="#9a32cd" stroke="#9a32cd" points="1112.47,-152.636 1102.83,-157.026 1113.11,-159.608 1112.47,-152.636"/>
<text text-anchor="middle" x="1204" y="-163.266" font-family="Helvetica,sans-Serif" font-size="10.00"> walletModel</text>
</g>
<!-- Node3 -->
<g id="node3" class="node"><title>Node3</title>
<polygon fill="white" stroke="#bfbfbf" points="845.5,-0.765809 845.5,-19.7658 898.5,-19.7658 898.5,-0.765809 845.5,-0.765809"/>
<text text-anchor="middle" x="872" y="-7.76581" font-family="Helvetica,sans-Serif" font-size="10.00">QObject</text>
</g>
<!-- Node3&#45;&gt;Node2 -->
<g id="edge2" class="edge"><title>Node3&#45;&gt;Node2</title>
<path fill="none" stroke="midnightblue" d="M893.297,-26.1871C933.142,-57.4422 1020.54,-125.997 1053.02,-151.476"/>
<polygon fill="midnightblue" stroke="midnightblue" points="895.363,-23.3593 885.335,-19.9412 891.043,-28.867 895.363,-23.3593"/>
</g>
<!-- Node4&#45;&gt;Node2 -->
<g id="edge3" class="edge"><title>Node4&#45;&gt;Node2</title>
<path fill="none" stroke="#9a32cd" stroke-dasharray="5,2" d="M1286.04,-70.36C1233.58,-79.3844 1166.43,-92.505 1141,-104.266 1115.21,-116.196 1090.14,-138.664 1076.99,-151.541"/>
<polygon fill="#9a32cd" stroke="#9a32cd" points="1286.71,-73.7958 1295.98,-68.6677 1285.54,-66.895 1286.71,-73.7958"/>
<text text-anchor="middle" x="1204" y="-107.266" font-family="Helvetica,sans-Serif" font-size="10.00"> transactionTableModel</text>
</g>
<!-- Node6 -->
<g id="node6" class="node"><title>Node6</title>
<g id="a_node6"><a xlink:href="class_transaction_table_priv.html" target="_top" xlink:title="TransactionTablePriv">
<polygon fill="white" stroke="black" points="1496,-15.7658 1496,-34.7658 1607,-34.7658 1607,-15.7658 1496,-15.7658"/>
<text text-anchor="middle" x="1551.5" y="-22.7658" font-family="Helvetica,sans-Serif" font-size="10.00">TransactionTablePriv</text>
</a>
</g>
</g>
<!-- Node4&#45;&gt;Node6 -->
<g id="edge6" class="edge"><title>Node4&#45;&gt;Node6</title>
<path fill="none" stroke="#9a32cd" stroke-dasharray="5,2" d="M1385.22,-45.1715C1402.27,-37.3053 1424.83,-28.2991 1446,-24.2658 1462.04,-21.2092 1479.72,-20.4254 1495.9,-20.694"/>
<polygon fill="#9a32cd" stroke="#9a32cd" points="1383.39,-42.1642 1375.87,-49.6251 1386.4,-48.4836 1383.39,-42.1642"/>
<text text-anchor="middle" x="1462" y="-27.2658" font-family="Helvetica,sans-Serif" font-size="10.00"> parent</text>
</g>
<!-- Node5 -->
<g id="node5" class="node"><title>Node5</title>
<polygon fill="white" stroke="#bfbfbf" points="1010,-304.766 1010,-323.766 1123,-323.766 1123,-304.766 1010,-304.766"/>
<text text-anchor="middle" x="1066.5" y="-311.766" font-family="Helvetica,sans-Serif" font-size="10.00">QAbstractTableModel</text>
</g>
<!-- Node5&#45;&gt;Node4 -->
<g id="edge4" class="edge"><title>Node5&#45;&gt;Node4</title>
<path fill="none" stroke="midnightblue" d="M1079.67,-296.078C1092.73,-277.979 1115.12,-250.736 1141,-235.266 1190.69,-205.563 1227.46,-244.546 1267,-202.266 1296.05,-171.198 1261.82,-143.932 1285,-108.266 1296.7,-90.2686 1317.54,-77.0144 1333.54,-68.8617"/>
<polygon fill="midnightblue" stroke="midnightblue" points="1076.58,-294.395 1073.72,-304.598 1082.32,-298.402 1076.58,-294.395"/>
</g>
<!-- Node5&#45;&gt;Node17 -->
<g id="edge21" class="edge"><title>Node5&#45;&gt;Node17</title>
<path fill="none" stroke="midnightblue" d="M1133.31,-324.388C1135.9,-324.701 1138.47,-324.995 1141,-325.266 1196.47,-331.217 1260.31,-334.992 1303.82,-337.103"/>
<polygon fill="midnightblue" stroke="midnightblue" points="1133.58,-320.895 1123.22,-323.103 1132.7,-327.839 1133.58,-320.895"/>
</g>
<!-- Node5&#45;&gt;Node19 -->
<g id="edge28" class="edge"><title>Node5&#45;&gt;Node19</title>
<path fill="none" stroke="midnightblue" d="M1133.13,-322.178C1173.79,-324.14 1225.91,-321.151 1267,-300.266 1309.51,-278.661 1339.61,-226.727 1350.75,-205.039"/>
<polygon fill="midnightblue" stroke="midnightblue" points="1133.24,-318.679 1123.05,-321.58 1132.83,-325.666 1133.24,-318.679"/>
</g>
<!-- Node6&#45;&gt;Node4 -->
<g id="edge5" class="edge"><title>Node6&#45;&gt;Node4</title>
<path fill="none" stroke="#9a32cd" stroke-dasharray="5,2" d="M1486.64,-36.5162C1462.31,-40.802 1434.84,-45.6403 1411.52,-49.7497"/>
<polygon fill="#9a32cd" stroke="#9a32cd" points="1487.25,-39.9616 1496.5,-34.7796 1486.04,-33.0677 1487.25,-39.9616"/>
<text text-anchor="middle" x="1462" y="-47.2658" font-family="Helvetica,sans-Serif" font-size="10.00"> priv</text>
</g>
<!-- Node7 -->
<g id="node7" class="node"><title>Node7</title>
<g id="a_node7"><a xlink:href="class_c_wallet.html" target="_top" xlink:title="A CWallet is an extension of a keystore, which also maintains a set of transactions and balances...">
<polygon fill="white" stroke="black" points="846,-151.766 846,-170.766 898,-170.766 898,-151.766 846,-151.766"/>
<text text-anchor="middle" x="872" y="-158.766" font-family="Helvetica,sans-Serif" font-size="10.00">CWallet</text>
</a>
</g>
</g>
<!-- Node7&#45;&gt;Node2 -->
<g id="edge32" class="edge"><title>Node7&#45;&gt;Node2</title>
<path fill="none" stroke="#9a32cd" stroke-dasharray="5,2" d="M908.308,-161.266C942.967,-161.266 995.538,-161.266 1030.2,-161.266"/>
<polygon fill="#9a32cd" stroke="#9a32cd" points="908.166,-157.766 898.166,-161.266 908.166,-164.766 908.166,-157.766"/>
<text text-anchor="middle" x="960.5" y="-164.266" font-family="Helvetica,sans-Serif" font-size="10.00"> wallet</text>
</g>
<!-- Node7&#45;&gt;Node4 -->
<g id="edge19" class="edge"><title>Node7&#45;&gt;Node4</title>
<path fill="none" stroke="#9a32cd" stroke-dasharray="5,2" d="M896.682,-146.365C941.996,-118.835 1045.02,-60.9289 1141,-40.2658 1203.13,-26.8899 1277.33,-39.6575 1320.18,-49.7452"/>
<polygon fill="#9a32cd" stroke="#9a32cd" points="894.599,-143.537 887.911,-151.754 898.264,-149.501 894.599,-143.537"/>
<text text-anchor="middle" x="1066.5" y="-89.2658" font-family="Helvetica,sans-Serif" font-size="10.00"> wallet</text>
</g>
<!-- Node7&#45;&gt;Node6 -->
<g id="edge7" class="edge"><title>Node7&#45;&gt;Node6</title>
<path fill="none" stroke="#9a32cd" stroke-dasharray="5,2" d="M885.022,-142.835C895.443,-127.779 911.56,-106.564 929,-91.2658 960.631,-63.5209 970.552,-56.899 1010,-42.2658 1177.9,20.0175 1395.68,-1.07755 1495.78,-15.8773"/>
<polygon fill="#9a32cd" stroke="#9a32cd" points="881.999,-141.057 879.308,-151.305 887.802,-144.972 881.999,-141.057"/>
<text text-anchor="middle" x="1204" y="-13.2658" font-family="Helvetica,sans-Serif" font-size="10.00"> wallet</text>
</g>
<!-- Node7&#45;&gt;Node17 -->
<g id="edge26" class="edge"><title>Node7&#45;&gt;Node17</title>
<path fill="none" stroke="#9a32cd" stroke-dasharray="5,2" d="M881.507,-180.146C899.302,-217.115 944.321,-298.47 1010,-333.266 1110.99,-386.767 1253,-363.966 1319.05,-348.796"/>
<polygon fill="#9a32cd" stroke="#9a32cd" points="884.623,-178.547 877.216,-170.972 878.282,-181.513 884.623,-178.547"/>
<text text-anchor="middle" x="1066.5" y="-366.266" font-family="Helvetica,sans-Serif" font-size="10.00"> wallet</text>
</g>
<!-- Node18 -->
<g id="node18" class="node"><title>Node18</title>
<g id="a_node18"><a xlink:href="class_address_table_priv.html" target="_top" xlink:title="AddressTablePriv">
<polygon fill="white" stroke="black" points="1504,-363.766 1504,-382.766 1599,-382.766 1599,-363.766 1504,-363.766"/>
<text text-anchor="middle" x="1551.5" y="-370.766" font-family="Helvetica,sans-Serif" font-size="10.00">AddressTablePriv</text>
</a>
</g>
</g>
<!-- Node7&#45;&gt;Node18 -->
<g id="edge24" class="edge"><title>Node7&#45;&gt;Node18</title>
<path fill="none" stroke="#9a32cd" stroke-dasharray="5,2" d="M877.214,-180.681C888.653,-227.609 925.292,-345.727 1010,-378.266 1187.17,-446.322 1421.76,-403.723 1512.46,-382.835"/>
<polygon fill="#9a32cd" stroke="#9a32cd" points="880.603,-179.8 874.937,-170.848 873.784,-181.379 880.603,-179.8"/>
<text text-anchor="middle" x="1204" y="-418.266" font-family="Helvetica,sans-Serif" font-size="10.00"> wallet</text>
</g>
<!-- Node8 -->
<g id="node8" class="node"><title>Node8</title>
<g id="a_node8"><a xlink:href="class_c_crypto_key_store.html" target="_top" xlink:title="Keystore which keeps the private keys encrypted. ">
<polygon fill="white" stroke="black" points="605,-151.766 605,-170.766 699,-170.766 699,-151.766 605,-151.766"/>
<text text-anchor="middle" x="652" y="-158.766" font-family="Helvetica,sans-Serif" font-size="10.00">CCryptoKeyStore</text>
</a>
</g>
</g>
<!-- Node8&#45;&gt;Node7 -->
<g id="edge8" class="edge"><title>Node8&#45;&gt;Node7</title>
<path fill="none" stroke="midnightblue" d="M709.248,-161.266C753.379,-161.266 812.71,-161.266 845.873,-161.266"/>
<polygon fill="midnightblue" stroke="midnightblue" points="709.232,-157.766 699.232,-161.266 709.232,-164.766 709.232,-157.766"/>
</g>
<!-- Node9 -->
<g id="node9" class="node"><title>Node9</title>
<g id="a_node9"><a xlink:href="class_c_basic_key_store.html" target="_top" xlink:title="Basic key store, that keeps keys in an address&#45;&gt;secret map. ">
<polygon fill="white" stroke="black" points="474,-151.766 474,-170.766 563,-170.766 563,-151.766 474,-151.766"/>
<text text-anchor="middle" x="518.5" y="-158.766" font-family="Helvetica,sans-Serif" font-size="10.00">CBasicKeyStore</text>
</a>
</g>
</g>
<!-- Node9&#45;&gt;Node8 -->
<g id="edge9" class="edge"><title>Node9&#45;&gt;Node8</title>
<path fill="none" stroke="midnightblue" d="M573.476,-161.266C583.839,-161.266 594.605,-161.266 604.699,-161.266"/>
<polygon fill="midnightblue" stroke="midnightblue" points="573.288,-157.766 563.288,-161.266 573.288,-164.766 573.288,-157.766"/>
</g>
<!-- Node10 -->
<g id="node10" class="node"><title>Node10</title>
<g id="a_node10"><a xlink:href="class_c_key_store.html" target="_top" xlink:title="A virtual base class for key stores. ">
<polygon fill="white" stroke="black" points="372,-150.766 372,-169.766 437,-169.766 437,-150.766 372,-150.766"/>
<text text-anchor="middle" x="404.5" y="-157.766" font-family="Helvetica,sans-Serif" font-size="10.00">CKeyStore</text>
</a>
</g>
</g>
<!-- Node10&#45;&gt;Node9 -->
<g id="edge10" class="edge"><title>Node10&#45;&gt;Node9</title>
<path fill="none" stroke="midnightblue" d="M447.52,-160.641C456.144,-160.718 465.24,-160.799 473.917,-160.877"/>
<polygon fill="midnightblue" stroke="midnightblue" points="447.326,-157.139 437.295,-160.55 447.263,-164.139 447.326,-157.139"/>
</g>
<!-- Node11 -->
<g id="node11" class="node"><title>Node11</title>
<polygon fill="white" stroke="#bfbfbf" points="157,-124.266 157,-154.266 276,-154.266 276,-124.266 157,-124.266"/>
<text text-anchor="start" x="165" y="-142.266" font-family="Helvetica,sans-Serif" font-size="10.00">AnnotatedMixin&lt; boost</text>
<text text-anchor="middle" x="216.5" y="-131.266" font-family="Helvetica,sans-Serif" font-size="10.00">::recursive_mutex &gt;</text>
</g>
<!-- Node11&#45;&gt;Node7 -->
<g id="edge15" class="edge"><title>Node11&#45;&gt;Node7</title>
<path fill="none" stroke="#9a32cd" stroke-dasharray="5,2" d="M286.139,-129.984C321.186,-126.01 364.543,-122.266 403.5,-122.266 403.5,-122.266 403.5,-122.266 653,-122.266 723.745,-122.266 805.413,-142.413 845.755,-153.746"/>
<polygon fill="#9a32cd" stroke="#9a32cd" points="285.542,-126.53 276.015,-131.164 286.353,-133.483 285.542,-126.53"/>
<text text-anchor="middle" x="518.5" y="-125.266" font-family="Helvetica,sans-Serif" font-size="10.00"> cs_wallet</text>
</g>
<!-- Node11&#45;&gt;Node10 -->
<g id="edge11" class="edge"><title>Node11&#45;&gt;Node10</title>
<path fill="none" stroke="#9a32cd" stroke-dasharray="5,2" d="M286.323,-147.036C315.704,-150.353 348.543,-154.061 371.965,-156.705"/>
<polygon fill="#9a32cd" stroke="#9a32cd" points="286.426,-143.526 276.096,-145.882 285.64,-150.481 286.426,-143.526"/>
<text text-anchor="middle" x="324" y="-158.266" font-family="Helvetica,sans-Serif" font-size="10.00"> cs_KeyStore</text>
</g>
<!-- Node12 -->
<g id="node12" class="node"><title>Node12</title>
<polygon fill="white" stroke="#bfbfbf" points="0,-129.766 0,-148.766 120,-148.766 120,-129.766 0,-129.766"/>
<text text-anchor="middle" x="60" y="-136.766" font-family="Helvetica,sans-Serif" font-size="10.00">boost::recursive_mutex</text>
</g>
<!-- Node12&#45;&gt;Node11 -->
<g id="edge12" class="edge"><title>Node12&#45;&gt;Node11</title>
<path fill="none" stroke="midnightblue" d="M130.533,-139.266C139.334,-139.266 148.269,-139.266 156.877,-139.266"/>
<polygon fill="midnightblue" stroke="midnightblue" points="130.292,-135.766 120.292,-139.266 130.292,-142.766 130.292,-135.766"/>
</g>
<!-- Node13 -->
<g id="node13" class="node"><title>Node13</title>
<g id="a_node13"><a xlink:href="class_c_wallet_interface.html" target="_top" xlink:title="CWalletInterface">
<polygon fill="white" stroke="black" points="607,-74.7658 607,-93.7658 697,-93.7658 697,-74.7658 607,-74.7658"/>
<text text-anchor="middle" x="652" y="-81.7658" font-family="Helvetica,sans-Serif" font-size="10.00">CWalletInterface</text>
</a>
</g>
</g>
<!-- Node13&#45;&gt;Node7 -->
<g id="edge13" class="edge"><title>Node13&#45;&gt;Node7</title>
<path fill="none" stroke="midnightblue" d="M707.313,-84.2038C739.969,-86.0936 781.543,-92.0019 815,-108.266 835.948,-118.449 854.29,-139.274 863.892,-151.57"/>
<polygon fill="midnightblue" stroke="midnightblue" points="707.199,-80.6947 697.046,-83.7235 706.871,-87.6871 707.199,-80.6947"/>
</g>
<!-- Node14 -->
<g id="node14" class="node"><title>Node14</title>
<g id="a_node14"><a xlink:href="class_c_pub_key.html" target="_top" xlink:title="An encapsulated public key. ">
<polygon fill="white" stroke="black" points="622.5,-227.766 622.5,-246.766 681.5,-246.766 681.5,-227.766 622.5,-227.766"/>
<text text-anchor="middle" x="652" y="-234.766" font-family="Helvetica,sans-Serif" font-size="10.00">CPubKey</text>
</a>
</g>
</g>
<!-- Node14&#45;&gt;Node7 -->
<g id="edge14" class="edge"><title>Node14&#45;&gt;Node7</title>
<path fill="none" stroke="#9a32cd" stroke-dasharray="5,2" d="M691.712,-234.734C725.55,-231.348 775.335,-223.481 815,-205.266 833.427,-196.804 851.227,-181.126 861.641,-170.951"/>
<polygon fill="#9a32cd" stroke="#9a32cd" points="691.39,-231.248 681.752,-235.647 692.029,-238.219 691.39,-231.248"/>
<text text-anchor="middle" x="768.5" y="-234.266" font-family="Helvetica,sans-Serif" font-size="10.00"> vchDefaultKey</text>
</g>
<!-- Node15 -->
<g id="node15" class="node"><title>Node15</title>
<g id="a_node15"><a xlink:href="class_c_wallet_d_b.html" target="_top" xlink:title="Access to the wallet database (wallet.dat) ">
<polygon fill="white" stroke="black" points="619.5,-189.766 619.5,-208.766 684.5,-208.766 684.5,-189.766 619.5,-189.766"/>
<text text-anchor="middle" x="652" y="-196.766" font-family="Helvetica,sans-Serif" font-size="10.00">CWalletDB</text>
</a>
</g>
</g>
<!-- Node15&#45;&gt;Node7 -->
<g id="edge16" class="edge"><title>Node15&#45;&gt;Node7</title>
<path fill="none" stroke="#9a32cd" stroke-dasharray="5,2" d="M694.918,-193.677C727.714,-189.092 774.406,-182.098 815,-174.266 825.192,-172.299 836.345,-169.785 845.997,-167.493"/>
<polygon fill="#9a32cd" stroke="#9a32cd" points="694.21,-190.242 684.784,-195.079 695.169,-197.175 694.21,-190.242"/>
<text text-anchor="middle" x="768.5" y="-193.266" font-family="Helvetica,sans-Serif" font-size="10.00"> pwalletdbEncryption</text>
</g>
<!-- Node16 -->
<g id="node16" class="node"><title>Node16</title>
<g id="a_node16"><a xlink:href="class_c_d_b.html" target="_top" xlink:title="RAII class that provides access to a Berkeley database. ">
<polygon fill="white" stroke="black" points="499.5,-189.766 499.5,-208.766 537.5,-208.766 537.5,-189.766 499.5,-189.766"/>
<text text-anchor="middle" x="518.5" y="-196.766" font-family="Helvetica,sans-Serif" font-size="10.00">CDB</text>
</a>
</g>
</g>
<!-- Node16&#45;&gt;Node15 -->
<g id="edge17" class="edge"><title>Node16&#45;&gt;Node15</title>
<path fill="none" stroke="midnightblue" d="M547.732,-199.266C568.772,-199.266 597.516,-199.266 619.337,-199.266"/>
<polygon fill="midnightblue" stroke="midnightblue" points="547.509,-195.766 537.509,-199.266 547.509,-202.766 547.509,-195.766"/>
</g>
<!-- Node17&#45;&gt;Node2 -->
<g id="edge20" class="edge"><title>Node17&#45;&gt;Node2</title>
<path fill="none" stroke="#9a32cd" stroke-dasharray="5,2" d="M1317.11,-326.537C1256.4,-306.359 1144.66,-269.014 1141,-266.266 1105.77,-239.812 1081.07,-191.467 1071.68,-170.919"/>
<polygon fill="#9a32cd" stroke="#9a32cd" points="1316.16,-329.908 1326.75,-329.739 1318.36,-323.265 1316.16,-329.908"/>
<text text-anchor="middle" x="1204" y="-312.266" font-family="Helvetica,sans-Serif" font-size="10.00"> addressTableModel</text>
</g>
<!-- Node17&#45;&gt;Node18 -->
<g id="edge23" class="edge"><title>Node17&#45;&gt;Node18</title>
<path fill="none" stroke="#9a32cd" stroke-dasharray="5,2" d="M1419.13,-350.123C1446.62,-354.965 1478.46,-360.576 1503.92,-365.06"/>
<polygon fill="#9a32cd" stroke="#9a32cd" points="1419.68,-346.665 1409.22,-348.377 1418.46,-353.559 1419.68,-346.665"/>
<text text-anchor="middle" x="1462" y="-363.266" font-family="Helvetica,sans-Serif" font-size="10.00"> parent</text>
</g>
<!-- Node18&#45;&gt;Node17 -->
<g id="edge22" class="edge"><title>Node18&#45;&gt;Node17</title>
<path fill="none" stroke="#9a32cd" stroke-dasharray="5,2" d="M1525.61,-358.795C1512.03,-351.716 1494.62,-343.944 1478,-340.266 1455.73,-335.34 1430.58,-334.428 1409.04,-335.004"/>
<polygon fill="#9a32cd" stroke="#9a32cd" points="1524.31,-362.068 1534.77,-363.758 1527.65,-355.915 1524.31,-362.068"/>
<text text-anchor="middle" x="1462" y="-343.266" font-family="Helvetica,sans-Serif" font-size="10.00"> priv</text>
</g>
<!-- Node19&#45;&gt;Node2 -->
<g id="edge27" class="edge"><title>Node19&#45;&gt;Node2</title>
<path fill="none" stroke="#9a32cd" stroke-dasharray="5,2" d="M1274.82,-188.138C1234.55,-184.289 1185.13,-179.126 1141,-173.266 1128.44,-171.598 1114.72,-169.448 1102.58,-167.43"/>
<polygon fill="#9a32cd" stroke="#9a32cd" points="1274.57,-191.63 1284.85,-189.088 1275.23,-184.661 1274.57,-191.63"/>
<text text-anchor="middle" x="1204" y="-190.266" font-family="Helvetica,sans-Serif" font-size="10.00"> recentRequestsTableModel</text>
</g>
<!-- Node20 -->
<g id="node20" class="node"><title>Node20</title>
<g id="a_node20"><a xlink:href="class_options_model.html" target="_top" xlink:title="Interface from Qt to configuration data structure for Anoncoin client. ">
<polygon fill="white" stroke="black" points="833,-424.766 833,-443.766 911,-443.766 911,-424.766 833,-424.766"/>
<text text-anchor="middle" x="872" y="-431.766" font-family="Helvetica,sans-Serif" font-size="10.00">OptionsModel</text>
</a>
</g>
</g>
<!-- Node20&#45;&gt;Node2 -->
<g id="edge30" class="edge"><title>Node20&#45;&gt;Node2</title>
<path fill="none" stroke="#9a32cd" stroke-dasharray="5,2" d="M885.765,-416.163C923.002,-363.354 1030.64,-210.7 1058.73,-170.866"/>
<polygon fill="#9a32cd" stroke="#9a32cd" points="882.754,-414.36 879.851,-424.55 888.474,-418.394 882.754,-414.36"/>
<text text-anchor="middle" x="960.5" y="-356.266" font-family="Helvetica,sans-Serif" font-size="10.00"> optionsModel</text>
</g>
<!-- Node21 -->
<g id="node21" class="node"><title>Node21</title>
<polygon fill="white" stroke="#bfbfbf" points="600,-424.766 600,-443.766 704,-443.766 704,-424.766 600,-424.766"/>
<text text-anchor="middle" x="652" y="-431.766" font-family="Helvetica,sans-Serif" font-size="10.00">QAbstractListModel</text>
</g>
<!-- Node21&#45;&gt;Node20 -->
<g id="edge31" class="edge"><title>Node21&#45;&gt;Node20</title>
<path fill="none" stroke="midnightblue" d="M714.561,-434.266C752.582,-434.266 800.17,-434.266 832.816,-434.266"/>
<polygon fill="midnightblue" stroke="midnightblue" points="714.111,-430.766 704.111,-434.266 714.111,-437.766 714.111,-430.766"/>
</g>
</g>
</svg>
