<?xml version="1.0" encoding="UTF-8" standalone="no"?>
<!DOCTYPE svg PUBLIC "-//W3C//DTD SVG 1.1//EN"
 "http://www.w3.org/Graphics/SVG/1.1/DTD/svg11.dtd">
<!-- Generated by graphviz version 2.38.0 (20140413.2041)
 -->
<!-- Title: CWalletDB::WritePurpose Pages: 1 -->
<svg width="832pt" height="498pt"
 viewBox="0.00 0.00 832.00 498.00" xmlns="http://www.w3.org/2000/svg" xmlns:xlink="http://www.w3.org/1999/xlink">
<g id="graph0" class="graph" transform="scale(1 1) rotate(0) translate(4 494)">
<title>CWalletDB::WritePurpose</title>
<polygon fill="white" stroke="none" points="-4,4 -4,-494 828,-494 828,4 -4,4"/>
<!-- Node1 -->
<g id="node1" class="node"><title>Node1</title>
<polygon fill="#bfbfbf" stroke="black" points="0,-209.5 0,-228.5 132,-228.5 132,-209.5 0,-209.5"/>
<text text-anchor="middle" x="66" y="-216.5" font-family="Helvetica,sans-Serif" font-size="10.00">CWalletDB::WritePurpose</text>
</g>
<!-- Node2 -->
<g id="node2" class="node"><title>Node2</title>
<g id="a_node2"><a xlink:href="class_c_wallet.html#a53e5528d7005608594e73f500bc5bb8f" target="_top" xlink:title="CWallet::SetAddressBook">
<polygon fill="white" stroke="black" points="168,-209.5 168,-228.5 300,-228.5 300,-209.5 168,-209.5"/>
<text text-anchor="middle" x="234" y="-216.5" font-family="Helvetica,sans-Serif" font-size="10.00">CWallet::SetAddressBook</text>
</a>
</g>
</g>
<!-- Node1&#45;&gt;Node2 -->
<g id="edge1" class="edge"><title>Node1&#45;&gt;Node2</title>
<path fill="none" stroke="midnightblue" d="M142.393,-219C150.869,-219 159.452,-219 167.784,-219"/>
<polygon fill="midnightblue" stroke="midnightblue" points="142.131,-215.5 132.131,-219 142.131,-222.5 142.131,-215.5"/>
</g>
<!-- Node3 -->
<g id="node3" class="node"><title>Node3</title>
<g id="a_node3"><a xlink:href="init_8h.html#a1a4c1bfbf6ba1db77e988b89b9cadfd3" target="_top" xlink:title="Initialize anoncoin. ">
<polygon fill="white" stroke="black" points="396,-441.5 396,-460.5 449,-460.5 449,-441.5 396,-441.5"/>
<text text-anchor="middle" x="422.5" y="-448.5" font-family="Helvetica,sans-Serif" font-size="10.00">AppInit2</text>
</a>
</g>
</g>
<!-- Node2&#45;&gt;Node3 -->
<g id="edge2" class="edge"><title>Node2&#45;&gt;Node3</title>
<path fill="none" stroke="midnightblue" d="M238.413,-238.883C246.804,-281.401 272.563,-381.396 336,-432 352.88,-445.465 377.34,-449.838 395.778,-451.063"/>
<polygon fill="midnightblue" stroke="midnightblue" points="241.833,-238.13 236.565,-228.938 234.951,-239.409 241.833,-238.13"/>
</g>
<!-- Node7 -->
<g id="node7" class="node"><title>Node7</title>
<g id="a_node7"><a xlink:href="class_address_table_model.html#a5c6bd467fd1fc499d126fe2b7380ce5c" target="_top" xlink:title="AddressTableModel::\lsetData">
<polygon fill="white" stroke="black" points="367,-392 367,-422 478,-422 478,-392 367,-392"/>
<text text-anchor="start" x="375" y="-410" font-family="Helvetica,sans-Serif" font-size="10.00">AddressTableModel::</text>
<text text-anchor="middle" x="422.5" y="-399" font-family="Helvetica,sans-Serif" font-size="10.00">setData</text>
</a>
</g>
</g>
<!-- Node2&#45;&gt;Node7 -->
<g id="edge6" class="edge"><title>Node2&#45;&gt;Node7</title>
<path fill="none" stroke="midnightblue" d="M241.666,-238.73C254.377,-273.318 285.413,-344.844 336,-383 344.985,-389.777 355.799,-394.641 366.667,-398.131"/>
<polygon fill="midnightblue" stroke="midnightblue" points="244.818,-237.145 238.181,-228.887 238.219,-239.481 244.818,-237.145"/>
</g>
<!-- Node8 -->
<g id="node8" class="node"><title>Node8</title>
<g id="a_node8"><a xlink:href="class_address_table_model.html#aa72edd2a093a6e9318639d69d3a23488" target="_top" xlink:title="AddressTableModel::\laddRow">
<polygon fill="white" stroke="black" points="367,-343 367,-373 478,-373 478,-343 367,-343"/>
<text text-anchor="start" x="375" y="-361" font-family="Helvetica,sans-Serif" font-size="10.00">AddressTableModel::</text>
<text text-anchor="middle" x="422.5" y="-350" font-family="Helvetica,sans-Serif" font-size="10.00">addRow</text>
</a>
</g>
</g>
<!-- Node2&#45;&gt;Node8 -->
<g id="edge7" class="edge"><title>Node2&#45;&gt;Node8</title>
<path fill="none" stroke="midnightblue" d="M246.281,-237.183C262.862,-262.409 296.2,-307.762 336,-333 345.273,-338.88 355.979,-343.422 366.61,-346.915"/>
<polygon fill="midnightblue" stroke="midnightblue" points="249.111,-235.113 240.767,-228.584 243.218,-238.891 249.111,-235.113"/>
</g>
<!-- Node13 -->
<g id="node13" class="node"><title>Node13</title>
<g id="a_node13"><a xlink:href="class_payment_server.html#ab846f9e8778e5cc878b644133e8628f1" target="_top" xlink:title="PaymentServer::fetchPaymentACK">
<polygon fill="white" stroke="black" points="336,-304.5 336,-323.5 509,-323.5 509,-304.5 336,-304.5"/>
<text text-anchor="middle" x="422.5" y="-311.5" font-family="Helvetica,sans-Serif" font-size="10.00">PaymentServer::fetchPaymentACK</text>
</a>
</g>
</g>
<!-- Node2&#45;&gt;Node13 -->
<g id="edge12" class="edge"><title>Node2&#45;&gt;Node13</title>
<path fill="none" stroke="midnightblue" d="M252.175,-235.63C271.15,-253.059 303.362,-279.957 336,-295 344.424,-298.883 353.688,-301.994 362.913,-304.48"/>
<polygon fill="midnightblue" stroke="midnightblue" points="254.35,-232.871 244.662,-228.583 249.561,-237.977 254.35,-232.871"/>
</g>
<!-- Node14 -->
<g id="node14" class="node"><title>Node14</title>
<g id="a_node14"><a xlink:href="class_wallet_model.html#a53443aca544c824550f21e5f87e4ec39" target="_top" xlink:title="WalletModel::sendCoins">
<polygon fill="white" stroke="black" points="360.5,-266.5 360.5,-285.5 484.5,-285.5 484.5,-266.5 360.5,-266.5"/>
<text text-anchor="middle" x="422.5" y="-273.5" font-family="Helvetica,sans-Serif" font-size="10.00">WalletModel::sendCoins</text>
</a>
</g>
</g>
<!-- Node2&#45;&gt;Node14 -->
<g id="edge13" class="edge"><title>Node2&#45;&gt;Node14</title>
<path fill="none" stroke="midnightblue" d="M266.951,-232.345C286.626,-240.23 312.497,-250.005 336,-257 347.805,-260.513 360.699,-263.705 372.812,-266.428"/>
<polygon fill="midnightblue" stroke="midnightblue" points="268.133,-229.048 257.551,-228.534 265.503,-235.535 268.133,-229.048"/>
</g>
<!-- Node16 -->
<g id="node16" class="node"><title>Node16</title>
<g id="a_node16"><a xlink:href="rpcdump_8cpp.html#a3a6fdb974fce01220a895393d444e981" target="_top" xlink:title="importprivkey">
<polygon fill="white" stroke="black" points="384.5,-228.5 384.5,-247.5 460.5,-247.5 460.5,-228.5 384.5,-228.5"/>
<text text-anchor="middle" x="422.5" y="-235.5" font-family="Helvetica,sans-Serif" font-size="10.00">importprivkey</text>
</a>
</g>
</g>
<!-- Node2&#45;&gt;Node16 -->
<g id="edge15" class="edge"><title>Node2&#45;&gt;Node16</title>
<path fill="none" stroke="midnightblue" d="M310.262,-226.667C335.75,-229.264 363.102,-232.051 384.305,-234.211"/>
<polygon fill="midnightblue" stroke="midnightblue" points="310.532,-223.177 300.229,-225.645 309.822,-230.141 310.532,-223.177"/>
</g>
<!-- Node17 -->
<g id="node17" class="node"><title>Node17</title>
<g id="a_node17"><a xlink:href="rpcdump_8cpp.html#a457bc572859c8265c72a0afd1a6db56c" target="_top" xlink:title="importaddress">
<polygon fill="white" stroke="black" points="382.5,-190.5 382.5,-209.5 462.5,-209.5 462.5,-190.5 382.5,-190.5"/>
<text text-anchor="middle" x="422.5" y="-197.5" font-family="Helvetica,sans-Serif" font-size="10.00">importaddress</text>
</a>
</g>
</g>
<!-- Node2&#45;&gt;Node17 -->
<g id="edge16" class="edge"><title>Node2&#45;&gt;Node17</title>
<path fill="none" stroke="midnightblue" d="M310.326,-211.326C335.042,-208.808 361.503,-206.112 382.407,-203.983"/>
<polygon fill="midnightblue" stroke="midnightblue" points="309.822,-207.859 300.229,-212.355 310.532,-214.823 309.822,-207.859"/>
</g>
<!-- Node18 -->
<g id="node18" class="node"><title>Node18</title>
<g id="a_node18"><a xlink:href="rpcdump_8cpp.html#a2566d5c9dd1938b74e70398cdb3ac5c1" target="_top" xlink:title="importwallet">
<polygon fill="white" stroke="black" points="387.5,-152.5 387.5,-171.5 457.5,-171.5 457.5,-152.5 387.5,-152.5"/>
<text text-anchor="middle" x="422.5" y="-159.5" font-family="Helvetica,sans-Serif" font-size="10.00">importwallet</text>
</a>
</g>
</g>
<!-- Node2&#45;&gt;Node18 -->
<g id="edge17" class="edge"><title>Node2&#45;&gt;Node18</title>
<path fill="none" stroke="midnightblue" d="M266.951,-205.655C286.626,-197.77 312.497,-187.995 336,-181 352.614,-176.055 371.387,-171.747 387.1,-168.488"/>
<polygon fill="midnightblue" stroke="midnightblue" points="265.503,-202.465 257.551,-209.466 268.133,-208.952 265.503,-202.465"/>
</g>
<!-- Node19 -->
<g id="node19" class="node"><title>Node19</title>
<g id="a_node19"><a xlink:href="rpcwallet_8cpp.html#aead824d845d670fbd8f187ebd4f9a535" target="_top" xlink:title="getnewaddress">
<polygon fill="white" stroke="black" points="380.5,-114.5 380.5,-133.5 464.5,-133.5 464.5,-114.5 380.5,-114.5"/>
<text text-anchor="middle" x="422.5" y="-121.5" font-family="Helvetica,sans-Serif" font-size="10.00">getnewaddress</text>
</a>
</g>
</g>
<!-- Node2&#45;&gt;Node19 -->
<g id="edge18" class="edge"><title>Node2&#45;&gt;Node19</title>
<path fill="none" stroke="midnightblue" d="M252.175,-202.37C271.15,-184.941 303.362,-158.043 336,-143 349.81,-136.635 365.877,-132.344 380.331,-129.477"/>
<polygon fill="midnightblue" stroke="midnightblue" points="249.561,-200.023 244.662,-209.417 254.35,-205.129 249.561,-200.023"/>
</g>
<!-- Node20 -->
<g id="node20" class="node"><title>Node20</title>
<g id="a_node20"><a xlink:href="rpcwallet_8cpp.html#a9f40a730390f78ad6e2c32d0ec9bf1ef" target="_top" xlink:title="GetAccountAddress">
<polygon fill="white" stroke="black" points="370,-76.5 370,-95.5 475,-95.5 475,-76.5 370,-76.5"/>
<text text-anchor="middle" x="422.5" y="-83.5" font-family="Helvetica,sans-Serif" font-size="10.00">GetAccountAddress</text>
</a>
</g>
</g>
<!-- Node2&#45;&gt;Node20 -->
<g id="edge19" class="edge"><title>Node2&#45;&gt;Node20</title>
<path fill="none" stroke="midnightblue" d="M246.057,-200.451C262.371,-174.787 295.391,-128.915 336,-105 346.22,-98.9813 358.15,-94.8664 369.798,-92.0539"/>
<polygon fill="midnightblue" stroke="midnightblue" points="242.923,-198.864 240.641,-209.21 248.877,-202.545 242.923,-198.864"/>
</g>
<!-- Node22 -->
<g id="node22" class="node"><title>Node22</title>
<g id="a_node22"><a xlink:href="rpcwallet_8cpp.html#a6bf0dc200554f841a4549a2e5087f699" target="_top" xlink:title="setaccount">
<polygon fill="white" stroke="black" points="580.5,-38.5 580.5,-57.5 645.5,-57.5 645.5,-38.5 580.5,-38.5"/>
<text text-anchor="middle" x="613" y="-45.5" font-family="Helvetica,sans-Serif" font-size="10.00">setaccount</text>
</a>
</g>
</g>
<!-- Node2&#45;&gt;Node22 -->
<g id="edge22" class="edge"><title>Node2&#45;&gt;Node22</title>
<path fill="none" stroke="midnightblue" d="M241.399,-199.662C253.692,-165.958 284.094,-97.1707 336,-67 414.067,-21.6233 526.322,-32.6468 580.449,-41.7047"/>
<polygon fill="midnightblue" stroke="midnightblue" points="238.033,-198.684 238.039,-209.279 244.641,-200.993 238.033,-198.684"/>
</g>
<!-- Node23 -->
<g id="node23" class="node"><title>Node23</title>
<g id="a_node23"><a xlink:href="rpcwallet_8cpp.html#a01e8a83cbd4209f10c71719383d7ca2d" target="_top" xlink:title="addmultisigaddress">
<polygon fill="white" stroke="black" points="371,-0.5 371,-19.5 474,-19.5 474,-0.5 371,-0.5"/>
<text text-anchor="middle" x="422.5" y="-7.5" font-family="Helvetica,sans-Serif" font-size="10.00">addmultisigaddress</text>
</a>
</g>
</g>
<!-- Node2&#45;&gt;Node23 -->
<g id="edge23" class="edge"><title>Node2&#45;&gt;Node23</title>
<path fill="none" stroke="midnightblue" d="M240.153,-199.403C251.137,-161.541 280.5,-78.1842 336,-34 346.011,-26.0299 358.519,-20.705 370.851,-17.148"/>
<polygon fill="midnightblue" stroke="midnightblue" points="236.735,-198.632 237.43,-209.204 243.479,-200.506 236.735,-198.632"/>
</g>
<!-- Node4 -->
<g id="node4" class="node"><title>Node4</title>
<g id="a_node4"><a xlink:href="anoncoind_8cpp.html#ac59316b767e6984e1285f0531275286b" target="_top" xlink:title="AppInit">
<polygon fill="white" stroke="black" points="589,-470.5 589,-489.5 637,-489.5 637,-470.5 589,-470.5"/>
<text text-anchor="middle" x="613" y="-477.5" font-family="Helvetica,sans-Serif" font-size="10.00">AppInit</text>
</a>
</g>
</g>
<!-- Node3&#45;&gt;Node4 -->
<g id="edge3" class="edge"><title>Node3&#45;&gt;Node4</title>
<path fill="none" stroke="midnightblue" d="M459.463,-456.533C497.546,-462.392 556.533,-471.467 588.861,-476.44"/>
<polygon fill="midnightblue" stroke="midnightblue" points="459.731,-453.033 449.315,-454.972 458.666,-459.951 459.731,-453.033"/>
</g>
<!-- Node6 -->
<g id="node6" class="node"><title>Node6</title>
<g id="a_node6"><a xlink:href="class_anoncoin_coin.html#a9510881824d283404ac43414dbb74586" target="_top" xlink:title="AnoncoinCoin::initialize">
<polygon fill="white" stroke="black" points="553,-432.5 553,-451.5 673,-451.5 673,-432.5 553,-432.5"/>
<text text-anchor="middle" x="613" y="-439.5" font-family="Helvetica,sans-Serif" font-size="10.00">AnoncoinCoin::initialize</text>
</a>
</g>
</g>
<!-- Node3&#45;&gt;Node6 -->
<g id="edge5" class="edge"><title>Node3&#45;&gt;Node6</title>
<path fill="none" stroke="midnightblue" d="M459.597,-449.277C485.945,-448.019 522.245,-446.285 552.809,-444.826"/>
<polygon fill="midnightblue" stroke="midnightblue" points="459.137,-445.794 449.315,-449.767 459.47,-452.786 459.137,-445.794"/>
</g>
<!-- Node5 -->
<g id="node5" class="node"><title>Node5</title>
<g id="a_node5"><a xlink:href="anoncoind_8cpp.html#a0ddf1224851353fc92bfbff6f499fa97" target="_top" xlink:title="main">
<polygon fill="white" stroke="black" points="751.5,-470.5 751.5,-489.5 789.5,-489.5 789.5,-470.5 751.5,-470.5"/>
<text text-anchor="middle" x="770.5" y="-477.5" font-family="Helvetica,sans-Serif" font-size="10.00">main</text>
</a>
</g>
</g>
<!-- Node4&#45;&gt;Node5 -->
<g id="edge4" class="edge"><title>Node4&#45;&gt;Node5</title>
<path fill="none" stroke="midnightblue" d="M647.454,-480C679.29,-480 725.996,-480 751.406,-480"/>
<polygon fill="midnightblue" stroke="midnightblue" points="647.28,-476.5 637.28,-480 647.28,-483.5 647.28,-476.5"/>
</g>
<!-- Node9 -->
<g id="node9" class="node"><title>Node9</title>
<g id="a_node9"><a xlink:href="class_edit_address_dialog.html#a8494a551799cd1f4c253e557424c206c" target="_top" xlink:title="EditAddressDialog::\lsaveCurrentRow">
<polygon fill="white" stroke="black" points="561,-375 561,-405 665,-405 665,-375 561,-375"/>
<text text-anchor="start" x="569" y="-393" font-family="Helvetica,sans-Serif" font-size="10.00">EditAddressDialog::</text>
<text text-anchor="middle" x="613" y="-382" font-family="Helvetica,sans-Serif" font-size="10.00">saveCurrentRow</text>
</a>
</g>
</g>
<!-- Node8&#45;&gt;Node9 -->
<g id="edge8" class="edge"><title>Node8&#45;&gt;Node9</title>
<path fill="none" stroke="midnightblue" d="M488.021,-368.953C511.801,-372.99 538.393,-377.504 560.834,-381.314"/>
<polygon fill="midnightblue" stroke="midnightblue" points="488.467,-365.479 478.022,-367.256 487.295,-372.38 488.467,-365.479"/>
</g>
<!-- Node11 -->
<g id="node11" class="node"><title>Node11</title>
<g id="a_node11"><a xlink:href="class_receive_coins_dialog.html#a9db8de31f6889288cb22c061aa51e0cd" target="_top" xlink:title="ReceiveCoinsDialog\l::on_receiveButton_clicked">
<polygon fill="white" stroke="black" points="545,-326 545,-356 681,-356 681,-326 545,-326"/>
<text text-anchor="start" x="553" y="-344" font-family="Helvetica,sans-Serif" font-size="10.00">ReceiveCoinsDialog</text>
<text text-anchor="middle" x="613" y="-333" font-family="Helvetica,sans-Serif" font-size="10.00">::on_receiveButton_clicked</text>
</a>
</g>
</g>
<!-- Node8&#45;&gt;Node11 -->
<g id="edge10" class="edge"><title>Node8&#45;&gt;Node11</title>
<path fill="none" stroke="midnightblue" d="M488.021,-352.181C506.365,-350.527 526.384,-348.721 544.878,-347.053"/>
<polygon fill="midnightblue" stroke="midnightblue" points="487.667,-348.699 478.022,-353.083 488.296,-355.67 487.667,-348.699"/>
</g>
<!-- Node10 -->
<g id="node10" class="node"><title>Node10</title>
<g id="a_node10"><a xlink:href="class_edit_address_dialog.html#ac52b71129806bccf6533d0e9441393b6" target="_top" xlink:title="EditAddressDialog::\laccept">
<polygon fill="white" stroke="black" points="718.5,-375 718.5,-405 822.5,-405 822.5,-375 718.5,-375"/>
<text text-anchor="start" x="726.5" y="-393" font-family="Helvetica,sans-Serif" font-size="10.00">EditAddressDialog::</text>
<text text-anchor="middle" x="770.5" y="-382" font-family="Helvetica,sans-Serif" font-size="10.00">accept</text>
</a>
</g>
</g>
<!-- Node9&#45;&gt;Node10 -->
<g id="edge9" class="edge"><title>Node9&#45;&gt;Node10</title>
<path fill="none" stroke="midnightblue" d="M675.543,-390C689.769,-390 704.752,-390 718.472,-390"/>
<polygon fill="midnightblue" stroke="midnightblue" points="675.348,-386.5 665.347,-390 675.347,-393.5 675.348,-386.5"/>
</g>
<!-- Node12 -->
<g id="node12" class="node"><title>Node12</title>
<g id="a_node12"><a xlink:href="class_receive_coins_dialog.html#abcf17b510c473bf3e94ef12f7f5cfc10" target="_top" xlink:title="ReceiveCoinsDialog\l::keyPressEvent">
<polygon fill="white" stroke="black" points="717,-326 717,-356 824,-356 824,-326 717,-326"/>
<text text-anchor="start" x="725" y="-344" font-family="Helvetica,sans-Serif" font-size="10.00">ReceiveCoinsDialog</text>
<text text-anchor="middle" x="770.5" y="-333" font-family="Helvetica,sans-Serif" font-size="10.00">::keyPressEvent</text>
</a>
</g>
</g>
<!-- Node11&#45;&gt;Node12 -->
<g id="edge11" class="edge"><title>Node11&#45;&gt;Node12</title>
<path fill="none" stroke="midnightblue" d="M691.326,-341C699.89,-341 708.462,-341 716.624,-341"/>
<polygon fill="midnightblue" stroke="midnightblue" points="691.3,-337.5 681.3,-341 691.3,-344.5 691.3,-337.5"/>
</g>
<!-- Node15 -->
<g id="node15" class="node"><title>Node15</title>
<g id="a_node15"><a xlink:href="class_send_coins_dialog.html#a2cab7cf9ea5040b9e2189297f7d3c764" target="_top" xlink:title="SendCoinsDialog::on\l_sendButton_clicked">
<polygon fill="white" stroke="black" points="558,-261 558,-291 668,-291 668,-261 558,-261"/>
<text text-anchor="start" x="566" y="-279" font-family="Helvetica,sans-Serif" font-size="10.00">SendCoinsDialog::on</text>
<text text-anchor="middle" x="613" y="-268" font-family="Helvetica,sans-Serif" font-size="10.00">_sendButton_clicked</text>
</a>
</g>
</g>
<!-- Node14&#45;&gt;Node15 -->
<g id="edge14" class="edge"><title>Node14&#45;&gt;Node15</title>
<path fill="none" stroke="midnightblue" d="M494.8,-276C515.675,-276 538.148,-276 557.777,-276"/>
<polygon fill="midnightblue" stroke="midnightblue" points="494.701,-272.5 484.701,-276 494.701,-279.5 494.701,-272.5"/>
</g>
<!-- Node21 -->
<g id="node21" class="node"><title>Node21</title>
<g id="a_node21"><a xlink:href="rpcwallet_8cpp.html#a92145bcb3cfb45eb47dca18f1c94c434" target="_top" xlink:title="getaccountaddress">
<polygon fill="white" stroke="black" points="562.5,-76.5 562.5,-95.5 663.5,-95.5 663.5,-76.5 562.5,-76.5"/>
<text text-anchor="middle" x="613" y="-83.5" font-family="Helvetica,sans-Serif" font-size="10.00">getaccountaddress</text>
</a>
</g>
</g>
<!-- Node20&#45;&gt;Node21 -->
<g id="edge20" class="edge"><title>Node20&#45;&gt;Node21</title>
<path fill="none" stroke="midnightblue" d="M485.111,-86C510.086,-86 538.55,-86 562.181,-86"/>
<polygon fill="midnightblue" stroke="midnightblue" points="485.008,-82.5001 475.008,-86 485.008,-89.5001 485.008,-82.5001"/>
</g>
<!-- Node20&#45;&gt;Node22 -->
<g id="edge21" class="edge"><title>Node20&#45;&gt;Node22</title>
<path fill="none" stroke="midnightblue" d="M480.967,-74.4152C513.662,-67.8241 553.362,-59.8209 580.436,-54.363"/>
<polygon fill="midnightblue" stroke="midnightblue" points="480.178,-71.0038 471.067,-76.411 481.561,-77.8657 480.178,-71.0038"/>
</g>
</g>
</svg>
