<?xml version="1.0" encoding="UTF-8" standalone="no"?>
<!DOCTYPE svg PUBLIC "-//W3C//DTD SVG 1.1//EN"
 "http://www.w3.org/Graphics/SVG/1.1/DTD/svg11.dtd">
<!-- Generated by graphviz version 2.38.0 (20140413.2041)
 -->
<!-- Title: ClientModel::formatBuildDate Pages: 1 -->
<svg width="956pt" height="88pt"
 viewBox="0.00 0.00 956.00 88.00" xmlns="http://www.w3.org/2000/svg" xmlns:xlink="http://www.w3.org/1999/xlink">
<g id="graph0" class="graph" transform="scale(1 1) rotate(0) translate(4 84)">
<title>ClientModel::formatBuildDate</title>
<polygon fill="white" stroke="none" points="-4,4 -4,-84 952,-84 952,4 -4,4"/>
<!-- Node1 -->
<g id="node1" class="node"><title>Node1</title>
<polygon fill="#bfbfbf" stroke="black" points="0,-30 0,-49 147,-49 147,-30 0,-30"/>
<text text-anchor="middle" x="73.5" y="-37" font-family="Helvetica,sans-Serif" font-size="10.00">ClientModel::formatBuildDate</text>
</g>
<!-- Node2 -->
<g id="node2" class="node"><title>Node2</title>
<g id="a_node2"><a xlink:href="class_r_p_c_console.html#a355349a33664a07628e9ca22a60f5fa7" target="_top" xlink:title="RPCConsole::setClientModel">
<polygon fill="white" stroke="black" points="183,-30 183,-49 329,-49 329,-30 183,-30"/>
<text text-anchor="middle" x="256" y="-37" font-family="Helvetica,sans-Serif" font-size="10.00">RPCConsole::setClientModel</text>
</a>
</g>
</g>
<!-- Node1&#45;&gt;Node2 -->
<g id="edge1" class="edge"><title>Node1&#45;&gt;Node2</title>
<path fill="none" stroke="midnightblue" d="M157.414,-39.5C165.892,-39.5 174.457,-39.5 182.806,-39.5"/>
<polygon fill="midnightblue" stroke="midnightblue" points="157.136,-36.0001 147.136,-39.5 157.136,-43.0001 157.136,-36.0001"/>
</g>
<!-- Node3 -->
<g id="node3" class="node"><title>Node3</title>
<g id="a_node3"><a xlink:href="class_anoncoin_g_u_i.html#ab6dbbc9dae6aee55656d615c1aff5399" target="_top" xlink:title="Set the client model. ">
<polygon fill="white" stroke="black" points="365,-30 365,-49 513,-49 513,-30 365,-30"/>
<text text-anchor="middle" x="439" y="-37" font-family="Helvetica,sans-Serif" font-size="10.00">AnoncoinGUI::setClientModel</text>
</a>
</g>
</g>
<!-- Node2&#45;&gt;Node3 -->
<g id="edge2" class="edge"><title>Node2&#45;&gt;Node3</title>
<path fill="none" stroke="midnightblue" d="M339.318,-39.5C347.786,-39.5 356.35,-39.5 364.712,-39.5"/>
<polygon fill="midnightblue" stroke="midnightblue" points="339.056,-36.0001 329.056,-39.5 339.056,-43.0001 339.056,-36.0001"/>
</g>
<!-- Node4 -->
<g id="node4" class="node"><title>Node4</title>
<g id="a_node4"><a xlink:href="class_anoncoin_application.html#a931ed67447cc07f1e0f32327b122af01" target="_top" xlink:title="Request core shutdown. ">
<polygon fill="white" stroke="black" points="549,-49.5 549,-79.5 656,-79.5 656,-49.5 549,-49.5"/>
<text text-anchor="start" x="557" y="-67.5" font-family="Helvetica,sans-Serif" font-size="10.00">AnoncoinApplication</text>
<text text-anchor="middle" x="602.5" y="-56.5" font-family="Helvetica,sans-Serif" font-size="10.00">::requestShutdown</text>
</a>
</g>
</g>
<!-- Node3&#45;&gt;Node4 -->
<g id="edge3" class="edge"><title>Node3&#45;&gt;Node4</title>
<path fill="none" stroke="midnightblue" d="M511.501,-50.5682C524.06,-52.5123 536.921,-54.5033 548.848,-56.3496"/>
<polygon fill="midnightblue" stroke="midnightblue" points="511.935,-47.0938 501.517,-49.0227 510.864,-54.0114 511.935,-47.0938"/>
</g>
<!-- Node6 -->
<g id="node6" class="node"><title>Node6</title>
<g id="a_node6"><a xlink:href="class_anoncoin_application.html#a565d432edd9d4fc30ce60bfd8d5699e3" target="_top" xlink:title="AnoncoinApplication\l::initializeResult">
<polygon fill="white" stroke="black" points="549,-0.5 549,-30.5 656,-30.5 656,-0.5 549,-0.5"/>
<text text-anchor="start" x="557" y="-18.5" font-family="Helvetica,sans-Serif" font-size="10.00">AnoncoinApplication</text>
<text text-anchor="middle" x="602.5" y="-7.5" font-family="Helvetica,sans-Serif" font-size="10.00">::initializeResult</text>
</a>
</g>
</g>
<!-- Node3&#45;&gt;Node6 -->
<g id="edge5" class="edge"><title>Node3&#45;&gt;Node6</title>
<path fill="none" stroke="midnightblue" d="M514.431,-28.439C526.047,-26.7128 537.838,-24.9606 548.835,-23.3263"/>
<polygon fill="midnightblue" stroke="midnightblue" points="513.67,-25.0136 504.293,-29.9456 514.699,-31.9376 513.67,-25.0136"/>
</g>
<!-- Node5 -->
<g id="node5" class="node"><title>Node5</title>
<g id="a_node5"><a xlink:href="anoncoin_8cpp.html#a0ddf1224851353fc92bfbff6f499fa97" target="_top" xlink:title="main">
<polygon fill="white" stroke="black" points="726.5,-55 726.5,-74 764.5,-74 764.5,-55 726.5,-55"/>
<text text-anchor="middle" x="745.5" y="-62" font-family="Helvetica,sans-Serif" font-size="10.00">main</text>
</a>
</g>
</g>
<!-- Node4&#45;&gt;Node5 -->
<g id="edge4" class="edge"><title>Node4&#45;&gt;Node5</title>
<path fill="none" stroke="midnightblue" d="M666.295,-64.5C688.187,-64.5 711.082,-64.5 726.4,-64.5"/>
<polygon fill="midnightblue" stroke="midnightblue" points="666.003,-61.0001 656.003,-64.5 666.003,-68.0001 666.003,-61.0001"/>
</g>
<!-- Node7 -->
<g id="node7" class="node"><title>Node7</title>
<g id="a_node7"><a xlink:href="class_anoncoin_application.html#a757849a7d52cb0559592ba4194f4872c" target="_top" xlink:title="AnoncoinApplication\l::startThread">
<polygon fill="white" stroke="black" points="692,-0.5 692,-30.5 799,-30.5 799,-0.5 692,-0.5"/>
<text text-anchor="start" x="700" y="-18.5" font-family="Helvetica,sans-Serif" font-size="10.00">AnoncoinApplication</text>
<text text-anchor="middle" x="745.5" y="-7.5" font-family="Helvetica,sans-Serif" font-size="10.00">::startThread</text>
</a>
</g>
</g>
<!-- Node6&#45;&gt;Node7 -->
<g id="edge6" class="edge"><title>Node6&#45;&gt;Node7</title>
<path fill="none" stroke="midnightblue" d="M666.05,-15.5C674.7,-15.5 683.51,-15.5 691.953,-15.5"/>
<polygon fill="midnightblue" stroke="midnightblue" points="666.003,-12.0001 656.003,-15.5 666.003,-19.0001 666.003,-12.0001"/>
</g>
<!-- Node8 -->
<g id="node8" class="node"><title>Node8</title>
<g id="a_node8"><a xlink:href="class_anoncoin_application.html#a4e345b36dac09420eac7edc10fa4ffcf" target="_top" xlink:title="AnoncoinApplication\l::AnoncoinApplication">
<polygon fill="white" stroke="black" points="835,-0.5 835,-30.5 948,-30.5 948,-0.5 835,-0.5"/>
<text text-anchor="start" x="843" y="-18.5" font-family="Helvetica,sans-Serif" font-size="10.00">AnoncoinApplication</text>
<text text-anchor="middle" x="891.5" y="-7.5" font-family="Helvetica,sans-Serif" font-size="10.00">::AnoncoinApplication</text>
</a>
</g>
</g>
<!-- Node7&#45;&gt;Node8 -->
<g id="edge7" class="edge"><title>Node7&#45;&gt;Node8</title>
<path fill="none" stroke="midnightblue" d="M809.473,-15.5C817.905,-15.5 826.505,-15.5 834.8,-15.5"/>
<polygon fill="midnightblue" stroke="midnightblue" points="809.303,-12.0001 799.303,-15.5 809.303,-19.0001 809.303,-12.0001"/>
</g>
</g>
</svg>
