<?xml version="1.0" encoding="UTF-8" standalone="no"?>
<!DOCTYPE svg PUBLIC "-//W3C//DTD SVG 1.1//EN"
 "http://www.w3.org/Graphics/SVG/1.1/DTD/svg11.dtd">
<!-- Generated by graphviz version 2.38.0 (20140413.2041)
 -->
<!-- Title: payments::Output::clear_has_script Pages: 1 -->
<svg width="301pt" height="137pt"
 viewBox="0.00 0.00 301.00 137.00" xmlns="http://www.w3.org/2000/svg" xmlns:xlink="http://www.w3.org/1999/xlink">
<g id="graph0" class="graph" transform="scale(1 1) rotate(0) translate(4 133)">
<title>payments::Output::clear_has_script</title>
<polygon fill="white" stroke="none" points="-4,4 -4,-133 297,-133 297,4 -4,4"/>
<!-- Node1 -->
<g id="node1" class="node"><title>Node1</title>
<polygon fill="#bfbfbf" stroke="black" points="0,-49.5 0,-79.5 123,-79.5 123,-49.5 0,-49.5"/>
<text text-anchor="start" x="8" y="-67.5" font-family="Helvetica,sans-Serif" font-size="10.00">payments::Output::clear</text>
<text text-anchor="middle" x="61.5" y="-56.5" font-family="Helvetica,sans-Serif" font-size="10.00">_has_script</text>
</g>
<!-- Node2 -->
<g id="node2" class="node"><title>Node2</title>
<g id="a_node2"><a xlink:href="classpayments_1_1_output.html#a57c616862b2e1770e88289fc07475feb" target="_top" xlink:title="payments::Output::clear\l_script">
<polygon fill="white" stroke="black" points="164.5,-98.5 164.5,-128.5 287.5,-128.5 287.5,-98.5 164.5,-98.5"/>
<text text-anchor="start" x="172.5" y="-116.5" font-family="Helvetica,sans-Serif" font-size="10.00">payments::Output::clear</text>
<text text-anchor="middle" x="226" y="-105.5" font-family="Helvetica,sans-Serif" font-size="10.00">_script</text>
</a>
</g>
</g>
<!-- Node1&#45;&gt;Node2 -->
<g id="edge1" class="edge"><title>Node1&#45;&gt;Node2</title>
<path fill="none" stroke="midnightblue" d="M122.568,-82.6129C139.844,-87.8222 158.493,-93.4457 175.084,-98.4484"/>
<polygon fill="midnightblue" stroke="midnightblue" points="123.166,-79.1375 112.581,-79.6014 121.145,-85.8395 123.166,-79.1375"/>
</g>
<!-- Node3 -->
<g id="node3" class="node"><title>Node3</title>
<g id="a_node3"><a xlink:href="classpayments_1_1_output.html#a9512d06e6d8310cd0fa6775b92babddb" target="_top" xlink:title="payments::Output::release\l_script">
<polygon fill="white" stroke="black" points="159,-49.5 159,-79.5 293,-79.5 293,-49.5 159,-49.5"/>
<text text-anchor="start" x="167" y="-67.5" font-family="Helvetica,sans-Serif" font-size="10.00">payments::Output::release</text>
<text text-anchor="middle" x="226" y="-56.5" font-family="Helvetica,sans-Serif" font-size="10.00">_script</text>
</a>
</g>
</g>
<!-- Node1&#45;&gt;Node3 -->
<g id="edge2" class="edge"><title>Node1&#45;&gt;Node3</title>
<path fill="none" stroke="midnightblue" d="M133.03,-64.5C141.65,-64.5 150.435,-64.5 158.986,-64.5"/>
<polygon fill="midnightblue" stroke="midnightblue" points="133.009,-61.0001 123.009,-64.5 133.009,-68.0001 133.009,-61.0001"/>
</g>
<!-- Node4 -->
<g id="node4" class="node"><title>Node4</title>
<g id="a_node4"><a xlink:href="classpayments_1_1_output.html#a2ccf6b84cbe7f8a6d837bbc89ea87101" target="_top" xlink:title="payments::Output::set\l_allocated_script">
<polygon fill="white" stroke="black" points="169,-0.5 169,-30.5 283,-30.5 283,-0.5 169,-0.5"/>
<text text-anchor="start" x="177" y="-18.5" font-family="Helvetica,sans-Serif" font-size="10.00">payments::Output::set</text>
<text text-anchor="middle" x="226" y="-7.5" font-family="Helvetica,sans-Serif" font-size="10.00">_allocated_script</text>
</a>
</g>
</g>
<!-- Node1&#45;&gt;Node4 -->
<g id="edge3" class="edge"><title>Node1&#45;&gt;Node4</title>
<path fill="none" stroke="midnightblue" d="M122.568,-46.3871C139.844,-41.1778 158.493,-35.5543 175.084,-30.5516"/>
<polygon fill="midnightblue" stroke="midnightblue" points="121.145,-43.1605 112.581,-49.3986 123.166,-49.8625 121.145,-43.1605"/>
</g>
</g>
</svg>
