<?xml version="1.0" encoding="UTF-8" standalone="no"?>
<!DOCTYPE svg PUBLIC "-//W3C//DTD SVG 1.1//EN"
 "http://www.w3.org/Graphics/SVG/1.1/DTD/svg11.dtd">
<!-- Generated by graphviz version 2.38.0 (20140413.2041)
 -->
<!-- Title: WalletModel::getWatchImmatureBalance Pages: 1 -->
<svg width="705pt" height="150pt"
 viewBox="0.00 0.00 705.00 149.50" xmlns="http://www.w3.org/2000/svg" xmlns:xlink="http://www.w3.org/1999/xlink">
<g id="graph0" class="graph" transform="scale(1 1) rotate(0) translate(4 145.5)">
<title>WalletModel::getWatchImmatureBalance</title>
<polygon fill="white" stroke="none" points="-4,4 -4,-145.5 701,-145.5 701,4 -4,4"/>
<!-- Node1 -->
<g id="node1" class="node"><title>Node1</title>
<polygon fill="#bfbfbf" stroke="black" points="0,-78.5 0,-108.5 162,-108.5 162,-78.5 0,-78.5"/>
<text text-anchor="start" x="8" y="-96.5" font-family="Helvetica,sans-Serif" font-size="10.00">WalletModel::getWatchImmature</text>
<text text-anchor="middle" x="81" y="-85.5" font-family="Helvetica,sans-Serif" font-size="10.00">Balance</text>
</g>
<!-- Node2 -->
<g id="node2" class="node"><title>Node2</title>
<g id="a_node2"><a xlink:href="class_overview_page.html#a2ed52a3a87e9c74fee38fa873c9bc71f" target="_top" xlink:title="OverviewPage::setWalletModel">
<polygon fill="white" stroke="black" points="198,-122 198,-141 353,-141 353,-122 198,-122"/>
<text text-anchor="middle" x="275.5" y="-129" font-family="Helvetica,sans-Serif" font-size="10.00">OverviewPage::setWalletModel</text>
</a>
</g>
</g>
<!-- Node1&#45;&gt;Node2 -->
<g id="edge1" class="edge"><title>Node1&#45;&gt;Node2</title>
<path fill="none" stroke="midnightblue" d="M168.144,-110.505C188.132,-114.451 208.707,-118.512 226.37,-121.999"/>
<polygon fill="midnightblue" stroke="midnightblue" points="168.57,-107.022 158.081,-108.519 167.214,-113.889 168.57,-107.022"/>
</g>
<!-- Node5 -->
<g id="node5" class="node"><title>Node5</title>
<g id="a_node5"><a xlink:href="class_send_coins_dialog.html#a73a6c1b1850a334ee652ac167713a2aa" target="_top" xlink:title="SendCoinsDialog::setModel">
<polygon fill="white" stroke="black" points="205.5,-84 205.5,-103 345.5,-103 345.5,-84 205.5,-84"/>
<text text-anchor="middle" x="275.5" y="-91" font-family="Helvetica,sans-Serif" font-size="10.00">SendCoinsDialog::setModel</text>
</a>
</g>
</g>
<!-- Node1&#45;&gt;Node5 -->
<g id="edge4" class="edge"><title>Node1&#45;&gt;Node5</title>
<path fill="none" stroke="midnightblue" d="M172.389,-93.5C183.488,-93.5 194.69,-93.5 205.404,-93.5"/>
<polygon fill="midnightblue" stroke="midnightblue" points="172.243,-90.0001 162.243,-93.5 172.243,-97.0001 172.243,-90.0001"/>
</g>
<!-- Node6 -->
<g id="node6" class="node"><title>Node6</title>
<g id="a_node6"><a xlink:href="class_wallet_model.html#adcc4eb8cd71cb4de223621866bb7fb7d" target="_top" xlink:title="WalletModel::checkBalance\lChanged">
<polygon fill="white" stroke="black" points="206,-34.5 206,-64.5 345,-64.5 345,-34.5 206,-34.5"/>
<text text-anchor="start" x="214" y="-52.5" font-family="Helvetica,sans-Serif" font-size="10.00">WalletModel::checkBalance</text>
<text text-anchor="middle" x="275.5" y="-41.5" font-family="Helvetica,sans-Serif" font-size="10.00">Changed</text>
</a>
</g>
</g>
<!-- Node1&#45;&gt;Node6 -->
<g id="edge6" class="edge"><title>Node1&#45;&gt;Node6</title>
<path fill="none" stroke="midnightblue" d="M157.549,-76.2316C174.466,-72.3648 192.279,-68.2934 208.76,-64.5262"/>
<polygon fill="midnightblue" stroke="midnightblue" points="156.678,-72.8404 147.709,-78.4808 158.238,-79.6644 156.678,-72.8404"/>
</g>
<!-- Node3 -->
<g id="node3" class="node"><title>Node3</title>
<g id="a_node3"><a xlink:href="class_wallet_view.html#a0a37ff693a4f9c1e5ddc23f9cd3913be" target="_top" xlink:title="Set the wallet model. ">
<polygon fill="white" stroke="black" points="389,-113 389,-132 529,-132 529,-113 389,-113"/>
<text text-anchor="middle" x="459" y="-120" font-family="Helvetica,sans-Serif" font-size="10.00">WalletView::setWalletModel</text>
</a>
</g>
</g>
<!-- Node2&#45;&gt;Node3 -->
<g id="edge2" class="edge"><title>Node2&#45;&gt;Node3</title>
<path fill="none" stroke="midnightblue" d="M363.227,-127.199C371.795,-126.775 380.411,-126.347 388.769,-125.933"/>
<polygon fill="midnightblue" stroke="midnightblue" points="363.024,-123.705 353.209,-127.696 363.37,-130.697 363.024,-123.705"/>
</g>
<!-- Node4 -->
<g id="node4" class="node"><title>Node4</title>
<g id="a_node4"><a xlink:href="class_wallet_frame.html#aa199c3f27654199d84c365cf86167d86" target="_top" xlink:title="WalletFrame::addWallet">
<polygon fill="white" stroke="black" points="569.5,-113 569.5,-132 692.5,-132 692.5,-113 569.5,-113"/>
<text text-anchor="middle" x="631" y="-120" font-family="Helvetica,sans-Serif" font-size="10.00">WalletFrame::addWallet</text>
</a>
</g>
</g>
<!-- Node3&#45;&gt;Node4 -->
<g id="edge3" class="edge"><title>Node3&#45;&gt;Node4</title>
<path fill="none" stroke="midnightblue" d="M539.222,-122.5C549.357,-122.5 559.601,-122.5 569.376,-122.5"/>
<polygon fill="midnightblue" stroke="midnightblue" points="539.146,-119 529.146,-122.5 539.145,-126 539.146,-119"/>
</g>
<!-- Node5&#45;&gt;Node3 -->
<g id="edge5" class="edge"><title>Node5&#45;&gt;Node3</title>
<path fill="none" stroke="midnightblue" d="M346.16,-104.63C363.351,-107.377 381.611,-110.295 398.283,-112.958"/>
<polygon fill="midnightblue" stroke="midnightblue" points="346.608,-101.158 336.181,-103.036 345.504,-108.07 346.608,-101.158"/>
</g>
<!-- Node7 -->
<g id="node7" class="node"><title>Node7</title>
<g id="a_node7"><a xlink:href="class_wallet_model.html#a51469b2d95cfd4bc0a14ee456fca7b95" target="_top" xlink:title="WalletModel::pollBalance\lChanged">
<polygon fill="white" stroke="black" points="394.5,-44.5 394.5,-74.5 523.5,-74.5 523.5,-44.5 394.5,-44.5"/>
<text text-anchor="start" x="402.5" y="-62.5" font-family="Helvetica,sans-Serif" font-size="10.00">WalletModel::pollBalance</text>
<text text-anchor="middle" x="459" y="-51.5" font-family="Helvetica,sans-Serif" font-size="10.00">Changed</text>
</a>
</g>
</g>
<!-- Node6&#45;&gt;Node7 -->
<g id="edge7" class="edge"><title>Node6&#45;&gt;Node7</title>
<path fill="none" stroke="midnightblue" d="M355.457,-53.8503C368.464,-54.5669 381.8,-55.3016 394.371,-55.9943"/>
<polygon fill="midnightblue" stroke="midnightblue" points="355.295,-50.3361 345.117,-53.2806 354.91,-57.3255 355.295,-50.3361"/>
</g>
<!-- Node9 -->
<g id="node9" class="node"><title>Node9</title>
<g id="a_node9"><a xlink:href="class_wallet_model.html#a53443aca544c824550f21e5f87e4ec39" target="_top" xlink:title="WalletModel::sendCoins">
<polygon fill="white" stroke="black" points="397,-6 397,-25 521,-25 521,-6 397,-6"/>
<text text-anchor="middle" x="459" y="-13" font-family="Helvetica,sans-Serif" font-size="10.00">WalletModel::sendCoins</text>
</a>
</g>
</g>
<!-- Node6&#45;&gt;Node9 -->
<g id="edge9" class="edge"><title>Node6&#45;&gt;Node9</title>
<path fill="none" stroke="midnightblue" d="M355.356,-34.728C372.9,-31.4417 391.046,-28.0424 407.112,-25.0327"/>
<polygon fill="midnightblue" stroke="midnightblue" points="354.302,-31.3646 345.117,-36.6461 355.591,-38.2449 354.302,-31.3646"/>
</g>
<!-- Node8 -->
<g id="node8" class="node"><title>Node8</title>
<g id="a_node8"><a xlink:href="class_wallet_model.html#af50d9654d2f20e4e4f0789dcb64ad6b1" target="_top" xlink:title="WalletModel::WalletModel">
<polygon fill="white" stroke="black" points="565,-50 565,-69 697,-69 697,-50 565,-50"/>
<text text-anchor="middle" x="631" y="-57" font-family="Helvetica,sans-Serif" font-size="10.00">WalletModel::WalletModel</text>
</a>
</g>
</g>
<!-- Node7&#45;&gt;Node8 -->
<g id="edge8" class="edge"><title>Node7&#45;&gt;Node8</title>
<path fill="none" stroke="midnightblue" d="M533.937,-59.5C544.184,-59.5 554.65,-59.5 564.724,-59.5"/>
<polygon fill="midnightblue" stroke="midnightblue" points="533.785,-56.0001 523.785,-59.5 533.785,-63.0001 533.785,-56.0001"/>
</g>
<!-- Node10 -->
<g id="node10" class="node"><title>Node10</title>
<g id="a_node10"><a xlink:href="class_send_coins_dialog.html#a2cab7cf9ea5040b9e2189297f7d3c764" target="_top" xlink:title="SendCoinsDialog::on\l_sendButton_clicked">
<polygon fill="white" stroke="black" points="576,-0.5 576,-30.5 686,-30.5 686,-0.5 576,-0.5"/>
<text text-anchor="start" x="584" y="-18.5" font-family="Helvetica,sans-Serif" font-size="10.00">SendCoinsDialog::on</text>
<text text-anchor="middle" x="631" y="-7.5" font-family="Helvetica,sans-Serif" font-size="10.00">_sendButton_clicked</text>
</a>
</g>
</g>
<!-- Node9&#45;&gt;Node10 -->
<g id="edge10" class="edge"><title>Node9&#45;&gt;Node10</title>
<path fill="none" stroke="midnightblue" d="M531.513,-15.5C546.321,-15.5 561.689,-15.5 575.758,-15.5"/>
<polygon fill="midnightblue" stroke="midnightblue" points="531.374,-12.0001 521.374,-15.5 531.374,-19.0001 531.374,-12.0001"/>
</g>
</g>
</svg>
