<?xml version="1.0" encoding="UTF-8" standalone="no"?>
<!DOCTYPE svg PUBLIC "-//W3C//DTD SVG 1.1//EN"
 "http://www.w3.org/Graphics/SVG/1.1/DTD/svg11.dtd">
<!-- Generated by graphviz version 2.38.0 (20140413.2041)
 -->
<!-- Title: AnoncoinAmountField::unitChanged Pages: 1 -->
<svg width="462pt" height="88pt"
 viewBox="0.00 0.00 462.00 88.00" xmlns="http://www.w3.org/2000/svg" xmlns:xlink="http://www.w3.org/1999/xlink">
<g id="graph0" class="graph" transform="scale(1 1) rotate(0) translate(4 84)">
<title>AnoncoinAmountField::unitChanged</title>
<polygon fill="white" stroke="none" points="-4,4 -4,-84 458,-84 458,4 -4,4"/>
<!-- Node1 -->
<g id="node1" class="node"><title>Node1</title>
<polygon fill="#bfbfbf" stroke="black" points="0,-24.5 0,-54.5 114,-54.5 114,-24.5 0,-24.5"/>
<text text-anchor="start" x="8" y="-42.5" font-family="Helvetica,sans-Serif" font-size="10.00">AnoncoinAmountField</text>
<text text-anchor="middle" x="57" y="-31.5" font-family="Helvetica,sans-Serif" font-size="10.00">::unitChanged</text>
</g>
<!-- Node2 -->
<g id="node2" class="node"><title>Node2</title>
<g id="a_node2"><a xlink:href="class_anoncoin_amount_field.html#a4b2c8c4c44291ec9e60bc0a85b645e5f" target="_top" xlink:title="AnoncoinAmountField\l::AnoncoinAmountField">
<polygon fill="white" stroke="black" points="150,-49.5 150,-79.5 270,-79.5 270,-49.5 150,-49.5"/>
<text text-anchor="start" x="158" y="-67.5" font-family="Helvetica,sans-Serif" font-size="10.00">AnoncoinAmountField</text>
<text text-anchor="middle" x="210" y="-56.5" font-family="Helvetica,sans-Serif" font-size="10.00">::AnoncoinAmountField</text>
</a>
</g>
</g>
<!-- Node1&#45;&gt;Node2 -->
<g id="edge1" class="edge"><title>Node1&#45;&gt;Node2</title>
<path fill="none" stroke="midnightblue" d="M124.19,-50.4586C132.763,-51.878 141.5,-53.3244 149.947,-54.723"/>
<polygon fill="midnightblue" stroke="midnightblue" points="124.664,-46.9896 114.227,-48.8091 123.521,-53.8955 124.664,-46.9896"/>
</g>
<!-- Node3 -->
<g id="node3" class="node"><title>Node3</title>
<g id="a_node3"><a xlink:href="class_anoncoin_amount_field.html#a168a4f11d296a1a9b17dc164f5f5f11e" target="_top" xlink:title="Set single step in satoshis. ">
<polygon fill="white" stroke="black" points="153,-0.5 153,-30.5 267,-30.5 267,-0.5 153,-0.5"/>
<text text-anchor="start" x="161" y="-18.5" font-family="Helvetica,sans-Serif" font-size="10.00">AnoncoinAmountField</text>
<text text-anchor="middle" x="210" y="-7.5" font-family="Helvetica,sans-Serif" font-size="10.00">::setSingleStep</text>
</a>
</g>
</g>
<!-- Node1&#45;&gt;Node3 -->
<g id="edge2" class="edge"><title>Node1&#45;&gt;Node3</title>
<path fill="none" stroke="midnightblue" d="M124.147,-28.9865C133.764,-27.458 143.587,-25.8968 152.978,-24.4042"/>
<polygon fill="midnightblue" stroke="midnightblue" points="123.553,-25.5369 114.227,-30.5633 124.652,-32.4501 123.553,-25.5369"/>
</g>
<!-- Node4 -->
<g id="node4" class="node"><title>Node4</title>
<g id="a_node4"><a xlink:href="class_options_dialog.html#a8131b615e29560144ffb368b9b07060a" target="_top" xlink:title="OptionsDialog::OptionsDialog">
<polygon fill="white" stroke="black" points="306,-6 306,-25 454,-25 454,-6 306,-6"/>
<text text-anchor="middle" x="380" y="-13" font-family="Helvetica,sans-Serif" font-size="10.00">OptionsDialog::OptionsDialog</text>
</a>
</g>
</g>
<!-- Node3&#45;&gt;Node4 -->
<g id="edge3" class="edge"><title>Node3&#45;&gt;Node4</title>
<path fill="none" stroke="midnightblue" d="M277.67,-15.5C286.89,-15.5 296.402,-15.5 305.734,-15.5"/>
<polygon fill="midnightblue" stroke="midnightblue" points="277.409,-12.0001 267.409,-15.5 277.409,-19.0001 277.409,-12.0001"/>
</g>
</g>
</svg>
