<?xml version="1.0" encoding="UTF-8" standalone="no"?>
<!DOCTYPE svg PUBLIC "-//W3C//DTD SVG 1.1//EN"
 "http://www.w3.org/Graphics/SVG/1.1/DTD/svg11.dtd">
<!-- Generated by graphviz version 2.38.0 (20140413.2041)
 -->
<!-- Title: AddressTableModel::emitDataChanged Pages: 1 -->
<svg width="637pt" height="39pt"
 viewBox="0.00 0.00 637.00 39.00" xmlns="http://www.w3.org/2000/svg" xmlns:xlink="http://www.w3.org/1999/xlink">
<g id="graph0" class="graph" transform="scale(1 1) rotate(0) translate(4 35)">
<title>AddressTableModel::emitDataChanged</title>
<polygon fill="white" stroke="none" points="-4,4 -4,-35 633,-35 633,4 -4,4"/>
<!-- Node1 -->
<g id="node1" class="node"><title>Node1</title>
<polygon fill="#bfbfbf" stroke="black" points="0,-0.5 0,-30.5 111,-30.5 111,-0.5 0,-0.5"/>
<text text-anchor="start" x="8" y="-18.5" font-family="Helvetica,sans-Serif" font-size="10.00">AddressTableModel::</text>
<text text-anchor="middle" x="55.5" y="-7.5" font-family="Helvetica,sans-Serif" font-size="10.00">emitDataChanged</text>
</g>
<!-- Node2 -->
<g id="node2" class="node"><title>Node2</title>
<g id="a_node2"><a xlink:href="class_address_table_priv.html#a6f4b10febc3055afde7200c0dbc8ccef" target="_top" xlink:title="AddressTablePriv::update\lEntry">
<polygon fill="white" stroke="black" points="147,-0.5 147,-30.5 279,-30.5 279,-0.5 147,-0.5"/>
<text text-anchor="start" x="155" y="-18.5" font-family="Helvetica,sans-Serif" font-size="10.00">AddressTablePriv::update</text>
<text text-anchor="middle" x="213" y="-7.5" font-family="Helvetica,sans-Serif" font-size="10.00">Entry</text>
</a>
</g>
</g>
<!-- Node1&#45;&gt;Node2 -->
<g id="edge1" class="edge"><title>Node1&#45;&gt;Node2</title>
<path fill="none" stroke="midnightblue" d="M121.412,-15.5C129.789,-15.5 138.37,-15.5 146.752,-15.5"/>
<polygon fill="midnightblue" stroke="midnightblue" points="121.324,-12.0001 111.323,-15.5 121.323,-19.0001 121.324,-12.0001"/>
</g>
<!-- Node3 -->
<g id="node3" class="node"><title>Node3</title>
<g id="a_node3"><a xlink:href="class_address_table_model.html#aa2f39463431a15741ed4d78ef592dfe5" target="_top" xlink:title="AddressTableModel::\lupdateEntry">
<polygon fill="white" stroke="black" points="315,-0.5 315,-30.5 426,-30.5 426,-0.5 315,-0.5"/>
<text text-anchor="start" x="323" y="-18.5" font-family="Helvetica,sans-Serif" font-size="10.00">AddressTableModel::</text>
<text text-anchor="middle" x="370.5" y="-7.5" font-family="Helvetica,sans-Serif" font-size="10.00">updateEntry</text>
</a>
</g>
</g>
<!-- Node2&#45;&gt;Node3 -->
<g id="edge2" class="edge"><title>Node2&#45;&gt;Node3</title>
<path fill="none" stroke="midnightblue" d="M289.087,-15.5C297.679,-15.5 306.315,-15.5 314.574,-15.5"/>
<polygon fill="midnightblue" stroke="midnightblue" points="289.045,-12.0001 279.045,-15.5 289.045,-19.0001 289.045,-12.0001"/>
</g>
<!-- Node4 -->
<g id="node4" class="node"><title>Node4</title>
<g id="a_node4"><a xlink:href="class_wallet_model.html#ad70ea697efb4d5bdc4a834b538b4d535" target="_top" xlink:title="WalletModel::updateAddressBook">
<polygon fill="white" stroke="black" points="462,-6 462,-25 629,-25 629,-6 462,-6"/>
<text text-anchor="middle" x="545.5" y="-13" font-family="Helvetica,sans-Serif" font-size="10.00">WalletModel::updateAddressBook</text>
</a>
</g>
</g>
<!-- Node3&#45;&gt;Node4 -->
<g id="edge3" class="edge"><title>Node3&#45;&gt;Node4</title>
<path fill="none" stroke="midnightblue" d="M436.301,-15.5C444.688,-15.5 453.365,-15.5 461.99,-15.5"/>
<polygon fill="midnightblue" stroke="midnightblue" points="436.238,-12.0001 426.238,-15.5 436.238,-19.0001 436.238,-12.0001"/>
</g>
</g>
</svg>
