<?xml version="1.0" encoding="UTF-8" standalone="no"?>
<!DOCTYPE svg PUBLIC "-//W3C//DTD SVG 1.1//EN"
 "http://www.w3.org/Graphics/SVG/1.1/DTD/svg11.dtd">
<!-- Generated by graphviz version 2.38.0 (20140413.2041)
 -->
<!-- Title: tinyformat::detail::FormatIterator::parseIntAndAdvance Pages: 1 -->
<svg width="472pt" height="50pt"
 viewBox="0.00 0.00 472.00 50.00" xmlns="http://www.w3.org/2000/svg" xmlns:xlink="http://www.w3.org/1999/xlink">
<g id="graph0" class="graph" transform="scale(1 1) rotate(0) translate(4 46)">
<title>tinyformat::detail::FormatIterator::parseIntAndAdvance</title>
<polygon fill="white" stroke="none" points="-4,4 -4,-46 468,-46 468,4 -4,4"/>
<!-- Node1 -->
<g id="node1" class="node"><title>Node1</title>
<polygon fill="#bfbfbf" stroke="black" points="0,-0.5 0,-41.5 127,-41.5 127,-0.5 0,-0.5"/>
<text text-anchor="start" x="8" y="-29.5" font-family="Helvetica,sans-Serif" font-size="10.00">tinyformat::detail</text>
<text text-anchor="start" x="8" y="-18.5" font-family="Helvetica,sans-Serif" font-size="10.00">::FormatIterator::parseInt</text>
<text text-anchor="middle" x="63.5" y="-7.5" font-family="Helvetica,sans-Serif" font-size="10.00">AndAdvance</text>
</g>
<!-- Node2 -->
<g id="node2" class="node"><title>Node2</title>
<g id="a_node2"><a xlink:href="classtinyformat_1_1detail_1_1_format_iterator.html#a42ed39c6771b424bc084b32c5836e83e" target="_top" xlink:title="tinyformat::detail\l::FormatIterator::streamState\lFromFormat">
<polygon fill="white" stroke="black" points="163,-0.5 163,-41.5 308,-41.5 308,-0.5 163,-0.5"/>
<text text-anchor="start" x="171" y="-29.5" font-family="Helvetica,sans-Serif" font-size="10.00">tinyformat::detail</text>
<text text-anchor="start" x="171" y="-18.5" font-family="Helvetica,sans-Serif" font-size="10.00">::FormatIterator::streamState</text>
<text text-anchor="middle" x="235.5" y="-7.5" font-family="Helvetica,sans-Serif" font-size="10.00">FromFormat</text>
</a>
</g>
</g>
<!-- Node1&#45;&gt;Node2 -->
<g id="edge1" class="edge"><title>Node1&#45;&gt;Node2</title>
<path fill="none" stroke="midnightblue" d="M137.45,-21C145.839,-21 154.388,-21 162.761,-21"/>
<polygon fill="midnightblue" stroke="midnightblue" points="137.319,-17.5001 127.319,-21 137.319,-24.5001 137.319,-17.5001"/>
</g>
<!-- Node3 -->
<g id="node3" class="node"><title>Node3</title>
<g id="a_node3"><a xlink:href="classtinyformat_1_1detail_1_1_format_iterator.html#a914be2066071c01cac4c2ea867c9d89a" target="_top" xlink:title="tinyformat::detail\l::FormatIterator::accept">
<polygon fill="white" stroke="black" points="344,-6 344,-36 464,-36 464,-6 344,-6"/>
<text text-anchor="start" x="352" y="-24" font-family="Helvetica,sans-Serif" font-size="10.00">tinyformat::detail</text>
<text text-anchor="middle" x="404" y="-13" font-family="Helvetica,sans-Serif" font-size="10.00">::FormatIterator::accept</text>
</a>
</g>
</g>
<!-- Node2&#45;&gt;Node3 -->
<g id="edge2" class="edge"><title>Node2&#45;&gt;Node3</title>
<path fill="none" stroke="midnightblue" d="M318.172,-21C326.798,-21 335.448,-21 343.749,-21"/>
<polygon fill="midnightblue" stroke="midnightblue" points="318.077,-17.5001 308.077,-21 318.077,-24.5001 318.077,-17.5001"/>
</g>
</g>
</svg>
