<?xml version="1.0" encoding="UTF-8" standalone="no"?>
<!DOCTYPE svg PUBLIC "-//W3C//DTD SVG 1.1//EN"
 "http://www.w3.org/Graphics/SVG/1.1/DTD/svg11.dtd">
<!-- Generated by graphviz version 2.38.0 (20140413.2041)
 -->
<!-- Title: WalletModel::setWalletLocked Pages: 1 -->
<svg width="1072pt" height="256pt"
 viewBox="0.00 0.00 1072.00 256.00" xmlns="http://www.w3.org/2000/svg" xmlns:xlink="http://www.w3.org/1999/xlink">
<g id="graph0" class="graph" transform="scale(1 1) rotate(0) translate(4 252)">
<title>WalletModel::setWalletLocked</title>
<polygon fill="white" stroke="none" points="-4,4 -4,-252 1068,-252 1068,4 -4,4"/>
<!-- Node1 -->
<g id="node1" class="node"><title>Node1</title>
<polygon fill="#bfbfbf" stroke="black" points="0,-57.5 0,-76.5 150,-76.5 150,-57.5 0,-57.5"/>
<text text-anchor="middle" x="75" y="-64.5" font-family="Helvetica,sans-Serif" font-size="10.00">WalletModel::setWalletLocked</text>
</g>
<!-- Node2 -->
<g id="node2" class="node"><title>Node2</title>
<g id="a_node2"><a xlink:href="class_c_crypto_key_store.html#ab73ebcbfa6e0aaf271d0fff9369a6685" target="_top" xlink:title="CCryptoKeyStore::Lock">
<polygon fill="white" stroke="black" points="186,-76.5 186,-95.5 307,-95.5 307,-76.5 186,-76.5"/>
<text text-anchor="middle" x="246.5" y="-83.5" font-family="Helvetica,sans-Serif" font-size="10.00">CCryptoKeyStore::Lock</text>
</a>
</g>
</g>
<!-- Node1&#45;&gt;Node2 -->
<g id="edge1" class="edge"><title>Node1&#45;&gt;Node2</title>
<path fill="none" stroke="midnightblue" d="M150.345,-75.3337C158.819,-76.2836 167.434,-77.2492 175.844,-78.1919"/>
<polygon fill="midnightblue" stroke="midnightblue" points="175.649,-81.692 185.977,-79.3278 176.429,-74.7355 175.649,-81.692"/>
</g>
<!-- Node4 -->
<g id="node4" class="node"><title>Node4</title>
<g id="a_node4"><a xlink:href="class_c_wallet.html#a002c61a2b74f2c46063340c568e6cc1b" target="_top" xlink:title="CWallet::Unlock">
<polygon fill="white" stroke="black" points="202.5,-38.5 202.5,-57.5 290.5,-57.5 290.5,-38.5 202.5,-38.5"/>
<text text-anchor="middle" x="246.5" y="-45.5" font-family="Helvetica,sans-Serif" font-size="10.00">CWallet::Unlock</text>
</a>
</g>
</g>
<!-- Node1&#45;&gt;Node4 -->
<g id="edge3" class="edge"><title>Node1&#45;&gt;Node4</title>
<path fill="none" stroke="midnightblue" d="M150.345,-58.6663C164.522,-57.0772 179.092,-55.4439 192.438,-53.9479"/>
<polygon fill="midnightblue" stroke="midnightblue" points="192.831,-57.4259 202.379,-52.8337 192.051,-50.4695 192.831,-57.4259"/>
</g>
<!-- Node3 -->
<g id="node3" class="node"><title>Node3</title>
<g id="a_node3"><a xlink:href="class_c_crypto_key_store.html#af202f587051735be5a39344d9e333720" target="_top" xlink:title="CCryptoKeyStore::SetCrypted">
<polygon fill="white" stroke="black" points="549,-38.5 549,-57.5 699,-57.5 699,-38.5 549,-38.5"/>
<text text-anchor="middle" x="624" y="-45.5" font-family="Helvetica,sans-Serif" font-size="10.00">CCryptoKeyStore::SetCrypted</text>
</a>
</g>
</g>
<!-- Node2&#45;&gt;Node3 -->
<g id="edge2" class="edge"><title>Node2&#45;&gt;Node3</title>
<path fill="none" stroke="midnightblue" d="M307.241,-83.4273C361.158,-80.7011 442.586,-75.5791 513,-67 529.648,-64.9716 547.611,-62.1434 564.097,-59.2879"/>
<polygon fill="midnightblue" stroke="midnightblue" points="564.907,-62.6991 574.146,-57.5133 563.689,-55.8058 564.907,-62.6991"/>
</g>
<!-- Node5 -->
<g id="node5" class="node"><title>Node5</title>
<g id="a_node5"><a xlink:href="class_c_crypter.html#a5368279e4a1549d3c1d15d8aa2179708" target="_top" xlink:title="CCrypter::SetKeyFromPassphrase">
<polygon fill="white" stroke="black" points="343,-38.5 343,-57.5 513,-57.5 513,-38.5 343,-38.5"/>
<text text-anchor="middle" x="428" y="-45.5" font-family="Helvetica,sans-Serif" font-size="10.00">CCrypter::SetKeyFromPassphrase</text>
</a>
</g>
</g>
<!-- Node4&#45;&gt;Node5 -->
<g id="edge4" class="edge"><title>Node4&#45;&gt;Node5</title>
<path fill="none" stroke="midnightblue" d="M290.952,-48C303.682,-48 318.122,-48 332.723,-48"/>
<polygon fill="midnightblue" stroke="midnightblue" points="332.838,-51.5001 342.838,-48 332.838,-44.5001 332.838,-51.5001"/>
</g>
<!-- Node6 -->
<g id="node6" class="node"><title>Node6</title>
<g id="a_node6"><a xlink:href="class_c_crypter.html#a4dbabed4975d4435d22c76deac43df7f" target="_top" xlink:title="CCrypter::Decrypt">
<polygon fill="white" stroke="black" points="735,-0.5 735,-19.5 832,-19.5 832,-0.5 735,-0.5"/>
<text text-anchor="middle" x="783.5" y="-7.5" font-family="Helvetica,sans-Serif" font-size="10.00">CCrypter::Decrypt</text>
</a>
</g>
</g>
<!-- Node4&#45;&gt;Node6 -->
<g id="edge5" class="edge"><title>Node4&#45;&gt;Node6</title>
<path fill="none" stroke="midnightblue" d="M288.175,-38.4793C305.044,-34.9044 324.874,-31.1819 343,-29 479.117,-12.6152 640.445,-9.86663 724.697,-9.68685"/>
<polygon fill="midnightblue" stroke="midnightblue" points="724.833,-13.1868 734.829,-9.67696 724.826,-6.18682 724.833,-13.1868"/>
</g>
<!-- Node7 -->
<g id="node7" class="node"><title>Node7</title>
<g id="a_node7"><a xlink:href="class_c_crypto_key_store.html#a81bd70e18aa75f566526620a74f9cd88" target="_top" xlink:title="CCryptoKeyStore::Unlock">
<polygon fill="white" stroke="black" points="363,-114.5 363,-133.5 493,-133.5 493,-114.5 363,-114.5"/>
<text text-anchor="middle" x="428" y="-121.5" font-family="Helvetica,sans-Serif" font-size="10.00">CCryptoKeyStore::Unlock</text>
</a>
</g>
</g>
<!-- Node4&#45;&gt;Node7 -->
<g id="edge6" class="edge"><title>Node4&#45;&gt;Node7</title>
<path fill="none" stroke="midnightblue" d="M280.203,-57.5735C288.988,-60.3807 298.428,-63.6131 307,-67 339.427,-79.8119 375.402,-97.3689 399.427,-109.599"/>
<polygon fill="midnightblue" stroke="midnightblue" points="398.141,-112.873 408.636,-114.325 401.337,-106.645 398.141,-112.873"/>
</g>
<!-- Node7&#45;&gt;Node3 -->
<g id="edge7" class="edge"><title>Node7&#45;&gt;Node3</title>
<path fill="none" stroke="midnightblue" d="M476.747,-114.481C489.016,-110.943 501.882,-106.221 513,-100 531.942,-89.4017 529.917,-77.3419 549,-67 553.224,-64.711 557.733,-62.6894 562.364,-60.9053"/>
<polygon fill="midnightblue" stroke="midnightblue" points="563.684,-64.1519 571.985,-57.5673 561.39,-57.5387 563.684,-64.1519"/>
</g>
<!-- Node8 -->
<g id="node8" class="node"><title>Node8</title>
<g id="a_node8"><a xlink:href="crypter_8cpp.html#aded00aa7498a7485a00e77a20856b3e4" target="_top" xlink:title="DecryptSecret">
<polygon fill="white" stroke="black" points="584,-76.5 584,-95.5 664,-95.5 664,-76.5 584,-76.5"/>
<text text-anchor="middle" x="624" y="-83.5" font-family="Helvetica,sans-Serif" font-size="10.00">DecryptSecret</text>
</a>
</g>
</g>
<!-- Node7&#45;&gt;Node8 -->
<g id="edge8" class="edge"><title>Node7&#45;&gt;Node8</title>
<path fill="none" stroke="midnightblue" d="M477.954,-114.411C507.274,-108.668 544.428,-101.39 573.793,-95.6385"/>
<polygon fill="midnightblue" stroke="midnightblue" points="574.688,-99.0298 583.829,-93.6727 573.342,-92.1603 574.688,-99.0298"/>
</g>
<!-- Node12 -->
<g id="node12" class="node"><title>Node12</title>
<g id="a_node12"><a xlink:href="class_c_pub_key.html#a85b5eaf92b26cb4a230586050285c3f4" target="_top" xlink:title="CPubKey::GetHash">
<polygon fill="white" stroke="black" points="572,-228.5 572,-247.5 676,-247.5 676,-228.5 572,-228.5"/>
<text text-anchor="middle" x="624" y="-235.5" font-family="Helvetica,sans-Serif" font-size="10.00">CPubKey::GetHash</text>
</a>
</g>
</g>
<!-- Node7&#45;&gt;Node12 -->
<g id="edge14" class="edge"><title>Node7&#45;&gt;Node12</title>
<path fill="none" stroke="midnightblue" d="M438.287,-133.689C457.253,-152.906 502.583,-195.975 549,-219 553.827,-221.395 558.986,-223.508 564.249,-225.368"/>
<polygon fill="midnightblue" stroke="midnightblue" points="563.196,-228.706 573.787,-228.451 565.348,-222.045 563.196,-228.706"/>
</g>
<!-- Node16 -->
<g id="node16" class="node"><title>Node16</title>
<g id="a_node16"><a xlink:href="class_c_key.html#aaa13d5f08456bba094210c5eeabf64c8" target="_top" xlink:title="CKey::Set">
<polygon fill="white" stroke="black" points="593,-152.5 593,-171.5 655,-171.5 655,-152.5 593,-152.5"/>
<text text-anchor="middle" x="624" y="-159.5" font-family="Helvetica,sans-Serif" font-size="10.00">CKey::Set</text>
</a>
</g>
</g>
<!-- Node7&#45;&gt;Node16 -->
<g id="edge18" class="edge"><title>Node7&#45;&gt;Node16</title>
<path fill="none" stroke="midnightblue" d="M477.954,-133.589C510.427,-139.95 552.511,-148.193 582.978,-154.161"/>
<polygon fill="midnightblue" stroke="midnightblue" points="582.348,-157.604 592.834,-156.091 583.693,-150.734 582.348,-157.604"/>
</g>
<!-- Node18 -->
<g id="node18" class="node"><title>Node18</title>
<g id="a_node18"><a xlink:href="class_c_pub_key.html#a397e437d9d0a008e2641892147b0931a" target="_top" xlink:title="CPubKey::IsCompressed">
<polygon fill="white" stroke="black" points="559.5,-190.5 559.5,-209.5 688.5,-209.5 688.5,-190.5 559.5,-190.5"/>
<text text-anchor="middle" x="624" y="-197.5" font-family="Helvetica,sans-Serif" font-size="10.00">CPubKey::IsCompressed</text>
</a>
</g>
</g>
<!-- Node7&#45;&gt;Node18 -->
<g id="edge21" class="edge"><title>Node7&#45;&gt;Node18</title>
<path fill="none" stroke="midnightblue" d="M446.434,-133.593C469.389,-145.915 511.266,-167.337 549,-181 555.774,-183.453 563.004,-185.72 570.192,-187.77"/>
<polygon fill="midnightblue" stroke="midnightblue" points="569.353,-191.168 579.922,-190.427 571.197,-184.416 569.353,-191.168"/>
</g>
<!-- Node19 -->
<g id="node19" class="node"><title>Node19</title>
<g id="a_node19"><a xlink:href="class_c_key.html#ae4b61da6ec62f676fe6362ac5fc26aca" target="_top" xlink:title="CKey::GetPubKey">
<polygon fill="white" stroke="black" points="575,-114.5 575,-133.5 673,-133.5 673,-114.5 575,-114.5"/>
<text text-anchor="middle" x="624" y="-121.5" font-family="Helvetica,sans-Serif" font-size="10.00">CKey::GetPubKey</text>
</a>
</g>
</g>
<!-- Node7&#45;&gt;Node19 -->
<g id="edge23" class="edge"><title>Node7&#45;&gt;Node19</title>
<path fill="none" stroke="midnightblue" d="M493.061,-124C516.222,-124 542.227,-124 564.853,-124"/>
<polygon fill="midnightblue" stroke="midnightblue" points="564.989,-127.5 574.988,-124 564.988,-120.5 564.989,-127.5"/>
</g>
<!-- Node8&#45;&gt;Node6 -->
<g id="edge13" class="edge"><title>Node8&#45;&gt;Node6</title>
<path fill="none" stroke="midnightblue" d="M664.371,-79.663C675.97,-76.8143 688.388,-72.7511 699,-67 718.083,-56.6581 717.146,-46.3432 735,-34 740.063,-30.4994 745.709,-27.1953 751.29,-24.2225"/>
<polygon fill="midnightblue" stroke="midnightblue" points="753.167,-27.1953 760.508,-19.5562 750.005,-20.9499 753.167,-27.1953"/>
</g>
<!-- Node9 -->
<g id="node9" class="node"><title>Node9</title>
<g id="a_node9"><a xlink:href="glibc__compat_8cpp.html#a0f46826ab0466591e136db24394923cf" target="_top" xlink:title="memcpy">
<polygon fill="white" stroke="black" points="889.5,-76.5 889.5,-95.5 943.5,-95.5 943.5,-76.5 889.5,-76.5"/>
<text text-anchor="middle" x="916.5" y="-83.5" font-family="Helvetica,sans-Serif" font-size="10.00">memcpy</text>
</a>
</g>
</g>
<!-- Node8&#45;&gt;Node9 -->
<g id="edge9" class="edge"><title>Node8&#45;&gt;Node9</title>
<path fill="none" stroke="midnightblue" d="M664.245,-77.5424C685.142,-73.4655 711.346,-69.0278 735,-67 777.954,-63.3176 789.158,-62.1873 832,-67 847.845,-68.78 865.069,-72.4034 879.736,-76.0131"/>
<polygon fill="midnightblue" stroke="midnightblue" points="878.878,-79.4062 889.433,-78.4872 880.609,-72.6235 878.878,-79.4062"/>
</g>
<!-- Node11 -->
<g id="node11" class="node"><title>Node11</title>
<g id="a_node11"><a xlink:href="class_c_crypter.html#a0d948dd4796e2420e1dd9c1ddbf7974e" target="_top" xlink:title="CCrypter::SetKey">
<polygon fill="white" stroke="black" points="736.5,-76.5 736.5,-95.5 830.5,-95.5 830.5,-76.5 736.5,-76.5"/>
<text text-anchor="middle" x="783.5" y="-83.5" font-family="Helvetica,sans-Serif" font-size="10.00">CCrypter::SetKey</text>
</a>
</g>
</g>
<!-- Node8&#45;&gt;Node11 -->
<g id="edge11" class="edge"><title>Node8&#45;&gt;Node11</title>
<path fill="none" stroke="midnightblue" d="M664.338,-86C683.044,-86 705.749,-86 726.237,-86"/>
<polygon fill="midnightblue" stroke="midnightblue" points="726.402,-89.5001 736.402,-86 726.402,-82.5001 726.402,-89.5001"/>
</g>
<!-- Node10 -->
<g id="node10" class="node"><title>Node10</title>
<g id="a_node10"><a xlink:href="glibc__compat_8cpp.html#a9778d49e9029dd75bc53ecbbf9f5e9a1" target="_top" xlink:title="memmove">
<polygon fill="white" stroke="black" points="1001,-76.5 1001,-95.5 1064,-95.5 1064,-76.5 1001,-76.5"/>
<text text-anchor="middle" x="1032.5" y="-83.5" font-family="Helvetica,sans-Serif" font-size="10.00">memmove</text>
</a>
</g>
</g>
<!-- Node9&#45;&gt;Node10 -->
<g id="edge10" class="edge"><title>Node9&#45;&gt;Node10</title>
<path fill="none" stroke="midnightblue" d="M943.654,-86C957.434,-86 974.655,-86 990.191,-86"/>
<polygon fill="midnightblue" stroke="midnightblue" points="990.614,-89.5001 1000.61,-86 990.614,-82.5001 990.614,-89.5001"/>
</g>
<!-- Node11&#45;&gt;Node9 -->
<g id="edge12" class="edge"><title>Node11&#45;&gt;Node9</title>
<path fill="none" stroke="midnightblue" d="M830.686,-86C846.453,-86 863.86,-86 878.781,-86"/>
<polygon fill="midnightblue" stroke="midnightblue" points="879.147,-89.5001 889.147,-86 879.147,-82.5001 879.147,-89.5001"/>
</g>
<!-- Node13 -->
<g id="node13" class="node"><title>Node13</title>
<g id="a_node13"><a xlink:href="hash_8h.html#ab3f6c437460137530d86e09c2c102e99" target="_top" xlink:title="Hash">
<polygon fill="white" stroke="black" points="763.5,-228.5 763.5,-247.5 803.5,-247.5 803.5,-228.5 763.5,-228.5"/>
<text text-anchor="middle" x="783.5" y="-235.5" font-family="Helvetica,sans-Serif" font-size="10.00">Hash</text>
</a>
</g>
</g>
<!-- Node12&#45;&gt;Node13 -->
<g id="edge15" class="edge"><title>Node12&#45;&gt;Node13</title>
<path fill="none" stroke="midnightblue" d="M676.136,-238C701.647,-238 731.584,-238 753.188,-238"/>
<polygon fill="midnightblue" stroke="midnightblue" points="753.362,-241.5 763.362,-238 753.362,-234.5 753.362,-241.5"/>
</g>
<!-- Node14 -->
<g id="node14" class="node"><title>Node14</title>
<g id="a_node14"><a xlink:href="class_c_pub_key.html#a9d7129b65b6dee792b4f3923cd64ed59" target="_top" xlink:title="CPubKey::size">
<polygon fill="white" stroke="black" points="742.5,-190.5 742.5,-209.5 824.5,-209.5 824.5,-190.5 742.5,-190.5"/>
<text text-anchor="middle" x="783.5" y="-197.5" font-family="Helvetica,sans-Serif" font-size="10.00">CPubKey::size</text>
</a>
</g>
</g>
<!-- Node12&#45;&gt;Node14 -->
<g id="edge16" class="edge"><title>Node12&#45;&gt;Node14</title>
<path fill="none" stroke="midnightblue" d="M664.744,-228.411C685.528,-223.396 711.161,-217.212 733.199,-211.895"/>
<polygon fill="midnightblue" stroke="midnightblue" points="734.142,-215.268 743.042,-209.52 732.5,-208.463 734.142,-215.268"/>
</g>
<!-- Node15 -->
<g id="node15" class="node"><title>Node15</title>
<g id="a_node15"><a xlink:href="class_c_pub_key.html#a7dc71b3f037c84268dc22de97d7b65fb" target="_top" xlink:title="CPubKey::GetLen">
<polygon fill="white" stroke="black" points="868,-190.5 868,-209.5 965,-209.5 965,-190.5 868,-190.5"/>
<text text-anchor="middle" x="916.5" y="-197.5" font-family="Helvetica,sans-Serif" font-size="10.00">CPubKey::GetLen</text>
</a>
</g>
</g>
<!-- Node14&#45;&gt;Node15 -->
<g id="edge17" class="edge"><title>Node14&#45;&gt;Node15</title>
<path fill="none" stroke="midnightblue" d="M824.516,-200C835.001,-200 846.518,-200 857.728,-200"/>
<polygon fill="midnightblue" stroke="midnightblue" points="857.899,-203.5 867.899,-200 857.899,-196.5 857.899,-203.5"/>
</g>
<!-- Node16&#45;&gt;Node9 -->
<g id="edge20" class="edge"><title>Node16&#45;&gt;Node9</title>
<path fill="none" stroke="midnightblue" d="M655.254,-154.277C668.661,-150.842 684.622,-146.738 699,-143 762.556,-126.475 836.522,-106.934 879.474,-95.5567"/>
<polygon fill="midnightblue" stroke="midnightblue" points="880.415,-98.9283 889.185,-92.9835 878.622,-92.1618 880.415,-98.9283"/>
</g>
<!-- Node17 -->
<g id="node17" class="node"><title>Node17</title>
<g id="a_node17"><a xlink:href="class_c_key.html#acec869bc75fa8f4d619ab025d367a97c" target="_top" xlink:title="CKey::Check">
<polygon fill="white" stroke="black" points="746,-152.5 746,-171.5 821,-171.5 821,-152.5 746,-152.5"/>
<text text-anchor="middle" x="783.5" y="-159.5" font-family="Helvetica,sans-Serif" font-size="10.00">CKey::Check</text>
</a>
</g>
</g>
<!-- Node16&#45;&gt;Node17 -->
<g id="edge19" class="edge"><title>Node16&#45;&gt;Node17</title>
<path fill="none" stroke="midnightblue" d="M655.368,-162C678.174,-162 709.819,-162 735.832,-162"/>
<polygon fill="midnightblue" stroke="midnightblue" points="735.859,-165.5 745.859,-162 735.859,-158.5 735.859,-165.5"/>
</g>
<!-- Node18&#45;&gt;Node14 -->
<g id="edge22" class="edge"><title>Node18&#45;&gt;Node14</title>
<path fill="none" stroke="midnightblue" d="M688.607,-200C703.03,-200 718.158,-200 731.954,-200"/>
<polygon fill="midnightblue" stroke="midnightblue" points="732.211,-203.5 742.211,-200 732.211,-196.5 732.211,-203.5"/>
</g>
</g>
</svg>
