<?xml version="1.0" encoding="UTF-8" standalone="no"?>
<!DOCTYPE svg PUBLIC "-//W3C//DTD SVG 1.1//EN"
 "http://www.w3.org/Graphics/SVG/1.1/DTD/svg11.dtd">
<!-- Generated by graphviz version 2.38.0 (20140413.2041)
 -->
<!-- Title: EditAddressDialog::EditAddressDialog Pages: 1 -->
<svg width="621pt" height="215pt"
 viewBox="0.00 0.00 621.00 215.00" xmlns="http://www.w3.org/2000/svg" xmlns:xlink="http://www.w3.org/1999/xlink">
<g id="graph0" class="graph" transform="scale(1 1) rotate(0) translate(4 211)">
<title>EditAddressDialog::EditAddressDialog</title>
<polygon fill="white" stroke="none" points="-4,4 -4,-211 617,-211 617,4 -4,4"/>
<!-- Node1 -->
<g id="node1" class="node"><title>Node1</title>
<polygon fill="#bfbfbf" stroke="black" points="0,-110.5 0,-140.5 104,-140.5 104,-110.5 0,-110.5"/>
<text text-anchor="start" x="8" y="-128.5" font-family="Helvetica,sans-Serif" font-size="10.00">EditAddressDialog::</text>
<text text-anchor="middle" x="52" y="-117.5" font-family="Helvetica,sans-Serif" font-size="10.00">EditAddressDialog</text>
</g>
<!-- Node2 -->
<g id="node2" class="node"><title>Node2</title>
<g id="a_node2"><a xlink:href="class_ui___edit_address_dialog.html#aeb81a265b35ce52ba0416149513d9002" target="_top" xlink:title="Ui_EditAddressDialog\l::setupUi">
<polygon fill="white" stroke="black" points="156.5,-165.5 156.5,-195.5 270.5,-195.5 270.5,-165.5 156.5,-165.5"/>
<text text-anchor="start" x="164.5" y="-183.5" font-family="Helvetica,sans-Serif" font-size="10.00">Ui_EditAddressDialog</text>
<text text-anchor="middle" x="213.5" y="-172.5" font-family="Helvetica,sans-Serif" font-size="10.00">::setupUi</text>
</a>
</g>
</g>
<!-- Node1&#45;&gt;Node2 -->
<g id="edge1" class="edge"><title>Node1&#45;&gt;Node2</title>
<path fill="none" stroke="midnightblue" d="M96.5841,-140.529C116.013,-147.229 139.075,-155.181 159.492,-162.221"/>
<polygon fill="midnightblue" stroke="midnightblue" points="158.374,-165.538 168.969,-165.489 160.656,-158.92 158.374,-165.538"/>
</g>
<!-- Node4 -->
<g id="node4" class="node"><title>Node4</title>
<g id="a_node4"><a xlink:href="namespace_g_u_i_util.html#aeb3b902c0536bdb9c2def3d3e465aeba" target="_top" xlink:title="GUIUtil::setupAddressWidget">
<polygon fill="white" stroke="black" points="140,-116 140,-135 287,-135 287,-116 140,-116"/>
<text text-anchor="middle" x="213.5" y="-123" font-family="Helvetica,sans-Serif" font-size="10.00">GUIUtil::setupAddressWidget</text>
</a>
</g>
</g>
<!-- Node1&#45;&gt;Node4 -->
<g id="edge3" class="edge"><title>Node1&#45;&gt;Node4</title>
<path fill="none" stroke="midnightblue" d="M104.345,-125.5C112.461,-125.5 121.029,-125.5 129.646,-125.5"/>
<polygon fill="midnightblue" stroke="midnightblue" points="129.759,-129 139.759,-125.5 129.758,-122 129.759,-129"/>
</g>
<!-- Node7 -->
<g id="node7" class="node"><title>Node7</title>
<g id="a_node7"><a xlink:href="class_q_validated_line_edit.html#af0a2d32e9d2fb08c5069852cf4bfc860" target="_top" xlink:title="QValidatedLineEdit\l::setEnabled">
<polygon fill="white" stroke="black" points="162.5,-44.5 162.5,-74.5 264.5,-74.5 264.5,-44.5 162.5,-44.5"/>
<text text-anchor="start" x="170.5" y="-62.5" font-family="Helvetica,sans-Serif" font-size="10.00">QValidatedLineEdit</text>
<text text-anchor="middle" x="213.5" y="-51.5" font-family="Helvetica,sans-Serif" font-size="10.00">::setEnabled</text>
</a>
</g>
</g>
<!-- Node1&#45;&gt;Node7 -->
<g id="edge6" class="edge"><title>Node1&#45;&gt;Node7</title>
<path fill="none" stroke="midnightblue" d="M89.5925,-110.358C112.489,-100.884 142.178,-88.5987 166.64,-78.4763"/>
<polygon fill="midnightblue" stroke="midnightblue" points="168.176,-81.6289 176.078,-74.5713 165.499,-75.1608 168.176,-81.6289"/>
</g>
<!-- Node3 -->
<g id="node3" class="node"><title>Node3</title>
<g id="a_node3"><a xlink:href="class_ui___edit_address_dialog.html#ae004b0c88564fafb3661e58bd26afd3c" target="_top" xlink:title="Ui_EditAddressDialog\l::retranslateUi">
<polygon fill="white" stroke="black" points="342,-176.5 342,-206.5 456,-206.5 456,-176.5 342,-176.5"/>
<text text-anchor="start" x="350" y="-194.5" font-family="Helvetica,sans-Serif" font-size="10.00">Ui_EditAddressDialog</text>
<text text-anchor="middle" x="399" y="-183.5" font-family="Helvetica,sans-Serif" font-size="10.00">::retranslateUi</text>
</a>
</g>
</g>
<!-- Node2&#45;&gt;Node3 -->
<g id="edge2" class="edge"><title>Node2&#45;&gt;Node3</title>
<path fill="none" stroke="midnightblue" d="M270.553,-183.86C289.939,-185.022 311.843,-186.335 331.955,-187.541"/>
<polygon fill="midnightblue" stroke="midnightblue" points="331.783,-191.037 341.974,-188.142 332.202,-184.049 331.783,-191.037"/>
</g>
<!-- Node5 -->
<g id="node5" class="node"><title>Node5</title>
<g id="a_node5"><a xlink:href="namespace_g_u_i_util.html#ad284d2b3b4732d897cf6f1d751065e98" target="_top" xlink:title="GUIUtil::anoncoinAddressFont">
<polygon fill="white" stroke="black" points="323,-138 323,-157 475,-157 475,-138 323,-138"/>
<text text-anchor="middle" x="399" y="-145" font-family="Helvetica,sans-Serif" font-size="10.00">GUIUtil::anoncoinAddressFont</text>
</a>
</g>
</g>
<!-- Node4&#45;&gt;Node5 -->
<g id="edge4" class="edge"><title>Node4&#45;&gt;Node5</title>
<path fill="none" stroke="midnightblue" d="M287.024,-134.195C295.52,-135.214 304.247,-136.26 312.895,-137.297"/>
<polygon fill="midnightblue" stroke="midnightblue" points="312.646,-140.792 322.991,-138.507 313.479,-133.842 312.646,-140.792"/>
</g>
<!-- Node6 -->
<g id="node6" class="node"><title>Node6</title>
<g id="a_node6"><a xlink:href="class_q_validated_line_edit.html#af365be1760e17fd1ea6b430fa6005bd2" target="_top" xlink:title="QValidatedLineEdit\l::setCheckValidator">
<polygon fill="white" stroke="black" points="347.5,-88.5 347.5,-118.5 450.5,-118.5 450.5,-88.5 347.5,-88.5"/>
<text text-anchor="start" x="355.5" y="-106.5" font-family="Helvetica,sans-Serif" font-size="10.00">QValidatedLineEdit</text>
<text text-anchor="middle" x="399" y="-95.5" font-family="Helvetica,sans-Serif" font-size="10.00">::setCheckValidator</text>
</a>
</g>
</g>
<!-- Node4&#45;&gt;Node6 -->
<g id="edge5" class="edge"><title>Node4&#45;&gt;Node6</title>
<path fill="none" stroke="midnightblue" d="M287.024,-116.805C303.624,-114.815 321.103,-112.719 337.153,-110.795"/>
<polygon fill="midnightblue" stroke="midnightblue" points="337.959,-114.224 347.471,-109.558 337.125,-107.273 337.959,-114.224"/>
</g>
<!-- Node8 -->
<g id="node8" class="node"><title>Node8</title>
<g id="a_node8"><a xlink:href="class_q_validated_line_edit.html#ad9984e2e463cc7fbf28fe334498a1df5" target="_top" xlink:title="QValidatedLineEdit\l::setValid">
<polygon fill="white" stroke="black" points="511,-22.5 511,-52.5 613,-52.5 613,-22.5 511,-22.5"/>
<text text-anchor="start" x="519" y="-40.5" font-family="Helvetica,sans-Serif" font-size="10.00">QValidatedLineEdit</text>
<text text-anchor="middle" x="562" y="-29.5" font-family="Helvetica,sans-Serif" font-size="10.00">::setValid</text>
</a>
</g>
</g>
<!-- Node7&#45;&gt;Node8 -->
<g id="edge7" class="edge"><title>Node7&#45;&gt;Node8</title>
<path fill="none" stroke="midnightblue" d="M264.514,-56.3245C326.996,-52.3574 433.815,-45.5753 500.74,-41.326"/>
<polygon fill="midnightblue" stroke="midnightblue" points="500.962,-44.8191 510.72,-40.6924 500.518,-37.8332 500.962,-44.8191"/>
</g>
<!-- Node9 -->
<g id="node9" class="node"><title>Node9</title>
<g id="a_node9"><a xlink:href="class_q_validated_line_edit.html#aa5b5196dc6215f088bc138ac4dbc3e28" target="_top" xlink:title="QValidatedLineEdit\l::checkValidity">
<polygon fill="white" stroke="black" points="348,-0.5 348,-30.5 450,-30.5 450,-0.5 348,-0.5"/>
<text text-anchor="start" x="356" y="-18.5" font-family="Helvetica,sans-Serif" font-size="10.00">QValidatedLineEdit</text>
<text text-anchor="middle" x="399" y="-7.5" font-family="Helvetica,sans-Serif" font-size="10.00">::checkValidity</text>
</a>
</g>
</g>
<!-- Node7&#45;&gt;Node9 -->
<g id="edge8" class="edge"><title>Node7&#45;&gt;Node9</title>
<path fill="none" stroke="midnightblue" d="M264.642,-47.4768C287.298,-42.0444 314.248,-35.5823 337.971,-29.8939"/>
<polygon fill="midnightblue" stroke="midnightblue" points="339.01,-33.244 347.918,-27.5087 337.378,-26.4369 339.01,-33.244"/>
</g>
<!-- Node9&#45;&gt;Node8 -->
<g id="edge9" class="edge"><title>Node9&#45;&gt;Node8</title>
<path fill="none" stroke="midnightblue" d="M450.059,-22.3403C466.112,-24.5339 484.059,-26.9863 500.761,-29.2686"/>
<polygon fill="midnightblue" stroke="midnightblue" points="500.59,-32.7777 510.972,-30.6639 501.538,-25.8422 500.59,-32.7777"/>
</g>
</g>
</svg>
