<?xml version="1.0" encoding="UTF-8" standalone="no"?>
<!DOCTYPE svg PUBLIC "-//W3C//DTD SVG 1.1//EN"
 "http://www.w3.org/Graphics/SVG/1.1/DTD/svg11.dtd">
<!-- Generated by graphviz version 2.38.0 (20140413.2041)
 -->
<!-- Title: CAddrMan::Attempt Pages: 1 -->
<svg width="1000pt" height="85pt"
 viewBox="0.00 0.00 1000.00 85.00" xmlns="http://www.w3.org/2000/svg" xmlns:xlink="http://www.w3.org/1999/xlink">
<g id="graph0" class="graph" transform="scale(1 1) rotate(0) translate(4 81)">
<title>CAddrMan::Attempt</title>
<polygon fill="white" stroke="none" points="-4,4 -4,-81 996,-81 996,4 -4,4"/>
<!-- Node1 -->
<g id="node1" class="node"><title>Node1</title>
<polygon fill="#bfbfbf" stroke="black" points="0,-19.5 0,-38.5 104,-38.5 104,-19.5 0,-19.5"/>
<text text-anchor="middle" x="52" y="-26.5" font-family="Helvetica,sans-Serif" font-size="10.00">CAddrMan::Attempt</text>
</g>
<!-- Node2 -->
<g id="node2" class="node"><title>Node2</title>
<g id="a_node2"><a xlink:href="net_8h.html#a718dfaec68eabf5a2a3ebb476bf4fe67" target="_top" xlink:title="ConnectNode">
<polygon fill="white" stroke="black" points="140,-19.5 140,-38.5 218,-38.5 218,-19.5 140,-19.5"/>
<text text-anchor="middle" x="179" y="-26.5" font-family="Helvetica,sans-Serif" font-size="10.00">ConnectNode</text>
</a>
</g>
</g>
<!-- Node1&#45;&gt;Node2 -->
<g id="edge1" class="edge"><title>Node1&#45;&gt;Node2</title>
<path fill="none" stroke="midnightblue" d="M114.309,-29C122.963,-29 131.648,-29 139.7,-29"/>
<polygon fill="midnightblue" stroke="midnightblue" points="114.203,-25.5001 104.203,-29 114.203,-32.5001 114.203,-25.5001"/>
</g>
<!-- Node3 -->
<g id="node3" class="node"><title>Node3</title>
<g id="a_node3"><a xlink:href="net_8cpp.html#aa19cb8e6cf23a990e585f2bbf9ece276" target="_top" xlink:title="OpenNetworkConnection">
<polygon fill="white" stroke="black" points="254,-38.5 254,-57.5 382,-57.5 382,-38.5 254,-38.5"/>
<text text-anchor="middle" x="318" y="-45.5" font-family="Helvetica,sans-Serif" font-size="10.00">OpenNetworkConnection</text>
</a>
</g>
</g>
<!-- Node2&#45;&gt;Node3 -->
<g id="edge2" class="edge"><title>Node2&#45;&gt;Node3</title>
<path fill="none" stroke="midnightblue" d="M228.07,-35.6666C236.404,-36.8224 245.181,-38.0398 253.845,-39.2412"/>
<polygon fill="midnightblue" stroke="midnightblue" points="228.548,-32.1995 218.162,-34.2926 227.587,-39.1332 228.548,-32.1995"/>
</g>
<!-- Node11 -->
<g id="node11" class="node"><title>Node11</title>
<g id="a_node11"><a xlink:href="rpcnet_8cpp.html#ab455bfd729ba34d3bb55b716e62405a3" target="_top" xlink:title="addnode">
<polygon fill="white" stroke="black" points="290.5,-0.5 290.5,-19.5 345.5,-19.5 345.5,-0.5 290.5,-0.5"/>
<text text-anchor="middle" x="318" y="-7.5" font-family="Helvetica,sans-Serif" font-size="10.00">addnode</text>
</a>
</g>
</g>
<!-- Node2&#45;&gt;Node11 -->
<g id="edge11" class="edge"><title>Node2&#45;&gt;Node11</title>
<path fill="none" stroke="midnightblue" d="M228.148,-22.3225C249.022,-19.4275 272.67,-16.148 290.318,-13.7004"/>
<polygon fill="midnightblue" stroke="midnightblue" points="227.587,-18.8668 218.162,-23.7074 228.548,-25.8005 227.587,-18.8668"/>
</g>
<!-- Node4 -->
<g id="node4" class="node"><title>Node4</title>
<g id="a_node4"><a xlink:href="net_8cpp.html#a3b4720330e61127963a43df26b80f804" target="_top" xlink:title="ThreadOpenConnections">
<polygon fill="white" stroke="black" points="432.5,-57.5 432.5,-76.5 560.5,-76.5 560.5,-57.5 432.5,-57.5"/>
<text text-anchor="middle" x="496.5" y="-64.5" font-family="Helvetica,sans-Serif" font-size="10.00">ThreadOpenConnections</text>
</a>
</g>
</g>
<!-- Node3&#45;&gt;Node4 -->
<g id="edge3" class="edge"><title>Node3&#45;&gt;Node4</title>
<path fill="none" stroke="midnightblue" d="M392.301,-55.8907C405.628,-57.3254 419.423,-58.8104 432.423,-60.2098"/>
<polygon fill="midnightblue" stroke="midnightblue" points="392.539,-52.3963 382.222,-54.8058 391.79,-59.3561 392.539,-52.3963"/>
</g>
<!-- Node10 -->
<g id="node10" class="node"><title>Node10</title>
<g id="a_node10"><a xlink:href="net_8cpp.html#a2d1ca95557ae336582b886a251e7fe94" target="_top" xlink:title="ThreadOpenAddedConnections">
<polygon fill="white" stroke="black" points="418,-19.5 418,-38.5 575,-38.5 575,-19.5 418,-19.5"/>
<text text-anchor="middle" x="496.5" y="-26.5" font-family="Helvetica,sans-Serif" font-size="10.00">ThreadOpenAddedConnections</text>
</a>
</g>
</g>
<!-- Node3&#45;&gt;Node10 -->
<g id="edge9" class="edge"><title>Node3&#45;&gt;Node10</title>
<path fill="none" stroke="midnightblue" d="M392.394,-40.0993C400.826,-39.1916 409.444,-38.2638 417.929,-37.3504"/>
<polygon fill="midnightblue" stroke="midnightblue" points="391.79,-36.6439 382.222,-41.1942 392.539,-43.6037 391.79,-36.6439"/>
</g>
<!-- Node5 -->
<g id="node5" class="node"><title>Node5</title>
<g id="a_node5"><a xlink:href="net_8h.html#a9396d8054e8f74959e9391871aaddde0" target="_top" xlink:title="StartNode">
<polygon fill="white" stroke="black" points="611,-38.5 611,-57.5 673,-57.5 673,-38.5 611,-38.5"/>
<text text-anchor="middle" x="642" y="-45.5" font-family="Helvetica,sans-Serif" font-size="10.00">StartNode</text>
</a>
</g>
</g>
<!-- Node4&#45;&gt;Node5 -->
<g id="edge4" class="edge"><title>Node4&#45;&gt;Node5</title>
<path fill="none" stroke="midnightblue" d="M571.111,-57.2536C585.209,-55.3869 599.212,-53.5329 610.94,-51.9801"/>
<polygon fill="midnightblue" stroke="midnightblue" points="570.313,-53.8286 560.859,-58.611 571.232,-60.7681 570.313,-53.8286"/>
</g>
<!-- Node6 -->
<g id="node6" class="node"><title>Node6</title>
<g id="a_node6"><a xlink:href="init_8h.html#a1a4c1bfbf6ba1db77e988b89b9cadfd3" target="_top" xlink:title="Initialize anoncoin. ">
<polygon fill="white" stroke="black" points="709,-38.5 709,-57.5 762,-57.5 762,-38.5 709,-38.5"/>
<text text-anchor="middle" x="735.5" y="-45.5" font-family="Helvetica,sans-Serif" font-size="10.00">AppInit2</text>
</a>
</g>
</g>
<!-- Node5&#45;&gt;Node6 -->
<g id="edge5" class="edge"><title>Node5&#45;&gt;Node6</title>
<path fill="none" stroke="midnightblue" d="M683.243,-48C691.959,-48 700.944,-48 708.91,-48"/>
<polygon fill="midnightblue" stroke="midnightblue" points="683.214,-44.5001 673.214,-48 683.214,-51.5001 683.214,-44.5001"/>
</g>
<!-- Node7 -->
<g id="node7" class="node"><title>Node7</title>
<g id="a_node7"><a xlink:href="anoncoind_8cpp.html#ac59316b767e6984e1285f0531275286b" target="_top" xlink:title="AppInit">
<polygon fill="white" stroke="black" points="834,-57.5 834,-76.5 882,-76.5 882,-57.5 834,-57.5"/>
<text text-anchor="middle" x="858" y="-64.5" font-family="Helvetica,sans-Serif" font-size="10.00">AppInit</text>
</a>
</g>
</g>
<!-- Node6&#45;&gt;Node7 -->
<g id="edge6" class="edge"><title>Node6&#45;&gt;Node7</title>
<path fill="none" stroke="midnightblue" d="M772.05,-53.6053C792.041,-56.7576 816.421,-60.6017 833.927,-63.3619"/>
<polygon fill="midnightblue" stroke="midnightblue" points="772.478,-50.1297 762.055,-52.0294 771.388,-57.0443 772.478,-50.1297"/>
</g>
<!-- Node9 -->
<g id="node9" class="node"><title>Node9</title>
<g id="a_node9"><a xlink:href="class_anoncoin_coin.html#a9510881824d283404ac43414dbb74586" target="_top" xlink:title="AnoncoinCoin::initialize">
<polygon fill="white" stroke="black" points="798,-19.5 798,-38.5 918,-38.5 918,-19.5 798,-19.5"/>
<text text-anchor="middle" x="858" y="-26.5" font-family="Helvetica,sans-Serif" font-size="10.00">AnoncoinCoin::initialize</text>
</a>
</g>
</g>
<!-- Node6&#45;&gt;Node9 -->
<g id="edge8" class="edge"><title>Node6&#45;&gt;Node9</title>
<path fill="none" stroke="midnightblue" d="M772.186,-42.3732C780.249,-41.1018 789.021,-39.7186 797.765,-38.34"/>
<polygon fill="midnightblue" stroke="midnightblue" points="771.388,-38.9557 762.055,-43.9706 772.478,-45.8703 771.388,-38.9557"/>
</g>
<!-- Node8 -->
<g id="node8" class="node"><title>Node8</title>
<g id="a_node8"><a xlink:href="anoncoind_8cpp.html#a0ddf1224851353fc92bfbff6f499fa97" target="_top" xlink:title="main">
<polygon fill="white" stroke="black" points="954,-57.5 954,-76.5 992,-76.5 992,-57.5 954,-57.5"/>
<text text-anchor="middle" x="973" y="-64.5" font-family="Helvetica,sans-Serif" font-size="10.00">main</text>
</a>
</g>
</g>
<!-- Node7&#45;&gt;Node8 -->
<g id="edge7" class="edge"><title>Node7&#45;&gt;Node8</title>
<path fill="none" stroke="midnightblue" d="M892.146,-67C912.247,-67 937.134,-67 953.731,-67"/>
<polygon fill="midnightblue" stroke="midnightblue" points="892.14,-63.5001 882.14,-67 892.14,-70.5001 892.14,-63.5001"/>
</g>
<!-- Node10&#45;&gt;Node5 -->
<g id="edge10" class="edge"><title>Node10&#45;&gt;Node5</title>
<path fill="none" stroke="midnightblue" d="M579.843,-39.9026C590.85,-41.3599 601.516,-42.7722 610.776,-43.9982"/>
<polygon fill="midnightblue" stroke="midnightblue" points="580.043,-36.3986 569.67,-38.5557 579.124,-43.3381 580.043,-36.3986"/>
</g>
</g>
</svg>
