<?xml version="1.0" encoding="UTF-8" standalone="no"?>
<!DOCTYPE svg PUBLIC "-//W3C//DTD SVG 1.1//EN"
 "http://www.w3.org/Graphics/SVG/1.1/DTD/svg11.dtd">
<!-- Generated by graphviz version 2.38.0 (20140413.2041)
 -->
<!-- Title: I2POptionsWidget::setMapper Pages: 1 -->
<svg width="462pt" height="39pt"
 viewBox="0.00 0.00 462.00 39.00" xmlns="http://www.w3.org/2000/svg" xmlns:xlink="http://www.w3.org/1999/xlink">
<g id="graph0" class="graph" transform="scale(1 1) rotate(0) translate(4 35)">
<title>I2POptionsWidget::setMapper</title>
<polygon fill="white" stroke="none" points="-4,4 -4,-35 458,-35 458,4 -4,4"/>
<!-- Node1 -->
<g id="node1" class="node"><title>Node1</title>
<polygon fill="#bfbfbf" stroke="black" points="0,-6 0,-25 150,-25 150,-6 0,-6"/>
<text text-anchor="middle" x="75" y="-13" font-family="Helvetica,sans-Serif" font-size="10.00">I2POptionsWidget::setMapper</text>
</g>
<!-- Node2 -->
<g id="node2" class="node"><title>Node2</title>
<g id="a_node2"><a xlink:href="class_monitored_data_mapper.html#a5ddfc6ef4e955211948c7b24994dfd7e" target="_top" xlink:title="MonitoredDataMapper\l::addMapping">
<polygon fill="white" stroke="black" points="186,-0.5 186,-30.5 302,-30.5 302,-0.5 186,-0.5"/>
<text text-anchor="start" x="194" y="-18.5" font-family="Helvetica,sans-Serif" font-size="10.00">MonitoredDataMapper</text>
<text text-anchor="middle" x="244" y="-7.5" font-family="Helvetica,sans-Serif" font-size="10.00">::addMapping</text>
</a>
</g>
</g>
<!-- Node1&#45;&gt;Node2 -->
<g id="edge1" class="edge"><title>Node1&#45;&gt;Node2</title>
<path fill="none" stroke="midnightblue" d="M150.221,-15.5C158.706,-15.5 167.32,-15.5 175.707,-15.5"/>
<polygon fill="midnightblue" stroke="midnightblue" points="175.801,-19.0001 185.801,-15.5 175.801,-12.0001 175.801,-19.0001"/>
</g>
<!-- Node3 -->
<g id="node3" class="node"><title>Node3</title>
<g id="a_node3"><a xlink:href="class_monitored_data_mapper.html#a1ed42b9f6daf2711ac7fe49e5e2c79ed" target="_top" xlink:title="MonitoredDataMapper\l::addChangeMonitor">
<polygon fill="white" stroke="black" points="338,-0.5 338,-30.5 454,-30.5 454,-0.5 338,-0.5"/>
<text text-anchor="start" x="346" y="-18.5" font-family="Helvetica,sans-Serif" font-size="10.00">MonitoredDataMapper</text>
<text text-anchor="middle" x="396" y="-7.5" font-family="Helvetica,sans-Serif" font-size="10.00">::addChangeMonitor</text>
</a>
</g>
</g>
<!-- Node2&#45;&gt;Node3 -->
<g id="edge2" class="edge"><title>Node2&#45;&gt;Node3</title>
<path fill="none" stroke="midnightblue" d="M302.136,-15.5C310.377,-15.5 318.923,-15.5 327.344,-15.5"/>
<polygon fill="midnightblue" stroke="midnightblue" points="327.526,-19.0001 337.525,-15.5 327.525,-12.0001 327.526,-19.0001"/>
</g>
</g>
</svg>
