<?xml version="1.0" encoding="UTF-8" standalone="no"?>
<!DOCTYPE svg PUBLIC "-//W3C//DTD SVG 1.1//EN"
 "http://www.w3.org/Graphics/SVG/1.1/DTD/svg11.dtd">
<!-- Generated by graphviz version 2.38.0 (20140413.2041)
 -->
<!-- Title: CScript::SetMultisig Pages: 1 -->
<svg width="436pt" height="66pt"
 viewBox="0.00 0.00 436.00 66.00" xmlns="http://www.w3.org/2000/svg" xmlns:xlink="http://www.w3.org/1999/xlink">
<g id="graph0" class="graph" transform="scale(1 1) rotate(0) translate(4 62)">
<title>CScript::SetMultisig</title>
<polygon fill="white" stroke="none" points="-4,4 -4,-62 432,-62 432,4 -4,4"/>
<!-- Node1 -->
<g id="node1" class="node"><title>Node1</title>
<polygon fill="#bfbfbf" stroke="black" points="0,-19.5 0,-38.5 104,-38.5 104,-19.5 0,-19.5"/>
<text text-anchor="middle" x="52" y="-26.5" font-family="Helvetica,sans-Serif" font-size="10.00">CScript::SetMultisig</text>
</g>
<!-- Node2 -->
<g id="node2" class="node"><title>Node2</title>
<g id="a_node2"><a xlink:href="rpcwallet_8cpp.html#aa9b91e060b2d18fffb3b57a679441e68" target="_top" xlink:title="_createmultisig_redeemScript">
<polygon fill="white" stroke="black" points="140,-19.5 140,-38.5 289,-38.5 289,-19.5 140,-19.5"/>
<text text-anchor="middle" x="214.5" y="-26.5" font-family="Helvetica,sans-Serif" font-size="10.00">_createmultisig_redeemScript</text>
</a>
</g>
</g>
<!-- Node1&#45;&gt;Node2 -->
<g id="edge1" class="edge"><title>Node1&#45;&gt;Node2</title>
<path fill="none" stroke="midnightblue" d="M114.288,-29C122.68,-29 131.365,-29 139.947,-29"/>
<polygon fill="midnightblue" stroke="midnightblue" points="114.225,-25.5001 104.224,-29 114.224,-32.5001 114.225,-25.5001"/>
</g>
<!-- Node3 -->
<g id="node3" class="node"><title>Node3</title>
<g id="a_node3"><a xlink:href="rpcmisc_8cpp.html#a10f145bcadd06025abb3b065e2fa7a84" target="_top" xlink:title="createmultisig">
<polygon fill="white" stroke="black" points="337.5,-38.5 337.5,-57.5 415.5,-57.5 415.5,-38.5 337.5,-38.5"/>
<text text-anchor="middle" x="376.5" y="-45.5" font-family="Helvetica,sans-Serif" font-size="10.00">createmultisig</text>
</a>
</g>
</g>
<!-- Node2&#45;&gt;Node3 -->
<g id="edge2" class="edge"><title>Node2&#45;&gt;Node3</title>
<path fill="none" stroke="midnightblue" d="M299.51,-38.9762C312.709,-40.5436 325.763,-42.0937 337.228,-43.4553"/>
<polygon fill="midnightblue" stroke="midnightblue" points="299.754,-35.4807 289.411,-37.777 298.929,-42.4319 299.754,-35.4807"/>
</g>
<!-- Node4 -->
<g id="node4" class="node"><title>Node4</title>
<g id="a_node4"><a xlink:href="rpcwallet_8cpp.html#a01e8a83cbd4209f10c71719383d7ca2d" target="_top" xlink:title="addmultisigaddress">
<polygon fill="white" stroke="black" points="325,-0.5 325,-19.5 428,-19.5 428,-0.5 325,-0.5"/>
<text text-anchor="middle" x="376.5" y="-7.5" font-family="Helvetica,sans-Serif" font-size="10.00">addmultisigaddress</text>
</a>
</g>
</g>
<!-- Node2&#45;&gt;Node4 -->
<g id="edge3" class="edge"><title>Node2&#45;&gt;Node4</title>
<path fill="none" stroke="midnightblue" d="M299.517,-19.0229C308.122,-18.0011 316.665,-16.9866 324.746,-16.027"/>
<polygon fill="midnightblue" stroke="midnightblue" points="298.929,-15.5681 289.411,-20.223 299.754,-22.5193 298.929,-15.5681"/>
</g>
</g>
</svg>
