<?xml version="1.0" encoding="UTF-8" standalone="no"?>
<!DOCTYPE svg PUBLIC "-//W3C//DTD SVG 1.1//EN"
 "http://www.w3.org/Graphics/SVG/1.1/DTD/svg11.dtd">
<!-- Generated by graphviz version 2.38.0 (20140413.2041)
 -->
<!-- Title: CWallet::GetCredit Pages: 1 -->
<svg width="376pt" height="84pt"
 viewBox="0.00 0.00 376.00 84.00" xmlns="http://www.w3.org/2000/svg" xmlns:xlink="http://www.w3.org/1999/xlink">
<g id="graph0" class="graph" transform="scale(1 1) rotate(0) translate(4 80)">
<title>CWallet::GetCredit</title>
<polygon fill="white" stroke="none" points="-4,4 -4,-80 372,-80 372,4 -4,4"/>
<!-- Node1 -->
<g id="node1" class="node"><title>Node1</title>
<polygon fill="#bfbfbf" stroke="black" points="0,-28.5 0,-47.5 100,-47.5 100,-28.5 0,-28.5"/>
<text text-anchor="middle" x="50" y="-35.5" font-family="Helvetica,sans-Serif" font-size="10.00">CWallet::GetCredit</text>
</g>
<!-- Node2 -->
<g id="node2" class="node"><title>Node2</title>
<g id="a_node2"><a xlink:href="core_8h.html#ad1d9a769fa327ea042e0c9fadeb4836b" target="_top" xlink:title="MoneyRange">
<polygon fill="white" stroke="black" points="136,-56.5 136,-75.5 212,-75.5 212,-56.5 136,-56.5"/>
<text text-anchor="middle" x="174" y="-63.5" font-family="Helvetica,sans-Serif" font-size="10.00">MoneyRange</text>
</a>
</g>
</g>
<!-- Node1&#45;&gt;Node2 -->
<g id="edge1" class="edge"><title>Node1&#45;&gt;Node2</title>
<path fill="none" stroke="midnightblue" d="M92.6443,-47.5577C103.32,-50.0078 114.878,-52.6605 125.811,-55.1698"/>
<polygon fill="midnightblue" stroke="midnightblue" points="125.104,-58.5983 135.633,-57.424 126.669,-51.7757 125.104,-58.5983"/>
</g>
<!-- Node3 -->
<g id="node3" class="node"><title>Node3</title>
<g id="a_node3"><a xlink:href="script_8cpp.html#adc59cf67d903c1ba1ef225561b85bfce" target="_top" xlink:title="IsMine">
<polygon fill="white" stroke="black" points="151,-0.5 151,-19.5 197,-19.5 197,-0.5 151,-0.5"/>
<text text-anchor="middle" x="174" y="-7.5" font-family="Helvetica,sans-Serif" font-size="10.00">IsMine</text>
</a>
</g>
</g>
<!-- Node1&#45;&gt;Node3 -->
<g id="edge2" class="edge"><title>Node1&#45;&gt;Node3</title>
<path fill="none" stroke="midnightblue" d="M92.6443,-28.4423C108.308,-24.8473 125.872,-20.8163 140.574,-17.4419"/>
<polygon fill="midnightblue" stroke="midnightblue" points="141.743,-20.7649 150.706,-15.1165 140.177,-13.9422 141.743,-20.7649"/>
</g>
<!-- Node3&#45;&gt;Node3 -->
<g id="edge4" class="edge"><title>Node3&#45;&gt;Node3</title>
<path fill="none" stroke="midnightblue" d="M154.888,-19.7571C145.59,-28.5653 151.961,-38 174,-38 188.119,-38 195.807,-34.128 197.065,-29.0292"/>
<polygon fill="midnightblue" stroke="midnightblue" points="200.254,-27.5831 193.112,-19.7571 193.815,-30.3286 200.254,-27.5831"/>
</g>
<!-- Node4 -->
<g id="node4" class="node"><title>Node4</title>
<g id="a_node4"><a xlink:href="class_c_script.html#ad1b5a9077241aa06116040c4f1b7c31e" target="_top" xlink:title="CScript::SetDestination">
<polygon fill="white" stroke="black" points="248,-0.5 248,-19.5 368,-19.5 368,-0.5 248,-0.5"/>
<text text-anchor="middle" x="308" y="-7.5" font-family="Helvetica,sans-Serif" font-size="10.00">CScript::SetDestination</text>
</a>
</g>
</g>
<!-- Node3&#45;&gt;Node4 -->
<g id="edge3" class="edge"><title>Node3&#45;&gt;Node4</title>
<path fill="none" stroke="midnightblue" d="M197.094,-10C208.424,-10 222.913,-10 237.627,-10"/>
<polygon fill="midnightblue" stroke="midnightblue" points="237.813,-13.5001 247.813,-10 237.813,-6.5001 237.813,-13.5001"/>
</g>
</g>
</svg>
