<?xml version="1.0" encoding="UTF-8" standalone="no"?>
<!DOCTYPE svg PUBLIC "-//W3C//DTD SVG 1.1//EN"
 "http://www.w3.org/Graphics/SVG/1.1/DTD/svg11.dtd">
<!-- Generated by graphviz version 2.38.0 (20140413.2041)
 -->
<!-- Title: CDBEnv::EnvShutdown Pages: 1 -->
<svg width="726pt" height="85pt"
 viewBox="0.00 0.00 726.00 85.00" xmlns="http://www.w3.org/2000/svg" xmlns:xlink="http://www.w3.org/1999/xlink">
<g id="graph0" class="graph" transform="scale(1 1) rotate(0) translate(4 81)">
<title>CDBEnv::EnvShutdown</title>
<polygon fill="white" stroke="none" points="-4,4 -4,-81 722,-81 722,4 -4,4"/>
<!-- Node1 -->
<g id="node1" class="node"><title>Node1</title>
<polygon fill="#bfbfbf" stroke="black" points="0,-38.5 0,-57.5 122,-57.5 122,-38.5 0,-38.5"/>
<text text-anchor="middle" x="61" y="-45.5" font-family="Helvetica,sans-Serif" font-size="10.00">CDBEnv::EnvShutdown</text>
</g>
<!-- Node2 -->
<g id="node2" class="node"><title>Node2</title>
<g id="a_node2"><a xlink:href="class_c_d_b_env.html#a217f5a20e4fc0790e495f9fa78ee8708" target="_top" xlink:title="CDBEnv::~CDBEnv">
<polygon fill="white" stroke="black" points="158,-57.5 158,-76.5 263,-76.5 263,-57.5 158,-57.5"/>
<text text-anchor="middle" x="210.5" y="-64.5" font-family="Helvetica,sans-Serif" font-size="10.00">CDBEnv::~CDBEnv</text>
</a>
</g>
</g>
<!-- Node1&#45;&gt;Node2 -->
<g id="edge1" class="edge"><title>Node1&#45;&gt;Node2</title>
<path fill="none" stroke="midnightblue" d="M132.438,-57.0733C141.019,-58.1787 149.66,-59.2918 157.895,-60.3526"/>
<polygon fill="midnightblue" stroke="midnightblue" points="132.785,-53.5892 122.419,-55.7828 131.89,-60.5318 132.785,-53.5892"/>
</g>
<!-- Node3 -->
<g id="node3" class="node"><title>Node3</title>
<g id="a_node3"><a xlink:href="class_c_d_b_env.html#a0bf3b64c05bf0d7f0a7dbaa9a072c0bc" target="_top" xlink:title="CDBEnv::Close">
<polygon fill="white" stroke="black" points="167.5,-19.5 167.5,-38.5 253.5,-38.5 253.5,-19.5 167.5,-19.5"/>
<text text-anchor="middle" x="210.5" y="-26.5" font-family="Helvetica,sans-Serif" font-size="10.00">CDBEnv::Close</text>
</a>
</g>
</g>
<!-- Node1&#45;&gt;Node3 -->
<g id="edge2" class="edge"><title>Node1&#45;&gt;Node3</title>
<path fill="none" stroke="midnightblue" d="M132.423,-38.9286C144.397,-37.3861 156.489,-35.8286 167.431,-34.419"/>
<polygon fill="midnightblue" stroke="midnightblue" points="131.89,-35.4682 122.419,-40.2172 132.785,-42.4108 131.89,-35.4682"/>
</g>
<!-- Node4 -->
<g id="node4" class="node"><title>Node4</title>
<g id="a_node4"><a xlink:href="class_c_d_b_env.html#a09c5850b88919553a8db416ce288ff1a" target="_top" xlink:title="CDBEnv::Flush">
<polygon fill="white" stroke="black" points="299,-19.5 299,-38.5 384,-38.5 384,-19.5 299,-19.5"/>
<text text-anchor="middle" x="341.5" y="-26.5" font-family="Helvetica,sans-Serif" font-size="10.00">CDBEnv::Flush</text>
</a>
</g>
</g>
<!-- Node3&#45;&gt;Node4 -->
<g id="edge3" class="edge"><title>Node3&#45;&gt;Node4</title>
<path fill="none" stroke="midnightblue" d="M263.749,-29C275.344,-29 287.488,-29 298.606,-29"/>
<polygon fill="midnightblue" stroke="midnightblue" points="263.739,-25.5001 253.739,-29 263.739,-32.5001 263.739,-25.5001"/>
</g>
<!-- Node5 -->
<g id="node5" class="node"><title>Node5</title>
<g id="a_node5"><a xlink:href="init_8h.html#ac5f038c2b480cf9ef5e19e3eba8dbaf9" target="_top" xlink:title="Shutdown">
<polygon fill="white" stroke="black" points="420,-19.5 420,-38.5 481,-38.5 481,-19.5 420,-19.5"/>
<text text-anchor="middle" x="450.5" y="-26.5" font-family="Helvetica,sans-Serif" font-size="10.00">Shutdown</text>
</a>
</g>
</g>
<!-- Node4&#45;&gt;Node5 -->
<g id="edge4" class="edge"><title>Node4&#45;&gt;Node5</title>
<path fill="none" stroke="midnightblue" d="M394.315,-29C403.022,-29 411.789,-29 419.692,-29"/>
<polygon fill="midnightblue" stroke="midnightblue" points="394.175,-25.5001 384.175,-29 394.175,-32.5001 394.175,-25.5001"/>
</g>
<!-- Node6 -->
<g id="node6" class="node"><title>Node6</title>
<g id="a_node6"><a xlink:href="anoncoind_8cpp.html#ac59316b767e6984e1285f0531275286b" target="_top" xlink:title="AppInit">
<polygon fill="white" stroke="black" points="556.5,-38.5 556.5,-57.5 604.5,-57.5 604.5,-38.5 556.5,-38.5"/>
<text text-anchor="middle" x="580.5" y="-45.5" font-family="Helvetica,sans-Serif" font-size="10.00">AppInit</text>
</a>
</g>
</g>
<!-- Node5&#45;&gt;Node6 -->
<g id="edge5" class="edge"><title>Node5&#45;&gt;Node6</title>
<path fill="none" stroke="midnightblue" d="M491.288,-34.906C512.659,-38.0783 538.255,-41.8777 556.357,-44.5647"/>
<polygon fill="midnightblue" stroke="midnightblue" points="491.593,-31.413 481.188,-33.4067 490.565,-38.3372 491.593,-31.413"/>
</g>
<!-- Node8 -->
<g id="node8" class="node"><title>Node8</title>
<g id="a_node8"><a xlink:href="class_anoncoin_coin.html#ac33fbca9335d356d9d6102a0122f2a5b" target="_top" xlink:title="AnoncoinCoin::shutdown">
<polygon fill="white" stroke="black" points="517,-0.5 517,-19.5 644,-19.5 644,-0.5 517,-0.5"/>
<text text-anchor="middle" x="580.5" y="-7.5" font-family="Helvetica,sans-Serif" font-size="10.00">AnoncoinCoin::shutdown</text>
</a>
</g>
</g>
<!-- Node5&#45;&gt;Node8 -->
<g id="edge7" class="edge"><title>Node5&#45;&gt;Node8</title>
<path fill="none" stroke="midnightblue" d="M491.157,-23.1135C499.329,-21.9004 508.123,-20.595 516.883,-19.2948"/>
<polygon fill="midnightblue" stroke="midnightblue" points="490.565,-19.6628 481.188,-24.5933 491.593,-26.587 490.565,-19.6628"/>
</g>
<!-- Node7 -->
<g id="node7" class="node"><title>Node7</title>
<g id="a_node7"><a xlink:href="anoncoind_8cpp.html#a0ddf1224851353fc92bfbff6f499fa97" target="_top" xlink:title="main">
<polygon fill="white" stroke="black" points="680,-38.5 680,-57.5 718,-57.5 718,-38.5 680,-38.5"/>
<text text-anchor="middle" x="699" y="-45.5" font-family="Helvetica,sans-Serif" font-size="10.00">main</text>
</a>
</g>
</g>
<!-- Node6&#45;&gt;Node7 -->
<g id="edge6" class="edge"><title>Node6&#45;&gt;Node7</title>
<path fill="none" stroke="midnightblue" d="M614.731,-48C635.947,-48 662.631,-48 679.99,-48"/>
<polygon fill="midnightblue" stroke="midnightblue" points="614.517,-44.5001 604.517,-48 614.517,-51.5001 614.517,-44.5001"/>
</g>
</g>
</svg>
