<?xml version="1.0" encoding="UTF-8" standalone="no"?>
<!DOCTYPE svg PUBLIC "-//W3C//DTD SVG 1.1//EN"
 "http://www.w3.org/Graphics/SVG/1.1/DTD/svg11.dtd">
<!-- Generated by graphviz version 2.38.0 (20140413.2041)
 -->
<!-- Title: CCoinsViewCache::FetchCoins Pages: 1 -->
<svg width="318pt" height="66pt"
 viewBox="0.00 0.00 318.00 66.00" xmlns="http://www.w3.org/2000/svg" xmlns:xlink="http://www.w3.org/1999/xlink">
<g id="graph0" class="graph" transform="scale(1 1) rotate(0) translate(4 62)">
<title>CCoinsViewCache::FetchCoins</title>
<polygon fill="white" stroke="none" points="-4,4 -4,-62 314,-62 314,4 -4,4"/>
<!-- Node1 -->
<g id="node1" class="node"><title>Node1</title>
<polygon fill="#bfbfbf" stroke="black" points="0,-19.5 0,-38.5 156,-38.5 156,-19.5 0,-19.5"/>
<text text-anchor="middle" x="78" y="-26.5" font-family="Helvetica,sans-Serif" font-size="10.00">CCoinsViewCache::FetchCoins</text>
</g>
<!-- Node2 -->
<g id="node2" class="node"><title>Node2</title>
<g id="a_node2"><a xlink:href="class_c_coins_view.html#a7fe9216505bc5f3d78f2938bc7b29e26" target="_top" xlink:title="CCoinsView::GetCoins">
<polygon fill="white" stroke="black" points="192,-38.5 192,-57.5 310,-57.5 310,-38.5 192,-38.5"/>
<text text-anchor="middle" x="251" y="-45.5" font-family="Helvetica,sans-Serif" font-size="10.00">CCoinsView::GetCoins</text>
</a>
</g>
</g>
<!-- Node1&#45;&gt;Node2 -->
<g id="edge1" class="edge"><title>Node1&#45;&gt;Node2</title>
<path fill="none" stroke="midnightblue" d="M156.495,-37.6105C164.976,-38.5529 173.563,-39.507 181.919,-40.4354"/>
<polygon fill="midnightblue" stroke="midnightblue" points="181.648,-43.9267 191.973,-41.5526 182.421,-36.9696 181.648,-43.9267"/>
</g>
<!-- Node3 -->
<g id="node3" class="node"><title>Node3</title>
<g id="a_node3"><a xlink:href="class_c_coins.html#a9581324a74e9500b3d2cad472c0a830f" target="_top" xlink:title="CCoins::swap">
<polygon fill="white" stroke="black" points="212,-0.5 212,-19.5 290,-19.5 290,-0.5 212,-0.5"/>
<text text-anchor="middle" x="251" y="-7.5" font-family="Helvetica,sans-Serif" font-size="10.00">CCoins::swap</text>
</a>
</g>
</g>
<!-- Node1&#45;&gt;Node3 -->
<g id="edge2" class="edge"><title>Node1&#45;&gt;Node3</title>
<path fill="none" stroke="midnightblue" d="M156.495,-20.3895C171.997,-18.6671 187.852,-16.9053 202,-15.3334"/>
<polygon fill="midnightblue" stroke="midnightblue" points="202.418,-18.8086 211.97,-14.2256 201.645,-11.8514 202.418,-18.8086"/>
</g>
</g>
</svg>
