<?xml version="1.0" encoding="UTF-8" standalone="no"?>
<!DOCTYPE svg PUBLIC "-//W3C//DTD SVG 1.1//EN"
 "http://www.w3.org/Graphics/SVG/1.1/DTD/svg11.dtd">
<!-- Generated by graphviz version 2.38.0 (20140413.2041)
 -->
<!-- Title: AnoncoinUnits::getAmountColumnTitle Pages: 1 -->
<svg width="291pt" height="66pt"
 viewBox="0.00 0.00 291.00 66.00" xmlns="http://www.w3.org/2000/svg" xmlns:xlink="http://www.w3.org/1999/xlink">
<g id="graph0" class="graph" transform="scale(1 1) rotate(0) translate(4 62)">
<title>AnoncoinUnits::getAmountColumnTitle</title>
<polygon fill="white" stroke="none" points="-4,4 -4,-62 287,-62 287,4 -4,4"/>
<!-- Node1 -->
<g id="node1" class="node"><title>Node1</title>
<polygon fill="#bfbfbf" stroke="black" points="0,-14 0,-44 135,-44 135,-14 0,-14"/>
<text text-anchor="start" x="8" y="-32" font-family="Helvetica,sans-Serif" font-size="10.00">AnoncoinUnits::getAmount</text>
<text text-anchor="middle" x="67.5" y="-21" font-family="Helvetica,sans-Serif" font-size="10.00">ColumnTitle</text>
</g>
<!-- Node2 -->
<g id="node2" class="node"><title>Node2</title>
<g id="a_node2"><a xlink:href="class_anoncoin_units.html#aa51b639723ccb854bc42c7bd4bcd8890" target="_top" xlink:title="Is unit ID valid? ">
<polygon fill="white" stroke="black" points="173.5,-38.5 173.5,-57.5 280.5,-57.5 280.5,-38.5 173.5,-38.5"/>
<text text-anchor="middle" x="227" y="-45.5" font-family="Helvetica,sans-Serif" font-size="10.00">AnoncoinUnits::valid</text>
</a>
</g>
</g>
<!-- Node1&#45;&gt;Node2 -->
<g id="edge1" class="edge"><title>Node1&#45;&gt;Node2</title>
<path fill="none" stroke="midnightblue" d="M135.294,-37.0577C144.553,-38.1747 154.038,-39.3189 163.221,-40.4266"/>
<polygon fill="midnightblue" stroke="midnightblue" points="163.084,-43.9355 173.432,-41.6584 163.923,-36.9859 163.084,-43.9355"/>
</g>
<!-- Node3 -->
<g id="node3" class="node"><title>Node3</title>
<g id="a_node3"><a xlink:href="class_anoncoin_units.html#ad83d732db7699510db372a5c17590fba" target="_top" xlink:title="Short name. ">
<polygon fill="white" stroke="black" points="171,-0.5 171,-19.5 283,-19.5 283,-0.5 171,-0.5"/>
<text text-anchor="middle" x="227" y="-7.5" font-family="Helvetica,sans-Serif" font-size="10.00">AnoncoinUnits::name</text>
</a>
</g>
</g>
<!-- Node1&#45;&gt;Node3 -->
<g id="edge2" class="edge"><title>Node1&#45;&gt;Node3</title>
<path fill="none" stroke="midnightblue" d="M135.294,-20.9423C143.639,-19.9356 152.167,-18.9068 160.492,-17.9025"/>
<polygon fill="midnightblue" stroke="midnightblue" points="161.011,-21.3654 170.52,-16.6928 160.173,-14.4158 161.011,-21.3654"/>
</g>
</g>
</svg>
