<?xml version="1.0" encoding="UTF-8" standalone="no"?>
<!DOCTYPE svg PUBLIC "-//W3C//DTD SVG 1.1//EN"
 "http://www.w3.org/Graphics/SVG/1.1/DTD/svg11.dtd">
<!-- Generated by graphviz version 2.38.0 (20140413.2041)
 -->
<!-- Title: AddressTableModel::addRow Pages: 1 -->
<svg width="841pt" height="329pt"
 viewBox="0.00 0.00 841.00 329.00" xmlns="http://www.w3.org/2000/svg" xmlns:xlink="http://www.w3.org/1999/xlink">
<g id="graph0" class="graph" transform="scale(1 1) rotate(0) translate(4 325)">
<title>AddressTableModel::addRow</title>
<polygon fill="white" stroke="none" points="-4,4 -4,-325 837,-325 837,4 -4,4"/>
<!-- Node1 -->
<g id="node1" class="node"><title>Node1</title>
<polygon fill="#bfbfbf" stroke="black" points="0,-190 0,-220 111,-220 111,-190 0,-190"/>
<text text-anchor="start" x="8" y="-208" font-family="Helvetica,sans-Serif" font-size="10.00">AddressTableModel::</text>
<text text-anchor="middle" x="55.5" y="-197" font-family="Helvetica,sans-Serif" font-size="10.00">addRow</text>
</g>
<!-- Node2 -->
<g id="node2" class="node"><title>Node2</title>
<g id="a_node2"><a xlink:href="class_wallet_model.html#a04604615253aeaae1253b1412a70a1f7" target="_top" xlink:title="WalletModel::validateAddress">
<polygon fill="white" stroke="black" points="147,-271.5 147,-290.5 295,-290.5 295,-271.5 147,-271.5"/>
<text text-anchor="middle" x="221" y="-278.5" font-family="Helvetica,sans-Serif" font-size="10.00">WalletModel::validateAddress</text>
</a>
</g>
</g>
<!-- Node1&#45;&gt;Node2 -->
<g id="edge1" class="edge"><title>Node1&#45;&gt;Node2</title>
<path fill="none" stroke="midnightblue" d="M76.3473,-220.029C94.0486,-232.799 121.097,-250.792 147,-262 152.679,-264.457 158.749,-266.654 164.871,-268.604"/>
<polygon fill="midnightblue" stroke="midnightblue" points="163.904,-271.968 174.487,-271.466 165.901,-265.259 163.904,-271.968"/>
</g>
<!-- Node6 -->
<g id="node6" class="node"><title>Node6</title>
<g id="a_node6"><a xlink:href="class_c_wallet.html#a18549ec5c472c003afc4794daeb9adfd" target="_top" xlink:title="CWallet::GetKeyFromPool">
<polygon fill="white" stroke="black" points="154,-233.5 154,-252.5 288,-252.5 288,-233.5 154,-233.5"/>
<text text-anchor="middle" x="221" y="-240.5" font-family="Helvetica,sans-Serif" font-size="10.00">CWallet::GetKeyFromPool</text>
</a>
</g>
</g>
<!-- Node1&#45;&gt;Node6 -->
<g id="edge5" class="edge"><title>Node1&#45;&gt;Node6</title>
<path fill="none" stroke="midnightblue" d="M111.398,-217.759C130.027,-222.089 150.75,-226.905 169.058,-231.16"/>
<polygon fill="midnightblue" stroke="midnightblue" points="168.419,-234.605 178.951,-233.46 170.003,-227.787 168.419,-234.605"/>
</g>
<!-- Node7 -->
<g id="node7" class="node"><title>Node7</title>
<g id="a_node7"><a xlink:href="class_wallet_model.html#ae98eaede9493625ce778a0a873b3d124" target="_top" xlink:title="WalletModel::requestUnlock">
<polygon fill="white" stroke="black" points="150.5,-195.5 150.5,-214.5 291.5,-214.5 291.5,-195.5 150.5,-195.5"/>
<text text-anchor="middle" x="221" y="-202.5" font-family="Helvetica,sans-Serif" font-size="10.00">WalletModel::requestUnlock</text>
</a>
</g>
</g>
<!-- Node1&#45;&gt;Node7 -->
<g id="edge6" class="edge"><title>Node1&#45;&gt;Node7</title>
<path fill="none" stroke="midnightblue" d="M111.398,-205C120.693,-205 130.509,-205 140.287,-205"/>
<polygon fill="midnightblue" stroke="midnightblue" points="140.438,-208.5 150.438,-205 140.438,-201.5 140.438,-208.5"/>
</g>
<!-- Node11 -->
<g id="node11" class="node"><title>Node11</title>
<g id="a_node11"><a xlink:href="class_c_pub_key.html#a9c1908fef34fd9e1c4b5e0ffd5d3834e" target="_top" xlink:title="CPubKey::GetID">
<polygon fill="white" stroke="black" points="176,-157.5 176,-176.5 266,-176.5 266,-157.5 176,-157.5"/>
<text text-anchor="middle" x="221" y="-164.5" font-family="Helvetica,sans-Serif" font-size="10.00">CPubKey::GetID</text>
</a>
</g>
</g>
<!-- Node1&#45;&gt;Node11 -->
<g id="edge11" class="edge"><title>Node1&#45;&gt;Node11</title>
<path fill="none" stroke="midnightblue" d="M111.398,-192.241C130.027,-187.911 150.75,-183.095 169.058,-178.84"/>
<polygon fill="midnightblue" stroke="midnightblue" points="170.003,-182.213 178.951,-176.54 168.419,-175.395 170.003,-182.213"/>
</g>
<!-- Node15 -->
<g id="node15" class="node"><title>Node15</title>
<g id="a_node15"><a xlink:href="class_c_wallet.html#a53e5528d7005608594e73f500bc5bb8f" target="_top" xlink:title="CWallet::SetAddressBook">
<polygon fill="white" stroke="black" points="155,-57.5 155,-76.5 287,-76.5 287,-57.5 155,-57.5"/>
<text text-anchor="middle" x="221" y="-64.5" font-family="Helvetica,sans-Serif" font-size="10.00">CWallet::SetAddressBook</text>
</a>
</g>
</g>
<!-- Node1&#45;&gt;Node15 -->
<g id="edge15" class="edge"><title>Node1&#45;&gt;Node15</title>
<path fill="none" stroke="midnightblue" d="M74.3086,-189.969C105.307,-163.805 168.914,-110.119 200.835,-83.1755"/>
<polygon fill="midnightblue" stroke="midnightblue" points="203.204,-85.7566 208.588,-76.6319 198.689,-80.4073 203.204,-85.7566"/>
</g>
<!-- Node3 -->
<g id="node3" class="node"><title>Node3</title>
<g id="a_node3"><a xlink:href="class_c_anoncoin_address.html#af5c7de8942a49523747a7d93e614779f" target="_top" xlink:title="CAnoncoinAddress::IsValid">
<polygon fill="white" stroke="black" points="331,-271.5 331,-290.5 469,-290.5 469,-271.5 331,-271.5"/>
<text text-anchor="middle" x="400" y="-278.5" font-family="Helvetica,sans-Serif" font-size="10.00">CAnoncoinAddress::IsValid</text>
</a>
</g>
</g>
<!-- Node2&#45;&gt;Node3 -->
<g id="edge2" class="edge"><title>Node2&#45;&gt;Node3</title>
<path fill="none" stroke="midnightblue" d="M295.015,-281C303.57,-281 312.325,-281 320.946,-281"/>
<polygon fill="midnightblue" stroke="midnightblue" points="320.984,-284.5 330.984,-281 320.984,-277.5 320.984,-284.5"/>
</g>
<!-- Node4 -->
<g id="node4" class="node"><title>Node4</title>
<g id="a_node4"><a xlink:href="chainparams_8cpp.html#ace5c5b706d71a324a417dd2db394fd4a" target="_top" xlink:title="Return the currently selected parameters. ">
<polygon fill="white" stroke="black" points="554,-301.5 554,-320.5 605,-320.5 605,-301.5 554,-301.5"/>
<text text-anchor="middle" x="579.5" y="-308.5" font-family="Helvetica,sans-Serif" font-size="10.00">Params</text>
</a>
</g>
</g>
<!-- Node3&#45;&gt;Node4 -->
<g id="edge3" class="edge"><title>Node3&#45;&gt;Node4</title>
<path fill="none" stroke="midnightblue" d="M457.65,-290.575C486.058,-295.376 519.538,-301.035 544.046,-305.177"/>
<polygon fill="midnightblue" stroke="midnightblue" points="543.516,-308.637 553.959,-306.852 544.682,-301.735 543.516,-308.637"/>
</g>
<!-- Node5 -->
<g id="node5" class="node"><title>Node5</title>
<g id="a_node5"><a xlink:href="class_c_chain_params.html#a6088d3a4f45d89c90e7e6117c3c5720d" target="_top" xlink:title="CChainParams::Base58Prefix">
<polygon fill="white" stroke="black" points="505,-263.5 505,-282.5 654,-282.5 654,-263.5 505,-263.5"/>
<text text-anchor="middle" x="579.5" y="-270.5" font-family="Helvetica,sans-Serif" font-size="10.00">CChainParams::Base58Prefix</text>
</a>
</g>
</g>
<!-- Node3&#45;&gt;Node5 -->
<g id="edge4" class="edge"><title>Node3&#45;&gt;Node5</title>
<path fill="none" stroke="midnightblue" d="M469.118,-277.93C477.551,-277.55 486.246,-277.158 494.877,-276.769"/>
<polygon fill="midnightblue" stroke="midnightblue" points="495.126,-280.261 504.959,-276.315 494.811,-273.268 495.126,-280.261"/>
</g>
<!-- Node8 -->
<g id="node8" class="node"><title>Node8</title>
<g id="a_node8"><a xlink:href="class_wallet_model.html#acfb62be638267bbf1bf498fb6501c31d" target="_top" xlink:title="WalletModel::getEncryption\lStatus">
<polygon fill="white" stroke="black" points="331,-209 331,-239 469,-239 469,-209 331,-209"/>
<text text-anchor="start" x="339" y="-227" font-family="Helvetica,sans-Serif" font-size="10.00">WalletModel::getEncryption</text>
<text text-anchor="middle" x="400" y="-216" font-family="Helvetica,sans-Serif" font-size="10.00">Status</text>
</a>
</g>
</g>
<!-- Node7&#45;&gt;Node8 -->
<g id="edge7" class="edge"><title>Node7&#45;&gt;Node8</title>
<path fill="none" stroke="midnightblue" d="M291.701,-212.482C301.25,-213.507 311.106,-214.565 320.795,-215.605"/>
<polygon fill="midnightblue" stroke="midnightblue" points="320.494,-219.093 330.811,-216.68 321.242,-212.133 320.494,-219.093"/>
</g>
<!-- Node9 -->
<g id="node9" class="node"><title>Node9</title>
<g id="a_node9"><a xlink:href="class_c_crypto_key_store.html#a1cb434078a9ea686c0acf168d2c81252" target="_top" xlink:title="CCryptoKeyStore::IsCrypted">
<polygon fill="white" stroke="black" points="690,-203.5 690,-222.5 833,-222.5 833,-203.5 690,-203.5"/>
<text text-anchor="middle" x="761.5" y="-210.5" font-family="Helvetica,sans-Serif" font-size="10.00">CCryptoKeyStore::IsCrypted</text>
</a>
</g>
</g>
<!-- Node8&#45;&gt;Node9 -->
<g id="edge8" class="edge"><title>Node8&#45;&gt;Node9</title>
<path fill="none" stroke="midnightblue" d="M469.042,-221.918C528.914,-220.086 616.181,-217.416 679.61,-215.475"/>
<polygon fill="midnightblue" stroke="midnightblue" points="680.085,-218.962 689.973,-215.158 679.871,-211.966 680.085,-218.962"/>
</g>
<!-- Node10 -->
<g id="node10" class="node"><title>Node10</title>
<g id="a_node10"><a xlink:href="class_c_crypto_key_store.html#a1c3ebef555fd13676d67509b95820fcf" target="_top" xlink:title="CCryptoKeyStore::IsLocked">
<polygon fill="white" stroke="black" points="509.5,-184.5 509.5,-203.5 649.5,-203.5 649.5,-184.5 509.5,-184.5"/>
<text text-anchor="middle" x="579.5" y="-191.5" font-family="Helvetica,sans-Serif" font-size="10.00">CCryptoKeyStore::IsLocked</text>
</a>
</g>
</g>
<!-- Node8&#45;&gt;Node10 -->
<g id="edge9" class="edge"><title>Node8&#45;&gt;Node10</title>
<path fill="none" stroke="midnightblue" d="M469.118,-212.487C483.201,-210.107 498.016,-207.603 512.038,-205.233"/>
<polygon fill="midnightblue" stroke="midnightblue" points="512.81,-208.652 522.086,-203.535 511.643,-201.75 512.81,-208.652"/>
</g>
<!-- Node10&#45;&gt;Node9 -->
<g id="edge10" class="edge"><title>Node10&#45;&gt;Node9</title>
<path fill="none" stroke="midnightblue" d="M649.578,-201.292C659.467,-202.335 669.714,-203.417 679.802,-204.482"/>
<polygon fill="midnightblue" stroke="midnightblue" points="679.507,-207.97 689.819,-205.539 680.242,-201.009 679.507,-207.97"/>
</g>
<!-- Node12 -->
<g id="node12" class="node"><title>Node12</title>
<g id="a_node12"><a xlink:href="hash_8h.html#a4490f70ddae16e9e48460a0416a48a6b" target="_top" xlink:title="Hash160">
<polygon fill="white" stroke="black" points="371.5,-170.5 371.5,-189.5 428.5,-189.5 428.5,-170.5 371.5,-170.5"/>
<text text-anchor="middle" x="400" y="-177.5" font-family="Helvetica,sans-Serif" font-size="10.00">Hash160</text>
</a>
</g>
</g>
<!-- Node11&#45;&gt;Node12 -->
<g id="edge12" class="edge"><title>Node11&#45;&gt;Node12</title>
<path fill="none" stroke="midnightblue" d="M266.208,-170.247C295.444,-172.394 333.369,-175.18 361.2,-177.224"/>
<polygon fill="midnightblue" stroke="midnightblue" points="361.104,-180.726 371.333,-177.968 361.616,-173.745 361.104,-180.726"/>
</g>
<!-- Node13 -->
<g id="node13" class="node"><title>Node13</title>
<g id="a_node13"><a xlink:href="class_c_pub_key.html#a9d7129b65b6dee792b4f3923cd64ed59" target="_top" xlink:title="CPubKey::size">
<polygon fill="white" stroke="black" points="359,-132.5 359,-151.5 441,-151.5 441,-132.5 359,-132.5"/>
<text text-anchor="middle" x="400" y="-139.5" font-family="Helvetica,sans-Serif" font-size="10.00">CPubKey::size</text>
</a>
</g>
</g>
<!-- Node11&#45;&gt;Node13 -->
<g id="edge13" class="edge"><title>Node11&#45;&gt;Node13</title>
<path fill="none" stroke="midnightblue" d="M266.208,-160.756C291.338,-157.207 322.887,-152.75 348.928,-149.072"/>
<polygon fill="midnightblue" stroke="midnightblue" points="349.567,-152.517 358.979,-147.653 348.588,-145.586 349.567,-152.517"/>
</g>
<!-- Node14 -->
<g id="node14" class="node"><title>Node14</title>
<g id="a_node14"><a xlink:href="class_c_pub_key.html#a7dc71b3f037c84268dc22de97d7b65fb" target="_top" xlink:title="CPubKey::GetLen">
<polygon fill="white" stroke="black" points="531,-132.5 531,-151.5 628,-151.5 628,-132.5 531,-132.5"/>
<text text-anchor="middle" x="579.5" y="-139.5" font-family="Helvetica,sans-Serif" font-size="10.00">CPubKey::GetLen</text>
</a>
</g>
</g>
<!-- Node13&#45;&gt;Node14 -->
<g id="edge14" class="edge"><title>Node13&#45;&gt;Node14</title>
<path fill="none" stroke="midnightblue" d="M441.277,-142C464.755,-142 494.761,-142 520.723,-142"/>
<polygon fill="midnightblue" stroke="midnightblue" points="520.824,-145.5 530.824,-142 520.824,-138.5 520.824,-145.5"/>
</g>
<!-- Node16 -->
<g id="node16" class="node"><title>Node16</title>
<g id="a_node16"><a xlink:href="script_8cpp.html#adc59cf67d903c1ba1ef225561b85bfce" target="_top" xlink:title="IsMine">
<polygon fill="white" stroke="black" points="377,-76.5 377,-95.5 423,-95.5 423,-76.5 377,-76.5"/>
<text text-anchor="middle" x="400" y="-83.5" font-family="Helvetica,sans-Serif" font-size="10.00">IsMine</text>
</a>
</g>
</g>
<!-- Node15&#45;&gt;Node16 -->
<g id="edge16" class="edge"><title>Node15&#45;&gt;Node16</title>
<path fill="none" stroke="midnightblue" d="M287.154,-73.994C314.261,-76.9038 344.515,-80.1514 366.716,-82.5345"/>
<polygon fill="midnightblue" stroke="midnightblue" points="366.602,-86.0423 376.918,-83.6297 367.349,-79.0822 366.602,-86.0423"/>
</g>
<!-- Node18 -->
<g id="node18" class="node"><title>Node18</title>
<g id="a_node18"><a xlink:href="class_c_wallet_d_b.html#a8d4e8d73b977dc62c137bd3543c278bf" target="_top" xlink:title="CWalletDB::WritePurpose">
<polygon fill="white" stroke="black" points="334,-38.5 334,-57.5 466,-57.5 466,-38.5 334,-38.5"/>
<text text-anchor="middle" x="400" y="-45.5" font-family="Helvetica,sans-Serif" font-size="10.00">CWalletDB::WritePurpose</text>
</a>
</g>
</g>
<!-- Node15&#45;&gt;Node18 -->
<g id="edge19" class="edge"><title>Node15&#45;&gt;Node18</title>
<path fill="none" stroke="midnightblue" d="M287.154,-60.006C299.091,-58.7247 311.637,-57.3779 323.838,-56.0683"/>
<polygon fill="midnightblue" stroke="midnightblue" points="324.414,-59.5266 333.984,-54.9792 323.667,-52.5666 324.414,-59.5266"/>
</g>
<!-- Node19 -->
<g id="node19" class="node"><title>Node19</title>
<g id="a_node19"><a xlink:href="class_c_wallet_d_b.html#ad1b3bce77e9dd6ddd8c668a469c38f0a" target="_top" xlink:title="CWalletDB::WriteName">
<polygon fill="white" stroke="black" points="339.5,-0.5 339.5,-19.5 460.5,-19.5 460.5,-0.5 339.5,-0.5"/>
<text text-anchor="middle" x="400" y="-7.5" font-family="Helvetica,sans-Serif" font-size="10.00">CWalletDB::WriteName</text>
</a>
</g>
</g>
<!-- Node15&#45;&gt;Node19 -->
<g id="edge20" class="edge"><title>Node15&#45;&gt;Node19</title>
<path fill="none" stroke="midnightblue" d="M247.835,-57.4778C269.825,-49.497 302.317,-37.9971 331,-29 338.238,-26.7297 345.95,-24.4468 353.484,-22.29"/>
<polygon fill="midnightblue" stroke="midnightblue" points="354.558,-25.6237 363.231,-19.539 352.656,-18.8869 354.558,-25.6237"/>
</g>
<!-- Node16&#45;&gt;Node16 -->
<g id="edge18" class="edge"><title>Node16&#45;&gt;Node16</title>
<path fill="none" stroke="midnightblue" d="M376.894,-93.3134C357.706,-102.72 365.408,-114 400,-114 427.565,-114 438.055,-106.837 431.47,-99.1674"/>
<polygon fill="midnightblue" stroke="midnightblue" points="433.306,-96.18 423.106,-93.3134 429.292,-101.915 433.306,-96.18"/>
</g>
<!-- Node17 -->
<g id="node17" class="node"><title>Node17</title>
<g id="a_node17"><a xlink:href="class_c_script.html#ad1b5a9077241aa06116040c4f1b7c31e" target="_top" xlink:title="CScript::SetDestination">
<polygon fill="white" stroke="black" points="519.5,-76.5 519.5,-95.5 639.5,-95.5 639.5,-76.5 519.5,-76.5"/>
<text text-anchor="middle" x="579.5" y="-83.5" font-family="Helvetica,sans-Serif" font-size="10.00">CScript::SetDestination</text>
</a>
</g>
</g>
<!-- Node16&#45;&gt;Node17 -->
<g id="edge17" class="edge"><title>Node16&#45;&gt;Node17</title>
<path fill="none" stroke="midnightblue" d="M423.122,-86C444.663,-86 478.547,-86 509.182,-86"/>
<polygon fill="midnightblue" stroke="midnightblue" points="509.424,-89.5001 519.424,-86 509.424,-82.5001 509.424,-89.5001"/>
</g>
</g>
</svg>
