<?xml version="1.0" encoding="UTF-8" standalone="no"?>
<!DOCTYPE svg PUBLIC "-//W3C//DTD SVG 1.1//EN"
 "http://www.w3.org/Graphics/SVG/1.1/DTD/svg11.dtd">
<!-- Generated by graphviz version 2.38.0 (20140413.2041)
 -->
<!-- Title: Intro Pages: 1 -->
<svg width="132pt" height="152pt"
 viewBox="0.00 0.00 131.50 152.00" xmlns="http://www.w3.org/2000/svg" xmlns:xlink="http://www.w3.org/1999/xlink">
<g id="graph0" class="graph" transform="scale(1 1) rotate(0) translate(4 148)">
<title>Intro</title>
<polygon fill="white" stroke="none" points="-4,4 -4,-148 127.5,-148 127.5,4 -4,4"/>
<!-- Node1 -->
<g id="node1" class="node"><title>Node1</title>
<polygon fill="#bfbfbf" stroke="black" points="34,-0.5 34,-19.5 71,-19.5 71,-0.5 34,-0.5"/>
<text text-anchor="middle" x="52.5" y="-7.5" font-family="Helvetica,sans-Serif" font-size="10.00">Intro</text>
</g>
<!-- Node2 -->
<g id="node2" class="node"><title>Node2</title>
<polygon fill="white" stroke="#bfbfbf" points="0,-67.5 0,-86.5 53,-86.5 53,-67.5 0,-67.5"/>
<text text-anchor="middle" x="26.5" y="-74.5" font-family="Helvetica,sans-Serif" font-size="10.00">QDialog</text>
</g>
<!-- Node2&#45;&gt;Node1 -->
<g id="edge1" class="edge"><title>Node2&#45;&gt;Node1</title>
<path fill="none" stroke="midnightblue" d="M33.784,-57.79C38.777,-45.3076 45.1746,-29.3135 49.0491,-19.6273"/>
<polygon fill="midnightblue" stroke="midnightblue" points="30.4708,-56.6491 30.0065,-67.2338 36.9701,-59.2489 30.4708,-56.6491"/>
</g>
<!-- Node3 -->
<g id="node3" class="node"><title>Node3</title>
<g id="a_node3"><a xlink:href="class_ui_1_1_intro.html" target="_top" xlink:title="Ui::Intro">
<polygon fill="white" stroke="black" points="71.5,-67.5 71.5,-86.5 123.5,-86.5 123.5,-67.5 71.5,-67.5"/>
<text text-anchor="middle" x="97.5" y="-74.5" font-family="Helvetica,sans-Serif" font-size="10.00">Ui::Intro</text>
</a>
</g>
</g>
<!-- Node3&#45;&gt;Node1 -->
<g id="edge2" class="edge"><title>Node3&#45;&gt;Node1</title>
<path fill="none" stroke="#9a32cd" stroke-dasharray="5,2" d="M85.6641,-58.9037C76.9197,-46.2729 65.3798,-29.6041 58.4727,-19.6273"/>
<polygon fill="#9a32cd" stroke="#9a32cd" points="82.8613,-61.0041 91.4311,-67.2338 88.6166,-57.0196 82.8613,-61.0041"/>
<text text-anchor="middle" x="83" y="-41" font-family="Helvetica,sans-Serif" font-size="10.00"> ui</text>
</g>
<!-- Node4 -->
<g id="node4" class="node"><title>Node4</title>
<g id="a_node4"><a xlink:href="class_ui___intro.html" target="_top" xlink:title="Ui_Intro">
<polygon fill="white" stroke="black" points="71.5,-124.5 71.5,-143.5 123.5,-143.5 123.5,-124.5 71.5,-124.5"/>
<text text-anchor="middle" x="97.5" y="-131.5" font-family="Helvetica,sans-Serif" font-size="10.00">Ui_Intro</text>
</a>
</g>
</g>
<!-- Node4&#45;&gt;Node3 -->
<g id="edge3" class="edge"><title>Node4&#45;&gt;Node3</title>
<path fill="none" stroke="midnightblue" d="M97.5,-114.117C97.5,-104.817 97.5,-94.0557 97.5,-86.7149"/>
<polygon fill="midnightblue" stroke="midnightblue" points="94.0001,-114.406 97.5,-124.406 101,-114.406 94.0001,-114.406"/>
</g>
</g>
</svg>
