<?xml version="1.0" encoding="UTF-8" standalone="no"?>
<!DOCTYPE svg PUBLIC "-//W3C//DTD SVG 1.1//EN"
 "http://www.w3.org/Graphics/SVG/1.1/DTD/svg11.dtd">
<!-- Generated by graphviz version 2.38.0 (20140413.2041)
 -->
<!-- Title: CMessageHeader::GetCommand Pages: 1 -->
<svg width="965pt" height="104pt"
 viewBox="0.00 0.00 965.00 104.00" xmlns="http://www.w3.org/2000/svg" xmlns:xlink="http://www.w3.org/1999/xlink">
<g id="graph0" class="graph" transform="scale(1 1) rotate(0) translate(4 100)">
<title>CMessageHeader::GetCommand</title>
<polygon fill="white" stroke="none" points="-4,4 -4,-100 961,-100 961,4 -4,4"/>
<!-- Node1 -->
<g id="node1" class="node"><title>Node1</title>
<polygon fill="#bfbfbf" stroke="black" points="0,-38.5 0,-57.5 165,-57.5 165,-38.5 0,-38.5"/>
<text text-anchor="middle" x="82.5" y="-45.5" font-family="Helvetica,sans-Serif" font-size="10.00">CMessageHeader::GetCommand</text>
</g>
<!-- Node2 -->
<g id="node2" class="node"><title>Node2</title>
<g id="a_node2"><a xlink:href="main_8h.html#a196f9318f02448b85b28d612698934fd" target="_top" xlink:title="Process protocol messages received from a given node. ">
<polygon fill="white" stroke="black" points="370,-38.5 370,-57.5 468,-57.5 468,-38.5 370,-38.5"/>
<text text-anchor="middle" x="419" y="-45.5" font-family="Helvetica,sans-Serif" font-size="10.00">ProcessMessages</text>
</a>
</g>
</g>
<!-- Node1&#45;&gt;Node2 -->
<g id="edge1" class="edge"><title>Node1&#45;&gt;Node2</title>
<path fill="none" stroke="midnightblue" d="M175.638,-48C238.415,-48 319.011,-48 369.597,-48"/>
<polygon fill="midnightblue" stroke="midnightblue" points="175.328,-44.5001 165.328,-48 175.328,-51.5001 175.328,-44.5001"/>
</g>
<!-- Node11 -->
<g id="node11" class="node"><title>Node11</title>
<g id="a_node11"><a xlink:href="class_c_message_header.html#a21f5760d034d4a040b00d6c34e927be0" target="_top" xlink:title="CMessageHeader::IsValid">
<polygon fill="white" stroke="black" points="201,-19.5 201,-38.5 334,-38.5 334,-19.5 201,-19.5"/>
<text text-anchor="middle" x="267.5" y="-26.5" font-family="Helvetica,sans-Serif" font-size="10.00">CMessageHeader::IsValid</text>
</a>
</g>
</g>
<!-- Node1&#45;&gt;Node11 -->
<g id="edge11" class="edge"><title>Node1&#45;&gt;Node11</title>
<path fill="none" stroke="midnightblue" d="M175.268,-38.4722C183.945,-37.5713 192.618,-36.6708 200.977,-35.8029"/>
<polygon fill="midnightblue" stroke="midnightblue" points="174.684,-35.0139 165.099,-39.528 175.407,-41.9765 174.684,-35.0139"/>
</g>
<!-- Node3 -->
<g id="node3" class="node"><title>Node3</title>
<g id="a_node3"><a xlink:href="main_8h.html#ab02615ff65f91d69f8d786ec900baa8a" target="_top" xlink:title="Register with a network node to receive its signals. ">
<polygon fill="white" stroke="black" points="508.5,-57.5 508.5,-76.5 618.5,-76.5 618.5,-57.5 508.5,-57.5"/>
<text text-anchor="middle" x="563.5" y="-64.5" font-family="Helvetica,sans-Serif" font-size="10.00">RegisterNodeSignals</text>
</a>
</g>
</g>
<!-- Node2&#45;&gt;Node3 -->
<g id="edge2" class="edge"><title>Node2&#45;&gt;Node3</title>
<path fill="none" stroke="midnightblue" d="M478.428,-55.7903C488.351,-57.1135 498.618,-58.4824 508.424,-59.7898"/>
<polygon fill="midnightblue" stroke="midnightblue" points="478.619,-52.285 468.244,-54.4325 477.694,-59.2236 478.619,-52.285"/>
</g>
<!-- Node8 -->
<g id="node8" class="node"><title>Node8</title>
<g id="a_node8"><a xlink:href="main_8h.html#a3ef0cc6e9d9d6435ee2a5569244d6ebd" target="_top" xlink:title="Unregister a network node. ">
<polygon fill="white" stroke="black" points="504,-19.5 504,-38.5 623,-38.5 623,-19.5 504,-19.5"/>
<text text-anchor="middle" x="563.5" y="-26.5" font-family="Helvetica,sans-Serif" font-size="10.00">UnregisterNodeSignals</text>
</a>
</g>
</g>
<!-- Node2&#45;&gt;Node8 -->
<g id="edge7" class="edge"><title>Node2&#45;&gt;Node8</title>
<path fill="none" stroke="midnightblue" d="M478.377,-40.2164C486.812,-39.0917 495.497,-37.9338 503.936,-36.8086"/>
<polygon fill="midnightblue" stroke="midnightblue" points="477.694,-36.7764 468.244,-41.5675 478.619,-43.715 477.694,-36.7764"/>
</g>
<!-- Node4 -->
<g id="node4" class="node"><title>Node4</title>
<g id="a_node4"><a xlink:href="init_8h.html#a1a4c1bfbf6ba1db77e988b89b9cadfd3" target="_top" xlink:title="Initialize anoncoin. ">
<polygon fill="white" stroke="black" points="663,-57.5 663,-76.5 716,-76.5 716,-57.5 663,-57.5"/>
<text text-anchor="middle" x="689.5" y="-64.5" font-family="Helvetica,sans-Serif" font-size="10.00">AppInit2</text>
</a>
</g>
</g>
<!-- Node3&#45;&gt;Node4 -->
<g id="edge3" class="edge"><title>Node3&#45;&gt;Node4</title>
<path fill="none" stroke="midnightblue" d="M628.69,-67C640.806,-67 652.811,-67 662.849,-67"/>
<polygon fill="midnightblue" stroke="midnightblue" points="628.528,-63.5001 618.527,-67 628.527,-70.5001 628.528,-63.5001"/>
</g>
<!-- Node5 -->
<g id="node5" class="node"><title>Node5</title>
<g id="a_node5"><a xlink:href="anoncoind_8cpp.html#ac59316b767e6984e1285f0531275286b" target="_top" xlink:title="AppInit">
<polygon fill="white" stroke="black" points="795.5,-38.5 795.5,-57.5 843.5,-57.5 843.5,-38.5 795.5,-38.5"/>
<text text-anchor="middle" x="819.5" y="-45.5" font-family="Helvetica,sans-Serif" font-size="10.00">AppInit</text>
</a>
</g>
</g>
<!-- Node4&#45;&gt;Node5 -->
<g id="edge4" class="edge"><title>Node4&#45;&gt;Node5</title>
<path fill="none" stroke="midnightblue" d="M726.087,-61.7176C748.128,-58.4459 775.81,-54.3368 795.104,-51.4728"/>
<polygon fill="midnightblue" stroke="midnightblue" points="725.473,-58.2703 716.095,-63.2007 726.501,-65.1944 725.473,-58.2703"/>
</g>
<!-- Node7 -->
<g id="node7" class="node"><title>Node7</title>
<g id="a_node7"><a xlink:href="class_anoncoin_coin.html#a9510881824d283404ac43414dbb74586" target="_top" xlink:title="AnoncoinCoin::initialize">
<polygon fill="white" stroke="black" points="759.5,-76.5 759.5,-95.5 879.5,-95.5 879.5,-76.5 759.5,-76.5"/>
<text text-anchor="middle" x="819.5" y="-83.5" font-family="Helvetica,sans-Serif" font-size="10.00">AnoncoinCoin::initialize</text>
</a>
</g>
</g>
<!-- Node4&#45;&gt;Node7 -->
<g id="edge6" class="edge"><title>Node4&#45;&gt;Node7</title>
<path fill="none" stroke="midnightblue" d="M726.301,-72.3142C736.572,-73.8388 748.054,-75.5432 759.335,-77.2177"/>
<polygon fill="midnightblue" stroke="midnightblue" points="726.501,-68.8056 716.095,-70.7993 725.473,-75.7297 726.501,-68.8056"/>
</g>
<!-- Node6 -->
<g id="node6" class="node"><title>Node6</title>
<g id="a_node6"><a xlink:href="anoncoind_8cpp.html#a0ddf1224851353fc92bfbff6f499fa97" target="_top" xlink:title="main">
<polygon fill="white" stroke="black" points="919,-38.5 919,-57.5 957,-57.5 957,-38.5 919,-38.5"/>
<text text-anchor="middle" x="938" y="-45.5" font-family="Helvetica,sans-Serif" font-size="10.00">main</text>
</a>
</g>
</g>
<!-- Node5&#45;&gt;Node6 -->
<g id="edge5" class="edge"><title>Node5&#45;&gt;Node6</title>
<path fill="none" stroke="midnightblue" d="M853.731,-48C874.947,-48 901.631,-48 918.99,-48"/>
<polygon fill="midnightblue" stroke="midnightblue" points="853.517,-44.5001 843.517,-48 853.517,-51.5001 853.517,-44.5001"/>
</g>
<!-- Node9 -->
<g id="node9" class="node"><title>Node9</title>
<g id="a_node9"><a xlink:href="init_8h.html#ac5f038c2b480cf9ef5e19e3eba8dbaf9" target="_top" xlink:title="Shutdown">
<polygon fill="white" stroke="black" points="659,-19.5 659,-38.5 720,-38.5 720,-19.5 659,-19.5"/>
<text text-anchor="middle" x="689.5" y="-26.5" font-family="Helvetica,sans-Serif" font-size="10.00">Shutdown</text>
</a>
</g>
</g>
<!-- Node8&#45;&gt;Node9 -->
<g id="edge8" class="edge"><title>Node8&#45;&gt;Node9</title>
<path fill="none" stroke="midnightblue" d="M633.398,-29C642.364,-29 651.136,-29 658.95,-29"/>
<polygon fill="midnightblue" stroke="midnightblue" points="633.232,-25.5001 623.232,-29 633.232,-32.5001 633.232,-25.5001"/>
</g>
<!-- Node9&#45;&gt;Node5 -->
<g id="edge9" class="edge"><title>Node9&#45;&gt;Node5</title>
<path fill="none" stroke="midnightblue" d="M730.288,-34.906C751.659,-38.0783 777.255,-41.8777 795.357,-44.5647"/>
<polygon fill="midnightblue" stroke="midnightblue" points="730.593,-31.413 720.188,-33.4067 729.565,-38.3372 730.593,-31.413"/>
</g>
<!-- Node10 -->
<g id="node10" class="node"><title>Node10</title>
<g id="a_node10"><a xlink:href="class_anoncoin_coin.html#ac33fbca9335d356d9d6102a0122f2a5b" target="_top" xlink:title="AnoncoinCoin::shutdown">
<polygon fill="white" stroke="black" points="756,-0.5 756,-19.5 883,-19.5 883,-0.5 756,-0.5"/>
<text text-anchor="middle" x="819.5" y="-7.5" font-family="Helvetica,sans-Serif" font-size="10.00">AnoncoinCoin::shutdown</text>
</a>
</g>
</g>
<!-- Node9&#45;&gt;Node10 -->
<g id="edge10" class="edge"><title>Node9&#45;&gt;Node10</title>
<path fill="none" stroke="midnightblue" d="M730.157,-23.1135C738.329,-21.9004 747.123,-20.595 755.883,-19.2948"/>
<polygon fill="midnightblue" stroke="midnightblue" points="729.565,-19.6628 720.188,-24.5933 730.593,-26.587 729.565,-19.6628"/>
</g>
<!-- Node11&#45;&gt;Node2 -->
<g id="edge12" class="edge"><title>Node11&#45;&gt;Node2</title>
<path fill="none" stroke="midnightblue" d="M344.182,-38.6185C352.811,-39.7151 361.423,-40.8096 369.558,-41.8435"/>
<polygon fill="midnightblue" stroke="midnightblue" points="344.434,-35.1225 334.073,-37.3337 343.552,-42.0666 344.434,-35.1225"/>
</g>
</g>
</svg>
