<?xml version="1.0" encoding="UTF-8" standalone="no"?>
<!DOCTYPE svg PUBLIC "-//W3C//DTD SVG 1.1//EN"
 "http://www.w3.org/Graphics/SVG/1.1/DTD/svg11.dtd">
<!-- Generated by graphviz version 2.38.0 (20140413.2041)
 -->
<!-- Title: CCoinsViewCache::HaveCoins Pages: 1 -->
<svg width="1446pt" height="300pt"
 viewBox="0.00 0.00 1446.00 299.50" xmlns="http://www.w3.org/2000/svg" xmlns:xlink="http://www.w3.org/1999/xlink">
<g id="graph0" class="graph" transform="scale(1 1) rotate(0) translate(4 295.5)">
<title>CCoinsViewCache::HaveCoins</title>
<polygon fill="white" stroke="none" points="-4,4 -4,-295.5 1442,-295.5 1442,4 -4,4"/>
<!-- Node1 -->
<g id="node1" class="node"><title>Node1</title>
<polygon fill="#bfbfbf" stroke="black" points="0,-76.5 0,-95.5 154,-95.5 154,-76.5 0,-76.5"/>
<text text-anchor="middle" x="77" y="-83.5" font-family="Helvetica,sans-Serif" font-size="10.00">CCoinsViewCache::HaveCoins</text>
</g>
<!-- Node2 -->
<g id="node2" class="node"><title>Node2</title>
<g id="a_node2"><a xlink:href="class_c_coins_view_cache.html#a9107d0dd2cf79ba93a58e676aa412d3a" target="_top" xlink:title="CCoinsViewCache::HaveInputs">
<polygon fill="white" stroke="black" points="190,-152.5 190,-171.5 346,-171.5 346,-152.5 190,-152.5"/>
<text text-anchor="middle" x="268" y="-159.5" font-family="Helvetica,sans-Serif" font-size="10.00">CCoinsViewCache::HaveInputs</text>
</a>
</g>
</g>
<!-- Node1&#45;&gt;Node2 -->
<g id="edge1" class="edge"><title>Node1&#45;&gt;Node2</title>
<path fill="none" stroke="midnightblue" d="M111.501,-99.4715C149.349,-114.691 209.991,-139.076 243.257,-152.453"/>
<polygon fill="midnightblue" stroke="midnightblue" points="112.521,-96.109 101.937,-95.6255 109.909,-102.604 112.521,-96.109"/>
</g>
<!-- Node3 -->
<g id="node3" class="node"><title>Node3</title>
<g id="a_node3"><a xlink:href="main_8h.html#a1032f75235456abfa96b63e34e7ee2cc" target="_top" xlink:title="(try to) add transaction to memory pool ">
<polygon fill="white" stroke="black" points="508,-228.5 508,-247.5 623,-247.5 623,-228.5 508,-228.5"/>
<text text-anchor="middle" x="565.5" y="-235.5" font-family="Helvetica,sans-Serif" font-size="10.00">AcceptToMemoryPool</text>
</a>
</g>
</g>
<!-- Node1&#45;&gt;Node3 -->
<g id="edge26" class="edge"><title>Node1&#45;&gt;Node3</title>
<path fill="none" stroke="midnightblue" d="M93.5308,-102.808C113.833,-123.86 151.377,-159.741 190,-181 268.322,-224.111 293.62,-227.512 382,-241 421.542,-247.035 432.005,-241.648 472,-241 483.567,-240.812 495.945,-240.493 507.762,-240.131"/>
<polygon fill="midnightblue" stroke="midnightblue" points="96.0479,-100.376 86.6276,-95.5274 90.9681,-105.192 96.0479,-100.376"/>
</g>
<!-- Node17 -->
<g id="node17" class="node"><title>Node17</title>
<g id="a_node17"><a xlink:href="main_8h.html#ae478a2e37bd5c3ac735f30cc12cc7f8b" target="_top" xlink:title="ConnectBlock">
<polygon fill="white" stroke="black" points="526.5,-114.5 526.5,-133.5 604.5,-133.5 604.5,-114.5 526.5,-114.5"/>
<text text-anchor="middle" x="565.5" y="-121.5" font-family="Helvetica,sans-Serif" font-size="10.00">ConnectBlock</text>
</a>
</g>
</g>
<!-- Node1&#45;&gt;Node17 -->
<g id="edge29" class="edge"><title>Node1&#45;&gt;Node17</title>
<path fill="none" stroke="midnightblue" d="M164.132,-92.7277C271.005,-101.075 448.606,-114.948 526.224,-121.01"/>
<polygon fill="midnightblue" stroke="midnightblue" points="164.258,-89.2269 154.016,-91.9375 163.713,-96.2057 164.258,-89.2269"/>
</g>
<!-- Node20 -->
<g id="node20" class="node"><title>Node20</title>
<g id="a_node20"><a xlink:href="miner_8h.html#af441d1c1899839f4e3cc0ee1367914a5" target="_top" xlink:title="Generate a new block, without valid proof&#45;of&#45;work. ">
<polygon fill="white" stroke="black" points="698,-152.5 698,-171.5 789,-171.5 789,-152.5 698,-152.5"/>
<text text-anchor="middle" x="743.5" y="-159.5" font-family="Helvetica,sans-Serif" font-size="10.00">CreateNewBlock</text>
</a>
</g>
</g>
<!-- Node1&#45;&gt;Node20 -->
<g id="edge30" class="edge"><title>Node1&#45;&gt;Node20</title>
<path fill="none" stroke="midnightblue" d="M164.329,-77.2891C273.276,-68.9392 465.462,-63.0519 623,-105 640.483,-109.655 642.76,-116.027 659,-124 679.588,-134.107 703.434,-144.867 720.359,-152.348"/>
<polygon fill="midnightblue" stroke="midnightblue" points="163.742,-73.8246 154.049,-78.1033 164.295,-80.8027 163.742,-73.8246"/>
</g>
<!-- Node22 -->
<g id="node22" class="node"><title>Node22</title>
<g id="a_node22"><a xlink:href="main_8h.html#aa7213dfc13e3b470a5690b0b86c951c6" target="_top" xlink:title="Functions for validating blocks and updating the block tree. ">
<polygon fill="white" stroke="black" points="382,-0.5 382,-19.5 472,-19.5 472,-0.5 382,-0.5"/>
<text text-anchor="middle" x="427" y="-7.5" font-family="Helvetica,sans-Serif" font-size="10.00">DisconnectBlock</text>
</a>
</g>
</g>
<!-- Node1&#45;&gt;Node22 -->
<g id="edge27" class="edge"><title>Node1&#45;&gt;Node22</title>
<path fill="none" stroke="midnightblue" d="M102.768,-71.5592C124.874,-59.3982 158.526,-42.6433 190,-34 255.13,-16.1144 333.667,-11.2951 381.703,-10.1412"/>
<polygon fill="midnightblue" stroke="midnightblue" points="101.051,-68.5091 94.0404,-76.4527 104.475,-74.6148 101.051,-68.5091"/>
</g>
<!-- Node2&#45;&gt;Node3 -->
<g id="edge2" class="edge"><title>Node2&#45;&gt;Node3</title>
<path fill="none" stroke="midnightblue" d="M292.307,-176.944C314.455,-190.354 349.163,-209.363 382,-219 423.112,-231.065 471.4,-235.697 507.976,-237.376"/>
<polygon fill="midnightblue" stroke="midnightblue" points="293.974,-173.859 283.627,-171.583 290.296,-179.815 293.974,-173.859"/>
</g>
<!-- Node16 -->
<g id="node16" class="node"><title>Node16</title>
<g id="a_node16"><a xlink:href="main_8h.html#ad6c3cc142639d843f2475501fc20d75b" target="_top" xlink:title="CheckInputs">
<polygon fill="white" stroke="black" points="391,-190.5 391,-209.5 463,-209.5 463,-190.5 391,-190.5"/>
<text text-anchor="middle" x="427" y="-197.5" font-family="Helvetica,sans-Serif" font-size="10.00">CheckInputs</text>
</a>
</g>
</g>
<!-- Node2&#45;&gt;Node16 -->
<g id="edge15" class="edge"><title>Node2&#45;&gt;Node16</title>
<path fill="none" stroke="midnightblue" d="M318.431,-173.964C341.979,-179.664 369.591,-186.347 390.943,-191.515"/>
<polygon fill="midnightblue" stroke="midnightblue" points="319.16,-170.54 308.618,-171.589 317.514,-177.343 319.16,-170.54"/>
</g>
<!-- Node2&#45;&gt;Node17 -->
<g id="edge24" class="edge"><title>Node2&#45;&gt;Node17</title>
<path fill="none" stroke="midnightblue" d="M353.28,-151.162C410.307,-143.829 482.91,-134.492 526.439,-128.895"/>
<polygon fill="midnightblue" stroke="midnightblue" points="352.658,-147.713 343.186,-152.46 353.55,-154.656 352.658,-147.713"/>
</g>
<!-- Node2&#45;&gt;Node20 -->
<g id="edge25" class="edge"><title>Node2&#45;&gt;Node20</title>
<path fill="none" stroke="midnightblue" d="M356.317,-162C457.363,-162 619.837,-162 697.86,-162"/>
<polygon fill="midnightblue" stroke="midnightblue" points="356.13,-158.5 346.13,-162 356.13,-165.5 356.13,-158.5"/>
</g>
<!-- Node4 -->
<g id="node4" class="node"><title>Node4</title>
<g id="a_node4"><a xlink:href="class_c_merkle_tx.html#a032705bde1c536cd1b14f01f914e12f0" target="_top" xlink:title="CMerkleTx::AcceptToMemoryPool">
<polygon fill="white" stroke="black" points="659,-228.5 659,-247.5 828,-247.5 828,-228.5 659,-228.5"/>
<text text-anchor="middle" x="743.5" y="-235.5" font-family="Helvetica,sans-Serif" font-size="10.00">CMerkleTx::AcceptToMemoryPool</text>
</a>
</g>
</g>
<!-- Node3&#45;&gt;Node4 -->
<g id="edge3" class="edge"><title>Node3&#45;&gt;Node4</title>
<path fill="none" stroke="midnightblue" d="M633.182,-238C641.531,-238 650.151,-238 658.718,-238"/>
<polygon fill="midnightblue" stroke="midnightblue" points="633.156,-234.5 623.156,-238 633.156,-241.5 633.156,-234.5"/>
</g>
<!-- Node15 -->
<g id="node15" class="node"><title>Node15</title>
<g id="a_node15"><a xlink:href="rpcrawtransaction_8cpp.html#ad5aad44f890060f42efb49acf349511e" target="_top" xlink:title="sendrawtransaction">
<polygon fill="white" stroke="black" points="692,-190.5 692,-209.5 795,-209.5 795,-190.5 692,-190.5"/>
<text text-anchor="middle" x="743.5" y="-197.5" font-family="Helvetica,sans-Serif" font-size="10.00">sendrawtransaction</text>
</a>
</g>
</g>
<!-- Node3&#45;&gt;Node15 -->
<g id="edge14" class="edge"><title>Node3&#45;&gt;Node15</title>
<path fill="none" stroke="midnightblue" d="M620.933,-226.247C645.819,-220.874 674.919,-214.591 698.407,-209.52"/>
<polygon fill="midnightblue" stroke="midnightblue" points="619.948,-222.879 610.912,-228.411 621.426,-229.722 619.948,-222.879"/>
</g>
<!-- Node5 -->
<g id="node5" class="node"><title>Node5</title>
<g id="a_node5"><a xlink:href="class_c_wallet.html#a796c23450c8482e10e0c75ae5c1fa8ed" target="_top" xlink:title="CWallet::ReacceptWalletTransactions">
<polygon fill="white" stroke="black" points="864,-190.5 864,-209.5 1048,-209.5 1048,-190.5 864,-190.5"/>
<text text-anchor="middle" x="956" y="-197.5" font-family="Helvetica,sans-Serif" font-size="10.00">CWallet::ReacceptWalletTransactions</text>
</a>
</g>
</g>
<!-- Node4&#45;&gt;Node5 -->
<g id="edge4" class="edge"><title>Node4&#45;&gt;Node5</title>
<path fill="none" stroke="midnightblue" d="M807.356,-226.653C837.558,-221.201 873.352,-214.739 902.132,-209.544"/>
<polygon fill="midnightblue" stroke="midnightblue" points="806.565,-223.239 797.346,-228.46 807.809,-230.128 806.565,-223.239"/>
</g>
<!-- Node11 -->
<g id="node11" class="node"><title>Node11</title>
<g id="a_node11"><a xlink:href="class_c_wallet.html#ac30e619488120651a6753195b77f3ad8" target="_top" xlink:title="CWallet::CommitTransaction">
<polygon fill="white" stroke="black" points="884,-228.5 884,-247.5 1028,-247.5 1028,-228.5 884,-228.5"/>
<text text-anchor="middle" x="956" y="-235.5" font-family="Helvetica,sans-Serif" font-size="10.00">CWallet::CommitTransaction</text>
</a>
</g>
</g>
<!-- Node4&#45;&gt;Node11 -->
<g id="edge10" class="edge"><title>Node4&#45;&gt;Node11</title>
<path fill="none" stroke="midnightblue" d="M838.699,-238C853.813,-238 869.234,-238 883.698,-238"/>
<polygon fill="midnightblue" stroke="midnightblue" points="838.3,-234.5 828.3,-238 838.3,-241.5 838.3,-234.5"/>
</g>
<!-- Node6 -->
<g id="node6" class="node"><title>Node6</title>
<g id="a_node6"><a xlink:href="init_8h.html#a1a4c1bfbf6ba1db77e988b89b9cadfd3" target="_top" xlink:title="Initialize anoncoin. ">
<polygon fill="white" stroke="black" points="1119.5,-114.5 1119.5,-133.5 1172.5,-133.5 1172.5,-114.5 1119.5,-114.5"/>
<text text-anchor="middle" x="1146" y="-121.5" font-family="Helvetica,sans-Serif" font-size="10.00">AppInit2</text>
</a>
</g>
</g>
<!-- Node5&#45;&gt;Node6 -->
<g id="edge5" class="edge"><title>Node5&#45;&gt;Node6</title>
<path fill="none" stroke="midnightblue" d="M1026.31,-188.005C1033.73,-185.99 1041.09,-183.668 1048,-181 1080.07,-168.615 1113.89,-146.318 1131.9,-133.592"/>
<polygon fill="midnightblue" stroke="midnightblue" points="1025.39,-184.629 1016.55,-190.479 1027.11,-191.415 1025.39,-184.629"/>
</g>
<!-- Node10 -->
<g id="node10" class="node"><title>Node10</title>
<g id="a_node10"><a xlink:href="rpcdump_8cpp.html#a457bc572859c8265c72a0afd1a6db56c" target="_top" xlink:title="importaddress">
<polygon fill="white" stroke="black" points="1106,-190.5 1106,-209.5 1186,-209.5 1186,-190.5 1106,-190.5"/>
<text text-anchor="middle" x="1146" y="-197.5" font-family="Helvetica,sans-Serif" font-size="10.00">importaddress</text>
</a>
</g>
</g>
<!-- Node5&#45;&gt;Node10 -->
<g id="edge9" class="edge"><title>Node5&#45;&gt;Node10</title>
<path fill="none" stroke="midnightblue" d="M1058.66,-200C1075.35,-200 1091.72,-200 1105.64,-200"/>
<polygon fill="midnightblue" stroke="midnightblue" points="1058.25,-196.5 1048.25,-200 1058.25,-203.5 1058.25,-196.5"/>
</g>
<!-- Node7 -->
<g id="node7" class="node"><title>Node7</title>
<g id="a_node7"><a xlink:href="anoncoind_8cpp.html#ac59316b767e6984e1285f0531275286b" target="_top" xlink:title="AppInit">
<polygon fill="white" stroke="black" points="1280,-133.5 1280,-152.5 1328,-152.5 1328,-133.5 1280,-133.5"/>
<text text-anchor="middle" x="1304" y="-140.5" font-family="Helvetica,sans-Serif" font-size="10.00">AppInit</text>
</a>
</g>
</g>
<!-- Node6&#45;&gt;Node7 -->
<g id="edge6" class="edge"><title>Node6&#45;&gt;Node7</title>
<path fill="none" stroke="midnightblue" d="M1182.76,-128.356C1212.55,-131.984 1254.11,-137.046 1279.75,-140.168"/>
<polygon fill="midnightblue" stroke="midnightblue" points="1183.11,-124.872 1172.76,-127.137 1182.26,-131.821 1183.11,-124.872"/>
</g>
<!-- Node9 -->
<g id="node9" class="node"><title>Node9</title>
<g id="a_node9"><a xlink:href="class_anoncoin_coin.html#a9510881824d283404ac43414dbb74586" target="_top" xlink:title="AnoncoinCoin::initialize">
<polygon fill="white" stroke="black" points="1244,-95.5 1244,-114.5 1364,-114.5 1364,-95.5 1244,-95.5"/>
<text text-anchor="middle" x="1304" y="-102.5" font-family="Helvetica,sans-Serif" font-size="10.00">AnoncoinCoin::initialize</text>
</a>
</g>
</g>
<!-- Node6&#45;&gt;Node9 -->
<g id="edge8" class="edge"><title>Node6&#45;&gt;Node9</title>
<path fill="none" stroke="midnightblue" d="M1182.85,-119.634C1200.91,-117.434 1223.28,-114.709 1243.8,-112.21"/>
<polygon fill="midnightblue" stroke="midnightblue" points="1182.26,-116.179 1172.76,-120.863 1183.11,-123.128 1182.26,-116.179"/>
</g>
<!-- Node8 -->
<g id="node8" class="node"><title>Node8</title>
<g id="a_node8"><a xlink:href="anoncoind_8cpp.html#a0ddf1224851353fc92bfbff6f499fa97" target="_top" xlink:title="main">
<polygon fill="white" stroke="black" points="1400,-133.5 1400,-152.5 1438,-152.5 1438,-133.5 1400,-133.5"/>
<text text-anchor="middle" x="1419" y="-140.5" font-family="Helvetica,sans-Serif" font-size="10.00">main</text>
</a>
</g>
</g>
<!-- Node7&#45;&gt;Node8 -->
<g id="edge7" class="edge"><title>Node7&#45;&gt;Node8</title>
<path fill="none" stroke="midnightblue" d="M1338.15,-143C1358.25,-143 1383.13,-143 1399.73,-143"/>
<polygon fill="midnightblue" stroke="midnightblue" points="1338.14,-139.5 1328.14,-143 1338.14,-146.5 1338.14,-139.5"/>
</g>
<!-- Node12 -->
<g id="node12" class="node"><title>Node12</title>
<g id="a_node12"><a xlink:href="class_wallet_model.html#a53443aca544c824550f21e5f87e4ec39" target="_top" xlink:title="WalletModel::sendCoins">
<polygon fill="white" stroke="black" points="1084,-266.5 1084,-285.5 1208,-285.5 1208,-266.5 1084,-266.5"/>
<text text-anchor="middle" x="1146" y="-273.5" font-family="Helvetica,sans-Serif" font-size="10.00">WalletModel::sendCoins</text>
</a>
</g>
</g>
<!-- Node11&#45;&gt;Node12 -->
<g id="edge11" class="edge"><title>Node11&#45;&gt;Node12</title>
<path fill="none" stroke="midnightblue" d="M1014.44,-249.61C1041.17,-255.014 1072.59,-261.364 1097.9,-266.48"/>
<polygon fill="midnightblue" stroke="midnightblue" points="1014.94,-246.14 1004.44,-247.589 1013.55,-253.001 1014.94,-246.14"/>
</g>
<!-- Node14 -->
<g id="node14" class="node"><title>Node14</title>
<g id="a_node14"><a xlink:href="rpcwallet_8cpp.html#adeb5f23f20fb4e589dab23cadf75c92d" target="_top" xlink:title="sendmany">
<polygon fill="white" stroke="black" points="1114.5,-228.5 1114.5,-247.5 1177.5,-247.5 1177.5,-228.5 1114.5,-228.5"/>
<text text-anchor="middle" x="1146" y="-235.5" font-family="Helvetica,sans-Serif" font-size="10.00">sendmany</text>
</a>
</g>
</g>
<!-- Node11&#45;&gt;Node14 -->
<g id="edge13" class="edge"><title>Node11&#45;&gt;Node14</title>
<path fill="none" stroke="midnightblue" d="M1038.29,-238C1065.17,-238 1093.46,-238 1114.15,-238"/>
<polygon fill="midnightblue" stroke="midnightblue" points="1038.07,-234.5 1028.07,-238 1038.07,-241.5 1038.07,-234.5"/>
</g>
<!-- Node13 -->
<g id="node13" class="node"><title>Node13</title>
<g id="a_node13"><a xlink:href="class_send_coins_dialog.html#a2cab7cf9ea5040b9e2189297f7d3c764" target="_top" xlink:title="SendCoinsDialog::on\l_sendButton_clicked">
<polygon fill="white" stroke="black" points="1249,-261 1249,-291 1359,-291 1359,-261 1249,-261"/>
<text text-anchor="start" x="1257" y="-279" font-family="Helvetica,sans-Serif" font-size="10.00">SendCoinsDialog::on</text>
<text text-anchor="middle" x="1304" y="-268" font-family="Helvetica,sans-Serif" font-size="10.00">_sendButton_clicked</text>
</a>
</g>
</g>
<!-- Node12&#45;&gt;Node13 -->
<g id="edge12" class="edge"><title>Node12&#45;&gt;Node13</title>
<path fill="none" stroke="midnightblue" d="M1218.36,-276C1228.6,-276 1238.98,-276 1248.81,-276"/>
<polygon fill="midnightblue" stroke="midnightblue" points="1218.21,-272.5 1208.21,-276 1218.21,-279.5 1218.21,-272.5"/>
</g>
<!-- Node16&#45;&gt;Node3 -->
<g id="edge16" class="edge"><title>Node16&#45;&gt;Node3</title>
<path fill="none" stroke="midnightblue" d="M472.249,-212.318C491.003,-217.539 512.528,-223.532 530.066,-228.414"/>
<polygon fill="midnightblue" stroke="midnightblue" points="473.017,-208.899 462.445,-209.589 471.14,-215.643 473.017,-208.899"/>
</g>
<!-- Node16&#45;&gt;Node17 -->
<g id="edge17" class="edge"><title>Node16&#45;&gt;Node17</title>
<path fill="none" stroke="midnightblue" d="M454.321,-185.345C481.753,-170.071 523.94,-146.583 547.353,-133.547"/>
<polygon fill="midnightblue" stroke="midnightblue" points="452.322,-182.452 445.288,-190.375 455.727,-188.568 452.322,-182.452"/>
</g>
<!-- Node16&#45;&gt;Node20 -->
<g id="edge23" class="edge"><title>Node16&#45;&gt;Node20</title>
<path fill="none" stroke="midnightblue" d="M473.093,-194.552C533.041,-187.308 638.338,-174.586 697.991,-167.378"/>
<polygon fill="midnightblue" stroke="midnightblue" points="472.67,-191.077 463.162,-195.752 473.509,-198.027 472.67,-191.077"/>
</g>
<!-- Node18 -->
<g id="node18" class="node"><title>Node18</title>
<g id="a_node18"><a xlink:href="main_8h.html#abfcd613b1eaa02bc626b1c3cb098fc4a" target="_top" xlink:title="Verify consistency of the block and coin databases. ">
<polygon fill="white" stroke="black" points="715.5,-95.5 715.5,-114.5 771.5,-114.5 771.5,-95.5 715.5,-95.5"/>
<text text-anchor="middle" x="743.5" y="-102.5" font-family="Helvetica,sans-Serif" font-size="10.00">VerifyDB</text>
</a>
</g>
</g>
<!-- Node17&#45;&gt;Node18 -->
<g id="edge18" class="edge"><title>Node17&#45;&gt;Node18</title>
<path fill="none" stroke="midnightblue" d="M614.841,-118.781C647.179,-115.29 688.551,-110.824 715.286,-107.938"/>
<polygon fill="midnightblue" stroke="midnightblue" points="614.256,-115.324 604.689,-119.877 615.007,-122.284 614.256,-115.324"/>
</g>
<!-- Node17&#45;&gt;Node20 -->
<g id="edge21" class="edge"><title>Node17&#45;&gt;Node20</title>
<path fill="none" stroke="midnightblue" d="M614.765,-134.421C640.926,-140.069 673.018,-146.998 698.49,-152.498"/>
<polygon fill="midnightblue" stroke="midnightblue" points="615.203,-130.935 604.689,-132.245 613.725,-137.777 615.203,-130.935"/>
</g>
<!-- Node18&#45;&gt;Node6 -->
<g id="edge19" class="edge"><title>Node18&#45;&gt;Node6</title>
<path fill="none" stroke="midnightblue" d="M781.838,-102.687C839.218,-99.6534 952.466,-95.7316 1048,-105 1072.42,-107.37 1099.83,-113.02 1119.26,-117.547"/>
<polygon fill="midnightblue" stroke="midnightblue" points="781.584,-99.1955 771.791,-103.24 781.968,-106.185 781.584,-99.1955"/>
</g>
<!-- Node19 -->
<g id="node19" class="node"><title>Node19</title>
<g id="a_node19"><a xlink:href="rpcblockchain_8cpp.html#a0b1dd8862fc7292c243ad9489f96a3c8" target="_top" xlink:title="verifychain">
<polygon fill="white" stroke="black" points="924,-114.5 924,-133.5 988,-133.5 988,-114.5 924,-114.5"/>
<text text-anchor="middle" x="956" y="-121.5" font-family="Helvetica,sans-Serif" font-size="10.00">verifychain</text>
</a>
</g>
</g>
<!-- Node18&#45;&gt;Node19 -->
<g id="edge20" class="edge"><title>Node18&#45;&gt;Node19</title>
<path fill="none" stroke="midnightblue" d="M781.579,-108.347C822.013,-111.996 886.007,-117.773 923.912,-121.194"/>
<polygon fill="midnightblue" stroke="midnightblue" points="781.862,-104.858 771.588,-107.445 781.233,-111.83 781.862,-104.858"/>
</g>
<!-- Node21 -->
<g id="node21" class="node"><title>Node21</title>
<g id="a_node21"><a xlink:href="rpcmining_8cpp.html#a27347eecedd59156c914fcb5ce488f9a" target="_top" xlink:title="getblocktemplate">
<polygon fill="white" stroke="black" points="910,-152.5 910,-171.5 1002,-171.5 1002,-152.5 910,-152.5"/>
<text text-anchor="middle" x="956" y="-159.5" font-family="Helvetica,sans-Serif" font-size="10.00">getblocktemplate</text>
</a>
</g>
</g>
<!-- Node20&#45;&gt;Node21 -->
<g id="edge22" class="edge"><title>Node20&#45;&gt;Node21</title>
<path fill="none" stroke="midnightblue" d="M799.465,-162C833.768,-162 877.387,-162 909.697,-162"/>
<polygon fill="midnightblue" stroke="midnightblue" points="799.142,-158.5 789.142,-162 799.142,-165.5 799.142,-158.5"/>
</g>
<!-- Node22&#45;&gt;Node18 -->
<g id="edge28" class="edge"><title>Node22&#45;&gt;Node18</title>
<path fill="none" stroke="midnightblue" d="M469.57,-22.557C535.049,-42.3361 660.411,-80.2035 715.454,-96.8302"/>
<polygon fill="midnightblue" stroke="midnightblue" points="470.18,-19.0851 459.595,-19.5439 468.156,-25.7861 470.18,-19.0851"/>
</g>
</g>
</svg>
