<?xml version="1.0" encoding="UTF-8" standalone="no"?>
<!DOCTYPE svg PUBLIC "-//W3C//DTD SVG 1.1//EN"
 "http://www.w3.org/Graphics/SVG/1.1/DTD/svg11.dtd">
<!-- Generated by graphviz version 2.38.0 (20140413.2041)
 -->
<!-- Title: CService::CService Pages: 1 -->
<svg width="835pt" height="66pt"
 viewBox="0.00 0.00 835.00 66.00" xmlns="http://www.w3.org/2000/svg" xmlns:xlink="http://www.w3.org/1999/xlink">
<g id="graph0" class="graph" transform="scale(1 1) rotate(0) translate(4 62)">
<title>CService::CService</title>
<polygon fill="white" stroke="none" points="-4,4 -4,-62 831,-62 831,4 -4,4"/>
<!-- Node1 -->
<g id="node1" class="node"><title>Node1</title>
<polygon fill="#bfbfbf" stroke="black" points="0,-19.5 0,-38.5 103,-38.5 103,-19.5 0,-19.5"/>
<text text-anchor="middle" x="51.5" y="-26.5" font-family="Helvetica,sans-Serif" font-size="10.00">CService::CService</text>
</g>
<!-- Node2 -->
<g id="node2" class="node"><title>Node2</title>
<g id="a_node2"><a xlink:href="class_c_service.html#a77782219f5d85f326b4c089cb2636e6f" target="_top" xlink:title="CService::SetSockAddr">
<polygon fill="white" stroke="black" points="139,-19.5 139,-38.5 260,-38.5 260,-19.5 139,-19.5"/>
<text text-anchor="middle" x="199.5" y="-26.5" font-family="Helvetica,sans-Serif" font-size="10.00">CService::SetSockAddr</text>
</a>
</g>
</g>
<!-- Node1&#45;&gt;Node2 -->
<g id="edge1" class="edge"><title>Node1&#45;&gt;Node2</title>
<path fill="none" stroke="midnightblue" d="M113.328,-29C121.785,-29 130.467,-29 138.902,-29"/>
<polygon fill="midnightblue" stroke="midnightblue" points="113.154,-25.5001 103.154,-29 113.154,-32.5001 113.154,-25.5001"/>
</g>
<!-- Node3 -->
<g id="node3" class="node"><title>Node3</title>
<g id="a_node3"><a xlink:href="net_8cpp.html#aa1111c12121e039bbd8eedb556e4514a" target="_top" xlink:title="Main Thread that handling socket&#39;s &amp; their housekeeping... ">
<polygon fill="white" stroke="black" points="296,-19.5 296,-38.5 410,-38.5 410,-19.5 296,-19.5"/>
<text text-anchor="middle" x="353" y="-26.5" font-family="Helvetica,sans-Serif" font-size="10.00">ThreadSocketHandler</text>
</a>
</g>
</g>
<!-- Node2&#45;&gt;Node3 -->
<g id="edge2" class="edge"><title>Node2&#45;&gt;Node3</title>
<path fill="none" stroke="midnightblue" d="M270.52,-29C278.897,-29 287.368,-29 295.52,-29"/>
<polygon fill="midnightblue" stroke="midnightblue" points="270.377,-25.5001 260.377,-29 270.377,-32.5001 270.377,-25.5001"/>
</g>
<!-- Node4 -->
<g id="node4" class="node"><title>Node4</title>
<g id="a_node4"><a xlink:href="net_8h.html#a9396d8054e8f74959e9391871aaddde0" target="_top" xlink:title="StartNode">
<polygon fill="white" stroke="black" points="446,-19.5 446,-38.5 508,-38.5 508,-19.5 446,-19.5"/>
<text text-anchor="middle" x="477" y="-26.5" font-family="Helvetica,sans-Serif" font-size="10.00">StartNode</text>
</a>
</g>
</g>
<!-- Node3&#45;&gt;Node4 -->
<g id="edge3" class="edge"><title>Node3&#45;&gt;Node4</title>
<path fill="none" stroke="midnightblue" d="M420.195,-29C429.204,-29 438.061,-29 445.972,-29"/>
<polygon fill="midnightblue" stroke="midnightblue" points="420.001,-25.5001 410.001,-29 420.001,-32.5001 420.001,-25.5001"/>
</g>
<!-- Node5 -->
<g id="node5" class="node"><title>Node5</title>
<g id="a_node5"><a xlink:href="init_8h.html#a1a4c1bfbf6ba1db77e988b89b9cadfd3" target="_top" xlink:title="Initialize anoncoin. ">
<polygon fill="white" stroke="black" points="544,-19.5 544,-38.5 597,-38.5 597,-19.5 544,-19.5"/>
<text text-anchor="middle" x="570.5" y="-26.5" font-family="Helvetica,sans-Serif" font-size="10.00">AppInit2</text>
</a>
</g>
</g>
<!-- Node4&#45;&gt;Node5 -->
<g id="edge4" class="edge"><title>Node4&#45;&gt;Node5</title>
<path fill="none" stroke="midnightblue" d="M518.243,-29C526.959,-29 535.944,-29 543.91,-29"/>
<polygon fill="midnightblue" stroke="midnightblue" points="518.214,-25.5001 508.214,-29 518.214,-32.5001 518.214,-25.5001"/>
</g>
<!-- Node6 -->
<g id="node6" class="node"><title>Node6</title>
<g id="a_node6"><a xlink:href="anoncoind_8cpp.html#ac59316b767e6984e1285f0531275286b" target="_top" xlink:title="AppInit">
<polygon fill="white" stroke="black" points="669,-38.5 669,-57.5 717,-57.5 717,-38.5 669,-38.5"/>
<text text-anchor="middle" x="693" y="-45.5" font-family="Helvetica,sans-Serif" font-size="10.00">AppInit</text>
</a>
</g>
</g>
<!-- Node5&#45;&gt;Node6 -->
<g id="edge5" class="edge"><title>Node5&#45;&gt;Node6</title>
<path fill="none" stroke="midnightblue" d="M607.05,-34.6053C627.041,-37.7576 651.421,-41.6017 668.927,-44.3619"/>
<polygon fill="midnightblue" stroke="midnightblue" points="607.478,-31.1297 597.055,-33.0294 606.388,-38.0443 607.478,-31.1297"/>
</g>
<!-- Node8 -->
<g id="node8" class="node"><title>Node8</title>
<g id="a_node8"><a xlink:href="class_anoncoin_coin.html#a9510881824d283404ac43414dbb74586" target="_top" xlink:title="AnoncoinCoin::initialize">
<polygon fill="white" stroke="black" points="633,-0.5 633,-19.5 753,-19.5 753,-0.5 633,-0.5"/>
<text text-anchor="middle" x="693" y="-7.5" font-family="Helvetica,sans-Serif" font-size="10.00">AnoncoinCoin::initialize</text>
</a>
</g>
</g>
<!-- Node5&#45;&gt;Node8 -->
<g id="edge7" class="edge"><title>Node5&#45;&gt;Node8</title>
<path fill="none" stroke="midnightblue" d="M607.186,-23.3732C615.249,-22.1018 624.021,-20.7186 632.765,-19.34"/>
<polygon fill="midnightblue" stroke="midnightblue" points="606.388,-19.9557 597.055,-24.9706 607.478,-26.8703 606.388,-19.9557"/>
</g>
<!-- Node7 -->
<g id="node7" class="node"><title>Node7</title>
<g id="a_node7"><a xlink:href="anoncoind_8cpp.html#a0ddf1224851353fc92bfbff6f499fa97" target="_top" xlink:title="main">
<polygon fill="white" stroke="black" points="789,-38.5 789,-57.5 827,-57.5 827,-38.5 789,-38.5"/>
<text text-anchor="middle" x="808" y="-45.5" font-family="Helvetica,sans-Serif" font-size="10.00">main</text>
</a>
</g>
</g>
<!-- Node6&#45;&gt;Node7 -->
<g id="edge6" class="edge"><title>Node6&#45;&gt;Node7</title>
<path fill="none" stroke="midnightblue" d="M727.146,-48C747.247,-48 772.134,-48 788.731,-48"/>
<polygon fill="midnightblue" stroke="midnightblue" points="727.14,-44.5001 717.14,-48 727.14,-51.5001 727.14,-44.5001"/>
</g>
</g>
</svg>
