<?xml version="1.0" encoding="UTF-8" standalone="no"?>
<!DOCTYPE svg PUBLIC "-//W3C//DTD SVG 1.1//EN"
 "http://www.w3.org/Graphics/SVG/1.1/DTD/svg11.dtd">
<!-- Generated by graphviz version 2.38.0 (20140413.2041)
 -->
<!-- Title: TransactionRecord::updateStatus Pages: 1 -->
<svg width="1024pt" height="165pt"
 viewBox="0.00 0.00 1024.00 164.50" xmlns="http://www.w3.org/2000/svg" xmlns:xlink="http://www.w3.org/1999/xlink">
<g id="graph0" class="graph" transform="scale(1 1) rotate(0) translate(4 160.5)">
<title>TransactionRecord::updateStatus</title>
<polygon fill="white" stroke="none" points="-4,4 -4,-160.5 1020,-160.5 1020,4 -4,4"/>
<!-- Node1 -->
<g id="node1" class="node"><title>Node1</title>
<polygon fill="#bfbfbf" stroke="black" points="0,-40 0,-70 107,-70 107,-40 0,-40"/>
<text text-anchor="start" x="8" y="-58" font-family="Helvetica,sans-Serif" font-size="10.00">TransactionRecord::</text>
<text text-anchor="middle" x="53.5" y="-47" font-family="Helvetica,sans-Serif" font-size="10.00">updateStatus</text>
</g>
<!-- Node2 -->
<g id="node2" class="node"><title>Node2</title>
<g id="a_node2"><a xlink:href="class_transaction_table_priv.html#ac692aa6aa7820e80accc971c70e0fae5" target="_top" xlink:title="TransactionTablePriv\l::index">
<polygon fill="white" stroke="black" points="143,-40 143,-70 254,-70 254,-40 143,-40"/>
<text text-anchor="start" x="151" y="-58" font-family="Helvetica,sans-Serif" font-size="10.00">TransactionTablePriv</text>
<text text-anchor="middle" x="198.5" y="-47" font-family="Helvetica,sans-Serif" font-size="10.00">::index</text>
</a>
</g>
</g>
<!-- Node1&#45;&gt;Node2 -->
<g id="edge1" class="edge"><title>Node1&#45;&gt;Node2</title>
<path fill="none" stroke="midnightblue" d="M117.559,-55C126.028,-55 134.657,-55 142.961,-55"/>
<polygon fill="midnightblue" stroke="midnightblue" points="117.342,-51.5001 107.342,-55 117.342,-58.5001 117.342,-51.5001"/>
</g>
<!-- Node3 -->
<g id="node3" class="node"><title>Node3</title>
<g id="a_node3"><a xlink:href="class_transaction_table_model.html#aaaf3cea9a5373fff771ce81d2f26de6e" target="_top" xlink:title="TransactionTableModel\l::index">
<polygon fill="white" stroke="black" points="313,-67 313,-97 434,-97 434,-67 313,-67"/>
<text text-anchor="start" x="321" y="-85" font-family="Helvetica,sans-Serif" font-size="10.00">TransactionTableModel</text>
<text text-anchor="middle" x="373.5" y="-74" font-family="Helvetica,sans-Serif" font-size="10.00">::index</text>
</a>
</g>
</g>
<!-- Node2&#45;&gt;Node3 -->
<g id="edge2" class="edge"><title>Node2&#45;&gt;Node3</title>
<path fill="none" stroke="midnightblue" d="M264.467,-65.1393C280.294,-67.6095 297.148,-70.2399 312.721,-72.6703"/>
<polygon fill="midnightblue" stroke="midnightblue" points="264.658,-61.6269 254.238,-63.543 263.579,-68.5432 264.658,-61.6269"/>
</g>
<!-- Node12 -->
<g id="node12" class="node"><title>Node12</title>
<g id="a_node12"><a xlink:href="class_transaction_view.html#abe5793b86a4ea6f80a6d822ee878e646" target="_top" xlink:title="TransactionView::contextualMenu">
<polygon fill="white" stroke="black" points="290,-19.5 290,-38.5 457,-38.5 457,-19.5 290,-19.5"/>
<text text-anchor="middle" x="373.5" y="-26.5" font-family="Helvetica,sans-Serif" font-size="10.00">TransactionView::contextualMenu</text>
</a>
</g>
</g>
<!-- Node2&#45;&gt;Node12 -->
<g id="edge11" class="edge"><title>Node2&#45;&gt;Node12</title>
<path fill="none" stroke="midnightblue" d="M264.226,-45.2723C278.892,-43.0682 294.452,-40.7298 309.064,-38.5338"/>
<polygon fill="midnightblue" stroke="midnightblue" points="263.607,-41.826 254.238,-46.7734 264.647,-48.7483 263.607,-41.826"/>
</g>
<!-- Node4 -->
<g id="node4" class="node"><title>Node4</title>
<g id="a_node4"><a xlink:href="class_transaction_table_model.html#a5899d9eda6465bfb16d2846b6459567e" target="_top" xlink:title="TransactionTableModel\l::updateConfirmations">
<polygon fill="white" stroke="black" points="522,-126 522,-156 643,-156 643,-126 522,-126"/>
<text text-anchor="start" x="530" y="-144" font-family="Helvetica,sans-Serif" font-size="10.00">TransactionTableModel</text>
<text text-anchor="middle" x="582.5" y="-133" font-family="Helvetica,sans-Serif" font-size="10.00">::updateConfirmations</text>
</a>
</g>
</g>
<!-- Node3&#45;&gt;Node4 -->
<g id="edge3" class="edge"><title>Node3&#45;&gt;Node4</title>
<path fill="none" stroke="midnightblue" d="M436.34,-99.795C454.583,-105.031 474.591,-110.759 493,-116 504.363,-119.235 516.552,-122.689 528.139,-125.965"/>
<polygon fill="midnightblue" stroke="midnightblue" points="437.272,-96.4212 426.694,-97.0255 435.34,-103.149 437.272,-96.4212"/>
</g>
<!-- Node7 -->
<g id="node7" class="node"><title>Node7</title>
<g id="a_node7"><a xlink:href="class_transaction_table_model.html#a8b73ff7d72ec2dd69790bc61bbe8575e" target="_top" xlink:title="TransactionTableModel\l::updateDisplayUnit">
<polygon fill="white" stroke="black" points="522,-77 522,-107 643,-107 643,-77 522,-77"/>
<text text-anchor="start" x="530" y="-95" font-family="Helvetica,sans-Serif" font-size="10.00">TransactionTableModel</text>
<text text-anchor="middle" x="582.5" y="-84" font-family="Helvetica,sans-Serif" font-size="10.00">::updateDisplayUnit</text>
</a>
</g>
</g>
<!-- Node3&#45;&gt;Node7 -->
<g id="edge6" class="edge"><title>Node3&#45;&gt;Node7</title>
<path fill="none" stroke="midnightblue" d="M444.325,-85.3732C469.53,-86.5908 497.725,-87.9529 521.967,-89.124"/>
<polygon fill="midnightblue" stroke="midnightblue" points="444.253,-81.8657 434.095,-84.879 443.915,-88.8575 444.253,-81.8657"/>
</g>
<!-- Node9 -->
<g id="node9" class="node"><title>Node9</title>
<g id="a_node9"><a xlink:href="class_wallet_view.html#addde7d2260658ee06f47f9c095a8cb2a" target="_top" xlink:title="Show incoming transaction notification for new transactions. ">
<polygon fill="white" stroke="black" points="493,-38.5 493,-57.5 672,-57.5 672,-38.5 493,-38.5"/>
<text text-anchor="middle" x="582.5" y="-45.5" font-family="Helvetica,sans-Serif" font-size="10.00">WalletView::processNewTransaction</text>
</a>
</g>
</g>
<!-- Node3&#45;&gt;Node9 -->
<g id="edge8" class="edge"><title>Node3&#45;&gt;Node9</title>
<path fill="none" stroke="midnightblue" d="M444.163,-70.5577C469.906,-66.3295 498.786,-61.586 523.395,-57.5438"/>
<polygon fill="midnightblue" stroke="midnightblue" points="443.396,-67.1368 434.095,-72.2114 444.53,-74.0443 443.396,-67.1368"/>
</g>
<!-- Node5 -->
<g id="node5" class="node"><title>Node5</title>
<g id="a_node5"><a xlink:href="class_wallet_model.html#a51469b2d95cfd4bc0a14ee456fca7b95" target="_top" xlink:title="WalletModel::pollBalance\lChanged">
<polygon fill="white" stroke="black" points="713.5,-126 713.5,-156 842.5,-156 842.5,-126 713.5,-126"/>
<text text-anchor="start" x="721.5" y="-144" font-family="Helvetica,sans-Serif" font-size="10.00">WalletModel::pollBalance</text>
<text text-anchor="middle" x="778" y="-133" font-family="Helvetica,sans-Serif" font-size="10.00">Changed</text>
</a>
</g>
</g>
<!-- Node4&#45;&gt;Node5 -->
<g id="edge4" class="edge"><title>Node4&#45;&gt;Node5</title>
<path fill="none" stroke="midnightblue" d="M653.21,-141C672.791,-141 693.979,-141 713.197,-141"/>
<polygon fill="midnightblue" stroke="midnightblue" points="653.135,-137.5 643.135,-141 653.135,-144.5 653.135,-137.5"/>
</g>
<!-- Node6 -->
<g id="node6" class="node"><title>Node6</title>
<g id="a_node6"><a xlink:href="class_wallet_model.html#af50d9654d2f20e4e4f0789dcb64ad6b1" target="_top" xlink:title="WalletModel::WalletModel">
<polygon fill="white" stroke="black" points="884,-131.5 884,-150.5 1016,-150.5 1016,-131.5 884,-131.5"/>
<text text-anchor="middle" x="950" y="-138.5" font-family="Helvetica,sans-Serif" font-size="10.00">WalletModel::WalletModel</text>
</a>
</g>
</g>
<!-- Node5&#45;&gt;Node6 -->
<g id="edge5" class="edge"><title>Node5&#45;&gt;Node6</title>
<path fill="none" stroke="midnightblue" d="M852.937,-141C863.184,-141 873.65,-141 883.724,-141"/>
<polygon fill="midnightblue" stroke="midnightblue" points="852.785,-137.5 842.785,-141 852.785,-144.5 852.785,-137.5"/>
</g>
<!-- Node8 -->
<g id="node8" class="node"><title>Node8</title>
<g id="a_node8"><a xlink:href="class_transaction_table_model.html#a6c10b7cab9804eee6df9e049a978dc62" target="_top" xlink:title="TransactionTableModel\l::TransactionTableModel">
<polygon fill="white" stroke="black" points="714.5,-77 714.5,-107 841.5,-107 841.5,-77 714.5,-77"/>
<text text-anchor="start" x="722.5" y="-95" font-family="Helvetica,sans-Serif" font-size="10.00">TransactionTableModel</text>
<text text-anchor="middle" x="778" y="-84" font-family="Helvetica,sans-Serif" font-size="10.00">::TransactionTableModel</text>
</a>
</g>
</g>
<!-- Node7&#45;&gt;Node8 -->
<g id="edge7" class="edge"><title>Node7&#45;&gt;Node8</title>
<path fill="none" stroke="midnightblue" d="M653.363,-92C673.247,-92 694.776,-92 714.211,-92"/>
<polygon fill="midnightblue" stroke="midnightblue" points="653.135,-88.5001 643.135,-92 653.135,-95.5001 653.135,-88.5001"/>
</g>
<!-- Node10 -->
<g id="node10" class="node"><title>Node10</title>
<g id="a_node10"><a xlink:href="class_wallet_view.html#a0a37ff693a4f9c1e5ddc23f9cd3913be" target="_top" xlink:title="Set the wallet model. ">
<polygon fill="white" stroke="black" points="708,-38.5 708,-57.5 848,-57.5 848,-38.5 708,-38.5"/>
<text text-anchor="middle" x="778" y="-45.5" font-family="Helvetica,sans-Serif" font-size="10.00">WalletView::setWalletModel</text>
</a>
</g>
</g>
<!-- Node9&#45;&gt;Node10 -->
<g id="edge9" class="edge"><title>Node9&#45;&gt;Node10</title>
<path fill="none" stroke="midnightblue" d="M682.222,-48C690.903,-48 699.563,-48 707.922,-48"/>
<polygon fill="midnightblue" stroke="midnightblue" points="682.039,-44.5001 672.039,-48 682.039,-51.5001 682.039,-44.5001"/>
</g>
<!-- Node11 -->
<g id="node11" class="node"><title>Node11</title>
<g id="a_node11"><a xlink:href="class_wallet_frame.html#aa199c3f27654199d84c365cf86167d86" target="_top" xlink:title="WalletFrame::addWallet">
<polygon fill="white" stroke="black" points="888.5,-38.5 888.5,-57.5 1011.5,-57.5 1011.5,-38.5 888.5,-38.5"/>
<text text-anchor="middle" x="950" y="-45.5" font-family="Helvetica,sans-Serif" font-size="10.00">WalletFrame::addWallet</text>
</a>
</g>
</g>
<!-- Node10&#45;&gt;Node11 -->
<g id="edge10" class="edge"><title>Node10&#45;&gt;Node11</title>
<path fill="none" stroke="midnightblue" d="M858.222,-48C868.357,-48 878.601,-48 888.376,-48"/>
<polygon fill="midnightblue" stroke="midnightblue" points="858.146,-44.5001 848.146,-48 858.145,-51.5001 858.146,-44.5001"/>
</g>
<!-- Node13 -->
<g id="node13" class="node"><title>Node13</title>
<g id="a_node13"><a xlink:href="class_transaction_view.html#a0c5e8b90206b4e8b8bf68dd7e319798f" target="_top" xlink:title="TransactionView::TransactionView">
<polygon fill="white" stroke="black" points="497.5,-0.5 497.5,-19.5 667.5,-19.5 667.5,-0.5 497.5,-0.5"/>
<text text-anchor="middle" x="582.5" y="-7.5" font-family="Helvetica,sans-Serif" font-size="10.00">TransactionView::TransactionView</text>
</a>
</g>
</g>
<!-- Node12&#45;&gt;Node13 -->
<g id="edge12" class="edge"><title>Node12&#45;&gt;Node13</title>
<path fill="none" stroke="midnightblue" d="M467.473,-20.4663C477.387,-19.5563 487.431,-18.6344 497.236,-17.7344"/>
<polygon fill="midnightblue" stroke="midnightblue" points="466.842,-17.0093 457.204,-21.4088 467.482,-23.98 466.842,-17.0093"/>
</g>
</g>
</svg>
