<?xml version="1.0" encoding="UTF-8" standalone="no"?>
<!DOCTYPE svg PUBLIC "-//W3C//DTD SVG 1.1//EN"
 "http://www.w3.org/Graphics/SVG/1.1/DTD/svg11.dtd">
<!-- Generated by graphviz version 2.38.0 (20140413.2041)
 -->
<!-- Title: PaymentServer::fetchPaymentACK Pages: 1 -->
<svg width="704pt" height="1099pt"
 viewBox="0.00 0.00 704.00 1099.00" xmlns="http://www.w3.org/2000/svg" xmlns:xlink="http://www.w3.org/1999/xlink">
<g id="graph0" class="graph" transform="scale(1 1) rotate(0) translate(4 1095)">
<title>PaymentServer::fetchPaymentACK</title>
<polygon fill="white" stroke="none" points="-4,4 -4,-1095 700,-1095 700,4 -4,4"/>
<!-- Node1 -->
<g id="node1" class="node"><title>Node1</title>
<polygon fill="#bfbfbf" stroke="black" points="0,-755 0,-774 173,-774 173,-755 0,-755"/>
<text text-anchor="middle" x="86.5" y="-762" font-family="Helvetica,sans-Serif" font-size="10.00">PaymentServer::fetchPaymentACK</text>
</g>
<!-- Node2 -->
<g id="node2" class="node"><title>Node2</title>
<g id="a_node2"><a xlink:href="class_payment_request_plus.html#a7c8897087763a5add91d9fdee059a126" target="_top" xlink:title="PaymentRequestPlus\l::getDetails">
<polygon fill="white" stroke="black" points="231,-1060.5 231,-1090.5 344,-1090.5 344,-1060.5 231,-1060.5"/>
<text text-anchor="start" x="239" y="-1078.5" font-family="Helvetica,sans-Serif" font-size="10.00">PaymentRequestPlus</text>
<text text-anchor="middle" x="287.5" y="-1067.5" font-family="Helvetica,sans-Serif" font-size="10.00">::getDetails</text>
</a>
</g>
</g>
<!-- Node1&#45;&gt;Node2 -->
<g id="edge1" class="edge"><title>Node1&#45;&gt;Node2</title>
<path fill="none" stroke="midnightblue" d="M88.6462,-774.079C93.9679,-814.268 119.918,-970.922 209,-1051.5 212.819,-1054.95 217.128,-1057.91 221.71,-1060.44"/>
<polygon fill="midnightblue" stroke="midnightblue" points="220.268,-1063.63 230.798,-1064.81 223.297,-1057.32 220.268,-1063.63"/>
</g>
<!-- Node3 -->
<g id="node3" class="node"><title>Node3</title>
<g id="a_node3"><a xlink:href="classpayments_1_1_payment_details.html#a3ae4b2d07c7e300ff7df1fba6861d17e" target="_top" xlink:title="payments::PaymentDetails\l::has_payment_url">
<polygon fill="white" stroke="black" points="220,-1011.5 220,-1041.5 355,-1041.5 355,-1011.5 220,-1011.5"/>
<text text-anchor="start" x="228" y="-1029.5" font-family="Helvetica,sans-Serif" font-size="10.00">payments::PaymentDetails</text>
<text text-anchor="middle" x="287.5" y="-1018.5" font-family="Helvetica,sans-Serif" font-size="10.00">::has_payment_url</text>
</a>
</g>
</g>
<!-- Node1&#45;&gt;Node3 -->
<g id="edge2" class="edge"><title>Node1&#45;&gt;Node3</title>
<path fill="none" stroke="midnightblue" d="M89.6215,-774.371C97.9204,-810.58 131.618,-937.382 209,-1002.5 210.536,-1003.79 212.141,-1005.02 213.802,-1006.17"/>
<polygon fill="midnightblue" stroke="midnightblue" points="212.153,-1009.26 222.525,-1011.43 215.765,-1003.27 212.153,-1009.26"/>
</g>
<!-- Node4 -->
<g id="node4" class="node"><title>Node4</title>
<g id="a_node4"><a xlink:href="classpayments_1_1_payment_details.html#abf568d7f349cf822d99e69d1424c5099" target="_top" xlink:title="payments::PaymentDetails\l::payment_url">
<polygon fill="white" stroke="black" points="220,-962.5 220,-992.5 355,-992.5 355,-962.5 220,-962.5"/>
<text text-anchor="start" x="228" y="-980.5" font-family="Helvetica,sans-Serif" font-size="10.00">payments::PaymentDetails</text>
<text text-anchor="middle" x="287.5" y="-969.5" font-family="Helvetica,sans-Serif" font-size="10.00">::payment_url</text>
</a>
</g>
</g>
<!-- Node1&#45;&gt;Node4 -->
<g id="edge3" class="edge"><title>Node1&#45;&gt;Node4</title>
<path fill="none" stroke="midnightblue" d="M90.8714,-774.014C102.29,-804.854 142.54,-902.989 209,-953.5 210.822,-954.885 212.725,-956.191 214.692,-957.422"/>
<polygon fill="midnightblue" stroke="midnightblue" points="213.216,-960.605 223.665,-962.356 216.589,-954.471 213.216,-960.605"/>
</g>
<!-- Node5 -->
<g id="node5" class="node"><title>Node5</title>
<g id="a_node5"><a xlink:href="classpayments_1_1_payment.html#a5fcb7888dbff73e4808f0c9e2ba947db" target="_top" xlink:title="payments::Payment::\lset_merchant_data">
<polygon fill="white" stroke="black" points="232.5,-913.5 232.5,-943.5 342.5,-943.5 342.5,-913.5 232.5,-913.5"/>
<text text-anchor="start" x="240.5" y="-931.5" font-family="Helvetica,sans-Serif" font-size="10.00">payments::Payment::</text>
<text text-anchor="middle" x="287.5" y="-920.5" font-family="Helvetica,sans-Serif" font-size="10.00">set_merchant_data</text>
</a>
</g>
</g>
<!-- Node1&#45;&gt;Node5 -->
<g id="edge4" class="edge"><title>Node1&#45;&gt;Node5</title>
<path fill="none" stroke="midnightblue" d="M93.2403,-774.289C108.638,-799.695 153.48,-868.27 209,-904.5 213.313,-907.314 217.975,-909.814 222.798,-912.032"/>
<polygon fill="midnightblue" stroke="midnightblue" points="221.645,-915.344 232.222,-915.959 224.337,-908.882 221.645,-915.344"/>
</g>
<!-- Node7 -->
<g id="node7" class="node"><title>Node7</title>
<g id="a_node7"><a xlink:href="classpayments_1_1_payment_details.html#ab38d62eca2f03cf3a9ade74790c269b2" target="_top" xlink:title="payments::PaymentDetails\l::merchant_data">
<polygon fill="white" stroke="black" points="220,-864.5 220,-894.5 355,-894.5 355,-864.5 220,-864.5"/>
<text text-anchor="start" x="228" y="-882.5" font-family="Helvetica,sans-Serif" font-size="10.00">payments::PaymentDetails</text>
<text text-anchor="middle" x="287.5" y="-871.5" font-family="Helvetica,sans-Serif" font-size="10.00">::merchant_data</text>
</a>
</g>
</g>
<!-- Node1&#45;&gt;Node7 -->
<g id="edge6" class="edge"><title>Node1&#45;&gt;Node7</title>
<path fill="none" stroke="midnightblue" d="M97.7207,-774.123C117.641,-792.405 163.688,-832.393 209,-855.5 212.568,-857.32 216.3,-859.031 220.115,-860.636"/>
<polygon fill="midnightblue" stroke="midnightblue" points="219.137,-864.012 229.724,-864.407 221.694,-857.496 219.137,-864.012"/>
</g>
<!-- Node8 -->
<g id="node8" class="node"><title>Node8</title>
<g id="a_node8"><a xlink:href="classpayments_1_1_payment.html#a8fc8dd96734700dce2670146e691f7f7" target="_top" xlink:title="payments::Payment::\ladd_transactions">
<polygon fill="white" stroke="black" points="232.5,-815.5 232.5,-845.5 342.5,-845.5 342.5,-815.5 232.5,-815.5"/>
<text text-anchor="start" x="240.5" y="-833.5" font-family="Helvetica,sans-Serif" font-size="10.00">payments::Payment::</text>
<text text-anchor="middle" x="287.5" y="-822.5" font-family="Helvetica,sans-Serif" font-size="10.00">add_transactions</text>
</a>
</g>
</g>
<!-- Node1&#45;&gt;Node8 -->
<g id="edge7" class="edge"><title>Node1&#45;&gt;Node8</title>
<path fill="none" stroke="midnightblue" d="M115.454,-774.052C140.057,-782.43 176.866,-794.896 209,-805.5 215.585,-807.673 222.491,-809.931 229.354,-812.162"/>
<polygon fill="midnightblue" stroke="midnightblue" points="228.744,-815.643 239.336,-815.397 230.902,-808.984 228.744,-815.643"/>
</g>
<!-- Node9 -->
<g id="node9" class="node"><title>Node9</title>
<g id="a_node9"><a xlink:href="class_c_wallet.html#a00a2ae965f07599d2146ba27d5516fae" target="_top" xlink:title="CWallet::GetAccountAddresses">
<polygon fill="white" stroke="black" points="209,-777 209,-796 366,-796 366,-777 209,-777"/>
<text text-anchor="middle" x="287.5" y="-784" font-family="Helvetica,sans-Serif" font-size="10.00">CWallet::GetAccountAddresses</text>
</a>
</g>
</g>
<!-- Node1&#45;&gt;Node9 -->
<g id="edge8" class="edge"><title>Node1&#45;&gt;Node9</title>
<path fill="none" stroke="midnightblue" d="M173.049,-773.958C181.605,-774.904 190.301,-775.865 198.878,-776.813"/>
<polygon fill="midnightblue" stroke="midnightblue" points="198.552,-780.298 208.876,-777.918 199.321,-773.341 198.552,-780.298"/>
</g>
<!-- Node10 -->
<g id="node10" class="node"><title>Node10</title>
<g id="a_node10"><a xlink:href="class_c_script.html#ad1b5a9077241aa06116040c4f1b7c31e" target="_top" xlink:title="CScript::SetDestination">
<polygon fill="white" stroke="black" points="576,-498 576,-517 696,-517 696,-498 576,-498"/>
<text text-anchor="middle" x="636" y="-505" font-family="Helvetica,sans-Serif" font-size="10.00">CScript::SetDestination</text>
</a>
</g>
</g>
<!-- Node1&#45;&gt;Node10 -->
<g id="edge9" class="edge"><title>Node1&#45;&gt;Node10</title>
<path fill="none" stroke="midnightblue" d="M90.9622,-754.933C102.384,-724.91 142.01,-632.206 209,-592.5 336.383,-516.998 397.974,-596.398 540,-554.5 565.516,-546.973 592.511,-532.957 611.176,-522.183"/>
<polygon fill="midnightblue" stroke="midnightblue" points="613.045,-525.145 619.876,-517.046 609.486,-519.117 613.045,-525.145"/>
</g>
<!-- Node11 -->
<g id="node11" class="node"><title>Node11</title>
<g id="a_node11"><a xlink:href="classpayments_1_1_payment.html#aadb24119a35292ab26f98d1d5a4eef8b" target="_top" xlink:title="payments::Payment::\ladd_refund_to">
<polygon fill="white" stroke="black" points="232.5,-678.5 232.5,-708.5 342.5,-708.5 342.5,-678.5 232.5,-678.5"/>
<text text-anchor="start" x="240.5" y="-696.5" font-family="Helvetica,sans-Serif" font-size="10.00">payments::Payment::</text>
<text text-anchor="middle" x="287.5" y="-685.5" font-family="Helvetica,sans-Serif" font-size="10.00">add_refund_to</text>
</a>
</g>
</g>
<!-- Node1&#45;&gt;Node11 -->
<g id="edge10" class="edge"><title>Node1&#45;&gt;Node11</title>
<path fill="none" stroke="midnightblue" d="M111.575,-754.979C135.995,-745.418 174.942,-730.432 209,-718.5 215.365,-716.27 222.049,-714.003 228.711,-711.791"/>
<polygon fill="midnightblue" stroke="midnightblue" points="230.013,-715.047 238.419,-708.598 227.826,-708.397 230.013,-715.047"/>
</g>
<!-- Node12 -->
<g id="node12" class="node"><title>Node12</title>
<g id="a_node12"><a xlink:href="classpayments_1_1_output.html#ab4263ea2e71f7cc6fc5f6bb604fd83d2" target="_top" xlink:title="payments::Output::set\l_script">
<polygon fill="white" stroke="black" points="230.5,-727.5 230.5,-757.5 344.5,-757.5 344.5,-727.5 230.5,-727.5"/>
<text text-anchor="start" x="238.5" y="-745.5" font-family="Helvetica,sans-Serif" font-size="10.00">payments::Output::set</text>
<text text-anchor="middle" x="287.5" y="-734.5" font-family="Helvetica,sans-Serif" font-size="10.00">_script</text>
</a>
</g>
</g>
<!-- Node1&#45;&gt;Node12 -->
<g id="edge11" class="edge"><title>Node1&#45;&gt;Node12</title>
<path fill="none" stroke="midnightblue" d="M173.049,-755.042C188.798,-753.301 205.022,-751.508 220.102,-749.84"/>
<polygon fill="midnightblue" stroke="midnightblue" points="220.784,-753.286 230.339,-748.709 220.015,-746.329 220.784,-753.286"/>
</g>
<!-- Node14 -->
<g id="node14" class="node"><title>Node14</title>
<g id="a_node14"><a xlink:href="class_c_wallet.html#a18549ec5c472c003afc4794daeb9adfd" target="_top" xlink:title="CWallet::GetKeyFromPool">
<polygon fill="white" stroke="black" points="220.5,-602 220.5,-621 354.5,-621 354.5,-602 220.5,-602"/>
<text text-anchor="middle" x="287.5" y="-609" font-family="Helvetica,sans-Serif" font-size="10.00">CWallet::GetKeyFromPool</text>
</a>
</g>
</g>
<!-- Node1&#45;&gt;Node14 -->
<g id="edge13" class="edge"><title>Node1&#45;&gt;Node14</title>
<path fill="none" stroke="midnightblue" d="M93.2342,-754.951C108.618,-730.203 153.427,-663.613 209,-630.5 212.682,-628.306 216.606,-626.365 220.659,-624.648"/>
<polygon fill="midnightblue" stroke="midnightblue" points="222.165,-627.821 230.3,-621.033 219.708,-621.267 222.165,-627.821"/>
</g>
<!-- Node15 -->
<g id="node15" class="node"><title>Node15</title>
<g id="a_node15"><a xlink:href="class_c_pub_key.html#a9c1908fef34fd9e1c4b5e0ffd5d3834e" target="_top" xlink:title="CPubKey::GetID">
<polygon fill="white" stroke="black" points="242.5,-640 242.5,-659 332.5,-659 332.5,-640 242.5,-640"/>
<text text-anchor="middle" x="287.5" y="-647" font-family="Helvetica,sans-Serif" font-size="10.00">CPubKey::GetID</text>
</a>
</g>
</g>
<!-- Node1&#45;&gt;Node15 -->
<g id="edge14" class="edge"><title>Node1&#45;&gt;Node15</title>
<path fill="none" stroke="midnightblue" d="M96.9311,-754.822C116.186,-735.624 162.169,-692.59 209,-669.5 216.354,-665.874 224.436,-662.857 232.518,-660.361"/>
<polygon fill="midnightblue" stroke="midnightblue" points="233.67,-663.672 242.33,-657.568 231.753,-656.94 233.67,-663.672"/>
</g>
<!-- Node19 -->
<g id="node19" class="node"><title>Node19</title>
<g id="a_node19"><a xlink:href="class_c_wallet.html#a53e5528d7005608594e73f500bc5bb8f" target="_top" xlink:title="CWallet::SetAddressBook">
<polygon fill="white" stroke="black" points="221.5,-507 221.5,-526 353.5,-526 353.5,-507 221.5,-507"/>
<text text-anchor="middle" x="287.5" y="-514" font-family="Helvetica,sans-Serif" font-size="10.00">CWallet::SetAddressBook</text>
</a>
</g>
</g>
<!-- Node1&#45;&gt;Node19 -->
<g id="edge18" class="edge"><title>Node1&#45;&gt;Node19</title>
<path fill="none" stroke="midnightblue" d="M91.1113,-754.74C103.265,-723 145.511,-621.206 209,-559.5 221.491,-547.36 238.089,-537.548 252.72,-530.379"/>
<polygon fill="midnightblue" stroke="midnightblue" points="254.407,-533.455 261.987,-526.052 251.446,-527.112 254.407,-533.455"/>
</g>
<!-- Node23 -->
<g id="node23" class="node"><title>Node23</title>
<g id="a_node23"><a xlink:href="classpayments_1_1_payment.html#aad929aa08270759e3298e71e2a66aaed" target="_top" xlink:title="payments::Payment::\lByteSize">
<polygon fill="white" stroke="black" points="232.5,-220.5 232.5,-250.5 342.5,-250.5 342.5,-220.5 232.5,-220.5"/>
<text text-anchor="start" x="240.5" y="-238.5" font-family="Helvetica,sans-Serif" font-size="10.00">payments::Payment::</text>
<text text-anchor="middle" x="287.5" y="-227.5" font-family="Helvetica,sans-Serif" font-size="10.00">ByteSize</text>
</a>
</g>
</g>
<!-- Node1&#45;&gt;Node23 -->
<g id="edge24" class="edge"><title>Node1&#45;&gt;Node23</title>
<path fill="none" stroke="midnightblue" d="M91.1239,-754.867C114.252,-693.386 241.377,-355.449 277.138,-260.387"/>
<polygon fill="midnightblue" stroke="midnightblue" points="280.519,-261.34 280.764,-250.748 273.967,-258.875 280.519,-261.34"/>
</g>
<!-- Node6 -->
<g id="node6" class="node"><title>Node6</title>
<g id="a_node6"><a xlink:href="classpayments_1_1_payment.html#a2e2e674f9faf3b6fa99295ddf31302e8" target="_top" xlink:title="payments::Payment::\lset_has_merchant_data">
<polygon fill="white" stroke="black" points="409,-913.5 409,-943.5 533,-943.5 533,-913.5 409,-913.5"/>
<text text-anchor="start" x="417" y="-931.5" font-family="Helvetica,sans-Serif" font-size="10.00">payments::Payment::</text>
<text text-anchor="middle" x="471" y="-920.5" font-family="Helvetica,sans-Serif" font-size="10.00">set_has_merchant_data</text>
</a>
</g>
</g>
<!-- Node5&#45;&gt;Node6 -->
<g id="edge5" class="edge"><title>Node5&#45;&gt;Node6</title>
<path fill="none" stroke="midnightblue" d="M342.956,-928.5C360.488,-928.5 380.185,-928.5 398.74,-928.5"/>
<polygon fill="midnightblue" stroke="midnightblue" points="398.91,-932 408.91,-928.5 398.91,-925 398.91,-932"/>
</g>
<!-- Node13 -->
<g id="node13" class="node"><title>Node13</title>
<g id="a_node13"><a xlink:href="classpayments_1_1_output.html#af756736c767892da923aa6024478f099" target="_top" xlink:title="payments::Output::set\l_has_script">
<polygon fill="white" stroke="black" points="414,-727.5 414,-757.5 528,-757.5 528,-727.5 414,-727.5"/>
<text text-anchor="start" x="422" y="-745.5" font-family="Helvetica,sans-Serif" font-size="10.00">payments::Output::set</text>
<text text-anchor="middle" x="471" y="-734.5" font-family="Helvetica,sans-Serif" font-size="10.00">_has_script</text>
</a>
</g>
</g>
<!-- Node12&#45;&gt;Node13 -->
<g id="edge12" class="edge"><title>Node12&#45;&gt;Node13</title>
<path fill="none" stroke="midnightblue" d="M344.933,-742.5C363.545,-742.5 384.415,-742.5 403.695,-742.5"/>
<polygon fill="midnightblue" stroke="midnightblue" points="403.914,-746 413.914,-742.5 403.914,-739 403.914,-746"/>
</g>
<!-- Node16 -->
<g id="node16" class="node"><title>Node16</title>
<g id="a_node16"><a xlink:href="hash_8h.html#a4490f70ddae16e9e48460a0416a48a6b" target="_top" xlink:title="Hash160">
<polygon fill="white" stroke="black" points="442.5,-621 442.5,-640 499.5,-640 499.5,-621 442.5,-621"/>
<text text-anchor="middle" x="471" y="-628" font-family="Helvetica,sans-Serif" font-size="10.00">Hash160</text>
</a>
</g>
</g>
<!-- Node15&#45;&gt;Node16 -->
<g id="edge15" class="edge"><title>Node15&#45;&gt;Node16</title>
<path fill="none" stroke="midnightblue" d="M332.9,-644.852C363.371,-641.662 403.371,-637.475 432.294,-634.447"/>
<polygon fill="midnightblue" stroke="midnightblue" points="432.83,-637.91 442.411,-633.388 432.101,-630.948 432.83,-637.91"/>
</g>
<!-- Node17 -->
<g id="node17" class="node"><title>Node17</title>
<g id="a_node17"><a xlink:href="class_c_pub_key.html#a9d7129b65b6dee792b4f3923cd64ed59" target="_top" xlink:title="CPubKey::size">
<polygon fill="white" stroke="black" points="430,-659 430,-678 512,-678 512,-659 430,-659"/>
<text text-anchor="middle" x="471" y="-666" font-family="Helvetica,sans-Serif" font-size="10.00">CPubKey::size</text>
</a>
</g>
</g>
<!-- Node15&#45;&gt;Node17 -->
<g id="edge16" class="edge"><title>Node15&#45;&gt;Node17</title>
<path fill="none" stroke="midnightblue" d="M332.9,-654.148C359.142,-656.895 392.453,-660.382 419.669,-663.231"/>
<polygon fill="midnightblue" stroke="midnightblue" points="419.464,-666.729 429.774,-664.289 420.193,-659.767 419.464,-666.729"/>
</g>
<!-- Node18 -->
<g id="node18" class="node"><title>Node18</title>
<g id="a_node18"><a xlink:href="class_c_pub_key.html#a7dc71b3f037c84268dc22de97d7b65fb" target="_top" xlink:title="CPubKey::GetLen">
<polygon fill="white" stroke="black" points="587.5,-659 587.5,-678 684.5,-678 684.5,-659 587.5,-659"/>
<text text-anchor="middle" x="636" y="-666" font-family="Helvetica,sans-Serif" font-size="10.00">CPubKey::GetLen</text>
</a>
</g>
</g>
<!-- Node17&#45;&gt;Node18 -->
<g id="edge17" class="edge"><title>Node17&#45;&gt;Node18</title>
<path fill="none" stroke="midnightblue" d="M512.292,-668.5C531.906,-668.5 555.841,-668.5 577.347,-668.5"/>
<polygon fill="midnightblue" stroke="midnightblue" points="577.356,-672 587.355,-668.5 577.355,-665 577.356,-672"/>
</g>
<!-- Node20 -->
<g id="node20" class="node"><title>Node20</title>
<g id="a_node20"><a xlink:href="script_8cpp.html#adc59cf67d903c1ba1ef225561b85bfce" target="_top" xlink:title="IsMine">
<polygon fill="white" stroke="black" points="448,-432 448,-451 494,-451 494,-432 448,-432"/>
<text text-anchor="middle" x="471" y="-439" font-family="Helvetica,sans-Serif" font-size="10.00">IsMine</text>
</a>
</g>
</g>
<!-- Node19&#45;&gt;Node20 -->
<g id="edge19" class="edge"><title>Node19&#45;&gt;Node20</title>
<path fill="none" stroke="midnightblue" d="M311.856,-506.849C344.062,-493.541 402.209,-469.513 438.311,-454.595"/>
<polygon fill="midnightblue" stroke="midnightblue" points="439.964,-457.699 447.869,-450.645 437.291,-451.229 439.964,-457.699"/>
</g>
<!-- Node21 -->
<g id="node21" class="node"><title>Node21</title>
<g id="a_node21"><a xlink:href="class_c_wallet_d_b.html#a8d4e8d73b977dc62c137bd3543c278bf" target="_top" xlink:title="CWalletDB::WritePurpose">
<polygon fill="white" stroke="black" points="405,-526 405,-545 537,-545 537,-526 405,-526"/>
<text text-anchor="middle" x="471" y="-533" font-family="Helvetica,sans-Serif" font-size="10.00">CWalletDB::WritePurpose</text>
</a>
</g>
</g>
<!-- Node19&#45;&gt;Node21 -->
<g id="edge22" class="edge"><title>Node19&#45;&gt;Node21</title>
<path fill="none" stroke="midnightblue" d="M353.513,-523.306C366.806,-524.697 380.903,-526.173 394.526,-527.599"/>
<polygon fill="midnightblue" stroke="midnightblue" points="394.521,-531.118 404.831,-528.678 395.25,-524.156 394.521,-531.118"/>
</g>
<!-- Node22 -->
<g id="node22" class="node"><title>Node22</title>
<g id="a_node22"><a xlink:href="class_c_wallet_d_b.html#ad1b3bce77e9dd6ddd8c668a469c38f0a" target="_top" xlink:title="CWalletDB::WriteName">
<polygon fill="white" stroke="black" points="410.5,-488 410.5,-507 531.5,-507 531.5,-488 410.5,-488"/>
<text text-anchor="middle" x="471" y="-495" font-family="Helvetica,sans-Serif" font-size="10.00">CWalletDB::WriteName</text>
</a>
</g>
</g>
<!-- Node19&#45;&gt;Node22 -->
<g id="edge23" class="edge"><title>Node19&#45;&gt;Node22</title>
<path fill="none" stroke="midnightblue" d="M353.513,-509.694C368.699,-508.104 384.934,-506.405 400.314,-504.795"/>
<polygon fill="midnightblue" stroke="midnightblue" points="400.696,-508.274 410.277,-503.752 399.967,-501.312 400.696,-508.274"/>
</g>
<!-- Node20&#45;&gt;Node10 -->
<g id="edge20" class="edge"><title>Node20&#45;&gt;Node10</title>
<path fill="none" stroke="midnightblue" d="M494.323,-450.539C522.136,-461.801 569.901,-481.141 601.959,-494.121"/>
<polygon fill="midnightblue" stroke="midnightblue" points="600.781,-497.42 611.364,-497.929 603.408,-490.932 600.781,-497.42"/>
</g>
<!-- Node20&#45;&gt;Node20 -->
<g id="edge21" class="edge"><title>Node20&#45;&gt;Node20</title>
<path fill="none" stroke="midnightblue" d="M447.938,-449.812C432.562,-459 440.25,-469.5 471,-469.5 494.062,-469.5 504.152,-463.594 501.27,-456.765"/>
<polygon fill="midnightblue" stroke="midnightblue" points="503.69,-454.236 494.062,-449.812 498.83,-459.274 503.69,-454.236"/>
</g>
<!-- Node24 -->
<g id="node24" class="node"><title>Node24</title>
<g id="a_node24"><a xlink:href="classpayments_1_1_payment.html#aa3701100f4d4a3c80e265c3a53e04939" target="_top" xlink:title="payments::Payment::\lhas_merchant_data">
<polygon fill="white" stroke="black" points="416,-0.5 416,-30.5 526,-30.5 526,-0.5 416,-0.5"/>
<text text-anchor="start" x="424" y="-18.5" font-family="Helvetica,sans-Serif" font-size="10.00">payments::Payment::</text>
<text text-anchor="middle" x="471" y="-7.5" font-family="Helvetica,sans-Serif" font-size="10.00">has_merchant_data</text>
</a>
</g>
</g>
<!-- Node23&#45;&gt;Node24 -->
<g id="edge25" class="edge"><title>Node23&#45;&gt;Node24</title>
<path fill="none" stroke="midnightblue" d="M293.181,-220.33C305.195,-183.849 340.569,-90.4696 402,-39.5 403.554,-38.211 405.181,-36.9891 406.868,-35.831"/>
<polygon fill="midnightblue" stroke="midnightblue" points="408.918,-38.6838 415.715,-30.5571 405.333,-32.6709 408.918,-38.6838"/>
</g>
<!-- Node25 -->
<g id="node25" class="node"><title>Node25</title>
<g id="a_node25"><a xlink:href="classpayments_1_1_payment.html#a306c3f432a874efc400f8ab9866deea6" target="_top" xlink:title="payments::Payment::\lmerchant_data">
<polygon fill="white" stroke="black" points="416,-382.5 416,-412.5 526,-412.5 526,-382.5 416,-382.5"/>
<text text-anchor="start" x="424" y="-400.5" font-family="Helvetica,sans-Serif" font-size="10.00">payments::Payment::</text>
<text text-anchor="middle" x="471" y="-389.5" font-family="Helvetica,sans-Serif" font-size="10.00">merchant_data</text>
</a>
</g>
</g>
<!-- Node23&#45;&gt;Node25 -->
<g id="edge26" class="edge"><title>Node23&#45;&gt;Node25</title>
<path fill="none" stroke="midnightblue" d="M297.421,-250.923C314.362,-278.939 353.837,-338.433 402,-372.5 404.67,-374.388 407.499,-376.151 410.427,-377.794"/>
<polygon fill="midnightblue" stroke="midnightblue" points="408.948,-380.969 419.45,-382.371 412.115,-374.726 408.948,-380.969"/>
</g>
<!-- Node26 -->
<g id="node26" class="node"><title>Node26</title>
<g id="a_node26"><a xlink:href="classpayments_1_1_payment.html#a8852f9537d84d2ed4809d1571e9e0005" target="_top" xlink:title="payments::Payment::\lhas_memo">
<polygon fill="white" stroke="black" points="416,-333.5 416,-363.5 526,-363.5 526,-333.5 416,-333.5"/>
<text text-anchor="start" x="424" y="-351.5" font-family="Helvetica,sans-Serif" font-size="10.00">payments::Payment::</text>
<text text-anchor="middle" x="471" y="-340.5" font-family="Helvetica,sans-Serif" font-size="10.00">has_memo</text>
</a>
</g>
</g>
<!-- Node23&#45;&gt;Node26 -->
<g id="edge27" class="edge"><title>Node23&#45;&gt;Node26</title>
<path fill="none" stroke="midnightblue" d="M304.657,-250.661C325.7,-269.757 364.268,-302.596 402,-323.5 405.713,-325.557 409.629,-327.507 413.63,-329.341"/>
<polygon fill="midnightblue" stroke="midnightblue" points="412.496,-332.663 423.064,-333.408 415.267,-326.235 412.496,-332.663"/>
</g>
<!-- Node27 -->
<g id="node27" class="node"><title>Node27</title>
<g id="a_node27"><a xlink:href="classpayments_1_1_payment.html#adf7663d6eead276ed5a9d3a15e5fc44e" target="_top" xlink:title="payments::Payment::memo">
<polygon fill="white" stroke="black" points="402,-295 402,-314 540,-314 540,-295 402,-295"/>
<text text-anchor="middle" x="471" y="-302" font-family="Helvetica,sans-Serif" font-size="10.00">payments::Payment::memo</text>
</a>
</g>
</g>
<!-- Node23&#45;&gt;Node27 -->
<g id="edge28" class="edge"><title>Node23&#45;&gt;Node27</title>
<path fill="none" stroke="midnightblue" d="M320.858,-250.718C343.339,-260.981 374.145,-274.433 402,-284.5 409.242,-287.117 417.007,-289.65 424.606,-291.983"/>
<polygon fill="midnightblue" stroke="midnightblue" points="423.859,-295.413 434.443,-294.926 425.865,-288.707 423.859,-295.413"/>
</g>
<!-- Node28 -->
<g id="node28" class="node"><title>Node28</title>
<g id="a_node28"><a xlink:href="classpayments_1_1_payment.html#a2a0d53760bf777332ed1fe36ff01559f" target="_top" xlink:title="payments::Payment::\ltransactions_size">
<polygon fill="white" stroke="black" points="416,-245.5 416,-275.5 526,-275.5 526,-245.5 416,-245.5"/>
<text text-anchor="start" x="424" y="-263.5" font-family="Helvetica,sans-Serif" font-size="10.00">payments::Payment::</text>
<text text-anchor="middle" x="471" y="-252.5" font-family="Helvetica,sans-Serif" font-size="10.00">transactions_size</text>
</a>
</g>
</g>
<!-- Node23&#45;&gt;Node28 -->
<g id="edge29" class="edge"><title>Node23&#45;&gt;Node28</title>
<path fill="none" stroke="midnightblue" d="M342.956,-243.001C362.787,-245.732 385.387,-248.845 405.973,-251.681"/>
<polygon fill="midnightblue" stroke="midnightblue" points="405.511,-255.15 415.895,-253.048 406.467,-248.216 405.511,-255.15"/>
</g>
<!-- Node29 -->
<g id="node29" class="node"><title>Node29</title>
<g id="a_node29"><a xlink:href="classpayments_1_1_payment.html#a289486488710f1e77cdcdc3849a5c212" target="_top" xlink:title="payments::Payment::\ltransactions">
<polygon fill="white" stroke="black" points="416,-196.5 416,-226.5 526,-226.5 526,-196.5 416,-196.5"/>
<text text-anchor="start" x="424" y="-214.5" font-family="Helvetica,sans-Serif" font-size="10.00">payments::Payment::</text>
<text text-anchor="middle" x="471" y="-203.5" font-family="Helvetica,sans-Serif" font-size="10.00">transactions</text>
</a>
</g>
</g>
<!-- Node23&#45;&gt;Node29 -->
<g id="edge30" class="edge"><title>Node23&#45;&gt;Node29</title>
<path fill="none" stroke="midnightblue" d="M342.956,-228.299C362.787,-225.677 385.387,-222.689 405.973,-219.966"/>
<polygon fill="midnightblue" stroke="midnightblue" points="406.441,-223.435 415.895,-218.654 405.523,-216.496 406.441,-223.435"/>
</g>
<!-- Node30 -->
<g id="node30" class="node"><title>Node30</title>
<g id="a_node30"><a xlink:href="classpayments_1_1_payment.html#a657df3e2560d69a7451d27098595edca" target="_top" xlink:title="payments::Payment::\lrefund_to_size">
<polygon fill="white" stroke="black" points="416,-147.5 416,-177.5 526,-177.5 526,-147.5 416,-147.5"/>
<text text-anchor="start" x="424" y="-165.5" font-family="Helvetica,sans-Serif" font-size="10.00">payments::Payment::</text>
<text text-anchor="middle" x="471" y="-154.5" font-family="Helvetica,sans-Serif" font-size="10.00">refund_to_size</text>
</a>
</g>
</g>
<!-- Node23&#45;&gt;Node30 -->
<g id="edge31" class="edge"><title>Node23&#45;&gt;Node30</title>
<path fill="none" stroke="midnightblue" d="M322.022,-220.313C344.488,-210.312 374.822,-197.148 402,-186.5 406.688,-184.663 411.582,-182.811 416.5,-180.994"/>
<polygon fill="midnightblue" stroke="midnightblue" points="417.743,-184.266 425.942,-177.556 415.348,-177.689 417.743,-184.266"/>
</g>
<!-- Node31 -->
<g id="node31" class="node"><title>Node31</title>
<g id="a_node31"><a xlink:href="classpayments_1_1_payment.html#ad8154308960a21e22f7bdc7033ef7170" target="_top" xlink:title="payments::Payment::\lrefund_to">
<polygon fill="white" stroke="black" points="416,-98.5 416,-128.5 526,-128.5 526,-98.5 416,-98.5"/>
<text text-anchor="start" x="424" y="-116.5" font-family="Helvetica,sans-Serif" font-size="10.00">payments::Payment::</text>
<text text-anchor="middle" x="471" y="-105.5" font-family="Helvetica,sans-Serif" font-size="10.00">refund_to</text>
</a>
</g>
</g>
<!-- Node23&#45;&gt;Node31 -->
<g id="edge32" class="edge"><title>Node23&#45;&gt;Node31</title>
<path fill="none" stroke="midnightblue" d="M302.527,-220.228C322.703,-199.051 361.919,-160.757 402,-137.5 404.87,-135.835 407.874,-134.257 410.954,-132.767"/>
<polygon fill="midnightblue" stroke="midnightblue" points="412.664,-135.836 420.363,-128.558 409.806,-129.447 412.664,-135.836"/>
</g>
<!-- Node32 -->
<g id="node32" class="node"><title>Node32</title>
<g id="a_node32"><a xlink:href="classpayments_1_1_payment.html#ab2e68a5e02a04abc6f44194dea9716b8" target="_top" xlink:title="payments::Payment::\lunknown_fields">
<polygon fill="white" stroke="black" points="416,-49.5 416,-79.5 526,-79.5 526,-49.5 416,-49.5"/>
<text text-anchor="start" x="424" y="-67.5" font-family="Helvetica,sans-Serif" font-size="10.00">payments::Payment::</text>
<text text-anchor="middle" x="471" y="-56.5" font-family="Helvetica,sans-Serif" font-size="10.00">unknown_fields</text>
</a>
</g>
</g>
<!-- Node23&#45;&gt;Node32 -->
<g id="edge33" class="edge"><title>Node23&#45;&gt;Node32</title>
<path fill="none" stroke="midnightblue" d="M296.33,-220.261C312.272,-190.678 351.321,-125.164 402,-88.5 403.896,-87.1287 405.877,-85.8297 407.921,-84.5998"/>
<polygon fill="midnightblue" stroke="midnightblue" points="410.042,-87.4351 417.217,-79.6394 406.747,-81.2593 410.042,-87.4351"/>
</g>
</g>
</svg>
