<?xml version="1.0" encoding="UTF-8" standalone="no"?>
<!DOCTYPE svg PUBLIC "-//W3C//DTD SVG 1.1//EN"
 "http://www.w3.org/Graphics/SVG/1.1/DTD/svg11.dtd">
<!-- Generated by graphviz version 2.38.0 (20140413.2041)
 -->
<!-- Title: payments::PaymentDetails::set_allocated_payment_url Pages: 1 -->
<svg width="321pt" height="137pt"
 viewBox="0.00 0.00 321.00 137.00" xmlns="http://www.w3.org/2000/svg" xmlns:xlink="http://www.w3.org/1999/xlink">
<g id="graph0" class="graph" transform="scale(1 1) rotate(0) translate(4 133)">
<title>payments::PaymentDetails::set_allocated_payment_url</title>
<polygon fill="white" stroke="none" points="-4,4 -4,-133 317,-133 317,4 -4,4"/>
<!-- Node1 -->
<g id="node1" class="node"><title>Node1</title>
<polygon fill="#bfbfbf" stroke="black" points="0,-49.5 0,-79.5 142,-79.5 142,-49.5 0,-49.5"/>
<text text-anchor="start" x="8" y="-67.5" font-family="Helvetica,sans-Serif" font-size="10.00">payments::PaymentDetails</text>
<text text-anchor="middle" x="71" y="-56.5" font-family="Helvetica,sans-Serif" font-size="10.00">::set_allocated_payment_url</text>
</g>
<!-- Node2 -->
<g id="node2" class="node"><title>Node2</title>
<g id="a_node2"><a xlink:href="classpayments_1_1_payment_details.html#ab566f44ee9f9a7961dbe8f430602e539" target="_top" xlink:title="payments::PaymentDetails\l::set_has_payment_url">
<polygon fill="white" stroke="black" points="178,-98.5 178,-128.5 313,-128.5 313,-98.5 178,-98.5"/>
<text text-anchor="start" x="186" y="-116.5" font-family="Helvetica,sans-Serif" font-size="10.00">payments::PaymentDetails</text>
<text text-anchor="middle" x="245.5" y="-105.5" font-family="Helvetica,sans-Serif" font-size="10.00">::set_has_payment_url</text>
</a>
</g>
</g>
<!-- Node1&#45;&gt;Node2 -->
<g id="edge1" class="edge"><title>Node1&#45;&gt;Node2</title>
<path fill="none" stroke="midnightblue" d="M125.163,-79.6014C143.037,-84.6785 163.144,-90.3902 181.688,-95.6577"/>
<polygon fill="midnightblue" stroke="midnightblue" points="180.936,-99.0827 191.512,-98.4484 182.849,-92.3491 180.936,-99.0827"/>
</g>
<!-- Node3 -->
<g id="node3" class="node"><title>Node3</title>
<g id="a_node3"><a xlink:href="classpayments_1_1_payment_details.html#abf568d7f349cf822d99e69d1424c5099" target="_top" xlink:title="payments::PaymentDetails\l::payment_url">
<polygon fill="white" stroke="black" points="178,-49.5 178,-79.5 313,-79.5 313,-49.5 178,-49.5"/>
<text text-anchor="start" x="186" y="-67.5" font-family="Helvetica,sans-Serif" font-size="10.00">payments::PaymentDetails</text>
<text text-anchor="middle" x="245.5" y="-56.5" font-family="Helvetica,sans-Serif" font-size="10.00">::payment_url</text>
</a>
</g>
</g>
<!-- Node1&#45;&gt;Node3 -->
<g id="edge2" class="edge"><title>Node1&#45;&gt;Node3</title>
<path fill="none" stroke="midnightblue" d="M142.162,-64.5C150.518,-64.5 159.082,-64.5 167.527,-64.5"/>
<polygon fill="midnightblue" stroke="midnightblue" points="167.745,-68.0001 177.745,-64.5 167.745,-61.0001 167.745,-68.0001"/>
</g>
<!-- Node4 -->
<g id="node4" class="node"><title>Node4</title>
<g id="a_node4"><a xlink:href="classpayments_1_1_payment_details.html#aa95ff6fa704ede82cba04f2dab185513" target="_top" xlink:title="payments::PaymentDetails\l::clear_has_payment_url">
<polygon fill="white" stroke="black" points="178,-0.5 178,-30.5 313,-30.5 313,-0.5 178,-0.5"/>
<text text-anchor="start" x="186" y="-18.5" font-family="Helvetica,sans-Serif" font-size="10.00">payments::PaymentDetails</text>
<text text-anchor="middle" x="245.5" y="-7.5" font-family="Helvetica,sans-Serif" font-size="10.00">::clear_has_payment_url</text>
</a>
</g>
</g>
<!-- Node1&#45;&gt;Node4 -->
<g id="edge3" class="edge"><title>Node1&#45;&gt;Node4</title>
<path fill="none" stroke="midnightblue" d="M125.163,-49.3986C143.037,-44.3215 163.144,-38.6098 181.688,-33.3423"/>
<polygon fill="midnightblue" stroke="midnightblue" points="182.849,-36.6509 191.512,-30.5516 180.936,-29.9173 182.849,-36.6509"/>
</g>
</g>
</svg>
