<?xml version="1.0" encoding="UTF-8" standalone="no"?>
<!DOCTYPE svg PUBLIC "-//W3C//DTD SVG 1.1//EN"
 "http://www.w3.org/Graphics/SVG/1.1/DTD/svg11.dtd">
<!-- Generated by graphviz version 2.38.0 (20140413.2041)
 -->
<!-- Title: CCheckQueue::Loop Pages: 1 -->
<svg width="1070pt" height="123pt"
 viewBox="0.00 0.00 1070.00 123.00" xmlns="http://www.w3.org/2000/svg" xmlns:xlink="http://www.w3.org/1999/xlink">
<g id="graph0" class="graph" transform="scale(1 1) rotate(0) translate(4 119)">
<title>CCheckQueue::Loop</title>
<polygon fill="white" stroke="none" points="-4,4 -4,-119 1066,-119 1066,4 -4,4"/>
<!-- Node1 -->
<g id="node1" class="node"><title>Node1</title>
<polygon fill="#bfbfbf" stroke="black" points="0,-60.5 0,-79.5 110,-79.5 110,-60.5 0,-60.5"/>
<text text-anchor="middle" x="55" y="-67.5" font-family="Helvetica,sans-Serif" font-size="10.00">CCheckQueue::Loop</text>
</g>
<!-- Node2 -->
<g id="node2" class="node"><title>Node2</title>
<g id="a_node2"><a xlink:href="class_c_check_queue.html#ad3602cd305b07612e634363b31c1d46c" target="_top" xlink:title="CCheckQueue::Thread">
<polygon fill="white" stroke="black" points="146,-79.5 146,-98.5 265,-98.5 265,-79.5 146,-79.5"/>
<text text-anchor="middle" x="205.5" y="-86.5" font-family="Helvetica,sans-Serif" font-size="10.00">CCheckQueue::Thread</text>
</a>
</g>
</g>
<!-- Node1&#45;&gt;Node2 -->
<g id="edge1" class="edge"><title>Node1&#45;&gt;Node2</title>
<path fill="none" stroke="midnightblue" d="M120.041,-78.1938C128.665,-79.2972 137.477,-80.4246 145.998,-81.5149"/>
<polygon fill="midnightblue" stroke="midnightblue" points="120.395,-74.7107 110.032,-76.9132 119.507,-81.6541 120.395,-74.7107"/>
</g>
<!-- Node3 -->
<g id="node3" class="node"><title>Node3</title>
<g id="a_node3"><a xlink:href="class_c_check_queue.html#a4ff3e0e8241491efa1803eeb3a53e7fa" target="_top" xlink:title="CCheckQueue::Wait">
<polygon fill="white" stroke="black" points="151.5,-41.5 151.5,-60.5 259.5,-60.5 259.5,-41.5 151.5,-41.5"/>
<text text-anchor="middle" x="205.5" y="-48.5" font-family="Helvetica,sans-Serif" font-size="10.00">CCheckQueue::Wait</text>
</a>
</g>
</g>
<!-- Node1&#45;&gt;Node3 -->
<g id="edge2" class="edge"><title>Node1&#45;&gt;Node3</title>
<path fill="none" stroke="midnightblue" d="M120.257,-61.7786C130.6,-60.4553 141.206,-59.0982 151.254,-57.8127"/>
<polygon fill="midnightblue" stroke="midnightblue" points="119.507,-58.3459 110.032,-63.0868 120.395,-65.2893 119.507,-58.3459"/>
</g>
<!-- Node4 -->
<g id="node4" class="node"><title>Node4</title>
<g id="a_node4"><a xlink:href="class_c_check_queue_control.html#ab31d809a76b876d21608c0c5d0e3baf0" target="_top" xlink:title="CCheckQueueControl\l::Wait">
<polygon fill="white" stroke="black" points="301,-36 301,-66 415,-66 415,-36 301,-36"/>
<text text-anchor="start" x="309" y="-54" font-family="Helvetica,sans-Serif" font-size="10.00">CCheckQueueControl</text>
<text text-anchor="middle" x="358" y="-43" font-family="Helvetica,sans-Serif" font-size="10.00">::Wait</text>
</a>
</g>
</g>
<!-- Node3&#45;&gt;Node4 -->
<g id="edge3" class="edge"><title>Node3&#45;&gt;Node4</title>
<path fill="none" stroke="midnightblue" d="M269.752,-51C280.076,-51 290.709,-51 300.847,-51"/>
<polygon fill="midnightblue" stroke="midnightblue" points="269.561,-47.5001 259.561,-51 269.561,-54.5001 269.561,-47.5001"/>
</g>
<!-- Node5 -->
<g id="node5" class="node"><title>Node5</title>
<g id="a_node5"><a xlink:href="class_c_check_queue_control.html#afc8a9f044b4559a04ff3569cff5d2f94" target="_top" xlink:title="CCheckQueueControl\l::~CCheckQueueControl">
<polygon fill="white" stroke="black" points="451,-58 451,-88 577,-88 577,-58 451,-58"/>
<text text-anchor="start" x="459" y="-76" font-family="Helvetica,sans-Serif" font-size="10.00">CCheckQueueControl</text>
<text text-anchor="middle" x="514" y="-65" font-family="Helvetica,sans-Serif" font-size="10.00">::~CCheckQueueControl</text>
</a>
</g>
</g>
<!-- Node4&#45;&gt;Node5 -->
<g id="edge4" class="edge"><title>Node4&#45;&gt;Node5</title>
<path fill="none" stroke="midnightblue" d="M424.967,-60.4238C433.523,-61.6462 442.265,-62.895 450.759,-64.1084"/>
<polygon fill="midnightblue" stroke="midnightblue" points="425.428,-56.9542 415.033,-59.0047 424.438,-63.8839 425.428,-56.9542"/>
</g>
<!-- Node6 -->
<g id="node6" class="node"><title>Node6</title>
<g id="a_node6"><a xlink:href="main_8h.html#ae478a2e37bd5c3ac735f30cc12cc7f8b" target="_top" xlink:title="ConnectBlock">
<polygon fill="white" stroke="black" points="475,-19.5 475,-38.5 553,-38.5 553,-19.5 475,-19.5"/>
<text text-anchor="middle" x="514" y="-26.5" font-family="Helvetica,sans-Serif" font-size="10.00">ConnectBlock</text>
</a>
</g>
</g>
<!-- Node4&#45;&gt;Node6 -->
<g id="edge5" class="edge"><title>Node4&#45;&gt;Node6</title>
<path fill="none" stroke="midnightblue" d="M425.38,-41.5171C442.188,-39.116 459.684,-36.6166 474.581,-34.4884"/>
<polygon fill="midnightblue" stroke="midnightblue" points="424.438,-38.1161 415.033,-42.9953 425.428,-45.0458 424.438,-38.1161"/>
</g>
<!-- Node7 -->
<g id="node7" class="node"><title>Node7</title>
<g id="a_node7"><a xlink:href="main_8h.html#abfcd613b1eaa02bc626b1c3cb098fc4a" target="_top" xlink:title="Verify consistency of the block and coin databases. ">
<polygon fill="white" stroke="black" points="630.5,-38.5 630.5,-57.5 686.5,-57.5 686.5,-38.5 630.5,-38.5"/>
<text text-anchor="middle" x="658.5" y="-45.5" font-family="Helvetica,sans-Serif" font-size="10.00">VerifyDB</text>
</a>
</g>
</g>
<!-- Node6&#45;&gt;Node7 -->
<g id="edge6" class="edge"><title>Node6&#45;&gt;Node7</title>
<path fill="none" stroke="midnightblue" d="M563.225,-35.43C585.676,-38.4235 611.544,-41.8726 630.498,-44.3997"/>
<polygon fill="midnightblue" stroke="midnightblue" points="563.562,-31.9441 553.187,-34.0917 562.637,-38.8827 563.562,-31.9441"/>
</g>
<!-- Node13 -->
<g id="node13" class="node"><title>Node13</title>
<g id="a_node13"><a xlink:href="miner_8h.html#af441d1c1899839f4e3cc0ee1367914a5" target="_top" xlink:title="Generate a new block, without valid proof&#45;of&#45;work. ">
<polygon fill="white" stroke="black" points="613,-0.5 613,-19.5 704,-19.5 704,-0.5 613,-0.5"/>
<text text-anchor="middle" x="658.5" y="-7.5" font-family="Helvetica,sans-Serif" font-size="10.00">CreateNewBlock</text>
</a>
</g>
</g>
<!-- Node6&#45;&gt;Node13 -->
<g id="edge12" class="edge"><title>Node6&#45;&gt;Node13</title>
<path fill="none" stroke="midnightblue" d="M563.424,-22.5435C579.438,-20.4083 597.172,-18.0437 612.887,-15.9484"/>
<polygon fill="midnightblue" stroke="midnightblue" points="562.637,-19.1173 553.187,-23.9083 563.562,-26.0559 562.637,-19.1173"/>
</g>
<!-- Node8 -->
<g id="node8" class="node"><title>Node8</title>
<g id="a_node8"><a xlink:href="init_8h.html#a1a4c1bfbf6ba1db77e988b89b9cadfd3" target="_top" xlink:title="Initialize anoncoin. ">
<polygon fill="white" stroke="black" points="759.5,-76.5 759.5,-95.5 812.5,-95.5 812.5,-76.5 759.5,-76.5"/>
<text text-anchor="middle" x="786" y="-83.5" font-family="Helvetica,sans-Serif" font-size="10.00">AppInit2</text>
</a>
</g>
</g>
<!-- Node7&#45;&gt;Node8 -->
<g id="edge7" class="edge"><title>Node7&#45;&gt;Node8</title>
<path fill="none" stroke="midnightblue" d="M696.514,-59.2076C716.638,-65.3008 741.033,-72.6874 759.108,-78.1602"/>
<polygon fill="midnightblue" stroke="midnightblue" points="697.317,-55.7936 686.732,-56.2454 695.288,-62.4933 697.317,-55.7936"/>
</g>
<!-- Node12 -->
<g id="node12" class="node"><title>Node12</title>
<g id="a_node12"><a xlink:href="rpcblockchain_8cpp.html#a0b1dd8862fc7292c243ad9489f96a3c8" target="_top" xlink:title="verifychain">
<polygon fill="white" stroke="black" points="754,-38.5 754,-57.5 818,-57.5 818,-38.5 754,-38.5"/>
<text text-anchor="middle" x="786" y="-45.5" font-family="Helvetica,sans-Serif" font-size="10.00">verifychain</text>
</a>
</g>
</g>
<!-- Node7&#45;&gt;Node12 -->
<g id="edge11" class="edge"><title>Node7&#45;&gt;Node12</title>
<path fill="none" stroke="midnightblue" d="M696.961,-48C715.098,-48 736.619,-48 753.844,-48"/>
<polygon fill="midnightblue" stroke="midnightblue" points="696.732,-44.5001 686.732,-48 696.732,-51.5001 696.732,-44.5001"/>
</g>
<!-- Node9 -->
<g id="node9" class="node"><title>Node9</title>
<g id="a_node9"><a xlink:href="anoncoind_8cpp.html#ac59316b767e6984e1285f0531275286b" target="_top" xlink:title="AppInit">
<polygon fill="white" stroke="black" points="904,-95.5 904,-114.5 952,-114.5 952,-95.5 904,-95.5"/>
<text text-anchor="middle" x="928" y="-102.5" font-family="Helvetica,sans-Serif" font-size="10.00">AppInit</text>
</a>
</g>
</g>
<!-- Node8&#45;&gt;Node9 -->
<g id="edge8" class="edge"><title>Node8&#45;&gt;Node9</title>
<path fill="none" stroke="midnightblue" d="M822.703,-90.8453C848.189,-94.3042 881.731,-98.8564 903.808,-101.853"/>
<polygon fill="midnightblue" stroke="midnightblue" points="823.058,-87.3616 812.678,-89.4849 822.117,-94.298 823.058,-87.3616"/>
</g>
<!-- Node11 -->
<g id="node11" class="node"><title>Node11</title>
<g id="a_node11"><a xlink:href="class_anoncoin_coin.html#a9510881824d283404ac43414dbb74586" target="_top" xlink:title="AnoncoinCoin::initialize">
<polygon fill="white" stroke="black" points="868,-57.5 868,-76.5 988,-76.5 988,-57.5 868,-57.5"/>
<text text-anchor="middle" x="928" y="-64.5" font-family="Helvetica,sans-Serif" font-size="10.00">AnoncoinCoin::initialize</text>
</a>
</g>
</g>
<!-- Node8&#45;&gt;Node11 -->
<g id="edge10" class="edge"><title>Node8&#45;&gt;Node11</title>
<path fill="none" stroke="midnightblue" d="M822.663,-81.16C836.383,-79.298 852.443,-77.1185 867.792,-75.0353"/>
<polygon fill="midnightblue" stroke="midnightblue" points="822.117,-77.702 812.678,-82.5151 823.058,-84.6384 822.117,-77.702"/>
</g>
<!-- Node10 -->
<g id="node10" class="node"><title>Node10</title>
<g id="a_node10"><a xlink:href="anoncoind_8cpp.html#a0ddf1224851353fc92bfbff6f499fa97" target="_top" xlink:title="main">
<polygon fill="white" stroke="black" points="1024,-95.5 1024,-114.5 1062,-114.5 1062,-95.5 1024,-95.5"/>
<text text-anchor="middle" x="1043" y="-102.5" font-family="Helvetica,sans-Serif" font-size="10.00">main</text>
</a>
</g>
</g>
<!-- Node9&#45;&gt;Node10 -->
<g id="edge9" class="edge"><title>Node9&#45;&gt;Node10</title>
<path fill="none" stroke="midnightblue" d="M962.146,-105C982.247,-105 1007.13,-105 1023.73,-105"/>
<polygon fill="midnightblue" stroke="midnightblue" points="962.14,-101.5 952.14,-105 962.14,-108.5 962.14,-101.5"/>
</g>
<!-- Node14 -->
<g id="node14" class="node"><title>Node14</title>
<g id="a_node14"><a xlink:href="rpcmining_8cpp.html#a27347eecedd59156c914fcb5ce488f9a" target="_top" xlink:title="getblocktemplate">
<polygon fill="white" stroke="black" points="740,-0.5 740,-19.5 832,-19.5 832,-0.5 740,-0.5"/>
<text text-anchor="middle" x="786" y="-7.5" font-family="Helvetica,sans-Serif" font-size="10.00">getblocktemplate</text>
</a>
</g>
</g>
<!-- Node13&#45;&gt;Node14 -->
<g id="edge13" class="edge"><title>Node13&#45;&gt;Node14</title>
<path fill="none" stroke="midnightblue" d="M714.302,-10C722.782,-10 731.457,-10 739.697,-10"/>
<polygon fill="midnightblue" stroke="midnightblue" points="714.1,-6.5001 704.1,-10 714.1,-13.5001 714.1,-6.5001"/>
</g>
</g>
</svg>
