<?xml version="1.0" encoding="UTF-8" standalone="no"?>
<!DOCTYPE svg PUBLIC "-//W3C//DTD SVG 1.1//EN"
 "http://www.w3.org/Graphics/SVG/1.1/DTD/svg11.dtd">
<!-- Generated by graphviz version 2.38.0 (20140413.2041)
 -->
<!-- Title: payments::PaymentACK::memo Pages: 1 -->
<svg width="842pt" height="345pt"
 viewBox="0.00 0.00 842.00 345.00" xmlns="http://www.w3.org/2000/svg" xmlns:xlink="http://www.w3.org/1999/xlink">
<g id="graph0" class="graph" transform="scale(1 1) rotate(0) translate(4 341)">
<title>payments::PaymentACK::memo</title>
<polygon fill="white" stroke="none" points="-4,4 -4,-341 838,-341 838,4 -4,4"/>
<!-- Node1 -->
<g id="node1" class="node"><title>Node1</title>
<polygon fill="#bfbfbf" stroke="black" points="0,-147.5 0,-177.5 125,-177.5 125,-147.5 0,-147.5"/>
<text text-anchor="start" x="8" y="-165.5" font-family="Helvetica,sans-Serif" font-size="10.00">payments::PaymentACK</text>
<text text-anchor="middle" x="62.5" y="-154.5" font-family="Helvetica,sans-Serif" font-size="10.00">::memo</text>
</g>
<!-- Node2 -->
<g id="node2" class="node"><title>Node2</title>
<g id="a_node2"><a xlink:href="classpayments_1_1_payment_a_c_k.html#a5adcd0074f01127d001b88747a6cb3c8" target="_top" xlink:title="payments::PaymentACK\l::MergePartialFromCodedStream">
<polygon fill="white" stroke="black" points="161,-306.5 161,-336.5 325,-336.5 325,-306.5 161,-306.5"/>
<text text-anchor="start" x="169" y="-324.5" font-family="Helvetica,sans-Serif" font-size="10.00">payments::PaymentACK</text>
<text text-anchor="middle" x="243" y="-313.5" font-family="Helvetica,sans-Serif" font-size="10.00">::MergePartialFromCodedStream</text>
</a>
</g>
</g>
<!-- Node1&#45;&gt;Node2 -->
<g id="edge1" class="edge"><title>Node1&#45;&gt;Node2</title>
<path fill="none" stroke="midnightblue" d="M74.6676,-186.618C89.9282,-216.943 120.138,-268.532 161,-297.5 165.786,-300.893 171.054,-303.811 176.536,-306.321"/>
<polygon fill="midnightblue" stroke="midnightblue" points="77.7821,-185.019 70.2436,-177.574 71.4942,-188.095 77.7821,-185.019"/>
</g>
<!-- Node3 -->
<g id="node3" class="node"><title>Node3</title>
<g id="a_node3"><a xlink:href="classpayments_1_1_payment_a_c_k.html#a9fb74499132df2d3f01d0dc74b074907" target="_top" xlink:title="payments::PaymentACK\l::SerializeWithCachedSizes">
<polygon fill="white" stroke="black" points="173.5,-257.5 173.5,-287.5 312.5,-287.5 312.5,-257.5 173.5,-257.5"/>
<text text-anchor="start" x="181.5" y="-275.5" font-family="Helvetica,sans-Serif" font-size="10.00">payments::PaymentACK</text>
<text text-anchor="middle" x="243" y="-264.5" font-family="Helvetica,sans-Serif" font-size="10.00">::SerializeWithCachedSizes</text>
</a>
</g>
</g>
<!-- Node1&#45;&gt;Node3 -->
<g id="edge2" class="edge"><title>Node1&#45;&gt;Node3</title>
<path fill="none" stroke="midnightblue" d="M83.9167,-184.944C102.379,-204.021 131.17,-230.885 161,-247.5 167.814,-251.295 175.279,-254.591 182.832,-257.431"/>
<polygon fill="midnightblue" stroke="midnightblue" points="86.3209,-182.393 76.898,-177.55 81.2439,-187.212 86.3209,-182.393"/>
</g>
<!-- Node4 -->
<g id="node4" class="node"><title>Node4</title>
<g id="a_node4"><a xlink:href="classpayments_1_1_payment_a_c_k.html#a46494e35454c17a5fc5f1260cca0c85e" target="_top" xlink:title="payments::PaymentACK\l::SerializeWithCachedSizesTo\lArray">
<polygon fill="white" stroke="black" points="167.5,-197 167.5,-238 318.5,-238 318.5,-197 167.5,-197"/>
<text text-anchor="start" x="175.5" y="-226" font-family="Helvetica,sans-Serif" font-size="10.00">payments::PaymentACK</text>
<text text-anchor="start" x="175.5" y="-215" font-family="Helvetica,sans-Serif" font-size="10.00">::SerializeWithCachedSizesTo</text>
<text text-anchor="middle" x="243" y="-204" font-family="Helvetica,sans-Serif" font-size="10.00">Array</text>
</a>
</g>
</g>
<!-- Node1&#45;&gt;Node4 -->
<g id="edge3" class="edge"><title>Node1&#45;&gt;Node4</title>
<path fill="none" stroke="midnightblue" d="M122.067,-180.546C139.065,-185.783 157.754,-191.542 175.216,-196.922"/>
<polygon fill="midnightblue" stroke="midnightblue" points="122.863,-177.129 112.276,-177.529 120.802,-183.819 122.863,-177.129"/>
</g>
<!-- Node5 -->
<g id="node5" class="node"><title>Node5</title>
<g id="a_node5"><a xlink:href="classpayments_1_1_payment_a_c_k.html#adf011ad3b2713f15dc977bd512fd05e4" target="_top" xlink:title="payments::PaymentACK\l::ByteSize">
<polygon fill="white" stroke="black" points="180.5,-147.5 180.5,-177.5 305.5,-177.5 305.5,-147.5 180.5,-147.5"/>
<text text-anchor="start" x="188.5" y="-165.5" font-family="Helvetica,sans-Serif" font-size="10.00">payments::PaymentACK</text>
<text text-anchor="middle" x="243" y="-154.5" font-family="Helvetica,sans-Serif" font-size="10.00">::ByteSize</text>
</a>
</g>
</g>
<!-- Node1&#45;&gt;Node5 -->
<g id="edge4" class="edge"><title>Node1&#45;&gt;Node5</title>
<path fill="none" stroke="midnightblue" d="M135.363,-162.5C150.258,-162.5 165.826,-162.5 180.318,-162.5"/>
<polygon fill="midnightblue" stroke="midnightblue" points="135.18,-159 125.18,-162.5 135.179,-166 135.18,-159"/>
</g>
<!-- Node6 -->
<g id="node6" class="node"><title>Node6</title>
<g id="a_node6"><a xlink:href="classpayments_1_1_payment_a_c_k.html#a2ecc8a3689adf9291b7f08f544e71be8" target="_top" xlink:title="payments::PaymentACK\l::MergeFrom">
<polygon fill="white" stroke="black" points="180.5,-98.5 180.5,-128.5 305.5,-128.5 305.5,-98.5 180.5,-98.5"/>
<text text-anchor="start" x="188.5" y="-116.5" font-family="Helvetica,sans-Serif" font-size="10.00">payments::PaymentACK</text>
<text text-anchor="middle" x="243" y="-105.5" font-family="Helvetica,sans-Serif" font-size="10.00">::MergeFrom</text>
</a>
</g>
</g>
<!-- Node1&#45;&gt;Node6 -->
<g id="edge5" class="edge"><title>Node1&#45;&gt;Node6</title>
<path fill="none" stroke="midnightblue" d="M128.42,-144.679C147.693,-139.388 168.604,-133.648 187.169,-128.552"/>
<polygon fill="midnightblue" stroke="midnightblue" points="127.229,-141.376 118.512,-147.399 129.082,-148.126 127.229,-141.376"/>
</g>
<!-- Node7 -->
<g id="node7" class="node"><title>Node7</title>
<g id="a_node7"><a xlink:href="classpayments_1_1_payment_a_c_k.html#a83a19335a4998b997e2165dbaf9ddacc" target="_top" xlink:title="payments::PaymentACK\l::set_allocated_memo">
<polygon fill="white" stroke="black" points="180.5,-49.5 180.5,-79.5 305.5,-79.5 305.5,-49.5 180.5,-49.5"/>
<text text-anchor="start" x="188.5" y="-67.5" font-family="Helvetica,sans-Serif" font-size="10.00">payments::PaymentACK</text>
<text text-anchor="middle" x="243" y="-56.5" font-family="Helvetica,sans-Serif" font-size="10.00">::set_allocated_memo</text>
</a>
</g>
</g>
<!-- Node1&#45;&gt;Node7 -->
<g id="edge6" class="edge"><title>Node1&#45;&gt;Node7</title>
<path fill="none" stroke="midnightblue" d="M87.6819,-140.653C106.511,-124.609 133.917,-103.292 161,-89.5 168.344,-85.76 176.351,-82.46 184.38,-79.5864"/>
<polygon fill="midnightblue" stroke="midnightblue" points="85.1773,-138.192 79.9152,-147.387 89.7633,-143.48 85.1773,-138.192"/>
</g>
<!-- Node8 -->
<g id="node8" class="node"><title>Node8</title>
<g id="a_node8"><a xlink:href="class_payment_server.html#a5b8e2e6380142fb7ad631400bcfc6f28" target="_top" xlink:title="PaymentServer::netRequest\lFinished">
<polygon fill="white" stroke="black" points="172,-0.5 172,-30.5 314,-30.5 314,-0.5 172,-0.5"/>
<text text-anchor="start" x="180" y="-18.5" font-family="Helvetica,sans-Serif" font-size="10.00">PaymentServer::netRequest</text>
<text text-anchor="middle" x="243" y="-7.5" font-family="Helvetica,sans-Serif" font-size="10.00">Finished</text>
</a>
</g>
</g>
<!-- Node1&#45;&gt;Node8 -->
<g id="edge7" class="edge"><title>Node1&#45;&gt;Node8</title>
<path fill="none" stroke="midnightblue" d="M76.7467,-138.338C93.0661,-110.762 123.315,-66.1694 161,-40.5 166.595,-36.6889 172.795,-33.4402 179.201,-30.6748"/>
<polygon fill="midnightblue" stroke="midnightblue" points="73.5288,-136.912 71.5658,-147.323 79.593,-140.408 73.5288,-136.912"/>
</g>
<!-- Node9 -->
<g id="node9" class="node"><title>Node9</title>
<g id="a_node9"><a xlink:href="class_payment_server.html#a2f94f2c3e12d03199870e17008535302" target="_top" xlink:title="PaymentServer::initNetManager">
<polygon fill="white" stroke="black" points="361,-6 361,-25 520,-25 520,-6 361,-6"/>
<text text-anchor="middle" x="440.5" y="-13" font-family="Helvetica,sans-Serif" font-size="10.00">PaymentServer::initNetManager</text>
</a>
</g>
</g>
<!-- Node8&#45;&gt;Node9 -->
<g id="edge8" class="edge"><title>Node8&#45;&gt;Node9</title>
<path fill="none" stroke="midnightblue" d="M324.145,-15.5C336.316,-15.5 348.863,-15.5 360.998,-15.5"/>
<polygon fill="midnightblue" stroke="midnightblue" points="324.028,-12.0001 314.028,-15.5 324.028,-19.0001 324.028,-12.0001"/>
</g>
<!-- Node10 -->
<g id="node10" class="node"><title>Node10</title>
<g id="a_node10"><a xlink:href="class_payment_server.html#abb6c65fabbf97ba95381997ca9cd6993" target="_top" xlink:title="PaymentServer::uiReady">
<polygon fill="white" stroke="black" points="556,-6 556,-25 684,-25 684,-6 556,-6"/>
<text text-anchor="middle" x="620" y="-13" font-family="Helvetica,sans-Serif" font-size="10.00">PaymentServer::uiReady</text>
</a>
</g>
</g>
<!-- Node9&#45;&gt;Node10 -->
<g id="edge9" class="edge"><title>Node9&#45;&gt;Node10</title>
<path fill="none" stroke="midnightblue" d="M530.262,-15.5C538.91,-15.5 547.558,-15.5 555.877,-15.5"/>
<polygon fill="midnightblue" stroke="midnightblue" points="530.129,-12.0001 520.129,-15.5 530.129,-19.0001 530.129,-12.0001"/>
</g>
<!-- Node11 -->
<g id="node11" class="node"><title>Node11</title>
<g id="a_node11"><a xlink:href="class_payment_server_tests.html#a82c8a7437bfc26c28619b954a5ee8cad" target="_top" xlink:title="PaymentServerTests\l::paymentServerTests">
<polygon fill="white" stroke="black" points="720,-0.5 720,-30.5 834,-30.5 834,-0.5 720,-0.5"/>
<text text-anchor="start" x="728" y="-18.5" font-family="Helvetica,sans-Serif" font-size="10.00">PaymentServerTests</text>
<text text-anchor="middle" x="777" y="-7.5" font-family="Helvetica,sans-Serif" font-size="10.00">::paymentServerTests</text>
</a>
</g>
</g>
<!-- Node10&#45;&gt;Node11 -->
<g id="edge10" class="edge"><title>Node10&#45;&gt;Node11</title>
<path fill="none" stroke="midnightblue" d="M694.172,-15.5C702.85,-15.5 711.601,-15.5 719.987,-15.5"/>
<polygon fill="midnightblue" stroke="midnightblue" points="694.044,-12.0001 684.044,-15.5 694.044,-19.0001 694.044,-12.0001"/>
</g>
</g>
</svg>
