<?xml version="1.0" encoding="UTF-8" standalone="no"?>
<!DOCTYPE svg PUBLIC "-//W3C//DTD SVG 1.1//EN"
 "http://www.w3.org/Graphics/SVG/1.1/DTD/svg11.dtd">
<!-- Generated by graphviz version 2.38.0 (20140413.2041)
 -->
<!-- Title: AddressTablePriv::index Pages: 1 -->
<svg width="1064pt" height="384pt"
 viewBox="0.00 0.00 1064.00 384.00" xmlns="http://www.w3.org/2000/svg" xmlns:xlink="http://www.w3.org/1999/xlink">
<g id="graph0" class="graph" transform="scale(1 1) rotate(0) translate(4 380)">
<title>AddressTablePriv::index</title>
<polygon fill="white" stroke="none" points="-4,4 -4,-380 1060,-380 1060,4 -4,4"/>
<!-- Node1 -->
<g id="node1" class="node"><title>Node1</title>
<polygon fill="#bfbfbf" stroke="black" points="0,-47 0,-66 125,-66 125,-47 0,-47"/>
<text text-anchor="middle" x="62.5" y="-54" font-family="Helvetica,sans-Serif" font-size="10.00">AddressTablePriv::index</text>
</g>
<!-- Node2 -->
<g id="node2" class="node"><title>Node2</title>
<g id="a_node2"><a xlink:href="class_address_table_model.html#a84f095bae13574410fceba53f8184abc" target="_top" xlink:title="AddressTableModel::\lindex">
<polygon fill="white" stroke="black" points="161,-66.5 161,-96.5 272,-96.5 272,-66.5 161,-66.5"/>
<text text-anchor="start" x="169" y="-84.5" font-family="Helvetica,sans-Serif" font-size="10.00">AddressTableModel::</text>
<text text-anchor="middle" x="216.5" y="-73.5" font-family="Helvetica,sans-Serif" font-size="10.00">index</text>
</a>
</g>
</g>
<!-- Node1&#45;&gt;Node2 -->
<g id="edge1" class="edge"><title>Node1&#45;&gt;Node2</title>
<path fill="none" stroke="midnightblue" d="M131.511,-67.6861C141.304,-69.2968 151.276,-70.9369 160.767,-72.4979"/>
<polygon fill="midnightblue" stroke="midnightblue" points="131.834,-64.1922 121.398,-66.0227 130.698,-71.0994 131.834,-64.1922"/>
</g>
<!-- Node21 -->
<g id="node21" class="node"><title>Node21</title>
<g id="a_node21"><a xlink:href="class_address_table_model.html#a682e6e3374d65543e49769906c8916e5" target="_top" xlink:title="AddressTableModel::\lremoveRows">
<polygon fill="white" stroke="black" points="161,-17.5 161,-47.5 272,-47.5 272,-17.5 161,-17.5"/>
<text text-anchor="start" x="169" y="-35.5" font-family="Helvetica,sans-Serif" font-size="10.00">AddressTableModel::</text>
<text text-anchor="middle" x="216.5" y="-24.5" font-family="Helvetica,sans-Serif" font-size="10.00">removeRows</text>
</a>
</g>
</g>
<!-- Node1&#45;&gt;Node21 -->
<g id="edge21" class="edge"><title>Node1&#45;&gt;Node21</title>
<path fill="none" stroke="midnightblue" d="M134.022,-45.3649C142.951,-43.9551 151.981,-42.5293 160.616,-41.1659"/>
<polygon fill="midnightblue" stroke="midnightblue" points="133.343,-41.9287 124.011,-46.9456 134.435,-48.8431 133.343,-41.9287"/>
</g>
<!-- Node3 -->
<g id="node3" class="node"><title>Node3</title>
<g id="a_node3"><a xlink:href="class_address_book_page.html#ab62ba5d31e2d64c4d901da58d6b32a59" target="_top" xlink:title="New entry/entries were added to address table. ">
<polygon fill="white" stroke="black" points="308,-159.5 308,-189.5 459,-189.5 459,-159.5 308,-159.5"/>
<text text-anchor="start" x="316" y="-177.5" font-family="Helvetica,sans-Serif" font-size="10.00">AddressBookPage::selectNew</text>
<text text-anchor="middle" x="383.5" y="-166.5" font-family="Helvetica,sans-Serif" font-size="10.00">Address</text>
</a>
</g>
</g>
<!-- Node2&#45;&gt;Node3 -->
<g id="edge2" class="edge"><title>Node2&#45;&gt;Node3</title>
<path fill="none" stroke="midnightblue" d="M253.482,-101.781C284.247,-119.121 327.832,-143.687 355.634,-159.357"/>
<polygon fill="midnightblue" stroke="midnightblue" points="254.807,-98.5102 244.377,-96.649 251.37,-104.608 254.807,-98.5102"/>
</g>
<!-- Node14 -->
<g id="node14" class="node"><title>Node14</title>
<g id="a_node14"><a xlink:href="class_address_table_model.html#a49a260d5e629286f6277a2dbc0aaeaaa" target="_top" xlink:title="AddressTableModel::\llookupAddress">
<polygon fill="white" stroke="black" points="328,-88.5 328,-118.5 439,-118.5 439,-88.5 328,-88.5"/>
<text text-anchor="start" x="336" y="-106.5" font-family="Helvetica,sans-Serif" font-size="10.00">AddressTableModel::</text>
<text text-anchor="middle" x="383.5" y="-95.5" font-family="Helvetica,sans-Serif" font-size="10.00">lookupAddress</text>
</a>
</g>
</g>
<!-- Node2&#45;&gt;Node14 -->
<g id="edge13" class="edge"><title>Node2&#45;&gt;Node14</title>
<path fill="none" stroke="midnightblue" d="M282.64,-90.1854C297.591,-92.1789 313.339,-94.2786 327.797,-96.2063"/>
<polygon fill="midnightblue" stroke="midnightblue" points="282.817,-86.6781 272.443,-88.8257 281.892,-93.6167 282.817,-86.6781"/>
</g>
<!-- Node15 -->
<g id="node15" class="node"><title>Node15</title>
<g id="a_node15"><a xlink:href="class_transaction_view.html#a18817639384e53f94fc1ad956d7263d9" target="_top" xlink:title="TransactionView::editLabel">
<polygon fill="white" stroke="black" points="499,-50 499,-69 636,-69 636,-50 499,-50"/>
<text text-anchor="middle" x="567.5" y="-57" font-family="Helvetica,sans-Serif" font-size="10.00">TransactionView::editLabel</text>
</a>
</g>
</g>
<!-- Node2&#45;&gt;Node15 -->
<g id="edge20" class="edge"><title>Node2&#45;&gt;Node15</title>
<path fill="none" stroke="midnightblue" d="M282.03,-77.4322C343.682,-73.5458 436.245,-67.7109 498.899,-63.7614"/>
<polygon fill="midnightblue" stroke="midnightblue" points="281.791,-73.9402 272.031,-78.0625 282.232,-80.9263 281.791,-73.9402"/>
</g>
<!-- Node17 -->
<g id="node17" class="node"><title>Node17</title>
<g id="a_node17"><a xlink:href="class_address_table_model.html#a42cbcc82a8752c4af3b75fd62e8c7a40" target="_top" xlink:title="Notify listeners that data changed. ">
<polygon fill="white" stroke="black" points="328,-0.5 328,-30.5 439,-30.5 439,-0.5 328,-0.5"/>
<text text-anchor="start" x="336" y="-18.5" font-family="Helvetica,sans-Serif" font-size="10.00">AddressTableModel::</text>
<text text-anchor="middle" x="383.5" y="-7.5" font-family="Helvetica,sans-Serif" font-size="10.00">emitDataChanged</text>
</a>
</g>
</g>
<!-- Node2&#45;&gt;Node17 -->
<g id="edge16" class="edge"><title>Node2&#45;&gt;Node17</title>
<path fill="none" stroke="midnightblue" d="M264.793,-62.5827C290.19,-52.424 321.066,-40.0737 344.822,-30.5713"/>
<polygon fill="midnightblue" stroke="midnightblue" points="263.339,-59.3946 255.354,-66.3583 265.939,-65.894 263.339,-59.3946"/>
</g>
<!-- Node4 -->
<g id="node4" class="node"><title>Node4</title>
<g id="a_node4"><a xlink:href="class_address_book_page.html#a1282cda9cb0300ee04c472ec4c9949f3" target="_top" xlink:title="AddressBookPage::setModel">
<polygon fill="white" stroke="black" points="495,-187 495,-206 640,-206 640,-187 495,-187"/>
<text text-anchor="middle" x="567.5" y="-194" font-family="Helvetica,sans-Serif" font-size="10.00">AddressBookPage::setModel</text>
</a>
</g>
</g>
<!-- Node3&#45;&gt;Node4 -->
<g id="edge3" class="edge"><title>Node3&#45;&gt;Node4</title>
<path fill="none" stroke="midnightblue" d="M469.063,-184.722C477.637,-185.758 486.287,-186.804 494.708,-187.822"/>
<polygon fill="midnightblue" stroke="midnightblue" points="469.399,-181.237 459.051,-183.512 468.559,-188.187 469.399,-181.237"/>
</g>
<!-- Node5 -->
<g id="node5" class="node"><title>Node5</title>
<g id="a_node5"><a xlink:href="class_receive_coins_dialog.html#a9db8de31f6889288cb22c061aa51e0cd" target="_top" xlink:title="ReceiveCoinsDialog\l::on_receiveButton_clicked">
<polygon fill="white" stroke="black" points="696.5,-345.5 696.5,-375.5 832.5,-375.5 832.5,-345.5 696.5,-345.5"/>
<text text-anchor="start" x="704.5" y="-363.5" font-family="Helvetica,sans-Serif" font-size="10.00">ReceiveCoinsDialog</text>
<text text-anchor="middle" x="764.5" y="-352.5" font-family="Helvetica,sans-Serif" font-size="10.00">::on_receiveButton_clicked</text>
</a>
</g>
</g>
<!-- Node4&#45;&gt;Node5 -->
<g id="edge4" class="edge"><title>Node4&#45;&gt;Node5</title>
<path fill="none" stroke="midnightblue" d="M577.613,-215.057C593.391,-245.22 628.702,-304.706 676,-336.5 682.144,-340.63 688.982,-344.053 696.051,-346.889"/>
<polygon fill="midnightblue" stroke="midnightblue" points="580.676,-213.359 573.021,-206.034 574.437,-216.534 580.676,-213.359"/>
</g>
<!-- Node7 -->
<g id="node7" class="node"><title>Node7</title>
<g id="a_node7"><a xlink:href="class_send_coins_entry.html#ac661741d286d9f3db32f78bd22125cb0" target="_top" xlink:title="SendCoinsEntry::on\l_addressBookButton_clicked">
<polygon fill="white" stroke="black" points="692,-296.5 692,-326.5 837,-326.5 837,-296.5 692,-296.5"/>
<text text-anchor="start" x="700" y="-314.5" font-family="Helvetica,sans-Serif" font-size="10.00">SendCoinsEntry::on</text>
<text text-anchor="middle" x="764.5" y="-303.5" font-family="Helvetica,sans-Serif" font-size="10.00">_addressBookButton_clicked</text>
</a>
</g>
</g>
<!-- Node4&#45;&gt;Node7 -->
<g id="edge6" class="edge"><title>Node4&#45;&gt;Node7</title>
<path fill="none" stroke="midnightblue" d="M584.236,-213.446C603.875,-233.635 639.362,-267.068 676,-286.5 683.118,-290.275 690.873,-293.539 698.728,-296.344"/>
<polygon fill="midnightblue" stroke="midnightblue" points="586.724,-210.984 577.287,-206.17 581.662,-215.819 586.724,-210.984"/>
</g>
<!-- Node8 -->
<g id="node8" class="node"><title>Node8</title>
<g id="a_node8"><a xlink:href="class_sign_verify_message_dialog.html#a792a3bd647958c8ae74286c5ab3cf205" target="_top" xlink:title="SignVerifyMessageDialog\l::on_addressBookButton\l_SM_clicked">
<polygon fill="white" stroke="black" points="699,-236 699,-277 830,-277 830,-236 699,-236"/>
<text text-anchor="start" x="707" y="-265" font-family="Helvetica,sans-Serif" font-size="10.00">SignVerifyMessageDialog</text>
<text text-anchor="start" x="707" y="-254" font-family="Helvetica,sans-Serif" font-size="10.00">::on_addressBookButton</text>
<text text-anchor="middle" x="764.5" y="-243" font-family="Helvetica,sans-Serif" font-size="10.00">_SM_clicked</text>
</a>
</g>
</g>
<!-- Node4&#45;&gt;Node8 -->
<g id="edge7" class="edge"><title>Node4&#45;&gt;Node8</title>
<path fill="none" stroke="midnightblue" d="M609.255,-209.04C635.17,-217.014 669.289,-227.512 698.847,-236.607"/>
<polygon fill="midnightblue" stroke="midnightblue" points="609.985,-205.603 599.398,-206.007 607.927,-212.293 609.985,-205.603"/>
</g>
<!-- Node9 -->
<g id="node9" class="node"><title>Node9</title>
<g id="a_node9"><a xlink:href="class_sign_verify_message_dialog.html#a90ceb00084c68da5e9c481ba0841d976" target="_top" xlink:title="SignVerifyMessageDialog\l::on_addressBookButton\l_VM_clicked">
<polygon fill="white" stroke="black" points="699,-176 699,-217 830,-217 830,-176 699,-176"/>
<text text-anchor="start" x="707" y="-205" font-family="Helvetica,sans-Serif" font-size="10.00">SignVerifyMessageDialog</text>
<text text-anchor="start" x="707" y="-194" font-family="Helvetica,sans-Serif" font-size="10.00">::on_addressBookButton</text>
<text text-anchor="middle" x="764.5" y="-183" font-family="Helvetica,sans-Serif" font-size="10.00">_VM_clicked</text>
</a>
</g>
</g>
<!-- Node4&#45;&gt;Node9 -->
<g id="edge8" class="edge"><title>Node4&#45;&gt;Node9</title>
<path fill="none" stroke="midnightblue" d="M650.036,-196.5C666.303,-196.5 683.178,-196.5 698.786,-196.5"/>
<polygon fill="midnightblue" stroke="midnightblue" points="650.004,-193 640.004,-196.5 650.004,-200 650.004,-193"/>
</g>
<!-- Node10 -->
<g id="node10" class="node"><title>Node10</title>
<g id="a_node10"><a xlink:href="class_wallet_view.html#a6f0d012c18ea2df7336c852abe2a50d0" target="_top" xlink:title="Show used sending addresses. ">
<polygon fill="white" stroke="black" points="676,-138 676,-157 853,-157 853,-138 676,-138"/>
<text text-anchor="middle" x="764.5" y="-145" font-family="Helvetica,sans-Serif" font-size="10.00">WalletView::usedSendingAddresses</text>
</a>
</g>
</g>
<!-- Node4&#45;&gt;Node10 -->
<g id="edge9" class="edge"><title>Node4&#45;&gt;Node10</title>
<path fill="none" stroke="midnightblue" d="M610.476,-184.174C630.279,-178.516 654.28,-171.884 676,-166.5 689.278,-163.209 703.766,-159.935 717.064,-157.056"/>
<polygon fill="midnightblue" stroke="midnightblue" points="609.472,-180.82 600.829,-186.947 611.407,-187.548 609.472,-180.82"/>
</g>
<!-- Node12 -->
<g id="node12" class="node"><title>Node12</title>
<g id="a_node12"><a xlink:href="class_wallet_view.html#accb5d9e2789c62e03ad1723518d31c02" target="_top" xlink:title="Show used receiving addresses. ">
<polygon fill="white" stroke="black" points="696,-88.5 696,-118.5 833,-118.5 833,-88.5 696,-88.5"/>
<text text-anchor="start" x="704" y="-106.5" font-family="Helvetica,sans-Serif" font-size="10.00">WalletView::usedReceiving</text>
<text text-anchor="middle" x="764.5" y="-95.5" font-family="Helvetica,sans-Serif" font-size="10.00">Addresses</text>
</a>
</g>
</g>
<!-- Node4&#45;&gt;Node12 -->
<g id="edge11" class="edge"><title>Node4&#45;&gt;Node12</title>
<path fill="none" stroke="midnightblue" d="M589.205,-180.864C610.141,-165.681 643.905,-142.877 676,-128.5 684.363,-124.754 693.427,-121.422 702.447,-118.509"/>
<polygon fill="midnightblue" stroke="midnightblue" points="587.04,-178.112 581.06,-186.858 591.188,-183.75 587.04,-178.112"/>
</g>
<!-- Node6 -->
<g id="node6" class="node"><title>Node6</title>
<g id="a_node6"><a xlink:href="class_receive_coins_dialog.html#abcf17b510c473bf3e94ef12f7f5cfc10" target="_top" xlink:title="ReceiveCoinsDialog\l::keyPressEvent">
<polygon fill="white" stroke="black" points="919,-345.5 919,-375.5 1026,-375.5 1026,-345.5 919,-345.5"/>
<text text-anchor="start" x="927" y="-363.5" font-family="Helvetica,sans-Serif" font-size="10.00">ReceiveCoinsDialog</text>
<text text-anchor="middle" x="972.5" y="-352.5" font-family="Helvetica,sans-Serif" font-size="10.00">::keyPressEvent</text>
</a>
</g>
</g>
<!-- Node5&#45;&gt;Node6 -->
<g id="edge5" class="edge"><title>Node5&#45;&gt;Node6</title>
<path fill="none" stroke="midnightblue" d="M842.978,-360.5C868.268,-360.5 895.749,-360.5 918.783,-360.5"/>
<polygon fill="midnightblue" stroke="midnightblue" points="842.667,-357 832.667,-360.5 842.667,-364 842.667,-357"/>
</g>
<!-- Node11 -->
<g id="node11" class="node"><title>Node11</title>
<g id="a_node11"><a xlink:href="class_wallet_frame.html#a7f697d220e7ea40d6e4d6e6c5e9ef3b4" target="_top" xlink:title="Show used sending addresses. ">
<polygon fill="white" stroke="black" points="904,-134.5 904,-164.5 1041,-164.5 1041,-134.5 904,-134.5"/>
<text text-anchor="start" x="912" y="-152.5" font-family="Helvetica,sans-Serif" font-size="10.00">WalletFrame::usedSending</text>
<text text-anchor="middle" x="972.5" y="-141.5" font-family="Helvetica,sans-Serif" font-size="10.00">Addresses</text>
</a>
</g>
</g>
<!-- Node10&#45;&gt;Node11 -->
<g id="edge10" class="edge"><title>Node10&#45;&gt;Node11</title>
<path fill="none" stroke="midnightblue" d="M863.559,-148.452C877.207,-148.585 890.97,-148.718 903.888,-148.844"/>
<polygon fill="midnightblue" stroke="midnightblue" points="863.195,-144.948 853.161,-148.351 863.127,-151.948 863.195,-144.948"/>
</g>
<!-- Node13 -->
<g id="node13" class="node"><title>Node13</title>
<g id="a_node13"><a xlink:href="class_wallet_frame.html#a9273a0b98cf7ec9fc344658c38a4a0a3" target="_top" xlink:title="Show used receiving addresses. ">
<polygon fill="white" stroke="black" points="900.5,-85.5 900.5,-115.5 1044.5,-115.5 1044.5,-85.5 900.5,-85.5"/>
<text text-anchor="start" x="908.5" y="-103.5" font-family="Helvetica,sans-Serif" font-size="10.00">WalletFrame::usedReceiving</text>
<text text-anchor="middle" x="972.5" y="-92.5" font-family="Helvetica,sans-Serif" font-size="10.00">Addresses</text>
</a>
</g>
</g>
<!-- Node12&#45;&gt;Node13 -->
<g id="edge12" class="edge"><title>Node12&#45;&gt;Node13</title>
<path fill="none" stroke="midnightblue" d="M843.45,-102.365C862.079,-102.094 881.871,-101.805 900.183,-101.539"/>
<polygon fill="midnightblue" stroke="midnightblue" points="843.185,-98.8682 833.237,-102.514 843.287,-105.867 843.185,-98.8682"/>
</g>
<!-- Node14&#45;&gt;Node15 -->
<g id="edge14" class="edge"><title>Node14&#45;&gt;Node15</title>
<path fill="none" stroke="midnightblue" d="M448.91,-87.9285C474.948,-81.6335 504.17,-74.5687 526.97,-69.0567"/>
<polygon fill="midnightblue" stroke="midnightblue" points="448.003,-84.5466 439.106,-90.2985 449.648,-91.3506 448.003,-84.5466"/>
</g>
<!-- Node16 -->
<g id="node16" class="node"><title>Node16</title>
<g id="a_node16"><a xlink:href="class_transaction_view.html#a0c5e8b90206b4e8b8bf68dd7e319798f" target="_top" xlink:title="TransactionView::TransactionView">
<polygon fill="white" stroke="black" points="679.5,-50 679.5,-69 849.5,-69 849.5,-50 679.5,-50"/>
<text text-anchor="middle" x="764.5" y="-57" font-family="Helvetica,sans-Serif" font-size="10.00">TransactionView::TransactionView</text>
</a>
</g>
</g>
<!-- Node15&#45;&gt;Node16 -->
<g id="edge15" class="edge"><title>Node15&#45;&gt;Node16</title>
<path fill="none" stroke="midnightblue" d="M646.445,-59.5C657.306,-59.5 668.504,-59.5 679.471,-59.5"/>
<polygon fill="midnightblue" stroke="midnightblue" points="646.154,-56.0001 636.154,-59.5 646.154,-63.0001 646.154,-56.0001"/>
</g>
<!-- Node18 -->
<g id="node18" class="node"><title>Node18</title>
<g id="a_node18"><a xlink:href="class_address_table_priv.html#a6f4b10febc3055afde7200c0dbc8ccef" target="_top" xlink:title="AddressTablePriv::update\lEntry">
<polygon fill="white" stroke="black" points="501.5,-0.5 501.5,-30.5 633.5,-30.5 633.5,-0.5 501.5,-0.5"/>
<text text-anchor="start" x="509.5" y="-18.5" font-family="Helvetica,sans-Serif" font-size="10.00">AddressTablePriv::update</text>
<text text-anchor="middle" x="567.5" y="-7.5" font-family="Helvetica,sans-Serif" font-size="10.00">Entry</text>
</a>
</g>
</g>
<!-- Node17&#45;&gt;Node18 -->
<g id="edge17" class="edge"><title>Node17&#45;&gt;Node18</title>
<path fill="none" stroke="midnightblue" d="M449.417,-15.5C466.286,-15.5 484.461,-15.5 501.342,-15.5"/>
<polygon fill="midnightblue" stroke="midnightblue" points="449.106,-12.0001 439.106,-15.5 449.106,-19.0001 449.106,-12.0001"/>
</g>
<!-- Node19 -->
<g id="node19" class="node"><title>Node19</title>
<g id="a_node19"><a xlink:href="class_address_table_model.html#aa2f39463431a15741ed4d78ef592dfe5" target="_top" xlink:title="AddressTableModel::\lupdateEntry">
<polygon fill="white" stroke="black" points="709,-0.5 709,-30.5 820,-30.5 820,-0.5 709,-0.5"/>
<text text-anchor="start" x="717" y="-18.5" font-family="Helvetica,sans-Serif" font-size="10.00">AddressTableModel::</text>
<text text-anchor="middle" x="764.5" y="-7.5" font-family="Helvetica,sans-Serif" font-size="10.00">updateEntry</text>
</a>
</g>
</g>
<!-- Node18&#45;&gt;Node19 -->
<g id="edge18" class="edge"><title>Node18&#45;&gt;Node19</title>
<path fill="none" stroke="midnightblue" d="M643.846,-15.5C665.475,-15.5 688.639,-15.5 708.77,-15.5"/>
<polygon fill="midnightblue" stroke="midnightblue" points="643.703,-12.0001 633.703,-15.5 643.703,-19.0001 643.703,-12.0001"/>
</g>
<!-- Node20 -->
<g id="node20" class="node"><title>Node20</title>
<g id="a_node20"><a xlink:href="class_wallet_model.html#ad70ea697efb4d5bdc4a834b538b4d535" target="_top" xlink:title="WalletModel::updateAddressBook">
<polygon fill="white" stroke="black" points="889,-6 889,-25 1056,-25 1056,-6 889,-6"/>
<text text-anchor="middle" x="972.5" y="-13" font-family="Helvetica,sans-Serif" font-size="10.00">WalletModel::updateAddressBook</text>
</a>
</g>
</g>
<!-- Node19&#45;&gt;Node20 -->
<g id="edge19" class="edge"><title>Node19&#45;&gt;Node20</title>
<path fill="none" stroke="midnightblue" d="M830.232,-15.5C848.745,-15.5 869.18,-15.5 888.621,-15.5"/>
<polygon fill="midnightblue" stroke="midnightblue" points="830.163,-12.0001 820.163,-15.5 830.163,-19.0001 830.163,-12.0001"/>
</g>
</g>
</svg>
