<?xml version="1.0" encoding="UTF-8" standalone="no"?>
<!DOCTYPE svg PUBLIC "-//W3C//DTD SVG 1.1//EN"
 "http://www.w3.org/Graphics/SVG/1.1/DTD/svg11.dtd">
<!-- Generated by graphviz version 2.38.0 (20140413.2041)
 -->
<!-- Title: CChain::FindFork Pages: 1 -->
<svg width="422pt" height="66pt"
 viewBox="0.00 0.00 422.00 66.00" xmlns="http://www.w3.org/2000/svg" xmlns:xlink="http://www.w3.org/1999/xlink">
<g id="graph0" class="graph" transform="scale(1 1) rotate(0) translate(4 62)">
<title>CChain::FindFork</title>
<polygon fill="white" stroke="none" points="-4,4 -4,-62 418,-62 418,4 -4,4"/>
<!-- Node1 -->
<g id="node1" class="node"><title>Node1</title>
<polygon fill="#bfbfbf" stroke="black" points="0,-19.5 0,-38.5 95,-38.5 95,-19.5 0,-19.5"/>
<text text-anchor="middle" x="47.5" y="-26.5" font-family="Helvetica,sans-Serif" font-size="10.00">CChain::FindFork</text>
</g>
<!-- Node2 -->
<g id="node2" class="node"><title>Node2</title>
<g id="a_node2"><a xlink:href="init_8h.html#a1a4c1bfbf6ba1db77e988b89b9cadfd3" target="_top" xlink:title="Initialize anoncoin. ">
<polygon fill="white" stroke="black" points="131,-19.5 131,-38.5 184,-38.5 184,-19.5 131,-19.5"/>
<text text-anchor="middle" x="157.5" y="-26.5" font-family="Helvetica,sans-Serif" font-size="10.00">AppInit2</text>
</a>
</g>
</g>
<!-- Node1&#45;&gt;Node2 -->
<g id="edge1" class="edge"><title>Node1&#45;&gt;Node2</title>
<path fill="none" stroke="midnightblue" d="M105.311,-29C114.236,-29 123.058,-29 130.8,-29"/>
<polygon fill="midnightblue" stroke="midnightblue" points="105.242,-25.5001 95.2422,-29 105.242,-32.5001 105.242,-25.5001"/>
</g>
<!-- Node3 -->
<g id="node3" class="node"><title>Node3</title>
<g id="a_node3"><a xlink:href="anoncoind_8cpp.html#ac59316b767e6984e1285f0531275286b" target="_top" xlink:title="AppInit">
<polygon fill="white" stroke="black" points="256,-38.5 256,-57.5 304,-57.5 304,-38.5 256,-38.5"/>
<text text-anchor="middle" x="280" y="-45.5" font-family="Helvetica,sans-Serif" font-size="10.00">AppInit</text>
</a>
</g>
</g>
<!-- Node2&#45;&gt;Node3 -->
<g id="edge2" class="edge"><title>Node2&#45;&gt;Node3</title>
<path fill="none" stroke="midnightblue" d="M194.05,-34.6053C214.041,-37.7576 238.421,-41.6017 255.927,-44.3619"/>
<polygon fill="midnightblue" stroke="midnightblue" points="194.478,-31.1297 184.055,-33.0294 193.388,-38.0443 194.478,-31.1297"/>
</g>
<!-- Node5 -->
<g id="node5" class="node"><title>Node5</title>
<g id="a_node5"><a xlink:href="class_anoncoin_coin.html#a9510881824d283404ac43414dbb74586" target="_top" xlink:title="AnoncoinCoin::initialize">
<polygon fill="white" stroke="black" points="220,-0.5 220,-19.5 340,-19.5 340,-0.5 220,-0.5"/>
<text text-anchor="middle" x="280" y="-7.5" font-family="Helvetica,sans-Serif" font-size="10.00">AnoncoinCoin::initialize</text>
</a>
</g>
</g>
<!-- Node2&#45;&gt;Node5 -->
<g id="edge4" class="edge"><title>Node2&#45;&gt;Node5</title>
<path fill="none" stroke="midnightblue" d="M194.186,-23.3732C202.249,-22.1018 211.021,-20.7186 219.765,-19.34"/>
<polygon fill="midnightblue" stroke="midnightblue" points="193.388,-19.9557 184.055,-24.9706 194.478,-26.8703 193.388,-19.9557"/>
</g>
<!-- Node4 -->
<g id="node4" class="node"><title>Node4</title>
<g id="a_node4"><a xlink:href="anoncoind_8cpp.html#a0ddf1224851353fc92bfbff6f499fa97" target="_top" xlink:title="main">
<polygon fill="white" stroke="black" points="376,-38.5 376,-57.5 414,-57.5 414,-38.5 376,-38.5"/>
<text text-anchor="middle" x="395" y="-45.5" font-family="Helvetica,sans-Serif" font-size="10.00">main</text>
</a>
</g>
</g>
<!-- Node3&#45;&gt;Node4 -->
<g id="edge3" class="edge"><title>Node3&#45;&gt;Node4</title>
<path fill="none" stroke="midnightblue" d="M314.146,-48C334.247,-48 359.134,-48 375.731,-48"/>
<polygon fill="midnightblue" stroke="midnightblue" points="314.14,-44.5001 304.14,-48 314.14,-51.5001 314.14,-44.5001"/>
</g>
</g>
</svg>
