<?xml version="1.0" encoding="UTF-8" standalone="no"?>
<!DOCTYPE svg PUBLIC "-//W3C//DTD SVG 1.1//EN"
 "http://www.w3.org/Graphics/SVG/1.1/DTD/svg11.dtd">
<!-- Generated by graphviz version 2.38.0 (20140413.2041)
 -->
<!-- Title: SendCoinsEntry::validate Pages: 1 -->
<svg width="684pt" height="330pt"
 viewBox="0.00 0.00 684.00 329.50" xmlns="http://www.w3.org/2000/svg" xmlns:xlink="http://www.w3.org/1999/xlink">
<g id="graph0" class="graph" transform="scale(1 1) rotate(0) translate(4 325.5)">
<title>SendCoinsEntry::validate</title>
<polygon fill="white" stroke="none" points="-4,4 -4,-325.5 680,-325.5 680,4 -4,4"/>
<!-- Node1 -->
<g id="node1" class="node"><title>Node1</title>
<polygon fill="#bfbfbf" stroke="black" points="0,-168.5 0,-187.5 129,-187.5 129,-168.5 0,-168.5"/>
<text text-anchor="middle" x="64.5" y="-175.5" font-family="Helvetica,sans-Serif" font-size="10.00">SendCoinsEntry::validate</text>
</g>
<!-- Node2 -->
<g id="node2" class="node"><title>Node2</title>
<g id="a_node2"><a xlink:href="class_payment_request_plus.html#a62ae278689d852e4a73cdef627763944" target="_top" xlink:title="PaymentRequestPlus\l::IsInitialized">
<polygon fill="white" stroke="black" points="182.5,-288 182.5,-318 295.5,-318 295.5,-288 182.5,-288"/>
<text text-anchor="start" x="190.5" y="-306" font-family="Helvetica,sans-Serif" font-size="10.00">PaymentRequestPlus</text>
<text text-anchor="middle" x="239" y="-295" font-family="Helvetica,sans-Serif" font-size="10.00">::IsInitialized</text>
</a>
</g>
</g>
<!-- Node1&#45;&gt;Node2 -->
<g id="edge1" class="edge"><title>Node1&#45;&gt;Node2</title>
<path fill="none" stroke="midnightblue" d="M73.2954,-187.724C88.9036,-206.644 125.866,-248.76 165,-274 170.415,-277.492 176.318,-280.684 182.344,-283.566"/>
<polygon fill="midnightblue" stroke="midnightblue" points="181.307,-286.936 191.863,-287.839 184.174,-280.55 181.307,-286.936"/>
</g>
<!-- Node4 -->
<g id="node4" class="node"><title>Node4</title>
<g id="a_node4"><a xlink:href="class_wallet_model.html#a04604615253aeaae1253b1412a70a1f7" target="_top" xlink:title="WalletModel::validateAddress">
<polygon fill="white" stroke="black" points="165,-245.5 165,-264.5 313,-264.5 313,-245.5 165,-245.5"/>
<text text-anchor="middle" x="239" y="-252.5" font-family="Helvetica,sans-Serif" font-size="10.00">WalletModel::validateAddress</text>
</a>
</g>
</g>
<!-- Node1&#45;&gt;Node4 -->
<g id="edge3" class="edge"><title>Node1&#45;&gt;Node4</title>
<path fill="none" stroke="midnightblue" d="M83.6033,-187.538C103.366,-197.803 136.063,-214.357 165,-227 176.855,-232.18 190.002,-237.384 201.835,-241.876"/>
<polygon fill="midnightblue" stroke="midnightblue" points="200.816,-245.232 211.409,-245.466 203.274,-238.678 200.816,-245.232"/>
</g>
<!-- Node8 -->
<g id="node8" class="node"><title>Node8</title>
<g id="a_node8"><a xlink:href="class_q_validated_line_edit.html#ad9984e2e463cc7fbf28fe334498a1df5" target="_top" xlink:title="QValidatedLineEdit\l::setValid">
<polygon fill="white" stroke="black" points="188,-188 188,-218 290,-218 290,-188 188,-188"/>
<text text-anchor="start" x="196" y="-206" font-family="Helvetica,sans-Serif" font-size="10.00">QValidatedLineEdit</text>
<text text-anchor="middle" x="239" y="-195" font-family="Helvetica,sans-Serif" font-size="10.00">::setValid</text>
</a>
</g>
</g>
<!-- Node1&#45;&gt;Node8 -->
<g id="edge7" class="edge"><title>Node1&#45;&gt;Node8</title>
<path fill="none" stroke="midnightblue" d="M129.243,-187.238C145.146,-189.543 162.147,-192.007 177.869,-194.285"/>
<polygon fill="midnightblue" stroke="midnightblue" points="177.593,-197.782 187.992,-195.752 178.597,-190.854 177.593,-197.782"/>
</g>
<!-- Node9 -->
<g id="node9" class="node"><title>Node9</title>
<g id="a_node9"><a xlink:href="class_anoncoin_amount_field.html#ae0766727d1352a21980231772200c0ad" target="_top" xlink:title="Perform input validation, mark field as invalid if entered value is not valid. ">
<polygon fill="white" stroke="black" points="182,-139 182,-169 296,-169 296,-139 182,-139"/>
<text text-anchor="start" x="190" y="-157" font-family="Helvetica,sans-Serif" font-size="10.00">AnoncoinAmountField</text>
<text text-anchor="middle" x="239" y="-146" font-family="Helvetica,sans-Serif" font-size="10.00">::validate</text>
</a>
</g>
</g>
<!-- Node1&#45;&gt;Node9 -->
<g id="edge8" class="edge"><title>Node1&#45;&gt;Node9</title>
<path fill="none" stroke="midnightblue" d="M129.243,-169.131C143.144,-167.197 157.884,-165.147 171.875,-163.2"/>
<polygon fill="midnightblue" stroke="midnightblue" points="172.486,-166.649 181.909,-161.804 171.522,-159.716 172.486,-166.649"/>
</g>
<!-- Node15 -->
<g id="node15" class="node"><title>Node15</title>
<g id="a_node15"><a xlink:href="class_anoncoin_amount_field.html#ad3c794ea41c9fca0cbbb2aad5a1fdaff" target="_top" xlink:title="Mark current value as invalid in UI. ">
<polygon fill="white" stroke="black" points="363,-77 363,-107 477,-107 477,-77 363,-77"/>
<text text-anchor="start" x="371" y="-95" font-family="Helvetica,sans-Serif" font-size="10.00">AnoncoinAmountField</text>
<text text-anchor="middle" x="420" y="-84" font-family="Helvetica,sans-Serif" font-size="10.00">::setValid</text>
</a>
</g>
</g>
<!-- Node1&#45;&gt;Node15 -->
<g id="edge18" class="edge"><title>Node1&#45;&gt;Node15</title>
<path fill="none" stroke="midnightblue" d="M81.0586,-168.413C100.119,-157.131 133.739,-138.709 165,-129 227.041,-109.732 300.79,-100.41 352.794,-95.955"/>
<polygon fill="midnightblue" stroke="midnightblue" points="353.214,-99.4323 362.895,-95.1273 352.643,-92.4557 353.214,-99.4323"/>
</g>
<!-- Node16 -->
<g id="node16" class="node"><title>Node16</title>
<g id="a_node16"><a xlink:href="namespace_g_u_i_util.html#af947045729005fce641839cdb55a92cb" target="_top" xlink:title="GUIUtil::isDust">
<polygon fill="white" stroke="black" points="198,-38.5 198,-57.5 280,-57.5 280,-38.5 198,-38.5"/>
<text text-anchor="middle" x="239" y="-45.5" font-family="Helvetica,sans-Serif" font-size="10.00">GUIUtil::isDust</text>
</a>
</g>
</g>
<!-- Node1&#45;&gt;Node16 -->
<g id="edge15" class="edge"><title>Node1&#45;&gt;Node16</title>
<path fill="none" stroke="midnightblue" d="M73.0886,-168.476C88.6147,-149.499 125.858,-106.519 165,-80 175.74,-72.7235 188.404,-66.485 200.142,-61.5"/>
<polygon fill="midnightblue" stroke="midnightblue" points="201.772,-64.6158 209.722,-57.6122 199.14,-58.1296 201.772,-64.6158"/>
</g>
<!-- Node3 -->
<g id="node3" class="node"><title>Node3</title>
<g id="a_node3"><a xlink:href="classpayments_1_1_payment_request.html#a823854558ba54ec4b6258d9132affc15" target="_top" xlink:title="payments::PaymentRequest\l::IsInitialized">
<polygon fill="white" stroke="black" points="349,-291 349,-321 491,-321 491,-291 349,-291"/>
<text text-anchor="start" x="357" y="-309" font-family="Helvetica,sans-Serif" font-size="10.00">payments::PaymentRequest</text>
<text text-anchor="middle" x="420" y="-298" font-family="Helvetica,sans-Serif" font-size="10.00">::IsInitialized</text>
</a>
</g>
</g>
<!-- Node2&#45;&gt;Node3 -->
<g id="edge2" class="edge"><title>Node2&#45;&gt;Node3</title>
<path fill="none" stroke="midnightblue" d="M295.656,-303.933C309.331,-304.162 324.242,-304.412 338.82,-304.656"/>
<polygon fill="midnightblue" stroke="midnightblue" points="338.783,-308.156 348.84,-304.824 338.901,-301.157 338.783,-308.156"/>
</g>
<!-- Node5 -->
<g id="node5" class="node"><title>Node5</title>
<g id="a_node5"><a xlink:href="class_c_anoncoin_address.html#af5c7de8942a49523747a7d93e614779f" target="_top" xlink:title="CAnoncoinAddress::IsValid">
<polygon fill="white" stroke="black" points="351,-252.5 351,-271.5 489,-271.5 489,-252.5 351,-252.5"/>
<text text-anchor="middle" x="420" y="-259.5" font-family="Helvetica,sans-Serif" font-size="10.00">CAnoncoinAddress::IsValid</text>
</a>
</g>
</g>
<!-- Node4&#45;&gt;Node5 -->
<g id="edge4" class="edge"><title>Node4&#45;&gt;Node5</title>
<path fill="none" stroke="midnightblue" d="M313.064,-257.857C322.125,-258.212 331.418,-258.575 340.556,-258.932"/>
<polygon fill="midnightblue" stroke="midnightblue" points="340.656,-262.439 350.785,-259.332 340.929,-255.444 340.656,-262.439"/>
</g>
<!-- Node6 -->
<g id="node6" class="node"><title>Node6</title>
<g id="a_node6"><a xlink:href="chainparams_8cpp.html#ace5c5b706d71a324a417dd2db394fd4a" target="_top" xlink:title="Return the currently selected parameters. ">
<polygon fill="white" stroke="black" points="576,-290.5 576,-309.5 627,-309.5 627,-290.5 576,-290.5"/>
<text text-anchor="middle" x="601.5" y="-297.5" font-family="Helvetica,sans-Serif" font-size="10.00">Params</text>
</a>
</g>
</g>
<!-- Node5&#45;&gt;Node6 -->
<g id="edge5" class="edge"><title>Node5&#45;&gt;Node6</title>
<path fill="none" stroke="midnightblue" d="M466.295,-271.589C497.282,-278.149 537.728,-286.711 566.086,-292.715"/>
<polygon fill="midnightblue" stroke="midnightblue" points="565.439,-296.155 575.947,-294.802 566.889,-289.307 565.439,-296.155"/>
</g>
<!-- Node7 -->
<g id="node7" class="node"><title>Node7</title>
<g id="a_node7"><a xlink:href="class_c_chain_params.html#a6088d3a4f45d89c90e7e6117c3c5720d" target="_top" xlink:title="CChainParams::Base58Prefix">
<polygon fill="white" stroke="black" points="527,-252.5 527,-271.5 676,-271.5 676,-252.5 527,-252.5"/>
<text text-anchor="middle" x="601.5" y="-259.5" font-family="Helvetica,sans-Serif" font-size="10.00">CChainParams::Base58Prefix</text>
</a>
</g>
</g>
<!-- Node5&#45;&gt;Node7 -->
<g id="edge6" class="edge"><title>Node5&#45;&gt;Node7</title>
<path fill="none" stroke="midnightblue" d="M489.117,-262C498.053,-262 507.292,-262 516.452,-262"/>
<polygon fill="midnightblue" stroke="midnightblue" points="516.74,-265.5 526.74,-262 516.74,-258.5 516.74,-265.5"/>
</g>
<!-- Node10 -->
<g id="node10" class="node"><title>Node10</title>
<g id="a_node10"><a xlink:href="class_anoncoin_units.html#a66092d654e5411fd7e43e94ba786a919" target="_top" xlink:title="Parse string to coin amount. ">
<polygon fill="white" stroke="black" points="364,-214.5 364,-233.5 476,-233.5 476,-214.5 364,-214.5"/>
<text text-anchor="middle" x="420" y="-221.5" font-family="Helvetica,sans-Serif" font-size="10.00">AnoncoinUnits::parse</text>
</a>
</g>
</g>
<!-- Node9&#45;&gt;Node10 -->
<g id="edge9" class="edge"><title>Node9&#45;&gt;Node10</title>
<path fill="none" stroke="midnightblue" d="M292.638,-169.134C299.624,-171.767 306.582,-174.727 313,-178 330.583,-186.966 331.245,-195.382 349,-204 354.671,-206.753 360.789,-209.192 366.965,-211.335"/>
<polygon fill="midnightblue" stroke="midnightblue" points="366.07,-214.724 376.662,-214.463 368.219,-208.062 366.07,-214.724"/>
</g>
<!-- Node13 -->
<g id="node13" class="node"><title>Node13</title>
<g id="a_node13"><a xlink:href="class_anoncoin_amount_field.html#ac11ebe3fdc76e730bf43a1ee46e5ca8c" target="_top" xlink:title="AnoncoinAmountField\l::text">
<polygon fill="white" stroke="black" points="363,-165 363,-195 477,-195 477,-165 363,-165"/>
<text text-anchor="start" x="371" y="-183" font-family="Helvetica,sans-Serif" font-size="10.00">AnoncoinAmountField</text>
<text text-anchor="middle" x="420" y="-172" font-family="Helvetica,sans-Serif" font-size="10.00">::text</text>
</a>
</g>
</g>
<!-- Node9&#45;&gt;Node13 -->
<g id="edge12" class="edge"><title>Node9&#45;&gt;Node13</title>
<path fill="none" stroke="midnightblue" d="M296.146,-162.155C314.053,-164.756 334.039,-167.659 352.602,-170.356"/>
<polygon fill="midnightblue" stroke="midnightblue" points="352.347,-173.855 362.746,-171.829 353.353,-166.928 352.347,-173.855"/>
</g>
<!-- Node14 -->
<g id="node14" class="node"><title>Node14</title>
<g id="a_node14"><a xlink:href="class_anoncoin_units.html#a110ee106f3eae40f4edc0a0bc5ad41b5" target="_top" xlink:title="Max amount per unit. ">
<polygon fill="white" stroke="black" points="350,-126.5 350,-145.5 490,-145.5 490,-126.5 350,-126.5"/>
<text text-anchor="middle" x="420" y="-133.5" font-family="Helvetica,sans-Serif" font-size="10.00">AnoncoinUnits::maxAmount</text>
</a>
</g>
</g>
<!-- Node9&#45;&gt;Node14 -->
<g id="edge13" class="edge"><title>Node9&#45;&gt;Node14</title>
<path fill="none" stroke="midnightblue" d="M296.146,-148.354C309.974,-146.963 325.042,-145.448 339.738,-143.971"/>
<polygon fill="midnightblue" stroke="midnightblue" points="340.232,-147.439 349.832,-142.955 339.532,-140.474 340.232,-147.439"/>
</g>
<!-- Node9&#45;&gt;Node15 -->
<g id="edge14" class="edge"><title>Node9&#45;&gt;Node15</title>
<path fill="none" stroke="midnightblue" d="M283.331,-138.992C308.212,-130.374 339.648,-119.485 365.993,-110.36"/>
<polygon fill="midnightblue" stroke="midnightblue" points="367.144,-113.665 375.448,-107.085 364.853,-107.051 367.144,-113.665"/>
</g>
<!-- Node11 -->
<g id="node11" class="node"><title>Node11</title>
<g id="a_node11"><a xlink:href="class_anoncoin_units.html#aa51b639723ccb854bc42c7bd4bcd8890" target="_top" xlink:title="Is unit ID valid? ">
<polygon fill="white" stroke="black" points="548,-214.5 548,-233.5 655,-233.5 655,-214.5 548,-214.5"/>
<text text-anchor="middle" x="601.5" y="-221.5" font-family="Helvetica,sans-Serif" font-size="10.00">AnoncoinUnits::valid</text>
</a>
</g>
</g>
<!-- Node10&#45;&gt;Node11 -->
<g id="edge10" class="edge"><title>Node10&#45;&gt;Node11</title>
<path fill="none" stroke="midnightblue" d="M476.321,-224C495.707,-224 517.619,-224 537.581,-224"/>
<polygon fill="midnightblue" stroke="midnightblue" points="537.818,-227.5 547.818,-224 537.818,-220.5 537.818,-227.5"/>
</g>
<!-- Node12 -->
<g id="node12" class="node"><title>Node12</title>
<g id="a_node12"><a xlink:href="class_anoncoin_units.html#a5653b325d94d65dc30cf75aec3718112" target="_top" xlink:title="Number of decimals left. ">
<polygon fill="white" stroke="black" points="538.5,-176.5 538.5,-195.5 664.5,-195.5 664.5,-176.5 538.5,-176.5"/>
<text text-anchor="middle" x="601.5" y="-183.5" font-family="Helvetica,sans-Serif" font-size="10.00">AnoncoinUnits::decimals</text>
</a>
</g>
</g>
<!-- Node10&#45;&gt;Node12 -->
<g id="edge11" class="edge"><title>Node10&#45;&gt;Node12</title>
<path fill="none" stroke="midnightblue" d="M466.295,-214.411C490.409,-209.306 520.251,-202.989 545.667,-197.608"/>
<polygon fill="midnightblue" stroke="midnightblue" points="546.472,-201.015 555.53,-195.52 545.022,-194.167 546.472,-201.015"/>
</g>
<!-- Node17 -->
<g id="node17" class="node"><title>Node17</title>
<g id="a_node17"><a xlink:href="class_c_script.html#ad1b5a9077241aa06116040c4f1b7c31e" target="_top" xlink:title="CScript::SetDestination">
<polygon fill="white" stroke="black" points="360,-38.5 360,-57.5 480,-57.5 480,-38.5 360,-38.5"/>
<text text-anchor="middle" x="420" y="-45.5" font-family="Helvetica,sans-Serif" font-size="10.00">CScript::SetDestination</text>
</a>
</g>
</g>
<!-- Node16&#45;&gt;Node17 -->
<g id="edge16" class="edge"><title>Node16&#45;&gt;Node17</title>
<path fill="none" stroke="midnightblue" d="M280.171,-48C300.643,-48 326.123,-48 349.644,-48"/>
<polygon fill="midnightblue" stroke="midnightblue" points="349.935,-51.5001 359.935,-48 349.935,-44.5001 349.935,-51.5001"/>
</g>
<!-- Node18 -->
<g id="node18" class="node"><title>Node18</title>
<g id="a_node18"><a xlink:href="class_c_tx_out.html#a89bf5bc4987ccd09e9a675d980e18602" target="_top" xlink:title="CTxOut::IsDust">
<polygon fill="white" stroke="black" points="377.5,-0.5 377.5,-19.5 462.5,-19.5 462.5,-0.5 377.5,-0.5"/>
<text text-anchor="middle" x="420" y="-7.5" font-family="Helvetica,sans-Serif" font-size="10.00">CTxOut::IsDust</text>
</a>
</g>
</g>
<!-- Node16&#45;&gt;Node18 -->
<g id="edge17" class="edge"><title>Node16&#45;&gt;Node18</title>
<path fill="none" stroke="midnightblue" d="M280.171,-39.4721C305.968,-33.9957 339.715,-26.8314 367.477,-20.9377"/>
<polygon fill="midnightblue" stroke="midnightblue" points="368.354,-24.3298 377.409,-18.8294 366.9,-17.4824 368.354,-24.3298"/>
</g>
</g>
</svg>
