<?xml version="1.0" encoding="UTF-8" standalone="no"?>
<!DOCTYPE svg PUBLIC "-//W3C//DTD SVG 1.1//EN"
 "http://www.w3.org/Graphics/SVG/1.1/DTD/svg11.dtd">
<!-- Generated by graphviz version 2.38.0 (20140413.2041)
 -->
<!-- Title: SendCoinsDialog Pages: 1 -->
<svg width="1677pt" height="489pt"
 viewBox="0.00 0.00 1677.00 489.00" xmlns="http://www.w3.org/2000/svg" xmlns:xlink="http://www.w3.org/1999/xlink">
<g id="graph0" class="graph" transform="scale(1 1) rotate(0) translate(4 485)">
<title>SendCoinsDialog</title>
<polygon fill="white" stroke="none" points="-4,4 -4,-485 1673,-485 1673,4 -4,4"/>
<!-- Node1 -->
<g id="node1" class="node"><title>Node1</title>
<polygon fill="#bfbfbf" stroke="black" points="1371.5,-429.5 1371.5,-448.5 1465.5,-448.5 1465.5,-429.5 1371.5,-429.5"/>
<text text-anchor="middle" x="1418.5" y="-436.5" font-family="Helvetica,sans-Serif" font-size="10.00">SendCoinsDialog</text>
</g>
<!-- Node2 -->
<g id="node2" class="node"><title>Node2</title>
<polygon fill="white" stroke="#bfbfbf" points="1102,-461.5 1102,-480.5 1155,-480.5 1155,-461.5 1102,-461.5"/>
<text text-anchor="middle" x="1128.5" y="-468.5" font-family="Helvetica,sans-Serif" font-size="10.00">QDialog</text>
</g>
<!-- Node2&#45;&gt;Node1 -->
<g id="edge1" class="edge"><title>Node2&#45;&gt;Node1</title>
<path fill="none" stroke="midnightblue" d="M1165.1,-468.16C1205.05,-464.845 1271.77,-458.924 1329,-452 1342.72,-450.34 1357.6,-448.263 1371.17,-446.259"/>
<polygon fill="midnightblue" stroke="midnightblue" points="1164.73,-464.678 1155.05,-468.985 1165.31,-471.654 1164.73,-464.678"/>
</g>
<!-- Node3 -->
<g id="node3" class="node"><title>Node3</title>
<g id="a_node3"><a xlink:href="class_ui_1_1_send_coins_dialog.html" target="_top" xlink:title="Ui::SendCoinsDialog">
<polygon fill="white" stroke="black" points="1074,-423.5 1074,-442.5 1183,-442.5 1183,-423.5 1074,-423.5"/>
<text text-anchor="middle" x="1128.5" y="-430.5" font-family="Helvetica,sans-Serif" font-size="10.00">Ui::SendCoinsDialog</text>
</a>
</g>
</g>
<!-- Node3&#45;&gt;Node1 -->
<g id="edge2" class="edge"><title>Node3&#45;&gt;Node1</title>
<path fill="none" stroke="#9a32cd" stroke-dasharray="5,2" d="M1193.45,-434.332C1247.25,-435.453 1322.9,-437.029 1371.07,-438.033"/>
<polygon fill="#9a32cd" stroke="#9a32cd" points="1193.4,-430.831 1183.33,-434.122 1193.26,-437.829 1193.4,-430.831"/>
<text text-anchor="middle" x="1266" y="-440" font-family="Helvetica,sans-Serif" font-size="10.00"> ui</text>
</g>
<!-- Node4 -->
<g id="node4" class="node"><title>Node4</title>
<g id="a_node4"><a xlink:href="class_ui___send_coins_dialog.html" target="_top" xlink:title="Ui_SendCoinsDialog">
<polygon fill="white" stroke="black" points="864,-423.5 864,-442.5 973,-442.5 973,-423.5 864,-423.5"/>
<text text-anchor="middle" x="918.5" y="-430.5" font-family="Helvetica,sans-Serif" font-size="10.00">Ui_SendCoinsDialog</text>
</a>
</g>
</g>
<!-- Node4&#45;&gt;Node3 -->
<g id="edge3" class="edge"><title>Node4&#45;&gt;Node3</title>
<path fill="none" stroke="midnightblue" d="M983.097,-433C1012.1,-433 1046.06,-433 1073.76,-433"/>
<polygon fill="midnightblue" stroke="midnightblue" points="983.065,-429.5 973.065,-433 983.065,-436.5 983.065,-429.5"/>
</g>
<!-- Node5 -->
<g id="node5" class="node"><title>Node5</title>
<g id="a_node5"><a xlink:href="class_q_validated_line_edit.html" target="_top" xlink:title="Line edit that can be marked as &quot;invalid&quot; to show input validation feedback. ">
<polygon fill="white" stroke="black" points="601,-423.5 601,-442.5 703,-442.5 703,-423.5 601,-423.5"/>
<text text-anchor="middle" x="652" y="-430.5" font-family="Helvetica,sans-Serif" font-size="10.00">QValidatedLineEdit</text>
</a>
</g>
</g>
<!-- Node5&#45;&gt;Node4 -->
<g id="edge4" class="edge"><title>Node5&#45;&gt;Node4</title>
<path fill="none" stroke="#9a32cd" stroke-dasharray="5,2" d="M713.323,-433C758.56,-433 819.933,-433 863.55,-433"/>
<polygon fill="#9a32cd" stroke="#9a32cd" points="713.061,-429.5 703.061,-433 713.061,-436.5 713.061,-429.5"/>
<text text-anchor="middle" x="784" y="-436" font-family="Helvetica,sans-Serif" font-size="10.00"> lineEditCoinControlChange</text>
</g>
<!-- Node6 -->
<g id="node6" class="node"><title>Node6</title>
<polygon fill="white" stroke="#bfbfbf" points="488.5,-423.5 488.5,-442.5 548.5,-442.5 548.5,-423.5 488.5,-423.5"/>
<text text-anchor="middle" x="518.5" y="-430.5" font-family="Helvetica,sans-Serif" font-size="10.00">QLineEdit</text>
</g>
<!-- Node6&#45;&gt;Node5 -->
<g id="edge5" class="edge"><title>Node6&#45;&gt;Node5</title>
<path fill="none" stroke="midnightblue" d="M558.874,-433C572.1,-433 587.033,-433 600.966,-433"/>
<polygon fill="midnightblue" stroke="midnightblue" points="558.684,-429.5 548.684,-433 558.684,-436.5 558.684,-429.5"/>
</g>
<!-- Node7 -->
<g id="node7" class="node"><title>Node7</title>
<g id="a_node7"><a xlink:href="class_wallet_model.html" target="_top" xlink:title="Interface to Anoncoin wallet from Qt view code. ">
<polygon fill="white" stroke="black" points="1092.5,-264.5 1092.5,-283.5 1164.5,-283.5 1164.5,-264.5 1092.5,-264.5"/>
<text text-anchor="middle" x="1128.5" y="-271.5" font-family="Helvetica,sans-Serif" font-size="10.00">WalletModel</text>
</a>
</g>
</g>
<!-- Node7&#45;&gt;Node1 -->
<g id="edge6" class="edge"><title>Node7&#45;&gt;Node1</title>
<path fill="none" stroke="#9a32cd" stroke-dasharray="5,2" d="M1137.99,-292.745C1149.46,-315.957 1172.08,-355.102 1203,-377 1217.55,-387.305 1322,-414.826 1379.6,-429.491"/>
<polygon fill="#9a32cd" stroke="#9a32cd" points="1141.1,-291.124 1133.64,-283.594 1134.77,-294.129 1141.1,-291.124"/>
<text text-anchor="middle" x="1266" y="-418" font-family="Helvetica,sans-Serif" font-size="10.00"> model</text>
</g>
<!-- Node9 -->
<g id="node9" class="node"><title>Node9</title>
<g id="a_node9"><a xlink:href="class_transaction_table_model.html" target="_top" xlink:title="UI model for the transaction table of a wallet. ">
<polygon fill="white" stroke="black" points="1358,-79.5 1358,-98.5 1479,-98.5 1479,-79.5 1358,-79.5"/>
<text text-anchor="middle" x="1418.5" y="-86.5" font-family="Helvetica,sans-Serif" font-size="10.00">TransactionTableModel</text>
</a>
</g>
</g>
<!-- Node7&#45;&gt;Node9 -->
<g id="edge23" class="edge"><title>Node7&#45;&gt;Node9</title>
<path fill="none" stroke="#9a32cd" stroke-dasharray="5,2" d="M1144.17,-256.113C1156.6,-240.16 1174.1,-215.724 1185,-192 1197.69,-164.371 1180.5,-146.449 1203,-126 1203.74,-125.326 1297.81,-109.277 1361.11,-98.5402"/>
<polygon fill="#9a32cd" stroke="#9a32cd" points="1141.34,-254.04 1137.85,-264.044 1146.82,-258.399 1141.34,-254.04"/>
<text text-anchor="middle" x="1266" y="-129" font-family="Helvetica,sans-Serif" font-size="10.00"> walletModel</text>
</g>
<!-- Node22 -->
<g id="node22" class="node"><title>Node22</title>
<g id="a_node22"><a xlink:href="class_address_table_model.html" target="_top" xlink:title="Qt model of the address book in the core. ">
<polygon fill="white" stroke="black" points="1366,-167.5 1366,-186.5 1471,-186.5 1471,-167.5 1366,-167.5"/>
<text text-anchor="middle" x="1418.5" y="-174.5" font-family="Helvetica,sans-Serif" font-size="10.00">AddressTableModel</text>
</a>
</g>
</g>
<!-- Node7&#45;&gt;Node22 -->
<g id="edge30" class="edge"><title>Node7&#45;&gt;Node22</title>
<path fill="none" stroke="#9a32cd" stroke-dasharray="5,2" d="M1174.68,-283.347C1216.57,-289.796 1279.67,-293.76 1329,-272 1369.84,-253.988 1400.44,-207.009 1412.22,-186.646"/>
<polygon fill="#9a32cd" stroke="#9a32cd" points="1175.21,-279.887 1164.77,-281.714 1174.07,-286.793 1175.21,-279.887"/>
<text text-anchor="middle" x="1266" y="-291" font-family="Helvetica,sans-Serif" font-size="10.00"> walletModel</text>
</g>
<!-- Node24 -->
<g id="node24" class="node"><title>Node24</title>
<g id="a_node24"><a xlink:href="class_recent_requests_table_model.html" target="_top" xlink:title="Model for list of recently generated payment requests / anoncoin: URIs. ">
<polygon fill="white" stroke="black" points="1347,-327.5 1347,-346.5 1490,-346.5 1490,-327.5 1347,-327.5"/>
<text text-anchor="middle" x="1418.5" y="-334.5" font-family="Helvetica,sans-Serif" font-size="10.00">RecentRequestsTableModel</text>
</a>
</g>
</g>
<!-- Node7&#45;&gt;Node24 -->
<g id="edge34" class="edge"><title>Node7&#45;&gt;Node24</title>
<path fill="none" stroke="#9a32cd" stroke-dasharray="5,2" d="M1151.3,-289.274C1165.38,-298.334 1184.48,-309.16 1203,-315 1249.59,-329.694 1304.42,-335.124 1346.98,-336.917"/>
<polygon fill="#9a32cd" stroke="#9a32cd" points="1153.09,-286.261 1142.82,-283.644 1149.21,-292.092 1153.09,-286.261"/>
<text text-anchor="middle" x="1266" y="-338" font-family="Helvetica,sans-Serif" font-size="10.00"> walletModel</text>
</g>
<!-- Node8 -->
<g id="node8" class="node"><title>Node8</title>
<polygon fill="white" stroke="#bfbfbf" points="892,-281.5 892,-300.5 945,-300.5 945,-281.5 892,-281.5"/>
<text text-anchor="middle" x="918.5" y="-288.5" font-family="Helvetica,sans-Serif" font-size="10.00">QObject</text>
</g>
<!-- Node8&#45;&gt;Node7 -->
<g id="edge7" class="edge"><title>Node8&#45;&gt;Node7</title>
<path fill="none" stroke="midnightblue" d="M955.206,-288.082C993.6,-284.944 1054.25,-279.987 1092.41,-276.868"/>
<polygon fill="midnightblue" stroke="midnightblue" points="954.687,-284.612 945.005,-288.915 955.257,-291.589 954.687,-284.612"/>
</g>
<!-- Node9&#45;&gt;Node7 -->
<g id="edge8" class="edge"><title>Node9&#45;&gt;Node7</title>
<path fill="none" stroke="#9a32cd" stroke-dasharray="5,2" d="M1392.55,-103.988C1374.89,-114.511 1350.62,-128.822 1329,-141 1273.56,-172.235 1255.18,-172.572 1203,-209 1178.14,-226.358 1152.32,-251.002 1138.89,-264.409"/>
<polygon fill="#9a32cd" stroke="#9a32cd" points="1394.83,-106.704 1401.61,-98.5695 1391.23,-100.695 1394.83,-106.704"/>
<text text-anchor="middle" x="1266" y="-212" font-family="Helvetica,sans-Serif" font-size="10.00"> transactionTableModel</text>
</g>
<!-- Node11 -->
<g id="node11" class="node"><title>Node11</title>
<g id="a_node11"><a xlink:href="class_transaction_table_priv.html" target="_top" xlink:title="TransactionTablePriv">
<polygon fill="white" stroke="black" points="1558,-0.5 1558,-19.5 1669,-19.5 1669,-0.5 1558,-0.5"/>
<text text-anchor="middle" x="1613.5" y="-7.5" font-family="Helvetica,sans-Serif" font-size="10.00">TransactionTablePriv</text>
</a>
</g>
</g>
<!-- Node9&#45;&gt;Node11 -->
<g id="edge11" class="edge"><title>Node9&#45;&gt;Node11</title>
<path fill="none" stroke="#9a32cd" stroke-dasharray="5,2" d="M1437.31,-72.4448C1454.19,-57.7602 1480.91,-36.9854 1508,-26 1523.56,-19.6885 1541.35,-15.8447 1557.78,-13.5109"/>
<polygon fill="#9a32cd" stroke="#9a32cd" points="1434.56,-70.211 1429.44,-79.4847 1439.22,-75.43 1434.56,-70.211"/>
<text text-anchor="middle" x="1524" y="-29" font-family="Helvetica,sans-Serif" font-size="10.00"> parent</text>
</g>
<!-- Node10 -->
<g id="node10" class="node"><title>Node10</title>
<polygon fill="white" stroke="#bfbfbf" points="1072,-121.5 1072,-140.5 1185,-140.5 1185,-121.5 1072,-121.5"/>
<text text-anchor="middle" x="1128.5" y="-128.5" font-family="Helvetica,sans-Serif" font-size="10.00">QAbstractTableModel</text>
</g>
<!-- Node10&#45;&gt;Node9 -->
<g id="edge9" class="edge"><title>Node10&#45;&gt;Node9</title>
<path fill="none" stroke="midnightblue" d="M1163.75,-117.993C1175.97,-113.841 1189.95,-109.642 1203,-107 1254.65,-96.5488 1314.47,-92.1498 1357.8,-90.3065"/>
<polygon fill="midnightblue" stroke="midnightblue" points="1162.23,-114.818 1153.95,-121.435 1164.55,-121.422 1162.23,-114.818"/>
</g>
<!-- Node10&#45;&gt;Node22 -->
<g id="edge26" class="edge"><title>Node10&#45;&gt;Node22</title>
<path fill="none" stroke="midnightblue" d="M1195.09,-141.476C1246.74,-149.727 1317.77,-161.07 1365.53,-168.7"/>
<polygon fill="midnightblue" stroke="midnightblue" points="1195.46,-137.99 1185.03,-139.869 1194.35,-144.903 1195.46,-137.99"/>
</g>
<!-- Node10&#45;&gt;Node24 -->
<g id="edge33" class="edge"><title>Node10&#45;&gt;Node24</title>
<path fill="none" stroke="midnightblue" d="M1174.76,-145.676C1178.62,-148.301 1182.14,-151.383 1185,-155 1213.3,-190.753 1171.45,-223.084 1203,-256 1242.7,-297.413 1275.71,-262.768 1329,-284 1357.62,-295.401 1387.73,-315.407 1404.41,-327.308"/>
<polygon fill="midnightblue" stroke="midnightblue" points="1176.31,-142.529 1165.89,-140.632 1172.85,-148.615 1176.31,-142.529"/>
</g>
<!-- Node11&#45;&gt;Node9 -->
<g id="edge10" class="edge"><title>Node11&#45;&gt;Node9</title>
<path fill="none" stroke="#9a32cd" stroke-dasharray="5,2" d="M1579.82,-23.3752C1540.94,-39.2932 1476.98,-65.4729 1442.78,-79.4708"/>
<polygon fill="#9a32cd" stroke="#9a32cd" points="1581.21,-26.5904 1589.14,-19.563 1578.56,-20.1121 1581.21,-26.5904"/>
<text text-anchor="middle" x="1524" y="-55" font-family="Helvetica,sans-Serif" font-size="10.00"> priv</text>
</g>
<!-- Node12 -->
<g id="node12" class="node"><title>Node12</title>
<g id="a_node12"><a xlink:href="class_c_wallet.html" target="_top" xlink:title="A CWallet is an extension of a keystore, which also maintains a set of transactions and balances...">
<polygon fill="white" stroke="black" points="892.5,-78.5 892.5,-97.5 944.5,-97.5 944.5,-78.5 892.5,-78.5"/>
<text text-anchor="middle" x="918.5" y="-85.5" font-family="Helvetica,sans-Serif" font-size="10.00">CWallet</text>
</a>
</g>
</g>
<!-- Node12&#45;&gt;Node7 -->
<g id="edge37" class="edge"><title>Node12&#45;&gt;Node7</title>
<path fill="none" stroke="#9a32cd" stroke-dasharray="5,2" d="M929.17,-106.487C941.374,-128.551 964.059,-165.641 991,-191 1026.34,-224.267 1077.15,-250.838 1105.77,-264.322"/>
<polygon fill="#9a32cd" stroke="#9a32cd" points="932.151,-104.641 924.322,-97.5026 925.99,-107.965 932.151,-104.641"/>
<text text-anchor="middle" x="1022.5" y="-237" font-family="Helvetica,sans-Serif" font-size="10.00"> wallet</text>
</g>
<!-- Node12&#45;&gt;Node9 -->
<g id="edge24" class="edge"><title>Node12&#45;&gt;Node9</title>
<path fill="none" stroke="#9a32cd" stroke-dasharray="5,2" d="M954.607,-88.0705C1038.79,-88.2395 1252.93,-88.6695 1357.8,-88.8801"/>
<polygon fill="#9a32cd" stroke="#9a32cd" points="954.544,-84.5705 944.537,-88.0503 954.53,-91.5704 954.544,-84.5705"/>
<text text-anchor="middle" x="1128.5" y="-92" font-family="Helvetica,sans-Serif" font-size="10.00"> wallet</text>
</g>
<!-- Node12&#45;&gt;Node11 -->
<g id="edge12" class="edge"><title>Node12&#45;&gt;Node11</title>
<path fill="none" stroke="#9a32cd" stroke-dasharray="5,2" d="M948.951,-74.4886C961.675,-69.0637 976.86,-63.1306 991,-59 1026.14,-48.7338 1035.77,-49.2825 1072,-44 1248.31,-18.2928 1459.76,-12.0141 1557.72,-10.4868"/>
<polygon fill="#9a32cd" stroke="#9a32cd" points="947.525,-71.2922 939.759,-78.4996 950.324,-77.708 947.525,-71.2922"/>
<text text-anchor="middle" x="1266" y="-32" font-family="Helvetica,sans-Serif" font-size="10.00"> wallet</text>
</g>
<!-- Node12&#45;&gt;Node22 -->
<g id="edge31" class="edge"><title>Node12&#45;&gt;Node22</title>
<path fill="none" stroke="#9a32cd" stroke-dasharray="5,2" d="M947.172,-102.086C977.121,-116.648 1026.69,-138.79 1072,-150 1173.92,-175.214 1297.42,-178.599 1365.73,-178.199"/>
<polygon fill="#9a32cd" stroke="#9a32cd" points="948.685,-98.9293 938.168,-97.6475 945.59,-105.208 948.685,-98.9293"/>
<text text-anchor="middle" x="1128.5" y="-171" font-family="Helvetica,sans-Serif" font-size="10.00"> wallet</text>
</g>
<!-- Node23 -->
<g id="node23" class="node"><title>Node23</title>
<g id="a_node23"><a xlink:href="class_address_table_priv.html" target="_top" xlink:title="AddressTablePriv">
<polygon fill="white" stroke="black" points="1566,-133.5 1566,-152.5 1661,-152.5 1661,-133.5 1566,-133.5"/>
<text text-anchor="middle" x="1613.5" y="-140.5" font-family="Helvetica,sans-Serif" font-size="10.00">AddressTablePriv</text>
</a>
</g>
</g>
<!-- Node12&#45;&gt;Node23 -->
<g id="edge29" class="edge"><title>Node12&#45;&gt;Node23</title>
<path fill="none" stroke="#9a32cd" stroke-dasharray="5,2" d="M954.596,-79.826C1045.24,-60.2127 1293.79,-15.9715 1490,-70 1535.35,-82.4881 1580.86,-116.651 1601.31,-133.436"/>
<polygon fill="#9a32cd" stroke="#9a32cd" points="953.597,-76.462 944.585,-82.0323 955.104,-83.298 953.597,-76.462"/>
<text text-anchor="middle" x="1266" y="-49" font-family="Helvetica,sans-Serif" font-size="10.00"> wallet</text>
</g>
<!-- Node13 -->
<g id="node13" class="node"><title>Node13</title>
<g id="a_node13"><a xlink:href="class_c_crypto_key_store.html" target="_top" xlink:title="Keystore which keeps the private keys encrypted. ">
<polygon fill="white" stroke="black" points="605,-40.5 605,-59.5 699,-59.5 699,-40.5 605,-40.5"/>
<text text-anchor="middle" x="652" y="-47.5" font-family="Helvetica,sans-Serif" font-size="10.00">CCryptoKeyStore</text>
</a>
</g>
</g>
<!-- Node13&#45;&gt;Node12 -->
<g id="edge13" class="edge"><title>Node13&#45;&gt;Node12</title>
<path fill="none" stroke="midnightblue" d="M709.293,-58.0875C765.869,-66.2156 850.504,-78.3748 892.296,-84.379"/>
<polygon fill="midnightblue" stroke="midnightblue" points="709.469,-54.5768 699.072,-56.6191 708.473,-61.5057 709.469,-54.5768"/>
</g>
<!-- Node14 -->
<g id="node14" class="node"><title>Node14</title>
<g id="a_node14"><a xlink:href="class_c_basic_key_store.html" target="_top" xlink:title="Basic key store, that keeps keys in an address&#45;&gt;secret map. ">
<polygon fill="white" stroke="black" points="474,-40.5 474,-59.5 563,-59.5 563,-40.5 474,-40.5"/>
<text text-anchor="middle" x="518.5" y="-47.5" font-family="Helvetica,sans-Serif" font-size="10.00">CBasicKeyStore</text>
</a>
</g>
</g>
<!-- Node14&#45;&gt;Node13 -->
<g id="edge14" class="edge"><title>Node14&#45;&gt;Node13</title>
<path fill="none" stroke="midnightblue" d="M573.476,-50C583.839,-50 594.605,-50 604.699,-50"/>
<polygon fill="midnightblue" stroke="midnightblue" points="573.288,-46.5001 563.288,-50 573.288,-53.5001 573.288,-46.5001"/>
</g>
<!-- Node15 -->
<g id="node15" class="node"><title>Node15</title>
<g id="a_node15"><a xlink:href="class_c_key_store.html" target="_top" xlink:title="A virtual base class for key stores. ">
<polygon fill="white" stroke="black" points="372,-39.5 372,-58.5 437,-58.5 437,-39.5 372,-39.5"/>
<text text-anchor="middle" x="404.5" y="-46.5" font-family="Helvetica,sans-Serif" font-size="10.00">CKeyStore</text>
</a>
</g>
</g>
<!-- Node15&#45;&gt;Node14 -->
<g id="edge15" class="edge"><title>Node15&#45;&gt;Node14</title>
<path fill="none" stroke="midnightblue" d="M447.52,-49.3752C456.144,-49.4522 465.24,-49.5334 473.917,-49.6109"/>
<polygon fill="midnightblue" stroke="midnightblue" points="447.326,-45.8734 437.295,-49.2839 447.263,-52.8731 447.326,-45.8734"/>
</g>
<!-- Node16 -->
<g id="node16" class="node"><title>Node16</title>
<polygon fill="white" stroke="#bfbfbf" points="157,-13 157,-43 276,-43 276,-13 157,-13"/>
<text text-anchor="start" x="165" y="-31" font-family="Helvetica,sans-Serif" font-size="10.00">AnnotatedMixin&lt; boost</text>
<text text-anchor="middle" x="216.5" y="-20" font-family="Helvetica,sans-Serif" font-size="10.00">::recursive_mutex &gt;</text>
</g>
<!-- Node16&#45;&gt;Node12 -->
<g id="edge20" class="edge"><title>Node16&#45;&gt;Node12</title>
<path fill="none" stroke="#9a32cd" stroke-dasharray="5,2" d="M286.139,-18.7181C321.186,-14.7441 364.543,-11 403.5,-11 403.5,-11 403.5,-11 653,-11 748.414,-11 855.748,-57.7624 898.478,-78.4036"/>
<polygon fill="#9a32cd" stroke="#9a32cd" points="285.542,-15.2638 276.015,-19.8983 286.353,-22.2167 285.542,-15.2638"/>
<text text-anchor="middle" x="518.5" y="-14" font-family="Helvetica,sans-Serif" font-size="10.00"> cs_wallet</text>
</g>
<!-- Node16&#45;&gt;Node15 -->
<g id="edge16" class="edge"><title>Node16&#45;&gt;Node15</title>
<path fill="none" stroke="#9a32cd" stroke-dasharray="5,2" d="M286.323,-35.7704C315.704,-39.0875 348.543,-42.7952 371.965,-45.4396"/>
<polygon fill="#9a32cd" stroke="#9a32cd" points="286.426,-32.2598 276.096,-34.6157 285.64,-39.2156 286.426,-32.2598"/>
<text text-anchor="middle" x="324" y="-47" font-family="Helvetica,sans-Serif" font-size="10.00"> cs_KeyStore</text>
</g>
<!-- Node17 -->
<g id="node17" class="node"><title>Node17</title>
<polygon fill="white" stroke="#bfbfbf" points="0,-18.5 0,-37.5 120,-37.5 120,-18.5 0,-18.5"/>
<text text-anchor="middle" x="60" y="-25.5" font-family="Helvetica,sans-Serif" font-size="10.00">boost::recursive_mutex</text>
</g>
<!-- Node17&#45;&gt;Node16 -->
<g id="edge17" class="edge"><title>Node17&#45;&gt;Node16</title>
<path fill="none" stroke="midnightblue" d="M130.533,-28C139.334,-28 148.269,-28 156.877,-28"/>
<polygon fill="midnightblue" stroke="midnightblue" points="130.292,-24.5001 120.292,-28 130.292,-31.5001 130.292,-24.5001"/>
</g>
<!-- Node18 -->
<g id="node18" class="node"><title>Node18</title>
<g id="a_node18"><a xlink:href="class_c_wallet_interface.html" target="_top" xlink:title="CWalletInterface">
<polygon fill="white" stroke="black" points="607,-154.5 607,-173.5 697,-173.5 697,-154.5 607,-154.5"/>
<text text-anchor="middle" x="652" y="-161.5" font-family="Helvetica,sans-Serif" font-size="10.00">CWalletInterface</text>
</a>
</g>
</g>
<!-- Node18&#45;&gt;Node12 -->
<g id="edge18" class="edge"><title>Node18&#45;&gt;Node12</title>
<path fill="none" stroke="midnightblue" d="M707.229,-161.599C746.782,-158.421 801.091,-151.055 846,-134 868.906,-125.301 892.169,-108.542 905.695,-97.8332"/>
<polygon fill="midnightblue" stroke="midnightblue" points="706.966,-158.109 697.252,-162.337 707.483,-165.09 706.966,-158.109"/>
</g>
<!-- Node19 -->
<g id="node19" class="node"><title>Node19</title>
<g id="a_node19"><a xlink:href="class_c_pub_key.html" target="_top" xlink:title="An encapsulated public key. ">
<polygon fill="white" stroke="black" points="622.5,-116.5 622.5,-135.5 681.5,-135.5 681.5,-116.5 622.5,-116.5"/>
<text text-anchor="middle" x="652" y="-123.5" font-family="Helvetica,sans-Serif" font-size="10.00">CPubKey</text>
</a>
</g>
</g>
<!-- Node19&#45;&gt;Node12 -->
<g id="edge19" class="edge"><title>Node19&#45;&gt;Node12</title>
<path fill="none" stroke="#9a32cd" stroke-dasharray="5,2" d="M691.954,-122.376C731.036,-118.501 792.888,-111.719 846,-103 861.52,-100.452 878.78,-96.8535 892.453,-93.8195"/>
<polygon fill="#9a32cd" stroke="#9a32cd" points="691.173,-118.936 681.561,-123.391 691.854,-125.903 691.173,-118.936"/>
<text text-anchor="middle" x="784" y="-122" font-family="Helvetica,sans-Serif" font-size="10.00"> vchDefaultKey</text>
</g>
<!-- Node20 -->
<g id="node20" class="node"><title>Node20</title>
<g id="a_node20"><a xlink:href="class_c_wallet_d_b.html" target="_top" xlink:title="Access to the wallet database (wallet.dat) ">
<polygon fill="white" stroke="black" points="619.5,-78.5 619.5,-97.5 684.5,-97.5 684.5,-78.5 619.5,-78.5"/>
<text text-anchor="middle" x="652" y="-85.5" font-family="Helvetica,sans-Serif" font-size="10.00">CWalletDB</text>
</a>
</g>
</g>
<!-- Node20&#45;&gt;Node12 -->
<g id="edge21" class="edge"><title>Node20&#45;&gt;Node12</title>
<path fill="none" stroke="#9a32cd" stroke-dasharray="5,2" d="M694.838,-88C750.32,-88 846.529,-88 892.128,-88"/>
<polygon fill="#9a32cd" stroke="#9a32cd" points="694.642,-84.5001 684.642,-88 694.642,-91.5001 694.642,-84.5001"/>
<text text-anchor="middle" x="784" y="-91" font-family="Helvetica,sans-Serif" font-size="10.00"> pwalletdbEncryption</text>
</g>
<!-- Node21 -->
<g id="node21" class="node"><title>Node21</title>
<g id="a_node21"><a xlink:href="class_c_d_b.html" target="_top" xlink:title="RAII class that provides access to a Berkeley database. ">
<polygon fill="white" stroke="black" points="499.5,-78.5 499.5,-97.5 537.5,-97.5 537.5,-78.5 499.5,-78.5"/>
<text text-anchor="middle" x="518.5" y="-85.5" font-family="Helvetica,sans-Serif" font-size="10.00">CDB</text>
</a>
</g>
</g>
<!-- Node21&#45;&gt;Node20 -->
<g id="edge22" class="edge"><title>Node21&#45;&gt;Node20</title>
<path fill="none" stroke="midnightblue" d="M547.732,-88C568.772,-88 597.516,-88 619.337,-88"/>
<polygon fill="midnightblue" stroke="midnightblue" points="547.509,-84.5001 537.509,-88 547.509,-91.5001 547.509,-84.5001"/>
</g>
<!-- Node22&#45;&gt;Node7 -->
<g id="edge25" class="edge"><title>Node22&#45;&gt;Node7</title>
<path fill="none" stroke="#9a32cd" stroke-dasharray="5,2" d="M1392.42,-191.588C1375.06,-201.228 1351.16,-213.589 1329,-222 1273.11,-243.207 1205.24,-258.874 1164.81,-267.205"/>
<polygon fill="#9a32cd" stroke="#9a32cd" points="1394.36,-194.516 1401.35,-186.555 1390.92,-188.419 1394.36,-194.516"/>
<text text-anchor="middle" x="1266" y="-260" font-family="Helvetica,sans-Serif" font-size="10.00"> addressTableModel</text>
</g>
<!-- Node22&#45;&gt;Node23 -->
<g id="edge28" class="edge"><title>Node22&#45;&gt;Node23</title>
<path fill="none" stroke="#9a32cd" stroke-dasharray="5,2" d="M1447.22,-162.906C1464.27,-155.04 1486.83,-146.033 1508,-142 1526.71,-138.434 1547.66,-137.961 1565.85,-138.645"/>
<polygon fill="#9a32cd" stroke="#9a32cd" points="1445.39,-159.898 1437.87,-167.359 1448.4,-166.218 1445.39,-159.898"/>
<text text-anchor="middle" x="1524" y="-145" font-family="Helvetica,sans-Serif" font-size="10.00"> parent</text>
</g>
<!-- Node23&#45;&gt;Node22 -->
<g id="edge27" class="edge"><title>Node23&#45;&gt;Node22</title>
<path fill="none" stroke="#9a32cd" stroke-dasharray="5,2" d="M1555.92,-152.968C1529.13,-157.687 1497.36,-163.284 1471.22,-167.889"/>
<polygon fill="#9a32cd" stroke="#9a32cd" points="1556.68,-156.388 1565.92,-151.206 1555.46,-149.494 1556.68,-156.388"/>
<text text-anchor="middle" x="1524" y="-164" font-family="Helvetica,sans-Serif" font-size="10.00"> priv</text>
</g>
<!-- Node24&#45;&gt;Node7 -->
<g id="edge32" class="edge"><title>Node24&#45;&gt;Node7</title>
<path fill="none" stroke="#9a32cd" stroke-dasharray="5,2" d="M1378.2,-349.189C1333.79,-360.739 1260.26,-373.059 1203,-349 1171.07,-335.583 1146.05,-300.769 1135.27,-283.709"/>
<polygon fill="#9a32cd" stroke="#9a32cd" points="1379.29,-352.52 1388.02,-346.521 1377.45,-345.764 1379.29,-352.52"/>
<text text-anchor="middle" x="1266" y="-365" font-family="Helvetica,sans-Serif" font-size="10.00"> recentRequestsTableModel</text>
</g>
<!-- Node25 -->
<g id="node25" class="node"><title>Node25</title>
<g id="a_node25"><a xlink:href="class_options_model.html" target="_top" xlink:title="Interface from Qt to configuration data structure for Anoncoin client. ">
<polygon fill="white" stroke="black" points="879.5,-243.5 879.5,-262.5 957.5,-262.5 957.5,-243.5 879.5,-243.5"/>
<text text-anchor="middle" x="918.5" y="-250.5" font-family="Helvetica,sans-Serif" font-size="10.00">OptionsModel</text>
</a>
</g>
</g>
<!-- Node25&#45;&gt;Node7 -->
<g id="edge35" class="edge"><title>Node25&#45;&gt;Node7</title>
<path fill="none" stroke="#9a32cd" stroke-dasharray="5,2" d="M967.715,-256.916C993.36,-259.096 1025.42,-261.976 1054,-265 1066.53,-266.326 1080.24,-267.955 1092.38,-269.462"/>
<polygon fill="#9a32cd" stroke="#9a32cd" points="967.764,-253.407 957.506,-256.056 967.177,-260.383 967.764,-253.407"/>
<text text-anchor="middle" x="1022.5" y="-268" font-family="Helvetica,sans-Serif" font-size="10.00"> optionsModel</text>
</g>
<!-- Node26 -->
<g id="node26" class="node"><title>Node26</title>
<polygon fill="white" stroke="#bfbfbf" points="600,-243.5 600,-262.5 704,-262.5 704,-243.5 600,-243.5"/>
<text text-anchor="middle" x="652" y="-250.5" font-family="Helvetica,sans-Serif" font-size="10.00">QAbstractListModel</text>
</g>
<!-- Node26&#45;&gt;Node25 -->
<g id="edge36" class="edge"><title>Node26&#45;&gt;Node25</title>
<path fill="none" stroke="midnightblue" d="M714.53,-253C765.407,-253 836.067,-253 879.187,-253"/>
<polygon fill="midnightblue" stroke="midnightblue" points="714.312,-249.5 704.312,-253 714.312,-256.5 714.312,-249.5"/>
</g>
</g>
</svg>
