<?xml version="1.0" encoding="UTF-8" standalone="no"?>
<!DOCTYPE svg PUBLIC "-//W3C//DTD SVG 1.1//EN"
 "http://www.w3.org/Graphics/SVG/1.1/DTD/svg11.dtd">
<!-- Generated by graphviz version 2.38.0 (20140413.2041)
 -->
<!-- Title: payments::PaymentRequest::SerializeWithCachedSizes Pages: 1 -->
<svg width="340pt" height="541pt"
 viewBox="0.00 0.00 340.00 541.00" xmlns="http://www.w3.org/2000/svg" xmlns:xlink="http://www.w3.org/1999/xlink">
<g id="graph0" class="graph" transform="scale(1 1) rotate(0) translate(4 537)">
<title>payments::PaymentRequest::SerializeWithCachedSizes</title>
<polygon fill="white" stroke="none" points="-4,4 -4,-537 336,-537 336,4 -4,4"/>
<!-- Node1 -->
<g id="node1" class="node"><title>Node1</title>
<polygon fill="#bfbfbf" stroke="black" points="0,-257.5 0,-287.5 142,-287.5 142,-257.5 0,-257.5"/>
<text text-anchor="start" x="8" y="-275.5" font-family="Helvetica,sans-Serif" font-size="10.00">payments::PaymentRequest</text>
<text text-anchor="middle" x="71" y="-264.5" font-family="Helvetica,sans-Serif" font-size="10.00">::SerializeWithCachedSizes</text>
</g>
<!-- Node2 -->
<g id="node2" class="node"><title>Node2</title>
<g id="a_node2"><a xlink:href="classpayments_1_1_payment_request.html#a28c7a6ff3f78f22bf400ee22ea9ec86b" target="_top" xlink:title="payments::PaymentRequest\l::has_payment_details_version">
<polygon fill="white" stroke="black" points="178,-502.5 178,-532.5 332,-532.5 332,-502.5 178,-502.5"/>
<text text-anchor="start" x="186" y="-520.5" font-family="Helvetica,sans-Serif" font-size="10.00">payments::PaymentRequest</text>
<text text-anchor="middle" x="255" y="-509.5" font-family="Helvetica,sans-Serif" font-size="10.00">::has_payment_details_version</text>
</a>
</g>
</g>
<!-- Node1&#45;&gt;Node2 -->
<g id="edge1" class="edge"><title>Node1&#45;&gt;Node2</title>
<path fill="none" stroke="midnightblue" d="M74.9127,-287.633C83.3635,-327.43 111.632,-435.908 178,-493.5 179.365,-494.685 180.789,-495.811 182.261,-496.881"/>
<polygon fill="midnightblue" stroke="midnightblue" points="180.827,-500.111 191.166,-502.426 184.527,-494.169 180.827,-500.111"/>
</g>
<!-- Node3 -->
<g id="node3" class="node"><title>Node3</title>
<g id="a_node3"><a xlink:href="classpayments_1_1_payment_request.html#ae3325b49f6423d3c761233e6a942e7ee" target="_top" xlink:title="payments::PaymentRequest\l::payment_details_version">
<polygon fill="white" stroke="black" points="184,-453.5 184,-483.5 326,-483.5 326,-453.5 184,-453.5"/>
<text text-anchor="start" x="192" y="-471.5" font-family="Helvetica,sans-Serif" font-size="10.00">payments::PaymentRequest</text>
<text text-anchor="middle" x="255" y="-460.5" font-family="Helvetica,sans-Serif" font-size="10.00">::payment_details_version</text>
</a>
</g>
</g>
<!-- Node1&#45;&gt;Node3 -->
<g id="edge2" class="edge"><title>Node1&#45;&gt;Node3</title>
<path fill="none" stroke="midnightblue" d="M77.1461,-287.649C89.2657,-321.052 122.812,-401.475 178,-444.5 179.773,-445.882 181.628,-447.186 183.546,-448.415"/>
<polygon fill="midnightblue" stroke="midnightblue" points="181.877,-451.492 192.309,-453.343 185.308,-445.391 181.877,-451.492"/>
</g>
<!-- Node4 -->
<g id="node4" class="node"><title>Node4</title>
<g id="a_node4"><a xlink:href="classpayments_1_1_payment_request.html#a468d0df13c43608b8df88dff36a89cb5" target="_top" xlink:title="payments::PaymentRequest\l::has_pki_type">
<polygon fill="white" stroke="black" points="184,-404.5 184,-434.5 326,-434.5 326,-404.5 184,-404.5"/>
<text text-anchor="start" x="192" y="-422.5" font-family="Helvetica,sans-Serif" font-size="10.00">payments::PaymentRequest</text>
<text text-anchor="middle" x="255" y="-411.5" font-family="Helvetica,sans-Serif" font-size="10.00">::has_pki_type</text>
</a>
</g>
</g>
<!-- Node1&#45;&gt;Node4 -->
<g id="edge3" class="edge"><title>Node1&#45;&gt;Node4</title>
<path fill="none" stroke="midnightblue" d="M81.0971,-287.752C97.3249,-313.673 133.748,-366.337 178,-395.5 180.437,-397.106 182.988,-398.61 185.619,-400.019"/>
<polygon fill="midnightblue" stroke="midnightblue" points="184.287,-403.262 194.815,-404.447 187.324,-396.955 184.287,-403.262"/>
</g>
<!-- Node5 -->
<g id="node5" class="node"><title>Node5</title>
<g id="a_node5"><a xlink:href="classpayments_1_1_payment_request.html#a42d70acf5e751d9304f1e4246587b648" target="_top" xlink:title="payments::PaymentRequest\l::pki_type">
<polygon fill="white" stroke="black" points="184,-355.5 184,-385.5 326,-385.5 326,-355.5 184,-355.5"/>
<text text-anchor="start" x="192" y="-373.5" font-family="Helvetica,sans-Serif" font-size="10.00">payments::PaymentRequest</text>
<text text-anchor="middle" x="255" y="-362.5" font-family="Helvetica,sans-Serif" font-size="10.00">::pki_type</text>
</a>
</g>
</g>
<!-- Node1&#45;&gt;Node5 -->
<g id="edge4" class="edge"><title>Node1&#45;&gt;Node5</title>
<path fill="none" stroke="midnightblue" d="M90.0665,-287.701C110.348,-304.126 144.779,-330.137 178,-346.5 181.77,-348.357 185.716,-350.111 189.742,-351.761"/>
<polygon fill="midnightblue" stroke="midnightblue" points="188.648,-355.09 199.238,-355.42 191.165,-348.558 188.648,-355.09"/>
</g>
<!-- Node6 -->
<g id="node6" class="node"><title>Node6</title>
<g id="a_node6"><a xlink:href="classpayments_1_1_payment_request.html#ac0c246fd8bc59b43274866909e2f7d0e" target="_top" xlink:title="payments::PaymentRequest\l::has_pki_data">
<polygon fill="white" stroke="black" points="184,-306.5 184,-336.5 326,-336.5 326,-306.5 184,-306.5"/>
<text text-anchor="start" x="192" y="-324.5" font-family="Helvetica,sans-Serif" font-size="10.00">payments::PaymentRequest</text>
<text text-anchor="middle" x="255" y="-313.5" font-family="Helvetica,sans-Serif" font-size="10.00">::has_pki_data</text>
</a>
</g>
</g>
<!-- Node1&#45;&gt;Node6 -->
<g id="edge5" class="edge"><title>Node1&#45;&gt;Node6</title>
<path fill="none" stroke="midnightblue" d="M128.091,-287.601C147.123,-292.725 168.555,-298.496 188.269,-303.803"/>
<polygon fill="midnightblue" stroke="midnightblue" points="187.528,-307.228 198.094,-306.448 189.348,-300.469 187.528,-307.228"/>
</g>
<!-- Node7 -->
<g id="node7" class="node"><title>Node7</title>
<g id="a_node7"><a xlink:href="classpayments_1_1_payment_request.html#ac8f305ba3185f34458c9abe869119c6a" target="_top" xlink:title="payments::PaymentRequest\l::pki_data">
<polygon fill="white" stroke="black" points="184,-257.5 184,-287.5 326,-287.5 326,-257.5 184,-257.5"/>
<text text-anchor="start" x="192" y="-275.5" font-family="Helvetica,sans-Serif" font-size="10.00">payments::PaymentRequest</text>
<text text-anchor="middle" x="255" y="-264.5" font-family="Helvetica,sans-Serif" font-size="10.00">::pki_data</text>
</a>
</g>
</g>
<!-- Node1&#45;&gt;Node7 -->
<g id="edge6" class="edge"><title>Node1&#45;&gt;Node7</title>
<path fill="none" stroke="midnightblue" d="M142.106,-272.5C152.502,-272.5 163.283,-272.5 173.865,-272.5"/>
<polygon fill="midnightblue" stroke="midnightblue" points="173.931,-276 183.93,-272.5 173.93,-269 173.931,-276"/>
</g>
<!-- Node8 -->
<g id="node8" class="node"><title>Node8</title>
<g id="a_node8"><a xlink:href="classpayments_1_1_payment_request.html#a2ca7d37905f9d20151a760381a6047d0" target="_top" xlink:title="payments::PaymentRequest\l::has_serialized_payment\l_details">
<polygon fill="white" stroke="black" points="184,-197 184,-238 326,-238 326,-197 184,-197"/>
<text text-anchor="start" x="192" y="-226" font-family="Helvetica,sans-Serif" font-size="10.00">payments::PaymentRequest</text>
<text text-anchor="start" x="192" y="-215" font-family="Helvetica,sans-Serif" font-size="10.00">::has_serialized_payment</text>
<text text-anchor="middle" x="255" y="-204" font-family="Helvetica,sans-Serif" font-size="10.00">_details</text>
</a>
</g>
</g>
<!-- Node1&#45;&gt;Node8 -->
<g id="edge7" class="edge"><title>Node1&#45;&gt;Node8</title>
<path fill="none" stroke="midnightblue" d="M121.732,-257.471C138.582,-252.379 157.826,-246.564 176.32,-240.975"/>
<polygon fill="midnightblue" stroke="midnightblue" points="177.346,-244.321 185.906,-238.078 175.321,-237.62 177.346,-244.321"/>
</g>
<!-- Node9 -->
<g id="node9" class="node"><title>Node9</title>
<g id="a_node9"><a xlink:href="classpayments_1_1_payment_request.html#a409c3294565d64b32604eec63343a097" target="_top" xlink:title="payments::PaymentRequest\l::serialized_payment_details">
<polygon fill="white" stroke="black" points="183.5,-147.5 183.5,-177.5 326.5,-177.5 326.5,-147.5 183.5,-147.5"/>
<text text-anchor="start" x="191.5" y="-165.5" font-family="Helvetica,sans-Serif" font-size="10.00">payments::PaymentRequest</text>
<text text-anchor="middle" x="255" y="-154.5" font-family="Helvetica,sans-Serif" font-size="10.00">::serialized_payment_details</text>
</a>
</g>
</g>
<!-- Node1&#45;&gt;Node9 -->
<g id="edge8" class="edge"><title>Node1&#45;&gt;Node9</title>
<path fill="none" stroke="midnightblue" d="M87.2279,-257.297C106.743,-238.562 142.333,-206.839 178,-187.5 181.953,-185.357 186.122,-183.355 190.389,-181.495"/>
<polygon fill="midnightblue" stroke="midnightblue" points="191.898,-184.659 199.84,-177.646 189.258,-178.176 191.898,-184.659"/>
</g>
<!-- Node10 -->
<g id="node10" class="node"><title>Node10</title>
<g id="a_node10"><a xlink:href="classpayments_1_1_payment_request.html#a0121113b95563ae0541c9ba54949d925" target="_top" xlink:title="payments::PaymentRequest\l::has_signature">
<polygon fill="white" stroke="black" points="184,-98.5 184,-128.5 326,-128.5 326,-98.5 184,-98.5"/>
<text text-anchor="start" x="192" y="-116.5" font-family="Helvetica,sans-Serif" font-size="10.00">payments::PaymentRequest</text>
<text text-anchor="middle" x="255" y="-105.5" font-family="Helvetica,sans-Serif" font-size="10.00">::has_signature</text>
</a>
</g>
</g>
<!-- Node1&#45;&gt;Node10 -->
<g id="edge9" class="edge"><title>Node1&#45;&gt;Node10</title>
<path fill="none" stroke="midnightblue" d="M80.0474,-257.245C95.4074,-229.566 131.552,-170.941 178,-138.5 180.733,-136.591 183.622,-134.821 186.612,-133.179"/>
<polygon fill="midnightblue" stroke="midnightblue" points="188.416,-136.192 195.839,-128.632 185.322,-129.913 188.416,-136.192"/>
</g>
<!-- Node11 -->
<g id="node11" class="node"><title>Node11</title>
<g id="a_node11"><a xlink:href="classpayments_1_1_payment_request.html#a55eab9735c9b7675d42eef66336958fc" target="_top" xlink:title="payments::PaymentRequest\l::signature">
<polygon fill="white" stroke="black" points="184,-49.5 184,-79.5 326,-79.5 326,-49.5 184,-49.5"/>
<text text-anchor="start" x="192" y="-67.5" font-family="Helvetica,sans-Serif" font-size="10.00">payments::PaymentRequest</text>
<text text-anchor="middle" x="255" y="-56.5" font-family="Helvetica,sans-Serif" font-size="10.00">::signature</text>
</a>
</g>
</g>
<!-- Node1&#45;&gt;Node11 -->
<g id="edge10" class="edge"><title>Node1&#45;&gt;Node11</title>
<path fill="none" stroke="midnightblue" d="M76.5566,-257.489C87.8704,-222.727 120.557,-136.123 178,-89.5 180.076,-87.815 182.27,-86.242 184.551,-84.7738"/>
<polygon fill="midnightblue" stroke="midnightblue" points="186.726,-87.5667 193.726,-79.6145 183.295,-81.4652 186.726,-87.5667"/>
</g>
<!-- Node12 -->
<g id="node12" class="node"><title>Node12</title>
<g id="a_node12"><a xlink:href="classpayments_1_1_payment_request.html#af648c888996d2322aea79dcddf286b63" target="_top" xlink:title="payments::PaymentRequest\l::unknown_fields">
<polygon fill="white" stroke="black" points="184,-0.5 184,-30.5 326,-30.5 326,-0.5 184,-0.5"/>
<text text-anchor="start" x="192" y="-18.5" font-family="Helvetica,sans-Serif" font-size="10.00">payments::PaymentRequest</text>
<text text-anchor="middle" x="255" y="-7.5" font-family="Helvetica,sans-Serif" font-size="10.00">::unknown_fields</text>
</a>
</g>
</g>
<!-- Node1&#45;&gt;Node12 -->
<g id="edge11" class="edge"><title>Node1&#45;&gt;Node12</title>
<path fill="none" stroke="midnightblue" d="M74.5994,-257.272C82.4154,-216.139 109.529,-101.777 178,-40.5 179.766,-38.9195 181.634,-37.4387 183.583,-36.0512"/>
<polygon fill="midnightblue" stroke="midnightblue" points="185.876,-38.7514 192.579,-30.5463 182.222,-32.7806 185.876,-38.7514"/>
</g>
</g>
</svg>
