<?xml version="1.0" encoding="UTF-8" standalone="no"?>
<!DOCTYPE svg PUBLIC "-//W3C//DTD SVG 1.1//EN"
 "http://www.w3.org/Graphics/SVG/1.1/DTD/svg11.dtd">
<!-- Generated by graphviz version 2.38.0 (20140413.2041)
 -->
<!-- Title: SAM::Socket::close Pages: 1 -->
<svg width="755pt" height="291pt"
 viewBox="0.00 0.00 755.00 290.50" xmlns="http://www.w3.org/2000/svg" xmlns:xlink="http://www.w3.org/1999/xlink">
<g id="graph0" class="graph" transform="scale(1 1) rotate(0) translate(4 286.5)">
<title>SAM::Socket::close</title>
<polygon fill="white" stroke="none" points="-4,4 -4,-286.5 751,-286.5 751,4 -4,4"/>
<!-- Node1 -->
<g id="node1" class="node"><title>Node1</title>
<polygon fill="#bfbfbf" stroke="black" points="0,-187 0,-206 103,-206 103,-187 0,-187"/>
<text text-anchor="middle" x="51.5" y="-194" font-family="Helvetica,sans-Serif" font-size="10.00">SAM::Socket::close</text>
</g>
<!-- Node2 -->
<g id="node2" class="node"><title>Node2</title>
<g id="a_node2"><a xlink:href="class_s_a_m_1_1_socket.html#ae05c892b5b1dec9dc3d4e0db093cb48c" target="_top" xlink:title="SAM::Socket::~Socket">
<polygon fill="white" stroke="black" points="139,-263 139,-282 255,-282 255,-263 139,-263"/>
<text text-anchor="middle" x="197" y="-270" font-family="Helvetica,sans-Serif" font-size="10.00">SAM::Socket::~Socket</text>
</a>
</g>
</g>
<!-- Node1&#45;&gt;Node2 -->
<g id="edge1" class="edge"><title>Node1&#45;&gt;Node2</title>
<path fill="none" stroke="midnightblue" d="M75.8822,-211.802C93.0002,-222.694 116.986,-237.321 139,-248.5 149.339,-253.751 161.1,-258.843 171.242,-262.975"/>
<polygon fill="midnightblue" stroke="midnightblue" points="77.4397,-208.643 67.1349,-206.181 73.6553,-214.531 77.4397,-208.643"/>
</g>
<!-- Node3 -->
<g id="node3" class="node"><title>Node3</title>
<g id="a_node3"><a xlink:href="class_s_a_m_1_1_socket.html#a453868a384aa8e90282dbc6c602293e1" target="_top" xlink:title="SAM::Socket::init">
<polygon fill="white" stroke="black" points="309,-231 309,-250 402,-250 402,-231 309,-231"/>
<text text-anchor="middle" x="355.5" y="-238" font-family="Helvetica,sans-Serif" font-size="10.00">SAM::Socket::init</text>
</a>
</g>
</g>
<!-- Node1&#45;&gt;Node3 -->
<g id="edge2" class="edge"><title>Node1&#45;&gt;Node3</title>
<path fill="none" stroke="midnightblue" d="M101.878,-208.245C113.973,-210.873 126.916,-213.477 139,-215.5 197.321,-225.263 265.16,-232.454 308.908,-236.555"/>
<polygon fill="midnightblue" stroke="midnightblue" points="102.475,-204.792 91.9543,-206.044 100.959,-211.626 102.475,-204.792"/>
</g>
<!-- Node6 -->
<g id="node6" class="node"><title>Node6</title>
<g id="a_node6"><a xlink:href="class_s_a_m_1_1_socket.html#ae19e83b3127dc1560f164a05b1acd763" target="_top" xlink:title="SAM::Socket::write">
<polygon fill="white" stroke="black" points="146.5,-149 146.5,-168 247.5,-168 247.5,-149 146.5,-149"/>
<text text-anchor="middle" x="197" y="-156" font-family="Helvetica,sans-Serif" font-size="10.00">SAM::Socket::write</text>
</a>
</g>
</g>
<!-- Node1&#45;&gt;Node6 -->
<g id="edge5" class="edge"><title>Node1&#45;&gt;Node6</title>
<path fill="none" stroke="midnightblue" d="M98.4735,-184.326C118.316,-179.071 141.193,-173.013 159.8,-168.086"/>
<polygon fill="midnightblue" stroke="midnightblue" points="97.4819,-180.968 88.7111,-186.911 99.2739,-187.734 97.4819,-180.968"/>
</g>
<!-- Node16 -->
<g id="node16" class="node"><title>Node16</title>
<g id="a_node16"><a xlink:href="class_s_a_m_1_1_socket.html#a3455043c16c8ca5c64855e6ea3ff15e1" target="_top" xlink:title="SAM::Socket::read">
<polygon fill="white" stroke="black" points="147,-187 147,-206 247,-206 247,-187 147,-187"/>
<text text-anchor="middle" x="197" y="-194" font-family="Helvetica,sans-Serif" font-size="10.00">SAM::Socket::read</text>
</a>
</g>
</g>
<!-- Node1&#45;&gt;Node16 -->
<g id="edge16" class="edge"><title>Node1&#45;&gt;Node16</title>
<path fill="none" stroke="midnightblue" d="M113.246,-196.5C124.45,-196.5 136.02,-196.5 146.829,-196.5"/>
<polygon fill="midnightblue" stroke="midnightblue" points="113.093,-193 103.093,-196.5 113.093,-200 113.093,-193"/>
</g>
<!-- Node17 -->
<g id="node17" class="node"><title>Node17</title>
<g id="a_node17"><a xlink:href="class_s_a_m_1_1_stream_session.html#acf0524038cc788a6d4833beb23090e53" target="_top" xlink:title="SAM::StreamSession\l::StreamSession">
<polygon fill="white" stroke="black" points="141,-99.5 141,-129.5 253,-129.5 253,-99.5 141,-99.5"/>
<text text-anchor="start" x="149" y="-117.5" font-family="Helvetica,sans-Serif" font-size="10.00">SAM::StreamSession</text>
<text text-anchor="middle" x="197" y="-106.5" font-family="Helvetica,sans-Serif" font-size="10.00">::StreamSession</text>
</a>
</g>
</g>
<!-- Node1&#45;&gt;Node17 -->
<g id="edge20" class="edge"><title>Node1&#45;&gt;Node17</title>
<path fill="none" stroke="midnightblue" d="M73.7448,-181.036C90.881,-168.926 115.857,-152.082 139,-139.5 145.361,-136.042 152.296,-132.681 159.07,-129.604"/>
<polygon fill="midnightblue" stroke="midnightblue" points="71.6528,-178.229 65.5496,-186.889 75.7214,-183.925 71.6528,-178.229"/>
</g>
<!-- Node4 -->
<g id="node4" class="node"><title>Node4</title>
<g id="a_node4"><a xlink:href="class_s_a_m_1_1_socket.html#a06437196adb5bc7b8df6c1819053b3b1" target="_top" xlink:title="SAM::Socket::bootstrapI2P">
<polygon fill="white" stroke="black" points="456,-231 456,-250 593,-250 593,-231 456,-231"/>
<text text-anchor="middle" x="524.5" y="-238" font-family="Helvetica,sans-Serif" font-size="10.00">SAM::Socket::bootstrapI2P</text>
</a>
</g>
</g>
<!-- Node3&#45;&gt;Node4 -->
<g id="edge3" class="edge"><title>Node3&#45;&gt;Node4</title>
<path fill="none" stroke="midnightblue" d="M412.54,-240.5C426.48,-240.5 441.569,-240.5 455.996,-240.5"/>
<polygon fill="midnightblue" stroke="midnightblue" points="412.134,-237 402.133,-240.5 412.133,-244 412.134,-237"/>
</g>
<!-- Node5 -->
<g id="node5" class="node"><title>Node5</title>
<g id="a_node5"><a xlink:href="class_s_a_m_1_1_socket.html#ab1373984617b43dc2108491181de49b3" target="_top" xlink:title="SAM::Socket::Socket">
<polygon fill="white" stroke="black" points="633,-246 633,-265 743,-265 743,-246 633,-246"/>
<text text-anchor="middle" x="688" y="-253" font-family="Helvetica,sans-Serif" font-size="10.00">SAM::Socket::Socket</text>
</a>
</g>
</g>
<!-- Node4&#45;&gt;Node5 -->
<g id="edge4" class="edge"><title>Node4&#45;&gt;Node5</title>
<path fill="none" stroke="midnightblue" d="M603.107,-247.708C613.204,-248.646 623.367,-249.59 632.963,-250.481"/>
<polygon fill="midnightblue" stroke="midnightblue" points="603.336,-244.214 593.055,-246.774 602.688,-251.184 603.336,-244.214"/>
</g>
<!-- Node7 -->
<g id="node7" class="node"><title>Node7</title>
<g id="a_node7"><a xlink:href="class_s_a_m_1_1_socket.html#acca2e69487ef3f865275d2d5fd1fbca1" target="_top" xlink:title="SAM::Socket::handshake">
<polygon fill="white" stroke="black" points="291,-193 291,-212 420,-212 420,-193 291,-193"/>
<text text-anchor="middle" x="355.5" y="-200" font-family="Helvetica,sans-Serif" font-size="10.00">SAM::Socket::handshake</text>
</a>
</g>
</g>
<!-- Node6&#45;&gt;Node7 -->
<g id="edge6" class="edge"><title>Node6&#45;&gt;Node7</title>
<path fill="none" stroke="midnightblue" d="M241.895,-170.841C266.822,-177.849 297.551,-186.489 320.608,-192.971"/>
<polygon fill="midnightblue" stroke="midnightblue" points="242.532,-167.385 231.958,-168.047 240.638,-174.123 242.532,-167.385"/>
</g>
<!-- Node8 -->
<g id="node8" class="node"><title>Node8</title>
<g id="a_node8"><a xlink:href="class_s_a_m_1_1_stream_session.html#ac9a46b7b8759fe46ff128982f983a62b" target="_top" xlink:title="SAM::StreamSession\l::rawRequest">
<polygon fill="white" stroke="black" points="299.5,-143.5 299.5,-173.5 411.5,-173.5 411.5,-143.5 299.5,-143.5"/>
<text text-anchor="start" x="307.5" y="-161.5" font-family="Helvetica,sans-Serif" font-size="10.00">SAM::StreamSession</text>
<text text-anchor="middle" x="355.5" y="-150.5" font-family="Helvetica,sans-Serif" font-size="10.00">::rawRequest</text>
</a>
</g>
</g>
<!-- Node6&#45;&gt;Node8 -->
<g id="edge8" class="edge"><title>Node6&#45;&gt;Node8</title>
<path fill="none" stroke="midnightblue" d="M257.773,-158.5C271.426,-158.5 285.874,-158.5 299.324,-158.5"/>
<polygon fill="midnightblue" stroke="midnightblue" points="257.518,-155 247.518,-158.5 257.518,-162 257.518,-155"/>
</g>
<!-- Node15 -->
<g id="node15" class="node"><title>Node15</title>
<g id="a_node15"><a xlink:href="class_s_a_m_1_1_stream_session.html#aedf1136f5004f4c2c32a00a2da1f2d58" target="_top" xlink:title="SAM::StreamSession\l::destGenerate">
<polygon fill="white" stroke="black" points="299.5,-94.5 299.5,-124.5 411.5,-124.5 411.5,-94.5 299.5,-94.5"/>
<text text-anchor="start" x="307.5" y="-112.5" font-family="Helvetica,sans-Serif" font-size="10.00">SAM::StreamSession</text>
<text text-anchor="middle" x="355.5" y="-101.5" font-family="Helvetica,sans-Serif" font-size="10.00">::destGenerate</text>
</a>
</g>
</g>
<!-- Node6&#45;&gt;Node15 -->
<g id="edge15" class="edge"><title>Node6&#45;&gt;Node15</title>
<path fill="none" stroke="midnightblue" d="M238.343,-145.869C259.145,-139.355 284.661,-131.367 306.474,-124.537"/>
<polygon fill="midnightblue" stroke="midnightblue" points="237.044,-142.608 228.546,-148.936 239.135,-149.288 237.044,-142.608"/>
</g>
<!-- Node7&#45;&gt;Node4 -->
<g id="edge7" class="edge"><title>Node7&#45;&gt;Node4</title>
<path fill="none" stroke="midnightblue" d="M408.465,-214.324C432.009,-219.682 459.474,-225.931 481.662,-230.98"/>
<polygon fill="midnightblue" stroke="midnightblue" points="409.168,-210.895 398.641,-212.089 407.615,-217.721 409.168,-210.895"/>
</g>
<!-- Node9 -->
<g id="node9" class="node"><title>Node9</title>
<g id="a_node9"><a xlink:href="class_s_a_m_1_1_stream_session.html#a4dbdcff8b70973f5746777ab55319ffc" target="_top" xlink:title="SAM::StreamSession\l::request">
<polygon fill="white" stroke="black" points="468.5,-113.5 468.5,-143.5 580.5,-143.5 580.5,-113.5 468.5,-113.5"/>
<text text-anchor="start" x="476.5" y="-131.5" font-family="Helvetica,sans-Serif" font-size="10.00">SAM::StreamSession</text>
<text text-anchor="middle" x="524.5" y="-120.5" font-family="Helvetica,sans-Serif" font-size="10.00">::request</text>
</a>
</g>
</g>
<!-- Node8&#45;&gt;Node9 -->
<g id="edge9" class="edge"><title>Node8&#45;&gt;Node9</title>
<path fill="none" stroke="midnightblue" d="M421.653,-146.796C437.112,-144.019 453.453,-141.083 468.413,-138.396"/>
<polygon fill="midnightblue" stroke="midnightblue" points="420.868,-143.381 411.645,-148.594 422.106,-150.27 420.868,-143.381"/>
</g>
<!-- Node10 -->
<g id="node10" class="node"><title>Node10</title>
<g id="a_node10"><a xlink:href="class_s_a_m_1_1_stream_session.html#ae76b79240acb94a98ef5ccacb44f537a" target="_top" xlink:title="SAM::StreamSession\l::createStreamSession">
<polygon fill="white" stroke="black" points="629,-49.5 629,-79.5 747,-79.5 747,-49.5 629,-49.5"/>
<text text-anchor="start" x="637" y="-67.5" font-family="Helvetica,sans-Serif" font-size="10.00">SAM::StreamSession</text>
<text text-anchor="middle" x="688" y="-56.5" font-family="Helvetica,sans-Serif" font-size="10.00">::createStreamSession</text>
</a>
</g>
</g>
<!-- Node9&#45;&gt;Node10 -->
<g id="edge10" class="edge"><title>Node9&#45;&gt;Node10</title>
<path fill="none" stroke="midnightblue" d="M572.757,-109.773C597.062,-100.141 626.287,-88.5598 649.093,-79.5219"/>
<polygon fill="midnightblue" stroke="midnightblue" points="571.372,-106.557 563.365,-113.495 573.951,-113.064 571.372,-106.557"/>
</g>
<!-- Node11 -->
<g id="node11" class="node"><title>Node11</title>
<g id="a_node11"><a xlink:href="class_s_a_m_1_1_stream_session.html#ac04d26e34abfffca6030d33317235c1a" target="_top" xlink:title="SAM::StreamSession\l::namingLookup">
<polygon fill="white" stroke="black" points="632,-0.5 632,-30.5 744,-30.5 744,-0.5 632,-0.5"/>
<text text-anchor="start" x="640" y="-18.5" font-family="Helvetica,sans-Serif" font-size="10.00">SAM::StreamSession</text>
<text text-anchor="middle" x="688" y="-7.5" font-family="Helvetica,sans-Serif" font-size="10.00">::namingLookup</text>
</a>
</g>
</g>
<!-- Node9&#45;&gt;Node11 -->
<g id="edge11" class="edge"><title>Node9&#45;&gt;Node11</title>
<path fill="none" stroke="midnightblue" d="M547.388,-105.99C567.287,-86.472 598.168,-58.4575 629,-39.5 634.291,-36.2465 640.102,-33.2521 645.938,-30.5625"/>
<polygon fill="midnightblue" stroke="midnightblue" points="544.69,-103.737 540.071,-113.272 549.628,-108.699 544.69,-103.737"/>
</g>
<!-- Node12 -->
<g id="node12" class="node"><title>Node12</title>
<g id="a_node12"><a xlink:href="class_s_a_m_1_1_stream_session.html#a9474b137168e5f3e38a96a0b7e58f230" target="_top" xlink:title="SAM::StreamSession\l::accept">
<polygon fill="white" stroke="black" points="632,-196.5 632,-226.5 744,-226.5 744,-196.5 632,-196.5"/>
<text text-anchor="start" x="640" y="-214.5" font-family="Helvetica,sans-Serif" font-size="10.00">SAM::StreamSession</text>
<text text-anchor="middle" x="688" y="-203.5" font-family="Helvetica,sans-Serif" font-size="10.00">::accept</text>
</a>
</g>
</g>
<!-- Node9&#45;&gt;Node12 -->
<g id="edge12" class="edge"><title>Node9&#45;&gt;Node12</title>
<path fill="none" stroke="midnightblue" d="M559.361,-148.648C579.348,-160.244 605.299,-174.79 629,-186.5 635.881,-189.9 643.336,-193.31 650.536,-196.47"/>
<polygon fill="midnightblue" stroke="midnightblue" points="561.027,-145.568 550.627,-143.549 557.498,-151.613 561.027,-145.568"/>
</g>
<!-- Node13 -->
<g id="node13" class="node"><title>Node13</title>
<g id="a_node13"><a xlink:href="class_s_a_m_1_1_stream_session.html#a551ef7338e1387f0f2ae023777296704" target="_top" xlink:title="SAM::StreamSession\l::connect">
<polygon fill="white" stroke="black" points="632,-147.5 632,-177.5 744,-177.5 744,-147.5 632,-147.5"/>
<text text-anchor="start" x="640" y="-165.5" font-family="Helvetica,sans-Serif" font-size="10.00">SAM::StreamSession</text>
<text text-anchor="middle" x="688" y="-154.5" font-family="Helvetica,sans-Serif" font-size="10.00">::connect</text>
</a>
</g>
</g>
<!-- Node9&#45;&gt;Node13 -->
<g id="edge13" class="edge"><title>Node9&#45;&gt;Node13</title>
<path fill="none" stroke="midnightblue" d="M590.478,-142.18C604.191,-145.067 618.537,-148.087 631.847,-150.889"/>
<polygon fill="midnightblue" stroke="midnightblue" points="591.134,-138.741 580.627,-140.106 589.692,-145.591 591.134,-138.741"/>
</g>
<!-- Node14 -->
<g id="node14" class="node"><title>Node14</title>
<g id="a_node14"><a xlink:href="class_s_a_m_1_1_stream_session.html#af91905ca845614cc9f49f8ea7537a452" target="_top" xlink:title="SAM::StreamSession\l::forward">
<polygon fill="white" stroke="black" points="632,-98.5 632,-128.5 744,-128.5 744,-98.5 632,-98.5"/>
<text text-anchor="start" x="640" y="-116.5" font-family="Helvetica,sans-Serif" font-size="10.00">SAM::StreamSession</text>
<text text-anchor="middle" x="688" y="-105.5" font-family="Helvetica,sans-Serif" font-size="10.00">::forward</text>
</a>
</g>
</g>
<!-- Node9&#45;&gt;Node14 -->
<g id="edge14" class="edge"><title>Node9&#45;&gt;Node14</title>
<path fill="none" stroke="midnightblue" d="M590.877,-122.428C604.47,-121.165 618.666,-119.847 631.847,-118.623"/>
<polygon fill="midnightblue" stroke="midnightblue" points="590.261,-118.97 580.627,-123.38 590.908,-125.94 590.261,-118.97"/>
</g>
<!-- Node16&#45;&gt;Node7 -->
<g id="edge17" class="edge"><title>Node16&#45;&gt;Node7</title>
<path fill="none" stroke="midnightblue" d="M257.405,-198.778C268.364,-199.198 279.849,-199.638 290.926,-200.063"/>
<polygon fill="midnightblue" stroke="midnightblue" points="257.215,-195.268 247.088,-198.382 256.947,-202.263 257.215,-195.268"/>
</g>
<!-- Node16&#45;&gt;Node8 -->
<g id="edge18" class="edge"><title>Node16&#45;&gt;Node8</title>
<path fill="none" stroke="midnightblue" d="M247.476,-184.487C263.975,-180.48 282.457,-175.993 299.358,-171.889"/>
<polygon fill="midnightblue" stroke="midnightblue" points="246.383,-181.15 237.492,-186.911 248.035,-187.953 246.383,-181.15"/>
</g>
<!-- Node16&#45;&gt;Node15 -->
<g id="edge19" class="edge"><title>Node16&#45;&gt;Node15</title>
<path fill="none" stroke="midnightblue" d="M245.802,-182.887C249.019,-181.274 252.121,-179.484 255,-177.5 275.805,-163.162 270.483,-148.247 291,-133.5 295.689,-130.13 300.91,-127.17 306.286,-124.588"/>
<polygon fill="midnightblue" stroke="midnightblue" points="244.258,-179.742 236.519,-186.978 247.081,-186.148 244.258,-179.742"/>
</g>
</g>
</svg>
