<?xml version="1.0" encoding="UTF-8" standalone="no"?>
<!DOCTYPE svg PUBLIC "-//W3C//DTD SVG 1.1//EN"
 "http://www.w3.org/Graphics/SVG/1.1/DTD/svg11.dtd">
<!-- Generated by graphviz version 2.38.0 (20140413.2041)
 -->
<!-- Title: Ui_OpenURIDialog Pages: 1 -->
<svg width="110pt" height="152pt"
 viewBox="0.00 0.00 110.00 152.00" xmlns="http://www.w3.org/2000/svg" xmlns:xlink="http://www.w3.org/1999/xlink">
<g id="graph0" class="graph" transform="scale(1 1) rotate(0) translate(4 148)">
<title>Ui_OpenURIDialog</title>
<polygon fill="white" stroke="none" points="-4,4 -4,-148 106,-148 106,4 -4,4"/>
<!-- Node1 -->
<g id="node1" class="node"><title>Node1</title>
<polygon fill="#bfbfbf" stroke="black" points="0,-0.5 0,-19.5 102,-19.5 102,-0.5 0,-0.5"/>
<text text-anchor="middle" x="51" y="-7.5" font-family="Helvetica,sans-Serif" font-size="10.00">Ui_OpenURIDialog</text>
</g>
<!-- Node2 -->
<g id="node2" class="node"><title>Node2</title>
<g id="a_node2"><a xlink:href="class_q_validated_line_edit.html" target="_top" xlink:title="Line edit that can be marked as &quot;invalid&quot; to show input validation feedback. ">
<polygon fill="white" stroke="black" points="0,-67.5 0,-86.5 102,-86.5 102,-67.5 0,-67.5"/>
<text text-anchor="middle" x="51" y="-74.5" font-family="Helvetica,sans-Serif" font-size="10.00">QValidatedLineEdit</text>
</a>
</g>
</g>
<!-- Node2&#45;&gt;Node1 -->
<g id="edge1" class="edge"><title>Node2&#45;&gt;Node1</title>
<path fill="none" stroke="#9a32cd" stroke-dasharray="5,2" d="M51,-57.037C51,-44.6703 51,-29.1198 51,-19.6273"/>
<polygon fill="#9a32cd" stroke="#9a32cd" points="47.5001,-57.2338 51,-67.2338 54.5001,-57.2338 47.5001,-57.2338"/>
<text text-anchor="middle" x="67" y="-41" font-family="Helvetica,sans-Serif" font-size="10.00"> uriEdit</text>
</g>
<!-- Node3 -->
<g id="node3" class="node"><title>Node3</title>
<polygon fill="white" stroke="#bfbfbf" points="21,-124.5 21,-143.5 81,-143.5 81,-124.5 21,-124.5"/>
<text text-anchor="middle" x="51" y="-131.5" font-family="Helvetica,sans-Serif" font-size="10.00">QLineEdit</text>
</g>
<!-- Node3&#45;&gt;Node2 -->
<g id="edge2" class="edge"><title>Node3&#45;&gt;Node2</title>
<path fill="none" stroke="midnightblue" d="M51,-114.117C51,-104.817 51,-94.0557 51,-86.7149"/>
<polygon fill="midnightblue" stroke="midnightblue" points="47.5001,-114.406 51,-124.406 54.5001,-114.406 47.5001,-114.406"/>
</g>
</g>
</svg>
