<?xml version="1.0" encoding="UTF-8" standalone="no"?>
<!DOCTYPE svg PUBLIC "-//W3C//DTD SVG 1.1//EN"
 "http://www.w3.org/Graphics/SVG/1.1/DTD/svg11.dtd">
<!-- Generated by graphviz version 2.38.0 (20140413.2041)
 -->
<!-- Title: CWalletDB::WritePool Pages: 1 -->
<svg width="438pt" height="142pt"
 viewBox="0.00 0.00 438.00 142.00" xmlns="http://www.w3.org/2000/svg" xmlns:xlink="http://www.w3.org/1999/xlink">
<g id="graph0" class="graph" transform="scale(1 1) rotate(0) translate(4 138)">
<title>CWalletDB::WritePool</title>
<polygon fill="white" stroke="none" points="-4,4 -4,-138 434,-138 434,4 -4,4"/>
<!-- Node1 -->
<g id="node1" class="node"><title>Node1</title>
<polygon fill="#bfbfbf" stroke="black" points="0,-57.5 0,-76.5 114,-76.5 114,-57.5 0,-57.5"/>
<text text-anchor="middle" x="57" y="-64.5" font-family="Helvetica,sans-Serif" font-size="10.00">CWalletDB::WritePool</text>
</g>
<!-- Node2 -->
<g id="node2" class="node"><title>Node2</title>
<g id="a_node2"><a xlink:href="class_c_wallet.html#a7353ba1e79fc4167fbfbe79b41698fa7" target="_top" xlink:title="CWallet::NewKeyPool">
<polygon fill="white" stroke="black" points="157.5,-95.5 157.5,-114.5 271.5,-114.5 271.5,-95.5 157.5,-95.5"/>
<text text-anchor="middle" x="214.5" y="-102.5" font-family="Helvetica,sans-Serif" font-size="10.00">CWallet::NewKeyPool</text>
</a>
</g>
</g>
<!-- Node1&#45;&gt;Node2 -->
<g id="edge1" class="edge"><title>Node1&#45;&gt;Node2</title>
<path fill="none" stroke="midnightblue" d="M106.974,-78.968C128.765,-84.2931 154.067,-90.4762 174.543,-95.4799"/>
<polygon fill="midnightblue" stroke="midnightblue" points="107.784,-75.563 97.2392,-76.589 106.122,-82.3629 107.784,-75.563"/>
</g>
<!-- Node3 -->
<g id="node3" class="node"><title>Node3</title>
<g id="a_node3"><a xlink:href="class_c_wallet.html#a9730278506e0a4f1c65239b951525b55" target="_top" xlink:title="CWallet::TopUpKeyPool">
<polygon fill="white" stroke="black" points="152.5,-57.5 152.5,-76.5 276.5,-76.5 276.5,-57.5 152.5,-57.5"/>
<text text-anchor="middle" x="214.5" y="-64.5" font-family="Helvetica,sans-Serif" font-size="10.00">CWallet::TopUpKeyPool</text>
</a>
</g>
</g>
<!-- Node1&#45;&gt;Node3 -->
<g id="edge2" class="edge"><title>Node1&#45;&gt;Node3</title>
<path fill="none" stroke="midnightblue" d="M124.195,-67C133.571,-67 143.175,-67 152.447,-67"/>
<polygon fill="midnightblue" stroke="midnightblue" points="124.139,-63.5001 114.139,-67 124.139,-70.5001 124.139,-63.5001"/>
</g>
<!-- Node8 -->
<g id="node8" class="node"><title>Node8</title>
<g id="a_node8"><a xlink:href="class_c_wallet.html#afecefdad197b3b021139cef1fd0e7a9b" target="_top" xlink:title="CWallet::AddReserveKey">
<polygon fill="white" stroke="black" points="150,-19.5 150,-38.5 279,-38.5 279,-19.5 150,-19.5"/>
<text text-anchor="middle" x="214.5" y="-26.5" font-family="Helvetica,sans-Serif" font-size="10.00">CWallet::AddReserveKey</text>
</a>
</g>
</g>
<!-- Node1&#45;&gt;Node8 -->
<g id="edge7" class="edge"><title>Node1&#45;&gt;Node8</title>
<path fill="none" stroke="midnightblue" d="M106.974,-55.032C128.765,-49.7069 154.067,-43.5238 174.543,-38.5201"/>
<polygon fill="midnightblue" stroke="midnightblue" points="106.122,-51.6371 97.2392,-57.411 107.784,-58.437 106.122,-51.6371"/>
</g>
<!-- Node4 -->
<g id="node4" class="node"><title>Node4</title>
<g id="a_node4"><a xlink:href="rpcwallet_8cpp.html#aead824d845d670fbd8f187ebd4f9a535" target="_top" xlink:title="getnewaddress">
<polygon fill="white" stroke="black" points="330.5,-114.5 330.5,-133.5 414.5,-133.5 414.5,-114.5 330.5,-114.5"/>
<text text-anchor="middle" x="372.5" y="-121.5" font-family="Helvetica,sans-Serif" font-size="10.00">getnewaddress</text>
</a>
</g>
</g>
<!-- Node3&#45;&gt;Node4 -->
<g id="edge3" class="edge"><title>Node3&#45;&gt;Node4</title>
<path fill="none" stroke="midnightblue" d="M261.69,-79.6644C267.578,-81.6154 273.473,-83.7399 279,-86 295.746,-92.8477 298.372,-97.8713 315,-105 322.99,-108.425 331.819,-111.648 340.077,-114.433"/>
<polygon fill="midnightblue" stroke="midnightblue" points="262.447,-76.2326 251.857,-76.5514 260.334,-82.9062 262.447,-76.2326"/>
</g>
<!-- Node5 -->
<g id="node5" class="node"><title>Node5</title>
<g id="a_node5"><a xlink:href="rpcwallet_8cpp.html#ae71809202b4dcc13d2034c5c72af34da" target="_top" xlink:title="getrawchangeaddress">
<polygon fill="white" stroke="black" points="315,-76.5 315,-95.5 430,-95.5 430,-76.5 315,-76.5"/>
<text text-anchor="middle" x="372.5" y="-83.5" font-family="Helvetica,sans-Serif" font-size="10.00">getrawchangeaddress</text>
</a>
</g>
</g>
<!-- Node3&#45;&gt;Node5 -->
<g id="edge4" class="edge"><title>Node3&#45;&gt;Node5</title>
<path fill="none" stroke="midnightblue" d="M286.81,-75.6851C296.19,-76.8277 305.701,-77.986 314.793,-79.0934"/>
<polygon fill="midnightblue" stroke="midnightblue" points="287.057,-72.1895 276.708,-74.4548 286.211,-79.1382 287.057,-72.1895"/>
</g>
<!-- Node6 -->
<g id="node6" class="node"><title>Node6</title>
<g id="a_node6"><a xlink:href="rpcwallet_8cpp.html#afe8615fcf2c8e5319166c2fa8c638e08" target="_top" xlink:title="keypoolrefill">
<polygon fill="white" stroke="black" points="338,-38.5 338,-57.5 407,-57.5 407,-38.5 338,-38.5"/>
<text text-anchor="middle" x="372.5" y="-45.5" font-family="Helvetica,sans-Serif" font-size="10.00">keypoolrefill</text>
</a>
</g>
</g>
<!-- Node3&#45;&gt;Node6 -->
<g id="edge5" class="edge"><title>Node3&#45;&gt;Node6</title>
<path fill="none" stroke="midnightblue" d="M287.066,-58.2836C304.795,-56.1244 322.969,-53.9108 337.893,-52.0931"/>
<polygon fill="midnightblue" stroke="midnightblue" points="286.211,-54.8618 276.708,-59.5452 287.057,-61.8105 286.211,-54.8618"/>
</g>
<!-- Node7 -->
<g id="node7" class="node"><title>Node7</title>
<g id="a_node7"><a xlink:href="rpcwallet_8cpp.html#a733f7c70e7c18783935e6de9643c0086" target="_top" xlink:title="walletpassphrase">
<polygon fill="white" stroke="black" points="325.5,-0.5 325.5,-19.5 419.5,-19.5 419.5,-0.5 325.5,-0.5"/>
<text text-anchor="middle" x="372.5" y="-7.5" font-family="Helvetica,sans-Serif" font-size="10.00">walletpassphrase</text>
</a>
</g>
</g>
<!-- Node3&#45;&gt;Node7 -->
<g id="edge6" class="edge"><title>Node3&#45;&gt;Node7</title>
<path fill="none" stroke="midnightblue" d="M261.69,-54.3356C267.578,-52.3846 273.473,-50.2601 279,-48 295.746,-41.1523 298.372,-36.1287 315,-29 322.99,-25.5747 331.819,-22.3516 340.077,-19.5668"/>
<polygon fill="midnightblue" stroke="midnightblue" points="260.334,-51.0938 251.857,-57.4486 262.447,-57.7674 260.334,-51.0938"/>
</g>
</g>
</svg>
