<?xml version="1.0" encoding="UTF-8" standalone="no"?>
<!DOCTYPE svg PUBLIC "-//W3C//DTD SVG 1.1//EN"
 "http://www.w3.org/Graphics/SVG/1.1/DTD/svg11.dtd">
<!-- Generated by graphviz version 2.38.0 (20140413.2041)
 -->
<!-- Title: CWalletDB::ErasePool Pages: 1 -->
<svg width="275pt" height="66pt"
 viewBox="0.00 0.00 275.00 66.00" xmlns="http://www.w3.org/2000/svg" xmlns:xlink="http://www.w3.org/1999/xlink">
<g id="graph0" class="graph" transform="scale(1 1) rotate(0) translate(4 62)">
<title>CWalletDB::ErasePool</title>
<polygon fill="white" stroke="none" points="-4,4 -4,-62 271,-62 271,4 -4,4"/>
<!-- Node1 -->
<g id="node1" class="node"><title>Node1</title>
<polygon fill="#bfbfbf" stroke="black" points="0,-19.5 0,-38.5 117,-38.5 117,-19.5 0,-19.5"/>
<text text-anchor="middle" x="58.5" y="-26.5" font-family="Helvetica,sans-Serif" font-size="10.00">CWalletDB::ErasePool</text>
</g>
<!-- Node2 -->
<g id="node2" class="node"><title>Node2</title>
<g id="a_node2"><a xlink:href="class_c_wallet.html#a7353ba1e79fc4167fbfbe79b41698fa7" target="_top" xlink:title="CWallet::NewKeyPool">
<polygon fill="white" stroke="black" points="153,-38.5 153,-57.5 267,-57.5 267,-38.5 153,-38.5"/>
<text text-anchor="middle" x="210" y="-45.5" font-family="Helvetica,sans-Serif" font-size="10.00">CWallet::NewKeyPool</text>
</a>
</g>
</g>
<!-- Node1&#45;&gt;Node2 -->
<g id="edge1" class="edge"><title>Node1&#45;&gt;Node2</title>
<path fill="none" stroke="midnightblue" d="M127.256,-37.6111C135.808,-38.698 144.483,-39.8005 152.828,-40.8611"/>
<polygon fill="midnightblue" stroke="midnightblue" points="127.662,-34.1347 117.301,-36.3459 126.78,-41.0788 127.662,-34.1347"/>
</g>
<!-- Node3 -->
<g id="node3" class="node"><title>Node3</title>
<g id="a_node3"><a xlink:href="class_c_wallet.html#ae460b8c824a1a6633615f95373e533f2" target="_top" xlink:title="CWallet::KeepKey">
<polygon fill="white" stroke="black" points="161,-0.5 161,-19.5 259,-19.5 259,-0.5 161,-0.5"/>
<text text-anchor="middle" x="210" y="-7.5" font-family="Helvetica,sans-Serif" font-size="10.00">CWallet::KeepKey</text>
</a>
</g>
</g>
<!-- Node1&#45;&gt;Node3 -->
<g id="edge2" class="edge"><title>Node1&#45;&gt;Node3</title>
<path fill="none" stroke="midnightblue" d="M127.468,-20.3619C138.633,-18.9429 150.002,-17.4981 160.567,-16.1554"/>
<polygon fill="midnightblue" stroke="midnightblue" points="126.78,-16.9212 117.301,-21.6541 127.662,-23.8653 126.78,-16.9212"/>
</g>
</g>
</svg>
