<?xml version="1.0" encoding="UTF-8" standalone="no"?>
<!DOCTYPE svg PUBLIC "-//W3C//DTD SVG 1.1//EN"
 "http://www.w3.org/Graphics/SVG/1.1/DTD/svg11.dtd">
<!-- Generated by graphviz version 2.38.0 (20140413.2041)
 -->
<!-- Title: CService::ToStringPort Pages: 1 -->
<svg width="1457pt" height="528pt"
 viewBox="0.00 0.00 1457.00 528.42" xmlns="http://www.w3.org/2000/svg" xmlns:xlink="http://www.w3.org/1999/xlink">
<g id="graph0" class="graph" transform="scale(1 1) rotate(0) translate(4 524.424)">
<title>CService::ToStringPort</title>
<polygon fill="white" stroke="none" points="-4,4 -4,-524.424 1453,-524.424 1453,4 -4,4"/>
<!-- Node1 -->
<g id="node1" class="node"><title>Node1</title>
<polygon fill="#bfbfbf" stroke="black" points="0,-142.5 0,-161.5 119,-161.5 119,-142.5 0,-142.5"/>
<text text-anchor="middle" x="59.5" y="-149.5" font-family="Helvetica,sans-Serif" font-size="10.00">CService::ToStringPort</text>
</g>
<!-- Node2 -->
<g id="node2" class="node"><title>Node2</title>
<g id="a_node2"><a xlink:href="class_c_service.html#a39b82301356b0dfc2a92befc727b77be" target="_top" xlink:title="CService::ToStringIPPort">
<polygon fill="white" stroke="black" points="155,-142.5 155,-161.5 283,-161.5 283,-142.5 155,-142.5"/>
<text text-anchor="middle" x="219" y="-149.5" font-family="Helvetica,sans-Serif" font-size="10.00">CService::ToStringIPPort</text>
</a>
</g>
</g>
<!-- Node1&#45;&gt;Node2 -->
<g id="edge1" class="edge"><title>Node1&#45;&gt;Node2</title>
<path fill="none" stroke="midnightblue" d="M129.365,-152C137.826,-152 146.443,-152 154.814,-152"/>
<polygon fill="midnightblue" stroke="midnightblue" points="129.147,-148.5 119.147,-152 129.147,-155.5 129.147,-148.5"/>
</g>
<!-- Node3 -->
<g id="node3" class="node"><title>Node3</title>
<g id="a_node3"><a xlink:href="class_c_addr_man.html#a03fcc7109b5f014760dc50a81f68c5ec" target="_top" xlink:title="CAddrMan::Add">
<polygon fill="white" stroke="black" points="628.5,-475.5 628.5,-494.5 716.5,-494.5 716.5,-475.5 628.5,-475.5"/>
<text text-anchor="middle" x="672.5" y="-482.5" font-family="Helvetica,sans-Serif" font-size="10.00">CAddrMan::Add</text>
</a>
</g>
</g>
<!-- Node2&#45;&gt;Node3 -->
<g id="edge2" class="edge"><title>Node2&#45;&gt;Node3</title>
<path fill="none" stroke="midnightblue" d="M225.794,-171.616C245.504,-234.297 316.551,-429.963 455,-504 518.551,-537.984 607.788,-510.681 649.007,-494.625"/>
<polygon fill="midnightblue" stroke="midnightblue" points="229.069,-170.357 222.796,-161.819 222.376,-172.405 229.069,-170.357"/>
</g>
<!-- Node11 -->
<g id="node11" class="node"><title>Node11</title>
<g id="a_node11"><a xlink:href="class_c_node.html#a51556705550511146245b9fb2fec09c1" target="_top" xlink:title="CNode::CNode">
<polygon fill="white" stroke="black" points="630.5,-19.5 630.5,-38.5 714.5,-38.5 714.5,-19.5 630.5,-19.5"/>
<text text-anchor="middle" x="672.5" y="-26.5" font-family="Helvetica,sans-Serif" font-size="10.00">CNode::CNode</text>
</a>
</g>
</g>
<!-- Node2&#45;&gt;Node11 -->
<g id="edge11" class="edge"><title>Node2&#45;&gt;Node11</title>
<path fill="none" stroke="midnightblue" d="M251.695,-138.539C296.322,-120.05 380.558,-86.8356 455,-67 515.106,-50.9844 586.442,-39.9581 630.34,-34.0604"/>
<polygon fill="midnightblue" stroke="midnightblue" points="250.153,-135.39 242.27,-142.47 252.847,-141.851 250.153,-135.39"/>
</g>
<!-- Node12 -->
<g id="node12" class="node"><title>Node12</title>
<g id="a_node12"><a xlink:href="class_c_service.html#a336f9848fe9364e260c76499be0351a5" target="_top" xlink:title="CService::ToString">
<polygon fill="white" stroke="black" points="319,-247.5 319,-266.5 419,-266.5 419,-247.5 319,-247.5"/>
<text text-anchor="middle" x="369" y="-254.5" font-family="Helvetica,sans-Serif" font-size="10.00">CService::ToString</text>
</a>
</g>
</g>
<!-- Node2&#45;&gt;Node12 -->
<g id="edge12" class="edge"><title>Node2&#45;&gt;Node12</title>
<path fill="none" stroke="midnightblue" d="M241.784,-167.455C272.744,-189.42 328.569,-229.025 354.314,-247.29"/>
<polygon fill="midnightblue" stroke="midnightblue" points="243.576,-164.435 233.395,-161.503 239.526,-170.144 243.576,-164.435"/>
</g>
<!-- Node39 -->
<g id="node39" class="node"><title>Node39</title>
<g id="a_node39"><a xlink:href="rpcmisc_8cpp.html#a70335b93783d51e48d276a1e08bd721a" target="_top" xlink:title="getinfo">
<polygon fill="white" stroke="black" points="345.5,-0.5 345.5,-19.5 392.5,-19.5 392.5,-0.5 345.5,-0.5"/>
<text text-anchor="middle" x="369" y="-7.5" font-family="Helvetica,sans-Serif" font-size="10.00">getinfo</text>
</a>
</g>
</g>
<!-- Node2&#45;&gt;Node39 -->
<g id="edge48" class="edge"><title>Node2&#45;&gt;Node39</title>
<path fill="none" stroke="midnightblue" d="M231.718,-133.705C248.541,-108.59 281.655,-63.2294 319,-34 326.907,-27.8113 336.667,-22.6329 345.39,-18.6892"/>
<polygon fill="midnightblue" stroke="midnightblue" points="228.661,-131.984 226.093,-142.263 234.511,-135.829 228.661,-131.984"/>
</g>
<!-- Node4 -->
<g id="node4" class="node"><title>Node4</title>
<g id="a_node4"><a xlink:href="net_8cpp.html#ab2d8883b5524ec7b80d3b9535e73a3ed" target="_top" xlink:title="Process DNS seed data from chainparams. ">
<polygon fill="white" stroke="black" points="794,-475.5 794,-494.5 923,-494.5 923,-475.5 794,-475.5"/>
<text text-anchor="middle" x="858.5" y="-482.5" font-family="Helvetica,sans-Serif" font-size="10.00">ThreadDNSAddressSeed</text>
</a>
</g>
</g>
<!-- Node3&#45;&gt;Node4 -->
<g id="edge3" class="edge"><title>Node3&#45;&gt;Node4</title>
<path fill="none" stroke="midnightblue" d="M726.919,-485C747.8,-485 771.919,-485 793.702,-485"/>
<polygon fill="midnightblue" stroke="midnightblue" points="726.64,-481.5 716.64,-485 726.64,-488.5 726.64,-481.5"/>
</g>
<!-- Node10 -->
<g id="node10" class="node"><title>Node10</title>
<g id="a_node10"><a xlink:href="net_8cpp.html#a3b4720330e61127963a43df26b80f804" target="_top" xlink:title="ThreadOpenConnections">
<polygon fill="white" stroke="black" points="794.5,-437.5 794.5,-456.5 922.5,-456.5 922.5,-437.5 794.5,-437.5"/>
<text text-anchor="middle" x="858.5" y="-444.5" font-family="Helvetica,sans-Serif" font-size="10.00">ThreadOpenConnections</text>
</a>
</g>
</g>
<!-- Node3&#45;&gt;Node10 -->
<g id="edge9" class="edge"><title>Node3&#45;&gt;Node10</title>
<path fill="none" stroke="midnightblue" d="M726.628,-474.028C753.443,-468.49 785.657,-461.837 811.414,-456.518"/>
<polygon fill="midnightblue" stroke="midnightblue" points="725.725,-470.64 716.64,-476.091 727.141,-477.496 725.725,-470.64"/>
</g>
<!-- Node5 -->
<g id="node5" class="node"><title>Node5</title>
<g id="a_node5"><a xlink:href="net_8h.html#a9396d8054e8f74959e9391871aaddde0" target="_top" xlink:title="StartNode">
<polygon fill="white" stroke="black" points="1013,-399.5 1013,-418.5 1075,-418.5 1075,-399.5 1013,-399.5"/>
<text text-anchor="middle" x="1044" y="-406.5" font-family="Helvetica,sans-Serif" font-size="10.00">StartNode</text>
</a>
</g>
</g>
<!-- Node4&#45;&gt;Node5 -->
<g id="edge4" class="edge"><title>Node4&#45;&gt;Node5</title>
<path fill="none" stroke="midnightblue" d="M916.842,-472.684C923.716,-470.698 930.571,-468.471 937,-466 971.132,-452.883 1008.13,-431.063 1028.13,-418.569"/>
<polygon fill="midnightblue" stroke="midnightblue" points="915.534,-469.413 906.807,-475.421 917.376,-476.167 915.534,-469.413"/>
</g>
<!-- Node6 -->
<g id="node6" class="node"><title>Node6</title>
<g id="a_node6"><a xlink:href="init_8h.html#a1a4c1bfbf6ba1db77e988b89b9cadfd3" target="_top" xlink:title="Initialize anoncoin. ">
<polygon fill="white" stroke="black" points="1155,-342.5 1155,-361.5 1208,-361.5 1208,-342.5 1155,-342.5"/>
<text text-anchor="middle" x="1181.5" y="-349.5" font-family="Helvetica,sans-Serif" font-size="10.00">AppInit2</text>
</a>
</g>
</g>
<!-- Node5&#45;&gt;Node6 -->
<g id="edge5" class="edge"><title>Node5&#45;&gt;Node6</title>
<path fill="none" stroke="midnightblue" d="M1077.04,-395.521C1101.86,-385.079 1135.64,-370.871 1157.75,-361.572"/>
<polygon fill="midnightblue" stroke="midnightblue" points="1075.54,-392.356 1067.68,-399.459 1078.25,-398.808 1075.54,-392.356"/>
</g>
<!-- Node7 -->
<g id="node7" class="node"><title>Node7</title>
<g id="a_node7"><a xlink:href="anoncoind_8cpp.html#ac59316b767e6984e1285f0531275286b" target="_top" xlink:title="AppInit">
<polygon fill="white" stroke="black" points="1287.5,-323.5 1287.5,-342.5 1335.5,-342.5 1335.5,-323.5 1287.5,-323.5"/>
<text text-anchor="middle" x="1311.5" y="-330.5" font-family="Helvetica,sans-Serif" font-size="10.00">AppInit</text>
</a>
</g>
</g>
<!-- Node6&#45;&gt;Node7 -->
<g id="edge6" class="edge"><title>Node6&#45;&gt;Node7</title>
<path fill="none" stroke="midnightblue" d="M1218.09,-346.718C1240.13,-343.446 1267.81,-339.337 1287.1,-336.473"/>
<polygon fill="midnightblue" stroke="midnightblue" points="1217.47,-343.27 1208.1,-348.201 1218.5,-350.194 1217.47,-343.27"/>
</g>
<!-- Node9 -->
<g id="node9" class="node"><title>Node9</title>
<g id="a_node9"><a xlink:href="class_anoncoin_coin.html#a9510881824d283404ac43414dbb74586" target="_top" xlink:title="AnoncoinCoin::initialize">
<polygon fill="white" stroke="black" points="1251.5,-361.5 1251.5,-380.5 1371.5,-380.5 1371.5,-361.5 1251.5,-361.5"/>
<text text-anchor="middle" x="1311.5" y="-368.5" font-family="Helvetica,sans-Serif" font-size="10.00">AnoncoinCoin::initialize</text>
</a>
</g>
</g>
<!-- Node6&#45;&gt;Node9 -->
<g id="edge8" class="edge"><title>Node6&#45;&gt;Node9</title>
<path fill="none" stroke="midnightblue" d="M1218.3,-357.314C1228.57,-358.839 1240.05,-360.543 1251.34,-362.218"/>
<polygon fill="midnightblue" stroke="midnightblue" points="1218.5,-353.806 1208.1,-355.799 1217.47,-360.73 1218.5,-353.806"/>
</g>
<!-- Node8 -->
<g id="node8" class="node"><title>Node8</title>
<g id="a_node8"><a xlink:href="anoncoind_8cpp.html#a0ddf1224851353fc92bfbff6f499fa97" target="_top" xlink:title="main">
<polygon fill="white" stroke="black" points="1411,-323.5 1411,-342.5 1449,-342.5 1449,-323.5 1411,-323.5"/>
<text text-anchor="middle" x="1430" y="-330.5" font-family="Helvetica,sans-Serif" font-size="10.00">main</text>
</a>
</g>
</g>
<!-- Node7&#45;&gt;Node8 -->
<g id="edge7" class="edge"><title>Node7&#45;&gt;Node8</title>
<path fill="none" stroke="midnightblue" d="M1345.73,-333C1366.95,-333 1393.63,-333 1410.99,-333"/>
<polygon fill="midnightblue" stroke="midnightblue" points="1345.52,-329.5 1335.52,-333 1345.52,-336.5 1345.52,-329.5"/>
</g>
<!-- Node10&#45;&gt;Node5 -->
<g id="edge10" class="edge"><title>Node10&#45;&gt;Node5</title>
<path fill="none" stroke="midnightblue" d="M915.92,-435.316C947.881,-428.698 986.592,-420.681 1012.83,-415.248"/>
<polygon fill="midnightblue" stroke="midnightblue" points="914.887,-431.956 905.805,-437.411 916.307,-438.81 914.887,-431.956"/>
</g>
<!-- Node13 -->
<g id="node13" class="node"><title>Node13</title>
<g id="a_node13"><a xlink:href="class_c_addr_man.html#a33ec6a4584cf4b17af821e6e35216459" target="_top" xlink:title="CAddrMan::Good_">
<polygon fill="white" stroke="black" points="460,-266.5 460,-285.5 560,-285.5 560,-266.5 460,-266.5"/>
<text text-anchor="middle" x="510" y="-273.5" font-family="Helvetica,sans-Serif" font-size="10.00">CAddrMan::Good_</text>
</a>
</g>
</g>
<!-- Node12&#45;&gt;Node13 -->
<g id="edge13" class="edge"><title>Node12&#45;&gt;Node13</title>
<path fill="none" stroke="midnightblue" d="M429.143,-265.084C439.418,-266.489 450.001,-267.935 459.968,-269.298"/>
<polygon fill="midnightblue" stroke="midnightblue" points="429.388,-261.585 419.006,-263.699 428.44,-268.521 429.388,-261.585"/>
</g>
<!-- Node15 -->
<g id="node15" class="node"><title>Node15</title>
<g id="a_node15"><a xlink:href="main_8h.html#a711a5bdb30c9c9bbdc83011b1cbbe2f3" target="_top" xlink:title="Send queued protocol messages to be sent to a give node. ">
<polygon fill="white" stroke="black" points="816,-323.5 816,-342.5 901,-342.5 901,-323.5 816,-323.5"/>
<text text-anchor="middle" x="858.5" y="-330.5" font-family="Helvetica,sans-Serif" font-size="10.00">SendMessages</text>
</a>
</g>
</g>
<!-- Node12&#45;&gt;Node15 -->
<g id="edge15" class="edge"><title>Node12&#45;&gt;Node15</title>
<path fill="none" stroke="midnightblue" d="M396.338,-271.175C412.759,-279.4 434.582,-289.241 455,-295 582.845,-331.059 741.636,-334.571 815.752,-333.951"/>
<polygon fill="midnightblue" stroke="midnightblue" points="397.84,-268.012 387.345,-266.563 394.646,-274.241 397.84,-268.012"/>
</g>
<!-- Node20 -->
<g id="node20" class="node"><title>Node20</title>
<g id="a_node20"><a xlink:href="net_8h.html#a337d6af198a6b0d75f830e56da9b91e9" target="_top" xlink:title="AddLocal">
<polygon fill="white" stroke="black" points="481,-228.5 481,-247.5 539,-247.5 539,-228.5 481,-228.5"/>
<text text-anchor="middle" x="510" y="-235.5" font-family="Helvetica,sans-Serif" font-size="10.00">AddLocal</text>
</a>
</g>
</g>
<!-- Node12&#45;&gt;Node20 -->
<g id="edge22" class="edge"><title>Node12&#45;&gt;Node20</title>
<path fill="none" stroke="midnightblue" d="M429.34,-248.889C447.13,-246.457 465.829,-243.901 480.636,-241.877"/>
<polygon fill="midnightblue" stroke="midnightblue" points="428.44,-245.479 419.006,-250.301 429.388,-252.415 428.44,-245.479"/>
</g>
<!-- Node23 -->
<g id="node23" class="node"><title>Node23</title>
<g id="a_node23"><a xlink:href="net_8cpp.html#a0c8010ad96acff7cca6aca684ec42b71" target="_top" xlink:title="BindListenPort">
<polygon fill="white" stroke="black" points="631.5,-133.5 631.5,-152.5 713.5,-152.5 713.5,-133.5 631.5,-133.5"/>
<text text-anchor="middle" x="672.5" y="-140.5" font-family="Helvetica,sans-Serif" font-size="10.00">BindListenPort</text>
</a>
</g>
</g>
<!-- Node12&#45;&gt;Node23 -->
<g id="edge45" class="edge"><title>Node12&#45;&gt;Node23</title>
<path fill="none" stroke="midnightblue" d="M399.538,-243.027C415.763,-235.548 436.327,-226.383 455,-219 503.101,-199.982 517.545,-201.576 565,-181 581.599,-173.803 584.162,-168.617 601,-162 610.674,-158.198 621.384,-154.883 631.474,-152.132"/>
<polygon fill="midnightblue" stroke="midnightblue" points="397.647,-240.047 390.053,-247.436 400.597,-246.395 397.647,-240.047"/>
</g>
<!-- Node24 -->
<g id="node24" class="node"><title>Node24</title>
<g id="a_node24"><a xlink:href="net_8cpp.html#a23ad330fb37fb9d5b1d6ab43f33b1443" target="_top" xlink:title="GetMyExternalIP2">
<polygon fill="white" stroke="black" points="461,-152.5 461,-171.5 559,-171.5 559,-152.5 461,-152.5"/>
<text text-anchor="middle" x="510" y="-159.5" font-family="Helvetica,sans-Serif" font-size="10.00">GetMyExternalIP2</text>
</a>
</g>
</g>
<!-- Node12&#45;&gt;Node24 -->
<g id="edge27" class="edge"><title>Node12&#45;&gt;Node24</title>
<path fill="none" stroke="midnightblue" d="M386.994,-240.343C403.41,-224.874 429.473,-201.9 455,-186 463.882,-180.468 474.259,-175.534 483.53,-171.6"/>
<polygon fill="midnightblue" stroke="midnightblue" points="384.56,-237.827 379.755,-247.27 389.4,-242.885 384.56,-237.827"/>
</g>
<!-- Node26 -->
<g id="node26" class="node"><title>Node26</title>
<g id="a_node26"><a xlink:href="net_8h.html#a718dfaec68eabf5a2a3ebb476bf4fe67" target="_top" xlink:title="ConnectNode">
<polygon fill="white" stroke="black" points="471,-399.5 471,-418.5 549,-418.5 549,-399.5 471,-399.5"/>
<text text-anchor="middle" x="510" y="-406.5" font-family="Helvetica,sans-Serif" font-size="10.00">ConnectNode</text>
</a>
</g>
</g>
<!-- Node12&#45;&gt;Node26 -->
<g id="edge30" class="edge"><title>Node12&#45;&gt;Node26</title>
<path fill="none" stroke="midnightblue" d="M378.327,-275.951C391.197,-303.319 418.318,-354.015 455,-385 462.132,-391.024 471.017,-395.798 479.507,-399.45"/>
<polygon fill="midnightblue" stroke="midnightblue" points="381.438,-274.338 374.102,-266.694 375.07,-277.245 381.438,-274.338"/>
</g>
<!-- Node30 -->
<g id="node30" class="node"><title>Node30</title>
<g id="a_node30"><a xlink:href="class_c_node.html#a4dbfe4f6c1fd162aaa905e4bd201d536" target="_top" xlink:title="CNode::PushVersion">
<polygon fill="white" stroke="black" points="455,-76.5 455,-95.5 565,-95.5 565,-76.5 455,-76.5"/>
<text text-anchor="middle" x="510" y="-83.5" font-family="Helvetica,sans-Serif" font-size="10.00">CNode::PushVersion</text>
</a>
</g>
</g>
<!-- Node12&#45;&gt;Node30 -->
<g id="edge36" class="edge"><title>Node12&#45;&gt;Node30</title>
<path fill="none" stroke="midnightblue" d="M375.79,-237.696C386.361,-205.644 411.772,-141.383 455,-105 459.562,-101.16 464.952,-98.0767 470.531,-95.6058"/>
<polygon fill="midnightblue" stroke="midnightblue" points="372.449,-236.654 372.77,-247.244 379.123,-238.765 372.449,-236.654"/>
</g>
<!-- Node31 -->
<g id="node31" class="node"><title>Node31</title>
<g id="a_node31"><a xlink:href="class_c_node.html#aaa77188d9df85b80e3f8a30292acf6a9" target="_top" xlink:title="CNode::copyStats">
<polygon fill="white" stroke="black" points="461.5,-114.5 461.5,-133.5 558.5,-133.5 558.5,-114.5 461.5,-114.5"/>
<text text-anchor="middle" x="510" y="-121.5" font-family="Helvetica,sans-Serif" font-size="10.00">CNode::copyStats</text>
</a>
</g>
</g>
<!-- Node12&#45;&gt;Node31 -->
<g id="edge38" class="edge"><title>Node12&#45;&gt;Node31</title>
<path fill="none" stroke="midnightblue" d="M379.331,-238.343C392.776,-213.257 419.887,-168.829 455,-143 460.204,-139.172 466.246,-136.063 472.366,-133.555"/>
<polygon fill="midnightblue" stroke="midnightblue" points="376.223,-236.735 374.713,-247.221 382.433,-239.965 376.223,-236.735"/>
</g>
<!-- Node36 -->
<g id="node36" class="node"><title>Node36</title>
<g id="a_node36"><a xlink:href="net_8cpp.html#aa1111c12121e039bbd8eedb556e4514a" target="_top" xlink:title="Main Thread that handling socket&#39;s &amp; their housekeeping... ">
<polygon fill="white" stroke="black" points="801.5,-361.5 801.5,-380.5 915.5,-380.5 915.5,-361.5 801.5,-361.5"/>
<text text-anchor="middle" x="858.5" y="-368.5" font-family="Helvetica,sans-Serif" font-size="10.00">ThreadSocketHandler</text>
</a>
</g>
</g>
<!-- Node12&#45;&gt;Node36 -->
<g id="edge43" class="edge"><title>Node12&#45;&gt;Node36</title>
<path fill="none" stroke="midnightblue" d="M386.912,-273.896C402.984,-288.867 428.566,-310.007 455,-321 571.218,-369.333 721.375,-374.547 801.415,-373.292"/>
<polygon fill="midnightblue" stroke="midnightblue" points="389.061,-271.108 379.42,-266.715 384.218,-276.161 389.061,-271.108"/>
</g>
<!-- Node37 -->
<g id="node37" class="node"><title>Node37</title>
<g id="a_node37"><a xlink:href="class_c_service.html#af357cab44f469efb9e7b8fe0afd615f9" target="_top" xlink:title="CService::print">
<polygon fill="white" stroke="black" points="469,-475.5 469,-494.5 551,-494.5 551,-475.5 469,-475.5"/>
<text text-anchor="middle" x="510" y="-482.5" font-family="Helvetica,sans-Serif" font-size="10.00">CService::print</text>
</a>
</g>
</g>
<!-- Node12&#45;&gt;Node37 -->
<g id="edge46" class="edge"><title>Node12&#45;&gt;Node37</title>
<path fill="none" stroke="midnightblue" d="M372.609,-277.001C379.016,-318.154 399.278,-412.887 455,-466 459.101,-469.909 464.052,-473.018 469.273,-475.492"/>
<polygon fill="midnightblue" stroke="midnightblue" points="376.043,-276.292 371.151,-266.894 369.115,-277.291 376.043,-276.292"/>
</g>
<!-- Node38 -->
<g id="node38" class="node"><title>Node38</title>
<g id="a_node38"><a xlink:href="rpcnet_8cpp.html#a2a6994d3b180c8e9ce81e0da65a41bb3" target="_top" xlink:title="getaddednodeinfo">
<polygon fill="white" stroke="black" points="461.5,-437.5 461.5,-456.5 558.5,-456.5 558.5,-437.5 461.5,-437.5"/>
<text text-anchor="middle" x="510" y="-444.5" font-family="Helvetica,sans-Serif" font-size="10.00">getaddednodeinfo</text>
</a>
</g>
</g>
<!-- Node12&#45;&gt;Node38 -->
<g id="edge47" class="edge"><title>Node12&#45;&gt;Node38</title>
<path fill="none" stroke="midnightblue" d="M374.568,-276.698C383.745,-311.987 407.708,-386.194 455,-428 459.393,-431.884 464.63,-434.986 470.087,-437.462"/>
<polygon fill="midnightblue" stroke="midnightblue" points="377.894,-275.567 372.098,-266.699 371.098,-277.247 377.894,-275.567"/>
</g>
<!-- Node14 -->
<g id="node14" class="node"><title>Node14</title>
<g id="a_node14"><a xlink:href="class_c_addr_man.html#a993e80e74701d7bc6bb49880c387b847" target="_top" xlink:title="CAddrMan::Good">
<polygon fill="white" stroke="black" points="625.5,-285.5 625.5,-304.5 719.5,-304.5 719.5,-285.5 625.5,-285.5"/>
<text text-anchor="middle" x="672.5" y="-292.5" font-family="Helvetica,sans-Serif" font-size="10.00">CAddrMan::Good</text>
</a>
</g>
</g>
<!-- Node13&#45;&gt;Node14 -->
<g id="edge14" class="edge"><title>Node13&#45;&gt;Node14</title>
<path fill="none" stroke="midnightblue" d="M569.965,-282.98C588.194,-285.138 608.001,-287.483 625.242,-289.524"/>
<polygon fill="midnightblue" stroke="midnightblue" points="570.37,-279.504 560.027,-281.804 569.547,-286.455 570.37,-279.504"/>
</g>
<!-- Node16 -->
<g id="node16" class="node"><title>Node16</title>
<g id="a_node16"><a xlink:href="main_8h.html#ab02615ff65f91d69f8d786ec900baa8a" target="_top" xlink:title="Register with a network node to receive its signals. ">
<polygon fill="white" stroke="black" points="989,-342.5 989,-361.5 1099,-361.5 1099,-342.5 989,-342.5"/>
<text text-anchor="middle" x="1044" y="-349.5" font-family="Helvetica,sans-Serif" font-size="10.00">RegisterNodeSignals</text>
</a>
</g>
</g>
<!-- Node15&#45;&gt;Node16 -->
<g id="edge16" class="edge"><title>Node15&#45;&gt;Node16</title>
<path fill="none" stroke="midnightblue" d="M911.231,-338.356C935.504,-340.87 964.424,-343.864 988.979,-346.407"/>
<polygon fill="midnightblue" stroke="midnightblue" points="911.446,-334.86 901.139,-337.311 910.725,-341.823 911.446,-334.86"/>
</g>
<!-- Node17 -->
<g id="node17" class="node"><title>Node17</title>
<g id="a_node17"><a xlink:href="main_8h.html#a3ef0cc6e9d9d6435ee2a5569244d6ebd" target="_top" xlink:title="Unregister a network node. ">
<polygon fill="white" stroke="black" points="984.5,-304.5 984.5,-323.5 1103.5,-323.5 1103.5,-304.5 984.5,-304.5"/>
<text text-anchor="middle" x="1044" y="-311.5" font-family="Helvetica,sans-Serif" font-size="10.00">UnregisterNodeSignals</text>
</a>
</g>
</g>
<!-- Node15&#45;&gt;Node17 -->
<g id="edge18" class="edge"><title>Node15&#45;&gt;Node17</title>
<path fill="none" stroke="midnightblue" d="M911.297,-327.637C934.09,-325.277 960.971,-322.494 984.484,-320.059"/>
<polygon fill="midnightblue" stroke="midnightblue" points="910.725,-324.177 901.139,-328.689 911.446,-331.14 910.725,-324.177"/>
</g>
<!-- Node16&#45;&gt;Node6 -->
<g id="edge17" class="edge"><title>Node16&#45;&gt;Node6</title>
<path fill="none" stroke="midnightblue" d="M1109.76,-352C1125.73,-352 1141.92,-352 1154.78,-352"/>
<polygon fill="midnightblue" stroke="midnightblue" points="1109.33,-348.5 1099.33,-352 1109.33,-355.5 1109.33,-348.5"/>
</g>
<!-- Node18 -->
<g id="node18" class="node"><title>Node18</title>
<g id="a_node18"><a xlink:href="init_8h.html#ac5f038c2b480cf9ef5e19e3eba8dbaf9" target="_top" xlink:title="Shutdown">
<polygon fill="white" stroke="black" points="1151,-304.5 1151,-323.5 1212,-323.5 1212,-304.5 1151,-304.5"/>
<text text-anchor="middle" x="1181.5" y="-311.5" font-family="Helvetica,sans-Serif" font-size="10.00">Shutdown</text>
</a>
</g>
</g>
<!-- Node17&#45;&gt;Node18 -->
<g id="edge19" class="edge"><title>Node17&#45;&gt;Node18</title>
<path fill="none" stroke="midnightblue" d="M1114.02,-314C1126.99,-314 1139.9,-314 1150.85,-314"/>
<polygon fill="midnightblue" stroke="midnightblue" points="1113.64,-310.5 1103.64,-314 1113.64,-317.5 1113.64,-310.5"/>
</g>
<!-- Node18&#45;&gt;Node7 -->
<g id="edge20" class="edge"><title>Node18&#45;&gt;Node7</title>
<path fill="none" stroke="midnightblue" d="M1222.29,-319.906C1243.66,-323.078 1269.26,-326.878 1287.36,-329.565"/>
<polygon fill="midnightblue" stroke="midnightblue" points="1222.59,-316.413 1212.19,-318.407 1221.57,-323.337 1222.59,-316.413"/>
</g>
<!-- Node19 -->
<g id="node19" class="node"><title>Node19</title>
<g id="a_node19"><a xlink:href="class_anoncoin_coin.html#ac33fbca9335d356d9d6102a0122f2a5b" target="_top" xlink:title="AnoncoinCoin::shutdown">
<polygon fill="white" stroke="black" points="1248,-285.5 1248,-304.5 1375,-304.5 1375,-285.5 1248,-285.5"/>
<text text-anchor="middle" x="1311.5" y="-292.5" font-family="Helvetica,sans-Serif" font-size="10.00">AnoncoinCoin::shutdown</text>
</a>
</g>
</g>
<!-- Node18&#45;&gt;Node19 -->
<g id="edge21" class="edge"><title>Node18&#45;&gt;Node19</title>
<path fill="none" stroke="midnightblue" d="M1222.16,-308.113C1230.33,-306.9 1239.12,-305.595 1247.88,-304.295"/>
<polygon fill="midnightblue" stroke="midnightblue" points="1221.57,-304.663 1212.19,-309.593 1222.59,-311.587 1221.57,-304.663"/>
</g>
<!-- Node20&#45;&gt;Node6 -->
<g id="edge23" class="edge"><title>Node20&#45;&gt;Node6</title>
<path fill="none" stroke="midnightblue" d="M549.289,-238.138C665.859,-239.096 1014.57,-246.081 1115,-295 1135.92,-305.187 1133.09,-318.15 1151,-333 1155.03,-336.344 1159.69,-339.586 1164.09,-342.416"/>
<polygon fill="midnightblue" stroke="midnightblue" points="549.089,-234.637 539.065,-238.065 549.039,-241.637 549.089,-234.637"/>
</g>
<!-- Node21 -->
<g id="node21" class="node"><title>Node21</title>
<g id="a_node21"><a xlink:href="net_8h.html#abda4e8f87772f9a9d9d8f52a93791ffc" target="_top" xlink:title="AddLocal">
<polygon fill="white" stroke="black" points="643.5,-171.5 643.5,-190.5 701.5,-190.5 701.5,-171.5 643.5,-171.5"/>
<text text-anchor="middle" x="672.5" y="-178.5" font-family="Helvetica,sans-Serif" font-size="10.00">AddLocal</text>
</a>
</g>
</g>
<!-- Node20&#45;&gt;Node21 -->
<g id="edge24" class="edge"><title>Node20&#45;&gt;Node21</title>
<path fill="none" stroke="midnightblue" d="M546.363,-224.817C562.923,-218.7 582.938,-211.385 601,-205 614.897,-200.088 630.397,-194.791 643.317,-190.427"/>
<polygon fill="midnightblue" stroke="midnightblue" points="544.709,-221.698 536.547,-228.453 547.14,-228.262 544.709,-221.698"/>
</g>
<!-- Node22 -->
<g id="node22" class="node"><title>Node22</title>
<g id="a_node22"><a xlink:href="net_8cpp.html#a1148dd8edf6d69bebabe041ba6da6158" target="_top" xlink:title="ThreadGetMyExternalIP">
<polygon fill="white" stroke="black" points="796.5,-152.5 796.5,-171.5 920.5,-171.5 920.5,-152.5 796.5,-152.5"/>
<text text-anchor="middle" x="858.5" y="-159.5" font-family="Helvetica,sans-Serif" font-size="10.00">ThreadGetMyExternalIP</text>
</a>
</g>
</g>
<!-- Node20&#45;&gt;Node22 -->
<g id="edge25" class="edge"><title>Node20&#45;&gt;Node22</title>
<path fill="none" stroke="midnightblue" d="M549.209,-233.691C595.681,-228.01 676.308,-216.736 744,-200 775.066,-192.32 809.829,-180.128 832.598,-171.633"/>
<polygon fill="midnightblue" stroke="midnightblue" points="548.783,-230.217 539.271,-234.884 549.617,-237.167 548.783,-230.217"/>
</g>
<!-- Node20&#45;&gt;Node23 -->
<g id="edge26" class="edge"><title>Node20&#45;&gt;Node23</title>
<path fill="none" stroke="midnightblue" d="M548.311,-224.675C554.224,-221.67 560.022,-218.123 565,-214 586.648,-196.07 578.029,-178.201 601,-162 609.909,-155.717 620.788,-151.511 631.309,-148.696"/>
<polygon fill="midnightblue" stroke="midnightblue" points="546.641,-221.591 539.025,-228.956 549.572,-227.948 546.641,-221.591"/>
</g>
<!-- Node25 -->
<g id="node25" class="node"><title>Node25</title>
<g id="a_node25"><a xlink:href="net_8h.html#a27ffa42cb391e77b144781a73ed18368" target="_top" xlink:title="GetMyExternalIP">
<polygon fill="white" stroke="black" points="626.5,-95.5 626.5,-114.5 718.5,-114.5 718.5,-95.5 626.5,-95.5"/>
<text text-anchor="middle" x="672.5" y="-102.5" font-family="Helvetica,sans-Serif" font-size="10.00">GetMyExternalIP</text>
</a>
</g>
</g>
<!-- Node24&#45;&gt;Node25 -->
<g id="edge28" class="edge"><title>Node24&#45;&gt;Node25</title>
<path fill="none" stroke="midnightblue" d="M550.259,-148.953C555.264,-147.066 560.283,-145.061 565,-143 581.578,-135.756 584.162,-130.617 601,-124 610.202,-120.384 620.342,-117.207 629.993,-114.538"/>
<polygon fill="midnightblue" stroke="midnightblue" points="548.932,-145.711 540.732,-152.421 551.326,-152.289 548.932,-145.711"/>
</g>
<!-- Node25&#45;&gt;Node22 -->
<g id="edge29" class="edge"><title>Node25&#45;&gt;Node22</title>
<path fill="none" stroke="midnightblue" d="M720.416,-117.223C728.312,-119.401 736.406,-121.708 744,-124 773.84,-133.007 807.678,-144.506 830.585,-152.483"/>
<polygon fill="midnightblue" stroke="midnightblue" points="721.141,-113.793 710.573,-114.545 719.304,-120.548 721.141,-113.793"/>
</g>
<!-- Node27 -->
<g id="node27" class="node"><title>Node27</title>
<g id="a_node27"><a xlink:href="net_8cpp.html#aa19cb8e6cf23a990e585f2bbf9ece276" target="_top" xlink:title="OpenNetworkConnection">
<polygon fill="white" stroke="black" points="608.5,-399.5 608.5,-418.5 736.5,-418.5 736.5,-399.5 608.5,-399.5"/>
<text text-anchor="middle" x="672.5" y="-406.5" font-family="Helvetica,sans-Serif" font-size="10.00">OpenNetworkConnection</text>
</a>
</g>
</g>
<!-- Node26&#45;&gt;Node27 -->
<g id="edge31" class="edge"><title>Node26&#45;&gt;Node27</title>
<path fill="none" stroke="midnightblue" d="M559.365,-409C574.766,-409 592.039,-409 608.327,-409"/>
<polygon fill="midnightblue" stroke="midnightblue" points="559.036,-405.5 549.036,-409 559.036,-412.5 559.036,-405.5"/>
</g>
<!-- Node29 -->
<g id="node29" class="node"><title>Node29</title>
<g id="a_node29"><a xlink:href="rpcnet_8cpp.html#ab455bfd729ba34d3bb55b716e62405a3" target="_top" xlink:title="addnode">
<polygon fill="white" stroke="black" points="645,-437.5 645,-456.5 700,-456.5 700,-437.5 645,-437.5"/>
<text text-anchor="middle" x="672.5" y="-444.5" font-family="Helvetica,sans-Serif" font-size="10.00">addnode</text>
</a>
</g>
</g>
<!-- Node26&#45;&gt;Node29 -->
<g id="edge35" class="edge"><title>Node26&#45;&gt;Node29</title>
<path fill="none" stroke="midnightblue" d="M559.058,-420.378C587.12,-427.022 621.478,-435.157 644.774,-440.672"/>
<polygon fill="midnightblue" stroke="midnightblue" points="559.574,-416.904 549.036,-418.005 557.961,-423.715 559.574,-416.904"/>
</g>
<!-- Node27&#45;&gt;Node10 -->
<g id="edge32" class="edge"><title>Node27&#45;&gt;Node10</title>
<path fill="none" stroke="midnightblue" d="M730.061,-420.681C756.154,-426.07 786.738,-432.386 811.403,-437.48"/>
<polygon fill="midnightblue" stroke="midnightblue" points="730.432,-417.184 719.931,-418.589 729.016,-424.039 730.432,-417.184"/>
</g>
<!-- Node28 -->
<g id="node28" class="node"><title>Node28</title>
<g id="a_node28"><a xlink:href="net_8cpp.html#a2d1ca95557ae336582b886a251e7fe94" target="_top" xlink:title="ThreadOpenAddedConnections">
<polygon fill="white" stroke="black" points="780,-399.5 780,-418.5 937,-418.5 937,-399.5 780,-399.5"/>
<text text-anchor="middle" x="858.5" y="-406.5" font-family="Helvetica,sans-Serif" font-size="10.00">ThreadOpenAddedConnections</text>
</a>
</g>
</g>
<!-- Node27&#45;&gt;Node28 -->
<g id="edge33" class="edge"><title>Node27&#45;&gt;Node28</title>
<path fill="none" stroke="midnightblue" d="M746.846,-409C757.707,-409 768.93,-409 779.875,-409"/>
<polygon fill="midnightblue" stroke="midnightblue" points="746.565,-405.5 736.565,-409 746.565,-412.5 746.565,-405.5"/>
</g>
<!-- Node28&#45;&gt;Node5 -->
<g id="edge34" class="edge"><title>Node28&#45;&gt;Node5</title>
<path fill="none" stroke="midnightblue" d="M947.164,-409C970.848,-409 994.897,-409 1012.98,-409"/>
<polygon fill="midnightblue" stroke="midnightblue" points="947.055,-405.5 937.055,-409 947.055,-412.5 947.055,-405.5"/>
</g>
<!-- Node30&#45;&gt;Node11 -->
<g id="edge37" class="edge"><title>Node30&#45;&gt;Node11</title>
<path fill="none" stroke="midnightblue" d="M542.164,-72.3086C563.409,-63.0784 589.665,-51.9 601,-48 611.069,-44.5356 622.12,-41.2991 632.426,-38.5139"/>
<polygon fill="midnightblue" stroke="midnightblue" points="540.596,-69.1743 532.828,-76.3793 543.393,-75.591 540.596,-69.1743"/>
</g>
<!-- Node32 -->
<g id="node32" class="node"><title>Node32</title>
<g id="a_node32"><a xlink:href="class_peer_table_priv.html#a304d99874f6cd0c67ed207546a5ca904" target="_top" xlink:title="Pull a full list of peers from vNodes into our cache. ">
<polygon fill="white" stroke="black" points="601,-57.5 601,-76.5 744,-76.5 744,-57.5 601,-57.5"/>
<text text-anchor="middle" x="672.5" y="-64.5" font-family="Helvetica,sans-Serif" font-size="10.00">PeerTablePriv::refreshPeers</text>
</a>
</g>
</g>
<!-- Node31&#45;&gt;Node32 -->
<g id="edge39" class="edge"><title>Node31&#45;&gt;Node32</title>
<path fill="none" stroke="midnightblue" d="M550.259,-110.953C555.264,-109.066 560.283,-107.061 565,-105 581.578,-97.7558 584.162,-92.617 601,-86 610.202,-82.3837 620.342,-79.2072 629.993,-76.5382"/>
<polygon fill="midnightblue" stroke="midnightblue" points="548.932,-107.711 540.732,-114.421 551.326,-114.289 548.932,-107.711"/>
</g>
<!-- Node33 -->
<g id="node33" class="node"><title>Node33</title>
<g id="a_node33"><a xlink:href="class_peer_table_model.html#abae14b3fd8a38a60f752f67a57b5b0b3" target="_top" xlink:title="PeerTableModel::refresh">
<polygon fill="white" stroke="black" points="795,-57.5 795,-76.5 922,-76.5 922,-57.5 795,-57.5"/>
<text text-anchor="middle" x="858.5" y="-64.5" font-family="Helvetica,sans-Serif" font-size="10.00">PeerTableModel::refresh</text>
</a>
</g>
</g>
<!-- Node32&#45;&gt;Node33 -->
<g id="edge40" class="edge"><title>Node32&#45;&gt;Node33</title>
<path fill="none" stroke="midnightblue" d="M754.407,-67C767.977,-67 781.874,-67 794.893,-67"/>
<polygon fill="midnightblue" stroke="midnightblue" points="754.113,-63.5001 744.113,-67 754.113,-70.5001 754.113,-63.5001"/>
</g>
<!-- Node34 -->
<g id="node34" class="node"><title>Node34</title>
<g id="a_node34"><a xlink:href="class_peer_table_model.html#a94e40794eeb946475a4a747c1fe1a2c2" target="_top" xlink:title="PeerTableModel::PeerTable\lModel">
<polygon fill="white" stroke="black" points="973,-74 973,-104 1115,-104 1115,-74 973,-74"/>
<text text-anchor="start" x="981" y="-92" font-family="Helvetica,sans-Serif" font-size="10.00">PeerTableModel::PeerTable</text>
<text text-anchor="middle" x="1044" y="-81" font-family="Helvetica,sans-Serif" font-size="10.00">Model</text>
</a>
</g>
</g>
<!-- Node33&#45;&gt;Node34 -->
<g id="edge41" class="edge"><title>Node33&#45;&gt;Node34</title>
<path fill="none" stroke="midnightblue" d="M932.22,-75.7184C945.574,-77.3195 959.491,-78.988 972.77,-80.5801"/>
<polygon fill="midnightblue" stroke="midnightblue" points="932.483,-72.225 922.137,-74.5096 931.649,-79.1752 932.483,-72.225"/>
</g>
<!-- Node35 -->
<g id="node35" class="node"><title>Node35</title>
<g id="a_node35"><a xlink:href="class_peer_table_model.html#ac2211cda0ce659ac4c324c6ff24e1e5f" target="_top" xlink:title="PeerTableModel::sort">
<polygon fill="white" stroke="black" points="988,-35.5 988,-54.5 1100,-54.5 1100,-35.5 988,-35.5"/>
<text text-anchor="middle" x="1044" y="-42.5" font-family="Helvetica,sans-Serif" font-size="10.00">PeerTableModel::sort</text>
</a>
</g>
</g>
<!-- Node33&#45;&gt;Node35 -->
<g id="edge42" class="edge"><title>Node33&#45;&gt;Node35</title>
<path fill="none" stroke="midnightblue" d="M932.265,-58.2762C950.729,-56.0624 970.267,-53.7201 987.706,-51.6293"/>
<polygon fill="midnightblue" stroke="midnightblue" points="931.649,-54.8248 922.137,-59.4904 932.483,-61.775 931.649,-54.8248"/>
</g>
<!-- Node36&#45;&gt;Node5 -->
<g id="edge44" class="edge"><title>Node36&#45;&gt;Node5</title>
<path fill="none" stroke="midnightblue" d="M915.92,-382.684C947.881,-389.302 986.592,-397.319 1012.83,-402.752"/>
<polygon fill="midnightblue" stroke="midnightblue" points="916.307,-379.19 905.805,-380.589 914.887,-386.044 916.307,-379.19"/>
</g>
</g>
</svg>
