<?xml version="1.0" encoding="UTF-8" standalone="no"?>
<!DOCTYPE svg PUBLIC "-//W3C//DTD SVG 1.1//EN"
 "http://www.w3.org/Graphics/SVG/1.1/DTD/svg11.dtd">
<!-- Generated by graphviz version 2.38.0 (20140413.2041)
 -->
<!-- Title: RecentRequestsTableModel::getAmountTitle Pages: 1 -->
<svg width="340pt" height="104pt"
 viewBox="0.00 0.00 340.00 104.00" xmlns="http://www.w3.org/2000/svg" xmlns:xlink="http://www.w3.org/1999/xlink">
<g id="graph0" class="graph" transform="scale(1 1) rotate(0) translate(4 100)">
<title>RecentRequestsTableModel::getAmountTitle</title>
<polygon fill="white" stroke="none" points="-4,4 -4,-100 336,-100 336,4 -4,4"/>
<!-- Node1 -->
<g id="node1" class="node"><title>Node1</title>
<polygon fill="#bfbfbf" stroke="black" points="0,-33 0,-63 143,-63 143,-33 0,-33"/>
<text text-anchor="start" x="8" y="-51" font-family="Helvetica,sans-Serif" font-size="10.00">RecentRequestsTableModel</text>
<text text-anchor="middle" x="71.5" y="-40" font-family="Helvetica,sans-Serif" font-size="10.00">::getAmountTitle</text>
</g>
<!-- Node2 -->
<g id="node2" class="node"><title>Node2</title>
<g id="a_node2"><a xlink:href="class_wallet_model.html#a96d53e56b3f8f07537ea2523f7a7d300" target="_top" xlink:title="WalletModel::getOptionsModel">
<polygon fill="white" stroke="black" points="179,-76.5 179,-95.5 332,-95.5 332,-76.5 179,-76.5"/>
<text text-anchor="middle" x="255.5" y="-83.5" font-family="Helvetica,sans-Serif" font-size="10.00">WalletModel::getOptionsModel</text>
</a>
</g>
</g>
<!-- Node1&#45;&gt;Node2 -->
<g id="edge1" class="edge"><title>Node1&#45;&gt;Node2</title>
<path fill="none" stroke="midnightblue" d="M143.126,-62.7462C161.586,-66.6003 181.224,-70.7007 198.788,-74.3677"/>
<polygon fill="midnightblue" stroke="midnightblue" points="198.36,-77.8538 208.864,-76.4716 199.791,-71.0016 198.36,-77.8538"/>
</g>
<!-- Node3 -->
<g id="node3" class="node"><title>Node3</title>
<g id="a_node3"><a xlink:href="class_anoncoin_units.html#ad83d732db7699510db372a5c17590fba" target="_top" xlink:title="Short name. ">
<polygon fill="white" stroke="black" points="199.5,-38.5 199.5,-57.5 311.5,-57.5 311.5,-38.5 199.5,-38.5"/>
<text text-anchor="middle" x="255.5" y="-45.5" font-family="Helvetica,sans-Serif" font-size="10.00">AnoncoinUnits::name</text>
</a>
</g>
</g>
<!-- Node1&#45;&gt;Node3 -->
<g id="edge2" class="edge"><title>Node1&#45;&gt;Node3</title>
<path fill="none" stroke="midnightblue" d="M143.126,-48C158.308,-48 174.287,-48 189.253,-48"/>
<polygon fill="midnightblue" stroke="midnightblue" points="189.431,-51.5001 199.431,-48 189.43,-44.5001 189.431,-51.5001"/>
</g>
<!-- Node4 -->
<g id="node4" class="node"><title>Node4</title>
<g id="a_node4"><a xlink:href="class_options_model.html#a3b6e4d4ef42be3aaba315b8cd14f468e" target="_top" xlink:title="OptionsModel::getDisplayUnit">
<polygon fill="white" stroke="black" points="181.5,-0.5 181.5,-19.5 329.5,-19.5 329.5,-0.5 181.5,-0.5"/>
<text text-anchor="middle" x="255.5" y="-7.5" font-family="Helvetica,sans-Serif" font-size="10.00">OptionsModel::getDisplayUnit</text>
</a>
</g>
</g>
<!-- Node1&#45;&gt;Node4 -->
<g id="edge3" class="edge"><title>Node1&#45;&gt;Node4</title>
<path fill="none" stroke="midnightblue" d="M143.126,-33.2538C161.586,-29.3997 181.224,-25.2993 198.788,-21.6323"/>
<polygon fill="midnightblue" stroke="midnightblue" points="199.791,-24.9984 208.864,-19.5284 198.36,-18.1462 199.791,-24.9984"/>
</g>
</g>
</svg>
