<?xml version="1.0" encoding="UTF-8" standalone="no"?>
<!DOCTYPE svg PUBLIC "-//W3C//DTD SVG 1.1//EN"
 "http://www.w3.org/Graphics/SVG/1.1/DTD/svg11.dtd">
<!-- Generated by graphviz version 2.38.0 (20140413.2041)
 -->
<!-- Title: ClientModel::getStatusBarWarnings Pages: 1 -->
<svg width="532pt" height="104pt"
 viewBox="0.00 0.00 532.00 104.00" xmlns="http://www.w3.org/2000/svg" xmlns:xlink="http://www.w3.org/1999/xlink">
<g id="graph0" class="graph" transform="scale(1 1) rotate(0) translate(4 100)">
<title>ClientModel::getStatusBarWarnings</title>
<polygon fill="white" stroke="none" points="-4,4 -4,-100 528,-100 528,4 -4,4"/>
<!-- Node1 -->
<g id="node1" class="node"><title>Node1</title>
<polygon fill="#bfbfbf" stroke="black" points="0,-33 0,-63 133,-63 133,-33 0,-33"/>
<text text-anchor="start" x="8" y="-51" font-family="Helvetica,sans-Serif" font-size="10.00">ClientModel::getStatusBar</text>
<text text-anchor="middle" x="66.5" y="-40" font-family="Helvetica,sans-Serif" font-size="10.00">Warnings</text>
</g>
<!-- Node2 -->
<g id="node2" class="node"><title>Node2</title>
<g id="a_node2"><a xlink:href="main_8cpp.html#a70b1d1b79f1c760e65c960713b87b732" target="_top" xlink:title="GetWarnings">
<polygon fill="white" stroke="black" points="169,-38.5 169,-57.5 244,-57.5 244,-38.5 169,-38.5"/>
<text text-anchor="middle" x="206.5" y="-45.5" font-family="Helvetica,sans-Serif" font-size="10.00">GetWarnings</text>
</a>
</g>
</g>
<!-- Node1&#45;&gt;Node2 -->
<g id="edge1" class="edge"><title>Node1&#45;&gt;Node2</title>
<path fill="none" stroke="midnightblue" d="M133.267,-48C141.857,-48 150.515,-48 158.706,-48"/>
<polygon fill="midnightblue" stroke="midnightblue" points="158.79,-51.5001 168.79,-48 158.79,-44.5001 158.79,-51.5001"/>
</g>
<!-- Node3 -->
<g id="node3" class="node"><title>Node3</title>
<g id="a_node3"><a xlink:href="util_8cpp.html#a64d956f1dda7f9a80ab5d594532b906d" target="_top" xlink:title="Return boolean argument or default value. ">
<polygon fill="white" stroke="black" points="300,-76.5 300,-95.5 368,-95.5 368,-76.5 300,-76.5"/>
<text text-anchor="middle" x="334" y="-83.5" font-family="Helvetica,sans-Serif" font-size="10.00">GetBoolArg</text>
</a>
</g>
</g>
<!-- Node2&#45;&gt;Node3 -->
<g id="edge2" class="edge"><title>Node2&#45;&gt;Node3</title>
<path fill="none" stroke="midnightblue" d="M239.169,-57.589C255.073,-62.4044 274.54,-68.2988 291.611,-73.468"/>
<polygon fill="midnightblue" stroke="midnightblue" points="290.756,-76.8658 301.341,-76.4141 292.785,-70.1662 290.756,-76.8658"/>
</g>
<!-- Node5 -->
<g id="node5" class="node"><title>Node5</title>
<g id="a_node5"><a xlink:href="ui__interface_8h.html#aad133bb6103b53cebf03fd01e2f11ba1" target="_top" xlink:title="Translation function: Call Translate signal on UI interface, which returns a boost::optional result...">
<polygon fill="white" stroke="black" points="319.5,-38.5 319.5,-57.5 348.5,-57.5 348.5,-38.5 319.5,-38.5"/>
<text text-anchor="middle" x="334" y="-45.5" font-family="Helvetica,sans-Serif" font-size="10.00">_</text>
</a>
</g>
</g>
<!-- Node2&#45;&gt;Node5 -->
<g id="edge4" class="edge"><title>Node2&#45;&gt;Node5</title>
<path fill="none" stroke="midnightblue" d="M244.137,-48C265.086,-48 290.76,-48 309.116,-48"/>
<polygon fill="midnightblue" stroke="midnightblue" points="309.239,-51.5001 319.238,-48 309.238,-44.5001 309.239,-51.5001"/>
</g>
<!-- Node6 -->
<g id="node6" class="node"><title>Node6</title>
<g id="a_node6"><a xlink:href="class_c_alert.html#a0a7fab6a971781904afb3e4a0ee29e12" target="_top" xlink:title="CAlert::AppliesToMe">
<polygon fill="white" stroke="black" points="280,-0.5 280,-19.5 388,-19.5 388,-0.5 280,-0.5"/>
<text text-anchor="middle" x="334" y="-7.5" font-family="Helvetica,sans-Serif" font-size="10.00">CAlert::AppliesToMe</text>
</a>
</g>
</g>
<!-- Node2&#45;&gt;Node6 -->
<g id="edge5" class="edge"><title>Node2&#45;&gt;Node6</title>
<path fill="none" stroke="midnightblue" d="M239.169,-38.411C255.073,-33.5956 274.54,-27.7012 291.611,-22.532"/>
<polygon fill="midnightblue" stroke="midnightblue" points="292.785,-25.8338 301.341,-19.5859 290.756,-19.1342 292.785,-25.8338"/>
</g>
<!-- Node4 -->
<g id="node4" class="node"><title>Node4</title>
<g id="a_node4"><a xlink:href="util_8h.html#aa5ce96ec36f4413f820cec9c1831c070" target="_top" xlink:title="atoi">
<polygon fill="white" stroke="black" points="457.5,-76.5 457.5,-95.5 490.5,-95.5 490.5,-76.5 457.5,-76.5"/>
<text text-anchor="middle" x="474" y="-83.5" font-family="Helvetica,sans-Serif" font-size="10.00">atoi</text>
</a>
</g>
</g>
<!-- Node3&#45;&gt;Node4 -->
<g id="edge3" class="edge"><title>Node3&#45;&gt;Node4</title>
<path fill="none" stroke="midnightblue" d="M368.054,-86C392.312,-86 424.794,-86 447.162,-86"/>
<polygon fill="midnightblue" stroke="midnightblue" points="447.251,-89.5001 457.251,-86 447.25,-82.5001 447.251,-89.5001"/>
</g>
<!-- Node7 -->
<g id="node7" class="node"><title>Node7</title>
<g id="a_node7"><a xlink:href="clientversion_8cpp.html#a7e6809cdbfc7f83b46f83caea740894d" target="_top" xlink:title="Format the subversion field according to BIP 14 spec (https://github.com/bitcoin/bips/blob/master/bip...">
<polygon fill="white" stroke="black" points="424,-0.5 424,-19.5 524,-19.5 524,-0.5 424,-0.5"/>
<text text-anchor="middle" x="474" y="-7.5" font-family="Helvetica,sans-Serif" font-size="10.00">FormatSubVersion</text>
</a>
</g>
</g>
<!-- Node6&#45;&gt;Node7 -->
<g id="edge6" class="edge"><title>Node6&#45;&gt;Node7</title>
<path fill="none" stroke="midnightblue" d="M388.354,-10C396.658,-10 405.281,-10 413.707,-10"/>
<polygon fill="midnightblue" stroke="midnightblue" points="413.853,-13.5001 423.853,-10 413.853,-6.5001 413.853,-13.5001"/>
</g>
</g>
</svg>
