<?xml version="1.0" encoding="UTF-8" standalone="no"?>
<!DOCTYPE svg PUBLIC "-//W3C//DTD SVG 1.1//EN"
 "http://www.w3.org/Graphics/SVG/1.1/DTD/svg11.dtd">
<!-- Generated by graphviz version 2.38.0 (20140413.2041)
 -->
<!-- Title: CBlockIndex::GetBlockWork Pages: 1 -->
<svg width="1456pt" height="104pt"
 viewBox="0.00 0.00 1456.00 104.00" xmlns="http://www.w3.org/2000/svg" xmlns:xlink="http://www.w3.org/1999/xlink">
<g id="graph0" class="graph" transform="scale(1 1) rotate(0) translate(4 100)">
<title>CBlockIndex::GetBlockWork</title>
<polygon fill="white" stroke="none" points="-4,4 -4,-100 1452,-100 1452,4 -4,4"/>
<!-- Node1 -->
<g id="node1" class="node"><title>Node1</title>
<polygon fill="#bfbfbf" stroke="black" points="0,-20.5 0,-39.5 142,-39.5 142,-20.5 0,-20.5"/>
<text text-anchor="middle" x="71" y="-27.5" font-family="Helvetica,sans-Serif" font-size="10.00">CBlockIndex::GetBlockWork</text>
</g>
<!-- Node2 -->
<g id="node2" class="node"><title>Node2</title>
<g id="a_node2"><a xlink:href="main_8cpp.html#a730d390bfb0df0e54a5c2ddb901e748a" target="_top" xlink:title="CheckForkWarningConditions">
<polygon fill="white" stroke="black" points="178,-20.5 178,-39.5 327,-39.5 327,-20.5 178,-20.5"/>
<text text-anchor="middle" x="252.5" y="-27.5" font-family="Helvetica,sans-Serif" font-size="10.00">CheckForkWarningConditions</text>
</a>
</g>
</g>
<!-- Node1&#45;&gt;Node2 -->
<g id="edge1" class="edge"><title>Node1&#45;&gt;Node2</title>
<path fill="none" stroke="midnightblue" d="M152.414,-30C160.874,-30 169.446,-30 177.825,-30"/>
<polygon fill="midnightblue" stroke="midnightblue" points="152.171,-26.5001 142.171,-30 152.171,-33.5001 152.171,-26.5001"/>
</g>
<!-- Node3 -->
<g id="node3" class="node"><title>Node3</title>
<g id="a_node3"><a xlink:href="main_8cpp.html#a0577f78a333e075d3bbb64c0741b5080" target="_top" xlink:title="CheckForkWarningConditions\lOnNewFork">
<polygon fill="white" stroke="black" points="363,-58 363,-88 512,-88 512,-58 363,-58"/>
<text text-anchor="start" x="371" y="-76" font-family="Helvetica,sans-Serif" font-size="10.00">CheckForkWarningConditions</text>
<text text-anchor="middle" x="437.5" y="-65" font-family="Helvetica,sans-Serif" font-size="10.00">OnNewFork</text>
</a>
</g>
</g>
<!-- Node1&#45;&gt;Node3 -->
<g id="edge17" class="edge"><title>Node1&#45;&gt;Node3</title>
<path fill="none" stroke="midnightblue" d="M130.132,-41.3355C145.643,-44.1093 162.423,-46.8847 178,-49 240.08,-57.4301 310.954,-63.7812 362.771,-67.8257"/>
<polygon fill="midnightblue" stroke="midnightblue" points="130.612,-37.8655 120.147,-39.52 129.359,-44.7526 130.612,-37.8655"/>
</g>
<!-- Node4 -->
<g id="node4" class="node"><title>Node4</title>
<g id="a_node4"><a xlink:href="main_8h.html#afeae84b261095307379e43eed39ea7c6" target="_top" xlink:title="AddToBlockIndex">
<polygon fill="white" stroke="black" points="548,-19.5 548,-38.5 643,-38.5 643,-19.5 548,-19.5"/>
<text text-anchor="middle" x="595.5" y="-26.5" font-family="Helvetica,sans-Serif" font-size="10.00">AddToBlockIndex</text>
</a>
</g>
</g>
<!-- Node1&#45;&gt;Node4 -->
<g id="edge18" class="edge"><title>Node1&#45;&gt;Node4</title>
<path fill="none" stroke="midnightblue" d="M125.268,-18.5485C142.057,-15.4527 160.728,-12.5358 178,-11 311.911,0.906586 470.771,-13.9419 547.874,-22.9877"/>
<polygon fill="midnightblue" stroke="midnightblue" points="124.256,-15.1784 115.088,-20.4884 125.566,-22.0546 124.256,-15.1784"/>
</g>
<!-- Node2&#45;&gt;Node3 -->
<g id="edge2" class="edge"><title>Node2&#45;&gt;Node3</title>
<path fill="none" stroke="midnightblue" d="M303.902,-41.8431C325.147,-46.8351 350.123,-52.7038 372.636,-57.9937"/>
<polygon fill="midnightblue" stroke="midnightblue" points="304.649,-38.4234 294.114,-39.5431 303.048,-45.2378 304.649,-38.4234"/>
</g>
<!-- Node2&#45;&gt;Node4 -->
<g id="edge16" class="edge"><title>Node2&#45;&gt;Node4</title>
<path fill="none" stroke="midnightblue" d="M337.086,-29.7549C403.393,-29.5604 493.639,-29.2958 547.777,-29.137"/>
<polygon fill="midnightblue" stroke="midnightblue" points="337.062,-26.2548 327.072,-29.7842 337.082,-33.2548 337.062,-26.2548"/>
</g>
<!-- Node3&#45;&gt;Node4 -->
<g id="edge3" class="edge"><title>Node3&#45;&gt;Node4</title>
<path fill="none" stroke="midnightblue" d="M501.519,-55.2255C521.696,-49.5346 543.262,-43.4516 560.541,-38.5783"/>
<polygon fill="midnightblue" stroke="midnightblue" points="500.424,-51.8975 491.75,-57.9808 502.325,-58.6347 500.424,-51.8975"/>
</g>
<!-- Node5 -->
<g id="node5" class="node"><title>Node5</title>
<g id="a_node5"><a xlink:href="main_8h.html#aae69635467b9737d6c5b44d8ccff5c82" target="_top" xlink:title="AcceptBlock">
<polygon fill="white" stroke="black" points="679,-38.5 679,-57.5 751,-57.5 751,-38.5 679,-38.5"/>
<text text-anchor="middle" x="715" y="-45.5" font-family="Helvetica,sans-Serif" font-size="10.00">AcceptBlock</text>
</a>
</g>
</g>
<!-- Node4&#45;&gt;Node5 -->
<g id="edge4" class="edge"><title>Node4&#45;&gt;Node5</title>
<path fill="none" stroke="midnightblue" d="M653.153,-38.1609C661.961,-39.5852 670.833,-41.0197 678.974,-42.3362"/>
<polygon fill="midnightblue" stroke="midnightblue" points="653.707,-34.7051 643.277,-36.5639 652.59,-41.6154 653.707,-34.7051"/>
</g>
<!-- Node14 -->
<g id="node14" class="node"><title>Node14</title>
<g id="a_node14"><a xlink:href="main_8h.html#a92e5e1fcbd56cc44c27d39b64da8a79a" target="_top" xlink:title="Initialize a new block tree database + block data on disk. ">
<polygon fill="white" stroke="black" points="918.5,-0.5 918.5,-19.5 997.5,-19.5 997.5,-0.5 918.5,-0.5"/>
<text text-anchor="middle" x="958" y="-7.5" font-family="Helvetica,sans-Serif" font-size="10.00">InitBlockIndex</text>
</a>
</g>
</g>
<!-- Node4&#45;&gt;Node14 -->
<g id="edge13" class="edge"><title>Node4&#45;&gt;Node14</title>
<path fill="none" stroke="midnightblue" d="M653.33,-26.0048C727.294,-22.1066 854.597,-15.3971 918.312,-12.0391"/>
<polygon fill="midnightblue" stroke="midnightblue" points="653.061,-22.514 643.26,-26.5356 653.43,-29.5043 653.061,-22.514"/>
</g>
<!-- Node6 -->
<g id="node6" class="node"><title>Node6</title>
<g id="a_node6"><a xlink:href="main_8h.html#a87a59e710c26c4a10de57b5acb1e2e92" target="_top" xlink:title="Process an incoming block. ">
<polygon fill="white" stroke="black" points="787,-38.5 787,-57.5 864,-57.5 864,-38.5 787,-38.5"/>
<text text-anchor="middle" x="825.5" y="-45.5" font-family="Helvetica,sans-Serif" font-size="10.00">ProcessBlock</text>
</a>
</g>
</g>
<!-- Node5&#45;&gt;Node6 -->
<g id="edge5" class="edge"><title>Node5&#45;&gt;Node6</title>
<path fill="none" stroke="midnightblue" d="M761.363,-48C769.842,-48 778.618,-48 786.833,-48"/>
<polygon fill="midnightblue" stroke="midnightblue" points="761.227,-44.5001 751.227,-48 761.227,-51.5001 761.227,-44.5001"/>
</g>
<!-- Node7 -->
<g id="node7" class="node"><title>Node7</title>
<g id="a_node7"><a xlink:href="main_8h.html#a8641eccb4e5d174838adeea9b234a691" target="_top" xlink:title="Import blocks from an external file. ">
<polygon fill="white" stroke="black" points="900,-76.5 900,-95.5 1016,-95.5 1016,-76.5 900,-76.5"/>
<text text-anchor="middle" x="958" y="-83.5" font-family="Helvetica,sans-Serif" font-size="10.00">LoadExternalBlockFile</text>
</a>
</g>
</g>
<!-- Node6&#45;&gt;Node7 -->
<g id="edge6" class="edge"><title>Node6&#45;&gt;Node7</title>
<path fill="none" stroke="midnightblue" d="M869.052,-60.3906C886.923,-65.5945 907.39,-71.5541 924.08,-76.4141"/>
<polygon fill="midnightblue" stroke="midnightblue" points="870.01,-57.0244 859.431,-57.589 868.053,-63.7453 870.01,-57.0244"/>
</g>
<!-- Node13 -->
<g id="node13" class="node"><title>Node13</title>
<g id="a_node13"><a xlink:href="rpcmining_8cpp.html#a6fc1aa077add8cb1c74207056616134d" target="_top" xlink:title="submitblock">
<polygon fill="white" stroke="black" points="923.5,-38.5 923.5,-57.5 992.5,-57.5 992.5,-38.5 923.5,-38.5"/>
<text text-anchor="middle" x="958" y="-45.5" font-family="Helvetica,sans-Serif" font-size="10.00">submitblock</text>
</a>
</g>
</g>
<!-- Node6&#45;&gt;Node13 -->
<g id="edge12" class="edge"><title>Node6&#45;&gt;Node13</title>
<path fill="none" stroke="midnightblue" d="M874.62,-48C890.807,-48 908.509,-48 923.34,-48"/>
<polygon fill="midnightblue" stroke="midnightblue" points="874.246,-44.5001 864.246,-48 874.246,-51.5001 874.246,-44.5001"/>
</g>
<!-- Node8 -->
<g id="node8" class="node"><title>Node8</title>
<g id="a_node8"><a xlink:href="init_8cpp.html#a0189c34248cd89bbbe20d4d6045bd7c9" target="_top" xlink:title="ThreadImport">
<polygon fill="white" stroke="black" points="1052,-38.5 1052,-57.5 1129,-57.5 1129,-38.5 1052,-38.5"/>
<text text-anchor="middle" x="1090.5" y="-45.5" font-family="Helvetica,sans-Serif" font-size="10.00">ThreadImport</text>
</a>
</g>
</g>
<!-- Node7&#45;&gt;Node8 -->
<g id="edge7" class="edge"><title>Node7&#45;&gt;Node8</title>
<path fill="none" stroke="midnightblue" d="M1001.55,-73.6094C1019.42,-68.4055 1039.89,-62.4459 1056.58,-57.5859"/>
<polygon fill="midnightblue" stroke="midnightblue" points="1000.55,-70.2547 991.931,-76.411 1002.51,-76.9756 1000.55,-70.2547"/>
</g>
<!-- Node9 -->
<g id="node9" class="node"><title>Node9</title>
<g id="a_node9"><a xlink:href="init_8h.html#a1a4c1bfbf6ba1db77e988b89b9cadfd3" target="_top" xlink:title="Initialize anoncoin. ">
<polygon fill="white" stroke="black" points="1165,-19.5 1165,-38.5 1218,-38.5 1218,-19.5 1165,-19.5"/>
<text text-anchor="middle" x="1191.5" y="-26.5" font-family="Helvetica,sans-Serif" font-size="10.00">AppInit2</text>
</a>
</g>
</g>
<!-- Node8&#45;&gt;Node9 -->
<g id="edge8" class="edge"><title>Node8&#45;&gt;Node9</title>
<path fill="none" stroke="midnightblue" d="M1139.14,-38.8574C1148.02,-37.1537 1156.97,-35.4346 1164.87,-33.9198"/>
<polygon fill="midnightblue" stroke="midnightblue" points="1138.37,-35.4406 1129.21,-40.7627 1139.69,-42.3151 1138.37,-35.4406"/>
</g>
<!-- Node10 -->
<g id="node10" class="node"><title>Node10</title>
<g id="a_node10"><a xlink:href="anoncoind_8cpp.html#ac59316b767e6984e1285f0531275286b" target="_top" xlink:title="AppInit">
<polygon fill="white" stroke="black" points="1290,-38.5 1290,-57.5 1338,-57.5 1338,-38.5 1290,-38.5"/>
<text text-anchor="middle" x="1314" y="-45.5" font-family="Helvetica,sans-Serif" font-size="10.00">AppInit</text>
</a>
</g>
</g>
<!-- Node9&#45;&gt;Node10 -->
<g id="edge9" class="edge"><title>Node9&#45;&gt;Node10</title>
<path fill="none" stroke="midnightblue" d="M1228.05,-34.6053C1248.04,-37.7576 1272.42,-41.6017 1289.93,-44.3619"/>
<polygon fill="midnightblue" stroke="midnightblue" points="1228.48,-31.1297 1218.05,-33.0294 1227.39,-38.0443 1228.48,-31.1297"/>
</g>
<!-- Node12 -->
<g id="node12" class="node"><title>Node12</title>
<g id="a_node12"><a xlink:href="class_anoncoin_coin.html#a9510881824d283404ac43414dbb74586" target="_top" xlink:title="AnoncoinCoin::initialize">
<polygon fill="white" stroke="black" points="1254,-0.5 1254,-19.5 1374,-19.5 1374,-0.5 1254,-0.5"/>
<text text-anchor="middle" x="1314" y="-7.5" font-family="Helvetica,sans-Serif" font-size="10.00">AnoncoinCoin::initialize</text>
</a>
</g>
</g>
<!-- Node9&#45;&gt;Node12 -->
<g id="edge11" class="edge"><title>Node9&#45;&gt;Node12</title>
<path fill="none" stroke="midnightblue" d="M1228.19,-23.3732C1236.25,-22.1018 1245.02,-20.7186 1253.76,-19.34"/>
<polygon fill="midnightblue" stroke="midnightblue" points="1227.39,-19.9557 1218.05,-24.9706 1228.48,-26.8703 1227.39,-19.9557"/>
</g>
<!-- Node11 -->
<g id="node11" class="node"><title>Node11</title>
<g id="a_node11"><a xlink:href="anoncoind_8cpp.html#a0ddf1224851353fc92bfbff6f499fa97" target="_top" xlink:title="main">
<polygon fill="white" stroke="black" points="1410,-38.5 1410,-57.5 1448,-57.5 1448,-38.5 1410,-38.5"/>
<text text-anchor="middle" x="1429" y="-45.5" font-family="Helvetica,sans-Serif" font-size="10.00">main</text>
</a>
</g>
</g>
<!-- Node10&#45;&gt;Node11 -->
<g id="edge10" class="edge"><title>Node10&#45;&gt;Node11</title>
<path fill="none" stroke="midnightblue" d="M1348.15,-48C1368.25,-48 1393.13,-48 1409.73,-48"/>
<polygon fill="midnightblue" stroke="midnightblue" points="1348.14,-44.5001 1338.14,-48 1348.14,-51.5001 1348.14,-44.5001"/>
</g>
<!-- Node14&#45;&gt;Node8 -->
<g id="edge14" class="edge"><title>Node14&#45;&gt;Node8</title>
<path fill="none" stroke="midnightblue" d="M1001.55,-22.3906C1019.42,-27.5945 1039.89,-33.5541 1056.58,-38.4141"/>
<polygon fill="midnightblue" stroke="midnightblue" points="1002.51,-19.0244 991.931,-19.589 1000.55,-25.7453 1002.51,-19.0244"/>
</g>
<!-- Node14&#45;&gt;Node9 -->
<g id="edge15" class="edge"><title>Node14&#45;&gt;Node9</title>
<path fill="none" stroke="midnightblue" d="M1007.91,-14.0142C1055.89,-17.9517 1127.17,-23.802 1164.91,-26.8994"/>
<polygon fill="midnightblue" stroke="midnightblue" points="1008,-10.51 997.748,-13.1802 1007.43,-17.4865 1008,-10.51"/>
</g>
</g>
</svg>
