<?xml version="1.0" encoding="UTF-8" standalone="no"?>
<!DOCTYPE svg PUBLIC "-//W3C//DTD SVG 1.1//EN"
 "http://www.w3.org/Graphics/SVG/1.1/DTD/svg11.dtd">
<!-- Generated by graphviz version 2.38.0 (20140413.2041)
 -->
<!-- Title: OverviewPage::setBalance Pages: 1 -->
<svg width="647pt" height="123pt"
 viewBox="0.00 0.00 647.00 123.00" xmlns="http://www.w3.org/2000/svg" xmlns:xlink="http://www.w3.org/1999/xlink">
<g id="graph0" class="graph" transform="scale(1 1) rotate(0) translate(4 119)">
<title>OverviewPage::setBalance</title>
<polygon fill="white" stroke="none" points="-4,4 -4,-119 643,-119 643,4 -4,4"/>
<!-- Node1 -->
<g id="node1" class="node"><title>Node1</title>
<polygon fill="#bfbfbf" stroke="black" points="0,-57.5 0,-76.5 137,-76.5 137,-57.5 0,-57.5"/>
<text text-anchor="middle" x="68.5" y="-64.5" font-family="Helvetica,sans-Serif" font-size="10.00">OverviewPage::setBalance</text>
</g>
<!-- Node2 -->
<g id="node2" class="node"><title>Node2</title>
<g id="a_node2"><a xlink:href="class_wallet_model.html#a96d53e56b3f8f07537ea2523f7a7d300" target="_top" xlink:title="WalletModel::getOptionsModel">
<polygon fill="white" stroke="black" points="173,-95.5 173,-114.5 326,-114.5 326,-95.5 173,-95.5"/>
<text text-anchor="middle" x="249.5" y="-102.5" font-family="Helvetica,sans-Serif" font-size="10.00">WalletModel::getOptionsModel</text>
</a>
</g>
</g>
<!-- Node1&#45;&gt;Node2 -->
<g id="edge1" class="edge"><title>Node1&#45;&gt;Node2</title>
<path fill="none" stroke="midnightblue" d="M114.669,-76.589C138.716,-81.6939 168.474,-88.0113 193.819,-93.3918"/>
<polygon fill="midnightblue" stroke="midnightblue" points="193.147,-96.8269 203.656,-95.4799 194.6,-89.9795 193.147,-96.8269"/>
</g>
<!-- Node3 -->
<g id="node3" class="node"><title>Node3</title>
<g id="a_node3"><a xlink:href="class_options_model.html#a3b6e4d4ef42be3aaba315b8cd14f468e" target="_top" xlink:title="OptionsModel::getDisplayUnit">
<polygon fill="white" stroke="black" points="175.5,-57.5 175.5,-76.5 323.5,-76.5 323.5,-57.5 175.5,-57.5"/>
<text text-anchor="middle" x="249.5" y="-64.5" font-family="Helvetica,sans-Serif" font-size="10.00">OptionsModel::getDisplayUnit</text>
</a>
</g>
</g>
<!-- Node1&#45;&gt;Node3 -->
<g id="edge2" class="edge"><title>Node1&#45;&gt;Node3</title>
<path fill="none" stroke="midnightblue" d="M137.172,-67C146.333,-67 155.819,-67 165.213,-67"/>
<polygon fill="midnightblue" stroke="midnightblue" points="165.351,-70.5001 175.351,-67 165.351,-63.5001 165.351,-70.5001"/>
</g>
<!-- Node4 -->
<g id="node4" class="node"><title>Node4</title>
<g id="a_node4"><a xlink:href="class_anoncoin_units.html#a07b2ad9cac3728231143e4d78c059e14" target="_top" xlink:title="Format as string (with unit) ">
<polygon fill="white" stroke="black" points="173,-19.5 173,-38.5 326,-38.5 326,-19.5 173,-19.5"/>
<text text-anchor="middle" x="249.5" y="-26.5" font-family="Helvetica,sans-Serif" font-size="10.00">AnoncoinUnits::formatWithUnit</text>
</a>
</g>
</g>
<!-- Node1&#45;&gt;Node4 -->
<g id="edge3" class="edge"><title>Node1&#45;&gt;Node4</title>
<path fill="none" stroke="midnightblue" d="M114.669,-57.411C138.716,-52.3061 168.474,-45.9887 193.819,-40.6082"/>
<polygon fill="midnightblue" stroke="midnightblue" points="194.6,-44.0205 203.656,-38.5201 193.147,-37.1731 194.6,-44.0205"/>
</g>
<!-- Node5 -->
<g id="node5" class="node"><title>Node5</title>
<g id="a_node5"><a xlink:href="class_anoncoin_units.html#acbdb244b3fc381599233882de4284e34" target="_top" xlink:title="Format as string. ">
<polygon fill="white" stroke="black" points="362,-38.5 362,-57.5 477,-57.5 477,-38.5 362,-38.5"/>
<text text-anchor="middle" x="419.5" y="-45.5" font-family="Helvetica,sans-Serif" font-size="10.00">AnoncoinUnits::format</text>
</a>
</g>
</g>
<!-- Node4&#45;&gt;Node5 -->
<g id="edge4" class="edge"><title>Node4&#45;&gt;Node5</title>
<path fill="none" stroke="midnightblue" d="M326.145,-37.5551C334.69,-38.5215 343.351,-39.501 351.77,-40.4532"/>
<polygon fill="midnightblue" stroke="midnightblue" points="351.565,-43.9523 361.895,-41.5983 352.352,-36.9966 351.565,-43.9523"/>
</g>
<!-- Node9 -->
<g id="node9" class="node"><title>Node9</title>
<g id="a_node9"><a xlink:href="class_anoncoin_units.html#ad83d732db7699510db372a5c17590fba" target="_top" xlink:title="Short name. ">
<polygon fill="white" stroke="black" points="363.5,-0.5 363.5,-19.5 475.5,-19.5 475.5,-0.5 363.5,-0.5"/>
<text text-anchor="middle" x="419.5" y="-7.5" font-family="Helvetica,sans-Serif" font-size="10.00">AnoncoinUnits::name</text>
</a>
</g>
</g>
<!-- Node4&#45;&gt;Node9 -->
<g id="edge8" class="edge"><title>Node4&#45;&gt;Node9</title>
<path fill="none" stroke="midnightblue" d="M326.145,-20.4449C335.257,-19.4144 344.502,-18.3689 353.444,-17.3575"/>
<polygon fill="midnightblue" stroke="midnightblue" points="353.845,-20.8345 363.389,-16.2328 353.059,-13.8789 353.845,-20.8345"/>
</g>
<!-- Node6 -->
<g id="node6" class="node"><title>Node6</title>
<g id="a_node6"><a xlink:href="class_anoncoin_units.html#aa51b639723ccb854bc42c7bd4bcd8890" target="_top" xlink:title="Is unit ID valid? ">
<polygon fill="white" stroke="black" points="522.5,-76.5 522.5,-95.5 629.5,-95.5 629.5,-76.5 522.5,-76.5"/>
<text text-anchor="middle" x="576" y="-83.5" font-family="Helvetica,sans-Serif" font-size="10.00">AnoncoinUnits::valid</text>
</a>
</g>
</g>
<!-- Node5&#45;&gt;Node6 -->
<g id="edge5" class="edge"><title>Node5&#45;&gt;Node6</title>
<path fill="none" stroke="midnightblue" d="M459.487,-57.589C479.783,-62.5809 504.793,-68.7324 526.346,-74.0334"/>
<polygon fill="midnightblue" stroke="midnightblue" points="525.747,-77.4902 536.293,-76.4799 527.419,-70.6928 525.747,-77.4902"/>
</g>
<!-- Node7 -->
<g id="node7" class="node"><title>Node7</title>
<g id="a_node7"><a xlink:href="class_anoncoin_units.html#aa3bdc0febcf7e6f42ab07179d9946f57" target="_top" xlink:title="Number of Satoshis (1e&#45;8) per unit. ">
<polygon fill="white" stroke="black" points="520,-38.5 520,-57.5 632,-57.5 632,-38.5 520,-38.5"/>
<text text-anchor="middle" x="576" y="-45.5" font-family="Helvetica,sans-Serif" font-size="10.00">AnoncoinUnits::factor</text>
</a>
</g>
</g>
<!-- Node5&#45;&gt;Node7 -->
<g id="edge6" class="edge"><title>Node5&#45;&gt;Node7</title>
<path fill="none" stroke="midnightblue" d="M477.153,-48C487.726,-48 498.854,-48 509.663,-48"/>
<polygon fill="midnightblue" stroke="midnightblue" points="509.9,-51.5001 519.9,-48 509.9,-44.5001 509.9,-51.5001"/>
</g>
<!-- Node8 -->
<g id="node8" class="node"><title>Node8</title>
<g id="a_node8"><a xlink:href="class_anoncoin_units.html#a5653b325d94d65dc30cf75aec3718112" target="_top" xlink:title="Number of decimals left. ">
<polygon fill="white" stroke="black" points="513,-0.5 513,-19.5 639,-19.5 639,-0.5 513,-0.5"/>
<text text-anchor="middle" x="576" y="-7.5" font-family="Helvetica,sans-Serif" font-size="10.00">AnoncoinUnits::decimals</text>
</a>
</g>
</g>
<!-- Node5&#45;&gt;Node8 -->
<g id="edge7" class="edge"><title>Node5&#45;&gt;Node8</title>
<path fill="none" stroke="midnightblue" d="M459.487,-38.411C479.783,-33.4191 504.793,-27.2676 526.346,-21.9666"/>
<polygon fill="midnightblue" stroke="midnightblue" points="527.419,-25.3072 536.293,-19.5201 525.747,-18.5098 527.419,-25.3072"/>
</g>
</g>
</svg>
