<?xml version="1.0" encoding="UTF-8" standalone="no"?>
<!DOCTYPE svg PUBLIC "-//W3C//DTD SVG 1.1//EN"
 "http://www.w3.org/Graphics/SVG/1.1/DTD/svg11.dtd">
<!-- Generated by graphviz version 2.38.0 (20140413.2041)
 -->
<!-- Title: CWallet::CreateTransaction Pages: 1 -->
<svg width="493pt" height="72pt"
 viewBox="0.00 0.00 493.00 71.50" xmlns="http://www.w3.org/2000/svg" xmlns:xlink="http://www.w3.org/1999/xlink">
<g id="graph0" class="graph" transform="scale(1 1) rotate(0) translate(4 67.5)">
<title>CWallet::CreateTransaction</title>
<polygon fill="white" stroke="none" points="-4,4 -4,-67.5 489,-67.5 489,4 -4,4"/>
<!-- Node1 -->
<g id="node1" class="node"><title>Node1</title>
<polygon fill="#bfbfbf" stroke="black" points="0,-19.5 0,-38.5 139,-38.5 139,-19.5 0,-19.5"/>
<text text-anchor="middle" x="69.5" y="-26.5" font-family="Helvetica,sans-Serif" font-size="10.00">CWallet::CreateTransaction</text>
</g>
<!-- Node2 -->
<g id="node2" class="node"><title>Node2</title>
<g id="a_node2"><a xlink:href="class_wallet_model.html#a8abc851901c7c7343ebfb5a8e5fc0154" target="_top" xlink:title="WalletModel::prepareTransaction">
<polygon fill="white" stroke="black" points="175,-38.5 175,-57.5 339,-57.5 339,-38.5 175,-38.5"/>
<text text-anchor="middle" x="257" y="-45.5" font-family="Helvetica,sans-Serif" font-size="10.00">WalletModel::prepareTransaction</text>
</a>
</g>
</g>
<!-- Node1&#45;&gt;Node2 -->
<g id="edge1" class="edge"><title>Node1&#45;&gt;Node2</title>
<path fill="none" stroke="midnightblue" d="M148.999,-37.0403C157.557,-37.9169 166.281,-38.8104 174.87,-39.6902"/>
<polygon fill="midnightblue" stroke="midnightblue" points="149.351,-33.5582 139.046,-36.0209 148.638,-40.5217 149.351,-33.5582"/>
</g>
<!-- Node4 -->
<g id="node4" class="node"><title>Node4</title>
<g id="a_node4"><a xlink:href="rpcwallet_8cpp.html#adeb5f23f20fb4e589dab23cadf75c92d" target="_top" xlink:title="sendmany">
<polygon fill="white" stroke="black" points="225.5,-0.5 225.5,-19.5 288.5,-19.5 288.5,-0.5 225.5,-0.5"/>
<text text-anchor="middle" x="257" y="-7.5" font-family="Helvetica,sans-Serif" font-size="10.00">sendmany</text>
</a>
</g>
</g>
<!-- Node1&#45;&gt;Node4 -->
<g id="edge3" class="edge"><title>Node1&#45;&gt;Node4</title>
<path fill="none" stroke="midnightblue" d="M149.265,-20.9324C176.186,-18.1751 204.715,-15.253 225.498,-13.1242"/>
<polygon fill="midnightblue" stroke="midnightblue" points="148.638,-17.4783 139.046,-21.9791 149.351,-24.4419 148.638,-17.4783"/>
</g>
<!-- Node3 -->
<g id="node3" class="node"><title>Node3</title>
<g id="a_node3"><a xlink:href="class_send_coins_dialog.html#a2cab7cf9ea5040b9e2189297f7d3c764" target="_top" xlink:title="SendCoinsDialog::on\l_sendButton_clicked">
<polygon fill="white" stroke="black" points="375,-33 375,-63 485,-63 485,-33 375,-33"/>
<text text-anchor="start" x="383" y="-51" font-family="Helvetica,sans-Serif" font-size="10.00">SendCoinsDialog::on</text>
<text text-anchor="middle" x="430" y="-40" font-family="Helvetica,sans-Serif" font-size="10.00">_sendButton_clicked</text>
</a>
</g>
</g>
<!-- Node2&#45;&gt;Node3 -->
<g id="edge2" class="edge"><title>Node2&#45;&gt;Node3</title>
<path fill="none" stroke="midnightblue" d="M349.428,-48C358.09,-48 366.671,-48 374.812,-48"/>
<polygon fill="midnightblue" stroke="midnightblue" points="349.243,-44.5001 339.243,-48 349.243,-51.5001 349.243,-44.5001"/>
</g>
</g>
</svg>
