<?xml version="1.0" encoding="UTF-8" standalone="no"?>
<!DOCTYPE svg PUBLIC "-//W3C//DTD SVG 1.1//EN"
 "http://www.w3.org/Graphics/SVG/1.1/DTD/svg11.dtd">
<!-- Generated by graphviz version 2.38.0 (20140413.2041)
 -->
<!-- Title: CKey::IsCompressed Pages: 1 -->
<svg width="472pt" height="78pt"
 viewBox="0.00 0.00 472.00 77.50" xmlns="http://www.w3.org/2000/svg" xmlns:xlink="http://www.w3.org/1999/xlink">
<g id="graph0" class="graph" transform="scale(1 1) rotate(0) translate(4 73.5)">
<title>CKey::IsCompressed</title>
<polygon fill="white" stroke="none" points="-4,4 -4,-73.5 468,-73.5 468,4 -4,4"/>
<!-- Node1 -->
<g id="node1" class="node"><title>Node1</title>
<polygon fill="#bfbfbf" stroke="black" points="0,-22.5 0,-41.5 111,-41.5 111,-22.5 0,-22.5"/>
<text text-anchor="middle" x="55.5" y="-29.5" font-family="Helvetica,sans-Serif" font-size="10.00">CKey::IsCompressed</text>
</g>
<!-- Node2 -->
<g id="node2" class="node"><title>Node2</title>
<g id="a_node2"><a xlink:href="class_c_anoncoin_secret.html#a416871f8f1e323f16e7bc5b1a18a3f62" target="_top" xlink:title="CAnoncoinSecret::SetKey">
<polygon fill="white" stroke="black" points="147,-42.5 147,-61.5 279,-61.5 279,-42.5 147,-42.5"/>
<text text-anchor="middle" x="213" y="-49.5" font-family="Helvetica,sans-Serif" font-size="10.00">CAnoncoinSecret::SetKey</text>
</a>
</g>
</g>
<!-- Node1&#45;&gt;Node2 -->
<g id="edge1" class="edge"><title>Node1&#45;&gt;Node2</title>
<path fill="none" stroke="midnightblue" d="M121.412,-40.3489C129.789,-41.4262 138.37,-42.5299 146.752,-43.608"/>
<polygon fill="midnightblue" stroke="midnightblue" points="121.688,-36.8556 111.323,-39.0513 120.795,-43.7984 121.688,-36.8556"/>
</g>
<!-- Node4 -->
<g id="node4" class="node"><title>Node4</title>
<g id="a_node4"><a xlink:href="class_c_key.html#abb0091d4390dcece3c56ea4c1fdd6036" target="_top" xlink:title="CKey::Derive">
<polygon fill="white" stroke="black" points="175.5,-3.5 175.5,-22.5 250.5,-22.5 250.5,-3.5 175.5,-3.5"/>
<text text-anchor="middle" x="213" y="-10.5" font-family="Helvetica,sans-Serif" font-size="10.00">CKey::Derive</text>
</a>
</g>
</g>
<!-- Node1&#45;&gt;Node4 -->
<g id="edge3" class="edge"><title>Node1&#45;&gt;Node4</title>
<path fill="none" stroke="midnightblue" d="M121.398,-24.0704C139.762,-21.8265 159.11,-19.4624 175.19,-17.4977"/>
<polygon fill="midnightblue" stroke="midnightblue" points="120.825,-20.6142 111.323,-25.3013 121.674,-27.5625 120.825,-20.6142"/>
</g>
<!-- Node3 -->
<g id="node3" class="node"><title>Node3</title>
<g id="a_node3"><a xlink:href="class_c_anoncoin_secret.html#a3ed7780e589f6bc4d507e29cebc38c98" target="_top" xlink:title="CAnoncoinSecret::CAnoncoin\lSecret">
<polygon fill="white" stroke="black" points="315,-39 315,-69 464,-69 464,-39 315,-39"/>
<text text-anchor="start" x="323" y="-57" font-family="Helvetica,sans-Serif" font-size="10.00">CAnoncoinSecret::CAnoncoin</text>
<text text-anchor="middle" x="389.5" y="-46" font-family="Helvetica,sans-Serif" font-size="10.00">Secret</text>
</a>
</g>
</g>
<!-- Node2&#45;&gt;Node3 -->
<g id="edge2" class="edge"><title>Node2&#45;&gt;Node3</title>
<path fill="none" stroke="midnightblue" d="M289.568,-52.8661C297.92,-52.9618 306.417,-53.0592 314.746,-53.1547"/>
<polygon fill="midnightblue" stroke="midnightblue" points="289.513,-49.3653 279.474,-52.7504 289.433,-56.3649 289.513,-49.3653"/>
</g>
<!-- Node5 -->
<g id="node5" class="node"><title>Node5</title>
<g id="a_node5"><a xlink:href="struct_c_ext_key.html#a2fa3a39434ae09efbbd4058d1d081aa2" target="_top" xlink:title="CExtKey::Derive">
<polygon fill="white" stroke="black" points="344.5,-0.5 344.5,-19.5 434.5,-19.5 434.5,-0.5 344.5,-0.5"/>
<text text-anchor="middle" x="389.5" y="-7.5" font-family="Helvetica,sans-Serif" font-size="10.00">CExtKey::Derive</text>
</a>
</g>
</g>
<!-- Node4&#45;&gt;Node5 -->
<g id="edge4" class="edge"><title>Node4&#45;&gt;Node5</title>
<path fill="none" stroke="midnightblue" d="M260.905,-12.1936C286.798,-11.7485 318.772,-11.1988 344.235,-10.761"/>
<polygon fill="midnightblue" stroke="midnightblue" points="260.519,-8.69963 250.581,-12.3711 260.64,-15.6986 260.519,-8.69963"/>
</g>
</g>
</svg>
