<?xml version="1.0" encoding="UTF-8" standalone="no"?>
<!DOCTYPE svg PUBLIC "-//W3C//DTD SVG 1.1//EN"
 "http://www.w3.org/Graphics/SVG/1.1/DTD/svg11.dtd">
<!-- Generated by graphviz version 2.38.0 (20140413.2041)
 -->
<!-- Title: PeerTableModel::sort Pages: 1 -->
<svg width="1556pt" height="218pt"
 viewBox="0.00 0.00 1556.00 218.00" xmlns="http://www.w3.org/2000/svg" xmlns:xlink="http://www.w3.org/1999/xlink">
<g id="graph0" class="graph" transform="scale(1 1) rotate(0) translate(4 214)">
<title>PeerTableModel::sort</title>
<polygon fill="white" stroke="none" points="-4,4 -4,-214 1552,-214 1552,4 -4,4"/>
<!-- Node1 -->
<g id="node1" class="node"><title>Node1</title>
<polygon fill="#bfbfbf" stroke="black" points="0,-133.5 0,-152.5 112,-152.5 112,-133.5 0,-133.5"/>
<text text-anchor="middle" x="56" y="-140.5" font-family="Helvetica,sans-Serif" font-size="10.00">PeerTableModel::sort</text>
</g>
<!-- Node2 -->
<g id="node2" class="node"><title>Node2</title>
<g id="a_node2"><a xlink:href="class_peer_table_model.html#abae14b3fd8a38a60f752f67a57b5b0b3" target="_top" xlink:title="PeerTableModel::refresh">
<polygon fill="white" stroke="black" points="148,-133.5 148,-152.5 275,-152.5 275,-133.5 148,-133.5"/>
<text text-anchor="middle" x="211.5" y="-140.5" font-family="Helvetica,sans-Serif" font-size="10.00">PeerTableModel::refresh</text>
</a>
</g>
</g>
<!-- Node1&#45;&gt;Node2 -->
<g id="edge1" class="edge"><title>Node1&#45;&gt;Node2</title>
<path fill="none" stroke="midnightblue" d="M112.417,-143C120.598,-143 129.13,-143 137.6,-143"/>
<polygon fill="midnightblue" stroke="midnightblue" points="137.872,-146.5 147.872,-143 137.872,-139.5 137.872,-146.5"/>
</g>
<!-- Node3 -->
<g id="node3" class="node"><title>Node3</title>
<g id="a_node3"><a xlink:href="class_peer_table_priv.html#a304d99874f6cd0c67ed207546a5ca904" target="_top" xlink:title="Pull a full list of peers from vNodes into our cache. ">
<polygon fill="white" stroke="black" points="311,-133.5 311,-152.5 454,-152.5 454,-133.5 311,-133.5"/>
<text text-anchor="middle" x="382.5" y="-140.5" font-family="Helvetica,sans-Serif" font-size="10.00">PeerTablePriv::refreshPeers</text>
</a>
</g>
</g>
<!-- Node2&#45;&gt;Node3 -->
<g id="edge2" class="edge"><title>Node2&#45;&gt;Node3</title>
<path fill="none" stroke="midnightblue" d="M275.429,-143C283.636,-143 292.133,-143 300.582,-143"/>
<polygon fill="midnightblue" stroke="midnightblue" points="300.842,-146.5 310.842,-143 300.842,-139.5 300.842,-146.5"/>
</g>
<!-- Node4 -->
<g id="node4" class="node"><title>Node4</title>
<g id="a_node4"><a xlink:href="class_c_node.html#aaa77188d9df85b80e3f8a30292acf6a9" target="_top" xlink:title="CNode::copyStats">
<polygon fill="white" stroke="black" points="493,-152.5 493,-171.5 590,-171.5 590,-152.5 493,-152.5"/>
<text text-anchor="middle" x="541.5" y="-159.5" font-family="Helvetica,sans-Serif" font-size="10.00">CNode::copyStats</text>
</a>
</g>
</g>
<!-- Node3&#45;&gt;Node4 -->
<g id="edge3" class="edge"><title>Node3&#45;&gt;Node4</title>
<path fill="none" stroke="midnightblue" d="M454.192,-151.555C463.654,-152.7 473.268,-153.864 482.478,-154.978"/>
<polygon fill="midnightblue" stroke="midnightblue" points="482.327,-158.485 492.675,-156.212 483.168,-151.536 482.327,-158.485"/>
</g>
<!-- Node21 -->
<g id="node21" class="node"><title>Node21</title>
<g id="a_node21"><a xlink:href="main_8cpp.html#af0793c7c14e94d2d642f4ac89067a429" target="_top" xlink:title="Get statistics from node state. ">
<polygon fill="white" stroke="black" points="490,-114.5 490,-133.5 593,-133.5 593,-114.5 490,-114.5"/>
<text text-anchor="middle" x="541.5" y="-121.5" font-family="Helvetica,sans-Serif" font-size="10.00">GetNodeStateStats</text>
</a>
</g>
</g>
<!-- Node3&#45;&gt;Node21 -->
<g id="edge22" class="edge"><title>Node3&#45;&gt;Node21</title>
<path fill="none" stroke="midnightblue" d="M454.192,-134.445C462.756,-133.409 471.445,-132.357 479.846,-131.34"/>
<polygon fill="midnightblue" stroke="midnightblue" points="480.416,-134.797 489.923,-130.121 479.575,-127.848 480.416,-134.797"/>
</g>
<!-- Node5 -->
<g id="node5" class="node"><title>Node5</title>
<g id="a_node5"><a xlink:href="util_8h.html#a0c5a06b50cd805b1923552114494c029" target="_top" xlink:title="GetTimeMicros">
<polygon fill="white" stroke="black" points="637,-190.5 637,-209.5 721,-209.5 721,-190.5 637,-190.5"/>
<text text-anchor="middle" x="679" y="-197.5" font-family="Helvetica,sans-Serif" font-size="10.00">GetTimeMicros</text>
</a>
</g>
</g>
<!-- Node4&#45;&gt;Node5 -->
<g id="edge4" class="edge"><title>Node4&#45;&gt;Node5</title>
<path fill="none" stroke="midnightblue" d="M576.692,-171.589C594.104,-176.472 615.471,-182.464 634.087,-187.685"/>
<polygon fill="midnightblue" stroke="midnightblue" points="633.245,-191.084 643.819,-190.414 635.135,-184.344 633.245,-191.084"/>
</g>
<!-- Node6 -->
<g id="node6" class="node"><title>Node6</title>
<g id="a_node6"><a xlink:href="class_c_net_addr.html#a52a1b506f07e5450057e12a8b5a7fbcd" target="_top" xlink:title="CNetAddr::IsValid">
<polygon fill="white" stroke="black" points="631,-152.5 631,-171.5 727,-171.5 727,-152.5 631,-152.5"/>
<text text-anchor="middle" x="679" y="-159.5" font-family="Helvetica,sans-Serif" font-size="10.00">CNetAddr::IsValid</text>
</a>
</g>
</g>
<!-- Node4&#45;&gt;Node6 -->
<g id="edge5" class="edge"><title>Node4&#45;&gt;Node6</title>
<path fill="none" stroke="midnightblue" d="M590.272,-162C599.999,-162 610.329,-162 620.357,-162"/>
<polygon fill="midnightblue" stroke="midnightblue" points="620.659,-165.5 630.659,-162 620.659,-158.5 620.659,-165.5"/>
</g>
<!-- Node7 -->
<g id="node7" class="node"><title>Node7</title>
<g id="a_node7"><a xlink:href="class_c_service.html#a336f9848fe9364e260c76499be0351a5" target="_top" xlink:title="CService::ToString">
<polygon fill="white" stroke="black" points="629,-114.5 629,-133.5 729,-133.5 729,-114.5 629,-114.5"/>
<text text-anchor="middle" x="679" y="-121.5" font-family="Helvetica,sans-Serif" font-size="10.00">CService::ToString</text>
</a>
</g>
</g>
<!-- Node4&#45;&gt;Node7 -->
<g id="edge6" class="edge"><title>Node4&#45;&gt;Node7</title>
<path fill="none" stroke="midnightblue" d="M576.692,-152.411C594.104,-147.528 615.471,-141.536 634.087,-136.315"/>
<polygon fill="midnightblue" stroke="midnightblue" points="635.135,-139.656 643.819,-133.586 633.245,-132.916 635.135,-139.656"/>
</g>
<!-- Node8 -->
<g id="node8" class="node"><title>Node8</title>
<g id="a_node8"><a xlink:href="class_c_service.html#a39b82301356b0dfc2a92befc727b77be" target="_top" xlink:title="CService::ToStringIPPort">
<polygon fill="white" stroke="black" points="765,-114.5 765,-133.5 893,-133.5 893,-114.5 765,-114.5"/>
<text text-anchor="middle" x="829" y="-121.5" font-family="Helvetica,sans-Serif" font-size="10.00">CService::ToStringIPPort</text>
</a>
</g>
</g>
<!-- Node7&#45;&gt;Node8 -->
<g id="edge7" class="edge"><title>Node7&#45;&gt;Node8</title>
<path fill="none" stroke="midnightblue" d="M729.282,-124C737.502,-124 746.181,-124 754.845,-124"/>
<polygon fill="midnightblue" stroke="midnightblue" points="754.98,-127.5 764.98,-124 754.98,-120.5 754.98,-127.5"/>
</g>
<!-- Node9 -->
<g id="node9" class="node"><title>Node9</title>
<g id="a_node9"><a xlink:href="util_8cpp.html#a24f685720bf40370e5bd2a192ad50cd8" target="_top" xlink:title="Return string argument or default value. ">
<polygon fill="white" stroke="black" points="964.5,-190.5 964.5,-209.5 1012.5,-209.5 1012.5,-190.5 964.5,-190.5"/>
<text text-anchor="middle" x="988.5" y="-197.5" font-family="Helvetica,sans-Serif" font-size="10.00">GetArg</text>
</a>
</g>
</g>
<!-- Node8&#45;&gt;Node9 -->
<g id="edge8" class="edge"><title>Node8&#45;&gt;Node9</title>
<path fill="none" stroke="midnightblue" d="M844.584,-133.696C863.458,-145.933 897.646,-167.065 929,-181 937.136,-184.616 946.177,-187.892 954.672,-190.666"/>
<polygon fill="midnightblue" stroke="midnightblue" points="953.716,-194.034 964.305,-193.682 955.807,-187.354 953.716,-194.034"/>
</g>
<!-- Node10 -->
<g id="node10" class="node"><title>Node10</title>
<g id="a_node10"><a xlink:href="class_c_service.html#a1e0f0b98239a9097044695a9e439bb46" target="_top" xlink:title="CService::ToStringPort">
<polygon fill="white" stroke="black" points="929,-152.5 929,-171.5 1048,-171.5 1048,-152.5 929,-152.5"/>
<text text-anchor="middle" x="988.5" y="-159.5" font-family="Helvetica,sans-Serif" font-size="10.00">CService::ToStringPort</text>
</a>
</g>
</g>
<!-- Node8&#45;&gt;Node10 -->
<g id="edge9" class="edge"><title>Node8&#45;&gt;Node10</title>
<path fill="none" stroke="midnightblue" d="M869.744,-133.589C890.528,-138.604 916.161,-144.788 938.199,-150.105"/>
<polygon fill="midnightblue" stroke="midnightblue" points="937.5,-153.537 948.042,-152.48 939.142,-146.732 937.5,-153.537"/>
</g>
<!-- Node11 -->
<g id="node11" class="node"><title>Node11</title>
<g id="a_node11"><a xlink:href="class_c_net_addr.html#a16ff4478f02f06f5a9a038a24d5da2f9" target="_top" xlink:title="CNetAddr::IsIPv4">
<polygon fill="white" stroke="black" points="1253.5,-114.5 1253.5,-133.5 1347.5,-133.5 1347.5,-114.5 1253.5,-114.5"/>
<text text-anchor="middle" x="1300.5" y="-121.5" font-family="Helvetica,sans-Serif" font-size="10.00">CNetAddr::IsIPv4</text>
</a>
</g>
</g>
<!-- Node8&#45;&gt;Node11 -->
<g id="edge10" class="edge"><title>Node8&#45;&gt;Node11</title>
<path fill="none" stroke="midnightblue" d="M893.319,-124C985.533,-124 1155.35,-124 1243.34,-124"/>
<polygon fill="midnightblue" stroke="midnightblue" points="1243.4,-127.5 1253.4,-124 1243.4,-120.5 1243.4,-127.5"/>
</g>
<!-- Node12 -->
<g id="node12" class="node"><title>Node12</title>
<g id="a_node12"><a xlink:href="class_c_net_addr.html#a3fba9e0b18f531c0ed15794a30e8165d" target="_top" xlink:title="CNetAddr::IsTor">
<polygon fill="white" stroke="black" points="944,-76.5 944,-95.5 1033,-95.5 1033,-76.5 944,-76.5"/>
<text text-anchor="middle" x="988.5" y="-83.5" font-family="Helvetica,sans-Serif" font-size="10.00">CNetAddr::IsTor</text>
</a>
</g>
</g>
<!-- Node8&#45;&gt;Node12 -->
<g id="edge11" class="edge"><title>Node8&#45;&gt;Node12</title>
<path fill="none" stroke="midnightblue" d="M869.744,-114.411C890.528,-109.396 916.161,-103.212 938.199,-97.8947"/>
<polygon fill="midnightblue" stroke="midnightblue" points="939.142,-101.268 948.042,-95.5201 937.5,-94.4632 939.142,-101.268"/>
</g>
<!-- Node13 -->
<g id="node13" class="node"><title>Node13</title>
<g id="a_node13"><a xlink:href="class_c_net_addr.html#a7ec845c27b63853fb0db08a4d154266f" target="_top" xlink:title="CNetAddr::ToStringIP">
<polygon fill="white" stroke="black" points="932,-38.5 932,-57.5 1045,-57.5 1045,-38.5 932,-38.5"/>
<text text-anchor="middle" x="988.5" y="-45.5" font-family="Helvetica,sans-Serif" font-size="10.00">CNetAddr::ToStringIP</text>
</a>
</g>
</g>
<!-- Node8&#45;&gt;Node13 -->
<g id="edge12" class="edge"><title>Node8&#45;&gt;Node13</title>
<path fill="none" stroke="midnightblue" d="M844.584,-114.304C863.458,-102.067 897.646,-80.9348 929,-67 933.817,-64.8593 938.951,-62.8378 944.1,-60.9691"/>
<polygon fill="midnightblue" stroke="midnightblue" points="945.633,-64.1429 953.944,-57.5725 943.35,-57.5257 945.633,-64.1429"/>
</g>
<!-- Node14 -->
<g id="node14" class="node"><title>Node14</title>
<g id="a_node14"><a xlink:href="util_8cpp.html#a71aa75e646de8a10971f887bc71d9a75" target="_top" xlink:title="EncodeBase32">
<polygon fill="white" stroke="black" points="1103,-76.5 1103,-95.5 1187,-95.5 1187,-76.5 1103,-76.5"/>
<text text-anchor="middle" x="1145" y="-83.5" font-family="Helvetica,sans-Serif" font-size="10.00">EncodeBase32</text>
</a>
</g>
</g>
<!-- Node13&#45;&gt;Node14 -->
<g id="edge13" class="edge"><title>Node13&#45;&gt;Node14</title>
<path fill="none" stroke="midnightblue" d="M1028.49,-57.589C1048.78,-62.5809 1073.79,-68.7324 1095.35,-74.0334"/>
<polygon fill="midnightblue" stroke="midnightblue" points="1094.75,-77.4902 1105.29,-76.4799 1096.42,-70.6928 1094.75,-77.4902"/>
</g>
<!-- Node15 -->
<g id="node15" class="node"><title>Node15</title>
<g id="a_node15"><a xlink:href="class_c_service.html#ab0f791c174511056236119cc1580faeb" target="_top" xlink:title="CService::GetSockAddr">
<polygon fill="white" stroke="black" points="1084,-38.5 1084,-57.5 1206,-57.5 1206,-38.5 1084,-38.5"/>
<text text-anchor="middle" x="1145" y="-45.5" font-family="Helvetica,sans-Serif" font-size="10.00">CService::GetSockAddr</text>
</a>
</g>
</g>
<!-- Node13&#45;&gt;Node15 -->
<g id="edge14" class="edge"><title>Node13&#45;&gt;Node15</title>
<path fill="none" stroke="midnightblue" d="M1045.28,-48C1054.48,-48 1064.13,-48 1073.63,-48"/>
<polygon fill="midnightblue" stroke="midnightblue" points="1073.87,-51.5001 1083.87,-48 1073.87,-44.5001 1073.87,-51.5001"/>
</g>
<!-- Node15&#45;&gt;Node11 -->
<g id="edge15" class="edge"><title>Node15&#45;&gt;Node11</title>
<path fill="none" stroke="midnightblue" d="M1185.99,-57.5369C1192.94,-60.0551 1199.89,-63.1721 1206,-67 1225.72,-79.3488 1222.36,-92.5285 1242,-105 1245.16,-107.006 1248.55,-108.822 1252.05,-110.461"/>
<polygon fill="midnightblue" stroke="midnightblue" points="1250.9,-113.774 1261.48,-114.398 1253.6,-107.314 1250.9,-113.774"/>
</g>
<!-- Node16 -->
<g id="node16" class="node"><title>Node16</title>
<g id="a_node16"><a xlink:href="class_c_net_addr.html#aa2e2c78db01a6a27d6a2740f2ba43e90" target="_top" xlink:title="CNetAddr::GetInAddr">
<polygon fill="white" stroke="black" points="1244.5,-76.5 1244.5,-95.5 1356.5,-95.5 1356.5,-76.5 1244.5,-76.5"/>
<text text-anchor="middle" x="1300.5" y="-83.5" font-family="Helvetica,sans-Serif" font-size="10.00">CNetAddr::GetInAddr</text>
</a>
</g>
</g>
<!-- Node15&#45;&gt;Node16 -->
<g id="edge16" class="edge"><title>Node15&#45;&gt;Node16</title>
<path fill="none" stroke="midnightblue" d="M1184.73,-57.589C1204.9,-62.5809 1229.75,-68.7324 1251.16,-74.0334"/>
<polygon fill="midnightblue" stroke="midnightblue" points="1250.5,-77.4743 1261.04,-76.4799 1252.18,-70.6794 1250.5,-77.4743"/>
</g>
<!-- Node19 -->
<g id="node19" class="node"><title>Node19</title>
<g id="a_node19"><a xlink:href="class_c_net_addr.html#a0edb022cd6a186de8099799415409d57" target="_top" xlink:title="CNetAddr::IsIPv6">
<polygon fill="white" stroke="black" points="1253.5,-38.5 1253.5,-57.5 1347.5,-57.5 1347.5,-38.5 1253.5,-38.5"/>
<text text-anchor="middle" x="1300.5" y="-45.5" font-family="Helvetica,sans-Serif" font-size="10.00">CNetAddr::IsIPv6</text>
</a>
</g>
</g>
<!-- Node15&#45;&gt;Node19 -->
<g id="edge19" class="edge"><title>Node15&#45;&gt;Node19</title>
<path fill="none" stroke="midnightblue" d="M1206.23,-48C1218.31,-48 1230.97,-48 1242.92,-48"/>
<polygon fill="midnightblue" stroke="midnightblue" points="1243.21,-51.5001 1253.21,-48 1243.21,-44.5001 1243.21,-51.5001"/>
</g>
<!-- Node20 -->
<g id="node20" class="node"><title>Node20</title>
<g id="a_node20"><a xlink:href="class_c_net_addr.html#add7811be50f5fe60c4fa65b461dea98c" target="_top" xlink:title="CNetAddr::GetIn6Addr">
<polygon fill="white" stroke="black" points="1242,-0.5 1242,-19.5 1359,-19.5 1359,-0.5 1242,-0.5"/>
<text text-anchor="middle" x="1300.5" y="-7.5" font-family="Helvetica,sans-Serif" font-size="10.00">CNetAddr::GetIn6Addr</text>
</a>
</g>
</g>
<!-- Node15&#45;&gt;Node20 -->
<g id="edge20" class="edge"><title>Node15&#45;&gt;Node20</title>
<path fill="none" stroke="midnightblue" d="M1184.73,-38.411C1204.9,-33.4191 1229.75,-27.2676 1251.16,-21.9666"/>
<polygon fill="midnightblue" stroke="midnightblue" points="1252.18,-25.3206 1261.04,-19.5201 1250.5,-18.5257 1252.18,-25.3206"/>
</g>
<!-- Node17 -->
<g id="node17" class="node"><title>Node17</title>
<g id="a_node17"><a xlink:href="glibc__compat_8cpp.html#a0f46826ab0466591e136db24394923cf" target="_top" xlink:title="memcpy">
<polygon fill="white" stroke="black" points="1395,-38.5 1395,-57.5 1449,-57.5 1449,-38.5 1395,-38.5"/>
<text text-anchor="middle" x="1422" y="-45.5" font-family="Helvetica,sans-Serif" font-size="10.00">memcpy</text>
</a>
</g>
</g>
<!-- Node16&#45;&gt;Node17 -->
<g id="edge17" class="edge"><title>Node16&#45;&gt;Node17</title>
<path fill="none" stroke="midnightblue" d="M1331.65,-76.411C1347.95,-71.228 1368.18,-64.795 1385.27,-59.3617"/>
<polygon fill="midnightblue" stroke="midnightblue" points="1386.44,-62.6611 1394.91,-56.2952 1384.32,-55.9903 1386.44,-62.6611"/>
</g>
<!-- Node18 -->
<g id="node18" class="node"><title>Node18</title>
<g id="a_node18"><a xlink:href="glibc__compat_8cpp.html#a9778d49e9029dd75bc53ecbbf9f5e9a1" target="_top" xlink:title="memmove">
<polygon fill="white" stroke="black" points="1485,-38.5 1485,-57.5 1548,-57.5 1548,-38.5 1485,-38.5"/>
<text text-anchor="middle" x="1516.5" y="-45.5" font-family="Helvetica,sans-Serif" font-size="10.00">memmove</text>
</a>
</g>
</g>
<!-- Node17&#45;&gt;Node18 -->
<g id="edge18" class="edge"><title>Node17&#45;&gt;Node18</title>
<path fill="none" stroke="midnightblue" d="M1449.26,-48C1457.24,-48 1466.21,-48 1474.91,-48"/>
<polygon fill="midnightblue" stroke="midnightblue" points="1474.92,-51.5001 1484.92,-48 1474.92,-44.5001 1474.92,-51.5001"/>
</g>
<!-- Node20&#45;&gt;Node17 -->
<g id="edge21" class="edge"><title>Node20&#45;&gt;Node17</title>
<path fill="none" stroke="midnightblue" d="M1331.65,-19.589C1347.95,-24.772 1368.18,-31.205 1385.27,-36.6383"/>
<polygon fill="midnightblue" stroke="midnightblue" points="1384.32,-40.0097 1394.91,-39.7048 1386.44,-33.3389 1384.32,-40.0097"/>
</g>
</g>
</svg>
