<?xml version="1.0" encoding="UTF-8" standalone="no"?>
<!DOCTYPE svg PUBLIC "-//W3C//DTD SVG 1.1//EN"
 "http://www.w3.org/Graphics/SVG/1.1/DTD/svg11.dtd">
<!-- Generated by graphviz version 2.38.0 (20140413.2041)
 -->
<!-- Title: WalletModel::unlockCoin Pages: 1 -->
<svg width="413pt" height="39pt"
 viewBox="0.00 0.00 413.00 39.00" xmlns="http://www.w3.org/2000/svg" xmlns:xlink="http://www.w3.org/1999/xlink">
<g id="graph0" class="graph" transform="scale(1 1) rotate(0) translate(4 35)">
<title>WalletModel::unlockCoin</title>
<polygon fill="white" stroke="none" points="-4,4 -4,-35 409,-35 409,4 -4,4"/>
<!-- Node1 -->
<g id="node1" class="node"><title>Node1</title>
<polygon fill="#bfbfbf" stroke="black" points="0,-6 0,-25 127,-25 127,-6 0,-6"/>
<text text-anchor="middle" x="63.5" y="-13" font-family="Helvetica,sans-Serif" font-size="10.00">WalletModel::unlockCoin</text>
</g>
<!-- Node2 -->
<g id="node2" class="node"><title>Node2</title>
<g id="a_node2"><a xlink:href="class_coin_control_dialog.html#a3097ebdc8972660aae30f49f2ccd1d8c" target="_top" xlink:title="CoinControlDialog::\lunlockCoin">
<polygon fill="white" stroke="black" points="163,-0.5 163,-30.5 266,-30.5 266,-0.5 163,-0.5"/>
<text text-anchor="start" x="171" y="-18.5" font-family="Helvetica,sans-Serif" font-size="10.00">CoinControlDialog::</text>
<text text-anchor="middle" x="214.5" y="-7.5" font-family="Helvetica,sans-Serif" font-size="10.00">unlockCoin</text>
</a>
</g>
</g>
<!-- Node1&#45;&gt;Node2 -->
<g id="edge1" class="edge"><title>Node1&#45;&gt;Node2</title>
<path fill="none" stroke="midnightblue" d="M137.536,-15.5C145.997,-15.5 154.483,-15.5 162.558,-15.5"/>
<polygon fill="midnightblue" stroke="midnightblue" points="137.258,-12.0001 127.258,-15.5 137.258,-19.0001 137.258,-12.0001"/>
</g>
<!-- Node3 -->
<g id="node3" class="node"><title>Node3</title>
<g id="a_node3"><a xlink:href="class_coin_control_dialog.html#a0945e59c25f956fdab199dbaf252eff5" target="_top" xlink:title="CoinControlDialog::\lCoinControlDialog">
<polygon fill="white" stroke="black" points="302,-0.5 302,-30.5 405,-30.5 405,-0.5 302,-0.5"/>
<text text-anchor="start" x="310" y="-18.5" font-family="Helvetica,sans-Serif" font-size="10.00">CoinControlDialog::</text>
<text text-anchor="middle" x="353.5" y="-7.5" font-family="Helvetica,sans-Serif" font-size="10.00">CoinControlDialog</text>
</a>
</g>
</g>
<!-- Node2&#45;&gt;Node3 -->
<g id="edge2" class="edge"><title>Node2&#45;&gt;Node3</title>
<path fill="none" stroke="midnightblue" d="M276.32,-15.5C284.772,-15.5 293.382,-15.5 301.626,-15.5"/>
<polygon fill="midnightblue" stroke="midnightblue" points="276.125,-12.0001 266.125,-15.5 276.124,-19.0001 276.125,-12.0001"/>
</g>
</g>
</svg>
