<?xml version="1.0" encoding="UTF-8" standalone="no"?>
<!DOCTYPE svg PUBLIC "-//W3C//DTD SVG 1.1//EN"
 "http://www.w3.org/Graphics/SVG/1.1/DTD/svg11.dtd">
<!-- Generated by graphviz version 2.38.0 (20140413.2041)
 -->
<!-- Title: payments::PaymentACK::ByteSize Pages: 1 -->
<svg width="294pt" height="235pt"
 viewBox="0.00 0.00 294.00 235.00" xmlns="http://www.w3.org/2000/svg" xmlns:xlink="http://www.w3.org/1999/xlink">
<g id="graph0" class="graph" transform="scale(1 1) rotate(0) translate(4 231)">
<title>payments::PaymentACK::ByteSize</title>
<polygon fill="white" stroke="none" points="-4,4 -4,-231 290,-231 290,4 -4,4"/>
<!-- Node1 -->
<g id="node1" class="node"><title>Node1</title>
<polygon fill="#bfbfbf" stroke="black" points="0,-98.5 0,-128.5 125,-128.5 125,-98.5 0,-98.5"/>
<text text-anchor="start" x="8" y="-116.5" font-family="Helvetica,sans-Serif" font-size="10.00">payments::PaymentACK</text>
<text text-anchor="middle" x="62.5" y="-105.5" font-family="Helvetica,sans-Serif" font-size="10.00">::ByteSize</text>
</g>
<!-- Node2 -->
<g id="node2" class="node"><title>Node2</title>
<g id="a_node2"><a xlink:href="classpayments_1_1_payment_a_c_k.html#af6a6cc35e2ad9ea4d171a0a12d84bd53" target="_top" xlink:title="payments::PaymentACK\l::has_payment">
<polygon fill="white" stroke="black" points="161,-196.5 161,-226.5 286,-226.5 286,-196.5 161,-196.5"/>
<text text-anchor="start" x="169" y="-214.5" font-family="Helvetica,sans-Serif" font-size="10.00">payments::PaymentACK</text>
<text text-anchor="middle" x="223.5" y="-203.5" font-family="Helvetica,sans-Serif" font-size="10.00">::has_payment</text>
</a>
</g>
</g>
<!-- Node1&#45;&gt;Node2 -->
<g id="edge1" class="edge"><title>Node1&#45;&gt;Node2</title>
<path fill="none" stroke="midnightblue" d="M80.4455,-128.703C99.1326,-144.888 130.595,-170.467 161,-187.5 163.99,-189.175 167.121,-190.787 170.319,-192.326"/>
<polygon fill="midnightblue" stroke="midnightblue" points="168.895,-195.523 179.448,-196.468 171.788,-189.149 168.895,-195.523"/>
</g>
<!-- Node3 -->
<g id="node3" class="node"><title>Node3</title>
<g id="a_node3"><a xlink:href="classpayments_1_1_payment_a_c_k.html#a0e41879b6b50ff2126661548f8062e1b" target="_top" xlink:title="payments::PaymentACK\l::payment">
<polygon fill="white" stroke="black" points="161,-147.5 161,-177.5 286,-177.5 286,-147.5 161,-147.5"/>
<text text-anchor="start" x="169" y="-165.5" font-family="Helvetica,sans-Serif" font-size="10.00">payments::PaymentACK</text>
<text text-anchor="middle" x="223.5" y="-154.5" font-family="Helvetica,sans-Serif" font-size="10.00">::payment</text>
</a>
</g>
</g>
<!-- Node1&#45;&gt;Node3 -->
<g id="edge2" class="edge"><title>Node1&#45;&gt;Node3</title>
<path fill="none" stroke="midnightblue" d="M112.503,-128.601C128.749,-133.608 146.999,-139.232 163.894,-144.439"/>
<polygon fill="midnightblue" stroke="midnightblue" points="163.072,-147.848 173.659,-147.448 165.133,-141.159 163.072,-147.848"/>
</g>
<!-- Node4 -->
<g id="node4" class="node"><title>Node4</title>
<g id="a_node4"><a xlink:href="classpayments_1_1_payment_a_c_k.html#ae90e5fa95495ff3c145ff405bfb88346" target="_top" xlink:title="payments::PaymentACK\l::has_memo">
<polygon fill="white" stroke="black" points="161,-98.5 161,-128.5 286,-128.5 286,-98.5 161,-98.5"/>
<text text-anchor="start" x="169" y="-116.5" font-family="Helvetica,sans-Serif" font-size="10.00">payments::PaymentACK</text>
<text text-anchor="middle" x="223.5" y="-105.5" font-family="Helvetica,sans-Serif" font-size="10.00">::has_memo</text>
</a>
</g>
</g>
<!-- Node1&#45;&gt;Node4 -->
<g id="edge3" class="edge"><title>Node1&#45;&gt;Node4</title>
<path fill="none" stroke="midnightblue" d="M125.429,-113.5C133.674,-113.5 142.184,-113.5 150.58,-113.5"/>
<polygon fill="midnightblue" stroke="midnightblue" points="150.74,-117 160.74,-113.5 150.74,-110 150.74,-117"/>
</g>
<!-- Node5 -->
<g id="node5" class="node"><title>Node5</title>
<g id="a_node5"><a xlink:href="classpayments_1_1_payment_a_c_k.html#af5473059f2e5d45e26ee2605f0d7ce97" target="_top" xlink:title="payments::PaymentACK\l::memo">
<polygon fill="white" stroke="black" points="161,-49.5 161,-79.5 286,-79.5 286,-49.5 161,-49.5"/>
<text text-anchor="start" x="169" y="-67.5" font-family="Helvetica,sans-Serif" font-size="10.00">payments::PaymentACK</text>
<text text-anchor="middle" x="223.5" y="-56.5" font-family="Helvetica,sans-Serif" font-size="10.00">::memo</text>
</a>
</g>
</g>
<!-- Node1&#45;&gt;Node5 -->
<g id="edge4" class="edge"><title>Node1&#45;&gt;Node5</title>
<path fill="none" stroke="midnightblue" d="M112.503,-98.3986C128.749,-93.3917 146.999,-87.7676 163.894,-82.561"/>
<polygon fill="midnightblue" stroke="midnightblue" points="165.133,-85.8415 173.659,-79.5516 163.072,-79.152 165.133,-85.8415"/>
</g>
<!-- Node6 -->
<g id="node6" class="node"><title>Node6</title>
<g id="a_node6"><a xlink:href="classpayments_1_1_payment_a_c_k.html#a2ba21e5e73c6b46659b575ed600698c0" target="_top" xlink:title="payments::PaymentACK\l::unknown_fields">
<polygon fill="white" stroke="black" points="161,-0.5 161,-30.5 286,-30.5 286,-0.5 161,-0.5"/>
<text text-anchor="start" x="169" y="-18.5" font-family="Helvetica,sans-Serif" font-size="10.00">payments::PaymentACK</text>
<text text-anchor="middle" x="223.5" y="-7.5" font-family="Helvetica,sans-Serif" font-size="10.00">::unknown_fields</text>
</a>
</g>
</g>
<!-- Node1&#45;&gt;Node6 -->
<g id="edge5" class="edge"><title>Node1&#45;&gt;Node6</title>
<path fill="none" stroke="midnightblue" d="M80.8727,-98.3117C99.6702,-82.4162 130.993,-57.4583 161,-40.5 164.457,-38.5463 168.097,-36.6656 171.809,-34.8738"/>
<polygon fill="midnightblue" stroke="midnightblue" points="173.484,-37.9566 181.119,-30.6115 170.57,-31.5919 173.484,-37.9566"/>
</g>
</g>
</svg>
