<?xml version="1.0" encoding="UTF-8" standalone="no"?>
<!DOCTYPE svg PUBLIC "-//W3C//DTD SVG 1.1//EN"
 "http://www.w3.org/Graphics/SVG/1.1/DTD/svg11.dtd">
<!-- Generated by graphviz version 2.38.0 (20140413.2041)
 -->
<!-- Title: payments::PaymentACK::CopyFrom Pages: 1 -->
<svg width="462pt" height="137pt"
 viewBox="0.00 0.00 462.00 137.00" xmlns="http://www.w3.org/2000/svg" xmlns:xlink="http://www.w3.org/1999/xlink">
<g id="graph0" class="graph" transform="scale(1 1) rotate(0) translate(4 133)">
<title>payments::PaymentACK::CopyFrom</title>
<polygon fill="white" stroke="none" points="-4,4 -4,-133 458,-133 458,4 -4,4"/>
<!-- Node1 -->
<g id="node1" class="node"><title>Node1</title>
<polygon fill="#bfbfbf" stroke="black" points="0,-24.5 0,-54.5 125,-54.5 125,-24.5 0,-24.5"/>
<text text-anchor="start" x="8" y="-42.5" font-family="Helvetica,sans-Serif" font-size="10.00">payments::PaymentACK</text>
<text text-anchor="middle" x="62.5" y="-31.5" font-family="Helvetica,sans-Serif" font-size="10.00">::CopyFrom</text>
</g>
<!-- Node2 -->
<g id="node2" class="node"><title>Node2</title>
<g id="a_node2"><a xlink:href="classpayments_1_1_payment_a_c_k.html#aa9b3d9e1edf07f5bb247350c619076fc" target="_top" xlink:title="payments::PaymentACK\l::Clear">
<polygon fill="white" stroke="black" points="161,-49.5 161,-79.5 286,-79.5 286,-49.5 161,-49.5"/>
<text text-anchor="start" x="169" y="-67.5" font-family="Helvetica,sans-Serif" font-size="10.00">payments::PaymentACK</text>
<text text-anchor="middle" x="223.5" y="-56.5" font-family="Helvetica,sans-Serif" font-size="10.00">::Clear</text>
</a>
</g>
</g>
<!-- Node1&#45;&gt;Node2 -->
<g id="edge1" class="edge"><title>Node1&#45;&gt;Node2</title>
<path fill="none" stroke="midnightblue" d="M125.429,-49.2372C133.764,-50.5478 142.371,-51.9011 150.857,-53.2354"/>
<polygon fill="midnightblue" stroke="midnightblue" points="150.318,-56.6935 160.74,-54.7893 151.405,-49.7785 150.318,-56.6935"/>
</g>
<!-- Node6 -->
<g id="node6" class="node"><title>Node6</title>
<g id="a_node6"><a xlink:href="classpayments_1_1_payment_a_c_k.html#a856282458906f201475d34927d1c565b" target="_top" xlink:title="payments::PaymentACK\l::MergeFrom">
<polygon fill="white" stroke="black" points="161,-0.5 161,-30.5 286,-30.5 286,-0.5 161,-0.5"/>
<text text-anchor="start" x="169" y="-18.5" font-family="Helvetica,sans-Serif" font-size="10.00">payments::PaymentACK</text>
<text text-anchor="middle" x="223.5" y="-7.5" font-family="Helvetica,sans-Serif" font-size="10.00">::MergeFrom</text>
</a>
</g>
</g>
<!-- Node1&#45;&gt;Node6 -->
<g id="edge5" class="edge"><title>Node1&#45;&gt;Node6</title>
<path fill="none" stroke="midnightblue" d="M125.429,-30.1523C133.674,-28.9077 142.184,-27.6232 150.58,-26.3558"/>
<polygon fill="midnightblue" stroke="midnightblue" points="151.375,-29.7756 160.74,-24.8222 150.33,-22.854 151.375,-29.7756"/>
</g>
<!-- Node3 -->
<g id="node3" class="node"><title>Node3</title>
<g id="a_node3"><a xlink:href="classpayments_1_1_payment_a_c_k.html#af6a6cc35e2ad9ea4d171a0a12d84bd53" target="_top" xlink:title="payments::PaymentACK\l::has_payment">
<polygon fill="white" stroke="black" points="325.5,-98.5 325.5,-128.5 450.5,-128.5 450.5,-98.5 325.5,-98.5"/>
<text text-anchor="start" x="333.5" y="-116.5" font-family="Helvetica,sans-Serif" font-size="10.00">payments::PaymentACK</text>
<text text-anchor="middle" x="388" y="-105.5" font-family="Helvetica,sans-Serif" font-size="10.00">::has_payment</text>
</a>
</g>
</g>
<!-- Node2&#45;&gt;Node3 -->
<g id="edge2" class="edge"><title>Node2&#45;&gt;Node3</title>
<path fill="none" stroke="midnightblue" d="M274.581,-79.6014C291.186,-84.6083 309.837,-90.2324 327.104,-95.439"/>
<polygon fill="midnightblue" stroke="midnightblue" points="326.499,-98.9123 337.084,-98.4484 328.52,-92.2104 326.499,-98.9123"/>
</g>
<!-- Node4 -->
<g id="node4" class="node"><title>Node4</title>
<g id="a_node4"><a xlink:href="classpayments_1_1_payment_a_c_k.html#ae90e5fa95495ff3c145ff405bfb88346" target="_top" xlink:title="payments::PaymentACK\l::has_memo">
<polygon fill="white" stroke="black" points="325.5,-49.5 325.5,-79.5 450.5,-79.5 450.5,-49.5 325.5,-49.5"/>
<text text-anchor="start" x="333.5" y="-67.5" font-family="Helvetica,sans-Serif" font-size="10.00">payments::PaymentACK</text>
<text text-anchor="middle" x="388" y="-56.5" font-family="Helvetica,sans-Serif" font-size="10.00">::has_memo</text>
</a>
</g>
</g>
<!-- Node2&#45;&gt;Node4 -->
<g id="edge3" class="edge"><title>Node2&#45;&gt;Node4</title>
<path fill="none" stroke="midnightblue" d="M286.398,-64.5C295.751,-64.5 305.468,-64.5 315.011,-64.5"/>
<polygon fill="midnightblue" stroke="midnightblue" points="315.274,-68.0001 325.274,-64.5 315.274,-61.0001 315.274,-68.0001"/>
</g>
<!-- Node5 -->
<g id="node5" class="node"><title>Node5</title>
<g id="a_node5"><a xlink:href="classpayments_1_1_payment_a_c_k.html#ae2fba17353e658122edfb3dc2a2877a6" target="_top" xlink:title="payments::PaymentACK\l::mutable_unknown_fields">
<polygon fill="white" stroke="black" points="322,-0.5 322,-30.5 454,-30.5 454,-0.5 322,-0.5"/>
<text text-anchor="start" x="330" y="-18.5" font-family="Helvetica,sans-Serif" font-size="10.00">payments::PaymentACK</text>
<text text-anchor="middle" x="388" y="-7.5" font-family="Helvetica,sans-Serif" font-size="10.00">::mutable_unknown_fields</text>
</a>
</g>
</g>
<!-- Node2&#45;&gt;Node5 -->
<g id="edge4" class="edge"><title>Node2&#45;&gt;Node5</title>
<path fill="none" stroke="midnightblue" d="M274.581,-49.3986C291.186,-44.3917 309.837,-38.7676 327.104,-33.561"/>
<polygon fill="midnightblue" stroke="midnightblue" points="328.52,-36.7896 337.084,-30.5516 326.499,-30.0877 328.52,-36.7896"/>
</g>
</g>
</svg>
