<?xml version="1.0" encoding="UTF-8" standalone="no"?>
<!DOCTYPE svg PUBLIC "-//W3C//DTD SVG 1.1//EN"
 "http://www.w3.org/Graphics/SVG/1.1/DTD/svg11.dtd">
<!-- Generated by graphviz version 2.38.0 (20140413.2041)
 -->
<!-- Title: ClientModel::getTotalBytesRecv Pages: 1 -->
<svg width="1196pt" height="233pt"
 viewBox="0.00 0.00 1196.00 232.50" xmlns="http://www.w3.org/2000/svg" xmlns:xlink="http://www.w3.org/1999/xlink">
<g id="graph0" class="graph" transform="scale(1 1) rotate(0) translate(4 228.5)">
<title>ClientModel::getTotalBytesRecv</title>
<polygon fill="white" stroke="none" points="-4,4 -4,-228.5 1192,-228.5 1192,4 -4,4"/>
<!-- Node1 -->
<g id="node1" class="node"><title>Node1</title>
<polygon fill="#bfbfbf" stroke="black" points="0,-123 0,-142 159,-142 159,-123 0,-123"/>
<text text-anchor="middle" x="79.5" y="-130" font-family="Helvetica,sans-Serif" font-size="10.00">ClientModel::getTotalBytesRecv</text>
</g>
<!-- Node2 -->
<g id="node2" class="node"><title>Node2</title>
<g id="a_node2"><a xlink:href="class_client_model.html#a82d434ebd032c00736e043ce2d36ac5e" target="_top" xlink:title="From: https://qt&#45;project.org/doc/qt&#45;5&#45;snapshot/signalsandslots.html A slot is a function that is call...">
<polygon fill="white" stroke="black" points="195,-205 195,-224 326,-224 326,-205 195,-205"/>
<text text-anchor="middle" x="260.5" y="-212" font-family="Helvetica,sans-Serif" font-size="10.00">ClientModel::updateTimer</text>
</a>
</g>
</g>
<!-- Node1&#45;&gt;Node2 -->
<g id="edge1" class="edge"><title>Node1&#45;&gt;Node2</title>
<path fill="none" stroke="midnightblue" d="M107.157,-147.081C130.105,-159.372 164.277,-177.054 195,-190.5 206.821,-195.674 220.148,-200.754 231.606,-204.898"/>
<polygon fill="midnightblue" stroke="midnightblue" points="108.515,-143.838 98.0521,-142.172 105.193,-149.999 108.515,-143.838"/>
</g>
<!-- Node4 -->
<g id="node4" class="node"><title>Node4</title>
<g id="a_node4"><a xlink:href="class_r_p_c_console.html#a355349a33664a07628e9ca22a60f5fa7" target="_top" xlink:title="RPCConsole::setClientModel">
<polygon fill="white" stroke="black" points="362,-133 362,-152 508,-152 508,-133 362,-133"/>
<text text-anchor="middle" x="435" y="-140" font-family="Helvetica,sans-Serif" font-size="10.00">RPCConsole::setClientModel</text>
</a>
</g>
</g>
<!-- Node1&#45;&gt;Node4 -->
<g id="edge3" class="edge"><title>Node1&#45;&gt;Node4</title>
<path fill="none" stroke="midnightblue" d="M124.715,-144.479C145.818,-149.596 171.531,-154.968 195,-157.5 252.886,-163.746 267.916,-161.514 326,-157.5 342.335,-156.371 359.962,-154.292 376.142,-152.035"/>
<polygon fill="midnightblue" stroke="midnightblue" points="125.304,-141.019 114.755,-142.001 123.614,-147.812 125.304,-141.019"/>
</g>
<!-- Node11 -->
<g id="node11" class="node"><title>Node11</title>
<g id="a_node11"><a xlink:href="class_traffic_graph_widget.html#a8f627aaf6171695d94a0e83b239fe1ac" target="_top" xlink:title="TrafficGraphWidget\l::setClientModel">
<polygon fill="white" stroke="black" points="209,-117.5 209,-147.5 312,-147.5 312,-117.5 209,-117.5"/>
<text text-anchor="start" x="217" y="-135.5" font-family="Helvetica,sans-Serif" font-size="10.00">TrafficGraphWidget</text>
<text text-anchor="middle" x="260.5" y="-124.5" font-family="Helvetica,sans-Serif" font-size="10.00">::setClientModel</text>
</a>
</g>
</g>
<!-- Node1&#45;&gt;Node11 -->
<g id="edge10" class="edge"><title>Node1&#45;&gt;Node11</title>
<path fill="none" stroke="midnightblue" d="M169.361,-132.5C182.926,-132.5 196.51,-132.5 208.868,-132.5"/>
<polygon fill="midnightblue" stroke="midnightblue" points="169.012,-129 159.012,-132.5 169.012,-136 169.012,-129"/>
</g>
<!-- Node12 -->
<g id="node12" class="node"><title>Node12</title>
<g id="a_node12"><a xlink:href="class_traffic_graph_widget.html#a5a1ae0d0a8cc43c67386de4aa1111340" target="_top" xlink:title="TrafficGraphWidget\l::updateRates">
<polygon fill="white" stroke="black" points="209,-68.5 209,-98.5 312,-98.5 312,-68.5 209,-68.5"/>
<text text-anchor="start" x="217" y="-86.5" font-family="Helvetica,sans-Serif" font-size="10.00">TrafficGraphWidget</text>
<text text-anchor="middle" x="260.5" y="-75.5" font-family="Helvetica,sans-Serif" font-size="10.00">::updateRates</text>
</a>
</g>
</g>
<!-- Node1&#45;&gt;Node12 -->
<g id="edge12" class="edge"><title>Node1&#45;&gt;Node12</title>
<path fill="none" stroke="midnightblue" d="M125.172,-120.271C150.548,-113.325 182.404,-104.604 208.725,-97.3994"/>
<polygon fill="midnightblue" stroke="midnightblue" points="124.159,-116.92 115.438,-122.936 126.007,-123.671 124.159,-116.92"/>
</g>
<!-- Node14 -->
<g id="node14" class="node"><title>Node14</title>
<g id="a_node14"><a xlink:href="class_traffic_graph_widget.html#a71c23db2649ab8781fa9a294e540b7ee" target="_top" xlink:title="TrafficGraphWidget\l::clear">
<polygon fill="white" stroke="black" points="209,-19.5 209,-49.5 312,-49.5 312,-19.5 209,-19.5"/>
<text text-anchor="start" x="217" y="-37.5" font-family="Helvetica,sans-Serif" font-size="10.00">TrafficGraphWidget</text>
<text text-anchor="middle" x="260.5" y="-26.5" font-family="Helvetica,sans-Serif" font-size="10.00">::clear</text>
</a>
</g>
</g>
<!-- Node1&#45;&gt;Node14 -->
<g id="edge14" class="edge"><title>Node1&#45;&gt;Node14</title>
<path fill="none" stroke="midnightblue" d="M101.433,-116.98C123.781,-100.895 160.635,-75.7401 195,-58.5 201.408,-55.2854 208.355,-52.2593 215.237,-49.5099"/>
<polygon fill="midnightblue" stroke="midnightblue" points="99.368,-114.154 93.3393,-122.866 103.485,-119.815 99.368,-114.154"/>
</g>
<!-- Node3 -->
<g id="node3" class="node"><title>Node3</title>
<g id="a_node3"><a xlink:href="class_client_model.html#aec1d32d5dc8c094eba66036a19a22854" target="_top" xlink:title="ClientModel::ClientModel">
<polygon fill="white" stroke="black" points="371,-205 371,-224 499,-224 499,-205 371,-205"/>
<text text-anchor="middle" x="435" y="-212" font-family="Helvetica,sans-Serif" font-size="10.00">ClientModel::ClientModel</text>
</a>
</g>
</g>
<!-- Node2&#45;&gt;Node3 -->
<g id="edge2" class="edge"><title>Node2&#45;&gt;Node3</title>
<path fill="none" stroke="midnightblue" d="M336.28,-214.5C347.829,-214.5 359.658,-214.5 370.918,-214.5"/>
<polygon fill="midnightblue" stroke="midnightblue" points="336.223,-211 326.223,-214.5 336.223,-218 336.223,-211"/>
</g>
<!-- Node5 -->
<g id="node5" class="node"><title>Node5</title>
<g id="a_node5"><a xlink:href="class_anoncoin_g_u_i.html#ab6dbbc9dae6aee55656d615c1aff5399" target="_top" xlink:title="Set the client model. ">
<polygon fill="white" stroke="black" points="544.5,-133 544.5,-152 692.5,-152 692.5,-133 544.5,-133"/>
<text text-anchor="middle" x="618.5" y="-140" font-family="Helvetica,sans-Serif" font-size="10.00">AnoncoinGUI::setClientModel</text>
</a>
</g>
</g>
<!-- Node4&#45;&gt;Node5 -->
<g id="edge4" class="edge"><title>Node4&#45;&gt;Node5</title>
<path fill="none" stroke="midnightblue" d="M518.35,-142.5C527.005,-142.5 535.764,-142.5 544.306,-142.5"/>
<polygon fill="midnightblue" stroke="midnightblue" points="518.255,-139 508.255,-142.5 518.255,-146 518.255,-139"/>
</g>
<!-- Node6 -->
<g id="node6" class="node"><title>Node6</title>
<g id="a_node6"><a xlink:href="class_anoncoin_application.html#a931ed67447cc07f1e0f32327b122af01" target="_top" xlink:title="Request core shutdown. ">
<polygon fill="white" stroke="black" points="759,-156.5 759,-186.5 866,-186.5 866,-156.5 759,-156.5"/>
<text text-anchor="start" x="767" y="-174.5" font-family="Helvetica,sans-Serif" font-size="10.00">AnoncoinApplication</text>
<text text-anchor="middle" x="812.5" y="-163.5" font-family="Helvetica,sans-Serif" font-size="10.00">::requestShutdown</text>
</a>
</g>
</g>
<!-- Node5&#45;&gt;Node6 -->
<g id="edge5" class="edge"><title>Node5&#45;&gt;Node6</title>
<path fill="none" stroke="midnightblue" d="M692.632,-153.546C714.695,-156.878 738.469,-160.469 758.915,-163.557"/>
<polygon fill="midnightblue" stroke="midnightblue" points="693.045,-150.069 682.634,-152.036 691.999,-156.99 693.045,-150.069"/>
</g>
<!-- Node8 -->
<g id="node8" class="node"><title>Node8</title>
<g id="a_node8"><a xlink:href="class_anoncoin_application.html#a565d432edd9d4fc30ce60bfd8d5699e3" target="_top" xlink:title="AnoncoinApplication\l::initializeResult">
<polygon fill="white" stroke="black" points="759,-107.5 759,-137.5 866,-137.5 866,-107.5 759,-107.5"/>
<text text-anchor="start" x="767" y="-125.5" font-family="Helvetica,sans-Serif" font-size="10.00">AnoncoinApplication</text>
<text text-anchor="middle" x="812.5" y="-114.5" font-family="Helvetica,sans-Serif" font-size="10.00">::initializeResult</text>
</a>
</g>
</g>
<!-- Node5&#45;&gt;Node8 -->
<g id="edge7" class="edge"><title>Node5&#45;&gt;Node8</title>
<path fill="none" stroke="midnightblue" d="M702.81,-133.822C721.837,-131.84 741.541,-129.787 758.861,-127.983"/>
<polygon fill="midnightblue" stroke="midnightblue" points="702.218,-130.364 692.635,-134.882 702.944,-137.327 702.218,-130.364"/>
</g>
<!-- Node7 -->
<g id="node7" class="node"><title>Node7</title>
<g id="a_node7"><a xlink:href="anoncoin_8cpp.html#a0ddf1224851353fc92bfbff6f499fa97" target="_top" xlink:title="main">
<polygon fill="white" stroke="black" points="966.5,-162 966.5,-181 1004.5,-181 1004.5,-162 966.5,-162"/>
<text text-anchor="middle" x="985.5" y="-169" font-family="Helvetica,sans-Serif" font-size="10.00">main</text>
</a>
</g>
</g>
<!-- Node6&#45;&gt;Node7 -->
<g id="edge6" class="edge"><title>Node6&#45;&gt;Node7</title>
<path fill="none" stroke="midnightblue" d="M876.416,-171.5C908.449,-171.5 945.039,-171.5 966.375,-171.5"/>
<polygon fill="midnightblue" stroke="midnightblue" points="876.201,-168 866.201,-171.5 876.201,-175 876.201,-168"/>
</g>
<!-- Node9 -->
<g id="node9" class="node"><title>Node9</title>
<g id="a_node9"><a xlink:href="class_anoncoin_application.html#a757849a7d52cb0559592ba4194f4872c" target="_top" xlink:title="AnoncoinApplication\l::startThread">
<polygon fill="white" stroke="black" points="932,-107.5 932,-137.5 1039,-137.5 1039,-107.5 932,-107.5"/>
<text text-anchor="start" x="940" y="-125.5" font-family="Helvetica,sans-Serif" font-size="10.00">AnoncoinApplication</text>
<text text-anchor="middle" x="985.5" y="-114.5" font-family="Helvetica,sans-Serif" font-size="10.00">::startThread</text>
</a>
</g>
</g>
<!-- Node8&#45;&gt;Node9 -->
<g id="edge8" class="edge"><title>Node8&#45;&gt;Node9</title>
<path fill="none" stroke="midnightblue" d="M876.201,-122.5C894.523,-122.5 914.351,-122.5 931.973,-122.5"/>
<polygon fill="midnightblue" stroke="midnightblue" points="876.201,-119 866.201,-122.5 876.201,-126 876.201,-119"/>
</g>
<!-- Node10 -->
<g id="node10" class="node"><title>Node10</title>
<g id="a_node10"><a xlink:href="class_anoncoin_application.html#a4e345b36dac09420eac7edc10fa4ffcf" target="_top" xlink:title="AnoncoinApplication\l::AnoncoinApplication">
<polygon fill="white" stroke="black" points="1075,-107.5 1075,-137.5 1188,-137.5 1188,-107.5 1075,-107.5"/>
<text text-anchor="start" x="1083" y="-125.5" font-family="Helvetica,sans-Serif" font-size="10.00">AnoncoinApplication</text>
<text text-anchor="middle" x="1131.5" y="-114.5" font-family="Helvetica,sans-Serif" font-size="10.00">::AnoncoinApplication</text>
</a>
</g>
</g>
<!-- Node9&#45;&gt;Node10 -->
<g id="edge9" class="edge"><title>Node9&#45;&gt;Node10</title>
<path fill="none" stroke="midnightblue" d="M1049.47,-122.5C1057.9,-122.5 1066.5,-122.5 1074.8,-122.5"/>
<polygon fill="midnightblue" stroke="midnightblue" points="1049.3,-119 1039.3,-122.5 1049.3,-126 1049.3,-119"/>
</g>
<!-- Node11&#45;&gt;Node4 -->
<g id="edge11" class="edge"><title>Node11&#45;&gt;Node4</title>
<path fill="none" stroke="midnightblue" d="M322.356,-136.028C335.115,-136.768 348.687,-137.554 361.813,-138.315"/>
<polygon fill="midnightblue" stroke="midnightblue" points="322.509,-132.531 312.323,-135.446 322.103,-139.519 322.509,-132.531"/>
</g>
<!-- Node13 -->
<g id="node13" class="node"><title>Node13</title>
<g id="a_node13"><a xlink:href="class_traffic_graph_widget.html#a99f4f3f14bab99bef8918cb4f5f69aa6" target="_top" xlink:title="TrafficGraphWidget\l::TrafficGraphWidget">
<polygon fill="white" stroke="black" points="380.5,-68.5 380.5,-98.5 489.5,-98.5 489.5,-68.5 380.5,-68.5"/>
<text text-anchor="start" x="388.5" y="-86.5" font-family="Helvetica,sans-Serif" font-size="10.00">TrafficGraphWidget</text>
<text text-anchor="middle" x="435" y="-75.5" font-family="Helvetica,sans-Serif" font-size="10.00">::TrafficGraphWidget</text>
</a>
</g>
</g>
<!-- Node12&#45;&gt;Node13 -->
<g id="edge13" class="edge"><title>Node12&#45;&gt;Node13</title>
<path fill="none" stroke="midnightblue" d="M322.57,-83.5C341.386,-83.5 361.954,-83.5 380.24,-83.5"/>
<polygon fill="midnightblue" stroke="midnightblue" points="322.323,-80.0001 312.323,-83.5 322.323,-87.0001 322.323,-80.0001"/>
</g>
<!-- Node15 -->
<g id="node15" class="node"><title>Node15</title>
<g id="a_node15"><a xlink:href="class_traffic_graph_widget.html#aa08cb5ae735e58a79bdff42b933ec4c4" target="_top" xlink:title="TrafficGraphWidget\l::setGraphRangeMins">
<polygon fill="white" stroke="black" points="378,-19.5 378,-49.5 492,-49.5 492,-19.5 378,-19.5"/>
<text text-anchor="start" x="386" y="-37.5" font-family="Helvetica,sans-Serif" font-size="10.00">TrafficGraphWidget</text>
<text text-anchor="middle" x="435" y="-26.5" font-family="Helvetica,sans-Serif" font-size="10.00">::setGraphRangeMins</text>
</a>
</g>
</g>
<!-- Node14&#45;&gt;Node15 -->
<g id="edge15" class="edge"><title>Node14&#45;&gt;Node15</title>
<path fill="none" stroke="midnightblue" d="M322.433,-34.5C340.456,-34.5 360.098,-34.5 377.808,-34.5"/>
<polygon fill="midnightblue" stroke="midnightblue" points="322.323,-31.0001 312.323,-34.5 322.323,-38.0001 322.323,-31.0001"/>
</g>
<!-- Node16 -->
<g id="node16" class="node"><title>Node16</title>
<g id="a_node16"><a xlink:href="class_r_p_c_console.html#a465807980e78650ce2238a298bab4400" target="_top" xlink:title="RPCConsole::setTrafficGraph\lRange">
<polygon fill="white" stroke="black" points="544,-19.5 544,-49.5 693,-49.5 693,-19.5 544,-19.5"/>
<text text-anchor="start" x="552" y="-37.5" font-family="Helvetica,sans-Serif" font-size="10.00">RPCConsole::setTrafficGraph</text>
<text text-anchor="middle" x="618.5" y="-26.5" font-family="Helvetica,sans-Serif" font-size="10.00">Range</text>
</a>
</g>
</g>
<!-- Node15&#45;&gt;Node16 -->
<g id="edge16" class="edge"><title>Node15&#45;&gt;Node16</title>
<path fill="none" stroke="midnightblue" d="M502.516,-34.5C515.925,-34.5 530.095,-34.5 543.734,-34.5"/>
<polygon fill="midnightblue" stroke="midnightblue" points="502.433,-31.0001 492.433,-34.5 502.433,-38.0001 502.433,-31.0001"/>
</g>
<!-- Node17 -->
<g id="node17" class="node"><title>Node17</title>
<g id="a_node17"><a xlink:href="class_r_p_c_console.html#aeac546e68f8c2cafa79a0294dd78f2ad" target="_top" xlink:title="RPCConsole::RPCConsole">
<polygon fill="white" stroke="black" points="743.5,-50 743.5,-69 881.5,-69 881.5,-50 743.5,-50"/>
<text text-anchor="middle" x="812.5" y="-57" font-family="Helvetica,sans-Serif" font-size="10.00">RPCConsole::RPCConsole</text>
</a>
</g>
</g>
<!-- Node16&#45;&gt;Node17 -->
<g id="edge17" class="edge"><title>Node16&#45;&gt;Node17</title>
<path fill="none" stroke="midnightblue" d="M703.334,-45.4159C716.712,-47.1579 730.411,-48.9416 743.369,-50.6288"/>
<polygon fill="midnightblue" stroke="midnightblue" points="703.551,-41.9147 693.183,-44.0942 702.647,-48.8561 703.551,-41.9147"/>
</g>
<!-- Node18 -->
<g id="node18" class="node"><title>Node18</title>
<g id="a_node18"><a xlink:href="class_r_p_c_console.html#a9eab099b48f3135fb4a98591fd48e88b" target="_top" xlink:title="change the time range of the network traffic graph ">
<polygon fill="white" stroke="black" points="729,-0.5 729,-30.5 896,-30.5 896,-0.5 729,-0.5"/>
<text text-anchor="start" x="737" y="-18.5" font-family="Helvetica,sans-Serif" font-size="10.00">RPCConsole::on_sldGraphRange</text>
<text text-anchor="middle" x="812.5" y="-7.5" font-family="Helvetica,sans-Serif" font-size="10.00">_valueChanged</text>
</a>
</g>
</g>
<!-- Node16&#45;&gt;Node18 -->
<g id="edge18" class="edge"><title>Node16&#45;&gt;Node18</title>
<path fill="none" stroke="midnightblue" d="M703.369,-26.2005C711.786,-25.3676 720.329,-24.5221 728.734,-23.6904"/>
<polygon fill="midnightblue" stroke="midnightblue" points="702.79,-22.7406 693.183,-27.2084 703.479,-29.7066 702.79,-22.7406"/>
</g>
</g>
</svg>
