<?xml version="1.0" encoding="UTF-8" standalone="no"?>
<!DOCTYPE svg PUBLIC "-//W3C//DTD SVG 1.1//EN"
 "http://www.w3.org/Graphics/SVG/1.1/DTD/svg11.dtd">
<!-- Generated by graphviz version 2.38.0 (20140413.2041)
 -->
<!-- Title: TransactionView::copyAddress Pages: 1 -->
<svg width="464pt" height="28pt"
 viewBox="0.00 0.00 464.00 28.00" xmlns="http://www.w3.org/2000/svg" xmlns:xlink="http://www.w3.org/1999/xlink">
<g id="graph0" class="graph" transform="scale(1 1) rotate(0) translate(4 24)">
<title>TransactionView::copyAddress</title>
<polygon fill="white" stroke="none" points="-4,4 -4,-24 460,-24 460,4 -4,4"/>
<!-- Node1 -->
<g id="node1" class="node"><title>Node1</title>
<polygon fill="#bfbfbf" stroke="black" points="0,-0.5 0,-19.5 154,-19.5 154,-0.5 0,-0.5"/>
<text text-anchor="middle" x="77" y="-7.5" font-family="Helvetica,sans-Serif" font-size="10.00">TransactionView::copyAddress</text>
</g>
<!-- Node2 -->
<g id="node2" class="node"><title>Node2</title>
<g id="a_node2"><a xlink:href="namespace_g_u_i_util.html#ae231227ad96528c828e1c846f253f642" target="_top" xlink:title="Copy a field of the currently selected entry of a view to the clipboard. ">
<polygon fill="white" stroke="black" points="190,-0.5 190,-19.5 310,-19.5 310,-0.5 190,-0.5"/>
<text text-anchor="middle" x="250" y="-7.5" font-family="Helvetica,sans-Serif" font-size="10.00">GUIUtil::copyEntryData</text>
</a>
</g>
</g>
<!-- Node1&#45;&gt;Node2 -->
<g id="edge1" class="edge"><title>Node1&#45;&gt;Node2</title>
<path fill="none" stroke="midnightblue" d="M154.497,-10C162.906,-10 171.431,-10 179.744,-10"/>
<polygon fill="midnightblue" stroke="midnightblue" points="179.757,-13.5001 189.757,-10 179.757,-6.5001 179.757,-13.5001"/>
</g>
<!-- Node3 -->
<g id="node3" class="node"><title>Node3</title>
<g id="a_node3"><a xlink:href="namespace_g_u_i_util.html#aef655b19f129179ca32f11a4d0da1a07" target="_top" xlink:title="GUIUtil::setClipboard">
<polygon fill="white" stroke="black" points="346,-0.5 346,-19.5 456,-19.5 456,-0.5 346,-0.5"/>
<text text-anchor="middle" x="401" y="-7.5" font-family="Helvetica,sans-Serif" font-size="10.00">GUIUtil::setClipboard</text>
</a>
</g>
</g>
<!-- Node2&#45;&gt;Node3 -->
<g id="edge2" class="edge"><title>Node2&#45;&gt;Node3</title>
<path fill="none" stroke="midnightblue" d="M310.317,-10C318.625,-10 327.196,-10 335.593,-10"/>
<polygon fill="midnightblue" stroke="midnightblue" points="335.72,-13.5001 345.72,-10 335.72,-6.5001 335.72,-13.5001"/>
</g>
</g>
</svg>
