<?xml version="1.0" encoding="UTF-8" standalone="no"?>
<!DOCTYPE svg PUBLIC "-//W3C//DTD SVG 1.1//EN"
 "http://www.w3.org/Graphics/SVG/1.1/DTD/svg11.dtd">
<!-- Generated by graphviz version 2.38.0 (20140413.2041)
 -->
<!-- Title: libzerocoin::SerialNumberSignatureOfKnowledge Pages: 1 -->
<svg width="139pt" height="163pt"
 viewBox="0.00 0.00 139.00 163.00" xmlns="http://www.w3.org/2000/svg" xmlns:xlink="http://www.w3.org/1999/xlink">
<g id="graph0" class="graph" transform="scale(1 1) rotate(0) translate(4 159)">
<title>libzerocoin::SerialNumberSignatureOfKnowledge</title>
<polygon fill="white" stroke="none" points="-4,4 -4,-159 135,-159 135,4 -4,4"/>
<!-- Node1 -->
<g id="node1" class="node"><title>Node1</title>
<polygon fill="#bfbfbf" stroke="black" points="0,-0.5 0,-30.5 131,-30.5 131,-0.5 0,-0.5"/>
<text text-anchor="start" x="8" y="-18.5" font-family="Helvetica,sans-Serif" font-size="10.00">libzerocoin::SerialNumber</text>
<text text-anchor="middle" x="65.5" y="-7.5" font-family="Helvetica,sans-Serif" font-size="10.00">SignatureOfKnowledge</text>
</g>
<!-- Node2 -->
<g id="node2" class="node"><title>Node2</title>
<g id="a_node2"><a xlink:href="classuint256.html" target="_top" xlink:title="256&#45;bit unsigned integer ">
<polygon fill="white" stroke="black" points="41,-78.5 41,-97.5 90,-97.5 90,-78.5 41,-78.5"/>
<text text-anchor="middle" x="65.5" y="-85.5" font-family="Helvetica,sans-Serif" font-size="10.00">uint256</text>
</a>
</g>
</g>
<!-- Node2&#45;&gt;Node1 -->
<g id="edge1" class="edge"><title>Node2&#45;&gt;Node1</title>
<path fill="none" stroke="#9a32cd" stroke-dasharray="5,2" d="M65.5,-68.2362C65.5,-56.4079 65.5,-41.3829 65.5,-30.5762"/>
<polygon fill="#9a32cd" stroke="#9a32cd" points="62.0001,-68.3553 65.5,-78.3553 69.0001,-68.3554 62.0001,-68.3553"/>
<text text-anchor="middle" x="78" y="-52" font-family="Helvetica,sans-Serif" font-size="10.00"> hash</text>
</g>
<!-- Node3 -->
<g id="node3" class="node"><title>Node3</title>
<g id="a_node3"><a xlink:href="classbase__uint.html" target="_top" xlink:title="Base class without constructors for uint256 and uint160. ">
<polygon fill="white" stroke="black" points="27,-135.5 27,-154.5 104,-154.5 104,-135.5 27,-135.5"/>
<text text-anchor="middle" x="65.5" y="-142.5" font-family="Helvetica,sans-Serif" font-size="10.00">base_uint256</text>
</a>
</g>
</g>
<!-- Node3&#45;&gt;Node2 -->
<g id="edge2" class="edge"><title>Node3&#45;&gt;Node2</title>
<path fill="none" stroke="midnightblue" d="M65.5,-125.117C65.5,-115.817 65.5,-105.056 65.5,-97.7149"/>
<polygon fill="midnightblue" stroke="midnightblue" points="62.0001,-125.406 65.5,-135.406 69.0001,-125.406 62.0001,-125.406"/>
</g>
</g>
</svg>
