<?xml version="1.0" encoding="UTF-8" standalone="no"?>
<!DOCTYPE svg PUBLIC "-//W3C//DTD SVG 1.1//EN"
 "http://www.w3.org/Graphics/SVG/1.1/DTD/svg11.dtd">
<!-- Generated by graphviz version 2.38.0 (20140413.2041)
 -->
<!-- Title: AnoncoinApplication::requestShutdown Pages: 1 -->
<svg width="1114pt" height="1198pt"
 viewBox="0.00 0.00 1114.00 1198.00" xmlns="http://www.w3.org/2000/svg" xmlns:xlink="http://www.w3.org/1999/xlink">
<g id="graph0" class="graph" transform="scale(1 1) rotate(0) translate(4 1194)">
<title>AnoncoinApplication::requestShutdown</title>
<polygon fill="white" stroke="none" points="-4,4 -4,-1194 1110,-1194 1110,4 -4,4"/>
<!-- Node1 -->
<g id="node1" class="node"><title>Node1</title>
<polygon fill="#bfbfbf" stroke="black" points="0,-609.5 0,-639.5 107,-639.5 107,-609.5 0,-609.5"/>
<text text-anchor="start" x="8" y="-627.5" font-family="Helvetica,sans-Serif" font-size="10.00">AnoncoinApplication</text>
<text text-anchor="middle" x="53.5" y="-616.5" font-family="Helvetica,sans-Serif" font-size="10.00">::requestShutdown</text>
</g>
<!-- Node2 -->
<g id="node2" class="node"><title>Node2</title>
<g id="a_node2"><a xlink:href="class_anoncoin_g_u_i.html#ab6dbbc9dae6aee55656d615c1aff5399" target="_top" xlink:title="Set the client model. ">
<polygon fill="white" stroke="black" points="154,-637 154,-656 302,-656 302,-637 154,-637"/>
<text text-anchor="middle" x="228" y="-644" font-family="Helvetica,sans-Serif" font-size="10.00">AnoncoinGUI::setClientModel</text>
</a>
</g>
</g>
<!-- Node1&#45;&gt;Node2 -->
<g id="edge1" class="edge"><title>Node1&#45;&gt;Node2</title>
<path fill="none" stroke="midnightblue" d="M107.193,-631.22C118.842,-632.706 131.458,-634.315 143.984,-635.912"/>
<polygon fill="midnightblue" stroke="midnightblue" points="143.627,-639.395 153.989,-637.188 144.512,-632.451 143.627,-639.395"/>
</g>
<!-- Node50 -->
<g id="node50" class="node"><title>Node50</title>
<g id="a_node50"><a xlink:href="class_shutdown_window.html#a7b4d793b7e171087481bcd3384e754c3" target="_top" xlink:title="&quot;Shutdown&quot; window ">
<polygon fill="white" stroke="black" points="143,-587.5 143,-617.5 313,-617.5 313,-587.5 143,-587.5"/>
<text text-anchor="start" x="151" y="-605.5" font-family="Helvetica,sans-Serif" font-size="10.00">ShutdownWindow::showShutdown</text>
<text text-anchor="middle" x="228" y="-594.5" font-family="Helvetica,sans-Serif" font-size="10.00">Window</text>
</a>
</g>
</g>
<!-- Node1&#45;&gt;Node50 -->
<g id="edge62" class="edge"><title>Node1&#45;&gt;Node50</title>
<path fill="none" stroke="midnightblue" d="M107.193,-617.78C115.4,-616.733 124.086,-615.625 132.883,-614.503"/>
<polygon fill="midnightblue" stroke="midnightblue" points="133.366,-617.97 142.842,-613.233 132.48,-611.026 133.366,-617.97"/>
</g>
<!-- Node3 -->
<g id="node3" class="node"><title>Node3</title>
<g id="a_node3"><a xlink:href="class_anoncoin_g_u_i.html#a8e42c1b5f78aeab21118e07265874abe" target="_top" xlink:title="Create system tray menu (or setup the dock menu) ">
<polygon fill="white" stroke="black" points="349,-1083 349,-1102 522,-1102 522,-1083 349,-1083"/>
<text text-anchor="middle" x="435.5" y="-1090" font-family="Helvetica,sans-Serif" font-size="10.00">AnoncoinGUI::createTrayIconMenu</text>
</a>
</g>
</g>
<!-- Node2&#45;&gt;Node3 -->
<g id="edge2" class="edge"><title>Node2&#45;&gt;Node3</title>
<path fill="none" stroke="midnightblue" d="M230.337,-656.011C236.849,-699.88 268.277,-885.927 349,-1012.5 365.683,-1038.66 392.864,-1062.06 412.095,-1076.7"/>
<polygon fill="midnightblue" stroke="midnightblue" points="410.188,-1079.64 420.306,-1082.78 414.356,-1074.02 410.188,-1079.64"/>
</g>
<!-- Node9 -->
<g id="node9" class="node"><title>Node9</title>
<g id="a_node9"><a xlink:href="class_anoncoin_g_u_i.html#a6966c734e76c020c4b9df350854e726f" target="_top" xlink:title="Set number of connections shown in the UI. ">
<polygon fill="white" stroke="black" points="349.5,-984 349.5,-1003 521.5,-1003 521.5,-984 349.5,-984"/>
<text text-anchor="middle" x="435.5" y="-991" font-family="Helvetica,sans-Serif" font-size="10.00">AnoncoinGUI::setNumConnections</text>
</a>
</g>
</g>
<!-- Node2&#45;&gt;Node9 -->
<g id="edge9" class="edge"><title>Node2&#45;&gt;Node9</title>
<path fill="none" stroke="midnightblue" d="M229.536,-656.123C232.485,-699.507 250.441,-878.714 349,-969.5 353.359,-973.515 358.336,-976.865 363.648,-979.66"/>
<polygon fill="midnightblue" stroke="midnightblue" points="362.302,-982.893 372.853,-983.858 365.207,-976.524 362.302,-982.893"/>
</g>
<!-- Node10 -->
<g id="node10" class="node"><title>Node10</title>
<g id="a_node10"><a xlink:href="class_client_model.html#ab893445b458943e3112770b026195067" target="_top" xlink:title="Return number of connections, default is in&#45; and outbound (total) ">
<polygon fill="white" stroke="black" points="764,-813 764,-832 929,-832 929,-813 764,-813"/>
<text text-anchor="middle" x="846.5" y="-820" font-family="Helvetica,sans-Serif" font-size="10.00">ClientModel::getNumConnections</text>
</a>
</g>
</g>
<!-- Node2&#45;&gt;Node10 -->
<g id="edge10" class="edge"><title>Node2&#45;&gt;Node10</title>
<path fill="none" stroke="midnightblue" d="M230.606,-656.165C237.323,-693.36 266.743,-828.367 349,-892.5 415.866,-944.634 657.605,-983.76 728,-936.5 763.084,-912.946 732.956,-877.169 764,-848.5 769.476,-843.443 775.937,-839.37 782.787,-836.088"/>
<polygon fill="midnightblue" stroke="midnightblue" points="784.448,-839.187 792.312,-832.087 781.737,-832.733 784.448,-839.187"/>
</g>
<!-- Node11 -->
<g id="node11" class="node"><title>Node11</title>
<g id="a_node11"><a xlink:href="class_anoncoin_g_u_i.html#a65993507b442bd334614ea6eb46dec91" target="_top" xlink:title="Set number of blocks shown in the UI. ">
<polygon fill="white" stroke="black" points="363,-864 363,-883 508,-883 508,-864 363,-864"/>
<text text-anchor="middle" x="435.5" y="-871" font-family="Helvetica,sans-Serif" font-size="10.00">AnoncoinGUI::setNumBlocks</text>
</a>
</g>
</g>
<!-- Node2&#45;&gt;Node11 -->
<g id="edge11" class="edge"><title>Node2&#45;&gt;Node11</title>
<path fill="none" stroke="midnightblue" d="M237.83,-656.254C269.58,-691.325 378.213,-811.324 418.925,-856.296"/>
<polygon fill="midnightblue" stroke="midnightblue" points="416.397,-858.718 425.703,-863.782 421.586,-854.02 416.397,-858.718"/>
</g>
<!-- Node20 -->
<g id="node20" class="node"><title>Node20</title>
<g id="a_node20"><a xlink:href="class_client_model.html#a9c298b0c2eb9c8e9ff18c6ff37725b0a" target="_top" xlink:title="ClientModel::getNumBlocks">
<polygon fill="white" stroke="black" points="573.5,-580 573.5,-599 712.5,-599 712.5,-580 573.5,-580"/>
<text text-anchor="middle" x="643" y="-587" font-family="Helvetica,sans-Serif" font-size="10.00">ClientModel::getNumBlocks</text>
</a>
</g>
</g>
<!-- Node2&#45;&gt;Node20 -->
<g id="edge22" class="edge"><title>Node2&#45;&gt;Node20</title>
<path fill="none" stroke="midnightblue" d="M298.127,-636.959C371.308,-626.859 486.616,-610.945 563.254,-600.368"/>
<polygon fill="midnightblue" stroke="midnightblue" points="563.908,-603.811 573.336,-598.977 562.951,-596.877 563.908,-603.811"/>
</g>
<!-- Node22 -->
<g id="node22" class="node"><title>Node22</title>
<g id="a_node22"><a xlink:href="class_anoncoin_g_u_i.html#acad2df2e1c6e25865af8d8cd2f70960b" target="_top" xlink:title="Notify the user of an event from the core network or transaction handling code. ">
<polygon fill="white" stroke="black" points="374.5,-656 374.5,-675 496.5,-675 496.5,-656 374.5,-656"/>
<text text-anchor="middle" x="435.5" y="-663" font-family="Helvetica,sans-Serif" font-size="10.00">AnoncoinGUI::message</text>
</a>
</g>
</g>
<!-- Node2&#45;&gt;Node22 -->
<g id="edge24" class="edge"><title>Node2&#45;&gt;Node22</title>
<path fill="none" stroke="midnightblue" d="M302.03,-653.252C322.262,-655.123 344.175,-657.149 364.245,-659.004"/>
<polygon fill="midnightblue" stroke="midnightblue" points="363.963,-662.493 374.243,-659.929 364.607,-655.523 363.963,-662.493"/>
</g>
<!-- Node27 -->
<g id="node27" class="node"><title>Node27</title>
<g id="a_node27"><a xlink:href="class_r_p_c_console.html#a355349a33664a07628e9ca22a60f5fa7" target="_top" xlink:title="RPCConsole::setClientModel">
<polygon fill="white" stroke="black" points="362.5,-438 362.5,-457 508.5,-457 508.5,-438 362.5,-438"/>
<text text-anchor="middle" x="435.5" y="-445" font-family="Helvetica,sans-Serif" font-size="10.00">RPCConsole::setClientModel</text>
</a>
</g>
</g>
<!-- Node2&#45;&gt;Node27 -->
<g id="edge29" class="edge"><title>Node2&#45;&gt;Node27</title>
<path fill="none" stroke="midnightblue" d="M292.222,-636.919C299.589,-634.249 306.708,-630.843 313,-626.5 344.05,-605.07 401.19,-507.042 424.351,-465.832"/>
<polygon fill="midnightblue" stroke="midnightblue" points="427.415,-467.523 429.235,-457.086 421.304,-464.11 427.415,-467.523"/>
</g>
<!-- Node45 -->
<g id="node45" class="node"><title>Node45</title>
<g id="a_node45"><a xlink:href="class_wallet_frame.html#a72f3a61b1d882a894c65fbf1adc1a954" target="_top" xlink:title="WalletFrame::setClientModel">
<polygon fill="white" stroke="black" points="363,-400 363,-419 508,-419 508,-400 363,-400"/>
<text text-anchor="middle" x="435.5" y="-407" font-family="Helvetica,sans-Serif" font-size="10.00">WalletFrame::setClientModel</text>
</a>
</g>
</g>
<!-- Node2&#45;&gt;Node45 -->
<g id="edge57" class="edge"><title>Node2&#45;&gt;Node45</title>
<path fill="none" stroke="midnightblue" d="M299.077,-636.899C304.233,-634.159 308.979,-630.744 313,-626.5 374.519,-561.573 286.994,-492.961 349,-428.5 350.627,-426.808 352.369,-425.251 354.206,-423.819"/>
<polygon fill="midnightblue" stroke="midnightblue" points="356.275,-426.651 362.807,-418.309 352.499,-420.757 356.275,-426.651"/>
</g>
<!-- Node46 -->
<g id="node46" class="node"><title>Node46</title>
<g id="a_node46"><a xlink:href="class_unit_display_status_bar_control.html#ac8d2a43f66f3f71c7d6926dbd5927066" target="_top" xlink:title="Lets the control know about the Options Model (and its signals) ">
<polygon fill="white" stroke="black" points="364,-186.5 364,-216.5 507,-216.5 507,-186.5 364,-186.5"/>
<text text-anchor="start" x="372" y="-204.5" font-family="Helvetica,sans-Serif" font-size="10.00">UnitDisplayStatusBarControl</text>
<text text-anchor="middle" x="435.5" y="-193.5" font-family="Helvetica,sans-Serif" font-size="10.00">::setOptionsModel</text>
</a>
</g>
</g>
<!-- Node2&#45;&gt;Node46 -->
<g id="edge58" class="edge"><title>Node2&#45;&gt;Node46</title>
<path fill="none" stroke="midnightblue" d="M299.602,-636.808C304.577,-634.078 309.141,-630.691 313,-626.5 384.873,-548.449 318.853,-492.229 349,-390.5 367.333,-328.638 401.88,-260.797 420.969,-225.643"/>
<polygon fill="midnightblue" stroke="midnightblue" points="424.174,-227.077 425.917,-216.627 418.038,-223.71 424.174,-227.077"/>
</g>
<!-- Node49 -->
<g id="node49" class="node"><title>Node49</title>
<g id="a_node49"><a xlink:href="class_client_model.html#ae8da1e2eabfbbcc49a7eed821908bdb6" target="_top" xlink:title="ClientModel::getOptionsModel">
<polygon fill="white" stroke="black" points="360.5,-148 360.5,-167 510.5,-167 510.5,-148 360.5,-148"/>
<text text-anchor="middle" x="435.5" y="-155" font-family="Helvetica,sans-Serif" font-size="10.00">ClientModel::getOptionsModel</text>
</a>
</g>
</g>
<!-- Node2&#45;&gt;Node49 -->
<g id="edge61" class="edge"><title>Node2&#45;&gt;Node49</title>
<path fill="none" stroke="midnightblue" d="M300.32,-636.88C305.071,-634.124 309.391,-630.712 313,-626.5 378.273,-550.32 283.155,-252.186 349,-176.5 350.029,-175.317 351.114,-174.198 352.249,-173.141"/>
<polygon fill="midnightblue" stroke="midnightblue" points="354.505,-175.824 360.393,-167.016 350.298,-170.229 354.505,-175.824"/>
</g>
<!-- Node4 -->
<g id="node4" class="node"><title>Node4</title>
<g id="a_node4"><a xlink:href="class_anoncoin_g_u_i.html#af7f83198c1e3a09007333a54add093df" target="_top" xlink:title="Handle tray icon clicked. ">
<polygon fill="white" stroke="black" points="564,-1121 564,-1140 722,-1140 722,-1121 564,-1121"/>
<text text-anchor="middle" x="643" y="-1128" font-family="Helvetica,sans-Serif" font-size="10.00">AnoncoinGUI::trayIconActivated</text>
</a>
</g>
</g>
<!-- Node3&#45;&gt;Node4 -->
<g id="edge3" class="edge"><title>Node3&#45;&gt;Node4</title>
<path fill="none" stroke="midnightblue" d="M488.091,-1102.04C516.062,-1107.21 550.824,-1113.64 580.23,-1119.08"/>
<polygon fill="midnightblue" stroke="midnightblue" points="579.918,-1122.58 590.388,-1120.96 581.191,-1115.7 579.918,-1122.58"/>
</g>
<!-- Node5 -->
<g id="node5" class="node"><title>Node5</title>
<g id="a_node5"><a xlink:href="class_mac_dock_icon_handler.html#afd3ef7126d0b6ef02eaf85e5455fe6f4" target="_top" xlink:title="MacDockIconHandler\l::instance">
<polygon fill="white" stroke="black" points="587,-1033.5 587,-1063.5 699,-1063.5 699,-1033.5 587,-1033.5"/>
<text text-anchor="start" x="595" y="-1051.5" font-family="Helvetica,sans-Serif" font-size="10.00">MacDockIconHandler</text>
<text text-anchor="middle" x="643" y="-1040.5" font-family="Helvetica,sans-Serif" font-size="10.00">::instance</text>
</a>
</g>
</g>
<!-- Node3&#45;&gt;Node5 -->
<g id="edge4" class="edge"><title>Node3&#45;&gt;Node5</title>
<path fill="none" stroke="midnightblue" d="M481.09,-1082.95C509.105,-1076.95 545.719,-1069.11 576.942,-1062.43"/>
<polygon fill="midnightblue" stroke="midnightblue" points="577.827,-1065.82 586.873,-1060.3 576.362,-1058.97 577.827,-1065.82"/>
</g>
<!-- Node7 -->
<g id="node7" class="node"><title>Node7</title>
<g id="a_node7"><a xlink:href="class_mac_dock_icon_handler.html#a4d2d18c7d56286ea745e349497941293" target="_top" xlink:title="MacDockIconHandler\l::setMainWindow">
<polygon fill="white" stroke="black" points="979.5,-1055.5 979.5,-1085.5 1091.5,-1085.5 1091.5,-1055.5 979.5,-1055.5"/>
<text text-anchor="start" x="987.5" y="-1073.5" font-family="Helvetica,sans-Serif" font-size="10.00">MacDockIconHandler</text>
<text text-anchor="middle" x="1035.5" y="-1062.5" font-family="Helvetica,sans-Serif" font-size="10.00">::setMainWindow</text>
</a>
</g>
</g>
<!-- Node3&#45;&gt;Node7 -->
<g id="edge7" class="edge"><title>Node3&#45;&gt;Node7</title>
<path fill="none" stroke="midnightblue" d="M522.179,-1089.35C642.943,-1084.91 860.583,-1076.9 969.177,-1072.9"/>
<polygon fill="midnightblue" stroke="midnightblue" points="969.474,-1076.39 979.338,-1072.53 969.217,-1069.4 969.474,-1076.39"/>
</g>
<!-- Node8 -->
<g id="node8" class="node"><title>Node8</title>
<g id="a_node8"><a xlink:href="class_mac_dock_icon_handler.html#a8aff3dc6410687e432f8d9314eba0ab9" target="_top" xlink:title="MacDockIconHandler\l::dockMenu">
<polygon fill="white" stroke="black" points="587,-1159.5 587,-1189.5 699,-1189.5 699,-1159.5 587,-1159.5"/>
<text text-anchor="start" x="595" y="-1177.5" font-family="Helvetica,sans-Serif" font-size="10.00">MacDockIconHandler</text>
<text text-anchor="middle" x="643" y="-1166.5" font-family="Helvetica,sans-Serif" font-size="10.00">::dockMenu</text>
</a>
</g>
</g>
<!-- Node3&#45;&gt;Node8 -->
<g id="edge8" class="edge"><title>Node3&#45;&gt;Node8</title>
<path fill="none" stroke="midnightblue" d="M454.655,-1102.06C478.088,-1114.16 520.332,-1135.15 558,-1149.5 564.21,-1151.87 570.745,-1154.15 577.315,-1156.32"/>
<polygon fill="midnightblue" stroke="midnightblue" points="576.339,-1159.68 586.93,-1159.4 578.475,-1153.01 576.339,-1159.68"/>
</g>
<!-- Node6 -->
<g id="node6" class="node"><title>Node6</title>
<g id="a_node6"><a xlink:href="class_mac_dock_icon_handler.html#ab44913b8dabec96186b74bc6f6896c46" target="_top" xlink:title="MacDockIconHandler\l::MacDockIconHandler">
<polygon fill="white" stroke="red" points="787.5,-1033.5 787.5,-1063.5 905.5,-1063.5 905.5,-1033.5 787.5,-1033.5"/>
<text text-anchor="start" x="795.5" y="-1051.5" font-family="Helvetica,sans-Serif" font-size="10.00">MacDockIconHandler</text>
<text text-anchor="middle" x="846.5" y="-1040.5" font-family="Helvetica,sans-Serif" font-size="10.00">::MacDockIconHandler</text>
</a>
</g>
</g>
<!-- Node5&#45;&gt;Node6 -->
<g id="edge5" class="edge"><title>Node5&#45;&gt;Node6</title>
<path fill="none" stroke="midnightblue" d="M699.061,-1048.5C723.128,-1048.5 751.608,-1048.5 777.025,-1048.5"/>
<polygon fill="midnightblue" stroke="midnightblue" points="777.336,-1052 787.336,-1048.5 777.336,-1045 777.336,-1052"/>
</g>
<!-- Node6&#45;&gt;Node7 -->
<g id="edge6" class="edge"><title>Node6&#45;&gt;Node7</title>
<path fill="none" stroke="midnightblue" d="M905.643,-1055.34C925.821,-1057.71 948.576,-1060.39 969.287,-1062.83"/>
<polygon fill="midnightblue" stroke="midnightblue" points="968.929,-1066.31 979.269,-1064 969.747,-1059.36 968.929,-1066.31"/>
</g>
<!-- Node12 -->
<g id="node12" class="node"><title>Node12</title>
<g id="a_node12"><a xlink:href="class_client_model.html#acd447f61bfd57267a31a0aa88c176ee6" target="_top" xlink:title="Return true if core is importing blocks. ">
<polygon fill="white" stroke="black" points="570.5,-908 570.5,-927 715.5,-927 715.5,-908 570.5,-908"/>
<text text-anchor="middle" x="643" y="-915" font-family="Helvetica,sans-Serif" font-size="10.00">ClientModel::getBlockSource</text>
</a>
</g>
</g>
<!-- Node11&#45;&gt;Node12 -->
<g id="edge12" class="edge"><title>Node11&#45;&gt;Node12</title>
<path fill="none" stroke="midnightblue" d="M481.09,-883.047C512.328,-889.736 554.259,-898.714 587.486,-905.828"/>
<polygon fill="midnightblue" stroke="midnightblue" points="586.985,-909.3 597.497,-907.971 588.451,-902.455 586.985,-909.3"/>
</g>
<!-- Node13 -->
<g id="node13" class="node"><title>Node13</title>
<g id="a_node13"><a xlink:href="class_client_model.html#a3dd65362947749364c48ff53a37820db" target="_top" xlink:title="ClientModel::getLastBlockDate">
<polygon fill="white" stroke="black" points="770,-618 770,-637 923,-637 923,-618 770,-618"/>
<text text-anchor="middle" x="846.5" y="-625" font-family="Helvetica,sans-Serif" font-size="10.00">ClientModel::getLastBlockDate</text>
</a>
</g>
</g>
<!-- Node11&#45;&gt;Node13 -->
<g id="edge14" class="edge"><title>Node11&#45;&gt;Node13</title>
<path fill="none" stroke="midnightblue" d="M478.515,-863.989C550.53,-846.894 693.167,-809.313 728,-772.5 768.03,-730.196 721.816,-686.656 764,-646.5 765.5,-645.073 767.085,-643.745 768.741,-642.511"/>
<polygon fill="midnightblue" stroke="midnightblue" points="770.872,-645.31 777.553,-637.087 767.203,-639.348 770.872,-645.31"/>
</g>
<!-- Node17 -->
<g id="node17" class="node"><title>Node17</title>
<g id="a_node17"><a xlink:href="class_wallet_frame.html#aeda920e4141c99d457814f20fa89dde6" target="_top" xlink:title="WalletFrame::showOutOfSync\lWarning">
<polygon fill="white" stroke="black" points="567.5,-858.5 567.5,-888.5 718.5,-888.5 718.5,-858.5 567.5,-858.5"/>
<text text-anchor="start" x="575.5" y="-876.5" font-family="Helvetica,sans-Serif" font-size="10.00">WalletFrame::showOutOfSync</text>
<text text-anchor="middle" x="643" y="-865.5" font-family="Helvetica,sans-Serif" font-size="10.00">Warning</text>
</a>
</g>
</g>
<!-- Node11&#45;&gt;Node17 -->
<g id="edge18" class="edge"><title>Node11&#45;&gt;Node17</title>
<path fill="none" stroke="midnightblue" d="M508.085,-873.5C523.913,-873.5 540.83,-873.5 557.129,-873.5"/>
<polygon fill="midnightblue" stroke="midnightblue" points="557.181,-877 567.181,-873.5 557.181,-870 557.181,-877"/>
</g>
<!-- Node18 -->
<g id="node18" class="node"><title>Node18</title>
<g id="a_node18"><a xlink:href="class_client_model.html#ac91e6c5bd6d70a0ae96ad2a29f97edf5" target="_top" xlink:title="ClientModel::getVerification\lProgress">
<polygon fill="white" stroke="black" points="574,-984.5 574,-1014.5 712,-1014.5 712,-984.5 574,-984.5"/>
<text text-anchor="start" x="582" y="-1002.5" font-family="Helvetica,sans-Serif" font-size="10.00">ClientModel::getVerification</text>
<text text-anchor="middle" x="643" y="-991.5" font-family="Helvetica,sans-Serif" font-size="10.00">Progress</text>
</a>
</g>
</g>
<!-- Node11&#45;&gt;Node18 -->
<g id="edge19" class="edge"><title>Node11&#45;&gt;Node18</title>
<path fill="none" stroke="midnightblue" d="M452.284,-883.178C485.609,-903.61 563.763,-951.53 608.673,-979.066"/>
<polygon fill="midnightblue" stroke="midnightblue" points="607.102,-982.208 617.457,-984.451 610.761,-976.241 607.102,-982.208"/>
</g>
<!-- Node12&#45;&gt;Node10 -->
<g id="edge13" class="edge"><title>Node12&#45;&gt;Node10</title>
<path fill="none" stroke="midnightblue" d="M699.098,-907.962C708.915,-905.444 718.904,-902.327 728,-898.5 747.6,-890.253 795.337,-857.748 823.565,-838.016"/>
<polygon fill="midnightblue" stroke="midnightblue" points="825.811,-840.716 831.985,-832.106 821.789,-834.987 825.811,-840.716"/>
</g>
<!-- Node14 -->
<g id="node14" class="node"><title>Node14</title>
<g id="a_node14"><a xlink:href="class_c_chain.html#a7482d06d8e8143f46326cf9c12c06daf" target="_top" xlink:title="Returns the index entry for the tip of this chain, or NULL if none. ">
<polygon fill="white" stroke="black" points="1001,-769 1001,-788 1070,-788 1070,-769 1001,-769"/>
<text text-anchor="middle" x="1035.5" y="-776" font-family="Helvetica,sans-Serif" font-size="10.00">CChain::Tip</text>
</a>
</g>
</g>
<!-- Node13&#45;&gt;Node14 -->
<g id="edge15" class="edge"><title>Node13&#45;&gt;Node14</title>
<path fill="none" stroke="midnightblue" d="M908.952,-637.08C916.003,-639.538 922.856,-642.624 929,-646.5 974.501,-675.203 1008.95,-730.517 1024.83,-759.589"/>
<polygon fill="midnightblue" stroke="midnightblue" points="1021.88,-761.499 1029.66,-768.691 1028.07,-758.217 1021.88,-761.499"/>
</g>
<!-- Node15 -->
<g id="node15" class="node"><title>Node15</title>
<g id="a_node15"><a xlink:href="class_c_block_index.html#ab63b774ae798f5f9e54b400ac8b5ef4b" target="_top" xlink:title="CBlockIndex::GetBlockTime">
<polygon fill="white" stroke="black" points="965,-618 965,-637 1106,-637 1106,-618 965,-618"/>
<text text-anchor="middle" x="1035.5" y="-625" font-family="Helvetica,sans-Serif" font-size="10.00">CBlockIndex::GetBlockTime</text>
</a>
</g>
</g>
<!-- Node13&#45;&gt;Node15 -->
<g id="edge16" class="edge"><title>Node13&#45;&gt;Node15</title>
<path fill="none" stroke="midnightblue" d="M923.021,-627.5C933.36,-627.5 944.005,-627.5 954.422,-627.5"/>
<polygon fill="midnightblue" stroke="midnightblue" points="954.744,-631 964.743,-627.5 954.743,-624 954.744,-631"/>
</g>
<!-- Node16 -->
<g id="node16" class="node"><title>Node16</title>
<g id="a_node16"><a xlink:href="chainparams_8cpp.html#ace5c5b706d71a324a417dd2db394fd4a" target="_top" xlink:title="Return the currently selected parameters. ">
<polygon fill="white" stroke="black" points="1010,-561 1010,-580 1061,-580 1061,-561 1010,-561"/>
<text text-anchor="middle" x="1035.5" y="-568" font-family="Helvetica,sans-Serif" font-size="10.00">Params</text>
</a>
</g>
</g>
<!-- Node13&#45;&gt;Node16 -->
<g id="edge17" class="edge"><title>Node13&#45;&gt;Node16</title>
<path fill="none" stroke="midnightblue" d="M892.584,-617.979C904.498,-615.194 917.296,-611.959 929,-608.5 953.387,-601.292 980.355,-591.546 1000.92,-583.729"/>
<polygon fill="midnightblue" stroke="midnightblue" points="1002.38,-586.918 1010.46,-580.066 999.872,-580.382 1002.38,-586.918"/>
</g>
<!-- Node18&#45;&gt;Node14 -->
<g id="edge21" class="edge"><title>Node18&#45;&gt;Node14</title>
<path fill="none" stroke="midnightblue" d="M691.82,-984.419C703.84,-980.089 716.567,-975.025 728,-969.5 840.932,-914.926 964.529,-829.011 1013.16,-794.062"/>
<polygon fill="midnightblue" stroke="midnightblue" points="1015.29,-796.841 1021.35,-788.149 1011.19,-791.166 1015.29,-796.841"/>
</g>
<!-- Node19 -->
<g id="node19" class="node"><title>Node19</title>
<g id="a_node19"><a xlink:href="namespace_checkpoints.html#ad473e253a3826fec1a7f9394c695ba91" target="_top" xlink:title="Checkpoints::GuessVerification\lProgress">
<polygon fill="white" stroke="red" points="769,-984.5 769,-1014.5 924,-1014.5 924,-984.5 769,-984.5"/>
<text text-anchor="start" x="777" y="-1002.5" font-family="Helvetica,sans-Serif" font-size="10.00">Checkpoints::GuessVerification</text>
<text text-anchor="middle" x="846.5" y="-991.5" font-family="Helvetica,sans-Serif" font-size="10.00">Progress</text>
</a>
</g>
</g>
<!-- Node18&#45;&gt;Node19 -->
<g id="edge20" class="edge"><title>Node18&#45;&gt;Node19</title>
<path fill="none" stroke="midnightblue" d="M712.219,-999.5C727.11,-999.5 743.064,-999.5 758.572,-999.5"/>
<polygon fill="midnightblue" stroke="midnightblue" points="758.684,-1003 768.684,-999.5 758.684,-996 758.684,-1003"/>
</g>
<!-- Node21 -->
<g id="node21" class="node"><title>Node21</title>
<g id="a_node21"><a xlink:href="class_c_chain.html#a0c4ffb8501acfb8a7e1c0f5e6322ada3" target="_top" xlink:title="Return the maximal height in the chain. ">
<polygon fill="white" stroke="black" points="804.5,-580 804.5,-599 888.5,-599 888.5,-580 804.5,-580"/>
<text text-anchor="middle" x="846.5" y="-587" font-family="Helvetica,sans-Serif" font-size="10.00">CChain::Height</text>
</a>
</g>
</g>
<!-- Node20&#45;&gt;Node21 -->
<g id="edge23" class="edge"><title>Node20&#45;&gt;Node21</title>
<path fill="none" stroke="midnightblue" d="M712.781,-589.5C739.417,-589.5 769.378,-589.5 794.084,-589.5"/>
<polygon fill="midnightblue" stroke="midnightblue" points="794.326,-593 804.326,-589.5 794.326,-586 794.326,-593"/>
</g>
<!-- Node23 -->
<g id="node23" class="node"><title>Node23</title>
<g id="a_node23"><a xlink:href="class_anoncoin_g_u_i.html#a4c87902dc6d0585e0c06f31c54e03223" target="_top" xlink:title="Show window if hidden, unminimize when minimized, rise when obscured or show if hidden and fToggleHid...">
<polygon fill="white" stroke="black" points="571.5,-694.5 571.5,-724.5 714.5,-724.5 714.5,-694.5 571.5,-694.5"/>
<text text-anchor="start" x="579.5" y="-712.5" font-family="Helvetica,sans-Serif" font-size="10.00">AnoncoinGUI::showNormalIf</text>
<text text-anchor="middle" x="643" y="-701.5" font-family="Helvetica,sans-Serif" font-size="10.00">Minimized</text>
</a>
</g>
</g>
<!-- Node22&#45;&gt;Node23 -->
<g id="edge25" class="edge"><title>Node22&#45;&gt;Node23</title>
<path fill="none" stroke="midnightblue" d="M481.09,-675.047C504.64,-680.09 534.268,-686.433 561.662,-692.299"/>
<polygon fill="midnightblue" stroke="midnightblue" points="561.127,-695.763 571.638,-694.435 562.592,-688.918 561.127,-695.763"/>
</g>
<!-- Node25 -->
<g id="node25" class="node"><title>Node25</title>
<g id="a_node25"><a xlink:href="class_notificator.html#ae08e1e7e85ddc4690f307649021f7fdc" target="_top" xlink:title="Show notification message. ">
<polygon fill="white" stroke="black" points="597.5,-656 597.5,-675 688.5,-675 688.5,-656 597.5,-656"/>
<text text-anchor="middle" x="643" y="-663" font-family="Helvetica,sans-Serif" font-size="10.00">Notificator::notify</text>
</a>
</g>
</g>
<!-- Node22&#45;&gt;Node25 -->
<g id="edge27" class="edge"><title>Node22&#45;&gt;Node25</title>
<path fill="none" stroke="midnightblue" d="M496.768,-665.5C525.333,-665.5 559.213,-665.5 587.063,-665.5"/>
<polygon fill="midnightblue" stroke="midnightblue" points="587.418,-669 597.417,-665.5 587.417,-662 587.418,-669"/>
</g>
<!-- Node24 -->
<g id="node24" class="node"><title>Node24</title>
<g id="a_node24"><a xlink:href="namespace_g_u_i_util.html#a0b7266e2b8e7de5f5fd1c7ddb9e5b637" target="_top" xlink:title="GUIUtil::isObscured">
<polygon fill="white" stroke="red" points="794,-700 794,-719 899,-719 899,-700 794,-700"/>
<text text-anchor="middle" x="846.5" y="-707" font-family="Helvetica,sans-Serif" font-size="10.00">GUIUtil::isObscured</text>
</a>
</g>
</g>
<!-- Node23&#45;&gt;Node24 -->
<g id="edge26" class="edge"><title>Node23&#45;&gt;Node24</title>
<path fill="none" stroke="midnightblue" d="M714.758,-709.5C737.274,-709.5 761.989,-709.5 783.811,-709.5"/>
<polygon fill="midnightblue" stroke="midnightblue" points="783.941,-713 793.941,-709.5 783.941,-706 783.941,-713"/>
</g>
<!-- Node26 -->
<g id="node26" class="node"><title>Node26</title>
<g id="a_node26"><a xlink:href="class_notificator.html#ac48ec94cd02fc4ea80db6c50e24086c1" target="_top" xlink:title="Notificator::notifySystray">
<polygon fill="white" stroke="black" points="784.5,-656 784.5,-675 908.5,-675 908.5,-656 784.5,-656"/>
<text text-anchor="middle" x="846.5" y="-663" font-family="Helvetica,sans-Serif" font-size="10.00">Notificator::notifySystray</text>
</a>
</g>
</g>
<!-- Node25&#45;&gt;Node26 -->
<g id="edge28" class="edge"><title>Node25&#45;&gt;Node26</title>
<path fill="none" stroke="midnightblue" d="M688.719,-665.5C713.812,-665.5 745.704,-665.5 774.164,-665.5"/>
<polygon fill="midnightblue" stroke="midnightblue" points="774.475,-669 784.475,-665.5 774.475,-662 774.475,-669"/>
</g>
<!-- Node27&#45;&gt;Node10 -->
<g id="edge37" class="edge"><title>Node27&#45;&gt;Node10</title>
<path fill="none" stroke="midnightblue" d="M441.224,-457.261C454.947,-485.856 495.514,-572.109 522,-646.5 541.535,-701.367 514.692,-733.559 558,-772.5 610.548,-819.749 691.185,-830.353 753.701,-830.218"/>
<polygon fill="midnightblue" stroke="midnightblue" points="754.006,-833.715 763.966,-830.1 753.926,-826.716 754.006,-833.715"/>
</g>
<!-- Node27&#45;&gt;Node16 -->
<g id="edge56" class="edge"><title>Node27&#45;&gt;Node16</title>
<path fill="none" stroke="midnightblue" d="M450.322,-457.123C472.107,-471.759 516.258,-499.304 558,-512.5 717.507,-562.924 919.846,-569.932 999.771,-570.608"/>
<polygon fill="midnightblue" stroke="midnightblue" points="999.762,-574.108 1009.78,-570.664 999.801,-567.108 999.762,-574.108"/>
</g>
<!-- Node27&#45;&gt;Node20 -->
<g id="edge40" class="edge"><title>Node27&#45;&gt;Node20</title>
<path fill="none" stroke="midnightblue" d="M443.575,-457.065C460.663,-479.481 506.589,-535.753 558,-565.5 565.905,-570.074 574.74,-573.824 583.628,-576.885"/>
<polygon fill="midnightblue" stroke="midnightblue" points="582.663,-580.251 593.253,-579.942 584.782,-573.579 582.663,-580.251"/>
</g>
<!-- Node28 -->
<g id="node28" class="node"><title>Node28</title>
<g id="a_node28"><a xlink:href="class_traffic_graph_widget.html#a8f627aaf6171695d94a0e83b239fe1ac" target="_top" xlink:title="TrafficGraphWidget\l::setClientModel">
<polygon fill="white" stroke="black" points="591.5,-454.5 591.5,-484.5 694.5,-484.5 694.5,-454.5 591.5,-454.5"/>
<text text-anchor="start" x="599.5" y="-472.5" font-family="Helvetica,sans-Serif" font-size="10.00">TrafficGraphWidget</text>
<text text-anchor="middle" x="643" y="-461.5" font-family="Helvetica,sans-Serif" font-size="10.00">::setClientModel</text>
</a>
</g>
</g>
<!-- Node27&#45;&gt;Node28 -->
<g id="edge30" class="edge"><title>Node27&#45;&gt;Node28</title>
<path fill="none" stroke="midnightblue" d="M508.663,-455.225C532.331,-457.759 558.382,-460.548 581.129,-462.983"/>
<polygon fill="midnightblue" stroke="midnightblue" points="581.012,-466.491 591.328,-464.075 581.757,-459.531 581.012,-466.491"/>
</g>
<!-- Node29 -->
<g id="node29" class="node"><title>Node29</title>
<g id="a_node29"><a xlink:href="class_client_model.html#a175c96ffc4d793777316e36c501a7f94" target="_top" xlink:title="ClientModel::getTotalBytesRecv">
<polygon fill="white" stroke="black" points="767,-482 767,-501 926,-501 926,-482 767,-482"/>
<text text-anchor="middle" x="846.5" y="-489" font-family="Helvetica,sans-Serif" font-size="10.00">ClientModel::getTotalBytesRecv</text>
</a>
</g>
</g>
<!-- Node27&#45;&gt;Node29 -->
<g id="edge43" class="edge"><title>Node27&#45;&gt;Node29</title>
<path fill="none" stroke="midnightblue" d="M455.242,-457.05C478.595,-468.366 520.061,-486.559 558,-493.5 623.772,-505.534 699.432,-504.426 756.622,-500.635"/>
<polygon fill="midnightblue" stroke="midnightblue" points="756.988,-504.118 766.718,-499.926 756.497,-497.135 756.988,-504.118"/>
</g>
<!-- Node31 -->
<g id="node31" class="node"><title>Node31</title>
<g id="a_node31"><a xlink:href="class_client_model.html#a4229224bf8a2df52e44438a449da6ba3" target="_top" xlink:title="ClientModel::getTotalBytesSent">
<polygon fill="white" stroke="black" points="768,-430 768,-449 925,-449 925,-430 768,-430"/>
<text text-anchor="middle" x="846.5" y="-437" font-family="Helvetica,sans-Serif" font-size="10.00">ClientModel::getTotalBytesSent</text>
</a>
</g>
</g>
<!-- Node27&#45;&gt;Node31 -->
<g id="edge44" class="edge"><title>Node27&#45;&gt;Node31</title>
<path fill="none" stroke="midnightblue" d="M508.776,-445.629C524.972,-445.234 542.073,-444.835 558,-444.5 624.975,-443.091 700.733,-441.785 757.663,-440.862"/>
<polygon fill="midnightblue" stroke="midnightblue" points="757.765,-444.36 767.707,-440.699 757.652,-437.361 757.765,-444.36"/>
</g>
<!-- Node33 -->
<g id="node33" class="node"><title>Node33</title>
<g id="a_node33"><a xlink:href="class_r_p_c_console.html#aa4546cb7812dd35704de8bf09a6ceb60" target="_top" xlink:title="Set number of connections shown in the UI. ">
<polygon fill="white" stroke="black" points="558,-744 558,-763 728,-763 728,-744 558,-744"/>
<text text-anchor="middle" x="643" y="-751" font-family="Helvetica,sans-Serif" font-size="10.00">RPCConsole::setNumConnections</text>
</a>
</g>
</g>
<!-- Node27&#45;&gt;Node33 -->
<g id="edge35" class="edge"><title>Node27&#45;&gt;Node33</title>
<path fill="none" stroke="midnightblue" d="M440.639,-457.008C453.078,-485.61 491.171,-573.393 522,-646.5 538.26,-685.058 526.159,-706.347 558,-733.5 560.431,-735.573 563.039,-737.44 565.779,-739.12"/>
<polygon fill="midnightblue" stroke="midnightblue" points="564.431,-742.364 574.917,-743.875 567.662,-736.154 564.431,-742.364"/>
</g>
<!-- Node34 -->
<g id="node34" class="node"><title>Node34</title>
<g id="a_node34"><a xlink:href="class_r_p_c_console.html#a98b7e85774a91d77c3b01276bd41bc51" target="_top" xlink:title="Set number of blocks shown in the UI. ">
<polygon fill="white" stroke="black" points="571,-618 571,-637 715,-637 715,-618 571,-618"/>
<text text-anchor="middle" x="643" y="-625" font-family="Helvetica,sans-Serif" font-size="10.00">RPCConsole::setNumBlocks</text>
</a>
</g>
</g>
<!-- Node27&#45;&gt;Node34 -->
<g id="edge38" class="edge"><title>Node27&#45;&gt;Node34</title>
<path fill="none" stroke="midnightblue" d="M440.875,-457.363C454.04,-485.825 496.224,-568.608 558,-608.5 561.203,-610.568 564.601,-612.413 568.124,-614.058"/>
<polygon fill="midnightblue" stroke="midnightblue" points="567.111,-617.425 577.692,-617.964 569.757,-610.944 567.111,-617.425"/>
</g>
<!-- Node35 -->
<g id="node35" class="node"><title>Node35</title>
<g id="a_node35"><a xlink:href="class_r_p_c_console.html#a41bc6977fc2aab06f408da81dfd2034f" target="_top" xlink:title="update traffic statistics ">
<polygon fill="white" stroke="black" points="574,-366.5 574,-396.5 712,-396.5 712,-366.5 574,-366.5"/>
<text text-anchor="start" x="582" y="-384.5" font-family="Helvetica,sans-Serif" font-size="10.00">RPCConsole::updateTraffic</text>
<text text-anchor="middle" x="643" y="-373.5" font-family="Helvetica,sans-Serif" font-size="10.00">Stats</text>
</a>
</g>
</g>
<!-- Node27&#45;&gt;Node35 -->
<g id="edge41" class="edge"><title>Node27&#45;&gt;Node35</title>
<path fill="none" stroke="midnightblue" d="M488.104,-437.978C499.405,-435.355 511.211,-432.195 522,-428.5 538.74,-422.768 541.649,-418.262 558,-411.5 567.543,-407.554 577.815,-403.628 587.787,-399.979"/>
<polygon fill="midnightblue" stroke="midnightblue" points="589.005,-403.261 597.223,-396.574 586.629,-396.676 589.005,-403.261"/>
</g>
<!-- Node37 -->
<g id="node37" class="node"><title>Node37</title>
<g id="a_node37"><a xlink:href="class_client_model.html#a643fc112ce94f50ac7187ecdf3c75360" target="_top" xlink:title="ClientModel::getPeerTable\lModel">
<polygon fill="white" stroke="black" points="779,-284.5 779,-314.5 914,-314.5 914,-284.5 779,-284.5"/>
<text text-anchor="start" x="787" y="-302.5" font-family="Helvetica,sans-Serif" font-size="10.00">ClientModel::getPeerTable</text>
<text text-anchor="middle" x="846.5" y="-291.5" font-family="Helvetica,sans-Serif" font-size="10.00">Model</text>
</a>
</g>
</g>
<!-- Node27&#45;&gt;Node37 -->
<g id="edge45" class="edge"><title>Node27&#45;&gt;Node37</title>
<path fill="none" stroke="midnightblue" d="M505.725,-437.925C511.553,-435.432 517.086,-432.337 522,-428.5 550.2,-406.482 529.55,-378.193 558,-356.5 566.461,-350.049 686.612,-327.692 768.881,-312.97"/>
<polygon fill="midnightblue" stroke="midnightblue" points="769.738,-316.373 778.967,-311.17 768.508,-309.482 769.738,-316.373"/>
</g>
<!-- Node38 -->
<g id="node38" class="node"><title>Node38</title>
<g id="a_node38"><a xlink:href="class_r_p_c_console.html#a2487fa6a90cddcbb17ae4bb13ecc5359" target="_top" xlink:title="Handle selection of peer in peers list. ">
<polygon fill="white" stroke="red" points="573.5,-290 573.5,-309 712.5,-309 712.5,-290 573.5,-290"/>
<text text-anchor="middle" x="643" y="-297" font-family="Helvetica,sans-Serif" font-size="10.00">RPCConsole::peerSelected</text>
</a>
</g>
</g>
<!-- Node27&#45;&gt;Node38 -->
<g id="edge46" class="edge"><title>Node27&#45;&gt;Node38</title>
<path fill="none" stroke="midnightblue" d="M507.95,-437.809C513.038,-435.313 517.806,-432.25 522,-428.5 558.776,-395.616 522.221,-357.465 558,-323.5 562.125,-319.584 566.844,-316.301 571.894,-313.548"/>
<polygon fill="midnightblue" stroke="midnightblue" points="573.717,-316.559 581.286,-309.145 570.746,-310.221 573.717,-316.559"/>
</g>
<!-- Node40 -->
<g id="node40" class="node"><title>Node40</title>
<g id="a_node40"><a xlink:href="class_r_p_c_console.html#af952ebc6484c8f7d1262fa0bceed41bf" target="_top" xlink:title="Handle updated peer information. ">
<polygon fill="white" stroke="red" points="558,-88 558,-107 728,-107 728,-88 558,-88"/>
<text text-anchor="middle" x="643" y="-95" font-family="Helvetica,sans-Serif" font-size="10.00">RPCConsole::peerLayoutChanged</text>
</a>
</g>
</g>
<!-- Node27&#45;&gt;Node40 -->
<g id="edge49" class="edge"><title>Node27&#45;&gt;Node40</title>
<path fill="none" stroke="midnightblue" d="M508.889,-438.752C513.77,-436.047 518.233,-432.679 522,-428.5 615.45,-324.81 464.746,-220.366 558,-116.5 559.061,-115.318 560.179,-114.201 561.347,-113.147"/>
<polygon fill="midnightblue" stroke="midnightblue" points="563.693,-115.768 569.713,-107.05 559.57,-110.111 563.693,-115.768"/>
</g>
<!-- Node41 -->
<g id="node41" class="node"><title>Node41</title>
<g id="a_node41"><a xlink:href="class_client_model.html#a1c93d11fd03ef9aabf9b694e73698710" target="_top" xlink:title="ClientModel::formatFullVersion">
<polygon fill="white" stroke="red" points="566.5,-252 566.5,-271 719.5,-271 719.5,-252 566.5,-252"/>
<text text-anchor="middle" x="643" y="-259" font-family="Helvetica,sans-Serif" font-size="10.00">ClientModel::formatFullVersion</text>
</a>
</g>
</g>
<!-- Node27&#45;&gt;Node41 -->
<g id="edge52" class="edge"><title>Node27&#45;&gt;Node41</title>
<path fill="none" stroke="midnightblue" d="M508.742,-438.012C513.59,-435.462 518.091,-432.332 522,-428.5 570.343,-381.111 509.747,-327.98 558,-280.5 559.439,-279.084 560.959,-277.765 562.549,-276.536"/>
<polygon fill="midnightblue" stroke="midnightblue" points="564.483,-279.454 571.017,-271.114 560.708,-273.559 564.483,-279.454"/>
</g>
<!-- Node42 -->
<g id="node42" class="node"><title>Node42</title>
<g id="a_node42"><a xlink:href="class_client_model.html#a6c7619b3dbe33ce32456ec1f7a17f454" target="_top" xlink:title="ClientModel::clientName">
<polygon fill="white" stroke="black" points="580.5,-214 580.5,-233 705.5,-233 705.5,-214 580.5,-214"/>
<text text-anchor="middle" x="643" y="-221" font-family="Helvetica,sans-Serif" font-size="10.00">ClientModel::clientName</text>
</a>
</g>
</g>
<!-- Node27&#45;&gt;Node42 -->
<g id="edge53" class="edge"><title>Node27&#45;&gt;Node42</title>
<path fill="none" stroke="midnightblue" d="M508.545,-438.429C513.502,-435.796 518.077,-432.533 522,-428.5 580.715,-368.148 499.399,-302.962 558,-242.5 561.741,-238.64 566.088,-235.489 570.798,-232.925"/>
<polygon fill="midnightblue" stroke="midnightblue" points="572.549,-235.975 580.236,-228.684 569.68,-229.59 572.549,-235.975"/>
</g>
<!-- Node43 -->
<g id="node43" class="node"><title>Node43</title>
<g id="a_node43"><a xlink:href="class_client_model.html#a8b7886e6acbb255dab6cbc297bb67a22" target="_top" xlink:title="ClientModel::formatBuildDate">
<polygon fill="white" stroke="black" points="569.5,-176 569.5,-195 716.5,-195 716.5,-176 569.5,-176"/>
<text text-anchor="middle" x="643" y="-183" font-family="Helvetica,sans-Serif" font-size="10.00">ClientModel::formatBuildDate</text>
</a>
</g>
</g>
<!-- Node27&#45;&gt;Node43 -->
<g id="edge54" class="edge"><title>Node27&#45;&gt;Node43</title>
<path fill="none" stroke="midnightblue" d="M508.687,-438.565C513.612,-435.902 518.141,-432.595 522,-428.5 591.154,-355.117 488.985,-278.013 558,-204.5 559.231,-203.189 560.532,-201.958 561.894,-200.805"/>
<polygon fill="midnightblue" stroke="midnightblue" points="564.053,-203.567 570.289,-195.002 560.073,-197.809 564.053,-203.567"/>
</g>
<!-- Node44 -->
<g id="node44" class="node"><title>Node44</title>
<g id="a_node44"><a xlink:href="class_client_model.html#a9a6238dec8eb12b7d742ce1879a92ec8" target="_top" xlink:title="ClientModel::formatClient\lStartupTime">
<polygon fill="white" stroke="black" points="578.5,-126.5 578.5,-156.5 707.5,-156.5 707.5,-126.5 578.5,-126.5"/>
<text text-anchor="start" x="586.5" y="-144.5" font-family="Helvetica,sans-Serif" font-size="10.00">ClientModel::formatClient</text>
<text text-anchor="middle" x="643" y="-133.5" font-family="Helvetica,sans-Serif" font-size="10.00">StartupTime</text>
</a>
</g>
</g>
<!-- Node27&#45;&gt;Node44 -->
<g id="edge55" class="edge"><title>Node27&#45;&gt;Node44</title>
<path fill="none" stroke="midnightblue" d="M508.79,-438.661C513.692,-435.977 518.188,-432.638 522,-428.5 601.631,-342.046 481.47,-255.71 558,-166.5 561.294,-162.66 565.149,-159.396 569.365,-156.623"/>
<polygon fill="midnightblue" stroke="midnightblue" points="571.402,-159.496 578.458,-151.593 568.014,-153.37 571.402,-159.496"/>
</g>
<!-- Node28&#45;&gt;Node29 -->
<g id="edge31" class="edge"><title>Node28&#45;&gt;Node29</title>
<path fill="none" stroke="midnightblue" d="M694.587,-475.023C713.407,-477.078 735.361,-479.475 756.604,-481.794"/>
<polygon fill="midnightblue" stroke="midnightblue" points="756.306,-485.282 766.627,-482.889 757.066,-478.324 756.306,-485.282"/>
</g>
<!-- Node28&#45;&gt;Node31 -->
<g id="edge33" class="edge"><title>Node28&#45;&gt;Node31</title>
<path fill="none" stroke="midnightblue" d="M694.587,-461.968C717.846,-458.506 745.894,-454.33 771.467,-450.522"/>
<polygon fill="midnightblue" stroke="midnightblue" points="772.127,-453.963 781.503,-449.028 771.097,-447.039 772.127,-453.963"/>
</g>
<!-- Node30 -->
<g id="node30" class="node"><title>Node30</title>
<g id="a_node30"><a xlink:href="class_c_node.html#a1988b63b48fdc9b72014bdf9588b0168" target="_top" xlink:title="CNode::GetTotalBytesRecv">
<polygon fill="white" stroke="black" points="966,-482 966,-501 1105,-501 1105,-482 966,-482"/>
<text text-anchor="middle" x="1035.5" y="-489" font-family="Helvetica,sans-Serif" font-size="10.00">CNode::GetTotalBytesRecv</text>
</a>
</g>
</g>
<!-- Node29&#45;&gt;Node30 -->
<g id="edge32" class="edge"><title>Node29&#45;&gt;Node30</title>
<path fill="none" stroke="midnightblue" d="M926.263,-491.5C936.042,-491.5 946.041,-491.5 955.819,-491.5"/>
<polygon fill="midnightblue" stroke="midnightblue" points="955.909,-495 965.909,-491.5 955.909,-488 955.909,-495"/>
</g>
<!-- Node32 -->
<g id="node32" class="node"><title>Node32</title>
<g id="a_node32"><a xlink:href="class_c_node.html#af318a64e7ddad50d1e1b6fc123a5f0b9" target="_top" xlink:title="CNode::GetTotalBytesSent">
<polygon fill="white" stroke="black" points="967,-430 967,-449 1104,-449 1104,-430 967,-430"/>
<text text-anchor="middle" x="1035.5" y="-437" font-family="Helvetica,sans-Serif" font-size="10.00">CNode::GetTotalBytesSent</text>
</a>
</g>
</g>
<!-- Node31&#45;&gt;Node32 -->
<g id="edge34" class="edge"><title>Node31&#45;&gt;Node32</title>
<path fill="none" stroke="midnightblue" d="M925.18,-439.5C935.566,-439.5 946.22,-439.5 956.61,-439.5"/>
<polygon fill="midnightblue" stroke="midnightblue" points="956.892,-443 966.892,-439.5 956.892,-436 956.892,-443"/>
</g>
<!-- Node33&#45;&gt;Node10 -->
<g id="edge36" class="edge"><title>Node33&#45;&gt;Node10</title>
<path fill="none" stroke="midnightblue" d="M680.184,-763.092C695.084,-767.234 712.462,-772.316 728,-777.5 757.01,-787.179 789.431,-799.73 812.857,-809.117"/>
<polygon fill="midnightblue" stroke="midnightblue" points="811.726,-812.434 822.309,-812.928 814.344,-805.942 811.726,-812.434"/>
</g>
<!-- Node34&#45;&gt;Node13 -->
<g id="edge39" class="edge"><title>Node34&#45;&gt;Node13</title>
<path fill="none" stroke="midnightblue" d="M715.041,-627.5C729.495,-627.5 744.845,-627.5 759.746,-627.5"/>
<polygon fill="midnightblue" stroke="midnightblue" points="759.975,-631 769.975,-627.5 759.975,-624 759.975,-631"/>
</g>
<!-- Node36 -->
<g id="node36" class="node"><title>Node36</title>
<g id="a_node36"><a xlink:href="class_r_p_c_console.html#afa45a6e142193405038015a31f9e132b" target="_top" xlink:title="RPCConsole::FormatBytes">
<polygon fill="white" stroke="black" points="778,-372 778,-391 915,-391 915,-372 778,-372"/>
<text text-anchor="middle" x="846.5" y="-379" font-family="Helvetica,sans-Serif" font-size="10.00">RPCConsole::FormatBytes</text>
</a>
</g>
</g>
<!-- Node35&#45;&gt;Node36 -->
<g id="edge42" class="edge"><title>Node35&#45;&gt;Node36</title>
<path fill="none" stroke="midnightblue" d="M712.219,-381.5C730.04,-381.5 749.384,-381.5 767.664,-381.5"/>
<polygon fill="midnightblue" stroke="midnightblue" points="767.694,-385 777.694,-381.5 767.694,-378 767.694,-385"/>
</g>
<!-- Node38&#45;&gt;Node37 -->
<g id="edge47" class="edge"><title>Node38&#45;&gt;Node37</title>
<path fill="none" stroke="midnightblue" d="M712.781,-299.5C730.77,-299.5 750.275,-299.5 768.655,-299.5"/>
<polygon fill="midnightblue" stroke="midnightblue" points="768.733,-303 778.732,-299.5 768.732,-296 768.733,-303"/>
</g>
<!-- Node39 -->
<g id="node39" class="node"><title>Node39</title>
<g id="a_node39"><a xlink:href="class_peer_table_model.html#a98084d3299642316c71c5de3d36b9859" target="_top" xlink:title="PeerTableModel::getNodeStats">
<polygon fill="white" stroke="red" points="768.5,-167 768.5,-186 924.5,-186 924.5,-167 768.5,-167"/>
<text text-anchor="middle" x="846.5" y="-174" font-family="Helvetica,sans-Serif" font-size="10.00">PeerTableModel::getNodeStats</text>
</a>
</g>
</g>
<!-- Node38&#45;&gt;Node39 -->
<g id="edge48" class="edge"><title>Node38&#45;&gt;Node39</title>
<path fill="none" stroke="midnightblue" d="M703.612,-289.951C712.044,-287.484 720.415,-284.386 728,-280.5 770.755,-258.594 810.361,-217.519 830.869,-194.079"/>
<polygon fill="midnightblue" stroke="midnightblue" points="833.679,-196.178 837.531,-186.309 828.365,-191.622 833.679,-196.178"/>
</g>
<!-- Node40&#45;&gt;Node37 -->
<g id="edge50" class="edge"><title>Node40&#45;&gt;Node37</title>
<path fill="none" stroke="midnightblue" d="M712.163,-107.009C717.857,-109.515 723.244,-112.632 728,-116.5 757.934,-140.847 743.959,-162.528 764,-195.5 782.116,-225.306 807.463,-256.394 825.061,-276.726"/>
<polygon fill="midnightblue" stroke="midnightblue" points="822.634,-279.267 831.854,-284.486 827.901,-274.657 822.634,-279.267"/>
</g>
<!-- Node40&#45;&gt;Node39 -->
<g id="edge51" class="edge"><title>Node40&#45;&gt;Node39</title>
<path fill="none" stroke="midnightblue" d="M695.671,-107.051C706.497,-109.644 717.737,-112.785 728,-116.5 761.505,-128.627 797.679,-148.172 820.906,-161.641"/>
<polygon fill="midnightblue" stroke="midnightblue" points="819.334,-164.777 829.728,-166.827 822.881,-158.742 819.334,-164.777"/>
</g>
<!-- Node47 -->
<g id="node47" class="node"><title>Node47</title>
<g id="a_node47"><a xlink:href="class_unit_display_status_bar_control.html#a380947f855d0a7ca8c457ad463c359bb" target="_top" xlink:title="When Display Units are changed on OptionsModel it will refresh the display text of the control on the...">
<polygon fill="white" stroke="red" points="571.5,-0.5 571.5,-30.5 714.5,-30.5 714.5,-0.5 571.5,-0.5"/>
<text text-anchor="start" x="579.5" y="-18.5" font-family="Helvetica,sans-Serif" font-size="10.00">UnitDisplayStatusBarControl</text>
<text text-anchor="middle" x="643" y="-7.5" font-family="Helvetica,sans-Serif" font-size="10.00">::updateDisplayUnit</text>
</a>
</g>
</g>
<!-- Node46&#45;&gt;Node47 -->
<g id="edge59" class="edge"><title>Node46&#45;&gt;Node47</title>
<path fill="none" stroke="midnightblue" d="M507.169,-187.602C512.627,-184.586 517.682,-180.93 522,-176.5 565.641,-131.723 514.467,-85.3818 558,-40.5 559.592,-38.8583 561.287,-37.3232 563.067,-35.8879"/>
<polygon fill="midnightblue" stroke="midnightblue" points="565.086,-38.7477 571.362,-30.2122 561.133,-32.9706 565.086,-38.7477"/>
</g>
<!-- Node48 -->
<g id="node48" class="node"><title>Node48</title>
<g id="a_node48"><a xlink:href="class_options_model.html#a3b6e4d4ef42be3aaba315b8cd14f468e" target="_top" xlink:title="OptionsModel::getDisplayUnit">
<polygon fill="white" stroke="black" points="569,-50 569,-69 717,-69 717,-50 569,-50"/>
<text text-anchor="middle" x="643" y="-57" font-family="Helvetica,sans-Serif" font-size="10.00">OptionsModel::getDisplayUnit</text>
</a>
</g>
</g>
<!-- Node46&#45;&gt;Node48 -->
<g id="edge60" class="edge"><title>Node46&#45;&gt;Node48</title>
<path fill="none" stroke="midnightblue" d="M507.153,-186.941C512.545,-184.062 517.593,-180.618 522,-176.5 555.9,-144.816 523.134,-109.117 558,-78.5 559.78,-76.9369 561.661,-75.4945 563.625,-74.1639"/>
<polygon fill="midnightblue" stroke="midnightblue" points="565.727,-76.9953 572.699,-69.0177 562.274,-70.9063 565.727,-76.9953"/>
</g>
</g>
</svg>
