<?xml version="1.0" encoding="UTF-8" standalone="no"?>
<!DOCTYPE svg PUBLIC "-//W3C//DTD SVG 1.1//EN"
 "http://www.w3.org/Graphics/SVG/1.1/DTD/svg11.dtd">
<!-- Generated by graphviz version 2.38.0 (20140413.2041)
 -->
<!-- Title: payments::PaymentACK::MergePartialFromCodedStream Pages: 1 -->
<svg width="501pt" height="186pt"
 viewBox="0.00 0.00 501.00 186.00" xmlns="http://www.w3.org/2000/svg" xmlns:xlink="http://www.w3.org/1999/xlink">
<g id="graph0" class="graph" transform="scale(1 1) rotate(0) translate(4 182)">
<title>payments::PaymentACK::MergePartialFromCodedStream</title>
<polygon fill="white" stroke="none" points="-4,4 -4,-182 497,-182 497,4 -4,4"/>
<!-- Node1 -->
<g id="node1" class="node"><title>Node1</title>
<polygon fill="#bfbfbf" stroke="black" points="0,-73.5 0,-103.5 164,-103.5 164,-73.5 0,-73.5"/>
<text text-anchor="start" x="8" y="-91.5" font-family="Helvetica,sans-Serif" font-size="10.00">payments::PaymentACK</text>
<text text-anchor="middle" x="82" y="-80.5" font-family="Helvetica,sans-Serif" font-size="10.00">::MergePartialFromCodedStream</text>
</g>
<!-- Node2 -->
<g id="node2" class="node"><title>Node2</title>
<g id="a_node2"><a xlink:href="classpayments_1_1_payment_a_c_k.html#a0f32c0844112662398ae08d2ea4f03c4" target="_top" xlink:title="payments::PaymentACK\l::mutable_payment">
<polygon fill="white" stroke="black" points="203.5,-147.5 203.5,-177.5 328.5,-177.5 328.5,-147.5 203.5,-147.5"/>
<text text-anchor="start" x="211.5" y="-165.5" font-family="Helvetica,sans-Serif" font-size="10.00">payments::PaymentACK</text>
<text text-anchor="middle" x="266" y="-154.5" font-family="Helvetica,sans-Serif" font-size="10.00">::mutable_payment</text>
</a>
</g>
</g>
<!-- Node1&#45;&gt;Node2 -->
<g id="edge1" class="edge"><title>Node1&#45;&gt;Node2</title>
<path fill="none" stroke="midnightblue" d="M116.859,-103.502C140.121,-113.678 171.78,-127.268 200,-138.5 204.446,-140.27 209.08,-142.069 213.736,-143.846"/>
<polygon fill="midnightblue" stroke="midnightblue" points="212.679,-147.188 223.271,-147.445 215.152,-140.639 212.679,-147.188"/>
</g>
<!-- Node4 -->
<g id="node4" class="node"><title>Node4</title>
<g id="a_node4"><a xlink:href="classpayments_1_1_payment_a_c_k.html#aa861cf440ee05e65801a385ae67f6251" target="_top" xlink:title="payments::PaymentACK\l::mutable_memo">
<polygon fill="white" stroke="black" points="203.5,-98.5 203.5,-128.5 328.5,-128.5 328.5,-98.5 203.5,-98.5"/>
<text text-anchor="start" x="211.5" y="-116.5" font-family="Helvetica,sans-Serif" font-size="10.00">payments::PaymentACK</text>
<text text-anchor="middle" x="266" y="-105.5" font-family="Helvetica,sans-Serif" font-size="10.00">::mutable_memo</text>
</a>
</g>
</g>
<!-- Node1&#45;&gt;Node4 -->
<g id="edge3" class="edge"><title>Node1&#45;&gt;Node4</title>
<path fill="none" stroke="midnightblue" d="M164.153,-99.6474C173.829,-100.977 183.655,-102.326 193.188,-103.636"/>
<polygon fill="midnightblue" stroke="midnightblue" points="193.011,-107.144 203.395,-105.038 193.964,-100.209 193.011,-107.144"/>
</g>
<!-- Node6 -->
<g id="node6" class="node"><title>Node6</title>
<g id="a_node6"><a xlink:href="classpayments_1_1_payment_a_c_k.html#af5473059f2e5d45e26ee2605f0d7ce97" target="_top" xlink:title="payments::PaymentACK\l::memo">
<polygon fill="white" stroke="black" points="203.5,-49.5 203.5,-79.5 328.5,-79.5 328.5,-49.5 203.5,-49.5"/>
<text text-anchor="start" x="211.5" y="-67.5" font-family="Helvetica,sans-Serif" font-size="10.00">payments::PaymentACK</text>
<text text-anchor="middle" x="266" y="-56.5" font-family="Helvetica,sans-Serif" font-size="10.00">::memo</text>
</a>
</g>
</g>
<!-- Node1&#45;&gt;Node6 -->
<g id="edge5" class="edge"><title>Node1&#45;&gt;Node6</title>
<path fill="none" stroke="midnightblue" d="M164.153,-77.7985C173.829,-76.5225 183.655,-75.2267 193.188,-73.9698"/>
<polygon fill="midnightblue" stroke="midnightblue" points="193.938,-77.4012 203.395,-72.6238 193.023,-70.4613 193.938,-77.4012"/>
</g>
<!-- Node7 -->
<g id="node7" class="node"><title>Node7</title>
<g id="a_node7"><a xlink:href="classpayments_1_1_payment_a_c_k.html#ae2fba17353e658122edfb3dc2a2877a6" target="_top" xlink:title="payments::PaymentACK\l::mutable_unknown_fields">
<polygon fill="white" stroke="black" points="200,-0.5 200,-30.5 332,-30.5 332,-0.5 200,-0.5"/>
<text text-anchor="start" x="208" y="-18.5" font-family="Helvetica,sans-Serif" font-size="10.00">payments::PaymentACK</text>
<text text-anchor="middle" x="266" y="-7.5" font-family="Helvetica,sans-Serif" font-size="10.00">::mutable_unknown_fields</text>
</a>
</g>
</g>
<!-- Node1&#45;&gt;Node7 -->
<g id="edge6" class="edge"><title>Node1&#45;&gt;Node7</title>
<path fill="none" stroke="midnightblue" d="M119.021,-73.4813C142.114,-63.9124 172.761,-51.3241 200,-40.5 205.126,-38.4629 210.49,-36.3578 215.844,-34.2737"/>
<polygon fill="midnightblue" stroke="midnightblue" points="217.356,-37.4412 225.416,-30.5641 214.827,-30.9141 217.356,-37.4412"/>
</g>
<!-- Node3 -->
<g id="node3" class="node"><title>Node3</title>
<g id="a_node3"><a xlink:href="classpayments_1_1_payment_a_c_k.html#a98a1638fd90ce9401ed4dfca7404c7dd" target="_top" xlink:title="payments::PaymentACK\l::set_has_payment">
<polygon fill="white" stroke="black" points="368,-147.5 368,-177.5 493,-177.5 493,-147.5 368,-147.5"/>
<text text-anchor="start" x="376" y="-165.5" font-family="Helvetica,sans-Serif" font-size="10.00">payments::PaymentACK</text>
<text text-anchor="middle" x="430.5" y="-154.5" font-family="Helvetica,sans-Serif" font-size="10.00">::set_has_payment</text>
</a>
</g>
</g>
<!-- Node2&#45;&gt;Node3 -->
<g id="edge2" class="edge"><title>Node2&#45;&gt;Node3</title>
<path fill="none" stroke="midnightblue" d="M328.898,-162.5C338.251,-162.5 347.968,-162.5 357.511,-162.5"/>
<polygon fill="midnightblue" stroke="midnightblue" points="357.774,-166 367.774,-162.5 357.774,-159 357.774,-166"/>
</g>
<!-- Node5 -->
<g id="node5" class="node"><title>Node5</title>
<g id="a_node5"><a xlink:href="classpayments_1_1_payment_a_c_k.html#a285f944b11f4446f5b561ab6198c85f5" target="_top" xlink:title="payments::PaymentACK\l::set_has_memo">
<polygon fill="white" stroke="black" points="368,-98.5 368,-128.5 493,-128.5 493,-98.5 368,-98.5"/>
<text text-anchor="start" x="376" y="-116.5" font-family="Helvetica,sans-Serif" font-size="10.00">payments::PaymentACK</text>
<text text-anchor="middle" x="430.5" y="-105.5" font-family="Helvetica,sans-Serif" font-size="10.00">::set_has_memo</text>
</a>
</g>
</g>
<!-- Node4&#45;&gt;Node5 -->
<g id="edge4" class="edge"><title>Node4&#45;&gt;Node5</title>
<path fill="none" stroke="midnightblue" d="M328.898,-113.5C338.251,-113.5 347.968,-113.5 357.511,-113.5"/>
<polygon fill="midnightblue" stroke="midnightblue" points="357.774,-117 367.774,-113.5 357.774,-110 357.774,-117"/>
</g>
</g>
</svg>
