<?xml version="1.0" encoding="UTF-8" standalone="no"?>
<!DOCTYPE svg PUBLIC "-//W3C//DTD SVG 1.1//EN"
 "http://www.w3.org/Graphics/SVG/1.1/DTD/svg11.dtd">
<!-- Generated by graphviz version 2.38.0 (20140413.2041)
 -->
<!-- Title: AnoncoinCoin::shutdown Pages: 1 -->
<svg width="1227pt" height="699pt"
 viewBox="0.00 0.00 1227.00 699.05" xmlns="http://www.w3.org/2000/svg" xmlns:xlink="http://www.w3.org/1999/xlink">
<g id="graph0" class="graph" transform="scale(1 1) rotate(0) translate(4 695.055)">
<title>AnoncoinCoin::shutdown</title>
<polygon fill="white" stroke="none" points="-4,4 -4,-695.055 1223,-695.055 1223,4 -4,4"/>
<!-- Node1 -->
<g id="node1" class="node"><title>Node1</title>
<polygon fill="#bfbfbf" stroke="black" points="0,-280.555 0,-299.555 127,-299.555 127,-280.555 0,-280.555"/>
<text text-anchor="middle" x="63.5" y="-287.555" font-family="Helvetica,sans-Serif" font-size="10.00">AnoncoinCoin::shutdown</text>
</g>
<!-- Node2 -->
<g id="node2" class="node"><title>Node2</title>
<g id="a_node2"><a xlink:href="init_8cpp.html#ac5f038c2b480cf9ef5e19e3eba8dbaf9" target="_top" xlink:title="Shutdown">
<polygon fill="white" stroke="black" points="210.5,-374.555 210.5,-393.555 271.5,-393.555 271.5,-374.555 210.5,-374.555"/>
<text text-anchor="middle" x="241" y="-381.555" font-family="Helvetica,sans-Serif" font-size="10.00">Shutdown</text>
</a>
</g>
</g>
<!-- Node1&#45;&gt;Node2 -->
<g id="edge1" class="edge"><title>Node1&#45;&gt;Node2</title>
<path fill="none" stroke="midnightblue" d="M82.2937,-299.585C113.172,-316.124 176.844,-350.228 213.13,-369.663"/>
<polygon fill="midnightblue" stroke="midnightblue" points="211.691,-372.863 222.159,-374.499 214.997,-366.692 211.691,-372.863"/>
</g>
<!-- Node50 -->
<g id="node50" class="node"><title>Node50</title>
<g id="a_node50"><a xlink:href="class_anoncoin_coin.html#a19cc3b8135a5d63b023cb1f033277f55" target="_top" xlink:title="Pass fatal exception message to UI thread. ">
<polygon fill="white" stroke="black" points="163,-181.055 163,-211.055 319,-211.055 319,-181.055 163,-181.055"/>
<text text-anchor="start" x="171" y="-199.055" font-family="Helvetica,sans-Serif" font-size="10.00">AnoncoinCoin::handleRunaway</text>
<text text-anchor="middle" x="241" y="-188.055" font-family="Helvetica,sans-Serif" font-size="10.00">Exception</text>
</a>
</g>
</g>
<!-- Node1&#45;&gt;Node50 -->
<g id="edge61" class="edge"><title>Node1&#45;&gt;Node50</title>
<path fill="none" stroke="midnightblue" d="M82.2937,-280.524C110.411,-265.464 165.721,-235.84 202.784,-215.988"/>
<polygon fill="midnightblue" stroke="midnightblue" points="204.624,-218.973 211.786,-211.166 201.318,-212.803 204.624,-218.973"/>
</g>
<!-- Node3 -->
<g id="node3" class="node"><title>Node3</title>
<g id="a_node3"><a xlink:href="util_8cpp.html#a85fc1244e0bd3c91ee7a1c05ed10ebbb" target="_top" xlink:title="RenameThread">
<polygon fill="white" stroke="black" points="391,-481.555 391,-500.555 477,-500.555 477,-481.555 391,-481.555"/>
<text text-anchor="middle" x="434" y="-488.555" font-family="Helvetica,sans-Serif" font-size="10.00">RenameThread</text>
</a>
</g>
</g>
<!-- Node2&#45;&gt;Node3 -->
<g id="edge2" class="edge"><title>Node2&#45;&gt;Node3</title>
<path fill="none" stroke="midnightblue" d="M251.644,-393.743C270.072,-411.703 312.269,-450.225 355,-471.055 363.035,-474.971 371.921,-478.179 380.733,-480.788"/>
<polygon fill="midnightblue" stroke="midnightblue" points="380.032,-484.224 390.601,-483.484 381.877,-477.472 380.032,-484.224"/>
</g>
<!-- Node4 -->
<g id="node4" class="node"><title>Node4</title>
<g id="a_node4"><a xlink:href="class_c_tx_mem_pool.html#a3039b67e5eebaa3ff830261c192816f2" target="_top" xlink:title="CTxMemPool::AddTransactions\lUpdated">
<polygon fill="white" stroke="black" points="355,-432.055 355,-462.055 513,-462.055 513,-432.055 355,-432.055"/>
<text text-anchor="start" x="363" y="-450.055" font-family="Helvetica,sans-Serif" font-size="10.00">CTxMemPool::AddTransactions</text>
<text text-anchor="middle" x="434" y="-439.055" font-family="Helvetica,sans-Serif" font-size="10.00">Updated</text>
</a>
</g>
</g>
<!-- Node2&#45;&gt;Node4 -->
<g id="edge3" class="edge"><title>Node2&#45;&gt;Node4</title>
<path fill="none" stroke="midnightblue" d="M270.291,-393.693C293.125,-401.442 326.093,-412.562 355,-422.055 361.781,-424.281 368.9,-426.596 375.966,-428.878"/>
<polygon fill="midnightblue" stroke="midnightblue" points="374.938,-432.224 385.53,-431.959 377.085,-425.561 374.938,-432.224"/>
</g>
<!-- Node5 -->
<g id="node5" class="node"><title>Node5</title>
<g id="a_node5"><a xlink:href="rpcserver_8cpp.html#af5be6ec7b71359ed4111f1a5ed93b893" target="_top" xlink:title="StopRPCThreads">
<polygon fill="white" stroke="black" points="386.5,-393.555 386.5,-412.555 481.5,-412.555 481.5,-393.555 386.5,-393.555"/>
<text text-anchor="middle" x="434" y="-400.555" font-family="Helvetica,sans-Serif" font-size="10.00">StopRPCThreads</text>
</a>
</g>
</g>
<!-- Node2&#45;&gt;Node5 -->
<g id="edge4" class="edge"><title>Node2&#45;&gt;Node5</title>
<path fill="none" stroke="midnightblue" d="M271.844,-387.024C299.608,-389.785 341.722,-393.975 375.936,-397.378"/>
<polygon fill="midnightblue" stroke="midnightblue" points="375.979,-400.9 386.276,-398.407 376.672,-393.934 375.979,-400.9"/>
</g>
<!-- Node6 -->
<g id="node6" class="node"><title>Node6</title>
<g id="a_node6"><a xlink:href="rpcmining_8cpp.html#ae7370e6af93e26e0c967cda6a63fe3a9" target="_top" xlink:title="ShutdownRPCMining">
<polygon fill="white" stroke="black" points="378,-355.555 378,-374.555 490,-374.555 490,-355.555 378,-355.555"/>
<text text-anchor="middle" x="434" y="-362.555" font-family="Helvetica,sans-Serif" font-size="10.00">ShutdownRPCMining</text>
</a>
</g>
</g>
<!-- Node2&#45;&gt;Node6 -->
<g id="edge5" class="edge"><title>Node2&#45;&gt;Node6</title>
<path fill="none" stroke="midnightblue" d="M271.844,-381.086C297.311,-378.553 334.852,-374.818 367.294,-371.591"/>
<polygon fill="midnightblue" stroke="midnightblue" points="368.022,-375.036 377.627,-370.563 367.329,-368.07 368.022,-375.036"/>
</g>
<!-- Node7 -->
<g id="node7" class="node"><title>Node7</title>
<g id="a_node7"><a xlink:href="class_c_d_b_env.html#a09c5850b88919553a8db416ce288ff1a" target="_top" xlink:title="CDBEnv::Flush">
<polygon fill="white" stroke="black" points="391.5,-222.555 391.5,-241.555 476.5,-241.555 476.5,-222.555 391.5,-222.555"/>
<text text-anchor="middle" x="434" y="-229.555" font-family="Helvetica,sans-Serif" font-size="10.00">CDBEnv::Flush</text>
</a>
</g>
</g>
<!-- Node2&#45;&gt;Node7 -->
<g id="edge6" class="edge"><title>Node2&#45;&gt;Node7</title>
<path fill="none" stroke="midnightblue" d="M250.354,-374.434C268.166,-354.296 311.789,-306.933 355,-275.055 369.903,-264.06 387.933,-253.942 402.903,-246.286"/>
<polygon fill="midnightblue" stroke="midnightblue" points="404.852,-249.225 412.235,-241.626 401.725,-242.962 404.852,-249.225"/>
</g>
<!-- Node12 -->
<g id="node12" class="node"><title>Node12</title>
<g id="a_node12"><a xlink:href="miner_8h.html#a5f800ae833006ec26f0e5371f253347a" target="_top" xlink:title="Run the miner threads. ">
<polygon fill="white" stroke="black" points="381.5,-122.555 381.5,-141.555 486.5,-141.555 486.5,-122.555 381.5,-122.555"/>
<text text-anchor="middle" x="434" y="-129.555" font-family="Helvetica,sans-Serif" font-size="10.00">GenerateAnoncoins</text>
</a>
</g>
</g>
<!-- Node2&#45;&gt;Node12 -->
<g id="edge11" class="edge"><title>Node2&#45;&gt;Node12</title>
<path fill="none" stroke="midnightblue" d="M246.489,-374.52C266.89,-331.218 350.091,-155.017 355,-151.055 359.982,-147.033 365.688,-143.843 371.697,-141.316"/>
<polygon fill="midnightblue" stroke="midnightblue" points="373.096,-144.533 381.329,-137.865 370.735,-137.943 373.096,-144.533"/>
</g>
<!-- Node13 -->
<g id="node13" class="node"><title>Node13</title>
<g id="a_node13"><a xlink:href="net_8cpp.html#ac9110488f45c160d58f3c7ab7197bcea" target="_top" xlink:title="StopNode">
<polygon fill="white" stroke="black" points="403.5,-160.555 403.5,-179.555 464.5,-179.555 464.5,-160.555 403.5,-160.555"/>
<text text-anchor="middle" x="434" y="-167.555" font-family="Helvetica,sans-Serif" font-size="10.00">StopNode</text>
</a>
</g>
</g>
<!-- Node2&#45;&gt;Node13 -->
<g id="edge12" class="edge"><title>Node2&#45;&gt;Node13</title>
<path fill="none" stroke="midnightblue" d="M246.315,-374.385C259.226,-346.336 300.087,-263.736 355,-213.055 367.957,-201.097 384.845,-191.26 399.593,-184.028"/>
<polygon fill="midnightblue" stroke="midnightblue" points="401.346,-187.072 408.913,-179.655 398.373,-180.735 401.346,-187.072"/>
</g>
<!-- Node23 -->
<g id="node23" class="node"><title>Node23</title>
<g id="a_node23"><a xlink:href="main_8cpp.html#a3ef0cc6e9d9d6435ee2a5569244d6ebd" target="_top" xlink:title="Unregister a network node. ">
<polygon fill="white" stroke="black" points="560.5,-327.555 560.5,-346.555 679.5,-346.555 679.5,-327.555 560.5,-327.555"/>
<text text-anchor="middle" x="620" y="-334.555" font-family="Helvetica,sans-Serif" font-size="10.00">UnregisterNodeSignals</text>
</a>
</g>
</g>
<!-- Node2&#45;&gt;Node23 -->
<g id="edge24" class="edge"><title>Node2&#45;&gt;Node23</title>
<path fill="none" stroke="midnightblue" d="M264.007,-374.522C286.42,-365.327 322.414,-351.959 355,-346.055 420.497,-334.188 496.589,-332.884 550.208,-333.98"/>
<polygon fill="midnightblue" stroke="midnightblue" points="550.205,-337.481 560.286,-334.22 550.372,-330.483 550.205,-337.481"/>
</g>
<!-- Node40 -->
<g id="node40" class="node"><title>Node40</title>
<g id="a_node40"><a xlink:href="net_8cpp.html#a475f2fc7d8f5cd7511db253cae8fe28a" target="_top" xlink:title="GetNodeSignals">
<polygon fill="white" stroke="black" points="389.5,-84.5548 389.5,-103.555 478.5,-103.555 478.5,-84.5548 389.5,-84.5548"/>
<text text-anchor="middle" x="434" y="-91.5548" font-family="Helvetica,sans-Serif" font-size="10.00">GetNodeSignals</text>
</a>
</g>
</g>
<!-- Node2&#45;&gt;Node40 -->
<g id="edge49" class="edge"><title>Node2&#45;&gt;Node40</title>
<path fill="none" stroke="midnightblue" d="M247.09,-374.246C260.052,-349.062 294.977,-279.894 319,-220.055 337.693,-173.492 318.035,-146.983 355,-113.055 361.862,-106.756 370.457,-102.452 379.412,-99.5289"/>
<polygon fill="midnightblue" stroke="midnightblue" points="380.472,-102.868 389.206,-96.8708 378.638,-96.1123 380.472,-102.868"/>
</g>
<!-- Node41 -->
<g id="node41" class="node"><title>Node41</title>
<g id="a_node41"><a xlink:href="class_c_wallet.html#a1697a92171b4359f49b38aed643cf92b" target="_top" xlink:title="CWallet::SetBestChain">
<polygon fill="white" stroke="black" points="375,-671.555 375,-690.555 493,-690.555 493,-671.555 375,-671.555"/>
<text text-anchor="middle" x="434" y="-678.555" font-family="Helvetica,sans-Serif" font-size="10.00">CWallet::SetBestChain</text>
</a>
</g>
</g>
<!-- Node2&#45;&gt;Node41 -->
<g id="edge50" class="edge"><title>Node2&#45;&gt;Node41</title>
<path fill="none" stroke="midnightblue" d="M242.843,-393.734C246.854,-433.618 267.624,-586.674 355,-662.055 358.265,-664.871 361.88,-667.285 365.712,-669.351"/>
<polygon fill="midnightblue" stroke="midnightblue" points="364.437,-672.616 374.988,-673.57 367.334,-666.244 364.437,-672.616"/>
</g>
<!-- Node43 -->
<g id="node43" class="node"><title>Node43</title>
<g id="a_node43"><a xlink:href="class_c_chain.html#a3f7e9ed312ad1cadd266a9529586ade6" target="_top" xlink:title="Return a CBlockLocator that refers to a block in this chain (by default the tip). ...">
<polygon fill="white" stroke="black" points="381.5,-595.555 381.5,-614.555 486.5,-614.555 486.5,-595.555 381.5,-595.555"/>
<text text-anchor="middle" x="434" y="-602.555" font-family="Helvetica,sans-Serif" font-size="10.00">CChain::GetLocator</text>
</a>
</g>
</g>
<!-- Node2&#45;&gt;Node43 -->
<g id="edge52" class="edge"><title>Node2&#45;&gt;Node43</title>
<path fill="none" stroke="midnightblue" d="M244.474,-393.917C253.264,-426.832 286.214,-533.78 355,-586.055 360.025,-589.873 365.712,-592.936 371.671,-595.39"/>
<polygon fill="midnightblue" stroke="midnightblue" points="370.607,-598.726 381.201,-598.766 372.944,-592.127 370.607,-598.726"/>
</g>
<!-- Node45 -->
<g id="node45" class="node"><title>Node45</title>
<g id="a_node45"><a xlink:href="class_c_level_d_b_wrapper.html#a639fbfd6652941a1ab570c202197a32a" target="_top" xlink:title="CLevelDBWrapper::Flush">
<polygon fill="white" stroke="black" points="369,-633.555 369,-652.555 499,-652.555 499,-633.555 369,-633.555"/>
<text text-anchor="middle" x="434" y="-640.555" font-family="Helvetica,sans-Serif" font-size="10.00">CLevelDBWrapper::Flush</text>
</a>
</g>
</g>
<!-- Node2&#45;&gt;Node45 -->
<g id="edge54" class="edge"><title>Node2&#45;&gt;Node45</title>
<path fill="none" stroke="midnightblue" d="M243.504,-393.648C249.723,-429.975 276.883,-560.256 355,-624.055 357.078,-625.752 359.285,-627.301 361.589,-628.715"/>
<polygon fill="midnightblue" stroke="midnightblue" points="360.402,-632.042 370.893,-633.527 363.618,-625.824 360.402,-632.042"/>
</g>
<!-- Node46 -->
<g id="node46" class="node"><title>Node46</title>
<g id="a_node46"><a xlink:href="class_c_coins_view_cache.html#ac9888d4feaa46666d03871cd7cd1c01d" target="_top" xlink:title="CCoinsViewCache::Flush">
<polygon fill="white" stroke="black" points="369,-557.555 369,-576.555 499,-576.555 499,-557.555 369,-557.555"/>
<text text-anchor="middle" x="434" y="-564.555" font-family="Helvetica,sans-Serif" font-size="10.00">CCoinsViewCache::Flush</text>
</a>
</g>
</g>
<!-- Node2&#45;&gt;Node46 -->
<g id="edge55" class="edge"><title>Node2&#45;&gt;Node46</title>
<path fill="none" stroke="midnightblue" d="M245.678,-393.639C257.113,-422.093 294.919,-506.668 355,-548.055 357.9,-550.052 360.987,-551.841 364.197,-553.442"/>
<polygon fill="midnightblue" stroke="midnightblue" points="362.943,-556.713 373.511,-557.476 365.725,-550.29 362.943,-556.713"/>
</g>
<!-- Node48 -->
<g id="node48" class="node"><title>Node48</title>
<g id="a_node48"><a xlink:href="util_8cpp.html#a91d2f3eb3a1bb92ab4eb1bd4b713a99e" target="_top" xlink:title="GetPidFile">
<polygon fill="white" stroke="black" points="756.5,-251.555 756.5,-270.555 819.5,-270.555 819.5,-251.555 756.5,-251.555"/>
<text text-anchor="middle" x="788" y="-258.555" font-family="Helvetica,sans-Serif" font-size="10.00">GetPidFile</text>
</a>
</g>
</g>
<!-- Node2&#45;&gt;Node48 -->
<g id="edge57" class="edge"><title>Node2&#45;&gt;Node48</title>
<path fill="none" stroke="midnightblue" d="M258.218,-374.388C279.62,-362.089 318.821,-341.118 355,-330.055 499.378,-285.906 542.239,-305.829 691,-280.055 709.161,-276.908 729.169,-273.016 746.198,-269.576"/>
<polygon fill="midnightblue" stroke="midnightblue" points="747.273,-272.929 756.373,-267.503 745.875,-266.07 747.273,-272.929"/>
</g>
<!-- Node49 -->
<g id="node49" class="node"><title>Node49</title>
<g id="a_node49"><a xlink:href="main_8cpp.html#ad0b02f9e3ff8997319581ce5021d4244" target="_top" xlink:title="Unregister all wallets from core. ">
<polygon fill="white" stroke="black" points="380.5,-519.555 380.5,-538.555 487.5,-538.555 487.5,-519.555 380.5,-519.555"/>
<text text-anchor="middle" x="434" y="-526.555" font-family="Helvetica,sans-Serif" font-size="10.00">UnregisterAllWallets</text>
</a>
</g>
</g>
<!-- Node2&#45;&gt;Node49 -->
<g id="edge60" class="edge"><title>Node2&#45;&gt;Node49</title>
<path fill="none" stroke="midnightblue" d="M247.727,-393.729C262.349,-417.537 303.567,-479.27 355,-510.055 359.784,-512.918 364.977,-515.35 370.334,-517.416"/>
<polygon fill="midnightblue" stroke="midnightblue" points="369.509,-520.833 380.103,-520.754 371.772,-514.209 369.509,-520.833"/>
</g>
<!-- Node8 -->
<g id="node8" class="node"><title>Node8</title>
<g id="a_node8"><a xlink:href="util_8h.html#a139d0fe6387b9e230a9b8bb12d9b43b9" target="_top" xlink:title="GetTimeMillis">
<polygon fill="white" stroke="black" points="749.5,-156.555 749.5,-175.555 826.5,-175.555 826.5,-156.555 749.5,-156.555"/>
<text text-anchor="middle" x="788" y="-163.555" font-family="Helvetica,sans-Serif" font-size="10.00">GetTimeMillis</text>
</a>
</g>
</g>
<!-- Node7&#45;&gt;Node8 -->
<g id="edge7" class="edge"><title>Node7&#45;&gt;Node8</title>
<path fill="none" stroke="midnightblue" d="M470.516,-222.531C492.924,-216.721 522.533,-209.409 549,-204.055 614.528,-190.8 690.969,-179.288 739.176,-172.507"/>
<polygon fill="midnightblue" stroke="midnightblue" points="739.896,-175.94 749.316,-171.092 738.929,-169.008 739.896,-175.94"/>
</g>
<!-- Node9 -->
<g id="node9" class="node"><title>Node9</title>
<g id="a_node9"><a xlink:href="class_c_d_b_env.html#ac53fd53afdd1e0881b8ffbb11a89b556" target="_top" xlink:title="CDBEnv::CloseDb">
<polygon fill="white" stroke="black" points="570.5,-251.555 570.5,-270.555 669.5,-270.555 669.5,-251.555 570.5,-251.555"/>
<text text-anchor="middle" x="620" y="-258.555" font-family="Helvetica,sans-Serif" font-size="10.00">CDBEnv::CloseDb</text>
</a>
</g>
</g>
<!-- Node7&#45;&gt;Node9 -->
<g id="edge8" class="edge"><title>Node7&#45;&gt;Node9</title>
<path fill="none" stroke="midnightblue" d="M476.752,-238.635C501.386,-242.518 532.951,-247.493 560.087,-251.77"/>
<polygon fill="midnightblue" stroke="midnightblue" points="559.823,-255.271 570.246,-253.371 560.913,-248.356 559.823,-255.271"/>
</g>
<!-- Node10 -->
<g id="node10" class="node"><title>Node10</title>
<g id="a_node10"><a xlink:href="class_c_d_b_env.html#a0bf3b64c05bf0d7f0a7dbaa9a072c0bc" target="_top" xlink:title="CDBEnv::Close">
<polygon fill="white" stroke="black" points="577,-213.555 577,-232.555 663,-232.555 663,-213.555 577,-213.555"/>
<text text-anchor="middle" x="620" y="-220.555" font-family="Helvetica,sans-Serif" font-size="10.00">CDBEnv::Close</text>
</a>
</g>
</g>
<!-- Node7&#45;&gt;Node10 -->
<g id="edge9" class="edge"><title>Node7&#45;&gt;Node10</title>
<path fill="none" stroke="midnightblue" d="M476.752,-230.013C503.383,-228.71 538.115,-227.011 566.594,-225.618"/>
<polygon fill="midnightblue" stroke="midnightblue" points="566.959,-229.105 576.776,-225.12 566.617,-222.113 566.959,-229.105"/>
</g>
<!-- Node11 -->
<g id="node11" class="node"><title>Node11</title>
<g id="a_node11"><a xlink:href="class_c_d_b_env.html#a5179ad1064b9f78d6d320c6e036217e2" target="_top" xlink:title="CDBEnv::EnvShutdown">
<polygon fill="white" stroke="black" points="727,-213.555 727,-232.555 849,-232.555 849,-213.555 727,-213.555"/>
<text text-anchor="middle" x="788" y="-220.555" font-family="Helvetica,sans-Serif" font-size="10.00">CDBEnv::EnvShutdown</text>
</a>
</g>
</g>
<!-- Node10&#45;&gt;Node11 -->
<g id="edge10" class="edge"><title>Node10&#45;&gt;Node11</title>
<path fill="none" stroke="midnightblue" d="M663.318,-223.055C679.609,-223.055 698.678,-223.055 716.897,-223.055"/>
<polygon fill="midnightblue" stroke="midnightblue" points="716.908,-226.555 726.908,-223.055 716.908,-219.555 716.908,-226.555"/>
</g>
<!-- Node14 -->
<g id="node14" class="node"><title>Node14</title>
<g id="a_node14"><a xlink:href="net_8cpp.html#a93e4e6fbe288b6e882e697918695f88e" target="_top" xlink:title="MapPort">
<polygon fill="white" stroke="black" points="593,-137.555 593,-156.555 647,-156.555 647,-137.555 593,-137.555"/>
<text text-anchor="middle" x="620" y="-144.555" font-family="Helvetica,sans-Serif" font-size="10.00">MapPort</text>
</a>
</g>
</g>
<!-- Node13&#45;&gt;Node14 -->
<g id="edge13" class="edge"><title>Node13&#45;&gt;Node14</title>
<path fill="none" stroke="midnightblue" d="M464.563,-166.359C496.693,-162.343 548.06,-155.922 582.637,-151.6"/>
<polygon fill="midnightblue" stroke="midnightblue" points="583.3,-155.045 592.788,-150.331 582.432,-148.099 583.3,-155.045"/>
</g>
<!-- Node15 -->
<g id="node15" class="node"><title>Node15</title>
<g id="a_node15"><a xlink:href="class_c_semaphore.html#af6a956f6c191e824485fd3af6db39318" target="_top" xlink:title="CSemaphore::post">
<polygon fill="white" stroke="black" points="570,-99.5548 570,-118.555 670,-118.555 670,-99.5548 570,-99.5548"/>
<text text-anchor="middle" x="620" y="-106.555" font-family="Helvetica,sans-Serif" font-size="10.00">CSemaphore::post</text>
</a>
</g>
</g>
<!-- Node13&#45;&gt;Node15 -->
<g id="edge14" class="edge"><title>Node13&#45;&gt;Node15</title>
<path fill="none" stroke="midnightblue" d="M464.629,-165.228C479.52,-162.211 497.62,-157.625 513,-151.055 530.46,-143.596 531.639,-135.741 549,-128.055 554.385,-125.671 560.138,-123.524 565.946,-121.607"/>
<polygon fill="midnightblue" stroke="midnightblue" points="567.19,-124.886 575.716,-118.596 565.128,-118.196 567.19,-124.886"/>
</g>
<!-- Node16 -->
<g id="node16" class="node"><title>Node16</title>
<g id="a_node16"><a xlink:href="net_8cpp.html#ab8b5323f5ef61499582a5a6e53b49b6e" target="_top" xlink:title="DumpAddresses">
<polygon fill="white" stroke="black" points="575,-61.5548 575,-80.5548 665,-80.5548 665,-61.5548 575,-61.5548"/>
<text text-anchor="middle" x="620" y="-68.5548" font-family="Helvetica,sans-Serif" font-size="10.00">DumpAddresses</text>
</a>
</g>
</g>
<!-- Node13&#45;&gt;Node16 -->
<g id="edge15" class="edge"><title>Node13&#45;&gt;Node16</title>
<path fill="none" stroke="midnightblue" d="M464.757,-168.323C480.386,-166.132 499.12,-161.352 513,-151.055 538.282,-132.298 523.965,-109.14 549,-90.0548 553.812,-86.3868 559.283,-83.4263 564.997,-81.037"/>
<polygon fill="midnightblue" stroke="midnightblue" points="566.537,-84.2028 574.768,-77.5313 564.173,-77.614 566.537,-84.2028"/>
</g>
<!-- Node16&#45;&gt;Node8 -->
<g id="edge16" class="edge"><title>Node16&#45;&gt;Node8</title>
<path fill="none" stroke="midnightblue" d="M665.074,-79.071C674.027,-81.7671 683.11,-85.3386 691,-90.0548 710.969,-101.991 709.035,-113.273 727,-128.055 737.414,-136.623 749.882,-144.807 760.747,-151.37"/>
<polygon fill="midnightblue" stroke="midnightblue" points="759.024,-154.417 769.417,-156.475 762.576,-148.385 759.024,-154.417"/>
</g>
<!-- Node17 -->
<g id="node17" class="node"><title>Node17</title>
<g id="a_node17"><a xlink:href="class_c_addr_d_b.html#aaec90dba59cd69a2f25bc5630a1dde39" target="_top" xlink:title="CAddrDB::Write">
<polygon fill="white" stroke="red" points="744,-61.5548 744,-80.5548 832,-80.5548 832,-61.5548 744,-61.5548"/>
<text text-anchor="middle" x="788" y="-68.5548" font-family="Helvetica,sans-Serif" font-size="10.00">CAddrDB::Write</text>
</a>
</g>
</g>
<!-- Node16&#45;&gt;Node17 -->
<g id="edge17" class="edge"><title>Node16&#45;&gt;Node17</title>
<path fill="none" stroke="midnightblue" d="M665.049,-71.0548C686.111,-71.0548 711.5,-71.0548 733.647,-71.0548"/>
<polygon fill="midnightblue" stroke="midnightblue" points="733.895,-74.5549 743.895,-71.0548 733.895,-67.5549 733.895,-74.5549"/>
</g>
<!-- Node22 -->
<g id="node22" class="node"><title>Node22</title>
<g id="a_node22"><a xlink:href="class_c_addr_man.html#a15b8e72f55344b6fbd1bc1bda3cdc5bc" target="_top" xlink:title="CAddrMan::size">
<polygon fill="white" stroke="black" points="744,-99.5548 744,-118.555 832,-118.555 832,-99.5548 744,-99.5548"/>
<text text-anchor="middle" x="788" y="-106.555" font-family="Helvetica,sans-Serif" font-size="10.00">CAddrMan::size</text>
</a>
</g>
</g>
<!-- Node16&#45;&gt;Node22 -->
<g id="edge23" class="edge"><title>Node16&#45;&gt;Node22</title>
<path fill="none" stroke="midnightblue" d="M662.889,-80.6438C684.893,-85.6809 712.055,-91.8986 735.352,-97.2318"/>
<polygon fill="midnightblue" stroke="midnightblue" points="734.884,-100.715 745.412,-99.5347 736.446,-93.8915 734.884,-100.715"/>
</g>
<!-- Node18 -->
<g id="node18" class="node"><title>Node18</title>
<g id="a_node18"><a xlink:href="chainparams_8cpp.html#ace5c5b706d71a324a417dd2db394fd4a" target="_top" xlink:title="Return the currently selected parameters. ">
<polygon fill="white" stroke="black" points="1111,-108.555 1111,-127.555 1162,-127.555 1162,-108.555 1111,-108.555"/>
<text text-anchor="middle" x="1136.5" y="-115.555" font-family="Helvetica,sans-Serif" font-size="10.00">Params</text>
</a>
</g>
</g>
<!-- Node17&#45;&gt;Node18 -->
<g id="edge18" class="edge"><title>Node17&#45;&gt;Node18</title>
<path fill="none" stroke="midnightblue" d="M800.463,-61.4085C817.562,-47.7184 851.355,-23.2905 885,-14.0548 942.002,1.59267 962.725,6.89367 1018,-14.0548 1063.6,-31.3376 1102.88,-75.3046 1122.39,-100.185"/>
<polygon fill="midnightblue" stroke="midnightblue" points="1119.8,-102.572 1128.65,-108.403 1125.37,-98.3287 1119.8,-102.572"/>
</g>
<!-- Node19 -->
<g id="node19" class="node"><title>Node19</title>
<g id="a_node19"><a xlink:href="hash_8h.html#ab3f6c437460137530d86e09c2c102e99" target="_top" xlink:title="Hash">
<polygon fill="white" stroke="black" points="931.5,-175.555 931.5,-194.555 971.5,-194.555 971.5,-175.555 931.5,-175.555"/>
<text text-anchor="middle" x="951.5" y="-182.555" font-family="Helvetica,sans-Serif" font-size="10.00">Hash</text>
</a>
</g>
</g>
<!-- Node17&#45;&gt;Node19 -->
<g id="edge19" class="edge"><title>Node17&#45;&gt;Node19</title>
<path fill="none" stroke="midnightblue" d="M832.279,-79.9618C838.338,-82.5216 844.143,-85.8159 849,-90.0548 877.16,-114.631 856.543,-141.823 885,-166.055 895.142,-174.691 909.019,-179.406 921.39,-181.978"/>
<polygon fill="midnightblue" stroke="midnightblue" points="920.866,-185.439 931.313,-183.674 922.045,-178.539 920.866,-185.439"/>
</g>
<!-- Node20 -->
<g id="node20" class="node"><title>Node20</title>
<g id="a_node20"><a xlink:href="class_c_data_stream.html#a5b9e70188c662f4e9496066472af213e" target="_top" xlink:title="CDataStream::begin">
<polygon fill="white" stroke="black" points="898,-137.555 898,-156.555 1005,-156.555 1005,-137.555 898,-137.555"/>
<text text-anchor="middle" x="951.5" y="-144.555" font-family="Helvetica,sans-Serif" font-size="10.00">CDataStream::begin</text>
</a>
</g>
</g>
<!-- Node17&#45;&gt;Node20 -->
<g id="edge20" class="edge"><title>Node17&#45;&gt;Node20</title>
<path fill="none" stroke="midnightblue" d="M823.398,-80.6156C831.892,-83.3384 840.88,-86.5335 849,-90.0548 876.817,-102.118 906.889,-119.618 927.02,-132.039"/>
<polygon fill="midnightblue" stroke="midnightblue" points="925.19,-135.023 935.526,-137.352 928.898,-129.086 925.19,-135.023"/>
</g>
<!-- Node21 -->
<g id="node21" class="node"><title>Node21</title>
<g id="a_node21"><a xlink:href="util_8cpp.html#ab83866a054745d4b30a3948a1b44beba" target="_top" xlink:title="GetDataDir">
<polygon fill="white" stroke="red" points="918,-61.5548 918,-80.5548 985,-80.5548 985,-61.5548 918,-61.5548"/>
<text text-anchor="middle" x="951.5" y="-68.5548" font-family="Helvetica,sans-Serif" font-size="10.00">GetDataDir</text>
</a>
</g>
</g>
<!-- Node17&#45;&gt;Node21 -->
<g id="edge21" class="edge"><title>Node17&#45;&gt;Node21</title>
<path fill="none" stroke="midnightblue" d="M832.279,-71.0548C855.614,-71.0548 884.314,-71.0548 907.592,-71.0548"/>
<polygon fill="midnightblue" stroke="midnightblue" points="907.867,-74.5549 917.867,-71.0548 907.867,-67.5549 907.867,-74.5549"/>
</g>
<!-- Node21&#45;&gt;Node18 -->
<g id="edge22" class="edge"><title>Node21&#45;&gt;Node18</title>
<path fill="none" stroke="midnightblue" d="M985.217,-79.4574C1017.92,-87.8564 1067.99,-100.717 1101.23,-109.254"/>
<polygon fill="midnightblue" stroke="midnightblue" points="1100.41,-112.657 1110.97,-111.755 1102.15,-105.877 1100.41,-112.657"/>
</g>
<!-- Node24 -->
<g id="node24" class="node"><title>Node24</title>
<g id="a_node24"><a xlink:href="main_8cpp.html#a196f9318f02448b85b28d612698934fd" target="_top" xlink:title="Process protocol messages received from a given node. ">
<polygon fill="white" stroke="black" points="739,-289.555 739,-308.555 837,-308.555 837,-289.555 739,-289.555"/>
<text text-anchor="middle" x="788" y="-296.555" font-family="Helvetica,sans-Serif" font-size="10.00">ProcessMessages</text>
</a>
</g>
</g>
<!-- Node23&#45;&gt;Node24 -->
<g id="edge25" class="edge"><title>Node23&#45;&gt;Node24</title>
<path fill="none" stroke="midnightblue" d="M662.889,-327.466C684.893,-322.429 712.055,-316.211 735.352,-310.878"/>
<polygon fill="midnightblue" stroke="midnightblue" points="736.446,-314.218 745.412,-308.575 734.884,-307.395 736.446,-314.218"/>
</g>
<!-- Node33 -->
<g id="node33" class="node"><title>Node33</title>
<g id="a_node33"><a xlink:href="main_8cpp.html#a711a5bdb30c9c9bbdc83011b1cbbe2f3" target="_top" xlink:title="Send queued protocol messages to be sent to a give node. ">
<polygon fill="white" stroke="red" points="745.5,-517.555 745.5,-536.555 830.5,-536.555 830.5,-517.555 745.5,-517.555"/>
<text text-anchor="middle" x="788" y="-524.555" font-family="Helvetica,sans-Serif" font-size="10.00">SendMessages</text>
</a>
</g>
</g>
<!-- Node23&#45;&gt;Node33 -->
<g id="edge39" class="edge"><title>Node23&#45;&gt;Node33</title>
<path fill="none" stroke="midnightblue" d="M629.46,-346.738C655.872,-376.969 737.082,-469.919 771.416,-509.218"/>
<polygon fill="midnightblue" stroke="midnightblue" points="769.143,-511.935 778.358,-517.163 774.414,-507.33 769.143,-511.935"/>
</g>
<!-- Node24&#45;&gt;Node18 -->
<g id="edge29" class="edge"><title>Node24&#45;&gt;Node18</title>
<path fill="none" stroke="midnightblue" d="M828.992,-289.518C835.94,-287 842.888,-283.883 849,-280.055 868.717,-267.706 865.11,-254.123 885,-242.055 937.559,-210.165 962.78,-231.075 1018,-204.055 1056.46,-185.237 1095.46,-153.677 1117.45,-134.471"/>
<polygon fill="midnightblue" stroke="midnightblue" points="1119.85,-137.021 1125.01,-127.768 1115.21,-131.784 1119.85,-137.021"/>
</g>
<!-- Node24&#45;&gt;Node19 -->
<g id="edge34" class="edge"><title>Node24&#45;&gt;Node19</title>
<path fill="none" stroke="midnightblue" d="M833.41,-289.504C839.038,-287.041 844.42,-283.945 849,-280.055 875.966,-257.151 858.55,-232.553 885,-209.055 895.186,-200.006 909.068,-194.275 921.432,-190.694"/>
<polygon fill="midnightblue" stroke="midnightblue" points="922.52,-194.028 931.345,-188.165 920.79,-187.245 922.52,-194.028"/>
</g>
<!-- Node24&#45;&gt;Node20 -->
<g id="edge35" class="edge"><title>Node24&#45;&gt;Node20</title>
<path fill="none" stroke="midnightblue" d="M835.526,-289.453C840.496,-286.999 845.138,-283.919 849,-280.055 886.556,-242.469 846.99,-203.18 885,-166.055 886.493,-164.597 888.091,-163.249 889.772,-162.004"/>
<polygon fill="midnightblue" stroke="midnightblue" points="892.005,-164.745 898.773,-156.594 888.399,-158.746 892.005,-164.745"/>
</g>
<!-- Node25 -->
<g id="node25" class="node"><title>Node25</title>
<g id="a_node25"><a xlink:href="net_8h.html#a13f289d6233bd32b78a38793f76bdccb" target="_top" xlink:title="SendBufferSize">
<polygon fill="white" stroke="black" points="908.5,-251.555 908.5,-270.555 994.5,-270.555 994.5,-251.555 908.5,-251.555"/>
<text text-anchor="middle" x="951.5" y="-258.555" font-family="Helvetica,sans-Serif" font-size="10.00">SendBufferSize</text>
</a>
</g>
</g>
<!-- Node24&#45;&gt;Node25 -->
<g id="edge26" class="edge"><title>Node24&#45;&gt;Node25</title>
<path fill="none" stroke="midnightblue" d="M829.753,-289.466C851.161,-284.429 877.586,-278.211 900.253,-272.878"/>
<polygon fill="midnightblue" stroke="midnightblue" points="901.107,-276.272 910.04,-270.575 899.504,-269.458 901.107,-276.272"/>
</g>
<!-- Node27 -->
<g id="node27" class="node"><title>Node27</title>
<g id="a_node27"><a xlink:href="class_c_net_message.html#a440150fa0e6a84699780048baca55da8" target="_top" xlink:title="CNetMessage::complete">
<polygon fill="white" stroke="black" points="888.5,-403.555 888.5,-422.555 1014.5,-422.555 1014.5,-403.555 888.5,-403.555"/>
<text text-anchor="middle" x="951.5" y="-410.555" font-family="Helvetica,sans-Serif" font-size="10.00">CNetMessage::complete</text>
</a>
</g>
</g>
<!-- Node24&#45;&gt;Node27 -->
<g id="edge28" class="edge"><title>Node24&#45;&gt;Node27</title>
<path fill="none" stroke="midnightblue" d="M796.04,-308.72C810.513,-327.895 845.579,-370.891 885,-394.055 888.675,-396.214 892.612,-398.142 896.664,-399.861"/>
<polygon fill="midnightblue" stroke="midnightblue" points="895.668,-403.226 906.259,-403.502 898.152,-396.682 895.668,-403.226"/>
</g>
<!-- Node28 -->
<g id="node28" class="node"><title>Node28</title>
<g id="a_node28"><a xlink:href="class_c_message_header.html#a21f5760d034d4a040b00d6c34e927be0" target="_top" xlink:title="CMessageHeader::IsValid">
<polygon fill="white" stroke="black" points="885,-289.555 885,-308.555 1018,-308.555 1018,-289.555 885,-289.555"/>
<text text-anchor="middle" x="951.5" y="-296.555" font-family="Helvetica,sans-Serif" font-size="10.00">CMessageHeader::IsValid</text>
</a>
</g>
</g>
<!-- Node24&#45;&gt;Node28 -->
<g id="edge30" class="edge"><title>Node24&#45;&gt;Node28</title>
<path fill="none" stroke="midnightblue" d="M837.018,-299.055C848.83,-299.055 861.767,-299.055 874.543,-299.055"/>
<polygon fill="midnightblue" stroke="midnightblue" points="874.731,-302.555 884.731,-299.055 874.731,-295.555 874.731,-302.555"/>
</g>
<!-- Node29 -->
<g id="node29" class="node"><title>Node29</title>
<g id="a_node29"><a xlink:href="class_c_message_header.html#a71f022e98bff1acd65be4b75ce4cc038" target="_top" xlink:title="CMessageHeader::GetCommand">
<polygon fill="white" stroke="black" points="1054,-308.555 1054,-327.555 1219,-327.555 1219,-308.555 1054,-308.555"/>
<text text-anchor="middle" x="1136.5" y="-315.555" font-family="Helvetica,sans-Serif" font-size="10.00">CMessageHeader::GetCommand</text>
</a>
</g>
</g>
<!-- Node24&#45;&gt;Node29 -->
<g id="edge33" class="edge"><title>Node24&#45;&gt;Node29</title>
<path fill="none" stroke="midnightblue" d="M827.977,-308.565C845.32,-312.33 866.062,-316.199 885,-318.055 937.32,-323.183 996.082,-323.468 1043.54,-322.34"/>
<polygon fill="midnightblue" stroke="midnightblue" points="1043.89,-325.832 1053.79,-322.071 1043.71,-318.835 1043.89,-325.832"/>
</g>
<!-- Node30 -->
<g id="node30" class="node"><title>Node30</title>
<g id="a_node30"><a xlink:href="glibc__compat_8cpp.html#a0f46826ab0466591e136db24394923cf" target="_top" xlink:title="memcpy">
<polygon fill="white" stroke="red" points="924.5,-365.555 924.5,-384.555 978.5,-384.555 978.5,-365.555 924.5,-365.555"/>
<text text-anchor="middle" x="951.5" y="-372.555" font-family="Helvetica,sans-Serif" font-size="10.00">memcpy</text>
</a>
</g>
</g>
<!-- Node24&#45;&gt;Node30 -->
<g id="edge36" class="edge"><title>Node24&#45;&gt;Node30</title>
<path fill="none" stroke="midnightblue" d="M804.943,-308.622C823.701,-319.657 855.974,-337.959 885,-351.055 894.521,-355.35 905.062,-359.476 914.854,-363.058"/>
<polygon fill="midnightblue" stroke="midnightblue" points="913.737,-366.376 924.332,-366.446 916.093,-359.784 913.737,-366.376"/>
</g>
<!-- Node31 -->
<g id="node31" class="node"><title>Node31</title>
<g id="a_node31"><a xlink:href="class_c_node.html#a204fda3d33404cb37698c085b1583ab2" target="_top" xlink:title="CNode::PushMessage">
<polygon fill="white" stroke="red" points="893,-441.555 893,-460.555 1010,-460.555 1010,-441.555 893,-441.555"/>
<text text-anchor="middle" x="951.5" y="-448.555" font-family="Helvetica,sans-Serif" font-size="10.00">CNode::PushMessage</text>
</a>
</g>
</g>
<!-- Node24&#45;&gt;Node31 -->
<g id="edge37" class="edge"><title>Node24&#45;&gt;Node31</title>
<path fill="none" stroke="midnightblue" d="M793.231,-308.783C804.428,-333.368 837.283,-398.423 885,-432.055 887.844,-434.06 890.899,-435.854 894.078,-437.461"/>
<polygon fill="midnightblue" stroke="midnightblue" points="892.732,-440.693 903.296,-441.509 895.547,-434.284 892.732,-440.693"/>
</g>
<!-- Node32 -->
<g id="node32" class="node"><title>Node32</title>
<g id="a_node32"><a xlink:href="util_8cpp.html#a477231880f761159de1567ad6fb98fac" target="_top" xlink:title="PrintExceptionContinue">
<polygon fill="white" stroke="black" points="891,-23.5548 891,-42.5548 1012,-42.5548 1012,-23.5548 891,-23.5548"/>
<text text-anchor="middle" x="951.5" y="-30.5548" font-family="Helvetica,sans-Serif" font-size="10.00">PrintExceptionContinue</text>
</a>
</g>
</g>
<!-- Node24&#45;&gt;Node32 -->
<g id="edge38" class="edge"><title>Node24&#45;&gt;Node32</title>
<path fill="none" stroke="midnightblue" d="M836.979,-289.526C841.51,-287.052 845.651,-283.948 849,-280.055 915.899,-202.28 817.159,-129.01 885,-52.0548 886.052,-50.8613 887.174,-49.7407 888.356,-48.6888"/>
<polygon fill="midnightblue" stroke="midnightblue" points="890.732,-51.298 896.915,-42.6949 886.717,-45.5641 890.732,-51.298"/>
</g>
<!-- Node26 -->
<g id="node26" class="node"><title>Node26</title>
<g id="a_node26"><a xlink:href="util_8cpp.html#a24f685720bf40370e5bd2a192ad50cd8" target="_top" xlink:title="Return string argument or default value. ">
<polygon fill="white" stroke="black" points="1112.5,-194.555 1112.5,-213.555 1160.5,-213.555 1160.5,-194.555 1112.5,-194.555"/>
<text text-anchor="middle" x="1136.5" y="-201.555" font-family="Helvetica,sans-Serif" font-size="10.00">GetArg</text>
</a>
</g>
</g>
<!-- Node25&#45;&gt;Node26 -->
<g id="edge27" class="edge"><title>Node25&#45;&gt;Node26</title>
<path fill="none" stroke="midnightblue" d="M983.13,-251.514C1016.14,-241.232 1068.5,-224.924 1102.43,-214.356"/>
<polygon fill="midnightblue" stroke="midnightblue" points="1103.82,-217.589 1112.32,-211.273 1101.74,-210.906 1103.82,-217.589"/>
</g>
<!-- Node28&#45;&gt;Node18 -->
<g id="edge31" class="edge"><title>Node28&#45;&gt;Node18</title>
<path fill="none" stroke="midnightblue" d="M1003.68,-289.443C1008.91,-286.987 1013.82,-283.91 1018,-280.055 1051.18,-249.428 1027.67,-221.738 1054,-185.055 1069.19,-163.892 1092.65,-145.566 1110.51,-133.455"/>
<polygon fill="midnightblue" stroke="midnightblue" points="1112.83,-136.122 1119.26,-127.707 1108.98,-130.27 1112.83,-136.122"/>
</g>
<!-- Node28&#45;&gt;Node29 -->
<g id="edge32" class="edge"><title>Node28&#45;&gt;Node29</title>
<path fill="none" stroke="midnightblue" d="M1018.05,-305.861C1026.38,-306.725 1035.02,-307.623 1043.67,-308.52"/>
<polygon fill="midnightblue" stroke="midnightblue" points="1043.49,-312.021 1053.8,-309.572 1044.22,-305.058 1043.49,-312.021"/>
</g>
<!-- Node33&#45;&gt;Node19 -->
<g id="edge48" class="edge"><title>Node33&#45;&gt;Node19</title>
<path fill="none" stroke="midnightblue" d="M791.522,-517.384C803.15,-473.219 852.404,-290.76 885,-242.055 896.109,-225.456 913.265,-210.77 927.233,-200.463"/>
<polygon fill="midnightblue" stroke="midnightblue" points="929.311,-203.28 935.435,-194.634 925.256,-197.574 929.311,-203.28"/>
</g>
<!-- Node33&#45;&gt;Node31 -->
<g id="edge41" class="edge"><title>Node33&#45;&gt;Node31</title>
<path fill="none" stroke="midnightblue" d="M802.714,-517.386C820.827,-504.981 854.056,-483.47 885,-470.055 890.359,-467.732 896.084,-465.598 901.836,-463.668"/>
<polygon fill="midnightblue" stroke="midnightblue" points="903.005,-466.969 911.481,-460.613 900.891,-460.296 903.005,-466.969"/>
</g>
<!-- Node34 -->
<g id="node34" class="node"><title>Node34</title>
<g id="a_node34"><a xlink:href="util_8h.html#a0c5a06b50cd805b1923552114494c029" target="_top" xlink:title="GetTimeMicros">
<polygon fill="white" stroke="black" points="909.5,-669.555 909.5,-688.555 993.5,-688.555 993.5,-669.555 909.5,-669.555"/>
<text text-anchor="middle" x="951.5" y="-676.555" font-family="Helvetica,sans-Serif" font-size="10.00">GetTimeMicros</text>
</a>
</g>
</g>
<!-- Node33&#45;&gt;Node34 -->
<g id="edge40" class="edge"><title>Node33&#45;&gt;Node34</title>
<path fill="none" stroke="midnightblue" d="M793.645,-536.568C805.564,-560.039 839.523,-621.247 885,-655.055 890.551,-659.181 896.885,-662.661 903.376,-665.577"/>
<polygon fill="midnightblue" stroke="midnightblue" points="902.344,-668.936 912.926,-669.456 904.978,-662.45 902.344,-668.936"/>
</g>
<!-- Node35 -->
<g id="node35" class="node"><title>Node35</title>
<g id="a_node35"><a xlink:href="main_8cpp.html#a5edcd96316574fd4a7f3ae0922a5cfd6" target="_top" xlink:title="Check whether we are doing an initial block download (synchronizing from disk or network) ...">
<polygon fill="white" stroke="red" points="893,-517.555 893,-536.555 1010,-536.555 1010,-517.555 893,-517.555"/>
<text text-anchor="middle" x="951.5" y="-524.555" font-family="Helvetica,sans-Serif" font-size="10.00">IsInitialBlockDownload</text>
</a>
</g>
</g>
<!-- Node33&#45;&gt;Node35 -->
<g id="edge42" class="edge"><title>Node33&#45;&gt;Node35</title>
<path fill="none" stroke="midnightblue" d="M830.59,-527.055C846.45,-527.055 864.969,-527.055 882.642,-527.055"/>
<polygon fill="midnightblue" stroke="midnightblue" points="882.923,-530.555 892.923,-527.055 882.923,-523.555 882.923,-530.555"/>
</g>
<!-- Node36 -->
<g id="node36" class="node"><title>Node36</title>
<g id="a_node36"><a xlink:href="util_8cpp.html#a46fac5fba8ba905b5f9acb364f5d8c6f" target="_top" xlink:title="GetTime">
<polygon fill="white" stroke="black" points="1109,-574.555 1109,-593.555 1164,-593.555 1164,-574.555 1109,-574.555"/>
<text text-anchor="middle" x="1136.5" y="-581.555" font-family="Helvetica,sans-Serif" font-size="10.00">GetTime</text>
</a>
</g>
</g>
<!-- Node33&#45;&gt;Node36 -->
<g id="edge44" class="edge"><title>Node33&#45;&gt;Node36</title>
<path fill="none" stroke="midnightblue" d="M794.938,-536.756C808.116,-557.226 842.061,-604.4 885,-622.055 960.931,-653.274 1059.3,-618.773 1107.02,-597.786"/>
<polygon fill="midnightblue" stroke="midnightblue" points="1108.47,-600.973 1116.14,-593.667 1105.59,-594.594 1108.47,-600.973"/>
</g>
<!-- Node37 -->
<g id="node37" class="node"><title>Node37</title>
<g id="a_node37"><a xlink:href="classmruset.html#ac7a85b54646e9d9d1962ce7f30b2a1fc" target="_top" xlink:title="mruset::clear">
<polygon fill="white" stroke="black" points="914.5,-593.555 914.5,-612.555 988.5,-612.555 988.5,-593.555 914.5,-593.555"/>
<text text-anchor="middle" x="951.5" y="-600.555" font-family="Helvetica,sans-Serif" font-size="10.00">mruset::clear</text>
</a>
</g>
</g>
<!-- Node33&#45;&gt;Node37 -->
<g id="edge45" class="edge"><title>Node33&#45;&gt;Node37</title>
<path fill="none" stroke="midnightblue" d="M802.714,-536.724C820.827,-549.128 854.056,-570.64 885,-584.055 891.204,-586.744 897.9,-589.18 904.559,-591.34"/>
<polygon fill="midnightblue" stroke="midnightblue" points="903.641,-594.719 914.228,-594.306 905.694,-588.027 903.641,-594.719"/>
</g>
<!-- Node38 -->
<g id="node38" class="node"><title>Node38</title>
<g id="a_node38"><a xlink:href="net_8cpp.html#a66f5f0bc1dad5cfe429157d5637a93dc" target="_top" xlink:title="GetLocalAddress">
<polygon fill="white" stroke="red" points="905,-555.555 905,-574.555 998,-574.555 998,-555.555 905,-555.555"/>
<text text-anchor="middle" x="951.5" y="-562.555" font-family="Helvetica,sans-Serif" font-size="10.00">GetLocalAddress</text>
</a>
</g>
</g>
<!-- Node33&#45;&gt;Node38 -->
<g id="edge46" class="edge"><title>Node33&#45;&gt;Node38</title>
<path fill="none" stroke="midnightblue" d="M829.753,-536.644C851.161,-541.681 877.586,-547.899 900.253,-553.232"/>
<polygon fill="midnightblue" stroke="midnightblue" points="899.504,-556.651 910.04,-555.535 901.107,-549.837 899.504,-556.651"/>
</g>
<!-- Node39 -->
<g id="node39" class="node"><title>Node39</title>
<g id="a_node39"><a xlink:href="class_c_net_addr.html#a35131b2792434d1c9a860c583b610ab6" target="_top" xlink:title="CNetAddr::IsRoutable">
<polygon fill="white" stroke="red" points="894.5,-479.555 894.5,-498.555 1008.5,-498.555 1008.5,-479.555 894.5,-479.555"/>
<text text-anchor="middle" x="951.5" y="-486.555" font-family="Helvetica,sans-Serif" font-size="10.00">CNetAddr::IsRoutable</text>
</a>
</g>
</g>
<!-- Node33&#45;&gt;Node39 -->
<g id="edge47" class="edge"><title>Node33&#45;&gt;Node39</title>
<path fill="none" stroke="midnightblue" d="M829.753,-517.466C851.161,-512.429 877.586,-506.211 900.253,-500.878"/>
<polygon fill="midnightblue" stroke="midnightblue" points="901.107,-504.272 910.04,-498.575 899.504,-497.458 901.107,-504.272"/>
</g>
<!-- Node35&#45;&gt;Node36 -->
<g id="edge43" class="edge"><title>Node35&#45;&gt;Node36</title>
<path fill="none" stroke="midnightblue" d="M986.217,-536.622C996.445,-539.582 1007.7,-542.896 1018,-546.055 1045.32,-554.432 1076.04,-564.386 1099.22,-572.005"/>
<polygon fill="midnightblue" stroke="midnightblue" points="1098.38,-575.415 1108.97,-575.221 1100.57,-568.767 1098.38,-575.415"/>
</g>
<!-- Node42 -->
<g id="node42" class="node"><title>Node42</title>
<g id="a_node42"><a xlink:href="class_c_wallet_d_b.html#a5660d366fee16ab81f3e7d3a97892486" target="_top" xlink:title="CWalletDB::WriteBestBlock">
<polygon fill="white" stroke="black" points="550.5,-671.555 550.5,-690.555 689.5,-690.555 689.5,-671.555 550.5,-671.555"/>
<text text-anchor="middle" x="620" y="-678.555" font-family="Helvetica,sans-Serif" font-size="10.00">CWalletDB::WriteBestBlock</text>
</a>
</g>
</g>
<!-- Node41&#45;&gt;Node42 -->
<g id="edge51" class="edge"><title>Node41&#45;&gt;Node42</title>
<path fill="none" stroke="midnightblue" d="M493.219,-681.055C508.074,-681.055 524.294,-681.055 539.998,-681.055"/>
<polygon fill="midnightblue" stroke="midnightblue" points="540.224,-684.555 550.224,-681.055 540.223,-677.555 540.224,-684.555"/>
</g>
<!-- Node44 -->
<g id="node44" class="node"><title>Node44</title>
<g id="a_node44"><a xlink:href="class_c_block_index.html#ab843ef9b8b0a0193ec3a5c24738e484f" target="_top" xlink:title="CBlockIndex::GetBlockHash">
<polygon fill="white" stroke="black" points="549,-595.555 549,-614.555 691,-614.555 691,-595.555 549,-595.555"/>
<text text-anchor="middle" x="620" y="-602.555" font-family="Helvetica,sans-Serif" font-size="10.00">CBlockIndex::GetBlockHash</text>
</a>
</g>
</g>
<!-- Node43&#45;&gt;Node44 -->
<g id="edge53" class="edge"><title>Node43&#45;&gt;Node44</title>
<path fill="none" stroke="midnightblue" d="M486.744,-605.055C502.827,-605.055 520.954,-605.055 538.513,-605.055"/>
<polygon fill="midnightblue" stroke="midnightblue" points="538.766,-608.555 548.766,-605.055 538.766,-601.555 538.766,-608.555"/>
</g>
<!-- Node47 -->
<g id="node47" class="node"><title>Node47</title>
<g id="a_node47"><a xlink:href="class_c_coins_view.html#a4e787e72d48e148aadd6f1b94400e6bb" target="_top" xlink:title="CCoinsView::BatchWrite">
<polygon fill="white" stroke="black" points="557.5,-557.555 557.5,-576.555 682.5,-576.555 682.5,-557.555 557.5,-557.555"/>
<text text-anchor="middle" x="620" y="-564.555" font-family="Helvetica,sans-Serif" font-size="10.00">CCoinsView::BatchWrite</text>
</a>
</g>
</g>
<!-- Node46&#45;&gt;Node47 -->
<g id="edge56" class="edge"><title>Node46&#45;&gt;Node47</title>
<path fill="none" stroke="midnightblue" d="M499.096,-567.055C514.58,-567.055 531.23,-567.055 547.048,-567.055"/>
<polygon fill="midnightblue" stroke="midnightblue" points="547.302,-570.555 557.302,-567.055 547.302,-563.555 547.302,-570.555"/>
</g>
<!-- Node48&#45;&gt;Node21 -->
<g id="edge59" class="edge"><title>Node48&#45;&gt;Node21</title>
<path fill="none" stroke="midnightblue" d="M819.749,-257.535C830.314,-254.863 841.386,-250.193 849,-242.055 894.955,-192.937 840.15,-145.184 885,-95.0548 891.227,-88.0951 899.645,-83.1506 908.37,-79.6388"/>
<polygon fill="midnightblue" stroke="midnightblue" points="909.556,-82.9321 917.868,-76.3627 907.273,-76.3147 909.556,-82.9321"/>
</g>
<!-- Node48&#45;&gt;Node26 -->
<g id="edge58" class="edge"><title>Node48&#45;&gt;Node26</title>
<path fill="none" stroke="midnightblue" d="M819.773,-257.179C830.215,-254.465 841.2,-249.861 849,-242.055 886.556,-204.469 842.144,-159.463 885,-128.055 958.886,-73.9048 1071.71,-152.139 1116.36,-187.861"/>
<polygon fill="midnightblue" stroke="midnightblue" points="1114.39,-190.77 1124.35,-194.386 1118.82,-185.349 1114.39,-190.77"/>
</g>
<!-- Node50&#45;&gt;Node32 -->
<g id="edge62" class="edge"><title>Node50&#45;&gt;Node32</title>
<path fill="none" stroke="midnightblue" d="M250.945,-180.994C267.634,-154.429 306.28,-99.7287 355,-75.0548 530.017,13.5813 771.787,-5.89606 885.911,-22.0669"/>
<polygon fill="midnightblue" stroke="midnightblue" points="885.491,-25.5424 895.89,-23.519 886.499,-18.6154 885.491,-25.5424"/>
</g>
</g>
</svg>
