<?xml version="1.0" encoding="UTF-8" standalone="no"?>
<!DOCTYPE svg PUBLIC "-//W3C//DTD SVG 1.1//EN"
 "http://www.w3.org/Graphics/SVG/1.1/DTD/svg11.dtd">
<!-- Generated by graphviz version 2.38.0 (20140413.2041)
 -->
<!-- Title: SendCoinsDialog::removeEntry Pages: 1 -->
<svg width="1090pt" height="203pt"
 viewBox="0.00 0.00 1090.00 203.00" xmlns="http://www.w3.org/2000/svg" xmlns:xlink="http://www.w3.org/1999/xlink">
<g id="graph0" class="graph" transform="scale(1 1) rotate(0) translate(4 199)">
<title>SendCoinsDialog::removeEntry</title>
<polygon fill="white" stroke="none" points="-4,4 -4,-199 1086,-199 1086,4 -4,4"/>
<!-- Node1 -->
<g id="node1" class="node"><title>Node1</title>
<polygon fill="#bfbfbf" stroke="black" points="0,-84 0,-103 156,-103 156,-84 0,-84"/>
<text text-anchor="middle" x="78" y="-91" font-family="Helvetica,sans-Serif" font-size="10.00">SendCoinsDialog::removeEntry</text>
</g>
<!-- Node2 -->
<g id="node2" class="node"><title>Node2</title>
<g id="a_node2"><a xlink:href="class_send_coins_dialog.html#a3d680a76b967641115c6ff2fa83fb62a" target="_top" xlink:title="SendCoinsDialog::addEntry">
<polygon fill="white" stroke="black" points="192,-84 192,-103 331,-103 331,-84 192,-84"/>
<text text-anchor="middle" x="261.5" y="-91" font-family="Helvetica,sans-Serif" font-size="10.00">SendCoinsDialog::addEntry</text>
</a>
</g>
</g>
<!-- Node1&#45;&gt;Node2 -->
<g id="edge1" class="edge"><title>Node1&#45;&gt;Node2</title>
<path fill="none" stroke="midnightblue" d="M166.305,-86.7543C174.915,-86.7327 183.566,-86.7922 191.948,-86.9328"/>
<polygon fill="midnightblue" stroke="midnightblue" points="166.214,-83.2547 156.236,-86.817 166.257,-90.2546 166.214,-83.2547"/>
</g>
<!-- Node2&#45;&gt;Node1 -->
<g id="edge8" class="edge"><title>Node2&#45;&gt;Node1</title>
<path fill="none" stroke="midnightblue" d="M181.724,-100.197C173.269,-100.272 164.673,-100.267 156.236,-100.183"/>
<polygon fill="midnightblue" stroke="midnightblue" points="181.993,-103.694 191.948,-100.067 181.904,-96.695 181.993,-103.694"/>
</g>
<!-- Node3 -->
<g id="node3" class="node"><title>Node3</title>
<g id="a_node3"><a xlink:href="class_send_coins_dialog.html#a0df5bc29d1df68eda44826651afc595f" target="_top" xlink:title="SendCoinsDialog::SendCoins\lDialog">
<polygon fill="white" stroke="black" points="562.5,-164.5 562.5,-194.5 710.5,-194.5 710.5,-164.5 562.5,-164.5"/>
<text text-anchor="start" x="570.5" y="-182.5" font-family="Helvetica,sans-Serif" font-size="10.00">SendCoinsDialog::SendCoins</text>
<text text-anchor="middle" x="636.5" y="-171.5" font-family="Helvetica,sans-Serif" font-size="10.00">Dialog</text>
</a>
</g>
</g>
<!-- Node2&#45;&gt;Node3 -->
<g id="edge2" class="edge"><title>Node2&#45;&gt;Node3</title>
<path fill="none" stroke="midnightblue" d="M288.355,-107.946C309.019,-118.852 339.052,-133.294 367,-141.5 431.596,-160.466 507.806,-170.101 562.498,-174.911"/>
<polygon fill="midnightblue" stroke="midnightblue" points="289.752,-104.724 279.287,-103.07 286.437,-110.889 289.752,-104.724"/>
</g>
<!-- Node4 -->
<g id="node4" class="node"><title>Node4</title>
<g id="a_node4"><a xlink:href="class_send_coins_dialog.html#a127bddff45f49ff5e6e263efe218ae26" target="_top" xlink:title="SendCoinsDialog::clear">
<polygon fill="white" stroke="black" points="381,-113 381,-132 502,-132 502,-113 381,-113"/>
<text text-anchor="middle" x="441.5" y="-120" font-family="Helvetica,sans-Serif" font-size="10.00">SendCoinsDialog::clear</text>
</a>
</g>
</g>
<!-- Node2&#45;&gt;Node4 -->
<g id="edge3" class="edge"><title>Node2&#45;&gt;Node4</title>
<path fill="none" stroke="midnightblue" d="M331.528,-104.746C348.232,-107.468 365.926,-110.35 382.088,-112.983"/>
<polygon fill="midnightblue" stroke="midnightblue" points="331.71,-101.23 321.277,-103.076 330.584,-108.139 331.71,-101.23"/>
</g>
<!-- Node8 -->
<g id="node8" class="node"><title>Node8</title>
<g id="a_node8"><a xlink:href="class_send_coins_dialog.html#a920b2dbf121ca3cfac2adc56e96295f8" target="_top" xlink:title="SendCoinsDialog::setAddress">
<polygon fill="white" stroke="black" points="367,-56 367,-75 516,-75 516,-56 367,-56"/>
<text text-anchor="middle" x="441.5" y="-63" font-family="Helvetica,sans-Serif" font-size="10.00">SendCoinsDialog::setAddress</text>
</a>
</g>
</g>
<!-- Node2&#45;&gt;Node8 -->
<g id="edge9" class="edge"><title>Node2&#45;&gt;Node8</title>
<path fill="none" stroke="midnightblue" d="M333.292,-82.3641C348.759,-79.9311 364.993,-77.3776 380.014,-75.0146"/>
<polygon fill="midnightblue" stroke="midnightblue" points="332.594,-78.9308 323.26,-83.9423 333.682,-85.8458 332.594,-78.9308"/>
</g>
<!-- Node10 -->
<g id="node10" class="node"><title>Node10</title>
<g id="a_node10"><a xlink:href="class_send_coins_dialog.html#a4440d15ced5d217baaad33a17d56b409" target="_top" xlink:title="SendCoinsDialog::pasteEntry">
<polygon fill="white" stroke="black" points="368,-15 368,-34 515,-34 515,-15 368,-15"/>
<text text-anchor="middle" x="441.5" y="-22" font-family="Helvetica,sans-Serif" font-size="10.00">SendCoinsDialog::pasteEntry</text>
</a>
</g>
</g>
<!-- Node2&#45;&gt;Node10 -->
<g id="edge11" class="edge"><title>Node2&#45;&gt;Node10</title>
<path fill="none" stroke="midnightblue" d="M291.032,-79.4375C311.803,-69.5048 340.77,-56.2756 367,-46.5 379.232,-41.9414 392.869,-37.649 405.044,-34.087"/>
<polygon fill="midnightblue" stroke="midnightblue" points="289.308,-76.383 281.824,-83.8817 292.351,-82.6871 289.308,-76.383"/>
</g>
<!-- Node4&#45;&gt;Node3 -->
<g id="edge4" class="edge"><title>Node4&#45;&gt;Node3</title>
<path fill="none" stroke="midnightblue" d="M484.751,-134.978C514.127,-143.654 553.439,-155.264 584.552,-164.453"/>
<polygon fill="midnightblue" stroke="midnightblue" points="485.386,-131.516 474.804,-132.041 483.403,-138.23 485.386,-131.516"/>
</g>
<!-- Node5 -->
<g id="node5" class="node"><title>Node5</title>
<g id="a_node5"><a xlink:href="class_send_coins_dialog.html#a4879553d77d29f522ac92ac04580f4ad" target="_top" xlink:title="SendCoinsDialog::reject">
<polygon fill="white" stroke="black" points="574.5,-126 574.5,-145 698.5,-145 698.5,-126 574.5,-126"/>
<text text-anchor="middle" x="636.5" y="-133" font-family="Helvetica,sans-Serif" font-size="10.00">SendCoinsDialog::reject</text>
</a>
</g>
</g>
<!-- Node4&#45;&gt;Node5 -->
<g id="edge5" class="edge"><title>Node4&#45;&gt;Node5</title>
<path fill="none" stroke="midnightblue" d="M512.366,-127.206C532.66,-128.573 554.659,-130.055 574.373,-131.383"/>
<polygon fill="midnightblue" stroke="midnightblue" points="512.457,-123.704 502.245,-126.524 511.987,-130.688 512.457,-123.704"/>
</g>
<!-- Node6 -->
<g id="node6" class="node"><title>Node6</title>
<g id="a_node6"><a xlink:href="class_send_coins_dialog.html#af2185c3d29e43d37c30669f0def46060" target="_top" xlink:title="SendCoinsDialog::accept">
<polygon fill="white" stroke="black" points="572,-88 572,-107 701,-107 701,-88 572,-88"/>
<text text-anchor="middle" x="636.5" y="-95" font-family="Helvetica,sans-Serif" font-size="10.00">SendCoinsDialog::accept</text>
</a>
</g>
</g>
<!-- Node4&#45;&gt;Node6 -->
<g id="edge6" class="edge"><title>Node4&#45;&gt;Node6</title>
<path fill="none" stroke="midnightblue" d="M512.235,-113.467C531.649,-110.952 552.633,-108.234 571.688,-105.766"/>
<polygon fill="midnightblue" stroke="midnightblue" points="511.712,-110.005 502.245,-114.761 512.611,-116.947 511.712,-110.005"/>
</g>
<!-- Node7 -->
<g id="node7" class="node"><title>Node7</title>
<g id="a_node7"><a xlink:href="class_send_coins_dialog.html#a2cab7cf9ea5040b9e2189297f7d3c764" target="_top" xlink:title="SendCoinsDialog::on\l_sendButton_clicked">
<polygon fill="white" stroke="black" points="772.5,-82.5 772.5,-112.5 882.5,-112.5 882.5,-82.5 772.5,-82.5"/>
<text text-anchor="start" x="780.5" y="-100.5" font-family="Helvetica,sans-Serif" font-size="10.00">SendCoinsDialog::on</text>
<text text-anchor="middle" x="827.5" y="-89.5" font-family="Helvetica,sans-Serif" font-size="10.00">_sendButton_clicked</text>
</a>
</g>
</g>
<!-- Node6&#45;&gt;Node7 -->
<g id="edge7" class="edge"><title>Node6&#45;&gt;Node7</title>
<path fill="none" stroke="midnightblue" d="M711.366,-97.5C731.64,-97.5 753.247,-97.5 772.201,-97.5"/>
<polygon fill="midnightblue" stroke="midnightblue" points="711.223,-94.0001 701.223,-97.5 711.223,-101 711.223,-94.0001"/>
</g>
<!-- Node9 -->
<g id="node9" class="node"><title>Node9</title>
<g id="a_node9"><a xlink:href="class_wallet_view.html#a2a70c2b00b097dd7b83b6915bb037ea3" target="_top" xlink:title="Switch to send coins page. ">
<polygon fill="white" stroke="black" points="555,-50 555,-69 718,-69 718,-50 555,-50"/>
<text text-anchor="middle" x="636.5" y="-57" font-family="Helvetica,sans-Serif" font-size="10.00">WalletView::gotoSendCoinsPage</text>
</a>
</g>
</g>
<!-- Node8&#45;&gt;Node9 -->
<g id="edge10" class="edge"><title>Node8&#45;&gt;Node9</title>
<path fill="none" stroke="midnightblue" d="M526.219,-62.8974C535.698,-62.6026 545.345,-62.3027 554.785,-62.0093"/>
<polygon fill="midnightblue" stroke="midnightblue" points="525.902,-59.4054 516.016,-63.2145 526.12,-66.402 525.902,-59.4054"/>
</g>
<!-- Node11 -->
<g id="node11" class="node"><title>Node11</title>
<g id="a_node11"><a xlink:href="class_send_coins_dialog.html#a82ed6a3badadaa523415e1924ebd292a" target="_top" xlink:title="SendCoinsDialog::handlePayment\lRequest">
<polygon fill="white" stroke="black" points="552,-0.5 552,-30.5 721,-30.5 721,-0.5 552,-0.5"/>
<text text-anchor="start" x="560" y="-18.5" font-family="Helvetica,sans-Serif" font-size="10.00">SendCoinsDialog::handlePayment</text>
<text text-anchor="middle" x="636.5" y="-7.5" font-family="Helvetica,sans-Serif" font-size="10.00">Request</text>
</a>
</g>
</g>
<!-- Node10&#45;&gt;Node11 -->
<g id="edge12" class="edge"><title>Node10&#45;&gt;Node11</title>
<path fill="none" stroke="midnightblue" d="M525.394,-20.6345C534.161,-20.2257 543.08,-19.8097 551.856,-19.4005"/>
<polygon fill="midnightblue" stroke="midnightblue" points="525.016,-17.1482 515.19,-21.1103 525.342,-24.1406 525.016,-17.1482"/>
</g>
<!-- Node12 -->
<g id="node12" class="node"><title>Node12</title>
<g id="a_node12"><a xlink:href="class_wallet_view.html#a0ae21d91a9d7755026ce2a6846cef68d" target="_top" xlink:title="WalletView::handlePayment\lRequest">
<polygon fill="white" stroke="black" points="757,-0.5 757,-30.5 898,-30.5 898,-0.5 757,-0.5"/>
<text text-anchor="start" x="765" y="-18.5" font-family="Helvetica,sans-Serif" font-size="10.00">WalletView::handlePayment</text>
<text text-anchor="middle" x="827.5" y="-7.5" font-family="Helvetica,sans-Serif" font-size="10.00">Request</text>
</a>
</g>
</g>
<!-- Node11&#45;&gt;Node12 -->
<g id="edge13" class="edge"><title>Node11&#45;&gt;Node12</title>
<path fill="none" stroke="midnightblue" d="M731.342,-15.5C739.979,-15.5 748.624,-15.5 756.987,-15.5"/>
<polygon fill="midnightblue" stroke="midnightblue" points="731.224,-12.0001 721.224,-15.5 731.223,-19.0001 731.224,-12.0001"/>
</g>
<!-- Node13 -->
<g id="node13" class="node"><title>Node13</title>
<g id="a_node13"><a xlink:href="class_wallet_frame.html#aa8c5b10f2240df164795619ca41c619c" target="_top" xlink:title="WalletFrame::handlePayment\lRequest">
<polygon fill="white" stroke="black" points="934,-0.5 934,-30.5 1082,-30.5 1082,-0.5 934,-0.5"/>
<text text-anchor="start" x="942" y="-18.5" font-family="Helvetica,sans-Serif" font-size="10.00">WalletFrame::handlePayment</text>
<text text-anchor="middle" x="1008" y="-7.5" font-family="Helvetica,sans-Serif" font-size="10.00">Request</text>
</a>
</g>
</g>
<!-- Node12&#45;&gt;Node13 -->
<g id="edge14" class="edge"><title>Node12&#45;&gt;Node13</title>
<path fill="none" stroke="midnightblue" d="M908.03,-15.5C916.617,-15.5 925.326,-15.5 933.834,-15.5"/>
<polygon fill="midnightblue" stroke="midnightblue" points="908.024,-12.0001 898.024,-15.5 908.024,-19.0001 908.024,-12.0001"/>
</g>
</g>
</svg>
