<?xml version="1.0" encoding="UTF-8" standalone="no"?>
<!DOCTYPE svg PUBLIC "-//W3C//DTD SVG 1.1//EN"
 "http://www.w3.org/Graphics/SVG/1.1/DTD/svg11.dtd">
<!-- Generated by graphviz version 2.38.0 (20140413.2041)
 -->
<!-- Title: CAnoncoinAddress::CAnoncoinAddress Pages: 1 -->
<svg width="669pt" height="66pt"
 viewBox="0.00 0.00 669.00 66.00" xmlns="http://www.w3.org/2000/svg" xmlns:xlink="http://www.w3.org/1999/xlink">
<g id="graph0" class="graph" transform="scale(1 1) rotate(0) translate(4 62)">
<title>CAnoncoinAddress::CAnoncoinAddress</title>
<polygon fill="white" stroke="none" points="-4,4 -4,-62 665,-62 665,4 -4,4"/>
<!-- Node1 -->
<g id="node1" class="node"><title>Node1</title>
<polygon fill="#bfbfbf" stroke="black" points="0,-14 0,-44 157,-44 157,-14 0,-14"/>
<text text-anchor="start" x="8" y="-32" font-family="Helvetica,sans-Serif" font-size="10.00">CAnoncoinAddress::CAnoncoin</text>
<text text-anchor="middle" x="78.5" y="-21" font-family="Helvetica,sans-Serif" font-size="10.00">Address</text>
</g>
<!-- Node2 -->
<g id="node2" class="node"><title>Node2</title>
<g id="a_node2"><a xlink:href="class_c_anoncoin_address.html#a1e22a31f467ccc780ccb6c24e1626ce7" target="_top" xlink:title="CAnoncoinAddress::Set">
<polygon fill="white" stroke="black" points="193,-19.5 193,-38.5 316,-38.5 316,-19.5 193,-19.5"/>
<text text-anchor="middle" x="254.5" y="-26.5" font-family="Helvetica,sans-Serif" font-size="10.00">CAnoncoinAddress::Set</text>
</a>
</g>
</g>
<!-- Node1&#45;&gt;Node2 -->
<g id="edge1" class="edge"><title>Node1&#45;&gt;Node2</title>
<path fill="none" stroke="midnightblue" d="M157.086,-29C165.59,-29 174.216,-29 182.634,-29"/>
<polygon fill="midnightblue" stroke="midnightblue" points="182.775,-32.5001 192.775,-29 182.775,-25.5001 182.775,-32.5001"/>
</g>
<!-- Node3 -->
<g id="node3" class="node"><title>Node3</title>
<g id="a_node3"><a xlink:href="class_c_base58_data.html#afab1c06a0a4f631fd889434a2bc48c27" target="_top" xlink:title="CBase58Data::SetData">
<polygon fill="white" stroke="black" points="352,-38.5 352,-57.5 472,-57.5 472,-38.5 352,-38.5"/>
<text text-anchor="middle" x="412" y="-45.5" font-family="Helvetica,sans-Serif" font-size="10.00">CBase58Data::SetData</text>
</a>
</g>
</g>
<!-- Node2&#45;&gt;Node3 -->
<g id="edge2" class="edge"><title>Node2&#45;&gt;Node3</title>
<path fill="none" stroke="midnightblue" d="M316.066,-36.4003C324.524,-37.4338 333.268,-38.5022 341.87,-39.5532"/>
<polygon fill="midnightblue" stroke="midnightblue" points="341.525,-43.0371 351.876,-40.7758 342.374,-36.0888 341.525,-43.0371"/>
</g>
<!-- Node6 -->
<g id="node6" class="node"><title>Node6</title>
<g id="a_node6"><a xlink:href="chainparams_8cpp.html#ace5c5b706d71a324a417dd2db394fd4a" target="_top" xlink:title="Return the currently selected parameters. ">
<polygon fill="white" stroke="black" points="386.5,-0.5 386.5,-19.5 437.5,-19.5 437.5,-0.5 386.5,-0.5"/>
<text text-anchor="middle" x="412" y="-7.5" font-family="Helvetica,sans-Serif" font-size="10.00">Params</text>
</a>
</g>
</g>
<!-- Node2&#45;&gt;Node6 -->
<g id="edge5" class="edge"><title>Node2&#45;&gt;Node6</title>
<path fill="none" stroke="midnightblue" d="M316.066,-21.5997C336.404,-19.1146 358.394,-16.4277 376.084,-14.2663"/>
<polygon fill="midnightblue" stroke="midnightblue" points="376.988,-17.682 386.489,-12.9949 376.139,-10.7337 376.988,-17.682"/>
</g>
<!-- Node4 -->
<g id="node4" class="node"><title>Node4</title>
<g id="a_node4"><a xlink:href="glibc__compat_8cpp.html#a0f46826ab0466591e136db24394923cf" target="_top" xlink:title="memcpy">
<polygon fill="white" stroke="black" points="508,-38.5 508,-57.5 562,-57.5 562,-38.5 508,-38.5"/>
<text text-anchor="middle" x="535" y="-45.5" font-family="Helvetica,sans-Serif" font-size="10.00">memcpy</text>
</a>
</g>
</g>
<!-- Node3&#45;&gt;Node4 -->
<g id="edge3" class="edge"><title>Node3&#45;&gt;Node4</title>
<path fill="none" stroke="midnightblue" d="M472.082,-48C480.842,-48 489.641,-48 497.745,-48"/>
<polygon fill="midnightblue" stroke="midnightblue" points="497.936,-51.5001 507.936,-48 497.936,-44.5001 497.936,-51.5001"/>
</g>
<!-- Node5 -->
<g id="node5" class="node"><title>Node5</title>
<g id="a_node5"><a xlink:href="glibc__compat_8cpp.html#a9778d49e9029dd75bc53ecbbf9f5e9a1" target="_top" xlink:title="memmove">
<polygon fill="white" stroke="black" points="598,-38.5 598,-57.5 661,-57.5 661,-38.5 598,-38.5"/>
<text text-anchor="middle" x="629.5" y="-45.5" font-family="Helvetica,sans-Serif" font-size="10.00">memmove</text>
</a>
</g>
</g>
<!-- Node4&#45;&gt;Node5 -->
<g id="edge4" class="edge"><title>Node4&#45;&gt;Node5</title>
<path fill="none" stroke="midnightblue" d="M562.259,-48C570.244,-48 579.214,-48 587.912,-48"/>
<polygon fill="midnightblue" stroke="midnightblue" points="587.924,-51.5001 597.924,-48 587.924,-44.5001 587.924,-51.5001"/>
</g>
</g>
</svg>
