<?xml version="1.0" encoding="UTF-8" standalone="no"?>
<!DOCTYPE svg PUBLIC "-//W3C//DTD SVG 1.1//EN"
 "http://www.w3.org/Graphics/SVG/1.1/DTD/svg11.dtd">
<!-- Generated by graphviz version 2.38.0 (20140413.2041)
 -->
<!-- Title: CWalletTx::GetImmatureWatchOnlyCredit Pages: 1 -->
<svg width="567pt" height="84pt"
 viewBox="0.00 0.00 567.00 84.00" xmlns="http://www.w3.org/2000/svg" xmlns:xlink="http://www.w3.org/1999/xlink">
<g id="graph0" class="graph" transform="scale(1 1) rotate(0) translate(4 80)">
<title>CWalletTx::GetImmatureWatchOnlyCredit</title>
<polygon fill="white" stroke="none" points="-4,4 -4,-80 563,-80 563,4 -4,4"/>
<!-- Node1 -->
<g id="node1" class="node"><title>Node1</title>
<polygon fill="#bfbfbf" stroke="black" points="0,-23 0,-53 155,-53 155,-23 0,-23"/>
<text text-anchor="start" x="8" y="-41" font-family="Helvetica,sans-Serif" font-size="10.00">CWalletTx::GetImmatureWatch</text>
<text text-anchor="middle" x="77.5" y="-30" font-family="Helvetica,sans-Serif" font-size="10.00">OnlyCredit</text>
</g>
<!-- Node2 -->
<g id="node2" class="node"><title>Node2</title>
<g id="a_node2"><a xlink:href="class_c_wallet.html#a9ec15c32442fcceb95425d8b36492544" target="_top" xlink:title="CWallet::GetCredit">
<polygon fill="white" stroke="black" points="191,-28.5 191,-47.5 291,-47.5 291,-28.5 191,-28.5"/>
<text text-anchor="middle" x="241" y="-35.5" font-family="Helvetica,sans-Serif" font-size="10.00">CWallet::GetCredit</text>
</a>
</g>
</g>
<!-- Node1&#45;&gt;Node2 -->
<g id="edge1" class="edge"><title>Node1&#45;&gt;Node2</title>
<path fill="none" stroke="midnightblue" d="M155.466,-38C163.92,-38 172.43,-38 180.623,-38"/>
<polygon fill="midnightblue" stroke="midnightblue" points="180.805,-41.5001 190.805,-38 180.804,-34.5001 180.805,-41.5001"/>
</g>
<!-- Node3 -->
<g id="node3" class="node"><title>Node3</title>
<g id="a_node3"><a xlink:href="core_8h.html#ad1d9a769fa327ea042e0c9fadeb4836b" target="_top" xlink:title="MoneyRange">
<polygon fill="white" stroke="black" points="327,-56.5 327,-75.5 403,-75.5 403,-56.5 327,-56.5"/>
<text text-anchor="middle" x="365" y="-63.5" font-family="Helvetica,sans-Serif" font-size="10.00">MoneyRange</text>
</a>
</g>
</g>
<!-- Node2&#45;&gt;Node3 -->
<g id="edge2" class="edge"><title>Node2&#45;&gt;Node3</title>
<path fill="none" stroke="midnightblue" d="M283.644,-47.5577C294.32,-50.0078 305.878,-52.6605 316.811,-55.1698"/>
<polygon fill="midnightblue" stroke="midnightblue" points="316.104,-58.5983 326.633,-57.424 317.669,-51.7757 316.104,-58.5983"/>
</g>
<!-- Node4 -->
<g id="node4" class="node"><title>Node4</title>
<g id="a_node4"><a xlink:href="script_8cpp.html#adc59cf67d903c1ba1ef225561b85bfce" target="_top" xlink:title="IsMine">
<polygon fill="white" stroke="black" points="342,-0.5 342,-19.5 388,-19.5 388,-0.5 342,-0.5"/>
<text text-anchor="middle" x="365" y="-7.5" font-family="Helvetica,sans-Serif" font-size="10.00">IsMine</text>
</a>
</g>
</g>
<!-- Node2&#45;&gt;Node4 -->
<g id="edge3" class="edge"><title>Node2&#45;&gt;Node4</title>
<path fill="none" stroke="midnightblue" d="M283.644,-28.4423C299.308,-24.8473 316.872,-20.8163 331.574,-17.4419"/>
<polygon fill="midnightblue" stroke="midnightblue" points="332.743,-20.7649 341.706,-15.1165 331.177,-13.9422 332.743,-20.7649"/>
</g>
<!-- Node4&#45;&gt;Node4 -->
<g id="edge5" class="edge"><title>Node4&#45;&gt;Node4</title>
<path fill="none" stroke="midnightblue" d="M345.888,-19.7571C336.59,-28.5653 342.961,-38 365,-38 379.119,-38 386.807,-34.128 388.065,-29.0292"/>
<polygon fill="midnightblue" stroke="midnightblue" points="391.254,-27.5831 384.112,-19.7571 384.815,-30.3286 391.254,-27.5831"/>
</g>
<!-- Node5 -->
<g id="node5" class="node"><title>Node5</title>
<g id="a_node5"><a xlink:href="class_c_script.html#ad1b5a9077241aa06116040c4f1b7c31e" target="_top" xlink:title="CScript::SetDestination">
<polygon fill="white" stroke="black" points="439,-0.5 439,-19.5 559,-19.5 559,-0.5 439,-0.5"/>
<text text-anchor="middle" x="499" y="-7.5" font-family="Helvetica,sans-Serif" font-size="10.00">CScript::SetDestination</text>
</a>
</g>
</g>
<!-- Node4&#45;&gt;Node5 -->
<g id="edge4" class="edge"><title>Node4&#45;&gt;Node5</title>
<path fill="none" stroke="midnightblue" d="M388.094,-10C399.424,-10 413.913,-10 428.627,-10"/>
<polygon fill="midnightblue" stroke="midnightblue" points="428.813,-13.5001 438.813,-10 428.813,-6.5001 428.813,-13.5001"/>
</g>
</g>
</svg>
