<?xml version="1.0" encoding="UTF-8" standalone="no"?>
<!DOCTYPE svg PUBLIC "-//W3C//DTD SVG 1.1//EN"
 "http://www.w3.org/Graphics/SVG/1.1/DTD/svg11.dtd">
<!-- Generated by graphviz version 2.38.0 (20140413.2041)
 -->
<!-- Title: CCrypter::SetKeyFromPassphrase Pages: 1 -->
<svg width="736pt" height="218pt"
 viewBox="0.00 0.00 736.00 218.00" xmlns="http://www.w3.org/2000/svg" xmlns:xlink="http://www.w3.org/1999/xlink">
<g id="graph0" class="graph" transform="scale(1 1) rotate(0) translate(4 214)">
<title>CCrypter::SetKeyFromPassphrase</title>
<polygon fill="white" stroke="none" points="-4,4 -4,-214 732,-214 732,4 -4,4"/>
<!-- Node1 -->
<g id="node1" class="node"><title>Node1</title>
<polygon fill="#bfbfbf" stroke="black" points="0,-95.5 0,-114.5 170,-114.5 170,-95.5 0,-95.5"/>
<text text-anchor="middle" x="85" y="-102.5" font-family="Helvetica,sans-Serif" font-size="10.00">CCrypter::SetKeyFromPassphrase</text>
</g>
<!-- Node2 -->
<g id="node2" class="node"><title>Node2</title>
<g id="a_node2"><a xlink:href="class_c_wallet.html#a002c61a2b74f2c46063340c568e6cc1b" target="_top" xlink:title="CWallet::Unlock">
<polygon fill="white" stroke="black" points="248.5,-152.5 248.5,-171.5 336.5,-171.5 336.5,-152.5 248.5,-152.5"/>
<text text-anchor="middle" x="292.5" y="-159.5" font-family="Helvetica,sans-Serif" font-size="10.00">CWallet::Unlock</text>
</a>
</g>
</g>
<!-- Node1&#45;&gt;Node2 -->
<g id="edge1" class="edge"><title>Node1&#45;&gt;Node2</title>
<path fill="none" stroke="midnightblue" d="M130.166,-117.25C168.133,-127.781 222.128,-142.758 256.992,-152.428"/>
<polygon fill="midnightblue" stroke="midnightblue" points="130.968,-113.841 120.396,-114.541 129.097,-120.586 130.968,-113.841"/>
</g>
<!-- Node6 -->
<g id="node6" class="node"><title>Node6</title>
<g id="a_node6"><a xlink:href="class_c_wallet.html#a4abcec3066e7c462f4564c159fc15031" target="_top" xlink:title="CWallet::ChangeWalletPassphrase">
<polygon fill="white" stroke="black" points="206,-95.5 206,-114.5 379,-114.5 379,-95.5 206,-95.5"/>
<text text-anchor="middle" x="292.5" y="-102.5" font-family="Helvetica,sans-Serif" font-size="10.00">CWallet::ChangeWalletPassphrase</text>
</a>
</g>
</g>
<!-- Node1&#45;&gt;Node6 -->
<g id="edge5" class="edge"><title>Node1&#45;&gt;Node6</title>
<path fill="none" stroke="midnightblue" d="M180.435,-105C188.888,-105 197.416,-105 205.789,-105"/>
<polygon fill="midnightblue" stroke="midnightblue" points="180.178,-101.5 170.178,-105 180.178,-108.5 180.178,-101.5"/>
</g>
<!-- Node9 -->
<g id="node9" class="node"><title>Node9</title>
<g id="a_node9"><a xlink:href="class_c_wallet.html#ab34fe5bf771619dcbe22a65f013e5469" target="_top" xlink:title="CWallet::EncryptWallet">
<polygon fill="white" stroke="black" points="233,-38.5 233,-57.5 352,-57.5 352,-38.5 233,-38.5"/>
<text text-anchor="middle" x="292.5" y="-45.5" font-family="Helvetica,sans-Serif" font-size="10.00">CWallet::EncryptWallet</text>
</a>
</g>
</g>
<!-- Node1&#45;&gt;Node9 -->
<g id="edge9" class="edge"><title>Node1&#45;&gt;Node9</title>
<path fill="none" stroke="midnightblue" d="M130.166,-92.7497C168.133,-82.2185 222.128,-67.2418 256.992,-57.5716"/>
<polygon fill="midnightblue" stroke="midnightblue" points="129.097,-89.4139 120.396,-95.4595 130.968,-96.1593 129.097,-89.4139"/>
</g>
<!-- Node3 -->
<g id="node3" class="node"><title>Node3</title>
<g id="a_node3"><a xlink:href="class_wallet_model.html#a6d7ebdcf0d28d058c658eb44a6c4a6c6" target="_top" xlink:title="WalletModel::setWalletLocked">
<polygon fill="white" stroke="black" points="421.5,-190.5 421.5,-209.5 571.5,-209.5 571.5,-190.5 421.5,-190.5"/>
<text text-anchor="middle" x="496.5" y="-197.5" font-family="Helvetica,sans-Serif" font-size="10.00">WalletModel::setWalletLocked</text>
</a>
</g>
</g>
<!-- Node2&#45;&gt;Node3 -->
<g id="edge2" class="edge"><title>Node2&#45;&gt;Node3</title>
<path fill="none" stroke="midnightblue" d="M346.806,-172.028C377.117,-177.73 414.867,-184.832 444.746,-190.452"/>
<polygon fill="midnightblue" stroke="midnightblue" points="347.309,-168.561 336.834,-170.152 346.015,-175.44 347.309,-168.561"/>
</g>
<!-- Node5 -->
<g id="node5" class="node"><title>Node5</title>
<g id="a_node5"><a xlink:href="rpcwallet_8cpp.html#a733f7c70e7c18783935e6de9643c0086" target="_top" xlink:title="walletpassphrase">
<polygon fill="white" stroke="black" points="449.5,-152.5 449.5,-171.5 543.5,-171.5 543.5,-152.5 449.5,-152.5"/>
<text text-anchor="middle" x="496.5" y="-159.5" font-family="Helvetica,sans-Serif" font-size="10.00">walletpassphrase</text>
</a>
</g>
</g>
<!-- Node2&#45;&gt;Node5 -->
<g id="edge4" class="edge"><title>Node2&#45;&gt;Node5</title>
<path fill="none" stroke="midnightblue" d="M346.882,-162C378.787,-162 418.914,-162 449.428,-162"/>
<polygon fill="midnightblue" stroke="midnightblue" points="346.834,-158.5 336.834,-162 346.834,-165.5 346.834,-158.5"/>
</g>
<!-- Node4 -->
<g id="node4" class="node"><title>Node4</title>
<g id="a_node4"><a xlink:href="class_ask_passphrase_dialog.html#ac2f176af3693b73870d26ef0bfc6cbb9" target="_top" xlink:title="AskPassphraseDialog\l::accept">
<polygon fill="white" stroke="black" points="614,-109 614,-139 728,-139 728,-109 614,-109"/>
<text text-anchor="start" x="622" y="-127" font-family="Helvetica,sans-Serif" font-size="10.00">AskPassphraseDialog</text>
<text text-anchor="middle" x="671" y="-116" font-family="Helvetica,sans-Serif" font-size="10.00">::accept</text>
</a>
</g>
</g>
<!-- Node3&#45;&gt;Node4 -->
<g id="edge3" class="edge"><title>Node3&#45;&gt;Node4</title>
<path fill="none" stroke="midnightblue" d="M558.666,-187.775C565.289,-185.801 571.851,-183.551 578,-181 604.38,-170.057 631.867,-152.014 649.847,-139.16"/>
<polygon fill="midnightblue" stroke="midnightblue" points="557.655,-184.424 548.958,-190.474 559.53,-191.168 557.655,-184.424"/>
</g>
<!-- Node7 -->
<g id="node7" class="node"><title>Node7</title>
<g id="a_node7"><a xlink:href="class_wallet_model.html#a67ebff3f267b5c9973c0465184c085a4" target="_top" xlink:title="WalletModel::changePassphrase">
<polygon fill="white" stroke="black" points="415,-114.5 415,-133.5 578,-133.5 578,-114.5 415,-114.5"/>
<text text-anchor="middle" x="496.5" y="-121.5" font-family="Helvetica,sans-Serif" font-size="10.00">WalletModel::changePassphrase</text>
</a>
</g>
</g>
<!-- Node6&#45;&gt;Node7 -->
<g id="edge6" class="edge"><title>Node6&#45;&gt;Node7</title>
<path fill="none" stroke="midnightblue" d="M389.2,-114.001C397.779,-114.808 406.41,-115.62 414.843,-116.413"/>
<polygon fill="midnightblue" stroke="midnightblue" points="389.45,-110.51 379.166,-113.058 388.794,-117.479 389.45,-110.51"/>
</g>
<!-- Node8 -->
<g id="node8" class="node"><title>Node8</title>
<g id="a_node8"><a xlink:href="rpcwallet_8cpp.html#a84ad884957e24688433be32a9ca70933" target="_top" xlink:title="walletpassphrasechange">
<polygon fill="white" stroke="black" points="433,-76.5 433,-95.5 560,-95.5 560,-76.5 433,-76.5"/>
<text text-anchor="middle" x="496.5" y="-83.5" font-family="Helvetica,sans-Serif" font-size="10.00">walletpassphrasechange</text>
</a>
</g>
</g>
<!-- Node6&#45;&gt;Node8 -->
<g id="edge8" class="edge"><title>Node6&#45;&gt;Node8</title>
<path fill="none" stroke="midnightblue" d="M389.383,-95.9813C404.196,-94.588 419.157,-93.1807 432.987,-91.88"/>
<polygon fill="midnightblue" stroke="midnightblue" points="388.794,-92.5211 379.166,-96.9423 389.45,-99.4904 388.794,-92.5211"/>
</g>
<!-- Node7&#45;&gt;Node4 -->
<g id="edge7" class="edge"><title>Node7&#45;&gt;Node4</title>
<path fill="none" stroke="midnightblue" d="M588.418,-124C597.12,-124 605.758,-124 613.977,-124"/>
<polygon fill="midnightblue" stroke="midnightblue" points="588.194,-120.5 578.194,-124 588.194,-127.5 588.194,-120.5"/>
</g>
<!-- Node10 -->
<g id="node10" class="node"><title>Node10</title>
<g id="a_node10"><a xlink:href="class_wallet_model.html#a444340830badcd48e3a4dd6b03d9c4d7" target="_top" xlink:title="WalletModel::setWalletEncrypted">
<polygon fill="white" stroke="black" points="415,-38.5 415,-57.5 578,-57.5 578,-38.5 415,-38.5"/>
<text text-anchor="middle" x="496.5" y="-45.5" font-family="Helvetica,sans-Serif" font-size="10.00">WalletModel::setWalletEncrypted</text>
</a>
</g>
</g>
<!-- Node9&#45;&gt;Node10 -->
<g id="edge10" class="edge"><title>Node9&#45;&gt;Node10</title>
<path fill="none" stroke="midnightblue" d="M362.499,-48C379.348,-48 397.522,-48 414.861,-48"/>
<polygon fill="midnightblue" stroke="midnightblue" points="362.198,-44.5001 352.198,-48 362.198,-51.5001 362.198,-44.5001"/>
</g>
<!-- Node11 -->
<g id="node11" class="node"><title>Node11</title>
<g id="a_node11"><a xlink:href="rpcwallet_8cpp.html#a5fb49bac2748015a256c63e9f8ccc539" target="_top" xlink:title="encryptwallet">
<polygon fill="white" stroke="black" points="459,-0.5 459,-19.5 534,-19.5 534,-0.5 459,-0.5"/>
<text text-anchor="middle" x="496.5" y="-7.5" font-family="Helvetica,sans-Serif" font-size="10.00">encryptwallet</text>
</a>
</g>
</g>
<!-- Node9&#45;&gt;Node11 -->
<g id="edge12" class="edge"><title>Node9&#45;&gt;Node11</title>
<path fill="none" stroke="midnightblue" d="M354.073,-36.6052C388.158,-30.193 429.602,-22.3967 458.788,-16.9062"/>
<polygon fill="midnightblue" stroke="midnightblue" points="353.393,-33.1715 344.212,-38.46 354.687,-40.0509 353.393,-33.1715"/>
</g>
<!-- Node10&#45;&gt;Node4 -->
<g id="edge11" class="edge"><title>Node10&#45;&gt;Node4</title>
<path fill="none" stroke="midnightblue" d="M558.666,-60.2246C565.289,-62.1991 571.851,-64.4492 578,-67 604.38,-77.9434 631.867,-95.9863 649.847,-108.84"/>
<polygon fill="midnightblue" stroke="midnightblue" points="559.53,-56.8323 548.958,-57.5258 557.655,-63.5765 559.53,-56.8323"/>
</g>
</g>
</svg>
