<?xml version="1.0" encoding="UTF-8" standalone="no"?>
<!DOCTYPE svg PUBLIC "-//W3C//DTD SVG 1.1//EN"
 "http://www.w3.org/Graphics/SVG/1.1/DTD/svg11.dtd">
<!-- Generated by graphviz version 2.38.0 (20140413.2041)
 -->
<!-- Title: CBloomFilter::insert Pages: 1 -->
<svg width="457pt" height="28pt"
 viewBox="0.00 0.00 457.00 28.00" xmlns="http://www.w3.org/2000/svg" xmlns:xlink="http://www.w3.org/1999/xlink">
<g id="graph0" class="graph" transform="scale(1 1) rotate(0) translate(4 24)">
<title>CBloomFilter::insert</title>
<polygon fill="white" stroke="none" points="-4,4 -4,-24 453,-24 453,4 -4,4"/>
<!-- Node1 -->
<g id="node1" class="node"><title>Node1</title>
<polygon fill="#bfbfbf" stroke="black" points="0,-0.5 0,-19.5 104,-19.5 104,-0.5 0,-0.5"/>
<text text-anchor="middle" x="52" y="-7.5" font-family="Helvetica,sans-Serif" font-size="10.00">CBloomFilter::insert</text>
</g>
<!-- Node2 -->
<g id="node2" class="node"><title>Node2</title>
<g id="a_node2"><a xlink:href="class_c_bloom_filter.html#aa4381af6e52b4f2279d790738b868509" target="_top" xlink:title="CBloomFilter::Hash">
<polygon fill="white" stroke="black" points="140,-0.5 140,-19.5 243,-19.5 243,-0.5 140,-0.5"/>
<text text-anchor="middle" x="191.5" y="-7.5" font-family="Helvetica,sans-Serif" font-size="10.00">CBloomFilter::Hash</text>
</a>
</g>
</g>
<!-- Node1&#45;&gt;Node2 -->
<g id="edge1" class="edge"><title>Node1&#45;&gt;Node2</title>
<path fill="none" stroke="midnightblue" d="M104.2,-10C112.451,-10 121.063,-10 129.517,-10"/>
<polygon fill="midnightblue" stroke="midnightblue" points="129.715,-13.5001 139.715,-10 129.715,-6.5001 129.715,-13.5001"/>
</g>
<!-- Node3 -->
<g id="node3" class="node"><title>Node3</title>
<g id="a_node3"><a xlink:href="hash_8cpp.html#a3cf0406d24590eaad9a3163c552e9730" target="_top" xlink:title="MurmurHash3">
<polygon fill="white" stroke="black" points="279,-0.5 279,-19.5 359,-19.5 359,-0.5 279,-0.5"/>
<text text-anchor="middle" x="319" y="-7.5" font-family="Helvetica,sans-Serif" font-size="10.00">MurmurHash3</text>
</a>
</g>
</g>
<!-- Node2&#45;&gt;Node3 -->
<g id="edge2" class="edge"><title>Node2&#45;&gt;Node3</title>
<path fill="none" stroke="midnightblue" d="M243.184,-10C251.599,-10 260.316,-10 268.696,-10"/>
<polygon fill="midnightblue" stroke="midnightblue" points="268.709,-13.5001 278.709,-10 268.709,-6.5001 268.709,-13.5001"/>
</g>
<!-- Node4 -->
<g id="node4" class="node"><title>Node4</title>
<g id="a_node4"><a xlink:href="hash_8cpp.html#aa8045f521ac28bee04e4980f93272dc0" target="_top" xlink:title="ROTL32">
<polygon fill="white" stroke="black" points="395,-0.5 395,-19.5 449,-19.5 449,-0.5 395,-0.5"/>
<text text-anchor="middle" x="422" y="-7.5" font-family="Helvetica,sans-Serif" font-size="10.00">ROTL32</text>
</a>
</g>
</g>
<!-- Node3&#45;&gt;Node4 -->
<g id="edge3" class="edge"><title>Node3&#45;&gt;Node4</title>
<path fill="none" stroke="midnightblue" d="M359.049,-10C367.48,-10 376.36,-10 384.681,-10"/>
<polygon fill="midnightblue" stroke="midnightblue" points="384.846,-13.5001 394.846,-10 384.846,-6.5001 384.846,-13.5001"/>
</g>
</g>
</svg>
