<?xml version="1.0" encoding="UTF-8" standalone="no"?>
<!DOCTYPE svg PUBLIC "-//W3C//DTD SVG 1.1//EN"
 "http://www.w3.org/Graphics/SVG/1.1/DTD/svg11.dtd">
<!-- Generated by graphviz version 2.38.0 (20140413.2041)
 -->
<!-- Title: CNetAddr::GetNetwork Pages: 1 -->
<svg width="1308pt" height="195pt"
 viewBox="0.00 0.00 1308.00 194.93" xmlns="http://www.w3.org/2000/svg" xmlns:xlink="http://www.w3.org/1999/xlink">
<g id="graph0" class="graph" transform="scale(1 1) rotate(0) translate(4 190.933)">
<title>CNetAddr::GetNetwork</title>
<polygon fill="white" stroke="none" points="-4,4 -4,-190.933 1304,-190.933 1304,4 -4,4"/>
<!-- Node1 -->
<g id="node1" class="node"><title>Node1</title>
<polygon fill="#bfbfbf" stroke="black" points="0,-95.5 0,-114.5 119,-114.5 119,-95.5 0,-95.5"/>
<text text-anchor="middle" x="59.5" y="-102.5" font-family="Helvetica,sans-Serif" font-size="10.00">CNetAddr::GetNetwork</text>
</g>
<!-- Node2 -->
<g id="node2" class="node"><title>Node2</title>
<g id="a_node2"><a xlink:href="net_8h.html#a337d6af198a6b0d75f830e56da9b91e9" target="_top" xlink:title="AddLocal">
<polygon fill="white" stroke="black" points="451,-152.5 451,-171.5 509,-171.5 509,-152.5 451,-152.5"/>
<text text-anchor="middle" x="480" y="-159.5" font-family="Helvetica,sans-Serif" font-size="10.00">AddLocal</text>
</a>
</g>
</g>
<!-- Node1&#45;&gt;Node2 -->
<g id="edge1" class="edge"><title>Node1&#45;&gt;Node2</title>
<path fill="none" stroke="midnightblue" d="M88.357,-118.987C106.782,-127.532 131.744,-137.788 155,-143 262.217,-167.027 394.085,-165.474 450.841,-163.37"/>
<polygon fill="midnightblue" stroke="midnightblue" points="89.6376,-115.72 79.1038,-114.585 86.6304,-122.041 89.6376,-115.72"/>
</g>
<!-- Node10 -->
<g id="node10" class="node"><title>Node10</title>
<g id="a_node10"><a xlink:href="net_8h.html#a7f5f5a0bf934e49c7137ee4aa6eb8732" target="_top" xlink:title="IsLimited">
<polygon fill="white" stroke="black" points="168.5,-114.5 168.5,-133.5 225.5,-133.5 225.5,-114.5 168.5,-114.5"/>
<text text-anchor="middle" x="197" y="-121.5" font-family="Helvetica,sans-Serif" font-size="10.00">IsLimited</text>
</a>
</g>
</g>
<!-- Node1&#45;&gt;Node10 -->
<g id="edge9" class="edge"><title>Node1&#45;&gt;Node10</title>
<path fill="none" stroke="midnightblue" d="M129.175,-114.63C142.983,-116.566 156.741,-118.495 168.151,-120.095"/>
<polygon fill="midnightblue" stroke="midnightblue" points="129.533,-111.146 119.144,-113.223 128.561,-118.078 129.533,-111.146"/>
</g>
<!-- Node11 -->
<g id="node11" class="node"><title>Node11</title>
<g id="a_node11"><a xlink:href="net_8h.html#a0eb7db987ad1a1bf139d0cd46873ed29" target="_top" xlink:title="check whether a given address is in a network we can probably connect to ">
<polygon fill="white" stroke="black" points="161,-76.5 161,-95.5 233,-95.5 233,-76.5 161,-76.5"/>
<text text-anchor="middle" x="197" y="-83.5" font-family="Helvetica,sans-Serif" font-size="10.00">IsReachable</text>
</a>
</g>
</g>
<!-- Node1&#45;&gt;Node11 -->
<g id="edge10" class="edge"><title>Node1&#45;&gt;Node11</title>
<path fill="none" stroke="midnightblue" d="M129.158,-95.3727C140.088,-93.84 150.987,-92.3118 160.715,-90.9477"/>
<polygon fill="midnightblue" stroke="midnightblue" points="128.561,-91.922 119.144,-96.7768 129.533,-98.8542 128.561,-91.922"/>
</g>
<!-- Node12 -->
<g id="node12" class="node"><title>Node12</title>
<g id="a_node12"><a xlink:href="netbase_8h.html#a1647b6ef2c58fd2f57f9243d3f17093d" target="_top" xlink:title="ConnectSocket">
<polygon fill="white" stroke="black" points="155,-38.5 155,-57.5 239,-57.5 239,-38.5 155,-38.5"/>
<text text-anchor="middle" x="197" y="-45.5" font-family="Helvetica,sans-Serif" font-size="10.00">ConnectSocket</text>
</a>
</g>
</g>
<!-- Node1&#45;&gt;Node12 -->
<g id="edge11" class="edge"><title>Node1&#45;&gt;Node12</title>
<path fill="none" stroke="midnightblue" d="M92.5429,-91.5207C117.364,-81.0792 151.139,-66.8715 173.246,-57.5716"/>
<polygon fill="midnightblue" stroke="midnightblue" points="91.0401,-88.3557 83.1797,-95.4595 93.7545,-94.8081 91.0401,-88.3557"/>
</g>
<!-- Node3 -->
<g id="node3" class="node"><title>Node3</title>
<g id="a_node3"><a xlink:href="init_8h.html#a1a4c1bfbf6ba1db77e988b89b9cadfd3" target="_top" xlink:title="Initialize anoncoin. ">
<polygon fill="white" stroke="black" points="1017,-133.5 1017,-152.5 1070,-152.5 1070,-133.5 1017,-133.5"/>
<text text-anchor="middle" x="1043.5" y="-140.5" font-family="Helvetica,sans-Serif" font-size="10.00">AppInit2</text>
</a>
</g>
</g>
<!-- Node2&#45;&gt;Node3 -->
<g id="edge2" class="edge"><title>Node2&#45;&gt;Node3</title>
<path fill="none" stroke="midnightblue" d="M519.077,-172.837C532.521,-176.155 547.822,-179.359 562,-181 735.318,-201.055 945.049,-163.236 1016.91,-148.511"/>
<polygon fill="midnightblue" stroke="midnightblue" points="519.763,-169.4 509.207,-170.303 518.022,-176.18 519.763,-169.4"/>
</g>
<!-- Node7 -->
<g id="node7" class="node"><title>Node7</title>
<g id="a_node7"><a xlink:href="net_8h.html#abda4e8f87772f9a9d9d8f52a93791ffc" target="_top" xlink:title="AddLocal">
<polygon fill="white" stroke="black" points="597,-152.5 597,-171.5 655,-171.5 655,-152.5 597,-152.5"/>
<text text-anchor="middle" x="626" y="-159.5" font-family="Helvetica,sans-Serif" font-size="10.00">AddLocal</text>
</a>
</g>
</g>
<!-- Node2&#45;&gt;Node7 -->
<g id="edge6" class="edge"><title>Node2&#45;&gt;Node7</title>
<path fill="none" stroke="midnightblue" d="M519.127,-162C543.579,-162 574.782,-162 596.964,-162"/>
<polygon fill="midnightblue" stroke="midnightblue" points="519.107,-158.5 509.106,-162 519.106,-165.5 519.107,-158.5"/>
</g>
<!-- Node8 -->
<g id="node8" class="node"><title>Node8</title>
<g id="a_node8"><a xlink:href="net_8cpp.html#a1148dd8edf6d69bebabe041ba6da6158" target="_top" xlink:title="ThreadGetMyExternalIP">
<polygon fill="white" stroke="black" points="564,-76.5 564,-95.5 688,-95.5 688,-76.5 564,-76.5"/>
<text text-anchor="middle" x="626" y="-83.5" font-family="Helvetica,sans-Serif" font-size="10.00">ThreadGetMyExternalIP</text>
</a>
</g>
</g>
<!-- Node2&#45;&gt;Node8 -->
<g id="edge7" class="edge"><title>Node2&#45;&gt;Node8</title>
<path fill="none" stroke="midnightblue" d="M499.978,-145.985C515.73,-133.37 539.171,-116.114 562,-105 569.601,-101.3 578.072,-98.1509 586.274,-95.5442"/>
<polygon fill="midnightblue" stroke="midnightblue" points="497.598,-143.41 492.07,-152.448 502.028,-148.83 497.598,-143.41"/>
</g>
<!-- Node9 -->
<g id="node9" class="node"><title>Node9</title>
<g id="a_node9"><a xlink:href="net_8cpp.html#a0c8010ad96acff7cca6aca684ec42b71" target="_top" xlink:title="BindListenPort">
<polygon fill="white" stroke="black" points="585,-114.5 585,-133.5 667,-133.5 667,-114.5 585,-114.5"/>
<text text-anchor="middle" x="626" y="-121.5" font-family="Helvetica,sans-Serif" font-size="10.00">BindListenPort</text>
</a>
</g>
</g>
<!-- Node2&#45;&gt;Node9 -->
<g id="edge8" class="edge"><title>Node2&#45;&gt;Node9</title>
<path fill="none" stroke="midnightblue" d="M518.926,-151.992C540.528,-146.291 567.448,-139.187 588.763,-133.563"/>
<polygon fill="midnightblue" stroke="midnightblue" points="517.882,-148.647 509.106,-154.583 519.669,-155.416 517.882,-148.647"/>
</g>
<!-- Node4 -->
<g id="node4" class="node"><title>Node4</title>
<g id="a_node4"><a xlink:href="anoncoind_8cpp.html#ac59316b767e6984e1285f0531275286b" target="_top" xlink:title="AppInit">
<polygon fill="white" stroke="black" points="1142,-152.5 1142,-171.5 1190,-171.5 1190,-152.5 1142,-152.5"/>
<text text-anchor="middle" x="1166" y="-159.5" font-family="Helvetica,sans-Serif" font-size="10.00">AppInit</text>
</a>
</g>
</g>
<!-- Node3&#45;&gt;Node4 -->
<g id="edge3" class="edge"><title>Node3&#45;&gt;Node4</title>
<path fill="none" stroke="midnightblue" d="M1080.05,-148.605C1100.04,-151.758 1124.42,-155.602 1141.93,-158.362"/>
<polygon fill="midnightblue" stroke="midnightblue" points="1080.48,-145.13 1070.05,-147.029 1079.39,-152.044 1080.48,-145.13"/>
</g>
<!-- Node6 -->
<g id="node6" class="node"><title>Node6</title>
<g id="a_node6"><a xlink:href="class_anoncoin_coin.html#a9510881824d283404ac43414dbb74586" target="_top" xlink:title="AnoncoinCoin::initialize">
<polygon fill="white" stroke="black" points="1106,-114.5 1106,-133.5 1226,-133.5 1226,-114.5 1106,-114.5"/>
<text text-anchor="middle" x="1166" y="-121.5" font-family="Helvetica,sans-Serif" font-size="10.00">AnoncoinCoin::initialize</text>
</a>
</g>
</g>
<!-- Node3&#45;&gt;Node6 -->
<g id="edge5" class="edge"><title>Node3&#45;&gt;Node6</title>
<path fill="none" stroke="midnightblue" d="M1080.19,-137.373C1088.25,-136.102 1097.02,-134.719 1105.76,-133.34"/>
<polygon fill="midnightblue" stroke="midnightblue" points="1079.39,-133.956 1070.05,-138.971 1080.48,-140.87 1079.39,-133.956"/>
</g>
<!-- Node5 -->
<g id="node5" class="node"><title>Node5</title>
<g id="a_node5"><a xlink:href="anoncoind_8cpp.html#a0ddf1224851353fc92bfbff6f499fa97" target="_top" xlink:title="main">
<polygon fill="white" stroke="black" points="1262,-152.5 1262,-171.5 1300,-171.5 1300,-152.5 1262,-152.5"/>
<text text-anchor="middle" x="1281" y="-159.5" font-family="Helvetica,sans-Serif" font-size="10.00">main</text>
</a>
</g>
</g>
<!-- Node4&#45;&gt;Node5 -->
<g id="edge4" class="edge"><title>Node4&#45;&gt;Node5</title>
<path fill="none" stroke="midnightblue" d="M1200.15,-162C1220.25,-162 1245.13,-162 1261.73,-162"/>
<polygon fill="midnightblue" stroke="midnightblue" points="1200.14,-158.5 1190.14,-162 1200.14,-165.5 1200.14,-158.5"/>
</g>
<!-- Node13 -->
<g id="node13" class="node"><title>Node13</title>
<g id="a_node13"><a xlink:href="net_8cpp.html#a23ad330fb37fb9d5b1d6ab43f33b1443" target="_top" xlink:title="GetMyExternalIP2">
<polygon fill="white" stroke="black" points="287.5,-76.5 287.5,-95.5 385.5,-95.5 385.5,-76.5 287.5,-76.5"/>
<text text-anchor="middle" x="336.5" y="-83.5" font-family="Helvetica,sans-Serif" font-size="10.00">GetMyExternalIP2</text>
</a>
</g>
</g>
<!-- Node12&#45;&gt;Node13 -->
<g id="edge12" class="edge"><title>Node12&#45;&gt;Node13</title>
<path fill="none" stroke="midnightblue" d="M242.573,-60.3183C261.465,-65.5393 283.147,-71.5316 300.814,-76.4141"/>
<polygon fill="midnightblue" stroke="midnightblue" points="243.268,-56.8793 232.697,-57.589 241.403,-63.6264 243.268,-56.8793"/>
</g>
<!-- Node15 -->
<g id="node15" class="node"><title>Node15</title>
<g id="a_node15"><a xlink:href="net_8h.html#a718dfaec68eabf5a2a3ebb476bf4fe67" target="_top" xlink:title="ConnectNode">
<polygon fill="white" stroke="black" points="441,-19.5 441,-38.5 519,-38.5 519,-19.5 441,-19.5"/>
<text text-anchor="middle" x="480" y="-26.5" font-family="Helvetica,sans-Serif" font-size="10.00">ConnectNode</text>
</a>
</g>
</g>
<!-- Node12&#45;&gt;Node15 -->
<g id="edge15" class="edge"><title>Node12&#45;&gt;Node15</title>
<path fill="none" stroke="midnightblue" d="M249.445,-44.5215C304.75,-40.782 391.375,-34.9248 440.886,-31.5771"/>
<polygon fill="midnightblue" stroke="midnightblue" points="248.902,-41.0502 239.161,-45.2169 249.374,-48.0342 248.902,-41.0502"/>
</g>
<!-- Node21 -->
<g id="node21" class="node"><title>Node21</title>
<g id="a_node21"><a xlink:href="netbase_8h.html#a6b06ed45e08d73e435c656a4dfcb0a95" target="_top" xlink:title="ConnectSocketByName">
<polygon fill="white" stroke="black" points="275,-0.5 275,-19.5 398,-19.5 398,-0.5 275,-0.5"/>
<text text-anchor="middle" x="336.5" y="-7.5" font-family="Helvetica,sans-Serif" font-size="10.00">ConnectSocketByName</text>
</a>
</g>
</g>
<!-- Node12&#45;&gt;Node21 -->
<g id="edge23" class="edge"><title>Node12&#45;&gt;Node21</title>
<path fill="none" stroke="midnightblue" d="M242.573,-35.6817C261.465,-30.4607 283.147,-24.4684 300.814,-19.5859"/>
<polygon fill="midnightblue" stroke="midnightblue" points="241.403,-32.3736 232.697,-38.411 243.268,-39.1207 241.403,-32.3736"/>
</g>
<!-- Node14 -->
<g id="node14" class="node"><title>Node14</title>
<g id="a_node14"><a xlink:href="net_8h.html#a27ffa42cb391e77b144781a73ed18368" target="_top" xlink:title="GetMyExternalIP">
<polygon fill="white" stroke="black" points="434,-76.5 434,-95.5 526,-95.5 526,-76.5 434,-76.5"/>
<text text-anchor="middle" x="480" y="-83.5" font-family="Helvetica,sans-Serif" font-size="10.00">GetMyExternalIP</text>
</a>
</g>
</g>
<!-- Node13&#45;&gt;Node14 -->
<g id="edge13" class="edge"><title>Node13&#45;&gt;Node14</title>
<path fill="none" stroke="midnightblue" d="M395.812,-86C408.482,-86 421.703,-86 433.777,-86"/>
<polygon fill="midnightblue" stroke="midnightblue" points="395.801,-82.5001 385.801,-86 395.8,-89.5001 395.801,-82.5001"/>
</g>
<!-- Node14&#45;&gt;Node8 -->
<g id="edge14" class="edge"><title>Node14&#45;&gt;Node8</title>
<path fill="none" stroke="midnightblue" d="M536.204,-86C545.264,-86 554.699,-86 563.893,-86"/>
<polygon fill="midnightblue" stroke="midnightblue" points="536.167,-82.5001 526.167,-86 536.167,-89.5001 536.167,-82.5001"/>
</g>
<!-- Node16 -->
<g id="node16" class="node"><title>Node16</title>
<g id="a_node16"><a xlink:href="net_8cpp.html#aa19cb8e6cf23a990e585f2bbf9ece276" target="_top" xlink:title="OpenNetworkConnection">
<polygon fill="white" stroke="black" points="562,-38.5 562,-57.5 690,-57.5 690,-38.5 562,-38.5"/>
<text text-anchor="middle" x="626" y="-45.5" font-family="Helvetica,sans-Serif" font-size="10.00">OpenNetworkConnection</text>
</a>
</g>
</g>
<!-- Node15&#45;&gt;Node16 -->
<g id="edge16" class="edge"><title>Node15&#45;&gt;Node16</title>
<path fill="none" stroke="midnightblue" d="M529.346,-35.3789C539.765,-36.7538 550.929,-38.2267 561.819,-39.6636"/>
<polygon fill="midnightblue" stroke="midnightblue" points="529.583,-31.88 519.211,-34.0418 528.668,-38.8199 529.583,-31.88"/>
</g>
<!-- Node20 -->
<g id="node20" class="node"><title>Node20</title>
<g id="a_node20"><a xlink:href="rpcnet_8cpp.html#ab455bfd729ba34d3bb55b716e62405a3" target="_top" xlink:title="addnode">
<polygon fill="white" stroke="black" points="598.5,-0.5 598.5,-19.5 653.5,-19.5 653.5,-0.5 598.5,-0.5"/>
<text text-anchor="middle" x="626" y="-7.5" font-family="Helvetica,sans-Serif" font-size="10.00">addnode</text>
</a>
</g>
</g>
<!-- Node15&#45;&gt;Node20 -->
<g id="edge22" class="edge"><title>Node15&#45;&gt;Node20</title>
<path fill="none" stroke="midnightblue" d="M529.192,-22.6413C552.301,-19.5922 579.097,-16.0566 598.465,-13.5011"/>
<polygon fill="midnightblue" stroke="midnightblue" points="528.668,-19.1801 519.211,-23.9582 529.583,-26.12 528.668,-19.1801"/>
</g>
<!-- Node17 -->
<g id="node17" class="node"><title>Node17</title>
<g id="a_node17"><a xlink:href="net_8cpp.html#a3b4720330e61127963a43df26b80f804" target="_top" xlink:title="ThreadOpenConnections">
<polygon fill="white" stroke="black" points="740.5,-76.5 740.5,-95.5 868.5,-95.5 868.5,-76.5 740.5,-76.5"/>
<text text-anchor="middle" x="804.5" y="-83.5" font-family="Helvetica,sans-Serif" font-size="10.00">ThreadOpenConnections</text>
</a>
</g>
</g>
<!-- Node16&#45;&gt;Node17 -->
<g id="edge17" class="edge"><title>Node16&#45;&gt;Node17</title>
<path fill="none" stroke="midnightblue" d="M681.588,-59.7526C706.545,-65.1258 735.727,-71.4086 759.282,-76.4799"/>
<polygon fill="midnightblue" stroke="midnightblue" points="682.051,-56.2722 671.538,-57.589 680.578,-63.1154 682.051,-56.2722"/>
</g>
<!-- Node19 -->
<g id="node19" class="node"><title>Node19</title>
<g id="a_node19"><a xlink:href="net_8cpp.html#a2d1ca95557ae336582b886a251e7fe94" target="_top" xlink:title="ThreadOpenAddedConnections">
<polygon fill="white" stroke="black" points="726,-38.5 726,-57.5 883,-57.5 883,-38.5 726,-38.5"/>
<text text-anchor="middle" x="804.5" y="-45.5" font-family="Helvetica,sans-Serif" font-size="10.00">ThreadOpenAddedConnections</text>
</a>
</g>
</g>
<!-- Node16&#45;&gt;Node19 -->
<g id="edge20" class="edge"><title>Node16&#45;&gt;Node19</title>
<path fill="none" stroke="midnightblue" d="M700.394,-48C708.826,-48 717.444,-48 725.929,-48"/>
<polygon fill="midnightblue" stroke="midnightblue" points="700.222,-44.5001 690.222,-48 700.222,-51.5001 700.222,-44.5001"/>
</g>
<!-- Node18 -->
<g id="node18" class="node"><title>Node18</title>
<g id="a_node18"><a xlink:href="net_8h.html#a9396d8054e8f74959e9391871aaddde0" target="_top" xlink:title="StartNode">
<polygon fill="white" stroke="black" points="919,-76.5 919,-95.5 981,-95.5 981,-76.5 919,-76.5"/>
<text text-anchor="middle" x="950" y="-83.5" font-family="Helvetica,sans-Serif" font-size="10.00">StartNode</text>
</a>
</g>
</g>
<!-- Node17&#45;&gt;Node18 -->
<g id="edge18" class="edge"><title>Node17&#45;&gt;Node18</title>
<path fill="none" stroke="midnightblue" d="M879.111,-86C893.209,-86 907.212,-86 918.94,-86"/>
<polygon fill="midnightblue" stroke="midnightblue" points="878.859,-82.5001 868.859,-86 878.859,-89.5001 878.859,-82.5001"/>
</g>
<!-- Node18&#45;&gt;Node3 -->
<g id="edge19" class="edge"><title>Node18&#45;&gt;Node3</title>
<path fill="none" stroke="midnightblue" d="M975.112,-101.021C991.616,-111.302 1013,-124.624 1027.21,-133.474"/>
<polygon fill="midnightblue" stroke="midnightblue" points="976.86,-97.9861 966.522,-95.6693 973.159,-103.928 976.86,-97.9861"/>
</g>
<!-- Node19&#45;&gt;Node18 -->
<g id="edge21" class="edge"><title>Node19&#45;&gt;Node18</title>
<path fill="none" stroke="midnightblue" d="M855.563,-59.9633C864.707,-62.2365 874.152,-64.6429 883,-67 894.752,-70.1309 907.617,-73.7831 918.842,-77.0443"/>
<polygon fill="midnightblue" stroke="midnightblue" points="856.349,-56.5522 845.802,-57.5575 854.674,-63.3488 856.349,-56.5522"/>
</g>
<!-- Node21&#45;&gt;Node15 -->
<g id="edge24" class="edge"><title>Node21&#45;&gt;Node15</title>
<path fill="none" stroke="midnightblue" d="M408.503,-19.5339C419.611,-21.0255 430.712,-22.516 440.708,-23.8583"/>
<polygon fill="midnightblue" stroke="midnightblue" points="408.707,-16.03 398.33,-18.168 407.775,-22.9677 408.707,-16.03"/>
</g>
</g>
</svg>
