<?xml version="1.0" encoding="UTF-8" standalone="no"?>
<!DOCTYPE svg PUBLIC "-//W3C//DTD SVG 1.1//EN"
 "http://www.w3.org/Graphics/SVG/1.1/DTD/svg11.dtd">
<!-- Generated by graphviz version 2.38.0 (20140413.2041)
 -->
<!-- Title: TransactionRecord::decomposeTransaction Pages: 1 -->
<svg width="634pt" height="88pt"
 viewBox="0.00 0.00 634.00 88.00" xmlns="http://www.w3.org/2000/svg" xmlns:xlink="http://www.w3.org/1999/xlink">
<g id="graph0" class="graph" transform="scale(1 1) rotate(0) translate(4 84)">
<title>TransactionRecord::decomposeTransaction</title>
<polygon fill="white" stroke="none" points="-4,4 -4,-84 630,-84 630,4 -4,4"/>
<!-- Node1 -->
<g id="node1" class="node"><title>Node1</title>
<polygon fill="#bfbfbf" stroke="black" points="0,-24.5 0,-54.5 120,-54.5 120,-24.5 0,-24.5"/>
<text text-anchor="start" x="8" y="-42.5" font-family="Helvetica,sans-Serif" font-size="10.00">TransactionRecord::</text>
<text text-anchor="middle" x="60" y="-31.5" font-family="Helvetica,sans-Serif" font-size="10.00">decomposeTransaction</text>
</g>
<!-- Node2 -->
<g id="node2" class="node"><title>Node2</title>
<g id="a_node2"><a xlink:href="class_transaction_table_priv.html#a1f81da5d7cfb2aac03a5e18e6bc91792" target="_top" xlink:title="TransactionTablePriv\l::refreshWallet">
<polygon fill="white" stroke="black" points="156,-49.5 156,-79.5 267,-79.5 267,-49.5 156,-49.5"/>
<text text-anchor="start" x="164" y="-67.5" font-family="Helvetica,sans-Serif" font-size="10.00">TransactionTablePriv</text>
<text text-anchor="middle" x="211.5" y="-56.5" font-family="Helvetica,sans-Serif" font-size="10.00">::refreshWallet</text>
</a>
</g>
</g>
<!-- Node1&#45;&gt;Node2 -->
<g id="edge1" class="edge"><title>Node1&#45;&gt;Node2</title>
<path fill="none" stroke="midnightblue" d="M130.104,-51.0558C138.7,-52.4932 147.396,-53.9474 155.734,-55.3417"/>
<polygon fill="midnightblue" stroke="midnightblue" points="130.527,-47.578 120.086,-49.3807 129.372,-54.4821 130.527,-47.578"/>
</g>
<!-- Node4 -->
<g id="node4" class="node"><title>Node4</title>
<g id="a_node4"><a xlink:href="class_transaction_table_priv.html#a27eb6d3e1f7717dd2cad80c5ce48f404" target="_top" xlink:title="TransactionTablePriv\l::updateWallet">
<polygon fill="white" stroke="black" points="156,-0.5 156,-30.5 267,-30.5 267,-0.5 156,-0.5"/>
<text text-anchor="start" x="164" y="-18.5" font-family="Helvetica,sans-Serif" font-size="10.00">TransactionTablePriv</text>
<text text-anchor="middle" x="211.5" y="-7.5" font-family="Helvetica,sans-Serif" font-size="10.00">::updateWallet</text>
</a>
</g>
</g>
<!-- Node1&#45;&gt;Node4 -->
<g id="edge3" class="edge"><title>Node1&#45;&gt;Node4</title>
<path fill="none" stroke="midnightblue" d="M130.104,-28.4064C138.7,-27.0265 147.396,-25.6305 155.734,-24.2919"/>
<polygon fill="midnightblue" stroke="midnightblue" points="129.405,-24.9737 120.086,-30.0146 130.515,-31.8852 129.405,-24.9737"/>
</g>
<!-- Node3 -->
<g id="node3" class="node"><title>Node3</title>
<g id="a_node3"><a xlink:href="class_transaction_table_model.html#a6c10b7cab9804eee6df9e049a978dc62" target="_top" xlink:title="TransactionTableModel\l::TransactionTableModel">
<polygon fill="white" stroke="black" points="303,-49.5 303,-79.5 430,-79.5 430,-49.5 303,-49.5"/>
<text text-anchor="start" x="311" y="-67.5" font-family="Helvetica,sans-Serif" font-size="10.00">TransactionTableModel</text>
<text text-anchor="middle" x="366.5" y="-56.5" font-family="Helvetica,sans-Serif" font-size="10.00">::TransactionTableModel</text>
</a>
</g>
</g>
<!-- Node2&#45;&gt;Node3 -->
<g id="edge2" class="edge"><title>Node2&#45;&gt;Node3</title>
<path fill="none" stroke="midnightblue" d="M277.419,-64.5C285.811,-64.5 294.394,-64.5 302.75,-64.5"/>
<polygon fill="midnightblue" stroke="midnightblue" points="277.304,-61.0001 267.304,-64.5 277.304,-68.0001 277.304,-61.0001"/>
</g>
<!-- Node5 -->
<g id="node5" class="node"><title>Node5</title>
<g id="a_node5"><a xlink:href="class_transaction_table_model.html#abb93b1812f27622f67aed0302bc90ee6" target="_top" xlink:title="TransactionTableModel\l::updateTransaction">
<polygon fill="white" stroke="black" points="306,-0.5 306,-30.5 427,-30.5 427,-0.5 306,-0.5"/>
<text text-anchor="start" x="314" y="-18.5" font-family="Helvetica,sans-Serif" font-size="10.00">TransactionTableModel</text>
<text text-anchor="middle" x="366.5" y="-7.5" font-family="Helvetica,sans-Serif" font-size="10.00">::updateTransaction</text>
</a>
</g>
</g>
<!-- Node4&#45;&gt;Node5 -->
<g id="edge4" class="edge"><title>Node4&#45;&gt;Node5</title>
<path fill="none" stroke="midnightblue" d="M277.431,-15.5C286.877,-15.5 296.563,-15.5 305.896,-15.5"/>
<polygon fill="midnightblue" stroke="midnightblue" points="277.304,-12.0001 267.304,-15.5 277.304,-19.0001 277.304,-12.0001"/>
</g>
<!-- Node6 -->
<g id="node6" class="node"><title>Node6</title>
<g id="a_node6"><a xlink:href="class_wallet_model.html#ad63ff7c16477dc5795c95b56593f2e9f" target="_top" xlink:title="WalletModel::updateTransaction">
<polygon fill="white" stroke="black" points="466,-6 466,-25 626,-25 626,-6 466,-6"/>
<text text-anchor="middle" x="546" y="-13" font-family="Helvetica,sans-Serif" font-size="10.00">WalletModel::updateTransaction</text>
</a>
</g>
</g>
<!-- Node5&#45;&gt;Node6 -->
<g id="edge5" class="edge"><title>Node5&#45;&gt;Node6</title>
<path fill="none" stroke="midnightblue" d="M437.13,-15.5C446.501,-15.5 456.171,-15.5 465.695,-15.5"/>
<polygon fill="midnightblue" stroke="midnightblue" points="437.099,-12.0001 427.099,-15.5 437.099,-19.0001 437.099,-12.0001"/>
</g>
</g>
</svg>
