<?xml version="1.0" encoding="UTF-8" standalone="no"?>
<!DOCTYPE svg PUBLIC "-//W3C//DTD SVG 1.1//EN"
 "http://www.w3.org/Graphics/SVG/1.1/DTD/svg11.dtd">
<!-- Generated by graphviz version 2.38.0 (20140413.2041)
 -->
<!-- Title: PaymentServer::initNetManager Pages: 1 -->
<svg width="481pt" height="39pt"
 viewBox="0.00 0.00 481.00 39.00" xmlns="http://www.w3.org/2000/svg" xmlns:xlink="http://www.w3.org/1999/xlink">
<g id="graph0" class="graph" transform="scale(1 1) rotate(0) translate(4 35)">
<title>PaymentServer::initNetManager</title>
<polygon fill="white" stroke="none" points="-4,4 -4,-35 477,-35 477,4 -4,4"/>
<!-- Node1 -->
<g id="node1" class="node"><title>Node1</title>
<polygon fill="#bfbfbf" stroke="black" points="0,-6 0,-25 159,-25 159,-6 0,-6"/>
<text text-anchor="middle" x="79.5" y="-13" font-family="Helvetica,sans-Serif" font-size="10.00">PaymentServer::initNetManager</text>
</g>
<!-- Node2 -->
<g id="node2" class="node"><title>Node2</title>
<g id="a_node2"><a xlink:href="class_payment_server.html#abb6c65fabbf97ba95381997ca9cd6993" target="_top" xlink:title="PaymentServer::uiReady">
<polygon fill="white" stroke="black" points="195,-6 195,-25 323,-25 323,-6 195,-6"/>
<text text-anchor="middle" x="259" y="-13" font-family="Helvetica,sans-Serif" font-size="10.00">PaymentServer::uiReady</text>
</a>
</g>
</g>
<!-- Node1&#45;&gt;Node2 -->
<g id="edge1" class="edge"><title>Node1&#45;&gt;Node2</title>
<path fill="none" stroke="midnightblue" d="M169.262,-15.5C177.91,-15.5 186.558,-15.5 194.877,-15.5"/>
<polygon fill="midnightblue" stroke="midnightblue" points="169.129,-12.0001 159.129,-15.5 169.129,-19.0001 169.129,-12.0001"/>
</g>
<!-- Node3 -->
<g id="node3" class="node"><title>Node3</title>
<g id="a_node3"><a xlink:href="class_payment_server_tests.html#a82c8a7437bfc26c28619b954a5ee8cad" target="_top" xlink:title="PaymentServerTests\l::paymentServerTests">
<polygon fill="white" stroke="black" points="359,-0.5 359,-30.5 473,-30.5 473,-0.5 359,-0.5"/>
<text text-anchor="start" x="367" y="-18.5" font-family="Helvetica,sans-Serif" font-size="10.00">PaymentServerTests</text>
<text text-anchor="middle" x="416" y="-7.5" font-family="Helvetica,sans-Serif" font-size="10.00">::paymentServerTests</text>
</a>
</g>
</g>
<!-- Node2&#45;&gt;Node3 -->
<g id="edge2" class="edge"><title>Node2&#45;&gt;Node3</title>
<path fill="none" stroke="midnightblue" d="M333.172,-15.5C341.85,-15.5 350.601,-15.5 358.987,-15.5"/>
<polygon fill="midnightblue" stroke="midnightblue" points="333.044,-12.0001 323.044,-15.5 333.044,-19.0001 333.044,-12.0001"/>
</g>
</g>
</svg>
