<?xml version="1.0" encoding="UTF-8" standalone="no"?>
<!DOCTYPE svg PUBLIC "-//W3C//DTD SVG 1.1//EN"
 "http://www.w3.org/Graphics/SVG/1.1/DTD/svg11.dtd">
<!-- Generated by graphviz version 2.38.0 (20140413.2041)
 -->
<!-- Title: CWalletDB::WriteDestData Pages: 1 -->
<svg width="973pt" height="198pt"
 viewBox="0.00 0.00 973.00 197.50" xmlns="http://www.w3.org/2000/svg" xmlns:xlink="http://www.w3.org/1999/xlink">
<g id="graph0" class="graph" transform="scale(1 1) rotate(0) translate(4 193.5)">
<title>CWalletDB::WriteDestData</title>
<polygon fill="white" stroke="none" points="-4,4 -4,-193.5 969,-193.5 969,4 -4,4"/>
<!-- Node1 -->
<g id="node1" class="node"><title>Node1</title>
<polygon fill="#bfbfbf" stroke="black" points="0,-107 0,-126 136,-126 136,-107 0,-107"/>
<text text-anchor="middle" x="68" y="-114" font-family="Helvetica,sans-Serif" font-size="10.00">CWalletDB::WriteDestData</text>
</g>
<!-- Node2 -->
<g id="node2" class="node"><title>Node2</title>
<g id="a_node2"><a xlink:href="class_c_wallet.html#acbeae89a10e129930e5059d9167697e5" target="_top" xlink:title="Adds a destination data tuple to the store, and saves it to disk. ">
<polygon fill="white" stroke="black" points="172,-107 172,-126 289,-126 289,-107 172,-107"/>
<text text-anchor="middle" x="230.5" y="-114" font-family="Helvetica,sans-Serif" font-size="10.00">CWallet::AddDestData</text>
</a>
</g>
</g>
<!-- Node1&#45;&gt;Node2 -->
<g id="edge1" class="edge"><title>Node1&#45;&gt;Node2</title>
<path fill="none" stroke="midnightblue" d="M146.208,-116.5C154.826,-116.5 163.49,-116.5 171.804,-116.5"/>
<polygon fill="midnightblue" stroke="midnightblue" points="146.137,-113 136.136,-116.5 146.136,-120 146.137,-113"/>
</g>
<!-- Node3 -->
<g id="node3" class="node"><title>Node3</title>
<g id="a_node3"><a xlink:href="class_wallet_model.html#a88d44bc0994c1701386f63b1f266637f" target="_top" xlink:title="WalletModel::saveReceive\lRequest">
<polygon fill="white" stroke="black" points="325,-101.5 325,-131.5 459,-131.5 459,-101.5 325,-101.5"/>
<text text-anchor="start" x="333" y="-119.5" font-family="Helvetica,sans-Serif" font-size="10.00">WalletModel::saveReceive</text>
<text text-anchor="middle" x="392" y="-108.5" font-family="Helvetica,sans-Serif" font-size="10.00">Request</text>
</a>
</g>
</g>
<!-- Node2&#45;&gt;Node3 -->
<g id="edge2" class="edge"><title>Node2&#45;&gt;Node3</title>
<path fill="none" stroke="midnightblue" d="M299.287,-116.5C307.748,-116.5 316.393,-116.5 324.83,-116.5"/>
<polygon fill="midnightblue" stroke="midnightblue" points="299.083,-113 289.083,-116.5 299.083,-120 299.083,-113"/>
</g>
<!-- Node4 -->
<g id="node4" class="node"><title>Node4</title>
<g id="a_node4"><a xlink:href="class_recent_requests_table_model.html#a63504be44ff9d33d5c508f6303622e5a" target="_top" xlink:title="RecentRequestsTableModel\l::removeRows">
<polygon fill="white" stroke="black" points="495,-139.5 495,-169.5 638,-169.5 638,-139.5 495,-139.5"/>
<text text-anchor="start" x="503" y="-157.5" font-family="Helvetica,sans-Serif" font-size="10.00">RecentRequestsTableModel</text>
<text text-anchor="middle" x="566.5" y="-146.5" font-family="Helvetica,sans-Serif" font-size="10.00">::removeRows</text>
</a>
</g>
</g>
<!-- Node3&#45;&gt;Node4 -->
<g id="edge3" class="edge"><title>Node3&#45;&gt;Node4</title>
<path fill="none" stroke="midnightblue" d="M469.222,-133.291C478.535,-135.342 488.005,-137.429 497.192,-139.452"/>
<polygon fill="midnightblue" stroke="midnightblue" points="469.719,-129.816 459.2,-131.083 468.213,-136.653 469.719,-129.816"/>
</g>
<!-- Node6 -->
<g id="node6" class="node"><title>Node6</title>
<g id="a_node6"><a xlink:href="class_recent_requests_table_model.html#ae9866ffd5aed0f041437996410928edd" target="_top" xlink:title="RecentRequestsTableModel\l::addNewRequest">
<polygon fill="white" stroke="black" points="495,-63.5 495,-93.5 638,-93.5 638,-63.5 495,-63.5"/>
<text text-anchor="start" x="503" y="-81.5" font-family="Helvetica,sans-Serif" font-size="10.00">RecentRequestsTableModel</text>
<text text-anchor="middle" x="566.5" y="-70.5" font-family="Helvetica,sans-Serif" font-size="10.00">::addNewRequest</text>
</a>
</g>
</g>
<!-- Node3&#45;&gt;Node6 -->
<g id="edge5" class="edge"><title>Node3&#45;&gt;Node6</title>
<path fill="none" stroke="midnightblue" d="M469.222,-99.7091C478.535,-97.6576 488.005,-95.5713 497.192,-93.5476"/>
<polygon fill="midnightblue" stroke="midnightblue" points="468.213,-96.3474 459.2,-101.917 469.719,-103.184 468.213,-96.3474"/>
</g>
<!-- Node5 -->
<g id="node5" class="node"><title>Node5</title>
<g id="a_node5"><a xlink:href="class_receive_coins_dialog.html#a0cd8bb4c63c4b9bd3b27d9a4d6e08cfb" target="_top" xlink:title="ReceiveCoinsDialog\l::on_removeRequestButton\l_clicked">
<polygon fill="white" stroke="black" points="679,-148 679,-189 817,-189 817,-148 679,-148"/>
<text text-anchor="start" x="687" y="-177" font-family="Helvetica,sans-Serif" font-size="10.00">ReceiveCoinsDialog</text>
<text text-anchor="start" x="687" y="-166" font-family="Helvetica,sans-Serif" font-size="10.00">::on_removeRequestButton</text>
<text text-anchor="middle" x="748" y="-155" font-family="Helvetica,sans-Serif" font-size="10.00">_clicked</text>
</a>
</g>
</g>
<!-- Node4&#45;&gt;Node5 -->
<g id="edge4" class="edge"><title>Node4&#45;&gt;Node5</title>
<path fill="none" stroke="midnightblue" d="M648.283,-160.801C658.452,-161.594 668.777,-162.399 678.727,-163.175"/>
<polygon fill="midnightblue" stroke="midnightblue" points="648.427,-157.301 638.185,-160.013 647.883,-164.28 648.427,-157.301"/>
</g>
<!-- Node7 -->
<g id="node7" class="node"><title>Node7</title>
<g id="a_node7"><a xlink:href="class_receive_coins_dialog.html#a9db8de31f6889288cb22c061aa51e0cd" target="_top" xlink:title="ReceiveCoinsDialog\l::on_receiveButton_clicked">
<polygon fill="white" stroke="black" points="680,-98.5 680,-128.5 816,-128.5 816,-98.5 680,-98.5"/>
<text text-anchor="start" x="688" y="-116.5" font-family="Helvetica,sans-Serif" font-size="10.00">ReceiveCoinsDialog</text>
<text text-anchor="middle" x="748" y="-105.5" font-family="Helvetica,sans-Serif" font-size="10.00">::on_receiveButton_clicked</text>
</a>
</g>
</g>
<!-- Node6&#45;&gt;Node7 -->
<g id="edge6" class="edge"><title>Node6&#45;&gt;Node7</title>
<path fill="none" stroke="midnightblue" d="M648.255,-94.2462C658.832,-96.3085 669.578,-98.4037 679.896,-100.416"/>
<polygon fill="midnightblue" stroke="midnightblue" points="648.671,-90.7613 638.185,-92.2827 647.331,-97.6319 648.671,-90.7613"/>
</g>
<!-- Node9 -->
<g id="node9" class="node"><title>Node9</title>
<g id="a_node9"><a xlink:href="class_recent_requests_table_model.html#ab3ef691b8c34e6d6e5ae0bdf7953a360" target="_top" xlink:title="RecentRequestsTableModel\l::RecentRequestsTableModel">
<polygon fill="white" stroke="black" points="674,-49.5 674,-79.5 822,-79.5 822,-49.5 674,-49.5"/>
<text text-anchor="start" x="682" y="-67.5" font-family="Helvetica,sans-Serif" font-size="10.00">RecentRequestsTableModel</text>
<text text-anchor="middle" x="748" y="-56.5" font-family="Helvetica,sans-Serif" font-size="10.00">::RecentRequestsTableModel</text>
</a>
</g>
</g>
<!-- Node6&#45;&gt;Node9 -->
<g id="edge8" class="edge"><title>Node6&#45;&gt;Node9</title>
<path fill="none" stroke="midnightblue" d="M648.402,-72.1901C656.838,-71.5321 665.379,-70.866 673.723,-70.2152"/>
<polygon fill="midnightblue" stroke="midnightblue" points="647.883,-68.7199 638.185,-72.9869 648.427,-75.6987 647.883,-68.7199"/>
</g>
<!-- Node10 -->
<g id="node10" class="node"><title>Node10</title>
<g id="a_node10"><a xlink:href="class_recent_requests_table_model.html#aad0b9435284ed1f4b67852b34d7694a9" target="_top" xlink:title="RecentRequestsTableModel\l::addNewRequest">
<polygon fill="white" stroke="black" points="676.5,-0.5 676.5,-30.5 819.5,-30.5 819.5,-0.5 676.5,-0.5"/>
<text text-anchor="start" x="684.5" y="-18.5" font-family="Helvetica,sans-Serif" font-size="10.00">RecentRequestsTableModel</text>
<text text-anchor="middle" x="748" y="-7.5" font-family="Helvetica,sans-Serif" font-size="10.00">::addNewRequest</text>
</a>
</g>
</g>
<!-- Node6&#45;&gt;Node10 -->
<g id="edge9" class="edge"><title>Node6&#45;&gt;Node10</title>
<path fill="none" stroke="midnightblue" d="M617.232,-59.8984C635.087,-53.3232 655.403,-45.9602 674,-39.5 682.57,-36.5232 691.737,-33.4344 700.58,-30.5032"/>
<polygon fill="midnightblue" stroke="midnightblue" points="615.759,-56.711 607.592,-63.4595 618.185,-63.2773 615.759,-56.711"/>
</g>
<!-- Node8 -->
<g id="node8" class="node"><title>Node8</title>
<g id="a_node8"><a xlink:href="class_receive_coins_dialog.html#abcf17b510c473bf3e94ef12f7f5cfc10" target="_top" xlink:title="ReceiveCoinsDialog\l::keyPressEvent">
<polygon fill="white" stroke="black" points="858,-98.5 858,-128.5 965,-128.5 965,-98.5 858,-98.5"/>
<text text-anchor="start" x="866" y="-116.5" font-family="Helvetica,sans-Serif" font-size="10.00">ReceiveCoinsDialog</text>
<text text-anchor="middle" x="911.5" y="-105.5" font-family="Helvetica,sans-Serif" font-size="10.00">::keyPressEvent</text>
</a>
</g>
</g>
<!-- Node7&#45;&gt;Node8 -->
<g id="edge7" class="edge"><title>Node7&#45;&gt;Node8</title>
<path fill="none" stroke="midnightblue" d="M826.235,-113.5C836.871,-113.5 847.588,-113.5 857.647,-113.5"/>
<polygon fill="midnightblue" stroke="midnightblue" points="826.088,-110 816.088,-113.5 826.087,-117 826.088,-110"/>
</g>
</g>
</svg>
