<?xml version="1.0" encoding="UTF-8" standalone="no"?>
<!DOCTYPE svg PUBLIC "-//W3C//DTD SVG 1.1//EN"
 "http://www.w3.org/Graphics/SVG/1.1/DTD/svg11.dtd">
<!-- Generated by graphviz version 2.38.0 (20140413.2041)
 -->
<!-- Title: SAM::StreamSession::accept Pages: 1 -->
<svg width="870pt" height="146pt"
 viewBox="0.00 0.00 870.00 146.20" xmlns="http://www.w3.org/2000/svg" xmlns:xlink="http://www.w3.org/1999/xlink">
<g id="graph0" class="graph" transform="scale(1 1) rotate(0) translate(4 142.203)">
<title>SAM::StreamSession::accept</title>
<polygon fill="white" stroke="none" points="-4,4 -4,-142.203 866,-142.203 866,4 -4,4"/>
<!-- Node1 -->
<g id="node1" class="node"><title>Node1</title>
<polygon fill="#bfbfbf" stroke="black" points="0,-34.2031 0,-64.2031 112,-64.2031 112,-34.2031 0,-34.2031"/>
<text text-anchor="start" x="8" y="-52.2031" font-family="Helvetica,sans-Serif" font-size="10.00">SAM::StreamSession</text>
<text text-anchor="middle" x="56" y="-41.2031" font-family="Helvetica,sans-Serif" font-size="10.00">::accept</text>
</g>
<!-- Node2 -->
<g id="node2" class="node"><title>Node2</title>
<g id="a_node2"><a xlink:href="class_s_a_m_1_1_stream_session.html#a4dbdcff8b70973f5746777ab55319ffc" target="_top" xlink:title="SAM::StreamSession\l::request">
<polygon fill="white" stroke="black" points="167.5,-56.2031 167.5,-86.2031 279.5,-86.2031 279.5,-56.2031 167.5,-56.2031"/>
<text text-anchor="start" x="175.5" y="-74.2031" font-family="Helvetica,sans-Serif" font-size="10.00">SAM::StreamSession</text>
<text text-anchor="middle" x="223.5" y="-63.2031" font-family="Helvetica,sans-Serif" font-size="10.00">::request</text>
</a>
</g>
</g>
<!-- Node1&#45;&gt;Node2 -->
<g id="edge1" class="edge"><title>Node1&#45;&gt;Node2</title>
<path fill="none" stroke="midnightblue" d="M112.109,-56.5288C126.549,-58.4483 142.257,-60.5364 157.174,-62.5193"/>
<polygon fill="midnightblue" stroke="midnightblue" points="156.976,-66.0237 167.35,-63.872 157.898,-59.0847 156.976,-66.0237"/>
</g>
<!-- Node10 -->
<g id="node10" class="node"><title>Node10</title>
<g id="a_node10"><a xlink:href="class_s_a_m_1_1_message.html#a2b4f1f665af4d53cdb21edf138d531e4" target="_top" xlink:title="SAM::Message::streamAccept">
<polygon fill="white" stroke="black" points="148,-17.7031 148,-36.7031 299,-36.7031 299,-17.7031 148,-17.7031"/>
<text text-anchor="middle" x="223.5" y="-24.7031" font-family="Helvetica,sans-Serif" font-size="10.00">SAM::Message::streamAccept</text>
</a>
</g>
</g>
<!-- Node1&#45;&gt;Node10 -->
<g id="edge13" class="edge"><title>Node1&#45;&gt;Node10</title>
<path fill="none" stroke="midnightblue" d="M112.109,-41.8775C121.321,-40.6529 131.05,-39.3597 140.76,-38.0689"/>
<polygon fill="midnightblue" stroke="midnightblue" points="141.398,-41.515 150.849,-36.7277 140.475,-34.576 141.398,-41.515"/>
</g>
<!-- Node3 -->
<g id="node3" class="node"><title>Node3</title>
<g id="a_node3"><a xlink:href="class_s_a_m_1_1_stream_session.html#ac9a46b7b8759fe46ff128982f983a62b" target="_top" xlink:title="SAM::StreamSession\l::rawRequest">
<polygon fill="white" stroke="black" points="367.5,-56.2031 367.5,-86.2031 479.5,-86.2031 479.5,-56.2031 367.5,-56.2031"/>
<text text-anchor="start" x="375.5" y="-74.2031" font-family="Helvetica,sans-Serif" font-size="10.00">SAM::StreamSession</text>
<text text-anchor="middle" x="423.5" y="-63.2031" font-family="Helvetica,sans-Serif" font-size="10.00">::rawRequest</text>
</a>
</g>
</g>
<!-- Node2&#45;&gt;Node3 -->
<g id="edge2" class="edge"><title>Node2&#45;&gt;Node3</title>
<path fill="none" stroke="midnightblue" d="M279.654,-71.2031C303.69,-71.2031 332.048,-71.2031 357.135,-71.2031"/>
<polygon fill="midnightblue" stroke="midnightblue" points="357.299,-74.7032 367.299,-71.2031 357.299,-67.7032 357.299,-74.7032"/>
</g>
<!-- Node9 -->
<g id="node9" class="node"><title>Node9</title>
<g id="a_node9"><a xlink:href="class_s_a_m_1_1_message.html#a134481a97dd531c7e5e11aeff965ea6c" target="_top" xlink:title="SAM::Message::getValue">
<polygon fill="white" stroke="black" points="733,-118.703 733,-137.703 862,-137.703 862,-118.703 733,-118.703"/>
<text text-anchor="middle" x="797.5" y="-125.703" font-family="Helvetica,sans-Serif" font-size="10.00">SAM::Message::getValue</text>
</a>
</g>
</g>
<!-- Node2&#45;&gt;Node9 -->
<g id="edge12" class="edge"><title>Node2&#45;&gt;Node9</title>
<path fill="none" stroke="midnightblue" d="M279.733,-83.8823C297.35,-87.7429 316.954,-91.8486 335,-95.2031 429.183,-112.711 452.487,-120.848 548,-128.203 606.531,-132.71 673.047,-132.426 722.523,-131.171"/>
<polygon fill="midnightblue" stroke="midnightblue" points="722.913,-134.661 732.813,-130.889 722.721,-127.664 722.913,-134.661"/>
</g>
<!-- Node4 -->
<g id="node4" class="node"><title>Node4</title>
<g id="a_node4"><a xlink:href="class_s_a_m_1_1_socket.html#a1455a6eec384bbdeda6382f33b49843b" target="_top" xlink:title="SAM::Socket::isOk">
<polygon fill="white" stroke="black" points="747.5,-23.7031 747.5,-42.7031 847.5,-42.7031 847.5,-23.7031 747.5,-23.7031"/>
<text text-anchor="middle" x="797.5" y="-30.7031" font-family="Helvetica,sans-Serif" font-size="10.00">SAM::Socket::isOk</text>
</a>
</g>
</g>
<!-- Node3&#45;&gt;Node4 -->
<g id="edge3" class="edge"><title>Node3&#45;&gt;Node4</title>
<path fill="none" stroke="midnightblue" d="M479.679,-59.5135C490.748,-56.0556 502.031,-51.6813 512,-46.2031 530.761,-35.8936 527.99,-21.8109 548,-14.2031 618.945,12.7699 709.34,-6.14259 759.221,-20.7221"/>
<polygon fill="midnightblue" stroke="midnightblue" points="758.349,-24.1148 768.934,-23.6573 760.374,-17.4141 758.349,-24.1148"/>
</g>
<!-- Node5 -->
<g id="node5" class="node"><title>Node5</title>
<g id="a_node5"><a xlink:href="class_s_a_m_1_1_socket.html#ae19e83b3127dc1560f164a05b1acd763" target="_top" xlink:title="SAM::Socket::write">
<polygon fill="white" stroke="black" points="572,-23.7031 572,-42.7031 673,-42.7031 673,-23.7031 572,-23.7031"/>
<text text-anchor="middle" x="622.5" y="-30.7031" font-family="Helvetica,sans-Serif" font-size="10.00">SAM::Socket::write</text>
</a>
</g>
</g>
<!-- Node3&#45;&gt;Node5 -->
<g id="edge4" class="edge"><title>Node3&#45;&gt;Node5</title>
<path fill="none" stroke="midnightblue" d="M479.637,-60.5675C505.262,-55.6247 535.778,-49.7383 561.931,-44.6937"/>
<polygon fill="midnightblue" stroke="midnightblue" points="562.937,-48.0642 572.093,-42.7334 561.611,-41.1909 562.937,-48.0642"/>
</g>
<!-- Node7 -->
<g id="node7" class="node"><title>Node7</title>
<g id="a_node7"><a xlink:href="class_s_a_m_1_1_socket.html#a3455043c16c8ca5c64855e6ea3ff15e1" target="_top" xlink:title="SAM::Socket::read">
<polygon fill="white" stroke="black" points="572.5,-61.7031 572.5,-80.7031 672.5,-80.7031 672.5,-61.7031 572.5,-61.7031"/>
<text text-anchor="middle" x="622.5" y="-68.7031" font-family="Helvetica,sans-Serif" font-size="10.00">SAM::Socket::read</text>
</a>
</g>
</g>
<!-- Node3&#45;&gt;Node7 -->
<g id="edge7" class="edge"><title>Node3&#45;&gt;Node7</title>
<path fill="none" stroke="midnightblue" d="M479.637,-71.2031C505.362,-71.2031 536.017,-71.2031 562.238,-71.2031"/>
<polygon fill="midnightblue" stroke="midnightblue" points="562.424,-74.7032 572.424,-71.2031 562.424,-67.7032 562.424,-74.7032"/>
</g>
<!-- Node8 -->
<g id="node8" class="node"><title>Node8</title>
<g id="a_node8"><a xlink:href="class_s_a_m_1_1_message.html#a1d976198d4f36ab56f838f560d536d37" target="_top" xlink:title="SAM::Message::checkAnswer">
<polygon fill="white" stroke="black" points="548,-99.7031 548,-118.703 697,-118.703 697,-99.7031 548,-99.7031"/>
<text text-anchor="middle" x="622.5" y="-106.703" font-family="Helvetica,sans-Serif" font-size="10.00">SAM::Message::checkAnswer</text>
</a>
</g>
</g>
<!-- Node3&#45;&gt;Node8 -->
<g id="edge10" class="edge"><title>Node3&#45;&gt;Node8</title>
<path fill="none" stroke="midnightblue" d="M479.637,-81.8388C505.262,-86.7816 535.778,-92.668 561.931,-97.7126"/>
<polygon fill="midnightblue" stroke="midnightblue" points="561.611,-101.215 572.093,-99.6729 562.937,-94.3421 561.611,-101.215"/>
</g>
<!-- Node5&#45;&gt;Node4 -->
<g id="edge5" class="edge"><title>Node5&#45;&gt;Node4</title>
<path fill="none" stroke="midnightblue" d="M673.075,-33.2031C693.067,-33.2031 716.3,-33.2031 737.18,-33.2031"/>
<polygon fill="midnightblue" stroke="midnightblue" points="737.217,-36.7032 747.217,-33.2031 737.217,-29.7032 737.217,-36.7032"/>
</g>
<!-- Node6 -->
<g id="node6" class="node"><title>Node6</title>
<g id="a_node6"><a xlink:href="class_s_a_m_1_1_socket.html#a4255f1f63449dfc32d012089ea73f5e7" target="_top" xlink:title="SAM::Socket::close">
<polygon fill="white" stroke="black" points="746,-61.7031 746,-80.7031 849,-80.7031 849,-61.7031 746,-61.7031"/>
<text text-anchor="middle" x="797.5" y="-68.7031" font-family="Helvetica,sans-Serif" font-size="10.00">SAM::Socket::close</text>
</a>
</g>
</g>
<!-- Node5&#45;&gt;Node6 -->
<g id="edge6" class="edge"><title>Node5&#45;&gt;Node6</title>
<path fill="none" stroke="midnightblue" d="M667.155,-42.7922C690.293,-47.8744 718.902,-54.1586 743.327,-59.5235"/>
<polygon fill="midnightblue" stroke="midnightblue" points="742.641,-62.9561 753.159,-61.6831 744.142,-56.1191 742.641,-62.9561"/>
</g>
<!-- Node7&#45;&gt;Node4 -->
<g id="edge8" class="edge"><title>Node7&#45;&gt;Node4</title>
<path fill="none" stroke="midnightblue" d="M667.155,-61.6141C690.293,-56.5319 718.902,-50.2477 743.327,-44.8828"/>
<polygon fill="midnightblue" stroke="midnightblue" points="744.142,-48.2872 753.159,-42.7232 742.641,-41.4502 744.142,-48.2872"/>
</g>
<!-- Node7&#45;&gt;Node6 -->
<g id="edge9" class="edge"><title>Node7&#45;&gt;Node6</title>
<path fill="none" stroke="midnightblue" d="M672.612,-71.2031C692.182,-71.2031 714.913,-71.2031 735.521,-71.2031"/>
<polygon fill="midnightblue" stroke="midnightblue" points="735.76,-74.7032 745.76,-71.2031 735.76,-67.7032 735.76,-74.7032"/>
</g>
<!-- Node8&#45;&gt;Node9 -->
<g id="edge11" class="edge"><title>Node8&#45;&gt;Node9</title>
<path fill="none" stroke="midnightblue" d="M697.118,-117.288C705.553,-118.215 714.154,-119.159 722.592,-120.086"/>
<polygon fill="midnightblue" stroke="midnightblue" points="722.459,-123.592 732.781,-121.205 723.223,-116.634 722.459,-123.592"/>
</g>
<!-- Node11 -->
<g id="node11" class="node"><title>Node11</title>
<g id="a_node11"><a xlink:href="class_s_a_m_1_1_message.html#a2e50d96be91972360cdeed02071ec8b3" target="_top" xlink:title="SAM::Message::createSAMRequest">
<polygon fill="white" stroke="black" points="335,-17.7031 335,-36.7031 512,-36.7031 512,-17.7031 335,-17.7031"/>
<text text-anchor="middle" x="423.5" y="-24.7031" font-family="Helvetica,sans-Serif" font-size="10.00">SAM::Message::createSAMRequest</text>
</a>
</g>
</g>
<!-- Node10&#45;&gt;Node11 -->
<g id="edge14" class="edge"><title>Node10&#45;&gt;Node11</title>
<path fill="none" stroke="midnightblue" d="M299.073,-27.2031C307.425,-27.2031 316.024,-27.2031 324.613,-27.2031"/>
<polygon fill="midnightblue" stroke="midnightblue" points="324.674,-30.7032 334.674,-27.2031 324.674,-23.7032 324.674,-30.7032"/>
</g>
</g>
</svg>
