<?xml version="1.0" encoding="UTF-8" standalone="no"?>
<!DOCTYPE svg PUBLIC "-//W3C//DTD SVG 1.1//EN"
 "http://www.w3.org/Graphics/SVG/1.1/DTD/svg11.dtd">
<!-- Generated by graphviz version 2.38.0 (20140413.2041)
 -->
<!-- Title: WalletFrame::usedSendingAddresses Pages: 1 -->
<svg width="1235pt" height="108pt"
 viewBox="0.00 0.00 1235.00 108.00" xmlns="http://www.w3.org/2000/svg" xmlns:xlink="http://www.w3.org/1999/xlink">
<g id="graph0" class="graph" transform="scale(1 1) rotate(0) translate(4 104)">
<title>WalletFrame::usedSendingAddresses</title>
<polygon fill="white" stroke="none" points="-4,4 -4,-104 1231,-104 1231,4 -4,4"/>
<!-- Node1 -->
<g id="node1" class="node"><title>Node1</title>
<polygon fill="#bfbfbf" stroke="black" points="0,-41.5 0,-71.5 137,-71.5 137,-41.5 0,-41.5"/>
<text text-anchor="start" x="8" y="-59.5" font-family="Helvetica,sans-Serif" font-size="10.00">WalletFrame::usedSending</text>
<text text-anchor="middle" x="68.5" y="-48.5" font-family="Helvetica,sans-Serif" font-size="10.00">Addresses</text>
</g>
<!-- Node2 -->
<g id="node2" class="node"><title>Node2</title>
<g id="a_node2"><a xlink:href="class_wallet_frame.html#a026798332d142b693e4f1820185d3f1c" target="_top" xlink:title="WalletFrame::currentWalletView">
<polygon fill="white" stroke="black" points="182,-66 182,-85 341,-85 341,-66 182,-66"/>
<text text-anchor="middle" x="261.5" y="-73" font-family="Helvetica,sans-Serif" font-size="10.00">WalletFrame::currentWalletView</text>
</a>
</g>
</g>
<!-- Node1&#45;&gt;Node2 -->
<g id="edge1" class="edge"><title>Node1&#45;&gt;Node2</title>
<path fill="none" stroke="midnightblue" d="M137.108,-63.2254C148.313,-64.3401 160.08,-65.5106 171.713,-66.6678"/>
<polygon fill="midnightblue" stroke="midnightblue" points="171.587,-70.1724 181.884,-67.6796 172.28,-63.2068 171.587,-70.1724"/>
</g>
<!-- Node3 -->
<g id="node3" class="node"><title>Node3</title>
<g id="a_node3"><a xlink:href="class_wallet_view.html#a6f0d012c18ea2df7336c852abe2a50d0" target="_top" xlink:title="Show used sending addresses. ">
<polygon fill="white" stroke="black" points="173,-28 173,-47 350,-47 350,-28 173,-28"/>
<text text-anchor="middle" x="261.5" y="-35" font-family="Helvetica,sans-Serif" font-size="10.00">WalletView::usedSendingAddresses</text>
</a>
</g>
</g>
<!-- Node1&#45;&gt;Node3 -->
<g id="edge2" class="edge"><title>Node1&#45;&gt;Node3</title>
<path fill="none" stroke="midnightblue" d="M137.108,-49.7746C145.438,-48.9459 154.079,-48.0864 162.744,-47.2244"/>
<polygon fill="midnightblue" stroke="midnightblue" points="163.307,-50.6858 172.911,-46.213 162.614,-43.7202 163.307,-50.6858"/>
</g>
<!-- Node4 -->
<g id="node4" class="node"><title>Node4</title>
<g id="a_node4"><a xlink:href="class_address_book_page.html#a1282cda9cb0300ee04c472ec4c9949f3" target="_top" xlink:title="AddressBookPage::setModel">
<polygon fill="white" stroke="black" points="390,-50 390,-69 535,-69 535,-50 390,-50"/>
<text text-anchor="middle" x="462.5" y="-57" font-family="Helvetica,sans-Serif" font-size="10.00">AddressBookPage::setModel</text>
</a>
</g>
</g>
<!-- Node3&#45;&gt;Node4 -->
<g id="edge3" class="edge"><title>Node3&#45;&gt;Node4</title>
<path fill="none" stroke="midnightblue" d="M348.627,-47.0216C358.947,-48.1625 369.463,-49.3251 379.72,-50.459"/>
<polygon fill="midnightblue" stroke="midnightblue" points="379.549,-53.9613 389.873,-51.5814 380.318,-47.0037 379.549,-53.9613"/>
</g>
<!-- Node11 -->
<g id="node11" class="node"><title>Node11</title>
<g id="a_node11"><a xlink:href="class_wallet_model.html#a89ed202e2dbc04aaa70d72872b95b351" target="_top" xlink:title="WalletModel::getAddressTable\lModel">
<polygon fill="white" stroke="black" points="386,-0.5 386,-30.5 539,-30.5 539,-0.5 386,-0.5"/>
<text text-anchor="start" x="394" y="-18.5" font-family="Helvetica,sans-Serif" font-size="10.00">WalletModel::getAddressTable</text>
<text text-anchor="middle" x="462.5" y="-7.5" font-family="Helvetica,sans-Serif" font-size="10.00">Model</text>
</a>
</g>
</g>
<!-- Node3&#45;&gt;Node11 -->
<g id="edge10" class="edge"><title>Node3&#45;&gt;Node11</title>
<path fill="none" stroke="midnightblue" d="M348.627,-27.9784C357.633,-26.9828 366.787,-25.9707 375.789,-24.9756"/>
<polygon fill="midnightblue" stroke="midnightblue" points="376.315,-28.4389 385.87,-23.8611 375.546,-21.4812 376.315,-28.4389"/>
</g>
<!-- Node5 -->
<g id="node5" class="node"><title>Node5</title>
<g id="a_node5"><a xlink:href="class_address_book_page.html#a9df2b5984c8b4ab2c4b5eade1aab8f3e" target="_top" xlink:title="Set button states based on selected tab and selection. ">
<polygon fill="white" stroke="black" points="578.5,-69.5 578.5,-99.5 722.5,-99.5 722.5,-69.5 578.5,-69.5"/>
<text text-anchor="start" x="586.5" y="-87.5" font-family="Helvetica,sans-Serif" font-size="10.00">AddressBookPage::selection</text>
<text text-anchor="middle" x="650.5" y="-76.5" font-family="Helvetica,sans-Serif" font-size="10.00">Changed</text>
</a>
</g>
</g>
<!-- Node4&#45;&gt;Node5 -->
<g id="edge4" class="edge"><title>Node4&#45;&gt;Node5</title>
<path fill="none" stroke="midnightblue" d="M534.349,-69.0227C545.353,-70.5018 556.797,-72.0399 568.014,-73.5475"/>
<polygon fill="midnightblue" stroke="midnightblue" points="567.854,-77.0575 578.232,-74.9209 568.787,-70.1199 567.854,-77.0575"/>
</g>
<!-- Node6 -->
<g id="node6" class="node"><title>Node6</title>
<g id="a_node6"><a xlink:href="class_address_book_page.html#ab62ba5d31e2d64c4d901da58d6b32a59" target="_top" xlink:title="New entry/entries were added to address table. ">
<polygon fill="white" stroke="black" points="575,-20.5 575,-50.5 726,-50.5 726,-20.5 575,-20.5"/>
<text text-anchor="start" x="583" y="-38.5" font-family="Helvetica,sans-Serif" font-size="10.00">AddressBookPage::selectNew</text>
<text text-anchor="middle" x="650.5" y="-27.5" font-family="Helvetica,sans-Serif" font-size="10.00">Address</text>
</a>
</g>
</g>
<!-- Node4&#45;&gt;Node6 -->
<g id="edge5" class="edge"><title>Node4&#45;&gt;Node6</title>
<path fill="none" stroke="midnightblue" d="M535.146,-50.2553C544.793,-49.0106 554.763,-47.7242 564.611,-46.4535"/>
<polygon fill="midnightblue" stroke="midnightblue" points="565.34,-49.8884 574.81,-45.1374 564.444,-42.946 565.34,-49.8884"/>
</g>
<!-- Node7 -->
<g id="node7" class="node"><title>Node7</title>
<g id="a_node7"><a xlink:href="class_address_table_model.html#a84f095bae13574410fceba53f8184abc" target="_top" xlink:title="AddressTableModel::\lindex">
<polygon fill="white" stroke="black" points="762,-20.5 762,-50.5 873,-50.5 873,-20.5 762,-20.5"/>
<text text-anchor="start" x="770" y="-38.5" font-family="Helvetica,sans-Serif" font-size="10.00">AddressTableModel::</text>
<text text-anchor="middle" x="817.5" y="-27.5" font-family="Helvetica,sans-Serif" font-size="10.00">index</text>
</a>
</g>
</g>
<!-- Node6&#45;&gt;Node7 -->
<g id="edge6" class="edge"><title>Node6&#45;&gt;Node7</title>
<path fill="none" stroke="midnightblue" d="M726.276,-35.5C734.762,-35.5 743.359,-35.5 751.702,-35.5"/>
<polygon fill="midnightblue" stroke="midnightblue" points="751.729,-39.0001 761.729,-35.5 751.729,-32.0001 751.729,-39.0001"/>
</g>
<!-- Node8 -->
<g id="node8" class="node"><title>Node8</title>
<g id="a_node8"><a xlink:href="class_address_table_model.html#a5ff6e3e2dab8b80428c4f59c4f1bc95a" target="_top" xlink:title="AddressTableModel::data">
<polygon fill="white" stroke="black" points="909,-45 909,-64 1039,-64 1039,-45 909,-45"/>
<text text-anchor="middle" x="974" y="-52" font-family="Helvetica,sans-Serif" font-size="10.00">AddressTableModel::data</text>
</a>
</g>
</g>
<!-- Node7&#45;&gt;Node8 -->
<g id="edge7" class="edge"><title>Node7&#45;&gt;Node8</title>
<path fill="none" stroke="midnightblue" d="M873.406,-42.2522C881.635,-43.2642 890.234,-44.3216 898.783,-45.373"/>
<polygon fill="midnightblue" stroke="midnightblue" points="898.419,-48.8545 908.771,-46.6013 899.273,-41.9068 898.419,-48.8545"/>
</g>
<!-- Node10 -->
<g id="node10" class="node"><title>Node10</title>
<g id="a_node10"><a xlink:href="class_address_table_priv.html#af311eb7d0189a74a508d7ad0f563f307" target="_top" xlink:title="AddressTablePriv::index">
<polygon fill="white" stroke="black" points="911.5,-7 911.5,-26 1036.5,-26 1036.5,-7 911.5,-7"/>
<text text-anchor="middle" x="974" y="-14" font-family="Helvetica,sans-Serif" font-size="10.00">AddressTablePriv::index</text>
</a>
</g>
</g>
<!-- Node7&#45;&gt;Node10 -->
<g id="edge9" class="edge"><title>Node7&#45;&gt;Node10</title>
<path fill="none" stroke="midnightblue" d="M873.406,-28.7478C882.451,-27.6355 891.943,-26.4682 901.324,-25.3145"/>
<polygon fill="midnightblue" stroke="midnightblue" points="901.937,-28.7656 911.435,-24.0712 901.082,-21.818 901.937,-28.7656"/>
</g>
<!-- Node9 -->
<g id="node9" class="node"><title>Node9</title>
<g id="a_node9"><a xlink:href="namespace_g_u_i_util.html#ad284d2b3b4732d897cf6f1d751065e98" target="_top" xlink:title="GUIUtil::anoncoinAddressFont">
<polygon fill="white" stroke="black" points="1075,-45 1075,-64 1227,-64 1227,-45 1075,-45"/>
<text text-anchor="middle" x="1151" y="-52" font-family="Helvetica,sans-Serif" font-size="10.00">GUIUtil::anoncoinAddressFont</text>
</a>
</g>
</g>
<!-- Node8&#45;&gt;Node9 -->
<g id="edge8" class="edge"><title>Node8&#45;&gt;Node9</title>
<path fill="none" stroke="midnightblue" d="M1039.17,-54.5C1047.51,-54.5 1056.16,-54.5 1064.78,-54.5"/>
<polygon fill="midnightblue" stroke="midnightblue" points="1064.87,-58.0001 1074.87,-54.5 1064.87,-51.0001 1064.87,-58.0001"/>
</g>
</g>
</svg>
