<?xml version="1.0" encoding="UTF-8" standalone="no"?>
<!DOCTYPE svg PUBLIC "-//W3C//DTD SVG 1.1//EN"
 "http://www.w3.org/Graphics/SVG/1.1/DTD/svg11.dtd">
<!-- Generated by graphviz version 2.38.0 (20140413.2041)
 -->
<!-- Title: OptionsDialog::setClientModel Pages: 1 -->
<svg width="670pt" height="39pt"
 viewBox="0.00 0.00 670.00 39.00" xmlns="http://www.w3.org/2000/svg" xmlns:xlink="http://www.w3.org/1999/xlink">
<g id="graph0" class="graph" transform="scale(1 1) rotate(0) translate(4 35)">
<title>OptionsDialog::setClientModel</title>
<polygon fill="white" stroke="none" points="-4,4 -4,-35 666,-35 666,4 -4,4"/>
<!-- Node1 -->
<g id="node1" class="node"><title>Node1</title>
<polygon fill="#bfbfbf" stroke="black" points="0,-0.5 0,-30.5 124,-30.5 124,-0.5 0,-0.5"/>
<text text-anchor="start" x="8" y="-18.5" font-family="Helvetica,sans-Serif" font-size="10.00">OptionsDialog::setClient</text>
<text text-anchor="middle" x="62" y="-7.5" font-family="Helvetica,sans-Serif" font-size="10.00">Model</text>
</g>
<!-- Node2 -->
<g id="node2" class="node"><title>Node2</title>
<g id="a_node2"><a xlink:href="class_anoncoin_g_u_i.html#a1afb9a47588132239cfba7be0adc2542" target="_top" xlink:title="Show configuration dialog. ">
<polygon fill="white" stroke="black" points="160,-6 160,-25 307,-25 307,-6 160,-6"/>
<text text-anchor="middle" x="233.5" y="-13" font-family="Helvetica,sans-Serif" font-size="10.00">AnoncoinGUI::optionsClicked</text>
</a>
</g>
</g>
<!-- Node1&#45;&gt;Node2 -->
<g id="edge1" class="edge"><title>Node1&#45;&gt;Node2</title>
<path fill="none" stroke="midnightblue" d="M134.362,-15.5C142.791,-15.5 151.402,-15.5 159.848,-15.5"/>
<polygon fill="midnightblue" stroke="midnightblue" points="134.193,-12.0001 124.193,-15.5 134.193,-19.0001 134.193,-12.0001"/>
</g>
<!-- Node3 -->
<g id="node3" class="node"><title>Node3</title>
<g id="a_node3"><a xlink:href="class_anoncoin_g_u_i.html#a8aa41c17fd6005652003d93330dbf7fb" target="_top" xlink:title="Create the main UI actions. ">
<polygon fill="white" stroke="black" points="343,-6 343,-25 485,-25 485,-6 343,-6"/>
<text text-anchor="middle" x="414" y="-13" font-family="Helvetica,sans-Serif" font-size="10.00">AnoncoinGUI::createActions</text>
</a>
</g>
</g>
<!-- Node2&#45;&gt;Node3 -->
<g id="edge2" class="edge"><title>Node2&#45;&gt;Node3</title>
<path fill="none" stroke="midnightblue" d="M317.114,-15.5C325.691,-15.5 334.35,-15.5 342.772,-15.5"/>
<polygon fill="midnightblue" stroke="midnightblue" points="317.103,-12.0001 307.103,-15.5 317.103,-19.0001 317.103,-12.0001"/>
</g>
<!-- Node4 -->
<g id="node4" class="node"><title>Node4</title>
<g id="a_node4"><a xlink:href="class_anoncoin_g_u_i.html#a82d1cf09f42a7c169b3e9c8d3e54a3d0" target="_top" xlink:title="AnoncoinGUI::AnoncoinGUI">
<polygon fill="white" stroke="black" points="521,-6 521,-25 662,-25 662,-6 521,-6"/>
<text text-anchor="middle" x="591.5" y="-13" font-family="Helvetica,sans-Serif" font-size="10.00">AnoncoinGUI::AnoncoinGUI</text>
</a>
</g>
</g>
<!-- Node3&#45;&gt;Node4 -->
<g id="edge3" class="edge"><title>Node3&#45;&gt;Node4</title>
<path fill="none" stroke="midnightblue" d="M495.391,-15.5C503.868,-15.5 512.437,-15.5 520.779,-15.5"/>
<polygon fill="midnightblue" stroke="midnightblue" points="495.119,-12.0001 485.119,-15.5 495.119,-19.0001 495.119,-12.0001"/>
</g>
</g>
</svg>
