<?xml version="1.0" encoding="UTF-8" standalone="no"?>
<!DOCTYPE svg PUBLIC "-//W3C//DTD SVG 1.1//EN"
 "http://www.w3.org/Graphics/SVG/1.1/DTD/svg11.dtd">
<!-- Generated by graphviz version 2.38.0 (20140413.2041)
 -->
<!-- Title: libzerocoin::CoinSpend::CoinSpend Pages: 1 -->
<svg width="288pt" height="137pt"
 viewBox="0.00 0.00 288.00 137.00" xmlns="http://www.w3.org/2000/svg" xmlns:xlink="http://www.w3.org/1999/xlink">
<g id="graph0" class="graph" transform="scale(1 1) rotate(0) translate(4 133)">
<title>libzerocoin::CoinSpend::CoinSpend</title>
<polygon fill="white" stroke="none" points="-4,4 -4,-133 284,-133 284,4 -4,4"/>
<!-- Node1 -->
<g id="node1" class="node"><title>Node1</title>
<polygon fill="#bfbfbf" stroke="black" points="0,-49.5 0,-79.5 119,-79.5 119,-49.5 0,-49.5"/>
<text text-anchor="start" x="8" y="-67.5" font-family="Helvetica,sans-Serif" font-size="10.00">libzerocoin::CoinSpend</text>
<text text-anchor="middle" x="59.5" y="-56.5" font-family="Helvetica,sans-Serif" font-size="10.00">::CoinSpend</text>
</g>
<!-- Node2 -->
<g id="node2" class="node"><title>Node2</title>
<g id="a_node2"><a xlink:href="classlibzerocoin_1_1_accumulator_witness.html#a62539f46936225e0af0cdb072c3e04dc" target="_top" xlink:title="Checks that this is a witness to the accumulation of coin. ">
<polygon fill="white" stroke="black" points="155,-98.5 155,-128.5 280,-128.5 280,-98.5 155,-98.5"/>
<text text-anchor="start" x="163" y="-116.5" font-family="Helvetica,sans-Serif" font-size="10.00">libzerocoin::Accumulator</text>
<text text-anchor="middle" x="217.5" y="-105.5" font-family="Helvetica,sans-Serif" font-size="10.00">Witness::VerifyWitness</text>
</a>
</g>
</g>
<!-- Node1&#45;&gt;Node2 -->
<g id="edge1" class="edge"><title>Node1&#45;&gt;Node2</title>
<path fill="none" stroke="midnightblue" d="M108.578,-79.6014C124.518,-84.6083 142.424,-90.2324 159,-95.439"/>
<polygon fill="midnightblue" stroke="midnightblue" points="157.991,-98.7908 168.581,-98.4484 160.089,-92.1125 157.991,-98.7908"/>
</g>
<!-- Node3 -->
<g id="node3" class="node"><title>Node3</title>
<g id="a_node3"><a xlink:href="classlibzerocoin_1_1_private_coin.html#a11f0047e01af467bba8d9fde58f88798" target="_top" xlink:title="libzerocoin::PrivateCoin\l::getPublicCoin">
<polygon fill="white" stroke="black" points="156.5,-49.5 156.5,-79.5 278.5,-79.5 278.5,-49.5 156.5,-49.5"/>
<text text-anchor="start" x="164.5" y="-67.5" font-family="Helvetica,sans-Serif" font-size="10.00">libzerocoin::PrivateCoin</text>
<text text-anchor="middle" x="217.5" y="-56.5" font-family="Helvetica,sans-Serif" font-size="10.00">::getPublicCoin</text>
</a>
</g>
</g>
<!-- Node1&#45;&gt;Node3 -->
<g id="edge2" class="edge"><title>Node1&#45;&gt;Node3</title>
<path fill="none" stroke="midnightblue" d="M119.032,-64.5C127.89,-64.5 137.104,-64.5 146.179,-64.5"/>
<polygon fill="midnightblue" stroke="midnightblue" points="146.339,-68.0001 156.339,-64.5 146.339,-61.0001 146.339,-68.0001"/>
</g>
<!-- Node4 -->
<g id="node4" class="node"><title>Node4</title>
<g id="a_node4"><a xlink:href="classlibzerocoin_1_1_public_coin.html#a6be47c86e07f35e6871eb45f8a621fb7" target="_top" xlink:title="libzerocoin::PublicCoin\l::getValue">
<polygon fill="white" stroke="black" points="158.5,-0.5 158.5,-30.5 276.5,-30.5 276.5,-0.5 158.5,-0.5"/>
<text text-anchor="start" x="166.5" y="-18.5" font-family="Helvetica,sans-Serif" font-size="10.00">libzerocoin::PublicCoin</text>
<text text-anchor="middle" x="217.5" y="-7.5" font-family="Helvetica,sans-Serif" font-size="10.00">::getValue</text>
</a>
</g>
</g>
<!-- Node1&#45;&gt;Node4 -->
<g id="edge3" class="edge"><title>Node1&#45;&gt;Node4</title>
<path fill="none" stroke="midnightblue" d="M108.578,-49.3986C124.518,-44.3917 142.424,-38.7676 159,-33.561"/>
<polygon fill="midnightblue" stroke="midnightblue" points="160.089,-36.8875 168.581,-30.5516 157.991,-30.2092 160.089,-36.8875"/>
</g>
</g>
</svg>
