<?xml version="1.0" encoding="UTF-8" standalone="no"?>
<!DOCTYPE svg PUBLIC "-//W3C//DTD SVG 1.1//EN"
 "http://www.w3.org/Graphics/SVG/1.1/DTD/svg11.dtd">
<!-- Generated by graphviz version 2.38.0 (20140413.2041)
 -->
<!-- Title: TransactionTableModel::formatTxType Pages: 1 -->
<svg width="1159pt" height="127pt"
 viewBox="0.00 0.00 1159.00 126.50" xmlns="http://www.w3.org/2000/svg" xmlns:xlink="http://www.w3.org/1999/xlink">
<g id="graph0" class="graph" transform="scale(1 1) rotate(0) translate(4 122.5)">
<title>TransactionTableModel::formatTxType</title>
<polygon fill="white" stroke="none" points="-4,4 -4,-122.5 1155,-122.5 1155,4 -4,4"/>
<!-- Node1 -->
<g id="node1" class="node"><title>Node1</title>
<polygon fill="#bfbfbf" stroke="black" points="0,-39 0,-69 121,-69 121,-39 0,-39"/>
<text text-anchor="start" x="8" y="-57" font-family="Helvetica,sans-Serif" font-size="10.00">TransactionTableModel</text>
<text text-anchor="middle" x="60.5" y="-46" font-family="Helvetica,sans-Serif" font-size="10.00">::formatTxType</text>
</g>
<!-- Node2 -->
<g id="node2" class="node"><title>Node2</title>
<g id="a_node2"><a xlink:href="class_transaction_table_model.html#a55917dc63edf980cf6f81ed17fbb9bca" target="_top" xlink:title="TransactionTableModel\l::formatTooltip">
<polygon fill="white" stroke="black" points="157,-61 157,-91 278,-91 278,-61 157,-61"/>
<text text-anchor="start" x="165" y="-79" font-family="Helvetica,sans-Serif" font-size="10.00">TransactionTableModel</text>
<text text-anchor="middle" x="217.5" y="-68" font-family="Helvetica,sans-Serif" font-size="10.00">::formatTooltip</text>
</a>
</g>
</g>
<!-- Node1&#45;&gt;Node2 -->
<g id="edge1" class="edge"><title>Node1&#45;&gt;Node2</title>
<path fill="none" stroke="midnightblue" d="M131.382,-63.9188C139.933,-65.1324 148.609,-66.3638 156.988,-67.5531"/>
<polygon fill="midnightblue" stroke="midnightblue" points="131.82,-60.4459 121.427,-62.5058 130.836,-67.3764 131.82,-60.4459"/>
</g>
<!-- Node3 -->
<g id="node3" class="node"><title>Node3</title>
<g id="a_node3"><a xlink:href="class_transaction_table_model.html#a416d0751ab9a95ecd87d3f7bed4f0b06" target="_top" xlink:title="TransactionTableModel\l::data">
<polygon fill="white" stroke="black" points="314,-39 314,-69 435,-69 435,-39 314,-39"/>
<text text-anchor="start" x="322" y="-57" font-family="Helvetica,sans-Serif" font-size="10.00">TransactionTableModel</text>
<text text-anchor="middle" x="374.5" y="-46" font-family="Helvetica,sans-Serif" font-size="10.00">::data</text>
</a>
</g>
</g>
<!-- Node1&#45;&gt;Node3 -->
<g id="edge12" class="edge"><title>Node1&#45;&gt;Node3</title>
<path fill="none" stroke="midnightblue" d="M131.223,-51.5559C139.902,-51.3264 148.655,-51.131 157,-51 210.771,-50.1556 224.229,-50.1556 278,-51 289.61,-51.1823 302.011,-51.4892 313.903,-51.839"/>
<polygon fill="midnightblue" stroke="midnightblue" points="130.995,-48.0607 121.097,-51.839 131.191,-55.058 130.995,-48.0607"/>
</g>
<!-- Node2&#45;&gt;Node3 -->
<g id="edge2" class="edge"><title>Node2&#45;&gt;Node3</title>
<path fill="none" stroke="midnightblue" d="M288.382,-66.0812C296.933,-64.8676 305.609,-63.6362 313.988,-62.4469"/>
<polygon fill="midnightblue" stroke="midnightblue" points="287.836,-62.6236 278.427,-67.4942 288.82,-69.5541 287.836,-62.6236"/>
</g>
<!-- Node4 -->
<g id="node4" class="node"><title>Node4</title>
<g id="a_node4"><a xlink:href="class_transaction_table_model.html#aaaf3cea9a5373fff771ce81d2f26de6e" target="_top" xlink:title="TransactionTableModel\l::index">
<polygon fill="white" stroke="black" points="471,-39 471,-69 592,-69 592,-39 471,-39"/>
<text text-anchor="start" x="479" y="-57" font-family="Helvetica,sans-Serif" font-size="10.00">TransactionTableModel</text>
<text text-anchor="middle" x="531.5" y="-46" font-family="Helvetica,sans-Serif" font-size="10.00">::index</text>
</a>
</g>
</g>
<!-- Node3&#45;&gt;Node4 -->
<g id="edge3" class="edge"><title>Node3&#45;&gt;Node4</title>
<path fill="none" stroke="midnightblue" d="M445.661,-54C454.122,-54 462.7,-54 470.988,-54"/>
<polygon fill="midnightblue" stroke="midnightblue" points="445.427,-50.5001 435.427,-54 445.427,-57.5001 445.427,-50.5001"/>
</g>
<!-- Node5 -->
<g id="node5" class="node"><title>Node5</title>
<g id="a_node5"><a xlink:href="class_transaction_table_model.html#a5899d9eda6465bfb16d2846b6459567e" target="_top" xlink:title="TransactionTableModel\l::updateConfirmations">
<polygon fill="white" stroke="black" points="657,-88 657,-118 778,-118 778,-88 657,-88"/>
<text text-anchor="start" x="665" y="-106" font-family="Helvetica,sans-Serif" font-size="10.00">TransactionTableModel</text>
<text text-anchor="middle" x="717.5" y="-95" font-family="Helvetica,sans-Serif" font-size="10.00">::updateConfirmations</text>
</a>
</g>
</g>
<!-- Node4&#45;&gt;Node5 -->
<g id="edge4" class="edge"><title>Node4&#45;&gt;Node5</title>
<path fill="none" stroke="midnightblue" d="M598.676,-71.6229C618.806,-76.9837 640.732,-82.8225 660.15,-87.9938"/>
<polygon fill="midnightblue" stroke="midnightblue" points="599.52,-68.2259 588.957,-69.0346 597.719,-74.9902 599.52,-68.2259"/>
</g>
<!-- Node8 -->
<g id="node8" class="node"><title>Node8</title>
<g id="a_node8"><a xlink:href="class_transaction_table_model.html#a8b73ff7d72ec2dd69790bc61bbe8575e" target="_top" xlink:title="TransactionTableModel\l::updateDisplayUnit">
<polygon fill="white" stroke="black" points="657,-39 657,-69 778,-69 778,-39 657,-39"/>
<text text-anchor="start" x="665" y="-57" font-family="Helvetica,sans-Serif" font-size="10.00">TransactionTableModel</text>
<text text-anchor="middle" x="717.5" y="-46" font-family="Helvetica,sans-Serif" font-size="10.00">::updateDisplayUnit</text>
</a>
</g>
</g>
<!-- Node4&#45;&gt;Node8 -->
<g id="edge7" class="edge"><title>Node4&#45;&gt;Node8</title>
<path fill="none" stroke="midnightblue" d="M602.343,-54C620.267,-54 639.383,-54 656.746,-54"/>
<polygon fill="midnightblue" stroke="midnightblue" points="602.24,-50.5001 592.24,-54 602.239,-57.5001 602.24,-50.5001"/>
</g>
<!-- Node10 -->
<g id="node10" class="node"><title>Node10</title>
<g id="a_node10"><a xlink:href="class_wallet_view.html#addde7d2260658ee06f47f9c095a8cb2a" target="_top" xlink:title="Show incoming transaction notification for new transactions. ">
<polygon fill="white" stroke="black" points="628,-0.5 628,-19.5 807,-19.5 807,-0.5 628,-0.5"/>
<text text-anchor="middle" x="717.5" y="-7.5" font-family="Helvetica,sans-Serif" font-size="10.00">WalletView::processNewTransaction</text>
</a>
</g>
</g>
<!-- Node4&#45;&gt;Node10 -->
<g id="edge9" class="edge"><title>Node4&#45;&gt;Node10</title>
<path fill="none" stroke="midnightblue" d="M598.097,-36.417C608.096,-33.8559 618.309,-31.3075 628,-29 641.606,-25.7604 656.448,-22.4768 670.022,-19.5715"/>
<polygon fill="midnightblue" stroke="midnightblue" points="597.003,-33.0844 588.196,-38.9738 598.754,-39.862 597.003,-33.0844"/>
</g>
<!-- Node6 -->
<g id="node6" class="node"><title>Node6</title>
<g id="a_node6"><a xlink:href="class_wallet_model.html#a51469b2d95cfd4bc0a14ee456fca7b95" target="_top" xlink:title="WalletModel::pollBalance\lChanged">
<polygon fill="white" stroke="black" points="848.5,-88 848.5,-118 977.5,-118 977.5,-88 848.5,-88"/>
<text text-anchor="start" x="856.5" y="-106" font-family="Helvetica,sans-Serif" font-size="10.00">WalletModel::pollBalance</text>
<text text-anchor="middle" x="913" y="-95" font-family="Helvetica,sans-Serif" font-size="10.00">Changed</text>
</a>
</g>
</g>
<!-- Node5&#45;&gt;Node6 -->
<g id="edge5" class="edge"><title>Node5&#45;&gt;Node6</title>
<path fill="none" stroke="midnightblue" d="M788.21,-103C807.791,-103 828.979,-103 848.197,-103"/>
<polygon fill="midnightblue" stroke="midnightblue" points="788.135,-99.5001 778.135,-103 788.135,-106.5 788.135,-99.5001"/>
</g>
<!-- Node7 -->
<g id="node7" class="node"><title>Node7</title>
<g id="a_node7"><a xlink:href="class_wallet_model.html#af50d9654d2f20e4e4f0789dcb64ad6b1" target="_top" xlink:title="WalletModel::WalletModel">
<polygon fill="white" stroke="black" points="1019,-93.5 1019,-112.5 1151,-112.5 1151,-93.5 1019,-93.5"/>
<text text-anchor="middle" x="1085" y="-100.5" font-family="Helvetica,sans-Serif" font-size="10.00">WalletModel::WalletModel</text>
</a>
</g>
</g>
<!-- Node6&#45;&gt;Node7 -->
<g id="edge6" class="edge"><title>Node6&#45;&gt;Node7</title>
<path fill="none" stroke="midnightblue" d="M987.937,-103C998.184,-103 1008.65,-103 1018.72,-103"/>
<polygon fill="midnightblue" stroke="midnightblue" points="987.785,-99.5001 977.785,-103 987.785,-106.5 987.785,-99.5001"/>
</g>
<!-- Node9 -->
<g id="node9" class="node"><title>Node9</title>
<g id="a_node9"><a xlink:href="class_transaction_table_model.html#a6c10b7cab9804eee6df9e049a978dc62" target="_top" xlink:title="TransactionTableModel\l::TransactionTableModel">
<polygon fill="white" stroke="black" points="849.5,-39 849.5,-69 976.5,-69 976.5,-39 849.5,-39"/>
<text text-anchor="start" x="857.5" y="-57" font-family="Helvetica,sans-Serif" font-size="10.00">TransactionTableModel</text>
<text text-anchor="middle" x="913" y="-46" font-family="Helvetica,sans-Serif" font-size="10.00">::TransactionTableModel</text>
</a>
</g>
</g>
<!-- Node8&#45;&gt;Node9 -->
<g id="edge8" class="edge"><title>Node8&#45;&gt;Node9</title>
<path fill="none" stroke="midnightblue" d="M788.363,-54C808.247,-54 829.776,-54 849.211,-54"/>
<polygon fill="midnightblue" stroke="midnightblue" points="788.135,-50.5001 778.135,-54 788.135,-57.5001 788.135,-50.5001"/>
</g>
<!-- Node11 -->
<g id="node11" class="node"><title>Node11</title>
<g id="a_node11"><a xlink:href="class_wallet_view.html#a0a37ff693a4f9c1e5ddc23f9cd3913be" target="_top" xlink:title="Set the wallet model. ">
<polygon fill="white" stroke="black" points="843,-0.5 843,-19.5 983,-19.5 983,-0.5 843,-0.5"/>
<text text-anchor="middle" x="913" y="-7.5" font-family="Helvetica,sans-Serif" font-size="10.00">WalletView::setWalletModel</text>
</a>
</g>
</g>
<!-- Node10&#45;&gt;Node11 -->
<g id="edge10" class="edge"><title>Node10&#45;&gt;Node11</title>
<path fill="none" stroke="midnightblue" d="M817.222,-10C825.903,-10 834.563,-10 842.922,-10"/>
<polygon fill="midnightblue" stroke="midnightblue" points="817.039,-6.5001 807.039,-10 817.039,-13.5001 817.039,-6.5001"/>
</g>
<!-- Node12 -->
<g id="node12" class="node"><title>Node12</title>
<g id="a_node12"><a xlink:href="class_wallet_frame.html#aa199c3f27654199d84c365cf86167d86" target="_top" xlink:title="WalletFrame::addWallet">
<polygon fill="white" stroke="black" points="1023.5,-0.5 1023.5,-19.5 1146.5,-19.5 1146.5,-0.5 1023.5,-0.5"/>
<text text-anchor="middle" x="1085" y="-7.5" font-family="Helvetica,sans-Serif" font-size="10.00">WalletFrame::addWallet</text>
</a>
</g>
</g>
<!-- Node11&#45;&gt;Node12 -->
<g id="edge11" class="edge"><title>Node11&#45;&gt;Node12</title>
<path fill="none" stroke="midnightblue" d="M993.222,-10C1003.36,-10 1013.6,-10 1023.38,-10"/>
<polygon fill="midnightblue" stroke="midnightblue" points="993.146,-6.5001 983.146,-10 993.145,-13.5001 993.146,-6.5001"/>
</g>
</g>
</svg>
