<?xml version="1.0" encoding="UTF-8" standalone="no"?>
<!DOCTYPE svg PUBLIC "-//W3C//DTD SVG 1.1//EN"
 "http://www.w3.org/Graphics/SVG/1.1/DTD/svg11.dtd">
<!-- Generated by graphviz version 2.38.0 (20140413.2041)
 -->
<!-- Title: CService::ToStringIPPort Pages: 1 -->
<svg width="791pt" height="218pt"
 viewBox="0.00 0.00 791.00 218.00" xmlns="http://www.w3.org/2000/svg" xmlns:xlink="http://www.w3.org/1999/xlink">
<g id="graph0" class="graph" transform="scale(1 1) rotate(0) translate(4 214)">
<title>CService::ToStringIPPort</title>
<polygon fill="white" stroke="none" points="-4,4 -4,-214 787,-214 787,4 -4,4"/>
<!-- Node1 -->
<g id="node1" class="node"><title>Node1</title>
<polygon fill="#bfbfbf" stroke="black" points="0,-114.5 0,-133.5 128,-133.5 128,-114.5 0,-114.5"/>
<text text-anchor="middle" x="64" y="-121.5" font-family="Helvetica,sans-Serif" font-size="10.00">CService::ToStringIPPort</text>
</g>
<!-- Node2 -->
<g id="node2" class="node"><title>Node2</title>
<g id="a_node2"><a xlink:href="util_8cpp.html#a24f685720bf40370e5bd2a192ad50cd8" target="_top" xlink:title="Return string argument or default value. ">
<polygon fill="white" stroke="black" points="199.5,-190.5 199.5,-209.5 247.5,-209.5 247.5,-190.5 199.5,-190.5"/>
<text text-anchor="middle" x="223.5" y="-197.5" font-family="Helvetica,sans-Serif" font-size="10.00">GetArg</text>
</a>
</g>
</g>
<!-- Node1&#45;&gt;Node2 -->
<g id="edge1" class="edge"><title>Node1&#45;&gt;Node2</title>
<path fill="none" stroke="midnightblue" d="M79.5845,-133.696C98.4579,-145.933 132.646,-167.065 164,-181 172.136,-184.616 181.177,-187.892 189.672,-190.666"/>
<polygon fill="midnightblue" stroke="midnightblue" points="188.716,-194.034 199.305,-193.682 190.807,-187.354 188.716,-194.034"/>
</g>
<!-- Node3 -->
<g id="node3" class="node"><title>Node3</title>
<g id="a_node3"><a xlink:href="class_c_service.html#a1e0f0b98239a9097044695a9e439bb46" target="_top" xlink:title="CService::ToStringPort">
<polygon fill="white" stroke="black" points="164,-152.5 164,-171.5 283,-171.5 283,-152.5 164,-152.5"/>
<text text-anchor="middle" x="223.5" y="-159.5" font-family="Helvetica,sans-Serif" font-size="10.00">CService::ToStringPort</text>
</a>
</g>
</g>
<!-- Node1&#45;&gt;Node3 -->
<g id="edge2" class="edge"><title>Node1&#45;&gt;Node3</title>
<path fill="none" stroke="midnightblue" d="M104.744,-133.589C125.528,-138.604 151.161,-144.788 173.199,-150.105"/>
<polygon fill="midnightblue" stroke="midnightblue" points="172.5,-153.537 183.042,-152.48 174.142,-146.732 172.5,-153.537"/>
</g>
<!-- Node4 -->
<g id="node4" class="node"><title>Node4</title>
<g id="a_node4"><a xlink:href="class_c_net_addr.html#a16ff4478f02f06f5a9a038a24d5da2f9" target="_top" xlink:title="CNetAddr::IsIPv4">
<polygon fill="white" stroke="black" points="488.5,-114.5 488.5,-133.5 582.5,-133.5 582.5,-114.5 488.5,-114.5"/>
<text text-anchor="middle" x="535.5" y="-121.5" font-family="Helvetica,sans-Serif" font-size="10.00">CNetAddr::IsIPv4</text>
</a>
</g>
</g>
<!-- Node1&#45;&gt;Node4 -->
<g id="edge3" class="edge"><title>Node1&#45;&gt;Node4</title>
<path fill="none" stroke="midnightblue" d="M128.319,-124C220.533,-124 390.345,-124 478.339,-124"/>
<polygon fill="midnightblue" stroke="midnightblue" points="478.396,-127.5 488.396,-124 478.396,-120.5 478.396,-127.5"/>
</g>
<!-- Node5 -->
<g id="node5" class="node"><title>Node5</title>
<g id="a_node5"><a xlink:href="class_c_net_addr.html#a3fba9e0b18f531c0ed15794a30e8165d" target="_top" xlink:title="CNetAddr::IsTor">
<polygon fill="white" stroke="black" points="179,-76.5 179,-95.5 268,-95.5 268,-76.5 179,-76.5"/>
<text text-anchor="middle" x="223.5" y="-83.5" font-family="Helvetica,sans-Serif" font-size="10.00">CNetAddr::IsTor</text>
</a>
</g>
</g>
<!-- Node1&#45;&gt;Node5 -->
<g id="edge4" class="edge"><title>Node1&#45;&gt;Node5</title>
<path fill="none" stroke="midnightblue" d="M104.744,-114.411C125.528,-109.396 151.161,-103.212 173.199,-97.8947"/>
<polygon fill="midnightblue" stroke="midnightblue" points="174.142,-101.268 183.042,-95.5201 172.5,-94.4632 174.142,-101.268"/>
</g>
<!-- Node6 -->
<g id="node6" class="node"><title>Node6</title>
<g id="a_node6"><a xlink:href="class_c_net_addr.html#a7ec845c27b63853fb0db08a4d154266f" target="_top" xlink:title="CNetAddr::ToStringIP">
<polygon fill="white" stroke="black" points="167,-38.5 167,-57.5 280,-57.5 280,-38.5 167,-38.5"/>
<text text-anchor="middle" x="223.5" y="-45.5" font-family="Helvetica,sans-Serif" font-size="10.00">CNetAddr::ToStringIP</text>
</a>
</g>
</g>
<!-- Node1&#45;&gt;Node6 -->
<g id="edge5" class="edge"><title>Node1&#45;&gt;Node6</title>
<path fill="none" stroke="midnightblue" d="M79.5845,-114.304C98.4579,-102.067 132.646,-80.9348 164,-67 168.817,-64.8593 173.951,-62.8378 179.1,-60.9691"/>
<polygon fill="midnightblue" stroke="midnightblue" points="180.633,-64.1429 188.944,-57.5725 178.35,-57.5257 180.633,-64.1429"/>
</g>
<!-- Node7 -->
<g id="node7" class="node"><title>Node7</title>
<g id="a_node7"><a xlink:href="util_8cpp.html#a71aa75e646de8a10971f887bc71d9a75" target="_top" xlink:title="EncodeBase32">
<polygon fill="white" stroke="black" points="338,-76.5 338,-95.5 422,-95.5 422,-76.5 338,-76.5"/>
<text text-anchor="middle" x="380" y="-83.5" font-family="Helvetica,sans-Serif" font-size="10.00">EncodeBase32</text>
</a>
</g>
</g>
<!-- Node6&#45;&gt;Node7 -->
<g id="edge6" class="edge"><title>Node6&#45;&gt;Node7</title>
<path fill="none" stroke="midnightblue" d="M263.487,-57.589C283.783,-62.5809 308.793,-68.7324 330.346,-74.0334"/>
<polygon fill="midnightblue" stroke="midnightblue" points="329.747,-77.4902 340.293,-76.4799 331.419,-70.6928 329.747,-77.4902"/>
</g>
<!-- Node8 -->
<g id="node8" class="node"><title>Node8</title>
<g id="a_node8"><a xlink:href="class_c_service.html#ab0f791c174511056236119cc1580faeb" target="_top" xlink:title="CService::GetSockAddr">
<polygon fill="white" stroke="black" points="319,-38.5 319,-57.5 441,-57.5 441,-38.5 319,-38.5"/>
<text text-anchor="middle" x="380" y="-45.5" font-family="Helvetica,sans-Serif" font-size="10.00">CService::GetSockAddr</text>
</a>
</g>
</g>
<!-- Node6&#45;&gt;Node8 -->
<g id="edge7" class="edge"><title>Node6&#45;&gt;Node8</title>
<path fill="none" stroke="midnightblue" d="M280.278,-48C289.482,-48 299.128,-48 308.633,-48"/>
<polygon fill="midnightblue" stroke="midnightblue" points="308.865,-51.5001 318.865,-48 308.865,-44.5001 308.865,-51.5001"/>
</g>
<!-- Node8&#45;&gt;Node4 -->
<g id="edge8" class="edge"><title>Node8&#45;&gt;Node4</title>
<path fill="none" stroke="midnightblue" d="M420.992,-57.5369C427.94,-60.0551 434.888,-63.1721 441,-67 460.717,-79.3488 457.361,-92.5285 477,-105 480.159,-107.006 483.551,-108.822 487.051,-110.461"/>
<polygon fill="midnightblue" stroke="midnightblue" points="485.901,-113.774 496.477,-114.398 488.599,-107.314 485.901,-113.774"/>
</g>
<!-- Node9 -->
<g id="node9" class="node"><title>Node9</title>
<g id="a_node9"><a xlink:href="class_c_net_addr.html#aa2e2c78db01a6a27d6a2740f2ba43e90" target="_top" xlink:title="CNetAddr::GetInAddr">
<polygon fill="white" stroke="black" points="479.5,-76.5 479.5,-95.5 591.5,-95.5 591.5,-76.5 479.5,-76.5"/>
<text text-anchor="middle" x="535.5" y="-83.5" font-family="Helvetica,sans-Serif" font-size="10.00">CNetAddr::GetInAddr</text>
</a>
</g>
</g>
<!-- Node8&#45;&gt;Node9 -->
<g id="edge9" class="edge"><title>Node8&#45;&gt;Node9</title>
<path fill="none" stroke="midnightblue" d="M419.735,-57.589C439.899,-62.5809 464.748,-68.7324 486.161,-74.0334"/>
<polygon fill="midnightblue" stroke="midnightblue" points="485.496,-77.4743 496.044,-76.4799 487.178,-70.6794 485.496,-77.4743"/>
</g>
<!-- Node12 -->
<g id="node12" class="node"><title>Node12</title>
<g id="a_node12"><a xlink:href="class_c_net_addr.html#a0edb022cd6a186de8099799415409d57" target="_top" xlink:title="CNetAddr::IsIPv6">
<polygon fill="white" stroke="black" points="488.5,-38.5 488.5,-57.5 582.5,-57.5 582.5,-38.5 488.5,-38.5"/>
<text text-anchor="middle" x="535.5" y="-45.5" font-family="Helvetica,sans-Serif" font-size="10.00">CNetAddr::IsIPv6</text>
</a>
</g>
</g>
<!-- Node8&#45;&gt;Node12 -->
<g id="edge12" class="edge"><title>Node8&#45;&gt;Node12</title>
<path fill="none" stroke="midnightblue" d="M441.227,-48C453.31,-48 465.966,-48 477.92,-48"/>
<polygon fill="midnightblue" stroke="midnightblue" points="478.212,-51.5001 488.212,-48 478.212,-44.5001 478.212,-51.5001"/>
</g>
<!-- Node13 -->
<g id="node13" class="node"><title>Node13</title>
<g id="a_node13"><a xlink:href="class_c_net_addr.html#add7811be50f5fe60c4fa65b461dea98c" target="_top" xlink:title="CNetAddr::GetIn6Addr">
<polygon fill="white" stroke="black" points="477,-0.5 477,-19.5 594,-19.5 594,-0.5 477,-0.5"/>
<text text-anchor="middle" x="535.5" y="-7.5" font-family="Helvetica,sans-Serif" font-size="10.00">CNetAddr::GetIn6Addr</text>
</a>
</g>
</g>
<!-- Node8&#45;&gt;Node13 -->
<g id="edge13" class="edge"><title>Node8&#45;&gt;Node13</title>
<path fill="none" stroke="midnightblue" d="M419.735,-38.411C439.899,-33.4191 464.748,-27.2676 486.161,-21.9666"/>
<polygon fill="midnightblue" stroke="midnightblue" points="487.178,-25.3206 496.044,-19.5201 485.496,-18.5257 487.178,-25.3206"/>
</g>
<!-- Node10 -->
<g id="node10" class="node"><title>Node10</title>
<g id="a_node10"><a xlink:href="glibc__compat_8cpp.html#a0f46826ab0466591e136db24394923cf" target="_top" xlink:title="memcpy">
<polygon fill="white" stroke="black" points="630,-38.5 630,-57.5 684,-57.5 684,-38.5 630,-38.5"/>
<text text-anchor="middle" x="657" y="-45.5" font-family="Helvetica,sans-Serif" font-size="10.00">memcpy</text>
</a>
</g>
</g>
<!-- Node9&#45;&gt;Node10 -->
<g id="edge10" class="edge"><title>Node9&#45;&gt;Node10</title>
<path fill="none" stroke="midnightblue" d="M566.655,-76.411C582.954,-71.228 603.184,-64.795 620.27,-59.3617"/>
<polygon fill="midnightblue" stroke="midnightblue" points="621.445,-62.6611 629.914,-56.2952 619.323,-55.9903 621.445,-62.6611"/>
</g>
<!-- Node11 -->
<g id="node11" class="node"><title>Node11</title>
<g id="a_node11"><a xlink:href="glibc__compat_8cpp.html#a9778d49e9029dd75bc53ecbbf9f5e9a1" target="_top" xlink:title="memmove">
<polygon fill="white" stroke="black" points="720,-38.5 720,-57.5 783,-57.5 783,-38.5 720,-38.5"/>
<text text-anchor="middle" x="751.5" y="-45.5" font-family="Helvetica,sans-Serif" font-size="10.00">memmove</text>
</a>
</g>
</g>
<!-- Node10&#45;&gt;Node11 -->
<g id="edge11" class="edge"><title>Node10&#45;&gt;Node11</title>
<path fill="none" stroke="midnightblue" d="M684.259,-48C692.244,-48 701.214,-48 709.912,-48"/>
<polygon fill="midnightblue" stroke="midnightblue" points="709.924,-51.5001 719.924,-48 709.924,-44.5001 709.924,-51.5001"/>
</g>
<!-- Node13&#45;&gt;Node10 -->
<g id="edge14" class="edge"><title>Node13&#45;&gt;Node10</title>
<path fill="none" stroke="midnightblue" d="M566.655,-19.589C582.954,-24.772 603.184,-31.205 620.27,-36.6383"/>
<polygon fill="midnightblue" stroke="midnightblue" points="619.323,-40.0097 629.914,-39.7048 621.445,-33.3389 619.323,-40.0097"/>
</g>
</g>
</svg>
