<?xml version="1.0" encoding="UTF-8" standalone="no"?>
<!DOCTYPE svg PUBLIC "-//W3C//DTD SVG 1.1//EN"
 "http://www.w3.org/Graphics/SVG/1.1/DTD/svg11.dtd">
<!-- Generated by graphviz version 2.38.0 (20140413.2041)
 -->
<!-- Title: CPubKey::IsValid Pages: 1 -->
<svg width="1758pt" height="494pt"
 viewBox="0.00 0.00 1758.00 494.00" xmlns="http://www.w3.org/2000/svg" xmlns:xlink="http://www.w3.org/1999/xlink">
<g id="graph0" class="graph" transform="scale(1 1) rotate(0) translate(4 490)">
<title>CPubKey::IsValid</title>
<polygon fill="white" stroke="none" points="-4,4 -4,-490 1754,-490 1754,4 -4,4"/>
<!-- Node1 -->
<g id="node1" class="node"><title>Node1</title>
<polygon fill="#bfbfbf" stroke="black" points="0,-171.5 0,-190.5 94,-190.5 94,-171.5 0,-171.5"/>
<text text-anchor="middle" x="47" y="-178.5" font-family="Helvetica,sans-Serif" font-size="10.00">CPubKey::IsValid</text>
</g>
<!-- Node2 -->
<g id="node2" class="node"><title>Node2</title>
<g id="a_node2"><a xlink:href="class_c_pub_key.html#ab4047c7ce31b72591d8108a2563cd21b" target="_top" xlink:title="CPubKey::Verify">
<polygon fill="white" stroke="black" points="171,-342.5 171,-361.5 261,-361.5 261,-342.5 171,-342.5"/>
<text text-anchor="middle" x="216" y="-349.5" font-family="Helvetica,sans-Serif" font-size="10.00">CPubKey::Verify</text>
</a>
</g>
</g>
<!-- Node1&#45;&gt;Node2 -->
<g id="edge1" class="edge"><title>Node1&#45;&gt;Node2</title>
<path fill="none" stroke="midnightblue" d="M53.463,-200.373C63.3712,-231.932 87.3334,-294.296 130,-328 141.672,-337.22 156.702,-342.899 170.87,-346.396"/>
<polygon fill="midnightblue" stroke="midnightblue" points="56.7563,-199.169 50.5368,-190.592 50.05,-201.176 56.7563,-199.169"/>
</g>
<!-- Node4 -->
<g id="node4" class="node"><title>Node4</title>
<g id="a_node4"><a xlink:href="script_8cpp.html#af1a7eb0123f11ad1154249f4a4c1a9d1" target="_top" xlink:title="CheckSig">
<polygon fill="white" stroke="black" points="383,-327.5 383,-346.5 442,-346.5 442,-327.5 383,-327.5"/>
<text text-anchor="middle" x="412.5" y="-334.5" font-family="Helvetica,sans-Serif" font-size="10.00">CheckSig</text>
</a>
</g>
</g>
<!-- Node1&#45;&gt;Node4 -->
<g id="edge42" class="edge"><title>Node1&#45;&gt;Node4</title>
<path fill="none" stroke="midnightblue" d="M55.8145,-199.863C67.6868,-225.945 92.8827,-272.362 130,-295 172.08,-320.665 319.53,-331.835 382.566,-335.516"/>
<polygon fill="midnightblue" stroke="midnightblue" points="59.003,-198.419 51.7942,-190.654 52.5878,-201.219 59.003,-198.419"/>
</g>
<!-- Node26 -->
<g id="node26" class="node"><title>Node26</title>
<g id="a_node26"><a xlink:href="class_c_pub_key.html#a2ea04a941b3b07ab037bc79abb1373a6" target="_top" xlink:title="CPubKey::VerifyCompact">
<polygon fill="white" stroke="black" points="151,-266.5 151,-285.5 281,-285.5 281,-266.5 151,-266.5"/>
<text text-anchor="middle" x="216" y="-273.5" font-family="Helvetica,sans-Serif" font-size="10.00">CPubKey::VerifyCompact</text>
</a>
</g>
</g>
<!-- Node1&#45;&gt;Node26 -->
<g id="edge28" class="edge"><title>Node1&#45;&gt;Node26</title>
<path fill="none" stroke="midnightblue" d="M61.9097,-198.443C76.8571,-215.97 102.237,-242.416 130,-257 137.363,-260.868 145.485,-263.95 153.701,-266.407"/>
<polygon fill="midnightblue" stroke="midnightblue" points="64.5223,-196.11 55.4452,-190.646 59.1336,-200.578 64.5223,-196.11"/>
</g>
<!-- Node27 -->
<g id="node27" class="node"><title>Node27</title>
<g id="a_node27"><a xlink:href="class_c_pub_key.html#a2533ec5fc9a1c3d2ef39d0faa3ad6cdd" target="_top" xlink:title="CPubKey::IsFullyValid">
<polygon fill="white" stroke="black" points="158.5,-228.5 158.5,-247.5 273.5,-247.5 273.5,-228.5 158.5,-228.5"/>
<text text-anchor="middle" x="216" y="-235.5" font-family="Helvetica,sans-Serif" font-size="10.00">CPubKey::IsFullyValid</text>
</a>
</g>
</g>
<!-- Node1&#45;&gt;Node27 -->
<g id="edge29" class="edge"><title>Node1&#45;&gt;Node27</title>
<path fill="none" stroke="midnightblue" d="M74.9082,-195.249C90.6302,-203.12 111.05,-212.574 130,-219 140.74,-222.642 152.483,-225.781 163.719,-228.399"/>
<polygon fill="midnightblue" stroke="midnightblue" points="76.2798,-192.02 65.7812,-190.595 73.0996,-198.256 76.2798,-192.02"/>
</g>
<!-- Node32 -->
<g id="node32" class="node"><title>Node32</title>
<g id="a_node32"><a xlink:href="class_c_pub_key.html#a572689418fecf47b300a11519bc3da36" target="_top" xlink:title="CPubKey::Decompress">
<polygon fill="white" stroke="black" points="156,-190.5 156,-209.5 276,-209.5 276,-190.5 156,-190.5"/>
<text text-anchor="middle" x="216" y="-197.5" font-family="Helvetica,sans-Serif" font-size="10.00">CPubKey::Decompress</text>
</a>
</g>
</g>
<!-- Node1&#45;&gt;Node32 -->
<g id="edge34" class="edge"><title>Node1&#45;&gt;Node32</title>
<path fill="none" stroke="midnightblue" d="M104.197,-187.394C120.834,-189.287 139.097,-191.364 155.911,-193.277"/>
<polygon fill="midnightblue" stroke="midnightblue" points="104.407,-183.895 94.0756,-186.242 103.616,-190.85 104.407,-183.895"/>
</g>
<!-- Node35 -->
<g id="node35" class="node"><title>Node35</title>
<g id="a_node35"><a xlink:href="class_c_pub_key.html#a182298237bb189abfe006e2ff3350acc" target="_top" xlink:title="CPubKey::Derive">
<polygon fill="white" stroke="black" points="169.5,-152.5 169.5,-171.5 262.5,-171.5 262.5,-152.5 169.5,-152.5"/>
<text text-anchor="middle" x="216" y="-159.5" font-family="Helvetica,sans-Serif" font-size="10.00">CPubKey::Derive</text>
</a>
</g>
</g>
<!-- Node1&#45;&gt;Node35 -->
<g id="edge37" class="edge"><title>Node1&#45;&gt;Node35</title>
<path fill="none" stroke="midnightblue" d="M104.24,-174.601C125.432,-172.19 149.256,-169.48 169.364,-167.192"/>
<polygon fill="midnightblue" stroke="midnightblue" points="103.616,-171.15 94.0756,-175.758 104.407,-178.105 103.616,-171.15"/>
</g>
<!-- Node37 -->
<g id="node37" class="node"><title>Node37</title>
<g id="a_node37"><a xlink:href="rpcwallet_8cpp.html#a9f40a730390f78ad6e2c32d0ec9bf1ef" target="_top" xlink:title="GetAccountAddress">
<polygon fill="white" stroke="black" points="163.5,-114.5 163.5,-133.5 268.5,-133.5 268.5,-114.5 163.5,-114.5"/>
<text text-anchor="middle" x="216" y="-121.5" font-family="Helvetica,sans-Serif" font-size="10.00">GetAccountAddress</text>
</a>
</g>
</g>
<!-- Node1&#45;&gt;Node37 -->
<g id="edge39" class="edge"><title>Node1&#45;&gt;Node37</title>
<path fill="none" stroke="midnightblue" d="M74.9082,-166.751C90.6302,-158.88 111.05,-149.426 130,-143 140.74,-139.358 152.483,-136.219 163.719,-133.601"/>
<polygon fill="midnightblue" stroke="midnightblue" points="73.0996,-163.744 65.7812,-171.405 76.2798,-169.98 73.0996,-163.744"/>
</g>
<!-- Node40 -->
<g id="node40" class="node"><title>Node40</title>
<g id="a_node40"><a xlink:href="class_c_wallet.html#a9921854840668a1856998f041177dd2b" target="_top" xlink:title="CWallet::ReserveKeyFromKeyPool">
<polygon fill="white" stroke="black" points="130,-76.5 130,-95.5 302,-95.5 302,-76.5 130,-76.5"/>
<text text-anchor="middle" x="216" y="-83.5" font-family="Helvetica,sans-Serif" font-size="10.00">CWallet::ReserveKeyFromKeyPool</text>
</a>
</g>
</g>
<!-- Node1&#45;&gt;Node40 -->
<g id="edge43" class="edge"><title>Node1&#45;&gt;Node40</title>
<path fill="none" stroke="midnightblue" d="M61.9097,-163.557C76.8571,-146.03 102.237,-119.584 130,-105 137.363,-101.132 145.485,-98.0497 153.701,-95.5932"/>
<polygon fill="midnightblue" stroke="midnightblue" points="59.1336,-161.422 55.4452,-171.354 64.5223,-165.89 59.1336,-161.422"/>
</g>
<!-- Node41 -->
<g id="node41" class="node"><title>Node41</title>
<g id="a_node41"><a xlink:href="class_c_reserve_key.html#ad198d2d7a54d315c60805ba1cb0caf7c" target="_top" xlink:title="CReserveKey::GetReservedKey">
<polygon fill="white" stroke="black" points="136,-38.5 136,-57.5 296,-57.5 296,-38.5 136,-38.5"/>
<text text-anchor="middle" x="216" y="-45.5" font-family="Helvetica,sans-Serif" font-size="10.00">CReserveKey::GetReservedKey</text>
</a>
</g>
</g>
<!-- Node1&#45;&gt;Node41 -->
<g id="edge44" class="edge"><title>Node1&#45;&gt;Node41</title>
<path fill="none" stroke="midnightblue" d="M56.227,-162.119C68.4474,-136.401 93.8989,-90.8372 130,-67 135.805,-63.1673 142.268,-60.0986 148.965,-57.6429"/>
<polygon fill="midnightblue" stroke="midnightblue" points="53.0434,-160.664 52.0658,-171.214 59.4089,-163.577 53.0434,-160.664"/>
</g>
<!-- Node43 -->
<g id="node43" class="node"><title>Node43</title>
<g id="a_node43"><a xlink:href="class_c_wallet.html#afb9667058b54ae153b0897684ddb9f20" target="_top" xlink:title="CWallet::GetAllReserveKeys">
<polygon fill="white" stroke="black" points="144,-0.5 144,-19.5 288,-19.5 288,-0.5 144,-0.5"/>
<text text-anchor="middle" x="216" y="-7.5" font-family="Helvetica,sans-Serif" font-size="10.00">CWallet::GetAllReserveKeys</text>
</a>
</g>
</g>
<!-- Node1&#45;&gt;Node43 -->
<g id="edge46" class="edge"><title>Node1&#45;&gt;Node43</title>
<path fill="none" stroke="midnightblue" d="M52.8032,-161.607C61.9564,-128.891 85.1106,-62.9831 130,-29 135.064,-25.1667 140.753,-22.0798 146.728,-19.5975"/>
<polygon fill="midnightblue" stroke="midnightblue" points="49.4035,-160.773 50.2246,-171.336 56.1699,-162.566 49.4035,-160.773"/>
</g>
<!-- Node3 -->
<g id="node3" class="node"><title>Node3</title>
<g id="a_node3"><a xlink:href="class_c_alert.html#a40b71fc58ec056e3e539663152092030" target="_top" xlink:title="CAlert::CheckSignature">
<polygon fill="white" stroke="black" points="352,-365.5 352,-384.5 473,-384.5 473,-365.5 352,-365.5"/>
<text text-anchor="middle" x="412.5" y="-372.5" font-family="Helvetica,sans-Serif" font-size="10.00">CAlert::CheckSignature</text>
</a>
</g>
</g>
<!-- Node2&#45;&gt;Node3 -->
<g id="edge2" class="edge"><title>Node2&#45;&gt;Node3</title>
<path fill="none" stroke="midnightblue" d="M271.184,-358.407C296.21,-361.367 326.004,-364.89 351.687,-367.927"/>
<polygon fill="midnightblue" stroke="midnightblue" points="271.477,-354.918 261.135,-357.219 270.655,-361.869 271.477,-354.918"/>
</g>
<!-- Node2&#45;&gt;Node4 -->
<g id="edge3" class="edge"><title>Node2&#45;&gt;Node4</title>
<path fill="none" stroke="midnightblue" d="M271.534,-347.794C307.706,-345.005 353.718,-341.456 382.9,-339.206"/>
<polygon fill="midnightblue" stroke="midnightblue" points="270.836,-344.338 261.135,-348.596 271.375,-351.317 270.836,-344.338"/>
</g>
<!-- Node5 -->
<g id="node5" class="node"><title>Node5</title>
<g id="a_node5"><a xlink:href="script_8h.html#a7f55c113b0164f50f214d94996b6b02a" target="_top" xlink:title="EvalScript">
<polygon fill="white" stroke="black" points="546.5,-327.5 546.5,-346.5 608.5,-346.5 608.5,-327.5 546.5,-327.5"/>
<text text-anchor="middle" x="577.5" y="-334.5" font-family="Helvetica,sans-Serif" font-size="10.00">EvalScript</text>
</a>
</g>
</g>
<!-- Node4&#45;&gt;Node5 -->
<g id="edge4" class="edge"><title>Node4&#45;&gt;Node5</title>
<path fill="none" stroke="midnightblue" d="M452.391,-337C481.199,-337 519.888,-337 546.366,-337"/>
<polygon fill="midnightblue" stroke="midnightblue" points="452.266,-333.5 442.266,-337 452.266,-340.5 452.266,-333.5"/>
</g>
<!-- Node6 -->
<g id="node6" class="node"><title>Node6</title>
<g id="a_node6"><a xlink:href="main_8h.html#ac1a52eea4647539e3db1f8832b2bf9ba" target="_top" xlink:title="Check for standard transaction types. ">
<polygon fill="white" stroke="black" points="670,-383.5 670,-402.5 770,-402.5 770,-383.5 670,-383.5"/>
<text text-anchor="middle" x="720" y="-390.5" font-family="Helvetica,sans-Serif" font-size="10.00">AreInputsStandard</text>
</a>
</g>
</g>
<!-- Node5&#45;&gt;Node6 -->
<g id="edge5" class="edge"><title>Node5&#45;&gt;Node6</title>
<path fill="none" stroke="midnightblue" d="M610.681,-350.627C627.67,-357.738 648.9,-366.497 668,-374 676.003,-377.144 684.761,-380.453 692.725,-383.414"/>
<polygon fill="midnightblue" stroke="midnightblue" points="611.792,-347.297 601.217,-346.652 609.082,-353.751 611.792,-347.297"/>
</g>
<!-- Node20 -->
<g id="node20" class="node"><title>Node20</title>
<g id="a_node20"><a xlink:href="script_8h.html#a995f521b6ca4a8bfbd02d4cfe226feb6" target="_top" xlink:title="VerifyScript">
<polygon fill="white" stroke="black" points="686,-274.5 686,-293.5 754,-293.5 754,-274.5 686,-274.5"/>
<text text-anchor="middle" x="720" y="-281.5" font-family="Helvetica,sans-Serif" font-size="10.00">VerifyScript</text>
</a>
</g>
</g>
<!-- Node5&#45;&gt;Node20 -->
<g id="edge19" class="edge"><title>Node5&#45;&gt;Node20</title>
<path fill="none" stroke="midnightblue" d="M615.537,-324.016C621.066,-322.029 626.69,-319.98 632,-318 653.425,-310.011 677.641,-300.509 695.074,-293.583"/>
<polygon fill="midnightblue" stroke="midnightblue" points="614.019,-320.842 605.777,-327.498 616.371,-327.435 614.019,-320.842"/>
</g>
<!-- Node25 -->
<g id="node25" class="node"><title>Node25</title>
<g id="a_node25"><a xlink:href="script_8h.html#af2e061fe8f5ec7708f28db4628ff5c10" target="_top" xlink:title="CombineSignatures">
<polygon fill="white" stroke="black" points="668,-327.5 668,-346.5 772,-346.5 772,-327.5 668,-327.5"/>
<text text-anchor="middle" x="720" y="-334.5" font-family="Helvetica,sans-Serif" font-size="10.00">CombineSignatures</text>
</a>
</g>
</g>
<!-- Node5&#45;&gt;Node25 -->
<g id="edge25" class="edge"><title>Node5&#45;&gt;Node25</title>
<path fill="none" stroke="midnightblue" d="M618.812,-337C634.109,-337 651.736,-337 667.899,-337"/>
<polygon fill="midnightblue" stroke="midnightblue" points="618.641,-333.5 608.641,-337 618.641,-340.5 618.641,-333.5"/>
</g>
<!-- Node7 -->
<g id="node7" class="node"><title>Node7</title>
<g id="a_node7"><a xlink:href="main_8h.html#a1032f75235456abfa96b63e34e7ee2cc" target="_top" xlink:title="(try to) add transaction to memory pool ">
<polygon fill="white" stroke="black" points="814,-383.5 814,-402.5 929,-402.5 929,-383.5 814,-383.5"/>
<text text-anchor="middle" x="871.5" y="-390.5" font-family="Helvetica,sans-Serif" font-size="10.00">AcceptToMemoryPool</text>
</a>
</g>
</g>
<!-- Node6&#45;&gt;Node7 -->
<g id="edge6" class="edge"><title>Node6&#45;&gt;Node7</title>
<path fill="none" stroke="midnightblue" d="M780.704,-393C791.663,-393 803.073,-393 813.937,-393"/>
<polygon fill="midnightblue" stroke="midnightblue" points="780.366,-389.5 770.366,-393 780.366,-396.5 780.366,-389.5"/>
</g>
<!-- Node8 -->
<g id="node8" class="node"><title>Node8</title>
<g id="a_node8"><a xlink:href="class_c_merkle_tx.html#a032705bde1c536cd1b14f01f914e12f0" target="_top" xlink:title="CMerkleTx::AcceptToMemoryPool">
<polygon fill="white" stroke="black" points="971,-387.5 971,-406.5 1140,-406.5 1140,-387.5 971,-387.5"/>
<text text-anchor="middle" x="1055.5" y="-394.5" font-family="Helvetica,sans-Serif" font-size="10.00">CMerkleTx::AcceptToMemoryPool</text>
</a>
</g>
</g>
<!-- Node7&#45;&gt;Node8 -->
<g id="edge7" class="edge"><title>Node7&#45;&gt;Node8</title>
<path fill="none" stroke="midnightblue" d="M939.22,-394.466C949.523,-394.693 960.273,-394.929 970.889,-395.162"/>
<polygon fill="midnightblue" stroke="midnightblue" points="939.163,-390.964 929.088,-394.244 939.009,-397.963 939.163,-390.964"/>
</g>
<!-- Node19 -->
<g id="node19" class="node"><title>Node19</title>
<g id="a_node19"><a xlink:href="rpcrawtransaction_8cpp.html#ad5aad44f890060f42efb49acf349511e" target="_top" xlink:title="sendrawtransaction">
<polygon fill="white" stroke="black" points="1004,-349.5 1004,-368.5 1107,-368.5 1107,-349.5 1004,-349.5"/>
<text text-anchor="middle" x="1055.5" y="-356.5" font-family="Helvetica,sans-Serif" font-size="10.00">sendrawtransaction</text>
</a>
</g>
</g>
<!-- Node7&#45;&gt;Node19 -->
<g id="edge18" class="edge"><title>Node7&#45;&gt;Node19</title>
<path fill="none" stroke="midnightblue" d="M933.586,-381.588C956.362,-377.334 981.95,-372.553 1003.7,-368.49"/>
<polygon fill="midnightblue" stroke="midnightblue" points="932.869,-378.162 923.681,-383.439 934.154,-385.043 932.869,-378.162"/>
</g>
<!-- Node9 -->
<g id="node9" class="node"><title>Node9</title>
<g id="a_node9"><a xlink:href="class_c_wallet.html#a796c23450c8482e10e0c75ae5c1fa8ed" target="_top" xlink:title="CWallet::ReacceptWalletTransactions">
<polygon fill="white" stroke="black" points="1176,-406.5 1176,-425.5 1360,-425.5 1360,-406.5 1176,-406.5"/>
<text text-anchor="middle" x="1268" y="-413.5" font-family="Helvetica,sans-Serif" font-size="10.00">CWallet::ReacceptWalletTransactions</text>
</a>
</g>
</g>
<!-- Node8&#45;&gt;Node9 -->
<g id="edge8" class="edge"><title>Node8&#45;&gt;Node9</title>
<path fill="none" stroke="midnightblue" d="M1150.52,-405.486C1158.95,-406.247 1167.48,-407.017 1175.88,-407.775"/>
<polygon fill="midnightblue" stroke="midnightblue" points="1150.57,-401.977 1140.3,-404.564 1149.94,-408.949 1150.57,-401.977"/>
</g>
<!-- Node15 -->
<g id="node15" class="node"><title>Node15</title>
<g id="a_node15"><a xlink:href="class_c_wallet.html#ac30e619488120651a6753195b77f3ad8" target="_top" xlink:title="CWallet::CommitTransaction">
<polygon fill="white" stroke="black" points="1196,-368.5 1196,-387.5 1340,-387.5 1340,-368.5 1196,-368.5"/>
<text text-anchor="middle" x="1268" y="-375.5" font-family="Helvetica,sans-Serif" font-size="10.00">CWallet::CommitTransaction</text>
</a>
</g>
</g>
<!-- Node8&#45;&gt;Node15 -->
<g id="edge14" class="edge"><title>Node8&#45;&gt;Node15</title>
<path fill="none" stroke="midnightblue" d="M1150.26,-388.537C1165.52,-387.16 1181.1,-385.754 1195.7,-384.436"/>
<polygon fill="midnightblue" stroke="midnightblue" points="1149.94,-385.051 1140.3,-389.436 1150.57,-392.023 1149.94,-385.051"/>
</g>
<!-- Node10 -->
<g id="node10" class="node"><title>Node10</title>
<g id="a_node10"><a xlink:href="init_8h.html#a1a4c1bfbf6ba1db77e988b89b9cadfd3" target="_top" xlink:title="Initialize anoncoin. ">
<polygon fill="white" stroke="black" points="1431.5,-444.5 1431.5,-463.5 1484.5,-463.5 1484.5,-444.5 1431.5,-444.5"/>
<text text-anchor="middle" x="1458" y="-451.5" font-family="Helvetica,sans-Serif" font-size="10.00">AppInit2</text>
</a>
</g>
</g>
<!-- Node9&#45;&gt;Node10 -->
<g id="edge9" class="edge"><title>Node9&#45;&gt;Node10</title>
<path fill="none" stroke="midnightblue" d="M1326.54,-427.631C1361.52,-434.7 1404.46,-443.38 1431.28,-448.802"/>
<polygon fill="midnightblue" stroke="midnightblue" points="1326.94,-424.14 1316.44,-425.589 1325.55,-431.001 1326.94,-424.14"/>
</g>
<!-- Node14 -->
<g id="node14" class="node"><title>Node14</title>
<g id="a_node14"><a xlink:href="rpcdump_8cpp.html#a457bc572859c8265c72a0afd1a6db56c" target="_top" xlink:title="importaddress">
<polygon fill="white" stroke="black" points="1418,-406.5 1418,-425.5 1498,-425.5 1498,-406.5 1418,-406.5"/>
<text text-anchor="middle" x="1458" y="-413.5" font-family="Helvetica,sans-Serif" font-size="10.00">importaddress</text>
</a>
</g>
</g>
<!-- Node9&#45;&gt;Node14 -->
<g id="edge13" class="edge"><title>Node9&#45;&gt;Node14</title>
<path fill="none" stroke="midnightblue" d="M1370.66,-416C1387.35,-416 1403.72,-416 1417.64,-416"/>
<polygon fill="midnightblue" stroke="midnightblue" points="1370.25,-412.5 1360.25,-416 1370.25,-419.5 1370.25,-412.5"/>
</g>
<!-- Node11 -->
<g id="node11" class="node"><title>Node11</title>
<g id="a_node11"><a xlink:href="anoncoind_8cpp.html#ac59316b767e6984e1285f0531275286b" target="_top" xlink:title="AppInit">
<polygon fill="white" stroke="black" points="1592,-428.5 1592,-447.5 1640,-447.5 1640,-428.5 1592,-428.5"/>
<text text-anchor="middle" x="1616" y="-435.5" font-family="Helvetica,sans-Serif" font-size="10.00">AppInit</text>
</a>
</g>
</g>
<!-- Node10&#45;&gt;Node11 -->
<g id="edge10" class="edge"><title>Node10&#45;&gt;Node11</title>
<path fill="none" stroke="midnightblue" d="M1494.76,-450.332C1524.55,-447.277 1566.11,-443.014 1591.75,-440.385"/>
<polygon fill="midnightblue" stroke="midnightblue" points="1494.35,-446.856 1484.76,-451.358 1495.07,-453.819 1494.35,-446.856"/>
</g>
<!-- Node13 -->
<g id="node13" class="node"><title>Node13</title>
<g id="a_node13"><a xlink:href="class_anoncoin_coin.html#a9510881824d283404ac43414dbb74586" target="_top" xlink:title="AnoncoinCoin::initialize">
<polygon fill="white" stroke="black" points="1556,-466.5 1556,-485.5 1676,-485.5 1676,-466.5 1556,-466.5"/>
<text text-anchor="middle" x="1616" y="-473.5" font-family="Helvetica,sans-Serif" font-size="10.00">AnoncoinCoin::initialize</text>
</a>
</g>
</g>
<!-- Node10&#45;&gt;Node13 -->
<g id="edge12" class="edge"><title>Node10&#45;&gt;Node13</title>
<path fill="none" stroke="midnightblue" d="M1494.85,-459.056C1512.91,-461.603 1535.28,-464.758 1555.8,-467.652"/>
<polygon fill="midnightblue" stroke="midnightblue" points="1495.15,-455.564 1484.76,-457.633 1494.17,-462.495 1495.15,-455.564"/>
</g>
<!-- Node12 -->
<g id="node12" class="node"><title>Node12</title>
<g id="a_node12"><a xlink:href="anoncoind_8cpp.html#a0ddf1224851353fc92bfbff6f499fa97" target="_top" xlink:title="main">
<polygon fill="white" stroke="black" points="1712,-428.5 1712,-447.5 1750,-447.5 1750,-428.5 1712,-428.5"/>
<text text-anchor="middle" x="1731" y="-435.5" font-family="Helvetica,sans-Serif" font-size="10.00">main</text>
</a>
</g>
</g>
<!-- Node11&#45;&gt;Node12 -->
<g id="edge11" class="edge"><title>Node11&#45;&gt;Node12</title>
<path fill="none" stroke="midnightblue" d="M1650.15,-438C1670.25,-438 1695.13,-438 1711.73,-438"/>
<polygon fill="midnightblue" stroke="midnightblue" points="1650.14,-434.5 1640.14,-438 1650.14,-441.5 1650.14,-434.5"/>
</g>
<!-- Node16 -->
<g id="node16" class="node"><title>Node16</title>
<g id="a_node16"><a xlink:href="class_wallet_model.html#a53443aca544c824550f21e5f87e4ec39" target="_top" xlink:title="WalletModel::sendCoins">
<polygon fill="white" stroke="black" points="1396,-368.5 1396,-387.5 1520,-387.5 1520,-368.5 1396,-368.5"/>
<text text-anchor="middle" x="1458" y="-375.5" font-family="Helvetica,sans-Serif" font-size="10.00">WalletModel::sendCoins</text>
</a>
</g>
</g>
<!-- Node15&#45;&gt;Node16 -->
<g id="edge15" class="edge"><title>Node15&#45;&gt;Node16</title>
<path fill="none" stroke="midnightblue" d="M1350.1,-378C1365.48,-378 1381.34,-378 1395.97,-378"/>
<polygon fill="midnightblue" stroke="midnightblue" points="1350.07,-374.5 1340.07,-378 1350.07,-381.5 1350.07,-374.5"/>
</g>
<!-- Node18 -->
<g id="node18" class="node"><title>Node18</title>
<g id="a_node18"><a xlink:href="rpcwallet_8cpp.html#adeb5f23f20fb4e589dab23cadf75c92d" target="_top" xlink:title="sendmany">
<polygon fill="white" stroke="black" points="1426.5,-330.5 1426.5,-349.5 1489.5,-349.5 1489.5,-330.5 1426.5,-330.5"/>
<text text-anchor="middle" x="1458" y="-337.5" font-family="Helvetica,sans-Serif" font-size="10.00">sendmany</text>
</a>
</g>
</g>
<!-- Node15&#45;&gt;Node18 -->
<g id="edge17" class="edge"><title>Node15&#45;&gt;Node18</title>
<path fill="none" stroke="midnightblue" d="M1326.41,-366.396C1359.35,-359.739 1399.38,-351.647 1426.37,-346.191"/>
<polygon fill="midnightblue" stroke="midnightblue" points="1325.55,-362.999 1316.44,-368.411 1326.94,-369.86 1325.55,-362.999"/>
</g>
<!-- Node17 -->
<g id="node17" class="node"><title>Node17</title>
<g id="a_node17"><a xlink:href="class_send_coins_dialog.html#a2cab7cf9ea5040b9e2189297f7d3c764" target="_top" xlink:title="SendCoinsDialog::on\l_sendButton_clicked">
<polygon fill="white" stroke="black" points="1561,-363 1561,-393 1671,-393 1671,-363 1561,-363"/>
<text text-anchor="start" x="1569" y="-381" font-family="Helvetica,sans-Serif" font-size="10.00">SendCoinsDialog::on</text>
<text text-anchor="middle" x="1616" y="-370" font-family="Helvetica,sans-Serif" font-size="10.00">_sendButton_clicked</text>
</a>
</g>
</g>
<!-- Node16&#45;&gt;Node17 -->
<g id="edge16" class="edge"><title>Node16&#45;&gt;Node17</title>
<path fill="none" stroke="midnightblue" d="M1530.36,-378C1540.6,-378 1550.98,-378 1560.81,-378"/>
<polygon fill="midnightblue" stroke="midnightblue" points="1530.21,-374.5 1520.21,-378 1530.21,-381.5 1530.21,-374.5"/>
</g>
<!-- Node21 -->
<g id="node21" class="node"><title>Node21</title>
<g id="a_node21"><a xlink:href="class_c_script_check.html#accc664734e4b9dd0c4d1de1990bdb471" target="_top" xlink:title="CScriptCheck::operator()">
<polygon fill="white" stroke="black" points="808,-264.5 808,-283.5 935,-283.5 935,-264.5 808,-264.5"/>
<text text-anchor="middle" x="871.5" y="-271.5" font-family="Helvetica,sans-Serif" font-size="10.00">CScriptCheck::operator()</text>
</a>
</g>
</g>
<!-- Node20&#45;&gt;Node21 -->
<g id="edge20" class="edge"><title>Node20&#45;&gt;Node21</title>
<path fill="none" stroke="midnightblue" d="M764.236,-281.108C777.877,-280.196 793.231,-279.169 807.938,-278.185"/>
<polygon fill="midnightblue" stroke="midnightblue" points="763.923,-277.621 754.179,-281.781 764.39,-284.605 763.923,-277.621"/>
</g>
<!-- Node22 -->
<g id="node22" class="node"><title>Node22</title>
<g id="a_node22"><a xlink:href="rpcrawtransaction_8cpp.html#aa0d151e35c0ad5ec82df451a833aeadb" target="_top" xlink:title="signrawtransaction">
<polygon fill="white" stroke="black" points="1005.5,-302.5 1005.5,-321.5 1105.5,-321.5 1105.5,-302.5 1005.5,-302.5"/>
<text text-anchor="middle" x="1055.5" y="-309.5" font-family="Helvetica,sans-Serif" font-size="10.00">signrawtransaction</text>
</a>
</g>
</g>
<!-- Node20&#45;&gt;Node22 -->
<g id="edge21" class="edge"><title>Node20&#45;&gt;Node22</title>
<path fill="none" stroke="midnightblue" d="M764.332,-288.708C778.268,-290.162 793.779,-291.717 808,-293 876.397,-299.173 955.587,-305.051 1005.36,-308.592"/>
<polygon fill="midnightblue" stroke="midnightblue" points="764.342,-285.19 754.03,-287.622 763.608,-292.151 764.342,-285.19"/>
</g>
<!-- Node23 -->
<g id="node23" class="node"><title>Node23</title>
<g id="a_node23"><a xlink:href="script_8h.html#aca7dc730fd42e706b2c912ba32b65a36" target="_top" xlink:title="SignSignature">
<polygon fill="white" stroke="black" points="832,-226.5 832,-245.5 911,-245.5 911,-226.5 832,-226.5"/>
<text text-anchor="middle" x="871.5" y="-233.5" font-family="Helvetica,sans-Serif" font-size="10.00">SignSignature</text>
</a>
</g>
</g>
<!-- Node20&#45;&gt;Node23 -->
<g id="edge22" class="edge"><title>Node20&#45;&gt;Node23</title>
<path fill="none" stroke="midnightblue" d="M758.767,-271.168C774.026,-266.046 791.823,-260.154 808,-255 817.941,-251.833 828.809,-248.488 838.654,-245.502"/>
<polygon fill="midnightblue" stroke="midnightblue" points="757.509,-267.898 749.149,-274.406 759.743,-274.532 757.509,-267.898"/>
</g>
<!-- Node23&#45;&gt;Node22 -->
<g id="edge23" class="edge"><title>Node23&#45;&gt;Node22</title>
<path fill="none" stroke="midnightblue" d="M916.788,-248.56C922.955,-250.57 929.172,-252.739 935,-255 972.073,-269.383 1013.61,-290.357 1036.65,-302.446"/>
<polygon fill="midnightblue" stroke="midnightblue" points="917.791,-245.206 907.201,-245.539 915.687,-251.882 917.791,-245.206"/>
</g>
<!-- Node24 -->
<g id="node24" class="node"><title>Node24</title>
<g id="a_node24"><a xlink:href="script_8h.html#a3aef640e90fdb0fa95a8e2cda0cf6c22" target="_top" xlink:title="SignSignature">
<polygon fill="white" stroke="black" points="1016,-226.5 1016,-245.5 1095,-245.5 1095,-226.5 1016,-226.5"/>
<text text-anchor="middle" x="1055.5" y="-233.5" font-family="Helvetica,sans-Serif" font-size="10.00">SignSignature</text>
</a>
</g>
</g>
<!-- Node23&#45;&gt;Node24 -->
<g id="edge24" class="edge"><title>Node23&#45;&gt;Node24</title>
<path fill="none" stroke="midnightblue" d="M921.249,-236C950.94,-236 988.343,-236 1015.96,-236"/>
<polygon fill="midnightblue" stroke="midnightblue" points="921.098,-232.5 911.098,-236 921.097,-239.5 921.098,-232.5"/>
</g>
<!-- Node25&#45;&gt;Node22 -->
<g id="edge26" class="edge"><title>Node25&#45;&gt;Node22</title>
<path fill="none" stroke="midnightblue" d="M782.346,-334.91C825.169,-333.191 883.63,-330.325 935,-326 958.208,-324.046 983.869,-321.138 1005.44,-318.478"/>
<polygon fill="midnightblue" stroke="midnightblue" points="781.94,-331.423 772.085,-335.312 782.215,-338.418 781.94,-331.423"/>
</g>
<!-- Node25&#45;&gt;Node25 -->
<g id="edge27" class="edge"><title>Node25&#45;&gt;Node25</title>
<path fill="none" stroke="midnightblue" d="M693.494,-355.654C694.602,-360.937 703.437,-365 720,-365 745.238,-365 752.534,-355.565 741.886,-346.757"/>
<polygon fill="midnightblue" stroke="midnightblue" points="696.612,-357.245 698.114,-346.757 690.399,-354.019 696.612,-357.245"/>
</g>
<!-- Node28 -->
<g id="node28" class="node"><title>Node28</title>
<g id="a_node28"><a xlink:href="rpcwallet_8cpp.html#aa9b91e060b2d18fffb3b57a679441e68" target="_top" xlink:title="_createmultisig_redeemScript">
<polygon fill="white" stroke="black" points="338,-289.5 338,-308.5 487,-308.5 487,-289.5 338,-289.5"/>
<text text-anchor="middle" x="412.5" y="-296.5" font-family="Helvetica,sans-Serif" font-size="10.00">_createmultisig_redeemScript</text>
</a>
</g>
</g>
<!-- Node27&#45;&gt;Node28 -->
<g id="edge30" class="edge"><title>Node27&#45;&gt;Node28</title>
<path fill="none" stroke="midnightblue" d="M282.181,-250.245C288.97,-252.207 295.689,-254.448 302,-257 319.384,-264.029 320.781,-271.575 338,-279 347.593,-283.137 358.265,-286.625 368.436,-289.471"/>
<polygon fill="midnightblue" stroke="midnightblue" points="282.788,-246.784 272.223,-247.567 280.971,-253.544 282.788,-246.784"/>
</g>
<!-- Node31 -->
<g id="node31" class="node"><title>Node31</title>
<g id="a_node31"><a xlink:href="class_c_script_compressor.html#a4cec58b09c4ab7873b5884ed690ed0f9" target="_top" xlink:title="CScriptCompressor::\lIsToPubKey">
<polygon fill="white" stroke="black" points="358,-240 358,-270 467,-270 467,-240 358,-240"/>
<text text-anchor="start" x="366" y="-258" font-family="Helvetica,sans-Serif" font-size="10.00">CScriptCompressor::</text>
<text text-anchor="middle" x="412.5" y="-247" font-family="Helvetica,sans-Serif" font-size="10.00">IsToPubKey</text>
</a>
</g>
</g>
<!-- Node27&#45;&gt;Node31 -->
<g id="edge33" class="edge"><title>Node27&#45;&gt;Node31</title>
<path fill="none" stroke="midnightblue" d="M283.699,-243.83C307.902,-245.945 334.915,-248.306 357.849,-250.311"/>
<polygon fill="midnightblue" stroke="midnightblue" points="283.786,-240.324 273.519,-242.94 283.176,-247.297 283.786,-240.324"/>
</g>
<!-- Node29 -->
<g id="node29" class="node"><title>Node29</title>
<g id="a_node29"><a xlink:href="rpcmisc_8cpp.html#a10f145bcadd06025abb3b065e2fa7a84" target="_top" xlink:title="createmultisig">
<polygon fill="white" stroke="black" points="538.5,-289.5 538.5,-308.5 616.5,-308.5 616.5,-289.5 538.5,-289.5"/>
<text text-anchor="middle" x="577.5" y="-296.5" font-family="Helvetica,sans-Serif" font-size="10.00">createmultisig</text>
</a>
</g>
</g>
<!-- Node28&#45;&gt;Node29 -->
<g id="edge31" class="edge"><title>Node28&#45;&gt;Node29</title>
<path fill="none" stroke="midnightblue" d="M497.665,-299C511.812,-299 525.852,-299 538.078,-299"/>
<polygon fill="midnightblue" stroke="midnightblue" points="497.369,-295.5 487.369,-299 497.369,-302.5 497.369,-295.5"/>
</g>
<!-- Node30 -->
<g id="node30" class="node"><title>Node30</title>
<g id="a_node30"><a xlink:href="rpcwallet_8cpp.html#a01e8a83cbd4209f10c71719383d7ca2d" target="_top" xlink:title="addmultisigaddress">
<polygon fill="white" stroke="black" points="526,-251.5 526,-270.5 629,-270.5 629,-251.5 526,-251.5"/>
<text text-anchor="middle" x="577.5" y="-258.5" font-family="Helvetica,sans-Serif" font-size="10.00">addmultisigaddress</text>
</a>
</g>
</g>
<!-- Node28&#45;&gt;Node30 -->
<g id="edge32" class="edge"><title>Node28&#45;&gt;Node30</title>
<path fill="none" stroke="midnightblue" d="M464.528,-287.104C487.439,-281.763 514.104,-275.546 535.664,-270.52"/>
<polygon fill="midnightblue" stroke="midnightblue" points="463.576,-283.732 454.632,-289.411 465.165,-290.549 463.576,-283.732"/>
</g>
<!-- Node33 -->
<g id="node33" class="node"><title>Node33</title>
<g id="a_node33"><a xlink:href="class_c_script_compressor.html#a1feb663ddab3a45218c7cb02f2a25717" target="_top" xlink:title="CScriptCompressor::\lDecompress">
<polygon fill="white" stroke="black" points="358,-191 358,-221 467,-221 467,-191 358,-191"/>
<text text-anchor="start" x="366" y="-209" font-family="Helvetica,sans-Serif" font-size="10.00">CScriptCompressor::</text>
<text text-anchor="middle" x="412.5" y="-198" font-family="Helvetica,sans-Serif" font-size="10.00">Decompress</text>
</a>
</g>
</g>
<!-- Node32&#45;&gt;Node33 -->
<g id="edge35" class="edge"><title>Node32&#45;&gt;Node33</title>
<path fill="none" stroke="midnightblue" d="M286.415,-202.141C309.936,-202.867 335.83,-203.666 357.926,-204.347"/>
<polygon fill="midnightblue" stroke="midnightblue" points="286.252,-198.635 276.149,-201.825 286.036,-205.631 286.252,-198.635"/>
</g>
<!-- Node34 -->
<g id="node34" class="node"><title>Node34</title>
<g id="a_node34"><a xlink:href="class_c_script_compressor.html#a016fa6e3d2735d95fcf773271da073d5" target="_top" xlink:title="CScriptCompressor::\lUnserialize">
<polygon fill="white" stroke="black" points="523,-191 523,-221 632,-221 632,-191 523,-191"/>
<text text-anchor="start" x="531" y="-209" font-family="Helvetica,sans-Serif" font-size="10.00">CScriptCompressor::</text>
<text text-anchor="middle" x="577.5" y="-198" font-family="Helvetica,sans-Serif" font-size="10.00">Unserialize</text>
</a>
</g>
</g>
<!-- Node33&#45;&gt;Node34 -->
<g id="edge36" class="edge"><title>Node33&#45;&gt;Node34</title>
<path fill="none" stroke="midnightblue" d="M477.523,-206C492.484,-206 508.27,-206 522.732,-206"/>
<polygon fill="midnightblue" stroke="midnightblue" points="477.324,-202.5 467.324,-206 477.324,-209.5 477.324,-202.5"/>
</g>
<!-- Node36 -->
<g id="node36" class="node"><title>Node36</title>
<g id="a_node36"><a xlink:href="struct_c_ext_pub_key.html#a404798f7d800ffb539cf97431025597f" target="_top" xlink:title="CExtPubKey::Derive">
<polygon fill="white" stroke="black" points="358.5,-152.5 358.5,-171.5 466.5,-171.5 466.5,-152.5 358.5,-152.5"/>
<text text-anchor="middle" x="412.5" y="-159.5" font-family="Helvetica,sans-Serif" font-size="10.00">CExtPubKey::Derive</text>
</a>
</g>
</g>
<!-- Node35&#45;&gt;Node36 -->
<g id="edge38" class="edge"><title>Node35&#45;&gt;Node36</title>
<path fill="none" stroke="midnightblue" d="M272.633,-162C299.536,-162 331.676,-162 358.257,-162"/>
<polygon fill="midnightblue" stroke="midnightblue" points="272.602,-158.5 262.602,-162 272.602,-165.5 272.602,-158.5"/>
</g>
<!-- Node38 -->
<g id="node38" class="node"><title>Node38</title>
<g id="a_node38"><a xlink:href="rpcwallet_8cpp.html#a92145bcb3cfb45eb47dca18f1c94c434" target="_top" xlink:title="getaccountaddress">
<polygon fill="white" stroke="black" points="362,-114.5 362,-133.5 463,-133.5 463,-114.5 362,-114.5"/>
<text text-anchor="middle" x="412.5" y="-121.5" font-family="Helvetica,sans-Serif" font-size="10.00">getaccountaddress</text>
</a>
</g>
</g>
<!-- Node37&#45;&gt;Node38 -->
<g id="edge40" class="edge"><title>Node37&#45;&gt;Node38</title>
<path fill="none" stroke="midnightblue" d="M278.689,-124C305.572,-124 336.661,-124 361.998,-124"/>
<polygon fill="midnightblue" stroke="midnightblue" points="278.612,-120.5 268.612,-124 278.612,-127.5 278.612,-120.5"/>
</g>
<!-- Node39 -->
<g id="node39" class="node"><title>Node39</title>
<g id="a_node39"><a xlink:href="rpcwallet_8cpp.html#a6bf0dc200554f841a4549a2e5087f699" target="_top" xlink:title="setaccount">
<polygon fill="white" stroke="black" points="380,-76.5 380,-95.5 445,-95.5 445,-76.5 380,-76.5"/>
<text text-anchor="middle" x="412.5" y="-83.5" font-family="Helvetica,sans-Serif" font-size="10.00">setaccount</text>
</a>
</g>
</g>
<!-- Node37&#45;&gt;Node39 -->
<g id="edge41" class="edge"><title>Node37&#45;&gt;Node39</title>
<path fill="none" stroke="midnightblue" d="M275.706,-112.53C309.875,-105.855 351.617,-97.6996 379.728,-92.2074"/>
<polygon fill="midnightblue" stroke="midnightblue" points="274.973,-109.107 265.83,-114.46 276.315,-115.978 274.973,-109.107"/>
</g>
<!-- Node42 -->
<g id="node42" class="node"><title>Node42</title>
<g id="a_node42"><a xlink:href="rpcwallet_8cpp.html#ae71809202b4dcc13d2034c5c72af34da" target="_top" xlink:title="getrawchangeaddress">
<polygon fill="white" stroke="black" points="355,-38.5 355,-57.5 470,-57.5 470,-38.5 355,-38.5"/>
<text text-anchor="middle" x="412.5" y="-45.5" font-family="Helvetica,sans-Serif" font-size="10.00">getrawchangeaddress</text>
</a>
</g>
</g>
<!-- Node41&#45;&gt;Node42 -->
<g id="edge45" class="edge"><title>Node41&#45;&gt;Node42</title>
<path fill="none" stroke="midnightblue" d="M306.325,-48C322.822,-48 339.625,-48 354.818,-48"/>
<polygon fill="midnightblue" stroke="midnightblue" points="306.111,-44.5001 296.111,-48 306.111,-51.5001 306.111,-44.5001"/>
</g>
<!-- Node44 -->
<g id="node44" class="node"><title>Node44</title>
<g id="a_node44"><a xlink:href="rpcdump_8cpp.html#a831ddf746d4f2500ba6f6c07f63445cd" target="_top" xlink:title="dumpwallet">
<polygon fill="white" stroke="black" points="379,-0.5 379,-19.5 446,-19.5 446,-0.5 379,-0.5"/>
<text text-anchor="middle" x="412.5" y="-7.5" font-family="Helvetica,sans-Serif" font-size="10.00">dumpwallet</text>
</a>
</g>
</g>
<!-- Node43&#45;&gt;Node44 -->
<g id="edge47" class="edge"><title>Node43&#45;&gt;Node44</title>
<path fill="none" stroke="midnightblue" d="M298.385,-10C326.727,-10 356.918,-10 378.974,-10"/>
<polygon fill="midnightblue" stroke="midnightblue" points="298.045,-6.5001 288.045,-10 298.045,-13.5001 298.045,-6.5001"/>
</g>
</g>
</svg>
