<?xml version="1.0" encoding="UTF-8" standalone="no"?>
<!DOCTYPE svg PUBLIC "-//W3C//DTD SVG 1.1//EN"
 "http://www.w3.org/Graphics/SVG/1.1/DTD/svg11.dtd">
<!-- Generated by graphviz version 2.38.0 (20140413.2041)
 -->
<!-- Title: SAM::StreamSession::stopForwardingAll Pages: 1 -->
<svg width="268pt" height="39pt"
 viewBox="0.00 0.00 268.00 39.00" xmlns="http://www.w3.org/2000/svg" xmlns:xlink="http://www.w3.org/1999/xlink">
<g id="graph0" class="graph" transform="scale(1 1) rotate(0) translate(4 35)">
<title>SAM::StreamSession::stopForwardingAll</title>
<polygon fill="white" stroke="none" points="-4,4 -4,-35 264,-35 264,4 -4,4"/>
<!-- Node1 -->
<g id="node1" class="node"><title>Node1</title>
<polygon fill="#bfbfbf" stroke="black" points="0,-0.5 0,-30.5 112,-30.5 112,-0.5 0,-0.5"/>
<text text-anchor="start" x="8" y="-18.5" font-family="Helvetica,sans-Serif" font-size="10.00">SAM::StreamSession</text>
<text text-anchor="middle" x="56" y="-7.5" font-family="Helvetica,sans-Serif" font-size="10.00">::stopForwardingAll</text>
</g>
<!-- Node2 -->
<g id="node2" class="node"><title>Node2</title>
<g id="a_node2"><a xlink:href="class_s_a_m_1_1_stream_session.html#a651f8f24fca3be7aa942ca705e54d377" target="_top" xlink:title="SAM::StreamSession\l::~StreamSession">
<polygon fill="white" stroke="black" points="148,-0.5 148,-30.5 260,-30.5 260,-0.5 148,-0.5"/>
<text text-anchor="start" x="156" y="-18.5" font-family="Helvetica,sans-Serif" font-size="10.00">SAM::StreamSession</text>
<text text-anchor="middle" x="204" y="-7.5" font-family="Helvetica,sans-Serif" font-size="10.00">::~StreamSession</text>
</a>
</g>
</g>
<!-- Node1&#45;&gt;Node2 -->
<g id="edge1" class="edge"><title>Node1&#45;&gt;Node2</title>
<path fill="none" stroke="midnightblue" d="M122.41,-15.5C130.865,-15.5 139.457,-15.5 147.726,-15.5"/>
<polygon fill="midnightblue" stroke="midnightblue" points="122.196,-12.0001 112.196,-15.5 122.196,-19.0001 122.196,-12.0001"/>
</g>
</g>
</svg>
