<?xml version="1.0" encoding="UTF-8" standalone="no"?>
<!DOCTYPE svg PUBLIC "-//W3C//DTD SVG 1.1//EN"
 "http://www.w3.org/Graphics/SVG/1.1/DTD/svg11.dtd">
<!-- Generated by graphviz version 2.38.0 (20140413.2041)
 -->
<!-- Title: TransactionTableModel::updateTransaction Pages: 1 -->
<svg width="1306pt" height="686pt"
 viewBox="0.00 0.00 1306.00 686.00" xmlns="http://www.w3.org/2000/svg" xmlns:xlink="http://www.w3.org/1999/xlink">
<g id="graph0" class="graph" transform="scale(1 1) rotate(0) translate(4 682)">
<title>TransactionTableModel::updateTransaction</title>
<polygon fill="white" stroke="none" points="-4,4 -4,-682 1302,-682 1302,4 -4,4"/>
<!-- Node1 -->
<g id="node1" class="node"><title>Node1</title>
<polygon fill="#bfbfbf" stroke="black" points="0,-330 0,-360 121,-360 121,-330 0,-330"/>
<text text-anchor="start" x="8" y="-348" font-family="Helvetica,sans-Serif" font-size="10.00">TransactionTableModel</text>
<text text-anchor="middle" x="60.5" y="-337" font-family="Helvetica,sans-Serif" font-size="10.00">::updateTransaction</text>
</g>
<!-- Node2 -->
<g id="node2" class="node"><title>Node2</title>
<g id="a_node2"><a xlink:href="classbase__uint.html#ade1a897fac931f28f54998c92c797228" target="_top" xlink:title="base_uint::SetHex">
<polygon fill="white" stroke="black" points="163.5,-400.5 163.5,-419.5 261.5,-419.5 261.5,-400.5 163.5,-400.5"/>
<text text-anchor="middle" x="212.5" y="-407.5" font-family="Helvetica,sans-Serif" font-size="10.00">base_uint::SetHex</text>
</a>
</g>
</g>
<!-- Node1&#45;&gt;Node2 -->
<g id="edge1" class="edge"><title>Node1&#45;&gt;Node2</title>
<path fill="none" stroke="midnightblue" d="M96.29,-360.076C121.656,-371.068 155.735,-385.835 180.238,-396.453"/>
<polygon fill="midnightblue" stroke="midnightblue" points="178.88,-399.679 189.448,-400.444 181.664,-393.256 178.88,-399.679"/>
</g>
<!-- Node4 -->
<g id="node4" class="node"><title>Node4</title>
<g id="a_node4"><a xlink:href="class_transaction_table_priv.html#a27eb6d3e1f7717dd2cad80c5ce48f404" target="_top" xlink:title="TransactionTablePriv\l::updateWallet">
<polygon fill="white" stroke="black" points="157,-266 157,-296 268,-296 268,-266 157,-266"/>
<text text-anchor="start" x="165" y="-284" font-family="Helvetica,sans-Serif" font-size="10.00">TransactionTablePriv</text>
<text text-anchor="middle" x="212.5" y="-273" font-family="Helvetica,sans-Serif" font-size="10.00">::updateWallet</text>
</a>
</g>
</g>
<!-- Node1&#45;&gt;Node4 -->
<g id="edge3" class="edge"><title>Node1&#45;&gt;Node4</title>
<path fill="none" stroke="midnightblue" d="M96.6683,-329.995C117.656,-321.04 144.507,-309.584 166.966,-300.001"/>
<polygon fill="midnightblue" stroke="midnightblue" points="168.468,-303.166 176.292,-296.022 165.721,-296.727 168.468,-303.166"/>
</g>
<!-- Node3 -->
<g id="node3" class="node"><title>Node3</title>
<g id="a_node3"><a xlink:href="uint256_8h.html#aa59e8a8c5a39cb5041f93bb95dd02119" target="_top" xlink:title="HexDigit">
<polygon fill="white" stroke="black" points="337,-443.5 337,-462.5 391,-462.5 391,-443.5 337,-443.5"/>
<text text-anchor="middle" x="364" y="-450.5" font-family="Helvetica,sans-Serif" font-size="10.00">HexDigit</text>
</a>
</g>
</g>
<!-- Node2&#45;&gt;Node3 -->
<g id="edge2" class="edge"><title>Node2&#45;&gt;Node3</title>
<path fill="none" stroke="midnightblue" d="M246.679,-419.543C270.571,-426.415 302.77,-435.676 327.234,-442.713"/>
<polygon fill="midnightblue" stroke="midnightblue" points="326.285,-446.082 336.863,-445.482 328.22,-439.354 326.285,-446.082"/>
</g>
<!-- Node5 -->
<g id="node5" class="node"><title>Node5</title>
<g id="a_node5"><a xlink:href="classbase__uint.html#ac3080a72402cadf28dbc9f9b69cc60be" target="_top" xlink:title="base_uint::ToString">
<polygon fill="white" stroke="black" points="312.5,-168.5 312.5,-187.5 415.5,-187.5 415.5,-168.5 312.5,-168.5"/>
<text text-anchor="middle" x="364" y="-175.5" font-family="Helvetica,sans-Serif" font-size="10.00">base_uint::ToString</text>
</a>
</g>
</g>
<!-- Node4&#45;&gt;Node5 -->
<g id="edge4" class="edge"><title>Node4&#45;&gt;Node5</title>
<path fill="none" stroke="midnightblue" d="M232.477,-265.785C250.49,-251.575 278.523,-230.055 304,-213 314.457,-206 326.332,-198.816 336.674,-192.793"/>
<polygon fill="midnightblue" stroke="midnightblue" points="338.733,-195.646 345.655,-187.626 335.242,-189.579 338.733,-195.646"/>
</g>
<!-- Node7 -->
<g id="node7" class="node"><title>Node7</title>
<g id="a_node7"><a xlink:href="class_transaction_record.html#a5ad1d1af4bec5b15a624b7a451e8cdbf" target="_top" xlink:title="Decompose CWallet transaction to model transaction records. ">
<polygon fill="white" stroke="black" points="310.5,-223 310.5,-253 417.5,-253 417.5,-223 310.5,-223"/>
<text text-anchor="start" x="318.5" y="-241" font-family="Helvetica,sans-Serif" font-size="10.00">TransactionRecord::</text>
<text text-anchor="middle" x="364" y="-230" font-family="Helvetica,sans-Serif" font-size="10.00">showTransaction</text>
</a>
</g>
</g>
<!-- Node4&#45;&gt;Node7 -->
<g id="edge6" class="edge"><title>Node4&#45;&gt;Node7</title>
<path fill="none" stroke="midnightblue" d="M265.788,-265.961C277.168,-262.687 289.314,-259.194 301.029,-255.824"/>
<polygon fill="midnightblue" stroke="midnightblue" points="302.099,-259.159 310.742,-253.031 300.164,-252.431 302.099,-259.159"/>
</g>
<!-- Node15 -->
<g id="node15" class="node"><title>Node15</title>
<g id="a_node15"><a xlink:href="class_transaction_record.html#a9f5db4465fa5fdcc3f9af525096bcdb9" target="_top" xlink:title="TransactionRecord::\ldecomposeTransaction">
<polygon fill="white" stroke="black" points="304,-394 304,-424 424,-424 424,-394 304,-394"/>
<text text-anchor="start" x="312" y="-412" font-family="Helvetica,sans-Serif" font-size="10.00">TransactionRecord::</text>
<text text-anchor="middle" x="364" y="-401" font-family="Helvetica,sans-Serif" font-size="10.00">decomposeTransaction</text>
</a>
</g>
</g>
<!-- Node4&#45;&gt;Node15 -->
<g id="edge14" class="edge"><title>Node4&#45;&gt;Node15</title>
<path fill="none" stroke="midnightblue" d="M231.237,-296.186C257.649,-318.8 307.443,-361.433 337.679,-387.321"/>
<polygon fill="midnightblue" stroke="midnightblue" points="335.414,-389.989 345.286,-393.834 339.967,-384.671 335.414,-389.989"/>
</g>
<!-- Node6 -->
<g id="node6" class="node"><title>Node6</title>
<g id="a_node6"><a xlink:href="classbase__uint.html#ac9929c28600796a9acf75881bb750576" target="_top" xlink:title="base_uint::GetHex">
<polygon fill="white" stroke="black" points="477.5,-152.5 477.5,-171.5 576.5,-171.5 576.5,-152.5 477.5,-152.5"/>
<text text-anchor="middle" x="527" y="-159.5" font-family="Helvetica,sans-Serif" font-size="10.00">base_uint::GetHex</text>
</a>
</g>
</g>
<!-- Node5&#45;&gt;Node6 -->
<g id="edge5" class="edge"><title>Node5&#45;&gt;Node6</title>
<path fill="none" stroke="midnightblue" d="M415.941,-172.938C432.191,-171.323 450.307,-169.522 467.075,-167.856"/>
<polygon fill="midnightblue" stroke="midnightblue" points="467.708,-171.31 477.312,-166.839 467.015,-164.345 467.708,-171.31"/>
</g>
<!-- Node8 -->
<g id="node8" class="node"><title>Node8</title>
<g id="a_node8"><a xlink:href="class_c_transaction.html#a274384ecbb50d71355cd287b7a6bca51" target="_top" xlink:title="CTransaction::IsCoinBase">
<polygon fill="white" stroke="black" points="460.5,-228.5 460.5,-247.5 593.5,-247.5 593.5,-228.5 460.5,-228.5"/>
<text text-anchor="middle" x="527" y="-235.5" font-family="Helvetica,sans-Serif" font-size="10.00">CTransaction::IsCoinBase</text>
</a>
</g>
</g>
<!-- Node7&#45;&gt;Node8 -->
<g id="edge7" class="edge"><title>Node7&#45;&gt;Node8</title>
<path fill="none" stroke="midnightblue" d="M417.717,-238C428.179,-238 439.355,-238 450.406,-238"/>
<polygon fill="midnightblue" stroke="midnightblue" points="450.497,-241.5 460.497,-238 450.497,-234.5 450.497,-241.5"/>
</g>
<!-- Node9 -->
<g id="node9" class="node"><title>Node9</title>
<g id="a_node9"><a xlink:href="class_c_merkle_tx.html#adf24748ee829f589ac8d6e99ec6121de" target="_top" xlink:title="CMerkleTx::IsInMainChain">
<polygon fill="white" stroke="black" points="460,-190.5 460,-209.5 594,-209.5 594,-190.5 460,-190.5"/>
<text text-anchor="middle" x="527" y="-197.5" font-family="Helvetica,sans-Serif" font-size="10.00">CMerkleTx::IsInMainChain</text>
</a>
</g>
</g>
<!-- Node7&#45;&gt;Node9 -->
<g id="edge8" class="edge"><title>Node7&#45;&gt;Node9</title>
<path fill="none" stroke="midnightblue" d="M417.717,-225.557C436.366,-221.156 457.281,-216.219 475.721,-211.867"/>
<polygon fill="midnightblue" stroke="midnightblue" points="476.753,-215.22 485.681,-209.516 475.145,-208.407 476.753,-215.22"/>
</g>
<!-- Node10 -->
<g id="node10" class="node"><title>Node10</title>
<g id="a_node10"><a xlink:href="class_c_merkle_tx.html#a650229fec7fe661aa7a137902bc745a3" target="_top" xlink:title="CMerkleTx::GetDepthInMain\lChainINTERNAL">
<polygon fill="white" stroke="black" points="630,-52 630,-82 773,-82 773,-52 630,-52"/>
<text text-anchor="start" x="638" y="-70" font-family="Helvetica,sans-Serif" font-size="10.00">CMerkleTx::GetDepthInMain</text>
<text text-anchor="middle" x="701.5" y="-59" font-family="Helvetica,sans-Serif" font-size="10.00">ChainINTERNAL</text>
</a>
</g>
</g>
<!-- Node9&#45;&gt;Node10 -->
<g id="edge9" class="edge"><title>Node9&#45;&gt;Node10</title>
<path fill="none" stroke="midnightblue" d="M573.402,-190.459C580.576,-187.969 587.697,-184.863 594,-181 595.316,-180.193 648.81,-122.677 679.469,-89.6617"/>
<polygon fill="midnightblue" stroke="midnightblue" points="682.124,-91.9455 686.363,-82.2357 676.994,-87.1827 682.124,-91.9455"/>
</g>
<!-- Node11 -->
<g id="node11" class="node"><title>Node11</title>
<g id="a_node11"><a xlink:href="class_c_chain.html#a1ab1fe2932227af222699c64847e838b" target="_top" xlink:title="Efficiently check whether a block is present in this chain. ">
<polygon fill="white" stroke="black" points="833.5,-38.5 833.5,-57.5 928.5,-57.5 928.5,-38.5 833.5,-38.5"/>
<text text-anchor="middle" x="881" y="-45.5" font-family="Helvetica,sans-Serif" font-size="10.00">CChain::Contains</text>
</a>
</g>
</g>
<!-- Node10&#45;&gt;Node11 -->
<g id="edge10" class="edge"><title>Node10&#45;&gt;Node11</title>
<path fill="none" stroke="midnightblue" d="M773.163,-59.4361C789.738,-57.6619 807.192,-55.7936 823.077,-54.0931"/>
<polygon fill="midnightblue" stroke="midnightblue" points="823.694,-57.5472 833.265,-53.0026 822.949,-50.5869 823.694,-57.5472"/>
</g>
<!-- Node12 -->
<g id="node12" class="node"><title>Node12</title>
<g id="a_node12"><a xlink:href="class_c_block.html#a81684cf96f6fb6731c869865b80d1ccd" target="_top" xlink:title="CBlock::CheckMerkleBranch">
<polygon fill="white" stroke="black" points="809,-76.5 809,-95.5 953,-95.5 953,-76.5 809,-76.5"/>
<text text-anchor="middle" x="881" y="-83.5" font-family="Helvetica,sans-Serif" font-size="10.00">CBlock::CheckMerkleBranch</text>
</a>
</g>
</g>
<!-- Node10&#45;&gt;Node12 -->
<g id="edge11" class="edge"><title>Node10&#45;&gt;Node12</title>
<path fill="none" stroke="midnightblue" d="M773.163,-74.5639C781.571,-75.4639 790.205,-76.3881 798.746,-77.3024"/>
<polygon fill="midnightblue" stroke="midnightblue" points="798.394,-80.7846 808.71,-78.369 799.139,-73.8244 798.394,-80.7846"/>
</g>
<!-- Node14 -->
<g id="node14" class="node"><title>Node14</title>
<g id="a_node14"><a xlink:href="class_c_chain.html#a0c4ffb8501acfb8a7e1c0f5e6322ada3" target="_top" xlink:title="Return the maximal height in the chain. ">
<polygon fill="white" stroke="black" points="839,-0.5 839,-19.5 923,-19.5 923,-0.5 839,-0.5"/>
<text text-anchor="middle" x="881" y="-7.5" font-family="Helvetica,sans-Serif" font-size="10.00">CChain::Height</text>
</a>
</g>
</g>
<!-- Node10&#45;&gt;Node14 -->
<g id="edge13" class="edge"><title>Node10&#45;&gt;Node14</title>
<path fill="none" stroke="midnightblue" d="M742.194,-51.9712C762.116,-44.6504 786.697,-35.9506 809,-29 816.452,-26.6776 824.397,-24.3802 832.173,-22.2285"/>
<polygon fill="midnightblue" stroke="midnightblue" points="833.151,-25.5898 841.883,-19.59 831.316,-18.8347 833.151,-25.5898"/>
</g>
<!-- Node13 -->
<g id="node13" class="node"><title>Node13</title>
<g id="a_node13"><a xlink:href="hash_8h.html#ab3f6c437460137530d86e09c2c102e99" target="_top" xlink:title="Hash">
<polygon fill="white" stroke="black" points="1029,-95.5 1029,-114.5 1069,-114.5 1069,-95.5 1029,-95.5"/>
<text text-anchor="middle" x="1049" y="-102.5" font-family="Helvetica,sans-Serif" font-size="10.00">Hash</text>
</a>
</g>
</g>
<!-- Node12&#45;&gt;Node13 -->
<g id="edge12" class="edge"><title>Node12&#45;&gt;Node13</title>
<path fill="none" stroke="midnightblue" d="M953.362,-94.168C976.428,-96.808 1000.72,-99.5881 1018.91,-101.671"/>
<polygon fill="midnightblue" stroke="midnightblue" points="1018.53,-105.15 1028.87,-102.81 1019.33,-98.1955 1018.53,-105.15"/>
</g>
<!-- Node15&#45;&gt;Node8 -->
<g id="edge28" class="edge"><title>Node15&#45;&gt;Node8</title>
<path fill="none" stroke="midnightblue" d="M370.185,-393.918C381.487,-363.317 411.306,-293.73 460,-257 462.49,-255.122 465.16,-253.429 467.947,-251.904"/>
<polygon fill="midnightblue" stroke="midnightblue" points="469.604,-254.992 477.173,-247.578 466.633,-248.655 469.604,-254.992"/>
</g>
<!-- Node16 -->
<g id="node16" class="node"><title>Node16</title>
<g id="a_node16"><a xlink:href="class_c_wallet_tx.html#a25fdd940fcdd2ea9d05547c5c789fc0d" target="_top" xlink:title="CWalletTx::GetTxTime">
<polygon fill="white" stroke="black" points="468,-532.5 468,-551.5 586,-551.5 586,-532.5 468,-532.5"/>
<text text-anchor="middle" x="527" y="-539.5" font-family="Helvetica,sans-Serif" font-size="10.00">CWalletTx::GetTxTime</text>
</a>
</g>
</g>
<!-- Node15&#45;&gt;Node16 -->
<g id="edge15" class="edge"><title>Node15&#45;&gt;Node16</title>
<path fill="none" stroke="midnightblue" d="M410.767,-424.058C415.592,-426.863 420.138,-430.153 424,-434 452.78,-462.662 430.485,-490.096 460,-518 464.257,-522.024 469.241,-525.384 474.529,-528.186"/>
<polygon fill="midnightblue" stroke="midnightblue" points="473.094,-531.378 483.64,-532.394 476.029,-525.023 473.094,-531.378"/>
</g>
<!-- Node17 -->
<g id="node17" class="node"><title>Node17</title>
<g id="a_node17"><a xlink:href="class_c_wallet_tx.html#a370bfa4e49ce68015740b0e675133e1d" target="_top" xlink:title="CWalletTx::GetCredit">
<polygon fill="white" stroke="black" points="471.5,-456.5 471.5,-475.5 582.5,-475.5 582.5,-456.5 471.5,-456.5"/>
<text text-anchor="middle" x="527" y="-463.5" font-family="Helvetica,sans-Serif" font-size="10.00">CWalletTx::GetCredit</text>
</a>
</g>
</g>
<!-- Node15&#45;&gt;Node17 -->
<g id="edge16" class="edge"><title>Node15&#45;&gt;Node17</title>
<path fill="none" stroke="midnightblue" d="M400.322,-424.108C418.071,-431.449 440.005,-440.142 460,-447 466.593,-449.261 473.616,-451.48 480.529,-453.559"/>
<polygon fill="midnightblue" stroke="midnightblue" points="479.935,-457.032 490.516,-456.492 481.907,-450.316 479.935,-457.032"/>
</g>
<!-- Node20 -->
<g id="node20" class="node"><title>Node20</title>
<g id="a_node20"><a xlink:href="script_8cpp.html#adc59cf67d903c1ba1ef225561b85bfce" target="_top" xlink:title="IsMine">
<polygon fill="white" stroke="black" points="858,-522.5 858,-541.5 904,-541.5 904,-522.5 858,-522.5"/>
<text text-anchor="middle" x="881" y="-529.5" font-family="Helvetica,sans-Serif" font-size="10.00">IsMine</text>
</a>
</g>
</g>
<!-- Node15&#45;&gt;Node20 -->
<g id="edge45" class="edge"><title>Node15&#45;&gt;Node20</title>
<path fill="none" stroke="midnightblue" d="M408.496,-424.09C413.994,-426.938 419.323,-430.23 424,-434 445.6,-451.413 436.115,-470.883 460,-485 525.638,-523.793 761.517,-530.576 847.959,-531.755"/>
<polygon fill="midnightblue" stroke="midnightblue" points="847.93,-535.254 857.972,-531.875 848.015,-528.255 847.93,-535.254"/>
</g>
<!-- Node22 -->
<g id="node22" class="node"><title>Node22</title>
<g id="a_node22"><a xlink:href="class_c_wallet_tx.html#ac1c7b4dd86b9565ddfe2810b46ea7d03" target="_top" xlink:title="CWalletTx::GetDebit">
<polygon fill="white" stroke="black" points="473,-658.5 473,-677.5 581,-677.5 581,-658.5 473,-658.5"/>
<text text-anchor="middle" x="527" y="-665.5" font-family="Helvetica,sans-Serif" font-size="10.00">CWalletTx::GetDebit</text>
</a>
</g>
</g>
<!-- Node15&#45;&gt;Node22 -->
<g id="edge22" class="edge"><title>Node15&#45;&gt;Node22</title>
<path fill="none" stroke="midnightblue" d="M413.133,-424.132C417.236,-426.897 420.968,-430.157 424,-434 484.009,-510.064 395.52,-576.687 460,-649 461.369,-650.535 462.853,-651.95 464.43,-653.253"/>
<polygon fill="midnightblue" stroke="midnightblue" points="462.717,-656.315 472.996,-658.884 466.563,-650.466 462.717,-656.315"/>
</g>
<!-- Node24 -->
<g id="node24" class="node"><title>Node24</title>
<g id="a_node24"><a xlink:href="class_c_transaction.html#a3f8666d2a275c40da14bd5eaf47dc004" target="_top" xlink:title="CTransaction::GetHash">
<polygon fill="white" stroke="black" points="466.5,-342.5 466.5,-361.5 587.5,-361.5 587.5,-342.5 466.5,-342.5"/>
<text text-anchor="middle" x="527" y="-349.5" font-family="Helvetica,sans-Serif" font-size="10.00">CTransaction::GetHash</text>
</a>
</g>
</g>
<!-- Node15&#45;&gt;Node24 -->
<g id="edge25" class="edge"><title>Node15&#45;&gt;Node24</title>
<path fill="none" stroke="midnightblue" d="M407.722,-393.875C433.104,-384.889 464.967,-373.608 489.224,-365.02"/>
<polygon fill="midnightblue" stroke="midnightblue" points="490.522,-368.273 498.781,-361.637 488.186,-361.675 490.522,-368.273"/>
</g>
<!-- Node27 -->
<g id="node27" class="node"><title>Node27</title>
<g id="a_node27"><a xlink:href="class_c_wallet.html#ab7cc8fd8859fecc6ed768dacb5642c5e" target="_top" xlink:title="CWallet::IsMine">
<polygon fill="white" stroke="black" points="658,-551.5 658,-570.5 745,-570.5 745,-551.5 658,-551.5"/>
<text text-anchor="middle" x="701.5" y="-558.5" font-family="Helvetica,sans-Serif" font-size="10.00">CWallet::IsMine</text>
</a>
</g>
</g>
<!-- Node15&#45;&gt;Node27 -->
<g id="edge29" class="edge"><title>Node15&#45;&gt;Node27</title>
<path fill="none" stroke="midnightblue" d="M412.134,-424.123C416.539,-426.898 420.614,-430.163 424,-434 462.822,-477.987 413.199,-525.621 460,-561 519.329,-605.849 612.531,-588.286 663.745,-573.451"/>
<polygon fill="midnightblue" stroke="midnightblue" points="664.841,-576.776 673.405,-570.539 662.821,-570.074 664.841,-576.776"/>
</g>
<!-- Node28 -->
<g id="node28" class="node"><title>Node28</title>
<g id="a_node28"><a xlink:href="script_8cpp.html#a951f7e601746ae076afdf3169ecca2fc" target="_top" xlink:title="ExtractDestination">
<polygon fill="white" stroke="black" points="478,-304.5 478,-323.5 576,-323.5 576,-304.5 478,-304.5"/>
<text text-anchor="middle" x="527" y="-311.5" font-family="Helvetica,sans-Serif" font-size="10.00">ExtractDestination</text>
</a>
</g>
</g>
<!-- Node15&#45;&gt;Node28 -->
<g id="edge31" class="edge"><title>Node15&#45;&gt;Node28</title>
<path fill="none" stroke="midnightblue" d="M380.104,-393.708C397.79,-376.613 428.673,-349.211 460,-333 464.339,-330.755 468.979,-328.742 473.713,-326.944"/>
<polygon fill="midnightblue" stroke="midnightblue" points="475.195,-330.134 483.496,-323.551 472.901,-323.521 475.195,-330.134"/>
</g>
<!-- Node42 -->
<g id="node42" class="node"><title>Node42</title>
<g id="a_node42"><a xlink:href="class_c_base58_data.html#a9a47b10dadff15b8d6a6d0e63ce3ae32" target="_top" xlink:title="CBase58Data::ToString">
<polygon fill="white" stroke="black" points="466,-266.5 466,-285.5 588,-285.5 588,-266.5 466,-266.5"/>
<text text-anchor="middle" x="527" y="-273.5" font-family="Helvetica,sans-Serif" font-size="10.00">CBase58Data::ToString</text>
</a>
</g>
</g>
<!-- Node15&#45;&gt;Node42 -->
<g id="edge46" class="edge"><title>Node15&#45;&gt;Node42</title>
<path fill="none" stroke="midnightblue" d="M373.423,-393.965C387.904,-369.501 419.87,-321.188 460,-295 463.13,-292.958 466.483,-291.13 469.957,-289.496"/>
<polygon fill="midnightblue" stroke="midnightblue" points="471.462,-292.662 479.368,-285.607 468.789,-286.192 471.462,-292.662"/>
</g>
<!-- Node45 -->
<g id="node45" class="node"><title>Node45</title>
<g id="a_node45"><a xlink:href="class_c_wallet_tx.html#ad326ed38cbb0dcb7d7dc4840c1279c39" target="_top" xlink:title="CWalletTx::GetChange">
<polygon fill="white" stroke="black" points="467.5,-418.5 467.5,-437.5 586.5,-437.5 586.5,-418.5 467.5,-418.5"/>
<text text-anchor="middle" x="527" y="-425.5" font-family="Helvetica,sans-Serif" font-size="10.00">CWalletTx::GetChange</text>
</a>
</g>
</g>
<!-- Node15&#45;&gt;Node45 -->
<g id="edge50" class="edge"><title>Node15&#45;&gt;Node45</title>
<path fill="none" stroke="midnightblue" d="M424.036,-415.967C434.824,-417.24 446.166,-418.579 457.208,-419.882"/>
<polygon fill="midnightblue" stroke="midnightblue" points="456.899,-423.369 467.24,-421.066 457.719,-416.418 456.899,-423.369"/>
</g>
<!-- Node47 -->
<g id="node47" class="node"><title>Node47</title>
<g id="a_node47"><a xlink:href="class_transaction_record.html#abb95ce852c0d00e86dcf7ebf63e70a83" target="_top" xlink:title="TransactionRecord::\lTransactionRecord">
<polygon fill="white" stroke="black" points="473.5,-609 473.5,-639 580.5,-639 580.5,-609 473.5,-609"/>
<text text-anchor="start" x="481.5" y="-627" font-family="Helvetica,sans-Serif" font-size="10.00">TransactionRecord::</text>
<text text-anchor="middle" x="527" y="-616" font-family="Helvetica,sans-Serif" font-size="10.00">TransactionRecord</text>
</a>
</g>
</g>
<!-- Node15&#45;&gt;Node47 -->
<g id="edge53" class="edge"><title>Node15&#45;&gt;Node47</title>
<path fill="none" stroke="midnightblue" d="M412.633,-424.122C416.888,-426.893 420.792,-430.157 424,-434 470.714,-489.952 414.013,-537.449 460,-594 462.846,-597.5 466.19,-600.608 469.835,-603.366"/>
<polygon fill="midnightblue" stroke="midnightblue" points="467.938,-606.307 478.221,-608.857 471.772,-600.451 467.938,-606.307"/>
</g>
<!-- Node48 -->
<g id="node48" class="node"><title>Node48</title>
<g id="a_node48"><a xlink:href="class_c_transaction.html#ac55950c7f9d437e5cd11a88af39b6deb" target="_top" xlink:title="CTransaction::GetValueOut">
<polygon fill="white" stroke="black" points="632,-380.5 632,-399.5 771,-399.5 771,-380.5 632,-380.5"/>
<text text-anchor="middle" x="701.5" y="-387.5" font-family="Helvetica,sans-Serif" font-size="10.00">CTransaction::GetValueOut</text>
</a>
</g>
</g>
<!-- Node15&#45;&gt;Node48 -->
<g id="edge54" class="edge"><title>Node15&#45;&gt;Node48</title>
<path fill="none" stroke="midnightblue" d="M424.208,-405.647C479.068,-402.54 561.071,-397.896 621.497,-394.474"/>
<polygon fill="midnightblue" stroke="midnightblue" points="621.972,-397.953 631.758,-393.893 621.576,-390.964 621.972,-397.953"/>
</g>
<!-- Node18 -->
<g id="node18" class="node"><title>Node18</title>
<g id="a_node18"><a xlink:href="class_c_wallet.html#a9ec15c32442fcceb95425d8b36492544" target="_top" xlink:title="CWallet::GetCredit">
<polygon fill="white" stroke="black" points="651.5,-456.5 651.5,-475.5 751.5,-475.5 751.5,-456.5 651.5,-456.5"/>
<text text-anchor="middle" x="701.5" y="-463.5" font-family="Helvetica,sans-Serif" font-size="10.00">CWallet::GetCredit</text>
</a>
</g>
</g>
<!-- Node17&#45;&gt;Node18 -->
<g id="edge17" class="edge"><title>Node17&#45;&gt;Node18</title>
<path fill="none" stroke="midnightblue" d="M582.58,-466C601.238,-466 622.192,-466 641.204,-466"/>
<polygon fill="midnightblue" stroke="midnightblue" points="641.242,-469.5 651.242,-466 641.242,-462.5 641.242,-469.5"/>
</g>
<!-- Node19 -->
<g id="node19" class="node"><title>Node19</title>
<g id="a_node19"><a xlink:href="core_8h.html#ad1d9a769fa327ea042e0c9fadeb4836b" target="_top" xlink:title="MoneyRange">
<polygon fill="white" stroke="black" points="843,-456.5 843,-475.5 919,-475.5 919,-456.5 843,-456.5"/>
<text text-anchor="middle" x="881" y="-463.5" font-family="Helvetica,sans-Serif" font-size="10.00">MoneyRange</text>
</a>
</g>
</g>
<!-- Node18&#45;&gt;Node19 -->
<g id="edge18" class="edge"><title>Node18&#45;&gt;Node19</title>
<path fill="none" stroke="midnightblue" d="M751.944,-466C777.165,-466 807.695,-466 832.617,-466"/>
<polygon fill="midnightblue" stroke="midnightblue" points="832.924,-469.5 842.924,-466 832.924,-462.5 832.924,-469.5"/>
</g>
<!-- Node18&#45;&gt;Node20 -->
<g id="edge19" class="edge"><title>Node18&#45;&gt;Node20</title>
<path fill="none" stroke="midnightblue" d="M731.418,-475.511C744.209,-479.804 759.402,-485.02 773,-490 798.56,-499.361 827.258,-510.67 848.495,-519.194"/>
<polygon fill="midnightblue" stroke="midnightblue" points="847.397,-522.525 857.981,-523.015 850.013,-516.032 847.397,-522.525"/>
</g>
<!-- Node20&#45;&gt;Node20 -->
<g id="edge21" class="edge"><title>Node20&#45;&gt;Node20</title>
<path fill="none" stroke="midnightblue" d="M857.875,-540.026C841.464,-549.28 849.172,-560 881,-560 905.368,-560 915.598,-553.716 911.69,-546.617"/>
<polygon fill="midnightblue" stroke="midnightblue" points="913.964,-543.957 904.125,-540.026 909.365,-549.234 913.964,-543.957"/>
</g>
<!-- Node21 -->
<g id="node21" class="node"><title>Node21</title>
<g id="a_node21"><a xlink:href="class_c_script.html#ad1b5a9077241aa06116040c4f1b7c31e" target="_top" xlink:title="CScript::SetDestination">
<polygon fill="white" stroke="black" points="989,-522.5 989,-541.5 1109,-541.5 1109,-522.5 989,-522.5"/>
<text text-anchor="middle" x="1049" y="-529.5" font-family="Helvetica,sans-Serif" font-size="10.00">CScript::SetDestination</text>
</a>
</g>
</g>
<!-- Node20&#45;&gt;Node21 -->
<g id="edge20" class="edge"><title>Node20&#45;&gt;Node21</title>
<path fill="none" stroke="midnightblue" d="M904.044,-532C923.125,-532 951.786,-532 978.523,-532"/>
<polygon fill="midnightblue" stroke="midnightblue" points="978.653,-535.5 988.653,-532 978.652,-528.5 978.653,-535.5"/>
</g>
<!-- Node23 -->
<g id="node23" class="node"><title>Node23</title>
<g id="a_node23"><a xlink:href="class_c_wallet.html#a9caab46cb65f0ef87f1a1f446655209a" target="_top" xlink:title="CWallet::GetDebit">
<polygon fill="white" stroke="black" points="653,-623.5 653,-642.5 750,-642.5 750,-623.5 653,-623.5"/>
<text text-anchor="middle" x="701.5" y="-630.5" font-family="Helvetica,sans-Serif" font-size="10.00">CWallet::GetDebit</text>
</a>
</g>
</g>
<!-- Node22&#45;&gt;Node23 -->
<g id="edge23" class="edge"><title>Node22&#45;&gt;Node23</title>
<path fill="none" stroke="midnightblue" d="M575.136,-658.436C596.244,-654.153 621.316,-649.066 643.471,-644.571"/>
<polygon fill="midnightblue" stroke="midnightblue" points="644.316,-647.971 653.421,-642.552 642.924,-641.111 644.316,-647.971"/>
</g>
<!-- Node23&#45;&gt;Node20 -->
<g id="edge24" class="edge"><title>Node23&#45;&gt;Node20</title>
<path fill="none" stroke="midnightblue" d="M719.199,-623.498C750.254,-605.827 817.085,-567.799 854.065,-546.758"/>
<polygon fill="midnightblue" stroke="midnightblue" points="856.256,-549.538 863.216,-541.55 852.794,-543.454 856.256,-549.538"/>
</g>
<!-- Node25 -->
<g id="node25" class="node"><title>Node25</title>
<g id="a_node25"><a xlink:href="hash_8h.html#a6de694e43f17c62025c6883965b65e63" target="_top" xlink:title="SerializeHash">
<polygon fill="white" stroke="black" points="662.5,-342.5 662.5,-361.5 740.5,-361.5 740.5,-342.5 662.5,-342.5"/>
<text text-anchor="middle" x="701.5" y="-349.5" font-family="Helvetica,sans-Serif" font-size="10.00">SerializeHash</text>
</a>
</g>
</g>
<!-- Node24&#45;&gt;Node25 -->
<g id="edge26" class="edge"><title>Node24&#45;&gt;Node25</title>
<path fill="none" stroke="midnightblue" d="M587.848,-352C608.896,-352 632.265,-352 652.237,-352"/>
<polygon fill="midnightblue" stroke="midnightblue" points="652.342,-355.5 662.342,-352 652.342,-348.5 652.342,-355.5"/>
</g>
<!-- Node26 -->
<g id="node26" class="node"><title>Node26</title>
<g id="a_node26"><a xlink:href="class_c_hash_writer.html#ae94a937211502eabf19477630090093a" target="_top" xlink:title="CHashWriter::GetHash">
<polygon fill="white" stroke="black" points="821.5,-418.5 821.5,-437.5 940.5,-437.5 940.5,-418.5 821.5,-418.5"/>
<text text-anchor="middle" x="881" y="-425.5" font-family="Helvetica,sans-Serif" font-size="10.00">CHashWriter::GetHash</text>
</a>
</g>
</g>
<!-- Node25&#45;&gt;Node26 -->
<g id="edge27" class="edge"><title>Node25&#45;&gt;Node26</title>
<path fill="none" stroke="midnightblue" d="M740.627,-358.234C751.58,-361.072 763.202,-365.156 773,-371 792.98,-382.918 789.009,-397.1 809,-409 812.639,-411.166 816.527,-413.09 820.54,-414.798"/>
<polygon fill="midnightblue" stroke="midnightblue" points="819.476,-418.138 830.068,-418.404 821.954,-411.591 819.476,-418.138"/>
</g>
<!-- Node27&#45;&gt;Node20 -->
<g id="edge30" class="edge"><title>Node27&#45;&gt;Node20</title>
<path fill="none" stroke="midnightblue" d="M745.016,-554.054C776.621,-548.89 819.079,-541.953 847.877,-537.248"/>
<polygon fill="midnightblue" stroke="midnightblue" points="848.519,-540.69 857.824,-535.623 847.39,-533.781 848.519,-540.69"/>
</g>
<!-- Node29 -->
<g id="node29" class="node"><title>Node29</title>
<g id="a_node29"><a xlink:href="script_8cpp.html#a6ee6be50bff44464e905680c6fcee6dc" target="_top" xlink:title="Solver">
<polygon fill="white" stroke="black" points="679,-304.5 679,-323.5 724,-323.5 724,-304.5 679,-304.5"/>
<text text-anchor="middle" x="701.5" y="-311.5" font-family="Helvetica,sans-Serif" font-size="10.00">Solver</text>
</a>
</g>
</g>
<!-- Node28&#45;&gt;Node29 -->
<g id="edge32" class="edge"><title>Node28&#45;&gt;Node29</title>
<path fill="none" stroke="midnightblue" d="M576.051,-314C605.666,-314 642.81,-314 668.777,-314"/>
<polygon fill="midnightblue" stroke="midnightblue" points="668.825,-317.5 678.825,-314 668.825,-310.5 668.825,-317.5"/>
</g>
<!-- Node38 -->
<g id="node38" class="node"><title>Node38</title>
<g id="a_node38"><a xlink:href="class_c_pub_key.html#a9c1908fef34fd9e1c4b5e0ffd5d3834e" target="_top" xlink:title="CPubKey::GetID">
<polygon fill="white" stroke="black" points="656.5,-228.5 656.5,-247.5 746.5,-247.5 746.5,-228.5 656.5,-228.5"/>
<text text-anchor="middle" x="701.5" y="-235.5" font-family="Helvetica,sans-Serif" font-size="10.00">CPubKey::GetID</text>
</a>
</g>
</g>
<!-- Node28&#45;&gt;Node38 -->
<g id="edge41" class="edge"><title>Node28&#45;&gt;Node38</title>
<path fill="none" stroke="midnightblue" d="M566.161,-304.497C575.403,-301.792 585.162,-298.59 594,-295 623.449,-283.037 655.36,-265.259 676.494,-252.745"/>
<polygon fill="midnightblue" stroke="midnightblue" points="678.347,-255.714 685.125,-247.571 674.749,-249.71 678.347,-255.714"/>
</g>
<!-- Node30 -->
<g id="node30" class="node"><title>Node30</title>
<g id="a_node30"><a xlink:href="util_8cpp.html#a64d956f1dda7f9a80ab5d594532b906d" target="_top" xlink:title="Return boolean argument or default value. ">
<polygon fill="white" stroke="black" points="847,-380.5 847,-399.5 915,-399.5 915,-380.5 847,-380.5"/>
<text text-anchor="middle" x="881" y="-387.5" font-family="Helvetica,sans-Serif" font-size="10.00">GetBoolArg</text>
</a>
</g>
</g>
<!-- Node29&#45;&gt;Node30 -->
<g id="edge33" class="edge"><title>Node29&#45;&gt;Node30</title>
<path fill="none" stroke="midnightblue" d="M724.052,-316.677C738.664,-319.218 757.976,-324.039 773,-333 792.98,-344.918 789.009,-359.1 809,-371 817.463,-376.038 827.277,-379.765 836.859,-382.514"/>
<polygon fill="midnightblue" stroke="midnightblue" points="836.136,-385.942 846.693,-385.039 837.877,-379.162 836.136,-385.942"/>
</g>
<!-- Node32 -->
<g id="node32" class="node"><title>Node32</title>
<g id="a_node32"><a xlink:href="class_c_script.html#acba6d6d35776de4ce3a632446f44805f" target="_top" xlink:title="CScript::IsPayToScriptHash">
<polygon fill="white" stroke="black" points="811,-304.5 811,-323.5 951,-323.5 951,-304.5 811,-304.5"/>
<text text-anchor="middle" x="881" y="-311.5" font-family="Helvetica,sans-Serif" font-size="10.00">CScript::IsPayToScriptHash</text>
</a>
</g>
</g>
<!-- Node29&#45;&gt;Node32 -->
<g id="edge35" class="edge"><title>Node29&#45;&gt;Node32</title>
<path fill="none" stroke="midnightblue" d="M724.265,-314C743.475,-314 772.697,-314 800.658,-314"/>
<polygon fill="midnightblue" stroke="midnightblue" points="800.882,-317.5 810.882,-314 800.881,-310.5 800.882,-317.5"/>
</g>
<!-- Node33 -->
<g id="node33" class="node"><title>Node33</title>
<g id="a_node33"><a xlink:href="class_c_script.html#a94635ed93d8d244ec3acfa83f9ecfe5f" target="_top" xlink:title="CScript::GetOp">
<polygon fill="white" stroke="black" points="839,-342.5 839,-361.5 923,-361.5 923,-342.5 839,-342.5"/>
<text text-anchor="middle" x="881" y="-349.5" font-family="Helvetica,sans-Serif" font-size="10.00">CScript::GetOp</text>
</a>
</g>
</g>
<!-- Node29&#45;&gt;Node33 -->
<g id="edge36" class="edge"><title>Node29&#45;&gt;Node33</title>
<path fill="none" stroke="midnightblue" d="M724.265,-318.66C750.132,-324.197 794.148,-333.62 828.8,-341.039"/>
<polygon fill="midnightblue" stroke="midnightblue" points="828.251,-344.501 838.762,-343.172 829.716,-337.656 828.251,-344.501"/>
</g>
<!-- Node37 -->
<g id="node37" class="node"><title>Node37</title>
<g id="a_node37"><a xlink:href="class_c_script.html#a7f975fca06b3e9a17da8ba23c7647e2e" target="_top" xlink:title="CScript::DecodeOP_N">
<polygon fill="white" stroke="black" points="822.5,-266.5 822.5,-285.5 939.5,-285.5 939.5,-266.5 822.5,-266.5"/>
<text text-anchor="middle" x="881" y="-273.5" font-family="Helvetica,sans-Serif" font-size="10.00">CScript::DecodeOP_N</text>
</a>
</g>
</g>
<!-- Node29&#45;&gt;Node37 -->
<g id="edge40" class="edge"><title>Node29&#45;&gt;Node37</title>
<path fill="none" stroke="midnightblue" d="M724.265,-309.34C749.373,-303.965 791.583,-294.929 825.729,-287.619"/>
<polygon fill="midnightblue" stroke="midnightblue" points="826.536,-291.025 835.581,-285.509 825.07,-284.18 826.536,-291.025"/>
</g>
<!-- Node31 -->
<g id="node31" class="node"><title>Node31</title>
<g id="a_node31"><a xlink:href="util_8h.html#aa5ce96ec36f4413f820cec9c1831c070" target="_top" xlink:title="atoi">
<polygon fill="white" stroke="black" points="1032.5,-380.5 1032.5,-399.5 1065.5,-399.5 1065.5,-380.5 1032.5,-380.5"/>
<text text-anchor="middle" x="1049" y="-387.5" font-family="Helvetica,sans-Serif" font-size="10.00">atoi</text>
</a>
</g>
</g>
<!-- Node30&#45;&gt;Node31 -->
<g id="edge34" class="edge"><title>Node30&#45;&gt;Node31</title>
<path fill="none" stroke="midnightblue" d="M915.194,-390C946.739,-390 993.516,-390 1022.31,-390"/>
<polygon fill="midnightblue" stroke="midnightblue" points="1022.4,-393.5 1032.4,-390 1022.4,-386.5 1022.4,-393.5"/>
</g>
<!-- Node34 -->
<g id="node34" class="node"><title>Node34</title>
<g id="a_node34"><a xlink:href="class_c_script.html#a93ec95275ccce9b701c8f53c57cd7975" target="_top" xlink:title="CScript::GetOp2">
<polygon fill="white" stroke="black" points="1004,-342.5 1004,-361.5 1094,-361.5 1094,-342.5 1004,-342.5"/>
<text text-anchor="middle" x="1049" y="-349.5" font-family="Helvetica,sans-Serif" font-size="10.00">CScript::GetOp2</text>
</a>
</g>
</g>
<!-- Node33&#45;&gt;Node34 -->
<g id="edge37" class="edge"><title>Node33&#45;&gt;Node34</title>
<path fill="none" stroke="midnightblue" d="M923.034,-352C944.348,-352 970.673,-352 993.656,-352"/>
<polygon fill="midnightblue" stroke="midnightblue" points="993.951,-355.5 1003.95,-352 993.951,-348.5 993.951,-355.5"/>
</g>
<!-- Node35 -->
<g id="node35" class="node"><title>Node35</title>
<g id="a_node35"><a xlink:href="glibc__compat_8cpp.html#a0f46826ab0466591e136db24394923cf" target="_top" xlink:title="memcpy">
<polygon fill="white" stroke="black" points="1145,-342.5 1145,-361.5 1199,-361.5 1199,-342.5 1145,-342.5"/>
<text text-anchor="middle" x="1172" y="-349.5" font-family="Helvetica,sans-Serif" font-size="10.00">memcpy</text>
</a>
</g>
</g>
<!-- Node34&#45;&gt;Node35 -->
<g id="edge38" class="edge"><title>Node34&#45;&gt;Node35</title>
<path fill="none" stroke="midnightblue" d="M1094.03,-352C1107.33,-352 1121.78,-352 1134.54,-352"/>
<polygon fill="midnightblue" stroke="midnightblue" points="1134.78,-355.5 1144.78,-352 1134.78,-348.5 1134.78,-355.5"/>
</g>
<!-- Node36 -->
<g id="node36" class="node"><title>Node36</title>
<g id="a_node36"><a xlink:href="glibc__compat_8cpp.html#a9778d49e9029dd75bc53ecbbf9f5e9a1" target="_top" xlink:title="memmove">
<polygon fill="white" stroke="black" points="1235,-342.5 1235,-361.5 1298,-361.5 1298,-342.5 1235,-342.5"/>
<text text-anchor="middle" x="1266.5" y="-349.5" font-family="Helvetica,sans-Serif" font-size="10.00">memmove</text>
</a>
</g>
</g>
<!-- Node35&#45;&gt;Node36 -->
<g id="edge39" class="edge"><title>Node35&#45;&gt;Node36</title>
<path fill="none" stroke="midnightblue" d="M1199.26,-352C1207.24,-352 1216.21,-352 1224.91,-352"/>
<polygon fill="midnightblue" stroke="midnightblue" points="1224.92,-355.5 1234.92,-352 1224.92,-348.5 1224.92,-355.5"/>
</g>
<!-- Node39 -->
<g id="node39" class="node"><title>Node39</title>
<g id="a_node39"><a xlink:href="hash_8h.html#a4490f70ddae16e9e48460a0416a48a6b" target="_top" xlink:title="Hash160">
<polygon fill="white" stroke="black" points="852.5,-190.5 852.5,-209.5 909.5,-209.5 909.5,-190.5 852.5,-190.5"/>
<text text-anchor="middle" x="881" y="-197.5" font-family="Helvetica,sans-Serif" font-size="10.00">Hash160</text>
</a>
</g>
</g>
<!-- Node38&#45;&gt;Node39 -->
<g id="edge42" class="edge"><title>Node38&#45;&gt;Node39</title>
<path fill="none" stroke="midnightblue" d="M746.833,-228.509C776.281,-222.205 814.519,-214.018 842.462,-208.036"/>
<polygon fill="midnightblue" stroke="midnightblue" points="843.209,-211.456 852.255,-205.94 841.744,-204.611 843.209,-211.456"/>
</g>
<!-- Node40 -->
<g id="node40" class="node"><title>Node40</title>
<g id="a_node40"><a xlink:href="class_c_pub_key.html#a9d7129b65b6dee792b4f3923cd64ed59" target="_top" xlink:title="CPubKey::size">
<polygon fill="white" stroke="black" points="840,-228.5 840,-247.5 922,-247.5 922,-228.5 840,-228.5"/>
<text text-anchor="middle" x="881" y="-235.5" font-family="Helvetica,sans-Serif" font-size="10.00">CPubKey::size</text>
</a>
</g>
</g>
<!-- Node38&#45;&gt;Node40 -->
<g id="edge43" class="edge"><title>Node38&#45;&gt;Node40</title>
<path fill="none" stroke="midnightblue" d="M746.833,-238C772.034,-238 803.672,-238 829.787,-238"/>
<polygon fill="midnightblue" stroke="midnightblue" points="829.866,-241.5 839.866,-238 829.866,-234.5 829.866,-241.5"/>
</g>
<!-- Node41 -->
<g id="node41" class="node"><title>Node41</title>
<g id="a_node41"><a xlink:href="class_c_pub_key.html#a7dc71b3f037c84268dc22de97d7b65fb" target="_top" xlink:title="CPubKey::GetLen">
<polygon fill="white" stroke="black" points="1000.5,-228.5 1000.5,-247.5 1097.5,-247.5 1097.5,-228.5 1000.5,-228.5"/>
<text text-anchor="middle" x="1049" y="-235.5" font-family="Helvetica,sans-Serif" font-size="10.00">CPubKey::GetLen</text>
</a>
</g>
</g>
<!-- Node40&#45;&gt;Node41 -->
<g id="edge44" class="edge"><title>Node40&#45;&gt;Node41</title>
<path fill="none" stroke="midnightblue" d="M922.184,-238C942.57,-238 967.702,-238 990.131,-238"/>
<polygon fill="midnightblue" stroke="midnightblue" points="990.219,-241.5 1000.22,-238 990.219,-234.5 990.219,-241.5"/>
</g>
<!-- Node43 -->
<g id="node43" class="node"><title>Node43</title>
<g id="a_node43"><a xlink:href="base58_8cpp.html#ace9a5807ee51604f33044339f073ec76" target="_top" xlink:title="Encode a byte vector into a base58&#45;encoded string, including checksum. ">
<polygon fill="white" stroke="black" points="645,-152.5 645,-171.5 758,-171.5 758,-152.5 645,-152.5"/>
<text text-anchor="middle" x="701.5" y="-159.5" font-family="Helvetica,sans-Serif" font-size="10.00">EncodeBase58Check</text>
</a>
</g>
</g>
<!-- Node42&#45;&gt;Node43 -->
<g id="edge47" class="edge"><title>Node42&#45;&gt;Node43</title>
<path fill="none" stroke="midnightblue" d="M573.379,-266.421C580.555,-263.936 587.684,-260.841 594,-257 613.878,-244.912 612.917,-234.793 630,-219 645.888,-204.312 665.042,-188.962 679.373,-177.897"/>
<polygon fill="midnightblue" stroke="midnightblue" points="681.783,-180.46 687.6,-171.605 677.53,-174.9 681.783,-180.46"/>
</g>
<!-- Node43&#45;&gt;Node13 -->
<g id="edge48" class="edge"><title>Node43&#45;&gt;Node13</title>
<path fill="none" stroke="midnightblue" d="M754.739,-152.478C772.002,-149.385 791.314,-145.983 809,-143 884.558,-130.255 973.76,-116.383 1018.82,-109.458"/>
<polygon fill="midnightblue" stroke="midnightblue" points="1019.42,-112.907 1028.77,-107.931 1018.36,-105.988 1019.42,-112.907"/>
</g>
<!-- Node44 -->
<g id="node44" class="node"><title>Node44</title>
<g id="a_node44"><a xlink:href="base58_8cpp.html#a8d6f0e9d5df175b4966dcede31dc90ad" target="_top" xlink:title="Encode a byte sequence as a base58&#45;encoded string. ">
<polygon fill="white" stroke="black" points="839,-152.5 839,-171.5 923,-171.5 923,-152.5 839,-152.5"/>
<text text-anchor="middle" x="881" y="-159.5" font-family="Helvetica,sans-Serif" font-size="10.00">EncodeBase58</text>
</a>
</g>
</g>
<!-- Node43&#45;&gt;Node44 -->
<g id="edge49" class="edge"><title>Node43&#45;&gt;Node44</title>
<path fill="none" stroke="midnightblue" d="M758.175,-162C780.732,-162 806.615,-162 828.706,-162"/>
<polygon fill="midnightblue" stroke="midnightblue" points="828.889,-165.5 838.889,-162 828.888,-158.5 828.889,-165.5"/>
</g>
<!-- Node46 -->
<g id="node46" class="node"><title>Node46</title>
<g id="a_node46"><a xlink:href="class_c_wallet.html#acca24496f54521dfb8ca457748d44518" target="_top" xlink:title="CWallet::GetChange">
<polygon fill="white" stroke="black" points="647.5,-418.5 647.5,-437.5 755.5,-437.5 755.5,-418.5 647.5,-418.5"/>
<text text-anchor="middle" x="701.5" y="-425.5" font-family="Helvetica,sans-Serif" font-size="10.00">CWallet::GetChange</text>
</a>
</g>
</g>
<!-- Node45&#45;&gt;Node46 -->
<g id="edge51" class="edge"><title>Node45&#45;&gt;Node46</title>
<path fill="none" stroke="midnightblue" d="M586.882,-428C603.128,-428 620.82,-428 637.299,-428"/>
<polygon fill="midnightblue" stroke="midnightblue" points="637.38,-431.5 647.38,-428 637.38,-424.5 637.38,-431.5"/>
</g>
<!-- Node46&#45;&gt;Node19 -->
<g id="edge52" class="edge"><title>Node46&#45;&gt;Node19</title>
<path fill="none" stroke="midnightblue" d="M747.291,-437.589C773.427,-443.184 806.368,-450.237 832.892,-455.915"/>
<polygon fill="midnightblue" stroke="midnightblue" points="832.205,-459.347 842.716,-458.018 833.67,-452.502 832.205,-459.347"/>
</g>
<!-- Node48&#45;&gt;Node19 -->
<g id="edge55" class="edge"><title>Node48&#45;&gt;Node19</title>
<path fill="none" stroke="midnightblue" d="M751.71,-399.506C759.125,-401.99 766.468,-405.104 773,-409 792.98,-420.918 789.009,-435.1 809,-447 816.329,-451.363 824.671,-454.743 832.998,-457.356"/>
<polygon fill="midnightblue" stroke="midnightblue" points="832.13,-460.747 842.704,-460.083 834.024,-454.008 832.13,-460.747"/>
</g>
</g>
</svg>
