<?xml version="1.0" encoding="UTF-8" standalone="no"?>
<!DOCTYPE svg PUBLIC "-//W3C//DTD SVG 1.1//EN"
 "http://www.w3.org/Graphics/SVG/1.1/DTD/svg11.dtd">
<!-- Generated by graphviz version 2.38.0 (20140413.2041)
 -->
<!-- Title: SignVerifyMessageDialog::setAddress_VM Pages: 1 -->
<svg width="567pt" height="88pt"
 viewBox="0.00 0.00 567.00 88.00" xmlns="http://www.w3.org/2000/svg" xmlns:xlink="http://www.w3.org/1999/xlink">
<g id="graph0" class="graph" transform="scale(1 1) rotate(0) translate(4 84)">
<title>SignVerifyMessageDialog::setAddress_VM</title>
<polygon fill="white" stroke="none" points="-4,4 -4,-84 563,-84 563,4 -4,4"/>
<!-- Node1 -->
<g id="node1" class="node"><title>Node1</title>
<polygon fill="#bfbfbf" stroke="black" points="0,-19 0,-49 131,-49 131,-19 0,-19"/>
<text text-anchor="start" x="8" y="-37" font-family="Helvetica,sans-Serif" font-size="10.00">SignVerifyMessageDialog</text>
<text text-anchor="middle" x="65.5" y="-26" font-family="Helvetica,sans-Serif" font-size="10.00">::setAddress_VM</text>
</g>
<!-- Node2 -->
<g id="node2" class="node"><title>Node2</title>
<g id="a_node2"><a xlink:href="class_sign_verify_message_dialog.html#a90ceb00084c68da5e9c481ba0841d976" target="_top" xlink:title="SignVerifyMessageDialog\l::on_addressBookButton\l_VM_clicked">
<polygon fill="white" stroke="black" points="188.5,-38.5 188.5,-79.5 319.5,-79.5 319.5,-38.5 188.5,-38.5"/>
<text text-anchor="start" x="196.5" y="-67.5" font-family="Helvetica,sans-Serif" font-size="10.00">SignVerifyMessageDialog</text>
<text text-anchor="start" x="196.5" y="-56.5" font-family="Helvetica,sans-Serif" font-size="10.00">::on_addressBookButton</text>
<text text-anchor="middle" x="254" y="-45.5" font-family="Helvetica,sans-Serif" font-size="10.00">_VM_clicked</text>
</a>
</g>
</g>
<!-- Node1&#45;&gt;Node2 -->
<g id="edge1" class="edge"><title>Node1&#45;&gt;Node2</title>
<path fill="none" stroke="midnightblue" d="M141.328,-44.0306C156.919,-46.1205 173.226,-48.3064 188.409,-50.3417"/>
<polygon fill="midnightblue" stroke="midnightblue" points="141.582,-40.5333 131.205,-42.6736 140.652,-47.4713 141.582,-40.5333"/>
</g>
<!-- Node3 -->
<g id="node3" class="node"><title>Node3</title>
<g id="a_node3"><a xlink:href="class_wallet_view.html#a0a23aaaf87d3aec5ae8b1b8320d66796" target="_top" xlink:title="Show Sign/Verify Message dialog and switch to verify message tab. ">
<polygon fill="white" stroke="black" points="167,-0.5 167,-19.5 341,-19.5 341,-0.5 167,-0.5"/>
<text text-anchor="middle" x="254" y="-7.5" font-family="Helvetica,sans-Serif" font-size="10.00">WalletView::gotoVerifyMessageTab</text>
</a>
</g>
</g>
<!-- Node1&#45;&gt;Node3 -->
<g id="edge2" class="edge"><title>Node1&#45;&gt;Node3</title>
<path fill="none" stroke="midnightblue" d="M141.128,-24.3963C153.649,-22.7851 166.637,-21.1137 179.139,-19.505"/>
<polygon fill="midnightblue" stroke="midnightblue" points="140.677,-20.9255 131.205,-25.6733 141.57,-27.8683 140.677,-20.9255"/>
</g>
<!-- Node4 -->
<g id="node4" class="node"><title>Node4</title>
<g id="a_node4"><a xlink:href="class_wallet_frame.html#af5cce5026575d013cb9d6933ebe7aa98" target="_top" xlink:title="Show Sign/Verify Message dialog and switch to verify message tab. ">
<polygon fill="white" stroke="black" points="377,-0.5 377,-19.5 559,-19.5 559,-0.5 377,-0.5"/>
<text text-anchor="middle" x="468" y="-7.5" font-family="Helvetica,sans-Serif" font-size="10.00">WalletFrame::gotoVerifyMessageTab</text>
</a>
</g>
</g>
<!-- Node3&#45;&gt;Node4 -->
<g id="edge3" class="edge"><title>Node3&#45;&gt;Node4</title>
<path fill="none" stroke="midnightblue" d="M351.437,-10C359.852,-10 368.347,-10 376.709,-10"/>
<polygon fill="midnightblue" stroke="midnightblue" points="351.229,-6.5001 341.229,-10 351.228,-13.5001 351.229,-6.5001"/>
</g>
</g>
</svg>
