<?xml version="1.0" encoding="UTF-8" standalone="no"?>
<!DOCTYPE svg PUBLIC "-//W3C//DTD SVG 1.1//EN"
 "http://www.w3.org/Graphics/SVG/1.1/DTD/svg11.dtd">
<!-- Generated by graphviz version 2.38.0 (20140413.2041)
 -->
<!-- Title: CKey::Sign Pages: 1 -->
<svg width="314pt" height="47pt"
 viewBox="0.00 0.00 314.00 47.00" xmlns="http://www.w3.org/2000/svg" xmlns:xlink="http://www.w3.org/1999/xlink">
<g id="graph0" class="graph" transform="scale(1 1) rotate(0) translate(4 43)">
<title>CKey::Sign</title>
<polygon fill="white" stroke="none" points="-4,4 -4,-43 310,-43 310,4 -4,4"/>
<!-- Node1 -->
<g id="node1" class="node"><title>Node1</title>
<polygon fill="#bfbfbf" stroke="black" points="0,-0.5 0,-19.5 67,-19.5 67,-0.5 0,-0.5"/>
<text text-anchor="middle" x="33.5" y="-7.5" font-family="Helvetica,sans-Serif" font-size="10.00">CKey::Sign</text>
</g>
<!-- Node2 -->
<g id="node2" class="node"><title>Node2</title>
<g id="a_node2"><a xlink:href="script_8cpp.html#a69a9e5f9a88e729142cf556292154f2f" target="_top" xlink:title="Sign1">
<polygon fill="white" stroke="black" points="103,-0.5 103,-19.5 145,-19.5 145,-0.5 103,-0.5"/>
<text text-anchor="middle" x="124" y="-7.5" font-family="Helvetica,sans-Serif" font-size="10.00">Sign1</text>
</a>
</g>
</g>
<!-- Node1&#45;&gt;Node2 -->
<g id="edge1" class="edge"><title>Node1&#45;&gt;Node2</title>
<path fill="none" stroke="midnightblue" d="M77.4572,-10C86.2914,-10 95.1944,-10 102.756,-10"/>
<polygon fill="midnightblue" stroke="midnightblue" points="77.2027,-6.5001 67.2027,-10 77.2027,-13.5001 77.2027,-6.5001"/>
</g>
<!-- Node3 -->
<g id="node3" class="node"><title>Node3</title>
<g id="a_node3"><a xlink:href="script_8cpp.html#a2230b054e152c344e60125bf7f994473" target="_top" xlink:title="SignN">
<polygon fill="white" stroke="black" points="181,-19.5 181,-38.5 225,-38.5 225,-19.5 181,-19.5"/>
<text text-anchor="middle" x="203" y="-26.5" font-family="Helvetica,sans-Serif" font-size="10.00">SignN</text>
</a>
</g>
</g>
<!-- Node2&#45;&gt;Node3 -->
<g id="edge2" class="edge"><title>Node2&#45;&gt;Node3</title>
<path fill="none" stroke="midnightblue" d="M154.979,-17.3973C163.612,-19.5277 172.848,-21.8067 180.829,-23.776"/>
<polygon fill="midnightblue" stroke="midnightblue" points="155.778,-13.9897 145.231,-14.992 154.101,-20.7859 155.778,-13.9897"/>
</g>
<!-- Node4 -->
<g id="node4" class="node"><title>Node4</title>
<g id="a_node4"><a xlink:href="script_8cpp.html#a8e31b29d5a654a570c493f7aa9c3abd9" target="_top" xlink:title="Solver">
<polygon fill="white" stroke="black" points="261,-0.5 261,-19.5 306,-19.5 306,-0.5 261,-0.5"/>
<text text-anchor="middle" x="283.5" y="-7.5" font-family="Helvetica,sans-Serif" font-size="10.00">Solver</text>
</a>
</g>
</g>
<!-- Node2&#45;&gt;Node4 -->
<g id="edge4" class="edge"><title>Node2&#45;&gt;Node4</title>
<path fill="none" stroke="midnightblue" d="M155.471,-10C186.389,-10 233.475,-10 260.795,-10"/>
<polygon fill="midnightblue" stroke="midnightblue" points="155.268,-6.5001 145.268,-10 155.268,-13.5001 155.268,-6.5001"/>
</g>
<!-- Node3&#45;&gt;Node4 -->
<g id="edge3" class="edge"><title>Node3&#45;&gt;Node4</title>
<path fill="none" stroke="midnightblue" d="M234.868,-21.5287C243.561,-19.4247 252.83,-17.1814 260.858,-15.2382"/>
<polygon fill="midnightblue" stroke="midnightblue" points="233.933,-18.154 225.037,-23.9083 235.579,-24.9576 233.933,-18.154"/>
</g>
</g>
</svg>
