<?xml version="1.0" encoding="UTF-8" standalone="no"?>
<!DOCTYPE svg PUBLIC "-//W3C//DTD SVG 1.1//EN"
 "http://www.w3.org/Graphics/SVG/1.1/DTD/svg11.dtd">
<!-- Generated by graphviz version 2.38.0 (20140413.2041)
 -->
<!-- Title: AnoncoinGUI::~AnoncoinGUI Pages: 1 -->
<svg width="661pt" height="171pt"
 viewBox="0.00 0.00 661.00 171.00" xmlns="http://www.w3.org/2000/svg" xmlns:xlink="http://www.w3.org/1999/xlink">
<g id="graph0" class="graph" transform="scale(1 1) rotate(0) translate(4 167)">
<title>AnoncoinGUI::~AnoncoinGUI</title>
<polygon fill="white" stroke="none" points="-4,4 -4,-167 657,-167 657,4 -4,4"/>
<!-- Node1 -->
<g id="node1" class="node"><title>Node1</title>
<polygon fill="#bfbfbf" stroke="black" points="0,-72 0,-91 147,-91 147,-72 0,-72"/>
<text text-anchor="middle" x="73.5" y="-79" font-family="Helvetica,sans-Serif" font-size="10.00">AnoncoinGUI::~AnoncoinGUI</text>
</g>
<!-- Node2 -->
<g id="node2" class="node"><title>Node2</title>
<g id="a_node2"><a xlink:href="class_anoncoin_g_u_i.html#aab51e94544047ad8af57288df637080b" target="_top" xlink:title="Disconnect core signals from GUI client. ">
<polygon fill="white" stroke="black" points="193,-132.5 193,-162.5 328,-162.5 328,-132.5 193,-132.5"/>
<text text-anchor="start" x="201" y="-150.5" font-family="Helvetica,sans-Serif" font-size="10.00">AnoncoinGUI::unsubscribe</text>
<text text-anchor="middle" x="260.5" y="-139.5" font-family="Helvetica,sans-Serif" font-size="10.00">FromCoreSignals</text>
</a>
</g>
</g>
<!-- Node1&#45;&gt;Node2 -->
<g id="edge1" class="edge"><title>Node1&#45;&gt;Node2</title>
<path fill="none" stroke="midnightblue" d="M98.9457,-91.1009C120.86,-99.6206 153.94,-112.267 183,-122.5 189.375,-124.745 196.073,-127.034 202.743,-129.271"/>
<polygon fill="midnightblue" stroke="midnightblue" points="201.863,-132.666 212.456,-132.499 204.07,-126.024 201.863,-132.666"/>
</g>
<!-- Node3 -->
<g id="node3" class="node"><title>Node3</title>
<g id="a_node3"><a xlink:href="namespace_g_u_i_util.html#a5bd5d67910917446f2f3aa97d7c8b85a" target="_top" xlink:title="Save window size and position. ">
<polygon fill="white" stroke="black" points="183,-94 183,-113 338,-113 338,-94 183,-94"/>
<text text-anchor="middle" x="260.5" y="-101" font-family="Helvetica,sans-Serif" font-size="10.00">GUIUtil::saveWindowGeometry</text>
</a>
</g>
</g>
<!-- Node1&#45;&gt;Node3 -->
<g id="edge2" class="edge"><title>Node1&#45;&gt;Node3</title>
<path fill="none" stroke="midnightblue" d="M147.086,-90.1318C155.526,-91.1355 164.198,-92.1668 172.803,-93.1901"/>
<polygon fill="midnightblue" stroke="midnightblue" points="172.512,-96.6801 182.855,-94.3855 173.339,-89.729 172.512,-96.6801"/>
</g>
<!-- Node4 -->
<g id="node4" class="node"><title>Node4</title>
<g id="a_node4"><a xlink:href="class_mac_dock_icon_handler.html#afd3ef7126d0b6ef02eaf85e5455fe6f4" target="_top" xlink:title="MacDockIconHandler\l::instance">
<polygon fill="white" stroke="black" points="204.5,-44.5 204.5,-74.5 316.5,-74.5 316.5,-44.5 204.5,-44.5"/>
<text text-anchor="start" x="212.5" y="-62.5" font-family="Helvetica,sans-Serif" font-size="10.00">MacDockIconHandler</text>
<text text-anchor="middle" x="260.5" y="-51.5" font-family="Helvetica,sans-Serif" font-size="10.00">::instance</text>
</a>
</g>
</g>
<!-- Node1&#45;&gt;Node4 -->
<g id="edge3" class="edge"><title>Node1&#45;&gt;Node4</title>
<path fill="none" stroke="midnightblue" d="M147.086,-72.8682C162.549,-71.0294 178.791,-69.0979 193.971,-67.2927"/>
<polygon fill="midnightblue" stroke="midnightblue" points="194.771,-70.7223 204.288,-66.0658 193.944,-63.7712 194.771,-70.7223"/>
</g>
<!-- Node6 -->
<g id="node6" class="node"><title>Node6</title>
<g id="a_node6"><a xlink:href="class_mac_dock_icon_handler.html#a4d2d18c7d56286ea745e349497941293" target="_top" xlink:title="MacDockIconHandler\l::setMainWindow">
<polygon fill="white" stroke="black" points="534.5,-0.5 534.5,-30.5 646.5,-30.5 646.5,-0.5 534.5,-0.5"/>
<text text-anchor="start" x="542.5" y="-18.5" font-family="Helvetica,sans-Serif" font-size="10.00">MacDockIconHandler</text>
<text text-anchor="middle" x="590.5" y="-7.5" font-family="Helvetica,sans-Serif" font-size="10.00">::setMainWindow</text>
</a>
</g>
</g>
<!-- Node1&#45;&gt;Node6 -->
<g id="edge7" class="edge"><title>Node1&#45;&gt;Node6</title>
<path fill="none" stroke="midnightblue" d="M91.4971,-71.8189C112.312,-60.5199 149.003,-42.3792 183,-34.5 300.98,-7.15658 443.222,-7.91265 524.336,-11.3971"/>
<polygon fill="midnightblue" stroke="midnightblue" points="524.252,-14.8968 534.402,-11.8572 524.572,-7.90414 524.252,-14.8968"/>
</g>
<!-- Node5 -->
<g id="node5" class="node"><title>Node5</title>
<g id="a_node5"><a xlink:href="class_mac_dock_icon_handler.html#ab44913b8dabec96186b74bc6f6896c46" target="_top" xlink:title="MacDockIconHandler\l::MacDockIconHandler">
<polygon fill="white" stroke="black" points="374,-44.5 374,-74.5 492,-74.5 492,-44.5 374,-44.5"/>
<text text-anchor="start" x="382" y="-62.5" font-family="Helvetica,sans-Serif" font-size="10.00">MacDockIconHandler</text>
<text text-anchor="middle" x="433" y="-51.5" font-family="Helvetica,sans-Serif" font-size="10.00">::MacDockIconHandler</text>
</a>
</g>
</g>
<!-- Node4&#45;&gt;Node5 -->
<g id="edge4" class="edge"><title>Node4&#45;&gt;Node5</title>
<path fill="none" stroke="midnightblue" d="M316.856,-59.5C331.852,-59.5 348.261,-59.5 363.871,-59.5"/>
<polygon fill="midnightblue" stroke="midnightblue" points="363.99,-63.0001 373.99,-59.5 363.99,-56.0001 363.99,-63.0001"/>
</g>
<!-- Node5&#45;&gt;Node6 -->
<g id="edge5" class="edge"><title>Node5&#45;&gt;Node6</title>
<path fill="none" stroke="midnightblue" d="M487.079,-44.4808C499.769,-40.89 513.438,-37.0224 526.526,-33.319"/>
<polygon fill="midnightblue" stroke="midnightblue" points="527.727,-36.6167 536.396,-30.5262 525.821,-29.8812 527.727,-36.6167"/>
</g>
<!-- Node7 -->
<g id="node7" class="node"><title>Node7</title>
<g id="a_node7"><a xlink:href="macdockiconhandler_8mm.html#a97dcb4b8c1bda1b1e4a29fd1c36b6c47" target="_top" xlink:title="qt_mac_set_dock_menu">
<polygon fill="white" stroke="black" points="528,-50 528,-69 653,-69 653,-50 528,-50"/>
<text text-anchor="middle" x="590.5" y="-57" font-family="Helvetica,sans-Serif" font-size="10.00">qt_mac_set_dock_menu</text>
</a>
</g>
</g>
<!-- Node5&#45;&gt;Node7 -->
<g id="edge6" class="edge"><title>Node5&#45;&gt;Node7</title>
<path fill="none" stroke="midnightblue" d="M492.345,-59.5C500.707,-59.5 509.389,-59.5 517.969,-59.5"/>
<polygon fill="midnightblue" stroke="midnightblue" points="517.97,-63.0001 527.97,-59.5 517.97,-56.0001 517.97,-63.0001"/>
</g>
</g>
</svg>
