<?xml version="1.0" encoding="UTF-8" standalone="no"?>
<!DOCTYPE svg PUBLIC "-//W3C//DTD SVG 1.1//EN"
 "http://www.w3.org/Graphics/SVG/1.1/DTD/svg11.dtd">
<!-- Generated by graphviz version 2.38.0 (20140413.2041)
 -->
<!-- Title: SendCoinsDialog::clear Pages: 1 -->
<svg width="459pt" height="121pt"
 viewBox="0.00 0.00 459.00 121.00" xmlns="http://www.w3.org/2000/svg" xmlns:xlink="http://www.w3.org/1999/xlink">
<g id="graph0" class="graph" transform="scale(1 1) rotate(0) translate(4 117)">
<title>SendCoinsDialog::clear</title>
<polygon fill="white" stroke="none" points="-4,4 -4,-117 455,-117 455,4 -4,4"/>
<!-- Node1 -->
<g id="node1" class="node"><title>Node1</title>
<polygon fill="#bfbfbf" stroke="black" points="0,-44 0,-63 121,-63 121,-44 0,-44"/>
<text text-anchor="middle" x="60.5" y="-51" font-family="Helvetica,sans-Serif" font-size="10.00">SendCoinsDialog::clear</text>
</g>
<!-- Node2 -->
<g id="node2" class="node"><title>Node2</title>
<g id="a_node2"><a xlink:href="class_send_coins_dialog.html#a0df5bc29d1df68eda44826651afc595f" target="_top" xlink:title="SendCoinsDialog::SendCoins\lDialog">
<polygon fill="white" stroke="black" points="157,-82.5 157,-112.5 305,-112.5 305,-82.5 157,-82.5"/>
<text text-anchor="start" x="165" y="-100.5" font-family="Helvetica,sans-Serif" font-size="10.00">SendCoinsDialog::SendCoins</text>
<text text-anchor="middle" x="231" y="-89.5" font-family="Helvetica,sans-Serif" font-size="10.00">Dialog</text>
</a>
</g>
</g>
<!-- Node1&#45;&gt;Node2 -->
<g id="edge1" class="edge"><title>Node1&#45;&gt;Node2</title>
<path fill="none" stroke="midnightblue" d="M107.827,-65.5974C127.756,-70.8013 151.263,-76.9395 172.307,-82.4346"/>
<polygon fill="midnightblue" stroke="midnightblue" points="108.622,-62.1875 98.062,-63.0473 106.853,-68.9604 108.622,-62.1875"/>
</g>
<!-- Node3 -->
<g id="node3" class="node"><title>Node3</title>
<g id="a_node3"><a xlink:href="class_send_coins_dialog.html#a4879553d77d29f522ac92ac04580f4ad" target="_top" xlink:title="SendCoinsDialog::reject">
<polygon fill="white" stroke="black" points="169,-44 169,-63 293,-63 293,-44 169,-44"/>
<text text-anchor="middle" x="231" y="-51" font-family="Helvetica,sans-Serif" font-size="10.00">SendCoinsDialog::reject</text>
</a>
</g>
</g>
<!-- Node1&#45;&gt;Node3 -->
<g id="edge2" class="edge"><title>Node1&#45;&gt;Node3</title>
<path fill="none" stroke="midnightblue" d="M131.646,-53.5C144.013,-53.5 156.796,-53.5 168.89,-53.5"/>
<polygon fill="midnightblue" stroke="midnightblue" points="131.381,-50.0001 121.381,-53.5 131.381,-57.0001 131.381,-50.0001"/>
</g>
<!-- Node4 -->
<g id="node4" class="node"><title>Node4</title>
<g id="a_node4"><a xlink:href="class_send_coins_dialog.html#af2185c3d29e43d37c30669f0def46060" target="_top" xlink:title="SendCoinsDialog::accept">
<polygon fill="white" stroke="black" points="166.5,-6 166.5,-25 295.5,-25 295.5,-6 166.5,-6"/>
<text text-anchor="middle" x="231" y="-13" font-family="Helvetica,sans-Serif" font-size="10.00">SendCoinsDialog::accept</text>
</a>
</g>
</g>
<!-- Node1&#45;&gt;Node4 -->
<g id="edge3" class="edge"><title>Node1&#45;&gt;Node4</title>
<path fill="none" stroke="midnightblue" d="M113.931,-41.6757C137.687,-36.3184 165.399,-30.0689 187.786,-25.0201"/>
<polygon fill="midnightblue" stroke="midnightblue" points="113.005,-38.2967 104.02,-43.911 114.545,-45.1252 113.005,-38.2967"/>
</g>
<!-- Node5 -->
<g id="node5" class="node"><title>Node5</title>
<g id="a_node5"><a xlink:href="class_send_coins_dialog.html#a2cab7cf9ea5040b9e2189297f7d3c764" target="_top" xlink:title="SendCoinsDialog::on\l_sendButton_clicked">
<polygon fill="white" stroke="black" points="341,-0.5 341,-30.5 451,-30.5 451,-0.5 341,-0.5"/>
<text text-anchor="start" x="349" y="-18.5" font-family="Helvetica,sans-Serif" font-size="10.00">SendCoinsDialog::on</text>
<text text-anchor="middle" x="396" y="-7.5" font-family="Helvetica,sans-Serif" font-size="10.00">_sendButton_clicked</text>
</a>
</g>
</g>
<!-- Node4&#45;&gt;Node5 -->
<g id="edge4" class="edge"><title>Node4&#45;&gt;Node5</title>
<path fill="none" stroke="midnightblue" d="M306.18,-15.5C317.903,-15.5 329.831,-15.5 340.981,-15.5"/>
<polygon fill="midnightblue" stroke="midnightblue" points="305.954,-12.0001 295.954,-15.5 305.954,-19.0001 305.954,-12.0001"/>
</g>
</g>
</svg>
