<?xml version="1.0" encoding="UTF-8" standalone="no"?>
<!DOCTYPE svg PUBLIC "-//W3C//DTD SVG 1.1//EN"
 "http://www.w3.org/Graphics/SVG/1.1/DTD/svg11.dtd">
<!-- Generated by graphviz version 2.38.0 (20140413.2041)
 -->
<!-- Title: CBlockTreeDB::LoadBlockIndexGuts Pages: 1 -->
<svg width="694pt" height="199pt"
 viewBox="0.00 0.00 694.00 199.00" xmlns="http://www.w3.org/2000/svg" xmlns:xlink="http://www.w3.org/1999/xlink">
<g id="graph0" class="graph" transform="scale(1 1) rotate(0) translate(4 195)">
<title>CBlockTreeDB::LoadBlockIndexGuts</title>
<polygon fill="white" stroke="none" points="-4,4 -4,-195 690,-195 690,4 -4,4"/>
<!-- Node1 -->
<g id="node1" class="node"><title>Node1</title>
<polygon fill="#bfbfbf" stroke="black" points="0,-95.5 0,-114.5 180,-114.5 180,-95.5 0,-95.5"/>
<text text-anchor="middle" x="90" y="-102.5" font-family="Helvetica,sans-Serif" font-size="10.00">CBlockTreeDB::LoadBlockIndexGuts</text>
</g>
<!-- Node2 -->
<g id="node2" class="node"><title>Node2</title>
<g id="a_node2"><a xlink:href="class_c_level_d_b_wrapper.html#a5f43d01a8a6b26464b875d190e002d74" target="_top" xlink:title="CLevelDBWrapper::NewIterator">
<polygon fill="white" stroke="black" points="216,-171.5 216,-190.5 373,-190.5 373,-171.5 216,-171.5"/>
<text text-anchor="middle" x="294.5" y="-178.5" font-family="Helvetica,sans-Serif" font-size="10.00">CLevelDBWrapper::NewIterator</text>
</a>
</g>
</g>
<!-- Node1&#45;&gt;Node2 -->
<g id="edge1" class="edge"><title>Node1&#45;&gt;Node2</title>
<path fill="none" stroke="midnightblue" d="M109.191,-114.609C133.137,-126.949 176.794,-148.39 216,-162 223.27,-164.524 231.033,-166.847 238.734,-168.937"/>
<polygon fill="midnightblue" stroke="midnightblue" points="237.854,-172.325 248.413,-171.459 239.619,-165.551 237.854,-172.325"/>
</g>
<!-- Node3 -->
<g id="node3" class="node"><title>Node3</title>
<g id="a_node3"><a xlink:href="class_c_data_stream.html#aa3a9ecf166f36f4ea531d2b23628d2c9" target="_top" xlink:title="CDataStream::str">
<polygon fill="white" stroke="black" points="247.5,-133.5 247.5,-152.5 341.5,-152.5 341.5,-133.5 247.5,-133.5"/>
<text text-anchor="middle" x="294.5" y="-140.5" font-family="Helvetica,sans-Serif" font-size="10.00">CDataStream::str</text>
</a>
</g>
</g>
<!-- Node1&#45;&gt;Node3 -->
<g id="edge2" class="edge"><title>Node1&#45;&gt;Node3</title>
<path fill="none" stroke="midnightblue" d="M141.838,-114.54C170.994,-120.011 207.639,-126.888 237.603,-132.511"/>
<polygon fill="midnightblue" stroke="midnightblue" points="237.015,-135.961 247.489,-134.366 238.306,-129.081 237.015,-135.961"/>
</g>
<!-- Node6 -->
<g id="node6" class="node"><title>Node6</title>
<g id="a_node6"><a xlink:href="main_8cpp.html#af3adfd64a90ee443bfa5fe16321aa2d7" target="_top" xlink:title="Create a new block index entry for a given block hash. ">
<polygon fill="white" stroke="black" points="249.5,-95.5 249.5,-114.5 339.5,-114.5 339.5,-95.5 249.5,-95.5"/>
<text text-anchor="middle" x="294.5" y="-102.5" font-family="Helvetica,sans-Serif" font-size="10.00">InsertBlockIndex</text>
</a>
</g>
</g>
<!-- Node1&#45;&gt;Node6 -->
<g id="edge5" class="edge"><title>Node1&#45;&gt;Node6</title>
<path fill="none" stroke="midnightblue" d="M180.114,-105C200.254,-105 221.044,-105 239.235,-105"/>
<polygon fill="midnightblue" stroke="midnightblue" points="239.335,-108.5 249.335,-105 239.335,-101.5 239.335,-108.5"/>
</g>
<!-- Node7 -->
<g id="node7" class="node"><title>Node7</title>
<g id="a_node7"><a xlink:href="class_c_block_index.html#a32c6c256b6e30b4a20dc6faa9cac7ea5" target="_top" xlink:title="CBlockIndex::CheckIndex">
<polygon fill="white" stroke="black" points="229,-57.5 229,-76.5 360,-76.5 360,-57.5 229,-57.5"/>
<text text-anchor="middle" x="294.5" y="-64.5" font-family="Helvetica,sans-Serif" font-size="10.00">CBlockIndex::CheckIndex</text>
</a>
</g>
</g>
<!-- Node1&#45;&gt;Node7 -->
<g id="edge6" class="edge"><title>Node1&#45;&gt;Node7</title>
<path fill="none" stroke="midnightblue" d="M141.838,-95.46C169.4,-90.2878 203.655,-83.8599 232.631,-78.4222"/>
<polygon fill="midnightblue" stroke="midnightblue" points="233.458,-81.8283 242.641,-76.5439 232.167,-74.9484 233.458,-81.8283"/>
</g>
<!-- Node8 -->
<g id="node8" class="node"><title>Node8</title>
<g id="a_node8"><a xlink:href="class_c_block_index.html#abed1fcbcd372db6b9efa6bb9da317469" target="_top" xlink:title="CBlockIndex::ToString">
<polygon fill="white" stroke="black" points="236.5,-19.5 236.5,-38.5 352.5,-38.5 352.5,-19.5 236.5,-19.5"/>
<text text-anchor="middle" x="294.5" y="-26.5" font-family="Helvetica,sans-Serif" font-size="10.00">CBlockIndex::ToString</text>
</a>
</g>
</g>
<!-- Node1&#45;&gt;Node8 -->
<g id="edge7" class="edge"><title>Node1&#45;&gt;Node8</title>
<path fill="none" stroke="midnightblue" d="M109.191,-95.391C133.137,-83.0515 176.794,-61.61 216,-48 223.27,-45.4764 231.033,-43.1535 238.734,-41.0629"/>
<polygon fill="midnightblue" stroke="midnightblue" points="239.619,-44.4494 248.413,-38.5414 237.854,-37.6754 239.619,-44.4494"/>
</g>
<!-- Node4 -->
<g id="node4" class="node"><title>Node4</title>
<g id="a_node4"><a xlink:href="class_c_data_stream.html#a5b9e70188c662f4e9496066472af213e" target="_top" xlink:title="CDataStream::begin">
<polygon fill="white" stroke="black" points="426.5,-152.5 426.5,-171.5 533.5,-171.5 533.5,-152.5 426.5,-152.5"/>
<text text-anchor="middle" x="480" y="-159.5" font-family="Helvetica,sans-Serif" font-size="10.00">CDataStream::begin</text>
</a>
</g>
</g>
<!-- Node3&#45;&gt;Node4 -->
<g id="edge3" class="edge"><title>Node3&#45;&gt;Node4</title>
<path fill="none" stroke="midnightblue" d="M341.805,-147.795C364.287,-150.122 391.639,-152.954 415.988,-155.476"/>
<polygon fill="midnightblue" stroke="midnightblue" points="415.909,-158.986 426.217,-156.535 416.63,-152.023 415.909,-158.986"/>
</g>
<!-- Node5 -->
<g id="node5" class="node"><title>Node5</title>
<g id="a_node5"><a xlink:href="class_c_data_stream.html#a1c22182691412ed9e0a30b719d388f31" target="_top" xlink:title="CDataStream::end">
<polygon fill="white" stroke="black" points="430.5,-114.5 430.5,-133.5 529.5,-133.5 529.5,-114.5 430.5,-114.5"/>
<text text-anchor="middle" x="480" y="-121.5" font-family="Helvetica,sans-Serif" font-size="10.00">CDataStream::end</text>
</a>
</g>
</g>
<!-- Node3&#45;&gt;Node5 -->
<g id="edge4" class="edge"><title>Node3&#45;&gt;Node5</title>
<path fill="none" stroke="midnightblue" d="M341.805,-138.205C365.6,-135.742 394.852,-132.713 420.223,-130.086"/>
<polygon fill="midnightblue" stroke="midnightblue" points="420.879,-133.537 430.465,-129.025 420.158,-126.574 420.879,-133.537"/>
</g>
<!-- Node9 -->
<g id="node9" class="node"><title>Node9</title>
<g id="a_node9"><a xlink:href="classbase__uint.html#ac3080a72402cadf28dbc9f9b69cc60be" target="_top" xlink:title="base_uint::ToString">
<polygon fill="white" stroke="black" points="428.5,-38.5 428.5,-57.5 531.5,-57.5 531.5,-38.5 428.5,-38.5"/>
<text text-anchor="middle" x="480" y="-45.5" font-family="Helvetica,sans-Serif" font-size="10.00">base_uint::ToString</text>
</a>
</g>
</g>
<!-- Node8&#45;&gt;Node9 -->
<g id="edge8" class="edge"><title>Node8&#45;&gt;Node9</title>
<path fill="none" stroke="midnightblue" d="M352.555,-34.9076C373.35,-37.0607 396.934,-39.5027 418.054,-41.6895"/>
<polygon fill="midnightblue" stroke="midnightblue" points="417.894,-45.1915 428.201,-42.7402 418.615,-38.2288 417.894,-45.1915"/>
</g>
<!-- Node11 -->
<g id="node11" class="node"><title>Node11</title>
<g id="a_node11"><a xlink:href="class_c_block_index.html#ab843ef9b8b0a0193ec3a5c24738e484f" target="_top" xlink:title="CBlockIndex::GetBlockHash">
<polygon fill="white" stroke="black" points="409,-0.5 409,-19.5 551,-19.5 551,-0.5 409,-0.5"/>
<text text-anchor="middle" x="480" y="-7.5" font-family="Helvetica,sans-Serif" font-size="10.00">CBlockIndex::GetBlockHash</text>
</a>
</g>
</g>
<!-- Node8&#45;&gt;Node11 -->
<g id="edge10" class="edge"><title>Node8&#45;&gt;Node11</title>
<path fill="none" stroke="midnightblue" d="M352.555,-23.0924C367.14,-21.5822 383.097,-19.93 398.614,-18.3233"/>
<polygon fill="midnightblue" stroke="midnightblue" points="399.142,-21.7875 408.728,-17.2761 398.421,-14.8247 399.142,-21.7875"/>
</g>
<!-- Node10 -->
<g id="node10" class="node"><title>Node10</title>
<g id="a_node10"><a xlink:href="classbase__uint.html#ac9929c28600796a9acf75881bb750576" target="_top" xlink:title="base_uint::GetHex">
<polygon fill="white" stroke="black" points="587,-38.5 587,-57.5 686,-57.5 686,-38.5 587,-38.5"/>
<text text-anchor="middle" x="636.5" y="-45.5" font-family="Helvetica,sans-Serif" font-size="10.00">base_uint::GetHex</text>
</a>
</g>
</g>
<!-- Node9&#45;&gt;Node10 -->
<g id="edge9" class="edge"><title>Node9&#45;&gt;Node10</title>
<path fill="none" stroke="midnightblue" d="M531.589,-48C546.033,-48 561.894,-48 576.78,-48"/>
<polygon fill="midnightblue" stroke="midnightblue" points="576.9,-51.5001 586.9,-48 576.9,-44.5001 576.9,-51.5001"/>
</g>
</g>
</svg>
