<?xml version="1.0" encoding="UTF-8" standalone="no"?>
<!DOCTYPE svg PUBLIC "-//W3C//DTD SVG 1.1//EN"
 "http://www.w3.org/Graphics/SVG/1.1/DTD/svg11.dtd">
<!-- Generated by graphviz version 2.38.0 (20140413.2041)
 -->
<!-- Title: payments::Output::SharedCtor Pages: 1 -->
<svg width="484pt" height="28pt"
 viewBox="0.00 0.00 484.00 28.00" xmlns="http://www.w3.org/2000/svg" xmlns:xlink="http://www.w3.org/1999/xlink">
<g id="graph0" class="graph" transform="scale(1 1) rotate(0) translate(4 24)">
<title>payments::Output::SharedCtor</title>
<polygon fill="white" stroke="none" points="-4,4 -4,-24 480,-24 480,4 -4,4"/>
<!-- Node1 -->
<g id="node1" class="node"><title>Node1</title>
<polygon fill="#bfbfbf" stroke="black" points="0,-0.5 0,-19.5 152,-19.5 152,-0.5 0,-0.5"/>
<text text-anchor="middle" x="76" y="-7.5" font-family="Helvetica,sans-Serif" font-size="10.00">payments::Output::SharedCtor</text>
</g>
<!-- Node2 -->
<g id="node2" class="node"><title>Node2</title>
<g id="a_node2"><a xlink:href="classpayments_1_1_output.html#afcd992665c55581a059a0f7bb9522ddc" target="_top" xlink:title="payments::Output::Output">
<polygon fill="white" stroke="black" points="188,-0.5 188,-19.5 319,-19.5 319,-0.5 188,-0.5"/>
<text text-anchor="middle" x="253.5" y="-7.5" font-family="Helvetica,sans-Serif" font-size="10.00">payments::Output::Output</text>
</a>
</g>
</g>
<!-- Node1&#45;&gt;Node2 -->
<g id="edge1" class="edge"><title>Node1&#45;&gt;Node2</title>
<path fill="none" stroke="midnightblue" d="M162.294,-10C170.929,-10 179.596,-10 187.96,-10"/>
<polygon fill="midnightblue" stroke="midnightblue" points="162.192,-6.5001 152.192,-10 162.192,-13.5001 162.192,-6.5001"/>
</g>
<!-- Node3 -->
<g id="node3" class="node"><title>Node3</title>
<g id="a_node3"><a xlink:href="classpayments_1_1_output.html#aadc243ae6b40b9f3902e061a41d00e42" target="_top" xlink:title="payments::Output::New">
<polygon fill="white" stroke="black" points="355,-0.5 355,-19.5 476,-19.5 476,-0.5 355,-0.5"/>
<text text-anchor="middle" x="415.5" y="-7.5" font-family="Helvetica,sans-Serif" font-size="10.00">payments::Output::New</text>
</a>
</g>
</g>
<!-- Node2&#45;&gt;Node3 -->
<g id="edge2" class="edge"><title>Node2&#45;&gt;Node3</title>
<path fill="none" stroke="midnightblue" d="M329.155,-10C337.759,-10 346.446,-10 354.815,-10"/>
<polygon fill="midnightblue" stroke="midnightblue" points="329.117,-6.5001 319.117,-10 329.117,-13.5001 329.117,-6.5001"/>
</g>
</g>
</svg>
