<?xml version="1.0" encoding="UTF-8" standalone="no"?>
<!DOCTYPE svg PUBLIC "-//W3C//DTD SVG 1.1//EN"
 "http://www.w3.org/Graphics/SVG/1.1/DTD/svg11.dtd">
<!-- Generated by graphviz version 2.38.0 (20140413.2041)
 -->
<!-- Title: payments::Output Pages: 1 -->
<svg width="203pt" height="85pt"
 viewBox="0.00 0.00 203.00 85.00" xmlns="http://www.w3.org/2000/svg" xmlns:xlink="http://www.w3.org/1999/xlink">
<g id="graph0" class="graph" transform="scale(1 1) rotate(0) translate(4 81)">
<title>payments::Output</title>
<polygon fill="white" stroke="none" points="-4,4 -4,-81 199,-81 199,4 -4,4"/>
<!-- Node1 -->
<g id="node1" class="node"><title>Node1</title>
<polygon fill="#bfbfbf" stroke="black" points="0,-0.5 0,-19.5 95,-19.5 95,-0.5 0,-0.5"/>
<text text-anchor="middle" x="47.5" y="-7.5" font-family="Helvetica,sans-Serif" font-size="10.00">payments::Output</text>
</g>
<!-- Node1&#45;&gt;Node1 -->
<g id="edge2" class="edge"><title>Node1&#45;&gt;Node1</title>
<path fill="none" stroke="#9a32cd" stroke-dasharray="5,2" d="M105.362,-14.0282C110.076,-13.1542 113,-11.8115 113,-10 113,-7.10156 105.513,-5.40326 95.1902,-4.90509"/>
<polygon fill="#9a32cd" stroke="#9a32cd" points="104.771,-10.5709 95.1902,-15.0949 105.501,-17.5327 104.771,-10.5709"/>
<text text-anchor="middle" x="154" y="-7.5" font-family="Helvetica,sans-Serif" font-size="10.00"> default_instance_</text>
</g>
<!-- Node2 -->
<g id="node2" class="node"><title>Node2</title>
<polygon fill="white" stroke="#bfbfbf" points="19,-57.5 19,-76.5 76,-76.5 76,-57.5 19,-57.5"/>
<text text-anchor="middle" x="47.5" y="-64.5" font-family="Helvetica,sans-Serif" font-size="10.00">Message</text>
</g>
<!-- Node2&#45;&gt;Node1 -->
<g id="edge1" class="edge"><title>Node2&#45;&gt;Node1</title>
<path fill="none" stroke="midnightblue" d="M47.5,-47.1166C47.5,-37.8173 47.5,-27.0557 47.5,-19.7149"/>
<polygon fill="midnightblue" stroke="midnightblue" points="44.0001,-47.4062 47.5,-57.4062 51.0001,-47.4063 44.0001,-47.4062"/>
</g>
</g>
</svg>
