<?xml version="1.0" encoding="UTF-8" standalone="no"?>
<!DOCTYPE svg PUBLIC "-//W3C//DTD SVG 1.1//EN"
 "http://www.w3.org/Graphics/SVG/1.1/DTD/svg11.dtd">
<!-- Generated by graphviz version 2.38.0 (20140413.2041)
 -->
<!-- Title: CChainParams Pages: 1 -->
<svg width="226pt" height="152pt"
 viewBox="0.00 0.00 225.50 152.00" xmlns="http://www.w3.org/2000/svg" xmlns:xlink="http://www.w3.org/1999/xlink">
<g id="graph0" class="graph" transform="scale(1 1) rotate(0) translate(4 148)">
<title>CChainParams</title>
<polygon fill="white" stroke="none" points="-4,4 -4,-148 221.5,-148 221.5,4 -4,4"/>
<!-- Node1 -->
<g id="node1" class="node"><title>Node1</title>
<polygon fill="#bfbfbf" stroke="black" points="45.5,-0.5 45.5,-19.5 129.5,-19.5 129.5,-0.5 45.5,-0.5"/>
<text text-anchor="middle" x="87.5" y="-7.5" font-family="Helvetica,sans-Serif" font-size="10.00">CChainParams</text>
</g>
<!-- Node2 -->
<g id="node2" class="node"><title>Node2</title>
<g id="a_node2"><a xlink:href="class_c_big_num.html" target="_top" xlink:title="C++ wrapper for BIGNUM (OpenSSL bignum) ">
<polygon fill="white" stroke="black" points="0,-67.5 0,-86.5 59,-86.5 59,-67.5 0,-67.5"/>
<text text-anchor="middle" x="29.5" y="-74.5" font-family="Helvetica,sans-Serif" font-size="10.00">CBigNum</text>
</a>
</g>
</g>
<!-- Node2&#45;&gt;Node1 -->
<g id="edge1" class="edge"><title>Node2&#45;&gt;Node1</title>
<path fill="none" stroke="#9a32cd" stroke-dasharray="5,2" d="M26.1561,-57.2622C25.9348,-50.7088 26.854,-43.5971 30.5,-38 36.0583,-29.4673 45.1006,-23.5709 54.3621,-19.5214"/>
<polygon fill="#9a32cd" stroke="#9a32cd" points="22.7024,-57.8654 27.3253,-67.3985 29.6563,-57.0633 22.7024,-57.8654"/>
<text text-anchor="middle" x="77" y="-41" font-family="Helvetica,sans-Serif" font-size="10.00"> bnProofOfWorkLimit</text>
</g>
<!-- Node3 -->
<g id="node3" class="node"><title>Node3</title>
<polygon fill="white" stroke="#bfbfbf" points="1.5,-124.5 1.5,-143.5 57.5,-143.5 57.5,-124.5 1.5,-124.5"/>
<text text-anchor="middle" x="29.5" y="-131.5" font-family="Helvetica,sans-Serif" font-size="10.00">BIGNUM</text>
</g>
<!-- Node3&#45;&gt;Node2 -->
<g id="edge2" class="edge"><title>Node3&#45;&gt;Node2</title>
<path fill="none" stroke="midnightblue" d="M29.5,-114.117C29.5,-104.817 29.5,-94.0557 29.5,-86.7149"/>
<polygon fill="midnightblue" stroke="midnightblue" points="26.0001,-114.406 29.5,-124.406 33.0001,-114.406 26.0001,-114.406"/>
</g>
<!-- Node4 -->
<g id="node4" class="node"><title>Node4</title>
<g id="a_node4"><a xlink:href="classuint256.html" target="_top" xlink:title="256&#45;bit unsigned integer ">
<polygon fill="white" stroke="black" points="121,-67.5 121,-86.5 170,-86.5 170,-67.5 121,-67.5"/>
<text text-anchor="middle" x="145.5" y="-74.5" font-family="Helvetica,sans-Serif" font-size="10.00">uint256</text>
</a>
</g>
</g>
<!-- Node4&#45;&gt;Node1 -->
<g id="edge3" class="edge"><title>Node4&#45;&gt;Node1</title>
<path fill="none" stroke="#9a32cd" stroke-dasharray="5,2" d="M137.094,-58.1454C133.453,-51.4272 128.805,-43.9749 123.5,-38 117.172,-30.8725 108.699,-24.4064 101.563,-19.59"/>
<polygon fill="#9a32cd" stroke="#9a32cd" points="134.036,-59.8547 141.666,-67.2058 140.286,-56.7012 134.036,-59.8547"/>
<text text-anchor="middle" x="174.5" y="-41" font-family="Helvetica,sans-Serif" font-size="10.00"> hashGenesisBlock</text>
</g>
<!-- Node5 -->
<g id="node5" class="node"><title>Node5</title>
<g id="a_node5"><a xlink:href="classbase__uint.html" target="_top" xlink:title="Base class without constructors for uint256 and uint160. ">
<polygon fill="white" stroke="black" points="107,-124.5 107,-143.5 184,-143.5 184,-124.5 107,-124.5"/>
<text text-anchor="middle" x="145.5" y="-131.5" font-family="Helvetica,sans-Serif" font-size="10.00">base_uint256</text>
</a>
</g>
</g>
<!-- Node5&#45;&gt;Node4 -->
<g id="edge4" class="edge"><title>Node5&#45;&gt;Node4</title>
<path fill="none" stroke="midnightblue" d="M145.5,-114.117C145.5,-104.817 145.5,-94.0557 145.5,-86.7149"/>
<polygon fill="midnightblue" stroke="midnightblue" points="142,-114.406 145.5,-124.406 149,-114.406 142,-114.406"/>
</g>
</g>
</svg>
