<?xml version="1.0" encoding="UTF-8" standalone="no"?>
<!DOCTYPE svg PUBLIC "-//W3C//DTD SVG 1.1//EN"
 "http://www.w3.org/Graphics/SVG/1.1/DTD/svg11.dtd">
<!-- Generated by graphviz version 2.38.0 (20140413.2041)
 -->
<!-- Title: SendCoinsEntry::SendCoinsEntry Pages: 1 -->
<svg width="522pt" height="127pt"
 viewBox="0.00 0.00 522.00 127.00" xmlns="http://www.w3.org/2000/svg" xmlns:xlink="http://www.w3.org/1999/xlink">
<g id="graph0" class="graph" transform="scale(1 1) rotate(0) translate(4 123)">
<title>SendCoinsEntry::SendCoinsEntry</title>
<polygon fill="white" stroke="none" points="-4,4 -4,-123 518,-123 518,4 -4,4"/>
<!-- Node1 -->
<g id="node1" class="node"><title>Node1</title>
<polygon fill="#bfbfbf" stroke="black" points="0,-44.5 0,-74.5 143,-74.5 143,-44.5 0,-44.5"/>
<text text-anchor="start" x="8" y="-62.5" font-family="Helvetica,sans-Serif" font-size="10.00">SendCoinsEntry::SendCoins</text>
<text text-anchor="middle" x="71.5" y="-51.5" font-family="Helvetica,sans-Serif" font-size="10.00">Entry</text>
</g>
<!-- Node2 -->
<g id="node2" class="node"><title>Node2</title>
<g id="a_node2"><a xlink:href="class_ui___send_coins_entry.html#a95119ab3cfd1ffa2f9ace382c097b148" target="_top" xlink:title="Ui_SendCoinsEntry::\lsetupUi">
<polygon fill="white" stroke="black" points="198,-88.5 198,-118.5 307,-118.5 307,-88.5 198,-88.5"/>
<text text-anchor="start" x="206" y="-106.5" font-family="Helvetica,sans-Serif" font-size="10.00">Ui_SendCoinsEntry::</text>
<text text-anchor="middle" x="252.5" y="-95.5" font-family="Helvetica,sans-Serif" font-size="10.00">setupUi</text>
</a>
</g>
</g>
<!-- Node1&#45;&gt;Node2 -->
<g id="edge1" class="edge"><title>Node1&#45;&gt;Node2</title>
<path fill="none" stroke="midnightblue" d="M133.601,-74.5192C151.042,-78.8063 170.087,-83.4879 187.685,-87.8137"/>
<polygon fill="midnightblue" stroke="midnightblue" points="187.31,-91.3256 197.857,-90.3139 188.981,-84.528 187.31,-91.3256"/>
</g>
<!-- Node4 -->
<g id="node4" class="node"><title>Node4</title>
<g id="a_node4"><a xlink:href="namespace_g_u_i_util.html#aeb3b902c0536bdb9c2def3d3e465aeba" target="_top" xlink:title="GUIUtil::setupAddressWidget">
<polygon fill="white" stroke="black" points="179,-12 179,-31 326,-31 326,-12 179,-12"/>
<text text-anchor="middle" x="252.5" y="-19" font-family="Helvetica,sans-Serif" font-size="10.00">GUIUtil::setupAddressWidget</text>
</a>
</g>
</g>
<!-- Node1&#45;&gt;Node4 -->
<g id="edge3" class="edge"><title>Node1&#45;&gt;Node4</title>
<path fill="none" stroke="midnightblue" d="M143.246,-44.4814C160.968,-40.719 179.718,-36.7386 196.544,-33.1666"/>
<polygon fill="midnightblue" stroke="midnightblue" points="197.69,-36.5013 206.746,-31.0009 196.237,-29.6539 197.69,-36.5013"/>
</g>
<!-- Node5 -->
<g id="node5" class="node"><title>Node5</title>
<g id="a_node5"><a xlink:href="namespace_g_u_i_util.html#ad284d2b3b4732d897cf6f1d751065e98" target="_top" xlink:title="GUIUtil::anoncoinAddressFont">
<polygon fill="white" stroke="black" points="362,-50 362,-69 514,-69 514,-50 362,-50"/>
<text text-anchor="middle" x="438" y="-57" font-family="Helvetica,sans-Serif" font-size="10.00">GUIUtil::anoncoinAddressFont</text>
</a>
</g>
</g>
<!-- Node1&#45;&gt;Node5 -->
<g id="edge6" class="edge"><title>Node1&#45;&gt;Node5</title>
<path fill="none" stroke="midnightblue" d="M143.211,-59.5C202.731,-59.5 288.039,-59.5 351.409,-59.5"/>
<polygon fill="midnightblue" stroke="midnightblue" points="351.78,-63.0001 361.78,-59.5 351.78,-56.0001 351.78,-63.0001"/>
</g>
<!-- Node3 -->
<g id="node3" class="node"><title>Node3</title>
<g id="a_node3"><a xlink:href="class_ui___send_coins_entry.html#af5d88f657872c78e3f4a88375e9f0428" target="_top" xlink:title="Ui_SendCoinsEntry::\lretranslateUi">
<polygon fill="white" stroke="black" points="383.5,-88.5 383.5,-118.5 492.5,-118.5 492.5,-88.5 383.5,-88.5"/>
<text text-anchor="start" x="391.5" y="-106.5" font-family="Helvetica,sans-Serif" font-size="10.00">Ui_SendCoinsEntry::</text>
<text text-anchor="middle" x="438" y="-95.5" font-family="Helvetica,sans-Serif" font-size="10.00">retranslateUi</text>
</a>
</g>
</g>
<!-- Node2&#45;&gt;Node3 -->
<g id="edge2" class="edge"><title>Node2&#45;&gt;Node3</title>
<path fill="none" stroke="midnightblue" d="M307.069,-103.5C327.799,-103.5 351.695,-103.5 373.296,-103.5"/>
<polygon fill="midnightblue" stroke="midnightblue" points="373.364,-107 383.364,-103.5 373.364,-100 373.364,-107"/>
</g>
<!-- Node4&#45;&gt;Node5 -->
<g id="edge4" class="edge"><title>Node4&#45;&gt;Node5</title>
<path fill="none" stroke="midnightblue" d="M299.805,-31.089C324.456,-36.1939 354.963,-42.5113 380.945,-47.8918"/>
<polygon fill="midnightblue" stroke="midnightblue" points="380.526,-51.3793 391.028,-49.9799 381.946,-44.5248 380.526,-51.3793"/>
</g>
<!-- Node6 -->
<g id="node6" class="node"><title>Node6</title>
<g id="a_node6"><a xlink:href="class_q_validated_line_edit.html#af365be1760e17fd1ea6b430fa6005bd2" target="_top" xlink:title="QValidatedLineEdit\l::setCheckValidator">
<polygon fill="white" stroke="black" points="386.5,-0.5 386.5,-30.5 489.5,-30.5 489.5,-0.5 386.5,-0.5"/>
<text text-anchor="start" x="394.5" y="-18.5" font-family="Helvetica,sans-Serif" font-size="10.00">QValidatedLineEdit</text>
<text text-anchor="middle" x="438" y="-7.5" font-family="Helvetica,sans-Serif" font-size="10.00">::setCheckValidator</text>
</a>
</g>
</g>
<!-- Node4&#45;&gt;Node6 -->
<g id="edge5" class="edge"><title>Node4&#45;&gt;Node6</title>
<path fill="none" stroke="midnightblue" d="M326.024,-19.1286C342.624,-18.5859 360.103,-18.0143 376.153,-17.4895"/>
<polygon fill="midnightblue" stroke="midnightblue" points="376.591,-20.9772 386.471,-17.1522 376.362,-13.9809 376.591,-20.9772"/>
</g>
</g>
</svg>
