<?xml version="1.0" encoding="UTF-8" standalone="no"?>
<!DOCTYPE svg PUBLIC "-//W3C//DTD SVG 1.1//EN"
 "http://www.w3.org/Graphics/SVG/1.1/DTD/svg11.dtd">
<!-- Generated by graphviz version 2.38.0 (20140413.2041)
 -->
<!-- Title: CSVModelWriter::setModel Pages: 1 -->
<svg width="338pt" height="78pt"
 viewBox="0.00 0.00 338.00 77.50" xmlns="http://www.w3.org/2000/svg" xmlns:xlink="http://www.w3.org/1999/xlink">
<g id="graph0" class="graph" transform="scale(1 1) rotate(0) translate(4 73.5)">
<title>CSVModelWriter::setModel</title>
<polygon fill="white" stroke="none" points="-4,4 -4,-73.5 334,-73.5 334,4 -4,4"/>
<!-- Node1 -->
<g id="node1" class="node"><title>Node1</title>
<polygon fill="#bfbfbf" stroke="black" points="0,-22.5 0,-41.5 137,-41.5 137,-22.5 0,-22.5"/>
<text text-anchor="middle" x="68.5" y="-29.5" font-family="Helvetica,sans-Serif" font-size="10.00">CSVModelWriter::setModel</text>
</g>
<!-- Node2 -->
<g id="node2" class="node"><title>Node2</title>
<g id="a_node2"><a xlink:href="class_address_book_page.html#a4f1d34f71ac7d4f64d4ba6bc87ee0525" target="_top" xlink:title="Export button clicked. ">
<polygon fill="white" stroke="black" points="193.5,-39 193.5,-69 309.5,-69 309.5,-39 193.5,-39"/>
<text text-anchor="start" x="201.5" y="-57" font-family="Helvetica,sans-Serif" font-size="10.00">AddressBookPage::on</text>
<text text-anchor="middle" x="251.5" y="-46" font-family="Helvetica,sans-Serif" font-size="10.00">_exportButton_clicked</text>
</a>
</g>
</g>
<!-- Node1&#45;&gt;Node2 -->
<g id="edge1" class="edge"><title>Node1&#45;&gt;Node2</title>
<path fill="none" stroke="midnightblue" d="M147.227,-41.4475C162.694,-43.3275 178.67,-45.2692 193.296,-47.0471"/>
<polygon fill="midnightblue" stroke="midnightblue" points="147.504,-37.9555 137.155,-40.2233 146.66,-44.9044 147.504,-37.9555"/>
</g>
<!-- Node3 -->
<g id="node3" class="node"><title>Node3</title>
<g id="a_node3"><a xlink:href="class_transaction_view.html#a5983022ff1e5395f87de3c5728eff8da" target="_top" xlink:title="TransactionView::exportClicked">
<polygon fill="white" stroke="black" points="173,-0.5 173,-19.5 330,-19.5 330,-0.5 173,-0.5"/>
<text text-anchor="middle" x="251.5" y="-7.5" font-family="Helvetica,sans-Serif" font-size="10.00">TransactionView::exportClicked</text>
</a>
</g>
</g>
<!-- Node1&#45;&gt;Node3 -->
<g id="edge2" class="edge"><title>Node1&#45;&gt;Node3</title>
<path fill="none" stroke="midnightblue" d="M147.092,-22.5689C155.635,-21.5306 164.333,-20.4733 172.876,-19.435"/>
<polygon fill="midnightblue" stroke="midnightblue" points="146.66,-19.0956 137.155,-23.7767 147.504,-26.0445 146.66,-19.0956"/>
</g>
</g>
</svg>
