<?xml version="1.0" encoding="UTF-8" standalone="no"?>
<!DOCTYPE svg PUBLIC "-//W3C//DTD SVG 1.1//EN"
 "http://www.w3.org/Graphics/SVG/1.1/DTD/svg11.dtd">
<!-- Generated by graphviz version 2.38.0 (20140413.2041)
 -->
<!-- Title: CWallet::GetImmatureBalance Pages: 1 -->
<svg width="753pt" height="84pt"
 viewBox="0.00 0.00 753.00 84.00" xmlns="http://www.w3.org/2000/svg" xmlns:xlink="http://www.w3.org/1999/xlink">
<g id="graph0" class="graph" transform="scale(1 1) rotate(0) translate(4 80)">
<title>CWallet::GetImmatureBalance</title>
<polygon fill="white" stroke="none" points="-4,4 -4,-80 749,-80 749,4 -4,4"/>
<!-- Node1 -->
<g id="node1" class="node"><title>Node1</title>
<polygon fill="#bfbfbf" stroke="black" points="0,-28.5 0,-47.5 152,-47.5 152,-28.5 0,-28.5"/>
<text text-anchor="middle" x="76" y="-35.5" font-family="Helvetica,sans-Serif" font-size="10.00">CWallet::GetImmatureBalance</text>
</g>
<!-- Node2 -->
<g id="node2" class="node"><title>Node2</title>
<g id="a_node2"><a xlink:href="class_c_wallet_tx.html#a0359562531c6ce0835dc84ae03b51108" target="_top" xlink:title="CWalletTx::GetImmatureCredit">
<polygon fill="white" stroke="black" points="188,-28.5 188,-47.5 341,-47.5 341,-28.5 188,-28.5"/>
<text text-anchor="middle" x="264.5" y="-35.5" font-family="Helvetica,sans-Serif" font-size="10.00">CWalletTx::GetImmatureCredit</text>
</a>
</g>
</g>
<!-- Node1&#45;&gt;Node2 -->
<g id="edge1" class="edge"><title>Node1&#45;&gt;Node2</title>
<path fill="none" stroke="midnightblue" d="M152.051,-38C160.562,-38 169.285,-38 177.919,-38"/>
<polygon fill="midnightblue" stroke="midnightblue" points="177.996,-41.5001 187.996,-38 177.996,-34.5001 177.996,-41.5001"/>
</g>
<!-- Node3 -->
<g id="node3" class="node"><title>Node3</title>
<g id="a_node3"><a xlink:href="class_c_wallet.html#a9ec15c32442fcceb95425d8b36492544" target="_top" xlink:title="CWallet::GetCredit">
<polygon fill="white" stroke="black" points="377,-28.5 377,-47.5 477,-47.5 477,-28.5 377,-28.5"/>
<text text-anchor="middle" x="427" y="-35.5" font-family="Helvetica,sans-Serif" font-size="10.00">CWallet::GetCredit</text>
</a>
</g>
</g>
<!-- Node2&#45;&gt;Node3 -->
<g id="edge2" class="edge"><title>Node2&#45;&gt;Node3</title>
<path fill="none" stroke="midnightblue" d="M341.05,-38C349.721,-38 358.465,-38 366.875,-38"/>
<polygon fill="midnightblue" stroke="midnightblue" points="366.942,-41.5001 376.942,-38 366.942,-34.5001 366.942,-41.5001"/>
</g>
<!-- Node4 -->
<g id="node4" class="node"><title>Node4</title>
<g id="a_node4"><a xlink:href="core_8h.html#ad1d9a769fa327ea042e0c9fadeb4836b" target="_top" xlink:title="MoneyRange">
<polygon fill="white" stroke="black" points="513,-56.5 513,-75.5 589,-75.5 589,-56.5 513,-56.5"/>
<text text-anchor="middle" x="551" y="-63.5" font-family="Helvetica,sans-Serif" font-size="10.00">MoneyRange</text>
</a>
</g>
</g>
<!-- Node3&#45;&gt;Node4 -->
<g id="edge3" class="edge"><title>Node3&#45;&gt;Node4</title>
<path fill="none" stroke="midnightblue" d="M469.644,-47.5577C480.32,-50.0078 491.878,-52.6605 502.811,-55.1698"/>
<polygon fill="midnightblue" stroke="midnightblue" points="502.104,-58.5983 512.633,-57.424 503.669,-51.7757 502.104,-58.5983"/>
</g>
<!-- Node5 -->
<g id="node5" class="node"><title>Node5</title>
<g id="a_node5"><a xlink:href="script_8cpp.html#adc59cf67d903c1ba1ef225561b85bfce" target="_top" xlink:title="IsMine">
<polygon fill="white" stroke="black" points="528,-0.5 528,-19.5 574,-19.5 574,-0.5 528,-0.5"/>
<text text-anchor="middle" x="551" y="-7.5" font-family="Helvetica,sans-Serif" font-size="10.00">IsMine</text>
</a>
</g>
</g>
<!-- Node3&#45;&gt;Node5 -->
<g id="edge4" class="edge"><title>Node3&#45;&gt;Node5</title>
<path fill="none" stroke="midnightblue" d="M469.644,-28.4423C485.308,-24.8473 502.872,-20.8163 517.574,-17.4419"/>
<polygon fill="midnightblue" stroke="midnightblue" points="518.743,-20.7649 527.706,-15.1165 517.177,-13.9422 518.743,-20.7649"/>
</g>
<!-- Node5&#45;&gt;Node5 -->
<g id="edge6" class="edge"><title>Node5&#45;&gt;Node5</title>
<path fill="none" stroke="midnightblue" d="M531.888,-19.7571C522.59,-28.5653 528.961,-38 551,-38 565.119,-38 572.807,-34.128 574.065,-29.0292"/>
<polygon fill="midnightblue" stroke="midnightblue" points="577.254,-27.5831 570.112,-19.7571 570.815,-30.3286 577.254,-27.5831"/>
</g>
<!-- Node6 -->
<g id="node6" class="node"><title>Node6</title>
<g id="a_node6"><a xlink:href="class_c_script.html#ad1b5a9077241aa06116040c4f1b7c31e" target="_top" xlink:title="CScript::SetDestination">
<polygon fill="white" stroke="black" points="625,-0.5 625,-19.5 745,-19.5 745,-0.5 625,-0.5"/>
<text text-anchor="middle" x="685" y="-7.5" font-family="Helvetica,sans-Serif" font-size="10.00">CScript::SetDestination</text>
</a>
</g>
</g>
<!-- Node5&#45;&gt;Node6 -->
<g id="edge5" class="edge"><title>Node5&#45;&gt;Node6</title>
<path fill="none" stroke="midnightblue" d="M574.094,-10C585.424,-10 599.913,-10 614.627,-10"/>
<polygon fill="midnightblue" stroke="midnightblue" points="614.813,-13.5001 624.813,-10 614.813,-6.5001 614.813,-13.5001"/>
</g>
</g>
</svg>
