<?xml version="1.0" encoding="UTF-8" standalone="no"?>
<!DOCTYPE svg PUBLIC "-//W3C//DTD SVG 1.1//EN"
 "http://www.w3.org/Graphics/SVG/1.1/DTD/svg11.dtd">
<!-- Generated by graphviz version 2.38.0 (20140413.2041)
 -->
<!-- Title: CCoinsViewCache::HaveInputs Pages: 1 -->
<svg width="1238pt" height="235pt"
 viewBox="0.00 0.00 1238.00 234.98" xmlns="http://www.w3.org/2000/svg" xmlns:xlink="http://www.w3.org/1999/xlink">
<g id="graph0" class="graph" transform="scale(1 1) rotate(0) translate(4 230.983)">
<title>CCoinsViewCache::HaveInputs</title>
<polygon fill="white" stroke="none" points="-4,4 -4,-230.983 1234,-230.983 1234,4 -4,4"/>
<!-- Node1 -->
<g id="node1" class="node"><title>Node1</title>
<polygon fill="#bfbfbf" stroke="black" points="0,-36.4835 0,-55.4835 156,-55.4835 156,-36.4835 0,-36.4835"/>
<text text-anchor="middle" x="78" y="-43.4835" font-family="Helvetica,sans-Serif" font-size="10.00">CCoinsViewCache::HaveInputs</text>
</g>
<!-- Node2 -->
<g id="node2" class="node"><title>Node2</title>
<g id="a_node2"><a xlink:href="main_8h.html#a1032f75235456abfa96b63e34e7ee2cc" target="_top" xlink:title="(try to) add transaction to memory pool ">
<polygon fill="white" stroke="black" points="300,-93.4835 300,-112.483 415,-112.483 415,-93.4835 300,-93.4835"/>
<text text-anchor="middle" x="357.5" y="-100.483" font-family="Helvetica,sans-Serif" font-size="10.00">AcceptToMemoryPool</text>
</a>
</g>
</g>
<!-- Node1&#45;&gt;Node2 -->
<g id="edge1" class="edge"><title>Node1&#45;&gt;Node2</title>
<path fill="none" stroke="midnightblue" d="M130.588,-57.6883C149.839,-61.9792 171.898,-66.8052 192,-70.9835 230.028,-78.8876 273.129,-87.2502 305.671,-93.4437"/>
<polygon fill="midnightblue" stroke="midnightblue" points="131.326,-54.2669 120.803,-55.4995 129.798,-61.0981 131.326,-54.2669"/>
</g>
<!-- Node15 -->
<g id="node15" class="node"><title>Node15</title>
<g id="a_node15"><a xlink:href="main_8h.html#ad6c3cc142639d843f2475501fc20d75b" target="_top" xlink:title="CheckInputs">
<polygon fill="white" stroke="black" points="192,-17.4835 192,-36.4835 264,-36.4835 264,-17.4835 192,-17.4835"/>
<text text-anchor="middle" x="228" y="-24.4835" font-family="Helvetica,sans-Serif" font-size="10.00">CheckInputs</text>
</a>
</g>
</g>
<!-- Node1&#45;&gt;Node15 -->
<g id="edge14" class="edge"><title>Node1&#45;&gt;Node15</title>
<path fill="none" stroke="midnightblue" d="M163.444,-35.1427C173.396,-33.865 183.091,-32.6204 191.79,-31.5037"/>
<polygon fill="midnightblue" stroke="midnightblue" points="162.906,-31.6829 153.434,-36.4278 163.798,-38.6259 162.906,-31.6829"/>
</g>
<!-- Node16 -->
<g id="node16" class="node"><title>Node16</title>
<g id="a_node16"><a xlink:href="main_8h.html#ae478a2e37bd5c3ac735f30cc12cc7f8b" target="_top" xlink:title="ConnectBlock">
<polygon fill="white" stroke="black" points="318.5,-55.4835 318.5,-74.4835 396.5,-74.4835 396.5,-55.4835 318.5,-55.4835"/>
<text text-anchor="middle" x="357.5" y="-62.4835" font-family="Helvetica,sans-Serif" font-size="10.00">ConnectBlock</text>
</a>
</g>
</g>
<!-- Node1&#45;&gt;Node16 -->
<g id="edge23" class="edge"><title>Node1&#45;&gt;Node16</title>
<path fill="none" stroke="midnightblue" d="M166.356,-51.9646C217.412,-55.4603 279.28,-59.6963 318.277,-62.3664"/>
<polygon fill="midnightblue" stroke="midnightblue" points="166.515,-48.4674 156.299,-51.276 166.037,-55.451 166.515,-48.4674"/>
</g>
<!-- Node19 -->
<g id="node19" class="node"><title>Node19</title>
<g id="a_node19"><a xlink:href="miner_8h.html#af441d1c1899839f4e3cc0ee1367914a5" target="_top" xlink:title="Generate a new block, without valid proof&#45;of&#45;work. ">
<polygon fill="white" stroke="black" points="490,-17.4835 490,-36.4835 581,-36.4835 581,-17.4835 490,-17.4835"/>
<text text-anchor="middle" x="535.5" y="-24.4835" font-family="Helvetica,sans-Serif" font-size="10.00">CreateNewBlock</text>
</a>
</g>
</g>
<!-- Node1&#45;&gt;Node19 -->
<g id="edge24" class="edge"><title>Node1&#45;&gt;Node19</title>
<path fill="none" stroke="midnightblue" d="M109.846,-32.577C132.18,-23.6274 163.353,-12.6712 192,-7.98346 297.789,9.32772 424.139,-7.09826 489.836,-18.3769"/>
<polygon fill="midnightblue" stroke="midnightblue" points="108.471,-29.3578 100.548,-36.3916 111.128,-35.8339 108.471,-29.3578"/>
</g>
<!-- Node3 -->
<g id="node3" class="node"><title>Node3</title>
<g id="a_node3"><a xlink:href="class_c_merkle_tx.html#a032705bde1c536cd1b14f01f914e12f0" target="_top" xlink:title="CMerkleTx::AcceptToMemoryPool">
<polygon fill="white" stroke="black" points="451,-131.483 451,-150.483 620,-150.483 620,-131.483 451,-131.483"/>
<text text-anchor="middle" x="535.5" y="-138.483" font-family="Helvetica,sans-Serif" font-size="10.00">CMerkleTx::AcceptToMemoryPool</text>
</a>
</g>
</g>
<!-- Node2&#45;&gt;Node3 -->
<g id="edge2" class="edge"><title>Node2&#45;&gt;Node3</title>
<path fill="none" stroke="midnightblue" d="M412.933,-114.736C437.819,-120.109 466.919,-126.392 490.407,-131.463"/>
<polygon fill="midnightblue" stroke="midnightblue" points="413.426,-111.262 402.912,-112.572 411.948,-118.104 413.426,-111.262"/>
</g>
<!-- Node14 -->
<g id="node14" class="node"><title>Node14</title>
<g id="a_node14"><a xlink:href="rpcrawtransaction_8cpp.html#ad5aad44f890060f42efb49acf349511e" target="_top" xlink:title="sendrawtransaction">
<polygon fill="white" stroke="black" points="484,-93.4835 484,-112.483 587,-112.483 587,-93.4835 484,-93.4835"/>
<text text-anchor="middle" x="535.5" y="-100.483" font-family="Helvetica,sans-Serif" font-size="10.00">sendrawtransaction</text>
</a>
</g>
</g>
<!-- Node2&#45;&gt;Node14 -->
<g id="edge13" class="edge"><title>Node2&#45;&gt;Node14</title>
<path fill="none" stroke="midnightblue" d="M425.18,-102.983C444.648,-102.983 465.597,-102.983 483.896,-102.983"/>
<polygon fill="midnightblue" stroke="midnightblue" points="425.156,-99.4836 415.156,-102.983 425.156,-106.484 425.156,-99.4836"/>
</g>
<!-- Node4 -->
<g id="node4" class="node"><title>Node4</title>
<g id="a_node4"><a xlink:href="class_c_wallet.html#a796c23450c8482e10e0c75ae5c1fa8ed" target="_top" xlink:title="CWallet::ReacceptWalletTransactions">
<polygon fill="white" stroke="black" points="656,-131.483 656,-150.483 840,-150.483 840,-131.483 656,-131.483"/>
<text text-anchor="middle" x="748" y="-138.483" font-family="Helvetica,sans-Serif" font-size="10.00">CWallet::ReacceptWalletTransactions</text>
</a>
</g>
</g>
<!-- Node3&#45;&gt;Node4 -->
<g id="edge3" class="edge"><title>Node3&#45;&gt;Node4</title>
<path fill="none" stroke="midnightblue" d="M630.519,-140.983C638.948,-140.983 647.475,-140.983 655.879,-140.983"/>
<polygon fill="midnightblue" stroke="midnightblue" points="630.3,-137.484 620.3,-140.983 630.3,-144.484 630.3,-137.484"/>
</g>
<!-- Node10 -->
<g id="node10" class="node"><title>Node10</title>
<g id="a_node10"><a xlink:href="class_c_wallet.html#ac30e619488120651a6753195b77f3ad8" target="_top" xlink:title="CWallet::CommitTransaction">
<polygon fill="white" stroke="black" points="676,-169.483 676,-188.483 820,-188.483 820,-169.483 676,-169.483"/>
<text text-anchor="middle" x="748" y="-176.483" font-family="Helvetica,sans-Serif" font-size="10.00">CWallet::CommitTransaction</text>
</a>
</g>
</g>
<!-- Node3&#45;&gt;Node10 -->
<g id="edge9" class="edge"><title>Node3&#45;&gt;Node10</title>
<path fill="none" stroke="midnightblue" d="M599.356,-152.33C629.558,-157.783 665.352,-164.244 694.132,-169.44"/>
<polygon fill="midnightblue" stroke="midnightblue" points="599.809,-148.856 589.346,-150.523 598.565,-155.744 599.809,-148.856"/>
</g>
<!-- Node5 -->
<g id="node5" class="node"><title>Node5</title>
<g id="a_node5"><a xlink:href="init_8h.html#a1a4c1bfbf6ba1db77e988b89b9cadfd3" target="_top" xlink:title="Initialize anoncoin. ">
<polygon fill="white" stroke="black" points="911.5,-93.4835 911.5,-112.483 964.5,-112.483 964.5,-93.4835 911.5,-93.4835"/>
<text text-anchor="middle" x="938" y="-100.483" font-family="Helvetica,sans-Serif" font-size="10.00">AppInit2</text>
</a>
</g>
</g>
<!-- Node4&#45;&gt;Node5 -->
<g id="edge4" class="edge"><title>Node4&#45;&gt;Node5</title>
<path fill="none" stroke="midnightblue" d="M806.541,-129.353C841.515,-122.284 884.458,-113.604 911.284,-108.181"/>
<polygon fill="midnightblue" stroke="midnightblue" points="805.549,-125.983 796.44,-131.394 806.936,-132.844 805.549,-125.983"/>
</g>
<!-- Node9 -->
<g id="node9" class="node"><title>Node9</title>
<g id="a_node9"><a xlink:href="rpcdump_8cpp.html#a457bc572859c8265c72a0afd1a6db56c" target="_top" xlink:title="importaddress">
<polygon fill="white" stroke="black" points="898,-131.483 898,-150.483 978,-150.483 978,-131.483 898,-131.483"/>
<text text-anchor="middle" x="938" y="-138.483" font-family="Helvetica,sans-Serif" font-size="10.00">importaddress</text>
</a>
</g>
</g>
<!-- Node4&#45;&gt;Node9 -->
<g id="edge8" class="edge"><title>Node4&#45;&gt;Node9</title>
<path fill="none" stroke="midnightblue" d="M850.662,-140.983C867.353,-140.983 883.72,-140.983 897.639,-140.983"/>
<polygon fill="midnightblue" stroke="midnightblue" points="850.246,-137.484 840.246,-140.983 850.246,-144.484 850.246,-137.484"/>
</g>
<!-- Node6 -->
<g id="node6" class="node"><title>Node6</title>
<g id="a_node6"><a xlink:href="anoncoind_8cpp.html#ac59316b767e6984e1285f0531275286b" target="_top" xlink:title="AppInit">
<polygon fill="white" stroke="black" points="1072,-109.483 1072,-128.483 1120,-128.483 1120,-109.483 1072,-109.483"/>
<text text-anchor="middle" x="1096" y="-116.483" font-family="Helvetica,sans-Serif" font-size="10.00">AppInit</text>
</a>
</g>
</g>
<!-- Node5&#45;&gt;Node6 -->
<g id="edge5" class="edge"><title>Node5&#45;&gt;Node6</title>
<path fill="none" stroke="midnightblue" d="M974.761,-106.651C1004.55,-109.707 1046.11,-113.969 1071.75,-116.599"/>
<polygon fill="midnightblue" stroke="midnightblue" points="975.065,-103.164 964.76,-105.626 974.351,-110.128 975.065,-103.164"/>
</g>
<!-- Node8 -->
<g id="node8" class="node"><title>Node8</title>
<g id="a_node8"><a xlink:href="class_anoncoin_coin.html#a9510881824d283404ac43414dbb74586" target="_top" xlink:title="AnoncoinCoin::initialize">
<polygon fill="white" stroke="black" points="1036,-71.4835 1036,-90.4835 1156,-90.4835 1156,-71.4835 1036,-71.4835"/>
<text text-anchor="middle" x="1096" y="-78.4835" font-family="Helvetica,sans-Serif" font-size="10.00">AnoncoinCoin::initialize</text>
</a>
</g>
</g>
<!-- Node5&#45;&gt;Node8 -->
<g id="edge7" class="edge"><title>Node5&#45;&gt;Node8</title>
<path fill="none" stroke="midnightblue" d="M974.85,-97.9277C992.911,-95.3807 1015.28,-92.2259 1035.8,-89.3316"/>
<polygon fill="midnightblue" stroke="midnightblue" points="974.173,-94.4884 964.76,-99.3506 975.151,-101.42 974.173,-94.4884"/>
</g>
<!-- Node7 -->
<g id="node7" class="node"><title>Node7</title>
<g id="a_node7"><a xlink:href="anoncoind_8cpp.html#a0ddf1224851353fc92bfbff6f499fa97" target="_top" xlink:title="main">
<polygon fill="white" stroke="black" points="1192,-109.483 1192,-128.483 1230,-128.483 1230,-109.483 1192,-109.483"/>
<text text-anchor="middle" x="1211" y="-116.483" font-family="Helvetica,sans-Serif" font-size="10.00">main</text>
</a>
</g>
</g>
<!-- Node6&#45;&gt;Node7 -->
<g id="edge6" class="edge"><title>Node6&#45;&gt;Node7</title>
<path fill="none" stroke="midnightblue" d="M1130.15,-118.983C1150.25,-118.983 1175.13,-118.983 1191.73,-118.983"/>
<polygon fill="midnightblue" stroke="midnightblue" points="1130.14,-115.484 1120.14,-118.983 1130.14,-122.484 1130.14,-115.484"/>
</g>
<!-- Node11 -->
<g id="node11" class="node"><title>Node11</title>
<g id="a_node11"><a xlink:href="class_wallet_model.html#a53443aca544c824550f21e5f87e4ec39" target="_top" xlink:title="WalletModel::sendCoins">
<polygon fill="white" stroke="black" points="876,-169.483 876,-188.483 1000,-188.483 1000,-169.483 876,-169.483"/>
<text text-anchor="middle" x="938" y="-176.483" font-family="Helvetica,sans-Serif" font-size="10.00">WalletModel::sendCoins</text>
</a>
</g>
</g>
<!-- Node10&#45;&gt;Node11 -->
<g id="edge10" class="edge"><title>Node10&#45;&gt;Node11</title>
<path fill="none" stroke="midnightblue" d="M830.099,-178.983C845.484,-178.983 861.338,-178.983 875.972,-178.983"/>
<polygon fill="midnightblue" stroke="midnightblue" points="830.075,-175.484 820.075,-178.983 830.075,-182.484 830.075,-175.484"/>
</g>
<!-- Node13 -->
<g id="node13" class="node"><title>Node13</title>
<g id="a_node13"><a xlink:href="rpcwallet_8cpp.html#adeb5f23f20fb4e589dab23cadf75c92d" target="_top" xlink:title="sendmany">
<polygon fill="white" stroke="black" points="906.5,-207.483 906.5,-226.483 969.5,-226.483 969.5,-207.483 906.5,-207.483"/>
<text text-anchor="middle" x="938" y="-214.483" font-family="Helvetica,sans-Serif" font-size="10.00">sendmany</text>
</a>
</g>
</g>
<!-- Node10&#45;&gt;Node13 -->
<g id="edge12" class="edge"><title>Node10&#45;&gt;Node13</title>
<path fill="none" stroke="midnightblue" d="M806.411,-190.588C839.345,-197.245 879.38,-205.337 906.37,-210.792"/>
<polygon fill="midnightblue" stroke="midnightblue" points="806.936,-187.123 796.44,-188.572 805.549,-193.984 806.936,-187.123"/>
</g>
<!-- Node12 -->
<g id="node12" class="node"><title>Node12</title>
<g id="a_node12"><a xlink:href="class_send_coins_dialog.html#a2cab7cf9ea5040b9e2189297f7d3c764" target="_top" xlink:title="SendCoinsDialog::on\l_sendButton_clicked">
<polygon fill="white" stroke="black" points="1041,-163.983 1041,-193.983 1151,-193.983 1151,-163.983 1041,-163.983"/>
<text text-anchor="start" x="1049" y="-181.983" font-family="Helvetica,sans-Serif" font-size="10.00">SendCoinsDialog::on</text>
<text text-anchor="middle" x="1096" y="-170.983" font-family="Helvetica,sans-Serif" font-size="10.00">_sendButton_clicked</text>
</a>
</g>
</g>
<!-- Node11&#45;&gt;Node12 -->
<g id="edge11" class="edge"><title>Node11&#45;&gt;Node12</title>
<path fill="none" stroke="midnightblue" d="M1010.36,-178.983C1020.6,-178.983 1030.98,-178.983 1040.81,-178.983"/>
<polygon fill="midnightblue" stroke="midnightblue" points="1010.21,-175.484 1000.21,-178.983 1010.21,-182.484 1010.21,-175.484"/>
</g>
<!-- Node15&#45;&gt;Node2 -->
<g id="edge15" class="edge"><title>Node15&#45;&gt;Node2</title>
<path fill="none" stroke="midnightblue" d="M246.384,-43.8718C260.034,-56.3703 280.016,-73.0549 300,-83.9835 306.719,-87.6578 314.275,-90.7956 321.622,-93.3999"/>
<polygon fill="midnightblue" stroke="midnightblue" points="248.447,-41.0085 238.759,-36.7196 243.658,-46.1139 248.447,-41.0085"/>
</g>
<!-- Node15&#45;&gt;Node16 -->
<g id="edge16" class="edge"><title>Node15&#45;&gt;Node16</title>
<path fill="none" stroke="midnightblue" d="M271.059,-39.5188C288.404,-44.6882 308.181,-50.5826 324.337,-55.3975"/>
<polygon fill="midnightblue" stroke="midnightblue" points="271.757,-36.0746 261.174,-36.5725 269.757,-42.783 271.757,-36.0746"/>
</g>
<!-- Node15&#45;&gt;Node19 -->
<g id="edge22" class="edge"><title>Node15&#45;&gt;Node19</title>
<path fill="none" stroke="midnightblue" d="M274.365,-26.9835C332.341,-26.9835 432.083,-26.9835 489.758,-26.9835"/>
<polygon fill="midnightblue" stroke="midnightblue" points="274.045,-23.4836 264.045,-26.9835 274.045,-30.4836 274.045,-23.4836"/>
</g>
<!-- Node17 -->
<g id="node17" class="node"><title>Node17</title>
<g id="a_node17"><a xlink:href="main_8h.html#abfcd613b1eaa02bc626b1c3cb098fc4a" target="_top" xlink:title="Verify consistency of the block and coin databases. ">
<polygon fill="white" stroke="black" points="507.5,-55.4835 507.5,-74.4835 563.5,-74.4835 563.5,-55.4835 507.5,-55.4835"/>
<text text-anchor="middle" x="535.5" y="-62.4835" font-family="Helvetica,sans-Serif" font-size="10.00">VerifyDB</text>
</a>
</g>
</g>
<!-- Node16&#45;&gt;Node17 -->
<g id="edge17" class="edge"><title>Node16&#45;&gt;Node17</title>
<path fill="none" stroke="midnightblue" d="M406.841,-64.9835C439.179,-64.9835 480.551,-64.9835 507.286,-64.9835"/>
<polygon fill="midnightblue" stroke="midnightblue" points="406.689,-61.4836 396.689,-64.9835 406.689,-68.4836 406.689,-61.4836"/>
</g>
<!-- Node16&#45;&gt;Node19 -->
<g id="edge20" class="edge"><title>Node16&#45;&gt;Node19</title>
<path fill="none" stroke="midnightblue" d="M406.765,-54.5627C432.926,-48.9142 465.018,-41.9852 490.49,-36.4855"/>
<polygon fill="midnightblue" stroke="midnightblue" points="405.725,-51.2063 396.689,-56.738 407.203,-58.0487 405.725,-51.2063"/>
</g>
<!-- Node17&#45;&gt;Node5 -->
<g id="edge18" class="edge"><title>Node17&#45;&gt;Node5</title>
<path fill="none" stroke="midnightblue" d="M573.84,-71.8078C597.346,-75.8832 628.361,-80.8583 656,-83.9835 749.772,-94.5865 861.867,-100.001 911.359,-102.024"/>
<polygon fill="midnightblue" stroke="midnightblue" points="574.388,-68.3506 563.933,-70.0666 573.176,-75.2449 574.388,-68.3506"/>
</g>
<!-- Node18 -->
<g id="node18" class="node"><title>Node18</title>
<g id="a_node18"><a xlink:href="rpcblockchain_8cpp.html#a0b1dd8862fc7292c243ad9489f96a3c8" target="_top" xlink:title="verifychain">
<polygon fill="white" stroke="black" points="716,-55.4835 716,-74.4835 780,-74.4835 780,-55.4835 716,-55.4835"/>
<text text-anchor="middle" x="748" y="-62.4835" font-family="Helvetica,sans-Serif" font-size="10.00">verifychain</text>
</a>
</g>
</g>
<!-- Node17&#45;&gt;Node18 -->
<g id="edge19" class="edge"><title>Node17&#45;&gt;Node18</title>
<path fill="none" stroke="midnightblue" d="M573.837,-64.9835C614.285,-64.9835 678.088,-64.9835 715.912,-64.9835"/>
<polygon fill="midnightblue" stroke="midnightblue" points="573.588,-61.4836 563.588,-64.9835 573.588,-68.4836 573.588,-61.4836"/>
</g>
<!-- Node20 -->
<g id="node20" class="node"><title>Node20</title>
<g id="a_node20"><a xlink:href="rpcmining_8cpp.html#a27347eecedd59156c914fcb5ce488f9a" target="_top" xlink:title="getblocktemplate">
<polygon fill="white" stroke="black" points="702,-17.4835 702,-36.4835 794,-36.4835 794,-17.4835 702,-17.4835"/>
<text text-anchor="middle" x="748" y="-24.4835" font-family="Helvetica,sans-Serif" font-size="10.00">getblocktemplate</text>
</a>
</g>
</g>
<!-- Node19&#45;&gt;Node20 -->
<g id="edge21" class="edge"><title>Node19&#45;&gt;Node20</title>
<path fill="none" stroke="midnightblue" d="M591.465,-26.9835C625.768,-26.9835 669.387,-26.9835 701.697,-26.9835"/>
<polygon fill="midnightblue" stroke="midnightblue" points="591.142,-23.4836 581.142,-26.9835 591.142,-30.4836 591.142,-23.4836"/>
</g>
</g>
</svg>
