<?xml version="1.0" encoding="UTF-8" standalone="no"?>
<!DOCTYPE svg PUBLIC "-//W3C//DTD SVG 1.1//EN"
 "http://www.w3.org/Graphics/SVG/1.1/DTD/svg11.dtd">
<!-- Generated by graphviz version 2.38.0 (20140413.2041)
 -->
<!-- Title: Ui_SendCoinsDialog::setupUi Pages: 1 -->
<svg width="538pt" height="88pt"
 viewBox="0.00 0.00 538.00 88.00" xmlns="http://www.w3.org/2000/svg" xmlns:xlink="http://www.w3.org/1999/xlink">
<g id="graph0" class="graph" transform="scale(1 1) rotate(0) translate(4 84)">
<title>Ui_SendCoinsDialog::setupUi</title>
<polygon fill="white" stroke="none" points="-4,4 -4,-84 534,-84 534,4 -4,4"/>
<!-- Node1 -->
<g id="node1" class="node"><title>Node1</title>
<polygon fill="#bfbfbf" stroke="black" points="0,-24.5 0,-54.5 109,-54.5 109,-24.5 0,-24.5"/>
<text text-anchor="start" x="8" y="-42.5" font-family="Helvetica,sans-Serif" font-size="10.00">Ui_SendCoinsDialog</text>
<text text-anchor="middle" x="54.5" y="-31.5" font-family="Helvetica,sans-Serif" font-size="10.00">::setupUi</text>
</g>
<!-- Node2 -->
<g id="node2" class="node"><title>Node2</title>
<g id="a_node2"><a xlink:href="class_q_validated_line_edit.html#af0a2d32e9d2fb08c5069852cf4bfc860" target="_top" xlink:title="QValidatedLineEdit\l::setEnabled">
<polygon fill="white" stroke="black" points="148.5,-49.5 148.5,-79.5 250.5,-79.5 250.5,-49.5 148.5,-49.5"/>
<text text-anchor="start" x="156.5" y="-67.5" font-family="Helvetica,sans-Serif" font-size="10.00">QValidatedLineEdit</text>
<text text-anchor="middle" x="199.5" y="-56.5" font-family="Helvetica,sans-Serif" font-size="10.00">::setEnabled</text>
</a>
</g>
</g>
<!-- Node1&#45;&gt;Node2 -->
<g id="edge1" class="edge"><title>Node1&#45;&gt;Node2</title>
<path fill="none" stroke="midnightblue" d="M109.155,-48.8802C118.684,-50.5461 128.664,-52.2909 138.359,-53.9858"/>
<polygon fill="midnightblue" stroke="midnightblue" points="137.874,-57.454 148.327,-55.7285 139.079,-50.5586 137.874,-57.454"/>
</g>
<!-- Node5 -->
<g id="node5" class="node"><title>Node5</title>
<g id="a_node5"><a xlink:href="class_ui___send_coins_dialog.html#a940725b8e67b79262d72b02cb615c725" target="_top" xlink:title="Ui_SendCoinsDialog\l::retranslateUi">
<polygon fill="white" stroke="black" points="145,-0.5 145,-30.5 254,-30.5 254,-0.5 145,-0.5"/>
<text text-anchor="start" x="153" y="-18.5" font-family="Helvetica,sans-Serif" font-size="10.00">Ui_SendCoinsDialog</text>
<text text-anchor="middle" x="199.5" y="-7.5" font-family="Helvetica,sans-Serif" font-size="10.00">::retranslateUi</text>
</a>
</g>
</g>
<!-- Node1&#45;&gt;Node5 -->
<g id="edge5" class="edge"><title>Node1&#45;&gt;Node5</title>
<path fill="none" stroke="midnightblue" d="M109.155,-30.495C117.471,-29.0992 126.132,-27.6457 134.646,-26.2167"/>
<polygon fill="midnightblue" stroke="midnightblue" points="135.262,-29.6624 144.545,-24.5555 134.103,-22.759 135.262,-29.6624"/>
</g>
<!-- Node3 -->
<g id="node3" class="node"><title>Node3</title>
<g id="a_node3"><a xlink:href="class_q_validated_line_edit.html#ad9984e2e463cc7fbf28fe334498a1df5" target="_top" xlink:title="QValidatedLineEdit\l::setValid">
<polygon fill="white" stroke="black" points="428,-49.5 428,-79.5 530,-79.5 530,-49.5 428,-49.5"/>
<text text-anchor="start" x="436" y="-67.5" font-family="Helvetica,sans-Serif" font-size="10.00">QValidatedLineEdit</text>
<text text-anchor="middle" x="479" y="-56.5" font-family="Helvetica,sans-Serif" font-size="10.00">::setValid</text>
</a>
</g>
</g>
<!-- Node2&#45;&gt;Node3 -->
<g id="edge2" class="edge"><title>Node2&#45;&gt;Node3</title>
<path fill="none" stroke="midnightblue" d="M250.669,-66.4778C263.49,-66.9019 277.253,-67.2864 290,-67.5 335.327,-68.2595 346.674,-68.2903 392,-67.5 400.374,-67.354 409.205,-67.128 417.891,-66.8642"/>
<polygon fill="midnightblue" stroke="midnightblue" points="418.102,-70.3593 427.985,-66.5395 417.877,-63.3629 418.102,-70.3593"/>
</g>
<!-- Node4 -->
<g id="node4" class="node"><title>Node4</title>
<g id="a_node4"><a xlink:href="class_q_validated_line_edit.html#aa5b5196dc6215f088bc138ac4dbc3e28" target="_top" xlink:title="QValidatedLineEdit\l::checkValidity">
<polygon fill="white" stroke="black" points="290,-27.5 290,-57.5 392,-57.5 392,-27.5 290,-27.5"/>
<text text-anchor="start" x="298" y="-45.5" font-family="Helvetica,sans-Serif" font-size="10.00">QValidatedLineEdit</text>
<text text-anchor="middle" x="341" y="-34.5" font-family="Helvetica,sans-Serif" font-size="10.00">::checkValidity</text>
</a>
</g>
</g>
<!-- Node2&#45;&gt;Node4 -->
<g id="edge3" class="edge"><title>Node2&#45;&gt;Node4</title>
<path fill="none" stroke="midnightblue" d="M250.863,-56.5575C260.246,-55.0777 270.138,-53.5176 279.782,-51.9967"/>
<polygon fill="midnightblue" stroke="midnightblue" points="280.379,-55.446 289.711,-50.4308 279.288,-48.5315 280.379,-55.446"/>
</g>
<!-- Node4&#45;&gt;Node3 -->
<g id="edge4" class="edge"><title>Node4&#45;&gt;Node3</title>
<path fill="none" stroke="midnightblue" d="M392.255,-50.6295C400.63,-51.9843 409.392,-53.4016 417.981,-54.7911"/>
<polygon fill="midnightblue" stroke="midnightblue" points="417.521,-58.262 427.952,-56.4039 418.639,-51.3519 417.521,-58.262"/>
</g>
</g>
</svg>
