<?xml version="1.0" encoding="UTF-8" standalone="no"?>
<!DOCTYPE svg PUBLIC "-//W3C//DTD SVG 1.1//EN"
 "http://www.w3.org/Graphics/SVG/1.1/DTD/svg11.dtd">
<!-- Generated by graphviz version 2.38.0 (20140413.2041)
 -->
<!-- Title: CBufferedFile::good Pages: 1 -->
<svg width="697pt" height="66pt"
 viewBox="0.00 0.00 697.00 66.00" xmlns="http://www.w3.org/2000/svg" xmlns:xlink="http://www.w3.org/1999/xlink">
<g id="graph0" class="graph" transform="scale(1 1) rotate(0) translate(4 62)">
<title>CBufferedFile::good</title>
<polygon fill="white" stroke="none" points="-4,4 -4,-62 693,-62 693,4 -4,4"/>
<!-- Node1 -->
<g id="node1" class="node"><title>Node1</title>
<polygon fill="#bfbfbf" stroke="black" points="0,-19.5 0,-38.5 105,-38.5 105,-19.5 0,-19.5"/>
<text text-anchor="middle" x="52.5" y="-26.5" font-family="Helvetica,sans-Serif" font-size="10.00">CBufferedFile::good</text>
</g>
<!-- Node2 -->
<g id="node2" class="node"><title>Node2</title>
<g id="a_node2"><a xlink:href="main_8h.html#a8641eccb4e5d174838adeea9b234a691" target="_top" xlink:title="Import blocks from an external file. ">
<polygon fill="white" stroke="black" points="141,-19.5 141,-38.5 257,-38.5 257,-19.5 141,-19.5"/>
<text text-anchor="middle" x="199" y="-26.5" font-family="Helvetica,sans-Serif" font-size="10.00">LoadExternalBlockFile</text>
</a>
</g>
</g>
<!-- Node1&#45;&gt;Node2 -->
<g id="edge1" class="edge"><title>Node1&#45;&gt;Node2</title>
<path fill="none" stroke="midnightblue" d="M115.39,-29C123.798,-29 132.397,-29 140.72,-29"/>
<polygon fill="midnightblue" stroke="midnightblue" points="115.26,-25.5001 105.26,-29 115.26,-32.5001 115.26,-25.5001"/>
</g>
<!-- Node3 -->
<g id="node3" class="node"><title>Node3</title>
<g id="a_node3"><a xlink:href="init_8cpp.html#a0189c34248cd89bbbe20d4d6045bd7c9" target="_top" xlink:title="ThreadImport">
<polygon fill="white" stroke="black" points="293,-19.5 293,-38.5 370,-38.5 370,-19.5 293,-19.5"/>
<text text-anchor="middle" x="331.5" y="-26.5" font-family="Helvetica,sans-Serif" font-size="10.00">ThreadImport</text>
</a>
</g>
</g>
<!-- Node2&#45;&gt;Node3 -->
<g id="edge2" class="edge"><title>Node2&#45;&gt;Node3</title>
<path fill="none" stroke="midnightblue" d="M267.46,-29C276.177,-29 284.842,-29 292.831,-29"/>
<polygon fill="midnightblue" stroke="midnightblue" points="267.239,-25.5001 257.239,-29 267.239,-32.5001 267.239,-25.5001"/>
</g>
<!-- Node4 -->
<g id="node4" class="node"><title>Node4</title>
<g id="a_node4"><a xlink:href="init_8h.html#a1a4c1bfbf6ba1db77e988b89b9cadfd3" target="_top" xlink:title="Initialize anoncoin. ">
<polygon fill="white" stroke="black" points="406,-19.5 406,-38.5 459,-38.5 459,-19.5 406,-19.5"/>
<text text-anchor="middle" x="432.5" y="-26.5" font-family="Helvetica,sans-Serif" font-size="10.00">AppInit2</text>
</a>
</g>
</g>
<!-- Node3&#45;&gt;Node4 -->
<g id="edge3" class="edge"><title>Node3&#45;&gt;Node4</title>
<path fill="none" stroke="midnightblue" d="M380.424,-29C389.208,-29 398.057,-29 405.865,-29"/>
<polygon fill="midnightblue" stroke="midnightblue" points="380.21,-25.5001 370.21,-29 380.21,-32.5001 380.21,-25.5001"/>
</g>
<!-- Node5 -->
<g id="node5" class="node"><title>Node5</title>
<g id="a_node5"><a xlink:href="anoncoind_8cpp.html#ac59316b767e6984e1285f0531275286b" target="_top" xlink:title="AppInit">
<polygon fill="white" stroke="black" points="531,-38.5 531,-57.5 579,-57.5 579,-38.5 531,-38.5"/>
<text text-anchor="middle" x="555" y="-45.5" font-family="Helvetica,sans-Serif" font-size="10.00">AppInit</text>
</a>
</g>
</g>
<!-- Node4&#45;&gt;Node5 -->
<g id="edge4" class="edge"><title>Node4&#45;&gt;Node5</title>
<path fill="none" stroke="midnightblue" d="M469.05,-34.6053C489.041,-37.7576 513.421,-41.6017 530.927,-44.3619"/>
<polygon fill="midnightblue" stroke="midnightblue" points="469.478,-31.1297 459.055,-33.0294 468.388,-38.0443 469.478,-31.1297"/>
</g>
<!-- Node7 -->
<g id="node7" class="node"><title>Node7</title>
<g id="a_node7"><a xlink:href="class_anoncoin_coin.html#a9510881824d283404ac43414dbb74586" target="_top" xlink:title="AnoncoinCoin::initialize">
<polygon fill="white" stroke="black" points="495,-0.5 495,-19.5 615,-19.5 615,-0.5 495,-0.5"/>
<text text-anchor="middle" x="555" y="-7.5" font-family="Helvetica,sans-Serif" font-size="10.00">AnoncoinCoin::initialize</text>
</a>
</g>
</g>
<!-- Node4&#45;&gt;Node7 -->
<g id="edge6" class="edge"><title>Node4&#45;&gt;Node7</title>
<path fill="none" stroke="midnightblue" d="M469.186,-23.3732C477.249,-22.1018 486.021,-20.7186 494.765,-19.34"/>
<polygon fill="midnightblue" stroke="midnightblue" points="468.388,-19.9557 459.055,-24.9706 469.478,-26.8703 468.388,-19.9557"/>
</g>
<!-- Node6 -->
<g id="node6" class="node"><title>Node6</title>
<g id="a_node6"><a xlink:href="anoncoind_8cpp.html#a0ddf1224851353fc92bfbff6f499fa97" target="_top" xlink:title="main">
<polygon fill="white" stroke="black" points="651,-38.5 651,-57.5 689,-57.5 689,-38.5 651,-38.5"/>
<text text-anchor="middle" x="670" y="-45.5" font-family="Helvetica,sans-Serif" font-size="10.00">main</text>
</a>
</g>
</g>
<!-- Node5&#45;&gt;Node6 -->
<g id="edge5" class="edge"><title>Node5&#45;&gt;Node6</title>
<path fill="none" stroke="midnightblue" d="M589.146,-48C609.247,-48 634.134,-48 650.731,-48"/>
<polygon fill="midnightblue" stroke="midnightblue" points="589.14,-44.5001 579.14,-48 589.14,-51.5001 589.14,-44.5001"/>
</g>
</g>
</svg>
