<?xml version="1.0" encoding="UTF-8" standalone="no"?>
<!DOCTYPE svg PUBLIC "-//W3C//DTD SVG 1.1//EN"
 "http://www.w3.org/Graphics/SVG/1.1/DTD/svg11.dtd">
<!-- Generated by graphviz version 2.38.0 (20140413.2041)
 -->
<!-- Title: CAddrMan::Attempt_ Pages: 1 -->
<svg width="1146pt" height="85pt"
 viewBox="0.00 0.00 1146.00 85.00" xmlns="http://www.w3.org/2000/svg" xmlns:xlink="http://www.w3.org/1999/xlink">
<g id="graph0" class="graph" transform="scale(1 1) rotate(0) translate(4 81)">
<title>CAddrMan::Attempt_</title>
<polygon fill="white" stroke="none" points="-4,4 -4,-81 1142,-81 1142,4 -4,4"/>
<!-- Node1 -->
<g id="node1" class="node"><title>Node1</title>
<polygon fill="#bfbfbf" stroke="black" points="0,-19.5 0,-38.5 110,-38.5 110,-19.5 0,-19.5"/>
<text text-anchor="middle" x="55" y="-26.5" font-family="Helvetica,sans-Serif" font-size="10.00">CAddrMan::Attempt_</text>
</g>
<!-- Node2 -->
<g id="node2" class="node"><title>Node2</title>
<g id="a_node2"><a xlink:href="class_c_addr_man.html#afcddc2573121065177dc981cea710789" target="_top" xlink:title="CAddrMan::Attempt">
<polygon fill="white" stroke="black" points="146,-19.5 146,-38.5 250,-38.5 250,-19.5 146,-19.5"/>
<text text-anchor="middle" x="198" y="-26.5" font-family="Helvetica,sans-Serif" font-size="10.00">CAddrMan::Attempt</text>
</a>
</g>
</g>
<!-- Node1&#45;&gt;Node2 -->
<g id="edge1" class="edge"><title>Node1&#45;&gt;Node2</title>
<path fill="none" stroke="midnightblue" d="M120.338,-29C128.799,-29 137.378,-29 145.585,-29"/>
<polygon fill="midnightblue" stroke="midnightblue" points="120.111,-25.5001 110.111,-29 120.111,-32.5001 120.111,-25.5001"/>
</g>
<!-- Node3 -->
<g id="node3" class="node"><title>Node3</title>
<g id="a_node3"><a xlink:href="net_8h.html#a718dfaec68eabf5a2a3ebb476bf4fe67" target="_top" xlink:title="ConnectNode">
<polygon fill="white" stroke="black" points="286,-19.5 286,-38.5 364,-38.5 364,-19.5 286,-19.5"/>
<text text-anchor="middle" x="325" y="-26.5" font-family="Helvetica,sans-Serif" font-size="10.00">ConnectNode</text>
</a>
</g>
</g>
<!-- Node2&#45;&gt;Node3 -->
<g id="edge2" class="edge"><title>Node2&#45;&gt;Node3</title>
<path fill="none" stroke="midnightblue" d="M260.309,-29C268.963,-29 277.648,-29 285.7,-29"/>
<polygon fill="midnightblue" stroke="midnightblue" points="260.203,-25.5001 250.203,-29 260.203,-32.5001 260.203,-25.5001"/>
</g>
<!-- Node4 -->
<g id="node4" class="node"><title>Node4</title>
<g id="a_node4"><a xlink:href="net_8cpp.html#aa19cb8e6cf23a990e585f2bbf9ece276" target="_top" xlink:title="OpenNetworkConnection">
<polygon fill="white" stroke="black" points="400,-38.5 400,-57.5 528,-57.5 528,-38.5 400,-38.5"/>
<text text-anchor="middle" x="464" y="-45.5" font-family="Helvetica,sans-Serif" font-size="10.00">OpenNetworkConnection</text>
</a>
</g>
</g>
<!-- Node3&#45;&gt;Node4 -->
<g id="edge3" class="edge"><title>Node3&#45;&gt;Node4</title>
<path fill="none" stroke="midnightblue" d="M374.07,-35.6666C382.404,-36.8224 391.181,-38.0398 399.845,-39.2412"/>
<polygon fill="midnightblue" stroke="midnightblue" points="374.548,-32.1995 364.162,-34.2926 373.587,-39.1332 374.548,-32.1995"/>
</g>
<!-- Node12 -->
<g id="node12" class="node"><title>Node12</title>
<g id="a_node12"><a xlink:href="rpcnet_8cpp.html#ab455bfd729ba34d3bb55b716e62405a3" target="_top" xlink:title="addnode">
<polygon fill="white" stroke="black" points="436.5,-0.5 436.5,-19.5 491.5,-19.5 491.5,-0.5 436.5,-0.5"/>
<text text-anchor="middle" x="464" y="-7.5" font-family="Helvetica,sans-Serif" font-size="10.00">addnode</text>
</a>
</g>
</g>
<!-- Node3&#45;&gt;Node12 -->
<g id="edge12" class="edge"><title>Node3&#45;&gt;Node12</title>
<path fill="none" stroke="midnightblue" d="M374.148,-22.3225C395.022,-19.4275 418.67,-16.148 436.318,-13.7004"/>
<polygon fill="midnightblue" stroke="midnightblue" points="373.587,-18.8668 364.162,-23.7074 374.548,-25.8005 373.587,-18.8668"/>
</g>
<!-- Node5 -->
<g id="node5" class="node"><title>Node5</title>
<g id="a_node5"><a xlink:href="net_8cpp.html#a3b4720330e61127963a43df26b80f804" target="_top" xlink:title="ThreadOpenConnections">
<polygon fill="white" stroke="black" points="578.5,-57.5 578.5,-76.5 706.5,-76.5 706.5,-57.5 578.5,-57.5"/>
<text text-anchor="middle" x="642.5" y="-64.5" font-family="Helvetica,sans-Serif" font-size="10.00">ThreadOpenConnections</text>
</a>
</g>
</g>
<!-- Node4&#45;&gt;Node5 -->
<g id="edge4" class="edge"><title>Node4&#45;&gt;Node5</title>
<path fill="none" stroke="midnightblue" d="M538.301,-55.8907C551.628,-57.3254 565.423,-58.8104 578.423,-60.2098"/>
<polygon fill="midnightblue" stroke="midnightblue" points="538.539,-52.3963 528.222,-54.8058 537.79,-59.3561 538.539,-52.3963"/>
</g>
<!-- Node11 -->
<g id="node11" class="node"><title>Node11</title>
<g id="a_node11"><a xlink:href="net_8cpp.html#a2d1ca95557ae336582b886a251e7fe94" target="_top" xlink:title="ThreadOpenAddedConnections">
<polygon fill="white" stroke="black" points="564,-19.5 564,-38.5 721,-38.5 721,-19.5 564,-19.5"/>
<text text-anchor="middle" x="642.5" y="-26.5" font-family="Helvetica,sans-Serif" font-size="10.00">ThreadOpenAddedConnections</text>
</a>
</g>
</g>
<!-- Node4&#45;&gt;Node11 -->
<g id="edge10" class="edge"><title>Node4&#45;&gt;Node11</title>
<path fill="none" stroke="midnightblue" d="M538.394,-40.0993C546.826,-39.1916 555.444,-38.2638 563.929,-37.3504"/>
<polygon fill="midnightblue" stroke="midnightblue" points="537.79,-36.6439 528.222,-41.1942 538.539,-43.6037 537.79,-36.6439"/>
</g>
<!-- Node6 -->
<g id="node6" class="node"><title>Node6</title>
<g id="a_node6"><a xlink:href="net_8h.html#a9396d8054e8f74959e9391871aaddde0" target="_top" xlink:title="StartNode">
<polygon fill="white" stroke="black" points="757,-38.5 757,-57.5 819,-57.5 819,-38.5 757,-38.5"/>
<text text-anchor="middle" x="788" y="-45.5" font-family="Helvetica,sans-Serif" font-size="10.00">StartNode</text>
</a>
</g>
</g>
<!-- Node5&#45;&gt;Node6 -->
<g id="edge5" class="edge"><title>Node5&#45;&gt;Node6</title>
<path fill="none" stroke="midnightblue" d="M717.111,-57.2536C731.209,-55.3869 745.212,-53.5329 756.94,-51.9801"/>
<polygon fill="midnightblue" stroke="midnightblue" points="716.313,-53.8286 706.859,-58.611 717.232,-60.7681 716.313,-53.8286"/>
</g>
<!-- Node7 -->
<g id="node7" class="node"><title>Node7</title>
<g id="a_node7"><a xlink:href="init_8h.html#a1a4c1bfbf6ba1db77e988b89b9cadfd3" target="_top" xlink:title="Initialize anoncoin. ">
<polygon fill="white" stroke="black" points="855,-38.5 855,-57.5 908,-57.5 908,-38.5 855,-38.5"/>
<text text-anchor="middle" x="881.5" y="-45.5" font-family="Helvetica,sans-Serif" font-size="10.00">AppInit2</text>
</a>
</g>
</g>
<!-- Node6&#45;&gt;Node7 -->
<g id="edge6" class="edge"><title>Node6&#45;&gt;Node7</title>
<path fill="none" stroke="midnightblue" d="M829.243,-48C837.959,-48 846.944,-48 854.91,-48"/>
<polygon fill="midnightblue" stroke="midnightblue" points="829.214,-44.5001 819.214,-48 829.214,-51.5001 829.214,-44.5001"/>
</g>
<!-- Node8 -->
<g id="node8" class="node"><title>Node8</title>
<g id="a_node8"><a xlink:href="anoncoind_8cpp.html#ac59316b767e6984e1285f0531275286b" target="_top" xlink:title="AppInit">
<polygon fill="white" stroke="black" points="980,-57.5 980,-76.5 1028,-76.5 1028,-57.5 980,-57.5"/>
<text text-anchor="middle" x="1004" y="-64.5" font-family="Helvetica,sans-Serif" font-size="10.00">AppInit</text>
</a>
</g>
</g>
<!-- Node7&#45;&gt;Node8 -->
<g id="edge7" class="edge"><title>Node7&#45;&gt;Node8</title>
<path fill="none" stroke="midnightblue" d="M918.05,-53.6053C938.041,-56.7576 962.421,-60.6017 979.927,-63.3619"/>
<polygon fill="midnightblue" stroke="midnightblue" points="918.478,-50.1297 908.055,-52.0294 917.388,-57.0443 918.478,-50.1297"/>
</g>
<!-- Node10 -->
<g id="node10" class="node"><title>Node10</title>
<g id="a_node10"><a xlink:href="class_anoncoin_coin.html#a9510881824d283404ac43414dbb74586" target="_top" xlink:title="AnoncoinCoin::initialize">
<polygon fill="white" stroke="black" points="944,-19.5 944,-38.5 1064,-38.5 1064,-19.5 944,-19.5"/>
<text text-anchor="middle" x="1004" y="-26.5" font-family="Helvetica,sans-Serif" font-size="10.00">AnoncoinCoin::initialize</text>
</a>
</g>
</g>
<!-- Node7&#45;&gt;Node10 -->
<g id="edge9" class="edge"><title>Node7&#45;&gt;Node10</title>
<path fill="none" stroke="midnightblue" d="M918.186,-42.3732C926.249,-41.1018 935.021,-39.7186 943.765,-38.34"/>
<polygon fill="midnightblue" stroke="midnightblue" points="917.388,-38.9557 908.055,-43.9706 918.478,-45.8703 917.388,-38.9557"/>
</g>
<!-- Node9 -->
<g id="node9" class="node"><title>Node9</title>
<g id="a_node9"><a xlink:href="anoncoind_8cpp.html#a0ddf1224851353fc92bfbff6f499fa97" target="_top" xlink:title="main">
<polygon fill="white" stroke="black" points="1100,-57.5 1100,-76.5 1138,-76.5 1138,-57.5 1100,-57.5"/>
<text text-anchor="middle" x="1119" y="-64.5" font-family="Helvetica,sans-Serif" font-size="10.00">main</text>
</a>
</g>
</g>
<!-- Node8&#45;&gt;Node9 -->
<g id="edge8" class="edge"><title>Node8&#45;&gt;Node9</title>
<path fill="none" stroke="midnightblue" d="M1038.15,-67C1058.25,-67 1083.13,-67 1099.73,-67"/>
<polygon fill="midnightblue" stroke="midnightblue" points="1038.14,-63.5001 1028.14,-67 1038.14,-70.5001 1038.14,-63.5001"/>
</g>
<!-- Node11&#45;&gt;Node6 -->
<g id="edge11" class="edge"><title>Node11&#45;&gt;Node6</title>
<path fill="none" stroke="midnightblue" d="M725.843,-39.9026C736.85,-41.3599 747.516,-42.7722 756.776,-43.9982"/>
<polygon fill="midnightblue" stroke="midnightblue" points="726.043,-36.3986 715.67,-38.5557 725.124,-43.3381 726.043,-36.3986"/>
</g>
</g>
</svg>
