<?xml version="1.0" encoding="UTF-8" standalone="no"?>
<!DOCTYPE svg PUBLIC "-//W3C//DTD SVG 1.1//EN"
 "http://www.w3.org/Graphics/SVG/1.1/DTD/svg11.dtd">
<!-- Generated by graphviz version 2.38.0 (20140413.2041)
 -->
<!-- Title: CWalletDB::WriteOrderPosNext Pages: 1 -->
<svg width="432pt" height="28pt"
 viewBox="0.00 0.00 432.00 28.00" xmlns="http://www.w3.org/2000/svg" xmlns:xlink="http://www.w3.org/1999/xlink">
<g id="graph0" class="graph" transform="scale(1 1) rotate(0) translate(4 24)">
<title>CWalletDB::WriteOrderPosNext</title>
<polygon fill="white" stroke="none" points="-4,4 -4,-24 428,-24 428,4 -4,4"/>
<!-- Node1 -->
<g id="node1" class="node"><title>Node1</title>
<polygon fill="#bfbfbf" stroke="black" points="0,-0.5 0,-19.5 158,-19.5 158,-0.5 0,-0.5"/>
<text text-anchor="middle" x="79" y="-7.5" font-family="Helvetica,sans-Serif" font-size="10.00">CWalletDB::WriteOrderPosNext</text>
</g>
<!-- Node2 -->
<g id="node2" class="node"><title>Node2</title>
<g id="a_node2"><a xlink:href="class_c_wallet.html#a7a76d68661e6879651ac0b11f2893e58" target="_top" xlink:title="Increment the next transaction order id. ">
<polygon fill="white" stroke="black" points="194,-0.5 194,-19.5 328,-19.5 328,-0.5 194,-0.5"/>
<text text-anchor="middle" x="261" y="-7.5" font-family="Helvetica,sans-Serif" font-size="10.00">CWallet::IncOrderPosNext</text>
</a>
</g>
</g>
<!-- Node1&#45;&gt;Node2 -->
<g id="edge1" class="edge"><title>Node1&#45;&gt;Node2</title>
<path fill="none" stroke="midnightblue" d="M168.219,-10C176.808,-10 185.419,-10 193.738,-10"/>
<polygon fill="midnightblue" stroke="midnightblue" points="168.165,-6.5001 158.165,-10 168.165,-13.5001 168.165,-6.5001"/>
</g>
<!-- Node3 -->
<g id="node3" class="node"><title>Node3</title>
<g id="a_node3"><a xlink:href="rpcwallet_8cpp.html#a7dcb5aa63b46944bc4874719c8e1db15" target="_top" xlink:title="movecmd">
<polygon fill="white" stroke="black" points="364,-0.5 364,-19.5 424,-19.5 424,-0.5 364,-0.5"/>
<text text-anchor="middle" x="394" y="-7.5" font-family="Helvetica,sans-Serif" font-size="10.00">movecmd</text>
</a>
</g>
</g>
<!-- Node2&#45;&gt;Node3 -->
<g id="edge2" class="edge"><title>Node2&#45;&gt;Node3</title>
<path fill="none" stroke="midnightblue" d="M338.426,-10C347.351,-10 355.998,-10 363.678,-10"/>
<polygon fill="midnightblue" stroke="midnightblue" points="338.268,-6.5001 328.268,-10 338.268,-13.5001 338.268,-6.5001"/>
</g>
</g>
</svg>
