<?xml version="1.0" encoding="UTF-8" standalone="no"?>
<!DOCTYPE svg PUBLIC "-//W3C//DTD SVG 1.1//EN"
 "http://www.w3.org/Graphics/SVG/1.1/DTD/svg11.dtd">
<!-- Generated by graphviz version 2.38.0 (20140413.2041)
 -->
<!-- Title: RPCConsole::FormatBytes Pages: 1 -->
<svg width="1348pt" height="110pt"
 viewBox="0.00 0.00 1348.00 109.50" xmlns="http://www.w3.org/2000/svg" xmlns:xlink="http://www.w3.org/1999/xlink">
<g id="graph0" class="graph" transform="scale(1 1) rotate(0) translate(4 105.5)">
<title>RPCConsole::FormatBytes</title>
<polygon fill="white" stroke="none" points="-4,4 -4,-105.5 1344,-105.5 1344,4 -4,4"/>
<!-- Node1 -->
<g id="node1" class="node"><title>Node1</title>
<polygon fill="#bfbfbf" stroke="black" points="0,-54.5 0,-73.5 137,-73.5 137,-54.5 0,-54.5"/>
<text text-anchor="middle" x="68.5" y="-61.5" font-family="Helvetica,sans-Serif" font-size="10.00">RPCConsole::FormatBytes</text>
</g>
<!-- Node2 -->
<g id="node2" class="node"><title>Node2</title>
<g id="a_node2"><a xlink:href="class_r_p_c_console.html#a41bc6977fc2aab06f408da81dfd2034f" target="_top" xlink:title="update traffic statistics ">
<polygon fill="white" stroke="black" points="184,-71 184,-101 322,-101 322,-71 184,-71"/>
<text text-anchor="start" x="192" y="-89" font-family="Helvetica,sans-Serif" font-size="10.00">RPCConsole::updateTraffic</text>
<text text-anchor="middle" x="253" y="-78" font-family="Helvetica,sans-Serif" font-size="10.00">Stats</text>
</a>
</g>
</g>
<!-- Node1&#45;&gt;Node2 -->
<g id="edge1" class="edge"><title>Node1&#45;&gt;Node2</title>
<path fill="none" stroke="midnightblue" d="M147.298,-73.3784C159.437,-74.8417 171.9,-76.3441 183.803,-77.779"/>
<polygon fill="midnightblue" stroke="midnightblue" points="147.544,-69.8828 137.197,-72.1607 146.706,-76.8325 147.544,-69.8828"/>
</g>
<!-- Node10 -->
<g id="node10" class="node"><title>Node10</title>
<g id="a_node10"><a xlink:href="class_r_p_c_console.html#a0bd7e2be4a07bcf4f8b20eb1881dacbb" target="_top" xlink:title="show detailed information on ui about selected node ">
<polygon fill="white" stroke="black" points="173,-32.5 173,-51.5 333,-51.5 333,-32.5 173,-32.5"/>
<text text-anchor="middle" x="253" y="-39.5" font-family="Helvetica,sans-Serif" font-size="10.00">RPCConsole::updateNodeDetail</text>
</a>
</g>
</g>
<!-- Node1&#45;&gt;Node10 -->
<g id="edge9" class="edge"><title>Node1&#45;&gt;Node10</title>
<path fill="none" stroke="midnightblue" d="M147.152,-54.6392C155.712,-53.6073 164.435,-52.5557 173.012,-51.5219"/>
<polygon fill="midnightblue" stroke="midnightblue" points="146.706,-51.1675 137.197,-55.8393 147.544,-58.1172 146.706,-51.1675"/>
</g>
<!-- Node3 -->
<g id="node3" class="node"><title>Node3</title>
<g id="a_node3"><a xlink:href="class_r_p_c_console.html#a355349a33664a07628e9ca22a60f5fa7" target="_top" xlink:title="RPCConsole::setClientModel">
<polygon fill="white" stroke="black" points="575,-38.5 575,-57.5 721,-57.5 721,-38.5 575,-38.5"/>
<text text-anchor="middle" x="648" y="-45.5" font-family="Helvetica,sans-Serif" font-size="10.00">RPCConsole::setClientModel</text>
</a>
</g>
</g>
<!-- Node2&#45;&gt;Node3 -->
<g id="edge2" class="edge"><title>Node2&#45;&gt;Node3</title>
<path fill="none" stroke="midnightblue" d="M332.229,-83.0537C389.61,-80.3413 469.337,-75.4251 539,-67 558.845,-64.5999 580.58,-60.9723 599.315,-57.5279"/>
<polygon fill="midnightblue" stroke="midnightblue" points="331.97,-79.5618 322.142,-83.5187 332.292,-86.5543 331.97,-79.5618"/>
</g>
<!-- Node4 -->
<g id="node4" class="node"><title>Node4</title>
<g id="a_node4"><a xlink:href="class_anoncoin_g_u_i.html#ab6dbbc9dae6aee55656d615c1aff5399" target="_top" xlink:title="Set the client model. ">
<polygon fill="white" stroke="black" points="757,-38.5 757,-57.5 905,-57.5 905,-38.5 757,-38.5"/>
<text text-anchor="middle" x="831" y="-45.5" font-family="Helvetica,sans-Serif" font-size="10.00">AnoncoinGUI::setClientModel</text>
</a>
</g>
</g>
<!-- Node3&#45;&gt;Node4 -->
<g id="edge3" class="edge"><title>Node3&#45;&gt;Node4</title>
<path fill="none" stroke="midnightblue" d="M731.318,-48C739.786,-48 748.35,-48 756.712,-48"/>
<polygon fill="midnightblue" stroke="midnightblue" points="731.056,-44.5001 721.056,-48 731.056,-51.5001 731.056,-44.5001"/>
</g>
<!-- Node5 -->
<g id="node5" class="node"><title>Node5</title>
<g id="a_node5"><a xlink:href="class_anoncoin_application.html#a931ed67447cc07f1e0f32327b122af01" target="_top" xlink:title="Request core shutdown. ">
<polygon fill="white" stroke="black" points="941,-58 941,-88 1048,-88 1048,-58 941,-58"/>
<text text-anchor="start" x="949" y="-76" font-family="Helvetica,sans-Serif" font-size="10.00">AnoncoinApplication</text>
<text text-anchor="middle" x="994.5" y="-65" font-family="Helvetica,sans-Serif" font-size="10.00">::requestShutdown</text>
</a>
</g>
</g>
<!-- Node4&#45;&gt;Node5 -->
<g id="edge4" class="edge"><title>Node4&#45;&gt;Node5</title>
<path fill="none" stroke="midnightblue" d="M903.501,-59.0682C916.06,-61.0123 928.921,-63.0033 940.848,-64.8496"/>
<polygon fill="midnightblue" stroke="midnightblue" points="903.935,-55.5938 893.517,-57.5227 902.864,-62.5114 903.935,-55.5938"/>
</g>
<!-- Node7 -->
<g id="node7" class="node"><title>Node7</title>
<g id="a_node7"><a xlink:href="class_anoncoin_application.html#a565d432edd9d4fc30ce60bfd8d5699e3" target="_top" xlink:title="AnoncoinApplication\l::initializeResult">
<polygon fill="white" stroke="black" points="941,-9 941,-39 1048,-39 1048,-9 941,-9"/>
<text text-anchor="start" x="949" y="-27" font-family="Helvetica,sans-Serif" font-size="10.00">AnoncoinApplication</text>
<text text-anchor="middle" x="994.5" y="-16" font-family="Helvetica,sans-Serif" font-size="10.00">::initializeResult</text>
</a>
</g>
</g>
<!-- Node4&#45;&gt;Node7 -->
<g id="edge6" class="edge"><title>Node4&#45;&gt;Node7</title>
<path fill="none" stroke="midnightblue" d="M906.431,-36.939C918.047,-35.2128 929.838,-33.4606 940.835,-31.8263"/>
<polygon fill="midnightblue" stroke="midnightblue" points="905.67,-33.5136 896.293,-38.4456 906.699,-40.4376 905.67,-33.5136"/>
</g>
<!-- Node6 -->
<g id="node6" class="node"><title>Node6</title>
<g id="a_node6"><a xlink:href="anoncoin_8cpp.html#a0ddf1224851353fc92bfbff6f499fa97" target="_top" xlink:title="main">
<polygon fill="white" stroke="black" points="1118.5,-63.5 1118.5,-82.5 1156.5,-82.5 1156.5,-63.5 1118.5,-63.5"/>
<text text-anchor="middle" x="1137.5" y="-70.5" font-family="Helvetica,sans-Serif" font-size="10.00">main</text>
</a>
</g>
</g>
<!-- Node5&#45;&gt;Node6 -->
<g id="edge5" class="edge"><title>Node5&#45;&gt;Node6</title>
<path fill="none" stroke="midnightblue" d="M1058.29,-73C1080.19,-73 1103.08,-73 1118.4,-73"/>
<polygon fill="midnightblue" stroke="midnightblue" points="1058,-69.5001 1048,-73 1058,-76.5001 1058,-69.5001"/>
</g>
<!-- Node8 -->
<g id="node8" class="node"><title>Node8</title>
<g id="a_node8"><a xlink:href="class_anoncoin_application.html#a757849a7d52cb0559592ba4194f4872c" target="_top" xlink:title="AnoncoinApplication\l::startThread">
<polygon fill="white" stroke="black" points="1084,-9 1084,-39 1191,-39 1191,-9 1084,-9"/>
<text text-anchor="start" x="1092" y="-27" font-family="Helvetica,sans-Serif" font-size="10.00">AnoncoinApplication</text>
<text text-anchor="middle" x="1137.5" y="-16" font-family="Helvetica,sans-Serif" font-size="10.00">::startThread</text>
</a>
</g>
</g>
<!-- Node7&#45;&gt;Node8 -->
<g id="edge7" class="edge"><title>Node7&#45;&gt;Node8</title>
<path fill="none" stroke="midnightblue" d="M1058.05,-24C1066.7,-24 1075.51,-24 1083.95,-24"/>
<polygon fill="midnightblue" stroke="midnightblue" points="1058,-20.5001 1048,-24 1058,-27.5001 1058,-20.5001"/>
</g>
<!-- Node9 -->
<g id="node9" class="node"><title>Node9</title>
<g id="a_node9"><a xlink:href="class_anoncoin_application.html#a4e345b36dac09420eac7edc10fa4ffcf" target="_top" xlink:title="AnoncoinApplication\l::AnoncoinApplication">
<polygon fill="white" stroke="black" points="1227,-9 1227,-39 1340,-39 1340,-9 1227,-9"/>
<text text-anchor="start" x="1235" y="-27" font-family="Helvetica,sans-Serif" font-size="10.00">AnoncoinApplication</text>
<text text-anchor="middle" x="1283.5" y="-16" font-family="Helvetica,sans-Serif" font-size="10.00">::AnoncoinApplication</text>
</a>
</g>
</g>
<!-- Node8&#45;&gt;Node9 -->
<g id="edge8" class="edge"><title>Node8&#45;&gt;Node9</title>
<path fill="none" stroke="midnightblue" d="M1201.47,-24C1209.9,-24 1218.5,-24 1226.8,-24"/>
<polygon fill="midnightblue" stroke="midnightblue" points="1201.3,-20.5001 1191.3,-24 1201.3,-27.5001 1201.3,-20.5001"/>
</g>
<!-- Node11 -->
<g id="node11" class="node"><title>Node11</title>
<g id="a_node11"><a xlink:href="class_r_p_c_console.html#a2487fa6a90cddcbb17ae4bb13ecc5359" target="_top" xlink:title="Handle selection of peer in peers list. ">
<polygon fill="white" stroke="black" points="384.5,-38.5 384.5,-57.5 523.5,-57.5 523.5,-38.5 384.5,-38.5"/>
<text text-anchor="middle" x="454" y="-45.5" font-family="Helvetica,sans-Serif" font-size="10.00">RPCConsole::peerSelected</text>
</a>
</g>
</g>
<!-- Node10&#45;&gt;Node11 -->
<g id="edge10" class="edge"><title>Node10&#45;&gt;Node11</title>
<path fill="none" stroke="midnightblue" d="M343.609,-44.7018C357.279,-45.1139 371.201,-45.5337 384.328,-45.9295"/>
<polygon fill="midnightblue" stroke="midnightblue" points="343.323,-41.1917 333.222,-44.3886 343.112,-48.1885 343.323,-41.1917"/>
</g>
<!-- Node12 -->
<g id="node12" class="node"><title>Node12</title>
<g id="a_node12"><a xlink:href="class_r_p_c_console.html#af952ebc6484c8f7d1262fa0bceed41bf" target="_top" xlink:title="Handle updated peer information. ">
<polygon fill="white" stroke="black" points="369,-0.5 369,-19.5 539,-19.5 539,-0.5 369,-0.5"/>
<text text-anchor="middle" x="454" y="-7.5" font-family="Helvetica,sans-Serif" font-size="10.00">RPCConsole::peerLayoutChanged</text>
</a>
</g>
</g>
<!-- Node10&#45;&gt;Node12 -->
<g id="edge12" class="edge"><title>Node10&#45;&gt;Node12</title>
<path fill="none" stroke="midnightblue" d="M323.197,-30.8729C346.181,-27.177 371.55,-23.0976 393.717,-19.533"/>
<polygon fill="midnightblue" stroke="midnightblue" points="322.485,-27.4422 313.168,-32.4856 323.597,-34.3535 322.485,-27.4422"/>
</g>
<!-- Node11&#45;&gt;Node3 -->
<g id="edge11" class="edge"><title>Node11&#45;&gt;Node3</title>
<path fill="none" stroke="midnightblue" d="M533.806,-48C547.426,-48 561.523,-48 574.952,-48"/>
<polygon fill="midnightblue" stroke="midnightblue" points="533.503,-44.5001 523.503,-48 533.503,-51.5001 533.503,-44.5001"/>
</g>
<!-- Node12&#45;&gt;Node3 -->
<g id="edge13" class="edge"><title>Node12&#45;&gt;Node3</title>
<path fill="none" stroke="midnightblue" d="M513.298,-21.5381C540.683,-26.958 572.933,-33.341 598.899,-38.4799"/>
<polygon fill="midnightblue" stroke="midnightblue" points="513.939,-18.0972 503.45,-19.589 512.58,-24.964 513.939,-18.0972"/>
</g>
</g>
</svg>
