<?xml version="1.0" encoding="UTF-8" standalone="no"?>
<!DOCTYPE svg PUBLIC "-//W3C//DTD SVG 1.1//EN"
 "http://www.w3.org/Graphics/SVG/1.1/DTD/svg11.dtd">
<!-- Generated by graphviz version 2.38.0 (20140413.2041)
 -->
<!-- Title: RecentRequestsTableModel::getAmountTitle Pages: 1 -->
<svg width="693pt" height="61pt"
 viewBox="0.00 0.00 693.00 61.00" xmlns="http://www.w3.org/2000/svg" xmlns:xlink="http://www.w3.org/1999/xlink">
<g id="graph0" class="graph" transform="scale(1 1) rotate(0) translate(4 57)">
<title>RecentRequestsTableModel::getAmountTitle</title>
<polygon fill="white" stroke="none" points="-4,4 -4,-57 689,-57 689,4 -4,4"/>
<!-- Node1 -->
<g id="node1" class="node"><title>Node1</title>
<polygon fill="#bfbfbf" stroke="black" points="0,-22.5 0,-52.5 143,-52.5 143,-22.5 0,-22.5"/>
<text text-anchor="start" x="8" y="-40.5" font-family="Helvetica,sans-Serif" font-size="10.00">RecentRequestsTableModel</text>
<text text-anchor="middle" x="71.5" y="-29.5" font-family="Helvetica,sans-Serif" font-size="10.00">::getAmountTitle</text>
</g>
<!-- Node2 -->
<g id="node2" class="node"><title>Node2</title>
<g id="a_node2"><a xlink:href="class_recent_requests_table_model.html#ab3ef691b8c34e6d6e5ae0bdf7953a360" target="_top" xlink:title="RecentRequestsTableModel\l::RecentRequestsTableModel">
<polygon fill="white" stroke="black" points="537,-22.5 537,-52.5 685,-52.5 685,-22.5 537,-22.5"/>
<text text-anchor="start" x="545" y="-40.5" font-family="Helvetica,sans-Serif" font-size="10.00">RecentRequestsTableModel</text>
<text text-anchor="middle" x="611" y="-29.5" font-family="Helvetica,sans-Serif" font-size="10.00">::RecentRequestsTableModel</text>
</a>
</g>
</g>
<!-- Node1&#45;&gt;Node2 -->
<g id="edge1" class="edge"><title>Node1&#45;&gt;Node2</title>
<path fill="none" stroke="midnightblue" d="M153.371,-39.1778C162.022,-39.3098 170.693,-39.422 179,-39.5 322.105,-40.8436 357.895,-40.8128 501,-39.5 512.545,-39.3941 524.777,-39.2251 536.713,-39.0291"/>
<polygon fill="midnightblue" stroke="midnightblue" points="153.302,-35.6763 143.247,-39.0146 153.189,-42.6754 153.302,-35.6763"/>
</g>
<!-- Node3 -->
<g id="node3" class="node"><title>Node3</title>
<g id="a_node3"><a xlink:href="class_recent_requests_table_model.html#a8bc224f31142bd2da1c2729010ee84a3" target="_top" xlink:title="Updates the column title to &quot;Amount (DisplayUnit)&quot; and emits headerDataChanged() signal for table hea...">
<polygon fill="white" stroke="black" points="179,-0.5 179,-30.5 322,-30.5 322,-0.5 179,-0.5"/>
<text text-anchor="start" x="187" y="-18.5" font-family="Helvetica,sans-Serif" font-size="10.00">RecentRequestsTableModel</text>
<text text-anchor="middle" x="250.5" y="-7.5" font-family="Helvetica,sans-Serif" font-size="10.00">::updateAmountColumnTitle</text>
</a>
</g>
</g>
<!-- Node1&#45;&gt;Node3 -->
<g id="edge2" class="edge"><title>Node1&#45;&gt;Node3</title>
<path fill="none" stroke="midnightblue" d="M153.214,-27.4677C161.784,-26.4025 170.453,-25.3251 178.894,-24.2759"/>
<polygon fill="midnightblue" stroke="midnightblue" points="152.71,-24.0034 143.218,-28.7102 153.574,-30.9499 152.71,-24.0034"/>
</g>
<!-- Node4 -->
<g id="node4" class="node"><title>Node4</title>
<g id="a_node4"><a xlink:href="class_recent_requests_table_model.html#a8c4fe82f628df4e3a46809514ba9fe03" target="_top" xlink:title="RecentRequestsTableModel\l::updateDisplayUnit">
<polygon fill="white" stroke="black" points="358,-0.5 358,-30.5 501,-30.5 501,-0.5 358,-0.5"/>
<text text-anchor="start" x="366" y="-18.5" font-family="Helvetica,sans-Serif" font-size="10.00">RecentRequestsTableModel</text>
<text text-anchor="middle" x="429.5" y="-7.5" font-family="Helvetica,sans-Serif" font-size="10.00">::updateDisplayUnit</text>
</a>
</g>
</g>
<!-- Node3&#45;&gt;Node4 -->
<g id="edge3" class="edge"><title>Node3&#45;&gt;Node4</title>
<path fill="none" stroke="midnightblue" d="M332.494,-15.5C340.973,-15.5 349.544,-15.5 357.894,-15.5"/>
<polygon fill="midnightblue" stroke="midnightblue" points="332.218,-12.0001 322.218,-15.5 332.218,-19.0001 332.218,-12.0001"/>
</g>
<!-- Node4&#45;&gt;Node2 -->
<g id="edge4" class="edge"><title>Node4&#45;&gt;Node2</title>
<path fill="none" stroke="midnightblue" d="M511.124,-25.3815C519.65,-26.4265 528.287,-27.4851 536.723,-28.519"/>
<polygon fill="midnightblue" stroke="midnightblue" points="511.537,-21.906 501.185,-24.1634 510.685,-28.854 511.537,-21.906"/>
</g>
</g>
</svg>
