<?xml version="1.0" encoding="UTF-8" standalone="no"?>
<!DOCTYPE svg PUBLIC "-//W3C//DTD SVG 1.1//EN"
 "http://www.w3.org/Graphics/SVG/1.1/DTD/svg11.dtd">
<!-- Generated by graphviz version 2.38.0 (20140413.2041)
 -->
<!-- Title: ClientModel::getNumConnections Pages: 1 -->
<svg width="1180pt" height="135pt"
 viewBox="0.00 0.00 1180.00 134.50" xmlns="http://www.w3.org/2000/svg" xmlns:xlink="http://www.w3.org/1999/xlink">
<g id="graph0" class="graph" transform="scale(1 1) rotate(0) translate(4 130.5)">
<title>ClientModel::getNumConnections</title>
<polygon fill="white" stroke="none" points="-4,4 -4,-130.5 1176,-130.5 1176,4 -4,4"/>
<!-- Node1 -->
<g id="node1" class="node"><title>Node1</title>
<polygon fill="#bfbfbf" stroke="black" points="0,-57.5 0,-76.5 165,-76.5 165,-57.5 0,-57.5"/>
<text text-anchor="middle" x="82.5" y="-64.5" font-family="Helvetica,sans-Serif" font-size="10.00">ClientModel::getNumConnections</text>
</g>
<!-- Node2 -->
<g id="node2" class="node"><title>Node2</title>
<g id="a_node2"><a xlink:href="class_anoncoin_g_u_i.html#ab6dbbc9dae6aee55656d615c1aff5399" target="_top" xlink:title="Set the client model. ">
<polygon fill="white" stroke="black" points="589,-76.5 589,-95.5 737,-95.5 737,-76.5 589,-76.5"/>
<text text-anchor="middle" x="663" y="-83.5" font-family="Helvetica,sans-Serif" font-size="10.00">AnoncoinGUI::setClientModel</text>
</a>
</g>
</g>
<!-- Node1&#45;&gt;Node2 -->
<g id="edge1" class="edge"><title>Node1&#45;&gt;Node2</title>
<path fill="none" stroke="midnightblue" d="M115.315,-80.2888C138.585,-89.2616 171.166,-100.296 201,-105 355.535,-129.367 397.138,-118.483 553,-105 574.434,-103.146 597.977,-99.2774 617.68,-95.512"/>
<polygon fill="midnightblue" stroke="midnightblue" points="116.534,-77.0073 105.947,-76.594 113.966,-83.5191 116.534,-77.0073"/>
</g>
<!-- Node8 -->
<g id="node8" class="node"><title>Node8</title>
<g id="a_node8"><a xlink:href="class_client_model.html#acd447f61bfd57267a31a0aa88c176ee6" target="_top" xlink:title="Return true if core is importing blocks. ">
<polygon fill="white" stroke="black" points="213.5,-76.5 213.5,-95.5 358.5,-95.5 358.5,-76.5 213.5,-76.5"/>
<text text-anchor="middle" x="286" y="-83.5" font-family="Helvetica,sans-Serif" font-size="10.00">ClientModel::getBlockSource</text>
</a>
</g>
</g>
<!-- Node1&#45;&gt;Node8 -->
<g id="edge7" class="edge"><title>Node1&#45;&gt;Node8</title>
<path fill="none" stroke="midnightblue" d="M175.319,-75.6579C188.048,-76.8581 200.968,-78.0764 213.259,-79.2354"/>
<polygon fill="midnightblue" stroke="midnightblue" points="175.452,-72.1549 165.167,-74.7006 174.795,-79.124 175.452,-72.1549"/>
</g>
<!-- Node10 -->
<g id="node10" class="node"><title>Node10</title>
<g id="a_node10"><a xlink:href="class_r_p_c_console.html#a355349a33664a07628e9ca22a60f5fa7" target="_top" xlink:title="RPCConsole::setClientModel">
<polygon fill="white" stroke="black" points="407,-38.5 407,-57.5 553,-57.5 553,-38.5 407,-38.5"/>
<text text-anchor="middle" x="480" y="-45.5" font-family="Helvetica,sans-Serif" font-size="10.00">RPCConsole::setClientModel</text>
</a>
</g>
</g>
<!-- Node1&#45;&gt;Node10 -->
<g id="edge10" class="edge"><title>Node1&#45;&gt;Node10</title>
<path fill="none" stroke="midnightblue" d="M175.651,-62.573C246.099,-59.1887 341.847,-54.5889 406.792,-51.4689"/>
<polygon fill="midnightblue" stroke="midnightblue" points="175.268,-59.0873 165.448,-63.0632 175.604,-66.0792 175.268,-59.0873"/>
</g>
<!-- Node11 -->
<g id="node11" class="node"><title>Node11</title>
<g id="a_node11"><a xlink:href="class_r_p_c_console.html#aa4546cb7812dd35704de8bf09a6ceb60" target="_top" xlink:title="Set number of connections shown in the UI. ">
<polygon fill="white" stroke="black" points="201,-0.5 201,-19.5 371,-19.5 371,-0.5 201,-0.5"/>
<text text-anchor="middle" x="286" y="-7.5" font-family="Helvetica,sans-Serif" font-size="10.00">RPCConsole::setNumConnections</text>
</a>
</g>
</g>
<!-- Node1&#45;&gt;Node11 -->
<g id="edge12" class="edge"><title>Node1&#45;&gt;Node11</title>
<path fill="none" stroke="midnightblue" d="M127.282,-54.615C164.485,-44.0912 217.124,-29.2007 251.163,-19.5716"/>
<polygon fill="midnightblue" stroke="midnightblue" points="125.896,-51.3696 117.227,-57.4595 127.802,-58.1053 125.896,-51.3696"/>
</g>
<!-- Node3 -->
<g id="node3" class="node"><title>Node3</title>
<g id="a_node3"><a xlink:href="class_anoncoin_application.html#a931ed67447cc07f1e0f32327b122af01" target="_top" xlink:title="Request core shutdown. ">
<polygon fill="white" stroke="black" points="773,-96 773,-126 880,-126 880,-96 773,-96"/>
<text text-anchor="start" x="781" y="-114" font-family="Helvetica,sans-Serif" font-size="10.00">AnoncoinApplication</text>
<text text-anchor="middle" x="826.5" y="-103" font-family="Helvetica,sans-Serif" font-size="10.00">::requestShutdown</text>
</a>
</g>
</g>
<!-- Node2&#45;&gt;Node3 -->
<g id="edge2" class="edge"><title>Node2&#45;&gt;Node3</title>
<path fill="none" stroke="midnightblue" d="M735.501,-97.0682C748.06,-99.0123 760.921,-101.003 772.848,-102.85"/>
<polygon fill="midnightblue" stroke="midnightblue" points="735.935,-93.5938 725.517,-95.5227 734.864,-100.511 735.935,-93.5938"/>
</g>
<!-- Node5 -->
<g id="node5" class="node"><title>Node5</title>
<g id="a_node5"><a xlink:href="class_anoncoin_application.html#a565d432edd9d4fc30ce60bfd8d5699e3" target="_top" xlink:title="AnoncoinApplication\l::initializeResult">
<polygon fill="white" stroke="black" points="773,-47 773,-77 880,-77 880,-47 773,-47"/>
<text text-anchor="start" x="781" y="-65" font-family="Helvetica,sans-Serif" font-size="10.00">AnoncoinApplication</text>
<text text-anchor="middle" x="826.5" y="-54" font-family="Helvetica,sans-Serif" font-size="10.00">::initializeResult</text>
</a>
</g>
</g>
<!-- Node2&#45;&gt;Node5 -->
<g id="edge4" class="edge"><title>Node2&#45;&gt;Node5</title>
<path fill="none" stroke="midnightblue" d="M738.431,-74.939C750.047,-73.2128 761.838,-71.4606 772.835,-69.8263"/>
<polygon fill="midnightblue" stroke="midnightblue" points="737.67,-71.5136 728.293,-76.4456 738.699,-78.4376 737.67,-71.5136"/>
</g>
<!-- Node4 -->
<g id="node4" class="node"><title>Node4</title>
<g id="a_node4"><a xlink:href="anoncoin_8cpp.html#a0ddf1224851353fc92bfbff6f499fa97" target="_top" xlink:title="main">
<polygon fill="white" stroke="black" points="950.5,-101.5 950.5,-120.5 988.5,-120.5 988.5,-101.5 950.5,-101.5"/>
<text text-anchor="middle" x="969.5" y="-108.5" font-family="Helvetica,sans-Serif" font-size="10.00">main</text>
</a>
</g>
</g>
<!-- Node3&#45;&gt;Node4 -->
<g id="edge3" class="edge"><title>Node3&#45;&gt;Node4</title>
<path fill="none" stroke="midnightblue" d="M890.295,-111C912.187,-111 935.082,-111 950.4,-111"/>
<polygon fill="midnightblue" stroke="midnightblue" points="890.003,-107.5 880.003,-111 890.003,-114.5 890.003,-107.5"/>
</g>
<!-- Node6 -->
<g id="node6" class="node"><title>Node6</title>
<g id="a_node6"><a xlink:href="class_anoncoin_application.html#a757849a7d52cb0559592ba4194f4872c" target="_top" xlink:title="AnoncoinApplication\l::startThread">
<polygon fill="white" stroke="black" points="916,-47 916,-77 1023,-77 1023,-47 916,-47"/>
<text text-anchor="start" x="924" y="-65" font-family="Helvetica,sans-Serif" font-size="10.00">AnoncoinApplication</text>
<text text-anchor="middle" x="969.5" y="-54" font-family="Helvetica,sans-Serif" font-size="10.00">::startThread</text>
</a>
</g>
</g>
<!-- Node5&#45;&gt;Node6 -->
<g id="edge5" class="edge"><title>Node5&#45;&gt;Node6</title>
<path fill="none" stroke="midnightblue" d="M890.05,-62C898.7,-62 907.51,-62 915.953,-62"/>
<polygon fill="midnightblue" stroke="midnightblue" points="890.003,-58.5001 880.003,-62 890.003,-65.5001 890.003,-58.5001"/>
</g>
<!-- Node7 -->
<g id="node7" class="node"><title>Node7</title>
<g id="a_node7"><a xlink:href="class_anoncoin_application.html#a4e345b36dac09420eac7edc10fa4ffcf" target="_top" xlink:title="AnoncoinApplication\l::AnoncoinApplication">
<polygon fill="white" stroke="black" points="1059,-47 1059,-77 1172,-77 1172,-47 1059,-47"/>
<text text-anchor="start" x="1067" y="-65" font-family="Helvetica,sans-Serif" font-size="10.00">AnoncoinApplication</text>
<text text-anchor="middle" x="1115.5" y="-54" font-family="Helvetica,sans-Serif" font-size="10.00">::AnoncoinApplication</text>
</a>
</g>
</g>
<!-- Node6&#45;&gt;Node7 -->
<g id="edge6" class="edge"><title>Node6&#45;&gt;Node7</title>
<path fill="none" stroke="midnightblue" d="M1033.47,-62C1041.9,-62 1050.5,-62 1058.8,-62"/>
<polygon fill="midnightblue" stroke="midnightblue" points="1033.3,-58.5001 1023.3,-62 1033.3,-65.5001 1033.3,-58.5001"/>
</g>
<!-- Node9 -->
<g id="node9" class="node"><title>Node9</title>
<g id="a_node9"><a xlink:href="class_anoncoin_g_u_i.html#a65993507b442bd334614ea6eb46dec91" target="_top" xlink:title="Set number of blocks shown in the UI. ">
<polygon fill="white" stroke="black" points="407.5,-76.5 407.5,-95.5 552.5,-95.5 552.5,-76.5 407.5,-76.5"/>
<text text-anchor="middle" x="480" y="-83.5" font-family="Helvetica,sans-Serif" font-size="10.00">AnoncoinGUI::setNumBlocks</text>
</a>
</g>
</g>
<!-- Node8&#45;&gt;Node9 -->
<g id="edge8" class="edge"><title>Node8&#45;&gt;Node9</title>
<path fill="none" stroke="midnightblue" d="M368.918,-86C381.689,-86 394.8,-86 407.32,-86"/>
<polygon fill="midnightblue" stroke="midnightblue" points="368.767,-82.5001 358.767,-86 368.767,-89.5001 368.767,-82.5001"/>
</g>
<!-- Node9&#45;&gt;Node2 -->
<g id="edge9" class="edge"><title>Node9&#45;&gt;Node2</title>
<path fill="none" stroke="midnightblue" d="M562.714,-86C571.445,-86 580.285,-86 588.906,-86"/>
<polygon fill="midnightblue" stroke="midnightblue" points="562.536,-82.5001 552.536,-86 562.536,-89.5001 562.536,-82.5001"/>
</g>
<!-- Node10&#45;&gt;Node2 -->
<g id="edge11" class="edge"><title>Node10&#45;&gt;Node2</title>
<path fill="none" stroke="midnightblue" d="M536.638,-59.681C562.307,-65.0699 592.391,-71.3861 616.654,-76.4799"/>
<polygon fill="midnightblue" stroke="midnightblue" points="537.18,-56.2184 526.674,-57.589 535.741,-63.0691 537.18,-56.2184"/>
</g>
<!-- Node11&#45;&gt;Node10 -->
<g id="edge13" class="edge"><title>Node11&#45;&gt;Node10</title>
<path fill="none" stroke="midnightblue" d="M345.298,-21.5381C372.683,-26.958 404.933,-33.341 430.899,-38.4799"/>
<polygon fill="midnightblue" stroke="midnightblue" points="345.939,-18.0972 335.45,-19.589 344.58,-24.964 345.939,-18.0972"/>
</g>
</g>
</svg>
