<?xml version="1.0" encoding="UTF-8" standalone="no"?>
<!DOCTYPE svg PUBLIC "-//W3C//DTD SVG 1.1//EN"
 "http://www.w3.org/Graphics/SVG/1.1/DTD/svg11.dtd">
<!-- Generated by graphviz version 2.38.0 (20140413.2041)
 -->
<!-- Title: CWalletTx::GetImmatureCredit Pages: 1 -->
<svg width="565pt" height="84pt"
 viewBox="0.00 0.00 565.00 84.00" xmlns="http://www.w3.org/2000/svg" xmlns:xlink="http://www.w3.org/1999/xlink">
<g id="graph0" class="graph" transform="scale(1 1) rotate(0) translate(4 80)">
<title>CWalletTx::GetImmatureCredit</title>
<polygon fill="white" stroke="none" points="-4,4 -4,-80 561,-80 561,4 -4,4"/>
<!-- Node1 -->
<g id="node1" class="node"><title>Node1</title>
<polygon fill="#bfbfbf" stroke="black" points="0,-28.5 0,-47.5 153,-47.5 153,-28.5 0,-28.5"/>
<text text-anchor="middle" x="76.5" y="-35.5" font-family="Helvetica,sans-Serif" font-size="10.00">CWalletTx::GetImmatureCredit</text>
</g>
<!-- Node2 -->
<g id="node2" class="node"><title>Node2</title>
<g id="a_node2"><a xlink:href="class_c_wallet.html#a9ec15c32442fcceb95425d8b36492544" target="_top" xlink:title="CWallet::GetCredit">
<polygon fill="white" stroke="black" points="189,-28.5 189,-47.5 289,-47.5 289,-28.5 189,-28.5"/>
<text text-anchor="middle" x="239" y="-35.5" font-family="Helvetica,sans-Serif" font-size="10.00">CWallet::GetCredit</text>
</a>
</g>
</g>
<!-- Node1&#45;&gt;Node2 -->
<g id="edge1" class="edge"><title>Node1&#45;&gt;Node2</title>
<path fill="none" stroke="midnightblue" d="M153.05,-38C161.721,-38 170.465,-38 178.875,-38"/>
<polygon fill="midnightblue" stroke="midnightblue" points="178.942,-41.5001 188.942,-38 178.942,-34.5001 178.942,-41.5001"/>
</g>
<!-- Node3 -->
<g id="node3" class="node"><title>Node3</title>
<g id="a_node3"><a xlink:href="core_8h.html#ad1d9a769fa327ea042e0c9fadeb4836b" target="_top" xlink:title="MoneyRange">
<polygon fill="white" stroke="black" points="325,-56.5 325,-75.5 401,-75.5 401,-56.5 325,-56.5"/>
<text text-anchor="middle" x="363" y="-63.5" font-family="Helvetica,sans-Serif" font-size="10.00">MoneyRange</text>
</a>
</g>
</g>
<!-- Node2&#45;&gt;Node3 -->
<g id="edge2" class="edge"><title>Node2&#45;&gt;Node3</title>
<path fill="none" stroke="midnightblue" d="M281.644,-47.5577C292.32,-50.0078 303.878,-52.6605 314.811,-55.1698"/>
<polygon fill="midnightblue" stroke="midnightblue" points="314.104,-58.5983 324.633,-57.424 315.669,-51.7757 314.104,-58.5983"/>
</g>
<!-- Node4 -->
<g id="node4" class="node"><title>Node4</title>
<g id="a_node4"><a xlink:href="script_8cpp.html#adc59cf67d903c1ba1ef225561b85bfce" target="_top" xlink:title="IsMine">
<polygon fill="white" stroke="black" points="340,-0.5 340,-19.5 386,-19.5 386,-0.5 340,-0.5"/>
<text text-anchor="middle" x="363" y="-7.5" font-family="Helvetica,sans-Serif" font-size="10.00">IsMine</text>
</a>
</g>
</g>
<!-- Node2&#45;&gt;Node4 -->
<g id="edge3" class="edge"><title>Node2&#45;&gt;Node4</title>
<path fill="none" stroke="midnightblue" d="M281.644,-28.4423C297.308,-24.8473 314.872,-20.8163 329.574,-17.4419"/>
<polygon fill="midnightblue" stroke="midnightblue" points="330.743,-20.7649 339.706,-15.1165 329.177,-13.9422 330.743,-20.7649"/>
</g>
<!-- Node4&#45;&gt;Node4 -->
<g id="edge5" class="edge"><title>Node4&#45;&gt;Node4</title>
<path fill="none" stroke="midnightblue" d="M343.888,-19.7571C334.59,-28.5653 340.961,-38 363,-38 377.119,-38 384.807,-34.128 386.065,-29.0292"/>
<polygon fill="midnightblue" stroke="midnightblue" points="389.254,-27.5831 382.112,-19.7571 382.815,-30.3286 389.254,-27.5831"/>
</g>
<!-- Node5 -->
<g id="node5" class="node"><title>Node5</title>
<g id="a_node5"><a xlink:href="class_c_script.html#ad1b5a9077241aa06116040c4f1b7c31e" target="_top" xlink:title="CScript::SetDestination">
<polygon fill="white" stroke="black" points="437,-0.5 437,-19.5 557,-19.5 557,-0.5 437,-0.5"/>
<text text-anchor="middle" x="497" y="-7.5" font-family="Helvetica,sans-Serif" font-size="10.00">CScript::SetDestination</text>
</a>
</g>
</g>
<!-- Node4&#45;&gt;Node5 -->
<g id="edge4" class="edge"><title>Node4&#45;&gt;Node5</title>
<path fill="none" stroke="midnightblue" d="M386.094,-10C397.424,-10 411.913,-10 426.627,-10"/>
<polygon fill="midnightblue" stroke="midnightblue" points="426.813,-13.5001 436.813,-10 426.813,-6.5001 426.813,-13.5001"/>
</g>
</g>
</svg>
