<?xml version="1.0" encoding="UTF-8" standalone="no"?>
<!DOCTYPE svg PUBLIC "-//W3C//DTD SVG 1.1//EN"
 "http://www.w3.org/Graphics/SVG/1.1/DTD/svg11.dtd">
<!-- Generated by graphviz version 2.38.0 (20140413.2041)
 -->
<!-- Title: CAnoncoinAddress::IsValid Pages: 1 -->
<svg width="331pt" height="66pt"
 viewBox="0.00 0.00 331.00 66.00" xmlns="http://www.w3.org/2000/svg" xmlns:xlink="http://www.w3.org/1999/xlink">
<g id="graph0" class="graph" transform="scale(1 1) rotate(0) translate(4 62)">
<title>CAnoncoinAddress::IsValid</title>
<polygon fill="white" stroke="none" points="-4,4 -4,-62 327,-62 327,4 -4,4"/>
<!-- Node1 -->
<g id="node1" class="node"><title>Node1</title>
<polygon fill="#bfbfbf" stroke="black" points="0,-19.5 0,-38.5 138,-38.5 138,-19.5 0,-19.5"/>
<text text-anchor="middle" x="69" y="-26.5" font-family="Helvetica,sans-Serif" font-size="10.00">CAnoncoinAddress::IsValid</text>
</g>
<!-- Node2 -->
<g id="node2" class="node"><title>Node2</title>
<g id="a_node2"><a xlink:href="chainparams_8cpp.html#ace5c5b706d71a324a417dd2db394fd4a" target="_top" xlink:title="Return the currently selected parameters. ">
<polygon fill="white" stroke="black" points="223,-38.5 223,-57.5 274,-57.5 274,-38.5 223,-38.5"/>
<text text-anchor="middle" x="248.5" y="-45.5" font-family="Helvetica,sans-Serif" font-size="10.00">Params</text>
</a>
</g>
</g>
<!-- Node1&#45;&gt;Node2 -->
<g id="edge1" class="edge"><title>Node1&#45;&gt;Node2</title>
<path fill="none" stroke="midnightblue" d="M138.118,-36.2916C163.544,-39.0131 191.36,-41.9907 212.579,-44.262"/>
<polygon fill="midnightblue" stroke="midnightblue" points="212.41,-47.7638 222.726,-45.3481 213.155,-40.8036 212.41,-47.7638"/>
</g>
<!-- Node3 -->
<g id="node3" class="node"><title>Node3</title>
<g id="a_node3"><a xlink:href="class_c_chain_params.html#a6088d3a4f45d89c90e7e6117c3c5720d" target="_top" xlink:title="CChainParams::Base58Prefix">
<polygon fill="white" stroke="black" points="174,-0.5 174,-19.5 323,-19.5 323,-0.5 174,-0.5"/>
<text text-anchor="middle" x="248.5" y="-7.5" font-family="Helvetica,sans-Serif" font-size="10.00">CChainParams::Base58Prefix</text>
</a>
</g>
</g>
<!-- Node1&#45;&gt;Node3 -->
<g id="edge2" class="edge"><title>Node1&#45;&gt;Node3</title>
<path fill="none" stroke="midnightblue" d="M138.118,-21.7084C146.551,-20.8058 155.246,-19.8751 163.877,-18.9512"/>
<polygon fill="midnightblue" stroke="midnightblue" points="164.388,-22.4166 173.959,-17.872 163.643,-15.4564 164.388,-22.4166"/>
</g>
</g>
</svg>
