<?xml version="1.0" encoding="UTF-8" standalone="no"?>
<!DOCTYPE svg PUBLIC "-//W3C//DTD SVG 1.1//EN"
 "http://www.w3.org/Graphics/SVG/1.1/DTD/svg11.dtd">
<!-- Generated by graphviz version 2.38.0 (20140413.2041)
 -->
<!-- Title: CCoinsViewCache::GetPriority Pages: 1 -->
<svg width="504pt" height="142pt"
 viewBox="0.00 0.00 504.00 142.00" xmlns="http://www.w3.org/2000/svg" xmlns:xlink="http://www.w3.org/1999/xlink">
<g id="graph0" class="graph" transform="scale(1 1) rotate(0) translate(4 138)">
<title>CCoinsViewCache::GetPriority</title>
<polygon fill="white" stroke="none" points="-4,4 -4,-138 500,-138 500,4 -4,4"/>
<!-- Node1 -->
<g id="node1" class="node"><title>Node1</title>
<polygon fill="#bfbfbf" stroke="black" points="0,-57.5 0,-76.5 153,-76.5 153,-57.5 0,-57.5"/>
<text text-anchor="middle" x="76.5" y="-64.5" font-family="Helvetica,sans-Serif" font-size="10.00">CCoinsViewCache::GetPriority</text>
</g>
<!-- Node2 -->
<g id="node2" class="node"><title>Node2</title>
<g id="a_node2"><a xlink:href="class_c_transaction.html#a274384ecbb50d71355cd287b7a6bca51" target="_top" xlink:title="CTransaction::IsCoinBase">
<polygon fill="white" stroke="black" points="199,-114.5 199,-133.5 332,-133.5 332,-114.5 199,-114.5"/>
<text text-anchor="middle" x="265.5" y="-121.5" font-family="Helvetica,sans-Serif" font-size="10.00">CTransaction::IsCoinBase</text>
</a>
</g>
</g>
<!-- Node1&#45;&gt;Node2 -->
<g id="edge1" class="edge"><title>Node1&#45;&gt;Node2</title>
<path fill="none" stroke="midnightblue" d="M103.44,-76.5148C125.915,-84.5962 159.387,-96.2436 189,-105 197.105,-107.397 205.755,-109.756 214.201,-111.953"/>
<polygon fill="midnightblue" stroke="midnightblue" points="213.421,-115.366 223.976,-114.451 215.154,-108.584 213.421,-115.366"/>
</g>
<!-- Node3 -->
<g id="node3" class="node"><title>Node3</title>
<g id="a_node3"><a xlink:href="class_c_coins_view_cache.html#aa6a5e44220f594be6d0cf2911bd39fd6" target="_top" xlink:title="CCoinsViewCache::GetCoins">
<polygon fill="white" stroke="black" points="192,-76.5 192,-95.5 339,-95.5 339,-76.5 192,-76.5"/>
<text text-anchor="middle" x="265.5" y="-83.5" font-family="Helvetica,sans-Serif" font-size="10.00">CCoinsViewCache::GetCoins</text>
</a>
</g>
</g>
<!-- Node1&#45;&gt;Node3 -->
<g id="edge2" class="edge"><title>Node1&#45;&gt;Node3</title>
<path fill="none" stroke="midnightblue" d="M153.021,-74.6733C162.401,-75.6263 172.031,-76.6047 181.515,-77.5684"/>
<polygon fill="midnightblue" stroke="midnightblue" points="181.428,-81.0774 191.73,-78.6063 182.135,-74.1133 181.428,-81.0774"/>
</g>
<!-- Node5 -->
<g id="node5" class="node"><title>Node5</title>
<g id="a_node5"><a xlink:href="class_c_coins.html#a69bdcbac02e1644cb02b2645068777b5" target="_top" xlink:title="CCoins::IsAvailable">
<polygon fill="white" stroke="black" points="214,-38.5 214,-57.5 317,-57.5 317,-38.5 214,-38.5"/>
<text text-anchor="middle" x="265.5" y="-45.5" font-family="Helvetica,sans-Serif" font-size="10.00">CCoins::IsAvailable</text>
</a>
</g>
</g>
<!-- Node1&#45;&gt;Node5 -->
<g id="edge4" class="edge"><title>Node1&#45;&gt;Node5</title>
<path fill="none" stroke="midnightblue" d="M153.021,-59.3267C169.818,-57.6201 187.419,-55.8318 203.544,-54.1934"/>
<polygon fill="midnightblue" stroke="midnightblue" points="204.31,-57.6337 213.905,-53.1407 203.602,-50.6695 204.31,-57.6337"/>
</g>
<!-- Node6 -->
<g id="node6" class="node"><title>Node6</title>
<g id="a_node6"><a xlink:href="class_c_transaction.html#ad2452fe2ae424f43e5fd767c28517b3b" target="_top" xlink:title="CTransaction::ComputePriority">
<polygon fill="white" stroke="black" points="189,-0.5 189,-19.5 342,-19.5 342,-0.5 189,-0.5"/>
<text text-anchor="middle" x="265.5" y="-7.5" font-family="Helvetica,sans-Serif" font-size="10.00">CTransaction::ComputePriority</text>
</a>
</g>
</g>
<!-- Node1&#45;&gt;Node6 -->
<g id="edge5" class="edge"><title>Node1&#45;&gt;Node6</title>
<path fill="none" stroke="midnightblue" d="M103.44,-57.4852C125.915,-49.4038 159.387,-37.7564 189,-29 197.105,-26.6034 205.755,-24.244 214.201,-22.0466"/>
<polygon fill="midnightblue" stroke="midnightblue" points="215.154,-25.4156 223.976,-19.5489 213.421,-18.6335 215.154,-25.4156"/>
</g>
<!-- Node4 -->
<g id="node4" class="node"><title>Node4</title>
<g id="a_node4"><a xlink:href="class_c_coins_view.html#a7fe9216505bc5f3d78f2938bc7b29e26" target="_top" xlink:title="CCoinsView::GetCoins">
<polygon fill="white" stroke="black" points="378,-76.5 378,-95.5 496,-95.5 496,-76.5 378,-76.5"/>
<text text-anchor="middle" x="437" y="-83.5" font-family="Helvetica,sans-Serif" font-size="10.00">CCoinsView::GetCoins</text>
</a>
</g>
</g>
<!-- Node3&#45;&gt;Node4 -->
<g id="edge3" class="edge"><title>Node3&#45;&gt;Node4</title>
<path fill="none" stroke="midnightblue" d="M339.367,-86C348.79,-86 358.412,-86 367.757,-86"/>
<polygon fill="midnightblue" stroke="midnightblue" points="367.764,-89.5001 377.764,-86 367.764,-82.5001 367.764,-89.5001"/>
</g>
<!-- Node7 -->
<g id="node7" class="node"><title>Node7</title>
<g id="a_node7"><a xlink:href="serialize_8h.html#a48239e478ae730373d1984fe304ca025" target="_top" xlink:title="GetSerializeSize">
<polygon fill="white" stroke="black" points="392,-0.5 392,-19.5 482,-19.5 482,-0.5 392,-0.5"/>
<text text-anchor="middle" x="437" y="-7.5" font-family="Helvetica,sans-Serif" font-size="10.00">GetSerializeSize</text>
</a>
</g>
</g>
<!-- Node6&#45;&gt;Node7 -->
<g id="edge6" class="edge"><title>Node6&#45;&gt;Node7</title>
<path fill="none" stroke="midnightblue" d="M342.326,-10C355.548,-10 369.063,-10 381.564,-10"/>
<polygon fill="midnightblue" stroke="midnightblue" points="381.798,-13.5001 391.798,-10 381.798,-6.5001 381.798,-13.5001"/>
</g>
</g>
</svg>
