<?xml version="1.0" encoding="UTF-8" standalone="no"?>
<!DOCTYPE svg PUBLIC "-//W3C//DTD SVG 1.1//EN"
 "http://www.w3.org/Graphics/SVG/1.1/DTD/svg11.dtd">
<!-- Generated by graphviz version 2.38.0 (20140413.2041)
 -->
<!-- Title: CWallet::GetKeyFromPool Pages: 1 -->
<svg width="666pt" height="254pt"
 viewBox="0.00 0.00 666.00 254.00" xmlns="http://www.w3.org/2000/svg" xmlns:xlink="http://www.w3.org/1999/xlink">
<g id="graph0" class="graph" transform="scale(1 1) rotate(0) translate(4 250)">
<title>CWallet::GetKeyFromPool</title>
<polygon fill="white" stroke="none" points="-4,4 -4,-250 662,-250 662,4 -4,4"/>
<!-- Node1 -->
<g id="node1" class="node"><title>Node1</title>
<polygon fill="#bfbfbf" stroke="black" points="0,-100.5 0,-119.5 134,-119.5 134,-100.5 0,-100.5"/>
<text text-anchor="middle" x="67" y="-107.5" font-family="Helvetica,sans-Serif" font-size="10.00">CWallet::GetKeyFromPool</text>
</g>
<!-- Node2 -->
<g id="node2" class="node"><title>Node2</title>
<g id="a_node2"><a xlink:href="init_8h.html#a1a4c1bfbf6ba1db77e988b89b9cadfd3" target="_top" xlink:title="Initialize anoncoin. ">
<polygon fill="white" stroke="black" points="230,-188.5 230,-207.5 283,-207.5 283,-188.5 230,-188.5"/>
<text text-anchor="middle" x="256.5" y="-195.5" font-family="Helvetica,sans-Serif" font-size="10.00">AppInit2</text>
</a>
</g>
</g>
<!-- Node1&#45;&gt;Node2 -->
<g id="edge1" class="edge"><title>Node1&#45;&gt;Node2</title>
<path fill="none" stroke="midnightblue" d="M87.3095,-125.975C106.959,-141.454 138.87,-164.511 170,-178 189.163,-186.304 212.302,-191.448 229.674,-194.436"/>
<polygon fill="midnightblue" stroke="midnightblue" points="89.4245,-123.185 79.4342,-119.657 85.044,-128.645 89.4245,-123.185"/>
</g>
<!-- Node6 -->
<g id="node6" class="node"><title>Node6</title>
<g id="a_node6"><a xlink:href="class_address_table_model.html#aa72edd2a093a6e9318639d69d3a23488" target="_top" xlink:title="AddressTableModel::\laddRow">
<polygon fill="white" stroke="black" points="201,-139 201,-169 312,-169 312,-139 201,-139"/>
<text text-anchor="start" x="209" y="-157" font-family="Helvetica,sans-Serif" font-size="10.00">AddressTableModel::</text>
<text text-anchor="middle" x="256.5" y="-146" font-family="Helvetica,sans-Serif" font-size="10.00">addRow</text>
</a>
</g>
</g>
<!-- Node1&#45;&gt;Node6 -->
<g id="edge5" class="edge"><title>Node1&#45;&gt;Node6</title>
<path fill="none" stroke="midnightblue" d="M118.486,-121.847C143.878,-127.806 174.693,-135.037 200.665,-141.132"/>
<polygon fill="midnightblue" stroke="midnightblue" points="119.22,-118.425 108.685,-119.547 117.621,-125.239 119.22,-118.425"/>
</g>
<!-- Node11 -->
<g id="node11" class="node"><title>Node11</title>
<g id="a_node11"><a xlink:href="class_payment_server.html#ab846f9e8778e5cc878b644133e8628f1" target="_top" xlink:title="PaymentServer::fetchPaymentACK">
<polygon fill="white" stroke="black" points="170,-100.5 170,-119.5 343,-119.5 343,-100.5 170,-100.5"/>
<text text-anchor="middle" x="256.5" y="-107.5" font-family="Helvetica,sans-Serif" font-size="10.00">PaymentServer::fetchPaymentACK</text>
</a>
</g>
</g>
<!-- Node1&#45;&gt;Node11 -->
<g id="edge10" class="edge"><title>Node1&#45;&gt;Node11</title>
<path fill="none" stroke="midnightblue" d="M144.299,-110C152.751,-110 161.4,-110 169.957,-110"/>
<polygon fill="midnightblue" stroke="midnightblue" points="144.106,-106.5 134.105,-110 144.105,-113.5 144.106,-106.5"/>
</g>
<!-- Node12 -->
<g id="node12" class="node"><title>Node12</title>
<g id="a_node12"><a xlink:href="rpcwallet_8cpp.html#aead824d845d670fbd8f187ebd4f9a535" target="_top" xlink:title="getnewaddress">
<polygon fill="white" stroke="black" points="214.5,-62.5 214.5,-81.5 298.5,-81.5 298.5,-62.5 214.5,-62.5"/>
<text text-anchor="middle" x="256.5" y="-69.5" font-family="Helvetica,sans-Serif" font-size="10.00">getnewaddress</text>
</a>
</g>
</g>
<!-- Node1&#45;&gt;Node12 -->
<g id="edge11" class="edge"><title>Node1&#45;&gt;Node12</title>
<path fill="none" stroke="midnightblue" d="M125.23,-98.4014C153.966,-92.5775 188.128,-85.654 214.258,-80.3584"/>
<polygon fill="midnightblue" stroke="midnightblue" points="124.42,-94.9944 115.314,-100.411 125.81,-101.855 124.42,-94.9944"/>
</g>
<!-- Node13 -->
<g id="node13" class="node"><title>Node13</title>
<g id="a_node13"><a xlink:href="rpcwallet_8cpp.html#a9f40a730390f78ad6e2c32d0ec9bf1ef" target="_top" xlink:title="GetAccountAddress">
<polygon fill="white" stroke="black" points="204,-24.5 204,-43.5 309,-43.5 309,-24.5 204,-24.5"/>
<text text-anchor="middle" x="256.5" y="-31.5" font-family="Helvetica,sans-Serif" font-size="10.00">GetAccountAddress</text>
</a>
</g>
</g>
<!-- Node1&#45;&gt;Node13 -->
<g id="edge12" class="edge"><title>Node1&#45;&gt;Node13</title>
<path fill="none" stroke="midnightblue" d="M90.6547,-94.7973C110.728,-81.9595 141.233,-63.9638 170,-53 180.657,-48.9385 192.408,-45.626 203.697,-42.9722"/>
<polygon fill="midnightblue" stroke="midnightblue" points="88.6849,-91.9032 82.2096,-100.289 92.501,-97.7716 88.6849,-91.9032"/>
</g>
<!-- Node3 -->
<g id="node3" class="node"><title>Node3</title>
<g id="a_node3"><a xlink:href="anoncoind_8cpp.html#ac59316b767e6984e1285f0531275286b" target="_top" xlink:title="AppInit">
<polygon fill="white" stroke="black" points="423,-226.5 423,-245.5 471,-245.5 471,-226.5 423,-226.5"/>
<text text-anchor="middle" x="447" y="-233.5" font-family="Helvetica,sans-Serif" font-size="10.00">AppInit</text>
</a>
</g>
</g>
<!-- Node2&#45;&gt;Node3 -->
<g id="edge2" class="edge"><title>Node2&#45;&gt;Node3</title>
<path fill="none" stroke="midnightblue" d="M293.463,-205.25C331.546,-212.927 390.533,-224.818 422.861,-231.335"/>
<polygon fill="midnightblue" stroke="midnightblue" points="293.809,-201.749 283.315,-203.204 292.426,-208.611 293.809,-201.749"/>
</g>
<!-- Node5 -->
<g id="node5" class="node"><title>Node5</title>
<g id="a_node5"><a xlink:href="class_anoncoin_coin.html#a9510881824d283404ac43414dbb74586" target="_top" xlink:title="AnoncoinCoin::initialize">
<polygon fill="white" stroke="black" points="387,-188.5 387,-207.5 507,-207.5 507,-188.5 387,-188.5"/>
<text text-anchor="middle" x="447" y="-195.5" font-family="Helvetica,sans-Serif" font-size="10.00">AnoncoinCoin::initialize</text>
</a>
</g>
</g>
<!-- Node2&#45;&gt;Node5 -->
<g id="edge4" class="edge"><title>Node2&#45;&gt;Node5</title>
<path fill="none" stroke="midnightblue" d="M293.597,-198C319.945,-198 356.245,-198 386.809,-198"/>
<polygon fill="midnightblue" stroke="midnightblue" points="293.315,-194.5 283.315,-198 293.315,-201.5 293.315,-194.5"/>
</g>
<!-- Node4 -->
<g id="node4" class="node"><title>Node4</title>
<g id="a_node4"><a xlink:href="anoncoind_8cpp.html#a0ddf1224851353fc92bfbff6f499fa97" target="_top" xlink:title="main">
<polygon fill="white" stroke="black" points="585.5,-226.5 585.5,-245.5 623.5,-245.5 623.5,-226.5 585.5,-226.5"/>
<text text-anchor="middle" x="604.5" y="-233.5" font-family="Helvetica,sans-Serif" font-size="10.00">main</text>
</a>
</g>
</g>
<!-- Node3&#45;&gt;Node4 -->
<g id="edge3" class="edge"><title>Node3&#45;&gt;Node4</title>
<path fill="none" stroke="midnightblue" d="M481.454,-236C513.29,-236 559.996,-236 585.406,-236"/>
<polygon fill="midnightblue" stroke="midnightblue" points="481.28,-232.5 471.28,-236 481.28,-239.5 481.28,-232.5"/>
</g>
<!-- Node7 -->
<g id="node7" class="node"><title>Node7</title>
<g id="a_node7"><a xlink:href="class_edit_address_dialog.html#a8494a551799cd1f4c253e557424c206c" target="_top" xlink:title="EditAddressDialog::\lsaveCurrentRow">
<polygon fill="white" stroke="black" points="395,-139 395,-169 499,-169 499,-139 395,-139"/>
<text text-anchor="start" x="403" y="-157" font-family="Helvetica,sans-Serif" font-size="10.00">EditAddressDialog::</text>
<text text-anchor="middle" x="447" y="-146" font-family="Helvetica,sans-Serif" font-size="10.00">saveCurrentRow</text>
</a>
</g>
</g>
<!-- Node6&#45;&gt;Node7 -->
<g id="edge6" class="edge"><title>Node6&#45;&gt;Node7</title>
<path fill="none" stroke="midnightblue" d="M322.339,-154C346.038,-154 372.493,-154 394.834,-154"/>
<polygon fill="midnightblue" stroke="midnightblue" points="322.022,-150.5 312.022,-154 322.022,-157.5 322.022,-150.5"/>
</g>
<!-- Node9 -->
<g id="node9" class="node"><title>Node9</title>
<g id="a_node9"><a xlink:href="class_receive_coins_dialog.html#a9db8de31f6889288cb22c061aa51e0cd" target="_top" xlink:title="ReceiveCoinsDialog\l::on_receiveButton_clicked">
<polygon fill="white" stroke="black" points="379,-90 379,-120 515,-120 515,-90 379,-90"/>
<text text-anchor="start" x="387" y="-108" font-family="Helvetica,sans-Serif" font-size="10.00">ReceiveCoinsDialog</text>
<text text-anchor="middle" x="447" y="-97" font-family="Helvetica,sans-Serif" font-size="10.00">::on_receiveButton_clicked</text>
</a>
</g>
</g>
<!-- Node6&#45;&gt;Node9 -->
<g id="edge8" class="edge"><title>Node6&#45;&gt;Node9</title>
<path fill="none" stroke="midnightblue" d="M321.71,-137.309C343.193,-131.724 367.002,-125.535 387.984,-120.081"/>
<polygon fill="midnightblue" stroke="midnightblue" points="320.82,-133.924 312.022,-139.827 322.581,-140.699 320.82,-133.924"/>
</g>
<!-- Node8 -->
<g id="node8" class="node"><title>Node8</title>
<g id="a_node8"><a xlink:href="class_edit_address_dialog.html#ac52b71129806bccf6533d0e9441393b6" target="_top" xlink:title="EditAddressDialog::\laccept">
<polygon fill="white" stroke="black" points="552.5,-139 552.5,-169 656.5,-169 656.5,-139 552.5,-139"/>
<text text-anchor="start" x="560.5" y="-157" font-family="Helvetica,sans-Serif" font-size="10.00">EditAddressDialog::</text>
<text text-anchor="middle" x="604.5" y="-146" font-family="Helvetica,sans-Serif" font-size="10.00">accept</text>
</a>
</g>
</g>
<!-- Node7&#45;&gt;Node8 -->
<g id="edge7" class="edge"><title>Node7&#45;&gt;Node8</title>
<path fill="none" stroke="midnightblue" d="M509.543,-154C523.769,-154 538.752,-154 552.472,-154"/>
<polygon fill="midnightblue" stroke="midnightblue" points="509.348,-150.5 499.347,-154 509.347,-157.5 509.348,-150.5"/>
</g>
<!-- Node10 -->
<g id="node10" class="node"><title>Node10</title>
<g id="a_node10"><a xlink:href="class_receive_coins_dialog.html#abcf17b510c473bf3e94ef12f7f5cfc10" target="_top" xlink:title="ReceiveCoinsDialog\l::keyPressEvent">
<polygon fill="white" stroke="black" points="551,-90 551,-120 658,-120 658,-90 551,-90"/>
<text text-anchor="start" x="559" y="-108" font-family="Helvetica,sans-Serif" font-size="10.00">ReceiveCoinsDialog</text>
<text text-anchor="middle" x="604.5" y="-97" font-family="Helvetica,sans-Serif" font-size="10.00">::keyPressEvent</text>
</a>
</g>
</g>
<!-- Node9&#45;&gt;Node10 -->
<g id="edge9" class="edge"><title>Node9&#45;&gt;Node10</title>
<path fill="none" stroke="midnightblue" d="M525.326,-105C533.89,-105 542.462,-105 550.624,-105"/>
<polygon fill="midnightblue" stroke="midnightblue" points="525.3,-101.5 515.3,-105 525.3,-108.5 525.3,-101.5"/>
</g>
<!-- Node14 -->
<g id="node14" class="node"><title>Node14</title>
<g id="a_node14"><a xlink:href="rpcwallet_8cpp.html#a92145bcb3cfb45eb47dca18f1c94c434" target="_top" xlink:title="getaccountaddress">
<polygon fill="white" stroke="black" points="396.5,-38.5 396.5,-57.5 497.5,-57.5 497.5,-38.5 396.5,-38.5"/>
<text text-anchor="middle" x="447" y="-45.5" font-family="Helvetica,sans-Serif" font-size="10.00">getaccountaddress</text>
</a>
</g>
</g>
<!-- Node13&#45;&gt;Node14 -->
<g id="edge13" class="edge"><title>Node13&#45;&gt;Node14</title>
<path fill="none" stroke="midnightblue" d="M319.111,-38.5759C344.086,-40.4308 372.55,-42.5448 396.181,-44.2999"/>
<polygon fill="midnightblue" stroke="midnightblue" points="319.24,-35.0759 309.008,-37.8256 318.722,-42.0567 319.24,-35.0759"/>
</g>
<!-- Node15 -->
<g id="node15" class="node"><title>Node15</title>
<g id="a_node15"><a xlink:href="rpcwallet_8cpp.html#a6bf0dc200554f841a4549a2e5087f699" target="_top" xlink:title="setaccount">
<polygon fill="white" stroke="black" points="414.5,-0.5 414.5,-19.5 479.5,-19.5 479.5,-0.5 414.5,-0.5"/>
<text text-anchor="middle" x="447" y="-7.5" font-family="Helvetica,sans-Serif" font-size="10.00">setaccount</text>
</a>
</g>
</g>
<!-- Node13&#45;&gt;Node15 -->
<g id="edge14" class="edge"><title>Node13&#45;&gt;Node15</title>
<path fill="none" stroke="midnightblue" d="M319.119,-26.1546C350.94,-22.1032 388.421,-17.331 414.356,-14.0289"/>
<polygon fill="midnightblue" stroke="midnightblue" points="318.486,-22.7068 309.008,-27.4419 319.37,-29.6508 318.486,-22.7068"/>
</g>
</g>
</svg>
