<?xml version="1.0" encoding="UTF-8" standalone="no"?>
<!DOCTYPE svg PUBLIC "-//W3C//DTD SVG 1.1//EN"
 "http://www.w3.org/Graphics/SVG/1.1/DTD/svg11.dtd">
<!-- Generated by graphviz version 2.38.0 (20140413.2041)
 -->
<!-- Title: WalletModel::updateTransaction Pages: 1 -->
<svg width="1502pt" height="686pt"
 viewBox="0.00 0.00 1502.00 686.00" xmlns="http://www.w3.org/2000/svg" xmlns:xlink="http://www.w3.org/1999/xlink">
<g id="graph0" class="graph" transform="scale(1 1) rotate(0) translate(4 682)">
<title>WalletModel::updateTransaction</title>
<polygon fill="white" stroke="none" points="-4,4 -4,-682 1498,-682 1498,4 -4,4"/>
<!-- Node1 -->
<g id="node1" class="node"><title>Node1</title>
<polygon fill="#bfbfbf" stroke="black" points="0,-335.5 0,-354.5 160,-354.5 160,-335.5 0,-335.5"/>
<text text-anchor="middle" x="80" y="-342.5" font-family="Helvetica,sans-Serif" font-size="10.00">WalletModel::updateTransaction</text>
</g>
<!-- Node2 -->
<g id="node2" class="node"><title>Node2</title>
<g id="a_node2"><a xlink:href="class_transaction_table_model.html#abb93b1812f27622f67aed0302bc90ee6" target="_top" xlink:title="TransactionTableModel\l::updateTransaction">
<polygon fill="white" stroke="black" points="196,-330 196,-360 317,-360 317,-330 196,-330"/>
<text text-anchor="start" x="204" y="-348" font-family="Helvetica,sans-Serif" font-size="10.00">TransactionTableModel</text>
<text text-anchor="middle" x="256.5" y="-337" font-family="Helvetica,sans-Serif" font-size="10.00">::updateTransaction</text>
</a>
</g>
</g>
<!-- Node1&#45;&gt;Node2 -->
<g id="edge1" class="edge"><title>Node1&#45;&gt;Node2</title>
<path fill="none" stroke="midnightblue" d="M160.081,-345C168.608,-345 177.239,-345 185.646,-345"/>
<polygon fill="midnightblue" stroke="midnightblue" points="185.767,-348.5 195.767,-345 185.767,-341.5 185.767,-348.5"/>
</g>
<!-- Node3 -->
<g id="node3" class="node"><title>Node3</title>
<g id="a_node3"><a xlink:href="classbase__uint.html#ade1a897fac931f28f54998c92c797228" target="_top" xlink:title="base_uint::SetHex">
<polygon fill="white" stroke="black" points="359.5,-400.5 359.5,-419.5 457.5,-419.5 457.5,-400.5 359.5,-400.5"/>
<text text-anchor="middle" x="408.5" y="-407.5" font-family="Helvetica,sans-Serif" font-size="10.00">base_uint::SetHex</text>
</a>
</g>
</g>
<!-- Node2&#45;&gt;Node3 -->
<g id="edge2" class="edge"><title>Node2&#45;&gt;Node3</title>
<path fill="none" stroke="midnightblue" d="M292.29,-360.076C317.656,-371.068 351.735,-385.835 376.238,-396.453"/>
<polygon fill="midnightblue" stroke="midnightblue" points="374.88,-399.679 385.448,-400.444 377.664,-393.256 374.88,-399.679"/>
</g>
<!-- Node5 -->
<g id="node5" class="node"><title>Node5</title>
<g id="a_node5"><a xlink:href="class_transaction_table_priv.html#a27eb6d3e1f7717dd2cad80c5ce48f404" target="_top" xlink:title="TransactionTablePriv\l::updateWallet">
<polygon fill="white" stroke="black" points="353,-266 353,-296 464,-296 464,-266 353,-266"/>
<text text-anchor="start" x="361" y="-284" font-family="Helvetica,sans-Serif" font-size="10.00">TransactionTablePriv</text>
<text text-anchor="middle" x="408.5" y="-273" font-family="Helvetica,sans-Serif" font-size="10.00">::updateWallet</text>
</a>
</g>
</g>
<!-- Node2&#45;&gt;Node5 -->
<g id="edge4" class="edge"><title>Node2&#45;&gt;Node5</title>
<path fill="none" stroke="midnightblue" d="M292.668,-329.995C313.656,-321.04 340.507,-309.584 362.966,-300.001"/>
<polygon fill="midnightblue" stroke="midnightblue" points="364.468,-303.166 372.292,-296.022 361.721,-296.727 364.468,-303.166"/>
</g>
<!-- Node4 -->
<g id="node4" class="node"><title>Node4</title>
<g id="a_node4"><a xlink:href="uint256_8h.html#aa59e8a8c5a39cb5041f93bb95dd02119" target="_top" xlink:title="HexDigit">
<polygon fill="white" stroke="black" points="533,-443.5 533,-462.5 587,-462.5 587,-443.5 533,-443.5"/>
<text text-anchor="middle" x="560" y="-450.5" font-family="Helvetica,sans-Serif" font-size="10.00">HexDigit</text>
</a>
</g>
</g>
<!-- Node3&#45;&gt;Node4 -->
<g id="edge3" class="edge"><title>Node3&#45;&gt;Node4</title>
<path fill="none" stroke="midnightblue" d="M442.679,-419.543C466.571,-426.415 498.77,-435.676 523.234,-442.713"/>
<polygon fill="midnightblue" stroke="midnightblue" points="522.285,-446.082 532.863,-445.482 524.22,-439.354 522.285,-446.082"/>
</g>
<!-- Node6 -->
<g id="node6" class="node"><title>Node6</title>
<g id="a_node6"><a xlink:href="classbase__uint.html#ac3080a72402cadf28dbc9f9b69cc60be" target="_top" xlink:title="base_uint::ToString">
<polygon fill="white" stroke="black" points="508.5,-168.5 508.5,-187.5 611.5,-187.5 611.5,-168.5 508.5,-168.5"/>
<text text-anchor="middle" x="560" y="-175.5" font-family="Helvetica,sans-Serif" font-size="10.00">base_uint::ToString</text>
</a>
</g>
</g>
<!-- Node5&#45;&gt;Node6 -->
<g id="edge5" class="edge"><title>Node5&#45;&gt;Node6</title>
<path fill="none" stroke="midnightblue" d="M428.477,-265.785C446.49,-251.575 474.523,-230.055 500,-213 510.457,-206 522.332,-198.816 532.674,-192.793"/>
<polygon fill="midnightblue" stroke="midnightblue" points="534.733,-195.646 541.655,-187.626 531.242,-189.579 534.733,-195.646"/>
</g>
<!-- Node8 -->
<g id="node8" class="node"><title>Node8</title>
<g id="a_node8"><a xlink:href="class_transaction_record.html#a5ad1d1af4bec5b15a624b7a451e8cdbf" target="_top" xlink:title="Decompose CWallet transaction to model transaction records. ">
<polygon fill="white" stroke="black" points="506.5,-223 506.5,-253 613.5,-253 613.5,-223 506.5,-223"/>
<text text-anchor="start" x="514.5" y="-241" font-family="Helvetica,sans-Serif" font-size="10.00">TransactionRecord::</text>
<text text-anchor="middle" x="560" y="-230" font-family="Helvetica,sans-Serif" font-size="10.00">showTransaction</text>
</a>
</g>
</g>
<!-- Node5&#45;&gt;Node8 -->
<g id="edge7" class="edge"><title>Node5&#45;&gt;Node8</title>
<path fill="none" stroke="midnightblue" d="M461.788,-265.961C473.168,-262.687 485.314,-259.194 497.029,-255.824"/>
<polygon fill="midnightblue" stroke="midnightblue" points="498.099,-259.159 506.742,-253.031 496.164,-252.431 498.099,-259.159"/>
</g>
<!-- Node16 -->
<g id="node16" class="node"><title>Node16</title>
<g id="a_node16"><a xlink:href="class_transaction_record.html#a9f5db4465fa5fdcc3f9af525096bcdb9" target="_top" xlink:title="TransactionRecord::\ldecomposeTransaction">
<polygon fill="white" stroke="black" points="500,-394 500,-424 620,-424 620,-394 500,-394"/>
<text text-anchor="start" x="508" y="-412" font-family="Helvetica,sans-Serif" font-size="10.00">TransactionRecord::</text>
<text text-anchor="middle" x="560" y="-401" font-family="Helvetica,sans-Serif" font-size="10.00">decomposeTransaction</text>
</a>
</g>
</g>
<!-- Node5&#45;&gt;Node16 -->
<g id="edge15" class="edge"><title>Node5&#45;&gt;Node16</title>
<path fill="none" stroke="midnightblue" d="M427.237,-296.186C453.649,-318.8 503.443,-361.433 533.679,-387.321"/>
<polygon fill="midnightblue" stroke="midnightblue" points="531.414,-389.989 541.286,-393.834 535.967,-384.671 531.414,-389.989"/>
</g>
<!-- Node7 -->
<g id="node7" class="node"><title>Node7</title>
<g id="a_node7"><a xlink:href="classbase__uint.html#ac9929c28600796a9acf75881bb750576" target="_top" xlink:title="base_uint::GetHex">
<polygon fill="white" stroke="black" points="673.5,-152.5 673.5,-171.5 772.5,-171.5 772.5,-152.5 673.5,-152.5"/>
<text text-anchor="middle" x="723" y="-159.5" font-family="Helvetica,sans-Serif" font-size="10.00">base_uint::GetHex</text>
</a>
</g>
</g>
<!-- Node6&#45;&gt;Node7 -->
<g id="edge6" class="edge"><title>Node6&#45;&gt;Node7</title>
<path fill="none" stroke="midnightblue" d="M611.941,-172.938C628.191,-171.323 646.307,-169.522 663.075,-167.856"/>
<polygon fill="midnightblue" stroke="midnightblue" points="663.708,-171.31 673.312,-166.839 663.015,-164.345 663.708,-171.31"/>
</g>
<!-- Node9 -->
<g id="node9" class="node"><title>Node9</title>
<g id="a_node9"><a xlink:href="class_c_transaction.html#a274384ecbb50d71355cd287b7a6bca51" target="_top" xlink:title="CTransaction::IsCoinBase">
<polygon fill="white" stroke="black" points="656.5,-228.5 656.5,-247.5 789.5,-247.5 789.5,-228.5 656.5,-228.5"/>
<text text-anchor="middle" x="723" y="-235.5" font-family="Helvetica,sans-Serif" font-size="10.00">CTransaction::IsCoinBase</text>
</a>
</g>
</g>
<!-- Node8&#45;&gt;Node9 -->
<g id="edge8" class="edge"><title>Node8&#45;&gt;Node9</title>
<path fill="none" stroke="midnightblue" d="M613.717,-238C624.179,-238 635.355,-238 646.406,-238"/>
<polygon fill="midnightblue" stroke="midnightblue" points="646.497,-241.5 656.497,-238 646.497,-234.5 646.497,-241.5"/>
</g>
<!-- Node10 -->
<g id="node10" class="node"><title>Node10</title>
<g id="a_node10"><a xlink:href="class_c_merkle_tx.html#adf24748ee829f589ac8d6e99ec6121de" target="_top" xlink:title="CMerkleTx::IsInMainChain">
<polygon fill="white" stroke="black" points="656,-190.5 656,-209.5 790,-209.5 790,-190.5 656,-190.5"/>
<text text-anchor="middle" x="723" y="-197.5" font-family="Helvetica,sans-Serif" font-size="10.00">CMerkleTx::IsInMainChain</text>
</a>
</g>
</g>
<!-- Node8&#45;&gt;Node10 -->
<g id="edge9" class="edge"><title>Node8&#45;&gt;Node10</title>
<path fill="none" stroke="midnightblue" d="M613.717,-225.557C632.366,-221.156 653.281,-216.219 671.721,-211.867"/>
<polygon fill="midnightblue" stroke="midnightblue" points="672.753,-215.22 681.681,-209.516 671.145,-208.407 672.753,-215.22"/>
</g>
<!-- Node11 -->
<g id="node11" class="node"><title>Node11</title>
<g id="a_node11"><a xlink:href="class_c_merkle_tx.html#a650229fec7fe661aa7a137902bc745a3" target="_top" xlink:title="CMerkleTx::GetDepthInMain\lChainINTERNAL">
<polygon fill="white" stroke="black" points="826,-52 826,-82 969,-82 969,-52 826,-52"/>
<text text-anchor="start" x="834" y="-70" font-family="Helvetica,sans-Serif" font-size="10.00">CMerkleTx::GetDepthInMain</text>
<text text-anchor="middle" x="897.5" y="-59" font-family="Helvetica,sans-Serif" font-size="10.00">ChainINTERNAL</text>
</a>
</g>
</g>
<!-- Node10&#45;&gt;Node11 -->
<g id="edge10" class="edge"><title>Node10&#45;&gt;Node11</title>
<path fill="none" stroke="midnightblue" d="M769.402,-190.459C776.576,-187.969 783.697,-184.863 790,-181 791.316,-180.193 844.81,-122.677 875.469,-89.6617"/>
<polygon fill="midnightblue" stroke="midnightblue" points="878.124,-91.9455 882.363,-82.2357 872.994,-87.1827 878.124,-91.9455"/>
</g>
<!-- Node12 -->
<g id="node12" class="node"><title>Node12</title>
<g id="a_node12"><a xlink:href="class_c_chain.html#a1ab1fe2932227af222699c64847e838b" target="_top" xlink:title="Efficiently check whether a block is present in this chain. ">
<polygon fill="white" stroke="black" points="1029.5,-38.5 1029.5,-57.5 1124.5,-57.5 1124.5,-38.5 1029.5,-38.5"/>
<text text-anchor="middle" x="1077" y="-45.5" font-family="Helvetica,sans-Serif" font-size="10.00">CChain::Contains</text>
</a>
</g>
</g>
<!-- Node11&#45;&gt;Node12 -->
<g id="edge11" class="edge"><title>Node11&#45;&gt;Node12</title>
<path fill="none" stroke="midnightblue" d="M969.163,-59.4361C985.738,-57.6619 1003.19,-55.7936 1019.08,-54.0931"/>
<polygon fill="midnightblue" stroke="midnightblue" points="1019.69,-57.5472 1029.27,-53.0026 1018.95,-50.5869 1019.69,-57.5472"/>
</g>
<!-- Node13 -->
<g id="node13" class="node"><title>Node13</title>
<g id="a_node13"><a xlink:href="class_c_block.html#a81684cf96f6fb6731c869865b80d1ccd" target="_top" xlink:title="CBlock::CheckMerkleBranch">
<polygon fill="white" stroke="black" points="1005,-76.5 1005,-95.5 1149,-95.5 1149,-76.5 1005,-76.5"/>
<text text-anchor="middle" x="1077" y="-83.5" font-family="Helvetica,sans-Serif" font-size="10.00">CBlock::CheckMerkleBranch</text>
</a>
</g>
</g>
<!-- Node11&#45;&gt;Node13 -->
<g id="edge12" class="edge"><title>Node11&#45;&gt;Node13</title>
<path fill="none" stroke="midnightblue" d="M969.163,-74.5639C977.571,-75.4639 986.205,-76.3881 994.746,-77.3024"/>
<polygon fill="midnightblue" stroke="midnightblue" points="994.394,-80.7846 1004.71,-78.369 995.139,-73.8244 994.394,-80.7846"/>
</g>
<!-- Node15 -->
<g id="node15" class="node"><title>Node15</title>
<g id="a_node15"><a xlink:href="class_c_chain.html#a0c4ffb8501acfb8a7e1c0f5e6322ada3" target="_top" xlink:title="Return the maximal height in the chain. ">
<polygon fill="white" stroke="black" points="1035,-0.5 1035,-19.5 1119,-19.5 1119,-0.5 1035,-0.5"/>
<text text-anchor="middle" x="1077" y="-7.5" font-family="Helvetica,sans-Serif" font-size="10.00">CChain::Height</text>
</a>
</g>
</g>
<!-- Node11&#45;&gt;Node15 -->
<g id="edge14" class="edge"><title>Node11&#45;&gt;Node15</title>
<path fill="none" stroke="midnightblue" d="M938.194,-51.9712C958.116,-44.6504 982.697,-35.9506 1005,-29 1012.45,-26.6776 1020.4,-24.3802 1028.17,-22.2285"/>
<polygon fill="midnightblue" stroke="midnightblue" points="1029.15,-25.5898 1037.88,-19.59 1027.32,-18.8347 1029.15,-25.5898"/>
</g>
<!-- Node14 -->
<g id="node14" class="node"><title>Node14</title>
<g id="a_node14"><a xlink:href="hash_8h.html#ab3f6c437460137530d86e09c2c102e99" target="_top" xlink:title="Hash">
<polygon fill="white" stroke="black" points="1225,-95.5 1225,-114.5 1265,-114.5 1265,-95.5 1225,-95.5"/>
<text text-anchor="middle" x="1245" y="-102.5" font-family="Helvetica,sans-Serif" font-size="10.00">Hash</text>
</a>
</g>
</g>
<!-- Node13&#45;&gt;Node14 -->
<g id="edge13" class="edge"><title>Node13&#45;&gt;Node14</title>
<path fill="none" stroke="midnightblue" d="M1149.36,-94.168C1172.43,-96.808 1196.72,-99.5881 1214.91,-101.671"/>
<polygon fill="midnightblue" stroke="midnightblue" points="1214.53,-105.15 1224.87,-102.81 1215.33,-98.1955 1214.53,-105.15"/>
</g>
<!-- Node16&#45;&gt;Node9 -->
<g id="edge29" class="edge"><title>Node16&#45;&gt;Node9</title>
<path fill="none" stroke="midnightblue" d="M566.185,-393.918C577.487,-363.317 607.306,-293.73 656,-257 658.49,-255.122 661.16,-253.429 663.947,-251.904"/>
<polygon fill="midnightblue" stroke="midnightblue" points="665.604,-254.992 673.173,-247.578 662.633,-248.655 665.604,-254.992"/>
</g>
<!-- Node17 -->
<g id="node17" class="node"><title>Node17</title>
<g id="a_node17"><a xlink:href="class_c_wallet_tx.html#a25fdd940fcdd2ea9d05547c5c789fc0d" target="_top" xlink:title="CWalletTx::GetTxTime">
<polygon fill="white" stroke="black" points="664,-532.5 664,-551.5 782,-551.5 782,-532.5 664,-532.5"/>
<text text-anchor="middle" x="723" y="-539.5" font-family="Helvetica,sans-Serif" font-size="10.00">CWalletTx::GetTxTime</text>
</a>
</g>
</g>
<!-- Node16&#45;&gt;Node17 -->
<g id="edge16" class="edge"><title>Node16&#45;&gt;Node17</title>
<path fill="none" stroke="midnightblue" d="M606.767,-424.058C611.592,-426.863 616.138,-430.153 620,-434 648.78,-462.662 626.485,-490.096 656,-518 660.257,-522.024 665.241,-525.384 670.529,-528.186"/>
<polygon fill="midnightblue" stroke="midnightblue" points="669.094,-531.378 679.64,-532.394 672.029,-525.023 669.094,-531.378"/>
</g>
<!-- Node18 -->
<g id="node18" class="node"><title>Node18</title>
<g id="a_node18"><a xlink:href="class_c_wallet_tx.html#a370bfa4e49ce68015740b0e675133e1d" target="_top" xlink:title="CWalletTx::GetCredit">
<polygon fill="white" stroke="black" points="667.5,-456.5 667.5,-475.5 778.5,-475.5 778.5,-456.5 667.5,-456.5"/>
<text text-anchor="middle" x="723" y="-463.5" font-family="Helvetica,sans-Serif" font-size="10.00">CWalletTx::GetCredit</text>
</a>
</g>
</g>
<!-- Node16&#45;&gt;Node18 -->
<g id="edge17" class="edge"><title>Node16&#45;&gt;Node18</title>
<path fill="none" stroke="midnightblue" d="M596.322,-424.108C614.071,-431.449 636.005,-440.142 656,-447 662.593,-449.261 669.616,-451.48 676.529,-453.559"/>
<polygon fill="midnightblue" stroke="midnightblue" points="675.935,-457.032 686.516,-456.492 677.907,-450.316 675.935,-457.032"/>
</g>
<!-- Node21 -->
<g id="node21" class="node"><title>Node21</title>
<g id="a_node21"><a xlink:href="script_8cpp.html#adc59cf67d903c1ba1ef225561b85bfce" target="_top" xlink:title="IsMine">
<polygon fill="white" stroke="black" points="1054,-522.5 1054,-541.5 1100,-541.5 1100,-522.5 1054,-522.5"/>
<text text-anchor="middle" x="1077" y="-529.5" font-family="Helvetica,sans-Serif" font-size="10.00">IsMine</text>
</a>
</g>
</g>
<!-- Node16&#45;&gt;Node21 -->
<g id="edge46" class="edge"><title>Node16&#45;&gt;Node21</title>
<path fill="none" stroke="midnightblue" d="M604.496,-424.09C609.994,-426.938 615.323,-430.23 620,-434 641.6,-451.413 632.115,-470.883 656,-485 721.638,-523.793 957.517,-530.576 1043.96,-531.755"/>
<polygon fill="midnightblue" stroke="midnightblue" points="1043.93,-535.254 1053.97,-531.875 1044.01,-528.255 1043.93,-535.254"/>
</g>
<!-- Node23 -->
<g id="node23" class="node"><title>Node23</title>
<g id="a_node23"><a xlink:href="class_c_wallet_tx.html#ac1c7b4dd86b9565ddfe2810b46ea7d03" target="_top" xlink:title="CWalletTx::GetDebit">
<polygon fill="white" stroke="black" points="669,-658.5 669,-677.5 777,-677.5 777,-658.5 669,-658.5"/>
<text text-anchor="middle" x="723" y="-665.5" font-family="Helvetica,sans-Serif" font-size="10.00">CWalletTx::GetDebit</text>
</a>
</g>
</g>
<!-- Node16&#45;&gt;Node23 -->
<g id="edge23" class="edge"><title>Node16&#45;&gt;Node23</title>
<path fill="none" stroke="midnightblue" d="M609.133,-424.132C613.236,-426.897 616.968,-430.157 620,-434 680.009,-510.064 591.52,-576.687 656,-649 657.369,-650.535 658.853,-651.95 660.43,-653.253"/>
<polygon fill="midnightblue" stroke="midnightblue" points="658.717,-656.315 668.996,-658.884 662.563,-650.466 658.717,-656.315"/>
</g>
<!-- Node25 -->
<g id="node25" class="node"><title>Node25</title>
<g id="a_node25"><a xlink:href="class_c_transaction.html#a3f8666d2a275c40da14bd5eaf47dc004" target="_top" xlink:title="CTransaction::GetHash">
<polygon fill="white" stroke="black" points="662.5,-342.5 662.5,-361.5 783.5,-361.5 783.5,-342.5 662.5,-342.5"/>
<text text-anchor="middle" x="723" y="-349.5" font-family="Helvetica,sans-Serif" font-size="10.00">CTransaction::GetHash</text>
</a>
</g>
</g>
<!-- Node16&#45;&gt;Node25 -->
<g id="edge26" class="edge"><title>Node16&#45;&gt;Node25</title>
<path fill="none" stroke="midnightblue" d="M603.722,-393.875C629.104,-384.889 660.967,-373.608 685.224,-365.02"/>
<polygon fill="midnightblue" stroke="midnightblue" points="686.522,-368.273 694.781,-361.637 684.186,-361.675 686.522,-368.273"/>
</g>
<!-- Node28 -->
<g id="node28" class="node"><title>Node28</title>
<g id="a_node28"><a xlink:href="class_c_wallet.html#ab7cc8fd8859fecc6ed768dacb5642c5e" target="_top" xlink:title="CWallet::IsMine">
<polygon fill="white" stroke="black" points="854,-551.5 854,-570.5 941,-570.5 941,-551.5 854,-551.5"/>
<text text-anchor="middle" x="897.5" y="-558.5" font-family="Helvetica,sans-Serif" font-size="10.00">CWallet::IsMine</text>
</a>
</g>
</g>
<!-- Node16&#45;&gt;Node28 -->
<g id="edge30" class="edge"><title>Node16&#45;&gt;Node28</title>
<path fill="none" stroke="midnightblue" d="M608.134,-424.123C612.539,-426.898 616.614,-430.163 620,-434 658.822,-477.987 609.199,-525.621 656,-561 715.329,-605.849 808.531,-588.286 859.745,-573.451"/>
<polygon fill="midnightblue" stroke="midnightblue" points="860.841,-576.776 869.405,-570.539 858.821,-570.074 860.841,-576.776"/>
</g>
<!-- Node29 -->
<g id="node29" class="node"><title>Node29</title>
<g id="a_node29"><a xlink:href="script_8cpp.html#a951f7e601746ae076afdf3169ecca2fc" target="_top" xlink:title="ExtractDestination">
<polygon fill="white" stroke="black" points="674,-304.5 674,-323.5 772,-323.5 772,-304.5 674,-304.5"/>
<text text-anchor="middle" x="723" y="-311.5" font-family="Helvetica,sans-Serif" font-size="10.00">ExtractDestination</text>
</a>
</g>
</g>
<!-- Node16&#45;&gt;Node29 -->
<g id="edge32" class="edge"><title>Node16&#45;&gt;Node29</title>
<path fill="none" stroke="midnightblue" d="M576.104,-393.708C593.79,-376.613 624.673,-349.211 656,-333 660.339,-330.755 664.979,-328.742 669.713,-326.944"/>
<polygon fill="midnightblue" stroke="midnightblue" points="671.195,-330.134 679.496,-323.551 668.901,-323.521 671.195,-330.134"/>
</g>
<!-- Node43 -->
<g id="node43" class="node"><title>Node43</title>
<g id="a_node43"><a xlink:href="class_c_base58_data.html#a9a47b10dadff15b8d6a6d0e63ce3ae32" target="_top" xlink:title="CBase58Data::ToString">
<polygon fill="white" stroke="black" points="662,-266.5 662,-285.5 784,-285.5 784,-266.5 662,-266.5"/>
<text text-anchor="middle" x="723" y="-273.5" font-family="Helvetica,sans-Serif" font-size="10.00">CBase58Data::ToString</text>
</a>
</g>
</g>
<!-- Node16&#45;&gt;Node43 -->
<g id="edge47" class="edge"><title>Node16&#45;&gt;Node43</title>
<path fill="none" stroke="midnightblue" d="M569.423,-393.965C583.904,-369.501 615.87,-321.188 656,-295 659.13,-292.958 662.483,-291.13 665.957,-289.496"/>
<polygon fill="midnightblue" stroke="midnightblue" points="667.462,-292.662 675.368,-285.607 664.789,-286.192 667.462,-292.662"/>
</g>
<!-- Node46 -->
<g id="node46" class="node"><title>Node46</title>
<g id="a_node46"><a xlink:href="class_c_wallet_tx.html#ad326ed38cbb0dcb7d7dc4840c1279c39" target="_top" xlink:title="CWalletTx::GetChange">
<polygon fill="white" stroke="black" points="663.5,-418.5 663.5,-437.5 782.5,-437.5 782.5,-418.5 663.5,-418.5"/>
<text text-anchor="middle" x="723" y="-425.5" font-family="Helvetica,sans-Serif" font-size="10.00">CWalletTx::GetChange</text>
</a>
</g>
</g>
<!-- Node16&#45;&gt;Node46 -->
<g id="edge51" class="edge"><title>Node16&#45;&gt;Node46</title>
<path fill="none" stroke="midnightblue" d="M620.036,-415.967C630.824,-417.24 642.166,-418.579 653.208,-419.882"/>
<polygon fill="midnightblue" stroke="midnightblue" points="652.899,-423.369 663.24,-421.066 653.719,-416.418 652.899,-423.369"/>
</g>
<!-- Node48 -->
<g id="node48" class="node"><title>Node48</title>
<g id="a_node48"><a xlink:href="class_transaction_record.html#abb95ce852c0d00e86dcf7ebf63e70a83" target="_top" xlink:title="TransactionRecord::\lTransactionRecord">
<polygon fill="white" stroke="black" points="669.5,-609 669.5,-639 776.5,-639 776.5,-609 669.5,-609"/>
<text text-anchor="start" x="677.5" y="-627" font-family="Helvetica,sans-Serif" font-size="10.00">TransactionRecord::</text>
<text text-anchor="middle" x="723" y="-616" font-family="Helvetica,sans-Serif" font-size="10.00">TransactionRecord</text>
</a>
</g>
</g>
<!-- Node16&#45;&gt;Node48 -->
<g id="edge54" class="edge"><title>Node16&#45;&gt;Node48</title>
<path fill="none" stroke="midnightblue" d="M608.633,-424.122C612.888,-426.893 616.792,-430.157 620,-434 666.714,-489.952 610.013,-537.449 656,-594 658.846,-597.5 662.19,-600.608 665.835,-603.366"/>
<polygon fill="midnightblue" stroke="midnightblue" points="663.938,-606.307 674.221,-608.857 667.772,-600.451 663.938,-606.307"/>
</g>
<!-- Node49 -->
<g id="node49" class="node"><title>Node49</title>
<g id="a_node49"><a xlink:href="class_c_transaction.html#ac55950c7f9d437e5cd11a88af39b6deb" target="_top" xlink:title="CTransaction::GetValueOut">
<polygon fill="white" stroke="black" points="828,-380.5 828,-399.5 967,-399.5 967,-380.5 828,-380.5"/>
<text text-anchor="middle" x="897.5" y="-387.5" font-family="Helvetica,sans-Serif" font-size="10.00">CTransaction::GetValueOut</text>
</a>
</g>
</g>
<!-- Node16&#45;&gt;Node49 -->
<g id="edge55" class="edge"><title>Node16&#45;&gt;Node49</title>
<path fill="none" stroke="midnightblue" d="M620.208,-405.647C675.068,-402.54 757.071,-397.896 817.497,-394.474"/>
<polygon fill="midnightblue" stroke="midnightblue" points="817.972,-397.953 827.758,-393.893 817.576,-390.964 817.972,-397.953"/>
</g>
<!-- Node19 -->
<g id="node19" class="node"><title>Node19</title>
<g id="a_node19"><a xlink:href="class_c_wallet.html#a9ec15c32442fcceb95425d8b36492544" target="_top" xlink:title="CWallet::GetCredit">
<polygon fill="white" stroke="black" points="847.5,-456.5 847.5,-475.5 947.5,-475.5 947.5,-456.5 847.5,-456.5"/>
<text text-anchor="middle" x="897.5" y="-463.5" font-family="Helvetica,sans-Serif" font-size="10.00">CWallet::GetCredit</text>
</a>
</g>
</g>
<!-- Node18&#45;&gt;Node19 -->
<g id="edge18" class="edge"><title>Node18&#45;&gt;Node19</title>
<path fill="none" stroke="midnightblue" d="M778.58,-466C797.238,-466 818.192,-466 837.204,-466"/>
<polygon fill="midnightblue" stroke="midnightblue" points="837.242,-469.5 847.242,-466 837.242,-462.5 837.242,-469.5"/>
</g>
<!-- Node20 -->
<g id="node20" class="node"><title>Node20</title>
<g id="a_node20"><a xlink:href="core_8h.html#ad1d9a769fa327ea042e0c9fadeb4836b" target="_top" xlink:title="MoneyRange">
<polygon fill="white" stroke="black" points="1039,-456.5 1039,-475.5 1115,-475.5 1115,-456.5 1039,-456.5"/>
<text text-anchor="middle" x="1077" y="-463.5" font-family="Helvetica,sans-Serif" font-size="10.00">MoneyRange</text>
</a>
</g>
</g>
<!-- Node19&#45;&gt;Node20 -->
<g id="edge19" class="edge"><title>Node19&#45;&gt;Node20</title>
<path fill="none" stroke="midnightblue" d="M947.944,-466C973.165,-466 1003.69,-466 1028.62,-466"/>
<polygon fill="midnightblue" stroke="midnightblue" points="1028.92,-469.5 1038.92,-466 1028.92,-462.5 1028.92,-469.5"/>
</g>
<!-- Node19&#45;&gt;Node21 -->
<g id="edge20" class="edge"><title>Node19&#45;&gt;Node21</title>
<path fill="none" stroke="midnightblue" d="M927.418,-475.511C940.209,-479.804 955.402,-485.02 969,-490 994.56,-499.361 1023.26,-510.67 1044.49,-519.194"/>
<polygon fill="midnightblue" stroke="midnightblue" points="1043.4,-522.525 1053.98,-523.015 1046.01,-516.032 1043.4,-522.525"/>
</g>
<!-- Node21&#45;&gt;Node21 -->
<g id="edge22" class="edge"><title>Node21&#45;&gt;Node21</title>
<path fill="none" stroke="midnightblue" d="M1053.87,-540.026C1037.46,-549.28 1045.17,-560 1077,-560 1101.37,-560 1111.6,-553.716 1107.69,-546.617"/>
<polygon fill="midnightblue" stroke="midnightblue" points="1109.96,-543.957 1100.13,-540.026 1105.37,-549.234 1109.96,-543.957"/>
</g>
<!-- Node22 -->
<g id="node22" class="node"><title>Node22</title>
<g id="a_node22"><a xlink:href="class_c_script.html#ad1b5a9077241aa06116040c4f1b7c31e" target="_top" xlink:title="CScript::SetDestination">
<polygon fill="white" stroke="black" points="1185,-522.5 1185,-541.5 1305,-541.5 1305,-522.5 1185,-522.5"/>
<text text-anchor="middle" x="1245" y="-529.5" font-family="Helvetica,sans-Serif" font-size="10.00">CScript::SetDestination</text>
</a>
</g>
</g>
<!-- Node21&#45;&gt;Node22 -->
<g id="edge21" class="edge"><title>Node21&#45;&gt;Node22</title>
<path fill="none" stroke="midnightblue" d="M1100.04,-532C1119.13,-532 1147.79,-532 1174.52,-532"/>
<polygon fill="midnightblue" stroke="midnightblue" points="1174.65,-535.5 1184.65,-532 1174.65,-528.5 1174.65,-535.5"/>
</g>
<!-- Node24 -->
<g id="node24" class="node"><title>Node24</title>
<g id="a_node24"><a xlink:href="class_c_wallet.html#a9caab46cb65f0ef87f1a1f446655209a" target="_top" xlink:title="CWallet::GetDebit">
<polygon fill="white" stroke="black" points="849,-623.5 849,-642.5 946,-642.5 946,-623.5 849,-623.5"/>
<text text-anchor="middle" x="897.5" y="-630.5" font-family="Helvetica,sans-Serif" font-size="10.00">CWallet::GetDebit</text>
</a>
</g>
</g>
<!-- Node23&#45;&gt;Node24 -->
<g id="edge24" class="edge"><title>Node23&#45;&gt;Node24</title>
<path fill="none" stroke="midnightblue" d="M771.136,-658.436C792.244,-654.153 817.316,-649.066 839.471,-644.571"/>
<polygon fill="midnightblue" stroke="midnightblue" points="840.316,-647.971 849.421,-642.552 838.924,-641.111 840.316,-647.971"/>
</g>
<!-- Node24&#45;&gt;Node21 -->
<g id="edge25" class="edge"><title>Node24&#45;&gt;Node21</title>
<path fill="none" stroke="midnightblue" d="M915.199,-623.498C946.254,-605.827 1013.09,-567.799 1050.06,-546.758"/>
<polygon fill="midnightblue" stroke="midnightblue" points="1052.26,-549.538 1059.22,-541.55 1048.79,-543.454 1052.26,-549.538"/>
</g>
<!-- Node26 -->
<g id="node26" class="node"><title>Node26</title>
<g id="a_node26"><a xlink:href="hash_8h.html#a6de694e43f17c62025c6883965b65e63" target="_top" xlink:title="SerializeHash">
<polygon fill="white" stroke="black" points="858.5,-342.5 858.5,-361.5 936.5,-361.5 936.5,-342.5 858.5,-342.5"/>
<text text-anchor="middle" x="897.5" y="-349.5" font-family="Helvetica,sans-Serif" font-size="10.00">SerializeHash</text>
</a>
</g>
</g>
<!-- Node25&#45;&gt;Node26 -->
<g id="edge27" class="edge"><title>Node25&#45;&gt;Node26</title>
<path fill="none" stroke="midnightblue" d="M783.848,-352C804.896,-352 828.265,-352 848.237,-352"/>
<polygon fill="midnightblue" stroke="midnightblue" points="848.342,-355.5 858.342,-352 848.342,-348.5 848.342,-355.5"/>
</g>
<!-- Node27 -->
<g id="node27" class="node"><title>Node27</title>
<g id="a_node27"><a xlink:href="class_c_hash_writer.html#ae94a937211502eabf19477630090093a" target="_top" xlink:title="CHashWriter::GetHash">
<polygon fill="white" stroke="black" points="1017.5,-418.5 1017.5,-437.5 1136.5,-437.5 1136.5,-418.5 1017.5,-418.5"/>
<text text-anchor="middle" x="1077" y="-425.5" font-family="Helvetica,sans-Serif" font-size="10.00">CHashWriter::GetHash</text>
</a>
</g>
</g>
<!-- Node26&#45;&gt;Node27 -->
<g id="edge28" class="edge"><title>Node26&#45;&gt;Node27</title>
<path fill="none" stroke="midnightblue" d="M936.627,-358.234C947.58,-361.072 959.202,-365.156 969,-371 988.98,-382.918 985.009,-397.1 1005,-409 1008.64,-411.166 1012.53,-413.09 1016.54,-414.798"/>
<polygon fill="midnightblue" stroke="midnightblue" points="1015.48,-418.138 1026.07,-418.404 1017.95,-411.591 1015.48,-418.138"/>
</g>
<!-- Node28&#45;&gt;Node21 -->
<g id="edge31" class="edge"><title>Node28&#45;&gt;Node21</title>
<path fill="none" stroke="midnightblue" d="M941.016,-554.054C972.621,-548.89 1015.08,-541.953 1043.88,-537.248"/>
<polygon fill="midnightblue" stroke="midnightblue" points="1044.52,-540.69 1053.82,-535.623 1043.39,-533.781 1044.52,-540.69"/>
</g>
<!-- Node30 -->
<g id="node30" class="node"><title>Node30</title>
<g id="a_node30"><a xlink:href="script_8cpp.html#a6ee6be50bff44464e905680c6fcee6dc" target="_top" xlink:title="Solver">
<polygon fill="white" stroke="black" points="875,-304.5 875,-323.5 920,-323.5 920,-304.5 875,-304.5"/>
<text text-anchor="middle" x="897.5" y="-311.5" font-family="Helvetica,sans-Serif" font-size="10.00">Solver</text>
</a>
</g>
</g>
<!-- Node29&#45;&gt;Node30 -->
<g id="edge33" class="edge"><title>Node29&#45;&gt;Node30</title>
<path fill="none" stroke="midnightblue" d="M772.051,-314C801.666,-314 838.81,-314 864.777,-314"/>
<polygon fill="midnightblue" stroke="midnightblue" points="864.825,-317.5 874.825,-314 864.825,-310.5 864.825,-317.5"/>
</g>
<!-- Node39 -->
<g id="node39" class="node"><title>Node39</title>
<g id="a_node39"><a xlink:href="class_c_pub_key.html#a9c1908fef34fd9e1c4b5e0ffd5d3834e" target="_top" xlink:title="CPubKey::GetID">
<polygon fill="white" stroke="black" points="852.5,-228.5 852.5,-247.5 942.5,-247.5 942.5,-228.5 852.5,-228.5"/>
<text text-anchor="middle" x="897.5" y="-235.5" font-family="Helvetica,sans-Serif" font-size="10.00">CPubKey::GetID</text>
</a>
</g>
</g>
<!-- Node29&#45;&gt;Node39 -->
<g id="edge42" class="edge"><title>Node29&#45;&gt;Node39</title>
<path fill="none" stroke="midnightblue" d="M762.161,-304.497C771.403,-301.792 781.162,-298.59 790,-295 819.449,-283.037 851.36,-265.259 872.494,-252.745"/>
<polygon fill="midnightblue" stroke="midnightblue" points="874.347,-255.714 881.125,-247.571 870.749,-249.71 874.347,-255.714"/>
</g>
<!-- Node31 -->
<g id="node31" class="node"><title>Node31</title>
<g id="a_node31"><a xlink:href="util_8cpp.html#a64d956f1dda7f9a80ab5d594532b906d" target="_top" xlink:title="Return boolean argument or default value. ">
<polygon fill="white" stroke="black" points="1043,-380.5 1043,-399.5 1111,-399.5 1111,-380.5 1043,-380.5"/>
<text text-anchor="middle" x="1077" y="-387.5" font-family="Helvetica,sans-Serif" font-size="10.00">GetBoolArg</text>
</a>
</g>
</g>
<!-- Node30&#45;&gt;Node31 -->
<g id="edge34" class="edge"><title>Node30&#45;&gt;Node31</title>
<path fill="none" stroke="midnightblue" d="M920.052,-316.677C934.664,-319.218 953.976,-324.039 969,-333 988.98,-344.918 985.009,-359.1 1005,-371 1013.46,-376.038 1023.28,-379.765 1032.86,-382.514"/>
<polygon fill="midnightblue" stroke="midnightblue" points="1032.14,-385.942 1042.69,-385.039 1033.88,-379.162 1032.14,-385.942"/>
</g>
<!-- Node33 -->
<g id="node33" class="node"><title>Node33</title>
<g id="a_node33"><a xlink:href="class_c_script.html#acba6d6d35776de4ce3a632446f44805f" target="_top" xlink:title="CScript::IsPayToScriptHash">
<polygon fill="white" stroke="black" points="1007,-304.5 1007,-323.5 1147,-323.5 1147,-304.5 1007,-304.5"/>
<text text-anchor="middle" x="1077" y="-311.5" font-family="Helvetica,sans-Serif" font-size="10.00">CScript::IsPayToScriptHash</text>
</a>
</g>
</g>
<!-- Node30&#45;&gt;Node33 -->
<g id="edge36" class="edge"><title>Node30&#45;&gt;Node33</title>
<path fill="none" stroke="midnightblue" d="M920.265,-314C939.475,-314 968.697,-314 996.658,-314"/>
<polygon fill="midnightblue" stroke="midnightblue" points="996.882,-317.5 1006.88,-314 996.881,-310.5 996.882,-317.5"/>
</g>
<!-- Node34 -->
<g id="node34" class="node"><title>Node34</title>
<g id="a_node34"><a xlink:href="class_c_script.html#a94635ed93d8d244ec3acfa83f9ecfe5f" target="_top" xlink:title="CScript::GetOp">
<polygon fill="white" stroke="black" points="1035,-342.5 1035,-361.5 1119,-361.5 1119,-342.5 1035,-342.5"/>
<text text-anchor="middle" x="1077" y="-349.5" font-family="Helvetica,sans-Serif" font-size="10.00">CScript::GetOp</text>
</a>
</g>
</g>
<!-- Node30&#45;&gt;Node34 -->
<g id="edge37" class="edge"><title>Node30&#45;&gt;Node34</title>
<path fill="none" stroke="midnightblue" d="M920.265,-318.66C946.132,-324.197 990.148,-333.62 1024.8,-341.039"/>
<polygon fill="midnightblue" stroke="midnightblue" points="1024.25,-344.501 1034.76,-343.172 1025.72,-337.656 1024.25,-344.501"/>
</g>
<!-- Node38 -->
<g id="node38" class="node"><title>Node38</title>
<g id="a_node38"><a xlink:href="class_c_script.html#a7f975fca06b3e9a17da8ba23c7647e2e" target="_top" xlink:title="CScript::DecodeOP_N">
<polygon fill="white" stroke="black" points="1018.5,-266.5 1018.5,-285.5 1135.5,-285.5 1135.5,-266.5 1018.5,-266.5"/>
<text text-anchor="middle" x="1077" y="-273.5" font-family="Helvetica,sans-Serif" font-size="10.00">CScript::DecodeOP_N</text>
</a>
</g>
</g>
<!-- Node30&#45;&gt;Node38 -->
<g id="edge41" class="edge"><title>Node30&#45;&gt;Node38</title>
<path fill="none" stroke="midnightblue" d="M920.265,-309.34C945.373,-303.965 987.583,-294.929 1021.73,-287.619"/>
<polygon fill="midnightblue" stroke="midnightblue" points="1022.54,-291.025 1031.58,-285.509 1021.07,-284.18 1022.54,-291.025"/>
</g>
<!-- Node32 -->
<g id="node32" class="node"><title>Node32</title>
<g id="a_node32"><a xlink:href="util_8h.html#aa5ce96ec36f4413f820cec9c1831c070" target="_top" xlink:title="atoi">
<polygon fill="white" stroke="black" points="1228.5,-380.5 1228.5,-399.5 1261.5,-399.5 1261.5,-380.5 1228.5,-380.5"/>
<text text-anchor="middle" x="1245" y="-387.5" font-family="Helvetica,sans-Serif" font-size="10.00">atoi</text>
</a>
</g>
</g>
<!-- Node31&#45;&gt;Node32 -->
<g id="edge35" class="edge"><title>Node31&#45;&gt;Node32</title>
<path fill="none" stroke="midnightblue" d="M1111.19,-390C1142.74,-390 1189.52,-390 1218.31,-390"/>
<polygon fill="midnightblue" stroke="midnightblue" points="1218.4,-393.5 1228.4,-390 1218.4,-386.5 1218.4,-393.5"/>
</g>
<!-- Node35 -->
<g id="node35" class="node"><title>Node35</title>
<g id="a_node35"><a xlink:href="class_c_script.html#a93ec95275ccce9b701c8f53c57cd7975" target="_top" xlink:title="CScript::GetOp2">
<polygon fill="white" stroke="black" points="1200,-342.5 1200,-361.5 1290,-361.5 1290,-342.5 1200,-342.5"/>
<text text-anchor="middle" x="1245" y="-349.5" font-family="Helvetica,sans-Serif" font-size="10.00">CScript::GetOp2</text>
</a>
</g>
</g>
<!-- Node34&#45;&gt;Node35 -->
<g id="edge38" class="edge"><title>Node34&#45;&gt;Node35</title>
<path fill="none" stroke="midnightblue" d="M1119.03,-352C1140.35,-352 1166.67,-352 1189.66,-352"/>
<polygon fill="midnightblue" stroke="midnightblue" points="1189.95,-355.5 1199.95,-352 1189.95,-348.5 1189.95,-355.5"/>
</g>
<!-- Node36 -->
<g id="node36" class="node"><title>Node36</title>
<g id="a_node36"><a xlink:href="glibc__compat_8cpp.html#a0f46826ab0466591e136db24394923cf" target="_top" xlink:title="memcpy">
<polygon fill="white" stroke="black" points="1341,-342.5 1341,-361.5 1395,-361.5 1395,-342.5 1341,-342.5"/>
<text text-anchor="middle" x="1368" y="-349.5" font-family="Helvetica,sans-Serif" font-size="10.00">memcpy</text>
</a>
</g>
</g>
<!-- Node35&#45;&gt;Node36 -->
<g id="edge39" class="edge"><title>Node35&#45;&gt;Node36</title>
<path fill="none" stroke="midnightblue" d="M1290.03,-352C1303.33,-352 1317.78,-352 1330.54,-352"/>
<polygon fill="midnightblue" stroke="midnightblue" points="1330.78,-355.5 1340.78,-352 1330.78,-348.5 1330.78,-355.5"/>
</g>
<!-- Node37 -->
<g id="node37" class="node"><title>Node37</title>
<g id="a_node37"><a xlink:href="glibc__compat_8cpp.html#a9778d49e9029dd75bc53ecbbf9f5e9a1" target="_top" xlink:title="memmove">
<polygon fill="white" stroke="black" points="1431,-342.5 1431,-361.5 1494,-361.5 1494,-342.5 1431,-342.5"/>
<text text-anchor="middle" x="1462.5" y="-349.5" font-family="Helvetica,sans-Serif" font-size="10.00">memmove</text>
</a>
</g>
</g>
<!-- Node36&#45;&gt;Node37 -->
<g id="edge40" class="edge"><title>Node36&#45;&gt;Node37</title>
<path fill="none" stroke="midnightblue" d="M1395.26,-352C1403.24,-352 1412.21,-352 1420.91,-352"/>
<polygon fill="midnightblue" stroke="midnightblue" points="1420.92,-355.5 1430.92,-352 1420.92,-348.5 1420.92,-355.5"/>
</g>
<!-- Node40 -->
<g id="node40" class="node"><title>Node40</title>
<g id="a_node40"><a xlink:href="hash_8h.html#a4490f70ddae16e9e48460a0416a48a6b" target="_top" xlink:title="Hash160">
<polygon fill="white" stroke="black" points="1048.5,-190.5 1048.5,-209.5 1105.5,-209.5 1105.5,-190.5 1048.5,-190.5"/>
<text text-anchor="middle" x="1077" y="-197.5" font-family="Helvetica,sans-Serif" font-size="10.00">Hash160</text>
</a>
</g>
</g>
<!-- Node39&#45;&gt;Node40 -->
<g id="edge43" class="edge"><title>Node39&#45;&gt;Node40</title>
<path fill="none" stroke="midnightblue" d="M942.833,-228.509C972.281,-222.205 1010.52,-214.018 1038.46,-208.036"/>
<polygon fill="midnightblue" stroke="midnightblue" points="1039.21,-211.456 1048.25,-205.94 1037.74,-204.611 1039.21,-211.456"/>
</g>
<!-- Node41 -->
<g id="node41" class="node"><title>Node41</title>
<g id="a_node41"><a xlink:href="class_c_pub_key.html#a9d7129b65b6dee792b4f3923cd64ed59" target="_top" xlink:title="CPubKey::size">
<polygon fill="white" stroke="black" points="1036,-228.5 1036,-247.5 1118,-247.5 1118,-228.5 1036,-228.5"/>
<text text-anchor="middle" x="1077" y="-235.5" font-family="Helvetica,sans-Serif" font-size="10.00">CPubKey::size</text>
</a>
</g>
</g>
<!-- Node39&#45;&gt;Node41 -->
<g id="edge44" class="edge"><title>Node39&#45;&gt;Node41</title>
<path fill="none" stroke="midnightblue" d="M942.833,-238C968.034,-238 999.672,-238 1025.79,-238"/>
<polygon fill="midnightblue" stroke="midnightblue" points="1025.87,-241.5 1035.87,-238 1025.87,-234.5 1025.87,-241.5"/>
</g>
<!-- Node42 -->
<g id="node42" class="node"><title>Node42</title>
<g id="a_node42"><a xlink:href="class_c_pub_key.html#a7dc71b3f037c84268dc22de97d7b65fb" target="_top" xlink:title="CPubKey::GetLen">
<polygon fill="white" stroke="black" points="1196.5,-228.5 1196.5,-247.5 1293.5,-247.5 1293.5,-228.5 1196.5,-228.5"/>
<text text-anchor="middle" x="1245" y="-235.5" font-family="Helvetica,sans-Serif" font-size="10.00">CPubKey::GetLen</text>
</a>
</g>
</g>
<!-- Node41&#45;&gt;Node42 -->
<g id="edge45" class="edge"><title>Node41&#45;&gt;Node42</title>
<path fill="none" stroke="midnightblue" d="M1118.18,-238C1138.57,-238 1163.7,-238 1186.13,-238"/>
<polygon fill="midnightblue" stroke="midnightblue" points="1186.22,-241.5 1196.22,-238 1186.22,-234.5 1186.22,-241.5"/>
</g>
<!-- Node44 -->
<g id="node44" class="node"><title>Node44</title>
<g id="a_node44"><a xlink:href="base58_8cpp.html#ace9a5807ee51604f33044339f073ec76" target="_top" xlink:title="Encode a byte vector into a base58&#45;encoded string, including checksum. ">
<polygon fill="white" stroke="black" points="841,-152.5 841,-171.5 954,-171.5 954,-152.5 841,-152.5"/>
<text text-anchor="middle" x="897.5" y="-159.5" font-family="Helvetica,sans-Serif" font-size="10.00">EncodeBase58Check</text>
</a>
</g>
</g>
<!-- Node43&#45;&gt;Node44 -->
<g id="edge48" class="edge"><title>Node43&#45;&gt;Node44</title>
<path fill="none" stroke="midnightblue" d="M769.379,-266.421C776.555,-263.936 783.684,-260.841 790,-257 809.878,-244.912 808.917,-234.793 826,-219 841.888,-204.312 861.042,-188.962 875.373,-177.897"/>
<polygon fill="midnightblue" stroke="midnightblue" points="877.783,-180.46 883.6,-171.605 873.53,-174.9 877.783,-180.46"/>
</g>
<!-- Node44&#45;&gt;Node14 -->
<g id="edge49" class="edge"><title>Node44&#45;&gt;Node14</title>
<path fill="none" stroke="midnightblue" d="M950.739,-152.478C968.002,-149.385 987.314,-145.983 1005,-143 1080.56,-130.255 1169.76,-116.383 1214.82,-109.458"/>
<polygon fill="midnightblue" stroke="midnightblue" points="1215.42,-112.907 1224.77,-107.931 1214.36,-105.988 1215.42,-112.907"/>
</g>
<!-- Node45 -->
<g id="node45" class="node"><title>Node45</title>
<g id="a_node45"><a xlink:href="base58_8cpp.html#a8d6f0e9d5df175b4966dcede31dc90ad" target="_top" xlink:title="Encode a byte sequence as a base58&#45;encoded string. ">
<polygon fill="white" stroke="black" points="1035,-152.5 1035,-171.5 1119,-171.5 1119,-152.5 1035,-152.5"/>
<text text-anchor="middle" x="1077" y="-159.5" font-family="Helvetica,sans-Serif" font-size="10.00">EncodeBase58</text>
</a>
</g>
</g>
<!-- Node44&#45;&gt;Node45 -->
<g id="edge50" class="edge"><title>Node44&#45;&gt;Node45</title>
<path fill="none" stroke="midnightblue" d="M954.175,-162C976.732,-162 1002.62,-162 1024.71,-162"/>
<polygon fill="midnightblue" stroke="midnightblue" points="1024.89,-165.5 1034.89,-162 1024.89,-158.5 1024.89,-165.5"/>
</g>
<!-- Node47 -->
<g id="node47" class="node"><title>Node47</title>
<g id="a_node47"><a xlink:href="class_c_wallet.html#acca24496f54521dfb8ca457748d44518" target="_top" xlink:title="CWallet::GetChange">
<polygon fill="white" stroke="black" points="843.5,-418.5 843.5,-437.5 951.5,-437.5 951.5,-418.5 843.5,-418.5"/>
<text text-anchor="middle" x="897.5" y="-425.5" font-family="Helvetica,sans-Serif" font-size="10.00">CWallet::GetChange</text>
</a>
</g>
</g>
<!-- Node46&#45;&gt;Node47 -->
<g id="edge52" class="edge"><title>Node46&#45;&gt;Node47</title>
<path fill="none" stroke="midnightblue" d="M782.882,-428C799.128,-428 816.82,-428 833.299,-428"/>
<polygon fill="midnightblue" stroke="midnightblue" points="833.38,-431.5 843.38,-428 833.38,-424.5 833.38,-431.5"/>
</g>
<!-- Node47&#45;&gt;Node20 -->
<g id="edge53" class="edge"><title>Node47&#45;&gt;Node20</title>
<path fill="none" stroke="midnightblue" d="M943.291,-437.589C969.427,-443.184 1002.37,-450.237 1028.89,-455.915"/>
<polygon fill="midnightblue" stroke="midnightblue" points="1028.2,-459.347 1038.72,-458.018 1029.67,-452.502 1028.2,-459.347"/>
</g>
<!-- Node49&#45;&gt;Node20 -->
<g id="edge56" class="edge"><title>Node49&#45;&gt;Node20</title>
<path fill="none" stroke="midnightblue" d="M947.71,-399.506C955.125,-401.99 962.468,-405.104 969,-409 988.98,-420.918 985.009,-435.1 1005,-447 1012.33,-451.363 1020.67,-454.743 1029,-457.356"/>
<polygon fill="midnightblue" stroke="midnightblue" points="1028.13,-460.747 1038.7,-460.083 1030.02,-454.008 1028.13,-460.747"/>
</g>
</g>
</svg>
