<?xml version="1.0" encoding="UTF-8" standalone="no"?>
<!DOCTYPE svg PUBLIC "-//W3C//DTD SVG 1.1//EN"
 "http://www.w3.org/Graphics/SVG/1.1/DTD/svg11.dtd">
<!-- Generated by graphviz version 2.38.0 (20140413.2041)
 -->
<!-- Title: TrafficGraphWidget Pages: 1 -->
<svg width="476pt" height="219pt"
 viewBox="0.00 0.00 475.50 219.00" xmlns="http://www.w3.org/2000/svg" xmlns:xlink="http://www.w3.org/1999/xlink">
<g id="graph0" class="graph" transform="scale(1 1) rotate(0) translate(4 215)">
<title>TrafficGraphWidget</title>
<polygon fill="white" stroke="none" points="-4,4 -4,-215 471.5,-215 471.5,4 -4,4"/>
<!-- Node1 -->
<g id="node1" class="node"><title>Node1</title>
<polygon fill="#bfbfbf" stroke="black" points="0,-0.5 0,-19.5 103,-19.5 103,-0.5 0,-0.5"/>
<text text-anchor="middle" x="51.5" y="-7.5" font-family="Helvetica,sans-Serif" font-size="10.00">TrafficGraphWidget</text>
</g>
<!-- Node2 -->
<g id="node2" class="node"><title>Node2</title>
<polygon fill="white" stroke="#bfbfbf" points="7,-67.5 7,-86.5 62,-86.5 62,-67.5 7,-67.5"/>
<text text-anchor="middle" x="34.5" y="-74.5" font-family="Helvetica,sans-Serif" font-size="10.00">QWidget</text>
</g>
<!-- Node2&#45;&gt;Node1 -->
<g id="edge1" class="edge"><title>Node2&#45;&gt;Node1</title>
<path fill="none" stroke="midnightblue" d="M39.3608,-57.4145C42.6107,-44.9883 46.7356,-29.2166 49.2436,-19.6273"/>
<polygon fill="midnightblue" stroke="midnightblue" points="35.9369,-56.6736 36.7927,-67.2338 42.7092,-58.4448 35.9369,-56.6736"/>
</g>
<!-- Node3 -->
<g id="node3" class="node"><title>Node3</title>
<g id="a_node3"><a xlink:href="class_client_model.html" target="_top" xlink:title="Model for Anoncoin network client. ">
<polygon fill="white" stroke="black" points="110,-67.5 110,-86.5 179,-86.5 179,-67.5 110,-67.5"/>
<text text-anchor="middle" x="144.5" y="-74.5" font-family="Helvetica,sans-Serif" font-size="10.00">ClientModel</text>
</a>
</g>
</g>
<!-- Node3&#45;&gt;Node1 -->
<g id="edge2" class="edge"><title>Node3&#45;&gt;Node1</title>
<path fill="none" stroke="#9a32cd" stroke-dasharray="5,2" d="M100.112,-66.8826C88.7857,-62.879 77.3306,-57.1566 68.5,-49 60.0055,-41.1538 55.4885,-28.2716 53.2953,-19.7133"/>
<polygon fill="#9a32cd" stroke="#9a32cd" points="99.3735,-70.3192 109.963,-69.9763 101.471,-63.6408 99.3735,-70.3192"/>
<text text-anchor="middle" x="95.5" y="-41" font-family="Helvetica,sans-Serif" font-size="10.00"> clientModel</text>
</g>
<!-- Node5 -->
<g id="node5" class="node"><title>Node5</title>
<g id="a_node5"><a xlink:href="class_peer_table_model.html" target="_top" xlink:title="Qt model providing information about connected peers, similar to the &quot;getpeerinfo&quot; RPC call...">
<polygon fill="white" stroke="black" points="221.5,-0.5 221.5,-19.5 311.5,-19.5 311.5,-0.5 221.5,-0.5"/>
<text text-anchor="middle" x="266.5" y="-7.5" font-family="Helvetica,sans-Serif" font-size="10.00">PeerTableModel</text>
</a>
</g>
</g>
<!-- Node3&#45;&gt;Node5 -->
<g id="edge7" class="edge"><title>Node3&#45;&gt;Node5</title>
<path fill="none" stroke="#9a32cd" stroke-dasharray="5,2" d="M138.045,-57.5779C136.857,-50.7716 137.136,-43.4073 141.5,-38 151.539,-25.5605 189.835,-18.5725 221.423,-14.8389"/>
<polygon fill="#9a32cd" stroke="#9a32cd" points="134.732,-58.73 140.745,-67.4527 141.484,-56.8836 134.732,-58.73"/>
<text text-anchor="middle" x="168.5" y="-41" font-family="Helvetica,sans-Serif" font-size="10.00"> clientModel</text>
</g>
<!-- Node4 -->
<g id="node4" class="node"><title>Node4</title>
<polygon fill="white" stroke="#bfbfbf" points="89,-134.5 89,-153.5 142,-153.5 142,-134.5 89,-134.5"/>
<text text-anchor="middle" x="115.5" y="-141.5" font-family="Helvetica,sans-Serif" font-size="10.00">QObject</text>
</g>
<!-- Node4&#45;&gt;Node3 -->
<g id="edge3" class="edge"><title>Node4&#45;&gt;Node3</title>
<path fill="none" stroke="midnightblue" d="M123.624,-124.79C129.194,-112.308 136.329,-96.3135 140.651,-86.6273"/>
<polygon fill="midnightblue" stroke="midnightblue" points="120.289,-123.675 119.411,-134.234 126.682,-126.528 120.289,-123.675"/>
</g>
<!-- Node5&#45;&gt;Node3 -->
<g id="edge4" class="edge"><title>Node5&#45;&gt;Node3</title>
<path fill="none" stroke="#9a32cd" stroke-dasharray="5,2" d="M242.152,-24.6187C234.564,-28.8835 226.175,-33.62 218.5,-38 210.025,-42.8364 208.107,-44.4029 199.5,-49 187.49,-55.4147 173.74,-62.1647 162.993,-67.311"/>
<polygon fill="#9a32cd" stroke="#9a32cd" points="243.899,-27.6517 250.908,-19.7063 240.474,-21.5469 243.899,-27.6517"/>
<text text-anchor="middle" x="256.5" y="-41" font-family="Helvetica,sans-Serif" font-size="10.00"> peerTableModel</text>
</g>
<!-- Node6 -->
<g id="node6" class="node"><title>Node6</title>
<polygon fill="white" stroke="#bfbfbf" points="256,-67.5 256,-86.5 369,-86.5 369,-67.5 256,-67.5"/>
<text text-anchor="middle" x="312.5" y="-74.5" font-family="Helvetica,sans-Serif" font-size="10.00">QAbstractTableModel</text>
</g>
<!-- Node6&#45;&gt;Node5 -->
<g id="edge5" class="edge"><title>Node6&#45;&gt;Node5</title>
<path fill="none" stroke="midnightblue" d="M307.732,-57.2661C305.551,-50.8056 302.534,-43.7532 298.5,-38 293.493,-30.8578 286.148,-24.4788 279.758,-19.7168"/>
<polygon fill="midnightblue" stroke="midnightblue" points="304.483,-58.6258 310.642,-67.2459 311.203,-56.6659 304.483,-58.6258"/>
</g>
<!-- Node7 -->
<g id="node7" class="node"><title>Node7</title>
<g id="a_node7"><a xlink:href="class_peer_table_priv.html" target="_top" xlink:title="PeerTablePriv">
<polygon fill="white" stroke="black" points="387.5,-67.5 387.5,-86.5 467.5,-86.5 467.5,-67.5 387.5,-67.5"/>
<text text-anchor="middle" x="427.5" y="-74.5" font-family="Helvetica,sans-Serif" font-size="10.00">PeerTablePriv</text>
</a>
</g>
</g>
<!-- Node7&#45;&gt;Node5 -->
<g id="edge6" class="edge"><title>Node7&#45;&gt;Node5</title>
<path fill="none" stroke="#9a32cd" stroke-dasharray="5,2" d="M396.796,-63.6041C364.83,-50.6984 315.61,-30.8272 287.712,-19.5637"/>
<polygon fill="#9a32cd" stroke="#9a32cd" points="395.537,-66.8702 406.12,-67.3685 398.158,-60.3793 395.537,-66.8702"/>
<text text-anchor="middle" x="367" y="-41" font-family="Helvetica,sans-Serif" font-size="10.00"> priv</text>
</g>
<!-- Node8 -->
<g id="node8" class="node"><title>Node8</title>
<g id="a_node8"><a xlink:href="class_options_model.html" target="_top" xlink:title="Interface from Qt to configuration data structure for Anoncoin client. ">
<polygon fill="white" stroke="black" points="160.5,-134.5 160.5,-153.5 238.5,-153.5 238.5,-134.5 160.5,-134.5"/>
<text text-anchor="middle" x="199.5" y="-141.5" font-family="Helvetica,sans-Serif" font-size="10.00">OptionsModel</text>
</a>
</g>
</g>
<!-- Node8&#45;&gt;Node3 -->
<g id="edge8" class="edge"><title>Node8&#45;&gt;Node3</title>
<path fill="none" stroke="#9a32cd" stroke-dasharray="5,2" d="M185.344,-126.27C174.621,-113.597 160.324,-96.701 151.8,-86.6273"/>
<polygon fill="#9a32cd" stroke="#9a32cd" points="182.951,-128.861 192.082,-134.234 188.295,-124.339 182.951,-128.861"/>
<text text-anchor="middle" x="207" y="-108" font-family="Helvetica,sans-Serif" font-size="10.00"> optionsModel</text>
</g>
<!-- Node9 -->
<g id="node9" class="node"><title>Node9</title>
<polygon fill="white" stroke="#bfbfbf" points="147.5,-191.5 147.5,-210.5 251.5,-210.5 251.5,-191.5 147.5,-191.5"/>
<text text-anchor="middle" x="199.5" y="-198.5" font-family="Helvetica,sans-Serif" font-size="10.00">QAbstractListModel</text>
</g>
<!-- Node9&#45;&gt;Node8 -->
<g id="edge9" class="edge"><title>Node9&#45;&gt;Node8</title>
<path fill="none" stroke="midnightblue" d="M199.5,-181.117C199.5,-171.817 199.5,-161.056 199.5,-153.715"/>
<polygon fill="midnightblue" stroke="midnightblue" points="196,-181.406 199.5,-191.406 203,-181.406 196,-181.406"/>
</g>
</g>
</svg>
