<?xml version="1.0" encoding="UTF-8" standalone="no"?>
<!DOCTYPE svg PUBLIC "-//W3C//DTD SVG 1.1//EN"
 "http://www.w3.org/Graphics/SVG/1.1/DTD/svg11.dtd">
<!-- Generated by graphviz version 2.38.0 (20140413.2041)
 -->
<!-- Title: CMerkleTx Pages: 1 -->
<svg width="166pt" height="152pt"
 viewBox="0.00 0.00 165.50 152.00" xmlns="http://www.w3.org/2000/svg" xmlns:xlink="http://www.w3.org/1999/xlink">
<g id="graph0" class="graph" transform="scale(1 1) rotate(0) translate(4 148)">
<title>CMerkleTx</title>
<polygon fill="white" stroke="none" points="-4,4 -4,-148 161.5,-148 161.5,4 -4,4"/>
<!-- Node1 -->
<g id="node1" class="node"><title>Node1</title>
<polygon fill="#bfbfbf" stroke="black" points="33.5,-0.5 33.5,-19.5 98.5,-19.5 98.5,-0.5 33.5,-0.5"/>
<text text-anchor="middle" x="66" y="-7.5" font-family="Helvetica,sans-Serif" font-size="10.00">CMerkleTx</text>
</g>
<!-- Node2 -->
<g id="node2" class="node"><title>Node2</title>
<g id="a_node2"><a xlink:href="class_c_transaction.html" target="_top" xlink:title="The basic transaction that is broadcasted on the network and contained in blocks. ...">
<polygon fill="white" stroke="black" points="0,-67.5 0,-86.5 76,-86.5 76,-67.5 0,-67.5"/>
<text text-anchor="middle" x="38" y="-74.5" font-family="Helvetica,sans-Serif" font-size="10.00">CTransaction</text>
</a>
</g>
</g>
<!-- Node2&#45;&gt;Node1 -->
<g id="edge1" class="edge"><title>Node2&#45;&gt;Node1</title>
<path fill="none" stroke="midnightblue" d="M45.8443,-57.79C51.2213,-45.3076 58.1111,-29.3135 62.2836,-19.6273"/>
<polygon fill="midnightblue" stroke="midnightblue" points="42.5181,-56.665 41.7762,-67.2338 48.9469,-59.4344 42.5181,-56.665"/>
</g>
<!-- Node3 -->
<g id="node3" class="node"><title>Node3</title>
<g id="a_node3"><a xlink:href="classuint256.html" target="_top" xlink:title="256&#45;bit unsigned integer ">
<polygon fill="white" stroke="black" points="94.5,-67.5 94.5,-86.5 143.5,-86.5 143.5,-67.5 94.5,-67.5"/>
<text text-anchor="middle" x="119" y="-74.5" font-family="Helvetica,sans-Serif" font-size="10.00">uint256</text>
</a>
</g>
</g>
<!-- Node3&#45;&gt;Node1 -->
<g id="edge2" class="edge"><title>Node3&#45;&gt;Node1</title>
<path fill="none" stroke="#9a32cd" stroke-dasharray="5,2" d="M105.359,-59.2705C95.0254,-46.5972 81.2485,-29.701 73.0346,-19.6273"/>
<polygon fill="#9a32cd" stroke="#9a32cd" points="102.82,-61.6954 111.852,-67.2338 108.245,-57.2718 102.82,-61.6954"/>
<text text-anchor="middle" x="119.5" y="-41" font-family="Helvetica,sans-Serif" font-size="10.00"> hashBlock</text>
</g>
<!-- Node4 -->
<g id="node4" class="node"><title>Node4</title>
<g id="a_node4"><a xlink:href="classbase__uint.html" target="_top" xlink:title="Base class without constructors for uint256 and uint160. ">
<polygon fill="white" stroke="black" points="80.5,-124.5 80.5,-143.5 157.5,-143.5 157.5,-124.5 80.5,-124.5"/>
<text text-anchor="middle" x="119" y="-131.5" font-family="Helvetica,sans-Serif" font-size="10.00">base_uint256</text>
</a>
</g>
</g>
<!-- Node4&#45;&gt;Node3 -->
<g id="edge3" class="edge"><title>Node4&#45;&gt;Node3</title>
<path fill="none" stroke="midnightblue" d="M119,-114.117C119,-104.817 119,-94.0557 119,-86.7149"/>
<polygon fill="midnightblue" stroke="midnightblue" points="115.5,-114.406 119,-124.406 122.5,-114.406 115.5,-114.406"/>
</g>
</g>
</svg>
