<?xml version="1.0" encoding="UTF-8" standalone="no"?>
<!DOCTYPE svg PUBLIC "-//W3C//DTD SVG 1.1//EN"
 "http://www.w3.org/Graphics/SVG/1.1/DTD/svg11.dtd">
<!-- Generated by graphviz version 2.38.0 (20140413.2041)
 -->
<!-- Title: AnoncoinGUI::showNormalIfMinimized Pages: 1 -->
<svg width="431pt" height="39pt"
 viewBox="0.00 0.00 431.00 39.00" xmlns="http://www.w3.org/2000/svg" xmlns:xlink="http://www.w3.org/1999/xlink">
<g id="graph0" class="graph" transform="scale(1 1) rotate(0) translate(4 35)">
<title>AnoncoinGUI::showNormalIfMinimized</title>
<polygon fill="white" stroke="none" points="-4,4 -4,-35 427,-35 427,4 -4,4"/>
<!-- Node1 -->
<g id="node1" class="node"><title>Node1</title>
<polygon fill="#bfbfbf" stroke="black" points="0,-0.5 0,-30.5 143,-30.5 143,-0.5 0,-0.5"/>
<text text-anchor="start" x="8" y="-18.5" font-family="Helvetica,sans-Serif" font-size="10.00">AnoncoinGUI::showNormalIf</text>
<text text-anchor="middle" x="71.5" y="-7.5" font-family="Helvetica,sans-Serif" font-size="10.00">Minimized</text>
</g>
<!-- Node2 -->
<g id="node2" class="node"><title>Node2</title>
<g id="a_node2"><a xlink:href="namespace_g_u_i_util.html#a0b7266e2b8e7de5f5fd1c7ddb9e5b637" target="_top" xlink:title="GUIUtil::isObscured">
<polygon fill="white" stroke="black" points="179,-6 179,-25 284,-25 284,-6 179,-6"/>
<text text-anchor="middle" x="231.5" y="-13" font-family="Helvetica,sans-Serif" font-size="10.00">GUIUtil::isObscured</text>
</a>
</g>
</g>
<!-- Node1&#45;&gt;Node2 -->
<g id="edge1" class="edge"><title>Node1&#45;&gt;Node2</title>
<path fill="none" stroke="midnightblue" d="M143.182,-15.5C151.71,-15.5 160.369,-15.5 168.756,-15.5"/>
<polygon fill="midnightblue" stroke="midnightblue" points="168.823,-19.0001 178.823,-15.5 168.823,-12.0001 168.823,-19.0001"/>
</g>
<!-- Node3 -->
<g id="node3" class="node"><title>Node3</title>
<g id="a_node3"><a xlink:href="namespace_g_u_i_util.html#ab2e7ef0aa9a1ad3f86d67a3f596b6fc4" target="_top" xlink:title="GUIUtil::checkPoint">
<polygon fill="white" stroke="black" points="320,-6 320,-25 423,-25 423,-6 320,-6"/>
<text text-anchor="middle" x="371.5" y="-13" font-family="Helvetica,sans-Serif" font-size="10.00">GUIUtil::checkPoint</text>
</a>
</g>
</g>
<!-- Node2&#45;&gt;Node3 -->
<g id="edge2" class="edge"><title>Node2&#45;&gt;Node3</title>
<path fill="none" stroke="midnightblue" d="M284.279,-15.5C292.543,-15.5 301.16,-15.5 309.612,-15.5"/>
<polygon fill="midnightblue" stroke="midnightblue" points="309.806,-19.0001 319.806,-15.5 309.806,-12.0001 309.806,-19.0001"/>
</g>
</g>
</svg>
