<?xml version="1.0" encoding="UTF-8" standalone="no"?>
<!DOCTYPE svg PUBLIC "-//W3C//DTD SVG 1.1//EN"
 "http://www.w3.org/Graphics/SVG/1.1/DTD/svg11.dtd">
<!-- Generated by graphviz version 2.38.0 (20140413.2041)
 -->
<!-- Title: CReserveKey::GetReservedKey Pages: 1 -->
<svg width="549pt" height="28pt"
 viewBox="0.00 0.00 549.00 28.00" xmlns="http://www.w3.org/2000/svg" xmlns:xlink="http://www.w3.org/1999/xlink">
<g id="graph0" class="graph" transform="scale(1 1) rotate(0) translate(4 24)">
<title>CReserveKey::GetReservedKey</title>
<polygon fill="white" stroke="none" points="-4,4 -4,-24 545,-24 545,4 -4,4"/>
<!-- Node1 -->
<g id="node1" class="node"><title>Node1</title>
<polygon fill="#bfbfbf" stroke="black" points="0,-0.5 0,-19.5 160,-19.5 160,-0.5 0,-0.5"/>
<text text-anchor="middle" x="80" y="-7.5" font-family="Helvetica,sans-Serif" font-size="10.00">CReserveKey::GetReservedKey</text>
</g>
<!-- Node2 -->
<g id="node2" class="node"><title>Node2</title>
<g id="a_node2"><a xlink:href="class_c_pub_key.html#aad6f369d7972f2244466ca6db900c2a4" target="_top" xlink:title="CPubKey::IsValid">
<polygon fill="white" stroke="black" points="196,-0.5 196,-19.5 290,-19.5 290,-0.5 196,-0.5"/>
<text text-anchor="middle" x="243" y="-7.5" font-family="Helvetica,sans-Serif" font-size="10.00">CPubKey::IsValid</text>
</a>
</g>
</g>
<!-- Node1&#45;&gt;Node2 -->
<g id="edge1" class="edge"><title>Node1&#45;&gt;Node2</title>
<path fill="none" stroke="midnightblue" d="M160.085,-10C168.696,-10 177.328,-10 185.588,-10"/>
<polygon fill="midnightblue" stroke="midnightblue" points="185.822,-13.5001 195.822,-10 185.822,-6.5001 185.822,-13.5001"/>
</g>
<!-- Node3 -->
<g id="node3" class="node"><title>Node3</title>
<g id="a_node3"><a xlink:href="class_c_pub_key.html#a9d7129b65b6dee792b4f3923cd64ed59" target="_top" xlink:title="CPubKey::size">
<polygon fill="white" stroke="black" points="326,-0.5 326,-19.5 408,-19.5 408,-0.5 326,-0.5"/>
<text text-anchor="middle" x="367" y="-7.5" font-family="Helvetica,sans-Serif" font-size="10.00">CPubKey::size</text>
</a>
</g>
</g>
<!-- Node2&#45;&gt;Node3 -->
<g id="edge2" class="edge"><title>Node2&#45;&gt;Node3</title>
<path fill="none" stroke="midnightblue" d="M290.123,-10C298.47,-10 307.213,-10 315.673,-10"/>
<polygon fill="midnightblue" stroke="midnightblue" points="315.807,-13.5001 325.807,-10 315.807,-6.5001 315.807,-13.5001"/>
</g>
<!-- Node4 -->
<g id="node4" class="node"><title>Node4</title>
<g id="a_node4"><a xlink:href="class_c_pub_key.html#a7dc71b3f037c84268dc22de97d7b65fb" target="_top" xlink:title="CPubKey::GetLen">
<polygon fill="white" stroke="black" points="444,-0.5 444,-19.5 541,-19.5 541,-0.5 444,-0.5"/>
<text text-anchor="middle" x="492.5" y="-7.5" font-family="Helvetica,sans-Serif" font-size="10.00">CPubKey::GetLen</text>
</a>
</g>
</g>
<!-- Node3&#45;&gt;Node4 -->
<g id="edge3" class="edge"><title>Node3&#45;&gt;Node4</title>
<path fill="none" stroke="midnightblue" d="M408.097,-10C416.298,-10 425.082,-10 433.76,-10"/>
<polygon fill="midnightblue" stroke="midnightblue" points="433.858,-13.5001 443.858,-10 433.858,-6.5001 433.858,-13.5001"/>
</g>
</g>
</svg>
