<?xml version="1.0" encoding="UTF-8" standalone="no"?>
<!DOCTYPE svg PUBLIC "-//W3C//DTD SVG 1.1//EN"
 "http://www.w3.org/Graphics/SVG/1.1/DTD/svg11.dtd">
<!-- Generated by graphviz version 2.38.0 (20140413.2041)
 -->
<!-- Title: OpenURIDialog Pages: 1 -->
<svg width="182pt" height="276pt"
 viewBox="0.00 0.00 181.50 276.00" xmlns="http://www.w3.org/2000/svg" xmlns:xlink="http://www.w3.org/1999/xlink">
<g id="graph0" class="graph" transform="scale(1 1) rotate(0) translate(4 272)">
<title>OpenURIDialog</title>
<polygon fill="white" stroke="none" points="-4,4 -4,-272 177.5,-272 177.5,4 -4,4"/>
<!-- Node1 -->
<g id="node1" class="node"><title>Node1</title>
<polygon fill="#bfbfbf" stroke="black" points="15,-0.5 15,-19.5 102,-19.5 102,-0.5 15,-0.5"/>
<text text-anchor="middle" x="58.5" y="-7.5" font-family="Helvetica,sans-Serif" font-size="10.00">OpenURIDialog</text>
</g>
<!-- Node2 -->
<g id="node2" class="node"><title>Node2</title>
<polygon fill="white" stroke="#bfbfbf" points="0,-67.5 0,-86.5 53,-86.5 53,-67.5 0,-67.5"/>
<text text-anchor="middle" x="26.5" y="-74.5" font-family="Helvetica,sans-Serif" font-size="10.00">QDialog</text>
</g>
<!-- Node2&#45;&gt;Node1 -->
<g id="edge1" class="edge"><title>Node2&#45;&gt;Node1</title>
<path fill="none" stroke="midnightblue" d="M35.2811,-58.1635C41.4523,-45.6281 49.4364,-29.4104 54.2527,-19.6273"/>
<polygon fill="midnightblue" stroke="midnightblue" points="32.0925,-56.7162 30.8157,-67.2338 38.3727,-59.808 32.0925,-56.7162"/>
</g>
<!-- Node3 -->
<g id="node3" class="node"><title>Node3</title>
<g id="a_node3"><a xlink:href="class_ui_1_1_open_u_r_i_dialog.html" target="_top" xlink:title="Ui::OpenURIDialog">
<polygon fill="white" stroke="black" points="71.5,-67.5 71.5,-86.5 173.5,-86.5 173.5,-67.5 71.5,-67.5"/>
<text text-anchor="middle" x="122.5" y="-74.5" font-family="Helvetica,sans-Serif" font-size="10.00">Ui::OpenURIDialog</text>
</a>
</g>
</g>
<!-- Node3&#45;&gt;Node1 -->
<g id="edge2" class="edge"><title>Node3&#45;&gt;Node1</title>
<path fill="none" stroke="#9a32cd" stroke-dasharray="5,2" d="M106.743,-59.9968C94.1919,-47.2496 77.104,-29.8947 66.9946,-19.6273"/>
<polygon fill="#9a32cd" stroke="#9a32cd" points="104.359,-62.5637 113.869,-67.2338 109.347,-57.6525 104.359,-62.5637"/>
<text text-anchor="middle" x="99" y="-41" font-family="Helvetica,sans-Serif" font-size="10.00"> ui</text>
</g>
<!-- Node4 -->
<g id="node4" class="node"><title>Node4</title>
<g id="a_node4"><a xlink:href="class_ui___open_u_r_i_dialog.html" target="_top" xlink:title="Ui_OpenURIDialog">
<polygon fill="white" stroke="black" points="71.5,-124.5 71.5,-143.5 173.5,-143.5 173.5,-124.5 71.5,-124.5"/>
<text text-anchor="middle" x="122.5" y="-131.5" font-family="Helvetica,sans-Serif" font-size="10.00">Ui_OpenURIDialog</text>
</a>
</g>
</g>
<!-- Node4&#45;&gt;Node3 -->
<g id="edge3" class="edge"><title>Node4&#45;&gt;Node3</title>
<path fill="none" stroke="midnightblue" d="M122.5,-114.117C122.5,-104.817 122.5,-94.0557 122.5,-86.7149"/>
<polygon fill="midnightblue" stroke="midnightblue" points="119,-114.406 122.5,-124.406 126,-114.406 119,-114.406"/>
</g>
<!-- Node5 -->
<g id="node5" class="node"><title>Node5</title>
<g id="a_node5"><a xlink:href="class_q_validated_line_edit.html" target="_top" xlink:title="Line edit that can be marked as &quot;invalid&quot; to show input validation feedback. ">
<polygon fill="white" stroke="black" points="71.5,-191.5 71.5,-210.5 173.5,-210.5 173.5,-191.5 71.5,-191.5"/>
<text text-anchor="middle" x="122.5" y="-198.5" font-family="Helvetica,sans-Serif" font-size="10.00">QValidatedLineEdit</text>
</a>
</g>
</g>
<!-- Node5&#45;&gt;Node4 -->
<g id="edge4" class="edge"><title>Node5&#45;&gt;Node4</title>
<path fill="none" stroke="#9a32cd" stroke-dasharray="5,2" d="M122.5,-181.037C122.5,-168.67 122.5,-153.12 122.5,-143.627"/>
<polygon fill="#9a32cd" stroke="#9a32cd" points="119,-181.234 122.5,-191.234 126,-181.234 119,-181.234"/>
<text text-anchor="middle" x="138.5" y="-165" font-family="Helvetica,sans-Serif" font-size="10.00"> uriEdit</text>
</g>
<!-- Node6 -->
<g id="node6" class="node"><title>Node6</title>
<polygon fill="white" stroke="#bfbfbf" points="92.5,-248.5 92.5,-267.5 152.5,-267.5 152.5,-248.5 92.5,-248.5"/>
<text text-anchor="middle" x="122.5" y="-255.5" font-family="Helvetica,sans-Serif" font-size="10.00">QLineEdit</text>
</g>
<!-- Node6&#45;&gt;Node5 -->
<g id="edge5" class="edge"><title>Node6&#45;&gt;Node5</title>
<path fill="none" stroke="midnightblue" d="M122.5,-238.117C122.5,-228.817 122.5,-218.056 122.5,-210.715"/>
<polygon fill="midnightblue" stroke="midnightblue" points="119,-238.406 122.5,-248.406 126,-238.406 119,-238.406"/>
</g>
</g>
</svg>
