<?xml version="1.0" encoding="UTF-8" standalone="no"?>
<!DOCTYPE svg PUBLIC "-//W3C//DTD SVG 1.1//EN"
 "http://www.w3.org/Graphics/SVG/1.1/DTD/svg11.dtd">
<!-- Generated by graphviz version 2.38.0 (20140413.2041)
 -->
<!-- Title: CDBEnv::CheckpointLSN Pages: 1 -->
<svg width="909pt" height="209pt"
 viewBox="0.00 0.00 909.00 208.50" xmlns="http://www.w3.org/2000/svg" xmlns:xlink="http://www.w3.org/1999/xlink">
<g id="graph0" class="graph" transform="scale(1 1) rotate(0) translate(4 204.5)">
<title>CDBEnv::CheckpointLSN</title>
<polygon fill="white" stroke="none" points="-4,4 -4,-204.5 905,-204.5 905,4 -4,4"/>
<!-- Node1 -->
<g id="node1" class="node"><title>Node1</title>
<polygon fill="#bfbfbf" stroke="black" points="0,-76.5 0,-95.5 130,-95.5 130,-76.5 0,-76.5"/>
<text text-anchor="middle" x="65" y="-83.5" font-family="Helvetica,sans-Serif" font-size="10.00">CDBEnv::CheckpointLSN</text>
</g>
<!-- Node2 -->
<g id="node2" class="node"><title>Node2</title>
<g id="a_node2"><a xlink:href="class_c_d_b.html#acfb8a373edb9c4cfab780fb7578b277e" target="_top" xlink:title="CDB::Rewrite">
<polygon fill="white" stroke="black" points="184.5,-114.5 184.5,-133.5 261.5,-133.5 261.5,-114.5 184.5,-114.5"/>
<text text-anchor="middle" x="223" y="-121.5" font-family="Helvetica,sans-Serif" font-size="10.00">CDB::Rewrite</text>
</a>
</g>
</g>
<!-- Node1&#45;&gt;Node2 -->
<g id="edge1" class="edge"><title>Node1&#45;&gt;Node2</title>
<path fill="none" stroke="midnightblue" d="M115.323,-98.0145C137.62,-103.446 163.55,-109.762 184.262,-114.807"/>
<polygon fill="midnightblue" stroke="midnightblue" points="115.91,-94.5552 105.365,-95.589 114.253,-101.356 115.91,-94.5552"/>
</g>
<!-- Node13 -->
<g id="node13" class="node"><title>Node13</title>
<g id="a_node13"><a xlink:href="walletdb_8cpp.html#a571e13707ba159c7c047875764ae5e2b" target="_top" xlink:title="ThreadFlushWalletDB">
<polygon fill="white" stroke="black" points="166,-76.5 166,-95.5 280,-95.5 280,-76.5 166,-76.5"/>
<text text-anchor="middle" x="223" y="-83.5" font-family="Helvetica,sans-Serif" font-size="10.00">ThreadFlushWalletDB</text>
</a>
</g>
</g>
<!-- Node1&#45;&gt;Node13 -->
<g id="edge13" class="edge"><title>Node1&#45;&gt;Node13</title>
<path fill="none" stroke="midnightblue" d="M140.621,-86C149.084,-86 157.6,-86 165.77,-86"/>
<polygon fill="midnightblue" stroke="midnightblue" points="140.352,-82.5001 130.352,-86 140.352,-89.5001 140.352,-82.5001"/>
</g>
<!-- Node14 -->
<g id="node14" class="node"><title>Node14</title>
<g id="a_node14"><a xlink:href="walletdb_8cpp.html#a273c3692765c732c5f724cec93e6b62f" target="_top" xlink:title="BackupWallet">
<polygon fill="white" stroke="black" points="184,-38.5 184,-57.5 262,-57.5 262,-38.5 184,-38.5"/>
<text text-anchor="middle" x="223" y="-45.5" font-family="Helvetica,sans-Serif" font-size="10.00">BackupWallet</text>
</a>
</g>
</g>
<!-- Node1&#45;&gt;Node14 -->
<g id="edge14" class="edge"><title>Node1&#45;&gt;Node14</title>
<path fill="none" stroke="midnightblue" d="M115.285,-73.9948C137.495,-68.5846 163.315,-62.2951 183.994,-57.2579"/>
<polygon fill="midnightblue" stroke="midnightblue" points="114.253,-70.6437 105.365,-76.411 115.91,-77.4448 114.253,-70.6437"/>
</g>
<!-- Node3 -->
<g id="node3" class="node"><title>Node3</title>
<g id="a_node3"><a xlink:href="class_c_wallet.html#ab34fe5bf771619dcbe22a65f013e5469" target="_top" xlink:title="CWallet::EncryptWallet">
<polygon fill="white" stroke="black" points="325,-152.5 325,-171.5 444,-171.5 444,-152.5 325,-152.5"/>
<text text-anchor="middle" x="384.5" y="-159.5" font-family="Helvetica,sans-Serif" font-size="10.00">CWallet::EncryptWallet</text>
</a>
</g>
</g>
<!-- Node2&#45;&gt;Node3 -->
<g id="edge2" class="edge"><title>Node2&#45;&gt;Node3</title>
<path fill="none" stroke="midnightblue" d="M271.651,-135.353C294.539,-140.806 321.661,-147.267 343.465,-152.462"/>
<polygon fill="midnightblue" stroke="midnightblue" points="272.338,-131.918 261.799,-133.005 270.716,-138.728 272.338,-131.918"/>
</g>
<!-- Node7 -->
<g id="node7" class="node"><title>Node7</title>
<g id="a_node7"><a xlink:href="class_c_wallet.html#a5d7b244b8ed0cbe24233ee0b6ca3cae0" target="_top" xlink:title="CWallet::LoadWallet">
<polygon fill="white" stroke="black" points="331,-114.5 331,-133.5 438,-133.5 438,-114.5 331,-114.5"/>
<text text-anchor="middle" x="384.5" y="-121.5" font-family="Helvetica,sans-Serif" font-size="10.00">CWallet::LoadWallet</text>
</a>
</g>
</g>
<!-- Node2&#45;&gt;Node7 -->
<g id="edge6" class="edge"><title>Node2&#45;&gt;Node7</title>
<path fill="none" stroke="midnightblue" d="M271.823,-124C290.44,-124 311.836,-124 330.887,-124"/>
<polygon fill="midnightblue" stroke="midnightblue" points="271.799,-120.5 261.799,-124 271.799,-127.5 271.799,-120.5"/>
</g>
<!-- Node12 -->
<g id="node12" class="node"><title>Node12</title>
<g id="a_node12"><a xlink:href="class_c_wallet.html#a990b51be353f28ed9f0e3b8d192b874f" target="_top" xlink:title="CWallet::ZapWalletTx">
<polygon fill="white" stroke="black" points="328,-76.5 328,-95.5 441,-95.5 441,-76.5 328,-76.5"/>
<text text-anchor="middle" x="384.5" y="-83.5" font-family="Helvetica,sans-Serif" font-size="10.00">CWallet::ZapWalletTx</text>
</a>
</g>
</g>
<!-- Node2&#45;&gt;Node12 -->
<g id="edge11" class="edge"><title>Node2&#45;&gt;Node12</title>
<path fill="none" stroke="midnightblue" d="M271.651,-112.647C294.539,-107.194 321.661,-100.733 343.465,-95.538"/>
<polygon fill="midnightblue" stroke="midnightblue" points="270.716,-109.272 261.799,-114.995 272.338,-116.082 270.716,-109.272"/>
</g>
<!-- Node4 -->
<g id="node4" class="node"><title>Node4</title>
<g id="a_node4"><a xlink:href="class_wallet_model.html#a444340830badcd48e3a4dd6b03d9c4d7" target="_top" xlink:title="WalletModel::setWalletEncrypted">
<polygon fill="white" stroke="black" points="489,-175.5 489,-194.5 652,-194.5 652,-175.5 489,-175.5"/>
<text text-anchor="middle" x="570.5" y="-182.5" font-family="Helvetica,sans-Serif" font-size="10.00">WalletModel::setWalletEncrypted</text>
</a>
</g>
</g>
<!-- Node3&#45;&gt;Node4 -->
<g id="edge3" class="edge"><title>Node3&#45;&gt;Node4</title>
<path fill="none" stroke="midnightblue" d="M454.251,-170.594C466.946,-172.181 480.274,-173.847 493.178,-175.46"/>
<polygon fill="midnightblue" stroke="midnightblue" points="454.582,-167.108 444.225,-169.341 453.713,-174.054 454.582,-167.108"/>
</g>
<!-- Node6 -->
<g id="node6" class="node"><title>Node6</title>
<g id="a_node6"><a xlink:href="rpcwallet_8cpp.html#a5fb49bac2748015a256c63e9f8ccc539" target="_top" xlink:title="encryptwallet">
<polygon fill="white" stroke="black" points="533,-137.5 533,-156.5 608,-156.5 608,-137.5 533,-137.5"/>
<text text-anchor="middle" x="570.5" y="-144.5" font-family="Helvetica,sans-Serif" font-size="10.00">encryptwallet</text>
</a>
</g>
</g>
<!-- Node3&#45;&gt;Node6 -->
<g id="edge5" class="edge"><title>Node3&#45;&gt;Node6</title>
<path fill="none" stroke="midnightblue" d="M454.303,-156.391C481.009,-154.214 510.505,-151.809 532.965,-149.978"/>
<polygon fill="midnightblue" stroke="midnightblue" points="453.907,-152.912 444.225,-157.213 454.476,-159.888 453.907,-152.912"/>
</g>
<!-- Node5 -->
<g id="node5" class="node"><title>Node5</title>
<g id="a_node5"><a xlink:href="class_ask_passphrase_dialog.html#ac2f176af3693b73870d26ef0bfc6cbb9" target="_top" xlink:title="AskPassphraseDialog\l::accept">
<polygon fill="white" stroke="black" points="700.5,-170 700.5,-200 814.5,-200 814.5,-170 700.5,-170"/>
<text text-anchor="start" x="708.5" y="-188" font-family="Helvetica,sans-Serif" font-size="10.00">AskPassphraseDialog</text>
<text text-anchor="middle" x="757.5" y="-177" font-family="Helvetica,sans-Serif" font-size="10.00">::accept</text>
</a>
</g>
</g>
<!-- Node4&#45;&gt;Node5 -->
<g id="edge4" class="edge"><title>Node4&#45;&gt;Node5</title>
<path fill="none" stroke="midnightblue" d="M662.443,-185C675.368,-185 688.333,-185 700.329,-185"/>
<polygon fill="midnightblue" stroke="midnightblue" points="662.106,-181.5 652.106,-185 662.105,-188.5 662.106,-181.5"/>
</g>
<!-- Node8 -->
<g id="node8" class="node"><title>Node8</title>
<g id="a_node8"><a xlink:href="init_8h.html#a1a4c1bfbf6ba1db77e988b89b9cadfd3" target="_top" xlink:title="Initialize anoncoin. ">
<polygon fill="white" stroke="black" points="544,-79.5 544,-98.5 597,-98.5 597,-79.5 544,-79.5"/>
<text text-anchor="middle" x="570.5" y="-86.5" font-family="Helvetica,sans-Serif" font-size="10.00">AppInit2</text>
</a>
</g>
</g>
<!-- Node7&#45;&gt;Node8 -->
<g id="edge7" class="edge"><title>Node7&#45;&gt;Node8</title>
<path fill="none" stroke="midnightblue" d="M445.871,-112.516C479.114,-106.193 518.63,-98.6764 543.879,-93.8735"/>
<polygon fill="midnightblue" stroke="midnightblue" points="444.949,-109.129 435.779,-114.436 446.257,-116.006 444.949,-109.129"/>
</g>
<!-- Node9 -->
<g id="node9" class="node"><title>Node9</title>
<g id="a_node9"><a xlink:href="anoncoind_8cpp.html#ac59316b767e6984e1285f0531275286b" target="_top" xlink:title="AppInit">
<polygon fill="white" stroke="black" points="733.5,-115.5 733.5,-134.5 781.5,-134.5 781.5,-115.5 733.5,-115.5"/>
<text text-anchor="middle" x="757.5" y="-122.5" font-family="Helvetica,sans-Serif" font-size="10.00">AppInit</text>
</a>
</g>
</g>
<!-- Node8&#45;&gt;Node9 -->
<g id="edge8" class="edge"><title>Node8&#45;&gt;Node9</title>
<path fill="none" stroke="midnightblue" d="M607.148,-95.9369C644.353,-103.177 701.602,-114.317 733.327,-120.491"/>
<polygon fill="midnightblue" stroke="midnightblue" points="607.708,-92.4803 597.223,-94.0056 606.371,-99.3514 607.708,-92.4803"/>
</g>
<!-- Node11 -->
<g id="node11" class="node"><title>Node11</title>
<g id="a_node11"><a xlink:href="class_anoncoin_coin.html#a9510881824d283404ac43414dbb74586" target="_top" xlink:title="AnoncoinCoin::initialize">
<polygon fill="white" stroke="black" points="697.5,-77.5 697.5,-96.5 817.5,-96.5 817.5,-77.5 697.5,-77.5"/>
<text text-anchor="middle" x="757.5" y="-84.5" font-family="Helvetica,sans-Serif" font-size="10.00">AnoncoinCoin::initialize</text>
</a>
</g>
</g>
<!-- Node8&#45;&gt;Node11 -->
<g id="edge10" class="edge"><title>Node8&#45;&gt;Node11</title>
<path fill="none" stroke="midnightblue" d="M607.557,-88.6102C633.097,-88.3341 667.93,-87.9575 697.488,-87.638"/>
<polygon fill="midnightblue" stroke="midnightblue" points="607.185,-85.1139 597.223,-88.7219 607.261,-92.1135 607.185,-85.1139"/>
</g>
<!-- Node10 -->
<g id="node10" class="node"><title>Node10</title>
<g id="a_node10"><a xlink:href="anoncoind_8cpp.html#a0ddf1224851353fc92bfbff6f499fa97" target="_top" xlink:title="main">
<polygon fill="white" stroke="black" points="863,-115.5 863,-134.5 901,-134.5 901,-115.5 863,-115.5"/>
<text text-anchor="middle" x="882" y="-122.5" font-family="Helvetica,sans-Serif" font-size="10.00">main</text>
</a>
</g>
</g>
<!-- Node9&#45;&gt;Node10 -->
<g id="edge9" class="edge"><title>Node9&#45;&gt;Node10</title>
<path fill="none" stroke="midnightblue" d="M791.842,-125C814.713,-125 844.188,-125 862.846,-125"/>
<polygon fill="midnightblue" stroke="midnightblue" points="791.541,-121.5 781.541,-125 791.541,-128.5 791.541,-121.5"/>
</g>
<!-- Node12&#45;&gt;Node8 -->
<g id="edge12" class="edge"><title>Node12&#45;&gt;Node8</title>
<path fill="none" stroke="midnightblue" d="M451.388,-87.0743C483.312,-87.5948 519.81,-88.1898 543.681,-88.579"/>
<polygon fill="midnightblue" stroke="midnightblue" points="451.261,-83.5718 441.205,-86.9082 451.147,-90.5709 451.261,-83.5718"/>
</g>
<!-- Node15 -->
<g id="node15" class="node"><title>Node15</title>
<g id="a_node15"><a xlink:href="class_wallet_model.html#aa316c19ef41f26ea89f194ab253d3206" target="_top" xlink:title="WalletModel::backupWallet">
<polygon fill="white" stroke="black" points="316,-38.5 316,-57.5 453,-57.5 453,-38.5 316,-38.5"/>
<text text-anchor="middle" x="384.5" y="-45.5" font-family="Helvetica,sans-Serif" font-size="10.00">WalletModel::backupWallet</text>
</a>
</g>
</g>
<!-- Node14&#45;&gt;Node15 -->
<g id="edge15" class="edge"><title>Node14&#45;&gt;Node15</title>
<path fill="none" stroke="midnightblue" d="M272.388,-48C286.126,-48 301.34,-48 315.99,-48"/>
<polygon fill="midnightblue" stroke="midnightblue" points="272.204,-44.5001 262.204,-48 272.204,-51.5001 272.204,-44.5001"/>
</g>
<!-- Node18 -->
<g id="node18" class="node"><title>Node18</title>
<g id="a_node18"><a xlink:href="rpcwallet_8cpp.html#a7813bcc93d80c6c4ad0ae846f80cff3e" target="_top" xlink:title="backupwallet">
<polygon fill="white" stroke="black" points="347.5,-0.5 347.5,-19.5 421.5,-19.5 421.5,-0.5 347.5,-0.5"/>
<text text-anchor="middle" x="384.5" y="-7.5" font-family="Helvetica,sans-Serif" font-size="10.00">backupwallet</text>
</a>
</g>
</g>
<!-- Node14&#45;&gt;Node18 -->
<g id="edge18" class="edge"><title>Node14&#45;&gt;Node18</title>
<path fill="none" stroke="midnightblue" d="M272.226,-36.5103C296.341,-30.7651 325.039,-23.9279 347.251,-18.6362"/>
<polygon fill="midnightblue" stroke="midnightblue" points="271.121,-33.1757 262.204,-38.8981 272.743,-39.9851 271.121,-33.1757"/>
</g>
<!-- Node16 -->
<g id="node16" class="node"><title>Node16</title>
<g id="a_node16"><a xlink:href="class_wallet_view.html#a9800d793b552076b4207276d9e08c8b6" target="_top" xlink:title="Backup the wallet. ">
<polygon fill="white" stroke="black" points="504.5,-38.5 504.5,-57.5 636.5,-57.5 636.5,-38.5 504.5,-38.5"/>
<text text-anchor="middle" x="570.5" y="-45.5" font-family="Helvetica,sans-Serif" font-size="10.00">WalletView::backupWallet</text>
</a>
</g>
</g>
<!-- Node15&#45;&gt;Node16 -->
<g id="edge16" class="edge"><title>Node15&#45;&gt;Node16</title>
<path fill="none" stroke="midnightblue" d="M463.531,-48C477.133,-48 491.152,-48 504.362,-48"/>
<polygon fill="midnightblue" stroke="midnightblue" points="463.231,-44.5001 453.231,-48 463.231,-51.5001 463.231,-44.5001"/>
</g>
<!-- Node17 -->
<g id="node17" class="node"><title>Node17</title>
<g id="a_node17"><a xlink:href="class_wallet_frame.html#a76aa3543635fedea052661a4cd44b81d" target="_top" xlink:title="Backup the wallet. ">
<polygon fill="white" stroke="black" points="688,-38.5 688,-57.5 827,-57.5 827,-38.5 688,-38.5"/>
<text text-anchor="middle" x="757.5" y="-45.5" font-family="Helvetica,sans-Serif" font-size="10.00">WalletFrame::backupWallet</text>
</a>
</g>
</g>
<!-- Node16&#45;&gt;Node17 -->
<g id="edge17" class="edge"><title>Node16&#45;&gt;Node17</title>
<path fill="none" stroke="midnightblue" d="M646.942,-48C660.458,-48 674.477,-48 687.791,-48"/>
<polygon fill="midnightblue" stroke="midnightblue" points="646.724,-44.5001 636.724,-48 646.724,-51.5001 646.724,-44.5001"/>
</g>
</g>
</svg>
