<?xml version="1.0" encoding="UTF-8" standalone="no"?>
<!DOCTYPE svg PUBLIC "-//W3C//DTD SVG 1.1//EN"
 "http://www.w3.org/Graphics/SVG/1.1/DTD/svg11.dtd">
<!-- Generated by graphviz version 2.38.0 (20140413.2041)
 -->
<!-- Title: payments::PaymentACK::set_has_payment Pages: 1 -->
<svg width="494pt" height="112pt"
 viewBox="0.00 0.00 494.00 112.00" xmlns="http://www.w3.org/2000/svg" xmlns:xlink="http://www.w3.org/1999/xlink">
<g id="graph0" class="graph" transform="scale(1 1) rotate(0) translate(4 108)">
<title>payments::PaymentACK::set_has_payment</title>
<polygon fill="white" stroke="none" points="-4,4 -4,-108 490,-108 490,4 -4,4"/>
<!-- Node1 -->
<g id="node1" class="node"><title>Node1</title>
<polygon fill="#bfbfbf" stroke="black" points="0,-24.5 0,-54.5 125,-54.5 125,-24.5 0,-24.5"/>
<text text-anchor="start" x="8" y="-42.5" font-family="Helvetica,sans-Serif" font-size="10.00">payments::PaymentACK</text>
<text text-anchor="middle" x="62.5" y="-31.5" font-family="Helvetica,sans-Serif" font-size="10.00">::set_has_payment</text>
</g>
<!-- Node2 -->
<g id="node2" class="node"><title>Node2</title>
<g id="a_node2"><a xlink:href="classpayments_1_1_payment_a_c_k.html#a0f32c0844112662398ae08d2ea4f03c4" target="_top" xlink:title="payments::PaymentACK\l::mutable_payment">
<polygon fill="white" stroke="black" points="161,-49.5 161,-79.5 286,-79.5 286,-49.5 161,-49.5"/>
<text text-anchor="start" x="169" y="-67.5" font-family="Helvetica,sans-Serif" font-size="10.00">payments::PaymentACK</text>
<text text-anchor="middle" x="223.5" y="-56.5" font-family="Helvetica,sans-Serif" font-size="10.00">::mutable_payment</text>
</a>
</g>
</g>
<!-- Node1&#45;&gt;Node2 -->
<g id="edge1" class="edge"><title>Node1&#45;&gt;Node2</title>
<path fill="none" stroke="midnightblue" d="M135.315,-50.7917C143.803,-52.1262 152.408,-53.4793 160.74,-54.7893"/>
<polygon fill="midnightblue" stroke="midnightblue" points="135.851,-47.333 125.429,-49.2372 134.764,-54.2481 135.851,-47.333"/>
</g>
<!-- Node5 -->
<g id="node5" class="node"><title>Node5</title>
<g id="a_node5"><a xlink:href="classpayments_1_1_payment_a_c_k.html#a32112e3bd38ef5957a7cc82cca0a13ce" target="_top" xlink:title="payments::PaymentACK\l::set_allocated_payment">
<polygon fill="white" stroke="black" points="161,-0.5 161,-30.5 286,-30.5 286,-0.5 161,-0.5"/>
<text text-anchor="start" x="169" y="-18.5" font-family="Helvetica,sans-Serif" font-size="10.00">payments::PaymentACK</text>
<text text-anchor="middle" x="223.5" y="-7.5" font-family="Helvetica,sans-Serif" font-size="10.00">::set_allocated_payment</text>
</a>
</g>
</g>
<!-- Node1&#45;&gt;Node5 -->
<g id="edge4" class="edge"><title>Node1&#45;&gt;Node5</title>
<path fill="none" stroke="midnightblue" d="M135.592,-28.6182C143.99,-27.3506 152.499,-26.0662 160.74,-24.8222"/>
<polygon fill="midnightblue" stroke="midnightblue" points="134.794,-25.1988 125.429,-30.1523 135.839,-32.1204 134.794,-25.1988"/>
</g>
<!-- Node3 -->
<g id="node3" class="node"><title>Node3</title>
<g id="a_node3"><a xlink:href="classpayments_1_1_payment_a_c_k.html#a5adcd0074f01127d001b88747a6cb3c8" target="_top" xlink:title="payments::PaymentACK\l::MergePartialFromCodedStream">
<polygon fill="white" stroke="black" points="322,-73.5 322,-103.5 486,-103.5 486,-73.5 322,-73.5"/>
<text text-anchor="start" x="330" y="-91.5" font-family="Helvetica,sans-Serif" font-size="10.00">payments::PaymentACK</text>
<text text-anchor="middle" x="404" y="-80.5" font-family="Helvetica,sans-Serif" font-size="10.00">::MergePartialFromCodedStream</text>
</a>
</g>
</g>
<!-- Node2&#45;&gt;Node3 -->
<g id="edge2" class="edge"><title>Node2&#45;&gt;Node3</title>
<path fill="none" stroke="midnightblue" d="M296.29,-74.1524C304.683,-75.2809 313.291,-76.4383 321.8,-77.5824"/>
<polygon fill="midnightblue" stroke="midnightblue" points="296.557,-70.6569 286.18,-72.793 295.624,-77.5945 296.557,-70.6569"/>
</g>
<!-- Node4 -->
<g id="node4" class="node"><title>Node4</title>
<g id="a_node4"><a xlink:href="classpayments_1_1_payment_a_c_k.html#a2ecc8a3689adf9291b7f08f544e71be8" target="_top" xlink:title="payments::PaymentACK\l::MergeFrom">
<polygon fill="white" stroke="black" points="341.5,-24.5 341.5,-54.5 466.5,-54.5 466.5,-24.5 341.5,-24.5"/>
<text text-anchor="start" x="349.5" y="-42.5" font-family="Helvetica,sans-Serif" font-size="10.00">payments::PaymentACK</text>
<text text-anchor="middle" x="404" y="-31.5" font-family="Helvetica,sans-Serif" font-size="10.00">::MergeFrom</text>
</a>
</g>
</g>
<!-- Node2&#45;&gt;Node4 -->
<g id="edge3" class="edge"><title>Node2&#45;&gt;Node4</title>
<path fill="none" stroke="midnightblue" d="M296.363,-54.4352C311.258,-52.349 326.826,-50.1687 341.318,-48.1389"/>
<polygon fill="midnightblue" stroke="midnightblue" points="295.597,-51.0081 286.18,-55.8614 296.568,-57.9405 295.597,-51.0081"/>
</g>
</g>
</svg>
