<?xml version="1.0" encoding="UTF-8" standalone="no"?>
<!DOCTYPE svg PUBLIC "-//W3C//DTD SVG 1.1//EN"
 "http://www.w3.org/Graphics/SVG/1.1/DTD/svg11.dtd">
<!-- Generated by graphviz version 2.38.0 (20140413.2041)
 -->
<!-- Title: WalletModel Pages: 1 -->
<svg width="1615pt" height="450pt"
 viewBox="0.00 0.00 1615.00 450.00" xmlns="http://www.w3.org/2000/svg" xmlns:xlink="http://www.w3.org/1999/xlink">
<g id="graph0" class="graph" transform="scale(1 1) rotate(0) translate(4 446)">
<title>WalletModel</title>
<polygon fill="white" stroke="none" points="-4,4 -4,-446 1611,-446 1611,4 -4,4"/>
<!-- Node1 -->
<g id="node1" class="node"><title>Node1</title>
<polygon fill="#bfbfbf" stroke="black" points="1030.5,-143.5 1030.5,-162.5 1102.5,-162.5 1102.5,-143.5 1030.5,-143.5"/>
<text text-anchor="middle" x="1066.5" y="-150.5" font-family="Helvetica,sans-Serif" font-size="10.00">WalletModel</text>
</g>
<!-- Node3 -->
<g id="node3" class="node"><title>Node3</title>
<g id="a_node3"><a xlink:href="class_transaction_table_model.html" target="_top" xlink:title="UI model for the transaction table of a wallet. ">
<polygon fill="white" stroke="black" points="1296,-92.5 1296,-111.5 1417,-111.5 1417,-92.5 1296,-92.5"/>
<text text-anchor="middle" x="1356.5" y="-99.5" font-family="Helvetica,sans-Serif" font-size="10.00">TransactionTableModel</text>
</a>
</g>
</g>
<!-- Node1&#45;&gt;Node3 -->
<g id="edge17" class="edge"><title>Node1&#45;&gt;Node3</title>
<path fill="none" stroke="#9a32cd" stroke-dasharray="5,2" d="M1090.89,-138.173C1104.87,-130.107 1123.3,-120.817 1141,-116 1191.95,-102.13 1252.11,-99.3159 1295.73,-99.5729"/>
<polygon fill="#9a32cd" stroke="#9a32cd" points="1088.78,-135.358 1081.99,-143.491 1092.37,-141.367 1088.78,-135.358"/>
<text text-anchor="middle" x="1204" y="-119" font-family="Helvetica,sans-Serif" font-size="10.00"> walletModel</text>
</g>
<!-- Node16 -->
<g id="node16" class="node"><title>Node16</title>
<g id="a_node16"><a xlink:href="class_address_table_model.html" target="_top" xlink:title="Qt model of the address book in the core. ">
<polygon fill="white" stroke="black" points="1304,-307.5 1304,-326.5 1409,-326.5 1409,-307.5 1304,-307.5"/>
<text text-anchor="middle" x="1356.5" y="-314.5" font-family="Helvetica,sans-Serif" font-size="10.00">AddressTableModel</text>
</a>
</g>
</g>
<!-- Node1&#45;&gt;Node16 -->
<g id="edge24" class="edge"><title>Node1&#45;&gt;Node16</title>
<path fill="none" stroke="#9a32cd" stroke-dasharray="5,2" d="M1079.83,-170.886C1091.25,-187.583 1108.59,-213.269 1123,-236 1131.32,-249.133 1128.15,-257.249 1141,-266 1187.93,-297.951 1211.94,-273.175 1267,-287 1288.87,-292.491 1313.08,-300.864 1330.65,-307.37"/>
<polygon fill="#9a32cd" stroke="#9a32cd" points="1082.69,-168.875 1074.15,-162.61 1076.92,-172.836 1082.69,-168.875"/>
<text text-anchor="middle" x="1204" y="-290" font-family="Helvetica,sans-Serif" font-size="10.00"> walletModel</text>
</g>
<!-- Node18 -->
<g id="node18" class="node"><title>Node18</title>
<g id="a_node18"><a xlink:href="class_recent_requests_table_model.html" target="_top" xlink:title="Model for list of recently generated payment requests / anoncoin: URIs. ">
<polygon fill="white" stroke="black" points="1285,-160.5 1285,-179.5 1428,-179.5 1428,-160.5 1285,-160.5"/>
<text text-anchor="middle" x="1356.5" y="-167.5" font-family="Helvetica,sans-Serif" font-size="10.00">RecentRequestsTableModel</text>
</a>
</g>
</g>
<!-- Node1&#45;&gt;Node18 -->
<g id="edge28" class="edge"><title>Node1&#45;&gt;Node18</title>
<path fill="none" stroke="#9a32cd" stroke-dasharray="5,2" d="M1112.52,-155.657C1158.62,-158.379 1230.95,-162.648 1284.72,-165.822"/>
<polygon fill="#9a32cd" stroke="#9a32cd" points="1112.72,-152.163 1102.53,-155.068 1112.3,-159.151 1112.72,-152.163"/>
<text text-anchor="middle" x="1204" y="-168" font-family="Helvetica,sans-Serif" font-size="10.00"> walletModel</text>
</g>
<!-- Node2 -->
<g id="node2" class="node"><title>Node2</title>
<polygon fill="white" stroke="#bfbfbf" points="845.5,-0.5 845.5,-19.5 898.5,-19.5 898.5,-0.5 845.5,-0.5"/>
<text text-anchor="middle" x="872" y="-7.5" font-family="Helvetica,sans-Serif" font-size="10.00">QObject</text>
</g>
<!-- Node2&#45;&gt;Node1 -->
<g id="edge1" class="edge"><title>Node2&#45;&gt;Node1</title>
<path fill="none" stroke="midnightblue" d="M894.197,-25.7462C934.281,-55.5231 1020.09,-119.264 1052.63,-143.437"/>
<polygon fill="midnightblue" stroke="midnightblue" points="896.044,-22.7583 885.929,-19.6047 891.87,-28.3776 896.044,-22.7583"/>
</g>
<!-- Node3&#45;&gt;Node1 -->
<g id="edge2" class="edge"><title>Node3&#45;&gt;Node1</title>
<path fill="none" stroke="#9a32cd" stroke-dasharray="5,2" d="M1327.63,-88.1678C1285.37,-69.2461 1203.39,-40.6899 1141,-69 1106.77,-84.5341 1082.21,-124.764 1072.32,-143.339"/>
<polygon fill="#9a32cd" stroke="#9a32cd" points="1326.21,-91.3669 1336.76,-92.3827 1329.15,-85.012 1326.21,-91.3669"/>
<text text-anchor="middle" x="1204" y="-72" font-family="Helvetica,sans-Serif" font-size="10.00"> transactionTableModel</text>
</g>
<!-- Node5 -->
<g id="node5" class="node"><title>Node5</title>
<g id="a_node5"><a xlink:href="class_transaction_table_priv.html" target="_top" xlink:title="TransactionTablePriv">
<polygon fill="white" stroke="black" points="1496,-126.5 1496,-145.5 1607,-145.5 1607,-126.5 1496,-126.5"/>
<text text-anchor="middle" x="1551.5" y="-133.5" font-family="Helvetica,sans-Serif" font-size="10.00">TransactionTablePriv</text>
</a>
</g>
</g>
<!-- Node3&#45;&gt;Node5 -->
<g id="edge5" class="edge"><title>Node3&#45;&gt;Node5</title>
<path fill="none" stroke="#9a32cd" stroke-dasharray="5,2" d="M1427.46,-97.6522C1444.17,-97.9649 1461.85,-99.4261 1478,-103 1498.66,-107.57 1520.52,-118.465 1534.77,-126.492"/>
<polygon fill="#9a32cd" stroke="#9a32cd" points="1427.22,-94.1509 1417.2,-97.5972 1427.18,-101.151 1427.22,-94.1509"/>
<text text-anchor="middle" x="1462" y="-106" font-family="Helvetica,sans-Serif" font-size="10.00"> parent</text>
</g>
<!-- Node4 -->
<g id="node4" class="node"><title>Node4</title>
<polygon fill="white" stroke="#bfbfbf" points="1010,-245.5 1010,-264.5 1123,-264.5 1123,-245.5 1010,-245.5"/>
<text text-anchor="middle" x="1066.5" y="-252.5" font-family="Helvetica,sans-Serif" font-size="10.00">QAbstractTableModel</text>
</g>
<!-- Node4&#45;&gt;Node3 -->
<g id="edge3" class="edge"><title>Node4&#45;&gt;Node3</title>
<path fill="none" stroke="midnightblue" d="M1088.87,-239.409C1103.05,-229.717 1122.39,-217.682 1141,-210 1194.21,-188.031 1220.3,-213.659 1267,-180 1279.31,-171.13 1274.56,-162.001 1285,-151 1300.6,-134.569 1322.53,-120.376 1337.77,-111.555"/>
<polygon fill="midnightblue" stroke="midnightblue" points="1086.55,-236.765 1080.37,-245.37 1090.57,-242.497 1086.55,-236.765"/>
</g>
<!-- Node4&#45;&gt;Node16 -->
<g id="edge20" class="edge"><title>Node4&#45;&gt;Node16</title>
<path fill="none" stroke="midnightblue" d="M1087.49,-270.843C1101.59,-281.074 1121.39,-293.627 1141,-300 1194.65,-317.435 1259.63,-320.217 1303.92,-319.566"/>
<polygon fill="midnightblue" stroke="midnightblue" points="1089.21,-267.752 1079.11,-264.542 1085,-273.348 1089.21,-267.752"/>
</g>
<!-- Node4&#45;&gt;Node18 -->
<g id="edge27" class="edge"><title>Node4&#45;&gt;Node18</title>
<path fill="none" stroke="midnightblue" d="M1133.37,-260.102C1173.33,-260.86 1224.62,-257.59 1267,-241 1301.48,-227.502 1333.05,-195.538 1347.38,-179.51"/>
<polygon fill="midnightblue" stroke="midnightblue" points="1133.3,-256.599 1123.2,-259.819 1133.1,-263.597 1133.3,-256.599"/>
</g>
<!-- Node5&#45;&gt;Node3 -->
<g id="edge4" class="edge"><title>Node5&#45;&gt;Node3</title>
<path fill="none" stroke="#9a32cd" stroke-dasharray="5,2" d="M1486.64,-124.75C1462.31,-120.464 1434.84,-115.626 1411.52,-111.516"/>
<polygon fill="#9a32cd" stroke="#9a32cd" points="1486.04,-128.198 1496.5,-126.486 1487.25,-121.304 1486.04,-128.198"/>
<text text-anchor="middle" x="1462" y="-127" font-family="Helvetica,sans-Serif" font-size="10.00"> priv</text>
</g>
<!-- Node6 -->
<g id="node6" class="node"><title>Node6</title>
<g id="a_node6"><a xlink:href="class_c_wallet.html" target="_top" xlink:title="A CWallet is an extension of a keystore, which also maintains a set of transactions and balances...">
<polygon fill="white" stroke="black" points="846,-323.5 846,-342.5 898,-342.5 898,-323.5 846,-323.5"/>
<text text-anchor="middle" x="872" y="-330.5" font-family="Helvetica,sans-Serif" font-size="10.00">CWallet</text>
</a>
</g>
</g>
<!-- Node6&#45;&gt;Node1 -->
<g id="edge31" class="edge"><title>Node6&#45;&gt;Node1</title>
<path fill="none" stroke="#9a32cd" stroke-dasharray="5,2" d="M890.911,-316.252C930.382,-279.344 1023.83,-191.967 1055.1,-162.725"/>
<polygon fill="#9a32cd" stroke="#9a32cd" points="888.263,-313.936 883.35,-323.322 893.044,-319.049 888.263,-313.936"/>
<text text-anchor="middle" x="960.5" y="-282" font-family="Helvetica,sans-Serif" font-size="10.00"> wallet</text>
</g>
<!-- Node6&#45;&gt;Node3 -->
<g id="edge18" class="edge"><title>Node6&#45;&gt;Node3</title>
<path fill="none" stroke="#9a32cd" stroke-dasharray="5,2" d="M873.829,-312.863C876.379,-275.966 886.762,-196.918 929,-149 1032.18,-31.9411 1115.75,-15.6235 1267,-54 1296.31,-61.4367 1326.42,-80.7429 1342.87,-92.48"/>
<polygon fill="#9a32cd" stroke="#9a32cd" points="870.311,-313.088 873.246,-323.268 877.3,-313.48 870.311,-313.088"/>
<text text-anchor="middle" x="1066.5" y="-77" font-family="Helvetica,sans-Serif" font-size="10.00"> wallet</text>
</g>
<!-- Node6&#45;&gt;Node5 -->
<g id="edge6" class="edge"><title>Node6&#45;&gt;Node5</title>
<path fill="none" stroke="#9a32cd" stroke-dasharray="5,2" d="M907.529,-345.919C1007.11,-380.764 1299.11,-465.679 1478,-337 1543.05,-290.21 1549.94,-179.283 1550.51,-145.761"/>
<polygon fill="#9a32cd" stroke="#9a32cd" points="908.557,-342.57 897.962,-342.517 906.212,-349.166 908.557,-342.57"/>
<text text-anchor="middle" x="1204" y="-408" font-family="Helvetica,sans-Serif" font-size="10.00"> wallet</text>
</g>
<!-- Node6&#45;&gt;Node16 -->
<g id="edge25" class="edge"><title>Node6&#45;&gt;Node16</title>
<path fill="none" stroke="#9a32cd" stroke-dasharray="5,2" d="M908.694,-332.6C977.863,-331.712 1134.97,-329.148 1267,-323 1278.85,-322.448 1291.57,-321.686 1303.58,-320.889"/>
<polygon fill="#9a32cd" stroke="#9a32cd" points="908.321,-329.104 898.365,-332.728 908.408,-336.103 908.321,-329.104"/>
<text text-anchor="middle" x="1066.5" y="-333" font-family="Helvetica,sans-Serif" font-size="10.00"> wallet</text>
</g>
<!-- Node17 -->
<g id="node17" class="node"><title>Node17</title>
<g id="a_node17"><a xlink:href="class_address_table_priv.html" target="_top" xlink:title="AddressTablePriv">
<polygon fill="white" stroke="black" points="1504,-374.5 1504,-393.5 1599,-393.5 1599,-374.5 1504,-374.5"/>
<text text-anchor="middle" x="1551.5" y="-381.5" font-family="Helvetica,sans-Serif" font-size="10.00">AddressTablePriv</text>
</a>
</g>
</g>
<!-- Node6&#45;&gt;Node17 -->
<g id="edge23" class="edge"><title>Node6&#45;&gt;Node17</title>
<path fill="none" stroke="#9a32cd" stroke-dasharray="5,2" d="M885.715,-350.699C895.841,-363.174 911.233,-378.877 929,-386 1135.56,-468.814 1412.7,-416.889 1512.61,-393.58"/>
<polygon fill="#9a32cd" stroke="#9a32cd" points="888.452,-348.517 879.582,-342.724 882.904,-352.785 888.452,-348.517"/>
<text text-anchor="middle" x="1204" y="-434" font-family="Helvetica,sans-Serif" font-size="10.00"> wallet</text>
</g>
<!-- Node7 -->
<g id="node7" class="node"><title>Node7</title>
<g id="a_node7"><a xlink:href="class_c_crypto_key_store.html" target="_top" xlink:title="Keystore which keeps the private keys encrypted. ">
<polygon fill="white" stroke="black" points="605,-362.5 605,-381.5 699,-381.5 699,-362.5 605,-362.5"/>
<text text-anchor="middle" x="652" y="-369.5" font-family="Helvetica,sans-Serif" font-size="10.00">CCryptoKeyStore</text>
</a>
</g>
</g>
<!-- Node7&#45;&gt;Node6 -->
<g id="edge7" class="edge"><title>Node7&#45;&gt;Node6</title>
<path fill="none" stroke="midnightblue" d="M709.542,-364.574C740.763,-360.148 780.163,-354.027 815,-347 825.118,-344.959 836.16,-342.294 845.744,-339.838"/>
<polygon fill="midnightblue" stroke="midnightblue" points="708.705,-361.157 699.286,-366.009 709.675,-368.089 708.705,-361.157"/>
</g>
<!-- Node8 -->
<g id="node8" class="node"><title>Node8</title>
<g id="a_node8"><a xlink:href="class_c_basic_key_store.html" target="_top" xlink:title="Basic key store, that keeps keys in an address&#45;&gt;secret map. ">
<polygon fill="white" stroke="black" points="474,-362.5 474,-381.5 563,-381.5 563,-362.5 474,-362.5"/>
<text text-anchor="middle" x="518.5" y="-369.5" font-family="Helvetica,sans-Serif" font-size="10.00">CBasicKeyStore</text>
</a>
</g>
</g>
<!-- Node8&#45;&gt;Node7 -->
<g id="edge8" class="edge"><title>Node8&#45;&gt;Node7</title>
<path fill="none" stroke="midnightblue" d="M573.476,-372C583.839,-372 594.605,-372 604.699,-372"/>
<polygon fill="midnightblue" stroke="midnightblue" points="573.288,-368.5 563.288,-372 573.288,-375.5 573.288,-368.5"/>
</g>
<!-- Node9 -->
<g id="node9" class="node"><title>Node9</title>
<g id="a_node9"><a xlink:href="class_c_key_store.html" target="_top" xlink:title="A virtual base class for key stores. ">
<polygon fill="white" stroke="black" points="372,-361.5 372,-380.5 437,-380.5 437,-361.5 372,-361.5"/>
<text text-anchor="middle" x="404.5" y="-368.5" font-family="Helvetica,sans-Serif" font-size="10.00">CKeyStore</text>
</a>
</g>
</g>
<!-- Node9&#45;&gt;Node8 -->
<g id="edge9" class="edge"><title>Node9&#45;&gt;Node8</title>
<path fill="none" stroke="midnightblue" d="M447.52,-371.375C456.144,-371.452 465.24,-371.533 473.917,-371.611"/>
<polygon fill="midnightblue" stroke="midnightblue" points="447.326,-367.873 437.295,-371.284 447.263,-374.873 447.326,-367.873"/>
</g>
<!-- Node10 -->
<g id="node10" class="node"><title>Node10</title>
<polygon fill="white" stroke="#bfbfbf" points="157,-335 157,-365 276,-365 276,-335 157,-335"/>
<text text-anchor="start" x="165" y="-353" font-family="Helvetica,sans-Serif" font-size="10.00">AnnotatedMixin&lt; boost</text>
<text text-anchor="middle" x="216.5" y="-342" font-family="Helvetica,sans-Serif" font-size="10.00">::recursive_mutex &gt;</text>
</g>
<!-- Node10&#45;&gt;Node6 -->
<g id="edge14" class="edge"><title>Node10&#45;&gt;Node6</title>
<path fill="none" stroke="#9a32cd" stroke-dasharray="5,2" d="M286.139,-340.718C321.186,-336.744 364.543,-333 403.5,-333 403.5,-333 403.5,-333 653,-333 722.828,-333 805.238,-333 845.824,-333"/>
<polygon fill="#9a32cd" stroke="#9a32cd" points="285.542,-337.264 276.015,-341.898 286.353,-344.217 285.542,-337.264"/>
<text text-anchor="middle" x="518.5" y="-336" font-family="Helvetica,sans-Serif" font-size="10.00"> cs_wallet</text>
</g>
<!-- Node10&#45;&gt;Node9 -->
<g id="edge10" class="edge"><title>Node10&#45;&gt;Node9</title>
<path fill="none" stroke="#9a32cd" stroke-dasharray="5,2" d="M286.323,-357.77C315.704,-361.088 348.543,-364.795 371.965,-367.44"/>
<polygon fill="#9a32cd" stroke="#9a32cd" points="286.426,-354.26 276.096,-356.616 285.64,-361.216 286.426,-354.26"/>
<text text-anchor="middle" x="324" y="-368" font-family="Helvetica,sans-Serif" font-size="10.00"> cs_KeyStore</text>
</g>
<!-- Node11 -->
<g id="node11" class="node"><title>Node11</title>
<polygon fill="white" stroke="#bfbfbf" points="0,-340.5 0,-359.5 120,-359.5 120,-340.5 0,-340.5"/>
<text text-anchor="middle" x="60" y="-347.5" font-family="Helvetica,sans-Serif" font-size="10.00">boost::recursive_mutex</text>
</g>
<!-- Node11&#45;&gt;Node10 -->
<g id="edge11" class="edge"><title>Node11&#45;&gt;Node10</title>
<path fill="none" stroke="midnightblue" d="M130.533,-350C139.334,-350 148.269,-350 156.877,-350"/>
<polygon fill="midnightblue" stroke="midnightblue" points="130.292,-346.5 120.292,-350 130.292,-353.5 130.292,-346.5"/>
</g>
<!-- Node12 -->
<g id="node12" class="node"><title>Node12</title>
<g id="a_node12"><a xlink:href="class_c_wallet_interface.html" target="_top" xlink:title="CWalletInterface">
<polygon fill="white" stroke="black" points="607,-285.5 607,-304.5 697,-304.5 697,-285.5 607,-285.5"/>
<text text-anchor="middle" x="652" y="-292.5" font-family="Helvetica,sans-Serif" font-size="10.00">CWalletInterface</text>
</a>
</g>
</g>
<!-- Node12&#45;&gt;Node6 -->
<g id="edge12" class="edge"><title>Node12&#45;&gt;Node6</title>
<path fill="none" stroke="midnightblue" d="M707.13,-301.671C738.72,-305.899 779.267,-311.904 815,-319 825.124,-321.01 836.167,-323.669 845.75,-326.13"/>
<polygon fill="midnightblue" stroke="midnightblue" points="707.577,-298.199 697.205,-300.361 706.662,-305.139 707.577,-298.199"/>
</g>
<!-- Node13 -->
<g id="node13" class="node"><title>Node13</title>
<g id="a_node13"><a xlink:href="class_c_pub_key.html" target="_top" xlink:title="An encapsulated public key. ">
<polygon fill="white" stroke="black" points="622.5,-247.5 622.5,-266.5 681.5,-266.5 681.5,-247.5 622.5,-247.5"/>
<text text-anchor="middle" x="652" y="-254.5" font-family="Helvetica,sans-Serif" font-size="10.00">CPubKey</text>
</a>
</g>
</g>
<!-- Node13&#45;&gt;Node6 -->
<g id="edge13" class="edge"><title>Node13&#45;&gt;Node6</title>
<path fill="none" stroke="#9a32cd" stroke-dasharray="5,2" d="M691.757,-259.134C725.624,-262.208 775.426,-269.707 815,-288 833.793,-296.687 851.76,-313.029 862.071,-323.446"/>
<polygon fill="#9a32cd" stroke="#9a32cd" points="692.04,-255.646 681.787,-258.315 691.467,-262.622 692.04,-255.646"/>
<text text-anchor="middle" x="768.5" y="-291" font-family="Helvetica,sans-Serif" font-size="10.00"> vchDefaultKey</text>
</g>
<!-- Node14 -->
<g id="node14" class="node"><title>Node14</title>
<g id="a_node14"><a xlink:href="class_c_wallet_d_b.html" target="_top" xlink:title="Access to the wallet database (wallet.dat) ">
<polygon fill="white" stroke="black" points="619.5,-400.5 619.5,-419.5 684.5,-419.5 684.5,-400.5 619.5,-400.5"/>
<text text-anchor="middle" x="652" y="-407.5" font-family="Helvetica,sans-Serif" font-size="10.00">CWalletDB</text>
</a>
</g>
</g>
<!-- Node14&#45;&gt;Node6 -->
<g id="edge15" class="edge"><title>Node14&#45;&gt;Node6</title>
<path fill="none" stroke="#9a32cd" stroke-dasharray="5,2" d="M694.577,-402.854C728,-396.258 775.693,-384.904 815,-368 830.798,-361.206 847.309,-350.357 858.273,-342.538"/>
<polygon fill="#9a32cd" stroke="#9a32cd" points="693.85,-399.43 684.687,-404.749 695.167,-406.305 693.85,-399.43"/>
<text text-anchor="middle" x="768.5" y="-399" font-family="Helvetica,sans-Serif" font-size="10.00"> pwalletdbEncryption</text>
</g>
<!-- Node15 -->
<g id="node15" class="node"><title>Node15</title>
<g id="a_node15"><a xlink:href="class_c_d_b.html" target="_top" xlink:title="RAII class that provides access to a Berkeley database. ">
<polygon fill="white" stroke="black" points="499.5,-400.5 499.5,-419.5 537.5,-419.5 537.5,-400.5 499.5,-400.5"/>
<text text-anchor="middle" x="518.5" y="-407.5" font-family="Helvetica,sans-Serif" font-size="10.00">CDB</text>
</a>
</g>
</g>
<!-- Node15&#45;&gt;Node14 -->
<g id="edge16" class="edge"><title>Node15&#45;&gt;Node14</title>
<path fill="none" stroke="midnightblue" d="M547.732,-410C568.772,-410 597.516,-410 619.337,-410"/>
<polygon fill="midnightblue" stroke="midnightblue" points="547.509,-406.5 537.509,-410 547.509,-413.5 547.509,-406.5"/>
</g>
<!-- Node16&#45;&gt;Node1 -->
<g id="edge19" class="edge"><title>Node16&#45;&gt;Node1</title>
<path fill="none" stroke="#9a32cd" stroke-dasharray="5,2" d="M1334.6,-301.122C1317.01,-288.06 1290.95,-269.418 1267,-255 1204.01,-217.083 1125.29,-179.557 1088.4,-162.511"/>
<polygon fill="#9a32cd" stroke="#9a32cd" points="1332.87,-304.2 1342.97,-307.392 1337.07,-298.596 1332.87,-304.2"/>
<text text-anchor="middle" x="1204" y="-258" font-family="Helvetica,sans-Serif" font-size="10.00"> addressTableModel</text>
</g>
<!-- Node16&#45;&gt;Node17 -->
<g id="edge22" class="edge"><title>Node16&#45;&gt;Node17</title>
<path fill="none" stroke="#9a32cd" stroke-dasharray="5,2" d="M1382.14,-331.748C1399.47,-341.565 1423.51,-354.069 1446,-362 1464.45,-368.504 1485.44,-373.383 1503.74,-376.873"/>
<polygon fill="#9a32cd" stroke="#9a32cd" points="1383.66,-328.584 1373.24,-326.616 1380.16,-334.647 1383.66,-328.584"/>
<text text-anchor="middle" x="1462" y="-374" font-family="Helvetica,sans-Serif" font-size="10.00"> parent</text>
</g>
<!-- Node17&#45;&gt;Node16 -->
<g id="edge21" class="edge"><title>Node17&#45;&gt;Node16</title>
<path fill="none" stroke="#9a32cd" stroke-dasharray="5,2" d="M1522.36,-369.984C1509.1,-363.693 1492.94,-356.473 1478,-351 1451.47,-341.282 1420.81,-332.666 1397.05,-326.539"/>
<polygon fill="#9a32cd" stroke="#9a32cd" points="1520.92,-373.174 1531.45,-374.363 1523.96,-366.868 1520.92,-373.174"/>
<text text-anchor="middle" x="1462" y="-354" font-family="Helvetica,sans-Serif" font-size="10.00"> priv</text>
</g>
<!-- Node18&#45;&gt;Node1 -->
<g id="edge26" class="edge"><title>Node18&#45;&gt;Node1</title>
<path fill="none" stroke="#9a32cd" stroke-dasharray="5,2" d="M1326.7,-156.277C1309.75,-148.963 1287.64,-140.723 1267,-137 1211.89,-127.059 1196.68,-131.01 1141,-137 1128.41,-138.355 1114.8,-140.98 1102.76,-143.719"/>
<polygon fill="#9a32cd" stroke="#9a32cd" points="1325.48,-159.565 1336.04,-160.435 1328.33,-153.17 1325.48,-159.565"/>
<text text-anchor="middle" x="1204" y="-140" font-family="Helvetica,sans-Serif" font-size="10.00"> recentRequestsTableModel</text>
</g>
<!-- Node19 -->
<g id="node19" class="node"><title>Node19</title>
<g id="a_node19"><a xlink:href="class_options_model.html" target="_top" xlink:title="Interface from Qt to configuration data structure for Anoncoin client. ">
<polygon fill="white" stroke="black" points="833,-143.5 833,-162.5 911,-162.5 911,-143.5 833,-143.5"/>
<text text-anchor="middle" x="872" y="-150.5" font-family="Helvetica,sans-Serif" font-size="10.00">OptionsModel</text>
</a>
</g>
</g>
<!-- Node19&#45;&gt;Node1 -->
<g id="edge29" class="edge"><title>Node19&#45;&gt;Node1</title>
<path fill="none" stroke="#9a32cd" stroke-dasharray="5,2" d="M921.2,-153C955.165,-153 999.868,-153 1030.46,-153"/>
<polygon fill="#9a32cd" stroke="#9a32cd" points="921.032,-149.5 911.032,-153 921.032,-156.5 921.032,-149.5"/>
<text text-anchor="middle" x="960.5" y="-156" font-family="Helvetica,sans-Serif" font-size="10.00"> optionsModel</text>
</g>
<!-- Node20 -->
<g id="node20" class="node"><title>Node20</title>
<polygon fill="white" stroke="#bfbfbf" points="600,-143.5 600,-162.5 704,-162.5 704,-143.5 600,-143.5"/>
<text text-anchor="middle" x="652" y="-150.5" font-family="Helvetica,sans-Serif" font-size="10.00">QAbstractListModel</text>
</g>
<!-- Node20&#45;&gt;Node19 -->
<g id="edge30" class="edge"><title>Node20&#45;&gt;Node19</title>
<path fill="none" stroke="midnightblue" d="M714.561,-153C752.582,-153 800.17,-153 832.816,-153"/>
<polygon fill="midnightblue" stroke="midnightblue" points="714.111,-149.5 704.111,-153 714.111,-156.5 714.111,-149.5"/>
</g>
</g>
</svg>
