<?xml version="1.0" encoding="UTF-8" standalone="no"?>
<!DOCTYPE svg PUBLIC "-//W3C//DTD SVG 1.1//EN"
 "http://www.w3.org/Graphics/SVG/1.1/DTD/svg11.dtd">
<!-- Generated by graphviz version 2.38.0 (20140413.2041)
 -->
<!-- Title: AddressBookPage::on_copyAddress_clicked Pages: 1 -->
<svg width="426pt" height="39pt"
 viewBox="0.00 0.00 426.00 39.00" xmlns="http://www.w3.org/2000/svg" xmlns:xlink="http://www.w3.org/1999/xlink">
<g id="graph0" class="graph" transform="scale(1 1) rotate(0) translate(4 35)">
<title>AddressBookPage::on_copyAddress_clicked</title>
<polygon fill="white" stroke="none" points="-4,4 -4,-35 422,-35 422,4 -4,4"/>
<!-- Node1 -->
<g id="node1" class="node"><title>Node1</title>
<polygon fill="#bfbfbf" stroke="black" points="0,-0.5 0,-30.5 116,-30.5 116,-0.5 0,-0.5"/>
<text text-anchor="start" x="8" y="-18.5" font-family="Helvetica,sans-Serif" font-size="10.00">AddressBookPage::on</text>
<text text-anchor="middle" x="58" y="-7.5" font-family="Helvetica,sans-Serif" font-size="10.00">_copyAddress_clicked</text>
</g>
<!-- Node2 -->
<g id="node2" class="node"><title>Node2</title>
<g id="a_node2"><a xlink:href="namespace_g_u_i_util.html#ae231227ad96528c828e1c846f253f642" target="_top" xlink:title="Copy a field of the currently selected entry of a view to the clipboard. ">
<polygon fill="white" stroke="black" points="152,-6 152,-25 272,-25 272,-6 152,-6"/>
<text text-anchor="middle" x="212" y="-13" font-family="Helvetica,sans-Serif" font-size="10.00">GUIUtil::copyEntryData</text>
</a>
</g>
</g>
<!-- Node1&#45;&gt;Node2 -->
<g id="edge1" class="edge"><title>Node1&#45;&gt;Node2</title>
<path fill="none" stroke="midnightblue" d="M116.032,-15.5C124.448,-15.5 133.195,-15.5 141.825,-15.5"/>
<polygon fill="midnightblue" stroke="midnightblue" points="141.873,-19.0001 151.873,-15.5 141.873,-12.0001 141.873,-19.0001"/>
</g>
<!-- Node3 -->
<g id="node3" class="node"><title>Node3</title>
<g id="a_node3"><a xlink:href="namespace_g_u_i_util.html#aef655b19f129179ca32f11a4d0da1a07" target="_top" xlink:title="GUIUtil::setClipboard">
<polygon fill="white" stroke="black" points="308,-6 308,-25 418,-25 418,-6 308,-6"/>
<text text-anchor="middle" x="363" y="-13" font-family="Helvetica,sans-Serif" font-size="10.00">GUIUtil::setClipboard</text>
</a>
</g>
</g>
<!-- Node2&#45;&gt;Node3 -->
<g id="edge2" class="edge"><title>Node2&#45;&gt;Node3</title>
<path fill="none" stroke="midnightblue" d="M272.317,-15.5C280.625,-15.5 289.196,-15.5 297.593,-15.5"/>
<polygon fill="midnightblue" stroke="midnightblue" points="297.72,-19.0001 307.72,-15.5 297.72,-12.0001 297.72,-19.0001"/>
</g>
</g>
</svg>
