<?xml version="1.0" encoding="UTF-8" standalone="no"?>
<!DOCTYPE svg PUBLIC "-//W3C//DTD SVG 1.1//EN"
 "http://www.w3.org/Graphics/SVG/1.1/DTD/svg11.dtd">
<!-- Generated by graphviz version 2.38.0 (20140413.2041)
 -->
<!-- Title: SAM::Socket::bootstrapI2P Pages: 1 -->
<svg width="708pt" height="220pt"
 viewBox="0.00 0.00 708.00 220.23" xmlns="http://www.w3.org/2000/svg" xmlns:xlink="http://www.w3.org/1999/xlink">
<g id="graph0" class="graph" transform="scale(1 1) rotate(0) translate(4 216.228)">
<title>SAM::Socket::bootstrapI2P</title>
<polygon fill="white" stroke="none" points="-4,4 -4,-216.228 704,-216.228 704,4 -4,4"/>
<!-- Node1 -->
<g id="node1" class="node"><title>Node1</title>
<polygon fill="#bfbfbf" stroke="black" points="0,-52.2192 0,-71.2192 137,-71.2192 137,-52.2192 0,-52.2192"/>
<text text-anchor="middle" x="68.5" y="-59.2192" font-family="Helvetica,sans-Serif" font-size="10.00">SAM::Socket::bootstrapI2P</text>
</g>
<!-- Node2 -->
<g id="node2" class="node"><title>Node2</title>
<g id="a_node2"><a xlink:href="class_s_a_m_1_1_socket.html#a453868a384aa8e90282dbc6c602293e1" target="_top" xlink:title="SAM::Socket::init">
<polygon fill="white" stroke="black" points="191,-52.2192 191,-71.2192 284,-71.2192 284,-52.2192 191,-52.2192"/>
<text text-anchor="middle" x="237.5" y="-59.2192" font-family="Helvetica,sans-Serif" font-size="10.00">SAM::Socket::init</text>
</a>
</g>
</g>
<!-- Node1&#45;&gt;Node2 -->
<g id="edge1" class="edge"><title>Node1&#45;&gt;Node2</title>
<path fill="none" stroke="midnightblue" d="M137.425,-61.7192C151.673,-61.7192 166.549,-61.7192 180.311,-61.7192"/>
<polygon fill="midnightblue" stroke="midnightblue" points="180.59,-65.2193 190.59,-61.7192 180.59,-58.2193 180.59,-65.2193"/>
</g>
<!-- Node4 -->
<g id="node4" class="node"><title>Node4</title>
<g id="a_node4"><a xlink:href="class_s_a_m_1_1_socket.html#a1455a6eec384bbdeda6382f33b49843b" target="_top" xlink:title="SAM::Socket::isOk">
<polygon fill="white" stroke="black" points="561.5,-14.2192 561.5,-33.2192 661.5,-33.2192 661.5,-14.2192 561.5,-14.2192"/>
<text text-anchor="middle" x="611.5" y="-21.2192" font-family="Helvetica,sans-Serif" font-size="10.00">SAM::Socket::isOk</text>
</a>
</g>
</g>
<!-- Node1&#45;&gt;Node4 -->
<g id="edge3" class="edge"><title>Node1&#45;&gt;Node4</title>
<path fill="none" stroke="midnightblue" d="M103.465,-52.1134C154.061,-38.3528 252.456,-13.6993 338,-4.71923 403.86,2.19449 420.971,0.33025 487,-4.71923 508.094,-6.33239 531.04,-9.47383 551.364,-12.745"/>
<polygon fill="midnightblue" stroke="midnightblue" points="550.983,-16.2294 561.42,-14.4074 552.125,-9.32315 550.983,-16.2294"/>
</g>
<!-- Node5 -->
<g id="node5" class="node"><title>Node5</title>
<g id="a_node5"><a xlink:href="class_s_a_m_1_1_socket.html#acca2e69487ef3f865275d2d5fd1fbca1" target="_top" xlink:title="SAM::Socket::handshake">
<polygon fill="white" stroke="black" points="173,-109.219 173,-128.219 302,-128.219 302,-109.219 173,-109.219"/>
<text text-anchor="middle" x="237.5" y="-116.219" font-family="Helvetica,sans-Serif" font-size="10.00">SAM::Socket::handshake</text>
</a>
</g>
</g>
<!-- Node1&#45;&gt;Node5 -->
<g id="edge4" class="edge"><title>Node1&#45;&gt;Node5</title>
<path fill="none" stroke="midnightblue" d="M97.452,-71.2598C125.269,-80.7541 168.138,-95.386 198.921,-105.893"/>
<polygon fill="midnightblue" stroke="midnightblue" points="197.862,-109.23 208.457,-109.148 200.123,-102.605 197.862,-109.23"/>
</g>
<!-- Node3 -->
<g id="node3" class="node"><title>Node3</title>
<g id="a_node3"><a xlink:href="class_s_a_m_1_1_socket.html#a4255f1f63449dfc32d012089ea73f5e7" target="_top" xlink:title="SAM::Socket::close">
<polygon fill="white" stroke="black" points="560,-52.2192 560,-71.2192 663,-71.2192 663,-52.2192 560,-52.2192"/>
<text text-anchor="middle" x="611.5" y="-59.2192" font-family="Helvetica,sans-Serif" font-size="10.00">SAM::Socket::close</text>
</a>
</g>
</g>
<!-- Node2&#45;&gt;Node3 -->
<g id="edge2" class="edge"><title>Node2&#45;&gt;Node3</title>
<path fill="none" stroke="midnightblue" d="M284.115,-61.7192C350.822,-61.7192 475.124,-61.7192 549.585,-61.7192"/>
<polygon fill="midnightblue" stroke="midnightblue" points="549.749,-65.2193 559.749,-61.7192 549.749,-58.2193 549.749,-65.2193"/>
</g>
<!-- Node6 -->
<g id="node6" class="node"><title>Node6</title>
<g id="a_node6"><a xlink:href="class_s_a_m_1_1_socket.html#ae19e83b3127dc1560f164a05b1acd763" target="_top" xlink:title="SAM::Socket::write">
<polygon fill="white" stroke="black" points="362,-14.2192 362,-33.2192 463,-33.2192 463,-14.2192 362,-14.2192"/>
<text text-anchor="middle" x="412.5" y="-21.2192" font-family="Helvetica,sans-Serif" font-size="10.00">SAM::Socket::write</text>
</a>
</g>
</g>
<!-- Node5&#45;&gt;Node6 -->
<g id="edge5" class="edge"><title>Node5&#45;&gt;Node6</title>
<path fill="none" stroke="midnightblue" d="M256.04,-109.087C286.557,-92.3295 349.569,-57.7275 385.291,-38.1117"/>
<polygon fill="midnightblue" stroke="midnightblue" points="387.09,-41.1167 394.171,-33.2354 383.721,-34.9809 387.09,-41.1167"/>
</g>
<!-- Node7 -->
<g id="node7" class="node"><title>Node7</title>
<g id="a_node7"><a xlink:href="class_s_a_m_1_1_message.html#a586e92a2047246d9bc1d54b2fe184531" target="_top" xlink:title="SAM::Message::hello">
<polygon fill="white" stroke="black" points="357,-128.219 357,-147.219 468,-147.219 468,-128.219 357,-128.219"/>
<text text-anchor="middle" x="412.5" y="-135.219" font-family="Helvetica,sans-Serif" font-size="10.00">SAM::Message::hello</text>
</a>
</g>
</g>
<!-- Node5&#45;&gt;Node7 -->
<g id="edge8" class="edge"><title>Node5&#45;&gt;Node7</title>
<path fill="none" stroke="midnightblue" d="M302.427,-125.74C316.834,-127.322 332.138,-129.003 346.584,-130.59"/>
<polygon fill="midnightblue" stroke="midnightblue" points="346.604,-134.113 356.927,-131.726 347.369,-127.155 346.604,-134.113"/>
</g>
<!-- Node9 -->
<g id="node9" class="node"><title>Node9</title>
<g id="a_node9"><a xlink:href="class_s_a_m_1_1_socket.html#a3455043c16c8ca5c64855e6ea3ff15e1" target="_top" xlink:title="SAM::Socket::read">
<polygon fill="white" stroke="black" points="362.5,-90.2192 362.5,-109.219 462.5,-109.219 462.5,-90.2192 362.5,-90.2192"/>
<text text-anchor="middle" x="412.5" y="-97.2192" font-family="Helvetica,sans-Serif" font-size="10.00">SAM::Socket::read</text>
</a>
</g>
</g>
<!-- Node5&#45;&gt;Node9 -->
<g id="edge10" class="edge"><title>Node5&#45;&gt;Node9</title>
<path fill="none" stroke="midnightblue" d="M302.427,-111.698C318.692,-109.912 336.103,-108 352.13,-106.24"/>
<polygon fill="midnightblue" stroke="midnightblue" points="352.879,-109.679 362.437,-105.108 352.114,-102.72 352.879,-109.679"/>
</g>
<!-- Node10 -->
<g id="node10" class="node"><title>Node10</title>
<g id="a_node10"><a xlink:href="class_s_a_m_1_1_message.html#a1d976198d4f36ab56f838f560d536d37" target="_top" xlink:title="SAM::Message::checkAnswer">
<polygon fill="white" stroke="black" points="338,-166.219 338,-185.219 487,-185.219 487,-166.219 338,-166.219"/>
<text text-anchor="middle" x="412.5" y="-173.219" font-family="Helvetica,sans-Serif" font-size="10.00">SAM::Message::checkAnswer</text>
</a>
</g>
</g>
<!-- Node5&#45;&gt;Node10 -->
<g id="edge13" class="edge"><title>Node5&#45;&gt;Node10</title>
<path fill="none" stroke="midnightblue" d="M261.56,-128.369C281.562,-136.535 311.4,-148.231 338,-156.719 345.504,-159.114 353.511,-161.426 361.376,-163.564"/>
<polygon fill="midnightblue" stroke="midnightblue" points="360.651,-166.992 371.214,-166.171 362.444,-160.226 360.651,-166.992"/>
</g>
<!-- Node11 -->
<g id="node11" class="node"><title>Node11</title>
<g id="a_node11"><a xlink:href="class_s_a_m_1_1_message.html#a134481a97dd531c7e5e11aeff965ea6c" target="_top" xlink:title="SAM::Message::getValue">
<polygon fill="white" stroke="black" points="547,-185.219 547,-204.219 676,-204.219 676,-185.219 547,-185.219"/>
<text text-anchor="middle" x="611.5" y="-192.219" font-family="Helvetica,sans-Serif" font-size="10.00">SAM::Message::getValue</text>
</a>
</g>
</g>
<!-- Node5&#45;&gt;Node11 -->
<g id="edge15" class="edge"><title>Node5&#45;&gt;Node11</title>
<path fill="none" stroke="midnightblue" d="M246.88,-128.357C262.641,-145.659 298.671,-181.417 338,-194.719 407.507,-218.228 492.814,-213.251 549.264,-205.676"/>
<polygon fill="midnightblue" stroke="midnightblue" points="550.045,-209.1 559.458,-204.238 549.067,-202.169 550.045,-209.1"/>
</g>
<!-- Node6&#45;&gt;Node3 -->
<g id="edge7" class="edge"><title>Node6&#45;&gt;Node3</title>
<path fill="none" stroke="midnightblue" d="M462.957,-33.2592C489.654,-38.4088 522.804,-44.8032 550.915,-50.2257"/>
<polygon fill="midnightblue" stroke="midnightblue" points="550.541,-53.7179 561.023,-52.1754 551.866,-46.8446 550.541,-53.7179"/>
</g>
<!-- Node6&#45;&gt;Node4 -->
<g id="edge6" class="edge"><title>Node6&#45;&gt;Node4</title>
<path fill="none" stroke="midnightblue" d="M463.211,-23.7192C490.012,-23.7192 523.259,-23.7192 551.38,-23.7192"/>
<polygon fill="midnightblue" stroke="midnightblue" points="551.487,-27.2193 561.487,-23.7192 551.487,-20.2193 551.487,-27.2193"/>
</g>
<!-- Node8 -->
<g id="node8" class="node"><title>Node8</title>
<g id="a_node8"><a xlink:href="class_s_a_m_1_1_message.html#a2e50d96be91972360cdeed02071ec8b3" target="_top" xlink:title="SAM::Message::createSAMRequest">
<polygon fill="white" stroke="black" points="523,-128.219 523,-147.219 700,-147.219 700,-128.219 523,-128.219"/>
<text text-anchor="middle" x="611.5" y="-135.219" font-family="Helvetica,sans-Serif" font-size="10.00">SAM::Message::createSAMRequest</text>
</a>
</g>
</g>
<!-- Node7&#45;&gt;Node8 -->
<g id="edge9" class="edge"><title>Node7&#45;&gt;Node8</title>
<path fill="none" stroke="midnightblue" d="M468.114,-137.719C482.032,-137.719 497.419,-137.719 512.781,-137.719"/>
<polygon fill="midnightblue" stroke="midnightblue" points="512.857,-141.219 522.857,-137.719 512.857,-134.219 512.857,-141.219"/>
</g>
<!-- Node9&#45;&gt;Node3 -->
<g id="edge12" class="edge"><title>Node9&#45;&gt;Node3</title>
<path fill="none" stroke="midnightblue" d="M462.703,-90.2283C489.499,-85.0595 522.853,-78.6257 551.091,-73.1788"/>
<polygon fill="midnightblue" stroke="midnightblue" points="552.085,-76.5517 561.241,-71.2209 550.759,-69.6784 552.085,-76.5517"/>
</g>
<!-- Node9&#45;&gt;Node4 -->
<g id="edge11" class="edge"><title>Node9&#45;&gt;Node4</title>
<path fill="none" stroke="midnightblue" d="M428.857,-90.0406C449.51,-77.4243 487.728,-55.4701 523,-42.7192 532.006,-39.4637 541.744,-36.6747 551.34,-34.3164"/>
<polygon fill="midnightblue" stroke="midnightblue" points="552.305,-37.6856 561.253,-32.013 550.72,-30.8672 552.305,-37.6856"/>
</g>
<!-- Node10&#45;&gt;Node11 -->
<g id="edge14" class="edge"><title>Node10&#45;&gt;Node11</title>
<path fill="none" stroke="midnightblue" d="M487.136,-182.821C503.426,-184.392 520.688,-186.057 536.974,-187.628"/>
<polygon fill="midnightblue" stroke="midnightblue" points="536.681,-191.116 546.971,-188.592 537.353,-184.148 536.681,-191.116"/>
</g>
</g>
</svg>
