<?xml version="1.0" encoding="UTF-8" standalone="no"?>
<!DOCTYPE svg PUBLIC "-//W3C//DTD SVG 1.1//EN"
 "http://www.w3.org/Graphics/SVG/1.1/DTD/svg11.dtd">
<!-- Generated by graphviz version 2.38.0 (20140413.2041)
 -->
<!-- Title: FormatFullVersion Pages: 1 -->
<svg width="1165pt" height="315pt"
 viewBox="0.00 0.00 1165.00 314.72" xmlns="http://www.w3.org/2000/svg" xmlns:xlink="http://www.w3.org/1999/xlink">
<g id="graph0" class="graph" transform="scale(1 1) rotate(0) translate(4 310.724)">
<title>FormatFullVersion</title>
<polygon fill="white" stroke="none" points="-4,4 -4,-310.724 1161,-310.724 1161,4 -4,4"/>
<!-- Node1 -->
<g id="node1" class="node"><title>Node1</title>
<polygon fill="#bfbfbf" stroke="black" points="0,-144.5 0,-163.5 98,-163.5 98,-144.5 0,-144.5"/>
<text text-anchor="middle" x="49" y="-151.5" font-family="Helvetica,sans-Serif" font-size="10.00">FormatFullVersion</text>
</g>
<!-- Node2 -->
<g id="node2" class="node"><title>Node2</title>
<g id="a_node2"><a xlink:href="anoncoind_8cpp.html#ac59316b767e6984e1285f0531275286b" target="_top" xlink:title="AppInit">
<polygon fill="white" stroke="black" points="736,-251.5 736,-270.5 784,-270.5 784,-251.5 736,-251.5"/>
<text text-anchor="middle" x="760" y="-258.5" font-family="Helvetica,sans-Serif" font-size="10.00">AppInit</text>
</a>
</g>
</g>
<!-- Node1&#45;&gt;Node2 -->
<g id="edge1" class="edge"><title>Node1&#45;&gt;Node2</title>
<path fill="none" stroke="midnightblue" d="M60.1081,-172.478C73.617,-195.089 99.8689,-232.409 134,-249 346.782,-352.431 650.394,-288.408 735.84,-267.122"/>
<polygon fill="midnightblue" stroke="midnightblue" points="63.132,-170.715 55.113,-163.791 57.0637,-174.204 63.132,-170.715"/>
</g>
<!-- Node4 -->
<g id="node4" class="node"><title>Node4</title>
<g id="a_node4"><a xlink:href="init_8h.html#a1a4c1bfbf6ba1db77e988b89b9cadfd3" target="_top" xlink:title="Initialize anoncoin. ">
<polygon fill="white" stroke="black" points="184,-220.5 184,-239.5 237,-239.5 237,-220.5 184,-220.5"/>
<text text-anchor="middle" x="210.5" y="-227.5" font-family="Helvetica,sans-Serif" font-size="10.00">AppInit2</text>
</a>
</g>
</g>
<!-- Node1&#45;&gt;Node4 -->
<g id="edge3" class="edge"><title>Node1&#45;&gt;Node4</title>
<path fill="none" stroke="midnightblue" d="M69.3626,-170.049C85.6774,-182.83 110.118,-200.296 134,-211 149.911,-218.132 168.958,-222.9 183.94,-225.877"/>
<polygon fill="midnightblue" stroke="midnightblue" points="71.1831,-167.023 61.19,-163.503 66.8071,-172.487 71.1831,-167.023"/>
</g>
<!-- Node6 -->
<g id="node6" class="node"><title>Node6</title>
<g id="a_node6"><a xlink:href="class_client_model.html#a1c93d11fd03ef9aabf9b694e73698710" target="_top" xlink:title="ClientModel::formatFullVersion">
<polygon fill="white" stroke="black" points="134,-56.5 134,-75.5 287,-75.5 287,-56.5 134,-56.5"/>
<text text-anchor="middle" x="210.5" y="-63.5" font-family="Helvetica,sans-Serif" font-size="10.00">ClientModel::formatFullVersion</text>
</a>
</g>
</g>
<!-- Node1&#45;&gt;Node6 -->
<g id="edge6" class="edge"><title>Node1&#45;&gt;Node6</title>
<path fill="none" stroke="midnightblue" d="M66.196,-136.916C82.0464,-121.18 107.597,-98.3159 134,-85 141.603,-81.1655 150.036,-78.0677 158.431,-75.5761"/>
<polygon fill="midnightblue" stroke="midnightblue" points="63.3488,-134.82 58.8383,-144.407 68.3427,-139.725 63.3488,-134.82"/>
</g>
<!-- Node18 -->
<g id="node18" class="node"><title>Node18</title>
<g id="a_node18"><a xlink:href="class_splash_screen.html#a0bd5b5c18e2a37a219bdedb6b2fab011" target="_top" xlink:title="SplashScreen::SplashScreen">
<polygon fill="white" stroke="black" points="137,-144.5 137,-163.5 284,-163.5 284,-144.5 137,-144.5"/>
<text text-anchor="middle" x="210.5" y="-151.5" font-family="Helvetica,sans-Serif" font-size="10.00">SplashScreen::SplashScreen</text>
</a>
</g>
</g>
<!-- Node1&#45;&gt;Node18 -->
<g id="edge18" class="edge"><title>Node1&#45;&gt;Node18</title>
<path fill="none" stroke="midnightblue" d="M108.525,-154C117.771,-154 127.429,-154 136.949,-154"/>
<polygon fill="midnightblue" stroke="midnightblue" points="108.288,-150.5 98.2881,-154 108.288,-157.5 108.288,-150.5"/>
</g>
<!-- Node19 -->
<g id="node19" class="node"><title>Node19</title>
<g id="a_node19"><a xlink:href="class_help_message_dialog.html#a7a3d90a39f3f4aad69764773540c7aba" target="_top" xlink:title="&quot;Help message&quot; dialog box ">
<polygon fill="white" stroke="black" points="154.5,-95 154.5,-125 266.5,-125 266.5,-95 154.5,-95"/>
<text text-anchor="start" x="162.5" y="-113" font-family="Helvetica,sans-Serif" font-size="10.00">HelpMessageDialog::</text>
<text text-anchor="middle" x="210.5" y="-102" font-family="Helvetica,sans-Serif" font-size="10.00">HelpMessageDialog</text>
</a>
</g>
</g>
<!-- Node1&#45;&gt;Node19 -->
<g id="edge19" class="edge"><title>Node1&#45;&gt;Node19</title>
<path fill="none" stroke="midnightblue" d="M94.3707,-141.76C113.124,-136.587 135.15,-130.51 154.888,-125.065"/>
<polygon fill="midnightblue" stroke="midnightblue" points="93.3183,-138.419 84.6091,-144.453 95.1798,-145.167 93.3183,-138.419"/>
</g>
<!-- Node20 -->
<g id="node20" class="node"><title>Node20</title>
<g id="a_node20"><a xlink:href="rpcprotocol_8cpp.html#af2d91e7026366657a021311ecc188262" target="_top" xlink:title="HTTPPost">
<polygon fill="white" stroke="black" points="179,-182.5 179,-201.5 242,-201.5 242,-182.5 179,-182.5"/>
<text text-anchor="middle" x="210.5" y="-189.5" font-family="Helvetica,sans-Serif" font-size="10.00">HTTPPost</text>
</a>
</g>
</g>
<!-- Node1&#45;&gt;Node20 -->
<g id="edge20" class="edge"><title>Node1&#45;&gt;Node20</title>
<path fill="none" stroke="midnightblue" d="M100.232,-165.967C126.014,-172.11 156.588,-179.394 178.829,-184.693"/>
<polygon fill="midnightblue" stroke="midnightblue" points="100.788,-162.502 90.2486,-163.589 99.1651,-169.311 100.788,-162.502"/>
</g>
<!-- Node24 -->
<g id="node24" class="node"><title>Node24</title>
<g id="a_node24"><a xlink:href="rpcprotocol_8cpp.html#afa39f57077df4d88ad60373f58d793e1" target="_top" xlink:title="HTTPReply">
<polygon fill="white" stroke="black" points="176.5,-18.5 176.5,-37.5 244.5,-37.5 244.5,-18.5 176.5,-18.5"/>
<text text-anchor="middle" x="210.5" y="-25.5" font-family="Helvetica,sans-Serif" font-size="10.00">HTTPReply</text>
</a>
</g>
</g>
<!-- Node1&#45;&gt;Node24 -->
<g id="edge25" class="edge"><title>Node1&#45;&gt;Node24</title>
<path fill="none" stroke="midnightblue" d="M59.5184,-135.362C72.8409,-111.197 99.3559,-69.4947 134,-47 146.583,-38.8296 162.449,-34.1724 176.384,-31.5179"/>
<polygon fill="midnightblue" stroke="midnightblue" points="56.3932,-133.784 54.7762,-144.255 62.5699,-137.078 56.3932,-133.784"/>
</g>
<!-- Node3 -->
<g id="node3" class="node"><title>Node3</title>
<g id="a_node3"><a xlink:href="anoncoind_8cpp.html#a0ddf1224851353fc92bfbff6f499fa97" target="_top" xlink:title="main">
<polygon fill="white" stroke="black" points="918.5,-251.5 918.5,-270.5 956.5,-270.5 956.5,-251.5 918.5,-251.5"/>
<text text-anchor="middle" x="937.5" y="-258.5" font-family="Helvetica,sans-Serif" font-size="10.00">main</text>
</a>
</g>
</g>
<!-- Node2&#45;&gt;Node3 -->
<g id="edge2" class="edge"><title>Node2&#45;&gt;Node3</title>
<path fill="none" stroke="midnightblue" d="M794.564,-261C831.437,-261 889.287,-261 918.433,-261"/>
<polygon fill="midnightblue" stroke="midnightblue" points="794.305,-257.5 784.305,-261 794.305,-264.5 794.305,-257.5"/>
</g>
<!-- Node4&#45;&gt;Node2 -->
<g id="edge4" class="edge"><title>Node4&#45;&gt;Node2</title>
<path fill="none" stroke="midnightblue" d="M247.288,-234.437C269.13,-237 297.64,-240.085 323,-242 480.524,-253.897 670.67,-259.018 735.808,-260.509"/>
<polygon fill="midnightblue" stroke="midnightblue" points="247.487,-230.936 237.143,-233.229 246.659,-237.887 247.487,-230.936"/>
</g>
<!-- Node5 -->
<g id="node5" class="node"><title>Node5</title>
<g id="a_node5"><a xlink:href="class_anoncoin_coin.html#a9510881824d283404ac43414dbb74586" target="_top" xlink:title="AnoncoinCoin::initialize">
<polygon fill="white" stroke="black" points="336,-213.5 336,-232.5 456,-232.5 456,-213.5 336,-213.5"/>
<text text-anchor="middle" x="396" y="-220.5" font-family="Helvetica,sans-Serif" font-size="10.00">AnoncoinCoin::initialize</text>
</a>
</g>
</g>
<!-- Node4&#45;&gt;Node5 -->
<g id="edge5" class="edge"><title>Node4&#45;&gt;Node5</title>
<path fill="none" stroke="midnightblue" d="M247.182,-228.639C272.299,-227.681 306.509,-226.376 335.692,-225.262"/>
<polygon fill="midnightblue" stroke="midnightblue" points="246.874,-225.148 237.015,-229.027 247.141,-232.143 246.874,-225.148"/>
</g>
<!-- Node7 -->
<g id="node7" class="node"><title>Node7</title>
<g id="a_node7"><a xlink:href="class_r_p_c_console.html#a355349a33664a07628e9ca22a60f5fa7" target="_top" xlink:title="RPCConsole::setClientModel">
<polygon fill="white" stroke="black" points="323,-97.5 323,-116.5 469,-116.5 469,-97.5 323,-97.5"/>
<text text-anchor="middle" x="396" y="-104.5" font-family="Helvetica,sans-Serif" font-size="10.00">RPCConsole::setClientModel</text>
</a>
</g>
</g>
<!-- Node6&#45;&gt;Node7 -->
<g id="edge7" class="edge"><title>Node6&#45;&gt;Node7</title>
<path fill="none" stroke="midnightblue" d="M264.074,-77.7467C292.058,-83.9993 326.029,-91.5895 352.354,-97.4714"/>
<polygon fill="midnightblue" stroke="midnightblue" points="264.582,-74.2741 254.06,-75.5093 263.056,-81.1057 264.582,-74.2741"/>
</g>
<!-- Node14 -->
<g id="node14" class="node"><title>Node14</title>
<g id="a_node14"><a xlink:href="class_about_dialog.html#ad15ee5cad707263d7b39ba7803bb6def" target="_top" xlink:title="AboutDialog::setModel">
<polygon fill="white" stroke="black" points="337.5,-56.5 337.5,-75.5 454.5,-75.5 454.5,-56.5 337.5,-56.5"/>
<text text-anchor="middle" x="396" y="-63.5" font-family="Helvetica,sans-Serif" font-size="10.00">AboutDialog::setModel</text>
</a>
</g>
</g>
<!-- Node6&#45;&gt;Node14 -->
<g id="edge14" class="edge"><title>Node6&#45;&gt;Node14</title>
<path fill="none" stroke="midnightblue" d="M297.495,-66C311.032,-66 324.736,-66 337.423,-66"/>
<polygon fill="midnightblue" stroke="midnightblue" points="297.196,-62.5001 287.196,-66 297.196,-69.5001 297.196,-62.5001"/>
</g>
<!-- Node8 -->
<g id="node8" class="node"><title>Node8</title>
<g id="a_node8"><a xlink:href="class_anoncoin_g_u_i.html#ab6dbbc9dae6aee55656d615c1aff5399" target="_top" xlink:title="Set the client model. ">
<polygon fill="white" stroke="black" points="505,-98.5 505,-117.5 653,-117.5 653,-98.5 505,-98.5"/>
<text text-anchor="middle" x="579" y="-105.5" font-family="Helvetica,sans-Serif" font-size="10.00">AnoncoinGUI::setClientModel</text>
</a>
</g>
</g>
<!-- Node7&#45;&gt;Node8 -->
<g id="edge8" class="edge"><title>Node7&#45;&gt;Node8</title>
<path fill="none" stroke="midnightblue" d="M479.318,-107.455C487.786,-107.502 496.35,-107.549 504.712,-107.595"/>
<polygon fill="midnightblue" stroke="midnightblue" points="479.075,-103.953 469.056,-107.398 479.037,-110.953 479.075,-103.953"/>
</g>
<!-- Node9 -->
<g id="node9" class="node"><title>Node9</title>
<g id="a_node9"><a xlink:href="class_anoncoin_application.html#a931ed67447cc07f1e0f32327b122af01" target="_top" xlink:title="Request core shutdown. ">
<polygon fill="white" stroke="black" points="706.5,-93 706.5,-123 813.5,-123 813.5,-93 706.5,-93"/>
<text text-anchor="start" x="714.5" y="-111" font-family="Helvetica,sans-Serif" font-size="10.00">AnoncoinApplication</text>
<text text-anchor="middle" x="760" y="-100" font-family="Helvetica,sans-Serif" font-size="10.00">::requestShutdown</text>
</a>
</g>
</g>
<!-- Node8&#45;&gt;Node9 -->
<g id="edge9" class="edge"><title>Node8&#45;&gt;Node9</title>
<path fill="none" stroke="midnightblue" d="M663.2,-108C677.922,-108 692.872,-108 706.447,-108"/>
<polygon fill="midnightblue" stroke="midnightblue" points="663.064,-104.5 653.064,-108 663.064,-111.5 663.064,-104.5"/>
</g>
<!-- Node11 -->
<g id="node11" class="node"><title>Node11</title>
<g id="a_node11"><a xlink:href="class_anoncoin_application.html#a565d432edd9d4fc30ce60bfd8d5699e3" target="_top" xlink:title="AnoncoinApplication\l::initializeResult">
<polygon fill="white" stroke="black" points="706.5,-142 706.5,-172 813.5,-172 813.5,-142 706.5,-142"/>
<text text-anchor="start" x="714.5" y="-160" font-family="Helvetica,sans-Serif" font-size="10.00">AnoncoinApplication</text>
<text text-anchor="middle" x="760" y="-149" font-family="Helvetica,sans-Serif" font-size="10.00">::initializeResult</text>
</a>
</g>
</g>
<!-- Node8&#45;&gt;Node11 -->
<g id="edge11" class="edge"><title>Node8&#45;&gt;Node11</title>
<path fill="none" stroke="midnightblue" d="M624.769,-120.255C649.468,-127.016 680.283,-135.452 706.158,-142.535"/>
<polygon fill="midnightblue" stroke="midnightblue" points="625.507,-116.829 614.938,-117.564 623.659,-123.58 625.507,-116.829"/>
</g>
<!-- Node10 -->
<g id="node10" class="node"><title>Node10</title>
<g id="a_node10"><a xlink:href="anoncoin_8cpp.html#a0ddf1224851353fc92bfbff6f499fa97" target="_top" xlink:title="main">
<polygon fill="white" stroke="black" points="918.5,-98.5 918.5,-117.5 956.5,-117.5 956.5,-98.5 918.5,-98.5"/>
<text text-anchor="middle" x="937.5" y="-105.5" font-family="Helvetica,sans-Serif" font-size="10.00">main</text>
</a>
</g>
</g>
<!-- Node9&#45;&gt;Node10 -->
<g id="edge10" class="edge"><title>Node9&#45;&gt;Node10</title>
<path fill="none" stroke="midnightblue" d="M823.87,-108C857.406,-108 896.227,-108 918.42,-108"/>
<polygon fill="midnightblue" stroke="midnightblue" points="823.656,-104.5 813.656,-108 823.656,-111.5 823.656,-104.5"/>
</g>
<!-- Node12 -->
<g id="node12" class="node"><title>Node12</title>
<g id="a_node12"><a xlink:href="class_anoncoin_application.html#a757849a7d52cb0559592ba4194f4872c" target="_top" xlink:title="AnoncoinApplication\l::startThread">
<polygon fill="white" stroke="black" points="884,-142 884,-172 991,-172 991,-142 884,-142"/>
<text text-anchor="start" x="892" y="-160" font-family="Helvetica,sans-Serif" font-size="10.00">AnoncoinApplication</text>
<text text-anchor="middle" x="937.5" y="-149" font-family="Helvetica,sans-Serif" font-size="10.00">::startThread</text>
</a>
</g>
</g>
<!-- Node11&#45;&gt;Node12 -->
<g id="edge12" class="edge"><title>Node11&#45;&gt;Node12</title>
<path fill="none" stroke="midnightblue" d="M823.761,-157C843.45,-157 864.969,-157 883.881,-157"/>
<polygon fill="midnightblue" stroke="midnightblue" points="823.656,-153.5 813.656,-157 823.656,-160.5 823.656,-153.5"/>
</g>
<!-- Node13 -->
<g id="node13" class="node"><title>Node13</title>
<g id="a_node13"><a xlink:href="class_anoncoin_application.html#a4e345b36dac09420eac7edc10fa4ffcf" target="_top" xlink:title="AnoncoinApplication\l::AnoncoinApplication">
<polygon fill="white" stroke="black" points="1044,-142 1044,-172 1157,-172 1157,-142 1044,-142"/>
<text text-anchor="start" x="1052" y="-160" font-family="Helvetica,sans-Serif" font-size="10.00">AnoncoinApplication</text>
<text text-anchor="middle" x="1100.5" y="-149" font-family="Helvetica,sans-Serif" font-size="10.00">::AnoncoinApplication</text>
</a>
</g>
</g>
<!-- Node12&#45;&gt;Node13 -->
<g id="edge13" class="edge"><title>Node12&#45;&gt;Node13</title>
<path fill="none" stroke="midnightblue" d="M1001.29,-157C1015.35,-157 1030.16,-157 1043.9,-157"/>
<polygon fill="midnightblue" stroke="midnightblue" points="1001.22,-153.5 991.217,-157 1001.22,-160.5 1001.22,-153.5"/>
</g>
<!-- Node15 -->
<g id="node15" class="node"><title>Node15</title>
<g id="a_node15"><a xlink:href="class_anoncoin_g_u_i.html#a27b91ac353f3729cf916384e77476423" target="_top" xlink:title="Show about dialog. ">
<polygon fill="white" stroke="black" points="509.5,-55.5 509.5,-74.5 648.5,-74.5 648.5,-55.5 509.5,-55.5"/>
<text text-anchor="middle" x="579" y="-62.5" font-family="Helvetica,sans-Serif" font-size="10.00">AnoncoinGUI::aboutClicked</text>
</a>
</g>
</g>
<!-- Node14&#45;&gt;Node15 -->
<g id="edge15" class="edge"><title>Node14&#45;&gt;Node15</title>
<path fill="none" stroke="midnightblue" d="M465.141,-65.6235C479.618,-65.5435 494.909,-65.4591 509.402,-65.379"/>
<polygon fill="midnightblue" stroke="midnightblue" points="464.748,-62.1256 454.767,-65.6808 464.786,-69.1254 464.748,-62.1256"/>
</g>
<!-- Node16 -->
<g id="node16" class="node"><title>Node16</title>
<g id="a_node16"><a xlink:href="class_anoncoin_g_u_i.html#a8aa41c17fd6005652003d93330dbf7fb" target="_top" xlink:title="Create the main UI actions. ">
<polygon fill="white" stroke="black" points="689,-54.5 689,-73.5 831,-73.5 831,-54.5 689,-54.5"/>
<text text-anchor="middle" x="760" y="-61.5" font-family="Helvetica,sans-Serif" font-size="10.00">AnoncoinGUI::createActions</text>
</a>
</g>
</g>
<!-- Node15&#45;&gt;Node16 -->
<g id="edge16" class="edge"><title>Node15&#45;&gt;Node16</title>
<path fill="none" stroke="midnightblue" d="M658.941,-64.559C668.855,-64.5036 678.944,-64.4472 688.712,-64.3927"/>
<polygon fill="midnightblue" stroke="midnightblue" points="658.674,-61.0603 648.694,-64.6162 658.714,-68.0602 658.674,-61.0603"/>
</g>
<!-- Node17 -->
<g id="node17" class="node"><title>Node17</title>
<g id="a_node17"><a xlink:href="class_anoncoin_g_u_i.html#a82d1cf09f42a7c169b3e9c8d3e54a3d0" target="_top" xlink:title="AnoncoinGUI::AnoncoinGUI">
<polygon fill="white" stroke="black" points="867,-54.5 867,-73.5 1008,-73.5 1008,-54.5 867,-54.5"/>
<text text-anchor="middle" x="937.5" y="-61.5" font-family="Helvetica,sans-Serif" font-size="10.00">AnoncoinGUI::AnoncoinGUI</text>
</a>
</g>
</g>
<!-- Node16&#45;&gt;Node17 -->
<g id="edge17" class="edge"><title>Node16&#45;&gt;Node17</title>
<path fill="none" stroke="midnightblue" d="M841.391,-64C849.868,-64 858.437,-64 866.779,-64"/>
<polygon fill="midnightblue" stroke="midnightblue" points="841.119,-60.5001 831.119,-64 841.119,-67.5001 841.119,-60.5001"/>
</g>
<!-- Node21 -->
<g id="node21" class="node"><title>Node21</title>
<g id="a_node21"><a xlink:href="rpcclient_8cpp.html#ae0b4394f271db49671cf894dbe94c484" target="_top" xlink:title="CallRPC">
<polygon fill="white" stroke="black" points="368.5,-175.5 368.5,-194.5 423.5,-194.5 423.5,-175.5 368.5,-175.5"/>
<text text-anchor="middle" x="396" y="-182.5" font-family="Helvetica,sans-Serif" font-size="10.00">CallRPC</text>
</a>
</g>
</g>
<!-- Node20&#45;&gt;Node21 -->
<g id="edge21" class="edge"><title>Node20&#45;&gt;Node21</title>
<path fill="none" stroke="midnightblue" d="M252.23,-190.446C287.63,-189.096 337.888,-187.179 368.365,-186.016"/>
<polygon fill="midnightblue" stroke="midnightblue" points="252.073,-186.95 242.214,-190.828 252.34,-193.945 252.073,-186.95"/>
</g>
<!-- Node22 -->
<g id="node22" class="node"><title>Node22</title>
<g id="a_node22"><a xlink:href="rpcclient_8h.html#a4ee23259648a971c9c05aeff8b545a6d" target="_top" xlink:title="CommandLineRPC">
<polygon fill="white" stroke="black" points="527.5,-198.5 527.5,-217.5 630.5,-217.5 630.5,-198.5 527.5,-198.5"/>
<text text-anchor="middle" x="579" y="-205.5" font-family="Helvetica,sans-Serif" font-size="10.00">CommandLineRPC</text>
</a>
</g>
</g>
<!-- Node21&#45;&gt;Node22 -->
<g id="edge22" class="edge"><title>Node21&#45;&gt;Node22</title>
<path fill="none" stroke="midnightblue" d="M433.851,-189.683C460.734,-193.099 497.502,-197.771 527.175,-201.542"/>
<polygon fill="midnightblue" stroke="midnightblue" points="434.069,-186.182 423.707,-188.394 433.186,-193.126 434.069,-186.182"/>
</g>
<!-- Node22&#45;&gt;Node2 -->
<g id="edge24" class="edge"><title>Node22&#45;&gt;Node2</title>
<path fill="none" stroke="midnightblue" d="M622.041,-220.448C657.593,-230.974 707.202,-245.663 735.927,-254.168"/>
<polygon fill="midnightblue" stroke="midnightblue" points="622.998,-217.081 612.416,-217.598 621.01,-223.793 622.998,-217.081"/>
</g>
<!-- Node23 -->
<g id="node23" class="node"><title>Node23</title>
<g id="a_node23"><a xlink:href="anoncoin-cli_8cpp.html#a0ddf1224851353fc92bfbff6f499fa97" target="_top" xlink:title="main">
<polygon fill="white" stroke="black" points="741,-198.5 741,-217.5 779,-217.5 779,-198.5 741,-198.5"/>
<text text-anchor="middle" x="760" y="-205.5" font-family="Helvetica,sans-Serif" font-size="10.00">main</text>
</a>
</g>
</g>
<!-- Node22&#45;&gt;Node23 -->
<g id="edge23" class="edge"><title>Node22&#45;&gt;Node23</title>
<path fill="none" stroke="midnightblue" d="M640.971,-208C675.987,-208 717.509,-208 740.8,-208"/>
<polygon fill="midnightblue" stroke="midnightblue" points="640.815,-204.5 630.815,-208 640.815,-211.5 640.815,-204.5"/>
</g>
<!-- Node25 -->
<g id="node25" class="node"><title>Node25</title>
<g id="a_node25"><a xlink:href="rpcserver_8cpp.html#a01dbd901fe882171ef907f64ce31db00" target="_top" xlink:title="ErrorReply">
<polygon fill="white" stroke="black" points="364,-18.5 364,-37.5 428,-37.5 428,-18.5 364,-18.5"/>
<text text-anchor="middle" x="396" y="-25.5" font-family="Helvetica,sans-Serif" font-size="10.00">ErrorReply</text>
</a>
</g>
</g>
<!-- Node24&#45;&gt;Node25 -->
<g id="edge26" class="edge"><title>Node24&#45;&gt;Node25</title>
<path fill="none" stroke="midnightblue" d="M255.143,-28C288.609,-28 333.982,-28 363.852,-28"/>
<polygon fill="midnightblue" stroke="midnightblue" points="254.73,-24.5001 244.73,-28 254.73,-31.5001 254.73,-24.5001"/>
</g>
<!-- Node26 -->
<g id="node26" class="node"><title>Node26</title>
<g id="a_node26"><a xlink:href="rpcserver_8cpp.html#adda5af922ba2f27c9f6219394d3c4f4c" target="_top" xlink:title="ServiceConnection">
<polygon fill="white" stroke="black" points="529,-0.5 529,-19.5 629,-19.5 629,-0.5 529,-0.5"/>
<text text-anchor="middle" x="579" y="-7.5" font-family="Helvetica,sans-Serif" font-size="10.00">ServiceConnection</text>
</a>
</g>
</g>
<!-- Node24&#45;&gt;Node26 -->
<g id="edge28" class="edge"><title>Node24&#45;&gt;Node26</title>
<path fill="none" stroke="midnightblue" d="M254.975,-18.8392C275.502,-14.9652 300.403,-10.9116 323,-9 394.243,-2.97336 477.084,-4.94863 528.535,-7.22815"/>
<polygon fill="midnightblue" stroke="midnightblue" points="254.129,-15.4378 244.978,-20.7761 255.461,-22.3101 254.129,-15.4378"/>
</g>
<!-- Node25&#45;&gt;Node26 -->
<g id="edge27" class="edge"><title>Node25&#45;&gt;Node26</title>
<path fill="none" stroke="midnightblue" d="M438.363,-23.8865C465.292,-21.2085 500.552,-17.7021 528.901,-14.8827"/>
<polygon fill="midnightblue" stroke="midnightblue" points="437.72,-20.4332 428.115,-24.9057 438.412,-27.3988 437.72,-20.4332"/>
</g>
</g>
</svg>
