<?xml version="1.0" encoding="UTF-8" standalone="no"?>
<!DOCTYPE svg PUBLIC "-//W3C//DTD SVG 1.1//EN"
 "http://www.w3.org/Graphics/SVG/1.1/DTD/svg11.dtd">
<!-- Generated by graphviz version 2.38.0 (20140413.2041)
 -->
<!-- Title: src/qt/clientmodel.h Pages: 1 -->
<svg width="1527pt" height="84pt"
 viewBox="0.00 0.00 1526.50 84.00" xmlns="http://www.w3.org/2000/svg" xmlns:xlink="http://www.w3.org/1999/xlink">
<g id="graph0" class="graph" transform="scale(1 1) rotate(0) translate(4 80)">
<title>src/qt/clientmodel.h</title>
<polygon fill="white" stroke="none" points="-4,4 -4,-80 1522.5,-80 1522.5,4 -4,4"/>
<!-- Node1 -->
<g id="node1" class="node"><title>Node1</title>
<polygon fill="#bfbfbf" stroke="black" points="709,-56.5 709,-75.5 812,-75.5 812,-56.5 709,-56.5"/>
<text text-anchor="middle" x="760.5" y="-63.5" font-family="Helvetica,sans-Serif" font-size="10.00">src/qt/clientmodel.h</text>
</g>
<!-- Node2 -->
<g id="node2" class="node"><title>Node2</title>
<g id="a_node2"><a xlink:href="anoncoin_8cpp.html" target="_top" xlink:title="src/qt/anoncoin.cpp">
<polygon fill="white" stroke="black" points="0,-0.5 0,-19.5 103,-19.5 103,-0.5 0,-0.5"/>
<text text-anchor="middle" x="51.5" y="-7.5" font-family="Helvetica,sans-Serif" font-size="10.00">src/qt/anoncoin.cpp</text>
</a>
</g>
</g>
<!-- Node1&#45;&gt;Node2 -->
<g id="edge1" class="edge"><title>Node1&#45;&gt;Node2</title>
<path fill="none" stroke="midnightblue" d="M698.557,-62.3504C582.928,-57.0394 326.471,-43.5377 111.5,-20 108.778,-19.7019 105.989,-19.3716 103.177,-19.0185"/>
<polygon fill="midnightblue" stroke="midnightblue" points="698.488,-65.8508 708.637,-62.809 698.806,-58.8581 698.488,-65.8508"/>
</g>
<!-- Node3 -->
<g id="node3" class="node"><title>Node3</title>
<g id="a_node3"><a xlink:href="anoncoingui_8cpp.html" target="_top" xlink:title="src/qt/anoncoingui.cpp">
<polygon fill="white" stroke="black" points="121,-0.5 121,-19.5 238,-19.5 238,-0.5 121,-0.5"/>
<text text-anchor="middle" x="179.5" y="-7.5" font-family="Helvetica,sans-Serif" font-size="10.00">src/qt/anoncoingui.cpp</text>
</a>
</g>
</g>
<!-- Node1&#45;&gt;Node3 -->
<g id="edge2" class="edge"><title>Node1&#45;&gt;Node3</title>
<path fill="none" stroke="midnightblue" d="M698.82,-60.5257C602.241,-53.3111 409.499,-38.0731 246.5,-20 243.817,-19.7025 241.075,-19.3858 238.307,-19.0558"/>
<polygon fill="midnightblue" stroke="midnightblue" points="698.756,-64.0305 708.989,-61.2821 699.276,-57.0498 698.756,-64.0305"/>
</g>
<!-- Node4 -->
<g id="node4" class="node"><title>Node4</title>
<g id="a_node4"><a xlink:href="clientmodel_8cpp.html" target="_top" xlink:title="src/qt/clientmodel.cpp">
<polygon fill="white" stroke="black" points="256,-0.5 256,-19.5 369,-19.5 369,-0.5 256,-0.5"/>
<text text-anchor="middle" x="312.5" y="-7.5" font-family="Helvetica,sans-Serif" font-size="10.00">src/qt/clientmodel.cpp</text>
</a>
</g>
</g>
<!-- Node1&#45;&gt;Node4 -->
<g id="edge3" class="edge"><title>Node1&#45;&gt;Node4</title>
<path fill="none" stroke="midnightblue" d="M698.418,-58.1042C622.623,-49.5934 490.556,-34.4671 377.5,-20 374.788,-19.653 372.013,-19.2919 369.211,-18.9225"/>
<polygon fill="midnightblue" stroke="midnightblue" points="698.404,-61.6245 708.731,-59.2605 699.184,-54.6681 698.404,-61.6245"/>
</g>
<!-- Node5 -->
<g id="node5" class="node"><title>Node5</title>
<g id="a_node5"><a xlink:href="i2poptionswidget_8cpp.html" target="_top" xlink:title="src/qt/i2poptionswidget.cpp">
<polygon fill="white" stroke="black" points="387,-0.5 387,-19.5 524,-19.5 524,-0.5 387,-0.5"/>
<text text-anchor="middle" x="455.5" y="-7.5" font-family="Helvetica,sans-Serif" font-size="10.00">src/qt/i2poptionswidget.cpp</text>
</a>
</g>
</g>
<!-- Node1&#45;&gt;Node5 -->
<g id="edge4" class="edge"><title>Node1&#45;&gt;Node5</title>
<path fill="none" stroke="midnightblue" d="M702.122,-54.6642C644.482,-44.4592 557.385,-29.0386 503.602,-19.5164"/>
<polygon fill="midnightblue" stroke="midnightblue" points="701.715,-58.1465 712.172,-56.4435 702.935,-51.2537 701.715,-58.1465"/>
</g>
<!-- Node6 -->
<g id="node6" class="node"><title>Node6</title>
<g id="a_node6"><a xlink:href="moc__clientmodel_8cpp.html" target="_top" xlink:title="src/qt/moc_clientmodel.cpp">
<polygon fill="white" stroke="black" points="542.5,-0.5 542.5,-19.5 680.5,-19.5 680.5,-0.5 542.5,-0.5"/>
<text text-anchor="middle" x="611.5" y="-7.5" font-family="Helvetica,sans-Serif" font-size="10.00">src/qt/moc_clientmodel.cpp</text>
</a>
</g>
</g>
<!-- Node1&#45;&gt;Node6 -->
<g id="edge5" class="edge"><title>Node1&#45;&gt;Node6</title>
<path fill="none" stroke="midnightblue" d="M727.129,-52.9058C699.116,-42.7536 659.804,-28.5063 634.999,-19.5164"/>
<polygon fill="midnightblue" stroke="midnightblue" points="726.296,-56.3267 736.891,-56.4435 728.681,-49.7456 726.296,-56.3267"/>
</g>
<!-- Node7 -->
<g id="node7" class="node"><title>Node7</title>
<g id="a_node7"><a xlink:href="overviewpage_8cpp.html" target="_top" xlink:title="src/qt/overviewpage.cpp">
<polygon fill="white" stroke="black" points="698.5,-0.5 698.5,-19.5 822.5,-19.5 822.5,-0.5 698.5,-0.5"/>
<text text-anchor="middle" x="760.5" y="-7.5" font-family="Helvetica,sans-Serif" font-size="10.00">src/qt/overviewpage.cpp</text>
</a>
</g>
</g>
<!-- Node1&#45;&gt;Node7 -->
<g id="edge6" class="edge"><title>Node1&#45;&gt;Node7</title>
<path fill="none" stroke="midnightblue" d="M760.5,-45.8045C760.5,-36.9102 760.5,-26.7798 760.5,-19.7511"/>
<polygon fill="midnightblue" stroke="midnightblue" points="757,-46.083 760.5,-56.083 764,-46.083 757,-46.083"/>
</g>
<!-- Node8 -->
<g id="node8" class="node"><title>Node8</title>
<g id="a_node8"><a xlink:href="peertablemodel_8cpp.html" target="_top" xlink:title="src/qt/peertablemodel.cpp">
<polygon fill="white" stroke="black" points="840.5,-0.5 840.5,-19.5 972.5,-19.5 972.5,-0.5 840.5,-0.5"/>
<text text-anchor="middle" x="906.5" y="-7.5" font-family="Helvetica,sans-Serif" font-size="10.00">src/qt/peertablemodel.cpp</text>
</a>
</g>
</g>
<!-- Node1&#45;&gt;Node8 -->
<g id="edge7" class="edge"><title>Node1&#45;&gt;Node8</title>
<path fill="none" stroke="midnightblue" d="M793.199,-52.9058C820.648,-42.7536 859.168,-28.5063 883.474,-19.5164"/>
<polygon fill="midnightblue" stroke="midnightblue" points="791.799,-49.6919 783.634,-56.4435 794.227,-56.2572 791.799,-49.6919"/>
</g>
<!-- Node9 -->
<g id="node9" class="node"><title>Node9</title>
<g id="a_node9"><a xlink:href="rpcconsole_8cpp.html" target="_top" xlink:title="src/qt/rpcconsole.cpp">
<polygon fill="white" stroke="black" points="991,-0.5 991,-19.5 1102,-19.5 1102,-0.5 991,-0.5"/>
<text text-anchor="middle" x="1046.5" y="-7.5" font-family="Helvetica,sans-Serif" font-size="10.00">src/qt/rpcconsole.cpp</text>
</a>
</g>
</g>
<!-- Node1&#45;&gt;Node9 -->
<g id="edge8" class="edge"><title>Node1&#45;&gt;Node9</title>
<path fill="none" stroke="midnightblue" d="M815.914,-54.5371C869.966,-44.3316 951.171,-28.9992 1001.39,-19.5164"/>
<polygon fill="midnightblue" stroke="midnightblue" points="814.995,-51.1489 805.818,-56.4435 816.293,-58.0274 814.995,-51.1489"/>
</g>
<!-- Node10 -->
<g id="node10" class="node"><title>Node10</title>
<g id="a_node10"><a xlink:href="trafficgraphwidget_8cpp.html" target="_top" xlink:title="src/qt/trafficgraphwidget.cpp">
<polygon fill="white" stroke="black" points="1120.5,-0.5 1120.5,-19.5 1262.5,-19.5 1262.5,-0.5 1120.5,-0.5"/>
<text text-anchor="middle" x="1191.5" y="-7.5" font-family="Helvetica,sans-Serif" font-size="10.00">src/qt/trafficgraphwidget.cpp</text>
</a>
</g>
</g>
<!-- Node1&#45;&gt;Node10 -->
<g id="edge9" class="edge"><title>Node1&#45;&gt;Node10</title>
<path fill="none" stroke="midnightblue" d="M822.459,-57.2371C902.368,-47.2254 1040.88,-29.8714 1123.58,-19.5095"/>
<polygon fill="midnightblue" stroke="midnightblue" points="821.548,-53.8239 812.061,-58.54 822.418,-60.7696 821.548,-53.8239"/>
</g>
<!-- Node11 -->
<g id="node11" class="node"><title>Node11</title>
<g id="a_node11"><a xlink:href="utilitydialog_8cpp.html" target="_top" xlink:title="src/qt/utilitydialog.cpp">
<polygon fill="white" stroke="black" points="1280.5,-0.5 1280.5,-19.5 1392.5,-19.5 1392.5,-0.5 1280.5,-0.5"/>
<text text-anchor="middle" x="1336.5" y="-7.5" font-family="Helvetica,sans-Serif" font-size="10.00">src/qt/utilitydialog.cpp</text>
</a>
</g>
</g>
<!-- Node1&#45;&gt;Node11 -->
<g id="edge10" class="edge"><title>Node1&#45;&gt;Node11</title>
<path fill="none" stroke="midnightblue" d="M822.208,-60.5621C918.359,-53.4224 1109.7,-38.3143 1271.5,-20 1274.33,-19.6797 1277.23,-19.3361 1280.15,-18.9768"/>
<polygon fill="midnightblue" stroke="midnightblue" points="821.797,-57.0828 812.083,-61.3105 822.313,-64.0637 821.797,-57.0828"/>
</g>
<!-- Node12 -->
<g id="node12" class="node"><title>Node12</title>
<g id="a_node12"><a xlink:href="walletview_8cpp.html" target="_top" xlink:title="src/qt/walletview.cpp">
<polygon fill="white" stroke="black" points="1410.5,-0.5 1410.5,-19.5 1518.5,-19.5 1518.5,-0.5 1410.5,-0.5"/>
<text text-anchor="middle" x="1464.5" y="-7.5" font-family="Helvetica,sans-Serif" font-size="10.00">src/qt/walletview.cpp</text>
</a>
</g>
</g>
<!-- Node1&#45;&gt;Node12 -->
<g id="edge11" class="edge"><title>Node1&#45;&gt;Node12</title>
<path fill="none" stroke="midnightblue" d="M822.444,-62.133C936.992,-56.502 1189.58,-42.5465 1401.5,-20 1404.36,-19.6961 1407.28,-19.3611 1410.23,-19.0044"/>
<polygon fill="midnightblue" stroke="midnightblue" points="821.942,-58.6532 812.125,-62.636 822.283,-65.6448 821.942,-58.6532"/>
</g>
</g>
</svg>
