<?xml version="1.0" encoding="UTF-8" standalone="no"?>
<!DOCTYPE svg PUBLIC "-//W3C//DTD SVG 1.1//EN"
 "http://www.w3.org/Graphics/SVG/1.1/DTD/svg11.dtd">
<!-- Generated by graphviz version 2.38.0 (20140413.2041)
 -->
<!-- Title: src/coins.cpp Pages: 1 -->
<svg width="2144pt" height="487pt"
 viewBox="0.00 0.00 2143.50 487.00" xmlns="http://www.w3.org/2000/svg" xmlns:xlink="http://www.w3.org/1999/xlink">
<g id="graph0" class="graph" transform="scale(1 1) rotate(0) translate(4 483)">
<title>src/coins.cpp</title>
<polygon fill="white" stroke="none" points="-4,4 -4,-483 2139.5,-483 2139.5,4 -4,4"/>
<!-- Node1 -->
<g id="node1" class="node"><title>Node1</title>
<polygon fill="#bfbfbf" stroke="black" points="1955,-459.5 1955,-478.5 2030,-478.5 2030,-459.5 1955,-459.5"/>
<text text-anchor="middle" x="1992.5" y="-466.5" font-family="Helvetica,sans-Serif" font-size="10.00">src/coins.cpp</text>
</g>
<!-- Node2 -->
<g id="node2" class="node"><title>Node2</title>
<g id="a_node2"><a xlink:href="coins_8h.html" target="_top" xlink:title="coins.h">
<polygon fill="white" stroke="black" points="1840.5,-403.5 1840.5,-422.5 1888.5,-422.5 1888.5,-403.5 1840.5,-403.5"/>
<text text-anchor="middle" x="1864.5" y="-410.5" font-family="Helvetica,sans-Serif" font-size="10.00">coins.h</text>
</a>
</g>
</g>
<!-- Node1&#45;&gt;Node2 -->
<g id="edge1" class="edge"><title>Node1&#45;&gt;Node2</title>
<path fill="none" stroke="midnightblue" d="M1972.22,-459.444C1951.15,-450.557 1917.98,-436.563 1894.01,-426.451"/>
<polygon fill="midnightblue" stroke="midnightblue" points="1895.26,-423.179 1884.69,-422.516 1892.54,-429.628 1895.26,-423.179"/>
</g>
<!-- Node16 -->
<g id="node16" class="node"><title>Node16</title>
<polygon fill="white" stroke="#bfbfbf" points="2083.5,-62 2083.5,-81 2135.5,-81 2135.5,-62 2083.5,-62"/>
<text text-anchor="middle" x="2109.5" y="-69" font-family="Helvetica,sans-Serif" font-size="10.00">assert.h</text>
</g>
<!-- Node1&#45;&gt;Node16 -->
<g id="edge83" class="edge"><title>Node1&#45;&gt;Node16</title>
<path fill="none" stroke="midnightblue" d="M2017.48,-459.467C2054.73,-444.972 2120.5,-411.767 2120.5,-358 2120.5,-358 2120.5,-358 2120.5,-188 2120.5,-153.709 2115.64,-113.949 2112.38,-91.1572"/>
<polygon fill="midnightblue" stroke="midnightblue" points="2115.82,-90.5441 2110.89,-81.1665 2108.9,-91.5721 2115.82,-90.5441"/>
</g>
<!-- Node3 -->
<g id="node3" class="node"><title>Node3</title>
<g id="a_node3"><a xlink:href="core_8h.html" target="_top" xlink:title="core.h">
<polygon fill="white" stroke="black" points="1760.5,-347.5 1760.5,-366.5 1804.5,-366.5 1804.5,-347.5 1760.5,-347.5"/>
<text text-anchor="middle" x="1782.5" y="-354.5" font-family="Helvetica,sans-Serif" font-size="10.00">core.h</text>
</a>
</g>
</g>
<!-- Node2&#45;&gt;Node3 -->
<g id="edge2" class="edge"><title>Node2&#45;&gt;Node3</title>
<path fill="none" stroke="midnightblue" d="M1851.33,-403.324C1838.65,-394.979 1819.27,-382.212 1804.29,-372.352"/>
<polygon fill="midnightblue" stroke="midnightblue" points="1805.92,-369.231 1795.64,-366.655 1802.07,-375.078 1805.92,-369.231"/>
</g>
<!-- Node14 -->
<g id="node14" class="node"><title>Node14</title>
<g id="a_node14"><a xlink:href="serialize_8h.html" target="_top" xlink:title="serialize.h">
<polygon fill="white" stroke="black" points="1705.5,-123.5 1705.5,-142.5 1767.5,-142.5 1767.5,-123.5 1705.5,-123.5"/>
<text text-anchor="middle" x="1736.5" y="-130.5" font-family="Helvetica,sans-Serif" font-size="10.00">serialize.h</text>
</a>
</g>
</g>
<!-- Node2&#45;&gt;Node14 -->
<g id="edge78" class="edge"><title>Node2&#45;&gt;Node14</title>
<path fill="none" stroke="midnightblue" d="M1861.13,-403.378C1848.97,-372.468 1805.75,-264.507 1762.5,-179 1757.82,-169.741 1752.09,-159.72 1747.21,-151.489"/>
<polygon fill="midnightblue" stroke="midnightblue" points="1750.14,-149.562 1741.98,-142.804 1744.14,-153.175 1750.14,-149.562"/>
</g>
<!-- Node2&#45;&gt;Node16 -->
<g id="edge80" class="edge"><title>Node2&#45;&gt;Node16</title>
<path fill="none" stroke="midnightblue" d="M1888.66,-410.873C1945.42,-406.801 2082.5,-388.057 2082.5,-302 2082.5,-302 2082.5,-302 2082.5,-188 2082.5,-152.783 2094.55,-113.075 2102.55,-90.5916"/>
<polygon fill="midnightblue" stroke="midnightblue" points="2105.9,-91.6267 2106.08,-81.0334 2099.33,-89.2007 2105.9,-91.6267"/>
</g>
<!-- Node20 -->
<g id="node20" class="node"><title>Node20</title>
<polygon fill="white" stroke="#bfbfbf" points="2016,-62 2016,-81 2065,-81 2065,-62 2016,-62"/>
<text text-anchor="middle" x="2040.5" y="-69" font-family="Helvetica,sans-Serif" font-size="10.00">stdint.h</text>
</g>
<!-- Node2&#45;&gt;Node20 -->
<g id="edge81" class="edge"><title>Node2&#45;&gt;Node20</title>
<path fill="none" stroke="midnightblue" d="M1888.78,-408.662C1937.91,-400.395 2044.5,-374.148 2044.5,-302 2044.5,-302 2044.5,-302 2044.5,-188 2044.5,-153.843 2042.73,-114.039 2041.55,-91.2023"/>
<polygon fill="midnightblue" stroke="midnightblue" points="2045.04,-90.987 2041.01,-81.1898 2038.05,-91.3637 2045.04,-90.987"/>
</g>
<!-- Node25 -->
<g id="node25" class="node"><title>Node25</title>
<g id="a_node25"><a xlink:href="uint256_8h.html" target="_top" xlink:title="uint256.h">
<polygon fill="white" stroke="black" points="1232.5,-123.5 1232.5,-142.5 1290.5,-142.5 1290.5,-123.5 1232.5,-123.5"/>
<text text-anchor="middle" x="1261.5" y="-130.5" font-family="Helvetica,sans-Serif" font-size="10.00">uint256.h</text>
</a>
</g>
</g>
<!-- Node2&#45;&gt;Node25 -->
<g id="edge79" class="edge"><title>Node2&#45;&gt;Node25</title>
<path fill="none" stroke="midnightblue" d="M1840.31,-408.393C1765.83,-396.463 1535.18,-353.309 1372.5,-255 1338.4,-234.394 1329.05,-228.705 1302.5,-199 1289.48,-184.431 1277.94,-165.259 1270.44,-151.518"/>
<polygon fill="midnightblue" stroke="midnightblue" points="1273.51,-149.822 1265.74,-142.615 1267.32,-153.092 1273.51,-149.822"/>
</g>
<!-- Node47 -->
<g id="node47" class="node"><title>Node47</title>
<polygon fill="white" stroke="#bfbfbf" points="0,-235.5 0,-254.5 97,-254.5 97,-235.5 0,-235.5"/>
<text text-anchor="middle" x="48.5" y="-242.5" font-family="Helvetica,sans-Serif" font-size="10.00">boost/foreach.hpp</text>
</g>
<!-- Node2&#45;&gt;Node47 -->
<g id="edge82" class="edge"><title>Node2&#45;&gt;Node47</title>
<path fill="none" stroke="midnightblue" d="M1840.47,-409.981C1766.14,-403.727 1533.32,-384.065 1340.5,-367 794.15,-318.646 656.275,-318.693 111.5,-255 110.204,-254.848 108.893,-254.692 107.572,-254.531"/>
<polygon fill="midnightblue" stroke="midnightblue" points="107.669,-251.015 97.307,-253.223 106.785,-257.959 107.669,-251.015"/>
</g>
<!-- Node4 -->
<g id="node4" class="node"><title>Node4</title>
<g id="a_node4"><a xlink:href="script_8h.html" target="_top" xlink:title="script.h">
<polygon fill="white" stroke="black" points="1217,-291.5 1217,-310.5 1266,-310.5 1266,-291.5 1217,-291.5"/>
<text text-anchor="middle" x="1241.5" y="-298.5" font-family="Helvetica,sans-Serif" font-size="10.00">script.h</text>
</a>
</g>
</g>
<!-- Node3&#45;&gt;Node4 -->
<g id="edge3" class="edge"><title>Node3&#45;&gt;Node4</title>
<path fill="none" stroke="midnightblue" d="M1760.28,-353.782C1676.36,-345.406 1378.27,-315.651 1276.13,-305.457"/>
<polygon fill="midnightblue" stroke="midnightblue" points="1276.34,-301.96 1266.04,-304.45 1275.64,-308.926 1276.34,-301.96"/>
</g>
<!-- Node3&#45;&gt;Node14 -->
<g id="edge75" class="edge"><title>Node3&#45;&gt;Node14</title>
<path fill="none" stroke="midnightblue" d="M1780.7,-347.297C1773.93,-314.633 1749.94,-198.866 1740.43,-152.957"/>
<polygon fill="midnightblue" stroke="midnightblue" points="1743.8,-151.966 1738.34,-142.884 1736.94,-153.386 1743.8,-151.966"/>
</g>
<!-- Node3&#45;&gt;Node20 -->
<g id="edge77" class="edge"><title>Node3&#45;&gt;Node20</title>
<path fill="none" stroke="midnightblue" d="M1804.8,-355.264C1861.46,-352.09 2006.5,-335.249 2006.5,-246 2006.5,-246 2006.5,-246 2006.5,-188 2006.5,-152.271 2021.66,-112.762 2031.73,-90.4499"/>
<polygon fill="midnightblue" stroke="midnightblue" points="2034.98,-91.7664 2036.06,-81.2263 2028.64,-88.7955 2034.98,-91.7664"/>
</g>
<!-- Node3&#45;&gt;Node25 -->
<g id="edge76" class="edge"><title>Node3&#45;&gt;Node25</title>
<path fill="none" stroke="midnightblue" d="M1760.25,-352.693C1701.17,-343.34 1536.32,-313.497 1411.5,-255 1355.18,-228.607 1301.57,-176.748 1276.42,-150.319"/>
<polygon fill="midnightblue" stroke="midnightblue" points="1278.68,-147.608 1269.29,-142.697 1273.56,-152.391 1278.68,-147.608"/>
</g>
<!-- Node49 -->
<g id="node49" class="node"><title>Node49</title>
<g id="a_node49"><a xlink:href="scrypt_8h.html" target="_top" xlink:title="scrypt.h">
<polygon fill="white" stroke="black" points="1892.5,-291.5 1892.5,-310.5 1944.5,-310.5 1944.5,-291.5 1892.5,-291.5"/>
<text text-anchor="middle" x="1918.5" y="-298.5" font-family="Helvetica,sans-Serif" font-size="10.00">scrypt.h</text>
</a>
</g>
</g>
<!-- Node3&#45;&gt;Node49 -->
<g id="edge72" class="edge"><title>Node3&#45;&gt;Node49</title>
<path fill="none" stroke="midnightblue" d="M1804.05,-347.444C1826.53,-338.517 1861.99,-324.439 1887.48,-314.317"/>
<polygon fill="midnightblue" stroke="midnightblue" points="1889.05,-317.46 1897.05,-310.516 1886.47,-310.954 1889.05,-317.46"/>
</g>
<!-- Node5 -->
<g id="node5" class="node"><title>Node5</title>
<g id="a_node5"><a xlink:href="key_8h.html" target="_top" xlink:title="key.h">
<polygon fill="white" stroke="black" points="1420.5,-235.5 1420.5,-254.5 1460.5,-254.5 1460.5,-235.5 1420.5,-235.5"/>
<text text-anchor="middle" x="1440.5" y="-242.5" font-family="Helvetica,sans-Serif" font-size="10.00">key.h</text>
</a>
</g>
</g>
<!-- Node4&#45;&gt;Node5 -->
<g id="edge4" class="edge"><title>Node4&#45;&gt;Node5</title>
<path fill="none" stroke="midnightblue" d="M1266.3,-293.27C1302.93,-283.33 1371.4,-264.752 1410.7,-254.086"/>
<polygon fill="midnightblue" stroke="midnightblue" points="1411.76,-257.425 1420.5,-251.428 1409.93,-250.669 1411.76,-257.425"/>
</g>
<!-- Node8 -->
<g id="node8" class="node"><title>Node8</title>
<polygon fill="white" stroke="#bfbfbf" points="1069,-0.5 1069,-19.5 1110,-19.5 1110,-0.5 1069,-0.5"/>
<text text-anchor="middle" x="1089.5" y="-7.5" font-family="Helvetica,sans-Serif" font-size="10.00">string</text>
</g>
<!-- Node4&#45;&gt;Node8 -->
<g id="edge68" class="edge"><title>Node4&#45;&gt;Node8</title>
<path fill="none" stroke="midnightblue" d="M1216.89,-300.236C1052.96,-301.494 125.5,-303.589 125.5,-190 125.5,-190 125.5,-190 125.5,-132 125.5,-93.6205 134.032,-76.4644 166.5,-56 243.375,-7.54675 907.112,-9.6108 1058.74,-10.7262"/>
<polygon fill="midnightblue" stroke="midnightblue" points="1058.73,-14.2261 1068.76,-10.8041 1058.79,-7.22632 1058.73,-14.2261"/>
</g>
<!-- Node4&#45;&gt;Node20 -->
<g id="edge67" class="edge"><title>Node4&#45;&gt;Node20</title>
<path fill="none" stroke="midnightblue" d="M1266.32,-295.983C1308.41,-288.973 1396.35,-273.48 1469.5,-255 1632.78,-213.749 1670.85,-193.554 1831.5,-143 1909.4,-118.487 1929.97,-115.493 2006.5,-87 2008.15,-86.3843 2009.84,-85.7335 2011.55,-85.0623"/>
<polygon fill="midnightblue" stroke="midnightblue" points="2013.29,-88.1317 2021.21,-81.0971 2010.63,-81.6558 2013.29,-88.1317"/>
</g>
<!-- Node22 -->
<g id="node22" class="node"><title>Node22</title>
<polygon fill="white" stroke="#bfbfbf" points="1277.5,-62 1277.5,-81 1321.5,-81 1321.5,-62 1277.5,-62"/>
<text text-anchor="middle" x="1299.5" y="-69" font-family="Helvetica,sans-Serif" font-size="10.00">vector</text>
</g>
<!-- Node4&#45;&gt;Node22 -->
<g id="edge69" class="edge"><title>Node4&#45;&gt;Node22</title>
<path fill="none" stroke="midnightblue" d="M1258.31,-291.484C1271.33,-283.873 1288.46,-271.394 1296.5,-255 1323.2,-200.553 1311.66,-125.527 1304.13,-91.1131"/>
<polygon fill="midnightblue" stroke="midnightblue" points="1307.47,-90.0312 1301.79,-81.0878 1300.65,-91.6215 1307.47,-90.0312"/>
</g>
<!-- Node30 -->
<g id="node30" class="node"><title>Node30</title>
<polygon fill="white" stroke="#bfbfbf" points="1002,-62 1002,-81 1061,-81 1061,-62 1002,-62"/>
<text text-anchor="middle" x="1031.5" y="-69" font-family="Helvetica,sans-Serif" font-size="10.00">stdexcept</text>
</g>
<!-- Node4&#45;&gt;Node30 -->
<g id="edge66" class="edge"><title>Node4&#45;&gt;Node30</title>
<path fill="none" stroke="midnightblue" d="M1229.36,-291.317C1217.63,-282.681 1199.6,-268.766 1185.5,-255 1155.44,-225.652 1076.45,-128.388 1044.85,-89.1383"/>
<polygon fill="midnightblue" stroke="midnightblue" points="1047.53,-86.8834 1038.53,-81.283 1042.07,-91.2696 1047.53,-86.8834"/>
</g>
<!-- Node31 -->
<g id="node31" class="node"><title>Node31</title>
<g id="a_node31"><a xlink:href="util_8h.html" target="_top" xlink:title="util.h">
<polygon fill="white" stroke="black" points="742.5,-179.5 742.5,-198.5 780.5,-198.5 780.5,-179.5 742.5,-179.5"/>
<text text-anchor="middle" x="761.5" y="-186.5" font-family="Helvetica,sans-Serif" font-size="10.00">util.h</text>
</a>
</g>
</g>
<!-- Node4&#45;&gt;Node31 -->
<g id="edge42" class="edge"><title>Node4&#45;&gt;Node31</title>
<path fill="none" stroke="midnightblue" d="M1216.7,-294.318C1135.53,-275.714 877.936,-216.683 790.706,-196.693"/>
<polygon fill="midnightblue" stroke="midnightblue" points="791.234,-193.223 780.705,-194.401 789.67,-200.047 791.234,-193.223"/>
</g>
<!-- Node4&#45;&gt;Node47 -->
<g id="edge70" class="edge"><title>Node4&#45;&gt;Node47</title>
<path fill="none" stroke="midnightblue" d="M1216.79,-299.949C1095.74,-299.506 553.39,-295.256 111.5,-255 110.2,-254.882 108.886,-254.755 107.562,-254.621"/>
<polygon fill="midnightblue" stroke="midnightblue" points="107.609,-251.104 97.2813,-253.47 106.83,-258.061 107.609,-251.104"/>
</g>
<!-- Node48 -->
<g id="node48" class="node"><title>Node48</title>
<polygon fill="white" stroke="#bfbfbf" points="1195,-235.5 1195,-254.5 1288,-254.5 1288,-235.5 1195,-235.5"/>
<text text-anchor="middle" x="1241.5" y="-242.5" font-family="Helvetica,sans-Serif" font-size="10.00">boost/variant.hpp</text>
</g>
<!-- Node4&#45;&gt;Node48 -->
<g id="edge71" class="edge"><title>Node4&#45;&gt;Node48</title>
<path fill="none" stroke="midnightblue" d="M1241.5,-291.083C1241.5,-284.006 1241.5,-273.861 1241.5,-264.986"/>
<polygon fill="midnightblue" stroke="midnightblue" points="1245,-264.751 1241.5,-254.751 1238,-264.751 1245,-264.751"/>
</g>
<!-- Node6 -->
<g id="node6" class="node"><title>Node6</title>
<g id="a_node6"><a xlink:href="allocators_8h.html" target="_top" xlink:title="allocators.h">
<polygon fill="white" stroke="black" points="1929.5,-62 1929.5,-81 1997.5,-81 1997.5,-62 1929.5,-62"/>
<text text-anchor="middle" x="1963.5" y="-69" font-family="Helvetica,sans-Serif" font-size="10.00">allocators.h</text>
</a>
</g>
</g>
<!-- Node5&#45;&gt;Node6 -->
<g id="edge5" class="edge"><title>Node5&#45;&gt;Node6</title>
<path fill="none" stroke="midnightblue" d="M1460.53,-238.716C1491.2,-230.561 1551.61,-214.25 1602.5,-199 1680.32,-175.679 1699.8,-169.782 1776.5,-143 1831.59,-123.763 1895.01,-99.3729 1932.03,-84.9041"/>
<polygon fill="midnightblue" stroke="midnightblue" points="1933.71,-88.0052 1941.75,-81.0988 1931.16,-81.4875 1933.71,-88.0052"/>
</g>
<!-- Node13 -->
<g id="node13" class="node"><title>Node13</title>
<g id="a_node13"><a xlink:href="hash_8h.html" target="_top" xlink:title="hash.h">
<polygon fill="white" stroke="black" points="1428,-179.5 1428,-198.5 1475,-198.5 1475,-179.5 1428,-179.5"/>
<text text-anchor="middle" x="1451.5" y="-186.5" font-family="Helvetica,sans-Serif" font-size="10.00">hash.h</text>
</a>
</g>
</g>
<!-- Node5&#45;&gt;Node13 -->
<g id="edge12" class="edge"><title>Node5&#45;&gt;Node13</title>
<path fill="none" stroke="midnightblue" d="M1442.32,-235.083C1443.77,-227.927 1445.87,-217.635 1447.69,-208.691"/>
<polygon fill="midnightblue" stroke="midnightblue" points="1451.15,-209.248 1449.72,-198.751 1444.29,-207.851 1451.15,-209.248"/>
</g>
<!-- Node5&#45;&gt;Node14 -->
<g id="edge38" class="edge"><title>Node5&#45;&gt;Node14</title>
<path fill="none" stroke="midnightblue" d="M1460.85,-236.439C1511.33,-217.68 1642.66,-168.871 1704.03,-146.068"/>
<polygon fill="midnightblue" stroke="midnightblue" points="1705.44,-149.276 1713.6,-142.511 1703,-142.714 1705.44,-149.276"/>
</g>
<!-- Node5&#45;&gt;Node22 -->
<g id="edge41" class="edge"><title>Node5&#45;&gt;Node22</title>
<path fill="none" stroke="midnightblue" d="M1433.31,-235.26C1410.96,-208.076 1342.42,-124.708 1313.07,-89.0059"/>
<polygon fill="midnightblue" stroke="midnightblue" points="1315.56,-86.5211 1306.5,-81.0194 1310.15,-90.9667 1315.56,-86.5211"/>
</g>
<!-- Node5&#45;&gt;Node25 -->
<g id="edge39" class="edge"><title>Node5&#45;&gt;Node25</title>
<path fill="none" stroke="midnightblue" d="M1426.45,-235.368C1395.61,-216.412 1321.71,-171.001 1284.19,-147.942"/>
<polygon fill="midnightblue" stroke="midnightblue" points="1285.83,-144.845 1275.48,-142.591 1282.17,-150.809 1285.83,-144.845"/>
</g>
<!-- Node5&#45;&gt;Node30 -->
<g id="edge40" class="edge"><title>Node5&#45;&gt;Node30</title>
<path fill="none" stroke="midnightblue" d="M1420.22,-236.152C1398.18,-227.504 1362.03,-212.963 1331.5,-199 1297.34,-183.377 1215.15,-137.509 1180.5,-123 1143.83,-107.646 1100.69,-93.4273 1070.3,-84.0158"/>
<polygon fill="midnightblue" stroke="midnightblue" points="1071.09,-80.5986 1060.51,-81.0137 1069.04,-87.2912 1071.09,-80.5986"/>
</g>
<!-- Node7 -->
<g id="node7" class="node"><title>Node7</title>
<polygon fill="white" stroke="#bfbfbf" points="1369.5,-0.5 1369.5,-19.5 1405.5,-19.5 1405.5,-0.5 1369.5,-0.5"/>
<text text-anchor="middle" x="1387.5" y="-7.5" font-family="Helvetica,sans-Serif" font-size="10.00">map</text>
</g>
<!-- Node6&#45;&gt;Node7 -->
<g id="edge6" class="edge"><title>Node6&#45;&gt;Node7</title>
<path fill="none" stroke="midnightblue" d="M1940.94,-61.9426C1934.14,-59.6697 1926.59,-57.4478 1919.5,-56 1821.56,-36.0074 1511.01,-17.76 1415.64,-12.5089"/>
<polygon fill="midnightblue" stroke="midnightblue" points="1415.77,-9.01098 1405.59,-11.9603 1415.39,-16.0006 1415.77,-9.01098"/>
</g>
<!-- Node6&#45;&gt;Node8 -->
<g id="edge7" class="edge"><title>Node6&#45;&gt;Node8</title>
<path fill="none" stroke="midnightblue" d="M1941.42,-61.9591C1934.5,-59.6283 1926.77,-57.3702 1919.5,-56 1839.86,-40.9921 1260.84,-17.6714 1120.21,-12.1842"/>
<polygon fill="midnightblue" stroke="midnightblue" points="1120.26,-8.6835 1110.13,-11.7922 1119.99,-15.6782 1120.26,-8.6835"/>
</g>
<!-- Node9 -->
<g id="node9" class="node"><title>Node9</title>
<polygon fill="white" stroke="#bfbfbf" points="1625,-0.5 1625,-19.5 1674,-19.5 1674,-0.5 1625,-0.5"/>
<text text-anchor="middle" x="1649.5" y="-7.5" font-family="Helvetica,sans-Serif" font-size="10.00">string.h</text>
</g>
<!-- Node6&#45;&gt;Node9 -->
<g id="edge8" class="edge"><title>Node6&#45;&gt;Node9</title>
<path fill="none" stroke="midnightblue" d="M1939.49,-61.8493C1933.05,-59.7345 1926.06,-57.6174 1919.5,-56 1836.19,-35.4586 1736.08,-21.5074 1684.32,-15.0688"/>
<polygon fill="midnightblue" stroke="midnightblue" points="1684.68,-11.5871 1674.33,-13.8453 1683.83,-18.5351 1684.68,-11.5871"/>
</g>
<!-- Node10 -->
<g id="node10" class="node"><title>Node10</title>
<polygon fill="white" stroke="#bfbfbf" points="1765.5,-0.5 1765.5,-19.5 1887.5,-19.5 1887.5,-0.5 1765.5,-0.5"/>
<text text-anchor="middle" x="1826.5" y="-7.5" font-family="Helvetica,sans-Serif" font-size="10.00">boost/thread/mutex.hpp</text>
</g>
<!-- Node6&#45;&gt;Node10 -->
<g id="edge9" class="edge"><title>Node6&#45;&gt;Node10</title>
<path fill="none" stroke="midnightblue" d="M1943.87,-61.9751C1920.68,-51.9013 1881.88,-35.0525 1855.29,-23.5023"/>
<polygon fill="midnightblue" stroke="midnightblue" points="1856.66,-20.2824 1846.09,-19.5091 1853.87,-26.703 1856.66,-20.2824"/>
</g>
<!-- Node11 -->
<g id="node11" class="node"><title>Node11</title>
<polygon fill="white" stroke="#bfbfbf" points="1905.5,-0.5 1905.5,-19.5 2021.5,-19.5 2021.5,-0.5 1905.5,-0.5"/>
<text text-anchor="middle" x="1963.5" y="-7.5" font-family="Helvetica,sans-Serif" font-size="10.00">boost/thread/once.hpp</text>
</g>
<!-- Node6&#45;&gt;Node11 -->
<g id="edge10" class="edge"><title>Node6&#45;&gt;Node11</title>
<path fill="none" stroke="midnightblue" d="M1963.5,-61.9751C1963.5,-53.5803 1963.5,-40.4806 1963.5,-29.6631"/>
<polygon fill="midnightblue" stroke="midnightblue" points="1967,-29.5091 1963.5,-19.5091 1960,-29.5091 1967,-29.5091"/>
</g>
<!-- Node12 -->
<g id="node12" class="node"><title>Node12</title>
<polygon fill="white" stroke="#bfbfbf" points="2040,-0.5 2040,-19.5 2129,-19.5 2129,-0.5 2040,-0.5"/>
<text text-anchor="middle" x="2084.5" y="-7.5" font-family="Helvetica,sans-Serif" font-size="10.00">openssl/crypto.h</text>
</g>
<!-- Node6&#45;&gt;Node12 -->
<g id="edge11" class="edge"><title>Node6&#45;&gt;Node12</title>
<path fill="none" stroke="midnightblue" d="M1980.84,-61.9751C2001.05,-52.0338 2034.69,-35.4947 2058.14,-23.961"/>
<polygon fill="midnightblue" stroke="midnightblue" points="2059.77,-27.0627 2067.2,-19.5091 2056.68,-20.781 2059.77,-27.0627"/>
</g>
<!-- Node13&#45;&gt;Node14 -->
<g id="edge13" class="edge"><title>Node13&#45;&gt;Node14</title>
<path fill="none" stroke="midnightblue" d="M1475.21,-183.967C1517.4,-176.723 1608.48,-160.772 1695.09,-143.228"/>
<polygon fill="midnightblue" stroke="midnightblue" points="1695.98,-146.618 1705.08,-141.193 1694.59,-139.759 1695.98,-146.618"/>
</g>
<!-- Node13&#45;&gt;Node22 -->
<g id="edge35" class="edge"><title>Node13&#45;&gt;Node22</title>
<path fill="none" stroke="midnightblue" d="M1441.17,-179.39C1425.92,-166.755 1396.39,-142.57 1370.5,-123 1353.97,-110.505 1334.8,-96.9215 1320.55,-86.9927"/>
<polygon fill="midnightblue" stroke="midnightblue" points="1322.18,-83.8669 1311.97,-81.044 1318.19,-89.6189 1322.18,-83.8669"/>
</g>
<!-- Node13&#45;&gt;Node25 -->
<g id="edge28" class="edge"><title>Node13&#45;&gt;Node25</title>
<path fill="none" stroke="midnightblue" d="M1427.82,-181.27C1395.95,-172.212 1338.84,-155.982 1300.56,-145.102"/>
<polygon fill="midnightblue" stroke="midnightblue" points="1301.36,-141.689 1290.78,-142.322 1299.44,-148.423 1301.36,-141.689"/>
</g>
<!-- Node27 -->
<g id="node27" class="node"><title>Node27</title>
<g id="a_node27"><a xlink:href="version_8h.html" target="_top" xlink:title="version.h">
<polygon fill="white" stroke="black" points="1423,-123.5 1423,-142.5 1480,-142.5 1480,-123.5 1423,-123.5"/>
<text text-anchor="middle" x="1451.5" y="-130.5" font-family="Helvetica,sans-Serif" font-size="10.00">version.h</text>
</a>
</g>
</g>
<!-- Node13&#45;&gt;Node27 -->
<g id="edge34" class="edge"><title>Node13&#45;&gt;Node27</title>
<path fill="none" stroke="midnightblue" d="M1451.5,-179.083C1451.5,-172.006 1451.5,-161.861 1451.5,-152.986"/>
<polygon fill="midnightblue" stroke="midnightblue" points="1455,-152.751 1451.5,-142.751 1448,-152.751 1455,-152.751"/>
</g>
<!-- Node28 -->
<g id="node28" class="node"><title>Node28</title>
<polygon fill="white" stroke="#bfbfbf" points="1498,-123.5 1498,-142.5 1591,-142.5 1591,-123.5 1498,-123.5"/>
<text text-anchor="middle" x="1544.5" y="-130.5" font-family="Helvetica,sans-Serif" font-size="10.00">openssl/ripemd.h</text>
</g>
<!-- Node13&#45;&gt;Node28 -->
<g id="edge36" class="edge"><title>Node13&#45;&gt;Node28</title>
<path fill="none" stroke="midnightblue" d="M1466.44,-179.324C1481.09,-170.822 1503.63,-157.729 1520.74,-147.797"/>
<polygon fill="midnightblue" stroke="midnightblue" points="1522.7,-150.703 1529.6,-142.655 1519.19,-144.649 1522.7,-150.703"/>
</g>
<!-- Node29 -->
<g id="node29" class="node"><title>Node29</title>
<polygon fill="white" stroke="#bfbfbf" points="1609.5,-123.5 1609.5,-142.5 1687.5,-142.5 1687.5,-123.5 1609.5,-123.5"/>
<text text-anchor="middle" x="1648.5" y="-130.5" font-family="Helvetica,sans-Serif" font-size="10.00">openssl/sha.h</text>
</g>
<!-- Node13&#45;&gt;Node29 -->
<g id="edge37" class="edge"><title>Node13&#45;&gt;Node29</title>
<path fill="none" stroke="midnightblue" d="M1475.26,-181.486C1508,-172.513 1567.45,-156.216 1607.46,-145.249"/>
<polygon fill="midnightblue" stroke="midnightblue" points="1608.47,-148.603 1617.19,-142.584 1606.62,-141.852 1608.47,-148.603"/>
</g>
<!-- Node14&#45;&gt;Node6 -->
<g id="edge14" class="edge"><title>Node14&#45;&gt;Node6</title>
<path fill="none" stroke="midnightblue" d="M1767.78,-125.083C1804.37,-116.813 1866.67,-102.176 1919.5,-87 1922.5,-86.1395 1925.59,-85.2073 1928.69,-84.2448"/>
<polygon fill="midnightblue" stroke="midnightblue" points="1930.01,-87.4963 1938.47,-81.1179 1927.88,-80.8286 1930.01,-87.4963"/>
</g>
<!-- Node14&#45;&gt;Node7 -->
<g id="edge19" class="edge"><title>Node14&#45;&gt;Node7</title>
<path fill="none" stroke="midnightblue" d="M1705.12,-124.634C1702.21,-124.044 1699.31,-123.488 1696.5,-123 1632.52,-111.859 1455.12,-130.047 1406.5,-87 1390.46,-72.8005 1386.97,-47.306 1386.65,-29.7894"/>
<polygon fill="midnightblue" stroke="midnightblue" points="1390.15,-29.6807 1386.8,-19.6294 1383.15,-29.5759 1390.15,-29.6807"/>
</g>
<!-- Node14&#45;&gt;Node8 -->
<g id="edge22" class="edge"><title>Node14&#45;&gt;Node8</title>
<path fill="none" stroke="midnightblue" d="M1705.12,-124.61C1702.21,-124.025 1699.31,-123.477 1696.5,-123 1559.76,-99.744 1518.57,-129.391 1386.5,-87 1359.41,-78.3056 1357.27,-65.6234 1330.5,-56 1257.67,-29.8186 1166.71,-18.1269 1120.12,-13.5499"/>
<polygon fill="midnightblue" stroke="midnightblue" points="1120.36,-10.0566 1110.07,-12.6064 1119.7,-17.0259 1120.36,-10.0566"/>
</g>
<!-- Node14&#45;&gt;Node9 -->
<g id="edge23" class="edge"><title>Node14&#45;&gt;Node9</title>
<path fill="none" stroke="midnightblue" d="M1715.92,-123.408C1700.59,-115.97 1680.35,-103.759 1668.5,-87 1656.5,-70.0387 1652.06,-46.2603 1650.42,-29.8387"/>
<polygon fill="midnightblue" stroke="midnightblue" points="1653.91,-29.5343 1649.68,-19.8195 1646.93,-30.0503 1653.91,-29.5343"/>
</g>
<!-- Node15 -->
<g id="node15" class="node"><title>Node15</title>
<polygon fill="white" stroke="#bfbfbf" points="1795.5,-62 1795.5,-81 1853.5,-81 1853.5,-62 1795.5,-62"/>
<text text-anchor="middle" x="1824.5" y="-69" font-family="Helvetica,sans-Serif" font-size="10.00">algorithm</text>
</g>
<!-- Node14&#45;&gt;Node15 -->
<g id="edge15" class="edge"><title>Node14&#45;&gt;Node15</title>
<path fill="none" stroke="midnightblue" d="M1749.11,-123.475C1763.22,-113.931 1786.33,-98.3073 1803.25,-86.8683"/>
<polygon fill="midnightblue" stroke="midnightblue" points="1805.59,-89.5098 1811.92,-81.0091 1801.67,-83.7109 1805.59,-89.5098"/>
</g>
<!-- Node14&#45;&gt;Node16 -->
<g id="edge16" class="edge"><title>Node14&#45;&gt;Node16</title>
<path fill="none" stroke="midnightblue" d="M1767.67,-130.443C1827.74,-126.873 1963.34,-116.047 2073.5,-87 2076.01,-86.3386 2078.58,-85.5481 2081.13,-84.6825"/>
<polygon fill="midnightblue" stroke="midnightblue" points="2082.61,-87.8673 2090.74,-81.0845 2080.15,-81.3112 2082.61,-87.8673"/>
</g>
<!-- Node17 -->
<g id="node17" class="node"><title>Node17</title>
<polygon fill="white" stroke="#bfbfbf" points="1872,-62 1872,-81 1911,-81 1911,-62 1872,-62"/>
<text text-anchor="middle" x="1891.5" y="-69" font-family="Helvetica,sans-Serif" font-size="10.00">limits</text>
</g>
<!-- Node14&#45;&gt;Node17 -->
<g id="edge17" class="edge"><title>Node14&#45;&gt;Node17</title>
<path fill="none" stroke="midnightblue" d="M1763.41,-123.437C1789.17,-114.996 1828.96,-101.313 1862.5,-87 1863.66,-86.5029 1864.85,-85.9812 1866.04,-85.443"/>
<polygon fill="midnightblue" stroke="midnightblue" points="1867.57,-88.5891 1875.1,-81.1308 1864.57,-82.2686 1867.57,-88.5891"/>
</g>
<!-- Node18 -->
<g id="node18" class="node"><title>Node18</title>
<polygon fill="white" stroke="#bfbfbf" points="1416,-62 1416,-81 1445,-81 1445,-62 1416,-62"/>
<text text-anchor="middle" x="1430.5" y="-69" font-family="Helvetica,sans-Serif" font-size="10.00">ios</text>
</g>
<!-- Node14&#45;&gt;Node18 -->
<g id="edge18" class="edge"><title>Node14&#45;&gt;Node18</title>
<path fill="none" stroke="midnightblue" d="M1705.1,-124.706C1702.2,-124.101 1699.3,-123.522 1696.5,-123 1589.61,-103.052 1556.81,-123.834 1454.5,-87 1453.62,-86.6826 1452.73,-86.3309 1451.85,-85.9519"/>
<polygon fill="midnightblue" stroke="midnightblue" points="1453.21,-82.7149 1442.73,-81.163 1449.96,-88.9119 1453.21,-82.7149"/>
</g>
<!-- Node19 -->
<g id="node19" class="node"><title>Node19</title>
<polygon fill="white" stroke="#bfbfbf" points="1463.5,-62 1463.5,-81 1493.5,-81 1493.5,-62 1463.5,-62"/>
<text text-anchor="middle" x="1478.5" y="-69" font-family="Helvetica,sans-Serif" font-size="10.00">set</text>
</g>
<!-- Node14&#45;&gt;Node19 -->
<g id="edge20" class="edge"><title>Node14&#45;&gt;Node19</title>
<path fill="none" stroke="midnightblue" d="M1705.08,-124.813C1702.18,-124.186 1699.29,-123.572 1696.5,-123 1610.6,-105.372 1584.46,-118.178 1502.5,-87 1501.62,-86.6668 1500.74,-86.3018 1499.87,-85.9115"/>
<polygon fill="midnightblue" stroke="midnightblue" points="1501.24,-82.6784 1490.77,-81.07 1497.95,-88.8578 1501.24,-82.6784"/>
</g>
<!-- Node14&#45;&gt;Node20 -->
<g id="edge21" class="edge"><title>Node14&#45;&gt;Node20</title>
<path fill="none" stroke="midnightblue" d="M1767.61,-127.765C1828.65,-119.299 1962.02,-99.9884 2006.5,-87 2008.65,-86.3715 2010.85,-85.6445 2013.04,-84.8576"/>
<polygon fill="midnightblue" stroke="midnightblue" points="2014.43,-88.0734 2022.44,-81.1437 2011.85,-81.5631 2014.43,-88.0734"/>
</g>
<!-- Node21 -->
<g id="node21" class="node"><title>Node21</title>
<polygon fill="white" stroke="#bfbfbf" points="1118,-62 1118,-81 1157,-81 1157,-62 1118,-62"/>
<text text-anchor="middle" x="1137.5" y="-69" font-family="Helvetica,sans-Serif" font-size="10.00">utility</text>
</g>
<!-- Node14&#45;&gt;Node21 -->
<g id="edge24" class="edge"><title>Node14&#45;&gt;Node21</title>
<path fill="none" stroke="midnightblue" d="M1705.14,-124.467C1702.23,-123.912 1699.32,-123.41 1696.5,-123 1462.86,-88.9866 1394.31,-149.004 1166.5,-87 1164.78,-86.5325 1163.05,-85.9592 1161.32,-85.3134"/>
<polygon fill="midnightblue" stroke="midnightblue" points="1162.36,-81.9435 1151.8,-81.0535 1159.5,-88.3329 1162.36,-81.9435"/>
</g>
<!-- Node14&#45;&gt;Node22 -->
<g id="edge25" class="edge"><title>Node14&#45;&gt;Node22</title>
<path fill="none" stroke="midnightblue" d="M1705.13,-124.561C1702.22,-123.987 1699.31,-123.455 1696.5,-123 1537.33,-97.2551 1492.07,-125.507 1335.5,-87 1332.83,-86.3438 1330.1,-85.5287 1327.39,-84.6219"/>
<polygon fill="midnightblue" stroke="midnightblue" points="1328.44,-81.2787 1317.85,-81.0569 1325.99,-87.8359 1328.44,-81.2787"/>
</g>
<!-- Node23 -->
<g id="node23" class="node"><title>Node23</title>
<polygon fill="white" stroke="#bfbfbf" points="1512,-62 1512,-81 1621,-81 1621,-62 1512,-62"/>
<text text-anchor="middle" x="1566.5" y="-69" font-family="Helvetica,sans-Serif" font-size="10.00">boost/tuple/tuple.hpp</text>
</g>
<!-- Node14&#45;&gt;Node23 -->
<g id="edge26" class="edge"><title>Node14&#45;&gt;Node23</title>
<path fill="none" stroke="midnightblue" d="M1712.14,-123.475C1682.86,-113.225 1633.53,-95.9593 1600.5,-84.3994"/>
<polygon fill="midnightblue" stroke="midnightblue" points="1601.41,-81.0091 1590.81,-81.0091 1599.09,-87.6162 1601.41,-81.0091"/>
</g>
<!-- Node24 -->
<g id="node24" class="node"><title>Node24</title>
<polygon fill="white" stroke="#bfbfbf" points="1677.5,-56.5 1677.5,-86.5 1777.5,-86.5 1777.5,-56.5 1677.5,-56.5"/>
<text text-anchor="start" x="1685.5" y="-74.5" font-family="Helvetica,sans-Serif" font-size="10.00">boost/type_traits/is</text>
<text text-anchor="middle" x="1727.5" y="-63.5" font-family="Helvetica,sans-Serif" font-size="10.00">_fundamental.hpp</text>
</g>
<!-- Node14&#45;&gt;Node24 -->
<g id="edge27" class="edge"><title>Node14&#45;&gt;Node24</title>
<path fill="none" stroke="midnightblue" d="M1735.21,-123.475C1734.15,-116.471 1732.6,-106.192 1731.16,-96.6956"/>
<polygon fill="midnightblue" stroke="midnightblue" points="1734.58,-95.887 1729.62,-86.523 1727.66,-96.934 1734.58,-95.887"/>
</g>
<!-- Node25&#45;&gt;Node8 -->
<g id="edge31" class="edge"><title>Node25&#45;&gt;Node8</title>
<path fill="none" stroke="midnightblue" d="M1232.38,-125.088C1190.47,-114.895 1117.2,-96.0641 1108.5,-87 1093.89,-71.7723 1090.01,-47.0782 1089.22,-29.9907"/>
<polygon fill="midnightblue" stroke="midnightblue" points="1092.71,-29.5359 1089.07,-19.5859 1085.71,-29.634 1092.71,-29.5359"/>
</g>
<!-- Node25&#45;&gt;Node9 -->
<g id="edge32" class="edge"><title>Node25&#45;&gt;Node9</title>
<path fill="none" stroke="midnightblue" d="M1259.21,-123.295C1255.63,-107.51 1250.84,-74.1241 1268.5,-56 1292.48,-31.3919 1525.37,-17.2161 1614.79,-12.6439"/>
<polygon fill="midnightblue" stroke="midnightblue" points="1615.14,-16.1305 1624.96,-12.1339 1614.79,-9.13932 1615.14,-16.1305"/>
</g>
<!-- Node25&#45;&gt;Node20 -->
<g id="edge29" class="edge"><title>Node25&#45;&gt;Node20</title>
<path fill="none" stroke="midnightblue" d="M1290.52,-130.281C1427.39,-122.166 2002.06,-88.0485 2006.5,-87 2009.01,-86.4068 2011.58,-85.6417 2014.11,-84.7734"/>
<polygon fill="midnightblue" stroke="midnightblue" points="2015.56,-87.9665 2023.59,-81.0586 2013,-81.4492 2015.56,-87.9665"/>
</g>
<!-- Node25&#45;&gt;Node22 -->
<g id="edge33" class="edge"><title>Node25&#45;&gt;Node22</title>
<path fill="none" stroke="midnightblue" d="M1266.94,-123.475C1272.59,-114.638 1281.56,-100.589 1288.66,-89.475"/>
<polygon fill="midnightblue" stroke="midnightblue" points="1291.63,-91.3208 1294.07,-81.0091 1285.73,-87.5531 1291.63,-91.3208"/>
</g>
<!-- Node26 -->
<g id="node26" class="node"><title>Node26</title>
<polygon fill="white" stroke="#bfbfbf" points="1175.5,-62 1175.5,-81 1221.5,-81 1221.5,-62 1175.5,-62"/>
<text text-anchor="middle" x="1198.5" y="-69" font-family="Helvetica,sans-Serif" font-size="10.00">stdio.h</text>
</g>
<!-- Node25&#45;&gt;Node26 -->
<g id="edge30" class="edge"><title>Node25&#45;&gt;Node26</title>
<path fill="none" stroke="midnightblue" d="M1252.47,-123.475C1242.74,-114.285 1227.04,-99.4563 1215.08,-88.156"/>
<polygon fill="midnightblue" stroke="midnightblue" points="1217.18,-85.3308 1207.51,-81.0091 1212.38,-90.4199 1217.18,-85.3308"/>
</g>
<!-- Node31&#45;&gt;Node7 -->
<g id="edge55" class="edge"><title>Node31&#45;&gt;Node7</title>
<path fill="none" stroke="midnightblue" d="M780.599,-188.21C816.605,-187.642 895.399,-181.697 945.5,-143 980.282,-116.135 956.091,-80.6138 992.5,-56 1052.3,-15.5737 1278.07,-11.1673 1358.68,-10.9081"/>
<polygon fill="midnightblue" stroke="midnightblue" points="1359.06,-14.4077 1369.06,-10.8957 1359.05,-7.40775 1359.06,-14.4077"/>
</g>
<!-- Node31&#45;&gt;Node8 -->
<g id="edge58" class="edge"><title>Node31&#45;&gt;Node8</title>
<path fill="none" stroke="midnightblue" d="M742.337,-187.573C649.95,-185.364 253.15,-174.118 208.5,-143 175.391,-119.925 154.68,-85.2348 182.5,-56 213.346,-23.5855 902.942,-13.271 1058.51,-11.3527"/>
<polygon fill="midnightblue" stroke="midnightblue" points="1058.82,-14.8494 1068.77,-11.2289 1058.73,-7.84986 1058.82,-14.8494"/>
</g>
<!-- Node31&#45;&gt;Node14 -->
<g id="edge50" class="edge"><title>Node31&#45;&gt;Node14</title>
<path fill="none" stroke="midnightblue" d="M780.704,-188.306C877.63,-189.595 1322.79,-192.49 1694.99,-142.96"/>
<polygon fill="midnightblue" stroke="midnightblue" points="1695.71,-146.396 1705.15,-141.593 1694.77,-139.458 1695.71,-146.396"/>
</g>
<!-- Node31&#45;&gt;Node20 -->
<g id="edge57" class="edge"><title>Node31&#45;&gt;Node20</title>
<path fill="none" stroke="midnightblue" d="M780.852,-187.665C903.477,-185.461 1573.77,-172.229 1776.5,-143 1813.2,-137.709 1821.48,-131.799 1857.5,-123 1923.68,-106.834 1941.83,-108.437 2006.5,-87 2008.42,-86.364 2010.38,-85.6649 2012.34,-84.928"/>
<polygon fill="midnightblue" stroke="midnightblue" points="2014.04,-88.0206 2022.01,-81.0441 2011.42,-81.5255 2014.04,-88.0206"/>
</g>
<!-- Node31&#45;&gt;Node21 -->
<g id="edge59" class="edge"><title>Node31&#45;&gt;Node21</title>
<path fill="none" stroke="midnightblue" d="M780.803,-186.838C840.206,-183.006 1019.35,-169.482 1070.5,-143 1094.54,-130.555 1114.74,-106.05 1126.49,-89.4694"/>
<polygon fill="midnightblue" stroke="midnightblue" points="1129.39,-91.4371 1132.12,-81.2004 1123.6,-87.4993 1129.39,-91.4371"/>
</g>
<!-- Node31&#45;&gt;Node22 -->
<g id="edge60" class="edge"><title>Node31&#45;&gt;Node22</title>
<path fill="none" stroke="midnightblue" d="M780.693,-186.796C832.454,-183.257 979.005,-171.303 1097.5,-143 1160.18,-128.028 1230.68,-100.969 1269.61,-85.0826"/>
<polygon fill="midnightblue" stroke="midnightblue" points="1271.35,-88.1519 1279.26,-81.1079 1268.69,-81.6792 1271.35,-88.1519"/>
</g>
<!-- Node32 -->
<g id="node32" class="node"><title>Node32</title>
<g id="a_node32"><a xlink:href="compat_8h.html" target="_top" xlink:title="compat.h">
<polygon fill="white" stroke="red" points="368.5,-123.5 368.5,-142.5 426.5,-142.5 426.5,-123.5 368.5,-123.5"/>
<text text-anchor="middle" x="397.5" y="-130.5" font-family="Helvetica,sans-Serif" font-size="10.00">compat.h</text>
</a>
</g>
</g>
<!-- Node31&#45;&gt;Node32 -->
<g id="edge43" class="edge"><title>Node31&#45;&gt;Node32</title>
<path fill="none" stroke="midnightblue" d="M742.29,-185.997C693.115,-180.732 558.542,-165.468 436.763,-143.089"/>
<polygon fill="midnightblue" stroke="midnightblue" points="437.371,-139.642 426.899,-141.255 436.091,-146.524 437.371,-139.642"/>
</g>
<!-- Node36 -->
<g id="node36" class="node"><title>Node36</title>
<polygon fill="white" stroke="#bfbfbf" points="192,-62 192,-81 259,-81 259,-62 192,-62"/>
<text text-anchor="middle" x="225.5" y="-69" font-family="Helvetica,sans-Serif" font-size="10.00">sys/types.h</text>
</g>
<!-- Node31&#45;&gt;Node36 -->
<g id="edge63" class="edge"><title>Node31&#45;&gt;Node36</title>
<path fill="none" stroke="midnightblue" d="M742.438,-187.905C650.584,-187.255 256.559,-182.183 220.5,-143 207.808,-129.208 212.042,-106.775 217.522,-90.9232"/>
<polygon fill="midnightblue" stroke="midnightblue" points="220.947,-91.7754 221.323,-81.1872 214.426,-89.2301 220.947,-91.7754"/>
</g>
<!-- Node39 -->
<g id="node39" class="node"><title>Node39</title>
<g id="a_node39"><a xlink:href="tinyformat_8h.html" target="_top" xlink:title="tinyformat.h">
<polygon fill="white" stroke="red" points="993,-123.5 993,-142.5 1062,-142.5 1062,-123.5 993,-123.5"/>
<text text-anchor="middle" x="1027.5" y="-130.5" font-family="Helvetica,sans-Serif" font-size="10.00">tinyformat.h</text>
</a>
</g>
</g>
<!-- Node31&#45;&gt;Node39 -->
<g id="edge51" class="edge"><title>Node31&#45;&gt;Node39</title>
<path fill="none" stroke="midnightblue" d="M780.63,-184.116C822.547,-175.607 923.449,-155.123 982.463,-143.143"/>
<polygon fill="midnightblue" stroke="midnightblue" points="983.515,-146.501 992.618,-141.081 982.122,-139.641 983.515,-146.501"/>
</g>
<!-- Node40 -->
<g id="node40" class="node"><title>Node40</title>
<polygon fill="white" stroke="#bfbfbf" points="230,-123.5 230,-142.5 273,-142.5 273,-123.5 230,-123.5"/>
<text text-anchor="middle" x="251.5" y="-130.5" font-family="Helvetica,sans-Serif" font-size="10.00">cstdio</text>
</g>
<!-- Node31&#45;&gt;Node40 -->
<g id="edge53" class="edge"><title>Node31&#45;&gt;Node40</title>
<path fill="none" stroke="midnightblue" d="M742.099,-187.556C677.821,-185.798 465.975,-177.721 283.068,-142.953"/>
<polygon fill="midnightblue" stroke="midnightblue" points="283.485,-139.469 273.002,-141.006 282.156,-146.341 283.485,-139.469"/>
</g>
<!-- Node41 -->
<g id="node41" class="node"><title>Node41</title>
<polygon fill="white" stroke="#bfbfbf" points="291,-123.5 291,-142.5 350,-142.5 350,-123.5 291,-123.5"/>
<text text-anchor="middle" x="320.5" y="-130.5" font-family="Helvetica,sans-Serif" font-size="10.00">exception</text>
</g>
<!-- Node31&#45;&gt;Node41 -->
<g id="edge54" class="edge"><title>Node31&#45;&gt;Node41</title>
<path fill="none" stroke="midnightblue" d="M742.143,-186.63C685.195,-182.432 513.175,-168.557 360.281,-142.939"/>
<polygon fill="midnightblue" stroke="midnightblue" points="360.684,-139.458 350.239,-141.235 359.512,-146.359 360.684,-139.458"/>
</g>
<!-- Node42 -->
<g id="node42" class="node"><title>Node42</title>
<polygon fill="white" stroke="#bfbfbf" points="445,-123.5 445,-142.5 498,-142.5 498,-123.5 445,-123.5"/>
<text text-anchor="middle" x="471.5" y="-130.5" font-family="Helvetica,sans-Serif" font-size="10.00">stdarg.h</text>
</g>
<!-- Node31&#45;&gt;Node42 -->
<g id="edge56" class="edge"><title>Node31&#45;&gt;Node42</title>
<path fill="none" stroke="midnightblue" d="M742.294,-185.066C701.248,-178.697 601.773,-162.734 508.108,-143.001"/>
<polygon fill="midnightblue" stroke="midnightblue" points="508.697,-139.548 498.188,-140.892 507.242,-146.395 508.697,-139.548"/>
</g>
<!-- Node43 -->
<g id="node43" class="node"><title>Node43</title>
<polygon fill="white" stroke="#bfbfbf" points="516.5,-123.5 516.5,-142.5 598.5,-142.5 598.5,-123.5 516.5,-123.5"/>
<text text-anchor="middle" x="557.5" y="-130.5" font-family="Helvetica,sans-Serif" font-size="10.00">sys/resource.h</text>
</g>
<!-- Node31&#45;&gt;Node43 -->
<g id="edge61" class="edge"><title>Node31&#45;&gt;Node43</title>
<path fill="none" stroke="midnightblue" d="M742.308,-182.92C709.826,-174.322 643.287,-156.708 599.548,-145.13"/>
<polygon fill="midnightblue" stroke="midnightblue" points="600.332,-141.717 589.769,-142.542 598.54,-148.484 600.332,-141.717"/>
</g>
<!-- Node44 -->
<g id="node44" class="node"><title>Node44</title>
<polygon fill="white" stroke="#bfbfbf" points="616.5,-123.5 616.5,-142.5 678.5,-142.5 678.5,-123.5 616.5,-123.5"/>
<text text-anchor="middle" x="647.5" y="-130.5" font-family="Helvetica,sans-Serif" font-size="10.00">sys/time.h</text>
</g>
<!-- Node31&#45;&gt;Node44 -->
<g id="edge62" class="edge"><title>Node31&#45;&gt;Node44</title>
<path fill="none" stroke="midnightblue" d="M743.436,-179.444C724.925,-170.675 695.919,-156.935 674.645,-146.858"/>
<polygon fill="midnightblue" stroke="midnightblue" points="676.015,-143.634 665.479,-142.516 673.018,-149.96 676.015,-143.634"/>
</g>
<!-- Node45 -->
<g id="node45" class="node"><title>Node45</title>
<polygon fill="white" stroke="#bfbfbf" points="696.5,-123.5 696.5,-142.5 826.5,-142.5 826.5,-123.5 696.5,-123.5"/>
<text text-anchor="middle" x="761.5" y="-130.5" font-family="Helvetica,sans-Serif" font-size="10.00">boost/filesystem/path.hpp</text>
</g>
<!-- Node31&#45;&gt;Node45 -->
<g id="edge64" class="edge"><title>Node31&#45;&gt;Node45</title>
<path fill="none" stroke="midnightblue" d="M761.5,-179.083C761.5,-172.006 761.5,-161.861 761.5,-152.986"/>
<polygon fill="midnightblue" stroke="midnightblue" points="765,-152.751 761.5,-142.751 758,-152.751 765,-152.751"/>
</g>
<!-- Node46 -->
<g id="node46" class="node"><title>Node46</title>
<polygon fill="white" stroke="#bfbfbf" points="844.5,-123.5 844.5,-142.5 936.5,-142.5 936.5,-123.5 844.5,-123.5"/>
<text text-anchor="middle" x="890.5" y="-130.5" font-family="Helvetica,sans-Serif" font-size="10.00">boost/thread.hpp</text>
</g>
<!-- Node31&#45;&gt;Node46 -->
<g id="edge65" class="edge"><title>Node31&#45;&gt;Node46</title>
<path fill="none" stroke="midnightblue" d="M780.534,-180.032C801.695,-171.174 836.138,-156.756 860.84,-146.416"/>
<polygon fill="midnightblue" stroke="midnightblue" points="862.236,-149.626 870.109,-142.536 859.533,-143.169 862.236,-149.626"/>
</g>
<!-- Node33 -->
<g id="node33" class="node"><title>Node33</title>
<polygon fill="white" stroke="#bfbfbf" points="516,-62 516,-81 577,-81 577,-62 516,-62"/>
<text text-anchor="middle" x="546.5" y="-69" font-family="Helvetica,sans-Serif" font-size="10.00">sys/fcntl.h</text>
</g>
<!-- Node32&#45;&gt;Node33 -->
<g id="edge44" class="edge"><title>Node32&#45;&gt;Node33</title>
<path fill="none" stroke="midnightblue" d="M418.848,-123.475C444.186,-113.357 486.638,-96.4046 515.571,-84.8507"/>
<polygon fill="midnightblue" stroke="midnightblue" points="517.203,-87.9681 525.192,-81.0091 514.607,-81.4673 517.203,-87.9681"/>
</g>
<!-- Node34 -->
<g id="node34" class="node"><title>Node34</title>
<polygon fill="white" stroke="#bfbfbf" points="595.5,-62 595.5,-81 665.5,-81 665.5,-62 595.5,-62"/>
<text text-anchor="middle" x="630.5" y="-69" font-family="Helvetica,sans-Serif" font-size="10.00">sys/mman.h</text>
</g>
<!-- Node32&#45;&gt;Node34 -->
<g id="edge45" class="edge"><title>Node32&#45;&gt;Node34</title>
<path fill="none" stroke="midnightblue" d="M426.613,-125.093C477.458,-113.022 577.805,-89.1573 585.5,-87 588.661,-86.1137 591.933,-85.1504 595.204,-84.1558"/>
<polygon fill="midnightblue" stroke="midnightblue" points="596.403,-87.4483 604.902,-81.1236 594.314,-80.7673 596.403,-87.4483"/>
</g>
<!-- Node35 -->
<g id="node35" class="node"><title>Node35</title>
<polygon fill="white" stroke="#bfbfbf" points="277.5,-62 277.5,-81 349.5,-81 349.5,-62 277.5,-62"/>
<text text-anchor="middle" x="313.5" y="-69" font-family="Helvetica,sans-Serif" font-size="10.00">sys/socket.h</text>
</g>
<!-- Node32&#45;&gt;Node35 -->
<g id="edge46" class="edge"><title>Node32&#45;&gt;Node35</title>
<path fill="none" stroke="midnightblue" d="M385.465,-123.475C371.992,-113.931 349.934,-98.3073 333.785,-86.8683"/>
<polygon fill="midnightblue" stroke="midnightblue" points="335.696,-83.9332 325.513,-81.0091 331.65,-89.6454 335.696,-83.9332"/>
</g>
<!-- Node32&#45;&gt;Node36 -->
<g id="edge47" class="edge"><title>Node32&#45;&gt;Node36</title>
<path fill="none" stroke="midnightblue" d="M372.857,-123.475C343.225,-113.225 293.315,-95.9593 259.898,-84.3994"/>
<polygon fill="midnightblue" stroke="midnightblue" points="260.692,-80.9707 250.098,-81.0091 258.404,-87.5861 260.692,-80.9707"/>
</g>
<!-- Node37 -->
<g id="node37" class="node"><title>Node37</title>
<polygon fill="white" stroke="#bfbfbf" points="368,-62 368,-81 415,-81 415,-62 368,-62"/>
<text text-anchor="middle" x="391.5" y="-69" font-family="Helvetica,sans-Serif" font-size="10.00">net/if.h</text>
</g>
<!-- Node32&#45;&gt;Node37 -->
<g id="edge48" class="edge"><title>Node32&#45;&gt;Node37</title>
<path fill="none" stroke="midnightblue" d="M396.64,-123.475C395.794,-115.08 394.473,-101.981 393.382,-91.1631"/>
<polygon fill="midnightblue" stroke="midnightblue" points="396.844,-90.6074 392.358,-81.0091 389.879,-91.3098 396.844,-90.6074"/>
</g>
<!-- Node38 -->
<g id="node38" class="node"><title>Node38</title>
<polygon fill="white" stroke="#bfbfbf" points="433,-62 433,-81 498,-81 498,-62 433,-62"/>
<text text-anchor="middle" x="465.5" y="-69" font-family="Helvetica,sans-Serif" font-size="10.00">netinet/in.h</text>
</g>
<!-- Node32&#45;&gt;Node38 -->
<g id="edge49" class="edge"><title>Node32&#45;&gt;Node38</title>
<path fill="none" stroke="midnightblue" d="M407.243,-123.475C417.847,-114.197 435.019,-99.1706 447.979,-87.831"/>
<polygon fill="midnightblue" stroke="midnightblue" points="450.554,-90.2282 455.775,-81.0091 445.945,-84.9601 450.554,-90.2282"/>
</g>
<!-- Node39&#45;&gt;Node30 -->
<g id="edge52" class="edge"><title>Node39&#45;&gt;Node30</title>
<path fill="none" stroke="midnightblue" d="M1028.07,-123.475C1028.64,-115.08 1029.52,-101.981 1030.25,-91.1631"/>
<polygon fill="midnightblue" stroke="midnightblue" points="1033.75,-91.2214 1030.93,-81.0091 1026.76,-90.7518 1033.75,-91.2214"/>
</g>
<!-- Node49&#45;&gt;Node20 -->
<g id="edge74" class="edge"><title>Node49&#45;&gt;Node20</title>
<path fill="none" stroke="midnightblue" d="M1925.73,-291.173C1932.61,-282.429 1942.86,-268.437 1949.5,-255 1976.84,-199.687 1960.91,-176.002 1992.5,-123 2000.42,-109.718 2012.39,-97.1091 2022.4,-87.8126"/>
<polygon fill="midnightblue" stroke="midnightblue" points="2024.77,-90.3912 2029.9,-81.1176 2020.11,-85.172 2024.77,-90.3912"/>
</g>
<!-- Node50 -->
<g id="node50" class="node"><title>Node50</title>
<polygon fill="white" stroke="#bfbfbf" points="1892.5,-235.5 1892.5,-254.5 1940.5,-254.5 1940.5,-235.5 1892.5,-235.5"/>
<text text-anchor="middle" x="1916.5" y="-242.5" font-family="Helvetica,sans-Serif" font-size="10.00">stdlib.h</text>
</g>
<!-- Node49&#45;&gt;Node50 -->
<g id="edge73" class="edge"><title>Node49&#45;&gt;Node50</title>
<path fill="none" stroke="midnightblue" d="M1918.17,-291.083C1917.91,-284.006 1917.53,-273.861 1917.2,-264.986"/>
<polygon fill="midnightblue" stroke="midnightblue" points="1920.69,-264.615 1916.82,-254.751 1913.7,-264.874 1920.69,-264.615"/>
</g>
</g>
</svg>
