<?xml version="1.0" encoding="UTF-8" standalone="no"?>
<!DOCTYPE svg PUBLIC "-//W3C//DTD SVG 1.1//EN"
 "http://www.w3.org/Graphics/SVG/1.1/DTD/svg11.dtd">
<!-- Generated by graphviz version 2.38.0 (20140413.2041)
 -->
<!-- Title: src/qt/coincontroltreewidget.h Pages: 1 -->
<svg width="552pt" height="140pt"
 viewBox="0.00 0.00 551.50 140.00" xmlns="http://www.w3.org/2000/svg" xmlns:xlink="http://www.w3.org/1999/xlink">
<g id="graph0" class="graph" transform="scale(1 1) rotate(0) translate(4 136)">
<title>src/qt/coincontroltreewidget.h</title>
<polygon fill="white" stroke="none" points="-4,4 -4,-136 547.5,-136 547.5,4 -4,4"/>
<!-- Node1 -->
<g id="node1" class="node"><title>Node1</title>
<polygon fill="#bfbfbf" stroke="black" points="186,-112.5 186,-131.5 333,-131.5 333,-112.5 186,-112.5"/>
<text text-anchor="middle" x="259.5" y="-119.5" font-family="Helvetica,sans-Serif" font-size="10.00">src/qt/coincontroltreewidget.h</text>
</g>
<!-- Node2 -->
<g id="node2" class="node"><title>Node2</title>
<g id="a_node2"><a xlink:href="coincontroltreewidget_8cpp.html" target="_top" xlink:title="src/qt/coincontroltreewidget.cpp">
<polygon fill="white" stroke="black" points="0,-56.5 0,-75.5 157,-75.5 157,-56.5 0,-56.5"/>
<text text-anchor="middle" x="78.5" y="-63.5" font-family="Helvetica,sans-Serif" font-size="10.00">src/qt/coincontroltreewidget.cpp</text>
</a>
</g>
</g>
<!-- Node1&#45;&gt;Node2 -->
<g id="edge1" class="edge"><title>Node1&#45;&gt;Node2</title>
<path fill="none" stroke="midnightblue" d="M221.181,-109.568C187.036,-99.381 137.839,-84.7034 107.046,-75.5164"/>
<polygon fill="midnightblue" stroke="midnightblue" points="220.237,-112.938 230.82,-112.444 222.238,-106.231 220.237,-112.938"/>
</g>
<!-- Node3 -->
<g id="node3" class="node"><title>Node3</title>
<g id="a_node3"><a xlink:href="ui__coincontroldialog_8h.html" target="_top" xlink:title="src/qt/forms/ui_coincontroldialog.h">
<polygon fill="white" stroke="black" points="175.5,-56.5 175.5,-75.5 343.5,-75.5 343.5,-56.5 175.5,-56.5"/>
<text text-anchor="middle" x="259.5" y="-63.5" font-family="Helvetica,sans-Serif" font-size="10.00">src/qt/forms/ui_coincontroldialog.h</text>
</a>
</g>
</g>
<!-- Node1&#45;&gt;Node3 -->
<g id="edge2" class="edge"><title>Node1&#45;&gt;Node3</title>
<path fill="none" stroke="midnightblue" d="M259.5,-101.805C259.5,-92.9102 259.5,-82.7798 259.5,-75.7511"/>
<polygon fill="midnightblue" stroke="midnightblue" points="256,-102.083 259.5,-112.083 263,-102.083 256,-102.083"/>
</g>
<!-- Node5 -->
<g id="node5" class="node"><title>Node5</title>
<g id="a_node5"><a xlink:href="moc__coincontroltreewidget_8cpp.html" target="_top" xlink:title="src/qt/moc_coincontroltreewidget.cpp">
<polygon fill="white" stroke="black" points="361.5,-56.5 361.5,-75.5 543.5,-75.5 543.5,-56.5 361.5,-56.5"/>
<text text-anchor="middle" x="452.5" y="-63.5" font-family="Helvetica,sans-Serif" font-size="10.00">src/qt/moc_coincontroltreewidget.cpp</text>
</a>
</g>
</g>
<!-- Node1&#45;&gt;Node5 -->
<g id="edge4" class="edge"><title>Node1&#45;&gt;Node5</title>
<path fill="none" stroke="midnightblue" d="M299.892,-109.699C336.317,-99.507 389.086,-84.7429 422.062,-75.5164"/>
<polygon fill="midnightblue" stroke="midnightblue" points="298.769,-106.378 290.081,-112.444 300.655,-113.12 298.769,-106.378"/>
</g>
<!-- Node4 -->
<g id="node4" class="node"><title>Node4</title>
<g id="a_node4"><a xlink:href="coincontroldialog_8cpp.html" target="_top" xlink:title="src/qt/coincontroldialog.cpp">
<polygon fill="white" stroke="black" points="190.5,-0.5 190.5,-19.5 328.5,-19.5 328.5,-0.5 190.5,-0.5"/>
<text text-anchor="middle" x="259.5" y="-7.5" font-family="Helvetica,sans-Serif" font-size="10.00">src/qt/coincontroldialog.cpp</text>
</a>
</g>
</g>
<!-- Node3&#45;&gt;Node4 -->
<g id="edge3" class="edge"><title>Node3&#45;&gt;Node4</title>
<path fill="none" stroke="midnightblue" d="M259.5,-45.8045C259.5,-36.9102 259.5,-26.7798 259.5,-19.7511"/>
<polygon fill="midnightblue" stroke="midnightblue" points="256,-46.083 259.5,-56.083 263,-46.083 256,-46.083"/>
</g>
</g>
</svg>
