<?xml version="1.0" encoding="UTF-8" standalone="no"?>
<!DOCTYPE svg PUBLIC "-//W3C//DTD SVG 1.1//EN"
 "http://www.w3.org/Graphics/SVG/1.1/DTD/svg11.dtd">
<!-- Generated by graphviz version 2.38.0 (20140413.2041)
 -->
<!-- Title: EncryptSecret Pages: 1 -->
<svg width="408pt" height="85pt"
 viewBox="0.00 0.00 408.00 85.00" xmlns="http://www.w3.org/2000/svg" xmlns:xlink="http://www.w3.org/1999/xlink">
<g id="graph0" class="graph" transform="scale(1 1) rotate(0) translate(4 81)">
<title>EncryptSecret</title>
<polygon fill="white" stroke="none" points="-4,4 -4,-81 404,-81 404,4 -4,4"/>
<!-- Node1 -->
<g id="node1" class="node"><title>Node1</title>
<polygon fill="#bfbfbf" stroke="black" points="0,-38.5 0,-57.5 79,-57.5 79,-38.5 0,-38.5"/>
<text text-anchor="middle" x="39.5" y="-45.5" font-family="Helvetica,sans-Serif" font-size="10.00">EncryptSecret</text>
</g>
<!-- Node2 -->
<g id="node2" class="node"><title>Node2</title>
<g id="a_node2"><a xlink:href="glibc__compat_8cpp.html#a0f46826ab0466591e136db24394923cf" target="_top" xlink:title="memcpy">
<polygon fill="white" stroke="black" points="247,-57.5 247,-76.5 301,-76.5 301,-57.5 247,-57.5"/>
<text text-anchor="middle" x="274" y="-64.5" font-family="Helvetica,sans-Serif" font-size="10.00">memcpy</text>
</a>
</g>
</g>
<!-- Node1&#45;&gt;Node2 -->
<g id="edge1" class="edge"><title>Node1&#45;&gt;Node2</title>
<path fill="none" stroke="midnightblue" d="M70.6178,-57.5048C84.0526,-61.2689 100.167,-65.1383 115,-67 156.447,-72.202 204.494,-71.215 236.622,-69.5615"/>
<polygon fill="midnightblue" stroke="midnightblue" points="237.088,-73.0409 246.875,-68.9832 236.693,-66.052 237.088,-73.0409"/>
</g>
<!-- Node4 -->
<g id="node4" class="node"><title>Node4</title>
<g id="a_node4"><a xlink:href="class_c_crypter.html#a0d948dd4796e2420e1dd9c1ddbf7974e" target="_top" xlink:title="CCrypter::SetKey">
<polygon fill="white" stroke="black" points="116,-38.5 116,-57.5 210,-57.5 210,-38.5 116,-38.5"/>
<text text-anchor="middle" x="163" y="-45.5" font-family="Helvetica,sans-Serif" font-size="10.00">CCrypter::SetKey</text>
</a>
</g>
</g>
<!-- Node1&#45;&gt;Node4 -->
<g id="edge3" class="edge"><title>Node1&#45;&gt;Node4</title>
<path fill="none" stroke="midnightblue" d="M79.2774,-48C87.7545,-48 96.8913,-48 105.891,-48"/>
<polygon fill="midnightblue" stroke="midnightblue" points="105.952,-51.5001 115.952,-48 105.952,-44.5001 105.952,-51.5001"/>
</g>
<!-- Node5 -->
<g id="node5" class="node"><title>Node5</title>
<g id="a_node5"><a xlink:href="class_c_crypter.html#a124fcd3021569a660ce2daa3391c8ea4" target="_top" xlink:title="CCrypter::Encrypt">
<polygon fill="white" stroke="black" points="115,-0.5 115,-19.5 211,-19.5 211,-0.5 115,-0.5"/>
<text text-anchor="middle" x="163" y="-7.5" font-family="Helvetica,sans-Serif" font-size="10.00">CCrypter::Encrypt</text>
</a>
</g>
</g>
<!-- Node1&#45;&gt;Node5 -->
<g id="edge5" class="edge"><title>Node1&#45;&gt;Node5</title>
<path fill="none" stroke="midnightblue" d="M71.1596,-38.411C86.4124,-33.6406 105.051,-27.8112 121.467,-22.6771"/>
<polygon fill="midnightblue" stroke="midnightblue" points="122.851,-25.9114 131.35,-19.5859 120.761,-19.2306 122.851,-25.9114"/>
</g>
<!-- Node3 -->
<g id="node3" class="node"><title>Node3</title>
<g id="a_node3"><a xlink:href="glibc__compat_8cpp.html#a9778d49e9029dd75bc53ecbbf9f5e9a1" target="_top" xlink:title="memmove">
<polygon fill="white" stroke="black" points="337,-57.5 337,-76.5 400,-76.5 400,-57.5 337,-57.5"/>
<text text-anchor="middle" x="368.5" y="-64.5" font-family="Helvetica,sans-Serif" font-size="10.00">memmove</text>
</a>
</g>
</g>
<!-- Node2&#45;&gt;Node3 -->
<g id="edge2" class="edge"><title>Node2&#45;&gt;Node3</title>
<path fill="none" stroke="midnightblue" d="M301.259,-67C309.244,-67 318.214,-67 326.912,-67"/>
<polygon fill="midnightblue" stroke="midnightblue" points="326.924,-70.5001 336.924,-67 326.924,-63.5001 326.924,-70.5001"/>
</g>
<!-- Node4&#45;&gt;Node2 -->
<g id="edge4" class="edge"><title>Node4&#45;&gt;Node2</title>
<path fill="none" stroke="midnightblue" d="M210.226,-56.0577C219.136,-57.6109 228.348,-59.2167 236.88,-60.7039"/>
<polygon fill="midnightblue" stroke="midnightblue" points="236.431,-64.1782 246.883,-62.4475 237.633,-57.2822 236.431,-64.1782"/>
</g>
</g>
</svg>
