<?xml version="1.0" encoding="UTF-8" standalone="no"?>
<!DOCTYPE svg PUBLIC "-//W3C//DTD SVG 1.1//EN"
 "http://www.w3.org/Graphics/SVG/1.1/DTD/svg11.dtd">
<!-- Generated by graphviz version 2.38.0 (20140413.2041)
 -->
<!-- Title: DecryptSecret Pages: 1 -->
<svg width="815pt" height="278pt"
 viewBox="0.00 0.00 815.00 278.00" xmlns="http://www.w3.org/2000/svg" xmlns:xlink="http://www.w3.org/1999/xlink">
<g id="graph0" class="graph" transform="scale(1 1) rotate(0) translate(4 274)">
<title>DecryptSecret</title>
<polygon fill="white" stroke="none" points="-4,4 -4,-274 811,-274 811,4 -4,4"/>
<!-- Node1 -->
<g id="node1" class="node"><title>Node1</title>
<polygon fill="#bfbfbf" stroke="black" points="0,-125.5 0,-144.5 80,-144.5 80,-125.5 0,-125.5"/>
<text text-anchor="middle" x="40" y="-132.5" font-family="Helvetica,sans-Serif" font-size="10.00">DecryptSecret</text>
</g>
<!-- Node2 -->
<g id="node2" class="node"><title>Node2</title>
<g id="a_node2"><a xlink:href="class_c_crypto_key_store.html#a81bd70e18aa75f566526620a74f9cd88" target="_top" xlink:title="CCryptoKeyStore::Unlock">
<polygon fill="white" stroke="black" points="117.5,-174.5 117.5,-193.5 247.5,-193.5 247.5,-174.5 117.5,-174.5"/>
<text text-anchor="middle" x="182.5" y="-181.5" font-family="Helvetica,sans-Serif" font-size="10.00">CCryptoKeyStore::Unlock</text>
</a>
</g>
</g>
<!-- Node1&#45;&gt;Node2 -->
<g id="edge1" class="edge"><title>Node1&#45;&gt;Node2</title>
<path fill="none" stroke="midnightblue" d="M77.8809,-147.862C101.786,-156.199 132.406,-166.878 154.146,-174.46"/>
<polygon fill="midnightblue" stroke="midnightblue" points="79.0182,-144.552 68.4233,-144.564 76.713,-151.162 79.0182,-144.552"/>
</g>
<!-- Node10 -->
<g id="node10" class="node"><title>Node10</title>
<g id="a_node10"><a xlink:href="class_c_crypto_key_store.html#a58cfb3c490318ef82de8fc9be6637269" target="_top" xlink:title="CCryptoKeyStore::GetKey">
<polygon fill="white" stroke="black" points="116,-76.5 116,-95.5 249,-95.5 249,-76.5 116,-76.5"/>
<text text-anchor="middle" x="182.5" y="-83.5" font-family="Helvetica,sans-Serif" font-size="10.00">CCryptoKeyStore::GetKey</text>
</a>
</g>
</g>
<!-- Node1&#45;&gt;Node10 -->
<g id="edge10" class="edge"><title>Node1&#45;&gt;Node10</title>
<path fill="none" stroke="midnightblue" d="M77.8809,-122.138C101.786,-113.801 132.406,-103.122 154.146,-95.5399"/>
<polygon fill="midnightblue" stroke="midnightblue" points="76.713,-118.838 68.4233,-125.436 79.0182,-125.448 76.713,-118.838"/>
</g>
<!-- Node3 -->
<g id="node3" class="node"><title>Node3</title>
<g id="a_node3"><a xlink:href="class_c_wallet.html#a002c61a2b74f2c46063340c568e6cc1b" target="_top" xlink:title="CWallet::Unlock">
<polygon fill="white" stroke="black" points="327.5,-212.5 327.5,-231.5 415.5,-231.5 415.5,-212.5 327.5,-212.5"/>
<text text-anchor="middle" x="371.5" y="-219.5" font-family="Helvetica,sans-Serif" font-size="10.00">CWallet::Unlock</text>
</a>
</g>
</g>
<!-- Node2&#45;&gt;Node3 -->
<g id="edge2" class="edge"><title>Node2&#45;&gt;Node3</title>
<path fill="none" stroke="midnightblue" d="M240.729,-195.629C268.672,-201.308 301.731,-208.026 327.488,-213.26"/>
<polygon fill="midnightblue" stroke="midnightblue" points="241.185,-192.151 230.688,-193.589 239.791,-199.01 241.185,-192.151"/>
</g>
<!-- Node7 -->
<g id="node7" class="node"><title>Node7</title>
<g id="a_node7"><a xlink:href="class_c_wallet.html#a4abcec3066e7c462f4564c159fc15031" target="_top" xlink:title="CWallet::ChangeWalletPassphrase">
<polygon fill="white" stroke="black" points="285,-174.5 285,-193.5 458,-193.5 458,-174.5 285,-174.5"/>
<text text-anchor="middle" x="371.5" y="-181.5" font-family="Helvetica,sans-Serif" font-size="10.00">CWallet::ChangeWalletPassphrase</text>
</a>
</g>
</g>
<!-- Node2&#45;&gt;Node7 -->
<g id="edge6" class="edge"><title>Node2&#45;&gt;Node7</title>
<path fill="none" stroke="midnightblue" d="M257.823,-184C266.647,-184 275.71,-184 284.678,-184"/>
<polygon fill="midnightblue" stroke="midnightblue" points="257.593,-180.5 247.593,-184 257.593,-187.5 257.593,-180.5"/>
</g>
<!-- Node4 -->
<g id="node4" class="node"><title>Node4</title>
<g id="a_node4"><a xlink:href="class_wallet_model.html#a6d7ebdcf0d28d058c658eb44a6c4a6c6" target="_top" xlink:title="WalletModel::setWalletLocked">
<polygon fill="white" stroke="black" points="500.5,-250.5 500.5,-269.5 650.5,-269.5 650.5,-250.5 500.5,-250.5"/>
<text text-anchor="middle" x="575.5" y="-257.5" font-family="Helvetica,sans-Serif" font-size="10.00">WalletModel::setWalletLocked</text>
</a>
</g>
</g>
<!-- Node3&#45;&gt;Node4 -->
<g id="edge3" class="edge"><title>Node3&#45;&gt;Node4</title>
<path fill="none" stroke="midnightblue" d="M425.806,-232.028C456.117,-237.73 493.867,-244.832 523.746,-250.452"/>
<polygon fill="midnightblue" stroke="midnightblue" points="426.309,-228.561 415.834,-230.152 425.015,-235.44 426.309,-228.561"/>
</g>
<!-- Node6 -->
<g id="node6" class="node"><title>Node6</title>
<g id="a_node6"><a xlink:href="rpcwallet_8cpp.html#a733f7c70e7c18783935e6de9643c0086" target="_top" xlink:title="walletpassphrase">
<polygon fill="white" stroke="black" points="528.5,-212.5 528.5,-231.5 622.5,-231.5 622.5,-212.5 528.5,-212.5"/>
<text text-anchor="middle" x="575.5" y="-219.5" font-family="Helvetica,sans-Serif" font-size="10.00">walletpassphrase</text>
</a>
</g>
</g>
<!-- Node3&#45;&gt;Node6 -->
<g id="edge5" class="edge"><title>Node3&#45;&gt;Node6</title>
<path fill="none" stroke="midnightblue" d="M425.882,-222C457.787,-222 497.914,-222 528.428,-222"/>
<polygon fill="midnightblue" stroke="midnightblue" points="425.834,-218.5 415.834,-222 425.834,-225.5 425.834,-218.5"/>
</g>
<!-- Node5 -->
<g id="node5" class="node"><title>Node5</title>
<g id="a_node5"><a xlink:href="class_ask_passphrase_dialog.html#ac2f176af3693b73870d26ef0bfc6cbb9" target="_top" xlink:title="AskPassphraseDialog\l::accept">
<polygon fill="white" stroke="black" points="693,-207 693,-237 807,-237 807,-207 693,-207"/>
<text text-anchor="start" x="701" y="-225" font-family="Helvetica,sans-Serif" font-size="10.00">AskPassphraseDialog</text>
<text text-anchor="middle" x="750" y="-214" font-family="Helvetica,sans-Serif" font-size="10.00">::accept</text>
</a>
</g>
</g>
<!-- Node4&#45;&gt;Node5 -->
<g id="edge4" class="edge"><title>Node4&#45;&gt;Node5</title>
<path fill="none" stroke="midnightblue" d="M629.88,-248.241C649.833,-243.846 672.545,-238.842 692.748,-234.392"/>
<polygon fill="midnightblue" stroke="midnightblue" points="629.042,-244.842 620.029,-250.411 630.548,-251.678 629.042,-244.842"/>
</g>
<!-- Node8 -->
<g id="node8" class="node"><title>Node8</title>
<g id="a_node8"><a xlink:href="class_wallet_model.html#a67ebff3f267b5c9973c0465184c085a4" target="_top" xlink:title="WalletModel::changePassphrase">
<polygon fill="white" stroke="black" points="494,-174.5 494,-193.5 657,-193.5 657,-174.5 494,-174.5"/>
<text text-anchor="middle" x="575.5" y="-181.5" font-family="Helvetica,sans-Serif" font-size="10.00">WalletModel::changePassphrase</text>
</a>
</g>
</g>
<!-- Node7&#45;&gt;Node8 -->
<g id="edge7" class="edge"><title>Node7&#45;&gt;Node8</title>
<path fill="none" stroke="midnightblue" d="M468.2,-184C476.779,-184 485.41,-184 493.843,-184"/>
<polygon fill="midnightblue" stroke="midnightblue" points="468.166,-180.5 458.166,-184 468.166,-187.5 468.166,-180.5"/>
</g>
<!-- Node9 -->
<g id="node9" class="node"><title>Node9</title>
<g id="a_node9"><a xlink:href="rpcwallet_8cpp.html#a84ad884957e24688433be32a9ca70933" target="_top" xlink:title="walletpassphrasechange">
<polygon fill="white" stroke="black" points="512,-136.5 512,-155.5 639,-155.5 639,-136.5 512,-136.5"/>
<text text-anchor="middle" x="575.5" y="-143.5" font-family="Helvetica,sans-Serif" font-size="10.00">walletpassphrasechange</text>
</a>
</g>
</g>
<!-- Node7&#45;&gt;Node9 -->
<g id="edge9" class="edge"><title>Node7&#45;&gt;Node9</title>
<path fill="none" stroke="midnightblue" d="M433.196,-172.582C462.099,-167.145 496.269,-160.717 523.767,-155.544"/>
<polygon fill="midnightblue" stroke="midnightblue" points="432.393,-169.172 423.212,-174.46 433.687,-176.051 432.393,-169.172"/>
</g>
<!-- Node8&#45;&gt;Node5 -->
<g id="edge8" class="edge"><title>Node8&#45;&gt;Node5</title>
<path fill="none" stroke="midnightblue" d="M629.88,-195.759C649.833,-200.154 672.545,-205.158 692.748,-209.608"/>
<polygon fill="midnightblue" stroke="midnightblue" points="630.548,-192.322 620.029,-193.589 629.042,-199.158 630.548,-192.322"/>
</g>
<!-- Node11 -->
<g id="node11" class="node"><title>Node11</title>
<g id="a_node11"><a xlink:href="class_sign_verify_message_dialog.html#a2ef91b4ace68d63ab1c1d3cc6c13b5f9" target="_top" xlink:title="SignVerifyMessageDialog\l::on_signMessageButton\l_SM_clicked">
<polygon fill="white" stroke="black" points="306,-114.5 306,-155.5 437,-155.5 437,-114.5 306,-114.5"/>
<text text-anchor="start" x="314" y="-143.5" font-family="Helvetica,sans-Serif" font-size="10.00">SignVerifyMessageDialog</text>
<text text-anchor="start" x="314" y="-132.5" font-family="Helvetica,sans-Serif" font-size="10.00">::on_signMessageButton</text>
<text text-anchor="middle" x="371.5" y="-121.5" font-family="Helvetica,sans-Serif" font-size="10.00">_SM_clicked</text>
</a>
</g>
</g>
<!-- Node10&#45;&gt;Node11 -->
<g id="edge11" class="edge"><title>Node10&#45;&gt;Node11</title>
<path fill="none" stroke="midnightblue" d="M229.801,-98.1324C252.697,-104.132 280.712,-111.473 305.698,-118.02"/>
<polygon fill="midnightblue" stroke="midnightblue" points="230.56,-94.7131 219.999,-95.564 228.786,-101.485 230.56,-94.7131"/>
</g>
<!-- Node12 -->
<g id="node12" class="node"><title>Node12</title>
<g id="a_node12"><a xlink:href="rpcdump_8cpp.html#a4010fb238298e15c540d3e5ecd60f858" target="_top" xlink:title="dumpprivkey">
<polygon fill="white" stroke="black" points="335,-76.5 335,-95.5 408,-95.5 408,-76.5 335,-76.5"/>
<text text-anchor="middle" x="371.5" y="-83.5" font-family="Helvetica,sans-Serif" font-size="10.00">dumpprivkey</text>
</a>
</g>
</g>
<!-- Node10&#45;&gt;Node12 -->
<g id="edge12" class="edge"><title>Node10&#45;&gt;Node12</title>
<path fill="none" stroke="midnightblue" d="M259.444,-86C285.554,-86 313.558,-86 334.913,-86"/>
<polygon fill="midnightblue" stroke="midnightblue" points="259.166,-82.5001 249.166,-86 259.166,-89.5001 259.166,-82.5001"/>
</g>
<!-- Node13 -->
<g id="node13" class="node"><title>Node13</title>
<g id="a_node13"><a xlink:href="rpcdump_8cpp.html#a831ddf746d4f2500ba6f6c07f63445cd" target="_top" xlink:title="dumpwallet">
<polygon fill="white" stroke="black" points="338,-38.5 338,-57.5 405,-57.5 405,-38.5 338,-38.5"/>
<text text-anchor="middle" x="371.5" y="-45.5" font-family="Helvetica,sans-Serif" font-size="10.00">dumpwallet</text>
</a>
</g>
</g>
<!-- Node10&#45;&gt;Node13 -->
<g id="edge13" class="edge"><title>Node10&#45;&gt;Node13</title>
<path fill="none" stroke="midnightblue" d="M240.762,-74.3639C272.578,-67.8985 311.017,-60.0874 337.76,-54.6531"/>
<polygon fill="midnightblue" stroke="midnightblue" points="239.791,-70.9896 230.688,-76.411 241.185,-77.8494 239.791,-70.9896"/>
</g>
<!-- Node14 -->
<g id="node14" class="node"><title>Node14</title>
<g id="a_node14"><a xlink:href="rpcwallet_8cpp.html#a315b42a2c859c4b50a54c1b05984928c" target="_top" xlink:title="signmessage">
<polygon fill="white" stroke="black" points="334,-0.5 334,-19.5 409,-19.5 409,-0.5 334,-0.5"/>
<text text-anchor="middle" x="371.5" y="-7.5" font-family="Helvetica,sans-Serif" font-size="10.00">signmessage</text>
</a>
</g>
</g>
<!-- Node10&#45;&gt;Node14 -->
<g id="edge14" class="edge"><title>Node10&#45;&gt;Node14</title>
<path fill="none" stroke="midnightblue" d="M206.033,-70.7919C226.001,-57.9507 256.352,-39.9529 285,-29 300.481,-23.081 318.28,-18.7579 333.615,-15.7448"/>
<polygon fill="midnightblue" stroke="midnightblue" points="204.086,-67.8828 197.632,-76.2852 207.917,-73.7414 204.086,-67.8828"/>
</g>
</g>
</svg>
