<?xml version="1.0" encoding="UTF-8" standalone="no"?>
<!DOCTYPE svg PUBLIC "-//W3C//DTD SVG 1.1//EN"
 "http://www.w3.org/Graphics/SVG/1.1/DTD/svg11.dtd">
<!-- Generated by graphviz version 2.38.0 (20140413.2041)
 -->
<!-- Title: DecryptSecret Pages: 1 -->
<svg width="410pt" height="85pt"
 viewBox="0.00 0.00 410.00 85.00" xmlns="http://www.w3.org/2000/svg" xmlns:xlink="http://www.w3.org/1999/xlink">
<g id="graph0" class="graph" transform="scale(1 1) rotate(0) translate(4 81)">
<title>DecryptSecret</title>
<polygon fill="white" stroke="none" points="-4,4 -4,-81 406,-81 406,4 -4,4"/>
<!-- Node1 -->
<g id="node1" class="node"><title>Node1</title>
<polygon fill="#bfbfbf" stroke="black" points="0,-38.5 0,-57.5 80,-57.5 80,-38.5 0,-38.5"/>
<text text-anchor="middle" x="40" y="-45.5" font-family="Helvetica,sans-Serif" font-size="10.00">DecryptSecret</text>
</g>
<!-- Node2 -->
<g id="node2" class="node"><title>Node2</title>
<g id="a_node2"><a xlink:href="glibc__compat_8cpp.html#a0f46826ab0466591e136db24394923cf" target="_top" xlink:title="memcpy">
<polygon fill="white" stroke="black" points="249,-57.5 249,-76.5 303,-76.5 303,-57.5 249,-57.5"/>
<text text-anchor="middle" x="276" y="-64.5" font-family="Helvetica,sans-Serif" font-size="10.00">memcpy</text>
</a>
</g>
</g>
<!-- Node1&#45;&gt;Node2 -->
<g id="edge1" class="edge"><title>Node1&#45;&gt;Node2</title>
<path fill="none" stroke="midnightblue" d="M71.3243,-57.505C84.8501,-61.2691 101.072,-65.1385 116,-67 157.837,-72.217 206.349,-71.2088 238.679,-69.5467"/>
<polygon fill="midnightblue" stroke="midnightblue" points="239.203,-73.0228 248.99,-68.9659 238.809,-66.0339 239.203,-73.0228"/>
</g>
<!-- Node4 -->
<g id="node4" class="node"><title>Node4</title>
<g id="a_node4"><a xlink:href="class_c_crypter.html#a0d948dd4796e2420e1dd9c1ddbf7974e" target="_top" xlink:title="CCrypter::SetKey">
<polygon fill="white" stroke="black" points="117.5,-38.5 117.5,-57.5 211.5,-57.5 211.5,-38.5 117.5,-38.5"/>
<text text-anchor="middle" x="164.5" y="-45.5" font-family="Helvetica,sans-Serif" font-size="10.00">CCrypter::SetKey</text>
</a>
</g>
</g>
<!-- Node1&#45;&gt;Node4 -->
<g id="edge3" class="edge"><title>Node1&#45;&gt;Node4</title>
<path fill="none" stroke="midnightblue" d="M80.0966,-48C88.6434,-48 97.8554,-48 106.93,-48"/>
<polygon fill="midnightblue" stroke="midnightblue" points="107.073,-51.5001 117.073,-48 107.073,-44.5001 107.073,-51.5001"/>
</g>
<!-- Node5 -->
<g id="node5" class="node"><title>Node5</title>
<g id="a_node5"><a xlink:href="class_c_crypter.html#a4dbabed4975d4435d22c76deac43df7f" target="_top" xlink:title="CCrypter::Decrypt">
<polygon fill="white" stroke="black" points="116,-0.5 116,-19.5 213,-19.5 213,-0.5 116,-0.5"/>
<text text-anchor="middle" x="164.5" y="-7.5" font-family="Helvetica,sans-Serif" font-size="10.00">CCrypter::Decrypt</text>
</a>
</g>
</g>
<!-- Node1&#45;&gt;Node5 -->
<g id="edge5" class="edge"><title>Node1&#45;&gt;Node5</title>
<path fill="none" stroke="midnightblue" d="M71.9119,-38.411C87.2903,-33.6406 106.082,-27.8112 122.633,-22.6771"/>
<polygon fill="midnightblue" stroke="midnightblue" points="124.084,-25.8916 132.598,-19.5859 122.01,-19.2059 124.084,-25.8916"/>
</g>
<!-- Node3 -->
<g id="node3" class="node"><title>Node3</title>
<g id="a_node3"><a xlink:href="glibc__compat_8cpp.html#a9778d49e9029dd75bc53ecbbf9f5e9a1" target="_top" xlink:title="memmove">
<polygon fill="white" stroke="black" points="339,-57.5 339,-76.5 402,-76.5 402,-57.5 339,-57.5"/>
<text text-anchor="middle" x="370.5" y="-64.5" font-family="Helvetica,sans-Serif" font-size="10.00">memmove</text>
</a>
</g>
</g>
<!-- Node2&#45;&gt;Node3 -->
<g id="edge2" class="edge"><title>Node2&#45;&gt;Node3</title>
<path fill="none" stroke="midnightblue" d="M303.259,-67C311.244,-67 320.214,-67 328.912,-67"/>
<polygon fill="midnightblue" stroke="midnightblue" points="328.924,-70.5001 338.924,-67 328.924,-63.5001 328.924,-70.5001"/>
</g>
<!-- Node4&#45;&gt;Node2 -->
<g id="edge4" class="edge"><title>Node4&#45;&gt;Node2</title>
<path fill="none" stroke="midnightblue" d="M211.62,-56.0026C220.779,-57.5917 230.267,-59.2381 239.026,-60.758"/>
<polygon fill="midnightblue" stroke="midnightblue" points="238.459,-64.2118 248.91,-62.473 239.656,-57.3148 238.459,-64.2118"/>
</g>
</g>
</svg>
