<?xml version="1.0" encoding="UTF-8" standalone="no"?>
<!DOCTYPE svg PUBLIC "-//W3C//DTD SVG 1.1//EN"
 "http://www.w3.org/Graphics/SVG/1.1/DTD/svg11.dtd">
<!-- Generated by graphviz version 2.38.0 (20140413.2041)
 -->
<!-- Title: src/qt/csvmodelwriter.h Pages: 1 -->
<svg width="620pt" height="84pt"
 viewBox="0.00 0.00 620.00 84.00" xmlns="http://www.w3.org/2000/svg" xmlns:xlink="http://www.w3.org/1999/xlink">
<g id="graph0" class="graph" transform="scale(1 1) rotate(0) translate(4 80)">
<title>src/qt/csvmodelwriter.h</title>
<polygon fill="white" stroke="none" points="-4,4 -4,-80 616,-80 616,4 -4,4"/>
<!-- Node1 -->
<g id="node1" class="node"><title>Node1</title>
<polygon fill="#bfbfbf" stroke="black" points="245.5,-56.5 245.5,-75.5 364.5,-75.5 364.5,-56.5 245.5,-56.5"/>
<text text-anchor="middle" x="305" y="-63.5" font-family="Helvetica,sans-Serif" font-size="10.00">src/qt/csvmodelwriter.h</text>
</g>
<!-- Node2 -->
<g id="node2" class="node"><title>Node2</title>
<g id="a_node2"><a xlink:href="addressbookpage_8cpp.html" target="_top" xlink:title="src/qt/addressbookpage.cpp">
<polygon fill="white" stroke="black" points="0,-0.5 0,-19.5 142,-19.5 142,-0.5 0,-0.5"/>
<text text-anchor="middle" x="71" y="-7.5" font-family="Helvetica,sans-Serif" font-size="10.00">src/qt/addressbookpage.cpp</text>
</a>
</g>
</g>
<!-- Node1&#45;&gt;Node2 -->
<g id="edge1" class="edge"><title>Node1&#45;&gt;Node2</title>
<path fill="none" stroke="midnightblue" d="M257.996,-54.1529C213.783,-43.95 148.484,-28.8809 107.905,-19.5164"/>
<polygon fill="midnightblue" stroke="midnightblue" points="257.391,-57.6052 267.922,-56.4435 258.965,-50.7845 257.391,-57.6052"/>
</g>
<!-- Node3 -->
<g id="node3" class="node"><title>Node3</title>
<g id="a_node3"><a xlink:href="csvmodelwriter_8cpp.html" target="_top" xlink:title="src/qt/csvmodelwriter.cpp">
<polygon fill="white" stroke="black" points="160.5,-0.5 160.5,-19.5 289.5,-19.5 289.5,-0.5 160.5,-0.5"/>
<text text-anchor="middle" x="225" y="-7.5" font-family="Helvetica,sans-Serif" font-size="10.00">src/qt/csvmodelwriter.cpp</text>
</a>
</g>
</g>
<!-- Node1&#45;&gt;Node3 -->
<g id="edge2" class="edge"><title>Node1&#45;&gt;Node3</title>
<path fill="none" stroke="midnightblue" d="M283.699,-50.6221C269.085,-40.7574 250.173,-27.9919 237.821,-19.6545"/>
<polygon fill="midnightblue" stroke="midnightblue" points="281.9,-53.6302 292.147,-56.324 285.816,-47.8282 281.9,-53.6302"/>
</g>
<!-- Node4 -->
<g id="node4" class="node"><title>Node4</title>
<g id="a_node4"><a xlink:href="moc__csvmodelwriter_8cpp.html" target="_top" xlink:title="src/qt/moc_csvmodelwriter.cpp">
<polygon fill="white" stroke="black" points="308,-0.5 308,-19.5 462,-19.5 462,-0.5 308,-0.5"/>
<text text-anchor="middle" x="385" y="-7.5" font-family="Helvetica,sans-Serif" font-size="10.00">src/qt/moc_csvmodelwriter.cpp</text>
</a>
</g>
</g>
<!-- Node1&#45;&gt;Node4 -->
<g id="edge3" class="edge"><title>Node1&#45;&gt;Node4</title>
<path fill="none" stroke="midnightblue" d="M326.301,-50.6221C340.915,-40.7574 359.827,-27.9919 372.179,-19.6545"/>
<polygon fill="midnightblue" stroke="midnightblue" points="324.184,-47.8282 317.853,-56.324 328.1,-53.6302 324.184,-47.8282"/>
</g>
<!-- Node5 -->
<g id="node5" class="node"><title>Node5</title>
<g id="a_node5"><a xlink:href="transactionview_8cpp.html" target="_top" xlink:title="src/qt/transactionview.cpp">
<polygon fill="white" stroke="black" points="480,-0.5 480,-19.5 612,-19.5 612,-0.5 480,-0.5"/>
<text text-anchor="middle" x="546" y="-7.5" font-family="Helvetica,sans-Serif" font-size="10.00">src/qt/transactionview.cpp</text>
</a>
</g>
</g>
<!-- Node1&#45;&gt;Node5 -->
<g id="edge4" class="edge"><title>Node1&#45;&gt;Node5</title>
<path fill="none" stroke="midnightblue" d="M353.123,-54.2172C398.662,-44.0134 466.11,-28.9006 507.991,-19.5164"/>
<polygon fill="midnightblue" stroke="midnightblue" points="352.18,-50.8417 343.187,-56.4435 353.71,-57.6723 352.18,-50.8417"/>
</g>
</g>
</svg>
