<?xml version="1.0" encoding="UTF-8" standalone="no"?>
<!DOCTYPE svg PUBLIC "-//W3C//DTD SVG 1.1//EN"
 "http://www.w3.org/Graphics/SVG/1.1/DTD/svg11.dtd">
<!-- Generated by graphviz version 2.38.0 (20140413.2041)
 -->
<!-- Title: src/db.h Pages: 1 -->
<svg width="1553pt" height="207pt"
 viewBox="0.00 0.00 1552.92 207.00" xmlns="http://www.w3.org/2000/svg" xmlns:xlink="http://www.w3.org/1999/xlink">
<g id="graph0" class="graph" transform="scale(1 1) rotate(0) translate(4 203)">
<title>src/db.h</title>
<polygon fill="white" stroke="none" points="-4,4 -4,-203 1548.92,-203 1548.92,4 -4,4"/>
<!-- Node1 -->
<g id="node1" class="node"><title>Node1</title>
<polygon fill="#bfbfbf" stroke="black" points="343.416,-179.5 343.416,-198.5 395.416,-198.5 395.416,-179.5 343.416,-179.5"/>
<text text-anchor="middle" x="369.416" y="-186.5" font-family="Helvetica,sans-Serif" font-size="10.00">src/db.h</text>
</g>
<!-- Node2 -->
<g id="node2" class="node"><title>Node2</title>
<g id="a_node2"><a xlink:href="clientversion_8h.html" target="_top" xlink:title="clientversion.h">
<polygon fill="white" stroke="black" points="19.416,-123.5 19.416,-142.5 99.416,-142.5 99.416,-123.5 19.416,-123.5"/>
<text text-anchor="middle" x="59.416" y="-130.5" font-family="Helvetica,sans-Serif" font-size="10.00">clientversion.h</text>
</a>
</g>
</g>
<!-- Node1&#45;&gt;Node2 -->
<g id="edge1" class="edge"><title>Node1&#45;&gt;Node2</title>
<path fill="none" stroke="midnightblue" d="M343.253,-183.443C291.673,-174.458 176.093,-154.324 109.422,-142.711"/>
<polygon fill="midnightblue" stroke="midnightblue" points="110.008,-139.26 99.5562,-140.992 108.807,-146.156 110.008,-139.26"/>
</g>
<!-- Node3 -->
<g id="node3" class="node"><title>Node3</title>
<polygon fill="white" stroke="#bfbfbf" points="56.916,-0.5 56.916,-19.5 97.916,-19.5 97.916,-0.5 56.916,-0.5"/>
<text text-anchor="middle" x="77.416" y="-7.5" font-family="Helvetica,sans-Serif" font-size="10.00">string</text>
</g>
<!-- Node1&#45;&gt;Node3 -->
<g id="edge32" class="edge"><title>Node1&#45;&gt;Node3</title>
<path fill="none" stroke="midnightblue" d="M343.198,-186.681C264.187,-182.441 32.4441,-167.962 10.416,-143 -21.6036,-106.716 29.7276,-52.3949 59.1178,-26.2005"/>
<polygon fill="midnightblue" stroke="midnightblue" points="61.4732,-28.7907 66.738,-19.5965 56.8887,-23.5008 61.4732,-28.7907"/>
</g>
<!-- Node4 -->
<g id="node4" class="node"><title>Node4</title>
<polygon fill="white" stroke="#bfbfbf" points="55.416,-62 55.416,-81 99.416,-81 99.416,-62 55.416,-62"/>
<text text-anchor="middle" x="77.416" y="-69" font-family="Helvetica,sans-Serif" font-size="10.00">vector</text>
</g>
<!-- Node1&#45;&gt;Node4 -->
<g id="edge33" class="edge"><title>Node1&#45;&gt;Node4</title>
<path fill="none" stroke="midnightblue" d="M343.372,-187.207C300.857,-184.943 214.923,-176.254 151.416,-143 126.216,-129.804 103.558,-105.489 90.1408,-89.1549"/>
<polygon fill="midnightblue" stroke="midnightblue" points="92.6411,-86.6755 83.68,-81.0231 87.1603,-91.03 92.6411,-86.6755"/>
</g>
<!-- Node5 -->
<g id="node5" class="node"><title>Node5</title>
<g id="a_node5"><a xlink:href="serialize_8h.html" target="_top" xlink:title="serialize.h">
<polygon fill="white" stroke="black" points="542.416,-123.5 542.416,-142.5 604.416,-142.5 604.416,-123.5 542.416,-123.5"/>
<text text-anchor="middle" x="573.416" y="-130.5" font-family="Helvetica,sans-Serif" font-size="10.00">serialize.h</text>
</a>
</g>
</g>
<!-- Node1&#45;&gt;Node5 -->
<g id="edge4" class="edge"><title>Node1&#45;&gt;Node5</title>
<path fill="none" stroke="midnightblue" d="M395.668,-181.051C430.29,-171.886 491.588,-155.66 532.364,-144.867"/>
<polygon fill="midnightblue" stroke="midnightblue" points="533.489,-148.19 542.26,-142.247 531.698,-141.423 533.489,-148.19"/>
</g>
<!-- Node7 -->
<g id="node7" class="node"><title>Node7</title>
<polygon fill="white" stroke="#bfbfbf" points="555.416,-0.5 555.416,-19.5 591.416,-19.5 591.416,-0.5 555.416,-0.5"/>
<text text-anchor="middle" x="573.416" y="-7.5" font-family="Helvetica,sans-Serif" font-size="10.00">map</text>
</g>
<!-- Node1&#45;&gt;Node7 -->
<g id="edge31" class="edge"><title>Node1&#45;&gt;Node7</title>
<path fill="none" stroke="midnightblue" d="M342.99,-181.312C280.14,-164.235 130.871,-116.096 184.416,-56 208.379,-29.1055 459.276,-15.8996 544.938,-12.1503"/>
<polygon fill="midnightblue" stroke="midnightblue" points="545.15,-15.6445 554.992,-11.7208 544.852,-8.65089 545.15,-15.6445"/>
</g>
<!-- Node21 -->
<g id="node21" class="node"><title>Node21</title>
<g id="a_node21"><a xlink:href="sync_8h.html" target="_top" xlink:title="sync.h">
<polygon fill="white" stroke="black" points="1127.92,-123.5 1127.92,-142.5 1172.92,-142.5 1172.92,-123.5 1127.92,-123.5"/>
<text text-anchor="middle" x="1150.42" y="-130.5" font-family="Helvetica,sans-Serif" font-size="10.00">sync.h</text>
</a>
</g>
</g>
<!-- Node1&#45;&gt;Node21 -->
<g id="edge25" class="edge"><title>Node1&#45;&gt;Node21</title>
<path fill="none" stroke="midnightblue" d="M395.849,-186.172C513.383,-178.046 988.456,-145.198 1117.78,-136.257"/>
<polygon fill="midnightblue" stroke="midnightblue" points="1118.11,-139.742 1127.85,-135.56 1117.63,-132.759 1118.11,-139.742"/>
</g>
<!-- Node26 -->
<g id="node26" class="node"><title>Node26</title>
<polygon fill="white" stroke="#bfbfbf" points="1191.42,-123.5 1191.42,-142.5 1321.42,-142.5 1321.42,-123.5 1191.42,-123.5"/>
<text text-anchor="middle" x="1256.42" y="-130.5" font-family="Helvetica,sans-Serif" font-size="10.00">boost/filesystem/path.hpp</text>
</g>
<!-- Node1&#45;&gt;Node26 -->
<g id="edge34" class="edge"><title>Node1&#45;&gt;Node26</title>
<path fill="none" stroke="midnightblue" d="M395.748,-187.155C497.278,-183.765 873.042,-170.019 1181.42,-143 1181.52,-142.991 1181.62,-142.982 1181.72,-142.973"/>
<polygon fill="midnightblue" stroke="midnightblue" points="1181.77,-146.484 1191.4,-142.06 1181.12,-139.515 1181.77,-146.484"/>
</g>
<!-- Node27 -->
<g id="node27" class="node"><title>Node27</title>
<polygon fill="white" stroke="#bfbfbf" points="1339.92,-123.5 1339.92,-142.5 1396.92,-142.5 1396.92,-123.5 1339.92,-123.5"/>
<text text-anchor="middle" x="1368.42" y="-130.5" font-family="Helvetica,sans-Serif" font-size="10.00">db_cxx.h</text>
</g>
<!-- Node1&#45;&gt;Node27 -->
<g id="edge35" class="edge"><title>Node1&#45;&gt;Node27</title>
<path fill="none" stroke="midnightblue" d="M395.5,-187.434C527.362,-184.477 1122.07,-169.944 1329.71,-142.745"/>
<polygon fill="midnightblue" stroke="midnightblue" points="1330.45,-146.175 1339.89,-141.356 1329.51,-139.24 1330.45,-146.175"/>
</g>
<!-- Node2&#45;&gt;Node3 -->
<g id="edge2" class="edge"><title>Node2&#45;&gt;Node3</title>
<path fill="none" stroke="midnightblue" d="M55.3726,-123.393C49.2337,-109.121 39.0197,-79.7742 46.416,-56 49.6446,-45.6222 56.1917,-35.5209 62.4407,-27.5268"/>
<polygon fill="midnightblue" stroke="midnightblue" points="65.2011,-29.6818 68.9333,-19.7661 59.8322,-25.1902 65.2011,-29.6818"/>
</g>
<!-- Node2&#45;&gt;Node4 -->
<g id="edge3" class="edge"><title>Node2&#45;&gt;Node4</title>
<path fill="none" stroke="midnightblue" d="M61.9949,-123.475C64.5613,-114.992 68.5811,-101.704 71.8731,-90.8222"/>
<polygon fill="midnightblue" stroke="midnightblue" points="75.2962,-91.5942 74.8418,-81.0091 68.5961,-89.5672 75.2962,-91.5942"/>
</g>
<!-- Node5&#45;&gt;Node3 -->
<g id="edge19" class="edge"><title>Node5&#45;&gt;Node3</title>
<path fill="none" stroke="midnightblue" d="M542.177,-130.392C461.84,-125.938 249.793,-112.086 184.416,-87 148.491,-73.2154 113.401,-44.545 93.6772,-26.6267"/>
<polygon fill="midnightblue" stroke="midnightblue" points="95.9139,-23.9272 86.2074,-19.6805 91.1471,-29.0534 95.9139,-23.9272"/>
</g>
<!-- Node5&#45;&gt;Node4 -->
<g id="edge22" class="edge"><title>Node5&#45;&gt;Node4</title>
<path fill="none" stroke="midnightblue" d="M542.221,-131.99C467.207,-131.314 271.241,-125.657 113.416,-87 110.747,-86.3463 108.015,-85.5329 105.307,-84.6272"/>
<polygon fill="midnightblue" stroke="midnightblue" points="106.359,-81.2839 95.7664,-81.0639 103.91,-87.8415 106.359,-81.2839"/>
</g>
<!-- Node6 -->
<g id="node6" class="node"><title>Node6</title>
<g id="a_node6"><a xlink:href="allocators_8h.html" target="_top" xlink:title="allocators.h">
<polygon fill="white" stroke="black" points="747.416,-62 747.416,-81 815.416,-81 815.416,-62 747.416,-62"/>
<text text-anchor="middle" x="781.416" y="-69" font-family="Helvetica,sans-Serif" font-size="10.00">allocators.h</text>
</a>
</g>
</g>
<!-- Node5&#45;&gt;Node6 -->
<g id="edge5" class="edge"><title>Node5&#45;&gt;Node6</title>
<path fill="none" stroke="midnightblue" d="M604.592,-124.083C637.886,-115.492 692.119,-101.106 738.416,-87 741.336,-86.1102 744.358,-85.1576 747.383,-84.1816"/>
<polygon fill="midnightblue" stroke="midnightblue" points="748.536,-87.4867 756.938,-81.0323 746.345,-80.8385 748.536,-87.4867"/>
</g>
<!-- Node5&#45;&gt;Node7 -->
<g id="edge16" class="edge"><title>Node5&#45;&gt;Node7</title>
<path fill="none" stroke="midnightblue" d="M573.416,-123.298C573.416,-103.85 573.416,-56.49 573.416,-29.9036"/>
<polygon fill="midnightblue" stroke="midnightblue" points="576.916,-29.6231 573.416,-19.6232 569.916,-29.6232 576.916,-29.6231"/>
</g>
<!-- Node8 -->
<g id="node8" class="node"><title>Node8</title>
<polygon fill="white" stroke="#bfbfbf" points="942.916,-0.5 942.916,-19.5 991.916,-19.5 991.916,-0.5 942.916,-0.5"/>
<text text-anchor="middle" x="967.416" y="-7.5" font-family="Helvetica,sans-Serif" font-size="10.00">string.h</text>
</g>
<!-- Node5&#45;&gt;Node8 -->
<g id="edge20" class="edge"><title>Node5&#45;&gt;Node8</title>
<path fill="none" stroke="midnightblue" d="M604.497,-130.876C694.849,-127.293 952.622,-114.709 977.416,-87 991.379,-71.3954 984.4,-46.2628 976.948,-29.2093"/>
<polygon fill="midnightblue" stroke="midnightblue" points="979.911,-27.2942 972.429,-19.7925 973.6,-30.3225 979.911,-27.2942"/>
</g>
<!-- Node12 -->
<g id="node12" class="node"><title>Node12</title>
<polygon fill="white" stroke="#bfbfbf" points="601.416,-62 601.416,-81 659.416,-81 659.416,-62 601.416,-62"/>
<text text-anchor="middle" x="630.416" y="-69" font-family="Helvetica,sans-Serif" font-size="10.00">algorithm</text>
</g>
<!-- Node5&#45;&gt;Node12 -->
<g id="edge12" class="edge"><title>Node5&#45;&gt;Node12</title>
<path fill="none" stroke="midnightblue" d="M581.583,-123.475C590.302,-114.373 604.32,-99.741 615.105,-88.483"/>
<polygon fill="midnightblue" stroke="midnightblue" points="617.874,-90.6515 622.264,-81.0091 612.819,-85.809 617.874,-90.6515"/>
</g>
<!-- Node13 -->
<g id="node13" class="node"><title>Node13</title>
<polygon fill="white" stroke="#bfbfbf" points="677.416,-62 677.416,-81 729.416,-81 729.416,-62 677.416,-62"/>
<text text-anchor="middle" x="703.416" y="-69" font-family="Helvetica,sans-Serif" font-size="10.00">assert.h</text>
</g>
<!-- Node5&#45;&gt;Node13 -->
<g id="edge13" class="edge"><title>Node5&#45;&gt;Node13</title>
<path fill="none" stroke="midnightblue" d="M592.042,-123.475C613.859,-113.49 650.22,-96.8476 675.433,-85.3075"/>
<polygon fill="midnightblue" stroke="midnightblue" points="677.188,-88.3534 684.825,-81.0091 674.275,-81.9884 677.188,-88.3534"/>
</g>
<!-- Node14 -->
<g id="node14" class="node"><title>Node14</title>
<polygon fill="white" stroke="#bfbfbf" points="833.916,-62 833.916,-81 872.916,-81 872.916,-62 833.916,-62"/>
<text text-anchor="middle" x="853.416" y="-69" font-family="Helvetica,sans-Serif" font-size="10.00">limits</text>
</g>
<!-- Node5&#45;&gt;Node14 -->
<g id="edge14" class="edge"><title>Node5&#45;&gt;Node14</title>
<path fill="none" stroke="midnightblue" d="M604.644,-129.297C652.823,-124.487 747.736,-112.455 824.416,-87 826.032,-86.4635 827.671,-85.8514 829.305,-85.1889"/>
<polygon fill="midnightblue" stroke="midnightblue" points="830.777,-88.3645 838.414,-81.0214 827.865,-81.9991 830.777,-88.3645"/>
</g>
<!-- Node15 -->
<g id="node15" class="node"><title>Node15</title>
<polygon fill="white" stroke="#bfbfbf" points="890.916,-62 890.916,-81 919.916,-81 919.916,-62 890.916,-62"/>
<text text-anchor="middle" x="905.416" y="-69" font-family="Helvetica,sans-Serif" font-size="10.00">ios</text>
</g>
<!-- Node5&#45;&gt;Node15 -->
<g id="edge15" class="edge"><title>Node5&#45;&gt;Node15</title>
<path fill="none" stroke="midnightblue" d="M604.556,-131.494C661.274,-129.699 784.511,-121.746 881.416,-87 882.298,-86.6837 883.183,-86.333 884.066,-85.9548"/>
<polygon fill="midnightblue" stroke="midnightblue" points="885.956,-88.9158 893.184,-81.1697 882.703,-82.7175 885.956,-88.9158"/>
</g>
<!-- Node16 -->
<g id="node16" class="node"><title>Node16</title>
<polygon fill="white" stroke="#bfbfbf" points="938.416,-62 938.416,-81 968.416,-81 968.416,-62 938.416,-62"/>
<text text-anchor="middle" x="953.416" y="-69" font-family="Helvetica,sans-Serif" font-size="10.00">set</text>
</g>
<!-- Node5&#45;&gt;Node16 -->
<g id="edge17" class="edge"><title>Node5&#45;&gt;Node16</title>
<path fill="none" stroke="midnightblue" d="M604.73,-132.158C667.745,-131.59 813.646,-125.778 928.416,-87 929.486,-86.6386 930.56,-86.2288 931.631,-85.7817"/>
<polygon fill="midnightblue" stroke="midnightblue" points="933.584,-88.7148 940.91,-81.0603 930.41,-82.476 933.584,-88.7148"/>
</g>
<!-- Node17 -->
<g id="node17" class="node"><title>Node17</title>
<polygon fill="white" stroke="#bfbfbf" points="193.916,-62 193.916,-81 242.916,-81 242.916,-62 193.916,-62"/>
<text text-anchor="middle" x="218.416" y="-69" font-family="Helvetica,sans-Serif" font-size="10.00">stdint.h</text>
</g>
<!-- Node5&#45;&gt;Node17 -->
<g id="edge18" class="edge"><title>Node5&#45;&gt;Node17</title>
<path fill="none" stroke="midnightblue" d="M542.198,-130.488C484,-127.047 355.407,-116.501 251.416,-87 249.264,-86.3894 247.069,-85.6666 244.886,-84.8748"/>
<polygon fill="midnightblue" stroke="midnightblue" points="246.136,-81.6052 235.554,-81.096 243.509,-88.0935 246.136,-81.6052"/>
</g>
<!-- Node18 -->
<g id="node18" class="node"><title>Node18</title>
<polygon fill="white" stroke="#bfbfbf" points="260.916,-62 260.916,-81 299.916,-81 299.916,-62 260.916,-62"/>
<text text-anchor="middle" x="280.416" y="-69" font-family="Helvetica,sans-Serif" font-size="10.00">utility</text>
</g>
<!-- Node5&#45;&gt;Node18 -->
<g id="edge21" class="edge"><title>Node5&#45;&gt;Node18</title>
<path fill="none" stroke="midnightblue" d="M542.054,-129.826C491.667,-125.64 390.061,-114.33 308.416,-87 306.988,-86.5221 305.544,-85.9796 304.104,-85.3918"/>
<polygon fill="midnightblue" stroke="midnightblue" points="305.403,-82.1354 294.863,-81.0621 302.433,-88.4742 305.403,-82.1354"/>
</g>
<!-- Node19 -->
<g id="node19" class="node"><title>Node19</title>
<polygon fill="white" stroke="#bfbfbf" points="317.916,-62 317.916,-81 426.916,-81 426.916,-62 317.916,-62"/>
<text text-anchor="middle" x="372.416" y="-69" font-family="Helvetica,sans-Serif" font-size="10.00">boost/tuple/tuple.hpp</text>
</g>
<!-- Node5&#45;&gt;Node19 -->
<g id="edge23" class="edge"><title>Node5&#45;&gt;Node19</title>
<path fill="none" stroke="midnightblue" d="M544.618,-123.475C509.542,-113.092 450.153,-95.5116 411.109,-83.9538"/>
<polygon fill="midnightblue" stroke="midnightblue" points="411.743,-80.4916 401.161,-81.0091 409.756,-87.2036 411.743,-80.4916"/>
</g>
<!-- Node20 -->
<g id="node20" class="node"><title>Node20</title>
<polygon fill="white" stroke="#bfbfbf" points="445.416,-56.5 445.416,-86.5 545.416,-86.5 545.416,-56.5 445.416,-56.5"/>
<text text-anchor="start" x="453.416" y="-74.5" font-family="Helvetica,sans-Serif" font-size="10.00">boost/type_traits/is</text>
<text text-anchor="middle" x="495.416" y="-63.5" font-family="Helvetica,sans-Serif" font-size="10.00">_fundamental.hpp</text>
</g>
<!-- Node5&#45;&gt;Node20 -->
<g id="edge24" class="edge"><title>Node5&#45;&gt;Node20</title>
<path fill="none" stroke="midnightblue" d="M562.24,-123.475C551.775,-115.492 535.732,-103.254 521.989,-92.7703"/>
<polygon fill="midnightblue" stroke="midnightblue" points="523.873,-89.8053 513.799,-86.523 519.627,-95.3708 523.873,-89.8053"/>
</g>
<!-- Node6&#45;&gt;Node3 -->
<g id="edge7" class="edge"><title>Node6&#45;&gt;Node3</title>
<path fill="none" stroke="midnightblue" d="M759.395,-61.8635C752.749,-59.5884 745.37,-57.3851 738.416,-56 615.338,-31.4856 221.822,-16.0674 108.327,-12.0496"/>
<polygon fill="midnightblue" stroke="midnightblue" points="108.353,-8.5485 98.2366,-11.6965 108.108,-15.5442 108.353,-8.5485"/>
</g>
<!-- Node6&#45;&gt;Node7 -->
<g id="edge6" class="edge"><title>Node6&#45;&gt;Node7</title>
<path fill="none" stroke="midnightblue" d="M756.938,-61.9677C750.905,-59.9418 744.445,-57.8369 738.416,-56 690.746,-41.4758 634.661,-26.654 601.684,-18.1676"/>
<polygon fill="midnightblue" stroke="midnightblue" points="602.385,-14.7342 591.83,-15.6433 600.648,-21.5153 602.385,-14.7342"/>
</g>
<!-- Node6&#45;&gt;Node8 -->
<g id="edge8" class="edge"><title>Node6&#45;&gt;Node8</title>
<path fill="none" stroke="midnightblue" d="M806.399,-61.9798C812.299,-59.9941 818.573,-57.9042 824.416,-56 861.493,-43.9161 904.155,-30.562 933.163,-21.5641"/>
<polygon fill="midnightblue" stroke="midnightblue" points="934.306,-24.8743 942.823,-18.5723 932.235,-18.1876 934.306,-24.8743"/>
</g>
<!-- Node9 -->
<g id="node9" class="node"><title>Node9</title>
<polygon fill="white" stroke="#bfbfbf" points="1140.42,-0.5 1140.42,-19.5 1262.42,-19.5 1262.42,-0.5 1140.42,-0.5"/>
<text text-anchor="middle" x="1201.42" y="-7.5" font-family="Helvetica,sans-Serif" font-size="10.00">boost/thread/mutex.hpp</text>
</g>
<!-- Node6&#45;&gt;Node9 -->
<g id="edge9" class="edge"><title>Node6&#45;&gt;Node9</title>
<path fill="none" stroke="midnightblue" d="M803.929,-61.9346C810.459,-59.7171 817.653,-57.5266 824.416,-56 929.487,-32.2812 1054.03,-20.5073 1130.38,-15.0933"/>
<polygon fill="midnightblue" stroke="midnightblue" points="1130.63,-18.5844 1140.36,-14.402 1130.15,-11.6011 1130.63,-18.5844"/>
</g>
<!-- Node10 -->
<g id="node10" class="node"><title>Node10</title>
<polygon fill="white" stroke="#bfbfbf" points="751.416,-0.5 751.416,-19.5 867.416,-19.5 867.416,-0.5 751.416,-0.5"/>
<text text-anchor="middle" x="809.416" y="-7.5" font-family="Helvetica,sans-Serif" font-size="10.00">boost/thread/once.hpp</text>
</g>
<!-- Node6&#45;&gt;Node10 -->
<g id="edge10" class="edge"><title>Node6&#45;&gt;Node10</title>
<path fill="none" stroke="midnightblue" d="M785.428,-61.9751C789.503,-53.3152 795.934,-39.6486 801.112,-28.6453"/>
<polygon fill="midnightblue" stroke="midnightblue" points="804.321,-30.0476 805.412,-19.5091 797.987,-27.067 804.321,-30.0476"/>
</g>
<!-- Node11 -->
<g id="node11" class="node"><title>Node11</title>
<polygon fill="white" stroke="#bfbfbf" points="643.916,-0.5 643.916,-19.5 732.916,-19.5 732.916,-0.5 643.916,-0.5"/>
<text text-anchor="middle" x="688.416" y="-7.5" font-family="Helvetica,sans-Serif" font-size="10.00">openssl/crypto.h</text>
</g>
<!-- Node6&#45;&gt;Node11 -->
<g id="edge11" class="edge"><title>Node6&#45;&gt;Node11</title>
<path fill="none" stroke="midnightblue" d="M768.091,-61.9751C753.036,-52.3431 728.3,-36.5175 710.379,-25.0517"/>
<polygon fill="midnightblue" stroke="midnightblue" points="712.026,-21.9501 701.716,-19.5091 708.253,-27.8466 712.026,-21.9501"/>
</g>
<!-- Node21&#45;&gt;Node9 -->
<g id="edge29" class="edge"><title>Node21&#45;&gt;Node9</title>
<path fill="none" stroke="midnightblue" d="M1173.17,-125.056C1210.29,-113.624 1280.09,-91.6423 1283.42,-87 1291.45,-75.8048 1290.43,-67.8565 1283.42,-56 1274.44,-40.8399 1258.35,-30.4475 1242.78,-23.5044"/>
<polygon fill="midnightblue" stroke="midnightblue" points="1243.81,-20.1428 1233.22,-19.6153 1241.17,-26.6265 1243.81,-20.1428"/>
</g>
<!-- Node22 -->
<g id="node22" class="node"><title>Node22</title>
<g id="a_node22"><a xlink:href="threadsafety_8h.html" target="_top" xlink:title="threadsafety.h">
<polygon fill="white" stroke="black" points="1331.42,-62 1331.42,-81 1411.42,-81 1411.42,-62 1331.42,-62"/>
<text text-anchor="middle" x="1371.42" y="-69" font-family="Helvetica,sans-Serif" font-size="10.00">threadsafety.h</text>
</a>
</g>
</g>
<!-- Node21&#45;&gt;Node22 -->
<g id="edge26" class="edge"><title>Node21&#45;&gt;Node22</title>
<path fill="none" stroke="midnightblue" d="M1173.13,-125.57C1176.25,-124.7 1179.41,-123.823 1182.42,-123 1242.31,-106.593 1257.43,-103.052 1317.42,-87 1321.48,-85.9132 1325.71,-84.779 1329.94,-83.6447"/>
<polygon fill="midnightblue" stroke="midnightblue" points="1330.97,-86.9918 1339.72,-81.0198 1329.16,-80.2309 1330.97,-86.9918"/>
</g>
<!-- Node23 -->
<g id="node23" class="node"><title>Node23</title>
<polygon fill="white" stroke="#bfbfbf" points="1429.92,-56.5 1429.92,-86.5 1544.92,-86.5 1544.92,-56.5 1429.92,-56.5"/>
<text text-anchor="start" x="1437.92" y="-74.5" font-family="Helvetica,sans-Serif" font-size="10.00">boost/thread/condition</text>
<text text-anchor="middle" x="1487.42" y="-63.5" font-family="Helvetica,sans-Serif" font-size="10.00">_variable.hpp</text>
</g>
<!-- Node21&#45;&gt;Node23 -->
<g id="edge27" class="edge"><title>Node21&#45;&gt;Node23</title>
<path fill="none" stroke="midnightblue" d="M1173.05,-125.258C1176.18,-124.436 1179.37,-123.656 1182.42,-123 1283.93,-101.134 1313.48,-106.006 1419.87,-87.0143"/>
<polygon fill="midnightblue" stroke="midnightblue" points="1420.5,-90.4568 1429.72,-85.2282 1419.25,-83.5692 1420.5,-90.4568"/>
</g>
<!-- Node24 -->
<g id="node24" class="node"><title>Node24</title>
<polygon fill="white" stroke="#bfbfbf" points="1024.92,-62 1024.92,-81 1141.92,-81 1141.92,-62 1024.92,-62"/>
<text text-anchor="middle" x="1083.42" y="-69" font-family="Helvetica,sans-Serif" font-size="10.00">boost/thread/locks.hpp</text>
</g>
<!-- Node21&#45;&gt;Node24 -->
<g id="edge28" class="edge"><title>Node21&#45;&gt;Node24</title>
<path fill="none" stroke="midnightblue" d="M1140.82,-123.475C1130.37,-114.197 1113.45,-99.1706 1100.68,-87.831"/>
<polygon fill="midnightblue" stroke="midnightblue" points="1102.8,-85.0323 1093,-81.0091 1098.15,-90.2663 1102.8,-85.0323"/>
</g>
<!-- Node25 -->
<g id="node25" class="node"><title>Node25</title>
<polygon fill="white" stroke="#bfbfbf" points="1159.92,-56.5 1159.92,-86.5 1274.92,-86.5 1274.92,-56.5 1159.92,-56.5"/>
<text text-anchor="start" x="1167.92" y="-74.5" font-family="Helvetica,sans-Serif" font-size="10.00">boost/thread/recursive</text>
<text text-anchor="middle" x="1217.42" y="-63.5" font-family="Helvetica,sans-Serif" font-size="10.00">_mutex.hpp</text>
</g>
<!-- Node21&#45;&gt;Node25 -->
<g id="edge30" class="edge"><title>Node21&#45;&gt;Node25</title>
<path fill="none" stroke="midnightblue" d="M1160.02,-123.475C1168.84,-115.643 1182.27,-103.714 1193.92,-93.3656"/>
<polygon fill="midnightblue" stroke="midnightblue" points="1196.47,-95.7802 1201.63,-86.523 1191.82,-90.5462 1196.47,-95.7802"/>
</g>
</g>
</svg>
