<?xml version="1.0" encoding="UTF-8" standalone="no"?>
<!DOCTYPE svg PUBLIC "-//W3C//DTD SVG 1.1//EN"
 "http://www.w3.org/Graphics/SVG/1.1/DTD/svg11.dtd">
<!-- Generated by graphviz version 2.38.0 (20140413.2041)
 -->
<!-- Title: src/compat/glibcxx_compat.cpp Pages: 1 -->
<svg width="272pt" height="95pt"
 viewBox="0.00 0.00 271.50 95.00" xmlns="http://www.w3.org/2000/svg" xmlns:xlink="http://www.w3.org/1999/xlink">
<g id="graph0" class="graph" transform="scale(1 1) rotate(0) translate(4 91)">
<title>src/compat/glibcxx_compat.cpp</title>
<polygon fill="white" stroke="none" points="-4,4 -4,-91 267.5,-91 267.5,4 -4,4"/>
<!-- Node1 -->
<g id="node1" class="node"><title>Node1</title>
<polygon fill="#bfbfbf" stroke="black" points="78,-56.5 78,-86.5 177,-86.5 177,-56.5 78,-56.5"/>
<text text-anchor="start" x="86" y="-74.5" font-family="Helvetica,sans-Serif" font-size="10.00">src/compat/glibcxx</text>
<text text-anchor="middle" x="127.5" y="-63.5" font-family="Helvetica,sans-Serif" font-size="10.00">_compat.cpp</text>
</g>
<!-- Node2 -->
<g id="node2" class="node"><title>Node2</title>
<polygon fill="white" stroke="#bfbfbf" points="0,-0.5 0,-19.5 49,-19.5 49,-0.5 0,-0.5"/>
<text text-anchor="middle" x="24.5" y="-7.5" font-family="Helvetica,sans-Serif" font-size="10.00">cstddef</text>
</g>
<!-- Node1&#45;&gt;Node2 -->
<g id="edge1" class="edge"><title>Node1&#45;&gt;Node2</title>
<path fill="none" stroke="midnightblue" d="M103.09,-56.3993C86.5803,-46.8619 64.8773,-34.3248 48.4622,-24.8422"/>
<polygon fill="midnightblue" stroke="midnightblue" points="49.8972,-21.6292 39.4874,-19.6578 46.3957,-27.6906 49.8972,-21.6292"/>
</g>
<!-- Node3 -->
<g id="node3" class="node"><title>Node3</title>
<polygon fill="white" stroke="#bfbfbf" points="67,-0.5 67,-19.5 116,-19.5 116,-0.5 67,-0.5"/>
<text text-anchor="middle" x="91.5" y="-7.5" font-family="Helvetica,sans-Serif" font-size="10.00">istream</text>
</g>
<!-- Node1&#45;&gt;Node3 -->
<g id="edge2" class="edge"><title>Node1&#45;&gt;Node3</title>
<path fill="none" stroke="midnightblue" d="M118.969,-56.3993C113.899,-48.0207 107.429,-37.3269 102.042,-28.4229"/>
<polygon fill="midnightblue" stroke="midnightblue" points="104.91,-26.4018 96.7383,-19.6578 98.9205,-30.0255 104.91,-26.4018"/>
</g>
<!-- Node4 -->
<g id="node4" class="node"><title>Node4</title>
<polygon fill="white" stroke="#bfbfbf" points="134,-0.5 134,-19.5 193,-19.5 193,-0.5 134,-0.5"/>
<text text-anchor="middle" x="163.5" y="-7.5" font-family="Helvetica,sans-Serif" font-size="10.00">stdexcept</text>
</g>
<!-- Node1&#45;&gt;Node4 -->
<g id="edge3" class="edge"><title>Node1&#45;&gt;Node4</title>
<path fill="none" stroke="midnightblue" d="M136.031,-56.3993C141.101,-48.0207 147.571,-37.3269 152.958,-28.4229"/>
<polygon fill="midnightblue" stroke="midnightblue" points="156.08,-30.0255 158.262,-19.6578 150.09,-26.4018 156.08,-30.0255"/>
</g>
<!-- Node5 -->
<g id="node5" class="node"><title>Node5</title>
<polygon fill="white" stroke="#bfbfbf" points="211.5,-0.5 211.5,-19.5 263.5,-19.5 263.5,-0.5 211.5,-0.5"/>
<text text-anchor="middle" x="237.5" y="-7.5" font-family="Helvetica,sans-Serif" font-size="10.00">typeinfo</text>
</g>
<!-- Node1&#45;&gt;Node5 -->
<g id="edge4" class="edge"><title>Node1&#45;&gt;Node5</title>
<path fill="none" stroke="midnightblue" d="M153.568,-56.3993C171.365,-46.7728 194.812,-34.0902 212.399,-24.5772"/>
<polygon fill="midnightblue" stroke="midnightblue" points="214.364,-27.494 221.494,-19.6578 211.033,-21.337 214.364,-27.494"/>
</g>
</g>
</svg>
