<?xml version="1.0" encoding="UTF-8" standalone="no"?>
<!DOCTYPE svg PUBLIC "-//W3C//DTD SVG 1.1//EN"
 "http://www.w3.org/Graphics/SVG/1.1/DTD/svg11.dtd">
<!-- Generated by graphviz version 2.38.0 (20140413.2041)
 -->
<!-- Title: src/qt/guiutil.h Pages: 1 -->
<svg width="710pt" height="84pt"
 viewBox="0.00 0.00 710.00 84.00" xmlns="http://www.w3.org/2000/svg" xmlns:xlink="http://www.w3.org/1999/xlink">
<g id="graph0" class="graph" transform="scale(1 1) rotate(0) translate(4 80)">
<title>src/qt/guiutil.h</title>
<polygon fill="white" stroke="none" points="-4,4 -4,-80 706,-80 706,4 -4,4"/>
<!-- Node1 -->
<g id="node1" class="node"><title>Node1</title>
<polygon fill="#bfbfbf" stroke="black" points="296,-56.5 296,-75.5 374,-75.5 374,-56.5 296,-56.5"/>
<text text-anchor="middle" x="335" y="-63.5" font-family="Helvetica,sans-Serif" font-size="10.00">src/qt/guiutil.h</text>
</g>
<!-- Node2 -->
<g id="node2" class="node"><title>Node2</title>
<polygon fill="white" stroke="#bfbfbf" points="0,-0.5 0,-19.5 50,-19.5 50,-0.5 0,-0.5"/>
<text text-anchor="middle" x="25" y="-7.5" font-family="Helvetica,sans-Serif" font-size="10.00">QEvent</text>
</g>
<!-- Node1&#45;&gt;Node2 -->
<g id="edge1" class="edge"><title>Node1&#45;&gt;Node2</title>
<path fill="none" stroke="midnightblue" d="M295.926,-59.8489C244.133,-52.7538 149.739,-38.898 59.9768,-20.0396"/>
<polygon fill="midnightblue" stroke="midnightblue" points="60.6947,-16.6141 50.1855,-17.9583 59.2392,-23.4611 60.6947,-16.6141"/>
</g>
<!-- Node3 -->
<g id="node3" class="node"><title>Node3</title>
<polygon fill="white" stroke="#bfbfbf" points="68.5,-0.5 68.5,-19.5 147.5,-19.5 147.5,-0.5 68.5,-0.5"/>
<text text-anchor="middle" x="108" y="-7.5" font-family="Helvetica,sans-Serif" font-size="10.00">QHeaderView</text>
</g>
<!-- Node1&#45;&gt;Node3 -->
<g id="edge2" class="edge"><title>Node1&#45;&gt;Node3</title>
<path fill="none" stroke="midnightblue" d="M299.031,-56.4435C259.681,-47.0826 196.513,-32.0561 153.686,-21.868"/>
<polygon fill="midnightblue" stroke="midnightblue" points="154.339,-18.4258 143.801,-19.5164 152.719,-25.2358 154.339,-18.4258"/>
</g>
<!-- Node4 -->
<g id="node4" class="node"><title>Node4</title>
<polygon fill="white" stroke="#bfbfbf" points="166,-0.5 166,-19.5 248,-19.5 248,-0.5 166,-0.5"/>
<text text-anchor="middle" x="207" y="-7.5" font-family="Helvetica,sans-Serif" font-size="10.00">QMessageBox</text>
</g>
<!-- Node1&#45;&gt;Node4 -->
<g id="edge3" class="edge"><title>Node1&#45;&gt;Node4</title>
<path fill="none" stroke="midnightblue" d="M314.718,-56.4435C293.653,-47.5566 260.483,-33.5632 236.514,-23.4514"/>
<polygon fill="midnightblue" stroke="midnightblue" points="237.761,-20.1787 227.187,-19.5164 235.04,-26.6283 237.761,-20.1787"/>
</g>
<!-- Node5 -->
<g id="node5" class="node"><title>Node5</title>
<polygon fill="white" stroke="#bfbfbf" points="266.5,-0.5 266.5,-19.5 319.5,-19.5 319.5,-0.5 266.5,-0.5"/>
<text text-anchor="middle" x="293" y="-7.5" font-family="Helvetica,sans-Serif" font-size="10.00">QObject</text>
</g>
<!-- Node1&#45;&gt;Node5 -->
<g id="edge4" class="edge"><title>Node1&#45;&gt;Node5</title>
<path fill="none" stroke="midnightblue" d="M328.065,-56.083C322.071,-48.3768 313.248,-37.0333 305.952,-27.6531"/>
<polygon fill="midnightblue" stroke="midnightblue" points="308.709,-25.4958 299.806,-19.7511 303.183,-29.7934 308.709,-25.4958"/>
</g>
<!-- Node6 -->
<g id="node6" class="node"><title>Node6</title>
<polygon fill="white" stroke="#bfbfbf" points="338,-0.5 338,-19.5 418,-19.5 418,-0.5 338,-0.5"/>
<text text-anchor="middle" x="378" y="-7.5" font-family="Helvetica,sans-Serif" font-size="10.00">QProgressBar</text>
</g>
<!-- Node1&#45;&gt;Node6 -->
<g id="edge5" class="edge"><title>Node1&#45;&gt;Node6</title>
<path fill="none" stroke="midnightblue" d="M342.101,-56.083C348.237,-48.3768 357.27,-37.0333 364.739,-27.6531"/>
<polygon fill="midnightblue" stroke="midnightblue" points="367.54,-29.7542 371.032,-19.7511 362.064,-25.3936 367.54,-29.7542"/>
</g>
<!-- Node7 -->
<g id="node7" class="node"><title>Node7</title>
<polygon fill="white" stroke="#bfbfbf" points="436,-0.5 436,-19.5 486,-19.5 486,-0.5 436,-0.5"/>
<text text-anchor="middle" x="461" y="-7.5" font-family="Helvetica,sans-Serif" font-size="10.00">QString</text>
</g>
<!-- Node1&#45;&gt;Node7 -->
<g id="edge6" class="edge"><title>Node1&#45;&gt;Node7</title>
<path fill="none" stroke="midnightblue" d="M354.965,-56.4435C375.609,-47.5961 408.063,-33.6875 431.632,-23.5865"/>
<polygon fill="midnightblue" stroke="midnightblue" points="433.316,-26.6727 441.128,-19.5164 430.558,-20.2387 433.316,-26.6727"/>
</g>
<!-- Node8 -->
<g id="node8" class="node"><title>Node8</title>
<polygon fill="white" stroke="#bfbfbf" points="504.5,-0.5 504.5,-19.5 575.5,-19.5 575.5,-0.5 504.5,-0.5"/>
<text text-anchor="middle" x="540" y="-7.5" font-family="Helvetica,sans-Serif" font-size="10.00">QTableView</text>
</g>
<!-- Node1&#45;&gt;Node8 -->
<g id="edge7" class="edge"><title>Node1&#45;&gt;Node8</title>
<path fill="none" stroke="midnightblue" d="M367.483,-56.4435C402.72,-47.1616 459.104,-32.3093 497.759,-22.127"/>
<polygon fill="midnightblue" stroke="midnightblue" points="498.891,-25.4483 507.669,-19.5164 497.107,-18.6792 498.891,-25.4483"/>
</g>
<!-- Node9 -->
<g id="node9" class="node"><title>Node9</title>
<polygon fill="white" stroke="#bfbfbf" points="594,-0.5 594,-19.5 702,-19.5 702,-0.5 594,-0.5"/>
<text text-anchor="middle" x="648" y="-7.5" font-family="Helvetica,sans-Serif" font-size="10.00">boost/filesystem.hpp</text>
</g>
<!-- Node1&#45;&gt;Node9 -->
<g id="edge8" class="edge"><title>Node1&#45;&gt;Node9</title>
<path fill="none" stroke="midnightblue" d="M374.009,-58.27C427.875,-48.9768 525.505,-32.1333 588.505,-21.2643"/>
<polygon fill="midnightblue" stroke="midnightblue" points="589.432,-24.6561 598.692,-19.5069 588.242,-17.7581 589.432,-24.6561"/>
</g>
</g>
</svg>
