<?xml version="1.0" encoding="UTF-8" standalone="no"?>
<!DOCTYPE svg PUBLIC "-//W3C//DTD SVG 1.1//EN"
 "http://www.w3.org/Graphics/SVG/1.1/DTD/svg11.dtd">
<!-- Generated by graphviz version 2.38.0 (20140413.2041)
 -->
<!-- Title: src/qt/i2poptionswidget.cpp Pages: 1 -->
<svg width="3591pt" height="196pt"
 viewBox="0.00 0.00 3591.00 196.00" xmlns="http://www.w3.org/2000/svg" xmlns:xlink="http://www.w3.org/1999/xlink">
<g id="graph0" class="graph" transform="scale(1 1) rotate(0) translate(4 192)">
<title>src/qt/i2poptionswidget.cpp</title>
<polygon fill="white" stroke="none" points="-4,4 -4,-192 3587,-192 3587,4 -4,4"/>
<!-- Node1 -->
<g id="node1" class="node"><title>Node1</title>
<polygon fill="#bfbfbf" stroke="black" points="2195,-168.5 2195,-187.5 2332,-187.5 2332,-168.5 2195,-168.5"/>
<text text-anchor="middle" x="2263.5" y="-175.5" font-family="Helvetica,sans-Serif" font-size="10.00">src/qt/i2poptionswidget.cpp</text>
</g>
<!-- Node2 -->
<g id="node2" class="node"><title>Node2</title>
<g id="a_node2"><a xlink:href="i2poptionswidget_8h.html" target="_top" xlink:title="i2poptionswidget.h">
<polygon fill="white" stroke="black" points="451,-112.5 451,-131.5 550,-131.5 550,-112.5 451,-112.5"/>
<text text-anchor="middle" x="500.5" y="-119.5" font-family="Helvetica,sans-Serif" font-size="10.00">i2poptionswidget.h</text>
</a>
</g>
</g>
<!-- Node1&#45;&gt;Node2 -->
<g id="edge1" class="edge"><title>Node1&#45;&gt;Node2</title>
<path fill="none" stroke="midnightblue" d="M2194.93,-174.9C1910.72,-166.195 827.666,-133.021 560.393,-124.835"/>
<polygon fill="midnightblue" stroke="midnightblue" points="560.224,-121.328 550.122,-124.52 560.01,-128.325 560.224,-121.328"/>
</g>
<!-- Node4 -->
<g id="node4" class="node"><title>Node4</title>
<g id="a_node4"><a xlink:href="ui__i2poptionswidget_8h.html" target="_top" xlink:title="ui_i2poptionswidget.h">
<polygon fill="white" stroke="black" points="1111,-112.5 1111,-131.5 1224,-131.5 1224,-112.5 1111,-112.5"/>
<text text-anchor="middle" x="1167.5" y="-119.5" font-family="Helvetica,sans-Serif" font-size="10.00">ui_i2poptionswidget.h</text>
</a>
</g>
</g>
<!-- Node1&#45;&gt;Node4 -->
<g id="edge3" class="edge"><title>Node1&#45;&gt;Node4</title>
<path fill="none" stroke="midnightblue" d="M2194.94,-173.622C1997.54,-163.896 1429.56,-135.912 1234.34,-126.293"/>
<polygon fill="midnightblue" stroke="midnightblue" points="1234.38,-122.791 1224.22,-125.795 1234.04,-129.783 1234.38,-122.791"/>
</g>
<!-- Node20 -->
<g id="node20" class="node"><title>Node20</title>
<g id="a_node20"><a xlink:href="optionsmodel_8h.html" target="_top" xlink:title="optionsmodel.h">
<polygon fill="white" stroke="black" points="2099.5,-112.5 2099.5,-131.5 2183.5,-131.5 2183.5,-112.5 2099.5,-112.5"/>
<text text-anchor="middle" x="2141.5" y="-119.5" font-family="Helvetica,sans-Serif" font-size="10.00">optionsmodel.h</text>
</a>
</g>
</g>
<!-- Node1&#45;&gt;Node20 -->
<g id="edge19" class="edge"><title>Node1&#45;&gt;Node20</title>
<path fill="none" stroke="midnightblue" d="M2244.17,-168.444C2224.18,-159.596 2192.76,-145.687 2169.94,-135.586"/>
<polygon fill="midnightblue" stroke="midnightblue" points="2171.3,-132.363 2160.74,-131.516 2168.47,-138.764 2171.3,-132.363"/>
</g>
<!-- Node22 -->
<g id="node22" class="node"><title>Node22</title>
<g id="a_node22"><a xlink:href="monitoreddatamapper_8h.html" target="_top" xlink:title="monitoreddatamapper.h">
<polygon fill="white" stroke="black" points="2202,-112.5 2202,-131.5 2325,-131.5 2325,-112.5 2202,-112.5"/>
<text text-anchor="middle" x="2263.5" y="-119.5" font-family="Helvetica,sans-Serif" font-size="10.00">monitoreddatamapper.h</text>
</a>
</g>
</g>
<!-- Node1&#45;&gt;Node22 -->
<g id="edge21" class="edge"><title>Node1&#45;&gt;Node22</title>
<path fill="none" stroke="midnightblue" d="M2263.5,-168.083C2263.5,-161.006 2263.5,-150.861 2263.5,-141.986"/>
<polygon fill="midnightblue" stroke="midnightblue" points="2267,-141.751 2263.5,-131.751 2260,-141.751 2267,-141.751"/>
</g>
<!-- Node24 -->
<g id="node24" class="node"><title>Node24</title>
<g id="a_node24"><a xlink:href="i2pshowaddresses_8h.html" target="_top" xlink:title="i2pshowaddresses.h">
<polygon fill="white" stroke="black" points="2343.5,-112.5 2343.5,-131.5 2451.5,-131.5 2451.5,-112.5 2343.5,-112.5"/>
<text text-anchor="middle" x="2397.5" y="-119.5" font-family="Helvetica,sans-Serif" font-size="10.00">i2pshowaddresses.h</text>
</a>
</g>
</g>
<!-- Node1&#45;&gt;Node24 -->
<g id="edge23" class="edge"><title>Node1&#45;&gt;Node24</title>
<path fill="none" stroke="midnightblue" d="M2284.73,-168.444C2306.88,-159.517 2341.82,-145.439 2366.94,-135.317"/>
<polygon fill="midnightblue" stroke="midnightblue" points="2368.4,-138.501 2376.37,-131.516 2365.78,-132.008 2368.4,-138.501"/>
</g>
<!-- Node26 -->
<g id="node26" class="node"><title>Node26</title>
<g id="a_node26"><a xlink:href="util_8h.html" target="_top" xlink:title="util.h">
<polygon fill="white" stroke="black" points="2992.5,-112.5 2992.5,-131.5 3030.5,-131.5 3030.5,-112.5 2992.5,-112.5"/>
<text text-anchor="middle" x="3011.5" y="-119.5" font-family="Helvetica,sans-Serif" font-size="10.00">util.h</text>
</a>
</g>
</g>
<!-- Node1&#45;&gt;Node26 -->
<g id="edge25" class="edge"><title>Node1&#45;&gt;Node26</title>
<path fill="none" stroke="midnightblue" d="M2332.2,-172.041C2490.02,-160.647 2873.29,-132.978 2982.2,-125.116"/>
<polygon fill="midnightblue" stroke="midnightblue" points="2982.7,-128.588 2992.43,-124.377 2982.2,-121.606 2982.7,-128.588"/>
</g>
<!-- Node49 -->
<g id="node49" class="node"><title>Node49</title>
<g id="a_node49"><a xlink:href="clientmodel_8h.html" target="_top" xlink:title="clientmodel.h">
<polygon fill="white" stroke="black" points="3284,-112.5 3284,-131.5 3359,-131.5 3359,-112.5 3284,-112.5"/>
<text text-anchor="middle" x="3321.5" y="-119.5" font-family="Helvetica,sans-Serif" font-size="10.00">clientmodel.h</text>
</a>
</g>
</g>
<!-- Node1&#45;&gt;Node49 -->
<g id="edge54" class="edge"><title>Node1&#45;&gt;Node49</title>
<path fill="none" stroke="midnightblue" d="M2332.1,-173.499C2530.91,-163.352 3103.98,-134.102 3273.63,-125.443"/>
<polygon fill="midnightblue" stroke="midnightblue" points="3273.94,-128.932 3283.75,-124.927 3273.59,-121.941 3273.94,-128.932"/>
</g>
<!-- Node3 -->
<g id="node3" class="node"><title>Node3</title>
<polygon fill="white" stroke="#bfbfbf" points="0,-56.5 0,-75.5 55,-75.5 55,-56.5 0,-56.5"/>
<text text-anchor="middle" x="27.5" y="-63.5" font-family="Helvetica,sans-Serif" font-size="10.00">QWidget</text>
</g>
<!-- Node2&#45;&gt;Node3 -->
<g id="edge2" class="edge"><title>Node2&#45;&gt;Node3</title>
<path fill="none" stroke="midnightblue" d="M450.835,-118.077C371.419,-112.921 210.841,-100.524 65.3028,-75.906"/>
<polygon fill="midnightblue" stroke="midnightblue" points="65.7434,-72.4306 55.2956,-74.1896 64.56,-79.3298 65.7434,-72.4306"/>
</g>
<!-- Node5 -->
<g id="node5" class="node"><title>Node5</title>
<polygon fill="white" stroke="#bfbfbf" points="1718,-56.5 1718,-75.5 1809,-75.5 1809,-56.5 1718,-56.5"/>
<text text-anchor="middle" x="1763.5" y="-63.5" font-family="Helvetica,sans-Serif" font-size="10.00">QtCore/QVariant</text>
</g>
<!-- Node4&#45;&gt;Node5 -->
<g id="edge4" class="edge"><title>Node4&#45;&gt;Node5</title>
<path fill="none" stroke="midnightblue" d="M1224.12,-117.772C1320.97,-111.925 1524.87,-98.2039 1707.84,-75.979"/>
<polygon fill="midnightblue" stroke="midnightblue" points="1708.42,-79.4345 1717.92,-74.7436 1707.57,-72.4865 1708.42,-79.4345"/>
</g>
<!-- Node6 -->
<g id="node6" class="node"><title>Node6</title>
<polygon fill="white" stroke="#bfbfbf" points="1827.5,-56.5 1827.5,-75.5 1929.5,-75.5 1929.5,-56.5 1827.5,-56.5"/>
<text text-anchor="middle" x="1878.5" y="-63.5" font-family="Helvetica,sans-Serif" font-size="10.00">QtWidgets/QAction</text>
</g>
<!-- Node4&#45;&gt;Node6 -->
<g id="edge5" class="edge"><title>Node4&#45;&gt;Node6</title>
<path fill="none" stroke="midnightblue" d="M1224.14,-118.555C1335.54,-113.426 1591.13,-100.071 1817.22,-75.9339"/>
<polygon fill="midnightblue" stroke="midnightblue" points="1817.71,-79.4009 1827.28,-74.8503 1816.96,-72.4412 1817.71,-79.4009"/>
</g>
<!-- Node7 -->
<g id="node7" class="node"><title>Node7</title>
<polygon fill="white" stroke="#bfbfbf" points="1948,-56.5 1948,-75.5 2071,-75.5 2071,-56.5 1948,-56.5"/>
<text text-anchor="middle" x="2009.5" y="-63.5" font-family="Helvetica,sans-Serif" font-size="10.00">QtWidgets/QApplication</text>
</g>
<!-- Node4&#45;&gt;Node7 -->
<g id="edge6" class="edge"><title>Node4&#45;&gt;Node7</title>
<path fill="none" stroke="midnightblue" d="M1224.19,-119.008C1350.34,-114.291 1664.03,-100.987 1937.82,-75.9927"/>
<polygon fill="midnightblue" stroke="midnightblue" points="1938.32,-79.4621 1947.95,-75.0607 1937.68,-72.4915 1938.32,-79.4621"/>
</g>
<!-- Node8 -->
<g id="node8" class="node"><title>Node8</title>
<polygon fill="white" stroke="#bfbfbf" points="73.5,-56.5 73.5,-75.5 203.5,-75.5 203.5,-56.5 73.5,-56.5"/>
<text text-anchor="middle" x="138.5" y="-63.5" font-family="Helvetica,sans-Serif" font-size="10.00">QtWidgets/QButtonGroup</text>
</g>
<!-- Node4&#45;&gt;Node8 -->
<g id="edge7" class="edge"><title>Node4&#45;&gt;Node8</title>
<path fill="none" stroke="midnightblue" d="M1110.89,-119.793C964.387,-116.357 560.591,-104.893 213.827,-76.0495"/>
<polygon fill="midnightblue" stroke="midnightblue" points="214.1,-72.5602 203.843,-75.2128 213.516,-79.5358 214.1,-72.5602"/>
</g>
<!-- Node9 -->
<g id="node9" class="node"><title>Node9</title>
<polygon fill="white" stroke="#bfbfbf" points="222,-56.5 222,-75.5 341,-75.5 341,-56.5 222,-56.5"/>
<text text-anchor="middle" x="281.5" y="-63.5" font-family="Helvetica,sans-Serif" font-size="10.00">QtWidgets/QCheckBox</text>
</g>
<!-- Node4&#45;&gt;Node9 -->
<g id="edge8" class="edge"><title>Node4&#45;&gt;Node9</title>
<path fill="none" stroke="midnightblue" d="M1110.86,-119.379C979.339,-115.293 642.854,-102.985 351.519,-76.1229"/>
<polygon fill="midnightblue" stroke="midnightblue" points="351.456,-72.602 341.175,-75.1612 350.808,-79.5719 351.456,-72.602"/>
</g>
<!-- Node10 -->
<g id="node10" class="node"><title>Node10</title>
<polygon fill="white" stroke="#bfbfbf" points="359,-56.5 359,-75.5 478,-75.5 478,-56.5 359,-56.5"/>
<text text-anchor="middle" x="418.5" y="-63.5" font-family="Helvetica,sans-Serif" font-size="10.00">QtWidgets/QGroupBox</text>
</g>
<!-- Node4&#45;&gt;Node10 -->
<g id="edge9" class="edge"><title>Node4&#45;&gt;Node10</title>
<path fill="none" stroke="midnightblue" d="M1110.98,-118.478C995.936,-113.08 726.069,-99.0685 488.528,-76.0363"/>
<polygon fill="midnightblue" stroke="midnightblue" points="488.605,-72.5273 478.312,-75.0383 487.925,-79.4942 488.605,-72.5273"/>
</g>
<!-- Node11 -->
<g id="node11" class="node"><title>Node11</title>
<polygon fill="white" stroke="#bfbfbf" points="496.5,-56.5 496.5,-75.5 624.5,-75.5 624.5,-56.5 496.5,-56.5"/>
<text text-anchor="middle" x="560.5" y="-63.5" font-family="Helvetica,sans-Serif" font-size="10.00">QtWidgets/QHBoxLayout</text>
</g>
<!-- Node4&#45;&gt;Node11 -->
<g id="edge10" class="edge"><title>Node4&#45;&gt;Node11</title>
<path fill="none" stroke="midnightblue" d="M1110.92,-116.953C1015.18,-109.947 814.856,-94.6072 634.77,-76.0953"/>
<polygon fill="midnightblue" stroke="midnightblue" points="634.885,-72.5886 624.578,-75.042 634.165,-79.5516 634.885,-72.5886"/>
</g>
<!-- Node12 -->
<g id="node12" class="node"><title>Node12</title>
<polygon fill="white" stroke="#bfbfbf" points="642.5,-56.5 642.5,-75.5 770.5,-75.5 770.5,-56.5 642.5,-56.5"/>
<text text-anchor="middle" x="706.5" y="-63.5" font-family="Helvetica,sans-Serif" font-size="10.00">QtWidgets/QHeaderView</text>
</g>
<!-- Node4&#45;&gt;Node12 -->
<g id="edge11" class="edge"><title>Node4&#45;&gt;Node12</title>
<path fill="none" stroke="midnightblue" d="M1110.94,-114.569C1037.37,-106.176 904.568,-90.9274 780.639,-76.1292"/>
<polygon fill="midnightblue" stroke="midnightblue" points="780.936,-72.6399 770.591,-74.9281 780.105,-79.5904 780.936,-72.6399"/>
</g>
<!-- Node13 -->
<g id="node13" class="node"><title>Node13</title>
<polygon fill="white" stroke="#bfbfbf" points="788.5,-56.5 788.5,-75.5 886.5,-75.5 886.5,-56.5 788.5,-56.5"/>
<text text-anchor="middle" x="837.5" y="-63.5" font-family="Helvetica,sans-Serif" font-size="10.00">QtWidgets/QLabel</text>
</g>
<!-- Node4&#45;&gt;Node13 -->
<g id="edge12" class="edge"><title>Node4&#45;&gt;Node13</title>
<path fill="none" stroke="midnightblue" d="M1115.21,-112.444C1055.73,-102.71 958.819,-86.8522 896.634,-76.6764"/>
<polygon fill="midnightblue" stroke="midnightblue" points="897.017,-73.1927 886.583,-75.0318 895.887,-80.1009 897.017,-73.1927"/>
</g>
<!-- Node14 -->
<g id="node14" class="node"><title>Node14</title>
<polygon fill="white" stroke="#bfbfbf" points="904.5,-56.5 904.5,-75.5 1014.5,-75.5 1014.5,-56.5 904.5,-56.5"/>
<text text-anchor="middle" x="959.5" y="-63.5" font-family="Helvetica,sans-Serif" font-size="10.00">QtWidgets/QLineEdit</text>
</g>
<!-- Node4&#45;&gt;Node14 -->
<g id="edge13" class="edge"><title>Node4&#45;&gt;Node14</title>
<path fill="none" stroke="midnightblue" d="M1134.54,-112.444C1098.71,-103.142 1041.34,-88.246 1002.11,-78.062"/>
<polygon fill="midnightblue" stroke="midnightblue" points="1002.86,-74.6417 992.304,-75.5164 1001.1,-81.4171 1002.86,-74.6417"/>
</g>
<!-- Node15 -->
<g id="node15" class="node"><title>Node15</title>
<polygon fill="white" stroke="#bfbfbf" points="1033,-56.5 1033,-75.5 1158,-75.5 1158,-56.5 1033,-56.5"/>
<text text-anchor="middle" x="1095.5" y="-63.5" font-family="Helvetica,sans-Serif" font-size="10.00">QtWidgets/QPushButton</text>
</g>
<!-- Node4&#45;&gt;Node15 -->
<g id="edge14" class="edge"><title>Node4&#45;&gt;Node15</title>
<path fill="none" stroke="midnightblue" d="M1155.93,-112.324C1145.08,-104.185 1128.62,-91.8395 1115.62,-82.0874"/>
<polygon fill="midnightblue" stroke="midnightblue" points="1117.38,-79.0339 1107.28,-75.8339 1113.18,-84.6339 1117.38,-79.0339"/>
</g>
<!-- Node16 -->
<g id="node16" class="node"><title>Node16</title>
<polygon fill="white" stroke="#bfbfbf" points="1176,-56.5 1176,-75.5 1301,-75.5 1301,-56.5 1176,-56.5"/>
<text text-anchor="middle" x="1238.5" y="-63.5" font-family="Helvetica,sans-Serif" font-size="10.00">QtWidgets/QSpacerItem</text>
</g>
<!-- Node4&#45;&gt;Node16 -->
<g id="edge15" class="edge"><title>Node4&#45;&gt;Node16</title>
<path fill="none" stroke="midnightblue" d="M1178.91,-112.324C1189.61,-104.185 1205.84,-91.8395 1218.66,-82.0874"/>
<polygon fill="midnightblue" stroke="midnightblue" points="1221.04,-84.6734 1226.89,-75.8339 1216.81,-79.1018 1221.04,-84.6734"/>
</g>
<!-- Node17 -->
<g id="node17" class="node"><title>Node17</title>
<polygon fill="white" stroke="#bfbfbf" points="1319,-56.5 1319,-75.5 1430,-75.5 1430,-56.5 1319,-56.5"/>
<text text-anchor="middle" x="1374.5" y="-63.5" font-family="Helvetica,sans-Serif" font-size="10.00">QtWidgets/QSpinBox</text>
</g>
<!-- Node4&#45;&gt;Node17 -->
<g id="edge16" class="edge"><title>Node4&#45;&gt;Node17</title>
<path fill="none" stroke="midnightblue" d="M1200.3,-112.444C1235.88,-103.162 1292.81,-88.3093 1331.85,-78.127"/>
<polygon fill="midnightblue" stroke="midnightblue" points="1333.06,-81.4274 1341.85,-75.5164 1331.29,-74.6541 1333.06,-81.4274"/>
</g>
<!-- Node18 -->
<g id="node18" class="node"><title>Node18</title>
<polygon fill="white" stroke="#bfbfbf" points="1448.5,-56.5 1448.5,-75.5 1576.5,-75.5 1576.5,-56.5 1448.5,-56.5"/>
<text text-anchor="middle" x="1512.5" y="-63.5" font-family="Helvetica,sans-Serif" font-size="10.00">QtWidgets/QVBoxLayout</text>
</g>
<!-- Node4&#45;&gt;Node18 -->
<g id="edge17" class="edge"><title>Node4&#45;&gt;Node18</title>
<path fill="none" stroke="midnightblue" d="M1222.17,-112.444C1283.49,-102.846 1382.86,-87.2916 1447.95,-77.1037"/>
<polygon fill="midnightblue" stroke="midnightblue" points="1448.75,-80.5208 1458.09,-75.5164 1447.67,-73.605 1448.75,-80.5208"/>
</g>
<!-- Node19 -->
<g id="node19" class="node"><title>Node19</title>
<polygon fill="white" stroke="#bfbfbf" points="1595,-56.5 1595,-75.5 1700,-75.5 1700,-56.5 1595,-56.5"/>
<text text-anchor="middle" x="1647.5" y="-63.5" font-family="Helvetica,sans-Serif" font-size="10.00">QtWidgets/QWidget</text>
</g>
<!-- Node4&#45;&gt;Node19 -->
<g id="edge18" class="edge"><title>Node4&#45;&gt;Node19</title>
<path fill="none" stroke="midnightblue" d="M1224.03,-115.582C1302.48,-107.916 1449.05,-93.0588 1584.6,-76.0713"/>
<polygon fill="midnightblue" stroke="midnightblue" points="1585.27,-79.5145 1594.75,-74.792 1584.39,-72.5694 1585.27,-79.5145"/>
</g>
<!-- Node21 -->
<g id="node21" class="node"><title>Node21</title>
<polygon fill="white" stroke="#bfbfbf" points="2089.5,-56.5 2089.5,-75.5 2193.5,-75.5 2193.5,-56.5 2089.5,-56.5"/>
<text text-anchor="middle" x="2141.5" y="-63.5" font-family="Helvetica,sans-Serif" font-size="10.00">QAbstractListModel</text>
</g>
<!-- Node20&#45;&gt;Node21 -->
<g id="edge20" class="edge"><title>Node20&#45;&gt;Node21</title>
<path fill="none" stroke="midnightblue" d="M2141.5,-112.083C2141.5,-105.006 2141.5,-94.8611 2141.5,-85.9865"/>
<polygon fill="midnightblue" stroke="midnightblue" points="2145,-85.751 2141.5,-75.7511 2138,-85.7511 2145,-85.751"/>
</g>
<!-- Node23 -->
<g id="node23" class="node"><title>Node23</title>
<polygon fill="white" stroke="#bfbfbf" points="2211.5,-56.5 2211.5,-75.5 2321.5,-75.5 2321.5,-56.5 2211.5,-56.5"/>
<text text-anchor="middle" x="2266.5" y="-63.5" font-family="Helvetica,sans-Serif" font-size="10.00">QDataWidgetMapper</text>
</g>
<!-- Node22&#45;&gt;Node23 -->
<g id="edge22" class="edge"><title>Node22&#45;&gt;Node23</title>
<path fill="none" stroke="midnightblue" d="M2264,-112.083C2264.39,-105.006 2264.95,-94.8611 2265.45,-85.9865"/>
<polygon fill="midnightblue" stroke="midnightblue" points="2268.95,-85.9299 2266.01,-75.7511 2261.96,-85.5415 2268.95,-85.9299"/>
</g>
<!-- Node25 -->
<g id="node25" class="node"><title>Node25</title>
<polygon fill="white" stroke="#bfbfbf" points="2340,-56.5 2340,-75.5 2393,-75.5 2393,-56.5 2340,-56.5"/>
<text text-anchor="middle" x="2366.5" y="-63.5" font-family="Helvetica,sans-Serif" font-size="10.00">QDialog</text>
</g>
<!-- Node24&#45;&gt;Node25 -->
<g id="edge24" class="edge"><title>Node24&#45;&gt;Node25</title>
<path fill="none" stroke="midnightblue" d="M2392.38,-112.083C2388.09,-104.613 2381.84,-93.7244 2376.56,-84.5199"/>
<polygon fill="midnightblue" stroke="midnightblue" points="2379.54,-82.6811 2371.52,-75.7511 2373.47,-86.1662 2379.54,-82.6811"/>
</g>
<!-- Node27 -->
<g id="node27" class="node"><title>Node27</title>
<g id="a_node27"><a xlink:href="compat_8h.html" target="_top" xlink:title="compat.h">
<polygon fill="white" stroke="red" points="2849.5,-56.5 2849.5,-75.5 2907.5,-75.5 2907.5,-56.5 2849.5,-56.5"/>
<text text-anchor="middle" x="2878.5" y="-63.5" font-family="Helvetica,sans-Serif" font-size="10.00">compat.h</text>
</a>
</g>
</g>
<!-- Node26&#45;&gt;Node27 -->
<g id="edge26" class="edge"><title>Node26&#45;&gt;Node27</title>
<path fill="none" stroke="midnightblue" d="M2992.44,-113.263C2970.66,-104.419 2934.71,-89.8218 2909.01,-79.3891"/>
<polygon fill="midnightblue" stroke="midnightblue" points="2910.3,-76.1343 2899.72,-75.6152 2907.67,-82.6201 2910.3,-76.1343"/>
</g>
<!-- Node31 -->
<g id="node31" class="node"><title>Node31</title>
<polygon fill="white" stroke="#bfbfbf" points="2892,-0.5 2892,-19.5 2959,-19.5 2959,-0.5 2892,-0.5"/>
<text text-anchor="middle" x="2925.5" y="-7.5" font-family="Helvetica,sans-Serif" font-size="10.00">sys/types.h</text>
</g>
<!-- Node26&#45;&gt;Node31 -->
<g id="edge51" class="edge"><title>Node26&#45;&gt;Node31</title>
<path fill="none" stroke="midnightblue" d="M3004.75,-112.368C2990.5,-94.135 2957.11,-51.4257 2938.54,-27.6752"/>
<polygon fill="midnightblue" stroke="midnightblue" points="2941.13,-25.3138 2932.22,-19.5914 2935.62,-29.6253 2941.13,-25.3138"/>
</g>
<!-- Node35 -->
<g id="node35" class="node"><title>Node35</title>
<g id="a_node35"><a xlink:href="serialize_8h.html" target="_top" xlink:title="serialize.h">
<polygon fill="white" stroke="red" points="3077.5,-56.5 3077.5,-75.5 3139.5,-75.5 3139.5,-56.5 3077.5,-56.5"/>
<text text-anchor="middle" x="3108.5" y="-63.5" font-family="Helvetica,sans-Serif" font-size="10.00">serialize.h</text>
</a>
</g>
</g>
<!-- Node26&#45;&gt;Node35 -->
<g id="edge34" class="edge"><title>Node26&#45;&gt;Node35</title>
<path fill="none" stroke="midnightblue" d="M3027.08,-112.324C3042.5,-103.743 3066.31,-90.486 3084.21,-80.5224"/>
<polygon fill="midnightblue" stroke="midnightblue" points="3085.92,-83.5767 3092.95,-75.6545 3082.51,-77.4606 3085.92,-83.5767"/>
</g>
<!-- Node36 -->
<g id="node36" class="node"><title>Node36</title>
<polygon fill="white" stroke="#bfbfbf" points="2977.5,-0.5 2977.5,-19.5 3013.5,-19.5 3013.5,-0.5 2977.5,-0.5"/>
<text text-anchor="middle" x="2995.5" y="-7.5" font-family="Helvetica,sans-Serif" font-size="10.00">map</text>
</g>
<!-- Node26&#45;&gt;Node36 -->
<g id="edge43" class="edge"><title>Node26&#45;&gt;Node36</title>
<path fill="none" stroke="midnightblue" d="M3007.98,-112.208C3004.59,-103.261 2999.67,-88.9106 2997.5,-76 2994.93,-60.6709 2994.54,-43.0307 2994.74,-29.9984"/>
<polygon fill="midnightblue" stroke="midnightblue" points="2998.24,-29.9988 2995.02,-19.9058 2991.24,-29.8052 2998.24,-29.9988"/>
</g>
<!-- Node37 -->
<g id="node37" class="node"><title>Node37</title>
<polygon fill="white" stroke="#bfbfbf" points="3032,-0.5 3032,-19.5 3081,-19.5 3081,-0.5 3032,-0.5"/>
<text text-anchor="middle" x="3056.5" y="-7.5" font-family="Helvetica,sans-Serif" font-size="10.00">stdint.h</text>
</g>
<!-- Node26&#45;&gt;Node37 -->
<g id="edge45" class="edge"><title>Node26&#45;&gt;Node37</title>
<path fill="none" stroke="midnightblue" d="M3014.39,-112.499C3018.69,-100.001 3027.16,-75.9842 3035.5,-56 3039.32,-46.8359 3043.96,-36.8094 3047.9,-28.5513"/>
<polygon fill="midnightblue" stroke="midnightblue" points="3051.06,-30.0584 3052.26,-19.5322 3044.75,-27.0101 3051.06,-30.0584"/>
</g>
<!-- Node38 -->
<g id="node38" class="node"><title>Node38</title>
<polygon fill="white" stroke="#bfbfbf" points="3099,-0.5 3099,-19.5 3140,-19.5 3140,-0.5 3099,-0.5"/>
<text text-anchor="middle" x="3119.5" y="-7.5" font-family="Helvetica,sans-Serif" font-size="10.00">string</text>
</g>
<!-- Node26&#45;&gt;Node38 -->
<g id="edge46" class="edge"><title>Node26&#45;&gt;Node38</title>
<path fill="none" stroke="midnightblue" d="M3018.54,-112.274C3028.99,-99.495 3049.43,-75.1327 3068.5,-56 3078.92,-45.547 3091.32,-34.5732 3101.29,-26.0794"/>
<polygon fill="midnightblue" stroke="midnightblue" points="3103.6,-28.7127 3108.99,-19.5937 3099.09,-23.3586 3103.6,-28.7127"/>
</g>
<!-- Node39 -->
<g id="node39" class="node"><title>Node39</title>
<polygon fill="white" stroke="#bfbfbf" points="3158,-0.5 3158,-19.5 3197,-19.5 3197,-0.5 3158,-0.5"/>
<text text-anchor="middle" x="3177.5" y="-7.5" font-family="Helvetica,sans-Serif" font-size="10.00">utility</text>
</g>
<!-- Node26&#45;&gt;Node39 -->
<g id="edge47" class="edge"><title>Node26&#45;&gt;Node39</title>
<path fill="none" stroke="midnightblue" d="M3030.75,-119.546C3059.7,-116.394 3114.68,-106.529 3148.5,-76 3161.95,-63.8601 3169.51,-44.3035 3173.51,-29.8085"/>
<polygon fill="midnightblue" stroke="midnightblue" points="3176.95,-30.4614 3175.91,-19.9175 3170.15,-28.8069 3176.95,-30.4614"/>
</g>
<!-- Node40 -->
<g id="node40" class="node"><title>Node40</title>
<polygon fill="white" stroke="#bfbfbf" points="3215.5,-0.5 3215.5,-19.5 3259.5,-19.5 3259.5,-0.5 3215.5,-0.5"/>
<text text-anchor="middle" x="3237.5" y="-7.5" font-family="Helvetica,sans-Serif" font-size="10.00">vector</text>
</g>
<!-- Node26&#45;&gt;Node40 -->
<g id="edge48" class="edge"><title>Node26&#45;&gt;Node40</title>
<path fill="none" stroke="midnightblue" d="M3030.54,-118.689C3061.62,-114.269 3124.4,-102.582 3170.5,-76 3192.33,-63.4133 3212.36,-42.1383 3224.72,-27.3719"/>
<polygon fill="midnightblue" stroke="midnightblue" points="3227.49,-29.516 3231.07,-19.5447 3222.05,-25.1064 3227.49,-29.516"/>
</g>
<!-- Node41 -->
<g id="node41" class="node"><title>Node41</title>
<g id="a_node41"><a xlink:href="tinyformat_8h.html" target="_top" xlink:title="tinyformat.h">
<polygon fill="white" stroke="red" points="3234,-56.5 3234,-75.5 3303,-75.5 3303,-56.5 3234,-56.5"/>
<text text-anchor="middle" x="3268.5" y="-63.5" font-family="Helvetica,sans-Serif" font-size="10.00">tinyformat.h</text>
</a>
</g>
</g>
<!-- Node26&#45;&gt;Node41 -->
<g id="edge40" class="edge"><title>Node26&#45;&gt;Node41</title>
<path fill="none" stroke="midnightblue" d="M3030.82,-116.941C3071.48,-108.398 3166.82,-88.3646 3223.62,-76.4291"/>
<polygon fill="midnightblue" stroke="midnightblue" points="3224.69,-79.7809 3233.76,-74.2993 3223.25,-72.9305 3224.69,-79.7809"/>
</g>
<!-- Node42 -->
<g id="node42" class="node"><title>Node42</title>
<polygon fill="white" stroke="#bfbfbf" points="3321,-56.5 3321,-75.5 3364,-75.5 3364,-56.5 3321,-56.5"/>
<text text-anchor="middle" x="3342.5" y="-63.5" font-family="Helvetica,sans-Serif" font-size="10.00">cstdio</text>
</g>
<!-- Node26&#45;&gt;Node42 -->
<g id="edge41" class="edge"><title>Node26&#45;&gt;Node42</title>
<path fill="none" stroke="midnightblue" d="M3030.61,-119.031C3076.96,-114.068 3199.11,-99.8634 3310.83,-75.866"/>
<polygon fill="midnightblue" stroke="midnightblue" points="3311.89,-79.2171 3320.91,-73.6664 3310.4,-72.3779 3311.89,-79.2171"/>
</g>
<!-- Node43 -->
<g id="node43" class="node"><title>Node43</title>
<polygon fill="white" stroke="#bfbfbf" points="3382,-56.5 3382,-75.5 3441,-75.5 3441,-56.5 3382,-56.5"/>
<text text-anchor="middle" x="3411.5" y="-63.5" font-family="Helvetica,sans-Serif" font-size="10.00">exception</text>
</g>
<!-- Node26&#45;&gt;Node43 -->
<g id="edge42" class="edge"><title>Node26&#45;&gt;Node43</title>
<path fill="none" stroke="midnightblue" d="M3030.84,-119.344C3083.82,-114.649 3235.87,-100.128 3371.54,-76.1976"/>
<polygon fill="midnightblue" stroke="midnightblue" points="3372.47,-79.5879 3381.69,-74.3833 3371.23,-72.6971 3372.47,-79.5879"/>
</g>
<!-- Node44 -->
<g id="node44" class="node"><title>Node44</title>
<polygon fill="white" stroke="#bfbfbf" points="3459,-56.5 3459,-75.5 3512,-75.5 3512,-56.5 3459,-56.5"/>
<text text-anchor="middle" x="3485.5" y="-63.5" font-family="Helvetica,sans-Serif" font-size="10.00">stdarg.h</text>
</g>
<!-- Node26&#45;&gt;Node44 -->
<g id="edge44" class="edge"><title>Node26&#45;&gt;Node44</title>
<path fill="none" stroke="midnightblue" d="M3030.9,-120.049C3091.42,-116.864 3282.21,-105.189 3448.91,-76.0561"/>
<polygon fill="midnightblue" stroke="midnightblue" points="3449.6,-79.4871 3458.84,-74.2942 3448.38,-72.5947 3449.6,-79.4871"/>
</g>
<!-- Node45 -->
<g id="node45" class="node"><title>Node45</title>
<polygon fill="white" stroke="#bfbfbf" points="2411.5,-56.5 2411.5,-75.5 2493.5,-75.5 2493.5,-56.5 2411.5,-56.5"/>
<text text-anchor="middle" x="2452.5" y="-63.5" font-family="Helvetica,sans-Serif" font-size="10.00">sys/resource.h</text>
</g>
<!-- Node26&#45;&gt;Node45 -->
<g id="edge49" class="edge"><title>Node26&#45;&gt;Node45</title>
<path fill="none" stroke="midnightblue" d="M2992.48,-119.938C2926.4,-116.117 2700.54,-101.975 2503.6,-76.0343"/>
<polygon fill="midnightblue" stroke="midnightblue" points="2504.03,-72.5602 2493.65,-74.7104 2503.11,-79.4991 2504.03,-72.5602"/>
</g>
<!-- Node46 -->
<g id="node46" class="node"><title>Node46</title>
<polygon fill="white" stroke="#bfbfbf" points="2511.5,-56.5 2511.5,-75.5 2573.5,-75.5 2573.5,-56.5 2511.5,-56.5"/>
<text text-anchor="middle" x="2542.5" y="-63.5" font-family="Helvetica,sans-Serif" font-size="10.00">sys/time.h</text>
</g>
<!-- Node26&#45;&gt;Node46 -->
<g id="edge50" class="edge"><title>Node26&#45;&gt;Node46</title>
<path fill="none" stroke="midnightblue" d="M2992.15,-119.779C2932.7,-115.86 2747.35,-102.38 2584.1,-76.0913"/>
<polygon fill="midnightblue" stroke="midnightblue" points="2584.31,-72.5793 2573.88,-74.4232 2583.18,-79.4879 2584.31,-72.5793"/>
</g>
<!-- Node47 -->
<g id="node47" class="node"><title>Node47</title>
<polygon fill="white" stroke="#bfbfbf" points="2591.5,-56.5 2591.5,-75.5 2721.5,-75.5 2721.5,-56.5 2591.5,-56.5"/>
<text text-anchor="middle" x="2656.5" y="-63.5" font-family="Helvetica,sans-Serif" font-size="10.00">boost/filesystem/path.hpp</text>
</g>
<!-- Node26&#45;&gt;Node47 -->
<g id="edge52" class="edge"><title>Node26&#45;&gt;Node47</title>
<path fill="none" stroke="midnightblue" d="M2992.41,-118.097C2942.37,-110.484 2805.51,-89.6667 2722.74,-77.0762"/>
<polygon fill="midnightblue" stroke="midnightblue" points="2723.09,-73.589 2712.68,-75.5453 2722.04,-80.5094 2723.09,-73.589"/>
</g>
<!-- Node48 -->
<g id="node48" class="node"><title>Node48</title>
<polygon fill="white" stroke="#bfbfbf" points="2739.5,-56.5 2739.5,-75.5 2831.5,-75.5 2831.5,-56.5 2739.5,-56.5"/>
<text text-anchor="middle" x="2785.5" y="-63.5" font-family="Helvetica,sans-Serif" font-size="10.00">boost/thread.hpp</text>
</g>
<!-- Node26&#45;&gt;Node48 -->
<g id="edge53" class="edge"><title>Node26&#45;&gt;Node48</title>
<path fill="none" stroke="midnightblue" d="M2992.23,-116.396C2956.78,-107.925 2880.33,-89.6594 2830.99,-77.8703"/>
<polygon fill="midnightblue" stroke="midnightblue" points="2831.74,-74.4512 2821.21,-75.5313 2830.12,-81.2595 2831.74,-74.4512"/>
</g>
<!-- Node28 -->
<g id="node28" class="node"><title>Node28</title>
<polygon fill="white" stroke="#bfbfbf" points="2813,-0.5 2813,-19.5 2874,-19.5 2874,-0.5 2813,-0.5"/>
<text text-anchor="middle" x="2843.5" y="-7.5" font-family="Helvetica,sans-Serif" font-size="10.00">sys/fcntl.h</text>
</g>
<!-- Node27&#45;&gt;Node28 -->
<g id="edge27" class="edge"><title>Node27&#45;&gt;Node28</title>
<path fill="none" stroke="midnightblue" d="M2872.72,-56.083C2867.83,-48.5341 2860.67,-37.4948 2854.67,-28.2298"/>
<polygon fill="midnightblue" stroke="midnightblue" points="2857.55,-26.239 2849.17,-19.7511 2851.67,-30.0463 2857.55,-26.239"/>
</g>
<!-- Node29 -->
<g id="node29" class="node"><title>Node29</title>
<polygon fill="white" stroke="#bfbfbf" points="2403.5,-0.5 2403.5,-19.5 2473.5,-19.5 2473.5,-0.5 2403.5,-0.5"/>
<text text-anchor="middle" x="2438.5" y="-7.5" font-family="Helvetica,sans-Serif" font-size="10.00">sys/mman.h</text>
</g>
<!-- Node27&#45;&gt;Node29 -->
<g id="edge28" class="edge"><title>Node27&#45;&gt;Node29</title>
<path fill="none" stroke="midnightblue" d="M2849.12,-57.6359C2846.22,-57.0307 2843.31,-56.4716 2840.5,-56 2686.03,-30.0578 2642.37,-43.4749 2483.63,-20.017"/>
<polygon fill="midnightblue" stroke="midnightblue" points="2483.92,-16.5206 2473.51,-18.4944 2482.88,-23.4428 2483.92,-16.5206"/>
</g>
<!-- Node30 -->
<g id="node30" class="node"><title>Node30</title>
<polygon fill="white" stroke="#bfbfbf" points="2491.5,-0.5 2491.5,-19.5 2563.5,-19.5 2563.5,-0.5 2491.5,-0.5"/>
<text text-anchor="middle" x="2527.5" y="-7.5" font-family="Helvetica,sans-Serif" font-size="10.00">sys/socket.h</text>
</g>
<!-- Node27&#45;&gt;Node30 -->
<g id="edge29" class="edge"><title>Node27&#45;&gt;Node30</title>
<path fill="none" stroke="midnightblue" d="M2849.1,-57.7338C2846.2,-57.1088 2843.3,-56.5183 2840.5,-56 2725.44,-34.7012 2692.75,-39.5149 2573.68,-20.101"/>
<polygon fill="midnightblue" stroke="midnightblue" points="2574.25,-16.6478 2563.81,-18.4694 2573.11,-23.554 2574.25,-16.6478"/>
</g>
<!-- Node27&#45;&gt;Node31 -->
<g id="edge30" class="edge"><title>Node27&#45;&gt;Node31</title>
<path fill="none" stroke="midnightblue" d="M2886.26,-56.083C2893.04,-48.2982 2903.04,-36.8015 2911.26,-27.3665"/>
<polygon fill="midnightblue" stroke="midnightblue" points="2913.96,-29.592 2917.88,-19.7511 2908.68,-24.9963 2913.96,-29.592"/>
</g>
<!-- Node32 -->
<g id="node32" class="node"><title>Node32</title>
<polygon fill="white" stroke="#bfbfbf" points="2582,-0.5 2582,-19.5 2629,-19.5 2629,-0.5 2582,-0.5"/>
<text text-anchor="middle" x="2605.5" y="-7.5" font-family="Helvetica,sans-Serif" font-size="10.00">net/if.h</text>
</g>
<!-- Node27&#45;&gt;Node32 -->
<g id="edge31" class="edge"><title>Node27&#45;&gt;Node32</title>
<path fill="none" stroke="midnightblue" d="M2849.49,-57.9498C2846.46,-57.267 2843.42,-56.6044 2840.5,-56 2753.84,-38.0682 2728.54,-40.2495 2638.96,-20.1642"/>
<polygon fill="midnightblue" stroke="midnightblue" points="2639.73,-16.7499 2629.2,-17.9463 2638.17,-23.5758 2639.73,-16.7499"/>
</g>
<!-- Node33 -->
<g id="node33" class="node"><title>Node33</title>
<polygon fill="white" stroke="#bfbfbf" points="2647,-0.5 2647,-19.5 2712,-19.5 2712,-0.5 2647,-0.5"/>
<text text-anchor="middle" x="2679.5" y="-7.5" font-family="Helvetica,sans-Serif" font-size="10.00">netinet/in.h</text>
</g>
<!-- Node27&#45;&gt;Node33 -->
<g id="edge32" class="edge"><title>Node27&#45;&gt;Node33</title>
<path fill="none" stroke="midnightblue" d="M2849.14,-57.0321C2815.19,-47.8216 2759.1,-32.5991 2720.78,-22.2004"/>
<polygon fill="midnightblue" stroke="midnightblue" points="2721.52,-18.7771 2710.96,-19.536 2719.69,-25.5328 2721.52,-18.7771"/>
</g>
<!-- Node34 -->
<g id="node34" class="node"><title>Node34</title>
<polygon fill="white" stroke="#bfbfbf" points="2730.5,-0.5 2730.5,-19.5 2794.5,-19.5 2794.5,-0.5 2730.5,-0.5"/>
<text text-anchor="middle" x="2762.5" y="-7.5" font-family="Helvetica,sans-Serif" font-size="10.00">arpa/inet.h</text>
</g>
<!-- Node27&#45;&gt;Node34 -->
<g id="edge33" class="edge"><title>Node27&#45;&gt;Node34</title>
<path fill="none" stroke="midnightblue" d="M2860.12,-56.4435C2841.28,-47.6751 2811.77,-33.9355 2790.12,-23.8579"/>
<polygon fill="midnightblue" stroke="midnightblue" points="2791.34,-20.5637 2780.79,-19.5164 2788.38,-26.9098 2791.34,-20.5637"/>
</g>
<!-- Node35&#45;&gt;Node36 -->
<g id="edge35" class="edge"><title>Node35&#45;&gt;Node36</title>
<path fill="none" stroke="midnightblue" d="M3090.59,-56.4435C3072.25,-47.6751 3043.49,-33.9355 3022.41,-23.8579"/>
<polygon fill="midnightblue" stroke="midnightblue" points="3023.85,-20.6703 3013.32,-19.5164 3020.83,-26.9862 3023.85,-20.6703"/>
</g>
<!-- Node35&#45;&gt;Node37 -->
<g id="edge36" class="edge"><title>Node35&#45;&gt;Node37</title>
<path fill="none" stroke="midnightblue" d="M3099.91,-56.083C3092.34,-48.2195 3081.12,-36.5688 3071.99,-27.0813"/>
<polygon fill="midnightblue" stroke="midnightblue" points="3074.38,-24.5266 3064.93,-19.7511 3069.34,-29.3821 3074.38,-24.5266"/>
</g>
<!-- Node35&#45;&gt;Node38 -->
<g id="edge37" class="edge"><title>Node35&#45;&gt;Node38</title>
<path fill="none" stroke="midnightblue" d="M3110.32,-56.083C3111.77,-48.9272 3113.87,-38.6353 3115.69,-29.6911"/>
<polygon fill="midnightblue" stroke="midnightblue" points="3119.15,-30.2485 3117.72,-19.7511 3112.29,-28.8512 3119.15,-30.2485"/>
</g>
<!-- Node35&#45;&gt;Node39 -->
<g id="edge38" class="edge"><title>Node35&#45;&gt;Node39</title>
<path fill="none" stroke="midnightblue" d="M3119.59,-56.324C3129.99,-48.1849 3145.76,-35.8395 3158.22,-26.0874"/>
<polygon fill="midnightblue" stroke="midnightblue" points="3160.49,-28.7533 3166.21,-19.8339 3156.18,-23.2407 3160.49,-28.7533"/>
</g>
<!-- Node35&#45;&gt;Node40 -->
<g id="edge39" class="edge"><title>Node35&#45;&gt;Node40</title>
<path fill="none" stroke="midnightblue" d="M3128.94,-56.4435C3150.17,-47.5566 3183.6,-33.5632 3207.75,-23.4514"/>
<polygon fill="midnightblue" stroke="midnightblue" points="3209.28,-26.6064 3217.16,-19.5164 3206.58,-20.1493 3209.28,-26.6064"/>
</g>
<!-- Node50 -->
<g id="node50" class="node"><title>Node50</title>
<polygon fill="white" stroke="#bfbfbf" points="3530,-56.5 3530,-75.5 3583,-75.5 3583,-56.5 3530,-56.5"/>
<text text-anchor="middle" x="3556.5" y="-63.5" font-family="Helvetica,sans-Serif" font-size="10.00">QObject</text>
</g>
<!-- Node49&#45;&gt;Node50 -->
<g id="edge55" class="edge"><title>Node49&#45;&gt;Node50</title>
<path fill="none" stroke="midnightblue" d="M3359.18,-112.88C3397.4,-104.564 3458.5,-91.053 3519.91,-76.3349"/>
<polygon fill="midnightblue" stroke="midnightblue" points="3520.86,-79.7058 3529.77,-73.963 3519.23,-72.9001 3520.86,-79.7058"/>
</g>
</g>
</svg>
