<?xml version="1.0" encoding="UTF-8" standalone="no"?>
<!DOCTYPE svg PUBLIC "-//W3C//DTD SVG 1.1//EN"
 "http://www.w3.org/Graphics/SVG/1.1/DTD/svg11.dtd">
<!-- Generated by graphviz version 2.38.0 (20140413.2041)
 -->
<!-- Title: src/i2psam/i2psam.cpp Pages: 1 -->
<svg width="810pt" height="140pt"
 viewBox="0.00 0.00 809.50 140.00" xmlns="http://www.w3.org/2000/svg" xmlns:xlink="http://www.w3.org/1999/xlink">
<g id="graph0" class="graph" transform="scale(1 1) rotate(0) translate(4 136)">
<title>src/i2psam/i2psam.cpp</title>
<polygon fill="white" stroke="none" points="-4,4 -4,-136 805.5,-136 805.5,4 -4,4"/>
<!-- Node1 -->
<g id="node1" class="node"><title>Node1</title>
<polygon fill="#bfbfbf" stroke="black" points="448,-112.5 448,-131.5 567,-131.5 567,-112.5 448,-112.5"/>
<text text-anchor="middle" x="507.5" y="-119.5" font-family="Helvetica,sans-Serif" font-size="10.00">src/i2psam/i2psam.cpp</text>
</g>
<!-- Node2 -->
<g id="node2" class="node"><title>Node2</title>
<g id="a_node2"><a xlink:href="i2psam_8h.html" target="_top" xlink:title="i2psam.h">
<polygon fill="white" stroke="black" points="203,-56.5 203,-75.5 260,-75.5 260,-56.5 203,-56.5"/>
<text text-anchor="middle" x="231.5" y="-63.5" font-family="Helvetica,sans-Serif" font-size="10.00">i2psam.h</text>
</a>
</g>
</g>
<!-- Node1&#45;&gt;Node2 -->
<g id="edge1" class="edge"><title>Node1&#45;&gt;Node2</title>
<path fill="none" stroke="midnightblue" d="M458.597,-112.428C412.557,-104.206 341.437,-91.1175 270.158,-76.0595"/>
<polygon fill="midnightblue" stroke="midnightblue" points="270.611,-72.5777 260.102,-73.922 269.156,-79.4247 270.611,-72.5777"/>
</g>
<!-- Node11 -->
<g id="node11" class="node"><title>Node11</title>
<polygon fill="white" stroke="#bfbfbf" points="278,-56.5 278,-75.5 333,-75.5 333,-56.5 278,-56.5"/>
<text text-anchor="middle" x="305.5" y="-63.5" font-family="Helvetica,sans-Serif" font-size="10.00">iostream</text>
</g>
<!-- Node1&#45;&gt;Node11 -->
<g id="edge10" class="edge"><title>Node1&#45;&gt;Node11</title>
<path fill="none" stroke="midnightblue" d="M475.492,-112.444C439.444,-102.807 380.933,-87.1653 342.833,-76.98"/>
<polygon fill="midnightblue" stroke="midnightblue" points="343.703,-73.5898 333.138,-74.3884 341.895,-80.3523 343.703,-73.5898"/>
</g>
<!-- Node12 -->
<g id="node12" class="node"><title>Node12</title>
<polygon fill="white" stroke="#bfbfbf" points="351.5,-56.5 351.5,-75.5 397.5,-75.5 397.5,-56.5 351.5,-56.5"/>
<text text-anchor="middle" x="374.5" y="-63.5" font-family="Helvetica,sans-Serif" font-size="10.00">stdio.h</text>
</g>
<!-- Node1&#45;&gt;Node12 -->
<g id="edge11" class="edge"><title>Node1&#45;&gt;Node12</title>
<path fill="none" stroke="midnightblue" d="M486.426,-112.444C464.44,-103.517 429.766,-89.4387 404.836,-79.3168"/>
<polygon fill="midnightblue" stroke="midnightblue" points="406.058,-76.0355 395.476,-75.5164 403.424,-82.5213 406.058,-76.0355"/>
</g>
<!-- Node13 -->
<g id="node13" class="node"><title>Node13</title>
<polygon fill="white" stroke="#bfbfbf" points="416,-56.5 416,-75.5 465,-75.5 465,-56.5 416,-56.5"/>
<text text-anchor="middle" x="440.5" y="-63.5" font-family="Helvetica,sans-Serif" font-size="10.00">string.h</text>
</g>
<!-- Node1&#45;&gt;Node13 -->
<g id="edge12" class="edge"><title>Node1&#45;&gt;Node13</title>
<path fill="none" stroke="midnightblue" d="M496.735,-112.324C486.734,-104.263 471.613,-92.0765 459.57,-82.3695"/>
<polygon fill="midnightblue" stroke="midnightblue" points="461.443,-79.3841 451.461,-75.8339 457.05,-84.8343 461.443,-79.3841"/>
</g>
<!-- Node14 -->
<g id="node14" class="node"><title>Node14</title>
<polygon fill="white" stroke="#bfbfbf" points="483.5,-56.5 483.5,-75.5 531.5,-75.5 531.5,-56.5 483.5,-56.5"/>
<text text-anchor="middle" x="507.5" y="-63.5" font-family="Helvetica,sans-Serif" font-size="10.00">stdlib.h</text>
</g>
<!-- Node1&#45;&gt;Node14 -->
<g id="edge13" class="edge"><title>Node1&#45;&gt;Node14</title>
<path fill="none" stroke="midnightblue" d="M507.5,-112.083C507.5,-105.006 507.5,-94.8611 507.5,-85.9865"/>
<polygon fill="midnightblue" stroke="midnightblue" points="511,-85.751 507.5,-75.7511 504,-85.7511 511,-85.751"/>
</g>
<!-- Node15 -->
<g id="node15" class="node"><title>Node15</title>
<polygon fill="white" stroke="#bfbfbf" points="549.5,-56.5 549.5,-75.5 593.5,-75.5 593.5,-56.5 549.5,-56.5"/>
<text text-anchor="middle" x="571.5" y="-63.5" font-family="Helvetica,sans-Serif" font-size="10.00">time.h</text>
</g>
<!-- Node1&#45;&gt;Node15 -->
<g id="edge14" class="edge"><title>Node1&#45;&gt;Node15</title>
<path fill="none" stroke="midnightblue" d="M517.783,-112.324C527.336,-104.263 541.78,-92.0765 553.284,-82.3695"/>
<polygon fill="midnightblue" stroke="midnightblue" points="555.644,-84.9577 561.03,-75.8339 551.13,-79.6076 555.644,-84.9577"/>
</g>
<!-- Node16 -->
<g id="node16" class="node"><title>Node16</title>
<polygon fill="white" stroke="#bfbfbf" points="612,-56.5 612,-75.5 665,-75.5 665,-56.5 612,-56.5"/>
<text text-anchor="middle" x="638.5" y="-63.5" font-family="Helvetica,sans-Serif" font-size="10.00">stdarg.h</text>
</g>
<!-- Node1&#45;&gt;Node16 -->
<g id="edge15" class="edge"><title>Node1&#45;&gt;Node16</title>
<path fill="none" stroke="midnightblue" d="M528.257,-112.444C549.816,-103.557 583.763,-89.5632 608.294,-79.4514"/>
<polygon fill="midnightblue" stroke="midnightblue" points="609.928,-82.5634 617.84,-75.5164 607.261,-76.0917 609.928,-82.5634"/>
</g>
<!-- Node17 -->
<g id="node17" class="node"><title>Node17</title>
<polygon fill="white" stroke="#bfbfbf" points="683.5,-56.5 683.5,-75.5 731.5,-75.5 731.5,-56.5 683.5,-56.5"/>
<text text-anchor="middle" x="707.5" y="-63.5" font-family="Helvetica,sans-Serif" font-size="10.00">errno.h</text>
</g>
<!-- Node1&#45;&gt;Node17 -->
<g id="edge16" class="edge"><title>Node1&#45;&gt;Node17</title>
<path fill="none" stroke="midnightblue" d="M539.212,-112.486C570.842,-103.987 621.08,-90.4691 673.535,-76.2559"/>
<polygon fill="midnightblue" stroke="midnightblue" points="674.616,-79.5894 683.352,-73.595 672.784,-72.8333 674.616,-79.5894"/>
</g>
<!-- Node18 -->
<g id="node18" class="node"><title>Node18</title>
<polygon fill="white" stroke="#bfbfbf" points="749.5,-56.5 749.5,-75.5 801.5,-75.5 801.5,-56.5 749.5,-56.5"/>
<text text-anchor="middle" x="775.5" y="-63.5" font-family="Helvetica,sans-Serif" font-size="10.00">unistd.h</text>
</g>
<!-- Node1&#45;&gt;Node18 -->
<g id="edge17" class="edge"><title>Node1&#45;&gt;Node18</title>
<path fill="none" stroke="midnightblue" d="M556.322,-112.465C601.374,-104.388 670.351,-91.5165 739.039,-76.2272"/>
<polygon fill="midnightblue" stroke="midnightblue" points="740.177,-79.5589 749.168,-73.9542 738.645,-72.7288 740.177,-79.5589"/>
</g>
<!-- Node3 -->
<g id="node3" class="node"><title>Node3</title>
<polygon fill="white" stroke="#bfbfbf" points="0,-0.5 0,-19.5 41,-19.5 41,-0.5 0,-0.5"/>
<text text-anchor="middle" x="20.5" y="-7.5" font-family="Helvetica,sans-Serif" font-size="10.00">string</text>
</g>
<!-- Node2&#45;&gt;Node3 -->
<g id="edge2" class="edge"><title>Node2&#45;&gt;Node3</title>
<path fill="none" stroke="midnightblue" d="M202.993,-58.4967C168.945,-50.6109 110.064,-36.6008 50.9259,-20.2863"/>
<polygon fill="midnightblue" stroke="midnightblue" points="51.6233,-16.8475 41.0511,-17.5408 49.7481,-23.5917 51.6233,-16.8475"/>
</g>
<!-- Node4 -->
<g id="node4" class="node"><title>Node4</title>
<polygon fill="white" stroke="#bfbfbf" points="59,-0.5 59,-19.5 88,-19.5 88,-0.5 59,-0.5"/>
<text text-anchor="middle" x="73.5" y="-7.5" font-family="Helvetica,sans-Serif" font-size="10.00">list</text>
</g>
<!-- Node2&#45;&gt;Node4 -->
<g id="edge3" class="edge"><title>Node2&#45;&gt;Node4</title>
<path fill="none" stroke="midnightblue" d="M204.465,-56.4387C179.033,-48.287 139.697,-35.4284 97.6418,-20.2974"/>
<polygon fill="midnightblue" stroke="midnightblue" points="98.6522,-16.9409 88.058,-16.8264 96.2685,-23.5226 98.6522,-16.9409"/>
</g>
<!-- Node5 -->
<g id="node5" class="node"><title>Node5</title>
<polygon fill="white" stroke="#bfbfbf" points="106,-0.5 106,-19.5 155,-19.5 155,-0.5 106,-0.5"/>
<text text-anchor="middle" x="130.5" y="-7.5" font-family="Helvetica,sans-Serif" font-size="10.00">stdint.h</text>
</g>
<!-- Node2&#45;&gt;Node5 -->
<g id="edge4" class="edge"><title>Node2&#45;&gt;Node5</title>
<path fill="none" stroke="midnightblue" d="M215.273,-56.324C199.149,-47.7034 174.2,-34.3643 155.536,-24.3855"/>
<polygon fill="midnightblue" stroke="midnightblue" points="157.156,-21.283 146.687,-19.6545 153.856,-27.456 157.156,-21.283"/>
</g>
<!-- Node6 -->
<g id="node6" class="node"><title>Node6</title>
<polygon fill="white" stroke="#bfbfbf" points="173,-0.5 173,-19.5 226,-19.5 226,-0.5 173,-0.5"/>
<text text-anchor="middle" x="199.5" y="-7.5" font-family="Helvetica,sans-Serif" font-size="10.00">memory</text>
</g>
<!-- Node2&#45;&gt;Node6 -->
<g id="edge5" class="edge"><title>Node2&#45;&gt;Node6</title>
<path fill="none" stroke="midnightblue" d="M226.216,-56.083C221.789,-48.6127 215.337,-37.7244 209.882,-28.5199"/>
<polygon fill="midnightblue" stroke="midnightblue" points="212.795,-26.5697 204.686,-19.7511 206.773,-30.1383 212.795,-26.5697"/>
</g>
<!-- Node7 -->
<g id="node7" class="node"><title>Node7</title>
<polygon fill="white" stroke="#bfbfbf" points="244,-0.5 244,-19.5 283,-19.5 283,-0.5 244,-0.5"/>
<text text-anchor="middle" x="263.5" y="-7.5" font-family="Helvetica,sans-Serif" font-size="10.00">utility</text>
</g>
<!-- Node2&#45;&gt;Node7 -->
<g id="edge6" class="edge"><title>Node2&#45;&gt;Node7</title>
<path fill="none" stroke="midnightblue" d="M236.784,-56.083C241.211,-48.6127 247.663,-37.7244 253.118,-28.5199"/>
<polygon fill="midnightblue" stroke="midnightblue" points="256.227,-30.1383 258.314,-19.7511 250.205,-26.5697 256.227,-30.1383"/>
</g>
<!-- Node8 -->
<g id="node8" class="node"><title>Node8</title>
<polygon fill="white" stroke="#bfbfbf" points="301.5,-0.5 301.5,-19.5 373.5,-19.5 373.5,-0.5 301.5,-0.5"/>
<text text-anchor="middle" x="337.5" y="-7.5" font-family="Helvetica,sans-Serif" font-size="10.00">sys/socket.h</text>
</g>
<!-- Node2&#45;&gt;Node8 -->
<g id="edge7" class="edge"><title>Node2&#45;&gt;Node8</title>
<path fill="none" stroke="midnightblue" d="M248.531,-56.324C265.53,-47.6641 291.876,-34.2424 311.493,-24.249"/>
<polygon fill="midnightblue" stroke="midnightblue" points="313.19,-27.3125 320.512,-19.6545 310.012,-21.0752 313.19,-27.3125"/>
</g>
<!-- Node9 -->
<g id="node9" class="node"><title>Node9</title>
<polygon fill="white" stroke="#bfbfbf" points="392,-0.5 392,-19.5 457,-19.5 457,-0.5 392,-0.5"/>
<text text-anchor="middle" x="424.5" y="-7.5" font-family="Helvetica,sans-Serif" font-size="10.00">netinet/in.h</text>
</g>
<!-- Node2&#45;&gt;Node9 -->
<g id="edge8" class="edge"><title>Node2&#45;&gt;Node9</title>
<path fill="none" stroke="midnightblue" d="M260.394,-56.9157C293.171,-47.7449 346.86,-32.7231 383.852,-22.3731"/>
<polygon fill="midnightblue" stroke="midnightblue" points="385.124,-25.6516 393.811,-19.5865 383.238,-18.9105 385.124,-25.6516"/>
</g>
<!-- Node10 -->
<g id="node10" class="node"><title>Node10</title>
<polygon fill="white" stroke="#bfbfbf" points="475.5,-0.5 475.5,-19.5 539.5,-19.5 539.5,-0.5 475.5,-0.5"/>
<text text-anchor="middle" x="507.5" y="-7.5" font-family="Helvetica,sans-Serif" font-size="10.00">arpa/inet.h</text>
</g>
<!-- Node2&#45;&gt;Node10 -->
<g id="edge9" class="edge"><title>Node2&#45;&gt;Node10</title>
<path fill="none" stroke="midnightblue" d="M260.098,-58.0591C263.265,-57.3404 266.448,-56.6399 269.5,-56 353.549,-38.3795 377.57,-37.5804 465.429,-20.1549"/>
<polygon fill="midnightblue" stroke="midnightblue" points="466.174,-23.5754 475.294,-18.1823 464.801,-16.7113 466.174,-23.5754"/>
</g>
</g>
</svg>
