<?xml version="1.0" encoding="UTF-8" standalone="no"?>
<!DOCTYPE svg PUBLIC "-//W3C//DTD SVG 1.1//EN"
 "http://www.w3.org/Graphics/SVG/1.1/DTD/svg11.dtd">
<!-- Generated by graphviz version 2.38.0 (20140413.2041)
 -->
<!-- Title: Graphical Class Hierarchy Pages: 1 -->
<svg width="251pt" height="659pt"
 viewBox="0.00 0.00 251.00 659.00" xmlns="http://www.w3.org/2000/svg" xmlns:xlink="http://www.w3.org/1999/xlink">
<g id="graph0" class="graph" transform="scale(1 1) rotate(0) translate(4 655)">
<title>Graphical Class Hierarchy</title>
<polygon fill="white" stroke="none" points="-4,4 -4,-655 247,-655 247,4 -4,4"/>
<!-- Node1 -->
<g id="node1" class="node"><title>Node1</title>
<polygon fill="white" stroke="#bfbfbf" points="0,-304.5 0,-323.5 53,-323.5 53,-304.5 0,-304.5"/>
<text text-anchor="middle" x="26.5" y="-311.5" font-family="Helvetica,sans-Serif" font-size="10.00">QObject</text>
</g>
<!-- Node2 -->
<g id="node2" class="node"><title>Node2</title>
<g id="a_node2"><a xlink:href="class_anoncoin_coin.html" target="_top" xlink:title="Class encapsulating Anoncoin Core startup and shutdown. ">
<polygon fill="white" stroke="black" points="126.5,-631.5 126.5,-650.5 205.5,-650.5 205.5,-631.5 126.5,-631.5"/>
<text text-anchor="middle" x="166" y="-638.5" font-family="Helvetica,sans-Serif" font-size="10.00">AnoncoinCoin</text>
</a>
</g>
</g>
<!-- Node1&#45;&gt;Node2 -->
<g id="edge1" class="edge"><title>Node1&#45;&gt;Node2</title>
<path fill="none" stroke="midnightblue" d="M28.7439,-333.777C32.9967,-395.03 48.9721,-580.008 89,-622 98.6655,-632.14 112.856,-637.196 126.366,-639.618"/>
<polygon fill="midnightblue" stroke="midnightblue" points="32.2196,-333.293 28.0644,-323.546 25.2349,-333.757 32.2196,-333.293"/>
</g>
<!-- Node3 -->
<g id="node3" class="node"><title>Node3</title>
<g id="a_node3"><a xlink:href="class_client_model.html" target="_top" xlink:title="Model for Anoncoin network client. ">
<polygon fill="white" stroke="black" points="131.5,-593.5 131.5,-612.5 200.5,-612.5 200.5,-593.5 131.5,-593.5"/>
<text text-anchor="middle" x="166" y="-600.5" font-family="Helvetica,sans-Serif" font-size="10.00">ClientModel</text>
</a>
</g>
</g>
<!-- Node1&#45;&gt;Node3 -->
<g id="edge2" class="edge"><title>Node1&#45;&gt;Node3</title>
<path fill="none" stroke="midnightblue" d="M29.3201,-333.502C34.9184,-389.306 53.6777,-547.927 89,-584 99.9427,-595.175 116.391,-600.144 131.19,-602.228"/>
<polygon fill="midnightblue" stroke="midnightblue" points="32.7997,-333.121 28.3494,-323.506 25.8324,-333.798 32.7997,-333.121"/>
</g>
<!-- Node4 -->
<g id="node4" class="node"><title>Node4</title>
<g id="a_node4"><a xlink:href="class_c_s_v_model_writer.html" target="_top" xlink:title="Export a Qt table model to a CSV file. ">
<polygon fill="white" stroke="black" points="120.5,-555.5 120.5,-574.5 211.5,-574.5 211.5,-555.5 120.5,-555.5"/>
<text text-anchor="middle" x="166" y="-562.5" font-family="Helvetica,sans-Serif" font-size="10.00">CSVModelWriter</text>
</a>
</g>
</g>
<!-- Node1&#45;&gt;Node4 -->
<g id="edge3" class="edge"><title>Node1&#45;&gt;Node4</title>
<path fill="none" stroke="midnightblue" d="M30.1318,-333.699C37.2543,-384.099 58.4488,-515.878 89,-546 97.4258,-554.307 108.902,-559.163 120.383,-561.953"/>
<polygon fill="midnightblue" stroke="midnightblue" points="33.5918,-333.168 28.7593,-323.74 26.6573,-334.124 33.5918,-333.168"/>
</g>
<!-- Node5 -->
<g id="node5" class="node"><title>Node5</title>
<g id="a_node5"><a xlink:href="class_freespace_checker.html" target="_top" xlink:title="FreespaceChecker">
<polygon fill="white" stroke="black" points="115.5,-517.5 115.5,-536.5 216.5,-536.5 216.5,-517.5 115.5,-517.5"/>
<text text-anchor="middle" x="166" y="-524.5" font-family="Helvetica,sans-Serif" font-size="10.00">FreespaceChecker</text>
</a>
</g>
</g>
<!-- Node1&#45;&gt;Node5 -->
<g id="edge4" class="edge"><title>Node1&#45;&gt;Node5</title>
<path fill="none" stroke="midnightblue" d="M27.7655,-333.895C29.4127,-373.156 38.8531,-460.87 89,-508 96.3338,-514.893 105.778,-519.388 115.5,-522.296"/>
<polygon fill="midnightblue" stroke="midnightblue" points="31.2605,-333.666 27.4739,-323.771 24.2634,-333.867 31.2605,-333.666"/>
</g>
<!-- Node6 -->
<g id="node6" class="node"><title>Node6</title>
<g id="a_node6"><a xlink:href="class_g_u_i_util_1_1_table_view_last_column_resizing_fixer.html" target="_top" xlink:title="Makes a QTableView last column feel as if it was being resized from its left border. ">
<polygon fill="white" stroke="black" points="89,-468 89,-498 243,-498 243,-468 89,-468"/>
<text text-anchor="start" x="97" y="-486" font-family="Helvetica,sans-Serif" font-size="10.00">GUIUtil::TableViewLastColumn</text>
<text text-anchor="middle" x="166" y="-475" font-family="Helvetica,sans-Serif" font-size="10.00">ResizingFixer</text>
</a>
</g>
</g>
<!-- Node1&#45;&gt;Node6 -->
<g id="edge5" class="edge"><title>Node1&#45;&gt;Node6</title>
<path fill="none" stroke="midnightblue" d="M30.4892,-333.744C36.2264,-364.821 51.6967,-425.091 89,-459 92.7883,-462.444 97.0692,-465.393 101.621,-467.92"/>
<polygon fill="midnightblue" stroke="midnightblue" points="33.9122,-332.995 28.7934,-323.719 27.0102,-334.162 33.9122,-332.995"/>
</g>
<!-- Node7 -->
<g id="node7" class="node"><title>Node7</title>
<g id="a_node7"><a xlink:href="class_g_u_i_util_1_1_tool_tip_to_rich_text_filter.html" target="_top" xlink:title="GUIUtil::ToolTipToRichText\lFilter">
<polygon fill="white" stroke="black" points="96.5,-419 96.5,-449 235.5,-449 235.5,-419 96.5,-419"/>
<text text-anchor="start" x="104.5" y="-437" font-family="Helvetica,sans-Serif" font-size="10.00">GUIUtil::ToolTipToRichText</text>
<text text-anchor="middle" x="166" y="-426" font-family="Helvetica,sans-Serif" font-size="10.00">Filter</text>
</a>
</g>
</g>
<!-- Node1&#45;&gt;Node7 -->
<g id="edge6" class="edge"><title>Node1&#45;&gt;Node7</title>
<path fill="none" stroke="midnightblue" d="M35.112,-332.974C44.6379,-354.401 62.93,-388.89 89,-409 93.9492,-412.818 99.5067,-416.066 105.306,-418.826"/>
<polygon fill="midnightblue" stroke="midnightblue" points="38.273,-331.463 31.1442,-323.625 31.8293,-334.198 38.273,-331.463"/>
</g>
<!-- Node8 -->
<g id="node8" class="node"><title>Node8</title>
<g id="a_node8"><a xlink:href="class_mac_dock_icon_handler.html" target="_top" xlink:title="Macintosh&#45;specific dock icon handler. ">
<polygon fill="white" stroke="black" points="110,-380.5 110,-399.5 222,-399.5 222,-380.5 110,-380.5"/>
<text text-anchor="middle" x="166" y="-387.5" font-family="Helvetica,sans-Serif" font-size="10.00">MacDockIconHandler</text>
</a>
</g>
</g>
<!-- Node1&#45;&gt;Node8 -->
<g id="edge7" class="edge"><title>Node1&#45;&gt;Node8</title>
<path fill="none" stroke="midnightblue" d="M41.8392,-331.353C53.3212,-344.144 70.5172,-360.994 89,-371 96.1761,-374.885 104.163,-377.993 112.187,-380.474"/>
<polygon fill="midnightblue" stroke="midnightblue" points="44.356,-328.913 35.1629,-323.646 39.0651,-333.497 44.356,-328.913"/>
</g>
<!-- Node9 -->
<g id="node9" class="node"><title>Node9</title>
<g id="a_node9"><a xlink:href="class_mac_notification_handler.html" target="_top" xlink:title="Macintosh&#45;specific notification handler (supports UserNotificationCenter and Growl). ">
<polygon fill="white" stroke="black" points="106,-342.5 106,-361.5 226,-361.5 226,-342.5 106,-342.5"/>
<text text-anchor="middle" x="166" y="-349.5" font-family="Helvetica,sans-Serif" font-size="10.00">MacNotificationHandler</text>
</a>
</g>
</g>
<!-- Node1&#45;&gt;Node9 -->
<g id="edge8" class="edge"><title>Node1&#45;&gt;Node9</title>
<path fill="none" stroke="midnightblue" d="M62.8301,-325.277C71.3709,-327.903 80.4903,-330.624 89,-333 100.658,-336.256 113.396,-339.544 125.054,-342.449"/>
<polygon fill="midnightblue" stroke="midnightblue" points="63.7292,-321.891 53.1409,-322.265 61.6508,-328.576 63.7292,-321.891"/>
</g>
<!-- Node10 -->
<g id="node10" class="node"><title>Node10</title>
<g id="a_node10"><a xlink:href="class_notificator.html" target="_top" xlink:title="Cross&#45;platform desktop notification client. ">
<polygon fill="white" stroke="black" points="135,-304.5 135,-323.5 197,-323.5 197,-304.5 135,-304.5"/>
<text text-anchor="middle" x="166" y="-311.5" font-family="Helvetica,sans-Serif" font-size="10.00">Notificator</text>
</a>
</g>
</g>
<!-- Node1&#45;&gt;Node10 -->
<g id="edge9" class="edge"><title>Node1&#45;&gt;Node10</title>
<path fill="none" stroke="midnightblue" d="M63.0964,-314C85.3366,-314 113.663,-314 134.802,-314"/>
<polygon fill="midnightblue" stroke="midnightblue" points="63.0405,-310.5 53.0405,-314 63.0404,-317.5 63.0405,-310.5"/>
</g>
<!-- Node11 -->
<g id="node11" class="node"><title>Node11</title>
<g id="a_node11"><a xlink:href="class_payment_server.html" target="_top" xlink:title="PaymentServer">
<polygon fill="white" stroke="black" points="123.5,-266.5 123.5,-285.5 208.5,-285.5 208.5,-266.5 123.5,-266.5"/>
<text text-anchor="middle" x="166" y="-273.5" font-family="Helvetica,sans-Serif" font-size="10.00">PaymentServer</text>
</a>
</g>
</g>
<!-- Node1&#45;&gt;Node11 -->
<g id="edge10" class="edge"><title>Node1&#45;&gt;Node11</title>
<path fill="none" stroke="midnightblue" d="M62.8301,-302.723C71.3709,-300.097 80.4903,-297.376 89,-295 100.658,-291.744 113.396,-288.456 125.054,-285.551"/>
<polygon fill="midnightblue" stroke="midnightblue" points="61.6508,-299.424 53.1409,-305.735 63.7292,-306.109 61.6508,-299.424"/>
</g>
<!-- Node12 -->
<g id="node12" class="node"><title>Node12</title>
<g id="a_node12"><a xlink:href="class_payment_server_tests.html" target="_top" xlink:title="PaymentServerTests">
<polygon fill="white" stroke="black" points="111,-228.5 111,-247.5 221,-247.5 221,-228.5 111,-228.5"/>
<text text-anchor="middle" x="166" y="-235.5" font-family="Helvetica,sans-Serif" font-size="10.00">PaymentServerTests</text>
</a>
</g>
</g>
<!-- Node1&#45;&gt;Node12 -->
<g id="edge11" class="edge"><title>Node1&#45;&gt;Node12</title>
<path fill="none" stroke="midnightblue" d="M41.8392,-296.647C53.3212,-283.856 70.5172,-267.006 89,-257 96.1761,-253.115 104.163,-250.007 112.187,-247.526"/>
<polygon fill="midnightblue" stroke="midnightblue" points="39.0651,-294.503 35.1629,-304.354 44.356,-299.087 39.0651,-294.503"/>
</g>
<!-- Node13 -->
<g id="node13" class="node"><title>Node13</title>
<g id="a_node13"><a xlink:href="class_recipient_catcher.html" target="_top" xlink:title="RecipientCatcher">
<polygon fill="white" stroke="black" points="119.5,-190.5 119.5,-209.5 212.5,-209.5 212.5,-190.5 119.5,-190.5"/>
<text text-anchor="middle" x="166" y="-197.5" font-family="Helvetica,sans-Serif" font-size="10.00">RecipientCatcher</text>
</a>
</g>
</g>
<!-- Node1&#45;&gt;Node13 -->
<g id="edge12" class="edge"><title>Node1&#45;&gt;Node13</title>
<path fill="none" stroke="midnightblue" d="M34.714,-295.015C43.9591,-273.292 62.0779,-238.245 89,-219 97.8514,-212.673 108.593,-208.444 119.178,-205.621"/>
<polygon fill="midnightblue" stroke="midnightblue" points="31.3904,-293.898 30.8887,-304.481 37.8805,-296.521 31.3904,-293.898"/>
</g>
<!-- Node14 -->
<g id="node14" class="node"><title>Node14</title>
<g id="a_node14"><a xlink:href="class_r_p_c_executor.html" target="_top" xlink:title="RPCExecutor">
<polygon fill="white" stroke="black" points="127.5,-152.5 127.5,-171.5 204.5,-171.5 204.5,-152.5 127.5,-152.5"/>
<text text-anchor="middle" x="166" y="-159.5" font-family="Helvetica,sans-Serif" font-size="10.00">RPCExecutor</text>
</a>
</g>
</g>
<!-- Node1&#45;&gt;Node14 -->
<g id="edge13" class="edge"><title>Node1&#45;&gt;Node14</title>
<path fill="none" stroke="midnightblue" d="M31.0273,-294.378C37.3339,-265.154 53.3743,-210.483 89,-181 99.6874,-172.155 113.923,-167.343 127.184,-164.753"/>
<polygon fill="midnightblue" stroke="midnightblue" points="27.5866,-293.735 29.0663,-304.226 34.4518,-295.102 27.5866,-293.735"/>
</g>
<!-- Node15 -->
<g id="node15" class="node"><title>Node15</title>
<g id="a_node15"><a xlink:href="class_shutdown_window.html" target="_top" xlink:title="&quot;Shutdown&quot; window ">
<polygon fill="white" stroke="black" points="117.5,-114.5 117.5,-133.5 214.5,-133.5 214.5,-114.5 117.5,-114.5"/>
<text text-anchor="middle" x="166" y="-121.5" font-family="Helvetica,sans-Serif" font-size="10.00">ShutdownWindow</text>
</a>
</g>
</g>
<!-- Node1&#45;&gt;Node15 -->
<g id="edge14" class="edge"><title>Node1&#45;&gt;Node15</title>
<path fill="none" stroke="midnightblue" d="M28.7695,-294.003C32.1489,-258.237 44.4505,-183.293 89,-143 96.8678,-135.884 106.997,-131.341 117.278,-128.462"/>
<polygon fill="midnightblue" stroke="midnightblue" points="25.2668,-293.898 27.9563,-304.146 32.2444,-294.457 25.2668,-293.898"/>
</g>
<!-- Node16 -->
<g id="node16" class="node"><title>Node16</title>
<g id="a_node16"><a xlink:href="class_transaction_desc.html" target="_top" xlink:title="Provide a human&#45;readable extended HTML description of a transaction. ">
<polygon fill="white" stroke="black" points="120,-76.5 120,-95.5 212,-95.5 212,-76.5 120,-76.5"/>
<text text-anchor="middle" x="166" y="-83.5" font-family="Helvetica,sans-Serif" font-size="10.00">TransactionDesc</text>
</a>
</g>
</g>
<!-- Node1&#45;&gt;Node16 -->
<g id="edge15" class="edge"><title>Node1&#45;&gt;Node16</title>
<path fill="none" stroke="midnightblue" d="M27.2237,-294.31C27.7675,-252.972 35.119,-156.706 89,-105 97.3411,-96.9957 108.522,-92.212 119.737,-89.3928"/>
<polygon fill="midnightblue" stroke="midnightblue" points="23.7237,-294.428 27.2178,-304.43 30.7237,-294.432 23.7237,-294.428"/>
</g>
<!-- Node17 -->
<g id="node17" class="node"><title>Node17</title>
<g id="a_node17"><a xlink:href="class_u_r_i_tests.html" target="_top" xlink:title="URITests">
<polygon fill="white" stroke="black" points="137,-38.5 137,-57.5 195,-57.5 195,-38.5 137,-38.5"/>
<text text-anchor="middle" x="166" y="-45.5" font-family="Helvetica,sans-Serif" font-size="10.00">URITests</text>
</a>
</g>
</g>
<!-- Node1&#45;&gt;Node17 -->
<g id="edge16" class="edge"><title>Node1&#45;&gt;Node17</title>
<path fill="none" stroke="midnightblue" d="M29.7725,-294.45C36.2672,-241.916 56.5558,-99.4751 89,-67 101.496,-54.4919 120.899,-49.7878 136.972,-48.1872"/>
<polygon fill="midnightblue" stroke="midnightblue" points="26.2851,-294.136 28.5663,-304.483 33.235,-294.972 26.2851,-294.136"/>
</g>
<!-- Node18 -->
<g id="node18" class="node"><title>Node18</title>
<g id="a_node18"><a xlink:href="class_wallet_model.html" target="_top" xlink:title="Interface to Anoncoin wallet from Qt view code. ">
<polygon fill="white" stroke="black" points="130,-0.5 130,-19.5 202,-19.5 202,-0.5 130,-0.5"/>
<text text-anchor="middle" x="166" y="-7.5" font-family="Helvetica,sans-Serif" font-size="10.00">WalletModel</text>
</a>
</g>
</g>
<!-- Node1&#45;&gt;Node18 -->
<g id="edge17" class="edge"><title>Node1&#45;&gt;Node18</title>
<path fill="none" stroke="midnightblue" d="M29.0942,-294.182C34.1731,-236 51.8676,-67.3572 89,-29 99.5949,-18.0556 115.466,-13.0508 129.969,-10.8834"/>
<polygon fill="midnightblue" stroke="midnightblue" points="25.5959,-294.016 28.2446,-304.275 32.5712,-294.603 25.5959,-294.016"/>
</g>
</g>
</svg>
