<?xml version="1.0" encoding="UTF-8" standalone="no"?>
<!DOCTYPE svg PUBLIC "-//W3C//DTD SVG 1.1//EN"
 "http://www.w3.org/Graphics/SVG/1.1/DTD/svg11.dtd">
<!-- Generated by graphviz version 2.38.0 (20140413.2041)
 -->
<!-- Title: Graphical Class Hierarchy Pages: 1 -->
<svg width="228pt" height="598pt"
 viewBox="0.00 0.00 228.00 598.00" xmlns="http://www.w3.org/2000/svg" xmlns:xlink="http://www.w3.org/1999/xlink">
<g id="graph0" class="graph" transform="scale(1 1) rotate(0) translate(4 594)">
<title>Graphical Class Hierarchy</title>
<polygon fill="white" stroke="none" points="-4,4 -4,-594 224,-594 224,4 -4,4"/>
<!-- Node1 -->
<g id="node1" class="node"><title>Node1</title>
<polygon fill="white" stroke="#bfbfbf" points="0,-285.5 0,-304.5 53,-304.5 53,-285.5 0,-285.5"/>
<text text-anchor="middle" x="26.5" y="-292.5" font-family="Helvetica,sans-Serif" font-size="10.00">QDialog</text>
</g>
<!-- Node2 -->
<g id="node2" class="node"><title>Node2</title>
<g id="a_node2"><a xlink:href="class_about_dialog.html" target="_top" xlink:title="&quot;About&quot; dialog box ">
<polygon fill="white" stroke="black" points="119,-570.5 119,-589.5 190,-589.5 190,-570.5 119,-570.5"/>
<text text-anchor="middle" x="154.5" y="-577.5" font-family="Helvetica,sans-Serif" font-size="10.00">AboutDialog</text>
</a>
</g>
</g>
<!-- Node1&#45;&gt;Node2 -->
<g id="edge1" class="edge"><title>Node1&#45;&gt;Node2</title>
<path fill="none" stroke="midnightblue" d="M29.5118,-314.861C35.512,-370.285 55.0085,-524.932 89,-561 96.7662,-569.241 107.907,-573.964 118.751,-576.653"/>
<polygon fill="midnightblue" stroke="midnightblue" points="32.9615,-314.198 28.4359,-304.619 25.9998,-314.93 32.9615,-314.198"/>
</g>
<!-- Node3 -->
<g id="node3" class="node"><title>Node3</title>
<g id="a_node3"><a xlink:href="class_address_book_page.html" target="_top" xlink:title="Widget that shows a list of sending or receiving addresses. ">
<polygon fill="white" stroke="black" points="105,-532.5 105,-551.5 204,-551.5 204,-532.5 105,-532.5"/>
<text text-anchor="middle" x="154.5" y="-539.5" font-family="Helvetica,sans-Serif" font-size="10.00">AddressBookPage</text>
</a>
</g>
</g>
<!-- Node1&#45;&gt;Node3 -->
<g id="edge2" class="edge"><title>Node1&#45;&gt;Node3</title>
<path fill="none" stroke="midnightblue" d="M26.8093,-315.066C26.4338,-359.033 31.9202,-464.592 89,-523 93.4875,-527.592 99.0239,-531.088 104.951,-533.746"/>
<polygon fill="midnightblue" stroke="midnightblue" points="30.3133,-314.902 27.0177,-304.832 23.3147,-314.759 30.3133,-314.902"/>
</g>
<!-- Node4 -->
<g id="node4" class="node"><title>Node4</title>
<g id="a_node4"><a xlink:href="class_ask_passphrase_dialog.html" target="_top" xlink:title="Multifunctional dialog to ask for passphrases. ">
<polygon fill="white" stroke="black" points="97.5,-494.5 97.5,-513.5 211.5,-513.5 211.5,-494.5 97.5,-494.5"/>
<text text-anchor="middle" x="154.5" y="-501.5" font-family="Helvetica,sans-Serif" font-size="10.00">AskPassphraseDialog</text>
</a>
</g>
</g>
<!-- Node1&#45;&gt;Node4 -->
<g id="edge3" class="edge"><title>Node1&#45;&gt;Node4</title>
<path fill="none" stroke="midnightblue" d="M28.1292,-315.356C30.4458,-354.005 41.0517,-438.309 89,-485 93.0145,-488.909 97.7911,-492.02 102.903,-494.495"/>
<polygon fill="midnightblue" stroke="midnightblue" points="31.6048,-314.747 27.6443,-304.92 24.6123,-315.072 31.6048,-314.747"/>
</g>
<!-- Node5 -->
<g id="node5" class="node"><title>Node5</title>
<g id="a_node5"><a xlink:href="class_coin_control_dialog.html" target="_top" xlink:title="CoinControlDialog">
<polygon fill="white" stroke="black" points="105.5,-456.5 105.5,-475.5 203.5,-475.5 203.5,-456.5 105.5,-456.5"/>
<text text-anchor="middle" x="154.5" y="-463.5" font-family="Helvetica,sans-Serif" font-size="10.00">CoinControlDialog</text>
</a>
</g>
</g>
<!-- Node1&#45;&gt;Node5 -->
<g id="edge4" class="edge"><title>Node1&#45;&gt;Node5</title>
<path fill="none" stroke="midnightblue" d="M29.9756,-314.87C35.0712,-347.269 49.7575,-411.426 89,-447 93.7569,-451.312 99.447,-454.648 105.45,-457.229"/>
<polygon fill="midnightblue" stroke="midnightblue" points="33.4215,-314.241 28.5487,-304.833 26.4912,-315.226 33.4215,-314.241"/>
</g>
<!-- Node6 -->
<g id="node6" class="node"><title>Node6</title>
<g id="a_node6"><a xlink:href="class_edit_address_dialog.html" target="_top" xlink:title="Dialog for editing an address and associated information. ">
<polygon fill="white" stroke="black" points="105,-418.5 105,-437.5 204,-437.5 204,-418.5 105,-418.5"/>
<text text-anchor="middle" x="154.5" y="-425.5" font-family="Helvetica,sans-Serif" font-size="10.00">EditAddressDialog</text>
</a>
</g>
</g>
<!-- Node1&#45;&gt;Node6 -->
<g id="edge5" class="edge"><title>Node1&#45;&gt;Node6</title>
<path fill="none" stroke="midnightblue" d="M32.7739,-314.192C40.7417,-339.602 58.278,-384.092 89,-409 93.8059,-412.896 99.3865,-415.994 105.215,-418.456"/>
<polygon fill="midnightblue" stroke="midnightblue" points="36.1249,-313.181 29.9344,-304.583 29.4119,-315.165 36.1249,-313.181"/>
</g>
<!-- Node7 -->
<g id="node7" class="node"><title>Node7</title>
<g id="a_node7"><a xlink:href="class_help_message_dialog.html" target="_top" xlink:title="&quot;Help message&quot; dialog box ">
<polygon fill="white" stroke="black" points="101.5,-380.5 101.5,-399.5 207.5,-399.5 207.5,-380.5 101.5,-380.5"/>
<text text-anchor="middle" x="154.5" y="-387.5" font-family="Helvetica,sans-Serif" font-size="10.00">HelpMessageDialog</text>
</a>
</g>
</g>
<!-- Node1&#45;&gt;Node7 -->
<g id="edge6" class="edge"><title>Node1&#45;&gt;Node7</title>
<path fill="none" stroke="midnightblue" d="M37.8748,-313.413C48.5451,-330.723 66.724,-356.134 89,-371 94.826,-374.888 101.464,-377.997 108.214,-380.479"/>
<polygon fill="midnightblue" stroke="midnightblue" points="40.8495,-311.567 32.7411,-304.747 34.8271,-315.135 40.8495,-311.567"/>
</g>
<!-- Node8 -->
<g id="node8" class="node"><title>Node8</title>
<g id="a_node8"><a xlink:href="class_intro.html" target="_top" xlink:title="Introduction screen (pre&#45;GUI startup). ">
<polygon fill="white" stroke="black" points="136,-342.5 136,-361.5 173,-361.5 173,-342.5 136,-342.5"/>
<text text-anchor="middle" x="154.5" y="-349.5" font-family="Helvetica,sans-Serif" font-size="10.00">Intro</text>
</a>
</g>
</g>
<!-- Node1&#45;&gt;Node8 -->
<g id="edge7" class="edge"><title>Node1&#45;&gt;Node8</title>
<path fill="none" stroke="midnightblue" d="M49.0552,-310.294C60.5119,-317.905 75.0741,-326.782 89,-333 104.243,-339.806 122.582,-344.937 135.803,-348.141"/>
<polygon fill="midnightblue" stroke="midnightblue" points="50.8395,-307.275 40.6044,-304.537 46.8984,-313.06 50.8395,-307.275"/>
</g>
<!-- Node9 -->
<g id="node9" class="node"><title>Node9</title>
<g id="a_node9"><a xlink:href="class_open_u_r_i_dialog.html" target="_top" xlink:title="OpenURIDialog">
<polygon fill="white" stroke="black" points="111,-304.5 111,-323.5 198,-323.5 198,-304.5 111,-304.5"/>
<text text-anchor="middle" x="154.5" y="-311.5" font-family="Helvetica,sans-Serif" font-size="10.00">OpenURIDialog</text>
</a>
</g>
</g>
<!-- Node1&#45;&gt;Node9 -->
<g id="edge8" class="edge"><title>Node1&#45;&gt;Node9</title>
<path fill="none" stroke="midnightblue" d="M63.5556,-300.437C78.3101,-302.662 95.494,-305.253 110.865,-307.571"/>
<polygon fill="midnightblue" stroke="midnightblue" points="63.7121,-296.921 53.302,-298.891 62.6683,-303.843 63.7121,-296.921"/>
</g>
<!-- Node10 -->
<g id="node10" class="node"><title>Node10</title>
<g id="a_node10"><a xlink:href="class_options_dialog.html" target="_top" xlink:title="Preferences dialog. ">
<polygon fill="white" stroke="black" points="115,-266.5 115,-285.5 194,-285.5 194,-266.5 115,-266.5"/>
<text text-anchor="middle" x="154.5" y="-273.5" font-family="Helvetica,sans-Serif" font-size="10.00">OptionsDialog</text>
</a>
</g>
</g>
<!-- Node1&#45;&gt;Node10 -->
<g id="edge9" class="edge"><title>Node1&#45;&gt;Node10</title>
<path fill="none" stroke="midnightblue" d="M63.3838,-289.589C79.4505,-287.166 98.4249,-284.305 114.809,-281.834"/>
<polygon fill="midnightblue" stroke="midnightblue" points="62.6683,-286.157 53.302,-291.109 63.7121,-293.079 62.6683,-286.157"/>
</g>
<!-- Node11 -->
<g id="node11" class="node"><title>Node11</title>
<g id="a_node11"><a xlink:href="class_receive_coins_dialog.html" target="_top" xlink:title="Dialog for requesting payment of anoncoins. ">
<polygon fill="white" stroke="black" points="101,-228.5 101,-247.5 208,-247.5 208,-228.5 101,-228.5"/>
<text text-anchor="middle" x="154.5" y="-235.5" font-family="Helvetica,sans-Serif" font-size="10.00">ReceiveCoinsDialog</text>
</a>
</g>
</g>
<!-- Node1&#45;&gt;Node11 -->
<g id="edge10" class="edge"><title>Node1&#45;&gt;Node11</title>
<path fill="none" stroke="midnightblue" d="M49.0552,-279.706C60.5119,-272.095 75.0741,-263.218 89,-257 97.2076,-253.335 106.313,-250.156 115.034,-247.502"/>
<polygon fill="midnightblue" stroke="midnightblue" points="46.8984,-276.94 40.6044,-285.463 50.8395,-282.725 46.8984,-276.94"/>
</g>
<!-- Node12 -->
<g id="node12" class="node"><title>Node12</title>
<g id="a_node12"><a xlink:href="class_receive_request_dialog.html" target="_top" xlink:title="ReceiveRequestDialog">
<polygon fill="white" stroke="black" points="95.5,-190.5 95.5,-209.5 213.5,-209.5 213.5,-190.5 95.5,-190.5"/>
<text text-anchor="middle" x="154.5" y="-197.5" font-family="Helvetica,sans-Serif" font-size="10.00">ReceiveRequestDialog</text>
</a>
</g>
</g>
<!-- Node1&#45;&gt;Node12 -->
<g id="edge11" class="edge"><title>Node1&#45;&gt;Node12</title>
<path fill="none" stroke="midnightblue" d="M37.8748,-276.587C48.5451,-259.277 66.724,-233.866 89,-219 94.826,-215.112 101.464,-212.003 108.214,-209.521"/>
<polygon fill="midnightblue" stroke="midnightblue" points="34.8271,-274.865 32.7411,-285.253 40.8495,-278.433 34.8271,-274.865"/>
</g>
<!-- Node13 -->
<g id="node13" class="node"><title>Node13</title>
<g id="a_node13"><a xlink:href="class_r_p_c_console.html" target="_top" xlink:title="Local Anoncoin RPC console. ">
<polygon fill="white" stroke="black" points="117.5,-152.5 117.5,-171.5 191.5,-171.5 191.5,-152.5 117.5,-152.5"/>
<text text-anchor="middle" x="154.5" y="-159.5" font-family="Helvetica,sans-Serif" font-size="10.00">RPCConsole</text>
</a>
</g>
</g>
<!-- Node1&#45;&gt;Node13 -->
<g id="edge12" class="edge"><title>Node1&#45;&gt;Node13</title>
<path fill="none" stroke="midnightblue" d="M32.7739,-275.808C40.7417,-250.398 58.278,-205.908 89,-181 97.0703,-174.457 107.325,-170.167 117.27,-167.354"/>
<polygon fill="midnightblue" stroke="midnightblue" points="29.4119,-274.835 29.9344,-285.417 36.1249,-276.819 29.4119,-274.835"/>
</g>
<!-- Node14 -->
<g id="node14" class="node"><title>Node14</title>
<g id="a_node14"><a xlink:href="class_send_coins_dialog.html" target="_top" xlink:title="Dialog for sending anoncoins. ">
<polygon fill="white" stroke="black" points="107.5,-114.5 107.5,-133.5 201.5,-133.5 201.5,-114.5 107.5,-114.5"/>
<text text-anchor="middle" x="154.5" y="-121.5" font-family="Helvetica,sans-Serif" font-size="10.00">SendCoinsDialog</text>
</a>
</g>
</g>
<!-- Node1&#45;&gt;Node14 -->
<g id="edge13" class="edge"><title>Node1&#45;&gt;Node14</title>
<path fill="none" stroke="midnightblue" d="M29.9756,-275.13C35.0712,-242.731 49.7575,-178.574 89,-143 94.2758,-138.217 100.7,-134.635 107.425,-131.953"/>
<polygon fill="midnightblue" stroke="midnightblue" points="26.4912,-274.774 28.5487,-285.167 33.4215,-275.759 26.4912,-274.774"/>
</g>
<!-- Node15 -->
<g id="node15" class="node"><title>Node15</title>
<g id="a_node15"><a xlink:href="class_show_i2_p_addresses.html" target="_top" xlink:title="ShowI2PAddresses">
<polygon fill="white" stroke="black" points="102.5,-76.5 102.5,-95.5 206.5,-95.5 206.5,-76.5 102.5,-76.5"/>
<text text-anchor="middle" x="154.5" y="-83.5" font-family="Helvetica,sans-Serif" font-size="10.00">ShowI2PAddresses</text>
</a>
</g>
</g>
<!-- Node1&#45;&gt;Node15 -->
<g id="edge14" class="edge"><title>Node1&#45;&gt;Node15</title>
<path fill="none" stroke="midnightblue" d="M28.1292,-274.644C30.4458,-235.995 41.0517,-151.691 89,-105 93.0145,-101.091 97.7911,-97.9796 102.903,-95.5046"/>
<polygon fill="midnightblue" stroke="midnightblue" points="24.6123,-274.928 27.6443,-285.08 31.6048,-275.253 24.6123,-274.928"/>
</g>
<!-- Node16 -->
<g id="node16" class="node"><title>Node16</title>
<g id="a_node16"><a xlink:href="class_sign_verify_message_dialog.html" target="_top" xlink:title="SignVerifyMessageDialog">
<polygon fill="white" stroke="black" points="89,-38.5 89,-57.5 220,-57.5 220,-38.5 89,-38.5"/>
<text text-anchor="middle" x="154.5" y="-45.5" font-family="Helvetica,sans-Serif" font-size="10.00">SignVerifyMessageDialog</text>
</a>
</g>
</g>
<!-- Node1&#45;&gt;Node16 -->
<g id="edge15" class="edge"><title>Node1&#45;&gt;Node16</title>
<path fill="none" stroke="midnightblue" d="M26.8093,-274.934C26.4338,-230.967 31.9202,-125.408 89,-67 92.7532,-63.1595 97.2401,-60.0857 102.076,-57.6271"/>
<polygon fill="midnightblue" stroke="midnightblue" points="23.3147,-275.241 27.0177,-285.168 30.3133,-275.098 23.3147,-275.241"/>
</g>
<!-- Node17 -->
<g id="node17" class="node"><title>Node17</title>
<g id="a_node17"><a xlink:href="class_transaction_desc_dialog.html" target="_top" xlink:title="Dialog showing transaction details. ">
<polygon fill="white" stroke="black" points="94.5,-0.5 94.5,-19.5 214.5,-19.5 214.5,-0.5 94.5,-0.5"/>
<text text-anchor="middle" x="154.5" y="-7.5" font-family="Helvetica,sans-Serif" font-size="10.00">TransactionDescDialog</text>
</a>
</g>
</g>
<!-- Node1&#45;&gt;Node17 -->
<g id="edge16" class="edge"><title>Node1&#45;&gt;Node17</title>
<path fill="none" stroke="midnightblue" d="M29.5118,-275.139C35.512,-219.715 55.0085,-65.068 89,-29 92.6029,-25.1771 96.9321,-22.111 101.621,-19.6539"/>
<polygon fill="midnightblue" stroke="midnightblue" points="25.9998,-275.07 28.4359,-285.381 32.9615,-275.802 25.9998,-275.07"/>
</g>
</g>
</svg>
