<?xml version="1.0" encoding="UTF-8" standalone="no"?>
<!DOCTYPE svg PUBLIC "-//W3C//DTD SVG 1.1//EN"
 "http://www.w3.org/Graphics/SVG/1.1/DTD/svg11.dtd">
<!-- Generated by graphviz version 2.38.0 (20140413.2041)
 -->
<!-- Title: Graphical Class Hierarchy Pages: 1 -->
<svg width="213pt" height="180pt"
 viewBox="0.00 0.00 213.00 180.00" xmlns="http://www.w3.org/2000/svg" xmlns:xlink="http://www.w3.org/1999/xlink">
<g id="graph0" class="graph" transform="scale(1 1) rotate(0) translate(4 176)">
<title>Graphical Class Hierarchy</title>
<polygon fill="white" stroke="none" points="-4,4 -4,-176 209,-176 209,4 -4,4"/>
<!-- Node1 -->
<g id="node1" class="node"><title>Node1</title>
<polygon fill="white" stroke="#bfbfbf" points="0,-76.5 0,-95.5 55,-95.5 55,-76.5 0,-76.5"/>
<text text-anchor="middle" x="27.5" y="-83.5" font-family="Helvetica,sans-Serif" font-size="10.00">QWidget</text>
</g>
<!-- Node2 -->
<g id="node2" class="node"><title>Node2</title>
<g id="a_node2"><a xlink:href="class_anoncoin_amount_field.html" target="_top" xlink:title="Widget for entering anoncoin amounts. ">
<polygon fill="white" stroke="black" points="91,-152.5 91,-171.5 205,-171.5 205,-152.5 91,-152.5"/>
<text text-anchor="middle" x="148" y="-159.5" font-family="Helvetica,sans-Serif" font-size="10.00">AnoncoinAmountField</text>
</a>
</g>
</g>
<!-- Node1&#45;&gt;Node2 -->
<g id="edge1" class="edge"><title>Node1&#45;&gt;Node2</title>
<path fill="none" stroke="midnightblue" d="M43.7771,-103.343C55.5976,-115.852 72.949,-132.345 91,-143 97.3656,-146.758 104.58,-149.904 111.663,-152.487"/>
<polygon fill="midnightblue" stroke="midnightblue" points="46.1959,-100.802 36.8563,-95.8 41.038,-105.535 46.1959,-100.802"/>
</g>
<!-- Node3 -->
<g id="node3" class="node"><title>Node3</title>
<g id="a_node3"><a xlink:href="class_i2_p_options_widget.html" target="_top" xlink:title="I2POptionsWidget">
<polygon fill="white" stroke="black" points="99.5,-114.5 99.5,-133.5 196.5,-133.5 196.5,-114.5 99.5,-114.5"/>
<text text-anchor="middle" x="148" y="-121.5" font-family="Helvetica,sans-Serif" font-size="10.00">I2POptionsWidget</text>
</a>
</g>
</g>
<!-- Node1&#45;&gt;Node3 -->
<g id="edge2" class="edge"><title>Node1&#45;&gt;Node3</title>
<path fill="none" stroke="midnightblue" d="M65.0778,-97.7296C81.796,-103.091 101.35,-109.361 117.161,-114.431"/>
<polygon fill="midnightblue" stroke="midnightblue" points="65.6849,-94.2488 55.0937,-94.5279 63.5473,-100.914 65.6849,-94.2488"/>
</g>
<!-- Node4 -->
<g id="node4" class="node"><title>Node4</title>
<g id="a_node4"><a xlink:href="class_overview_page.html" target="_top" xlink:title="Overview (&quot;home&quot;) page widget. ">
<polygon fill="white" stroke="black" points="107,-76.5 107,-95.5 189,-95.5 189,-76.5 107,-76.5"/>
<text text-anchor="middle" x="148" y="-83.5" font-family="Helvetica,sans-Serif" font-size="10.00">OverviewPage</text>
</a>
</g>
</g>
<!-- Node1&#45;&gt;Node4 -->
<g id="edge3" class="edge"><title>Node1&#45;&gt;Node4</title>
<path fill="none" stroke="midnightblue" d="M65.2672,-86C78.4997,-86 93.4888,-86 106.985,-86"/>
<polygon fill="midnightblue" stroke="midnightblue" points="65.0937,-82.5001 55.0937,-86 65.0937,-89.5001 65.0937,-82.5001"/>
</g>
<!-- Node5 -->
<g id="node5" class="node"><title>Node5</title>
<g id="a_node5"><a xlink:href="class_traffic_graph_widget.html" target="_top" xlink:title="TrafficGraphWidget">
<polygon fill="white" stroke="black" points="96.5,-38.5 96.5,-57.5 199.5,-57.5 199.5,-38.5 96.5,-38.5"/>
<text text-anchor="middle" x="148" y="-45.5" font-family="Helvetica,sans-Serif" font-size="10.00">TrafficGraphWidget</text>
</a>
</g>
</g>
<!-- Node1&#45;&gt;Node5 -->
<g id="edge4" class="edge"><title>Node1&#45;&gt;Node5</title>
<path fill="none" stroke="midnightblue" d="M65.0778,-74.2704C81.796,-68.9093 101.35,-62.6388 117.161,-57.5687"/>
<polygon fill="midnightblue" stroke="midnightblue" points="63.5473,-71.0856 55.0937,-77.4721 65.6849,-77.7512 63.5473,-71.0856"/>
</g>
<!-- Node6 -->
<g id="node6" class="node"><title>Node6</title>
<g id="a_node6"><a xlink:href="class_transaction_view.html" target="_top" xlink:title="Widget showing the transaction list for a wallet, including a filter row. ">
<polygon fill="white" stroke="black" points="103,-0.5 103,-19.5 193,-19.5 193,-0.5 103,-0.5"/>
<text text-anchor="middle" x="148" y="-7.5" font-family="Helvetica,sans-Serif" font-size="10.00">TransactionView</text>
</a>
</g>
</g>
<!-- Node1&#45;&gt;Node6 -->
<g id="edge5" class="edge"><title>Node1&#45;&gt;Node6</title>
<path fill="none" stroke="midnightblue" d="M43.7771,-68.6569C55.5976,-56.1484 72.949,-39.6554 91,-29 97.3656,-25.2424 104.58,-22.0955 111.663,-19.5131"/>
<polygon fill="midnightblue" stroke="midnightblue" points="41.038,-66.4653 36.8563,-76.2 46.1959,-71.1977 41.038,-66.4653"/>
</g>
</g>
</svg>
