<?xml version="1.0" encoding="UTF-8" standalone="no"?>
<!DOCTYPE svg PUBLIC "-//W3C//DTD SVG 1.1//EN"
 "http://www.w3.org/Graphics/SVG/1.1/DTD/svg11.dtd">
<!-- Generated by graphviz version 2.38.0 (20140413.2041)
 -->
<!-- Title: StartShutdown Pages: 1 -->
<svg width="1332pt" height="370pt"
 viewBox="0.00 0.00 1332.00 370.00" xmlns="http://www.w3.org/2000/svg" xmlns:xlink="http://www.w3.org/1999/xlink">
<g id="graph0" class="graph" transform="scale(1 1) rotate(0) translate(4 366)">
<title>StartShutdown</title>
<polygon fill="white" stroke="none" points="-4,4 -4,-366 1328,-366 1328,4 -4,4"/>
<!-- Node1 -->
<g id="node1" class="node"><title>Node1</title>
<polygon fill="#bfbfbf" stroke="black" points="0,-57.5 0,-76.5 82,-76.5 82,-57.5 0,-57.5"/>
<text text-anchor="middle" x="41" y="-64.5" font-family="Helvetica,sans-Serif" font-size="10.00">StartShutdown</text>
</g>
<!-- Node2 -->
<g id="node2" class="node"><title>Node2</title>
<g id="a_node2"><a xlink:href="main_8h.html#a796d22b033e4a9628490e5ffa3fac4fa" target="_top" xlink:title="Abort with a message. ">
<polygon fill="white" stroke="black" points="123.5,-182.5 123.5,-201.5 187.5,-201.5 187.5,-182.5 123.5,-182.5"/>
<text text-anchor="middle" x="155.5" y="-189.5" font-family="Helvetica,sans-Serif" font-size="10.00">AbortNode</text>
</a>
</g>
</g>
<!-- Node1&#45;&gt;Node2 -->
<g id="edge1" class="edge"><title>Node1&#45;&gt;Node2</title>
<path fill="none" stroke="midnightblue" d="M57.5294,-84.2549C81.4902,-110.878 126.692,-161.103 145.713,-182.237"/>
<polygon fill="midnightblue" stroke="midnightblue" points="60.1189,-81.9001 50.8277,-76.8085 54.9158,-86.5829 60.1189,-81.9001"/>
</g>
<!-- Node23 -->
<g id="node23" class="node"><title>Node23</title>
<g id="a_node23"><a xlink:href="rpcserver_8cpp.html#a7ed4eb27f00f40cee8c15108916e8d71" target="_top" xlink:title="stop">
<polygon fill="white" stroke="black" points="138,-76.5 138,-95.5 173,-95.5 173,-76.5 138,-76.5"/>
<text text-anchor="middle" x="155.5" y="-83.5" font-family="Helvetica,sans-Serif" font-size="10.00">stop</text>
</a>
</g>
</g>
<!-- Node1&#45;&gt;Node23 -->
<g id="edge33" class="edge"><title>Node1&#45;&gt;Node23</title>
<path fill="none" stroke="midnightblue" d="M92.3683,-75.5066C108.764,-78.2757 125.834,-81.1586 137.923,-83.2003"/>
<polygon fill="midnightblue" stroke="midnightblue" points="92.7406,-72.02 82.2973,-73.8058 91.5748,-78.9223 92.7406,-72.02"/>
</g>
<!-- Node24 -->
<g id="node24" class="node"><title>Node24</title>
<g id="a_node24"><a xlink:href="rpcserver_8h.html#af4d692a884c24c4abe2fc3f2b165542d" target="_top" xlink:title="StartRPCThreads">
<polygon fill="white" stroke="black" points="910,-38.5 910,-57.5 1005,-57.5 1005,-38.5 910,-38.5"/>
<text text-anchor="middle" x="957.5" y="-45.5" font-family="Helvetica,sans-Serif" font-size="10.00">StartRPCThreads</text>
</a>
</g>
</g>
<!-- Node1&#45;&gt;Node24 -->
<g id="edge34" class="edge"><title>Node1&#45;&gt;Node24</title>
<path fill="none" stroke="midnightblue" d="M92.5649,-60.8044C142.235,-55.2599 220.215,-48 288,-48 288,-48 288,-48 677.5,-48 759.117,-48 854.165,-48 909.603,-48"/>
<polygon fill="midnightblue" stroke="midnightblue" points="91.9502,-57.3516 82.4093,-61.9582 92.7405,-64.3068 91.9502,-57.3516"/>
</g>
<!-- Node25 -->
<g id="node25" class="node"><title>Node25</title>
<g id="a_node25"><a xlink:href="rpcwallet_8cpp.html#a5fb49bac2748015a256c63e9f8ccc539" target="_top" xlink:title="encryptwallet">
<polygon fill="white" stroke="black" points="118,-0.5 118,-19.5 193,-19.5 193,-0.5 118,-0.5"/>
<text text-anchor="middle" x="155.5" y="-7.5" font-family="Helvetica,sans-Serif" font-size="10.00">encryptwallet</text>
</a>
</g>
</g>
<!-- Node1&#45;&gt;Node25 -->
<g id="edge36" class="edge"><title>Node1&#45;&gt;Node25</title>
<path fill="none" stroke="midnightblue" d="M69.9824,-52.8223C90.4482,-42.4529 117.66,-28.6657 135.609,-19.5716"/>
<polygon fill="midnightblue" stroke="midnightblue" points="68.1684,-49.8177 60.83,-57.4595 71.3322,-56.0619 68.1684,-49.8177"/>
</g>
<!-- Node3 -->
<g id="node3" class="node"><title>Node3</title>
<g id="a_node3"><a xlink:href="main_8h.html#a6df609da0bad1550cbb2cdc781ad2904" target="_top" xlink:title="Check whether enough disk space is available for an incoming block. ">
<polygon fill="white" stroke="black" points="242.5,-153.5 242.5,-172.5 335.5,-172.5 335.5,-153.5 242.5,-153.5"/>
<text text-anchor="middle" x="289" y="-160.5" font-family="Helvetica,sans-Serif" font-size="10.00">CheckDiskSpace</text>
</a>
</g>
</g>
<!-- Node2&#45;&gt;Node3 -->
<g id="edge2" class="edge"><title>Node2&#45;&gt;Node3</title>
<path fill="none" stroke="midnightblue" d="M197.642,-182.927C212.58,-179.632 229.498,-175.902 244.623,-172.566"/>
<polygon fill="midnightblue" stroke="midnightblue" points="196.675,-179.556 187.664,-185.127 198.183,-186.392 196.675,-179.556"/>
</g>
<!-- Node11 -->
<g id="node11" class="node"><title>Node11</title>
<g id="a_node11"><a xlink:href="main_8h.html#a8641eccb4e5d174838adeea9b234a691" target="_top" xlink:title="Import blocks from an external file. ">
<polygon fill="white" stroke="black" points="758,-342.5 758,-361.5 874,-361.5 874,-342.5 758,-342.5"/>
<text text-anchor="middle" x="816" y="-349.5" font-family="Helvetica,sans-Serif" font-size="10.00">LoadExternalBlockFile</text>
</a>
</g>
</g>
<!-- Node2&#45;&gt;Node11 -->
<g id="edge24" class="edge"><title>Node2&#45;&gt;Node11</title>
<path fill="none" stroke="midnightblue" d="M171.767,-208.896C210.7,-250.025 318.612,-352 431.5,-352 431.5,-352 431.5,-352 556.5,-352 625.725,-352 705.378,-352 757.76,-352"/>
<polygon fill="midnightblue" stroke="midnightblue" points="174.292,-206.471 164.919,-201.53 169.165,-211.237 174.292,-206.471"/>
</g>
<!-- Node21 -->
<g id="node21" class="node"><title>Node21</title>
<g id="a_node21"><a xlink:href="class_c_validation_state.html#a6788cb521cf538ac80413a1c6c3da5e8" target="_top" xlink:title="CValidationState::Abort">
<polygon fill="white" stroke="black" points="229,-201.5 229,-220.5 349,-220.5 349,-201.5 229,-201.5"/>
<text text-anchor="middle" x="289" y="-208.5" font-family="Helvetica,sans-Serif" font-size="10.00">CValidationState::Abort</text>
</a>
</g>
</g>
<!-- Node2&#45;&gt;Node21 -->
<g id="edge25" class="edge"><title>Node2&#45;&gt;Node21</title>
<path fill="none" stroke="midnightblue" d="M197.648,-197.945C207.578,-199.38 218.382,-200.941 228.953,-202.468"/>
<polygon fill="midnightblue" stroke="midnightblue" points="198.061,-194.469 187.664,-196.503 197.06,-201.397 198.061,-194.469"/>
</g>
<!-- Node4 -->
<g id="node4" class="node"><title>Node4</title>
<g id="a_node4"><a xlink:href="init_8h.html#a1a4c1bfbf6ba1db77e988b89b9cadfd3" target="_top" xlink:title="Initialize anoncoin. ">
<polygon fill="white" stroke="black" points="1041,-152.5 1041,-171.5 1094,-171.5 1094,-152.5 1041,-152.5"/>
<text text-anchor="middle" x="1067.5" y="-159.5" font-family="Helvetica,sans-Serif" font-size="10.00">AppInit2</text>
</a>
</g>
</g>
<!-- Node3&#45;&gt;Node4 -->
<g id="edge3" class="edge"><title>Node3&#45;&gt;Node4</title>
<path fill="none" stroke="midnightblue" d="M318.069,-149.106C365.539,-126.929 465.236,-86 554.5,-86 554.5,-86 554.5,-86 817,-86 907.109,-86 1007.89,-131.924 1048.3,-152.375"/>
<polygon fill="midnightblue" stroke="midnightblue" points="316.553,-145.952 309.022,-153.404 319.556,-152.275 316.553,-145.952"/>
</g>
<!-- Node8 -->
<g id="node8" class="node"><title>Node8</title>
<g id="a_node8"><a xlink:href="main_8cpp.html#a92fa926dca5dee9f673536d85f067ee7" target="_top" xlink:title="FindBlockPos">
<polygon fill="white" stroke="black" points="393.5,-220.5 393.5,-239.5 471.5,-239.5 471.5,-220.5 393.5,-220.5"/>
<text text-anchor="middle" x="432.5" y="-227.5" font-family="Helvetica,sans-Serif" font-size="10.00">FindBlockPos</text>
</a>
</g>
</g>
<!-- Node3&#45;&gt;Node8 -->
<g id="edge7" class="edge"><title>Node3&#45;&gt;Node8</title>
<path fill="none" stroke="midnightblue" d="M319.415,-176.928C346.905,-189.944 387.219,-209.033 411.264,-220.418"/>
<polygon fill="midnightblue" stroke="midnightblue" points="320.809,-173.716 310.274,-172.599 317.814,-180.042 320.809,-173.716"/>
</g>
<!-- Node15 -->
<g id="node15" class="node"><title>Node15</title>
<g id="a_node15"><a xlink:href="main_8cpp.html#a16dd07301ce5269712d7936840c0217f" target="_top" xlink:title="FindUndoPos">
<polygon fill="white" stroke="black" points="394,-144.5 394,-163.5 471,-163.5 471,-144.5 394,-144.5"/>
<text text-anchor="middle" x="432.5" y="-151.5" font-family="Helvetica,sans-Serif" font-size="10.00">FindUndoPos</text>
</a>
</g>
</g>
<!-- Node3&#45;&gt;Node15 -->
<g id="edge17" class="edge"><title>Node3&#45;&gt;Node15</title>
<path fill="none" stroke="midnightblue" d="M345.881,-159.446C361.889,-158.428 378.962,-157.342 393.615,-156.41"/>
<polygon fill="midnightblue" stroke="midnightblue" points="345.308,-155.975 335.55,-160.103 345.752,-162.961 345.308,-155.975"/>
</g>
<!-- Node5 -->
<g id="node5" class="node"><title>Node5</title>
<g id="a_node5"><a xlink:href="anoncoind_8cpp.html#ac59316b767e6984e1285f0531275286b" target="_top" xlink:title="AppInit">
<polygon fill="white" stroke="black" points="1166,-171.5 1166,-190.5 1214,-190.5 1214,-171.5 1166,-171.5"/>
<text text-anchor="middle" x="1190" y="-178.5" font-family="Helvetica,sans-Serif" font-size="10.00">AppInit</text>
</a>
</g>
</g>
<!-- Node4&#45;&gt;Node5 -->
<g id="edge4" class="edge"><title>Node4&#45;&gt;Node5</title>
<path fill="none" stroke="midnightblue" d="M1104.05,-167.605C1124.04,-170.758 1148.42,-174.602 1165.93,-177.362"/>
<polygon fill="midnightblue" stroke="midnightblue" points="1104.48,-164.13 1094.05,-166.029 1103.39,-171.044 1104.48,-164.13"/>
</g>
<!-- Node7 -->
<g id="node7" class="node"><title>Node7</title>
<g id="a_node7"><a xlink:href="class_anoncoin_coin.html#a9510881824d283404ac43414dbb74586" target="_top" xlink:title="AnoncoinCoin::initialize">
<polygon fill="white" stroke="black" points="1130,-133.5 1130,-152.5 1250,-152.5 1250,-133.5 1130,-133.5"/>
<text text-anchor="middle" x="1190" y="-140.5" font-family="Helvetica,sans-Serif" font-size="10.00">AnoncoinCoin::initialize</text>
</a>
</g>
</g>
<!-- Node4&#45;&gt;Node7 -->
<g id="edge6" class="edge"><title>Node4&#45;&gt;Node7</title>
<path fill="none" stroke="midnightblue" d="M1104.19,-156.373C1112.25,-155.102 1121.02,-153.719 1129.76,-152.34"/>
<polygon fill="midnightblue" stroke="midnightblue" points="1103.39,-152.956 1094.05,-157.971 1104.48,-159.87 1103.39,-152.956"/>
</g>
<!-- Node6 -->
<g id="node6" class="node"><title>Node6</title>
<g id="a_node6"><a xlink:href="anoncoind_8cpp.html#a0ddf1224851353fc92bfbff6f499fa97" target="_top" xlink:title="main">
<polygon fill="white" stroke="black" points="1286,-171.5 1286,-190.5 1324,-190.5 1324,-171.5 1286,-171.5"/>
<text text-anchor="middle" x="1305" y="-178.5" font-family="Helvetica,sans-Serif" font-size="10.00">main</text>
</a>
</g>
</g>
<!-- Node5&#45;&gt;Node6 -->
<g id="edge5" class="edge"><title>Node5&#45;&gt;Node6</title>
<path fill="none" stroke="midnightblue" d="M1224.15,-181C1244.25,-181 1269.13,-181 1285.73,-181"/>
<polygon fill="midnightblue" stroke="midnightblue" points="1224.14,-177.5 1214.14,-181 1224.14,-184.5 1224.14,-177.5"/>
</g>
<!-- Node9 -->
<g id="node9" class="node"><title>Node9</title>
<g id="a_node9"><a xlink:href="main_8h.html#aae69635467b9737d6c5b44d8ccff5c82" target="_top" xlink:title="AcceptBlock">
<polygon fill="white" stroke="black" points="519.5,-287.5 519.5,-306.5 591.5,-306.5 591.5,-287.5 519.5,-287.5"/>
<text text-anchor="middle" x="555.5" y="-294.5" font-family="Helvetica,sans-Serif" font-size="10.00">AcceptBlock</text>
</a>
</g>
</g>
<!-- Node8&#45;&gt;Node9 -->
<g id="edge8" class="edge"><title>Node8&#45;&gt;Node9</title>
<path fill="none" stroke="midnightblue" d="M468.868,-243.646C472.672,-245.351 476.447,-247.15 480,-249 502.38,-260.655 526.661,-277.076 541.222,-287.374"/>
<polygon fill="midnightblue" stroke="midnightblue" points="470.038,-240.34 459.467,-239.623 467.284,-246.775 470.038,-240.34"/>
</g>
<!-- Node14 -->
<g id="node14" class="node"><title>Node14</title>
<g id="a_node14"><a xlink:href="main_8h.html#a92e5e1fcbd56cc44c27d39b64da8a79a" target="_top" xlink:title="Initialize a new block tree database + block data on disk. ">
<polygon fill="white" stroke="black" points="516,-230.5 516,-249.5 595,-249.5 595,-230.5 516,-230.5"/>
<text text-anchor="middle" x="555.5" y="-237.5" font-family="Helvetica,sans-Serif" font-size="10.00">InitBlockIndex</text>
</a>
</g>
</g>
<!-- Node8&#45;&gt;Node14 -->
<g id="edge14" class="edge"><title>Node8&#45;&gt;Node14</title>
<path fill="none" stroke="midnightblue" d="M481.875,-233.998C493.091,-234.925 504.886,-235.9 515.632,-236.788"/>
<polygon fill="midnightblue" stroke="midnightblue" points="482.039,-230.5 471.785,-233.164 481.463,-237.476 482.039,-230.5"/>
</g>
<!-- Node10 -->
<g id="node10" class="node"><title>Node10</title>
<g id="a_node10"><a xlink:href="main_8h.html#a87a59e710c26c4a10de57b5acb1e2e92" target="_top" xlink:title="Process an incoming block. ">
<polygon fill="white" stroke="black" points="638,-304.5 638,-323.5 715,-323.5 715,-304.5 638,-304.5"/>
<text text-anchor="middle" x="676.5" y="-311.5" font-family="Helvetica,sans-Serif" font-size="10.00">ProcessBlock</text>
</a>
</g>
</g>
<!-- Node9&#45;&gt;Node10 -->
<g id="edge9" class="edge"><title>Node9&#45;&gt;Node10</title>
<path fill="none" stroke="midnightblue" d="M601.75,-303.464C613.641,-305.163 626.338,-306.977 637.786,-308.612"/>
<polygon fill="midnightblue" stroke="midnightblue" points="601.955,-299.958 591.56,-302.009 600.965,-306.888 601.955,-299.958"/>
</g>
<!-- Node10&#45;&gt;Node11 -->
<g id="edge10" class="edge"><title>Node10&#45;&gt;Node11</title>
<path fill="none" stroke="midnightblue" d="M722.073,-326.318C740.965,-331.539 762.647,-337.532 780.314,-342.414"/>
<polygon fill="midnightblue" stroke="midnightblue" points="722.768,-322.879 712.197,-323.589 720.903,-329.626 722.768,-322.879"/>
</g>
<!-- Node13 -->
<g id="node13" class="node"><title>Node13</title>
<g id="a_node13"><a xlink:href="rpcmining_8cpp.html#a6fc1aa077add8cb1c74207056616134d" target="_top" xlink:title="submitblock">
<polygon fill="white" stroke="black" points="781.5,-304.5 781.5,-323.5 850.5,-323.5 850.5,-304.5 781.5,-304.5"/>
<text text-anchor="middle" x="816" y="-311.5" font-family="Helvetica,sans-Serif" font-size="10.00">submitblock</text>
</a>
</g>
</g>
<!-- Node10&#45;&gt;Node13 -->
<g id="edge13" class="edge"><title>Node10&#45;&gt;Node13</title>
<path fill="none" stroke="midnightblue" d="M725.074,-314C743.566,-314 764.323,-314 781.232,-314"/>
<polygon fill="midnightblue" stroke="midnightblue" points="725.073,-310.5 715.072,-314 725.072,-317.5 725.073,-310.5"/>
</g>
<!-- Node12 -->
<g id="node12" class="node"><title>Node12</title>
<g id="a_node12"><a xlink:href="init_8cpp.html#a0189c34248cd89bbbe20d4d6045bd7c9" target="_top" xlink:title="ThreadImport">
<polygon fill="white" stroke="black" points="919,-266.5 919,-285.5 996,-285.5 996,-266.5 919,-266.5"/>
<text text-anchor="middle" x="957.5" y="-273.5" font-family="Helvetica,sans-Serif" font-size="10.00">ThreadImport</text>
</a>
</g>
</g>
<!-- Node11&#45;&gt;Node12 -->
<g id="edge11" class="edge"><title>Node11&#45;&gt;Node12</title>
<path fill="none" stroke="midnightblue" d="M860.38,-338.985C865.054,-337.158 869.678,-335.158 874,-333 901.1,-319.466 929.474,-297.997 944.87,-285.632"/>
<polygon fill="midnightblue" stroke="midnightblue" points="858.983,-335.769 850.793,-342.489 861.386,-342.343 858.983,-335.769"/>
</g>
<!-- Node12&#45;&gt;Node4 -->
<g id="edge12" class="edge"><title>Node12&#45;&gt;Node4</title>
<path fill="none" stroke="midnightblue" d="M991.715,-261.472C996.428,-258.684 1001.02,-255.52 1005,-252 1032.22,-227.935 1053.21,-189.342 1061.99,-171.55"/>
<polygon fill="midnightblue" stroke="midnightblue" points="989.776,-258.541 982.63,-266.363 993.094,-264.705 989.776,-258.541"/>
</g>
<!-- Node14&#45;&gt;Node4 -->
<g id="edge16" class="edge"><title>Node14&#45;&gt;Node4</title>
<path fill="none" stroke="midnightblue" d="M605.451,-240.113C668.162,-239.494 779.991,-235.812 874,-219 935.072,-208.078 1004.28,-184.787 1040.79,-171.608"/>
<polygon fill="midnightblue" stroke="midnightblue" points="605.419,-236.613 595.446,-240.19 605.472,-243.613 605.419,-236.613"/>
</g>
<!-- Node14&#45;&gt;Node12 -->
<g id="edge15" class="edge"><title>Node14&#45;&gt;Node12</title>
<path fill="none" stroke="midnightblue" d="M605.031,-248.436C613.663,-249.76 622.583,-251.014 631,-252 734.834,-264.168 858.07,-271.263 918.809,-274.277"/>
<polygon fill="midnightblue" stroke="midnightblue" points="605.503,-244.967 595.079,-246.862 604.409,-251.881 605.503,-244.967"/>
</g>
<!-- Node16 -->
<g id="node16" class="node"><title>Node16</title>
<g id="a_node16"><a xlink:href="main_8h.html#ae478a2e37bd5c3ac735f30cc12cc7f8b" target="_top" xlink:title="ConnectBlock">
<polygon fill="white" stroke="black" points="516.5,-149.5 516.5,-168.5 594.5,-168.5 594.5,-149.5 516.5,-149.5"/>
<text text-anchor="middle" x="555.5" y="-156.5" font-family="Helvetica,sans-Serif" font-size="10.00">ConnectBlock</text>
</a>
</g>
</g>
<!-- Node15&#45;&gt;Node16 -->
<g id="edge18" class="edge"><title>Node15&#45;&gt;Node16</title>
<path fill="none" stroke="midnightblue" d="M481.196,-155.971C492.91,-156.455 505.296,-156.967 516.485,-157.429"/>
<polygon fill="midnightblue" stroke="midnightblue" points="481.258,-152.471 471.122,-155.555 480.969,-159.465 481.258,-152.471"/>
</g>
<!-- Node17 -->
<g id="node17" class="node"><title>Node17</title>
<g id="a_node17"><a xlink:href="main_8h.html#abfcd613b1eaa02bc626b1c3cb098fc4a" target="_top" xlink:title="Verify consistency of the block and coin databases. ">
<polygon fill="white" stroke="black" points="648.5,-152.5 648.5,-171.5 704.5,-171.5 704.5,-152.5 648.5,-152.5"/>
<text text-anchor="middle" x="676.5" y="-159.5" font-family="Helvetica,sans-Serif" font-size="10.00">VerifyDB</text>
</a>
</g>
</g>
<!-- Node16&#45;&gt;Node17 -->
<g id="edge19" class="edge"><title>Node16&#45;&gt;Node17</title>
<path fill="none" stroke="midnightblue" d="M604.838,-160.219C619.613,-160.591 635.341,-160.988 648.199,-161.312"/>
<polygon fill="midnightblue" stroke="midnightblue" points="604.892,-156.719 594.807,-159.966 604.716,-163.717 604.892,-156.719"/>
</g>
<!-- Node19 -->
<g id="node19" class="node"><title>Node19</title>
<g id="a_node19"><a xlink:href="miner_8h.html#af441d1c1899839f4e3cc0ee1367914a5" target="_top" xlink:title="Generate a new block, without valid proof&#45;of&#45;work. ">
<polygon fill="white" stroke="black" points="631,-114.5 631,-133.5 722,-133.5 722,-114.5 631,-114.5"/>
<text text-anchor="middle" x="676.5" y="-121.5" font-family="Helvetica,sans-Serif" font-size="10.00">CreateNewBlock</text>
</a>
</g>
</g>
<!-- Node16&#45;&gt;Node19 -->
<g id="edge22" class="edge"><title>Node16&#45;&gt;Node19</title>
<path fill="none" stroke="midnightblue" d="M598.798,-146.559C613.341,-142.282 629.384,-137.564 643.022,-133.552"/>
<polygon fill="midnightblue" stroke="midnightblue" points="597.623,-143.257 589.017,-149.436 599.599,-149.972 597.623,-143.257"/>
</g>
<!-- Node17&#45;&gt;Node4 -->
<g id="edge20" class="edge"><title>Node17&#45;&gt;Node4</title>
<path fill="none" stroke="midnightblue" d="M714.937,-162C793.533,-162 973.985,-162 1040.91,-162"/>
<polygon fill="midnightblue" stroke="midnightblue" points="714.545,-158.5 704.545,-162 714.545,-165.5 714.545,-158.5"/>
</g>
<!-- Node18 -->
<g id="node18" class="node"><title>Node18</title>
<g id="a_node18"><a xlink:href="rpcblockchain_8cpp.html#a0b1dd8862fc7292c243ad9489f96a3c8" target="_top" xlink:title="verifychain">
<polygon fill="white" stroke="black" points="784,-190.5 784,-209.5 848,-209.5 848,-190.5 784,-190.5"/>
<text text-anchor="middle" x="816" y="-197.5" font-family="Helvetica,sans-Serif" font-size="10.00">verifychain</text>
</a>
</g>
</g>
<!-- Node17&#45;&gt;Node18 -->
<g id="edge21" class="edge"><title>Node17&#45;&gt;Node18</title>
<path fill="none" stroke="midnightblue" d="M714.471,-172.218C736.057,-178.183 763.001,-185.629 783.56,-191.311"/>
<polygon fill="midnightblue" stroke="midnightblue" points="715.237,-168.798 704.666,-169.508 713.372,-175.545 715.237,-168.798"/>
</g>
<!-- Node20 -->
<g id="node20" class="node"><title>Node20</title>
<g id="a_node20"><a xlink:href="rpcmining_8cpp.html#a27347eecedd59156c914fcb5ce488f9a" target="_top" xlink:title="getblocktemplate">
<polygon fill="white" stroke="black" points="770,-114.5 770,-133.5 862,-133.5 862,-114.5 770,-114.5"/>
<text text-anchor="middle" x="816" y="-121.5" font-family="Helvetica,sans-Serif" font-size="10.00">getblocktemplate</text>
</a>
</g>
</g>
<!-- Node19&#45;&gt;Node20 -->
<g id="edge23" class="edge"><title>Node19&#45;&gt;Node20</title>
<path fill="none" stroke="midnightblue" d="M732.347,-124C744.716,-124 757.711,-124 769.639,-124"/>
<polygon fill="midnightblue" stroke="midnightblue" points="732.142,-120.5 722.142,-124 732.142,-127.5 732.142,-120.5"/>
</g>
<!-- Node21&#45;&gt;Node8 -->
<g id="edge30" class="edge"><title>Node21&#45;&gt;Node8</title>
<path fill="none" stroke="midnightblue" d="M359.354,-220.313C370.971,-221.872 382.639,-223.439 393.103,-224.844"/>
<polygon fill="midnightblue" stroke="midnightblue" points="359.566,-216.81 349.189,-218.948 358.634,-223.747 359.566,-216.81"/>
</g>
<!-- Node21&#45;&gt;Node9 -->
<g id="edge32" class="edge"><title>Node21&#45;&gt;Node9</title>
<path fill="none" stroke="midnightblue" d="M305.22,-228.322C322.492,-246.621 352.515,-274.518 385,-287 429.027,-303.916 484.231,-303.594 519.443,-300.973"/>
<polygon fill="midnightblue" stroke="midnightblue" points="307.554,-225.689 298.218,-220.68 302.392,-230.417 307.554,-225.689"/>
</g>
<!-- Node21&#45;&gt;Node15 -->
<g id="edge31" class="edge"><title>Node21&#45;&gt;Node15</title>
<path fill="none" stroke="midnightblue" d="M323.118,-197.659C349.07,-187.205 384.55,-172.913 407.739,-163.572"/>
<polygon fill="midnightblue" stroke="midnightblue" points="321.652,-194.476 313.684,-201.459 324.267,-200.969 321.652,-194.476"/>
</g>
<!-- Node21&#45;&gt;Node16 -->
<g id="edge26" class="edge"><title>Node21&#45;&gt;Node16</title>
<path fill="none" stroke="midnightblue" d="M348.423,-199.514C399.484,-189.476 472.151,-175.19 516.159,-166.538"/>
<polygon fill="midnightblue" stroke="midnightblue" points="347.65,-196.099 338.513,-201.462 349.001,-202.968 347.65,-196.099"/>
</g>
<!-- Node22 -->
<g id="node22" class="node"><title>Node22</title>
<g id="a_node22"><a xlink:href="main_8h.html#afeae84b261095307379e43eed39ea7c6" target="_top" xlink:title="AddToBlockIndex">
<polygon fill="white" stroke="black" points="385,-258.5 385,-277.5 480,-277.5 480,-258.5 385,-258.5"/>
<text text-anchor="middle" x="432.5" y="-265.5" font-family="Helvetica,sans-Serif" font-size="10.00">AddToBlockIndex</text>
</a>
</g>
</g>
<!-- Node21&#45;&gt;Node22 -->
<g id="edge27" class="edge"><title>Node21&#45;&gt;Node22</title>
<path fill="none" stroke="midnightblue" d="M323.118,-224.341C349.07,-234.795 384.55,-249.087 407.739,-258.428"/>
<polygon fill="midnightblue" stroke="midnightblue" points="324.267,-221.031 313.684,-220.541 321.652,-227.524 324.267,-221.031"/>
</g>
<!-- Node22&#45;&gt;Node9 -->
<g id="edge28" class="edge"><title>Node22&#45;&gt;Node9</title>
<path fill="none" stroke="midnightblue" d="M483.438,-279.969C495.539,-282.869 508.22,-285.908 519.466,-288.603"/>
<polygon fill="midnightblue" stroke="midnightblue" points="483.996,-276.503 473.455,-277.576 482.364,-283.31 483.996,-276.503"/>
</g>
<!-- Node22&#45;&gt;Node14 -->
<g id="edge29" class="edge"><title>Node22&#45;&gt;Node14</title>
<path fill="none" stroke="midnightblue" d="M484.653,-256.163C495.093,-253.747 505.913,-251.243 515.829,-248.949"/>
<polygon fill="midnightblue" stroke="midnightblue" points="483.756,-252.778 474.803,-258.442 485.335,-259.598 483.756,-252.778"/>
</g>
<!-- Node24&#45;&gt;Node4 -->
<g id="edge35" class="edge"><title>Node24&#45;&gt;Node4</title>
<path fill="none" stroke="midnightblue" d="M991.715,-62.5279C996.428,-65.3156 1001.02,-68.4801 1005,-72 1032.22,-96.0654 1053.21,-134.658 1061.99,-152.45"/>
<polygon fill="midnightblue" stroke="midnightblue" points="993.094,-59.2952 982.63,-57.6371 989.776,-65.4589 993.094,-59.2952"/>
</g>
</g>
</svg>
