<?xml version="1.0" encoding="UTF-8" standalone="no"?>
<!DOCTYPE svg PUBLIC "-//W3C//DTD SVG 1.1//EN"
 "http://www.w3.org/Graphics/SVG/1.1/DTD/svg11.dtd">
<!-- Generated by graphviz version 2.38.0 (20140413.2041)
 -->
<!-- Title: HelpMessage Pages: 1 -->
<svg width="308pt" height="78pt"
 viewBox="0.00 0.00 308.00 77.50" xmlns="http://www.w3.org/2000/svg" xmlns:xlink="http://www.w3.org/1999/xlink">
<g id="graph0" class="graph" transform="scale(1 1) rotate(0) translate(4 73.5)">
<title>HelpMessage</title>
<polygon fill="white" stroke="none" points="-4,4 -4,-73.5 304,-73.5 304,4 -4,4"/>
<!-- Node1 -->
<g id="node1" class="node"><title>Node1</title>
<polygon fill="#bfbfbf" stroke="black" points="0,-28 0,-47 78,-47 78,-28 0,-28"/>
<text text-anchor="middle" x="39" y="-35" font-family="Helvetica,sans-Serif" font-size="10.00">HelpMessage</text>
</g>
<!-- Node2 -->
<g id="node2" class="node"><title>Node2</title>
<g id="a_node2"><a xlink:href="anoncoind_8cpp.html#ac59316b767e6984e1285f0531275286b" target="_top" xlink:title="AppInit">
<polygon fill="white" stroke="black" points="146,-50 146,-69 194,-69 194,-50 146,-50"/>
<text text-anchor="middle" x="170" y="-57" font-family="Helvetica,sans-Serif" font-size="10.00">AppInit</text>
</a>
</g>
</g>
<!-- Node1&#45;&gt;Node2 -->
<g id="edge1" class="edge"><title>Node1&#45;&gt;Node2</title>
<path fill="none" stroke="midnightblue" d="M88.0889,-45.7012C107.834,-49.0687 129.778,-52.811 145.826,-55.5478"/>
<polygon fill="midnightblue" stroke="midnightblue" points="88.4526,-42.2128 78.0065,-43.9817 87.2758,-49.1132 88.4526,-42.2128"/>
</g>
<!-- Node4 -->
<g id="node4" class="node"><title>Node4</title>
<g id="a_node4"><a xlink:href="class_help_message_dialog.html#a7a3d90a39f3f4aad69764773540c7aba" target="_top" xlink:title="&quot;Help message&quot; dialog box ">
<polygon fill="white" stroke="black" points="114,-0.5 114,-30.5 226,-30.5 226,-0.5 114,-0.5"/>
<text text-anchor="start" x="122" y="-18.5" font-family="Helvetica,sans-Serif" font-size="10.00">HelpMessageDialog::</text>
<text text-anchor="middle" x="170" y="-7.5" font-family="Helvetica,sans-Serif" font-size="10.00">HelpMessageDialog</text>
</a>
</g>
</g>
<!-- Node1&#45;&gt;Node4 -->
<g id="edge3" class="edge"><title>Node1&#45;&gt;Node4</title>
<path fill="none" stroke="midnightblue" d="M87.9531,-29.322C96.3026,-27.898 105.049,-26.4064 113.579,-24.9517"/>
<polygon fill="midnightblue" stroke="midnightblue" points="87.2758,-25.8868 78.0065,-31.0183 88.4526,-32.7872 87.2758,-25.8868"/>
</g>
<!-- Node3 -->
<g id="node3" class="node"><title>Node3</title>
<g id="a_node3"><a xlink:href="anoncoind_8cpp.html#a0ddf1224851353fc92bfbff6f499fa97" target="_top" xlink:title="main">
<polygon fill="white" stroke="black" points="262,-50 262,-69 300,-69 300,-50 262,-50"/>
<text text-anchor="middle" x="281" y="-57" font-family="Helvetica,sans-Serif" font-size="10.00">main</text>
</a>
</g>
</g>
<!-- Node2&#45;&gt;Node3 -->
<g id="edge2" class="edge"><title>Node2&#45;&gt;Node3</title>
<path fill="none" stroke="midnightblue" d="M204.176,-59.5C223.176,-59.5 246.28,-59.5 261.955,-59.5"/>
<polygon fill="midnightblue" stroke="midnightblue" points="204.116,-56.0001 194.116,-59.5 204.116,-63.0001 204.116,-56.0001"/>
</g>
</g>
</svg>
