<?xml version="1.0" encoding="UTF-8" standalone="no"?>
<!DOCTYPE svg PUBLIC "-//W3C//DTD SVG 1.1//EN"
 "http://www.w3.org/Graphics/SVG/1.1/DTD/svg11.dtd">
<!-- Generated by graphviz version 2.38.0 (20140413.2041)
 -->
<!-- Title: src/qt/macdockiconhandler.h Pages: 1 -->
<svg width="360pt" height="84pt"
 viewBox="0.00 0.00 360.00 84.00" xmlns="http://www.w3.org/2000/svg" xmlns:xlink="http://www.w3.org/1999/xlink">
<g id="graph0" class="graph" transform="scale(1 1) rotate(0) translate(4 80)">
<title>src/qt/macdockiconhandler.h</title>
<polygon fill="white" stroke="none" points="-4,4 -4,-80 356,-80 356,4 -4,4"/>
<!-- Node1 -->
<g id="node1" class="node"><title>Node1</title>
<polygon fill="#bfbfbf" stroke="black" points="97.5,-56.5 97.5,-75.5 241.5,-75.5 241.5,-56.5 97.5,-56.5"/>
<text text-anchor="middle" x="169.5" y="-63.5" font-family="Helvetica,sans-Serif" font-size="10.00">src/qt/macdockiconhandler.h</text>
</g>
<!-- Node2 -->
<g id="node2" class="node"><title>Node2</title>
<g id="a_node2"><a xlink:href="macdockiconhandler_8mm.html" target="_top" xlink:title="src/qt/macdockiconhandler.mm">
<polygon fill="white" stroke="black" points="0,-0.5 0,-19.5 155,-19.5 155,-0.5 0,-0.5"/>
<text text-anchor="middle" x="77.5" y="-7.5" font-family="Helvetica,sans-Serif" font-size="10.00">src/qt/macdockiconhandler.mm</text>
</a>
</g>
</g>
<!-- Node1&#45;&gt;Node2 -->
<g id="edge1" class="edge"><title>Node1&#45;&gt;Node2</title>
<path fill="none" stroke="midnightblue" d="M145.95,-51.1774C129.021,-41.2407 106.717,-28.1492 92.2447,-19.6545"/>
<polygon fill="midnightblue" stroke="midnightblue" points="144.323,-54.2804 154.719,-56.324 147.866,-48.2435 144.323,-54.2804"/>
</g>
<!-- Node3 -->
<g id="node3" class="node"><title>Node3</title>
<g id="a_node3"><a xlink:href="moc__macdockiconhandler_8cpp.html" target="_top" xlink:title="src/qt/moc_macdockiconhandler.cpp">
<polygon fill="white" stroke="black" points="173,-0.5 173,-19.5 352,-19.5 352,-0.5 173,-0.5"/>
<text text-anchor="middle" x="262.5" y="-7.5" font-family="Helvetica,sans-Serif" font-size="10.00">src/qt/moc_macdockiconhandler.cpp</text>
</a>
</g>
</g>
<!-- Node1&#45;&gt;Node3 -->
<g id="edge2" class="edge"><title>Node1&#45;&gt;Node3</title>
<path fill="none" stroke="midnightblue" d="M193.306,-51.1774C210.419,-41.2407 232.965,-28.1492 247.595,-19.6545"/>
<polygon fill="midnightblue" stroke="midnightblue" points="191.332,-48.2758 184.442,-56.324 194.847,-54.3293 191.332,-48.2758"/>
</g>
</g>
</svg>
