<?xml version="1.0" encoding="UTF-8" standalone="no"?>
<!DOCTYPE svg PUBLIC "-//W3C//DTD SVG 1.1//EN"
 "http://www.w3.org/Graphics/SVG/1.1/DTD/svg11.dtd">
<!-- Generated by graphviz version 2.38.0 (20140413.2041)
 -->
<!-- Title: src/qt/macnotificationhandler.h Pages: 1 -->
<svg width="376pt" height="84pt"
 viewBox="0.00 0.00 376.00 84.00" xmlns="http://www.w3.org/2000/svg" xmlns:xlink="http://www.w3.org/1999/xlink">
<g id="graph0" class="graph" transform="scale(1 1) rotate(0) translate(4 80)">
<title>src/qt/macnotificationhandler.h</title>
<polygon fill="white" stroke="none" points="-4,4 -4,-80 372,-80 372,4 -4,4"/>
<!-- Node1 -->
<g id="node1" class="node"><title>Node1</title>
<polygon fill="#bfbfbf" stroke="black" points="101.5,-56.5 101.5,-75.5 253.5,-75.5 253.5,-56.5 101.5,-56.5"/>
<text text-anchor="middle" x="177.5" y="-63.5" font-family="Helvetica,sans-Serif" font-size="10.00">src/qt/macnotificationhandler.h</text>
</g>
<!-- Node2 -->
<g id="node2" class="node"><title>Node2</title>
<g id="a_node2"><a xlink:href="macnotificationhandler_8mm.html" target="_top" xlink:title="src/qt/macnotificationhandler.mm">
<polygon fill="white" stroke="black" points="0,-0.5 0,-19.5 163,-19.5 163,-0.5 0,-0.5"/>
<text text-anchor="middle" x="81.5" y="-7.5" font-family="Helvetica,sans-Serif" font-size="10.00">src/qt/macnotificationhandler.mm</text>
</a>
</g>
</g>
<!-- Node1&#45;&gt;Node2 -->
<g id="edge1" class="edge"><title>Node1&#45;&gt;Node2</title>
<path fill="none" stroke="midnightblue" d="M152.926,-51.1774C135.261,-41.2407 111.987,-28.1492 96.8858,-19.6545"/>
<polygon fill="midnightblue" stroke="midnightblue" points="151.644,-54.4718 162.076,-56.324 155.076,-48.3708 151.644,-54.4718"/>
</g>
<!-- Node3 -->
<g id="node3" class="node"><title>Node3</title>
<g id="a_node3"><a xlink:href="moc__macnotificationhandler_8cpp.html" target="_top" xlink:title="src/qt/moc_macnotificationhandler.cpp">
<polygon fill="white" stroke="black" points="181,-0.5 181,-19.5 368,-19.5 368,-0.5 181,-0.5"/>
<text text-anchor="middle" x="274.5" y="-7.5" font-family="Helvetica,sans-Serif" font-size="10.00">src/qt/moc_macnotificationhandler.cpp</text>
</a>
</g>
</g>
<!-- Node1&#45;&gt;Node3 -->
<g id="edge2" class="edge"><title>Node1&#45;&gt;Node3</title>
<path fill="none" stroke="midnightblue" d="M201.835,-51.4526C219.743,-41.4835 243.554,-28.2279 258.954,-19.6545"/>
<polygon fill="midnightblue" stroke="midnightblue" points="200.12,-48.4018 193.085,-56.324 203.525,-54.5179 200.12,-48.4018"/>
</g>
</g>
</svg>
