<?xml version="1.0" encoding="UTF-8" standalone="no"?>
<!DOCTYPE svg PUBLIC "-//W3C//DTD SVG 1.1//EN"
 "http://www.w3.org/Graphics/SVG/1.1/DTD/svg11.dtd">
<!-- Generated by graphviz version 2.38.0 (20140413.2041)
 -->
<!-- Title: OpenDiskFile Pages: 1 -->
<svg width="1286pt" height="389pt"
 viewBox="0.00 0.00 1286.00 389.00" xmlns="http://www.w3.org/2000/svg" xmlns:xlink="http://www.w3.org/1999/xlink">
<g id="graph0" class="graph" transform="scale(1 1) rotate(0) translate(4 385)">
<title>OpenDiskFile</title>
<polygon fill="white" stroke="none" points="-4,4 -4,-385 1282,-385 1282,4 -4,4"/>
<!-- Node1 -->
<g id="node1" class="node"><title>Node1</title>
<polygon fill="#bfbfbf" stroke="black" points="0,-166.5 0,-185.5 77,-185.5 77,-166.5 0,-166.5"/>
<text text-anchor="middle" x="38.5" y="-173.5" font-family="Helvetica,sans-Serif" font-size="10.00">OpenDiskFile</text>
</g>
<!-- Node2 -->
<g id="node2" class="node"><title>Node2</title>
<g id="a_node2"><a xlink:href="main_8h.html#a531eb79ff695289ac9a4f8daf292273c" target="_top" xlink:title="Open a block file (blk?????.dat) ">
<polygon fill="white" stroke="black" points="113,-209.5 113,-228.5 195,-228.5 195,-209.5 113,-209.5"/>
<text text-anchor="middle" x="154" y="-216.5" font-family="Helvetica,sans-Serif" font-size="10.00">OpenBlockFile</text>
</a>
</g>
</g>
<!-- Node1&#45;&gt;Node2 -->
<g id="edge1" class="edge"><title>Node1&#45;&gt;Node2</title>
<path fill="none" stroke="midnightblue" d="M74.4345,-189.235C91.7122,-195.781 112.172,-203.532 127.881,-209.484"/>
<polygon fill="midnightblue" stroke="midnightblue" points="75.2807,-185.813 64.6893,-185.543 72.8007,-192.359 75.2807,-185.813"/>
</g>
<!-- Node27 -->
<g id="node27" class="node"><title>Node27</title>
<g id="a_node27"><a xlink:href="main_8h.html#addac9f89d64c9e26d36d1481da35877e" target="_top" xlink:title="Open an undo file (rev?????.dat) ">
<polygon fill="white" stroke="black" points="113.5,-124.5 113.5,-143.5 194.5,-143.5 194.5,-124.5 113.5,-124.5"/>
<text text-anchor="middle" x="154" y="-131.5" font-family="Helvetica,sans-Serif" font-size="10.00">OpenUndoFile</text>
</a>
</g>
</g>
<!-- Node1&#45;&gt;Node27 -->
<g id="edge36" class="edge"><title>Node1&#45;&gt;Node27</title>
<path fill="none" stroke="midnightblue" d="M74.7863,-162.943C91.6507,-156.702 111.481,-149.364 126.954,-143.638"/>
<polygon fill="midnightblue" stroke="midnightblue" points="73.4187,-159.717 65.2549,-166.47 75.8481,-166.282 73.4187,-159.717"/>
</g>
<!-- Node3 -->
<g id="node3" class="node"><title>Node3</title>
<g id="a_node3"><a xlink:href="init_8cpp.html#a0189c34248cd89bbbe20d4d6045bd7c9" target="_top" xlink:title="ThreadImport">
<polygon fill="white" stroke="black" points="788.5,-114.5 788.5,-133.5 865.5,-133.5 865.5,-114.5 788.5,-114.5"/>
<text text-anchor="middle" x="827" y="-121.5" font-family="Helvetica,sans-Serif" font-size="10.00">ThreadImport</text>
</a>
</g>
</g>
<!-- Node2&#45;&gt;Node3 -->
<g id="edge2" class="edge"><title>Node2&#45;&gt;Node3</title>
<path fill="none" stroke="midnightblue" d="M205.173,-225.245C254.053,-230.783 330.508,-238 397,-238 397,-238 397,-238 510.5,-238 595.587,-238 631.45,-268.016 701,-219 731.551,-197.469 707.69,-166.191 737,-143 751.373,-131.628 770.994,-126.661 788.156,-124.629"/>
<polygon fill="midnightblue" stroke="midnightblue" points="205.51,-221.76 195.174,-224.092 204.708,-228.714 205.51,-221.76"/>
</g>
<!-- Node8 -->
<g id="node8" class="node"><title>Node8</title>
<g id="a_node8"><a xlink:href="main_8h.html#a74cc9659a06d35436a25b7ae56a15bcb" target="_top" xlink:title="Retrieve a transaction (from memory pool, or from disk, if possible) ">
<polygon fill="white" stroke="black" points="784.5,-342.5 784.5,-361.5 869.5,-361.5 869.5,-342.5 784.5,-342.5"/>
<text text-anchor="middle" x="827" y="-349.5" font-family="Helvetica,sans-Serif" font-size="10.00">GetTransaction</text>
</a>
</g>
</g>
<!-- Node2&#45;&gt;Node8 -->
<g id="edge7" class="edge"><title>Node2&#45;&gt;Node8</title>
<path fill="none" stroke="midnightblue" d="M174.106,-235.22C213.206,-266.696 306.329,-333 397,-333 397,-333 397,-333 510.5,-333 608.861,-333 724.159,-342.315 784.452,-347.901"/>
<polygon fill="midnightblue" stroke="midnightblue" points="176.136,-232.358 166.186,-228.72 171.695,-237.769 176.136,-232.358"/>
</g>
<!-- Node10 -->
<g id="node10" class="node"><title>Node10</title>
<g id="a_node10"><a xlink:href="main_8h.html#ada76402fa869197c916231a42b011fd4" target="_top" xlink:title="Functions for disk access for blocks. ">
<polygon fill="white" stroke="black" points="231,-190.5 231,-209.5 326,-209.5 326,-190.5 231,-190.5"/>
<text text-anchor="middle" x="278.5" y="-197.5" font-family="Helvetica,sans-Serif" font-size="10.00">WriteBlockToDisk</text>
</a>
</g>
</g>
<!-- Node2&#45;&gt;Node10 -->
<g id="edge9" class="edge"><title>Node2&#45;&gt;Node10</title>
<path fill="none" stroke="midnightblue" d="M205.27,-211.203C213.755,-209.887 222.53,-208.526 230.915,-207.225"/>
<polygon fill="midnightblue" stroke="midnightblue" points="204.456,-207.787 195.111,-212.779 205.529,-214.705 204.456,-207.787"/>
</g>
<!-- Node16 -->
<g id="node16" class="node"><title>Node16</title>
<g id="a_node16"><a xlink:href="main_8h.html#a2dc350346749b7da7f4b40c114ee5147" target="_top" xlink:title="ReadBlockFromDisk">
<polygon fill="white" stroke="black" points="589,-266.5 589,-285.5 697,-285.5 697,-266.5 589,-266.5"/>
<text text-anchor="middle" x="643" y="-273.5" font-family="Helvetica,sans-Serif" font-size="10.00">ReadBlockFromDisk</text>
</a>
</g>
</g>
<!-- Node2&#45;&gt;Node16 -->
<g id="edge18" class="edge"><title>Node2&#45;&gt;Node16</title>
<path fill="none" stroke="midnightblue" d="M181.398,-233.198C195.665,-240.159 213.833,-247.908 231,-252 356.672,-281.954 509.77,-281.574 588.917,-278.763"/>
<polygon fill="midnightblue" stroke="midnightblue" points="182.709,-229.939 172.205,-228.559 179.556,-236.189 182.709,-229.939"/>
</g>
<!-- Node26 -->
<g id="node26" class="node"><title>Node26</title>
<g id="a_node26"><a xlink:href="main_8cpp.html#a92fa926dca5dee9f673536d85f067ee7" target="_top" xlink:title="FindBlockPos">
<polygon fill="white" stroke="black" points="239.5,-152.5 239.5,-171.5 317.5,-171.5 317.5,-152.5 239.5,-152.5"/>
<text text-anchor="middle" x="278.5" y="-159.5" font-family="Helvetica,sans-Serif" font-size="10.00">FindBlockPos</text>
</a>
</g>
</g>
<!-- Node2&#45;&gt;Node26 -->
<g id="edge33" class="edge"><title>Node2&#45;&gt;Node26</title>
<path fill="none" stroke="midnightblue" d="M182.53,-204.605C196.858,-197.274 214.736,-188.376 231,-181 238.148,-177.758 246.017,-174.448 253.217,-171.517"/>
<polygon fill="midnightblue" stroke="midnightblue" points="180.527,-201.7 173.241,-209.392 183.734,-207.922 180.527,-201.7"/>
</g>
<!-- Node4 -->
<g id="node4" class="node"><title>Node4</title>
<g id="a_node4"><a xlink:href="init_8h.html#a1a4c1bfbf6ba1db77e988b89b9cadfd3" target="_top" xlink:title="Initialize anoncoin. ">
<polygon fill="white" stroke="black" points="974,-133.5 974,-152.5 1027,-152.5 1027,-133.5 974,-133.5"/>
<text text-anchor="middle" x="1000.5" y="-140.5" font-family="Helvetica,sans-Serif" font-size="10.00">AppInit2</text>
</a>
</g>
</g>
<!-- Node3&#45;&gt;Node4 -->
<g id="edge3" class="edge"><title>Node3&#45;&gt;Node4</title>
<path fill="none" stroke="midnightblue" d="M875.624,-129.276C907.429,-132.8 948.02,-137.297 973.895,-140.163"/>
<polygon fill="midnightblue" stroke="midnightblue" points="875.961,-125.792 865.636,-128.17 875.19,-132.75 875.961,-125.792"/>
</g>
<!-- Node5 -->
<g id="node5" class="node"><title>Node5</title>
<g id="a_node5"><a xlink:href="anoncoind_8cpp.html#ac59316b767e6984e1285f0531275286b" target="_top" xlink:title="AppInit">
<polygon fill="white" stroke="black" points="1120,-152.5 1120,-171.5 1168,-171.5 1168,-152.5 1120,-152.5"/>
<text text-anchor="middle" x="1144" y="-159.5" font-family="Helvetica,sans-Serif" font-size="10.00">AppInit</text>
</a>
</g>
</g>
<!-- Node4&#45;&gt;Node5 -->
<g id="edge4" class="edge"><title>Node4&#45;&gt;Node5</title>
<path fill="none" stroke="midnightblue" d="M1037.31,-147.809C1063.24,-151.29 1097.52,-155.893 1119.91,-158.899"/>
<polygon fill="midnightblue" stroke="midnightblue" points="1037.5,-144.303 1027.12,-146.441 1036.57,-151.241 1037.5,-144.303"/>
</g>
<!-- Node7 -->
<g id="node7" class="node"><title>Node7</title>
<g id="a_node7"><a xlink:href="class_anoncoin_coin.html#a9510881824d283404ac43414dbb74586" target="_top" xlink:title="AnoncoinCoin::initialize">
<polygon fill="white" stroke="black" points="1084,-114.5 1084,-133.5 1204,-133.5 1204,-114.5 1084,-114.5"/>
<text text-anchor="middle" x="1144" y="-121.5" font-family="Helvetica,sans-Serif" font-size="10.00">AnoncoinCoin::initialize</text>
</a>
</g>
</g>
<!-- Node4&#45;&gt;Node7 -->
<g id="edge6" class="edge"><title>Node4&#45;&gt;Node7</title>
<path fill="none" stroke="midnightblue" d="M1037.37,-138.183C1051.47,-136.291 1068.03,-134.067 1083.8,-131.949"/>
<polygon fill="midnightblue" stroke="midnightblue" points="1036.57,-134.759 1027.12,-139.559 1037.5,-141.697 1036.57,-134.759"/>
</g>
<!-- Node6 -->
<g id="node6" class="node"><title>Node6</title>
<g id="a_node6"><a xlink:href="anoncoind_8cpp.html#a0ddf1224851353fc92bfbff6f499fa97" target="_top" xlink:title="main">
<polygon fill="white" stroke="black" points="1240,-152.5 1240,-171.5 1278,-171.5 1278,-152.5 1240,-152.5"/>
<text text-anchor="middle" x="1259" y="-159.5" font-family="Helvetica,sans-Serif" font-size="10.00">main</text>
</a>
</g>
</g>
<!-- Node5&#45;&gt;Node6 -->
<g id="edge5" class="edge"><title>Node5&#45;&gt;Node6</title>
<path fill="none" stroke="midnightblue" d="M1178.15,-162C1198.25,-162 1223.13,-162 1239.73,-162"/>
<polygon fill="midnightblue" stroke="midnightblue" points="1178.14,-158.5 1168.14,-162 1178.14,-165.5 1178.14,-158.5"/>
</g>
<!-- Node9 -->
<g id="node9" class="node"><title>Node9</title>
<g id="a_node9"><a xlink:href="rpcrawtransaction_8cpp.html#a12e1b8a05d99d1544e5343c2282cc55a" target="_top" xlink:title="getrawtransaction">
<polygon fill="white" stroke="black" points="953,-361.5 953,-380.5 1048,-380.5 1048,-361.5 953,-361.5"/>
<text text-anchor="middle" x="1000.5" y="-368.5" font-family="Helvetica,sans-Serif" font-size="10.00">getrawtransaction</text>
</a>
</g>
</g>
<!-- Node8&#45;&gt;Node9 -->
<g id="edge8" class="edge"><title>Node8&#45;&gt;Node9</title>
<path fill="none" stroke="midnightblue" d="M879.574,-357.714C902.891,-360.297 930.24,-363.327 952.927,-365.84"/>
<polygon fill="midnightblue" stroke="midnightblue" points="879.84,-354.222 869.515,-356.599 879.069,-361.179 879.84,-354.222"/>
</g>
<!-- Node11 -->
<g id="node11" class="node"><title>Node11</title>
<g id="a_node11"><a xlink:href="main_8h.html#aae69635467b9737d6c5b44d8ccff5c82" target="_top" xlink:title="AcceptBlock">
<polygon fill="white" stroke="black" points="362,-152.5 362,-171.5 434,-171.5 434,-152.5 362,-152.5"/>
<text text-anchor="middle" x="398" y="-159.5" font-family="Helvetica,sans-Serif" font-size="10.00">AcceptBlock</text>
</a>
</g>
</g>
<!-- Node10&#45;&gt;Node11 -->
<g id="edge10" class="edge"><title>Node10&#45;&gt;Node11</title>
<path fill="none" stroke="midnightblue" d="M318.709,-187.32C334.585,-182.185 352.61,-176.356 367.359,-171.586"/>
<polygon fill="midnightblue" stroke="midnightblue" points="317.588,-184.004 309.15,-190.411 319.742,-190.664 317.588,-184.004"/>
</g>
<!-- Node15 -->
<g id="node15" class="node"><title>Node15</title>
<g id="a_node15"><a xlink:href="main_8h.html#a92e5e1fcbd56cc44c27d39b64da8a79a" target="_top" xlink:title="Initialize a new block tree database + block data on disk. ">
<polygon fill="white" stroke="black" points="470,-114.5 470,-133.5 549,-133.5 549,-114.5 470,-114.5"/>
<text text-anchor="middle" x="509.5" y="-121.5" font-family="Helvetica,sans-Serif" font-size="10.00">InitBlockIndex</text>
</a>
</g>
</g>
<!-- Node10&#45;&gt;Node15 -->
<g id="edge15" class="edge"><title>Node10&#45;&gt;Node15</title>
<path fill="none" stroke="midnightblue" d="M336.189,-202.109C366.639,-201.063 403.979,-196.151 434,-181 454.769,-170.518 451.276,-156.808 470,-143 474.799,-139.461 480.358,-136.278 485.734,-133.575"/>
<polygon fill="midnightblue" stroke="midnightblue" points="336.07,-198.61 326.148,-202.325 336.22,-205.609 336.07,-198.61"/>
</g>
<!-- Node12 -->
<g id="node12" class="node"><title>Node12</title>
<g id="a_node12"><a xlink:href="main_8h.html#a87a59e710c26c4a10de57b5acb1e2e92" target="_top" xlink:title="Process an incoming block. ">
<polygon fill="white" stroke="black" points="471,-152.5 471,-171.5 548,-171.5 548,-152.5 471,-152.5"/>
<text text-anchor="middle" x="509.5" y="-159.5" font-family="Helvetica,sans-Serif" font-size="10.00">ProcessBlock</text>
</a>
</g>
</g>
<!-- Node11&#45;&gt;Node12 -->
<g id="edge11" class="edge"><title>Node11&#45;&gt;Node12</title>
<path fill="none" stroke="midnightblue" d="M444.325,-162C453.086,-162 462.179,-162 470.67,-162"/>
<polygon fill="midnightblue" stroke="midnightblue" points="444.249,-158.5 434.249,-162 444.249,-165.5 444.249,-158.5"/>
</g>
<!-- Node13 -->
<g id="node13" class="node"><title>Node13</title>
<g id="a_node13"><a xlink:href="main_8h.html#a8641eccb4e5d174838adeea9b234a691" target="_top" xlink:title="Import blocks from an external file. ">
<polygon fill="white" stroke="black" points="585,-152.5 585,-171.5 701,-171.5 701,-152.5 585,-152.5"/>
<text text-anchor="middle" x="643" y="-159.5" font-family="Helvetica,sans-Serif" font-size="10.00">LoadExternalBlockFile</text>
</a>
</g>
</g>
<!-- Node12&#45;&gt;Node13 -->
<g id="edge12" class="edge"><title>Node12&#45;&gt;Node13</title>
<path fill="none" stroke="midnightblue" d="M558.358,-162C566.913,-162 575.906,-162 584.694,-162"/>
<polygon fill="midnightblue" stroke="midnightblue" points="558.183,-158.5 548.183,-162 558.183,-165.5 558.183,-158.5"/>
</g>
<!-- Node14 -->
<g id="node14" class="node"><title>Node14</title>
<g id="a_node14"><a xlink:href="rpcmining_8cpp.html#a6fc1aa077add8cb1c74207056616134d" target="_top" xlink:title="submitblock">
<polygon fill="white" stroke="black" points="608.5,-190.5 608.5,-209.5 677.5,-209.5 677.5,-190.5 608.5,-190.5"/>
<text text-anchor="middle" x="643" y="-197.5" font-family="Helvetica,sans-Serif" font-size="10.00">submitblock</text>
</a>
</g>
</g>
<!-- Node12&#45;&gt;Node14 -->
<g id="edge14" class="edge"><title>Node12&#45;&gt;Node14</title>
<path fill="none" stroke="midnightblue" d="M553.378,-174.391C571.386,-179.594 592.01,-185.554 608.828,-190.414"/>
<polygon fill="midnightblue" stroke="midnightblue" points="554.262,-171.003 543.683,-171.589 552.318,-177.728 554.262,-171.003"/>
</g>
<!-- Node13&#45;&gt;Node3 -->
<g id="edge13" class="edge"><title>Node13&#45;&gt;Node3</title>
<path fill="none" stroke="midnightblue" d="M699.832,-150.343C728.556,-144.345 762.804,-137.195 788.365,-131.858"/>
<polygon fill="midnightblue" stroke="midnightblue" points="699,-146.941 689.926,-152.411 700.431,-153.793 699,-146.941"/>
</g>
<!-- Node15&#45;&gt;Node3 -->
<g id="edge16" class="edge"><title>Node15&#45;&gt;Node3</title>
<path fill="none" stroke="midnightblue" d="M559.302,-124C622.51,-124 731.334,-124 788.472,-124"/>
<polygon fill="midnightblue" stroke="midnightblue" points="559.187,-120.5 549.186,-124 559.186,-127.5 559.187,-120.5"/>
</g>
<!-- Node15&#45;&gt;Node4 -->
<g id="edge17" class="edge"><title>Node15&#45;&gt;Node4</title>
<path fill="none" stroke="midnightblue" d="M559.058,-113.671C635.995,-99.0967 790.192,-77.1995 917,-105 941.8,-110.437 968.037,-124.065 984.094,-133.431"/>
<polygon fill="midnightblue" stroke="midnightblue" points="558.324,-110.248 549.172,-115.585 559.655,-117.12 558.324,-110.248"/>
</g>
<!-- Node16&#45;&gt;Node4 -->
<g id="edge19" class="edge"><title>Node16&#45;&gt;Node4</title>
<path fill="none" stroke="midnightblue" d="M686.973,-261.898C692.045,-259.118 696.876,-255.843 701,-252 726.887,-227.883 708.259,-201.633 737,-181 774.687,-153.944 915.676,-145.937 973.998,-143.755"/>
<polygon fill="midnightblue" stroke="midnightblue" points="685.165,-258.884 677.68,-266.382 688.207,-265.189 685.165,-258.884"/>
</g>
<!-- Node16&#45;&gt;Node8 -->
<g id="edge20" class="edge"><title>Node16&#45;&gt;Node8</title>
<path fill="none" stroke="midnightblue" d="M664.61,-291.483C682.77,-304.407 710.402,-322.374 737,-333 751.965,-338.979 769.134,-343.21 784.375,-346.136"/>
<polygon fill="midnightblue" stroke="midnightblue" points="666.651,-288.639 656.502,-285.598 662.539,-294.304 666.651,-288.639"/>
</g>
<!-- Node17 -->
<g id="node17" class="node"><title>Node17</title>
<g id="a_node17"><a xlink:href="main_8h.html#a445ff051f3b0038c0b19b7e1156c9f95" target="_top" xlink:title="ReadBlockFromDisk">
<polygon fill="white" stroke="black" points="773,-266.5 773,-285.5 881,-285.5 881,-266.5 773,-266.5"/>
<text text-anchor="middle" x="827" y="-273.5" font-family="Helvetica,sans-Serif" font-size="10.00">ReadBlockFromDisk</text>
</a>
</g>
</g>
<!-- Node16&#45;&gt;Node17 -->
<g id="edge21" class="edge"><title>Node16&#45;&gt;Node17</title>
<path fill="none" stroke="midnightblue" d="M707.406,-276C728.749,-276 752.328,-276 772.803,-276"/>
<polygon fill="midnightblue" stroke="midnightblue" points="707.131,-272.5 697.131,-276 707.131,-279.5 707.131,-272.5"/>
</g>
<!-- Node18 -->
<g id="node18" class="node"><title>Node18</title>
<g id="a_node18"><a xlink:href="main_8h.html#abfcd613b1eaa02bc626b1c3cb098fc4a" target="_top" xlink:title="Verify consistency of the block and coin databases. ">
<polygon fill="white" stroke="black" points="799,-38.5 799,-57.5 855,-57.5 855,-38.5 799,-38.5"/>
<text text-anchor="middle" x="827" y="-45.5" font-family="Helvetica,sans-Serif" font-size="10.00">VerifyDB</text>
</a>
</g>
</g>
<!-- Node16&#45;&gt;Node18 -->
<g id="edge22" class="edge"><title>Node16&#45;&gt;Node18</title>
<path fill="none" stroke="midnightblue" d="M664.52,-259.86C676.643,-249.369 691.44,-234.746 701,-219 728.574,-173.582 704.696,-147.185 737,-105 753.957,-82.8568 782.153,-66.914 802.265,-57.6149"/>
<polygon fill="midnightblue" stroke="midnightblue" points="662.087,-257.332 656.653,-266.427 666.573,-262.706 662.087,-257.332"/>
</g>
<!-- Node20 -->
<g id="node20" class="node"><title>Node20</title>
<g id="a_node20"><a xlink:href="main_8h.html#aac88c75e65aa0dee60e4332dbcc16120" target="_top" xlink:title="Print the loaded block tree. ">
<polygon fill="white" stroke="black" points="786,-190.5 786,-209.5 868,-209.5 868,-190.5 786,-190.5"/>
<text text-anchor="middle" x="827" y="-197.5" font-family="Helvetica,sans-Serif" font-size="10.00">PrintBlockTree</text>
</a>
</g>
</g>
<!-- Node16&#45;&gt;Node20 -->
<g id="edge25" class="edge"><title>Node16&#45;&gt;Node20</title>
<path fill="none" stroke="midnightblue" d="M681.574,-262.355C688.252,-259.328 694.988,-255.855 701,-252 719.271,-240.283 717.709,-228.949 737,-219 752.025,-211.251 770.038,-206.661 785.917,-203.942"/>
<polygon fill="midnightblue" stroke="midnightblue" points="679.752,-259.327 671.923,-266.466 682.495,-265.767 679.752,-259.327"/>
</g>
<!-- Node21 -->
<g id="node21" class="node"><title>Node21</title>
<g id="a_node21"><a xlink:href="rpcblockchain_8cpp.html#a63608cf1bb275120194c3b4e070af3d7" target="_top" xlink:title="getblock">
<polygon fill="white" stroke="black" points="800,-228.5 800,-247.5 854,-247.5 854,-228.5 800,-228.5"/>
<text text-anchor="middle" x="827" y="-235.5" font-family="Helvetica,sans-Serif" font-size="10.00">getblock</text>
</a>
</g>
</g>
<!-- Node16&#45;&gt;Node21 -->
<g id="edge27" class="edge"><title>Node16&#45;&gt;Node21</title>
<path fill="none" stroke="midnightblue" d="M699.985,-264.311C733.236,-257.368 773.846,-248.889 799.815,-243.467"/>
<polygon fill="midnightblue" stroke="midnightblue" points="699,-260.941 689.926,-266.411 700.431,-267.793 699,-260.941"/>
</g>
<!-- Node22 -->
<g id="node22" class="node"><title>Node22</title>
<g id="a_node22"><a xlink:href="class_c_wallet.html#a979a17e80e4897ed1f4ae9a4be7c493c" target="_top" xlink:title="CWallet::ScanForWalletTransactions">
<polygon fill="white" stroke="black" points="737,-304.5 737,-323.5 917,-323.5 917,-304.5 737,-304.5"/>
<text text-anchor="middle" x="827" y="-311.5" font-family="Helvetica,sans-Serif" font-size="10.00">CWallet::ScanForWalletTransactions</text>
</a>
</g>
</g>
<!-- Node16&#45;&gt;Node22 -->
<g id="edge28" class="edge"><title>Node16&#45;&gt;Node22</title>
<path fill="none" stroke="midnightblue" d="M699.946,-287.681C725.756,-293.07 756.007,-299.386 780.404,-304.48"/>
<polygon fill="midnightblue" stroke="midnightblue" points="700.431,-284.207 689.926,-285.589 699,-291.059 700.431,-284.207"/>
</g>
<!-- Node18&#45;&gt;Node4 -->
<g id="edge23" class="edge"><title>Node18&#45;&gt;Node4</title>
<path fill="none" stroke="midnightblue" d="M865.129,-54.1334C881.651,-57.8238 900.955,-63.5031 917,-72 947.727,-88.2718 976.904,-117.832 990.885,-133.172"/>
<polygon fill="midnightblue" stroke="midnightblue" points="865.757,-50.6893 855.254,-52.0853 864.335,-57.5434 865.757,-50.6893"/>
</g>
<!-- Node19 -->
<g id="node19" class="node"><title>Node19</title>
<g id="a_node19"><a xlink:href="rpcblockchain_8cpp.html#a0b1dd8862fc7292c243ad9489f96a3c8" target="_top" xlink:title="verifychain">
<polygon fill="white" stroke="black" points="968.5,-38.5 968.5,-57.5 1032.5,-57.5 1032.5,-38.5 968.5,-38.5"/>
<text text-anchor="middle" x="1000.5" y="-45.5" font-family="Helvetica,sans-Serif" font-size="10.00">verifychain</text>
</a>
</g>
</g>
<!-- Node18&#45;&gt;Node19 -->
<g id="edge24" class="edge"><title>Node18&#45;&gt;Node19</title>
<path fill="none" stroke="midnightblue" d="M865.518,-48C896.334,-48 939.467,-48 968.388,-48"/>
<polygon fill="midnightblue" stroke="midnightblue" points="865.175,-44.5001 855.175,-48 865.175,-51.5001 865.175,-44.5001"/>
</g>
<!-- Node20&#45;&gt;Node4 -->
<g id="edge26" class="edge"><title>Node20&#45;&gt;Node4</title>
<path fill="none" stroke="midnightblue" d="M877.054,-187.875C890.126,-184.345 904.177,-180.277 917,-176 937.926,-169.02 961.216,-159.541 977.699,-152.533"/>
<polygon fill="midnightblue" stroke="midnightblue" points="876.055,-184.519 867.286,-190.465 877.849,-191.286 876.055,-184.519"/>
</g>
<!-- Node22&#45;&gt;Node4 -->
<g id="edge29" class="edge"><title>Node22&#45;&gt;Node4</title>
<path fill="none" stroke="midnightblue" d="M909.524,-299.861C912.125,-298.39 914.627,-296.774 917,-295 929.926,-285.337 979.331,-184.694 994.824,-152.704"/>
<polygon fill="midnightblue" stroke="midnightblue" points="907.808,-296.804 900.35,-304.328 910.873,-303.097 907.808,-296.804"/>
</g>
<!-- Node23 -->
<g id="node23" class="node"><title>Node23</title>
<g id="a_node23"><a xlink:href="rpcdump_8cpp.html#a3a6fdb974fce01220a895393d444e981" target="_top" xlink:title="importprivkey">
<polygon fill="white" stroke="black" points="962.5,-323.5 962.5,-342.5 1038.5,-342.5 1038.5,-323.5 962.5,-323.5"/>
<text text-anchor="middle" x="1000.5" y="-330.5" font-family="Helvetica,sans-Serif" font-size="10.00">importprivkey</text>
</a>
</g>
</g>
<!-- Node22&#45;&gt;Node23 -->
<g id="edge30" class="edge"><title>Node22&#45;&gt;Node23</title>
<path fill="none" stroke="midnightblue" d="M923.97,-324.632C937.602,-326.143 950.885,-327.614 962.414,-328.891"/>
<polygon fill="midnightblue" stroke="midnightblue" points="924.326,-321.15 914.001,-323.528 923.555,-328.108 924.326,-321.15"/>
</g>
<!-- Node24 -->
<g id="node24" class="node"><title>Node24</title>
<g id="a_node24"><a xlink:href="rpcdump_8cpp.html#a457bc572859c8265c72a0afd1a6db56c" target="_top" xlink:title="importaddress">
<polygon fill="white" stroke="black" points="960.5,-285.5 960.5,-304.5 1040.5,-304.5 1040.5,-285.5 960.5,-285.5"/>
<text text-anchor="middle" x="1000.5" y="-292.5" font-family="Helvetica,sans-Serif" font-size="10.00">importaddress</text>
</a>
</g>
</g>
<!-- Node22&#45;&gt;Node24 -->
<g id="edge31" class="edge"><title>Node22&#45;&gt;Node24</title>
<path fill="none" stroke="midnightblue" d="M924.238,-303.338C936.946,-301.93 949.343,-300.557 960.288,-299.344"/>
<polygon fill="midnightblue" stroke="midnightblue" points="923.555,-299.892 914.001,-304.472 924.326,-306.85 923.555,-299.892"/>
</g>
<!-- Node25 -->
<g id="node25" class="node"><title>Node25</title>
<g id="a_node25"><a xlink:href="rpcdump_8cpp.html#a2566d5c9dd1938b74e70398cdb3ac5c1" target="_top" xlink:title="importwallet">
<polygon fill="white" stroke="black" points="965.5,-247.5 965.5,-266.5 1035.5,-266.5 1035.5,-247.5 965.5,-247.5"/>
<text text-anchor="middle" x="1000.5" y="-254.5" font-family="Helvetica,sans-Serif" font-size="10.00">importwallet</text>
</a>
</g>
</g>
<!-- Node22&#45;&gt;Node25 -->
<g id="edge32" class="edge"><title>Node22&#45;&gt;Node25</title>
<path fill="none" stroke="midnightblue" d="M894.087,-302.027C901.901,-299.986 909.69,-297.652 917,-295 934.007,-288.831 936.607,-283.653 953,-276 959.954,-272.754 967.622,-269.494 974.691,-266.614"/>
<polygon fill="midnightblue" stroke="midnightblue" points="893.085,-298.669 884.211,-304.457 894.757,-305.466 893.085,-298.669"/>
</g>
<!-- Node26&#45;&gt;Node11 -->
<g id="edge34" class="edge"><title>Node26&#45;&gt;Node11</title>
<path fill="none" stroke="midnightblue" d="M327.89,-162C339.26,-162 351.165,-162 361.828,-162"/>
<polygon fill="midnightblue" stroke="midnightblue" points="327.649,-158.5 317.649,-162 327.649,-165.5 327.649,-158.5"/>
</g>
<!-- Node26&#45;&gt;Node15 -->
<g id="edge35" class="edge"><title>Node26&#45;&gt;Node15</title>
<path fill="none" stroke="midnightblue" d="M327.618,-150.089C338.857,-147.537 350.813,-145.009 362,-143 398.35,-136.473 440.16,-131.277 469.786,-127.98"/>
<polygon fill="midnightblue" stroke="midnightblue" points="326.491,-146.757 317.539,-152.424 328.071,-153.576 326.491,-146.757"/>
</g>
<!-- Node28 -->
<g id="node28" class="node"><title>Node28</title>
<g id="a_node28"><a xlink:href="main_8cpp.html#a16dd07301ce5269712d7936840c0217f" target="_top" xlink:title="FindUndoPos">
<polygon fill="white" stroke="black" points="471,-47.5 471,-66.5 548,-66.5 548,-47.5 471,-47.5"/>
<text text-anchor="middle" x="509.5" y="-54.5" font-family="Helvetica,sans-Serif" font-size="10.00">FindUndoPos</text>
</a>
</g>
</g>
<!-- Node27&#45;&gt;Node28 -->
<g id="edge37" class="edge"><title>Node27&#45;&gt;Node28</title>
<path fill="none" stroke="midnightblue" d="M204.633,-123.189C276.162,-107.608 406.668,-79.1813 470.836,-65.204"/>
<polygon fill="midnightblue" stroke="midnightblue" points="203.548,-119.843 194.522,-125.391 205.038,-126.683 203.548,-119.843"/>
</g>
<!-- Node29 -->
<g id="node29" class="node"><title>Node29</title>
<g id="a_node29"><a xlink:href="main_8h.html#ae478a2e37bd5c3ac735f30cc12cc7f8b" target="_top" xlink:title="ConnectBlock">
<polygon fill="white" stroke="black" points="604,-38.5 604,-57.5 682,-57.5 682,-38.5 604,-38.5"/>
<text text-anchor="middle" x="643" y="-45.5" font-family="Helvetica,sans-Serif" font-size="10.00">ConnectBlock</text>
</a>
</g>
</g>
<!-- Node28&#45;&gt;Node29 -->
<g id="edge38" class="edge"><title>Node28&#45;&gt;Node29</title>
<path fill="none" stroke="midnightblue" d="M558.302,-53.7284C573.29,-52.7026 589.627,-51.5845 603.856,-50.6106"/>
<polygon fill="midnightblue" stroke="midnightblue" points="557.92,-50.2462 548.183,-54.421 558.398,-57.2299 557.92,-50.2462"/>
</g>
<!-- Node29&#45;&gt;Node18 -->
<g id="edge39" class="edge"><title>Node29&#45;&gt;Node18</title>
<path fill="none" stroke="midnightblue" d="M692.363,-48C726.423,-48 770.78,-48 798.832,-48"/>
<polygon fill="midnightblue" stroke="midnightblue" points="692.153,-44.5001 682.153,-48 692.153,-51.5001 692.153,-44.5001"/>
</g>
<!-- Node30 -->
<g id="node30" class="node"><title>Node30</title>
<g id="a_node30"><a xlink:href="miner_8h.html#af441d1c1899839f4e3cc0ee1367914a5" target="_top" xlink:title="Generate a new block, without valid proof&#45;of&#45;work. ">
<polygon fill="white" stroke="black" points="781.5,-0.5 781.5,-19.5 872.5,-19.5 872.5,-0.5 781.5,-0.5"/>
<text text-anchor="middle" x="827" y="-7.5" font-family="Helvetica,sans-Serif" font-size="10.00">CreateNewBlock</text>
</a>
</g>
</g>
<!-- Node29&#45;&gt;Node30 -->
<g id="edge40" class="edge"><title>Node29&#45;&gt;Node30</title>
<path fill="none" stroke="midnightblue" d="M692.027,-37.9723C719.749,-32.1843 754.377,-24.9542 781.483,-19.2947"/>
<polygon fill="midnightblue" stroke="midnightblue" points="691.227,-34.5639 682.153,-40.034 692.657,-41.4162 691.227,-34.5639"/>
</g>
<!-- Node31 -->
<g id="node31" class="node"><title>Node31</title>
<g id="a_node31"><a xlink:href="rpcmining_8cpp.html#a27347eecedd59156c914fcb5ce488f9a" target="_top" xlink:title="getblocktemplate">
<polygon fill="white" stroke="black" points="954.5,-0.5 954.5,-19.5 1046.5,-19.5 1046.5,-0.5 954.5,-0.5"/>
<text text-anchor="middle" x="1000.5" y="-7.5" font-family="Helvetica,sans-Serif" font-size="10.00">getblocktemplate</text>
</a>
</g>
</g>
<!-- Node30&#45;&gt;Node31 -->
<g id="edge41" class="edge"><title>Node30&#45;&gt;Node31</title>
<path fill="none" stroke="midnightblue" d="M882.914,-10C905.923,-10 932.348,-10 954.217,-10"/>
<polygon fill="midnightblue" stroke="midnightblue" points="882.612,-6.5001 872.612,-10 882.612,-13.5001 882.612,-6.5001"/>
</g>
</g>
</svg>
