<?xml version="1.0" encoding="UTF-8" standalone="no"?>
<!DOCTYPE svg PUBLIC "-//W3C//DTD SVG 1.1//EN"
 "http://www.w3.org/Graphics/SVG/1.1/DTD/svg11.dtd">
<!-- Generated by graphviz version 2.38.0 (20140413.2041)
 -->
<!-- Title: CheckInputs Pages: 1 -->
<svg width="808pt" height="486pt"
 viewBox="0.00 0.00 808.00 486.00" xmlns="http://www.w3.org/2000/svg" xmlns:xlink="http://www.w3.org/1999/xlink">
<g id="graph0" class="graph" transform="scale(1 1) rotate(0) translate(4 482)">
<title>CheckInputs</title>
<polygon fill="white" stroke="none" points="-4,4 -4,-482 804,-482 804,4 -4,4"/>
<!-- Node1 -->
<g id="node1" class="node"><title>Node1</title>
<polygon fill="#bfbfbf" stroke="black" points="0,-221.5 0,-240.5 72,-240.5 72,-221.5 0,-221.5"/>
<text text-anchor="middle" x="36" y="-228.5" font-family="Helvetica,sans-Serif" font-size="10.00">CheckInputs</text>
</g>
<!-- Node2 -->
<g id="node2" class="node"><title>Node2</title>
<g id="a_node2"><a xlink:href="class_c_transaction.html#a274384ecbb50d71355cd287b7a6bca51" target="_top" xlink:title="CTransaction::IsCoinBase">
<polygon fill="white" stroke="black" points="310.5,-458.5 310.5,-477.5 443.5,-477.5 443.5,-458.5 310.5,-458.5"/>
<text text-anchor="middle" x="377" y="-465.5" font-family="Helvetica,sans-Serif" font-size="10.00">CTransaction::IsCoinBase</text>
</a>
</g>
</g>
<!-- Node1&#45;&gt;Node2 -->
<g id="edge1" class="edge"><title>Node1&#45;&gt;Node2</title>
<path fill="none" stroke="midnightblue" d="M37.4262,-240.775C39.3689,-272.425 50.0437,-372.835 108,-421 161.207,-465.218 241.25,-474.225 300.009,-473.837"/>
<polygon fill="midnightblue" stroke="midnightblue" points="300.41,-477.331 310.352,-473.671 300.297,-470.332 300.41,-477.331"/>
</g>
<!-- Node3 -->
<g id="node3" class="node"><title>Node3</title>
<g id="a_node3"><a xlink:href="class_c_coins_view_cache.html#a9107d0dd2cf79ba93a58e676aa412d3a" target="_top" xlink:title="CCoinsViewCache::HaveInputs">
<polygon fill="white" stroke="black" points="108,-392.5 108,-411.5 264,-411.5 264,-392.5 108,-392.5"/>
<text text-anchor="middle" x="186" y="-399.5" font-family="Helvetica,sans-Serif" font-size="10.00">CCoinsViewCache::HaveInputs</text>
</a>
</g>
</g>
<!-- Node1&#45;&gt;Node3 -->
<g id="edge2" class="edge"><title>Node1&#45;&gt;Node3</title>
<path fill="none" stroke="midnightblue" d="M38.8432,-240.506C44.3857,-266.522 63.3515,-339.507 108,-378 112.802,-382.14 118.315,-385.566 124.136,-388.402"/>
<polygon fill="midnightblue" stroke="midnightblue" points="122.908,-391.684 133.48,-392.389 125.656,-385.245 122.908,-391.684"/>
</g>
<!-- Node8 -->
<g id="node8" class="node"><title>Node8</title>
<g id="a_node8"><a xlink:href="class_c_coins_view_cache.html#aa6a5e44220f594be6d0cf2911bd39fd6" target="_top" xlink:title="CCoinsViewCache::GetCoins">
<polygon fill="white" stroke="black" points="303.5,-344.5 303.5,-363.5 450.5,-363.5 450.5,-344.5 303.5,-344.5"/>
<text text-anchor="middle" x="377" y="-351.5" font-family="Helvetica,sans-Serif" font-size="10.00">CCoinsViewCache::GetCoins</text>
</a>
</g>
</g>
<!-- Node1&#45;&gt;Node8 -->
<g id="edge20" class="edge"><title>Node1&#45;&gt;Node8</title>
<path fill="none" stroke="midnightblue" d="M39.5989,-240.592C46.3832,-263.516 67.011,-321.331 108,-345 175.556,-384.01 269.5,-375.807 326.341,-365.484"/>
<polygon fill="midnightblue" stroke="midnightblue" points="327.342,-368.857 336.508,-363.543 326.029,-361.981 327.342,-368.857"/>
</g>
<!-- Node10 -->
<g id="node10" class="node"><title>Node10</title>
<g id="a_node10"><a xlink:href="class_c_validation_state.html#a88ff08b67f7f44bb3c7f7053bb1ee6fc" target="_top" xlink:title="CValidationState::Invalid">
<polygon fill="white" stroke="black" points="123.5,-316.5 123.5,-335.5 248.5,-335.5 248.5,-316.5 123.5,-316.5"/>
<text text-anchor="middle" x="186" y="-323.5" font-family="Helvetica,sans-Serif" font-size="10.00">CValidationState::Invalid</text>
</a>
</g>
</g>
<!-- Node1&#45;&gt;Node10 -->
<g id="edge11" class="edge"><title>Node1&#45;&gt;Node10</title>
<path fill="none" stroke="midnightblue" d="M44.1758,-240.752C55.8814,-255.987 80.5513,-285.405 108,-302 115.321,-306.426 123.533,-310.106 131.793,-313.145"/>
<polygon fill="midnightblue" stroke="midnightblue" points="130.869,-316.527 141.463,-316.423 133.116,-309.897 130.869,-316.527"/>
</g>
<!-- Node11 -->
<g id="node11" class="node"><title>Node11</title>
<g id="a_node11"><a xlink:href="class_c_validation_state.html#a3c6786d00da8d1c5df25b4c3876409e8" target="_top" xlink:title="CValidationState::DoS">
<polygon fill="white" stroke="black" points="319,-287.5 319,-306.5 435,-306.5 435,-287.5 319,-287.5"/>
<text text-anchor="middle" x="377" y="-294.5" font-family="Helvetica,sans-Serif" font-size="10.00">CValidationState::DoS</text>
</a>
</g>
</g>
<!-- Node1&#45;&gt;Node11 -->
<g id="edge23" class="edge"><title>Node1&#45;&gt;Node11</title>
<path fill="none" stroke="midnightblue" d="M50.964,-240.593C64.7864,-249.563 86.8823,-262.519 108,-269 174.173,-289.307 253.382,-295.494 308.451,-297.099"/>
<polygon fill="midnightblue" stroke="midnightblue" points="308.704,-300.606 318.788,-297.355 308.878,-293.608 308.704,-300.606"/>
</g>
<!-- Node12 -->
<g id="node12" class="node"><title>Node12</title>
<g id="a_node12"><a xlink:href="class_c_transaction.html#a3f8666d2a275c40da14bd5eaf47dc004" target="_top" xlink:title="CTransaction::GetHash">
<polygon fill="white" stroke="black" points="125.5,-240.5 125.5,-259.5 246.5,-259.5 246.5,-240.5 125.5,-240.5"/>
<text text-anchor="middle" x="186" y="-247.5" font-family="Helvetica,sans-Serif" font-size="10.00">CTransaction::GetHash</text>
</a>
</g>
</g>
<!-- Node1&#45;&gt;Node12 -->
<g id="edge13" class="edge"><title>Node1&#45;&gt;Node12</title>
<path fill="none" stroke="midnightblue" d="M72.0739,-235.503C84.9921,-237.161 100.123,-239.104 115.034,-241.018"/>
<polygon fill="midnightblue" stroke="midnightblue" points="114.928,-244.533 125.293,-242.335 115.82,-237.59 114.928,-244.533"/>
</g>
<!-- Node15 -->
<g id="node15" class="node"><title>Node15</title>
<g id="a_node15"><a xlink:href="classbase__uint.html#ac3080a72402cadf28dbc9f9b69cc60be" target="_top" xlink:title="base_uint::ToString">
<polygon fill="white" stroke="black" points="134.5,-202.5 134.5,-221.5 237.5,-221.5 237.5,-202.5 134.5,-202.5"/>
<text text-anchor="middle" x="186" y="-209.5" font-family="Helvetica,sans-Serif" font-size="10.00">base_uint::ToString</text>
</a>
</g>
</g>
<!-- Node1&#45;&gt;Node15 -->
<g id="edge16" class="edge"><title>Node1&#45;&gt;Node15</title>
<path fill="none" stroke="midnightblue" d="M72.0739,-226.497C87.6513,-224.497 106.446,-222.085 124.194,-219.806"/>
<polygon fill="midnightblue" stroke="midnightblue" points="125.018,-223.229 134.49,-218.484 124.126,-216.286 125.018,-223.229"/>
</g>
<!-- Node17 -->
<g id="node17" class="node"><title>Node17</title>
<g id="a_node17"><a xlink:href="class_c_coins_view_cache.html#a2c578c50e6d146c90f386c755814e6c6" target="_top" xlink:title="CCoinsViewCache::GetBest\lBlock">
<polygon fill="white" stroke="black" points="115,-153 115,-183 257,-183 257,-153 115,-153"/>
<text text-anchor="start" x="123" y="-171" font-family="Helvetica,sans-Serif" font-size="10.00">CCoinsViewCache::GetBest</text>
<text text-anchor="middle" x="186" y="-160" font-family="Helvetica,sans-Serif" font-size="10.00">Block</text>
</a>
</g>
</g>
<!-- Node1&#45;&gt;Node17 -->
<g id="edge18" class="edge"><title>Node1&#45;&gt;Node17</title>
<path fill="none" stroke="midnightblue" d="M52.9526,-221.404C67.0845,-213.163 88.4489,-201.328 108,-193 113.384,-190.706 119.055,-188.498 124.775,-186.407"/>
<polygon fill="midnightblue" stroke="midnightblue" points="126.144,-189.635 134.407,-183.005 123.813,-183.035 126.144,-189.635"/>
</g>
<!-- Node19 -->
<g id="node19" class="node"><title>Node19</title>
<g id="a_node19"><a xlink:href="class_c_coins.html#a5dda8b622fd4ebd48d382ea6be0db3c6" target="_top" xlink:title="CCoins::IsCoinBase">
<polygon fill="white" stroke="black" points="133,-114.5 133,-133.5 239,-133.5 239,-114.5 133,-114.5"/>
<text text-anchor="middle" x="186" y="-121.5" font-family="Helvetica,sans-Serif" font-size="10.00">CCoins::IsCoinBase</text>
</a>
</g>
</g>
<!-- Node1&#45;&gt;Node19 -->
<g id="edge21" class="edge"><title>Node1&#45;&gt;Node19</title>
<path fill="none" stroke="midnightblue" d="M41.9767,-221.331C51.9153,-203.031 76.0404,-163.346 108,-143 112.719,-139.996 117.879,-137.467 123.221,-135.338"/>
<polygon fill="midnightblue" stroke="midnightblue" points="124.698,-138.529 132.979,-131.921 122.384,-131.923 124.698,-138.529"/>
</g>
<!-- Node20 -->
<g id="node20" class="node"><title>Node20</title>
<g id="a_node20"><a xlink:href="core_8h.html#ad1d9a769fa327ea042e0c9fadeb4836b" target="_top" xlink:title="MoneyRange">
<polygon fill="white" stroke="black" points="339,-57.5 339,-76.5 415,-76.5 415,-57.5 339,-57.5"/>
<text text-anchor="middle" x="377" y="-64.5" font-family="Helvetica,sans-Serif" font-size="10.00">MoneyRange</text>
</a>
</g>
</g>
<!-- Node1&#45;&gt;Node20 -->
<g id="edge22" class="edge"><title>Node1&#45;&gt;Node20</title>
<path fill="none" stroke="midnightblue" d="M39.2701,-221.447C45.5359,-197.365 65.4956,-134.032 108,-105 142.947,-81.13 261.382,-72.038 328.526,-68.7452"/>
<polygon fill="midnightblue" stroke="midnightblue" points="329.015,-72.2264 338.841,-68.2652 328.689,-65.2339 329.015,-72.2264"/>
</g>
<!-- Node21 -->
<g id="node21" class="node"><title>Node21</title>
<g id="a_node21"><a xlink:href="class_c_transaction.html#ac55950c7f9d437e5cd11a88af39b6deb" target="_top" xlink:title="CTransaction::GetValueOut">
<polygon fill="white" stroke="black" points="116.5,-38.5 116.5,-57.5 255.5,-57.5 255.5,-38.5 116.5,-38.5"/>
<text text-anchor="middle" x="186" y="-45.5" font-family="Helvetica,sans-Serif" font-size="10.00">CTransaction::GetValueOut</text>
</a>
</g>
</g>
<!-- Node1&#45;&gt;Node21 -->
<g id="edge24" class="edge"><title>Node1&#45;&gt;Node21</title>
<path fill="none" stroke="midnightblue" d="M38.5248,-221.134C43.3347,-193.387 60.7695,-113.969 108,-72 112.671,-67.8494 118.053,-64.4166 123.757,-61.5774"/>
<polygon fill="midnightblue" stroke="midnightblue" points="125.155,-64.7861 132.928,-57.5867 122.362,-58.3674 125.155,-64.7861"/>
</g>
<!-- Node22 -->
<g id="node22" class="node"><title>Node22</title>
<g id="a_node22"><a xlink:href="class_c_script_check.html#a69fbde608ff29c1885b8b9caf0fd40a0" target="_top" xlink:title="CScriptCheck::swap">
<polygon fill="white" stroke="black" points="132.5,-0.5 132.5,-19.5 239.5,-19.5 239.5,-0.5 132.5,-0.5"/>
<text text-anchor="middle" x="186" y="-7.5" font-family="Helvetica,sans-Serif" font-size="10.00">CScriptCheck::swap</text>
</a>
</g>
</g>
<!-- Node1&#45;&gt;Node22 -->
<g id="edge26" class="edge"><title>Node1&#45;&gt;Node22</title>
<path fill="none" stroke="midnightblue" d="M37.3276,-221.251C38.9709,-188.69 48.8386,-82.7339 108,-29 112.375,-25.0265 117.447,-21.8514 122.86,-19.3185"/>
<polygon fill="midnightblue" stroke="midnightblue" points="124.203,-22.5515 132.229,-15.6348 121.641,-16.037 124.203,-22.5515"/>
</g>
<!-- Node3&#45;&gt;Node2 -->
<g id="edge3" class="edge"><title>Node3&#45;&gt;Node2</title>
<path fill="none" stroke="midnightblue" d="M207.475,-411.606C229.847,-421.843 266.919,-438.053 300,-449 307.445,-451.463 315.391,-453.781 323.235,-455.894"/>
<polygon fill="midnightblue" stroke="midnightblue" points="322.512,-459.322 333.071,-458.455 324.276,-452.548 322.512,-459.322"/>
</g>
<!-- Node4 -->
<g id="node4" class="node"><title>Node4</title>
<g id="a_node4"><a xlink:href="class_c_coins_view_cache.html#af10ddad5ca973d5e5f684b5d1c711560" target="_top" xlink:title="CCoinsViewCache::HaveCoins">
<polygon fill="white" stroke="black" points="300,-420.5 300,-439.5 454,-439.5 454,-420.5 300,-420.5"/>
<text text-anchor="middle" x="377" y="-427.5" font-family="Helvetica,sans-Serif" font-size="10.00">CCoinsViewCache::HaveCoins</text>
</a>
</g>
</g>
<!-- Node3&#45;&gt;Node4 -->
<g id="edge4" class="edge"><title>Node3&#45;&gt;Node4</title>
<path fill="none" stroke="midnightblue" d="M251.251,-411.519C267.38,-413.908 284.823,-416.492 301.409,-418.95"/>
<polygon fill="midnightblue" stroke="midnightblue" points="301.201,-422.457 311.606,-420.46 302.227,-415.532 301.201,-422.457"/>
</g>
<!-- Node3&#45;&gt;Node8 -->
<g id="edge8" class="edge"><title>Node3&#45;&gt;Node8</title>
<path fill="none" stroke="midnightblue" d="M223.882,-392.473C245.956,-386.786 274.574,-379.441 300,-373 309.004,-370.719 318.613,-368.303 327.864,-365.986"/>
<polygon fill="midnightblue" stroke="midnightblue" points="328.863,-369.344 337.715,-363.522 327.165,-362.553 328.863,-369.344"/>
</g>
<!-- Node9 -->
<g id="node9" class="node"><title>Node9</title>
<g id="a_node9"><a xlink:href="class_c_coins.html#a69bdcbac02e1644cb02b2645068777b5" target="_top" xlink:title="CCoins::IsAvailable">
<polygon fill="white" stroke="black" points="325.5,-382.5 325.5,-401.5 428.5,-401.5 428.5,-382.5 325.5,-382.5"/>
<text text-anchor="middle" x="377" y="-389.5" font-family="Helvetica,sans-Serif" font-size="10.00">CCoins::IsAvailable</text>
</a>
</g>
</g>
<!-- Node3&#45;&gt;Node9 -->
<g id="edge10" class="edge"><title>Node3&#45;&gt;Node9</title>
<path fill="none" stroke="midnightblue" d="M264.146,-397.918C281.06,-397.023 298.741,-396.088 314.922,-395.232"/>
<polygon fill="midnightblue" stroke="midnightblue" points="315.514,-398.705 325.316,-394.682 315.145,-391.715 315.514,-398.705"/>
</g>
<!-- Node5 -->
<g id="node5" class="node"><title>Node5</title>
<g id="a_node5"><a xlink:href="class_c_coins_view_cache.html#ab0c3981b4eabc6f11bb58a0a3fe3e82d" target="_top" xlink:title="CCoinsViewCache::FetchCoins">
<polygon fill="white" stroke="black" points="490,-415.5 490,-434.5 646,-434.5 646,-415.5 490,-415.5"/>
<text text-anchor="middle" x="568" y="-422.5" font-family="Helvetica,sans-Serif" font-size="10.00">CCoinsViewCache::FetchCoins</text>
</a>
</g>
</g>
<!-- Node4&#45;&gt;Node5 -->
<g id="edge5" class="edge"><title>Node4&#45;&gt;Node5</title>
<path fill="none" stroke="midnightblue" d="M454.057,-427.988C462.535,-427.764 471.219,-427.534 479.823,-427.306"/>
<polygon fill="midnightblue" stroke="midnightblue" points="479.963,-430.804 489.867,-427.041 479.778,-423.806 479.963,-430.804"/>
</g>
<!-- Node6 -->
<g id="node6" class="node"><title>Node6</title>
<g id="a_node6"><a xlink:href="class_c_coins_view.html#a7fe9216505bc5f3d78f2938bc7b29e26" target="_top" xlink:title="CCoinsView::GetCoins">
<polygon fill="white" stroke="black" points="682,-358.5 682,-377.5 800,-377.5 800,-358.5 682,-358.5"/>
<text text-anchor="middle" x="741" y="-365.5" font-family="Helvetica,sans-Serif" font-size="10.00">CCoinsView::GetCoins</text>
</a>
</g>
</g>
<!-- Node5&#45;&gt;Node6 -->
<g id="edge6" class="edge"><title>Node5&#45;&gt;Node6</title>
<path fill="none" stroke="midnightblue" d="M597.622,-415.459C626.105,-405.965 670,-391.333 701.521,-380.826"/>
<polygon fill="midnightblue" stroke="midnightblue" points="702.905,-384.054 711.285,-377.572 700.691,-377.414 702.905,-384.054"/>
</g>
<!-- Node7 -->
<g id="node7" class="node"><title>Node7</title>
<g id="a_node7"><a xlink:href="class_c_coins.html#a9581324a74e9500b3d2cad472c0a830f" target="_top" xlink:title="CCoins::swap">
<polygon fill="white" stroke="black" points="702,-415.5 702,-434.5 780,-434.5 780,-415.5 702,-415.5"/>
<text text-anchor="middle" x="741" y="-422.5" font-family="Helvetica,sans-Serif" font-size="10.00">CCoins::swap</text>
</a>
</g>
</g>
<!-- Node5&#45;&gt;Node7 -->
<g id="edge7" class="edge"><title>Node5&#45;&gt;Node7</title>
<path fill="none" stroke="midnightblue" d="M646.495,-425C661.846,-425 677.544,-425 691.587,-425"/>
<polygon fill="midnightblue" stroke="midnightblue" points="691.97,-428.5 701.97,-425 691.97,-421.5 691.97,-428.5"/>
</g>
<!-- Node8&#45;&gt;Node6 -->
<g id="edge9" class="edge"><title>Node8&#45;&gt;Node6</title>
<path fill="none" stroke="midnightblue" d="M450.821,-356.816C515.263,-359.309 608.604,-362.918 671.66,-365.357"/>
<polygon fill="midnightblue" stroke="midnightblue" points="671.771,-368.864 681.899,-365.753 672.042,-361.869 671.771,-368.864"/>
</g>
<!-- Node10&#45;&gt;Node11 -->
<g id="edge12" class="edge"><title>Node10&#45;&gt;Node11</title>
<path fill="none" stroke="midnightblue" d="M248.624,-316.544C267.888,-313.589 289.234,-310.313 308.858,-307.302"/>
<polygon fill="midnightblue" stroke="midnightblue" points="309.589,-310.731 318.942,-305.755 308.527,-303.812 309.589,-310.731"/>
</g>
<!-- Node13 -->
<g id="node13" class="node"><title>Node13</title>
<g id="a_node13"><a xlink:href="hash_8h.html#a6de694e43f17c62025c6883965b65e63" target="_top" xlink:title="SerializeHash">
<polygon fill="white" stroke="black" points="338,-240.5 338,-259.5 416,-259.5 416,-240.5 338,-240.5"/>
<text text-anchor="middle" x="377" y="-247.5" font-family="Helvetica,sans-Serif" font-size="10.00">SerializeHash</text>
</a>
</g>
</g>
<!-- Node12&#45;&gt;Node13 -->
<g id="edge14" class="edge"><title>Node12&#45;&gt;Node13</title>
<path fill="none" stroke="midnightblue" d="M246.541,-250C272.672,-250 302.954,-250 327.658,-250"/>
<polygon fill="midnightblue" stroke="midnightblue" points="327.876,-253.5 337.876,-250 327.876,-246.5 327.876,-253.5"/>
</g>
<!-- Node14 -->
<g id="node14" class="node"><title>Node14</title>
<g id="a_node14"><a xlink:href="class_c_hash_writer.html#ae94a937211502eabf19477630090093a" target="_top" xlink:title="CHashWriter::GetHash">
<polygon fill="white" stroke="black" points="508.5,-240.5 508.5,-259.5 627.5,-259.5 627.5,-240.5 508.5,-240.5"/>
<text text-anchor="middle" x="568" y="-247.5" font-family="Helvetica,sans-Serif" font-size="10.00">CHashWriter::GetHash</text>
</a>
</g>
</g>
<!-- Node13&#45;&gt;Node14 -->
<g id="edge15" class="edge"><title>Node13&#45;&gt;Node14</title>
<path fill="none" stroke="midnightblue" d="M416.247,-250C439.783,-250 470.639,-250 498.301,-250"/>
<polygon fill="midnightblue" stroke="midnightblue" points="498.328,-253.5 508.328,-250 498.328,-246.5 498.328,-253.5"/>
</g>
<!-- Node16 -->
<g id="node16" class="node"><title>Node16</title>
<g id="a_node16"><a xlink:href="classbase__uint.html#ac9929c28600796a9acf75881bb750576" target="_top" xlink:title="base_uint::GetHex">
<polygon fill="white" stroke="black" points="327.5,-202.5 327.5,-221.5 426.5,-221.5 426.5,-202.5 327.5,-202.5"/>
<text text-anchor="middle" x="377" y="-209.5" font-family="Helvetica,sans-Serif" font-size="10.00">base_uint::GetHex</text>
</a>
</g>
</g>
<!-- Node15&#45;&gt;Node16 -->
<g id="edge17" class="edge"><title>Node15&#45;&gt;Node16</title>
<path fill="none" stroke="midnightblue" d="M237.649,-212C262.155,-212 291.716,-212 317.212,-212"/>
<polygon fill="midnightblue" stroke="midnightblue" points="317.495,-215.5 327.495,-212 317.495,-208.5 317.495,-215.5"/>
</g>
<!-- Node18 -->
<g id="node18" class="node"><title>Node18</title>
<g id="a_node18"><a xlink:href="class_c_coins_view.html#a729e4203cf5f9b21b8acd1b27e10a722" target="_top" xlink:title="CCoinsView::GetBestBlock">
<polygon fill="white" stroke="black" points="308.5,-158.5 308.5,-177.5 445.5,-177.5 445.5,-158.5 308.5,-158.5"/>
<text text-anchor="middle" x="377" y="-165.5" font-family="Helvetica,sans-Serif" font-size="10.00">CCoinsView::GetBestBlock</text>
</a>
</g>
</g>
<!-- Node17&#45;&gt;Node18 -->
<g id="edge19" class="edge"><title>Node17&#45;&gt;Node18</title>
<path fill="none" stroke="midnightblue" d="M257.108,-168C270.419,-168 284.422,-168 297.961,-168"/>
<polygon fill="midnightblue" stroke="midnightblue" points="298.204,-171.5 308.204,-168 298.204,-164.5 298.204,-171.5"/>
</g>
<!-- Node21&#45;&gt;Node20 -->
<g id="edge25" class="edge"><title>Node21&#45;&gt;Node20</title>
<path fill="none" stroke="midnightblue" d="M255.501,-54.8863C279.759,-57.325 306.497,-60.0129 328.61,-62.2359"/>
<polygon fill="midnightblue" stroke="midnightblue" points="328.44,-65.7364 338.74,-63.2543 329.14,-58.7715 328.44,-65.7364"/>
</g>
</g>
</svg>
