<?xml version="1.0" encoding="UTF-8" standalone="no"?>
<!DOCTYPE svg PUBLIC "-//W3C//DTD SVG 1.1//EN"
 "http://www.w3.org/Graphics/SVG/1.1/DTD/svg11.dtd">
<!-- Generated by graphviz version 2.38.0 (20140413.2041)
 -->
<!-- Title: ComputeMinWork Pages: 1 -->
<svg width="462pt" height="192pt"
 viewBox="0.00 0.00 462.00 192.00" xmlns="http://www.w3.org/2000/svg" xmlns:xlink="http://www.w3.org/1999/xlink">
<g id="graph0" class="graph" transform="scale(1 1) rotate(0) translate(4 188)">
<title>ComputeMinWork</title>
<polygon fill="white" stroke="none" points="-4,4 -4,-188 458,-188 458,4 -4,4"/>
<!-- Node1 -->
<g id="node1" class="node"><title>Node1</title>
<polygon fill="#bfbfbf" stroke="black" points="0,-76.5 0,-95.5 97,-95.5 97,-76.5 0,-76.5"/>
<text text-anchor="middle" x="48.5" y="-83.5" font-family="Helvetica,sans-Serif" font-size="10.00">ComputeMinWork</text>
</g>
<!-- Node2 -->
<g id="node2" class="node"><title>Node2</title>
<g id="a_node2"><a xlink:href="chainparams_8cpp.html#ace5c5b706d71a324a417dd2db394fd4a" target="_top" xlink:title="Return the currently selected parameters. ">
<polygon fill="white" stroke="black" points="181.5,-164.5 181.5,-183.5 232.5,-183.5 232.5,-164.5 181.5,-164.5"/>
<text text-anchor="middle" x="207" y="-171.5" font-family="Helvetica,sans-Serif" font-size="10.00">Params</text>
</a>
</g>
</g>
<!-- Node1&#45;&gt;Node2 -->
<g id="edge1" class="edge"><title>Node1&#45;&gt;Node2</title>
<path fill="none" stroke="midnightblue" d="M58.2885,-95.566C72.5336,-110.494 102.191,-139.249 133,-155 144.842,-161.055 158.778,-165.296 171.282,-168.209"/>
<polygon fill="midnightblue" stroke="midnightblue" points="170.862,-171.698 181.372,-170.355 172.319,-164.851 170.862,-171.698"/>
</g>
<!-- Node3 -->
<g id="node3" class="node"><title>Node3</title>
<g id="a_node3"><a xlink:href="class_c_chain_params.html#a7f014cb46cd3b6e39db91e4a8b998235" target="_top" xlink:title="CChainParams::ProofOfWork\lLimit">
<polygon fill="white" stroke="black" points="133,-115 133,-145 281,-145 281,-115 133,-115"/>
<text text-anchor="start" x="141" y="-133" font-family="Helvetica,sans-Serif" font-size="10.00">CChainParams::ProofOfWork</text>
<text text-anchor="middle" x="207" y="-122" font-family="Helvetica,sans-Serif" font-size="10.00">Limit</text>
</a>
</g>
</g>
<!-- Node1&#45;&gt;Node3 -->
<g id="edge2" class="edge"><title>Node1&#45;&gt;Node3</title>
<path fill="none" stroke="midnightblue" d="M83.4582,-95.5473C100.764,-100.413 122.378,-106.49 142.616,-112.18"/>
<polygon fill="midnightblue" stroke="midnightblue" points="141.841,-115.597 152.415,-114.935 143.736,-108.859 141.841,-115.597"/>
</g>
<!-- Node4 -->
<g id="node4" class="node"><title>Node4</title>
<g id="a_node4"><a xlink:href="chainparams_8h.html#abc8c1af875107f5eac0f327bd3b8363d" target="_top" xlink:title="TestNet">
<polygon fill="white" stroke="black" points="181,-76.5 181,-95.5 233,-95.5 233,-76.5 181,-76.5"/>
<text text-anchor="middle" x="207" y="-83.5" font-family="Helvetica,sans-Serif" font-size="10.00">TestNet</text>
</a>
</g>
</g>
<!-- Node1&#45;&gt;Node4 -->
<g id="edge3" class="edge"><title>Node1&#45;&gt;Node4</title>
<path fill="none" stroke="midnightblue" d="M97.3055,-86C120.944,-86 148.974,-86 170.648,-86"/>
<polygon fill="midnightblue" stroke="midnightblue" points="170.731,-89.5001 180.731,-86 170.731,-82.5001 170.731,-89.5001"/>
</g>
<!-- Node7 -->
<g id="node7" class="node"><title>Node7</title>
<g id="a_node7"><a xlink:href="class_c_big_num.html#a26b88c1b29f347219907979ff2028bdc" target="_top" xlink:title="CBigNum::GetCompact">
<polygon fill="white" stroke="black" points="146.5,-38.5 146.5,-57.5 267.5,-57.5 267.5,-38.5 146.5,-38.5"/>
<text text-anchor="middle" x="207" y="-45.5" font-family="Helvetica,sans-Serif" font-size="10.00">CBigNum::GetCompact</text>
</a>
</g>
</g>
<!-- Node1&#45;&gt;Node7 -->
<g id="edge6" class="edge"><title>Node1&#45;&gt;Node7</title>
<path fill="none" stroke="midnightblue" d="M88.9916,-76.411C109.643,-71.3965 135.114,-65.2119 157.012,-59.8947"/>
<polygon fill="midnightblue" stroke="midnightblue" points="157.901,-63.2809 166.792,-57.5201 156.249,-56.4785 157.901,-63.2809"/>
</g>
<!-- Node8 -->
<g id="node8" class="node"><title>Node8</title>
<g id="a_node8"><a xlink:href="class_c_big_num.html#a27e3ca82a40ae0c34ac4c059e4d0d66c" target="_top" xlink:title="CBigNum::SetCompact">
<polygon fill="white" stroke="black" points="147,-0.5 147,-19.5 267,-19.5 267,-0.5 147,-0.5"/>
<text text-anchor="middle" x="207" y="-7.5" font-family="Helvetica,sans-Serif" font-size="10.00">CBigNum::SetCompact</text>
</a>
</g>
</g>
<!-- Node1&#45;&gt;Node8 -->
<g id="edge7" class="edge"><title>Node1&#45;&gt;Node8</title>
<path fill="none" stroke="midnightblue" d="M60.8906,-76.3107C76.2865,-63.6825 105.039,-41.7153 133,-29 138.346,-26.5689 144.059,-24.4066 149.846,-22.4934"/>
<polygon fill="midnightblue" stroke="midnightblue" points="151.068,-25.7798 159.605,-19.5053 149.018,-19.0866 151.068,-25.7798"/>
</g>
<!-- Node5 -->
<g id="node5" class="node"><title>Node5</title>
<g id="a_node5"><a xlink:href="chainparams_8h.html#ace5c5b706d71a324a417dd2db394fd4a" target="_top" xlink:title="Return the currently selected parameters. ">
<polygon fill="white" stroke="black" points="360,-95.5 360,-114.5 411,-114.5 411,-95.5 360,-95.5"/>
<text text-anchor="middle" x="385.5" y="-102.5" font-family="Helvetica,sans-Serif" font-size="10.00">Params</text>
</a>
</g>
</g>
<!-- Node4&#45;&gt;Node5 -->
<g id="edge4" class="edge"><title>Node4&#45;&gt;Node5</title>
<path fill="none" stroke="midnightblue" d="M233.288,-88.7222C263.868,-92.0141 315.493,-97.5715 349.785,-101.263"/>
<polygon fill="midnightblue" stroke="midnightblue" points="349.511,-104.754 359.828,-102.344 350.26,-97.7938 349.511,-104.754"/>
</g>
<!-- Node6 -->
<g id="node6" class="node"><title>Node6</title>
<g id="a_node6"><a xlink:href="class_c_chain_params.html#a90dc493ec0c0325c98c3ac06eb99862b" target="_top" xlink:title="CChainParams::NetworkID">
<polygon fill="white" stroke="black" points="317,-57.5 317,-76.5 454,-76.5 454,-57.5 317,-57.5"/>
<text text-anchor="middle" x="385.5" y="-64.5" font-family="Helvetica,sans-Serif" font-size="10.00">CChainParams::NetworkID</text>
</a>
</g>
</g>
<!-- Node4&#45;&gt;Node6 -->
<g id="edge5" class="edge"><title>Node4&#45;&gt;Node6</title>
<path fill="none" stroke="midnightblue" d="M233.288,-83.2778C252.644,-81.1942 280.431,-78.2029 306.917,-75.3517"/>
<polygon fill="midnightblue" stroke="midnightblue" points="307.416,-78.8183 316.984,-74.268 306.667,-71.8585 307.416,-78.8183"/>
</g>
</g>
</svg>
