<?xml version="1.0" encoding="UTF-8" standalone="no"?>
<!DOCTYPE svg PUBLIC "-//W3C//DTD SVG 1.1//EN"
 "http://www.w3.org/Graphics/SVG/1.1/DTD/svg11.dtd">
<!-- Generated by graphviz version 2.38.0 (20140413.2041)
 -->
<!-- Title: IsFinalTx Pages: 1 -->
<svg width="1047pt" height="745pt"
 viewBox="0.00 0.00 1047.00 744.50" xmlns="http://www.w3.org/2000/svg" xmlns:xlink="http://www.w3.org/1999/xlink">
<g id="graph0" class="graph" transform="scale(1 1) rotate(0) translate(4 740.5)">
<title>IsFinalTx</title>
<polygon fill="white" stroke="none" points="-4,4 -4,-740.5 1043,-740.5 1043,4 -4,4"/>
<!-- Node1 -->
<g id="node1" class="node"><title>Node1</title>
<polygon fill="#bfbfbf" stroke="black" points="0,-303 0,-322 57,-322 57,-303 0,-303"/>
<text text-anchor="middle" x="28.5" y="-310" font-family="Helvetica,sans-Serif" font-size="10.00">IsFinalTx</text>
</g>
<!-- Node2 -->
<g id="node2" class="node"><title>Node2</title>
<g id="a_node2"><a xlink:href="main_8cpp.html#acd163a09d0e4384ebe85dead57730dd7" target="_top" xlink:title="IsStandardTx">
<polygon fill="white" stroke="black" points="125,-672 125,-691 201,-691 201,-672 125,-672"/>
<text text-anchor="middle" x="163" y="-679" font-family="Helvetica,sans-Serif" font-size="10.00">IsStandardTx</text>
</a>
</g>
</g>
<!-- Node1&#45;&gt;Node2 -->
<g id="edge1" class="edge"><title>Node1&#45;&gt;Node2</title>
<path fill="none" stroke="midnightblue" d="M30.5467,-332.389C34.407,-398.41 49.9258,-608.918 93,-658.5 101.116,-667.842 113.129,-673.402 124.867,-676.706"/>
<polygon fill="midnightblue" stroke="midnightblue" points="34.0258,-331.915 29.9741,-322.126 27.0367,-332.305 34.0258,-331.915"/>
</g>
<!-- Node6 -->
<g id="node6" class="node"><title>Node6</title>
<g id="a_node6"><a xlink:href="main_8h.html#aae69635467b9737d6c5b44d8ccff5c82" target="_top" xlink:title="AcceptBlock">
<polygon fill="white" stroke="black" points="127,-630 127,-649 199,-649 199,-630 127,-630"/>
<text text-anchor="middle" x="163" y="-637" font-family="Helvetica,sans-Serif" font-size="10.00">AcceptBlock</text>
</a>
</g>
</g>
<!-- Node1&#45;&gt;Node6 -->
<g id="edge5" class="edge"><title>Node1&#45;&gt;Node6</title>
<path fill="none" stroke="midnightblue" d="M31.2587,-332.332C36.9312,-392.175 56.5295,-569.481 93,-612.5 101.568,-622.606 114.411,-628.951 126.702,-632.925"/>
<polygon fill="midnightblue" stroke="midnightblue" points="34.7101,-331.641 30.309,-322.004 27.7395,-332.282 34.7101,-331.641"/>
</g>
<!-- Node10 -->
<g id="node10" class="node"><title>Node10</title>
<g id="a_node10"><a xlink:href="miner_8h.html#af441d1c1899839f4e3cc0ee1367914a5" target="_top" xlink:title="Generate a new block, without valid proof&#45;of&#45;work. ">
<polygon fill="white" stroke="black" points="117.5,-584 117.5,-603 208.5,-603 208.5,-584 117.5,-584"/>
<text text-anchor="middle" x="163" y="-591" font-family="Helvetica,sans-Serif" font-size="10.00">CreateNewBlock</text>
</a>
</g>
</g>
<!-- Node1&#45;&gt;Node10 -->
<g id="edge9" class="edge"><title>Node1&#45;&gt;Node10</title>
<path fill="none" stroke="midnightblue" d="M29.4279,-332.3C30.2713,-377.268 38.1582,-488.527 93,-557.5 102.755,-569.768 117.836,-578.31 131.415,-583.983"/>
<polygon fill="midnightblue" stroke="midnightblue" points="32.9264,-332.106 29.3414,-322.136 25.9267,-332.166 32.9264,-332.106"/>
</g>
<!-- Node12 -->
<g id="node12" class="node"><title>Node12</title>
<g id="a_node12"><a xlink:href="class_transaction_desc.html#afcd4db6bf3a341cafe06a57ec31b7531" target="_top" xlink:title="TransactionDesc::FormatTx\lStatus">
<polygon fill="white" stroke="black" points="93,-518.5 93,-548.5 233,-548.5 233,-518.5 93,-518.5"/>
<text text-anchor="start" x="101" y="-536.5" font-family="Helvetica,sans-Serif" font-size="10.00">TransactionDesc::FormatTx</text>
<text text-anchor="middle" x="163" y="-525.5" font-family="Helvetica,sans-Serif" font-size="10.00">Status</text>
</a>
</g>
</g>
<!-- Node1&#45;&gt;Node12 -->
<g id="edge11" class="edge"><title>Node1&#45;&gt;Node12</title>
<path fill="none" stroke="midnightblue" d="M33.6874,-332.216C41.2981,-364.693 59.7668,-430.426 93,-476.5 105.089,-493.26 123.241,-507.991 137.893,-518.276"/>
<polygon fill="midnightblue" stroke="midnightblue" points="37.0452,-331.194 31.4418,-322.203 30.2148,-332.726 37.0452,-331.194"/>
</g>
<!-- Node15 -->
<g id="node15" class="node"><title>Node15</title>
<g id="a_node15"><a xlink:href="class_transaction_record.html#a9b643dd885a790ae511705a1446556be" target="_top" xlink:title="Update status from core wallet tx. ">
<polygon fill="white" stroke="black" points="298.5,-360.5 298.5,-390.5 405.5,-390.5 405.5,-360.5 298.5,-360.5"/>
<text text-anchor="start" x="306.5" y="-378.5" font-family="Helvetica,sans-Serif" font-size="10.00">TransactionRecord::</text>
<text text-anchor="middle" x="352" y="-367.5" font-family="Helvetica,sans-Serif" font-size="10.00">updateStatus</text>
</a>
</g>
</g>
<!-- Node1&#45;&gt;Node15 -->
<g id="edge14" class="edge"><title>Node1&#45;&gt;Node15</title>
<path fill="none" stroke="midnightblue" d="M63.4093,-325.482C72.8848,-328.771 83.2566,-332.058 93,-334.5 162.949,-352.03 245.534,-363.601 298.075,-369.852"/>
<polygon fill="midnightblue" stroke="midnightblue" points="64.5177,-322.162 53.9231,-322.09 62.161,-328.753 64.5177,-322.162"/>
</g>
<!-- Node19 -->
<g id="node19" class="node"><title>Node19</title>
<g id="a_node19"><a xlink:href="rpcwallet_8cpp.html#abbb6475509aa2e69844f0b3a8bcb422a" target="_top" xlink:title="getreceivedbyaddress">
<polygon fill="white" stroke="black" points="106,-132 106,-151 220,-151 220,-132 106,-132"/>
<text text-anchor="middle" x="163" y="-139" font-family="Helvetica,sans-Serif" font-size="10.00">getreceivedbyaddress</text>
</a>
</g>
</g>
<!-- Node1&#45;&gt;Node19 -->
<g id="edge18" class="edge"><title>Node1&#45;&gt;Node19</title>
<path fill="none" stroke="midnightblue" d="M32.8159,-292.605C39.0569,-261.267 55.4604,-200.394 93,-165.5 99.7815,-159.196 108.306,-154.536 117.028,-151.095"/>
<polygon fill="midnightblue" stroke="midnightblue" points="29.3238,-292.243 30.956,-302.711 36.2082,-293.51 29.3238,-292.243"/>
</g>
<!-- Node20 -->
<g id="node20" class="node"><title>Node20</title>
<g id="a_node20"><a xlink:href="rpcwallet_8cpp.html#a07526be5270b0e55b4a0b79c01205f3d" target="_top" xlink:title="getreceivedbyaccount">
<polygon fill="white" stroke="black" points="106,-94 106,-113 220,-113 220,-94 106,-94"/>
<text text-anchor="middle" x="163" y="-101" font-family="Helvetica,sans-Serif" font-size="10.00">getreceivedbyaccount</text>
</a>
</g>
</g>
<!-- Node1&#45;&gt;Node20 -->
<g id="edge19" class="edge"><title>Node1&#45;&gt;Node20</title>
<path fill="none" stroke="midnightblue" d="M30.2539,-292.594C32.8172,-254.038 44.0388,-168.894 93,-122.5 97.0586,-118.654 101.822,-115.573 106.918,-113.107"/>
<polygon fill="midnightblue" stroke="midnightblue" points="26.7383,-292.798 29.7042,-302.969 33.7285,-293.169 26.7383,-292.798"/>
</g>
<!-- Node21 -->
<g id="node21" class="node"><title>Node21</title>
<g id="a_node21"><a xlink:href="rpcwallet_8cpp.html#a02d239cd69692dab8bbb33eb0010de1b" target="_top" xlink:title="GetAccountBalance">
<polygon fill="white" stroke="black" points="110.5,-448 110.5,-467 215.5,-467 215.5,-448 110.5,-448"/>
<text text-anchor="middle" x="163" y="-455" font-family="Helvetica,sans-Serif" font-size="10.00">GetAccountBalance</text>
</a>
</g>
</g>
<!-- Node1&#45;&gt;Node21 -->
<g id="edge20" class="edge"><title>Node1&#45;&gt;Node21</title>
<path fill="none" stroke="midnightblue" d="M44.2181,-330.269C56.8993,-345.428 75.8213,-367.692 93,-386.5 113.402,-408.837 138.364,-434.019 151.974,-447.577"/>
<polygon fill="midnightblue" stroke="midnightblue" points="46.6229,-327.688 37.5332,-322.245 41.2446,-332.168 46.6229,-327.688"/>
</g>
<!-- Node26 -->
<g id="node26" class="node"><title>Node26</title>
<g id="a_node26"><a xlink:href="rpcwallet_8cpp.html#a0cc958f67a8d6d0002cb4fee19eddb5c" target="_top" xlink:title="ListReceived">
<polygon fill="white" stroke="black" points="126,-44 126,-63 200,-63 200,-44 126,-44"/>
<text text-anchor="middle" x="163" y="-51" font-family="Helvetica,sans-Serif" font-size="10.00">ListReceived</text>
</a>
</g>
</g>
<!-- Node1&#45;&gt;Node26 -->
<g id="edge25" class="edge"><title>Node1&#45;&gt;Node26</title>
<path fill="none" stroke="midnightblue" d="M29.6188,-292.7C30.9118,-249.651 39.7552,-146.436 93,-84.5 101.561,-74.5415 113.962,-67.6328 125.897,-62.9109"/>
<polygon fill="midnightblue" stroke="midnightblue" points="26.1148,-292.881 29.4251,-302.945 33.1136,-293.013 26.1148,-292.881"/>
</g>
<!-- Node29 -->
<g id="node29" class="node"><title>Node29</title>
<g id="a_node29"><a xlink:href="class_c_wallet.html#a2b3585d31f7cda63b851db30b9b11fb4" target="_top" xlink:title="CWallet::GetUnconfirmedBalance">
<polygon fill="white" stroke="black" points="269,-322 269,-341 435,-341 435,-322 269,-322"/>
<text text-anchor="middle" x="352" y="-329" font-family="Helvetica,sans-Serif" font-size="10.00">CWallet::GetUnconfirmedBalance</text>
</a>
</g>
</g>
<!-- Node1&#45;&gt;Node29 -->
<g id="edge28" class="edge"><title>Node1&#45;&gt;Node29</title>
<path fill="none" stroke="midnightblue" d="M67.3958,-314.74C116.67,-317.652 204.082,-322.817 268.879,-326.647"/>
<polygon fill="midnightblue" stroke="midnightblue" points="67.3783,-311.233 57.1892,-314.136 66.9652,-318.22 67.3783,-311.233"/>
</g>
<!-- Node35 -->
<g id="node35" class="node"><title>Node35</title>
<g id="a_node35"><a xlink:href="class_c_wallet.html#a1c8d440c03e118feda5e6dd01adc0f18" target="_top" xlink:title="CWallet::GetUnconfirmedWatch\lOnlyBalance">
<polygon fill="white" stroke="black" points="273,-158.5 273,-188.5 431,-188.5 431,-158.5 273,-158.5"/>
<text text-anchor="start" x="281" y="-176.5" font-family="Helvetica,sans-Serif" font-size="10.00">CWallet::GetUnconfirmedWatch</text>
<text text-anchor="middle" x="352" y="-165.5" font-family="Helvetica,sans-Serif" font-size="10.00">OnlyBalance</text>
</a>
</g>
</g>
<!-- Node1&#45;&gt;Node35 -->
<g id="edge34" class="edge"><title>Node1&#45;&gt;Node35</title>
<path fill="none" stroke="midnightblue" d="M51.966,-297.238C63.8031,-289.673 78.7822,-280.826 93,-274.5 152.47,-248.04 176.512,-263.841 233,-231.5 251.836,-220.716 250.152,-209.265 269,-198.5 275.72,-194.662 283.094,-191.351 290.578,-188.512"/>
<polygon fill="midnightblue" stroke="midnightblue" points="50.0474,-294.311 43.5911,-302.712 53.8768,-300.171 50.0474,-294.311"/>
</g>
<!-- Node37 -->
<g id="node37" class="node"><title>Node37</title>
<g id="a_node37"><a xlink:href="class_c_wallet.html#acf326816b2cf812e23b408b12854236b" target="_top" xlink:title="CWallet::AvailableCoins">
<polygon fill="white" stroke="black" points="290.5,-120 290.5,-139 413.5,-139 413.5,-120 290.5,-120"/>
<text text-anchor="middle" x="352" y="-127" font-family="Helvetica,sans-Serif" font-size="10.00">CWallet::AvailableCoins</text>
</a>
</g>
</g>
<!-- Node1&#45;&gt;Node37 -->
<g id="edge39" class="edge"><title>Node1&#45;&gt;Node37</title>
<path fill="none" stroke="midnightblue" d="M39.3271,-293.902C50.076,-275.355 69.0148,-247.403 93,-231.5 146.735,-195.872 179.09,-228.863 233,-193.5 254.416,-179.452 247.325,-162.146 269,-148.5 275.554,-144.374 282.909,-141.142 290.453,-138.61"/>
<polygon fill="midnightblue" stroke="midnightblue" points="36.1437,-292.425 34.3435,-302.865 42.2618,-295.826 36.1437,-292.425"/>
</g>
<!-- Node43 -->
<g id="node43" class="node"><title>Node43</title>
<g id="a_node43"><a xlink:href="class_c_wallet.html#aadffdf5d0e2f2413cdcc2a39fc2e310d" target="_top" xlink:title="CWallet::GetAddressBalances">
<polygon fill="white" stroke="black" points="276.5,-82 276.5,-101 427.5,-101 427.5,-82 276.5,-82"/>
<text text-anchor="middle" x="352" y="-89" font-family="Helvetica,sans-Serif" font-size="10.00">CWallet::GetAddressBalances</text>
</a>
</g>
</g>
<!-- Node1&#45;&gt;Node43 -->
<g id="edge49" class="edge"><title>Node1&#45;&gt;Node43</title>
<path fill="none" stroke="midnightblue" d="M34.4546,-292.964C42.2653,-266.279 60.0562,-218.86 93,-193.5 143.656,-154.505 179.849,-196.021 233,-160.5 255.767,-145.285 246.204,-125.672 269,-110.5 274.839,-106.614 281.372,-103.517 288.132,-101.05"/>
<polygon fill="midnightblue" stroke="midnightblue" points="31.0538,-292.131 31.7809,-302.701 37.8039,-293.984 31.0538,-292.131"/>
</g>
<!-- Node45 -->
<g id="node45" class="node"><title>Node45</title>
<g id="a_node45"><a xlink:href="class_c_wallet_tx.html#af2eff3b849af124cdf869fc03f587972" target="_top" xlink:title="CWalletTx::IsTrusted">
<polygon fill="white" stroke="black" points="108,-284 108,-303 218,-303 218,-284 108,-284"/>
<text text-anchor="middle" x="163" y="-291" font-family="Helvetica,sans-Serif" font-size="10.00">CWalletTx::IsTrusted</text>
</a>
</g>
</g>
<!-- Node1&#45;&gt;Node45 -->
<g id="edge51" class="edge"><title>Node1&#45;&gt;Node45</title>
<path fill="none" stroke="midnightblue" d="M67.3867,-307.067C79.9549,-305.265 94.202,-303.222 107.755,-301.278"/>
<polygon fill="midnightblue" stroke="midnightblue" points="66.6783,-303.633 57.2763,-308.517 67.6719,-310.562 66.6783,-303.633"/>
</g>
<!-- Node3 -->
<g id="node3" class="node"><title>Node3</title>
<g id="a_node3"><a xlink:href="main_8h.html#a1032f75235456abfa96b63e34e7ee2cc" target="_top" xlink:title="(try to) add transaction to memory pool ">
<polygon fill="white" stroke="black" points="294.5,-679 294.5,-698 409.5,-698 409.5,-679 294.5,-679"/>
<text text-anchor="middle" x="352" y="-686" font-family="Helvetica,sans-Serif" font-size="10.00">AcceptToMemoryPool</text>
</a>
</g>
</g>
<!-- Node2&#45;&gt;Node3 -->
<g id="edge2" class="edge"><title>Node2&#45;&gt;Node3</title>
<path fill="none" stroke="midnightblue" d="M211.469,-683.277C236.739,-684.223 267.986,-685.393 294.499,-686.385"/>
<polygon fill="midnightblue" stroke="midnightblue" points="211.517,-679.776 201.393,-682.9 211.255,-686.771 211.517,-679.776"/>
</g>
<!-- Node4 -->
<g id="node4" class="node"><title>Node4</title>
<g id="a_node4"><a xlink:href="class_c_merkle_tx.html#a032705bde1c536cd1b14f01f914e12f0" target="_top" xlink:title="CMerkleTx::AcceptToMemoryPool">
<polygon fill="white" stroke="red" points="474.5,-717 474.5,-736 643.5,-736 643.5,-717 474.5,-717"/>
<text text-anchor="middle" x="559" y="-724" font-family="Helvetica,sans-Serif" font-size="10.00">CMerkleTx::AcceptToMemoryPool</text>
</a>
</g>
</g>
<!-- Node3&#45;&gt;Node4 -->
<g id="edge3" class="edge"><title>Node3&#45;&gt;Node4</title>
<path fill="none" stroke="midnightblue" d="M414.598,-699.918C443.93,-705.355 478.607,-711.783 506.513,-716.956"/>
<polygon fill="midnightblue" stroke="midnightblue" points="414.936,-696.421 404.466,-698.04 413.66,-703.304 414.936,-696.421"/>
</g>
<!-- Node5 -->
<g id="node5" class="node"><title>Node5</title>
<g id="a_node5"><a xlink:href="rpcrawtransaction_8cpp.html#ad5aad44f890060f42efb49acf349511e" target="_top" xlink:title="sendrawtransaction">
<polygon fill="white" stroke="black" points="507.5,-679 507.5,-698 610.5,-698 610.5,-679 507.5,-679"/>
<text text-anchor="middle" x="559" y="-686" font-family="Helvetica,sans-Serif" font-size="10.00">sendrawtransaction</text>
</a>
</g>
</g>
<!-- Node3&#45;&gt;Node5 -->
<g id="edge4" class="edge"><title>Node3&#45;&gt;Node5</title>
<path fill="none" stroke="midnightblue" d="M419.82,-688.5C448.236,-688.5 480.831,-688.5 507.225,-688.5"/>
<polygon fill="midnightblue" stroke="midnightblue" points="419.56,-685 409.56,-688.5 419.56,-692 419.56,-685"/>
</g>
<!-- Node7 -->
<g id="node7" class="node"><title>Node7</title>
<g id="a_node7"><a xlink:href="main_8h.html#a87a59e710c26c4a10de57b5acb1e2e92" target="_top" xlink:title="Process an incoming block. ">
<polygon fill="white" stroke="black" points="313.5,-638 313.5,-657 390.5,-657 390.5,-638 313.5,-638"/>
<text text-anchor="middle" x="352" y="-645" font-family="Helvetica,sans-Serif" font-size="10.00">ProcessBlock</text>
</a>
</g>
</g>
<!-- Node6&#45;&gt;Node7 -->
<g id="edge6" class="edge"><title>Node6&#45;&gt;Node7</title>
<path fill="none" stroke="midnightblue" d="M209.557,-641.449C241.421,-642.812 283.469,-644.611 313.418,-645.892"/>
<polygon fill="midnightblue" stroke="midnightblue" points="209.314,-637.935 199.173,-641.005 209.015,-644.929 209.314,-637.935"/>
</g>
<!-- Node8 -->
<g id="node8" class="node"><title>Node8</title>
<g id="a_node8"><a xlink:href="main_8h.html#a8641eccb4e5d174838adeea9b234a691" target="_top" xlink:title="Import blocks from an external file. ">
<polygon fill="white" stroke="red" points="501,-641 501,-660 617,-660 617,-641 501,-641"/>
<text text-anchor="middle" x="559" y="-648" font-family="Helvetica,sans-Serif" font-size="10.00">LoadExternalBlockFile</text>
</a>
</g>
</g>
<!-- Node7&#45;&gt;Node8 -->
<g id="edge7" class="edge"><title>Node7&#45;&gt;Node8</title>
<path fill="none" stroke="midnightblue" d="M400.784,-648.199C430.686,-648.637 469.376,-649.203 500.892,-649.664"/>
<polygon fill="midnightblue" stroke="midnightblue" points="400.65,-644.697 390.6,-648.05 400.548,-651.696 400.65,-644.697"/>
</g>
<!-- Node9 -->
<g id="node9" class="node"><title>Node9</title>
<g id="a_node9"><a xlink:href="rpcmining_8cpp.html#a6fc1aa077add8cb1c74207056616134d" target="_top" xlink:title="submitblock">
<polygon fill="white" stroke="black" points="524.5,-603 524.5,-622 593.5,-622 593.5,-603 524.5,-603"/>
<text text-anchor="middle" x="559" y="-610" font-family="Helvetica,sans-Serif" font-size="10.00">submitblock</text>
</a>
</g>
</g>
<!-- Node7&#45;&gt;Node9 -->
<g id="edge8" class="edge"><title>Node7&#45;&gt;Node9</title>
<path fill="none" stroke="midnightblue" d="M400.891,-639.323C438.796,-632.852 490.774,-623.978 524.374,-618.241"/>
<polygon fill="midnightblue" stroke="midnightblue" points="399.868,-635.947 390.6,-641.08 401.047,-642.847 399.868,-635.947"/>
</g>
<!-- Node11 -->
<g id="node11" class="node"><title>Node11</title>
<g id="a_node11"><a xlink:href="rpcmining_8cpp.html#a27347eecedd59156c914fcb5ce488f9a" target="_top" xlink:title="getblocktemplate">
<polygon fill="white" stroke="black" points="306,-600 306,-619 398,-619 398,-600 306,-600"/>
<text text-anchor="middle" x="352" y="-607" font-family="Helvetica,sans-Serif" font-size="10.00">getblocktemplate</text>
</a>
</g>
</g>
<!-- Node10&#45;&gt;Node11 -->
<g id="edge10" class="edge"><title>Node10&#45;&gt;Node11</title>
<path fill="none" stroke="midnightblue" d="M219.096,-598.214C246.744,-600.58 279.815,-603.409 305.926,-605.643"/>
<polygon fill="midnightblue" stroke="midnightblue" points="219.053,-594.698 208.791,-597.332 218.456,-601.672 219.053,-594.698"/>
</g>
<!-- Node13 -->
<g id="node13" class="node"><title>Node13</title>
<g id="a_node13"><a xlink:href="class_transaction_desc.html#ab7c9dbb2048aae121dd9d75df86e64f4" target="_top" xlink:title="TransactionDesc::toHTML">
<polygon fill="white" stroke="black" points="285.5,-562 285.5,-581 418.5,-581 418.5,-562 285.5,-562"/>
<text text-anchor="middle" x="352" y="-569" font-family="Helvetica,sans-Serif" font-size="10.00">TransactionDesc::toHTML</text>
</a>
</g>
</g>
<!-- Node12&#45;&gt;Node13 -->
<g id="edge12" class="edge"><title>Node12&#45;&gt;Node13</title>
<path fill="none" stroke="midnightblue" d="M243.178,-549.59C263.902,-553.801 285.587,-558.207 304.03,-561.955"/>
<polygon fill="midnightblue" stroke="midnightblue" points="243.597,-546.103 233.101,-547.542 242.203,-552.963 243.597,-546.103"/>
</g>
<!-- Node14 -->
<g id="node14" class="node"><title>Node14</title>
<g id="a_node14"><a xlink:href="class_transaction_table_priv.html#ab08d44e16bf6dd95b5b83959b3013780" target="_top" xlink:title="TransactionTablePriv\l::describe">
<polygon fill="white" stroke="red" points="503.5,-553.5 503.5,-583.5 614.5,-583.5 614.5,-553.5 503.5,-553.5"/>
<text text-anchor="start" x="511.5" y="-571.5" font-family="Helvetica,sans-Serif" font-size="10.00">TransactionTablePriv</text>
<text text-anchor="middle" x="559" y="-560.5" font-family="Helvetica,sans-Serif" font-size="10.00">::describe</text>
</a>
</g>
</g>
<!-- Node13&#45;&gt;Node14 -->
<g id="edge13" class="edge"><title>Node13&#45;&gt;Node14</title>
<path fill="none" stroke="midnightblue" d="M428.782,-570.391C453.499,-570.029 480.444,-569.635 503.302,-569.3"/>
<polygon fill="midnightblue" stroke="midnightblue" points="428.657,-566.892 418.709,-570.538 428.759,-573.892 428.657,-566.892"/>
</g>
<!-- Node16 -->
<g id="node16" class="node"><title>Node16</title>
<g id="a_node16"><a xlink:href="class_transaction_table_priv.html#ac692aa6aa7820e80accc971c70e0fae5" target="_top" xlink:title="TransactionTablePriv\l::index">
<polygon fill="white" stroke="black" points="503.5,-448.5 503.5,-478.5 614.5,-478.5 614.5,-448.5 503.5,-448.5"/>
<text text-anchor="start" x="511.5" y="-466.5" font-family="Helvetica,sans-Serif" font-size="10.00">TransactionTablePriv</text>
<text text-anchor="middle" x="559" y="-455.5" font-family="Helvetica,sans-Serif" font-size="10.00">::index</text>
</a>
</g>
</g>
<!-- Node15&#45;&gt;Node16 -->
<g id="edge15" class="edge"><title>Node15&#45;&gt;Node16</title>
<path fill="none" stroke="midnightblue" d="M415.348,-390.726C422.211,-393.495 428.909,-396.731 435,-400.5 454.783,-412.743 451.119,-426.417 471,-438.5 480.804,-444.458 492.09,-449.051 503.217,-452.573"/>
<polygon fill="midnightblue" stroke="midnightblue" points="416.523,-387.429 405.93,-387.232 414.089,-393.992 416.523,-387.429"/>
</g>
<!-- Node17 -->
<g id="node17" class="node"><title>Node17</title>
<g id="a_node17"><a xlink:href="class_transaction_table_model.html#aaaf3cea9a5373fff771ce81d2f26de6e" target="_top" xlink:title="TransactionTableModel\l::index">
<polygon fill="white" stroke="red" points="712.5,-470.5 712.5,-500.5 833.5,-500.5 833.5,-470.5 712.5,-470.5"/>
<text text-anchor="start" x="720.5" y="-488.5" font-family="Helvetica,sans-Serif" font-size="10.00">TransactionTableModel</text>
<text text-anchor="middle" x="773" y="-477.5" font-family="Helvetica,sans-Serif" font-size="10.00">::index</text>
</a>
</g>
</g>
<!-- Node16&#45;&gt;Node17 -->
<g id="edge16" class="edge"><title>Node16&#45;&gt;Node17</title>
<path fill="none" stroke="midnightblue" d="M624.659,-470.21C652.58,-473.107 685.039,-476.476 712.373,-479.312"/>
<polygon fill="midnightblue" stroke="midnightblue" points="624.903,-466.717 614.595,-469.166 624.181,-473.679 624.903,-466.717"/>
</g>
<!-- Node18 -->
<g id="node18" class="node"><title>Node18</title>
<g id="a_node18"><a xlink:href="class_transaction_view.html#abe5793b86a4ea6f80a6d822ee878e646" target="_top" xlink:title="TransactionView::contextualMenu">
<polygon fill="white" stroke="red" points="689.5,-432 689.5,-451 856.5,-451 856.5,-432 689.5,-432"/>
<text text-anchor="middle" x="773" y="-439" font-family="Helvetica,sans-Serif" font-size="10.00">TransactionView::contextualMenu</text>
</a>
</g>
</g>
<!-- Node16&#45;&gt;Node18 -->
<g id="edge17" class="edge"><title>Node16&#45;&gt;Node18</title>
<path fill="none" stroke="midnightblue" d="M624.678,-456.788C645.014,-454.678 667.755,-452.318 689.17,-450.096"/>
<polygon fill="midnightblue" stroke="midnightblue" points="624.181,-453.321 614.595,-457.834 624.903,-460.283 624.181,-453.321"/>
</g>
<!-- Node22 -->
<g id="node22" class="node"><title>Node22</title>
<g id="a_node22"><a xlink:href="rpcwallet_8cpp.html#af46abb4dba0774b0027591d6e3b30b1e" target="_top" xlink:title="GetAccountBalance">
<polygon fill="white" stroke="black" points="299.5,-410 299.5,-429 404.5,-429 404.5,-410 299.5,-410"/>
<text text-anchor="middle" x="352" y="-417" font-family="Helvetica,sans-Serif" font-size="10.00">GetAccountBalance</text>
</a>
</g>
</g>
<!-- Node21&#45;&gt;Node22 -->
<g id="edge21" class="edge"><title>Node21&#45;&gt;Node22</title>
<path fill="none" stroke="midnightblue" d="M221.131,-445.89C247.727,-440.486 278.973,-434.136 304.151,-429.02"/>
<polygon fill="midnightblue" stroke="midnightblue" points="220.291,-442.49 211.188,-447.911 221.685,-449.349 220.291,-442.49"/>
</g>
<!-- Node23 -->
<g id="node23" class="node"><title>Node23</title>
<g id="a_node23"><a xlink:href="rpcwallet_8cpp.html#a1fdcef480c78c033eb587bd442ec305f" target="_top" xlink:title="getbalance">
<polygon fill="white" stroke="black" points="526.5,-322 526.5,-341 591.5,-341 591.5,-322 526.5,-322"/>
<text text-anchor="middle" x="559" y="-329" font-family="Helvetica,sans-Serif" font-size="10.00">getbalance</text>
</a>
</g>
</g>
<!-- Node21&#45;&gt;Node23 -->
<g id="edge22" class="edge"><title>Node21&#45;&gt;Node23</title>
<path fill="none" stroke="midnightblue" d="M193.542,-471.007C247.498,-493.43 363.042,-530.778 435,-476.5 481.497,-441.428 428.535,-390.359 471,-350.5 485.654,-336.745 507.86,-332.06 526.169,-330.781"/>
<polygon fill="midnightblue" stroke="midnightblue" points="194.78,-467.73 184.209,-467.02 192.029,-474.167 194.78,-467.73"/>
</g>
<!-- Node24 -->
<g id="node24" class="node"><title>Node24</title>
<g id="a_node24"><a xlink:href="rpcwallet_8cpp.html#a845eaefd9ec7752b1145c183205524d0" target="_top" xlink:title="sendfrom">
<polygon fill="white" stroke="black" points="323,-524 323,-543 381,-543 381,-524 323,-524"/>
<text text-anchor="middle" x="352" y="-531" font-family="Helvetica,sans-Serif" font-size="10.00">sendfrom</text>
</a>
</g>
</g>
<!-- Node21&#45;&gt;Node24 -->
<g id="edge23" class="edge"><title>Node21&#45;&gt;Node24</title>
<path fill="none" stroke="midnightblue" d="M189.937,-471.94C210.843,-483.186 241.23,-498.656 269,-509.5 286.548,-516.352 306.866,-522.312 322.887,-526.579"/>
<polygon fill="midnightblue" stroke="midnightblue" points="191.5,-468.806 181.043,-467.102 188.155,-474.955 191.5,-468.806"/>
</g>
<!-- Node25 -->
<g id="node25" class="node"><title>Node25</title>
<g id="a_node25"><a xlink:href="rpcwallet_8cpp.html#adeb5f23f20fb4e589dab23cadf75c92d" target="_top" xlink:title="sendmany">
<polygon fill="white" stroke="black" points="320.5,-448 320.5,-467 383.5,-467 383.5,-448 320.5,-448"/>
<text text-anchor="middle" x="352" y="-455" font-family="Helvetica,sans-Serif" font-size="10.00">sendmany</text>
</a>
</g>
</g>
<!-- Node21&#45;&gt;Node25 -->
<g id="edge24" class="edge"><title>Node21&#45;&gt;Node25</title>
<path fill="none" stroke="midnightblue" d="M225.683,-457.5C257.425,-457.5 294.722,-457.5 320.324,-457.5"/>
<polygon fill="midnightblue" stroke="midnightblue" points="225.594,-454 215.594,-457.5 225.594,-461 225.594,-454"/>
</g>
<!-- Node27 -->
<g id="node27" class="node"><title>Node27</title>
<g id="a_node27"><a xlink:href="rpcwallet_8cpp.html#a34b36ceb4a7e36e0dab24cf675c49da5" target="_top" xlink:title="listreceivedbyaddress">
<polygon fill="white" stroke="black" points="295.5,-44 295.5,-63 408.5,-63 408.5,-44 295.5,-44"/>
<text text-anchor="middle" x="352" y="-51" font-family="Helvetica,sans-Serif" font-size="10.00">listreceivedbyaddress</text>
</a>
</g>
</g>
<!-- Node26&#45;&gt;Node27 -->
<g id="edge26" class="edge"><title>Node26&#45;&gt;Node27</title>
<path fill="none" stroke="midnightblue" d="M210.276,-53.5C235.965,-53.5 268.103,-53.5 295.179,-53.5"/>
<polygon fill="midnightblue" stroke="midnightblue" points="210.056,-50.0001 200.055,-53.5 210.055,-57.0001 210.056,-50.0001"/>
</g>
<!-- Node28 -->
<g id="node28" class="node"><title>Node28</title>
<g id="a_node28"><a xlink:href="rpcwallet_8cpp.html#ab7e240a25a3d2d30ffb65bdfdfa082eb" target="_top" xlink:title="listreceivedbyaccount">
<polygon fill="white" stroke="black" points="296,-6 296,-25 408,-25 408,-6 296,-6"/>
<text text-anchor="middle" x="352" y="-13" font-family="Helvetica,sans-Serif" font-size="10.00">listreceivedbyaccount</text>
</a>
</g>
</g>
<!-- Node26&#45;&gt;Node28 -->
<g id="edge27" class="edge"><title>Node26&#45;&gt;Node28</title>
<path fill="none" stroke="midnightblue" d="M210.193,-44.1133C238.771,-38.306 275.354,-30.8719 304.068,-25.0369"/>
<polygon fill="midnightblue" stroke="midnightblue" points="209.158,-40.7519 200.055,-46.1732 210.552,-47.6117 209.158,-40.7519"/>
</g>
<!-- Node30 -->
<g id="node30" class="node"><title>Node30</title>
<g id="a_node30"><a xlink:href="class_wallet_model.html#a003568663b99fc775244acac214f62ef" target="_top" xlink:title="WalletModel::getUnconfirmed\lBalance">
<polygon fill="white" stroke="black" points="485,-360.5 485,-390.5 633,-390.5 633,-360.5 485,-360.5"/>
<text text-anchor="start" x="493" y="-378.5" font-family="Helvetica,sans-Serif" font-size="10.00">WalletModel::getUnconfirmed</text>
<text text-anchor="middle" x="559" y="-367.5" font-family="Helvetica,sans-Serif" font-size="10.00">Balance</text>
</a>
</g>
</g>
<!-- Node29&#45;&gt;Node30 -->
<g id="edge29" class="edge"><title>Node29&#45;&gt;Node30</title>
<path fill="none" stroke="midnightblue" d="M407.38,-343.172C432.039,-348.465 461.505,-354.789 487.809,-360.435"/>
<polygon fill="midnightblue" stroke="midnightblue" points="407.994,-339.724 397.482,-341.047 406.525,-346.568 407.994,-339.724"/>
</g>
<!-- Node34 -->
<g id="node34" class="node"><title>Node34</title>
<g id="a_node34"><a xlink:href="rpcwallet_8cpp.html#a1f1b55cadcfbec4545b754b35d09032b" target="_top" xlink:title="getunconfirmedbalance">
<polygon fill="white" stroke="black" points="499,-410 499,-429 619,-429 619,-410 499,-410"/>
<text text-anchor="middle" x="559" y="-417" font-family="Helvetica,sans-Serif" font-size="10.00">getunconfirmedbalance</text>
</a>
</g>
</g>
<!-- Node29&#45;&gt;Node34 -->
<g id="edge33" class="edge"><title>Node29&#45;&gt;Node34</title>
<path fill="none" stroke="midnightblue" d="M425.152,-344.987C428.582,-346.62 431.888,-348.45 435,-350.5 457.568,-365.364 448.419,-384.655 471,-399.5 479.288,-404.949 488.87,-408.923 498.58,-411.82"/>
<polygon fill="midnightblue" stroke="midnightblue" points="426.408,-341.719 415.831,-341.105 423.717,-348.181 426.408,-341.719"/>
</g>
<!-- Node31 -->
<g id="node31" class="node"><title>Node31</title>
<g id="a_node31"><a xlink:href="class_overview_page.html#a2ed52a3a87e9c74fee38fa873c9bc71f" target="_top" xlink:title="OverviewPage::setWalletModel">
<polygon fill="white" stroke="red" points="695.5,-252 695.5,-271 850.5,-271 850.5,-252 695.5,-252"/>
<text text-anchor="middle" x="773" y="-259" font-family="Helvetica,sans-Serif" font-size="10.00">OverviewPage::setWalletModel</text>
</a>
</g>
</g>
<!-- Node30&#45;&gt;Node31 -->
<g id="edge30" class="edge"><title>Node30&#45;&gt;Node31</title>
<path fill="none" stroke="midnightblue" d="M631.774,-357.007C637.006,-355.013 642.134,-352.846 647,-350.5 693.073,-328.285 740.349,-289.33 761.107,-271.241"/>
<polygon fill="midnightblue" stroke="midnightblue" points="630.513,-353.741 622.279,-360.409 632.874,-360.33 630.513,-353.741"/>
</g>
<!-- Node32 -->
<g id="node32" class="node"><title>Node32</title>
<g id="a_node32"><a xlink:href="class_send_coins_dialog.html#a73a6c1b1850a334ee652ac167713a2aa" target="_top" xlink:title="SendCoinsDialog::setModel">
<polygon fill="white" stroke="red" points="899,-164 899,-183 1039,-183 1039,-164 899,-164"/>
<text text-anchor="middle" x="969" y="-171" font-family="Helvetica,sans-Serif" font-size="10.00">SendCoinsDialog::setModel</text>
</a>
</g>
</g>
<!-- Node30&#45;&gt;Node32 -->
<g id="edge31" class="edge"><title>Node30&#45;&gt;Node32</title>
<path fill="none" stroke="midnightblue" d="M643.285,-371.873C707.621,-365.681 796.59,-349.456 863,-307.5 914.472,-274.981 951.096,-208.029 963.439,-183.117"/>
<polygon fill="midnightblue" stroke="midnightblue" points="642.824,-368.401 633.179,-372.784 643.452,-375.373 642.824,-368.401"/>
</g>
<!-- Node33 -->
<g id="node33" class="node"><title>Node33</title>
<g id="a_node33"><a xlink:href="class_wallet_model.html#adcc4eb8cd71cb4de223621866bb7fb7d" target="_top" xlink:title="WalletModel::checkBalance\lChanged">
<polygon fill="white" stroke="red" points="703.5,-202.5 703.5,-232.5 842.5,-232.5 842.5,-202.5 703.5,-202.5"/>
<text text-anchor="start" x="711.5" y="-220.5" font-family="Helvetica,sans-Serif" font-size="10.00">WalletModel::checkBalance</text>
<text text-anchor="middle" x="773" y="-209.5" font-family="Helvetica,sans-Serif" font-size="10.00">Changed</text>
</a>
</g>
</g>
<!-- Node30&#45;&gt;Node33 -->
<g id="edge32" class="edge"><title>Node30&#45;&gt;Node33</title>
<path fill="none" stroke="midnightblue" d="M641.756,-354.978C643.588,-353.581 645.341,-352.091 647,-350.5 683.519,-315.481 646.376,-277.41 683,-242.5 688.809,-236.963 695.743,-232.636 703.143,-229.256"/>
<polygon fill="midnightblue" stroke="midnightblue" points="639.732,-352.12 633.275,-360.52 643.561,-357.98 639.732,-352.12"/>
</g>
<!-- Node36 -->
<g id="node36" class="node"><title>Node36</title>
<g id="a_node36"><a xlink:href="class_wallet_model.html#abc134f63b276b9f66900a8d0a69a06ad" target="_top" xlink:title="WalletModel::getWatchUnconfirmed\lBalance">
<polygon fill="white" stroke="black" points="471,-158.5 471,-188.5 647,-188.5 647,-158.5 471,-158.5"/>
<text text-anchor="start" x="479" y="-176.5" font-family="Helvetica,sans-Serif" font-size="10.00">WalletModel::getWatchUnconfirmed</text>
<text text-anchor="middle" x="559" y="-165.5" font-family="Helvetica,sans-Serif" font-size="10.00">Balance</text>
</a>
</g>
</g>
<!-- Node35&#45;&gt;Node36 -->
<g id="edge35" class="edge"><title>Node35&#45;&gt;Node36</title>
<path fill="none" stroke="midnightblue" d="M441.246,-173.5C451.072,-173.5 461.077,-173.5 470.889,-173.5"/>
<polygon fill="midnightblue" stroke="midnightblue" points="441.087,-170 431.087,-173.5 441.086,-177 441.087,-170"/>
</g>
<!-- Node36&#45;&gt;Node31 -->
<g id="edge36" class="edge"><title>Node36&#45;&gt;Node31</title>
<path fill="none" stroke="midnightblue" d="M637.1,-192.835C640.531,-194.567 643.851,-196.451 647,-198.5 667.892,-212.092 661.718,-228.527 683,-241.5 690.167,-245.869 698.181,-249.286 706.384,-251.958"/>
<polygon fill="midnightblue" stroke="midnightblue" points="638.35,-189.558 627.8,-188.594 635.447,-195.927 638.35,-189.558"/>
</g>
<!-- Node36&#45;&gt;Node32 -->
<g id="edge37" class="edge"><title>Node36&#45;&gt;Node32</title>
<path fill="none" stroke="midnightblue" d="M657.337,-173.5C731.696,-173.5 832.361,-173.5 898.686,-173.5"/>
<polygon fill="midnightblue" stroke="midnightblue" points="657.026,-170 647.026,-173.5 657.026,-177 657.026,-170"/>
</g>
<!-- Node36&#45;&gt;Node33 -->
<g id="edge38" class="edge"><title>Node36&#45;&gt;Node33</title>
<path fill="none" stroke="midnightblue" d="M642.431,-190.608C662.52,-194.778 683.8,-199.194 703.18,-203.217"/>
<polygon fill="midnightblue" stroke="midnightblue" points="642.868,-187.125 632.365,-188.519 641.445,-193.978 642.868,-187.125"/>
</g>
<!-- Node38 -->
<g id="node38" class="node"><title>Node38</title>
<g id="a_node38"><a xlink:href="class_wallet_model.html#a4edb2c8ed20331803bebdfa028372ea1" target="_top" xlink:title="WalletModel::getBalance">
<polygon fill="white" stroke="black" points="495.5,-120 495.5,-139 622.5,-139 622.5,-120 495.5,-120"/>
<text text-anchor="middle" x="559" y="-127" font-family="Helvetica,sans-Serif" font-size="10.00">WalletModel::getBalance</text>
</a>
</g>
</g>
<!-- Node37&#45;&gt;Node38 -->
<g id="edge40" class="edge"><title>Node37&#45;&gt;Node38</title>
<path fill="none" stroke="midnightblue" d="M423.822,-129.5C447.076,-129.5 472.743,-129.5 495.348,-129.5"/>
<polygon fill="midnightblue" stroke="midnightblue" points="423.675,-126 413.675,-129.5 423.675,-133 423.675,-126"/>
</g>
<!-- Node41 -->
<g id="node41" class="node"><title>Node41</title>
<g id="a_node41"><a xlink:href="class_wallet_model.html#aadf8de5a584594abdb299b463bd7578f" target="_top" xlink:title="WalletModel::listCoins">
<polygon fill="white" stroke="black" points="501.5,-82 501.5,-101 616.5,-101 616.5,-82 501.5,-82"/>
<text text-anchor="middle" x="559" y="-89" font-family="Helvetica,sans-Serif" font-size="10.00">WalletModel::listCoins</text>
</a>
</g>
</g>
<!-- Node37&#45;&gt;Node41 -->
<g id="edge47" class="edge"><title>Node37&#45;&gt;Node41</title>
<path fill="none" stroke="midnightblue" d="M414.598,-118.082C443.93,-112.645 478.607,-106.217 506.513,-101.044"/>
<polygon fill="midnightblue" stroke="midnightblue" points="413.66,-114.696 404.466,-119.96 414.936,-121.579 413.66,-114.696"/>
</g>
<!-- Node38&#45;&gt;Node31 -->
<g id="edge41" class="edge"><title>Node38&#45;&gt;Node31</title>
<path fill="none" stroke="midnightblue" d="M631.926,-138.968C637.367,-141.501 642.487,-144.634 647,-148.5 680.663,-177.331 649.424,-212.567 683,-241.5 687.919,-245.739 693.545,-249.132 699.526,-251.844"/>
<polygon fill="midnightblue" stroke="midnightblue" points="633.1,-135.669 622.514,-135.247 630.526,-142.178 633.1,-135.669"/>
</g>
<!-- Node38&#45;&gt;Node32 -->
<g id="edge42" class="edge"><title>Node38&#45;&gt;Node32</title>
<path fill="none" stroke="midnightblue" d="M632.453,-116.718C637.482,-114.911 642.382,-112.85 647,-110.5 666.078,-100.789 662.99,-86.1077 683,-78.5 757.778,-50.0696 788.348,-49.7409 863,-78.5 908.42,-95.9979 946.393,-143.258 961.267,-163.775"/>
<polygon fill="midnightblue" stroke="midnightblue" points="631.099,-113.477 622.664,-119.888 633.256,-120.137 631.099,-113.477"/>
</g>
<!-- Node38&#45;&gt;Node33 -->
<g id="edge45" class="edge"><title>Node38&#45;&gt;Node33</title>
<path fill="none" stroke="midnightblue" d="M625.226,-141.576C632.661,-143.59 640.057,-145.889 647,-148.5 684.819,-162.722 725.154,-186.807 749.469,-202.429"/>
<polygon fill="midnightblue" stroke="midnightblue" points="626.017,-138.166 615.463,-139.093 624.291,-144.95 626.017,-138.166"/>
</g>
<!-- Node39 -->
<g id="node39" class="node"><title>Node39</title>
<g id="a_node39"><a xlink:href="class_send_coins_dialog.html#a74815ad8502b126200b6fd2e59e9f042" target="_top" xlink:title="SendCoinsDialog::updateDisplayUnit">
<polygon fill="white" stroke="black" points="683,-88 683,-107 863,-107 863,-88 683,-88"/>
<text text-anchor="middle" x="773" y="-95" font-family="Helvetica,sans-Serif" font-size="10.00">SendCoinsDialog::updateDisplayUnit</text>
</a>
</g>
</g>
<!-- Node38&#45;&gt;Node39 -->
<g id="edge43" class="edge"><title>Node38&#45;&gt;Node39</title>
<path fill="none" stroke="midnightblue" d="M632.824,-118.508C657.614,-114.766 685.097,-110.617 709.048,-107.002"/>
<polygon fill="midnightblue" stroke="midnightblue" points="632.112,-115.075 622.747,-120.029 633.157,-121.997 632.112,-115.075"/>
</g>
<!-- Node40 -->
<g id="node40" class="node"><title>Node40</title>
<g id="a_node40"><a xlink:href="class_wallet_model.html#a8abc851901c7c7343ebfb5a8e5fc0154" target="_top" xlink:title="WalletModel::prepareTransaction">
<polygon fill="white" stroke="red" points="691,-126 691,-145 855,-145 855,-126 691,-126"/>
<text text-anchor="middle" x="773" y="-133" font-family="Helvetica,sans-Serif" font-size="10.00">WalletModel::prepareTransaction</text>
</a>
</g>
</g>
<!-- Node38&#45;&gt;Node40 -->
<g id="edge46" class="edge"><title>Node38&#45;&gt;Node40</title>
<path fill="none" stroke="midnightblue" d="M632.953,-131.565C651.636,-132.093 671.841,-132.665 690.907,-133.205"/>
<polygon fill="midnightblue" stroke="midnightblue" points="632.842,-128.06 622.747,-131.276 632.643,-135.057 632.842,-128.06"/>
</g>
<!-- Node39&#45;&gt;Node32 -->
<g id="edge44" class="edge"><title>Node39&#45;&gt;Node32</title>
<path fill="none" stroke="midnightblue" d="M840.452,-109.477C848.148,-111.512 855.81,-113.844 863,-116.5 897.244,-129.149 934.032,-151.347 953.68,-163.986"/>
<polygon fill="midnightblue" stroke="midnightblue" points="841.268,-106.074 830.719,-107.056 839.578,-112.867 841.268,-106.074"/>
</g>
<!-- Node42 -->
<g id="node42" class="node"><title>Node42</title>
<g id="a_node42"><a xlink:href="class_coin_control_dialog.html#aadea33050e5c1efd5eae8d2fcfa721f9" target="_top" xlink:title="CoinControlDialog::\lupdateView">
<polygon fill="white" stroke="red" points="721.5,-0.5 721.5,-30.5 824.5,-30.5 824.5,-0.5 721.5,-0.5"/>
<text text-anchor="start" x="729.5" y="-18.5" font-family="Helvetica,sans-Serif" font-size="10.00">CoinControlDialog::</text>
<text text-anchor="middle" x="773" y="-7.5" font-family="Helvetica,sans-Serif" font-size="10.00">updateView</text>
</a>
</g>
</g>
<!-- Node41&#45;&gt;Node42 -->
<g id="edge48" class="edge"><title>Node41&#45;&gt;Node42</title>
<path fill="none" stroke="midnightblue" d="M626.5,-80.1038C633.563,-77.9763 640.525,-75.4639 647,-72.5 665.185,-64.1761 665.3,-54.8119 683,-45.5 694.977,-39.1988 708.543,-33.83 721.409,-29.4513"/>
<polygon fill="midnightblue" stroke="midnightblue" points="625.547,-76.7356 616.841,-82.7725 627.412,-83.4828 625.547,-76.7356"/>
</g>
<!-- Node44 -->
<g id="node44" class="node"><title>Node44</title>
<g id="a_node44"><a xlink:href="rpcwallet_8cpp.html#a6be618acd7a7b1fb454dacbf24294317" target="_top" xlink:title="listaddressgroupings">
<polygon fill="white" stroke="black" points="505,-44 505,-63 613,-63 613,-44 505,-44"/>
<text text-anchor="middle" x="559" y="-51" font-family="Helvetica,sans-Serif" font-size="10.00">listaddressgroupings</text>
</a>
</g>
</g>
<!-- Node43&#45;&gt;Node44 -->
<g id="edge50" class="edge"><title>Node43&#45;&gt;Node44</title>
<path fill="none" stroke="midnightblue" d="M414.598,-80.0819C443.93,-74.6448 478.607,-68.2168 506.513,-63.0439"/>
<polygon fill="midnightblue" stroke="midnightblue" points="413.66,-76.696 404.466,-81.96 414.936,-83.5787 413.66,-76.696"/>
</g>
<!-- Node45&#45;&gt;Node15 -->
<g id="edge52" class="edge"><title>Node45&#45;&gt;Node15</title>
<path fill="none" stroke="midnightblue" d="M187.967,-308.322C208.816,-320.769 240.132,-338.409 269,-350.5 278.335,-354.41 288.496,-358.006 298.386,-361.18"/>
<polygon fill="midnightblue" stroke="midnightblue" points="189.54,-305.183 179.171,-303.007 185.92,-311.174 189.54,-305.183"/>
</g>
<!-- Node45&#45;&gt;Node23 -->
<g id="edge53" class="edge"><title>Node45&#45;&gt;Node23</title>
<path fill="none" stroke="midnightblue" d="M228.406,-296.503C283.4,-299.429 364.548,-304.603 435,-312.5 466.243,-316.002 501.705,-321.661 526.497,-325.894"/>
<polygon fill="midnightblue" stroke="midnightblue" points="228.277,-292.992 218.108,-295.965 227.912,-299.982 228.277,-292.992"/>
</g>
<!-- Node45&#45;&gt;Node29 -->
<g id="edge59" class="edge"><title>Node45&#45;&gt;Node29</title>
<path fill="none" stroke="midnightblue" d="M221.131,-305.11C247.727,-310.514 278.973,-316.864 304.151,-321.98"/>
<polygon fill="midnightblue" stroke="midnightblue" points="221.685,-301.651 211.188,-303.089 220.291,-308.51 221.685,-301.651"/>
</g>
<!-- Node45&#45;&gt;Node35 -->
<g id="edge65" class="edge"><title>Node45&#45;&gt;Node35</title>
<path fill="none" stroke="midnightblue" d="M216.899,-279.973C222.71,-277.114 228.237,-273.662 233,-269.5 259.642,-246.221 241.911,-221.258 269,-198.5 273.558,-194.671 278.694,-191.428 284.115,-188.681"/>
<polygon fill="midnightblue" stroke="midnightblue" points="215.389,-276.813 207.601,-283.997 218.169,-283.237 215.389,-276.813"/>
</g>
<!-- Node45&#45;&gt;Node37 -->
<g id="edge66" class="edge"><title>Node45&#45;&gt;Node37</title>
<path fill="none" stroke="midnightblue" d="M185.943,-277.812C200.767,-266.328 219.942,-249.636 233,-231.5 256.494,-198.869 238.107,-174.238 269,-148.5 275.175,-143.355 282.482,-139.544 290.149,-136.731"/>
<polygon fill="midnightblue" stroke="midnightblue" points="183.681,-275.133 177.796,-283.944 187.891,-280.726 183.681,-275.133"/>
</g>
<!-- Node45&#45;&gt;Node43 -->
<g id="edge67" class="edge"><title>Node45&#45;&gt;Node43</title>
<path fill="none" stroke="midnightblue" d="M177.619,-276.029C192.398,-256.584 216.137,-223.888 233,-193.5 252.51,-158.341 238.107,-136.238 269,-110.5 273.603,-106.665 278.835,-103.571 284.377,-101.079"/>
<polygon fill="midnightblue" stroke="midnightblue" points="174.832,-273.912 171.516,-283.975 180.383,-278.176 174.832,-273.912"/>
</g>
<!-- Node46 -->
<g id="node46" class="node"><title>Node46</title>
<g id="a_node46"><a xlink:href="class_c_wallet.html#a077694e4421644296378d9b3ef68af8a" target="_top" xlink:title="CWallet::GetBalance">
<polygon fill="white" stroke="black" points="297.5,-246 297.5,-265 406.5,-265 406.5,-246 297.5,-246"/>
<text text-anchor="middle" x="352" y="-253" font-family="Helvetica,sans-Serif" font-size="10.00">CWallet::GetBalance</text>
</a>
</g>
</g>
<!-- Node45&#45;&gt;Node46 -->
<g id="edge54" class="edge"><title>Node45&#45;&gt;Node46</title>
<path fill="none" stroke="midnightblue" d="M221.131,-281.89C247.727,-276.486 278.973,-270.136 304.151,-265.02"/>
<polygon fill="midnightblue" stroke="midnightblue" points="220.291,-278.49 211.188,-283.911 221.685,-285.349 220.291,-278.49"/>
</g>
<!-- Node49 -->
<g id="node49" class="node"><title>Node49</title>
<g id="a_node49"><a xlink:href="class_c_wallet.html#a39068cc4073715f7e6614aeb72f0872e" target="_top" xlink:title="CWallet::GetWatchOnlyBalance">
<polygon fill="white" stroke="black" points="273,-208 273,-227 431,-227 431,-208 273,-208"/>
<text text-anchor="middle" x="352" y="-215" font-family="Helvetica,sans-Serif" font-size="10.00">CWallet::GetWatchOnlyBalance</text>
</a>
</g>
</g>
<!-- Node45&#45;&gt;Node49 -->
<g id="edge60" class="edge"><title>Node45&#45;&gt;Node49</title>
<path fill="none" stroke="midnightblue" d="M209.946,-280.472C217.891,-277.4 225.878,-273.753 233,-269.5 251.635,-258.372 249.796,-246.616 269,-236.5 276.37,-232.618 284.523,-229.523 292.745,-227.056"/>
<polygon fill="midnightblue" stroke="midnightblue" points="208.557,-277.252 200.337,-283.937 210.931,-283.837 208.557,-277.252"/>
</g>
<!-- Node46&#45;&gt;Node23 -->
<g id="edge57" class="edge"><title>Node46&#45;&gt;Node23</title>
<path fill="none" stroke="midnightblue" d="M408.916,-268.115C417.926,-271.196 426.934,-274.953 435,-279.5 453.908,-290.159 451.732,-302.506 471,-312.5 488.155,-321.398 509.299,-326.136 526.447,-328.656"/>
<polygon fill="midnightblue" stroke="midnightblue" points="409.771,-264.715 399.181,-265.031 407.657,-271.388 409.771,-264.715"/>
</g>
<!-- Node46&#45;&gt;Node38 -->
<g id="edge55" class="edge"><title>Node46&#45;&gt;Node38</title>
<path fill="none" stroke="midnightblue" d="M416.699,-247.32C423.339,-244.61 429.616,-241.082 435,-236.5 467.181,-209.113 438.646,-175.682 471,-148.5 477.984,-142.633 486.37,-138.46 495.14,-135.514"/>
<polygon fill="midnightblue" stroke="midnightblue" points="415.091,-244.171 406.771,-250.731 417.366,-250.791 415.091,-244.171"/>
</g>
<!-- Node47 -->
<g id="node47" class="node"><title>Node47</title>
<g id="a_node47"><a xlink:href="rpcmisc_8cpp.html#a70335b93783d51e48d276a1e08bd721a" target="_top" xlink:title="getinfo">
<polygon fill="white" stroke="black" points="535.5,-284 535.5,-303 582.5,-303 582.5,-284 535.5,-284"/>
<text text-anchor="middle" x="559" y="-291" font-family="Helvetica,sans-Serif" font-size="10.00">getinfo</text>
</a>
</g>
</g>
<!-- Node46&#45;&gt;Node47 -->
<g id="edge56" class="edge"><title>Node46&#45;&gt;Node47</title>
<path fill="none" stroke="midnightblue" d="M414.337,-266.87C455.182,-274.441 506.484,-283.951 535.421,-289.315"/>
<polygon fill="midnightblue" stroke="midnightblue" points="414.936,-263.421 404.466,-265.04 413.66,-270.304 414.936,-263.421"/>
</g>
<!-- Node48 -->
<g id="node48" class="node"><title>Node48</title>
<g id="a_node48"><a xlink:href="rpcwallet_8cpp.html#a9401fef738a283075915e0ea0086fae9" target="_top" xlink:title="getwalletinfo">
<polygon fill="white" stroke="black" points="523,-246 523,-265 595,-265 595,-246 523,-246"/>
<text text-anchor="middle" x="559" y="-253" font-family="Helvetica,sans-Serif" font-size="10.00">getwalletinfo</text>
</a>
</g>
</g>
<!-- Node46&#45;&gt;Node48 -->
<g id="edge58" class="edge"><title>Node46&#45;&gt;Node48</title>
<path fill="none" stroke="midnightblue" d="M416.719,-255.5C451.67,-255.5 493.679,-255.5 522.758,-255.5"/>
<polygon fill="midnightblue" stroke="midnightblue" points="416.594,-252 406.594,-255.5 416.594,-259 416.594,-252"/>
</g>
<!-- Node50 -->
<g id="node50" class="node"><title>Node50</title>
<g id="a_node50"><a xlink:href="class_wallet_model.html#aaf5c6210cc8ead78be9e6e4e45c244c4" target="_top" xlink:title="WalletModel::getWatchBalance">
<polygon fill="white" stroke="black" points="481.5,-208 481.5,-227 636.5,-227 636.5,-208 481.5,-208"/>
<text text-anchor="middle" x="559" y="-215" font-family="Helvetica,sans-Serif" font-size="10.00">WalletModel::getWatchBalance</text>
</a>
</g>
</g>
<!-- Node49&#45;&gt;Node50 -->
<g id="edge61" class="edge"><title>Node49&#45;&gt;Node50</title>
<path fill="none" stroke="midnightblue" d="M441.249,-217.5C454.643,-217.5 468.368,-217.5 481.486,-217.5"/>
<polygon fill="midnightblue" stroke="midnightblue" points="441.087,-214 431.087,-217.5 441.086,-221 441.087,-214"/>
</g>
<!-- Node50&#45;&gt;Node31 -->
<g id="edge62" class="edge"><title>Node50&#45;&gt;Node31</title>
<path fill="none" stroke="midnightblue" d="M615.891,-229.1C650.255,-236.232 693.745,-245.258 726.089,-251.971"/>
<polygon fill="midnightblue" stroke="midnightblue" points="616.503,-225.653 606.001,-227.047 615.081,-232.507 616.503,-225.653"/>
</g>
<!-- Node50&#45;&gt;Node32 -->
<g id="edge63" class="edge"><title>Node50&#45;&gt;Node32</title>
<path fill="none" stroke="midnightblue" d="M636.084,-230.816C639.875,-232.493 643.54,-234.379 647,-236.5 668.54,-249.708 660.167,-269.68 683,-280.5 755.294,-314.758 789.235,-311.463 863,-280.5 911.476,-260.152 948.826,-205.295 962.426,-183.058"/>
<polygon fill="midnightblue" stroke="midnightblue" points="637.031,-227.429 626.442,-227.064 634.492,-233.952 637.031,-227.429"/>
</g>
<!-- Node50&#45;&gt;Node33 -->
<g id="edge64" class="edge"><title>Node50&#45;&gt;Node33</title>
<path fill="none" stroke="midnightblue" d="M646.622,-217.5C665.507,-217.5 685.241,-217.5 703.316,-217.5"/>
<polygon fill="midnightblue" stroke="midnightblue" points="646.537,-214 636.537,-217.5 646.537,-221 646.537,-214"/>
</g>
</g>
</svg>
