<?xml version="1.0" encoding="UTF-8" standalone="no"?>
<!DOCTYPE svg PUBLIC "-//W3C//DTD SVG 1.1//EN"
 "http://www.w3.org/Graphics/SVG/1.1/DTD/svg11.dtd">
<!-- Generated by graphviz version 2.38.0 (20140413.2041)
 -->
<!-- Title: PushGetBlocks Pages: 1 -->
<svg width="795pt" height="522pt"
 viewBox="0.00 0.00 795.00 522.00" xmlns="http://www.w3.org/2000/svg" xmlns:xlink="http://www.w3.org/1999/xlink">
<g id="graph0" class="graph" transform="scale(1 1) rotate(0) translate(4 518)">
<title>PushGetBlocks</title>
<polygon fill="white" stroke="none" points="-4,4 -4,-518 791,-518 791,4 -4,4"/>
<!-- Node1 -->
<g id="node1" class="node"><title>Node1</title>
<polygon fill="#bfbfbf" stroke="black" points="0,-42.5 0,-61.5 85,-61.5 85,-42.5 0,-42.5"/>
<text text-anchor="middle" x="42.5" y="-49.5" font-family="Helvetica,sans-Serif" font-size="10.00">PushGetBlocks</text>
</g>
<!-- Node2 -->
<g id="node2" class="node"><title>Node2</title>
<g id="a_node2"><a xlink:href="class_c_node.html#a204fda3d33404cb37698c085b1583ab2" target="_top" xlink:title="CNode::PushMessage">
<polygon fill="white" stroke="black" points="121,-66.5 121,-85.5 238,-85.5 238,-66.5 121,-66.5"/>
<text text-anchor="middle" x="179.5" y="-73.5" font-family="Helvetica,sans-Serif" font-size="10.00">CNode::PushMessage</text>
</a>
</g>
</g>
<!-- Node1&#45;&gt;Node2 -->
<g id="edge1" class="edge"><title>Node1&#45;&gt;Node2</title>
<path fill="none" stroke="midnightblue" d="M85.106,-59.3966C94.519,-61.07 104.724,-62.8842 114.815,-64.6782"/>
<polygon fill="midnightblue" stroke="midnightblue" points="114.376,-68.1549 124.834,-66.4593 115.601,-61.263 114.376,-68.1549"/>
</g>
<!-- Node22 -->
<g id="node22" class="node"><title>Node22</title>
<g id="a_node22"><a xlink:href="class_c_chain.html#a3f7e9ed312ad1cadd266a9529586ade6" target="_top" xlink:title="Return a CBlockLocator that refers to a block in this chain (by default the tip). ...">
<polygon fill="white" stroke="black" points="127,-19.5 127,-38.5 232,-38.5 232,-19.5 127,-19.5"/>
<text text-anchor="middle" x="179.5" y="-26.5" font-family="Helvetica,sans-Serif" font-size="10.00">CChain::GetLocator</text>
</a>
</g>
</g>
<!-- Node1&#45;&gt;Node22 -->
<g id="edge27" class="edge"><title>Node1&#45;&gt;Node22</title>
<path fill="none" stroke="midnightblue" d="M85.106,-44.9116C95.0867,-43.2112 105.958,-41.3591 116.639,-39.5393"/>
<polygon fill="midnightblue" stroke="midnightblue" points="117.516,-42.9403 126.787,-37.8104 116.341,-36.0397 117.516,-42.9403"/>
</g>
<!-- Node3 -->
<g id="node3" class="node"><title>Node3</title>
<g id="a_node3"><a xlink:href="class_c_node.html#af76d193027757002321d0d674290b955" target="_top" xlink:title="CNode::BeginMessage">
<polygon fill="white" stroke="black" points="285.5,-76.5 285.5,-95.5 404.5,-95.5 404.5,-76.5 285.5,-76.5"/>
<text text-anchor="middle" x="345" y="-83.5" font-family="Helvetica,sans-Serif" font-size="10.00">CNode::BeginMessage</text>
</a>
</g>
</g>
<!-- Node2&#45;&gt;Node3 -->
<g id="edge2" class="edge"><title>Node2&#45;&gt;Node3</title>
<path fill="none" stroke="midnightblue" d="M238.144,-79.5256C250.139,-80.2593 262.895,-81.0394 275.244,-81.7948"/>
<polygon fill="midnightblue" stroke="midnightblue" points="275.302,-85.3047 285.497,-82.4218 275.729,-78.3178 275.302,-85.3047"/>
</g>
<!-- Node5 -->
<g id="node5" class="node"><title>Node5</title>
<g id="a_node5"><a xlink:href="class_c_node.html#af8d4b8c0f883afffcb62d906c31b2cdf" target="_top" xlink:title="CNode::EndMessage">
<polygon fill="white" stroke="black" points="289,-209.5 289,-228.5 401,-228.5 401,-209.5 289,-209.5"/>
<text text-anchor="middle" x="345" y="-216.5" font-family="Helvetica,sans-Serif" font-size="10.00">CNode::EndMessage</text>
</a>
</g>
</g>
<!-- Node2&#45;&gt;Node5 -->
<g id="edge4" class="edge"><title>Node2&#45;&gt;Node5</title>
<path fill="none" stroke="midnightblue" d="M191.482,-85.6047C218.94,-109.62 290.833,-172.499 325.19,-202.548"/>
<polygon fill="midnightblue" stroke="midnightblue" points="323.235,-205.488 333.066,-209.437 327.843,-200.219 323.235,-205.488"/>
</g>
<!-- Node8 -->
<g id="node8" class="node"><title>Node8</title>
<g id="a_node8"><a xlink:href="class_c_node.html#aae0fdfe555001a60bab8f216c3bc3978" target="_top" xlink:title="CNode::AbortMessage">
<polygon fill="white" stroke="black" points="463,-38.5 463,-57.5 581,-57.5 581,-38.5 463,-38.5"/>
<text text-anchor="middle" x="522" y="-45.5" font-family="Helvetica,sans-Serif" font-size="10.00">CNode::AbortMessage</text>
</a>
</g>
</g>
<!-- Node2&#45;&gt;Node8 -->
<g id="edge26" class="edge"><title>Node2&#45;&gt;Node8</title>
<path fill="none" stroke="midnightblue" d="M238.341,-70.2576C250.136,-69.1358 262.465,-67.9987 274,-67 334.204,-61.7874 402.728,-56.5732 452.303,-52.9293"/>
<polygon fill="midnightblue" stroke="midnightblue" points="452.867,-56.3975 462.584,-52.1762 452.355,-49.4162 452.867,-56.3975"/>
</g>
<!-- Node4 -->
<g id="node4" class="node"><title>Node4</title>
<g id="a_node4"><a xlink:href="class_c_data_stream.html#ac6567f6d600d644d9855b52bb59049cd" target="_top" xlink:title="CDataStream::size">
<polygon fill="white" stroke="black" points="472,-76.5 472,-95.5 572,-95.5 572,-76.5 472,-76.5"/>
<text text-anchor="middle" x="522" y="-83.5" font-family="Helvetica,sans-Serif" font-size="10.00">CDataStream::size</text>
</a>
</g>
</g>
<!-- Node3&#45;&gt;Node4 -->
<g id="edge3" class="edge"><title>Node3&#45;&gt;Node4</title>
<path fill="none" stroke="midnightblue" d="M404.759,-86C423.022,-86 443.165,-86 461.479,-86"/>
<polygon fill="midnightblue" stroke="midnightblue" points="461.732,-89.5001 471.731,-86 461.731,-82.5001 461.732,-89.5001"/>
</g>
<!-- Node5&#45;&gt;Node4 -->
<g id="edge11" class="edge"><title>Node5&#45;&gt;Node4</title>
<path fill="none" stroke="midnightblue" d="M352.144,-209.376C366.697,-187.383 405.555,-133.171 452,-105 455.585,-102.825 459.425,-100.894 463.389,-99.179"/>
<polygon fill="midnightblue" stroke="midnightblue" points="464.726,-102.415 472.803,-95.5592 462.213,-95.8811 464.726,-102.415"/>
</g>
<!-- Node6 -->
<g id="node6" class="node"><title>Node6</title>
<g id="a_node6"><a xlink:href="util_8cpp.html#a27d9149d522b1fa87d84e5e9ca902aef" target="_top" xlink:title="GetRand">
<polygon fill="white" stroke="black" points="679,-342.5 679,-361.5 736,-361.5 736,-342.5 679,-342.5"/>
<text text-anchor="middle" x="707.5" y="-349.5" font-family="Helvetica,sans-Serif" font-size="10.00">GetRand</text>
</a>
</g>
</g>
<!-- Node5&#45;&gt;Node6 -->
<g id="edge5" class="edge"><title>Node5&#45;&gt;Node6</title>
<path fill="none" stroke="midnightblue" d="M351.391,-228.579C364.874,-251.474 402.556,-309.229 452,-333 522.607,-366.945 617.09,-363.063 668.783,-357.414"/>
<polygon fill="midnightblue" stroke="midnightblue" points="669.313,-360.876 678.836,-356.233 668.496,-353.923 669.313,-360.876"/>
</g>
<!-- Node7 -->
<g id="node7" class="node"><title>Node7</title>
<g id="a_node7"><a xlink:href="util_8cpp.html#a24f685720bf40370e5bd2a192ad50cd8" target="_top" xlink:title="Return string argument or default value. ">
<polygon fill="white" stroke="black" points="498,-304.5 498,-323.5 546,-323.5 546,-304.5 498,-304.5"/>
<text text-anchor="middle" x="522" y="-311.5" font-family="Helvetica,sans-Serif" font-size="10.00">GetArg</text>
</a>
</g>
</g>
<!-- Node5&#45;&gt;Node7 -->
<g id="edge6" class="edge"><title>Node5&#45;&gt;Node7</title>
<path fill="none" stroke="midnightblue" d="M356.622,-228.612C374.84,-244.614 413.786,-276.758 452,-295 463.274,-300.382 476.336,-304.467 488.043,-307.444"/>
<polygon fill="midnightblue" stroke="midnightblue" points="487.365,-310.88 497.902,-309.78 488.978,-304.069 487.365,-310.88"/>
</g>
<!-- Node5&#45;&gt;Node8 -->
<g id="edge7" class="edge"><title>Node5&#45;&gt;Node8</title>
<path fill="none" stroke="midnightblue" d="M351.599,-209.249C369.219,-178.869 424.02,-86.776 452,-67 454.74,-65.0637 457.669,-63.3245 460.717,-61.7623"/>
<polygon fill="midnightblue" stroke="midnightblue" points="462.422,-64.8353 470.149,-57.587 459.588,-58.4344 462.422,-64.8353"/>
</g>
<!-- Node10 -->
<g id="node10" class="node"><title>Node10</title>
<g id="a_node10"><a xlink:href="class_c_node.html#a39512c4e2c788fb7a09e629b79a69e47" target="_top" xlink:title="CNode::Fuzz">
<polygon fill="white" stroke="black" points="484.5,-380.5 484.5,-399.5 559.5,-399.5 559.5,-380.5 484.5,-380.5"/>
<text text-anchor="middle" x="522" y="-387.5" font-family="Helvetica,sans-Serif" font-size="10.00">CNode::Fuzz</text>
</a>
</g>
</g>
<!-- Node5&#45;&gt;Node10 -->
<g id="edge9" class="edge"><title>Node5&#45;&gt;Node10</title>
<path fill="none" stroke="midnightblue" d="M350.424,-228.818C362.702,-254.99 399.775,-327.084 452,-366 458.798,-371.066 466.75,-375.122 474.791,-378.351"/>
<polygon fill="midnightblue" stroke="midnightblue" points="473.612,-381.647 484.206,-381.773 476.002,-375.068 473.612,-381.647"/>
</g>
<!-- Node11 -->
<g id="node11" class="node"><title>Node11</title>
<g id="a_node11"><a xlink:href="glibc__compat_8cpp.html#a0f46826ab0466591e136db24394923cf" target="_top" xlink:title="memcpy">
<polygon fill="white" stroke="black" points="495,-266.5 495,-285.5 549,-285.5 549,-266.5 495,-266.5"/>
<text text-anchor="middle" x="522" y="-273.5" font-family="Helvetica,sans-Serif" font-size="10.00">memcpy</text>
</a>
</g>
</g>
<!-- Node5&#45;&gt;Node11 -->
<g id="edge12" class="edge"><title>Node5&#45;&gt;Node11</title>
<path fill="none" stroke="midnightblue" d="M375.291,-228.541C405.537,-238.392 452.764,-253.775 485.205,-264.341"/>
<polygon fill="midnightblue" stroke="midnightblue" points="484.171,-267.685 494.763,-267.454 486.339,-261.029 484.171,-267.685"/>
</g>
<!-- Node13 -->
<g id="node13" class="node"><title>Node13</title>
<g id="a_node13"><a xlink:href="hash_8h.html#ab3f6c437460137530d86e09c2c102e99" target="_top" xlink:title="Hash">
<polygon fill="white" stroke="black" points="502,-190.5 502,-209.5 542,-209.5 542,-190.5 502,-190.5"/>
<text text-anchor="middle" x="522" y="-197.5" font-family="Helvetica,sans-Serif" font-size="10.00">Hash</text>
</a>
</g>
</g>
<!-- Node5&#45;&gt;Node13 -->
<g id="edge14" class="edge"><title>Node5&#45;&gt;Node13</title>
<path fill="none" stroke="midnightblue" d="M401.371,-212.988C431.377,-209.73 467.238,-205.837 491.821,-203.168"/>
<polygon fill="midnightblue" stroke="midnightblue" points="492.375,-206.629 501.939,-202.07 491.619,-199.669 492.375,-206.629"/>
</g>
<!-- Node14 -->
<g id="node14" class="node"><title>Node14</title>
<g id="a_node14"><a xlink:href="class_c_data_stream.html#a5b9e70188c662f4e9496066472af213e" target="_top" xlink:title="CDataStream::begin">
<polygon fill="white" stroke="black" points="654,-133.5 654,-152.5 761,-152.5 761,-133.5 654,-133.5"/>
<text text-anchor="middle" x="707.5" y="-140.5" font-family="Helvetica,sans-Serif" font-size="10.00">CDataStream::begin</text>
</a>
</g>
</g>
<!-- Node5&#45;&gt;Node14 -->
<g id="edge15" class="edge"><title>Node5&#45;&gt;Node14</title>
<path fill="none" stroke="midnightblue" d="M368.756,-209.371C389.952,-200.758 422.612,-188.386 452,-181 516.381,-164.82 591.767,-154.62 643.693,-148.91"/>
<polygon fill="midnightblue" stroke="midnightblue" points="644.187,-152.377 653.755,-147.827 643.438,-145.417 644.187,-152.377"/>
</g>
<!-- Node15 -->
<g id="node15" class="node"><title>Node15</title>
<g id="a_node15"><a xlink:href="class_c_data_stream.html#a1c22182691412ed9e0a30b719d388f31" target="_top" xlink:title="CDataStream::end">
<polygon fill="white" stroke="black" points="658,-190.5 658,-209.5 757,-209.5 757,-190.5 658,-190.5"/>
<text text-anchor="middle" x="707.5" y="-197.5" font-family="Helvetica,sans-Serif" font-size="10.00">CDataStream::end</text>
</a>
</g>
</g>
<!-- Node5&#45;&gt;Node15 -->
<g id="edge16" class="edge"><title>Node5&#45;&gt;Node15</title>
<path fill="none" stroke="midnightblue" d="M401.308,-221.589C451.236,-223.311 526.664,-224.384 592,-219 610.978,-217.436 631.547,-214.438 649.947,-211.277"/>
<polygon fill="midnightblue" stroke="midnightblue" points="650.684,-214.701 659.921,-209.513 649.465,-207.808 650.684,-214.701"/>
</g>
<!-- Node16 -->
<g id="node16" class="node"><title>Node16</title>
<g id="a_node16"><a xlink:href="class_c_data_stream.html#a4be60514b69c71a722e16bf1fbbc3c6c" target="_top" xlink:title="CDataStream::GetAndClear">
<polygon fill="white" stroke="black" points="452,-114.5 452,-133.5 592,-133.5 592,-114.5 452,-114.5"/>
<text text-anchor="middle" x="522" y="-121.5" font-family="Helvetica,sans-Serif" font-size="10.00">CDataStream::GetAndClear</text>
</a>
</g>
</g>
<!-- Node5&#45;&gt;Node16 -->
<g id="edge17" class="edge"><title>Node5&#45;&gt;Node16</title>
<path fill="none" stroke="midnightblue" d="M358.093,-209.384C377.145,-194.595 415.724,-166.084 452,-148 460.336,-143.845 469.567,-140.098 478.494,-136.868"/>
<polygon fill="midnightblue" stroke="midnightblue" points="479.703,-140.153 488.005,-133.571 477.41,-133.54 479.703,-140.153"/>
</g>
<!-- Node17 -->
<g id="node17" class="node"><title>Node17</title>
<g id="a_node17"><a xlink:href="net_8h.html#aff6b7f2f213ce1e8d3aea65c41c99cb8" target="_top" xlink:title="SocketSendData">
<polygon fill="white" stroke="black" points="476,-418.5 476,-437.5 568,-437.5 568,-418.5 476,-418.5"/>
<text text-anchor="middle" x="522" y="-425.5" font-family="Helvetica,sans-Serif" font-size="10.00">SocketSendData</text>
</a>
</g>
</g>
<!-- Node5&#45;&gt;Node17 -->
<g id="edge21" class="edge"><title>Node5&#45;&gt;Node17</title>
<path fill="none" stroke="midnightblue" d="M348.488,-228.635C357.062,-259.857 388.407,-359.102 452,-409 456.338,-412.404 461.245,-415.198 466.394,-417.492"/>
<polygon fill="midnightblue" stroke="midnightblue" points="465.261,-420.806 475.852,-421.105 467.759,-414.267 465.261,-420.806"/>
</g>
<!-- Node9 -->
<g id="node9" class="node"><title>Node9</title>
<g id="a_node9"><a xlink:href="class_c_data_stream.html#ade6ed9a3a481e333900e6496707b9692" target="_top" xlink:title="CDataStream::clear">
<polygon fill="white" stroke="black" points="655.5,-76.5 655.5,-95.5 759.5,-95.5 759.5,-76.5 655.5,-76.5"/>
<text text-anchor="middle" x="707.5" y="-83.5" font-family="Helvetica,sans-Serif" font-size="10.00">CDataStream::clear</text>
</a>
</g>
</g>
<!-- Node8&#45;&gt;Node9 -->
<g id="edge8" class="edge"><title>Node8&#45;&gt;Node9</title>
<path fill="none" stroke="midnightblue" d="M569.305,-57.589C593.956,-62.6939 624.463,-69.0113 650.445,-74.3918"/>
<polygon fill="midnightblue" stroke="midnightblue" points="650.026,-77.8793 660.528,-76.4799 651.446,-71.0248 650.026,-77.8793"/>
</g>
<!-- Node10&#45;&gt;Node6 -->
<g id="edge10" class="edge"><title>Node10&#45;&gt;Node6</title>
<path fill="none" stroke="midnightblue" d="M559.693,-382.401C591.403,-375.835 637.037,-366.385 668.985,-359.769"/>
<polygon fill="midnightblue" stroke="midnightblue" points="669.759,-363.183 678.842,-357.728 668.34,-356.328 669.759,-363.183"/>
</g>
<!-- Node12 -->
<g id="node12" class="node"><title>Node12</title>
<g id="a_node12"><a xlink:href="glibc__compat_8cpp.html#a9778d49e9029dd75bc53ecbbf9f5e9a1" target="_top" xlink:title="memmove">
<polygon fill="white" stroke="black" points="676,-266.5 676,-285.5 739,-285.5 739,-266.5 676,-266.5"/>
<text text-anchor="middle" x="707.5" y="-273.5" font-family="Helvetica,sans-Serif" font-size="10.00">memmove</text>
</a>
</g>
</g>
<!-- Node11&#45;&gt;Node12 -->
<g id="edge13" class="edge"><title>Node11&#45;&gt;Node12</title>
<path fill="none" stroke="midnightblue" d="M549.291,-276C579.778,-276 630.384,-276 665.926,-276"/>
<polygon fill="midnightblue" stroke="midnightblue" points="665.977,-279.5 675.977,-276 665.977,-272.5 665.977,-279.5"/>
</g>
<!-- Node16&#45;&gt;Node9 -->
<g id="edge20" class="edge"><title>Node16&#45;&gt;Node9</title>
<path fill="none" stroke="midnightblue" d="M569.305,-114.411C593.956,-109.306 624.463,-102.989 650.445,-97.6082"/>
<polygon fill="midnightblue" stroke="midnightblue" points="651.446,-100.975 660.528,-95.5201 650.026,-94.1207 651.446,-100.975"/>
</g>
<!-- Node16&#45;&gt;Node14 -->
<g id="edge18" class="edge"><title>Node16&#45;&gt;Node14</title>
<path fill="none" stroke="midnightblue" d="M592.112,-131.156C609.023,-132.907 627.028,-134.771 643.629,-136.49"/>
<polygon fill="midnightblue" stroke="midnightblue" points="643.454,-139.991 653.761,-137.539 644.175,-133.028 643.454,-139.991"/>
</g>
<!-- Node16&#45;&gt;Node15 -->
<g id="edge19" class="edge"><title>Node16&#45;&gt;Node15</title>
<path fill="none" stroke="midnightblue" d="M546.24,-133.625C578.642,-147.045 637.528,-171.434 674.188,-186.617"/>
<polygon fill="midnightblue" stroke="midnightblue" points="672.87,-189.86 683.448,-190.453 675.549,-183.393 672.87,-189.86"/>
</g>
<!-- Node18 -->
<g id="node18" class="node"><title>Node18</title>
<g id="a_node18"><a xlink:href="util_8cpp.html#a46fac5fba8ba905b5f9acb364f5d8c6f" target="_top" xlink:title="GetTime">
<polygon fill="white" stroke="black" points="680,-456.5 680,-475.5 735,-475.5 735,-456.5 680,-456.5"/>
<text text-anchor="middle" x="707.5" y="-463.5" font-family="Helvetica,sans-Serif" font-size="10.00">GetTime</text>
</a>
</g>
</g>
<!-- Node17&#45;&gt;Node18 -->
<g id="edge22" class="edge"><title>Node17&#45;&gt;Node18</title>
<path fill="none" stroke="midnightblue" d="M568.36,-437.393C599.689,-443.881 640.812,-452.397 670.021,-458.446"/>
<polygon fill="midnightblue" stroke="midnightblue" points="669.319,-461.874 679.821,-460.475 670.738,-455.02 669.319,-461.874"/>
</g>
<!-- Node19 -->
<g id="node19" class="node"><title>Node19</title>
<g id="a_node19"><a xlink:href="class_c_node.html#a945c993a84eaa9d6bca18284befaccbe" target="_top" xlink:title="CNode::RecordBytesSent">
<polygon fill="white" stroke="black" points="642,-418.5 642,-437.5 773,-437.5 773,-418.5 642,-418.5"/>
<text text-anchor="middle" x="707.5" y="-425.5" font-family="Helvetica,sans-Serif" font-size="10.00">CNode::RecordBytesSent</text>
</a>
</g>
</g>
<!-- Node17&#45;&gt;Node19 -->
<g id="edge23" class="edge"><title>Node17&#45;&gt;Node19</title>
<path fill="none" stroke="midnightblue" d="M568.36,-428C587.509,-428 610.316,-428 631.826,-428"/>
<polygon fill="midnightblue" stroke="midnightblue" points="631.928,-431.5 641.928,-428 631.928,-424.5 631.928,-431.5"/>
</g>
<!-- Node20 -->
<g id="node20" class="node"><title>Node20</title>
<g id="a_node20"><a xlink:href="netbase_8cpp.html#a8ddb7d8d6e5b5cfabfdeea132f556977" target="_top" xlink:title="Return readable error string for a network error code. ">
<polygon fill="white" stroke="black" points="656.5,-380.5 656.5,-399.5 758.5,-399.5 758.5,-380.5 656.5,-380.5"/>
<text text-anchor="middle" x="707.5" y="-387.5" font-family="Helvetica,sans-Serif" font-size="10.00">NetworkErrorString</text>
</a>
</g>
</g>
<!-- Node17&#45;&gt;Node20 -->
<g id="edge24" class="edge"><title>Node17&#45;&gt;Node20</title>
<path fill="none" stroke="midnightblue" d="M568.36,-418.607C593.204,-413.462 624.208,-407.041 650.545,-401.587"/>
<polygon fill="midnightblue" stroke="midnightblue" points="651.305,-405.004 660.388,-399.549 649.886,-398.15 651.305,-405.004"/>
</g>
<!-- Node21 -->
<g id="node21" class="node"><title>Node21</title>
<g id="a_node21"><a xlink:href="class_c_node.html#a63a6091a0b0fc0987d9436e1ec708423" target="_top" xlink:title="CNode::CloseSocketDisconnect">
<polygon fill="white" stroke="black" points="628,-494.5 628,-513.5 787,-513.5 787,-494.5 628,-494.5"/>
<text text-anchor="middle" x="707.5" y="-501.5" font-family="Helvetica,sans-Serif" font-size="10.00">CNode::CloseSocketDisconnect</text>
</a>
</g>
</g>
<!-- Node17&#45;&gt;Node21 -->
<g id="edge25" class="edge"><title>Node17&#45;&gt;Node21</title>
<path fill="none" stroke="midnightblue" d="M537.709,-437.592C557.496,-450.113 594.124,-471.962 628,-485 634.658,-487.562 641.769,-489.857 648.892,-491.888"/>
<polygon fill="midnightblue" stroke="midnightblue" points="648.003,-495.274 658.569,-494.496 649.824,-488.515 648.003,-495.274"/>
</g>
<!-- Node23 -->
<g id="node23" class="node"><title>Node23</title>
<g id="a_node23"><a xlink:href="class_c_block_index.html#ab843ef9b8b0a0193ec3a5c24738e484f" target="_top" xlink:title="CBlockIndex::GetBlockHash">
<polygon fill="white" stroke="black" points="274,-0.5 274,-19.5 416,-19.5 416,-0.5 274,-0.5"/>
<text text-anchor="middle" x="345" y="-7.5" font-family="Helvetica,sans-Serif" font-size="10.00">CBlockIndex::GetBlockHash</text>
</a>
</g>
</g>
<!-- Node22&#45;&gt;Node23 -->
<g id="edge28" class="edge"><title>Node22&#45;&gt;Node23</title>
<path fill="none" stroke="midnightblue" d="M232.232,-22.9883C242.229,-21.8266 252.921,-20.5841 263.583,-19.3451"/>
<polygon fill="midnightblue" stroke="midnightblue" points="264.243,-22.7921 273.772,-18.1611 263.435,-15.8389 264.243,-22.7921"/>
</g>
</g>
</svg>
