<?xml version="1.0" encoding="UTF-8" standalone="no"?>
<!DOCTYPE svg PUBLIC "-//W3C//DTD SVG 1.1//EN"
 "http://www.w3.org/Graphics/SVG/1.1/DTD/svg11.dtd">
<!-- Generated by graphviz version 2.38.0 (20140413.2041)
 -->
<!-- Title: ActivateBestChain Pages: 1 -->
<svg width="721pt" height="382pt"
 viewBox="0.00 0.00 721.00 382.00" xmlns="http://www.w3.org/2000/svg" xmlns:xlink="http://www.w3.org/1999/xlink">
<g id="graph0" class="graph" transform="scale(1 1) rotate(0) translate(4 378)">
<title>ActivateBestChain</title>
<polygon fill="white" stroke="none" points="-4,4 -4,-378 717,-378 717,4 -4,4"/>
<!-- Node1 -->
<g id="node1" class="node"><title>Node1</title>
<polygon fill="#bfbfbf" stroke="black" points="0,-180.5 0,-199.5 98,-199.5 98,-180.5 0,-180.5"/>
<text text-anchor="middle" x="49" y="-187.5" font-family="Helvetica,sans-Serif" font-size="10.00">ActivateBestChain</text>
</g>
<!-- Node2 -->
<g id="node2" class="node"><title>Node2</title>
<g id="a_node2"><a xlink:href="class_c_chain.html#a7482d06d8e8143f46326cf9c12c06daf" target="_top" xlink:title="Returns the index entry for the tip of this chain, or NULL if none. ">
<polygon fill="white" stroke="black" points="351,-354.5 351,-373.5 420,-373.5 420,-354.5 351,-354.5"/>
<text text-anchor="middle" x="385.5" y="-361.5" font-family="Helvetica,sans-Serif" font-size="10.00">CChain::Tip</text>
</a>
</g>
</g>
<!-- Node1&#45;&gt;Node2 -->
<g id="edge1" class="edge"><title>Node1&#45;&gt;Node2</title>
<path fill="none" stroke="midnightblue" d="M52.2849,-199.57C59.2408,-226.389 82.8774,-302.505 134,-336 196.627,-377.032 287.433,-375.724 340.779,-370.344"/>
<polygon fill="midnightblue" stroke="midnightblue" points="341.373,-373.799 350.929,-369.225 340.606,-366.842 341.373,-373.799"/>
</g>
<!-- Node3 -->
<g id="node3" class="node"><title>Node3</title>
<g id="a_node3"><a xlink:href="class_c_chain.html#a1ab1fe2932227af222699c64847e838b" target="_top" xlink:title="Efficiently check whether a block is present in this chain. ">
<polygon fill="white" stroke="black" points="158,-240.5 158,-259.5 253,-259.5 253,-240.5 158,-240.5"/>
<text text-anchor="middle" x="205.5" y="-247.5" font-family="Helvetica,sans-Serif" font-size="10.00">CChain::Contains</text>
</a>
</g>
</g>
<!-- Node1&#45;&gt;Node3 -->
<g id="edge2" class="edge"><title>Node1&#45;&gt;Node3</title>
<path fill="none" stroke="midnightblue" d="M67.2675,-199.64C83.955,-208.662 110.144,-222.057 134,-231 140.38,-233.392 147.189,-235.617 153.965,-237.639"/>
<polygon fill="midnightblue" stroke="midnightblue" points="153.239,-241.072 163.816,-240.454 155.162,-234.341 153.239,-241.072"/>
</g>
<!-- Node4 -->
<g id="node4" class="node"><title>Node4</title>
<g id="a_node4"><a xlink:href="class_c_chain.html#a0c4ffb8501acfb8a7e1c0f5e6322ada3" target="_top" xlink:title="Return the maximal height in the chain. ">
<polygon fill="white" stroke="black" points="343.5,-316.5 343.5,-335.5 427.5,-335.5 427.5,-316.5 343.5,-316.5"/>
<text text-anchor="middle" x="385.5" y="-323.5" font-family="Helvetica,sans-Serif" font-size="10.00">CChain::Height</text>
</a>
</g>
</g>
<!-- Node1&#45;&gt;Node4 -->
<g id="edge3" class="edge"><title>Node1&#45;&gt;Node4</title>
<path fill="none" stroke="midnightblue" d="M53.62,-199.771C62.857,-223.135 89.7461,-282.135 134,-307 195.669,-341.65 279.744,-340.022 333.081,-334.175"/>
<polygon fill="midnightblue" stroke="midnightblue" points="333.805,-337.614 343.323,-332.959 332.98,-330.663 333.805,-337.614"/>
</g>
<!-- Node5 -->
<g id="node5" class="node"><title>Node5</title>
<g id="a_node5"><a xlink:href="class_c_validation_state.html#aba47277dbc39192208515fd8cc685879" target="_top" xlink:title="CValidationState::IsInvalid">
<polygon fill="white" stroke="black" points="139,-202.5 139,-221.5 272,-221.5 272,-202.5 139,-202.5"/>
<text text-anchor="middle" x="205.5" y="-209.5" font-family="Helvetica,sans-Serif" font-size="10.00">CValidationState::IsInvalid</text>
</a>
</g>
</g>
<!-- Node1&#45;&gt;Node5 -->
<g id="edge4" class="edge"><title>Node1&#45;&gt;Node5</title>
<path fill="none" stroke="midnightblue" d="M98.0379,-196.84C107.839,-198.236 118.375,-199.736 128.872,-201.231"/>
<polygon fill="midnightblue" stroke="midnightblue" points="128.504,-204.714 138.898,-202.659 129.491,-197.784 128.504,-204.714"/>
</g>
<!-- Node6 -->
<g id="node6" class="node"><title>Node6</title>
<g id="a_node6"><a xlink:href="class_c_validation_state.html#a5b09f68e838c43ef20af29e725920a01" target="_top" xlink:title="CValidationState::Corruption\lPossible">
<polygon fill="white" stroke="black" points="134,-153 134,-183 277,-183 277,-153 134,-153"/>
<text text-anchor="start" x="142" y="-171" font-family="Helvetica,sans-Serif" font-size="10.00">CValidationState::Corruption</text>
<text text-anchor="middle" x="205.5" y="-160" font-family="Helvetica,sans-Serif" font-size="10.00">Possible</text>
</a>
</g>
</g>
<!-- Node1&#45;&gt;Node6 -->
<g id="edge5" class="edge"><title>Node1&#45;&gt;Node6</title>
<path fill="none" stroke="midnightblue" d="M98.0379,-183.16C106.276,-181.987 115.034,-180.74 123.851,-179.484"/>
<polygon fill="midnightblue" stroke="midnightblue" points="124.4,-182.941 133.806,-178.066 123.413,-176.011 124.4,-182.941"/>
</g>
<!-- Node7 -->
<g id="node7" class="node"><title>Node7</title>
<g id="a_node7"><a xlink:href="util_8cpp.html#a24f685720bf40370e5bd2a192ad50cd8" target="_top" xlink:title="Return string argument or default value. ">
<polygon fill="white" stroke="black" points="181.5,-114.5 181.5,-133.5 229.5,-133.5 229.5,-114.5 181.5,-114.5"/>
<text text-anchor="middle" x="205.5" y="-121.5" font-family="Helvetica,sans-Serif" font-size="10.00">GetArg</text>
</a>
</g>
</g>
<!-- Node1&#45;&gt;Node7 -->
<g id="edge6" class="edge"><title>Node1&#45;&gt;Node7</title>
<path fill="none" stroke="midnightblue" d="M64.9716,-180.451C81.3897,-170.306 108.766,-154.335 134,-144 145.838,-139.152 159.252,-135.027 171.179,-131.805"/>
<polygon fill="midnightblue" stroke="midnightblue" points="172.396,-135.105 181.199,-129.21 170.641,-128.328 172.396,-135.105"/>
</g>
<!-- Node8 -->
<g id="node8" class="node"><title>Node8</title>
<g id="a_node8"><a xlink:href="main_8cpp.html#a5edcd96316574fd4a7f3ae0922a5cfd6" target="_top" xlink:title="Check whether we are doing an initial block download (synchronizing from disk or network) ...">
<polygon fill="white" stroke="black" points="147,-278.5 147,-297.5 264,-297.5 264,-278.5 147,-278.5"/>
<text text-anchor="middle" x="205.5" y="-285.5" font-family="Helvetica,sans-Serif" font-size="10.00">IsInitialBlockDownload</text>
</a>
</g>
</g>
<!-- Node1&#45;&gt;Node8 -->
<g id="edge7" class="edge"><title>Node1&#45;&gt;Node8</title>
<path fill="none" stroke="midnightblue" d="M57.4599,-199.612C70.9203,-216.289 100.959,-250.562 134,-269 137.968,-271.214 142.206,-273.181 146.562,-274.926"/>
<polygon fill="midnightblue" stroke="midnightblue" points="145.632,-278.31 156.226,-278.402 148.001,-271.724 145.632,-278.31"/>
</g>
<!-- Node14 -->
<g id="node14" class="node"><title>Node14</title>
<g id="a_node14"><a xlink:href="class_c_block_index.html#ab843ef9b8b0a0193ec3a5c24738e484f" target="_top" xlink:title="CBlockIndex::GetBlockHash">
<polygon fill="white" stroke="black" points="134.5,-76.5 134.5,-95.5 276.5,-95.5 276.5,-76.5 134.5,-76.5"/>
<text text-anchor="middle" x="205.5" y="-83.5" font-family="Helvetica,sans-Serif" font-size="10.00">CBlockIndex::GetBlockHash</text>
</a>
</g>
</g>
<!-- Node1&#45;&gt;Node14 -->
<g id="edge15" class="edge"><title>Node1&#45;&gt;Node14</title>
<path fill="none" stroke="midnightblue" d="M56.6705,-180.477C69.538,-162.835 99.576,-125.044 134,-105 137.863,-102.751 142,-100.76 146.261,-99.0005"/>
<polygon fill="midnightblue" stroke="midnightblue" points="147.563,-102.251 155.732,-95.5051 145.139,-95.6841 147.563,-102.251"/>
</g>
<!-- Node15 -->
<g id="node15" class="node"><title>Node15</title>
<g id="a_node15"><a xlink:href="classbase__uint.html#ac9929c28600796a9acf75881bb750576" target="_top" xlink:title="base_uint::GetHex">
<polygon fill="white" stroke="black" points="156,-38.5 156,-57.5 255,-57.5 255,-38.5 156,-38.5"/>
<text text-anchor="middle" x="205.5" y="-45.5" font-family="Helvetica,sans-Serif" font-size="10.00">base_uint::GetHex</text>
</a>
</g>
</g>
<!-- Node1&#45;&gt;Node15 -->
<g id="edge16" class="edge"><title>Node1&#45;&gt;Node15</title>
<path fill="none" stroke="midnightblue" d="M53.8068,-180.275C63.4585,-156.926 91.1988,-97.3907 134,-67 137.764,-64.327 141.885,-62.0301 146.184,-60.0562"/>
<polygon fill="midnightblue" stroke="midnightblue" points="147.81,-63.1763 155.81,-56.2307 145.225,-56.6711 147.81,-63.1763"/>
</g>
<!-- Node16 -->
<g id="node16" class="node"><title>Node16</title>
<g id="a_node16"><a xlink:href="util_8cpp.html#adf94c00a5ac719c92a2f1bb2f8b2167f" target="_top" xlink:title="runCommand">
<polygon fill="white" stroke="black" points="167,-0.5 167,-19.5 244,-19.5 244,-0.5 167,-0.5"/>
<text text-anchor="middle" x="205.5" y="-7.5" font-family="Helvetica,sans-Serif" font-size="10.00">runCommand</text>
</a>
</g>
</g>
<!-- Node1&#45;&gt;Node16 -->
<g id="edge17" class="edge"><title>Node1&#45;&gt;Node16</title>
<path fill="none" stroke="midnightblue" d="M52.1615,-180.289C58.9234,-152.236 82.3773,-70.454 134,-29 140.678,-23.6376 148.741,-19.7822 156.994,-17.012"/>
<polygon fill="midnightblue" stroke="midnightblue" points="158.047,-20.3511 166.697,-14.2331 156.12,-13.6217 158.047,-20.3511"/>
</g>
<!-- Node8&#45;&gt;Node2 -->
<g id="edge12" class="edge"><title>Node8&#45;&gt;Node2</title>
<path fill="none" stroke="midnightblue" d="M221.832,-297.678C242.053,-310.093 279.054,-331.615 313,-345 321.863,-348.494 331.592,-351.559 340.941,-354.149"/>
<polygon fill="midnightblue" stroke="midnightblue" points="340.317,-357.604 350.879,-356.772 342.103,-350.836 340.317,-357.604"/>
</g>
<!-- Node8&#45;&gt;Node4 -->
<g id="edge8" class="edge"><title>Node8&#45;&gt;Node4</title>
<path fill="none" stroke="midnightblue" d="M251.417,-297.589C276.329,-302.907 307.407,-309.542 333.264,-315.062"/>
<polygon fill="midnightblue" stroke="midnightblue" points="332.747,-318.53 343.258,-317.195 334.209,-311.685 332.747,-318.53"/>
</g>
<!-- Node9 -->
<g id="node9" class="node"><title>Node9</title>
<g id="a_node9"><a xlink:href="namespace_checkpoints.html#ac4dc0a0ba00009be52fee3eef694c2c0" target="_top" xlink:title="Checkpoints::GetTotalBlocks\lEstimate">
<polygon fill="white" stroke="black" points="313,-267 313,-297 458,-297 458,-267 313,-267"/>
<text text-anchor="start" x="321" y="-285" font-family="Helvetica,sans-Serif" font-size="10.00">Checkpoints::GetTotalBlocks</text>
<text text-anchor="middle" x="385.5" y="-274" font-family="Helvetica,sans-Serif" font-size="10.00">Estimate</text>
</a>
</g>
</g>
<!-- Node8&#45;&gt;Node9 -->
<g id="edge9" class="edge"><title>Node8&#45;&gt;Node9</title>
<path fill="none" stroke="midnightblue" d="M264.291,-286.052C276.547,-285.639 289.706,-285.195 302.662,-284.759"/>
<polygon fill="midnightblue" stroke="midnightblue" points="303.111,-288.246 312.987,-284.411 302.875,-281.25 303.111,-288.246"/>
</g>
<!-- Node12 -->
<g id="node12" class="node"><title>Node12</title>
<g id="a_node12"><a xlink:href="util_8cpp.html#a46fac5fba8ba905b5f9acb364f5d8c6f" target="_top" xlink:title="GetTime">
<polygon fill="white" stroke="black" points="358,-228.5 358,-247.5 413,-247.5 413,-228.5 358,-228.5"/>
<text text-anchor="middle" x="385.5" y="-235.5" font-family="Helvetica,sans-Serif" font-size="10.00">GetTime</text>
</a>
</g>
</g>
<!-- Node8&#45;&gt;Node12 -->
<g id="edge13" class="edge"><title>Node8&#45;&gt;Node12</title>
<path fill="none" stroke="midnightblue" d="M242.792,-278.467C253.801,-275.509 265.913,-272.187 277,-269 293.079,-264.378 296.943,-262.698 313,-258 324.366,-254.674 336.783,-251.16 348.032,-248.02"/>
<polygon fill="midnightblue" stroke="midnightblue" points="349.274,-251.308 357.972,-245.259 347.4,-244.564 349.274,-251.308"/>
</g>
<!-- Node13 -->
<g id="node13" class="node"><title>Node13</title>
<g id="a_node13"><a xlink:href="class_c_block_index.html#ab63b774ae798f5f9e54b400ac8b5ef4b" target="_top" xlink:title="CBlockIndex::GetBlockTime">
<polygon fill="white" stroke="black" points="315,-190.5 315,-209.5 456,-209.5 456,-190.5 315,-190.5"/>
<text text-anchor="middle" x="385.5" y="-197.5" font-family="Helvetica,sans-Serif" font-size="10.00">CBlockIndex::GetBlockTime</text>
</a>
</g>
</g>
<!-- Node8&#45;&gt;Node13 -->
<g id="edge14" class="edge"><title>Node8&#45;&gt;Node13</title>
<path fill="none" stroke="midnightblue" d="M258.396,-278.452C264.978,-275.99 271.37,-272.893 277,-269 299.522,-253.425 290.45,-234.535 313,-219 315.89,-217.009 318.979,-215.226 322.189,-213.63"/>
<polygon fill="midnightblue" stroke="midnightblue" points="323.707,-216.787 331.5,-209.609 320.932,-210.361 323.707,-216.787"/>
</g>
<!-- Node10 -->
<g id="node10" class="node"><title>Node10</title>
<g id="a_node10"><a xlink:href="namespace_checkpoints.html#a63e87603e80d739b1aefa062f9bd337e" target="_top" xlink:title="Checkpoints::Checkpoints">
<polygon fill="white" stroke="black" points="494,-272.5 494,-291.5 626,-291.5 626,-272.5 494,-272.5"/>
<text text-anchor="middle" x="560" y="-279.5" font-family="Helvetica,sans-Serif" font-size="10.00">Checkpoints::Checkpoints</text>
</a>
</g>
</g>
<!-- Node9&#45;&gt;Node10 -->
<g id="edge10" class="edge"><title>Node9&#45;&gt;Node10</title>
<path fill="none" stroke="midnightblue" d="M458.157,-282C466.58,-282 475.195,-282 483.667,-282"/>
<polygon fill="midnightblue" stroke="midnightblue" points="483.908,-285.5 493.908,-282 483.908,-278.5 483.908,-285.5"/>
</g>
<!-- Node11 -->
<g id="node11" class="node"><title>Node11</title>
<g id="a_node11"><a xlink:href="chainparams_8cpp.html#ace5c5b706d71a324a417dd2db394fd4a" target="_top" xlink:title="Return the currently selected parameters. ">
<polygon fill="white" stroke="black" points="662,-272.5 662,-291.5 713,-291.5 713,-272.5 662,-272.5"/>
<text text-anchor="middle" x="687.5" y="-279.5" font-family="Helvetica,sans-Serif" font-size="10.00">Params</text>
</a>
</g>
</g>
<!-- Node10&#45;&gt;Node11 -->
<g id="edge11" class="edge"><title>Node10&#45;&gt;Node11</title>
<path fill="none" stroke="midnightblue" d="M626.323,-282C635.004,-282 643.619,-282 651.502,-282"/>
<polygon fill="midnightblue" stroke="midnightblue" points="651.736,-285.5 661.736,-282 651.736,-278.5 651.736,-285.5"/>
</g>
</g>
</svg>
