<?xml version="1.0" encoding="UTF-8" standalone="no"?>
<!DOCTYPE svg PUBLIC "-//W3C//DTD SVG 1.1//EN"
 "http://www.w3.org/Graphics/SVG/1.1/DTD/svg11.dtd">
<!-- Generated by graphviz version 2.38.0 (20140413.2041)
 -->
<!-- Title: ReadBlockFromDisk Pages: 1 -->
<svg width="917pt" height="218pt"
 viewBox="0.00 0.00 917.00 218.00" xmlns="http://www.w3.org/2000/svg" xmlns:xlink="http://www.w3.org/1999/xlink">
<g id="graph0" class="graph" transform="scale(1 1) rotate(0) translate(4 214)">
<title>ReadBlockFromDisk</title>
<polygon fill="white" stroke="none" points="-4,4 -4,-214 913,-214 913,4 -4,4"/>
<!-- Node1 -->
<g id="node1" class="node"><title>Node1</title>
<polygon fill="#bfbfbf" stroke="black" points="0,-76.5 0,-95.5 108,-95.5 108,-76.5 0,-76.5"/>
<text text-anchor="middle" x="54" y="-83.5" font-family="Helvetica,sans-Serif" font-size="10.00">ReadBlockFromDisk</text>
</g>
<!-- Node2 -->
<g id="node2" class="node"><title>Node2</title>
<g id="a_node2"><a xlink:href="main_8cpp.html#a0d81388930a4ccb6a69b9abdd1ef5097" target="_top" xlink:title="Open a block file (blk?????.dat) ">
<polygon fill="white" stroke="black" points="177,-133.5 177,-152.5 259,-152.5 259,-133.5 177,-133.5"/>
<text text-anchor="middle" x="218" y="-140.5" font-family="Helvetica,sans-Serif" font-size="10.00">OpenBlockFile</text>
</a>
</g>
</g>
<!-- Node1&#45;&gt;Node2 -->
<g id="edge1" class="edge"><title>Node1&#45;&gt;Node2</title>
<path fill="none" stroke="midnightblue" d="M82.1152,-95.5405C108.982,-104.994 150.325,-119.54 180.158,-130.037"/>
<polygon fill="midnightblue" stroke="midnightblue" points="179.202,-133.411 189.796,-133.428 181.525,-126.808 179.202,-133.411"/>
</g>
<!-- Node11 -->
<g id="node11" class="node"><title>Node11</title>
<g id="a_node11"><a xlink:href="main_8h.html#a20a76dbc6ac5b8a6e0aaef85522b1069" target="_top" xlink:title="Check whether a block hash satisfies the proof&#45;of&#45;work requirement specified by nBits. ">
<polygon fill="white" stroke="black" points="166.5,-76.5 166.5,-95.5 269.5,-95.5 269.5,-76.5 166.5,-76.5"/>
<text text-anchor="middle" x="218" y="-83.5" font-family="Helvetica,sans-Serif" font-size="10.00">CheckProofOfWork</text>
</a>
</g>
</g>
<!-- Node1&#45;&gt;Node11 -->
<g id="edge10" class="edge"><title>Node1&#45;&gt;Node11</title>
<path fill="none" stroke="midnightblue" d="M108.045,-86C123.411,-86 140.307,-86 156.113,-86"/>
<polygon fill="midnightblue" stroke="midnightblue" points="156.315,-89.5001 166.315,-86 156.315,-82.5001 156.315,-89.5001"/>
</g>
<!-- Node14 -->
<g id="node14" class="node"><title>Node14</title>
<g id="a_node14"><a xlink:href="class_c_block_header.html#ace82f72f060caa4fd96759b4ff99a25e" target="_top" xlink:title="CBlockHeader::GetPoWHash">
<polygon fill="white" stroke="black" points="144,-19.5 144,-38.5 292,-38.5 292,-19.5 144,-19.5"/>
<text text-anchor="middle" x="218" y="-26.5" font-family="Helvetica,sans-Serif" font-size="10.00">CBlockHeader::GetPoWHash</text>
</a>
</g>
</g>
<!-- Node1&#45;&gt;Node14 -->
<g id="edge14" class="edge"><title>Node1&#45;&gt;Node14</title>
<path fill="none" stroke="midnightblue" d="M82.1152,-76.4595C108.982,-67.0062 150.325,-52.4598 180.158,-41.963"/>
<polygon fill="midnightblue" stroke="midnightblue" points="181.525,-45.1924 189.796,-38.5716 179.202,-38.5892 181.525,-45.1924"/>
</g>
<!-- Node3 -->
<g id="node3" class="node"><title>Node3</title>
<g id="a_node3"><a xlink:href="main_8cpp.html#ab15fc61f1d9596ad0aca703ff2c74635" target="_top" xlink:title="OpenDiskFile">
<polygon fill="white" stroke="black" points="349.5,-152.5 349.5,-171.5 426.5,-171.5 426.5,-152.5 349.5,-152.5"/>
<text text-anchor="middle" x="388" y="-159.5" font-family="Helvetica,sans-Serif" font-size="10.00">OpenDiskFile</text>
</a>
</g>
</g>
<!-- Node2&#45;&gt;Node3 -->
<g id="edge2" class="edge"><title>Node2&#45;&gt;Node3</title>
<path fill="none" stroke="midnightblue" d="M259.24,-147.551C283.3,-150.272 314.005,-153.745 339.283,-156.603"/>
<polygon fill="midnightblue" stroke="midnightblue" points="339.061,-160.101 349.391,-157.747 339.847,-153.145 339.061,-160.101"/>
</g>
<!-- Node4 -->
<g id="node4" class="node"><title>Node4</title>
<g id="a_node4"><a xlink:href="struct_c_disk_block_pos.html#a924f2805b274345afce890b27a0934d9" target="_top" xlink:title="CDiskBlockPos::IsNull">
<polygon fill="white" stroke="black" points="484,-114.5 484,-133.5 599,-133.5 599,-114.5 484,-114.5"/>
<text text-anchor="middle" x="541.5" y="-121.5" font-family="Helvetica,sans-Serif" font-size="10.00">CDiskBlockPos::IsNull</text>
</a>
</g>
</g>
<!-- Node3&#45;&gt;Node4 -->
<g id="edge3" class="edge"><title>Node3&#45;&gt;Node4</title>
<path fill="none" stroke="midnightblue" d="M426.839,-152.509C446.813,-147.499 471.526,-141.3 492.801,-135.964"/>
<polygon fill="midnightblue" stroke="midnightblue" points="493.77,-139.329 502.618,-133.502 492.067,-132.54 493.77,-139.329"/>
</g>
<!-- Node5 -->
<g id="node5" class="node"><title>Node5</title>
<g id="a_node5"><a xlink:href="util_8cpp.html#ab83866a054745d4b30a3948a1b44beba" target="_top" xlink:title="GetDataDir">
<polygon fill="white" stroke="black" points="508,-152.5 508,-171.5 575,-171.5 575,-152.5 508,-152.5"/>
<text text-anchor="middle" x="541.5" y="-159.5" font-family="Helvetica,sans-Serif" font-size="10.00">GetDataDir</text>
</a>
</g>
</g>
<!-- Node3&#45;&gt;Node5 -->
<g id="edge4" class="edge"><title>Node3&#45;&gt;Node5</title>
<path fill="none" stroke="midnightblue" d="M426.839,-162C448.327,-162 475.298,-162 497.574,-162"/>
<polygon fill="midnightblue" stroke="midnightblue" points="497.764,-165.5 507.764,-162 497.764,-158.5 497.764,-165.5"/>
</g>
<!-- Node6 -->
<g id="node6" class="node"><title>Node6</title>
<g id="a_node6"><a xlink:href="chainparams_8cpp.html#ace5c5b706d71a324a417dd2db394fd4a" target="_top" xlink:title="Return the currently selected parameters. ">
<polygon fill="white" stroke="black" points="678,-57.5 678,-76.5 729,-76.5 729,-57.5 678,-57.5"/>
<text text-anchor="middle" x="703.5" y="-64.5" font-family="Helvetica,sans-Serif" font-size="10.00">Params</text>
</a>
</g>
</g>
<!-- Node5&#45;&gt;Node6 -->
<g id="edge5" class="edge"><title>Node5&#45;&gt;Node6</title>
<path fill="none" stroke="midnightblue" d="M575.116,-154.031C583.277,-151.246 591.761,-147.624 599,-143 618.606,-130.477 616.658,-119.311 635,-105 646.66,-95.9027 660.758,-87.6091 673.048,-81.1075"/>
<polygon fill="midnightblue" stroke="midnightblue" points="674.724,-84.1811 682.023,-76.5013 671.528,-77.9533 674.724,-84.1811"/>
</g>
<!-- Node7 -->
<g id="node7" class="node"><title>Node7</title>
<g id="a_node7"><a xlink:href="class_c_chain_params.html#a90dc493ec0c0325c98c3ac06eb99862b" target="_top" xlink:title="CChainParams::NetworkID">
<polygon fill="white" stroke="black" points="635,-152.5 635,-171.5 772,-171.5 772,-152.5 635,-152.5"/>
<text text-anchor="middle" x="703.5" y="-159.5" font-family="Helvetica,sans-Serif" font-size="10.00">CChainParams::NetworkID</text>
</a>
</g>
</g>
<!-- Node5&#45;&gt;Node7 -->
<g id="edge6" class="edge"><title>Node5&#45;&gt;Node7</title>
<path fill="none" stroke="midnightblue" d="M575.264,-162C589.633,-162 607.168,-162 624.572,-162"/>
<polygon fill="midnightblue" stroke="midnightblue" points="624.78,-165.5 634.78,-162 624.78,-158.5 624.78,-165.5"/>
</g>
<!-- Node8 -->
<g id="node8" class="node"><title>Node8</title>
<g id="a_node8"><a xlink:href="util_8cpp.html#ab272995de020a3bcbf743be630e485c6" target="_top" xlink:title="GetDefaultDataDir">
<polygon fill="white" stroke="black" points="654.5,-114.5 654.5,-133.5 752.5,-133.5 752.5,-114.5 654.5,-114.5"/>
<text text-anchor="middle" x="703.5" y="-121.5" font-family="Helvetica,sans-Serif" font-size="10.00">GetDefaultDataDir</text>
</a>
</g>
</g>
<!-- Node5&#45;&gt;Node8 -->
<g id="edge7" class="edge"><title>Node5&#45;&gt;Node8</title>
<path fill="none" stroke="midnightblue" d="M575.264,-154.218C597.541,-148.928 627.43,-141.829 652.642,-135.841"/>
<polygon fill="midnightblue" stroke="midnightblue" points="653.485,-139.238 662.406,-133.522 651.868,-132.428 653.485,-139.238"/>
</g>
<!-- Node10 -->
<g id="node10" class="node"><title>Node10</title>
<g id="a_node10"><a xlink:href="class_c_chain_params.html#ad11dd170e65650ff4b12d45a32b9c774" target="_top" xlink:title="CChainParams::DataDir">
<polygon fill="white" stroke="black" points="641.5,-190.5 641.5,-209.5 765.5,-209.5 765.5,-190.5 641.5,-190.5"/>
<text text-anchor="middle" x="703.5" y="-197.5" font-family="Helvetica,sans-Serif" font-size="10.00">CChainParams::DataDir</text>
</a>
</g>
</g>
<!-- Node5&#45;&gt;Node10 -->
<g id="edge9" class="edge"><title>Node5&#45;&gt;Node10</title>
<path fill="none" stroke="midnightblue" d="M575.264,-169.782C597.541,-175.072 627.43,-182.171 652.642,-188.159"/>
<polygon fill="midnightblue" stroke="midnightblue" points="651.868,-191.572 662.406,-190.478 653.485,-184.762 651.868,-191.572"/>
</g>
<!-- Node9 -->
<g id="node9" class="node"><title>Node9</title>
<g id="a_node9"><a xlink:href="util_8cpp.html#a4458ca67cacd593b21c8e1386d192064" target="_top" xlink:title="TryCreateDirectory">
<polygon fill="white" stroke="black" points="808,-114.5 808,-133.5 909,-133.5 909,-114.5 808,-114.5"/>
<text text-anchor="middle" x="858.5" y="-121.5" font-family="Helvetica,sans-Serif" font-size="10.00">TryCreateDirectory</text>
</a>
</g>
</g>
<!-- Node8&#45;&gt;Node9 -->
<g id="edge8" class="edge"><title>Node8&#45;&gt;Node9</title>
<path fill="none" stroke="midnightblue" d="M752.91,-124C767.137,-124 782.868,-124 797.716,-124"/>
<polygon fill="midnightblue" stroke="midnightblue" points="797.825,-127.5 807.825,-124 797.825,-120.5 797.825,-127.5"/>
</g>
<!-- Node11&#45;&gt;Node6 -->
<g id="edge12" class="edge"><title>Node11&#45;&gt;Node6</title>
<path fill="none" stroke="midnightblue" d="M263.32,-76.488C283.023,-72.7226 306.566,-68.8541 328,-67 452.56,-56.2251 601.297,-61.6374 667.609,-64.9983"/>
<polygon fill="midnightblue" stroke="midnightblue" points="667.73,-68.5093 677.899,-65.5374 668.096,-61.5189 667.73,-68.5093"/>
</g>
<!-- Node12 -->
<g id="node12" class="node"><title>Node12</title>
<g id="a_node12"><a xlink:href="class_c_big_num.html#a27e3ca82a40ae0c34ac4c059e4d0d66c" target="_top" xlink:title="CBigNum::SetCompact">
<polygon fill="white" stroke="black" points="328,-114.5 328,-133.5 448,-133.5 448,-114.5 328,-114.5"/>
<text text-anchor="middle" x="388" y="-121.5" font-family="Helvetica,sans-Serif" font-size="10.00">CBigNum::SetCompact</text>
</a>
</g>
</g>
<!-- Node11&#45;&gt;Node12 -->
<g id="edge11" class="edge"><title>Node11&#45;&gt;Node12</title>
<path fill="none" stroke="midnightblue" d="M261.393,-95.589C283.763,-100.649 311.398,-106.9 335.047,-112.249"/>
<polygon fill="midnightblue" stroke="midnightblue" points="334.386,-115.687 344.911,-114.48 335.93,-108.86 334.386,-115.687"/>
</g>
<!-- Node13 -->
<g id="node13" class="node"><title>Node13</title>
<g id="a_node13"><a xlink:href="class_c_big_num.html#ad17ff84ee557ca5ad4b854e14d08099f" target="_top" xlink:title="CBigNum::getuint256">
<polygon fill="white" stroke="black" points="332,-76.5 332,-95.5 444,-95.5 444,-76.5 332,-76.5"/>
<text text-anchor="middle" x="388" y="-83.5" font-family="Helvetica,sans-Serif" font-size="10.00">CBigNum::getuint256</text>
</a>
</g>
</g>
<!-- Node11&#45;&gt;Node13 -->
<g id="edge13" class="edge"><title>Node11&#45;&gt;Node13</title>
<path fill="none" stroke="midnightblue" d="M269.861,-86C286.25,-86 304.643,-86 321.911,-86"/>
<polygon fill="midnightblue" stroke="midnightblue" points="321.924,-89.5001 331.924,-86 321.924,-82.5001 321.924,-89.5001"/>
</g>
<!-- Node15 -->
<g id="node15" class="node"><title>Node15</title>
<g id="a_node15"><a xlink:href="scrypt_8cpp.html#a7cf6198bde926ddbc13d1dd80530969f" target="_top" xlink:title="scrypt_1024_1_1_256">
<polygon fill="white" stroke="black" points="330.5,-0.5 330.5,-19.5 445.5,-19.5 445.5,-0.5 330.5,-0.5"/>
<text text-anchor="middle" x="388" y="-7.5" font-family="Helvetica,sans-Serif" font-size="10.00">scrypt_1024_1_1_256</text>
</a>
</g>
</g>
<!-- Node14&#45;&gt;Node15 -->
<g id="edge15" class="edge"><title>Node14&#45;&gt;Node15</title>
<path fill="none" stroke="midnightblue" d="M292.199,-20.7216C301.614,-19.6567 311.214,-18.571 320.514,-17.5193"/>
<polygon fill="midnightblue" stroke="midnightblue" points="320.922,-20.9955 330.465,-16.3938 320.135,-14.0399 320.922,-20.9955"/>
</g>
</g>
</svg>
