<?xml version="1.0" encoding="UTF-8" standalone="no"?>
<!DOCTYPE svg PUBLIC "-//W3C//DTD SVG 1.1//EN"
 "http://www.w3.org/Graphics/SVG/1.1/DTD/svg11.dtd">
<!-- Generated by graphviz version 2.38.0 (20140413.2041)
 -->
<!-- Title: GenerateAnoncoins Pages: 1 -->
<svg width="447pt" height="104pt"
 viewBox="0.00 0.00 447.00 104.00" xmlns="http://www.w3.org/2000/svg" xmlns:xlink="http://www.w3.org/1999/xlink">
<g id="graph0" class="graph" transform="scale(1 1) rotate(0) translate(4 100)">
<title>GenerateAnoncoins</title>
<polygon fill="white" stroke="none" points="-4,4 -4,-100 443,-100 443,4 -4,4"/>
<!-- Node1 -->
<g id="node1" class="node"><title>Node1</title>
<polygon fill="#bfbfbf" stroke="black" points="0,-38.5 0,-57.5 105,-57.5 105,-38.5 0,-38.5"/>
<text text-anchor="middle" x="52.5" y="-45.5" font-family="Helvetica,sans-Serif" font-size="10.00">GenerateAnoncoins</text>
</g>
<!-- Node2 -->
<g id="node2" class="node"><title>Node2</title>
<g id="a_node2"><a xlink:href="init_8h.html#ac5f038c2b480cf9ef5e19e3eba8dbaf9" target="_top" xlink:title="Shutdown">
<polygon fill="white" stroke="black" points="141,-57.5 141,-76.5 202,-76.5 202,-57.5 141,-57.5"/>
<text text-anchor="middle" x="171.5" y="-64.5" font-family="Helvetica,sans-Serif" font-size="10.00">Shutdown</text>
</a>
</g>
</g>
<!-- Node1&#45;&gt;Node2 -->
<g id="edge1" class="edge"><title>Node1&#45;&gt;Node2</title>
<path fill="none" stroke="midnightblue" d="M115.248,-58.0275C124.186,-59.4789 133.022,-60.9139 140.919,-62.1963"/>
<polygon fill="midnightblue" stroke="midnightblue" points="115.59,-54.5373 105.158,-56.389 114.468,-61.4467 115.59,-54.5373"/>
</g>
<!-- Node6 -->
<g id="node6" class="node"><title>Node6</title>
<g id="a_node6"><a xlink:href="init_8h.html#a1a4c1bfbf6ba1db77e988b89b9cadfd3" target="_top" xlink:title="Initialize anoncoin. ">
<polygon fill="white" stroke="black" points="145,-19.5 145,-38.5 198,-38.5 198,-19.5 145,-19.5"/>
<text text-anchor="middle" x="171.5" y="-26.5" font-family="Helvetica,sans-Serif" font-size="10.00">AppInit2</text>
</a>
</g>
</g>
<!-- Node1&#45;&gt;Node6 -->
<g id="edge5" class="edge"><title>Node1&#45;&gt;Node6</title>
<path fill="none" stroke="midnightblue" d="M115.167,-37.9857C125.609,-36.29 135.916,-34.6163 144.751,-33.1814"/>
<polygon fill="midnightblue" stroke="midnightblue" points="114.468,-34.5533 105.158,-39.611 115.59,-41.4627 114.468,-34.5533"/>
</g>
<!-- Node3 -->
<g id="node3" class="node"><title>Node3</title>
<g id="a_node3"><a xlink:href="anoncoind_8cpp.html#ac59316b767e6984e1285f0531275286b" target="_top" xlink:title="AppInit">
<polygon fill="white" stroke="black" points="277.5,-38.5 277.5,-57.5 325.5,-57.5 325.5,-38.5 277.5,-38.5"/>
<text text-anchor="middle" x="301.5" y="-45.5" font-family="Helvetica,sans-Serif" font-size="10.00">AppInit</text>
</a>
</g>
</g>
<!-- Node2&#45;&gt;Node3 -->
<g id="edge2" class="edge"><title>Node2&#45;&gt;Node3</title>
<path fill="none" stroke="midnightblue" d="M212.288,-61.094C233.659,-57.9217 259.255,-54.1223 277.357,-51.4353"/>
<polygon fill="midnightblue" stroke="midnightblue" points="211.565,-57.6628 202.188,-62.5933 212.593,-64.587 211.565,-57.6628"/>
</g>
<!-- Node5 -->
<g id="node5" class="node"><title>Node5</title>
<g id="a_node5"><a xlink:href="class_anoncoin_coin.html#ac33fbca9335d356d9d6102a0122f2a5b" target="_top" xlink:title="AnoncoinCoin::shutdown">
<polygon fill="white" stroke="black" points="238,-76.5 238,-95.5 365,-95.5 365,-76.5 238,-76.5"/>
<text text-anchor="middle" x="301.5" y="-83.5" font-family="Helvetica,sans-Serif" font-size="10.00">AnoncoinCoin::shutdown</text>
</a>
</g>
</g>
<!-- Node2&#45;&gt;Node5 -->
<g id="edge4" class="edge"><title>Node2&#45;&gt;Node5</title>
<path fill="none" stroke="midnightblue" d="M212.157,-72.8865C220.329,-74.0996 229.123,-75.405 237.883,-76.7052"/>
<polygon fill="midnightblue" stroke="midnightblue" points="212.593,-69.413 202.188,-71.4067 211.565,-76.3372 212.593,-69.413"/>
</g>
<!-- Node4 -->
<g id="node4" class="node"><title>Node4</title>
<g id="a_node4"><a xlink:href="anoncoind_8cpp.html#a0ddf1224851353fc92bfbff6f499fa97" target="_top" xlink:title="main">
<polygon fill="white" stroke="black" points="401,-38.5 401,-57.5 439,-57.5 439,-38.5 401,-38.5"/>
<text text-anchor="middle" x="420" y="-45.5" font-family="Helvetica,sans-Serif" font-size="10.00">main</text>
</a>
</g>
</g>
<!-- Node3&#45;&gt;Node4 -->
<g id="edge3" class="edge"><title>Node3&#45;&gt;Node4</title>
<path fill="none" stroke="midnightblue" d="M335.731,-48C356.947,-48 383.631,-48 400.99,-48"/>
<polygon fill="midnightblue" stroke="midnightblue" points="335.517,-44.5001 325.517,-48 335.517,-51.5001 335.517,-44.5001"/>
</g>
<!-- Node6&#45;&gt;Node3 -->
<g id="edge6" class="edge"><title>Node6&#45;&gt;Node3</title>
<path fill="none" stroke="midnightblue" d="M208.087,-34.2824C230.128,-37.5541 257.81,-41.6632 277.104,-44.5272"/>
<polygon fill="midnightblue" stroke="midnightblue" points="208.501,-30.8056 198.095,-32.7993 207.473,-37.7297 208.501,-30.8056"/>
</g>
<!-- Node7 -->
<g id="node7" class="node"><title>Node7</title>
<g id="a_node7"><a xlink:href="class_anoncoin_coin.html#a9510881824d283404ac43414dbb74586" target="_top" xlink:title="AnoncoinCoin::initialize">
<polygon fill="white" stroke="black" points="241.5,-0.5 241.5,-19.5 361.5,-19.5 361.5,-0.5 241.5,-0.5"/>
<text text-anchor="middle" x="301.5" y="-7.5" font-family="Helvetica,sans-Serif" font-size="10.00">AnoncoinCoin::initialize</text>
</a>
</g>
</g>
<!-- Node6&#45;&gt;Node7 -->
<g id="edge7" class="edge"><title>Node6&#45;&gt;Node7</title>
<path fill="none" stroke="midnightblue" d="M208.301,-23.6858C218.572,-22.1612 230.054,-20.4568 241.335,-18.7823"/>
<polygon fill="midnightblue" stroke="midnightblue" points="207.473,-20.2703 198.095,-25.2007 208.501,-27.1944 207.473,-20.2703"/>
</g>
</g>
</svg>
