<?xml version="1.0" encoding="UTF-8" standalone="no"?>
<!DOCTYPE svg PUBLIC "-//W3C//DTD SVG 1.1//EN"
 "http://www.w3.org/Graphics/SVG/1.1/DTD/svg11.dtd">
<!-- Generated by graphviz version 2.38.0 (20140413.2041)
 -->
<!-- Title: src/qt/moc_openuridialog.cpp Pages: 1 -->
<svg width="355pt" height="140pt"
 viewBox="0.00 0.00 354.50 140.00" xmlns="http://www.w3.org/2000/svg" xmlns:xlink="http://www.w3.org/1999/xlink">
<g id="graph0" class="graph" transform="scale(1 1) rotate(0) translate(4 136)">
<title>src/qt/moc_openuridialog.cpp</title>
<polygon fill="white" stroke="none" points="-4,4 -4,-136 350.5,-136 350.5,4 -4,4"/>
<!-- Node1 -->
<g id="node1" class="node"><title>Node1</title>
<polygon fill="#bfbfbf" stroke="black" points="94.5,-112.5 94.5,-131.5 241.5,-131.5 241.5,-112.5 94.5,-112.5"/>
<text text-anchor="middle" x="168" y="-119.5" font-family="Helvetica,sans-Serif" font-size="10.00">src/qt/moc_openuridialog.cpp</text>
</g>
<!-- Node2 -->
<g id="node2" class="node"><title>Node2</title>
<g id="a_node2"><a xlink:href="openuridialog_8h.html" target="_top" xlink:title="qt/openuridialog.h">
<polygon fill="white" stroke="black" points="0,-56.5 0,-75.5 96,-75.5 96,-56.5 0,-56.5"/>
<text text-anchor="middle" x="48" y="-63.5" font-family="Helvetica,sans-Serif" font-size="10.00">qt/openuridialog.h</text>
</a>
</g>
</g>
<!-- Node1&#45;&gt;Node2 -->
<g id="edge1" class="edge"><title>Node1&#45;&gt;Node2</title>
<path fill="none" stroke="midnightblue" d="M148.986,-112.444C129.412,-103.636 98.6924,-89.8116 76.2711,-79.722"/>
<polygon fill="midnightblue" stroke="midnightblue" points="77.4809,-76.4284 66.9254,-75.5164 74.6083,-82.8119 77.4809,-76.4284"/>
</g>
<!-- Node4 -->
<g id="node4" class="node"><title>Node4</title>
<polygon fill="white" stroke="#bfbfbf" points="114.5,-56.5 114.5,-75.5 221.5,-75.5 221.5,-56.5 114.5,-56.5"/>
<text text-anchor="middle" x="168" y="-63.5" font-family="Helvetica,sans-Serif" font-size="10.00">QtCore/qbytearray.h</text>
</g>
<!-- Node1&#45;&gt;Node4 -->
<g id="edge3" class="edge"><title>Node1&#45;&gt;Node4</title>
<path fill="none" stroke="midnightblue" d="M168,-112.083C168,-105.006 168,-94.8611 168,-85.9865"/>
<polygon fill="midnightblue" stroke="midnightblue" points="171.5,-85.751 168,-75.7511 164.5,-85.7511 171.5,-85.751"/>
</g>
<!-- Node5 -->
<g id="node5" class="node"><title>Node5</title>
<polygon fill="white" stroke="#bfbfbf" points="239.5,-56.5 239.5,-75.5 346.5,-75.5 346.5,-56.5 239.5,-56.5"/>
<text text-anchor="middle" x="293" y="-63.5" font-family="Helvetica,sans-Serif" font-size="10.00">QtCore/qmetatype.h</text>
</g>
<!-- Node1&#45;&gt;Node5 -->
<g id="edge4" class="edge"><title>Node1&#45;&gt;Node5</title>
<path fill="none" stroke="midnightblue" d="M187.807,-112.444C208.287,-103.596 240.483,-89.6875 263.865,-79.5865"/>
<polygon fill="midnightblue" stroke="midnightblue" points="265.494,-82.6953 273.286,-75.5164 262.718,-76.2692 265.494,-82.6953"/>
</g>
<!-- Node3 -->
<g id="node3" class="node"><title>Node3</title>
<polygon fill="white" stroke="#bfbfbf" points="21.5,-0.5 21.5,-19.5 74.5,-19.5 74.5,-0.5 21.5,-0.5"/>
<text text-anchor="middle" x="48" y="-7.5" font-family="Helvetica,sans-Serif" font-size="10.00">QDialog</text>
</g>
<!-- Node2&#45;&gt;Node3 -->
<g id="edge2" class="edge"><title>Node2&#45;&gt;Node3</title>
<path fill="none" stroke="midnightblue" d="M48,-56.083C48,-49.0059 48,-38.8611 48,-29.9865"/>
<polygon fill="midnightblue" stroke="midnightblue" points="51.5001,-29.751 48,-19.7511 44.5001,-29.7511 51.5001,-29.751"/>
</g>
</g>
</svg>
