<?xml version="1.0" encoding="UTF-8" standalone="no"?>
<!DOCTYPE svg PUBLIC "-//W3C//DTD SVG 1.1//EN"
 "http://www.w3.org/Graphics/SVG/1.1/DTD/svg11.dtd">
<!-- Generated by graphviz version 2.38.0 (20140413.2041)
 -->
<!-- Title: src/qt/moc_csvmodelwriter.cpp Pages: 1 -->
<svg width="362pt" height="140pt"
 viewBox="0.00 0.00 361.50 140.00" xmlns="http://www.w3.org/2000/svg" xmlns:xlink="http://www.w3.org/1999/xlink">
<g id="graph0" class="graph" transform="scale(1 1) rotate(0) translate(4 136)">
<title>src/qt/moc_csvmodelwriter.cpp</title>
<polygon fill="white" stroke="none" points="-4,4 -4,-136 357.5,-136 357.5,4 -4,4"/>
<!-- Node1 -->
<g id="node1" class="node"><title>Node1</title>
<polygon fill="#bfbfbf" stroke="black" points="98,-112.5 98,-131.5 252,-131.5 252,-112.5 98,-112.5"/>
<text text-anchor="middle" x="175" y="-119.5" font-family="Helvetica,sans-Serif" font-size="10.00">src/qt/moc_csvmodelwriter.cpp</text>
</g>
<!-- Node2 -->
<g id="node2" class="node"><title>Node2</title>
<g id="a_node2"><a xlink:href="csvmodelwriter_8h.html" target="_top" xlink:title="qt/csvmodelwriter.h">
<polygon fill="white" stroke="black" points="0.5,-56.5 0.5,-75.5 103.5,-75.5 103.5,-56.5 0.5,-56.5"/>
<text text-anchor="middle" x="52" y="-63.5" font-family="Helvetica,sans-Serif" font-size="10.00">qt/csvmodelwriter.h</text>
</a>
</g>
</g>
<!-- Node1&#45;&gt;Node2 -->
<g id="edge1" class="edge"><title>Node1&#45;&gt;Node2</title>
<path fill="none" stroke="midnightblue" d="M155.51,-112.444C135.358,-103.596 103.677,-89.6875 80.6692,-79.5865"/>
<polygon fill="midnightblue" stroke="midnightblue" points="81.962,-76.3316 71.3985,-75.5164 79.148,-82.7411 81.962,-76.3316"/>
</g>
<!-- Node5 -->
<g id="node5" class="node"><title>Node5</title>
<polygon fill="white" stroke="#bfbfbf" points="121.5,-56.5 121.5,-75.5 228.5,-75.5 228.5,-56.5 121.5,-56.5"/>
<text text-anchor="middle" x="175" y="-63.5" font-family="Helvetica,sans-Serif" font-size="10.00">QtCore/qbytearray.h</text>
</g>
<!-- Node1&#45;&gt;Node5 -->
<g id="edge4" class="edge"><title>Node1&#45;&gt;Node5</title>
<path fill="none" stroke="midnightblue" d="M175,-112.083C175,-105.006 175,-94.8611 175,-85.9865"/>
<polygon fill="midnightblue" stroke="midnightblue" points="178.5,-85.751 175,-75.7511 171.5,-85.7511 178.5,-85.751"/>
</g>
<!-- Node6 -->
<g id="node6" class="node"><title>Node6</title>
<polygon fill="white" stroke="#bfbfbf" points="246.5,-56.5 246.5,-75.5 353.5,-75.5 353.5,-56.5 246.5,-56.5"/>
<text text-anchor="middle" x="300" y="-63.5" font-family="Helvetica,sans-Serif" font-size="10.00">QtCore/qmetatype.h</text>
</g>
<!-- Node1&#45;&gt;Node6 -->
<g id="edge5" class="edge"><title>Node1&#45;&gt;Node6</title>
<path fill="none" stroke="midnightblue" d="M194.807,-112.444C215.287,-103.596 247.483,-89.6875 270.865,-79.5865"/>
<polygon fill="midnightblue" stroke="midnightblue" points="272.494,-82.6953 280.286,-75.5164 269.718,-76.2692 272.494,-82.6953"/>
</g>
<!-- Node3 -->
<g id="node3" class="node"><title>Node3</title>
<polygon fill="white" stroke="#bfbfbf" points="0,-0.5 0,-19.5 40,-19.5 40,-0.5 0,-0.5"/>
<text text-anchor="middle" x="20" y="-7.5" font-family="Helvetica,sans-Serif" font-size="10.00">QList</text>
</g>
<!-- Node2&#45;&gt;Node3 -->
<g id="edge2" class="edge"><title>Node2&#45;&gt;Node3</title>
<path fill="none" stroke="midnightblue" d="M46.7159,-56.083C42.289,-48.6127 35.8367,-37.7244 30.3821,-28.5199"/>
<polygon fill="midnightblue" stroke="midnightblue" points="33.2949,-26.5697 25.1858,-19.7511 27.2729,-30.1383 33.2949,-26.5697"/>
</g>
<!-- Node4 -->
<g id="node4" class="node"><title>Node4</title>
<polygon fill="white" stroke="#bfbfbf" points="58.5,-0.5 58.5,-19.5 111.5,-19.5 111.5,-0.5 58.5,-0.5"/>
<text text-anchor="middle" x="85" y="-7.5" font-family="Helvetica,sans-Serif" font-size="10.00">QObject</text>
</g>
<!-- Node2&#45;&gt;Node4 -->
<g id="edge3" class="edge"><title>Node2&#45;&gt;Node4</title>
<path fill="none" stroke="midnightblue" d="M57.4493,-56.083C62.0145,-48.6127 68.6684,-37.7244 74.2934,-28.5199"/>
<polygon fill="midnightblue" stroke="midnightblue" points="77.4241,-30.109 79.6521,-19.7511 71.4511,-26.4588 77.4241,-30.109"/>
</g>
</g>
</svg>
