<?xml version="1.0" encoding="UTF-8" standalone="no"?>
<!DOCTYPE svg PUBLIC "-//W3C//DTD SVG 1.1//EN"
 "http://www.w3.org/Graphics/SVG/1.1/DTD/svg11.dtd">
<!-- Generated by graphviz version 2.38.0 (20140413.2041)
 -->
<!-- Title: src/qt/moc_macdockiconhandler.cpp Pages: 1 -->
<svg width="407pt" height="140pt"
 viewBox="0.00 0.00 406.50 140.00" xmlns="http://www.w3.org/2000/svg" xmlns:xlink="http://www.w3.org/1999/xlink">
<g id="graph0" class="graph" transform="scale(1 1) rotate(0) translate(4 136)">
<title>src/qt/moc_macdockiconhandler.cpp</title>
<polygon fill="white" stroke="none" points="-4,4 -4,-136 402.5,-136 402.5,4 -4,4"/>
<!-- Node1 -->
<g id="node1" class="node"><title>Node1</title>
<polygon fill="#bfbfbf" stroke="black" points="130.5,-112.5 130.5,-131.5 309.5,-131.5 309.5,-112.5 130.5,-112.5"/>
<text text-anchor="middle" x="220" y="-119.5" font-family="Helvetica,sans-Serif" font-size="10.00">src/qt/moc_macdockiconhandler.cpp</text>
</g>
<!-- Node2 -->
<g id="node2" class="node"><title>Node2</title>
<g id="a_node2"><a xlink:href="macdockiconhandler_8h.html" target="_top" xlink:title="qt/macdockiconhandler.h">
<polygon fill="white" stroke="black" points="20,-56.5 20,-75.5 148,-75.5 148,-56.5 20,-56.5"/>
<text text-anchor="middle" x="84" y="-63.5" font-family="Helvetica,sans-Serif" font-size="10.00">qt/macdockiconhandler.h</text>
</a>
</g>
</g>
<!-- Node1&#45;&gt;Node2 -->
<g id="edge1" class="edge"><title>Node1&#45;&gt;Node2</title>
<path fill="none" stroke="midnightblue" d="M198.45,-112.444C175.969,-103.517 140.512,-89.4387 115.02,-79.3168"/>
<polygon fill="midnightblue" stroke="midnightblue" points="116.035,-75.9539 105.449,-75.5164 113.451,-82.4598 116.035,-75.9539"/>
</g>
<!-- Node5 -->
<g id="node5" class="node"><title>Node5</title>
<polygon fill="white" stroke="#bfbfbf" points="166.5,-56.5 166.5,-75.5 273.5,-75.5 273.5,-56.5 166.5,-56.5"/>
<text text-anchor="middle" x="220" y="-63.5" font-family="Helvetica,sans-Serif" font-size="10.00">QtCore/qbytearray.h</text>
</g>
<!-- Node1&#45;&gt;Node5 -->
<g id="edge4" class="edge"><title>Node1&#45;&gt;Node5</title>
<path fill="none" stroke="midnightblue" d="M220,-112.083C220,-105.006 220,-94.8611 220,-85.9865"/>
<polygon fill="midnightblue" stroke="midnightblue" points="223.5,-85.751 220,-75.7511 216.5,-85.7511 223.5,-85.751"/>
</g>
<!-- Node6 -->
<g id="node6" class="node"><title>Node6</title>
<polygon fill="white" stroke="#bfbfbf" points="291.5,-56.5 291.5,-75.5 398.5,-75.5 398.5,-56.5 291.5,-56.5"/>
<text text-anchor="middle" x="345" y="-63.5" font-family="Helvetica,sans-Serif" font-size="10.00">QtCore/qmetatype.h</text>
</g>
<!-- Node1&#45;&gt;Node6 -->
<g id="edge5" class="edge"><title>Node1&#45;&gt;Node6</title>
<path fill="none" stroke="midnightblue" d="M239.807,-112.444C260.287,-103.596 292.483,-89.6875 315.865,-79.5865"/>
<polygon fill="midnightblue" stroke="midnightblue" points="317.494,-82.6953 325.286,-75.5164 314.718,-76.2692 317.494,-82.6953"/>
</g>
<!-- Node3 -->
<g id="node3" class="node"><title>Node3</title>
<polygon fill="white" stroke="#bfbfbf" points="0,-0.5 0,-19.5 82,-19.5 82,-0.5 0,-0.5"/>
<text text-anchor="middle" x="41" y="-7.5" font-family="Helvetica,sans-Serif" font-size="10.00">QMainWindow</text>
</g>
<!-- Node2&#45;&gt;Node3 -->
<g id="edge2" class="edge"><title>Node2&#45;&gt;Node3</title>
<path fill="none" stroke="midnightblue" d="M76.8994,-56.083C70.763,-48.3768 61.7303,-37.0333 54.2608,-27.6531"/>
<polygon fill="midnightblue" stroke="midnightblue" points="56.9357,-25.3936 47.9685,-19.7511 51.4598,-29.7542 56.9357,-25.3936"/>
</g>
<!-- Node4 -->
<g id="node4" class="node"><title>Node4</title>
<polygon fill="white" stroke="#bfbfbf" points="100.5,-0.5 100.5,-19.5 153.5,-19.5 153.5,-0.5 100.5,-0.5"/>
<text text-anchor="middle" x="127" y="-7.5" font-family="Helvetica,sans-Serif" font-size="10.00">QObject</text>
</g>
<!-- Node2&#45;&gt;Node4 -->
<g id="edge3" class="edge"><title>Node2&#45;&gt;Node4</title>
<path fill="none" stroke="midnightblue" d="M91.1006,-56.083C97.237,-48.3768 106.27,-37.0333 113.739,-27.6531"/>
<polygon fill="midnightblue" stroke="midnightblue" points="116.54,-29.7542 120.032,-19.7511 111.064,-25.3936 116.54,-29.7542"/>
</g>
</g>
</svg>
