<?xml version="1.0" encoding="UTF-8" standalone="no"?>
<!DOCTYPE svg PUBLIC "-//W3C//DTD SVG 1.1//EN"
 "http://www.w3.org/Graphics/SVG/1.1/DTD/svg11.dtd">
<!-- Generated by graphviz version 2.38.0 (20140413.2041)
 -->
<!-- Title: src/qt/moc_clientmodel.cpp Pages: 1 -->
<svg width="345pt" height="140pt"
 viewBox="0.00 0.00 345.00 140.00" xmlns="http://www.w3.org/2000/svg" xmlns:xlink="http://www.w3.org/1999/xlink">
<g id="graph0" class="graph" transform="scale(1 1) rotate(0) translate(4 136)">
<title>src/qt/moc_clientmodel.cpp</title>
<polygon fill="white" stroke="none" points="-4,4 -4,-136 341,-136 341,4 -4,4"/>
<!-- Node1 -->
<g id="node1" class="node"><title>Node1</title>
<polygon fill="#bfbfbf" stroke="black" points="89.5,-112.5 89.5,-131.5 227.5,-131.5 227.5,-112.5 89.5,-112.5"/>
<text text-anchor="middle" x="158.5" y="-119.5" font-family="Helvetica,sans-Serif" font-size="10.00">src/qt/moc_clientmodel.cpp</text>
</g>
<!-- Node2 -->
<g id="node2" class="node"><title>Node2</title>
<g id="a_node2"><a xlink:href="clientmodel_8h.html" target="_top" xlink:title="qt/clientmodel.h">
<polygon fill="white" stroke="black" points="0,-56.5 0,-75.5 87,-75.5 87,-56.5 0,-56.5"/>
<text text-anchor="middle" x="43.5" y="-63.5" font-family="Helvetica,sans-Serif" font-size="10.00">qt/clientmodel.h</text>
</a>
</g>
</g>
<!-- Node1&#45;&gt;Node2 -->
<g id="edge1" class="edge"><title>Node1&#45;&gt;Node2</title>
<path fill="none" stroke="midnightblue" d="M140.278,-112.444C121.604,-103.675 92.344,-89.9355 70.8826,-79.8579"/>
<polygon fill="midnightblue" stroke="midnightblue" points="72.1763,-76.5988 61.6368,-75.5164 69.2009,-82.935 72.1763,-76.5988"/>
</g>
<!-- Node4 -->
<g id="node4" class="node"><title>Node4</title>
<polygon fill="white" stroke="#bfbfbf" points="105,-56.5 105,-75.5 212,-75.5 212,-56.5 105,-56.5"/>
<text text-anchor="middle" x="158.5" y="-63.5" font-family="Helvetica,sans-Serif" font-size="10.00">QtCore/qbytearray.h</text>
</g>
<!-- Node1&#45;&gt;Node4 -->
<g id="edge3" class="edge"><title>Node1&#45;&gt;Node4</title>
<path fill="none" stroke="midnightblue" d="M158.5,-112.083C158.5,-105.006 158.5,-94.8611 158.5,-85.9865"/>
<polygon fill="midnightblue" stroke="midnightblue" points="162,-85.751 158.5,-75.7511 155,-85.7511 162,-85.751"/>
</g>
<!-- Node5 -->
<g id="node5" class="node"><title>Node5</title>
<polygon fill="white" stroke="#bfbfbf" points="230,-56.5 230,-75.5 337,-75.5 337,-56.5 230,-56.5"/>
<text text-anchor="middle" x="283.5" y="-63.5" font-family="Helvetica,sans-Serif" font-size="10.00">QtCore/qmetatype.h</text>
</g>
<!-- Node1&#45;&gt;Node5 -->
<g id="edge4" class="edge"><title>Node1&#45;&gt;Node5</title>
<path fill="none" stroke="midnightblue" d="M178.307,-112.444C198.787,-103.596 230.983,-89.6875 254.365,-79.5865"/>
<polygon fill="midnightblue" stroke="midnightblue" points="255.994,-82.6953 263.786,-75.5164 253.218,-76.2692 255.994,-82.6953"/>
</g>
<!-- Node3 -->
<g id="node3" class="node"><title>Node3</title>
<polygon fill="white" stroke="#bfbfbf" points="17,-0.5 17,-19.5 70,-19.5 70,-0.5 17,-0.5"/>
<text text-anchor="middle" x="43.5" y="-7.5" font-family="Helvetica,sans-Serif" font-size="10.00">QObject</text>
</g>
<!-- Node2&#45;&gt;Node3 -->
<g id="edge2" class="edge"><title>Node2&#45;&gt;Node3</title>
<path fill="none" stroke="midnightblue" d="M43.5,-56.083C43.5,-49.0059 43.5,-38.8611 43.5,-29.9865"/>
<polygon fill="midnightblue" stroke="midnightblue" points="47.0001,-29.751 43.5,-19.7511 40.0001,-29.7511 47.0001,-29.751"/>
</g>
</g>
</svg>
