<?xml version="1.0" encoding="UTF-8" standalone="no"?>
<!DOCTYPE svg PUBLIC "-//W3C//DTD SVG 1.1//EN"
 "http://www.w3.org/Graphics/SVG/1.1/DTD/svg11.dtd">
<!-- Generated by graphviz version 2.38.0 (20140413.2041)
 -->
<!-- Title: src/qt/moc_anoncoinunits.cpp Pages: 1 -->
<svg width="407pt" height="140pt"
 viewBox="0.00 0.00 406.50 140.00" xmlns="http://www.w3.org/2000/svg" xmlns:xlink="http://www.w3.org/1999/xlink">
<g id="graph0" class="graph" transform="scale(1 1) rotate(0) translate(4 136)">
<title>src/qt/moc_anoncoinunits.cpp</title>
<polygon fill="white" stroke="none" points="-4,4 -4,-136 402.5,-136 402.5,4 -4,4"/>
<!-- Node1 -->
<g id="node1" class="node"><title>Node1</title>
<polygon fill="#bfbfbf" stroke="black" points="145.5,-112.5 145.5,-131.5 294.5,-131.5 294.5,-112.5 145.5,-112.5"/>
<text text-anchor="middle" x="220" y="-119.5" font-family="Helvetica,sans-Serif" font-size="10.00">src/qt/moc_anoncoinunits.cpp</text>
</g>
<!-- Node2 -->
<g id="node2" class="node"><title>Node2</title>
<g id="a_node2"><a xlink:href="anoncoinunits_8h.html" target="_top" xlink:title="qt/anoncoinunits.h">
<polygon fill="white" stroke="black" points="50,-56.5 50,-75.5 148,-75.5 148,-56.5 50,-56.5"/>
<text text-anchor="middle" x="99" y="-63.5" font-family="Helvetica,sans-Serif" font-size="10.00">qt/anoncoinunits.h</text>
</a>
</g>
</g>
<!-- Node1&#45;&gt;Node2 -->
<g id="edge1" class="edge"><title>Node1&#45;&gt;Node2</title>
<path fill="none" stroke="midnightblue" d="M200.827,-112.444C181.091,-103.636 150.115,-89.8116 127.507,-79.722"/>
<polygon fill="midnightblue" stroke="midnightblue" points="128.641,-76.3957 118.083,-75.5164 125.789,-82.788 128.641,-76.3957"/>
</g>
<!-- Node5 -->
<g id="node5" class="node"><title>Node5</title>
<polygon fill="white" stroke="#bfbfbf" points="166.5,-56.5 166.5,-75.5 273.5,-75.5 273.5,-56.5 166.5,-56.5"/>
<text text-anchor="middle" x="220" y="-63.5" font-family="Helvetica,sans-Serif" font-size="10.00">QtCore/qbytearray.h</text>
</g>
<!-- Node1&#45;&gt;Node5 -->
<g id="edge4" class="edge"><title>Node1&#45;&gt;Node5</title>
<path fill="none" stroke="midnightblue" d="M220,-112.083C220,-105.006 220,-94.8611 220,-85.9865"/>
<polygon fill="midnightblue" stroke="midnightblue" points="223.5,-85.751 220,-75.7511 216.5,-85.7511 223.5,-85.751"/>
</g>
<!-- Node6 -->
<g id="node6" class="node"><title>Node6</title>
<polygon fill="white" stroke="#bfbfbf" points="291.5,-56.5 291.5,-75.5 398.5,-75.5 398.5,-56.5 291.5,-56.5"/>
<text text-anchor="middle" x="345" y="-63.5" font-family="Helvetica,sans-Serif" font-size="10.00">QtCore/qmetatype.h</text>
</g>
<!-- Node1&#45;&gt;Node6 -->
<g id="edge5" class="edge"><title>Node1&#45;&gt;Node6</title>
<path fill="none" stroke="midnightblue" d="M239.807,-112.444C260.287,-103.596 292.483,-89.6875 315.865,-79.5865"/>
<polygon fill="midnightblue" stroke="midnightblue" points="317.494,-82.6953 325.286,-75.5164 314.718,-76.2692 317.494,-82.6953"/>
</g>
<!-- Node3 -->
<g id="node3" class="node"><title>Node3</title>
<polygon fill="white" stroke="#bfbfbf" points="0,-0.5 0,-19.5 104,-19.5 104,-0.5 0,-0.5"/>
<text text-anchor="middle" x="52" y="-7.5" font-family="Helvetica,sans-Serif" font-size="10.00">QAbstractListModel</text>
</g>
<!-- Node2&#45;&gt;Node3 -->
<g id="edge2" class="edge"><title>Node2&#45;&gt;Node3</title>
<path fill="none" stroke="midnightblue" d="M91.2389,-56.083C84.4632,-48.2982 74.4568,-36.8015 66.2449,-27.3665"/>
<polygon fill="midnightblue" stroke="midnightblue" points="68.822,-24.9963 59.6167,-19.7511 63.5419,-29.592 68.822,-24.9963"/>
</g>
<!-- Node4 -->
<g id="node4" class="node"><title>Node4</title>
<polygon fill="white" stroke="#bfbfbf" points="122,-0.5 122,-19.5 172,-19.5 172,-0.5 122,-0.5"/>
<text text-anchor="middle" x="147" y="-7.5" font-family="Helvetica,sans-Serif" font-size="10.00">QString</text>
</g>
<!-- Node2&#45;&gt;Node4 -->
<g id="edge3" class="edge"><title>Node2&#45;&gt;Node4</title>
<path fill="none" stroke="midnightblue" d="M106.926,-56.083C113.846,-48.2982 124.065,-36.8015 132.452,-27.3665"/>
<polygon fill="midnightblue" stroke="midnightblue" points="135.194,-29.5505 139.221,-19.7511 129.962,-24.8999 135.194,-29.5505"/>
</g>
</g>
</svg>
