<?xml version="1.0" encoding="UTF-8" standalone="no"?>
<!DOCTYPE svg PUBLIC "-//W3C//DTD SVG 1.1//EN"
 "http://www.w3.org/Graphics/SVG/1.1/DTD/svg11.dtd">
<!-- Generated by graphviz version 2.38.0 (20140413.2041)
 -->
<!-- Title: src/qt/moc_transactionview.cpp Pages: 1 -->
<svg width="710pt" height="196pt"
 viewBox="0.00 0.00 710.00 196.00" xmlns="http://www.w3.org/2000/svg" xmlns:xlink="http://www.w3.org/1999/xlink">
<g id="graph0" class="graph" transform="scale(1 1) rotate(0) translate(4 192)">
<title>src/qt/moc_transactionview.cpp</title>
<polygon fill="white" stroke="none" points="-4,4 -4,-192 706,-192 706,4 -4,4"/>
<!-- Node1 -->
<g id="node1" class="node"><title>Node1</title>
<polygon fill="#bfbfbf" stroke="black" points="416,-168.5 416,-187.5 572,-187.5 572,-168.5 416,-168.5"/>
<text text-anchor="middle" x="494" y="-175.5" font-family="Helvetica,sans-Serif" font-size="10.00">src/qt/moc_transactionview.cpp</text>
</g>
<!-- Node2 -->
<g id="node2" class="node"><title>Node2</title>
<g id="a_node2"><a xlink:href="transactionview_8h.html" target="_top" xlink:title="qt/transactionview.h">
<polygon fill="white" stroke="black" points="317.5,-112.5 317.5,-131.5 422.5,-131.5 422.5,-112.5 317.5,-112.5"/>
<text text-anchor="middle" x="370" y="-119.5" font-family="Helvetica,sans-Serif" font-size="10.00">qt/transactionview.h</text>
</a>
</g>
</g>
<!-- Node1&#45;&gt;Node2 -->
<g id="edge1" class="edge"><title>Node1&#45;&gt;Node2</title>
<path fill="none" stroke="midnightblue" d="M474.352,-168.444C454.035,-159.596 422.097,-145.687 398.902,-135.586"/>
<polygon fill="midnightblue" stroke="midnightblue" points="400.122,-132.3 389.556,-131.516 397.327,-138.718 400.122,-132.3"/>
</g>
<!-- Node13 -->
<g id="node13" class="node"><title>Node13</title>
<polygon fill="white" stroke="#bfbfbf" points="440.5,-112.5 440.5,-131.5 547.5,-131.5 547.5,-112.5 440.5,-112.5"/>
<text text-anchor="middle" x="494" y="-119.5" font-family="Helvetica,sans-Serif" font-size="10.00">QtCore/qbytearray.h</text>
</g>
<!-- Node1&#45;&gt;Node13 -->
<g id="edge12" class="edge"><title>Node1&#45;&gt;Node13</title>
<path fill="none" stroke="midnightblue" d="M494,-168.083C494,-161.006 494,-150.861 494,-141.986"/>
<polygon fill="midnightblue" stroke="midnightblue" points="497.5,-141.751 494,-131.751 490.5,-141.751 497.5,-141.751"/>
</g>
<!-- Node14 -->
<g id="node14" class="node"><title>Node14</title>
<polygon fill="white" stroke="#bfbfbf" points="565.5,-112.5 565.5,-131.5 672.5,-131.5 672.5,-112.5 565.5,-112.5"/>
<text text-anchor="middle" x="619" y="-119.5" font-family="Helvetica,sans-Serif" font-size="10.00">QtCore/qmetatype.h</text>
</g>
<!-- Node1&#45;&gt;Node14 -->
<g id="edge13" class="edge"><title>Node1&#45;&gt;Node14</title>
<path fill="none" stroke="midnightblue" d="M513.807,-168.444C534.287,-159.596 566.483,-145.687 589.865,-135.586"/>
<polygon fill="midnightblue" stroke="midnightblue" points="591.494,-138.695 599.286,-131.516 588.718,-132.269 591.494,-138.695"/>
</g>
<!-- Node3 -->
<g id="node3" class="node"><title>Node3</title>
<g id="a_node3"><a xlink:href="guiutil_8h.html" target="_top" xlink:title="guiutil.h">
<polygon fill="white" stroke="black" points="309.5,-56.5 309.5,-75.5 360.5,-75.5 360.5,-56.5 309.5,-56.5"/>
<text text-anchor="middle" x="335" y="-63.5" font-family="Helvetica,sans-Serif" font-size="10.00">guiutil.h</text>
</a>
</g>
</g>
<!-- Node2&#45;&gt;Node3 -->
<g id="edge2" class="edge"><title>Node2&#45;&gt;Node3</title>
<path fill="none" stroke="midnightblue" d="M364.22,-112.083C359.328,-104.534 352.173,-93.4948 346.167,-84.2298"/>
<polygon fill="midnightblue" stroke="midnightblue" points="349.048,-82.239 340.672,-75.7511 343.174,-86.0463 349.048,-82.239"/>
</g>
<!-- Node12 -->
<g id="node12" class="node"><title>Node12</title>
<polygon fill="white" stroke="#bfbfbf" points="378.5,-56.5 378.5,-75.5 433.5,-75.5 433.5,-56.5 378.5,-56.5"/>
<text text-anchor="middle" x="406" y="-63.5" font-family="Helvetica,sans-Serif" font-size="10.00">QWidget</text>
</g>
<!-- Node2&#45;&gt;Node12 -->
<g id="edge11" class="edge"><title>Node2&#45;&gt;Node12</title>
<path fill="none" stroke="midnightblue" d="M375.945,-112.083C380.977,-104.534 388.337,-93.4948 394.513,-84.2298"/>
<polygon fill="midnightblue" stroke="midnightblue" points="397.531,-86.0131 400.166,-75.7511 391.707,-82.1301 397.531,-86.0131"/>
</g>
<!-- Node4 -->
<g id="node4" class="node"><title>Node4</title>
<polygon fill="white" stroke="#bfbfbf" points="0,-0.5 0,-19.5 50,-19.5 50,-0.5 0,-0.5"/>
<text text-anchor="middle" x="25" y="-7.5" font-family="Helvetica,sans-Serif" font-size="10.00">QEvent</text>
</g>
<!-- Node3&#45;&gt;Node4 -->
<g id="edge3" class="edge"><title>Node3&#45;&gt;Node4</title>
<path fill="none" stroke="midnightblue" d="M309.351,-61.6667C262.028,-55.3358 157.638,-40.5272 60.1976,-20.0844"/>
<polygon fill="midnightblue" stroke="midnightblue" points="60.6944,-16.6119 50.1855,-17.9583 59.2403,-23.4592 60.6944,-16.6119"/>
</g>
<!-- Node5 -->
<g id="node5" class="node"><title>Node5</title>
<polygon fill="white" stroke="#bfbfbf" points="68.5,-0.5 68.5,-19.5 147.5,-19.5 147.5,-0.5 68.5,-0.5"/>
<text text-anchor="middle" x="108" y="-7.5" font-family="Helvetica,sans-Serif" font-size="10.00">QHeaderView</text>
</g>
<!-- Node3&#45;&gt;Node5 -->
<g id="edge4" class="edge"><title>Node3&#45;&gt;Node5</title>
<path fill="none" stroke="midnightblue" d="M309.401,-58.9105C271.701,-49.9422 200.662,-33.043 153.831,-21.9026"/>
<polygon fill="midnightblue" stroke="midnightblue" points="154.475,-18.4581 143.937,-19.5488 152.855,-25.2681 154.475,-18.4581"/>
</g>
<!-- Node6 -->
<g id="node6" class="node"><title>Node6</title>
<polygon fill="white" stroke="#bfbfbf" points="166,-0.5 166,-19.5 248,-19.5 248,-0.5 166,-0.5"/>
<text text-anchor="middle" x="207" y="-7.5" font-family="Helvetica,sans-Serif" font-size="10.00">QMessageBox</text>
</g>
<!-- Node3&#45;&gt;Node6 -->
<g id="edge5" class="edge"><title>Node3&#45;&gt;Node6</title>
<path fill="none" stroke="midnightblue" d="M314.718,-56.4435C293.653,-47.5566 260.483,-33.5632 236.514,-23.4514"/>
<polygon fill="midnightblue" stroke="midnightblue" points="237.761,-20.1787 227.187,-19.5164 235.04,-26.6283 237.761,-20.1787"/>
</g>
<!-- Node7 -->
<g id="node7" class="node"><title>Node7</title>
<polygon fill="white" stroke="#bfbfbf" points="266.5,-0.5 266.5,-19.5 319.5,-19.5 319.5,-0.5 266.5,-0.5"/>
<text text-anchor="middle" x="293" y="-7.5" font-family="Helvetica,sans-Serif" font-size="10.00">QObject</text>
</g>
<!-- Node3&#45;&gt;Node7 -->
<g id="edge6" class="edge"><title>Node3&#45;&gt;Node7</title>
<path fill="none" stroke="midnightblue" d="M328.065,-56.083C322.071,-48.3768 313.248,-37.0333 305.952,-27.6531"/>
<polygon fill="midnightblue" stroke="midnightblue" points="308.709,-25.4958 299.806,-19.7511 303.183,-29.7934 308.709,-25.4958"/>
</g>
<!-- Node8 -->
<g id="node8" class="node"><title>Node8</title>
<polygon fill="white" stroke="#bfbfbf" points="338,-0.5 338,-19.5 418,-19.5 418,-0.5 338,-0.5"/>
<text text-anchor="middle" x="378" y="-7.5" font-family="Helvetica,sans-Serif" font-size="10.00">QProgressBar</text>
</g>
<!-- Node3&#45;&gt;Node8 -->
<g id="edge7" class="edge"><title>Node3&#45;&gt;Node8</title>
<path fill="none" stroke="midnightblue" d="M342.101,-56.083C348.237,-48.3768 357.27,-37.0333 364.739,-27.6531"/>
<polygon fill="midnightblue" stroke="midnightblue" points="367.54,-29.7542 371.032,-19.7511 362.064,-25.3936 367.54,-29.7542"/>
</g>
<!-- Node9 -->
<g id="node9" class="node"><title>Node9</title>
<polygon fill="white" stroke="#bfbfbf" points="436,-0.5 436,-19.5 486,-19.5 486,-0.5 436,-0.5"/>
<text text-anchor="middle" x="461" y="-7.5" font-family="Helvetica,sans-Serif" font-size="10.00">QString</text>
</g>
<!-- Node3&#45;&gt;Node9 -->
<g id="edge8" class="edge"><title>Node3&#45;&gt;Node9</title>
<path fill="none" stroke="midnightblue" d="M354.965,-56.4435C375.609,-47.5961 408.063,-33.6875 431.632,-23.5865"/>
<polygon fill="midnightblue" stroke="midnightblue" points="433.316,-26.6727 441.128,-19.5164 430.558,-20.2387 433.316,-26.6727"/>
</g>
<!-- Node10 -->
<g id="node10" class="node"><title>Node10</title>
<polygon fill="white" stroke="#bfbfbf" points="504.5,-0.5 504.5,-19.5 575.5,-19.5 575.5,-0.5 504.5,-0.5"/>
<text text-anchor="middle" x="540" y="-7.5" font-family="Helvetica,sans-Serif" font-size="10.00">QTableView</text>
</g>
<!-- Node3&#45;&gt;Node10 -->
<g id="edge9" class="edge"><title>Node3&#45;&gt;Node10</title>
<path fill="none" stroke="midnightblue" d="M360.549,-58.27C394.956,-49.2067 456.625,-32.9621 497.93,-22.0818"/>
<polygon fill="midnightblue" stroke="midnightblue" points="498.927,-25.4388 507.705,-19.5069 497.144,-18.6697 498.927,-25.4388"/>
</g>
<!-- Node11 -->
<g id="node11" class="node"><title>Node11</title>
<polygon fill="white" stroke="#bfbfbf" points="594,-0.5 594,-19.5 702,-19.5 702,-0.5 594,-0.5"/>
<text text-anchor="middle" x="648" y="-7.5" font-family="Helvetica,sans-Serif" font-size="10.00">boost/filesystem.hpp</text>
</g>
<!-- Node3&#45;&gt;Node11 -->
<g id="edge10" class="edge"><title>Node3&#45;&gt;Node11</title>
<path fill="none" stroke="midnightblue" d="M360.551,-58.1428C363.723,-57.3764 366.929,-56.6419 370,-56 409.741,-47.692 514.924,-31.2238 583.911,-20.6802"/>
<polygon fill="midnightblue" stroke="midnightblue" points="584.456,-24.1375 593.814,-19.1692 583.401,-17.2176 584.456,-24.1375"/>
</g>
</g>
</svg>
