<?xml version="1.0" encoding="UTF-8" standalone="no"?>
<!DOCTYPE svg PUBLIC "-//W3C//DTD SVG 1.1//EN"
 "http://www.w3.org/Graphics/SVG/1.1/DTD/svg11.dtd">
<!-- Generated by graphviz version 2.38.0 (20140413.2041)
 -->
<!-- Title: src/qt/moc_coincontroldialog.cpp Pages: 1 -->
<svg width="615pt" height="140pt"
 viewBox="0.00 0.00 614.50 140.00" xmlns="http://www.w3.org/2000/svg" xmlns:xlink="http://www.w3.org/1999/xlink">
<g id="graph0" class="graph" transform="scale(1 1) rotate(0) translate(4 136)">
<title>src/qt/moc_coincontroldialog.cpp</title>
<polygon fill="white" stroke="none" points="-4,4 -4,-136 610.5,-136 610.5,4 -4,4"/>
<!-- Node1 -->
<g id="node1" class="node"><title>Node1</title>
<polygon fill="#bfbfbf" stroke="black" points="347,-112.5 347,-131.5 509,-131.5 509,-112.5 347,-112.5"/>
<text text-anchor="middle" x="428" y="-119.5" font-family="Helvetica,sans-Serif" font-size="10.00">src/qt/moc_coincontroldialog.cpp</text>
</g>
<!-- Node2 -->
<g id="node2" class="node"><title>Node2</title>
<g id="a_node2"><a xlink:href="coincontroldialog_8h.html" target="_top" xlink:title="qt/coincontroldialog.h">
<polygon fill="white" stroke="black" points="245.5,-56.5 245.5,-75.5 356.5,-75.5 356.5,-56.5 245.5,-56.5"/>
<text text-anchor="middle" x="301" y="-63.5" font-family="Helvetica,sans-Serif" font-size="10.00">qt/coincontroldialog.h</text>
</a>
</g>
</g>
<!-- Node1&#45;&gt;Node2 -->
<g id="edge1" class="edge"><title>Node1&#45;&gt;Node2</title>
<path fill="none" stroke="midnightblue" d="M407.876,-112.444C386.976,-103.557 354.065,-89.5632 330.284,-79.4514"/>
<polygon fill="midnightblue" stroke="midnightblue" points="331.602,-76.2085 321.029,-75.5164 328.862,-82.6504 331.602,-76.2085"/>
</g>
<!-- Node11 -->
<g id="node11" class="node"><title>Node11</title>
<polygon fill="white" stroke="#bfbfbf" points="374.5,-56.5 374.5,-75.5 481.5,-75.5 481.5,-56.5 374.5,-56.5"/>
<text text-anchor="middle" x="428" y="-63.5" font-family="Helvetica,sans-Serif" font-size="10.00">QtCore/qbytearray.h</text>
</g>
<!-- Node1&#45;&gt;Node11 -->
<g id="edge10" class="edge"><title>Node1&#45;&gt;Node11</title>
<path fill="none" stroke="midnightblue" d="M428,-112.083C428,-105.006 428,-94.8611 428,-85.9865"/>
<polygon fill="midnightblue" stroke="midnightblue" points="431.5,-85.751 428,-75.7511 424.5,-85.7511 431.5,-85.751"/>
</g>
<!-- Node12 -->
<g id="node12" class="node"><title>Node12</title>
<polygon fill="white" stroke="#bfbfbf" points="499.5,-56.5 499.5,-75.5 606.5,-75.5 606.5,-56.5 499.5,-56.5"/>
<text text-anchor="middle" x="553" y="-63.5" font-family="Helvetica,sans-Serif" font-size="10.00">QtCore/qmetatype.h</text>
</g>
<!-- Node1&#45;&gt;Node12 -->
<g id="edge11" class="edge"><title>Node1&#45;&gt;Node12</title>
<path fill="none" stroke="midnightblue" d="M447.807,-112.444C468.287,-103.596 500.483,-89.6875 523.865,-79.5865"/>
<polygon fill="midnightblue" stroke="midnightblue" points="525.494,-82.6953 533.286,-75.5164 522.718,-76.2692 525.494,-82.6953"/>
</g>
<!-- Node3 -->
<g id="node3" class="node"><title>Node3</title>
<polygon fill="white" stroke="#bfbfbf" points="0,-0.5 0,-19.5 90,-19.5 90,-0.5 0,-0.5"/>
<text text-anchor="middle" x="45" y="-7.5" font-family="Helvetica,sans-Serif" font-size="10.00">QAbstractButton</text>
</g>
<!-- Node2&#45;&gt;Node3 -->
<g id="edge2" class="edge"><title>Node2&#45;&gt;Node3</title>
<path fill="none" stroke="midnightblue" d="M260.436,-56.4435C215.684,-47.0036 143.617,-31.802 95.3046,-21.6111"/>
<polygon fill="midnightblue" stroke="midnightblue" points="95.8813,-18.1558 85.3742,-19.5164 94.4365,-25.0051 95.8813,-18.1558"/>
</g>
<!-- Node4 -->
<g id="node4" class="node"><title>Node4</title>
<polygon fill="white" stroke="#bfbfbf" points="108,-0.5 108,-19.5 160,-19.5 160,-0.5 108,-0.5"/>
<text text-anchor="middle" x="134" y="-7.5" font-family="Helvetica,sans-Serif" font-size="10.00">QAction</text>
</g>
<!-- Node2&#45;&gt;Node4 -->
<g id="edge3" class="edge"><title>Node2&#45;&gt;Node4</title>
<path fill="none" stroke="midnightblue" d="M274.538,-56.4435C246.239,-47.2928 201.195,-32.7279 169.755,-22.5614"/>
<polygon fill="midnightblue" stroke="midnightblue" points="170.655,-19.1741 160.063,-19.4275 168.501,-25.8345 170.655,-19.1741"/>
</g>
<!-- Node5 -->
<g id="node5" class="node"><title>Node5</title>
<polygon fill="white" stroke="#bfbfbf" points="178.5,-0.5 178.5,-19.5 231.5,-19.5 231.5,-0.5 178.5,-0.5"/>
<text text-anchor="middle" x="205" y="-7.5" font-family="Helvetica,sans-Serif" font-size="10.00">QDialog</text>
</g>
<!-- Node2&#45;&gt;Node5 -->
<g id="edge4" class="edge"><title>Node2&#45;&gt;Node5</title>
<path fill="none" stroke="midnightblue" d="M285.576,-56.324C270.46,-47.8215 247.185,-34.7288 229.529,-24.7975"/>
<polygon fill="midnightblue" stroke="midnightblue" points="230.817,-21.5066 220.386,-19.6545 227.386,-27.6077 230.817,-21.5066"/>
</g>
<!-- Node6 -->
<g id="node6" class="node"><title>Node6</title>
<polygon fill="white" stroke="#bfbfbf" points="250,-0.5 250,-19.5 290,-19.5 290,-0.5 250,-0.5"/>
<text text-anchor="middle" x="270" y="-7.5" font-family="Helvetica,sans-Serif" font-size="10.00">QList</text>
</g>
<!-- Node2&#45;&gt;Node6 -->
<g id="edge5" class="edge"><title>Node2&#45;&gt;Node6</title>
<path fill="none" stroke="midnightblue" d="M295.881,-56.083C291.592,-48.6127 285.342,-37.7244 280.058,-28.5199"/>
<polygon fill="midnightblue" stroke="midnightblue" points="283.038,-26.6811 275.024,-19.7511 276.967,-30.1662 283.038,-26.6811"/>
</g>
<!-- Node7 -->
<g id="node7" class="node"><title>Node7</title>
<polygon fill="white" stroke="#bfbfbf" points="308.5,-0.5 308.5,-19.5 357.5,-19.5 357.5,-0.5 308.5,-0.5"/>
<text text-anchor="middle" x="333" y="-7.5" font-family="Helvetica,sans-Serif" font-size="10.00">QMenu</text>
</g>
<!-- Node2&#45;&gt;Node7 -->
<g id="edge6" class="edge"><title>Node2&#45;&gt;Node7</title>
<path fill="none" stroke="midnightblue" d="M306.284,-56.083C310.711,-48.6127 317.163,-37.7244 322.618,-28.5199"/>
<polygon fill="midnightblue" stroke="midnightblue" points="325.727,-30.1383 327.814,-19.7511 319.705,-26.5697 325.727,-30.1383"/>
</g>
<!-- Node8 -->
<g id="node8" class="node"><title>Node8</title>
<polygon fill="white" stroke="#bfbfbf" points="375.5,-0.5 375.5,-19.5 422.5,-19.5 422.5,-0.5 375.5,-0.5"/>
<text text-anchor="middle" x="399" y="-7.5" font-family="Helvetica,sans-Serif" font-size="10.00">QPoint</text>
</g>
<!-- Node2&#45;&gt;Node8 -->
<g id="edge7" class="edge"><title>Node2&#45;&gt;Node8</title>
<path fill="none" stroke="midnightblue" d="M316.745,-56.324C332.319,-47.7428 356.377,-34.486 374.459,-24.5224"/>
<polygon fill="midnightblue" stroke="midnightblue" points="376.224,-27.546 383.294,-19.6545 372.846,-21.4152 376.224,-27.546"/>
</g>
<!-- Node9 -->
<g id="node9" class="node"><title>Node9</title>
<polygon fill="white" stroke="#bfbfbf" points="441,-0.5 441,-19.5 491,-19.5 491,-0.5 441,-0.5"/>
<text text-anchor="middle" x="466" y="-7.5" font-family="Helvetica,sans-Serif" font-size="10.00">QString</text>
</g>
<!-- Node2&#45;&gt;Node9 -->
<g id="edge8" class="edge"><title>Node2&#45;&gt;Node9</title>
<path fill="none" stroke="midnightblue" d="M327.145,-56.4435C355.269,-47.2391 400.132,-32.5568 431.219,-22.3829"/>
<polygon fill="midnightblue" stroke="midnightblue" points="432.374,-25.6876 440.789,-19.2508 430.197,-19.0349 432.374,-25.6876"/>
</g>
<!-- Node10 -->
<g id="node10" class="node"><title>Node10</title>
<polygon fill="white" stroke="#bfbfbf" points="509.5,-0.5 509.5,-19.5 604.5,-19.5 604.5,-0.5 509.5,-0.5"/>
<text text-anchor="middle" x="557" y="-7.5" font-family="Helvetica,sans-Serif" font-size="10.00">QTreeWidgetItem</text>
</g>
<!-- Node2&#45;&gt;Node10 -->
<g id="edge9" class="edge"><title>Node2&#45;&gt;Node10</title>
<path fill="none" stroke="midnightblue" d="M341.564,-56.4435C386.316,-47.0036 458.383,-31.802 506.695,-21.6111"/>
<polygon fill="midnightblue" stroke="midnightblue" points="507.564,-25.0051 516.626,-19.5164 506.119,-18.1558 507.564,-25.0051"/>
</g>
</g>
</svg>
