<?xml version="1.0" encoding="UTF-8" standalone="no"?>
<!DOCTYPE svg PUBLIC "-//W3C//DTD SVG 1.1//EN"
 "http://www.w3.org/Graphics/SVG/1.1/DTD/svg11.dtd">
<!-- Generated by graphviz version 2.38.0 (20140413.2041)
 -->
<!-- Title: src/qt/moc_macnotificationhandler.cpp Pages: 1 -->
<svg width="395pt" height="140pt"
 viewBox="0.00 0.00 394.50 140.00" xmlns="http://www.w3.org/2000/svg" xmlns:xlink="http://www.w3.org/1999/xlink">
<g id="graph0" class="graph" transform="scale(1 1) rotate(0) translate(4 136)">
<title>src/qt/moc_macnotificationhandler.cpp</title>
<polygon fill="white" stroke="none" points="-4,4 -4,-136 390.5,-136 390.5,4 -4,4"/>
<!-- Node1 -->
<g id="node1" class="node"><title>Node1</title>
<polygon fill="#bfbfbf" stroke="black" points="114.5,-112.5 114.5,-131.5 301.5,-131.5 301.5,-112.5 114.5,-112.5"/>
<text text-anchor="middle" x="208" y="-119.5" font-family="Helvetica,sans-Serif" font-size="10.00">src/qt/moc_macnotificationhandler.cpp</text>
</g>
<!-- Node2 -->
<g id="node2" class="node"><title>Node2</title>
<g id="a_node2"><a xlink:href="macnotificationhandler_8h.html" target="_top" xlink:title="qt/macnotificationhandler.h">
<polygon fill="white" stroke="black" points="0,-56.5 0,-75.5 136,-75.5 136,-56.5 0,-56.5"/>
<text text-anchor="middle" x="68" y="-63.5" font-family="Helvetica,sans-Serif" font-size="10.00">qt/macnotificationhandler.h</text>
</a>
</g>
</g>
<!-- Node1&#45;&gt;Node2 -->
<g id="edge1" class="edge"><title>Node1&#45;&gt;Node2</title>
<path fill="none" stroke="midnightblue" d="M185.817,-112.444C162.572,-103.478 125.851,-89.314 99.5848,-79.1827"/>
<polygon fill="midnightblue" stroke="midnightblue" points="100.669,-75.8497 90.0796,-75.5164 98.1501,-82.3807 100.669,-75.8497"/>
</g>
<!-- Node4 -->
<g id="node4" class="node"><title>Node4</title>
<polygon fill="white" stroke="#bfbfbf" points="154.5,-56.5 154.5,-75.5 261.5,-75.5 261.5,-56.5 154.5,-56.5"/>
<text text-anchor="middle" x="208" y="-63.5" font-family="Helvetica,sans-Serif" font-size="10.00">QtCore/qbytearray.h</text>
</g>
<!-- Node1&#45;&gt;Node4 -->
<g id="edge3" class="edge"><title>Node1&#45;&gt;Node4</title>
<path fill="none" stroke="midnightblue" d="M208,-112.083C208,-105.006 208,-94.8611 208,-85.9865"/>
<polygon fill="midnightblue" stroke="midnightblue" points="211.5,-85.751 208,-75.7511 204.5,-85.7511 211.5,-85.751"/>
</g>
<!-- Node5 -->
<g id="node5" class="node"><title>Node5</title>
<polygon fill="white" stroke="#bfbfbf" points="279.5,-56.5 279.5,-75.5 386.5,-75.5 386.5,-56.5 279.5,-56.5"/>
<text text-anchor="middle" x="333" y="-63.5" font-family="Helvetica,sans-Serif" font-size="10.00">QtCore/qmetatype.h</text>
</g>
<!-- Node1&#45;&gt;Node5 -->
<g id="edge4" class="edge"><title>Node1&#45;&gt;Node5</title>
<path fill="none" stroke="midnightblue" d="M227.807,-112.444C248.287,-103.596 280.483,-89.6875 303.865,-79.5865"/>
<polygon fill="midnightblue" stroke="midnightblue" points="305.494,-82.6953 313.286,-75.5164 302.718,-76.2692 305.494,-82.6953"/>
</g>
<!-- Node3 -->
<g id="node3" class="node"><title>Node3</title>
<polygon fill="white" stroke="#bfbfbf" points="41.5,-0.5 41.5,-19.5 94.5,-19.5 94.5,-0.5 41.5,-0.5"/>
<text text-anchor="middle" x="68" y="-7.5" font-family="Helvetica,sans-Serif" font-size="10.00">QObject</text>
</g>
<!-- Node2&#45;&gt;Node3 -->
<g id="edge2" class="edge"><title>Node2&#45;&gt;Node3</title>
<path fill="none" stroke="midnightblue" d="M68,-56.083C68,-49.0059 68,-38.8611 68,-29.9865"/>
<polygon fill="midnightblue" stroke="midnightblue" points="71.5001,-29.751 68,-19.7511 64.5001,-29.7511 71.5001,-29.751"/>
</g>
</g>
</svg>
