<?xml version="1.0" encoding="UTF-8" standalone="no"?>
<!DOCTYPE svg PUBLIC "-//W3C//DTD SVG 1.1//EN"
 "http://www.w3.org/Graphics/SVG/1.1/DTD/svg11.dtd">
<!-- Generated by graphviz version 2.38.0 (20140413.2041)
 -->
<!-- Title: src/qt/moc_addresstablemodel.cpp Pages: 1 -->
<svg width="429pt" height="140pt"
 viewBox="0.00 0.00 429.00 140.00" xmlns="http://www.w3.org/2000/svg" xmlns:xlink="http://www.w3.org/1999/xlink">
<g id="graph0" class="graph" transform="scale(1 1) rotate(0) translate(4 136)">
<title>src/qt/moc_addresstablemodel.cpp</title>
<polygon fill="white" stroke="none" points="-4,4 -4,-136 425,-136 425,4 -4,4"/>
<!-- Node1 -->
<g id="node1" class="node"><title>Node1</title>
<polygon fill="#bfbfbf" stroke="black" points="156.5,-112.5 156.5,-131.5 328.5,-131.5 328.5,-112.5 156.5,-112.5"/>
<text text-anchor="middle" x="242.5" y="-119.5" font-family="Helvetica,sans-Serif" font-size="10.00">src/qt/moc_addresstablemodel.cpp</text>
</g>
<!-- Node2 -->
<g id="node2" class="node"><title>Node2</title>
<g id="a_node2"><a xlink:href="addresstablemodel_8h.html" target="_top" xlink:title="qt/addresstablemodel.h">
<polygon fill="white" stroke="black" points="50.5,-56.5 50.5,-75.5 170.5,-75.5 170.5,-56.5 50.5,-56.5"/>
<text text-anchor="middle" x="110.5" y="-63.5" font-family="Helvetica,sans-Serif" font-size="10.00">qt/addresstablemodel.h</text>
</a>
</g>
</g>
<!-- Node1&#45;&gt;Node2 -->
<g id="edge1" class="edge"><title>Node1&#45;&gt;Node2</title>
<path fill="none" stroke="midnightblue" d="M221.584,-112.444C199.764,-103.517 165.35,-89.4387 140.608,-79.3168"/>
<polygon fill="midnightblue" stroke="midnightblue" points="141.899,-76.0634 131.318,-75.5164 139.248,-82.5422 141.899,-76.0634"/>
</g>
<!-- Node5 -->
<g id="node5" class="node"><title>Node5</title>
<polygon fill="white" stroke="#bfbfbf" points="189,-56.5 189,-75.5 296,-75.5 296,-56.5 189,-56.5"/>
<text text-anchor="middle" x="242.5" y="-63.5" font-family="Helvetica,sans-Serif" font-size="10.00">QtCore/qbytearray.h</text>
</g>
<!-- Node1&#45;&gt;Node5 -->
<g id="edge4" class="edge"><title>Node1&#45;&gt;Node5</title>
<path fill="none" stroke="midnightblue" d="M242.5,-112.083C242.5,-105.006 242.5,-94.8611 242.5,-85.9865"/>
<polygon fill="midnightblue" stroke="midnightblue" points="246,-85.751 242.5,-75.7511 239,-85.7511 246,-85.751"/>
</g>
<!-- Node6 -->
<g id="node6" class="node"><title>Node6</title>
<polygon fill="white" stroke="#bfbfbf" points="314,-56.5 314,-75.5 421,-75.5 421,-56.5 314,-56.5"/>
<text text-anchor="middle" x="367.5" y="-63.5" font-family="Helvetica,sans-Serif" font-size="10.00">QtCore/qmetatype.h</text>
</g>
<!-- Node1&#45;&gt;Node6 -->
<g id="edge5" class="edge"><title>Node1&#45;&gt;Node6</title>
<path fill="none" stroke="midnightblue" d="M262.307,-112.444C282.787,-103.596 314.983,-89.6875 338.365,-79.5865"/>
<polygon fill="midnightblue" stroke="midnightblue" points="339.994,-82.6953 347.786,-75.5164 337.218,-76.2692 339.994,-82.6953"/>
</g>
<!-- Node3 -->
<g id="node3" class="node"><title>Node3</title>
<polygon fill="white" stroke="#bfbfbf" points="0,-0.5 0,-19.5 113,-19.5 113,-0.5 0,-0.5"/>
<text text-anchor="middle" x="56.5" y="-7.5" font-family="Helvetica,sans-Serif" font-size="10.00">QAbstractTableModel</text>
</g>
<!-- Node2&#45;&gt;Node3 -->
<g id="edge2" class="edge"><title>Node2&#45;&gt;Node3</title>
<path fill="none" stroke="midnightblue" d="M101.583,-56.083C93.7195,-48.2195 82.0688,-36.5688 72.5813,-27.0813"/>
<polygon fill="midnightblue" stroke="midnightblue" points="74.7971,-24.3473 65.2511,-19.7511 69.8473,-29.2971 74.7971,-24.3473"/>
</g>
<!-- Node4 -->
<g id="node4" class="node"><title>Node4</title>
<polygon fill="white" stroke="#bfbfbf" points="131.5,-0.5 131.5,-19.5 197.5,-19.5 197.5,-0.5 131.5,-0.5"/>
<text text-anchor="middle" x="164.5" y="-7.5" font-family="Helvetica,sans-Serif" font-size="10.00">QStringList</text>
</g>
<!-- Node2&#45;&gt;Node4 -->
<g id="edge3" class="edge"><title>Node2&#45;&gt;Node4</title>
<path fill="none" stroke="midnightblue" d="M119.417,-56.083C127.28,-48.2195 138.931,-36.5688 148.419,-27.0813"/>
<polygon fill="midnightblue" stroke="midnightblue" points="151.153,-29.2971 155.749,-19.7511 146.203,-24.3473 151.153,-29.2971"/>
</g>
</g>
</svg>
