<?xml version="1.0" encoding="UTF-8" standalone="no"?>
<!DOCTYPE svg PUBLIC "-//W3C//DTD SVG 1.1//EN"
 "http://www.w3.org/Graphics/SVG/1.1/DTD/svg11.dtd">
<!-- Generated by graphviz version 2.38.0 (20140413.2041)
 -->
<!-- Title: libzerocoin::deriveIntegerGroupParams Pages: 1 -->
<svg width="532pt" height="78pt"
 viewBox="0.00 0.00 532.00 77.50" xmlns="http://www.w3.org/2000/svg" xmlns:xlink="http://www.w3.org/1999/xlink">
<g id="graph0" class="graph" transform="scale(1 1) rotate(0) translate(4 73.5)">
<title>libzerocoin::deriveIntegerGroupParams</title>
<polygon fill="white" stroke="none" points="-4,4 -4,-73.5 528,-73.5 528,4 -4,4"/>
<!-- Node1 -->
<g id="node1" class="node"><title>Node1</title>
<polygon fill="#bfbfbf" stroke="black" points="0,-22.5 0,-52.5 128,-52.5 128,-22.5 0,-22.5"/>
<text text-anchor="start" x="8" y="-40.5" font-family="Helvetica,sans-Serif" font-size="10.00">libzerocoin::deriveInteger</text>
<text text-anchor="middle" x="64" y="-29.5" font-family="Helvetica,sans-Serif" font-size="10.00">GroupParams</text>
</g>
<!-- Node2 -->
<g id="node2" class="node"><title>Node2</title>
<g id="a_node2"><a xlink:href="_benchmark_8cpp.html#a6047d42efd0ce75ebd8486a5604c31a8" target="_top" xlink:title="Test_GenerateGroupParams">
<polygon fill="white" stroke="black" points="164.5,-48 164.5,-67 309.5,-67 309.5,-48 164.5,-48"/>
<text text-anchor="middle" x="237" y="-55" font-family="Helvetica,sans-Serif" font-size="10.00">Test_GenerateGroupParams</text>
</a>
</g>
</g>
<!-- Node1&#45;&gt;Node2 -->
<g id="edge1" class="edge"><title>Node1&#45;&gt;Node2</title>
<path fill="none" stroke="midnightblue" d="M138.265,-46.069C146.934,-47.083 155.775,-48.117 164.421,-49.1282"/>
<polygon fill="midnightblue" stroke="midnightblue" points="138.527,-42.5759 128.188,-44.8904 137.714,-49.5285 138.527,-42.5759"/>
</g>
<!-- Node5 -->
<g id="node5" class="node"><title>Node5</title>
<g id="a_node5"><a xlink:href="namespacelibzerocoin.html#a79bc1bd9eb84296b37954117a6ef0631" target="_top" xlink:title="libzerocoin::CalculateParams">
<polygon fill="white" stroke="black" points="164,-9 164,-28 310,-28 310,-9 164,-9"/>
<text text-anchor="middle" x="237" y="-16" font-family="Helvetica,sans-Serif" font-size="10.00">libzerocoin::CalculateParams</text>
</a>
</g>
</g>
<!-- Node1&#45;&gt;Node5 -->
<g id="edge4" class="edge"><title>Node1&#45;&gt;Node5</title>
<path fill="none" stroke="midnightblue" d="M138.379,-29.3468C146.817,-28.4092 155.417,-27.4537 163.839,-26.5179"/>
<polygon fill="midnightblue" stroke="midnightblue" points="137.741,-25.8961 128.188,-30.4791 138.514,-32.8533 137.741,-25.8961"/>
</g>
<!-- Node3 -->
<g id="node3" class="node"><title>Node3</title>
<g id="a_node3"><a xlink:href="_benchmark_8cpp.html#a270b3d0914e20b5c58ab92bc2823c1d1" target="_top" xlink:title="Test_RunAllTests">
<polygon fill="white" stroke="black" points="350.5,-50 350.5,-69 445.5,-69 445.5,-50 350.5,-50"/>
<text text-anchor="middle" x="398" y="-57" font-family="Helvetica,sans-Serif" font-size="10.00">Test_RunAllTests</text>
</a>
</g>
</g>
<!-- Node2&#45;&gt;Node3 -->
<g id="edge2" class="edge"><title>Node2&#45;&gt;Node3</title>
<path fill="none" stroke="midnightblue" d="M319.687,-58.5275C330.224,-58.66 340.709,-58.7919 350.403,-58.9139"/>
<polygon fill="midnightblue" stroke="midnightblue" points="319.636,-55.0267 309.593,-58.4005 319.548,-62.0261 319.636,-55.0267"/>
</g>
<!-- Node4 -->
<g id="node4" class="node"><title>Node4</title>
<g id="a_node4"><a xlink:href="_benchmark_8cpp.html#a3c04138a5bfe5d72780bb7e82a18e627" target="_top" xlink:title="main">
<polygon fill="white" stroke="black" points="486,-50 486,-69 524,-69 524,-50 486,-50"/>
<text text-anchor="middle" x="505" y="-57" font-family="Helvetica,sans-Serif" font-size="10.00">main</text>
</a>
</g>
</g>
<!-- Node3&#45;&gt;Node4 -->
<g id="edge3" class="edge"><title>Node3&#45;&gt;Node4</title>
<path fill="none" stroke="midnightblue" d="M455.72,-59.5C466.651,-59.5 477.338,-59.5 485.866,-59.5"/>
<polygon fill="midnightblue" stroke="midnightblue" points="455.666,-56.0001 445.666,-59.5 455.666,-63.0001 455.666,-56.0001"/>
</g>
<!-- Node6 -->
<g id="node6" class="node"><title>Node6</title>
<g id="a_node6"><a xlink:href="classlibzerocoin_1_1_params.html#a05f71867ba477a3439e13e94890c3159" target="_top" xlink:title="Construct a set of Zerocoin parameters from a modulus &quot;N&quot;. ">
<polygon fill="white" stroke="black" points="346,-0.5 346,-30.5 450,-30.5 450,-0.5 346,-0.5"/>
<text text-anchor="start" x="354" y="-18.5" font-family="Helvetica,sans-Serif" font-size="10.00">libzerocoin::Params</text>
<text text-anchor="middle" x="398" y="-7.5" font-family="Helvetica,sans-Serif" font-size="10.00">::Params</text>
</a>
</g>
</g>
<!-- Node5&#45;&gt;Node6 -->
<g id="edge5" class="edge"><title>Node5&#45;&gt;Node6</title>
<path fill="none" stroke="midnightblue" d="M320.208,-16.9489C328.86,-16.7857 337.469,-16.6232 345.624,-16.4694"/>
<polygon fill="midnightblue" stroke="midnightblue" points="319.989,-13.4523 310.057,-17.1404 320.121,-20.4511 319.989,-13.4523"/>
</g>
</g>
</svg>
