<?xml version="1.0" encoding="UTF-8" standalone="no"?>
<!DOCTYPE svg PUBLIC "-//W3C//DTD SVG 1.1//EN"
 "http://www.w3.org/Graphics/SVG/1.1/DTD/svg11.dtd">
<!-- Generated by graphviz version 2.38.0 (20140413.2041)
 -->
<!-- Title: Checkpoints::GuessVerificationProgress Pages: 1 -->
<svg width="418pt" height="39pt"
 viewBox="0.00 0.00 418.00 39.00" xmlns="http://www.w3.org/2000/svg" xmlns:xlink="http://www.w3.org/1999/xlink">
<g id="graph0" class="graph" transform="scale(1 1) rotate(0) translate(4 35)">
<title>Checkpoints::GuessVerificationProgress</title>
<polygon fill="white" stroke="none" points="-4,4 -4,-35 414,-35 414,4 -4,4"/>
<!-- Node1 -->
<g id="node1" class="node"><title>Node1</title>
<polygon fill="#bfbfbf" stroke="black" points="0,-0.5 0,-30.5 155,-30.5 155,-0.5 0,-0.5"/>
<text text-anchor="start" x="8" y="-18.5" font-family="Helvetica,sans-Serif" font-size="10.00">Checkpoints::GuessVerification</text>
<text text-anchor="middle" x="77.5" y="-7.5" font-family="Helvetica,sans-Serif" font-size="10.00">Progress</text>
</g>
<!-- Node2 -->
<g id="node2" class="node"><title>Node2</title>
<g id="a_node2"><a xlink:href="namespace_checkpoints.html#a63e87603e80d739b1aefa062f9bd337e" target="_top" xlink:title="Checkpoints::Checkpoints">
<polygon fill="white" stroke="black" points="191,-6 191,-25 323,-25 323,-6 191,-6"/>
<text text-anchor="middle" x="257" y="-13" font-family="Helvetica,sans-Serif" font-size="10.00">Checkpoints::Checkpoints</text>
</a>
</g>
</g>
<!-- Node1&#45;&gt;Node2 -->
<g id="edge1" class="edge"><title>Node1&#45;&gt;Node2</title>
<path fill="none" stroke="midnightblue" d="M155.064,-15.5C163.536,-15.5 172.158,-15.5 180.615,-15.5"/>
<polygon fill="midnightblue" stroke="midnightblue" points="180.827,-19.0001 190.827,-15.5 180.827,-12.0001 180.827,-19.0001"/>
</g>
<!-- Node3 -->
<g id="node3" class="node"><title>Node3</title>
<g id="a_node3"><a xlink:href="chainparams_8cpp.html#ace5c5b706d71a324a417dd2db394fd4a" target="_top" xlink:title="Return the currently selected parameters. ">
<polygon fill="white" stroke="black" points="359,-6 359,-25 410,-25 410,-6 359,-6"/>
<text text-anchor="middle" x="384.5" y="-13" font-family="Helvetica,sans-Serif" font-size="10.00">Params</text>
</a>
</g>
</g>
<!-- Node2&#45;&gt;Node3 -->
<g id="edge2" class="edge"><title>Node2&#45;&gt;Node3</title>
<path fill="none" stroke="midnightblue" d="M323.323,-15.5C332.004,-15.5 340.619,-15.5 348.502,-15.5"/>
<polygon fill="midnightblue" stroke="midnightblue" points="348.736,-19.0001 358.736,-15.5 348.736,-12.0001 348.736,-19.0001"/>
</g>
</g>
</svg>
