<?xml version="1.0" encoding="UTF-8" standalone="no"?>
<!DOCTYPE svg PUBLIC "-//W3C//DTD SVG 1.1//EN"
 "http://www.w3.org/Graphics/SVG/1.1/DTD/svg11.dtd">
<!-- Generated by graphviz version 2.38.0 (20140413.2041)
 -->
<!-- Title: libzerocoin::calculateGroupModulusAndOrder Pages: 1 -->
<svg width="828pt" height="88pt"
 viewBox="0.00 0.00 828.00 88.00" xmlns="http://www.w3.org/2000/svg" xmlns:xlink="http://www.w3.org/1999/xlink">
<g id="graph0" class="graph" transform="scale(1 1) rotate(0) translate(4 84)">
<title>libzerocoin::calculateGroupModulusAndOrder</title>
<polygon fill="white" stroke="none" points="-4,4 -4,-84 824,-84 824,4 -4,4"/>
<!-- Node1 -->
<g id="node1" class="node"><title>Node1</title>
<polygon fill="#bfbfbf" stroke="black" points="0,-27.5 0,-57.5 137,-57.5 137,-27.5 0,-27.5"/>
<text text-anchor="start" x="8" y="-45.5" font-family="Helvetica,sans-Serif" font-size="10.00">libzerocoin::calculateGroup</text>
<text text-anchor="middle" x="68.5" y="-34.5" font-family="Helvetica,sans-Serif" font-size="10.00">ModulusAndOrder</text>
</g>
<!-- Node2 -->
<g id="node2" class="node"><title>Node2</title>
<g id="a_node2"><a xlink:href="namespacelibzerocoin.html#a1393d4b16af3b390446af86aea45c7ae" target="_top" xlink:title="Deterministically compute a random prime number. ">
<polygon fill="white" stroke="black" points="173,-5.5 173,-35.5 320,-35.5 320,-5.5 173,-5.5"/>
<text text-anchor="start" x="181" y="-23.5" font-family="Helvetica,sans-Serif" font-size="10.00">libzerocoin::generateRandom</text>
<text text-anchor="middle" x="246.5" y="-12.5" font-family="Helvetica,sans-Serif" font-size="10.00">Prime</text>
</a>
</g>
</g>
<!-- Node1&#45;&gt;Node2 -->
<g id="edge1" class="edge"><title>Node1&#45;&gt;Node2</title>
<path fill="none" stroke="midnightblue" d="M137.043,-34.0571C145.474,-33.0033 154.169,-31.9163 162.797,-30.8379"/>
<polygon fill="midnightblue" stroke="midnightblue" points="163.385,-34.2916 172.874,-29.5782 162.517,-27.3457 163.385,-34.2916"/>
</g>
<!-- Node3 -->
<g id="node3" class="node"><title>Node3</title>
<g id="a_node3"><a xlink:href="namespacelibzerocoin.html#a7ce8281b4f89cff21bd6ce8fc3088585" target="_top" xlink:title="libzerocoin::generateInteger\lFromSeed">
<polygon fill="white" stroke="black" points="356,-49.5 356,-79.5 496,-79.5 496,-49.5 356,-49.5"/>
<text text-anchor="start" x="364" y="-67.5" font-family="Helvetica,sans-Serif" font-size="10.00">libzerocoin::generateInteger</text>
<text text-anchor="middle" x="426" y="-56.5" font-family="Helvetica,sans-Serif" font-size="10.00">FromSeed</text>
</a>
</g>
</g>
<!-- Node1&#45;&gt;Node3 -->
<g id="edge6" class="edge"><title>Node1&#45;&gt;Node3</title>
<path fill="none" stroke="midnightblue" d="M137.204,-46.6898C196.552,-50.3626 282.885,-55.7053 345.501,-59.5802"/>
<polygon fill="midnightblue" stroke="midnightblue" points="345.532,-63.0888 355.729,-60.2132 345.965,-56.1021 345.532,-63.0888"/>
</g>
<!-- Node2&#45;&gt;Node3 -->
<g id="edge2" class="edge"><title>Node2&#45;&gt;Node3</title>
<path fill="none" stroke="midnightblue" d="M308.089,-35.5192C323.001,-39.2156 339.095,-43.2053 354.433,-47.0074"/>
<polygon fill="midnightblue" stroke="midnightblue" points="353.835,-50.4649 364.383,-49.4738 355.519,-43.6705 353.835,-50.4649"/>
</g>
<!-- Node6 -->
<g id="node6" class="node"><title>Node6</title>
<g id="a_node6"><a xlink:href="namespacelibzerocoin.html#aeda115c7208be9405f951779ec131494" target="_top" xlink:title="Determines whether a uint32_t is a prime through trial division. ">
<polygon fill="white" stroke="black" points="362.5,-0.5 362.5,-30.5 489.5,-30.5 489.5,-0.5 362.5,-0.5"/>
<text text-anchor="start" x="370.5" y="-18.5" font-family="Helvetica,sans-Serif" font-size="10.00">libzerocoin::primalityTest</text>
<text text-anchor="middle" x="426" y="-7.5" font-family="Helvetica,sans-Serif" font-size="10.00">ByTrialDivision</text>
</a>
</g>
</g>
<!-- Node2&#45;&gt;Node6 -->
<g id="edge5" class="edge"><title>Node2&#45;&gt;Node6</title>
<path fill="none" stroke="midnightblue" d="M320.208,-18.4519C330.801,-18.1535 341.709,-17.8462 352.302,-17.5478"/>
<polygon fill="midnightblue" stroke="midnightblue" points="352.443,-21.0454 362.34,-17.2651 352.246,-14.0481 352.443,-21.0454"/>
</g>
<!-- Node4 -->
<g id="node4" class="node"><title>Node4</title>
<g id="a_node4"><a xlink:href="namespacelibzerocoin.html#a2ab9735f14a3fdcdf18e0fd410a6e701" target="_top" xlink:title="libzerocoin::calculateHash">
<polygon fill="white" stroke="black" points="532,-55 532,-74 665,-74 665,-55 532,-55"/>
<text text-anchor="middle" x="598.5" y="-62" font-family="Helvetica,sans-Serif" font-size="10.00">libzerocoin::calculateHash</text>
</a>
</g>
</g>
<!-- Node3&#45;&gt;Node4 -->
<g id="edge3" class="edge"><title>Node3&#45;&gt;Node4</title>
<path fill="none" stroke="midnightblue" d="M496.349,-64.5C504.673,-64.5 513.207,-64.5 521.618,-64.5"/>
<polygon fill="midnightblue" stroke="midnightblue" points="521.794,-68.0001 531.794,-64.5 521.794,-61.0001 521.794,-68.0001"/>
</g>
<!-- Node5 -->
<g id="node5" class="node"><title>Node5</title>
<g id="a_node5"><a xlink:href="class_c_hash_writer.html#ae94a937211502eabf19477630090093a" target="_top" xlink:title="CHashWriter::GetHash">
<polygon fill="white" stroke="black" points="701,-55 701,-74 820,-74 820,-55 701,-55"/>
<text text-anchor="middle" x="760.5" y="-62" font-family="Helvetica,sans-Serif" font-size="10.00">CHashWriter::GetHash</text>
</a>
</g>
</g>
<!-- Node4&#45;&gt;Node5 -->
<g id="edge4" class="edge"><title>Node4&#45;&gt;Node5</title>
<path fill="none" stroke="midnightblue" d="M665.04,-64.5C673.507,-64.5 682.197,-64.5 690.715,-64.5"/>
<polygon fill="midnightblue" stroke="midnightblue" points="690.992,-68.0001 700.992,-64.5 690.992,-61.0001 690.992,-68.0001"/>
</g>
</g>
</svg>
