<?xml version="1.0" encoding="UTF-8" standalone="no"?>
<!DOCTYPE svg PUBLIC "-//W3C//DTD SVG 1.1//EN"
 "http://www.w3.org/Graphics/SVG/1.1/DTD/svg11.dtd">
<!-- Generated by graphviz version 2.38.0 (20140413.2041)
 -->
<!-- Title: libzerocoin::calculateGeneratorSeed Pages: 1 -->
<svg width="1308pt" height="212pt"
 viewBox="0.00 0.00 1308.00 212.00" xmlns="http://www.w3.org/2000/svg" xmlns:xlink="http://www.w3.org/1999/xlink">
<g id="graph0" class="graph" transform="scale(1 1) rotate(0) translate(4 208)">
<title>libzerocoin::calculateGeneratorSeed</title>
<polygon fill="white" stroke="none" points="-4,4 -4,-208 1304,-208 1304,4 -4,4"/>
<!-- Node1 -->
<g id="node1" class="node"><title>Node1</title>
<polygon fill="#bfbfbf" stroke="black" points="0,-130 0,-149 178,-149 178,-130 0,-130"/>
<text text-anchor="middle" x="89" y="-137" font-family="Helvetica,sans-Serif" font-size="10.00">libzerocoin::calculateGeneratorSeed</text>
</g>
<!-- Node2 -->
<g id="node2" class="node"><title>Node2</title>
<g id="a_node2"><a xlink:href="namespacelibzerocoin.html#a75a628181a2a566d229108b51bf0cf57" target="_top" xlink:title="Deterministically compute a generator for a given group. ">
<polygon fill="white" stroke="black" points="214,-124.5 214,-154.5 351,-154.5 351,-124.5 214,-124.5"/>
<text text-anchor="start" x="222" y="-142.5" font-family="Helvetica,sans-Serif" font-size="10.00">libzerocoin::calculateGroup</text>
<text text-anchor="middle" x="282.5" y="-131.5" font-family="Helvetica,sans-Serif" font-size="10.00">Generator</text>
</a>
</g>
</g>
<!-- Node1&#45;&gt;Node2 -->
<g id="edge1" class="edge"><title>Node1&#45;&gt;Node2</title>
<path fill="none" stroke="midnightblue" d="M188.309,-139.5C196.938,-139.5 205.539,-139.5 213.832,-139.5"/>
<polygon fill="midnightblue" stroke="midnightblue" points="188.183,-136 178.183,-139.5 188.183,-143 188.183,-136"/>
</g>
<!-- Node3 -->
<g id="node3" class="node"><title>Node3</title>
<g id="a_node3"><a xlink:href="namespacelibzerocoin.html#a104c1a4d313174893b0de7595bfa7baa" target="_top" xlink:title="Deterministically compute a set of group parameters using NIST procedures. ">
<polygon fill="white" stroke="black" points="396.5,-173.5 396.5,-203.5 524.5,-203.5 524.5,-173.5 396.5,-173.5"/>
<text text-anchor="start" x="404.5" y="-191.5" font-family="Helvetica,sans-Serif" font-size="10.00">libzerocoin::deriveInteger</text>
<text text-anchor="middle" x="460.5" y="-180.5" font-family="Helvetica,sans-Serif" font-size="10.00">GroupParams</text>
</a>
</g>
</g>
<!-- Node2&#45;&gt;Node3 -->
<g id="edge2" class="edge"><title>Node2&#45;&gt;Node3</title>
<path fill="none" stroke="midnightblue" d="M347.511,-157.321C366.514,-162.612 387.132,-168.352 405.437,-173.448"/>
<polygon fill="midnightblue" stroke="midnightblue" points="348.314,-153.912 337.742,-154.601 346.437,-160.655 348.314,-153.912"/>
</g>
<!-- Node9 -->
<g id="node9" class="node"><title>Node9</title>
<g id="a_node9"><a xlink:href="namespacelibzerocoin.html#abca1c7f212a8431710b4e7b9a9c5df8e" target="_top" xlink:title="Deterministically compute a set of group parameters with a specified order. ">
<polygon fill="white" stroke="black" points="396.5,-124.5 396.5,-154.5 524.5,-154.5 524.5,-124.5 396.5,-124.5"/>
<text text-anchor="start" x="404.5" y="-142.5" font-family="Helvetica,sans-Serif" font-size="10.00">libzerocoin::deriveInteger</text>
<text text-anchor="middle" x="460.5" y="-131.5" font-family="Helvetica,sans-Serif" font-size="10.00">GroupFromOrder</text>
</a>
</g>
</g>
<!-- Node2&#45;&gt;Node9 -->
<g id="edge8" class="edge"><title>Node2&#45;&gt;Node9</title>
<path fill="none" stroke="midnightblue" d="M361.296,-139.5C373.061,-139.5 385.071,-139.5 396.473,-139.5"/>
<polygon fill="midnightblue" stroke="midnightblue" points="361.043,-136 351.043,-139.5 361.043,-143 361.043,-136"/>
</g>
<!-- Node10 -->
<g id="node10" class="node"><title>Node10</title>
<g id="a_node10"><a xlink:href="namespacelibzerocoin.html#a860d36a6fac4250ebf4c5dad71602091" target="_top" xlink:title="Deterministically derives coin commitment group generators g &amp; h from a serial number (and group modu...">
<polygon fill="white" stroke="black" points="387,-65.5 387,-95.5 534,-95.5 534,-65.5 387,-65.5"/>
<text text-anchor="start" x="395" y="-83.5" font-family="Helvetica,sans-Serif" font-size="10.00">libzerocoin::deriveGenerators</text>
<text text-anchor="middle" x="460.5" y="-72.5" font-family="Helvetica,sans-Serif" font-size="10.00">FromSerialNumber</text>
</a>
</g>
</g>
<!-- Node2&#45;&gt;Node10 -->
<g id="edge10" class="edge"><title>Node2&#45;&gt;Node10</title>
<path fill="none" stroke="midnightblue" d="M337.94,-121.25C362.58,-112.99 391.35,-103.346 414.714,-95.5134"/>
<polygon fill="midnightblue" stroke="midnightblue" points="336.737,-117.962 328.368,-124.459 338.962,-124.599 336.737,-117.962"/>
</g>
<!-- Node4 -->
<g id="node4" class="node"><title>Node4</title>
<g id="a_node4"><a xlink:href="_benchmark_8cpp.html#a6047d42efd0ce75ebd8486a5604c31a8" target="_top" xlink:title="Test_GenerateGroupParams">
<polygon fill="white" stroke="black" points="950,-178 950,-197 1095,-197 1095,-178 950,-178"/>
<text text-anchor="middle" x="1022.5" y="-185" font-family="Helvetica,sans-Serif" font-size="10.00">Test_GenerateGroupParams</text>
</a>
</g>
</g>
<!-- Node3&#45;&gt;Node4 -->
<g id="edge3" class="edge"><title>Node3&#45;&gt;Node4</title>
<path fill="none" stroke="midnightblue" d="M534.876,-189.652C624.386,-190.866 780.311,-192.365 914,-190.5 925.575,-190.339 937.848,-190.079 949.803,-189.779"/>
<polygon fill="midnightblue" stroke="midnightblue" points="534.876,-186.152 524.829,-189.513 534.779,-193.151 534.876,-186.152"/>
</g>
<!-- Node7 -->
<g id="node7" class="node"><title>Node7</title>
<g id="a_node7"><a xlink:href="namespacelibzerocoin.html#a79bc1bd9eb84296b37954117a6ef0631" target="_top" xlink:title="libzerocoin::CalculateParams">
<polygon fill="white" stroke="black" points="590,-160 590,-179 736,-179 736,-160 590,-160"/>
<text text-anchor="middle" x="663" y="-167" font-family="Helvetica,sans-Serif" font-size="10.00">libzerocoin::CalculateParams</text>
</a>
</g>
</g>
<!-- Node3&#45;&gt;Node7 -->
<g id="edge6" class="edge"><title>Node3&#45;&gt;Node7</title>
<path fill="none" stroke="midnightblue" d="M534.762,-181.557C552.681,-179.859 571.842,-178.044 589.715,-176.35"/>
<polygon fill="midnightblue" stroke="midnightblue" points="534.289,-178.086 524.664,-182.514 534.95,-185.055 534.289,-178.086"/>
</g>
<!-- Node5 -->
<g id="node5" class="node"><title>Node5</title>
<g id="a_node5"><a xlink:href="_benchmark_8cpp.html#a270b3d0914e20b5c58ab92bc2823c1d1" target="_top" xlink:title="Test_RunAllTests">
<polygon fill="white" stroke="black" points="1131,-94 1131,-113 1226,-113 1226,-94 1131,-94"/>
<text text-anchor="middle" x="1178.5" y="-101" font-family="Helvetica,sans-Serif" font-size="10.00">Test_RunAllTests</text>
</a>
</g>
</g>
<!-- Node4&#45;&gt;Node5 -->
<g id="edge4" class="edge"><title>Node4&#45;&gt;Node5</title>
<path fill="none" stroke="midnightblue" d="M1050.26,-172.904C1081.78,-155.709 1133.24,-127.639 1160.04,-113.023"/>
<polygon fill="midnightblue" stroke="midnightblue" points="1048.27,-170.003 1041.17,-177.864 1051.62,-176.148 1048.27,-170.003"/>
</g>
<!-- Node6 -->
<g id="node6" class="node"><title>Node6</title>
<g id="a_node6"><a xlink:href="_benchmark_8cpp.html#a3c04138a5bfe5d72780bb7e82a18e627" target="_top" xlink:title="main">
<polygon fill="white" stroke="black" points="1262,-94 1262,-113 1300,-113 1300,-94 1262,-94"/>
<text text-anchor="middle" x="1281" y="-101" font-family="Helvetica,sans-Serif" font-size="10.00">main</text>
</a>
</g>
</g>
<!-- Node5&#45;&gt;Node6 -->
<g id="edge5" class="edge"><title>Node5&#45;&gt;Node6</title>
<path fill="none" stroke="midnightblue" d="M1236.35,-103.5C1245.64,-103.5 1254.61,-103.5 1261.99,-103.5"/>
<polygon fill="midnightblue" stroke="midnightblue" points="1236.22,-100 1226.22,-103.5 1236.22,-107 1236.22,-100"/>
</g>
<!-- Node8 -->
<g id="node8" class="node"><title>Node8</title>
<g id="a_node8"><a xlink:href="classlibzerocoin_1_1_params.html#a05f71867ba477a3439e13e94890c3159" target="_top" xlink:title="Construct a set of Zerocoin parameters from a modulus &quot;N&quot;. ">
<polygon fill="white" stroke="black" points="801,-151.5 801,-181.5 905,-181.5 905,-151.5 801,-151.5"/>
<text text-anchor="start" x="809" y="-169.5" font-family="Helvetica,sans-Serif" font-size="10.00">libzerocoin::Params</text>
<text text-anchor="middle" x="853" y="-158.5" font-family="Helvetica,sans-Serif" font-size="10.00">::Params</text>
</a>
</g>
</g>
<!-- Node7&#45;&gt;Node8 -->
<g id="edge7" class="edge"><title>Node7&#45;&gt;Node8</title>
<path fill="none" stroke="midnightblue" d="M746.344,-168.186C764.844,-167.891 783.955,-167.586 800.752,-167.318"/>
<polygon fill="midnightblue" stroke="midnightblue" points="746.091,-164.689 736.148,-168.349 746.203,-171.689 746.091,-164.689"/>
</g>
<!-- Node9&#45;&gt;Node7 -->
<g id="edge9" class="edge"><title>Node9&#45;&gt;Node7</title>
<path fill="none" stroke="midnightblue" d="M534.762,-150.462C555.644,-153.586 578.214,-156.963 598.464,-159.993"/>
<polygon fill="midnightblue" stroke="midnightblue" points="535.072,-146.969 524.664,-148.951 534.036,-153.892 535.072,-146.969"/>
</g>
<!-- Node11 -->
<g id="node11" class="node"><title>Node11</title>
<g id="a_node11"><a xlink:href="classlibzerocoin_1_1_private_coin.html#ae466bc27aabcf43feb7cc62aba6f7f1e" target="_top" xlink:title="Mint a new coin using a faster process. ">
<polygon fill="white" stroke="black" points="602,-110.5 602,-140.5 724,-140.5 724,-110.5 602,-110.5"/>
<text text-anchor="start" x="610" y="-128.5" font-family="Helvetica,sans-Serif" font-size="10.00">libzerocoin::PrivateCoin</text>
<text text-anchor="middle" x="663" y="-117.5" font-family="Helvetica,sans-Serif" font-size="10.00">::mintCoinFast</text>
</a>
</g>
</g>
<!-- Node10&#45;&gt;Node11 -->
<g id="edge11" class="edge"><title>Node10&#45;&gt;Node11</title>
<path fill="none" stroke="midnightblue" d="M538.395,-97.7582C559.395,-102.471 581.842,-107.51 601.767,-111.981"/>
<polygon fill="midnightblue" stroke="midnightblue" points="539.066,-94.3219 528.542,-95.5469 537.533,-101.152 539.066,-94.3219"/>
</g>
<!-- Node13 -->
<g id="node13" class="node"><title>Node13</title>
<g id="a_node13"><a xlink:href="classlibzerocoin_1_1_serial_number_signature_of_knowledge.html#a5b39d7ffa5f5507f2af56fe8f42ade11" target="_top" xlink:title="Creates a Signature of knowledge object that a commitment to a coin contains a coin with serial numbe...">
<polygon fill="white" stroke="black" points="570,-50 570,-91 756,-91 756,-50 570,-50"/>
<text text-anchor="start" x="578" y="-79" font-family="Helvetica,sans-Serif" font-size="10.00">libzerocoin::SerialNumber</text>
<text text-anchor="start" x="578" y="-68" font-family="Helvetica,sans-Serif" font-size="10.00">SignatureOfKnowledge::SerialNumber</text>
<text text-anchor="middle" x="663" y="-57" font-family="Helvetica,sans-Serif" font-size="10.00">SignatureOfKnowledge</text>
</a>
</g>
</g>
<!-- Node10&#45;&gt;Node13 -->
<g id="edge13" class="edge"><title>Node10&#45;&gt;Node13</title>
<path fill="none" stroke="midnightblue" d="M544.295,-76.3706C552.678,-75.9524 561.23,-75.5259 569.705,-75.1032"/>
<polygon fill="midnightblue" stroke="midnightblue" points="543.982,-72.8817 534.169,-76.8756 544.331,-79.8731 543.982,-72.8817"/>
</g>
<!-- Node14 -->
<g id="node14" class="node"><title>Node14</title>
<g id="a_node14"><a xlink:href="classlibzerocoin_1_1_serial_number_signature_of_knowledge.html#a570a8d439385cc3b18701c4a252ff104" target="_top" xlink:title="Verifies the Signature of knowledge. ">
<polygon fill="white" stroke="black" points="588,-0.5 588,-30.5 738,-30.5 738,-0.5 588,-0.5"/>
<text text-anchor="start" x="596" y="-18.5" font-family="Helvetica,sans-Serif" font-size="10.00">libzerocoin::SerialNumber</text>
<text text-anchor="middle" x="663" y="-7.5" font-family="Helvetica,sans-Serif" font-size="10.00">SignatureOfKnowledge::Verify</text>
</a>
</g>
</g>
<!-- Node10&#45;&gt;Node14 -->
<g id="edge14" class="edge"><title>Node10&#45;&gt;Node14</title>
<path fill="none" stroke="midnightblue" d="M509.395,-61.8119C528.167,-54.7592 549.969,-46.9002 570,-40.5 580.721,-37.0744 592.238,-33.7048 603.371,-30.603"/>
<polygon fill="midnightblue" stroke="midnightblue" points="507.993,-58.6002 499.88,-65.4145 510.472,-65.1466 507.993,-58.6002"/>
</g>
<!-- Node12 -->
<g id="node12" class="node"><title>Node12</title>
<g id="a_node12"><a xlink:href="classlibzerocoin_1_1_private_coin.html#a77d6031b28228d478057ffd158d970c9" target="_top" xlink:title="libzerocoin::PrivateCoin\l::PrivateCoin">
<polygon fill="white" stroke="black" points="792,-102.5 792,-132.5 914,-132.5 914,-102.5 792,-102.5"/>
<text text-anchor="start" x="800" y="-120.5" font-family="Helvetica,sans-Serif" font-size="10.00">libzerocoin::PrivateCoin</text>
<text text-anchor="middle" x="853" y="-109.5" font-family="Helvetica,sans-Serif" font-size="10.00">::PrivateCoin</text>
</a>
</g>
</g>
<!-- Node11&#45;&gt;Node12 -->
<g id="edge12" class="edge"><title>Node11&#45;&gt;Node12</title>
<path fill="none" stroke="midnightblue" d="M734.097,-122.517C753.109,-121.708 773.519,-120.84 791.924,-120.056"/>
<polygon fill="midnightblue" stroke="midnightblue" points="733.843,-119.025 724.001,-122.947 734.141,-126.018 733.843,-119.025"/>
</g>
<!-- Node15 -->
<g id="node15" class="node"><title>Node15</title>
<g id="a_node15"><a xlink:href="classlibzerocoin_1_1_coin_spend.html#a9048dabc1be9ef65aeefb41e92e2f53c" target="_top" xlink:title="libzerocoin::CoinSpend\l::Verify">
<polygon fill="white" stroke="black" points="793.5,-27.5 793.5,-57.5 912.5,-57.5 912.5,-27.5 793.5,-27.5"/>
<text text-anchor="start" x="801.5" y="-45.5" font-family="Helvetica,sans-Serif" font-size="10.00">libzerocoin::CoinSpend</text>
<text text-anchor="middle" x="853" y="-34.5" font-family="Helvetica,sans-Serif" font-size="10.00">::Verify</text>
</a>
</g>
</g>
<!-- Node14&#45;&gt;Node15 -->
<g id="edge15" class="edge"><title>Node14&#45;&gt;Node15</title>
<path fill="none" stroke="midnightblue" d="M748.034,-27.5687C763.357,-29.7694 779.038,-32.0215 793.423,-34.0874"/>
<polygon fill="midnightblue" stroke="midnightblue" points="748.429,-24.0896 738.033,-26.1324 747.434,-31.0185 748.429,-24.0896"/>
</g>
<!-- Node16 -->
<g id="node16" class="node"><title>Node16</title>
<g id="a_node16"><a xlink:href="_benchmark_8cpp.html#ad4c256613fa000fd3d3ec247021a6522" target="_top" xlink:title="Test_MintAndSpend">
<polygon fill="white" stroke="black" points="969,-94 969,-113 1076,-113 1076,-94 969,-94"/>
<text text-anchor="middle" x="1022.5" y="-101" font-family="Helvetica,sans-Serif" font-size="10.00">Test_MintAndSpend</text>
</a>
</g>
</g>
<!-- Node15&#45;&gt;Node16 -->
<g id="edge16" class="edge"><title>Node15&#45;&gt;Node16</title>
<path fill="none" stroke="midnightblue" d="M904.824,-61.009C934.626,-71.8622 971.043,-85.1246 995.181,-93.9153"/>
<polygon fill="midnightblue" stroke="midnightblue" points="905.999,-57.7119 895.405,-57.5787 903.603,-64.2894 905.999,-57.7119"/>
</g>
<!-- Node17 -->
<g id="node17" class="node"><title>Node17</title>
<g id="a_node17"><a xlink:href="_tutorial_8cpp.html#a297c1339eda300b5818bf669440b3a7d" target="_top" xlink:title="ZerocoinTutorial">
<polygon fill="white" stroke="black" points="978,-33 978,-52 1067,-52 1067,-33 978,-33"/>
<text text-anchor="middle" x="1022.5" y="-40" font-family="Helvetica,sans-Serif" font-size="10.00">ZerocoinTutorial</text>
</a>
</g>
</g>
<!-- Node15&#45;&gt;Node17 -->
<g id="edge18" class="edge"><title>Node15&#45;&gt;Node17</title>
<path fill="none" stroke="midnightblue" d="M922.82,-42.5C941.48,-42.5 961.162,-42.5 977.997,-42.5"/>
<polygon fill="midnightblue" stroke="midnightblue" points="922.583,-39.0001 912.583,-42.5 922.583,-46.0001 922.583,-39.0001"/>
</g>
<!-- Node16&#45;&gt;Node5 -->
<g id="edge17" class="edge"><title>Node16&#45;&gt;Node5</title>
<path fill="none" stroke="midnightblue" d="M1086.24,-103.5C1101.15,-103.5 1116.8,-103.5 1130.84,-103.5"/>
<polygon fill="midnightblue" stroke="midnightblue" points="1086.07,-100 1076.07,-103.5 1086.07,-107 1086.07,-100"/>
</g>
<!-- Node18 -->
<g id="node18" class="node"><title>Node18</title>
<g id="a_node18"><a xlink:href="_tutorial_8cpp.html#a3c04138a5bfe5d72780bb7e82a18e627" target="_top" xlink:title="main">
<polygon fill="white" stroke="black" points="1159.5,-33 1159.5,-52 1197.5,-52 1197.5,-33 1159.5,-33"/>
<text text-anchor="middle" x="1178.5" y="-40" font-family="Helvetica,sans-Serif" font-size="10.00">main</text>
</a>
</g>
</g>
<!-- Node17&#45;&gt;Node18 -->
<g id="edge19" class="edge"><title>Node17&#45;&gt;Node18</title>
<path fill="none" stroke="midnightblue" d="M1077.47,-42.5C1105.96,-42.5 1139.08,-42.5 1159.16,-42.5"/>
<polygon fill="midnightblue" stroke="midnightblue" points="1077.22,-39.0001 1067.22,-42.5 1077.22,-46.0001 1077.22,-39.0001"/>
</g>
</g>
</svg>
