<?xml version="1.0" encoding="UTF-8" standalone="no"?>
<!DOCTYPE svg PUBLIC "-//W3C//DTD SVG 1.1//EN"
 "http://www.w3.org/Graphics/SVG/1.1/DTD/svg11.dtd">
<!-- Generated by graphviz version 2.38.0 (20140413.2041)
 -->
<!-- Title: GUIUtil::openDebugLogfile Pages: 1 -->
<svg width="634pt" height="142pt"
 viewBox="0.00 0.00 634.00 142.00" xmlns="http://www.w3.org/2000/svg" xmlns:xlink="http://www.w3.org/1999/xlink">
<g id="graph0" class="graph" transform="scale(1 1) rotate(0) translate(4 138)">
<title>GUIUtil::openDebugLogfile</title>
<polygon fill="white" stroke="none" points="-4,4 -4,-138 630,-138 630,4 -4,4"/>
<!-- Node1 -->
<g id="node1" class="node"><title>Node1</title>
<polygon fill="#bfbfbf" stroke="black" points="0,-38.5 0,-57.5 135,-57.5 135,-38.5 0,-38.5"/>
<text text-anchor="middle" x="67.5" y="-45.5" font-family="Helvetica,sans-Serif" font-size="10.00">GUIUtil::openDebugLogfile</text>
</g>
<!-- Node2 -->
<g id="node2" class="node"><title>Node2</title>
<g id="a_node2"><a xlink:href="util_8cpp.html#ab83866a054745d4b30a3948a1b44beba" target="_top" xlink:title="GetDataDir">
<polygon fill="white" stroke="black" points="210,-57.5 210,-76.5 277,-76.5 277,-57.5 210,-57.5"/>
<text text-anchor="middle" x="243.5" y="-64.5" font-family="Helvetica,sans-Serif" font-size="10.00">GetDataDir</text>
</a>
</g>
</g>
<!-- Node1&#45;&gt;Node2 -->
<g id="edge1" class="edge"><title>Node1&#45;&gt;Node2</title>
<path fill="none" stroke="midnightblue" d="M135.275,-55.2916C156.884,-57.6512 180.256,-60.2032 199.647,-62.3206"/>
<polygon fill="midnightblue" stroke="midnightblue" points="199.362,-65.8102 209.682,-63.4165 200.122,-58.8516 199.362,-65.8102"/>
</g>
<!-- Node8 -->
<g id="node8" class="node"><title>Node8</title>
<g id="a_node8"><a xlink:href="namespace_g_u_i_util.html#a8bbd2bea6cbc55658e8496603d1fd564" target="_top" xlink:title="GUIUtil::boostPathToQString">
<polygon fill="white" stroke="black" points="171,-19.5 171,-38.5 316,-38.5 316,-19.5 171,-19.5"/>
<text text-anchor="middle" x="243.5" y="-26.5" font-family="Helvetica,sans-Serif" font-size="10.00">GUIUtil::boostPathToQString</text>
</a>
</g>
</g>
<!-- Node1&#45;&gt;Node8 -->
<g id="edge7" class="edge"><title>Node1&#45;&gt;Node8</title>
<path fill="none" stroke="midnightblue" d="M135.275,-40.7084C143.679,-39.7908 152.349,-38.844 160.948,-37.9051"/>
<polygon fill="midnightblue" stroke="midnightblue" points="161.429,-41.3735 170.99,-36.8086 160.669,-34.4148 161.429,-41.3735"/>
</g>
<!-- Node3 -->
<g id="node3" class="node"><title>Node3</title>
<g id="a_node3"><a xlink:href="chainparams_8cpp.html#ace5c5b706d71a324a417dd2db394fd4a" target="_top" xlink:title="Return the currently selected parameters. ">
<polygon fill="white" stroke="black" points="395,-114.5 395,-133.5 446,-133.5 446,-114.5 395,-114.5"/>
<text text-anchor="middle" x="420.5" y="-121.5" font-family="Helvetica,sans-Serif" font-size="10.00">Params</text>
</a>
</g>
</g>
<!-- Node2&#45;&gt;Node3 -->
<g id="edge2" class="edge"><title>Node2&#45;&gt;Node3</title>
<path fill="none" stroke="midnightblue" d="M269.971,-76.5334C291.654,-84.5211 323.697,-96.0247 352,-105 362.641,-108.374 374.319,-111.769 384.926,-114.737"/>
<polygon fill="midnightblue" stroke="midnightblue" points="384.128,-118.147 394.699,-117.436 385.992,-111.4 384.128,-118.147"/>
</g>
<!-- Node4 -->
<g id="node4" class="node"><title>Node4</title>
<g id="a_node4"><a xlink:href="class_c_chain_params.html#a90dc493ec0c0325c98c3ac06eb99862b" target="_top" xlink:title="CChainParams::NetworkID">
<polygon fill="white" stroke="black" points="352,-76.5 352,-95.5 489,-95.5 489,-76.5 352,-76.5"/>
<text text-anchor="middle" x="420.5" y="-83.5" font-family="Helvetica,sans-Serif" font-size="10.00">CChainParams::NetworkID</text>
</a>
</g>
</g>
<!-- Node2&#45;&gt;Node4 -->
<g id="edge3" class="edge"><title>Node2&#45;&gt;Node4</title>
<path fill="none" stroke="midnightblue" d="M277.006,-70.5292C295.26,-72.5111 318.884,-75.0759 341.629,-77.5454"/>
<polygon fill="midnightblue" stroke="midnightblue" points="341.329,-81.0334 351.649,-78.6333 342.085,-74.0743 341.329,-81.0334"/>
</g>
<!-- Node5 -->
<g id="node5" class="node"><title>Node5</title>
<g id="a_node5"><a xlink:href="util_8cpp.html#ab272995de020a3bcbf743be630e485c6" target="_top" xlink:title="GetDefaultDataDir">
<polygon fill="white" stroke="black" points="371.5,-38.5 371.5,-57.5 469.5,-57.5 469.5,-38.5 371.5,-38.5"/>
<text text-anchor="middle" x="420.5" y="-45.5" font-family="Helvetica,sans-Serif" font-size="10.00">GetDefaultDataDir</text>
</a>
</g>
</g>
<!-- Node2&#45;&gt;Node5 -->
<g id="edge4" class="edge"><title>Node2&#45;&gt;Node5</title>
<path fill="none" stroke="midnightblue" d="M277.006,-63.4708C300.599,-60.9092 333.163,-57.3737 361.206,-54.3291"/>
<polygon fill="midnightblue" stroke="midnightblue" points="361.744,-57.7913 371.308,-53.2323 360.988,-50.8322 361.744,-57.7913"/>
</g>
<!-- Node7 -->
<g id="node7" class="node"><title>Node7</title>
<g id="a_node7"><a xlink:href="class_c_chain_params.html#ad11dd170e65650ff4b12d45a32b9c774" target="_top" xlink:title="CChainParams::DataDir">
<polygon fill="white" stroke="black" points="358.5,-0.5 358.5,-19.5 482.5,-19.5 482.5,-0.5 358.5,-0.5"/>
<text text-anchor="middle" x="420.5" y="-7.5" font-family="Helvetica,sans-Serif" font-size="10.00">CChainParams::DataDir</text>
</a>
</g>
</g>
<!-- Node2&#45;&gt;Node7 -->
<g id="edge6" class="edge"><title>Node2&#45;&gt;Node7</title>
<path fill="none" stroke="midnightblue" d="M277.029,-60.0034C289.426,-56.9114 303.559,-52.8637 316,-48 332.85,-41.4126 335.199,-35.7106 352,-29 357.861,-26.6589 364.117,-24.4868 370.367,-22.5112"/>
<polygon fill="midnightblue" stroke="midnightblue" points="371.56,-25.8074 380.126,-19.5725 369.541,-19.1047 371.56,-25.8074"/>
</g>
<!-- Node6 -->
<g id="node6" class="node"><title>Node6</title>
<g id="a_node6"><a xlink:href="util_8cpp.html#a4458ca67cacd593b21c8e1386d192064" target="_top" xlink:title="TryCreateDirectory">
<polygon fill="white" stroke="black" points="525,-38.5 525,-57.5 626,-57.5 626,-38.5 525,-38.5"/>
<text text-anchor="middle" x="575.5" y="-45.5" font-family="Helvetica,sans-Serif" font-size="10.00">TryCreateDirectory</text>
</a>
</g>
</g>
<!-- Node5&#45;&gt;Node6 -->
<g id="edge5" class="edge"><title>Node5&#45;&gt;Node6</title>
<path fill="none" stroke="midnightblue" d="M469.91,-48C484.137,-48 499.868,-48 514.716,-48"/>
<polygon fill="midnightblue" stroke="midnightblue" points="514.825,-51.5001 524.825,-48 514.825,-44.5001 514.825,-51.5001"/>
</g>
</g>
</svg>
