<?xml version="1.0" encoding="UTF-8" standalone="no"?>
<!DOCTYPE svg PUBLIC "-//W3C//DTD SVG 1.1//EN"
 "http://www.w3.org/Graphics/SVG/1.1/DTD/svg11.dtd">
<!-- Generated by graphviz version 2.38.0 (20140413.2041)
 -->
<!-- Title: Checkpoints::GetLastCheckpoint Pages: 1 -->
<svg width="425pt" height="28pt"
 viewBox="0.00 0.00 425.00 28.00" xmlns="http://www.w3.org/2000/svg" xmlns:xlink="http://www.w3.org/1999/xlink">
<g id="graph0" class="graph" transform="scale(1 1) rotate(0) translate(4 24)">
<title>Checkpoints::GetLastCheckpoint</title>
<polygon fill="white" stroke="none" points="-4,4 -4,-24 421,-24 421,4 -4,4"/>
<!-- Node1 -->
<g id="node1" class="node"><title>Node1</title>
<polygon fill="#bfbfbf" stroke="black" points="0,-0.5 0,-19.5 162,-19.5 162,-0.5 0,-0.5"/>
<text text-anchor="middle" x="81" y="-7.5" font-family="Helvetica,sans-Serif" font-size="10.00">Checkpoints::GetLastCheckpoint</text>
</g>
<!-- Node2 -->
<g id="node2" class="node"><title>Node2</title>
<g id="a_node2"><a xlink:href="namespace_checkpoints.html#a63e87603e80d739b1aefa062f9bd337e" target="_top" xlink:title="Checkpoints::Checkpoints">
<polygon fill="white" stroke="black" points="198,-0.5 198,-19.5 330,-19.5 330,-0.5 198,-0.5"/>
<text text-anchor="middle" x="264" y="-7.5" font-family="Helvetica,sans-Serif" font-size="10.00">Checkpoints::Checkpoints</text>
</a>
</g>
</g>
<!-- Node1&#45;&gt;Node2 -->
<g id="edge1" class="edge"><title>Node1&#45;&gt;Node2</title>
<path fill="none" stroke="midnightblue" d="M162.18,-10C170.65,-10 179.243,-10 187.655,-10"/>
<polygon fill="midnightblue" stroke="midnightblue" points="187.808,-13.5001 197.808,-10 187.808,-6.5001 187.808,-13.5001"/>
</g>
<!-- Node3 -->
<g id="node3" class="node"><title>Node3</title>
<g id="a_node3"><a xlink:href="chainparams_8cpp.html#ace5c5b706d71a324a417dd2db394fd4a" target="_top" xlink:title="Return the currently selected parameters. ">
<polygon fill="white" stroke="black" points="366,-0.5 366,-19.5 417,-19.5 417,-0.5 366,-0.5"/>
<text text-anchor="middle" x="391.5" y="-7.5" font-family="Helvetica,sans-Serif" font-size="10.00">Params</text>
</a>
</g>
</g>
<!-- Node2&#45;&gt;Node3 -->
<g id="edge2" class="edge"><title>Node2&#45;&gt;Node3</title>
<path fill="none" stroke="midnightblue" d="M330.323,-10C339.004,-10 347.619,-10 355.502,-10"/>
<polygon fill="midnightblue" stroke="midnightblue" points="355.736,-13.5001 365.736,-10 355.736,-6.5001 355.736,-13.5001"/>
</g>
</g>
</svg>
