<?xml version="1.0" encoding="UTF-8" standalone="no"?>
<!DOCTYPE svg PUBLIC "-//W3C//DTD SVG 1.1//EN"
 "http://www.w3.org/Graphics/SVG/1.1/DTD/svg11.dtd">
<!-- Generated by graphviz version 2.38.0 (20140413.2041)
 -->
<!-- Title: libzerocoin::deriveGeneratorsFromSerialNumber Pages: 1 -->
<svg width="697pt" height="39pt"
 viewBox="0.00 0.00 697.00 39.00" xmlns="http://www.w3.org/2000/svg" xmlns:xlink="http://www.w3.org/1999/xlink">
<g id="graph0" class="graph" transform="scale(1 1) rotate(0) translate(4 35)">
<title>libzerocoin::deriveGeneratorsFromSerialNumber</title>
<polygon fill="white" stroke="none" points="-4,4 -4,-35 693,-35 693,4 -4,4"/>
<!-- Node1 -->
<g id="node1" class="node"><title>Node1</title>
<polygon fill="#bfbfbf" stroke="black" points="0,-0.5 0,-30.5 147,-30.5 147,-0.5 0,-0.5"/>
<text text-anchor="start" x="8" y="-18.5" font-family="Helvetica,sans-Serif" font-size="10.00">libzerocoin::deriveGenerators</text>
<text text-anchor="middle" x="73.5" y="-7.5" font-family="Helvetica,sans-Serif" font-size="10.00">FromSerialNumber</text>
</g>
<!-- Node2 -->
<g id="node2" class="node"><title>Node2</title>
<g id="a_node2"><a xlink:href="namespacelibzerocoin.html#a75a628181a2a566d229108b51bf0cf57" target="_top" xlink:title="Deterministically compute a generator for a given group. ">
<polygon fill="white" stroke="black" points="183,-0.5 183,-30.5 320,-30.5 320,-0.5 183,-0.5"/>
<text text-anchor="start" x="191" y="-18.5" font-family="Helvetica,sans-Serif" font-size="10.00">libzerocoin::calculateGroup</text>
<text text-anchor="middle" x="251.5" y="-7.5" font-family="Helvetica,sans-Serif" font-size="10.00">Generator</text>
</a>
</g>
</g>
<!-- Node1&#45;&gt;Node2 -->
<g id="edge1" class="edge"><title>Node1&#45;&gt;Node2</title>
<path fill="none" stroke="midnightblue" d="M147.102,-15.5C155.517,-15.5 164.126,-15.5 172.607,-15.5"/>
<polygon fill="midnightblue" stroke="midnightblue" points="172.869,-19.0001 182.869,-15.5 172.869,-12.0001 172.869,-19.0001"/>
</g>
<!-- Node3 -->
<g id="node3" class="node"><title>Node3</title>
<g id="a_node3"><a xlink:href="namespacelibzerocoin.html#a49d954a2ad7e4abe50ae454c900d915a" target="_top" xlink:title="Format a seed string by hashing several values. ">
<polygon fill="white" stroke="black" points="356,-6 356,-25 534,-25 534,-6 356,-6"/>
<text text-anchor="middle" x="445" y="-13" font-family="Helvetica,sans-Serif" font-size="10.00">libzerocoin::calculateGeneratorSeed</text>
</a>
</g>
</g>
<!-- Node2&#45;&gt;Node3 -->
<g id="edge2" class="edge"><title>Node2&#45;&gt;Node3</title>
<path fill="none" stroke="midnightblue" d="M320.016,-15.5C328.375,-15.5 337.049,-15.5 345.751,-15.5"/>
<polygon fill="midnightblue" stroke="midnightblue" points="345.961,-19.0001 355.961,-15.5 345.961,-12.0001 345.961,-19.0001"/>
</g>
<!-- Node4 -->
<g id="node4" class="node"><title>Node4</title>
<g id="a_node4"><a xlink:href="class_c_hash_writer.html#ae94a937211502eabf19477630090093a" target="_top" xlink:title="CHashWriter::GetHash">
<polygon fill="white" stroke="black" points="570,-6 570,-25 689,-25 689,-6 570,-6"/>
<text text-anchor="middle" x="629.5" y="-13" font-family="Helvetica,sans-Serif" font-size="10.00">CHashWriter::GetHash</text>
</a>
</g>
</g>
<!-- Node3&#45;&gt;Node4 -->
<g id="edge3" class="edge"><title>Node3&#45;&gt;Node4</title>
<path fill="none" stroke="midnightblue" d="M534.043,-15.5C542.661,-15.5 551.318,-15.5 559.705,-15.5"/>
<polygon fill="midnightblue" stroke="midnightblue" points="559.781,-19.0001 569.781,-15.5 559.781,-12.0001 559.781,-19.0001"/>
</g>
</g>
</svg>
