<?xml version="1.0" encoding="UTF-8" standalone="no"?>
<!DOCTYPE svg PUBLIC "-//W3C//DTD SVG 1.1//EN"
 "http://www.w3.org/Graphics/SVG/1.1/DTD/svg11.dtd">
<!-- Generated by graphviz version 2.38.0 (20140413.2041)
 -->
<!-- Title: RelayTransaction Pages: 1 -->
<svg width="384pt" height="57pt"
 viewBox="0.00 0.00 384.00 56.64" xmlns="http://www.w3.org/2000/svg" xmlns:xlink="http://www.w3.org/1999/xlink">
<g id="graph0" class="graph" transform="scale(1 1) rotate(0) translate(4 52.6448)">
<title>RelayTransaction</title>
<polygon fill="white" stroke="none" points="-4,4 -4,-52.6448 380,-52.6448 380,4 -4,4"/>
<!-- Node1 -->
<g id="node1" class="node"><title>Node1</title>
<polygon fill="#bfbfbf" stroke="black" points="0,-28.5 0,-47.5 94,-47.5 94,-28.5 0,-28.5"/>
<text text-anchor="middle" x="47" y="-35.5" font-family="Helvetica,sans-Serif" font-size="10.00">RelayTransaction</text>
</g>
<!-- Node2 -->
<g id="node2" class="node"><title>Node2</title>
<g id="a_node2"><a xlink:href="class_c_data_stream.html#a5542e71bd7af2ab7cd7be0f381d39cb5" target="_top" xlink:title="CDataStream::reserve">
<polygon fill="white" stroke="black" points="260,-28.5 260,-47.5 376,-47.5 376,-28.5 260,-28.5"/>
<text text-anchor="middle" x="318" y="-35.5" font-family="Helvetica,sans-Serif" font-size="10.00">CDataStream::reserve</text>
</a>
</g>
</g>
<!-- Node1&#45;&gt;Node2 -->
<g id="edge1" class="edge"><title>Node1&#45;&gt;Node2</title>
<path fill="none" stroke="midnightblue" d="M94.3287,-43.9787C105.954,-45.2325 118.417,-46.3662 130,-47 171.715,-49.2824 182.271,-49.0144 224,-47 232.268,-46.6009 240.936,-46.0032 249.514,-45.3021"/>
<polygon fill="midnightblue" stroke="midnightblue" points="249.854,-48.7858 259.515,-44.4371 249.251,-41.8119 249.854,-48.7858"/>
</g>
<!-- Node3 -->
<g id="node3" class="node"><title>Node3</title>
<g id="a_node3"><a xlink:href="net_8cpp.html#abe329205a15b55df86608f5f1964bdb1" target="_top" xlink:title="RelayTransaction">
<polygon fill="white" stroke="black" points="130,-0.5 130,-19.5 224,-19.5 224,-0.5 130,-0.5"/>
<text text-anchor="middle" x="177" y="-7.5" font-family="Helvetica,sans-Serif" font-size="10.00">RelayTransaction</text>
</a>
</g>
</g>
<!-- Node1&#45;&gt;Node3 -->
<g id="edge2" class="edge"><title>Node1&#45;&gt;Node3</title>
<path fill="none" stroke="midnightblue" d="M91.6923,-28.4423C101.578,-26.2798 112.185,-23.9595 122.426,-21.7193"/>
<polygon fill="midnightblue" stroke="midnightblue" points="123.484,-25.0708 132.505,-19.5146 121.988,-18.2325 123.484,-25.0708"/>
</g>
<!-- Node3&#45;&gt;Node2 -->
<g id="edge3" class="edge"><title>Node3&#45;&gt;Node2</title>
<path fill="none" stroke="midnightblue" d="M224.285,-19.3236C235.524,-21.5876 247.678,-24.0359 259.371,-26.3912"/>
<polygon fill="midnightblue" stroke="midnightblue" points="258.998,-29.8864 269.492,-28.4301 260.38,-23.0242 258.998,-29.8864"/>
</g>
<!-- Node3&#45;&gt;Node3 -->
<g id="edge4" class="edge"><title>Node3&#45;&gt;Node3</title>
<path fill="none" stroke="midnightblue" d="M156.963,-19.7571C147.216,-28.5653 153.895,-38 177,-38 191.802,-38 199.862,-34.128 201.181,-29.0292"/>
<polygon fill="midnightblue" stroke="midnightblue" points="204.313,-27.4582 197.037,-19.7571 197.922,-30.3148 204.313,-27.4582"/>
</g>
</g>
</svg>
