<?xml version="1.0" encoding="UTF-8" standalone="no"?>
<!DOCTYPE svg PUBLIC "-//W3C//DTD SVG 1.1//EN"
 "http://www.w3.org/Graphics/SVG/1.1/DTD/svg11.dtd">
<!-- Generated by graphviz version 2.38.0 (20140413.2041)
 -->
<!-- Title: ThreadOpenAddedConnections Pages: 1 -->
<svg width="1561pt" height="566pt"
 viewBox="0.00 0.00 1561.00 565.84" xmlns="http://www.w3.org/2000/svg" xmlns:xlink="http://www.w3.org/1999/xlink">
<g id="graph0" class="graph" transform="scale(1 1) rotate(0) translate(4 561.839)">
<title>ThreadOpenAddedConnections</title>
<polygon fill="white" stroke="none" points="-4,4 -4,-561.839 1557,-561.839 1557,4 -4,4"/>
<!-- Node1 -->
<g id="node1" class="node"><title>Node1</title>
<polygon fill="#bfbfbf" stroke="black" points="0,-204.5 0,-223.5 157,-223.5 157,-204.5 0,-204.5"/>
<text text-anchor="middle" x="78.5" y="-211.5" font-family="Helvetica,sans-Serif" font-size="10.00">ThreadOpenAddedConnections</text>
</g>
<!-- Node2 -->
<g id="node2" class="node"><title>Node2</title>
<g id="a_node2"><a xlink:href="netbase_8cpp.html#a4a0df7ebe15572508e61c38406e49732" target="_top" xlink:title="HaveNameProxy">
<polygon fill="white" stroke="black" points="760,-494.5 760,-513.5 852,-513.5 852,-494.5 760,-494.5"/>
<text text-anchor="middle" x="806" y="-501.5" font-family="Helvetica,sans-Serif" font-size="10.00">HaveNameProxy</text>
</a>
</g>
</g>
<!-- Node1&#45;&gt;Node2 -->
<g id="edge1" class="edge"><title>Node1&#45;&gt;Node2</title>
<path fill="none" stroke="midnightblue" d="M90.7437,-223.758C141.141,-266.699 352.963,-438.756 563,-485 626.016,-498.874 700.219,-502.949 749.686,-503.983"/>
<polygon fill="midnightblue" stroke="midnightblue" points="749.794,-507.485 759.853,-504.16 749.916,-500.486 749.794,-507.485"/>
</g>
<!-- Node4 -->
<g id="node4" class="node"><title>Node4</title>
<g id="a_node4"><a xlink:href="net_8cpp.html#aa19cb8e6cf23a990e585f2bbf9ece276" target="_top" xlink:title="OpenNetworkConnection">
<polygon fill="white" stroke="black" points="207,-223.5 207,-242.5 335,-242.5 335,-223.5 207,-223.5"/>
<text text-anchor="middle" x="271" y="-230.5" font-family="Helvetica,sans-Serif" font-size="10.00">OpenNetworkConnection</text>
</a>
</g>
</g>
<!-- Node1&#45;&gt;Node4 -->
<g id="edge3" class="edge"><title>Node1&#45;&gt;Node4</title>
<path fill="none" stroke="midnightblue" d="M157.258,-221.755C170.247,-223.051 183.685,-224.391 196.562,-225.675"/>
<polygon fill="midnightblue" stroke="midnightblue" points="196.45,-229.182 206.748,-226.691 197.145,-222.216 196.45,-229.182"/>
</g>
<!-- Node36 -->
<g id="node36" class="node"><title>Node36</title>
<g id="a_node36"><a xlink:href="chainparams_8cpp.html#ace5c5b706d71a324a417dd2db394fd4a" target="_top" xlink:title="Return the currently selected parameters. ">
<polygon fill="white" stroke="black" points="609,-38.5 609,-57.5 660,-57.5 660,-38.5 609,-38.5"/>
<text text-anchor="middle" x="634.5" y="-45.5" font-family="Helvetica,sans-Serif" font-size="10.00">Params</text>
</a>
</g>
</g>
<!-- Node1&#45;&gt;Node36 -->
<g id="edge57" class="edge"><title>Node1&#45;&gt;Node36</title>
<path fill="none" stroke="midnightblue" d="M138.851,-204.46C193.952,-194.897 277.94,-178.514 349,-157 430.518,-132.32 449.673,-121.705 527,-86 543.425,-78.4157 546.162,-73.617 563,-67 574.498,-62.4818 587.458,-58.6501 599.101,-55.6371"/>
<polygon fill="midnightblue" stroke="midnightblue" points="600.059,-59.0056 608.924,-53.2033 598.376,-52.211 600.059,-59.0056"/>
</g>
<!-- Node44 -->
<g id="node44" class="node"><title>Node44</title>
<g id="a_node44"><a xlink:href="util_8h.html#ac635182d3e845eda4af4fa5ab31609da" target="_top" xlink:title="MilliSleep">
<polygon fill="white" stroke="black" points="241.5,-128.5 241.5,-147.5 300.5,-147.5 300.5,-128.5 241.5,-128.5"/>
<text text-anchor="middle" x="271" y="-135.5" font-family="Helvetica,sans-Serif" font-size="10.00">MilliSleep</text>
</a>
</g>
</g>
<!-- Node1&#45;&gt;Node44 -->
<g id="edge54" class="edge"><title>Node1&#45;&gt;Node44</title>
<path fill="none" stroke="midnightblue" d="M98.4606,-204.409C120.743,-193.351 158.997,-175.027 193,-162 205.381,-157.257 219.137,-152.739 231.558,-148.928"/>
<polygon fill="midnightblue" stroke="midnightblue" points="232.612,-152.266 241.18,-146.034 230.596,-145.563 232.612,-152.266"/>
</g>
<!-- Node45 -->
<g id="node45" class="node"><title>Node45</title>
<g id="a_node45"><a xlink:href="netbase_8cpp.html#a56a2f4bcb9fb77b5efe358f804f642cc" target="_top" xlink:title="Lookup">
<polygon fill="white" stroke="black" points="431.5,-532.5 431.5,-551.5 480.5,-551.5 480.5,-532.5 431.5,-532.5"/>
<text text-anchor="middle" x="456" y="-539.5" font-family="Helvetica,sans-Serif" font-size="10.00">Lookup</text>
</a>
</g>
</g>
<!-- Node1&#45;&gt;Node45 -->
<g id="edge55" class="edge"><title>Node1&#45;&gt;Node45</title>
<path fill="none" stroke="midnightblue" d="M79.6857,-223.759C81.0852,-266.879 92.9476,-441.559 193,-518 260.204,-569.344 367.251,-558.972 421.352,-549.299"/>
<polygon fill="midnightblue" stroke="midnightblue" points="422.262,-552.689 431.438,-547.393 420.962,-545.811 422.262,-552.689"/>
</g>
<!-- Node46 -->
<g id="node46" class="node"><title>Node46</title>
<g id="a_node46"><a xlink:href="class_c_chain_params.html#afdb7793273cdb87cc5fd75450eb2258b" target="_top" xlink:title="CChainParams::GetDefaultPort">
<polygon fill="white" stroke="black" points="193,-90.5 193,-109.5 349,-109.5 349,-90.5 193,-90.5"/>
<text text-anchor="middle" x="271" y="-97.5" font-family="Helvetica,sans-Serif" font-size="10.00">CChainParams::GetDefaultPort</text>
</a>
</g>
</g>
<!-- Node1&#45;&gt;Node46 -->
<g id="edge58" class="edge"><title>Node1&#45;&gt;Node46</title>
<path fill="none" stroke="midnightblue" d="M88.1499,-204.25C105.849,-184.923 148.312,-141.667 193,-119 197.639,-116.647 202.587,-114.574 207.65,-112.751"/>
<polygon fill="midnightblue" stroke="midnightblue" points="209.058,-115.973 217.478,-109.543 206.886,-109.319 209.058,-115.973"/>
</g>
<!-- Node3 -->
<g id="node3" class="node"><title>Node3</title>
<g id="a_node3"><a xlink:href="class_c_net_addr.html#a52a1b506f07e5450057e12a8b5a7fbcd" target="_top" xlink:title="CNetAddr::IsValid">
<polygon fill="white" stroke="black" points="931.5,-462.5 931.5,-481.5 1027.5,-481.5 1027.5,-462.5 931.5,-462.5"/>
<text text-anchor="middle" x="979.5" y="-469.5" font-family="Helvetica,sans-Serif" font-size="10.00">CNetAddr::IsValid</text>
</a>
</g>
</g>
<!-- Node2&#45;&gt;Node3 -->
<g id="edge2" class="edge"><title>Node2&#45;&gt;Node3</title>
<path fill="none" stroke="midnightblue" d="M852.06,-495.592C873.231,-491.642 898.71,-486.888 921.232,-482.685"/>
<polygon fill="midnightblue" stroke="midnightblue" points="922.158,-486.073 931.346,-480.798 920.874,-479.192 922.158,-486.073"/>
</g>
<!-- Node5 -->
<g id="node5" class="node"><title>Node5</title>
<g id="a_node5"><a xlink:href="net_8cpp.html#a16fa1bd4d34c4c29c90903fc3cdf7517" target="_top" xlink:title="check whether a given address is potentially local ">
<polygon fill="white" stroke="black" points="610.5,-380.5 610.5,-399.5 658.5,-399.5 658.5,-380.5 610.5,-380.5"/>
<text text-anchor="middle" x="634.5" y="-387.5" font-family="Helvetica,sans-Serif" font-size="10.00">IsLocal</text>
</a>
</g>
</g>
<!-- Node4&#45;&gt;Node5 -->
<g id="edge4" class="edge"><title>Node4&#45;&gt;Node5</title>
<path fill="none" stroke="midnightblue" d="M289.24,-242.53C333.542,-266.717 455.446,-331.369 563,-371 574.96,-375.407 588.4,-379.283 600.313,-382.365"/>
<polygon fill="midnightblue" stroke="midnightblue" points="599.764,-385.836 610.314,-384.863 601.46,-379.044 599.764,-385.836"/>
</g>
<!-- Node6 -->
<g id="node6" class="node"><title>Node6</title>
<g id="a_node6"><a xlink:href="net_8cpp.html#a66a7371d8e724cac0b4495169cdf2859" target="_top" xlink:title="FindNode">
<polygon fill="white" stroke="black" points="604.5,-76.5 604.5,-95.5 664.5,-95.5 664.5,-76.5 604.5,-76.5"/>
<text text-anchor="middle" x="634.5" y="-83.5" font-family="Helvetica,sans-Serif" font-size="10.00">FindNode</text>
</a>
</g>
</g>
<!-- Node4&#45;&gt;Node6 -->
<g id="edge5" class="edge"><title>Node4&#45;&gt;Node6</title>
<path fill="none" stroke="midnightblue" d="M335.038,-229.243C400.701,-224.153 497.98,-212.926 527,-190 559.193,-164.568 532.067,-131.951 563,-105 571.708,-97.4132 583.147,-92.82 594.271,-90.0506"/>
<polygon fill="midnightblue" stroke="midnightblue" points="595.22,-93.4288 604.31,-87.9865 593.81,-86.5722 595.22,-93.4288"/>
</g>
<!-- Node7 -->
<g id="node7" class="node"><title>Node7</title>
<g id="a_node7"><a xlink:href="class_c_node.html#aefa8b81afa53b4c6635dc4c6c024211a" target="_top" xlink:title="CNode::IsBanned">
<polygon fill="white" stroke="black" points="408.5,-390.5 408.5,-409.5 503.5,-409.5 503.5,-390.5 408.5,-390.5"/>
<text text-anchor="middle" x="456" y="-397.5" font-family="Helvetica,sans-Serif" font-size="10.00">CNode::IsBanned</text>
</a>
</g>
</g>
<!-- Node4&#45;&gt;Node7 -->
<g id="edge6" class="edge"><title>Node4&#45;&gt;Node7</title>
<path fill="none" stroke="midnightblue" d="M278.737,-242.67C294.969,-265.461 338.362,-323.445 385,-361 397.032,-370.689 411.797,-379.311 424.66,-385.968"/>
<polygon fill="midnightblue" stroke="midnightblue" points="423.115,-389.108 433.624,-390.455 426.249,-382.849 423.115,-389.108"/>
</g>
<!-- Node9 -->
<g id="node9" class="node"><title>Node9</title>
<g id="a_node9"><a xlink:href="net_8cpp.html#a50fb6e457be5579fb51d3a2827b1cba5" target="_top" xlink:title="ConnectNode">
<polygon fill="white" stroke="black" points="417,-242.5 417,-261.5 495,-261.5 495,-242.5 417,-242.5"/>
<text text-anchor="middle" x="456" y="-249.5" font-family="Helvetica,sans-Serif" font-size="10.00">ConnectNode</text>
</a>
</g>
</g>
<!-- Node4&#45;&gt;Node9 -->
<g id="edge8" class="edge"><title>Node4&#45;&gt;Node9</title>
<path fill="none" stroke="midnightblue" d="M335.234,-239.565C358.691,-242.001 384.895,-244.721 406.797,-246.995"/>
<polygon fill="midnightblue" stroke="midnightblue" points="406.544,-250.488 416.852,-248.039 407.267,-243.525 406.544,-250.488"/>
</g>
<!-- Node41 -->
<g id="node41" class="node"><title>Node41</title>
<g id="a_node41"><a xlink:href="class_c_semaphore_grant.html#ab3e6f84f304703abc52517b0c8de26cf" target="_top" xlink:title="CSemaphoreGrant::MoveTo">
<polygon fill="white" stroke="black" points="385,-57.5 385,-76.5 527,-76.5 527,-57.5 385,-57.5"/>
<text text-anchor="middle" x="456" y="-64.5" font-family="Helvetica,sans-Serif" font-size="10.00">CSemaphoreGrant::MoveTo</text>
</a>
</g>
</g>
<!-- Node4&#45;&gt;Node41 -->
<g id="edge51" class="edge"><title>Node4&#45;&gt;Node41</title>
<path fill="none" stroke="midnightblue" d="M282.63,-223.358C312.699,-196.081 398.639,-118.125 436.597,-83.6936"/>
<polygon fill="midnightblue" stroke="midnightblue" points="439.286,-85.9801 444.341,-76.669 434.583,-80.7953 439.286,-85.9801"/>
</g>
<!-- Node8 -->
<g id="node8" class="node"><title>Node8</title>
<g id="a_node8"><a xlink:href="util_8cpp.html#a46fac5fba8ba905b5f9acb364f5d8c6f" target="_top" xlink:title="GetTime">
<polygon fill="white" stroke="black" points="778.5,-228.5 778.5,-247.5 833.5,-247.5 833.5,-228.5 778.5,-228.5"/>
<text text-anchor="middle" x="806" y="-235.5" font-family="Helvetica,sans-Serif" font-size="10.00">GetTime</text>
</a>
</g>
</g>
<!-- Node7&#45;&gt;Node8 -->
<g id="edge7" class="edge"><title>Node7&#45;&gt;Node8</title>
<path fill="none" stroke="midnightblue" d="M481.175,-409.521C528.877,-426.594 636.508,-456.43 706,-409 742.266,-384.247 720.065,-355.036 742,-317 755.31,-293.92 775,-270.42 788.817,-255.122"/>
<polygon fill="midnightblue" stroke="midnightblue" points="791.615,-257.25 795.81,-247.521 786.463,-252.51 791.615,-257.25"/>
</g>
<!-- Node9&#45;&gt;Node5 -->
<g id="edge9" class="edge"><title>Node9&#45;&gt;Node5</title>
<path fill="none" stroke="midnightblue" d="M465.439,-261.776C489.45,-289.552 556.82,-367.184 563,-371 574.207,-377.92 587.931,-382.353 600.282,-385.177"/>
<polygon fill="midnightblue" stroke="midnightblue" points="599.754,-388.641 610.249,-387.191 601.14,-381.78 599.754,-388.641"/>
</g>
<!-- Node9&#45;&gt;Node6 -->
<g id="edge10" class="edge"><title>Node9&#45;&gt;Node6</title>
<path fill="none" stroke="midnightblue" d="M495.231,-245.933C506.755,-242.405 518.569,-236.825 527,-228 566.349,-186.816 522.293,-144.842 563,-105 571.408,-96.7706 582.986,-92.0109 594.33,-89.2868"/>
<polygon fill="midnightblue" stroke="midnightblue" points="595.004,-92.7215 604.154,-87.3808 593.67,-85.8497 595.004,-92.7215"/>
</g>
<!-- Node9&#45;&gt;Node8 -->
<g id="edge50" class="edge"><title>Node9&#45;&gt;Node8</title>
<path fill="none" stroke="midnightblue" d="M495.238,-250.462C562.612,-247.751 701.618,-242.159 768.06,-239.486"/>
<polygon fill="midnightblue" stroke="midnightblue" points="768.227,-242.982 778.078,-239.083 767.946,-235.988 768.227,-242.982"/>
</g>
<!-- Node10 -->
<g id="node10" class="node"><title>Node10</title>
<g id="a_node10"><a xlink:href="class_c_node.html#afb65ed679f7bda59aab89e0f5afae292" target="_top" xlink:title="CNode::AddRef">
<polygon fill="white" stroke="black" points="591,-266.5 591,-285.5 678,-285.5 678,-266.5 591,-266.5"/>
<text text-anchor="middle" x="634.5" y="-273.5" font-family="Helvetica,sans-Serif" font-size="10.00">CNode::AddRef</text>
</a>
</g>
</g>
<!-- Node9&#45;&gt;Node10 -->
<g id="edge11" class="edge"><title>Node9&#45;&gt;Node10</title>
<path fill="none" stroke="midnightblue" d="M495.298,-257.208C520.291,-260.606 553.253,-265.088 580.718,-268.823"/>
<polygon fill="midnightblue" stroke="midnightblue" points="580.566,-272.334 590.947,-270.214 581.509,-265.398 580.566,-272.334"/>
</g>
<!-- Node11 -->
<g id="node11" class="node"><title>Node11</title>
<g id="a_node11"><a xlink:href="class_c_service.html#a336f9848fe9364e260c76499be0351a5" target="_top" xlink:title="CService::ToString">
<polygon fill="white" stroke="black" points="584.5,-152.5 584.5,-171.5 684.5,-171.5 684.5,-152.5 584.5,-152.5"/>
<text text-anchor="middle" x="634.5" y="-159.5" font-family="Helvetica,sans-Serif" font-size="10.00">CService::ToString</text>
</a>
</g>
</g>
<!-- Node9&#45;&gt;Node11 -->
<g id="edge12" class="edge"><title>Node9&#45;&gt;Node11</title>
<path fill="none" stroke="midnightblue" d="M495.289,-243.332C506.177,-239.724 517.615,-234.753 527,-228 548.358,-212.632 541.139,-195.644 563,-181 566.714,-178.512 570.743,-176.349 574.929,-174.469"/>
<polygon fill="midnightblue" stroke="midnightblue" points="576.26,-177.706 584.284,-170.787 573.696,-171.192 576.26,-177.706"/>
</g>
<!-- Node25 -->
<g id="node25" class="node"><title>Node25</title>
<g id="a_node25"><a xlink:href="util_8cpp.html#a09f81b9c7650f898cf3cf305b87547e6" target="_top" xlink:title="GetAdjustedTime">
<polygon fill="white" stroke="black" points="587.5,-190.5 587.5,-209.5 681.5,-209.5 681.5,-190.5 587.5,-190.5"/>
<text text-anchor="middle" x="634.5" y="-197.5" font-family="Helvetica,sans-Serif" font-size="10.00">GetAdjustedTime</text>
</a>
</g>
</g>
<!-- Node9&#45;&gt;Node25 -->
<g id="edge28" class="edge"><title>Node9&#45;&gt;Node25</title>
<path fill="none" stroke="midnightblue" d="M489.373,-242.462C518.019,-234.023 560.01,-221.651 591.286,-212.437"/>
<polygon fill="midnightblue" stroke="midnightblue" points="592.431,-215.749 601.034,-209.565 590.453,-209.034 592.431,-215.749"/>
</g>
<!-- Node27 -->
<g id="node27" class="node"><title>Node27</title>
<g id="a_node27"><a xlink:href="netbase_8cpp.html#a8d8d8eefd45d180c361e37dc293b6def" target="_top" xlink:title="ConnectSocketByName">
<polygon fill="white" stroke="black" points="573,-456.5 573,-475.5 696,-475.5 696,-456.5 573,-456.5"/>
<text text-anchor="middle" x="634.5" y="-463.5" font-family="Helvetica,sans-Serif" font-size="10.00">ConnectSocketByName</text>
</a>
</g>
</g>
<!-- Node9&#45;&gt;Node27 -->
<g id="edge31" class="edge"><title>Node9&#45;&gt;Node27</title>
<path fill="none" stroke="midnightblue" d="M462.105,-261.54C476.076,-287.146 516.977,-358.836 563,-409 577.363,-424.655 596.18,-439.649 610.761,-450.326"/>
<polygon fill="midnightblue" stroke="midnightblue" points="609.047,-453.403 619.215,-456.383 613.125,-447.713 609.047,-453.403"/>
</g>
<!-- Node30 -->
<g id="node30" class="node"><title>Node30</title>
<g id="a_node30"><a xlink:href="netbase_8cpp.html#a805b21dc07ab1574acaa657b4c0fd9e9" target="_top" xlink:title="ConnectSocket">
<polygon fill="white" stroke="black" points="764,-326.5 764,-345.5 848,-345.5 848,-326.5 764,-326.5"/>
<text text-anchor="middle" x="806" y="-333.5" font-family="Helvetica,sans-Serif" font-size="10.00">ConnectSocket</text>
</a>
</g>
</g>
<!-- Node9&#45;&gt;Node30 -->
<g id="edge45" class="edge"><title>Node9&#45;&gt;Node30</title>
<path fill="none" stroke="midnightblue" d="M476.861,-261.581C497.824,-271.328 532.051,-286.214 563,-295 627.486,-313.306 704.099,-324.596 753.586,-330.58"/>
<polygon fill="midnightblue" stroke="midnightblue" points="753.378,-334.08 763.72,-331.777 754.199,-327.128 753.378,-334.08"/>
</g>
<!-- Node9&#45;&gt;Node36 -->
<g id="edge44" class="edge"><title>Node9&#45;&gt;Node36</title>
<path fill="none" stroke="midnightblue" d="M472.098,-242.444C488.021,-231.604 512.738,-212.482 527,-190 557.513,-141.902 522.293,-106.842 563,-67 572.579,-57.6249 586.272,-52.7528 599.046,-50.2635"/>
<polygon fill="midnightblue" stroke="midnightblue" points="599.644,-53.7128 608.998,-48.7373 598.583,-46.7937 599.644,-53.7128"/>
</g>
<!-- Node37 -->
<g id="node37" class="node"><title>Node37</title>
<g id="a_node37"><a xlink:href="class_c_addr_man.html#afcddc2573121065177dc981cea710789" target="_top" xlink:title="CAddrMan::Attempt">
<polygon fill="white" stroke="black" points="582.5,-114.5 582.5,-133.5 686.5,-133.5 686.5,-114.5 582.5,-114.5"/>
<text text-anchor="middle" x="634.5" y="-121.5" font-family="Helvetica,sans-Serif" font-size="10.00">CAddrMan::Attempt</text>
</a>
</g>
</g>
<!-- Node9&#45;&gt;Node37 -->
<g id="edge46" class="edge"><title>Node9&#45;&gt;Node37</title>
<path fill="none" stroke="midnightblue" d="M495.004,-245.223C506.381,-241.657 518.166,-236.234 527,-228 557.012,-200.028 532.067,-169.951 563,-143 566.032,-140.359 569.394,-138.08 572.959,-136.115"/>
<polygon fill="midnightblue" stroke="midnightblue" points="574.564,-139.229 582.165,-131.849 571.62,-132.878 574.564,-139.229"/>
</g>
<!-- Node40 -->
<g id="node40" class="node"><title>Node40</title>
<g id="a_node40"><a xlink:href="netbase_8cpp.html#a8ddb7d8d6e5b5cfabfdeea132f556977" target="_top" xlink:title="Return readable error string for a network error code. ">
<polygon fill="white" stroke="black" points="583.5,-342.5 583.5,-361.5 685.5,-361.5 685.5,-342.5 583.5,-342.5"/>
<text text-anchor="middle" x="634.5" y="-349.5" font-family="Helvetica,sans-Serif" font-size="10.00">NetworkErrorString</text>
</a>
</g>
</g>
<!-- Node9&#45;&gt;Node40 -->
<g id="edge49" class="edge"><title>Node9&#45;&gt;Node40</title>
<path fill="none" stroke="midnightblue" d="M468.041,-261.618C486.561,-277.345 525.546,-308.735 563,-328 571.275,-332.256 580.469,-336.016 589.411,-339.222"/>
<polygon fill="midnightblue" stroke="midnightblue" points="588.366,-342.564 598.961,-342.482 590.627,-335.939 588.366,-342.564"/>
</g>
<!-- Node12 -->
<g id="node12" class="node"><title>Node12</title>
<g id="a_node12"><a xlink:href="class_c_service.html#a39b82301356b0dfc2a92befc727b77be" target="_top" xlink:title="CService::ToStringIPPort">
<polygon fill="white" stroke="black" points="742,-152.5 742,-171.5 870,-171.5 870,-152.5 742,-152.5"/>
<text text-anchor="middle" x="806" y="-159.5" font-family="Helvetica,sans-Serif" font-size="10.00">CService::ToStringIPPort</text>
</a>
</g>
</g>
<!-- Node11&#45;&gt;Node12 -->
<g id="edge13" class="edge"><title>Node11&#45;&gt;Node12</title>
<path fill="none" stroke="midnightblue" d="M684.526,-162C699.204,-162 715.631,-162 731.52,-162"/>
<polygon fill="midnightblue" stroke="midnightblue" points="731.86,-165.5 741.86,-162 731.86,-158.5 731.86,-165.5"/>
</g>
<!-- Node13 -->
<g id="node13" class="node"><title>Node13</title>
<g id="a_node13"><a xlink:href="util_8cpp.html#a24f685720bf40370e5bd2a192ad50cd8" target="_top" xlink:title="Return string argument or default value. ">
<polygon fill="white" stroke="black" points="955.5,-146.5 955.5,-165.5 1003.5,-165.5 1003.5,-146.5 955.5,-146.5"/>
<text text-anchor="middle" x="979.5" y="-153.5" font-family="Helvetica,sans-Serif" font-size="10.00">GetArg</text>
</a>
</g>
</g>
<!-- Node12&#45;&gt;Node13 -->
<g id="edge14" class="edge"><title>Node12&#45;&gt;Node13</title>
<path fill="none" stroke="midnightblue" d="M870.373,-159.783C895.677,-158.898 923.777,-157.915 944.988,-157.172"/>
<polygon fill="midnightblue" stroke="midnightblue" points="945.23,-160.666 955.101,-156.819 944.985,-153.67 945.23,-160.666"/>
</g>
<!-- Node14 -->
<g id="node14" class="node"><title>Node14</title>
<g id="a_node14"><a xlink:href="class_c_service.html#a1e0f0b98239a9097044695a9e439bb46" target="_top" xlink:title="CService::ToStringPort">
<polygon fill="white" stroke="black" points="920,-108.5 920,-127.5 1039,-127.5 1039,-108.5 920,-108.5"/>
<text text-anchor="middle" x="979.5" y="-115.5" font-family="Helvetica,sans-Serif" font-size="10.00">CService::ToStringPort</text>
</a>
</g>
</g>
<!-- Node12&#45;&gt;Node14 -->
<g id="edge15" class="edge"><title>Node12&#45;&gt;Node14</title>
<path fill="none" stroke="midnightblue" d="M844.213,-152.453C869.833,-145.88 904.072,-137.095 931.565,-130.042"/>
<polygon fill="midnightblue" stroke="midnightblue" points="932.543,-133.404 941.36,-127.529 930.804,-126.624 932.543,-133.404"/>
</g>
<!-- Node15 -->
<g id="node15" class="node"><title>Node15</title>
<g id="a_node15"><a xlink:href="class_c_net_addr.html#a16ff4478f02f06f5a9a038a24d5da2f9" target="_top" xlink:title="CNetAddr::IsIPv4">
<polygon fill="white" stroke="black" points="1258.5,-184.5 1258.5,-203.5 1352.5,-203.5 1352.5,-184.5 1258.5,-184.5"/>
<text text-anchor="middle" x="1305.5" y="-191.5" font-family="Helvetica,sans-Serif" font-size="10.00">CNetAddr::IsIPv4</text>
</a>
</g>
</g>
<!-- Node12&#45;&gt;Node15 -->
<g id="edge16" class="edge"><title>Node12&#45;&gt;Node15</title>
<path fill="none" stroke="midnightblue" d="M870.024,-171.072C881.954,-172.563 894.345,-173.959 906,-175 1027.56,-185.861 1170.58,-190.772 1247.93,-192.779"/>
<polygon fill="midnightblue" stroke="midnightblue" points="1248.31,-196.289 1258.39,-193.043 1248.49,-189.291 1248.31,-196.289"/>
</g>
<!-- Node16 -->
<g id="node16" class="node"><title>Node16</title>
<g id="a_node16"><a xlink:href="class_c_net_addr.html#a3fba9e0b18f531c0ed15794a30e8165d" target="_top" xlink:title="CNetAddr::IsTor">
<polygon fill="white" stroke="black" points="935,-70.5 935,-89.5 1024,-89.5 1024,-70.5 935,-70.5"/>
<text text-anchor="middle" x="979.5" y="-77.5" font-family="Helvetica,sans-Serif" font-size="10.00">CNetAddr::IsTor</text>
</a>
</g>
</g>
<!-- Node12&#45;&gt;Node16 -->
<g id="edge17" class="edge"><title>Node12&#45;&gt;Node16</title>
<path fill="none" stroke="midnightblue" d="M850.887,-152.461C857.595,-149.976 864.206,-146.871 870,-143 891.01,-128.964 884.737,-112.649 906,-99 911.812,-95.2691 918.331,-92.2685 925.013,-89.8558"/>
<polygon fill="midnightblue" stroke="midnightblue" points="926.388,-93.0911 934.857,-86.7249 924.267,-86.4204 926.388,-93.0911"/>
</g>
<!-- Node17 -->
<g id="node17" class="node"><title>Node17</title>
<g id="a_node17"><a xlink:href="class_c_net_addr.html#a7ec845c27b63853fb0db08a4d154266f" target="_top" xlink:title="CNetAddr::ToStringIP">
<polygon fill="white" stroke="black" points="923,-222.5 923,-241.5 1036,-241.5 1036,-222.5 923,-222.5"/>
<text text-anchor="middle" x="979.5" y="-229.5" font-family="Helvetica,sans-Serif" font-size="10.00">CNetAddr::ToStringIP</text>
</a>
</g>
</g>
<!-- Node12&#45;&gt;Node17 -->
<g id="edge18" class="edge"><title>Node12&#45;&gt;Node17</title>
<path fill="none" stroke="midnightblue" d="M846.477,-171.584C854.465,-174.161 862.66,-177.288 870,-181 887.848,-190.026 888.275,-198.736 906,-208 914.198,-212.284 923.312,-216.016 932.234,-219.178"/>
<polygon fill="midnightblue" stroke="midnightblue" points="931.194,-222.521 941.788,-222.385 933.421,-215.885 931.194,-222.521"/>
</g>
<!-- Node18 -->
<g id="node18" class="node"><title>Node18</title>
<g id="a_node18"><a xlink:href="util_8cpp.html#a71aa75e646de8a10971f887bc71d9a75" target="_top" xlink:title="EncodeBase32">
<polygon fill="white" stroke="black" points="1108,-260.5 1108,-279.5 1192,-279.5 1192,-260.5 1108,-260.5"/>
<text text-anchor="middle" x="1150" y="-267.5" font-family="Helvetica,sans-Serif" font-size="10.00">EncodeBase32</text>
</a>
</g>
</g>
<!-- Node17&#45;&gt;Node18 -->
<g id="edge19" class="edge"><title>Node17&#45;&gt;Node18</title>
<path fill="none" stroke="midnightblue" d="M1023.02,-241.589C1045.8,-246.726 1074.02,-253.09 1097.97,-258.492"/>
<polygon fill="midnightblue" stroke="midnightblue" points="1097.42,-261.956 1107.95,-260.742 1098.96,-255.128 1097.42,-261.956"/>
</g>
<!-- Node19 -->
<g id="node19" class="node"><title>Node19</title>
<g id="a_node19"><a xlink:href="class_c_service.html#ab0f791c174511056236119cc1580faeb" target="_top" xlink:title="CService::GetSockAddr">
<polygon fill="white" stroke="black" points="1089,-222.5 1089,-241.5 1211,-241.5 1211,-222.5 1089,-222.5"/>
<text text-anchor="middle" x="1150" y="-229.5" font-family="Helvetica,sans-Serif" font-size="10.00">CService::GetSockAddr</text>
</a>
</g>
</g>
<!-- Node17&#45;&gt;Node19 -->
<g id="edge20" class="edge"><title>Node17&#45;&gt;Node19</title>
<path fill="none" stroke="midnightblue" d="M1036.14,-232C1049.72,-232 1064.42,-232 1078.58,-232"/>
<polygon fill="midnightblue" stroke="midnightblue" points="1078.78,-235.5 1088.78,-232 1078.78,-228.5 1078.78,-235.5"/>
</g>
<!-- Node19&#45;&gt;Node15 -->
<g id="edge21" class="edge"><title>Node19&#45;&gt;Node15</title>
<path fill="none" stroke="midnightblue" d="M1189.73,-222.411C1209.9,-217.419 1234.75,-211.268 1256.16,-205.967"/>
<polygon fill="midnightblue" stroke="midnightblue" points="1257.18,-209.321 1266.04,-203.52 1255.5,-202.526 1257.18,-209.321"/>
</g>
<!-- Node20 -->
<g id="node20" class="node"><title>Node20</title>
<g id="a_node20"><a xlink:href="class_c_net_addr.html#aa2e2c78db01a6a27d6a2740f2ba43e90" target="_top" xlink:title="CNetAddr::GetInAddr">
<polygon fill="white" stroke="black" points="1249.5,-222.5 1249.5,-241.5 1361.5,-241.5 1361.5,-222.5 1249.5,-222.5"/>
<text text-anchor="middle" x="1305.5" y="-229.5" font-family="Helvetica,sans-Serif" font-size="10.00">CNetAddr::GetInAddr</text>
</a>
</g>
</g>
<!-- Node19&#45;&gt;Node20 -->
<g id="edge22" class="edge"><title>Node19&#45;&gt;Node20</title>
<path fill="none" stroke="midnightblue" d="M1211.23,-232C1220.48,-232 1230.07,-232 1239.42,-232"/>
<polygon fill="midnightblue" stroke="midnightblue" points="1239.45,-235.5 1249.45,-232 1239.45,-228.5 1239.45,-235.5"/>
</g>
<!-- Node23 -->
<g id="node23" class="node"><title>Node23</title>
<g id="a_node23"><a xlink:href="class_c_net_addr.html#a0edb022cd6a186de8099799415409d57" target="_top" xlink:title="CNetAddr::IsIPv6">
<polygon fill="white" stroke="black" points="1258.5,-260.5 1258.5,-279.5 1352.5,-279.5 1352.5,-260.5 1258.5,-260.5"/>
<text text-anchor="middle" x="1305.5" y="-267.5" font-family="Helvetica,sans-Serif" font-size="10.00">CNetAddr::IsIPv6</text>
</a>
</g>
</g>
<!-- Node19&#45;&gt;Node23 -->
<g id="edge25" class="edge"><title>Node19&#45;&gt;Node23</title>
<path fill="none" stroke="midnightblue" d="M1189.73,-241.589C1209.9,-246.581 1234.75,-252.732 1256.16,-258.033"/>
<polygon fill="midnightblue" stroke="midnightblue" points="1255.5,-261.474 1266.04,-260.48 1257.18,-254.679 1255.5,-261.474"/>
</g>
<!-- Node24 -->
<g id="node24" class="node"><title>Node24</title>
<g id="a_node24"><a xlink:href="class_c_net_addr.html#add7811be50f5fe60c4fa65b461dea98c" target="_top" xlink:title="CNetAddr::GetIn6Addr">
<polygon fill="white" stroke="black" points="1247,-298.5 1247,-317.5 1364,-317.5 1364,-298.5 1247,-298.5"/>
<text text-anchor="middle" x="1305.5" y="-305.5" font-family="Helvetica,sans-Serif" font-size="10.00">CNetAddr::GetIn6Addr</text>
</a>
</g>
</g>
<!-- Node19&#45;&gt;Node24 -->
<g id="edge26" class="edge"><title>Node19&#45;&gt;Node24</title>
<path fill="none" stroke="midnightblue" d="M1190.99,-241.537C1197.94,-244.055 1204.89,-247.172 1211,-251 1230.72,-263.349 1227.36,-276.529 1247,-289 1250.16,-291.006 1253.55,-292.822 1257.05,-294.461"/>
<polygon fill="midnightblue" stroke="midnightblue" points="1255.9,-297.774 1266.48,-298.398 1258.6,-291.314 1255.9,-297.774"/>
</g>
<!-- Node21 -->
<g id="node21" class="node"><title>Node21</title>
<g id="a_node21"><a xlink:href="glibc__compat_8cpp.html#a0f46826ab0466591e136db24394923cf" target="_top" xlink:title="memcpy">
<polygon fill="white" stroke="black" points="1400,-260.5 1400,-279.5 1454,-279.5 1454,-260.5 1400,-260.5"/>
<text text-anchor="middle" x="1427" y="-267.5" font-family="Helvetica,sans-Serif" font-size="10.00">memcpy</text>
</a>
</g>
</g>
<!-- Node20&#45;&gt;Node21 -->
<g id="edge23" class="edge"><title>Node20&#45;&gt;Node21</title>
<path fill="none" stroke="midnightblue" d="M1336.65,-241.589C1352.95,-246.772 1373.18,-253.205 1390.27,-258.638"/>
<polygon fill="midnightblue" stroke="midnightblue" points="1389.32,-262.01 1399.91,-261.705 1391.44,-255.339 1389.32,-262.01"/>
</g>
<!-- Node22 -->
<g id="node22" class="node"><title>Node22</title>
<g id="a_node22"><a xlink:href="glibc__compat_8cpp.html#a9778d49e9029dd75bc53ecbbf9f5e9a1" target="_top" xlink:title="memmove">
<polygon fill="white" stroke="black" points="1490,-260.5 1490,-279.5 1553,-279.5 1553,-260.5 1490,-260.5"/>
<text text-anchor="middle" x="1521.5" y="-267.5" font-family="Helvetica,sans-Serif" font-size="10.00">memmove</text>
</a>
</g>
</g>
<!-- Node21&#45;&gt;Node22 -->
<g id="edge24" class="edge"><title>Node21&#45;&gt;Node22</title>
<path fill="none" stroke="midnightblue" d="M1454.26,-270C1462.24,-270 1471.21,-270 1479.91,-270"/>
<polygon fill="midnightblue" stroke="midnightblue" points="1479.92,-273.5 1489.92,-270 1479.92,-266.5 1479.92,-273.5"/>
</g>
<!-- Node24&#45;&gt;Node21 -->
<g id="edge27" class="edge"><title>Node24&#45;&gt;Node21</title>
<path fill="none" stroke="midnightblue" d="M1336.65,-298.411C1352.95,-293.228 1373.18,-286.795 1390.27,-281.362"/>
<polygon fill="midnightblue" stroke="midnightblue" points="1391.44,-284.661 1399.91,-278.295 1389.32,-277.99 1391.44,-284.661"/>
</g>
<!-- Node25&#45;&gt;Node8 -->
<g id="edge29" class="edge"><title>Node25&#45;&gt;Node8</title>
<path fill="none" stroke="midnightblue" d="M678.272,-209.589C705.977,-215.8 741.69,-223.807 768.139,-229.736"/>
<polygon fill="midnightblue" stroke="midnightblue" points="767.619,-233.206 778.142,-231.979 769.15,-226.376 767.619,-233.206"/>
</g>
<!-- Node26 -->
<g id="node26" class="node"><title>Node26</title>
<g id="a_node26"><a xlink:href="util_8cpp.html#a50ca5344c75631267633f15cfe5e983e" target="_top" xlink:title="GetTimeOffset">
<polygon fill="white" stroke="black" points="765,-190.5 765,-209.5 847,-209.5 847,-190.5 765,-190.5"/>
<text text-anchor="middle" x="806" y="-197.5" font-family="Helvetica,sans-Serif" font-size="10.00">GetTimeOffset</text>
</a>
</g>
</g>
<!-- Node25&#45;&gt;Node26 -->
<g id="edge30" class="edge"><title>Node25&#45;&gt;Node26</title>
<path fill="none" stroke="midnightblue" d="M681.817,-200C704.342,-200 731.463,-200 754.516,-200"/>
<polygon fill="midnightblue" stroke="midnightblue" points="754.791,-203.5 764.791,-200 754.791,-196.5 754.791,-203.5"/>
</g>
<!-- Node27&#45;&gt;Node2 -->
<g id="edge35" class="edge"><title>Node27&#45;&gt;Node2</title>
<path fill="none" stroke="midnightblue" d="M678.272,-475.589C700.841,-480.649 728.723,-486.9 752.583,-492.249"/>
<polygon fill="midnightblue" stroke="midnightblue" points="752.012,-495.708 762.536,-494.48 753.543,-488.877 752.012,-495.708"/>
</g>
<!-- Node27&#45;&gt;Node3 -->
<g id="edge36" class="edge"><title>Node27&#45;&gt;Node3</title>
<path fill="none" stroke="midnightblue" d="M678.793,-456.488C698.043,-452.723 721.047,-448.854 742,-447 798.667,-441.985 813.475,-440.572 870,-447 881.932,-448.357 907.841,-454.286 931.348,-460.029"/>
<polygon fill="midnightblue" stroke="midnightblue" points="930.68,-463.469 941.227,-462.465 932.356,-456.673 930.68,-463.469"/>
</g>
<!-- Node28 -->
<g id="node28" class="node"><title>Node28</title>
<g id="a_node28"><a xlink:href="netbase_8cpp.html#a1b1ce2ba1ffe40785e65ec3ad5a20e79" target="_top" xlink:title="SplitHostPort">
<polygon fill="white" stroke="black" points="768.5,-532.5 768.5,-551.5 843.5,-551.5 843.5,-532.5 768.5,-532.5"/>
<text text-anchor="middle" x="806" y="-539.5" font-family="Helvetica,sans-Serif" font-size="10.00">SplitHostPort</text>
</a>
</g>
</g>
<!-- Node27&#45;&gt;Node28 -->
<g id="edge32" class="edge"><title>Node27&#45;&gt;Node28</title>
<path fill="none" stroke="midnightblue" d="M650.902,-475.505C671.198,-487.733 708.28,-509.054 742,-523 747.478,-525.266 753.324,-527.393 759.163,-529.346"/>
<polygon fill="midnightblue" stroke="midnightblue" points="758.327,-532.753 768.918,-532.461 760.456,-526.085 758.327,-532.753"/>
</g>
<!-- Node29 -->
<g id="node29" class="node"><title>Node29</title>
<g id="a_node29"><a xlink:href="netbase_8cpp.html#a426fafd989b57880762556c2ff0c9d2f" target="_top" xlink:title="GetNameProxy">
<polygon fill="white" stroke="black" points="763.5,-456.5 763.5,-475.5 848.5,-475.5 848.5,-456.5 763.5,-456.5"/>
<text text-anchor="middle" x="806" y="-463.5" font-family="Helvetica,sans-Serif" font-size="10.00">GetNameProxy</text>
</a>
</g>
</g>
<!-- Node27&#45;&gt;Node29 -->
<g id="edge33" class="edge"><title>Node27&#45;&gt;Node29</title>
<path fill="none" stroke="midnightblue" d="M696.215,-466C714.883,-466 735.247,-466 753.256,-466"/>
<polygon fill="midnightblue" stroke="midnightblue" points="753.273,-469.5 763.273,-466 753.273,-462.5 753.273,-469.5"/>
</g>
<!-- Node27&#45;&gt;Node30 -->
<g id="edge37" class="edge"><title>Node27&#45;&gt;Node30</title>
<path fill="none" stroke="midnightblue" d="M674.756,-456.415C685.385,-452.834 696.553,-448.106 706,-442 742.965,-418.106 775.606,-377.423 792.594,-354.018"/>
<polygon fill="midnightblue" stroke="midnightblue" points="795.571,-355.87 798.505,-345.69 789.863,-351.818 795.571,-355.87"/>
</g>
<!-- Node29&#45;&gt;Node3 -->
<g id="edge34" class="edge"><title>Node29&#45;&gt;Node3</title>
<path fill="none" stroke="midnightblue" d="M848.515,-467.452C870.277,-468.214 897.272,-469.158 921.012,-469.989"/>
<polygon fill="midnightblue" stroke="midnightblue" points="921.194,-473.497 931.311,-470.349 921.439,-466.501 921.194,-473.497"/>
</g>
<!-- Node30&#45;&gt;Node17 -->
<g id="edge42" class="edge"><title>Node30&#45;&gt;Node17</title>
<path fill="none" stroke="midnightblue" d="M815.495,-326.229C831.431,-308.518 867.679,-271.091 906,-251 910.494,-248.644 915.302,-246.564 920.223,-244.732"/>
<polygon fill="midnightblue" stroke="midnightblue" points="921.42,-248.022 929.774,-241.506 919.18,-241.39 921.42,-248.022"/>
</g>
<!-- Node31 -->
<g id="node31" class="node"><title>Node31</title>
<g id="a_node31"><a xlink:href="class_i2_p_session.html#a0b2a285f34224a7fdc8ffcb0d1f6d48e" target="_top" xlink:title="I2PSession::Instance">
<polygon fill="white" stroke="black" points="924.5,-348.5 924.5,-367.5 1034.5,-367.5 1034.5,-348.5 924.5,-348.5"/>
<text text-anchor="middle" x="979.5" y="-355.5" font-family="Helvetica,sans-Serif" font-size="10.00">I2PSession::Instance</text>
</a>
</g>
</g>
<!-- Node30&#45;&gt;Node31 -->
<g id="edge38" class="edge"><title>Node30&#45;&gt;Node31</title>
<path fill="none" stroke="midnightblue" d="M848.079,-341.27C867.929,-343.816 892.211,-346.931 914.419,-349.78"/>
<polygon fill="midnightblue" stroke="midnightblue" points="914.088,-353.266 924.452,-351.067 914.979,-346.323 914.088,-353.266"/>
</g>
<!-- Node32 -->
<g id="node32" class="node"><title>Node32</title>
<g id="a_node32"><a xlink:href="class_s_a_m_1_1_stream_session_adapter.html#a983b84796d46f00aee1e4b7c4f6f421f" target="_top" xlink:title="SAM::StreamSessionAdapter\l::connect">
<polygon fill="white" stroke="black" points="906,-299 906,-329 1053,-329 1053,-299 906,-299"/>
<text text-anchor="start" x="914" y="-317" font-family="Helvetica,sans-Serif" font-size="10.00">SAM::StreamSessionAdapter</text>
<text text-anchor="middle" x="979.5" y="-306" font-family="Helvetica,sans-Serif" font-size="10.00">::connect</text>
</a>
</g>
</g>
<!-- Node30&#45;&gt;Node32 -->
<g id="edge39" class="edge"><title>Node30&#45;&gt;Node32</title>
<path fill="none" stroke="midnightblue" d="M848.079,-330.73C862.44,-328.888 879.12,-326.748 895.656,-324.627"/>
<polygon fill="midnightblue" stroke="midnightblue" points="896.438,-328.056 905.911,-323.312 895.547,-321.113 896.438,-328.056"/>
</g>
<!-- Node33 -->
<g id="node33" class="node"><title>Node33</title>
<g id="a_node33"><a xlink:href="netbase_8cpp.html#a4e67b39fc1769663260d791d2f4d049d" target="_top" xlink:title="GetProxy">
<polygon fill="white" stroke="black" points="950.5,-260.5 950.5,-279.5 1008.5,-279.5 1008.5,-260.5 950.5,-260.5"/>
<text text-anchor="middle" x="979.5" y="-267.5" font-family="Helvetica,sans-Serif" font-size="10.00">GetProxy</text>
</a>
</g>
</g>
<!-- Node30&#45;&gt;Node33 -->
<g id="edge40" class="edge"><title>Node30&#45;&gt;Node33</title>
<path fill="none" stroke="midnightblue" d="M824.455,-326.484C843.906,-316.173 876.508,-299.758 906,-289 916.95,-285.006 929.114,-281.48 940.301,-278.585"/>
<polygon fill="midnightblue" stroke="midnightblue" points="941.382,-281.923 950.238,-276.107 939.688,-275.131 941.382,-281.923"/>
</g>
<!-- Node34 -->
<g id="node34" class="node"><title>Node34</title>
<g id="a_node34"><a xlink:href="class_c_net_addr.html#a34a4760424f5c51998fc3baf82ccb5c8" target="_top" xlink:title="CNetAddr::GetNetwork">
<polygon fill="white" stroke="black" points="920,-424.5 920,-443.5 1039,-443.5 1039,-424.5 920,-424.5"/>
<text text-anchor="middle" x="979.5" y="-431.5" font-family="Helvetica,sans-Serif" font-size="10.00">CNetAddr::GetNetwork</text>
</a>
</g>
</g>
<!-- Node30&#45;&gt;Node34 -->
<g id="edge41" class="edge"><title>Node30&#45;&gt;Node34</title>
<path fill="none" stroke="midnightblue" d="M816.16,-345.572C832.594,-362.187 868.852,-396.367 906,-415 910.607,-417.311 915.524,-419.361 920.545,-421.177"/>
<polygon fill="midnightblue" stroke="midnightblue" points="919.68,-424.577 930.273,-424.385 921.873,-417.929 919.68,-424.577"/>
</g>
<!-- Node35 -->
<g id="node35" class="node"><title>Node35</title>
<g id="a_node35"><a xlink:href="class_c_service.html#a49df6ecaf59be814632c4d7755f26637" target="_top" xlink:title="CService::GetPort">
<polygon fill="white" stroke="black" points="931,-386.5 931,-405.5 1028,-405.5 1028,-386.5 931,-386.5"/>
<text text-anchor="middle" x="979.5" y="-393.5" font-family="Helvetica,sans-Serif" font-size="10.00">CService::GetPort</text>
</a>
</g>
</g>
<!-- Node30&#45;&gt;Node35 -->
<g id="edge43" class="edge"><title>Node30&#45;&gt;Node35</title>
<path fill="none" stroke="midnightblue" d="M827.925,-345.645C847.748,-354.547 878.493,-367.748 906,-377 913.117,-379.394 920.71,-381.674 928.203,-383.77"/>
<polygon fill="midnightblue" stroke="midnightblue" points="927.378,-387.173 937.946,-386.414 929.211,-380.417 927.378,-387.173"/>
</g>
<!-- Node38 -->
<g id="node38" class="node"><title>Node38</title>
<g id="a_node38"><a xlink:href="class_c_addr_man.html#a0c2677ae50ce0d680f0105b285d1f5d0" target="_top" xlink:title="CAddrMan::Check">
<polygon fill="white" stroke="black" points="757,-114.5 757,-133.5 855,-133.5 855,-114.5 757,-114.5"/>
<text text-anchor="middle" x="806" y="-121.5" font-family="Helvetica,sans-Serif" font-size="10.00">CAddrMan::Check</text>
</a>
</g>
</g>
<!-- Node37&#45;&gt;Node38 -->
<g id="edge47" class="edge"><title>Node37&#45;&gt;Node38</title>
<path fill="none" stroke="midnightblue" d="M686.816,-124C705.647,-124 727.101,-124 746.515,-124"/>
<polygon fill="midnightblue" stroke="midnightblue" points="746.758,-127.5 756.758,-124 746.758,-120.5 746.758,-127.5"/>
</g>
<!-- Node39 -->
<g id="node39" class="node"><title>Node39</title>
<g id="a_node39"><a xlink:href="class_c_addr_man.html#ab1a1bfa8b435ef139570c88de1a5245f" target="_top" xlink:title="CAddrMan::Attempt_">
<polygon fill="white" stroke="black" points="751,-76.5 751,-95.5 861,-95.5 861,-76.5 751,-76.5"/>
<text text-anchor="middle" x="806" y="-83.5" font-family="Helvetica,sans-Serif" font-size="10.00">CAddrMan::Attempt_</text>
</a>
</g>
</g>
<!-- Node37&#45;&gt;Node39 -->
<g id="edge48" class="edge"><title>Node37&#45;&gt;Node39</title>
<path fill="none" stroke="midnightblue" d="M678.272,-114.411C700.841,-109.351 728.723,-103.1 752.583,-97.7512"/>
<polygon fill="midnightblue" stroke="midnightblue" points="753.543,-101.123 762.536,-95.5201 752.012,-94.2925 753.543,-101.123"/>
</g>
<!-- Node42 -->
<g id="node42" class="node"><title>Node42</title>
<g id="a_node42"><a xlink:href="class_c_semaphore_grant.html#a8d985eeace74e037baeb39bd2d586576" target="_top" xlink:title="CSemaphoreGrant::Release">
<polygon fill="white" stroke="black" points="563,-0.5 563,-19.5 706,-19.5 706,-0.5 563,-0.5"/>
<text text-anchor="middle" x="634.5" y="-7.5" font-family="Helvetica,sans-Serif" font-size="10.00">CSemaphoreGrant::Release</text>
</a>
</g>
</g>
<!-- Node41&#45;&gt;Node42 -->
<g id="edge52" class="edge"><title>Node41&#45;&gt;Node42</title>
<path fill="none" stroke="midnightblue" d="M482.078,-57.3612C503.435,-49.3093 535.018,-37.7705 563,-29 570.317,-26.7066 578.113,-24.4361 585.752,-22.3058"/>
<polygon fill="midnightblue" stroke="midnightblue" points="586.93,-25.6121 595.651,-19.5959 585.082,-18.8605 586.93,-25.6121"/>
</g>
<!-- Node43 -->
<g id="node43" class="node"><title>Node43</title>
<g id="a_node43"><a xlink:href="class_c_semaphore.html#af6a956f6c191e824485fd3af6db39318" target="_top" xlink:title="CSemaphore::post">
<polygon fill="white" stroke="black" points="756,-0.5 756,-19.5 856,-19.5 856,-0.5 756,-0.5"/>
<text text-anchor="middle" x="806" y="-7.5" font-family="Helvetica,sans-Serif" font-size="10.00">CSemaphore::post</text>
</a>
</g>
</g>
<!-- Node42&#45;&gt;Node43 -->
<g id="edge53" class="edge"><title>Node42&#45;&gt;Node43</title>
<path fill="none" stroke="midnightblue" d="M706.401,-10C719.371,-10 732.785,-10 745.385,-10"/>
<polygon fill="midnightblue" stroke="midnightblue" points="745.749,-13.5001 755.749,-10 745.749,-6.5001 745.749,-13.5001"/>
</g>
<!-- Node45&#45;&gt;Node28 -->
<g id="edge56" class="edge"><title>Node45&#45;&gt;Node28</title>
<path fill="none" stroke="midnightblue" d="M480.646,-542C537.555,-542 682.994,-542 758.275,-542"/>
<polygon fill="midnightblue" stroke="midnightblue" points="758.415,-545.5 768.415,-542 758.415,-538.5 758.415,-545.5"/>
</g>
</g>
</svg>
