<?xml version="1.0" encoding="UTF-8" standalone="no"?>
<!DOCTYPE svg PUBLIC "-//W3C//DTD SVG 1.1//EN"
 "http://www.w3.org/Graphics/SVG/1.1/DTD/svg11.dtd">
<!-- Generated by graphviz version 2.38.0 (20140413.2041)
 -->
<!-- Title: GetLocalAddress Pages: 1 -->
<svg width="736pt" height="123pt"
 viewBox="0.00 0.00 736.00 123.00" xmlns="http://www.w3.org/2000/svg" xmlns:xlink="http://www.w3.org/1999/xlink">
<g id="graph0" class="graph" transform="scale(1 1) rotate(0) translate(4 119)">
<title>GetLocalAddress</title>
<polygon fill="white" stroke="none" points="-4,4 -4,-119 732,-119 732,4 -4,4"/>
<!-- Node1 -->
<g id="node1" class="node"><title>Node1</title>
<polygon fill="#bfbfbf" stroke="black" points="0,-19.5 0,-38.5 93,-38.5 93,-19.5 0,-19.5"/>
<text text-anchor="middle" x="46.5" y="-26.5" font-family="Helvetica,sans-Serif" font-size="10.00">GetLocalAddress</text>
</g>
<!-- Node2 -->
<g id="node2" class="node"><title>Node2</title>
<g id="a_node2"><a xlink:href="main_8h.html#a711a5bdb30c9c9bbdc83011b1cbbe2f3" target="_top" xlink:title="Send queued protocol messages to be sent to a give node. ">
<polygon fill="white" stroke="black" points="141.5,-38.5 141.5,-57.5 226.5,-57.5 226.5,-38.5 141.5,-38.5"/>
<text text-anchor="middle" x="184" y="-45.5" font-family="Helvetica,sans-Serif" font-size="10.00">SendMessages</text>
</a>
</g>
</g>
<!-- Node1&#45;&gt;Node2 -->
<g id="edge1" class="edge"><title>Node1&#45;&gt;Node2</title>
<path fill="none" stroke="midnightblue" d="M103.382,-36.8358C116.057,-38.6132 129.305,-40.4708 141.275,-42.1492"/>
<polygon fill="midnightblue" stroke="midnightblue" points="103.763,-33.3552 93.3741,-35.4325 102.791,-40.2873 103.763,-33.3552"/>
</g>
<!-- Node11 -->
<g id="node11" class="node"><title>Node11</title>
<g id="a_node11"><a xlink:href="class_c_node.html#a4dbfe4f6c1fd162aaa905e4bd201d536" target="_top" xlink:title="CNode::PushVersion">
<polygon fill="white" stroke="black" points="129,-0.5 129,-19.5 239,-19.5 239,-0.5 129,-0.5"/>
<text text-anchor="middle" x="184" y="-7.5" font-family="Helvetica,sans-Serif" font-size="10.00">CNode::PushVersion</text>
</a>
</g>
</g>
<!-- Node1&#45;&gt;Node11 -->
<g id="edge11" class="edge"><title>Node1&#45;&gt;Node11</title>
<path fill="none" stroke="midnightblue" d="M103.423,-21.1584C111.791,-19.985 120.408,-18.7768 128.741,-17.6083"/>
<polygon fill="midnightblue" stroke="midnightblue" points="102.791,-17.7127 93.3741,-22.5675 103.763,-24.6448 102.791,-17.7127"/>
</g>
<!-- Node3 -->
<g id="node3" class="node"><title>Node3</title>
<g id="a_node3"><a xlink:href="main_8h.html#ab02615ff65f91d69f8d786ec900baa8a" target="_top" xlink:title="Register with a network node to receive its signals. ">
<polygon fill="white" stroke="black" points="279.5,-76.5 279.5,-95.5 389.5,-95.5 389.5,-76.5 279.5,-76.5"/>
<text text-anchor="middle" x="334.5" y="-83.5" font-family="Helvetica,sans-Serif" font-size="10.00">RegisterNodeSignals</text>
</a>
</g>
</g>
<!-- Node2&#45;&gt;Node3 -->
<g id="edge2" class="edge"><title>Node2&#45;&gt;Node3</title>
<path fill="none" stroke="midnightblue" d="M232.333,-60.1121C253.015,-65.4044 276.919,-71.5213 296.297,-76.4799"/>
<polygon fill="midnightblue" stroke="midnightblue" points="233.028,-56.6774 222.473,-57.589 231.293,-63.4589 233.028,-56.6774"/>
</g>
<!-- Node8 -->
<g id="node8" class="node"><title>Node8</title>
<g id="a_node8"><a xlink:href="main_8h.html#a3ef0cc6e9d9d6435ee2a5569244d6ebd" target="_top" xlink:title="Unregister a network node. ">
<polygon fill="white" stroke="black" points="275,-38.5 275,-57.5 394,-57.5 394,-38.5 275,-38.5"/>
<text text-anchor="middle" x="334.5" y="-45.5" font-family="Helvetica,sans-Serif" font-size="10.00">UnregisterNodeSignals</text>
</a>
</g>
</g>
<!-- Node2&#45;&gt;Node8 -->
<g id="edge7" class="edge"><title>Node2&#45;&gt;Node8</title>
<path fill="none" stroke="midnightblue" d="M236.836,-48C249.124,-48 262.315,-48 274.88,-48"/>
<polygon fill="midnightblue" stroke="midnightblue" points="236.761,-44.5001 226.761,-48 236.761,-51.5001 236.761,-44.5001"/>
</g>
<!-- Node4 -->
<g id="node4" class="node"><title>Node4</title>
<g id="a_node4"><a xlink:href="init_8h.html#a1a4c1bfbf6ba1db77e988b89b9cadfd3" target="_top" xlink:title="Initialize anoncoin. ">
<polygon fill="white" stroke="black" points="434,-76.5 434,-95.5 487,-95.5 487,-76.5 434,-76.5"/>
<text text-anchor="middle" x="460.5" y="-83.5" font-family="Helvetica,sans-Serif" font-size="10.00">AppInit2</text>
</a>
</g>
</g>
<!-- Node3&#45;&gt;Node4 -->
<g id="edge3" class="edge"><title>Node3&#45;&gt;Node4</title>
<path fill="none" stroke="midnightblue" d="M399.69,-86C411.806,-86 423.811,-86 433.849,-86"/>
<polygon fill="midnightblue" stroke="midnightblue" points="399.528,-82.5001 389.527,-86 399.527,-89.5001 399.528,-82.5001"/>
</g>
<!-- Node5 -->
<g id="node5" class="node"><title>Node5</title>
<g id="a_node5"><a xlink:href="anoncoind_8cpp.html#ac59316b767e6984e1285f0531275286b" target="_top" xlink:title="AppInit">
<polygon fill="white" stroke="black" points="566.5,-57.5 566.5,-76.5 614.5,-76.5 614.5,-57.5 566.5,-57.5"/>
<text text-anchor="middle" x="590.5" y="-64.5" font-family="Helvetica,sans-Serif" font-size="10.00">AppInit</text>
</a>
</g>
</g>
<!-- Node4&#45;&gt;Node5 -->
<g id="edge4" class="edge"><title>Node4&#45;&gt;Node5</title>
<path fill="none" stroke="midnightblue" d="M497.087,-80.7176C519.128,-77.4459 546.81,-73.3368 566.104,-70.4728"/>
<polygon fill="midnightblue" stroke="midnightblue" points="496.473,-77.2703 487.095,-82.2007 497.501,-84.1944 496.473,-77.2703"/>
</g>
<!-- Node7 -->
<g id="node7" class="node"><title>Node7</title>
<g id="a_node7"><a xlink:href="class_anoncoin_coin.html#a9510881824d283404ac43414dbb74586" target="_top" xlink:title="AnoncoinCoin::initialize">
<polygon fill="white" stroke="black" points="530.5,-95.5 530.5,-114.5 650.5,-114.5 650.5,-95.5 530.5,-95.5"/>
<text text-anchor="middle" x="590.5" y="-102.5" font-family="Helvetica,sans-Serif" font-size="10.00">AnoncoinCoin::initialize</text>
</a>
</g>
</g>
<!-- Node4&#45;&gt;Node7 -->
<g id="edge6" class="edge"><title>Node4&#45;&gt;Node7</title>
<path fill="none" stroke="midnightblue" d="M497.301,-91.3142C507.572,-92.8388 519.054,-94.5432 530.335,-96.2177"/>
<polygon fill="midnightblue" stroke="midnightblue" points="497.501,-87.8056 487.095,-89.7993 496.473,-94.7297 497.501,-87.8056"/>
</g>
<!-- Node6 -->
<g id="node6" class="node"><title>Node6</title>
<g id="a_node6"><a xlink:href="anoncoind_8cpp.html#a0ddf1224851353fc92bfbff6f499fa97" target="_top" xlink:title="main">
<polygon fill="white" stroke="black" points="690,-57.5 690,-76.5 728,-76.5 728,-57.5 690,-57.5"/>
<text text-anchor="middle" x="709" y="-64.5" font-family="Helvetica,sans-Serif" font-size="10.00">main</text>
</a>
</g>
</g>
<!-- Node5&#45;&gt;Node6 -->
<g id="edge5" class="edge"><title>Node5&#45;&gt;Node6</title>
<path fill="none" stroke="midnightblue" d="M624.731,-67C645.947,-67 672.631,-67 689.99,-67"/>
<polygon fill="midnightblue" stroke="midnightblue" points="624.517,-63.5001 614.517,-67 624.517,-70.5001 624.517,-63.5001"/>
</g>
<!-- Node9 -->
<g id="node9" class="node"><title>Node9</title>
<g id="a_node9"><a xlink:href="init_8h.html#ac5f038c2b480cf9ef5e19e3eba8dbaf9" target="_top" xlink:title="Shutdown">
<polygon fill="white" stroke="black" points="430,-38.5 430,-57.5 491,-57.5 491,-38.5 430,-38.5"/>
<text text-anchor="middle" x="460.5" y="-45.5" font-family="Helvetica,sans-Serif" font-size="10.00">Shutdown</text>
</a>
</g>
</g>
<!-- Node8&#45;&gt;Node9 -->
<g id="edge8" class="edge"><title>Node8&#45;&gt;Node9</title>
<path fill="none" stroke="midnightblue" d="M404.398,-48C413.364,-48 422.136,-48 429.95,-48"/>
<polygon fill="midnightblue" stroke="midnightblue" points="404.232,-44.5001 394.232,-48 404.232,-51.5001 404.232,-44.5001"/>
</g>
<!-- Node9&#45;&gt;Node5 -->
<g id="edge9" class="edge"><title>Node9&#45;&gt;Node5</title>
<path fill="none" stroke="midnightblue" d="M501.288,-53.906C522.659,-57.0783 548.255,-60.8777 566.357,-63.5647"/>
<polygon fill="midnightblue" stroke="midnightblue" points="501.593,-50.413 491.188,-52.4067 500.565,-57.3372 501.593,-50.413"/>
</g>
<!-- Node10 -->
<g id="node10" class="node"><title>Node10</title>
<g id="a_node10"><a xlink:href="class_anoncoin_coin.html#ac33fbca9335d356d9d6102a0122f2a5b" target="_top" xlink:title="AnoncoinCoin::shutdown">
<polygon fill="white" stroke="black" points="527,-19.5 527,-38.5 654,-38.5 654,-19.5 527,-19.5"/>
<text text-anchor="middle" x="590.5" y="-26.5" font-family="Helvetica,sans-Serif" font-size="10.00">AnoncoinCoin::shutdown</text>
</a>
</g>
</g>
<!-- Node9&#45;&gt;Node10 -->
<g id="edge10" class="edge"><title>Node9&#45;&gt;Node10</title>
<path fill="none" stroke="midnightblue" d="M501.157,-42.1135C509.329,-40.9004 518.123,-39.595 526.883,-38.2948"/>
<polygon fill="midnightblue" stroke="midnightblue" points="500.565,-38.6628 491.188,-43.5933 501.593,-45.587 500.565,-38.6628"/>
</g>
<!-- Node12 -->
<g id="node12" class="node"><title>Node12</title>
<g id="a_node12"><a xlink:href="class_c_node.html#a51556705550511146245b9fb2fec09c1" target="_top" xlink:title="CNode::CNode">
<polygon fill="white" stroke="black" points="292.5,-0.5 292.5,-19.5 376.5,-19.5 376.5,-0.5 292.5,-0.5"/>
<text text-anchor="middle" x="334.5" y="-7.5" font-family="Helvetica,sans-Serif" font-size="10.00">CNode::CNode</text>
</a>
</g>
</g>
<!-- Node11&#45;&gt;Node12 -->
<g id="edge12" class="edge"><title>Node11&#45;&gt;Node12</title>
<path fill="none" stroke="midnightblue" d="M249.065,-10C263.724,-10 278.922,-10 292.316,-10"/>
<polygon fill="midnightblue" stroke="midnightblue" points="249.032,-6.5001 239.032,-10 249.032,-13.5001 249.032,-6.5001"/>
</g>
</g>
</svg>
