<?xml version="1.0" encoding="UTF-8" standalone="no"?>
<!DOCTYPE svg PUBLIC "-//W3C//DTD SVG 1.1//EN"
 "http://www.w3.org/Graphics/SVG/1.1/DTD/svg11.dtd">
<!-- Generated by graphviz version 2.38.0 (20140413.2041)
 -->
<!-- Title: ConnectNode Pages: 1 -->
<svg width="860pt" height="85pt"
 viewBox="0.00 0.00 860.00 85.00" xmlns="http://www.w3.org/2000/svg" xmlns:xlink="http://www.w3.org/1999/xlink">
<g id="graph0" class="graph" transform="scale(1 1) rotate(0) translate(4 81)">
<title>ConnectNode</title>
<polygon fill="white" stroke="none" points="-4,4 -4,-81 856,-81 856,4 -4,4"/>
<!-- Node1 -->
<g id="node1" class="node"><title>Node1</title>
<polygon fill="#bfbfbf" stroke="black" points="0,-19.5 0,-38.5 78,-38.5 78,-19.5 0,-19.5"/>
<text text-anchor="middle" x="39" y="-26.5" font-family="Helvetica,sans-Serif" font-size="10.00">ConnectNode</text>
</g>
<!-- Node2 -->
<g id="node2" class="node"><title>Node2</title>
<g id="a_node2"><a xlink:href="net_8cpp.html#aa19cb8e6cf23a990e585f2bbf9ece276" target="_top" xlink:title="OpenNetworkConnection">
<polygon fill="white" stroke="black" points="114,-38.5 114,-57.5 242,-57.5 242,-38.5 114,-38.5"/>
<text text-anchor="middle" x="178" y="-45.5" font-family="Helvetica,sans-Serif" font-size="10.00">OpenNetworkConnection</text>
</a>
</g>
</g>
<!-- Node1&#45;&gt;Node2 -->
<g id="edge1" class="edge"><title>Node1&#45;&gt;Node2</title>
<path fill="none" stroke="midnightblue" d="M88.0697,-35.6666C96.4036,-36.8224 105.181,-38.0398 113.845,-39.2412"/>
<polygon fill="midnightblue" stroke="midnightblue" points="88.5482,-32.1995 78.1621,-34.2926 87.5865,-39.1332 88.5482,-32.1995"/>
</g>
<!-- Node10 -->
<g id="node10" class="node"><title>Node10</title>
<g id="a_node10"><a xlink:href="rpcnet_8cpp.html#ab455bfd729ba34d3bb55b716e62405a3" target="_top" xlink:title="addnode">
<polygon fill="white" stroke="black" points="150.5,-0.5 150.5,-19.5 205.5,-19.5 205.5,-0.5 150.5,-0.5"/>
<text text-anchor="middle" x="178" y="-7.5" font-family="Helvetica,sans-Serif" font-size="10.00">addnode</text>
</a>
</g>
</g>
<!-- Node1&#45;&gt;Node10 -->
<g id="edge10" class="edge"><title>Node1&#45;&gt;Node10</title>
<path fill="none" stroke="midnightblue" d="M88.1483,-22.3225C109.022,-19.4275 132.67,-16.148 150.318,-13.7004"/>
<polygon fill="midnightblue" stroke="midnightblue" points="87.5865,-18.8668 78.1621,-23.7074 88.5482,-25.8005 87.5865,-18.8668"/>
</g>
<!-- Node3 -->
<g id="node3" class="node"><title>Node3</title>
<g id="a_node3"><a xlink:href="net_8cpp.html#a3b4720330e61127963a43df26b80f804" target="_top" xlink:title="ThreadOpenConnections">
<polygon fill="white" stroke="black" points="292.5,-57.5 292.5,-76.5 420.5,-76.5 420.5,-57.5 292.5,-57.5"/>
<text text-anchor="middle" x="356.5" y="-64.5" font-family="Helvetica,sans-Serif" font-size="10.00">ThreadOpenConnections</text>
</a>
</g>
</g>
<!-- Node2&#45;&gt;Node3 -->
<g id="edge2" class="edge"><title>Node2&#45;&gt;Node3</title>
<path fill="none" stroke="midnightblue" d="M252.301,-55.8907C265.628,-57.3254 279.423,-58.8104 292.423,-60.2098"/>
<polygon fill="midnightblue" stroke="midnightblue" points="252.539,-52.3963 242.222,-54.8058 251.79,-59.3561 252.539,-52.3963"/>
</g>
<!-- Node9 -->
<g id="node9" class="node"><title>Node9</title>
<g id="a_node9"><a xlink:href="net_8cpp.html#a2d1ca95557ae336582b886a251e7fe94" target="_top" xlink:title="ThreadOpenAddedConnections">
<polygon fill="white" stroke="black" points="278,-19.5 278,-38.5 435,-38.5 435,-19.5 278,-19.5"/>
<text text-anchor="middle" x="356.5" y="-26.5" font-family="Helvetica,sans-Serif" font-size="10.00">ThreadOpenAddedConnections</text>
</a>
</g>
</g>
<!-- Node2&#45;&gt;Node9 -->
<g id="edge8" class="edge"><title>Node2&#45;&gt;Node9</title>
<path fill="none" stroke="midnightblue" d="M252.394,-40.0993C260.826,-39.1916 269.444,-38.2638 277.929,-37.3504"/>
<polygon fill="midnightblue" stroke="midnightblue" points="251.79,-36.6439 242.222,-41.1942 252.539,-43.6037 251.79,-36.6439"/>
</g>
<!-- Node4 -->
<g id="node4" class="node"><title>Node4</title>
<g id="a_node4"><a xlink:href="net_8h.html#a9396d8054e8f74959e9391871aaddde0" target="_top" xlink:title="StartNode">
<polygon fill="white" stroke="black" points="471,-38.5 471,-57.5 533,-57.5 533,-38.5 471,-38.5"/>
<text text-anchor="middle" x="502" y="-45.5" font-family="Helvetica,sans-Serif" font-size="10.00">StartNode</text>
</a>
</g>
</g>
<!-- Node3&#45;&gt;Node4 -->
<g id="edge3" class="edge"><title>Node3&#45;&gt;Node4</title>
<path fill="none" stroke="midnightblue" d="M431.111,-57.2536C445.209,-55.3869 459.212,-53.5329 470.94,-51.9801"/>
<polygon fill="midnightblue" stroke="midnightblue" points="430.313,-53.8286 420.859,-58.611 431.232,-60.7681 430.313,-53.8286"/>
</g>
<!-- Node5 -->
<g id="node5" class="node"><title>Node5</title>
<g id="a_node5"><a xlink:href="init_8h.html#a1a4c1bfbf6ba1db77e988b89b9cadfd3" target="_top" xlink:title="Initialize anoncoin. ">
<polygon fill="white" stroke="black" points="569,-38.5 569,-57.5 622,-57.5 622,-38.5 569,-38.5"/>
<text text-anchor="middle" x="595.5" y="-45.5" font-family="Helvetica,sans-Serif" font-size="10.00">AppInit2</text>
</a>
</g>
</g>
<!-- Node4&#45;&gt;Node5 -->
<g id="edge4" class="edge"><title>Node4&#45;&gt;Node5</title>
<path fill="none" stroke="midnightblue" d="M543.243,-48C551.959,-48 560.944,-48 568.91,-48"/>
<polygon fill="midnightblue" stroke="midnightblue" points="543.214,-44.5001 533.214,-48 543.214,-51.5001 543.214,-44.5001"/>
</g>
<!-- Node6 -->
<g id="node6" class="node"><title>Node6</title>
<g id="a_node6"><a xlink:href="anoncoind_8cpp.html#ac59316b767e6984e1285f0531275286b" target="_top" xlink:title="AppInit">
<polygon fill="white" stroke="black" points="694,-57.5 694,-76.5 742,-76.5 742,-57.5 694,-57.5"/>
<text text-anchor="middle" x="718" y="-64.5" font-family="Helvetica,sans-Serif" font-size="10.00">AppInit</text>
</a>
</g>
</g>
<!-- Node5&#45;&gt;Node6 -->
<g id="edge5" class="edge"><title>Node5&#45;&gt;Node6</title>
<path fill="none" stroke="midnightblue" d="M632.05,-53.6053C652.041,-56.7576 676.421,-60.6017 693.927,-63.3619"/>
<polygon fill="midnightblue" stroke="midnightblue" points="632.478,-50.1297 622.055,-52.0294 631.388,-57.0443 632.478,-50.1297"/>
</g>
<!-- Node8 -->
<g id="node8" class="node"><title>Node8</title>
<g id="a_node8"><a xlink:href="class_anoncoin_coin.html#a9510881824d283404ac43414dbb74586" target="_top" xlink:title="AnoncoinCoin::initialize">
<polygon fill="white" stroke="black" points="658,-19.5 658,-38.5 778,-38.5 778,-19.5 658,-19.5"/>
<text text-anchor="middle" x="718" y="-26.5" font-family="Helvetica,sans-Serif" font-size="10.00">AnoncoinCoin::initialize</text>
</a>
</g>
</g>
<!-- Node5&#45;&gt;Node8 -->
<g id="edge7" class="edge"><title>Node5&#45;&gt;Node8</title>
<path fill="none" stroke="midnightblue" d="M632.186,-42.3732C640.249,-41.1018 649.021,-39.7186 657.765,-38.34"/>
<polygon fill="midnightblue" stroke="midnightblue" points="631.388,-38.9557 622.055,-43.9706 632.478,-45.8703 631.388,-38.9557"/>
</g>
<!-- Node7 -->
<g id="node7" class="node"><title>Node7</title>
<g id="a_node7"><a xlink:href="anoncoind_8cpp.html#a0ddf1224851353fc92bfbff6f499fa97" target="_top" xlink:title="main">
<polygon fill="white" stroke="black" points="814,-57.5 814,-76.5 852,-76.5 852,-57.5 814,-57.5"/>
<text text-anchor="middle" x="833" y="-64.5" font-family="Helvetica,sans-Serif" font-size="10.00">main</text>
</a>
</g>
</g>
<!-- Node6&#45;&gt;Node7 -->
<g id="edge6" class="edge"><title>Node6&#45;&gt;Node7</title>
<path fill="none" stroke="midnightblue" d="M752.146,-67C772.247,-67 797.134,-67 813.731,-67"/>
<polygon fill="midnightblue" stroke="midnightblue" points="752.14,-63.5001 742.14,-67 752.14,-70.5001 752.14,-63.5001"/>
</g>
<!-- Node9&#45;&gt;Node4 -->
<g id="edge9" class="edge"><title>Node9&#45;&gt;Node4</title>
<path fill="none" stroke="midnightblue" d="M439.843,-39.9026C450.85,-41.3599 461.516,-42.7722 470.776,-43.9982"/>
<polygon fill="midnightblue" stroke="midnightblue" points="440.043,-36.3986 429.67,-38.5557 439.124,-43.3381 440.043,-36.3986"/>
</g>
</g>
</svg>
