<?xml version="1.0" encoding="UTF-8" standalone="no"?>
<!DOCTYPE svg PUBLIC "-//W3C//DTD SVG 1.1//EN"
 "http://www.w3.org/Graphics/SVG/1.1/DTD/svg11.dtd">
<!-- Generated by graphviz version 2.38.0 (20140413.2041)
 -->
<!-- Title: GetLocalAddress Pages: 1 -->
<svg width="349pt" height="85pt"
 viewBox="0.00 0.00 349.00 85.00" xmlns="http://www.w3.org/2000/svg" xmlns:xlink="http://www.w3.org/1999/xlink">
<g id="graph0" class="graph" transform="scale(1 1) rotate(0) translate(4 81)">
<title>GetLocalAddress</title>
<polygon fill="white" stroke="none" points="-4,4 -4,-81 345,-81 345,4 -4,4"/>
<!-- Node1 -->
<g id="node1" class="node"><title>Node1</title>
<polygon fill="#bfbfbf" stroke="black" points="0,-38.5 0,-57.5 93,-57.5 93,-38.5 0,-38.5"/>
<text text-anchor="middle" x="46.5" y="-45.5" font-family="Helvetica,sans-Serif" font-size="10.00">GetLocalAddress</text>
</g>
<!-- Node2 -->
<g id="node2" class="node"><title>Node2</title>
<g id="a_node2"><a xlink:href="net_8cpp.html#a51605827c953a7843f9b165eada26857" target="_top" xlink:title="GetLocal">
<polygon fill="white" stroke="black" points="147.5,-57.5 147.5,-76.5 204.5,-76.5 204.5,-57.5 147.5,-57.5"/>
<text text-anchor="middle" x="176" y="-64.5" font-family="Helvetica,sans-Serif" font-size="10.00">GetLocal</text>
</a>
</g>
</g>
<!-- Node1&#45;&gt;Node2 -->
<g id="edge1" class="edge"><title>Node1&#45;&gt;Node2</title>
<path fill="none" stroke="midnightblue" d="M93.1703,-54.8058C107.633,-56.961 123.449,-59.318 137.289,-61.3803"/>
<polygon fill="midnightblue" stroke="midnightblue" points="137.025,-64.8795 147.431,-62.8917 138.056,-57.9559 137.025,-64.8795"/>
</g>
<!-- Node3 -->
<g id="node3" class="node"><title>Node3</title>
<g id="a_node3"><a xlink:href="util_8cpp.html#a09f81b9c7650f898cf3cf305b87547e6" target="_top" xlink:title="GetAdjustedTime">
<polygon fill="white" stroke="black" points="129,-19.5 129,-38.5 223,-38.5 223,-19.5 129,-19.5"/>
<text text-anchor="middle" x="176" y="-26.5" font-family="Helvetica,sans-Serif" font-size="10.00">GetAdjustedTime</text>
</a>
</g>
</g>
<!-- Node1&#45;&gt;Node3 -->
<g id="edge2" class="edge"><title>Node1&#45;&gt;Node3</title>
<path fill="none" stroke="midnightblue" d="M93.1703,-41.1942C101.49,-39.9544 110.258,-38.6478 118.84,-37.3689"/>
<polygon fill="midnightblue" stroke="midnightblue" points="119.416,-40.8219 128.791,-35.8861 118.384,-33.8983 119.416,-40.8219"/>
</g>
<!-- Node4 -->
<g id="node4" class="node"><title>Node4</title>
<g id="a_node4"><a xlink:href="util_8cpp.html#a46fac5fba8ba905b5f9acb364f5d8c6f" target="_top" xlink:title="GetTime">
<polygon fill="white" stroke="black" points="272.5,-38.5 272.5,-57.5 327.5,-57.5 327.5,-38.5 272.5,-38.5"/>
<text text-anchor="middle" x="300" y="-45.5" font-family="Helvetica,sans-Serif" font-size="10.00">GetTime</text>
</a>
</g>
</g>
<!-- Node3&#45;&gt;Node4 -->
<g id="edge3" class="edge"><title>Node3&#45;&gt;Node4</title>
<path fill="none" stroke="midnightblue" d="M223.123,-36.1831C236.091,-38.2027 250.015,-40.3712 262.349,-42.2921"/>
<polygon fill="midnightblue" stroke="midnightblue" points="261.861,-45.7582 272.281,-43.8388 262.939,-38.8416 261.861,-45.7582"/>
</g>
<!-- Node5 -->
<g id="node5" class="node"><title>Node5</title>
<g id="a_node5"><a xlink:href="util_8cpp.html#a50ca5344c75631267633f15cfe5e983e" target="_top" xlink:title="GetTimeOffset">
<polygon fill="white" stroke="black" points="259,-0.5 259,-19.5 341,-19.5 341,-0.5 259,-0.5"/>
<text text-anchor="middle" x="300" y="-7.5" font-family="Helvetica,sans-Serif" font-size="10.00">GetTimeOffset</text>
</a>
</g>
</g>
<!-- Node3&#45;&gt;Node5 -->
<g id="edge4" class="edge"><title>Node3&#45;&gt;Node5</title>
<path fill="none" stroke="midnightblue" d="M223.123,-21.8169C231.47,-20.517 240.213,-19.1553 248.673,-17.8378"/>
<polygon fill="midnightblue" stroke="midnightblue" points="249.465,-21.2568 258.807,-16.2596 248.388,-14.3402 249.465,-21.2568"/>
</g>
</g>
</svg>
