<?xml version="1.0" encoding="UTF-8" standalone="no"?>
<!DOCTYPE svg PUBLIC "-//W3C//DTD SVG 1.1//EN"
 "http://www.w3.org/Graphics/SVG/1.1/DTD/svg11.dtd">
<!-- Generated by graphviz version 2.38.0 (20140413.2041)
 -->
<!-- Title: IsLimited Pages: 1 -->
<svg width="220pt" height="66pt"
 viewBox="0.00 0.00 220.00 66.00" xmlns="http://www.w3.org/2000/svg" xmlns:xlink="http://www.w3.org/1999/xlink">
<g id="graph0" class="graph" transform="scale(1 1) rotate(0) translate(4 62)">
<title>IsLimited</title>
<polygon fill="white" stroke="none" points="-4,4 -4,-62 216,-62 216,4 -4,4"/>
<!-- Node1 -->
<g id="node1" class="node"><title>Node1</title>
<polygon fill="#bfbfbf" stroke="black" points="0,-19.5 0,-38.5 57,-38.5 57,-19.5 0,-19.5"/>
<text text-anchor="middle" x="28.5" y="-26.5" font-family="Helvetica,sans-Serif" font-size="10.00">IsLimited</text>
</g>
<!-- Node2 -->
<g id="node2" class="node"><title>Node2</title>
<g id="a_node2"><a xlink:href="net_8cpp.html#a96eb2fba6d80870802ac787b6ada4beb" target="_top" xlink:title="IsLimited">
<polygon fill="white" stroke="black" points="124,-38.5 124,-57.5 181,-57.5 181,-38.5 124,-38.5"/>
<text text-anchor="middle" x="152.5" y="-45.5" font-family="Helvetica,sans-Serif" font-size="10.00">IsLimited</text>
</a>
</g>
</g>
<!-- Node1&#45;&gt;Node2 -->
<g id="edge1" class="edge"><title>Node1&#45;&gt;Node2</title>
<path fill="none" stroke="midnightblue" d="M57.1837,-33.3114C73.952,-35.9229 95.5655,-39.2889 113.871,-42.1397"/>
<polygon fill="midnightblue" stroke="midnightblue" points="113.506,-45.6251 123.926,-43.7057 114.584,-38.7084 113.506,-45.6251"/>
</g>
<!-- Node3 -->
<g id="node3" class="node"><title>Node3</title>
<g id="a_node3"><a xlink:href="class_c_net_addr.html#a34a4760424f5c51998fc3baf82ccb5c8" target="_top" xlink:title="CNetAddr::GetNetwork">
<polygon fill="white" stroke="black" points="93,-0.5 93,-19.5 212,-19.5 212,-0.5 93,-0.5"/>
<text text-anchor="middle" x="152.5" y="-7.5" font-family="Helvetica,sans-Serif" font-size="10.00">CNetAddr::GetNetwork</text>
</a>
</g>
</g>
<!-- Node1&#45;&gt;Node3 -->
<g id="edge2" class="edge"><title>Node1&#45;&gt;Node3</title>
<path fill="none" stroke="midnightblue" d="M57.1837,-24.6886C64.8456,-23.4954 73.5191,-22.1446 82.4264,-20.7574"/>
<polygon fill="midnightblue" stroke="midnightblue" points="83.1986,-24.1794 92.5409,-19.1822 82.1214,-17.2628 83.1986,-24.1794"/>
</g>
</g>
</svg>
