<?xml version="1.0" encoding="UTF-8" standalone="no"?>
<!DOCTYPE svg PUBLIC "-//W3C//DTD SVG 1.1//EN"
 "http://www.w3.org/Graphics/SVG/1.1/DTD/svg11.dtd">
<!-- Generated by graphviz version 2.38.0 (20140413.2041)
 -->
<!-- Title: ReceiveFloodSize Pages: 1 -->
<svg width="672pt" height="66pt"
 viewBox="0.00 0.00 672.00 66.00" xmlns="http://www.w3.org/2000/svg" xmlns:xlink="http://www.w3.org/1999/xlink">
<g id="graph0" class="graph" transform="scale(1 1) rotate(0) translate(4 62)">
<title>ReceiveFloodSize</title>
<polygon fill="white" stroke="none" points="-4,4 -4,-62 668,-62 668,4 -4,4"/>
<!-- Node1 -->
<g id="node1" class="node"><title>Node1</title>
<polygon fill="#bfbfbf" stroke="black" points="0,-19.5 0,-38.5 97,-38.5 97,-19.5 0,-19.5"/>
<text text-anchor="middle" x="48.5" y="-26.5" font-family="Helvetica,sans-Serif" font-size="10.00">ReceiveFloodSize</text>
</g>
<!-- Node2 -->
<g id="node2" class="node"><title>Node2</title>
<g id="a_node2"><a xlink:href="net_8cpp.html#aa1111c12121e039bbd8eedb556e4514a" target="_top" xlink:title="Main Thread that handling socket&#39;s &amp; their housekeeping... ">
<polygon fill="white" stroke="black" points="133,-19.5 133,-38.5 247,-38.5 247,-19.5 133,-19.5"/>
<text text-anchor="middle" x="190" y="-26.5" font-family="Helvetica,sans-Serif" font-size="10.00">ThreadSocketHandler</text>
</a>
</g>
</g>
<!-- Node1&#45;&gt;Node2 -->
<g id="edge1" class="edge"><title>Node1&#45;&gt;Node2</title>
<path fill="none" stroke="midnightblue" d="M107.301,-29C115.778,-29 124.496,-29 132.937,-29"/>
<polygon fill="midnightblue" stroke="midnightblue" points="107.118,-25.5001 97.1178,-29 107.118,-32.5001 107.118,-25.5001"/>
</g>
<!-- Node3 -->
<g id="node3" class="node"><title>Node3</title>
<g id="a_node3"><a xlink:href="net_8h.html#a9396d8054e8f74959e9391871aaddde0" target="_top" xlink:title="StartNode">
<polygon fill="white" stroke="black" points="283,-19.5 283,-38.5 345,-38.5 345,-19.5 283,-19.5"/>
<text text-anchor="middle" x="314" y="-26.5" font-family="Helvetica,sans-Serif" font-size="10.00">StartNode</text>
</a>
</g>
</g>
<!-- Node2&#45;&gt;Node3 -->
<g id="edge2" class="edge"><title>Node2&#45;&gt;Node3</title>
<path fill="none" stroke="midnightblue" d="M257.195,-29C266.204,-29 275.061,-29 282.972,-29"/>
<polygon fill="midnightblue" stroke="midnightblue" points="257.001,-25.5001 247.001,-29 257.001,-32.5001 257.001,-25.5001"/>
</g>
<!-- Node4 -->
<g id="node4" class="node"><title>Node4</title>
<g id="a_node4"><a xlink:href="init_8h.html#a1a4c1bfbf6ba1db77e988b89b9cadfd3" target="_top" xlink:title="Initialize anoncoin. ">
<polygon fill="white" stroke="black" points="381,-19.5 381,-38.5 434,-38.5 434,-19.5 381,-19.5"/>
<text text-anchor="middle" x="407.5" y="-26.5" font-family="Helvetica,sans-Serif" font-size="10.00">AppInit2</text>
</a>
</g>
</g>
<!-- Node3&#45;&gt;Node4 -->
<g id="edge3" class="edge"><title>Node3&#45;&gt;Node4</title>
<path fill="none" stroke="midnightblue" d="M355.243,-29C363.959,-29 372.944,-29 380.91,-29"/>
<polygon fill="midnightblue" stroke="midnightblue" points="355.214,-25.5001 345.214,-29 355.214,-32.5001 355.214,-25.5001"/>
</g>
<!-- Node5 -->
<g id="node5" class="node"><title>Node5</title>
<g id="a_node5"><a xlink:href="anoncoind_8cpp.html#ac59316b767e6984e1285f0531275286b" target="_top" xlink:title="AppInit">
<polygon fill="white" stroke="black" points="506,-38.5 506,-57.5 554,-57.5 554,-38.5 506,-38.5"/>
<text text-anchor="middle" x="530" y="-45.5" font-family="Helvetica,sans-Serif" font-size="10.00">AppInit</text>
</a>
</g>
</g>
<!-- Node4&#45;&gt;Node5 -->
<g id="edge4" class="edge"><title>Node4&#45;&gt;Node5</title>
<path fill="none" stroke="midnightblue" d="M444.05,-34.6053C464.041,-37.7576 488.421,-41.6017 505.927,-44.3619"/>
<polygon fill="midnightblue" stroke="midnightblue" points="444.478,-31.1297 434.055,-33.0294 443.388,-38.0443 444.478,-31.1297"/>
</g>
<!-- Node7 -->
<g id="node7" class="node"><title>Node7</title>
<g id="a_node7"><a xlink:href="class_anoncoin_coin.html#a9510881824d283404ac43414dbb74586" target="_top" xlink:title="AnoncoinCoin::initialize">
<polygon fill="white" stroke="black" points="470,-0.5 470,-19.5 590,-19.5 590,-0.5 470,-0.5"/>
<text text-anchor="middle" x="530" y="-7.5" font-family="Helvetica,sans-Serif" font-size="10.00">AnoncoinCoin::initialize</text>
</a>
</g>
</g>
<!-- Node4&#45;&gt;Node7 -->
<g id="edge6" class="edge"><title>Node4&#45;&gt;Node7</title>
<path fill="none" stroke="midnightblue" d="M444.186,-23.3732C452.249,-22.1018 461.021,-20.7186 469.765,-19.34"/>
<polygon fill="midnightblue" stroke="midnightblue" points="443.388,-19.9557 434.055,-24.9706 444.478,-26.8703 443.388,-19.9557"/>
</g>
<!-- Node6 -->
<g id="node6" class="node"><title>Node6</title>
<g id="a_node6"><a xlink:href="anoncoind_8cpp.html#a0ddf1224851353fc92bfbff6f499fa97" target="_top" xlink:title="main">
<polygon fill="white" stroke="black" points="626,-38.5 626,-57.5 664,-57.5 664,-38.5 626,-38.5"/>
<text text-anchor="middle" x="645" y="-45.5" font-family="Helvetica,sans-Serif" font-size="10.00">main</text>
</a>
</g>
</g>
<!-- Node5&#45;&gt;Node6 -->
<g id="edge5" class="edge"><title>Node5&#45;&gt;Node6</title>
<path fill="none" stroke="midnightblue" d="M564.146,-48C584.247,-48 609.134,-48 625.731,-48"/>
<polygon fill="midnightblue" stroke="midnightblue" points="564.14,-44.5001 554.14,-48 564.14,-51.5001 564.14,-44.5001"/>
</g>
</g>
</svg>
