<?xml version="1.0" encoding="UTF-8" standalone="no"?>
<!DOCTYPE svg PUBLIC "-//W3C//DTD SVG 1.1//EN"
 "http://www.w3.org/Graphics/SVG/1.1/DTD/svg11.dtd">
<!-- Generated by graphviz version 2.38.0 (20140413.2041)
 -->
<!-- Title: SplitHostPort Pages: 1 -->
<svg width="1293pt" height="268pt"
 viewBox="0.00 0.00 1293.00 267.50" xmlns="http://www.w3.org/2000/svg" xmlns:xlink="http://www.w3.org/1999/xlink">
<g id="graph0" class="graph" transform="scale(1 1) rotate(0) translate(4 263.5)">
<title>SplitHostPort</title>
<polygon fill="white" stroke="none" points="-4,4 -4,-263.5 1289,-263.5 1289,4 -4,4"/>
<!-- Node1 -->
<g id="node1" class="node"><title>Node1</title>
<polygon fill="#bfbfbf" stroke="black" points="0,-145 0,-164 75,-164 75,-145 0,-145"/>
<text text-anchor="middle" x="37.5" y="-152" font-family="Helvetica,sans-Serif" font-size="10.00">SplitHostPort</text>
</g>
<!-- Node2 -->
<g id="node2" class="node"><title>Node2</title>
<g id="a_node2"><a xlink:href="netbase_8h.html#ac025429411c7622b9781b0e5ecfb9bc2" target="_top" xlink:title="Lookup">
<polygon fill="white" stroke="black" points="423.5,-126 423.5,-145 472.5,-145 472.5,-126 423.5,-126"/>
<text text-anchor="middle" x="448" y="-133" font-family="Helvetica,sans-Serif" font-size="10.00">Lookup</text>
</a>
</g>
</g>
<!-- Node1&#45;&gt;Node2 -->
<g id="edge1" class="edge"><title>Node1&#45;&gt;Node2</title>
<path fill="none" stroke="midnightblue" d="M85.2631,-152.325C172.598,-148.263 357.588,-139.659 423.26,-136.604"/>
<polygon fill="midnightblue" stroke="midnightblue" points="84.9377,-148.836 75.1112,-152.797 85.263,-155.829 84.9377,-148.836"/>
</g>
<!-- Node15 -->
<g id="node15" class="node"><title>Node15</title>
<g id="a_node15"><a xlink:href="netbase_8h.html#a6b06ed45e08d73e435c656a4dfcb0a95" target="_top" xlink:title="ConnectSocketByName">
<polygon fill="white" stroke="black" points="111,-164 111,-183 234,-183 234,-164 111,-164"/>
<text text-anchor="middle" x="172.5" y="-171" font-family="Helvetica,sans-Serif" font-size="10.00">ConnectSocketByName</text>
</a>
</g>
</g>
<!-- Node1&#45;&gt;Node15 -->
<g id="edge15" class="edge"><title>Node1&#45;&gt;Node15</title>
<path fill="none" stroke="midnightblue" d="M85.1048,-161.158C93.4491,-162.35 102.254,-163.608 110.923,-164.846"/>
<polygon fill="midnightblue" stroke="midnightblue" points="85.5894,-157.692 75.1949,-159.742 84.5994,-164.621 85.5894,-157.692"/>
</g>
<!-- Node3 -->
<g id="node3" class="node"><title>Node3</title>
<g id="a_node3"><a xlink:href="init_8h.html#a1a4c1bfbf6ba1db77e988b89b9cadfd3" target="_top" xlink:title="Initialize anoncoin. ">
<polygon fill="white" stroke="black" points="954.5,-126 954.5,-145 1007.5,-145 1007.5,-126 954.5,-126"/>
<text text-anchor="middle" x="981" y="-133" font-family="Helvetica,sans-Serif" font-size="10.00">AppInit2</text>
</a>
</g>
</g>
<!-- Node2&#45;&gt;Node3 -->
<g id="edge2" class="edge"><title>Node2&#45;&gt;Node3</title>
<path fill="none" stroke="midnightblue" d="M469.058,-119.696C488.122,-105.757 518.227,-86.4585 548,-78.5 700.015,-37.8651 890.193,-100.891 956.166,-125.954"/>
<polygon fill="midnightblue" stroke="midnightblue" points="466.765,-117.041 460.877,-125.849 470.972,-122.636 466.765,-117.041"/>
</g>
<!-- Node7 -->
<g id="node7" class="node"><title>Node7</title>
<g id="a_node7"><a xlink:href="net_8cpp.html#a2d1ca95557ae336582b886a251e7fe94" target="_top" xlink:title="ThreadOpenAddedConnections">
<polygon fill="white" stroke="black" points="548,-202 548,-221 705,-221 705,-202 548,-202"/>
<text text-anchor="middle" x="626.5" y="-209" font-family="Helvetica,sans-Serif" font-size="10.00">ThreadOpenAddedConnections</text>
</a>
</g>
</g>
<!-- Node2&#45;&gt;Node7 -->
<g id="edge6" class="edge"><title>Node2&#45;&gt;Node7</title>
<path fill="none" stroke="midnightblue" d="M482.344,-142.086C492.344,-144.955 503.03,-148.968 512,-154.5 531.801,-166.713 527.885,-180.811 548,-192.5 554.708,-196.398 562.189,-199.5 569.785,-201.967"/>
<polygon fill="midnightblue" stroke="midnightblue" points="483.218,-138.697 472.661,-139.583 481.467,-145.474 483.218,-138.697"/>
</g>
<!-- Node9 -->
<g id="node9" class="node"><title>Node9</title>
<g id="a_node9"><a xlink:href="netbase_8h.html#a8e970007e4314e4cefa5895944ed74d8" target="_top" xlink:title="Lookup">
<polygon fill="white" stroke="black" points="602,-88 602,-107 651,-107 651,-88 602,-88"/>
<text text-anchor="middle" x="626.5" y="-95" font-family="Helvetica,sans-Serif" font-size="10.00">Lookup</text>
</a>
</g>
</g>
<!-- Node2&#45;&gt;Node9 -->
<g id="edge9" class="edge"><title>Node2&#45;&gt;Node9</title>
<path fill="none" stroke="midnightblue" d="M482.989,-128.182C517.868,-120.673 571.227,-109.185 601.792,-102.604"/>
<polygon fill="midnightblue" stroke="midnightblue" points="481.843,-124.849 472.804,-130.375 483.316,-131.692 481.843,-124.849"/>
</g>
<!-- Node10 -->
<g id="node10" class="node"><title>Node10</title>
<g id="a_node10"><a xlink:href="netbase_8h.html#a5b18d70f02be9dc489da605ff487cc66" target="_top" xlink:title="LookupNumeric">
<polygon fill="white" stroke="black" points="583,-9 583,-28 670,-28 670,-9 583,-9"/>
<text text-anchor="middle" x="626.5" y="-16" font-family="Helvetica,sans-Serif" font-size="10.00">LookupNumeric</text>
</a>
</g>
</g>
<!-- Node2&#45;&gt;Node10 -->
<g id="edge10" class="edge"><title>Node2&#45;&gt;Node10</title>
<path fill="none" stroke="midnightblue" d="M463.88,-118.29C481.97,-98.3125 514.285,-65.5508 548,-45.5 560.368,-38.1443 575.041,-32.39 588.274,-28.1184"/>
<polygon fill="midnightblue" stroke="midnightblue" points="461.06,-116.194 457.035,-125.994 466.294,-120.843 461.06,-116.194"/>
</g>
<!-- Node13 -->
<g id="node13" class="node"><title>Node13</title>
<g id="a_node13"><a xlink:href="class_c_service.html#ab8f5f4ae4e99a4edad8ba48642e36137" target="_top" xlink:title="CService::CService">
<polygon fill="white" stroke="black" points="575,-164 575,-183 678,-183 678,-164 575,-164"/>
<text text-anchor="middle" x="626.5" y="-171" font-family="Helvetica,sans-Serif" font-size="10.00">CService::CService</text>
</a>
</g>
</g>
<!-- Node2&#45;&gt;Node13 -->
<g id="edge13" class="edge"><title>Node2&#45;&gt;Node13</title>
<path fill="none" stroke="midnightblue" d="M482.876,-142.793C510.792,-148.804 550.602,-157.375 581.072,-163.935"/>
<polygon fill="midnightblue" stroke="midnightblue" points="483.316,-139.308 472.804,-140.625 481.843,-146.151 483.316,-139.308"/>
</g>
<!-- Node14 -->
<g id="node14" class="node"><title>Node14</title>
<g id="a_node14"><a xlink:href="rpcnet_8cpp.html#a2a6994d3b180c8e9ce81e0da65a41bb3" target="_top" xlink:title="getaddednodeinfo">
<polygon fill="white" stroke="black" points="578,-126 578,-145 675,-145 675,-126 578,-126"/>
<text text-anchor="middle" x="626.5" y="-133" font-family="Helvetica,sans-Serif" font-size="10.00">getaddednodeinfo</text>
</a>
</g>
</g>
<!-- Node2&#45;&gt;Node14 -->
<g id="edge14" class="edge"><title>Node2&#45;&gt;Node14</title>
<path fill="none" stroke="midnightblue" d="M482.906,-135.5C509.856,-135.5 547.879,-135.5 577.884,-135.5"/>
<polygon fill="midnightblue" stroke="midnightblue" points="482.804,-132 472.804,-135.5 482.804,-139 482.804,-132"/>
</g>
<!-- Node4 -->
<g id="node4" class="node"><title>Node4</title>
<g id="a_node4"><a xlink:href="anoncoind_8cpp.html#ac59316b767e6984e1285f0531275286b" target="_top" xlink:title="AppInit">
<polygon fill="white" stroke="black" points="1127,-145 1127,-164 1175,-164 1175,-145 1127,-145"/>
<text text-anchor="middle" x="1151" y="-152" font-family="Helvetica,sans-Serif" font-size="10.00">AppInit</text>
</a>
</g>
</g>
<!-- Node3&#45;&gt;Node4 -->
<g id="edge3" class="edge"><title>Node3&#45;&gt;Node4</title>
<path fill="none" stroke="midnightblue" d="M1017.65,-139.532C1050.65,-143.264 1098.74,-148.702 1126.95,-151.893"/>
<polygon fill="midnightblue" stroke="midnightblue" points="1017.85,-136.032 1007.52,-138.386 1017.06,-142.987 1017.85,-136.032"/>
</g>
<!-- Node6 -->
<g id="node6" class="node"><title>Node6</title>
<g id="a_node6"><a xlink:href="class_anoncoin_coin.html#a9510881824d283404ac43414dbb74586" target="_top" xlink:title="AnoncoinCoin::initialize">
<polygon fill="white" stroke="black" points="1091,-107 1091,-126 1211,-126 1211,-107 1091,-107"/>
<text text-anchor="middle" x="1151" y="-114" font-family="Helvetica,sans-Serif" font-size="10.00">AnoncoinCoin::initialize</text>
</a>
</g>
</g>
<!-- Node3&#45;&gt;Node6 -->
<g id="edge5" class="edge"><title>Node3&#45;&gt;Node6</title>
<path fill="none" stroke="midnightblue" d="M1017.69,-131.464C1038.91,-129.064 1066.35,-125.96 1090.74,-123.202"/>
<polygon fill="midnightblue" stroke="midnightblue" points="1017.06,-128.013 1007.52,-132.614 1017.85,-134.968 1017.06,-128.013"/>
</g>
<!-- Node5 -->
<g id="node5" class="node"><title>Node5</title>
<g id="a_node5"><a xlink:href="anoncoind_8cpp.html#a0ddf1224851353fc92bfbff6f499fa97" target="_top" xlink:title="main">
<polygon fill="white" stroke="black" points="1247,-145 1247,-164 1285,-164 1285,-145 1247,-145"/>
<text text-anchor="middle" x="1266" y="-152" font-family="Helvetica,sans-Serif" font-size="10.00">main</text>
</a>
</g>
</g>
<!-- Node4&#45;&gt;Node5 -->
<g id="edge4" class="edge"><title>Node4&#45;&gt;Node5</title>
<path fill="none" stroke="midnightblue" d="M1185.15,-154.5C1205.25,-154.5 1230.13,-154.5 1246.73,-154.5"/>
<polygon fill="midnightblue" stroke="midnightblue" points="1185.14,-151 1175.14,-154.5 1185.14,-158 1185.14,-151"/>
</g>
<!-- Node8 -->
<g id="node8" class="node"><title>Node8</title>
<g id="a_node8"><a xlink:href="net_8h.html#a9396d8054e8f74959e9391871aaddde0" target="_top" xlink:title="StartNode">
<polygon fill="white" stroke="black" points="775,-202 775,-221 837,-221 837,-202 775,-202"/>
<text text-anchor="middle" x="806" y="-209" font-family="Helvetica,sans-Serif" font-size="10.00">StartNode</text>
</a>
</g>
</g>
<!-- Node7&#45;&gt;Node8 -->
<g id="edge7" class="edge"><title>Node7&#45;&gt;Node8</title>
<path fill="none" stroke="midnightblue" d="M715.242,-211.5C736.653,-211.5 758.141,-211.5 774.723,-211.5"/>
<polygon fill="midnightblue" stroke="midnightblue" points="715.096,-208 705.096,-211.5 715.096,-215 715.096,-208"/>
</g>
<!-- Node8&#45;&gt;Node3 -->
<g id="edge8" class="edge"><title>Node8&#45;&gt;Node3</title>
<path fill="none" stroke="midnightblue" d="M838.109,-197.834C872.781,-182.602 927.947,-158.367 958.267,-145.047"/>
<polygon fill="midnightblue" stroke="midnightblue" points="836.658,-194.648 828.911,-201.875 839.474,-201.057 836.658,-194.648"/>
</g>
<!-- Node11 -->
<g id="node11" class="node"><title>Node11</title>
<g id="a_node11"><a xlink:href="class_options_dialog.html#ad0881b054b041e080a7cca8a0601651e" target="_top" xlink:title="OptionsDialog::doProxyIp\lChecks">
<polygon fill="white" stroke="black" points="741,-0.5 741,-30.5 871,-30.5 871,-0.5 741,-0.5"/>
<text text-anchor="start" x="749" y="-18.5" font-family="Helvetica,sans-Serif" font-size="10.00">OptionsDialog::doProxyIp</text>
<text text-anchor="middle" x="806" y="-7.5" font-family="Helvetica,sans-Serif" font-size="10.00">Checks</text>
</a>
</g>
</g>
<!-- Node10&#45;&gt;Node11 -->
<g id="edge11" class="edge"><title>Node10&#45;&gt;Node11</title>
<path fill="none" stroke="midnightblue" d="M680.033,-17.6121C699.148,-17.289 720.968,-16.9203 740.968,-16.5822"/>
<polygon fill="midnightblue" stroke="midnightblue" points="679.955,-14.1128 670.016,-17.7814 680.073,-21.1118 679.955,-14.1128"/>
</g>
<!-- Node12 -->
<g id="node12" class="node"><title>Node12</title>
<g id="a_node12"><a xlink:href="class_options_dialog.html#a8131b615e29560144ffb368b9b07060a" target="_top" xlink:title="OptionsDialog::OptionsDialog">
<polygon fill="white" stroke="black" points="907,-6 907,-25 1055,-25 1055,-6 907,-6"/>
<text text-anchor="middle" x="981" y="-13" font-family="Helvetica,sans-Serif" font-size="10.00">OptionsDialog::OptionsDialog</text>
</a>
</g>
</g>
<!-- Node11&#45;&gt;Node12 -->
<g id="edge12" class="edge"><title>Node11&#45;&gt;Node12</title>
<path fill="none" stroke="midnightblue" d="M881.535,-15.5C889.908,-15.5 898.433,-15.5 906.789,-15.5"/>
<polygon fill="midnightblue" stroke="midnightblue" points="881.419,-12.0001 871.419,-15.5 881.419,-19.0001 881.419,-12.0001"/>
</g>
<!-- Node16 -->
<g id="node16" class="node"><title>Node16</title>
<g id="a_node16"><a xlink:href="net_8h.html#a718dfaec68eabf5a2a3ebb476bf4fe67" target="_top" xlink:title="ConnectNode">
<polygon fill="white" stroke="black" points="270,-164 270,-183 348,-183 348,-164 270,-164"/>
<text text-anchor="middle" x="309" y="-171" font-family="Helvetica,sans-Serif" font-size="10.00">ConnectNode</text>
</a>
</g>
</g>
<!-- Node15&#45;&gt;Node16 -->
<g id="edge16" class="edge"><title>Node15&#45;&gt;Node16</title>
<path fill="none" stroke="midnightblue" d="M244.332,-173.5C253.079,-173.5 261.746,-173.5 269.737,-173.5"/>
<polygon fill="midnightblue" stroke="midnightblue" points="244.061,-170 234.061,-173.5 244.061,-177 244.061,-170"/>
</g>
<!-- Node17 -->
<g id="node17" class="node"><title>Node17</title>
<g id="a_node17"><a xlink:href="net_8cpp.html#aa19cb8e6cf23a990e585f2bbf9ece276" target="_top" xlink:title="OpenNetworkConnection">
<polygon fill="white" stroke="black" points="384,-202 384,-221 512,-221 512,-202 384,-202"/>
<text text-anchor="middle" x="448" y="-209" font-family="Helvetica,sans-Serif" font-size="10.00">OpenNetworkConnection</text>
</a>
</g>
</g>
<!-- Node16&#45;&gt;Node17 -->
<g id="edge17" class="edge"><title>Node16&#45;&gt;Node17</title>
<path fill="none" stroke="midnightblue" d="M354.411,-185.818C373.234,-191.039 394.838,-197.032 412.44,-201.914"/>
<polygon fill="midnightblue" stroke="midnightblue" points="355.143,-182.389 344.571,-183.089 353.272,-189.135 355.143,-182.389"/>
</g>
<!-- Node19 -->
<g id="node19" class="node"><title>Node19</title>
<g id="a_node19"><a xlink:href="rpcnet_8cpp.html#ab455bfd729ba34d3bb55b716e62405a3" target="_top" xlink:title="addnode">
<polygon fill="white" stroke="black" points="420.5,-164 420.5,-183 475.5,-183 475.5,-164 420.5,-164"/>
<text text-anchor="middle" x="448" y="-171" font-family="Helvetica,sans-Serif" font-size="10.00">addnode</text>
</a>
</g>
</g>
<!-- Node16&#45;&gt;Node19 -->
<g id="edge21" class="edge"><title>Node16&#45;&gt;Node19</title>
<path fill="none" stroke="midnightblue" d="M358.433,-173.5C379.237,-173.5 402.75,-173.5 420.318,-173.5"/>
<polygon fill="midnightblue" stroke="midnightblue" points="358.162,-170 348.162,-173.5 358.162,-177 358.162,-170"/>
</g>
<!-- Node17&#45;&gt;Node7 -->
<g id="edge20" class="edge"><title>Node17&#45;&gt;Node7</title>
<path fill="none" stroke="midnightblue" d="M522.394,-211.5C530.826,-211.5 539.444,-211.5 547.929,-211.5"/>
<polygon fill="midnightblue" stroke="midnightblue" points="522.222,-208 512.222,-211.5 522.222,-215 522.222,-208"/>
</g>
<!-- Node18 -->
<g id="node18" class="node"><title>Node18</title>
<g id="a_node18"><a xlink:href="net_8cpp.html#a3b4720330e61127963a43df26b80f804" target="_top" xlink:title="ThreadOpenConnections">
<polygon fill="white" stroke="black" points="562.5,-240 562.5,-259 690.5,-259 690.5,-240 562.5,-240"/>
<text text-anchor="middle" x="626.5" y="-247" font-family="Helvetica,sans-Serif" font-size="10.00">ThreadOpenConnections</text>
</a>
</g>
</g>
<!-- Node17&#45;&gt;Node18 -->
<g id="edge18" class="edge"><title>Node17&#45;&gt;Node18</title>
<path fill="none" stroke="midnightblue" d="M503.588,-223.253C528.545,-228.626 557.727,-234.909 581.282,-239.98"/>
<polygon fill="midnightblue" stroke="midnightblue" points="504.051,-219.772 493.538,-221.089 502.578,-226.615 504.051,-219.772"/>
</g>
<!-- Node18&#45;&gt;Node8 -->
<g id="edge19" class="edge"><title>Node18&#45;&gt;Node8</title>
<path fill="none" stroke="midnightblue" d="M682.345,-237.759C712.774,-231.244 749.462,-223.39 774.739,-217.978"/>
<polygon fill="midnightblue" stroke="midnightblue" points="681.336,-234.395 672.291,-239.911 682.802,-241.24 681.336,-234.395"/>
</g>
</g>
</svg>
