<?xml version="1.0" encoding="UTF-8" standalone="no"?>
<!DOCTYPE svg PUBLIC "-//W3C//DTD SVG 1.1//EN"
 "http://www.w3.org/Graphics/SVG/1.1/DTD/svg11.dtd">
<!-- Generated by graphviz version 2.38.0 (20140413.2041)
 -->
<!-- Title: GetNameProxy Pages: 1 -->
<svg width="1140pt" height="85pt"
 viewBox="0.00 0.00 1140.00 85.00" xmlns="http://www.w3.org/2000/svg" xmlns:xlink="http://www.w3.org/1999/xlink">
<g id="graph0" class="graph" transform="scale(1 1) rotate(0) translate(4 81)">
<title>GetNameProxy</title>
<polygon fill="white" stroke="none" points="-4,4 -4,-81 1136,-81 1136,4 -4,4"/>
<!-- Node1 -->
<g id="node1" class="node"><title>Node1</title>
<polygon fill="#bfbfbf" stroke="black" points="0,-19.5 0,-38.5 85,-38.5 85,-19.5 0,-19.5"/>
<text text-anchor="middle" x="42.5" y="-26.5" font-family="Helvetica,sans-Serif" font-size="10.00">GetNameProxy</text>
</g>
<!-- Node2 -->
<g id="node2" class="node"><title>Node2</title>
<g id="a_node2"><a xlink:href="netbase_8h.html#a6b06ed45e08d73e435c656a4dfcb0a95" target="_top" xlink:title="ConnectSocketByName">
<polygon fill="white" stroke="black" points="121,-19.5 121,-38.5 244,-38.5 244,-19.5 121,-19.5"/>
<text text-anchor="middle" x="182.5" y="-26.5" font-family="Helvetica,sans-Serif" font-size="10.00">ConnectSocketByName</text>
</a>
</g>
</g>
<!-- Node1&#45;&gt;Node2 -->
<g id="edge1" class="edge"><title>Node1&#45;&gt;Node2</title>
<path fill="none" stroke="midnightblue" d="M95.5031,-29C103.751,-29 112.345,-29 120.771,-29"/>
<polygon fill="midnightblue" stroke="midnightblue" points="95.2791,-25.5001 85.279,-29 95.279,-32.5001 95.2791,-25.5001"/>
</g>
<!-- Node3 -->
<g id="node3" class="node"><title>Node3</title>
<g id="a_node3"><a xlink:href="net_8h.html#a718dfaec68eabf5a2a3ebb476bf4fe67" target="_top" xlink:title="ConnectNode">
<polygon fill="white" stroke="black" points="280,-19.5 280,-38.5 358,-38.5 358,-19.5 280,-19.5"/>
<text text-anchor="middle" x="319" y="-26.5" font-family="Helvetica,sans-Serif" font-size="10.00">ConnectNode</text>
</a>
</g>
</g>
<!-- Node2&#45;&gt;Node3 -->
<g id="edge2" class="edge"><title>Node2&#45;&gt;Node3</title>
<path fill="none" stroke="midnightblue" d="M254.332,-29C263.079,-29 271.746,-29 279.737,-29"/>
<polygon fill="midnightblue" stroke="midnightblue" points="254.061,-25.5001 244.061,-29 254.061,-32.5001 254.061,-25.5001"/>
</g>
<!-- Node4 -->
<g id="node4" class="node"><title>Node4</title>
<g id="a_node4"><a xlink:href="net_8cpp.html#aa19cb8e6cf23a990e585f2bbf9ece276" target="_top" xlink:title="OpenNetworkConnection">
<polygon fill="white" stroke="black" points="394,-38.5 394,-57.5 522,-57.5 522,-38.5 394,-38.5"/>
<text text-anchor="middle" x="458" y="-45.5" font-family="Helvetica,sans-Serif" font-size="10.00">OpenNetworkConnection</text>
</a>
</g>
</g>
<!-- Node3&#45;&gt;Node4 -->
<g id="edge3" class="edge"><title>Node3&#45;&gt;Node4</title>
<path fill="none" stroke="midnightblue" d="M368.07,-35.6666C376.404,-36.8224 385.181,-38.0398 393.845,-39.2412"/>
<polygon fill="midnightblue" stroke="midnightblue" points="368.548,-32.1995 358.162,-34.2926 367.587,-39.1332 368.548,-32.1995"/>
</g>
<!-- Node12 -->
<g id="node12" class="node"><title>Node12</title>
<g id="a_node12"><a xlink:href="rpcnet_8cpp.html#ab455bfd729ba34d3bb55b716e62405a3" target="_top" xlink:title="addnode">
<polygon fill="white" stroke="black" points="430.5,-0.5 430.5,-19.5 485.5,-19.5 485.5,-0.5 430.5,-0.5"/>
<text text-anchor="middle" x="458" y="-7.5" font-family="Helvetica,sans-Serif" font-size="10.00">addnode</text>
</a>
</g>
</g>
<!-- Node3&#45;&gt;Node12 -->
<g id="edge12" class="edge"><title>Node3&#45;&gt;Node12</title>
<path fill="none" stroke="midnightblue" d="M368.148,-22.3225C389.022,-19.4275 412.67,-16.148 430.318,-13.7004"/>
<polygon fill="midnightblue" stroke="midnightblue" points="367.587,-18.8668 358.162,-23.7074 368.548,-25.8005 367.587,-18.8668"/>
</g>
<!-- Node5 -->
<g id="node5" class="node"><title>Node5</title>
<g id="a_node5"><a xlink:href="net_8cpp.html#a3b4720330e61127963a43df26b80f804" target="_top" xlink:title="ThreadOpenConnections">
<polygon fill="white" stroke="black" points="572.5,-57.5 572.5,-76.5 700.5,-76.5 700.5,-57.5 572.5,-57.5"/>
<text text-anchor="middle" x="636.5" y="-64.5" font-family="Helvetica,sans-Serif" font-size="10.00">ThreadOpenConnections</text>
</a>
</g>
</g>
<!-- Node4&#45;&gt;Node5 -->
<g id="edge4" class="edge"><title>Node4&#45;&gt;Node5</title>
<path fill="none" stroke="midnightblue" d="M532.301,-55.8907C545.628,-57.3254 559.423,-58.8104 572.423,-60.2098"/>
<polygon fill="midnightblue" stroke="midnightblue" points="532.539,-52.3963 522.222,-54.8058 531.79,-59.3561 532.539,-52.3963"/>
</g>
<!-- Node11 -->
<g id="node11" class="node"><title>Node11</title>
<g id="a_node11"><a xlink:href="net_8cpp.html#a2d1ca95557ae336582b886a251e7fe94" target="_top" xlink:title="ThreadOpenAddedConnections">
<polygon fill="white" stroke="black" points="558,-19.5 558,-38.5 715,-38.5 715,-19.5 558,-19.5"/>
<text text-anchor="middle" x="636.5" y="-26.5" font-family="Helvetica,sans-Serif" font-size="10.00">ThreadOpenAddedConnections</text>
</a>
</g>
</g>
<!-- Node4&#45;&gt;Node11 -->
<g id="edge10" class="edge"><title>Node4&#45;&gt;Node11</title>
<path fill="none" stroke="midnightblue" d="M532.394,-40.0993C540.826,-39.1916 549.444,-38.2638 557.929,-37.3504"/>
<polygon fill="midnightblue" stroke="midnightblue" points="531.79,-36.6439 522.222,-41.1942 532.539,-43.6037 531.79,-36.6439"/>
</g>
<!-- Node6 -->
<g id="node6" class="node"><title>Node6</title>
<g id="a_node6"><a xlink:href="net_8h.html#a9396d8054e8f74959e9391871aaddde0" target="_top" xlink:title="StartNode">
<polygon fill="white" stroke="black" points="751,-38.5 751,-57.5 813,-57.5 813,-38.5 751,-38.5"/>
<text text-anchor="middle" x="782" y="-45.5" font-family="Helvetica,sans-Serif" font-size="10.00">StartNode</text>
</a>
</g>
</g>
<!-- Node5&#45;&gt;Node6 -->
<g id="edge5" class="edge"><title>Node5&#45;&gt;Node6</title>
<path fill="none" stroke="midnightblue" d="M711.111,-57.2536C725.209,-55.3869 739.212,-53.5329 750.94,-51.9801"/>
<polygon fill="midnightblue" stroke="midnightblue" points="710.313,-53.8286 700.859,-58.611 711.232,-60.7681 710.313,-53.8286"/>
</g>
<!-- Node7 -->
<g id="node7" class="node"><title>Node7</title>
<g id="a_node7"><a xlink:href="init_8h.html#a1a4c1bfbf6ba1db77e988b89b9cadfd3" target="_top" xlink:title="Initialize anoncoin. ">
<polygon fill="white" stroke="black" points="849,-38.5 849,-57.5 902,-57.5 902,-38.5 849,-38.5"/>
<text text-anchor="middle" x="875.5" y="-45.5" font-family="Helvetica,sans-Serif" font-size="10.00">AppInit2</text>
</a>
</g>
</g>
<!-- Node6&#45;&gt;Node7 -->
<g id="edge6" class="edge"><title>Node6&#45;&gt;Node7</title>
<path fill="none" stroke="midnightblue" d="M823.243,-48C831.959,-48 840.944,-48 848.91,-48"/>
<polygon fill="midnightblue" stroke="midnightblue" points="823.214,-44.5001 813.214,-48 823.214,-51.5001 823.214,-44.5001"/>
</g>
<!-- Node8 -->
<g id="node8" class="node"><title>Node8</title>
<g id="a_node8"><a xlink:href="anoncoind_8cpp.html#ac59316b767e6984e1285f0531275286b" target="_top" xlink:title="AppInit">
<polygon fill="white" stroke="black" points="974,-57.5 974,-76.5 1022,-76.5 1022,-57.5 974,-57.5"/>
<text text-anchor="middle" x="998" y="-64.5" font-family="Helvetica,sans-Serif" font-size="10.00">AppInit</text>
</a>
</g>
</g>
<!-- Node7&#45;&gt;Node8 -->
<g id="edge7" class="edge"><title>Node7&#45;&gt;Node8</title>
<path fill="none" stroke="midnightblue" d="M912.05,-53.6053C932.041,-56.7576 956.421,-60.6017 973.927,-63.3619"/>
<polygon fill="midnightblue" stroke="midnightblue" points="912.478,-50.1297 902.055,-52.0294 911.388,-57.0443 912.478,-50.1297"/>
</g>
<!-- Node10 -->
<g id="node10" class="node"><title>Node10</title>
<g id="a_node10"><a xlink:href="class_anoncoin_coin.html#a9510881824d283404ac43414dbb74586" target="_top" xlink:title="AnoncoinCoin::initialize">
<polygon fill="white" stroke="black" points="938,-19.5 938,-38.5 1058,-38.5 1058,-19.5 938,-19.5"/>
<text text-anchor="middle" x="998" y="-26.5" font-family="Helvetica,sans-Serif" font-size="10.00">AnoncoinCoin::initialize</text>
</a>
</g>
</g>
<!-- Node7&#45;&gt;Node10 -->
<g id="edge9" class="edge"><title>Node7&#45;&gt;Node10</title>
<path fill="none" stroke="midnightblue" d="M912.186,-42.3732C920.249,-41.1018 929.021,-39.7186 937.765,-38.34"/>
<polygon fill="midnightblue" stroke="midnightblue" points="911.388,-38.9557 902.055,-43.9706 912.478,-45.8703 911.388,-38.9557"/>
</g>
<!-- Node9 -->
<g id="node9" class="node"><title>Node9</title>
<g id="a_node9"><a xlink:href="anoncoind_8cpp.html#a0ddf1224851353fc92bfbff6f499fa97" target="_top" xlink:title="main">
<polygon fill="white" stroke="black" points="1094,-57.5 1094,-76.5 1132,-76.5 1132,-57.5 1094,-57.5"/>
<text text-anchor="middle" x="1113" y="-64.5" font-family="Helvetica,sans-Serif" font-size="10.00">main</text>
</a>
</g>
</g>
<!-- Node8&#45;&gt;Node9 -->
<g id="edge8" class="edge"><title>Node8&#45;&gt;Node9</title>
<path fill="none" stroke="midnightblue" d="M1032.15,-67C1052.25,-67 1077.13,-67 1093.73,-67"/>
<polygon fill="midnightblue" stroke="midnightblue" points="1032.14,-63.5001 1022.14,-67 1032.14,-70.5001 1032.14,-63.5001"/>
</g>
<!-- Node11&#45;&gt;Node6 -->
<g id="edge11" class="edge"><title>Node11&#45;&gt;Node6</title>
<path fill="none" stroke="midnightblue" d="M719.843,-39.9026C730.85,-41.3599 741.516,-42.7722 750.776,-43.9982"/>
<polygon fill="midnightblue" stroke="midnightblue" points="720.043,-36.3986 709.67,-38.5557 719.124,-43.3381 720.043,-36.3986"/>
</g>
</g>
</svg>
