<?xml version="1.0" encoding="UTF-8" standalone="no"?>
<!DOCTYPE svg PUBLIC "-//W3C//DTD SVG 1.1//EN"
 "http://www.w3.org/Graphics/SVG/1.1/DTD/svg11.dtd">
<!-- Generated by graphviz version 2.38.0 (20140413.2041)
 -->
<!-- Title: SetProxy Pages: 1 -->
<svg width="384pt" height="66pt"
 viewBox="0.00 0.00 384.00 66.00" xmlns="http://www.w3.org/2000/svg" xmlns:xlink="http://www.w3.org/1999/xlink">
<g id="graph0" class="graph" transform="scale(1 1) rotate(0) translate(4 62)">
<title>SetProxy</title>
<polygon fill="white" stroke="none" points="-4,4 -4,-62 380,-62 380,4 -4,4"/>
<!-- Node1 -->
<g id="node1" class="node"><title>Node1</title>
<polygon fill="#bfbfbf" stroke="black" points="0,-19.5 0,-38.5 57,-38.5 57,-19.5 0,-19.5"/>
<text text-anchor="middle" x="28.5" y="-26.5" font-family="Helvetica,sans-Serif" font-size="10.00">SetProxy</text>
</g>
<!-- Node2 -->
<g id="node2" class="node"><title>Node2</title>
<g id="a_node2"><a xlink:href="init_8h.html#a1a4c1bfbf6ba1db77e988b89b9cadfd3" target="_top" xlink:title="Initialize anoncoin. ">
<polygon fill="white" stroke="black" points="93,-19.5 93,-38.5 146,-38.5 146,-19.5 93,-19.5"/>
<text text-anchor="middle" x="119.5" y="-26.5" font-family="Helvetica,sans-Serif" font-size="10.00">AppInit2</text>
</a>
</g>
</g>
<!-- Node1&#45;&gt;Node2 -->
<g id="edge1" class="edge"><title>Node1&#45;&gt;Node2</title>
<path fill="none" stroke="midnightblue" d="M67.4303,-29C76.0502,-29 85.0063,-29 92.9664,-29"/>
<polygon fill="midnightblue" stroke="midnightblue" points="67.1723,-25.5001 57.1723,-29 67.1723,-32.5001 67.1723,-25.5001"/>
</g>
<!-- Node3 -->
<g id="node3" class="node"><title>Node3</title>
<g id="a_node3"><a xlink:href="anoncoind_8cpp.html#ac59316b767e6984e1285f0531275286b" target="_top" xlink:title="AppInit">
<polygon fill="white" stroke="black" points="218,-38.5 218,-57.5 266,-57.5 266,-38.5 218,-38.5"/>
<text text-anchor="middle" x="242" y="-45.5" font-family="Helvetica,sans-Serif" font-size="10.00">AppInit</text>
</a>
</g>
</g>
<!-- Node2&#45;&gt;Node3 -->
<g id="edge2" class="edge"><title>Node2&#45;&gt;Node3</title>
<path fill="none" stroke="midnightblue" d="M156.05,-34.6053C176.041,-37.7576 200.421,-41.6017 217.927,-44.3619"/>
<polygon fill="midnightblue" stroke="midnightblue" points="156.478,-31.1297 146.055,-33.0294 155.388,-38.0443 156.478,-31.1297"/>
</g>
<!-- Node5 -->
<g id="node5" class="node"><title>Node5</title>
<g id="a_node5"><a xlink:href="class_anoncoin_coin.html#a9510881824d283404ac43414dbb74586" target="_top" xlink:title="AnoncoinCoin::initialize">
<polygon fill="white" stroke="black" points="182,-0.5 182,-19.5 302,-19.5 302,-0.5 182,-0.5"/>
<text text-anchor="middle" x="242" y="-7.5" font-family="Helvetica,sans-Serif" font-size="10.00">AnoncoinCoin::initialize</text>
</a>
</g>
</g>
<!-- Node2&#45;&gt;Node5 -->
<g id="edge4" class="edge"><title>Node2&#45;&gt;Node5</title>
<path fill="none" stroke="midnightblue" d="M156.186,-23.3732C164.249,-22.1018 173.021,-20.7186 181.765,-19.34"/>
<polygon fill="midnightblue" stroke="midnightblue" points="155.388,-19.9557 146.055,-24.9706 156.478,-26.8703 155.388,-19.9557"/>
</g>
<!-- Node4 -->
<g id="node4" class="node"><title>Node4</title>
<g id="a_node4"><a xlink:href="anoncoind_8cpp.html#a0ddf1224851353fc92bfbff6f499fa97" target="_top" xlink:title="main">
<polygon fill="white" stroke="black" points="338,-38.5 338,-57.5 376,-57.5 376,-38.5 338,-38.5"/>
<text text-anchor="middle" x="357" y="-45.5" font-family="Helvetica,sans-Serif" font-size="10.00">main</text>
</a>
</g>
</g>
<!-- Node3&#45;&gt;Node4 -->
<g id="edge3" class="edge"><title>Node3&#45;&gt;Node4</title>
<path fill="none" stroke="midnightblue" d="M276.146,-48C296.247,-48 321.134,-48 337.731,-48"/>
<polygon fill="midnightblue" stroke="midnightblue" points="276.14,-44.5001 266.14,-48 276.14,-51.5001 276.14,-44.5001"/>
</g>
</g>
</svg>
