<?xml version="1.0" encoding="UTF-8" standalone="no"?>
<!DOCTYPE svg PUBLIC "-//W3C//DTD SVG 1.1//EN"
 "http://www.w3.org/Graphics/SVG/1.1/DTD/svg11.dtd">
<!-- Generated by graphviz version 2.38.0 (20140413.2041)
 -->
<!-- Title: src/qt/notificator.cpp Pages: 1 -->
<svg width="951pt" height="140pt"
 viewBox="0.00 0.00 950.50 140.00" xmlns="http://www.w3.org/2000/svg" xmlns:xlink="http://www.w3.org/1999/xlink">
<g id="graph0" class="graph" transform="scale(1 1) rotate(0) translate(4 136)">
<title>src/qt/notificator.cpp</title>
<polygon fill="white" stroke="none" points="-4,4 -4,-136 946.5,-136 946.5,4 -4,4"/>
<!-- Node1 -->
<g id="node1" class="node"><title>Node1</title>
<polygon fill="#bfbfbf" stroke="black" points="399.5,-112.5 399.5,-131.5 505.5,-131.5 505.5,-112.5 399.5,-112.5"/>
<text text-anchor="middle" x="452.5" y="-119.5" font-family="Helvetica,sans-Serif" font-size="10.00">src/qt/notificator.cpp</text>
</g>
<!-- Node2 -->
<g id="node2" class="node"><title>Node2</title>
<g id="a_node2"><a xlink:href="notificator_8h.html" target="_top" xlink:title="notificator.h">
<polygon fill="white" stroke="black" points="49.5,-56.5 49.5,-75.5 117.5,-75.5 117.5,-56.5 49.5,-56.5"/>
<text text-anchor="middle" x="83.5" y="-63.5" font-family="Helvetica,sans-Serif" font-size="10.00">notificator.h</text>
</a>
</g>
</g>
<!-- Node1&#45;&gt;Node2 -->
<g id="edge1" class="edge"><title>Node1&#45;&gt;Node2</title>
<path fill="none" stroke="midnightblue" d="M399.424,-114.713C334.945,-106.83 222.945,-92.3518 127.5,-76 127.399,-75.9827 127.298,-75.9654 127.197,-75.948"/>
<polygon fill="midnightblue" stroke="midnightblue" points="128.035,-72.543 117.569,-74.1935 126.78,-79.4296 128.035,-72.543"/>
</g>
<!-- Node3 -->
<g id="node3" class="node"><title>Node3</title>
<polygon fill="white" stroke="#bfbfbf" points="0,-0.5 0,-19.5 43,-19.5 43,-0.5 0,-0.5"/>
<text text-anchor="middle" x="21.5" y="-7.5" font-family="Helvetica,sans-Serif" font-size="10.00">QIcon</text>
</g>
<!-- Node1&#45;&gt;Node3 -->
<g id="edge6" class="edge"><title>Node1&#45;&gt;Node3</title>
<path fill="none" stroke="midnightblue" d="M399.264,-118.454C294.094,-112.958 67.486,-98.6196 40.5,-76 27.145,-64.8059 22.8854,-44.785 21.6659,-29.9108"/>
<polygon fill="midnightblue" stroke="midnightblue" points="25.1563,-29.6098 21.2257,-19.7711 18.1629,-29.9135 25.1563,-29.6098"/>
</g>
<!-- Node5 -->
<g id="node5" class="node"><title>Node5</title>
<polygon fill="white" stroke="#bfbfbf" points="136,-56.5 136,-75.5 209,-75.5 209,-56.5 136,-56.5"/>
<text text-anchor="middle" x="172.5" y="-63.5" font-family="Helvetica,sans-Serif" font-size="10.00">QApplication</text>
</g>
<!-- Node1&#45;&gt;Node5 -->
<g id="edge4" class="edge"><title>Node1&#45;&gt;Node5</title>
<path fill="none" stroke="midnightblue" d="M408.068,-112.499C363.107,-103.888 291.309,-90.1093 219.314,-76.1529"/>
<polygon fill="midnightblue" stroke="midnightblue" points="219.64,-72.651 209.156,-74.1829 218.307,-79.5229 219.64,-72.651"/>
</g>
<!-- Node6 -->
<g id="node6" class="node"><title>Node6</title>
<polygon fill="white" stroke="#bfbfbf" points="227.5,-56.5 227.5,-75.5 295.5,-75.5 295.5,-56.5 227.5,-56.5"/>
<text text-anchor="middle" x="261.5" y="-63.5" font-family="Helvetica,sans-Serif" font-size="10.00">QByteArray</text>
</g>
<!-- Node1&#45;&gt;Node6 -->
<g id="edge5" class="edge"><title>Node1&#45;&gt;Node6</title>
<path fill="none" stroke="midnightblue" d="M422.235,-112.444C389.545,-103.201 337.318,-88.4356 301.317,-78.2572"/>
<polygon fill="midnightblue" stroke="midnightblue" points="302.198,-74.8691 291.623,-75.5164 300.294,-81.6051 302.198,-74.8691"/>
</g>
<!-- Node7 -->
<g id="node7" class="node"><title>Node7</title>
<polygon fill="white" stroke="#bfbfbf" points="314,-56.5 314,-75.5 393,-75.5 393,-56.5 314,-56.5"/>
<text text-anchor="middle" x="353.5" y="-63.5" font-family="Helvetica,sans-Serif" font-size="10.00">QImageWriter</text>
</g>
<!-- Node1&#45;&gt;Node7 -->
<g id="edge7" class="edge"><title>Node1&#45;&gt;Node7</title>
<path fill="none" stroke="midnightblue" d="M436.594,-112.324C420.862,-103.743 396.558,-90.486 378.291,-80.5224"/>
<polygon fill="midnightblue" stroke="midnightblue" points="379.822,-77.3704 369.367,-75.6545 376.47,-83.5157 379.822,-77.3704"/>
</g>
<!-- Node8 -->
<g id="node8" class="node"><title>Node8</title>
<polygon fill="white" stroke="#bfbfbf" points="411.5,-56.5 411.5,-75.5 493.5,-75.5 493.5,-56.5 411.5,-56.5"/>
<text text-anchor="middle" x="452.5" y="-63.5" font-family="Helvetica,sans-Serif" font-size="10.00">QMessageBox</text>
</g>
<!-- Node1&#45;&gt;Node8 -->
<g id="edge8" class="edge"><title>Node1&#45;&gt;Node8</title>
<path fill="none" stroke="midnightblue" d="M452.5,-112.083C452.5,-105.006 452.5,-94.8611 452.5,-85.9865"/>
<polygon fill="midnightblue" stroke="midnightblue" points="456,-85.751 452.5,-75.7511 449,-85.7511 456,-85.751"/>
</g>
<!-- Node9 -->
<g id="node9" class="node"><title>Node9</title>
<polygon fill="white" stroke="#bfbfbf" points="512,-56.5 512,-75.5 581,-75.5 581,-56.5 512,-56.5"/>
<text text-anchor="middle" x="546.5" y="-63.5" font-family="Helvetica,sans-Serif" font-size="10.00">QMetaType</text>
</g>
<!-- Node1&#45;&gt;Node9 -->
<g id="edge9" class="edge"><title>Node1&#45;&gt;Node9</title>
<path fill="none" stroke="midnightblue" d="M467.603,-112.324C482.403,-103.822 505.194,-90.7288 522.482,-80.7975"/>
<polygon fill="midnightblue" stroke="midnightblue" points="524.507,-83.6707 531.435,-75.6545 521.02,-77.6009 524.507,-83.6707"/>
</g>
<!-- Node10 -->
<g id="node10" class="node"><title>Node10</title>
<polygon fill="white" stroke="#bfbfbf" points="599,-56.5 599,-75.5 646,-75.5 646,-56.5 599,-56.5"/>
<text text-anchor="middle" x="622.5" y="-63.5" font-family="Helvetica,sans-Serif" font-size="10.00">QStyle</text>
</g>
<!-- Node1&#45;&gt;Node10 -->
<g id="edge10" class="edge"><title>Node1&#45;&gt;Node10</title>
<path fill="none" stroke="midnightblue" d="M479.437,-112.444C509.174,-102.998 557.073,-87.7826 589.156,-77.5916"/>
<polygon fill="midnightblue" stroke="midnightblue" points="590.503,-80.8362 598.974,-74.473 588.383,-74.1647 590.503,-80.8362"/>
</g>
<!-- Node11 -->
<g id="node11" class="node"><title>Node11</title>
<polygon fill="white" stroke="#bfbfbf" points="664,-56.5 664,-75.5 761,-75.5 761,-56.5 664,-56.5"/>
<text text-anchor="middle" x="712.5" y="-63.5" font-family="Helvetica,sans-Serif" font-size="10.00">QSystemTrayIcon</text>
</g>
<!-- Node1&#45;&gt;Node11 -->
<g id="edge11" class="edge"><title>Node1&#45;&gt;Node11</title>
<path fill="none" stroke="midnightblue" d="M493.698,-112.444C539.149,-103.004 612.342,-87.802 661.409,-77.6111"/>
<polygon fill="midnightblue" stroke="midnightblue" points="662.416,-80.9769 671.495,-75.5164 660.992,-74.1232 662.416,-80.9769"/>
</g>
<!-- Node12 -->
<g id="node12" class="node"><title>Node12</title>
<polygon fill="white" stroke="#bfbfbf" points="779,-56.5 779,-75.5 868,-75.5 868,-56.5 779,-56.5"/>
<text text-anchor="middle" x="823.5" y="-63.5" font-family="Helvetica,sans-Serif" font-size="10.00">QTemporaryFile</text>
</g>
<!-- Node1&#45;&gt;Node12 -->
<g id="edge12" class="edge"><title>Node1&#45;&gt;Node12</title>
<path fill="none" stroke="midnightblue" d="M505.738,-113.924C566.85,-105.699 670.367,-91.4549 768.854,-76.224"/>
<polygon fill="midnightblue" stroke="midnightblue" points="769.637,-79.6445 778.982,-74.6515 768.563,-72.7274 769.637,-79.6445"/>
</g>
<!-- Node13 -->
<g id="node13" class="node"><title>Node13</title>
<polygon fill="white" stroke="#bfbfbf" points="886.5,-56.5 886.5,-75.5 942.5,-75.5 942.5,-56.5 886.5,-56.5"/>
<text text-anchor="middle" x="914.5" y="-63.5" font-family="Helvetica,sans-Serif" font-size="10.00">QVariant</text>
</g>
<!-- Node1&#45;&gt;Node13 -->
<g id="edge13" class="edge"><title>Node1&#45;&gt;Node13</title>
<path fill="none" stroke="midnightblue" d="M505.821,-117.643C584.752,-112.17 737.448,-99.6599 876.325,-75.9926"/>
<polygon fill="midnightblue" stroke="midnightblue" points="877.041,-79.4208 886.299,-74.2692 875.85,-72.5231 877.041,-79.4208"/>
</g>
<!-- Node2&#45;&gt;Node3 -->
<g id="edge2" class="edge"><title>Node2&#45;&gt;Node3</title>
<path fill="none" stroke="midnightblue" d="M73.5386,-56.324C64.3734,-48.3414 50.5628,-36.3128 39.4718,-26.6529"/>
<polygon fill="midnightblue" stroke="midnightblue" points="41.4822,-23.7624 31.6426,-19.8339 36.8847,-29.041 41.4822,-23.7624"/>
</g>
<!-- Node4 -->
<g id="node4" class="node"><title>Node4</title>
<polygon fill="white" stroke="#bfbfbf" points="61,-0.5 61,-19.5 114,-19.5 114,-0.5 61,-0.5"/>
<text text-anchor="middle" x="87.5" y="-7.5" font-family="Helvetica,sans-Serif" font-size="10.00">QObject</text>
</g>
<!-- Node2&#45;&gt;Node4 -->
<g id="edge3" class="edge"><title>Node2&#45;&gt;Node4</title>
<path fill="none" stroke="midnightblue" d="M84.1605,-56.083C84.6848,-49.0059 85.4362,-38.8611 86.0936,-29.9865"/>
<polygon fill="midnightblue" stroke="midnightblue" points="89.6034,-29.9823 86.8518,-19.7511 82.6225,-29.4652 89.6034,-29.9823"/>
</g>
</g>
</svg>
