<?xml version="1.0" encoding="UTF-8" standalone="no"?>
<!DOCTYPE svg PUBLIC "-//W3C//DTD SVG 1.1//EN"
 "http://www.w3.org/Graphics/SVG/1.1/DTD/svg11.dtd">
<!-- Generated by graphviz version 2.38.0 (20140413.2041)
 -->
<!-- Title: src/noui.cpp Pages: 1 -->
<svg width="2546pt" height="263pt"
 viewBox="0.00 0.00 2546.00 263.00" xmlns="http://www.w3.org/2000/svg" xmlns:xlink="http://www.w3.org/1999/xlink">
<g id="graph0" class="graph" transform="scale(1 1) rotate(0) translate(4 259)">
<title>src/noui.cpp</title>
<polygon fill="white" stroke="none" points="-4,4 -4,-259 2542,-259 2542,4 -4,4"/>
<!-- Node1 -->
<g id="node1" class="node"><title>Node1</title>
<polygon fill="#bfbfbf" stroke="black" points="277.5,-235.5 277.5,-254.5 347.5,-254.5 347.5,-235.5 277.5,-235.5"/>
<text text-anchor="middle" x="312.5" y="-242.5" font-family="Helvetica,sans-Serif" font-size="10.00">src/noui.cpp</text>
</g>
<!-- Node2 -->
<g id="node2" class="node"><title>Node2</title>
<g id="a_node2"><a xlink:href="noui_8h.html" target="_top" xlink:title="noui.h">
<polygon fill="white" stroke="black" points="202.5,-179.5 202.5,-198.5 246.5,-198.5 246.5,-179.5 202.5,-179.5"/>
<text text-anchor="middle" x="224.5" y="-186.5" font-family="Helvetica,sans-Serif" font-size="10.00">noui.h</text>
</a>
</g>
</g>
<!-- Node1&#45;&gt;Node2 -->
<g id="edge1" class="edge"><title>Node1&#45;&gt;Node2</title>
<path fill="none" stroke="midnightblue" d="M298.361,-235.324C284.634,-226.9 263.564,-213.971 247.436,-204.074"/>
<polygon fill="midnightblue" stroke="midnightblue" points="248.957,-200.902 238.604,-198.655 245.296,-206.868 248.957,-200.902"/>
</g>
<!-- Node3 -->
<g id="node3" class="node"><title>Node3</title>
<g id="a_node3"><a xlink:href="ui__interface_8h.html" target="_top" xlink:title="ui_interface.h">
<polygon fill="white" stroke="black" points="207,-123.5 207,-142.5 284,-142.5 284,-123.5 207,-123.5"/>
<text text-anchor="middle" x="245.5" y="-130.5" font-family="Helvetica,sans-Serif" font-size="10.00">ui_interface.h</text>
</a>
</g>
</g>
<!-- Node1&#45;&gt;Node3 -->
<g id="edge2" class="edge"><title>Node1&#45;&gt;Node3</title>
<path fill="none" stroke="midnightblue" d="M307.243,-235.368C296.235,-217.296 270.58,-175.176 256.042,-151.307"/>
<polygon fill="midnightblue" stroke="midnightblue" points="258.924,-149.311 250.733,-142.591 252.946,-152.953 258.924,-149.311"/>
</g>
<!-- Node4 -->
<g id="node4" class="node"><title>Node4</title>
<polygon fill="white" stroke="#bfbfbf" points="341,-62 341,-81 390,-81 390,-62 341,-62"/>
<text text-anchor="middle" x="365.5" y="-69" font-family="Helvetica,sans-Serif" font-size="10.00">stdint.h</text>
</g>
<!-- Node1&#45;&gt;Node4 -->
<g id="edge60" class="edge"><title>Node1&#45;&gt;Node4</title>
<path fill="none" stroke="midnightblue" d="M315.19,-235.375C318.014,-226.318 322.579,-211.661 326.5,-199 338.41,-160.544 352.281,-115.487 359.853,-90.8678"/>
<polygon fill="midnightblue" stroke="midnightblue" points="363.266,-91.6788 362.859,-81.0918 356.575,-89.6214 363.266,-91.6788"/>
</g>
<!-- Node5 -->
<g id="node5" class="node"><title>Node5</title>
<polygon fill="white" stroke="#bfbfbf" points="398,-0.5 398,-19.5 439,-19.5 439,-0.5 398,-0.5"/>
<text text-anchor="middle" x="418.5" y="-7.5" font-family="Helvetica,sans-Serif" font-size="10.00">string</text>
</g>
<!-- Node1&#45;&gt;Node5 -->
<g id="edge61" class="edge"><title>Node1&#45;&gt;Node5</title>
<path fill="none" stroke="midnightblue" d="M310.679,-235.168C305.272,-206.423 292.029,-114.056 331.5,-56 344.608,-36.7197 368.629,-25.1839 388.114,-18.6273"/>
<polygon fill="midnightblue" stroke="midnightblue" points="389.284,-21.9293 397.809,-15.6379 387.221,-15.2401 389.284,-21.9293"/>
</g>
<!-- Node8 -->
<g id="node8" class="node"><title>Node8</title>
<g id="a_node8"><a xlink:href="util_8h.html" target="_top" xlink:title="util.h">
<polygon fill="white" stroke="black" points="1059.5,-179.5 1059.5,-198.5 1097.5,-198.5 1097.5,-179.5 1059.5,-179.5"/>
<text text-anchor="middle" x="1078.5" y="-186.5" font-family="Helvetica,sans-Serif" font-size="10.00">util.h</text>
</a>
</g>
</g>
<!-- Node1&#45;&gt;Node8 -->
<g id="edge7" class="edge"><title>Node1&#45;&gt;Node8</title>
<path fill="none" stroke="midnightblue" d="M347.656,-241.522C477.565,-232.364 929.175,-200.527 1049.08,-192.074"/>
<polygon fill="midnightblue" stroke="midnightblue" points="1049.59,-195.547 1059.32,-191.352 1049.1,-188.564 1049.59,-195.547"/>
</g>
<!-- Node3&#45;&gt;Node4 -->
<g id="edge3" class="edge"><title>Node3&#45;&gt;Node4</title>
<path fill="none" stroke="midnightblue" d="M262.693,-123.475C282.743,-113.534 316.099,-96.9947 339.36,-85.461"/>
<polygon fill="midnightblue" stroke="midnightblue" points="340.934,-88.5871 348.339,-81.0091 337.825,-82.3157 340.934,-88.5871"/>
</g>
<!-- Node3&#45;&gt;Node5 -->
<g id="edge4" class="edge"><title>Node3&#45;&gt;Node5</title>
<path fill="none" stroke="midnightblue" d="M249.322,-123.434C256.675,-107.876 274.234,-74.8449 298.5,-56 325.066,-35.3693 362.101,-23.4122 387.978,-17.079"/>
<polygon fill="midnightblue" stroke="midnightblue" points="389.023,-20.43 397.982,-14.7736 387.451,-13.6088 389.023,-20.43"/>
</g>
<!-- Node6 -->
<g id="node6" class="node"><title>Node6</title>
<polygon fill="white" stroke="#bfbfbf" points="0,-56.5 0,-86.5 99,-86.5 99,-56.5 0,-56.5"/>
<text text-anchor="start" x="8" y="-74.5" font-family="Helvetica,sans-Serif" font-size="10.00">boost/signals2/last</text>
<text text-anchor="middle" x="49.5" y="-63.5" font-family="Helvetica,sans-Serif" font-size="10.00">_value.hpp</text>
</g>
<!-- Node3&#45;&gt;Node6 -->
<g id="edge5" class="edge"><title>Node3&#45;&gt;Node6</title>
<path fill="none" stroke="midnightblue" d="M217.418,-123.475C188.392,-114.664 142.29,-100.668 105.73,-89.5698"/>
<polygon fill="midnightblue" stroke="midnightblue" points="106.279,-86.0788 95.6933,-86.523 104.245,-92.7769 106.279,-86.0788"/>
</g>
<!-- Node7 -->
<g id="node7" class="node"><title>Node7</title>
<polygon fill="white" stroke="#bfbfbf" points="117,-62 117,-81 246,-81 246,-62 117,-62"/>
<text text-anchor="middle" x="181.5" y="-69" font-family="Helvetica,sans-Serif" font-size="10.00">boost/signals2/signal.hpp</text>
</g>
<!-- Node3&#45;&gt;Node7 -->
<g id="edge6" class="edge"><title>Node3&#45;&gt;Node7</title>
<path fill="none" stroke="midnightblue" d="M236.33,-123.475C226.35,-114.197 210.188,-99.1706 197.991,-87.831"/>
<polygon fill="midnightblue" stroke="midnightblue" points="200.36,-85.2547 190.653,-81.0091 195.593,-90.3814 200.36,-85.2547"/>
</g>
<!-- Node8&#45;&gt;Node4 -->
<g id="edge51" class="edge"><title>Node8&#45;&gt;Node4</title>
<path fill="none" stroke="midnightblue" d="M1059.42,-187.708C956.469,-186.003 469.844,-176.225 412.5,-143 392.473,-131.397 379.309,-107.424 372.138,-90.671"/>
<polygon fill="midnightblue" stroke="midnightblue" points="375.38,-89.3522 368.439,-81.3477 368.873,-91.9336 375.38,-89.3522"/>
</g>
<!-- Node8&#45;&gt;Node5 -->
<g id="edge52" class="edge"><title>Node8&#45;&gt;Node5</title>
<path fill="none" stroke="midnightblue" d="M1059.29,-187.838C962.722,-186.612 531.343,-176.153 440.5,-87 425.286,-72.0689 420.433,-47.3119 418.97,-30.1287"/>
<polygon fill="midnightblue" stroke="midnightblue" points="422.439,-29.4566 418.413,-19.6566 415.449,-29.8283 422.439,-29.4566"/>
</g>
<!-- Node9 -->
<g id="node9" class="node"><title>Node9</title>
<g id="a_node9"><a xlink:href="compat_8h.html" target="_top" xlink:title="compat.h">
<polygon fill="white" stroke="black" points="2024.5,-123.5 2024.5,-142.5 2082.5,-142.5 2082.5,-123.5 2024.5,-123.5"/>
<text text-anchor="middle" x="2053.5" y="-130.5" font-family="Helvetica,sans-Serif" font-size="10.00">compat.h</text>
</a>
</g>
</g>
<!-- Node8&#45;&gt;Node9 -->
<g id="edge8" class="edge"><title>Node8&#45;&gt;Node9</title>
<path fill="none" stroke="midnightblue" d="M1097.54,-186.946C1215.64,-180.405 1848.49,-145.354 2013.91,-136.192"/>
<polygon fill="midnightblue" stroke="midnightblue" points="2014.33,-139.675 2024.12,-135.627 2013.94,-132.685 2014.33,-139.675"/>
</g>
<!-- Node13 -->
<g id="node13" class="node"><title>Node13</title>
<polygon fill="white" stroke="#bfbfbf" points="1638,-62 1638,-81 1705,-81 1705,-62 1638,-62"/>
<text text-anchor="middle" x="1671.5" y="-69" font-family="Helvetica,sans-Serif" font-size="10.00">sys/types.h</text>
</g>
<!-- Node8&#45;&gt;Node13 -->
<g id="edge57" class="edge"><title>Node8&#45;&gt;Node13</title>
<path fill="none" stroke="midnightblue" d="M1097.59,-187.394C1188.75,-184.37 1577.21,-169.981 1623.5,-143 1643.63,-131.268 1657.15,-107.325 1664.58,-90.6138"/>
<polygon fill="midnightblue" stroke="midnightblue" points="1667.83,-91.8953 1668.42,-81.3167 1661.37,-89.2207 1667.83,-91.8953"/>
</g>
<!-- Node22 -->
<g id="node22" class="node"><title>Node22</title>
<g id="a_node22"><a xlink:href="serialize_8h.html" target="_top" xlink:title="serialize.h">
<polygon fill="white" stroke="black" points="657.5,-123.5 657.5,-142.5 719.5,-142.5 719.5,-123.5 657.5,-123.5"/>
<text text-anchor="middle" x="688.5" y="-130.5" font-family="Helvetica,sans-Serif" font-size="10.00">serialize.h</text>
</a>
</g>
</g>
<!-- Node8&#45;&gt;Node22 -->
<g id="edge21" class="edge"><title>Node8&#45;&gt;Node22</title>
<path fill="none" stroke="midnightblue" d="M1059.44,-186.182C1007.9,-181.134 861.385,-165.904 729.741,-143.081"/>
<polygon fill="midnightblue" stroke="midnightblue" points="730.341,-139.633 719.887,-141.353 729.132,-146.528 730.341,-139.633"/>
</g>
<!-- Node24 -->
<g id="node24" class="node"><title>Node24</title>
<polygon fill="white" stroke="#bfbfbf" points="1180.5,-0.5 1180.5,-19.5 1216.5,-19.5 1216.5,-0.5 1180.5,-0.5"/>
<text text-anchor="middle" x="1198.5" y="-7.5" font-family="Helvetica,sans-Serif" font-size="10.00">map</text>
</g>
<!-- Node8&#45;&gt;Node24 -->
<g id="edge49" class="edge"><title>Node8&#45;&gt;Node24</title>
<path fill="none" stroke="midnightblue" d="M1097.54,-187.94C1174.22,-187.425 1460.06,-182.822 1539.5,-143 1569.59,-127.914 1578.35,-118.393 1590.5,-87 1595.47,-74.1514 1599.67,-66.2829 1590.5,-56 1566.29,-28.8501 1312.37,-15.7737 1226.61,-12.1081"/>
<polygon fill="midnightblue" stroke="midnightblue" points="1226.7,-8.60877 1216.56,-11.689 1226.41,-15.6027 1226.7,-8.60877"/>
</g>
<!-- Node34 -->
<g id="node34" class="node"><title>Node34</title>
<polygon fill="white" stroke="#bfbfbf" points="1192,-62 1192,-81 1231,-81 1231,-62 1192,-62"/>
<text text-anchor="middle" x="1211.5" y="-69" font-family="Helvetica,sans-Serif" font-size="10.00">utility</text>
</g>
<!-- Node8&#45;&gt;Node34 -->
<g id="edge53" class="edge"><title>Node8&#45;&gt;Node34</title>
<path fill="none" stroke="midnightblue" d="M1097.82,-188.193C1157.99,-188.343 1340.16,-185.242 1376.5,-143 1406.45,-108.191 1356.19,-130.707 1240.5,-87 1239.12,-86.4778 1237.71,-85.9102 1236.31,-85.3121"/>
<polygon fill="midnightblue" stroke="midnightblue" points="1237.74,-82.1163 1227.19,-81.0781 1234.79,-88.4649 1237.74,-82.1163"/>
</g>
<!-- Node35 -->
<g id="node35" class="node"><title>Node35</title>
<polygon fill="white" stroke="#bfbfbf" points="1249.5,-62 1249.5,-81 1293.5,-81 1293.5,-62 1249.5,-62"/>
<text text-anchor="middle" x="1271.5" y="-69" font-family="Helvetica,sans-Serif" font-size="10.00">vector</text>
</g>
<!-- Node8&#45;&gt;Node35 -->
<g id="edge54" class="edge"><title>Node8&#45;&gt;Node35</title>
<path fill="none" stroke="midnightblue" d="M1097.71,-188.385C1160.28,-189.189 1356.42,-188.02 1395.5,-143 1441.13,-90.4339 1397.74,-127.65 1302.5,-87 1301.3,-86.4883 1300.08,-85.9578 1298.85,-85.4156"/>
<polygon fill="midnightblue" stroke="midnightblue" points="1299.99,-82.0898 1289.44,-81.1433 1297.1,-88.4638 1299.99,-82.0898"/>
</g>
<!-- Node38 -->
<g id="node38" class="node"><title>Node38</title>
<g id="a_node38"><a xlink:href="tinyformat_8h.html" target="_top" xlink:title="tinyformat.h">
<polygon fill="white" stroke="black" points="1462,-123.5 1462,-142.5 1531,-142.5 1531,-123.5 1462,-123.5"/>
<text text-anchor="middle" x="1496.5" y="-130.5" font-family="Helvetica,sans-Serif" font-size="10.00">tinyformat.h</text>
</a>
</g>
</g>
<!-- Node8&#45;&gt;Node38 -->
<g id="edge42" class="edge"><title>Node8&#45;&gt;Node38</title>
<path fill="none" stroke="midnightblue" d="M1097.76,-186.065C1152.59,-180.468 1314.16,-163.357 1447.5,-143 1448.8,-142.802 1450.12,-142.595 1451.44,-142.382"/>
<polygon fill="midnightblue" stroke="midnightblue" points="1452.46,-145.76 1461.75,-140.651 1451.3,-138.857 1452.46,-145.76"/>
</g>
<!-- Node43 -->
<g id="node43" class="node"><title>Node43</title>
<polygon fill="white" stroke="#bfbfbf" points="738,-123.5 738,-142.5 781,-142.5 781,-123.5 738,-123.5"/>
<text text-anchor="middle" x="759.5" y="-130.5" font-family="Helvetica,sans-Serif" font-size="10.00">cstdio</text>
</g>
<!-- Node8&#45;&gt;Node43 -->
<g id="edge47" class="edge"><title>Node8&#45;&gt;Node43</title>
<path fill="none" stroke="midnightblue" d="M1059.39,-185.943C1014.26,-180.891 897.395,-166.689 790.97,-143.084"/>
<polygon fill="midnightblue" stroke="midnightblue" points="791.561,-139.629 781.036,-140.846 790.022,-146.458 791.561,-139.629"/>
</g>
<!-- Node44 -->
<g id="node44" class="node"><title>Node44</title>
<polygon fill="white" stroke="#bfbfbf" points="799,-123.5 799,-142.5 858,-142.5 858,-123.5 799,-123.5"/>
<text text-anchor="middle" x="828.5" y="-130.5" font-family="Helvetica,sans-Serif" font-size="10.00">exception</text>
</g>
<!-- Node8&#45;&gt;Node44 -->
<g id="edge48" class="edge"><title>Node8&#45;&gt;Node44</title>
<path fill="none" stroke="midnightblue" d="M1059.46,-184.115C1023.83,-176.81 944.411,-160.372 868.123,-143.33"/>
<polygon fill="midnightblue" stroke="midnightblue" points="868.879,-139.913 858.355,-141.141 867.348,-146.743 868.879,-139.913"/>
</g>
<!-- Node45 -->
<g id="node45" class="node"><title>Node45</title>
<polygon fill="white" stroke="#bfbfbf" points="876,-123.5 876,-142.5 929,-142.5 929,-123.5 876,-123.5"/>
<text text-anchor="middle" x="902.5" y="-130.5" font-family="Helvetica,sans-Serif" font-size="10.00">stdarg.h</text>
</g>
<!-- Node8&#45;&gt;Node45 -->
<g id="edge50" class="edge"><title>Node8&#45;&gt;Node45</title>
<path fill="none" stroke="midnightblue" d="M1059.33,-182.118C1030.5,-173.273 975.472,-156.389 938.874,-145.16"/>
<polygon fill="midnightblue" stroke="midnightblue" points="939.664,-141.741 929.077,-142.154 937.61,-148.434 939.664,-141.741"/>
</g>
<!-- Node46 -->
<g id="node46" class="node"><title>Node46</title>
<polygon fill="white" stroke="#bfbfbf" points="947.5,-123.5 947.5,-142.5 1029.5,-142.5 1029.5,-123.5 947.5,-123.5"/>
<text text-anchor="middle" x="988.5" y="-130.5" font-family="Helvetica,sans-Serif" font-size="10.00">sys/resource.h</text>
</g>
<!-- Node8&#45;&gt;Node46 -->
<g id="edge55" class="edge"><title>Node8&#45;&gt;Node46</title>
<path fill="none" stroke="midnightblue" d="M1064.04,-179.324C1050,-170.9 1028.45,-157.971 1011.96,-148.074"/>
<polygon fill="midnightblue" stroke="midnightblue" points="1013.3,-144.798 1002.92,-142.655 1009.7,-150.801 1013.3,-144.798"/>
</g>
<!-- Node47 -->
<g id="node47" class="node"><title>Node47</title>
<polygon fill="white" stroke="#bfbfbf" points="1047.5,-123.5 1047.5,-142.5 1109.5,-142.5 1109.5,-123.5 1047.5,-123.5"/>
<text text-anchor="middle" x="1078.5" y="-130.5" font-family="Helvetica,sans-Serif" font-size="10.00">sys/time.h</text>
</g>
<!-- Node8&#45;&gt;Node47 -->
<g id="edge56" class="edge"><title>Node8&#45;&gt;Node47</title>
<path fill="none" stroke="midnightblue" d="M1078.5,-179.083C1078.5,-172.006 1078.5,-161.861 1078.5,-152.986"/>
<polygon fill="midnightblue" stroke="midnightblue" points="1082,-152.751 1078.5,-142.751 1075,-152.751 1082,-152.751"/>
</g>
<!-- Node48 -->
<g id="node48" class="node"><title>Node48</title>
<polygon fill="white" stroke="#bfbfbf" points="1127.5,-123.5 1127.5,-142.5 1257.5,-142.5 1257.5,-123.5 1127.5,-123.5"/>
<text text-anchor="middle" x="1192.5" y="-130.5" font-family="Helvetica,sans-Serif" font-size="10.00">boost/filesystem/path.hpp</text>
</g>
<!-- Node8&#45;&gt;Node48 -->
<g id="edge58" class="edge"><title>Node8&#45;&gt;Node48</title>
<path fill="none" stroke="midnightblue" d="M1096.56,-179.444C1115.07,-170.675 1144.08,-156.935 1165.36,-146.858"/>
<polygon fill="midnightblue" stroke="midnightblue" points="1166.98,-149.96 1174.52,-142.516 1163.99,-143.634 1166.98,-149.96"/>
</g>
<!-- Node49 -->
<g id="node49" class="node"><title>Node49</title>
<polygon fill="white" stroke="#bfbfbf" points="1275.5,-123.5 1275.5,-142.5 1367.5,-142.5 1367.5,-123.5 1275.5,-123.5"/>
<text text-anchor="middle" x="1321.5" y="-130.5" font-family="Helvetica,sans-Serif" font-size="10.00">boost/thread.hpp</text>
</g>
<!-- Node8&#45;&gt;Node49 -->
<g id="edge59" class="edge"><title>Node8&#45;&gt;Node49</title>
<path fill="none" stroke="midnightblue" d="M1097.57,-183.763C1134.99,-175.447 1219.07,-156.762 1272.89,-144.803"/>
<polygon fill="midnightblue" stroke="midnightblue" points="1273.89,-148.165 1282.9,-142.579 1272.37,-141.332 1273.89,-148.165"/>
</g>
<!-- Node10 -->
<g id="node10" class="node"><title>Node10</title>
<polygon fill="white" stroke="#bfbfbf" points="2233,-62 2233,-81 2294,-81 2294,-62 2233,-62"/>
<text text-anchor="middle" x="2263.5" y="-69" font-family="Helvetica,sans-Serif" font-size="10.00">sys/fcntl.h</text>
</g>
<!-- Node9&#45;&gt;Node10 -->
<g id="edge9" class="edge"><title>Node9&#45;&gt;Node10</title>
<path fill="none" stroke="midnightblue" d="M2082.6,-125.134C2116.63,-116.911 2174.55,-102.318 2223.5,-87 2226.06,-86.2003 2228.69,-85.3364 2231.33,-84.4424"/>
<polygon fill="midnightblue" stroke="midnightblue" points="2232.49,-87.743 2240.77,-81.1346 2230.18,-81.1363 2232.49,-87.743"/>
</g>
<!-- Node11 -->
<g id="node11" class="node"><title>Node11</title>
<polygon fill="white" stroke="#bfbfbf" points="2312.5,-62 2312.5,-81 2382.5,-81 2382.5,-62 2312.5,-62"/>
<text text-anchor="middle" x="2347.5" y="-69" font-family="Helvetica,sans-Serif" font-size="10.00">sys/mman.h</text>
</g>
<!-- Node9&#45;&gt;Node11 -->
<g id="edge10" class="edge"><title>Node9&#45;&gt;Node11</title>
<path fill="none" stroke="midnightblue" d="M2082.65,-128.108C2129.59,-121.539 2224.63,-106.989 2303.5,-87 2306.88,-86.1442 2310.37,-85.1629 2313.84,-84.123"/>
<polygon fill="midnightblue" stroke="midnightblue" points="2314.98,-87.4339 2323.47,-81.0933 2312.88,-80.7567 2314.98,-87.4339"/>
</g>
<!-- Node12 -->
<g id="node12" class="node"><title>Node12</title>
<polygon fill="white" stroke="#bfbfbf" points="2400.5,-62 2400.5,-81 2472.5,-81 2472.5,-62 2400.5,-62"/>
<text text-anchor="middle" x="2436.5" y="-69" font-family="Helvetica,sans-Serif" font-size="10.00">sys/socket.h</text>
</g>
<!-- Node9&#45;&gt;Node12 -->
<g id="edge11" class="edge"><title>Node9&#45;&gt;Node12</title>
<path fill="none" stroke="midnightblue" d="M2082.75,-129.883C2141.72,-125.224 2278.9,-112.421 2391.5,-87 2395.16,-86.1742 2398.94,-85.1813 2402.69,-84.1073"/>
<polygon fill="midnightblue" stroke="midnightblue" points="2403.89,-87.4017 2412.43,-81.1338 2401.85,-80.7069 2403.89,-87.4017"/>
</g>
<!-- Node9&#45;&gt;Node13 -->
<g id="edge12" class="edge"><title>Node9&#45;&gt;Node13</title>
<path fill="none" stroke="midnightblue" d="M2024.14,-130.021C1964.93,-125.613 1827.26,-113.236 1714.5,-87 1711.02,-86.1899 1707.42,-85.2114 1703.86,-84.1497"/>
<polygon fill="midnightblue" stroke="midnightblue" points="1704.62,-80.7187 1694.03,-81.0079 1702.49,-87.3864 1704.62,-80.7187"/>
</g>
<!-- Node14 -->
<g id="node14" class="node"><title>Node14</title>
<polygon fill="white" stroke="#bfbfbf" points="2491,-62 2491,-81 2538,-81 2538,-62 2491,-62"/>
<text text-anchor="middle" x="2514.5" y="-69" font-family="Helvetica,sans-Serif" font-size="10.00">net/if.h</text>
</g>
<!-- Node9&#45;&gt;Node14 -->
<g id="edge13" class="edge"><title>Node9&#45;&gt;Node14</title>
<path fill="none" stroke="midnightblue" d="M2082.6,-132.01C2152.58,-131.376 2335.26,-125.805 2481.5,-87 2483.8,-86.3906 2486.14,-85.643 2488.46,-84.8116"/>
<polygon fill="midnightblue" stroke="midnightblue" points="2489.78,-88.0548 2497.73,-81.0616 2487.15,-81.5652 2489.78,-88.0548"/>
</g>
<!-- Node15 -->
<g id="node15" class="node"><title>Node15</title>
<polygon fill="white" stroke="#bfbfbf" points="1723,-62 1723,-81 1788,-81 1788,-62 1723,-62"/>
<text text-anchor="middle" x="1755.5" y="-69" font-family="Helvetica,sans-Serif" font-size="10.00">netinet/in.h</text>
</g>
<!-- Node9&#45;&gt;Node15 -->
<g id="edge14" class="edge"><title>Node9&#45;&gt;Node15</title>
<path fill="none" stroke="midnightblue" d="M2024.39,-128.413C1976.55,-122.178 1878.54,-107.97 1797.5,-87 1794.46,-86.2137 1791.33,-85.3111 1788.21,-84.349"/>
<polygon fill="midnightblue" stroke="midnightblue" points="1789,-80.9258 1778.41,-81.1427 1786.82,-87.5788 1789,-80.9258"/>
</g>
<!-- Node16 -->
<g id="node16" class="node"><title>Node16</title>
<polygon fill="white" stroke="#bfbfbf" points="1806.5,-62 1806.5,-81 1870.5,-81 1870.5,-62 1806.5,-62"/>
<text text-anchor="middle" x="1838.5" y="-69" font-family="Helvetica,sans-Serif" font-size="10.00">arpa/inet.h</text>
</g>
<!-- Node9&#45;&gt;Node16 -->
<g id="edge15" class="edge"><title>Node9&#45;&gt;Node16</title>
<path fill="none" stroke="midnightblue" d="M2024.23,-125.124C1989.67,-116.835 1930.56,-102.126 1880.5,-87 1877.73,-86.1633 1874.87,-85.2605 1872.01,-84.3291"/>
<polygon fill="midnightblue" stroke="midnightblue" points="1872.98,-80.9621 1862.38,-81.1058 1870.75,-87.5999 1872.98,-80.9621"/>
</g>
<!-- Node17 -->
<g id="node17" class="node"><title>Node17</title>
<polygon fill="white" stroke="#bfbfbf" points="1889,-62 1889,-81 1944,-81 1944,-62 1889,-62"/>
<text text-anchor="middle" x="1916.5" y="-69" font-family="Helvetica,sans-Serif" font-size="10.00">ifaddrs.h</text>
</g>
<!-- Node9&#45;&gt;Node17 -->
<g id="edge16" class="edge"><title>Node9&#45;&gt;Node17</title>
<path fill="none" stroke="midnightblue" d="M2033.87,-123.475C2010.68,-113.401 1971.88,-96.5525 1945.29,-85.0023"/>
<polygon fill="midnightblue" stroke="midnightblue" points="1946.66,-81.7824 1936.09,-81.0091 1943.87,-88.203 1946.66,-81.7824"/>
</g>
<!-- Node18 -->
<g id="node18" class="node"><title>Node18</title>
<polygon fill="white" stroke="#bfbfbf" points="1962.5,-62 1962.5,-81 2010.5,-81 2010.5,-62 1962.5,-62"/>
<text text-anchor="middle" x="1986.5" y="-69" font-family="Helvetica,sans-Serif" font-size="10.00">limits.h</text>
</g>
<!-- Node9&#45;&gt;Node18 -->
<g id="edge17" class="edge"><title>Node9&#45;&gt;Node18</title>
<path fill="none" stroke="midnightblue" d="M2043.9,-123.475C2033.45,-114.197 2016.53,-99.1706 2003.76,-87.831"/>
<polygon fill="midnightblue" stroke="midnightblue" points="2005.88,-85.0323 1996.08,-81.0091 2001.23,-90.2663 2005.88,-85.0323"/>
</g>
<!-- Node19 -->
<g id="node19" class="node"><title>Node19</title>
<polygon fill="white" stroke="#bfbfbf" points="2028.5,-62 2028.5,-81 2078.5,-81 2078.5,-62 2028.5,-62"/>
<text text-anchor="middle" x="2053.5" y="-69" font-family="Helvetica,sans-Serif" font-size="10.00">netdb.h</text>
</g>
<!-- Node9&#45;&gt;Node19 -->
<g id="edge18" class="edge"><title>Node9&#45;&gt;Node19</title>
<path fill="none" stroke="midnightblue" d="M2053.5,-123.475C2053.5,-115.08 2053.5,-101.981 2053.5,-91.1631"/>
<polygon fill="midnightblue" stroke="midnightblue" points="2057,-91.0091 2053.5,-81.0091 2050,-91.0091 2057,-91.0091"/>
</g>
<!-- Node20 -->
<g id="node20" class="node"><title>Node20</title>
<polygon fill="white" stroke="#bfbfbf" points="2096.5,-62 2096.5,-81 2148.5,-81 2148.5,-62 2096.5,-62"/>
<text text-anchor="middle" x="2122.5" y="-69" font-family="Helvetica,sans-Serif" font-size="10.00">unistd.h</text>
</g>
<!-- Node9&#45;&gt;Node20 -->
<g id="edge19" class="edge"><title>Node9&#45;&gt;Node20</title>
<path fill="none" stroke="midnightblue" d="M2063.39,-123.475C2074.15,-114.197 2091.57,-99.1706 2104.72,-87.831"/>
<polygon fill="midnightblue" stroke="midnightblue" points="2107.34,-90.1902 2112.63,-81.0091 2102.77,-84.889 2107.34,-90.1902"/>
</g>
<!-- Node21 -->
<g id="node21" class="node"><title>Node21</title>
<polygon fill="white" stroke="#bfbfbf" points="2166.5,-62 2166.5,-81 2214.5,-81 2214.5,-62 2166.5,-62"/>
<text text-anchor="middle" x="2190.5" y="-69" font-family="Helvetica,sans-Serif" font-size="10.00">errno.h</text>
</g>
<!-- Node9&#45;&gt;Node21 -->
<g id="edge20" class="edge"><title>Node9&#45;&gt;Node21</title>
<path fill="none" stroke="midnightblue" d="M2073.45,-123.406C2094.4,-114.375 2128.29,-99.7386 2157.5,-87 2158.86,-86.406 2160.26,-85.7973 2161.66,-85.182"/>
<polygon fill="midnightblue" stroke="midnightblue" points="2163.21,-88.3254 2170.96,-81.1056 2160.4,-81.9141 2163.21,-88.3254"/>
</g>
<!-- Node22&#45;&gt;Node4 -->
<g id="edge35" class="edge"><title>Node22&#45;&gt;Node4</title>
<path fill="none" stroke="midnightblue" d="M657.424,-126.369C610.746,-117.899 519.765,-101.342 442.5,-87 428.675,-84.4338 413.461,-81.576 400.233,-79.0803"/>
<polygon fill="midnightblue" stroke="midnightblue" points="400.591,-75.5861 390.115,-77.169 399.291,-82.4645 400.591,-75.5861"/>
</g>
<!-- Node22&#45;&gt;Node5 -->
<g id="edge36" class="edge"><title>Node22&#45;&gt;Node5</title>
<path fill="none" stroke="midnightblue" d="M657.395,-132.099C613.496,-130.843 532.38,-123.278 475.5,-87 453.182,-72.7654 436.443,-46.5063 427.061,-28.8955"/>
<polygon fill="midnightblue" stroke="midnightblue" points="430.037,-27.0255 422.4,-19.6822 423.791,-30.1853 430.037,-27.0255"/>
</g>
<!-- Node23 -->
<g id="node23" class="node"><title>Node23</title>
<g id="a_node23"><a xlink:href="allocators_8h.html" target="_top" xlink:title="allocators.h">
<polygon fill="white" stroke="black" points="1029.5,-62 1029.5,-81 1097.5,-81 1097.5,-62 1029.5,-62"/>
<text text-anchor="middle" x="1063.5" y="-69" font-family="Helvetica,sans-Serif" font-size="10.00">allocators.h</text>
</a>
</g>
</g>
<!-- Node22&#45;&gt;Node23 -->
<g id="edge22" class="edge"><title>Node22&#45;&gt;Node23</title>
<path fill="none" stroke="midnightblue" d="M719.884,-124.631C722.79,-124.042 725.695,-123.487 728.5,-123 857.331,-100.621 893.005,-116.04 1020.5,-87 1023.99,-86.2061 1027.59,-85.2381 1031.15,-84.1826"/>
<polygon fill="midnightblue" stroke="midnightblue" points="1032.52,-87.4205 1040.98,-81.0485 1030.39,-80.7512 1032.52,-87.4205"/>
</g>
<!-- Node22&#45;&gt;Node24 -->
<g id="edge33" class="edge"><title>Node22&#45;&gt;Node24</title>
<path fill="none" stroke="midnightblue" d="M719.868,-124.531C722.777,-123.962 725.687,-123.44 728.5,-123 817.331,-109.101 1051.28,-127.614 1131.5,-87 1157.19,-73.9946 1177.42,-46.5489 1188.67,-28.4464"/>
<polygon fill="midnightblue" stroke="midnightblue" points="1191.88,-29.8885 1193.97,-19.5018 1185.86,-26.3183 1191.88,-29.8885"/>
</g>
<!-- Node25 -->
<g id="node25" class="node"><title>Node25</title>
<polygon fill="white" stroke="#bfbfbf" points="1113,-0.5 1113,-19.5 1162,-19.5 1162,-0.5 1113,-0.5"/>
<text text-anchor="middle" x="1137.5" y="-7.5" font-family="Helvetica,sans-Serif" font-size="10.00">string.h</text>
</g>
<!-- Node22&#45;&gt;Node25 -->
<g id="edge37" class="edge"><title>Node22&#45;&gt;Node25</title>
<path fill="none" stroke="midnightblue" d="M719.87,-124.548C722.779,-123.976 725.688,-123.448 728.5,-123 811.827,-109.712 1038.78,-137.339 1106.5,-87 1124.6,-73.547 1132.17,-47.6847 1135.31,-29.8958"/>
<polygon fill="midnightblue" stroke="midnightblue" points="1138.8,-30.214 1136.77,-19.8146 1131.87,-29.2073 1138.8,-30.214"/>
</g>
<!-- Node29 -->
<g id="node29" class="node"><title>Node29</title>
<polygon fill="white" stroke="#bfbfbf" points="484.5,-62 484.5,-81 542.5,-81 542.5,-62 484.5,-62"/>
<text text-anchor="middle" x="513.5" y="-69" font-family="Helvetica,sans-Serif" font-size="10.00">algorithm</text>
</g>
<!-- Node22&#45;&gt;Node29 -->
<g id="edge29" class="edge"><title>Node22&#45;&gt;Node29</title>
<path fill="none" stroke="midnightblue" d="M661.338,-123.494C633.604,-114.712 589.368,-100.436 551.5,-87 549.391,-86.2518 547.222,-85.4667 545.041,-84.6653"/>
<polygon fill="midnightblue" stroke="midnightblue" points="546.131,-81.3362 535.538,-81.1109 543.678,-87.8925 546.131,-81.3362"/>
</g>
<!-- Node30 -->
<g id="node30" class="node"><title>Node30</title>
<polygon fill="white" stroke="#bfbfbf" points="560.5,-62 560.5,-81 612.5,-81 612.5,-62 560.5,-62"/>
<text text-anchor="middle" x="586.5" y="-69" font-family="Helvetica,sans-Serif" font-size="10.00">assert.h</text>
</g>
<!-- Node22&#45;&gt;Node30 -->
<g id="edge30" class="edge"><title>Node22&#45;&gt;Node30</title>
<path fill="none" stroke="midnightblue" d="M673.886,-123.475C657.147,-113.711 629.496,-97.5807 609.781,-86.0808"/>
<polygon fill="midnightblue" stroke="midnightblue" points="611.488,-83.0246 601.087,-81.0091 607.961,-89.0711 611.488,-83.0246"/>
</g>
<!-- Node31 -->
<g id="node31" class="node"><title>Node31</title>
<polygon fill="white" stroke="#bfbfbf" points="631,-62 631,-81 670,-81 670,-62 631,-62"/>
<text text-anchor="middle" x="650.5" y="-69" font-family="Helvetica,sans-Serif" font-size="10.00">limits</text>
</g>
<!-- Node22&#45;&gt;Node31 -->
<g id="edge31" class="edge"><title>Node22&#45;&gt;Node31</title>
<path fill="none" stroke="midnightblue" d="M683.056,-123.475C677.412,-114.638 668.439,-100.589 661.341,-89.475"/>
<polygon fill="midnightblue" stroke="midnightblue" points="664.267,-87.5531 655.934,-81.0091 658.367,-91.3208 664.267,-87.5531"/>
</g>
<!-- Node32 -->
<g id="node32" class="node"><title>Node32</title>
<polygon fill="white" stroke="#bfbfbf" points="688,-62 688,-81 717,-81 717,-62 688,-62"/>
<text text-anchor="middle" x="702.5" y="-69" font-family="Helvetica,sans-Serif" font-size="10.00">ios</text>
</g>
<!-- Node22&#45;&gt;Node32 -->
<g id="edge32" class="edge"><title>Node22&#45;&gt;Node32</title>
<path fill="none" stroke="midnightblue" d="M690.506,-123.475C692.502,-114.992 695.628,-101.704 698.189,-90.8222"/>
<polygon fill="midnightblue" stroke="midnightblue" points="701.614,-91.5449 700.498,-81.0091 694.8,-89.9416 701.614,-91.5449"/>
</g>
<!-- Node33 -->
<g id="node33" class="node"><title>Node33</title>
<polygon fill="white" stroke="#bfbfbf" points="735.5,-62 735.5,-81 765.5,-81 765.5,-62 735.5,-62"/>
<text text-anchor="middle" x="750.5" y="-69" font-family="Helvetica,sans-Serif" font-size="10.00">set</text>
</g>
<!-- Node22&#45;&gt;Node33 -->
<g id="edge34" class="edge"><title>Node22&#45;&gt;Node33</title>
<path fill="none" stroke="midnightblue" d="M697.383,-123.475C706.959,-114.285 722.411,-99.4563 734.186,-88.156"/>
<polygon fill="midnightblue" stroke="midnightblue" points="736.842,-90.4585 741.633,-81.0091 731.995,-85.408 736.842,-90.4585"/>
</g>
<!-- Node22&#45;&gt;Node34 -->
<g id="edge38" class="edge"><title>Node22&#45;&gt;Node34</title>
<path fill="none" stroke="midnightblue" d="M719.863,-124.503C722.773,-123.941 725.685,-123.427 728.5,-123 926.428,-92.9523 983.117,-134.891 1177.5,-87 1179.87,-86.4171 1182.28,-85.6882 1184.67,-84.8694"/>
<polygon fill="midnightblue" stroke="midnightblue" points="1186.18,-88.0365 1194.23,-81.1409 1183.64,-81.5153 1186.18,-88.0365"/>
</g>
<!-- Node22&#45;&gt;Node35 -->
<g id="edge39" class="edge"><title>Node22&#45;&gt;Node35</title>
<path fill="none" stroke="midnightblue" d="M719.859,-124.474C722.77,-123.918 725.683,-123.414 728.5,-123 953.758,-89.9172 1018.79,-142.862 1239.5,-87 1241.71,-86.4407 1243.96,-85.7356 1246.18,-84.9393"/>
<polygon fill="midnightblue" stroke="midnightblue" points="1247.72,-88.0897 1255.63,-81.0328 1245.05,-81.6213 1247.72,-88.0897"/>
</g>
<!-- Node36 -->
<g id="node36" class="node"><title>Node36</title>
<polygon fill="white" stroke="#bfbfbf" points="784,-62 784,-81 893,-81 893,-62 784,-62"/>
<text text-anchor="middle" x="838.5" y="-69" font-family="Helvetica,sans-Serif" font-size="10.00">boost/tuple/tuple.hpp</text>
</g>
<!-- Node22&#45;&gt;Node36 -->
<g id="edge40" class="edge"><title>Node22&#45;&gt;Node36</title>
<path fill="none" stroke="midnightblue" d="M709.991,-123.475C735.61,-113.313 778.61,-96.2564 807.745,-84.6996"/>
<polygon fill="midnightblue" stroke="midnightblue" points="809.044,-87.9497 817.049,-81.0091 806.463,-81.4429 809.044,-87.9497"/>
</g>
<!-- Node37 -->
<g id="node37" class="node"><title>Node37</title>
<polygon fill="white" stroke="#bfbfbf" points="911.5,-56.5 911.5,-86.5 1011.5,-86.5 1011.5,-56.5 911.5,-56.5"/>
<text text-anchor="start" x="919.5" y="-74.5" font-family="Helvetica,sans-Serif" font-size="10.00">boost/type_traits/is</text>
<text text-anchor="middle" x="961.5" y="-63.5" font-family="Helvetica,sans-Serif" font-size="10.00">_fundamental.hpp</text>
</g>
<!-- Node22&#45;&gt;Node37 -->
<g id="edge41" class="edge"><title>Node22&#45;&gt;Node37</title>
<path fill="none" stroke="midnightblue" d="M719.932,-124.877C722.828,-124.237 725.717,-123.603 728.5,-123 805.257,-106.38 824.877,-104.226 901.5,-87 901.601,-86.9772 901.703,-86.9544 901.804,-86.9316"/>
<polygon fill="midnightblue" stroke="midnightblue" points="902.472,-90.3694 911.438,-84.7249 900.909,-83.5461 902.472,-90.3694"/>
</g>
<!-- Node23&#45;&gt;Node5 -->
<g id="edge24" class="edge"><title>Node23&#45;&gt;Node5</title>
<path fill="none" stroke="midnightblue" d="M1041.47,-61.8926C1034.83,-59.6183 1027.45,-57.4081 1020.5,-56 909.4,-33.4877 556.213,-16.89 449.397,-12.2856"/>
<polygon fill="midnightblue" stroke="midnightblue" points="449.423,-8.78364 439.283,-11.8539 449.125,-15.7773 449.423,-8.78364"/>
</g>
<!-- Node23&#45;&gt;Node24 -->
<g id="edge23" class="edge"><title>Node23&#45;&gt;Node24</title>
<path fill="none" stroke="midnightblue" d="M1082.84,-61.9751C1105.99,-51.7745 1144.89,-34.6274 1171.12,-23.0688"/>
<polygon fill="midnightblue" stroke="midnightblue" points="1172.75,-26.1745 1180.49,-18.9386 1169.93,-19.769 1172.75,-26.1745"/>
</g>
<!-- Node23&#45;&gt;Node25 -->
<g id="edge25" class="edge"><title>Node23&#45;&gt;Node25</title>
<path fill="none" stroke="midnightblue" d="M1074.1,-61.9751C1085.75,-52.6082 1104.69,-37.3839 1118.83,-26.0081"/>
<polygon fill="midnightblue" stroke="midnightblue" points="1121.32,-28.503 1126.92,-19.5091 1116.93,-23.0477 1121.32,-28.503"/>
</g>
<!-- Node26 -->
<g id="node26" class="node"><title>Node26</title>
<polygon fill="white" stroke="#bfbfbf" points="731.5,-0.5 731.5,-19.5 853.5,-19.5 853.5,-0.5 731.5,-0.5"/>
<text text-anchor="middle" x="792.5" y="-7.5" font-family="Helvetica,sans-Serif" font-size="10.00">boost/thread/mutex.hpp</text>
</g>
<!-- Node23&#45;&gt;Node26 -->
<g id="edge26" class="edge"><title>Node23&#45;&gt;Node26</title>
<path fill="none" stroke="midnightblue" d="M1040.01,-61.9634C1033.72,-59.8477 1026.9,-57.7016 1020.5,-56 965.583,-41.388 902.078,-29.2329 856.059,-21.2544"/>
<polygon fill="midnightblue" stroke="midnightblue" points="856.377,-17.7578 845.93,-19.5165 855.194,-24.657 856.377,-17.7578"/>
</g>
<!-- Node27 -->
<g id="node27" class="node"><title>Node27</title>
<polygon fill="white" stroke="#bfbfbf" points="871.5,-0.5 871.5,-19.5 987.5,-19.5 987.5,-0.5 871.5,-0.5"/>
<text text-anchor="middle" x="929.5" y="-7.5" font-family="Helvetica,sans-Serif" font-size="10.00">boost/thread/once.hpp</text>
</g>
<!-- Node23&#45;&gt;Node27 -->
<g id="edge27" class="edge"><title>Node23&#45;&gt;Node27</title>
<path fill="none" stroke="midnightblue" d="M1044.3,-61.9751C1021.71,-51.9455 984.001,-35.2002 957.999,-23.6546"/>
<polygon fill="midnightblue" stroke="midnightblue" points="959.223,-20.3685 948.663,-19.5091 956.382,-26.7662 959.223,-20.3685"/>
</g>
<!-- Node28 -->
<g id="node28" class="node"><title>Node28</title>
<polygon fill="white" stroke="#bfbfbf" points="1006,-0.5 1006,-19.5 1095,-19.5 1095,-0.5 1006,-0.5"/>
<text text-anchor="middle" x="1050.5" y="-7.5" font-family="Helvetica,sans-Serif" font-size="10.00">openssl/crypto.h</text>
</g>
<!-- Node23&#45;&gt;Node28 -->
<g id="edge28" class="edge"><title>Node23&#45;&gt;Node28</title>
<path fill="none" stroke="midnightblue" d="M1061.64,-61.9751C1059.78,-53.4919 1056.88,-40.2043 1054.5,-29.3222"/>
<polygon fill="midnightblue" stroke="midnightblue" points="1057.91,-28.5315 1052.36,-19.5091 1051.07,-30.0257 1057.91,-28.5315"/>
</g>
<!-- Node39 -->
<g id="node39" class="node"><title>Node39</title>
<polygon fill="white" stroke="#bfbfbf" points="1459,-62 1459,-81 1508,-81 1508,-62 1459,-62"/>
<text text-anchor="middle" x="1483.5" y="-69" font-family="Helvetica,sans-Serif" font-size="10.00">cassert</text>
</g>
<!-- Node38&#45;&gt;Node39 -->
<g id="edge43" class="edge"><title>Node38&#45;&gt;Node39</title>
<path fill="none" stroke="midnightblue" d="M1494.64,-123.475C1492.78,-114.992 1489.88,-101.704 1487.5,-90.8222"/>
<polygon fill="midnightblue" stroke="midnightblue" points="1490.91,-90.0315 1485.36,-81.0091 1484.07,-91.5257 1490.91,-90.0315"/>
</g>
<!-- Node40 -->
<g id="node40" class="node"><title>Node40</title>
<polygon fill="white" stroke="#bfbfbf" points="1526,-62 1526,-81 1581,-81 1581,-62 1526,-62"/>
<text text-anchor="middle" x="1553.5" y="-69" font-family="Helvetica,sans-Serif" font-size="10.00">iostream</text>
</g>
<!-- Node38&#45;&gt;Node40 -->
<g id="edge44" class="edge"><title>Node38&#45;&gt;Node40</title>
<path fill="none" stroke="midnightblue" d="M1504.67,-123.475C1513.39,-114.373 1527.4,-99.741 1538.19,-88.483"/>
<polygon fill="midnightblue" stroke="midnightblue" points="1540.96,-90.6515 1545.35,-81.0091 1535.9,-85.809 1540.96,-90.6515"/>
</g>
<!-- Node41 -->
<g id="node41" class="node"><title>Node41</title>
<polygon fill="white" stroke="#bfbfbf" points="1311.5,-62 1311.5,-81 1363.5,-81 1363.5,-62 1311.5,-62"/>
<text text-anchor="middle" x="1337.5" y="-69" font-family="Helvetica,sans-Serif" font-size="10.00">sstream</text>
</g>
<!-- Node38&#45;&gt;Node41 -->
<g id="edge45" class="edge"><title>Node38&#45;&gt;Node41</title>
<path fill="none" stroke="midnightblue" d="M1471.68,-123.358C1446.56,-114.527 1406.66,-100.266 1372.5,-87 1370.86,-86.3616 1369.17,-85.6978 1367.48,-85.021"/>
<polygon fill="midnightblue" stroke="midnightblue" points="1368.38,-81.6099 1357.8,-81.0882 1365.74,-88.095 1368.38,-81.6099"/>
</g>
<!-- Node42 -->
<g id="node42" class="node"><title>Node42</title>
<polygon fill="white" stroke="#bfbfbf" points="1382,-62 1382,-81 1441,-81 1441,-62 1382,-62"/>
<text text-anchor="middle" x="1411.5" y="-69" font-family="Helvetica,sans-Serif" font-size="10.00">stdexcept</text>
</g>
<!-- Node38&#45;&gt;Node42 -->
<g id="edge46" class="edge"><title>Node38&#45;&gt;Node42</title>
<path fill="none" stroke="midnightblue" d="M1484.32,-123.475C1470.69,-113.931 1448.37,-98.3073 1432.03,-86.8683"/>
<polygon fill="midnightblue" stroke="midnightblue" points="1433.86,-83.8764 1423.66,-81.0091 1429.84,-89.6111 1433.86,-83.8764"/>
</g>
</g>
</svg>
