<?xml version="1.0" encoding="UTF-8" standalone="no"?>
<!DOCTYPE svg PUBLIC "-//W3C//DTD SVG 1.1//EN"
 "http://www.w3.org/Graphics/SVG/1.1/DTD/svg11.dtd">
<!-- Generated by graphviz version 2.38.0 (20140413.2041)
 -->
<!-- Title: src/qt/paymentserver.h Pages: 1 -->
<svg width="636pt" height="140pt"
 viewBox="0.00 0.00 636.00 140.00" xmlns="http://www.w3.org/2000/svg" xmlns:xlink="http://www.w3.org/1999/xlink">
<g id="graph0" class="graph" transform="scale(1 1) rotate(0) translate(4 136)">
<title>src/qt/paymentserver.h</title>
<polygon fill="white" stroke="none" points="-4,4 -4,-136 632,-136 632,4 -4,4"/>
<!-- Node1 -->
<g id="node1" class="node"><title>Node1</title>
<polygon fill="#bfbfbf" stroke="black" points="257.5,-112.5 257.5,-131.5 375.5,-131.5 375.5,-112.5 257.5,-112.5"/>
<text text-anchor="middle" x="316.5" y="-119.5" font-family="Helvetica,sans-Serif" font-size="10.00">src/qt/paymentserver.h</text>
</g>
<!-- Node2 -->
<g id="node2" class="node"><title>Node2</title>
<g id="a_node2"><a xlink:href="moc__paymentserver_8cpp.html" target="_top" xlink:title="src/qt/moc_paymentserver.cpp">
<polygon fill="white" stroke="black" points="0,-56.5 0,-75.5 153,-75.5 153,-56.5 0,-56.5"/>
<text text-anchor="middle" x="76.5" y="-63.5" font-family="Helvetica,sans-Serif" font-size="10.00">src/qt/moc_paymentserver.cpp</text>
</a>
</g>
</g>
<!-- Node1&#45;&gt;Node2 -->
<g id="edge1" class="edge"><title>Node1&#45;&gt;Node2</title>
<path fill="none" stroke="midnightblue" d="M268.577,-110.217C223.226,-100.013 156.058,-84.9006 114.351,-75.5164"/>
<polygon fill="midnightblue" stroke="midnightblue" points="267.947,-113.663 278.471,-112.444 269.484,-106.834 267.947,-113.663"/>
</g>
<!-- Node3 -->
<g id="node3" class="node"><title>Node3</title>
<g id="a_node3"><a xlink:href="paymentserver_8cpp.html" target="_top" xlink:title="src/qt/paymentserver.cpp">
<polygon fill="white" stroke="black" points="171,-56.5 171,-75.5 300,-75.5 300,-56.5 171,-56.5"/>
<text text-anchor="middle" x="235.5" y="-63.5" font-family="Helvetica,sans-Serif" font-size="10.00">src/qt/paymentserver.cpp</text>
</a>
</g>
</g>
<!-- Node1&#45;&gt;Node3 -->
<g id="edge2" class="edge"><title>Node1&#45;&gt;Node3</title>
<path fill="none" stroke="midnightblue" d="M294.933,-106.622C280.136,-96.7574 260.988,-83.9919 248.482,-75.6545"/>
<polygon fill="midnightblue" stroke="midnightblue" points="293.224,-109.689 303.486,-112.324 297.107,-103.865 293.224,-109.689"/>
</g>
<!-- Node4 -->
<g id="node4" class="node"><title>Node4</title>
<g id="a_node4"><a xlink:href="paymentservertests_8h.html" target="_top" xlink:title="src/qt/test/paymentservertests.h">
<polygon fill="white" stroke="black" points="318.5,-56.5 318.5,-75.5 476.5,-75.5 476.5,-56.5 318.5,-56.5"/>
<text text-anchor="middle" x="397.5" y="-63.5" font-family="Helvetica,sans-Serif" font-size="10.00">src/qt/test/paymentservertests.h</text>
</a>
</g>
</g>
<!-- Node1&#45;&gt;Node4 -->
<g id="edge3" class="edge"><title>Node1&#45;&gt;Node4</title>
<path fill="none" stroke="midnightblue" d="M338.067,-106.622C352.864,-96.7574 372.012,-83.9919 384.518,-75.6545"/>
<polygon fill="midnightblue" stroke="midnightblue" points="335.893,-103.865 329.514,-112.324 339.776,-109.689 335.893,-103.865"/>
</g>
<!-- Node6 -->
<g id="node6" class="node"><title>Node6</title>
<g id="a_node6"><a xlink:href="transactiondesc_8cpp.html" target="_top" xlink:title="src/qt/transactiondesc.cpp">
<polygon fill="white" stroke="black" points="495,-56.5 495,-75.5 628,-75.5 628,-56.5 495,-56.5"/>
<text text-anchor="middle" x="561.5" y="-63.5" font-family="Helvetica,sans-Serif" font-size="10.00">src/qt/transactiondesc.cpp</text>
</a>
</g>
</g>
<!-- Node1&#45;&gt;Node6 -->
<g id="edge5" class="edge"><title>Node1&#45;&gt;Node6</title>
<path fill="none" stroke="midnightblue" d="M365.13,-110.281C411.429,-100.077 480.195,-84.9203 522.861,-75.5164"/>
<polygon fill="midnightblue" stroke="midnightblue" points="364.333,-106.873 355.321,-112.444 365.84,-113.709 364.333,-106.873"/>
</g>
<!-- Node5 -->
<g id="node5" class="node"><title>Node5</title>
<g id="a_node5"><a xlink:href="paymentservertests_8cpp.html" target="_top" xlink:title="src/qt/test/paymentservertests.cpp">
<polygon fill="white" stroke="black" points="313,-0.5 313,-19.5 482,-19.5 482,-0.5 313,-0.5"/>
<text text-anchor="middle" x="397.5" y="-7.5" font-family="Helvetica,sans-Serif" font-size="10.00">src/qt/test/paymentservertests.cpp</text>
</a>
</g>
</g>
<!-- Node4&#45;&gt;Node5 -->
<g id="edge4" class="edge"><title>Node4&#45;&gt;Node5</title>
<path fill="none" stroke="midnightblue" d="M397.5,-45.8045C397.5,-36.9102 397.5,-26.7798 397.5,-19.7511"/>
<polygon fill="midnightblue" stroke="midnightblue" points="394,-46.083 397.5,-56.083 401,-46.083 394,-46.083"/>
</g>
</g>
</svg>
