<?xml version="1.0" encoding="UTF-8" standalone="no"?>
<!DOCTYPE svg PUBLIC "-//W3C//DTD SVG 1.1//EN"
 "http://www.w3.org/Graphics/SVG/1.1/DTD/svg11.dtd">
<!-- Generated by graphviz version 2.38.0 (20140413.2041)
 -->
<!-- Title: src/qt/peertablemodel.h Pages: 1 -->
<svg width="802pt" height="140pt"
 viewBox="0.00 0.00 801.50 140.00" xmlns="http://www.w3.org/2000/svg" xmlns:xlink="http://www.w3.org/1999/xlink">
<g id="graph0" class="graph" transform="scale(1 1) rotate(0) translate(4 136)">
<title>src/qt/peertablemodel.h</title>
<polygon fill="white" stroke="none" points="-4,4 -4,-136 797.5,-136 797.5,4 -4,4"/>
<!-- Node1 -->
<g id="node1" class="node"><title>Node1</title>
<polygon fill="#bfbfbf" stroke="black" points="352,-112.5 352,-131.5 473,-131.5 473,-112.5 352,-112.5"/>
<text text-anchor="middle" x="412.5" y="-119.5" font-family="Helvetica,sans-Serif" font-size="10.00">src/qt/peertablemodel.h</text>
</g>
<!-- Node2 -->
<g id="node2" class="node"><title>Node2</title>
<g id="a_node2"><a xlink:href="rpcconsole_8h.html" target="_top" xlink:title="src/qt/rpcconsole.h">
<polygon fill="white" stroke="black" points="168.5,-56.5 168.5,-75.5 268.5,-75.5 268.5,-56.5 168.5,-56.5"/>
<text text-anchor="middle" x="218.5" y="-63.5" font-family="Helvetica,sans-Serif" font-size="10.00">src/qt/rpcconsole.h</text>
</a>
</g>
</g>
<!-- Node1&#45;&gt;Node2 -->
<g id="edge1" class="edge"><title>Node1&#45;&gt;Node2</title>
<path fill="none" stroke="midnightblue" d="M371.899,-109.699C335.285,-99.507 282.243,-84.7429 249.096,-75.5164"/>
<polygon fill="midnightblue" stroke="midnightblue" points="371.188,-113.134 381.76,-112.444 373.065,-106.39 371.188,-113.134"/>
</g>
<!-- Node5 -->
<g id="node5" class="node"><title>Node5</title>
<g id="a_node5"><a xlink:href="rpcconsole_8cpp.html" target="_top" xlink:title="src/qt/rpcconsole.cpp">
<polygon fill="white" stroke="black" points="288,-0.5 288,-19.5 399,-19.5 399,-0.5 288,-0.5"/>
<text text-anchor="middle" x="343.5" y="-7.5" font-family="Helvetica,sans-Serif" font-size="10.00">src/qt/rpcconsole.cpp</text>
</a>
</g>
</g>
<!-- Node1&#45;&gt;Node5 -->
<g id="edge8" class="edge"><title>Node1&#45;&gt;Node5</title>
<path fill="none" stroke="midnightblue" d="M382.144,-107.611C369.173,-100.24 355.256,-89.7578 347.5,-76 337.395,-58.0753 339.636,-32.7842 341.776,-19.6605"/>
<polygon fill="midnightblue" stroke="midnightblue" points="380.84,-110.879 391.321,-112.431 384.095,-104.682 380.84,-110.879"/>
</g>
<!-- Node6 -->
<g id="node6" class="node"><title>Node6</title>
<g id="a_node6"><a xlink:href="clientmodel_8cpp.html" target="_top" xlink:title="src/qt/clientmodel.cpp">
<polygon fill="white" stroke="black" points="356,-56.5 356,-75.5 469,-75.5 469,-56.5 356,-56.5"/>
<text text-anchor="middle" x="412.5" y="-63.5" font-family="Helvetica,sans-Serif" font-size="10.00">src/qt/clientmodel.cpp</text>
</a>
</g>
</g>
<!-- Node1&#45;&gt;Node6 -->
<g id="edge5" class="edge"><title>Node1&#45;&gt;Node6</title>
<path fill="none" stroke="midnightblue" d="M412.5,-101.805C412.5,-92.9102 412.5,-82.7798 412.5,-75.7511"/>
<polygon fill="midnightblue" stroke="midnightblue" points="409,-102.083 412.5,-112.083 416,-102.083 409,-102.083"/>
</g>
<!-- Node7 -->
<g id="node7" class="node"><title>Node7</title>
<g id="a_node7"><a xlink:href="moc__peertablemodel_8cpp.html" target="_top" xlink:title="src/qt/moc_peertablemodel.cpp">
<polygon fill="white" stroke="black" points="487.5,-56.5 487.5,-75.5 643.5,-75.5 643.5,-56.5 487.5,-56.5"/>
<text text-anchor="middle" x="565.5" y="-63.5" font-family="Helvetica,sans-Serif" font-size="10.00">src/qt/moc_peertablemodel.cpp</text>
</a>
</g>
</g>
<!-- Node1&#45;&gt;Node7 -->
<g id="edge6" class="edge"><title>Node1&#45;&gt;Node7</title>
<path fill="none" stroke="midnightblue" d="M446.389,-109.039C475.177,-98.8786 515.787,-84.5457 541.37,-75.5164"/>
<polygon fill="midnightblue" stroke="midnightblue" points="445.008,-105.815 436.743,-112.444 447.338,-112.416 445.008,-105.815"/>
</g>
<!-- Node8 -->
<g id="node8" class="node"><title>Node8</title>
<g id="a_node8"><a xlink:href="peertablemodel_8cpp.html" target="_top" xlink:title="src/qt/peertablemodel.cpp">
<polygon fill="white" stroke="black" points="661.5,-56.5 661.5,-75.5 793.5,-75.5 793.5,-56.5 661.5,-56.5"/>
<text text-anchor="middle" x="727.5" y="-63.5" font-family="Helvetica,sans-Serif" font-size="10.00">src/qt/peertablemodel.cpp</text>
</a>
</g>
</g>
<!-- Node1&#45;&gt;Node8 -->
<g id="edge7" class="edge"><title>Node1&#45;&gt;Node8</title>
<path fill="none" stroke="midnightblue" d="M472.423,-110.727C531.949,-100.523 622.16,-85.0583 677.821,-75.5164"/>
<polygon fill="midnightblue" stroke="midnightblue" points="471.678,-107.304 462.413,-112.444 472.86,-114.203 471.678,-107.304"/>
</g>
<!-- Node3 -->
<g id="node3" class="node"><title>Node3</title>
<g id="a_node3"><a xlink:href="anoncoingui_8cpp.html" target="_top" xlink:title="src/qt/anoncoingui.cpp">
<polygon fill="white" stroke="black" points="0,-0.5 0,-19.5 117,-19.5 117,-0.5 0,-0.5"/>
<text text-anchor="middle" x="58.5" y="-7.5" font-family="Helvetica,sans-Serif" font-size="10.00">src/qt/anoncoingui.cpp</text>
</a>
</g>
</g>
<!-- Node2&#45;&gt;Node3 -->
<g id="edge2" class="edge"><title>Node2&#45;&gt;Node3</title>
<path fill="none" stroke="midnightblue" d="M183.454,-53.172C153.326,-43.0039 110.604,-28.5852 83.7339,-19.5164"/>
<polygon fill="midnightblue" stroke="midnightblue" points="182.553,-56.5619 193.148,-56.4435 184.792,-49.9295 182.553,-56.5619"/>
</g>
<!-- Node4 -->
<g id="node4" class="node"><title>Node4</title>
<g id="a_node4"><a xlink:href="moc__rpcconsole_8cpp.html" target="_top" xlink:title="src/qt/moc_rpcconsole.cpp">
<polygon fill="white" stroke="black" points="135,-0.5 135,-19.5 270,-19.5 270,-0.5 135,-0.5"/>
<text text-anchor="middle" x="202.5" y="-7.5" font-family="Helvetica,sans-Serif" font-size="10.00">src/qt/moc_rpcconsole.cpp</text>
</a>
</g>
</g>
<!-- Node2&#45;&gt;Node4 -->
<g id="edge3" class="edge"><title>Node2&#45;&gt;Node4</title>
<path fill="none" stroke="midnightblue" d="M212.988,-46.3956C210.311,-37.362 207.222,-26.936 205.093,-19.7511"/>
<polygon fill="midnightblue" stroke="midnightblue" points="209.661,-47.4893 215.858,-56.083 216.373,-45.5007 209.661,-47.4893"/>
</g>
<!-- Node2&#45;&gt;Node5 -->
<g id="edge4" class="edge"><title>Node2&#45;&gt;Node5</title>
<path fill="none" stroke="midnightblue" d="M247.741,-52.3678C271.15,-42.2553 303.341,-28.3486 323.786,-19.5164"/>
<polygon fill="midnightblue" stroke="midnightblue" points="246.099,-49.2647 238.307,-56.4435 248.875,-55.6907 246.099,-49.2647"/>
</g>
</g>
</svg>
