<?xml version="1.0" encoding="UTF-8" standalone="no"?>
<!DOCTYPE svg PUBLIC "-//W3C//DTD SVG 1.1//EN"
 "http://www.w3.org/Graphics/SVG/1.1/DTD/svg11.dtd">
<!-- Generated by graphviz version 2.38.0 (20140413.2041)
 -->
<!-- Title: src/qt/qvaluecombobox.h Pages: 1 -->
<svg width="672pt" height="140pt"
 viewBox="0.00 0.00 671.50 140.00" xmlns="http://www.w3.org/2000/svg" xmlns:xlink="http://www.w3.org/1999/xlink">
<g id="graph0" class="graph" transform="scale(1 1) rotate(0) translate(4 136)">
<title>src/qt/qvaluecombobox.h</title>
<polygon fill="white" stroke="none" points="-4,4 -4,-136 667.5,-136 667.5,4 -4,4"/>
<!-- Node1 -->
<g id="node1" class="node"><title>Node1</title>
<polygon fill="#bfbfbf" stroke="black" points="273.5,-112.5 273.5,-131.5 401.5,-131.5 401.5,-112.5 273.5,-112.5"/>
<text text-anchor="middle" x="337.5" y="-119.5" font-family="Helvetica,sans-Serif" font-size="10.00">src/qt/qvaluecombobox.h</text>
</g>
<!-- Node2 -->
<g id="node2" class="node"><title>Node2</title>
<g id="a_node2"><a xlink:href="anoncoinamountfield_8cpp.html" target="_top" xlink:title="src/qt/anoncoinamountfield.cpp">
<polygon fill="white" stroke="black" points="0,-56.5 0,-75.5 155,-75.5 155,-56.5 0,-56.5"/>
<text text-anchor="middle" x="77.5" y="-63.5" font-family="Helvetica,sans-Serif" font-size="10.00">src/qt/anoncoinamountfield.cpp</text>
</a>
</g>
</g>
<!-- Node1&#45;&gt;Node2 -->
<g id="edge1" class="edge"><title>Node1&#45;&gt;Node2</title>
<path fill="none" stroke="midnightblue" d="M286.509,-110.41C237.372,-100.204 163.973,-84.9597 118.505,-75.5164"/>
<polygon fill="midnightblue" stroke="midnightblue" points="285.799,-113.837 296.302,-112.444 287.223,-106.983 285.799,-113.837"/>
</g>
<!-- Node3 -->
<g id="node3" class="node"><title>Node3</title>
<g id="a_node3"><a xlink:href="ui__optionsdialog_8h.html" target="_top" xlink:title="src/qt/forms/ui_optionsdialog.h">
<polygon fill="white" stroke="black" points="173.5,-56.5 173.5,-75.5 325.5,-75.5 325.5,-56.5 173.5,-56.5"/>
<text text-anchor="middle" x="249.5" y="-63.5" font-family="Helvetica,sans-Serif" font-size="10.00">src/qt/forms/ui_optionsdialog.h</text>
</a>
</g>
</g>
<!-- Node1&#45;&gt;Node3 -->
<g id="edge2" class="edge"><title>Node1&#45;&gt;Node3</title>
<path fill="none" stroke="midnightblue" d="M314.523,-106.901C298.387,-96.9986 277.319,-84.0705 263.604,-75.6545"/>
<polygon fill="midnightblue" stroke="midnightblue" points="313.007,-110.077 323.361,-112.324 316.669,-104.111 313.007,-110.077"/>
</g>
<!-- Node5 -->
<g id="node5" class="node"><title>Node5</title>
<g id="a_node5"><a xlink:href="moc__qvaluecombobox_8cpp.html" target="_top" xlink:title="src/qt/moc_qvaluecombobox.cpp">
<polygon fill="white" stroke="black" points="344,-56.5 344,-75.5 507,-75.5 507,-56.5 344,-56.5"/>
<text text-anchor="middle" x="425.5" y="-63.5" font-family="Helvetica,sans-Serif" font-size="10.00">src/qt/moc_qvaluecombobox.cpp</text>
</a>
</g>
</g>
<!-- Node1&#45;&gt;Node5 -->
<g id="edge4" class="edge"><title>Node1&#45;&gt;Node5</title>
<path fill="none" stroke="midnightblue" d="M360.477,-106.901C376.613,-96.9986 397.681,-84.0705 411.396,-75.6545"/>
<polygon fill="midnightblue" stroke="midnightblue" points="358.331,-104.111 351.639,-112.324 361.993,-110.077 358.331,-104.111"/>
</g>
<!-- Node6 -->
<g id="node6" class="node"><title>Node6</title>
<g id="a_node6"><a xlink:href="qvaluecombobox_8cpp.html" target="_top" xlink:title="src/qt/qvaluecombobox.cpp">
<polygon fill="white" stroke="black" points="525.5,-56.5 525.5,-75.5 663.5,-75.5 663.5,-56.5 525.5,-56.5"/>
<text text-anchor="middle" x="594.5" y="-63.5" font-family="Helvetica,sans-Serif" font-size="10.00">src/qt/qvaluecombobox.cpp</text>
</a>
</g>
</g>
<!-- Node1&#45;&gt;Node6 -->
<g id="edge5" class="edge"><title>Node1&#45;&gt;Node6</title>
<path fill="none" stroke="midnightblue" d="M388.207,-110.346C436.776,-100.141 509.119,-84.94 553.968,-75.5164"/>
<polygon fill="midnightblue" stroke="midnightblue" points="387.289,-106.962 378.222,-112.444 388.728,-113.812 387.289,-106.962"/>
</g>
<!-- Node4 -->
<g id="node4" class="node"><title>Node4</title>
<g id="a_node4"><a xlink:href="optionsdialog_8cpp.html" target="_top" xlink:title="src/qt/optionsdialog.cpp">
<polygon fill="white" stroke="black" points="188.5,-0.5 188.5,-19.5 310.5,-19.5 310.5,-0.5 188.5,-0.5"/>
<text text-anchor="middle" x="249.5" y="-7.5" font-family="Helvetica,sans-Serif" font-size="10.00">src/qt/optionsdialog.cpp</text>
</a>
</g>
</g>
<!-- Node3&#45;&gt;Node4 -->
<g id="edge3" class="edge"><title>Node3&#45;&gt;Node4</title>
<path fill="none" stroke="midnightblue" d="M249.5,-45.8045C249.5,-36.9102 249.5,-26.7798 249.5,-19.7511"/>
<polygon fill="midnightblue" stroke="midnightblue" points="246,-46.083 249.5,-56.083 253,-46.083 246,-46.083"/>
</g>
</g>
</svg>
