<?xml version="1.0" encoding="UTF-8" standalone="no"?>
<!DOCTYPE svg PUBLIC "-//W3C//DTD SVG 1.1//EN"
 "http://www.w3.org/Graphics/SVG/1.1/DTD/svg11.dtd">
<!-- Generated by graphviz version 2.38.0 (20140413.2041)
 -->
<!-- Title: src/qt/receivecoinsdialog.h Pages: 1 -->
<svg width="467pt" height="84pt"
 viewBox="0.00 0.00 466.50 84.00" xmlns="http://www.w3.org/2000/svg" xmlns:xlink="http://www.w3.org/1999/xlink">
<g id="graph0" class="graph" transform="scale(1 1) rotate(0) translate(4 80)">
<title>src/qt/receivecoinsdialog.h</title>
<polygon fill="white" stroke="none" points="-4,4 -4,-80 462.5,-80 462.5,4 -4,4"/>
<!-- Node1 -->
<g id="node1" class="node"><title>Node1</title>
<polygon fill="#bfbfbf" stroke="black" points="192.5,-56.5 192.5,-75.5 326.5,-75.5 326.5,-56.5 192.5,-56.5"/>
<text text-anchor="middle" x="259.5" y="-63.5" font-family="Helvetica,sans-Serif" font-size="10.00">src/qt/receivecoinsdialog.h</text>
</g>
<!-- Node2 -->
<g id="node2" class="node"><title>Node2</title>
<g id="a_node2"><a xlink:href="moc__receivecoinsdialog_8cpp.html" target="_top" xlink:title="src/qt/moc_receivecoinsdialog.cpp">
<polygon fill="white" stroke="black" points="0,-0.5 0,-19.5 169,-19.5 169,-0.5 0,-0.5"/>
<text text-anchor="middle" x="84.5" y="-7.5" font-family="Helvetica,sans-Serif" font-size="10.00">src/qt/moc_receivecoinsdialog.cpp</text>
</a>
</g>
</g>
<!-- Node1&#45;&gt;Node2 -->
<g id="edge1" class="edge"><title>Node1&#45;&gt;Node2</title>
<path fill="none" stroke="midnightblue" d="M222.025,-53.4363C189.03,-43.2551 141.744,-28.664 112.1,-19.5164"/>
<polygon fill="midnightblue" stroke="midnightblue" points="221.183,-56.8393 231.771,-56.4435 223.247,-50.1505 221.183,-56.8393"/>
</g>
<!-- Node3 -->
<g id="node3" class="node"><title>Node3</title>
<g id="a_node3"><a xlink:href="receivecoinsdialog_8cpp.html" target="_top" xlink:title="src/qt/receivecoinsdialog.cpp">
<polygon fill="white" stroke="black" points="187,-0.5 187,-19.5 332,-19.5 332,-0.5 187,-0.5"/>
<text text-anchor="middle" x="259.5" y="-7.5" font-family="Helvetica,sans-Serif" font-size="10.00">src/qt/receivecoinsdialog.cpp</text>
</a>
</g>
</g>
<!-- Node1&#45;&gt;Node3 -->
<g id="edge2" class="edge"><title>Node1&#45;&gt;Node3</title>
<path fill="none" stroke="midnightblue" d="M259.5,-45.8045C259.5,-36.9102 259.5,-26.7798 259.5,-19.7511"/>
<polygon fill="midnightblue" stroke="midnightblue" points="256,-46.083 259.5,-56.083 263,-46.083 256,-46.083"/>
</g>
<!-- Node4 -->
<g id="node4" class="node"><title>Node4</title>
<g id="a_node4"><a xlink:href="walletview_8cpp.html" target="_top" xlink:title="src/qt/walletview.cpp">
<polygon fill="white" stroke="black" points="350.5,-0.5 350.5,-19.5 458.5,-19.5 458.5,-0.5 350.5,-0.5"/>
<text text-anchor="middle" x="404.5" y="-7.5" font-family="Helvetica,sans-Serif" font-size="10.00">src/qt/walletview.cpp</text>
</a>
</g>
</g>
<!-- Node1&#45;&gt;Node4 -->
<g id="edge3" class="edge"><title>Node1&#45;&gt;Node4</title>
<path fill="none" stroke="midnightblue" d="M291.975,-52.9058C319.236,-42.7536 357.492,-28.5063 381.632,-19.5164"/>
<polygon fill="midnightblue" stroke="midnightblue" points="290.625,-49.6736 282.476,-56.4435 293.068,-56.2334 290.625,-49.6736"/>
</g>
</g>
</svg>
