<?xml version="1.0" encoding="UTF-8" standalone="no"?>
<!DOCTYPE svg PUBLIC "-//W3C//DTD SVG 1.1//EN"
 "http://www.w3.org/Graphics/SVG/1.1/DTD/svg11.dtd">
<!-- Generated by graphviz version 2.38.0 (20140413.2041)
 -->
<!-- Title: getblockchaininfo Pages: 1 -->
<svg width="548pt" height="420pt"
 viewBox="0.00 0.00 548.00 419.50" xmlns="http://www.w3.org/2000/svg" xmlns:xlink="http://www.w3.org/1999/xlink">
<g id="graph0" class="graph" transform="scale(1 1) rotate(0) translate(4 415.5)">
<title>getblockchaininfo</title>
<polygon fill="white" stroke="none" points="-4,4 -4,-415.5 544,-415.5 544,4 -4,4"/>
<!-- Node1 -->
<g id="node1" class="node"><title>Node1</title>
<polygon fill="#bfbfbf" stroke="black" points="0,-202 0,-221 94,-221 94,-202 0,-202"/>
<text text-anchor="middle" x="47" y="-209" font-family="Helvetica,sans-Serif" font-size="10.00">getblockchaininfo</text>
</g>
<!-- Node2 -->
<g id="node2" class="node"><title>Node2</title>
<g id="a_node2"><a xlink:href="rpcserver_8cpp.html#ac01ac6eab5467567ed0da106814e04ec" target="_top" xlink:title="HelpExampleCli">
<polygon fill="white" stroke="black" points="163.5,-392 163.5,-411 251.5,-411 251.5,-392 163.5,-392"/>
<text text-anchor="middle" x="207.5" y="-399" font-family="Helvetica,sans-Serif" font-size="10.00">HelpExampleCli</text>
</a>
</g>
</g>
<!-- Node1&#45;&gt;Node2 -->
<g id="edge1" class="edge"><title>Node1&#45;&gt;Node2</title>
<path fill="none" stroke="midnightblue" d="M49.6383,-221.011C55.162,-250.077 75.8818,-338.418 130,-382.5 136.861,-388.089 145.137,-392.066 153.675,-394.89"/>
<polygon fill="midnightblue" stroke="midnightblue" points="152.791,-398.277 163.365,-397.612 154.685,-391.538 152.791,-398.277"/>
</g>
<!-- Node3 -->
<g id="node3" class="node"><title>Node3</title>
<g id="a_node3"><a xlink:href="rpcserver_8cpp.html#a06ea60e24e5a1053a14a11b1009bf9ef" target="_top" xlink:title="HelpExampleRpc">
<polygon fill="white" stroke="black" points="160.5,-354 160.5,-373 254.5,-373 254.5,-354 160.5,-354"/>
<text text-anchor="middle" x="207.5" y="-361" font-family="Helvetica,sans-Serif" font-size="10.00">HelpExampleRpc</text>
</a>
</g>
</g>
<!-- Node1&#45;&gt;Node3 -->
<g id="edge2" class="edge"><title>Node1&#45;&gt;Node3</title>
<path fill="none" stroke="midnightblue" d="M51.12,-221.327C59.5257,-246.145 85.0953,-311.699 130,-344.5 136.078,-348.94 143.075,-352.349 150.316,-354.965"/>
<polygon fill="midnightblue" stroke="midnightblue" points="149.69,-358.435 160.278,-358.063 151.769,-351.751 149.69,-358.435"/>
</g>
<!-- Node4 -->
<g id="node4" class="node"><title>Node4</title>
<g id="a_node4"><a xlink:href="netbase_8cpp.html#a4e67b39fc1769663260d791d2f4d049d" target="_top" xlink:title="GetProxy">
<polygon fill="white" stroke="black" points="178.5,-316 178.5,-335 236.5,-335 236.5,-316 178.5,-316"/>
<text text-anchor="middle" x="207.5" y="-323" font-family="Helvetica,sans-Serif" font-size="10.00">GetProxy</text>
</a>
</g>
</g>
<!-- Node1&#45;&gt;Node4 -->
<g id="edge3" class="edge"><title>Node1&#45;&gt;Node4</title>
<path fill="none" stroke="midnightblue" d="M54.2056,-221.182C66.4662,-239.546 95.6085,-279.556 130,-301.5 141.574,-308.885 155.585,-314.142 168.438,-317.814"/>
<polygon fill="midnightblue" stroke="midnightblue" points="167.868,-321.283 178.428,-320.43 169.641,-314.511 167.868,-321.283"/>
</g>
<!-- Node5 -->
<g id="node5" class="node"><title>Node5</title>
<g id="a_node5"><a xlink:href="chainparams_8cpp.html#ace5c5b706d71a324a417dd2db394fd4a" target="_top" xlink:title="Return the currently selected parameters. ">
<polygon fill="white" stroke="black" points="489,-173 489,-192 540,-192 540,-173 489,-173"/>
<text text-anchor="middle" x="514.5" y="-180" font-family="Helvetica,sans-Serif" font-size="10.00">Params</text>
</a>
</g>
</g>
<!-- Node1&#45;&gt;Node5 -->
<g id="edge4" class="edge"><title>Node1&#45;&gt;Node5</title>
<path fill="none" stroke="midnightblue" d="M57.5163,-221.12C71.7789,-234.778 100.221,-259.167 130,-268.5 195.736,-289.103 217.224,-280.832 285,-268.5 360.829,-254.703 444.219,-217.117 486.172,-196.497"/>
<polygon fill="midnightblue" stroke="midnightblue" points="487.803,-199.595 495.198,-192.007 484.686,-193.328 487.803,-199.595"/>
</g>
<!-- Node6 -->
<g id="node6" class="node"><title>Node6</title>
<g id="a_node6"><a xlink:href="class_c_chain_params.html#ad11dd170e65650ff4b12d45a32b9c774" target="_top" xlink:title="CChainParams::DataDir">
<polygon fill="white" stroke="black" points="145.5,-240 145.5,-259 269.5,-259 269.5,-240 145.5,-240"/>
<text text-anchor="middle" x="207.5" y="-247" font-family="Helvetica,sans-Serif" font-size="10.00">CChainParams::DataDir</text>
</a>
</g>
</g>
<!-- Node1&#45;&gt;Node6 -->
<g id="edge5" class="edge"><title>Node1&#45;&gt;Node6</title>
<path fill="none" stroke="midnightblue" d="M87.9962,-221.089C108.912,-226.104 134.708,-232.288 156.886,-237.605"/>
<polygon fill="midnightblue" stroke="midnightblue" points="156.251,-241.052 166.791,-239.98 157.883,-234.245 156.251,-241.052"/>
</g>
<!-- Node7 -->
<g id="node7" class="node"><title>Node7</title>
<g id="a_node7"><a xlink:href="class_c_chain.html#a0c4ffb8501acfb8a7e1c0f5e6322ada3" target="_top" xlink:title="Return the maximal height in the chain. ">
<polygon fill="white" stroke="black" points="165.5,-202 165.5,-221 249.5,-221 249.5,-202 165.5,-202"/>
<text text-anchor="middle" x="207.5" y="-209" font-family="Helvetica,sans-Serif" font-size="10.00">CChain::Height</text>
</a>
</g>
</g>
<!-- Node1&#45;&gt;Node7 -->
<g id="edge6" class="edge"><title>Node1&#45;&gt;Node7</title>
<path fill="none" stroke="midnightblue" d="M94.2708,-211.5C113.324,-211.5 135.474,-211.5 155.036,-211.5"/>
<polygon fill="midnightblue" stroke="midnightblue" points="155.3,-215 165.3,-211.5 155.3,-208 155.3,-215"/>
</g>
<!-- Node8 -->
<g id="node8" class="node"><title>Node8</title>
<g id="a_node8"><a xlink:href="class_c_chain.html#a7482d06d8e8143f46326cf9c12c06daf" target="_top" xlink:title="Returns the index entry for the tip of this chain, or NULL if none. ">
<polygon fill="white" stroke="black" points="352.5,-107 352.5,-126 421.5,-126 421.5,-107 352.5,-107"/>
<text text-anchor="middle" x="387" y="-114" font-family="Helvetica,sans-Serif" font-size="10.00">CChain::Tip</text>
</a>
</g>
</g>
<!-- Node1&#45;&gt;Node8 -->
<g id="edge7" class="edge"><title>Node1&#45;&gt;Node8</title>
<path fill="none" stroke="midnightblue" d="M88.769,-201.986C151.476,-187.307 266.34,-160.23 285,-154.5 308.288,-147.349 333.976,-137.658 353.618,-129.853"/>
<polygon fill="midnightblue" stroke="midnightblue" points="355.039,-133.054 363.015,-126.08 352.431,-126.558 355.039,-133.054"/>
</g>
<!-- Node9 -->
<g id="node9" class="node"><title>Node9</title>
<g id="a_node9"><a xlink:href="class_c_block_index.html#ab843ef9b8b0a0193ec3a5c24738e484f" target="_top" xlink:title="CBlockIndex::GetBlockHash">
<polygon fill="white" stroke="black" points="136.5,-126 136.5,-145 278.5,-145 278.5,-126 136.5,-126"/>
<text text-anchor="middle" x="207.5" y="-133" font-family="Helvetica,sans-Serif" font-size="10.00">CBlockIndex::GetBlockHash</text>
</a>
</g>
</g>
<!-- Node1&#45;&gt;Node9 -->
<g id="edge8" class="edge"><title>Node1&#45;&gt;Node9</title>
<path fill="none" stroke="midnightblue" d="M60.7441,-201.923C76.3753,-190.537 104.006,-171.565 130,-159.5 139.28,-155.193 149.537,-151.38 159.446,-148.134"/>
<polygon fill="midnightblue" stroke="midnightblue" points="160.694,-151.41 169.189,-145.078 158.599,-144.731 160.694,-151.41"/>
</g>
<!-- Node10 -->
<g id="node10" class="node"><title>Node10</title>
<g id="a_node10"><a xlink:href="classbase__uint.html#ac9929c28600796a9acf75881bb750576" target="_top" xlink:title="base_uint::GetHex">
<polygon fill="white" stroke="black" points="158,-88 158,-107 257,-107 257,-88 158,-88"/>
<text text-anchor="middle" x="207.5" y="-95" font-family="Helvetica,sans-Serif" font-size="10.00">base_uint::GetHex</text>
</a>
</g>
</g>
<!-- Node1&#45;&gt;Node10 -->
<g id="edge9" class="edge"><title>Node1&#45;&gt;Node10</title>
<path fill="none" stroke="midnightblue" d="M53.4063,-201.975C64.8793,-182.668 93.6186,-138.86 130,-116.5 135.509,-113.114 141.59,-110.331 147.845,-108.044"/>
<polygon fill="midnightblue" stroke="midnightblue" points="149.32,-111.245 157.76,-104.841 147.168,-104.584 149.32,-111.245"/>
</g>
<!-- Node11 -->
<g id="node11" class="node"><title>Node11</title>
<g id="a_node11"><a xlink:href="rpcblockchain_8cpp.html#a65a78b16d228932a6142656509a8bce4" target="_top" xlink:title="GetDifficulty">
<polygon fill="white" stroke="black" points="172.5,-50 172.5,-69 242.5,-69 242.5,-50 172.5,-50"/>
<text text-anchor="middle" x="207.5" y="-57" font-family="Helvetica,sans-Serif" font-size="10.00">GetDifficulty</text>
</a>
</g>
</g>
<!-- Node1&#45;&gt;Node11 -->
<g id="edge10" class="edge"><title>Node1&#45;&gt;Node11</title>
<path fill="none" stroke="midnightblue" d="M51.12,-201.673C59.5257,-176.855 85.0953,-111.301 130,-78.5 139.487,-71.5701 151.215,-67.1514 162.613,-64.3389"/>
<polygon fill="midnightblue" stroke="midnightblue" points="163.418,-67.7463 172.48,-62.2581 161.973,-60.8969 163.418,-67.7463"/>
</g>
<!-- Node12 -->
<g id="node12" class="node"><title>Node12</title>
<g id="a_node12"><a xlink:href="namespace_checkpoints.html#ad473e253a3826fec1a7f9394c695ba91" target="_top" xlink:title="Checkpoints::GuessVerification\lProgress">
<polygon fill="white" stroke="black" points="130,-0.5 130,-30.5 285,-30.5 285,-0.5 130,-0.5"/>
<text text-anchor="start" x="138" y="-18.5" font-family="Helvetica,sans-Serif" font-size="10.00">Checkpoints::GuessVerification</text>
<text text-anchor="middle" x="207.5" y="-7.5" font-family="Helvetica,sans-Serif" font-size="10.00">Progress</text>
</a>
</g>
</g>
<!-- Node1&#45;&gt;Node12 -->
<g id="edge12" class="edge"><title>Node1&#45;&gt;Node12</title>
<path fill="none" stroke="midnightblue" d="M49.868,-201.751C55.929,-172.766 77.7606,-86.295 130,-40.5 131.931,-38.8075 133.978,-37.2292 136.116,-35.7574"/>
<polygon fill="midnightblue" stroke="midnightblue" points="137.967,-38.7288 144.753,-30.5923 134.374,-32.7212 137.967,-38.7288"/>
</g>
<!-- Node11&#45;&gt;Node8 -->
<g id="edge11" class="edge"><title>Node11&#45;&gt;Node8</title>
<path fill="none" stroke="midnightblue" d="M242.628,-67.0773C255.945,-70.2677 271.28,-74.2311 285,-78.5 308.261,-85.7375 333.95,-95.4266 353.598,-103.209"/>
<polygon fill="midnightblue" stroke="midnightblue" points="352.415,-106.506 362.999,-106.97 355.015,-100.006 352.415,-106.506"/>
</g>
<!-- Node13 -->
<g id="node13" class="node"><title>Node13</title>
<g id="a_node13"><a xlink:href="namespace_checkpoints.html#a63e87603e80d739b1aefa062f9bd337e" target="_top" xlink:title="Checkpoints::Checkpoints">
<polygon fill="white" stroke="black" points="321,-37 321,-56 453,-56 453,-37 321,-37"/>
<text text-anchor="middle" x="387" y="-44" font-family="Helvetica,sans-Serif" font-size="10.00">Checkpoints::Checkpoints</text>
</a>
</g>
</g>
<!-- Node12&#45;&gt;Node13 -->
<g id="edge13" class="edge"><title>Node12&#45;&gt;Node13</title>
<path fill="none" stroke="midnightblue" d="M285.064,-28.8717C297.111,-30.9756 309.463,-33.1329 321.209,-35.1844"/>
<polygon fill="midnightblue" stroke="midnightblue" points="320.9,-38.6834 331.354,-36.9561 322.105,-31.7878 320.9,-38.6834"/>
</g>
<!-- Node13&#45;&gt;Node5 -->
<g id="edge14" class="edge"><title>Node13&#45;&gt;Node5</title>
<path fill="none" stroke="midnightblue" d="M402.669,-56.1731C416.528,-65.7179 437.452,-81.2087 453,-97.5 472.837,-118.286 491.319,-145.947 502.509,-163.984"/>
<polygon fill="midnightblue" stroke="midnightblue" points="499.751,-166.184 507.938,-172.909 505.731,-162.546 499.751,-166.184"/>
</g>
</g>
</svg>
