<?xml version="1.0" encoding="UTF-8" standalone="no"?>
<!DOCTYPE svg PUBLIC "-//W3C//DTD SVG 1.1//EN"
 "http://www.w3.org/Graphics/SVG/1.1/DTD/svg11.dtd">
<!-- Generated by graphviz version 2.38.0 (20140413.2041)
 -->
<!-- Title: getdifficulty Pages: 1 -->
<svg width="310pt" height="104pt"
 viewBox="0.00 0.00 310.00 104.00" xmlns="http://www.w3.org/2000/svg" xmlns:xlink="http://www.w3.org/1999/xlink">
<g id="graph0" class="graph" transform="scale(1 1) rotate(0) translate(4 100)">
<title>getdifficulty</title>
<polygon fill="white" stroke="none" points="-4,4 -4,-100 306,-100 306,4 -4,4"/>
<!-- Node1 -->
<g id="node1" class="node"><title>Node1</title>
<polygon fill="#bfbfbf" stroke="black" points="0,-38.5 0,-57.5 67,-57.5 67,-38.5 0,-38.5"/>
<text text-anchor="middle" x="33.5" y="-45.5" font-family="Helvetica,sans-Serif" font-size="10.00">getdifficulty</text>
</g>
<!-- Node2 -->
<g id="node2" class="node"><title>Node2</title>
<g id="a_node2"><a xlink:href="rpcserver_8cpp.html#ac01ac6eab5467567ed0da106814e04ec" target="_top" xlink:title="HelpExampleCli">
<polygon fill="white" stroke="black" points="106,-76.5 106,-95.5 194,-95.5 194,-76.5 106,-76.5"/>
<text text-anchor="middle" x="150" y="-83.5" font-family="Helvetica,sans-Serif" font-size="10.00">HelpExampleCli</text>
</a>
</g>
</g>
<!-- Node1&#45;&gt;Node2 -->
<g id="edge1" class="edge"><title>Node1&#45;&gt;Node2</title>
<path fill="none" stroke="midnightblue" d="M63.3932,-57.589C77.6316,-62.3144 95.0008,-68.0789 110.363,-73.1774"/>
<polygon fill="midnightblue" stroke="midnightblue" points="109.523,-76.586 120.116,-76.4141 111.728,-69.9423 109.523,-76.586"/>
</g>
<!-- Node3 -->
<g id="node3" class="node"><title>Node3</title>
<g id="a_node3"><a xlink:href="rpcserver_8cpp.html#a06ea60e24e5a1053a14a11b1009bf9ef" target="_top" xlink:title="HelpExampleRpc">
<polygon fill="white" stroke="black" points="103,-38.5 103,-57.5 197,-57.5 197,-38.5 103,-38.5"/>
<text text-anchor="middle" x="150" y="-45.5" font-family="Helvetica,sans-Serif" font-size="10.00">HelpExampleRpc</text>
</a>
</g>
</g>
<!-- Node1&#45;&gt;Node3 -->
<g id="edge2" class="edge"><title>Node1&#45;&gt;Node3</title>
<path fill="none" stroke="midnightblue" d="M67.0048,-48C74.9883,-48 83.7667,-48 92.5211,-48"/>
<polygon fill="midnightblue" stroke="midnightblue" points="92.7379,-51.5001 102.738,-48 92.7379,-44.5001 92.7379,-51.5001"/>
</g>
<!-- Node4 -->
<g id="node4" class="node"><title>Node4</title>
<g id="a_node4"><a xlink:href="rpcblockchain_8cpp.html#a65a78b16d228932a6142656509a8bce4" target="_top" xlink:title="GetDifficulty">
<polygon fill="white" stroke="black" points="115,-0.5 115,-19.5 185,-19.5 185,-0.5 115,-0.5"/>
<text text-anchor="middle" x="150" y="-7.5" font-family="Helvetica,sans-Serif" font-size="10.00">GetDifficulty</text>
</a>
</g>
</g>
<!-- Node1&#45;&gt;Node4 -->
<g id="edge3" class="edge"><title>Node1&#45;&gt;Node4</title>
<path fill="none" stroke="midnightblue" d="M63.3932,-38.411C77.6316,-33.6856 95.0008,-27.9211 110.363,-22.8226"/>
<polygon fill="midnightblue" stroke="midnightblue" points="111.728,-26.0577 120.116,-19.5859 109.523,-19.414 111.728,-26.0577"/>
</g>
<!-- Node5 -->
<g id="node5" class="node"><title>Node5</title>
<g id="a_node5"><a xlink:href="class_c_chain.html#a7482d06d8e8143f46326cf9c12c06daf" target="_top" xlink:title="Returns the index entry for the tip of this chain, or NULL if none. ">
<polygon fill="white" stroke="black" points="233,-0.5 233,-19.5 302,-19.5 302,-0.5 233,-0.5"/>
<text text-anchor="middle" x="267.5" y="-7.5" font-family="Helvetica,sans-Serif" font-size="10.00">CChain::Tip</text>
</a>
</g>
</g>
<!-- Node4&#45;&gt;Node5 -->
<g id="edge4" class="edge"><title>Node4&#45;&gt;Node5</title>
<path fill="none" stroke="midnightblue" d="M185.029,-10C196.778,-10 210.112,-10 222.541,-10"/>
<polygon fill="midnightblue" stroke="midnightblue" points="222.714,-13.5001 232.714,-10 222.714,-6.5001 222.714,-13.5001"/>
</g>
</g>
</svg>
