<?xml version="1.0" encoding="UTF-8" standalone="no"?>
<!DOCTYPE svg PUBLIC "-//W3C//DTD SVG 1.1//EN"
 "http://www.w3.org/Graphics/SVG/1.1/DTD/svg11.dtd">
<!-- Generated by graphviz version 2.38.0 (20140413.2041)
 -->
<!-- Title: src/rpcclient.h Pages: 1 -->
<svg width="466pt" height="84pt"
 viewBox="0.00 0.00 466.00 84.00" xmlns="http://www.w3.org/2000/svg" xmlns:xlink="http://www.w3.org/1999/xlink">
<g id="graph0" class="graph" transform="scale(1 1) rotate(0) translate(4 80)">
<title>src/rpcclient.h</title>
<polygon fill="white" stroke="none" points="-4,4 -4,-80 462,-80 462,4 -4,4"/>
<!-- Node1 -->
<g id="node1" class="node"><title>Node1</title>
<polygon fill="#bfbfbf" stroke="black" points="194.5,-56.5 194.5,-75.5 272.5,-75.5 272.5,-56.5 194.5,-56.5"/>
<text text-anchor="middle" x="233.5" y="-63.5" font-family="Helvetica,sans-Serif" font-size="10.00">src/rpcclient.h</text>
</g>
<!-- Node2 -->
<g id="node2" class="node"><title>Node2</title>
<g id="a_node2"><a xlink:href="anoncoin-cli_8cpp.html" target="_top" xlink:title="src/anoncoin&#45;cli.cpp">
<polygon fill="white" stroke="black" points="0,-0.5 0,-19.5 105,-19.5 105,-0.5 0,-0.5"/>
<text text-anchor="middle" x="52.5" y="-7.5" font-family="Helvetica,sans-Serif" font-size="10.00">src/anoncoin&#45;cli.cpp</text>
</a>
</g>
</g>
<!-- Node1&#45;&gt;Node2 -->
<g id="edge1" class="edge"><title>Node1&#45;&gt;Node2</title>
<path fill="none" stroke="midnightblue" d="M195.181,-53.5677C161.036,-43.381 111.839,-28.7034 81.0458,-19.5164"/>
<polygon fill="midnightblue" stroke="midnightblue" points="194.237,-56.9385 204.82,-56.4435 196.238,-50.2306 194.237,-56.9385"/>
</g>
<!-- Node3 -->
<g id="node3" class="node"><title>Node3</title>
<g id="a_node3"><a xlink:href="anoncoind_8cpp.html" target="_top" xlink:title="src/anoncoind.cpp">
<polygon fill="white" stroke="black" points="123.5,-0.5 123.5,-19.5 221.5,-19.5 221.5,-0.5 123.5,-0.5"/>
<text text-anchor="middle" x="172.5" y="-7.5" font-family="Helvetica,sans-Serif" font-size="10.00">src/anoncoind.cpp</text>
</a>
</g>
</g>
<!-- Node1&#45;&gt;Node3 -->
<g id="edge2" class="edge"><title>Node1&#45;&gt;Node3</title>
<path fill="none" stroke="midnightblue" d="M216.033,-49.5372C205.156,-39.9087 191.556,-27.8694 182.479,-19.8339"/>
<polygon fill="midnightblue" stroke="midnightblue" points="213.892,-52.3162 223.699,-56.324 218.532,-47.0749 213.892,-52.3162"/>
</g>
<!-- Node4 -->
<g id="node4" class="node"><title>Node4</title>
<g id="a_node4"><a xlink:href="rpcconsole_8cpp.html" target="_top" xlink:title="src/qt/rpcconsole.cpp">
<polygon fill="white" stroke="black" points="240,-0.5 240,-19.5 351,-19.5 351,-0.5 240,-0.5"/>
<text text-anchor="middle" x="295.5" y="-7.5" font-family="Helvetica,sans-Serif" font-size="10.00">src/qt/rpcconsole.cpp</text>
</a>
</g>
</g>
<!-- Node1&#45;&gt;Node4 -->
<g id="edge3" class="edge"><title>Node1&#45;&gt;Node4</title>
<path fill="none" stroke="midnightblue" d="M251.254,-49.5372C262.308,-39.9087 276.131,-27.8694 285.357,-19.8339"/>
<polygon fill="midnightblue" stroke="midnightblue" points="248.703,-47.1168 243.461,-56.324 253.301,-52.3954 248.703,-47.1168"/>
</g>
<!-- Node5 -->
<g id="node5" class="node"><title>Node5</title>
<g id="a_node5"><a xlink:href="rpcclient_8cpp.html" target="_top" xlink:title="src/rpcclient.cpp">
<polygon fill="white" stroke="black" points="369,-0.5 369,-19.5 458,-19.5 458,-0.5 369,-0.5"/>
<text text-anchor="middle" x="413.5" y="-7.5" font-family="Helvetica,sans-Serif" font-size="10.00">src/rpcclient.cpp</text>
</a>
</g>
</g>
<!-- Node1&#45;&gt;Node5 -->
<g id="edge4" class="edge"><title>Node1&#45;&gt;Node5</title>
<path fill="none" stroke="midnightblue" d="M271.608,-53.5677C305.563,-43.381 354.489,-28.7034 385.112,-19.5164"/>
<polygon fill="midnightblue" stroke="midnightblue" points="270.594,-50.2176 262.022,-56.4435 272.606,-56.9224 270.594,-50.2176"/>
</g>
</g>
</svg>
