<?xml version="1.0" encoding="UTF-8" standalone="no"?>
<!DOCTYPE svg PUBLIC "-//W3C//DTD SVG 1.1//EN"
 "http://www.w3.org/Graphics/SVG/1.1/DTD/svg11.dtd">
<!-- Generated by graphviz version 2.38.0 (20140413.2041)
 -->
<!-- Title: importwallet Pages: 1 -->
<svg width="1136pt" height="980pt"
 viewBox="0.00 0.00 1136.00 980.00" xmlns="http://www.w3.org/2000/svg" xmlns:xlink="http://www.w3.org/1999/xlink">
<g id="graph0" class="graph" transform="scale(1 1) rotate(0) translate(4 976)">
<title>importwallet</title>
<polygon fill="white" stroke="none" points="-4,4 -4,-976 1132,-976 1132,4 -4,4"/>
<!-- Node1 -->
<g id="node1" class="node"><title>Node1</title>
<polygon fill="#bfbfbf" stroke="black" points="0,-588.5 0,-607.5 70,-607.5 70,-588.5 0,-588.5"/>
<text text-anchor="middle" x="35" y="-595.5" font-family="Helvetica,sans-Serif" font-size="10.00">importwallet</text>
</g>
<!-- Node2 -->
<g id="node2" class="node"><title>Node2</title>
<g id="a_node2"><a xlink:href="rpcserver_8cpp.html#ac01ac6eab5467567ed0da106814e04ec" target="_top" xlink:title="HelpExampleCli">
<polygon fill="white" stroke="black" points="152,-952.5 152,-971.5 240,-971.5 240,-952.5 152,-952.5"/>
<text text-anchor="middle" x="196" y="-959.5" font-family="Helvetica,sans-Serif" font-size="10.00">HelpExampleCli</text>
</a>
</g>
</g>
<!-- Node1&#45;&gt;Node2 -->
<g id="edge1" class="edge"><title>Node1&#45;&gt;Node2</title>
<path fill="none" stroke="midnightblue" d="M36.5699,-607.702C39.753,-658.51 56.9846,-893.485 106,-943 115.477,-952.574 128.515,-957.878 141.689,-960.695"/>
<polygon fill="midnightblue" stroke="midnightblue" points="141.29,-964.177 151.734,-962.393 142.457,-957.275 141.29,-964.177"/>
</g>
<!-- Node3 -->
<g id="node3" class="node"><title>Node3</title>
<g id="a_node3"><a xlink:href="rpcserver_8cpp.html#a06ea60e24e5a1053a14a11b1009bf9ef" target="_top" xlink:title="HelpExampleRpc">
<polygon fill="white" stroke="black" points="149,-914.5 149,-933.5 243,-933.5 243,-914.5 149,-914.5"/>
<text text-anchor="middle" x="196" y="-921.5" font-family="Helvetica,sans-Serif" font-size="10.00">HelpExampleRpc</text>
</a>
</g>
</g>
<!-- Node1&#45;&gt;Node3 -->
<g id="edge2" class="edge"><title>Node1&#45;&gt;Node3</title>
<path fill="none" stroke="midnightblue" d="M36.8184,-607.559C41.0444,-654.658 61.9209,-861.527 106,-905 114.788,-913.667 126.502,-918.814 138.536,-921.782"/>
<polygon fill="midnightblue" stroke="midnightblue" points="138.173,-925.278 148.663,-923.792 139.536,-918.412 138.173,-925.278"/>
</g>
<!-- Node4 -->
<g id="node4" class="node"><title>Node4</title>
<g id="a_node4"><a xlink:href="rpcdump_8cpp.html#a8f837f6d506b9719cef93188db00fd3c" target="_top" xlink:title="EnsureWalletIsUnlocked">
<polygon fill="white" stroke="black" points="133.5,-876.5 133.5,-895.5 258.5,-895.5 258.5,-876.5 133.5,-876.5"/>
<text text-anchor="middle" x="196" y="-883.5" font-family="Helvetica,sans-Serif" font-size="10.00">EnsureWalletIsUnlocked</text>
</a>
</g>
</g>
<!-- Node1&#45;&gt;Node4 -->
<g id="edge3" class="edge"><title>Node1&#45;&gt;Node4</title>
<path fill="none" stroke="midnightblue" d="M37.1409,-607.515C42.5344,-650.911 66.8593,-829.554 106,-867 111.062,-871.843 117.042,-875.579 123.468,-878.445"/>
<polygon fill="midnightblue" stroke="midnightblue" points="122.555,-881.84 133.148,-882.05 124.998,-875.28 122.555,-881.84"/>
</g>
<!-- Node5 -->
<g id="node5" class="node"><title>Node5</title>
<g id="a_node5"><a xlink:href="rpcprotocol_8cpp.html#a17b1bb111ab339efc951929834766039" target="_top" xlink:title="JSONRPCError">
<polygon fill="white" stroke="black" points="152.5,-838.5 152.5,-857.5 239.5,-857.5 239.5,-838.5 152.5,-838.5"/>
<text text-anchor="middle" x="196" y="-845.5" font-family="Helvetica,sans-Serif" font-size="10.00">JSONRPCError</text>
</a>
</g>
</g>
<!-- Node1&#45;&gt;Node5 -->
<g id="edge4" class="edge"><title>Node1&#45;&gt;Node5</title>
<path fill="none" stroke="midnightblue" d="M35.9102,-607.831C36.1485,-642.769 41.8194,-762.149 106,-824 115.825,-833.469 128.979,-839.292 142.154,-842.849"/>
<polygon fill="midnightblue" stroke="midnightblue" points="141.648,-846.324 152.178,-845.149 143.214,-839.501 141.648,-846.324"/>
</g>
<!-- Node6 -->
<g id="node6" class="node"><title>Node6</title>
<g id="a_node6"><a xlink:href="class_c_chain.html#a7482d06d8e8143f46326cf9c12c06daf" target="_top" xlink:title="Returns the index entry for the tip of this chain, or NULL if none. ">
<polygon fill="white" stroke="black" points="372.5,-942.5 372.5,-961.5 441.5,-961.5 441.5,-942.5 372.5,-942.5"/>
<text text-anchor="middle" x="407" y="-949.5" font-family="Helvetica,sans-Serif" font-size="10.00">CChain::Tip</text>
</a>
</g>
</g>
<!-- Node1&#45;&gt;Node6 -->
<g id="edge5" class="edge"><title>Node1&#45;&gt;Node6</title>
<path fill="none" stroke="midnightblue" d="M36.4708,-607.655C38.5411,-638.937 49.4864,-738.346 106,-788 167.637,-842.156 224.9,-774.238 286,-829 322.424,-861.646 285.551,-900.381 322,-933 332.938,-942.789 347.84,-947.864 362.057,-950.401"/>
<polygon fill="midnightblue" stroke="midnightblue" points="361.832,-953.904 372.222,-951.831 362.807,-946.972 361.832,-953.904"/>
</g>
<!-- Node7 -->
<g id="node7" class="node"><title>Node7</title>
<g id="a_node7"><a xlink:href="ui__interface_8h.html#aad133bb6103b53cebf03fd01e2f11ba1" target="_top" xlink:title="Translation function: Call Translate signal on UI interface, which returns a boost::optional result...">
<polygon fill="white" stroke="black" points="392.5,-904.5 392.5,-923.5 421.5,-923.5 421.5,-904.5 392.5,-904.5"/>
<text text-anchor="middle" x="407" y="-911.5" font-family="Helvetica,sans-Serif" font-size="10.00">_</text>
</a>
</g>
</g>
<!-- Node1&#45;&gt;Node7 -->
<g id="edge6" class="edge"><title>Node1&#45;&gt;Node7</title>
<path fill="none" stroke="midnightblue" d="M37.4015,-607.78C41.8756,-635.256 58.4274,-713.693 106,-753 169.407,-805.391 224.613,-741.256 286,-796 320.942,-827.161 286.87,-864.05 322,-895 338.506,-909.542 363.784,-913.645 382.299,-914.504"/>
<polygon fill="midnightblue" stroke="midnightblue" points="382.239,-918.003 392.302,-914.69 382.369,-911.005 382.239,-918.003"/>
</g>
<!-- Node8 -->
<g id="node8" class="node"><title>Node8</title>
<g id="a_node8"><a xlink:href="class_c_anoncoin_secret.html#ab4f90b6c75c03136d82261688007a634" target="_top" xlink:title="CAnoncoinSecret::SetString">
<polygon fill="white" stroke="black" points="125.5,-626.5 125.5,-645.5 266.5,-645.5 266.5,-626.5 125.5,-626.5"/>
<text text-anchor="middle" x="196" y="-633.5" font-family="Helvetica,sans-Serif" font-size="10.00">CAnoncoinSecret::SetString</text>
</a>
</g>
</g>
<!-- Node1&#45;&gt;Node8 -->
<g id="edge7" class="edge"><title>Node1&#45;&gt;Node8</title>
<path fill="none" stroke="midnightblue" d="M69.7279,-607.555C81.2037,-610.7 94.1287,-614.124 106,-617 116.24,-619.481 127.185,-621.958 137.772,-624.266"/>
<polygon fill="midnightblue" stroke="midnightblue" points="137.265,-627.737 147.778,-626.421 138.739,-620.894 137.265,-627.737"/>
</g>
<!-- Node15 -->
<g id="node15" class="node"><title>Node15</title>
<g id="a_node15"><a xlink:href="class_c_anoncoin_secret.html#a16c3276335a1d71493bfd83742bbda50" target="_top" xlink:title="CAnoncoinSecret::GetKey">
<polygon fill="white" stroke="black" points="129.5,-588.5 129.5,-607.5 262.5,-607.5 262.5,-588.5 129.5,-588.5"/>
<text text-anchor="middle" x="196" y="-595.5" font-family="Helvetica,sans-Serif" font-size="10.00">CAnoncoinSecret::GetKey</text>
</a>
</g>
</g>
<!-- Node1&#45;&gt;Node15 -->
<g id="edge14" class="edge"><title>Node1&#45;&gt;Node15</title>
<path fill="none" stroke="midnightblue" d="M70.1095,-598C84.5261,-598 101.938,-598 119.123,-598"/>
<polygon fill="midnightblue" stroke="midnightblue" points="119.191,-601.5 129.191,-598 119.191,-594.5 119.191,-601.5"/>
</g>
<!-- Node18 -->
<g id="node18" class="node"><title>Node18</title>
<g id="a_node18"><a xlink:href="class_c_key.html#ae4b61da6ec62f676fe6362ac5fc26aca" target="_top" xlink:title="CKey::GetPubKey">
<polygon fill="white" stroke="black" points="147,-379.5 147,-398.5 245,-398.5 245,-379.5 147,-379.5"/>
<text text-anchor="middle" x="196" y="-386.5" font-family="Helvetica,sans-Serif" font-size="10.00">CKey::GetPubKey</text>
</a>
</g>
</g>
<!-- Node1&#45;&gt;Node18 -->
<g id="edge18" class="edge"><title>Node1&#45;&gt;Node18</title>
<path fill="none" stroke="midnightblue" d="M36.4436,-588.314C38.4305,-556.936 49.1493,-457.268 106,-408 114.681,-400.477 125.609,-395.695 136.808,-392.703"/>
<polygon fill="midnightblue" stroke="midnightblue" points="137.668,-396.098 146.67,-390.511 136.149,-389.264 137.668,-396.098"/>
</g>
<!-- Node19 -->
<g id="node19" class="node"><title>Node19</title>
<g id="a_node19"><a xlink:href="class_c_pub_key.html#a9c1908fef34fd9e1c4b5e0ffd5d3834e" target="_top" xlink:title="CPubKey::GetID">
<polygon fill="white" stroke="black" points="760.5,-474.5 760.5,-493.5 850.5,-493.5 850.5,-474.5 760.5,-474.5"/>
<text text-anchor="middle" x="805.5" y="-481.5" font-family="Helvetica,sans-Serif" font-size="10.00">CPubKey::GetID</text>
</a>
</g>
</g>
<!-- Node1&#45;&gt;Node19 -->
<g id="edge19" class="edge"><title>Node1&#45;&gt;Node19</title>
<path fill="none" stroke="midnightblue" d="M66.7584,-588.459C78.8825,-585.013 92.9953,-581.388 106,-579 366.067,-531.249 439.605,-576.097 698,-520 723.242,-514.52 750.848,-505.085 771.628,-497.248"/>
<polygon fill="midnightblue" stroke="midnightblue" points="773.162,-500.409 781.24,-493.554 770.65,-493.875 773.162,-500.409"/>
</g>
<!-- Node23 -->
<g id="node23" class="node"><title>Node23</title>
<g id="a_node23"><a xlink:href="class_c_crypto_key_store.html#a0cefe933dd3a6ac7744432493696bffc" target="_top" xlink:title="CCryptoKeyStore::HaveKey">
<polygon fill="white" stroke="black" points="126,-512.5 126,-531.5 266,-531.5 266,-512.5 126,-512.5"/>
<text text-anchor="middle" x="196" y="-519.5" font-family="Helvetica,sans-Serif" font-size="10.00">CCryptoKeyStore::HaveKey</text>
</a>
</g>
</g>
<!-- Node1&#45;&gt;Node23 -->
<g id="edge23" class="edge"><title>Node1&#45;&gt;Node23</title>
<path fill="none" stroke="midnightblue" d="M46.5501,-588.137C59.57,-576.47 82.8387,-557.221 106,-546 115.703,-541.299 126.464,-537.41 137.053,-534.231"/>
<polygon fill="midnightblue" stroke="midnightblue" points="138.022,-537.595 146.694,-531.509 136.119,-530.858 138.022,-537.595"/>
</g>
<!-- Node26 -->
<g id="node26" class="node"><title>Node26</title>
<g id="a_node26"><a xlink:href="rpcdump_8cpp.html#aac0419ba6427cf5f0873a6a0c815db83" target="_top" xlink:title="DecodeDumpString">
<polygon fill="white" stroke="black" points="144,-341.5 144,-360.5 248,-360.5 248,-341.5 144,-341.5"/>
<text text-anchor="middle" x="196" y="-348.5" font-family="Helvetica,sans-Serif" font-size="10.00">DecodeDumpString</text>
</a>
</g>
</g>
<!-- Node1&#45;&gt;Node26 -->
<g id="edge26" class="edge"><title>Node1&#45;&gt;Node26</title>
<path fill="none" stroke="midnightblue" d="M35.7695,-588.451C35.4787,-553.438 39.4393,-430.974 106,-370 113.769,-362.883 123.53,-358.184 133.718,-355.127"/>
<polygon fill="midnightblue" stroke="midnightblue" points="134.708,-358.488 143.565,-352.674 133.016,-351.696 134.708,-358.488"/>
</g>
<!-- Node27 -->
<g id="node27" class="node"><title>Node27</title>
<g id="a_node27"><a xlink:href="class_c_wallet.html#a3240da36cd717146296969227a3e0bd5" target="_top" xlink:title="CWallet::AddKeyPubKey">
<polygon fill="white" stroke="black" points="132.5,-455.5 132.5,-474.5 259.5,-474.5 259.5,-455.5 132.5,-455.5"/>
<text text-anchor="middle" x="196" y="-462.5" font-family="Helvetica,sans-Serif" font-size="10.00">CWallet::AddKeyPubKey</text>
</a>
</g>
</g>
<!-- Node1&#45;&gt;Node27 -->
<g id="edge27" class="edge"><title>Node1&#45;&gt;Node27</title>
<path fill="none" stroke="midnightblue" d="M40.8455,-588.323C50.7067,-569.506 74.8388,-527.67 106,-503 119.527,-492.291 136.522,-484.059 152.026,-478.04"/>
<polygon fill="midnightblue" stroke="midnightblue" points="153.266,-481.314 161.443,-474.576 150.849,-474.744 153.266,-481.314"/>
</g>
<!-- Node39 -->
<g id="node39" class="node"><title>Node39</title>
<g id="a_node39"><a xlink:href="class_c_wallet.html#a53e5528d7005608594e73f500bc5bb8f" target="_top" xlink:title="CWallet::SetAddressBook">
<polygon fill="white" stroke="black" points="130,-417.5 130,-436.5 262,-436.5 262,-417.5 130,-417.5"/>
<text text-anchor="middle" x="196" y="-424.5" font-family="Helvetica,sans-Serif" font-size="10.00">CWallet::SetAddressBook</text>
</a>
</g>
</g>
<!-- Node1&#45;&gt;Node39 -->
<g id="edge47" class="edge"><title>Node1&#45;&gt;Node39</title>
<path fill="none" stroke="midnightblue" d="M37.4176,-588.347C41.9341,-561.24 58.5867,-483.933 106,-446 110.318,-442.545 115.119,-439.68 120.19,-437.308"/>
<polygon fill="midnightblue" stroke="midnightblue" points="121.584,-440.52 129.563,-433.549 118.979,-434.023 121.584,-440.52"/>
</g>
<!-- Node43 -->
<g id="node43" class="node"><title>Node43</title>
<g id="a_node43"><a xlink:href="class_c_chain.html#a0c4ffb8501acfb8a7e1c0f5e6322ada3" target="_top" xlink:title="Return the maximal height in the chain. ">
<polygon fill="white" stroke="black" points="154,-303.5 154,-322.5 238,-322.5 238,-303.5 154,-303.5"/>
<text text-anchor="middle" x="196" y="-310.5" font-family="Helvetica,sans-Serif" font-size="10.00">CChain::Height</text>
</a>
</g>
</g>
<!-- Node1&#45;&gt;Node43 -->
<g id="edge53" class="edge"><title>Node1&#45;&gt;Node43</title>
<path fill="none" stroke="midnightblue" d="M37.1939,-588.301C42.7321,-544.886 67.3035,-368.919 106,-332 116.211,-322.258 130.131,-317.002 143.929,-314.286"/>
<polygon fill="midnightblue" stroke="midnightblue" points="144.559,-317.73 153.899,-312.73 143.479,-310.814 144.559,-317.73"/>
</g>
<!-- Node44 -->
<g id="node44" class="node"><title>Node44</title>
<g id="a_node44"><a xlink:href="class_c_wallet.html#a979a17e80e4897ed1f4ae9a4be7c493c" target="_top" xlink:title="CWallet::ScanForWalletTransactions">
<polygon fill="white" stroke="black" points="106,-724.5 106,-743.5 286,-743.5 286,-724.5 106,-724.5"/>
<text text-anchor="middle" x="196" y="-731.5" font-family="Helvetica,sans-Serif" font-size="10.00">CWallet::ScanForWalletTransactions</text>
</a>
</g>
</g>
<!-- Node1&#45;&gt;Node44 -->
<g id="edge54" class="edge"><title>Node1&#45;&gt;Node44</title>
<path fill="none" stroke="midnightblue" d="M47.1806,-607.563C74.0284,-630.527 142.389,-688.999 175.897,-717.66"/>
<polygon fill="midnightblue" stroke="midnightblue" points="173.745,-720.425 183.619,-724.265 178.295,-715.105 173.745,-720.425"/>
</g>
<!-- Node50 -->
<g id="node50" class="node"><title>Node50</title>
<g id="a_node50"><a xlink:href="class_c_wallet.html#a26fd9a9f48230daf346500d2afb6115e" target="_top" xlink:title="CWallet::MarkDirty">
<polygon fill="white" stroke="black" points="146,-265.5 146,-284.5 246,-284.5 246,-265.5 146,-265.5"/>
<text text-anchor="middle" x="196" y="-272.5" font-family="Helvetica,sans-Serif" font-size="10.00">CWallet::MarkDirty</text>
</a>
</g>
</g>
<!-- Node1&#45;&gt;Node50 -->
<g id="edge62" class="edge"><title>Node1&#45;&gt;Node50</title>
<path fill="none" stroke="midnightblue" d="M36.8615,-588.223C41.2217,-540.986 62.3808,-336.927 106,-294 114.187,-285.943 124.902,-280.93 136.049,-277.881"/>
<polygon fill="midnightblue" stroke="midnightblue" points="136.906,-281.276 145.903,-275.681 135.381,-274.444 136.906,-281.276"/>
</g>
<!-- Node9 -->
<g id="node9" class="node"><title>Node9</title>
<g id="a_node9"><a xlink:href="class_c_base58_data.html#a250fa3bc97d03c7d87de5485c8b49b57" target="_top" xlink:title="CBase58Data::SetString">
<polygon fill="white" stroke="black" points="344.5,-626.5 344.5,-645.5 469.5,-645.5 469.5,-626.5 344.5,-626.5"/>
<text text-anchor="middle" x="407" y="-633.5" font-family="Helvetica,sans-Serif" font-size="10.00">CBase58Data::SetString</text>
</a>
</g>
</g>
<!-- Node8&#45;&gt;Node9 -->
<g id="edge8" class="edge"><title>Node8&#45;&gt;Node9</title>
<path fill="none" stroke="midnightblue" d="M266.594,-636C288.326,-636 312.334,-636 334.214,-636"/>
<polygon fill="midnightblue" stroke="midnightblue" points="334.432,-639.5 344.432,-636 334.432,-632.5 334.432,-639.5"/>
</g>
<!-- Node12 -->
<g id="node12" class="node"><title>Node12</title>
<g id="a_node12"><a xlink:href="class_c_anoncoin_secret.html#a35cee7df5b809ab75efd0249b4169603" target="_top" xlink:title="CAnoncoinSecret::IsValid">
<polygon fill="white" stroke="black" points="342,-664.5 342,-683.5 472,-683.5 472,-664.5 342,-664.5"/>
<text text-anchor="middle" x="407" y="-671.5" font-family="Helvetica,sans-Serif" font-size="10.00">CAnoncoinSecret::IsValid</text>
</a>
</g>
</g>
<!-- Node8&#45;&gt;Node12 -->
<g id="edge11" class="edge"><title>Node8&#45;&gt;Node12</title>
<path fill="none" stroke="midnightblue" d="M249.47,-645.54C278.041,-650.735 313.58,-657.196 343.569,-662.649"/>
<polygon fill="midnightblue" stroke="midnightblue" points="343.044,-666.111 353.509,-664.456 344.296,-659.224 343.044,-666.111"/>
</g>
<!-- Node10 -->
<g id="node10" class="node"><title>Node10</title>
<g id="a_node10"><a xlink:href="base58_8cpp.html#ae2dc7ad63e243509e0871ec4a5890678" target="_top" xlink:title="Decode a base58&#45;encoded string (psz) that includes a checksum into a byte vector (vchRet), return true if decoding is successful. ">
<polygon fill="white" stroke="red" points="556.5,-740.5 556.5,-759.5 669.5,-759.5 669.5,-740.5 556.5,-740.5"/>
<text text-anchor="middle" x="613" y="-747.5" font-family="Helvetica,sans-Serif" font-size="10.00">DecodeBase58Check</text>
</a>
</g>
</g>
<!-- Node9&#45;&gt;Node10 -->
<g id="edge9" class="edge"><title>Node9&#45;&gt;Node10</title>
<path fill="none" stroke="midnightblue" d="M469.607,-643.246C477.661,-646.049 485.396,-649.853 492,-655 519.907,-676.748 500.711,-703.482 528,-726 533.63,-730.646 540.111,-734.393 546.926,-737.415"/>
<polygon fill="midnightblue" stroke="midnightblue" points="545.787,-740.728 556.375,-741.103 548.332,-734.207 545.787,-740.728"/>
</g>
<!-- Node11 -->
<g id="node11" class="node"><title>Node11</title>
<g id="a_node11"><a xlink:href="glibc__compat_8cpp.html#a0f46826ab0466591e136db24394923cf" target="_top" xlink:title="memcpy">
<polygon fill="white" stroke="red" points="778.5,-626.5 778.5,-645.5 832.5,-645.5 832.5,-626.5 778.5,-626.5"/>
<text text-anchor="middle" x="805.5" y="-633.5" font-family="Helvetica,sans-Serif" font-size="10.00">memcpy</text>
</a>
</g>
</g>
<!-- Node9&#45;&gt;Node11 -->
<g id="edge10" class="edge"><title>Node9&#45;&gt;Node11</title>
<path fill="none" stroke="midnightblue" d="M469.698,-645.5C477.477,-647.969 485.113,-651.08 492,-655 512.219,-666.508 506.629,-683.808 528,-693 597.407,-722.854 624.714,-711.378 698,-693 729.895,-685.002 762.672,-665.418 783.285,-651.441"/>
<polygon fill="midnightblue" stroke="midnightblue" points="785.385,-654.244 791.595,-645.66 781.387,-648.498 785.385,-654.244"/>
</g>
<!-- Node13 -->
<g id="node13" class="node"><title>Node13</title>
<g id="a_node13"><a xlink:href="chainparams_8cpp.html#ace5c5b706d71a324a417dd2db394fd4a" target="_top" xlink:title="Return the currently selected parameters. ">
<polygon fill="white" stroke="black" points="587.5,-778.5 587.5,-797.5 638.5,-797.5 638.5,-778.5 587.5,-778.5"/>
<text text-anchor="middle" x="613" y="-785.5" font-family="Helvetica,sans-Serif" font-size="10.00">Params</text>
</a>
</g>
</g>
<!-- Node12&#45;&gt;Node13 -->
<g id="edge12" class="edge"><title>Node12&#45;&gt;Node13</title>
<path fill="none" stroke="midnightblue" d="M472.305,-682.029C479.406,-684.753 486.166,-688.326 492,-693 521.169,-716.369 498.831,-745.631 528,-769 541.784,-780.043 560.732,-784.94 577.144,-787.012"/>
<polygon fill="midnightblue" stroke="midnightblue" points="577.195,-790.533 587.483,-788.002 577.862,-783.565 577.195,-790.533"/>
</g>
<!-- Node14 -->
<g id="node14" class="node"><title>Node14</title>
<g id="a_node14"><a xlink:href="class_c_chain_params.html#a6088d3a4f45d89c90e7e6117c3c5720d" target="_top" xlink:title="CChainParams::Base58Prefix">
<polygon fill="white" stroke="black" points="538.5,-816.5 538.5,-835.5 687.5,-835.5 687.5,-816.5 538.5,-816.5"/>
<text text-anchor="middle" x="613" y="-823.5" font-family="Helvetica,sans-Serif" font-size="10.00">CChainParams::Base58Prefix</text>
</a>
</g>
</g>
<!-- Node12&#45;&gt;Node14 -->
<g id="edge13" class="edge"><title>Node12&#45;&gt;Node14</title>
<path fill="none" stroke="midnightblue" d="M472.11,-680.939C479.414,-683.827 486.278,-687.736 492,-693 531.105,-728.971 488.895,-771.029 528,-807 529.699,-808.563 531.498,-810.006 533.38,-811.339"/>
<polygon fill="midnightblue" stroke="midnightblue" points="531.712,-814.418 542.1,-816.5 535.277,-808.394 531.712,-814.418"/>
</g>
<!-- Node16 -->
<g id="node16" class="node"><title>Node16</title>
<g id="a_node16"><a xlink:href="class_c_key.html#aaa13d5f08456bba094210c5eeabf64c8" target="_top" xlink:title="CKey::Set">
<polygon fill="white" stroke="black" points="376,-588.5 376,-607.5 438,-607.5 438,-588.5 376,-588.5"/>
<text text-anchor="middle" x="407" y="-595.5" font-family="Helvetica,sans-Serif" font-size="10.00">CKey::Set</text>
</a>
</g>
</g>
<!-- Node15&#45;&gt;Node16 -->
<g id="edge15" class="edge"><title>Node15&#45;&gt;Node16</title>
<path fill="none" stroke="midnightblue" d="M262.555,-598C296.354,-598 336.494,-598 365.706,-598"/>
<polygon fill="midnightblue" stroke="midnightblue" points="365.942,-601.5 375.942,-598 365.942,-594.5 365.942,-601.5"/>
</g>
<!-- Node16&#45;&gt;Node11 -->
<g id="edge17" class="edge"><title>Node16&#45;&gt;Node11</title>
<path fill="none" stroke="midnightblue" d="M438.478,-603.589C462.673,-607.841 497.4,-613.533 528,-617 613.656,-626.705 714.843,-632.132 767.871,-634.515"/>
<polygon fill="midnightblue" stroke="midnightblue" points="767.98,-638.023 778.124,-634.965 768.287,-631.03 767.98,-638.023"/>
</g>
<!-- Node17 -->
<g id="node17" class="node"><title>Node17</title>
<g id="a_node17"><a xlink:href="class_c_key.html#acec869bc75fa8f4d619ab025d367a97c" target="_top" xlink:title="CKey::Check">
<polygon fill="white" stroke="black" points="575.5,-664.5 575.5,-683.5 650.5,-683.5 650.5,-664.5 575.5,-664.5"/>
<text text-anchor="middle" x="613" y="-671.5" font-family="Helvetica,sans-Serif" font-size="10.00">CKey::Check</text>
</a>
</g>
</g>
<!-- Node16&#45;&gt;Node17 -->
<g id="edge16" class="edge"><title>Node16&#45;&gt;Node17</title>
<path fill="none" stroke="midnightblue" d="M438.072,-600.964C454.699,-603.525 475.309,-608.264 492,-617 511.23,-627.065 509.058,-639.402 528,-650 539.488,-656.428 552.843,-661.256 565.477,-664.83"/>
<polygon fill="midnightblue" stroke="midnightblue" points="564.845,-668.283 575.406,-667.434 566.621,-661.512 564.845,-668.283"/>
</g>
<!-- Node20 -->
<g id="node20" class="node"><title>Node20</title>
<g id="a_node20"><a xlink:href="hash_8h.html#a4490f70ddae16e9e48460a0416a48a6b" target="_top" xlink:title="Hash160">
<polygon fill="white" stroke="black" points="925.5,-474.5 925.5,-493.5 982.5,-493.5 982.5,-474.5 925.5,-474.5"/>
<text text-anchor="middle" x="954" y="-481.5" font-family="Helvetica,sans-Serif" font-size="10.00">Hash160</text>
</a>
</g>
</g>
<!-- Node19&#45;&gt;Node20 -->
<g id="edge20" class="edge"><title>Node19&#45;&gt;Node20</title>
<path fill="none" stroke="midnightblue" d="M850.852,-484C871.412,-484 895.588,-484 915.258,-484"/>
<polygon fill="midnightblue" stroke="midnightblue" points="915.38,-487.5 925.38,-484 915.38,-480.5 915.38,-487.5"/>
</g>
<!-- Node21 -->
<g id="node21" class="node"><title>Node21</title>
<g id="a_node21"><a xlink:href="class_c_pub_key.html#a9d7129b65b6dee792b4f3923cd64ed59" target="_top" xlink:title="CPubKey::size">
<polygon fill="white" stroke="black" points="913,-398.5 913,-417.5 995,-417.5 995,-398.5 913,-398.5"/>
<text text-anchor="middle" x="954" y="-405.5" font-family="Helvetica,sans-Serif" font-size="10.00">CPubKey::size</text>
</a>
</g>
</g>
<!-- Node19&#45;&gt;Node21 -->
<g id="edge21" class="edge"><title>Node19&#45;&gt;Node21</title>
<path fill="none" stroke="midnightblue" d="M825.054,-474.375C850.482,-461.183 896.341,-437.393 925.693,-422.166"/>
<polygon fill="midnightblue" stroke="midnightblue" points="927.331,-425.259 934.596,-417.547 924.108,-419.045 927.331,-425.259"/>
</g>
<!-- Node22 -->
<g id="node22" class="node"><title>Node22</title>
<g id="a_node22"><a xlink:href="class_c_pub_key.html#a7dc71b3f037c84268dc22de97d7b65fb" target="_top" xlink:title="CPubKey::GetLen">
<polygon fill="white" stroke="black" points="1031,-398.5 1031,-417.5 1128,-417.5 1128,-398.5 1031,-398.5"/>
<text text-anchor="middle" x="1079.5" y="-405.5" font-family="Helvetica,sans-Serif" font-size="10.00">CPubKey::GetLen</text>
</a>
</g>
</g>
<!-- Node21&#45;&gt;Node22 -->
<g id="edge22" class="edge"><title>Node21&#45;&gt;Node22</title>
<path fill="none" stroke="midnightblue" d="M995.097,-408C1003.3,-408 1012.08,-408 1020.76,-408"/>
<polygon fill="midnightblue" stroke="midnightblue" points="1020.86,-411.5 1030.86,-408 1020.86,-404.5 1020.86,-411.5"/>
</g>
<!-- Node24 -->
<g id="node24" class="node"><title>Node24</title>
<g id="a_node24"><a xlink:href="class_c_crypto_key_store.html#a1cb434078a9ea686c0acf168d2c81252" target="_top" xlink:title="CCryptoKeyStore::IsCrypted">
<polygon fill="white" stroke="black" points="734,-246.5 734,-265.5 877,-265.5 877,-246.5 734,-246.5"/>
<text text-anchor="middle" x="805.5" y="-253.5" font-family="Helvetica,sans-Serif" font-size="10.00">CCryptoKeyStore::IsCrypted</text>
</a>
</g>
</g>
<!-- Node23&#45;&gt;Node24 -->
<g id="edge24" class="edge"><title>Node23&#45;&gt;Node24</title>
<path fill="none" stroke="midnightblue" d="M236.982,-512.499C253.975,-506.708 272.856,-497.699 286,-484 317.261,-451.42 294.722,-424.981 322,-389 390.738,-298.329 419.918,-272.559 528,-237 608.463,-210.528 709.016,-229.449 763.978,-243.85"/>
<polygon fill="midnightblue" stroke="midnightblue" points="763.128,-247.246 773.695,-246.475 764.954,-240.488 763.128,-247.246"/>
</g>
<!-- Node25 -->
<g id="node25" class="node"><title>Node25</title>
<g id="a_node25"><a xlink:href="class_c_basic_key_store.html#a29a60832d549913b1fa8be77b95205a5" target="_top" xlink:title="CBasicKeyStore::HaveKey">
<polygon fill="white" stroke="black" points="339.5,-512.5 339.5,-531.5 474.5,-531.5 474.5,-512.5 339.5,-512.5"/>
<text text-anchor="middle" x="407" y="-519.5" font-family="Helvetica,sans-Serif" font-size="10.00">CBasicKeyStore::HaveKey</text>
</a>
</g>
</g>
<!-- Node23&#45;&gt;Node25 -->
<g id="edge25" class="edge"><title>Node23&#45;&gt;Node25</title>
<path fill="none" stroke="midnightblue" d="M266.014,-522C286.245,-522 308.491,-522 329.177,-522"/>
<polygon fill="midnightblue" stroke="midnightblue" points="329.191,-525.5 339.191,-522 329.191,-518.5 329.191,-525.5"/>
</g>
<!-- Node27&#45;&gt;Node19 -->
<g id="edge43" class="edge"><title>Node27&#45;&gt;Node19</title>
<path fill="none" stroke="midnightblue" d="M259.655,-474.356C326.083,-483.767 434.159,-497.631 528,-503 603.432,-507.316 622.739,-509.661 698,-503 715.352,-501.464 734.11,-498.547 750.978,-495.452"/>
<polygon fill="midnightblue" stroke="midnightblue" points="752.034,-498.814 761.207,-493.512 750.73,-491.936 752.034,-498.814"/>
</g>
<!-- Node28 -->
<g id="node28" class="node"><title>Node28</title>
<g id="a_node28"><a xlink:href="class_c_crypto_key_store.html#a340109b8673267676a34664a76ed3274" target="_top" xlink:title="CCryptoKeyStore::AddKeyPubKey">
<polygon fill="white" stroke="black" points="322,-398.5 322,-417.5 492,-417.5 492,-398.5 322,-398.5"/>
<text text-anchor="middle" x="407" y="-405.5" font-family="Helvetica,sans-Serif" font-size="10.00">CCryptoKeyStore::AddKeyPubKey</text>
</a>
</g>
</g>
<!-- Node27&#45;&gt;Node28 -->
<g id="edge28" class="edge"><title>Node27&#45;&gt;Node28</title>
<path fill="none" stroke="midnightblue" d="M253.211,-455.457C264.238,-452.901 275.603,-449.771 286,-446 303.007,-439.831 305.03,-433.272 322,-427 329.021,-424.405 336.508,-422.098 344.011,-420.066"/>
<polygon fill="midnightblue" stroke="midnightblue" points="345.024,-423.42 353.845,-417.553 343.29,-416.638 345.024,-423.42"/>
</g>
<!-- Node36 -->
<g id="node36" class="node"><title>Node36</title>
<g id="a_node36"><a xlink:href="class_c_script.html#ad1b5a9077241aa06116040c4f1b7c31e" target="_top" xlink:title="CScript::SetDestination">
<polygon fill="white" stroke="black" points="553,-104.5 553,-123.5 673,-123.5 673,-104.5 553,-104.5"/>
<text text-anchor="middle" x="613" y="-111.5" font-family="Helvetica,sans-Serif" font-size="10.00">CScript::SetDestination</text>
</a>
</g>
</g>
<!-- Node27&#45;&gt;Node36 -->
<g id="edge42" class="edge"><title>Node27&#45;&gt;Node36</title>
<path fill="none" stroke="midnightblue" d="M259.631,-461.814C269.6,-458.65 278.937,-453.671 286,-446 370.988,-353.699 235.505,-256.891 322,-166 337.09,-150.143 461.663,-132.242 542.557,-122.121"/>
<polygon fill="midnightblue" stroke="midnightblue" points="543.191,-125.569 552.685,-120.865 542.33,-118.622 543.191,-125.569"/>
</g>
<!-- Node37 -->
<g id="node37" class="node"><title>Node37</title>
<g id="a_node37"><a xlink:href="class_c_wallet_d_b.html#a7ebef5e0c7f604aa2159ba96d527e3a2" target="_top" xlink:title="CWalletDB::WriteKey">
<polygon fill="white" stroke="red" points="749.5,-189.5 749.5,-208.5 861.5,-208.5 861.5,-189.5 749.5,-189.5"/>
<text text-anchor="middle" x="805.5" y="-196.5" font-family="Helvetica,sans-Serif" font-size="10.00">CWalletDB::WriteKey</text>
</a>
</g>
</g>
<!-- Node27&#45;&gt;Node37 -->
<g id="edge44" class="edge"><title>Node27&#45;&gt;Node37</title>
<path fill="none" stroke="midnightblue" d="M259.765,-461.368C269.598,-458.229 278.853,-453.375 286,-446 348.551,-381.457 256.918,-308.99 322,-247 441.976,-132.722 662.69,-165.797 758.312,-187.192"/>
<polygon fill="midnightblue" stroke="midnightblue" points="757.726,-190.648 768.256,-189.476 759.293,-183.826 757.726,-190.648"/>
</g>
<!-- Node38 -->
<g id="node38" class="node"><title>Node38</title>
<g id="a_node38"><a xlink:href="class_c_key.html#ab38813e7091f658612dfb14f17c9e317" target="_top" xlink:title="CKey::GetPrivKey">
<polygon fill="white" stroke="black" points="358.5,-436.5 358.5,-455.5 455.5,-455.5 455.5,-436.5 358.5,-436.5"/>
<text text-anchor="middle" x="407" y="-443.5" font-family="Helvetica,sans-Serif" font-size="10.00">CKey::GetPrivKey</text>
</a>
</g>
</g>
<!-- Node27&#45;&gt;Node38 -->
<g id="edge46" class="edge"><title>Node27&#45;&gt;Node38</title>
<path fill="none" stroke="midnightblue" d="M259.707,-459.299C287.747,-456.75 320.595,-453.764 348.052,-451.268"/>
<polygon fill="midnightblue" stroke="midnightblue" points="348.649,-454.728 358.291,-450.337 348.015,-447.757 348.649,-454.728"/>
</g>
<!-- Node28&#45;&gt;Node24 -->
<g id="edge29" class="edge"><title>Node28&#45;&gt;Node24</title>
<path fill="none" stroke="midnightblue" d="M492.084,-403.287C552.106,-397.17 633.327,-383.141 698,-351 736.392,-331.92 771.539,-295.232 790.289,-273.455"/>
<polygon fill="midnightblue" stroke="midnightblue" points="793.098,-275.553 796.858,-265.648 787.742,-271.046 793.098,-275.553"/>
</g>
<!-- Node29 -->
<g id="node29" class="node"><title>Node29</title>
<g id="a_node29"><a xlink:href="class_c_basic_key_store.html#acc2e33f319de88e88f86b0dc79bdcb65" target="_top" xlink:title="CBasicKeyStore::AddKeyPubKey">
<polygon fill="white" stroke="black" points="530.5,-474.5 530.5,-493.5 695.5,-493.5 695.5,-474.5 530.5,-474.5"/>
<text text-anchor="middle" x="613" y="-481.5" font-family="Helvetica,sans-Serif" font-size="10.00">CBasicKeyStore::AddKeyPubKey</text>
</a>
</g>
</g>
<!-- Node28&#45;&gt;Node29 -->
<g id="edge30" class="edge"><title>Node28&#45;&gt;Node29</title>
<path fill="none" stroke="midnightblue" d="M470.138,-417.64C477.765,-420.087 485.243,-423.154 492,-427 512.219,-438.508 507.781,-453.492 528,-465 531.906,-467.223 536.054,-469.187 540.332,-470.92"/>
<polygon fill="midnightblue" stroke="midnightblue" points="539.268,-474.257 549.862,-474.36 541.644,-467.673 539.268,-474.257"/>
</g>
<!-- Node30 -->
<g id="node30" class="node"><title>Node30</title>
<g id="a_node30"><a xlink:href="class_c_crypto_key_store.html#a1c3ebef555fd13676d67509b95820fcf" target="_top" xlink:title="CCryptoKeyStore::IsLocked">
<polygon fill="white" stroke="black" points="543,-246.5 543,-265.5 683,-265.5 683,-246.5 543,-246.5"/>
<text text-anchor="middle" x="613" y="-253.5" font-family="Helvetica,sans-Serif" font-size="10.00">CCryptoKeyStore::IsLocked</text>
</a>
</g>
</g>
<!-- Node28&#45;&gt;Node30 -->
<g id="edge32" class="edge"><title>Node28&#45;&gt;Node30</title>
<path fill="none" stroke="midnightblue" d="M413.617,-398.465C428.7,-373.763 472.711,-307.365 528,-275 531.702,-272.833 535.629,-270.913 539.684,-269.212"/>
<polygon fill="midnightblue" stroke="midnightblue" points="541.178,-272.391 549.333,-265.628 538.74,-265.829 541.178,-272.391"/>
</g>
<!-- Node31 -->
<g id="node31" class="node"><title>Node31</title>
<g id="a_node31"><a xlink:href="class_c_key.html#aabd29e0d5faf30032cc8519a1ce62a5a" target="_top" xlink:title="CKey::begin">
<polygon fill="white" stroke="black" points="577.5,-322.5 577.5,-341.5 648.5,-341.5 648.5,-322.5 577.5,-322.5"/>
<text text-anchor="middle" x="613" y="-329.5" font-family="Helvetica,sans-Serif" font-size="10.00">CKey::begin</text>
</a>
</g>
</g>
<!-- Node28&#45;&gt;Node31 -->
<g id="edge34" class="edge"><title>Node28&#45;&gt;Node31</title>
<path fill="none" stroke="midnightblue" d="M428.059,-398.346C451.629,-387.229 492.085,-368.85 528,-356 540.62,-351.485 554.538,-347.226 567.353,-343.586"/>
<polygon fill="midnightblue" stroke="midnightblue" points="568.651,-346.858 577.348,-340.806 566.776,-340.114 568.651,-346.858"/>
</g>
<!-- Node32 -->
<g id="node32" class="node"><title>Node32</title>
<g id="a_node32"><a xlink:href="class_c_key.html#a651d1e10b4085da5e4c4a764f3a384df" target="_top" xlink:title="CKey::end">
<polygon fill="white" stroke="red" points="581.5,-284.5 581.5,-303.5 644.5,-303.5 644.5,-284.5 581.5,-284.5"/>
<text text-anchor="middle" x="613" y="-291.5" font-family="Helvetica,sans-Serif" font-size="10.00">CKey::end</text>
</a>
</g>
</g>
<!-- Node28&#45;&gt;Node32 -->
<g id="edge35" class="edge"><title>Node28&#45;&gt;Node32</title>
<path fill="none" stroke="midnightblue" d="M416.943,-398.493C435.634,-379.219 481.015,-335.467 528,-313 541.459,-306.564 557.188,-302.259 571.372,-299.401"/>
<polygon fill="midnightblue" stroke="midnightblue" points="572.169,-302.813 581.373,-297.566 570.905,-295.928 572.169,-302.813"/>
</g>
<!-- Node33 -->
<g id="node33" class="node"><title>Node33</title>
<g id="a_node33"><a xlink:href="crypter_8cpp.html#a4fa4e3134d2b6e4913b9ce6369820697" target="_top" xlink:title="EncryptSecret">
<polygon fill="white" stroke="red" points="573.5,-588.5 573.5,-607.5 652.5,-607.5 652.5,-588.5 573.5,-588.5"/>
<text text-anchor="middle" x="613" y="-595.5" font-family="Helvetica,sans-Serif" font-size="10.00">EncryptSecret</text>
</a>
</g>
</g>
<!-- Node28&#45;&gt;Node33 -->
<g id="edge36" class="edge"><title>Node28&#45;&gt;Node33</title>
<path fill="none" stroke="midnightblue" d="M476.103,-417.584C481.809,-420.075 487.216,-423.167 492,-427 521.169,-450.369 507.417,-471.802 528,-503 547.556,-532.641 575.815,-562.644 594.047,-580.786"/>
<polygon fill="midnightblue" stroke="midnightblue" points="592.061,-583.74 601.651,-588.242 596.962,-578.742 592.061,-583.74"/>
</g>
<!-- Node34 -->
<g id="node34" class="node"><title>Node34</title>
<g id="a_node34"><a xlink:href="class_c_pub_key.html#a85b5eaf92b26cb4a230586050285c3f4" target="_top" xlink:title="CPubKey::GetHash">
<polygon fill="white" stroke="red" points="753.5,-398.5 753.5,-417.5 857.5,-417.5 857.5,-398.5 753.5,-398.5"/>
<text text-anchor="middle" x="805.5" y="-405.5" font-family="Helvetica,sans-Serif" font-size="10.00">CPubKey::GetHash</text>
</a>
</g>
</g>
<!-- Node28&#45;&gt;Node34 -->
<g id="edge38" class="edge"><title>Node28&#45;&gt;Node34</title>
<path fill="none" stroke="midnightblue" d="M492.087,-408C567.333,-408 675.863,-408 743.19,-408"/>
<polygon fill="midnightblue" stroke="midnightblue" points="743.223,-411.5 753.223,-408 743.223,-404.5 743.223,-411.5"/>
</g>
<!-- Node35 -->
<g id="node35" class="node"><title>Node35</title>
<g id="a_node35"><a xlink:href="class_c_crypto_key_store.html#a9f4d2df95008205b2b9784c5f0e8e12b" target="_top" xlink:title="CCryptoKeyStore::AddCryptedKey">
<polygon fill="white" stroke="red" points="528,-436.5 528,-455.5 698,-455.5 698,-436.5 528,-436.5"/>
<text text-anchor="middle" x="613" y="-443.5" font-family="Helvetica,sans-Serif" font-size="10.00">CCryptoKeyStore::AddCryptedKey</text>
</a>
</g>
</g>
<!-- Node28&#45;&gt;Node35 -->
<g id="edge40" class="edge"><title>Node28&#45;&gt;Node35</title>
<path fill="none" stroke="midnightblue" d="M459.214,-417.54C486.981,-422.712 521.489,-429.14 550.681,-434.578"/>
<polygon fill="midnightblue" stroke="midnightblue" points="550.293,-438.066 560.764,-436.456 551.574,-431.184 550.293,-438.066"/>
</g>
<!-- Node29&#45;&gt;Node19 -->
<g id="edge31" class="edge"><title>Node29&#45;&gt;Node19</title>
<path fill="none" stroke="midnightblue" d="M695.618,-484C714.017,-484 733.108,-484 750.069,-484"/>
<polygon fill="midnightblue" stroke="midnightblue" points="750.33,-487.5 760.33,-484 750.33,-480.5 750.33,-487.5"/>
</g>
<!-- Node30&#45;&gt;Node24 -->
<g id="edge33" class="edge"><title>Node30&#45;&gt;Node24</title>
<path fill="none" stroke="midnightblue" d="M683.044,-256C696.196,-256 710.071,-256 723.554,-256"/>
<polygon fill="midnightblue" stroke="midnightblue" points="723.771,-259.5 733.771,-256 723.77,-252.5 723.771,-259.5"/>
</g>
<!-- Node33&#45;&gt;Node11 -->
<g id="edge37" class="edge"><title>Node33&#45;&gt;Node11</title>
<path fill="none" stroke="midnightblue" d="M652.551,-605.69C686.298,-612.422 734.975,-622.132 768.076,-628.734"/>
<polygon fill="midnightblue" stroke="midnightblue" points="767.745,-632.237 778.237,-630.761 769.115,-625.372 767.745,-632.237"/>
</g>
<!-- Node34&#45;&gt;Node21 -->
<g id="edge39" class="edge"><title>Node34&#45;&gt;Node21</title>
<path fill="none" stroke="midnightblue" d="M857.739,-408C872.213,-408 887.952,-408 902.389,-408"/>
<polygon fill="midnightblue" stroke="midnightblue" points="902.635,-411.5 912.635,-408 902.635,-404.5 902.635,-411.5"/>
</g>
<!-- Node35&#45;&gt;Node19 -->
<g id="edge41" class="edge"><title>Node35&#45;&gt;Node19</title>
<path fill="none" stroke="midnightblue" d="M662.071,-455.589C688.969,-460.954 722.582,-467.659 750.399,-473.208"/>
<polygon fill="midnightblue" stroke="midnightblue" points="749.87,-476.672 760.362,-475.195 751.24,-469.807 749.87,-476.672"/>
</g>
<!-- Node37&#45;&gt;Node21 -->
<g id="edge45" class="edge"><title>Node37&#45;&gt;Node21</title>
<path fill="none" stroke="midnightblue" d="M833.364,-208.504C847.828,-214.743 865.092,-224.149 877,-237 918.842,-282.156 940.381,-354.154 948.749,-388.516"/>
<polygon fill="midnightblue" stroke="midnightblue" points="945.342,-389.318 951.012,-398.268 952.161,-387.736 945.342,-389.318"/>
</g>
<!-- Node40 -->
<g id="node40" class="node"><title>Node40</title>
<g id="a_node40"><a xlink:href="script_8cpp.html#adc59cf67d903c1ba1ef225561b85bfce" target="_top" xlink:title="IsMine">
<polygon fill="white" stroke="black" points="384,-76.5 384,-95.5 430,-95.5 430,-76.5 384,-76.5"/>
<text text-anchor="middle" x="407" y="-83.5" font-family="Helvetica,sans-Serif" font-size="10.00">IsMine</text>
</a>
</g>
</g>
<!-- Node39&#45;&gt;Node40 -->
<g id="edge48" class="edge"><title>Node39&#45;&gt;Node40</title>
<path fill="none" stroke="midnightblue" d="M262.333,-422.906C271.279,-419.722 279.579,-414.974 286,-408 370.988,-315.699 249.353,-230.298 322,-128 334.346,-110.615 356.001,-100.031 374.23,-93.837"/>
<polygon fill="midnightblue" stroke="midnightblue" points="375.409,-97.1359 383.925,-90.8322 373.337,-90.4497 375.409,-97.1359"/>
</g>
<!-- Node41 -->
<g id="node41" class="node"><title>Node41</title>
<g id="a_node41"><a xlink:href="class_c_wallet_d_b.html#a8d4e8d73b977dc62c137bd3543c278bf" target="_top" xlink:title="CWalletDB::WritePurpose">
<polygon fill="white" stroke="black" points="341,-0.5 341,-19.5 473,-19.5 473,-0.5 341,-0.5"/>
<text text-anchor="middle" x="407" y="-7.5" font-family="Helvetica,sans-Serif" font-size="10.00">CWalletDB::WritePurpose</text>
</a>
</g>
</g>
<!-- Node39&#45;&gt;Node41 -->
<g id="edge51" class="edge"><title>Node39&#45;&gt;Node41</title>
<path fill="none" stroke="midnightblue" d="M262.091,-423.25C271.182,-420.043 279.59,-415.197 286,-408 342.266,-344.821 266.118,-92.5186 322,-29 324.889,-25.7165 328.214,-22.9352 331.838,-20.5844"/>
<polygon fill="midnightblue" stroke="midnightblue" points="333.578,-23.6235 340.773,-15.8463 330.298,-17.4393 333.578,-23.6235"/>
</g>
<!-- Node42 -->
<g id="node42" class="node"><title>Node42</title>
<g id="a_node42"><a xlink:href="class_c_wallet_d_b.html#ad1b3bce77e9dd6ddd8c668a469c38f0a" target="_top" xlink:title="CWalletDB::WriteName">
<polygon fill="white" stroke="black" points="346.5,-38.5 346.5,-57.5 467.5,-57.5 467.5,-38.5 346.5,-38.5"/>
<text text-anchor="middle" x="407" y="-45.5" font-family="Helvetica,sans-Serif" font-size="10.00">CWalletDB::WriteName</text>
</a>
</g>
</g>
<!-- Node39&#45;&gt;Node42 -->
<g id="edge52" class="edge"><title>Node39&#45;&gt;Node42</title>
<path fill="none" stroke="midnightblue" d="M262.026,-423.192C271.125,-419.992 279.553,-415.164 286,-408 387.95,-294.725 220.738,-180.891 322,-67 326.137,-62.3471 331.15,-58.7052 336.646,-55.8685"/>
<polygon fill="midnightblue" stroke="midnightblue" points="338.418,-58.9204 346.28,-51.8183 335.705,-52.4674 338.418,-58.9204"/>
</g>
<!-- Node40&#45;&gt;Node36 -->
<g id="edge49" class="edge"><title>Node40&#45;&gt;Node36</title>
<path fill="none" stroke="midnightblue" d="M430.22,-89.0498C457.104,-92.7398 503.647,-99.128 542.905,-104.516"/>
<polygon fill="midnightblue" stroke="midnightblue" points="542.591,-108.006 552.974,-105.898 543.543,-101.071 542.591,-108.006"/>
</g>
<!-- Node40&#45;&gt;Node40 -->
<g id="edge50" class="edge"><title>Node40&#45;&gt;Node40</title>
<path fill="none" stroke="midnightblue" d="M383.842,-91.9111C357.236,-101.558 364.955,-114 407,-114 443.132,-114 453.914,-104.811 439.346,-96.1045"/>
<polygon fill="midnightblue" stroke="midnightblue" points="440.708,-92.879 430.158,-91.9111 437.802,-99.2471 440.708,-92.879"/>
</g>
<!-- Node44&#45;&gt;Node6 -->
<g id="edge59" class="edge"><title>Node44&#45;&gt;Node6</title>
<path fill="none" stroke="midnightblue" d="M218.652,-743.577C239.055,-753.707 268.964,-771.607 286,-796 322.047,-847.614 276.722,-889.258 322,-933 332.643,-943.282 347.613,-948.454 361.973,-950.929"/>
<polygon fill="midnightblue" stroke="midnightblue" points="361.877,-954.447 372.25,-952.29 362.796,-947.508 361.877,-954.447"/>
</g>
<!-- Node44&#45;&gt;Node7 -->
<g id="edge57" class="edge"><title>Node44&#45;&gt;Node7</title>
<path fill="none" stroke="midnightblue" d="M263.968,-743.605C272.15,-747.087 279.796,-751.756 286,-758 330.373,-802.66 276.722,-851.258 322,-895 337.911,-910.371 363.49,-914.321 382.246,-914.917"/>
<polygon fill="midnightblue" stroke="midnightblue" points="382.368,-918.417 392.377,-914.942 382.385,-911.417 382.368,-918.417"/>
</g>
<!-- Node45 -->
<g id="node45" class="node"><title>Node45</title>
<g id="a_node45"><a xlink:href="util_8cpp.html#a46fac5fba8ba905b5f9acb364f5d8c6f" target="_top" xlink:title="GetTime">
<polygon fill="white" stroke="black" points="379.5,-828.5 379.5,-847.5 434.5,-847.5 434.5,-828.5 379.5,-828.5"/>
<text text-anchor="middle" x="407" y="-835.5" font-family="Helvetica,sans-Serif" font-size="10.00">GetTime</text>
</a>
</g>
</g>
<!-- Node44&#45;&gt;Node45 -->
<g id="edge55" class="edge"><title>Node44&#45;&gt;Node45</title>
<path fill="none" stroke="midnightblue" d="M257.877,-743.624C267.91,-747.053 277.722,-751.7 286,-758 311.051,-777.064 296.564,-800.452 322,-819 335.577,-828.9 353.422,-833.77 369.171,-836.117"/>
<polygon fill="midnightblue" stroke="midnightblue" points="368.804,-839.598 379.151,-837.324 369.644,-832.649 368.804,-839.598"/>
</g>
<!-- Node46 -->
<g id="node46" class="node"><title>Node46</title>
<g id="a_node46"><a xlink:href="class_c_chain.html#acd3c27582e3d60b93363fda5d9f3775a" target="_top" xlink:title="Find the successor of a block in this chain, or NULL if the given index is not found or is the tip...">
<polygon fill="white" stroke="red" points="369,-790.5 369,-809.5 445,-809.5 445,-790.5 369,-790.5"/>
<text text-anchor="middle" x="407" y="-797.5" font-family="Helvetica,sans-Serif" font-size="10.00">CChain::Next</text>
</a>
</g>
</g>
<!-- Node44&#45;&gt;Node46 -->
<g id="edge56" class="edge"><title>Node44&#45;&gt;Node46</title>
<path fill="none" stroke="midnightblue" d="M243.197,-743.604C257.25,-747.278 272.532,-752.051 286,-758 303.368,-765.672 304.479,-773.685 322,-781 333.534,-785.815 346.492,-789.512 358.714,-792.307"/>
<polygon fill="midnightblue" stroke="midnightblue" points="358.251,-795.786 368.761,-794.447 359.709,-788.94 358.251,-795.786"/>
</g>
<!-- Node47 -->
<g id="node47" class="node"><title>Node47</title>
<g id="a_node47"><a xlink:href="namespace_checkpoints.html#ad473e253a3826fec1a7f9394c695ba91" target="_top" xlink:title="Checkpoints::GuessVerification\lProgress">
<polygon fill="white" stroke="red" points="329.5,-741 329.5,-771 484.5,-771 484.5,-741 329.5,-741"/>
<text text-anchor="start" x="337.5" y="-759" font-family="Helvetica,sans-Serif" font-size="10.00">Checkpoints::GuessVerification</text>
<text text-anchor="middle" x="407" y="-748" font-family="Helvetica,sans-Serif" font-size="10.00">Progress</text>
</a>
</g>
</g>
<!-- Node44&#45;&gt;Node47 -->
<g id="edge58" class="edge"><title>Node44&#45;&gt;Node47</title>
<path fill="none" stroke="midnightblue" d="M286.241,-743.394C297.087,-744.535 308.157,-745.701 318.971,-746.839"/>
<polygon fill="midnightblue" stroke="midnightblue" points="318.932,-750.354 329.244,-747.92 319.665,-743.393 318.932,-750.354"/>
</g>
<!-- Node48 -->
<g id="node48" class="node"><title>Node48</title>
<g id="a_node48"><a xlink:href="main_8cpp.html#a2dc350346749b7da7f4b40c114ee5147" target="_top" xlink:title="ReadBlockFromDisk">
<polygon fill="white" stroke="red" points="353,-702.5 353,-721.5 461,-721.5 461,-702.5 353,-702.5"/>
<text text-anchor="middle" x="407" y="-709.5" font-family="Helvetica,sans-Serif" font-size="10.00">ReadBlockFromDisk</text>
</a>
</g>
</g>
<!-- Node44&#45;&gt;Node48 -->
<g id="edge60" class="edge"><title>Node44&#45;&gt;Node48</title>
<path fill="none" stroke="midnightblue" d="M286.241,-724.606C305.254,-722.605 324.956,-720.531 342.755,-718.657"/>
<polygon fill="midnightblue" stroke="midnightblue" points="343.417,-722.107 352.996,-717.579 342.684,-715.146 343.417,-722.107"/>
</g>
<!-- Node49 -->
<g id="node49" class="node"><title>Node49</title>
<g id="a_node49"><a xlink:href="class_c_transaction.html#a3f8666d2a275c40da14bd5eaf47dc004" target="_top" xlink:title="CTransaction::GetHash">
<polygon fill="white" stroke="red" points="346.5,-866.5 346.5,-885.5 467.5,-885.5 467.5,-866.5 346.5,-866.5"/>
<text text-anchor="middle" x="407" y="-873.5" font-family="Helvetica,sans-Serif" font-size="10.00">CTransaction::GetHash</text>
</a>
</g>
</g>
<!-- Node44&#45;&gt;Node49 -->
<g id="edge61" class="edge"><title>Node44&#45;&gt;Node49</title>
<path fill="none" stroke="midnightblue" d="M262.094,-743.597C270.855,-747.058 279.163,-751.723 286,-758 320.488,-789.663 286.87,-826.05 322,-857 326.456,-860.926 331.551,-864.091 336.98,-866.637"/>
<polygon fill="midnightblue" stroke="midnightblue" points="335.792,-869.93 346.378,-870.361 338.371,-863.423 335.792,-869.93"/>
</g>
</g>
</svg>
