<?xml version="1.0" encoding="UTF-8" standalone="no"?>
<!DOCTYPE svg PUBLIC "-//W3C//DTD SVG 1.1//EN"
 "http://www.w3.org/Graphics/SVG/1.1/DTD/svg11.dtd">
<!-- Generated by graphviz version 2.38.0 (20140413.2041)
 -->
<!-- Title: _createmultisig_redeemScript Pages: 1 -->
<svg width="841pt" height="294pt"
 viewBox="0.00 0.00 841.00 294.00" xmlns="http://www.w3.org/2000/svg" xmlns:xlink="http://www.w3.org/1999/xlink">
<g id="graph0" class="graph" transform="scale(1 1) rotate(0) translate(4 290)">
<title>_createmultisig_redeemScript</title>
<polygon fill="white" stroke="none" points="-4,4 -4,-290 837,-290 837,4 -4,4"/>
<!-- Node1 -->
<g id="node1" class="node"><title>Node1</title>
<polygon fill="#bfbfbf" stroke="black" points="0,-114.5 0,-133.5 149,-133.5 149,-114.5 0,-114.5"/>
<text text-anchor="middle" x="74.5" y="-121.5" font-family="Helvetica,sans-Serif" font-size="10.00">_createmultisig_redeemScript</text>
</g>
<!-- Node2 -->
<g id="node2" class="node"><title>Node2</title>
<g id="a_node2"><a xlink:href="class_c_anoncoin_address.html#af5c7de8942a49523747a7d93e614779f" target="_top" xlink:title="CAnoncoinAddress::IsValid">
<polygon fill="white" stroke="black" points="374.5,-266.5 374.5,-285.5 512.5,-285.5 512.5,-266.5 374.5,-266.5"/>
<text text-anchor="middle" x="443.5" y="-273.5" font-family="Helvetica,sans-Serif" font-size="10.00">CAnoncoinAddress::IsValid</text>
</a>
</g>
</g>
<!-- Node1&#45;&gt;Node2 -->
<g id="edge1" class="edge"><title>Node1&#45;&gt;Node2</title>
<path fill="none" stroke="midnightblue" d="M81.4841,-133.686C96.0367,-156.305 135.729,-212.597 185,-238 240.468,-266.597 311.026,-275.399 364.252,-277.441"/>
<polygon fill="midnightblue" stroke="midnightblue" points="364.214,-280.941 374.318,-277.755 364.432,-273.945 364.214,-280.941"/>
</g>
<!-- Node5 -->
<g id="node5" class="node"><title>Node5</title>
<g id="a_node5"><a xlink:href="class_c_anoncoin_address.html#ac94ac53d282f9f96f5dd5a4abef8e2b2" target="_top" xlink:title="CAnoncoinAddress::GetKeyID">
<polygon fill="white" stroke="black" points="185,-209.5 185,-228.5 336,-228.5 336,-209.5 185,-209.5"/>
<text text-anchor="middle" x="260.5" y="-216.5" font-family="Helvetica,sans-Serif" font-size="10.00">CAnoncoinAddress::GetKeyID</text>
</a>
</g>
</g>
<!-- Node1&#45;&gt;Node5 -->
<g id="edge4" class="edge"><title>Node1&#45;&gt;Node5</title>
<path fill="none" stroke="midnightblue" d="M93.6885,-133.527C115.396,-144.882 152.803,-164.409 185,-181 200.31,-188.889 217.428,-197.627 231.391,-204.732"/>
<polygon fill="midnightblue" stroke="midnightblue" points="229.993,-207.947 240.493,-209.36 233.165,-201.707 229.993,-207.947"/>
</g>
<!-- Node8 -->
<g id="node8" class="node"><title>Node8</title>
<g id="a_node8"><a xlink:href="class_c_crypto_key_store.html#abd897aff07ec5679235b14cb4485dc37" target="_top" xlink:title="CCryptoKeyStore::GetPubKey">
<polygon fill="white" stroke="black" points="185,-152.5 185,-171.5 336,-171.5 336,-152.5 185,-152.5"/>
<text text-anchor="middle" x="260.5" y="-159.5" font-family="Helvetica,sans-Serif" font-size="10.00">CCryptoKeyStore::GetPubKey</text>
</a>
</g>
</g>
<!-- Node1&#45;&gt;Node8 -->
<g id="edge9" class="edge"><title>Node1&#45;&gt;Node8</title>
<path fill="none" stroke="midnightblue" d="M121.931,-133.589C146.649,-138.694 177.239,-145.011 203.292,-150.392"/>
<polygon fill="midnightblue" stroke="midnightblue" points="202.902,-153.885 213.403,-152.48 204.317,-147.03 202.902,-153.885"/>
</g>
<!-- Node13 -->
<g id="node13" class="node"><title>Node13</title>
<g id="a_node13"><a xlink:href="class_c_pub_key.html#a2533ec5fc9a1c3d2ef39d0faa3ad6cdd" target="_top" xlink:title="CPubKey::IsFullyValid">
<polygon fill="white" stroke="black" points="203,-114.5 203,-133.5 318,-133.5 318,-114.5 203,-114.5"/>
<text text-anchor="middle" x="260.5" y="-121.5" font-family="Helvetica,sans-Serif" font-size="10.00">CPubKey::IsFullyValid</text>
</a>
</g>
</g>
<!-- Node1&#45;&gt;Node13 -->
<g id="edge14" class="edge"><title>Node1&#45;&gt;Node13</title>
<path fill="none" stroke="midnightblue" d="M149.015,-124C163.433,-124 178.483,-124 192.669,-124"/>
<polygon fill="midnightblue" stroke="midnightblue" points="192.823,-127.5 202.823,-124 192.823,-120.5 192.823,-127.5"/>
</g>
<!-- Node17 -->
<g id="node17" class="node"><title>Node17</title>
<g id="a_node17"><a xlink:href="util_8cpp.html#aa4e3553d2b2fe693c106f4296685f75c" target="_top" xlink:title="IsHex">
<polygon fill="white" stroke="black" points="239.5,-76.5 239.5,-95.5 281.5,-95.5 281.5,-76.5 239.5,-76.5"/>
<text text-anchor="middle" x="260.5" y="-83.5" font-family="Helvetica,sans-Serif" font-size="10.00">IsHex</text>
</a>
</g>
</g>
<!-- Node1&#45;&gt;Node17 -->
<g id="edge18" class="edge"><title>Node1&#45;&gt;Node17</title>
<path fill="none" stroke="midnightblue" d="M121.931,-114.411C155.496,-107.479 199.888,-98.3111 229.046,-92.2895"/>
<polygon fill="midnightblue" stroke="midnightblue" points="229.965,-95.6736 239.05,-90.2233 228.549,-88.8182 229.965,-95.6736"/>
</g>
<!-- Node19 -->
<g id="node19" class="node"><title>Node19</title>
<g id="a_node19"><a xlink:href="util_8cpp.html#abea395175fbc4a788ed0f0a41710b8a7" target="_top" xlink:title="ParseHex">
<polygon fill="white" stroke="black" points="230.5,-38.5 230.5,-57.5 290.5,-57.5 290.5,-38.5 230.5,-38.5"/>
<text text-anchor="middle" x="260.5" y="-45.5" font-family="Helvetica,sans-Serif" font-size="10.00">ParseHex</text>
</a>
</g>
</g>
<!-- Node1&#45;&gt;Node19 -->
<g id="edge20" class="edge"><title>Node1&#45;&gt;Node19</title>
<path fill="none" stroke="midnightblue" d="M91.284,-114.297C112.096,-101.856 150.163,-80.3052 185,-67 196.284,-62.6903 208.899,-59.0534 220.495,-56.1521"/>
<polygon fill="midnightblue" stroke="midnightblue" points="221.451,-59.5222 230.364,-53.7934 219.824,-52.714 221.451,-59.5222"/>
</g>
<!-- Node20 -->
<g id="node20" class="node"><title>Node20</title>
<g id="a_node20"><a xlink:href="class_c_script.html#a1bb2091fd110a07fabed259b94589227" target="_top" xlink:title="CScript::SetMultisig">
<polygon fill="white" stroke="black" points="208.5,-0.5 208.5,-19.5 312.5,-19.5 312.5,-0.5 208.5,-0.5"/>
<text text-anchor="middle" x="260.5" y="-7.5" font-family="Helvetica,sans-Serif" font-size="10.00">CScript::SetMultisig</text>
</a>
</g>
</g>
<!-- Node1&#45;&gt;Node20 -->
<g id="edge22" class="edge"><title>Node1&#45;&gt;Node20</title>
<path fill="none" stroke="midnightblue" d="M83.7822,-114.265C100.744,-94.9655 141.518,-51.7568 185,-29 189.468,-26.6616 194.24,-24.5995 199.129,-22.7832"/>
<polygon fill="midnightblue" stroke="midnightblue" points="200.265,-26.0938 208.625,-19.5852 198.031,-19.4598 200.265,-26.0938"/>
</g>
<!-- Node3 -->
<g id="node3" class="node"><title>Node3</title>
<g id="a_node3"><a xlink:href="chainparams_8cpp.html#ace5c5b706d71a324a417dd2db394fd4a" target="_top" xlink:title="Return the currently selected parameters. ">
<polygon fill="white" stroke="black" points="600,-228.5 600,-247.5 651,-247.5 651,-228.5 600,-228.5"/>
<text text-anchor="middle" x="625.5" y="-235.5" font-family="Helvetica,sans-Serif" font-size="10.00">Params</text>
</a>
</g>
</g>
<!-- Node2&#45;&gt;Node3 -->
<g id="edge2" class="edge"><title>Node2&#45;&gt;Node3</title>
<path fill="none" stroke="midnightblue" d="M489.922,-266.411C520.995,-259.851 561.553,-251.289 589.99,-245.285"/>
<polygon fill="midnightblue" stroke="midnightblue" points="590.817,-248.688 599.879,-243.198 589.371,-241.839 590.817,-248.688"/>
</g>
<!-- Node4 -->
<g id="node4" class="node"><title>Node4</title>
<g id="a_node4"><a xlink:href="class_c_chain_params.html#a6088d3a4f45d89c90e7e6117c3c5720d" target="_top" xlink:title="CChainParams::Base58Prefix">
<polygon fill="white" stroke="black" points="551,-266.5 551,-285.5 700,-285.5 700,-266.5 551,-266.5"/>
<text text-anchor="middle" x="625.5" y="-273.5" font-family="Helvetica,sans-Serif" font-size="10.00">CChainParams::Base58Prefix</text>
</a>
</g>
</g>
<!-- Node2&#45;&gt;Node4 -->
<g id="edge3" class="edge"><title>Node2&#45;&gt;Node4</title>
<path fill="none" stroke="midnightblue" d="M512.55,-276C521.762,-276 531.301,-276 540.748,-276"/>
<polygon fill="midnightblue" stroke="midnightblue" points="540.942,-279.5 550.942,-276 540.942,-272.5 540.942,-279.5"/>
</g>
<!-- Node5&#45;&gt;Node2 -->
<g id="edge5" class="edge"><title>Node5&#45;&gt;Node2</title>
<path fill="none" stroke="midnightblue" d="M291.795,-228.541C322.075,-238.076 368.809,-252.794 402.203,-263.31"/>
<polygon fill="midnightblue" stroke="midnightblue" points="401.516,-266.763 412.106,-266.428 403.619,-260.086 401.516,-266.763"/>
</g>
<!-- Node5&#45;&gt;Node3 -->
<g id="edge6" class="edge"><title>Node5&#45;&gt;Node3</title>
<path fill="none" stroke="midnightblue" d="M336.274,-222.914C413.842,-226.974 531.745,-233.145 589.766,-236.182"/>
<polygon fill="midnightblue" stroke="midnightblue" points="589.711,-239.684 599.88,-236.711 590.077,-232.693 589.711,-239.684"/>
</g>
<!-- Node6 -->
<g id="node6" class="node"><title>Node6</title>
<g id="a_node6"><a xlink:href="glibc__compat_8cpp.html#a0f46826ab0466591e136db24394923cf" target="_top" xlink:title="memcpy">
<polygon fill="white" stroke="black" points="416.5,-190.5 416.5,-209.5 470.5,-209.5 470.5,-190.5 416.5,-190.5"/>
<text text-anchor="middle" x="443.5" y="-197.5" font-family="Helvetica,sans-Serif" font-size="10.00">memcpy</text>
</a>
</g>
</g>
<!-- Node5&#45;&gt;Node6 -->
<g id="edge7" class="edge"><title>Node5&#45;&gt;Node6</title>
<path fill="none" stroke="midnightblue" d="M336.165,-211.162C360.379,-208.62 386.154,-205.915 406.263,-203.804"/>
<polygon fill="midnightblue" stroke="midnightblue" points="406.643,-207.283 416.223,-202.758 405.913,-200.322 406.643,-207.283"/>
</g>
<!-- Node7 -->
<g id="node7" class="node"><title>Node7</title>
<g id="a_node7"><a xlink:href="glibc__compat_8cpp.html#a9778d49e9029dd75bc53ecbbf9f5e9a1" target="_top" xlink:title="memmove">
<polygon fill="white" stroke="black" points="594,-190.5 594,-209.5 657,-209.5 657,-190.5 594,-190.5"/>
<text text-anchor="middle" x="625.5" y="-197.5" font-family="Helvetica,sans-Serif" font-size="10.00">memmove</text>
</a>
</g>
</g>
<!-- Node6&#45;&gt;Node7 -->
<g id="edge8" class="edge"><title>Node6&#45;&gt;Node7</title>
<path fill="none" stroke="midnightblue" d="M470.674,-200C500.275,-200 548.857,-200 583.502,-200"/>
<polygon fill="midnightblue" stroke="midnightblue" points="583.77,-203.5 593.77,-200 583.77,-196.5 583.77,-203.5"/>
</g>
<!-- Node9 -->
<g id="node9" class="node"><title>Node9</title>
<g id="a_node9"><a xlink:href="class_c_crypto_key_store.html#a1cb434078a9ea686c0acf168d2c81252" target="_top" xlink:title="CCryptoKeyStore::IsCrypted">
<polygon fill="white" stroke="black" points="372,-152.5 372,-171.5 515,-171.5 515,-152.5 372,-152.5"/>
<text text-anchor="middle" x="443.5" y="-159.5" font-family="Helvetica,sans-Serif" font-size="10.00">CCryptoKeyStore::IsCrypted</text>
</a>
</g>
</g>
<!-- Node8&#45;&gt;Node9 -->
<g id="edge10" class="edge"><title>Node8&#45;&gt;Node9</title>
<path fill="none" stroke="midnightblue" d="M336.165,-162C344.542,-162 353.105,-162 361.557,-162"/>
<polygon fill="midnightblue" stroke="midnightblue" points="361.79,-165.5 371.79,-162 361.79,-158.5 361.79,-165.5"/>
</g>
<!-- Node10 -->
<g id="node10" class="node"><title>Node10</title>
<g id="a_node10"><a xlink:href="class_c_key_store.html#aba866c1e71c129e7ac2d5d1e5223c8a5" target="_top" xlink:title="CKeyStore::GetPubKey">
<polygon fill="white" stroke="black" points="382.5,-114.5 382.5,-133.5 504.5,-133.5 504.5,-114.5 382.5,-114.5"/>
<text text-anchor="middle" x="443.5" y="-121.5" font-family="Helvetica,sans-Serif" font-size="10.00">CKeyStore::GetPubKey</text>
</a>
</g>
</g>
<!-- Node8&#45;&gt;Node10 -->
<g id="edge11" class="edge"><title>Node8&#45;&gt;Node10</title>
<path fill="none" stroke="midnightblue" d="M307.174,-152.411C331.489,-147.306 361.58,-140.989 387.208,-135.608"/>
<polygon fill="midnightblue" stroke="midnightblue" points="388.087,-139 397.154,-133.52 386.649,-132.149 388.087,-139"/>
</g>
<!-- Node11 -->
<g id="node11" class="node"><title>Node11</title>
<g id="a_node11"><a xlink:href="class_c_key_store.html#a2dffca468fef2e5da2e42a7c983d968a" target="_top" xlink:title="CKeyStore::GetKey">
<polygon fill="white" stroke="black" points="573.5,-152.5 573.5,-171.5 677.5,-171.5 677.5,-152.5 573.5,-152.5"/>
<text text-anchor="middle" x="625.5" y="-159.5" font-family="Helvetica,sans-Serif" font-size="10.00">CKeyStore::GetKey</text>
</a>
</g>
</g>
<!-- Node10&#45;&gt;Node11 -->
<g id="edge12" class="edge"><title>Node10&#45;&gt;Node11</title>
<path fill="none" stroke="midnightblue" d="M489.922,-133.589C514.103,-138.694 544.027,-145.011 569.514,-150.392"/>
<polygon fill="midnightblue" stroke="midnightblue" points="568.898,-153.839 579.405,-152.48 570.344,-146.99 568.898,-153.839"/>
</g>
<!-- Node12 -->
<g id="node12" class="node"><title>Node12</title>
<g id="a_node12"><a xlink:href="class_c_key.html#ae4b61da6ec62f676fe6362ac5fc26aca" target="_top" xlink:title="CKey::GetPubKey">
<polygon fill="white" stroke="black" points="576.5,-114.5 576.5,-133.5 674.5,-133.5 674.5,-114.5 576.5,-114.5"/>
<text text-anchor="middle" x="625.5" y="-121.5" font-family="Helvetica,sans-Serif" font-size="10.00">CKey::GetPubKey</text>
</a>
</g>
</g>
<!-- Node10&#45;&gt;Node12 -->
<g id="edge13" class="edge"><title>Node10&#45;&gt;Node12</title>
<path fill="none" stroke="midnightblue" d="M504.688,-124C524.531,-124 546.554,-124 566.249,-124"/>
<polygon fill="midnightblue" stroke="midnightblue" points="566.313,-127.5 576.313,-124 566.313,-120.5 566.313,-127.5"/>
</g>
<!-- Node14 -->
<g id="node14" class="node"><title>Node14</title>
<g id="a_node14"><a xlink:href="class_c_pub_key.html#aad6f369d7972f2244466ca6db900c2a4" target="_top" xlink:title="CPubKey::IsValid">
<polygon fill="white" stroke="black" points="396.5,-76.5 396.5,-95.5 490.5,-95.5 490.5,-76.5 396.5,-76.5"/>
<text text-anchor="middle" x="443.5" y="-83.5" font-family="Helvetica,sans-Serif" font-size="10.00">CPubKey::IsValid</text>
</a>
</g>
</g>
<!-- Node13&#45;&gt;Node14 -->
<g id="edge15" class="edge"><title>Node13&#45;&gt;Node14</title>
<path fill="none" stroke="midnightblue" d="M307.174,-114.411C331.489,-109.306 361.58,-102.989 387.208,-97.6082"/>
<polygon fill="midnightblue" stroke="midnightblue" points="388.087,-101 397.154,-95.5201 386.649,-94.1495 388.087,-101"/>
</g>
<!-- Node15 -->
<g id="node15" class="node"><title>Node15</title>
<g id="a_node15"><a xlink:href="class_c_pub_key.html#a9d7129b65b6dee792b4f3923cd64ed59" target="_top" xlink:title="CPubKey::size">
<polygon fill="white" stroke="black" points="584.5,-76.5 584.5,-95.5 666.5,-95.5 666.5,-76.5 584.5,-76.5"/>
<text text-anchor="middle" x="625.5" y="-83.5" font-family="Helvetica,sans-Serif" font-size="10.00">CPubKey::size</text>
</a>
</g>
</g>
<!-- Node14&#45;&gt;Node15 -->
<g id="edge16" class="edge"><title>Node14&#45;&gt;Node15</title>
<path fill="none" stroke="midnightblue" d="M490.854,-86C516.419,-86 548.183,-86 574.328,-86"/>
<polygon fill="midnightblue" stroke="midnightblue" points="574.416,-89.5001 584.416,-86 574.416,-82.5001 574.416,-89.5001"/>
</g>
<!-- Node16 -->
<g id="node16" class="node"><title>Node16</title>
<g id="a_node16"><a xlink:href="class_c_pub_key.html#a7dc71b3f037c84268dc22de97d7b65fb" target="_top" xlink:title="CPubKey::GetLen">
<polygon fill="white" stroke="black" points="736,-76.5 736,-95.5 833,-95.5 833,-76.5 736,-76.5"/>
<text text-anchor="middle" x="784.5" y="-83.5" font-family="Helvetica,sans-Serif" font-size="10.00">CPubKey::GetLen</text>
</a>
</g>
</g>
<!-- Node15&#45;&gt;Node16 -->
<g id="edge17" class="edge"><title>Node15&#45;&gt;Node16</title>
<path fill="none" stroke="midnightblue" d="M666.524,-86C684.473,-86 705.986,-86 725.642,-86"/>
<polygon fill="midnightblue" stroke="midnightblue" points="725.722,-89.5001 735.722,-86 725.722,-82.5001 725.722,-89.5001"/>
</g>
<!-- Node18 -->
<g id="node18" class="node"><title>Node18</title>
<g id="a_node18"><a xlink:href="uint256_8h.html#aa59e8a8c5a39cb5041f93bb95dd02119" target="_top" xlink:title="HexDigit">
<polygon fill="white" stroke="black" points="416.5,-38.5 416.5,-57.5 470.5,-57.5 470.5,-38.5 416.5,-38.5"/>
<text text-anchor="middle" x="443.5" y="-45.5" font-family="Helvetica,sans-Serif" font-size="10.00">HexDigit</text>
</a>
</g>
</g>
<!-- Node17&#45;&gt;Node18 -->
<g id="edge19" class="edge"><title>Node17&#45;&gt;Node18</title>
<path fill="none" stroke="midnightblue" d="M281.562,-81.7881C311.597,-75.4824 368.721,-63.4895 406.204,-55.6203"/>
<polygon fill="midnightblue" stroke="midnightblue" points="407.148,-58.9983 416.216,-53.5182 405.71,-52.1476 407.148,-58.9983"/>
</g>
<!-- Node19&#45;&gt;Node18 -->
<g id="edge21" class="edge"><title>Node19&#45;&gt;Node18</title>
<path fill="none" stroke="midnightblue" d="M290.581,-48C321.961,-48 371.994,-48 405.996,-48"/>
<polygon fill="midnightblue" stroke="midnightblue" points="406.429,-51.5001 416.429,-48 406.429,-44.5001 406.429,-51.5001"/>
</g>
</g>
</svg>
