<?xml version="1.0" encoding="UTF-8" standalone="no"?>
<!DOCTYPE svg PUBLIC "-//W3C//DTD SVG 1.1//EN"
 "http://www.w3.org/Graphics/SVG/1.1/DTD/svg11.dtd">
<!-- Generated by graphviz version 2.38.0 (20140413.2041)
 -->
<!-- Title: getnetworkhashps Pages: 1 -->
<svg width="425pt" height="161pt"
 viewBox="0.00 0.00 425.00 161.00" xmlns="http://www.w3.org/2000/svg" xmlns:xlink="http://www.w3.org/1999/xlink">
<g id="graph0" class="graph" transform="scale(1 1) rotate(0) translate(4 157)">
<title>getnetworkhashps</title>
<polygon fill="white" stroke="none" points="-4,4 -4,-157 421,-157 421,4 -4,4"/>
<!-- Node1 -->
<g id="node1" class="node"><title>Node1</title>
<polygon fill="#bfbfbf" stroke="black" points="0,-95.5 0,-114.5 98,-114.5 98,-95.5 0,-95.5"/>
<text text-anchor="middle" x="49" y="-102.5" font-family="Helvetica,sans-Serif" font-size="10.00">getnetworkhashps</text>
</g>
<!-- Node2 -->
<g id="node2" class="node"><title>Node2</title>
<g id="a_node2"><a xlink:href="rpcserver_8cpp.html#ac01ac6eab5467567ed0da106814e04ec" target="_top" xlink:title="HelpExampleCli">
<polygon fill="white" stroke="black" points="143,-133.5 143,-152.5 231,-152.5 231,-133.5 143,-133.5"/>
<text text-anchor="middle" x="187" y="-140.5" font-family="Helvetica,sans-Serif" font-size="10.00">HelpExampleCli</text>
</a>
</g>
</g>
<!-- Node1&#45;&gt;Node2 -->
<g id="edge1" class="edge"><title>Node1&#45;&gt;Node2</title>
<path fill="none" stroke="midnightblue" d="M84.3185,-114.589C101.794,-119.472 123.241,-125.464 141.925,-130.685"/>
<polygon fill="midnightblue" stroke="midnightblue" points="141.119,-134.094 151.692,-133.414 143.003,-127.352 141.119,-134.094"/>
</g>
<!-- Node3 -->
<g id="node3" class="node"><title>Node3</title>
<g id="a_node3"><a xlink:href="rpcserver_8cpp.html#a06ea60e24e5a1053a14a11b1009bf9ef" target="_top" xlink:title="HelpExampleRpc">
<polygon fill="white" stroke="black" points="140,-95.5 140,-114.5 234,-114.5 234,-95.5 140,-95.5"/>
<text text-anchor="middle" x="187" y="-102.5" font-family="Helvetica,sans-Serif" font-size="10.00">HelpExampleRpc</text>
</a>
</g>
</g>
<!-- Node1&#45;&gt;Node3 -->
<g id="edge2" class="edge"><title>Node1&#45;&gt;Node3</title>
<path fill="none" stroke="midnightblue" d="M98.3314,-105C108.409,-105 119.118,-105 129.462,-105"/>
<polygon fill="midnightblue" stroke="midnightblue" points="129.648,-108.5 139.648,-105 129.648,-101.5 129.648,-108.5"/>
</g>
<!-- Node4 -->
<g id="node4" class="node"><title>Node4</title>
<g id="a_node4"><a xlink:href="rpcmining_8cpp.html#a0727ff0776708e62ed17b0ddc184d50e" target="_top" xlink:title="GetNetworkHashPS">
<polygon fill="white" stroke="black" points="134,-57.5 134,-76.5 240,-76.5 240,-57.5 134,-57.5"/>
<text text-anchor="middle" x="187" y="-64.5" font-family="Helvetica,sans-Serif" font-size="10.00">GetNetworkHashPS</text>
</a>
</g>
</g>
<!-- Node1&#45;&gt;Node4 -->
<g id="edge3" class="edge"><title>Node1&#45;&gt;Node4</title>
<path fill="none" stroke="midnightblue" d="M84.3185,-95.411C101.794,-90.5281 123.241,-84.5357 141.925,-79.315"/>
<polygon fill="midnightblue" stroke="midnightblue" points="143.003,-82.6479 151.692,-76.5859 141.119,-75.9062 143.003,-82.6479"/>
</g>
<!-- Node5 -->
<g id="node5" class="node"><title>Node5</title>
<g id="a_node5"><a xlink:href="class_c_chain.html#a7482d06d8e8143f46326cf9c12c06daf" target="_top" xlink:title="Returns the index entry for the tip of this chain, or NULL if none. ">
<polygon fill="white" stroke="black" points="312,-114.5 312,-133.5 381,-133.5 381,-114.5 312,-114.5"/>
<text text-anchor="middle" x="346.5" y="-121.5" font-family="Helvetica,sans-Serif" font-size="10.00">CChain::Tip</text>
</a>
</g>
</g>
<!-- Node4&#45;&gt;Node5 -->
<g id="edge4" class="edge"><title>Node4&#45;&gt;Node5</title>
<path fill="none" stroke="midnightblue" d="M216.344,-76.5693C224.098,-79.3997 232.446,-82.6448 240,-86 256.534,-93.3435 259.174,-98.3526 276,-105 284.284,-108.273 293.336,-111.194 302.088,-113.708"/>
<polygon fill="midnightblue" stroke="midnightblue" points="301.216,-117.098 311.786,-116.368 303.068,-110.347 301.216,-117.098"/>
</g>
<!-- Node6 -->
<g id="node6" class="node"><title>Node6</title>
<g id="a_node6"><a xlink:href="class_c_chain.html#a0c4ffb8501acfb8a7e1c0f5e6322ada3" target="_top" xlink:title="Return the maximal height in the chain. ">
<polygon fill="white" stroke="black" points="304.5,-76.5 304.5,-95.5 388.5,-95.5 388.5,-76.5 304.5,-76.5"/>
<text text-anchor="middle" x="346.5" y="-83.5" font-family="Helvetica,sans-Serif" font-size="10.00">CChain::Height</text>
</a>
</g>
</g>
<!-- Node4&#45;&gt;Node6 -->
<g id="edge5" class="edge"><title>Node4&#45;&gt;Node6</title>
<path fill="none" stroke="midnightblue" d="M240.008,-73.274C257.46,-75.3793 276.9,-77.7245 294.291,-79.8224"/>
<polygon fill="midnightblue" stroke="midnightblue" points="293.915,-83.3024 304.263,-81.0253 294.754,-76.3528 293.915,-83.3024"/>
</g>
<!-- Node7 -->
<g id="node7" class="node"><title>Node7</title>
<g id="a_node7"><a xlink:href="class_c_block_index.html#ab63b774ae798f5f9e54b400ac8b5ef4b" target="_top" xlink:title="CBlockIndex::GetBlockTime">
<polygon fill="white" stroke="black" points="276,-38.5 276,-57.5 417,-57.5 417,-38.5 276,-38.5"/>
<text text-anchor="middle" x="346.5" y="-45.5" font-family="Helvetica,sans-Serif" font-size="10.00">CBlockIndex::GetBlockTime</text>
</a>
</g>
</g>
<!-- Node4&#45;&gt;Node7 -->
<g id="edge6" class="edge"><title>Node4&#45;&gt;Node7</title>
<path fill="none" stroke="midnightblue" d="M240.008,-60.726C248.251,-59.7316 256.938,-58.6836 265.643,-57.6335"/>
<polygon fill="midnightblue" stroke="midnightblue" points="266.336,-61.0754 275.845,-56.4028 265.498,-54.1258 266.336,-61.0754"/>
</g>
<!-- Node8 -->
<g id="node8" class="node"><title>Node8</title>
<g id="a_node8"><a xlink:href="classbase__uint.html#aa701be5115bacf02c299b05598cf616d" target="_top" xlink:title="base_uint::getdouble">
<polygon fill="white" stroke="black" points="292,-0.5 292,-19.5 401,-19.5 401,-0.5 292,-0.5"/>
<text text-anchor="middle" x="346.5" y="-7.5" font-family="Helvetica,sans-Serif" font-size="10.00">base_uint::getdouble</text>
</a>
</g>
</g>
<!-- Node4&#45;&gt;Node8 -->
<g id="edge7" class="edge"><title>Node4&#45;&gt;Node8</title>
<path fill="none" stroke="midnightblue" d="M207.952,-57.4252C225.582,-49.1969 252.13,-37.3698 276,-29 282.583,-26.6919 289.595,-24.4877 296.538,-22.4518"/>
<polygon fill="midnightblue" stroke="midnightblue" points="297.937,-25.6931 306.603,-19.5968 296.027,-18.9588 297.937,-25.6931"/>
</g>
</g>
</svg>
