<?xml version="1.0" encoding="UTF-8" standalone="no"?>
<!DOCTYPE svg PUBLIC "-//W3C//DTD SVG 1.1//EN"
 "http://www.w3.org/Graphics/SVG/1.1/DTD/svg11.dtd">
<!-- Generated by graphviz version 2.38.0 (20140413.2041)
 -->
<!-- Title: createmultisig Pages: 1 -->
<svg width="955pt" height="389pt"
 viewBox="0.00 0.00 955.00 389.00" xmlns="http://www.w3.org/2000/svg" xmlns:xlink="http://www.w3.org/1999/xlink">
<g id="graph0" class="graph" transform="scale(1 1) rotate(0) translate(4 385.003)">
<title>createmultisig</title>
<polygon fill="white" stroke="none" points="-4,4 -4,-385.003 951,-385.003 951,4 -4,4"/>
<!-- Node1 -->
<g id="node1" class="node"><title>Node1</title>
<polygon fill="#bfbfbf" stroke="black" points="0,-152.5 0,-171.5 78,-171.5 78,-152.5 0,-152.5"/>
<text text-anchor="middle" x="39" y="-159.5" font-family="Helvetica,sans-Serif" font-size="10.00">createmultisig</text>
</g>
<!-- Node2 -->
<g id="node2" class="node"><title>Node2</title>
<g id="a_node2"><a xlink:href="rpcserver_8cpp.html#ac01ac6eab5467567ed0da106814e04ec" target="_top" xlink:title="HelpExampleCli">
<polygon fill="white" stroke="black" points="144.5,-247.5 144.5,-266.5 232.5,-266.5 232.5,-247.5 144.5,-247.5"/>
<text text-anchor="middle" x="188.5" y="-254.5" font-family="Helvetica,sans-Serif" font-size="10.00">HelpExampleCli</text>
</a>
</g>
</g>
<!-- Node1&#45;&gt;Node2 -->
<g id="edge1" class="edge"><title>Node1&#45;&gt;Node2</title>
<path fill="none" stroke="midnightblue" d="M46.5515,-171.56C58.1834,-187.78 84.0556,-220.622 114,-238 120.348,-241.684 127.412,-244.664 134.581,-247.073"/>
<polygon fill="midnightblue" stroke="midnightblue" points="133.778,-250.486 144.363,-250.015 135.795,-243.783 133.778,-250.486"/>
</g>
<!-- Node3 -->
<g id="node3" class="node"><title>Node3</title>
<g id="a_node3"><a xlink:href="rpcserver_8cpp.html#a06ea60e24e5a1053a14a11b1009bf9ef" target="_top" xlink:title="HelpExampleRpc">
<polygon fill="white" stroke="black" points="141.5,-209.5 141.5,-228.5 235.5,-228.5 235.5,-209.5 141.5,-209.5"/>
<text text-anchor="middle" x="188.5" y="-216.5" font-family="Helvetica,sans-Serif" font-size="10.00">HelpExampleRpc</text>
</a>
</g>
</g>
<!-- Node1&#45;&gt;Node3 -->
<g id="edge2" class="edge"><title>Node1&#45;&gt;Node3</title>
<path fill="none" stroke="midnightblue" d="M55.9821,-171.523C70.6571,-179.944 93.2139,-192.089 114,-200 120.373,-202.425 127.171,-204.647 133.963,-206.647"/>
<polygon fill="midnightblue" stroke="midnightblue" points="133.286,-210.092 143.86,-209.418 135.174,-203.351 133.286,-210.092"/>
</g>
<!-- Node4 -->
<g id="node4" class="node"><title>Node4</title>
<g id="a_node4"><a xlink:href="rpcmisc_8cpp.html#aa9b91e060b2d18fffb3b57a679441e68" target="_top" xlink:title="_createmultisig_redeemScript">
<polygon fill="white" stroke="black" points="114,-171.5 114,-190.5 263,-190.5 263,-171.5 114,-171.5"/>
<text text-anchor="middle" x="188.5" y="-178.5" font-family="Helvetica,sans-Serif" font-size="10.00">_createmultisig_redeemScript</text>
</a>
</g>
</g>
<!-- Node1&#45;&gt;Node4 -->
<g id="edge3" class="edge"><title>Node1&#45;&gt;Node4</title>
<path fill="none" stroke="midnightblue" d="M78.3688,-166.942C86.3072,-167.965 94.9623,-169.08 103.812,-170.22"/>
<polygon fill="midnightblue" stroke="midnightblue" points="103.493,-173.708 113.858,-171.514 104.387,-166.765 103.493,-173.708"/>
</g>
<!-- Node24 -->
<g id="node24" class="node"><title>Node24</title>
<g id="a_node24"><a xlink:href="class_c_script.html#a59fd961e1b74202a0951a077b576c0ba" target="_top" xlink:title="CScript::GetID">
<polygon fill="white" stroke="black" points="148,-133.5 148,-152.5 229,-152.5 229,-133.5 148,-133.5"/>
<text text-anchor="middle" x="188.5" y="-140.5" font-family="Helvetica,sans-Serif" font-size="10.00">CScript::GetID</text>
</a>
</g>
</g>
<!-- Node1&#45;&gt;Node24 -->
<g id="edge26" class="edge"><title>Node1&#45;&gt;Node24</title>
<path fill="none" stroke="midnightblue" d="M78.3688,-157.058C96.4575,-154.728 118.268,-151.918 137.62,-149.425"/>
<polygon fill="midnightblue" stroke="midnightblue" points="138.309,-152.865 147.78,-148.116 137.415,-145.923 138.309,-152.865"/>
</g>
<!-- Node26 -->
<g id="node26" class="node"><title>Node26</title>
<g id="a_node26"><a xlink:href="class_c_base58_data.html#a9a47b10dadff15b8d6a6d0e63ce3ae32" target="_top" xlink:title="CBase58Data::ToString">
<polygon fill="white" stroke="black" points="127.5,-95.5 127.5,-114.5 249.5,-114.5 249.5,-95.5 127.5,-95.5"/>
<text text-anchor="middle" x="188.5" y="-102.5" font-family="Helvetica,sans-Serif" font-size="10.00">CBase58Data::ToString</text>
</a>
</g>
</g>
<!-- Node1&#45;&gt;Node26 -->
<g id="edge28" class="edge"><title>Node1&#45;&gt;Node26</title>
<path fill="none" stroke="midnightblue" d="M55.9821,-152.477C70.6571,-144.056 93.2139,-131.911 114,-124 120.373,-121.575 127.171,-119.353 133.963,-117.353"/>
<polygon fill="midnightblue" stroke="midnightblue" points="135.174,-120.649 143.86,-114.582 133.286,-113.908 135.174,-120.649"/>
</g>
<!-- Node30 -->
<g id="node30" class="node"><title>Node30</title>
<g id="a_node30"><a xlink:href="util_8h.html#ace13a819ca4e98c22847d26b3b357e75" target="_top" xlink:title="HexStr">
<polygon fill="white" stroke="black" points="165,-57.5 165,-76.5 212,-76.5 212,-57.5 165,-57.5"/>
<text text-anchor="middle" x="188.5" y="-64.5" font-family="Helvetica,sans-Serif" font-size="10.00">HexStr</text>
</a>
</g>
</g>
<!-- Node1&#45;&gt;Node30 -->
<g id="edge32" class="edge"><title>Node1&#45;&gt;Node30</title>
<path fill="none" stroke="midnightblue" d="M46.5515,-152.44C58.1834,-136.22 84.0556,-103.378 114,-86 126.323,-78.8484 141.344,-74.3487 154.588,-71.5365"/>
<polygon fill="midnightblue" stroke="midnightblue" points="155.563,-74.9145 164.743,-69.6245 154.268,-68.0354 155.563,-74.9145"/>
</g>
<!-- Node5 -->
<g id="node5" class="node"><title>Node5</title>
<g id="a_node5"><a xlink:href="class_c_anoncoin_address.html#af5c7de8942a49523747a7d93e614779f" target="_top" xlink:title="CAnoncoinAddress::IsValid">
<polygon fill="white" stroke="black" points="488.5,-361.5 488.5,-380.5 626.5,-380.5 626.5,-361.5 488.5,-361.5"/>
<text text-anchor="middle" x="557.5" y="-368.5" font-family="Helvetica,sans-Serif" font-size="10.00">CAnoncoinAddress::IsValid</text>
</a>
</g>
</g>
<!-- Node4&#45;&gt;Node5 -->
<g id="edge4" class="edge"><title>Node4&#45;&gt;Node5</title>
<path fill="none" stroke="midnightblue" d="M249.817,-190.655C254.66,-193.131 259.157,-196.201 263,-200 306.548,-243.055 253.224,-292.323 299,-333 347.177,-375.811 421.597,-382.714 478.066,-380.433"/>
<polygon fill="midnightblue" stroke="midnightblue" points="478.582,-383.911 488.39,-379.906 478.225,-376.92 478.582,-383.911"/>
</g>
<!-- Node8 -->
<g id="node8" class="node"><title>Node8</title>
<g id="a_node8"><a xlink:href="class_c_anoncoin_address.html#ac94ac53d282f9f96f5dd5a4abef8e2b2" target="_top" xlink:title="CAnoncoinAddress::GetKeyID">
<polygon fill="white" stroke="black" points="299,-304.5 299,-323.5 450,-323.5 450,-304.5 299,-304.5"/>
<text text-anchor="middle" x="374.5" y="-311.5" font-family="Helvetica,sans-Serif" font-size="10.00">CAnoncoinAddress::GetKeyID</text>
</a>
</g>
</g>
<!-- Node4&#45;&gt;Node8 -->
<g id="edge7" class="edge"><title>Node4&#45;&gt;Node8</title>
<path fill="none" stroke="midnightblue" d="M247.299,-190.583C252.96,-193.05 258.327,-196.138 263,-200 291.809,-223.811 272.961,-249.187 299,-276 308.995,-286.292 322.374,-294.301 335.035,-300.255"/>
<polygon fill="midnightblue" stroke="midnightblue" points="333.945,-303.599 344.509,-304.411 336.758,-297.189 333.945,-303.599"/>
</g>
<!-- Node11 -->
<g id="node11" class="node"><title>Node11</title>
<g id="a_node11"><a xlink:href="class_c_crypto_key_store.html#abd897aff07ec5679235b14cb4485dc37" target="_top" xlink:title="CCryptoKeyStore::GetPubKey">
<polygon fill="white" stroke="black" points="299,-247.5 299,-266.5 450,-266.5 450,-247.5 299,-247.5"/>
<text text-anchor="middle" x="374.5" y="-254.5" font-family="Helvetica,sans-Serif" font-size="10.00">CCryptoKeyStore::GetPubKey</text>
</a>
</g>
</g>
<!-- Node4&#45;&gt;Node11 -->
<g id="edge12" class="edge"><title>Node4&#45;&gt;Node11</title>
<path fill="none" stroke="midnightblue" d="M241.573,-190.549C249.041,-193.019 256.415,-196.118 263,-200 283.041,-211.815 278.94,-226.218 299,-238 302.69,-240.167 306.625,-242.09 310.684,-243.795"/>
<polygon fill="midnightblue" stroke="midnightblue" points="309.736,-247.177 320.328,-247.392 312.182,-240.618 309.736,-247.177"/>
</g>
<!-- Node16 -->
<g id="node16" class="node"><title>Node16</title>
<g id="a_node16"><a xlink:href="class_c_pub_key.html#a2533ec5fc9a1c3d2ef39d0faa3ad6cdd" target="_top" xlink:title="CPubKey::IsFullyValid">
<polygon fill="white" stroke="black" points="317,-209.5 317,-228.5 432,-228.5 432,-209.5 317,-209.5"/>
<text text-anchor="middle" x="374.5" y="-216.5" font-family="Helvetica,sans-Serif" font-size="10.00">CPubKey::IsFullyValid</text>
</a>
</g>
</g>
<!-- Node4&#45;&gt;Node16 -->
<g id="edge17" class="edge"><title>Node4&#45;&gt;Node16</title>
<path fill="none" stroke="midnightblue" d="M235.931,-190.589C260.649,-195.694 291.239,-202.011 317.292,-207.392"/>
<polygon fill="midnightblue" stroke="midnightblue" points="316.902,-210.885 327.403,-209.48 318.317,-204.03 316.902,-210.885"/>
</g>
<!-- Node20 -->
<g id="node20" class="node"><title>Node20</title>
<g id="a_node20"><a xlink:href="util_8cpp.html#aa4e3553d2b2fe693c106f4296685f75c" target="_top" xlink:title="IsHex">
<polygon fill="white" stroke="black" points="353.5,-171.5 353.5,-190.5 395.5,-190.5 395.5,-171.5 353.5,-171.5"/>
<text text-anchor="middle" x="374.5" y="-178.5" font-family="Helvetica,sans-Serif" font-size="10.00">IsHex</text>
</a>
</g>
</g>
<!-- Node4&#45;&gt;Node20 -->
<g id="edge21" class="edge"><title>Node4&#45;&gt;Node20</title>
<path fill="none" stroke="midnightblue" d="M263.015,-181C290.931,-181 321.216,-181 343.006,-181"/>
<polygon fill="midnightblue" stroke="midnightblue" points="343.271,-184.5 353.271,-181 343.271,-177.5 343.271,-184.5"/>
</g>
<!-- Node22 -->
<g id="node22" class="node"><title>Node22</title>
<g id="a_node22"><a xlink:href="util_8cpp.html#abea395175fbc4a788ed0f0a41710b8a7" target="_top" xlink:title="ParseHex">
<polygon fill="white" stroke="black" points="344.5,-133.5 344.5,-152.5 404.5,-152.5 404.5,-133.5 344.5,-133.5"/>
<text text-anchor="middle" x="374.5" y="-140.5" font-family="Helvetica,sans-Serif" font-size="10.00">ParseHex</text>
</a>
</g>
</g>
<!-- Node4&#45;&gt;Node22 -->
<g id="edge23" class="edge"><title>Node4&#45;&gt;Node22</title>
<path fill="none" stroke="midnightblue" d="M235.931,-171.411C266.273,-165.145 305.461,-157.052 334.246,-151.107"/>
<polygon fill="midnightblue" stroke="midnightblue" points="335.259,-154.471 344.345,-149.021 333.843,-147.616 335.259,-154.471"/>
</g>
<!-- Node23 -->
<g id="node23" class="node"><title>Node23</title>
<g id="a_node23"><a xlink:href="class_c_script.html#a1bb2091fd110a07fabed259b94589227" target="_top" xlink:title="CScript::SetMultisig">
<polygon fill="white" stroke="black" points="322.5,-95.5 322.5,-114.5 426.5,-114.5 426.5,-95.5 322.5,-95.5"/>
<text text-anchor="middle" x="374.5" y="-102.5" font-family="Helvetica,sans-Serif" font-size="10.00">CScript::SetMultisig</text>
</a>
</g>
</g>
<!-- Node4&#45;&gt;Node23 -->
<g id="edge25" class="edge"><title>Node4&#45;&gt;Node23</title>
<path fill="none" stroke="midnightblue" d="M241.573,-171.451C249.041,-168.981 256.415,-165.882 263,-162 283.041,-150.185 278.94,-135.782 299,-124 303.237,-121.511 307.796,-119.346 312.497,-117.461"/>
<polygon fill="midnightblue" stroke="midnightblue" points="314.04,-120.627 322.287,-113.976 311.692,-114.033 314.04,-120.627"/>
</g>
<!-- Node6 -->
<g id="node6" class="node"><title>Node6</title>
<g id="a_node6"><a xlink:href="chainparams_8cpp.html#ace5c5b706d71a324a417dd2db394fd4a" target="_top" xlink:title="Return the currently selected parameters. ">
<polygon fill="white" stroke="black" points="714,-323.5 714,-342.5 765,-342.5 765,-323.5 714,-323.5"/>
<text text-anchor="middle" x="739.5" y="-330.5" font-family="Helvetica,sans-Serif" font-size="10.00">Params</text>
</a>
</g>
</g>
<!-- Node5&#45;&gt;Node6 -->
<g id="edge5" class="edge"><title>Node5&#45;&gt;Node6</title>
<path fill="none" stroke="midnightblue" d="M603.922,-361.411C634.995,-354.851 675.553,-346.289 703.99,-340.285"/>
<polygon fill="midnightblue" stroke="midnightblue" points="704.817,-343.688 713.879,-338.198 703.371,-336.839 704.817,-343.688"/>
</g>
<!-- Node7 -->
<g id="node7" class="node"><title>Node7</title>
<g id="a_node7"><a xlink:href="class_c_chain_params.html#a6088d3a4f45d89c90e7e6117c3c5720d" target="_top" xlink:title="CChainParams::Base58Prefix">
<polygon fill="white" stroke="black" points="665,-361.5 665,-380.5 814,-380.5 814,-361.5 665,-361.5"/>
<text text-anchor="middle" x="739.5" y="-368.5" font-family="Helvetica,sans-Serif" font-size="10.00">CChainParams::Base58Prefix</text>
</a>
</g>
</g>
<!-- Node5&#45;&gt;Node7 -->
<g id="edge6" class="edge"><title>Node5&#45;&gt;Node7</title>
<path fill="none" stroke="midnightblue" d="M626.55,-371C635.762,-371 645.301,-371 654.748,-371"/>
<polygon fill="midnightblue" stroke="midnightblue" points="654.942,-374.5 664.942,-371 654.942,-367.5 654.942,-374.5"/>
</g>
<!-- Node8&#45;&gt;Node5 -->
<g id="edge8" class="edge"><title>Node8&#45;&gt;Node5</title>
<path fill="none" stroke="midnightblue" d="M405.795,-323.541C436.075,-333.076 482.809,-347.794 516.203,-358.31"/>
<polygon fill="midnightblue" stroke="midnightblue" points="515.516,-361.763 526.106,-361.428 517.619,-355.086 515.516,-361.763"/>
</g>
<!-- Node8&#45;&gt;Node6 -->
<g id="edge9" class="edge"><title>Node8&#45;&gt;Node6</title>
<path fill="none" stroke="midnightblue" d="M450.274,-317.914C527.842,-321.974 645.745,-328.145 703.766,-331.182"/>
<polygon fill="midnightblue" stroke="midnightblue" points="703.711,-334.684 713.88,-331.711 704.077,-327.693 703.711,-334.684"/>
</g>
<!-- Node9 -->
<g id="node9" class="node"><title>Node9</title>
<g id="a_node9"><a xlink:href="glibc__compat_8cpp.html#a0f46826ab0466591e136db24394923cf" target="_top" xlink:title="memcpy">
<polygon fill="white" stroke="black" points="530.5,-285.5 530.5,-304.5 584.5,-304.5 584.5,-285.5 530.5,-285.5"/>
<text text-anchor="middle" x="557.5" y="-292.5" font-family="Helvetica,sans-Serif" font-size="10.00">memcpy</text>
</a>
</g>
</g>
<!-- Node8&#45;&gt;Node9 -->
<g id="edge10" class="edge"><title>Node8&#45;&gt;Node9</title>
<path fill="none" stroke="midnightblue" d="M450.165,-306.162C474.379,-303.62 500.154,-300.915 520.263,-298.804"/>
<polygon fill="midnightblue" stroke="midnightblue" points="520.643,-302.283 530.223,-297.758 519.913,-295.322 520.643,-302.283"/>
</g>
<!-- Node10 -->
<g id="node10" class="node"><title>Node10</title>
<g id="a_node10"><a xlink:href="glibc__compat_8cpp.html#a9778d49e9029dd75bc53ecbbf9f5e9a1" target="_top" xlink:title="memmove">
<polygon fill="white" stroke="black" points="708,-285.5 708,-304.5 771,-304.5 771,-285.5 708,-285.5"/>
<text text-anchor="middle" x="739.5" y="-292.5" font-family="Helvetica,sans-Serif" font-size="10.00">memmove</text>
</a>
</g>
</g>
<!-- Node9&#45;&gt;Node10 -->
<g id="edge11" class="edge"><title>Node9&#45;&gt;Node10</title>
<path fill="none" stroke="midnightblue" d="M584.674,-295C614.275,-295 662.857,-295 697.502,-295"/>
<polygon fill="midnightblue" stroke="midnightblue" points="697.77,-298.5 707.77,-295 697.77,-291.5 697.77,-298.5"/>
</g>
<!-- Node12 -->
<g id="node12" class="node"><title>Node12</title>
<g id="a_node12"><a xlink:href="class_c_crypto_key_store.html#a1cb434078a9ea686c0acf168d2c81252" target="_top" xlink:title="CCryptoKeyStore::IsCrypted">
<polygon fill="white" stroke="black" points="486,-247.5 486,-266.5 629,-266.5 629,-247.5 486,-247.5"/>
<text text-anchor="middle" x="557.5" y="-254.5" font-family="Helvetica,sans-Serif" font-size="10.00">CCryptoKeyStore::IsCrypted</text>
</a>
</g>
</g>
<!-- Node11&#45;&gt;Node12 -->
<g id="edge13" class="edge"><title>Node11&#45;&gt;Node12</title>
<path fill="none" stroke="midnightblue" d="M450.165,-257C458.542,-257 467.105,-257 475.557,-257"/>
<polygon fill="midnightblue" stroke="midnightblue" points="475.79,-260.5 485.79,-257 475.79,-253.5 475.79,-260.5"/>
</g>
<!-- Node13 -->
<g id="node13" class="node"><title>Node13</title>
<g id="a_node13"><a xlink:href="class_c_key_store.html#aba866c1e71c129e7ac2d5d1e5223c8a5" target="_top" xlink:title="CKeyStore::GetPubKey">
<polygon fill="white" stroke="black" points="496.5,-209.5 496.5,-228.5 618.5,-228.5 618.5,-209.5 496.5,-209.5"/>
<text text-anchor="middle" x="557.5" y="-216.5" font-family="Helvetica,sans-Serif" font-size="10.00">CKeyStore::GetPubKey</text>
</a>
</g>
</g>
<!-- Node11&#45;&gt;Node13 -->
<g id="edge14" class="edge"><title>Node11&#45;&gt;Node13</title>
<path fill="none" stroke="midnightblue" d="M421.174,-247.411C445.489,-242.306 475.58,-235.989 501.208,-230.608"/>
<polygon fill="midnightblue" stroke="midnightblue" points="502.087,-234 511.154,-228.52 500.649,-227.149 502.087,-234"/>
</g>
<!-- Node14 -->
<g id="node14" class="node"><title>Node14</title>
<g id="a_node14"><a xlink:href="class_c_key_store.html#a2dffca468fef2e5da2e42a7c983d968a" target="_top" xlink:title="CKeyStore::GetKey">
<polygon fill="white" stroke="black" points="687.5,-247.5 687.5,-266.5 791.5,-266.5 791.5,-247.5 687.5,-247.5"/>
<text text-anchor="middle" x="739.5" y="-254.5" font-family="Helvetica,sans-Serif" font-size="10.00">CKeyStore::GetKey</text>
</a>
</g>
</g>
<!-- Node13&#45;&gt;Node14 -->
<g id="edge15" class="edge"><title>Node13&#45;&gt;Node14</title>
<path fill="none" stroke="midnightblue" d="M603.922,-228.589C628.103,-233.694 658.027,-240.011 683.514,-245.392"/>
<polygon fill="midnightblue" stroke="midnightblue" points="682.898,-248.839 693.405,-247.48 684.344,-241.99 682.898,-248.839"/>
</g>
<!-- Node15 -->
<g id="node15" class="node"><title>Node15</title>
<g id="a_node15"><a xlink:href="class_c_key.html#ae4b61da6ec62f676fe6362ac5fc26aca" target="_top" xlink:title="CKey::GetPubKey">
<polygon fill="white" stroke="black" points="690.5,-209.5 690.5,-228.5 788.5,-228.5 788.5,-209.5 690.5,-209.5"/>
<text text-anchor="middle" x="739.5" y="-216.5" font-family="Helvetica,sans-Serif" font-size="10.00">CKey::GetPubKey</text>
</a>
</g>
</g>
<!-- Node13&#45;&gt;Node15 -->
<g id="edge16" class="edge"><title>Node13&#45;&gt;Node15</title>
<path fill="none" stroke="midnightblue" d="M618.688,-219C638.531,-219 660.554,-219 680.249,-219"/>
<polygon fill="midnightblue" stroke="midnightblue" points="680.313,-222.5 690.313,-219 680.313,-215.5 680.313,-222.5"/>
</g>
<!-- Node17 -->
<g id="node17" class="node"><title>Node17</title>
<g id="a_node17"><a xlink:href="class_c_pub_key.html#aad6f369d7972f2244466ca6db900c2a4" target="_top" xlink:title="CPubKey::IsValid">
<polygon fill="white" stroke="black" points="510.5,-171.5 510.5,-190.5 604.5,-190.5 604.5,-171.5 510.5,-171.5"/>
<text text-anchor="middle" x="557.5" y="-178.5" font-family="Helvetica,sans-Serif" font-size="10.00">CPubKey::IsValid</text>
</a>
</g>
</g>
<!-- Node16&#45;&gt;Node17 -->
<g id="edge18" class="edge"><title>Node16&#45;&gt;Node17</title>
<path fill="none" stroke="midnightblue" d="M421.174,-209.411C445.489,-204.306 475.58,-197.989 501.208,-192.608"/>
<polygon fill="midnightblue" stroke="midnightblue" points="502.087,-196 511.154,-190.52 500.649,-189.149 502.087,-196"/>
</g>
<!-- Node18 -->
<g id="node18" class="node"><title>Node18</title>
<g id="a_node18"><a xlink:href="class_c_pub_key.html#a9d7129b65b6dee792b4f3923cd64ed59" target="_top" xlink:title="CPubKey::size">
<polygon fill="white" stroke="black" points="698.5,-171.5 698.5,-190.5 780.5,-190.5 780.5,-171.5 698.5,-171.5"/>
<text text-anchor="middle" x="739.5" y="-178.5" font-family="Helvetica,sans-Serif" font-size="10.00">CPubKey::size</text>
</a>
</g>
</g>
<!-- Node17&#45;&gt;Node18 -->
<g id="edge19" class="edge"><title>Node17&#45;&gt;Node18</title>
<path fill="none" stroke="midnightblue" d="M604.854,-181C630.419,-181 662.183,-181 688.328,-181"/>
<polygon fill="midnightblue" stroke="midnightblue" points="688.416,-184.5 698.416,-181 688.416,-177.5 688.416,-184.5"/>
</g>
<!-- Node19 -->
<g id="node19" class="node"><title>Node19</title>
<g id="a_node19"><a xlink:href="class_c_pub_key.html#a7dc71b3f037c84268dc22de97d7b65fb" target="_top" xlink:title="CPubKey::GetLen">
<polygon fill="white" stroke="black" points="850,-171.5 850,-190.5 947,-190.5 947,-171.5 850,-171.5"/>
<text text-anchor="middle" x="898.5" y="-178.5" font-family="Helvetica,sans-Serif" font-size="10.00">CPubKey::GetLen</text>
</a>
</g>
</g>
<!-- Node18&#45;&gt;Node19 -->
<g id="edge20" class="edge"><title>Node18&#45;&gt;Node19</title>
<path fill="none" stroke="midnightblue" d="M780.524,-181C798.473,-181 819.986,-181 839.642,-181"/>
<polygon fill="midnightblue" stroke="midnightblue" points="839.722,-184.5 849.722,-181 839.722,-177.5 839.722,-184.5"/>
</g>
<!-- Node21 -->
<g id="node21" class="node"><title>Node21</title>
<g id="a_node21"><a xlink:href="uint256_8h.html#aa59e8a8c5a39cb5041f93bb95dd02119" target="_top" xlink:title="HexDigit">
<polygon fill="white" stroke="black" points="530.5,-133.5 530.5,-152.5 584.5,-152.5 584.5,-133.5 530.5,-133.5"/>
<text text-anchor="middle" x="557.5" y="-140.5" font-family="Helvetica,sans-Serif" font-size="10.00">HexDigit</text>
</a>
</g>
</g>
<!-- Node20&#45;&gt;Node21 -->
<g id="edge22" class="edge"><title>Node20&#45;&gt;Node21</title>
<path fill="none" stroke="midnightblue" d="M395.562,-176.788C425.597,-170.482 482.721,-158.49 520.204,-150.62"/>
<polygon fill="midnightblue" stroke="midnightblue" points="521.148,-153.998 530.216,-148.518 519.71,-147.148 521.148,-153.998"/>
</g>
<!-- Node22&#45;&gt;Node21 -->
<g id="edge24" class="edge"><title>Node22&#45;&gt;Node21</title>
<path fill="none" stroke="midnightblue" d="M404.581,-143C435.961,-143 485.994,-143 519.996,-143"/>
<polygon fill="midnightblue" stroke="midnightblue" points="520.429,-146.5 530.429,-143 520.429,-139.5 520.429,-146.5"/>
</g>
<!-- Node25 -->
<g id="node25" class="node"><title>Node25</title>
<g id="a_node25"><a xlink:href="hash_8h.html#a4490f70ddae16e9e48460a0416a48a6b" target="_top" xlink:title="Hash160">
<polygon fill="white" stroke="black" points="346,-57.5 346,-76.5 403,-76.5 403,-57.5 346,-57.5"/>
<text text-anchor="middle" x="374.5" y="-64.5" font-family="Helvetica,sans-Serif" font-size="10.00">Hash160</text>
</a>
</g>
</g>
<!-- Node24&#45;&gt;Node25 -->
<g id="edge27" class="edge"><title>Node24&#45;&gt;Node25</title>
<path fill="none" stroke="midnightblue" d="M229.245,-136.993C240.664,-134.161 252.782,-130.024 263,-124 283.041,-112.185 278.94,-97.7823 299,-86 310.15,-79.4511 323.53,-75.1379 335.855,-72.306"/>
<polygon fill="midnightblue" stroke="midnightblue" points="336.789,-75.6876 345.888,-70.2592 335.39,-68.8288 336.789,-75.6876"/>
</g>
<!-- Node27 -->
<g id="node27" class="node"><title>Node27</title>
<g id="a_node27"><a xlink:href="base58_8cpp.html#ace9a5807ee51604f33044339f073ec76" target="_top" xlink:title="Encode a byte vector into a base58&#45;encoded string, including checksum. ">
<polygon fill="white" stroke="black" points="318,-19.5 318,-38.5 431,-38.5 431,-19.5 318,-19.5"/>
<text text-anchor="middle" x="374.5" y="-26.5" font-family="Helvetica,sans-Serif" font-size="10.00">EncodeBase58Check</text>
</a>
</g>
</g>
<!-- Node26&#45;&gt;Node27 -->
<g id="edge29" class="edge"><title>Node26&#45;&gt;Node27</title>
<path fill="none" stroke="midnightblue" d="M241.573,-95.451C249.041,-92.9806 256.415,-89.8822 263,-86 283.041,-74.185 278.94,-59.7823 299,-48 302.69,-45.8325 306.625,-43.91 310.684,-42.2049"/>
<polygon fill="midnightblue" stroke="midnightblue" points="312.182,-45.3821 320.328,-38.6085 309.736,-38.8234 312.182,-45.3821"/>
</g>
<!-- Node28 -->
<g id="node28" class="node"><title>Node28</title>
<g id="a_node28"><a xlink:href="hash_8h.html#ab3f6c437460137530d86e09c2c102e99" target="_top" xlink:title="Hash">
<polygon fill="white" stroke="black" points="537.5,-38.5 537.5,-57.5 577.5,-57.5 577.5,-38.5 537.5,-38.5"/>
<text text-anchor="middle" x="557.5" y="-45.5" font-family="Helvetica,sans-Serif" font-size="10.00">Hash</text>
</a>
</g>
</g>
<!-- Node27&#45;&gt;Node28 -->
<g id="edge30" class="edge"><title>Node27&#45;&gt;Node28</title>
<path fill="none" stroke="midnightblue" d="M431.283,-34.8557C462.912,-38.1758 501.209,-42.1959 527.055,-44.9091"/>
<polygon fill="midnightblue" stroke="midnightblue" points="527.004,-48.4229 537.315,-45.9861 527.735,-41.4611 527.004,-48.4229"/>
</g>
<!-- Node29 -->
<g id="node29" class="node"><title>Node29</title>
<g id="a_node29"><a xlink:href="base58_8cpp.html#a8d6f0e9d5df175b4966dcede31dc90ad" target="_top" xlink:title="Encode a byte sequence as a base58&#45;encoded string. ">
<polygon fill="white" stroke="black" points="515.5,-0.5 515.5,-19.5 599.5,-19.5 599.5,-0.5 515.5,-0.5"/>
<text text-anchor="middle" x="557.5" y="-7.5" font-family="Helvetica,sans-Serif" font-size="10.00">EncodeBase58</text>
</a>
</g>
</g>
<!-- Node27&#45;&gt;Node29 -->
<g id="edge31" class="edge"><title>Node27&#45;&gt;Node29</title>
<path fill="none" stroke="midnightblue" d="M431.283,-23.1443C454.899,-20.6653 482.232,-17.7961 505.324,-15.372"/>
<polygon fill="midnightblue" stroke="midnightblue" points="505.692,-18.8528 515.272,-14.3278 504.961,-11.891 505.692,-18.8528"/>
</g>
</g>
</svg>
