<?xml version="1.0" encoding="UTF-8" standalone="no"?>
<!DOCTYPE svg PUBLIC "-//W3C//DTD SVG 1.1//EN"
 "http://www.w3.org/Graphics/SVG/1.1/DTD/svg11.dtd">
<!-- Generated by graphviz version 2.38.0 (20140413.2041)
 -->
<!-- Title: ping Pages: 1 -->
<svg width="173pt" height="66pt"
 viewBox="0.00 0.00 173.00 66.00" xmlns="http://www.w3.org/2000/svg" xmlns:xlink="http://www.w3.org/1999/xlink">
<g id="graph0" class="graph" transform="scale(1 1) rotate(0) translate(4 62)">
<title>ping</title>
<polygon fill="white" stroke="none" points="-4,4 -4,-62 169,-62 169,4 -4,4"/>
<!-- Node1 -->
<g id="node1" class="node"><title>Node1</title>
<polygon fill="#bfbfbf" stroke="black" points="0,-19.5 0,-38.5 35,-38.5 35,-19.5 0,-19.5"/>
<text text-anchor="middle" x="17.5" y="-26.5" font-family="Helvetica,sans-Serif" font-size="10.00">ping</text>
</g>
<!-- Node2 -->
<g id="node2" class="node"><title>Node2</title>
<g id="a_node2"><a xlink:href="rpcserver_8cpp.html#ac01ac6eab5467567ed0da106814e04ec" target="_top" xlink:title="HelpExampleCli">
<polygon fill="white" stroke="black" points="74,-38.5 74,-57.5 162,-57.5 162,-38.5 74,-38.5"/>
<text text-anchor="middle" x="118" y="-45.5" font-family="Helvetica,sans-Serif" font-size="10.00">HelpExampleCli</text>
</a>
</g>
</g>
<!-- Node1&#45;&gt;Node2 -->
<g id="edge1" class="edge"><title>Node1&#45;&gt;Node2</title>
<path fill="none" stroke="midnightblue" d="M35.2092,-32.2231C43.2785,-33.7796 53.4574,-35.7431 63.869,-37.7514"/>
<polygon fill="midnightblue" stroke="midnightblue" points="63.3795,-41.2214 73.8614,-39.6788 64.7053,-34.3481 63.3795,-41.2214"/>
</g>
<!-- Node3 -->
<g id="node3" class="node"><title>Node3</title>
<g id="a_node3"><a xlink:href="rpcserver_8cpp.html#a06ea60e24e5a1053a14a11b1009bf9ef" target="_top" xlink:title="HelpExampleRpc">
<polygon fill="white" stroke="black" points="71,-0.5 71,-19.5 165,-19.5 165,-0.5 71,-0.5"/>
<text text-anchor="middle" x="118" y="-7.5" font-family="Helvetica,sans-Serif" font-size="10.00">HelpExampleRpc</text>
</a>
</g>
</g>
<!-- Node1&#45;&gt;Node3 -->
<g id="edge2" class="edge"><title>Node1&#45;&gt;Node3</title>
<path fill="none" stroke="midnightblue" d="M35.2092,-25.7769C42.5418,-24.3625 51.6164,-22.6121 61.0247,-20.7973"/>
<polygon fill="midnightblue" stroke="midnightblue" points="61.7348,-24.2249 70.8909,-18.8941 60.4089,-17.3516 61.7348,-24.2249"/>
</g>
</g>
</svg>
