<?xml version="1.0" encoding="UTF-8" standalone="no"?>
<!DOCTYPE svg PUBLIC "-//W3C//DTD SVG 1.1//EN"
 "http://www.w3.org/Graphics/SVG/1.1/DTD/svg11.dtd">
<!-- Generated by graphviz version 2.38.0 (20140413.2041)
 -->
<!-- Title: HTTPPost Pages: 1 -->
<svg width="328pt" height="28pt"
 viewBox="0.00 0.00 328.00 28.00" xmlns="http://www.w3.org/2000/svg" xmlns:xlink="http://www.w3.org/1999/xlink">
<g id="graph0" class="graph" transform="scale(1 1) rotate(0) translate(4 24)">
<title>HTTPPost</title>
<polygon fill="white" stroke="none" points="-4,4 -4,-24 324,-24 324,4 -4,4"/>
<!-- Node1 -->
<g id="node1" class="node"><title>Node1</title>
<polygon fill="#bfbfbf" stroke="black" points="0,-0.5 0,-19.5 63,-19.5 63,-0.5 0,-0.5"/>
<text text-anchor="middle" x="31.5" y="-7.5" font-family="Helvetica,sans-Serif" font-size="10.00">HTTPPost</text>
</g>
<!-- Node2 -->
<g id="node2" class="node"><title>Node2</title>
<g id="a_node2"><a xlink:href="clientversion_8cpp.html#ac3e3098552063f228d9deac38a8b9848" target="_top" xlink:title="FormatFullVersion">
<polygon fill="white" stroke="black" points="99,-0.5 99,-19.5 197,-19.5 197,-0.5 99,-0.5"/>
<text text-anchor="middle" x="148" y="-7.5" font-family="Helvetica,sans-Serif" font-size="10.00">FormatFullVersion</text>
</a>
</g>
</g>
<!-- Node1&#45;&gt;Node2 -->
<g id="edge1" class="edge"><title>Node1&#45;&gt;Node2</title>
<path fill="none" stroke="midnightblue" d="M63.1839,-10C71.1734,-10 80.0498,-10 88.952,-10"/>
<polygon fill="midnightblue" stroke="midnightblue" points="88.9679,-13.5001 98.9679,-10 88.9678,-6.5001 88.9679,-13.5001"/>
</g>
<!-- Node3 -->
<g id="node3" class="node"><title>Node3</title>
<g id="a_node3"><a xlink:href="clientversion_8cpp.html#aff087070aeaa72e85b2d1a6192af8af5" target="_top" xlink:title="CLIENT_BUILD">
<polygon fill="white" stroke="black" points="233,-0.5 233,-19.5 320,-19.5 320,-0.5 233,-0.5"/>
<text text-anchor="middle" x="276.5" y="-7.5" font-family="Helvetica,sans-Serif" font-size="10.00">CLIENT_BUILD</text>
</a>
</g>
</g>
<!-- Node2&#45;&gt;Node3 -->
<g id="edge2" class="edge"><title>Node2&#45;&gt;Node3</title>
<path fill="none" stroke="midnightblue" d="M197.185,-10C205.524,-10 214.235,-10 222.689,-10"/>
<polygon fill="midnightblue" stroke="midnightblue" points="222.833,-13.5001 232.833,-10 222.833,-6.5001 222.833,-13.5001"/>
</g>
</g>
</svg>
