<?xml version="1.0" encoding="UTF-8" standalone="no"?>
<!DOCTYPE svg PUBLIC "-//W3C//DTD SVG 1.1//EN"
 "http://www.w3.org/Graphics/SVG/1.1/DTD/svg11.dtd">
<!-- Generated by graphviz version 2.38.0 (20140413.2041)
 -->
<!-- Title: src/rpcprotocol.h Pages: 1 -->
<svg width="1363pt" height="140pt"
 viewBox="0.00 0.00 1362.50 140.00" xmlns="http://www.w3.org/2000/svg" xmlns:xlink="http://www.w3.org/1999/xlink">
<g id="graph0" class="graph" transform="scale(1 1) rotate(0) translate(4 136)">
<title>src/rpcprotocol.h</title>
<polygon fill="white" stroke="none" points="-4,4 -4,-136 1358.5,-136 1358.5,4 -4,4"/>
<!-- Node1 -->
<g id="node1" class="node"><title>Node1</title>
<polygon fill="#bfbfbf" stroke="black" points="687,-112.5 687,-131.5 777,-131.5 777,-112.5 687,-112.5"/>
<text text-anchor="middle" x="732" y="-119.5" font-family="Helvetica,sans-Serif" font-size="10.00">src/rpcprotocol.h</text>
</g>
<!-- Node2 -->
<g id="node2" class="node"><title>Node2</title>
<g id="a_node2"><a xlink:href="anoncoin-cli_8cpp.html" target="_top" xlink:title="src/anoncoin&#45;cli.cpp">
<polygon fill="white" stroke="black" points="515.5,-56.5 515.5,-75.5 620.5,-75.5 620.5,-56.5 515.5,-56.5"/>
<text text-anchor="middle" x="568" y="-63.5" font-family="Helvetica,sans-Serif" font-size="10.00">src/anoncoin&#45;cli.cpp</text>
</a>
</g>
</g>
<!-- Node1&#45;&gt;Node2 -->
<g id="edge1" class="edge"><title>Node1&#45;&gt;Node2</title>
<path fill="none" stroke="midnightblue" d="M696.48,-109.304C665.578,-99.1294 621.527,-84.6246 593.865,-75.5164"/>
<polygon fill="midnightblue" stroke="midnightblue" points="695.421,-112.64 706.014,-112.444 697.61,-105.992 695.421,-112.64"/>
</g>
<!-- Node3 -->
<g id="node3" class="node"><title>Node3</title>
<g id="a_node3"><a xlink:href="rpcserver_8h.html" target="_top" xlink:title="src/rpcserver.h">
<polygon fill="white" stroke="black" points="638.5,-56.5 638.5,-75.5 721.5,-75.5 721.5,-56.5 638.5,-56.5"/>
<text text-anchor="middle" x="680" y="-63.5" font-family="Helvetica,sans-Serif" font-size="10.00">src/rpcserver.h</text>
</a>
</g>
</g>
<!-- Node1&#45;&gt;Node3 -->
<g id="edge2" class="edge"><title>Node1&#45;&gt;Node3</title>
<path fill="none" stroke="midnightblue" d="M716.321,-104.718C707.155,-95.1997 695.947,-83.5608 688.427,-75.7511"/>
<polygon fill="midnightblue" stroke="midnightblue" points="713.956,-107.308 723.413,-112.083 718.998,-102.452 713.956,-107.308"/>
</g>
<!-- Node16 -->
<g id="node16" class="node"><title>Node16</title>
<g id="a_node16"><a xlink:href="rpcclient_8cpp.html" target="_top" xlink:title="src/rpcclient.cpp">
<polygon fill="white" stroke="black" points="739.5,-56.5 739.5,-75.5 828.5,-75.5 828.5,-56.5 739.5,-56.5"/>
<text text-anchor="middle" x="784" y="-63.5" font-family="Helvetica,sans-Serif" font-size="10.00">src/rpcclient.cpp</text>
</a>
</g>
</g>
<!-- Node1&#45;&gt;Node16 -->
<g id="edge15" class="edge"><title>Node1&#45;&gt;Node16</title>
<path fill="none" stroke="midnightblue" d="M747.679,-104.718C756.845,-95.1997 768.053,-83.5608 775.573,-75.7511"/>
<polygon fill="midnightblue" stroke="midnightblue" points="745.002,-102.452 740.587,-112.083 750.044,-107.308 745.002,-102.452"/>
</g>
<!-- Node17 -->
<g id="node17" class="node"><title>Node17</title>
<g id="a_node17"><a xlink:href="rpcprotocol_8cpp.html" target="_top" xlink:title="src/rpcprotocol.cpp">
<polygon fill="white" stroke="black" points="846.5,-56.5 846.5,-75.5 947.5,-75.5 947.5,-56.5 846.5,-56.5"/>
<text text-anchor="middle" x="897" y="-63.5" font-family="Helvetica,sans-Serif" font-size="10.00">src/rpcprotocol.cpp</text>
</a>
</g>
</g>
<!-- Node1&#45;&gt;Node17 -->
<g id="edge16" class="edge"><title>Node1&#45;&gt;Node17</title>
<path fill="none" stroke="midnightblue" d="M767.736,-109.304C798.827,-99.1294 843.147,-84.6246 870.978,-75.5164"/>
<polygon fill="midnightblue" stroke="midnightblue" points="766.56,-106.007 758.145,-112.444 768.737,-112.659 766.56,-106.007"/>
</g>
<!-- Node4 -->
<g id="node4" class="node"><title>Node4</title>
<g id="a_node4"><a xlink:href="anoncoind_8cpp.html" target="_top" xlink:title="src/anoncoind.cpp">
<polygon fill="white" stroke="black" points="0,-0.5 0,-19.5 98,-19.5 98,-0.5 0,-0.5"/>
<text text-anchor="middle" x="49" y="-7.5" font-family="Helvetica,sans-Serif" font-size="10.00">src/anoncoind.cpp</text>
</a>
</g>
</g>
<!-- Node3&#45;&gt;Node4 -->
<g id="edge3" class="edge"><title>Node3&#45;&gt;Node4</title>
<path fill="none" stroke="midnightblue" d="M628.212,-56.0462C396.436,-28.2573 334.837,-45.4867 107,-20 104.063,-19.6715 101.048,-19.3019 98.0085,-18.9048"/>
<polygon fill="midnightblue" stroke="midnightblue" points="627.956,-59.5408 638.305,-57.2718 628.8,-52.5919 627.956,-59.5408"/>
</g>
<!-- Node5 -->
<g id="node5" class="node"><title>Node5</title>
<g id="a_node5"><a xlink:href="init_8cpp.html" target="_top" xlink:title="src/init.cpp">
<polygon fill="white" stroke="black" points="116,-0.5 116,-19.5 180,-19.5 180,-0.5 116,-0.5"/>
<text text-anchor="middle" x="148" y="-7.5" font-family="Helvetica,sans-Serif" font-size="10.00">src/init.cpp</text>
</a>
</g>
</g>
<!-- Node3&#45;&gt;Node5 -->
<g id="edge4" class="edge"><title>Node3&#45;&gt;Node5</title>
<path fill="none" stroke="midnightblue" d="M628.269,-56.0375C432.655,-31.5142 379.818,-48.6169 189,-20 186.117,-19.5677 183.134,-19.0507 180.153,-18.4861"/>
<polygon fill="midnightblue" stroke="midnightblue" points="627.938,-59.5234 638.3,-57.3155 628.822,-52.5796 627.938,-59.5234"/>
</g>
<!-- Node6 -->
<g id="node6" class="node"><title>Node6</title>
<g id="a_node6"><a xlink:href="anoncoin_8cpp.html" target="_top" xlink:title="src/qt/anoncoin.cpp">
<polygon fill="white" stroke="black" points="198.5,-0.5 198.5,-19.5 301.5,-19.5 301.5,-0.5 198.5,-0.5"/>
<text text-anchor="middle" x="250" y="-7.5" font-family="Helvetica,sans-Serif" font-size="10.00">src/qt/anoncoin.cpp</text>
</a>
</g>
</g>
<!-- Node3&#45;&gt;Node6 -->
<g id="edge5" class="edge"><title>Node3&#45;&gt;Node6</title>
<path fill="none" stroke="midnightblue" d="M628.315,-55.9867C486.104,-35.716 448.285,-38.1681 310,-20 307.285,-19.6433 304.502,-19.2661 301.694,-18.8765"/>
<polygon fill="midnightblue" stroke="midnightblue" points="627.889,-59.4614 638.285,-57.4205 628.886,-52.5327 627.889,-59.4614"/>
</g>
<!-- Node7 -->
<g id="node7" class="node"><title>Node7</title>
<g id="a_node7"><a xlink:href="rpcconsole_8cpp.html" target="_top" xlink:title="src/qt/rpcconsole.cpp">
<polygon fill="white" stroke="black" points="319.5,-0.5 319.5,-19.5 430.5,-19.5 430.5,-0.5 319.5,-0.5"/>
<text text-anchor="middle" x="375" y="-7.5" font-family="Helvetica,sans-Serif" font-size="10.00">src/qt/rpcconsole.cpp</text>
</a>
</g>
</g>
<!-- Node3&#45;&gt;Node7 -->
<g id="edge6" class="edge"><title>Node3&#45;&gt;Node7</title>
<path fill="none" stroke="midnightblue" d="M628.276,-55.8424C570.857,-45.6763 478.928,-29.4004 423.038,-19.5052"/>
<polygon fill="midnightblue" stroke="midnightblue" points="627.773,-59.3077 638.231,-57.6048 628.994,-52.4149 627.773,-59.3077"/>
</g>
<!-- Node8 -->
<g id="node8" class="node"><title>Node8</title>
<g id="a_node8"><a xlink:href="rpcblockchain_8cpp.html" target="_top" xlink:title="src/rpcblockchain.cpp">
<polygon fill="white" stroke="black" points="448.5,-0.5 448.5,-19.5 561.5,-19.5 561.5,-0.5 448.5,-0.5"/>
<text text-anchor="middle" x="505" y="-7.5" font-family="Helvetica,sans-Serif" font-size="10.00">src/rpcblockchain.cpp</text>
</a>
</g>
</g>
<!-- Node3&#45;&gt;Node8 -->
<g id="edge7" class="edge"><title>Node3&#45;&gt;Node8</title>
<path fill="none" stroke="midnightblue" d="M642.525,-53.4363C609.53,-43.2551 562.244,-28.664 532.6,-19.5164"/>
<polygon fill="midnightblue" stroke="midnightblue" points="641.683,-56.8393 652.271,-56.4435 643.747,-50.1505 641.683,-56.8393"/>
</g>
<!-- Node9 -->
<g id="node9" class="node"><title>Node9</title>
<g id="a_node9"><a xlink:href="rpcdump_8cpp.html" target="_top" xlink:title="src/rpcdump.cpp">
<polygon fill="white" stroke="black" points="580,-0.5 580,-19.5 670,-19.5 670,-0.5 580,-0.5"/>
<text text-anchor="middle" x="625" y="-7.5" font-family="Helvetica,sans-Serif" font-size="10.00">src/rpcdump.cpp</text>
</a>
</g>
</g>
<!-- Node3&#45;&gt;Node9 -->
<g id="edge8" class="edge"><title>Node3&#45;&gt;Node9</title>
<path fill="none" stroke="midnightblue" d="M663.706,-49.0024C653.959,-39.4329 641.947,-27.6389 633.913,-19.7511"/>
<polygon fill="midnightblue" stroke="midnightblue" points="661.33,-51.5746 670.918,-56.083 666.234,-46.5796 661.33,-51.5746"/>
</g>
<!-- Node10 -->
<g id="node10" class="node"><title>Node10</title>
<g id="a_node10"><a xlink:href="rpcmining_8cpp.html" target="_top" xlink:title="src/rpcmining.cpp">
<polygon fill="white" stroke="black" points="688.5,-0.5 688.5,-19.5 783.5,-19.5 783.5,-0.5 688.5,-0.5"/>
<text text-anchor="middle" x="736" y="-7.5" font-family="Helvetica,sans-Serif" font-size="10.00">src/rpcmining.cpp</text>
</a>
</g>
</g>
<!-- Node3&#45;&gt;Node10 -->
<g id="edge9" class="edge"><title>Node3&#45;&gt;Node10</title>
<path fill="none" stroke="midnightblue" d="M696.33,-49.2533C706.265,-39.6731 718.588,-27.7906 726.839,-19.8339"/>
<polygon fill="midnightblue" stroke="midnightblue" points="693.766,-46.8631 688.997,-56.324 698.625,-51.902 693.766,-46.8631"/>
</g>
<!-- Node11 -->
<g id="node11" class="node"><title>Node11</title>
<g id="a_node11"><a xlink:href="rpcmisc_8cpp.html" target="_top" xlink:title="src/rpcmisc.cpp">
<polygon fill="white" stroke="black" points="802,-0.5 802,-19.5 888,-19.5 888,-0.5 802,-0.5"/>
<text text-anchor="middle" x="845" y="-7.5" font-family="Helvetica,sans-Serif" font-size="10.00">src/rpcmisc.cpp</text>
</a>
</g>
</g>
<!-- Node3&#45;&gt;Node11 -->
<g id="edge10" class="edge"><title>Node3&#45;&gt;Node11</title>
<path fill="none" stroke="midnightblue" d="M715.736,-53.3044C746.827,-43.1294 791.147,-28.6246 818.978,-19.5164"/>
<polygon fill="midnightblue" stroke="midnightblue" points="714.56,-50.0067 706.145,-56.4435 716.737,-56.6595 714.56,-50.0067"/>
</g>
<!-- Node12 -->
<g id="node12" class="node"><title>Node12</title>
<g id="a_node12"><a xlink:href="rpcnet_8cpp.html" target="_top" xlink:title="src/rpcnet.cpp">
<polygon fill="white" stroke="black" points="906.5,-0.5 906.5,-19.5 985.5,-19.5 985.5,-0.5 906.5,-0.5"/>
<text text-anchor="middle" x="946" y="-7.5" font-family="Helvetica,sans-Serif" font-size="10.00">src/rpcnet.cpp</text>
</a>
</g>
</g>
<!-- Node3&#45;&gt;Node12 -->
<g id="edge11" class="edge"><title>Node3&#45;&gt;Node12</title>
<path fill="none" stroke="midnightblue" d="M731.425,-54.5603C782.573,-44.177 859.943,-28.4702 906.464,-19.026"/>
<polygon fill="midnightblue" stroke="midnightblue" points="730.666,-51.1429 721.562,-56.5625 732.059,-58.003 730.666,-51.1429"/>
</g>
<!-- Node13 -->
<g id="node13" class="node"><title>Node13</title>
<g id="a_node13"><a xlink:href="rpcrawtransaction_8cpp.html" target="_top" xlink:title="src/rpcrawtransaction.cpp">
<polygon fill="white" stroke="black" points="1004,-0.5 1004,-19.5 1134,-19.5 1134,-0.5 1004,-0.5"/>
<text text-anchor="middle" x="1069" y="-7.5" font-family="Helvetica,sans-Serif" font-size="10.00">src/rpcrawtransaction.cpp</text>
</a>
</g>
</g>
<!-- Node3&#45;&gt;Node13 -->
<g id="edge12" class="edge"><title>Node3&#45;&gt;Node13</title>
<path fill="none" stroke="midnightblue" d="M731.914,-55.9318C796.603,-46.2044 925.319,-29.4478 1003.92,-19.3313"/>
<polygon fill="midnightblue" stroke="midnightblue" points="731.081,-52.5183 721.725,-57.4887 732.139,-59.4379 731.081,-52.5183"/>
</g>
<!-- Node14 -->
<g id="node14" class="node"><title>Node14</title>
<g id="a_node14"><a xlink:href="rpcserver_8cpp.html" target="_top" xlink:title="src/rpcserver.cpp">
<polygon fill="white" stroke="black" points="1152.5,-0.5 1152.5,-19.5 1245.5,-19.5 1245.5,-0.5 1152.5,-0.5"/>
<text text-anchor="middle" x="1199" y="-7.5" font-family="Helvetica,sans-Serif" font-size="10.00">src/rpcserver.cpp</text>
</a>
</g>
</g>
<!-- Node3&#45;&gt;Node14 -->
<g id="edge13" class="edge"><title>Node3&#45;&gt;Node14</title>
<path fill="none" stroke="midnightblue" d="M731.671,-56.0316C914.942,-32.3675 963.792,-42.2007 1143,-20 1146.03,-19.6247 1149.15,-19.2083 1152.29,-18.7663"/>
<polygon fill="midnightblue" stroke="midnightblue" points="731.165,-52.5679 721.703,-57.3344 732.072,-59.5089 731.165,-52.5679"/>
</g>
<!-- Node15 -->
<g id="node15" class="node"><title>Node15</title>
<g id="a_node15"><a xlink:href="rpcwallet_8cpp.html" target="_top" xlink:title="src/rpcwallet.cpp">
<polygon fill="white" stroke="black" points="1263.5,-0.5 1263.5,-19.5 1354.5,-19.5 1354.5,-0.5 1263.5,-0.5"/>
<text text-anchor="middle" x="1309" y="-7.5" font-family="Helvetica,sans-Serif" font-size="10.00">src/rpcwallet.cpp</text>
</a>
</g>
</g>
<!-- Node3&#45;&gt;Node15 -->
<g id="edge14" class="edge"><title>Node3&#45;&gt;Node15</title>
<path fill="none" stroke="midnightblue" d="M731.826,-56.043C964.459,-28.2202 1026.44,-46.8347 1255,-20 1257.74,-19.6786 1260.55,-19.3145 1263.38,-18.9216"/>
<polygon fill="midnightblue" stroke="midnightblue" points="731.201,-52.593 721.695,-57.2709 732.043,-59.5421 731.201,-52.593"/>
</g>
</g>
</svg>
