<?xml version="1.0" encoding="UTF-8" standalone="no"?>
<!DOCTYPE svg PUBLIC "-//W3C//DTD SVG 1.1//EN"
 "http://www.w3.org/Graphics/SVG/1.1/DTD/svg11.dtd">
<!-- Generated by graphviz version 2.38.0 (20140413.2041)
 -->
<!-- Title: ScriptPubKeyToJSON Pages: 1 -->
<svg width="382pt" height="104pt"
 viewBox="0.00 0.00 382.00 104.00" xmlns="http://www.w3.org/2000/svg" xmlns:xlink="http://www.w3.org/1999/xlink">
<g id="graph0" class="graph" transform="scale(1 1) rotate(0) translate(4 100)">
<title>ScriptPubKeyToJSON</title>
<polygon fill="white" stroke="none" points="-4,4 -4,-100 378,-100 378,4 -4,4"/>
<!-- Node1 -->
<g id="node1" class="node"><title>Node1</title>
<polygon fill="#bfbfbf" stroke="black" points="0,-38.5 0,-57.5 115,-57.5 115,-38.5 0,-38.5"/>
<text text-anchor="middle" x="57.5" y="-45.5" font-family="Helvetica,sans-Serif" font-size="10.00">ScriptPubKeyToJSON</text>
</g>
<!-- Node2 -->
<g id="node2" class="node"><title>Node2</title>
<g id="a_node2"><a xlink:href="rpcblockchain_8cpp.html#a1982f7877ed6e83102671c67c4ec6450" target="_top" xlink:title="gettxout">
<polygon fill="white" stroke="black" points="161.5,-76.5 161.5,-95.5 213.5,-95.5 213.5,-76.5 161.5,-76.5"/>
<text text-anchor="middle" x="187.5" y="-83.5" font-family="Helvetica,sans-Serif" font-size="10.00">gettxout</text>
</a>
</g>
</g>
<!-- Node1&#45;&gt;Node2 -->
<g id="edge1" class="edge"><title>Node1&#45;&gt;Node2</title>
<path fill="none" stroke="midnightblue" d="M100.4,-60.4391C120.589,-66.4326 144.122,-73.4191 161.478,-78.5717"/>
<polygon fill="midnightblue" stroke="midnightblue" points="101.382,-57.0798 90.7998,-57.589 99.3902,-63.7903 101.382,-57.0798"/>
</g>
<!-- Node3 -->
<g id="node3" class="node"><title>Node3</title>
<g id="a_node3"><a xlink:href="rpcrawtransaction_8cpp.html#a366b04dae2aae86eee356cc85d759268" target="_top" xlink:title="TxToJSON">
<polygon fill="white" stroke="black" points="154.5,-38.5 154.5,-57.5 220.5,-57.5 220.5,-38.5 154.5,-38.5"/>
<text text-anchor="middle" x="187.5" y="-45.5" font-family="Helvetica,sans-Serif" font-size="10.00">TxToJSON</text>
</a>
</g>
</g>
<!-- Node1&#45;&gt;Node3 -->
<g id="edge2" class="edge"><title>Node1&#45;&gt;Node3</title>
<path fill="none" stroke="midnightblue" d="M125.208,-48C135.408,-48 145.517,-48 154.494,-48"/>
<polygon fill="midnightblue" stroke="midnightblue" points="125.015,-44.5001 115.015,-48 125.015,-51.5001 125.015,-44.5001"/>
</g>
<!-- Node6 -->
<g id="node6" class="node"><title>Node6</title>
<g id="a_node6"><a xlink:href="rpcrawtransaction_8cpp.html#a342172992e2fa92490e8d83c2e95e87e" target="_top" xlink:title="decodescript">
<polygon fill="white" stroke="black" points="151,-0.5 151,-19.5 224,-19.5 224,-0.5 151,-0.5"/>
<text text-anchor="middle" x="187.5" y="-7.5" font-family="Helvetica,sans-Serif" font-size="10.00">decodescript</text>
</a>
</g>
</g>
<!-- Node1&#45;&gt;Node6 -->
<g id="edge5" class="edge"><title>Node1&#45;&gt;Node6</title>
<path fill="none" stroke="midnightblue" d="M100.724,-35.4647C118.137,-30.2952 137.992,-24.4009 154.211,-19.5859"/>
<polygon fill="midnightblue" stroke="midnightblue" points="99.3902,-32.2097 90.7998,-38.411 101.382,-38.9202 99.3902,-32.2097"/>
</g>
<!-- Node4 -->
<g id="node4" class="node"><title>Node4</title>
<g id="a_node4"><a xlink:href="rpcrawtransaction_8cpp.html#a12e1b8a05d99d1544e5343c2282cc55a" target="_top" xlink:title="getrawtransaction">
<polygon fill="white" stroke="black" points="269.5,-57.5 269.5,-76.5 364.5,-76.5 364.5,-57.5 269.5,-57.5"/>
<text text-anchor="middle" x="317" y="-64.5" font-family="Helvetica,sans-Serif" font-size="10.00">getrawtransaction</text>
</a>
</g>
</g>
<!-- Node3&#45;&gt;Node4 -->
<g id="edge3" class="edge"><title>Node3&#45;&gt;Node4</title>
<path fill="none" stroke="midnightblue" d="M230.741,-54.2948C243.127,-56.1406 256.741,-58.1692 269.383,-60.0532"/>
<polygon fill="midnightblue" stroke="midnightblue" points="231.08,-50.8067 220.674,-52.7945 230.049,-57.7303 231.08,-50.8067"/>
</g>
<!-- Node5 -->
<g id="node5" class="node"><title>Node5</title>
<g id="a_node5"><a xlink:href="rpcrawtransaction_8cpp.html#a6775c600b1bfdbb22f38e5f1cd27cfea" target="_top" xlink:title="decoderawtransaction">
<polygon fill="white" stroke="black" points="260,-19.5 260,-38.5 374,-38.5 374,-19.5 260,-19.5"/>
<text text-anchor="middle" x="317" y="-26.5" font-family="Helvetica,sans-Serif" font-size="10.00">decoderawtransaction</text>
</a>
</g>
</g>
<!-- Node3&#45;&gt;Node5 -->
<g id="edge4" class="edge"><title>Node3&#45;&gt;Node5</title>
<path fill="none" stroke="midnightblue" d="M230.741,-41.7052C239.957,-40.332 249.851,-38.8575 259.52,-37.4167"/>
<polygon fill="midnightblue" stroke="midnightblue" points="230.049,-38.2697 220.674,-43.2055 231.08,-45.1933 230.049,-38.2697"/>
</g>
</g>
</svg>
