<?xml version="1.0" encoding="UTF-8" standalone="no"?>
<!DOCTYPE svg PUBLIC "-//W3C//DTD SVG 1.1//EN"
 "http://www.w3.org/Graphics/SVG/1.1/DTD/svg11.dtd">
<!-- Generated by graphviz version 2.38.0 (20140413.2041)
 -->
<!-- Title: decodescript Pages: 1 -->
<svg width="1139pt" height="417pt"
 viewBox="0.00 0.00 1139.00 417.00" xmlns="http://www.w3.org/2000/svg" xmlns:xlink="http://www.w3.org/1999/xlink">
<g id="graph0" class="graph" transform="scale(1 1) rotate(0) translate(4 413)">
<title>decodescript</title>
<polygon fill="white" stroke="none" points="-4,4 -4,-413 1135,-413 1135,4 -4,4"/>
<!-- Node1 -->
<g id="node1" class="node"><title>Node1</title>
<polygon fill="#bfbfbf" stroke="black" points="0,-294.5 0,-313.5 73,-313.5 73,-294.5 0,-294.5"/>
<text text-anchor="middle" x="36.5" y="-301.5" font-family="Helvetica,sans-Serif" font-size="10.00">decodescript</text>
</g>
<!-- Node2 -->
<g id="node2" class="node"><title>Node2</title>
<g id="a_node2"><a xlink:href="rpcserver_8cpp.html#ac01ac6eab5467567ed0da106814e04ec" target="_top" xlink:title="HelpExampleCli">
<polygon fill="white" stroke="black" points="122.5,-389.5 122.5,-408.5 210.5,-408.5 210.5,-389.5 122.5,-389.5"/>
<text text-anchor="middle" x="166.5" y="-396.5" font-family="Helvetica,sans-Serif" font-size="10.00">HelpExampleCli</text>
</a>
</g>
</g>
<!-- Node1&#45;&gt;Node2 -->
<g id="edge1" class="edge"><title>Node1&#45;&gt;Node2</title>
<path fill="none" stroke="midnightblue" d="M44.0675,-313.602C55.4758,-329.591 80.4821,-361.715 109,-380 112.147,-382.018 115.531,-383.845 119.023,-385.494"/>
<polygon fill="midnightblue" stroke="midnightblue" points="117.852,-388.799 128.426,-389.455 120.569,-382.348 117.852,-388.799"/>
</g>
<!-- Node3 -->
<g id="node3" class="node"><title>Node3</title>
<g id="a_node3"><a xlink:href="rpcserver_8cpp.html#a06ea60e24e5a1053a14a11b1009bf9ef" target="_top" xlink:title="HelpExampleRpc">
<polygon fill="white" stroke="black" points="119.5,-351.5 119.5,-370.5 213.5,-370.5 213.5,-351.5 119.5,-351.5"/>
<text text-anchor="middle" x="166.5" y="-358.5" font-family="Helvetica,sans-Serif" font-size="10.00">HelpExampleRpc</text>
</a>
</g>
</g>
<!-- Node1&#45;&gt;Node3 -->
<g id="edge2" class="edge"><title>Node1&#45;&gt;Node3</title>
<path fill="none" stroke="midnightblue" d="M53.5958,-313.536C67.847,-321.74 89.3736,-333.552 109,-342 113.99,-344.148 119.31,-346.214 124.615,-348.141"/>
<polygon fill="midnightblue" stroke="midnightblue" points="123.476,-351.451 134.071,-351.449 125.787,-344.844 123.476,-351.451"/>
</g>
<!-- Node4 -->
<g id="node4" class="node"><title>Node4</title>
<g id="a_node4"><a xlink:href="rpcserver_8cpp.html#a6f9782b3c0efdb472b355c60bd90f2b6" target="_top" xlink:title="RPCTypeCheck">
<polygon fill="white" stroke="black" points="122.5,-313.5 122.5,-332.5 210.5,-332.5 210.5,-313.5 122.5,-313.5"/>
<text text-anchor="middle" x="166.5" y="-320.5" font-family="Helvetica,sans-Serif" font-size="10.00">RPCTypeCheck</text>
</a>
</g>
</g>
<!-- Node1&#45;&gt;Node4 -->
<g id="edge3" class="edge"><title>Node1&#45;&gt;Node4</title>
<path fill="none" stroke="midnightblue" d="M73.1551,-309.293C85.2983,-311.095 99.1474,-313.151 112.36,-315.112"/>
<polygon fill="midnightblue" stroke="midnightblue" points="111.896,-318.581 122.302,-316.588 112.924,-311.657 111.896,-318.581"/>
</g>
<!-- Node6 -->
<g id="node6" class="node"><title>Node6</title>
<g id="a_node6"><a xlink:href="rpcserver_8cpp.html#a6912ee7b40ffee24ad6d599b3667d4c8" target="_top" xlink:title="ParseHexV">
<polygon fill="white" stroke="black" points="133,-275.5 133,-294.5 200,-294.5 200,-275.5 133,-275.5"/>
<text text-anchor="middle" x="166.5" y="-282.5" font-family="Helvetica,sans-Serif" font-size="10.00">ParseHexV</text>
</a>
</g>
</g>
<!-- Node1&#45;&gt;Node6 -->
<g id="edge5" class="edge"><title>Node1&#45;&gt;Node6</title>
<path fill="none" stroke="midnightblue" d="M73.1551,-298.707C88.4467,-296.438 106.444,-293.766 122.469,-291.387"/>
<polygon fill="midnightblue" stroke="midnightblue" points="123.289,-294.804 132.667,-289.874 122.261,-287.88 123.289,-294.804"/>
</g>
<!-- Node10 -->
<g id="node10" class="node"><title>Node10</title>
<g id="a_node10"><a xlink:href="rpcrawtransaction_8cpp.html#acb6efc0d76394e3858fe7451148069c2" target="_top" xlink:title="ScriptPubKeyToJSON">
<polygon fill="white" stroke="black" points="109,-152.5 109,-171.5 224,-171.5 224,-152.5 109,-152.5"/>
<text text-anchor="middle" x="166.5" y="-159.5" font-family="Helvetica,sans-Serif" font-size="10.00">ScriptPubKeyToJSON</text>
</a>
</g>
</g>
<!-- Node1&#45;&gt;Node10 -->
<g id="edge11" class="edge"><title>Node1&#45;&gt;Node10</title>
<path fill="none" stroke="midnightblue" d="M46.298,-294.24C67.672,-270.528 122.568,-209.628 149.757,-179.465"/>
<polygon fill="midnightblue" stroke="midnightblue" points="152.545,-181.6 156.64,-171.829 147.345,-176.913 152.545,-181.6"/>
</g>
<!-- Node32 -->
<g id="node32" class="node"><title>Node32</title>
<g id="a_node32"><a xlink:href="class_c_script.html#a59fd961e1b74202a0951a077b576c0ba" target="_top" xlink:title="CScript::GetID">
<polygon fill="white" stroke="black" points="407.5,-0.5 407.5,-19.5 488.5,-19.5 488.5,-0.5 407.5,-0.5"/>
<text text-anchor="middle" x="448" y="-7.5" font-family="Helvetica,sans-Serif" font-size="10.00">CScript::GetID</text>
</a>
</g>
</g>
<!-- Node1&#45;&gt;Node32 -->
<g id="edge37" class="edge"><title>Node1&#45;&gt;Node32</title>
<path fill="none" stroke="midnightblue" d="M39.3865,-294.392C45.1537,-267.302 64.9076,-189.278 109,-143 187.671,-60.4301 323.879,-28.1463 397.064,-16.308"/>
<polygon fill="midnightblue" stroke="midnightblue" points="398.045,-19.6977 407.39,-14.7061 396.972,-12.7805 398.045,-19.6977"/>
</g>
<!-- Node5 -->
<g id="node5" class="node"><title>Node5</title>
<g id="a_node5"><a xlink:href="rpcprotocol_8cpp.html#a17b1bb111ab339efc951929834766039" target="_top" xlink:title="JSONRPCError">
<polygon fill="white" stroke="black" points="268,-332.5 268,-351.5 355,-351.5 355,-332.5 268,-332.5"/>
<text text-anchor="middle" x="311.5" y="-339.5" font-family="Helvetica,sans-Serif" font-size="10.00">JSONRPCError</text>
</a>
</g>
</g>
<!-- Node4&#45;&gt;Node5 -->
<g id="edge4" class="edge"><title>Node4&#45;&gt;Node5</title>
<path fill="none" stroke="midnightblue" d="M210.793,-328.752C225.628,-330.723 242.393,-332.951 257.884,-335.009"/>
<polygon fill="midnightblue" stroke="midnightblue" points="257.473,-338.485 267.846,-336.333 258.395,-331.546 257.473,-338.485"/>
</g>
<!-- Node6&#45;&gt;Node5 -->
<g id="edge8" class="edge"><title>Node6&#45;&gt;Node5</title>
<path fill="none" stroke="midnightblue" d="M198.923,-294.567C207.181,-297.352 216.01,-300.575 224,-304 240.628,-311.129 243.501,-315.578 260,-323 264.413,-324.985 269.101,-326.943 273.774,-328.803"/>
<polygon fill="midnightblue" stroke="midnightblue" points="272.661,-332.125 283.25,-332.463 275.182,-325.595 272.661,-332.125"/>
</g>
<!-- Node7 -->
<g id="node7" class="node"><title>Node7</title>
<g id="a_node7"><a xlink:href="util_8cpp.html#aa4e3553d2b2fe693c106f4296685f75c" target="_top" xlink:title="IsHex">
<polygon fill="white" stroke="black" points="290.5,-294.5 290.5,-313.5 332.5,-313.5 332.5,-294.5 290.5,-294.5"/>
<text text-anchor="middle" x="311.5" y="-301.5" font-family="Helvetica,sans-Serif" font-size="10.00">IsHex</text>
</a>
</g>
</g>
<!-- Node6&#45;&gt;Node7 -->
<g id="edge6" class="edge"><title>Node6&#45;&gt;Node7</title>
<path fill="none" stroke="midnightblue" d="M200.307,-289.359C224.333,-292.551 256.701,-296.852 280.135,-299.965"/>
<polygon fill="midnightblue" stroke="midnightblue" points="279.837,-303.457 290.211,-301.304 280.759,-296.518 279.837,-303.457"/>
</g>
<!-- Node9 -->
<g id="node9" class="node"><title>Node9</title>
<g id="a_node9"><a xlink:href="util_8cpp.html#abea395175fbc4a788ed0f0a41710b8a7" target="_top" xlink:title="ParseHex">
<polygon fill="white" stroke="black" points="281.5,-256.5 281.5,-275.5 341.5,-275.5 341.5,-256.5 281.5,-256.5"/>
<text text-anchor="middle" x="311.5" y="-263.5" font-family="Helvetica,sans-Serif" font-size="10.00">ParseHex</text>
</a>
</g>
</g>
<!-- Node6&#45;&gt;Node9 -->
<g id="edge9" class="edge"><title>Node6&#45;&gt;Node9</title>
<path fill="none" stroke="midnightblue" d="M200.307,-280.641C221.378,-277.841 248.864,-274.189 271.113,-271.233"/>
<polygon fill="midnightblue" stroke="midnightblue" points="271.792,-274.674 281.244,-269.887 270.87,-267.735 271.792,-274.674"/>
</g>
<!-- Node8 -->
<g id="node8" class="node"><title>Node8</title>
<g id="a_node8"><a xlink:href="uint256_8h.html#aa59e8a8c5a39cb5041f93bb95dd02119" target="_top" xlink:title="HexDigit">
<polygon fill="white" stroke="black" points="421,-304.5 421,-323.5 475,-323.5 475,-304.5 421,-304.5"/>
<text text-anchor="middle" x="448" y="-311.5" font-family="Helvetica,sans-Serif" font-size="10.00">HexDigit</text>
</a>
</g>
</g>
<!-- Node7&#45;&gt;Node8 -->
<g id="edge7" class="edge"><title>Node7&#45;&gt;Node8</title>
<path fill="none" stroke="midnightblue" d="M332.636,-305.497C353.155,-307.023 385.435,-309.423 410.475,-311.284"/>
<polygon fill="midnightblue" stroke="midnightblue" points="410.476,-314.794 420.708,-312.045 410.995,-307.813 410.476,-314.794"/>
</g>
<!-- Node9&#45;&gt;Node8 -->
<g id="edge10" class="edge"><title>Node9&#45;&gt;Node8</title>
<path fill="none" stroke="midnightblue" d="M339.395,-275.598C359.963,-282.938 388.523,-293.131 411.051,-301.17"/>
<polygon fill="midnightblue" stroke="midnightblue" points="410.016,-304.517 420.61,-304.582 412.368,-297.924 410.016,-304.517"/>
</g>
<!-- Node11 -->
<g id="node11" class="node"><title>Node11</title>
<g id="a_node11"><a xlink:href="class_c_script.html#a91e928e85f78fddf9ed9d07057b7a7fc" target="_top" xlink:title="CScript::ToString">
<polygon fill="white" stroke="black" points="265,-199.5 265,-218.5 358,-218.5 358,-199.5 265,-199.5"/>
<text text-anchor="middle" x="311.5" y="-206.5" font-family="Helvetica,sans-Serif" font-size="10.00">CScript::ToString</text>
</a>
</g>
</g>
<!-- Node10&#45;&gt;Node11 -->
<g id="edge12" class="edge"><title>Node10&#45;&gt;Node11</title>
<path fill="none" stroke="midnightblue" d="M196.438,-171.511C218.004,-178.599 247.692,-188.357 271.374,-196.14"/>
<polygon fill="midnightblue" stroke="midnightblue" points="270.521,-199.544 281.114,-199.342 272.707,-192.894 270.521,-199.544"/>
</g>
<!-- Node18 -->
<g id="node18" class="node"><title>Node18</title>
<g id="a_node18"><a xlink:href="util_8h.html#ace13a819ca4e98c22847d26b3b357e75" target="_top" xlink:title="HexStr">
<polygon fill="white" stroke="black" points="559.5,-171.5 559.5,-190.5 606.5,-190.5 606.5,-171.5 559.5,-171.5"/>
<text text-anchor="middle" x="583" y="-178.5" font-family="Helvetica,sans-Serif" font-size="10.00">HexStr</text>
</a>
</g>
</g>
<!-- Node10&#45;&gt;Node18 -->
<g id="edge21" class="edge"><title>Node10&#45;&gt;Node18</title>
<path fill="none" stroke="midnightblue" d="M224.265,-164.602C312.208,-168.633 478.585,-176.26 549.094,-179.492"/>
<polygon fill="midnightblue" stroke="midnightblue" points="549.022,-182.992 559.172,-179.954 549.343,-175.999 549.022,-182.992"/>
</g>
<!-- Node20 -->
<g id="node20" class="node"><title>Node20</title>
<g id="a_node20"><a xlink:href="script_8cpp.html#a6948ee6aa422ed8a5ffe06ddc77a55d8" target="_top" xlink:title="ExtractDestinations">
<polygon fill="white" stroke="black" points="260,-114.5 260,-133.5 363,-133.5 363,-114.5 260,-114.5"/>
<text text-anchor="middle" x="311.5" y="-121.5" font-family="Helvetica,sans-Serif" font-size="10.00">ExtractDestinations</text>
</a>
</g>
</g>
<!-- Node10&#45;&gt;Node20 -->
<g id="edge22" class="edge"><title>Node10&#45;&gt;Node20</title>
<path fill="none" stroke="midnightblue" d="M203.585,-152.411C222.13,-147.483 244.926,-141.425 264.699,-136.171"/>
<polygon fill="midnightblue" stroke="midnightblue" points="265.661,-139.537 274.427,-133.586 263.863,-132.772 265.661,-139.537"/>
</g>
<!-- Node31 -->
<g id="node31" class="node"><title>Node31</title>
<g id="a_node31"><a xlink:href="script_8cpp.html#a998a2df1a42dc68c4cffa9933aa713c2" target="_top" xlink:title="GetTxnOutputType">
<polygon fill="white" stroke="black" points="260.5,-76.5 260.5,-95.5 362.5,-95.5 362.5,-76.5 260.5,-76.5"/>
<text text-anchor="middle" x="311.5" y="-83.5" font-family="Helvetica,sans-Serif" font-size="10.00">GetTxnOutputType</text>
</a>
</g>
</g>
<!-- Node10&#45;&gt;Node31 -->
<g id="edge36" class="edge"><title>Node10&#45;&gt;Node31</title>
<path fill="none" stroke="midnightblue" d="M181.126,-152.442C198.759,-140.35 230.702,-119.372 260,-105 264.084,-102.997 268.436,-101.069 272.807,-99.2619"/>
<polygon fill="midnightblue" stroke="midnightblue" points="274.293,-102.438 282.31,-95.5125 271.723,-95.9269 274.293,-102.438"/>
</g>
<!-- Node12 -->
<g id="node12" class="node"><title>Node12</title>
<g id="a_node12"><a xlink:href="class_c_script.html#a94635ed93d8d244ec3acfa83f9ecfe5f" target="_top" xlink:title="CScript::GetOp">
<polygon fill="white" stroke="black" points="697,-228.5 697,-247.5 781,-247.5 781,-228.5 697,-228.5"/>
<text text-anchor="middle" x="739" y="-235.5" font-family="Helvetica,sans-Serif" font-size="10.00">CScript::GetOp</text>
</a>
</g>
</g>
<!-- Node11&#45;&gt;Node12 -->
<g id="edge13" class="edge"><title>Node11&#45;&gt;Node12</title>
<path fill="none" stroke="midnightblue" d="M324.811,-218.517C340.846,-230.251 370.236,-249.554 399,-257 500.231,-283.205 623.945,-263.97 690.375,-249.686"/>
<polygon fill="midnightblue" stroke="midnightblue" points="691.13,-253.104 700.142,-247.532 689.623,-246.268 691.13,-253.104"/>
</g>
<!-- Node16 -->
<g id="node16" class="node"><title>Node16</title>
<g id="a_node16"><a xlink:href="script_8h.html#ab545c0a3638ba9151370e91fac78f48d" target="_top" xlink:title="ValueString">
<polygon fill="white" stroke="black" points="414,-228.5 414,-247.5 482,-247.5 482,-228.5 414,-228.5"/>
<text text-anchor="middle" x="448" y="-235.5" font-family="Helvetica,sans-Serif" font-size="10.00">ValueString</text>
</a>
</g>
</g>
<!-- Node11&#45;&gt;Node16 -->
<g id="edge17" class="edge"><title>Node11&#45;&gt;Node16</title>
<path fill="none" stroke="midnightblue" d="M356.913,-218.576C371.958,-221.82 388.734,-225.437 403.692,-228.662"/>
<polygon fill="midnightblue" stroke="midnightblue" points="403.201,-232.137 413.714,-230.823 404.676,-225.294 403.201,-232.137"/>
</g>
<!-- Node19 -->
<g id="node19" class="node"><title>Node19</title>
<g id="a_node19"><a xlink:href="script_8h.html#a573587022d52d3542eb6fbf5a1190489" target="_top" xlink:title="GetOpName">
<polygon fill="white" stroke="black" points="411.5,-190.5 411.5,-209.5 484.5,-209.5 484.5,-190.5 411.5,-190.5"/>
<text text-anchor="middle" x="448" y="-197.5" font-family="Helvetica,sans-Serif" font-size="10.00">GetOpName</text>
</a>
</g>
</g>
<!-- Node11&#45;&gt;Node19 -->
<g id="edge20" class="edge"><title>Node11&#45;&gt;Node19</title>
<path fill="none" stroke="midnightblue" d="M358.036,-205.953C371.882,-205.026 387.104,-204.008 400.982,-203.079"/>
<polygon fill="midnightblue" stroke="midnightblue" points="401.544,-206.55 411.288,-202.39 401.076,-199.565 401.544,-206.55"/>
</g>
<!-- Node13 -->
<g id="node13" class="node"><title>Node13</title>
<g id="a_node13"><a xlink:href="class_c_script.html#a93ec95275ccce9b701c8f53c57cd7975" target="_top" xlink:title="CScript::GetOp2">
<polygon fill="white" stroke="black" points="848.5,-228.5 848.5,-247.5 938.5,-247.5 938.5,-228.5 848.5,-228.5"/>
<text text-anchor="middle" x="893.5" y="-235.5" font-family="Helvetica,sans-Serif" font-size="10.00">CScript::GetOp2</text>
</a>
</g>
</g>
<!-- Node12&#45;&gt;Node13 -->
<g id="edge14" class="edge"><title>Node12&#45;&gt;Node13</title>
<path fill="none" stroke="midnightblue" d="M781.269,-238C798.759,-238 819.385,-238 838.094,-238"/>
<polygon fill="midnightblue" stroke="midnightblue" points="838.259,-241.5 848.259,-238 838.259,-234.5 838.259,-241.5"/>
</g>
<!-- Node14 -->
<g id="node14" class="node"><title>Node14</title>
<g id="a_node14"><a xlink:href="glibc__compat_8cpp.html#a0f46826ab0466591e136db24394923cf" target="_top" xlink:title="memcpy">
<polygon fill="white" stroke="black" points="978,-228.5 978,-247.5 1032,-247.5 1032,-228.5 978,-228.5"/>
<text text-anchor="middle" x="1005" y="-235.5" font-family="Helvetica,sans-Serif" font-size="10.00">memcpy</text>
</a>
</g>
</g>
<!-- Node13&#45;&gt;Node14 -->
<g id="edge15" class="edge"><title>Node13&#45;&gt;Node14</title>
<path fill="none" stroke="midnightblue" d="M938.722,-238C948.382,-238 958.497,-238 967.801,-238"/>
<polygon fill="midnightblue" stroke="midnightblue" points="967.894,-241.5 977.894,-238 967.894,-234.5 967.894,-241.5"/>
</g>
<!-- Node15 -->
<g id="node15" class="node"><title>Node15</title>
<g id="a_node15"><a xlink:href="glibc__compat_8cpp.html#a9778d49e9029dd75bc53ecbbf9f5e9a1" target="_top" xlink:title="memmove">
<polygon fill="white" stroke="black" points="1068,-228.5 1068,-247.5 1131,-247.5 1131,-228.5 1068,-228.5"/>
<text text-anchor="middle" x="1099.5" y="-235.5" font-family="Helvetica,sans-Serif" font-size="10.00">memmove</text>
</a>
</g>
</g>
<!-- Node14&#45;&gt;Node15 -->
<g id="edge16" class="edge"><title>Node14&#45;&gt;Node15</title>
<path fill="none" stroke="midnightblue" d="M1032.26,-238C1040.24,-238 1049.21,-238 1057.91,-238"/>
<polygon fill="midnightblue" stroke="midnightblue" points="1057.92,-241.5 1067.92,-238 1057.92,-234.5 1057.92,-241.5"/>
</g>
<!-- Node17 -->
<g id="node17" class="node"><title>Node17</title>
<g id="a_node17"><a xlink:href="class_c_script_num.html#ab58edf8d8c555acbcac9e1ff9827a8da" target="_top" xlink:title="CScriptNum::getint">
<polygon fill="white" stroke="black" points="533,-228.5 533,-247.5 633,-247.5 633,-228.5 533,-228.5"/>
<text text-anchor="middle" x="583" y="-235.5" font-family="Helvetica,sans-Serif" font-size="10.00">CScriptNum::getint</text>
</a>
</g>
</g>
<!-- Node16&#45;&gt;Node17 -->
<g id="edge18" class="edge"><title>Node16&#45;&gt;Node17</title>
<path fill="none" stroke="midnightblue" d="M482.218,-238C494.539,-238 508.914,-238 522.852,-238"/>
<polygon fill="midnightblue" stroke="midnightblue" points="522.888,-241.5 532.888,-238 522.888,-234.5 522.888,-241.5"/>
</g>
<!-- Node16&#45;&gt;Node18 -->
<g id="edge19" class="edge"><title>Node16&#45;&gt;Node18</title>
<path fill="none" stroke="midnightblue" d="M473.997,-228.343C481.427,-225.409 489.566,-222.131 497,-219 515.258,-211.31 535.517,-202.273 551.675,-194.942"/>
<polygon fill="midnightblue" stroke="midnightblue" points="553.502,-197.955 561.152,-190.625 550.601,-191.585 553.502,-197.955"/>
</g>
<!-- Node21 -->
<g id="node21" class="node"><title>Node21</title>
<g id="a_node21"><a xlink:href="script_8cpp.html#a6ee6be50bff44464e905680c6fcee6dc" target="_top" xlink:title="Solver">
<polygon fill="white" stroke="black" points="560.5,-114.5 560.5,-133.5 605.5,-133.5 605.5,-114.5 560.5,-114.5"/>
<text text-anchor="middle" x="583" y="-121.5" font-family="Helvetica,sans-Serif" font-size="10.00">Solver</text>
</a>
</g>
</g>
<!-- Node20&#45;&gt;Node21 -->
<g id="edge23" class="edge"><title>Node20&#45;&gt;Node21</title>
<path fill="none" stroke="midnightblue" d="M363.191,-124C418.218,-124 504.383,-124 550.451,-124"/>
<polygon fill="midnightblue" stroke="midnightblue" points="550.453,-127.5 560.453,-124 550.453,-120.5 550.453,-127.5"/>
</g>
<!-- Node26 -->
<g id="node26" class="node"><title>Node26</title>
<g id="a_node26"><a xlink:href="class_c_pub_key.html#a9c1908fef34fd9e1c4b5e0ffd5d3834e" target="_top" xlink:title="CPubKey::GetID">
<polygon fill="white" stroke="black" points="538,-38.5 538,-57.5 628,-57.5 628,-38.5 538,-38.5"/>
<text text-anchor="middle" x="583" y="-45.5" font-family="Helvetica,sans-Serif" font-size="10.00">CPubKey::GetID</text>
</a>
</g>
</g>
<!-- Node20&#45;&gt;Node26 -->
<g id="edge29" class="edge"><title>Node20&#45;&gt;Node26</title>
<path fill="none" stroke="midnightblue" d="M344.555,-114.445C350.928,-111.866 357.381,-108.731 363,-105 382.381,-92.1313 378.133,-77.2852 399,-67 438.937,-47.3156 489.64,-43.4346 527.543,-43.983"/>
<polygon fill="midnightblue" stroke="midnightblue" points="527.789,-47.4903 537.875,-44.2457 527.967,-40.4926 527.789,-47.4903"/>
</g>
<!-- Node30 -->
<g id="node30" class="node"><title>Node30</title>
<g id="a_node30"><a xlink:href="script_8cpp.html#a951f7e601746ae076afdf3169ecca2fc" target="_top" xlink:title="ExtractDestination">
<polygon fill="white" stroke="black" points="399,-76.5 399,-95.5 497,-95.5 497,-76.5 399,-76.5"/>
<text text-anchor="middle" x="448" y="-83.5" font-family="Helvetica,sans-Serif" font-size="10.00">ExtractDestination</text>
</a>
</g>
</g>
<!-- Node20&#45;&gt;Node30 -->
<g id="edge33" class="edge"><title>Node20&#45;&gt;Node30</title>
<path fill="none" stroke="midnightblue" d="M346.44,-114.411C363.723,-109.528 384.933,-103.536 403.411,-98.315"/>
<polygon fill="midnightblue" stroke="midnightblue" points="404.399,-101.673 413.071,-95.5859 402.496,-94.9367 404.399,-101.673"/>
</g>
<!-- Node21&#45;&gt;Node12 -->
<g id="edge27" class="edge"><title>Node21&#45;&gt;Node12</title>
<path fill="none" stroke="midnightblue" d="M596.865,-133.523C623.296,-153.089 683.95,-197.989 716.471,-222.063"/>
<polygon fill="midnightblue" stroke="midnightblue" points="714.725,-225.125 724.845,-228.262 718.89,-219.499 714.725,-225.125"/>
</g>
<!-- Node22 -->
<g id="node22" class="node"><title>Node22</title>
<g id="a_node22"><a xlink:href="util_8cpp.html#a64d956f1dda7f9a80ab5d594532b906d" target="_top" xlink:title="Return boolean argument or default value. ">
<polygon fill="white" stroke="black" points="705,-152.5 705,-171.5 773,-171.5 773,-152.5 705,-152.5"/>
<text text-anchor="middle" x="739" y="-159.5" font-family="Helvetica,sans-Serif" font-size="10.00">GetBoolArg</text>
</a>
</g>
</g>
<!-- Node21&#45;&gt;Node22 -->
<g id="edge24" class="edge"><title>Node21&#45;&gt;Node22</title>
<path fill="none" stroke="midnightblue" d="M605.738,-129.364C628.803,-135.055 665.852,-144.197 694.878,-151.36"/>
<polygon fill="midnightblue" stroke="midnightblue" points="694.227,-154.804 704.775,-153.802 695.904,-148.008 694.227,-154.804"/>
</g>
<!-- Node24 -->
<g id="node24" class="node"><title>Node24</title>
<g id="a_node24"><a xlink:href="class_c_script.html#acba6d6d35776de4ce3a632446f44805f" target="_top" xlink:title="CScript::IsPayToScriptHash">
<polygon fill="white" stroke="black" points="669,-114.5 669,-133.5 809,-133.5 809,-114.5 669,-114.5"/>
<text text-anchor="middle" x="739" y="-121.5" font-family="Helvetica,sans-Serif" font-size="10.00">CScript::IsPayToScriptHash</text>
</a>
</g>
</g>
<!-- Node21&#45;&gt;Node24 -->
<g id="edge26" class="edge"><title>Node21&#45;&gt;Node24</title>
<path fill="none" stroke="midnightblue" d="M605.738,-124C619.859,-124 639.22,-124 658.773,-124"/>
<polygon fill="midnightblue" stroke="midnightblue" points="658.988,-127.5 668.988,-124 658.988,-120.5 658.988,-127.5"/>
</g>
<!-- Node25 -->
<g id="node25" class="node"><title>Node25</title>
<g id="a_node25"><a xlink:href="class_c_script.html#a7f975fca06b3e9a17da8ba23c7647e2e" target="_top" xlink:title="CScript::DecodeOP_N">
<polygon fill="white" stroke="black" points="680.5,-76.5 680.5,-95.5 797.5,-95.5 797.5,-76.5 680.5,-76.5"/>
<text text-anchor="middle" x="739" y="-83.5" font-family="Helvetica,sans-Serif" font-size="10.00">CScript::DecodeOP_N</text>
</a>
</g>
</g>
<!-- Node21&#45;&gt;Node25 -->
<g id="edge28" class="edge"><title>Node21&#45;&gt;Node25</title>
<path fill="none" stroke="midnightblue" d="M605.738,-118.636C627.374,-113.297 661.312,-104.923 689.393,-97.994"/>
<polygon fill="midnightblue" stroke="midnightblue" points="690.569,-101.309 699.44,-95.5149 688.892,-94.5126 690.569,-101.309"/>
</g>
<!-- Node23 -->
<g id="node23" class="node"><title>Node23</title>
<g id="a_node23"><a xlink:href="util_8h.html#aa5ce96ec36f4413f820cec9c1831c070" target="_top" xlink:title="atoi">
<polygon fill="white" stroke="black" points="877,-152.5 877,-171.5 910,-171.5 910,-152.5 877,-152.5"/>
<text text-anchor="middle" x="893.5" y="-159.5" font-family="Helvetica,sans-Serif" font-size="10.00">atoi</text>
</a>
</g>
</g>
<!-- Node22&#45;&gt;Node23 -->
<g id="edge25" class="edge"><title>Node22&#45;&gt;Node23</title>
<path fill="none" stroke="midnightblue" d="M773.09,-162C801.144,-162 840.821,-162 866.604,-162"/>
<polygon fill="midnightblue" stroke="midnightblue" points="866.73,-165.5 876.73,-162 866.73,-158.5 866.73,-165.5"/>
</g>
<!-- Node27 -->
<g id="node27" class="node"><title>Node27</title>
<g id="a_node27"><a xlink:href="hash_8h.html#a4490f70ddae16e9e48460a0416a48a6b" target="_top" xlink:title="Hash160">
<polygon fill="white" stroke="black" points="710.5,-0.5 710.5,-19.5 767.5,-19.5 767.5,-0.5 710.5,-0.5"/>
<text text-anchor="middle" x="739" y="-7.5" font-family="Helvetica,sans-Serif" font-size="10.00">Hash160</text>
</a>
</g>
</g>
<!-- Node26&#45;&gt;Node27 -->
<g id="edge30" class="edge"><title>Node26&#45;&gt;Node27</title>
<path fill="none" stroke="midnightblue" d="M622.861,-38.411C646.612,-32.5503 676.84,-25.0915 700.363,-19.287"/>
<polygon fill="midnightblue" stroke="midnightblue" points="701.453,-22.6231 710.323,-16.8293 699.776,-15.827 701.453,-22.6231"/>
</g>
<!-- Node28 -->
<g id="node28" class="node"><title>Node28</title>
<g id="a_node28"><a xlink:href="class_c_pub_key.html#a9d7129b65b6dee792b4f3923cd64ed59" target="_top" xlink:title="CPubKey::size">
<polygon fill="white" stroke="black" points="698,-38.5 698,-57.5 780,-57.5 780,-38.5 698,-38.5"/>
<text text-anchor="middle" x="739" y="-45.5" font-family="Helvetica,sans-Serif" font-size="10.00">CPubKey::size</text>
</a>
</g>
</g>
<!-- Node26&#45;&gt;Node28 -->
<g id="edge31" class="edge"><title>Node26&#45;&gt;Node28</title>
<path fill="none" stroke="midnightblue" d="M628.13,-48C646.739,-48 668.501,-48 687.726,-48"/>
<polygon fill="midnightblue" stroke="midnightblue" points="687.813,-51.5001 697.812,-48 687.812,-44.5001 687.813,-51.5001"/>
</g>
<!-- Node29 -->
<g id="node29" class="node"><title>Node29</title>
<g id="a_node29"><a xlink:href="class_c_pub_key.html#a7dc71b3f037c84268dc22de97d7b65fb" target="_top" xlink:title="CPubKey::GetLen">
<polygon fill="white" stroke="black" points="845,-38.5 845,-57.5 942,-57.5 942,-38.5 845,-38.5"/>
<text text-anchor="middle" x="893.5" y="-45.5" font-family="Helvetica,sans-Serif" font-size="10.00">CPubKey::GetLen</text>
</a>
</g>
</g>
<!-- Node28&#45;&gt;Node29 -->
<g id="edge32" class="edge"><title>Node28&#45;&gt;Node29</title>
<path fill="none" stroke="midnightblue" d="M780.068,-48C796.743,-48 816.425,-48 834.622,-48"/>
<polygon fill="midnightblue" stroke="midnightblue" points="834.839,-51.5001 844.839,-48 834.839,-44.5001 834.839,-51.5001"/>
</g>
<!-- Node30&#45;&gt;Node21 -->
<g id="edge34" class="edge"><title>Node30&#45;&gt;Node21</title>
<path fill="none" stroke="midnightblue" d="M482.562,-95.589C503.364,-101.533 529.92,-109.12 550.355,-114.959"/>
<polygon fill="midnightblue" stroke="midnightblue" points="549.554,-118.37 560.131,-117.752 551.477,-111.639 549.554,-118.37"/>
</g>
<!-- Node30&#45;&gt;Node26 -->
<g id="edge35" class="edge"><title>Node30&#45;&gt;Node26</title>
<path fill="none" stroke="midnightblue" d="M482.562,-76.411C499.573,-71.5506 520.432,-65.5909 538.645,-60.3873"/>
<polygon fill="midnightblue" stroke="midnightblue" points="539.796,-63.6986 548.449,-57.5859 537.872,-56.9679 539.796,-63.6986"/>
</g>
<!-- Node32&#45;&gt;Node27 -->
<g id="edge38" class="edge"><title>Node32&#45;&gt;Node27</title>
<path fill="none" stroke="midnightblue" d="M488.578,-10C544.23,-10 644.932,-10 699.819,-10"/>
<polygon fill="midnightblue" stroke="midnightblue" points="700.158,-13.5001 710.158,-10 700.158,-6.5001 700.158,-13.5001"/>
</g>
</g>
</svg>
