<?xml version="1.0" encoding="UTF-8" standalone="no"?>
<!DOCTYPE svg PUBLIC "-//W3C//DTD SVG 1.1//EN"
 "http://www.w3.org/Graphics/SVG/1.1/DTD/svg11.dtd">
<!-- Generated by graphviz version 2.38.0 (20140413.2041)
 -->
<!-- Title: RPCTypeCheck Pages: 1 -->
<svg width="241pt" height="142pt"
 viewBox="0.00 0.00 241.00 142.00" xmlns="http://www.w3.org/2000/svg" xmlns:xlink="http://www.w3.org/1999/xlink">
<g id="graph0" class="graph" transform="scale(1 1) rotate(0) translate(4 138)">
<title>RPCTypeCheck</title>
<polygon fill="white" stroke="none" points="-4,4 -4,-138 237,-138 237,4 -4,4"/>
<!-- Node1 -->
<g id="node1" class="node"><title>Node1</title>
<polygon fill="#bfbfbf" stroke="black" points="0,-57.5 0,-76.5 88,-76.5 88,-57.5 0,-57.5"/>
<text text-anchor="middle" x="44" y="-64.5" font-family="Helvetica,sans-Serif" font-size="10.00">RPCTypeCheck</text>
</g>
<!-- Node2 -->
<g id="node2" class="node"><title>Node2</title>
<g id="a_node2"><a xlink:href="rpcrawtransaction_8cpp.html#a7924d2aa3d68d890b82773445e0d949e" target="_top" xlink:title="createrawtransaction">
<polygon fill="white" stroke="black" points="124,-114.5 124,-133.5 233,-133.5 233,-114.5 124,-114.5"/>
<text text-anchor="middle" x="178.5" y="-121.5" font-family="Helvetica,sans-Serif" font-size="10.00">createrawtransaction</text>
</a>
</g>
</g>
<!-- Node1&#45;&gt;Node2 -->
<g id="edge1" class="edge"><title>Node1&#45;&gt;Node2</title>
<path fill="none" stroke="midnightblue" d="M72.8039,-81.274C87.7935,-88.7395 106.713,-97.7972 124,-105 131.916,-108.298 140.63,-111.549 148.686,-114.404"/>
<polygon fill="midnightblue" stroke="midnightblue" points="74.0842,-78.0002 63.5779,-76.6336 70.9388,-84.2538 74.0842,-78.0002"/>
</g>
<!-- Node3 -->
<g id="node3" class="node"><title>Node3</title>
<g id="a_node3"><a xlink:href="rpcrawtransaction_8cpp.html#a342172992e2fa92490e8d83c2e95e87e" target="_top" xlink:title="decodescript">
<polygon fill="white" stroke="black" points="142,-76.5 142,-95.5 215,-95.5 215,-76.5 142,-76.5"/>
<text text-anchor="middle" x="178.5" y="-83.5" font-family="Helvetica,sans-Serif" font-size="10.00">decodescript</text>
</a>
</g>
</g>
<!-- Node1&#45;&gt;Node3 -->
<g id="edge2" class="edge"><title>Node1&#45;&gt;Node3</title>
<path fill="none" stroke="midnightblue" d="M98.0151,-74.6022C112.718,-76.7104 128.327,-78.9487 141.784,-80.8785"/>
<polygon fill="midnightblue" stroke="midnightblue" points="98.4145,-71.1237 88.019,-73.1688 97.4209,-78.0528 98.4145,-71.1237"/>
</g>
<!-- Node4 -->
<g id="node4" class="node"><title>Node4</title>
<g id="a_node4"><a xlink:href="rpcrawtransaction_8cpp.html#aa0d151e35c0ad5ec82df451a833aeadb" target="_top" xlink:title="signrawtransaction">
<polygon fill="white" stroke="black" points="128.5,-38.5 128.5,-57.5 228.5,-57.5 228.5,-38.5 128.5,-38.5"/>
<text text-anchor="middle" x="178.5" y="-45.5" font-family="Helvetica,sans-Serif" font-size="10.00">signrawtransaction</text>
</a>
</g>
</g>
<!-- Node1&#45;&gt;Node4 -->
<g id="edge3" class="edge"><title>Node1&#45;&gt;Node4</title>
<path fill="none" stroke="midnightblue" d="M98.1811,-59.374C108.112,-57.9499 118.452,-56.4673 128.258,-55.0612"/>
<polygon fill="midnightblue" stroke="midnightblue" points="97.4209,-55.9472 88.019,-60.8312 98.4145,-62.8763 97.4209,-55.9472"/>
</g>
<!-- Node5 -->
<g id="node5" class="node"><title>Node5</title>
<g id="a_node5"><a xlink:href="rpcwallet_8cpp.html#a039075982abdf78052b40886b5b3e2cf" target="_top" xlink:title="lockunspent">
<polygon fill="white" stroke="black" points="143.5,-0.5 143.5,-19.5 213.5,-19.5 213.5,-0.5 143.5,-0.5"/>
<text text-anchor="middle" x="178.5" y="-7.5" font-family="Helvetica,sans-Serif" font-size="10.00">lockunspent</text>
</a>
</g>
</g>
<!-- Node1&#45;&gt;Node5 -->
<g id="edge4" class="edge"><title>Node1&#45;&gt;Node5</title>
<path fill="none" stroke="midnightblue" d="M72.8039,-52.726C87.7935,-45.2605 106.713,-36.2028 124,-29 131.916,-25.7018 140.63,-22.451 148.686,-19.5962"/>
<polygon fill="midnightblue" stroke="midnightblue" points="70.9388,-49.7462 63.5779,-57.3664 74.0842,-55.9998 70.9388,-49.7462"/>
</g>
</g>
</svg>
