<?xml version="1.0" encoding="UTF-8" standalone="no"?>
<!DOCTYPE svg PUBLIC "-//W3C//DTD SVG 1.1//EN"
 "http://www.w3.org/Graphics/SVG/1.1/DTD/svg11.dtd">
<!-- Generated by graphviz version 2.38.0 (20140413.2041)
 -->
<!-- Title: sendtoaddress Pages: 1 -->
<svg width="659pt" height="427pt"
 viewBox="0.00 0.00 659.00 427.00" xmlns="http://www.w3.org/2000/svg" xmlns:xlink="http://www.w3.org/1999/xlink">
<g id="graph0" class="graph" transform="scale(1 1) rotate(0) translate(4 423)">
<title>sendtoaddress</title>
<polygon fill="white" stroke="none" points="-4,4 -4,-423 655,-423 655,4 -4,4"/>
<!-- Node1 -->
<g id="node1" class="node"><title>Node1</title>
<polygon fill="#bfbfbf" stroke="black" points="0,-209.5 0,-228.5 82,-228.5 82,-209.5 0,-209.5"/>
<text text-anchor="middle" x="41" y="-216.5" font-family="Helvetica,sans-Serif" font-size="10.00">sendtoaddress</text>
</g>
<!-- Node2 -->
<g id="node2" class="node"><title>Node2</title>
<g id="a_node2"><a xlink:href="rpcwallet_8cpp.html#abcfbb0ad9335791f2832c01209b8f12d" target="_top" xlink:title="HelpRequiringPassphrase">
<polygon fill="white" stroke="black" points="137.5,-209.5 137.5,-228.5 270.5,-228.5 270.5,-209.5 137.5,-209.5"/>
<text text-anchor="middle" x="204" y="-216.5" font-family="Helvetica,sans-Serif" font-size="10.00">HelpRequiringPassphrase</text>
</a>
</g>
</g>
<!-- Node1&#45;&gt;Node2 -->
<g id="edge1" class="edge"><title>Node1&#45;&gt;Node2</title>
<path fill="none" stroke="midnightblue" d="M82.2118,-219C95.8879,-219 111.654,-219 127.187,-219"/>
<polygon fill="midnightblue" stroke="midnightblue" points="127.336,-222.5 137.336,-219 127.336,-215.5 127.336,-222.5"/>
</g>
<!-- Node4 -->
<g id="node4" class="node"><title>Node4</title>
<g id="a_node4"><a xlink:href="rpcserver_8cpp.html#ac01ac6eab5467567ed0da106814e04ec" target="_top" xlink:title="HelpExampleCli">
<polygon fill="white" stroke="black" points="160,-361.5 160,-380.5 248,-380.5 248,-361.5 160,-361.5"/>
<text text-anchor="middle" x="204" y="-368.5" font-family="Helvetica,sans-Serif" font-size="10.00">HelpExampleCli</text>
</a>
</g>
</g>
<!-- Node1&#45;&gt;Node4 -->
<g id="edge3" class="edge"><title>Node1&#45;&gt;Node4</title>
<path fill="none" stroke="midnightblue" d="M44.5205,-228.516C51.5697,-253.172 73.9203,-319.469 118,-352 127.316,-358.875 138.663,-363.338 149.994,-366.215"/>
<polygon fill="midnightblue" stroke="midnightblue" points="149.381,-369.663 159.895,-368.357 150.861,-362.822 149.381,-369.663"/>
</g>
<!-- Node5 -->
<g id="node5" class="node"><title>Node5</title>
<g id="a_node5"><a xlink:href="rpcserver_8cpp.html#a06ea60e24e5a1053a14a11b1009bf9ef" target="_top" xlink:title="HelpExampleRpc">
<polygon fill="white" stroke="black" points="157,-323.5 157,-342.5 251,-342.5 251,-323.5 157,-323.5"/>
<text text-anchor="middle" x="204" y="-330.5" font-family="Helvetica,sans-Serif" font-size="10.00">HelpExampleRpc</text>
</a>
</g>
</g>
<!-- Node1&#45;&gt;Node5 -->
<g id="edge4" class="edge"><title>Node1&#45;&gt;Node5</title>
<path fill="none" stroke="midnightblue" d="M47.5145,-228.785C58.473,-247.324 84.8206,-287.622 118,-309 126.791,-314.664 136.932,-319.014 147.078,-322.347"/>
<polygon fill="midnightblue" stroke="midnightblue" points="146.18,-325.732 156.764,-325.242 148.185,-319.025 146.18,-325.732"/>
</g>
<!-- Node6 -->
<g id="node6" class="node"><title>Node6</title>
<g id="a_node6"><a xlink:href="class_c_anoncoin_address.html#af5c7de8942a49523747a7d93e614779f" target="_top" xlink:title="CAnoncoinAddress::IsValid">
<polygon fill="white" stroke="black" points="327,-114.5 327,-133.5 465,-133.5 465,-114.5 327,-114.5"/>
<text text-anchor="middle" x="396" y="-121.5" font-family="Helvetica,sans-Serif" font-size="10.00">CAnoncoinAddress::IsValid</text>
</a>
</g>
</g>
<!-- Node1&#45;&gt;Node6 -->
<g id="edge5" class="edge"><title>Node1&#45;&gt;Node6</title>
<path fill="none" stroke="midnightblue" d="M51.3044,-209.458C64.7101,-196.357 90.8459,-173.159 118,-162 181.637,-135.848 259.721,-127.006 316.746,-124.323"/>
<polygon fill="midnightblue" stroke="midnightblue" points="316.937,-127.818 326.782,-123.904 316.645,-120.824 316.937,-127.818"/>
</g>
<!-- Node9 -->
<g id="node9" class="node"><title>Node9</title>
<g id="a_node9"><a xlink:href="rpcprotocol_8cpp.html#a17b1bb111ab339efc951929834766039" target="_top" xlink:title="JSONRPCError">
<polygon fill="white" stroke="black" points="352.5,-342.5 352.5,-361.5 439.5,-361.5 439.5,-342.5 352.5,-342.5"/>
<text text-anchor="middle" x="396" y="-349.5" font-family="Helvetica,sans-Serif" font-size="10.00">JSONRPCError</text>
</a>
</g>
</g>
<!-- Node1&#45;&gt;Node9 -->
<g id="edge8" class="edge"><title>Node1&#45;&gt;Node9</title>
<path fill="none" stroke="midnightblue" d="M51.8986,-228.671C65.5909,-241.488 91.6204,-263.887 118,-276 189.146,-308.669 216.5,-287.043 290,-314 306.985,-320.23 309.18,-326.337 326,-333 331.989,-335.372 338.382,-337.563 344.77,-339.548"/>
<polygon fill="midnightblue" stroke="midnightblue" points="344.163,-343.019 354.745,-342.496 346.146,-336.306 344.163,-343.019"/>
</g>
<!-- Node10 -->
<g id="node10" class="node"><title>Node10</title>
<g id="a_node10"><a xlink:href="rpcserver_8cpp.html#a24a3c6bbc75f2c852a8e7a00df4b2970" target="_top" xlink:title="AmountFromValue">
<polygon fill="white" stroke="black" points="154,-247.5 154,-266.5 254,-266.5 254,-247.5 154,-247.5"/>
<text text-anchor="middle" x="204" y="-254.5" font-family="Helvetica,sans-Serif" font-size="10.00">AmountFromValue</text>
</a>
</g>
</g>
<!-- Node1&#45;&gt;Node10 -->
<g id="edge9" class="edge"><title>Node1&#45;&gt;Node10</title>
<path fill="none" stroke="midnightblue" d="M79.451,-228.561C91.7195,-231.64 105.427,-235.024 118,-238 128.147,-240.402 138.996,-242.889 149.431,-245.24"/>
<polygon fill="midnightblue" stroke="midnightblue" points="148.75,-248.674 159.273,-247.446 150.281,-241.844 148.75,-248.674"/>
</g>
<!-- Node13 -->
<g id="node13" class="node"><title>Node13</title>
<g id="a_node13"><a xlink:href="rpcwallet_8cpp.html#a8f837f6d506b9719cef93188db00fd3c" target="_top" xlink:title="EnsureWalletIsUnlocked">
<polygon fill="white" stroke="black" points="141.5,-399.5 141.5,-418.5 266.5,-418.5 266.5,-399.5 141.5,-399.5"/>
<text text-anchor="middle" x="204" y="-406.5" font-family="Helvetica,sans-Serif" font-size="10.00">EnsureWalletIsUnlocked</text>
</a>
</g>
</g>
<!-- Node1&#45;&gt;Node13 -->
<g id="edge13" class="edge"><title>Node1&#45;&gt;Node13</title>
<path fill="none" stroke="midnightblue" d="M43.2415,-228.551C47.5639,-257.728 64.7172,-346.359 118,-390 122.241,-393.473 126.985,-396.344 132.004,-398.713"/>
<polygon fill="midnightblue" stroke="midnightblue" points="130.705,-401.963 141.289,-402.457 133.323,-395.471 130.705,-401.963"/>
</g>
<!-- Node15 -->
<g id="node15" class="node"><title>Node15</title>
<g id="a_node15"><a xlink:href="class_c_wallet.html#a3c31df6059e4eeb787af1b7134dc80e3" target="_top" xlink:title="CWallet::SendMoneyToDestination">
<polygon fill="white" stroke="black" points="118,-171.5 118,-190.5 290,-190.5 290,-171.5 118,-171.5"/>
<text text-anchor="middle" x="204" y="-178.5" font-family="Helvetica,sans-Serif" font-size="10.00">CWallet::SendMoneyToDestination</text>
</a>
</g>
</g>
<!-- Node1&#45;&gt;Node15 -->
<g id="edge17" class="edge"><title>Node1&#45;&gt;Node15</title>
<path fill="none" stroke="midnightblue" d="M79.451,-209.439C91.7195,-206.36 105.427,-202.976 118,-200 128.147,-197.598 138.996,-195.111 149.431,-192.76"/>
<polygon fill="midnightblue" stroke="midnightblue" points="150.281,-196.156 159.273,-190.554 148.75,-189.326 150.281,-196.156"/>
</g>
<!-- Node18 -->
<g id="node18" class="node"><title>Node18</title>
<g id="a_node18"><a xlink:href="class_c_anoncoin_address.html#a046d3fc0d98fdb1093a1d41e32adf43f" target="_top" xlink:title="CAnoncoinAddress::Get">
<polygon fill="white" stroke="black" points="142,-95.5 142,-114.5 266,-114.5 266,-95.5 142,-95.5"/>
<text text-anchor="middle" x="204" y="-102.5" font-family="Helvetica,sans-Serif" font-size="10.00">CAnoncoinAddress::Get</text>
</a>
</g>
</g>
<!-- Node1&#45;&gt;Node18 -->
<g id="edge20" class="edge"><title>Node1&#45;&gt;Node18</title>
<path fill="none" stroke="midnightblue" d="M47.5145,-209.215C58.473,-190.676 84.8206,-150.378 118,-129 125.041,-124.463 132.948,-120.77 141.029,-117.767"/>
<polygon fill="midnightblue" stroke="midnightblue" points="142.202,-121.065 150.556,-114.549 139.962,-114.433 142.202,-121.065"/>
</g>
<!-- Node21 -->
<g id="node21" class="node"><title>Node21</title>
<g id="a_node21"><a xlink:href="class_c_transaction.html#a3f8666d2a275c40da14bd5eaf47dc004" target="_top" xlink:title="CTransaction::GetHash">
<polygon fill="white" stroke="black" points="143.5,-57.5 143.5,-76.5 264.5,-76.5 264.5,-57.5 143.5,-57.5"/>
<text text-anchor="middle" x="204" y="-64.5" font-family="Helvetica,sans-Serif" font-size="10.00">CTransaction::GetHash</text>
</a>
</g>
</g>
<!-- Node1&#45;&gt;Node21 -->
<g id="edge25" class="edge"><title>Node1&#45;&gt;Node21</title>
<path fill="none" stroke="midnightblue" d="M44.5205,-209.484C51.5697,-184.828 73.9203,-118.531 118,-86 122.754,-82.4912 128.038,-79.6108 133.578,-77.2489"/>
<polygon fill="midnightblue" stroke="midnightblue" points="134.922,-80.4839 143.097,-73.7439 132.503,-73.9151 134.922,-80.4839"/>
</g>
<!-- Node24 -->
<g id="node24" class="node"><title>Node24</title>
<g id="a_node24"><a xlink:href="classbase__uint.html#ac9929c28600796a9acf75881bb750576" target="_top" xlink:title="base_uint::GetHex">
<polygon fill="white" stroke="black" points="154.5,-19.5 154.5,-38.5 253.5,-38.5 253.5,-19.5 154.5,-19.5"/>
<text text-anchor="middle" x="204" y="-26.5" font-family="Helvetica,sans-Serif" font-size="10.00">base_uint::GetHex</text>
</a>
</g>
</g>
<!-- Node1&#45;&gt;Node24 -->
<g id="edge28" class="edge"><title>Node1&#45;&gt;Node24</title>
<path fill="none" stroke="midnightblue" d="M43.2415,-209.449C47.5639,-180.272 64.7172,-91.6407 118,-48 125.554,-41.8133 134.704,-37.5388 144.166,-34.6054"/>
<polygon fill="midnightblue" stroke="midnightblue" points="145.296,-37.9276 154.085,-32.0101 143.524,-31.1556 145.296,-37.9276"/>
</g>
<!-- Node3 -->
<g id="node3" class="node"><title>Node3</title>
<g id="a_node3"><a xlink:href="class_c_crypto_key_store.html#a1cb434078a9ea686c0acf168d2c81252" target="_top" xlink:title="CCryptoKeyStore::IsCrypted">
<polygon fill="white" stroke="black" points="505,-313.5 505,-332.5 648,-332.5 648,-313.5 505,-313.5"/>
<text text-anchor="middle" x="576.5" y="-320.5" font-family="Helvetica,sans-Serif" font-size="10.00">CCryptoKeyStore::IsCrypted</text>
</a>
</g>
</g>
<!-- Node2&#45;&gt;Node3 -->
<g id="edge2" class="edge"><title>Node2&#45;&gt;Node3</title>
<path fill="none" stroke="midnightblue" d="M270.547,-221.36C324.404,-224.98 401.974,-234.099 466,-257 499.466,-268.97 533.907,-291.788 555.01,-307.199"/>
<polygon fill="midnightblue" stroke="midnightblue" points="553.086,-310.13 563.196,-313.298 557.268,-304.517 553.086,-310.13"/>
</g>
<!-- Node7 -->
<g id="node7" class="node"><title>Node7</title>
<g id="a_node7"><a xlink:href="chainparams_8cpp.html#ace5c5b706d71a324a417dd2db394fd4a" target="_top" xlink:title="Return the currently selected parameters. ">
<polygon fill="white" stroke="black" points="551,-76.5 551,-95.5 602,-95.5 602,-76.5 551,-76.5"/>
<text text-anchor="middle" x="576.5" y="-83.5" font-family="Helvetica,sans-Serif" font-size="10.00">Params</text>
</a>
</g>
</g>
<!-- Node6&#45;&gt;Node7 -->
<g id="edge6" class="edge"><title>Node6&#45;&gt;Node7</title>
<path fill="none" stroke="midnightblue" d="M442.043,-114.411C472.766,-107.871 512.838,-99.3399 541.025,-93.3392"/>
<polygon fill="midnightblue" stroke="midnightblue" points="541.781,-96.7569 550.833,-91.2513 540.323,-89.9103 541.781,-96.7569"/>
</g>
<!-- Node8 -->
<g id="node8" class="node"><title>Node8</title>
<g id="a_node8"><a xlink:href="class_c_chain_params.html#a6088d3a4f45d89c90e7e6117c3c5720d" target="_top" xlink:title="CChainParams::Base58Prefix">
<polygon fill="white" stroke="black" points="502,-114.5 502,-133.5 651,-133.5 651,-114.5 502,-114.5"/>
<text text-anchor="middle" x="576.5" y="-121.5" font-family="Helvetica,sans-Serif" font-size="10.00">CChainParams::Base58Prefix</text>
</a>
</g>
</g>
<!-- Node6&#45;&gt;Node8 -->
<g id="edge7" class="edge"><title>Node6&#45;&gt;Node8</title>
<path fill="none" stroke="midnightblue" d="M465.247,-124C473.971,-124 482.979,-124 491.911,-124"/>
<polygon fill="midnightblue" stroke="midnightblue" points="491.944,-127.5 501.944,-124 491.944,-120.5 491.944,-127.5"/>
</g>
<!-- Node10&#45;&gt;Node9 -->
<g id="edge10" class="edge"><title>Node10&#45;&gt;Node9</title>
<path fill="none" stroke="midnightblue" d="M254.356,-264.805C266.764,-268.356 279.519,-273.514 290,-281 312.874,-297.337 303.073,-316.737 326,-333 331.121,-336.633 336.909,-339.571 342.9,-341.949"/>
<polygon fill="midnightblue" stroke="midnightblue" points="341.823,-345.279 352.417,-345.242 344.111,-338.664 341.823,-345.279"/>
</g>
<!-- Node11 -->
<g id="node11" class="node"><title>Node11</title>
<g id="a_node11"><a xlink:href="util_8h.html#a27346c9c6df4174d2fa64b798b98eff5" target="_top" xlink:title="roundint64">
<polygon fill="white" stroke="black" points="364,-304.5 364,-323.5 428,-323.5 428,-304.5 364,-304.5"/>
<text text-anchor="middle" x="396" y="-311.5" font-family="Helvetica,sans-Serif" font-size="10.00">roundint64</text>
</a>
</g>
</g>
<!-- Node10&#45;&gt;Node11 -->
<g id="edge11" class="edge"><title>Node10&#45;&gt;Node11</title>
<path fill="none" stroke="midnightblue" d="M241.634,-266.518C256.714,-270.65 274.296,-275.743 290,-281 306.279,-286.45 309.703,-289.603 326,-295 335.008,-297.983 344.783,-300.878 354.065,-303.471"/>
<polygon fill="midnightblue" stroke="midnightblue" points="353.315,-306.894 363.884,-306.156 355.162,-300.142 353.315,-306.894"/>
</g>
<!-- Node12 -->
<g id="node12" class="node"><title>Node12</title>
<g id="a_node12"><a xlink:href="core_8h.html#ad1d9a769fa327ea042e0c9fadeb4836b" target="_top" xlink:title="MoneyRange">
<polygon fill="white" stroke="black" points="358,-266.5 358,-285.5 434,-285.5 434,-266.5 358,-266.5"/>
<text text-anchor="middle" x="396" y="-273.5" font-family="Helvetica,sans-Serif" font-size="10.00">MoneyRange</text>
</a>
</g>
</g>
<!-- Node10&#45;&gt;Node12 -->
<g id="edge12" class="edge"><title>Node10&#45;&gt;Node12</title>
<path fill="none" stroke="midnightblue" d="M254.424,-261.942C283.215,-264.821 319.324,-268.432 347.737,-271.274"/>
<polygon fill="midnightblue" stroke="midnightblue" points="347.53,-274.77 357.828,-272.283 348.226,-267.805 347.53,-274.77"/>
</g>
<!-- Node13&#45;&gt;Node9 -->
<g id="edge16" class="edge"><title>Node13&#45;&gt;Node9</title>
<path fill="none" stroke="midnightblue" d="M252.926,-399.407C265.097,-396.665 278.096,-393.469 290,-390 314.312,-382.915 341.151,-373.166 361.608,-365.317"/>
<polygon fill="midnightblue" stroke="midnightblue" points="363.042,-368.516 371.1,-361.637 360.511,-361.989 363.042,-368.516"/>
</g>
<!-- Node14 -->
<g id="node14" class="node"><title>Node14</title>
<g id="a_node14"><a xlink:href="class_c_crypto_key_store.html#a1c3ebef555fd13676d67509b95820fcf" target="_top" xlink:title="CCryptoKeyStore::IsLocked">
<polygon fill="white" stroke="black" points="326,-399.5 326,-418.5 466,-418.5 466,-399.5 326,-399.5"/>
<text text-anchor="middle" x="396" y="-406.5" font-family="Helvetica,sans-Serif" font-size="10.00">CCryptoKeyStore::IsLocked</text>
</a>
</g>
</g>
<!-- Node13&#45;&gt;Node14 -->
<g id="edge14" class="edge"><title>Node13&#45;&gt;Node14</title>
<path fill="none" stroke="midnightblue" d="M266.688,-409C282.301,-409 299.289,-409 315.642,-409"/>
<polygon fill="midnightblue" stroke="midnightblue" points="315.723,-412.5 325.723,-409 315.723,-405.5 315.723,-412.5"/>
</g>
<!-- Node14&#45;&gt;Node3 -->
<g id="edge15" class="edge"><title>Node14&#45;&gt;Node3</title>
<path fill="none" stroke="midnightblue" d="M416.785,-399.468C448.281,-384.293 509.985,-354.565 546.485,-336.979"/>
<polygon fill="midnightblue" stroke="midnightblue" points="548.137,-340.068 555.627,-332.575 545.099,-333.762 548.137,-340.068"/>
</g>
<!-- Node16 -->
<g id="node16" class="node"><title>Node16</title>
<g id="a_node16"><a xlink:href="ui__interface_8h.html#aad133bb6103b53cebf03fd01e2f11ba1" target="_top" xlink:title="Translation function: Call Translate signal on UI interface, which returns a boost::optional result...">
<polygon fill="white" stroke="black" points="381.5,-152.5 381.5,-171.5 410.5,-171.5 410.5,-152.5 381.5,-152.5"/>
<text text-anchor="middle" x="396" y="-159.5" font-family="Helvetica,sans-Serif" font-size="10.00">_</text>
</a>
</g>
</g>
<!-- Node15&#45;&gt;Node16 -->
<g id="edge18" class="edge"><title>Node15&#45;&gt;Node16</title>
<path fill="none" stroke="midnightblue" d="M290.274,-172.473C319.877,-169.512 350.752,-166.425 371.241,-164.376"/>
<polygon fill="midnightblue" stroke="midnightblue" points="371.611,-167.856 381.213,-163.379 370.915,-160.891 371.611,-167.856"/>
</g>
<!-- Node17 -->
<g id="node17" class="node"><title>Node17</title>
<g id="a_node17"><a xlink:href="class_c_script.html#ad1b5a9077241aa06116040c4f1b7c31e" target="_top" xlink:title="CScript::SetDestination">
<polygon fill="white" stroke="black" points="336,-190.5 336,-209.5 456,-209.5 456,-190.5 336,-190.5"/>
<text text-anchor="middle" x="396" y="-197.5" font-family="Helvetica,sans-Serif" font-size="10.00">CScript::SetDestination</text>
</a>
</g>
</g>
<!-- Node15&#45;&gt;Node17 -->
<g id="edge19" class="edge"><title>Node15&#45;&gt;Node17</title>
<path fill="none" stroke="midnightblue" d="M290.274,-189.527C302.177,-190.718 314.286,-191.929 325.842,-193.084"/>
<polygon fill="midnightblue" stroke="midnightblue" points="325.538,-196.571 335.837,-194.084 326.235,-189.606 325.538,-196.571"/>
</g>
<!-- Node18&#45;&gt;Node6 -->
<g id="edge21" class="edge"><title>Node18&#45;&gt;Node6</title>
<path fill="none" stroke="midnightblue" d="M266.163,-111.116C282.154,-112.715 299.616,-114.462 316.377,-116.138"/>
<polygon fill="midnightblue" stroke="midnightblue" points="316.405,-119.658 326.703,-117.17 317.101,-112.693 316.405,-119.658"/>
</g>
<!-- Node18&#45;&gt;Node7 -->
<g id="edge24" class="edge"><title>Node18&#45;&gt;Node7</title>
<path fill="none" stroke="midnightblue" d="M266.181,-101.863C344.48,-97.8472 477.509,-91.0252 540.474,-87.7962"/>
<polygon fill="midnightblue" stroke="midnightblue" points="540.866,-91.2808 550.674,-87.2731 540.508,-84.29 540.866,-91.2808"/>
</g>
<!-- Node19 -->
<g id="node19" class="node"><title>Node19</title>
<g id="a_node19"><a xlink:href="glibc__compat_8cpp.html#a0f46826ab0466591e136db24394923cf" target="_top" xlink:title="memcpy">
<polygon fill="white" stroke="black" points="369,-38.5 369,-57.5 423,-57.5 423,-38.5 369,-38.5"/>
<text text-anchor="middle" x="396" y="-45.5" font-family="Helvetica,sans-Serif" font-size="10.00">memcpy</text>
</a>
</g>
</g>
<!-- Node18&#45;&gt;Node19 -->
<g id="edge22" class="edge"><title>Node18&#45;&gt;Node19</title>
<path fill="none" stroke="midnightblue" d="M253.876,-95.4004C265.786,-92.6978 278.427,-89.5217 290,-86 306.424,-81.0022 309.89,-77.932 326,-72 336.753,-68.0407 348.509,-63.8869 359.222,-60.1689"/>
<polygon fill="midnightblue" stroke="midnightblue" points="360.397,-63.466 368.709,-56.8952 358.114,-56.849 360.397,-63.466"/>
</g>
<!-- Node20 -->
<g id="node20" class="node"><title>Node20</title>
<g id="a_node20"><a xlink:href="glibc__compat_8cpp.html#a9778d49e9029dd75bc53ecbbf9f5e9a1" target="_top" xlink:title="memmove">
<polygon fill="white" stroke="black" points="545,-38.5 545,-57.5 608,-57.5 608,-38.5 545,-38.5"/>
<text text-anchor="middle" x="576.5" y="-45.5" font-family="Helvetica,sans-Serif" font-size="10.00">memmove</text>
</a>
</g>
</g>
<!-- Node19&#45;&gt;Node20 -->
<g id="edge23" class="edge"><title>Node19&#45;&gt;Node20</title>
<path fill="none" stroke="midnightblue" d="M423.338,-48C452.692,-48 500.52,-48 534.719,-48"/>
<polygon fill="midnightblue" stroke="midnightblue" points="534.859,-51.5001 544.859,-48 534.859,-44.5001 534.859,-51.5001"/>
</g>
<!-- Node22 -->
<g id="node22" class="node"><title>Node22</title>
<g id="a_node22"><a xlink:href="hash_8h.html#a6de694e43f17c62025c6883965b65e63" target="_top" xlink:title="SerializeHash">
<polygon fill="white" stroke="black" points="357,-0.5 357,-19.5 435,-19.5 435,-0.5 357,-0.5"/>
<text text-anchor="middle" x="396" y="-7.5" font-family="Helvetica,sans-Serif" font-size="10.00">SerializeHash</text>
</a>
</g>
</g>
<!-- Node21&#45;&gt;Node22 -->
<g id="edge26" class="edge"><title>Node21&#45;&gt;Node22</title>
<path fill="none" stroke="midnightblue" d="M257.777,-57.493C268.59,-54.9101 279.783,-51.7615 290,-48 306.978,-41.7494 309.18,-35.6629 326,-29 332.751,-26.3259 340.015,-23.8826 347.206,-21.7041"/>
<polygon fill="midnightblue" stroke="midnightblue" points="348.276,-25.0381 356.912,-18.9007 346.334,-18.313 348.276,-25.0381"/>
</g>
<!-- Node23 -->
<g id="node23" class="node"><title>Node23</title>
<g id="a_node23"><a xlink:href="class_c_hash_writer.html#ae94a937211502eabf19477630090093a" target="_top" xlink:title="CHashWriter::GetHash">
<polygon fill="white" stroke="black" points="517,-0.5 517,-19.5 636,-19.5 636,-0.5 517,-0.5"/>
<text text-anchor="middle" x="576.5" y="-7.5" font-family="Helvetica,sans-Serif" font-size="10.00">CHashWriter::GetHash</text>
</a>
</g>
</g>
<!-- Node22&#45;&gt;Node23 -->
<g id="edge27" class="edge"><title>Node22&#45;&gt;Node23</title>
<path fill="none" stroke="midnightblue" d="M435.293,-10C456.088,-10 482.434,-10 506.66,-10"/>
<polygon fill="midnightblue" stroke="midnightblue" points="506.89,-13.5001 516.89,-10 506.89,-6.5001 506.89,-13.5001"/>
</g>
</g>
</svg>
