<?xml version="1.0" encoding="UTF-8" standalone="no"?>
<!DOCTYPE svg PUBLIC "-//W3C//DTD SVG 1.1//EN"
 "http://www.w3.org/Graphics/SVG/1.1/DTD/svg11.dtd">
<!-- Generated by graphviz version 2.38.0 (20140413.2041)
 -->
<!-- Title: listsinceblock Pages: 1 -->
<svg width="1281pt" height="616pt"
 viewBox="0.00 0.00 1281.00 616.00" xmlns="http://www.w3.org/2000/svg" xmlns:xlink="http://www.w3.org/1999/xlink">
<g id="graph0" class="graph" transform="scale(1 1) rotate(0) translate(4 612)">
<title>listsinceblock</title>
<polygon fill="white" stroke="none" points="-4,4 -4,-612 1277,-612 1277,4 -4,4"/>
<!-- Node1 -->
<g id="node1" class="node"><title>Node1</title>
<polygon fill="#bfbfbf" stroke="black" points="0,-436.5 0,-455.5 75,-455.5 75,-436.5 0,-436.5"/>
<text text-anchor="middle" x="37.5" y="-443.5" font-family="Helvetica,sans-Serif" font-size="10.00">listsinceblock</text>
</g>
<!-- Node2 -->
<g id="node2" class="node"><title>Node2</title>
<g id="a_node2"><a xlink:href="rpcserver_8cpp.html#ac01ac6eab5467567ed0da106814e04ec" target="_top" xlink:title="HelpExampleCli">
<polygon fill="white" stroke="black" points="138,-588.5 138,-607.5 226,-607.5 226,-588.5 138,-588.5"/>
<text text-anchor="middle" x="182" y="-595.5" font-family="Helvetica,sans-Serif" font-size="10.00">HelpExampleCli</text>
</a>
</g>
</g>
<!-- Node1&#45;&gt;Node2 -->
<g id="edge1" class="edge"><title>Node1&#45;&gt;Node2</title>
<path fill="none" stroke="midnightblue" d="M40.948,-455.755C47.6511,-480.402 68.6891,-545.591 111,-579 116.059,-582.995 121.893,-586.151 127.991,-588.646"/>
<polygon fill="midnightblue" stroke="midnightblue" points="127.121,-592.049 137.716,-592.045 129.431,-585.441 127.121,-592.049"/>
</g>
<!-- Node3 -->
<g id="node3" class="node"><title>Node3</title>
<g id="a_node3"><a xlink:href="rpcserver_8cpp.html#a06ea60e24e5a1053a14a11b1009bf9ef" target="_top" xlink:title="HelpExampleRpc">
<polygon fill="white" stroke="black" points="135,-550.5 135,-569.5 229,-569.5 229,-550.5 135,-550.5"/>
<text text-anchor="middle" x="182" y="-557.5" font-family="Helvetica,sans-Serif" font-size="10.00">HelpExampleRpc</text>
</a>
</g>
</g>
<!-- Node1&#45;&gt;Node3 -->
<g id="edge2" class="edge"><title>Node1&#45;&gt;Node3</title>
<path fill="none" stroke="midnightblue" d="M43.1689,-455.766C52.9349,-475.121 77.4273,-518.425 111,-541 115.33,-543.912 120.092,-546.379 125.034,-548.468"/>
<polygon fill="midnightblue" stroke="midnightblue" points="124.096,-551.853 134.69,-552.04 126.525,-545.288 124.096,-551.853"/>
</g>
<!-- Node4 -->
<g id="node4" class="node"><title>Node4</title>
<g id="a_node4"><a xlink:href="classbase__uint.html#ade1a897fac931f28f54998c92c797228" target="_top" xlink:title="base_uint::SetHex">
<polygon fill="white" stroke="black" points="133,-512.5 133,-531.5 231,-531.5 231,-512.5 133,-512.5"/>
<text text-anchor="middle" x="182" y="-519.5" font-family="Helvetica,sans-Serif" font-size="10.00">base_uint::SetHex</text>
</a>
</g>
</g>
<!-- Node1&#45;&gt;Node4 -->
<g id="edge3" class="edge"><title>Node1&#45;&gt;Node4</title>
<path fill="none" stroke="midnightblue" d="M47.9385,-455.513C60.9955,-468.151 85.8209,-490.347 111,-503 115.594,-505.308 120.503,-507.364 125.51,-509.188"/>
<polygon fill="midnightblue" stroke="midnightblue" points="124.608,-512.577 135.202,-512.418 126.821,-505.936 124.608,-512.577"/>
</g>
<!-- Node6 -->
<g id="node6" class="node"><title>Node6</title>
<g id="a_node6"><a xlink:href="rpcprotocol_8cpp.html#a17b1bb111ab339efc951929834766039" target="_top" xlink:title="JSONRPCError">
<polygon fill="white" stroke="black" points="138.5,-474.5 138.5,-493.5 225.5,-493.5 225.5,-474.5 138.5,-474.5"/>
<text text-anchor="middle" x="182" y="-481.5" font-family="Helvetica,sans-Serif" font-size="10.00">JSONRPCError</text>
</a>
</g>
</g>
<!-- Node1&#45;&gt;Node6 -->
<g id="edge5" class="edge"><title>Node1&#45;&gt;Node6</title>
<path fill="none" stroke="midnightblue" d="M74.4588,-455.589C92.9385,-460.517 115.656,-466.575 135.359,-471.829"/>
<polygon fill="midnightblue" stroke="midnightblue" points="134.489,-475.219 145.053,-474.414 136.292,-468.456 134.489,-475.219"/>
</g>
<!-- Node7 -->
<g id="node7" class="node"><title>Node7</title>
<g id="a_node7"><a xlink:href="class_c_chain.html#a0c4ffb8501acfb8a7e1c0f5e6322ada3" target="_top" xlink:title="Return the maximal height in the chain. ">
<polygon fill="white" stroke="black" points="140,-436.5 140,-455.5 224,-455.5 224,-436.5 140,-436.5"/>
<text text-anchor="middle" x="182" y="-443.5" font-family="Helvetica,sans-Serif" font-size="10.00">CChain::Height</text>
</a>
</g>
</g>
<!-- Node1&#45;&gt;Node7 -->
<g id="edge6" class="edge"><title>Node1&#45;&gt;Node7</title>
<path fill="none" stroke="midnightblue" d="M75.1973,-446C91.819,-446 111.751,-446 129.811,-446"/>
<polygon fill="midnightblue" stroke="midnightblue" points="129.903,-449.5 139.903,-446 129.903,-442.5 129.903,-449.5"/>
</g>
<!-- Node8 -->
<g id="node8" class="node"><title>Node8</title>
<g id="a_node8"><a xlink:href="class_c_merkle_tx.html#a1db61eaa33fcb975115116ecf85d0c6c" target="_top" xlink:title="CMerkleTx::GetDepthInMain\lChain">
<polygon fill="white" stroke="black" points="488,-229 488,-259 631,-259 631,-229 488,-229"/>
<text text-anchor="start" x="496" y="-247" font-family="Helvetica,sans-Serif" font-size="10.00">CMerkleTx::GetDepthInMain</text>
<text text-anchor="middle" x="559.5" y="-236" font-family="Helvetica,sans-Serif" font-size="10.00">Chain</text>
</a>
</g>
</g>
<!-- Node1&#45;&gt;Node8 -->
<g id="edge7" class="edge"><title>Node1&#45;&gt;Node8</title>
<path fill="none" stroke="midnightblue" d="M70.7545,-436.473C83.2352,-433.07 97.6952,-429.471 111,-427 185.965,-413.076 393.446,-437.837 452,-389 494.761,-353.335 449.61,-309.332 488,-269 489.377,-267.554 490.842,-266.191 492.381,-264.907"/>
<polygon fill="midnightblue" stroke="midnightblue" points="494.445,-267.735 500.614,-259.121 490.42,-262.008 494.445,-267.735"/>
</g>
<!-- Node10 -->
<g id="node10" class="node"><title>Node10</title>
<g id="a_node10"><a xlink:href="rpcwallet_8cpp.html#a460d931e7f098979bea783409c971d53" target="_top" xlink:title="ListTransactions">
<polygon fill="white" stroke="black" points="137.5,-228.5 137.5,-247.5 226.5,-247.5 226.5,-228.5 137.5,-228.5"/>
<text text-anchor="middle" x="182" y="-235.5" font-family="Helvetica,sans-Serif" font-size="10.00">ListTransactions</text>
</a>
</g>
</g>
<!-- Node1&#45;&gt;Node10 -->
<g id="edge9" class="edge"><title>Node1&#45;&gt;Node10</title>
<path fill="none" stroke="midnightblue" d="M45.1819,-436.247C67.4303,-403.772 139.241,-298.953 168.459,-256.305"/>
<polygon fill="midnightblue" stroke="midnightblue" points="171.402,-258.202 174.167,-247.974 165.627,-254.246 171.402,-258.202"/>
</g>
<!-- Node32 -->
<g id="node32" class="node"><title>Node32</title>
<g id="a_node32"><a xlink:href="classbase__uint.html#ac9929c28600796a9acf75881bb750576" target="_top" xlink:title="base_uint::GetHex">
<polygon fill="white" stroke="black" points="510,-38.5 510,-57.5 609,-57.5 609,-38.5 510,-38.5"/>
<text text-anchor="middle" x="559.5" y="-45.5" font-family="Helvetica,sans-Serif" font-size="10.00">base_uint::GetHex</text>
</a>
</g>
</g>
<!-- Node1&#45;&gt;Node32 -->
<g id="edge43" class="edge"><title>Node1&#45;&gt;Node32</title>
<path fill="none" stroke="midnightblue" d="M39.6946,-436.098C44.0927,-402.84 61.7659,-293.079 111,-219 168.583,-132.36 192.725,-106.414 289,-67 357.243,-39.0617 443.308,-38.2726 499.567,-41.8237"/>
<polygon fill="midnightblue" stroke="midnightblue" points="499.495,-45.3271 509.714,-42.5318 499.982,-38.3441 499.495,-45.3271"/>
</g>
<!-- Node39 -->
<g id="node39" class="node"><title>Node39</title>
<g id="a_node39"><a xlink:href="class_c_block_index.html#ab843ef9b8b0a0193ec3a5c24738e484f" target="_top" xlink:title="CBlockIndex::GetBlockHash">
<polygon fill="white" stroke="black" points="111,-0.5 111,-19.5 253,-19.5 253,-0.5 111,-0.5"/>
<text text-anchor="middle" x="182" y="-7.5" font-family="Helvetica,sans-Serif" font-size="10.00">CBlockIndex::GetBlockHash</text>
</a>
</g>
</g>
<!-- Node1&#45;&gt;Node39 -->
<g id="edge42" class="edge"><title>Node1&#45;&gt;Node39</title>
<path fill="none" stroke="midnightblue" d="M38.8957,-436.445C41.3883,-380.684 56.6088,-97.6214 111,-34 114.222,-30.2313 118.063,-27.0534 122.264,-24.374"/>
<polygon fill="midnightblue" stroke="midnightblue" points="124.136,-27.3421 131.309,-19.5442 120.839,-21.1674 124.136,-27.3421"/>
</g>
<!-- Node5 -->
<g id="node5" class="node"><title>Node5</title>
<g id="a_node5"><a xlink:href="uint256_8h.html#aa59e8a8c5a39cb5041f93bb95dd02119" target="_top" xlink:title="HexDigit">
<polygon fill="white" stroke="black" points="343.5,-512.5 343.5,-531.5 397.5,-531.5 397.5,-512.5 343.5,-512.5"/>
<text text-anchor="middle" x="370.5" y="-519.5" font-family="Helvetica,sans-Serif" font-size="10.00">HexDigit</text>
</a>
</g>
</g>
<!-- Node4&#45;&gt;Node5 -->
<g id="edge4" class="edge"><title>Node4&#45;&gt;Node5</title>
<path fill="none" stroke="midnightblue" d="M231.028,-522C262.941,-522 304.177,-522 333.324,-522"/>
<polygon fill="midnightblue" stroke="midnightblue" points="333.476,-525.5 343.476,-522 333.476,-518.5 333.476,-525.5"/>
</g>
<!-- Node9 -->
<g id="node9" class="node"><title>Node9</title>
<g id="a_node9"><a xlink:href="class_c_tx_mem_pool.html#adba06e79be4a1a092dd2db8290733be7" target="_top" xlink:title="CTxMemPool::exists">
<polygon fill="white" stroke="black" points="667,-234.5 667,-253.5 775,-253.5 775,-234.5 667,-234.5"/>
<text text-anchor="middle" x="721" y="-241.5" font-family="Helvetica,sans-Serif" font-size="10.00">CTxMemPool::exists</text>
</a>
</g>
</g>
<!-- Node8&#45;&gt;Node9 -->
<g id="edge8" class="edge"><title>Node8&#45;&gt;Node9</title>
<path fill="none" stroke="midnightblue" d="M631.388,-244C639.695,-244 648.132,-244 656.332,-244"/>
<polygon fill="midnightblue" stroke="midnightblue" points="656.565,-247.5 666.565,-244 656.565,-240.5 656.565,-247.5"/>
</g>
<!-- Node10&#45;&gt;Node8 -->
<g id="edge39" class="edge"><title>Node10&#45;&gt;Node8</title>
<path fill="none" stroke="midnightblue" d="M226.81,-238.7C288.187,-239.681 400.854,-241.481 477.683,-242.709"/>
<polygon fill="midnightblue" stroke="midnightblue" points="477.752,-246.21 487.807,-242.87 477.864,-239.211 477.752,-246.21"/>
</g>
<!-- Node11 -->
<g id="node11" class="node"><title>Node11</title>
<g id="a_node11"><a xlink:href="class_c_wallet_tx.html#a19a09cfa7f9e3fb7d8666f616c838fb5" target="_top" xlink:title="CWalletTx::GetAmounts">
<polygon fill="white" stroke="black" points="308.5,-266.5 308.5,-285.5 432.5,-285.5 432.5,-266.5 308.5,-266.5"/>
<text text-anchor="middle" x="370.5" y="-273.5" font-family="Helvetica,sans-Serif" font-size="10.00">CWalletTx::GetAmounts</text>
</a>
</g>
</g>
<!-- Node10&#45;&gt;Node11 -->
<g id="edge10" class="edge"><title>Node10&#45;&gt;Node11</title>
<path fill="none" stroke="midnightblue" d="M226.726,-246.909C252.424,-252.145 285.191,-258.822 312.851,-264.458"/>
<polygon fill="midnightblue" stroke="midnightblue" points="312.29,-267.915 322.788,-266.482 313.688,-261.056 312.29,-267.915"/>
</g>
<!-- Node26 -->
<g id="node26" class="node"><title>Node26</title>
<g id="a_node26"><a xlink:href="class_c_wallet_tx.html#a5eab277896d1b553676316b862e2014b" target="_top" xlink:title="CWalletTx::IsFromMe">
<polygon fill="white" stroke="black" points="314,-190.5 314,-209.5 427,-209.5 427,-190.5 314,-190.5"/>
<text text-anchor="middle" x="370.5" y="-197.5" font-family="Helvetica,sans-Serif" font-size="10.00">CWalletTx::IsFromMe</text>
</a>
</g>
</g>
<!-- Node10&#45;&gt;Node26 -->
<g id="edge25" class="edge"><title>Node10&#45;&gt;Node26</title>
<path fill="none" stroke="midnightblue" d="M226.726,-229.091C252.424,-223.855 285.191,-217.178 312.851,-211.542"/>
<polygon fill="midnightblue" stroke="midnightblue" points="313.688,-214.944 322.788,-209.518 312.29,-208.085 313.688,-214.944"/>
</g>
<!-- Node27 -->
<g id="node27" class="node"><title>Node27</title>
<g id="a_node27"><a xlink:href="script_8cpp.html#adc59cf67d903c1ba1ef225561b85bfce" target="_top" xlink:title="IsMine">
<polygon fill="white" stroke="black" points="347.5,-304.5 347.5,-323.5 393.5,-323.5 393.5,-304.5 347.5,-304.5"/>
<text text-anchor="middle" x="370.5" y="-311.5" font-family="Helvetica,sans-Serif" font-size="10.00">IsMine</text>
</a>
</g>
</g>
<!-- Node10&#45;&gt;Node27 -->
<g id="edge26" class="edge"><title>Node10&#45;&gt;Node27</title>
<path fill="none" stroke="midnightblue" d="M197.852,-247.613C217.831,-260.157 254.812,-282.031 289,-295 304.49,-300.876 322.369,-305.315 337.337,-308.419"/>
<polygon fill="midnightblue" stroke="midnightblue" points="336.681,-311.857 347.169,-310.355 338.034,-304.989 336.681,-311.857"/>
</g>
<!-- Node29 -->
<g id="node29" class="node"><title>Node29</title>
<g id="a_node29"><a xlink:href="rpcserver_8cpp.html#a577ce17add6d7e837a6e0653f8c048a1" target="_top" xlink:title="ValueFromAmount">
<polygon fill="white" stroke="black" points="320.5,-76.5 320.5,-95.5 420.5,-95.5 420.5,-76.5 320.5,-76.5"/>
<text text-anchor="middle" x="370.5" y="-83.5" font-family="Helvetica,sans-Serif" font-size="10.00">ValueFromAmount</text>
</a>
</g>
</g>
<!-- Node10&#45;&gt;Node29 -->
<g id="edge29" class="edge"><title>Node10&#45;&gt;Node29</title>
<path fill="none" stroke="midnightblue" d="M188.267,-228.321C201.746,-204.474 239.91,-142.475 289,-110 295.745,-105.538 303.345,-101.883 311.113,-98.8948"/>
<polygon fill="midnightblue" stroke="midnightblue" points="312.34,-102.174 320.626,-95.5709 310.031,-95.5654 312.34,-102.174"/>
</g>
<!-- Node30 -->
<g id="node30" class="node"><title>Node30</title>
<g id="a_node30"><a xlink:href="rpcwallet_8cpp.html#a28e51f3edfce43e075603e9e315f40c4" target="_top" xlink:title="WalletTxToJSON">
<polygon fill="white" stroke="black" points="323.5,-152.5 323.5,-171.5 417.5,-171.5 417.5,-152.5 323.5,-152.5"/>
<text text-anchor="middle" x="370.5" y="-159.5" font-family="Helvetica,sans-Serif" font-size="10.00">WalletTxToJSON</text>
</a>
</g>
</g>
<!-- Node10&#45;&gt;Node30 -->
<g id="edge30" class="edge"><title>Node10&#45;&gt;Node30</title>
<path fill="none" stroke="midnightblue" d="M197.852,-228.387C217.831,-215.843 254.812,-193.969 289,-181 296.817,-178.035 305.241,-175.436 313.593,-173.189"/>
<polygon fill="midnightblue" stroke="midnightblue" points="314.495,-176.571 323.323,-170.714 312.769,-169.788 314.495,-176.571"/>
</g>
<!-- Node31 -->
<g id="node31" class="node"><title>Node31</title>
<g id="a_node31"><a xlink:href="class_c_transaction.html#a274384ecbb50d71355cd287b7a6bca51" target="_top" xlink:title="CTransaction::IsCoinBase">
<polygon fill="white" stroke="black" points="493,-76.5 493,-95.5 626,-95.5 626,-76.5 493,-76.5"/>
<text text-anchor="middle" x="559.5" y="-83.5" font-family="Helvetica,sans-Serif" font-size="10.00">CTransaction::IsCoinBase</text>
</a>
</g>
</g>
<!-- Node10&#45;&gt;Node31 -->
<g id="edge40" class="edge"><title>Node10&#45;&gt;Node31</title>
<path fill="none" stroke="midnightblue" d="M190.621,-228.403C206.618,-208.961 245.807,-164.918 289,-143 307.329,-133.699 422.576,-111.185 496.306,-97.3985"/>
<polygon fill="midnightblue" stroke="midnightblue" points="497.231,-100.787 506.42,-95.5134 495.948,-93.9051 497.231,-100.787"/>
</g>
<!-- Node38 -->
<g id="node38" class="node"><title>Node38</title>
<g id="a_node38"><a xlink:href="class_c_merkle_tx.html#a8bd25cf06de6a443d0925ec8ba66c949" target="_top" xlink:title="CMerkleTx::GetBlocksToMaturity">
<polygon fill="white" stroke="black" points="289,-360.5 289,-379.5 452,-379.5 452,-360.5 289,-360.5"/>
<text text-anchor="middle" x="370.5" y="-367.5" font-family="Helvetica,sans-Serif" font-size="10.00">CMerkleTx::GetBlocksToMaturity</text>
</a>
</g>
</g>
<!-- Node10&#45;&gt;Node38 -->
<g id="edge41" class="edge"><title>Node10&#45;&gt;Node38</title>
<path fill="none" stroke="midnightblue" d="M189.096,-247.657C203.546,-269.704 242.204,-323.922 289,-351 292.88,-353.245 297.011,-355.225 301.274,-356.972"/>
<polygon fill="midnightblue" stroke="midnightblue" points="300.177,-360.297 310.771,-360.434 302.574,-353.72 300.177,-360.297"/>
</g>
<!-- Node12 -->
<g id="node12" class="node"><title>Node12</title>
<g id="a_node12"><a xlink:href="script_8cpp.html#a951f7e601746ae076afdf3169ecca2fc" target="_top" xlink:title="ExtractDestination">
<polygon fill="white" stroke="black" points="510.5,-278.5 510.5,-297.5 608.5,-297.5 608.5,-278.5 510.5,-278.5"/>
<text text-anchor="middle" x="559.5" y="-285.5" font-family="Helvetica,sans-Serif" font-size="10.00">ExtractDestination</text>
</a>
</g>
</g>
<!-- Node11&#45;&gt;Node12 -->
<g id="edge11" class="edge"><title>Node11&#45;&gt;Node12</title>
<path fill="none" stroke="midnightblue" d="M432.731,-279.929C454.425,-281.321 478.762,-282.883 500.206,-284.259"/>
<polygon fill="midnightblue" stroke="midnightblue" points="500.272,-287.771 510.476,-284.918 500.72,-280.785 500.272,-287.771"/>
</g>
<!-- Node13 -->
<g id="node13" class="node"><title>Node13</title>
<g id="a_node13"><a xlink:href="script_8cpp.html#a6ee6be50bff44464e905680c6fcee6dc" target="_top" xlink:title="Solver">
<polygon fill="white" stroke="black" points="698.5,-275.5 698.5,-294.5 743.5,-294.5 743.5,-275.5 698.5,-275.5"/>
<text text-anchor="middle" x="721" y="-282.5" font-family="Helvetica,sans-Serif" font-size="10.00">Solver</text>
</a>
</g>
</g>
<!-- Node12&#45;&gt;Node13 -->
<g id="edge12" class="edge"><title>Node12&#45;&gt;Node13</title>
<path fill="none" stroke="midnightblue" d="M608.788,-287.092C634.592,-286.606 665.63,-286.023 688.351,-285.595"/>
<polygon fill="midnightblue" stroke="midnightblue" points="688.535,-289.093 698.467,-285.405 688.403,-282.094 688.535,-289.093"/>
</g>
<!-- Node22 -->
<g id="node22" class="node"><title>Node22</title>
<g id="a_node22"><a xlink:href="class_c_pub_key.html#a9c1908fef34fd9e1c4b5e0ffd5d3834e" target="_top" xlink:title="CPubKey::GetID">
<polygon fill="white" stroke="black" points="676,-351.5 676,-370.5 766,-370.5 766,-351.5 676,-351.5"/>
<text text-anchor="middle" x="721" y="-358.5" font-family="Helvetica,sans-Serif" font-size="10.00">CPubKey::GetID</text>
</a>
</g>
</g>
<!-- Node12&#45;&gt;Node22 -->
<g id="edge21" class="edge"><title>Node12&#45;&gt;Node22</title>
<path fill="none" stroke="midnightblue" d="M603.656,-297.56C612.847,-300.166 622.376,-303.31 631,-307 655.337,-317.413 680.96,-333.588 698.43,-345.522"/>
<polygon fill="midnightblue" stroke="midnightblue" points="696.564,-348.488 706.773,-351.323 700.561,-342.741 696.564,-348.488"/>
</g>
<!-- Node14 -->
<g id="node14" class="node"><title>Node14</title>
<g id="a_node14"><a xlink:href="util_8cpp.html#a64d956f1dda7f9a80ab5d594532b906d" target="_top" xlink:title="Return boolean argument or default value. ">
<polygon fill="white" stroke="black" points="847,-237.5 847,-256.5 915,-256.5 915,-237.5 847,-237.5"/>
<text text-anchor="middle" x="881" y="-244.5" font-family="Helvetica,sans-Serif" font-size="10.00">GetBoolArg</text>
</a>
</g>
</g>
<!-- Node13&#45;&gt;Node14 -->
<g id="edge13" class="edge"><title>Node13&#45;&gt;Node14</title>
<path fill="none" stroke="midnightblue" d="M743.638,-279.796C767.557,-274.043 806.696,-264.63 836.922,-257.361"/>
<polygon fill="midnightblue" stroke="midnightblue" points="837.892,-260.727 846.796,-254.986 836.255,-253.921 837.892,-260.727"/>
</g>
<!-- Node16 -->
<g id="node16" class="node"><title>Node16</title>
<g id="a_node16"><a xlink:href="class_c_script.html#acba6d6d35776de4ce3a632446f44805f" target="_top" xlink:title="CScript::IsPayToScriptHash">
<polygon fill="white" stroke="black" points="811,-199.5 811,-218.5 951,-218.5 951,-199.5 811,-199.5"/>
<text text-anchor="middle" x="881" y="-206.5" font-family="Helvetica,sans-Serif" font-size="10.00">CScript::IsPayToScriptHash</text>
</a>
</g>
</g>
<!-- Node13&#45;&gt;Node16 -->
<g id="edge15" class="edge"><title>Node13&#45;&gt;Node16</title>
<path fill="none" stroke="midnightblue" d="M743.556,-278.161C753.562,-274.469 765.348,-269.356 775,-263 793.637,-250.726 791.634,-239.088 811,-228 814.865,-225.787 819,-223.821 823.254,-222.077"/>
<polygon fill="midnightblue" stroke="midnightblue" points="824.523,-225.34 832.699,-218.602 822.105,-218.77 824.523,-225.34"/>
</g>
<!-- Node17 -->
<g id="node17" class="node"><title>Node17</title>
<g id="a_node17"><a xlink:href="class_c_script.html#a94635ed93d8d244ec3acfa83f9ecfe5f" target="_top" xlink:title="CScript::GetOp">
<polygon fill="white" stroke="black" points="839,-313.5 839,-332.5 923,-332.5 923,-313.5 839,-313.5"/>
<text text-anchor="middle" x="881" y="-320.5" font-family="Helvetica,sans-Serif" font-size="10.00">CScript::GetOp</text>
</a>
</g>
</g>
<!-- Node13&#45;&gt;Node17 -->
<g id="edge16" class="edge"><title>Node13&#45;&gt;Node17</title>
<path fill="none" stroke="midnightblue" d="M743.638,-290.204C765.865,-295.55 801.236,-304.057 830.384,-311.067"/>
<polygon fill="midnightblue" stroke="midnightblue" points="829.861,-314.541 840.402,-313.477 831.498,-307.735 829.861,-314.541"/>
</g>
<!-- Node21 -->
<g id="node21" class="node"><title>Node21</title>
<g id="a_node21"><a xlink:href="class_c_script.html#a7f975fca06b3e9a17da8ba23c7647e2e" target="_top" xlink:title="CScript::DecodeOP_N">
<polygon fill="white" stroke="black" points="822.5,-275.5 822.5,-294.5 939.5,-294.5 939.5,-275.5 822.5,-275.5"/>
<text text-anchor="middle" x="881" y="-282.5" font-family="Helvetica,sans-Serif" font-size="10.00">CScript::DecodeOP_N</text>
</a>
</g>
</g>
<!-- Node13&#45;&gt;Node21 -->
<g id="edge20" class="edge"><title>Node13&#45;&gt;Node21</title>
<path fill="none" stroke="midnightblue" d="M743.638,-285C761.391,-285 787.53,-285 812.185,-285"/>
<polygon fill="midnightblue" stroke="midnightblue" points="812.266,-288.5 822.266,-285 812.266,-281.5 812.266,-288.5"/>
</g>
<!-- Node15 -->
<g id="node15" class="node"><title>Node15</title>
<g id="a_node15"><a xlink:href="util_8h.html#aa5ce96ec36f4413f820cec9c1831c070" target="_top" xlink:title="atoi">
<polygon fill="white" stroke="black" points="1019,-237.5 1019,-256.5 1052,-256.5 1052,-237.5 1019,-237.5"/>
<text text-anchor="middle" x="1035.5" y="-244.5" font-family="Helvetica,sans-Serif" font-size="10.00">atoi</text>
</a>
</g>
</g>
<!-- Node14&#45;&gt;Node15 -->
<g id="edge14" class="edge"><title>Node14&#45;&gt;Node15</title>
<path fill="none" stroke="midnightblue" d="M915.09,-247C943.144,-247 982.821,-247 1008.6,-247"/>
<polygon fill="midnightblue" stroke="midnightblue" points="1008.73,-250.5 1018.73,-247 1008.73,-243.5 1008.73,-250.5"/>
</g>
<!-- Node18 -->
<g id="node18" class="node"><title>Node18</title>
<g id="a_node18"><a xlink:href="class_c_script.html#a93ec95275ccce9b701c8f53c57cd7975" target="_top" xlink:title="CScript::GetOp2">
<polygon fill="white" stroke="black" points="990.5,-313.5 990.5,-332.5 1080.5,-332.5 1080.5,-313.5 990.5,-313.5"/>
<text text-anchor="middle" x="1035.5" y="-320.5" font-family="Helvetica,sans-Serif" font-size="10.00">CScript::GetOp2</text>
</a>
</g>
</g>
<!-- Node17&#45;&gt;Node18 -->
<g id="edge17" class="edge"><title>Node17&#45;&gt;Node18</title>
<path fill="none" stroke="midnightblue" d="M923.269,-323C940.759,-323 961.385,-323 980.094,-323"/>
<polygon fill="midnightblue" stroke="midnightblue" points="980.259,-326.5 990.259,-323 980.259,-319.5 980.259,-326.5"/>
</g>
<!-- Node19 -->
<g id="node19" class="node"><title>Node19</title>
<g id="a_node19"><a xlink:href="glibc__compat_8cpp.html#a0f46826ab0466591e136db24394923cf" target="_top" xlink:title="memcpy">
<polygon fill="white" stroke="black" points="1120,-313.5 1120,-332.5 1174,-332.5 1174,-313.5 1120,-313.5"/>
<text text-anchor="middle" x="1147" y="-320.5" font-family="Helvetica,sans-Serif" font-size="10.00">memcpy</text>
</a>
</g>
</g>
<!-- Node18&#45;&gt;Node19 -->
<g id="edge18" class="edge"><title>Node18&#45;&gt;Node19</title>
<path fill="none" stroke="midnightblue" d="M1080.72,-323C1090.38,-323 1100.5,-323 1109.8,-323"/>
<polygon fill="midnightblue" stroke="midnightblue" points="1109.89,-326.5 1119.89,-323 1109.89,-319.5 1109.89,-326.5"/>
</g>
<!-- Node20 -->
<g id="node20" class="node"><title>Node20</title>
<g id="a_node20"><a xlink:href="glibc__compat_8cpp.html#a9778d49e9029dd75bc53ecbbf9f5e9a1" target="_top" xlink:title="memmove">
<polygon fill="white" stroke="black" points="1210,-313.5 1210,-332.5 1273,-332.5 1273,-313.5 1210,-313.5"/>
<text text-anchor="middle" x="1241.5" y="-320.5" font-family="Helvetica,sans-Serif" font-size="10.00">memmove</text>
</a>
</g>
</g>
<!-- Node19&#45;&gt;Node20 -->
<g id="edge19" class="edge"><title>Node19&#45;&gt;Node20</title>
<path fill="none" stroke="midnightblue" d="M1174.26,-323C1182.24,-323 1191.21,-323 1199.91,-323"/>
<polygon fill="midnightblue" stroke="midnightblue" points="1199.92,-326.5 1209.92,-323 1199.92,-319.5 1199.92,-326.5"/>
</g>
<!-- Node23 -->
<g id="node23" class="node"><title>Node23</title>
<g id="a_node23"><a xlink:href="hash_8h.html#a4490f70ddae16e9e48460a0416a48a6b" target="_top" xlink:title="Hash160">
<polygon fill="white" stroke="black" points="852.5,-389.5 852.5,-408.5 909.5,-408.5 909.5,-389.5 852.5,-389.5"/>
<text text-anchor="middle" x="881" y="-396.5" font-family="Helvetica,sans-Serif" font-size="10.00">Hash160</text>
</a>
</g>
</g>
<!-- Node22&#45;&gt;Node23 -->
<g id="edge22" class="edge"><title>Node22&#45;&gt;Node23</title>
<path fill="none" stroke="midnightblue" d="M761.87,-370.589C786.507,-376.514 817.937,-384.074 842.183,-389.905"/>
<polygon fill="midnightblue" stroke="midnightblue" points="841.553,-393.353 852.094,-392.288 843.189,-386.547 841.553,-393.353"/>
</g>
<!-- Node24 -->
<g id="node24" class="node"><title>Node24</title>
<g id="a_node24"><a xlink:href="class_c_pub_key.html#a9d7129b65b6dee792b4f3923cd64ed59" target="_top" xlink:title="CPubKey::size">
<polygon fill="white" stroke="black" points="840,-351.5 840,-370.5 922,-370.5 922,-351.5 840,-351.5"/>
<text text-anchor="middle" x="881" y="-358.5" font-family="Helvetica,sans-Serif" font-size="10.00">CPubKey::size</text>
</a>
</g>
</g>
<!-- Node22&#45;&gt;Node24 -->
<g id="edge23" class="edge"><title>Node22&#45;&gt;Node24</title>
<path fill="none" stroke="midnightblue" d="M766.012,-361C785.774,-361 809.198,-361 829.656,-361"/>
<polygon fill="midnightblue" stroke="midnightblue" points="829.739,-364.5 839.739,-361 829.739,-357.5 829.739,-364.5"/>
</g>
<!-- Node25 -->
<g id="node25" class="node"><title>Node25</title>
<g id="a_node25"><a xlink:href="class_c_pub_key.html#a7dc71b3f037c84268dc22de97d7b65fb" target="_top" xlink:title="CPubKey::GetLen">
<polygon fill="white" stroke="black" points="987,-351.5 987,-370.5 1084,-370.5 1084,-351.5 987,-351.5"/>
<text text-anchor="middle" x="1035.5" y="-358.5" font-family="Helvetica,sans-Serif" font-size="10.00">CPubKey::GetLen</text>
</a>
</g>
</g>
<!-- Node24&#45;&gt;Node25 -->
<g id="edge24" class="edge"><title>Node24&#45;&gt;Node25</title>
<path fill="none" stroke="midnightblue" d="M922.068,-361C938.743,-361 958.425,-361 976.622,-361"/>
<polygon fill="midnightblue" stroke="midnightblue" points="976.839,-364.5 986.839,-361 976.839,-357.5 976.839,-364.5"/>
</g>
<!-- Node27&#45;&gt;Node27 -->
<g id="edge28" class="edge"><title>Node27&#45;&gt;Node27</title>
<path fill="none" stroke="midnightblue" d="M347.352,-320.749C325.515,-330.262 333.23,-342 370.5,-342 401.073,-342 411.758,-334.102 402.557,-326.012"/>
<polygon fill="midnightblue" stroke="midnightblue" points="404.038,-322.821 393.648,-320.749 400.478,-328.848 404.038,-322.821"/>
</g>
<!-- Node28 -->
<g id="node28" class="node"><title>Node28</title>
<g id="a_node28"><a xlink:href="class_c_script.html#ad1b5a9077241aa06116040c4f1b7c31e" target="_top" xlink:title="CScript::SetDestination">
<polygon fill="white" stroke="black" points="499.5,-316.5 499.5,-335.5 619.5,-335.5 619.5,-316.5 499.5,-316.5"/>
<text text-anchor="middle" x="559.5" y="-323.5" font-family="Helvetica,sans-Serif" font-size="10.00">CScript::SetDestination</text>
</a>
</g>
</g>
<!-- Node27&#45;&gt;Node28 -->
<g id="edge27" class="edge"><title>Node27&#45;&gt;Node28</title>
<path fill="none" stroke="midnightblue" d="M393.686,-315.424C417.095,-316.926 455.189,-319.37 488.859,-321.531"/>
<polygon fill="midnightblue" stroke="midnightblue" points="488.942,-325.043 499.145,-322.191 489.39,-318.058 488.942,-325.043"/>
</g>
<!-- Node30&#45;&gt;Node8 -->
<g id="edge31" class="edge"><title>Node30&#45;&gt;Node8</title>
<path fill="none" stroke="midnightblue" d="M417.528,-168.059C429.284,-170.871 441.545,-174.985 452,-181 472.165,-192.602 468.497,-206.317 488,-219 491.065,-220.993 494.309,-222.851 497.655,-224.578"/>
<polygon fill="midnightblue" stroke="midnightblue" points="496.162,-227.743 506.699,-228.849 499.151,-221.414 496.162,-227.743"/>
</g>
<!-- Node30&#45;&gt;Node31 -->
<g id="edge32" class="edge"><title>Node30&#45;&gt;Node31</title>
<path fill="none" stroke="midnightblue" d="M416.416,-152.49C428.426,-148.925 441.09,-144.187 452,-138 470.881,-127.293 468.979,-115.455 488,-105 492.155,-102.716 496.602,-100.694 501.165,-98.9054"/>
<polygon fill="midnightblue" stroke="midnightblue" points="502.38,-102.188 510.641,-95.5548 500.046,-95.5888 502.38,-102.188"/>
</g>
<!-- Node30&#45;&gt;Node32 -->
<g id="edge33" class="edge"><title>Node30&#45;&gt;Node32</title>
<path fill="none" stroke="midnightblue" d="M386.996,-152.334C403.711,-141.616 430.78,-123.397 452,-105 469.578,-89.7602 468.02,-78.9178 488,-67 491.839,-64.7099 495.959,-62.6902 500.208,-60.9099"/>
<polygon fill="midnightblue" stroke="midnightblue" points="501.515,-64.158 509.66,-57.3827 499.068,-57.5997 501.515,-64.158"/>
</g>
<!-- Node33 -->
<g id="node33" class="node"><title>Node33</title>
<g id="a_node33"><a xlink:href="class_c_transaction.html#a3f8666d2a275c40da14bd5eaf47dc004" target="_top" xlink:title="CTransaction::GetHash">
<polygon fill="white" stroke="black" points="499,-152.5 499,-171.5 620,-171.5 620,-152.5 499,-152.5"/>
<text text-anchor="middle" x="559.5" y="-159.5" font-family="Helvetica,sans-Serif" font-size="10.00">CTransaction::GetHash</text>
</a>
</g>
</g>
<!-- Node30&#45;&gt;Node33 -->
<g id="edge34" class="edge"><title>Node30&#45;&gt;Node33</title>
<path fill="none" stroke="midnightblue" d="M417.725,-162C439.113,-162 464.979,-162 488.674,-162"/>
<polygon fill="midnightblue" stroke="midnightblue" points="488.677,-165.5 498.677,-162 488.677,-158.5 488.677,-165.5"/>
</g>
<!-- Node36 -->
<g id="node36" class="node"><title>Node36</title>
<g id="a_node36"><a xlink:href="class_c_wallet_tx.html#ab1820e97b0ed6b80763d61e232d0afaa" target="_top" xlink:title="CWalletTx::GetConflicts">
<polygon fill="white" stroke="black" points="498,-114.5 498,-133.5 621,-133.5 621,-114.5 498,-114.5"/>
<text text-anchor="middle" x="559.5" y="-121.5" font-family="Helvetica,sans-Serif" font-size="10.00">CWalletTx::GetConflicts</text>
</a>
</g>
</g>
<!-- Node30&#45;&gt;Node36 -->
<g id="edge37" class="edge"><title>Node30&#45;&gt;Node36</title>
<path fill="none" stroke="midnightblue" d="M417.725,-152.607C443.043,-147.462 474.638,-141.041 501.478,-135.587"/>
<polygon fill="midnightblue" stroke="midnightblue" points="502.405,-138.971 511.508,-133.549 501.011,-132.111 502.405,-138.971"/>
</g>
<!-- Node37 -->
<g id="node37" class="node"><title>Node37</title>
<g id="a_node37"><a xlink:href="class_c_wallet_tx.html#a25fdd940fcdd2ea9d05547c5c789fc0d" target="_top" xlink:title="CWalletTx::GetTxTime">
<polygon fill="white" stroke="black" points="500.5,-190.5 500.5,-209.5 618.5,-209.5 618.5,-190.5 500.5,-190.5"/>
<text text-anchor="middle" x="559.5" y="-197.5" font-family="Helvetica,sans-Serif" font-size="10.00">CWalletTx::GetTxTime</text>
</a>
</g>
</g>
<!-- Node30&#45;&gt;Node37 -->
<g id="edge38" class="edge"><title>Node30&#45;&gt;Node37</title>
<path fill="none" stroke="midnightblue" d="M417.725,-171.393C443.043,-176.538 474.638,-182.959 501.478,-188.413"/>
<polygon fill="midnightblue" stroke="midnightblue" points="501.011,-191.889 511.508,-190.451 502.405,-185.029 501.011,-191.889"/>
</g>
<!-- Node34 -->
<g id="node34" class="node"><title>Node34</title>
<g id="a_node34"><a xlink:href="hash_8h.html#a6de694e43f17c62025c6883965b65e63" target="_top" xlink:title="SerializeHash">
<polygon fill="white" stroke="black" points="682,-152.5 682,-171.5 760,-171.5 760,-152.5 682,-152.5"/>
<text text-anchor="middle" x="721" y="-159.5" font-family="Helvetica,sans-Serif" font-size="10.00">SerializeHash</text>
</a>
</g>
</g>
<!-- Node33&#45;&gt;Node34 -->
<g id="edge35" class="edge"><title>Node33&#45;&gt;Node34</title>
<path fill="none" stroke="midnightblue" d="M620.346,-162C637.169,-162 655.254,-162 671.339,-162"/>
<polygon fill="midnightblue" stroke="midnightblue" points="671.586,-165.5 681.586,-162 671.586,-158.5 671.586,-165.5"/>
</g>
<!-- Node35 -->
<g id="node35" class="node"><title>Node35</title>
<g id="a_node35"><a xlink:href="class_c_hash_writer.html#ae94a937211502eabf19477630090093a" target="_top" xlink:title="CHashWriter::GetHash">
<polygon fill="white" stroke="black" points="821.5,-152.5 821.5,-171.5 940.5,-171.5 940.5,-152.5 821.5,-152.5"/>
<text text-anchor="middle" x="881" y="-159.5" font-family="Helvetica,sans-Serif" font-size="10.00">CHashWriter::GetHash</text>
</a>
</g>
</g>
<!-- Node34&#45;&gt;Node35 -->
<g id="edge36" class="edge"><title>Node34&#45;&gt;Node35</title>
<path fill="none" stroke="midnightblue" d="M760.247,-162C775.593,-162 793.763,-162 811.252,-162"/>
<polygon fill="midnightblue" stroke="midnightblue" points="811.444,-165.5 821.444,-162 811.444,-158.5 811.444,-165.5"/>
</g>
</g>
</svg>
