<?xml version="1.0" encoding="UTF-8" standalone="no"?>
<!DOCTYPE svg PUBLIC "-//W3C//DTD SVG 1.1//EN"
 "http://www.w3.org/Graphics/SVG/1.1/DTD/svg11.dtd">
<!-- Generated by graphviz version 2.38.0 (20140413.2041)
 -->
<!-- Title: GetAccountAddress Pages: 1 -->
<svg width="607pt" height="294pt"
 viewBox="0.00 0.00 607.00 294.00" xmlns="http://www.w3.org/2000/svg" xmlns:xlink="http://www.w3.org/1999/xlink">
<g id="graph0" class="graph" transform="scale(1 1) rotate(0) translate(4 290)">
<title>GetAccountAddress</title>
<polygon fill="white" stroke="none" points="-4,4 -4,-290 603,-290 603,4 -4,4"/>
<!-- Node1 -->
<g id="node1" class="node"><title>Node1</title>
<polygon fill="#bfbfbf" stroke="black" points="0,-133.5 0,-152.5 105,-152.5 105,-133.5 0,-133.5"/>
<text text-anchor="middle" x="52.5" y="-140.5" font-family="Helvetica,sans-Serif" font-size="10.00">GetAccountAddress</text>
</g>
<!-- Node2 -->
<g id="node2" class="node"><title>Node2</title>
<g id="a_node2"><a xlink:href="class_c_wallet_d_b.html#afa8d9d374072629b360adb49b9bdd584" target="_top" xlink:title="CWalletDB::ReadAccount">
<polygon fill="white" stroke="black" points="142.5,-266.5 142.5,-285.5 273.5,-285.5 273.5,-266.5 142.5,-266.5"/>
<text text-anchor="middle" x="208" y="-273.5" font-family="Helvetica,sans-Serif" font-size="10.00">CWalletDB::ReadAccount</text>
</a>
</g>
</g>
<!-- Node1&#45;&gt;Node2 -->
<g id="edge1" class="edge"><title>Node1&#45;&gt;Node2</title>
<path fill="none" stroke="midnightblue" d="M58.1428,-152.614C69.2529,-174.587 99.5607,-228.757 141,-257 143.947,-259.008 147.106,-260.807 150.387,-262.417"/>
<polygon fill="midnightblue" stroke="midnightblue" points="149.313,-265.764 159.884,-266.474 152.063,-259.327 149.313,-265.764"/>
</g>
<!-- Node4 -->
<g id="node4" class="node"><title>Node4</title>
<g id="a_node4"><a xlink:href="class_c_pub_key.html#aad6f369d7972f2244466ca6db900c2a4" target="_top" xlink:title="CPubKey::IsValid">
<polygon fill="white" stroke="black" points="161,-228.5 161,-247.5 255,-247.5 255,-228.5 161,-228.5"/>
<text text-anchor="middle" x="208" y="-235.5" font-family="Helvetica,sans-Serif" font-size="10.00">CPubKey::IsValid</text>
</a>
</g>
</g>
<!-- Node1&#45;&gt;Node4 -->
<g id="edge3" class="edge"><title>Node1&#45;&gt;Node4</title>
<path fill="none" stroke="midnightblue" d="M61.9379,-152.672C76.4894,-168.764 107.939,-201.036 141,-219 145.168,-221.265 149.634,-223.284 154.205,-225.08"/>
<polygon fill="midnightblue" stroke="midnightblue" points="153.08,-228.395 163.674,-228.46 155.433,-221.802 153.08,-228.395"/>
</g>
<!-- Node7 -->
<g id="node7" class="node"><title>Node7</title>
<g id="a_node7"><a xlink:href="class_c_script.html#ad1b5a9077241aa06116040c4f1b7c31e" target="_top" xlink:title="CScript::SetDestination">
<polygon fill="white" stroke="black" points="479,-100.5 479,-119.5 599,-119.5 599,-100.5 479,-100.5"/>
<text text-anchor="middle" x="539" y="-107.5" font-family="Helvetica,sans-Serif" font-size="10.00">CScript::SetDestination</text>
</a>
</g>
</g>
<!-- Node1&#45;&gt;Node7 -->
<g id="edge6" class="edge"><title>Node1&#45;&gt;Node7</title>
<path fill="none" stroke="midnightblue" d="M105.201,-145.68C180.135,-148.659 323.083,-150.939 443,-133 460.234,-130.422 478.927,-126.211 495.137,-122.093"/>
<polygon fill="midnightblue" stroke="midnightblue" points="496.079,-125.464 504.873,-119.556 494.313,-118.691 496.079,-125.464"/>
</g>
<!-- Node8 -->
<g id="node8" class="node"><title>Node8</title>
<g id="a_node8"><a xlink:href="class_c_pub_key.html#a9c1908fef34fd9e1c4b5e0ffd5d3834e" target="_top" xlink:title="CPubKey::GetID">
<polygon fill="white" stroke="black" points="163,-190.5 163,-209.5 253,-209.5 253,-190.5 163,-190.5"/>
<text text-anchor="middle" x="208" y="-197.5" font-family="Helvetica,sans-Serif" font-size="10.00">CPubKey::GetID</text>
</a>
</g>
</g>
<!-- Node1&#45;&gt;Node8 -->
<g id="edge7" class="edge"><title>Node1&#45;&gt;Node8</title>
<path fill="none" stroke="midnightblue" d="M78.7418,-152.61C96.2048,-159.237 119.99,-168.218 141,-176 150.776,-179.621 161.383,-183.5 171.177,-187.061"/>
<polygon fill="midnightblue" stroke="midnightblue" points="170.044,-190.373 180.638,-190.495 172.432,-183.793 170.044,-190.373"/>
</g>
<!-- Node10 -->
<g id="node10" class="node"><title>Node10</title>
<g id="a_node10"><a xlink:href="class_c_wallet.html#a18549ec5c472c003afc4794daeb9adfd" target="_top" xlink:title="CWallet::GetKeyFromPool">
<polygon fill="white" stroke="black" points="141,-114.5 141,-133.5 275,-133.5 275,-114.5 141,-114.5"/>
<text text-anchor="middle" x="208" y="-121.5" font-family="Helvetica,sans-Serif" font-size="10.00">CWallet::GetKeyFromPool</text>
</a>
</g>
</g>
<!-- Node1&#45;&gt;Node10 -->
<g id="edge10" class="edge"><title>Node1&#45;&gt;Node10</title>
<path fill="none" stroke="midnightblue" d="M105.04,-136.62C113.304,-135.598 122.005,-134.521 130.7,-133.444"/>
<polygon fill="midnightblue" stroke="midnightblue" points="131.381,-136.887 140.876,-132.185 130.521,-129.94 131.381,-136.887"/>
</g>
<!-- Node11 -->
<g id="node11" class="node"><title>Node11</title>
<g id="a_node11"><a xlink:href="rpcprotocol_8cpp.html#a17b1bb111ab339efc951929834766039" target="_top" xlink:title="JSONRPCError">
<polygon fill="white" stroke="black" points="164.5,-76.5 164.5,-95.5 251.5,-95.5 251.5,-76.5 164.5,-76.5"/>
<text text-anchor="middle" x="208" y="-83.5" font-family="Helvetica,sans-Serif" font-size="10.00">JSONRPCError</text>
</a>
</g>
</g>
<!-- Node1&#45;&gt;Node11 -->
<g id="edge11" class="edge"><title>Node1&#45;&gt;Node11</title>
<path fill="none" stroke="midnightblue" d="M73.36,-133.496C90.9044,-125.314 117.31,-113.514 141,-105 147.408,-102.697 154.242,-100.476 160.992,-98.4149"/>
<polygon fill="midnightblue" stroke="midnightblue" points="162.17,-101.716 170.764,-95.5189 160.181,-95.0049 162.17,-101.716"/>
</g>
<!-- Node12 -->
<g id="node12" class="node"><title>Node12</title>
<g id="a_node12"><a xlink:href="class_c_wallet.html#a53e5528d7005608594e73f500bc5bb8f" target="_top" xlink:title="CWallet::SetAddressBook">
<polygon fill="white" stroke="black" points="142,-38.5 142,-57.5 274,-57.5 274,-38.5 142,-38.5"/>
<text text-anchor="middle" x="208" y="-45.5" font-family="Helvetica,sans-Serif" font-size="10.00">CWallet::SetAddressBook</text>
</a>
</g>
</g>
<!-- Node1&#45;&gt;Node12 -->
<g id="edge12" class="edge"><title>Node1&#45;&gt;Node12</title>
<path fill="none" stroke="midnightblue" d="M61.9379,-133.328C76.4894,-117.236 107.939,-84.9644 141,-67 145.168,-64.7353 149.634,-62.7157 154.205,-60.9196"/>
<polygon fill="midnightblue" stroke="midnightblue" points="155.433,-64.1979 163.674,-57.54 153.08,-57.6052 155.433,-64.1979"/>
</g>
<!-- Node16 -->
<g id="node16" class="node"><title>Node16</title>
<g id="a_node16"><a xlink:href="class_c_wallet_d_b.html#afef640a4990f74fd5af7178c99415cf3" target="_top" xlink:title="CWalletDB::WriteAccount">
<polygon fill="white" stroke="black" points="143,-0.5 143,-19.5 273,-19.5 273,-0.5 143,-0.5"/>
<text text-anchor="middle" x="208" y="-7.5" font-family="Helvetica,sans-Serif" font-size="10.00">CWalletDB::WriteAccount</text>
</a>
</g>
</g>
<!-- Node1&#45;&gt;Node16 -->
<g id="edge18" class="edge"><title>Node1&#45;&gt;Node16</title>
<path fill="none" stroke="midnightblue" d="M58.1428,-133.386C69.2529,-111.413 99.5607,-57.2426 141,-29 143.947,-26.9917 147.106,-25.1934 150.387,-23.5833"/>
<polygon fill="midnightblue" stroke="midnightblue" points="152.063,-26.6734 159.884,-19.5264 149.313,-20.2361 152.063,-26.6734"/>
</g>
<!-- Node3 -->
<g id="node3" class="node"><title>Node3</title>
<g id="a_node3"><a xlink:href="class_c_account.html#ac63a4127fd899a21a5916a86588e809a" target="_top" xlink:title="CAccount::SetNull">
<polygon fill="white" stroke="black" points="328,-266.5 328,-285.5 426,-285.5 426,-266.5 328,-266.5"/>
<text text-anchor="middle" x="377" y="-273.5" font-family="Helvetica,sans-Serif" font-size="10.00">CAccount::SetNull</text>
</a>
</g>
</g>
<!-- Node2&#45;&gt;Node3 -->
<g id="edge2" class="edge"><title>Node2&#45;&gt;Node3</title>
<path fill="none" stroke="midnightblue" d="M273.567,-276C288.117,-276 303.476,-276 317.749,-276"/>
<polygon fill="midnightblue" stroke="midnightblue" points="317.923,-279.5 327.923,-276 317.923,-272.5 317.923,-279.5"/>
</g>
<!-- Node5 -->
<g id="node5" class="node"><title>Node5</title>
<g id="a_node5"><a xlink:href="class_c_pub_key.html#a9d7129b65b6dee792b4f3923cd64ed59" target="_top" xlink:title="CPubKey::size">
<polygon fill="white" stroke="black" points="336,-228.5 336,-247.5 418,-247.5 418,-228.5 336,-228.5"/>
<text text-anchor="middle" x="377" y="-235.5" font-family="Helvetica,sans-Serif" font-size="10.00">CPubKey::size</text>
</a>
</g>
</g>
<!-- Node4&#45;&gt;Node5 -->
<g id="edge4" class="edge"><title>Node4&#45;&gt;Node5</title>
<path fill="none" stroke="midnightblue" d="M255.076,-238C277.011,-238 303.291,-238 325.74,-238"/>
<polygon fill="midnightblue" stroke="midnightblue" points="325.755,-241.5 335.755,-238 325.755,-234.5 325.755,-241.5"/>
</g>
<!-- Node6 -->
<g id="node6" class="node"><title>Node6</title>
<g id="a_node6"><a xlink:href="class_c_pub_key.html#a7dc71b3f037c84268dc22de97d7b65fb" target="_top" xlink:title="CPubKey::GetLen">
<polygon fill="white" stroke="black" points="490.5,-228.5 490.5,-247.5 587.5,-247.5 587.5,-228.5 490.5,-228.5"/>
<text text-anchor="middle" x="539" y="-235.5" font-family="Helvetica,sans-Serif" font-size="10.00">CPubKey::GetLen</text>
</a>
</g>
</g>
<!-- Node5&#45;&gt;Node6 -->
<g id="edge5" class="edge"><title>Node5&#45;&gt;Node6</title>
<path fill="none" stroke="midnightblue" d="M418.375,-238C437.065,-238 459.615,-238 480.076,-238"/>
<polygon fill="midnightblue" stroke="midnightblue" points="480.239,-241.5 490.239,-238 480.238,-234.5 480.239,-241.5"/>
</g>
<!-- Node8&#45;&gt;Node5 -->
<g id="edge9" class="edge"><title>Node8&#45;&gt;Node5</title>
<path fill="none" stroke="midnightblue" d="M251.141,-209.589C273.884,-214.764 302.104,-221.185 325.959,-226.613"/>
<polygon fill="midnightblue" stroke="midnightblue" points="325.359,-230.066 335.886,-228.872 326.912,-223.241 325.359,-230.066"/>
</g>
<!-- Node9 -->
<g id="node9" class="node"><title>Node9</title>
<g id="a_node9"><a xlink:href="hash_8h.html#a4490f70ddae16e9e48460a0416a48a6b" target="_top" xlink:title="Hash160">
<polygon fill="white" stroke="black" points="348.5,-190.5 348.5,-209.5 405.5,-209.5 405.5,-190.5 348.5,-190.5"/>
<text text-anchor="middle" x="377" y="-197.5" font-family="Helvetica,sans-Serif" font-size="10.00">Hash160</text>
</a>
</g>
</g>
<!-- Node8&#45;&gt;Node9 -->
<g id="edge8" class="edge"><title>Node8&#45;&gt;Node9</title>
<path fill="none" stroke="midnightblue" d="M253.314,-200C279.694,-200 312.823,-200 338.003,-200"/>
<polygon fill="midnightblue" stroke="midnightblue" points="338.265,-203.5 348.265,-200 338.265,-196.5 338.265,-203.5"/>
</g>
<!-- Node13 -->
<g id="node13" class="node"><title>Node13</title>
<g id="a_node13"><a xlink:href="script_8cpp.html#adc59cf67d903c1ba1ef225561b85bfce" target="_top" xlink:title="IsMine">
<polygon fill="white" stroke="black" points="354,-48.5 354,-67.5 400,-67.5 400,-48.5 354,-48.5"/>
<text text-anchor="middle" x="377" y="-55.5" font-family="Helvetica,sans-Serif" font-size="10.00">IsMine</text>
</a>
</g>
</g>
<!-- Node12&#45;&gt;Node13 -->
<g id="edge13" class="edge"><title>Node12&#45;&gt;Node13</title>
<path fill="none" stroke="midnightblue" d="M274.045,-51.8949C297.955,-53.3267 323.991,-54.8857 343.767,-56.0699"/>
<polygon fill="midnightblue" stroke="midnightblue" points="343.584,-59.5651 353.775,-56.6692 344.002,-52.5776 343.584,-59.5651"/>
</g>
<!-- Node14 -->
<g id="node14" class="node"><title>Node14</title>
<g id="a_node14"><a xlink:href="class_c_wallet_d_b.html#a8d4e8d73b977dc62c137bd3543c278bf" target="_top" xlink:title="CWalletDB::WritePurpose">
<polygon fill="white" stroke="black" points="311,-10.5 311,-29.5 443,-29.5 443,-10.5 311,-10.5"/>
<text text-anchor="middle" x="377" y="-17.5" font-family="Helvetica,sans-Serif" font-size="10.00">CWalletDB::WritePurpose</text>
</a>
</g>
</g>
<!-- Node12&#45;&gt;Node14 -->
<g id="edge16" class="edge"><title>Node12&#45;&gt;Node14</title>
<path fill="none" stroke="midnightblue" d="M266.005,-38.4423C279.843,-36.1221 294.765,-33.6203 309.017,-31.2307"/>
<polygon fill="midnightblue" stroke="midnightblue" points="309.969,-34.6201 319.252,-29.5146 308.811,-27.7165 309.969,-34.6201"/>
</g>
<!-- Node15 -->
<g id="node15" class="node"><title>Node15</title>
<g id="a_node15"><a xlink:href="class_c_wallet_d_b.html#ad1b3bce77e9dd6ddd8c668a469c38f0a" target="_top" xlink:title="CWalletDB::WriteName">
<polygon fill="white" stroke="black" points="316.5,-104.5 316.5,-123.5 437.5,-123.5 437.5,-104.5 316.5,-104.5"/>
<text text-anchor="middle" x="377" y="-111.5" font-family="Helvetica,sans-Serif" font-size="10.00">CWalletDB::WriteName</text>
</a>
</g>
</g>
<!-- Node12&#45;&gt;Node15 -->
<g id="edge17" class="edge"><title>Node12&#45;&gt;Node15</title>
<path fill="none" stroke="midnightblue" d="M251.114,-57.5208C259.256,-60.0793 267.561,-63.215 275,-67 293.066,-76.192 292.953,-85.7711 311,-95 315.351,-97.2248 320.002,-99.2281 324.741,-101.023"/>
<polygon fill="midnightblue" stroke="midnightblue" points="323.931,-104.447 334.526,-104.419 326.227,-97.8336 323.931,-104.447"/>
</g>
<!-- Node13&#45;&gt;Node7 -->
<g id="edge14" class="edge"><title>Node13&#45;&gt;Node7</title>
<path fill="none" stroke="midnightblue" d="M400.247,-65.2304C425.739,-73.515 467.981,-87.2439 498.979,-97.3182"/>
<polygon fill="midnightblue" stroke="midnightblue" points="498.021,-100.687 508.613,-100.449 500.184,-94.0296 498.021,-100.687"/>
</g>
<!-- Node13&#45;&gt;Node13 -->
<g id="edge15" class="edge"><title>Node13&#45;&gt;Node13</title>
<path fill="none" stroke="midnightblue" d="M353.752,-66.6C339.192,-75.7176 346.941,-86 377,-86 399.074,-86 409.117,-80.4546 407.128,-73.8976"/>
<polygon fill="midnightblue" stroke="midnightblue" points="409.655,-71.4753 400.248,-66.6 404.562,-76.2772 409.655,-71.4753"/>
</g>
</g>
</svg>
