<?xml version="1.0" encoding="UTF-8" standalone="no"?>
<!DOCTYPE svg PUBLIC "-//W3C//DTD SVG 1.1//EN"
 "http://www.w3.org/Graphics/SVG/1.1/DTD/svg11.dtd">
<!-- Generated by graphviz version 2.38.0 (20140413.2041)
 -->
<!-- Title: walletpassphrasechange Pages: 1 -->
<svg width="1101pt" height="313pt"
 viewBox="0.00 0.00 1101.00 313.00" xmlns="http://www.w3.org/2000/svg" xmlns:xlink="http://www.w3.org/1999/xlink">
<g id="graph0" class="graph" transform="scale(1 1) rotate(0) translate(4 309)">
<title>walletpassphrasechange</title>
<polygon fill="white" stroke="none" points="-4,4 -4,-309 1097,-309 1097,4 -4,4"/>
<!-- Node1 -->
<g id="node1" class="node"><title>Node1</title>
<polygon fill="#bfbfbf" stroke="black" points="0,-209.5 0,-228.5 127,-228.5 127,-209.5 0,-209.5"/>
<text text-anchor="middle" x="63.5" y="-216.5" font-family="Helvetica,sans-Serif" font-size="10.00">walletpassphrasechange</text>
</g>
<!-- Node2 -->
<g id="node2" class="node"><title>Node2</title>
<g id="a_node2"><a xlink:href="class_c_crypto_key_store.html#a1cb434078a9ea686c0acf168d2c81252" target="_top" xlink:title="CCryptoKeyStore::IsCrypted">
<polygon fill="white" stroke="black" points="178,-285.5 178,-304.5 321,-304.5 321,-285.5 178,-285.5"/>
<text text-anchor="middle" x="249.5" y="-292.5" font-family="Helvetica,sans-Serif" font-size="10.00">CCryptoKeyStore::IsCrypted</text>
</a>
</g>
</g>
<!-- Node1&#45;&gt;Node2 -->
<g id="edge1" class="edge"><title>Node1&#45;&gt;Node2</title>
<path fill="none" stroke="midnightblue" d="M77.8534,-228.521C96.1936,-241.166 130.6,-263.373 163,-276 169.721,-278.619 176.887,-280.92 184.102,-282.931"/>
<polygon fill="midnightblue" stroke="midnightblue" points="183.375,-286.359 193.934,-285.496 185.141,-279.585 183.375,-286.359"/>
</g>
<!-- Node3 -->
<g id="node3" class="node"><title>Node3</title>
<g id="a_node3"><a xlink:href="rpcserver_8cpp.html#ac01ac6eab5467567ed0da106814e04ec" target="_top" xlink:title="HelpExampleCli">
<polygon fill="white" stroke="black" points="205.5,-247.5 205.5,-266.5 293.5,-266.5 293.5,-247.5 205.5,-247.5"/>
<text text-anchor="middle" x="249.5" y="-254.5" font-family="Helvetica,sans-Serif" font-size="10.00">HelpExampleCli</text>
</a>
</g>
</g>
<!-- Node1&#45;&gt;Node3 -->
<g id="edge2" class="edge"><title>Node1&#45;&gt;Node3</title>
<path fill="none" stroke="midnightblue" d="M110.931,-228.589C136.608,-233.892 168.621,-240.503 195.303,-246.014"/>
<polygon fill="midnightblue" stroke="midnightblue" points="194.743,-249.472 205.244,-248.067 196.159,-242.616 194.743,-249.472"/>
</g>
<!-- Node4 -->
<g id="node4" class="node"><title>Node4</title>
<g id="a_node4"><a xlink:href="rpcserver_8cpp.html#a06ea60e24e5a1053a14a11b1009bf9ef" target="_top" xlink:title="HelpExampleRpc">
<polygon fill="white" stroke="black" points="202.5,-209.5 202.5,-228.5 296.5,-228.5 296.5,-209.5 202.5,-209.5"/>
<text text-anchor="middle" x="249.5" y="-216.5" font-family="Helvetica,sans-Serif" font-size="10.00">HelpExampleRpc</text>
</a>
</g>
</g>
<!-- Node1&#45;&gt;Node4 -->
<g id="edge3" class="edge"><title>Node1&#45;&gt;Node4</title>
<path fill="none" stroke="midnightblue" d="M127.051,-219C148.174,-219 171.612,-219 192.219,-219"/>
<polygon fill="midnightblue" stroke="midnightblue" points="192.397,-222.5 202.397,-219 192.397,-215.5 192.397,-222.5"/>
</g>
<!-- Node5 -->
<g id="node5" class="node"><title>Node5</title>
<g id="a_node5"><a xlink:href="rpcprotocol_8cpp.html#a17b1bb111ab339efc951929834766039" target="_top" xlink:title="JSONRPCError">
<polygon fill="white" stroke="black" points="206,-171.5 206,-190.5 293,-190.5 293,-171.5 206,-171.5"/>
<text text-anchor="middle" x="249.5" y="-178.5" font-family="Helvetica,sans-Serif" font-size="10.00">JSONRPCError</text>
</a>
</g>
</g>
<!-- Node1&#45;&gt;Node5 -->
<g id="edge4" class="edge"><title>Node1&#45;&gt;Node5</title>
<path fill="none" stroke="midnightblue" d="M110.931,-209.411C136.797,-204.069 169.093,-197.399 195.891,-191.865"/>
<polygon fill="midnightblue" stroke="midnightblue" points="196.782,-195.255 205.868,-189.805 195.366,-188.399 196.782,-195.255"/>
</g>
<!-- Node6 -->
<g id="node6" class="node"><title>Node6</title>
<g id="a_node6"><a xlink:href="class_c_wallet.html#a4abcec3066e7c462f4564c159fc15031" target="_top" xlink:title="CWallet::ChangeWalletPassphrase">
<polygon fill="white" stroke="black" points="163,-133.5 163,-152.5 336,-152.5 336,-133.5 163,-133.5"/>
<text text-anchor="middle" x="249.5" y="-140.5" font-family="Helvetica,sans-Serif" font-size="10.00">CWallet::ChangeWalletPassphrase</text>
</a>
</g>
</g>
<!-- Node1&#45;&gt;Node6 -->
<g id="edge5" class="edge"><title>Node1&#45;&gt;Node6</title>
<path fill="none" stroke="midnightblue" d="M77.8534,-209.479C96.1936,-196.834 130.6,-174.627 163,-162 169.721,-159.381 176.887,-157.08 184.102,-155.069"/>
<polygon fill="midnightblue" stroke="midnightblue" points="185.141,-158.415 193.934,-152.504 183.375,-151.641 185.141,-158.415"/>
</g>
<!-- Node7 -->
<g id="node7" class="node"><title>Node7</title>
<g id="a_node7"><a xlink:href="class_c_crypter.html#a5368279e4a1549d3c1d15d8aa2179708" target="_top" xlink:title="CCrypter::SetKeyFromPassphrase">
<polygon fill="white" stroke="black" points="372,-285.5 372,-304.5 542,-304.5 542,-285.5 372,-285.5"/>
<text text-anchor="middle" x="457" y="-292.5" font-family="Helvetica,sans-Serif" font-size="10.00">CCrypter::SetKeyFromPassphrase</text>
</a>
</g>
</g>
<!-- Node6&#45;&gt;Node7 -->
<g id="edge6" class="edge"><title>Node6&#45;&gt;Node7</title>
<path fill="none" stroke="midnightblue" d="M321.997,-152.639C327.075,-155.146 331.827,-158.226 336,-162 373.839,-196.221 335.198,-235.666 372,-271 376.103,-274.939 380.806,-278.239 385.846,-281.003"/>
<polygon fill="midnightblue" stroke="midnightblue" points="384.685,-284.325 395.224,-285.42 387.669,-277.993 384.685,-284.325"/>
</g>
<!-- Node8 -->
<g id="node8" class="node"><title>Node8</title>
<g id="a_node8"><a xlink:href="class_c_crypter.html#a4dbabed4975d4435d22c76deac43df7f" target="_top" xlink:title="CCrypter::Decrypt">
<polygon fill="white" stroke="black" points="764,-237.5 764,-256.5 861,-256.5 861,-237.5 764,-237.5"/>
<text text-anchor="middle" x="812.5" y="-244.5" font-family="Helvetica,sans-Serif" font-size="10.00">CCrypter::Decrypt</text>
</a>
</g>
</g>
<!-- Node6&#45;&gt;Node8 -->
<g id="edge7" class="edge"><title>Node6&#45;&gt;Node8</title>
<path fill="none" stroke="midnightblue" d="M304.042,-152.592C314.777,-155.157 325.866,-158.276 336,-162 352.981,-168.24 355.184,-174.327 372,-181 460.297,-216.04 484.132,-223.406 578,-238 637.381,-247.232 706.222,-248.793 753.694,-248.47"/>
<polygon fill="midnightblue" stroke="midnightblue" points="753.821,-251.969 763.786,-248.371 753.752,-244.97 753.821,-251.969"/>
</g>
<!-- Node9 -->
<g id="node9" class="node"><title>Node9</title>
<g id="a_node9"><a xlink:href="class_c_crypto_key_store.html#a81bd70e18aa75f566526620a74f9cd88" target="_top" xlink:title="CCryptoKeyStore::Unlock">
<polygon fill="white" stroke="black" points="392,-152.5 392,-171.5 522,-171.5 522,-152.5 392,-152.5"/>
<text text-anchor="middle" x="457" y="-159.5" font-family="Helvetica,sans-Serif" font-size="10.00">CCryptoKeyStore::Unlock</text>
</a>
</g>
</g>
<!-- Node6&#45;&gt;Node9 -->
<g id="edge8" class="edge"><title>Node6&#45;&gt;Node9</title>
<path fill="none" stroke="midnightblue" d="M336.162,-150.92C351.285,-152.318 366.915,-153.763 381.693,-155.13"/>
<polygon fill="midnightblue" stroke="midnightblue" points="381.492,-158.626 391.772,-156.062 382.136,-151.656 381.492,-158.626"/>
</g>
<!-- Node23 -->
<g id="node23" class="node"><title>Node23</title>
<g id="a_node23"><a xlink:href="util_8h.html#a139d0fe6387b9e230a9b8bb12d9b43b9" target="_top" xlink:title="GetTimeMillis">
<polygon fill="white" stroke="black" points="418.5,-114.5 418.5,-133.5 495.5,-133.5 495.5,-114.5 418.5,-114.5"/>
<text text-anchor="middle" x="457" y="-121.5" font-family="Helvetica,sans-Serif" font-size="10.00">GetTimeMillis</text>
</a>
</g>
</g>
<!-- Node6&#45;&gt;Node23 -->
<g id="edge26" class="edge"><title>Node6&#45;&gt;Node23</title>
<path fill="none" stroke="midnightblue" d="M336.162,-135.08C360.77,-132.805 386.722,-130.405 408.16,-128.423"/>
<polygon fill="midnightblue" stroke="midnightblue" points="408.66,-131.892 418.295,-127.486 408.015,-124.922 408.66,-131.892"/>
</g>
<!-- Node24 -->
<g id="node24" class="node"><title>Node24</title>
<g id="a_node24"><a xlink:href="class_c_crypter.html#a124fcd3021569a660ce2daa3391c8ea4" target="_top" xlink:title="CCrypter::Encrypt">
<polygon fill="white" stroke="black" points="409,-76.5 409,-95.5 505,-95.5 505,-76.5 409,-76.5"/>
<text text-anchor="middle" x="457" y="-83.5" font-family="Helvetica,sans-Serif" font-size="10.00">CCrypter::Encrypt</text>
</a>
</g>
</g>
<!-- Node6&#45;&gt;Node24 -->
<g id="edge27" class="edge"><title>Node6&#45;&gt;Node24</title>
<path fill="none" stroke="midnightblue" d="M278.788,-133.441C303.292,-125.332 339.773,-113.669 372,-105 381.216,-102.521 391.058,-100.097 400.641,-97.8546"/>
<polygon fill="midnightblue" stroke="midnightblue" points="401.535,-101.24 410.497,-95.589 399.967,-94.4184 401.535,-101.24"/>
</g>
<!-- Node25 -->
<g id="node25" class="node"><title>Node25</title>
<g id="a_node25"><a xlink:href="class_c_wallet_d_b.html#a507690da431ef61244941ad39c308aeb" target="_top" xlink:title="CWalletDB::WriteMasterKey">
<polygon fill="white" stroke="black" points="386,-38.5 386,-57.5 528,-57.5 528,-38.5 386,-38.5"/>
<text text-anchor="middle" x="457" y="-45.5" font-family="Helvetica,sans-Serif" font-size="10.00">CWalletDB::WriteMasterKey</text>
</a>
</g>
</g>
<!-- Node6&#45;&gt;Node25 -->
<g id="edge28" class="edge"><title>Node6&#45;&gt;Node25</title>
<path fill="none" stroke="midnightblue" d="M262.846,-133.274C283.979,-117.104 328.98,-84.7193 372,-67 378.223,-64.4367 384.855,-62.1874 391.56,-60.2209"/>
<polygon fill="midnightblue" stroke="midnightblue" points="392.669,-63.5463 401.396,-57.5384 390.827,-56.793 392.669,-63.5463"/>
</g>
<!-- Node10 -->
<g id="node10" class="node"><title>Node10</title>
<g id="a_node10"><a xlink:href="class_c_crypto_key_store.html#af202f587051735be5a39344d9e333720" target="_top" xlink:title="CCryptoKeyStore::SetCrypted">
<polygon fill="white" stroke="black" points="578,-171.5 578,-190.5 728,-190.5 728,-171.5 578,-171.5"/>
<text text-anchor="middle" x="653" y="-178.5" font-family="Helvetica,sans-Serif" font-size="10.00">CCryptoKeyStore::SetCrypted</text>
</a>
</g>
</g>
<!-- Node9&#45;&gt;Node10 -->
<g id="edge9" class="edge"><title>Node9&#45;&gt;Node10</title>
<path fill="none" stroke="midnightblue" d="M522.061,-168.274C536.727,-169.71 552.534,-171.258 567.901,-172.764"/>
<polygon fill="midnightblue" stroke="midnightblue" points="567.626,-176.253 577.92,-173.745 568.308,-169.287 567.626,-176.253"/>
</g>
<!-- Node11 -->
<g id="node11" class="node"><title>Node11</title>
<g id="a_node11"><a xlink:href="crypter_8cpp.html#aded00aa7498a7485a00e77a20856b3e4" target="_top" xlink:title="DecryptSecret">
<polygon fill="white" stroke="black" points="613,-133.5 613,-152.5 693,-152.5 693,-133.5 613,-133.5"/>
<text text-anchor="middle" x="653" y="-140.5" font-family="Helvetica,sans-Serif" font-size="10.00">DecryptSecret</text>
</a>
</g>
</g>
<!-- Node9&#45;&gt;Node11 -->
<g id="edge10" class="edge"><title>Node9&#45;&gt;Node11</title>
<path fill="none" stroke="midnightblue" d="M522.061,-155.726C548.328,-153.153 578.252,-150.223 602.758,-147.823"/>
<polygon fill="midnightblue" stroke="midnightblue" points="603.29,-151.287 612.902,-146.829 602.608,-144.321 603.29,-151.287"/>
</g>
<!-- Node15 -->
<g id="node15" class="node"><title>Node15</title>
<g id="a_node15"><a xlink:href="class_c_pub_key.html#a85b5eaf92b26cb4a230586050285c3f4" target="_top" xlink:title="CPubKey::GetHash">
<polygon fill="white" stroke="black" points="601,-38.5 601,-57.5 705,-57.5 705,-38.5 601,-38.5"/>
<text text-anchor="middle" x="653" y="-45.5" font-family="Helvetica,sans-Serif" font-size="10.00">CPubKey::GetHash</text>
</a>
</g>
</g>
<!-- Node9&#45;&gt;Node15 -->
<g id="edge16" class="edge"><title>Node9&#45;&gt;Node15</title>
<path fill="none" stroke="midnightblue" d="M522.208,-153.113C529.245,-150.532 536.016,-147.227 542,-143 566.474,-125.714 555.892,-106.224 578,-86 588.976,-75.9594 603.098,-67.8469 616.059,-61.7363"/>
<polygon fill="midnightblue" stroke="midnightblue" points="617.525,-64.9147 625.23,-57.6418 614.672,-58.5229 617.525,-64.9147"/>
</g>
<!-- Node19 -->
<g id="node19" class="node"><title>Node19</title>
<g id="a_node19"><a xlink:href="class_c_key.html#aaa13d5f08456bba094210c5eeabf64c8" target="_top" xlink:title="CKey::Set">
<polygon fill="white" stroke="black" points="622,-95.5 622,-114.5 684,-114.5 684,-95.5 622,-95.5"/>
<text text-anchor="middle" x="653" y="-102.5" font-family="Helvetica,sans-Serif" font-size="10.00">CKey::Set</text>
</a>
</g>
</g>
<!-- Node9&#45;&gt;Node19 -->
<g id="edge20" class="edge"><title>Node9&#45;&gt;Node19</title>
<path fill="none" stroke="midnightblue" d="M510.155,-152.447C520.84,-149.868 531.902,-146.732 542,-143 558.97,-136.728 561.123,-130.516 578,-124 588.8,-119.83 600.837,-116.295 612.013,-113.447"/>
<polygon fill="midnightblue" stroke="midnightblue" points="613.084,-116.788 621.974,-111.025 611.43,-109.986 613.084,-116.788"/>
</g>
<!-- Node21 -->
<g id="node21" class="node"><title>Node21</title>
<g id="a_node21"><a xlink:href="class_c_pub_key.html#a397e437d9d0a008e2641892147b0931a" target="_top" xlink:title="CPubKey::IsCompressed">
<polygon fill="white" stroke="black" points="588.5,-0.5 588.5,-19.5 717.5,-19.5 717.5,-0.5 588.5,-0.5"/>
<text text-anchor="middle" x="653" y="-7.5" font-family="Helvetica,sans-Serif" font-size="10.00">CPubKey::IsCompressed</text>
</a>
</g>
</g>
<!-- Node9&#45;&gt;Node21 -->
<g id="edge23" class="edge"><title>Node9&#45;&gt;Node21</title>
<path fill="none" stroke="midnightblue" d="M522.11,-155.061C529.414,-152.173 536.278,-148.264 542,-143 581.105,-107.029 539.419,-65.5321 578,-29 579.517,-27.5636 581.127,-26.2321 582.814,-24.9979"/>
<polygon fill="midnightblue" stroke="midnightblue" points="585.029,-27.7507 591.802,-19.6038 581.427,-21.7486 585.029,-27.7507"/>
</g>
<!-- Node22 -->
<g id="node22" class="node"><title>Node22</title>
<g id="a_node22"><a xlink:href="class_c_key.html#ae4b61da6ec62f676fe6362ac5fc26aca" target="_top" xlink:title="CKey::GetPubKey">
<polygon fill="white" stroke="black" points="604,-209.5 604,-228.5 702,-228.5 702,-209.5 604,-209.5"/>
<text text-anchor="middle" x="653" y="-216.5" font-family="Helvetica,sans-Serif" font-size="10.00">CKey::GetPubKey</text>
</a>
</g>
</g>
<!-- Node9&#45;&gt;Node22 -->
<g id="edge25" class="edge"><title>Node9&#45;&gt;Node22</title>
<path fill="none" stroke="midnightblue" d="M486.476,-171.507C510.706,-179.478 546.488,-190.973 578,-200 586.157,-202.337 594.857,-204.692 603.321,-206.911"/>
<polygon fill="midnightblue" stroke="midnightblue" points="602.543,-210.324 613.101,-209.443 604.298,-203.548 602.543,-210.324"/>
</g>
<!-- Node11&#45;&gt;Node8 -->
<g id="edge15" class="edge"><title>Node11&#45;&gt;Node8</title>
<path fill="none" stroke="midnightblue" d="M693.287,-147.379C705.267,-150.149 717.921,-154.66 728,-162 752.221,-179.638 742.491,-198.14 764,-219 769.171,-224.015 775.406,-228.501 781.633,-232.336"/>
<polygon fill="midnightblue" stroke="midnightblue" points="780.207,-235.551 790.626,-237.474 783.679,-229.474 780.207,-235.551"/>
</g>
<!-- Node12 -->
<g id="node12" class="node"><title>Node12</title>
<g id="a_node12"><a xlink:href="glibc__compat_8cpp.html#a0f46826ab0466591e136db24394923cf" target="_top" xlink:title="memcpy">
<polygon fill="white" stroke="black" points="918.5,-152.5 918.5,-171.5 972.5,-171.5 972.5,-152.5 918.5,-152.5"/>
<text text-anchor="middle" x="945.5" y="-159.5" font-family="Helvetica,sans-Serif" font-size="10.00">memcpy</text>
</a>
</g>
</g>
<!-- Node11&#45;&gt;Node12 -->
<g id="edge11" class="edge"><title>Node11&#45;&gt;Node12</title>
<path fill="none" stroke="midnightblue" d="M693.178,-145.562C749.658,-149.256 853.185,-156.028 908.083,-159.618"/>
<polygon fill="midnightblue" stroke="midnightblue" points="908.179,-163.132 918.386,-160.292 908.636,-156.147 908.179,-163.132"/>
</g>
<!-- Node14 -->
<g id="node14" class="node"><title>Node14</title>
<g id="a_node14"><a xlink:href="class_c_crypter.html#a0d948dd4796e2420e1dd9c1ddbf7974e" target="_top" xlink:title="CCrypter::SetKey">
<polygon fill="white" stroke="black" points="765.5,-190.5 765.5,-209.5 859.5,-209.5 859.5,-190.5 765.5,-190.5"/>
<text text-anchor="middle" x="812.5" y="-197.5" font-family="Helvetica,sans-Serif" font-size="10.00">CCrypter::SetKey</text>
</a>
</g>
</g>
<!-- Node11&#45;&gt;Node14 -->
<g id="edge13" class="edge"><title>Node11&#45;&gt;Node14</title>
<path fill="none" stroke="midnightblue" d="M693.175,-151.693C704.532,-154.579 716.868,-158.072 728,-162 747.03,-168.715 767.677,-178.091 783.679,-185.85"/>
<polygon fill="midnightblue" stroke="midnightblue" points="782.468,-189.155 792.986,-190.433 785.561,-182.875 782.468,-189.155"/>
</g>
<!-- Node13 -->
<g id="node13" class="node"><title>Node13</title>
<g id="a_node13"><a xlink:href="glibc__compat_8cpp.html#a9778d49e9029dd75bc53ecbbf9f5e9a1" target="_top" xlink:title="memmove">
<polygon fill="white" stroke="black" points="1030,-152.5 1030,-171.5 1093,-171.5 1093,-152.5 1030,-152.5"/>
<text text-anchor="middle" x="1061.5" y="-159.5" font-family="Helvetica,sans-Serif" font-size="10.00">memmove</text>
</a>
</g>
</g>
<!-- Node12&#45;&gt;Node13 -->
<g id="edge12" class="edge"><title>Node12&#45;&gt;Node13</title>
<path fill="none" stroke="midnightblue" d="M972.654,-162C986.434,-162 1003.66,-162 1019.19,-162"/>
<polygon fill="midnightblue" stroke="midnightblue" points="1019.61,-165.5 1029.61,-162 1019.61,-158.5 1019.61,-165.5"/>
</g>
<!-- Node14&#45;&gt;Node12 -->
<g id="edge14" class="edge"><title>Node14&#45;&gt;Node12</title>
<path fill="none" stroke="midnightblue" d="M846.557,-190.411C865.533,-184.906 889.37,-177.992 908.776,-172.363"/>
<polygon fill="midnightblue" stroke="midnightblue" points="909.843,-175.698 918.472,-169.55 907.893,-168.975 909.843,-175.698"/>
</g>
<!-- Node16 -->
<g id="node16" class="node"><title>Node16</title>
<g id="a_node16"><a xlink:href="hash_8h.html#ab3f6c437460137530d86e09c2c102e99" target="_top" xlink:title="Hash">
<polygon fill="white" stroke="black" points="792.5,-38.5 792.5,-57.5 832.5,-57.5 832.5,-38.5 792.5,-38.5"/>
<text text-anchor="middle" x="812.5" y="-45.5" font-family="Helvetica,sans-Serif" font-size="10.00">Hash</text>
</a>
</g>
</g>
<!-- Node15&#45;&gt;Node16 -->
<g id="edge17" class="edge"><title>Node15&#45;&gt;Node16</title>
<path fill="none" stroke="midnightblue" d="M705.136,-48C730.647,-48 760.584,-48 782.188,-48"/>
<polygon fill="midnightblue" stroke="midnightblue" points="782.362,-51.5001 792.362,-48 782.362,-44.5001 782.362,-51.5001"/>
</g>
<!-- Node17 -->
<g id="node17" class="node"><title>Node17</title>
<g id="a_node17"><a xlink:href="class_c_pub_key.html#a9d7129b65b6dee792b4f3923cd64ed59" target="_top" xlink:title="CPubKey::size">
<polygon fill="white" stroke="black" points="771.5,-0.5 771.5,-19.5 853.5,-19.5 853.5,-0.5 771.5,-0.5"/>
<text text-anchor="middle" x="812.5" y="-7.5" font-family="Helvetica,sans-Serif" font-size="10.00">CPubKey::size</text>
</a>
</g>
</g>
<!-- Node15&#45;&gt;Node17 -->
<g id="edge18" class="edge"><title>Node15&#45;&gt;Node17</title>
<path fill="none" stroke="midnightblue" d="M693.744,-38.411C714.528,-33.3965 740.161,-27.2119 762.199,-21.8947"/>
<polygon fill="midnightblue" stroke="midnightblue" points="763.142,-25.2679 772.042,-19.5201 761.5,-18.4632 763.142,-25.2679"/>
</g>
<!-- Node18 -->
<g id="node18" class="node"><title>Node18</title>
<g id="a_node18"><a xlink:href="class_c_pub_key.html#a7dc71b3f037c84268dc22de97d7b65fb" target="_top" xlink:title="CPubKey::GetLen">
<polygon fill="white" stroke="black" points="897,-0.5 897,-19.5 994,-19.5 994,-0.5 897,-0.5"/>
<text text-anchor="middle" x="945.5" y="-7.5" font-family="Helvetica,sans-Serif" font-size="10.00">CPubKey::GetLen</text>
</a>
</g>
</g>
<!-- Node17&#45;&gt;Node18 -->
<g id="edge19" class="edge"><title>Node17&#45;&gt;Node18</title>
<path fill="none" stroke="midnightblue" d="M853.516,-10C864.001,-10 875.518,-10 886.728,-10"/>
<polygon fill="midnightblue" stroke="midnightblue" points="886.899,-13.5001 896.899,-10 886.899,-6.5001 886.899,-13.5001"/>
</g>
<!-- Node19&#45;&gt;Node12 -->
<g id="edge22" class="edge"><title>Node19&#45;&gt;Node12</title>
<path fill="none" stroke="midnightblue" d="M684.266,-110.939C738.031,-121.488 849.977,-143.453 907.947,-154.828"/>
<polygon fill="midnightblue" stroke="midnightblue" points="907.63,-158.332 918.117,-156.823 908.978,-151.463 907.63,-158.332"/>
</g>
<!-- Node20 -->
<g id="node20" class="node"><title>Node20</title>
<g id="a_node20"><a xlink:href="class_c_key.html#acec869bc75fa8f4d619ab025d367a97c" target="_top" xlink:title="CKey::Check">
<polygon fill="white" stroke="black" points="775,-76.5 775,-95.5 850,-95.5 850,-76.5 775,-76.5"/>
<text text-anchor="middle" x="812.5" y="-83.5" font-family="Helvetica,sans-Serif" font-size="10.00">CKey::Check</text>
</a>
</g>
</g>
<!-- Node19&#45;&gt;Node20 -->
<g id="edge21" class="edge"><title>Node19&#45;&gt;Node20</title>
<path fill="none" stroke="midnightblue" d="M684.368,-101.337C707.174,-98.5854 738.819,-94.7678 764.832,-91.6298"/>
<polygon fill="midnightblue" stroke="midnightblue" points="765.35,-95.0928 774.859,-90.4202 764.512,-88.1431 765.35,-95.0928"/>
</g>
<!-- Node21&#45;&gt;Node17 -->
<g id="edge24" class="edge"><title>Node21&#45;&gt;Node17</title>
<path fill="none" stroke="midnightblue" d="M717.607,-10C732.03,-10 747.158,-10 760.954,-10"/>
<polygon fill="midnightblue" stroke="midnightblue" points="761.211,-13.5001 771.211,-10 761.211,-6.5001 761.211,-13.5001"/>
</g>
</g>
</svg>
