<?xml version="1.0" encoding="UTF-8" standalone="no"?>
<!DOCTYPE svg PUBLIC "-//W3C//DTD SVG 1.1//EN"
 "http://www.w3.org/Graphics/SVG/1.1/DTD/svg11.dtd">
<!-- Generated by graphviz version 2.38.0 (20140413.2041)
 -->
<!-- Title: CheckSig Pages: 1 -->
<svg width="626pt" height="199pt"
 viewBox="0.00 0.00 626.00 199.00" xmlns="http://www.w3.org/2000/svg" xmlns:xlink="http://www.w3.org/1999/xlink">
<g id="graph0" class="graph" transform="scale(1 1) rotate(0) translate(4 195)">
<title>CheckSig</title>
<polygon fill="white" stroke="none" points="-4,4 -4,-195 622,-195 622,4 -4,4"/>
<!-- Node1 -->
<g id="node1" class="node"><title>Node1</title>
<polygon fill="#bfbfbf" stroke="black" points="0,-95.5 0,-114.5 59,-114.5 59,-95.5 0,-95.5"/>
<text text-anchor="middle" x="29.5" y="-102.5" font-family="Helvetica,sans-Serif" font-size="10.00">CheckSig</text>
</g>
<!-- Node2 -->
<g id="node2" class="node"><title>Node2</title>
<g id="a_node2"><a xlink:href="class_c_pub_key.html#aad6f369d7972f2244466ca6db900c2a4" target="_top" xlink:title="CPubKey::IsValid">
<polygon fill="white" stroke="black" points="260.5,-105.5 260.5,-124.5 354.5,-124.5 354.5,-105.5 260.5,-105.5"/>
<text text-anchor="middle" x="307.5" y="-112.5" font-family="Helvetica,sans-Serif" font-size="10.00">CPubKey::IsValid</text>
</a>
</g>
</g>
<!-- Node1&#45;&gt;Node2 -->
<g id="edge1" class="edge"><title>Node1&#45;&gt;Node2</title>
<path fill="none" stroke="midnightblue" d="M56.4819,-114.5C68.0961,-118.264 82.0594,-122.134 95,-124 147.366,-131.552 207.719,-127.765 250.516,-123.003"/>
<polygon fill="midnightblue" stroke="midnightblue" points="250.93,-126.478 260.458,-121.844 250.12,-119.525 250.93,-126.478"/>
</g>
<!-- Node5 -->
<g id="node5" class="node"><title>Node5</title>
<g id="a_node5"><a xlink:href="script_8cpp.html#a746fd004a62173bb42801259780a3336" target="_top" xlink:title="SignatureHash">
<polygon fill="white" stroke="black" points="112,-171.5 112,-190.5 195,-190.5 195,-171.5 112,-171.5"/>
<text text-anchor="middle" x="153.5" y="-178.5" font-family="Helvetica,sans-Serif" font-size="10.00">SignatureHash</text>
</a>
</g>
</g>
<!-- Node1&#45;&gt;Node5 -->
<g id="edge4" class="edge"><title>Node1&#45;&gt;Node5</title>
<path fill="none" stroke="midnightblue" d="M40.7642,-114.827C52.9469,-126.107 74.236,-144.639 95,-157 101.454,-160.842 108.637,-164.366 115.679,-167.461"/>
<polygon fill="midnightblue" stroke="midnightblue" points="114.537,-170.777 125.113,-171.406 117.237,-164.319 114.537,-170.777"/>
</g>
<!-- Node7 -->
<g id="node7" class="node"><title>Node7</title>
<g id="a_node7"><a xlink:href="class_c_signature_cache.html#a9c1dbf6b015d35145f058ace43eac107" target="_top" xlink:title="CSignatureCache::Get">
<polygon fill="white" stroke="black" points="95,-95.5 95,-114.5 212,-114.5 212,-95.5 95,-95.5"/>
<text text-anchor="middle" x="153.5" y="-102.5" font-family="Helvetica,sans-Serif" font-size="10.00">CSignatureCache::Get</text>
</a>
</g>
</g>
<!-- Node1&#45;&gt;Node7 -->
<g id="edge6" class="edge"><title>Node1&#45;&gt;Node7</title>
<path fill="none" stroke="midnightblue" d="M59.1036,-105C66.8816,-105 75.6495,-105 84.6184,-105"/>
<polygon fill="midnightblue" stroke="midnightblue" points="84.788,-108.5 94.788,-105 84.7879,-101.5 84.788,-108.5"/>
</g>
<!-- Node8 -->
<g id="node8" class="node"><title>Node8</title>
<g id="a_node8"><a xlink:href="class_c_pub_key.html#ab4047c7ce31b72591d8108a2563cd21b" target="_top" xlink:title="CPubKey::Verify">
<polygon fill="white" stroke="black" points="108.5,-57.5 108.5,-76.5 198.5,-76.5 198.5,-57.5 108.5,-57.5"/>
<text text-anchor="middle" x="153.5" y="-64.5" font-family="Helvetica,sans-Serif" font-size="10.00">CPubKey::Verify</text>
</a>
</g>
</g>
<!-- Node1&#45;&gt;Node8 -->
<g id="edge7" class="edge"><title>Node1&#45;&gt;Node8</title>
<path fill="none" stroke="midnightblue" d="M59.1036,-96.0907C74.8818,-91.1762 94.7338,-84.9927 112.074,-79.5918"/>
<polygon fill="midnightblue" stroke="midnightblue" points="113.436,-82.8333 121.943,-76.5178 111.355,-76.15 113.436,-82.8333"/>
</g>
<!-- Node9 -->
<g id="node9" class="node"><title>Node9</title>
<g id="a_node9"><a xlink:href="class_c_signature_cache.html#ac2e63052c7b13f73fa0f6f4624e29c07" target="_top" xlink:title="CSignatureCache::Set">
<polygon fill="white" stroke="black" points="95.5,-19.5 95.5,-38.5 211.5,-38.5 211.5,-19.5 95.5,-19.5"/>
<text text-anchor="middle" x="153.5" y="-26.5" font-family="Helvetica,sans-Serif" font-size="10.00">CSignatureCache::Set</text>
</a>
</g>
</g>
<!-- Node1&#45;&gt;Node9 -->
<g id="edge9" class="edge"><title>Node1&#45;&gt;Node9</title>
<path fill="none" stroke="midnightblue" d="M39.1738,-95.1887C50.7586,-82.6304 72.4533,-60.9527 95,-48 98.6408,-45.9084 102.545,-44.007 106.542,-42.2874"/>
<polygon fill="midnightblue" stroke="midnightblue" points="107.921,-45.5063 115.956,-38.6007 105.368,-38.9883 107.921,-45.5063"/>
</g>
<!-- Node3 -->
<g id="node3" class="node"><title>Node3</title>
<g id="a_node3"><a xlink:href="class_c_pub_key.html#a9d7129b65b6dee792b4f3923cd64ed59" target="_top" xlink:title="CPubKey::size">
<polygon fill="white" stroke="black" points="403,-105.5 403,-124.5 485,-124.5 485,-105.5 403,-105.5"/>
<text text-anchor="middle" x="444" y="-112.5" font-family="Helvetica,sans-Serif" font-size="10.00">CPubKey::size</text>
</a>
</g>
</g>
<!-- Node2&#45;&gt;Node3 -->
<g id="edge2" class="edge"><title>Node2&#45;&gt;Node3</title>
<path fill="none" stroke="midnightblue" d="M354.787,-115C367.017,-115 380.274,-115 392.704,-115"/>
<polygon fill="midnightblue" stroke="midnightblue" points="392.91,-118.5 402.91,-115 392.91,-111.5 392.91,-118.5"/>
</g>
<!-- Node4 -->
<g id="node4" class="node"><title>Node4</title>
<g id="a_node4"><a xlink:href="class_c_pub_key.html#a7dc71b3f037c84268dc22de97d7b65fb" target="_top" xlink:title="CPubKey::GetLen">
<polygon fill="white" stroke="black" points="521,-105.5 521,-124.5 618,-124.5 618,-105.5 521,-105.5"/>
<text text-anchor="middle" x="569.5" y="-112.5" font-family="Helvetica,sans-Serif" font-size="10.00">CPubKey::GetLen</text>
</a>
</g>
</g>
<!-- Node3&#45;&gt;Node4 -->
<g id="edge3" class="edge"><title>Node3&#45;&gt;Node4</title>
<path fill="none" stroke="midnightblue" d="M485.097,-115C493.298,-115 502.082,-115 510.76,-115"/>
<polygon fill="midnightblue" stroke="midnightblue" points="510.858,-118.5 520.858,-115 510.858,-111.5 510.858,-118.5"/>
</g>
<!-- Node6 -->
<g id="node6" class="node"><title>Node6</title>
<g id="a_node6"><a xlink:href="class_c_hash_writer.html#ae94a937211502eabf19477630090093a" target="_top" xlink:title="CHashWriter::GetHash">
<polygon fill="white" stroke="black" points="248,-171.5 248,-190.5 367,-190.5 367,-171.5 248,-171.5"/>
<text text-anchor="middle" x="307.5" y="-178.5" font-family="Helvetica,sans-Serif" font-size="10.00">CHashWriter::GetHash</text>
</a>
</g>
</g>
<!-- Node5&#45;&gt;Node6 -->
<g id="edge5" class="edge"><title>Node5&#45;&gt;Node6</title>
<path fill="none" stroke="midnightblue" d="M195.233,-181C208.38,-181 223.336,-181 237.923,-181"/>
<polygon fill="midnightblue" stroke="midnightblue" points="237.937,-184.5 247.937,-181 237.937,-177.5 237.937,-184.5"/>
</g>
<!-- Node8&#45;&gt;Node2 -->
<g id="edge8" class="edge"><title>Node8&#45;&gt;Node2</title>
<path fill="none" stroke="midnightblue" d="M184.894,-76.5982C208.298,-83.9888 240.858,-94.2709 266.397,-102.336"/>
<polygon fill="midnightblue" stroke="midnightblue" points="265.569,-105.745 276.159,-105.418 267.677,-99.0696 265.569,-105.745"/>
</g>
<!-- Node10 -->
<g id="node10" class="node"><title>Node10</title>
<g id="a_node10"><a xlink:href="util_8cpp.html#a24f685720bf40370e5bd2a192ad50cd8" target="_top" xlink:title="Return string argument or default value. ">
<polygon fill="white" stroke="black" points="283.5,-38.5 283.5,-57.5 331.5,-57.5 331.5,-38.5 283.5,-38.5"/>
<text text-anchor="middle" x="307.5" y="-45.5" font-family="Helvetica,sans-Serif" font-size="10.00">GetArg</text>
</a>
</g>
</g>
<!-- Node9&#45;&gt;Node10 -->
<g id="edge10" class="edge"><title>Node9&#45;&gt;Node10</title>
<path fill="none" stroke="midnightblue" d="M211.532,-36.129C232.376,-38.7345 255.253,-41.5942 273.331,-43.8538"/>
<polygon fill="midnightblue" stroke="midnightblue" points="273.011,-47.341 283.368,-45.1085 273.879,-40.3951 273.011,-47.341"/>
</g>
<!-- Node11 -->
<g id="node11" class="node"><title>Node11</title>
<g id="a_node11"><a xlink:href="util_8cpp.html#af3aedae75efabb170337a497457f7ecf" target="_top" xlink:title="GetRandHash">
<polygon fill="white" stroke="black" points="267.5,-0.5 267.5,-19.5 347.5,-19.5 347.5,-0.5 267.5,-0.5"/>
<text text-anchor="middle" x="307.5" y="-7.5" font-family="Helvetica,sans-Serif" font-size="10.00">GetRandHash</text>
</a>
</g>
</g>
<!-- Node9&#45;&gt;Node11 -->
<g id="edge11" class="edge"><title>Node9&#45;&gt;Node11</title>
<path fill="none" stroke="midnightblue" d="M211.532,-21.871C226.445,-20.0069 242.399,-18.0127 256.891,-16.2011"/>
<polygon fill="midnightblue" stroke="midnightblue" points="257.661,-19.6322 267.149,-14.9188 256.792,-12.6863 257.661,-19.6322"/>
</g>
</g>
</svg>
