<?xml version="1.0" encoding="UTF-8" standalone="no"?>
<!DOCTYPE svg PUBLIC "-//W3C//DTD SVG 1.1//EN"
 "http://www.w3.org/Graphics/SVG/1.1/DTD/svg11.dtd">
<!-- Generated by graphviz version 2.38.0 (20140413.2041)
 -->
<!-- Title: IsStandard Pages: 1 -->
<svg width="645pt" height="142pt"
 viewBox="0.00 0.00 645.00 142.00" xmlns="http://www.w3.org/2000/svg" xmlns:xlink="http://www.w3.org/1999/xlink">
<g id="graph0" class="graph" transform="scale(1 1) rotate(0) translate(4 138)">
<title>IsStandard</title>
<polygon fill="white" stroke="none" points="-4,4 -4,-138 641,-138 641,4 -4,4"/>
<!-- Node1 -->
<g id="node1" class="node"><title>Node1</title>
<polygon fill="#bfbfbf" stroke="black" points="0,-57.5 0,-76.5 65,-76.5 65,-57.5 0,-57.5"/>
<text text-anchor="middle" x="32.5" y="-64.5" font-family="Helvetica,sans-Serif" font-size="10.00">IsStandard</text>
</g>
<!-- Node2 -->
<g id="node2" class="node"><title>Node2</title>
<g id="a_node2"><a xlink:href="script_8cpp.html#a6ee6be50bff44464e905680c6fcee6dc" target="_top" xlink:title="Solver">
<polygon fill="white" stroke="black" points="101,-57.5 101,-76.5 146,-76.5 146,-57.5 101,-57.5"/>
<text text-anchor="middle" x="123.5" y="-64.5" font-family="Helvetica,sans-Serif" font-size="10.00">Solver</text>
</a>
</g>
</g>
<!-- Node1&#45;&gt;Node2 -->
<g id="edge1" class="edge"><title>Node1&#45;&gt;Node2</title>
<path fill="none" stroke="midnightblue" d="M65.1287,-67C73.4194,-67 82.3624,-67 90.6639,-67"/>
<polygon fill="midnightblue" stroke="midnightblue" points="90.7389,-70.5001 100.739,-67 90.7388,-63.5001 90.7389,-70.5001"/>
</g>
<!-- Node3 -->
<g id="node3" class="node"><title>Node3</title>
<g id="a_node3"><a xlink:href="util_8cpp.html#a64d956f1dda7f9a80ab5d594532b906d" target="_top" xlink:title="Return boolean argument or default value. ">
<polygon fill="white" stroke="black" points="218,-114.5 218,-133.5 286,-133.5 286,-114.5 218,-114.5"/>
<text text-anchor="middle" x="252" y="-121.5" font-family="Helvetica,sans-Serif" font-size="10.00">GetBoolArg</text>
</a>
</g>
</g>
<!-- Node2&#45;&gt;Node3 -->
<g id="edge2" class="edge"><title>Node2&#45;&gt;Node3</title>
<path fill="none" stroke="midnightblue" d="M136.62,-76.6613C147.822,-85.1762 165.222,-97.3796 182,-105 190.219,-108.733 199.331,-111.878 208.167,-114.467"/>
<polygon fill="midnightblue" stroke="midnightblue" points="207.393,-117.884 217.963,-117.157 209.246,-111.134 207.393,-117.884"/>
</g>
<!-- Node5 -->
<g id="node5" class="node"><title>Node5</title>
<g id="a_node5"><a xlink:href="class_c_script.html#acba6d6d35776de4ce3a632446f44805f" target="_top" xlink:title="CScript::IsPayToScriptHash">
<polygon fill="white" stroke="black" points="182,-76.5 182,-95.5 322,-95.5 322,-76.5 182,-76.5"/>
<text text-anchor="middle" x="252" y="-83.5" font-family="Helvetica,sans-Serif" font-size="10.00">CScript::IsPayToScriptHash</text>
</a>
</g>
</g>
<!-- Node2&#45;&gt;Node5 -->
<g id="edge4" class="edge"><title>Node2&#45;&gt;Node5</title>
<path fill="none" stroke="midnightblue" d="M146.246,-70.2662C155.207,-71.612 166.157,-73.2567 177.56,-74.9695"/>
<polygon fill="midnightblue" stroke="midnightblue" points="177.251,-78.4623 187.66,-76.4865 178.291,-71.5399 177.251,-78.4623"/>
</g>
<!-- Node6 -->
<g id="node6" class="node"><title>Node6</title>
<g id="a_node6"><a xlink:href="class_c_script.html#a94635ed93d8d244ec3acfa83f9ecfe5f" target="_top" xlink:title="CScript::GetOp">
<polygon fill="white" stroke="black" points="210,-38.5 210,-57.5 294,-57.5 294,-38.5 210,-38.5"/>
<text text-anchor="middle" x="252" y="-45.5" font-family="Helvetica,sans-Serif" font-size="10.00">CScript::GetOp</text>
</a>
</g>
</g>
<!-- Node2&#45;&gt;Node6 -->
<g id="edge5" class="edge"><title>Node2&#45;&gt;Node6</title>
<path fill="none" stroke="midnightblue" d="M146.246,-63.7338C161.036,-61.5123 181.247,-58.4767 199.973,-55.6642"/>
<polygon fill="midnightblue" stroke="midnightblue" points="200.516,-59.122 209.885,-54.1754 199.476,-52.1996 200.516,-59.122"/>
</g>
<!-- Node10 -->
<g id="node10" class="node"><title>Node10</title>
<g id="a_node10"><a xlink:href="class_c_script.html#a7f975fca06b3e9a17da8ba23c7647e2e" target="_top" xlink:title="CScript::DecodeOP_N">
<polygon fill="white" stroke="black" points="193.5,-0.5 193.5,-19.5 310.5,-19.5 310.5,-0.5 193.5,-0.5"/>
<text text-anchor="middle" x="252" y="-7.5" font-family="Helvetica,sans-Serif" font-size="10.00">CScript::DecodeOP_N</text>
</a>
</g>
</g>
<!-- Node2&#45;&gt;Node10 -->
<g id="edge9" class="edge"><title>Node2&#45;&gt;Node10</title>
<path fill="none" stroke="midnightblue" d="M136.62,-57.3387C147.822,-48.8238 165.222,-36.6204 182,-29 187.091,-26.6878 192.524,-24.6014 198.022,-22.7328"/>
<polygon fill="midnightblue" stroke="midnightblue" points="199.447,-25.9532 207.927,-19.603 197.338,-19.2785 199.447,-25.9532"/>
</g>
<!-- Node4 -->
<g id="node4" class="node"><title>Node4</title>
<g id="a_node4"><a xlink:href="util_8h.html#aa5ce96ec36f4413f820cec9c1831c070" target="_top" xlink:title="atoi">
<polygon fill="white" stroke="black" points="386.5,-114.5 386.5,-133.5 419.5,-133.5 419.5,-114.5 386.5,-114.5"/>
<text text-anchor="middle" x="403" y="-121.5" font-family="Helvetica,sans-Serif" font-size="10.00">atoi</text>
</a>
</g>
</g>
<!-- Node3&#45;&gt;Node4 -->
<g id="edge3" class="edge"><title>Node3&#45;&gt;Node4</title>
<path fill="none" stroke="midnightblue" d="M286.068,-124C313.253,-124 351.23,-124 376.206,-124"/>
<polygon fill="midnightblue" stroke="midnightblue" points="376.362,-127.5 386.362,-124 376.362,-120.5 376.362,-127.5"/>
</g>
<!-- Node7 -->
<g id="node7" class="node"><title>Node7</title>
<g id="a_node7"><a xlink:href="class_c_script.html#a93ec95275ccce9b701c8f53c57cd7975" target="_top" xlink:title="CScript::GetOp2">
<polygon fill="white" stroke="black" points="358,-38.5 358,-57.5 448,-57.5 448,-38.5 358,-38.5"/>
<text text-anchor="middle" x="403" y="-45.5" font-family="Helvetica,sans-Serif" font-size="10.00">CScript::GetOp2</text>
</a>
</g>
</g>
<!-- Node6&#45;&gt;Node7 -->
<g id="edge6" class="edge"><title>Node6&#45;&gt;Node7</title>
<path fill="none" stroke="midnightblue" d="M294.109,-48C310.671,-48 330.008,-48 347.701,-48"/>
<polygon fill="midnightblue" stroke="midnightblue" points="347.895,-51.5001 357.895,-48 347.895,-44.5001 347.895,-51.5001"/>
</g>
<!-- Node8 -->
<g id="node8" class="node"><title>Node8</title>
<g id="a_node8"><a xlink:href="glibc__compat_8cpp.html#a0f46826ab0466591e136db24394923cf" target="_top" xlink:title="memcpy">
<polygon fill="white" stroke="black" points="484,-38.5 484,-57.5 538,-57.5 538,-38.5 484,-38.5"/>
<text text-anchor="middle" x="511" y="-45.5" font-family="Helvetica,sans-Serif" font-size="10.00">memcpy</text>
</a>
</g>
</g>
<!-- Node7&#45;&gt;Node8 -->
<g id="edge7" class="edge"><title>Node7&#45;&gt;Node8</title>
<path fill="none" stroke="midnightblue" d="M448.033,-48C456.592,-48 465.472,-48 473.745,-48"/>
<polygon fill="midnightblue" stroke="midnightblue" points="473.831,-51.5001 483.831,-48 473.831,-44.5001 473.831,-51.5001"/>
</g>
<!-- Node9 -->
<g id="node9" class="node"><title>Node9</title>
<g id="a_node9"><a xlink:href="glibc__compat_8cpp.html#a9778d49e9029dd75bc53ecbbf9f5e9a1" target="_top" xlink:title="memmove">
<polygon fill="white" stroke="black" points="574,-38.5 574,-57.5 637,-57.5 637,-38.5 574,-38.5"/>
<text text-anchor="middle" x="605.5" y="-45.5" font-family="Helvetica,sans-Serif" font-size="10.00">memmove</text>
</a>
</g>
</g>
<!-- Node8&#45;&gt;Node9 -->
<g id="edge8" class="edge"><title>Node8&#45;&gt;Node9</title>
<path fill="none" stroke="midnightblue" d="M538.259,-48C546.244,-48 555.214,-48 563.912,-48"/>
<polygon fill="midnightblue" stroke="midnightblue" points="563.924,-51.5001 573.924,-48 563.924,-44.5001 563.924,-51.5001"/>
</g>
</g>
</svg>
