<?xml version="1.0" encoding="UTF-8" standalone="no"?>
<!DOCTYPE svg PUBLIC "-//W3C//DTD SVG 1.1//EN"
 "http://www.w3.org/Graphics/SVG/1.1/DTD/svg11.dtd">
<!-- Generated by graphviz version 2.38.0 (20140413.2041)
 -->
<!-- Title: SignSignature Pages: 1 -->
<svg width="223pt" height="66pt"
 viewBox="0.00 0.00 223.00 66.00" xmlns="http://www.w3.org/2000/svg" xmlns:xlink="http://www.w3.org/1999/xlink">
<g id="graph0" class="graph" transform="scale(1 1) rotate(0) translate(4 62)">
<title>SignSignature</title>
<polygon fill="white" stroke="none" points="-4,4 -4,-62 219,-62 219,4 -4,4"/>
<!-- Node1 -->
<g id="node1" class="node"><title>Node1</title>
<polygon fill="#bfbfbf" stroke="black" points="0,-19.5 0,-38.5 79,-38.5 79,-19.5 0,-19.5"/>
<text text-anchor="middle" x="39.5" y="-26.5" font-family="Helvetica,sans-Serif" font-size="10.00">SignSignature</text>
</g>
<!-- Node2 -->
<g id="node2" class="node"><title>Node2</title>
<g id="a_node2"><a xlink:href="rpcrawtransaction_8cpp.html#aa0d151e35c0ad5ec82df451a833aeadb" target="_top" xlink:title="signrawtransaction">
<polygon fill="white" stroke="black" points="115,-38.5 115,-57.5 215,-57.5 215,-38.5 115,-38.5"/>
<text text-anchor="middle" x="165" y="-45.5" font-family="Helvetica,sans-Serif" font-size="10.00">signrawtransaction</text>
</a>
</g>
</g>
<!-- Node1&#45;&gt;Node2 -->
<g id="edge1" class="edge"><title>Node1&#45;&gt;Node2</title>
<path fill="none" stroke="midnightblue" d="M89.3093,-36.5091C97.7402,-37.8062 106.508,-39.1551 114.946,-40.4532"/>
<polygon fill="midnightblue" stroke="midnightblue" points="89.6533,-33.0209 79.2373,-34.9596 88.5888,-39.9395 89.6533,-33.0209"/>
</g>
<!-- Node3 -->
<g id="node3" class="node"><title>Node3</title>
<g id="a_node3"><a xlink:href="script_8h.html#a3aef640e90fdb0fa95a8e2cda0cf6c22" target="_top" xlink:title="SignSignature">
<polygon fill="white" stroke="black" points="125.5,-0.5 125.5,-19.5 204.5,-19.5 204.5,-0.5 125.5,-0.5"/>
<text text-anchor="middle" x="165" y="-7.5" font-family="Helvetica,sans-Serif" font-size="10.00">SignSignature</text>
</a>
</g>
</g>
<!-- Node1&#45;&gt;Node3 -->
<g id="edge2" class="edge"><title>Node1&#45;&gt;Node3</title>
<path fill="none" stroke="midnightblue" d="M89.1425,-21.5165C101.18,-19.6646 113.915,-17.7054 125.4,-15.9384"/>
<polygon fill="midnightblue" stroke="midnightblue" points="88.5888,-18.0605 79.2373,-23.0404 89.6533,-24.9791 88.5888,-18.0605"/>
</g>
</g>
</svg>
