<?xml version="1.0" encoding="UTF-8" standalone="no"?>
<!DOCTYPE svg PUBLIC "-//W3C//DTD SVG 1.1//EN"
 "http://www.w3.org/Graphics/SVG/1.1/DTD/svg11.dtd">
<!-- Generated by graphviz version 2.38.0 (20140413.2041)
 -->
<!-- Title: ValueString Pages: 1 -->
<svg width="212pt" height="66pt"
 viewBox="0.00 0.00 212.00 66.00" xmlns="http://www.w3.org/2000/svg" xmlns:xlink="http://www.w3.org/1999/xlink">
<g id="graph0" class="graph" transform="scale(1 1) rotate(0) translate(4 62)">
<title>ValueString</title>
<polygon fill="white" stroke="none" points="-4,4 -4,-62 208,-62 208,4 -4,4"/>
<!-- Node1 -->
<g id="node1" class="node"><title>Node1</title>
<polygon fill="#bfbfbf" stroke="black" points="0,-19.5 0,-38.5 68,-38.5 68,-19.5 0,-19.5"/>
<text text-anchor="middle" x="34" y="-26.5" font-family="Helvetica,sans-Serif" font-size="10.00">ValueString</text>
</g>
<!-- Node2 -->
<g id="node2" class="node"><title>Node2</title>
<g id="a_node2"><a xlink:href="class_c_script_num.html#ab58edf8d8c555acbcac9e1ff9827a8da" target="_top" xlink:title="CScriptNum::getint">
<polygon fill="white" stroke="black" points="104,-38.5 104,-57.5 204,-57.5 204,-38.5 104,-38.5"/>
<text text-anchor="middle" x="154" y="-45.5" font-family="Helvetica,sans-Serif" font-size="10.00">CScriptNum::getint</text>
</a>
</g>
</g>
<!-- Node1&#45;&gt;Node2 -->
<g id="edge1" class="edge"><title>Node1&#45;&gt;Node2</title>
<path fill="none" stroke="midnightblue" d="M68.1836,-34.3431C76.2071,-35.635 85.024,-37.0547 93.8455,-38.4751"/>
<polygon fill="midnightblue" stroke="midnightblue" points="93.3359,-41.9381 103.765,-40.0724 94.4487,-35.0271 93.3359,-41.9381"/>
</g>
<!-- Node3 -->
<g id="node3" class="node"><title>Node3</title>
<g id="a_node3"><a xlink:href="util_8h.html#ace13a819ca4e98c22847d26b3b357e75" target="_top" xlink:title="HexStr">
<polygon fill="white" stroke="black" points="130.5,-0.5 130.5,-19.5 177.5,-19.5 177.5,-0.5 130.5,-0.5"/>
<text text-anchor="middle" x="154" y="-7.5" font-family="Helvetica,sans-Serif" font-size="10.00">HexStr</text>
</a>
</g>
</g>
<!-- Node1&#45;&gt;Node3 -->
<g id="edge2" class="edge"><title>Node1&#45;&gt;Node3</title>
<path fill="none" stroke="midnightblue" d="M68.1836,-23.6569C84.3999,-21.0458 103.857,-17.9128 120.043,-15.3066"/>
<polygon fill="midnightblue" stroke="midnightblue" points="120.824,-18.7261 130.14,-13.6808 119.711,-11.8151 120.824,-18.7261"/>
</g>
</g>
</svg>
