<?xml version="1.0" encoding="UTF-8" standalone="no"?>
<!DOCTYPE svg PUBLIC "-//W3C//DTD SVG 1.1//EN"
 "http://www.w3.org/Graphics/SVG/1.1/DTD/svg11.dtd">
<!-- Generated by graphviz version 2.38.0 (20140413.2041)
 -->
<!-- Title: Solver Pages: 1 -->
<svg width="962pt" height="956pt"
 viewBox="0.00 0.00 962.00 955.50" xmlns="http://www.w3.org/2000/svg" xmlns:xlink="http://www.w3.org/1999/xlink">
<g id="graph0" class="graph" transform="scale(1 1) rotate(0) translate(4 951.5)">
<title>Solver</title>
<polygon fill="white" stroke="none" points="-4,4 -4,-951.5 958,-951.5 958,4 -4,4"/>
<!-- Node1 -->
<g id="node1" class="node"><title>Node1</title>
<polygon fill="#bfbfbf" stroke="black" points="0,-586 0,-605 45,-605 45,-586 0,-586"/>
<text text-anchor="middle" x="22.5" y="-593" font-family="Helvetica,sans-Serif" font-size="10.00">Solver</text>
</g>
<!-- Node2 -->
<g id="node2" class="node"><title>Node2</title>
<g id="a_node2"><a xlink:href="class_c_bloom_filter.html#a544848eeef17b19bf51fbfe9b5f2d87e" target="_top" xlink:title="CBloomFilter::IsRelevant\lAndUpdate">
<polygon fill="white" stroke="black" points="81,-884.5 81,-914.5 208,-914.5 208,-884.5 81,-884.5"/>
<text text-anchor="start" x="89" y="-902.5" font-family="Helvetica,sans-Serif" font-size="10.00">CBloomFilter::IsRelevant</text>
<text text-anchor="middle" x="144.5" y="-891.5" font-family="Helvetica,sans-Serif" font-size="10.00">AndUpdate</text>
</a>
</g>
</g>
<!-- Node1&#45;&gt;Node2 -->
<g id="edge1" class="edge"><title>Node1&#45;&gt;Node2</title>
<path fill="none" stroke="midnightblue" d="M27.0205,-615.409C34.0995,-652.968 51.9139,-736.361 81,-801.5 94.9869,-832.824 117.959,-865.762 131.814,-884.357"/>
<polygon fill="midnightblue" stroke="midnightblue" points="30.4124,-614.5 25.1676,-605.294 23.5269,-615.761 30.4124,-614.5"/>
</g>
<!-- Node5 -->
<g id="node5" class="node"><title>Node5</title>
<g id="a_node5"><a xlink:href="main_8h.html#ac1a52eea4647539e3db1f8832b2bf9ba" target="_top" xlink:title="Check for standard transaction types. ">
<polygon fill="white" stroke="black" points="94.5,-624 94.5,-643 194.5,-643 194.5,-624 94.5,-624"/>
<text text-anchor="middle" x="144.5" y="-631" font-family="Helvetica,sans-Serif" font-size="10.00">AreInputsStandard</text>
</a>
</g>
</g>
<!-- Node1&#45;&gt;Node5 -->
<g id="edge4" class="edge"><title>Node1&#45;&gt;Node5</title>
<path fill="none" stroke="midnightblue" d="M54.6311,-605.938C63.166,-608.758 72.4285,-611.781 81,-614.5 90.9455,-617.654 101.815,-620.995 111.659,-623.982"/>
<polygon fill="midnightblue" stroke="midnightblue" points="55.6245,-602.58 45.031,-602.751 53.4186,-609.223 55.6245,-602.58"/>
</g>
<!-- Node9 -->
<g id="node9" class="node"><title>Node9</title>
<g id="a_node9"><a xlink:href="script_8cpp.html#a8e31b29d5a654a570c493f7aa9c3abd9" target="_top" xlink:title="Solver">
<polygon fill="white" stroke="black" points="122,-662 122,-681 167,-681 167,-662 122,-662"/>
<text text-anchor="middle" x="144.5" y="-669" font-family="Helvetica,sans-Serif" font-size="10.00">Solver</text>
</a>
</g>
</g>
<!-- Node1&#45;&gt;Node9 -->
<g id="edge8" class="edge"><title>Node1&#45;&gt;Node9</title>
<path fill="none" stroke="midnightblue" d="M37.1305,-612.992C47.8209,-625.62 63.7397,-642.199 81,-652.5 93.5626,-659.998 109.335,-664.764 121.892,-667.647"/>
<polygon fill="midnightblue" stroke="midnightblue" points="39.6471,-610.54 30.6125,-605.006 34.224,-614.966 39.6471,-610.54"/>
</g>
<!-- Node10 -->
<g id="node10" class="node"><title>Node10</title>
<g id="a_node10"><a xlink:href="script_8h.html#abb2b48ecfd43dcb01e25d9d4c333a340" target="_top" xlink:title="IsStandard">
<polygon fill="white" stroke="black" points="112,-773 112,-792 177,-792 177,-773 112,-773"/>
<text text-anchor="middle" x="144.5" y="-780" font-family="Helvetica,sans-Serif" font-size="10.00">IsStandard</text>
</a>
</g>
</g>
<!-- Node1&#45;&gt;Node10 -->
<g id="edge9" class="edge"><title>Node1&#45;&gt;Node10</title>
<path fill="none" stroke="midnightblue" d="M34.129,-613.695C45.4639,-632.947 64.0769,-664.127 81,-690.5 100.605,-721.052 125.122,-756.347 136.763,-772.942"/>
<polygon fill="midnightblue" stroke="midnightblue" points="37.1298,-611.894 29.0503,-605.04 31.0924,-615.436 37.1298,-611.894"/>
</g>
<!-- Node12 -->
<g id="node12" class="node"><title>Node12</title>
<g id="a_node12"><a xlink:href="script_8h.html#ae1531a999ac1bfa59d70cfc984f1266b" target="_top" xlink:title="IsMine">
<polygon fill="white" stroke="black" points="121.5,-586 121.5,-605 167.5,-605 167.5,-586 121.5,-586"/>
<text text-anchor="middle" x="144.5" y="-593" font-family="Helvetica,sans-Serif" font-size="10.00">IsMine</text>
</a>
</g>
</g>
<!-- Node1&#45;&gt;Node12 -->
<g id="edge12" class="edge"><title>Node1&#45;&gt;Node12</title>
<path fill="none" stroke="midnightblue" d="M55.4649,-595.5C76.1762,-595.5 102.637,-595.5 121.117,-595.5"/>
<polygon fill="midnightblue" stroke="midnightblue" points="55.2311,-592 45.2311,-595.5 55.2311,-599 55.2311,-592"/>
</g>
<!-- Node13 -->
<g id="node13" class="node"><title>Node13</title>
<g id="a_node13"><a xlink:href="script_8h.html#a951f7e601746ae076afdf3169ecca2fc" target="_top" xlink:title="ExtractDestination">
<polygon fill="white" stroke="black" points="95.5,-548 95.5,-567 193.5,-567 193.5,-548 95.5,-548"/>
<text text-anchor="middle" x="144.5" y="-555" font-family="Helvetica,sans-Serif" font-size="10.00">ExtractDestination</text>
</a>
</g>
</g>
<!-- Node1&#45;&gt;Node13 -->
<g id="edge13" class="edge"><title>Node1&#45;&gt;Node13</title>
<path fill="none" stroke="midnightblue" d="M54.6311,-585.062C63.166,-582.242 72.4285,-579.219 81,-576.5 90.9455,-573.346 101.815,-570.005 111.659,-567.018"/>
<polygon fill="midnightblue" stroke="midnightblue" points="53.4186,-581.777 45.031,-588.249 55.6245,-588.42 53.4186,-581.777"/>
</g>
<!-- Node35 -->
<g id="node35" class="node"><title>Node35</title>
<g id="a_node35"><a xlink:href="script_8h.html#a49e36ddce090cc66aba405c0755c8be7" target="_top" xlink:title="ExtractDestinations">
<polygon fill="white" stroke="black" points="275,-192 275,-211 378,-211 378,-192 275,-192"/>
<text text-anchor="middle" x="326.5" y="-199" font-family="Helvetica,sans-Serif" font-size="10.00">ExtractDestinations</text>
</a>
</g>
</g>
<!-- Node1&#45;&gt;Node35 -->
<g id="edge51" class="edge"><title>Node1&#45;&gt;Node35</title>
<path fill="none" stroke="midnightblue" d="M38.9513,-578.214C73.7568,-538.461 159.068,-436.351 208,-337.5 232.136,-288.741 204.217,-257.612 244,-220.5 252.499,-212.572 263.645,-207.743 274.954,-204.851"/>
<polygon fill="midnightblue" stroke="midnightblue" points="36.133,-576.118 32.1398,-585.931 41.3812,-580.75 36.133,-576.118"/>
</g>
<!-- Node47 -->
<g id="node47" class="node"><title>Node47</title>
<g id="a_node47"><a xlink:href="script_8h.html#aca7dc730fd42e706b2c912ba32b65a36" target="_top" xlink:title="SignSignature">
<polygon fill="white" stroke="black" points="105,-154 105,-173 184,-173 184,-154 105,-154"/>
<text text-anchor="middle" x="144.5" y="-161" font-family="Helvetica,sans-Serif" font-size="10.00">SignSignature</text>
</a>
</g>
</g>
<!-- Node1&#45;&gt;Node47 -->
<g id="edge52" class="edge"><title>Node1&#45;&gt;Node47</title>
<path fill="none" stroke="midnightblue" d="M24.9993,-575.88C29.2798,-525.656 43.7388,-388.845 81,-281.5 95.8239,-238.794 124.328,-192.683 137.07,-173.132"/>
<polygon fill="midnightblue" stroke="midnightblue" points="21.4996,-575.735 24.1783,-585.985 28.4766,-576.302 21.4996,-575.735"/>
</g>
<!-- Node50 -->
<g id="node50" class="node"><title>Node50</title>
<g id="a_node50"><a xlink:href="script_8h.html#af2e061fe8f5ec7708f28db4628ff5c10" target="_top" xlink:title="CombineSignatures">
<polygon fill="white" stroke="black" points="92.5,-291 92.5,-310 196.5,-310 196.5,-291 92.5,-291"/>
<text text-anchor="middle" x="144.5" y="-298" font-family="Helvetica,sans-Serif" font-size="10.00">CombineSignatures</text>
</a>
</g>
</g>
<!-- Node1&#45;&gt;Node50 -->
<g id="edge55" class="edge"><title>Node1&#45;&gt;Node50</title>
<path fill="none" stroke="midnightblue" d="M31.1743,-576.057C42.1269,-548.36 62.9192,-495.97 81,-451.5 102.8,-397.883 129.544,-333.832 139.51,-310.023"/>
<polygon fill="midnightblue" stroke="midnightblue" points="27.7817,-575.119 27.3621,-585.705 34.292,-577.691 27.7817,-575.119"/>
</g>
<!-- Node3 -->
<g id="node3" class="node"><title>Node3</title>
<g id="a_node3"><a xlink:href="class_c_merkle_block.html#a5d08ce7034216ca25b0f9eab6bf8c389" target="_top" xlink:title="CMerkleBlock::CMerkleBlock">
<polygon fill="white" stroke="black" points="254,-890 254,-909 399,-909 399,-890 254,-890"/>
<text text-anchor="middle" x="326.5" y="-897" font-family="Helvetica,sans-Serif" font-size="10.00">CMerkleBlock::CMerkleBlock</text>
</a>
</g>
</g>
<!-- Node2&#45;&gt;Node3 -->
<g id="edge2" class="edge"><title>Node2&#45;&gt;Node3</title>
<path fill="none" stroke="midnightblue" d="M218.347,-899.5C230.031,-899.5 242.116,-899.5 253.774,-899.5"/>
<polygon fill="midnightblue" stroke="midnightblue" points="218.203,-896 208.203,-899.5 218.203,-903 218.203,-896"/>
</g>
<!-- Node4 -->
<g id="node4" class="node"><title>Node4</title>
<g id="a_node4"><a xlink:href="net_8h.html#aa7eea5ebcc85b5a7a0ae3716608bfffe" target="_top" xlink:title="RelayTransaction">
<polygon fill="white" stroke="black" points="279.5,-928 279.5,-947 373.5,-947 373.5,-928 279.5,-928"/>
<text text-anchor="middle" x="326.5" y="-935" font-family="Helvetica,sans-Serif" font-size="10.00">RelayTransaction</text>
</a>
</g>
</g>
<!-- Node2&#45;&gt;Node4 -->
<g id="edge3" class="edge"><title>Node2&#45;&gt;Node4</title>
<path fill="none" stroke="midnightblue" d="M218.078,-914.822C239.113,-919.263 261.469,-923.982 280.308,-927.959"/>
<polygon fill="midnightblue" stroke="midnightblue" points="218.71,-911.378 208.203,-912.737 217.264,-918.227 218.71,-911.378"/>
</g>
<!-- Node6 -->
<g id="node6" class="node"><title>Node6</title>
<g id="a_node6"><a xlink:href="main_8h.html#a1032f75235456abfa96b63e34e7ee2cc" target="_top" xlink:title="(try to) add transaction to memory pool ">
<polygon fill="white" stroke="black" points="470,-833 470,-852 585,-852 585,-833 470,-833"/>
<text text-anchor="middle" x="527.5" y="-840" font-family="Helvetica,sans-Serif" font-size="10.00">AcceptToMemoryPool</text>
</a>
</g>
</g>
<!-- Node5&#45;&gt;Node6 -->
<g id="edge5" class="edge"><title>Node5&#45;&gt;Node6</title>
<path fill="none" stroke="midnightblue" d="M203.392,-648.294C205.029,-649.582 206.573,-650.981 208,-652.5 255.531,-703.102 192.544,-757.895 244,-804.5 276.185,-833.651 397.009,-840.693 469.814,-842.238"/>
<polygon fill="midnightblue" stroke="midnightblue" points="204.874,-645.091 194.545,-642.733 201.149,-651.018 204.874,-645.091"/>
</g>
<!-- Node7 -->
<g id="node7" class="node"><title>Node7</title>
<g id="a_node7"><a xlink:href="class_c_merkle_tx.html#a032705bde1c536cd1b14f01f914e12f0" target="_top" xlink:title="CMerkleTx::AcceptToMemoryPool">
<polygon fill="white" stroke="red" points="646,-814 646,-833 815,-833 815,-814 646,-814"/>
<text text-anchor="middle" x="730.5" y="-821" font-family="Helvetica,sans-Serif" font-size="10.00">CMerkleTx::AcceptToMemoryPool</text>
</a>
</g>
</g>
<!-- Node6&#45;&gt;Node7 -->
<g id="edge6" class="edge"><title>Node6&#45;&gt;Node7</title>
<path fill="none" stroke="midnightblue" d="M595.392,-836.177C611.485,-834.656 628.877,-833.012 645.634,-831.428"/>
<polygon fill="midnightblue" stroke="midnightblue" points="594.651,-832.731 585.025,-837.157 595.31,-839.7 594.651,-832.731"/>
</g>
<!-- Node8 -->
<g id="node8" class="node"><title>Node8</title>
<g id="a_node8"><a xlink:href="rpcrawtransaction_8cpp.html#ad5aad44f890060f42efb49acf349511e" target="_top" xlink:title="sendrawtransaction">
<polygon fill="white" stroke="black" points="679,-852 679,-871 782,-871 782,-852 679,-852"/>
<text text-anchor="middle" x="730.5" y="-859" font-family="Helvetica,sans-Serif" font-size="10.00">sendrawtransaction</text>
</a>
</g>
</g>
<!-- Node6&#45;&gt;Node8 -->
<g id="edge7" class="edge"><title>Node6&#45;&gt;Node8</title>
<path fill="none" stroke="midnightblue" d="M595.27,-848.812C622.533,-851.389 653.542,-854.32 678.883,-856.715"/>
<polygon fill="midnightblue" stroke="midnightblue" points="595.31,-845.3 585.025,-847.843 594.651,-852.269 595.31,-845.3"/>
</g>
<!-- Node11 -->
<g id="node11" class="node"><title>Node11</title>
<g id="a_node11"><a xlink:href="main_8cpp.html#acd163a09d0e4384ebe85dead57730dd7" target="_top" xlink:title="IsStandardTx">
<polygon fill="white" stroke="black" points="288.5,-852 288.5,-871 364.5,-871 364.5,-852 288.5,-852"/>
<text text-anchor="middle" x="326.5" y="-859" font-family="Helvetica,sans-Serif" font-size="10.00">IsStandardTx</text>
</a>
</g>
</g>
<!-- Node10&#45;&gt;Node11 -->
<g id="edge10" class="edge"><title>Node10&#45;&gt;Node11</title>
<path fill="none" stroke="midnightblue" d="M168.841,-797.493C188.342,-809.533 217.189,-826.233 244,-837.5 258.142,-843.443 274.244,-848.518 288.38,-852.45"/>
<polygon fill="midnightblue" stroke="midnightblue" points="170.658,-794.501 160.324,-792.163 166.945,-800.435 170.658,-794.501"/>
</g>
<!-- Node11&#45;&gt;Node6 -->
<g id="edge11" class="edge"><title>Node11&#45;&gt;Node6</title>
<path fill="none" stroke="midnightblue" d="M375.018,-856.963C403.436,-854.25 439.721,-850.785 469.654,-847.928"/>
<polygon fill="midnightblue" stroke="midnightblue" points="374.552,-853.492 364.93,-857.926 375.218,-860.46 374.552,-853.492"/>
</g>
<!-- Node14 -->
<g id="node14" class="node"><title>Node14</title>
<g id="a_node14"><a xlink:href="class_coin_control_dialog.html#a4fc60e89b097952ff22dc0f9c58c87d9" target="_top" xlink:title="CoinControlDialog::\lupdateLabels">
<polygon fill="white" stroke="black" points="275,-411.5 275,-441.5 378,-441.5 378,-411.5 275,-411.5"/>
<text text-anchor="start" x="283" y="-429.5" font-family="Helvetica,sans-Serif" font-size="10.00">CoinControlDialog::</text>
<text text-anchor="middle" x="326.5" y="-418.5" font-family="Helvetica,sans-Serif" font-size="10.00">updateLabels</text>
</a>
</g>
</g>
<!-- Node13&#45;&gt;Node14 -->
<g id="edge14" class="edge"><title>Node13&#45;&gt;Node14</title>
<path fill="none" stroke="midnightblue" d="M167.26,-541.663C202.205,-516.231 270.383,-466.613 304.705,-441.634"/>
<polygon fill="midnightblue" stroke="midnightblue" points="164.762,-539.153 158.736,-547.867 168.881,-544.813 164.762,-539.153"/>
</g>
<!-- Node19 -->
<g id="node19" class="node"><title>Node19</title>
<g id="a_node19"><a xlink:href="class_coin_control_dialog.html#aadea33050e5c1efd5eae8d2fcfa721f9" target="_top" xlink:title="CoinControlDialog::\lupdateView">
<polygon fill="white" stroke="black" points="679,-504.5 679,-534.5 782,-534.5 782,-504.5 679,-504.5"/>
<text text-anchor="start" x="687" y="-522.5" font-family="Helvetica,sans-Serif" font-size="10.00">CoinControlDialog::</text>
<text text-anchor="middle" x="730.5" y="-511.5" font-family="Helvetica,sans-Serif" font-size="10.00">updateView</text>
</a>
</g>
</g>
<!-- Node13&#45;&gt;Node19 -->
<g id="edge19" class="edge"><title>Node13&#45;&gt;Node19</title>
<path fill="none" stroke="midnightblue" d="M197.541,-545.936C212.471,-543.034 228.818,-540.251 244,-538.5 401.958,-520.281 590.526,-518.591 678.985,-518.966"/>
<polygon fill="midnightblue" stroke="midnightblue" points="196.582,-542.558 187.464,-547.953 197.956,-549.422 196.582,-542.558"/>
</g>
<!-- Node22 -->
<g id="node22" class="node"><title>Node22</title>
<g id="a_node22"><a xlink:href="class_payment_server.html#abe96a7c90755b8e1975e380b5a8228bd" target="_top" xlink:title="PaymentServer::processPayment\lRequest">
<polygon fill="white" stroke="black" points="244,-318.5 244,-348.5 409,-348.5 409,-318.5 244,-318.5"/>
<text text-anchor="start" x="252" y="-336.5" font-family="Helvetica,sans-Serif" font-size="10.00">PaymentServer::processPayment</text>
<text text-anchor="middle" x="326.5" y="-325.5" font-family="Helvetica,sans-Serif" font-size="10.00">Request</text>
</a>
</g>
</g>
<!-- Node13&#45;&gt;Node22 -->
<g id="edge23" class="edge"><title>Node13&#45;&gt;Node22</title>
<path fill="none" stroke="midnightblue" d="M161.227,-540.409C174.724,-525.185 194.136,-501.913 208,-479.5 228.086,-447.029 220.774,-431.804 244,-401.5 260.366,-380.146 284.573,-361.032 302.354,-348.548"/>
<polygon fill="midnightblue" stroke="midnightblue" points="158.499,-538.208 154.41,-547.982 163.702,-542.891 158.499,-538.208"/>
</g>
<!-- Node25 -->
<g id="node25" class="node"><title>Node25</title>
<g id="a_node25"><a xlink:href="class_transaction_desc.html#ab7c9dbb2048aae121dd9d75df86e64f4" target="_top" xlink:title="TransactionDesc::toHTML">
<polygon fill="white" stroke="black" points="260,-280 260,-299 393,-299 393,-280 260,-280"/>
<text text-anchor="middle" x="326.5" y="-287" font-family="Helvetica,sans-Serif" font-size="10.00">TransactionDesc::toHTML</text>
</a>
</g>
</g>
<!-- Node13&#45;&gt;Node25 -->
<g id="edge26" class="edge"><title>Node13&#45;&gt;Node25</title>
<path fill="none" stroke="midnightblue" d="M162.998,-540.615C177.283,-525.824 196.864,-503.062 208,-479.5 241.187,-409.282 189.677,-364.006 244,-308.5 248.573,-303.827 254.056,-300.211 259.989,-297.422"/>
<polygon fill="midnightblue" stroke="midnightblue" points="160.26,-538.406 155.695,-547.967 165.226,-543.339 160.26,-538.406"/>
</g>
<!-- Node27 -->
<g id="node27" class="node"><title>Node27</title>
<g id="a_node27"><a xlink:href="class_transaction_record.html#a9f5db4465fa5fdcc3f9af525096bcdb9" target="_top" xlink:title="TransactionRecord::\ldecomposeTransaction">
<polygon fill="white" stroke="black" points="266.5,-230.5 266.5,-260.5 386.5,-260.5 386.5,-230.5 266.5,-230.5"/>
<text text-anchor="start" x="274.5" y="-248.5" font-family="Helvetica,sans-Serif" font-size="10.00">TransactionRecord::</text>
<text text-anchor="middle" x="326.5" y="-237.5" font-family="Helvetica,sans-Serif" font-size="10.00">decomposeTransaction</text>
</a>
</g>
</g>
<!-- Node13&#45;&gt;Node27 -->
<g id="edge28" class="edge"><title>Node13&#45;&gt;Node27</title>
<path fill="none" stroke="midnightblue" d="M163.71,-540.219C178.085,-525.48 197.421,-502.997 208,-479.5 246.696,-393.553 181.716,-341.247 244,-270.5 250.063,-263.613 257.97,-258.595 266.472,-254.946"/>
<polygon fill="midnightblue" stroke="midnightblue" points="160.944,-538.034 156.323,-547.568 165.881,-542.997 160.944,-538.034"/>
</g>
<!-- Node30 -->
<g id="node30" class="node"><title>Node30</title>
<g id="a_node30"><a xlink:href="class_wallet_model.html#aadf8de5a584594abdb299b463bd7578f" target="_top" xlink:title="WalletModel::listCoins">
<polygon fill="white" stroke="black" points="470,-776 470,-795 585,-795 585,-776 470,-776"/>
<text text-anchor="middle" x="527.5" y="-783" font-family="Helvetica,sans-Serif" font-size="10.00">WalletModel::listCoins</text>
</a>
</g>
</g>
<!-- Node13&#45;&gt;Node30 -->
<g id="edge31" class="edge"><title>Node13&#45;&gt;Node30</title>
<path fill="none" stroke="midnightblue" d="M202.605,-571.959C204.52,-573.338 206.33,-574.847 208,-576.5 245.772,-613.868 204.966,-654.452 244,-690.5 299.285,-741.555 343.671,-691.148 409,-728.5 429.196,-740.047 424.819,-754.926 445,-766.5 452.562,-770.837 461.056,-774.185 469.63,-776.769"/>
<polygon fill="midnightblue" stroke="midnightblue" points="204.036,-568.741 193.637,-566.713 200.501,-574.783 204.036,-568.741"/>
</g>
<!-- Node31 -->
<g id="node31" class="node"><title>Node31</title>
<g id="a_node31"><a xlink:href="rpcwallet_8cpp.html#a07526be5270b0e55b4a0b79c01205f3d" target="_top" xlink:title="getreceivedbyaccount">
<polygon fill="white" stroke="black" points="269.5,-738 269.5,-757 383.5,-757 383.5,-738 269.5,-738"/>
<text text-anchor="middle" x="326.5" y="-745" font-family="Helvetica,sans-Serif" font-size="10.00">getreceivedbyaccount</text>
</a>
</g>
</g>
<!-- Node13&#45;&gt;Node31 -->
<g id="edge33" class="edge"><title>Node13&#45;&gt;Node31</title>
<path fill="none" stroke="midnightblue" d="M202.19,-571.41C204.274,-572.935 206.226,-574.626 208,-576.5 254.238,-625.352 197.549,-674.851 244,-723.5 250.927,-730.754 259.924,-735.848 269.403,-739.417"/>
<polygon fill="midnightblue" stroke="midnightblue" points="203.975,-568.399 193.589,-566.307 200.403,-574.42 203.975,-568.399"/>
</g>
<!-- Node32 -->
<g id="node32" class="node"><title>Node32</title>
<g id="a_node32"><a xlink:href="rpcwallet_8cpp.html#a0cc958f67a8d6d0002cb4fee19eddb5c" target="_top" xlink:title="ListReceived">
<polygon fill="white" stroke="black" points="289.5,-662 289.5,-681 363.5,-681 363.5,-662 289.5,-662"/>
<text text-anchor="middle" x="326.5" y="-669" font-family="Helvetica,sans-Serif" font-size="10.00">ListReceived</text>
</a>
</g>
</g>
<!-- Node13&#45;&gt;Node32 -->
<g id="edge34" class="edge"><title>Node13&#45;&gt;Node32</title>
<path fill="none" stroke="midnightblue" d="M201.741,-571.879C203.946,-573.279 206.046,-574.815 208,-576.5 236.301,-600.913 214.908,-629.035 244,-652.5 256.666,-662.716 273.849,-667.629 289.172,-669.925"/>
<polygon fill="midnightblue" stroke="midnightblue" points="203.277,-568.732 192.805,-567.129 199.991,-574.913 203.277,-568.732"/>
</g>
<!-- Node13&#45;&gt;Node35 -->
<g id="edge37" class="edge"><title>Node13&#45;&gt;Node35</title>
<path fill="none" stroke="midnightblue" d="M163.913,-540.308C178.406,-525.622 197.804,-503.166 208,-479.5 253.986,-372.767 165.641,-306.328 244,-220.5 252.033,-211.702 263.281,-206.59 274.861,-203.707"/>
<polygon fill="midnightblue" stroke="midnightblue" points="161.141,-538.124 156.455,-547.626 166.044,-543.12 161.141,-538.124"/>
</g>
<!-- Node39 -->
<g id="node39" class="node"><title>Node39</title>
<g id="a_node39"><a xlink:href="class_c_wallet.html#a0864e64299906f8ba499510d12125a23" target="_top" xlink:title="CWallet::IsChange">
<polygon fill="white" stroke="black" points="276.5,-776 276.5,-795 376.5,-795 376.5,-776 276.5,-776"/>
<text text-anchor="middle" x="326.5" y="-783" font-family="Helvetica,sans-Serif" font-size="10.00">CWallet::IsChange</text>
</a>
</g>
</g>
<!-- Node13&#45;&gt;Node39 -->
<g id="edge41" class="edge"><title>Node13&#45;&gt;Node39</title>
<path fill="none" stroke="midnightblue" d="M202.752,-571.631C204.638,-573.099 206.4,-574.717 208,-576.5 265.409,-640.461 184.509,-704.47 244,-766.5 252.548,-775.413 264.405,-780.502 276.43,-783.323"/>
<polygon fill="midnightblue" stroke="midnightblue" points="204.154,-568.383 193.807,-566.106 200.476,-574.339 204.154,-568.383"/>
</g>
<!-- Node40 -->
<g id="node40" class="node"><title>Node40</title>
<g id="a_node40"><a xlink:href="class_c_wallet_tx.html#a19a09cfa7f9e3fb7d8666f616c838fb5" target="_top" xlink:title="CWalletTx::GetAmounts">
<polygon fill="white" stroke="black" points="264.5,-624 264.5,-643 388.5,-643 388.5,-624 264.5,-624"/>
<text text-anchor="middle" x="326.5" y="-631" font-family="Helvetica,sans-Serif" font-size="10.00">CWalletTx::GetAmounts</text>
</a>
</g>
</g>
<!-- Node13&#45;&gt;Node40 -->
<g id="edge43" class="edge"><title>Node13&#45;&gt;Node40</title>
<path fill="none" stroke="midnightblue" d="M197.266,-570.865C201.003,-572.541 204.624,-574.413 208,-576.5 227.788,-588.735 223.819,-602.926 244,-614.5 250.806,-618.403 258.366,-621.505 266.061,-623.97"/>
<polygon fill="midnightblue" stroke="midnightblue" points="198.402,-567.549 187.817,-567.09 195.805,-574.05 198.402,-567.549"/>
</g>
<!-- Node44 -->
<g id="node44" class="node"><title>Node44</title>
<g id="a_node44"><a xlink:href="class_c_wallet.html#aadffdf5d0e2f2413cdcc2a39fc2e310d" target="_top" xlink:title="CWallet::GetAddressBalances">
<polygon fill="white" stroke="black" points="251,-548 251,-567 402,-567 402,-548 251,-548"/>
<text text-anchor="middle" x="326.5" y="-555" font-family="Helvetica,sans-Serif" font-size="10.00">CWallet::GetAddressBalances</text>
</a>
</g>
</g>
<!-- Node13&#45;&gt;Node44 -->
<g id="edge47" class="edge"><title>Node13&#45;&gt;Node44</title>
<path fill="none" stroke="midnightblue" d="M203.839,-557.5C218.773,-557.5 235.041,-557.5 250.679,-557.5"/>
<polygon fill="midnightblue" stroke="midnightblue" points="203.737,-554 193.737,-557.5 203.737,-561 203.737,-554"/>
</g>
<!-- Node46 -->
<g id="node46" class="node"><title>Node46</title>
<g id="a_node46"><a xlink:href="class_c_wallet.html#a8eacbac6ad3697d90b98dfe02632f8ef" target="_top" xlink:title="CWallet::GetAddressGroupings">
<polygon fill="white" stroke="black" points="248.5,-586 248.5,-605 404.5,-605 404.5,-586 248.5,-586"/>
<text text-anchor="middle" x="326.5" y="-593" font-family="Helvetica,sans-Serif" font-size="10.00">CWallet::GetAddressGroupings</text>
</a>
</g>
</g>
<!-- Node13&#45;&gt;Node46 -->
<g id="edge49" class="edge"><title>Node13&#45;&gt;Node46</title>
<path fill="none" stroke="midnightblue" d="M200.831,-569.181C226.357,-574.57 256.276,-580.886 280.405,-585.98"/>
<polygon fill="midnightblue" stroke="midnightblue" points="201.429,-565.73 190.922,-567.089 199.983,-572.579 201.429,-565.73"/>
</g>
<!-- Node15 -->
<g id="node15" class="node"><title>Node15</title>
<g id="a_node15"><a xlink:href="class_coin_control_dialog.html#a4c34a48574814089c54f763a22f5317a" target="_top" xlink:title="CoinControlDialog::\lsetModel">
<polygon fill="white" stroke="red" points="851,-374.5 851,-404.5 954,-404.5 954,-374.5 851,-374.5"/>
<text text-anchor="start" x="859" y="-392.5" font-family="Helvetica,sans-Serif" font-size="10.00">CoinControlDialog::</text>
<text text-anchor="middle" x="902.5" y="-381.5" font-family="Helvetica,sans-Serif" font-size="10.00">setModel</text>
</a>
</g>
</g>
<!-- Node14&#45;&gt;Node15 -->
<g id="edge15" class="edge"><title>Node14&#45;&gt;Node15</title>
<path fill="none" stroke="midnightblue" d="M352.654,-404.684C375.142,-386.727 409.88,-362.638 445,-352.5 589.003,-310.933 768.444,-350.64 853.059,-374.47"/>
<polygon fill="midnightblue" stroke="midnightblue" points="350.183,-402.183 344.66,-411.224 354.616,-407.601 350.183,-402.183"/>
</g>
<!-- Node16 -->
<g id="node16" class="node"><title>Node16</title>
<g id="a_node16"><a xlink:href="class_coin_control_dialog.html#ae106a71c5b87ac8bea8c52e7c4f4a129" target="_top" xlink:title="CoinControlDialog::\lbuttonSelectAllClicked">
<polygon fill="white" stroke="red" points="469.5,-411.5 469.5,-441.5 585.5,-441.5 585.5,-411.5 469.5,-411.5"/>
<text text-anchor="start" x="477.5" y="-429.5" font-family="Helvetica,sans-Serif" font-size="10.00">CoinControlDialog::</text>
<text text-anchor="middle" x="527.5" y="-418.5" font-family="Helvetica,sans-Serif" font-size="10.00">buttonSelectAllClicked</text>
</a>
</g>
</g>
<!-- Node14&#45;&gt;Node16 -->
<g id="edge16" class="edge"><title>Node14&#45;&gt;Node16</title>
<path fill="none" stroke="midnightblue" d="M388.245,-426.5C413.985,-426.5 443.826,-426.5 469.182,-426.5"/>
<polygon fill="midnightblue" stroke="midnightblue" points="388.231,-423 378.231,-426.5 388.231,-430 388.231,-423"/>
</g>
<!-- Node17 -->
<g id="node17" class="node"><title>Node17</title>
<g id="a_node17"><a xlink:href="class_coin_control_dialog.html#ac3c37dabd83f71d9c96bf5567fe85234" target="_top" xlink:title="CoinControlDialog::\lviewItemChanged">
<polygon fill="white" stroke="red" points="476,-362.5 476,-392.5 579,-392.5 579,-362.5 476,-362.5"/>
<text text-anchor="start" x="484" y="-380.5" font-family="Helvetica,sans-Serif" font-size="10.00">CoinControlDialog::</text>
<text text-anchor="middle" x="527.5" y="-369.5" font-family="Helvetica,sans-Serif" font-size="10.00">viewItemChanged</text>
</a>
</g>
</g>
<!-- Node14&#45;&gt;Node17 -->
<g id="edge17" class="edge"><title>Node14&#45;&gt;Node17</title>
<path fill="none" stroke="midnightblue" d="M387.947,-411.616C416.05,-404.696 449.094,-396.56 475.862,-389.969"/>
<polygon fill="midnightblue" stroke="midnightblue" points="387.104,-408.219 378.231,-414.008 388.778,-415.016 387.104,-408.219"/>
</g>
<!-- Node18 -->
<g id="node18" class="node"><title>Node18</title>
<g id="a_node18"><a xlink:href="class_send_coins_dialog.html#ae4f429aabcaf309aa314b90049be2a74" target="_top" xlink:title="SendCoinsDialog::coinControl\lUpdateLabels">
<polygon fill="white" stroke="red" points="452.5,-460.5 452.5,-490.5 602.5,-490.5 602.5,-460.5 452.5,-460.5"/>
<text text-anchor="start" x="460.5" y="-478.5" font-family="Helvetica,sans-Serif" font-size="10.00">SendCoinsDialog::coinControl</text>
<text text-anchor="middle" x="527.5" y="-467.5" font-family="Helvetica,sans-Serif" font-size="10.00">UpdateLabels</text>
</a>
</g>
</g>
<!-- Node14&#45;&gt;Node18 -->
<g id="edge18" class="edge"><title>Node14&#45;&gt;Node18</title>
<path fill="none" stroke="midnightblue" d="M388.147,-441.433C412.7,-447.479 440.997,-454.446 465.578,-460.499"/>
<polygon fill="midnightblue" stroke="midnightblue" points="388.778,-437.984 378.231,-438.992 387.104,-444.781 388.778,-437.984"/>
</g>
<!-- Node19&#45;&gt;Node15 -->
<g id="edge20" class="edge"><title>Node19&#45;&gt;Node15</title>
<path fill="none" stroke="midnightblue" d="M759.571,-498.034C794.054,-471.664 851.671,-427.604 881.792,-404.57"/>
<polygon fill="midnightblue" stroke="midnightblue" points="757.151,-495.478 751.334,-504.333 761.404,-501.039 757.151,-495.478"/>
</g>
<!-- Node20 -->
<g id="node20" class="node"><title>Node20</title>
<g id="a_node20"><a xlink:href="class_coin_control_dialog.html#a1990d478f3ffba666c358a4f1bd395ec" target="_top" xlink:title="CoinControlDialog::\lradioTreeMode">
<polygon fill="white" stroke="red" points="851,-479.5 851,-509.5 954,-509.5 954,-479.5 851,-479.5"/>
<text text-anchor="start" x="859" y="-497.5" font-family="Helvetica,sans-Serif" font-size="10.00">CoinControlDialog::</text>
<text text-anchor="middle" x="902.5" y="-486.5" font-family="Helvetica,sans-Serif" font-size="10.00">radioTreeMode</text>
</a>
</g>
</g>
<!-- Node19&#45;&gt;Node20 -->
<g id="edge21" class="edge"><title>Node19&#45;&gt;Node20</title>
<path fill="none" stroke="midnightblue" d="M792.202,-510.573C811.412,-507.748 832.429,-504.658 850.856,-501.948"/>
<polygon fill="midnightblue" stroke="midnightblue" points="791.43,-507.149 782.045,-512.067 792.448,-514.075 791.43,-507.149"/>
</g>
<!-- Node21 -->
<g id="node21" class="node"><title>Node21</title>
<g id="a_node21"><a xlink:href="class_coin_control_dialog.html#a775c6d290cb63667a434b09072094533" target="_top" xlink:title="CoinControlDialog::\lradioListMode">
<polygon fill="white" stroke="red" points="851,-528.5 851,-558.5 954,-558.5 954,-528.5 851,-528.5"/>
<text text-anchor="start" x="859" y="-546.5" font-family="Helvetica,sans-Serif" font-size="10.00">CoinControlDialog::</text>
<text text-anchor="middle" x="902.5" y="-535.5" font-family="Helvetica,sans-Serif" font-size="10.00">radioListMode</text>
</a>
</g>
</g>
<!-- Node19&#45;&gt;Node21 -->
<g id="edge22" class="edge"><title>Node19&#45;&gt;Node21</title>
<path fill="none" stroke="midnightblue" d="M792.202,-528.07C811.412,-530.782 832.429,-533.749 850.856,-536.35"/>
<polygon fill="midnightblue" stroke="midnightblue" points="792.436,-524.568 782.045,-526.636 791.458,-531.499 792.436,-524.568"/>
</g>
<!-- Node23 -->
<g id="node23" class="node"><title>Node23</title>
<g id="a_node23"><a xlink:href="class_payment_server.html#adf4f844b3ce7f053690fd9260210640d" target="_top" xlink:title="PaymentServer::handleURIOrFile">
<polygon fill="white" stroke="red" points="445,-236 445,-255 610,-255 610,-236 445,-236"/>
<text text-anchor="middle" x="527.5" y="-243" font-family="Helvetica,sans-Serif" font-size="10.00">PaymentServer::handleURIOrFile</text>
</a>
</g>
</g>
<!-- Node22&#45;&gt;Node23 -->
<g id="edge24" class="edge"><title>Node22&#45;&gt;Node23</title>
<path fill="none" stroke="midnightblue" d="M399.33,-314.201C402.687,-312.456 405.932,-310.56 409,-308.5 429.976,-294.414 423.553,-277.858 445,-264.5 451.289,-260.583 458.308,-257.472 465.514,-255.002"/>
<polygon fill="midnightblue" stroke="midnightblue" points="397.788,-311.058 390.22,-318.473 400.76,-317.395 397.788,-311.058"/>
</g>
<!-- Node24 -->
<g id="node24" class="node"><title>Node24</title>
<g id="a_node24"><a xlink:href="class_payment_server.html#a5b8e2e6380142fb7ad631400bcfc6f28" target="_top" xlink:title="PaymentServer::netRequest\lFinished">
<polygon fill="white" stroke="red" points="456.5,-274.5 456.5,-304.5 598.5,-304.5 598.5,-274.5 456.5,-274.5"/>
<text text-anchor="start" x="464.5" y="-292.5" font-family="Helvetica,sans-Serif" font-size="10.00">PaymentServer::netRequest</text>
<text text-anchor="middle" x="527.5" y="-281.5" font-family="Helvetica,sans-Serif" font-size="10.00">Finished</text>
</a>
</g>
</g>
<!-- Node22&#45;&gt;Node24 -->
<g id="edge25" class="edge"><title>Node22&#45;&gt;Node24</title>
<path fill="none" stroke="midnightblue" d="M405.6,-316.232C423.089,-312.365 441.503,-308.293 458.541,-304.526"/>
<polygon fill="midnightblue" stroke="midnightblue" points="404.436,-312.904 395.428,-318.481 405.948,-319.739 404.436,-312.904"/>
</g>
<!-- Node26 -->
<g id="node26" class="node"><title>Node26</title>
<g id="a_node26"><a xlink:href="class_transaction_table_priv.html#ab08d44e16bf6dd95b5b83959b3013780" target="_top" xlink:title="TransactionTablePriv\l::describe">
<polygon fill="white" stroke="red" points="472,-186.5 472,-216.5 583,-216.5 583,-186.5 472,-186.5"/>
<text text-anchor="start" x="480" y="-204.5" font-family="Helvetica,sans-Serif" font-size="10.00">TransactionTablePriv</text>
<text text-anchor="middle" x="527.5" y="-193.5" font-family="Helvetica,sans-Serif" font-size="10.00">::describe</text>
</a>
</g>
</g>
<!-- Node25&#45;&gt;Node26 -->
<g id="edge27" class="edge"><title>Node25&#45;&gt;Node26</title>
<path fill="none" stroke="midnightblue" d="M395.28,-276.502C400.075,-274.494 404.705,-272.176 409,-269.5 430.154,-256.319 424.23,-240.278 445,-226.5 453.14,-221.1 462.5,-216.823 471.909,-213.449"/>
<polygon fill="midnightblue" stroke="midnightblue" points="394.051,-273.225 385.901,-279.994 396.494,-279.785 394.051,-273.225"/>
</g>
<!-- Node28 -->
<g id="node28" class="node"><title>Node28</title>
<g id="a_node28"><a xlink:href="class_transaction_table_priv.html#a1f81da5d7cfb2aac03a5e18e6bc91792" target="_top" xlink:title="TransactionTablePriv\l::refreshWallet">
<polygon fill="white" stroke="red" points="472,-88.5 472,-118.5 583,-118.5 583,-88.5 472,-88.5"/>
<text text-anchor="start" x="480" y="-106.5" font-family="Helvetica,sans-Serif" font-size="10.00">TransactionTablePriv</text>
<text text-anchor="middle" x="527.5" y="-95.5" font-family="Helvetica,sans-Serif" font-size="10.00">::refreshWallet</text>
</a>
</g>
</g>
<!-- Node27&#45;&gt;Node28 -->
<g id="edge29" class="edge"><title>Node27&#45;&gt;Node28</title>
<path fill="none" stroke="midnightblue" d="M395.996,-229.876C400.697,-227.225 405.105,-224.125 409,-220.5 441.444,-190.303 412.387,-157.514 445,-127.5 452.597,-120.508 462.133,-115.545 471.98,-112.025"/>
<polygon fill="midnightblue" stroke="midnightblue" points="394.102,-226.906 386.653,-234.441 397.175,-233.196 394.102,-226.906"/>
</g>
<!-- Node29 -->
<g id="node29" class="node"><title>Node29</title>
<g id="a_node29"><a xlink:href="class_transaction_table_priv.html#a27eb6d3e1f7717dd2cad80c5ce48f404" target="_top" xlink:title="TransactionTablePriv\l::updateWallet">
<polygon fill="white" stroke="red" points="472,-137.5 472,-167.5 583,-167.5 583,-137.5 472,-137.5"/>
<text text-anchor="start" x="480" y="-155.5" font-family="Helvetica,sans-Serif" font-size="10.00">TransactionTablePriv</text>
<text text-anchor="middle" x="527.5" y="-144.5" font-family="Helvetica,sans-Serif" font-size="10.00">::updateWallet</text>
</a>
</g>
</g>
<!-- Node27&#45;&gt;Node29 -->
<g id="edge30" class="edge"><title>Node27&#45;&gt;Node29</title>
<path fill="none" stroke="midnightblue" d="M396.198,-227.769C400.673,-225.608 404.988,-223.194 409,-220.5 429.976,-206.414 423.945,-190.468 445,-176.5 453.112,-171.118 462.459,-166.917 471.864,-163.644"/>
<polygon fill="midnightblue" stroke="midnightblue" points="394.597,-224.649 386.833,-231.858 397.398,-231.064 394.597,-224.649"/>
</g>
<!-- Node30&#45;&gt;Node19 -->
<g id="edge32" class="edge"><title>Node30&#45;&gt;Node19</title>
<path fill="none" stroke="midnightblue" d="M594.555,-775.679C600.096,-773.237 605.348,-770.221 610,-766.5 688.124,-704.017 718.489,-577.836 726.879,-534.507"/>
<polygon fill="midnightblue" stroke="midnightblue" points="593.139,-772.472 585.012,-779.269 595.604,-779.023 593.139,-772.472"/>
</g>
<!-- Node33 -->
<g id="node33" class="node"><title>Node33</title>
<g id="a_node33"><a xlink:href="rpcwallet_8cpp.html#a34b36ceb4a7e36e0dab24cf675c49da5" target="_top" xlink:title="listreceivedbyaddress">
<polygon fill="white" stroke="black" points="471,-738 471,-757 584,-757 584,-738 471,-738"/>
<text text-anchor="middle" x="527.5" y="-745" font-family="Helvetica,sans-Serif" font-size="10.00">listreceivedbyaddress</text>
</a>
</g>
</g>
<!-- Node32&#45;&gt;Node33 -->
<g id="edge35" class="edge"><title>Node32&#45;&gt;Node33</title>
<path fill="none" stroke="midnightblue" d="M373.665,-681.144C385.617,-684.686 398.164,-689.379 409,-695.5 427.899,-706.175 425.803,-718.371 445,-728.5 452.967,-732.703 461.855,-735.985 470.751,-738.545"/>
<polygon fill="midnightblue" stroke="midnightblue" points="374.386,-677.713 363.815,-678.434 372.528,-684.462 374.386,-677.713"/>
</g>
<!-- Node34 -->
<g id="node34" class="node"><title>Node34</title>
<g id="a_node34"><a xlink:href="rpcwallet_8cpp.html#ab7e240a25a3d2d30ffb65bdfdfa082eb" target="_top" xlink:title="listreceivedbyaccount">
<polygon fill="white" stroke="black" points="471.5,-700 471.5,-719 583.5,-719 583.5,-700 471.5,-700"/>
<text text-anchor="middle" x="527.5" y="-707" font-family="Helvetica,sans-Serif" font-size="10.00">listreceivedbyaccount</text>
</a>
</g>
</g>
<!-- Node32&#45;&gt;Node34 -->
<g id="edge36" class="edge"><title>Node32&#45;&gt;Node34</title>
<path fill="none" stroke="midnightblue" d="M373.587,-680.301C404.399,-686.184 444.922,-693.922 476.511,-699.954"/>
<polygon fill="midnightblue" stroke="midnightblue" points="374.016,-676.819 363.537,-678.382 372.703,-683.695 374.016,-676.819"/>
</g>
<!-- Node36 -->
<g id="node36" class="node"><title>Node36</title>
<g id="a_node36"><a xlink:href="rpcrawtransaction_8cpp.html#acb6efc0d76394e3858fe7451148069c2" target="_top" xlink:title="ScriptPubKeyToJSON">
<polygon fill="white" stroke="red" points="470,-50 470,-69 585,-69 585,-50 470,-50"/>
<text text-anchor="middle" x="527.5" y="-57" font-family="Helvetica,sans-Serif" font-size="10.00">ScriptPubKeyToJSON</text>
</a>
</g>
</g>
<!-- Node35&#45;&gt;Node36 -->
<g id="edge38" class="edge"><title>Node35&#45;&gt;Node36</title>
<path fill="none" stroke="midnightblue" d="M387.87,-194.826C395.612,-191.941 402.937,-187.962 409,-182.5 445.341,-149.761 408.659,-111.239 445,-78.5 452.016,-72.1792 460.724,-67.8432 469.812,-64.8917"/>
<polygon fill="midnightblue" stroke="midnightblue" points="386.775,-191.502 378.277,-197.829 388.866,-198.182 386.775,-191.502"/>
</g>
<!-- Node38 -->
<g id="node38" class="node"><title>Node38</title>
<g id="a_node38"><a xlink:href="class_c_affected_keys_visitor.html#a749859ce2a826e2d60c8fe31685efae3" target="_top" xlink:title="CAffectedKeysVisitor\l::Process">
<polygon fill="white" stroke="red" points="472.5,-0.5 472.5,-30.5 582.5,-30.5 582.5,-0.5 472.5,-0.5"/>
<text text-anchor="start" x="480.5" y="-18.5" font-family="Helvetica,sans-Serif" font-size="10.00">CAffectedKeysVisitor</text>
<text text-anchor="middle" x="527.5" y="-7.5" font-family="Helvetica,sans-Serif" font-size="10.00">::Process</text>
</a>
</g>
</g>
<!-- Node35&#45;&gt;Node38 -->
<g id="edge40" class="edge"><title>Node35&#45;&gt;Node38</title>
<path fill="none" stroke="midnightblue" d="M388.012,-195.4C395.8,-192.44 403.101,-188.286 409,-182.5 455.479,-136.907 400.112,-87.6599 445,-40.5 452.347,-32.7815 462.008,-27.4271 472.1,-23.7175"/>
<polygon fill="midnightblue" stroke="midnightblue" points="386.819,-192.106 378.332,-198.448 388.921,-198.783 386.819,-192.106"/>
</g>
<!-- Node37 -->
<g id="node37" class="node"><title>Node37</title>
<g id="a_node37"><a xlink:href="rpcblockchain_8cpp.html#a1982f7877ed6e83102671c67c4ec6450" target="_top" xlink:title="gettxout">
<polygon fill="white" stroke="black" points="704.5,-50 704.5,-69 756.5,-69 756.5,-50 704.5,-50"/>
<text text-anchor="middle" x="730.5" y="-57" font-family="Helvetica,sans-Serif" font-size="10.00">gettxout</text>
</a>
</g>
</g>
<!-- Node36&#45;&gt;Node37 -->
<g id="edge39" class="edge"><title>Node36&#45;&gt;Node37</title>
<path fill="none" stroke="midnightblue" d="M595.37,-59.5C632.78,-59.5 677.217,-59.5 704.382,-59.5"/>
<polygon fill="midnightblue" stroke="midnightblue" points="595.025,-56.0001 585.025,-59.5 595.025,-63.0001 595.025,-56.0001"/>
</g>
<!-- Node39&#45;&gt;Node30 -->
<g id="edge42" class="edge"><title>Node39&#45;&gt;Node30</title>
<path fill="none" stroke="midnightblue" d="M386.884,-785.5C413.129,-785.5 443.846,-785.5 469.776,-785.5"/>
<polygon fill="midnightblue" stroke="midnightblue" points="386.691,-782 376.691,-785.5 386.691,-789 386.691,-782"/>
</g>
<!-- Node41 -->
<g id="node41" class="node"><title>Node41</title>
<g id="a_node41"><a xlink:href="rpcwallet_8cpp.html#a1fdcef480c78c033eb587bd442ec305f" target="_top" xlink:title="getbalance">
<polygon fill="white" stroke="black" points="495,-586 495,-605 560,-605 560,-586 495,-586"/>
<text text-anchor="middle" x="527.5" y="-593" font-family="Helvetica,sans-Serif" font-size="10.00">getbalance</text>
</a>
</g>
</g>
<!-- Node40&#45;&gt;Node41 -->
<g id="edge44" class="edge"><title>Node40&#45;&gt;Node41</title>
<path fill="none" stroke="midnightblue" d="M387.663,-622.012C422.967,-615.27 466.147,-607.025 494.885,-601.537"/>
<polygon fill="midnightblue" stroke="midnightblue" points="386.625,-618.646 377.459,-623.96 387.938,-625.522 386.625,-618.646"/>
</g>
<!-- Node42 -->
<g id="node42" class="node"><title>Node42</title>
<g id="a_node42"><a xlink:href="rpcwallet_8cpp.html#a460d931e7f098979bea783409c971d53" target="_top" xlink:title="ListTransactions">
<polygon fill="white" stroke="red" points="483,-662 483,-681 572,-681 572,-662 483,-662"/>
<text text-anchor="middle" x="527.5" y="-669" font-family="Helvetica,sans-Serif" font-size="10.00">ListTransactions</text>
</a>
</g>
</g>
<!-- Node40&#45;&gt;Node42 -->
<g id="edge45" class="edge"><title>Node40&#45;&gt;Node42</title>
<path fill="none" stroke="midnightblue" d="M387.623,-644.981C418.329,-650.844 455.001,-657.847 482.949,-663.184"/>
<polygon fill="midnightblue" stroke="midnightblue" points="387.938,-641.478 377.459,-643.04 386.625,-648.354 387.938,-641.478"/>
</g>
<!-- Node43 -->
<g id="node43" class="node"><title>Node43</title>
<g id="a_node43"><a xlink:href="rpcwallet_8cpp.html#a0cd5dc1112a6c6d5a29a381cd7967fc5" target="_top" xlink:title="listaccounts">
<polygon fill="white" stroke="black" points="493,-624 493,-643 562,-643 562,-624 493,-624"/>
<text text-anchor="middle" x="527.5" y="-631" font-family="Helvetica,sans-Serif" font-size="10.00">listaccounts</text>
</a>
</g>
</g>
<!-- Node40&#45;&gt;Node43 -->
<g id="edge46" class="edge"><title>Node40&#45;&gt;Node43</title>
<path fill="none" stroke="midnightblue" d="M398.788,-633.5C430.81,-633.5 467.081,-633.5 492.765,-633.5"/>
<polygon fill="midnightblue" stroke="midnightblue" points="398.559,-630 388.559,-633.5 398.559,-637 398.559,-630"/>
</g>
<!-- Node45 -->
<g id="node45" class="node"><title>Node45</title>
<g id="a_node45"><a xlink:href="rpcwallet_8cpp.html#a6be618acd7a7b1fb454dacbf24294317" target="_top" xlink:title="listaddressgroupings">
<polygon fill="white" stroke="black" points="473.5,-548 473.5,-567 581.5,-567 581.5,-548 473.5,-548"/>
<text text-anchor="middle" x="527.5" y="-555" font-family="Helvetica,sans-Serif" font-size="10.00">listaddressgroupings</text>
</a>
</g>
</g>
<!-- Node44&#45;&gt;Node45 -->
<g id="edge48" class="edge"><title>Node44&#45;&gt;Node45</title>
<path fill="none" stroke="midnightblue" d="M412.273,-557.5C433.036,-557.5 454.674,-557.5 473.463,-557.5"/>
<polygon fill="midnightblue" stroke="midnightblue" points="412.166,-554 402.166,-557.5 412.166,-561 412.166,-554"/>
</g>
<!-- Node46&#45;&gt;Node45 -->
<g id="edge50" class="edge"><title>Node46&#45;&gt;Node45</title>
<path fill="none" stroke="midnightblue" d="M387.295,-584.082C415.768,-578.645 449.431,-572.217 476.52,-567.044"/>
<polygon fill="midnightblue" stroke="midnightblue" points="386.625,-580.646 377.459,-585.96 387.938,-587.522 386.625,-580.646"/>
</g>
<!-- Node48 -->
<g id="node48" class="node"><title>Node48</title>
<g id="a_node48"><a xlink:href="rpcrawtransaction_8cpp.html#aa0d151e35c0ad5ec82df451a833aeadb" target="_top" xlink:title="signrawtransaction">
<polygon fill="white" stroke="black" points="276.5,-154 276.5,-173 376.5,-173 376.5,-154 276.5,-154"/>
<text text-anchor="middle" x="326.5" y="-161" font-family="Helvetica,sans-Serif" font-size="10.00">signrawtransaction</text>
</a>
</g>
</g>
<!-- Node47&#45;&gt;Node48 -->
<g id="edge53" class="edge"><title>Node47&#45;&gt;Node48</title>
<path fill="none" stroke="midnightblue" d="M194.287,-163.5C219.741,-163.5 250.805,-163.5 276.317,-163.5"/>
<polygon fill="midnightblue" stroke="midnightblue" points="194.115,-160 184.115,-163.5 194.114,-167 194.115,-160"/>
</g>
<!-- Node49 -->
<g id="node49" class="node"><title>Node49</title>
<g id="a_node49"><a xlink:href="script_8h.html#a3aef640e90fdb0fa95a8e2cda0cf6c22" target="_top" xlink:title="SignSignature">
<polygon fill="white" stroke="black" points="287,-116 287,-135 366,-135 366,-116 287,-116"/>
<text text-anchor="middle" x="326.5" y="-123" font-family="Helvetica,sans-Serif" font-size="10.00">SignSignature</text>
</a>
</g>
</g>
<!-- Node47&#45;&gt;Node49 -->
<g id="edge54" class="edge"><title>Node47&#45;&gt;Node49</title>
<path fill="none" stroke="midnightblue" d="M194.088,-153.243C223.237,-147.089 259.797,-139.371 286.949,-133.638"/>
<polygon fill="midnightblue" stroke="midnightblue" points="193.176,-149.858 184.115,-155.348 194.622,-156.707 193.176,-149.858"/>
</g>
<!-- Node50&#45;&gt;Node48 -->
<g id="edge56" class="edge"><title>Node50&#45;&gt;Node48</title>
<path fill="none" stroke="midnightblue" d="M155.805,-281.747C171.336,-255.325 203.304,-207.57 244,-182.5 253.649,-176.556 264.983,-172.47 276.081,-169.662"/>
<polygon fill="midnightblue" stroke="midnightblue" points="152.59,-280.318 150.673,-290.738 158.67,-283.788 152.59,-280.318"/>
</g>
<!-- Node50&#45;&gt;Node50 -->
<g id="edge57" class="edge"><title>Node50&#45;&gt;Node50</title>
<path fill="none" stroke="midnightblue" d="M121.807,-319.529C123.044,-324.628 130.609,-328.5 144.5,-328.5 166.184,-328.5 172.452,-319.065 163.304,-310.257"/>
<polygon fill="midnightblue" stroke="midnightblue" points="125.055,-320.832 125.696,-310.257 118.6,-318.125 125.055,-320.832"/>
</g>
</g>
</svg>
