<?xml version="1.0" encoding="UTF-8" standalone="no"?>
<!DOCTYPE svg PUBLIC "-//W3C//DTD SVG 1.1//EN"
 "http://www.w3.org/Graphics/SVG/1.1/DTD/svg11.dtd">
<!-- Generated by graphviz version 2.38.0 (20140413.2041)
 -->
<!-- Title: PBKDF2_SHA256 Pages: 1 -->
<svg width="257pt" height="88pt"
 viewBox="0.00 0.00 257.00 88.00" xmlns="http://www.w3.org/2000/svg" xmlns:xlink="http://www.w3.org/1999/xlink">
<g id="graph0" class="graph" transform="scale(1 1) rotate(0) translate(4 84)">
<title>PBKDF2_SHA256</title>
<polygon fill="white" stroke="none" points="-4,4 -4,-84 253,-84 253,4 -4,4"/>
<!-- Node1 -->
<g id="node1" class="node"><title>Node1</title>
<polygon fill="#bfbfbf" stroke="black" points="0,-30 0,-49 98,-49 98,-30 0,-30"/>
<text text-anchor="middle" x="49" y="-37" font-family="Helvetica,sans-Serif" font-size="10.00">PBKDF2_SHA256</text>
</g>
<!-- Node2 -->
<g id="node2" class="node"><title>Node2</title>
<g id="a_node2"><a xlink:href="scrypt-sse2_8cpp.html#ab5dc152844077241d7cef96e18f6ecc1" target="_top" xlink:title="scrypt_1024_1_1_256\l_sp_sse2">
<polygon fill="white" stroke="black" points="134,-49.5 134,-79.5 249,-79.5 249,-49.5 134,-49.5"/>
<text text-anchor="start" x="142" y="-67.5" font-family="Helvetica,sans-Serif" font-size="10.00">scrypt_1024_1_1_256</text>
<text text-anchor="middle" x="191.5" y="-56.5" font-family="Helvetica,sans-Serif" font-size="10.00">_sp_sse2</text>
</a>
</g>
</g>
<!-- Node1&#45;&gt;Node2 -->
<g id="edge1" class="edge"><title>Node1&#45;&gt;Node2</title>
<path fill="none" stroke="midnightblue" d="M108.446,-49.8997C116.844,-51.3939 125.472,-52.9292 133.834,-54.4171"/>
<polygon fill="midnightblue" stroke="midnightblue" points="108.811,-46.4096 98.3521,-48.1036 107.584,-53.3014 108.811,-46.4096"/>
</g>
<!-- Node3 -->
<g id="node3" class="node"><title>Node3</title>
<g id="a_node3"><a xlink:href="scrypt_8h.html#a81bfcfcaa49ea827de85105fac614463" target="_top" xlink:title="scrypt_1024_1_1_256\l_sp_generic">
<polygon fill="white" stroke="black" points="134,-0.5 134,-30.5 249,-30.5 249,-0.5 134,-0.5"/>
<text text-anchor="start" x="142" y="-18.5" font-family="Helvetica,sans-Serif" font-size="10.00">scrypt_1024_1_1_256</text>
<text text-anchor="middle" x="191.5" y="-7.5" font-family="Helvetica,sans-Serif" font-size="10.00">_sp_generic</text>
</a>
</g>
</g>
<!-- Node1&#45;&gt;Node3 -->
<g id="edge2" class="edge"><title>Node1&#45;&gt;Node3</title>
<path fill="none" stroke="midnightblue" d="M108.446,-29.5163C116.844,-28.0819 125.472,-26.6079 133.834,-25.1796"/>
<polygon fill="midnightblue" stroke="midnightblue" points="107.62,-26.1067 98.3521,-31.2406 108.799,-33.0067 107.62,-26.1067"/>
</g>
</g>
</svg>
