<?xml version="1.0" encoding="UTF-8" standalone="no"?>
<!DOCTYPE svg PUBLIC "-//W3C//DTD SVG 1.1//EN"
 "http://www.w3.org/Graphics/SVG/1.1/DTD/svg11.dtd">
<!-- Generated by graphviz version 2.38.0 (20140413.2041)
 -->
<!-- Title: src/qt/sendcoinsdialog.h Pages: 1 -->
<svg width="446pt" height="84pt"
 viewBox="0.00 0.00 445.50 84.00" xmlns="http://www.w3.org/2000/svg" xmlns:xlink="http://www.w3.org/1999/xlink">
<g id="graph0" class="graph" transform="scale(1 1) rotate(0) translate(4 80)">
<title>src/qt/sendcoinsdialog.h</title>
<polygon fill="white" stroke="none" points="-4,4 -4,-80 441.5,-80 441.5,4 -4,4"/>
<!-- Node1 -->
<g id="node1" class="node"><title>Node1</title>
<polygon fill="#bfbfbf" stroke="black" points="182.5,-56.5 182.5,-75.5 306.5,-75.5 306.5,-56.5 182.5,-56.5"/>
<text text-anchor="middle" x="244.5" y="-63.5" font-family="Helvetica,sans-Serif" font-size="10.00">src/qt/sendcoinsdialog.h</text>
</g>
<!-- Node2 -->
<g id="node2" class="node"><title>Node2</title>
<g id="a_node2"><a xlink:href="moc__sendcoinsdialog_8cpp.html" target="_top" xlink:title="src/qt/moc_sendcoinsdialog.cpp">
<polygon fill="white" stroke="black" points="0,-0.5 0,-19.5 159,-19.5 159,-0.5 0,-0.5"/>
<text text-anchor="middle" x="79.5" y="-7.5" font-family="Helvetica,sans-Serif" font-size="10.00">src/qt/moc_sendcoinsdialog.cpp</text>
</a>
</g>
</g>
<!-- Node1&#45;&gt;Node2 -->
<g id="edge1" class="edge"><title>Node1&#45;&gt;Node2</title>
<path fill="none" stroke="midnightblue" d="M208.764,-53.3044C177.673,-43.1294 133.353,-28.6246 105.522,-19.5164"/>
<polygon fill="midnightblue" stroke="midnightblue" points="207.763,-56.6595 218.355,-56.4435 209.94,-50.0067 207.763,-56.6595"/>
</g>
<!-- Node3 -->
<g id="node3" class="node"><title>Node3</title>
<g id="a_node3"><a xlink:href="sendcoinsdialog_8cpp.html" target="_top" xlink:title="src/qt/sendcoinsdialog.cpp">
<polygon fill="white" stroke="black" points="177.5,-0.5 177.5,-19.5 311.5,-19.5 311.5,-0.5 177.5,-0.5"/>
<text text-anchor="middle" x="244.5" y="-7.5" font-family="Helvetica,sans-Serif" font-size="10.00">src/qt/sendcoinsdialog.cpp</text>
</a>
</g>
</g>
<!-- Node1&#45;&gt;Node3 -->
<g id="edge2" class="edge"><title>Node1&#45;&gt;Node3</title>
<path fill="none" stroke="midnightblue" d="M244.5,-45.8045C244.5,-36.9102 244.5,-26.7798 244.5,-19.7511"/>
<polygon fill="midnightblue" stroke="midnightblue" points="241,-46.083 244.5,-56.083 248,-46.083 241,-46.083"/>
</g>
<!-- Node4 -->
<g id="node4" class="node"><title>Node4</title>
<g id="a_node4"><a xlink:href="walletview_8cpp.html" target="_top" xlink:title="src/qt/walletview.cpp">
<polygon fill="white" stroke="black" points="329.5,-0.5 329.5,-19.5 437.5,-19.5 437.5,-0.5 329.5,-0.5"/>
<text text-anchor="middle" x="383.5" y="-7.5" font-family="Helvetica,sans-Serif" font-size="10.00">src/qt/walletview.cpp</text>
</a>
</g>
</g>
<!-- Node1&#45;&gt;Node4 -->
<g id="edge3" class="edge"><title>Node1&#45;&gt;Node4</title>
<path fill="none" stroke="midnightblue" d="M275.976,-52.772C302.085,-42.6287 338.539,-28.4669 361.578,-19.5164"/>
<polygon fill="midnightblue" stroke="midnightblue" points="274.579,-49.5598 266.525,-56.4435 277.114,-56.0847 274.579,-49.5598"/>
</g>
</g>
</svg>
