<?xml version="1.0" encoding="UTF-8" standalone="no"?>
<!DOCTYPE svg PUBLIC "-//W3C//DTD SVG 1.1//EN"
 "http://www.w3.org/Graphics/SVG/1.1/DTD/svg11.dtd">
<!-- Generated by graphviz version 2.38.0 (20140413.2041)
 -->
<!-- Title: Unserialize Pages: 1 -->
<svg width="210pt" height="66pt"
 viewBox="0.00 0.00 210.00 66.00" xmlns="http://www.w3.org/2000/svg" xmlns:xlink="http://www.w3.org/1999/xlink">
<g id="graph0" class="graph" transform="scale(1 1) rotate(0) translate(4 62)">
<title>Unserialize</title>
<polygon fill="white" stroke="none" points="-4,4 -4,-62 206,-62 206,4 -4,4"/>
<!-- Node1 -->
<g id="node1" class="node"><title>Node1</title>
<polygon fill="#bfbfbf" stroke="black" points="0,-19.5 0,-38.5 66,-38.5 66,-19.5 0,-19.5"/>
<text text-anchor="middle" x="33" y="-26.5" font-family="Helvetica,sans-Serif" font-size="10.00">Unserialize</text>
</g>
<!-- Node2 -->
<g id="node2" class="node"><title>Node2</title>
<g id="a_node2"><a xlink:href="serialize_8h.html#ae3fd928949b7361accfec79c314aa90f" target="_top" xlink:title="ReadCompactSize">
<polygon fill="white" stroke="black" points="102,-38.5 102,-57.5 202,-57.5 202,-38.5 102,-38.5"/>
<text text-anchor="middle" x="152" y="-45.5" font-family="Helvetica,sans-Serif" font-size="10.00">ReadCompactSize</text>
</a>
</g>
</g>
<!-- Node1&#45;&gt;Node2 -->
<g id="edge1" class="edge"><title>Node1&#45;&gt;Node2</title>
<path fill="none" stroke="midnightblue" d="M66.2805,-34.2421C74.2418,-35.535 83.0201,-36.9605 91.8188,-38.3894"/>
<polygon fill="midnightblue" stroke="midnightblue" points="91.2875,-41.8489 101.719,-39.9971 92.4096,-34.9394 91.2875,-41.8489"/>
</g>
<!-- Node3 -->
<g id="node3" class="node"><title>Node3</title>
<g id="a_node3"><a xlink:href="serialize_8h.html#a6535b70fa93811f2b1df307a424eb317" target="_top" xlink:title="Unserialize">
<polygon fill="white" stroke="black" points="119,-0.5 119,-19.5 185,-19.5 185,-0.5 119,-0.5"/>
<text text-anchor="middle" x="152" y="-7.5" font-family="Helvetica,sans-Serif" font-size="10.00">Unserialize</text>
</a>
</g>
</g>
<!-- Node1&#45;&gt;Node3 -->
<g id="edge2" class="edge"><title>Node1&#45;&gt;Node3</title>
<path fill="none" stroke="midnightblue" d="M66.2805,-23.7579C79.4522,-21.6189 94.8598,-19.1168 108.897,-16.8372"/>
<polygon fill="midnightblue" stroke="midnightblue" points="109.515,-20.2828 118.825,-15.225 108.393,-13.3733 109.515,-20.2828"/>
</g>
</g>
</svg>
