<?xml version="1.0" encoding="UTF-8" standalone="no"?>
<!DOCTYPE svg PUBLIC "-//W3C//DTD SVG 1.1//EN"
 "http://www.w3.org/Graphics/SVG/1.1/DTD/svg11.dtd">
<!-- Generated by graphviz version 2.38.0 (20140413.2041)
 -->
<!-- Title: Unserialize Pages: 1 -->
<svg width="242pt" height="256pt"
 viewBox="0.00 0.00 242.00 256.00" xmlns="http://www.w3.org/2000/svg" xmlns:xlink="http://www.w3.org/1999/xlink">
<g id="graph0" class="graph" transform="scale(1 1) rotate(0) translate(4 252)">
<title>Unserialize</title>
<polygon fill="white" stroke="none" points="-4,4 -4,-252 238,-252 238,4 -4,4"/>
<!-- Node1 -->
<g id="node1" class="node"><title>Node1</title>
<polygon fill="#bfbfbf" stroke="black" points="0,-114.5 0,-133.5 66,-133.5 66,-114.5 0,-114.5"/>
<text text-anchor="middle" x="33" y="-121.5" font-family="Helvetica,sans-Serif" font-size="10.00">Unserialize</text>
</g>
<!-- Node2 -->
<g id="node2" class="node"><title>Node2</title>
<g id="a_node2"><a xlink:href="class_c_tx_in_undo.html#a0a2b82f03edad7ad85a66e63e4552af9" target="_top" xlink:title="CTxInUndo::Unserialize">
<polygon fill="white" stroke="black" points="107,-228.5 107,-247.5 229,-247.5 229,-228.5 107,-228.5"/>
<text text-anchor="middle" x="168" y="-235.5" font-family="Helvetica,sans-Serif" font-size="10.00">CTxInUndo::Unserialize</text>
</a>
</g>
</g>
<!-- Node1&#45;&gt;Node2 -->
<g id="edge1" class="edge"><title>Node1&#45;&gt;Node2</title>
<path fill="none" stroke="midnightblue" d="M42.663,-142.84C53.5239,-164.392 74.1509,-199.245 102,-219 107.466,-222.877 113.72,-225.97 120.141,-228.435"/>
<polygon fill="midnightblue" stroke="midnightblue" points="45.7535,-141.191 38.2478,-133.713 39.4522,-144.24 45.7535,-141.191"/>
</g>
<!-- Node3 -->
<g id="node3" class="node"><title>Node3</title>
<g id="a_node3"><a xlink:href="serialize_8h.html#ac81185ca595a48045a6808b69bf2eb0e" target="_top" xlink:title="Unserialize_impl">
<polygon fill="white" stroke="black" points="123,-190.5 123,-209.5 213,-209.5 213,-190.5 123,-190.5"/>
<text text-anchor="middle" x="168" y="-197.5" font-family="Helvetica,sans-Serif" font-size="10.00">Unserialize_impl</text>
</a>
</g>
</g>
<!-- Node1&#45;&gt;Node3 -->
<g id="edge2" class="edge"><title>Node1&#45;&gt;Node3</title>
<path fill="none" stroke="midnightblue" d="M50.4002,-141.153C63.3429,-153.791 82.4254,-170.534 102,-181 109.05,-184.77 116.941,-187.877 124.729,-190.408"/>
<polygon fill="midnightblue" stroke="midnightblue" points="52.7216,-138.524 43.1854,-133.908 47.7613,-143.464 52.7216,-138.524"/>
</g>
<!-- Node4 -->
<g id="node4" class="node"><title>Node4</title>
<g id="a_node4"><a xlink:href="serialize_8h.html#aef8c207825b645e4156ab2a371101f3a" target="_top" xlink:title="Unserialize">
<polygon fill="white" stroke="black" points="135,-152.5 135,-171.5 201,-171.5 201,-152.5 135,-152.5"/>
<text text-anchor="middle" x="168" y="-159.5" font-family="Helvetica,sans-Serif" font-size="10.00">Unserialize</text>
</a>
</g>
</g>
<!-- Node1&#45;&gt;Node4 -->
<g id="edge3" class="edge"><title>Node1&#45;&gt;Node4</title>
<path fill="none" stroke="midnightblue" d="M76.0665,-136.019C95.0064,-141.43 117.018,-147.719 134.64,-152.754"/>
<polygon fill="midnightblue" stroke="midnightblue" points="76.7724,-132.581 66.1956,-133.199 74.8493,-139.311 76.7724,-132.581"/>
</g>
<!-- Node5 -->
<g id="node5" class="node"><title>Node5</title>
<g id="a_node5"><a xlink:href="serialize_8h.html#a3f746e0ed1975fa9447ef30050218aa9" target="_top" xlink:title="SerReadWrite">
<polygon fill="white" stroke="black" points="128.5,-114.5 128.5,-133.5 207.5,-133.5 207.5,-114.5 128.5,-114.5"/>
<text text-anchor="middle" x="168" y="-121.5" font-family="Helvetica,sans-Serif" font-size="10.00">SerReadWrite</text>
</a>
</g>
</g>
<!-- Node1&#45;&gt;Node5 -->
<g id="edge4" class="edge"><title>Node1&#45;&gt;Node5</title>
<path fill="none" stroke="midnightblue" d="M76.2664,-124C93.007,-124 112.121,-124 128.475,-124"/>
<polygon fill="midnightblue" stroke="midnightblue" points="76.1956,-120.5 66.1956,-124 76.1956,-127.5 76.1956,-120.5"/>
</g>
<!-- Node6 -->
<g id="node6" class="node"><title>Node6</title>
<g id="a_node6"><a xlink:href="class_c_data_stream.html#ac80cfc65569416f8c23e328edb4cadae" target="_top" xlink:title="CDataStream::operator\&gt;\&gt;">
<polygon fill="white" stroke="black" points="102,-76.5 102,-95.5 234,-95.5 234,-76.5 102,-76.5"/>
<text text-anchor="middle" x="168" y="-83.5" font-family="Helvetica,sans-Serif" font-size="10.00">CDataStream::operator&gt;&gt;</text>
</a>
</g>
</g>
<!-- Node1&#45;&gt;Node6 -->
<g id="edge5" class="edge"><title>Node1&#45;&gt;Node6</title>
<path fill="none" stroke="midnightblue" d="M75.9153,-112.024C94.5584,-106.698 116.202,-100.514 133.712,-95.5109"/>
<polygon fill="midnightblue" stroke="midnightblue" points="74.8493,-108.689 66.1956,-114.801 76.7724,-115.419 74.8493,-108.689"/>
</g>
<!-- Node7 -->
<g id="node7" class="node"><title>Node7</title>
<g id="a_node7"><a xlink:href="class_c_auto_file.html#ae6826219322626d2ac8229e022c41dd7" target="_top" xlink:title="CAutoFile::operator\&gt;\&gt;">
<polygon fill="white" stroke="black" points="110.5,-38.5 110.5,-57.5 225.5,-57.5 225.5,-38.5 110.5,-38.5"/>
<text text-anchor="middle" x="168" y="-45.5" font-family="Helvetica,sans-Serif" font-size="10.00">CAutoFile::operator&gt;&gt;</text>
</a>
</g>
</g>
<!-- Node1&#45;&gt;Node7 -->
<g id="edge6" class="edge"><title>Node1&#45;&gt;Node7</title>
<path fill="none" stroke="midnightblue" d="M50.4002,-106.847C63.3429,-94.2088 82.4254,-77.4661 102,-67 109.05,-63.2304 116.941,-60.1228 124.729,-57.5915"/>
<polygon fill="midnightblue" stroke="midnightblue" points="47.7613,-104.536 43.1854,-114.092 52.7216,-109.476 47.7613,-104.536"/>
</g>
<!-- Node8 -->
<g id="node8" class="node"><title>Node8</title>
<g id="a_node8"><a xlink:href="class_c_buffered_file.html#ab570d5f1a173a41100e7b42b4aacbbc5" target="_top" xlink:title="CBufferedFile::operator\&gt;\&gt;">
<polygon fill="white" stroke="black" points="102,-0.5 102,-19.5 234,-19.5 234,-0.5 102,-0.5"/>
<text text-anchor="middle" x="168" y="-7.5" font-family="Helvetica,sans-Serif" font-size="10.00">CBufferedFile::operator&gt;&gt;</text>
</a>
</g>
</g>
<!-- Node1&#45;&gt;Node8 -->
<g id="edge7" class="edge"><title>Node1&#45;&gt;Node8</title>
<path fill="none" stroke="midnightblue" d="M42.663,-105.16C53.5239,-83.6076 74.1509,-48.7545 102,-29 107.466,-25.1228 113.72,-22.0302 120.141,-19.565"/>
<polygon fill="midnightblue" stroke="midnightblue" points="39.4522,-103.76 38.2478,-114.287 45.7535,-106.809 39.4522,-103.76"/>
</g>
</g>
</svg>
