<?xml version="1.0" encoding="UTF-8" standalone="no"?>
<!DOCTYPE svg PUBLIC "-//W3C//DTD SVG 1.1//EN"
 "http://www.w3.org/Graphics/SVG/1.1/DTD/svg11.dtd">
<!-- Generated by graphviz version 2.38.0 (20140413.2041)
 -->
<!-- Title: ReadCompactSize Pages: 1 -->
<svg width="376pt" height="142pt"
 viewBox="0.00 0.00 376.00 142.00" xmlns="http://www.w3.org/2000/svg" xmlns:xlink="http://www.w3.org/1999/xlink">
<g id="graph0" class="graph" transform="scale(1 1) rotate(0) translate(4 138)">
<title>ReadCompactSize</title>
<polygon fill="white" stroke="none" points="-4,4 -4,-138 372,-138 372,4 -4,4"/>
<!-- Node1 -->
<g id="node1" class="node"><title>Node1</title>
<polygon fill="#bfbfbf" stroke="black" points="0,-57.5 0,-76.5 100,-76.5 100,-57.5 0,-57.5"/>
<text text-anchor="middle" x="50" y="-64.5" font-family="Helvetica,sans-Serif" font-size="10.00">ReadCompactSize</text>
</g>
<!-- Node2 -->
<g id="node2" class="node"><title>Node2</title>
<g id="a_node2"><a xlink:href="class_c_pub_key.html#a1cfd8e3c711f5298eecdacd5979f6e6c" target="_top" xlink:title="CPubKey::Unserialize">
<polygon fill="white" stroke="black" points="144,-114.5 144,-133.5 258,-133.5 258,-114.5 144,-114.5"/>
<text text-anchor="middle" x="201" y="-121.5" font-family="Helvetica,sans-Serif" font-size="10.00">CPubKey::Unserialize</text>
</a>
</g>
</g>
<!-- Node1&#45;&gt;Node2 -->
<g id="edge1" class="edge"><title>Node1&#45;&gt;Node2</title>
<path fill="none" stroke="midnightblue" d="M80.0897,-81.1495C96.3255,-88.7551 117.044,-97.9836 136,-105 145.239,-108.42 155.399,-111.663 164.849,-114.47"/>
<polygon fill="midnightblue" stroke="midnightblue" points="81.151,-77.7793 70.6156,-76.658 78.1523,-84.1045 81.151,-77.7793"/>
</g>
<!-- Node3 -->
<g id="node3" class="node"><title>Node3</title>
<g id="a_node3"><a xlink:href="class_limited_string.html#a21ec9b742da8f8ff7b9a8b89131f943b" target="_top" xlink:title="LimitedString::Unserialize">
<polygon fill="white" stroke="black" points="136,-76.5 136,-95.5 266,-95.5 266,-76.5 136,-76.5"/>
<text text-anchor="middle" x="201" y="-83.5" font-family="Helvetica,sans-Serif" font-size="10.00">LimitedString::Unserialize</text>
</a>
</g>
</g>
<!-- Node1&#45;&gt;Node3 -->
<g id="edge2" class="edge"><title>Node1&#45;&gt;Node3</title>
<path fill="none" stroke="midnightblue" d="M110.321,-74.5644C118.752,-75.6395 127.454,-76.7492 135.97,-77.8351"/>
<polygon fill="midnightblue" stroke="midnightblue" points="110.564,-71.0671 100.201,-73.274 109.678,-78.0109 110.564,-71.0671"/>
</g>
<!-- Node4 -->
<g id="node4" class="node"><title>Node4</title>
<g id="a_node4"><a xlink:href="serialize_8h.html#aa688c53c27044d715917e33769b4f415" target="_top" xlink:title="Unserialize">
<polygon fill="white" stroke="black" points="168,-38.5 168,-57.5 234,-57.5 234,-38.5 168,-38.5"/>
<text text-anchor="middle" x="201" y="-45.5" font-family="Helvetica,sans-Serif" font-size="10.00">Unserialize</text>
</a>
</g>
</g>
<!-- Node1&#45;&gt;Node4 -->
<g id="edge3" class="edge"><title>Node1&#45;&gt;Node4</title>
<path fill="none" stroke="midnightblue" d="M110.286,-59.4401C129.884,-56.941 150.949,-54.2548 167.739,-52.1138"/>
<polygon fill="midnightblue" stroke="midnightblue" points="109.678,-55.9891 100.201,-60.726 110.564,-62.9329 109.678,-55.9891"/>
</g>
<!-- Node5 -->
<g id="node5" class="node"><title>Node5</title>
<g id="a_node5"><a xlink:href="serialize_8h.html#ae8594814bba47036e603e447fbfd79ac" target="_top" xlink:title="Unserialize_impl">
<polygon fill="white" stroke="black" points="156,-0.5 156,-19.5 246,-19.5 246,-0.5 156,-0.5"/>
<text text-anchor="middle" x="201" y="-7.5" font-family="Helvetica,sans-Serif" font-size="10.00">Unserialize_impl</text>
</a>
</g>
</g>
<!-- Node1&#45;&gt;Node5 -->
<g id="edge4" class="edge"><title>Node1&#45;&gt;Node5</title>
<path fill="none" stroke="midnightblue" d="M80.0897,-52.8505C96.3255,-45.2449 117.044,-36.0164 136,-29 145.239,-25.5802 155.399,-22.3368 164.849,-19.5295"/>
<polygon fill="midnightblue" stroke="midnightblue" points="78.1523,-49.8955 70.6156,-57.342 81.151,-56.2207 78.1523,-49.8955"/>
</g>
<!-- Node6 -->
<g id="node6" class="node"><title>Node6</title>
<g id="a_node6"><a xlink:href="serialize_8h.html#aefdf63d8c997767d3e3535a54f35025c" target="_top" xlink:title="Unserialize">
<polygon fill="white" stroke="black" points="302,-0.5 302,-19.5 368,-19.5 368,-0.5 302,-0.5"/>
<text text-anchor="middle" x="335" y="-7.5" font-family="Helvetica,sans-Serif" font-size="10.00">Unserialize</text>
</a>
</g>
</g>
<!-- Node5&#45;&gt;Node6 -->
<g id="edge5" class="edge"><title>Node5&#45;&gt;Node6</title>
<path fill="none" stroke="midnightblue" d="M256.734,-10C272.026,-10 288.15,-10 301.689,-10"/>
<polygon fill="midnightblue" stroke="midnightblue" points="256.321,-6.5001 246.321,-10 256.321,-13.5001 256.321,-6.5001"/>
</g>
</g>
</svg>
