<?xml version="1.0" encoding="UTF-8" standalone="no"?>
<!DOCTYPE svg PUBLIC "-//W3C//DTD SVG 1.1//EN"
 "http://www.w3.org/Graphics/SVG/1.1/DTD/svg11.dtd">
<!-- Generated by graphviz version 2.38.0 (20140413.2041)
 -->
<!-- Title: CExtKey::Decode Pages: 1 -->
<svg width="411pt" height="66pt"
 viewBox="0.00 0.00 411.00 66.00" xmlns="http://www.w3.org/2000/svg" xmlns:xlink="http://www.w3.org/1999/xlink">
<g id="graph0" class="graph" transform="scale(1 1) rotate(0) translate(4 62)">
<title>CExtKey::Decode</title>
<polygon fill="white" stroke="none" points="-4,4 -4,-62 407,-62 407,4 -4,4"/>
<!-- Node1 -->
<g id="node1" class="node"><title>Node1</title>
<polygon fill="#bfbfbf" stroke="black" points="0,-19.5 0,-38.5 95,-38.5 95,-19.5 0,-19.5"/>
<text text-anchor="middle" x="47.5" y="-26.5" font-family="Helvetica,sans-Serif" font-size="10.00">CExtKey::Decode</text>
</g>
<!-- Node2 -->
<g id="node2" class="node"><title>Node2</title>
<g id="a_node2"><a xlink:href="glibc__compat_8cpp.html#a0f46826ab0466591e136db24394923cf" target="_top" xlink:title="memcpy">
<polygon fill="white" stroke="black" points="239.5,-38.5 239.5,-57.5 293.5,-57.5 293.5,-38.5 239.5,-38.5"/>
<text text-anchor="middle" x="266.5" y="-45.5" font-family="Helvetica,sans-Serif" font-size="10.00">memcpy</text>
</a>
</g>
</g>
<!-- Node1&#45;&gt;Node2 -->
<g id="edge1" class="edge"><title>Node1&#45;&gt;Node2</title>
<path fill="none" stroke="midnightblue" d="M95.0519,-33.076C135.176,-36.5892 192.299,-41.5907 229.137,-44.8162"/>
<polygon fill="midnightblue" stroke="midnightblue" points="229.15,-48.3306 239.417,-45.7163 229.761,-41.3573 229.15,-48.3306"/>
</g>
<!-- Node4 -->
<g id="node4" class="node"><title>Node4</title>
<g id="a_node4"><a xlink:href="class_c_key.html#aaa13d5f08456bba094210c5eeabf64c8" target="_top" xlink:title="CKey::Set">
<polygon fill="white" stroke="black" points="131,-0.5 131,-19.5 193,-19.5 193,-0.5 131,-0.5"/>
<text text-anchor="middle" x="162" y="-7.5" font-family="Helvetica,sans-Serif" font-size="10.00">CKey::Set</text>
</a>
</g>
</g>
<!-- Node1&#45;&gt;Node4 -->
<g id="edge3" class="edge"><title>Node1&#45;&gt;Node4</title>
<path fill="none" stroke="midnightblue" d="M95.2328,-21.1074C103.817,-19.6576 112.705,-18.1565 121.067,-16.7443"/>
<polygon fill="midnightblue" stroke="midnightblue" points="121.672,-20.1918 130.949,-15.0753 120.506,-13.2895 121.672,-20.1918"/>
</g>
<!-- Node3 -->
<g id="node3" class="node"><title>Node3</title>
<g id="a_node3"><a xlink:href="glibc__compat_8cpp.html#a9778d49e9029dd75bc53ecbbf9f5e9a1" target="_top" xlink:title="memmove">
<polygon fill="white" stroke="black" points="340,-38.5 340,-57.5 403,-57.5 403,-38.5 340,-38.5"/>
<text text-anchor="middle" x="371.5" y="-45.5" font-family="Helvetica,sans-Serif" font-size="10.00">memmove</text>
</a>
</g>
</g>
<!-- Node2&#45;&gt;Node3 -->
<g id="edge2" class="edge"><title>Node2&#45;&gt;Node3</title>
<path fill="none" stroke="midnightblue" d="M293.758,-48C304.637,-48 317.513,-48 329.579,-48"/>
<polygon fill="midnightblue" stroke="midnightblue" points="329.904,-51.5001 339.904,-48 329.904,-44.5001 329.904,-51.5001"/>
</g>
<!-- Node4&#45;&gt;Node2 -->
<g id="edge5" class="edge"><title>Node4&#45;&gt;Node2</title>
<path fill="none" stroke="midnightblue" d="M188.865,-19.589C201.368,-24.2244 216.569,-29.8596 230.125,-34.8853"/>
<polygon fill="midnightblue" stroke="midnightblue" points="229.05,-38.2196 239.643,-38.4141 231.483,-31.6561 229.05,-38.2196"/>
</g>
<!-- Node5 -->
<g id="node5" class="node"><title>Node5</title>
<g id="a_node5"><a xlink:href="class_c_key.html#acec869bc75fa8f4d619ab025d367a97c" target="_top" xlink:title="CKey::Check">
<polygon fill="white" stroke="black" points="229,-0.5 229,-19.5 304,-19.5 304,-0.5 229,-0.5"/>
<text text-anchor="middle" x="266.5" y="-7.5" font-family="Helvetica,sans-Serif" font-size="10.00">CKey::Check</text>
</a>
</g>
</g>
<!-- Node4&#45;&gt;Node5 -->
<g id="edge4" class="edge"><title>Node4&#45;&gt;Node5</title>
<path fill="none" stroke="midnightblue" d="M193.199,-10C201.263,-10 210.169,-10 218.894,-10"/>
<polygon fill="midnightblue" stroke="midnightblue" points="218.993,-13.5001 228.992,-10 218.992,-6.5001 218.993,-13.5001"/>
</g>
</g>
</svg>
