<?xml version="1.0" encoding="UTF-8" standalone="no"?>
<!DOCTYPE svg PUBLIC "-//W3C//DTD SVG 1.1//EN"
 "http://www.w3.org/Graphics/SVG/1.1/DTD/svg11.dtd">
<!-- Generated by graphviz version 2.38.0 (20140413.2041)
 -->
<!-- Title: payments::StaticDescriptorInitializer_paymentrequest_2eproto::StaticDescriptorInitializer_paymentrequest_2eproto Pages: 1 -->
<svg width="698pt" height="345pt"
 viewBox="0.00 0.00 698.00 344.50" xmlns="http://www.w3.org/2000/svg" xmlns:xlink="http://www.w3.org/1999/xlink">
<g id="graph0" class="graph" transform="scale(1 1) rotate(0) translate(4 340.5)">
<title>payments::StaticDescriptorInitializer_paymentrequest_2eproto::StaticDescriptorInitializer_paymentrequest_2eproto</title>
<polygon fill="white" stroke="none" points="-4,4 -4,-340.5 694,-340.5 694,4 -4,4"/>
<!-- Node1 -->
<g id="node1" class="node"><title>Node1</title>
<polygon fill="#bfbfbf" stroke="black" points="0,-148 0,-200 172,-200 172,-148 0,-148"/>
<text text-anchor="start" x="8" y="-188" font-family="Helvetica,sans-Serif" font-size="10.00">payments::StaticDescriptor</text>
<text text-anchor="start" x="8" y="-177" font-family="Helvetica,sans-Serif" font-size="10.00">Initializer_paymentrequest</text>
<text text-anchor="start" x="8" y="-166" font-family="Helvetica,sans-Serif" font-size="10.00">_2eproto::StaticDescriptorInitializer</text>
<text text-anchor="middle" x="86" y="-155" font-family="Helvetica,sans-Serif" font-size="10.00">_paymentrequest_2eproto</text>
</g>
<!-- Node2 -->
<g id="node2" class="node"><title>Node2</title>
<g id="a_node2"><a xlink:href="namespacepayments.html#a1c18f75b636891cd5e9c24861ff84efd" target="_top" xlink:title="payments::protobuf\l_AddDesc_paymentrequest\l_2eproto">
<polygon fill="white" stroke="black" points="208,-153.5 208,-194.5 348,-194.5 348,-153.5 208,-153.5"/>
<text text-anchor="start" x="216" y="-182.5" font-family="Helvetica,sans-Serif" font-size="10.00">payments::protobuf</text>
<text text-anchor="start" x="216" y="-171.5" font-family="Helvetica,sans-Serif" font-size="10.00">_AddDesc_paymentrequest</text>
<text text-anchor="middle" x="278" y="-160.5" font-family="Helvetica,sans-Serif" font-size="10.00">_2eproto</text>
</a>
</g>
</g>
<!-- Node1&#45;&gt;Node2 -->
<g id="edge1" class="edge"><title>Node1&#45;&gt;Node2</title>
<path fill="none" stroke="midnightblue" d="M172.274,-174C180.76,-174 189.351,-174 197.772,-174"/>
<polygon fill="midnightblue" stroke="midnightblue" points="197.941,-177.5 207.941,-174 197.941,-170.5 197.941,-177.5"/>
</g>
<!-- Node3 -->
<g id="node3" class="node"><title>Node3</title>
<g id="a_node3"><a xlink:href="classpayments_1_1_output.html#a9b3c239485e2a7dd5a2e323ce5a94a4e" target="_top" xlink:title="payments::Output::InitAs\lDefaultInstance">
<polygon fill="white" stroke="black" points="401,-306 401,-336 527,-336 527,-306 401,-306"/>
<text text-anchor="start" x="409" y="-324" font-family="Helvetica,sans-Serif" font-size="10.00">payments::Output::InitAs</text>
<text text-anchor="middle" x="464" y="-313" font-family="Helvetica,sans-Serif" font-size="10.00">DefaultInstance</text>
</a>
</g>
</g>
<!-- Node2&#45;&gt;Node3 -->
<g id="edge2" class="edge"><title>Node2&#45;&gt;Node3</title>
<path fill="none" stroke="midnightblue" d="M291.24,-194.599C308.53,-221.949 342.654,-269.938 384,-297 386.556,-298.673 389.234,-300.234 391.996,-301.69"/>
<polygon fill="midnightblue" stroke="midnightblue" points="390.521,-304.864 401.056,-305.99 393.523,-298.54 390.521,-304.864"/>
</g>
<!-- Node4 -->
<g id="node4" class="node"><title>Node4</title>
<g id="a_node4"><a xlink:href="classpayments_1_1_payment_details.html#a1f3d624d765f0c18c450559ce2dd492b" target="_top" xlink:title="payments::PaymentDetails\l::InitAsDefaultInstance">
<polygon fill="white" stroke="black" points="396.5,-257 396.5,-287 531.5,-287 531.5,-257 396.5,-257"/>
<text text-anchor="start" x="404.5" y="-275" font-family="Helvetica,sans-Serif" font-size="10.00">payments::PaymentDetails</text>
<text text-anchor="middle" x="464" y="-264" font-family="Helvetica,sans-Serif" font-size="10.00">::InitAsDefaultInstance</text>
</a>
</g>
</g>
<!-- Node2&#45;&gt;Node4 -->
<g id="edge3" class="edge"><title>Node2&#45;&gt;Node4</title>
<path fill="none" stroke="midnightblue" d="M303.461,-194.663C323.883,-211.043 354.344,-233.512 384,-248 387.84,-249.876 391.856,-251.64 395.957,-253.294"/>
<polygon fill="midnightblue" stroke="midnightblue" points="395.041,-256.689 405.633,-256.951 397.516,-250.141 395.041,-256.689"/>
</g>
<!-- Node5 -->
<g id="node5" class="node"><title>Node5</title>
<g id="a_node5"><a xlink:href="classpayments_1_1_payment_request.html#aff77993f0ca6fd22f0a1a31002f1cdf6" target="_top" xlink:title="payments::PaymentRequest\l::InitAsDefaultInstance">
<polygon fill="white" stroke="black" points="393,-208 393,-238 535,-238 535,-208 393,-208"/>
<text text-anchor="start" x="401" y="-226" font-family="Helvetica,sans-Serif" font-size="10.00">payments::PaymentRequest</text>
<text text-anchor="middle" x="464" y="-215" font-family="Helvetica,sans-Serif" font-size="10.00">::InitAsDefaultInstance</text>
</a>
</g>
</g>
<!-- Node2&#45;&gt;Node5 -->
<g id="edge4" class="edge"><title>Node2&#45;&gt;Node5</title>
<path fill="none" stroke="midnightblue" d="M348.038,-192.385C363.999,-196.636 380.944,-201.148 396.781,-205.366"/>
<polygon fill="midnightblue" stroke="midnightblue" points="395.916,-208.757 406.48,-207.948 397.717,-201.993 395.916,-208.757"/>
</g>
<!-- Node6 -->
<g id="node6" class="node"><title>Node6</title>
<g id="a_node6"><a xlink:href="classpayments_1_1_x509_certificates.html#a2e6c093cd355454f2ead40f193ea242f" target="_top" xlink:title="payments::X509Certificates\l::InitAsDefaultInstance">
<polygon fill="white" stroke="black" points="394.5,-159 394.5,-189 533.5,-189 533.5,-159 394.5,-159"/>
<text text-anchor="start" x="402.5" y="-177" font-family="Helvetica,sans-Serif" font-size="10.00">payments::X509Certificates</text>
<text text-anchor="middle" x="464" y="-166" font-family="Helvetica,sans-Serif" font-size="10.00">::InitAsDefaultInstance</text>
</a>
</g>
</g>
<!-- Node2&#45;&gt;Node6 -->
<g id="edge5" class="edge"><title>Node2&#45;&gt;Node6</title>
<path fill="none" stroke="midnightblue" d="M348.038,-174C359.909,-174 372.324,-174 384.423,-174"/>
<polygon fill="midnightblue" stroke="midnightblue" points="384.492,-177.5 394.492,-174 384.492,-170.5 384.492,-177.5"/>
</g>
<!-- Node7 -->
<g id="node7" class="node"><title>Node7</title>
<g id="a_node7"><a xlink:href="classpayments_1_1_payment.html#a9687f7af685e683a3ff32edf34668d5d" target="_top" xlink:title="payments::Payment::\lInitAsDefaultInstance">
<polygon fill="white" stroke="black" points="408.5,-110 408.5,-140 519.5,-140 519.5,-110 408.5,-110"/>
<text text-anchor="start" x="416.5" y="-128" font-family="Helvetica,sans-Serif" font-size="10.00">payments::Payment::</text>
<text text-anchor="middle" x="464" y="-117" font-family="Helvetica,sans-Serif" font-size="10.00">InitAsDefaultInstance</text>
</a>
</g>
</g>
<!-- Node2&#45;&gt;Node7 -->
<g id="edge6" class="edge"><title>Node2&#45;&gt;Node7</title>
<path fill="none" stroke="midnightblue" d="M348.038,-155.615C364.506,-151.23 382.021,-146.565 398.286,-142.234"/>
<polygon fill="midnightblue" stroke="midnightblue" points="399.468,-145.541 408.231,-139.585 397.667,-138.777 399.468,-145.541"/>
</g>
<!-- Node8 -->
<g id="node8" class="node"><title>Node8</title>
<g id="a_node8"><a xlink:href="classpayments_1_1_payment_a_c_k.html#a750fc4348b5641e93e7ca4cfb57d3dcd" target="_top" xlink:title="payments::PaymentACK\l::InitAsDefaultInstance">
<polygon fill="white" stroke="black" points="401.5,-61 401.5,-91 526.5,-91 526.5,-61 401.5,-61"/>
<text text-anchor="start" x="409.5" y="-79" font-family="Helvetica,sans-Serif" font-size="10.00">payments::PaymentACK</text>
<text text-anchor="middle" x="464" y="-68" font-family="Helvetica,sans-Serif" font-size="10.00">::InitAsDefaultInstance</text>
</a>
</g>
</g>
<!-- Node2&#45;&gt;Node8 -->
<g id="edge7" class="edge"><title>Node2&#45;&gt;Node8</title>
<path fill="none" stroke="midnightblue" d="M303.968,-153.4C324.438,-137.334 354.712,-115.401 384,-101 388.563,-98.7564 393.371,-96.6559 398.271,-94.7015"/>
<polygon fill="midnightblue" stroke="midnightblue" points="399.641,-97.9255 407.765,-91.1244 397.173,-91.375 399.641,-97.9255"/>
</g>
<!-- Node10 -->
<g id="node10" class="node"><title>Node10</title>
<g id="a_node10"><a xlink:href="namespacepayments.html#a3f66fe8b6edddc333e2680af627c8891" target="_top" xlink:title="payments::protobuf\l_ShutdownFile_paymentrequest\l_2eproto">
<polygon fill="white" stroke="black" points="384,-0.5 384,-41.5 544,-41.5 544,-0.5 384,-0.5"/>
<text text-anchor="start" x="392" y="-29.5" font-family="Helvetica,sans-Serif" font-size="10.00">payments::protobuf</text>
<text text-anchor="start" x="392" y="-18.5" font-family="Helvetica,sans-Serif" font-size="10.00">_ShutdownFile_paymentrequest</text>
<text text-anchor="middle" x="464" y="-7.5" font-family="Helvetica,sans-Serif" font-size="10.00">_2eproto</text>
</a>
</g>
</g>
<!-- Node2&#45;&gt;Node10 -->
<g id="edge9" class="edge"><title>Node2&#45;&gt;Node10</title>
<path fill="none" stroke="midnightblue" d="M292.211,-153.127C310.087,-126.385 344.343,-80.1353 384,-52 386.704,-50.0818 389.542,-48.2614 392.471,-46.5363"/>
<polygon fill="midnightblue" stroke="midnightblue" points="394.365,-49.4907 401.485,-41.6447 391.027,-43.3382 394.365,-49.4907"/>
</g>
<!-- Node9 -->
<g id="node9" class="node"><title>Node9</title>
<g id="a_node9"><a xlink:href="classpayments_1_1_payment.html#ae27f24c010f09a0f426a71360632e785" target="_top" xlink:title="payments::Payment::\ldefault_instance">
<polygon fill="white" stroke="black" points="580,-61 580,-91 690,-91 690,-61 580,-61"/>
<text text-anchor="start" x="588" y="-79" font-family="Helvetica,sans-Serif" font-size="10.00">payments::Payment::</text>
<text text-anchor="middle" x="635" y="-68" font-family="Helvetica,sans-Serif" font-size="10.00">default_instance</text>
</a>
</g>
</g>
<!-- Node8&#45;&gt;Node9 -->
<g id="edge8" class="edge"><title>Node8&#45;&gt;Node9</title>
<path fill="none" stroke="midnightblue" d="M526.97,-76C540.918,-76 555.749,-76 569.787,-76"/>
<polygon fill="midnightblue" stroke="midnightblue" points="569.845,-79.5001 579.845,-76 569.845,-72.5001 569.845,-79.5001"/>
</g>
</g>
</svg>
