<?xml version="1.0" encoding="UTF-8" standalone="no"?>
<!DOCTYPE svg PUBLIC "-//W3C//DTD SVG 1.1//EN"
 "http://www.w3.org/Graphics/SVG/1.1/DTD/svg11.dtd">
<!-- Generated by graphviz version 2.38.0 (20140413.2041)
 -->
<!-- Title: src/qt/transactionfilterproxy.h Pages: 1 -->
<svg width="654pt" height="84pt"
 viewBox="0.00 0.00 653.50 84.00" xmlns="http://www.w3.org/2000/svg" xmlns:xlink="http://www.w3.org/1999/xlink">
<g id="graph0" class="graph" transform="scale(1 1) rotate(0) translate(4 80)">
<title>src/qt/transactionfilterproxy.h</title>
<polygon fill="white" stroke="none" points="-4,4 -4,-80 649.5,-80 649.5,4 -4,4"/>
<!-- Node1 -->
<g id="node1" class="node"><title>Node1</title>
<polygon fill="#bfbfbf" stroke="black" points="266.5,-56.5 266.5,-75.5 410.5,-75.5 410.5,-56.5 266.5,-56.5"/>
<text text-anchor="middle" x="338.5" y="-63.5" font-family="Helvetica,sans-Serif" font-size="10.00">src/qt/transactionfilterproxy.h</text>
</g>
<!-- Node2 -->
<g id="node2" class="node"><title>Node2</title>
<g id="a_node2"><a xlink:href="moc__transactionfilterproxy_8cpp.html" target="_top" xlink:title="src/qt/moc_transactionfilterproxy.cpp">
<polygon fill="white" stroke="black" points="0,-0.5 0,-19.5 179,-19.5 179,-0.5 0,-0.5"/>
<text text-anchor="middle" x="89.5" y="-7.5" font-family="Helvetica,sans-Serif" font-size="10.00">src/qt/moc_transactionfilterproxy.cpp</text>
</a>
</g>
</g>
<!-- Node1&#45;&gt;Node2 -->
<g id="edge1" class="edge"><title>Node1&#45;&gt;Node2</title>
<path fill="none" stroke="midnightblue" d="M289.076,-54.2815C242.021,-44.0769 172.133,-28.9203 128.77,-19.5164"/>
<polygon fill="midnightblue" stroke="midnightblue" points="288.531,-57.7445 299.045,-56.4435 290.014,-50.9036 288.531,-57.7445"/>
</g>
<!-- Node3 -->
<g id="node3" class="node"><title>Node3</title>
<g id="a_node3"><a xlink:href="overviewpage_8cpp.html" target="_top" xlink:title="src/qt/overviewpage.cpp">
<polygon fill="white" stroke="black" points="197.5,-0.5 197.5,-19.5 321.5,-19.5 321.5,-0.5 197.5,-0.5"/>
<text text-anchor="middle" x="259.5" y="-7.5" font-family="Helvetica,sans-Serif" font-size="10.00">src/qt/overviewpage.cpp</text>
</a>
</g>
</g>
<!-- Node1&#45;&gt;Node3 -->
<g id="edge2" class="edge"><title>Node1&#45;&gt;Node3</title>
<path fill="none" stroke="midnightblue" d="M317.466,-50.6221C303.034,-40.7574 284.359,-27.9919 272.161,-19.6545"/>
<polygon fill="midnightblue" stroke="midnightblue" points="315.577,-53.5703 325.807,-56.324 319.527,-47.7914 315.577,-53.5703"/>
</g>
<!-- Node4 -->
<g id="node4" class="node"><title>Node4</title>
<g id="a_node4"><a xlink:href="transactionfilterproxy_8cpp.html" target="_top" xlink:title="src/qt/transactionfilterproxy.cpp">
<polygon fill="white" stroke="black" points="340,-0.5 340,-19.5 495,-19.5 495,-0.5 340,-0.5"/>
<text text-anchor="middle" x="417.5" y="-7.5" font-family="Helvetica,sans-Serif" font-size="10.00">src/qt/transactionfilterproxy.cpp</text>
</a>
</g>
</g>
<!-- Node1&#45;&gt;Node4 -->
<g id="edge3" class="edge"><title>Node1&#45;&gt;Node4</title>
<path fill="none" stroke="midnightblue" d="M359.534,-50.6221C373.966,-40.7574 392.641,-27.9919 404.839,-19.6545"/>
<polygon fill="midnightblue" stroke="midnightblue" points="357.473,-47.7914 351.193,-56.324 361.423,-53.5703 357.473,-47.7914"/>
</g>
<!-- Node5 -->
<g id="node5" class="node"><title>Node5</title>
<g id="a_node5"><a xlink:href="transactionview_8cpp.html" target="_top" xlink:title="src/qt/transactionview.cpp">
<polygon fill="white" stroke="black" points="513.5,-0.5 513.5,-19.5 645.5,-19.5 645.5,-0.5 513.5,-0.5"/>
<text text-anchor="middle" x="579.5" y="-7.5" font-family="Helvetica,sans-Serif" font-size="10.00">src/qt/transactionview.cpp</text>
</a>
</g>
</g>
<!-- Node1&#45;&gt;Node5 -->
<g id="edge4" class="edge"><title>Node1&#45;&gt;Node5</title>
<path fill="none" stroke="midnightblue" d="M386.623,-54.2172C432.162,-44.0134 499.61,-28.9006 541.491,-19.5164"/>
<polygon fill="midnightblue" stroke="midnightblue" points="385.68,-50.8417 376.687,-56.4435 387.21,-57.6723 385.68,-50.8417"/>
</g>
</g>
</svg>
