<?xml version="1.0" encoding="UTF-8" standalone="no"?>
<!DOCTYPE svg PUBLIC "-//W3C//DTD SVG 1.1//EN"
 "http://www.w3.org/Graphics/SVG/1.1/DTD/svg11.dtd">
<!-- Generated by graphviz version 2.38.0 (20140413.2041)
 -->
<!-- Title: src/qt/transactionrecord.h Pages: 1 -->
<svg width="316pt" height="140pt"
 viewBox="0.00 0.00 315.50 140.00" xmlns="http://www.w3.org/2000/svg" xmlns:xlink="http://www.w3.org/1999/xlink">
<g id="graph0" class="graph" transform="scale(1 1) rotate(0) translate(4 136)">
<title>src/qt/transactionrecord.h</title>
<polygon fill="white" stroke="none" points="-4,4 -4,-136 311.5,-136 311.5,4 -4,4"/>
<!-- Node1 -->
<g id="node1" class="node"><title>Node1</title>
<polygon fill="#bfbfbf" stroke="black" points="155,-112.5 155,-131.5 284,-131.5 284,-112.5 155,-112.5"/>
<text text-anchor="middle" x="219.5" y="-119.5" font-family="Helvetica,sans-Serif" font-size="10.00">src/qt/transactionrecord.h</text>
</g>
<!-- Node2 -->
<g id="node2" class="node"><title>Node2</title>
<g id="a_node2"><a xlink:href="uint256_8h.html" target="_top" xlink:title="uint256.h">
<polygon fill="white" stroke="black" points="123.5,-56.5 123.5,-75.5 181.5,-75.5 181.5,-56.5 123.5,-56.5"/>
<text text-anchor="middle" x="152.5" y="-63.5" font-family="Helvetica,sans-Serif" font-size="10.00">uint256.h</text>
</a>
</g>
</g>
<!-- Node1&#45;&gt;Node2 -->
<g id="edge1" class="edge"><title>Node1&#45;&gt;Node2</title>
<path fill="none" stroke="midnightblue" d="M208.735,-112.324C198.734,-104.263 183.613,-92.0765 171.57,-82.3695"/>
<polygon fill="midnightblue" stroke="midnightblue" points="173.443,-79.3841 163.461,-75.8339 169.05,-84.8343 173.443,-79.3841"/>
</g>
<!-- Node8 -->
<g id="node8" class="node"><title>Node8</title>
<polygon fill="white" stroke="#bfbfbf" points="199.5,-56.5 199.5,-75.5 239.5,-75.5 239.5,-56.5 199.5,-56.5"/>
<text text-anchor="middle" x="219.5" y="-63.5" font-family="Helvetica,sans-Serif" font-size="10.00">QList</text>
</g>
<!-- Node1&#45;&gt;Node8 -->
<g id="edge7" class="edge"><title>Node1&#45;&gt;Node8</title>
<path fill="none" stroke="midnightblue" d="M219.5,-112.083C219.5,-105.006 219.5,-94.8611 219.5,-85.9865"/>
<polygon fill="midnightblue" stroke="midnightblue" points="223,-85.751 219.5,-75.7511 216,-85.7511 223,-85.751"/>
</g>
<!-- Node9 -->
<g id="node9" class="node"><title>Node9</title>
<polygon fill="white" stroke="#bfbfbf" points="257.5,-56.5 257.5,-75.5 307.5,-75.5 307.5,-56.5 257.5,-56.5"/>
<text text-anchor="middle" x="282.5" y="-63.5" font-family="Helvetica,sans-Serif" font-size="10.00">QString</text>
</g>
<!-- Node1&#45;&gt;Node9 -->
<g id="edge8" class="edge"><title>Node1&#45;&gt;Node9</title>
<path fill="none" stroke="midnightblue" d="M229.622,-112.324C239.026,-104.263 253.244,-92.0765 264.569,-82.3695"/>
<polygon fill="midnightblue" stroke="midnightblue" points="266.879,-84.9993 272.194,-75.8339 262.323,-79.6844 266.879,-84.9993"/>
</g>
<!-- Node3 -->
<g id="node3" class="node"><title>Node3</title>
<polygon fill="white" stroke="#bfbfbf" points="0,-0.5 0,-19.5 49,-19.5 49,-0.5 0,-0.5"/>
<text text-anchor="middle" x="24.5" y="-7.5" font-family="Helvetica,sans-Serif" font-size="10.00">stdint.h</text>
</g>
<!-- Node2&#45;&gt;Node3 -->
<g id="edge2" class="edge"><title>Node2&#45;&gt;Node3</title>
<path fill="none" stroke="midnightblue" d="M132.218,-56.4435C111.153,-47.5566 77.9832,-33.5632 54.0145,-23.4514"/>
<polygon fill="midnightblue" stroke="midnightblue" points="55.2612,-20.1787 44.6871,-19.5164 52.5403,-26.6283 55.2612,-20.1787"/>
</g>
<!-- Node4 -->
<g id="node4" class="node"><title>Node4</title>
<polygon fill="white" stroke="#bfbfbf" points="67.5,-0.5 67.5,-19.5 113.5,-19.5 113.5,-0.5 67.5,-0.5"/>
<text text-anchor="middle" x="90.5" y="-7.5" font-family="Helvetica,sans-Serif" font-size="10.00">stdio.h</text>
</g>
<!-- Node2&#45;&gt;Node4 -->
<g id="edge3" class="edge"><title>Node2&#45;&gt;Node4</title>
<path fill="none" stroke="midnightblue" d="M142.539,-56.324C133.373,-48.3414 119.563,-36.3128 108.472,-26.6529"/>
<polygon fill="midnightblue" stroke="midnightblue" points="110.482,-23.7624 100.643,-19.8339 105.885,-29.041 110.482,-23.7624"/>
</g>
<!-- Node5 -->
<g id="node5" class="node"><title>Node5</title>
<polygon fill="white" stroke="#bfbfbf" points="132,-0.5 132,-19.5 173,-19.5 173,-0.5 132,-0.5"/>
<text text-anchor="middle" x="152.5" y="-7.5" font-family="Helvetica,sans-Serif" font-size="10.00">string</text>
</g>
<!-- Node2&#45;&gt;Node5 -->
<g id="edge4" class="edge"><title>Node2&#45;&gt;Node5</title>
<path fill="none" stroke="midnightblue" d="M152.5,-56.083C152.5,-49.0059 152.5,-38.8611 152.5,-29.9865"/>
<polygon fill="midnightblue" stroke="midnightblue" points="156,-29.751 152.5,-19.7511 149,-29.7511 156,-29.751"/>
</g>
<!-- Node6 -->
<g id="node6" class="node"><title>Node6</title>
<polygon fill="white" stroke="#bfbfbf" points="191,-0.5 191,-19.5 240,-19.5 240,-0.5 191,-0.5"/>
<text text-anchor="middle" x="215.5" y="-7.5" font-family="Helvetica,sans-Serif" font-size="10.00">string.h</text>
</g>
<!-- Node2&#45;&gt;Node6 -->
<g id="edge5" class="edge"><title>Node2&#45;&gt;Node6</title>
<path fill="none" stroke="midnightblue" d="M162.622,-56.324C172.026,-48.2631 186.244,-36.0765 197.569,-26.3695"/>
<polygon fill="midnightblue" stroke="midnightblue" points="199.879,-28.9993 205.194,-19.8339 195.323,-23.6844 199.879,-28.9993"/>
</g>
<!-- Node7 -->
<g id="node7" class="node"><title>Node7</title>
<polygon fill="white" stroke="#bfbfbf" points="258.5,-0.5 258.5,-19.5 302.5,-19.5 302.5,-0.5 258.5,-0.5"/>
<text text-anchor="middle" x="280.5" y="-7.5" font-family="Helvetica,sans-Serif" font-size="10.00">vector</text>
</g>
<!-- Node2&#45;&gt;Node7 -->
<g id="edge6" class="edge"><title>Node2&#45;&gt;Node7</title>
<path fill="none" stroke="midnightblue" d="M172.782,-56.4435C193.847,-47.5566 227.017,-33.5632 250.986,-23.4514"/>
<polygon fill="midnightblue" stroke="midnightblue" points="252.46,-26.6283 260.313,-19.5164 249.739,-20.1787 252.46,-26.6283"/>
</g>
</g>
</svg>
