<?xml version="1.0" encoding="UTF-8" standalone="no"?>
<!DOCTYPE svg PUBLIC "-//W3C//DTD SVG 1.1//EN"
 "http://www.w3.org/Graphics/SVG/1.1/DTD/svg11.dtd">
<!-- Generated by graphviz version 2.38.0 (20140413.2041)
 -->
<!-- Title: src/txmempool.h Pages: 1 -->
<svg width="2760pt" height="498pt"
 viewBox="0.00 0.00 2759.56 498.00" xmlns="http://www.w3.org/2000/svg" xmlns:xlink="http://www.w3.org/1999/xlink">
<g id="graph0" class="graph" transform="scale(1 1) rotate(0) translate(4 494)">
<title>src/txmempool.h</title>
<polygon fill="white" stroke="none" points="-4,4 -4,-494 2755.56,-494 2755.56,4 -4,4"/>
<!-- Node1 -->
<g id="node1" class="node"><title>Node1</title>
<polygon fill="#bfbfbf" stroke="black" points="699.065,-470.5 699.065,-489.5 789.065,-489.5 789.065,-470.5 699.065,-470.5"/>
<text text-anchor="middle" x="744.065" y="-477.5" font-family="Helvetica,sans-Serif" font-size="10.00">src/txmempool.h</text>
</g>
<!-- Node2 -->
<g id="node2" class="node"><title>Node2</title>
<polygon fill="white" stroke="#bfbfbf" points="646.565,-414.5 646.565,-433.5 675.565,-433.5 675.565,-414.5 646.565,-414.5"/>
<text text-anchor="middle" x="661.065" y="-421.5" font-family="Helvetica,sans-Serif" font-size="10.00">list</text>
</g>
<!-- Node1&#45;&gt;Node2 -->
<g id="edge1" class="edge"><title>Node1&#45;&gt;Node2</title>
<path fill="none" stroke="midnightblue" d="M730.729,-470.324C717.903,-461.979 698.28,-449.212 683.125,-439.352"/>
<polygon fill="midnightblue" stroke="midnightblue" points="684.658,-436.174 674.367,-433.655 680.84,-442.042 684.658,-436.174"/>
</g>
<!-- Node3 -->
<g id="node3" class="node"><title>Node3</title>
<g id="a_node3"><a xlink:href="coins_8h.html" target="_top" xlink:title="coins.h">
<polygon fill="white" stroke="black" points="694.065,-414.5 694.065,-433.5 742.065,-433.5 742.065,-414.5 694.065,-414.5"/>
<text text-anchor="middle" x="718.065" y="-421.5" font-family="Helvetica,sans-Serif" font-size="10.00">coins.h</text>
</a>
</g>
</g>
<!-- Node1&#45;&gt;Node3 -->
<g id="edge2" class="edge"><title>Node1&#45;&gt;Node3</title>
<path fill="none" stroke="midnightblue" d="M739.771,-470.083C736.212,-462.691 731.042,-451.953 726.64,-442.811"/>
<polygon fill="midnightblue" stroke="midnightblue" points="729.77,-441.243 722.278,-433.751 723.463,-444.279 729.77,-441.243"/>
</g>
<!-- Node4 -->
<g id="node4" class="node"><title>Node4</title>
<g id="a_node4"><a xlink:href="core_8h.html" target="_top" xlink:title="core.h">
<polygon fill="white" stroke="black" points="748.065,-353 748.065,-372 792.065,-372 792.065,-353 748.065,-353"/>
<text text-anchor="middle" x="770.065" y="-360" font-family="Helvetica,sans-Serif" font-size="10.00">core.h</text>
</a>
</g>
</g>
<!-- Node1&#45;&gt;Node4 -->
<g id="edge78" class="edge"><title>Node1&#45;&gt;Node4</title>
<path fill="none" stroke="midnightblue" d="M746.019,-470.319C750.216,-451.673 760.173,-407.443 765.871,-382.132"/>
<polygon fill="midnightblue" stroke="midnightblue" points="769.306,-382.807 768.088,-372.282 762.477,-381.269 769.306,-382.807"/>
</g>
<!-- Node46 -->
<g id="node46" class="node"><title>Node46</title>
<g id="a_node46"><a xlink:href="sync_8h.html" target="_top" xlink:title="sync.h">
<polygon fill="white" stroke="black" points="2386.56,-414.5 2386.56,-433.5 2431.56,-433.5 2431.56,-414.5 2386.56,-414.5"/>
<text text-anchor="middle" x="2409.06" y="-421.5" font-family="Helvetica,sans-Serif" font-size="10.00">sync.h</text>
</a>
</g>
</g>
<!-- Node1&#45;&gt;Node46 -->
<g id="edge79" class="edge"><title>Node1&#45;&gt;Node46</title>
<path fill="none" stroke="midnightblue" d="M789.463,-477.528C1031.65,-469.673 2168.25,-432.81 2376.31,-426.062"/>
<polygon fill="midnightblue" stroke="midnightblue" points="2376.43,-429.56 2386.31,-425.738 2376.21,-422.564 2376.43,-429.56"/>
</g>
<!-- Node3&#45;&gt;Node4 -->
<g id="edge3" class="edge"><title>Node3&#45;&gt;Node4</title>
<path fill="none" stroke="midnightblue" d="M725.515,-414.475C733.392,-405.462 746.01,-391.025 755.809,-379.812"/>
<polygon fill="midnightblue" stroke="midnightblue" points="758.683,-381.842 762.628,-372.009 753.412,-377.236 758.683,-381.842"/>
</g>
<!-- Node15 -->
<g id="node15" class="node"><title>Node15</title>
<g id="a_node15"><a xlink:href="serialize_8h.html" target="_top" xlink:title="serialize.h">
<polygon fill="white" stroke="black" points="556.065,-123.5 556.065,-142.5 618.065,-142.5 618.065,-123.5 556.065,-123.5"/>
<text text-anchor="middle" x="587.065" y="-130.5" font-family="Helvetica,sans-Serif" font-size="10.00">serialize.h</text>
</a>
</g>
</g>
<!-- Node3&#45;&gt;Node15 -->
<g id="edge73" class="edge"><title>Node3&#45;&gt;Node15</title>
<path fill="none" stroke="midnightblue" d="M693.706,-416.625C673.425,-410.115 645.189,-398.064 628.065,-378 605.069,-351.057 604.065,-337.422 604.065,-302 604.065,-302 604.065,-302 604.065,-244 604.065,-211.583 596.765,-174.415 591.732,-152.644"/>
<polygon fill="midnightblue" stroke="midnightblue" points="595.098,-151.674 589.357,-142.769 588.292,-153.31 595.098,-151.674"/>
</g>
<!-- Node17 -->
<g id="node17" class="node"><title>Node17</title>
<polygon fill="white" stroke="#bfbfbf" points="854.065,-62 854.065,-81 906.065,-81 906.065,-62 854.065,-62"/>
<text text-anchor="middle" x="880.065" y="-69" font-family="Helvetica,sans-Serif" font-size="10.00">assert.h</text>
</g>
<!-- Node3&#45;&gt;Node17 -->
<g id="edge75" class="edge"><title>Node3&#45;&gt;Node17</title>
<path fill="none" stroke="midnightblue" d="M707.815,-414.469C687.07,-396.179 642.065,-350.87 642.065,-302 642.065,-302 642.065,-302 642.065,-244 642.065,-145.863 776.906,-98.297 843.598,-80.7725"/>
<polygon fill="midnightblue" stroke="midnightblue" points="844.852,-84.0652 853.685,-78.2147 843.132,-77.28 844.852,-84.0652"/>
</g>
<!-- Node21 -->
<g id="node21" class="node"><title>Node21</title>
<polygon fill="white" stroke="#bfbfbf" points="2017.56,-62 2017.56,-81 2066.56,-81 2066.56,-62 2017.56,-62"/>
<text text-anchor="middle" x="2042.06" y="-69" font-family="Helvetica,sans-Serif" font-size="10.00">stdint.h</text>
</g>
<!-- Node3&#45;&gt;Node21 -->
<g id="edge76" class="edge"><title>Node3&#45;&gt;Node21</title>
<path fill="none" stroke="midnightblue" d="M742.295,-422.34C934.339,-416.959 2203.06,-378.509 2203.06,-302 2203.06,-302 2203.06,-302 2203.06,-188 2203.06,-126.307 2124.05,-94.3678 2076.73,-80.7718"/>
<polygon fill="midnightblue" stroke="midnightblue" points="2077.44,-77.337 2066.87,-78.0707 2075.59,-84.0883 2077.44,-77.337"/>
</g>
<!-- Node26 -->
<g id="node26" class="node"><title>Node26</title>
<g id="a_node26"><a xlink:href="uint256_8h.html" target="_top" xlink:title="uint256.h">
<polygon fill="white" stroke="black" points="103.065,-123.5 103.065,-142.5 161.065,-142.5 161.065,-123.5 103.065,-123.5"/>
<text text-anchor="middle" x="132.065" y="-130.5" font-family="Helvetica,sans-Serif" font-size="10.00">uint256.h</text>
</a>
</g>
</g>
<!-- Node3&#45;&gt;Node26 -->
<g id="edge74" class="edge"><title>Node3&#45;&gt;Node26</title>
<path fill="none" stroke="midnightblue" d="M693.961,-416.441C690.643,-415.59 687.275,-414.754 684.065,-414 563.699,-385.725 139.065,-425.642 139.065,-302 139.065,-302 139.065,-302 139.065,-244 139.065,-211.883 136.056,-174.598 133.984,-152.726"/>
<polygon fill="midnightblue" stroke="midnightblue" points="137.444,-152.154 132.98,-142.546 130.478,-152.841 137.444,-152.154"/>
</g>
<!-- Node42 -->
<g id="node42" class="node"><title>Node42</title>
<polygon fill="white" stroke="#bfbfbf" points="708.565,-235.5 708.565,-254.5 805.565,-254.5 805.565,-235.5 708.565,-235.5"/>
<text text-anchor="middle" x="757.065" y="-242.5" font-family="Helvetica,sans-Serif" font-size="10.00">boost/foreach.hpp</text>
</g>
<!-- Node3&#45;&gt;Node42 -->
<g id="edge77" class="edge"><title>Node3&#45;&gt;Node42</title>
<path fill="none" stroke="midnightblue" d="M719.946,-414.463C725.903,-387.428 744.453,-303.239 752.854,-265.109"/>
<polygon fill="midnightblue" stroke="midnightblue" points="756.377,-265.387 755.111,-254.868 749.541,-263.881 756.377,-265.387"/>
</g>
<!-- Node5 -->
<g id="node5" class="node"><title>Node5</title>
<g id="a_node5"><a xlink:href="script_8h.html" target="_top" xlink:title="script.h">
<polygon fill="white" stroke="black" points="845.565,-291.5 845.565,-310.5 894.565,-310.5 894.565,-291.5 845.565,-291.5"/>
<text text-anchor="middle" x="870.065" y="-298.5" font-family="Helvetica,sans-Serif" font-size="10.00">script.h</text>
</a>
</g>
</g>
<!-- Node4&#45;&gt;Node5 -->
<g id="edge4" class="edge"><title>Node4&#45;&gt;Node5</title>
<path fill="none" stroke="midnightblue" d="M784.392,-352.975C800.729,-343.255 827.667,-327.227 846.977,-315.737"/>
<polygon fill="midnightblue" stroke="midnightblue" points="848.96,-318.63 855.764,-310.509 845.38,-312.615 848.96,-318.63"/>
</g>
<!-- Node4&#45;&gt;Node15 -->
<g id="edge70" class="edge"><title>Node4&#45;&gt;Node15</title>
<path fill="none" stroke="midnightblue" d="M763.114,-352.86C735.938,-319.075 636.59,-195.568 600.382,-150.555"/>
<polygon fill="midnightblue" stroke="midnightblue" points="603.017,-148.247 594.022,-142.649 597.563,-152.635 603.017,-148.247"/>
</g>
<!-- Node4&#45;&gt;Node21 -->
<g id="edge72" class="edge"><title>Node4&#45;&gt;Node21</title>
<path fill="none" stroke="midnightblue" d="M792.129,-361.244C900.141,-359.557 1383.36,-346.972 1765.06,-255 1873.66,-228.834 1910.34,-221.238 1990.06,-143 2006.45,-126.922 2021.59,-105.295 2031.26,-90.2521"/>
<polygon fill="midnightblue" stroke="midnightblue" points="2034.43,-91.7741 2036.78,-81.4419 2028.5,-88.0571 2034.43,-91.7741"/>
</g>
<!-- Node4&#45;&gt;Node26 -->
<g id="edge71" class="edge"><title>Node4&#45;&gt;Node26</title>
<path fill="none" stroke="midnightblue" d="M748.041,-359.696C655.435,-351.762 298.21,-317.549 207.065,-255 187.749,-241.745 155.914,-181.77 140.692,-151.537"/>
<polygon fill="midnightblue" stroke="midnightblue" points="143.8,-149.926 136.209,-142.534 137.534,-153.046 143.8,-149.926"/>
</g>
<!-- Node44 -->
<g id="node44" class="node"><title>Node44</title>
<g id="a_node44"><a xlink:href="scrypt_8h.html" target="_top" xlink:title="scrypt.h">
<polygon fill="white" stroke="black" points="2089.06,-291.5 2089.06,-310.5 2141.06,-310.5 2141.06,-291.5 2089.06,-291.5"/>
<text text-anchor="middle" x="2115.06" y="-298.5" font-family="Helvetica,sans-Serif" font-size="10.00">scrypt.h</text>
</a>
</g>
</g>
<!-- Node4&#45;&gt;Node44 -->
<g id="edge67" class="edge"><title>Node4&#45;&gt;Node44</title>
<path fill="none" stroke="midnightblue" d="M792.452,-361.193C943.24,-359.045 1812.59,-345.314 2075.06,-311 2076.34,-310.834 2077.62,-310.647 2078.92,-310.442"/>
<polygon fill="midnightblue" stroke="midnightblue" points="2079.74,-313.851 2088.94,-308.597 2078.47,-306.967 2079.74,-313.851"/>
</g>
<!-- Node6 -->
<g id="node6" class="node"><title>Node6</title>
<g id="a_node6"><a xlink:href="key_8h.html" target="_top" xlink:title="key.h">
<polygon fill="white" stroke="black" points="508.065,-235.5 508.065,-254.5 548.065,-254.5 548.065,-235.5 508.065,-235.5"/>
<text text-anchor="middle" x="528.065" y="-242.5" font-family="Helvetica,sans-Serif" font-size="10.00">key.h</text>
</a>
</g>
</g>
<!-- Node5&#45;&gt;Node6 -->
<g id="edge5" class="edge"><title>Node5&#45;&gt;Node6</title>
<path fill="none" stroke="midnightblue" d="M845.469,-296.116C784.263,-286.452 625.24,-261.343 558.38,-250.787"/>
<polygon fill="midnightblue" stroke="midnightblue" points="558.893,-247.324 548.47,-249.222 557.802,-254.239 558.893,-247.324"/>
</g>
<!-- Node9 -->
<g id="node9" class="node"><title>Node9</title>
<polygon fill="white" stroke="#bfbfbf" points="757.565,-0.5 757.565,-19.5 798.565,-19.5 798.565,-0.5 757.565,-0.5"/>
<text text-anchor="middle" x="778.065" y="-7.5" font-family="Helvetica,sans-Serif" font-size="10.00">string</text>
</g>
<!-- Node5&#45;&gt;Node9 -->
<g id="edge63" class="edge"><title>Node5&#45;&gt;Node9</title>
<path fill="none" stroke="midnightblue" d="M887.263,-291.386C900.316,-283.794 917.298,-271.389 925.065,-255 936.893,-230.04 1014.18,-185.131 915.065,-56 913.378,-53.802 848.47,-33.1123 808.613,-20.5655"/>
<polygon fill="midnightblue" stroke="midnightblue" points="809.422,-17.1509 798.832,-17.4916 807.323,-23.8288 809.422,-17.1509"/>
</g>
<!-- Node5&#45;&gt;Node21 -->
<g id="edge62" class="edge"><title>Node5&#45;&gt;Node21</title>
<path fill="none" stroke="midnightblue" d="M894.699,-299.514C1015.14,-297.011 1542.71,-284.525 1704.06,-255 1784.81,-240.225 1807.46,-237.306 1880.06,-199 1939.24,-167.779 1998.63,-114.435 2026.18,-88.1213"/>
<polygon fill="midnightblue" stroke="midnightblue" points="2028.62,-90.6321 2033.38,-81.1661 2023.76,-85.5984 2028.62,-90.6321"/>
</g>
<!-- Node23 -->
<g id="node23" class="node"><title>Node23</title>
<polygon fill="white" stroke="#bfbfbf" points="117.065,-62 117.065,-81 161.065,-81 161.065,-62 117.065,-62"/>
<text text-anchor="middle" x="139.065" y="-69" font-family="Helvetica,sans-Serif" font-size="10.00">vector</text>
</g>
<!-- Node5&#45;&gt;Node23 -->
<g id="edge64" class="edge"><title>Node5&#45;&gt;Node23</title>
<path fill="none" stroke="midnightblue" d="M845.492,-300.01C753.497,-298.922 423.695,-284.822 208.065,-143 185.578,-128.21 164.696,-105.01 151.924,-89.2996"/>
<polygon fill="midnightblue" stroke="midnightblue" points="154.337,-86.7089 145.39,-81.0351 148.846,-91.0503 154.337,-86.7089"/>
</g>
<!-- Node30 -->
<g id="node30" class="node"><title>Node30</title>
<polygon fill="white" stroke="#bfbfbf" points="1898.56,-62 1898.56,-81 1957.56,-81 1957.56,-62 1898.56,-62"/>
<text text-anchor="middle" x="1928.06" y="-69" font-family="Helvetica,sans-Serif" font-size="10.00">stdexcept</text>
</g>
<!-- Node5&#45;&gt;Node30 -->
<g id="edge61" class="edge"><title>Node5&#45;&gt;Node30</title>
<path fill="none" stroke="midnightblue" d="M894.852,-300.458C1041.03,-302.587 1788.99,-305.37 1929.06,-143 1941.28,-128.842 1938.56,-106.48 1934.38,-90.7446"/>
<polygon fill="midnightblue" stroke="midnightblue" points="1937.7,-89.6257 1931.42,-81.0918 1931.01,-91.6786 1937.7,-89.6257"/>
</g>
<!-- Node31 -->
<g id="node31" class="node"><title>Node31</title>
<g id="a_node31"><a xlink:href="util_8h.html" target="_top" xlink:title="util.h">
<polygon fill="white" stroke="black" points="1209.06,-179.5 1209.06,-198.5 1247.06,-198.5 1247.06,-179.5 1209.06,-179.5"/>
<text text-anchor="middle" x="1228.06" y="-186.5" font-family="Helvetica,sans-Serif" font-size="10.00">util.h</text>
</a>
</g>
</g>
<!-- Node5&#45;&gt;Node31 -->
<g id="edge42" class="edge"><title>Node5&#45;&gt;Node31</title>
<path fill="none" stroke="midnightblue" d="M894.671,-292.439C958.682,-272.771 1130.19,-220.074 1198.95,-198.945"/>
<polygon fill="midnightblue" stroke="midnightblue" points="1200.17,-202.232 1208.7,-195.949 1198.12,-195.541 1200.17,-202.232"/>
</g>
<!-- Node5&#45;&gt;Node42 -->
<g id="edge65" class="edge"><title>Node5&#45;&gt;Node42</title>
<path fill="none" stroke="midnightblue" d="M852.16,-291.444C833.811,-282.675 805.059,-268.935 783.971,-258.858"/>
<polygon fill="midnightblue" stroke="midnightblue" points="785.418,-255.67 774.886,-254.516 782.4,-261.986 785.418,-255.67"/>
</g>
<!-- Node43 -->
<g id="node43" class="node"><title>Node43</title>
<polygon fill="white" stroke="#bfbfbf" points="823.565,-235.5 823.565,-254.5 916.565,-254.5 916.565,-235.5 823.565,-235.5"/>
<text text-anchor="middle" x="870.065" y="-242.5" font-family="Helvetica,sans-Serif" font-size="10.00">boost/variant.hpp</text>
</g>
<!-- Node5&#45;&gt;Node43 -->
<g id="edge66" class="edge"><title>Node5&#45;&gt;Node43</title>
<path fill="none" stroke="midnightblue" d="M870.065,-291.083C870.065,-284.006 870.065,-273.861 870.065,-264.986"/>
<polygon fill="midnightblue" stroke="midnightblue" points="873.565,-264.751 870.065,-254.751 866.565,-264.751 873.565,-264.751"/>
</g>
<!-- Node7 -->
<g id="node7" class="node"><title>Node7</title>
<g id="a_node7"><a xlink:href="allocators_8h.html" target="_top" xlink:title="allocators.h">
<polygon fill="white" stroke="black" points="217.065,-62 217.065,-81 285.065,-81 285.065,-62 217.065,-62"/>
<text text-anchor="middle" x="251.065" y="-69" font-family="Helvetica,sans-Serif" font-size="10.00">allocators.h</text>
</a>
</g>
</g>
<!-- Node6&#45;&gt;Node7 -->
<g id="edge6" class="edge"><title>Node6&#45;&gt;Node7</title>
<path fill="none" stroke="midnightblue" d="M526.317,-235.331C521.311,-212.872 504.721,-152.497 466.065,-123 403.975,-75.6224 369.423,-107.514 294.065,-87 291.045,-86.1781 287.928,-85.2622 284.815,-84.3012"/>
<polygon fill="midnightblue" stroke="midnightblue" points="285.608,-80.8794 275.017,-81.1383 283.458,-87.5409 285.608,-80.8794"/>
</g>
<!-- Node14 -->
<g id="node14" class="node"><title>Node14</title>
<g id="a_node14"><a xlink:href="hash_8h.html" target="_top" xlink:title="hash.h">
<polygon fill="white" stroke="red" points="363.565,-179.5 363.565,-198.5 410.565,-198.5 410.565,-179.5 363.565,-179.5"/>
<text text-anchor="middle" x="387.065" y="-186.5" font-family="Helvetica,sans-Serif" font-size="10.00">hash.h</text>
</a>
</g>
</g>
<!-- Node6&#45;&gt;Node14 -->
<g id="edge13" class="edge"><title>Node6&#45;&gt;Node14</title>
<path fill="none" stroke="midnightblue" d="M507.863,-236.263C484.669,-227.38 446.319,-212.693 419.055,-202.251"/>
<polygon fill="midnightblue" stroke="midnightblue" points="420.15,-198.923 409.56,-198.615 417.647,-205.46 420.15,-198.923"/>
</g>
<!-- Node6&#45;&gt;Node15 -->
<g id="edge38" class="edge"><title>Node6&#45;&gt;Node15</title>
<path fill="none" stroke="midnightblue" d="M532.694,-235.368C542.345,-217.376 564.779,-175.55 577.61,-151.627"/>
<polygon fill="midnightblue" stroke="midnightblue" points="580.814,-153.058 582.457,-142.591 574.646,-149.749 580.814,-153.058"/>
</g>
<!-- Node6&#45;&gt;Node23 -->
<g id="edge41" class="edge"><title>Node6&#45;&gt;Node23</title>
<path fill="none" stroke="midnightblue" d="M522.821,-235.444C508.384,-212.72 465.552,-150.71 412.065,-123 316.684,-73.5863 276.411,-116.305 173.065,-87 170.773,-86.3501 168.43,-85.5837 166.101,-84.7483"/>
<polygon fill="midnightblue" stroke="midnightblue" points="167.341,-81.4751 156.755,-81.0474 164.764,-87.9834 167.341,-81.4751"/>
</g>
<!-- Node6&#45;&gt;Node26 -->
<g id="edge39" class="edge"><title>Node6&#45;&gt;Node26</title>
<path fill="none" stroke="midnightblue" d="M507.915,-239.01C475.444,-230.918 409.563,-214.297 354.065,-199 289.232,-181.13 214.228,-158.826 170.099,-145.535"/>
<polygon fill="midnightblue" stroke="midnightblue" points="170.953,-142.137 160.368,-142.6 168.931,-148.839 170.953,-142.137"/>
</g>
<!-- Node6&#45;&gt;Node30 -->
<g id="edge40" class="edge"><title>Node6&#45;&gt;Node30</title>
<path fill="none" stroke="midnightblue" d="M548.213,-242.849C716.336,-233.21 1880.56,-165.699 1908.06,-143 1923.21,-130.498 1927.36,-107.437 1928.27,-91.0985"/>
<polygon fill="midnightblue" stroke="midnightblue" points="1931.77,-91.1434 1928.48,-81.0734 1924.77,-90.9991 1931.77,-91.1434"/>
</g>
<!-- Node8 -->
<g id="node8" class="node"><title>Node8</title>
<polygon fill="white" stroke="#bfbfbf" points="817.065,-0.5 817.065,-19.5 853.065,-19.5 853.065,-0.5 817.065,-0.5"/>
<text text-anchor="middle" x="835.065" y="-7.5" font-family="Helvetica,sans-Serif" font-size="10.00">map</text>
</g>
<!-- Node7&#45;&gt;Node8 -->
<g id="edge7" class="edge"><title>Node7&#45;&gt;Node8</title>
<path fill="none" stroke="midnightblue" d="M273.088,-61.8726C279.734,-59.5978 287.112,-57.3923 294.065,-56 518.176,-11.119 582.64,-63.2845 807.065,-20 807.165,-19.9807 807.265,-19.9611 807.366,-19.9412"/>
<polygon fill="midnightblue" stroke="midnightblue" points="808.013,-23.3876 816.854,-17.5494 806.302,-16.6 808.013,-23.3876"/>
</g>
<!-- Node7&#45;&gt;Node9 -->
<g id="edge8" class="edge"><title>Node7&#45;&gt;Node9</title>
<path fill="none" stroke="midnightblue" d="M273.108,-61.9718C279.755,-59.6998 287.128,-57.4709 294.065,-56 462.45,-20.291 669.763,-12.9178 747.078,-11.3958"/>
<polygon fill="midnightblue" stroke="midnightblue" points="747.586,-14.8874 757.522,-11.211 747.462,-7.88854 747.586,-14.8874"/>
</g>
<!-- Node10 -->
<g id="node10" class="node"><title>Node10</title>
<polygon fill="white" stroke="#bfbfbf" points="125.565,-0.5 125.565,-19.5 174.565,-19.5 174.565,-0.5 125.565,-0.5"/>
<text text-anchor="middle" x="150.065" y="-7.5" font-family="Helvetica,sans-Serif" font-size="10.00">string.h</text>
</g>
<!-- Node7&#45;&gt;Node10 -->
<g id="edge9" class="edge"><title>Node7&#45;&gt;Node10</title>
<path fill="none" stroke="midnightblue" d="M236.594,-61.9751C220.094,-52.2548 192.886,-36.2266 173.383,-24.7372"/>
<polygon fill="midnightblue" stroke="midnightblue" points="174.901,-21.5693 164.509,-19.5091 171.348,-27.6005 174.901,-21.5693"/>
</g>
<!-- Node11 -->
<g id="node11" class="node"><title>Node11</title>
<polygon fill="white" stroke="#bfbfbf" points="1597.06,-0.5 1597.06,-19.5 1719.06,-19.5 1719.06,-0.5 1597.06,-0.5"/>
<text text-anchor="middle" x="1658.06" y="-7.5" font-family="Helvetica,sans-Serif" font-size="10.00">boost/thread/mutex.hpp</text>
</g>
<!-- Node7&#45;&gt;Node11 -->
<g id="edge10" class="edge"><title>Node7&#45;&gt;Node11</title>
<path fill="none" stroke="midnightblue" d="M272.615,-61.8618C279.373,-59.5271 286.933,-57.2912 294.065,-56 421.394,-32.9473 1324.67,-16.4695 1586.88,-12.1322"/>
<polygon fill="midnightblue" stroke="midnightblue" points="1587.1,-15.6292 1597.04,-11.9649 1586.98,-8.6301 1587.1,-15.6292"/>
</g>
<!-- Node12 -->
<g id="node12" class="node"><title>Node12</title>
<polygon fill="white" stroke="#bfbfbf" points="193.065,-0.5 193.065,-19.5 309.065,-19.5 309.065,-0.5 193.065,-0.5"/>
<text text-anchor="middle" x="251.065" y="-7.5" font-family="Helvetica,sans-Serif" font-size="10.00">boost/thread/once.hpp</text>
</g>
<!-- Node7&#45;&gt;Node12 -->
<g id="edge11" class="edge"><title>Node7&#45;&gt;Node12</title>
<path fill="none" stroke="midnightblue" d="M251.065,-61.9751C251.065,-53.5803 251.065,-40.4806 251.065,-29.6631"/>
<polygon fill="midnightblue" stroke="midnightblue" points="254.565,-29.5091 251.065,-19.5091 247.565,-29.5091 254.565,-29.5091"/>
</g>
<!-- Node13 -->
<g id="node13" class="node"><title>Node13</title>
<polygon fill="white" stroke="#bfbfbf" points="327.565,-0.5 327.565,-19.5 416.565,-19.5 416.565,-0.5 327.565,-0.5"/>
<text text-anchor="middle" x="372.065" y="-7.5" font-family="Helvetica,sans-Serif" font-size="10.00">openssl/crypto.h</text>
</g>
<!-- Node7&#45;&gt;Node13 -->
<g id="edge12" class="edge"><title>Node7&#45;&gt;Node13</title>
<path fill="none" stroke="midnightblue" d="M268.401,-61.9751C288.618,-52.0338 322.252,-35.4947 345.707,-23.961"/>
<polygon fill="midnightblue" stroke="midnightblue" points="347.331,-27.0627 354.761,-19.5091 344.242,-20.781 347.331,-27.0627"/>
</g>
<!-- Node14&#45;&gt;Node15 -->
<g id="edge14" class="edge"><title>Node14&#45;&gt;Node15</title>
<path fill="none" stroke="midnightblue" d="M410.793,-181.593C444.083,-172.605 505.14,-156.12 545.921,-145.109"/>
<polygon fill="midnightblue" stroke="midnightblue" points="547.081,-148.421 555.823,-142.435 545.257,-141.663 547.081,-148.421"/>
</g>
<!-- Node14&#45;&gt;Node23 -->
<g id="edge36" class="edge"><title>Node14&#45;&gt;Node23</title>
<path fill="none" stroke="midnightblue" d="M391.622,-179.245C398.052,-165.534 407.581,-138.92 394.065,-123 362.144,-85.4034 222.559,-100.294 175.065,-87 172.623,-86.3167 170.122,-85.521 167.631,-84.6608"/>
<polygon fill="midnightblue" stroke="midnightblue" points="168.816,-81.3671 158.224,-81.124 166.353,-87.9194 168.816,-81.3671"/>
</g>
<!-- Node14&#45;&gt;Node26 -->
<g id="edge29" class="edge"><title>Node14&#45;&gt;Node26</title>
<path fill="none" stroke="midnightblue" d="M363.532,-183.017C319.632,-173.72 224.851,-153.649 171.187,-142.285"/>
<polygon fill="midnightblue" stroke="midnightblue" points="171.856,-138.849 161.348,-140.201 170.405,-145.697 171.856,-138.849"/>
</g>
<!-- Node28 -->
<g id="node28" class="node"><title>Node28</title>
<g id="a_node28"><a xlink:href="version_8h.html" target="_top" xlink:title="version.h">
<polygon fill="white" stroke="black" points="217.565,-123.5 217.565,-142.5 274.565,-142.5 274.565,-123.5 217.565,-123.5"/>
<text text-anchor="middle" x="246.065" y="-130.5" font-family="Helvetica,sans-Serif" font-size="10.00">version.h</text>
</a>
</g>
</g>
<!-- Node14&#45;&gt;Node28 -->
<g id="edge35" class="edge"><title>Node14&#45;&gt;Node28</title>
<path fill="none" stroke="midnightblue" d="M364.723,-179.444C341.312,-170.478 304.329,-156.314 277.875,-146.183"/>
<polygon fill="midnightblue" stroke="midnightblue" points="278.892,-142.824 268.302,-142.516 276.389,-149.361 278.892,-142.824"/>
</g>
<!-- Node29 -->
<g id="node29" class="node"><title>Node29</title>
<polygon fill="white" stroke="#bfbfbf" points="292.565,-123.5 292.565,-142.5 385.565,-142.5 385.565,-123.5 292.565,-123.5"/>
<text text-anchor="middle" x="339.065" y="-130.5" font-family="Helvetica,sans-Serif" font-size="10.00">openssl/ripemd.h</text>
</g>
<!-- Node14&#45;&gt;Node29 -->
<g id="edge37" class="edge"><title>Node14&#45;&gt;Node29</title>
<path fill="none" stroke="midnightblue" d="M379.138,-179.083C372.219,-171.298 361.999,-159.801 353.613,-150.367"/>
<polygon fill="midnightblue" stroke="midnightblue" points="356.103,-147.9 346.843,-142.751 350.871,-152.55 356.103,-147.9"/>
</g>
<!-- Node15&#45;&gt;Node7 -->
<g id="edge15" class="edge"><title>Node15&#45;&gt;Node7</title>
<path fill="none" stroke="midnightblue" d="M555.633,-125.492C551.088,-124.615 546.461,-123.758 542.065,-123 432.307,-104.072 402.389,-112.9 294.065,-87 290.667,-86.1876 287.156,-85.2216 283.673,-84.1795"/>
<polygon fill="midnightblue" stroke="midnightblue" points="284.64,-80.8142 274.049,-81.1059 282.51,-87.4824 284.64,-80.8142"/>
</g>
<!-- Node15&#45;&gt;Node8 -->
<g id="edge20" class="edge"><title>Node15&#45;&gt;Node8</title>
<path fill="none" stroke="midnightblue" d="M618.331,-125.748C673.52,-114.618 783.086,-92.0579 790.065,-87 809.806,-72.6918 822.384,-46.8395 829.081,-29.3025"/>
<polygon fill="midnightblue" stroke="midnightblue" points="832.466,-30.2302 832.503,-19.6354 825.867,-27.8944 832.466,-30.2302"/>
</g>
<!-- Node15&#45;&gt;Node9 -->
<g id="edge23" class="edge"><title>Node15&#45;&gt;Node9</title>
<path fill="none" stroke="midnightblue" d="M618.099,-125.287C668.731,-114.201 764.017,-92.7194 769.065,-87 782.638,-71.622 783.114,-47.154 781.353,-30.151"/>
<polygon fill="midnightblue" stroke="midnightblue" points="784.754,-29.1983 779.91,-19.7758 777.821,-30.1627 784.754,-29.1983"/>
</g>
<!-- Node15&#45;&gt;Node10 -->
<g id="edge24" class="edge"><title>Node15&#45;&gt;Node10</title>
<path fill="none" stroke="midnightblue" d="M555.803,-128.616C466.409,-118.896 215.627,-91.3154 208.065,-87 184.819,-73.7351 167.846,-47.0277 158.466,-29.0751"/>
<polygon fill="midnightblue" stroke="midnightblue" points="161.506,-27.3272 153.938,-19.9135 155.231,-30.4291 161.506,-27.3272"/>
</g>
<!-- Node16 -->
<g id="node16" class="node"><title>Node16</title>
<polygon fill="white" stroke="#bfbfbf" points="303.065,-62 303.065,-81 361.065,-81 361.065,-62 303.065,-62"/>
<text text-anchor="middle" x="332.065" y="-69" font-family="Helvetica,sans-Serif" font-size="10.00">algorithm</text>
</g>
<!-- Node15&#45;&gt;Node16 -->
<g id="edge16" class="edge"><title>Node15&#45;&gt;Node16</title>
<path fill="none" stroke="midnightblue" d="M555.726,-125.639C497.787,-113.859 378.974,-89.6053 370.065,-87 367.485,-86.2456 364.833,-85.395 362.186,-84.4935"/>
<polygon fill="midnightblue" stroke="midnightblue" points="363.36,-81.1965 352.766,-81.0865 360.979,-87.7792 363.36,-81.1965"/>
</g>
<!-- Node15&#45;&gt;Node17 -->
<g id="edge17" class="edge"><title>Node15&#45;&gt;Node17</title>
<path fill="none" stroke="midnightblue" d="M618.516,-125.601C623.058,-124.709 627.679,-123.818 632.065,-123 724.293,-105.799 749.389,-111.08 840.065,-87 843.039,-86.2102 846.104,-85.2936 849.152,-84.3122"/>
<polygon fill="midnightblue" stroke="midnightblue" points="850.376,-87.5924 858.697,-81.0333 848.102,-80.9721 850.376,-87.5924"/>
</g>
<!-- Node18 -->
<g id="node18" class="node"><title>Node18</title>
<polygon fill="white" stroke="#bfbfbf" points="379.565,-62 379.565,-81 418.565,-81 418.565,-62 379.565,-62"/>
<text text-anchor="middle" x="399.065" y="-69" font-family="Helvetica,sans-Serif" font-size="10.00">limits</text>
</g>
<!-- Node15&#45;&gt;Node18 -->
<g id="edge18" class="edge"><title>Node15&#45;&gt;Node18</title>
<path fill="none" stroke="midnightblue" d="M555.777,-125.197C523.068,-117.626 470.545,-104.165 427.065,-87 425.862,-86.5251 424.642,-86.0144 423.42,-85.4784"/>
<polygon fill="midnightblue" stroke="midnightblue" points="424.736,-82.2281 414.207,-81.0543 421.706,-88.5383 424.736,-82.2281"/>
</g>
<!-- Node19 -->
<g id="node19" class="node"><title>Node19</title>
<polygon fill="white" stroke="#bfbfbf" points="436.565,-62 436.565,-81 465.565,-81 465.565,-62 436.565,-62"/>
<text text-anchor="middle" x="451.065" y="-69" font-family="Helvetica,sans-Serif" font-size="10.00">ios</text>
</g>
<!-- Node15&#45;&gt;Node19 -->
<g id="edge19" class="edge"><title>Node15&#45;&gt;Node19</title>
<path fill="none" stroke="midnightblue" d="M562.537,-123.445C539.508,-115.111 504.317,-101.594 475.065,-87 474.52,-86.7283 473.972,-86.4487 473.421,-86.1624"/>
<polygon fill="midnightblue" stroke="midnightblue" points="474.988,-83.0281 464.557,-81.1717 471.554,-89.1277 474.988,-83.0281"/>
</g>
<!-- Node20 -->
<g id="node20" class="node"><title>Node20</title>
<polygon fill="white" stroke="#bfbfbf" points="484.065,-62 484.065,-81 514.065,-81 514.065,-62 484.065,-62"/>
<text text-anchor="middle" x="499.065" y="-69" font-family="Helvetica,sans-Serif" font-size="10.00">set</text>
</g>
<!-- Node15&#45;&gt;Node20 -->
<g id="edge21" class="edge"><title>Node15&#45;&gt;Node20</title>
<path fill="none" stroke="midnightblue" d="M574.456,-123.475C560.342,-113.931 537.234,-98.3073 520.315,-86.8683"/>
<polygon fill="midnightblue" stroke="midnightblue" points="521.894,-83.7109 511.65,-81.0091 517.973,-89.5098 521.894,-83.7109"/>
</g>
<!-- Node15&#45;&gt;Node21 -->
<g id="edge22" class="edge"><title>Node15&#45;&gt;Node21</title>
<path fill="none" stroke="midnightblue" d="M618.152,-131.282C809.98,-126.814 1829.05,-102.493 1967.06,-87 1980.35,-85.509 1994.79,-82.9447 2007.43,-80.3833"/>
<polygon fill="midnightblue" stroke="midnightblue" points="2008.49,-83.7376 2017.56,-78.256 2007.05,-76.8871 2008.49,-83.7376"/>
</g>
<!-- Node22 -->
<g id="node22" class="node"><title>Node22</title>
<polygon fill="white" stroke="#bfbfbf" points="962.565,-62 962.565,-81 1001.56,-81 1001.56,-62 962.565,-62"/>
<text text-anchor="middle" x="982.065" y="-69" font-family="Helvetica,sans-Serif" font-size="10.00">utility</text>
</g>
<!-- Node15&#45;&gt;Node22 -->
<g id="edge25" class="edge"><title>Node15&#45;&gt;Node22</title>
<path fill="none" stroke="midnightblue" d="M618.395,-128.514C676.904,-121.823 806.671,-106.136 915.065,-87 927.358,-84.8298 940.825,-82.0037 952.441,-79.4236"/>
<polygon fill="midnightblue" stroke="midnightblue" points="953.519,-82.7683 962.5,-77.1491 951.975,-75.9407 953.519,-82.7683"/>
</g>
<!-- Node15&#45;&gt;Node23 -->
<g id="edge26" class="edge"><title>Node15&#45;&gt;Node23</title>
<path fill="none" stroke="midnightblue" d="M555.859,-128.606C460.005,-118.178 176.225,-87.2911 175.065,-87 172.4,-86.3312 169.67,-85.5076 166.964,-84.5954"/>
<polygon fill="midnightblue" stroke="midnightblue" points="168.018,-81.2527 157.425,-81.022 165.562,-87.8078 168.018,-81.2527"/>
</g>
<!-- Node24 -->
<g id="node24" class="node"><title>Node24</title>
<polygon fill="white" stroke="#bfbfbf" points="532.565,-62 532.565,-81 641.565,-81 641.565,-62 532.565,-62"/>
<text text-anchor="middle" x="587.065" y="-69" font-family="Helvetica,sans-Serif" font-size="10.00">boost/tuple/tuple.hpp</text>
</g>
<!-- Node15&#45;&gt;Node24 -->
<g id="edge27" class="edge"><title>Node15&#45;&gt;Node24</title>
<path fill="none" stroke="midnightblue" d="M587.065,-123.475C587.065,-115.08 587.065,-101.981 587.065,-91.1631"/>
<polygon fill="midnightblue" stroke="midnightblue" points="590.565,-91.0091 587.065,-81.0091 583.565,-91.0091 590.565,-91.0091"/>
</g>
<!-- Node25 -->
<g id="node25" class="node"><title>Node25</title>
<polygon fill="white" stroke="#bfbfbf" points="660.065,-56.5 660.065,-86.5 760.065,-86.5 760.065,-56.5 660.065,-56.5"/>
<text text-anchor="start" x="668.065" y="-74.5" font-family="Helvetica,sans-Serif" font-size="10.00">boost/type_traits/is</text>
<text text-anchor="middle" x="710.065" y="-63.5" font-family="Helvetica,sans-Serif" font-size="10.00">_fundamental.hpp</text>
</g>
<!-- Node15&#45;&gt;Node25 -->
<g id="edge28" class="edge"><title>Node15&#45;&gt;Node25</title>
<path fill="none" stroke="midnightblue" d="M604.688,-123.475C622.125,-115.04 649.381,-101.855 671.805,-91.008"/>
<polygon fill="midnightblue" stroke="midnightblue" points="673.598,-94.0284 681.076,-86.523 670.55,-87.727 673.598,-94.0284"/>
</g>
<!-- Node26&#45;&gt;Node9 -->
<g id="edge32" class="edge"><title>Node26&#45;&gt;Node9</title>
<path fill="none" stroke="midnightblue" d="M124.521,-123.279C112.026,-107.765 90.1087,-75.2024 108.065,-56 130.164,-32.367 617.91,-15.8784 746.969,-11.9185"/>
<polygon fill="midnightblue" stroke="midnightblue" points="747.43,-15.4062 757.319,-11.6043 747.217,-8.4094 747.43,-15.4062"/>
</g>
<!-- Node26&#45;&gt;Node10 -->
<g id="edge33" class="edge"><title>Node26&#45;&gt;Node10</title>
<path fill="none" stroke="midnightblue" d="M102.896,-130.752C72.9931,-127.73 27.8751,-117.949 6.06471,-87 -1.87196,-75.7378 -2.09637,-67.1006 6.06471,-56 31.0215,-22.0541 81.4706,-13.001 115.522,-10.9605"/>
<polygon fill="midnightblue" stroke="midnightblue" points="115.675,-14.4573 125.517,-10.5326 115.376,-7.46367 115.675,-14.4573"/>
</g>
<!-- Node26&#45;&gt;Node21 -->
<g id="edge30" class="edge"><title>Node26&#45;&gt;Node21</title>
<path fill="none" stroke="midnightblue" d="M161.235,-127.872C175.349,-126.047 192.557,-124.074 208.065,-123 988.136,-68.958 1189.49,-169.513 1967.06,-87 1980.25,-85.6006 1994.58,-83.0819 2007.15,-80.532"/>
<polygon fill="midnightblue" stroke="midnightblue" points="2008.16,-83.895 2017.23,-78.4065 2006.72,-77.0457 2008.16,-83.895"/>
</g>
<!-- Node26&#45;&gt;Node23 -->
<g id="edge34" class="edge"><title>Node26&#45;&gt;Node23</title>
<path fill="none" stroke="midnightblue" d="M133.068,-123.475C134.055,-115.08 135.596,-101.981 136.869,-91.1631"/>
<polygon fill="midnightblue" stroke="midnightblue" points="140.371,-91.3496 138.064,-81.0091 133.419,-90.5316 140.371,-91.3496"/>
</g>
<!-- Node27 -->
<g id="node27" class="node"><title>Node27</title>
<polygon fill="white" stroke="#bfbfbf" points="15.0647,-62 15.0647,-81 61.0647,-81 61.0647,-62 15.0647,-62"/>
<text text-anchor="middle" x="38.0647" y="-69" font-family="Helvetica,sans-Serif" font-size="10.00">stdio.h</text>
</g>
<!-- Node26&#45;&gt;Node27 -->
<g id="edge31" class="edge"><title>Node26&#45;&gt;Node27</title>
<path fill="none" stroke="midnightblue" d="M118.597,-123.475C103.38,-113.843 78.378,-98.0175 60.264,-86.5517"/>
<polygon fill="midnightblue" stroke="midnightblue" points="61.8291,-83.4002 51.5076,-81.0091 58.0852,-89.3149 61.8291,-83.4002"/>
</g>
<!-- Node31&#45;&gt;Node8 -->
<g id="edge50" class="edge"><title>Node31&#45;&gt;Node8</title>
<path fill="none" stroke="midnightblue" d="M1214.33,-179.447C1202.17,-171.308 1184.61,-158.088 1173.06,-143 1147.31,-109.35 1167.81,-81.6232 1134.06,-56 1091.79,-23.9014 929.7,-14.4341 863.49,-11.8733"/>
<polygon fill="midnightblue" stroke="midnightblue" points="863.481,-8.37082 853.361,-11.5072 863.228,-15.3662 863.481,-8.37082"/>
</g>
<!-- Node31&#45;&gt;Node9 -->
<g id="edge53" class="edge"><title>Node31&#45;&gt;Node9</title>
<path fill="none" stroke="midnightblue" d="M1209.05,-186.609C1162.8,-182.816 1046.39,-170.67 1021.06,-143 994.749,-114.251 1036.92,-84.2474 1010.06,-56 949.381,7.8342 900.238,-37.772 808.535,-19.6794"/>
<polygon fill="midnightblue" stroke="midnightblue" points="809.154,-16.2321 798.637,-17.5115 807.657,-23.07 809.154,-16.2321"/>
</g>
<!-- Node31&#45;&gt;Node15 -->
<g id="edge45" class="edge"><title>Node31&#45;&gt;Node15</title>
<path fill="none" stroke="midnightblue" d="M1208.88,-186.384C1120.63,-178.949 752.688,-147.953 628.336,-137.477"/>
<polygon fill="midnightblue" stroke="midnightblue" points="628.355,-133.966 618.096,-136.614 627.767,-140.941 628.355,-133.966"/>
</g>
<!-- Node31&#45;&gt;Node21 -->
<g id="edge52" class="edge"><title>Node31&#45;&gt;Node21</title>
<path fill="none" stroke="midnightblue" d="M1247.29,-187.803C1344.12,-186.65 1778.83,-179.491 1908.06,-143 1951.1,-130.849 1996.11,-103.717 2021.47,-86.8792"/>
<polygon fill="midnightblue" stroke="midnightblue" points="2023.56,-89.6902 2029.88,-81.1883 2019.64,-83.892 2023.56,-89.6902"/>
</g>
<!-- Node31&#45;&gt;Node22 -->
<g id="edge54" class="edge"><title>Node31&#45;&gt;Node22</title>
<path fill="none" stroke="midnightblue" d="M1209.04,-187.296C1157.59,-184.97 1017.64,-175.701 988.065,-143 975.601,-129.217 975.772,-107.104 977.999,-91.3199"/>
<polygon fill="midnightblue" stroke="midnightblue" points="981.501,-91.6169 979.831,-81.1545 974.612,-90.3748 981.501,-91.6169"/>
</g>
<!-- Node31&#45;&gt;Node23 -->
<g id="edge55" class="edge"><title>Node31&#45;&gt;Node23</title>
<path fill="none" stroke="midnightblue" d="M1208.97,-187.965C1128.23,-187.56 806.992,-183.356 547.065,-143 510.423,-137.311 502.532,-129.718 466.065,-123 337.034,-99.2319 299.765,-121.07 173.065,-87 170.764,-86.3814 168.416,-85.6372 166.082,-84.817"/>
<polygon fill="midnightblue" stroke="midnightblue" points="167.316,-81.5414 156.728,-81.1432 164.757,-88.0568 167.316,-81.5414"/>
</g>
<!-- Node32 -->
<g id="node32" class="node"><title>Node32</title>
<g id="a_node32"><a xlink:href="compat_8h.html" target="_top" xlink:title="compat.h">
<polygon fill="white" stroke="red" points="1030.06,-123.5 1030.06,-142.5 1088.06,-142.5 1088.06,-123.5 1030.06,-123.5"/>
<text text-anchor="middle" x="1059.06" y="-130.5" font-family="Helvetica,sans-Serif" font-size="10.00">compat.h</text>
</a>
</g>
</g>
<!-- Node31&#45;&gt;Node32 -->
<g id="edge43" class="edge"><title>Node31&#45;&gt;Node32</title>
<path fill="none" stroke="midnightblue" d="M1209.01,-181.91C1181.59,-173.149 1130.48,-156.818 1095.63,-145.682"/>
<polygon fill="midnightblue" stroke="midnightblue" points="1096.41,-142.259 1085.82,-142.549 1094.28,-148.926 1096.41,-142.259"/>
</g>
<!-- Node33 -->
<g id="node33" class="node"><title>Node33</title>
<polygon fill="white" stroke="#bfbfbf" points="1058.56,-62 1058.56,-81 1125.56,-81 1125.56,-62 1058.56,-62"/>
<text text-anchor="middle" x="1092.06" y="-69" font-family="Helvetica,sans-Serif" font-size="10.00">sys/types.h</text>
</g>
<!-- Node31&#45;&gt;Node33 -->
<g id="edge58" class="edge"><title>Node31&#45;&gt;Node33</title>
<path fill="none" stroke="midnightblue" d="M1208.91,-181.424C1189.88,-174.2 1160.65,-161.163 1140.06,-143 1123.12,-128.054 1109.32,-105.881 1100.94,-90.404"/>
<polygon fill="midnightblue" stroke="midnightblue" points="1103.95,-88.6052 1096.24,-81.3441 1097.74,-91.8317 1103.95,-88.6052"/>
</g>
<!-- Node34 -->
<g id="node34" class="node"><title>Node34</title>
<g id="a_node34"><a xlink:href="tinyformat_8h.html" target="_top" xlink:title="tinyformat.h">
<polygon fill="white" stroke="red" points="1830.56,-123.5 1830.56,-142.5 1899.56,-142.5 1899.56,-123.5 1830.56,-123.5"/>
<text text-anchor="middle" x="1865.06" y="-130.5" font-family="Helvetica,sans-Serif" font-size="10.00">tinyformat.h</text>
</a>
</g>
</g>
<!-- Node31&#45;&gt;Node34 -->
<g id="edge46" class="edge"><title>Node31&#45;&gt;Node34</title>
<path fill="none" stroke="midnightblue" d="M1247.1,-187.428C1320.06,-185.055 1588.85,-174.645 1820.59,-142.871"/>
<polygon fill="midnightblue" stroke="midnightblue" points="1821.12,-146.33 1830.55,-141.488 1820.16,-139.396 1821.12,-146.33"/>
</g>
<!-- Node35 -->
<g id="node35" class="node"><title>Node35</title>
<polygon fill="white" stroke="#bfbfbf" points="1292.56,-123.5 1292.56,-142.5 1335.56,-142.5 1335.56,-123.5 1292.56,-123.5"/>
<text text-anchor="middle" x="1314.06" y="-130.5" font-family="Helvetica,sans-Serif" font-size="10.00">cstdio</text>
</g>
<!-- Node31&#45;&gt;Node35 -->
<g id="edge48" class="edge"><title>Node31&#45;&gt;Node35</title>
<path fill="none" stroke="midnightblue" d="M1241.88,-179.324C1255.3,-170.9 1275.89,-157.971 1291.65,-148.074"/>
<polygon fill="midnightblue" stroke="midnightblue" points="1293.67,-150.936 1300.28,-142.655 1289.95,-145.008 1293.67,-150.936"/>
</g>
<!-- Node36 -->
<g id="node36" class="node"><title>Node36</title>
<polygon fill="white" stroke="#bfbfbf" points="1353.56,-123.5 1353.56,-142.5 1412.56,-142.5 1412.56,-123.5 1353.56,-123.5"/>
<text text-anchor="middle" x="1383.06" y="-130.5" font-family="Helvetica,sans-Serif" font-size="10.00">exception</text>
</g>
<!-- Node31&#45;&gt;Node36 -->
<g id="edge49" class="edge"><title>Node31&#45;&gt;Node36</title>
<path fill="none" stroke="midnightblue" d="M1247.07,-181.379C1272.38,-172.56 1317.6,-156.808 1348.9,-145.901"/>
<polygon fill="midnightblue" stroke="midnightblue" points="1350.24,-149.14 1358.54,-142.545 1347.94,-142.53 1350.24,-149.14"/>
</g>
<!-- Node37 -->
<g id="node37" class="node"><title>Node37</title>
<polygon fill="white" stroke="#bfbfbf" points="1430.56,-123.5 1430.56,-142.5 1483.56,-142.5 1483.56,-123.5 1430.56,-123.5"/>
<text text-anchor="middle" x="1457.06" y="-130.5" font-family="Helvetica,sans-Serif" font-size="10.00">stdarg.h</text>
</g>
<!-- Node31&#45;&gt;Node37 -->
<g id="edge51" class="edge"><title>Node31&#45;&gt;Node37</title>
<path fill="none" stroke="midnightblue" d="M1247.26,-183.63C1280.43,-176.059 1350.82,-159.89 1420.51,-143.103"/>
<polygon fill="midnightblue" stroke="midnightblue" points="1421.44,-146.48 1430.34,-140.731 1419.8,-139.676 1421.44,-146.48"/>
</g>
<!-- Node38 -->
<g id="node38" class="node"><title>Node38</title>
<polygon fill="white" stroke="#bfbfbf" points="1502.06,-123.5 1502.06,-142.5 1584.06,-142.5 1584.06,-123.5 1502.06,-123.5"/>
<text text-anchor="middle" x="1543.06" y="-130.5" font-family="Helvetica,sans-Serif" font-size="10.00">sys/resource.h</text>
</g>
<!-- Node31&#45;&gt;Node38 -->
<g id="edge56" class="edge"><title>Node31&#45;&gt;Node38</title>
<path fill="none" stroke="midnightblue" d="M1247.28,-184.764C1289.4,-177.663 1393.24,-160.111 1491.74,-143.046"/>
<polygon fill="midnightblue" stroke="midnightblue" points="1492.62,-146.447 1501.87,-141.29 1491.42,-139.55 1492.62,-146.447"/>
</g>
<!-- Node39 -->
<g id="node39" class="node"><title>Node39</title>
<polygon fill="white" stroke="#bfbfbf" points="1602.06,-123.5 1602.06,-142.5 1664.06,-142.5 1664.06,-123.5 1602.06,-123.5"/>
<text text-anchor="middle" x="1633.06" y="-130.5" font-family="Helvetica,sans-Serif" font-size="10.00">sys/time.h</text>
</g>
<!-- Node31&#45;&gt;Node39 -->
<g id="edge57" class="edge"><title>Node31&#45;&gt;Node39</title>
<path fill="none" stroke="midnightblue" d="M1247.16,-186.316C1300.24,-181.495 1454.15,-166.561 1591.8,-143.075"/>
<polygon fill="midnightblue" stroke="midnightblue" points="1592.42,-146.519 1601.68,-141.369 1591.23,-139.621 1592.42,-146.519"/>
</g>
<!-- Node40 -->
<g id="node40" class="node"><title>Node40</title>
<polygon fill="white" stroke="#bfbfbf" points="1682.06,-123.5 1682.06,-142.5 1812.06,-142.5 1812.06,-123.5 1682.06,-123.5"/>
<text text-anchor="middle" x="1747.06" y="-130.5" font-family="Helvetica,sans-Serif" font-size="10.00">boost/filesystem/path.hpp</text>
</g>
<!-- Node31&#45;&gt;Node40 -->
<g id="edge59" class="edge"><title>Node31&#45;&gt;Node40</title>
<path fill="none" stroke="midnightblue" d="M1247.16,-186.208C1307.64,-180.505 1500.56,-162.087 1671.51,-143.154"/>
<polygon fill="midnightblue" stroke="midnightblue" points="1672.15,-146.605 1681.7,-142.022 1671.38,-139.648 1672.15,-146.605"/>
</g>
<!-- Node41 -->
<g id="node41" class="node"><title>Node41</title>
<polygon fill="white" stroke="#bfbfbf" points="1182.06,-123.5 1182.06,-142.5 1274.06,-142.5 1274.06,-123.5 1182.06,-123.5"/>
<text text-anchor="middle" x="1228.06" y="-130.5" font-family="Helvetica,sans-Serif" font-size="10.00">boost/thread.hpp</text>
</g>
<!-- Node31&#45;&gt;Node41 -->
<g id="edge60" class="edge"><title>Node31&#45;&gt;Node41</title>
<path fill="none" stroke="midnightblue" d="M1228.06,-179.083C1228.06,-172.006 1228.06,-161.861 1228.06,-152.986"/>
<polygon fill="midnightblue" stroke="midnightblue" points="1231.56,-152.751 1228.06,-142.751 1224.56,-152.751 1231.56,-152.751"/>
</g>
<!-- Node32&#45;&gt;Node33 -->
<g id="edge44" class="edge"><title>Node32&#45;&gt;Node33</title>
<path fill="none" stroke="midnightblue" d="M1063.79,-123.475C1068.64,-114.727 1076.33,-100.869 1082.46,-89.8093"/>
<polygon fill="midnightblue" stroke="midnightblue" points="1085.56,-91.4517 1087.35,-81.0091 1079.43,-88.0566 1085.56,-91.4517"/>
</g>
<!-- Node34&#45;&gt;Node30 -->
<g id="edge47" class="edge"><title>Node34&#45;&gt;Node30</title>
<path fill="none" stroke="midnightblue" d="M1874.09,-123.475C1883.82,-114.285 1899.52,-99.4563 1911.49,-88.156"/>
<polygon fill="midnightblue" stroke="midnightblue" points="1914.19,-90.4199 1919.06,-81.0091 1909.38,-85.3308 1914.19,-90.4199"/>
</g>
<!-- Node44&#45;&gt;Node21 -->
<g id="edge69" class="edge"><title>Node44&#45;&gt;Node21</title>
<path fill="none" stroke="midnightblue" d="M2123.55,-291.234C2131.12,-282.75 2141.67,-269.131 2146.06,-255 2148.71,-246.512 2147.98,-243.68 2146.06,-235 2134.23,-181.41 2125.83,-167.751 2094.06,-123 2084.75,-109.883 2071.78,-97.2742 2061.11,-87.9366"/>
<polygon fill="midnightblue" stroke="midnightblue" points="2063.07,-85.0021 2053.18,-81.2021 2058.54,-90.3402 2063.07,-85.0021"/>
</g>
<!-- Node45 -->
<g id="node45" class="node"><title>Node45</title>
<polygon fill="white" stroke="#bfbfbf" points="2089.06,-235.5 2089.06,-254.5 2137.06,-254.5 2137.06,-235.5 2089.06,-235.5"/>
<text text-anchor="middle" x="2113.06" y="-242.5" font-family="Helvetica,sans-Serif" font-size="10.00">stdlib.h</text>
</g>
<!-- Node44&#45;&gt;Node45 -->
<g id="edge68" class="edge"><title>Node44&#45;&gt;Node45</title>
<path fill="none" stroke="midnightblue" d="M2114.73,-291.083C2114.47,-284.006 2114.1,-273.861 2113.77,-264.986"/>
<polygon fill="midnightblue" stroke="midnightblue" points="2117.26,-264.615 2113.39,-254.751 2110.26,-264.874 2117.26,-264.615"/>
</g>
<!-- Node46&#45;&gt;Node11 -->
<g id="edge83" class="edge"><title>Node46&#45;&gt;Node11</title>
<path fill="none" stroke="midnightblue" d="M2404.9,-414.428C2395.82,-394.945 2375.06,-345.641 2375.06,-302 2375.06,-302 2375.06,-302 2375.06,-132 2375.06,-66.9865 1910.79,-28.2537 1729.43,-15.604"/>
<polygon fill="midnightblue" stroke="midnightblue" points="1729.41,-12.0944 1719.2,-14.8968 1728.93,-19.0777 1729.41,-12.0944"/>
</g>
<!-- Node47 -->
<g id="node47" class="node"><title>Node47</title>
<g id="a_node47"><a xlink:href="threadsafety_8h.html" target="_top" xlink:title="threadsafety.h">
<polygon fill="white" stroke="black" points="2403.06,-353 2403.06,-372 2483.06,-372 2483.06,-353 2403.06,-353"/>
<text text-anchor="middle" x="2443.06" y="-360" font-family="Helvetica,sans-Serif" font-size="10.00">threadsafety.h</text>
</a>
</g>
</g>
<!-- Node46&#45;&gt;Node47 -->
<g id="edge80" class="edge"><title>Node46&#45;&gt;Node47</title>
<path fill="none" stroke="midnightblue" d="M2413.94,-414.475C2418.94,-405.727 2426.85,-391.869 2433.17,-380.809"/>
<polygon fill="midnightblue" stroke="midnightblue" points="2436.28,-382.428 2438.2,-372.009 2430.2,-378.955 2436.28,-382.428"/>
</g>
<!-- Node48 -->
<g id="node48" class="node"><title>Node48</title>
<polygon fill="white" stroke="#bfbfbf" points="2501.56,-347.5 2501.56,-377.5 2616.56,-377.5 2616.56,-347.5 2501.56,-347.5"/>
<text text-anchor="start" x="2509.56" y="-365.5" font-family="Helvetica,sans-Serif" font-size="10.00">boost/thread/condition</text>
<text text-anchor="middle" x="2559.06" y="-354.5" font-family="Helvetica,sans-Serif" font-size="10.00">_variable.hpp</text>
</g>
<!-- Node46&#45;&gt;Node48 -->
<g id="edge81" class="edge"><title>Node46&#45;&gt;Node48</title>
<path fill="none" stroke="midnightblue" d="M2430.56,-414.475C2452.3,-405.852 2486.55,-392.264 2514.23,-381.285"/>
<polygon fill="midnightblue" stroke="midnightblue" points="2515.71,-384.464 2523.71,-377.523 2513.13,-377.957 2515.71,-384.464"/>
</g>
<!-- Node49 -->
<g id="node49" class="node"><title>Node49</title>
<polygon fill="white" stroke="#bfbfbf" points="2634.56,-353 2634.56,-372 2751.56,-372 2751.56,-353 2634.56,-353"/>
<text text-anchor="middle" x="2693.06" y="-360" font-family="Helvetica,sans-Serif" font-size="10.00">boost/thread/locks.hpp</text>
</g>
<!-- Node46&#45;&gt;Node49 -->
<g id="edge82" class="edge"><title>Node46&#45;&gt;Node49</title>
<path fill="none" stroke="midnightblue" d="M2431.57,-418.4C2471,-410.326 2555.11,-393.034 2626.06,-378 2631.81,-376.783 2637.83,-375.497 2643.8,-374.213"/>
<polygon fill="midnightblue" stroke="midnightblue" points="2644.71,-377.596 2653.75,-372.068 2643.24,-370.753 2644.71,-377.596"/>
</g>
<!-- Node50 -->
<g id="node50" class="node"><title>Node50</title>
<polygon fill="white" stroke="#bfbfbf" points="2231.56,-347.5 2231.56,-377.5 2346.56,-377.5 2346.56,-347.5 2231.56,-347.5"/>
<text text-anchor="start" x="2239.56" y="-365.5" font-family="Helvetica,sans-Serif" font-size="10.00">boost/thread/recursive</text>
<text text-anchor="middle" x="2289.06" y="-354.5" font-family="Helvetica,sans-Serif" font-size="10.00">_mutex.hpp</text>
</g>
<!-- Node46&#45;&gt;Node50 -->
<g id="edge84" class="edge"><title>Node46&#45;&gt;Node50</title>
<path fill="none" stroke="midnightblue" d="M2391.87,-414.475C2374.86,-406.04 2348.27,-392.855 2326.39,-382.008"/>
<polygon fill="midnightblue" stroke="midnightblue" points="2327.86,-378.83 2317.35,-377.523 2324.75,-385.101 2327.86,-378.83"/>
</g>
</g>
</svg>
