<?xml version="1.0" encoding="UTF-8" standalone="no"?>
<!DOCTYPE svg PUBLIC "-//W3C//DTD SVG 1.1//EN"
 "http://www.w3.org/Graphics/SVG/1.1/DTD/svg11.dtd">
<!-- Generated by graphviz version 2.38.0 (20140413.2041)
 -->
<!-- Title: src/qt/forms/ui_rpcconsole.h Pages: 1 -->
<svg width="2779pt" height="140pt"
 viewBox="0.00 0.00 2778.50 140.00" xmlns="http://www.w3.org/2000/svg" xmlns:xlink="http://www.w3.org/1999/xlink">
<g id="graph0" class="graph" transform="scale(1 1) rotate(0) translate(4 136)">
<title>src/qt/forms/ui_rpcconsole.h</title>
<polygon fill="white" stroke="none" points="-4,4 -4,-136 2774.5,-136 2774.5,4 -4,4"/>
<!-- Node1 -->
<g id="node1" class="node"><title>Node1</title>
<polygon fill="#bfbfbf" stroke="black" points="1309.5,-112.5 1309.5,-131.5 1451.5,-131.5 1451.5,-112.5 1309.5,-112.5"/>
<text text-anchor="middle" x="1380.5" y="-119.5" font-family="Helvetica,sans-Serif" font-size="10.00">src/qt/forms/ui_rpcconsole.h</text>
</g>
<!-- Node2 -->
<g id="node2" class="node"><title>Node2</title>
<polygon fill="white" stroke="#bfbfbf" points="0,-56.5 0,-75.5 91,-75.5 91,-56.5 0,-56.5"/>
<text text-anchor="middle" x="45.5" y="-63.5" font-family="Helvetica,sans-Serif" font-size="10.00">QtCore/QVariant</text>
</g>
<!-- Node1&#45;&gt;Node2 -->
<g id="edge1" class="edge"><title>Node1&#45;&gt;Node2</title>
<path fill="none" stroke="midnightblue" d="M1309.17,-121.663C1116.12,-122.777 567.221,-121.444 101.02,-75.8939"/>
<polygon fill="midnightblue" stroke="midnightblue" points="101.355,-72.41 91.0597,-74.9127 100.668,-79.3763 101.355,-72.41"/>
</g>
<!-- Node3 -->
<g id="node3" class="node"><title>Node3</title>
<polygon fill="white" stroke="#bfbfbf" points="109.5,-56.5 109.5,-75.5 211.5,-75.5 211.5,-56.5 109.5,-56.5"/>
<text text-anchor="middle" x="160.5" y="-63.5" font-family="Helvetica,sans-Serif" font-size="10.00">QtWidgets/QAction</text>
</g>
<!-- Node1&#45;&gt;Node3 -->
<g id="edge2" class="edge"><title>Node1&#45;&gt;Node3</title>
<path fill="none" stroke="midnightblue" d="M1309.44,-120.899C1129.34,-120.072 640.246,-114.261 221.886,-75.9046"/>
<polygon fill="midnightblue" stroke="midnightblue" points="221.987,-72.399 211.707,-74.9635 221.342,-79.3693 221.987,-72.399"/>
</g>
<!-- Node4 -->
<g id="node4" class="node"><title>Node4</title>
<polygon fill="white" stroke="#bfbfbf" points="230,-56.5 230,-75.5 353,-75.5 353,-56.5 230,-56.5"/>
<text text-anchor="middle" x="291.5" y="-63.5" font-family="Helvetica,sans-Serif" font-size="10.00">QtWidgets/QApplication</text>
</g>
<!-- Node1&#45;&gt;Node4 -->
<g id="edge3" class="edge"><title>Node1&#45;&gt;Node4</title>
<path fill="none" stroke="midnightblue" d="M1309.41,-119.86C1144.9,-116.788 725.124,-106.467 363.193,-75.976"/>
<polygon fill="midnightblue" stroke="midnightblue" points="363.301,-72.4727 353.041,-75.1141 362.709,-79.4476 363.301,-72.4727"/>
</g>
<!-- Node5 -->
<g id="node5" class="node"><title>Node5</title>
<polygon fill="white" stroke="#bfbfbf" points="371.5,-56.5 371.5,-75.5 501.5,-75.5 501.5,-56.5 371.5,-56.5"/>
<text text-anchor="middle" x="436.5" y="-63.5" font-family="Helvetica,sans-Serif" font-size="10.00">QtWidgets/QButtonGroup</text>
</g>
<!-- Node1&#45;&gt;Node5 -->
<g id="edge4" class="edge"><title>Node1&#45;&gt;Node5</title>
<path fill="none" stroke="midnightblue" d="M1309.34,-118.991C1162.39,-114.479 814.514,-101.918 512.13,-76.082"/>
<polygon fill="midnightblue" stroke="midnightblue" points="512.108,-72.5672 501.844,-75.1965 511.507,-79.5414 512.108,-72.5672"/>
</g>
<!-- Node6 -->
<g id="node6" class="node"><title>Node6</title>
<polygon fill="white" stroke="#bfbfbf" points="519.5,-56.5 519.5,-75.5 621.5,-75.5 621.5,-56.5 519.5,-56.5"/>
<text text-anchor="middle" x="570.5" y="-63.5" font-family="Helvetica,sans-Serif" font-size="10.00">QtWidgets/QDialog</text>
</g>
<!-- Node1&#45;&gt;Node6 -->
<g id="edge5" class="edge"><title>Node1&#45;&gt;Node6</title>
<path fill="none" stroke="midnightblue" d="M1309.34,-118.775C1177.8,-114.214 887.582,-102.054 631.941,-75.9385"/>
<polygon fill="midnightblue" stroke="midnightblue" points="632.021,-72.4282 621.715,-74.8843 631.303,-79.3913 632.021,-72.4282"/>
</g>
<!-- Node7 -->
<g id="node7" class="node"><title>Node7</title>
<polygon fill="white" stroke="#bfbfbf" points="640,-56.5 640,-75.5 743,-75.5 743,-56.5 640,-56.5"/>
<text text-anchor="middle" x="691.5" y="-63.5" font-family="Helvetica,sans-Serif" font-size="10.00">QtWidgets/QFrame</text>
</g>
<!-- Node1&#45;&gt;Node7 -->
<g id="edge6" class="edge"><title>Node1&#45;&gt;Node7</title>
<path fill="none" stroke="midnightblue" d="M1309.24,-117.636C1194.49,-111.836 961.454,-98.4696 753.258,-75.9946"/>
<polygon fill="midnightblue" stroke="midnightblue" points="753.37,-72.4861 743.05,-74.883 752.612,-79.445 753.37,-72.4861"/>
</g>
<!-- Node8 -->
<g id="node8" class="node"><title>Node8</title>
<polygon fill="white" stroke="#bfbfbf" points="761,-56.5 761,-75.5 884,-75.5 884,-56.5 761,-56.5"/>
<text text-anchor="middle" x="822.5" y="-63.5" font-family="Helvetica,sans-Serif" font-size="10.00">QtWidgets/QGridLayout</text>
</g>
<!-- Node1&#45;&gt;Node8 -->
<g id="edge7" class="edge"><title>Node1&#45;&gt;Node8</title>
<path fill="none" stroke="midnightblue" d="M1309.45,-115.195C1216.58,-107.439 1048.62,-92.8262 894.209,-76.0417"/>
<polygon fill="midnightblue" stroke="midnightblue" points="894.379,-72.5396 884.058,-74.933 893.619,-79.4982 894.379,-72.5396"/>
</g>
<!-- Node9 -->
<g id="node9" class="node"><title>Node9</title>
<polygon fill="white" stroke="#bfbfbf" points="902,-56.5 902,-75.5 1021,-75.5 1021,-56.5 902,-56.5"/>
<text text-anchor="middle" x="961.5" y="-63.5" font-family="Helvetica,sans-Serif" font-size="10.00">QtWidgets/QGroupBox</text>
</g>
<!-- Node1&#45;&gt;Node9 -->
<g id="edge8" class="edge"><title>Node1&#45;&gt;Node9</title>
<path fill="none" stroke="midnightblue" d="M1314.05,-112.493C1245.84,-103.753 1136.34,-89.6981 1031.47,-76.1238"/>
<polygon fill="midnightblue" stroke="midnightblue" points="1031.7,-72.625 1021.34,-74.8118 1030.81,-79.567 1031.7,-72.625"/>
</g>
<!-- Node10 -->
<g id="node10" class="node"><title>Node10</title>
<polygon fill="white" stroke="#bfbfbf" points="1039.5,-56.5 1039.5,-75.5 1167.5,-75.5 1167.5,-56.5 1039.5,-56.5"/>
<text text-anchor="middle" x="1103.5" y="-63.5" font-family="Helvetica,sans-Serif" font-size="10.00">QtWidgets/QHBoxLayout</text>
</g>
<!-- Node1&#45;&gt;Node10 -->
<g id="edge9" class="edge"><title>Node1&#45;&gt;Node10</title>
<path fill="none" stroke="midnightblue" d="M1336.61,-112.444C1287.98,-102.964 1209.55,-87.6747 1157.28,-77.4835"/>
<polygon fill="midnightblue" stroke="midnightblue" points="1157.67,-73.9946 1147.19,-75.5164 1156.33,-80.8653 1157.67,-73.9946"/>
</g>
<!-- Node11 -->
<g id="node11" class="node"><title>Node11</title>
<polygon fill="white" stroke="#bfbfbf" points="1185.5,-56.5 1185.5,-75.5 1313.5,-75.5 1313.5,-56.5 1185.5,-56.5"/>
<text text-anchor="middle" x="1249.5" y="-63.5" font-family="Helvetica,sans-Serif" font-size="10.00">QtWidgets/QHeaderView</text>
</g>
<!-- Node1&#45;&gt;Node11 -->
<g id="edge10" class="edge"><title>Node1&#45;&gt;Node11</title>
<path fill="none" stroke="midnightblue" d="M1359.74,-112.444C1338.18,-103.557 1304.24,-89.5632 1279.71,-79.4514"/>
<polygon fill="midnightblue" stroke="midnightblue" points="1280.74,-76.0917 1270.16,-75.5164 1278.07,-82.5634 1280.74,-76.0917"/>
</g>
<!-- Node12 -->
<g id="node12" class="node"><title>Node12</title>
<polygon fill="white" stroke="#bfbfbf" points="1331.5,-56.5 1331.5,-75.5 1429.5,-75.5 1429.5,-56.5 1331.5,-56.5"/>
<text text-anchor="middle" x="1380.5" y="-63.5" font-family="Helvetica,sans-Serif" font-size="10.00">QtWidgets/QLabel</text>
</g>
<!-- Node1&#45;&gt;Node12 -->
<g id="edge11" class="edge"><title>Node1&#45;&gt;Node12</title>
<path fill="none" stroke="midnightblue" d="M1380.5,-112.083C1380.5,-105.006 1380.5,-94.8611 1380.5,-85.9865"/>
<polygon fill="midnightblue" stroke="midnightblue" points="1384,-85.751 1380.5,-75.7511 1377,-85.7511 1384,-85.751"/>
</g>
<!-- Node13 -->
<g id="node13" class="node"><title>Node13</title>
<polygon fill="white" stroke="#bfbfbf" points="1447.5,-56.5 1447.5,-75.5 1557.5,-75.5 1557.5,-56.5 1447.5,-56.5"/>
<text text-anchor="middle" x="1502.5" y="-63.5" font-family="Helvetica,sans-Serif" font-size="10.00">QtWidgets/QLineEdit</text>
</g>
<!-- Node1&#45;&gt;Node13 -->
<g id="edge12" class="edge"><title>Node1&#45;&gt;Node13</title>
<path fill="none" stroke="midnightblue" d="M1399.83,-112.444C1419.82,-103.596 1451.24,-89.6875 1474.06,-79.5865"/>
<polygon fill="midnightblue" stroke="midnightblue" points="1475.53,-82.7645 1483.26,-75.5164 1472.7,-76.3635 1475.53,-82.7645"/>
</g>
<!-- Node14 -->
<g id="node14" class="node"><title>Node14</title>
<polygon fill="white" stroke="#bfbfbf" points="1576,-56.5 1576,-75.5 1701,-75.5 1701,-56.5 1576,-56.5"/>
<text text-anchor="middle" x="1638.5" y="-63.5" font-family="Helvetica,sans-Serif" font-size="10.00">QtWidgets/QPushButton</text>
</g>
<!-- Node1&#45;&gt;Node14 -->
<g id="edge13" class="edge"><title>Node1&#45;&gt;Node14</title>
<path fill="none" stroke="midnightblue" d="M1421.38,-112.444C1466.48,-103.004 1539.11,-87.802 1587.8,-77.6111"/>
<polygon fill="midnightblue" stroke="midnightblue" points="1588.74,-80.9909 1597.81,-75.5164 1587.31,-74.1394 1588.74,-80.9909"/>
</g>
<!-- Node15 -->
<g id="node15" class="node"><title>Node15</title>
<polygon fill="white" stroke="#bfbfbf" points="1719,-56.5 1719,-75.5 1818,-75.5 1818,-56.5 1719,-56.5"/>
<text text-anchor="middle" x="1768.5" y="-63.5" font-family="Helvetica,sans-Serif" font-size="10.00">QtWidgets/QSlider</text>
</g>
<!-- Node1&#45;&gt;Node15 -->
<g id="edge14" class="edge"><title>Node1&#45;&gt;Node15</title>
<path fill="none" stroke="midnightblue" d="M1445.67,-112.473C1510.06,-103.967 1611.64,-90.3281 1708.84,-76.2229"/>
<polygon fill="midnightblue" stroke="midnightblue" points="1709.44,-79.6718 1718.83,-74.7682 1708.44,-72.7448 1709.44,-79.6718"/>
</g>
<!-- Node16 -->
<g id="node16" class="node"><title>Node16</title>
<polygon fill="white" stroke="#bfbfbf" points="1836,-56.5 1836,-75.5 1961,-75.5 1961,-56.5 1836,-56.5"/>
<text text-anchor="middle" x="1898.5" y="-63.5" font-family="Helvetica,sans-Serif" font-size="10.00">QtWidgets/QSpacerItem</text>
</g>
<!-- Node1&#45;&gt;Node16 -->
<g id="edge15" class="edge"><title>Node1&#45;&gt;Node16</title>
<path fill="none" stroke="midnightblue" d="M1451.78,-114.395C1537.9,-106.287 1687.45,-91.7963 1825.45,-76.2101"/>
<polygon fill="midnightblue" stroke="midnightblue" points="1826.25,-79.6424 1835.79,-75.038 1825.46,-72.687 1826.25,-79.6424"/>
</g>
<!-- Node17 -->
<g id="node17" class="node"><title>Node17</title>
<polygon fill="white" stroke="#bfbfbf" points="1979.5,-56.5 1979.5,-75.5 2101.5,-75.5 2101.5,-56.5 1979.5,-56.5"/>
<text text-anchor="middle" x="2040.5" y="-63.5" font-family="Helvetica,sans-Serif" font-size="10.00">QtWidgets/QTabWidget</text>
</g>
<!-- Node1&#45;&gt;Node17 -->
<g id="edge16" class="edge"><title>Node1&#45;&gt;Node17</title>
<path fill="none" stroke="midnightblue" d="M1451.9,-116.751C1561.06,-109.989 1776.23,-95.6173 1969.38,-76.0644"/>
<polygon fill="midnightblue" stroke="midnightblue" points="1969.84,-79.5356 1979.44,-75.0398 1969.13,-72.5717 1969.84,-79.5356"/>
</g>
<!-- Node18 -->
<g id="node18" class="node"><title>Node18</title>
<polygon fill="white" stroke="#bfbfbf" points="2119.5,-56.5 2119.5,-75.5 2239.5,-75.5 2239.5,-56.5 2119.5,-56.5"/>
<text text-anchor="middle" x="2179.5" y="-63.5" font-family="Helvetica,sans-Serif" font-size="10.00">QtWidgets/QTableView</text>
</g>
<!-- Node1&#45;&gt;Node18 -->
<g id="edge17" class="edge"><title>Node1&#45;&gt;Node18</title>
<path fill="none" stroke="midnightblue" d="M1451.61,-118.228C1580.51,-112.848 1861.58,-99.4997 2109.05,-76.0753"/>
<polygon fill="midnightblue" stroke="midnightblue" points="2109.69,-79.5294 2119.32,-75.0954 2109.03,-72.561 2109.69,-79.5294"/>
</g>
<!-- Node19 -->
<g id="node19" class="node"><title>Node19</title>
<polygon fill="white" stroke="#bfbfbf" points="2257.5,-56.5 2257.5,-75.5 2367.5,-75.5 2367.5,-56.5 2257.5,-56.5"/>
<text text-anchor="middle" x="2312.5" y="-63.5" font-family="Helvetica,sans-Serif" font-size="10.00">QtWidgets/QTextEdit</text>
</g>
<!-- Node1&#45;&gt;Node19 -->
<g id="edge18" class="edge"><title>Node1&#45;&gt;Node19</title>
<path fill="none" stroke="midnightblue" d="M1451.54,-119.431C1598.23,-115.733 1945.43,-104.602 2247.12,-76.0448"/>
<polygon fill="midnightblue" stroke="midnightblue" points="2247.76,-79.4997 2257.38,-75.0649 2247.09,-72.5314 2247.76,-79.4997"/>
</g>
<!-- Node20 -->
<g id="node20" class="node"><title>Node20</title>
<polygon fill="white" stroke="#bfbfbf" points="2385.5,-56.5 2385.5,-75.5 2513.5,-75.5 2513.5,-56.5 2385.5,-56.5"/>
<text text-anchor="middle" x="2449.5" y="-63.5" font-family="Helvetica,sans-Serif" font-size="10.00">QtWidgets/QVBoxLayout</text>
</g>
<!-- Node1&#45;&gt;Node20 -->
<g id="edge19" class="edge"><title>Node1&#45;&gt;Node20</title>
<path fill="none" stroke="midnightblue" d="M1451.57,-119.68C1613.52,-116.262 2022.57,-105.316 2375.28,-76.033"/>
<polygon fill="midnightblue" stroke="midnightblue" points="2375.76,-79.5049 2385.44,-75.1834 2375.18,-72.5293 2375.76,-79.5049"/>
</g>
<!-- Node21 -->
<g id="node21" class="node"><title>Node21</title>
<polygon fill="white" stroke="#bfbfbf" points="2532,-56.5 2532,-75.5 2637,-75.5 2637,-56.5 2532,-56.5"/>
<text text-anchor="middle" x="2584.5" y="-63.5" font-family="Helvetica,sans-Serif" font-size="10.00">QtWidgets/QWidget</text>
</g>
<!-- Node1&#45;&gt;Node21 -->
<g id="edge20" class="edge"><title>Node1&#45;&gt;Node21</title>
<path fill="none" stroke="midnightblue" d="M1451.83,-120.782C1630.34,-119.678 2110.86,-113.266 2521.78,-75.9518"/>
<polygon fill="midnightblue" stroke="midnightblue" points="2522.14,-79.4336 2531.78,-75.0364 2521.5,-72.4628 2522.14,-79.4336"/>
</g>
<!-- Node22 -->
<g id="node22" class="node"><title>Node22</title>
<g id="a_node22"><a xlink:href="trafficgraphwidget_8h.html" target="_top" xlink:title="trafficgraphwidget.h">
<polygon fill="white" stroke="black" points="2655.5,-56.5 2655.5,-75.5 2759.5,-75.5 2759.5,-56.5 2655.5,-56.5"/>
<text text-anchor="middle" x="2707.5" y="-63.5" font-family="Helvetica,sans-Serif" font-size="10.00">trafficgraphwidget.h</text>
</a>
</g>
</g>
<!-- Node1&#45;&gt;Node22 -->
<g id="edge21" class="edge"><title>Node1&#45;&gt;Node22</title>
<path fill="none" stroke="midnightblue" d="M1451.71,-121.233C1643.13,-121.265 2184.84,-117.456 2645.13,-76.0137"/>
<polygon fill="midnightblue" stroke="midnightblue" points="2645.66,-79.4799 2655.3,-75.0902 2645.03,-72.5085 2645.66,-79.4799"/>
</g>
<!-- Node23 -->
<g id="node23" class="node"><title>Node23</title>
<polygon fill="white" stroke="#bfbfbf" points="2643,-0.5 2643,-19.5 2698,-19.5 2698,-0.5 2643,-0.5"/>
<text text-anchor="middle" x="2670.5" y="-7.5" font-family="Helvetica,sans-Serif" font-size="10.00">QWidget</text>
</g>
<!-- Node22&#45;&gt;Node23 -->
<g id="edge22" class="edge"><title>Node22&#45;&gt;Node23</title>
<path fill="none" stroke="midnightblue" d="M2701.39,-56.083C2696.22,-48.5341 2688.65,-37.4948 2682.31,-28.2298"/>
<polygon fill="midnightblue" stroke="midnightblue" points="2685.04,-26.0221 2676.5,-19.7511 2679.26,-29.9787 2685.04,-26.0221"/>
</g>
<!-- Node24 -->
<g id="node24" class="node"><title>Node24</title>
<polygon fill="white" stroke="#bfbfbf" points="2716.5,-0.5 2716.5,-19.5 2770.5,-19.5 2770.5,-0.5 2716.5,-0.5"/>
<text text-anchor="middle" x="2743.5" y="-7.5" font-family="Helvetica,sans-Serif" font-size="10.00">QQueue</text>
</g>
<!-- Node22&#45;&gt;Node24 -->
<g id="edge23" class="edge"><title>Node22&#45;&gt;Node24</title>
<path fill="none" stroke="midnightblue" d="M2713.44,-56.083C2718.48,-48.5341 2725.84,-37.4948 2732.01,-28.2298"/>
<polygon fill="midnightblue" stroke="midnightblue" points="2735.03,-30.0131 2737.67,-19.7511 2729.21,-26.1301 2735.03,-30.0131"/>
</g>
</g>
</svg>
