<?xml version="1.0" encoding="UTF-8" standalone="no"?>
<!DOCTYPE svg PUBLIC "-//W3C//DTD SVG 1.1//EN"
 "http://www.w3.org/Graphics/SVG/1.1/DTD/svg11.dtd">
<!-- Generated by graphviz version 2.38.0 (20140413.2041)
 -->
<!-- Title: HexDigit Pages: 1 -->
<svg width="952pt" height="660pt"
 viewBox="0.00 0.00 952.00 660.00" xmlns="http://www.w3.org/2000/svg" xmlns:xlink="http://www.w3.org/1999/xlink">
<g id="graph0" class="graph" transform="scale(1 1) rotate(0) translate(4 656)">
<title>HexDigit</title>
<polygon fill="white" stroke="none" points="-4,4 -4,-656 948,-656 948,4 -4,4"/>
<!-- Node1 -->
<g id="node1" class="node"><title>Node1</title>
<polygon fill="#bfbfbf" stroke="black" points="0,-373.5 0,-392.5 54,-392.5 54,-373.5 0,-373.5"/>
<text text-anchor="middle" x="27" y="-380.5" font-family="Helvetica,sans-Serif" font-size="10.00">HexDigit</text>
</g>
<!-- Node2 -->
<g id="node2" class="node"><title>Node2</title>
<g id="a_node2"><a xlink:href="class_c_big_num.html#a9d4f7c42f141e45410af96e6804c54fe" target="_top" xlink:title="CBigNum::SetHex">
<polygon fill="white" stroke="black" points="90,-487.5 90,-506.5 188,-506.5 188,-487.5 90,-487.5"/>
<text text-anchor="middle" x="139" y="-494.5" font-family="Helvetica,sans-Serif" font-size="10.00">CBigNum::SetHex</text>
</a>
</g>
</g>
<!-- Node1&#45;&gt;Node2 -->
<g id="edge1" class="edge"><title>Node1&#45;&gt;Node2</title>
<path fill="none" stroke="midnightblue" d="M36.0829,-402.027C45.9646,-423.223 64.5667,-457.233 90,-478 94.6512,-481.798 100.156,-484.909 105.748,-487.433"/>
<polygon fill="midnightblue" stroke="midnightblue" points="39.2184,-400.465 31.9406,-392.765 32.8283,-403.323 39.2184,-400.465"/>
</g>
<!-- Node3 -->
<g id="node3" class="node"><title>Node3</title>
<g id="a_node3"><a xlink:href="classbase__uint.html#ade1a897fac931f28f54998c92c797228" target="_top" xlink:title="base_uint::SetHex">
<polygon fill="white" stroke="black" points="90,-449.5 90,-468.5 188,-468.5 188,-449.5 90,-449.5"/>
<text text-anchor="middle" x="139" y="-456.5" font-family="Helvetica,sans-Serif" font-size="10.00">base_uint::SetHex</text>
</a>
</g>
</g>
<!-- Node1&#45;&gt;Node3 -->
<g id="edge2" class="edge"><title>Node1&#45;&gt;Node3</title>
<path fill="none" stroke="midnightblue" d="M50.38,-398.463C72.5007,-413.746 105.644,-436.645 124.182,-449.453"/>
<polygon fill="midnightblue" stroke="midnightblue" points="52.1484,-395.43 41.9316,-392.625 48.1694,-401.189 52.1484,-395.43"/>
</g>
<!-- Node17 -->
<g id="node17" class="node"><title>Node17</title>
<g id="a_node17"><a xlink:href="util_8cpp.html#aa4e3553d2b2fe693c106f4296685f75c" target="_top" xlink:title="IsHex">
<polygon fill="white" stroke="black" points="118,-297.5 118,-316.5 160,-316.5 160,-297.5 118,-297.5"/>
<text text-anchor="middle" x="139" y="-304.5" font-family="Helvetica,sans-Serif" font-size="10.00">IsHex</text>
</a>
</g>
</g>
<!-- Node1&#45;&gt;Node17 -->
<g id="edge16" class="edge"><title>Node1&#45;&gt;Node17</title>
<path fill="none" stroke="midnightblue" d="M50.38,-367.537C72.5007,-352.254 105.644,-329.355 124.182,-316.547"/>
<polygon fill="midnightblue" stroke="midnightblue" points="48.1694,-364.811 41.9316,-373.375 52.1484,-370.57 48.1694,-364.811"/>
</g>
<!-- Node28 -->
<g id="node28" class="node"><title>Node28</title>
<g id="a_node28"><a xlink:href="util_8h.html#a5a787187ddd5c52baae692350ec5a2cb" target="_top" xlink:title="ParseHex">
<polygon fill="white" stroke="black" points="109,-164.5 109,-183.5 169,-183.5 169,-164.5 109,-164.5"/>
<text text-anchor="middle" x="139" y="-171.5" font-family="Helvetica,sans-Serif" font-size="10.00">ParseHex</text>
</a>
</g>
</g>
<!-- Node1&#45;&gt;Node28 -->
<g id="edge30" class="edge"><title>Node1&#45;&gt;Node28</title>
<path fill="none" stroke="midnightblue" d="M37.7981,-364.384C60.4785,-321.291 115.949,-215.897 132.958,-183.579"/>
<polygon fill="midnightblue" stroke="midnightblue" points="34.5726,-362.997 33.0123,-373.477 40.767,-366.258 34.5726,-362.997"/>
</g>
<!-- Node4 -->
<g id="node4" class="node"><title>Node4</title>
<g id="a_node4"><a xlink:href="class_client_model.html#a16758b18ded91ceba202d6023cad4b51" target="_top" xlink:title="ClientModel::updateAlert">
<polygon fill="white" stroke="black" points="235.5,-556.5 235.5,-575.5 361.5,-575.5 361.5,-556.5 235.5,-556.5"/>
<text text-anchor="middle" x="298.5" y="-563.5" font-family="Helvetica,sans-Serif" font-size="10.00">ClientModel::updateAlert</text>
</a>
</g>
</g>
<!-- Node3&#45;&gt;Node4 -->
<g id="edge3" class="edge"><title>Node3&#45;&gt;Node4</title>
<path fill="none" stroke="midnightblue" d="M182.423,-473.675C184.394,-475.001 186.269,-476.44 188,-478 213.697,-501.155 196.919,-525.481 224,-547 228.85,-550.854 234.396,-553.933 240.22,-556.392"/>
<polygon fill="midnightblue" stroke="midnightblue" points="183.741,-470.401 173.309,-468.552 180.312,-476.503 183.741,-470.401"/>
</g>
<!-- Node5 -->
<g id="node5" class="node"><title>Node5</title>
<g id="a_node5"><a xlink:href="class_transaction_table_model.html#abb93b1812f27622f67aed0302bc90ee6" target="_top" xlink:title="TransactionTableModel\l::updateTransaction">
<polygon fill="white" stroke="black" points="238,-507 238,-537 359,-537 359,-507 238,-507"/>
<text text-anchor="start" x="246" y="-525" font-family="Helvetica,sans-Serif" font-size="10.00">TransactionTableModel</text>
<text text-anchor="middle" x="298.5" y="-514" font-family="Helvetica,sans-Serif" font-size="10.00">::updateTransaction</text>
</a>
</g>
</g>
<!-- Node3&#45;&gt;Node5 -->
<g id="edge4" class="edge"><title>Node3&#45;&gt;Node5</title>
<path fill="none" stroke="midnightblue" d="M175.088,-472.376C179.466,-474.195 183.858,-476.094 188,-478 204.435,-485.563 207.384,-489.843 224,-497 232.17,-500.519 241.013,-503.886 249.638,-506.944"/>
<polygon fill="midnightblue" stroke="midnightblue" points="176.21,-469.054 165.627,-468.549 173.585,-475.543 176.21,-469.054"/>
</g>
<!-- Node7 -->
<g id="node7" class="node"><title>Node7</title>
<g id="a_node7"><a xlink:href="rpcserver_8cpp.html#ae00da5fd5abdf11d125f98190e599194" target="_top" xlink:title="ParseHashV">
<polygon fill="white" stroke="black" points="262,-354.5 262,-373.5 335,-373.5 335,-354.5 262,-354.5"/>
<text text-anchor="middle" x="298.5" y="-361.5" font-family="Helvetica,sans-Serif" font-size="10.00">ParseHashV</text>
</a>
</g>
</g>
<!-- Node3&#45;&gt;Node7 -->
<g id="edge6" class="edge"><title>Node3&#45;&gt;Node7</title>
<path fill="none" stroke="midnightblue" d="M154.44,-441.756C169.906,-424.39 196.028,-398.071 224,-383 235.603,-376.748 249.356,-372.482 261.809,-369.603"/>
<polygon fill="midnightblue" stroke="midnightblue" points="151.653,-439.627 147.742,-449.474 156.94,-444.216 151.653,-439.627"/>
</g>
<!-- Node12 -->
<g id="node12" class="node"><title>Node12</title>
<g id="a_node12"><a xlink:href="rpcwallet_8cpp.html#a53cf4975a89f414ef3bd180f6b4773cd" target="_top" xlink:title="listsinceblock">
<polygon fill="white" stroke="black" points="261,-468.5 261,-487.5 336,-487.5 336,-468.5 261,-468.5"/>
<text text-anchor="middle" x="298.5" y="-475.5" font-family="Helvetica,sans-Serif" font-size="10.00">listsinceblock</text>
</a>
</g>
</g>
<!-- Node3&#45;&gt;Node12 -->
<g id="edge11" class="edge"><title>Node3&#45;&gt;Node12</title>
<path fill="none" stroke="midnightblue" d="M198.221,-466.024C219.217,-468.556 242.306,-471.342 260.93,-473.588"/>
<polygon fill="midnightblue" stroke="midnightblue" points="198.458,-462.527 188.111,-464.804 197.62,-469.476 198.458,-462.527"/>
</g>
<!-- Node13 -->
<g id="node13" class="node"><title>Node13</title>
<g id="a_node13"><a xlink:href="rpcwallet_8cpp.html#a845c15a1402787fcf2cc021111ea89f5" target="_top" xlink:title="gettransaction">
<polygon fill="white" stroke="black" points="259,-430.5 259,-449.5 338,-449.5 338,-430.5 259,-430.5"/>
<text text-anchor="middle" x="298.5" y="-437.5" font-family="Helvetica,sans-Serif" font-size="10.00">gettransaction</text>
</a>
</g>
</g>
<!-- Node3&#45;&gt;Node13 -->
<g id="edge12" class="edge"><title>Node3&#45;&gt;Node13</title>
<path fill="none" stroke="midnightblue" d="M198.18,-451.981C218.433,-449.538 240.637,-446.86 258.905,-444.656"/>
<polygon fill="midnightblue" stroke="midnightblue" points="197.62,-448.524 188.111,-453.196 198.458,-455.473 197.62,-448.524"/>
</g>
<!-- Node14 -->
<g id="node14" class="node"><title>Node14</title>
<g id="a_node14"><a xlink:href="classbase__uint.html#afe3600e6ae4e9f69e1c036581a2716c8" target="_top" xlink:title="base_uint::SetHex">
<polygon fill="white" stroke="black" points="249.5,-392.5 249.5,-411.5 347.5,-411.5 347.5,-392.5 249.5,-392.5"/>
<text text-anchor="middle" x="298.5" y="-399.5" font-family="Helvetica,sans-Serif" font-size="10.00">base_uint::SetHex</text>
</a>
</g>
</g>
<!-- Node3&#45;&gt;Node14 -->
<g id="edge13" class="edge"><title>Node3&#45;&gt;Node14</title>
<path fill="none" stroke="midnightblue" d="M168.001,-444.871C184.103,-437.119 204.873,-427.742 224,-421 234.068,-417.451 245.124,-414.246 255.533,-411.522"/>
<polygon fill="midnightblue" stroke="midnightblue" points="166.082,-441.913 158.635,-449.449 169.156,-448.202 166.082,-441.913"/>
</g>
<!-- Node15 -->
<g id="node15" class="node"><title>Node15</title>
<g id="a_node15"><a xlink:href="classuint160.html#a17be565c999f678e47d12e694446e0c4" target="_top" xlink:title="uint160::uint160">
<polygon fill="white" stroke="black" points="254.5,-632.5 254.5,-651.5 342.5,-651.5 342.5,-632.5 254.5,-632.5"/>
<text text-anchor="middle" x="298.5" y="-639.5" font-family="Helvetica,sans-Serif" font-size="10.00">uint160::uint160</text>
</a>
</g>
</g>
<!-- Node3&#45;&gt;Node15 -->
<g id="edge14" class="edge"><title>Node3&#45;&gt;Node15</title>
<path fill="none" stroke="midnightblue" d="M184.669,-474.672C185.852,-475.711 186.967,-476.819 188,-478 231.715,-527.981 177.274,-575.822 224,-623 232.069,-631.147 243.142,-635.951 254.246,-638.743"/>
<polygon fill="midnightblue" stroke="midnightblue" points="186.287,-471.536 176.064,-468.753 182.32,-477.304 186.287,-471.536"/>
</g>
<!-- Node16 -->
<g id="node16" class="node"><title>Node16</title>
<g id="a_node16"><a xlink:href="classuint256.html#a4078e4911984722778f19581865462b9" target="_top" xlink:title="uint256::uint256">
<polygon fill="white" stroke="black" points="254.5,-594.5 254.5,-613.5 342.5,-613.5 342.5,-594.5 254.5,-594.5"/>
<text text-anchor="middle" x="298.5" y="-601.5" font-family="Helvetica,sans-Serif" font-size="10.00">uint256::uint256</text>
</a>
</g>
</g>
<!-- Node3&#45;&gt;Node16 -->
<g id="edge15" class="edge"><title>Node3&#45;&gt;Node16</title>
<path fill="none" stroke="midnightblue" d="M184.034,-474.366C185.44,-475.494 186.77,-476.704 188,-478 222.538,-514.396 187.274,-550.813 224,-585 232.297,-592.723 243.314,-597.401 254.287,-600.209"/>
<polygon fill="midnightblue" stroke="midnightblue" points="185.607,-471.216 175.303,-468.749 181.82,-477.103 185.607,-471.216"/>
</g>
<!-- Node6 -->
<g id="node6" class="node"><title>Node6</title>
<g id="a_node6"><a xlink:href="class_wallet_model.html#ad63ff7c16477dc5795c95b56593f2e9f" target="_top" xlink:title="WalletModel::updateTransaction">
<polygon fill="white" stroke="black" points="409,-512.5 409,-531.5 569,-531.5 569,-512.5 409,-512.5"/>
<text text-anchor="middle" x="489" y="-519.5" font-family="Helvetica,sans-Serif" font-size="10.00">WalletModel::updateTransaction</text>
</a>
</g>
</g>
<!-- Node5&#45;&gt;Node6 -->
<g id="edge5" class="edge"><title>Node5&#45;&gt;Node6</title>
<path fill="none" stroke="midnightblue" d="M369.288,-522C382.137,-522 395.638,-522 408.742,-522"/>
<polygon fill="midnightblue" stroke="midnightblue" points="369.143,-518.5 359.143,-522 369.143,-525.5 369.143,-518.5"/>
</g>
<!-- Node8 -->
<g id="node8" class="node"><title>Node8</title>
<g id="a_node8"><a xlink:href="rpcrawtransaction_8cpp.html#a12e1b8a05d99d1544e5343c2282cc55a" target="_top" xlink:title="getrawtransaction">
<polygon fill="white" stroke="black" points="441.5,-354.5 441.5,-373.5 536.5,-373.5 536.5,-354.5 441.5,-354.5"/>
<text text-anchor="middle" x="489" y="-361.5" font-family="Helvetica,sans-Serif" font-size="10.00">getrawtransaction</text>
</a>
</g>
</g>
<!-- Node7&#45;&gt;Node8 -->
<g id="edge7" class="edge"><title>Node7&#45;&gt;Node8</title>
<path fill="none" stroke="midnightblue" d="M345.685,-364C374.706,-364 412.028,-364 441.171,-364"/>
<polygon fill="midnightblue" stroke="midnightblue" points="345.399,-360.5 335.399,-364 345.399,-367.5 345.399,-360.5"/>
</g>
<!-- Node9 -->
<g id="node9" class="node"><title>Node9</title>
<g id="a_node9"><a xlink:href="rpcserver_8cpp.html#abe180100a0316998cd54a31cad5fabc7" target="_top" xlink:title="ParseHashO">
<polygon fill="white" stroke="black" points="452,-392.5 452,-411.5 526,-411.5 526,-392.5 452,-392.5"/>
<text text-anchor="middle" x="489" y="-399.5" font-family="Helvetica,sans-Serif" font-size="10.00">ParseHashO</text>
</a>
</g>
</g>
<!-- Node7&#45;&gt;Node9 -->
<g id="edge8" class="edge"><title>Node7&#45;&gt;Node9</title>
<path fill="none" stroke="midnightblue" d="M345.626,-373.299C378.365,-379.898 421.69,-388.633 451.914,-394.725"/>
<polygon fill="midnightblue" stroke="midnightblue" points="345.894,-369.782 335.399,-371.237 344.51,-376.644 345.894,-369.782"/>
</g>
<!-- Node10 -->
<g id="node10" class="node"><title>Node10</title>
<g id="a_node10"><a xlink:href="rpcrawtransaction_8cpp.html#a7924d2aa3d68d890b82773445e0d949e" target="_top" xlink:title="createrawtransaction">
<polygon fill="white" stroke="black" points="605,-392.5 605,-411.5 714,-411.5 714,-392.5 605,-392.5"/>
<text text-anchor="middle" x="659.5" y="-399.5" font-family="Helvetica,sans-Serif" font-size="10.00">createrawtransaction</text>
</a>
</g>
</g>
<!-- Node9&#45;&gt;Node10 -->
<g id="edge9" class="edge"><title>Node9&#45;&gt;Node10</title>
<path fill="none" stroke="midnightblue" d="M536.208,-402C557.433,-402 582.737,-402 604.805,-402"/>
<polygon fill="midnightblue" stroke="midnightblue" points="536.148,-398.5 526.147,-402 536.147,-405.5 536.148,-398.5"/>
</g>
<!-- Node11 -->
<g id="node11" class="node"><title>Node11</title>
<g id="a_node11"><a xlink:href="rpcrawtransaction_8cpp.html#aa0d151e35c0ad5ec82df451a833aeadb" target="_top" xlink:title="signrawtransaction">
<polygon fill="white" stroke="black" points="609.5,-240.5 609.5,-259.5 709.5,-259.5 709.5,-240.5 609.5,-240.5"/>
<text text-anchor="middle" x="659.5" y="-247.5" font-family="Helvetica,sans-Serif" font-size="10.00">signrawtransaction</text>
</a>
</g>
</g>
<!-- Node9&#45;&gt;Node11 -->
<g id="edge10" class="edge"><title>Node9&#45;&gt;Node11</title>
<path fill="none" stroke="midnightblue" d="M536.08,-396.904C547.551,-394.082 559.323,-389.724 569,-383 615.855,-350.444 645.061,-284.742 654.838,-259.856"/>
<polygon fill="midnightblue" stroke="midnightblue" points="535.196,-393.513 526.138,-399.008 536.646,-400.361 535.196,-393.513"/>
</g>
<!-- Node17&#45;&gt;Node7 -->
<g id="edge21" class="edge"><title>Node17&#45;&gt;Node7</title>
<path fill="none" stroke="midnightblue" d="M168.001,-321.129C184.103,-328.881 204.873,-338.258 224,-345 236.182,-349.294 249.808,-353.085 261.987,-356.128"/>
<polygon fill="midnightblue" stroke="midnightblue" points="169.156,-317.798 158.635,-316.551 166.082,-324.087 169.156,-317.798"/>
</g>
<!-- Node18 -->
<g id="node18" class="node"><title>Node18</title>
<g id="a_node18"><a xlink:href="rpcdump_8cpp.html#a457bc572859c8265c72a0afd1a6db56c" target="_top" xlink:title="importaddress">
<polygon fill="white" stroke="black" points="258.5,-278.5 258.5,-297.5 338.5,-297.5 338.5,-278.5 258.5,-278.5"/>
<text text-anchor="middle" x="298.5" y="-285.5" font-family="Helvetica,sans-Serif" font-size="10.00">importaddress</text>
</a>
</g>
</g>
<!-- Node17&#45;&gt;Node18 -->
<g id="edge17" class="edge"><title>Node17&#45;&gt;Node18</title>
<path fill="none" stroke="midnightblue" d="M170.288,-303.346C195.326,-300.326 231.058,-296.015 258.28,-292.731"/>
<polygon fill="midnightblue" stroke="midnightblue" points="169.777,-299.882 160.268,-304.555 170.615,-306.832 169.777,-299.882"/>
</g>
<!-- Node19 -->
<g id="node19" class="node"><title>Node19</title>
<g id="a_node19"><a xlink:href="rpcwallet_8cpp.html#aa9b91e060b2d18fffb3b57a679441e68" target="_top" xlink:title="_createmultisig_redeemScript">
<polygon fill="white" stroke="black" points="224,-240.5 224,-259.5 373,-259.5 373,-240.5 224,-240.5"/>
<text text-anchor="middle" x="298.5" y="-247.5" font-family="Helvetica,sans-Serif" font-size="10.00">_createmultisig_redeemScript</text>
</a>
</g>
</g>
<!-- Node17&#45;&gt;Node19 -->
<g id="edge18" class="edge"><title>Node17&#45;&gt;Node19</title>
<path fill="none" stroke="midnightblue" d="M168.001,-292.871C184.103,-285.119 204.873,-275.742 224,-269 234.068,-265.451 245.124,-262.246 255.533,-259.522"/>
<polygon fill="midnightblue" stroke="midnightblue" points="166.082,-289.913 158.635,-297.449 169.156,-296.202 166.082,-289.913"/>
</g>
<!-- Node22 -->
<g id="node22" class="node"><title>Node22</title>
<g id="a_node22"><a xlink:href="rpcserver_8cpp.html#a6912ee7b40ffee24ad6d599b3667d4c8" target="_top" xlink:title="ParseHexV">
<polygon fill="white" stroke="black" points="265,-202.5 265,-221.5 332,-221.5 332,-202.5 265,-202.5"/>
<text text-anchor="middle" x="298.5" y="-209.5" font-family="Helvetica,sans-Serif" font-size="10.00">ParseHexV</text>
</a>
</g>
</g>
<!-- Node17&#45;&gt;Node22 -->
<g id="edge22" class="edge"><title>Node17&#45;&gt;Node22</title>
<path fill="none" stroke="midnightblue" d="M154.44,-289.756C169.906,-272.39 196.028,-246.071 224,-231 236.531,-224.248 251.57,-219.812 264.772,-216.939"/>
<polygon fill="midnightblue" stroke="midnightblue" points="151.653,-287.627 147.742,-297.474 156.94,-292.216 151.653,-287.627"/>
</g>
<!-- Node27 -->
<g id="node27" class="node"><title>Node27</title>
<g id="a_node27"><a xlink:href="rpcwallet_8cpp.html#a039075982abdf78052b40886b5b3e2cf" target="_top" xlink:title="lockunspent">
<polygon fill="white" stroke="black" points="263.5,-316.5 263.5,-335.5 333.5,-335.5 333.5,-316.5 263.5,-316.5"/>
<text text-anchor="middle" x="298.5" y="-323.5" font-family="Helvetica,sans-Serif" font-size="10.00">lockunspent</text>
</a>
</g>
</g>
<!-- Node17&#45;&gt;Node27 -->
<g id="edge29" class="edge"><title>Node17&#45;&gt;Node27</title>
<path fill="none" stroke="midnightblue" d="M170.513,-310.681C197.085,-313.886 235.576,-318.53 263.207,-321.863"/>
<polygon fill="midnightblue" stroke="midnightblue" points="170.615,-307.168 160.268,-309.445 169.777,-314.118 170.615,-307.168"/>
</g>
<!-- Node20 -->
<g id="node20" class="node"><title>Node20</title>
<g id="a_node20"><a xlink:href="rpcmisc_8cpp.html#a10f145bcadd06025abb3b065e2fa7a84" target="_top" xlink:title="createmultisig">
<polygon fill="white" stroke="black" points="450,-316.5 450,-335.5 528,-335.5 528,-316.5 450,-316.5"/>
<text text-anchor="middle" x="489" y="-323.5" font-family="Helvetica,sans-Serif" font-size="10.00">createmultisig</text>
</a>
</g>
</g>
<!-- Node19&#45;&gt;Node20 -->
<g id="edge19" class="edge"><title>Node19&#45;&gt;Node20</title>
<path fill="none" stroke="midnightblue" d="M361.263,-263.165C365.342,-264.881 369.296,-266.816 373,-269 393.041,-280.815 388.86,-295.355 409,-307 421.334,-314.131 436.233,-318.593 449.752,-321.382"/>
<polygon fill="midnightblue" stroke="midnightblue" points="362.166,-259.766 351.573,-259.549 359.718,-266.325 362.166,-259.766"/>
</g>
<!-- Node21 -->
<g id="node21" class="node"><title>Node21</title>
<g id="a_node21"><a xlink:href="rpcwallet_8cpp.html#a01e8a83cbd4209f10c71719383d7ca2d" target="_top" xlink:title="addmultisigaddress">
<polygon fill="white" stroke="black" points="437.5,-278.5 437.5,-297.5 540.5,-297.5 540.5,-278.5 437.5,-278.5"/>
<text text-anchor="middle" x="489" y="-285.5" font-family="Helvetica,sans-Serif" font-size="10.00">addmultisigaddress</text>
</a>
</g>
</g>
<!-- Node19&#45;&gt;Node21 -->
<g id="edge20" class="edge"><title>Node19&#45;&gt;Node21</title>
<path fill="none" stroke="midnightblue" d="M357.089,-261.61C383.898,-267.014 415.395,-273.364 440.776,-278.48"/>
<polygon fill="midnightblue" stroke="midnightblue" points="357.561,-258.134 347.067,-259.589 356.178,-264.996 357.561,-258.134"/>
</g>
<!-- Node22&#45;&gt;Node11 -->
<g id="edge25" class="edge"><title>Node22&#45;&gt;Node11</title>
<path fill="none" stroke="midnightblue" d="M342.544,-220.45C362.665,-224.148 386.989,-228.259 409,-231 478.189,-239.617 558.692,-244.897 609.127,-247.638"/>
<polygon fill="midnightblue" stroke="midnightblue" points="342.912,-216.959 332.44,-218.564 341.628,-223.84 342.912,-216.959"/>
</g>
<!-- Node23 -->
<g id="node23" class="node"><title>Node23</title>
<g id="a_node23"><a xlink:href="rpcrawtransaction_8cpp.html#a6775c600b1bfdbb22f38e5f1cd27cfea" target="_top" xlink:title="decoderawtransaction">
<polygon fill="white" stroke="black" points="432,-164.5 432,-183.5 546,-183.5 546,-164.5 432,-164.5"/>
<text text-anchor="middle" x="489" y="-171.5" font-family="Helvetica,sans-Serif" font-size="10.00">decoderawtransaction</text>
</a>
</g>
</g>
<!-- Node22&#45;&gt;Node23 -->
<g id="edge23" class="edge"><title>Node22&#45;&gt;Node23</title>
<path fill="none" stroke="midnightblue" d="M342.272,-203.378C371.582,-197.469 410.474,-189.629 440.707,-183.534"/>
<polygon fill="midnightblue" stroke="midnightblue" points="341.445,-199.974 332.334,-205.381 342.829,-206.836 341.445,-199.974"/>
</g>
<!-- Node24 -->
<g id="node24" class="node"><title>Node24</title>
<g id="a_node24"><a xlink:href="rpcrawtransaction_8cpp.html#a342172992e2fa92490e8d83c2e95e87e" target="_top" xlink:title="decodescript">
<polygon fill="white" stroke="black" points="452.5,-126.5 452.5,-145.5 525.5,-145.5 525.5,-126.5 452.5,-126.5"/>
<text text-anchor="middle" x="489" y="-133.5" font-family="Helvetica,sans-Serif" font-size="10.00">decodescript</text>
</a>
</g>
</g>
<!-- Node22&#45;&gt;Node24 -->
<g id="edge24" class="edge"><title>Node22&#45;&gt;Node24</title>
<path fill="none" stroke="midnightblue" d="M342.074,-205.268C352.643,-202.468 363.622,-198.529 373,-193 393.041,-181.185 388.86,-166.645 409,-155 422.067,-147.445 438.012,-142.886 452.146,-140.139"/>
<polygon fill="midnightblue" stroke="midnightblue" points="341.058,-201.911 332.131,-207.617 342.668,-208.723 341.058,-201.911"/>
</g>
<!-- Node25 -->
<g id="node25" class="node"><title>Node25</title>
<g id="a_node25"><a xlink:href="rpcrawtransaction_8cpp.html#ad5aad44f890060f42efb49acf349511e" target="_top" xlink:title="sendrawtransaction">
<polygon fill="white" stroke="black" points="437.5,-88.5 437.5,-107.5 540.5,-107.5 540.5,-88.5 437.5,-88.5"/>
<text text-anchor="middle" x="489" y="-95.5" font-family="Helvetica,sans-Serif" font-size="10.00">sendrawtransaction</text>
</a>
</g>
</g>
<!-- Node22&#45;&gt;Node25 -->
<g id="edge26" class="edge"><title>Node22&#45;&gt;Node25</title>
<path fill="none" stroke="midnightblue" d="M342.226,-207.52C353.167,-204.708 364.289,-200.2 373,-193 401.809,-169.189 379.99,-140.566 409,-117 417.102,-110.418 427.121,-106.054 437.272,-103.175"/>
<polygon fill="midnightblue" stroke="midnightblue" points="341.345,-204.13 332.304,-209.655 342.817,-210.973 341.345,-204.13"/>
</g>
<!-- Node26 -->
<g id="node26" class="node"><title>Node26</title>
<g id="a_node26"><a xlink:href="rpcserver_8cpp.html#a9fa3f8bbbf847269e55b196e13543e16" target="_top" xlink:title="ParseHexO">
<polygon fill="white" stroke="black" points="455,-202.5 455,-221.5 523,-221.5 523,-202.5 455,-202.5"/>
<text text-anchor="middle" x="489" y="-209.5" font-family="Helvetica,sans-Serif" font-size="10.00">ParseHexO</text>
</a>
</g>
</g>
<!-- Node22&#45;&gt;Node26 -->
<g id="edge27" class="edge"><title>Node22&#45;&gt;Node26</title>
<path fill="none" stroke="midnightblue" d="M342.483,-212C376.622,-212 423.66,-212 454.91,-212"/>
<polygon fill="midnightblue" stroke="midnightblue" points="342.334,-208.5 332.334,-212 342.334,-215.5 342.334,-208.5"/>
</g>
<!-- Node26&#45;&gt;Node11 -->
<g id="edge28" class="edge"><title>Node26&#45;&gt;Node11</title>
<path fill="none" stroke="midnightblue" d="M533.082,-221.716C558.638,-227.479 590.896,-234.754 616.296,-240.482"/>
<polygon fill="midnightblue" stroke="midnightblue" points="533.815,-218.293 523.29,-219.508 532.275,-225.122 533.815,-218.293"/>
</g>
<!-- Node28&#45;&gt;Node18 -->
<g id="edge40" class="edge"><title>Node28&#45;&gt;Node18</title>
<path fill="none" stroke="midnightblue" d="M151.301,-192.391C165.561,-214.023 192.116,-249.457 224,-269 234.338,-275.336 246.738,-279.572 258.383,-282.399"/>
<polygon fill="midnightblue" stroke="midnightblue" points="154.137,-190.329 145.801,-183.79 148.24,-194.1 154.137,-190.329"/>
</g>
<!-- Node28&#45;&gt;Node19 -->
<g id="edge42" class="edge"><title>Node28&#45;&gt;Node19</title>
<path fill="none" stroke="midnightblue" d="M159.66,-190.227C175.984,-202.964 200.288,-220.28 224,-231 232.287,-234.746 241.446,-237.853 250.405,-240.394"/>
<polygon fill="midnightblue" stroke="midnightblue" points="161.467,-187.191 151.466,-183.692 157.102,-192.664 161.467,-187.191"/>
</g>
<!-- Node28&#45;&gt;Node22 -->
<g id="edge43" class="edge"><title>Node28&#45;&gt;Node22</title>
<path fill="none" stroke="midnightblue" d="M179.297,-183.481C205.671,-189.844 240.005,-198.128 264.868,-204.127"/>
<polygon fill="midnightblue" stroke="midnightblue" points="179.797,-180.002 169.255,-181.058 178.156,-186.806 179.797,-180.002"/>
</g>
<!-- Node29 -->
<g id="node29" class="node"><title>Node29</title>
<g id="a_node29"><a xlink:href="class_c_main_params.html#ab7dfebf3c4dd5cc0ebdfabe1111056d6" target="_top" xlink:title="CMainParams::CMainParams">
<polygon fill="white" stroke="black" points="224,-126.5 224,-145.5 373,-145.5 373,-126.5 224,-126.5"/>
<text text-anchor="middle" x="298.5" y="-133.5" font-family="Helvetica,sans-Serif" font-size="10.00">CMainParams::CMainParams</text>
</a>
</g>
</g>
<!-- Node28&#45;&gt;Node29 -->
<g id="edge31" class="edge"><title>Node28&#45;&gt;Node29</title>
<path fill="none" stroke="midnightblue" d="M179.115,-164.563C203.166,-158.76 233.887,-151.348 258.006,-145.529"/>
<polygon fill="midnightblue" stroke="midnightblue" points="178.156,-161.194 169.255,-166.942 179.797,-167.998 178.156,-161.194"/>
</g>
<!-- Node30 -->
<g id="node30" class="node"><title>Node30</title>
<g id="a_node30"><a xlink:href="class_c_test_net_params.html#abbd5f6e3e94bc8abf99a5dfaff75374a" target="_top" xlink:title="CTestNetParams::CTestNet\lParams">
<polygon fill="white" stroke="black" points="228,-77 228,-107 369,-107 369,-77 228,-77"/>
<text text-anchor="start" x="236" y="-95" font-family="Helvetica,sans-Serif" font-size="10.00">CTestNetParams::CTestNet</text>
<text text-anchor="middle" x="298.5" y="-84" font-family="Helvetica,sans-Serif" font-size="10.00">Params</text>
</a>
</g>
</g>
<!-- Node28&#45;&gt;Node30 -->
<g id="edge32" class="edge"><title>Node28&#45;&gt;Node30</title>
<path fill="none" stroke="midnightblue" d="M160.167,-158.032C176.616,-145.585 200.839,-128.534 224,-117 231.36,-113.335 239.385,-109.997 247.341,-107.039"/>
<polygon fill="midnightblue" stroke="midnightblue" points="157.673,-155.535 151.885,-164.409 161.944,-161.082 157.673,-155.535"/>
</g>
<!-- Node31 -->
<g id="node31" class="node"><title>Node31</title>
<g id="a_node31"><a xlink:href="class_c_d_b_env.html#a08726637bff0809ab9c7c493383a3914" target="_top" xlink:title="CDBEnv::Salvage">
<polygon fill="white" stroke="black" points="250,-38.5 250,-57.5 347,-57.5 347,-38.5 250,-38.5"/>
<text text-anchor="middle" x="298.5" y="-45.5" font-family="Helvetica,sans-Serif" font-size="10.00">CDBEnv::Salvage</text>
</a>
</g>
</g>
<!-- Node28&#45;&gt;Node31 -->
<g id="edge33" class="edge"><title>Node28&#45;&gt;Node31</title>
<path fill="none" stroke="midnightblue" d="M149.54,-155.395C162.887,-131.268 189.428,-89.6059 224,-67 231.722,-61.9509 240.716,-58.2424 249.71,-55.519"/>
<polygon fill="midnightblue" stroke="midnightblue" points="146.421,-153.805 144.788,-164.274 152.593,-157.109 146.421,-153.805"/>
</g>
<!-- Node38 -->
<g id="node38" class="node"><title>Node38</title>
<g id="a_node38"><a xlink:href="rpcmining_8cpp.html#a6fc1aa077add8cb1c74207056616134d" target="_top" xlink:title="submitblock">
<polygon fill="white" stroke="black" points="264,-0.5 264,-19.5 333,-19.5 333,-0.5 264,-0.5"/>
<text text-anchor="middle" x="298.5" y="-7.5" font-family="Helvetica,sans-Serif" font-size="10.00">submitblock</text>
</a>
</g>
</g>
<!-- Node28&#45;&gt;Node38 -->
<g id="edge41" class="edge"><title>Node28&#45;&gt;Node38</title>
<path fill="none" stroke="midnightblue" d="M145.729,-154.776C156.07,-123.48 180.886,-61.731 224,-29 235.442,-20.3133 250.466,-15.5794 263.946,-13.007"/>
<polygon fill="midnightblue" stroke="midnightblue" points="142.339,-153.888 142.669,-164.478 149.015,-155.994 142.339,-153.888"/>
</g>
<!-- Node39 -->
<g id="node39" class="node"><title>Node39</title>
<g id="a_node39"><a xlink:href="util_8cpp.html#a64d56c5bed7672ee006ff2c29f3554ee" target="_top" xlink:title="ParseHex">
<polygon fill="white" stroke="black" points="268.5,-164.5 268.5,-183.5 328.5,-183.5 328.5,-164.5 268.5,-164.5"/>
<text text-anchor="middle" x="298.5" y="-171.5" font-family="Helvetica,sans-Serif" font-size="10.00">ParseHex</text>
</a>
</g>
</g>
<!-- Node28&#45;&gt;Node39 -->
<g id="edge44" class="edge"><title>Node28&#45;&gt;Node39</title>
<path fill="none" stroke="midnightblue" d="M179.379,-174C207.016,-174 243.363,-174 268.401,-174"/>
<polygon fill="midnightblue" stroke="midnightblue" points="179.255,-170.5 169.255,-174 179.255,-177.5 179.255,-170.5"/>
</g>
<!-- Node32 -->
<g id="node32" class="node"><title>Node32</title>
<g id="a_node32"><a xlink:href="class_c_wallet_d_b.html#a3ebeb12f37d9c66512e2bc2903a6854a" target="_top" xlink:title="CWalletDB::Recover">
<polygon fill="white" stroke="black" points="435,-38.5 435,-57.5 543,-57.5 543,-38.5 435,-38.5"/>
<text text-anchor="middle" x="489" y="-45.5" font-family="Helvetica,sans-Serif" font-size="10.00">CWalletDB::Recover</text>
</a>
</g>
</g>
<!-- Node31&#45;&gt;Node32 -->
<g id="edge34" class="edge"><title>Node31&#45;&gt;Node32</title>
<path fill="none" stroke="midnightblue" d="M357.376,-48C382.051,-48 410.655,-48 434.794,-48"/>
<polygon fill="midnightblue" stroke="midnightblue" points="357.067,-44.5001 347.067,-48 357.066,-51.5001 357.067,-44.5001"/>
</g>
<!-- Node33 -->
<g id="node33" class="node"><title>Node33</title>
<g id="a_node33"><a xlink:href="init_8h.html#a1a4c1bfbf6ba1db77e988b89b9cadfd3" target="_top" xlink:title="Initialize anoncoin. ">
<polygon fill="white" stroke="black" points="633,-57.5 633,-76.5 686,-76.5 686,-57.5 633,-57.5"/>
<text text-anchor="middle" x="659.5" y="-64.5" font-family="Helvetica,sans-Serif" font-size="10.00">AppInit2</text>
</a>
</g>
</g>
<!-- Node32&#45;&gt;Node33 -->
<g id="edge35" class="edge"><title>Node32&#45;&gt;Node33</title>
<path fill="none" stroke="midnightblue" d="M553.314,-55.1393C580.915,-58.2516 611.716,-61.7247 632.817,-64.104"/>
<polygon fill="midnightblue" stroke="midnightblue" points="553.644,-51.6543 543.314,-54.0117 552.859,-58.6103 553.644,-51.6543"/>
</g>
<!-- Node37 -->
<g id="node37" class="node"><title>Node37</title>
<g id="a_node37"><a xlink:href="class_c_wallet_d_b.html#a44388f1c3ee63191dcb78b1001e9390c" target="_top" xlink:title="CWalletDB::Recover">
<polygon fill="white" stroke="black" points="605.5,-19.5 605.5,-38.5 713.5,-38.5 713.5,-19.5 605.5,-19.5"/>
<text text-anchor="middle" x="659.5" y="-26.5" font-family="Helvetica,sans-Serif" font-size="10.00">CWalletDB::Recover</text>
</a>
</g>
</g>
<!-- Node32&#45;&gt;Node37 -->
<g id="edge39" class="edge"><title>Node32&#45;&gt;Node37</title>
<path fill="none" stroke="midnightblue" d="M553.713,-40.8158C570.703,-38.9 588.879,-36.8504 605.243,-35.0052"/>
<polygon fill="midnightblue" stroke="midnightblue" points="552.859,-37.3897 543.314,-41.9883 553.644,-44.3457 552.859,-37.3897"/>
</g>
<!-- Node34 -->
<g id="node34" class="node"><title>Node34</title>
<g id="a_node34"><a xlink:href="anoncoind_8cpp.html#ac59316b767e6984e1285f0531275286b" target="_top" xlink:title="AppInit">
<polygon fill="white" stroke="black" points="786,-76.5 786,-95.5 834,-95.5 834,-76.5 786,-76.5"/>
<text text-anchor="middle" x="810" y="-83.5" font-family="Helvetica,sans-Serif" font-size="10.00">AppInit</text>
</a>
</g>
</g>
<!-- Node33&#45;&gt;Node34 -->
<g id="edge36" class="edge"><title>Node33&#45;&gt;Node34</title>
<path fill="none" stroke="midnightblue" d="M696.142,-71.5603C723.94,-75.1169 761.739,-79.9532 785.757,-83.0262"/>
<polygon fill="midnightblue" stroke="midnightblue" points="696.391,-68.0637 686.028,-70.2662 695.503,-75.0071 696.391,-68.0637"/>
</g>
<!-- Node36 -->
<g id="node36" class="node"><title>Node36</title>
<g id="a_node36"><a xlink:href="class_anoncoin_coin.html#a9510881824d283404ac43414dbb74586" target="_top" xlink:title="AnoncoinCoin::initialize">
<polygon fill="white" stroke="black" points="750,-38.5 750,-57.5 870,-57.5 870,-38.5 750,-38.5"/>
<text text-anchor="middle" x="810" y="-45.5" font-family="Helvetica,sans-Serif" font-size="10.00">AnoncoinCoin::initialize</text>
</a>
</g>
</g>
<!-- Node33&#45;&gt;Node36 -->
<g id="edge38" class="edge"><title>Node33&#45;&gt;Node36</title>
<path fill="none" stroke="midnightblue" d="M696.088,-62.4466C712.21,-60.3839 731.705,-57.8896 749.926,-55.5583"/>
<polygon fill="midnightblue" stroke="midnightblue" points="695.503,-58.9929 686.028,-63.7338 696.391,-65.9363 695.503,-58.9929"/>
</g>
<!-- Node35 -->
<g id="node35" class="node"><title>Node35</title>
<g id="a_node35"><a xlink:href="anoncoind_8cpp.html#a0ddf1224851353fc92bfbff6f499fa97" target="_top" xlink:title="main">
<polygon fill="white" stroke="black" points="906,-76.5 906,-95.5 944,-95.5 944,-76.5 906,-76.5"/>
<text text-anchor="middle" x="925" y="-83.5" font-family="Helvetica,sans-Serif" font-size="10.00">main</text>
</a>
</g>
</g>
<!-- Node34&#45;&gt;Node35 -->
<g id="edge37" class="edge"><title>Node34&#45;&gt;Node35</title>
<path fill="none" stroke="midnightblue" d="M844.146,-86C864.247,-86 889.134,-86 905.731,-86"/>
<polygon fill="midnightblue" stroke="midnightblue" points="844.14,-82.5001 834.14,-86 844.14,-89.5001 844.14,-82.5001"/>
</g>
</g>
</svg>
