<?xml version="1.0" encoding="UTF-8" standalone="no"?>
<!DOCTYPE svg PUBLIC "-//W3C//DTD SVG 1.1//EN"
 "http://www.w3.org/Graphics/SVG/1.1/DTD/svg11.dtd">
<!-- Generated by graphviz version 2.38.0 (20140413.2041)
 -->
<!-- Title: itostr Pages: 1 -->
<svg width="434pt" height="66pt"
 viewBox="0.00 0.00 434.00 66.00" xmlns="http://www.w3.org/2000/svg" xmlns:xlink="http://www.w3.org/1999/xlink">
<g id="graph0" class="graph" transform="scale(1 1) rotate(0) translate(4 62)">
<title>itostr</title>
<polygon fill="white" stroke="none" points="-4,4 -4,-62 430,-62 430,4 -4,4"/>
<!-- Node1 -->
<g id="node1" class="node"><title>Node1</title>
<polygon fill="#bfbfbf" stroke="black" points="0,-19.5 0,-38.5 38,-38.5 38,-19.5 0,-19.5"/>
<text text-anchor="middle" x="19" y="-26.5" font-family="Helvetica,sans-Serif" font-size="10.00">itostr</text>
</g>
<!-- Node2 -->
<g id="node2" class="node"><title>Node2</title>
<g id="a_node2"><a xlink:href="rpcclient_8cpp.html#ae0b4394f271db49671cf894dbe94c484" target="_top" xlink:title="CallRPC">
<polygon fill="white" stroke="black" points="74,-19.5 74,-38.5 129,-38.5 129,-19.5 74,-19.5"/>
<text text-anchor="middle" x="101.5" y="-26.5" font-family="Helvetica,sans-Serif" font-size="10.00">CallRPC</text>
</a>
</g>
</g>
<!-- Node1&#45;&gt;Node2 -->
<g id="edge1" class="edge"><title>Node1&#45;&gt;Node2</title>
<path fill="none" stroke="midnightblue" d="M48.5195,-29C56.7297,-29 65.6535,-29 73.7523,-29"/>
<polygon fill="midnightblue" stroke="midnightblue" points="48.2667,-25.5001 38.2667,-29 48.2667,-32.5001 48.2667,-25.5001"/>
</g>
<!-- Node3 -->
<g id="node3" class="node"><title>Node3</title>
<g id="a_node3"><a xlink:href="rpcclient_8h.html#a4ee23259648a971c9c05aeff8b545a6d" target="_top" xlink:title="CommandLineRPC">
<polygon fill="white" stroke="black" points="165,-19.5 165,-38.5 268,-38.5 268,-19.5 165,-19.5"/>
<text text-anchor="middle" x="216.5" y="-26.5" font-family="Helvetica,sans-Serif" font-size="10.00">CommandLineRPC</text>
</a>
</g>
</g>
<!-- Node2&#45;&gt;Node3 -->
<g id="edge2" class="edge"><title>Node2&#45;&gt;Node3</title>
<path fill="none" stroke="midnightblue" d="M139.55,-29C147.682,-29 156.426,-29 164.985,-29"/>
<polygon fill="midnightblue" stroke="midnightblue" points="139.279,-25.5001 129.279,-29 139.279,-32.5001 139.279,-25.5001"/>
</g>
<!-- Node4 -->
<g id="node4" class="node"><title>Node4</title>
<g id="a_node4"><a xlink:href="anoncoin-cli_8cpp.html#a0ddf1224851353fc92bfbff6f499fa97" target="_top" xlink:title="main">
<polygon fill="white" stroke="black" points="309,-38.5 309,-57.5 347,-57.5 347,-38.5 309,-38.5"/>
<text text-anchor="middle" x="328" y="-45.5" font-family="Helvetica,sans-Serif" font-size="10.00">main</text>
</a>
</g>
</g>
<!-- Node3&#45;&gt;Node4 -->
<g id="edge3" class="edge"><title>Node3&#45;&gt;Node4</title>
<path fill="none" stroke="midnightblue" d="M277.999,-39.4975C289.241,-41.4482 300.156,-43.3422 308.82,-44.8455"/>
<polygon fill="midnightblue" stroke="midnightblue" points="278.534,-36.0382 268.083,-37.777 277.338,-42.9352 278.534,-36.0382"/>
</g>
<!-- Node5 -->
<g id="node5" class="node"><title>Node5</title>
<g id="a_node5"><a xlink:href="anoncoind_8cpp.html#ac59316b767e6984e1285f0531275286b" target="_top" xlink:title="AppInit">
<polygon fill="white" stroke="black" points="304,-0.5 304,-19.5 352,-19.5 352,-0.5 304,-0.5"/>
<text text-anchor="middle" x="328" y="-7.5" font-family="Helvetica,sans-Serif" font-size="10.00">AppInit</text>
</a>
</g>
</g>
<!-- Node3&#45;&gt;Node5 -->
<g id="edge4" class="edge"><title>Node3&#45;&gt;Node5</title>
<path fill="none" stroke="midnightblue" d="M278.098,-18.4853C287.293,-16.8898 296.265,-15.333 303.962,-13.9975"/>
<polygon fill="midnightblue" stroke="midnightblue" points="277.338,-15.0648 268.083,-20.223 278.534,-21.9618 277.338,-15.0648"/>
</g>
<!-- Node6 -->
<g id="node6" class="node"><title>Node6</title>
<g id="a_node6"><a xlink:href="anoncoind_8cpp.html#a0ddf1224851353fc92bfbff6f499fa97" target="_top" xlink:title="main">
<polygon fill="white" stroke="black" points="388,-0.5 388,-19.5 426,-19.5 426,-0.5 388,-0.5"/>
<text text-anchor="middle" x="407" y="-7.5" font-family="Helvetica,sans-Serif" font-size="10.00">main</text>
</a>
</g>
</g>
<!-- Node5&#45;&gt;Node6 -->
<g id="edge5" class="edge"><title>Node5&#45;&gt;Node6</title>
<path fill="none" stroke="midnightblue" d="M362.352,-10C370.996,-10 379.993,-10 387.557,-10"/>
<polygon fill="midnightblue" stroke="midnightblue" points="362.103,-6.5001 352.103,-10 362.103,-13.5001 362.103,-6.5001"/>
</g>
</g>
</svg>
