<?xml version="1.0" encoding="UTF-8" standalone="no"?>
<!DOCTYPE svg PUBLIC "-//W3C//DTD SVG 1.1//EN"
 "http://www.w3.org/Graphics/SVG/1.1/DTD/svg11.dtd">
<!-- Generated by graphviz version 2.38.0 (20140413.2041)
 -->
<!-- Title: src/qt/utilitydialog.h Pages: 1 -->
<svg width="532pt" height="84pt"
 viewBox="0.00 0.00 531.50 84.00" xmlns="http://www.w3.org/2000/svg" xmlns:xlink="http://www.w3.org/1999/xlink">
<g id="graph0" class="graph" transform="scale(1 1) rotate(0) translate(4 80)">
<title>src/qt/utilitydialog.h</title>
<polygon fill="white" stroke="none" points="-4,4 -4,-80 527.5,-80 527.5,4 -4,4"/>
<!-- Node1 -->
<g id="node1" class="node"><title>Node1</title>
<polygon fill="#bfbfbf" stroke="black" points="200.5,-56.5 200.5,-75.5 302.5,-75.5 302.5,-56.5 200.5,-56.5"/>
<text text-anchor="middle" x="251.5" y="-63.5" font-family="Helvetica,sans-Serif" font-size="10.00">src/qt/utilitydialog.h</text>
</g>
<!-- Node2 -->
<g id="node2" class="node"><title>Node2</title>
<g id="a_node2"><a xlink:href="anoncoin_8cpp.html" target="_top" xlink:title="src/qt/anoncoin.cpp">
<polygon fill="white" stroke="black" points="0,-0.5 0,-19.5 103,-19.5 103,-0.5 0,-0.5"/>
<text text-anchor="middle" x="51.5" y="-7.5" font-family="Helvetica,sans-Serif" font-size="10.00">src/qt/anoncoin.cpp</text>
</a>
</g>
</g>
<!-- Node1&#45;&gt;Node2 -->
<g id="edge1" class="edge"><title>Node1&#45;&gt;Node2</title>
<path fill="none" stroke="midnightblue" d="M210.126,-53.8291C172.364,-43.6333 117.36,-28.7823 83.0423,-19.5164"/>
<polygon fill="midnightblue" stroke="midnightblue" points="209.243,-57.2158 219.809,-56.4435 211.067,-50.4578 209.243,-57.2158"/>
</g>
<!-- Node3 -->
<g id="node3" class="node"><title>Node3</title>
<g id="a_node3"><a xlink:href="anoncoingui_8cpp.html" target="_top" xlink:title="src/qt/anoncoingui.cpp">
<polygon fill="white" stroke="black" points="121,-0.5 121,-19.5 238,-19.5 238,-0.5 121,-0.5"/>
<text text-anchor="middle" x="179.5" y="-7.5" font-family="Helvetica,sans-Serif" font-size="10.00">src/qt/anoncoingui.cpp</text>
</a>
</g>
</g>
<!-- Node1&#45;&gt;Node3 -->
<g id="edge2" class="edge"><title>Node1&#45;&gt;Node3</title>
<path fill="none" stroke="midnightblue" d="M231.634,-50.1008C218.677,-40.3824 202.203,-28.0269 191.279,-19.8339"/>
<polygon fill="midnightblue" stroke="midnightblue" points="229.832,-53.1239 239.932,-56.324 234.032,-47.5239 229.832,-53.1239"/>
</g>
<!-- Node4 -->
<g id="node4" class="node"><title>Node4</title>
<g id="a_node4"><a xlink:href="moc__utilitydialog_8cpp.html" target="_top" xlink:title="src/qt/moc_utilitydialog.cpp">
<polygon fill="white" stroke="black" points="256,-0.5 256,-19.5 393,-19.5 393,-0.5 256,-0.5"/>
<text text-anchor="middle" x="324.5" y="-7.5" font-family="Helvetica,sans-Serif" font-size="10.00">src/qt/moc_utilitydialog.cpp</text>
</a>
</g>
</g>
<!-- Node1&#45;&gt;Node4 -->
<g id="edge3" class="edge"><title>Node1&#45;&gt;Node4</title>
<path fill="none" stroke="midnightblue" d="M271.642,-50.1008C284.779,-40.3824 301.482,-28.0269 312.558,-19.8339"/>
<polygon fill="midnightblue" stroke="midnightblue" points="269.187,-47.5631 263.229,-56.324 273.35,-53.1907 269.187,-47.5631"/>
</g>
<!-- Node5 -->
<g id="node5" class="node"><title>Node5</title>
<g id="a_node5"><a xlink:href="utilitydialog_8cpp.html" target="_top" xlink:title="src/qt/utilitydialog.cpp">
<polygon fill="white" stroke="black" points="411.5,-0.5 411.5,-19.5 523.5,-19.5 523.5,-0.5 411.5,-0.5"/>
<text text-anchor="middle" x="467.5" y="-7.5" font-family="Helvetica,sans-Serif" font-size="10.00">src/qt/utilitydialog.cpp</text>
</a>
</g>
</g>
<!-- Node1&#45;&gt;Node5 -->
<g id="edge4" class="edge"><title>Node1&#45;&gt;Node5</title>
<path fill="none" stroke="midnightblue" d="M295.664,-53.959C336.461,-43.7598 396.213,-28.8217 433.434,-19.5164"/>
<polygon fill="midnightblue" stroke="midnightblue" points="294.578,-50.6226 285.726,-56.4435 296.276,-57.4136 294.578,-50.6226"/>
</g>
</g>
</svg>
