<?xml version="1.0" encoding="UTF-8" standalone="no"?>
<!DOCTYPE svg PUBLIC "-//W3C//DTD SVG 1.1//EN"
 "http://www.w3.org/Graphics/SVG/1.1/DTD/svg11.dtd">
<!-- Generated by graphviz version 2.38.0 (20140413.2041)
 -->
<!-- Title: GetDataDir Pages: 1 -->
<svg width="385pt" height="142pt"
 viewBox="0.00 0.00 385.00 142.00" xmlns="http://www.w3.org/2000/svg" xmlns:xlink="http://www.w3.org/1999/xlink">
<g id="graph0" class="graph" transform="scale(1 1) rotate(0) translate(4 138)">
<title>GetDataDir</title>
<polygon fill="white" stroke="none" points="-4,4 -4,-138 381,-138 381,4 -4,4"/>
<!-- Node1 -->
<g id="node1" class="node"><title>Node1</title>
<polygon fill="#bfbfbf" stroke="black" points="0,-57.5 0,-76.5 67,-76.5 67,-57.5 0,-57.5"/>
<text text-anchor="middle" x="33.5" y="-64.5" font-family="Helvetica,sans-Serif" font-size="10.00">GetDataDir</text>
</g>
<!-- Node2 -->
<g id="node2" class="node"><title>Node2</title>
<g id="a_node2"><a xlink:href="chainparams_8cpp.html#ace5c5b706d71a324a417dd2db394fd4a" target="_top" xlink:title="Return the currently selected parameters. ">
<polygon fill="white" stroke="black" points="146,-114.5 146,-133.5 197,-133.5 197,-114.5 146,-114.5"/>
<text text-anchor="middle" x="171.5" y="-121.5" font-family="Helvetica,sans-Serif" font-size="10.00">Params</text>
</a>
</g>
</g>
<!-- Node1&#45;&gt;Node2 -->
<g id="edge1" class="edge"><title>Node1&#45;&gt;Node2</title>
<path fill="none" stroke="midnightblue" d="M49.4989,-76.6586C63.0488,-85.0543 83.7583,-97.0809 103,-105 113.494,-109.319 125.294,-113.011 136.059,-115.961"/>
<polygon fill="midnightblue" stroke="midnightblue" points="135.426,-119.413 145.986,-118.558 137.198,-112.641 135.426,-119.413"/>
</g>
<!-- Node3 -->
<g id="node3" class="node"><title>Node3</title>
<g id="a_node3"><a xlink:href="class_c_chain_params.html#a90dc493ec0c0325c98c3ac06eb99862b" target="_top" xlink:title="CChainParams::NetworkID">
<polygon fill="white" stroke="black" points="103,-76.5 103,-95.5 240,-95.5 240,-76.5 103,-76.5"/>
<text text-anchor="middle" x="171.5" y="-83.5" font-family="Helvetica,sans-Serif" font-size="10.00">CChainParams::NetworkID</text>
</a>
</g>
</g>
<!-- Node1&#45;&gt;Node3 -->
<g id="edge2" class="edge"><title>Node1&#45;&gt;Node3</title>
<path fill="none" stroke="midnightblue" d="M67.0754,-71.551C75.0393,-72.6636 83.9025,-73.9018 92.9971,-75.1724"/>
<polygon fill="midnightblue" stroke="midnightblue" points="92.5368,-78.642 102.925,-76.5594 93.5054,-71.7093 92.5368,-78.642"/>
</g>
<!-- Node4 -->
<g id="node4" class="node"><title>Node4</title>
<g id="a_node4"><a xlink:href="util_8cpp.html#ab272995de020a3bcbf743be630e485c6" target="_top" xlink:title="GetDefaultDataDir">
<polygon fill="white" stroke="black" points="122.5,-38.5 122.5,-57.5 220.5,-57.5 220.5,-38.5 122.5,-38.5"/>
<text text-anchor="middle" x="171.5" y="-45.5" font-family="Helvetica,sans-Serif" font-size="10.00">GetDefaultDataDir</text>
</a>
</g>
</g>
<!-- Node1&#45;&gt;Node4 -->
<g id="edge3" class="edge"><title>Node1&#45;&gt;Node4</title>
<path fill="none" stroke="midnightblue" d="M67.0754,-62.449C80.677,-60.5488 96.902,-58.2821 112.422,-56.1138"/>
<polygon fill="midnightblue" stroke="midnightblue" points="113.065,-59.558 122.485,-54.708 112.097,-52.6254 113.065,-59.558"/>
</g>
<!-- Node6 -->
<g id="node6" class="node"><title>Node6</title>
<g id="a_node6"><a xlink:href="class_c_chain_params.html#ad11dd170e65650ff4b12d45a32b9c774" target="_top" xlink:title="CChainParams::DataDir">
<polygon fill="white" stroke="black" points="109.5,-0.5 109.5,-19.5 233.5,-19.5 233.5,-0.5 109.5,-0.5"/>
<text text-anchor="middle" x="171.5" y="-7.5" font-family="Helvetica,sans-Serif" font-size="10.00">CChainParams::DataDir</text>
</a>
</g>
</g>
<!-- Node1&#45;&gt;Node6 -->
<g id="edge5" class="edge"><title>Node1&#45;&gt;Node6</title>
<path fill="none" stroke="midnightblue" d="M49.4989,-57.3414C63.0488,-48.9457 83.7583,-36.9191 103,-29 108.763,-26.6283 114.92,-24.4455 121.083,-22.4707"/>
<polygon fill="midnightblue" stroke="midnightblue" points="122.167,-25.7992 130.717,-19.5416 120.131,-19.1019 122.167,-25.7992"/>
</g>
<!-- Node5 -->
<g id="node5" class="node"><title>Node5</title>
<g id="a_node5"><a xlink:href="util_8cpp.html#a4458ca67cacd593b21c8e1386d192064" target="_top" xlink:title="TryCreateDirectory">
<polygon fill="white" stroke="black" points="276,-38.5 276,-57.5 377,-57.5 377,-38.5 276,-38.5"/>
<text text-anchor="middle" x="326.5" y="-45.5" font-family="Helvetica,sans-Serif" font-size="10.00">TryCreateDirectory</text>
</a>
</g>
</g>
<!-- Node4&#45;&gt;Node5 -->
<g id="edge4" class="edge"><title>Node4&#45;&gt;Node5</title>
<path fill="none" stroke="midnightblue" d="M220.91,-48C235.137,-48 250.868,-48 265.716,-48"/>
<polygon fill="midnightblue" stroke="midnightblue" points="265.825,-51.5001 275.825,-48 265.825,-44.5001 265.825,-51.5001"/>
</g>
</g>
</svg>
