<?xml version="1.0" encoding="UTF-8" standalone="no"?>
<!DOCTYPE svg PUBLIC "-//W3C//DTD SVG 1.1//EN"
 "http://www.w3.org/Graphics/SVG/1.1/DTD/svg11.dtd">
<!-- Generated by graphviz version 2.38.0 (20140413.2041)
 -->
<!-- Title: GetTimeOffset Pages: 1 -->
<svg width="931pt" height="1028pt"
 viewBox="0.00 0.00 931.00 1028.00" xmlns="http://www.w3.org/2000/svg" xmlns:xlink="http://www.w3.org/1999/xlink">
<g id="graph0" class="graph" transform="scale(1 1) rotate(0) translate(4 1024)">
<title>GetTimeOffset</title>
<polygon fill="white" stroke="none" points="-4,4 -4,-1024 927,-1024 927,4 -4,4"/>
<!-- Node1 -->
<g id="node1" class="node"><title>Node1</title>
<polygon fill="#bfbfbf" stroke="black" points="0,-772.5 0,-791.5 82,-791.5 82,-772.5 0,-772.5"/>
<text text-anchor="middle" x="41" y="-779.5" font-family="Helvetica,sans-Serif" font-size="10.00">GetTimeOffset</text>
</g>
<!-- Node2 -->
<g id="node2" class="node"><title>Node2</title>
<g id="a_node2"><a xlink:href="rpcmisc_8cpp.html#a70335b93783d51e48d276a1e08bd721a" target="_top" xlink:title="getinfo">
<polygon fill="white" stroke="black" points="141.5,-810.5 141.5,-829.5 188.5,-829.5 188.5,-810.5 141.5,-810.5"/>
<text text-anchor="middle" x="165" y="-817.5" font-family="Helvetica,sans-Serif" font-size="10.00">getinfo</text>
</a>
</g>
</g>
<!-- Node1&#45;&gt;Node2 -->
<g id="edge1" class="edge"><title>Node1&#45;&gt;Node2</title>
<path fill="none" stroke="midnightblue" d="M82.3959,-794.582C101.99,-800.685 124.798,-807.79 141.312,-812.933"/>
<polygon fill="midnightblue" stroke="midnightblue" points="83.3742,-791.221 72.7858,-791.589 81.2925,-797.905 83.3742,-791.221"/>
</g>
<!-- Node3 -->
<g id="node3" class="node"><title>Node3</title>
<g id="a_node3"><a xlink:href="rpcnet_8cpp.html#a3a10a507386b9bbcc48ebd3004bfe58a" target="_top" xlink:title="getnetworkinfo">
<polygon fill="white" stroke="black" points="124,-772.5 124,-791.5 206,-791.5 206,-772.5 124,-772.5"/>
<text text-anchor="middle" x="165" y="-779.5" font-family="Helvetica,sans-Serif" font-size="10.00">getnetworkinfo</text>
</a>
</g>
</g>
<!-- Node1&#45;&gt;Node3 -->
<g id="edge2" class="edge"><title>Node1&#45;&gt;Node3</title>
<path fill="none" stroke="midnightblue" d="M92.5137,-782C102.929,-782 113.765,-782 123.757,-782"/>
<polygon fill="midnightblue" stroke="midnightblue" points="92.2855,-778.5 82.2855,-782 92.2854,-785.5 92.2855,-778.5"/>
</g>
<!-- Node4 -->
<g id="node4" class="node"><title>Node4</title>
<g id="a_node4"><a xlink:href="util_8h.html#a09f81b9c7650f898cf3cf305b87547e6" target="_top" xlink:title="GetAdjustedTime">
<polygon fill="white" stroke="black" points="118,-734.5 118,-753.5 212,-753.5 212,-734.5 118,-734.5"/>
<text text-anchor="middle" x="165" y="-741.5" font-family="Helvetica,sans-Serif" font-size="10.00">GetAdjustedTime</text>
</a>
</g>
</g>
<!-- Node1&#45;&gt;Node4 -->
<g id="edge3" class="edge"><title>Node1&#45;&gt;Node4</title>
<path fill="none" stroke="midnightblue" d="M82.7108,-769.32C99.195,-764.185 117.91,-758.356 133.224,-753.586"/>
<polygon fill="midnightblue" stroke="midnightblue" points="81.2925,-766.095 72.7858,-772.411 83.3742,-772.779 81.2925,-766.095"/>
</g>
<!-- Node5 -->
<g id="node5" class="node"><title>Node5</title>
<g id="a_node5"><a xlink:href="class_c_addr_man.html#a9dd6df8b1904548a86054d19d4a90724" target="_top" xlink:title="CAddrMan::Add_">
<polygon fill="white" stroke="black" points="276.5,-810.5 276.5,-829.5 369.5,-829.5 369.5,-810.5 276.5,-810.5"/>
<text text-anchor="middle" x="323" y="-817.5" font-family="Helvetica,sans-Serif" font-size="10.00">CAddrMan::Add_</text>
</a>
</g>
</g>
<!-- Node4&#45;&gt;Node5 -->
<g id="edge4" class="edge"><title>Node4&#45;&gt;Node5</title>
<path fill="none" stroke="midnightblue" d="M202.702,-757.763C205.922,-759.385 209.068,-761.134 212,-763 230.311,-774.655 229.248,-785.069 248,-796 258.385,-802.054 270.493,-806.799 281.871,-810.414"/>
<polygon fill="midnightblue" stroke="midnightblue" points="204.091,-754.55 193.545,-753.535 201.156,-760.905 204.091,-754.55"/>
</g>
<!-- Node9 -->
<g id="node9" class="node"><title>Node9</title>
<g id="a_node9"><a xlink:href="net_8cpp.html#a3b4720330e61127963a43df26b80f804" target="_top" xlink:title="ThreadOpenConnections">
<polygon fill="white" stroke="black" points="629,-914.5 629,-933.5 757,-933.5 757,-914.5 629,-914.5"/>
<text text-anchor="middle" x="693" y="-921.5" font-family="Helvetica,sans-Serif" font-size="10.00">ThreadOpenConnections</text>
</a>
</g>
</g>
<!-- Node4&#45;&gt;Node9 -->
<g id="edge61" class="edge"><title>Node4&#45;&gt;Node9</title>
<path fill="none" stroke="midnightblue" d="M208.78,-759.582C209.932,-760.648 211.011,-761.785 212,-763 266.255,-829.658 181.811,-898.174 248,-953 303.791,-999.212 502.081,-961.708 574,-953 604.367,-949.323 638.19,-940.508 661.812,-933.555"/>
<polygon fill="midnightblue" stroke="midnightblue" points="210.483,-756.497 200.309,-753.541 206.419,-762.196 210.483,-756.497"/>
</g>
<!-- Node10 -->
<g id="node10" class="node"><title>Node10</title>
<g id="a_node10"><a xlink:href="class_c_alert.html#a00a8ae5ba7bc54ac7943558c33021190" target="_top" xlink:title="CAlert::IsInEffect">
<polygon fill="white" stroke="black" points="277,-1000.5 277,-1019.5 369,-1019.5 369,-1000.5 277,-1000.5"/>
<text text-anchor="middle" x="323" y="-1007.5" font-family="Helvetica,sans-Serif" font-size="10.00">CAlert::IsInEffect</text>
</a>
</g>
</g>
<!-- Node4&#45;&gt;Node10 -->
<g id="edge10" class="edge"><title>Node4&#45;&gt;Node10</title>
<path fill="none" stroke="midnightblue" d="M208.941,-759.659C210.036,-760.702 211.062,-761.814 212,-763 274.31,-841.718 182.665,-909.774 248,-986 255.383,-994.614 265.888,-1000.16 276.672,-1003.72"/>
<polygon fill="midnightblue" stroke="midnightblue" points="210.992,-756.823 200.861,-753.723 206.848,-762.464 210.992,-756.823"/>
</g>
<!-- Node12 -->
<g id="node12" class="node"><title>Node12</title>
<g id="a_node12"><a xlink:href="class_c_alert.html#ae89d673f6f1285eefcc343b3c029dab5" target="_top" xlink:title="CAlert::RelayTo">
<polygon fill="white" stroke="black" points="279.5,-886.5 279.5,-905.5 366.5,-905.5 366.5,-886.5 279.5,-886.5"/>
<text text-anchor="middle" x="323" y="-893.5" font-family="Helvetica,sans-Serif" font-size="10.00">CAlert::RelayTo</text>
</a>
</g>
</g>
<!-- Node4&#45;&gt;Node12 -->
<g id="edge12" class="edge"><title>Node4&#45;&gt;Node12</title>
<path fill="none" stroke="midnightblue" d="M208.097,-759.32C209.486,-760.462 210.795,-761.687 212,-763 247.924,-802.148 209.419,-840.468 248,-877 256.476,-885.025 267.868,-889.778 279.171,-892.561"/>
<polygon fill="midnightblue" stroke="midnightblue" points="209.721,-756.2 199.44,-753.641 205.881,-762.053 209.721,-756.2"/>
</g>
<!-- Node13 -->
<g id="node13" class="node"><title>Node13</title>
<g id="a_node13"><a xlink:href="auxpow_8cpp.html#aaf95cc33e661586e686eebdae7c937f6" target="_top" xlink:title="IncrementExtraNonceWithAux">
<polygon fill="white" stroke="black" points="248,-848.5 248,-867.5 398,-867.5 398,-848.5 248,-848.5"/>
<text text-anchor="middle" x="323" y="-855.5" font-family="Helvetica,sans-Serif" font-size="10.00">IncrementExtraNonceWithAux</text>
</a>
</g>
</g>
<!-- Node4&#45;&gt;Node13 -->
<g id="edge13" class="edge"><title>Node4&#45;&gt;Node13</title>
<path fill="none" stroke="midnightblue" d="M206.73,-758.704C208.6,-760.023 210.372,-761.452 212,-763 239.09,-788.751 219.171,-815.213 248,-839 252.706,-842.883 258.11,-845.984 263.81,-848.459"/>
<polygon fill="midnightblue" stroke="midnightblue" points="208.444,-755.651 198.049,-753.602 204.897,-761.686 208.444,-755.651"/>
</g>
<!-- Node14 -->
<g id="node14" class="node"><title>Node14</title>
<g id="a_node14"><a xlink:href="main_8h.html#aa7ca31ac11bff224c6b0ac27fccce7b5" target="_top" xlink:title="IsFinalTx">
<polygon fill="white" stroke="black" points="294.5,-532.5 294.5,-551.5 351.5,-551.5 351.5,-532.5 294.5,-532.5"/>
<text text-anchor="middle" x="323" y="-539.5" font-family="Helvetica,sans-Serif" font-size="10.00">IsFinalTx</text>
</a>
</g>
</g>
<!-- Node4&#45;&gt;Node14 -->
<g id="edge14" class="edge"><title>Node4&#45;&gt;Node14</title>
<path fill="none" stroke="midnightblue" d="M179.769,-726.17C211.723,-684.794 290.053,-583.367 314.551,-551.645"/>
<polygon fill="midnightblue" stroke="midnightblue" points="176.866,-724.203 173.524,-734.257 182.407,-728.482 176.866,-724.203"/>
</g>
<!-- Node21 -->
<g id="node21" class="node"><title>Node21</title>
<g id="a_node21"><a xlink:href="class_transaction_desc.html#afcd4db6bf3a341cafe06a57ec31b7531" target="_top" xlink:title="TransactionDesc::FormatTx\lStatus">
<polygon fill="white" stroke="black" points="434,-799 434,-829 574,-829 574,-799 434,-799"/>
<text text-anchor="start" x="442" y="-817" font-family="Helvetica,sans-Serif" font-size="10.00">TransactionDesc::FormatTx</text>
<text text-anchor="middle" x="504" y="-806" font-family="Helvetica,sans-Serif" font-size="10.00">Status</text>
</a>
</g>
</g>
<!-- Node4&#45;&gt;Node21 -->
<g id="edge62" class="edge"><title>Node4&#45;&gt;Node21</title>
<path fill="none" stroke="midnightblue" d="M221.908,-755.613C280.081,-767.696 371.263,-786.636 433.909,-799.649"/>
<polygon fill="midnightblue" stroke="midnightblue" points="222.303,-752.12 211.8,-753.513 220.879,-758.974 222.303,-752.12"/>
</g>
<!-- Node23 -->
<g id="node23" class="node"><title>Node23</title>
<g id="a_node23"><a xlink:href="class_transaction_record.html#a9b643dd885a790ae511705a1446556be" target="_top" xlink:title="Update status from core wallet tx. ">
<polygon fill="white" stroke="black" points="639.5,-676 639.5,-706 746.5,-706 746.5,-676 639.5,-676"/>
<text text-anchor="start" x="647.5" y="-694" font-family="Helvetica,sans-Serif" font-size="10.00">TransactionRecord::</text>
<text text-anchor="middle" x="693" y="-683" font-family="Helvetica,sans-Serif" font-size="10.00">updateStatus</text>
</a>
</g>
</g>
<!-- Node4&#45;&gt;Node23 -->
<g id="edge63" class="edge"><title>Node4&#45;&gt;Node23</title>
<path fill="none" stroke="midnightblue" d="M222.097,-747.393C326.356,-753.342 542.317,-763.863 574,-751 594.676,-742.606 590.787,-727.351 610,-716 618.97,-710.701 629.165,-706.43 639.245,-703.022"/>
<polygon fill="midnightblue" stroke="midnightblue" points="222.249,-743.896 212.065,-746.815 221.847,-750.884 222.249,-743.896"/>
</g>
<!-- Node37 -->
<g id="node37" class="node"><title>Node37</title>
<g id="a_node37"><a xlink:href="main_8h.html#a9fbb6d657c8c96746115ed93c32a6e0b" target="_top" xlink:title="UpdateTime">
<polygon fill="white" stroke="black" points="468.5,-266.5 468.5,-285.5 539.5,-285.5 539.5,-266.5 468.5,-266.5"/>
<text text-anchor="middle" x="504" y="-273.5" font-family="Helvetica,sans-Serif" font-size="10.00">UpdateTime</text>
</a>
</g>
</g>
<!-- Node4&#45;&gt;Node37 -->
<g id="edge43" class="edge"><title>Node4&#45;&gt;Node37</title>
<path fill="none" stroke="midnightblue" d="M170.911,-724.513C181.4,-684.83 208.313,-592.521 248,-523 313.006,-409.128 323.745,-364.968 434,-294 444.202,-287.433 456.704,-283.257 468.251,-280.602"/>
<polygon fill="midnightblue" stroke="midnightblue" points="167.509,-723.69 168.391,-734.248 174.286,-725.444 167.509,-723.69"/>
</g>
<!-- Node38 -->
<g id="node38" class="node"><title>Node38</title>
<g id="a_node38"><a xlink:href="main_8h.html#afbaa5058f820d623e6a36f39da4fe484" target="_top" xlink:title="CheckBlock">
<polygon fill="white" stroke="black" points="288.5,-171.5 288.5,-190.5 357.5,-190.5 357.5,-171.5 288.5,-171.5"/>
<text text-anchor="middle" x="323" y="-178.5" font-family="Helvetica,sans-Serif" font-size="10.00">CheckBlock</text>
</a>
</g>
</g>
<!-- Node4&#45;&gt;Node38 -->
<g id="edge46" class="edge"><title>Node4&#45;&gt;Node38</title>
<path fill="none" stroke="midnightblue" d="M169.356,-724.323C179.032,-668.869 208.818,-506.838 248,-376 269.815,-303.156 305.635,-218.604 317.804,-190.57"/>
<polygon fill="midnightblue" stroke="midnightblue" points="165.853,-724.039 167.6,-734.489 172.751,-725.23 165.853,-724.039"/>
</g>
<!-- Node41 -->
<g id="node41" class="node"><title>Node41</title>
<g id="a_node41"><a xlink:href="net_8h.html#af0cb3bbd4d42cac8723e22004ffb43af" target="_top" xlink:title="GetLocalAddress">
<polygon fill="white" stroke="black" points="276.5,-128.5 276.5,-147.5 369.5,-147.5 369.5,-128.5 276.5,-128.5"/>
<text text-anchor="middle" x="323" y="-135.5" font-family="Helvetica,sans-Serif" font-size="10.00">GetLocalAddress</text>
</a>
</g>
</g>
<!-- Node4&#45;&gt;Node41 -->
<g id="edge52" class="edge"><title>Node4&#45;&gt;Node41</title>
<path fill="none" stroke="midnightblue" d="M166.069,-724.187C166.785,-632.469 174.211,-249.859 248,-162 255.209,-153.416 265.523,-147.875 276.169,-144.307"/>
<polygon fill="midnightblue" stroke="midnightblue" points="162.569,-724.292 166.01,-734.313 169.569,-724.334 162.569,-724.292"/>
</g>
<!-- Node43 -->
<g id="node43" class="node"><title>Node43</title>
<g id="a_node43"><a xlink:href="class_c_node.html#a4dbfe4f6c1fd162aaa905e4bd201d536" target="_top" xlink:title="CNode::PushVersion">
<polygon fill="white" stroke="black" points="449,-38.5 449,-57.5 559,-57.5 559,-38.5 449,-38.5"/>
<text text-anchor="middle" x="504" y="-45.5" font-family="Helvetica,sans-Serif" font-size="10.00">CNode::PushVersion</text>
</a>
</g>
</g>
<!-- Node4&#45;&gt;Node43 -->
<g id="edge60" class="edge"><title>Node4&#45;&gt;Node43</title>
<path fill="none" stroke="midnightblue" d="M165.733,-724.453C164.836,-628.872 165.74,-211.556 248,-119 293.686,-67.5953 332.495,-101.947 398,-81 414.352,-75.7711 417.703,-72.397 434,-67 444.144,-63.6407 455.259,-60.3943 465.548,-57.5639"/>
<polygon fill="midnightblue" stroke="midnightblue" points="162.234,-724.512 165.846,-734.471 169.233,-724.432 162.234,-724.512"/>
</g>
<!-- Node45 -->
<g id="node45" class="node"><title>Node45</title>
<g id="a_node45"><a xlink:href="net_8h.html#a718dfaec68eabf5a2a3ebb476bf4fe67" target="_top" xlink:title="ConnectNode">
<polygon fill="white" stroke="black" points="284,-924.5 284,-943.5 362,-943.5 362,-924.5 284,-924.5"/>
<text text-anchor="middle" x="323" y="-931.5" font-family="Helvetica,sans-Serif" font-size="10.00">ConnectNode</text>
</a>
</g>
</g>
<!-- Node4&#45;&gt;Node45 -->
<g id="edge56" class="edge"><title>Node4&#45;&gt;Node45</title>
<path fill="none" stroke="midnightblue" d="M208.71,-759.64C209.882,-760.69 210.984,-761.808 212,-763 257.033,-815.837 199.372,-865.451 248,-915 257.383,-924.561 270.881,-929.536 283.786,-932.054"/>
<polygon fill="midnightblue" stroke="midnightblue" points="210.357,-756.522 200.152,-753.671 206.352,-762.263 210.357,-756.522"/>
</g>
<!-- Node48 -->
<g id="node48" class="node"><title>Node48</title>
<g id="a_node48"><a xlink:href="rpcwallet_8cpp.html#a7dcb5aa63b46944bc4874719c8e1db15" target="_top" xlink:title="movecmd">
<polygon fill="white" stroke="black" points="293,-52.5 293,-71.5 353,-71.5 353,-52.5 293,-52.5"/>
<text text-anchor="middle" x="323" y="-59.5" font-family="Helvetica,sans-Serif" font-size="10.00">movecmd</text>
</a>
</g>
</g>
<!-- Node4&#45;&gt;Node48 -->
<g id="edge64" class="edge"><title>Node4&#45;&gt;Node48</title>
<path fill="none" stroke="midnightblue" d="M165.714,-724.474C164.669,-626.231 164.767,-186.729 248,-86 258.926,-72.7774 277.223,-66.7675 292.889,-64.0681"/>
<polygon fill="midnightblue" stroke="midnightblue" points="162.215,-724.541 165.839,-734.497 169.214,-724.454 162.215,-724.541"/>
</g>
<!-- Node49 -->
<g id="node49" class="node"><title>Node49</title>
<g id="a_node49"><a xlink:href="class_c_wallet.html#adf34c789fd6eab1eeed22ef16837f558" target="_top" xlink:title="CWallet::AddToWallet">
<polygon fill="white" stroke="black" points="266,-5.5 266,-24.5 380,-24.5 380,-5.5 266,-5.5"/>
<text text-anchor="middle" x="323" y="-12.5" font-family="Helvetica,sans-Serif" font-size="10.00">CWallet::AddToWallet</text>
</a>
</g>
</g>
<!-- Node4&#45;&gt;Node49 -->
<g id="edge65" class="edge"><title>Node4&#45;&gt;Node49</title>
<path fill="none" stroke="midnightblue" d="M165.638,-724.258C164.151,-621.991 162.157,-152.981 248,-43 254.592,-34.554 264.037,-28.6554 273.984,-24.536"/>
<polygon fill="midnightblue" stroke="midnightblue" points="162.141,-724.464 165.803,-734.406 169.14,-724.35 162.141,-724.464"/>
</g>
<!-- Node6 -->
<g id="node6" class="node"><title>Node6</title>
<g id="a_node6"><a xlink:href="class_c_addr_man.html#a03fcc7109b5f014760dc50a81f68c5ec" target="_top" xlink:title="CAddrMan::Add">
<polygon fill="white" stroke="black" points="460,-848.5 460,-867.5 548,-867.5 548,-848.5 460,-848.5"/>
<text text-anchor="middle" x="504" y="-855.5" font-family="Helvetica,sans-Serif" font-size="10.00">CAddrMan::Add</text>
</a>
</g>
</g>
<!-- Node5&#45;&gt;Node6 -->
<g id="edge5" class="edge"><title>Node5&#45;&gt;Node6</title>
<path fill="none" stroke="midnightblue" d="M379.216,-831.722C405.105,-837.218 435.504,-843.671 459.698,-848.807"/>
<polygon fill="midnightblue" stroke="midnightblue" points="379.678,-828.242 369.169,-829.589 378.224,-835.089 379.678,-828.242"/>
</g>
<!-- Node7 -->
<g id="node7" class="node"><title>Node7</title>
<g id="a_node7"><a xlink:href="net_8cpp.html#ab2d8883b5524ec7b80d3b9535e73a3ed" target="_top" xlink:title="Process DNS seed data from chainparams. ">
<polygon fill="white" stroke="black" points="628.5,-857.5 628.5,-876.5 757.5,-876.5 757.5,-857.5 628.5,-857.5"/>
<text text-anchor="middle" x="693" y="-864.5" font-family="Helvetica,sans-Serif" font-size="10.00">ThreadDNSAddressSeed</text>
</a>
</g>
</g>
<!-- Node6&#45;&gt;Node7 -->
<g id="edge6" class="edge"><title>Node6&#45;&gt;Node7</title>
<path fill="none" stroke="midnightblue" d="M558.426,-860.571C580.206,-861.62 605.565,-862.84 628.299,-863.934"/>
<polygon fill="midnightblue" stroke="midnightblue" points="558.528,-857.072 548.372,-860.087 558.192,-864.064 558.528,-857.072"/>
</g>
<!-- Node6&#45;&gt;Node9 -->
<g id="edge8" class="edge"><title>Node6&#45;&gt;Node9</title>
<path fill="none" stroke="midnightblue" d="M552.302,-870.28C559.608,-872.391 567.036,-874.662 574,-877 608.075,-888.439 646.596,-904.365 670.087,-914.427"/>
<polygon fill="midnightblue" stroke="midnightblue" points="553.044,-866.853 542.47,-867.509 551.146,-873.59 553.044,-866.853"/>
</g>
<!-- Node8 -->
<g id="node8" class="node"><title>Node8</title>
<g id="a_node8"><a xlink:href="net_8h.html#a9396d8054e8f74959e9391871aaddde0" target="_top" xlink:title="StartNode">
<polygon fill="white" stroke="red" points="836.5,-885.5 836.5,-904.5 898.5,-904.5 898.5,-885.5 836.5,-885.5"/>
<text text-anchor="middle" x="867.5" y="-892.5" font-family="Helvetica,sans-Serif" font-size="10.00">StartNode</text>
</a>
</g>
</g>
<!-- Node7&#45;&gt;Node8 -->
<g id="edge7" class="edge"><title>Node7&#45;&gt;Node8</title>
<path fill="none" stroke="midnightblue" d="M762.92,-878.187C788.464,-882.333 816.123,-886.823 836.428,-890.119"/>
<polygon fill="midnightblue" stroke="midnightblue" points="763.314,-874.705 752.882,-876.558 762.192,-881.615 763.314,-874.705"/>
</g>
<!-- Node9&#45;&gt;Node8 -->
<g id="edge9" class="edge"><title>Node9&#45;&gt;Node8</title>
<path fill="none" stroke="midnightblue" d="M761.142,-912.712C787.088,-908.35 815.463,-903.58 836.223,-900.09"/>
<polygon fill="midnightblue" stroke="midnightblue" points="760.242,-909.314 750.961,-914.424 761.403,-916.218 760.242,-909.314"/>
</g>
<!-- Node11 -->
<g id="node11" class="node"><title>Node11</title>
<g id="a_node11"><a xlink:href="class_c_alert.html#af3e6b2e5d3584f58c5d7be9dbd72b4cc" target="_top" xlink:title="CAlert::ProcessAlert">
<polygon fill="white" stroke="black" points="450.5,-1000.5 450.5,-1019.5 557.5,-1019.5 557.5,-1000.5 450.5,-1000.5"/>
<text text-anchor="middle" x="504" y="-1007.5" font-family="Helvetica,sans-Serif" font-size="10.00">CAlert::ProcessAlert</text>
</a>
</g>
</g>
<!-- Node10&#45;&gt;Node11 -->
<g id="edge11" class="edge"><title>Node10&#45;&gt;Node11</title>
<path fill="none" stroke="midnightblue" d="M379.283,-1010C401.874,-1010 427.889,-1010 450.217,-1010"/>
<polygon fill="midnightblue" stroke="midnightblue" points="379.169,-1006.5 369.169,-1010 379.169,-1013.5 379.169,-1006.5"/>
</g>
<!-- Node15 -->
<g id="node15" class="node"><title>Node15</title>
<g id="a_node15"><a xlink:href="main_8cpp.html#acd163a09d0e4384ebe85dead57730dd7" target="_top" xlink:title="IsStandardTx">
<polygon fill="white" stroke="black" points="466,-722.5 466,-741.5 542,-741.5 542,-722.5 466,-722.5"/>
<text text-anchor="middle" x="504" y="-729.5" font-family="Helvetica,sans-Serif" font-size="10.00">IsStandardTx</text>
</a>
</g>
</g>
<!-- Node14&#45;&gt;Node15 -->
<g id="edge15" class="edge"><title>Node14&#45;&gt;Node15</title>
<path fill="none" stroke="midnightblue" d="M331.745,-561.21C346.537,-595.553 382.028,-667.651 434,-708 443.217,-715.156 454.72,-720.268 465.677,-723.881"/>
<polygon fill="midnightblue" stroke="midnightblue" points="334.913,-559.714 327.824,-551.84 328.456,-562.416 334.913,-559.714"/>
</g>
<!-- Node17 -->
<g id="node17" class="node"><title>Node17</title>
<g id="a_node17"><a xlink:href="main_8h.html#aae69635467b9737d6c5b44d8ccff5c82" target="_top" xlink:title="AcceptBlock">
<polygon fill="white" stroke="black" points="468,-228.5 468,-247.5 540,-247.5 540,-228.5 468,-228.5"/>
<text text-anchor="middle" x="504" y="-235.5" font-family="Helvetica,sans-Serif" font-size="10.00">AcceptBlock</text>
</a>
</g>
</g>
<!-- Node14&#45;&gt;Node17 -->
<g id="edge17" class="edge"><title>Node14&#45;&gt;Node17</title>
<path fill="none" stroke="midnightblue" d="M325.648,-522.315C331.047,-470.712 352.839,-330.451 434,-257 443.305,-248.579 456.007,-243.846 467.979,-241.2"/>
<polygon fill="midnightblue" stroke="midnightblue" points="322.148,-522.148 324.686,-532.435 329.117,-522.811 322.148,-522.148"/>
</g>
<!-- Node19 -->
<g id="node19" class="node"><title>Node19</title>
<g id="a_node19"><a xlink:href="miner_8h.html#af441d1c1899839f4e3cc0ee1367914a5" target="_top" xlink:title="Generate a new block, without valid proof&#45;of&#45;work. ">
<polygon fill="white" stroke="black" points="647.5,-266.5 647.5,-285.5 738.5,-285.5 738.5,-266.5 647.5,-266.5"/>
<text text-anchor="middle" x="693" y="-273.5" font-family="Helvetica,sans-Serif" font-size="10.00">CreateNewBlock</text>
</a>
</g>
</g>
<!-- Node14&#45;&gt;Node19 -->
<g id="edge19" class="edge"><title>Node14&#45;&gt;Node19</title>
<path fill="none" stroke="midnightblue" d="M334.135,-523.425C348.518,-496.992 375.594,-446.961 398,-404 414.361,-372.63 406.039,-354.678 434,-333 450.767,-320.001 578.036,-296.022 647.341,-283.722"/>
<polygon fill="midnightblue" stroke="midnightblue" points="330.991,-521.881 329.28,-532.337 337.138,-525.23 330.991,-521.881"/>
</g>
<!-- Node14&#45;&gt;Node21 -->
<g id="edge21" class="edge"><title>Node14&#45;&gt;Node21</title>
<path fill="none" stroke="midnightblue" d="M331.508,-561.346C347.004,-599.853 385.202,-687.819 434,-751 448.278,-769.487 468.325,-787.109 483.134,-798.991"/>
<polygon fill="midnightblue" stroke="midnightblue" points="334.686,-559.866 327.749,-551.858 328.179,-562.445 334.686,-559.866"/>
</g>
<!-- Node14&#45;&gt;Node23 -->
<g id="edge23" class="edge"><title>Node14&#45;&gt;Node23</title>
<path fill="none" stroke="midnightblue" d="M335.316,-560.271C352.845,-586.802 389.253,-635.294 434,-658 499.135,-691.052 584.958,-695.511 639.324,-694.315"/>
<polygon fill="midnightblue" stroke="midnightblue" points="338.082,-558.101 329.732,-551.579 332.192,-561.884 338.082,-558.101"/>
</g>
<!-- Node25 -->
<g id="node25" class="node"><title>Node25</title>
<g id="a_node25"><a xlink:href="rpcwallet_8cpp.html#abbb6475509aa2e69844f0b3a8bcb422a" target="_top" xlink:title="getreceivedbyaddress">
<polygon fill="white" stroke="black" points="447,-608.5 447,-627.5 561,-627.5 561,-608.5 447,-608.5"/>
<text text-anchor="middle" x="504" y="-615.5" font-family="Helvetica,sans-Serif" font-size="10.00">getreceivedbyaddress</text>
</a>
</g>
</g>
<!-- Node14&#45;&gt;Node25 -->
<g id="edge25" class="edge"><title>Node14&#45;&gt;Node25</title>
<path fill="none" stroke="midnightblue" d="M348.826,-556.78C370.675,-569.316 403.645,-587.108 434,-599 443.139,-602.581 453.209,-605.761 462.764,-608.446"/>
<polygon fill="midnightblue" stroke="midnightblue" points="350.307,-553.593 339.902,-551.596 346.791,-559.645 350.307,-553.593"/>
</g>
<!-- Node26 -->
<g id="node26" class="node"><title>Node26</title>
<g id="a_node26"><a xlink:href="rpcwallet_8cpp.html#a07526be5270b0e55b4a0b79c01205f3d" target="_top" xlink:title="getreceivedbyaccount">
<polygon fill="white" stroke="black" points="447,-570.5 447,-589.5 561,-589.5 561,-570.5 447,-570.5"/>
<text text-anchor="middle" x="504" y="-577.5" font-family="Helvetica,sans-Serif" font-size="10.00">getreceivedbyaccount</text>
</a>
</g>
</g>
<!-- Node14&#45;&gt;Node26 -->
<g id="edge26" class="edge"><title>Node14&#45;&gt;Node26</title>
<path fill="none" stroke="midnightblue" d="M361.423,-549.945C389.539,-555.913 428.17,-564.114 457.976,-570.442"/>
<polygon fill="midnightblue" stroke="midnightblue" points="362.085,-546.507 351.576,-547.854 360.632,-553.355 362.085,-546.507"/>
</g>
<!-- Node27 -->
<g id="node27" class="node"><title>Node27</title>
<g id="a_node27"><a xlink:href="rpcwallet_8cpp.html#a02d239cd69692dab8bbb33eb0010de1b" target="_top" xlink:title="GetAccountBalance">
<polygon fill="white" stroke="red" points="451.5,-342.5 451.5,-361.5 556.5,-361.5 556.5,-342.5 451.5,-342.5"/>
<text text-anchor="middle" x="504" y="-349.5" font-family="Helvetica,sans-Serif" font-size="10.00">GetAccountBalance</text>
</a>
</g>
</g>
<!-- Node14&#45;&gt;Node27 -->
<g id="edge27" class="edge"><title>Node14&#45;&gt;Node27</title>
<path fill="none" stroke="midnightblue" d="M331.745,-522.79C346.537,-488.447 382.028,-416.349 434,-376 442.015,-369.778 451.758,-365.101 461.368,-361.611"/>
<polygon fill="midnightblue" stroke="midnightblue" points="328.456,-521.584 327.824,-532.16 334.913,-524.286 328.456,-521.584"/>
</g>
<!-- Node31 -->
<g id="node31" class="node"><title>Node31</title>
<g id="a_node31"><a xlink:href="rpcwallet_8cpp.html#a0cc958f67a8d6d0002cb4fee19eddb5c" target="_top" xlink:title="ListReceived">
<polygon fill="white" stroke="red" points="467,-494.5 467,-513.5 541,-513.5 541,-494.5 467,-494.5"/>
<text text-anchor="middle" x="504" y="-501.5" font-family="Helvetica,sans-Serif" font-size="10.00">ListReceived</text>
</a>
</g>
</g>
<!-- Node14&#45;&gt;Node31 -->
<g id="edge31" class="edge"><title>Node14&#45;&gt;Node31</title>
<path fill="none" stroke="midnightblue" d="M361.549,-534.029C392.498,-527.459 436.123,-518.197 466.719,-511.702"/>
<polygon fill="midnightblue" stroke="midnightblue" points="360.632,-530.645 351.576,-536.146 362.085,-537.493 360.632,-530.645"/>
</g>
<!-- Node32 -->
<g id="node32" class="node"><title>Node32</title>
<g id="a_node32"><a xlink:href="class_c_wallet.html#a2b3585d31f7cda63b851db30b9b11fb4" target="_top" xlink:title="CWallet::GetUnconfirmedBalance">
<polygon fill="white" stroke="red" points="610,-605.5 610,-624.5 776,-624.5 776,-605.5 610,-605.5"/>
<text text-anchor="middle" x="693" y="-612.5" font-family="Helvetica,sans-Serif" font-size="10.00">CWallet::GetUnconfirmedBalance</text>
</a>
</g>
</g>
<!-- Node14&#45;&gt;Node32 -->
<g id="edge32" class="edge"><title>Node14&#45;&gt;Node32</title>
<path fill="none" stroke="midnightblue" d="M337.455,-559.665C356.171,-582.61 392.478,-621.552 434,-637 514.052,-666.783 617.394,-640.238 665.359,-624.572"/>
<polygon fill="midnightblue" stroke="midnightblue" points="340.125,-557.398 331.17,-551.737 334.64,-561.747 340.125,-557.398"/>
</g>
<!-- Node33 -->
<g id="node33" class="node"><title>Node33</title>
<g id="a_node33"><a xlink:href="class_c_wallet.html#a1c8d440c03e118feda5e6dd01adc0f18" target="_top" xlink:title="CWallet::GetUnconfirmedWatch\lOnlyBalance">
<polygon fill="white" stroke="red" points="614,-511 614,-541 772,-541 772,-511 614,-511"/>
<text text-anchor="start" x="622" y="-529" font-family="Helvetica,sans-Serif" font-size="10.00">CWallet::GetUnconfirmedWatch</text>
<text text-anchor="middle" x="693" y="-518" font-family="Helvetica,sans-Serif" font-size="10.00">OnlyBalance</text>
</a>
</g>
</g>
<!-- Node14&#45;&gt;Node33 -->
<g id="edge33" class="edge"><title>Node14&#45;&gt;Node33</title>
<path fill="none" stroke="midnightblue" d="M361.656,-540.363C420.659,-537.797 536.157,-532.776 613.721,-529.403"/>
<polygon fill="midnightblue" stroke="midnightblue" points="361.498,-536.866 351.66,-540.797 361.802,-543.86 361.498,-536.866"/>
</g>
<!-- Node34 -->
<g id="node34" class="node"><title>Node34</title>
<g id="a_node34"><a xlink:href="class_c_wallet.html#acf326816b2cf812e23b408b12854236b" target="_top" xlink:title="CWallet::AvailableCoins">
<polygon fill="white" stroke="red" points="631.5,-456.5 631.5,-475.5 754.5,-475.5 754.5,-456.5 631.5,-456.5"/>
<text text-anchor="middle" x="693" y="-463.5" font-family="Helvetica,sans-Serif" font-size="10.00">CWallet::AvailableCoins</text>
</a>
</g>
</g>
<!-- Node14&#45;&gt;Node34 -->
<g id="edge34" class="edge"><title>Node14&#45;&gt;Node34</title>
<path fill="none" stroke="midnightblue" d="M337.455,-524.335C356.171,-501.39 392.478,-462.448 434,-447 492.317,-425.303 511.976,-442.038 574,-447 597.166,-448.853 622.648,-452.721 643.985,-456.487"/>
<polygon fill="midnightblue" stroke="midnightblue" points="334.64,-522.253 331.17,-532.263 340.125,-526.602 334.64,-522.253"/>
</g>
<!-- Node35 -->
<g id="node35" class="node"><title>Node35</title>
<g id="a_node35"><a xlink:href="class_c_wallet.html#aadffdf5d0e2f2413cdcc2a39fc2e310d" target="_top" xlink:title="CWallet::GetAddressBalances">
<polygon fill="white" stroke="red" points="617.5,-418.5 617.5,-437.5 768.5,-437.5 768.5,-418.5 617.5,-418.5"/>
<text text-anchor="middle" x="693" y="-425.5" font-family="Helvetica,sans-Serif" font-size="10.00">CWallet::GetAddressBalances</text>
</a>
</g>
</g>
<!-- Node14&#45;&gt;Node35 -->
<g id="edge35" class="edge"><title>Node14&#45;&gt;Node35</title>
<path fill="none" stroke="midnightblue" d="M335.571,-523.828C353.191,-498.032 389.452,-451.84 434,-433 501.876,-404.294 589.05,-410.415 642.696,-418.458"/>
<polygon fill="midnightblue" stroke="midnightblue" points="332.549,-522.051 329.942,-532.32 338.384,-525.919 332.549,-522.051"/>
</g>
<!-- Node36 -->
<g id="node36" class="node"><title>Node36</title>
<g id="a_node36"><a xlink:href="class_c_wallet_tx.html#af2eff3b849af124cdf869fc03f587972" target="_top" xlink:title="CWalletTx::IsTrusted">
<polygon fill="white" stroke="red" points="449,-456.5 449,-475.5 559,-475.5 559,-456.5 449,-456.5"/>
<text text-anchor="middle" x="504" y="-463.5" font-family="Helvetica,sans-Serif" font-size="10.00">CWalletTx::IsTrusted</text>
</a>
</g>
</g>
<!-- Node14&#45;&gt;Node36 -->
<g id="edge36" class="edge"><title>Node14&#45;&gt;Node36</title>
<path fill="none" stroke="midnightblue" d="M348.826,-527.22C370.675,-514.684 403.645,-496.892 434,-485 443.139,-481.419 453.209,-478.239 462.764,-475.554"/>
<polygon fill="midnightblue" stroke="midnightblue" points="346.791,-524.355 339.902,-532.404 350.307,-530.407 346.791,-524.355"/>
</g>
<!-- Node16 -->
<g id="node16" class="node"><title>Node16</title>
<g id="a_node16"><a xlink:href="main_8h.html#a1032f75235456abfa96b63e34e7ee2cc" target="_top" xlink:title="(try to) add transaction to memory pool ">
<polygon fill="white" stroke="red" points="635.5,-725.5 635.5,-744.5 750.5,-744.5 750.5,-725.5 635.5,-725.5"/>
<text text-anchor="middle" x="693" y="-732.5" font-family="Helvetica,sans-Serif" font-size="10.00">AcceptToMemoryPool</text>
</a>
</g>
</g>
<!-- Node15&#45;&gt;Node16 -->
<g id="edge16" class="edge"><title>Node15&#45;&gt;Node16</title>
<path fill="none" stroke="midnightblue" d="M552.469,-732.762C577.739,-733.167 608.986,-733.668 635.499,-734.094"/>
<polygon fill="midnightblue" stroke="midnightblue" points="552.448,-729.261 542.393,-732.6 552.335,-736.26 552.448,-729.261"/>
</g>
<!-- Node18 -->
<g id="node18" class="node"><title>Node18</title>
<g id="a_node18"><a xlink:href="main_8h.html#a87a59e710c26c4a10de57b5acb1e2e92" target="_top" xlink:title="Process an incoming block. ">
<polygon fill="white" stroke="red" points="654.5,-190.5 654.5,-209.5 731.5,-209.5 731.5,-190.5 654.5,-190.5"/>
<text text-anchor="middle" x="693" y="-197.5" font-family="Helvetica,sans-Serif" font-size="10.00">ProcessBlock</text>
</a>
</g>
</g>
<!-- Node17&#45;&gt;Node18 -->
<g id="edge18" class="edge"><title>Node17&#45;&gt;Node18</title>
<path fill="none" stroke="midnightblue" d="M550.142,-228.827C582.055,-222.342 624.338,-213.749 654.418,-207.637"/>
<polygon fill="midnightblue" stroke="midnightblue" points="549.276,-225.431 540.173,-230.852 550.67,-232.291 549.276,-225.431"/>
</g>
<!-- Node20 -->
<g id="node20" class="node"><title>Node20</title>
<g id="a_node20"><a xlink:href="rpcmining_8cpp.html#a27347eecedd59156c914fcb5ce488f9a" target="_top" xlink:title="getblocktemplate">
<polygon fill="white" stroke="black" points="821.5,-247.5 821.5,-266.5 913.5,-266.5 913.5,-247.5 821.5,-247.5"/>
<text text-anchor="middle" x="867.5" y="-254.5" font-family="Helvetica,sans-Serif" font-size="10.00">getblocktemplate</text>
</a>
</g>
</g>
<!-- Node19&#45;&gt;Node20 -->
<g id="edge20" class="edge"><title>Node19&#45;&gt;Node20</title>
<path fill="none" stroke="midnightblue" d="M748.963,-269.946C772.274,-267.379 799.113,-264.422 821.253,-261.984"/>
<polygon fill="midnightblue" stroke="midnightblue" points="748.429,-266.484 738.872,-271.058 749.195,-273.442 748.429,-266.484"/>
</g>
<!-- Node22 -->
<g id="node22" class="node"><title>Node22</title>
<g id="a_node22"><a xlink:href="class_transaction_desc.html#ab7c9dbb2048aae121dd9d75df86e64f4" target="_top" xlink:title="TransactionDesc::toHTML">
<polygon fill="white" stroke="red" points="626.5,-804.5 626.5,-823.5 759.5,-823.5 759.5,-804.5 626.5,-804.5"/>
<text text-anchor="middle" x="693" y="-811.5" font-family="Helvetica,sans-Serif" font-size="10.00">TransactionDesc::toHTML</text>
</a>
</g>
</g>
<!-- Node21&#45;&gt;Node22 -->
<g id="edge22" class="edge"><title>Node21&#45;&gt;Node22</title>
<path fill="none" stroke="midnightblue" d="M584.213,-814C598.233,-814 612.692,-814 626.289,-814"/>
<polygon fill="midnightblue" stroke="midnightblue" points="584.101,-810.5 574.101,-814 584.101,-817.5 584.101,-810.5"/>
</g>
<!-- Node24 -->
<g id="node24" class="node"><title>Node24</title>
<g id="a_node24"><a xlink:href="class_transaction_table_priv.html#ac692aa6aa7820e80accc971c70e0fae5" target="_top" xlink:title="TransactionTablePriv\l::index">
<polygon fill="white" stroke="red" points="812,-676 812,-706 923,-706 923,-676 812,-676"/>
<text text-anchor="start" x="820" y="-694" font-family="Helvetica,sans-Serif" font-size="10.00">TransactionTablePriv</text>
<text text-anchor="middle" x="867.5" y="-683" font-family="Helvetica,sans-Serif" font-size="10.00">::index</text>
</a>
</g>
</g>
<!-- Node23&#45;&gt;Node24 -->
<g id="edge24" class="edge"><title>Node23&#45;&gt;Node24</title>
<path fill="none" stroke="midnightblue" d="M756.804,-691C774.8,-691 794.27,-691 811.742,-691"/>
<polygon fill="midnightblue" stroke="midnightblue" points="756.693,-687.5 746.693,-691 756.693,-694.5 756.693,-687.5"/>
</g>
<!-- Node28 -->
<g id="node28" class="node"><title>Node28</title>
<g id="a_node28"><a xlink:href="rpcwallet_8cpp.html#af46abb4dba0774b0027591d6e3b30b1e" target="_top" xlink:title="GetAccountBalance">
<polygon fill="white" stroke="black" points="640.5,-304.5 640.5,-323.5 745.5,-323.5 745.5,-304.5 640.5,-304.5"/>
<text text-anchor="middle" x="693" y="-311.5" font-family="Helvetica,sans-Serif" font-size="10.00">GetAccountBalance</text>
</a>
</g>
</g>
<!-- Node27&#45;&gt;Node28 -->
<g id="edge28" class="edge"><title>Node27&#45;&gt;Node28</title>
<path fill="none" stroke="midnightblue" d="M562.131,-340.39C588.727,-334.986 619.973,-328.636 645.151,-323.52"/>
<polygon fill="midnightblue" stroke="midnightblue" points="561.291,-336.99 552.188,-342.411 562.685,-343.849 561.291,-336.99"/>
</g>
<!-- Node29 -->
<g id="node29" class="node"><title>Node29</title>
<g id="a_node29"><a xlink:href="rpcwallet_8cpp.html#a1fdcef480c78c033eb587bd442ec305f" target="_top" xlink:title="getbalance">
<polygon fill="white" stroke="black" points="660.5,-380.5 660.5,-399.5 725.5,-399.5 725.5,-380.5 660.5,-380.5"/>
<text text-anchor="middle" x="693" y="-387.5" font-family="Helvetica,sans-Serif" font-size="10.00">getbalance</text>
</a>
</g>
</g>
<!-- Node27&#45;&gt;Node29 -->
<g id="edge29" class="edge"><title>Node27&#45;&gt;Node29</title>
<path fill="none" stroke="midnightblue" d="M562.396,-363.663C594.643,-370.216 633.659,-378.145 660.404,-383.579"/>
<polygon fill="midnightblue" stroke="midnightblue" points="562.685,-360.151 552.188,-361.589 561.291,-367.01 562.685,-360.151"/>
</g>
<!-- Node30 -->
<g id="node30" class="node"><title>Node30</title>
<g id="a_node30"><a xlink:href="rpcwallet_8cpp.html#a845eaefd9ec7752b1145c183205524d0" target="_top" xlink:title="sendfrom">
<polygon fill="white" stroke="black" points="664,-342.5 664,-361.5 722,-361.5 722,-342.5 664,-342.5"/>
<text text-anchor="middle" x="693" y="-349.5" font-family="Helvetica,sans-Serif" font-size="10.00">sendfrom</text>
</a>
</g>
</g>
<!-- Node27&#45;&gt;Node30 -->
<g id="edge30" class="edge"><title>Node27&#45;&gt;Node30</title>
<path fill="none" stroke="midnightblue" d="M566.981,-352C599.678,-352 638.198,-352 663.751,-352"/>
<polygon fill="midnightblue" stroke="midnightblue" points="566.594,-348.5 556.594,-352 566.594,-355.5 566.594,-348.5"/>
</g>
<!-- Node36&#45;&gt;Node23 -->
<g id="edge37" class="edge"><title>Node36&#45;&gt;Node23</title>
<path fill="none" stroke="midnightblue" d="M567.961,-479.804C570.12,-481.361 572.147,-483.087 574,-485 621.406,-533.929 571.52,-577.78 610,-634 622.339,-652.027 642.396,-666.117 659.585,-675.778"/>
<polygon fill="midnightblue" stroke="midnightblue" points="569.473,-476.633 559.074,-474.601 565.936,-482.674 569.473,-476.633"/>
</g>
<!-- Node36&#45;&gt;Node29 -->
<g id="edge38" class="edge"><title>Node36&#45;&gt;Node29</title>
<path fill="none" stroke="midnightblue" d="M528.411,-450.896C549.132,-438.122 580.568,-420.163 610,-409 626.123,-402.885 644.805,-398.37 660.261,-395.28"/>
<polygon fill="midnightblue" stroke="midnightblue" points="526.308,-448.084 519.69,-456.358 530.023,-454.016 526.308,-448.084"/>
</g>
<!-- Node36&#45;&gt;Node32 -->
<g id="edge39" class="edge"><title>Node36&#45;&gt;Node32</title>
<path fill="none" stroke="midnightblue" d="M566.706,-480.092C569.264,-481.568 571.712,-483.199 574,-485 599.949,-505.426 588.646,-524.809 610,-550 629.735,-573.28 658.882,-593.998 676.589,-605.491"/>
<polygon fill="midnightblue" stroke="midnightblue" points="568.168,-476.911 557.649,-475.644 565.082,-483.194 568.168,-476.911"/>
</g>
<!-- Node36&#45;&gt;Node33 -->
<g id="edge40" class="edge"><title>Node36&#45;&gt;Node33</title>
<path fill="none" stroke="midnightblue" d="M551.189,-478.267C558.834,-480.426 566.658,-482.716 574,-485 599.679,-492.987 628.167,-502.856 650.717,-510.91"/>
<polygon fill="midnightblue" stroke="midnightblue" points="551.871,-474.824 541.299,-475.514 549.995,-481.568 551.871,-474.824"/>
</g>
<!-- Node36&#45;&gt;Node34 -->
<g id="edge41" class="edge"><title>Node36&#45;&gt;Node34</title>
<path fill="none" stroke="midnightblue" d="M569.126,-466C589.315,-466 611.537,-466 631.468,-466"/>
<polygon fill="midnightblue" stroke="midnightblue" points="569.088,-462.5 559.088,-466 569.088,-469.5 569.088,-462.5"/>
</g>
<!-- Node36&#45;&gt;Node35 -->
<g id="edge42" class="edge"><title>Node36&#45;&gt;Node35</title>
<path fill="none" stroke="midnightblue" d="M562.131,-454.39C588.727,-448.986 619.973,-442.636 645.151,-437.52"/>
<polygon fill="midnightblue" stroke="midnightblue" points="561.291,-450.99 552.188,-456.411 562.685,-457.849 561.291,-450.99"/>
</g>
<!-- Node37&#45;&gt;Node19 -->
<g id="edge44" class="edge"><title>Node37&#45;&gt;Node19</title>
<path fill="none" stroke="midnightblue" d="M549.76,-276C579.242,-276 617.699,-276 647.191,-276"/>
<polygon fill="midnightblue" stroke="midnightblue" points="549.735,-272.5 539.735,-276 549.735,-279.5 549.735,-272.5"/>
</g>
<!-- Node37&#45;&gt;Node20 -->
<g id="edge45" class="edge"><title>Node37&#45;&gt;Node20</title>
<path fill="none" stroke="midnightblue" d="M549.724,-266.085C568.272,-262.449 590.073,-258.788 610,-257 683.848,-250.372 770.137,-252.366 821.446,-254.57"/>
<polygon fill="midnightblue" stroke="midnightblue" points="548.897,-262.681 539.787,-268.09 550.282,-269.543 548.897,-262.681"/>
</g>
<!-- Node38&#45;&gt;Node18 -->
<g id="edge50" class="edge"><title>Node38&#45;&gt;Node18</title>
<path fill="none" stroke="midnightblue" d="M367.861,-183.265C440.847,-187.033 585.967,-194.525 654.499,-198.064"/>
<polygon fill="midnightblue" stroke="midnightblue" points="367.8,-179.757 357.633,-182.736 367.439,-186.748 367.8,-179.757"/>
</g>
<!-- Node39 -->
<g id="node39" class="node"><title>Node39</title>
<g id="a_node39"><a xlink:href="main_8h.html#ae478a2e37bd5c3ac735f30cc12cc7f8b" target="_top" xlink:title="ConnectBlock">
<polygon fill="white" stroke="black" points="465,-152.5 465,-171.5 543,-171.5 543,-152.5 465,-152.5"/>
<text text-anchor="middle" x="504" y="-159.5" font-family="Helvetica,sans-Serif" font-size="10.00">ConnectBlock</text>
</a>
</g>
</g>
<!-- Node38&#45;&gt;Node39 -->
<g id="edge47" class="edge"><title>Node38&#45;&gt;Node39</title>
<path fill="none" stroke="midnightblue" d="M367.762,-176.355C397.471,-173.201 436.377,-169.072 464.828,-166.052"/>
<polygon fill="midnightblue" stroke="midnightblue" points="367.243,-172.89 357.669,-177.426 367.982,-179.851 367.243,-172.89"/>
</g>
<!-- Node40 -->
<g id="node40" class="node"><title>Node40</title>
<g id="a_node40"><a xlink:href="main_8h.html#abfcd613b1eaa02bc626b1c3cb098fc4a" target="_top" xlink:title="Verify consistency of the block and coin databases. ">
<polygon fill="white" stroke="red" points="665,-133.5 665,-152.5 721,-152.5 721,-133.5 665,-133.5"/>
<text text-anchor="middle" x="693" y="-140.5" font-family="Helvetica,sans-Serif" font-size="10.00">VerifyDB</text>
</a>
</g>
</g>
<!-- Node38&#45;&gt;Node40 -->
<g id="edge51" class="edge"><title>Node38&#45;&gt;Node40</title>
<path fill="none" stroke="midnightblue" d="M364.474,-168.336C375.399,-164.792 387.188,-160.852 398,-157 414.172,-151.238 417.127,-146.165 434,-143 516.985,-127.432 617.644,-134.79 664.956,-139.753"/>
<polygon fill="midnightblue" stroke="midnightblue" points="363.185,-165.074 354.736,-171.466 365.327,-171.738 363.185,-165.074"/>
</g>
<!-- Node39&#45;&gt;Node19 -->
<g id="edge49" class="edge"><title>Node39&#45;&gt;Node19</title>
<path fill="none" stroke="midnightblue" d="M529.245,-176.78C568.192,-200.523 643.628,-246.511 676.291,-266.423"/>
<polygon fill="midnightblue" stroke="midnightblue" points="530.982,-173.74 520.622,-171.523 527.338,-179.717 530.982,-173.74"/>
</g>
<!-- Node39&#45;&gt;Node40 -->
<g id="edge48" class="edge"><title>Node39&#45;&gt;Node40</title>
<path fill="none" stroke="midnightblue" d="M553.446,-157.078C588.948,-153.471 635.837,-148.706 664.947,-145.749"/>
<polygon fill="midnightblue" stroke="midnightblue" points="552.888,-153.616 543.293,-158.109 553.596,-160.58 552.888,-153.616"/>
</g>
<!-- Node42 -->
<g id="node42" class="node"><title>Node42</title>
<g id="a_node42"><a xlink:href="main_8h.html#a711a5bdb30c9c9bbdc83011b1cbbe2f3" target="_top" xlink:title="Send queued protocol messages to be sent to a give node. ">
<polygon fill="white" stroke="red" points="461.5,-76.5 461.5,-95.5 546.5,-95.5 546.5,-76.5 461.5,-76.5"/>
<text text-anchor="middle" x="504" y="-83.5" font-family="Helvetica,sans-Serif" font-size="10.00">SendMessages</text>
</a>
</g>
</g>
<!-- Node41&#45;&gt;Node42 -->
<g id="edge53" class="edge"><title>Node41&#45;&gt;Node42</title>
<path fill="none" stroke="midnightblue" d="M366.709,-125.593C398.404,-116.385 440.993,-104.013 470.074,-95.565"/>
<polygon fill="midnightblue" stroke="midnightblue" points="365.458,-122.312 356.831,-128.462 367.411,-129.034 365.458,-122.312"/>
</g>
<!-- Node41&#45;&gt;Node43 -->
<g id="edge54" class="edge"><title>Node41&#45;&gt;Node43</title>
<path fill="none" stroke="midnightblue" d="M378.003,-124.778C385.059,-121.842 391.934,-118.288 398,-114 419.485,-98.8104 412.179,-81.7033 434,-67 439.77,-63.1119 446.318,-60.0157 453.027,-57.5509"/>
<polygon fill="midnightblue" stroke="midnightblue" points="376.458,-121.619 368.327,-128.411 378.919,-128.173 376.458,-121.619"/>
</g>
<!-- Node44 -->
<g id="node44" class="node"><title>Node44</title>
<g id="a_node44"><a xlink:href="class_c_node.html#a51556705550511146245b9fb2fec09c1" target="_top" xlink:title="CNode::CNode">
<polygon fill="white" stroke="black" points="651,-38.5 651,-57.5 735,-57.5 735,-38.5 651,-38.5"/>
<text text-anchor="middle" x="693" y="-45.5" font-family="Helvetica,sans-Serif" font-size="10.00">CNode::CNode</text>
</a>
</g>
</g>
<!-- Node43&#45;&gt;Node44 -->
<g id="edge55" class="edge"><title>Node43&#45;&gt;Node44</title>
<path fill="none" stroke="midnightblue" d="M569.243,-48C596.259,-48 626.898,-48 650.808,-48"/>
<polygon fill="midnightblue" stroke="midnightblue" points="569.088,-44.5001 559.088,-48 569.088,-51.5001 569.088,-44.5001"/>
</g>
<!-- Node46 -->
<g id="node46" class="node"><title>Node46</title>
<g id="a_node46"><a xlink:href="net_8cpp.html#aa19cb8e6cf23a990e585f2bbf9ece276" target="_top" xlink:title="OpenNetworkConnection">
<polygon fill="white" stroke="red" points="440,-924.5 440,-943.5 568,-943.5 568,-924.5 440,-924.5"/>
<text text-anchor="middle" x="504" y="-931.5" font-family="Helvetica,sans-Serif" font-size="10.00">OpenNetworkConnection</text>
</a>
</g>
</g>
<!-- Node45&#45;&gt;Node46 -->
<g id="edge57" class="edge"><title>Node45&#45;&gt;Node46</title>
<path fill="none" stroke="midnightblue" d="M372.531,-934C393.206,-934 417.601,-934 439.668,-934"/>
<polygon fill="midnightblue" stroke="midnightblue" points="372.4,-930.5 362.4,-934 372.4,-937.5 372.4,-930.5"/>
</g>
<!-- Node47 -->
<g id="node47" class="node"><title>Node47</title>
<g id="a_node47"><a xlink:href="rpcnet_8cpp.html#ab455bfd729ba34d3bb55b716e62405a3" target="_top" xlink:title="addnode">
<polygon fill="white" stroke="black" points="476.5,-886.5 476.5,-905.5 531.5,-905.5 531.5,-886.5 476.5,-886.5"/>
<text text-anchor="middle" x="504" y="-893.5" font-family="Helvetica,sans-Serif" font-size="10.00">addnode</text>
</a>
</g>
</g>
<!-- Node45&#45;&gt;Node47 -->
<g id="edge59" class="edge"><title>Node45&#45;&gt;Node47</title>
<path fill="none" stroke="midnightblue" d="M372.419,-923.721C405.801,-916.635 448.919,-907.481 476.276,-901.673"/>
<polygon fill="midnightblue" stroke="midnightblue" points="371.455,-920.348 362.4,-925.848 372.909,-927.195 371.455,-920.348"/>
</g>
<!-- Node46&#45;&gt;Node9 -->
<g id="edge58" class="edge"><title>Node46&#45;&gt;Node9</title>
<path fill="none" stroke="midnightblue" d="M578.321,-930.079C595.039,-929.185 612.66,-928.243 628.907,-927.374"/>
<polygon fill="midnightblue" stroke="midnightblue" points="577.848,-926.599 568.049,-930.628 578.222,-933.589 577.848,-926.599"/>
</g>
<!-- Node50 -->
<g id="node50" class="node"><title>Node50</title>
<g id="a_node50"><a xlink:href="walletdb_8cpp.html#ad1f171cf096f5479805a06fc20480343" target="_top" xlink:title="ReadKeyValue">
<polygon fill="white" stroke="red" points="462.5,-0.5 462.5,-19.5 545.5,-19.5 545.5,-0.5 462.5,-0.5"/>
<text text-anchor="middle" x="504" y="-7.5" font-family="Helvetica,sans-Serif" font-size="10.00">ReadKeyValue</text>
</a>
</g>
</g>
<!-- Node49&#45;&gt;Node50 -->
<g id="edge66" class="edge"><title>Node49&#45;&gt;Node50</title>
<path fill="none" stroke="midnightblue" d="M390.336,-13.1471C414.511,-12.4718 441.107,-11.7288 462.386,-11.1345"/>
<polygon fill="midnightblue" stroke="midnightblue" points="390.044,-9.65374 380.146,-13.4317 390.239,-16.651 390.044,-9.65374"/>
</g>
</g>
</svg>
