<?xml version="1.0" encoding="UTF-8" standalone="no"?>
<!DOCTYPE svg PUBLIC "-//W3C//DTD SVG 1.1//EN"
 "http://www.w3.org/Graphics/SVG/1.1/DTD/svg11.dtd">
<!-- Generated by graphviz version 2.38.0 (20140413.2041)
 -->
<!-- Title: RandAddSeedPerfmon Pages: 1 -->
<svg width="648pt" height="142pt"
 viewBox="0.00 0.00 648.00 142.00" xmlns="http://www.w3.org/2000/svg" xmlns:xlink="http://www.w3.org/1999/xlink">
<g id="graph0" class="graph" transform="scale(1 1) rotate(0) translate(4 138)">
<title>RandAddSeedPerfmon</title>
<polygon fill="white" stroke="none" points="-4,4 -4,-138 644,-138 644,4 -4,4"/>
<!-- Node1 -->
<g id="node1" class="node"><title>Node1</title>
<polygon fill="#bfbfbf" stroke="black" points="0,-57.5 0,-76.5 119,-76.5 119,-57.5 0,-57.5"/>
<text text-anchor="middle" x="59.5" y="-64.5" font-family="Helvetica,sans-Serif" font-size="10.00">RandAddSeedPerfmon</text>
</g>
<!-- Node2 -->
<g id="node2" class="node"><title>Node2</title>
<g id="a_node2"><a xlink:href="init_8h.html#a1a4c1bfbf6ba1db77e988b89b9cadfd3" target="_top" xlink:title="Initialize anoncoin. ">
<polygon fill="white" stroke="black" points="196.5,-95.5 196.5,-114.5 249.5,-114.5 249.5,-95.5 196.5,-95.5"/>
<text text-anchor="middle" x="223" y="-102.5" font-family="Helvetica,sans-Serif" font-size="10.00">AppInit2</text>
</a>
</g>
</g>
<!-- Node1&#45;&gt;Node2 -->
<g id="edge1" class="edge"><title>Node1&#45;&gt;Node2</title>
<path fill="none" stroke="midnightblue" d="M111.013,-78.8854C139.37,-85.5577 173.543,-93.5982 196.41,-98.9788"/>
<polygon fill="midnightblue" stroke="midnightblue" points="111.789,-75.4725 101.253,-76.589 110.186,-82.2864 111.789,-75.4725"/>
</g>
<!-- Node6 -->
<g id="node6" class="node"><title>Node6</title>
<g id="a_node6"><a xlink:href="class_c_wallet.html#a061fe7f54f80ec40f856b3e6365c2f4a" target="_top" xlink:title="CWallet::GenerateNewKey">
<polygon fill="white" stroke="black" points="155,-57.5 155,-76.5 291,-76.5 291,-57.5 155,-57.5"/>
<text text-anchor="middle" x="223" y="-64.5" font-family="Helvetica,sans-Serif" font-size="10.00">CWallet::GenerateNewKey</text>
</a>
</g>
</g>
<!-- Node1&#45;&gt;Node6 -->
<g id="edge5" class="edge"><title>Node1&#45;&gt;Node6</title>
<path fill="none" stroke="midnightblue" d="M129.41,-67C137.822,-67 146.409,-67 154.796,-67"/>
<polygon fill="midnightblue" stroke="midnightblue" points="129.262,-63.5001 119.262,-67 129.262,-70.5001 129.262,-63.5001"/>
</g>
<!-- Node7 -->
<g id="node7" class="node"><title>Node7</title>
<g id="a_node7"><a xlink:href="class_c_wallet.html#ab34fe5bf771619dcbe22a65f013e5469" target="_top" xlink:title="CWallet::EncryptWallet">
<polygon fill="white" stroke="black" points="163.5,-19.5 163.5,-38.5 282.5,-38.5 282.5,-19.5 163.5,-19.5"/>
<text text-anchor="middle" x="223" y="-26.5" font-family="Helvetica,sans-Serif" font-size="10.00">CWallet::EncryptWallet</text>
</a>
</g>
</g>
<!-- Node1&#45;&gt;Node7 -->
<g id="edge6" class="edge"><title>Node1&#45;&gt;Node7</title>
<path fill="none" stroke="midnightblue" d="M111.058,-55.1039C133.759,-49.7626 160.178,-43.5463 181.54,-38.5201"/>
<polygon fill="midnightblue" stroke="midnightblue" points="110.186,-51.7136 101.253,-57.411 111.789,-58.5275 110.186,-51.7136"/>
</g>
<!-- Node3 -->
<g id="node3" class="node"><title>Node3</title>
<g id="a_node3"><a xlink:href="anoncoind_8cpp.html#ac59316b767e6984e1285f0531275286b" target="_top" xlink:title="AppInit">
<polygon fill="white" stroke="black" points="384.5,-114.5 384.5,-133.5 432.5,-133.5 432.5,-114.5 384.5,-114.5"/>
<text text-anchor="middle" x="408.5" y="-121.5" font-family="Helvetica,sans-Serif" font-size="10.00">AppInit</text>
</a>
</g>
</g>
<!-- Node2&#45;&gt;Node3 -->
<g id="edge2" class="edge"><title>Node2&#45;&gt;Node3</title>
<path fill="none" stroke="midnightblue" d="M259.803,-108.707C296.605,-112.518 352.833,-118.34 384.231,-121.591"/>
<polygon fill="midnightblue" stroke="midnightblue" points="259.822,-105.19 249.515,-107.642 259.101,-112.153 259.822,-105.19"/>
</g>
<!-- Node5 -->
<g id="node5" class="node"><title>Node5</title>
<g id="a_node5"><a xlink:href="class_anoncoin_coin.html#a9510881824d283404ac43414dbb74586" target="_top" xlink:title="AnoncoinCoin::initialize">
<polygon fill="white" stroke="black" points="348.5,-76.5 348.5,-95.5 468.5,-95.5 468.5,-76.5 348.5,-76.5"/>
<text text-anchor="middle" x="408.5" y="-83.5" font-family="Helvetica,sans-Serif" font-size="10.00">AnoncoinCoin::initialize</text>
</a>
</g>
</g>
<!-- Node2&#45;&gt;Node5 -->
<g id="edge4" class="edge"><title>Node2&#45;&gt;Node5</title>
<path fill="none" stroke="midnightblue" d="M259.682,-101.305C284.799,-98.7047 319.009,-95.1626 348.192,-92.1409"/>
<polygon fill="midnightblue" stroke="midnightblue" points="259.101,-97.8467 249.515,-102.358 259.822,-104.81 259.101,-97.8467"/>
</g>
<!-- Node4 -->
<g id="node4" class="node"><title>Node4</title>
<g id="a_node4"><a xlink:href="anoncoind_8cpp.html#a0ddf1224851353fc92bfbff6f499fa97" target="_top" xlink:title="main">
<polygon fill="white" stroke="black" points="564,-114.5 564,-133.5 602,-133.5 602,-114.5 564,-114.5"/>
<text text-anchor="middle" x="583" y="-121.5" font-family="Helvetica,sans-Serif" font-size="10.00">main</text>
</a>
</g>
</g>
<!-- Node3&#45;&gt;Node4 -->
<g id="edge3" class="edge"><title>Node3&#45;&gt;Node4</title>
<path fill="none" stroke="midnightblue" d="M442.815,-124C478.897,-124 535.135,-124 563.827,-124"/>
<polygon fill="midnightblue" stroke="midnightblue" points="442.764,-120.5 432.764,-124 442.764,-127.5 442.764,-120.5"/>
</g>
<!-- Node8 -->
<g id="node8" class="node"><title>Node8</title>
<g id="a_node8"><a xlink:href="class_wallet_model.html#a444340830badcd48e3a4dd6b03d9c4d7" target="_top" xlink:title="WalletModel::setWalletEncrypted">
<polygon fill="white" stroke="black" points="327,-38.5 327,-57.5 490,-57.5 490,-38.5 327,-38.5"/>
<text text-anchor="middle" x="408.5" y="-45.5" font-family="Helvetica,sans-Serif" font-size="10.00">WalletModel::setWalletEncrypted</text>
</a>
</g>
</g>
<!-- Node7&#45;&gt;Node8 -->
<g id="edge7" class="edge"><title>Node7&#45;&gt;Node8</title>
<path fill="none" stroke="midnightblue" d="M292.625,-36.1056C303.75,-37.2575 315.36,-38.4596 326.741,-39.638"/>
<polygon fill="midnightblue" stroke="midnightblue" points="292.872,-32.6126 282.565,-35.064 292.151,-39.5754 292.872,-32.6126"/>
</g>
<!-- Node10 -->
<g id="node10" class="node"><title>Node10</title>
<g id="a_node10"><a xlink:href="rpcwallet_8cpp.html#a5fb49bac2748015a256c63e9f8ccc539" target="_top" xlink:title="encryptwallet">
<polygon fill="white" stroke="black" points="371,-0.5 371,-19.5 446,-19.5 446,-0.5 371,-0.5"/>
<text text-anchor="middle" x="408.5" y="-7.5" font-family="Helvetica,sans-Serif" font-size="10.00">encryptwallet</text>
</a>
</g>
</g>
<!-- Node7&#45;&gt;Node10 -->
<g id="edge9" class="edge"><title>Node7&#45;&gt;Node10</title>
<path fill="none" stroke="midnightblue" d="M292.579,-21.8992C319.114,-19.1517 348.415,-16.1177 370.79,-13.801"/>
<polygon fill="midnightblue" stroke="midnightblue" points="292.151,-18.4246 282.565,-22.936 292.872,-25.3874 292.151,-18.4246"/>
</g>
<!-- Node9 -->
<g id="node9" class="node"><title>Node9</title>
<g id="a_node9"><a xlink:href="class_ask_passphrase_dialog.html#ac2f176af3693b73870d26ef0bfc6cbb9" target="_top" xlink:title="AskPassphraseDialog\l::accept">
<polygon fill="white" stroke="black" points="526,-33 526,-63 640,-63 640,-33 526,-33"/>
<text text-anchor="start" x="534" y="-51" font-family="Helvetica,sans-Serif" font-size="10.00">AskPassphraseDialog</text>
<text text-anchor="middle" x="583" y="-40" font-family="Helvetica,sans-Serif" font-size="10.00">::accept</text>
</a>
</g>
</g>
<!-- Node8&#45;&gt;Node9 -->
<g id="edge8" class="edge"><title>Node8&#45;&gt;Node9</title>
<path fill="none" stroke="midnightblue" d="M500.418,-48C509.12,-48 517.758,-48 525.977,-48"/>
<polygon fill="midnightblue" stroke="midnightblue" points="500.194,-44.5001 490.194,-48 500.194,-51.5001 500.194,-44.5001"/>
</g>
</g>
</svg>
