<?xml version="1.0" encoding="UTF-8" standalone="no"?>
<!DOCTYPE svg PUBLIC "-//W3C//DTD SVG 1.1//EN"
 "http://www.w3.org/Graphics/SVG/1.1/DTD/svg11.dtd">
<!-- Generated by graphviz version 2.38.0 (20140413.2041)
 -->
<!-- Title: GetPerformanceCounter Pages: 1 -->
<svg width="927pt" height="142pt"
 viewBox="0.00 0.00 927.00 142.00" xmlns="http://www.w3.org/2000/svg" xmlns:xlink="http://www.w3.org/1999/xlink">
<g id="graph0" class="graph" transform="scale(1 1) rotate(0) translate(4 138)">
<title>GetPerformanceCounter</title>
<polygon fill="white" stroke="none" points="-4,4 -4,-138 923,-138 923,4 -4,4"/>
<!-- Node1 -->
<g id="node1" class="node"><title>Node1</title>
<polygon fill="#bfbfbf" stroke="black" points="0,-76.5 0,-95.5 125,-95.5 125,-76.5 0,-76.5"/>
<text text-anchor="middle" x="62.5" y="-83.5" font-family="Helvetica,sans-Serif" font-size="10.00">GetPerformanceCounter</text>
</g>
<!-- Node2 -->
<g id="node2" class="node"><title>Node2</title>
<g id="a_node2"><a xlink:href="util_8h.html#ab699fbdf803610a4e2060fd87787f7e0" target="_top" xlink:title="RandAddSeed">
<polygon fill="white" stroke="black" points="161,-76.5 161,-95.5 243,-95.5 243,-76.5 161,-76.5"/>
<text text-anchor="middle" x="202" y="-83.5" font-family="Helvetica,sans-Serif" font-size="10.00">RandAddSeed</text>
</a>
</g>
</g>
<!-- Node1&#45;&gt;Node2 -->
<g id="edge1" class="edge"><title>Node1&#45;&gt;Node2</title>
<path fill="none" stroke="midnightblue" d="M135.019,-86C143.889,-86 152.697,-86 160.851,-86"/>
<polygon fill="midnightblue" stroke="midnightblue" points="135.011,-82.5001 125.011,-86 135.011,-89.5001 135.011,-82.5001"/>
</g>
<!-- Node3 -->
<g id="node3" class="node"><title>Node3</title>
<g id="a_node3"><a xlink:href="class_c_init.html#a4be18861132e828f5f0101880d04b706" target="_top" xlink:title="CInit::CInit">
<polygon fill="white" stroke="black" points="307,-95.5 307,-114.5 370,-114.5 370,-95.5 307,-95.5"/>
<text text-anchor="middle" x="338.5" y="-102.5" font-family="Helvetica,sans-Serif" font-size="10.00">CInit::CInit</text>
</a>
</g>
</g>
<!-- Node2&#45;&gt;Node3 -->
<g id="edge2" class="edge"><title>Node2&#45;&gt;Node3</title>
<path fill="none" stroke="midnightblue" d="M253.607,-93.1489C271.415,-95.6646 290.886,-98.4151 306.582,-100.632"/>
<polygon fill="midnightblue" stroke="midnightblue" points="253.746,-89.6339 243.354,-91.7006 252.767,-96.5651 253.746,-89.6339"/>
</g>
<!-- Node4 -->
<g id="node4" class="node"><title>Node4</title>
<g id="a_node4"><a xlink:href="util_8h.html#a786af12a87491f8dc24351d93b9833b6" target="_top" xlink:title="RandAddSeedPerfmon">
<polygon fill="white" stroke="black" points="279,-57.5 279,-76.5 398,-76.5 398,-57.5 279,-57.5"/>
<text text-anchor="middle" x="338.5" y="-64.5" font-family="Helvetica,sans-Serif" font-size="10.00">RandAddSeedPerfmon</text>
</a>
</g>
</g>
<!-- Node2&#45;&gt;Node4 -->
<g id="edge3" class="edge"><title>Node2&#45;&gt;Node4</title>
<path fill="none" stroke="midnightblue" d="M253.275,-78.8979C261.59,-77.7233 270.275,-76.4965 278.775,-75.2957"/>
<polygon fill="midnightblue" stroke="midnightblue" points="252.767,-75.4349 243.354,-80.2994 253.746,-82.3661 252.767,-75.4349"/>
</g>
<!-- Node5 -->
<g id="node5" class="node"><title>Node5</title>
<g id="a_node5"><a xlink:href="init_8h.html#a1a4c1bfbf6ba1db77e988b89b9cadfd3" target="_top" xlink:title="Initialize anoncoin. ">
<polygon fill="white" stroke="black" points="475.5,-95.5 475.5,-114.5 528.5,-114.5 528.5,-95.5 475.5,-95.5"/>
<text text-anchor="middle" x="502" y="-102.5" font-family="Helvetica,sans-Serif" font-size="10.00">AppInit2</text>
</a>
</g>
</g>
<!-- Node4&#45;&gt;Node5 -->
<g id="edge4" class="edge"><title>Node4&#45;&gt;Node5</title>
<path fill="none" stroke="midnightblue" d="M390.013,-78.8854C418.37,-85.5577 452.543,-93.5982 475.41,-98.9788"/>
<polygon fill="midnightblue" stroke="midnightblue" points="390.789,-75.4725 380.253,-76.589 389.186,-82.2864 390.789,-75.4725"/>
</g>
<!-- Node9 -->
<g id="node9" class="node"><title>Node9</title>
<g id="a_node9"><a xlink:href="class_c_wallet.html#a061fe7f54f80ec40f856b3e6365c2f4a" target="_top" xlink:title="CWallet::GenerateNewKey">
<polygon fill="white" stroke="black" points="434,-57.5 434,-76.5 570,-76.5 570,-57.5 434,-57.5"/>
<text text-anchor="middle" x="502" y="-64.5" font-family="Helvetica,sans-Serif" font-size="10.00">CWallet::GenerateNewKey</text>
</a>
</g>
</g>
<!-- Node4&#45;&gt;Node9 -->
<g id="edge8" class="edge"><title>Node4&#45;&gt;Node9</title>
<path fill="none" stroke="midnightblue" d="M408.41,-67C416.822,-67 425.409,-67 433.796,-67"/>
<polygon fill="midnightblue" stroke="midnightblue" points="408.262,-63.5001 398.262,-67 408.262,-70.5001 408.262,-63.5001"/>
</g>
<!-- Node10 -->
<g id="node10" class="node"><title>Node10</title>
<g id="a_node10"><a xlink:href="class_c_wallet.html#ab34fe5bf771619dcbe22a65f013e5469" target="_top" xlink:title="CWallet::EncryptWallet">
<polygon fill="white" stroke="black" points="442.5,-19.5 442.5,-38.5 561.5,-38.5 561.5,-19.5 442.5,-19.5"/>
<text text-anchor="middle" x="502" y="-26.5" font-family="Helvetica,sans-Serif" font-size="10.00">CWallet::EncryptWallet</text>
</a>
</g>
</g>
<!-- Node4&#45;&gt;Node10 -->
<g id="edge9" class="edge"><title>Node4&#45;&gt;Node10</title>
<path fill="none" stroke="midnightblue" d="M390.058,-55.1039C412.759,-49.7626 439.178,-43.5463 460.54,-38.5201"/>
<polygon fill="midnightblue" stroke="midnightblue" points="389.186,-51.7136 380.253,-57.411 390.789,-58.5275 389.186,-51.7136"/>
</g>
<!-- Node6 -->
<g id="node6" class="node"><title>Node6</title>
<g id="a_node6"><a xlink:href="anoncoind_8cpp.html#ac59316b767e6984e1285f0531275286b" target="_top" xlink:title="AppInit">
<polygon fill="white" stroke="black" points="663.5,-114.5 663.5,-133.5 711.5,-133.5 711.5,-114.5 663.5,-114.5"/>
<text text-anchor="middle" x="687.5" y="-121.5" font-family="Helvetica,sans-Serif" font-size="10.00">AppInit</text>
</a>
</g>
</g>
<!-- Node5&#45;&gt;Node6 -->
<g id="edge5" class="edge"><title>Node5&#45;&gt;Node6</title>
<path fill="none" stroke="midnightblue" d="M538.803,-108.707C575.605,-112.518 631.833,-118.34 663.231,-121.591"/>
<polygon fill="midnightblue" stroke="midnightblue" points="538.822,-105.19 528.515,-107.642 538.101,-112.153 538.822,-105.19"/>
</g>
<!-- Node8 -->
<g id="node8" class="node"><title>Node8</title>
<g id="a_node8"><a xlink:href="class_anoncoin_coin.html#a9510881824d283404ac43414dbb74586" target="_top" xlink:title="AnoncoinCoin::initialize">
<polygon fill="white" stroke="black" points="627.5,-76.5 627.5,-95.5 747.5,-95.5 747.5,-76.5 627.5,-76.5"/>
<text text-anchor="middle" x="687.5" y="-83.5" font-family="Helvetica,sans-Serif" font-size="10.00">AnoncoinCoin::initialize</text>
</a>
</g>
</g>
<!-- Node5&#45;&gt;Node8 -->
<g id="edge7" class="edge"><title>Node5&#45;&gt;Node8</title>
<path fill="none" stroke="midnightblue" d="M538.682,-101.305C563.799,-98.7047 598.009,-95.1626 627.192,-92.1409"/>
<polygon fill="midnightblue" stroke="midnightblue" points="538.101,-97.8467 528.515,-102.358 538.822,-104.81 538.101,-97.8467"/>
</g>
<!-- Node7 -->
<g id="node7" class="node"><title>Node7</title>
<g id="a_node7"><a xlink:href="anoncoind_8cpp.html#a0ddf1224851353fc92bfbff6f499fa97" target="_top" xlink:title="main">
<polygon fill="white" stroke="black" points="843,-114.5 843,-133.5 881,-133.5 881,-114.5 843,-114.5"/>
<text text-anchor="middle" x="862" y="-121.5" font-family="Helvetica,sans-Serif" font-size="10.00">main</text>
</a>
</g>
</g>
<!-- Node6&#45;&gt;Node7 -->
<g id="edge6" class="edge"><title>Node6&#45;&gt;Node7</title>
<path fill="none" stroke="midnightblue" d="M721.815,-124C757.897,-124 814.135,-124 842.827,-124"/>
<polygon fill="midnightblue" stroke="midnightblue" points="721.764,-120.5 711.764,-124 721.764,-127.5 721.764,-120.5"/>
</g>
<!-- Node11 -->
<g id="node11" class="node"><title>Node11</title>
<g id="a_node11"><a xlink:href="class_wallet_model.html#a444340830badcd48e3a4dd6b03d9c4d7" target="_top" xlink:title="WalletModel::setWalletEncrypted">
<polygon fill="white" stroke="black" points="606,-38.5 606,-57.5 769,-57.5 769,-38.5 606,-38.5"/>
<text text-anchor="middle" x="687.5" y="-45.5" font-family="Helvetica,sans-Serif" font-size="10.00">WalletModel::setWalletEncrypted</text>
</a>
</g>
</g>
<!-- Node10&#45;&gt;Node11 -->
<g id="edge10" class="edge"><title>Node10&#45;&gt;Node11</title>
<path fill="none" stroke="midnightblue" d="M571.625,-36.1056C582.75,-37.2575 594.36,-38.4596 605.741,-39.638"/>
<polygon fill="midnightblue" stroke="midnightblue" points="571.872,-32.6126 561.565,-35.064 571.151,-39.5754 571.872,-32.6126"/>
</g>
<!-- Node13 -->
<g id="node13" class="node"><title>Node13</title>
<g id="a_node13"><a xlink:href="rpcwallet_8cpp.html#a5fb49bac2748015a256c63e9f8ccc539" target="_top" xlink:title="encryptwallet">
<polygon fill="white" stroke="black" points="650,-0.5 650,-19.5 725,-19.5 725,-0.5 650,-0.5"/>
<text text-anchor="middle" x="687.5" y="-7.5" font-family="Helvetica,sans-Serif" font-size="10.00">encryptwallet</text>
</a>
</g>
</g>
<!-- Node10&#45;&gt;Node13 -->
<g id="edge12" class="edge"><title>Node10&#45;&gt;Node13</title>
<path fill="none" stroke="midnightblue" d="M571.579,-21.8992C598.114,-19.1517 627.415,-16.1177 649.79,-13.801"/>
<polygon fill="midnightblue" stroke="midnightblue" points="571.151,-18.4246 561.565,-22.936 571.872,-25.3874 571.151,-18.4246"/>
</g>
<!-- Node12 -->
<g id="node12" class="node"><title>Node12</title>
<g id="a_node12"><a xlink:href="class_ask_passphrase_dialog.html#ac2f176af3693b73870d26ef0bfc6cbb9" target="_top" xlink:title="AskPassphraseDialog\l::accept">
<polygon fill="white" stroke="black" points="805,-33 805,-63 919,-63 919,-33 805,-33"/>
<text text-anchor="start" x="813" y="-51" font-family="Helvetica,sans-Serif" font-size="10.00">AskPassphraseDialog</text>
<text text-anchor="middle" x="862" y="-40" font-family="Helvetica,sans-Serif" font-size="10.00">::accept</text>
</a>
</g>
</g>
<!-- Node11&#45;&gt;Node12 -->
<g id="edge11" class="edge"><title>Node11&#45;&gt;Node12</title>
<path fill="none" stroke="midnightblue" d="M779.418,-48C788.12,-48 796.758,-48 804.977,-48"/>
<polygon fill="midnightblue" stroke="midnightblue" points="779.194,-44.5001 769.194,-48 779.194,-51.5001 779.194,-44.5001"/>
</g>
</g>
</svg>
