<?xml version="1.0" encoding="UTF-8" standalone="no"?>
<!DOCTYPE svg PUBLIC "-//W3C//DTD SVG 1.1//EN"
 "http://www.w3.org/Graphics/SVG/1.1/DTD/svg11.dtd">
<!-- Generated by graphviz version 2.38.0 (20140413.2041)
 -->
<!-- Title: PrintExceptionContinue Pages: 1 -->
<svg width="852pt" height="260pt"
 viewBox="0.00 0.00 852.00 259.61" xmlns="http://www.w3.org/2000/svg" xmlns:xlink="http://www.w3.org/1999/xlink">
<g id="graph0" class="graph" transform="scale(1 1) rotate(0) translate(4 255.613)">
<title>PrintExceptionContinue</title>
<polygon fill="white" stroke="none" points="-4,4 -4,-255.613 848,-255.613 848,4 -4,4"/>
<!-- Node1 -->
<g id="node1" class="node"><title>Node1</title>
<polygon fill="#bfbfbf" stroke="black" points="0,-118.113 0,-137.113 121,-137.113 121,-118.113 0,-118.113"/>
<text text-anchor="middle" x="60.5" y="-125.113" font-family="Helvetica,sans-Serif" font-size="10.00">PrintExceptionContinue</text>
</g>
<!-- Node2 -->
<g id="node2" class="node"><title>Node2</title>
<g id="a_node2"><a xlink:href="anoncoin-cli_8cpp.html#a0ddf1224851353fc92bfbff6f499fa97" target="_top" xlink:title="main">
<polygon fill="white" stroke="black" points="336.5,-232.113 336.5,-251.113 374.5,-251.113 374.5,-232.113 336.5,-232.113"/>
<text text-anchor="middle" x="355.5" y="-239.113" font-family="Helvetica,sans-Serif" font-size="10.00">main</text>
</a>
</g>
</g>
<!-- Node1&#45;&gt;Node2 -->
<g id="edge1" class="edge"><title>Node1&#45;&gt;Node2</title>
<path fill="none" stroke="midnightblue" d="M73.5195,-145.613C89.5926,-168.007 120.354,-205.39 157,-222.613 217.636,-251.11 300.139,-247.273 336.28,-243.784"/>
<polygon fill="midnightblue" stroke="midnightblue" points="76.3207,-143.511 67.7355,-137.302 70.5752,-147.51 76.3207,-143.511"/>
</g>
<!-- Node3 -->
<g id="node3" class="node"><title>Node3</title>
<g id="a_node3"><a xlink:href="anoncoind_8cpp.html#ac59316b767e6984e1285f0531275286b" target="_top" xlink:title="AppInit">
<polygon fill="white" stroke="black" points="682.5,-129.113 682.5,-148.113 730.5,-148.113 730.5,-129.113 682.5,-129.113"/>
<text text-anchor="middle" x="706.5" y="-136.113" font-family="Helvetica,sans-Serif" font-size="10.00">AppInit</text>
</a>
</g>
</g>
<!-- Node1&#45;&gt;Node3 -->
<g id="edge2" class="edge"><title>Node1&#45;&gt;Node3</title>
<path fill="none" stroke="midnightblue" d="M110.298,-139.238C125.198,-142.268 141.691,-145.105 157,-146.613 359.823,-166.593 606.838,-147.579 682.431,-140.802"/>
<polygon fill="midnightblue" stroke="midnightblue" points="110.778,-135.762 100.271,-137.123 109.334,-142.611 110.778,-135.762"/>
</g>
<!-- Node5 -->
<g id="node5" class="node"><title>Node5</title>
<g id="a_node5"><a xlink:href="main_8h.html#a196f9318f02448b85b28d612698934fd" target="_top" xlink:title="Process protocol messages received from a given node. ">
<polygon fill="white" stroke="black" points="159.5,-42.1129 159.5,-61.1129 257.5,-61.1129 257.5,-42.1129 159.5,-42.1129"/>
<text text-anchor="middle" x="208.5" y="-49.1129" font-family="Helvetica,sans-Serif" font-size="10.00">ProcessMessages</text>
</a>
</g>
</g>
<!-- Node1&#45;&gt;Node5 -->
<g id="edge4" class="edge"><title>Node1&#45;&gt;Node5</title>
<path fill="none" stroke="midnightblue" d="M84.1462,-112.527C103.106,-100.285 131.139,-83.0728 157,-70.6129 164.089,-67.1976 171.963,-63.9779 179.343,-61.1932"/>
<polygon fill="midnightblue" stroke="midnightblue" points="82.0773,-109.698 75.6168,-118.095 85.9037,-115.56 82.0773,-109.698"/>
</g>
<!-- Node12 -->
<g id="node12" class="node"><title>Node12</title>
<g id="a_node12"><a xlink:href="class_anoncoin_coin.html#a19cc3b8135a5d63b023cb1f033277f55" target="_top" xlink:title="Pass fatal exception message to UI thread. ">
<polygon fill="white" stroke="black" points="451,-6.61291 451,-36.6129 607,-36.6129 607,-6.61291 451,-6.61291"/>
<text text-anchor="start" x="459" y="-24.6129" font-family="Helvetica,sans-Serif" font-size="10.00">AnoncoinCoin::handleRunaway</text>
<text text-anchor="middle" x="529" y="-13.6129" font-family="Helvetica,sans-Serif" font-size="10.00">Exception</text>
</a>
</g>
</g>
<!-- Node1&#45;&gt;Node12 -->
<g id="edge13" class="edge"><title>Node1&#45;&gt;Node12</title>
<path fill="none" stroke="midnightblue" d="M73.1057,-109.574C88.9261,-86.8111 119.614,-48.6936 157,-32.6129 251.859,8.18878 373.334,2.21898 450.933,-7.9546"/>
<polygon fill="midnightblue" stroke="midnightblue" points="70.1087,-107.759 67.4347,-118.011 75.9182,-111.664 70.1087,-107.759"/>
</g>
<!-- Node13 -->
<g id="node13" class="node"><title>Node13</title>
<g id="a_node13"><a xlink:href="rpcclient_8h.html#a4ee23259648a971c9c05aeff8b545a6d" target="_top" xlink:title="CommandLineRPC">
<polygon fill="white" stroke="black" points="157,-194.113 157,-213.113 260,-213.113 260,-194.113 157,-194.113"/>
<text text-anchor="middle" x="208.5" y="-201.113" font-family="Helvetica,sans-Serif" font-size="10.00">CommandLineRPC</text>
</a>
</g>
</g>
<!-- Node1&#45;&gt;Node13 -->
<g id="edge16" class="edge"><title>Node1&#45;&gt;Node13</title>
<path fill="none" stroke="midnightblue" d="M87.5798,-142.317C106.662,-152.952 133.256,-167.518 157,-179.613 166.688,-184.548 177.564,-189.758 186.736,-194.059"/>
<polygon fill="midnightblue" stroke="midnightblue" points="89.0371,-139.122 78.6011,-137.294 85.6195,-145.231 89.0371,-139.122"/>
</g>
<!-- Node14 -->
<g id="node14" class="node"><title>Node14</title>
<g id="a_node14"><a xlink:href="util_8h.html#ac6be85b683de5d9b41dc3046e50d6acd" target="_top" xlink:title="LoopForever">
<polygon fill="white" stroke="black" points="172,-118.113 172,-137.113 245,-137.113 245,-118.113 172,-118.113"/>
<text text-anchor="middle" x="208.5" y="-125.113" font-family="Helvetica,sans-Serif" font-size="10.00">LoopForever</text>
</a>
</g>
</g>
<!-- Node1&#45;&gt;Node14 -->
<g id="edge19" class="edge"><title>Node1&#45;&gt;Node14</title>
<path fill="none" stroke="midnightblue" d="M131.45,-127.613C145.459,-127.613 159.618,-127.613 171.859,-127.613"/>
<polygon fill="midnightblue" stroke="midnightblue" points="131.305,-124.113 121.305,-127.613 131.305,-131.113 131.305,-124.113"/>
</g>
<!-- Node16 -->
<g id="node16" class="node"><title>Node16</title>
<g id="a_node16"><a xlink:href="util_8h.html#ac481a378af0229bf71e3d9fee7b938ad" target="_top" xlink:title="TraceThread">
<polygon fill="white" stroke="black" points="171.5,-80.1129 171.5,-99.1129 245.5,-99.1129 245.5,-80.1129 171.5,-80.1129"/>
<text text-anchor="middle" x="208.5" y="-87.1129" font-family="Helvetica,sans-Serif" font-size="10.00">TraceThread</text>
</a>
</g>
</g>
<!-- Node1&#45;&gt;Node16 -->
<g id="edge22" class="edge"><title>Node1&#45;&gt;Node16</title>
<path fill="none" stroke="midnightblue" d="M108.112,-115.481C128.608,-110.146 152.311,-103.977 171.428,-99.0016"/>
<polygon fill="midnightblue" stroke="midnightblue" points="107.138,-112.118 98.342,-118.024 108.901,-118.892 107.138,-112.118"/>
</g>
<!-- Node4 -->
<g id="node4" class="node"><title>Node4</title>
<g id="a_node4"><a xlink:href="anoncoind_8cpp.html#a0ddf1224851353fc92bfbff6f499fa97" target="_top" xlink:title="main">
<polygon fill="white" stroke="black" points="806,-129.113 806,-148.113 844,-148.113 844,-129.113 806,-129.113"/>
<text text-anchor="middle" x="825" y="-136.113" font-family="Helvetica,sans-Serif" font-size="10.00">main</text>
</a>
</g>
</g>
<!-- Node3&#45;&gt;Node4 -->
<g id="edge3" class="edge"><title>Node3&#45;&gt;Node4</title>
<path fill="none" stroke="midnightblue" d="M740.731,-138.613C761.947,-138.613 788.631,-138.613 805.99,-138.613"/>
<polygon fill="midnightblue" stroke="midnightblue" points="740.517,-135.113 730.517,-138.613 740.517,-142.113 740.517,-135.113"/>
</g>
<!-- Node6 -->
<g id="node6" class="node"><title>Node6</title>
<g id="a_node6"><a xlink:href="main_8h.html#ab02615ff65f91d69f8d786ec900baa8a" target="_top" xlink:title="Register with a network node to receive its signals. ">
<polygon fill="white" stroke="black" points="300.5,-80.1129 300.5,-99.1129 410.5,-99.1129 410.5,-80.1129 300.5,-80.1129"/>
<text text-anchor="middle" x="355.5" y="-87.1129" font-family="Helvetica,sans-Serif" font-size="10.00">RegisterNodeSignals</text>
</a>
</g>
</g>
<!-- Node5&#45;&gt;Node6 -->
<g id="edge5" class="edge"><title>Node5&#45;&gt;Node6</title>
<path fill="none" stroke="midnightblue" d="M255.993,-63.7972C276.124,-69.0729 299.338,-75.1567 318.173,-80.0929"/>
<polygon fill="midnightblue" stroke="midnightblue" points="256.65,-60.3514 246.09,-61.2019 254.876,-67.1227 256.65,-60.3514"/>
</g>
<!-- Node9 -->
<g id="node9" class="node"><title>Node9</title>
<g id="a_node9"><a xlink:href="main_8h.html#a3ef0cc6e9d9d6435ee2a5569244d6ebd" target="_top" xlink:title="Unregister a network node. ">
<polygon fill="white" stroke="black" points="296,-42.1129 296,-61.1129 415,-61.1129 415,-42.1129 296,-42.1129"/>
<text text-anchor="middle" x="355.5" y="-49.1129" font-family="Helvetica,sans-Serif" font-size="10.00">UnregisterNodeSignals</text>
</a>
</g>
</g>
<!-- Node5&#45;&gt;Node9 -->
<g id="edge9" class="edge"><title>Node5&#45;&gt;Node9</title>
<path fill="none" stroke="midnightblue" d="M267.983,-51.6129C277.165,-51.6129 286.658,-51.6129 295.843,-51.6129"/>
<polygon fill="midnightblue" stroke="midnightblue" points="267.783,-48.113 257.783,-51.6129 267.783,-55.113 267.783,-48.113"/>
</g>
<!-- Node7 -->
<g id="node7" class="node"><title>Node7</title>
<g id="a_node7"><a xlink:href="init_8h.html#a1a4c1bfbf6ba1db77e988b89b9cadfd3" target="_top" xlink:title="Initialize anoncoin. ">
<polygon fill="white" stroke="black" points="502.5,-110.113 502.5,-129.113 555.5,-129.113 555.5,-110.113 502.5,-110.113"/>
<text text-anchor="middle" x="529" y="-117.113" font-family="Helvetica,sans-Serif" font-size="10.00">AppInit2</text>
</a>
</g>
</g>
<!-- Node6&#45;&gt;Node7 -->
<g id="edge6" class="edge"><title>Node6&#45;&gt;Node7</title>
<path fill="none" stroke="midnightblue" d="M420.637,-100.832C449.01,-105.795 480.76,-111.349 502.325,-115.122"/>
<polygon fill="midnightblue" stroke="midnightblue" points="421.217,-97.3806 410.764,-99.1051 420.011,-104.276 421.217,-97.3806"/>
</g>
<!-- Node7&#45;&gt;Node3 -->
<g id="edge7" class="edge"><title>Node7&#45;&gt;Node3</title>
<path fill="none" stroke="midnightblue" d="M565.757,-123.484C600.66,-127.263 652.73,-132.9 682.468,-136.119"/>
<polygon fill="midnightblue" stroke="midnightblue" points="565.838,-119.972 555.519,-122.376 565.084,-126.932 565.838,-119.972"/>
</g>
<!-- Node8 -->
<g id="node8" class="node"><title>Node8</title>
<g id="a_node8"><a xlink:href="class_anoncoin_coin.html#a9510881824d283404ac43414dbb74586" target="_top" xlink:title="AnoncoinCoin::initialize">
<polygon fill="white" stroke="black" points="646.5,-86.1129 646.5,-105.113 766.5,-105.113 766.5,-86.1129 646.5,-86.1129"/>
<text text-anchor="middle" x="706.5" y="-93.1129" font-family="Helvetica,sans-Serif" font-size="10.00">AnoncoinCoin::initialize</text>
</a>
</g>
</g>
<!-- Node7&#45;&gt;Node8 -->
<g id="edge8" class="edge"><title>Node7&#45;&gt;Node8</title>
<path fill="none" stroke="midnightblue" d="M565.568,-114.749C588.693,-111.587 619.41,-107.386 646.173,-103.726"/>
<polygon fill="midnightblue" stroke="midnightblue" points="564.953,-111.3 555.519,-116.123 565.901,-118.236 564.953,-111.3"/>
</g>
<!-- Node10 -->
<g id="node10" class="node"><title>Node10</title>
<g id="a_node10"><a xlink:href="init_8h.html#ac5f038c2b480cf9ef5e19e3eba8dbaf9" target="_top" xlink:title="Shutdown">
<polygon fill="white" stroke="black" points="498.5,-56.1129 498.5,-75.1129 559.5,-75.1129 559.5,-56.1129 498.5,-56.1129"/>
<text text-anchor="middle" x="529" y="-63.1129" font-family="Helvetica,sans-Serif" font-size="10.00">Shutdown</text>
</a>
</g>
</g>
<!-- Node9&#45;&gt;Node10 -->
<g id="edge10" class="edge"><title>Node9&#45;&gt;Node10</title>
<path fill="none" stroke="midnightblue" d="M425.021,-57.2065C450.416,-59.2796 477.915,-61.5243 498.102,-63.1723"/>
<polygon fill="midnightblue" stroke="midnightblue" points="425.293,-53.7171 415.041,-56.3918 424.723,-60.6939 425.293,-53.7171"/>
</g>
<!-- Node10&#45;&gt;Node3 -->
<g id="edge11" class="edge"><title>Node10&#45;&gt;Node3</title>
<path fill="none" stroke="midnightblue" d="M560.969,-79.4644C583.592,-89.4796 615.067,-103.199 643,-114.613 655.912,-119.889 670.451,-125.492 682.256,-129.956"/>
<polygon fill="midnightblue" stroke="midnightblue" points="562.107,-76.1403 551.547,-75.2811 559.267,-82.538 562.107,-76.1403"/>
</g>
<!-- Node11 -->
<g id="node11" class="node"><title>Node11</title>
<g id="a_node11"><a xlink:href="class_anoncoin_coin.html#ac33fbca9335d356d9d6102a0122f2a5b" target="_top" xlink:title="AnoncoinCoin::shutdown">
<polygon fill="white" stroke="black" points="643,-37.1129 643,-56.1129 770,-56.1129 770,-37.1129 643,-37.1129"/>
<text text-anchor="middle" x="706.5" y="-44.1129" font-family="Helvetica,sans-Serif" font-size="10.00">AnoncoinCoin::shutdown</text>
</a>
</g>
</g>
<!-- Node10&#45;&gt;Node11 -->
<g id="edge12" class="edge"><title>Node10&#45;&gt;Node11</title>
<path fill="none" stroke="midnightblue" d="M569.862,-61.2974C591.398,-58.9658 618.483,-56.0335 642.775,-53.4036"/>
<polygon fill="midnightblue" stroke="midnightblue" points="569.336,-57.8337 559.771,-62.3898 570.09,-64.7931 569.336,-57.8337"/>
</g>
<!-- Node12&#45;&gt;Node8 -->
<g id="edge14" class="edge"><title>Node12&#45;&gt;Node8</title>
<path fill="none" stroke="midnightblue" d="M590.211,-40.0523C595.934,-42.1367 601.609,-44.335 607,-46.6129 623.665,-53.6545 626.842,-57.4748 643,-65.6129 656.974,-72.6512 672.873,-80.2775 685.138,-86.0795"/>
<polygon fill="midnightblue" stroke="midnightblue" points="591.17,-36.6793 580.575,-36.6582 588.844,-43.2817 591.17,-36.6793"/>
</g>
<!-- Node12&#45;&gt;Node11 -->
<g id="edge15" class="edge"><title>Node12&#45;&gt;Node11</title>
<path fill="none" stroke="midnightblue" d="M617.362,-34.0576C626.01,-35.2895 634.663,-36.5222 642.985,-37.7077"/>
<polygon fill="midnightblue" stroke="midnightblue" points="617.626,-30.56 607.232,-32.6147 616.639,-37.49 617.626,-30.56"/>
</g>
<!-- Node13&#45;&gt;Node2 -->
<g id="edge17" class="edge"><title>Node13&#45;&gt;Node2</title>
<path fill="none" stroke="midnightblue" d="M255.889,-215.77C283.287,-222.95 316.428,-231.635 336.465,-236.887"/>
<polygon fill="midnightblue" stroke="midnightblue" points="256.65,-212.351 246.09,-213.202 254.876,-219.123 256.65,-212.351"/>
</g>
<!-- Node13&#45;&gt;Node3 -->
<g id="edge18" class="edge"><title>Node13&#45;&gt;Node3</title>
<path fill="none" stroke="midnightblue" d="M270.381,-206.167C349.158,-208.063 490.162,-206.646 607,-179.613 636.415,-172.807 668.305,-158.046 687.593,-148.22"/>
<polygon fill="midnightblue" stroke="midnightblue" points="270.244,-202.663 260.154,-205.894 270.057,-209.66 270.244,-202.663"/>
</g>
<!-- Node15 -->
<g id="node15" class="node"><title>Node15</title>
<g id="a_node15"><a xlink:href="net_8h.html#a9396d8054e8f74959e9391871aaddde0" target="_top" xlink:title="StartNode">
<polygon fill="white" stroke="black" points="324.5,-118.113 324.5,-137.113 386.5,-137.113 386.5,-118.113 324.5,-118.113"/>
<text text-anchor="middle" x="355.5" y="-125.113" font-family="Helvetica,sans-Serif" font-size="10.00">StartNode</text>
</a>
</g>
</g>
<!-- Node14&#45;&gt;Node15 -->
<g id="edge20" class="edge"><title>Node14&#45;&gt;Node15</title>
<path fill="none" stroke="midnightblue" d="M255.39,-127.613C277.952,-127.613 304.507,-127.613 324.448,-127.613"/>
<polygon fill="midnightblue" stroke="midnightblue" points="255.343,-124.113 245.343,-127.613 255.343,-131.113 255.343,-124.113"/>
</g>
<!-- Node15&#45;&gt;Node7 -->
<g id="edge21" class="edge"><title>Node15&#45;&gt;Node7</title>
<path fill="none" stroke="midnightblue" d="M396.878,-125.729C429.467,-124.209 474.337,-122.116 502.234,-120.815"/>
<polygon fill="midnightblue" stroke="midnightblue" points="396.592,-122.239 386.766,-126.201 396.918,-129.231 396.592,-122.239"/>
</g>
<!-- Node16&#45;&gt;Node15 -->
<g id="edge23" class="edge"><title>Node16&#45;&gt;Node15</title>
<path fill="none" stroke="midnightblue" d="M255.687,-101.717C278.064,-107.581 304.309,-114.459 324.125,-119.653"/>
<polygon fill="midnightblue" stroke="midnightblue" points="256.276,-98.2534 245.716,-99.1039 254.502,-105.025 256.276,-98.2534"/>
</g>
</g>
</svg>
