<?xml version="1.0" encoding="UTF-8" standalone="no"?>
<!DOCTYPE svg PUBLIC "-//W3C//DTD SVG 1.1//EN"
 "http://www.w3.org/Graphics/SVG/1.1/DTD/svg11.dtd">
<!-- Generated by graphviz version 2.38.0 (20140413.2041)
 -->
<!-- Title: TraceThread Pages: 1 -->
<svg width="239pt" height="66pt"
 viewBox="0.00 0.00 239.00 66.00" xmlns="http://www.w3.org/2000/svg" xmlns:xlink="http://www.w3.org/1999/xlink">
<g id="graph0" class="graph" transform="scale(1 1) rotate(0) translate(4 62)">
<title>TraceThread</title>
<polygon fill="white" stroke="none" points="-4,4 -4,-62 235,-62 235,4 -4,4"/>
<!-- Node1 -->
<g id="node1" class="node"><title>Node1</title>
<polygon fill="#bfbfbf" stroke="black" points="0,-19.5 0,-38.5 74,-38.5 74,-19.5 0,-19.5"/>
<text text-anchor="middle" x="37" y="-26.5" font-family="Helvetica,sans-Serif" font-size="10.00">TraceThread</text>
</g>
<!-- Node2 -->
<g id="node2" class="node"><title>Node2</title>
<g id="a_node2"><a xlink:href="util_8h.html#a85fc1244e0bd3c91ee7a1c05ed10ebbb" target="_top" xlink:title="RenameThread">
<polygon fill="white" stroke="black" points="127.5,-38.5 127.5,-57.5 213.5,-57.5 213.5,-38.5 127.5,-38.5"/>
<text text-anchor="middle" x="170.5" y="-45.5" font-family="Helvetica,sans-Serif" font-size="10.00">RenameThread</text>
</a>
</g>
</g>
<!-- Node1&#45;&gt;Node2 -->
<g id="edge1" class="edge"><title>Node1&#45;&gt;Node2</title>
<path fill="none" stroke="midnightblue" d="M74.2811,-34.2421C87.4946,-36.1513 102.71,-38.3498 117.046,-40.4211"/>
<polygon fill="midnightblue" stroke="midnightblue" points="116.89,-43.9348 127.288,-41.9009 117.891,-37.0068 116.89,-43.9348"/>
</g>
<!-- Node3 -->
<g id="node3" class="node"><title>Node3</title>
<g id="a_node3"><a xlink:href="util_8h.html#a477231880f761159de1567ad6fb98fac" target="_top" xlink:title="PrintExceptionContinue">
<polygon fill="white" stroke="black" points="110,-0.5 110,-19.5 231,-19.5 231,-0.5 110,-0.5"/>
<text text-anchor="middle" x="170.5" y="-7.5" font-family="Helvetica,sans-Serif" font-size="10.00">PrintExceptionContinue</text>
</a>
</g>
</g>
<!-- Node1&#45;&gt;Node3 -->
<g id="edge2" class="edge"><title>Node1&#45;&gt;Node3</title>
<path fill="none" stroke="midnightblue" d="M74.2811,-23.7579C82.2901,-22.6007 91.0346,-21.3372 99.873,-20.0602"/>
<polygon fill="midnightblue" stroke="midnightblue" points="100.461,-23.5117 109.857,-18.6176 99.4596,-16.5836 100.461,-23.5117"/>
</g>
</g>
</svg>
