<?xml version="1.0" encoding="UTF-8" standalone="no"?>
<!DOCTYPE svg PUBLIC "-//W3C//DTD SVG 1.1//EN"
 "http://www.w3.org/Graphics/SVG/1.1/DTD/svg11.dtd">
<!-- Generated by graphviz version 2.38.0 (20140413.2041)
 -->
<!-- Title: WildcardMatch Pages: 1 -->
<svg width="323pt" height="57pt"
 viewBox="0.00 0.00 323.00 56.66" xmlns="http://www.w3.org/2000/svg" xmlns:xlink="http://www.w3.org/1999/xlink">
<g id="graph0" class="graph" transform="scale(1 1) rotate(0) translate(4 52.6627)">
<title>WildcardMatch</title>
<polygon fill="white" stroke="none" points="-4,4 -4,-52.6627 319,-52.6627 319,4 -4,4"/>
<!-- Node1 -->
<g id="node1" class="node"><title>Node1</title>
<polygon fill="#bfbfbf" stroke="black" points="0,-28.5 0,-47.5 83,-47.5 83,-28.5 0,-28.5"/>
<text text-anchor="middle" x="41.5" y="-35.5" font-family="Helvetica,sans-Serif" font-size="10.00">WildcardMatch</text>
</g>
<!-- Node2 -->
<g id="node2" class="node"><title>Node2</title>
<g id="a_node2"><a xlink:href="rpcserver_8cpp.html#a9ec282be04e51f5fde86d5ba98467019" target="_top" xlink:title="ClientAllowed">
<polygon fill="white" stroke="black" points="238,-28.5 238,-47.5 315,-47.5 315,-28.5 238,-28.5"/>
<text text-anchor="middle" x="276.5" y="-35.5" font-family="Helvetica,sans-Serif" font-size="10.00">ClientAllowed</text>
</a>
</g>
</g>
<!-- Node1&#45;&gt;Node2 -->
<g id="edge1" class="edge"><title>Node1&#45;&gt;Node2</title>
<path fill="none" stroke="midnightblue" d="M93.5135,-44.8426C102.01,-45.7404 110.743,-46.516 119,-47 155.826,-49.1588 165.18,-49.2459 202,-47 213.677,-46.2877 226.34,-44.9446 237.812,-43.5092"/>
<polygon fill="midnightblue" stroke="midnightblue" points="93.6424,-41.3351 83.3145,-43.698 92.8617,-48.2915 93.6424,-41.3351"/>
</g>
<!-- Node3 -->
<g id="node3" class="node"><title>Node3</title>
<g id="a_node3"><a xlink:href="util_8h.html#a134e5ff2f94e103c1de7b642675546ca" target="_top" xlink:title="WildcardMatch">
<polygon fill="white" stroke="black" points="119,-0.5 119,-19.5 202,-19.5 202,-0.5 119,-0.5"/>
<text text-anchor="middle" x="160.5" y="-7.5" font-family="Helvetica,sans-Serif" font-size="10.00">WildcardMatch</text>
</a>
</g>
</g>
<!-- Node1&#45;&gt;Node3 -->
<g id="edge2" class="edge"><title>Node1&#45;&gt;Node3</title>
<path fill="none" stroke="midnightblue" d="M92.2424,-26.0958C101.425,-23.8982 110.903,-21.63 119.742,-19.5146"/>
<polygon fill="midnightblue" stroke="midnightblue" points="91.3483,-22.7109 82.4375,-28.4423 92.9775,-29.5187 91.3483,-22.7109"/>
</g>
<!-- Node3&#45;&gt;Node2 -->
<g id="edge3" class="edge"><title>Node3&#45;&gt;Node2</title>
<path fill="none" stroke="midnightblue" d="M210.287,-21.9828C219.537,-24.2546 229.081,-26.5988 237.918,-28.7693"/>
<polygon fill="midnightblue" stroke="midnightblue" points="210.96,-18.544 200.413,-19.5577 209.29,-25.342 210.96,-18.544"/>
</g>
<!-- Node3&#45;&gt;Node3 -->
<g id="edge4" class="edge"><title>Node3&#45;&gt;Node3</title>
<path fill="none" stroke="midnightblue" d="M139.02,-29.4C140.454,-34.3146 147.614,-38 160.5,-38 181.117,-38 187.077,-28.5653 178.379,-19.7571"/>
<polygon fill="midnightblue" stroke="midnightblue" points="142.401,-30.3496 142.621,-19.7571 135.843,-27.9004 142.401,-30.3496"/>
</g>
</g>
</svg>
