<?xml version="1.0" encoding="UTF-8" standalone="no"?>
<!DOCTYPE svg PUBLIC "-//W3C//DTD SVG 1.1//EN"
 "http://www.w3.org/Graphics/SVG/1.1/DTD/svg11.dtd">
<!-- Generated by graphviz version 2.38.0 (20140413.2041)
 -->
<!-- Title: ByteReverse Pages: 1 -->
<svg width="356pt" height="47pt"
 viewBox="0.00 0.00 356.00 47.00" xmlns="http://www.w3.org/2000/svg" xmlns:xlink="http://www.w3.org/1999/xlink">
<g id="graph0" class="graph" transform="scale(1 1) rotate(0) translate(4 43)">
<title>ByteReverse</title>
<polygon fill="white" stroke="none" points="-4,4 -4,-43 352,-43 352,4 -4,4"/>
<!-- Node1 -->
<g id="node1" class="node"><title>Node1</title>
<polygon fill="#bfbfbf" stroke="black" points="0,-0.5 0,-19.5 74,-19.5 74,-0.5 0,-0.5"/>
<text text-anchor="middle" x="37" y="-7.5" font-family="Helvetica,sans-Serif" font-size="10.00">ByteReverse</text>
</g>
<!-- Node2 -->
<g id="node2" class="node"><title>Node2</title>
<g id="a_node2"><a xlink:href="miner_8h.html#adcaa5b0c3f29f5856f6393e2b847e7d7" target="_top" xlink:title="Base sha256 mining transform. ">
<polygon fill="white" stroke="black" points="110,-19.5 110,-38.5 209,-38.5 209,-19.5 110,-19.5"/>
<text text-anchor="middle" x="159.5" y="-26.5" font-family="Helvetica,sans-Serif" font-size="10.00">SHA256Transform</text>
</a>
</g>
</g>
<!-- Node1&#45;&gt;Node2 -->
<g id="edge1" class="edge"><title>Node1&#45;&gt;Node2</title>
<path fill="none" stroke="midnightblue" d="M84.1806,-17.2816C92.5974,-18.6087 101.402,-19.997 109.887,-21.3349"/>
<polygon fill="midnightblue" stroke="midnightblue" points="84.5771,-13.8009 74.154,-15.7006 83.4868,-20.7155 84.5771,-13.8009"/>
</g>
<!-- Node3 -->
<g id="node3" class="node"><title>Node3</title>
<g id="a_node3"><a xlink:href="miner_8h.html#a391a5a462c3f60bbb7dbf6a09fe2e78f" target="_top" xlink:title="Do mining precalculation. ">
<polygon fill="white" stroke="black" points="245,-0.5 245,-19.5 348,-19.5 348,-0.5 245,-0.5"/>
<text text-anchor="middle" x="296.5" y="-7.5" font-family="Helvetica,sans-Serif" font-size="10.00">FormatHashBuffers</text>
</a>
</g>
</g>
<!-- Node1&#45;&gt;Node3 -->
<g id="edge3" class="edge"><title>Node1&#45;&gt;Node3</title>
<path fill="none" stroke="midnightblue" d="M84.1772,-10C129.322,-10 197.898,-10 244.597,-10"/>
<polygon fill="midnightblue" stroke="midnightblue" points="84.0754,-6.5001 74.0754,-10 84.0754,-13.5001 84.0754,-6.5001"/>
</g>
<!-- Node2&#45;&gt;Node3 -->
<g id="edge2" class="edge"><title>Node2&#45;&gt;Node3</title>
<path fill="none" stroke="midnightblue" d="M219.355,-20.7167C227.752,-19.535 236.33,-18.3276 244.558,-17.1695"/>
<polygon fill="midnightblue" stroke="midnightblue" points="218.653,-17.281 209.238,-22.1406 219.628,-24.2127 218.653,-17.281"/>
</g>
</g>
</svg>
