<?xml version="1.0" encoding="UTF-8" standalone="no"?>
<!DOCTYPE svg PUBLIC "-//W3C//DTD SVG 1.1//EN"
 "http://www.w3.org/Graphics/SVG/1.1/DTD/svg11.dtd">
<!-- Generated by graphviz version 2.38.0 (20140413.2041)
 -->
<!-- Title: IsSwitchChar Pages: 1 -->
<svg width="380pt" height="66pt"
 viewBox="0.00 0.00 380.00 66.00" xmlns="http://www.w3.org/2000/svg" xmlns:xlink="http://www.w3.org/1999/xlink">
<g id="graph0" class="graph" transform="scale(1 1) rotate(0) translate(4 62)">
<title>IsSwitchChar</title>
<polygon fill="white" stroke="none" points="-4,4 -4,-62 376,-62 376,4 -4,4"/>
<!-- Node1 -->
<g id="node1" class="node"><title>Node1</title>
<polygon fill="#bfbfbf" stroke="black" points="0,-19.5 0,-38.5 75,-38.5 75,-19.5 0,-19.5"/>
<text text-anchor="middle" x="37.5" y="-26.5" font-family="Helvetica,sans-Serif" font-size="10.00">IsSwitchChar</text>
</g>
<!-- Node2 -->
<g id="node2" class="node"><title>Node2</title>
<g id="a_node2"><a xlink:href="anoncoind_8cpp.html#ac59316b767e6984e1285f0531275286b" target="_top" xlink:title="AppInit">
<polygon fill="white" stroke="black" points="250,-38.5 250,-57.5 298,-57.5 298,-38.5 250,-38.5"/>
<text text-anchor="middle" x="274" y="-45.5" font-family="Helvetica,sans-Serif" font-size="10.00">AppInit</text>
</a>
</g>
</g>
<!-- Node1&#45;&gt;Node2 -->
<g id="edge1" class="edge"><title>Node1&#45;&gt;Node2</title>
<path fill="none" stroke="midnightblue" d="M85.3212,-32.7936C135.051,-36.8229 211.633,-43.0279 249.766,-46.1175"/>
<polygon fill="midnightblue" stroke="midnightblue" points="85.3906,-29.2879 75.1406,-31.9688 84.8253,-36.265 85.3906,-29.2879"/>
</g>
<!-- Node4 -->
<g id="node4" class="node"><title>Node4</title>
<g id="a_node4"><a xlink:href="rpcclient_8h.html#a4ee23259648a971c9c05aeff8b545a6d" target="_top" xlink:title="CommandLineRPC">
<polygon fill="white" stroke="black" points="111,-0.5 111,-19.5 214,-19.5 214,-0.5 111,-0.5"/>
<text text-anchor="middle" x="162.5" y="-7.5" font-family="Helvetica,sans-Serif" font-size="10.00">CommandLineRPC</text>
</a>
</g>
</g>
<!-- Node1&#45;&gt;Node4 -->
<g id="edge3" class="edge"><title>Node1&#45;&gt;Node4</title>
<path fill="none" stroke="midnightblue" d="M85.0604,-21.8077C93.4476,-20.5122 102.229,-19.1556 110.729,-17.8427"/>
<polygon fill="midnightblue" stroke="midnightblue" points="84.4195,-18.3651 75.071,-23.3508 85.4882,-25.2831 84.4195,-18.3651"/>
</g>
<!-- Node3 -->
<g id="node3" class="node"><title>Node3</title>
<g id="a_node3"><a xlink:href="anoncoind_8cpp.html#a0ddf1224851353fc92bfbff6f499fa97" target="_top" xlink:title="main">
<polygon fill="white" stroke="black" points="334,-38.5 334,-57.5 372,-57.5 372,-38.5 334,-38.5"/>
<text text-anchor="middle" x="353" y="-45.5" font-family="Helvetica,sans-Serif" font-size="10.00">main</text>
</a>
</g>
</g>
<!-- Node2&#45;&gt;Node3 -->
<g id="edge2" class="edge"><title>Node2&#45;&gt;Node3</title>
<path fill="none" stroke="midnightblue" d="M308.352,-48C316.996,-48 325.993,-48 333.557,-48"/>
<polygon fill="midnightblue" stroke="midnightblue" points="308.103,-44.5001 298.103,-48 308.103,-51.5001 308.103,-44.5001"/>
</g>
<!-- Node4&#45;&gt;Node2 -->
<g id="edge5" class="edge"><title>Node4&#45;&gt;Node2</title>
<path fill="none" stroke="midnightblue" d="M200.886,-22.974C217.117,-28.6069 235.62,-35.028 249.82,-39.9557"/>
<polygon fill="midnightblue" stroke="midnightblue" points="201.726,-19.561 191.131,-19.589 199.431,-26.1741 201.726,-19.561"/>
</g>
<!-- Node5 -->
<g id="node5" class="node"><title>Node5</title>
<g id="a_node5"><a xlink:href="anoncoin-cli_8cpp.html#a0ddf1224851353fc92bfbff6f499fa97" target="_top" xlink:title="main">
<polygon fill="white" stroke="black" points="255,-0.5 255,-19.5 293,-19.5 293,-0.5 255,-0.5"/>
<text text-anchor="middle" x="274" y="-7.5" font-family="Helvetica,sans-Serif" font-size="10.00">main</text>
</a>
</g>
</g>
<!-- Node4&#45;&gt;Node5 -->
<g id="edge4" class="edge"><title>Node4&#45;&gt;Node5</title>
<path fill="none" stroke="midnightblue" d="M224.339,-10C235.461,-10 246.244,-10 254.82,-10"/>
<polygon fill="midnightblue" stroke="midnightblue" points="224.083,-6.5001 214.083,-10 224.083,-13.5001 224.083,-6.5001"/>
</g>
</g>
</svg>
