<?xml version="1.0" encoding="UTF-8" standalone="no"?>
<!DOCTYPE svg PUBLIC "-//W3C//DTD SVG 1.1//EN"
 "http://www.w3.org/Graphics/SVG/1.1/DTD/svg11.dtd">
<!-- Generated by graphviz version 2.38.0 (20140413.2041)
 -->
<!-- Title: ShrinkDebugFile Pages: 1 -->
<svg width="511pt" height="142pt"
 viewBox="0.00 0.00 511.00 142.00" xmlns="http://www.w3.org/2000/svg" xmlns:xlink="http://www.w3.org/1999/xlink">
<g id="graph0" class="graph" transform="scale(1 1) rotate(0) translate(4 138)">
<title>ShrinkDebugFile</title>
<polygon fill="white" stroke="none" points="-4,4 -4,-138 507,-138 507,4 -4,4"/>
<!-- Node1 -->
<g id="node1" class="node"><title>Node1</title>
<polygon fill="#bfbfbf" stroke="black" points="0,-57.5 0,-76.5 90,-76.5 90,-57.5 0,-57.5"/>
<text text-anchor="middle" x="45" y="-64.5" font-family="Helvetica,sans-Serif" font-size="10.00">ShrinkDebugFile</text>
</g>
<!-- Node2 -->
<g id="node2" class="node"><title>Node2</title>
<g id="a_node2"><a xlink:href="util_8cpp.html#ab83866a054745d4b30a3948a1b44beba" target="_top" xlink:title="GetDataDir">
<polygon fill="white" stroke="black" points="126,-57.5 126,-76.5 193,-76.5 193,-57.5 126,-57.5"/>
<text text-anchor="middle" x="159.5" y="-64.5" font-family="Helvetica,sans-Serif" font-size="10.00">GetDataDir</text>
</a>
</g>
</g>
<!-- Node1&#45;&gt;Node2 -->
<g id="edge1" class="edge"><title>Node1&#45;&gt;Node2</title>
<path fill="none" stroke="midnightblue" d="M90.1401,-67C98.6302,-67 107.507,-67 115.945,-67"/>
<polygon fill="midnightblue" stroke="midnightblue" points="115.966,-70.5001 125.966,-67 115.966,-63.5001 115.966,-70.5001"/>
</g>
<!-- Node3 -->
<g id="node3" class="node"><title>Node3</title>
<g id="a_node3"><a xlink:href="chainparams_8cpp.html#ace5c5b706d71a324a417dd2db394fd4a" target="_top" xlink:title="Return the currently selected parameters. ">
<polygon fill="white" stroke="black" points="272,-114.5 272,-133.5 323,-133.5 323,-114.5 272,-114.5"/>
<text text-anchor="middle" x="297.5" y="-121.5" font-family="Helvetica,sans-Serif" font-size="10.00">Params</text>
</a>
</g>
</g>
<!-- Node2&#45;&gt;Node3 -->
<g id="edge2" class="edge"><title>Node2&#45;&gt;Node3</title>
<path fill="none" stroke="midnightblue" d="M175.499,-76.6586C189.049,-85.0543 209.758,-97.0809 229,-105 239.494,-109.319 251.294,-113.011 262.059,-115.961"/>
<polygon fill="midnightblue" stroke="midnightblue" points="261.426,-119.413 271.986,-118.558 263.198,-112.641 261.426,-119.413"/>
</g>
<!-- Node4 -->
<g id="node4" class="node"><title>Node4</title>
<g id="a_node4"><a xlink:href="class_c_chain_params.html#a90dc493ec0c0325c98c3ac06eb99862b" target="_top" xlink:title="CChainParams::NetworkID">
<polygon fill="white" stroke="black" points="229,-76.5 229,-95.5 366,-95.5 366,-76.5 229,-76.5"/>
<text text-anchor="middle" x="297.5" y="-83.5" font-family="Helvetica,sans-Serif" font-size="10.00">CChainParams::NetworkID</text>
</a>
</g>
</g>
<!-- Node2&#45;&gt;Node4 -->
<g id="edge3" class="edge"><title>Node2&#45;&gt;Node4</title>
<path fill="none" stroke="midnightblue" d="M193.075,-71.551C201.039,-72.6636 209.903,-73.9018 218.997,-75.1724"/>
<polygon fill="midnightblue" stroke="midnightblue" points="218.537,-78.642 228.925,-76.5594 219.505,-71.7093 218.537,-78.642"/>
</g>
<!-- Node5 -->
<g id="node5" class="node"><title>Node5</title>
<g id="a_node5"><a xlink:href="util_8cpp.html#ab272995de020a3bcbf743be630e485c6" target="_top" xlink:title="GetDefaultDataDir">
<polygon fill="white" stroke="black" points="248.5,-38.5 248.5,-57.5 346.5,-57.5 346.5,-38.5 248.5,-38.5"/>
<text text-anchor="middle" x="297.5" y="-45.5" font-family="Helvetica,sans-Serif" font-size="10.00">GetDefaultDataDir</text>
</a>
</g>
</g>
<!-- Node2&#45;&gt;Node5 -->
<g id="edge4" class="edge"><title>Node2&#45;&gt;Node5</title>
<path fill="none" stroke="midnightblue" d="M193.075,-62.449C206.677,-60.5488 222.902,-58.2821 238.422,-56.1138"/>
<polygon fill="midnightblue" stroke="midnightblue" points="239.065,-59.558 248.485,-54.708 238.097,-52.6254 239.065,-59.558"/>
</g>
<!-- Node7 -->
<g id="node7" class="node"><title>Node7</title>
<g id="a_node7"><a xlink:href="class_c_chain_params.html#ad11dd170e65650ff4b12d45a32b9c774" target="_top" xlink:title="CChainParams::DataDir">
<polygon fill="white" stroke="black" points="235.5,-0.5 235.5,-19.5 359.5,-19.5 359.5,-0.5 235.5,-0.5"/>
<text text-anchor="middle" x="297.5" y="-7.5" font-family="Helvetica,sans-Serif" font-size="10.00">CChainParams::DataDir</text>
</a>
</g>
</g>
<!-- Node2&#45;&gt;Node7 -->
<g id="edge6" class="edge"><title>Node2&#45;&gt;Node7</title>
<path fill="none" stroke="midnightblue" d="M175.499,-57.3414C189.049,-48.9457 209.758,-36.9191 229,-29 234.763,-26.6283 240.92,-24.4455 247.083,-22.4707"/>
<polygon fill="midnightblue" stroke="midnightblue" points="248.167,-25.7992 256.717,-19.5416 246.131,-19.1019 248.167,-25.7992"/>
</g>
<!-- Node6 -->
<g id="node6" class="node"><title>Node6</title>
<g id="a_node6"><a xlink:href="util_8cpp.html#a4458ca67cacd593b21c8e1386d192064" target="_top" xlink:title="TryCreateDirectory">
<polygon fill="white" stroke="black" points="402,-38.5 402,-57.5 503,-57.5 503,-38.5 402,-38.5"/>
<text text-anchor="middle" x="452.5" y="-45.5" font-family="Helvetica,sans-Serif" font-size="10.00">TryCreateDirectory</text>
</a>
</g>
</g>
<!-- Node5&#45;&gt;Node6 -->
<g id="edge5" class="edge"><title>Node5&#45;&gt;Node6</title>
<path fill="none" stroke="midnightblue" d="M346.91,-48C361.137,-48 376.868,-48 391.716,-48"/>
<polygon fill="midnightblue" stroke="midnightblue" points="391.825,-51.5001 401.825,-48 391.825,-44.5001 391.825,-51.5001"/>
</g>
</g>
</svg>
