<?xml version="1.0" encoding="UTF-8" standalone="no"?>
<!DOCTYPE svg PUBLIC "-//W3C//DTD SVG 1.1//EN"
 "http://www.w3.org/Graphics/SVG/1.1/DTD/svg11.dtd">
<!-- Generated by graphviz version 2.38.0 (20140413.2041)
 -->
<!-- Title: src/qt/walletmodel.h Pages: 1 -->
<svg width="3148pt" height="196pt"
 viewBox="0.00 0.00 3147.50 196.00" xmlns="http://www.w3.org/2000/svg" xmlns:xlink="http://www.w3.org/1999/xlink">
<g id="graph0" class="graph" transform="scale(1 1) rotate(0) translate(4 192)">
<title>src/qt/walletmodel.h</title>
<polygon fill="white" stroke="none" points="-4,4 -4,-192 3143.5,-192 3143.5,4 -4,4"/>
<!-- Node1 -->
<g id="node1" class="node"><title>Node1</title>
<polygon fill="#bfbfbf" stroke="black" points="1463,-168.5 1463,-187.5 1568,-187.5 1568,-168.5 1463,-168.5"/>
<text text-anchor="middle" x="1515.5" y="-175.5" font-family="Helvetica,sans-Serif" font-size="10.00">src/qt/walletmodel.h</text>
</g>
<!-- Node2 -->
<g id="node2" class="node"><title>Node2</title>
<g id="a_node2"><a xlink:href="addresstablemodel_8cpp.html" target="_top" xlink:title="src/qt/addresstablemodel.cpp">
<polygon fill="white" stroke="black" points="0,-112.5 0,-131.5 147,-131.5 147,-112.5 0,-112.5"/>
<text text-anchor="middle" x="73.5" y="-119.5" font-family="Helvetica,sans-Serif" font-size="10.00">src/qt/addresstablemodel.cpp</text>
</a>
</g>
</g>
<!-- Node1&#45;&gt;Node2 -->
<g id="edge1" class="edge"><title>Node1&#45;&gt;Node2</title>
<path fill="none" stroke="midnightblue" d="M1452.7,-176.592C1259.25,-174.978 655.368,-167.257 156.5,-132 153.464,-131.785 150.367,-131.545 147.241,-131.286"/>
<polygon fill="midnightblue" stroke="midnightblue" points="1452.93,-180.094 1462.96,-176.675 1452.99,-173.094 1452.93,-180.094"/>
</g>
<!-- Node3 -->
<g id="node3" class="node"><title>Node3</title>
<g id="a_node3"><a xlink:href="walletmodeltransaction_8h.html" target="_top" xlink:title="src/qt/walletmodeltransaction.h">
<polygon fill="white" stroke="black" points="165.5,-112.5 165.5,-131.5 319.5,-131.5 319.5,-112.5 165.5,-112.5"/>
<text text-anchor="middle" x="242.5" y="-119.5" font-family="Helvetica,sans-Serif" font-size="10.00">src/qt/walletmodeltransaction.h</text>
</a>
</g>
</g>
<!-- Node1&#45;&gt;Node3 -->
<g id="edge2" class="edge"><title>Node1&#45;&gt;Node3</title>
<path fill="none" stroke="midnightblue" d="M1452.59,-176.15C1274.42,-173.354 751.864,-162.785 319.5,-132 317.404,-131.851 315.279,-131.691 313.138,-131.522"/>
<polygon fill="midnightblue" stroke="midnightblue" points="1452.77,-179.653 1462.82,-176.308 1452.88,-172.654 1452.77,-179.653"/>
</g>
<!-- Node5 -->
<g id="node5" class="node"><title>Node5</title>
<g id="a_node5"><a xlink:href="askpassphrasedialog_8cpp.html" target="_top" xlink:title="src/qt/askpassphrasedialog.cpp">
<polygon fill="white" stroke="black" points="338,-112.5 338,-131.5 495,-131.5 495,-112.5 338,-112.5"/>
<text text-anchor="middle" x="416.5" y="-119.5" font-family="Helvetica,sans-Serif" font-size="10.00">src/qt/askpassphrasedialog.cpp</text>
</a>
</g>
</g>
<!-- Node1&#45;&gt;Node5 -->
<g id="edge5" class="edge"><title>Node1&#45;&gt;Node5</title>
<path fill="none" stroke="midnightblue" d="M1452.74,-175.46C1293.86,-171.289 862.85,-158.278 504.5,-132 501.437,-131.775 498.315,-131.531 495.163,-131.271"/>
<polygon fill="midnightblue" stroke="midnightblue" points="1452.72,-178.961 1462.81,-175.722 1452.91,-171.963 1452.72,-178.961"/>
</g>
<!-- Node6 -->
<g id="node6" class="node"><title>Node6</title>
<g id="a_node6"><a xlink:href="coincontroldialog_8cpp.html" target="_top" xlink:title="src/qt/coincontroldialog.cpp">
<polygon fill="white" stroke="black" points="513.5,-112.5 513.5,-131.5 651.5,-131.5 651.5,-112.5 513.5,-112.5"/>
<text text-anchor="middle" x="582.5" y="-119.5" font-family="Helvetica,sans-Serif" font-size="10.00">src/qt/coincontroldialog.cpp</text>
</a>
</g>
</g>
<!-- Node1&#45;&gt;Node6 -->
<g id="edge6" class="edge"><title>Node1&#45;&gt;Node6</title>
<path fill="none" stroke="midnightblue" d="M1452.66,-175.034C1311.07,-170.31 956.376,-156.832 660.5,-132 657.647,-131.761 654.738,-131.5 651.8,-131.223"/>
<polygon fill="midnightblue" stroke="midnightblue" points="1452.77,-178.539 1462.88,-175.372 1453.01,-171.543 1452.77,-178.539"/>
</g>
<!-- Node7 -->
<g id="node7" class="node"><title>Node7</title>
<g id="a_node7"><a xlink:href="guiutil_8cpp.html" target="_top" xlink:title="src/qt/guiutil.cpp">
<polygon fill="white" stroke="black" points="670,-112.5 670,-131.5 759,-131.5 759,-112.5 670,-112.5"/>
<text text-anchor="middle" x="714.5" y="-119.5" font-family="Helvetica,sans-Serif" font-size="10.00">src/qt/guiutil.cpp</text>
</a>
</g>
</g>
<!-- Node1&#45;&gt;Node7 -->
<g id="edge7" class="edge"><title>Node1&#45;&gt;Node7</title>
<path fill="none" stroke="midnightblue" d="M1452.74,-175.444C1324.06,-171.763 1021.15,-160.584 768.5,-132 765.478,-131.658 762.368,-131.261 759.238,-130.828"/>
<polygon fill="midnightblue" stroke="midnightblue" points="1452.71,-178.944 1462.81,-175.726 1452.91,-171.947 1452.71,-178.944"/>
</g>
<!-- Node8 -->
<g id="node8" class="node"><title>Node8</title>
<g id="a_node8"><a xlink:href="moc__walletmodel_8cpp.html" target="_top" xlink:title="src/qt/moc_walletmodel.cpp">
<polygon fill="white" stroke="black" points="777.5,-112.5 777.5,-131.5 917.5,-131.5 917.5,-112.5 777.5,-112.5"/>
<text text-anchor="middle" x="847.5" y="-119.5" font-family="Helvetica,sans-Serif" font-size="10.00">src/qt/moc_walletmodel.cpp</text>
</a>
</g>
</g>
<!-- Node1&#45;&gt;Node8 -->
<g id="edge8" class="edge"><title>Node1&#45;&gt;Node8</title>
<path fill="none" stroke="midnightblue" d="M1452.59,-172.965C1344.79,-165.877 1117.88,-150.206 926.5,-132 923.614,-131.725 920.67,-131.435 917.697,-131.134"/>
<polygon fill="midnightblue" stroke="midnightblue" points="1452.44,-176.462 1462.65,-173.623 1452.9,-169.477 1452.44,-176.462"/>
</g>
<!-- Node9 -->
<g id="node9" class="node"><title>Node9</title>
<g id="a_node9"><a xlink:href="openuridialog_8cpp.html" target="_top" xlink:title="src/qt/openuridialog.cpp">
<polygon fill="white" stroke="black" points="936,-112.5 936,-131.5 1059,-131.5 1059,-112.5 936,-112.5"/>
<text text-anchor="middle" x="997.5" y="-119.5" font-family="Helvetica,sans-Serif" font-size="10.00">src/qt/openuridialog.cpp</text>
</a>
</g>
</g>
<!-- Node1&#45;&gt;Node9 -->
<g id="edge9" class="edge"><title>Node1&#45;&gt;Node9</title>
<path fill="none" stroke="midnightblue" d="M1452.63,-171.185C1366.07,-163.062 1205.34,-147.558 1068.5,-132 1065.41,-131.649 1062.25,-131.281 1059.06,-130.902"/>
<polygon fill="midnightblue" stroke="midnightblue" points="1452.53,-174.691 1462.81,-172.139 1453.18,-167.722 1452.53,-174.691"/>
</g>
<!-- Node10 -->
<g id="node10" class="node"><title>Node10</title>
<g id="a_node10"><a xlink:href="overviewpage_8cpp.html" target="_top" xlink:title="src/qt/overviewpage.cpp">
<polygon fill="white" stroke="black" points="1077.5,-112.5 1077.5,-131.5 1201.5,-131.5 1201.5,-112.5 1077.5,-112.5"/>
<text text-anchor="middle" x="1139.5" y="-119.5" font-family="Helvetica,sans-Serif" font-size="10.00">src/qt/overviewpage.cpp</text>
</a>
</g>
</g>
<!-- Node1&#45;&gt;Node10 -->
<g id="edge10" class="edge"><title>Node1&#45;&gt;Node10</title>
<path fill="none" stroke="midnightblue" d="M1452.73,-167.984C1382.09,-157.84 1268.19,-141.482 1198.95,-131.538"/>
<polygon fill="midnightblue" stroke="midnightblue" points="1452.43,-171.477 1462.82,-169.435 1453.42,-164.549 1452.43,-171.477"/>
</g>
<!-- Node11 -->
<g id="node11" class="node"><title>Node11</title>
<g id="a_node11"><a xlink:href="paymentserver_8h.html" target="_top" xlink:title="src/qt/paymentserver.h">
<polygon fill="white" stroke="black" points="1219.5,-112.5 1219.5,-131.5 1337.5,-131.5 1337.5,-112.5 1219.5,-112.5"/>
<text text-anchor="middle" x="1278.5" y="-119.5" font-family="Helvetica,sans-Serif" font-size="10.00">src/qt/paymentserver.h</text>
</a>
</g>
</g>
<!-- Node1&#45;&gt;Node11 -->
<g id="edge11" class="edge"><title>Node1&#45;&gt;Node11</title>
<path fill="none" stroke="midnightblue" d="M1468.18,-166.217C1423.39,-156.013 1357.06,-140.901 1315.88,-131.516"/>
<polygon fill="midnightblue" stroke="midnightblue" points="1467.42,-169.634 1477.95,-168.444 1468.97,-162.809 1467.42,-169.634"/>
</g>
<!-- Node17 -->
<g id="node17" class="node"><title>Node17</title>
<g id="a_node17"><a xlink:href="receiverequestdialog_8h.html" target="_top" xlink:title="src/qt/receiverequestdialog.h">
<polygon fill="white" stroke="black" points="1393.5,-112.5 1393.5,-131.5 1537.5,-131.5 1537.5,-112.5 1393.5,-112.5"/>
<text text-anchor="middle" x="1465.5" y="-119.5" font-family="Helvetica,sans-Serif" font-size="10.00">src/qt/receiverequestdialog.h</text>
</a>
</g>
</g>
<!-- Node1&#45;&gt;Node17 -->
<g id="edge17" class="edge"><title>Node1&#45;&gt;Node17</title>
<path fill="none" stroke="midnightblue" d="M1500.42,-160.718C1491.61,-151.2 1480.83,-139.561 1473.6,-131.751"/>
<polygon fill="midnightblue" stroke="midnightblue" points="1497.88,-163.123 1507.24,-168.083 1503.02,-158.367 1497.88,-163.123"/>
</g>
<!-- Node19 -->
<g id="node19" class="node"><title>Node19</title>
<g id="a_node19"><a xlink:href="receiverequestdialog_8cpp.html" target="_top" xlink:title="src/qt/receiverequestdialog.cpp">
<polygon fill="white" stroke="black" points="973,-0.5 973,-19.5 1128,-19.5 1128,-0.5 973,-0.5"/>
<text text-anchor="middle" x="1050.5" y="-7.5" font-family="Helvetica,sans-Serif" font-size="10.00">src/qt/receiverequestdialog.cpp</text>
</a>
</g>
</g>
<!-- Node1&#45;&gt;Node19 -->
<g id="edge29" class="edge"><title>Node1&#45;&gt;Node19</title>
<path fill="none" stroke="midnightblue" d="M1477.01,-165.497C1450.59,-157.186 1414.94,-145.146 1384.5,-132 1366.98,-124.433 1364.71,-117.698 1346.5,-112 1283.68,-92.3499 1096.88,-124.613 1052.5,-76 1038.49,-60.6573 1043.59,-33.7906 1047.56,-19.8917"/>
<polygon fill="midnightblue" stroke="midnightblue" points="1476.07,-168.868 1486.66,-168.494 1478.15,-162.184 1476.07,-168.868"/>
</g>
<!-- Node21 -->
<g id="node21" class="node"><title>Node21</title>
<g id="a_node21"><a xlink:href="receivecoinsdialog_8cpp.html" target="_top" xlink:title="src/qt/receivecoinsdialog.cpp">
<polygon fill="white" stroke="black" points="1479,-56.5 1479,-75.5 1624,-75.5 1624,-56.5 1479,-56.5"/>
<text text-anchor="middle" x="1551.5" y="-63.5" font-family="Helvetica,sans-Serif" font-size="10.00">src/qt/receivecoinsdialog.cpp</text>
</a>
</g>
</g>
<!-- Node1&#45;&gt;Node21 -->
<g id="edge28" class="edge"><title>Node1&#45;&gt;Node21</title>
<path fill="none" stroke="midnightblue" d="M1529.88,-160.66C1536.12,-152.592 1542.83,-142.378 1546.5,-132 1553.29,-112.794 1553.01,-88.4613 1552.24,-75.7066"/>
<polygon fill="midnightblue" stroke="midnightblue" points="1527.1,-158.529 1523.45,-168.478 1532.51,-162.973 1527.1,-158.529"/>
</g>
<!-- Node22 -->
<g id="node22" class="node"><title>Node22</title>
<g id="a_node22"><a xlink:href="recentrequeststablemodel_8h.html" target="_top" xlink:title="src/qt/recentrequeststablemodel.h">
<polygon fill="white" stroke="black" points="1660,-112.5 1660,-131.5 1827,-131.5 1827,-112.5 1660,-112.5"/>
<text text-anchor="middle" x="1743.5" y="-119.5" font-family="Helvetica,sans-Serif" font-size="10.00">src/qt/recentrequeststablemodel.h</text>
</a>
</g>
</g>
<!-- Node1&#45;&gt;Node22 -->
<g id="edge23" class="edge"><title>Node1&#45;&gt;Node22</title>
<path fill="none" stroke="midnightblue" d="M1561.57,-166.088C1604.65,-155.887 1668.09,-140.861 1707.54,-131.516"/>
<polygon fill="midnightblue" stroke="midnightblue" points="1560.55,-162.733 1551.63,-168.444 1562.16,-169.545 1560.55,-162.733"/>
</g>
<!-- Node25 -->
<g id="node25" class="node"><title>Node25</title>
<g id="a_node25"><a xlink:href="walletmodel_8cpp.html" target="_top" xlink:title="src/qt/walletmodel.cpp">
<polygon fill="white" stroke="black" points="2059,-56.5 2059,-75.5 2174,-75.5 2174,-56.5 2059,-56.5"/>
<text text-anchor="middle" x="2116.5" y="-63.5" font-family="Helvetica,sans-Serif" font-size="10.00">src/qt/walletmodel.cpp</text>
</a>
</g>
</g>
<!-- Node1&#45;&gt;Node25 -->
<g id="edge44" class="edge"><title>Node1&#45;&gt;Node25</title>
<path fill="none" stroke="midnightblue" d="M1578.15,-169.837C1642.85,-162.054 1746.62,-148.496 1835.5,-132 1926.09,-115.187 2031.62,-88.9635 2083.82,-75.5428"/>
<polygon fill="midnightblue" stroke="midnightblue" points="1577.62,-166.375 1568.11,-171.036 1578.45,-173.325 1577.62,-166.375"/>
</g>
<!-- Node26 -->
<g id="node26" class="node"><title>Node26</title>
<g id="a_node26"><a xlink:href="sendcoinsdialog_8h.html" target="_top" xlink:title="src/qt/sendcoinsdialog.h">
<polygon fill="white" stroke="black" points="2151.5,-112.5 2151.5,-131.5 2275.5,-131.5 2275.5,-112.5 2151.5,-112.5"/>
<text text-anchor="middle" x="2213.5" y="-119.5" font-family="Helvetica,sans-Serif" font-size="10.00">src/qt/sendcoinsdialog.h</text>
</a>
</g>
</g>
<!-- Node1&#45;&gt;Node26 -->
<g id="edge30" class="edge"><title>Node1&#45;&gt;Node26</title>
<path fill="none" stroke="midnightblue" d="M1578.27,-172.144C1711.06,-161.871 2019.09,-138.04 2151.35,-127.808"/>
<polygon fill="midnightblue" stroke="midnightblue" points="1577.95,-168.658 1568.25,-172.919 1578.49,-175.637 1577.95,-168.658"/>
</g>
<!-- Node28 -->
<g id="node28" class="node"><title>Node28</title>
<g id="a_node28"><a xlink:href="sendcoinsdialog_8cpp.html" target="_top" xlink:title="src/qt/sendcoinsdialog.cpp">
<polygon fill="white" stroke="black" points="2496.5,-56.5 2496.5,-75.5 2630.5,-75.5 2630.5,-56.5 2496.5,-56.5"/>
<text text-anchor="middle" x="2563.5" y="-63.5" font-family="Helvetica,sans-Serif" font-size="10.00">src/qt/sendcoinsdialog.cpp</text>
</a>
</g>
</g>
<!-- Node1&#45;&gt;Node28 -->
<g id="edge38" class="edge"><title>Node1&#45;&gt;Node28</title>
<path fill="none" stroke="midnightblue" d="M1578.32,-176.737C1737.28,-175.525 2152.21,-168.822 2284.5,-132 2302.89,-126.882 2304.47,-118.266 2322.5,-112 2355.82,-100.418 2447.02,-84.9697 2507.18,-75.5167"/>
<polygon fill="midnightblue" stroke="midnightblue" points="1578.2,-173.237 1568.23,-176.809 1578.25,-180.237 1578.2,-173.237"/>
</g>
<!-- Node29 -->
<g id="node29" class="node"><title>Node29</title>
<g id="a_node29"><a xlink:href="walletview_8cpp.html" target="_top" xlink:title="src/qt/walletview.cpp">
<polygon fill="white" stroke="black" points="2192.5,-56.5 2192.5,-75.5 2300.5,-75.5 2300.5,-56.5 2192.5,-56.5"/>
<text text-anchor="middle" x="2246.5" y="-63.5" font-family="Helvetica,sans-Serif" font-size="10.00">src/qt/walletview.cpp</text>
</a>
</g>
</g>
<!-- Node1&#45;&gt;Node29 -->
<g id="edge45" class="edge"><title>Node1&#45;&gt;Node29</title>
<path fill="none" stroke="midnightblue" d="M1578.33,-170.864C1654,-163.178 1784.86,-148.94 1896.5,-132 2008.78,-114.963 2140.19,-88.8953 2205.43,-75.5386"/>
<polygon fill="midnightblue" stroke="midnightblue" points="1577.63,-167.417 1568.03,-171.904 1578.33,-174.382 1577.63,-167.417"/>
</g>
<!-- Node30 -->
<g id="node30" class="node"><title>Node30</title>
<g id="a_node30"><a xlink:href="sendcoinsentry_8h.html" target="_top" xlink:title="src/qt/sendcoinsentry.h">
<polygon fill="white" stroke="black" points="2332,-112.5 2332,-131.5 2451,-131.5 2451,-112.5 2332,-112.5"/>
<text text-anchor="middle" x="2391.5" y="-119.5" font-family="Helvetica,sans-Serif" font-size="10.00">src/qt/sendcoinsentry.h</text>
</a>
</g>
</g>
<!-- Node1&#45;&gt;Node30 -->
<g id="edge34" class="edge"><title>Node1&#45;&gt;Node30</title>
<path fill="none" stroke="midnightblue" d="M1578.31,-174.865C1713.63,-169.961 2042.67,-156.397 2317.5,-132 2322.14,-131.588 2326.94,-131.114 2331.76,-130.603"/>
<polygon fill="midnightblue" stroke="midnightblue" points="1578,-171.374 1568.13,-175.231 1578.25,-178.37 1578,-171.374"/>
</g>
<!-- Node32 -->
<g id="node32" class="node"><title>Node32</title>
<g id="a_node32"><a xlink:href="sendcoinsentry_8cpp.html" target="_top" xlink:title="src/qt/sendcoinsentry.cpp">
<polygon fill="white" stroke="black" points="2820.5,-56.5 2820.5,-75.5 2950.5,-75.5 2950.5,-56.5 2820.5,-56.5"/>
<text text-anchor="middle" x="2885.5" y="-63.5" font-family="Helvetica,sans-Serif" font-size="10.00">src/qt/sendcoinsentry.cpp</text>
</a>
</g>
</g>
<!-- Node1&#45;&gt;Node32 -->
<g id="edge39" class="edge"><title>Node1&#45;&gt;Node32</title>
<path fill="none" stroke="midnightblue" d="M1578.27,-177.546C1761.56,-178.582 2293.6,-177.479 2460.5,-132 2478.91,-126.982 2480.26,-117.631 2498.5,-112 2632.29,-70.6863 2672.44,-92.453 2811.5,-76 2814.33,-75.6655 2817.22,-75.3219 2820.13,-74.9735"/>
<polygon fill="midnightblue" stroke="midnightblue" points="1578.27,-174.046 1568.25,-177.485 1578.23,-181.046 1578.27,-174.046"/>
</g>
<!-- Node33 -->
<g id="node33" class="node"><title>Node33</title>
<g id="a_node33"><a xlink:href="signverifymessagedialog_8cpp.html" target="_top" xlink:title="src/qt/signverifymessagedialog.cpp">
<polygon fill="white" stroke="black" points="2507.5,-112.5 2507.5,-131.5 2679.5,-131.5 2679.5,-112.5 2507.5,-112.5"/>
<text text-anchor="middle" x="2593.5" y="-119.5" font-family="Helvetica,sans-Serif" font-size="10.00">src/qt/signverifymessagedialog.cpp</text>
</a>
</g>
</g>
<!-- Node1&#45;&gt;Node33 -->
<g id="edge40" class="edge"><title>Node1&#45;&gt;Node33</title>
<path fill="none" stroke="midnightblue" d="M1578.32,-175.064C1733.66,-170.067 2148.28,-155.466 2493.5,-132 2498.02,-131.693 2502.66,-131.355 2507.33,-130.996"/>
<polygon fill="midnightblue" stroke="midnightblue" points="1577.91,-171.575 1568.02,-175.393 1578.13,-178.571 1577.91,-171.575"/>
</g>
<!-- Node34 -->
<g id="node34" class="node"><title>Node34</title>
<g id="a_node34"><a xlink:href="uritests_8cpp.html" target="_top" xlink:title="src/qt/test/uritests.cpp">
<polygon fill="white" stroke="black" points="2697.5,-112.5 2697.5,-131.5 2811.5,-131.5 2811.5,-112.5 2697.5,-112.5"/>
<text text-anchor="middle" x="2754.5" y="-119.5" font-family="Helvetica,sans-Serif" font-size="10.00">src/qt/test/uritests.cpp</text>
</a>
</g>
</g>
<!-- Node1&#45;&gt;Node34 -->
<g id="edge41" class="edge"><title>Node1&#45;&gt;Node34</title>
<path fill="none" stroke="midnightblue" d="M1578.32,-176.735C1754.06,-175.531 2265.5,-168.867 2688.5,-132 2691.38,-131.749 2694.33,-131.461 2697.3,-131.146"/>
<polygon fill="midnightblue" stroke="midnightblue" points="1578.2,-173.236 1568.23,-176.801 1578.25,-180.236 1578.2,-173.236"/>
</g>
<!-- Node35 -->
<g id="node35" class="node"><title>Node35</title>
<g id="a_node35"><a xlink:href="transactiontablemodel_8cpp.html" target="_top" xlink:title="src/qt/transactiontablemodel.cpp">
<polygon fill="white" stroke="black" points="2829.5,-112.5 2829.5,-131.5 2989.5,-131.5 2989.5,-112.5 2829.5,-112.5"/>
<text text-anchor="middle" x="2909.5" y="-119.5" font-family="Helvetica,sans-Serif" font-size="10.00">src/qt/transactiontablemodel.cpp</text>
</a>
</g>
</g>
<!-- Node1&#45;&gt;Node35 -->
<g id="edge42" class="edge"><title>Node1&#45;&gt;Node35</title>
<path fill="none" stroke="midnightblue" d="M1578.35,-176.31C1766.8,-173.923 2343.52,-164.305 2820.5,-132 2823.44,-131.801 2826.44,-131.581 2829.47,-131.346"/>
<polygon fill="midnightblue" stroke="midnightblue" points="1578.04,-172.813 1568.09,-176.438 1578.13,-179.813 1578.04,-172.813"/>
</g>
<!-- Node36 -->
<g id="node36" class="node"><title>Node36</title>
<g id="a_node36"><a xlink:href="transactionview_8cpp.html" target="_top" xlink:title="src/qt/transactionview.cpp">
<polygon fill="white" stroke="black" points="3007.5,-112.5 3007.5,-131.5 3139.5,-131.5 3139.5,-112.5 3007.5,-112.5"/>
<text text-anchor="middle" x="3073.5" y="-119.5" font-family="Helvetica,sans-Serif" font-size="10.00">src/qt/transactionview.cpp</text>
</a>
</g>
</g>
<!-- Node1&#45;&gt;Node36 -->
<g id="edge43" class="edge"><title>Node1&#45;&gt;Node36</title>
<path fill="none" stroke="midnightblue" d="M1578.39,-177.093C1783.18,-176.969 2449.37,-173.197 2998.5,-132 3001.38,-131.784 3004.31,-131.539 3007.28,-131.271"/>
<polygon fill="midnightblue" stroke="midnightblue" points="1578.13,-173.593 1568.13,-177.097 1578.13,-180.593 1578.13,-173.593"/>
</g>
<!-- Node3&#45;&gt;Node1 -->
<g id="edge3" class="edge"><title>Node3&#45;&gt;Node1</title>
<path fill="none" stroke="midnightblue" d="M329.725,-131.41C332.349,-131.62 334.945,-131.818 337.5,-132 771.792,-162.922 1297.08,-173.447 1462.85,-176.187"/>
<polygon fill="midnightblue" stroke="midnightblue" points="329.761,-127.9 319.5,-130.541 329.168,-134.875 329.761,-127.9"/>
</g>
<!-- Node4 -->
<g id="node4" class="node"><title>Node4</title>
<g id="a_node4"><a xlink:href="walletmodeltransaction_8cpp.html" target="_top" xlink:title="src/qt/walletmodeltransaction.cpp">
<polygon fill="white" stroke="black" points="160.5,-56.5 160.5,-75.5 324.5,-75.5 324.5,-56.5 160.5,-56.5"/>
<text text-anchor="middle" x="242.5" y="-63.5" font-family="Helvetica,sans-Serif" font-size="10.00">src/qt/walletmodeltransaction.cpp</text>
</a>
</g>
</g>
<!-- Node3&#45;&gt;Node4 -->
<g id="edge4" class="edge"><title>Node3&#45;&gt;Node4</title>
<path fill="none" stroke="midnightblue" d="M242.5,-101.805C242.5,-92.9102 242.5,-82.7798 242.5,-75.7511"/>
<polygon fill="midnightblue" stroke="midnightblue" points="239,-102.083 242.5,-112.083 246,-102.083 239,-102.083"/>
</g>
<!-- Node12 -->
<g id="node12" class="node"><title>Node12</title>
<g id="a_node12"><a xlink:href="moc__paymentserver_8cpp.html" target="_top" xlink:title="src/qt/moc_paymentserver.cpp">
<polygon fill="white" stroke="black" points="684,-56.5 684,-75.5 837,-75.5 837,-56.5 684,-56.5"/>
<text text-anchor="middle" x="760.5" y="-63.5" font-family="Helvetica,sans-Serif" font-size="10.00">src/qt/moc_paymentserver.cpp</text>
</a>
</g>
</g>
<!-- Node11&#45;&gt;Node12 -->
<g id="edge12" class="edge"><title>Node11&#45;&gt;Node12</title>
<path fill="none" stroke="midnightblue" d="M1208.84,-111.84C1046.84,-93.267 1004.34,-92.242 845.5,-76 842.843,-75.7283 840.139,-75.4503 837.408,-75.1682"/>
<polygon fill="midnightblue" stroke="midnightblue" points="1208.84,-115.363 1219.18,-113.03 1209.64,-108.409 1208.84,-115.363"/>
</g>
<!-- Node13 -->
<g id="node13" class="node"><title>Node13</title>
<g id="a_node13"><a xlink:href="paymentserver_8cpp.html" target="_top" xlink:title="src/qt/paymentserver.cpp">
<polygon fill="white" stroke="black" points="855,-56.5 855,-75.5 984,-75.5 984,-56.5 855,-56.5"/>
<text text-anchor="middle" x="919.5" y="-63.5" font-family="Helvetica,sans-Serif" font-size="10.00">src/qt/paymentserver.cpp</text>
</a>
</g>
</g>
<!-- Node11&#45;&gt;Node13 -->
<g id="edge13" class="edge"><title>Node11&#45;&gt;Node13</title>
<path fill="none" stroke="midnightblue" d="M1211.46,-110.917C1143.64,-100.715 1039.95,-85.1174 976.118,-75.5164"/>
<polygon fill="midnightblue" stroke="midnightblue" points="1211.21,-114.417 1221.62,-112.444 1212.25,-107.495 1211.21,-114.417"/>
</g>
<!-- Node14 -->
<g id="node14" class="node"><title>Node14</title>
<g id="a_node14"><a xlink:href="paymentservertests_8h.html" target="_top" xlink:title="src/qt/test/paymentservertests.h">
<polygon fill="white" stroke="black" points="356.5,-56.5 356.5,-75.5 514.5,-75.5 514.5,-56.5 356.5,-56.5"/>
<text text-anchor="middle" x="435.5" y="-63.5" font-family="Helvetica,sans-Serif" font-size="10.00">src/qt/test/paymentservertests.h</text>
</a>
</g>
</g>
<!-- Node11&#45;&gt;Node14 -->
<g id="edge14" class="edge"><title>Node11&#45;&gt;Node14</title>
<path fill="none" stroke="midnightblue" d="M1209.18,-111.952C904.344,-84.2508 825.068,-99.3081 523.5,-76 520.591,-75.7751 517.629,-75.5341 514.637,-75.2805"/>
<polygon fill="midnightblue" stroke="midnightblue" points="1208.92,-115.442 1219.19,-112.869 1209.55,-108.471 1208.92,-115.442"/>
</g>
<!-- Node16 -->
<g id="node16" class="node"><title>Node16</title>
<g id="a_node16"><a xlink:href="transactiondesc_8cpp.html" target="_top" xlink:title="src/qt/transactiondesc.cpp">
<polygon fill="white" stroke="black" points="533,-56.5 533,-75.5 666,-75.5 666,-56.5 533,-56.5"/>
<text text-anchor="middle" x="599.5" y="-63.5" font-family="Helvetica,sans-Serif" font-size="10.00">src/qt/transactiondesc.cpp</text>
</a>
</g>
</g>
<!-- Node11&#45;&gt;Node16 -->
<g id="edge16" class="edge"><title>Node11&#45;&gt;Node16</title>
<path fill="none" stroke="midnightblue" d="M1209.19,-111.931C971.225,-88.5889 908.972,-97.9272 674.5,-76 671.758,-75.7436 668.961,-75.4687 666.137,-75.18"/>
<polygon fill="midnightblue" stroke="midnightblue" points="1208.89,-115.419 1219.19,-112.921 1209.58,-108.453 1208.89,-115.419"/>
</g>
<!-- Node15 -->
<g id="node15" class="node"><title>Node15</title>
<g id="a_node15"><a xlink:href="paymentservertests_8cpp.html" target="_top" xlink:title="src/qt/test/paymentservertests.cpp">
<polygon fill="white" stroke="black" points="351,-0.5 351,-19.5 520,-19.5 520,-0.5 351,-0.5"/>
<text text-anchor="middle" x="435.5" y="-7.5" font-family="Helvetica,sans-Serif" font-size="10.00">src/qt/test/paymentservertests.cpp</text>
</a>
</g>
</g>
<!-- Node14&#45;&gt;Node15 -->
<g id="edge15" class="edge"><title>Node14&#45;&gt;Node15</title>
<path fill="none" stroke="midnightblue" d="M435.5,-45.8045C435.5,-36.9102 435.5,-26.7798 435.5,-19.7511"/>
<polygon fill="midnightblue" stroke="midnightblue" points="432,-46.083 435.5,-56.083 439,-46.083 432,-46.083"/>
</g>
<!-- Node18 -->
<g id="node18" class="node"><title>Node18</title>
<g id="a_node18"><a xlink:href="ui__receiverequestdialog_8h.html" target="_top" xlink:title="src/qt/forms/ui_receiverequestdialog.h">
<polygon fill="white" stroke="black" points="1079,-56.5 1079,-75.5 1264,-75.5 1264,-56.5 1079,-56.5"/>
<text text-anchor="middle" x="1171.5" y="-63.5" font-family="Helvetica,sans-Serif" font-size="10.00">src/qt/forms/ui_receiverequestdialog.h</text>
</a>
</g>
</g>
<!-- Node17&#45;&gt;Node18 -->
<g id="edge18" class="edge"><title>Node17&#45;&gt;Node18</title>
<path fill="none" stroke="midnightblue" d="M1408.88,-110.601C1353.32,-100.395 1269.6,-85.0189 1217.87,-75.5164"/>
<polygon fill="midnightblue" stroke="midnightblue" points="1408.45,-114.079 1418.91,-112.444 1409.71,-107.195 1408.45,-114.079"/>
</g>
<!-- Node17&#45;&gt;Node19 -->
<g id="edge22" class="edge"><title>Node17&#45;&gt;Node19</title>
<path fill="none" stroke="midnightblue" d="M1382.9,-112.183C1267.71,-99.8084 1072.48,-78.511 1069.5,-76 1052.77,-61.916 1050.32,-33.9847 1050.23,-19.7629"/>
<polygon fill="midnightblue" stroke="midnightblue" points="1382.78,-115.691 1393.1,-113.278 1383.53,-108.731 1382.78,-115.691"/>
</g>
<!-- Node20 -->
<g id="node20" class="node"><title>Node20</title>
<g id="a_node20"><a xlink:href="moc__receiverequestdialog_8cpp.html" target="_top" xlink:title="src/qt/moc_receiverequestdialog.cpp">
<polygon fill="white" stroke="black" points="1282,-56.5 1282,-75.5 1461,-75.5 1461,-56.5 1282,-56.5"/>
<text text-anchor="middle" x="1371.5" y="-63.5" font-family="Helvetica,sans-Serif" font-size="10.00">src/qt/moc_receiverequestdialog.cpp</text>
</a>
</g>
</g>
<!-- Node17&#45;&gt;Node20 -->
<g id="edge20" class="edge"><title>Node17&#45;&gt;Node20</title>
<path fill="none" stroke="midnightblue" d="M1441.44,-107.177C1424.14,-97.2407 1401.35,-84.1492 1386.57,-75.6545"/>
<polygon fill="midnightblue" stroke="midnightblue" points="1439.98,-110.378 1450.4,-112.324 1443.47,-104.308 1439.98,-110.378"/>
</g>
<!-- Node17&#45;&gt;Node21 -->
<g id="edge21" class="edge"><title>Node17&#45;&gt;Node21</title>
<path fill="none" stroke="midnightblue" d="M1487.95,-106.901C1503.72,-96.9986 1524.31,-84.0705 1537.72,-75.6545"/>
<polygon fill="midnightblue" stroke="midnightblue" points="1485.93,-104.042 1479.32,-112.324 1489.65,-109.97 1485.93,-104.042"/>
</g>
<!-- Node18&#45;&gt;Node19 -->
<g id="edge19" class="edge"><title>Node18&#45;&gt;Node19</title>
<path fill="none" stroke="midnightblue" d="M1143.19,-52.3678C1120.53,-42.2553 1089.37,-28.3486 1069.58,-19.5164"/>
<polygon fill="midnightblue" stroke="midnightblue" points="1141.77,-55.5643 1152.33,-56.4435 1144.62,-49.1719 1141.77,-55.5643"/>
</g>
<!-- Node22&#45;&gt;Node21 -->
<g id="edge25" class="edge"><title>Node22&#45;&gt;Node21</title>
<path fill="none" stroke="midnightblue" d="M1703.32,-109.699C1667.08,-99.507 1614.59,-84.7429 1581.78,-75.5164"/>
<polygon fill="midnightblue" stroke="midnightblue" points="1702.5,-113.105 1713.08,-112.444 1704.4,-106.367 1702.5,-113.105"/>
</g>
<!-- Node23 -->
<g id="node23" class="node"><title>Node23</title>
<g id="a_node23"><a xlink:href="moc__recentrequeststablemodel_8cpp.html" target="_top" xlink:title="src/qt/moc_recentrequeststablemodel.cpp">
<polygon fill="white" stroke="black" points="1642.5,-56.5 1642.5,-75.5 1844.5,-75.5 1844.5,-56.5 1642.5,-56.5"/>
<text text-anchor="middle" x="1743.5" y="-63.5" font-family="Helvetica,sans-Serif" font-size="10.00">src/qt/moc_recentrequeststablemodel.cpp</text>
</a>
</g>
</g>
<!-- Node22&#45;&gt;Node23 -->
<g id="edge24" class="edge"><title>Node22&#45;&gt;Node23</title>
<path fill="none" stroke="midnightblue" d="M1743.5,-101.805C1743.5,-92.9102 1743.5,-82.7798 1743.5,-75.7511"/>
<polygon fill="midnightblue" stroke="midnightblue" points="1740,-102.083 1743.5,-112.083 1747,-102.083 1740,-102.083"/>
</g>
<!-- Node24 -->
<g id="node24" class="node"><title>Node24</title>
<g id="a_node24"><a xlink:href="recentrequeststablemodel_8cpp.html" target="_top" xlink:title="src/qt/recentrequeststablemodel.cpp">
<polygon fill="white" stroke="black" points="1862.5,-56.5 1862.5,-75.5 2040.5,-75.5 2040.5,-56.5 1862.5,-56.5"/>
<text text-anchor="middle" x="1951.5" y="-63.5" font-family="Helvetica,sans-Serif" font-size="10.00">src/qt/recentrequeststablemodel.cpp</text>
</a>
</g>
</g>
<!-- Node22&#45;&gt;Node24 -->
<g id="edge26" class="edge"><title>Node22&#45;&gt;Node24</title>
<path fill="none" stroke="midnightblue" d="M1786.28,-109.894C1825.56,-99.6966 1882.93,-84.802 1918.7,-75.5164"/>
<polygon fill="midnightblue" stroke="midnightblue" points="1785.26,-106.543 1776.46,-112.444 1787.02,-113.318 1785.26,-106.543"/>
</g>
<!-- Node22&#45;&gt;Node25 -->
<g id="edge27" class="edge"><title>Node22&#45;&gt;Node25</title>
<path fill="none" stroke="midnightblue" d="M1812.78,-110.971C1883.67,-100.707 1992.57,-84.9411 2058.9,-75.339"/>
<polygon fill="midnightblue" stroke="midnightblue" points="1812,-107.547 1802.6,-112.444 1813,-114.475 1812,-107.547"/>
</g>
<!-- Node27 -->
<g id="node27" class="node"><title>Node27</title>
<g id="a_node27"><a xlink:href="moc__sendcoinsdialog_8cpp.html" target="_top" xlink:title="src/qt/moc_sendcoinsdialog.cpp">
<polygon fill="white" stroke="black" points="2319,-56.5 2319,-75.5 2478,-75.5 2478,-56.5 2319,-56.5"/>
<text text-anchor="middle" x="2398.5" y="-63.5" font-family="Helvetica,sans-Serif" font-size="10.00">src/qt/moc_sendcoinsdialog.cpp</text>
</a>
</g>
</g>
<!-- Node26&#45;&gt;Node27 -->
<g id="edge31" class="edge"><title>Node26&#45;&gt;Node27</title>
<path fill="none" stroke="midnightblue" d="M2252.67,-109.568C2287.57,-99.381 2337.85,-84.7034 2369.32,-75.5164"/>
<polygon fill="midnightblue" stroke="midnightblue" points="2251.43,-106.282 2242.81,-112.444 2253.39,-113.001 2251.43,-106.282"/>
</g>
<!-- Node26&#45;&gt;Node28 -->
<g id="edge32" class="edge"><title>Node26&#45;&gt;Node28</title>
<path fill="none" stroke="midnightblue" d="M2278.86,-110.917C2344.98,-100.715 2446.07,-85.1174 2508.3,-75.5164"/>
<polygon fill="midnightblue" stroke="midnightblue" points="2278.31,-107.46 2268.96,-112.444 2279.38,-114.378 2278.31,-107.46"/>
</g>
<!-- Node26&#45;&gt;Node29 -->
<g id="edge33" class="edge"><title>Node26&#45;&gt;Node29</title>
<path fill="none" stroke="midnightblue" d="M2224.33,-103.275C2229.97,-94.0454 2236.62,-83.1703 2241.15,-75.7511"/>
<polygon fill="midnightblue" stroke="midnightblue" points="2221.18,-101.725 2218.95,-112.083 2227.15,-105.375 2221.18,-101.725"/>
</g>
<!-- Node30&#45;&gt;Node28 -->
<g id="edge36" class="edge"><title>Node30&#45;&gt;Node28</title>
<path fill="none" stroke="midnightblue" d="M2428.33,-109.436C2460.76,-99.2551 2507.24,-84.664 2536.37,-75.5164"/>
<polygon fill="midnightblue" stroke="midnightblue" points="2427.25,-106.109 2418.75,-112.444 2429.34,-112.787 2427.25,-106.109"/>
</g>
<!-- Node31 -->
<g id="node31" class="node"><title>Node31</title>
<g id="a_node31"><a xlink:href="moc__sendcoinsentry_8cpp.html" target="_top" xlink:title="src/qt/moc_sendcoinsentry.cpp">
<polygon fill="white" stroke="black" points="2648.5,-56.5 2648.5,-75.5 2802.5,-75.5 2802.5,-56.5 2648.5,-56.5"/>
<text text-anchor="middle" x="2725.5" y="-63.5" font-family="Helvetica,sans-Serif" font-size="10.00">src/qt/moc_sendcoinsentry.cpp</text>
</a>
</g>
</g>
<!-- Node30&#45;&gt;Node31 -->
<g id="edge35" class="edge"><title>Node30&#45;&gt;Node31</title>
<path fill="none" stroke="midnightblue" d="M2454.65,-110.791C2517.76,-100.587 2613.68,-85.078 2672.82,-75.5164"/>
<polygon fill="midnightblue" stroke="midnightblue" points="2453.74,-107.392 2444.42,-112.444 2454.85,-114.303 2453.74,-107.392"/>
</g>
<!-- Node30&#45;&gt;Node32 -->
<g id="edge37" class="edge"><title>Node30&#45;&gt;Node32</title>
<path fill="none" stroke="midnightblue" d="M2461.56,-112.448C2462.88,-112.296 2464.2,-112.147 2465.5,-112 2619.13,-94.6663 2657.87,-93.3337 2811.5,-76 2814.33,-75.6808 2817.22,-75.35 2820.14,-75.0119"/>
<polygon fill="midnightblue" stroke="midnightblue" points="2460.79,-109.013 2451.26,-113.641 2461.6,-115.966 2460.79,-109.013"/>
</g>
</g>
</svg>
